<?xml version="1.0" encoding="UTF-8" standalone="yes"?>
<svg version="1.1" width="64" height="64" color-interpolation="linearRGB"
     xmlns:svg="http://www.w3.org/2000/svg" xmlns="http://www.w3.org/2000/svg">
 <g>
  <path style="fill:#000000; fill-opacity:0.4"
        d="M25 61H31C31 61 34 64 37 64C43 64 47 61 51 55C56 52 62 50 63 46L57 43L60 36H53L55 30L48 32V27L37 31"
  />
  <path style="fill:#000000"
        d="M27 10L36 12V3C32 4 27 10 27 10z
           M41 34L48 23H39L41 34z
           M37 14L39 23L45 12L37 14z"
  />
  <path style="fill:none; stroke:#000000; stroke-width:4"
        d="M39 22C37.31 13.08 35 9 26 9C18 9 13 18 13 24C12 25 4 31 4 37C4 43 10 43 14 43C15 46 15 55 15 55C17 57 22 59 26 59C28 59 32 57 34 55C36 53 39.95 48.17 42 40C42.84 36.61 40.68 30.91 39 22z"
  />
  <linearGradient id="gradient0" gradientUnits="userSpaceOnUse" x1="33.34" y1="58.11" x2="35.42" y2="43.22">
   <stop offset="0.0023" stop-color="#ebacac"/>
   <stop offset="1" stop-color="#c17878"/>
  </linearGradient>
  <path style="fill:url(#gradient0)"
        d="M26 59C28 59 32 57 34 55L29 43C28 40 25 40 22.14 41.08L26 59z"
  />
  <linearGradient id="gradient1" gradientUnits="userSpaceOnUse" x1="22.31" y1="57.7" x2="28.22" y2="48.4">
   <stop offset="0" stop-color="#fbc5c5"/>
   <stop offset="1" stop-color="#c47f7f"/>
  </linearGradient>
  <path style="fill:url(#gradient1)"
        d="M22.14 41.08C19.28 42.16 18 43 14 43C15 46 15 55 15 55C17 57 22 59 26 59L22.14 41.08z"
  />
  <linearGradient id="gradient2" gradientUnits="userSpaceOnUse" x1="5.88" y1="33.84" x2="14.44" y2="39.42">
   <stop offset="0" stop-color="#c9f0df"/>
   <stop offset="1" stop-color="#76b69f"/>
  </linearGradient>
  <path style="fill:url(#gradient2)"
        d="M26 9C18 9 13 18 13 24C12 25 4 31 4 37C6 46 17 40 19 36C21 32 21 17 28 14C35 11 37.31 13.08 39 22C37.31 13.08 35 9 26 9z"
  />
  <linearGradient id="gradient3" gradientUnits="userSpaceOnUse" x1="47.67" y1="18.88" x2="29.62" y2="12.42">
   <stop offset="0.0094" stop-color="#44856d"/>
   <stop offset="1" stop-color="#6bb59a"/>
  </linearGradient>
  <path style="fill:url(#gradient3)"
        d="M39 22C37.31 13.08 35 11 28 14C21 17 21 32 19 36C17 40 6 46 4 37C4 43 10 43 14 43C18 43 19.28 42.16 22.14 41.08C25 39.99 28 40 29 43L34 55C36 53 39.95 48.17 42 40C42.84 36.61 40.68 30.91 39 22z"
  />
  <path style="fill:#60a88d"
        d="M13 24C13.55 23.73 17 23 19 26C19 26 17 22 13 22V24z"
  />
  <linearGradient id="gradient4" gradientUnits="userSpaceOnUse" x1="25.5" y1="36.78" x2="28" y2="37.05">
   <stop offset="0" stop-color="#e8e8e8"/>
   <stop offset="1" stop-color="#cfcfcf"/>
  </linearGradient>
  <path style="fill:url(#gradient4)"
        d="M24 39L28 40L27 36L24 39z"
  />
  <path style="fill:#000000"
        d="M21 40C26 40 27 34 30 34C24 34 24 40 21 40z"
  />
  <path style="fill:#000000"
        d="M19 16C19 16 18 6 24 2C23.86 4.83 26 9 26 9C26 9 21 9 19 16z"
  />
  <linearGradient id="gradient5" gradientUnits="userSpaceOnUse" x1="27.37" y1="23.62" x2="32.64" y2="27.02">
   <stop offset="0" stop-color="#2d775c"/>
   <stop offset="1" stop-color="#03925e"/>
  </linearGradient>
  <path style="fill:url(#gradient5)"
        d="M25 26C25 23 29 15 33 20C37.19 25.23 33 31 29 30C25 29 25 26 25 26z"
  />
  <radialGradient id="gradient6" gradientUnits="userSpaceOnUse" cx="0" cy="0" r="64" gradientTransform="matrix(0.0917,0,0,-0.0917,28.2234,24.6368)">
   <stop offset="0.5" stop-color="#ffffba"/>
   <stop offset="1" stop-color="#e5b806"/>
  </radialGradient>
  <path style="fill:url(#gradient6)"
        d="M30 22C32.23 22 34 23.76 34 26C34 28.23 32.23 30 30 30C27.76 30 26 28.23 26 26C26 23.76 27.76 22 30 22z"
  />
  <path style="fill:#803e00"
        d="M30 23C28 25 28 28 30 30C31 28 31 25 30 23z"
  />
  <path style="fill:#37755b"
        d="M10 34C10.55 34 11 34.87 11 36C11 37.12 10.55 38 10 38C9.44 38 9 37.12 9 36C9 34.87 9.44 34 10 34z"
        transform="matrix(0.8569,0.2567,-0.2567,0.8569,7.0241,1.5969)"
  />
  <path style="fill:#37755b"
        d="M10 34C10.55 34 11 34.87 11 36C11 37.12 10.55 38 10 38C9.44 38 9 37.12 9 36C9 34.87 9.44 34 10 34z"
        transform="matrix(0.9973,-0.072,0.072,0.9973,-2.5683,0.8142)"
  />
 </g>
</svg>
