<?xml version="1.0" encoding="UTF-8" standalone="yes"?>
<svg version="1.1" width="64" height="64" color-interpolation="linearRGB"
     xmlns:svg="http://www.w3.org/2000/svg" xmlns="http://www.w3.org/2000/svg">
 <g>
  <path style="fill:none; stroke:#000000; stroke-width:4"
        d="M32 8C16.53 8 4 18.74 4 32C4 45.25 16.53 56 32 56C47.46 56 60 45.25 60 32C60 18.74 47.46 8 32 8z
           M54 44L46 52C46 52 52 50 58 56C58 46 54 44 54 44z"
        transform="matrix(0.991,0.1337,-0.1337,0.991,4.8472,-3.9748)"
  />
  <linearGradient id="gradient0" gradientUnits="userSpaceOnUse" x1="-2.81" y1="32.92" x2="31.84" y2="65.82">
   <stop offset="1" stop-color="#3f406c"/>
   <stop offset="0.4787" stop-color="#121344"/>
   <stop offset="0" stop-color="#62638c"/>
  </linearGradient>
  <path style="fill:url(#gradient0)"
        d="M54 44L46 52C46 52 52 50 58 56C58 46 54 44 54 44z
           M32 8C16.53 8 4 18.74 4 32C4 45.25 16.53 56 32 56C47.46 56 60 45.25 60 32C60 18.74 47.46 8 32 8z"
        transform="matrix(0.991,0.1337,-0.1337,0.991,4.8472,-3.9748)"
  />
  <radialGradient id="gradient1" gradientUnits="userSpaceOnUse" cx="0" cy="0" r="64" gradientTransform="matrix(0.1562,0,0,-0.1562,28,26)">
   <stop offset="0.5295" stop-color="#fbff00" stop-opacity="0.4117"/>
   <stop offset="1" stop-color="#fbff00" stop-opacity="0"/>
  </radialGradient>
  <path style="fill:url(#gradient1)"
        d="M18 26C18 20 22 16 28 16C34 16 38 20 38 26C38 32 34 34 34 34C34 34 34 38 32 38H24C22 38 22 34 22 34C22 34 18 32 18 26z"
        transform="matrix(1.8,0,0,1.7272,-18.4,-17.6363)"
  />
  <radialGradient id="gradient2" gradientUnits="userSpaceOnUse" cx="0" cy="0" r="64" gradientTransform="matrix(0.2187,0,0,0.2187,26,24)">
   <stop offset="0" stop-color="#fff79e"/>
   <stop offset="1" stop-color="#ffd060"/>
  </radialGradient>
  <path style="fill:url(#gradient2)"
        d="M18 26C18 20 22 16 28 16C34 16 38 20 38 26C38 32 34 34 34 34C34 34 34 38 32 38H24C22 38 22 34 22 34C22 34 18 32 18 26z"
        transform="matrix(1,0,0,1,4,2)"
  />
  <path style="fill:none; stroke:#eca805; stroke-width:2"
        d="M26 36C24 32 26 30 28 34C30 30 32 32 30 36"
        transform="matrix(1,0,0,1,4,2)"
  />
  <path style="fill:#eca805"
        d="M24 44V46L32 45V43L24 44z
           M24 40L32 39V41L24 42V40z"
        transform="matrix(1,0,0,1,4,2)"
  />
 </g>
</svg>
