<?xml version="1.0" encoding="UTF-8" standalone="yes"?>
<svg version="1.1" width="64" height="64" color-interpolation="linearRGB"
     xmlns:svg="http://www.w3.org/2000/svg" xmlns="http://www.w3.org/2000/svg">
 <g>
  <path style="fill:none; stroke:#000000; stroke-opacity:0.4; stroke-width:4; stroke-linecap:round; stroke-linejoin:round"
        d="M35 40L40 33C40 33 41 25 29 12.99C17 0.99 9 1.99 9 1.99L2 6.99L12 14.99L16 10.99C16 10.99 22 11.99 26 15.99C30 20 31 26 31 26L27 30L35 40z"
        transform="matrix(1,0,0,1,2,2)"
  />
  <path style="fill:none; stroke:#005900; stroke-width:4; stroke-linecap:round; stroke-linejoin:round"
        d="M35 40L40 33C40 33 41 25 29 12.99C17 0.99 9 1.99 9 1.99L2 6.99L12 14.99L16 10.99C16 10.99 22 11.99 26 15.99C30 20 31 26 31 26L27 30L35 40z"
  />
  <linearGradient id="gradient0" gradientUnits="userSpaceOnUse" x1="128" y1="2" x2="128" y2="40">
   <stop offset="0" stop-color="#80ff80"/>
   <stop offset="1" stop-color="#00b200"/>
  </linearGradient>
  <path style="fill:url(#gradient0)"
        d="M35 40L40 33C40 33 41 25 29 12.99C17 0.99 9 1.99 9 1.99L2 6.99L12 14.99L16 10.99C16 10.99 22 11.99 26 15.99C30 20 31 26 31 26L27 30L35 40z"
  />
 </g>
</svg>
