<?xml version="1.0" encoding="UTF-8" standalone="yes"?>
<svg version="1.1" width="64" height="64" color-interpolation="linearRGB"
     xmlns:svg="http://www.w3.org/2000/svg" xmlns="http://www.w3.org/2000/svg">
 <g>
  <path style="fill:none; stroke:#000000; stroke-opacity:0.4; stroke-width:4; stroke-linecap:round; stroke-linejoin:round"
        d="M40 7L33 2C33 2 25 1 13 13C1 25 2 33 2 33L7 40L15 30L11 26C11 26 12 20 16 16C20 12 26 11 26 11L30 15L40 7z"
        transform="matrix(1,0,0,1,2,2)"
  />
  <path style="fill:none; stroke:#800000; stroke-width:4; stroke-linecap:round; stroke-linejoin:round"
        d="M40 7L33 2C33 2 25 1 13 13C1 25 2 33 2 33L7 40L15 30L11 26C11 26 12 20 16 16C20 12 26 11 26 11L30 15L40 7z"
  />
  <linearGradient id="gradient0" gradientUnits="userSpaceOnUse" x1="128" y1="1.99" x2="128" y2="40">
   <stop offset="0" stop-color="#ffabab"/>
   <stop offset="1" stop-color="#d90000"/>
  </linearGradient>
  <path style="fill:url(#gradient0)"
        d="M40 7L33 2C33 2 25 1 13 13C1 25 2 33 2 33L7 40L15 30L11 26C11 26 12 20 16 16C20 12 26 11 26 11L30 15L40 7z"
  />
 </g>
</svg>
