<?xml version="1.0" encoding="UTF-8" standalone="yes"?>
<svg version="1.1" width="64" height="64" color-interpolation="linearRGB"
     xmlns:svg="http://www.w3.org/2000/svg" xmlns="http://www.w3.org/2000/svg">
 <g>
  <path style="fill:none; stroke:#000000; stroke-opacity:0.4; stroke-width:4; stroke-linecap:round; stroke-linejoin:round"
        d="M6 1.99H36V40H6V1.99z"
        transform="matrix(1,0,0,1,2,2)"
  />
  <path style="fill:none; stroke:#000080; stroke-width:4; stroke-linecap:round; stroke-linejoin:round"
        d="M6 1.99H36V40H6V1.99z"
  />
  <linearGradient id="gradient0" gradientUnits="userSpaceOnUse" x1="128" y1="1.99" x2="128" y2="40">
   <stop offset="0" stop-color="#ffffff"/>
   <stop offset="1" stop-color="#d9d9ff"/>
  </linearGradient>
  <path style="fill:url(#gradient0)"
        d="M6 1.99H36V40H6V1.99z"
  />
  <path style="fill:none; stroke:#000000; stroke-opacity:0.4; stroke-width:8; stroke-linecap:round; stroke-linejoin:round"
        d="M18 24C20 30 26 26 26 26C26 26 36 40 38 38C40 36 26 26 26 26C26 26 30 20 24 18"
        transform="matrix(1,0,0,1,2,2)"
  />
  <path style="fill:none; stroke:#545454; stroke-width:8; stroke-linecap:round; stroke-linejoin:round"
        d="M18 24C20 30 26 26 26 26C26 26 36 40 38 38C40 36 26 26 26 26C26 26 30 20 24 18"
  />
  <linearGradient id="gradient1" gradientUnits="userSpaceOnUse" x1="130" y1="16" x2="130" y2="40">
   <stop offset="0" stop-color="#ffffff"/>
   <stop offset="0.697" stop-color="#d9d9d9"/>
   <stop offset="1" stop-color="#ffffff"/>
  </linearGradient>
  <path style="fill:none; stroke:url(#gradient1); stroke-width:4; stroke-linecap:round; stroke-linejoin:round"
        d="M18 24C20 30 26 26 26 26C26 26 36 40 38 38C40 36 26 26 26 26C26 26 30 20 24 18"
  />
 </g>
</svg>
