<?xml version="1.0" encoding="UTF-8" standalone="yes"?>
<svg version="1.1" width="64" height="64" color-interpolation="linearRGB"
     xmlns:svg="http://www.w3.org/2000/svg" xmlns="http://www.w3.org/2000/svg">
 <g>
  <path style="fill:none; stroke:#000000; stroke-opacity:0.4; stroke-width:4; stroke-linecap:round; stroke-linejoin:round"
        d="M6 20L12 22L26 36L40 22L22 4L6 20z
           M36 18V18L40 14L34 4L28 10L36 18z"
        transform="matrix(1,0,0,1,2,2)"
  />
  <path style="fill:none; stroke:#004080; stroke-width:4; stroke-linecap:round; stroke-linejoin:round"
        d="M36 18V18L40 14L34 4L28 10L36 18z
           M30 12L34 8L37 13L34 16L30 12z"
  />
  <path style="fill:#ffffff"
        d="M36 18V18L40 14L34 4L28 10L36 18z
           M30 12L34 8L37 13L34 16L30 12z"
  />
  <path style="fill:none; stroke:#004080; stroke-width:4; stroke-linecap:round; stroke-linejoin:round"
        d="M6 20L12 22L26 36L40 22L22 4L6 20z"
  />
  <path style="fill:#ffffff"
        d="M8 18H36L22 4L8 18z"
  />
  <path style="fill:none; stroke:#004080; stroke-width:2; stroke-linecap:round; stroke-linejoin:round"
        d=""
  />
  <linearGradient id="gradient0" gradientUnits="userSpaceOnUse" x1="128" y1="17.99" x2="128" y2="35.99">
   <stop offset="0" stop-color="#abd5ff"/>
   <stop offset="1" stop-color="#006cd9"/>
  </linearGradient>
  <path style="fill:url(#gradient0)"
        d="M6 20L12 22L26 36L40 22L36 18H8L6 20z
           M6 18L4 20V26C6 28 6 33 6 33C13 33 22 35 22 38C22 41 16 41 16 42C16 43 14 44 10 44C6 44 4 43 4 42C4 41 0 41 0 38C0 36 2 36 2 36V20C2 18 6 18 6 18z"
  />
 </g>
</svg>
