<?xml version="1.0" encoding="UTF-8" standalone="yes"?>
<svg version="1.1" width="64" height="64" color-interpolation="linearRGB"
     xmlns:svg="http://www.w3.org/2000/svg" xmlns="http://www.w3.org/2000/svg">
 <g>
  <path style="fill:none; stroke:#000000; stroke-opacity:0.4; stroke-width:6; stroke-linecap:round; stroke-linejoin:round"
        d="M5 3H3"
        transform="matrix(1,0,0,1,2,2)"
  />
  <path style="fill:none; stroke:#545454; stroke-width:6; stroke-linecap:round; stroke-linejoin:round"
        d="M5 3H3"
  />
  <path style="fill:none; stroke:#ffffff; stroke-width:2; stroke-linecap:round; stroke-linejoin:round"
        d="M5 3H3"
  />
  <path style="fill:none; stroke:#000000; stroke-opacity:0.4; stroke-width:6; stroke-linecap:round; stroke-linejoin:round"
        d="M5 3H3"
        transform="matrix(1,0,0,1,14,2)"
  />
  <path style="fill:none; stroke:#545454; stroke-width:6; stroke-linecap:round; stroke-linejoin:round"
        d="M5 3H3"
        transform="matrix(1,0,0,1,12,0)"
  />
  <path style="fill:none; stroke:#ffffff; stroke-width:2; stroke-linecap:round; stroke-linejoin:round"
        d="M5 3H3"
        transform="matrix(1,0,0,1,12,0)"
  />
  <path style="fill:none; stroke:#000000; stroke-opacity:0.4; stroke-width:6; stroke-linecap:round; stroke-linejoin:round"
        d="M5 3H3"
        transform="matrix(1,0,0,1,26,2)"
  />
  <path style="fill:none; stroke:#545454; stroke-width:6; stroke-linecap:round; stroke-linejoin:round"
        d="M5 3H3"
        transform="matrix(1,0,0,1,24,0)"
  />
  <path style="fill:none; stroke:#ffffff; stroke-width:2; stroke-linecap:round; stroke-linejoin:round"
        d="M5 3H3"
        transform="matrix(1,0,0,1,24,0)"
  />
  <path style="fill:none; stroke:#000000; stroke-opacity:0.4; stroke-width:6; stroke-linecap:round; stroke-linejoin:round"
        d="M5 3H3"
        transform="matrix(1,0,0,1,12,38)"
  />
  <path style="fill:none; stroke:#545454; stroke-width:6; stroke-linecap:round; stroke-linejoin:round"
        d="M5 3H3"
        transform="matrix(1,0,0,1,10,36)"
  />
  <path style="fill:none; stroke:#ffffff; stroke-width:2; stroke-linecap:round; stroke-linejoin:round"
        d="M5 3H3"
        transform="matrix(1,0,0,1,10,36)"
  />
  <path style="fill:none; stroke:#000000; stroke-opacity:0.4; stroke-width:6; stroke-linecap:round; stroke-linejoin:round"
        d="M5 3H3"
        transform="matrix(1,0,0,1,24,38)"
  />
  <path style="fill:none; stroke:#545454; stroke-width:6; stroke-linecap:round; stroke-linejoin:round"
        d="M5 3H3"
        transform="matrix(1,0,0,1,22,36)"
  />
  <path style="fill:none; stroke:#ffffff; stroke-width:2; stroke-linecap:round; stroke-linejoin:round"
        d="M5 3H3"
        transform="matrix(1,0,0,1,22,36)"
  />
  <path style="fill:none; stroke:#000000; stroke-opacity:0.4; stroke-width:6; stroke-linecap:round; stroke-linejoin:round"
        d="M5 3H3"
        transform="matrix(1,0,0,1,36,38)"
  />
  <path style="fill:none; stroke:#545454; stroke-width:6; stroke-linecap:round; stroke-linejoin:round"
        d="M5 3H3"
        transform="matrix(1,0,0,1,34,36)"
  />
  <path style="fill:none; stroke:#ffffff; stroke-width:2; stroke-linecap:round; stroke-linejoin:round"
        d="M5 3H3"
        transform="matrix(1,0,0,1,34,36)"
  />
  <path style="fill:none; stroke:#000000; stroke-opacity:0.4; stroke-width:6; stroke-linecap:round; stroke-linejoin:round"
        d="M3 5V3"
        transform="matrix(1,0,0,1,2,12)"
  />
  <path style="fill:none; stroke:#545454; stroke-width:6; stroke-linecap:round; stroke-linejoin:round"
        d="M3 5V3"
        transform="matrix(1,0,0,1,0,10)"
  />
  <path style="fill:none; stroke:#ffffff; stroke-width:2; stroke-linecap:round; stroke-linejoin:round"
        d="M3 5V3"
        transform="matrix(1,0,0,1,0,10)"
  />
  <path style="fill:none; stroke:#000000; stroke-opacity:0.4; stroke-width:6; stroke-linecap:round; stroke-linejoin:round"
        d="M3 5V3"
        transform="matrix(1,0,0,1,2,24)"
  />
  <path style="fill:none; stroke:#545454; stroke-width:6; stroke-linecap:round; stroke-linejoin:round"
        d="M3 5V3"
        transform="matrix(1,0,0,1,0,22)"
  />
  <path style="fill:none; stroke:#ffffff; stroke-width:2; stroke-linecap:round; stroke-linejoin:round"
        d="M3 5V3"
        transform="matrix(1,0,0,1,0,22)"
  />
  <path style="fill:none; stroke:#000000; stroke-opacity:0.4; stroke-width:6; stroke-linecap:round; stroke-linejoin:round"
        d="M3 5V3"
        transform="matrix(1,0,0,1,2,36)"
  />
  <path style="fill:none; stroke:#545454; stroke-width:6; stroke-linecap:round; stroke-linejoin:round"
        d="M3 5V3"
        transform="matrix(1,0,0,1,0,34)"
  />
  <path style="fill:none; stroke:#ffffff; stroke-width:2; stroke-linecap:round; stroke-linejoin:round"
        d="M3 5V3"
        transform="matrix(1,0,0,1,0,34)"
  />
  <path style="fill:none; stroke:#000000; stroke-opacity:0.4; stroke-width:6; stroke-linecap:round; stroke-linejoin:round"
        d="M3 5V3"
        transform="matrix(1,0,0,1,38,2)"
  />
  <path style="fill:none; stroke:#545454; stroke-width:6; stroke-linecap:round; stroke-linejoin:round"
        d="M3 5V3"
        transform="matrix(1,0,0,1,36,0)"
  />
  <path style="fill:none; stroke:#ffffff; stroke-width:2; stroke-linecap:round; stroke-linejoin:round"
        d="M3 5V3"
        transform="matrix(1,0,0,1,36,0)"
  />
  <path style="fill:none; stroke:#000000; stroke-opacity:0.4; stroke-width:6; stroke-linecap:round; stroke-linejoin:round"
        d="M3 5V3"
        transform="matrix(1,0,0,1,38,14)"
  />
  <path style="fill:none; stroke:#545454; stroke-width:6; stroke-linecap:round; stroke-linejoin:round"
        d="M3 5V3"
        transform="matrix(1,0,0,1,36,12)"
  />
  <path style="fill:none; stroke:#ffffff; stroke-width:2; stroke-linecap:round; stroke-linejoin:round"
        d="M3 5V3"
        transform="matrix(1,0,0,1,36,12)"
  />
  <path style="fill:none; stroke:#000000; stroke-opacity:0.4; stroke-width:6; stroke-linecap:round; stroke-linejoin:round"
        d="M3 5V3"
        transform="matrix(1,0,0,1,38,26)"
  />
  <path style="fill:none; stroke:#545454; stroke-width:6; stroke-linecap:round; stroke-linejoin:round"
        d="M3 5V3"
        transform="matrix(1,0,0,1,36,24)"
  />
  <path style="fill:none; stroke:#ffffff; stroke-width:2; stroke-linecap:round; stroke-linejoin:round"
        d="M3 5V3"
        transform="matrix(1,0,0,1,36,24)"
  />
 </g>
</svg>
