<?xml version="1.0" encoding="UTF-8" standalone="yes"?>
<svg version="1.1" width="64" height="64" color-interpolation="linearRGB"
     xmlns:svg="http://www.w3.org/2000/svg" xmlns="http://www.w3.org/2000/svg">
 <g>
  <path style="fill:none; stroke:#000000; stroke-opacity:0.4; stroke-width:4; stroke-linecap:round; stroke-linejoin:round"
        d="M8 6V2H14V6H8z
           M20 22V24H14L12 26H2L4 14L8 10H14V12H20V14H14V22H20z
           M14 40V38L12 30H4L2 38V40H14z"
        transform="matrix(1,0,0,1,2,2)"
  />
  <path style="fill:none; stroke:#000000; stroke-opacity:0.4; stroke-width:4; stroke-linecap:round; stroke-linejoin:round"
        d="M8 6V2H14V6H8z
           M20 22V24H14L12 26H2L4 14L8 10H14V12H20V14H14V22H20z
           M14 40V38L12 30H4L2 38V40H14z"
        transform="matrix(-1,0,0,1,42,2)"
  />
  <path style="fill:none; stroke:#000000; stroke-width:4; stroke-linecap:round; stroke-linejoin:round"
        d="M8 6V2H14V6H8z
           M20 22V24H14L12 26H2L4 14L8 10H14V12H20V14H14V22H20z
           M14 40V38L12 30H4L2 38V40H14z"
  />
  <path style="fill:none; stroke:#000000; stroke-width:4; stroke-linecap:round; stroke-linejoin:round"
        d="M8 6V2H14V6H8z
           M20 22V24H14L12 26H2L4 14L8 10H14V12H20V14H14V22H20z
           M14 40V38L12 30H4L2 38V40H14z"
        transform="matrix(-1,0,0,1,40,0)"
  />
  <linearGradient id="gradient0" gradientUnits="userSpaceOnUse" x1="128" y1="1.99" x2="128" y2="40">
   <stop offset="0" stop-color="#808080"/>
   <stop offset="1" stop-color="#282828"/>
  </linearGradient>
  <path style="fill:url(#gradient0)"
        d="M14 40V38L12 30H4L2 38V40H14z
           M20 22V24H14L12 26H2L4 14L8 10H14V12H20V14H14V22H20z
           M8 6V2H14V6H8z"
  />
  <linearGradient id="gradient1" gradientUnits="userSpaceOnUse" x1="128" y1="1.99" x2="128" y2="40">
   <stop offset="0" stop-color="#808080"/>
   <stop offset="1" stop-color="#282828"/>
  </linearGradient>
  <path style="fill:url(#gradient1)"
        d="M14 40V38L12 30H4L2 38V40H14z
           M20 22V24H14L12 26H2L4 14L8 10H14V12H20V14H14V22H20z
           M8 6V2H14V6H8z"
        transform="matrix(-1,0,0,1,40,0)"
  />
 </g>
</svg>
