<?xml version="1.0" encoding="UTF-8" standalone="yes"?>
<svg version="1.1" width="64" height="64" color-interpolation="linearRGB"
     xmlns:svg="http://www.w3.org/2000/svg" xmlns="http://www.w3.org/2000/svg">
 <g>
  <path style="fill:none; stroke:#000000; stroke-opacity:0.4; stroke-width:2"
        d="M3 26V19C3 17 7 1 8 1C9 1 13 17 13 19V26
           M41 6C41 3.23 38.76 1 36 1V1C33.23 1 31 3.23 31 6V20C31 22.76 33.23 25 36 25V25C38.76 25 41 22.76 41 20
           M27 18C27 15.23 24.76 13 22 13V13V13V13C24.76 13 27 10.76 27 8V6C27 3.23 24.76 1 22 1H17V25H22C24.76 25 27 22.76 27 20V18z
           M18 13H22
           M4 19H12"
        transform="matrix(1,0,0,1,2,2)"
  />
  <path style="fill:none; stroke:#000000; stroke-width:2"
        d="M3 26V19C3 17 7 1 8 1C9 1 13 17 13 19V26
           M41 6C41 3.23 38.76 1 36 1V1C33.23 1 31 3.23 31 6V20C31 22.76 33.23 25 36 25V25C38.76 25 41 22.76 41 20
           M27 18C27 15.23 24.76 13 22 13V13V13V13C24.76 13 27 10.76 27 8V6C27 3.23 24.76 1 22 1H17V25H22C24.76 25 27 22.76 27 20V18z
           M4 19H12
           M18 13H22"
  />
  <path style="fill:none; stroke:#000000; stroke-opacity:0.4; stroke-width:4; stroke-linejoin:round"
        d="M12 32H28L20 40L12 32z"
        transform="matrix(1,0,0,1,2,2)"
  />
  <path style="fill:none; stroke:#005900; stroke-width:4; stroke-linejoin:round"
        d="M12 32H28L20 40L12 32z"
  />
  <linearGradient id="gradient0" gradientUnits="userSpaceOnUse" x1="128" y1="32" x2="128" y2="40">
   <stop offset="0" stop-color="#80ff80"/>
   <stop offset="1" stop-color="#00b200"/>
  </linearGradient>
  <path style="fill:url(#gradient0)"
        d="M12 32H28L20 40L12 32z"
  />
 </g>
</svg>
