<?xml version="1.0" encoding="UTF-8" standalone="yes"?>
<svg version="1.1" width="64" height="64" color-interpolation="linearRGB"
     xmlns:svg="http://www.w3.org/2000/svg" xmlns="http://www.w3.org/2000/svg">
 <g>
  <path style="fill:none; stroke:#000000; stroke-opacity:0.4; stroke-width:4; stroke-linecap:round; stroke-linejoin:round"
        d="M38 2H40V18H38V2z
           M21 2C11.61 2 4 9.61 4 19V40H38V19C38 9.61 30.38 2 21 2z
           M21 20C9.75 20 1.31 24 2.14 28.94L4 40H38L39.85 28.94C40.68 24 32.24 20 21 20z"
        transform="matrix(1,0,0,1,2,2)"
  />
  <path style="fill:none; stroke:#800000; stroke-width:4; stroke-linecap:round; stroke-linejoin:round"
        d="M38 2H40V18H38V2z"
  />
  <linearGradient id="gradient0" gradientUnits="userSpaceOnUse" x1="128" y1="2" x2="128" y2="18">
   <stop offset="0" stop-color="#ffabab"/>
   <stop offset="1" stop-color="#d90000"/>
  </linearGradient>
  <path style="fill:url(#gradient0)"
        d="M38 2H40V18H38V2z"
  />
  <path style="fill:none; stroke:#262626; stroke-width:4; stroke-linecap:round; stroke-linejoin:round"
        d="M21 2C11.61 2 4 9.61 4 19V40H38V19C38 9.61 30.38 2 21 2z"
  />
  <linearGradient id="gradient1" gradientUnits="userSpaceOnUse" x1="-64" y1="40" x2="-64" y2="1.99">
   <stop offset="0" stop-color="#808080"/>
   <stop offset="1" stop-color="#292929"/>
  </linearGradient>
  <path style="fill:url(#gradient1)"
        d="M21 2C11.61 2 4 9.61 4 19V40H38V19C38 9.61 30.38 2 21 2z"
  />
  <path style="fill:none; stroke:#545454; stroke-width:4; stroke-linecap:round; stroke-linejoin:round"
        d="M21 20C9.75 20 1.31 24 2.14 28.94L4 40H38L39.85 28.94C40.68 24 32.24 20 21 20z"
  />
  <linearGradient id="gradient2" gradientUnits="userSpaceOnUse" x1="128" y1="20" x2="128" y2="40">
   <stop offset="0" stop-color="#ffffff"/>
   <stop offset="1" stop-color="#e6e6e6"/>
  </linearGradient>
  <path style="fill:url(#gradient2)"
        d="M21 20C9.75 20 1.31 24 2.14 28.94L4 40H38L39.85 28.94C40.68 24 32.24 20 21 20z"
  />
  <path style="fill:none; stroke:#545454; stroke-width:4; stroke-linecap:round; stroke-linejoin:round"
        d="M18 16H24V24H18V16z"
        transform="matrix(1,0,0,0.8333,0,2.3333)"
  />
  <linearGradient id="gradient3" gradientUnits="userSpaceOnUse" x1="128" y1="16" x2="128" y2="24">
   <stop offset="0" stop-color="#ffffff"/>
   <stop offset="1" stop-color="#808080"/>
  </linearGradient>
  <path style="fill:url(#gradient3)"
        d="M18 16H24V24H18V16z"
  />
  <path style="fill:none; stroke:#804100; stroke-width:4; stroke-linejoin:round"
        d="M32 28C32 28 32 19.3 32 17C32 15.17 28.91 11.9 28 12C26.4 12.16 29.69 15.53 28.53 15.53C27.38 15.53 25.05 10 22.75 10C20.44 10 23.92 14.38 22.76 14.38C21.61 14.38 18.3 10 16 10C14 10 18.15 15 17 15C16.38 15 13.55 13.94 11.24 10.6C9.62 8.25 7.37 4 4.83 4C2.37 4 5.54 8.92 7.08 11.46C8.62 14 15 24 15 24C15 24 7.3 20 5 20C3.84 20 2 20.44 2 21.59C2 23 4 22.88 5.46 23.61C7.76 24.76 13 26 16 31"
        transform="matrix(1,0,0,1,8,10)"
  />
  <radialGradient id="gradient4" gradientUnits="userSpaceOnUse" cx="0" cy="0" r="64" gradientTransform="matrix(0.3171,-0.2001,0.2306,0.3654,10.5078,13.6736)">
   <stop offset="0" stop-color="#fff2d9"/>
   <stop offset="1" stop-color="#ffd499"/>
  </radialGradient>
  <path style="fill:url(#gradient4)"
        d="M7.08 11.46C8.62 14 15 24 15 24C15 24 7.3 20 5 20C3.84 20 2 20.44 2 21.59C2 23 4 22.88 5.46 23.61C7.76 24.76 13 26 16 31C16 31 22 32 25 31C29.3 29.56 32 28 32 28C32 28 32 19.3 32 17C32 15.17 28.91 11.9 28 12C26.4 12.16 29.69 15.53 28.53 15.53C27.38 15.53 25.05 10 22.75 10C20.44 10 23.92 14.38 22.76 14.38C21.61 14.38 18.3 10 16 10C14 10 18.15 15 17 15C16.38 15 13.55 13.94 11.24 10.6C9.62 8.25 7.37 4 4.83 4C2.37 4 5.54 8.92 7.08 11.46z"
        transform="matrix(1,0,0,1,8,10)"
  />
 </g>
</svg>
