<?xml version="1.0" encoding="UTF-8" standalone="yes"?>
<svg version="1.1" width="64" height="64" color-interpolation="linearRGB"
     xmlns:svg="http://www.w3.org/2000/svg" xmlns="http://www.w3.org/2000/svg">
 <g>
  <path style="fill:#000000; fill-opacity:0.4"
        d="M20.99 2C10.5 2 1.99 10.5 1.99 21C1.99 31.47 10.5 40 20.99 40C31.47 40 40 31.47 40 21C40 10.5 31.47 2 20.99 2z"
        transform="matrix(1,0,0,1,2,2)"
  />
  <path style="fill:none; stroke:#000000; stroke-width:4; stroke-linecap:round; stroke-linejoin:round"
        d="M20.99 2C10.5 2 1.99 10.5 1.99 21C1.99 31.47 10.5 40 20.99 40C31.47 40 40 31.47 40 21C40 10.5 31.47 2 20.99 2z"
  />
  <linearGradient id="gradient0" gradientUnits="userSpaceOnUse" x1="128" y1="1.99" x2="128" y2="40">
   <stop offset="0" stop-color="#808080"/>
   <stop offset="1" stop-color="#282828"/>
  </linearGradient>
  <path style="fill:url(#gradient0)"
        d="M20.99 2C10.5 2 1.99 10.5 1.99 21C1.99 31.47 10.5 40 20.99 40C31.47 40 40 31.47 40 21C40 10.5 31.47 2 20.99 2z"
  />
  <linearGradient id="gradient1" gradientUnits="userSpaceOnUse" x1="128" y1="1.99" x2="128" y2="40">
   <stop offset="0" stop-color="#ffffff"/>
   <stop offset="1" stop-color="#e5e5e5"/>
  </linearGradient>
  <path style="fill:url(#gradient1)"
        d="M16 24C12.68 24 10 25.79 10 28C10 30.2 12.68 32 16 32C19.31 32 22 30.2 22 28C22 25.79 19.31 24 16 24z
           M20 10V28H22V18C22 18 32 17 28 24C40 12 20 10 20 10z"
  />
 </g>
</svg>
