<?xml version="1.0" encoding="UTF-8" standalone="yes"?>
<svg version="1.1" width="64" height="64" color-interpolation="linearRGB"
     xmlns:svg="http://www.w3.org/2000/svg" xmlns="http://www.w3.org/2000/svg">
 <g>
  <path style="fill:none; stroke:#000000; stroke-opacity:0.4; stroke-width:4; stroke-linecap:round; stroke-linejoin:round"
        d="M2 40V26C2 26 8 22 12 22L10 20L14 18C14 18 12 14 12 12C12 10 14 0 22 2C30 4 29.83 -0.16 33 3C35 5 32 6 32 10C32 12 32 16 30 18C30 22 28 24 28 24C28 24 36 30 38 30C40 32 40 40 40 40H2z"
        transform="matrix(1,0,0,1,2,2)"
  />
  <path style="fill:none; stroke:#000000; stroke-width:4; stroke-linecap:round; stroke-linejoin:round"
        d="M2 40V26C2 26 8 22 12 22L10 20L14 18C14 18 12 14 12 12C12 10 14 0 22 2C30 4 29.83 -0.16 33 3C35 5 32 6 32 10C32 12 32 16 30 18C30 22 28 24 28 24C28 24 36 30 38 30C40 32 40 40 40 40H2z"
  />
  <linearGradient id="gradient0" gradientUnits="userSpaceOnUse" x1="128" y1="1.99" x2="128" y2="40">
   <stop offset="0" stop-color="#808080"/>
   <stop offset="1" stop-color="#282828"/>
  </linearGradient>
  <path style="fill:url(#gradient0)"
        d="M2 40V26C2 26 8 22 12 22L10 20L14 18C14 18 12 14 12 12C12 10 14 0 22 2C30 4 29.83 -0.16 33 3C35 5 32 6 32 10C32 12 32 16 30 18C30 22 28 24 28 24C28 24 36 30 38 30C40 32 40 40 40 40H2z"
  />
 </g>
</svg>
