<?xml version="1.0" encoding="UTF-8" standalone="yes"?>
<svg version="1.1" width="64" height="64" color-interpolation="linearRGB"
     xmlns:svg="http://www.w3.org/2000/svg" xmlns="http://www.w3.org/2000/svg">
 <g>
  <path style="fill:none; stroke:#000000; stroke-opacity:0.4; stroke-width:10"
        d="M21 20V5
           M9.68 9.68C3.43 15.93 3.43 26.06 9.68 32.31C15.93 38.56 26.06 38.56 32.31 32.31C38.56 26.06 38.56 15.93 32.31 9.68"
        transform="matrix(1,0,0,1,2,2)"
  />
  <path style="fill:none; stroke:#800000; stroke-width:10; stroke-linecap:round"
        d="M21 20V5
           M9.68 9.68C3.43 15.93 3.43 26.06 9.68 32.31C15.93 38.56 26.06 38.56 32.31 32.31C38.56 26.06 38.56 15.93 32.31 9.68"
  />
  <linearGradient id="gradient0" gradientUnits="userSpaceOnUse" x1="128" y1="1.99" x2="128" y2="40">
   <stop offset="0" stop-color="#ffabab"/>
   <stop offset="1" stop-color="#d90000"/>
  </linearGradient>
  <path style="fill:none; stroke:url(#gradient0); stroke-width:6; stroke-linecap:round"
        d="M9.68 9.68C3.43 15.93 3.43 26.06 9.68 32.31C15.93 38.56 26.06 38.56 32.31 32.31C38.56 26.06 38.56 15.93 32.31 9.68
           M21 20V5"
  />
 </g>
</svg>
