<?xml version="1.0" encoding="UTF-8" standalone="yes"?>
<svg version="1.1" width="64" height="64" color-interpolation="linearRGB"
     xmlns:svg="http://www.w3.org/2000/svg" xmlns="http://www.w3.org/2000/svg">
 <g>
  <path style="fill:none; stroke:#000000; stroke-opacity:0.4; stroke-width:4; stroke-linecap:round; stroke-linejoin:round"
        d="M40 2V18H24L29 13C24 6 11 3 2 10C9 2 24.38 -1.62 35 7L40 2z"
        transform="matrix(1,0,0,1,2,2)"
  />
  <path style="fill:none; stroke:#004080; stroke-width:4; stroke-linecap:round; stroke-linejoin:round"
        d="M40 2V18H24L29 13C24 6 11 3 2 10C9 2 24.38 -1.62 35 7L40 2z"
  />
  <linearGradient id="gradient0" gradientUnits="userSpaceOnUse" x1="128" y1="1.99" x2="128" y2="18">
   <stop offset="0" stop-color="#abd5ff"/>
   <stop offset="1" stop-color="#006cd9"/>
  </linearGradient>
  <path style="fill:url(#gradient0)"
        d="M40 2V18H24L29 13C24 6 11 3 2 10C9 2 24.38 -1.62 35 7L40 2z"
  />
  <path style="fill:none; stroke:#000000; stroke-opacity:0.4; stroke-width:4; stroke-linecap:round; stroke-linejoin:round"
        d="M40 2V18H24L29 13C24 6 11 3 2 10C9 2 24.38 -1.62 35 7L40 2z"
        transform="matrix(-1,0,-0,-1,44,44)"
  />
  <path style="fill:none; stroke:#004080; stroke-width:4; stroke-linecap:round; stroke-linejoin:round"
        d="M40 2V18H24L29 13C24 6 11 3 2 10C9 2 24.38 -1.62 35 7L40 2z"
        transform="matrix(-1,0,-0,-1,42,42)"
  />
  <linearGradient id="gradient1" gradientUnits="userSpaceOnUse" x1="128" y1="1.99" x2="128" y2="18">
   <stop offset="1" stop-color="#aad4ff"/>
   <stop offset="0" stop-color="#006cd9"/>
  </linearGradient>
  <path style="fill:url(#gradient1)"
        d="M40 2V18H24L29 13C24 6 11 3 2 10C9 2 24.38 -1.62 35 7L40 2z"
        transform="matrix(-1,0,-0,-1,42,42)"
  />
 </g>
</svg>
