<?xml version="1.0" encoding="UTF-8" standalone="yes"?>
<svg version="1.1" width="64" height="64" color-interpolation="linearRGB"
     xmlns:svg="http://www.w3.org/2000/svg" xmlns="http://www.w3.org/2000/svg">
 <g>
  <path style="fill:#010101; fill-opacity:0.4196"
        d="M27.99 1.99C13.63 1.99 1.99 13.63 1.99 27.99C1.99 42.34 13.63 53.99 27.99 53.99C42.34 53.99 53.99 42.34 53.99 27.99C53.99 13.63 42.34 1.99 27.99 1.99z"
        transform="matrix(1,0,0,0.4999,10,36.9999)"
  />
  <path style="fill:none; stroke:#010101; stroke-width:4"
        d="M27.99 1.99C13.63 1.99 1.99 13.63 1.99 27.99C1.99 42.34 13.63 53.99 27.99 53.99C42.34 53.99 53.99 42.34 53.99 27.99C53.99 13.63 42.34 1.99 27.99 1.99z"
  />
  <radialGradient id="gradient0" gradientUnits="userSpaceOnUse" cx="0" cy="0" r="64" gradientTransform="matrix(0.5685,0,0,0.5685,17.5986,17.5986)">
   <stop offset="0" stop-color="#d7d7d7"/>
   <stop offset="0.8047" stop-color="#161616"/>
   <stop offset="1" stop-color="#565656"/>
  </radialGradient>
  <path style="fill:url(#gradient0)"
        d="M27.99 1.99C13.63 1.99 1.99 13.63 1.99 27.99C1.99 42.34 13.63 53.99 27.99 53.99C42.34 53.99 53.99 42.34 53.99 27.99C53.99 13.63 42.34 1.99 27.99 1.99z"
  />
  <path style="fill:#010101"
        d="M16 4C8.26 4 2 6.9 2 10.5V16.5C2 20.09 8.26 23 16 23C23.73 23 30 20.09 30 16.5V10.5C30 6.9 23.73 4 16 4z"
        transform="matrix(0.7071,0.7071,-0.7071,0.7071,39.2322,-6.3596)"
  />
  <radialGradient id="gradient1" gradientUnits="userSpaceOnUse" cx="0" cy="0" r="64" gradientTransform="matrix(0.4677,-0.0299,0.0122,0.191,9.2933,12.004)">
   <stop offset="0.0026" stop-color="#d7d7d7"/>
   <stop offset="1" stop-color="#2c2c2c"/>
  </radialGradient>
  <path style="fill:url(#gradient1)"
        d="M16 17C8.26 17 2 14 2 10.5V16.5C2 20.09 8.26 23 16 23C23.73 23 30 20.09 30 16.5V10.5C30 14 23.73 17 16 17z"
        transform="matrix(0.7071,0.7071,-0.7071,0.7071,39.2322,-6.3596)"
  />
  <radialGradient id="gradient2" gradientUnits="userSpaceOnUse" cx="0" cy="0" r="64" gradientTransform="matrix(0.5185,0.2891,-0.1521,0.2729,21.506,9.1479)">
   <stop offset="0" stop-color="#494949"/>
   <stop offset="0.4303" stop-color="#7a7a7a"/>
   <stop offset="0.7939" stop-color="#d7d7d7"/>
  </radialGradient>
  <path style="fill:url(#gradient2)"
        d="M16 4C23.84 4 30 6.85 30 10.5C30 14.13 23.84 17 16 17C8.15 17 2 14.13 2 10.5C2 6.85 8.15 4 16 4z"
        transform="matrix(0.7071,0.7071,-0.7071,0.7071,39.2322,-6.3596)"
  />
  <linearGradient id="gradient3" gradientUnits="userSpaceOnUse" x1="43.53" y1="20.47" x2="57.04" y2="24.14">
   <stop offset="0" stop-color="#ffde05"/>
   <stop offset="1" stop-color="#ff0606" stop-opacity="0.1843"/>
  </linearGradient>
  <path style="fill:url(#gradient3)"
        d="M47 32L48 38L50 32L58 36L52 30L56 28H52L54 20L49 27L44 24L46 28H40L46 30L40 34L47 32z"
        transform="matrix(0.1722,1.3781,-1.3781,0.1722,78.0255,-44.0258)"
  />
  <path style="fill:none; stroke:#010101; stroke-width:8; stroke-linecap:round"
        d="M16 10C16 8 16 4 20 4C24 4 24 10 24 14C24 14 24 22 28 24"
        transform="matrix(0.883,0.4692,-0.4692,0.883,34.9085,-6.7507)"
  />
  <radialGradient id="gradient4" gradientUnits="userSpaceOnUse" cx="0" cy="0" r="64" gradientTransform="matrix(0.1524,0.0135,-0.0215,0.242,21.4263,15.6274)">
   <stop offset="0" stop-color="#ffda59"/>
   <stop offset="0.4947" stop-color="#5a4602"/>
   <stop offset="1" stop-color="#ffda59"/>
  </radialGradient>
  <path style="fill:none; stroke:url(#gradient4); stroke-width:4; stroke-linecap:round"
        d="M16 10C16 8 16 4 20 4C24 4 24 10 24 14C24 14 24 22 28 24"
        transform="matrix(0.883,0.4692,-0.4692,0.883,34.9085,-6.7507)"
  />
  <linearGradient id="gradient5" gradientUnits="userSpaceOnUse" x1="43.53" y1="20.47" x2="57.04" y2="24.14">
   <stop offset="0" stop-color="#fffc04"/>
   <stop offset="1" stop-color="#d70505"/>
  </linearGradient>
  <path style="fill:url(#gradient5)"
        d="M47 32L48 38L50 32L58 36L52 30L56 28H52L54 20L49 27L44 24L46 28H40L46 30L40 34L47 32z"
        transform="matrix(1,0,0,1,-2,0)"
  />
 </g>
</svg>
