<?xml version="1.0" encoding="UTF-8" standalone="yes"?>
<svg version="1.1" width="64" height="64" color-interpolation="linearRGB"
     xmlns:svg="http://www.w3.org/2000/svg" xmlns="http://www.w3.org/2000/svg">
 <g>
  <path style="fill:#010101; fill-opacity:0.4235"
        d="M28 2C13.64 2 2 13.64 2 28C2 42.35 13.64 54 28 54C42.35 54 54 42.35 54 28C54 13.64 42.35 2 28 2z"
        transform="matrix(1,0,0,0.5,10,37)"
  />
  <path style="fill:none; stroke:#010101; stroke-width:4"
        d="M28 2C13.64 2 2 13.64 2 28C2 42.35 13.64 54 28 54C42.35 54 54 42.35 54 28C54 13.64 42.35 2 28 2z"
  />
  <radialGradient id="gradient0" gradientUnits="userSpaceOnUse" cx="0" cy="0" r="64" gradientTransform="matrix(0.5396,0,0,0.5396,19.5286,19.4461)">
   <stop offset="0" stop-color="#d9ecff"/>
   <stop offset="0.7655" stop-color="#007fff"/>
   <stop offset="1" stop-color="#0061bf"/>
  </radialGradient>
  <path style="fill:url(#gradient0)"
        d="M28 2C13.64 2 2 13.64 2 28C2 42.35 13.64 54 28 54C42.35 54 54 42.35 54 28C54 13.64 42.35 2 28 2z"
  />
  <radialGradient id="gradient1" gradientUnits="userSpaceOnUse" cx="0" cy="0" r="64" gradientTransform="matrix(0.4771,0,0,0.4771,28.163,28.0804)">
   <stop offset="0.7179" stop-color="#ffffff" stop-opacity="0.7803"/>
   <stop offset="0.9926" stop-color="#ffffff" stop-opacity="0"/>
  </radialGradient>
  <path style="fill:url(#gradient1)"
        d="M38.95 52.9C49.87 59.44 62.68 39.76 40.03 14.04C17.37 -11.67 6.57 4.33 8.73 8.65C6.43 4.46 17.37 -8.88 38.95 14.98C60.54 38.87 49.81 59.38 38.95 52.9z"
  />
  <radialGradient id="gradient2" gradientUnits="userSpaceOnUse" cx="0" cy="0" r="64" gradientTransform="matrix(0.4771,0,0,0.4771,28.163,28.0804)">
   <stop offset="0.7179" stop-color="#ffffff" stop-opacity="0.7803"/>
   <stop offset="0.9926" stop-color="#ffffff" stop-opacity="0"/>
  </radialGradient>
  <path style="fill:url(#gradient2)"
        d="M9.81 47.5C3.87 58.36 18.44 52.9 34.63 33.47C50.82 14.04 54.06 -1.06 44.35 6.49C54.13 -1.06 48.52 14.44 33.41 32.52C18.3 50.6 3.94 58.57 9.81 47.5z"
  />
  <radialGradient id="gradient3" gradientUnits="userSpaceOnUse" cx="0" cy="0" r="64" gradientTransform="matrix(0.4771,0,0,0.4771,28.163,28.0804)">
   <stop offset="0.7179" stop-color="#ffffff" stop-opacity="0.7803"/>
   <stop offset="0.9926" stop-color="#ffffff" stop-opacity="0"/>
  </radialGradient>
  <path style="fill:url(#gradient3)"
        d="M53.17 18.21C62.7 24.03 61.62 44.27 29.24 48.58C-3.13 52.9 -4.21 33.47 1.18 29.15C-4.21 33.6 -1.24 51.55 29.1 47.23C59.46 42.92 62.43 23.89 53.17 18.21z"
  />
 </g>
</svg>
