<?xml version="1.0" encoding="UTF-8" standalone="yes"?>
<svg version="1.1" width="64" height="64" color-interpolation="linearRGB"
     xmlns:svg="http://www.w3.org/2000/svg" xmlns="http://www.w3.org/2000/svg">
 <g>
  <path style="fill:#010101; fill-opacity:0.4705"
        d="M36 64C36 64 44.61 64 49.92 64C52 64 54 62 55 60C56 58 62 20 62 20C64 19 65 16 61 14H36"
  />
  <path style="fill:none; stroke:#010101; stroke-width:8; stroke-linecap:round; stroke-linejoin:round"
        d="M46 4C47.33 3.32 49 3 51.04 3.93C51.04 3.93 53 5 54 6C55 7 56.03 9 56.03 9C57 11 57 13 57 14"
        transform="matrix(1,0,0,1,2,2)"
  />
  <path style="fill:none; stroke:#010101; stroke-width:4"
        d="M46 4C47.33 3.32 49 3 51.04 3.93C51.04 3.93 53 5 54 6C55 7 56.03 9 56.03 9C57 11 57 13 57 14L41 55L39 58L34 60L28 59L22 56L18 53L15 51L12 48L8 44L6 41L4 38L2 34L1 31L0 27L1 22L3 20L5 19L46 4z"
        transform="matrix(1,0,0,1,2,2)"
  />
  <radialGradient id="gradient0" gradientUnits="userSpaceOnUse" cx="0" cy="0" r="64" gradientTransform="matrix(0.1266,0.1064,-0.0694,0.0826,50.9165,11.2045)">
   <stop offset="0.7647" stop-color="#677f93"/>
   <stop offset="1" stop-color="#ffffff"/>
  </radialGradient>
  <path style="fill:none; stroke:url(#gradient0); stroke-width:4; stroke-linecap:round; stroke-linejoin:round"
        d="M46 4C47.33 3.32 49 3 51.04 3.93C51.04 3.93 53 5 54 6C55 7 56.03 9 56.03 9C57 11 57 13 57 14"
        transform="matrix(1,0,0,1,2,2)"
  />
  <linearGradient id="gradient1" gradientUnits="userSpaceOnUse" x1="125.99" y1="-17.4" x2="13.9" y2="44.41">
   <stop offset="0" stop-color="#ffda8f"/>
   <stop offset="0.2431" stop-color="#ffaa00"/>
   <stop offset="0.5098" stop-color="#906002"/>
  </linearGradient>
  <path style="fill:url(#gradient1)"
        d="M46 4C47.33 3.32 49 3 51.04 3.93C51.04 3.93 53 5 54 6C55 7 56.03 9 56.03 9C57 11 57 13 57 14L41 55L39 58L34 60L28 59L22 56L18 53L15 51L12 48L8 44L6 41L4 38L2 34L1 31L0 27L1 22L3 20L5 19L46 4z"
        transform="matrix(1,0,0,1,2,2)"
  />
  <linearGradient id="gradient2" gradientUnits="userSpaceOnUse" x1="92.23" y1="-2.62" x2="61.21" y2="30.73">
   <stop offset="0" stop-color="#ffda8f"/>
   <stop offset="0.1607" stop-color="#ffaa00"/>
   <stop offset="0.3294" stop-color="#906002"/>
  </linearGradient>
  <path style="fill:url(#gradient2)"
        d="M41 55L39 58L34 60L28 59L22 56L18 53L15 51L12 48L8 44L6 41L4 38L2 34L1 31L0 27L1 22L3 20L5 19H12L17 21L21 23L24 25L31 31L35 36L37 39L40 45L41 48V55z"
        transform="matrix(1,0,0,1,2,2)"
  />
  <radialGradient id="gradient3" gradientUnits="userSpaceOnUse" cx="0" cy="0" r="64" gradientTransform="matrix(0.3734,0.3728,-0.1935,0.1938,23.9429,44.5695)">
   <stop offset="0.5372" stop-color="#ffffff"/>
   <stop offset="0.6588" stop-color="#bac6d1"/>
   <stop offset="0.7647" stop-color="#677f93"/>
   <stop offset="0.8862" stop-color="#bac6d1"/>
   <stop offset="1" stop-color="#ffffff"/>
  </radialGradient>
  <path style="fill:none; stroke:url(#gradient3); stroke-width:4"
        d="M41 55L39 58L34 60L28 59L22 56L18 53L15 51L12 48L8 44L6 41L4 38L2 34L1 31L0 27L1 22L3 20L5 19H12L17 21L21 23L24 25L31 31L35 36L37 39L40 45L41 48V55z"
        transform="matrix(0.9334,0,0,0.9112,3.8632,5.5093)"
  />
 </g>
</svg>
