<?xml version="1.0" encoding="UTF-8" standalone="yes"?>
<svg version="1.1" width="64" height="64" color-interpolation="linearRGB"
     xmlns:svg="http://www.w3.org/2000/svg" xmlns="http://www.w3.org/2000/svg">
 <g>
  <path style="fill:#010101; fill-opacity:0.396"
        d="M27.99 16C16.95 16 7.99 22.71 7.99 31C7.99 39.26 16.95 46 27.99 46C39.02 46 48 39.26 48 31C48 22.71 39.02 16 27.99 16z
           M27.99 16C14.74 16 3.98 24.04 3.98 34C3.98 43.93 14.74 52 27.99 52C41.24 52 52 43.93 52 34C52 24.04 41.24 16 27.99 16z"
        transform="matrix(1.125,0,0,0.9444,-0.4999,4.8888)"
  />
  <path style="fill:none; stroke:#010101; stroke-width:4"
        d="M27.99 16C16.95 16 7.99 22.71 7.99 31C7.99 39.26 16.95 46 27.99 46C39.02 46 48 39.26 48 31C48 22.71 39.02 16 27.99 16z
           M27.99 16C14.74 16 3.98 24.04 3.98 34C3.98 43.93 14.74 52 27.99 52C41.24 52 52 43.93 52 34C52 24.04 41.24 16 27.99 16z"
  />
  <radialGradient id="gradient0" gradientUnits="userSpaceOnUse" cx="0" cy="0" r="64" gradientTransform="matrix(0.5625,0,0,0.375,16,28)">
   <stop offset="0.2039" stop-color="#ffffff"/>
   <stop offset="0.5098" stop-color="#d1d6dc"/>
   <stop offset="1" stop-color="#8c9298"/>
  </radialGradient>
  <path style="fill:url(#gradient0)"
        d="M27.99 16C16.95 16 7.99 22.71 7.99 31C7.99 39.26 16.95 46 27.99 46C39.02 46 48 39.26 48 31C48 22.71 39.02 16 27.99 16z
           M27.99 16C14.74 16 3.98 24.04 3.98 34C3.98 43.93 14.74 52 27.99 52C41.24 52 52 43.93 52 34C52 24.04 41.24 16 27.99 16z"
  />
  <linearGradient id="gradient1" gradientUnits="userSpaceOnUse" x1="8" y1="-64" x2="48" y2="-64">
   <stop offset="0" stop-color="#ffffff"/>
   <stop offset="1" stop-color="#737a80"/>
  </linearGradient>
  <path style="fill:url(#gradient1)"
        d="M27.99 16C16.95 16 7.99 22.71 7.99 31C7.99 39.26 16.95 46 27.99 46C39.02 46 48 39.26 48 31C48 22.71 39.02 16 27.99 16z"
  />
  <linearGradient id="gradient2" gradientUnits="userSpaceOnUse" x1="90.25" y1="-50.95" x2="114.99" y2="-23.85">
   <stop offset="0" stop-color="#f3f3f3"/>
   <stop offset="1" stop-color="#c7ccd1"/>
  </linearGradient>
  <path style="fill:url(#gradient2)"
        d="M27.99 16C16.95 16 7.99 22.71 7.99 31C7.99 39.26 16.95 46 27.99 46C39.02 46 48 39.26 48 31C48 22.71 39.02 16 27.99 16z"
        transform="matrix(0.95,0,0,0.9333,1.3994,1.0666)"
  />
  <linearGradient id="gradient3" gradientUnits="userSpaceOnUse" x1="100.62" y1="-37.9" x2="118.46" y2="-6.62">
   <stop offset="0" stop-color="#ffabab"/>
   <stop offset="1" stop-color="#d90000"/>
  </linearGradient>
  <path style="fill:none; stroke:url(#gradient3); stroke-width:4; stroke-linecap:round"
        d="M25 22C17 23 12 28 14 33C16 38 23 41 31 39C39 37 44 32 42 27
           M28 30L36.24 22"
  />
 </g>
</svg>
