<?xml version="1.0" encoding="UTF-8" standalone="yes"?>
<svg version="1.1" width="64" height="64" color-interpolation="linearRGB"
     xmlns:svg="http://www.w3.org/2000/svg" xmlns="http://www.w3.org/2000/svg">
 <g>
  <path style="fill:#010000; fill-opacity:0.4156"
        d="M34 60C44 60 64 58 64 50C64 45 60 44 57 44L60 40C60 38 60 36 57 36C50.56 36 36 40 36 40L22 56C22 56 16 64 18 64C22 64 34 60 34 60z"
  />
  <path style="fill:none; stroke:#010000; stroke-width:4; stroke-linecap:round; stroke-linejoin:round"
        d="M49 25C49 25 54.04 20.74 56 19C58.03 17.18 60 19 60 19L56 17C56 17 54 15 52 17C50 19 45 24 45 24L49 25z
           M60 19C60 25 52 35 52 35L48 33C48 33 56 23 56 17L60 19z"
  />
  <linearGradient id="gradient0" gradientUnits="userSpaceOnUse" x1="66.55" y1="20.33" x2="62.35" y2="28.08">
   <stop offset="0.0075" stop-color="#6d0202"/>
   <stop offset="1" stop-color="#ba0505"/>
  </linearGradient>
  <path style="fill:url(#gradient0)"
        d="M60 19C60 25 52 35 52 35L48 33C48 33 56 23 56 17L60 19z"
  />
  <linearGradient id="gradient1" gradientUnits="userSpaceOnUse" x1="66.55" y1="20.33" x2="62.35" y2="28.08">
   <stop offset="0.0113" stop-color="#ffb3b3"/>
   <stop offset="1" stop-color="#dc0505"/>
  </linearGradient>
  <path style="fill:url(#gradient1)"
        d="M49 25C49 25 54.04 20.74 56 19C58.03 17.18 60 19 60 19L56 17C56 17 54 15 52 17C50 19 45 24 45 24L49 25z"
  />
  <linearGradient id="gradient2" gradientUnits="userSpaceOnUse" x1="71.67" y1="21.79" x2="65.84" y2="32.38">
   <stop offset="0" stop-color="#ffb3b3"/>
   <stop offset="0.4545" stop-color="#ff0606"/>
   <stop offset="1" stop-color="#a70404"/>
  </linearGradient>
  <path style="fill:none; stroke:url(#gradient2); stroke-width:1"
        d="M49 25C49 25 54.04 20.74 56 19C58.03 17.18 60 19 60 19C60 25 52 35 52 35"
  />
  <path style="fill:none; stroke:#010000; stroke-width:4"
        d="M32 58C36 58 42 58 42 56C46 56 56 48 56 40C56 24 42 16 32 16C22 16 8 24 8 40C8 48 20 56 24 56C24 58 28 58 32 58z
           M18 52C22 48 22 44 18 40H8C6 40 4 42 4 44C8 50 12 52 18 52z"
  />
  <radialGradient id="gradient3" gradientUnits="userSpaceOnUse" cx="0" cy="0" r="64" gradientTransform="matrix(0.4375,0,0,0.3828,26,29.75)">
   <stop offset="0" stop-color="#fbc5c5"/>
   <stop offset="0.4924" stop-color="#e40606"/>
   <stop offset="1" stop-color="#ac0404"/>
  </radialGradient>
  <path style="fill:url(#gradient3)"
        d="M32 58C36 58 42 58 42 56C46 56 56 48 56 40C56 24 42 16 32 16C22 16 8 24 8 40C8 48 20 56 24 56C24 58 28 58 32 58z"
  />
  <radialGradient id="gradient4" gradientUnits="userSpaceOnUse" cx="0" cy="0" r="64" gradientTransform="matrix(-0.3914,0.0922,0.0773,0.3283,40.3563,13.404)">
   <stop offset="0" stop-color="#ac0404"/>
   <stop offset="1" stop-color="#ffc0c0"/>
  </radialGradient>
  <path style="fill:none; stroke:url(#gradient4); stroke-width:4"
        d="M32 18C26 18 22 20 22 22C22 24 26 26 32 26C38 26 42 24 42 22C42 20 38 18 32 18z"
  />
  <radialGradient id="gradient5" gradientUnits="userSpaceOnUse" cx="0" cy="0" r="64" gradientTransform="matrix(0.375,0,0,0.375,24,28)">
   <stop offset="0" stop-color="#3c0101"/>
   <stop offset="1" stop-color="#bb0505"/>
  </radialGradient>
  <path style="fill:url(#gradient5)"
        d="M32 18C26 18 22 20 22 22C22 24 26 26 32 26C38 26 42 24 42 22C42 20 38 18 32 18z"
  />
  <radialGradient id="gradient6" gradientUnits="userSpaceOnUse" cx="0" cy="0" r="64" gradientTransform="matrix(0.2855,0.3314,-0.1809,0.1559,26.1922,38.2984)">
   <stop offset="0" stop-color="#ff0606"/>
   <stop offset="1" stop-color="#7b0303"/>
  </radialGradient>
  <path style="fill:url(#gradient6)"
        d="M8 40H18C23 40 32 56 42 56C42 58 36 58 32 58C28 58 24 58 24 56C20 56 8 48 8 40z"
  />
  <radialGradient id="gradient7" gradientUnits="userSpaceOnUse" cx="0" cy="0" r="64" gradientTransform="matrix(0.2906,0.0656,-0.028,0.124,14.7948,41.3303)">
   <stop offset="0" stop-color="#ffc0c0"/>
   <stop offset="0.4924" stop-color="#d80505"/>
   <stop offset="1" stop-color="#ae0e0e"/>
  </radialGradient>
  <path style="fill:url(#gradient7)"
        d="M18 52C22 48 22 44 18 40H8C6 40 4 42 4 44C8 50 12 52 18 52z"
  />
  <linearGradient id="gradient8" gradientUnits="userSpaceOnUse" x1="12.57" y1="44.9" x2="8.78" y2="47.94">
   <stop offset="0" stop-color="#ff9797"/>
   <stop offset="0.4659" stop-color="#ff0606"/>
   <stop offset="1" stop-color="#c60505"/>
  </linearGradient>
  <path style="fill:none; stroke:url(#gradient8); stroke-width:2"
        d="M5 44C5 42 6 41 8 41C8 43 7 44 5 44z"
  />
  <path style="fill:#010000"
        d="M5 44C5 42 6 41 8 41C8 43 7 44 5 44z"
  />
 </g>
</svg>
