<?xml version="1.0" encoding="UTF-8" standalone="yes"?>
<svg version="1.1" width="64" height="64" color-interpolation="linearRGB"
     xmlns:svg="http://www.w3.org/2000/svg" xmlns="http://www.w3.org/2000/svg">
 <g>
  <path style="fill:#010101; fill-opacity:0.4549"
        d="M18 62H24L32 54L46 62H52L64 48L56 44L30 49L18 62z"
  />
  <path style="fill:none; stroke:#000000; stroke-width:4"
        d="M2 34V52L18 60L30 49V32L14 26L2 34z"
  />
  <linearGradient id="gradient0" gradientUnits="userSpaceOnUse" x1="-1.04" y1="10.54" x2="19.87" y2="8.16">
   <stop offset="0" stop-color="#686868"/>
   <stop offset="1" stop-color="#393939"/>
  </linearGradient>
  <path style="fill:url(#gradient0)"
        d="M2 34V52L18 60V41L2 34z"
  />
  <path style="fill:#505050"
        d="M18 41V60L30 49V32L18 41z"
  />
  <path style="fill:#222222"
        d="M24 34L28 45V36L24 34z"
        transform="matrix(1,0,0,1,0,1)"
  />
  <linearGradient id="gradient1" gradientUnits="userSpaceOnUse" x1="12.94" y1="-1.93" x2="52.06" y2="14.45">
   <stop offset="0" stop-color="#aeaeae"/>
   <stop offset="1" stop-color="#7c7c7c"/>
  </linearGradient>
  <path style="fill:url(#gradient1)"
        d="M2 34L18 41L30 32L14 26L2 34z"
  />
  <path style="fill:none; stroke:#000000; stroke-width:4"
        d="M30 34V52L46 60L58 48V31L42 25L30 34z"
  />
  <path style="fill:#7d7d7d"
        d="M33 49L33.99 53.99L46 60V41L38.07 37.84L33 49z"
  />
  <path style="fill:#474747"
        d="M30 34V52L33.99 53.99L33 49L38.07 37.84L30 34z"
  />
  <linearGradient id="gradient2" gradientUnits="userSpaceOnUse" x1="71.36" y1="-3.35" x2="104.04" y2="22.42">
   <stop offset="0" stop-color="#474747"/>
   <stop offset="1" stop-color="#a5a0a0"/>
  </linearGradient>
  <path style="fill:url(#gradient2)"
        d="M30 18V37L42 28V10L30 18z
           M46 41V60L58 48V31L46 41z"
  />
  <path style="fill:#d3d3d3"
        d="M37.98 37.8L46 41L58 31L50 28L37.98 37.8z"
  />
  <linearGradient id="gradient3" gradientUnits="userSpaceOnUse" x1="143.84" y1="41.93" x2="91.24" y2="108.1">
   <stop offset="0" stop-color="#474747"/>
   <stop offset="1" stop-color="#a5a0a0"/>
  </linearGradient>
  <path style="fill:url(#gradient3)"
        d="M30 34L37.98 37.8L50 28L42 25L30 34z"
  />
  <path style="fill:none; stroke:#000000; stroke-width:4"
        d="M14 12V30L30 37L42 28V10L26 5L14 12z"
  />
  <linearGradient id="gradient4" gradientUnits="userSpaceOnUse" x1="-19.87" y1="-1.53" x2="5.48" y2="-26.29">
   <stop offset="0" stop-color="#eeeeee"/>
   <stop offset="1" stop-color="#9a9a9a"/>
  </linearGradient>
  <path style="fill:url(#gradient4)"
        d="M14 12V30L30 37V18L14 12z"
  />
  <linearGradient id="gradient5" gradientUnits="userSpaceOnUse" x1="30.5" y1="-22.81" x2="56.01" y2="-9.13">
   <stop offset="0" stop-color="#ffffff"/>
   <stop offset="1" stop-color="#dadada"/>
  </linearGradient>
  <path style="fill:url(#gradient5)"
        d="M14 12L30 18L42 10L26 5L14 12z"
  />
  <linearGradient id="gradient6" gradientUnits="userSpaceOnUse" x1="53.01" y1="-9.55" x2="69.94" y2="3.43">
   <stop offset="0" stop-color="#7c7c7c"/>
   <stop offset="1" stop-color="#e2e2e2"/>
  </linearGradient>
  <path style="fill:url(#gradient6)"
        d="M30 18V37L42 28V10L30 18z"
  />
 </g>
</svg>
