<?xml version="1.0" encoding="UTF-8" standalone="no"?>
<svg
   xmlns:dc="http://purl.org/dc/elements/1.1/"
   xmlns:cc="http://creativecommons.org/ns#"
   xmlns:rdf="http://www.w3.org/1999/02/22-rdf-syntax-ns#"
   xmlns:svg="http://www.w3.org/2000/svg"
   xmlns="http://www.w3.org/2000/svg"
   xmlns:sodipodi="http://sodipodi.sourceforge.net/DTD/sodipodi-0.dtd"
   xmlns:inkscape="http://www.inkscape.org/namespaces/inkscape"
   version="1.1"
   width="64"
   height="64"
   color-interpolation="linearRGB"
   id="svg2"
   sodipodi:version="0.32"
   inkscape:version="0.46"
   sodipodi:docname="over-dev.svg"
   inkscape:output_extension="org.inkscape.output.svg.inkscape">
  <metadata
     id="metadata29">
    <rdf:RDF>
      <cc:Work
         rdf:about="">
        <dc:format>image/svg+xml</dc:format>
        <dc:type
           rdf:resource="http://purl.org/dc/dcmitype/StillImage" />
      </cc:Work>
    </rdf:RDF>
  </metadata>
  <defs
     id="defs27">
    <inkscape:perspective
       sodipodi:type="inkscape:persp3d"
       inkscape:vp_x="0 : 32 : 1"
       inkscape:vp_y="0 : 1000 : 0"
       inkscape:vp_z="64 : 32 : 1"
       inkscape:persp3d-origin="32 : 21.333333 : 1"
       id="perspective31" />
  </defs>
  <sodipodi:namedview
     inkscape:window-height="667"
     inkscape:window-width="640"
     inkscape:pageshadow="2"
     inkscape:pageopacity="0.0"
     guidetolerance="10.0"
     gridtolerance="10.0"
     objecttolerance="10.0"
     borderopacity="1.0"
     bordercolor="#666666"
     pagecolor="#ffffff"
     id="base"
     showgrid="false"
     inkscape:zoom="7.28125"
     inkscape:cx="32"
     inkscape:cy="32"
     inkscape:window-x="0"
     inkscape:window-y="26"
     inkscape:current-layer="svg2" />
  <g
     id="g4"
     transform="matrix(2.1510321,0,0,2.1510321,-4.5518088,-72.992438)">
    <path
       style="fill:#000000"
       d="M 17,38 C 6,38 4,58 17,58 C 30,58 28,38 17,38 z"
       id="path6" />
    <path
       style="fill:none;stroke:#000000;stroke-width:4;stroke-linecap:round"
       d="M 5,50 L 29,50 M 26,42 L 9,57 M 8,42 L 25,57"
       id="path8" />
    <linearGradient
       id="gradient0"
       gradientUnits="userSpaceOnUse"
       x1="91.550003"
       y1="-19.33"
       x2="104.25"
       y2="-1.33">
      <stop
         offset="0"
         stop-color="#ffdcdc"
         id="stop11" />
      <stop
         offset="1"
         stop-color="#e80606"
         id="stop13" />
    </linearGradient>
    <path
       style="fill:url(#gradient0)"
       d="M 16,47 L 10,46 C 10,46 10,52 12,54 C 14,56 16,56 16,56 L 16,47 z M 18,47 L 18,56 C 18,56 20,56 22,54 C 24,52 24,46 24,46 L 18,47 z"
       id="path15" />
    <linearGradient
       id="gradient1"
       gradientUnits="userSpaceOnUse"
       x1="41.009998"
       y1="23.1"
       x2="45.150002"
       y2="31.83">
      <stop
         offset="0"
         stop-color="#c6c6c6"
         id="stop18" />
      <stop
         offset="1"
         stop-color="#4a4a4a"
         id="stop20" />
    </linearGradient>
    <path
       style="fill:url(#gradient1)"
       d="M 10.75,44.25 C 10.75,44.25 15,45 17,45 C 19,45 23.25,44.25 23.25,44.25 C 23.25,44.25 22,40 17,40 C 12,40 10.75,44.25 10.75,44.25 z"
       id="path22" />
    <path
       style="fill:#000000"
       d="M 13,47 C 11,47 11,51 13,51 C 16,51 16,47 13,47 z M 21,49 C 18,49 18,53 21,53 C 23,53 23,49 21,49 z"
       id="path24" />
  </g>
</svg>
