<?xml version="1.0" encoding="UTF-8" standalone="no"?>
<svg
   xmlns:dc="http://purl.org/dc/elements/1.1/"
   xmlns:cc="http://creativecommons.org/ns#"
   xmlns:rdf="http://www.w3.org/1999/02/22-rdf-syntax-ns#"
   xmlns:svg="http://www.w3.org/2000/svg"
   xmlns="http://www.w3.org/2000/svg"
   xmlns:sodipodi="http://sodipodi.sourceforge.net/DTD/sodipodi-0.dtd"
   xmlns:inkscape="http://www.inkscape.org/namespaces/inkscape"
   version="1.1"
   width="64"
   height="64"
   color-interpolation="linearRGB"
   id="svg2"
   sodipodi:version="0.32"
   inkscape:version="0.46"
   sodipodi:docname="eng.svg"
   inkscape:output_extension="org.inkscape.output.svg.inkscape">
  <metadata
     id="metadata18">
    <rdf:RDF>
      <cc:Work
         rdf:about="">
        <dc:format>image/svg+xml</dc:format>
        <dc:type
           rdf:resource="http://purl.org/dc/dcmitype/StillImage" />
      </cc:Work>
    </rdf:RDF>
  </metadata>
  <defs
     id="defs16">
    <inkscape:perspective
       sodipodi:type="inkscape:persp3d"
       inkscape:vp_x="0 : 32 : 1"
       inkscape:vp_y="0 : 1000 : 0"
       inkscape:vp_z="64 : 32 : 1"
       inkscape:persp3d-origin="32 : 21.333333 : 1"
       id="perspective20" />
  </defs>
  <sodipodi:namedview
     inkscape:window-height="667"
     inkscape:window-width="640"
     inkscape:pageshadow="2"
     inkscape:pageopacity="0.0"
     guidetolerance="10.0"
     gridtolerance="10.0"
     objecttolerance="10.0"
     borderopacity="1.0"
     bordercolor="#666666"
     pagecolor="#ffffff"
     id="base"
     showgrid="false"
     inkscape:zoom="7.28125"
     inkscape:cx="32"
     inkscape:cy="63.096649"
     inkscape:window-x="0"
     inkscape:window-y="26"
     inkscape:current-layer="svg2" />
  <g
     id="g4"
     transform="matrix(1.9785408,0,0,1.9785408,0.8583691,-62.763948)">
    <path
       style="fill:none;stroke:#010000;stroke-width:4;stroke-linejoin:round"
       d="M 12,34 L 12,40 L 16,42 L 20,40 L 20,34 L 24,38 L 24,44 L 20,47 L 20,60 C 20,60 20,62 16,62 C 12,62 12,60 12,60 L 12,47 L 8,44 L 8,38 L 12,34 z"
       id="path6" />
    <linearGradient
       id="gradient0"
       gradientUnits="userSpaceOnUse"
       x1="64.849998"
       y1="-37.990002"
       x2="80.639999"
       y2="-27.309999">
      <stop
         offset="0"
         stop-color="#ebebeb"
         id="stop9" />
      <stop
         offset="1"
         stop-color="#adadad"
         id="stop11" />
    </linearGradient>
    <path
       style="fill:url(#gradient0)"
       d="M 12,34 L 12,40 L 16,42 L 20,40 L 20,34 L 24,38 L 24,44 L 20,47 L 20,60 C 20,60 20,62 16,62 C 12,62 12,60 12,60 L 12,47 L 8,44 L 8,38 L 12,34 z"
       id="path13" />
  </g>
</svg>
