<?xml version="1.0" encoding="UTF-8" standalone="no"?>
<!DOCTYPE svg PUBLIC "-//W3C//DTD SVG 20010904//EN"
"http://www.w3.org/TR/2001/REC-SVG-20010904/DTD/svg10.dtd">
<!-- Created with Sodipodi ("http://www.sodipodi.com/") -->
<svg
   width="48pt"
   height="48pt"
   viewBox="0.068 0.263 127 122"
   overflow="visible"
   enable-background="new 0.068 0.263 127 122"
   xml:space="preserve"
   xmlns="http://www.w3.org/2000/svg"
   xmlns:xml="http://www.w3.org/XML/1998/namespace"
   xmlns:a="http://ns.adobe.com/AdobeSVGViewerExtensions/3.0/"
   xmlns:sodipodi="http://sodipodi.sourceforge.net/DTD/sodipodi-0.dtd"
   xmlns:xlink="http://www.w3.org/1999/xlink"
   id="svg153"
   sodipodi:version="0.32pre"
   sodipodi:docname="/home/cschalle/gnome-themes-extras/Wasp/icons/scalable/apps/background-capplet.svg"
   sodipodi:docbase="/home/cschalle/gnome-themes-extras/Wasp/icons/scalable/apps">
  <defs
     id="defs249" />
  <sodipodi:namedview
     id="base" />
  <g
     id="Layer_1_2_">
    <path
       opacity="0.2"
       d="M34.566,111.273l37.083,10.907c0,0,3.888,0.712,6.544-1.309c1.919-1.461,2.462-5.742,3.926-6.108l6.98-2.18    l3.054,8.725c0,0,27.274,4.021,31.411-2.182c3.505-5.254,6.98-17.016-6.544-18.76s-30.975-7.416-48.861,5.672l-23.995-3.926    L34.566,111.273z"
       id="path155" />
    <g
       id="g156">
      <path
         d="M75.842,12.562v92.646c0,4.033,2.797,7.666,7.57,9.996c0,1.385,0,5.307,0,5.307l2.386,0.5     c1.488,0.311,3.966,0.248,7.304,0.127l2.263-0.064c10.515,0,19.523-8.723,19.523-15.865V12.562C114.888,5.518,106.312,0,95.364,0     S75.842,5.518,75.842,12.562z"
         id="path157" />
    </g>
    <path
       d="M10.625,8.259l-0.037,0.002C10.076,8.297,7.434,8.52,5.689,9.309c-2.639,1.191-3.788,3.159-3.91,3.379l-0.82,1.475    l0.836,1.468c0.023,0.041,2.313,4.116,2.313,8.758c0,3.229-0.203,6.554-0.417,9.206c-0.799,0.36-1.348,0.608-1.609,0.727    C0.009,34.884,0,37.364,0,38.374v28.161c0,0,20.083,8.701,23.155,10.033c0,3.428,0,27.34,0,27.34    c0,4.164,4.487,7.305,10.438,7.305s10.439-3.141,10.439-7.305c0,0,0-12.443,0-18.295c4.673,2.025,13.564,5.877,13.564,5.877    l10.143-4.58V55.635c0,0-2.715-1.176-3.614-1.566c-0.291-1.85-0.735-5.288-0.735-9.175c0-4.774,3.719-9.313,3.757-9.359    l2.223-2.68l-2.974-1.809c-0.222-0.134-5.468-3.3-8.485-4.455c-0.001,0-7.683-2.793-7.683-2.793l-0.537-0.192    c-0.197-0.107-0.772-0.695-1.153-1.085c-0.92-0.941-2.064-2.114-3.606-2.672c-1.604-0.581-3.086-0.132-4.067,0.164    c0,0-0.302,0.08-0.521,0.137c-0.33-0.265-0.881-0.846-1.242-1.231c-0.994-1.06-2.121-2.261-3.606-2.847    c-1.756-0.691-3.408-0.455-4.614-0.283c-0.43,0.062-1.031,0.142-1.308,0.104c-0.226-0.235-0.594-0.806-0.855-1.22    c-0.69-1.092-1.472-2.331-2.724-3.112c-0.875-0.545-2.537-1.125-4.472,0.376c-0.074-0.071-0.161-0.151-0.224-0.211    c-0.762-0.736-1.482-1.431-2.392-1.812C14.557,8.088,11.016,8.236,10.625,8.259z"
       id="path158" />
    <linearGradient
       id="XMLID_1_"
       gradientUnits="userSpaceOnUse"
       x1="26.1553"
       y1="88.2749"
       x2="41.0332"
       y2="88.2749">
      <stop
         offset="0"
         style="stop-color:#D9A96D"
         id="stop160" />
      <stop
         offset="0.4492"
         style="stop-color:#C48B56"
         id="stop161" />
      <stop
         offset="1"
         style="stop-color:#A76035"
         id="stop162" />
      
      
      
    </linearGradient>
    <path
       fill="url(#XMLID_1_)"
       d="M33.594,68.338c-4.108,0-7.438,1.929-7.438,4.306v31.264c0,2.377,3.331,4.305,7.438,4.305    c4.109,0,7.439-1.928,7.439-4.305V72.644C41.033,70.267,37.703,68.338,33.594,68.338z"
       id="path166" />
    <path
       opacity="0.2"
       d="M41.033,91.802V72.644c0-2.377-3.33-4.306-7.439-4.306c-4.108,0-7.438,1.929-7.438,4.306l0.066,7.963    C32.864,76.621,40.849,86.351,41.033,91.802z"
       id="path167" />
    <linearGradient
       id="XMLID_2_"
       gradientUnits="userSpaceOnUse"
       x1="46.9868"
       y1="72.1284"
       x2="-0.6015"
       y2="45.2715">
      <stop
         offset="0"
         style="stop-color:#EBC097"
         id="stop169" />
      <stop
         offset="0.7419"
         style="stop-color:#D1AF79"
         id="stop170" />
      <stop
         offset="1"
         style="stop-color:#C7A96D"
         id="stop171" />
      
      
      
    </linearGradient>
    <path
       fill="url(#XMLID_2_)"
       d="M3,37.198l54.573,23.644v27.366L3,64.565V37.198z"
       id="path175" />
    <linearGradient
       id="XMLID_3_"
       gradientUnits="userSpaceOnUse"
       x1="45.583"
       y1="47.9336"
       x2="-33.2073"
       y2="44.3522">
      <stop
         offset="0"
         style="stop-color:#D9A96D"
         id="stop177" />
      <stop
         offset="0.4436"
         style="stop-color:#D2994F"
         id="stop178" />
      <stop
         offset="1"
         style="stop-color:#C78323"
         id="stop179" />
      
      
      
    </linearGradient>
    <path
       fill="url(#XMLID_3_)"
       d="M10.167,33.961L64.74,57.605l-7.168,3.237L3,37.199L10.167,33.961z"
       id="path183" />
    <linearGradient
       id="XMLID_4_"
       gradientUnits="userSpaceOnUse"
       x1="62.7002"
       y1="72.978"
       x2="52.3099"
       y2="72.5057">
      <stop
         offset="0"
         style="stop-color:#D9A96D"
         id="stop185" />
      <stop
         offset="0.4436"
         style="stop-color:#D2994F"
         id="stop186" />
      <stop
         offset="1"
         style="stop-color:#C78323"
         id="stop187" />
      
      
      
    </linearGradient>
    <path
       fill="url(#XMLID_4_)"
       d="M57.572,60.842l7.168-3.237v27.367l-7.168,3.236V60.842z"
       id="path191" />
    <path
       fill="#FAFF7E"
       d="M7.108,24.389c0-5.558-2.708-10.244-2.708-10.244s2.514-0.455,8.676,2.057    c14.835,6.047,41.958,18.581,41.958,18.581v24.223L6.304,37.893C6.304,37.893,7.108,30.872,7.108,24.389z"
       id="path192" />
    <path
       fill="#FAFFA9"
       d="M6.925,12.042c1.345-0.608,3.876-0.789,3.876-0.789s3.111-0.183,6.943,1.427    c0.947,0.398,2.646,2.765,3.806,2.854s1.782-2.097,2.854-1.427c1.432,0.894,2.32,3.859,3.86,4.526    c1.937,0.839,4.087-0.573,6.13,0.231c1.73,0.681,3.346,3.585,5.075,4.229c1.391,0.519,3.09-0.912,4.44-0.423    c1.761,0.638,3.152,3.185,4.772,3.762c3.161,1.127,5.979,2.128,8.156,2.961c2.802,1.072,8.005,4.22,8.005,4.22l-9.809,1.168    c0,0-13.209-4.936-25.908-10.659c-5.466-2.464-10.82-5.043-14.974-7.054c-4.797-2.322-9.752-2.924-9.752-2.924    S5.134,12.851,6.925,12.042z"
       id="path193" />
    <path
       fill="#F7CF5D"
       d="M54.129,46.09c0-5.644,0.906-11.308,0.906-11.308s0.865-0.563,2.005-0.707    c0.38-0.047,0.724-1.467,1.191-1.287c0.736,0.285,1.599,0.813,2.643,1.143c0.385,0.121,0.53-0.443,1.006-0.623    c0.933-0.353,2.964,0.305,2.964,0.305s-4.453,5.306-4.453,11.281c0,6.135,1.045,11.221,1.045,11.221l-6.4,2.89    C55.035,59.005,54.129,52.508,54.129,46.09z"
       id="path194" />
    <linearGradient
       id="XMLID_5_"
       gradientUnits="userSpaceOnUse"
       x1="56.2559"
       y1="40.9927"
       x2="52.8281"
       y2="37.5649">
      <stop
         offset="0"
         style="stop-color:#F5FFE1"
         id="stop196" />
      <stop
         offset="0.1611"
         style="stop-color:#E0E3C2"
         id="stop197" />
      <stop
         offset="0.5139"
         style="stop-color:#AC9C74"
         id="stop198" />
      <stop
         offset="1"
         style="stop-color:#5D3200"
         id="stop199" />
      
      
      
    </linearGradient>
    <path
       opacity="0.4"
       fill="url(#XMLID_5_)"
       a:adobe-blending-mode="multiply"
       d="M55.035,34.782c0,0,0.865-0.563,2.005-0.707    c0.38-0.047,0.724-1.467,1.191-1.287c0.736,0.285,1.599,0.813,2.643,1.143c0.385,0.121,0.53-0.443,1.006-0.623    c0,0-0.048,0.383-0.239,0.767s-0.001,0.623-0.863,0.527s-1.581-0.814-2.108-0.383s-1.415,3.164-1.942,3.595    s-0.674,1.435-0.722,2.345s-1.443,12.303-1.443,12.447s-0.205-10.912-0.253-11.535s0.623-6.278,0.623-6.278"
       id="path203" />
    <linearGradient
       id="XMLID_6_"
       gradientUnits="userSpaceOnUse"
       x1="78.8418"
       y1="58.8853"
       x2="111.8877"
       y2="58.8853">
      <stop
         offset="0"
         style="stop-color:#EBE1C0"
         id="stop205" />
      <stop
         offset="0.3402"
         style="stop-color:#D6C3AF"
         id="stop206" />
      <stop
         offset="1"
         style="stop-color:#A77E88"
         id="stop207" />
      
      
      
    </linearGradient>
    <path
       fill="url(#XMLID_6_)"
       d="M95.364,3c-9.125,0-16.522,4.282-16.522,9.562v92.646c0,5.281,7.397,9.562,16.522,9.562    c9.126,0,16.523-4.281,16.523-9.562V12.562C111.888,7.282,104.49,3,95.364,3z"
       id="path211" />
    <path
       fill="#F5EBAC"
       d="M78.842,12.562C78.842,7.282,86.239,3,95.364,3c9.126,0,16.523,4.282,16.523,9.562    c0,5.282-7.397,9.563-16.523,9.563C86.239,22.126,78.842,17.845,78.842,12.562z"
       id="path212" />
    <path
       opacity="0.5"
       d="M90.415,12.562c0-1.582,2.216-2.865,4.95-2.865s4.95,1.283,4.95,2.865c0,1.583-2.216,2.865-4.95,2.865    S90.415,14.146,90.415,12.562z"
       id="path213" />
    <g
       a:adobe-knockout="true"
       id="g214">
      <path
         fill="#FFC758"
         a:adobe-knockout="false"
         d="M4.883,15.016c0.009,0.009,3.84,5.416,3.84,6.79L8.239,38.597l2.01,0.876     l0.139-21.175c0-2.212-4.155-3.222-4.214-3.282H4.883z"
         id="path215" />
      <path
         fill="#FFC758"
         a:adobe-knockout="false"
         d="M15.989,22.451c0,0.078,0.085,8.931,0.085,11.104     c0,4.96-0.562,8.073-0.57,8.109l1.793,0.943c0.032-0.156,0.777-3.879,0.777-9.053c0-2.268-0.248-4.902-0.466-7.228l-0.291-3.963     c0-1.471-1.944-2.501-2.779-2.876L15.989,22.451z"
         id="path216" />
      <path
         fill="#FFC758"
         a:adobe-knockout="false"
         d="M22.357,21.58l0.09,23.153l1.938,0.62l-0.969-23.548L22.357,21.58z"
         id="path217" />
      <path
         fill="#FFC758"
         a:adobe-knockout="false"
         d="M29.229,26.649l0.646,21.313l0.969,0.484V24.873L29.229,26.649z"
         id="path218" />
      <path
         fill="#FFC758"
         a:adobe-knockout="false"
         d="M36.521,27.02v24.224l1.911,0.593l-0.808-24.704L36.521,27.02z"
         id="path219" />
      <path
         fill="#FFC758"
         a:adobe-knockout="false"
         d="M43.17,38.013c-0.374,6.363,0.39,15.857,0.423,16.258l1.944,0.473     c-0.008-0.097-0.736-10.392-0.37-16.614c0.188-3.185,0.682-5.467,0.693-5.507l-1.278-2.287     C44.532,30.509,43.371,34.604,43.17,38.013z"
         id="path220" />
      <path
         fill="#C79258"
         a:adobe-knockout="false"
         d="M57.395,40.713c-0.374,6.363,0.305,16.319,0.337,16.72h0.9     c-0.008-0.097-0.365-10.163,0-16.385c0.188-3.185,1.428-3.921,1.439-3.961v-2.161C60.021,35.1,57.596,37.305,57.395,40.713z"
         id="path221" />
      <path
         fill="#FFC758"
         a:adobe-knockout="false"
         d="M51.021,38.651c0,0.001-0.318,18.03-0.318,18.03l2.099,0.969l0.22-18.981     c0.01-1.099,0.498-1.66,0.519-1.684l0.23-2.101C53.663,34.995,51.038,36.75,51.021,38.651z"
         id="path222" />
    </g>
    <path
       opacity="0.2"
       d="M83.996,113.234l2.126-82.636l3.188,83.433c0,0-1.595,2.391-5.049,0"
       id="path223" />
    <linearGradient
       id="XMLID_7_"
       gradientUnits="userSpaceOnUse"
       x1="86.4121"
       y1="65.3179"
       x2="111.8877"
       y2="65.3179">
      <stop
         offset="0"
         style="stop-color:#F5FFE1"
         id="stop225" />
      <stop
         offset="0.3499"
         style="stop-color:#ECE8C3"
         id="stop226" />
      <stop
         offset="1"
         style="stop-color:#D9B681"
         id="stop227" />
      
      
      
    </linearGradient>
    <path
       fill="url(#XMLID_7_)"
       d="M95.364,25.428c-1.973,0-7.198,0.367-8.952,0v92.646c1.754,0.367,6.979,0,8.952,0    c9.126,0,16.523-7.584,16.523-12.865V12.562C111.888,17.845,104.49,25.428,95.364,25.428z"
       id="path231" />
    <linearGradient
       id="XMLID_8_"
       gradientUnits="userSpaceOnUse"
       x1="86.4121"
       y1="71.7505"
       x2="95.3643"
       y2="71.7505">
      <stop
         offset="0"
         style="stop-color:#FFFFFF"
         id="stop233" />
      <stop
         offset="1"
         style="stop-color:#000000"
         id="stop234" />
      
      
      
    </linearGradient>
    <path
       opacity="0.8"
       fill="url(#XMLID_8_)"
       a:adobe-blending-mode="screen"
       d="M95.364,25.428c-1.973,0-7.198,0.367-8.952,0    v92.646L95.364,25.428z"
       id="path238" />
    <linearGradient
       id="XMLID_9_"
       gradientUnits="userSpaceOnUse"
       x1="20.4727"
       y1="23.4756"
       x2="21.3081"
       y2="19.8188">
      <stop
         offset="0"
         style="stop-color:#F5FFE1"
         id="stop240" />
      <stop
         offset="0.1611"
         style="stop-color:#E0E3C2"
         id="stop241" />
      <stop
         offset="0.5139"
         style="stop-color:#AC9C74"
         id="stop242" />
      <stop
         offset="1"
         style="stop-color:#5D3200"
         id="stop243" />
      
      
      
    </linearGradient>
    <path
       opacity="0.4"
       fill="url(#XMLID_9_)"
       a:adobe-blending-mode="multiply"
       d="M2.573,14.18c0,0,3.188-0.797,5.314,0.531    s5.846,2.923,7.174,3.188s3.188,1.329,5.846,2.923s4.413,2.326,7.174,3.188s3.986,0.531,6.111,2.125s3.454,3.72,4.783,3.986    c-2.392,0-3.188-2.391-4.783-3.188s-2.392-1.063-4.783-1.063s-2.575-0.163-4.7-1.226s-3.205-1.526-5.596-1.526    s-2.562-2.031-7.376-3.815c-0.249,1.038,0.611,3.352-1.781,2.289s-4.312-1.317-4.578-0.254S2.573,14.18,2.573,14.18z"
       id="path247" />
  </g>
</svg>
