<?xml version="1.0" encoding="UTF-8" standalone="yes"?>
<svg version="1.1" width="64" height="64" color-interpolation="linearRGB"
     xmlns:svg="http://www.w3.org/2000/svg" xmlns="http://www.w3.org/2000/svg">
 <g>
  <path style="fill:#010101; fill-opacity:0.4549"
        d="M39 64C39 64 44 53 52 51C60 49 64 49 64 49L44 40L35 62L39 64z"
  />
  <path style="fill:none; stroke:#010101; stroke-width:4"
        d="M34 62C34 62 40.42 56.35 42 54C46 48 52.97 31.77 57.51 21.77C59.6 17.16 62 14 62 14L28 6C28 6 21.34 22.12 14 34C8.67 42.58 2 48 2 48L34 62z"
  />
  <linearGradient id="gradient0" gradientUnits="userSpaceOnUse" x1="-67.48" y1="18.77" x2="-50.02" y2="-27.07">
   <stop offset="0" stop-color="#f6d177"/>
   <stop offset="0.1647" stop-color="#ffdc89"/>
   <stop offset="1" stop-color="#e3b043"/>
  </linearGradient>
  <path style="fill:url(#gradient0)"
        d="M34 62C34 62 40.42 56.35 42 54C46 48 52.97 31.77 57.51 21.77C59.6 17.16 62 14 62 14L28 6C28 6 21.34 22.12 14 34C8.67 42.58 2 48 2 48L34 62z"
  />
  <path style="fill:#ae0303"
        d="M8 43H12L16 40L15 44L18 48L14 47L9.37 50.5L11 46L8 43z
           M11 42L12 41L15 49H14L11 42z"
  />
  <path style="fill:#ae0303"
        d="M11 42L12 41L15 49H14L11 42z"
        transform="matrix(-0.0367,0.9993,-0.9993,-0.0367,58.447,33.6604)"
  />
  <path style="fill:none; stroke:#ae0303; stroke-width:1"
        d="M10.02 2.27L13 6V2.27H14V7.27H12.96L10 3.5V7.27H9V2.27H10.02z"
        transform="matrix(0.8746,0.4846,-0.4846,0.8746,10.3062,26.9083)"
  />
  <path style="fill:#535353"
        d="M17 51L34 58L35 56L18 49L17 51z"
  />
  <path style="fill:#535353"
        d="M19 47L20 48L17 53L16 52L19 47z"
  />
  <path style="fill:#535353"
        d="M19 47L20 48L17 53L16 52L19 47z"
        transform="matrix(1,0,0,1,8,3)"
  />
  <path style="fill:#535353"
        d="M19 47L20 48L17 53L16 52L19 47z"
        transform="matrix(1,0,0,1,16,7)"
  />
  <linearGradient id="gradient1" gradientUnits="userSpaceOnUse" x1="27.18" y1="-17.95" x2="73.19" y2="-1.94">
   <stop offset="0" stop-color="#29c505"/>
   <stop offset="1" stop-color="#146002"/>
  </linearGradient>
  <path style="fill:url(#gradient1)"
        d="M40 30.54L38 40.54H34L36 30.54L26 30V27L36 27.54V26.31L34.98 22.54L26 22V19L33.34 19.54L26 6.54H31.52L38.96 21.51L47.46 4.54L53 4L44.6 19.54H51V22.54H42.98L39.95 26.31V27.54H50V31L40 30.54z"
        transform="matrix(0.9234,0.3836,-0.3836,0.9234,8.828,-6.1972)"
  />
  <path style="fill:none; stroke:#010101; stroke-opacity:0.4549; stroke-width:2"
        d="M40 30.54L38 40.54H34L36 30.54L26 30V27L36 27.54V26.31L34.98 22.54L26 22V19L33.34 19.54L26 6.54H31.52L38.96 21.51L47.46 4.54L53 4L44.6 19.54H51V22.54H42.98L39.95 26.31V27.54H50V31L40 30.54z"
        transform="matrix(0.9234,0.3836,-0.3836,0.9234,8.828,-6.1972)"
  />
  <linearGradient id="gradient2" gradientUnits="userSpaceOnUse" x1="27.18" y1="-17.95" x2="73.19" y2="-1.94">
   <stop offset="0" stop-color="#29c505"/>
   <stop offset="1" stop-color="#146002"/>
  </linearGradient>
  <path style="fill:url(#gradient2)"
        d="M41.11 10.61C44 10.87 45.61 11.61 45.61 11.61C45.61 11.61 45.87 13.11 45.11 15.24C44.37 17.37 41.87 16.74 41.87 16.74C41.87 16.74 41.5 17 40.37 15.37C39.24 13.74 39 11.11 39 11.11C39 11.11 38.24 10.37 41.11 10.61z"
  />
  <path style="fill:none; stroke:#010101; stroke-opacity:0.4549; stroke-width:1"
        d="M41.11 10.61C44 10.87 45.61 11.61 45.61 11.61C45.61 11.61 45.87 13.11 45.11 15.24C44.37 17.37 41.87 16.74 41.87 16.74C41.87 16.74 41.5 17 40.37 15.37C39.24 13.74 39 11.11 39 11.11C39 11.11 38.24 10.37 41.11 10.61z"
  />
  <linearGradient id="gradient3" gradientUnits="userSpaceOnUse" x1="27.18" y1="-17.95" x2="73.19" y2="-1.94">
   <stop offset="0" stop-color="#29c505"/>
   <stop offset="1" stop-color="#146002"/>
  </linearGradient>
  <path style="fill:url(#gradient3)"
        d="M41.11 10.61C44 10.87 45.61 11.61 45.61 11.61C45.61 11.61 45.87 13.11 45.11 15.24C44.37 17.37 41.87 16.74 41.87 16.74C41.87 16.74 41.5 17 40.37 15.37C39.24 13.74 39 11.11 39 11.11C39 11.11 38.24 10.37 41.11 10.61z"
        transform="matrix(0.5522,-0.3814,0.332,0.4806,23.8962,36.7099)"
  />
  <linearGradient id="gradient4" gradientUnits="userSpaceOnUse" x1="27.18" y1="-17.95" x2="73.19" y2="-1.94">
   <stop offset="0" stop-color="#29c505"/>
   <stop offset="1" stop-color="#146002"/>
  </linearGradient>
  <path style="fill:url(#gradient4)"
        d="M41.11 10.61C44 10.87 45.61 11.61 45.61 11.61C45.61 11.61 45.87 13.11 45.11 15.24C44.37 17.37 41.87 16.74 41.87 16.74C41.87 16.74 41.5 17 40.37 15.37C39.24 13.74 39 11.11 39 11.11C39 11.11 38.24 10.37 41.11 10.61z"
        transform="matrix(1.2862,0.8086,-1.0433,0.7781,-3.9642,3.1157)"
  />
  <path style="fill:none; stroke:#010101; stroke-opacity:0.4549; stroke-width:1"
        d="M41.11 10.61C44 10.87 45.61 11.61 45.61 11.61C45.61 11.61 45.87 13.11 45.11 15.24C44.37 17.37 41.87 16.74 41.87 16.74C41.87 16.74 41.5 17 40.37 15.37C39.24 13.74 39 11.11 39 11.11C39 11.11 38.24 10.37 41.11 10.61z"
        transform="matrix(1.2862,0.8086,-1.0433,0.7781,-3.9642,3.1157)"
  />
 </g>
</svg>
