<?xml version="1.0" encoding="UTF-8" standalone="yes"?>
<svg version="1.1" width="64" height="64" color-interpolation="linearRGB"
     xmlns:svg="http://www.w3.org/2000/svg" xmlns="http://www.w3.org/2000/svg">
 <g>
  <path style="fill:#010101; fill-opacity:0.5019"
        d="M36 61H41L64 30L58 27L59 31L36 61z"
  />
  <path style="fill:none; stroke:#010000; stroke-width:4"
        d="M2 28V41L36 59L58 30V17L25 5L2 28z"
  />
  <linearGradient id="gradient0" gradientUnits="userSpaceOnUse" x1="24.89" y1="-36.11" x2="48.65" y2="-27.35">
   <stop offset="0" stop-color="#8e8e8e"/>
   <stop offset="1" stop-color="#474747"/>
  </linearGradient>
  <path style="fill:url(#gradient0)"
        d="M2 28V38L5.74 37.24L25 18V5L2 28z"
  />
  <linearGradient id="gradient1" gradientUnits="userSpaceOnUse" x1="10.63" y1="-12.03" x2="34.57" y2="-24.65">
   <stop offset="0" stop-color="#7d7d7d"/>
   <stop offset="1" stop-color="#b0b0b0"/>
  </linearGradient>
  <path style="fill:url(#gradient1)"
        d="M58 17L25 5V18L52.23 27.9L58 28V17z"
  />
  <linearGradient id="gradient2" gradientUnits="userSpaceOnUse" x1="31.54" y1="-37.79" x2="63.42" y2="-26.99">
   <stop offset="0" stop-color="#969696"/>
   <stop offset="1" stop-color="#b0b0b0"/>
  </linearGradient>
  <path style="fill:url(#gradient2)"
        d="M25 18L4.5 38.49L36 56L55.53 29.09L25 18z"
  />
  <path style="fill:none; stroke:#010000; stroke-width:4; stroke-linejoin:round"
        d="M30 14C19.94 14.3 12 19.56 12 26C12 27.53 12.46 29.01 13.29 30.37L30 25V14z
           M32 25L49.77 24.16C48.48 18.81 41.58 14.62 32.98 14.05L32 25z
           M31 26L15.26 32.72C18.68 35.9 24.45 38 31 38C40.7 38 48.7 33.4 49.85 27.46L31 26z"
  />
  <linearGradient id="gradient3" gradientUnits="userSpaceOnUse" x1="-9" y1="-5" x2="71" y2="-5">
   <stop offset="0" stop-color="#007f7f"/>
   <stop offset="0.4941" stop-color="#b1eaea"/>
   <stop offset="1" stop-color="#4f9da4"/>
  </linearGradient>
  <path style="fill:url(#gradient3)"
        d="M30 14C19.94 14.3 12 19.56 12 26C12 27.53 12.46 29.01 13.29 30.37L30 25V14z"
  />
  <linearGradient id="gradient4" gradientUnits="userSpaceOnUse" x1="-9" y1="-5" x2="71" y2="-5">
   <stop offset="0" stop-color="#e3b78d"/>
   <stop offset="0.5254" stop-color="#f4f8c9"/>
   <stop offset="0.9568" stop-color="#888c98"/>
  </linearGradient>
  <path style="fill:url(#gradient4)"
        d="M32 25L49.77 24.16C48.48 18.81 41.58 14.62 32.98 14.05L32 25z"
  />
  <linearGradient id="gradient5" gradientUnits="userSpaceOnUse" x1="-9" y1="-5" x2="71" y2="-5">
   <stop offset="0" stop-color="#a95252"/>
   <stop offset="0.5254" stop-color="#f5c0d3"/>
   <stop offset="0.9568" stop-color="#b05a66"/>
  </linearGradient>
  <path style="fill:url(#gradient5)"
        d="M31 26L15.26 32.72C18.68 35.9 24.45 38 31 38C40.7 38 48.7 33.4 49.85 27.46L31 26z"
  />
  <path style="fill:none; stroke:#010000; stroke-width:4"
        d="M34 25C34 25.54 32.64 26 31 26C29.34 26 28 25.54 28 25C28 24.44 29.34 24 31 24C32.64 24 34 24.44 34 25z"
  />
  <linearGradient id="gradient6" gradientUnits="userSpaceOnUse" x1="-9" y1="-5" x2="71" y2="-5">
   <stop offset="0" stop-color="#888c98"/>
   <stop offset="0.5254" stop-color="#ebedf2"/>
   <stop offset="0.9568" stop-color="#888c98"/>
  </linearGradient>
  <path style="fill:url(#gradient6)"
        d="M34 25C34 25.54 32.64 26 31 26C29.34 26 28 25.54 28 25C28 24.44 29.34 24 31 24C32.64 24 34 24.44 34 25z"
  />
  <linearGradient id="gradient7" gradientUnits="userSpaceOnUse" x1="44.72" y1="-7.9" x2="86.1" y2="10.51">
   <stop offset="0" stop-color="#474747"/>
   <stop offset="1" stop-color="#a5a0a0"/>
  </linearGradient>
  <path style="fill:url(#gradient7)"
        d="M36 43V59L58 30V17L36 43z"
  />
  <linearGradient id="gradient8" gradientUnits="userSpaceOnUse" x1="22.97" y1="92.59" x2="-14.6" y2="67.29">
   <stop offset="0" stop-color="#7d7d7d"/>
   <stop offset="1" stop-color="#d4d4d4"/>
  </linearGradient>
  <path style="fill:url(#gradient8)"
        d="M2 28V41L36 59V43L2 28z"
  />
  <linearGradient id="gradient9" gradientUnits="userSpaceOnUse" x1="32.05" y1="9.68" x2="43.48" y2="24.05">
   <stop offset="0" stop-color="#596756"/>
   <stop offset="1" stop-color="#ebb2b2"/>
  </linearGradient>
  <path style="fill:none; stroke:url(#gradient9); stroke-width:5; stroke-linecap:round"
        d="M7 35L12.74 37.5"
  />
  <path style="fill:none; stroke:#ff0000; stroke-width:2"
        d="M6 35L9 36"
        transform="matrix(1,0,0,1,4,1.5)"
  />
  <path style="fill:none; stroke:#a7ff00; stroke-width:2"
        d="M6 35L9 36"
        transform="matrix(1,0,0,1,0,-0.2549)"
  />
  <linearGradient id="gradient10" gradientUnits="userSpaceOnUse" x1="-6" y1="-64" x2="46" y2="-64">
   <stop offset="0" stop-color="#ffffff"/>
   <stop offset="0.6078" stop-color="#d3d3d3"/>
   <stop offset="1" stop-color="#cdcdcd"/>
  </linearGradient>
  <path style="fill:none; stroke:url(#gradient10); stroke-width:1; stroke-linecap:round; stroke-linejoin:round"
        d="M3 28L36 43L57 18L25 6L3 28z"
  />
 </g>
</svg>
