<?xml version="1.0" encoding="UTF-8" standalone="no"?>
<svg
   xmlns:dc="http://purl.org/dc/elements/1.1/"
   xmlns:cc="http://creativecommons.org/ns#"
   xmlns:rdf="http://www.w3.org/1999/02/22-rdf-syntax-ns#"
   xmlns:svg="http://www.w3.org/2000/svg"
   xmlns="http://www.w3.org/2000/svg"
   xmlns:xlink="http://www.w3.org/1999/xlink"
   xmlns:sodipodi="http://sodipodi.sourceforge.net/DTD/sodipodi-0.dtd"
   xmlns:inkscape="http://www.inkscape.org/namespaces/inkscape"
   version="1.1"
   width="64"
   height="64"
   color-interpolation="linearRGB"
   id="svg2"
   inkscape:version="0.47 r22583"
   sodipodi:docname="geany.svg">
  <metadata
     id="metadata95">
    <rdf:RDF>
      <cc:Work
         rdf:about="">
        <dc:format>image/svg+xml</dc:format>
        <dc:type
           rdf:resource="http://purl.org/dc/dcmitype/StillImage" />
      </cc:Work>
    </rdf:RDF>
  </metadata>
  <defs
     id="defs93">
    <inkscape:perspective
       sodipodi:type="inkscape:persp3d"
       inkscape:vp_x="0 : 32 : 1"
       inkscape:vp_y="0 : 1000 : 0"
       inkscape:vp_z="64 : 32 : 1"
       inkscape:persp3d-origin="32 : 21.333333 : 1"
       id="perspective97" />
    <inkscape:perspective
       id="perspective3193"
       inkscape:persp3d-origin="0.5 : 0.33333333 : 1"
       inkscape:vp_z="1 : 0.5 : 1"
       inkscape:vp_y="0 : 1000 : 0"
       inkscape:vp_x="0 : 0.5 : 1"
       sodipodi:type="inkscape:persp3d" />
    <linearGradient
       id="linearGradient8285">
      <stop
         id="stop8287"
         offset="0"
         style="stop-color:#ff6c6c;stop-opacity:1;" />
      <stop
         id="stop8289"
         offset="1"
         style="stop-color:#cc0000;stop-opacity:1;" />
    </linearGradient>
    <linearGradient
       id="linearGradient11853"
       inkscape:collect="always">
      <stop
         id="stop11855"
         offset="0"
         style="stop-color:#ffffff;stop-opacity:1;" />
      <stop
         id="stop11857"
         offset="1"
         style="stop-color:#ffffff;stop-opacity:0;" />
    </linearGradient>
    <linearGradient
       id="linearGradient3206">
      <stop
         id="stop3208"
         offset="0"
         style="stop-color:#ff6c6c;stop-opacity:1;" />
      <stop
         id="stop3210"
         offset="1"
         style="stop-color:#cc0000;stop-opacity:1;" />
    </linearGradient>
    <linearGradient
       id="linearGradient3220">
      <stop
         id="stop3222"
         offset="0"
         style="stop-color:#ff6c6c;stop-opacity:1;" />
      <stop
         id="stop3224"
         offset="1"
         style="stop-color:#cc0000;stop-opacity:1;" />
    </linearGradient>
    <linearGradient
       y2="31"
       x2="25"
       y1="26"
       x1="21"
       gradientTransform="matrix(0.5555553,0,0,1.1111107,81.408667,7.1177108)"
       gradientUnits="userSpaceOnUse"
       id="linearGradient3240"
       xlink:href="#linearGradient11853"
       inkscape:collect="always" />
    <radialGradient
       inkscape:collect="always"
       xlink:href="#linearGradient8285"
       id="radialGradient3313"
       gradientUnits="userSpaceOnUse"
       gradientTransform="matrix(0.5999998,0,0,1.1666668,71.386443,1.8871314)"
       cx="22.999998"
       cy="28.5"
       fx="22.999998"
       fy="28.5"
       r="3" />
    <linearGradient
       inkscape:collect="always"
       xlink:href="#linearGradient11853"
       id="linearGradient3315"
       gradientUnits="userSpaceOnUse"
       gradientTransform="matrix(0.3333332,0,0,0.8333333,77.519774,11.803804)"
       x1="21"
       y1="26"
       x2="25"
       y2="31" />
    <radialGradient
       inkscape:collect="always"
       xlink:href="#linearGradient8285"
       id="radialGradient3317"
       gradientUnits="userSpaceOnUse"
       gradientTransform="matrix(0.6,0,0,1.1666668,89.386439,1.9788074)"
       cx="22.999998"
       cy="28.5"
       fx="22.999998"
       fy="28.5"
       r="3" />
    <linearGradient
       inkscape:collect="always"
       xlink:href="#linearGradient11853"
       id="linearGradient3319"
       gradientUnits="userSpaceOnUse"
       gradientTransform="matrix(0.3333332,0,0,0.8333333,95.519774,11.89548)"
       x1="21"
       y1="26"
       x2="25"
       y2="31" />
    <radialGradient
       inkscape:collect="always"
       xlink:href="#linearGradient8285"
       id="radialGradient3321"
       gradientUnits="userSpaceOnUse"
       gradientTransform="matrix(0.9999995,0,0,1.5555553,71.18645,-6.1045159)"
       cx="22.999998"
       cy="28.5"
       fx="22.999998"
       fy="28.5"
       r="3" />
  </defs>
  <sodipodi:namedview
     pagecolor="#ffffff"
     bordercolor="#666666"
     borderopacity="1"
     objecttolerance="10"
     gridtolerance="10"
     guidetolerance="10"
     inkscape:pageopacity="0"
     inkscape:pageshadow="2"
     inkscape:window-width="1106"
     inkscape:window-height="682"
     id="namedview91"
     showgrid="false"
     inkscape:zoom="3.6875"
     inkscape:cx="32"
     inkscape:cy="32"
     inkscape:window-x="85"
     inkscape:window-y="43"
     inkscape:window-maximized="1"
     inkscape:current-layer="svg2" />
  <g
     id="g4">
    <path
       style="fill:#010000; fill-opacity:0.4156"
       d="M38 34L12 49C12 51.93 13.46 54.67 16 56.99C13 58 8.91 60.03 10 61.61C13 66 21 63 25.58 62.17C29.27 63.33 33.5 64 38 64C52.35 64 64 57.27 64 49C64 46.79 63.16 44.69 61.68 42.81C60.74 41.61 66 39 63 37C60 35 55.41 37.8 53.83 37.09C49.44 35.14 43.95 34 38 34z"
       id="path6" />
    <path
       style="fill:none; stroke:#010000; stroke-width:4; stroke-linecap:round; stroke-linejoin:round"
       d="M47 28C47 28 53.16 20.41 56 19C58 18 60 20 60 20L57 18C57 18 52.52 15.73 50 17C48 18 42 26 42 26L47 28z            M60 21C60 27 52 37 52 37L49 33C49 33 56 26 56 20C58 19 60 21 60 21z"
       transform="matrix(1,0,0,1,-2,-2)"
       id="path8" />
    <linearGradient
       id="gradient0"
       gradientUnits="userSpaceOnUse"
       x1="66.55"
       y1="20.33"
       x2="62.35"
       y2="28.08">
      <stop
         offset="0.0039"
         stop-color="#6d5c02"
         id="stop11" />
      <stop
         offset="1"
         stop-color="#ba9e04"
         id="stop13" />
    </linearGradient>
    <path
       style="fill:url(#gradient0)"
       d="M60 21C60 27 52 37 52 37L49 33C49 33 56 26 56 20C58 19 60 21 60 21z"
       transform="matrix(1,0,0,1,-2,-2)"
       id="path15" />
    <linearGradient
       id="gradient1"
       gradientUnits="userSpaceOnUse"
       x1="66.55"
       y1="20.33"
       x2="62.35"
       y2="28.08">
      <stop
         offset="0.0078"
         stop-color="#fff3b3"
         id="stop18" />
      <stop
         offset="1"
         stop-color="#dcbb04"
         id="stop20" />
    </linearGradient>
    <path
       style="fill:url(#gradient1)"
       d="M47 28C47 28 53.16 20.41 56 19C58 18 60 20 60 20L57 18C57 18 52.52 15.73 50 17C48 18 42 26 42 26L47 28z"
       transform="matrix(1,0,0,1,-2,-2)"
       id="path22" />
    <linearGradient
       id="gradient2"
       gradientUnits="userSpaceOnUse"
       x1="71.67"
       y1="21.79"
       x2="65.84"
       y2="32.38">
      <stop
         offset="0"
         stop-color="#fff3b3"
         id="stop25" />
      <stop
         offset="0.4509"
         stop-color="#ffd805"
         id="stop27" />
      <stop
         offset="1"
         stop-color="#a78e03"
         id="stop29" />
    </linearGradient>
    <path
       style="fill:none; stroke:url(#gradient2); stroke-width:1"
       d="M48 23C48 23 53 18 56 18C58.72 18 59 20 59 20C59 26 52 35 52 35"
       transform="matrix(1,0,0,1,-2,-2)"
       id="path31" />
    <path
       style="fill:none; stroke:#010000; stroke-width:4"
       d="M32 58C36 58 42 58 42 56C46 56 54 50 54 40C54 25 42 22 32 22C22 22 10 25 10 40C10 50 20 56 24 56C24 58 28 58 32 58z            M18 52C26 53 22 38 18 37C14 36 11 38 6 38C4 38 2 40 2 43C6 49 12 52 18 52z"
       id="path33" />
    <radialGradient
       id="gradient3"
       gradientUnits="userSpaceOnUse"
       cx="0"
       cy="0"
       r="64"
       gradientTransform="matrix(0.5,0,0,0.5078,24,30.75)">
      <stop
         offset="0"
         stop-color="#fafbc5"
         id="stop36" />
      <stop
         offset="0.4274"
         stop-color="#e4d106"
         id="stop38" />
      <stop
         offset="0.8862"
         stop-color="#ac8e04"
         id="stop40" />
      <stop
         offset="1"
         stop-color="#bca805"
         id="stop42" />
    </radialGradient>
    <path
       style="fill:url(#gradient3)"
       d="M42 56C46 56 54 50 54 40C54 25 42 22 32 22C22 22 10 25 10 40H18C23 40 32 56 42 56z"
       id="path44" />
    <radialGradient
       id="gradient4"
       gradientUnits="userSpaceOnUse"
       cx="0"
       cy="0"
       r="64"
       gradientTransform="matrix(-0.3914,0.0922,0.0773,0.3283,40.3562,13.404)">
      <stop
         offset="0"
         stop-color="#ac8a04"
         id="stop47" />
      <stop
         offset="1"
         stop-color="#fff2c0"
         id="stop49" />
    </radialGradient>
    <path
       style="fill:none; stroke:url(#gradient4); stroke-width:4"
       d="M32 24.24C26 24.24 22 26.24 22 28.24C22 30.24 26 32.24 32 32.24C38 32.24 42 30.24 42 28.24C42 26.24 38 24.24 32 24.24z"
       id="path51" />
    <radialGradient
       id="gradient5"
       gradientUnits="userSpaceOnUse"
       cx="0"
       cy="0"
       r="64"
       gradientTransform="matrix(0.375,0,0,0.375,24,28)">
      <stop
         offset="0"
         stop-color="#3c0101"
         id="stop54" />
      <stop
         offset="1"
         stop-color="#bb9605"
         id="stop56" />
    </radialGradient>
    <path
       style="fill:url(#gradient5)"
       d="M32 24.24C26 24.24 22 26.24 22 28.24C22 30.24 26 32.24 32 32.24C38 32.24 42 30.24 42 28.24C42 26.24 38 24.24 32 24.24z"
       id="path58" />
    <radialGradient
       id="gradient6"
       gradientUnits="userSpaceOnUse"
       cx="0"
       cy="0"
       r="64"
       gradientTransform="matrix(0.2855,0.3314,-0.1809,0.1559,26.1921,38.2983)">
      <stop
         offset="0"
         stop-color="#ffcd05"
         id="stop61" />
      <stop
         offset="1"
         stop-color="#7b6302"
         id="stop63" />
    </radialGradient>
    <path
       style="fill:url(#gradient6)"
       d="M10 40H18C23 40 32 56 42 56C42 58 36 58 32 58C28 58 24 58 24 56C20 56 10 48 10 40z"
       id="path65" />
    <radialGradient
       id="gradient7"
       gradientUnits="userSpaceOnUse"
       cx="0"
       cy="0"
       r="64"
       gradientTransform="matrix(0.2906,0.0656,-0.028,0.124,13.7948,40.3303)">
      <stop
         offset="0"
         stop-color="#fff2c0"
         id="stop68" />
      <stop
         offset="0.4901"
         stop-color="#d8b703"
         id="stop70" />
      <stop
         offset="1"
         stop-color="#ae990e"
         id="stop72" />
    </radialGradient>
    <path
       style="fill:url(#gradient7)"
       d="M18 52C26 53 22 38 18 37C14 36 11 38 6 38C4 38 2 40 2 43C6 49 12 52 18 52z"
       id="path74" />
    <linearGradient
       id="gradient8"
       gradientUnits="userSpaceOnUse"
       x1="12.57"
       y1="44.9"
       x2="8.78"
       y2="47.94">
      <stop
         offset="0"
         stop-color="#fffd97"
         id="stop77" />
      <stop
         offset="0.4627"
         stop-color="#ffe405"
         id="stop79" />
      <stop
         offset="1"
         stop-color="#c6b604"
         id="stop81" />
    </linearGradient>
    <path
       style="fill:none; stroke:url(#gradient8); stroke-width:2"
       d="M3 43C3 40 4 39 7 39C7 42 6 43 3 43z"
       id="path83" />
    <path
       style="fill:#010000"
       d="M3 43C3 40 4 39 7 39C7 42 6 43 3 43z"
       id="path85" />
    <path
       style="fill:#010000"
       d=""
       id="path87" />
    <path
       style="fill:#111111; fill-opacity:0.6862"
       d="M4 35C3 28 2.89 23.66 4 22C6 19 11.31 17.74 12 15C13 11 3.7 10.12 3 8C2.43 6.29 5.45 2.91 8 2C10.3 1.17 21.25 1.31 24 2C28 3 31 2 33 7C33.3 7.75 22 15 20 13C19.36 12.36 17.18 6.59 22 9C26 11 24.75 8.24 26 7C28 5 27 5 21 4C16.55 3.25 7 3 7 7C7 10.6 18 11 16 15C14.38 18.22 11 19 7 23C3.19 26.8 5 30 4 35"
       id="path89" />
  </g>
  <g
     transform="matrix(0.9341519,-0.35687563,0.35687563,0.9341519,-57.181239,41.756732)"
     id="g3177">
    <path
       id="path11861"
       d="m 85.186439,32.137137 -1.499999,3.000001 1.499999,3 1.500001,-3 -1.500001,-3.000001 z"
       style="fill:url(#radialGradient3313);fill-opacity:1;stroke:#a40000;stroke-width:0.99999994;stroke-linecap:round;stroke-linejoin:miter;stroke-miterlimit:4;stroke-opacity:1;stroke-dashoffset:0" />
    <path
       id="path11863"
       d="m 85.18644,32.637137 -1,2.500001 1,2.499999 0,-5 z"
       style="fill:url(#linearGradient3315);fill-opacity:1;stroke:none" />
    <path
       id="path14255"
       d="m 103.18644,32.228813 -1.5,3.000001 1.5,3 1.5,-3 -1.5,-3.000001 z"
       style="fill:url(#radialGradient3317);fill-opacity:1;stroke:#a40000;stroke-width:0.99999994;stroke-linecap:round;stroke-linejoin:miter;stroke-miterlimit:4;stroke-opacity:1;stroke-dashoffset:0" />
    <path
       id="path14257"
       d="m 103.18644,32.728813 -1,2.500001 1,2.499999 0,-5 z"
       style="fill:url(#linearGradient3319);fill-opacity:1;stroke:none" />
    <path
       style="fill:url(#radialGradient3321);fill-opacity:1;stroke:#a40000;stroke-width:0.99999988;stroke-linecap:round;stroke-linejoin:miter;stroke-miterlimit:4;stroke-opacity:1;stroke-dashoffset:0"
       d="m 94.186439,34.228815 -2.499998,3.999999 2.499998,4 2.500001,-4 -2.500001,-3.999999 z"
       id="path17168" />
    <path
       style="fill:url(#linearGradient3240);fill-opacity:1;stroke:none"
       d="m 94.186441,34.89548 -1.666666,3.333335 1.666666,3.333331 0,-6.666666 z"
       id="path17170" />
  </g>
</svg>
