<?xml version="1.0" encoding="UTF-8" standalone="yes"?>
<svg version="1.1" width="64" height="64" color-interpolation="linearRGB"
     xmlns:svg="http://www.w3.org/2000/svg" xmlns="http://www.w3.org/2000/svg">
 <g>
  <path style="fill:#010101"
        d="M38 54L36.68 34.34L20 28V44H18L16 16L40 26V54H38z"
        transform="matrix(1,0,0,1,24,-16)"
  />
  <path style="fill:none; stroke:#010101; stroke-width:4"
        d="M10 36C5.58 36 2 39.58 2 44C2 48.41 5.58 52 10 52C14.41 52 18 48.41 18 44C18 39.58 14.41 36 10 36z"
        transform="matrix(1,0,0,1,24,-16)"
  />
  <path style="fill:none; stroke:#010101; stroke-width:4"
        d="M10 36C5.58 36 2 39.58 2 44C2 48.41 5.58 52 10 52C14.41 52 18 48.41 18 44C18 39.58 14.41 36 10 36z"
        transform="matrix(1,0,0,1,44,-6)"
  />
  <radialGradient id="gradient0" gradientUnits="userSpaceOnUse" cx="0" cy="0" r="64" gradientTransform="matrix(0.1562,0,0,0.1562,8,42)">
   <stop offset="0" stop-color="#ffffff"/>
   <stop offset="0.4951" stop-color="#ff0606"/>
   <stop offset="1" stop-color="#cd0505"/>
  </radialGradient>
  <path style="fill:url(#gradient0)"
        d="M10 36C5.58 36 2 39.58 2 44C2 48.41 5.58 52 10 52C14.41 52 18 48.41 18 44C18 39.58 14.41 36 10 36z"
        transform="matrix(1,0,0,1,24,-16)"
  />
  <radialGradient id="gradient1" gradientUnits="userSpaceOnUse" cx="0" cy="0" r="64" gradientTransform="matrix(0.1562,0,0,0.1562,8,42)">
   <stop offset="0" stop-color="#ffffff"/>
   <stop offset="0.4951" stop-color="#ff0606"/>
   <stop offset="1" stop-color="#cd0505"/>
  </radialGradient>
  <path style="fill:url(#gradient1)"
        d="M10 36C5.58 36 2 39.58 2 44C2 48.41 5.58 52 10 52C14.41 52 18 48.41 18 44C18 39.58 14.41 36 10 36z"
        transform="matrix(1,0,0,1,44,-6)"
  />
  <path style="fill:none; stroke:#010101; stroke-width:4"
        d="M18 38C9.16 38 2 43.37 2 50C2 56.62 9.16 62 18 62C26.83 62 34 56.62 34 50C34 43.37 26.83 38 18 38z"
  />
  <radialGradient id="gradient2" gradientUnits="userSpaceOnUse" cx="0" cy="0" r="64" gradientTransform="matrix(0.3437,-0,0,0.3125,14,44)">
   <stop offset="0.508" stop-color="#c2c7cc"/>
   <stop offset="1" stop-color="#8c959d"/>
  </radialGradient>
  <path style="fill:url(#gradient2)"
        d="M18 38C9.16 38 2 43.37 2 50C2 56.62 9.16 62 18 62C26.83 62 34 56.62 34 50C34 43.37 26.83 38 18 38z"
  />
  <path style="fill:none; stroke:#010101; stroke-width:4"
        d="M6 50C6 54.41 11.37 58 18 58C24.62 58 30 54.41 30 50L30 48H6V50z"
  />
  <linearGradient id="gradient3" gradientUnits="userSpaceOnUse" x1="6" y1="24" x2="30" y2="24">
   <stop offset="0" stop-color="#ae803d"/>
   <stop offset="1" stop-color="#7f4c00"/>
  </linearGradient>
  <path style="fill:url(#gradient3)"
        d="M6 50C6 54.41 11.37 58 18 58C24.62 58 30 54.41 30 50L30 48H6V50z"
  />
  <path style="fill:none; stroke:#010101; stroke-width:4"
        d="M18 38C9.16 38 2 43.37 2 50C2 56.62 9.16 62 18 62C26.83 62 34 56.62 34 50C34 43.37 26.83 38 18 38z"
        transform="matrix(1,0,0,1,0,-10)"
  />
  <linearGradient id="gradient4" gradientUnits="userSpaceOnUse" x1="39.84" y1="-3.22" x2="58.77" y2="10.19">
   <stop offset="0" stop-color="#c2c7cc"/>
   <stop offset="0.4919" stop-color="#e9ebec"/>
   <stop offset="1" stop-color="#c2c7cc"/>
  </linearGradient>
  <path style="fill:url(#gradient4)"
        d="M18 38C9.16 38 2 43.37 2 50C2 56.62 9.16 62 18 62C26.83 62 34 56.62 34 50C34 43.37 26.83 38 18 38z"
        transform="matrix(1,0,0,1,0,-10)"
  />
  <linearGradient id="gradient5" gradientUnits="userSpaceOnUse" x1="-38.95" y1="-29.19" x2="-15.66" y2="-45.04">
   <stop offset="0" stop-color="#00a2ff" stop-opacity="0"/>
   <stop offset="1" stop-color="#00a2ff"/>
  </linearGradient>
  <path style="fill:url(#gradient5)"
        d="M4 24C6 20 12 16 20 16V24L32 12L20 0V8C4 8 4 24 4 24z"
  />
  <linearGradient id="gradient6" gradientUnits="userSpaceOnUse" x1="-38.95" y1="-29.19" x2="-15.66" y2="-45.04">
   <stop offset="0" stop-color="#00a2ff" stop-opacity="0"/>
   <stop offset="1" stop-color="#00a2ff"/>
  </linearGradient>
  <path style="fill:url(#gradient6)"
        d="M4 24C6 20 12 16 20 16V24L32 12L20 0V8C4 8 4 24 4 24z"
        transform="matrix(-1,0,-0,-1,64,64)"
  />
  <path style="fill:#010101"
        d="M18 42C15.79 42 14 43.79 14 46C14 48.2 15.79 50 18 50C20.2 50 22 48.2 22 46C22 43.79 20.2 42 18 42z"
        transform="matrix(0.4061,-0.6853,0.9138,0.3046,-22.2077,40.3707)"
  />
  <path style="fill:#010101"
        d="M18 42C15.79 42 14 43.79 14 46C14 48.2 15.79 50 18 50C20.2 50 22 48.2 22 46C22 43.79 20.2 42 18 42z"
        transform="matrix(0.4472,0.6708,-0.8944,0.3354,42.1495,14.8504)"
  />
  <path style="fill:#010101"
        d="M18 42C15.79 42 14 43.79 14 46C14 48.2 15.79 50 18 50C20.2 50 22 48.2 22 46C22 43.79 20.2 42 18 42z"
        transform="matrix(-0.6839,-0.5471,0.7295,-0.5129,3.0475,67.3151)"
  />
  <path style="fill:#010101"
        d="M18 42C15.79 42 14 43.79 14 46C14 48.2 15.79 50 18 50C20.2 50 22 48.2 22 46C22 43.79 20.2 42 18 42z"
        transform="matrix(-0.7219,0.5189,-0.6919,-0.5414,56.9043,49.1529)"
  />
  <path style="fill:#010101"
        d="M18 42C15.79 42 14 43.79 14 46C14 48.2 15.79 50 18 50C20.2 50 22 48.2 22 46C22 43.79 20.2 42 18 42z"
        transform="matrix(1,0,0,0.75,0,13)"
  />
 </g>
</svg>
