<?xml version="1.0" encoding="UTF-8" standalone="yes"?>
<svg version="1.1" width="64" height="64" color-interpolation="linearRGB"
     xmlns:svg="http://www.w3.org/2000/svg" xmlns="http://www.w3.org/2000/svg">
 <g>
  <path style="fill:#000000"
        d="M63 22.49C62.83 22.3 62.61 22.16 62.39 22.05C62.44 22.07 62.51 22.09 62.55 22.12C61.12 21.18 50.62 13.87 49.43 11.18L49.43 11.18C48.88 8.66 48 6.54 46.6 5.12C44.55 3.04 41.89 1.98 38.69 1.98C30.23 1.98 23.55 12.01 20.2 20.42C19.3 20.87 18.61 21.21 18.25 21.39C17.12 20.27 14.28 17.43 14.28 17.43L0 24.57V30.58L20.37 64.5L63.25 44.5L63.75 38.5L51.36 27.72C56.07 28.35 61.01 27.95 63.13 24.96C63.38 24.61 63.5 24.21 63.5 23.81C63.5 23.34 63.33 22.87 63 22.49z"
  />
  <path style="fill:#999999"
        d="M4.5 30.5L4.62 35.62L21.25 63.12L21.12 55.25L4.5 30.5z"
  />
  <path style="fill:#ababab"
        d="M21.5 53.87L60.62 38.12L35.72 14.88L5.12 30.12L21.5 53.87z"
  />
  <path style="fill:#505050"
        d="M21.75 54.5L61.87 38.87L61.75 43.12L21.62 62.5L21.75 54.5z"
  />
  <path style="fill:#ffcb00"
        d="M5.25 30.87L17.86 23.81L13.89 19.84L1.98 25.79L5.25 30.87z"
  />
  <path style="fill:#ff9800"
        d="M5.12 31.25L1.98 25.79L1.87 29.87L4.12 35.37L5.12 31.25z"
  />
  <path style="fill:#000000"
        d="M17.86 29.76C17.86 23.81 27.78 3.96 38.69 3.96C51.59 3.96 49.61 23.81 49.61 35.72C49.61 36.71 47.62 39.68 39.68 39.68C29.76 39.68 17.86 33.73 17.86 29.76z"
  />
  <path style="fill:#ffffff"
        d="M45.64 21.82C39.96 21.82 34.86 33.37 32.76 38.85C35.06 39.37 37.43 39.68 39.68 39.68C47.28 39.68 49.42 36.97 49.59 35.86C49.46 30.61 48.77 21.82 45.64 21.82z"
  />
  <path style="fill:#000000"
        d="M44.64 14.04C44.03 14.9 43.46 15.72 42.68 15.97C40.75 16.28 38.73 17.85 38.7 19.82C38.69 19.87 38.69 19.92 38.69 19.97C38.69 22.46 42.47 24.24 44.77 25.09C50.38 27.16 59.54 28.31 62.33 24.38L62.93 23.53L62.01 22.95C60.77 22.17 49.78 13.79 49.07 12.15L48.83 11.58L48.21 11.55C46.44 11.46 45.44 12.89 44.64 14.04z"
  />
  <path style="fill:#ffcb33"
        d="M48.16 12.54C45.86 12.43 45.33 16.18 42.97 16.92C41.41 17.11 39.71 18.4 39.68 19.84C39.3 24.03 57.9 28.91 61.51 23.81C61.51 23.89 49.09 14.71 48.16 12.54z"
  />
  <path style="fill:#d8a91f"
        d="M47.46 14.92L46.8 16.57L47.58 16.82L47.46 14.92z"
  />
  <path style="fill:#d8a91f"
        d="M40.49 19.96C40.55 19.94 40.61 19.93 40.67 19.91C40.64 19.91 40.61 19.9 40.58 19.9C40.55 19.92 40.52 19.94 40.49 19.96z"
  />
  <path style="fill:#d8a91f"
        d="M40.67 19.91C43.15 20.03 44.72 25.61 54.35 25.79C43.42 24.82 44.43 18.71 40.67 19.91z"
  />
  <path style="fill:#999999"
        d="M15.42 28.48C15.42 42.41 52.71 47.78 52.71 34.85C52.71 34.85 53.49 46.55 33.65 43.41C13.8 40.26 15.42 28.48 15.42 28.48z"
  />
  <path style="fill:#999999"
        d="M17.61 39.6C24.9 44.64 34.15 46.3 43.56 45.56C40.18 46.47 37.7 47.54 30.34 46.22C22.98 44.89 19.43 41.42 17.61 39.6z"
  />
  <path style="fill:#ffffff"
        d="M43.99 12.25C37.58 9.79 37.82 16.12 37.82 16.12C37.82 16.12 46.59 15.56 43.99 12.25z"
  />
  <path style="fill:#000000"
        d="M42.35 12.01C41.67 12.01 41.11 12.56 41.11 13.25C41.11 13.93 41.67 14.49 42.35 14.49C43.04 14.49 43.59 13.93 43.59 13.25C43.59 12.56 43.04 12.01 42.35 12.01z"
  />
 </g>
</svg>
