<?xml version="1.0" encoding="UTF-8" standalone="yes"?>
<svg version="1.1" width="64" height="64" color-interpolation="linearRGB"
     xmlns:svg="http://www.w3.org/2000/svg" xmlns="http://www.w3.org/2000/svg">
 <g>
  <path style="fill:#010101; fill-opacity:0.4352"
        d="M36 60L60 44V42L48 37H36V60z"
  />
  <path style="fill:none; stroke:#000000; stroke-width:4"
        d="M34.05 59.22C34.79 59.31 35.53 58.93 35.89 58.2L54.1 21.78C54.46 21.06 54.32 20.25 53.82 19.7L51.04 16C50.85 15.67 50.54 15.39 50.15 15.23L24.84 4.76C23.83 4.34 22.59 4.8 22.1 5.78L3.89 42.21C3.4 43.19 3.77 44.45 4.72 45.02L28.27 58.97C28.64 59.19 29.04 59.27 29.43 59.23L34.05 59.22z"
  />
  <linearGradient id="gradient0" gradientUnits="userSpaceOnUse" x1="18.1" y1="53.92" x2="39.87" y2="10.12">
   <stop offset="0" stop-color="#cbcbcb"/>
   <stop offset="0.33" stop-color="#5b5c5d"/>
   <stop offset="0.67" stop-color="#ffffff"/>
   <stop offset="1" stop-color="#7c7c7c"/>
  </linearGradient>
  <path style="fill:url(#gradient0)"
        d="M34.05 59.22C34.79 59.31 35.53 58.93 35.89 58.2L54.1 21.78C54.46 21.06 54.32 20.25 53.82 19.7L51.04 16C50.85 15.67 50.54 15.39 50.15 15.23L24.84 4.76C23.83 4.34 22.59 4.8 22.1 5.78L3.89 42.21C3.4 43.19 3.77 44.45 4.72 45.02L28.27 58.97C28.64 59.19 29.04 59.27 29.43 59.23L34.05 59.22z"
  />
  <linearGradient id="gradient1" gradientUnits="userSpaceOnUse" x1="72.58" y1="-2.44" x2="76.62" y2="4.46">
   <stop offset="0" stop-color="#ffffff"/>
   <stop offset="1" stop-color="#f4f4f4"/>
  </linearGradient>
  <path style="fill:url(#gradient1)"
        d="M4.72 45.02C3.77 44.45 3.4 43.19 3.89 42.21L22.1 5.78C22.59 4.8 23.83 4.34 24.84 4.76L50.15 15.23C51.16 15.65 51.59 16.8 51.1 17.79L30.89 58.21C30.4 59.19 29.22 59.54 28.28 58.98L4.72 45.02z"
  />
  <radialGradient id="gradient2" gradientUnits="userSpaceOnUse" cx="0" cy="0" r="64" gradientTransform="matrix(0.5548,0,0,0.5548,18,4)">
   <stop offset="0" stop-color="#ffffff"/>
   <stop offset="1" stop-color="#000000"/>
  </radialGradient>
  <path style="fill:url(#gradient2)"
        d="M4.72 45.02C3.77 44.45 3.4 43.19 3.89 42.21L22.1 5.78C22.59 4.8 23.83 4.34 24.84 4.76L50.15 15.23C51.16 15.65 51.59 16.8 51.1 17.79L30.89 58.21C30.4 59.19 29.22 59.54 28.28 58.98L4.72 45.02z"
  />
  <linearGradient id="gradient3" gradientUnits="userSpaceOnUse" x1="-9.1" y1="43.65" x2="-11.57" y2="36.04">
   <stop offset="0" stop-color="#c7c7c7"/>
   <stop offset="1" stop-color="#010101"/>
  </linearGradient>
  <path style="fill:url(#gradient3)"
        d="M13.96 30.81L34.78 41.68L45.65 19.93L24.09 10.56L13.96 30.81z"
  />
  <linearGradient id="gradient4" gradientUnits="userSpaceOnUse" x1="29.81" y1="41.68" x2="29.81" y2="10.56">
   <stop offset="0" stop-color="#badaff"/>
   <stop offset="1" stop-color="#d9eaff"/>
  </linearGradient>
  <path style="fill:url(#gradient4)"
        d="M13.96 30.81L34.78 41.68L45.65 19.93L24.09 10.56L13.96 30.81z"
  />
  <linearGradient id="gradient5" gradientUnits="userSpaceOnUse" x1="24.46" y1="36.26" x2="32.43" y2="20.23">
   <stop offset="0" stop-color="#5a88e8"/>
   <stop offset="1" stop-color="#bdd2ff"/>
  </linearGradient>
  <path style="fill:url(#gradient5)"
        d="M34 41C34 41 39 33 37 32C35 31 40 24 38 23C36 22 34 28 32 27C30 26 32 25 30 24C28 23 28 25 26 24C24 23 26 21 24 20C22 19 15 31 15 31L34 41z"
        transform="matrix(1,0,0,1,1,-1)"
  />
  <linearGradient id="gradient6" gradientUnits="userSpaceOnUse" x1="49.24" y1="32.23" x2="50.8" y2="40.07">
   <stop offset="0" stop-color="#ffffff"/>
   <stop offset="1" stop-color="#838383"/>
  </linearGradient>
  <path style="fill:url(#gradient6)"
        d="M16.47 34.54L10.71 46.07L24.25 53.98L30.3 41.88L16.47 34.54z"
  />
  <radialGradient id="gradient7" gradientUnits="userSpaceOnUse" cx="0" cy="0" r="64" gradientTransform="matrix(0.1875,0,0,0.1875,22,48)">
   <stop offset="0" stop-color="#ffffff"/>
   <stop offset="1" stop-color="#ababab"/>
  </radialGradient>
  <path style="fill:url(#gradient7)"
        d="M16.47 34.54L10.71 46.07L24.25 53.98L30.3 41.88L16.47 34.54z"
  />
  <path style="fill:none; stroke:#000000; stroke-width:2"
        d="M48 31.5C47.45 32.59 46.54 33.27 46 33C45.45 32.72 45.45 31.6 46 30.5C46.54 29.39 47.45 28.72 48 29C48.54 29.27 48.54 30.39 48 31.5z"
  />
  <path style="fill:none; stroke:#000000; stroke-width:2"
        d="M48 31.5C47.45 32.59 46.54 33.27 46 33C45.45 32.72 45.45 31.6 46 30.5C46.54 29.39 47.45 28.72 48 29C48.54 29.27 48.54 30.39 48 31.5z"
        transform="matrix(1,0,0,1,-3,6)"
  />
  <linearGradient id="gradient8" gradientUnits="userSpaceOnUse" x1="47" y1="33" x2="47" y2="29">
   <stop offset="0" stop-color="#787878"/>
   <stop offset="1" stop-color="#dbdbdb"/>
  </linearGradient>
  <path style="fill:url(#gradient8)"
        d="M48 31.5C47.45 32.59 46.54 33.27 46 33C45.45 32.72 45.45 31.6 46 30.5C46.54 29.39 47.45 28.72 48 29C48.54 29.27 48.54 30.39 48 31.5z"
  />
  <linearGradient id="gradient9" gradientUnits="userSpaceOnUse" x1="47" y1="33" x2="47" y2="29">
   <stop offset="0" stop-color="#454545"/>
   <stop offset="1" stop-color="#bdbdbd"/>
  </linearGradient>
  <path style="fill:url(#gradient9)"
        d="M48 31.5C47.45 32.59 46.54 33.27 46 33C45.45 32.72 45.45 31.6 46 30.5C46.54 29.39 47.45 28.72 48 29C48.54 29.27 48.54 30.39 48 31.5z"
        transform="matrix(1,0,0,1,-3,6)"
  />
 </g>
</svg>
