<?xml version="1.0" encoding="UTF-8" standalone="yes"?>
<svg version="1.1" width="64" height="64" color-interpolation="linearRGB"
     xmlns:svg="http://www.w3.org/2000/svg" xmlns="http://www.w3.org/2000/svg">
 <g>
  <radialGradient id="gradient0" gradientUnits="userSpaceOnUse" cx="0" cy="0" r="64" gradientTransform="matrix(0.375,0,0,0.375,32,32)">
   <stop offset="1" stop-color="#3a3b40" stop-opacity="0"/>
   <stop offset="0" stop-color="#3a3c40"/>
  </radialGradient>
  <path style="fill:url(#gradient0)"
        d="M32 8C18.74 8 8 18.74 8 32C8 45.25 18.74 56 32 56C45.25 56 56 45.25 56 32C56 18.74 45.25 8 32 8z"
        transform="matrix(1.3333,0,0,0.3333,-10.6666,45.3333)"
  />
  <radialGradient id="gradient1" gradientUnits="userSpaceOnUse" cx="0" cy="0" r="64" gradientTransform="matrix(0.625,0,0,0.625,20,20)">
   <stop offset="0" stop-color="#807040"/>
   <stop offset="1" stop-color="#403820"/>
  </radialGradient>
  <path style="fill:none; stroke:url(#gradient1); stroke-width:8"
        d="M32 8C18.74 8 8 18.74 8 32C8 45.25 18.74 56 32 56C45.25 56 56 45.25 56 32C56 18.74 45.25 8 32 8z"
  />
  <radialGradient id="gradient2" gradientUnits="userSpaceOnUse" cx="0" cy="0" r="64" gradientTransform="matrix(0.5,0,0,0.5,24,24)">
   <stop offset="0.3126" stop-color="#ffffcc"/>
   <stop offset="1" stop-color="#ffc105"/>
  </radialGradient>
  <path style="fill:url(#gradient2)"
        d="M32 8C18.74 8 8 18.74 8 32C8 45.25 18.74 56 32 56C45.25 56 56 45.25 56 32C56 18.74 45.25 8 32 8z"
  />
  <linearGradient id="gradient3" gradientUnits="userSpaceOnUse" x1="128" y1="8" x2="128" y2="56">
   <stop offset="0.0038" stop-color="#8daac9" stop-opacity="0.5019"/>
   <stop offset="1" stop-color="#8daac9" stop-opacity="0"/>
  </linearGradient>
  <path style="fill:url(#gradient3)"
        d="M32 8C18.74 8 8 18.74 8 32C8 45.25 18.74 56 32 56C45.25 56 56 45.25 56 32C56 18.74 45.25 8 32 8z"
  />
  <radialGradient id="gradient4" gradientUnits="userSpaceOnUse" cx="0" cy="0" r="64" gradientTransform="matrix(0.625,0,0,0.625,20,20)">
   <stop offset="0" stop-color="#807040"/>
   <stop offset="1" stop-color="#403820"/>
  </radialGradient>
  <path style="fill:none; stroke:url(#gradient4); stroke-width:4"
        d="M32 28H16"
  />
  <radialGradient id="gradient5" gradientUnits="userSpaceOnUse" cx="0" cy="0" r="64" gradientTransform="matrix(0.625,0,0,0.625,20,20)">
   <stop offset="0" stop-color="#807040"/>
   <stop offset="1" stop-color="#403820"/>
  </radialGradient>
  <path style="fill:none; stroke:url(#gradient5); stroke-width:4"
        d="M32 28H16"
        transform="matrix(-1,0,0,1,64,0)"
  />
  <radialGradient id="gradient6" gradientUnits="userSpaceOnUse" cx="0" cy="0" r="64" gradientTransform="matrix(0.625,0,0,0.625,20,20)">
   <stop offset="0" stop-color="#807040"/>
   <stop offset="1" stop-color="#403820"/>
  </radialGradient>
  <path style="fill:url(#gradient6)"
        d="M26 54H38C38 52 36 50 32 50C28 50 26 52 26 54z"
  />
  <radialGradient id="gradient7" gradientUnits="userSpaceOnUse" cx="0" cy="0" r="64" gradientTransform="matrix(0.625,0,0,0.625,20,20)">
   <stop offset="0" stop-color="#807040"/>
   <stop offset="1" stop-color="#403820"/>
  </radialGradient>
  <path style="fill:url(#gradient7)"
        d="M20 30C20 32.2 21.79 34 24 34C26.2 34 28 32.2 28 30H20z"
        transform="matrix(1,0,0,1,16,0)"
  />
  <radialGradient id="gradient8" gradientUnits="userSpaceOnUse" cx="0" cy="0" r="64" gradientTransform="matrix(0.625,0,0,0.625,20,20)">
   <stop offset="0" stop-color="#807040"/>
   <stop offset="1" stop-color="#403820"/>
  </radialGradient>
  <path style="fill:url(#gradient8)"
        d="M20 30C20 32.2 21.79 34 24 34C26.2 34 28 32.2 28 30H20z"
  />
  <radialGradient id="gradient9" gradientUnits="userSpaceOnUse" cx="0" cy="0" r="64" gradientTransform="matrix(0.0773,0.016,-0.0346,0.1673,51.8894,25.415)">
   <stop offset="0" stop-color="#ffffff"/>
   <stop offset="0.5816" stop-color="#89e7ff"/>
   <stop offset="1" stop-color="#ccf5ff"/>
  </radialGradient>
  <path style="fill:url(#gradient9)"
        d="M54 14C54 14 44 32 54 32C64 32 54 14 54 14z"
  />
 </g>
</svg>
