<?xml version="1.0" encoding="UTF-8" standalone="yes"?>
<svg version="1.1" width="64" height="64" color-interpolation="linearRGB"
     xmlns:svg="http://www.w3.org/2000/svg" xmlns="http://www.w3.org/2000/svg">
 <g>
  <radialGradient id="gradient0" gradientUnits="userSpaceOnUse" cx="0" cy="0" r="64" gradientTransform="matrix(0.375,0,0,0.375,32,32)">
   <stop offset="1" stop-color="#3a3b40" stop-opacity="0"/>
   <stop offset="0" stop-color="#3a3c40"/>
  </radialGradient>
  <path style="fill:url(#gradient0)"
        d="M32 8C18.74 8 8 18.74 8 32C8 45.25 18.74 56 32 56C45.25 56 56 45.25 56 32C56 18.74 45.25 8 32 8z"
        transform="matrix(1.3333,0,0,0.3333,-10.6666,45.3333)"
  />
  <radialGradient id="gradient1" gradientUnits="userSpaceOnUse" cx="0" cy="0" r="64" gradientTransform="matrix(0.625,0,0,0.625,20,20)">
   <stop offset="0" stop-color="#807040"/>
   <stop offset="1" stop-color="#403820"/>
  </radialGradient>
  <path style="fill:none; stroke:url(#gradient1); stroke-width:8"
        d="M32 8C18.74 8 8 18.74 8 32C8 45.25 18.74 56 32 56C45.25 56 56 45.25 56 32C56 18.74 45.25 8 32 8z"
  />
  <radialGradient id="gradient2" gradientUnits="userSpaceOnUse" cx="0" cy="0" r="64" gradientTransform="matrix(0.5,0,0,0.5,24,24)">
   <stop offset="0.3126" stop-color="#ffffcc"/>
   <stop offset="1" stop-color="#ffc105"/>
  </radialGradient>
  <path style="fill:url(#gradient2)"
        d="M32 8C18.74 8 8 18.74 8 32C8 45.25 18.74 56 32 56C45.25 56 56 45.25 56 32C56 18.74 45.25 8 32 8z"
  />
  <radialGradient id="gradient3" gradientUnits="userSpaceOnUse" cx="0" cy="0" r="64" gradientTransform="matrix(0.875,0,0,0.3125,32,36)">
   <stop offset="0" stop-color="#ff0505" stop-opacity="0.5215"/>
   <stop offset="1" stop-color="#ff0606" stop-opacity="0"/>
  </radialGradient>
  <path style="fill:url(#gradient3)"
        d="M32 8C18.74 8 8 18.74 8 32C8 45.25 18.74 56 32 56C45.25 56 56 45.25 56 32C56 18.74 45.25 8 32 8z"
  />
  <radialGradient id="gradient4" gradientUnits="userSpaceOnUse" cx="0" cy="0" r="64" gradientTransform="matrix(0.625,0,0,0.625,20,20)">
   <stop offset="0" stop-color="#807040"/>
   <stop offset="1" stop-color="#403820"/>
  </radialGradient>
  <path style="fill:url(#gradient4)"
        d="M14 22C14 22 18 27 22 31C22 31 18 29 14 32C19 31 27 36 30 36L28 30C24 28 14 22 14 22z"
  />
  <radialGradient id="gradient5" gradientUnits="userSpaceOnUse" cx="0" cy="0" r="64" gradientTransform="matrix(0.625,0,0,0.625,20,20)">
   <stop offset="0" stop-color="#807040"/>
   <stop offset="1" stop-color="#403820"/>
  </radialGradient>
  <path style="fill:url(#gradient5)"
        d="M14 22C14 22 18 27 22 31C22 31 18 29 14 32C19 31 27 36 30 36L28 30C24 28 14 22 14 22z"
        transform="matrix(-1,0,0,1,64,0)"
  />
  <radialGradient id="gradient6" gradientUnits="userSpaceOnUse" cx="0" cy="0" r="64" gradientTransform="matrix(0.625,0,0,0.625,20,20)">
   <stop offset="0" stop-color="#807040"/>
   <stop offset="1" stop-color="#403820"/>
  </radialGradient>
  <path style="fill:none; stroke:url(#gradient6); stroke-width:6; stroke-linecap:round; stroke-linejoin:round"
        d="M18 50C22 54 26 56 32 56C38 56 42 54 46 50C50 46 50 40 44 40C44 40 38 44 32 44C26 44 20 40 20 40C14 40 14 46 18 50z"
        transform="matrix(1,0,0,0.909,0,3.3635)"
  />
  <linearGradient id="gradient7" gradientUnits="userSpaceOnUse" x1="16" y1="-64" x2="48" y2="-64">
   <stop offset="0" stop-color="#b9d5dd"/>
   <stop offset="0.5128" stop-color="#ffffff"/>
   <stop offset="1" stop-color="#b9d5dd"/>
  </linearGradient>
  <path style="fill:url(#gradient7)"
        d="M18 50C22 54 26 56 32 56C38 56 42 54 46 50C50 46 50 40 44 40C44 40 38 44 32 44C26 44 20 40 20 40C14 40 14 46 18 50z"
  />
  <path style="fill:#010101; fill-opacity:0.4745"
        d="M18 45C19 47 22 49 22 49C22 49 22 51 23 52L25 50C25 50 29 51 32 51C35 51 39 50 39 50L41 52C42 51 42 49 42 49C42 49 45 47 46 45C44 47 42 47 42 47L41 50L39 48C39 48 34 49 32 49C30 49 25 48 25 48L23 50L22 47C22 47 20 47 18 45z"
  />
  <radialGradient id="gradient8" gradientUnits="userSpaceOnUse" cx="0" cy="0" r="64" gradientTransform="matrix(0.1875,0,0,0.1875,4,4)">
   <stop offset="0" stop-color="#ffffff"/>
   <stop offset="1" stop-color="#e1e1e1"/>
  </radialGradient>
  <path style="fill:url(#gradient8)"
        d="M20 6L8 8C8 8 10 12 6 12C2 12 4 8 4 8C4 8 0 11 0 6C0 1 4 4 4 4C4 4 2 0 6 0C10 0 8 4 8 4L20 6z"
        transform="matrix(0.7071,0.7071,-0.7071,0.7071,5.5857,-2.8994)"
  />
  <radialGradient id="gradient9" gradientUnits="userSpaceOnUse" cx="0" cy="0" r="64" gradientTransform="matrix(0.1875,0,0,0.1875,4,4)">
   <stop offset="0" stop-color="#ffffff"/>
   <stop offset="1" stop-color="#e1e1e1"/>
  </radialGradient>
  <path style="fill:url(#gradient9)"
        d="M20 6L8 8C8 8 10 12 6 12C2 12 4 8 4 8C4 8 0 11 0 6C0 1 4 4 4 4C4 4 2 0 6 0C10 0 8 4 8 4L20 6z"
        transform="matrix(-0.7071,0.7071,-0.7071,-0.7071,66.6938,5.5857)"
  />
 </g>
</svg>
