<?xml version="1.0" encoding="UTF-8" standalone="yes"?>
<svg version="1.1" width="64" height="64" color-interpolation="linearRGB"
     xmlns:svg="http://www.w3.org/2000/svg" xmlns="http://www.w3.org/2000/svg">
 <g>
  <radialGradient id="gradient0" gradientUnits="userSpaceOnUse" cx="0" cy="0" r="64" gradientTransform="matrix(0.375,0,0,0.375,32,32)">
   <stop offset="1" stop-color="#3a3a40" stop-opacity="0"/>
   <stop offset="0" stop-color="#3a3a40" stop-opacity="0.3686"/>
  </radialGradient>
  <path style="fill:url(#gradient0)"
        d="M46 56C46 48 54 36 54 28C54 20 46 8 42 8H22C18 8 14 16 14 16L10 32C10 36 14 40 18 40H38C38 44 34 56 46 56z"
        transform="matrix(1.3333,0,0,0.3333,-10.6666,45.3333)"
  />
  <radialGradient id="gradient1" gradientUnits="userSpaceOnUse" cx="0" cy="0" r="64" gradientTransform="matrix(0.625,0,0,0.625,20,20)">
   <stop offset="0" stop-color="#656565"/>
   <stop offset="1" stop-color="#010101"/>
  </radialGradient>
  <path style="fill:none; stroke:url(#gradient1); stroke-width:8"
        d="M46 56C46 48 54 36 54 28C54 20 46 8 42 8H22C18 8 14 16 14 16L10 32C10 36 14 40 18 40H38C38 44 34 56 46 56z"
  />
  <radialGradient id="gradient2" gradientUnits="userSpaceOnUse" cx="0" cy="0" r="64" gradientTransform="matrix(0.5729,0,0,0.625,19.3333,16)">
   <stop offset="0.3126" stop-color="#ffffff"/>
   <stop offset="1" stop-color="#d3d3d3"/>
  </radialGradient>
  <path style="fill:url(#gradient2)"
        d="M46 56C46 48 54 36 54 28C54 20 46 8 42 8H22C18 8 14 16 14 16L10 32C10 36 14 40 18 40H38C38 44 34 56 46 56z"
  />
  <linearGradient id="gradient3" gradientUnits="userSpaceOnUse" x1="14" y1="-66" x2="26" y2="-66">
   <stop offset="0" stop-color="#010101" stop-opacity="0"/>
   <stop offset="1" stop-color="#010101" stop-opacity="0.5647"/>
  </linearGradient>
  <path style="fill:url(#gradient3)"
        d="M14 25C17.57 25 18 22 20 18C22 14 16 14 16 14C22 14 24 8 24 8C24 12 26 10 26 14C26 18 22 16 22 20C22 24 24 24 24 28C24 32 20 30 20 34C20 38 22 40 22 40C22 40 13.87 34.12 18 30C22 26 14 25 14 25z"
  />
  <linearGradient id="gradient4" gradientUnits="userSpaceOnUse" x1="14" y1="-66" x2="26" y2="-66">
   <stop offset="0" stop-color="#010101" stop-opacity="0"/>
   <stop offset="1" stop-color="#010101" stop-opacity="0.5647"/>
  </linearGradient>
  <path style="fill:url(#gradient4)"
        d="M18 16L22 14C22 14 18 30 26 32C14 32 18 20 18 16z"
        transform="matrix(1,0,0,1,20,24)"
  />
 </g>
</svg>
