<?xml version="1.0" encoding="UTF-8" standalone="yes"?>
<svg version="1.1" width="64" height="64" color-interpolation="linearRGB"
     xmlns:svg="http://www.w3.org/2000/svg" xmlns="http://www.w3.org/2000/svg">
 <g>
  <linearGradient id="gradient0" gradientUnits="userSpaceOnUse" x1="-64" y1="-64" x2="64" y2="-64">
   <stop offset="0" stop-color="#474747"/>
   <stop offset="1" stop-color="#a0a0a0"/>
  </linearGradient>
  <path style="fill:url(#gradient0)"
        d="M56.24 29L58.37 31.5L37.24 54L34 51.5L56.24 29z"
  />
  <path style="fill:#000000; fill-opacity:0.4117"
        d="M34.24 61.37L38.24 61.24C38.24 61.24 43.72 56.45 48 51.37C50 49 52.56 48.55 53.62 47.37C55.75 45 53 45.49 55 43.25C57.57 40.34 60.74 35.87 60.74 35.87L57.87 33L58 36.5L34.24 61.37z"
        transform="matrix(0.9684,0,0,0.9684,2.9922,0.3526)"
  />
  <path style="fill:none; stroke:#010101; stroke-width:3"
        d="M23.61 17.74L57.87 30.61L57.74 36.87L35.11 61.5L-1.12 42.61L-1.25 37.37L9.24 26.87L13.5 28.5L23.61 17.74z"
        transform="matrix(0.9402,0,0,0.9447,3.4718,0.5206)"
  />
  <linearGradient id="gradient1" gradientUnits="userSpaceOnUse" x1="-64" y1="-64" x2="64" y2="-64">
   <stop offset="0" stop-color="#ffffff"/>
   <stop offset="1" stop-color="#d8d8d8"/>
  </linearGradient>
  <path style="fill:url(#gradient1)"
        d="M28.61 27L7.74 51.61L41 58.24L59.37 34.87L28.61 27z"
        transform="matrix(0.953,0.1824,-0.1547,1.1238,5.6766,-19.9813)"
  />
  <path style="fill:#010101; fill-opacity:0.4235"
        d="M30.74 40.24C30.74 40.24 36.74 41.5 39.87 41.5C43 41.5 46.5 41.11 46.5 41.11L50.74 36.74L53.61 34C53.61 34 52.61 32.5 50.37 31.61C47.87 30.64 47.64 31.08 46.74 27.5C46.11 25 40.37 23.87 40.37 23.87C40.37 23.87 44 26.74 44 34.74C44 35.5 43.37 31.5 42.87 36.5C42.75 37.61 40.99 39.33 40.37 39.5C38.5 39.99 30.74 40.24 30.74 40.24z"
  />
  <path style="fill:none; stroke:#010101; stroke-width:5"
        d="M25.5 22C25.5 22 26.87 18.37 28.61 16.61C30.43 14.8 32.36 13.77 35.11 13.5C37.61 13.24 38.91 14.18 40.11 15.11C41.24 16 42.1 17.49 42.37 18.24C43.24 20.74 42.87 21.61 42.87 21.61C42.87 21.61 40.87 21.5 45 21.5C46.5 21.5 46.7 21.83 47.87 22.37C49.01 22.9 53.61 25.61 54 26.11"
        transform="matrix(0.9684,0,0,0.9684,-0.0341,0.5947)"
  />
  <linearGradient id="gradient2" gradientUnits="userSpaceOnUse" x1="-3.5" y1="-87.58" x2="102.99" y2="-16.58">
   <stop offset="0.4784" stop-color="#dadada"/>
   <stop offset="0.5647" stop-color="#8e8e8e"/>
   <stop offset="0.796" stop-color="#292929"/>
   <stop offset="0.8392" stop-color="#010101"/>
  </linearGradient>
  <path style="fill:url(#gradient2)"
        d="M15.87 34.37C15.61 31.5 18.57 25.37 20.24 23.5C22.24 21.24 24.24 19.74 25.87 16.37C27.5 12.99 29.87 12.11 34.24 10.87C39.41 9.39 41.5 11.11 44.24 12.87C45.89 13.91 47.24 18.42 47.24 20.24C47.24 21.5 46.63 24.13 48.5 25C50.13 25.74 50.37 27.87 50.37 27.87C50.37 27.87 49.94 37.52 48.61 39C47.5 40.24 43.61 39.74 43.61 39.74L41.37 42.24C41.37 42.24 37.11 43.87 32.24 43.5C27.37 43.11 22 40.5 22 40.5C22 40.5 16.11 37.24 15.87 34.37z"
        transform="matrix(0.76,0,0,0.8248,6.0396,4.5404)"
  />
  <path style="fill:none; stroke:#000000; stroke-width:2"
        d="M45.5 32.11C45.5 32.11 46.11 32.61 46.11 33.24C46.11 33.87 45.87 35.24 45.87 35.24"
  />
  <linearGradient id="gradient3" gradientUnits="userSpaceOnUse" x1="-87.32" y1="-38.02" x2="37.15" y2="-67.81">
   <stop offset="0" stop-color="#ffffff"/>
   <stop offset="0.5607" stop-color="#f5f5f5"/>
   <stop offset="0.8352" stop-color="#d5d5d5"/>
   <stop offset="0.9882" stop-color="#848484"/>
  </linearGradient>
  <path style="fill:url(#gradient3)"
        d="M50.24 29.87C50.24 29.87 47.5 29.24 42.74 33C39.8 35.32 40.61 35.24 39.24 38.37C37.87 41.5 38.5 42.5 38.5 43.74C38.5 44.32 37.93 46.02 39.11 45.87C42 45.5 44.74 45.15 45.5 44.87C46.5 44.5 52.5 41.44 53 40C53.61 38.11 53.48 35.21 53.37 33.61C53.24 31.74 54.75 31.06 53.74 30.5C52 29.5 50.24 29.87 50.24 29.87z"
        transform="matrix(0.833,0,0,0.8248,1.0123,2.9938)"
  />
  <path style="fill:none; stroke:#292929; stroke-width:2"
        d="M50.87 28.74C51.27 29.66 50 31.11 49.74 31.37C49.5 31.61 48 31.66 46.24 31.87C44.11 32.11 40.5 31.74 35.61 26.5"
        transform="matrix(0.8135,-0.0836,0.0834,0.8124,6.5457,9.7412)"
  />
  <path style="fill:none; stroke:#000000; stroke-width:2"
        d="M50.37 29.37C50.37 29.37 48.87 30.11 48.24 28.87C47.61 27.61 49.37 27.74 49.87 27.74C50.37 27.74 51.5 28 52.5 27.61C53.17 27.36 54 25.61 53.37 24.61"
  />
  <linearGradient id="gradient4" gradientUnits="userSpaceOnUse" x1="-64" y1="-64" x2="64" y2="-64">
   <stop offset="0.6823" stop-color="#402a01"/>
   <stop offset="0.949" stop-color="#b47804"/>
  </linearGradient>
  <path style="fill:url(#gradient4)"
        d="M41.87 24.24C43.61 24.74 48.74 28.87 49.24 29.74C49.74 30.61 51.24 32.37 49.87 32.61C48.5 32.87 48 32.74 46.37 32.74C44.74 32.74 44.11 32.61 42.87 31.87C41.61 31.11 40.24 30.5 39.74 29.37C39.24 28.24 38.61 26.87 39.24 25.87C39.87 24.87 40.11 23.74 41.87 24.24z"
        transform="matrix(0.767,-0.0788,0.0762,0.7417,8.2219,10.1534)"
  />
  <linearGradient id="gradient5" gradientUnits="userSpaceOnUse" x1="150.55" y1="-26.6" x2="122.06" y2="76.99">
   <stop offset="0" stop-color="#ebde92"/>
   <stop offset="0.7019" stop-color="#e7ce44"/>
   <stop offset="0.7254" stop-color="#d7b705"/>
   <stop offset="0.8" stop-color="#d1b105"/>
  </linearGradient>
  <path style="fill:url(#gradient5)"
        d="M56.11 22C59.62 23.25 64.57 25.84 65.87 26.24C67.5 26.74 69 28.11 70 29.24C70.42 29.72 64.36 30.95 62.37 31.11C60.87 31.24 57.74 30.87 54.87 30.74C53.87 30.7 52.74 30.24 51.5 29.74C50.28 29.25 49.37 26.74 49.37 26.74C49.37 26.74 46.04 27.94 48.37 30.11C50.37 32 52.24 32.16 54.87 32.37C56.5 32.5 58.24 32.74 59.74 32.74C60.78 32.74 64.01 32.17 63.87 32.87C63.5 34.61 53.37 33.74 53.37 33.74L48 32.37C48 32.37 45 31 44.11 29.24C43.33 27.66 44.11 25.66 44.11 25.37C44.11 25.02 47.37 23.22 49 22.61C51 21.87 55.24 21.5 56.11 22z"
        transform="matrix(0.5456,-0.056,0.0844,0.8217,12.2971,6.1852)"
  />
  <path style="fill:#f5f5f5"
        d="M36.87 19.87C39.11 20.87 39 21.11 38.74 22C38.5 22.87 38.62 23.62 37.74 24.37C36.24 25.61 32.5 25.37 32.5 25.37C32.5 25.37 31.74 23.74 32.24 22.61C32.74 21.5 33.5 20.74 34.24 20.24"
        transform="matrix(0.9188,-0.0944,0.0934,0.9099,-0.4355,4.3042)"
  />
  <path style="fill:#000000"
        d="M32 16C23.15 16 16 23.15 16 32C16 40.83 23.15 48 32 48C40.83 48 48 40.83 48 32C48 23.15 40.83 16 32 16z"
        transform="matrix(0.1088,-0.0111,-0.0092,-0.0902,31.9589,24.8222)"
  />
  <linearGradient id="gradient6" gradientUnits="userSpaceOnUse" x1="19.7" y1="-105" x2="118.78" y2="-20.04">
   <stop offset="0.5764" stop-color="#ffe687"/>
   <stop offset="0.6352" stop-color="#ffcb00"/>
  </linearGradient>
  <path style="fill:url(#gradient6)"
        d="M9 27.74L13.11 29.5L3.11 39.5L5 43.37L1.5 40.24L-0.88 37.11L9 27.74z"
        transform="matrix(0.9083,0,0,0.9083,4.472,1.594)"
  />
  <linearGradient id="gradient7" gradientUnits="userSpaceOnUse" x1="-64" y1="-64" x2="64" y2="-64">
   <stop offset="0" stop-color="#fff9e3"/>
   <stop offset="0.8745" stop-color="#c7a003"/>
  </linearGradient>
  <path style="fill:url(#gradient7)"
        d="M3 35.24V39.87L7.11 42.37L7 38.11L3 35.24z"
        transform="matrix(0.9684,0,0,1.0192,0.1488,-0.7489)"
  />
  <linearGradient id="gradient8" gradientUnits="userSpaceOnUse" x1="-64" y1="128" x2="-64" y2="0">
   <stop offset="0" stop-color="#909090"/>
   <stop offset="1" stop-color="#d4d4d4"/>
  </linearGradient>
  <path style="fill:url(#gradient8)"
        d="M2.5 38.5L2.61 43.5L33.5 59.87V54.37L2.5 38.5z"
        transform="matrix(0.9347,0,0,0.9256,4.5912,1.9691)"
  />
  <linearGradient id="gradient9" gradientUnits="userSpaceOnUse" x1="-64" y1="-64" x2="64" y2="-64">
   <stop offset="0" stop-color="#474747"/>
   <stop offset="1" stop-color="#a0a0a0"/>
  </linearGradient>
  <path style="fill:url(#gradient9)"
        d="M33.37 54.5L33.5 60.37L56 36L55.87 30.61L33.37 54.5z"
        transform="matrix(0.9347,0,0,0.9256,4.5912,1.9691)"
  />
  <path style="fill:none; stroke:#010101; stroke-width:1"
        d="M25.11 19.11C25.11 19.11 25.45 21.32 25 22.24C24.5 23.25 23.06 24.28 22.61 25.37C21.74 27.5 19.68 31.01 19.24 32.24"
        transform="matrix(0.9684,0,0,0.9684,0.2079,0.3526)"
  />
  <linearGradient id="gradient10" gradientUnits="userSpaceOnUse" x1="-64" y1="-64" x2="64" y2="-64">
   <stop offset="0.6352" stop-color="#898989"/>
   <stop offset="0.749" stop-color="#cecece"/>
  </linearGradient>
  <path style="fill:none; stroke:url(#gradient10); stroke-width:1"
        d="M19.11 26.61C17.24 28.11 15.87 31.5 17.24 35.61C17.65 36.86 17.87 37.61 19 38.5C20.11 39.37 22.61 41.61 23.11 41.61C23.61 41.61 25.38 42.44 26.37 42.61C27.74 42.87 30.61 43.37 30.61 43.37"
        transform="matrix(0.9684,0,0,0.9684,0.4961,0.6105)"
  />
  <linearGradient id="gradient11" gradientUnits="userSpaceOnUse" x1="-64" y1="-64" x2="64" y2="-64">
   <stop offset="0.6392" stop-color="#f6f6f6"/>
   <stop offset="0.7372" stop-color="#e3e3e3"/>
  </linearGradient>
  <path style="fill:none; stroke:url(#gradient11); stroke-width:1"
        d="M19.11 26.61C17.24 28.11 15.87 31.5 17.24 35.61C17.65 36.86 17.87 37.61 19 38.5C20.11 39.37 22.61 41.61 23.11 41.61C23.61 41.61 25.39 42.39 26.37 42.61C28.5 43.11 28.24 42.74 28.24 42.74"
        transform="matrix(0.9684,0,0,0.9684,-0.7537,1.4855)"
  />
  <linearGradient id="gradient12" gradientUnits="userSpaceOnUse" x1="-64" y1="-64" x2="64" y2="-64">
   <stop offset="0.6352" stop-color="#a7a7a7"/>
   <stop offset="0.6901" stop-color="#cecece"/>
  </linearGradient>
  <path style="fill:none; stroke:url(#gradient12); stroke-width:1"
        d="M14.61 35.24C14.61 37.99 15 38.74 15.5 40C16.03 41.35 16.6 42.07 18.24 43.24C19.11 43.87 21.24 45.11 21.24 45.11"
        transform="matrix(0.9676,-0.0395,0.0395,0.9676,-2.318,-0.1826)"
  />
  <path style="fill:none; stroke:#ffffff; stroke-width:1"
        d="M14.61 35.24C14.61 37.99 15 38.74 15.5 40C16.03 41.35 16.6 42.07 18.24 43.24C19.11 43.87 21.24 45.11 21.24 45.11"
        transform="matrix(0.9684,0.0048,-0.0048,0.9684,-1.7777,-1.1659)"
  />
  <linearGradient id="gradient13" gradientUnits="userSpaceOnUse" x1="-64" y1="-64" x2="64" y2="-64">
   <stop offset="0.6392" stop-color="#e4e4e4"/>
   <stop offset="0.8666" stop-color="#ffffff"/>
  </linearGradient>
  <path style="fill:none; stroke:url(#gradient13); stroke-width:1"
        d="M28.87 47.24C30.5 47.61 31.5 47.61 33.11 47.61C34.12 47.61 35.74 47.5 36.87 47.24C38.77 46.82 41.41 45.31 42.74 44.5"
        transform="matrix(0.6558,0.2197,-0.2446,0.7814,20.665,0.7576)"
  />
  <linearGradient id="gradient14" gradientUnits="userSpaceOnUse" x1="-64" y1="-64" x2="64" y2="-64">
   <stop offset="0.6745" stop-color="#d9d9d9"/>
   <stop offset="0.945" stop-color="#919191"/>
  </linearGradient>
  <path style="fill:none; stroke:url(#gradient14); stroke-width:1"
        d="M28.87 47.24C30.5 47.61 31.5 47.61 33.11 47.61C34.12 47.61 35.74 47.5 36.87 47.24C38.77 46.82 41.41 45.31 42.74 44.5"
        transform="matrix(1.0855,0.3518,-0.2952,0.8998,4.3675,-8.6885)"
  />
  <path style="fill:#e5cc42; fill-opacity:0.2352"
        d="M43.87 21C45.11 21.61 46 22.37 44.5 23C43.56 23.38 41.87 23.61 40.87 23.74C38.54 24.03 39.37 25.18 39.37 26.37C39.37 27.87 39.86 27.73 39.24 28.24C38.5 28.87 37.5 28.61 37.5 28.61L37.87 25.74C37.87 25.74 38.37 24 39.37 23.11C40.37 22.24 40.82 22.33 41.61 21.37C42.24 20.61 42.37 20.11 42.37 20.11C42.37 20.11 43.15 20.63 43.87 21z"
        transform="matrix(0.942,0,0,0.942,2.627,1.6666)"
  />
  <linearGradient id="gradient15" gradientUnits="userSpaceOnUse" x1="-64" y1="-64" x2="64" y2="-64">
   <stop offset="0.7137" stop-color="#cccccc"/>
   <stop offset="0.8117" stop-color="#f4f4f4"/>
  </linearGradient>
  <path style="fill:none; stroke:url(#gradient15); stroke-width:1"
        d="M32.37 43C33.22 43.04 36.61 42.87 38 42.87C39.12 42.87 39.11 42.87 41 42.61C42.44 42.43 43.21 42.2 43.74 41.87"
        transform="matrix(1,0,0,1,0,-0.6274)"
  />
  <linearGradient id="gradient16" gradientUnits="userSpaceOnUse" x1="-69.87" y1="-64" x2="58.12" y2="-64">
   <stop offset="0.7411" stop-color="#eeeeee"/>
   <stop offset="0.9137" stop-color="#919191"/>
   <stop offset="1" stop-color="#010101"/>
  </linearGradient>
  <path style="fill:none; stroke:url(#gradient16); stroke-width:1"
        d="M32.24 43.61C33.1 43.66 36.37 43.61 37.61 43.61C38.74 43.61 40.18 43.51 41.74 43C42.87 42.61 43.87 42.37 45.24 41.37C47.62 39.63 46.74 40 46.74 40C46.74 40 48.49 38.02 48.61 36.74C48.74 35.5 48.87 33.24 48.87 32.37"
        transform="matrix(1,0,0,1,0,-0.1274)"
  />
 </g>
</svg>
