<?xml version="1.0" encoding="UTF-8" standalone="yes"?>
<svg version="1.1" width="64" height="64" color-interpolation="linearRGB"
     xmlns:svg="http://www.w3.org/2000/svg" xmlns="http://www.w3.org/2000/svg">
 <g>
  <path style="fill:#010101; fill-opacity:0.4941"
        d="M32 10C48 12 60 20 60 32C60 44 48 52 32 54C52 54 64 44 64 32C64 20 52 10 32 10z"
  />
  <path style="fill:none; stroke:#000000; stroke-width:4"
        d="M5.12 21.5C4.5 22.25 4.94 22.58 4.62 23.25C3.5 25.62 2 28.75 2 32C2 44 16 52 31 52C45.53 52 60 43.87 60 32.37C60 20.66 47.35 12.98 34.24 12.19C33.49 12.14 32.37 12 30 12C29.24 12 20 13 19 14C17.92 15.07 17 12 14.5 12C13 12 13.5 13.87 10.25 14C9.55 14.02 11.87 15.5 11.87 15.5C12.37 15.5 13.5 13.5 15 14.12C16.39 14.7 15.37 17.5 16.12 16.75C16.88 15.99 14.12 19.37 16.75 19.37C17.55 19.37 20.25 20.5 21.12 22.75C21.45 23.59 20.19 23.17 19.75 23.25C19 23.37 20.62 25.87 20.62 25.87L19.5 28.5C19.5 28.5 16.95 29.58 15.37 29.37C12.5 29 15.37 25.75 13.5 25.62C12.6 25.56 11.45 25.19 10.5 24.87C9.37 24.5 9.9 24.23 9.25 23.25C8.75 22.5 10.19 22.06 9.62 21.5C9.25 21.12 7.67 23.46 6.87 23.37C5.75 23.25 5.3 21.28 5.12 21.5z
           M31 26C29.8 25.96 27.75 26.29 27 26.37C25.87 26.5 25.37 23 24.87 23.25C23.6 23.88 21.86 24.63 21.5 24.87C20.75 25.37 18.75 27 19.37 28.12C19.8 28.9 23.75 27.87 23.75 30.25C23.75 32.26 27.12 34 31 34C35 34 37 32 37 30C37 28 35 26.12 31 26z"
  />
  <linearGradient id="gradient0" gradientUnits="userSpaceOnUse" x1="4.64" y1="67.69" x2="-3.64" y2="3.2">
   <stop offset="0" stop-color="#f1f1f1"/>
   <stop offset="0.2121" stop-color="#d9ddf4"/>
   <stop offset="0.5416" stop-color="#9996b9"/>
   <stop offset="0.7083" stop-color="#b8bedb"/>
   <stop offset="1" stop-color="#f4f4f4"/>
  </linearGradient>
  <path style="fill:url(#gradient0)"
        d="M5.12 21.5C4.5 22.25 4.94 22.58 4.62 23.25C3.5 25.62 2 28.75 2 32C2 44 16 52 31 52C45.53 52 60 43.87 60 32.37C60 20.66 47.35 12.98 34.24 12.19C33.49 12.14 32.37 12 30 12C29.24 12 20 13 19 14C17.92 15.07 17 12 14.5 12C13 12 13.5 13.87 10.25 14C9.55 14.02 11.87 15.5 11.87 15.5C12.37 15.5 13.5 13.5 15 14.12C16.39 14.7 15.37 17.5 16.12 16.75C16.88 15.99 14.12 19.37 16.75 19.37C17.55 19.37 20.25 20.5 21.12 22.75C21.45 23.59 20.19 23.17 19.75 23.25C19 23.37 20.62 25.87 20.62 25.87L19.5 28.5C19.5 28.5 16.95 29.58 15.37 29.37C12.5 29 15.37 25.75 13.5 25.62C12.6 25.56 11.45 25.19 10.5 24.87C9.37 24.5 9.9 24.23 9.25 23.25C8.75 22.5 10.19 22.06 9.62 21.5C9.25 21.12 7.67 23.46 6.87 23.37C5.75 23.25 5.3 21.28 5.12 21.5z
           M22.25 25L23.87 23.62L30.87 22.87C38.12 22.98 42.75 27.37 42.75 30.37C42.75 34.25 38.18 38 31 38C23 38 19 34 19 30C19 29.28 19.74 27.33 20 26.5"
  />
  <path style="fill:#ebebeb; fill-opacity:0.8156"
        d="M22.25 25L23.87 23.62L30.87 22.87C38.12 22.98 42.75 27.37 42.75 30.37C42.75 34.25 38.18 38 31 38C23 38 19 34 19 30C19 29.28 19.74 27.33 20 26.5
           M31 26C29.8 25.96 27.75 26.29 27 26.37C25.87 26.5 25.37 23 24.87 23.25C23.6 23.88 21.86 24.63 21.5 24.87C20.75 25.37 18.75 27 19.37 28.12C19.8 28.9 23.75 27.87 23.75 30.25C23.75 32.26 27.12 34 31 34C35 34 37 32 37 30C37 28 35 26.12 31 26z"
  />
  <linearGradient id="gradient1" gradientUnits="userSpaceOnUse" x1="6.84" y1="-3.55" x2="48.02" y2="6.68">
   <stop offset="0" stop-color="#4137a9"/>
   <stop offset="1" stop-color="#b9b9b9"/>
  </linearGradient>
  <path style="fill:none; stroke:url(#gradient1); stroke-width:2"
        d="M22.25 25L23.87 23.62L30.87 22.87C38.12 22.98 42.75 27.37 42.75 30.37C42.75 34.25 38.18 38 31 38C23 38 19 34 19 30C19 29.28 19.74 27.33 20 26.5"
  />
  <path style="fill:none; stroke:#000000; stroke-width:2"
        d="M25.75 20.75C25.75 20.75 26.25 21.75 26.37 22.75C26.65 24.98 25.37 25.37 25.37 25.37L27.87 24.62"
        transform="matrix(-0.1948,-0.3351,0.5899,-0.2256,11.4616,39.6845)"
  />
  <path style="fill:#000000"
        d="M16 16V48H48V16H16z"
        transform="matrix(0.0312,0,0,0.0312,22.5,24.5)"
  />
  <path style="fill:#a3a3a3"
        d="M16 16V48H48V16H16z"
        transform="matrix(0.0312,0,0,0.0312,8.5,20.5)"
  />
  <path style="fill:#a3a3a3"
        d="M16 16V48H48V16H16z"
        transform="matrix(0.0312,0,0,0.0624,4.5,20)"
  />
  <path style="fill:#a3a3a3"
        d="M16 16V48H48V16H16z"
        transform="matrix(0.0312,0,0,0.0312,12.5,24.5)"
  />
  <path style="fill:#c9c9c9"
        d="M16 16V48H48V16H16z"
        transform="matrix(0.0312,0,0,0.0312,9.5,13.5)"
  />
  <path style="fill:#a3a3a3"
        d="M16 16V48H48V16H16z"
        transform="matrix(0.0312,0,0,0.0312,14.5,17.5)"
  />
  <path style="fill:#838383"
        d="M16 16V48H48V16H16z"
        transform="matrix(0.0312,0,0,0.0312,19.5,25.4999)"
  />
  <linearGradient id="gradient2" gradientUnits="userSpaceOnUse" x1="-37.73" y1="-89.32" x2="93.76" y2="-37.58">
   <stop offset="0.515" stop-color="#c6c6c6"/>
   <stop offset="0.5641" stop-color="#9e9dbf"/>
   <stop offset="0.6196" stop-color="#a0a5c0"/>
   <stop offset="0.7036" stop-color="#f1f3ff"/>
  </linearGradient>
  <path style="fill:url(#gradient2)"
        d="M16.87 13.5C16.87 13.5 17.28 13.68 18.37 13.37C19.25 13.12 19.91 12.45 20.25 13.12C20.37 13.37 21.14 13.13 22.12 14.5C22.75 15.37 22.5 16.62 22 17.62C21.5 18.62 21.58 19.18 21.87 19.62C22.37 20.37 23.62 20.75 23.37 21.25C23.12 21.75 22.5 21.62 21.75 22.12C21 22.62 21.5 21.5 20.75 21C20 20.5 19.12 19.87 18.75 19.75C18.37 19.62 18.5 19 17.37 18.75C16.25 18.5 16.25 17.62 16.5 17.12C16.75 16.62 16.37 16 16.37 15.5C16.37 15 16 14.25 15.37 13.87C14.75 13.5 13.75 13.12 13.5 13.75C13.25 14.37 12.12 15.25 12 15C11.87 14.75 11.37 14.12 11.12 13.87C10.87 13.62 11.37 13.37 12 13.12C12.62 12.87 14 12 14.62 12.12C15.25 12.25 16.5 12.37 16.62 12.37C16.75 12.37 16.87 13.5 16.87 13.5z"
  />
  <linearGradient id="gradient3" gradientUnits="userSpaceOnUse" x1="-85.41" y1="23.7" x2="-21.54" y2="-53.68">
   <stop offset="0.3201" stop-color="#9e9dbf"/>
   <stop offset="0.8462" stop-color="#d9ddf4"/>
  </linearGradient>
  <path style="fill:url(#gradient3)"
        d="M5.75 21.25C5.75 21.25 5.62 23.12 6 23.25C6.37 23.37 7.5 23.37 7.75 23.12C8 22.87 9.12 21.75 9.12 21.75C9.12 21.75 9.58 21.36 9.75 23C9.87 24.25 10.12 25.12 10.37 25.25C10.62 25.37 11.87 25.37 12.25 25.37C12.62 25.37 13.75 26 13.75 26C13.75 26 13.5 26.12 13.37 27.25C13.25 28.37 14.12 28.62 14.12 28.62L16 29.62C16 29.62 16.37 29.87 14.87 29.62C13.37 29.37 10.86 28.69 11 27.75C11.25 26 9.25 25.25 8.25 25.12C7.22 24.99 6.12 24.37 6.12 24.37L4.37 26.87L3.75 25.25L5.75 21.25z"
  />
  <path style="fill:#9a96b6"
        d="M16 16V48H48V16H16z"
        transform="matrix(0.0312,0,0,0.0312,23.5,23.5)"
  />
 </g>
</svg>
