<?xml version="1.0" encoding="UTF-8" standalone="yes"?>
<svg version="1.1" width="64" height="64" color-interpolation="linearRGB"
     xmlns:svg="http://www.w3.org/2000/svg" xmlns="http://www.w3.org/2000/svg">
 <g>
  <path style="fill:#010101; fill-opacity:0.4235"
        d="M18 62H25L33 54L46 62H53L64.62 49.12L56.87 45L30 49L18 62z"
        transform="matrix(1,0,0,1.0312,0,-1.4375)"
  />
  <path style="fill:none; stroke:#000000; stroke-width:4"
        d="M2 34V52L18 60L30 49V32L14 26L2 34z"
  />
  <linearGradient id="gradient0" gradientUnits="userSpaceOnUse" x1="-25.79" y1="20.62" x2="10.43" y2="5.03">
   <stop offset="0.3843" stop-color="#ce0000"/>
   <stop offset="1" stop-color="#a20000"/>
  </linearGradient>
  <path style="fill:url(#gradient0)"
        d="M2 34V52L18 60V41L2 34z"
  />
  <linearGradient id="gradient1" gradientUnits="userSpaceOnUse" x1="-64" y1="-64" x2="64" y2="-64">
   <stop offset="0" stop-color="#cd0505"/>
   <stop offset="0.8494" stop-color="#870303"/>
  </linearGradient>
  <path style="fill:url(#gradient1)"
        d="M18 41V60L30 49V32L18 41z"
  />
  <path style="fill:#640000"
        d="M24 34L28 45L28.06 35.37L24 34z"
        transform="matrix(1,0,0,1,0,1)"
  />
  <linearGradient id="gradient2" gradientUnits="userSpaceOnUse" x1="12.94" y1="-1.93" x2="52.06" y2="14.45">
   <stop offset="0" stop-color="#ff0000"/>
   <stop offset="1" stop-color="#a20000"/>
  </linearGradient>
  <path style="fill:url(#gradient2)"
        d="M2 34L18 41L30 32L14 26L2 34z"
  />
  <path style="fill:none; stroke:#000000; stroke-width:4"
        d="M30 34V52L46 60L58 48V31L42 25L30 34z"
  />
  <linearGradient id="gradient3" gradientUnits="userSpaceOnUse" x1="-64" y1="-64" x2="64" y2="-64">
   <stop offset="0" stop-color="#ffcb00"/>
   <stop offset="1" stop-color="#ffcb00"/>
  </linearGradient>
  <path style="fill:url(#gradient3)"
        d="M33 49L33.99 53.99L46 60V41L38.87 37.62L33 49z"
  />
  <path style="fill:#a2a200"
        d="M30 34V52L33.99 53.99L33 49L40.5 37.5L30 34z"
  />
  <linearGradient id="gradient4" gradientUnits="userSpaceOnUse" x1="71.36" y1="-3.35" x2="104.04" y2="22.42">
   <stop offset="0" stop-color="#cece00"/>
   <stop offset="0.7058" stop-color="#a2a200"/>
  </linearGradient>
  <path style="fill:url(#gradient4)"
        d="M46 41V60L58 48V30L46 41z"
  />
  <path style="fill:#ffcb00"
        d="M49.62 28.25L38.37 38L46 41L58 31L49.62 28.25z"
  />
  <linearGradient id="gradient5" gradientUnits="userSpaceOnUse" x1="143.84" y1="41.93" x2="91.24" y2="108.1">
   <stop offset="0.2862" stop-color="#a2a200"/>
   <stop offset="1" stop-color="#c8c800"/>
  </linearGradient>
  <path style="fill:url(#gradient5)"
        d="M30 34L39.75 38.75L51.12 28.37L39.87 24.25L30 34z"
  />
  <path style="fill:#0000ff"
        d="M16 12L32 18L44 10L28 5L16 12z"
  />
  <linearGradient id="gradient6" gradientUnits="userSpaceOnUse" x1="-64" y1="-64" x2="64" y2="-64">
   <stop offset="0.5573" stop-color="#ffffff" stop-opacity="0.0745"/>
   <stop offset="1" stop-color="#c6c6c6" stop-opacity="0"/>
  </linearGradient>
  <path style="fill:url(#gradient6)"
        d="M16 12L32 18L44 10L28 5L16 12z"
  />
  <path style="fill:#0000ce"
        d="M16 12V30L32 37V18L16 12z"
  />
  <linearGradient id="gradient7" gradientUnits="userSpaceOnUse" x1="-64" y1="-64" x2="64" y2="-64">
   <stop offset="0.1247" stop-color="#ffffff" stop-opacity="0.0627"/>
   <stop offset="1" stop-color="#c6c6c6" stop-opacity="0"/>
  </linearGradient>
  <path style="fill:url(#gradient7)"
        d="M16 12V30L32 37V18L16 12z"
  />
  <path style="fill:#000084"
        d="M32 18V37L44 28V10L32 18z"
        transform="matrix(1,0,0,0.8101,0,4.0231)"
  />
  <path style="fill:#000084"
        d="M32 18V37L44 28V10L32 18z"
        transform="matrix(1.0208,0,0,1.037,-0.6666,-1.3703)"
  />
  <linearGradient id="gradient8" gradientUnits="userSpaceOnUse" x1="-64" y1="-64" x2="64" y2="-64">
   <stop offset="0.0092" stop-color="#c6c6c6" stop-opacity="0.0745"/>
   <stop offset="1" stop-color="#ffffff" stop-opacity="0"/>
  </linearGradient>
  <path style="fill:url(#gradient8)"
        d="M32 18V37L44 28V10L32 18z"
        transform="matrix(1.0208,0,0,1.037,-0.6666,-1.3703)"
  />
  <path style="fill:#ff00ff"
        d="M16 16V48H48V16H16z"
        transform="matrix(0,-0.0627,0.0627,0,24.0541,9.0708)"
  />
  <path style="fill:#ff00ff"
        d="M16 16V48H48V16H16z"
        transform="matrix(0,-0.0236,0.0276,0,17.7416,12.1958)"
  />
  <path style="fill:#ff00ff"
        d="M16 16V48H48V16H16z"
        transform="matrix(0,-0.0627,0.0627,0,22.0541,35.0458)"
  />
  <path style="fill:#9c009c"
        d="M16 16V48H48V16H16z"
        transform="matrix(0,-0.0627,0.0627,0,31.9291,37.1875)"
  />
  <path style="fill:#9c009c"
        d="M16 16V48H48V16H16z"
        transform="matrix(0,-0.0549,0.0627,0,33.9291,34.7958)"
  />
  <path style="fill:#ff00ff"
        d="M16 16V48H48V16H16z"
        transform="matrix(0,-0.0315,0.0354,0,32.3666,8.5708)"
  />
  <path style="fill:#ff00ff"
        d="M16 16V48H48V16H16z"
        transform="matrix(0,-0.0549,0.0627,0,37.9291,10.8208)"
  />
  <path style="fill:#ce00ce"
        d="M16 16V48H48V16H16z"
        transform="matrix(0,-0.0627,0.0627,0,28.0541,29.0291)"
  />
  <path style="fill:#ce00ce"
        d="M16 16V48H48V16H16z"
        transform="matrix(0,-0.0627,0.0627,0,28.0541,25.0125)"
  />
  <path style="fill:#ce00ce"
        d="M16 16V48H48V16H16z"
        transform="matrix(0,-0.0627,0.0627,0,28.0541,20.9958)"
  />
  <path style="fill:#ff00ff"
        d="M16 16V48H48V16H16z"
        transform="matrix(0,-0.0627,0.0627,0,28.0541,16.9791)"
  />
  <path style="fill:#ff00ff"
        d="M16 16V48H48V16H16z"
        transform="matrix(0,-0.0627,0.0627,0,28.0541,12.9625)"
  />
  <path style="fill:#ff00ff"
        d="M16 16V48H48V16H16z"
        transform="matrix(0,-0.0627,0.0627,0,28.0541,8.9458)"
  />
  <path style="fill:#ce00ce"
        d="M16 16V48H48V16H16z"
        transform="matrix(0,-0.0627,0.0627,0,28.0541,37.0625)"
  />
  <path style="fill:#ce00ce"
        d="M16 16V48H48V16H16z"
        transform="matrix(0,-0.0627,0.0627,0,28.0541,33.0458)"
  />
  <path style="fill:#ce00ce"
        d="M16 16V48H48V16H16z"
        transform="matrix(0,-0.0627,0.0627,0,25.9291,27.0291)"
  />
  <path style="fill:#ce00ce"
        d="M16 16V48H48V16H16z"
        transform="matrix(0,-0.0627,0.0627,0,25.9291,23.0125)"
  />
  <path style="fill:#ff00ff"
        d="M16 16V48H48V16H16z"
        transform="matrix(0,-0.0627,0.0627,0,25.9291,14.9791)"
  />
  <path style="fill:#ff00ff"
        d="M16 16V48H48V16H16z"
        transform="matrix(0,-0.0627,0.0627,0,25.9291,10.9625)"
  />
  <path style="fill:#ce00ce"
        d="M16 16V48H48V16H16z"
        transform="matrix(0,-0.0627,0.0627,0,25.9291,35.0625)"
  />
  <path style="fill:#ce00ce"
        d="M16 16V48H48V16H16z"
        transform="matrix(0,-0.0627,0.0627,0,25.9291,31.0458)"
  />
  <path style="fill:#ce00ce"
        d="M16 16V48H48V16H16z"
        transform="matrix(0,-0.0627,0.0627,0,24.0541,29.1541)"
  />
  <path style="fill:#ce00ce"
        d="M16 16V48H48V16H16z"
        transform="matrix(0,-0.0627,0.0627,0,24.0541,25.1375)"
  />
  <path style="fill:#ce00ce"
        d="M16 16V48H48V16H16z"
        transform="matrix(0,-0.0627,0.0627,0,24.0541,21.1208)"
  />
  <path style="fill:#ff00ff"
        d="M16 16V48H48V16H16z"
        transform="matrix(0,-0.0627,0.0627,0,24.0541,17.1041)"
  />
  <path style="fill:#ff00ff"
        d="M16 16V48H48V16H16z"
        transform="matrix(0,-0.0627,0.0627,0,24.0541,13.0875)"
  />
  <path style="fill:#ce00ce"
        d="M16 16V48H48V16H16z"
        transform="matrix(0,-0.0627,0.0627,0,24.0541,33.1708)"
  />
  <path style="fill:#ce00ce"
        d="M16 16V48H48V16H16z"
        transform="matrix(0,-0.0627,0.0627,0,22.0541,31.0291)"
  />
  <path style="fill:#ce00ce"
        d="M16 16V48H48V16H16z"
        transform="matrix(0,-0.0627,0.0627,0,22.0541,27.0125)"
  />
  <path style="fill:#ce00ce"
        d="M16 16V48H48V16H16z"
        transform="matrix(0,-0.0627,0.0627,0,22.0541,22.9958)"
  />
  <path style="fill:#ce00ce"
        d="M16 16V48H48V16H16z"
        transform="matrix(0,-0.0627,0.0627,0,22.0541,18.9791)"
  />
  <path style="fill:#ff00ff"
        d="M16 16V48H48V16H16z"
        transform="matrix(0,-0.0627,0.0627,0,22.0541,14.9625)"
  />
  <path style="fill:#ff00ff"
        d="M16 16V48H48V16H16z"
        transform="matrix(0,-0.0627,0.0627,0,22.0541,10.9458)"
  />
  <path style="fill:#ce00ce"
        d="M16 16V48H48V16H16z"
        transform="matrix(0,-0.0627,0.0627,0,20.0541,33.1541)"
  />
  <path style="fill:#ce00ce"
        d="M16 16V48H48V16H16z"
        transform="matrix(0,-0.0627,0.0627,0,20.0541,29.1375)"
  />
  <path style="fill:#ce00ce"
        d="M16 16V48H48V16H16z"
        transform="matrix(0,-0.0627,0.0627,0,20.0541,25.1208)"
  />
  <path style="fill:#ce00ce"
        d="M16 16V48H48V16H16z"
        transform="matrix(0,-0.0627,0.0627,0,20.0541,21.1041)"
  />
  <path style="fill:#ce00ce"
        d="M16 16V48H48V16H16z"
        transform="matrix(0,-0.0627,0.0627,0,20.0541,17.0875)"
  />
  <path style="fill:#ff00ff"
        d="M16 16V48H48V16H16z"
        transform="matrix(0,-0.0627,0.0627,0,20.0541,13.0708)"
  />
  <path style="fill:#ce00ce"
        d="M16 16V48H48V16H16z"
        transform="matrix(0,-0.0627,0.0627,0,18.0541,31.0291)"
  />
  <path style="fill:#ce00ce"
        d="M16 16V48H48V16H16z"
        transform="matrix(0,-0.0627,0.0627,0,18.0541,27.0125)"
  />
  <path style="fill:#ce00ce"
        d="M16 16V48H48V16H16z"
        transform="matrix(0,-0.0627,0.0627,0,18.0541,22.9958)"
  />
  <path style="fill:#ce00ce"
        d="M16 16V48H48V16H16z"
        transform="matrix(0,-0.0627,0.0627,0,18.0541,18.9791)"
  />
  <path style="fill:#ff00ff"
        d="M16 16V48H48V16H16z"
        transform="matrix(0,-0.0315,0.0627,0,18.0541,13.4625)"
  />
  <path style="fill:#ce00ce"
        d="M16 16V48H48V16H16z"
        transform="matrix(0,-0.0627,0.0627,0,16.0541,29.0125)"
  />
  <path style="fill:#ce00ce"
        d="M16 16V48H48V16H16z"
        transform="matrix(0,-0.0627,0.0627,0,16.0541,24.9958)"
  />
  <path style="fill:#ce00ce"
        d="M16 16V48H48V16H16z"
        transform="matrix(0,-0.0627,0.0627,0,16.0541,20.9791)"
  />
  <path style="fill:#ce00ce"
        d="M16 16V48H48V16H16z"
        transform="matrix(0,-0.0627,0.0627,0,16.0541,16.9625)"
  />
  <path style="fill:#ce00ce"
        d="M16 16V48H48V16H16z"
        transform="matrix(0,-0.0627,0.0276,0,30.6166,27.0125)"
  />
  <path style="fill:#ff00ff"
        d="M16 16V48H48V16H16z"
        transform="matrix(0,-0.0627,0.0627,0,30.0541,18.9791)"
  />
  <path style="fill:#ff00ff"
        d="M16 16V48H48V16H16z"
        transform="matrix(0,-0.0627,0.0627,0,30.0541,14.9625)"
  />
  <path style="fill:#ff00ff"
        d="M16 16V48H48V16H16z"
        transform="matrix(0,-0.0627,0.0627,0,30.0541,10.9458)"
  />
  <path style="fill:#9c009c"
        d="M16 16V48H48V16H16z"
        transform="matrix(0,-0.0627,0.0627,0,31.9291,29.1541)"
  />
  <path style="fill:#9c009c"
        d="M16 16V48H48V16H16z"
        transform="matrix(0,-0.0627,0.0627,0,31.9291,25.1375)"
  />
  <path style="fill:#9c009c"
        d="M16 16V48H48V16H16z"
        transform="matrix(0,-0.0627,0.0627,0,31.9291,21.1208)"
  />
  <path style="fill:#ff00ff"
        d="M16 16V48H48V16H16z"
        transform="matrix(0,-0.0627,0.0627,0,31.9291,17.1041)"
  />
  <path style="fill:#ff00ff"
        d="M16 16V48H48V16H16z"
        transform="matrix(0,-0.0627,0.0627,0,31.9291,13.0875)"
  />
  <path style="fill:#9c009c"
        d="M16 16V48H48V16H16z"
        transform="matrix(0,-0.0627,0.0627,0,31.9291,33.1708)"
  />
  <path style="fill:#9c009c"
        d="M16 16V48H48V16H16z"
        transform="matrix(0,-0.0627,0.0627,0,33.9291,31.1541)"
  />
  <path style="fill:#9c009c"
        d="M16 16V48H48V16H16z"
        transform="matrix(0,-0.0627,0.0627,0,33.9291,27.1375)"
  />
  <path style="fill:#9c009c"
        d="M16 16V48H48V16H16z"
        transform="matrix(0,-0.0627,0.0627,0,33.9291,23.1208)"
  />
  <path style="fill:#9c009c"
        d="M16 16V48H48V16H16z"
        transform="matrix(0,-0.0627,0.0627,0,33.9291,19.1041)"
  />
  <path style="fill:#ff00ff"
        d="M16 16V48H48V16H16z"
        transform="matrix(0,-0.0627,0.0627,0,33.9291,15.0875)"
  />
  <path style="fill:#ff00ff"
        d="M16 16V48H48V16H16z"
        transform="matrix(0,-0.0627,0.0627,0,33.9291,11.0708)"
  />
  <path style="fill:#9c009c"
        d="M16 16V48H48V16H16z"
        transform="matrix(0,-0.0627,0.0627,0,36.0541,33.0291)"
  />
  <path style="fill:#9c009c"
        d="M16 16V48H48V16H16z"
        transform="matrix(0,-0.0627,0.0627,0,36.0541,29.0125)"
  />
  <path style="fill:#9c009c"
        d="M16 16V48H48V16H16z"
        transform="matrix(0,-0.0627,0.0627,0,36.0541,24.9958)"
  />
  <path style="fill:#9c009c"
        d="M16 16V48H48V16H16z"
        transform="matrix(0,-0.0627,0.0627,0,36.0541,20.9791)"
  />
  <path style="fill:#9c009c"
        d="M16 16V48H48V16H16z"
        transform="matrix(0,-0.0627,0.0627,0,36.0541,16.9625)"
  />
  <path style="fill:#ff00ff"
        d="M16 16V48H48V16H16z"
        transform="matrix(0,-0.0627,0.0627,0,36.0541,12.9458)"
  />
  <path style="fill:#9c009c"
        d="M16 16V48H48V16H16z"
        transform="matrix(0,-0.0627,0.0627,0,37.9291,31.0291)"
  />
  <path style="fill:#9c009c"
        d="M16 16V48H48V16H16z"
        transform="matrix(0,-0.0627,0.0627,0,37.9291,27.0125)"
  />
  <path style="fill:#9c009c"
        d="M16 16V48H48V16H16z"
        transform="matrix(0,-0.0627,0.0627,0,37.9291,22.9958)"
  />
  <path style="fill:#9c009c"
        d="M16 16V48H48V16H16z"
        transform="matrix(0,-0.0627,0.0627,0,37.9291,18.9791)"
  />
  <path style="fill:#9c009c"
        d="M16 16V48H48V16H16z"
        transform="matrix(0,-0.0627,0.0627,0,37.9291,14.9625)"
  />
  <path style="fill:#9c009c"
        d="M16 16V48H48V16H16z"
        transform="matrix(0,-0.0627,0.0627,0,39.9291,29.1375)"
  />
  <path style="fill:#9c009c"
        d="M16 16V48H48V16H16z"
        transform="matrix(0,-0.0627,0.0627,0,39.9291,25.1208)"
  />
  <path style="fill:#9c009c"
        d="M16 16V48H48V16H16z"
        transform="matrix(0,-0.0627,0.0627,0,39.9291,21.1041)"
  />
  <path style="fill:#9c009c"
        d="M16 16V48H48V16H16z"
        transform="matrix(0,-0.0627,0.0627,0,39.9291,17.0875)"
  />
  <path style="fill:#ff00ff"
        d="M16 16V48H48V16H16z"
        transform="matrix(0,-0.0315,0.0627,0,39.9291,11.5708)"
  />
  <path style="fill:none; stroke:#000000; stroke-width:2"
        d="M16 12V30L32 37L44 28V10L28 5L16 12z"
  />
  <path style="fill:#ce00ce"
        d="M16 16V48H48V16H16z"
        transform="matrix(0,-0.0627,0.0315,0,30.3958,23.1041)"
  />
  <path style="fill:#9c009c"
        d="M16 16V48H48V16H16z"
        transform="matrix(0,-0.0627,0.0315,0,31.5874,35.0291)"
  />
  <path style="fill:#9c009c"
        d="M16 16V48H48V16H16z"
        transform="matrix(0,-0.0627,0.0315,0,31.5874,31.0125)"
  />
  <path style="fill:#9c009c"
        d="M16 16V48H48V16H16z"
        transform="matrix(0,-0.0627,0.0315,0,31.5874,26.9958)"
  />
  <path style="fill:#9c009c"
        d="M16 16V48H48V16H16z"
        transform="matrix(0,-0.0627,0.0315,0,31.5874,22.9791)"
  />
  <path style="fill:#ce00ce"
        d="M16 16V48H48V16H16z"
        transform="matrix(0,-0.0627,0.0315,0,30.3958,35.1541)"
  />
  <path style="fill:#ce00ce"
        d="M16 16V48H48V16H16z"
        transform="matrix(0,-0.0627,0.0315,0,30.3958,31.1375)"
  />
  <path style="fill:#ce00ce"
        d="M16 16V48H48V16H16z"
        transform="matrix(0.0627,0,0,0.0354,17.9708,12.2999)"
  />
  <path style="fill:#9c009c"
        d="M16 16V48H48V16H16z"
        transform="matrix(0.0705,0,0,0.0315,39.5958,10.4875)"
  />
  <path style="fill:#ce00ce"
        d="M16 16V48H48V16H16z"
        transform="matrix(0.0627,0,0,0.0627,25.9958,14.9874)"
  />
  <path style="fill:#000000"
        d="M28.06 35.12V37H29.93V35.12H28.06z"
        transform="matrix(0.5333,0,0,0.4,13.9708,22.2)"
  />
  <path style="fill:#000000"
        d="M16 16V48H48V16H16z"
        transform="matrix(0.0312,0,0,0.0312,56.5,29.5)"
  />
 </g>
</svg>
