<?xml version="1.0" encoding="UTF-8" standalone="yes"?>
<svg version="1.1" width="64" height="64" color-interpolation="linearRGB"
     xmlns:svg="http://www.w3.org/2000/svg" xmlns="http://www.w3.org/2000/svg">
 <g>
  <path style="fill:#010101; fill-opacity:0.4196"
        d="M40 64H52L64 50L57.99 46.99L60 45L50 40L40 64z"
  />
  <path style="fill:none; stroke:#010000; stroke-width:4"
        d="M24 6L29 3L46 8V14"
  />
  <linearGradient id="gradient0" gradientUnits="userSpaceOnUse" x1="122.91" y1="-32.33" x2="131.68" y2="-5.43">
   <stop offset="0.0039" stop-color="#ececec"/>
   <stop offset="1" stop-color="#c3c3c3"/>
  </linearGradient>
  <path style="fill:url(#gradient0)"
        d="M24 6L29 3L46 8L41 12L24 6z"
  />
  <path style="fill:#4b4b4b"
        d="M41 12L46 8V14L41 12z"
  />
  <path style="fill:none; stroke:#010000; stroke-width:4"
        d="M2 8V42L40 62L50 50V16L12 2L2 8z"
  />
  <linearGradient id="gradient1" gradientUnits="userSpaceOnUse" x1="13.84" y1="-38.14" x2="58.34" y2="-27.7">
   <stop offset="0" stop-color="#ffffff"/>
   <stop offset="1" stop-color="#d3d3d3"/>
  </linearGradient>
  <path style="fill:url(#gradient1)"
        d="M2 8L40 24L50 16L12 2L2 8z"
  />
  <linearGradient id="gradient2" gradientUnits="userSpaceOnUse" x1="40.61" y1="-4.9" x2="77.77" y2="1.75">
   <stop offset="0" stop-color="#474747"/>
   <stop offset="1" stop-color="#a0a0a0"/>
  </linearGradient>
  <path style="fill:url(#gradient2)"
        d="M40 24V62L50 50V16L40 24z"
  />
  <linearGradient id="gradient3" gradientUnits="userSpaceOnUse" x1="11.3" y1="82.69" x2="-25.59" y2="46.62">
   <stop offset="0" stop-color="#909090"/>
   <stop offset="1" stop-color="#d4d4d4"/>
  </linearGradient>
  <path style="fill:url(#gradient3)"
        d="M2 8V42L40 62V24L2 8z
           M37 26V55L4 38V12L37 26z"
  />
  <linearGradient id="gradient4" gradientUnits="userSpaceOnUse" x1="6.95" y1="-50.95" x2="76.9" y2="-40.97">
   <stop offset="0" stop-color="#1d1e2c"/>
   <stop offset="0.2392" stop-color="#454658"/>
   <stop offset="1" stop-color="#010101"/>
  </linearGradient>
  <path style="fill:url(#gradient4)"
        d="M37 26V52L6 36L6.04 12.86L37 26z"
  />
  <linearGradient id="gradient5" gradientUnits="userSpaceOnUse" x1="63.81" y1="3.47" x2="73.7" y2="31.53">
   <stop offset="0" stop-color="#242222"/>
   <stop offset="1" stop-color="#9a9a9a"/>
  </linearGradient>
  <path style="fill:url(#gradient5)"
        d="M5.97 36.01L4 38V12L6.04 12.86L5.97 36.01z"
  />
  <linearGradient id="gradient6" gradientUnits="userSpaceOnUse" x1="0.69" y1="-5.52" x2="39.3" y2="-5.52">
   <stop offset="0" stop-color="#d4cece"/>
   <stop offset="0.345" stop-color="#f3f3f3"/>
   <stop offset="1" stop-color="#d9d9d9"/>
  </linearGradient>
  <path style="fill:url(#gradient6)"
        d="M37 52V55L4 38L6 36L37 52z"
  />
  <path style="fill:none; stroke:#8dff06; stroke-width:2; stroke-linecap:round"
        d="M34 56L35 56.5"
  />
  <path style="fill:#ffffff"
        d="
           M37 26V52L6 36L6.04 12.86L37 26z"
  />
  <path style="fill:none; stroke:#ff0505; stroke-width:2"
        d="M32 27C40 28 50 28 46 24C44 22 39 26 35 30C30 35 26 43 30 43C35 43 30 34 27 29C24.42 24.71 21 20 19 21C13.78 23.6 24 26 32 27z"
        transform="matrix(0.4223,-0.4963,0.5453,0.464,-7.4437,34.9013)"
  />
  <path style="fill:#010101"
        d="M10.37 17.5L7.62 20.25L10.37 23.25L13.37 20.37L10.37 17.5z"
        transform="matrix(0.413,0,0,0.326,11.1005,19.2934)"
  />
  <path style="fill:#010101"
        d="M10.37 17.5L7.62 20.25L10.37 23.25L13.37 20.37L10.37 17.5z"
        transform="matrix(0.3695,0,0,0.3913,16.432,15.5271)"
  />
  <path style="fill:#010101"
        d="M10.37 17.5L7.62 20.25L10.37 23.25L13.37 20.37L10.37 17.5z"
        transform="matrix(0.3913,0,0,0.413,26.1413,20.2717)"
  />
  <path style="fill:#010101"
        d="M10.37 17.5L7.62 20.25L10.37 23.25L13.37 20.37L10.37 17.5z"
        transform="matrix(0.3913,0,0,0.413,26.8912,25.8967)"
  />
  <path style="fill:#010101"
        d="M10.37 17.5L7.62 20.25L10.37 23.25L13.37 20.37L10.37 17.5z"
        transform="matrix(0.4782,0,0,0.3478,11.6032,32.788)"
  />
  <path style="fill:#010101"
        d="M10.37 17.5L7.62 20.25L10.37 23.25L13.37 20.37L10.37 17.5z"
        transform="matrix(0.413,0,0,0.326,18.3505,34.2934)"
  />
  <path style="fill:#010101"
        d="M10.37 17.5L7.62 20.25L10.37 23.25L13.37 20.37L10.37 17.5z"
        transform="matrix(0.3695,0,0,0.3913,8.807,22.5271)"
  />
 </g>
</svg>
