<?xml version="1.0" encoding="UTF-8" standalone="yes"?>
<svg version="1.1" width="64" height="64" color-interpolation="linearRGB"
     xmlns:svg="http://www.w3.org/2000/svg" xmlns="http://www.w3.org/2000/svg">
 <g>
  <path style="fill:#000000; fill-opacity:0.4156"
        d="M60 34L31.37 64.12H38.25L55.87 46H63.75L62 35L60 34z"
        transform="matrix(0.999,-0.0441,0.0441,0.999,-2.3857,1.4358)"
  />
  <path style="fill:none; stroke:#000000; stroke-width:4"
        d="M53 10C53 10 46.89 7.91 45.5 7.62C43.81 7.27 41.85 4.12 38.62 3.5C34.75 2.75 33.75 3.87 31.62 3.87C30.04 3.87 23 2 23 2L22.12 3.12L30.25 23.25L2.5 41.25L2.37 46.62L32 62L57.87 37.37L58 32L59 31L53 10z"
        transform="matrix(0.999,-0.0441,0.0441,0.999,-2.3857,1.4358)"
  />
  <linearGradient id="gradient0" gradientUnits="userSpaceOnUse" x1="-2" y1="-64" x2="38" y2="-64">
   <stop offset="0" stop-color="#ffffff"/>
   <stop offset="1" stop-color="#d3d3d3"/>
  </linearGradient>
  <path style="fill:url(#gradient0)"
        d="M29.37 23.75L58 32L32 54.75L2.5 41.5L29.37 23.75z"
        transform="matrix(0.999,-0.0441,0.0441,0.999,-2.3857,1.4358)"
  />
  <linearGradient id="gradient1" gradientUnits="userSpaceOnUse" x1="-64" y1="-64" x2="64" y2="-64">
   <stop offset="0" stop-color="#ffffff"/>
   <stop offset="1" stop-color="#c0c0c0"/>
  </linearGradient>
  <path style="fill:url(#gradient1)"
        d="M31.62 26.75L55.5 34.5L58 32.5L29.5 24.12L31.62 26.75z"
        transform="matrix(0.999,-0.0441,0.0441,0.999,-2.3857,1.4358)"
  />
  <linearGradient id="gradient2" gradientUnits="userSpaceOnUse" x1="-64" y1="-64" x2="64" y2="-64">
   <stop offset="0" stop-color="#010101"/>
   <stop offset="1" stop-color="#b8b8b8"/>
  </linearGradient>
  <path style="fill:none; stroke:url(#gradient2); stroke-width:2"
        d="M29.62 28L48.25 33.62"
        transform="matrix(0.999,-0.0441,0.0441,0.999,-2.3857,1.4358)"
  />
  <linearGradient id="gradient3" gradientUnits="userSpaceOnUse" x1="27.24" y1="52.84" x2="45.51" y2="-0.89">
   <stop offset="0" stop-color="#bdd0da"/>
   <stop offset="0.1539" stop-color="#abcbda"/>
   <stop offset="0.41" stop-color="#91cae9"/>
   <stop offset="0.5047" stop-color="#ffffff"/>
   <stop offset="0.6544" stop-color="#a3ddfb"/>
   <stop offset="0.9115" stop-color="#859eaa"/>
  </linearGradient>
  <path style="fill:url(#gradient3)"
        d="M29.37 23.75L58 32L32 54.75L2.5 41.5L29.37 23.75z"
        transform="matrix(0.6707,-0.0296,0.0296,0.6707,8.1872,12.8799)"
  />
  <linearGradient id="gradient4" gradientUnits="userSpaceOnUse" x1="-102.34" y1="22.29" x2="-21.21" y2="-46.58">
   <stop offset="0.5247" stop-color="#686868"/>
   <stop offset="0.8985" stop-color="#b1b1b1"/>
  </linearGradient>
  <path style="fill:none; stroke:url(#gradient4); stroke-width:2"
        d="M29.37 23.75L2 42"
        transform="matrix(0.6707,-0.0296,0.0296,0.6707,8.1872,12.8799)"
  />
  <linearGradient id="gradient5" gradientUnits="userSpaceOnUse" x1="-14.12" y1="-85" x2="90.12" y2="-85">
   <stop offset="0.066" stop-color="#474747"/>
   <stop offset="1" stop-color="#a5a5a5"/>
  </linearGradient>
  <path style="fill:url(#gradient5)"
        d="M32.12 62.25L57.62 37.5L58 32L32 54.62L32.12 62.25z"
        transform="matrix(0.999,-0.0441,0.0441,0.999,-2.3857,1.4358)"
  />
  <linearGradient id="gradient6" gradientUnits="userSpaceOnUse" x1="31.34" y1="-41.19" x2="106.68" y2="-9.68">
   <stop offset="0.3608" stop-color="#6b6b6b"/>
   <stop offset="0.996" stop-color="#bfbfbf"/>
  </linearGradient>
  <path style="fill:url(#gradient6)"
        d="M53 10L52 11L58 32L59 31L53 10z"
        transform="matrix(0.999,-0.0441,0.0441,0.999,-2.3857,1.4358)"
  />
  <linearGradient id="gradient7" gradientUnits="userSpaceOnUse" x1="22.25" y1="15.34" x2="50" y2="34.36">
   <stop offset="0" stop-color="#d4d4d4"/>
   <stop offset="1" stop-color="#a6a6a6"/>
  </linearGradient>
  <path style="fill:url(#gradient7)"
        d="M22 3C22 3 28.46 4.69 30.62 5.25C31.13 5.38 34.5 4.47 36.87 4.75C40.12 5.12 40.5 7.87 45.37 9.12C47.06 9.55 52 11 52 11L53 10C53 10 47.74 8.49 46.25 8C44 7.25 41 4.37 38.12 3.75C35.39 3.15 31.38 3.88 30.87 3.75C28.98 3.26 23 2 23 2L22 3z"
        transform="matrix(0.999,-0.0441,0.0441,0.999,-2.3857,1.4358)"
  />
  <linearGradient id="gradient8" gradientUnits="userSpaceOnUse" x1="65.98" y1="-41.58" x2="105.09" y2="19.67">
   <stop offset="0.0908" stop-color="#8c8c8c"/>
   <stop offset="1" stop-color="#acacac"/>
  </linearGradient>
  <path style="fill:url(#gradient8)"
        d="M30 24L58.37 32.75L52 11C52 11 44.87 8.75 42.87 8.12C41.33 7.64 41.25 5.37 37.87 4.75C35.15 4.24 32.93 5.57 31.25 5.12C29.92 4.77 22 3 22 3L30 24z"
        transform="matrix(0.999,-0.0441,0.0441,0.999,-2.3857,1.4358)"
  />
  <linearGradient id="gradient9" gradientUnits="userSpaceOnUse" x1="22.25" y1="15.34" x2="50" y2="34.36">
   <stop offset="0" stop-color="#d4d4d4"/>
   <stop offset="1" stop-color="#a6a6a6"/>
  </linearGradient>
  <path style="fill:url(#gradient9)"
        d="M2.62 41.37L32 54.62V61.87L2.37 46.87L2.62 41.37z"
        transform="matrix(0.999,-0.0441,0.0441,0.999,-2.3857,1.4358)"
  />
  <linearGradient id="gradient10" gradientUnits="userSpaceOnUse" x1="63.25" y1="-72.36" x2="80.53" y2="-62.49">
   <stop offset="0.3525" stop-color="#606060"/>
   <stop offset="0.8702" stop-color="#848484"/>
  </linearGradient>
  <path style="fill:url(#gradient10)"
        d="M32.37 5.87C32.37 5.87 35.5 10.12 36.62 9.62C38.05 8.98 37.37 4.75 37.37 4.75C37.37 4.75 36.25 3.62 34.25 4.37C32.25 5.12 32.37 5.87 32.37 5.87z"
        transform="matrix(0.9739,0.0021,0.0047,0.9053,-0.0619,1.1224)"
  />
  <path style="fill:#a7ff00"
        d="M32 16C23.16 16 16 23.16 16 32C16 40.83 23.16 48 32 48C40.83 48 48 40.83 48 32C48 23.16 40.83 16 32 16z"
        transform="matrix(0.0624,-0.0027,0.0027,0.0624,24.9809,54.4036)"
  />
 </g>
</svg>
