<?xml version="1.0" encoding="UTF-8" standalone="yes"?>
<svg version="1.1" width="64" height="64" color-interpolation="linearRGB"
     xmlns:svg="http://www.w3.org/2000/svg" xmlns="http://www.w3.org/2000/svg">
 <g>
  <path style="fill:#010101; fill-opacity:0.4"
        d="M40 64H49.75L63.87 44.25L52.12 36L40 64z"
        transform="matrix(0.7687,0,0,0.7687,15.2517,12.5527)"
  />
  <path style="fill:none; stroke:#010000; stroke-width:4"
        d="M2 19.25L1.93 42.5L46.25 64.37L55.87 51.75V29.37L12.43 13.25L2 19.25z"
        transform="matrix(0.9849,0,0,1,-0.0009,-5)"
  />
  <linearGradient id="gradient0" gradientUnits="userSpaceOnUse" x1="13.84" y1="-38.14" x2="58.33" y2="-27.7">
   <stop offset="0" stop-color="#ffffff"/>
   <stop offset="1" stop-color="#d3d3d3"/>
  </linearGradient>
  <path style="fill:url(#gradient0)"
        d="M2.18 4L45.37 24.75L55.12 14L12.56 -1.87L2.18 4z"
        transform="matrix(1,0,0,1,0,10.5)"
  />
  <linearGradient id="gradient1" gradientUnits="userSpaceOnUse" x1="11.3" y1="82.69" x2="-25.59" y2="46.62">
   <stop offset="0" stop-color="#909090"/>
   <stop offset="1" stop-color="#d4d4d4"/>
  </linearGradient>
  <path style="fill:url(#gradient1)"
        d="M2.06 19.5L2 42L46 64.12L46.06 37.87L2.06 19.5z
           M43.06 42.25V57.75L4 38L4.12 23.62L43.06 42.25z"
        transform="matrix(1,0,0,1,0,-5)"
  />
  <linearGradient id="gradient2" gradientUnits="userSpaceOnUse" x1="63.81" y1="3.47" x2="73.7" y2="31.53">
   <stop offset="0" stop-color="#242222"/>
   <stop offset="1" stop-color="#9a9a9a"/>
  </linearGradient>
  <path style="fill:url(#gradient2)"
        d="M6.06 38.75L4 40.25V5.87L5.75 4.25L6.06 38.75z"
        transform="matrix(0.5757,0,0,0.4086,1.6969,17.4711)"
  />
  <linearGradient id="gradient3" gradientUnits="userSpaceOnUse" x1="0.69" y1="-5.52" x2="39.3" y2="-5.52">
   <stop offset="0" stop-color="#d4cece"/>
   <stop offset="0.345" stop-color="#f3f3f3"/>
   <stop offset="1" stop-color="#d9d9d9"/>
  </linearGradient>
  <path style="fill:url(#gradient3)"
        d="M43.81 55L44.06 57.62L4 38L6.68 36.37L43.81 55z"
        transform="matrix(1,0,0,1,0,-3.5)"
  />
  <linearGradient id="gradient4" gradientUnits="userSpaceOnUse" x1="40.61" y1="-4.89" x2="77.77" y2="1.75">
   <stop offset="0" stop-color="#474747"/>
   <stop offset="1" stop-color="#a0a0a0"/>
  </linearGradient>
  <path style="fill:url(#gradient4)"
        d="M40.06 37L40 62L50 50L50.12 28.87L40.06 37z"
        transform="matrix(0.9012,0,0,1,9.8256,-3.75)"
  />
  <path style="fill:#2b2b2b"
        d="M5.18 22L5.25 36.62L43 55.12L42.81 38.75L5.18 22z"
        transform="matrix(1.0289,0,0,1.027,-0.4271,-3.6182)"
  />
  <linearGradient id="gradient5" gradientUnits="userSpaceOnUse" x1="-64" y1="-64" x2="64" y2="-64">
   <stop offset="0" stop-color="#e42715"/>
   <stop offset="1" stop-color="#f72700"/>
  </linearGradient>
  <path style="fill:none; stroke:url(#gradient5); stroke-width:1"
        d="M11.37 24.62C12.71 24.82 13.87 28.12 13.87 29.37C13.87 30.78 13.06 33.23 11.62 33.12C9.93 33 8.62 29.75 8.62 28.62C8.62 27.35 9.68 24.37 11.37 24.62z"
        transform="matrix(1,0,0,1.0398,-2,-1.3424)"
  />
  <linearGradient id="gradient6" gradientUnits="userSpaceOnUse" x1="-64" y1="-64" x2="64" y2="-64">
   <stop offset="0" stop-color="#ff2d00"/>
   <stop offset="1" stop-color="#ff5000"/>
  </linearGradient>
  <path style="fill:none; stroke:url(#gradient6); stroke-width:1"
        d="M15.43 35.93L15.56 27.68L19.75 36.87V28.75"
        transform="matrix(1.1416,0,0,1.0274,-2.61,-0.775)"
  />
  <linearGradient id="gradient7" gradientUnits="userSpaceOnUse" x1="-64" y1="-64" x2="64" y2="-64">
   <stop offset="0" stop-color="#ff6400"/>
   <stop offset="1" stop-color="#ff4600"/>
  </linearGradient>
  <path style="fill:none; stroke:url(#gradient7); stroke-width:1"
        d="M20.18 37.56L23.68 30.68L26.31 40.25"
        transform="matrix(1,0,0,1.1155,3.375,-1.5382)"
  />
  <linearGradient id="gradient8" gradientUnits="userSpaceOnUse" x1="-64" y1="-64" x2="64" y2="-64">
   <stop offset="0" stop-color="#ff6400"/>
   <stop offset="1" stop-color="#ff4600"/>
  </linearGradient>
  <path style="fill:none; stroke:url(#gradient8); stroke-width:1"
        d="M22.18 35.68L24.93 37.31"
        transform="matrix(1,0,0,0.9899,3.375,2.0446)"
  />
  <linearGradient id="gradient9" gradientUnits="userSpaceOnUse" x1="-64" y1="-64" x2="64" y2="-64">
   <stop offset="0" stop-color="#ff5000"/>
   <stop offset="1" stop-color="#ff4600"/>
  </linearGradient>
  <path style="fill:none; stroke:url(#gradient9); stroke-width:1"
        d="M33.18 33.87L33 43.5"
        transform="matrix(1.3638,0,0,1.0653,-12.3817,-1.5884)"
  />
  <linearGradient id="gradient10" gradientUnits="userSpaceOnUse" x1="-64" y1="-64" x2="64" y2="-64">
   <stop offset="0" stop-color="#f72700"/>
   <stop offset="1" stop-color="#e42715"/>
  </linearGradient>
  <path style="fill:none; stroke:url(#gradient10); stroke-width:1"
        d="M35.93 44.37L36.06 35.12C36.06 35.12 40.43 36.06 40.43 38.31C40.43 41.68 36.81 40 36.81 40"
        transform="matrix(1,0,0,1.0879,0.5,-1.9152)"
  />
  <linearGradient id="gradient11" gradientUnits="userSpaceOnUse" x1="-64" y1="-64" x2="64" y2="-64">
   <stop offset="0" stop-color="#f72700"/>
   <stop offset="1" stop-color="#e42715"/>
  </linearGradient>
  <path style="fill:none; stroke:url(#gradient11); stroke-width:1"
        d="M39.06 42.06L41.43 48.81"
        transform="matrix(1,0,0,0.9552,0.125,2.1904)"
  />
 </g>
</svg>
