<?xml version="1.0" encoding="UTF-8" standalone="yes"?>
<svg version="1.1" width="64" height="64" color-interpolation="linearRGB"
     xmlns:svg="http://www.w3.org/2000/svg" xmlns="http://www.w3.org/2000/svg">
 <g>
  <path style="fill:#000000; fill-opacity:0.4078"
        d="M24 59.1C24 59.1 33.14 59.01 35 59.12C37.13 59.25 41.62 60.62 43.12 61.12C43.37 63.25 50.88 63.75 51.5 63.75C52.75 63.75 53.63 59.99 54.87 59.75C56.75 59.37 59.62 58.87 59.5 57.12C63 55.37 58.26 56.62 62.5 49.87C63.66 48.01 62.6 47.86 64 47.24C65.94 46.35 68.52 39.38 67.61 38.74C66.88 38.22 66.68 37.05 65.63 36.2C64.92 35.59 66.45 34.76 66.23 34.36C66.14 34.18 65.12 34.41 64.73 33.5C64.37 32.59 65.11 31.59 65.23 30.5C65.48 28.37 65.12 26.23 64.6 26.5C63.36 27.11 62.98 27.55 63.36 26.11C63.87 24.24 57.21 24.87 57.6 24C58.24 22.61 57.4 20.56 56.37 20.61C52.62 20.25 51.75 22.62 50.25 22.25C49.25 22 48.87 18.25 46 20.12C42.86 22.17 42.62 23.25 41.37 23.25"
        transform="matrix(0.8539,-0.034,0.1432,0.4352,-0.0141,37.6585)"
  />
  <path style="fill:none; stroke:#010000; stroke-width:4"
        d="M9.11 34.1C9.11 34.1 7.59 35.03 6.24 32.86C5.61 31.87 4.7 33.69 3.87 34.5C0.74 37.5 2 33.24 2.87 31.61C3.4 30.6 3.37 30.11 4.11 29.37C4.87 28.61 5.74 27.87 6.37 27.24C7 26.61 7.5 25 7.5 25C7.5 25 6.2 24.34 5.11 23.37C4 22.37 3.74 21.5 2.87 21.5C2 21.5 2.63 21.04 3.87 20.5C5.24 19.87 5.37 20.37 6.11 19.5C6.87 18.61 5.37 17.87 5.11 17.74C4.87 17.61 4.74 17.5 4.24 15.87C3.74 14.24 3.74 14.55 3.11 11.74C2.87 10.61 7 12.61 6.87 10.61C6.73 8.5 3.74 8.24 3.5 7.24C3.24 6.24 6 7.74 5.87 7.11C5.74 6.5 6.24 5.61 8 5.61C9.11 5.61 11 7.5 11 7.5C11 7.5 10.5 8 12.61 7.61C14.26 7.33 13.87 7 15 6C16.11 5 16.61 4.87 16.61 4.87C16.61 4.87 18 5.61 18 6.74C18 7.87 19.61 8.5 19.61 8.5C19.61 8.5 19.87 6.87 20 5.11C20.09 3.61 21.24 2.74 21.74 3.24C22.24 3.74 22.37 2.74 22.87 1.73C23.37 0.74 24.74 0.6 25.24 1.6C26 3.11 25.5 4.24 25.74 5.24C26 6.24 27.11 6.5 27.11 5.87C27.11 5.24 28.1 4 29 4C29.61 4 29.24 5.61 29.87 6.24C30.37 6.74 31.77 7.55 32.24 6.87C32.74 6.11 33 6.24 33.36 5.11C33.64 4.27 33.55 4.39 34.5 4C35.36 3.61 35.5 3.5 36.5 2.87C37.5 2.24 37.86 1.73 38.24 2.5C38.6 3.24 38.6 3.74 38.6 5.24C38.6 6.74 39 7.37 37.86 8.24C36.74 9.11 38.36 9.74 38.6 9.74C38.86 9.74 39.86 8.5 41 8.37C42.1 8.24 42.6 7.74 44.1 7.74C45.94 7.74 44 10.11 44.1 10.37C44.24 10.61 44.6 12.11 44.86 11.87C45.1 11.61 45.6 11.5 46.5 11C47.36 10.5 47.24 11.37 47.1 12.24C46.96 13.35 46.1 13.11 46.1 14C46.1 14.87 46.7 15.51 46.1 16C45.5 16.5 45.1 17.87 45.1 17.87C45.1 17.87 45.36 18.24 47.24 17.87C49.1 17.5 48.6 18.74 48.6 18.74C48.6 18.74 49.15 19.02 50.5 19.37C51.5 19.61 52.6 20 52.6 20C52.6 20 52.31 21.34 52 22C50.74 24.5 51.58 22.57 51.24 24C51 25 50.59 25.38 49.6 27.37C49.1 28.37 49 29.24 49 29.24C49 29.24 50.36 29.24 50.86 29.5C51.36 29.74 50.24 30.11 50.24 30.11C50.24 30.11 49.24 30.5 46.86 30.74C44.5 31 42.5 32 42 32.24C41.5 32.5 40.5 34.6 40.5 34.6C40.5 34.6 38.59 34.5 37.24 35.5C36.36 36.1 37 37.1 36.1 37.36C35.24 37.6 35.5 36.86 34.24 35.86C33 34.86 32.47 35.04 32.86 36.1C33.24 37.1 33.74 38.36 32.5 38.24C31.24 38.1 29.61 37.86 28.74 37.36C27.87 36.86 27.37 36.74 26.74 35.86C26.11 35 25.61 33 25.61 33C25.61 33 25.24 33.5 24.5 34C23.74 34.5 22.87 34.36 22.24 35.1C21.61 35.86 20.87 36.24 19.5 36.24C18.11 36.24 17.11 35.74 16.24 36.1C15.37 36.5 13.5 36.1 14.37 35.5C15.24 34.86 16.87 34 16 33.74C15.11 33.5 14.85 34.03 13.5 33.36C12.5 32.86 12.74 33.36 11.74 33.86C10.74 34.36 9.11 34.1 9.11 34.1z"
        transform="matrix(0.9606,0,0,0.9476,2.8447,0.7049)"
  />
  <path style="fill:none; stroke:#010000; stroke-width:4"
        d="M16 33V41L20 46"
        transform="matrix(0.9668,0,0,0.9668,-2.9407,-0.9781)"
  />
  <path style="fill:none; stroke:#010000; stroke-width:4"
        d="M48 33V41L44 46"
        transform="matrix(0.9668,0,0,0.9668,-2.9407,-0.9781)"
  />
  <linearGradient id="gradient0" gradientUnits="userSpaceOnUse" x1="-64" y1="-64" x2="64" y2="-64">
   <stop offset="0.647" stop-color="#00af00"/>
   <stop offset="0.8832" stop-color="#024b02"/>
  </linearGradient>
  <path style="fill:url(#gradient0)"
        d="M32 16C23.14 16 16 23.14 16 32C16 40.82 23.14 48 32 48C40.82 48 48 40.82 48 32C48 23.14 40.82 16 32 16z"
        transform="matrix(0.9668,0,0,0.5438,-2.9407,19.3262)"
  />
  <path style="fill:#010000"
        d="M32 16C23.14 16 16 23.14 16 32C16 40.82 23.14 48 32 48C40.82 48 48 40.82 48 32C48 23.14 40.82 16 32 16z"
        transform="matrix(1.0273,0,0,0.6042,-4.8745,11.5912)"
  />
  <path style="fill:#010000"
        d="M32 16C23.14 16 16 23.14 16 32C16 40.82 23.14 48 32 48C40.82 48 48 40.82 48 32C48 23.14 40.82 16 32 16z"
        transform="matrix(1.0273,0,0,0.6042,-4.8745,11.5912)"
  />
  <linearGradient id="gradient1" gradientUnits="userSpaceOnUse" x1="-64" y1="-64" x2="64" y2="-64">
   <stop offset="0.647" stop-color="#00af00"/>
   <stop offset="0.8832" stop-color="#024b02"/>
  </linearGradient>
  <path style="fill:url(#gradient1)"
        d="M32 16C23.14 16 16 23.14 16 32C16 40.82 23.14 48 32 48C40.82 48 48 40.82 48 32C48 23.14 40.82 16 32 16z"
        transform="matrix(0.9668,0,0,0.5438,-2.9407,13.5249)"
  />
  <linearGradient id="gradient2" gradientUnits="userSpaceOnUse" x1="-64" y1="-64" x2="64" y2="-64">
   <stop offset="0.4509" stop-color="#c57605"/>
   <stop offset="0.6627" stop-color="#6a4511"/>
   <stop offset="0.7921" stop-color="#553404"/>
  </linearGradient>
  <path style="fill:url(#gradient2)"
        d="M32 16C23.14 16 16 23.14 16 32C16 40.82 23.14 48 32 48C40.82 48 48 40.82 48 32C48 23.14 40.82 16 32 16z"
        transform="matrix(0.9668,0,0,0.4569,-2.9407,17.4528)"
  />
  <path style="fill:none; stroke:#010000; stroke-width:2"
        d="M32 16C23.14 16 16 23.14 16 32C16 40.82 23.14 48 32 48C40.82 48 48 40.82 48 32C48 23.14 40.82 16 32 16z"
        transform="matrix(1.0095,0,0,0.4781,-4.3057,16.8982)"
  />
  <path style="fill:#010000"
        d="M16.12 31.5C16.12 40.32 23.14 48 32 48C40.82 48 48 40.82 48 32C48 23.14 16.12 22.64 16.12 31.5z"
        transform="matrix(0.6949,0,0,0.4658,5.2776,39.5068)"
  />
  <linearGradient id="gradient3" gradientUnits="userSpaceOnUse" x1="-64" y1="-64" x2="64" y2="-64">
   <stop offset="0.599" stop-color="#00af00"/>
   <stop offset="0.9563" stop-color="#024b02"/>
  </linearGradient>
  <path style="fill:url(#gradient3)"
        d="M16.12 31.5C16.12 40.32 23.14 48 32 48C40.82 48 48 40.82 48 32C48 23.14 16.12 22.64 16.12 31.5z"
        transform="matrix(0.574,0,0,0.3625,9.1451,42.5311)"
  />
  <linearGradient id="gradient4" gradientUnits="userSpaceOnUse" x1="-64" y1="-64" x2="64" y2="-64">
   <stop offset="0.647" stop-color="#00af00"/>
   <stop offset="0.8832" stop-color="#024b02"/>
  </linearGradient>
  <path style="fill:url(#gradient4)"
        d="M22 57L19 44H45L42 57H22z"
        transform="matrix(0.9668,0,0,0.9668,-2.9407,-0.9781)"
  />
  <linearGradient id="gradient5" gradientUnits="userSpaceOnUse" x1="-64" y1="-64" x2="64" y2="-64">
   <stop offset="0.6509" stop-color="#cd0000"/>
   <stop offset="0.7568" stop-color="#8e0303"/>
   <stop offset="0.8078" stop-color="#4b0202"/>
  </linearGradient>
  <path style="fill:none; stroke:url(#gradient5); stroke-width:2"
        d="M14.11 46.74C14.11 46.74 18 49 25.5 49.24C33.49 49.5 36.6 46.86 36.6 46.86"
        transform="matrix(0.9668,0,0,0.9668,2.8604,-0.0112)"
  />
  <path style="fill:none; stroke:#010000; stroke-width:1"
        d="M14.11 45.86C14.11 45.86 18.11 48.6 25.61 48.86C33.6 49.13 37.24 46.24 37.24 46.24"
        transform="matrix(0.9668,0,0,0.9118,2.8604,4.4474)"
  />
  <path style="fill:none; stroke:#010000; stroke-width:1"
        d="M16 32C16 40.82 23.14 48 32 48C40.82 48 48 40.82 48 32"
        transform="matrix(1.0273,0,0,0.6042,-4.8745,17.3924)"
  />
  <path style="fill:none; stroke:#010000; stroke-width:1"
        d="M16 32C16 40.82 23.14 48 32 48C40.82 48 48 40.82 48 32"
        transform="matrix(1.0273,0,0,0.6042,-4.8745,17.3924)"
  />
  <path style="fill:none; stroke:#010000; stroke-width:2"
        d="M41.86 57L44.5 45.24"
        transform="matrix(0.9668,0,0,0.9668,-2.9407,-0.9781)"
  />
  <path style="fill:none; stroke:#010000; stroke-width:2"
        d="M20.75 57.12L19.24 45.36"
        transform="matrix(0.9668,0,0,0.9668,-2.9407,-0.9781)"
  />
  <path style="fill:#010000; fill-opacity:0.5294"
        d="M19.74 41.74C19.74 41.74 18.87 41.5 18 42.24C17.11 43 16.37 42.86 16 43.86C15.61 44.86 15.87 46.36 15.87 46.36C15.87 46.36 16 45.1 17.11 44.24C18.24 43.36 19.74 41.74 19.74 41.74z"
        transform="matrix(0.9668,0,0,0.9668,1.7608,-0.8738)"
  />
  <path style="fill:none; stroke:#000000; stroke-opacity:0.3686; stroke-width:2"
        d="M23.61 49.1C23.61 49.1 23.23 45.86 21.87 44.24C19.24 41.1 18 42 16.87 42.86C15.5 43.94 16.24 44.86 16.37 46.36C16.5 47.88 17.33 49.01 17.74 49.5C18.61 50.5 20.74 50 21.87 49.74C23.23 49.44 24.96 48.44 26.61 47.36C28.37 46.24 29.28 45.35 31.24 44.86C33.24 44.36 34.99 43.99 35.36 45.6C35.74 47.24 35.6 48.36 34.36 49.24C33.1 50.1 31.11 50.86 30.11 50.86C28.5 50.86 26.61 49.6 26.61 49.6"
        transform="matrix(0.9648,-0.0622,0.0622,0.9648,1.9549,2.0497)"
  />
  <linearGradient id="gradient6" gradientUnits="userSpaceOnUse" x1="-64" y1="-64" x2="64" y2="-64">
   <stop offset="0.6509" stop-color="#cd0000"/>
   <stop offset="0.7568" stop-color="#8e0303"/>
   <stop offset="0.8078" stop-color="#4b0202"/>
  </linearGradient>
  <path style="fill:none; stroke:url(#gradient6); stroke-width:2"
        d="M23.61 49.1C23.61 49.1 23.23 45.86 21.87 44.24C19.24 41.1 18 42 16.87 42.86C15.5 43.94 16.24 44.86 16.37 46.36C16.5 47.88 17.33 49.01 17.74 49.5C18.61 50.5 20.74 50 21.87 49.74C23.23 49.44 24.96 48.44 26.61 47.36C28.37 46.24 29.28 45.35 31.24 44.86C33.24 44.36 34.99 43.99 35.36 45.6C35.74 47.24 35.6 48.36 34.36 49.24C33.1 50.1 31.11 50.86 30.11 50.86C28.5 50.86 26.61 49.6 26.61 49.6"
        transform="matrix(0.9648,-0.0622,0.0622,0.9648,0.0212,2.0497)"
  />
  <path style="fill:#010000; fill-opacity:0.5294"
        d="M19.61 44.24C19.61 44.24 20.37 43.74 21.11 44.74C21.87 45.74 22.5 47.24 22.5 47.24C22.5 47.24 22.87 45.5 22.11 44.6C21.37 43.74 19.61 44.24 19.61 44.24z"
        transform="matrix(1.1323,0,0,1.3944,-1.8368,-19.0049)"
  />
  <path style="fill:none; stroke:#000000; stroke-opacity:0.3686; stroke-width:2"
        d="M23.87 49.5C23.87 49.5 22.5 50.24 22 51.5C21.5 52.74 22.61 56.36 22.5 56.5"
        transform="matrix(0.9668,0,0,0.9668,4.1875,-0.0112)"
  />
  <linearGradient id="gradient7" gradientUnits="userSpaceOnUse" x1="-64" y1="-64" x2="64" y2="-64">
   <stop offset="0.6509" stop-color="#cd0000"/>
   <stop offset="0.7568" stop-color="#8e0303"/>
   <stop offset="0.8078" stop-color="#4b0202"/>
  </linearGradient>
  <path style="fill:none; stroke:url(#gradient7); stroke-width:2"
        d="M23.87 49.5C23.87 49.5 22.5 50.24 22 51.5C21.5 52.74 22.61 56.36 22.5 56.5"
        transform="matrix(0.9668,0,0,0.9668,2.8604,-0.0112)"
  />
  <path style="fill:#010000; fill-opacity:0.5294"
        d="M21.87 51.36C21.87 51.36 21.61 52.86 21.61 53.6C21.61 54.36 21.37 55.1 22 55.74C22.61 56.36 23.37 57.24 23.74 57C24.11 56.74 23.87 55.6 23.87 55.6C23.87 55.6 23 55.74 22.74 54.86C22.5 54 21.87 51.36 21.87 51.36z"
        transform="matrix(0.9668,0,0,0.9668,1.8935,-0.0112)"
  />
  <path style="fill:none; stroke:#000000; stroke-opacity:0.3686; stroke-width:2"
        d="M25.74 49.86C25.74 49.86 25.61 51.74 27.11 53C28.61 54.24 30.87 55.1 30.74 55.1"
        transform="matrix(0.9668,0,0,0.9668,4.6709,-0.0112)"
  />
  <linearGradient id="gradient8" gradientUnits="userSpaceOnUse" x1="-64" y1="-64" x2="64" y2="-64">
   <stop offset="0.6509" stop-color="#cd0000"/>
   <stop offset="0.7568" stop-color="#8e0303"/>
   <stop offset="0.8078" stop-color="#4b0202"/>
  </linearGradient>
  <path style="fill:none; stroke:url(#gradient8); stroke-width:2"
        d="M25.74 49.86C25.74 49.86 25.61 51.74 27.11 53C28.61 54.24 30.87 55.1 30.74 55.1"
        transform="matrix(0.9668,0,0,0.9668,2.8604,-0.0112)"
  />
  <linearGradient id="gradient9" gradientUnits="userSpaceOnUse" x1="-64" y1="-64" x2="64" y2="-64">
   <stop offset="0.5764" stop-color="#197f00"/>
   <stop offset="0.6941" stop-color="#1c530d"/>
  </linearGradient>
  <path style="fill:url(#gradient9)"
        d="M7 14.24C7.87 14.87 9.11 16 10 17.11C10.87 18.24 11.74 19.24 14.11 19C16.5 18.74 17.74 18.24 19.24 17.61C20.74 17 22 16.11 22 16.11C22 16.11 22.87 16.11 20.74 14.24C18.61 12.37 20.11 12.87 17.61 11.24C15.11 9.61 17.61 8.37 13.5 8.87C9.37 9.37 9.37 9.11 6.87 10.11C4.37 11.11 3.74 12.11 3.74 12.11C3.74 12.11 6.11 13.61 7 14.24z"
        transform="matrix(1.0129,0,0,0.8731,1.3582,10.7188)"
  />
  <linearGradient id="gradient10" gradientUnits="userSpaceOnUse" x1="-64" y1="-64" x2="64" y2="-64">
   <stop offset="0" stop-color="#197f00"/>
   <stop offset="1" stop-color="#209904"/>
  </linearGradient>
  <path style="fill:url(#gradient10)"
        d="M7 14.24C7.87 14.87 9.11 16 10 17.11C10.87 18.24 11.74 19.24 14.11 19C16.5 18.74 17.74 18.24 19.24 17.61C20.74 17 22 16.11 22 16.11C22 16.11 22.87 16.11 20.74 14.24C18.61 12.37 20.11 12.87 17.61 11.24C15.11 9.61 17.61 8.37 13.5 8.87C9.37 9.37 9.37 9.11 6.87 10.11C4.37 11.11 3.74 12.11 3.74 12.11C3.74 12.11 6.11 13.61 7 14.24z"
        transform="matrix(0.953,0.1626,-0.1626,0.953,6.3865,-3.2519)"
  />
  <linearGradient id="gradient11" gradientUnits="userSpaceOnUse" x1="127.06" y1="128.93" x2="-0.93" y2="127.68">
   <stop offset="0.7098" stop-color="#28c005"/>
   <stop offset="1" stop-color="#166902"/>
  </linearGradient>
  <path style="fill:url(#gradient11)"
        d="M7 14.24C7.87 14.87 9.11 16 10 17.11C10.87 18.24 11.74 19.24 14.11 19C16.5 18.74 17.74 18.24 19.24 17.61C20.74 17 22 16.11 22 16.11C22 16.11 22.87 16.11 20.74 14.24C18.61 12.37 20.11 12.87 17.61 11.24C15.11 9.61 17.61 8.37 13.5 8.87C9.37 9.37 9.37 9.11 6.87 10.11C4.37 11.11 3.74 12.11 3.74 12.11C3.74 12.11 6.11 13.61 7 14.24z"
        transform="matrix(-0.7121,-0.4656,0.5021,-0.5465,13.5431,29.6882)"
  />
  <path style="fill:#1a8003"
        d="M19.24 8.87C18.11 9.87 17 9.87 16.61 11.5C16.24 13.11 15.5 12.5 16.87 15C18.24 17.5 19.61 18.74 19.61 18.74C19.61 18.74 19.24 19.5 21 17.5C22.74 15.5 23.37 16.74 23.61 14.11C23.87 11.5 23.61 12.11 22.61 9.61C21.61 7.11 18.74 6.11 18.74 6.11C18.74 6.11 20.37 7.87 19.24 8.87z"
        transform="matrix(0.0033,-0.9668,0.9668,0.0033,12.5237,30.3286)"
  />
  <linearGradient id="gradient12" gradientUnits="userSpaceOnUse" x1="-64" y1="-64" x2="64" y2="-64">
   <stop offset="0" stop-color="#146302"/>
   <stop offset="1" stop-color="#197f00"/>
  </linearGradient>
  <path style="fill:url(#gradient12)"
        d="M19.24 8.87C18.11 9.87 17 9.87 16.61 11.5C16.24 13.11 15.5 12.5 16.87 15C18.24 17.5 19.61 18.74 19.61 18.74C19.61 18.74 19.24 19.5 21 17.5C22.74 15.5 23.37 16.74 23.61 14.11C23.87 11.5 23.61 12.11 22.61 9.61C21.61 7.11 18.74 6.11 18.74 6.11C18.74 6.11 20.37 7.87 19.24 8.87z"
        transform="matrix(0.9036,0,0,0.9668,6.2969,14.9752)"
  />
  <path style="fill:#135e02"
        d="M19.24 8.87C18.11 9.87 17 9.87 16.61 11.5C16.24 13.11 15.5 12.5 16.87 15C18.24 17.5 19.61 18.74 19.61 18.74C19.61 18.74 19.24 19.5 21 17.5C22.74 15.5 23.37 16.74 23.61 14.11C23.87 11.5 23.61 12.11 22.61 9.61C21.61 7.11 18.74 6.11 18.74 6.11C18.74 6.11 20.37 7.87 19.24 8.87z"
        transform="matrix(0.9826,0,0,0.9668,17.5922,0.3513)"
  />
  <linearGradient id="gradient13" gradientUnits="userSpaceOnUse" x1="-64" y1="-64" x2="64" y2="-64">
   <stop offset="0" stop-color="#25b304"/>
   <stop offset="1" stop-color="#197f00"/>
  </linearGradient>
  <path style="fill:url(#gradient13)"
        d="
           M2.37 8.24C3 7 2 5.87 4.24 5C5.9 4.34 6.61 1.73 8.74 3.24C10.87 4.74 13 5.61 13 5.61C13 5.61 13.74 5.61 12.5 7C11.24 8.37 11.5 8.87 9.74 9.61C8 10.37 8.01 10.25 6.11 9.74C4.74 9.37 1.23 11.74 1.23 11.74C1.23 11.74 1.85 9.24 2.37 8.24z"
        transform="matrix(0.9668,0,0,0.9536,2.7396,23.4713)"
  />
  <path style="fill:#2eb60e"
        d="
           M2.37 8.24C3 7 2 5.87 4.24 5C5.9 4.34 6.61 1.73 8.74 3.24C10.87 4.74 13 5.61 13 5.61C13 5.61 13.74 5.61 12.5 7C11.24 8.37 11.5 8.87 9.74 9.61C8 10.37 8.01 10.25 6.11 9.74C4.74 9.37 1.23 11.74 1.23 11.74C1.23 11.74 1.85 9.24 2.37 8.24z"
        transform="matrix(0.6351,-0.8607,1.2412,0.4404,14.5574,15.0535)"
  />
  <linearGradient id="gradient14" gradientUnits="userSpaceOnUse" x1="-64" y1="-64" x2="64" y2="-64">
   <stop offset="0" stop-color="#115502"/>
   <stop offset="1" stop-color="#197f00"/>
  </linearGradient>
  <path style="fill:url(#gradient14)"
        d="
           M2.37 8.24C3 7 2 5.87 4.24 5C5.9 4.34 6.61 1.73 8.74 3.24C10.87 4.74 13 5.61 13 5.61C13 5.61 13.74 5.61 12.5 7C11.24 8.37 11.5 8.87 9.74 9.61C8 10.37 8.01 10.25 6.11 9.74C4.74 9.37 1.23 11.74 1.23 11.74C1.23 11.74 1.85 9.24 2.37 8.24z"
        transform="matrix(0.8117,-0.3708,0.2873,0.6106,31.2472,29.8474)"
  />
  <path style="fill:#197f00"
        d="
           M2.37 8.24C3 7 2 5.87 4.24 5C5.9 4.34 6.61 1.73 8.74 3.24C10.87 4.74 13 5.61 13 5.61C13 5.61 13.74 5.61 12.5 7C11.24 8.37 11.5 8.87 9.74 9.61C8 10.37 8.01 10.25 6.11 9.74C4.74 9.37 1.23 11.74 1.23 11.74C1.23 11.74 1.85 9.24 2.37 8.24z"
        transform="matrix(0.677,0,0,0.9634,30.6125,18.8519)"
  />
  <path style="fill:#115202"
        d="
           M2.37 8.24C3 7 2 5.87 4.24 5C5.9 4.34 6.61 1.73 8.74 3.24C10.87 4.74 13 5.61 13 5.61C13 5.61 13.74 5.61 12.5 7C11.24 8.37 11.5 8.87 9.74 9.61C8 10.37 8.01 10.25 6.11 9.74C4.74 9.37 1.23 11.74 1.23 11.74C1.23 11.74 1.85 9.24 2.37 8.24z"
        transform="matrix(-0.0219,-0.4621,0.584,-0.0197,36.2856,26.7234)"
  />
  <path style="fill:#1f9404"
        d="
           M2.37 8.24C3 7 2 5.87 4.24 5C5.9 4.34 6.61 1.73 8.74 3.24C10.87 4.74 13 5.61 13 5.61C13 5.61 13.74 5.61 12.5 7C11.24 8.37 11.5 8.87 9.74 9.61C8 10.37 8.01 10.25 6.11 9.74C4.74 9.37 1.23 11.74 1.23 11.74C1.23 11.74 1.85 9.24 2.37 8.24z"
        transform="matrix(0.2754,-0.5042,0.5685,0.2791,25.6274,28.4318)"
  />
  <path style="fill:#187503"
        d="
           M29.11 9.11C31.11 7.74 29.61 7.5 33 7C36.36 6.5 37.74 5.61 39.1 6.74C40.5 7.87 41.6 8.24 42.6 8.61C43.6 9 44.6 9.5 41.24 10C37.86 10.5 39.1 11.5 36.74 11.74C34.36 12 34.86 12.11 32.74 11.5C30.61 10.87 27 12.11 27 12.11C27 12.11 27.11 10.5 29.11 9.11z"
        transform="matrix(0.7544,0,0,0.7315,-9.197,23.8034)"
  />
  <path style="fill:#197f00"
        d="
           M29.11 9.11C31.11 7.74 29.61 7.5 33 7C36.36 6.5 37.74 5.61 39.1 6.74C40.5 7.87 41.6 8.24 42.6 8.61C43.6 9 44.6 9.5 41.24 10C37.86 10.5 39.1 11.5 36.74 11.74C34.36 12 34.86 12.11 32.74 11.5C30.61 10.87 27 12.11 27 12.11C27 12.11 27.11 10.5 29.11 9.11z"
        transform="matrix(-0.8839,-0.0674,0.1077,-1.0395,59.0161,32.5824)"
  />
  <path style="fill:#156402"
        d="
           M29.11 9.11C31.11 7.74 29.61 7.5 33 7C36.36 6.5 37.74 5.61 39.1 6.74C40.5 7.87 41.6 8.24 42.6 8.61C43.6 9 44.6 9.5 41.24 10C37.86 10.5 39.1 11.5 36.74 11.74C34.36 12 34.86 12.11 32.74 11.5C30.61 10.87 27 12.11 27 12.11C27 12.11 27.11 10.5 29.11 9.11z"
        transform="matrix(0.2564,0,0,0.9668,7.6914,16.5464)"
  />
  <path style="fill:#197f00"
        d="
           M29.11 9.11C31.11 7.74 29.61 7.5 33 7C36.36 6.5 37.74 5.61 39.1 6.74C40.5 7.87 41.6 8.24 42.6 8.61C43.6 9 44.6 9.5 41.24 10C37.86 10.5 39.1 11.5 36.74 11.74C34.36 12 34.86 12.11 32.74 11.5C30.61 10.87 27 12.11 27 12.11C27 12.11 27.11 10.5 29.11 9.11z"
        transform="matrix(0.2343,0,0,0.7133,16.1402,10.138)"
  />
  <linearGradient id="gradient15" gradientUnits="userSpaceOnUse" x1="127.94" y1="128.05" x2="-0.05" y2="127.98">
   <stop offset="0.5764" stop-color="#1e9203"/>
   <stop offset="0.8196" stop-color="#247312"/>
  </linearGradient>
  <path style="fill:url(#gradient15)"
        d="
           M29.11 9.11C31.11 7.74 29.61 7.5 33 7C36.36 6.5 37.74 5.61 39.1 6.74C40.5 7.87 41.6 8.24 42.6 8.61C43.6 9 44.6 9.5 41.24 10C37.86 10.5 39.1 11.5 36.74 11.74C34.36 12 34.86 12.11 32.74 11.5C30.61 10.87 27 12.11 27 12.11C27 12.11 27.11 10.5 29.11 9.11z"
        transform="matrix(-0.8302,0.4954,-0.4954,-0.8302,56.6935,20.9752)"
  />
  <path style="fill:#197405"
        d="M38.5 16C37.74 17.74 37.74 17.61 38.36 19.11C39 20.61 39.36 20.61 41 21.5C42.6 22.37 43.5 22.24 45.36 22.5C47.24 22.74 47.5 22.61 48.6 22.11C49.74 21.61 51.24 22.74 49.1 19.5C47 16.24 47.36 15.37 45.74 14.37C44.1 13.37 43.24 13.87 41.1 13C39 12.11 39 11.87 38.74 12.87
           "
        transform="matrix(-0.58,-0.8034,1.3123,-0.8924,41.0027,68.5454)"
  />
  <path style="fill:#b70404"
        d="M29.11 9.11C31.11 7.74 29.61 7.5 33 7C36.36 6.5 37.74 5.61 39.1 6.74C40.5 7.87 41.6 8.24 42.6 8.61C43.6 9 44.6 9.5 41.24 10C37.86 10.5 39.1 11.5 36.74 11.74C34.36 12 34.86 12.11 32.74 11.5C30.61 10.87 27 12.11 27 12.11C27 12.11 27.11 10.5 29.11 9.11z"
        transform="matrix(0.4437,-0.422,0.3157,0.5931,23.8289,20.8962)"
  />
  <linearGradient id="gradient16" gradientUnits="userSpaceOnUse" x1="-64" y1="-64" x2="64" y2="-64">
   <stop offset="0" stop-color="#177003"/>
   <stop offset="1" stop-color="#156602"/>
  </linearGradient>
  <path style="fill:url(#gradient16)"
        d="
           M38.5 16C37.74 17.74 37.74 17.61 38.36 19.11C39 20.61 39.36 20.61 41 21.5C42.6 22.37 43.5 22.24 45.36 22.5C47.24 22.74 47.5 22.61 48.6 22.11C49.74 21.61 51.24 22.74 49.1 19.5C47 16.24 47.36 15.37 45.74 14.37C44.1 13.37 43.24 13.87 41.1 13C39 12.11 39 11.87 38.74 12.87"
        transform="matrix(0.0449,0.81,-0.9658,0.0376,63.5247,-12.6047)"
  />
  <linearGradient id="gradient17" gradientUnits="userSpaceOnUse" x1="-64" y1="-64" x2="64" y2="-64">
   <stop offset="0.6274" stop-color="#24ae04"/>
   <stop offset="1" stop-color="#196e05"/>
  </linearGradient>
  <path style="fill:url(#gradient17)"
        d="
           M38.5 16C37.74 17.74 37.74 17.61 38.36 19.11C39 20.61 39.36 20.61 41 21.5C42.6 22.37 43.5 22.24 45.36 22.5C47.24 22.74 47.5 22.61 48.6 22.11C49.74 21.61 51.24 22.74 49.1 19.5C47 16.24 47.36 15.37 45.74 14.37C44.1 13.37 43.24 13.87 41.1 13C39 12.11 39 11.87 38.74 12.87"
        transform="matrix(0.5911,0.1916,-0.2398,0.74,9.1152,11.0907)"
  />
  <path style="fill:#000000; fill-opacity:0.3686"
        d="M18.11 32.6L19.74 32.36C19.74 32.36 19 32.24 18.61 31C18.24 29.74 18.74 30.87 19.74 29.87C20.74 28.87 20.24 28.37 21.24 27.74C22.24 27.11 22 25.87 22 25.87L14.61 29.11"
        transform="matrix(0.9668,0,0,0.9668,1.8935,-0.0112)"
  />
  <path style="fill:#d20b01"
        d="M7 14.24C7.87 14.87 9.11 16 10 17.11C10.87 18.24 11.74 19.24 14.11 19C16.5 18.74 17.74 18.24 19.24 17.61C20.74 17 22 16.11 22 16.11C22 16.11 22.87 16.11 20.74 14.24C18.61 12.37 20.11 12.87 17.61 11.24C15.11 9.61 17.61 8.37 13.5 8.87C9.37 9.37 9.37 9.11 6.87 10.11C4.37 11.11 3.74 12.11 3.74 12.11C3.74 12.11 6.11 13.61 7 14.24z"
        transform="matrix(0.5897,0.1845,-0.17,0.5433,6.6547,11.5813)"
  />
  <path style="fill:#d20b01"
        d="M7 14.24C7.87 14.87 9.11 16 10 17.11C10.87 18.24 11.74 19.24 14.11 19C16.5 18.74 17.74 18.24 19.24 17.61C20.74 17 22 16.11 22 16.11C22 16.11 22.87 16.11 20.74 14.24C18.61 12.37 20.11 12.87 17.61 11.24C15.11 9.61 17.61 8.37 13.5 8.87C9.37 9.37 9.37 9.11 6.87 10.11C4.37 11.11 3.74 12.11 3.74 12.11C3.74 12.11 6.11 13.61 7 14.24z"
        transform="matrix(-0.5266,0.2087,-0.2832,-0.5867,28.0334,30.7352)"
  />
  <linearGradient id="gradient18" gradientUnits="userSpaceOnUse" x1="-64" y1="-64" x2="64" y2="-64">
   <stop offset="0.2745" stop-color="#d20b01"/>
   <stop offset="1" stop-color="#c60e05"/>
  </linearGradient>
  <path style="fill:url(#gradient18)"
        d="M7 14.24C7.87 14.87 9.11 16 10 17.11C10.87 18.24 11.74 19.24 14.11 19C16.5 18.74 17.74 18.24 19.24 17.61C20.74 17 22 16.11 22 16.11C22 16.11 22.87 16.11 20.74 14.24C18.61 12.37 20.11 12.87 17.61 11.24C15.11 9.61 17.61 8.37 13.5 8.87C9.37 9.37 9.37 9.11 6.87 10.11C4.37 11.11 3.74 12.11 3.74 12.11C3.74 12.11 6.11 13.61 7 14.24z"
        transform="matrix(0.5478,-0.2712,0.286,0.4218,21.8491,21.777)"
  />
  <linearGradient id="gradient19" gradientUnits="userSpaceOnUse" x1="-64" y1="-64" x2="64" y2="-64">
   <stop offset="0" stop-color="#d20b01"/>
   <stop offset="1" stop-color="#ae0c04"/>
  </linearGradient>
  <path style="fill:url(#gradient19)"
        d="M7 14.24C7.87 14.87 9.11 16 10 17.11C10.87 18.24 11.74 19.24 14.11 19C16.5 18.74 17.74 18.24 19.24 17.61C20.74 17 22 16.11 22 16.11C22 16.11 22.87 16.11 20.74 14.24C18.61 12.37 20.11 12.87 17.61 11.24C15.11 9.61 17.61 8.37 13.5 8.87C9.37 9.37 9.37 9.11 6.87 10.11C4.37 11.11 3.74 12.11 3.74 12.11C3.74 12.11 6.11 13.61 7 14.24z"
        transform="matrix(0.4753,-0.4348,0.1412,0.2302,24.4741,22.793)"
  />
  <linearGradient id="gradient20" gradientUnits="userSpaceOnUse" x1="-64" y1="-64" x2="64" y2="-64">
   <stop offset="0" stop-color="#d20b01"/>
   <stop offset="0.9921" stop-color="#b30d04"/>
  </linearGradient>
  <path style="fill:url(#gradient20)"
        d="M7 14.24C7.87 14.87 9.11 16 10 17.11C10.87 18.24 11.74 19.24 14.11 19C16.5 18.74 17.74 18.24 19.24 17.61C20.74 17 22 16.11 22 16.11C22 16.11 22.87 16.11 20.74 14.24C18.61 12.37 20.11 12.87 17.61 11.24C15.11 9.61 17.61 8.37 13.5 8.87C9.37 9.37 9.37 9.11 6.87 10.11C4.37 11.11 3.74 12.11 3.74 12.11C3.74 12.11 6.11 13.61 7 14.24z"
        transform="matrix(-0.361,-0.3162,0.2493,-0.2943,34.9679,36.9801)"
  />
  <linearGradient id="gradient21" gradientUnits="userSpaceOnUse" x1="-64" y1="-64" x2="64" y2="-64">
   <stop offset="0" stop-color="#b1160e"/>
   <stop offset="1" stop-color="#d20b01"/>
  </linearGradient>
  <path style="fill:url(#gradient21)"
        d="M7 14.24C7.87 14.87 9.11 16 10 17.11C10.87 18.24 11.74 19.24 14.11 19C16.5 18.74 17.74 18.24 19.24 17.61C20.74 17 22 16.11 22 16.11C22 16.11 22.87 16.11 20.74 14.24C18.61 12.37 20.11 12.87 17.61 11.24C15.11 9.61 17.61 8.37 13.5 8.87C9.37 9.37 9.37 9.11 6.87 10.11C4.37 11.11 3.74 12.11 3.74 12.11C3.74 12.11 6.11 13.61 7 14.24z"
        transform="matrix(0.5091,0.3719,-0.2698,0.308,37.1165,5.6218)"
  />
  <linearGradient id="gradient22" gradientUnits="userSpaceOnUse" x1="-64" y1="-64" x2="64" y2="-64">
   <stop offset="0" stop-color="#d20b01"/>
   <stop offset="1" stop-color="#ba0d05"/>
  </linearGradient>
  <path style="fill:url(#gradient22)"
        d="M19.24 8.87C18.11 9.87 17 9.87 16.61 11.5C16.24 13.11 15.5 12.5 16.87 15C18.24 17.5 19.61 18.74 19.61 18.74C19.61 18.74 19.24 19.5 21 17.5C22.74 15.5 23.37 16.74 23.61 14.11C23.87 11.5 23.61 12.11 22.61 9.61C21.61 7.11 18.74 6.11 18.74 6.11C18.74 6.11 20.37 7.87 19.24 8.87z"
        transform="matrix(0.5485,0.1197,-0.3168,0.633,7.4756,6.7455)"
  />
  <linearGradient id="gradient23" gradientUnits="userSpaceOnUse" x1="-64" y1="-64" x2="64" y2="-64">
   <stop offset="0.1333" stop-color="#eb1106"/>
   <stop offset="0.8588" stop-color="#c40e05"/>
  </linearGradient>
  <path style="fill:url(#gradient23)"
        d="M19.24 8.87C18.11 9.87 17 9.87 16.61 11.5C16.24 13.11 15.5 12.5 16.87 15C18.24 17.5 19.61 18.74 19.61 18.74C19.61 18.74 19.24 19.5 21 17.5C22.74 15.5 23.37 16.74 23.61 14.11C23.87 11.5 23.61 12.11 22.61 9.61C21.61 7.11 18.74 6.11 18.74 6.11C18.74 6.11 20.37 7.87 19.24 8.87z"
        transform="matrix(0.4396,-0.3953,0.8358,0.7772,11.8518,27.6224)"
  />
  <linearGradient id="gradient24" gradientUnits="userSpaceOnUse" x1="-64" y1="-64" x2="64" y2="-64">
   <stop offset="0" stop-color="#d20b01"/>
   <stop offset="1" stop-color="#bd1c14"/>
  </linearGradient>
  <path style="fill:url(#gradient24)"
        d="M19.24 8.87C18.11 9.87 17 9.87 16.61 11.5C16.24 13.11 15.5 12.5 16.87 15C18.24 17.5 19.61 18.74 19.61 18.74C19.61 18.74 19.24 19.5 21 17.5C22.74 15.5 23.37 16.74 23.61 14.11C23.87 11.5 23.61 12.11 22.61 9.61C21.61 7.11 18.74 6.11 18.74 6.11C18.74 6.11 20.37 7.87 19.24 8.87z"
        transform="matrix(0.662,0.5795,-0.7046,0.5446,17.7268,-5.4696)"
  />
  <linearGradient id="gradient25" gradientUnits="userSpaceOnUse" x1="-64" y1="-64" x2="64" y2="-64">
   <stop offset="0" stop-color="#d20b01"/>
   <stop offset="1" stop-color="#b70d04"/>
  </linearGradient>
  <path style="fill:url(#gradient25)"
        d="M19.24 8.87C18.11 9.87 17 9.87 16.61 11.5C16.24 13.11 15.5 12.5 16.87 15C18.24 17.5 19.61 18.74 19.61 18.74C19.61 18.74 19.24 19.5 21 17.5C22.74 15.5 23.37 16.74 23.61 14.11C23.87 11.5 23.61 12.11 22.61 9.61C21.61 7.11 18.74 6.11 18.74 6.11C18.74 6.11 20.37 7.87 19.24 8.87z"
        transform="matrix(0.3377,-0.3974,0.7469,0.7219,17.1758,13.6959)"
  />
  <linearGradient id="gradient26" gradientUnits="userSpaceOnUse" x1="128.1" y1="-63.89" x2="127.96" y2="64.1">
   <stop offset="0.2666" stop-color="#d20b01"/>
   <stop offset="1" stop-color="#bc0d05"/>
  </linearGradient>
  <path style="fill:url(#gradient26)"
        d="M19.24 8.87C18.11 9.87 17 9.87 16.61 11.5C16.24 13.11 15.5 12.5 16.87 15C18.24 17.5 19.61 18.74 19.61 18.74C19.61 18.74 19.24 19.5 21 17.5C22.74 15.5 23.37 16.74 23.61 14.11C23.87 11.5 23.61 12.11 22.61 9.61C21.61 7.11 18.74 6.11 18.74 6.11C18.74 6.11 20.37 7.87 19.24 8.87z"
        transform="matrix(-0.8101,-0.1845,0.1574,-0.9491,39.3066,23.0104)"
  />
  <linearGradient id="gradient27" gradientUnits="userSpaceOnUse" x1="-103.25" y1="20.23" x2="-5.24" y2="-62.09">
   <stop offset="0.545" stop-color="#d20b01"/>
   <stop offset="1" stop-color="#ba0d05"/>
  </linearGradient>
  <path style="fill:url(#gradient27)"
        d="M19.24 8.87C18.11 9.87 17 9.87 16.61 11.5C16.24 13.11 15.5 12.5 16.87 15C18.24 17.5 19.61 18.74 19.61 18.74C19.61 18.74 19.24 19.5 21 17.5C22.74 15.5 23.37 16.74 23.61 14.11C23.87 11.5 23.61 12.11 22.61 9.61C21.61 7.11 18.74 6.11 18.74 6.11C18.74 6.11 20.37 7.87 19.24 8.87z"
        transform="matrix(0.5599,0.334,-0.4953,0.8303,20.8981,11.565)"
  />
  <linearGradient id="gradient28" gradientUnits="userSpaceOnUse" x1="-64" y1="-64" x2="64" y2="-64">
   <stop offset="0.4666" stop-color="#d20b01"/>
   <stop offset="1" stop-color="#b30d04"/>
  </linearGradient>
  <path style="fill:url(#gradient28)"
        d="M2.37 8.24C3 7 2 5.87 4.24 5C5.9 4.34 6.61 1.73 8.74 3.24C10.87 4.74 13 5.61 13 5.61C13 5.61 13.74 5.61 12.5 7C11.24 8.37 11.5 8.87 9.74 9.61C8 10.37 8.01 10.25 6.11 9.74C4.74 9.37 1.23 11.74 1.23 11.74C1.23 11.74 1.85 9.24 2.37 8.24z"
        transform="matrix(0.3533,0.8473,-0.7415,0.4037,14.1796,1.2435)"
  />
  <linearGradient id="gradient29" gradientUnits="userSpaceOnUse" x1="128.68" y1="-63.3" x2="127.76" y2="64.68">
   <stop offset="0.3019" stop-color="#d20b01"/>
   <stop offset="1" stop-color="#a30b04"/>
  </linearGradient>
  <path style="fill:url(#gradient29)"
        d="M2.37 8.24C3 7 2 5.87 4.24 5C5.9 4.34 6.61 1.73 8.74 3.24C10.87 4.74 13 5.61 13 5.61C13 5.61 13.74 5.61 12.5 7C11.24 8.37 11.5 8.87 9.74 9.61C8 10.37 8.01 10.25 6.11 9.74C4.74 9.37 1.23 11.74 1.23 11.74C1.23 11.74 1.85 9.24 2.37 8.24z"
        transform="matrix(0.5727,-0.818,0.6002,0.3897,8.8569,13.313)"
  />
  <path style="fill:#d20b01"
        d="M2.37 8.24C3 7 2 5.87 4.24 5C5.9 4.34 6.61 1.73 8.74 3.24C10.87 4.74 13 5.61 13 5.61C13 5.61 13.74 5.61 12.5 7C11.24 8.37 11.5 8.87 9.74 9.61C8 10.37 8.01 10.25 6.11 9.74C4.74 9.37 1.23 11.74 1.23 11.74C1.23 11.74 1.85 9.24 2.37 8.24z"
        transform="matrix(0.7626,0,0,0.7807,5.5531,22.2502)"
  />
  <linearGradient id="gradient30" gradientUnits="userSpaceOnUse" x1="-64" y1="-64" x2="64" y2="-64">
   <stop offset="0" stop-color="#d20b01"/>
   <stop offset="1" stop-color="#920a03"/>
  </linearGradient>
  <path style="fill:url(#gradient30)"
        d="M2.37 8.24C3 7 2 5.87 4.24 5C5.9 4.34 6.61 1.73 8.74 3.24C10.87 4.74 13 5.61 13 5.61C13 5.61 13.74 5.61 12.5 7C11.24 8.37 11.5 8.87 9.74 9.61C8 10.37 8.01 10.25 6.11 9.74C4.74 9.37 1.23 11.74 1.23 11.74C1.23 11.74 1.85 9.24 2.37 8.24z"
        transform="matrix(0.9246,0.2401,-0.2826,0.7856,26.9338,3.7172)"
  />
  <linearGradient id="gradient31" gradientUnits="userSpaceOnUse" x1="-63.56" y1="-64.42" x2="64.42" y2="-63.85">
   <stop offset="0.5098" stop-color="#b20c04"/>
   <stop offset="0.6" stop-color="#d20b01"/>
  </linearGradient>
  <path style="fill:url(#gradient31)"
        d="M2.37 8.24C3 7 2 5.87 4.24 5C5.9 4.34 6.61 1.73 8.74 3.24C10.87 4.74 13 5.61 13 5.61C13 5.61 13.74 5.61 12.5 7C11.24 8.37 11.5 8.87 9.74 9.61C8 10.37 8.01 10.25 6.11 9.74C4.74 9.37 1.23 11.74 1.23 11.74C1.23 11.74 1.85 9.24 2.37 8.24z"
        transform="matrix(0.6817,-0.6958,0.6516,0.5502,27.2805,9.0413)"
  />
  <linearGradient id="gradient32" gradientUnits="userSpaceOnUse" x1="-64" y1="-64" x2="64" y2="-64">
   <stop offset="0.2117" stop-color="#801611"/>
   <stop offset="0.8313" stop-color="#eb1106"/>
  </linearGradient>
  <path style="fill:url(#gradient32)"
        d="M2.37 8.24C3 7 2 5.87 4.24 5C5.9 4.34 6.61 1.73 8.74 3.24C10.87 4.74 13 5.61 13 5.61C13 5.61 13.74 5.61 12.5 7C11.24 8.37 11.5 8.87 9.74 9.61C8 10.37 8.01 10.25 6.11 9.74C4.74 9.37 1.23 11.74 1.23 11.74C1.23 11.74 1.85 9.24 2.37 8.24z"
        transform="matrix(0.8357,-0.5737,0.5709,0.7127,35.6421,20.7145)"
  />
  <linearGradient id="gradient33" gradientUnits="userSpaceOnUse" x1="-64" y1="-64" x2="64" y2="-64">
   <stop offset="0" stop-color="#d20b01"/>
   <stop offset="1" stop-color="#d20b01"/>
  </linearGradient>
  <path style="fill:url(#gradient33)"
        d="M29.11 9.11C31.11 7.74 29.61 7.5 33 7C36.36 6.5 37.74 5.61 39.1 6.74C40.5 7.87 41.6 8.24 42.6 8.61C43.6 9 44.6 9.5 41.24 10C37.86 10.5 39.1 11.5 36.74 11.74C34.36 12 34.86 12.11 32.74 11.5C30.61 10.87 27 12.11 27 12.11C27 12.11 27.11 10.5 29.11 9.11z"
        transform="matrix(-0.4038,-0.8784,0.7041,-0.3237,21.5163,59.1585)"
  />
  <linearGradient id="gradient34" gradientUnits="userSpaceOnUse" x1="-64" y1="-64" x2="64" y2="-64">
   <stop offset="0" stop-color="#d20b01"/>
   <stop offset="1" stop-color="#b60d04"/>
  </linearGradient>
  <path style="fill:url(#gradient34)"
        d="M29.11 9.11C31.11 7.74 29.61 7.5 33 7C36.36 6.5 37.74 5.61 39.1 6.74C40.5 7.87 41.6 8.24 42.6 8.61C43.6 9 44.61 9.56 41.24 10C31.62 11.25 39.1 11.5 36.74 11.74C34.36 12 34.86 12.11 32.74 11.5C30.61 10.87 27 12.11 27 12.11C27 12.11 27.11 10.5 29.11 9.11z"
        transform="matrix(0.8295,0.4966,-0.4966,0.8295,-5.9674,-9.1175)"
  />
  <linearGradient id="gradient35" gradientUnits="userSpaceOnUse" x1="-64" y1="-64" x2="64" y2="-64">
   <stop offset="0" stop-color="#d20b01"/>
   <stop offset="1" stop-color="#c10e05"/>
  </linearGradient>
  <path style="fill:url(#gradient35)"
        d="M29.11 9.11C31.11 7.74 29.61 7.5 33 7C36.36 6.5 37.74 5.61 39.1 6.74C40.5 7.87 41.6 8.24 42.6 8.61C43.6 9 44.6 9.5 41.24 10C37.86 10.5 39.1 11.5 36.74 11.74C34.36 12 34.86 12.11 32.74 11.5C30.61 10.87 27 12.11 27 12.11C27 12.11 27.11 10.5 29.11 9.11z"
        transform="matrix(0.0179,-0.5431,0.9187,0.0659,21.3997,27.0636)"
  />
  <linearGradient id="gradient36" gradientUnits="userSpaceOnUse" x1="128.12" y1="127.87" x2="0.12" y2="128.04">
   <stop offset="0.6392" stop-color="#a80c04"/>
   <stop offset="0.8235" stop-color="#d20b01"/>
  </linearGradient>
  <path style="fill:url(#gradient36)"
        d="M29.11 9.11C31.11 7.74 29.61 7.5 33 7C36.36 6.5 37.74 5.61 39.1 6.74C40.5 7.87 41.6 8.24 42.6 8.61C43.6 9 44.6 9.5 41.24 10C37.86 10.5 39.1 11.5 36.74 11.74C34.36 12 34.86 12.11 32.74 11.5C30.61 10.87 27 12.11 27 12.11C27 12.11 27.11 10.5 29.11 9.11z"
        transform="matrix(-0.7589,0.6566,-0.5866,-0.6494,75.4326,0.1789)"
  />
  <linearGradient id="gradient37" gradientUnits="userSpaceOnUse" x1="127.92" y1="128.07" x2="-0.07" y2="127.97">
   <stop offset="0.6666" stop-color="#b80d04"/>
   <stop offset="0.7843" stop-color="#ce0f05"/>
  </linearGradient>
  <path style="fill:url(#gradient37)"
        d="M29.11 9.11C31.11 7.74 29.61 7.5 33 7C36.36 6.5 37.74 5.61 39.1 6.74C40.5 7.87 41.6 8.24 42.6 8.61C43.6 9 44.6 9.5 41.24 10C37.86 10.5 39.1 11.5 36.74 11.74C34.36 12 34.86 12.11 32.74 11.5C30.61 10.87 27 12.11 27 12.11C27 12.11 27.11 10.5 29.11 9.11z"
        transform="matrix(-0.712,-0.5872,0.7731,-0.9373,61.9594,55.4421)"
  />
  <linearGradient id="gradient38" gradientUnits="userSpaceOnUse" x1="127.01" y1="128.97" x2="-0.97" y2="127.66">
   <stop offset="0.5882" stop-color="#d20b01"/>
   <stop offset="0.7529" stop-color="#ad0c04"/>
  </linearGradient>
  <path style="fill:url(#gradient38)"
        d="M38.5 16C37.74 17.74 37.74 17.61 38.36 19.11C39 20.61 39.36 20.61 41 21.5C42.6 22.37 43.5 22.24 45.36 22.5C47.24 22.74 47.5 22.61 48.6 22.11C49.74 21.61 51.24 22.74 49.1 19.5C47 16.24 47.36 15.37 45.74 14.37C44.1 13.37 43.24 13.87 41.1 13C39 12.11 39 11.87 38.74 12.87"
        transform="matrix(-0.1161,0.6527,-0.6399,-0.1744,44.1058,-9.4307)"
  />
  <linearGradient id="gradient39" gradientUnits="userSpaceOnUse" x1="-64" y1="-64" x2="64" y2="-64">
   <stop offset="0.545" stop-color="#d20b01"/>
   <stop offset="1" stop-color="#b40d04"/>
  </linearGradient>
  <path style="fill:url(#gradient39)"
        d="M38.5 16C37.74 17.74 37.74 17.61 38.36 19.11C39 20.61 39.36 20.61 41 21.5C42.6 22.37 43.5 22.24 45.36 22.5C47.24 22.74 47.5 22.61 48.6 22.11C49.74 21.61 51.24 22.74 49.1 19.5C47 16.24 47.36 15.37 45.74 14.37C44.1 13.37 43.24 13.87 41.1 13C39 12.11 39 11.87 38.74 12.87"
        transform="matrix(-0.4134,0.6628,-0.3354,-0.2489,63.059,3.3267)"
  />
  <linearGradient id="gradient40" gradientUnits="userSpaceOnUse" x1="-64" y1="-64" x2="64" y2="-64">
   <stop offset="0.5647" stop-color="#b00c04"/>
   <stop offset="1" stop-color="#cc0e05"/>
  </linearGradient>
  <path style="fill:url(#gradient40)"
        d="M38.5 16C37.74 17.74 37.74 17.61 38.36 19.11C39 20.61 39.36 20.61 41 21.5C42.6 22.37 43.5 22.24 45.36 22.5C47.24 22.74 47.5 22.61 48.6 22.11C49.74 21.61 51.24 22.74 49.1 19.5C47 16.24 47.36 15.37 45.74 14.37C44.1 13.37 43.24 13.87 41.1 13C39 12.11 39 11.87 38.74 12.87"
        transform="matrix(0.6905,0,0,0.6112,-4.5301,11.9079)"
  />
  <path style="fill:#d1bb05"
        d="M1.5 24.74C2.5 24.87 5 26.74 4.74 27.87C4.5 29 3 31.5 1.87 31.37C0.74 31.24 -2 29.87 -2 28.87C-2 27.87 0.5 24.61 1.5 24.74z"
        transform="matrix(0.4506,0,0,0.4743,12.5678,11.696)"
  />
  <path style="fill:#bdaa05"
        d="M1.5 24.74C2.5 24.87 5 26.74 4.74 27.87C4.5 29 3 31.5 1.87 31.37C0.74 31.24 -2 29.87 -2 28.87C-2 27.87 0.5 24.61 1.5 24.74z"
        transform="matrix(0.5376,0,0,0.5108,16.1425,0.52)"
  />
  <path style="fill:#bca905"
        d="M1.5 24.74C2.5 24.87 5 26.74 4.74 27.87C4.5 29 3 31.5 1.87 31.37C0.74 31.24 -2 29.87 -2 28.87C-2 27.87 0.5 24.61 1.5 24.74z"
        transform="matrix(0.5734,0,0,0.4925,30.5962,-0.4787)"
  />
  <path style="fill:#b5a309"
        d="M1.5 24.74C2.5 24.87 5 26.74 4.74 27.87C4.5 29 3 31.5 1.87 31.37C0.74 31.24 -2 29.87 -2 28.87C-2 27.87 0.5 24.61 1.5 24.74z"
        transform="matrix(0.5555,0,0,0.602,28.8684,7.9312)"
  />
  <path style="fill:#b4a20e"
        d="M1.5 24.74C2.5 24.87 5 26.74 4.74 27.87C4.5 29 3 31.5 1.87 31.37C0.74 31.24 -2 29.87 -2 28.87C-2 27.87 0.5 24.61 1.5 24.74z"
        transform="matrix(0.4661,0,0,0.456,41.0173,8.6426)"
  />
  <path style="fill:#000000; fill-opacity:0.3686"
        d="M12.74 21.37C12.74 21.37 16.87 24.37 13.24 24.61C12.23 24.67 11.5 25.61 11.5 25.61C11.5 25.61 11.09 26.32 11.61 27.61C12.11 28.87 13.24 30.11 13.24 30.11H12.37C12.37 30.11 11.61 30.11 10.74 29.37C9.98 28.71 8.87 28 8.87 27C8.87 26 9.24 24.87 9.5 24.37C9.74 23.87 11.37 22.87 11.37 22.87L12.74 21.37z"
        transform="matrix(0.9668,0,0,0.9668,1.8935,-0.0112)"
  />
  <path style="fill:#000000; fill-opacity:0.3686"
        d="M16 11.24C14 8.5 13.61 11.11 13.11 13.5C12.82 14.86 11.74 16 11.87 17C12 18 13.24 17.87 13.24 17.87C13.24 17.87 13.87 18.74 14.24 18.37C15.35 17.25 14.61 15.37 14.61 15.37C14.24 14.11 14.61 13.24 15.24 12.87C15.87 12.5 16.61 12.11 16 11.24z"
        transform="matrix(0.9668,0,0,0.9668,1.8935,-0.0112)"
  />
  <path style="fill:#000000; fill-opacity:0.3686"
        d="M28.61 5.5C28.61 5.5 29.42 5.44 30 7.24C30.74 9.61 29.13 10.94 28.11 11.24C27.24 11.5 27.61 9.61 27.61 9.61C27.61 9.61 27.12 8.65 27.37 7.5"
        transform="matrix(0.9668,0,0,0.9668,1.8935,-0.0112)"
  />
  <path style="fill:#000000; fill-opacity:0.3686"
        d="M25.24 21.74C26.37 22 27.19 22.64 27.61 23.11C28.87 24.5 28.24 25.61 28 26.24C27.74 26.87 27.87 27.11 28.37 27.61C29.87 29.11 31 31 27.74 31.11C26.46 31.15 26.24 32.86 25.61 32.74C25 32.6 26.5 29.87 26.5 29.61C26.5 29.37 26.1 28.23 26 27.74C25.37 25.11 25.37 23.61 25.37 23.61C25.37 23.61 24.5 23.37 24.5 22.87C24.5 22.37 24.11 21.5 25.24 21.74z"
        transform="matrix(0.9668,0,0,0.9668,1.8935,-0.0112)"
  />
  <path style="fill:#000000; fill-opacity:0.3686"
        d="M38.86 25.5C39.15 26.06 40.27 25.52 41.1 26.37C41.86 27.11 42.01 28.61 42.6 28.87C43.5 29.24 44.21 27 43.74 26.37C43 25.37 41.84 24.48 41.36 24.37C39.24 23.87 40.1 23.5 40.1 23.11C40.1 22.74 40 22.37 40.36 21.5C40.56 21 41.24 20.37 41.24 20.37C41.24 20.37 41.5 18.5 42 17.87C42.82 16.82 43.36 16.37 43.36 16.37L42.36 15.5C42.36 15.5 42.24 16 41.24 17.24C40.74 17.86 40 18 39.5 18.87C39 19.74 38.1 23.61 38.1 23.61C38.1 23.61 38.5 24.74 38.86 25.5z"
        transform="matrix(0.9668,0,0,0.9668,1.8935,-0.0112)"
  />
  <path style="fill:#000000; fill-opacity:0.3686"
        d="M23.5 4.24C23.5 4.24 23.76 5.87 23.87 7.37C24 9.24 24.37 10.37 24.37 10.37L19.11 11L18.87 9.37C18.87 9.37 19.87 8 20.61 6.24C21 5.37 23.5 4.24 23.5 4.24z"
        transform="matrix(0.9668,0,0,0.9668,1.8935,-0.0112)"
  />
  <path style="fill:#000000; fill-opacity:0.3686"
        d="M25.87 33.24C26 34.5 27.61 36.1 27.61 36.1C27.61 36.1 28.5 35.53 28.87 34.74C29.37 33.6 28.87 31.87 28.87 31.87L27.5 30.37"
        transform="matrix(0.9668,0,0,0.9668,1.8935,-0.0112)"
  />
  <path style="fill:#000000; fill-opacity:0.3686"
        d="M51.6 19.87C51.6 21 52 21.5 51.6 22.5C51.24 23.5 50.36 24.61 49.6 24.87C48.86 25.11 47.24 26.11 47.24 26.11L46.74 24.37C46.74 24.37 47.6 24.5 48.5 23.61C49.36 22.74 50.36 22.74 50.36 21.74C50.36 20.74 49.86 19.37 49.86 19.37"
        transform="matrix(0.9668,0,0,0.9668,1.8935,-0.0112)"
  />
  <path style="fill:#000000; fill-opacity:0.3686"
        d="M36.24 34.86C36.74 33.36 38.1 33.24 38.1 33.24L39.86 32.74C39.86 32.74 40.36 32.36 41.1 31.5C41.86 30.61 41.24 29.61 41.24 29.61L39.1 30.87C39.1 30.87 38.74 31.87 37.74 32.1C36.74 32.36 35.5 32.24 35.5 32.24L35 34C35 34 35.74 36.36 36.24 34.86z"
        transform="matrix(0.9668,0,0,0.9881,1.8935,-0.7612)"
  />
  <path style="fill:#000000; fill-opacity:0.3686"
        d="M27.11 19.24C25.87 20 24.37 20.24 24.37 20.24C24.37 20.24 24.61 20.87 25.61 21.24C26.61 21.61 27.5 20.61 27.5 20.61C27.5 20.61 28.37 18.5 27.11 19.24z"
        transform="matrix(0.9668,0,0,0.9668,1.8935,-0.0112)"
  />
  <path style="fill:#000000; fill-opacity:0.3686"
        d="M33.74 27.11C34.74 26.61 36.24 25.37 36.24 25.37C36.24 25.37 36.36 26.87 36.24 27C36.1 27.11 35 28.87 35 28.87C35 28.87 32.74 27.61 33.74 27.11z"
        transform="matrix(1.0094,0,0,1.1049,0.4669,-3.2744)"
  />
  <path style="fill:#000000; fill-opacity:0.3686"
        d="M16.87 33.86C16.87 33.86 18.11 33.74 19 33.24C19.87 32.74 18.24 31.74 18.24 31.74"
        transform="matrix(0.9668,0,0,0.9668,1.8935,-0.0112)"
  />
  <path style="fill:#000000; fill-opacity:0.3686"
        d="M19.24 37.74C19.24 37.74 21.87 38.24 23 38C24.11 37.74 25 37 25.61 36.5C26.24 36 25.87 34.6 25.87 34.6L24.87 34L22.87 35.1L22.24 36L20.11 36.36L19.24 37.74z"
        transform="matrix(0.9668,0,0,0.9668,1.8935,-0.0112)"
  />
  <path style="fill:#000000; fill-opacity:0.3686"
        d="M31.24 38.36L32.24 39.1L34.1 38.6L35 37.5L33.24 35.74L32.74 37.86L31.24 38.36z"
        transform="matrix(0.9668,0,0,0.9668,2.0073,0.3489)"
  />
  <path style="fill:#000000; fill-opacity:0.3686"
        d="M11.87 34.1C12.87 33.24 12.59 33.5 14 33.5C15.24 33.5 14.87 34.86 14.87 34.86C14.87 34.86 14.87 34.6 13.37 35.1C11.87 35.6 12.74 36.36 12.74 36.36"
        transform="matrix(0.9668,0,0,0.9668,1.8935,-0.0112)"
  />
  <path style="fill:#000000; fill-opacity:0.3686"
        d="M41.74 33.1C41.74 33.1 42 34.74 41.36 35.24C40.74 35.74 39.74 36.6 39.1 36.5C38.5 36.36 36.5 37.36 37.1 37.1C37.59 36.92 35.5 37.24 35.5 37.24C35.5 37.24 36.5 36 36.86 35.74C37.24 35.5 38.86 35 39.36 35C39.86 35 40.86 34 40.86 34L41.74 33.1z"
        transform="matrix(0.9668,0,0,0.9668,2.377,0.1024)"
  />
  <linearGradient id="gradient41" gradientUnits="userSpaceOnUse" x1="-64" y1="-64" x2="64" y2="-64">
   <stop offset="0.6666" stop-color="#000000" stop-opacity="0"/>
   <stop offset="1" stop-color="#000000" stop-opacity="0.8156"/>
  </linearGradient>
  <path style="fill:url(#gradient41)"
        d="M9.11 34.1C9.11 34.1 7.59 35.03 6.24 32.86C5.61 31.87 4.7 33.69 3.87 34.5C0.74 37.5 2 33.24 2.87 31.61C3.4 30.6 3.37 30.11 4.11 29.37C4.87 28.61 5.74 27.87 6.37 27.24C7 26.61 7.5 25 7.5 25C7.5 25 6.2 24.34 5.11 23.37C4 22.37 3.74 21.5 2.87 21.5C2 21.5 2.63 21.04 3.87 20.5C5.24 19.87 5.37 20.37 6.11 19.5C6.87 18.61 5.37 17.87 5.11 17.74C4.87 17.61 4.74 17.5 4.24 15.87C3.74 14.24 3.74 14.55 3.11 11.74C2.87 10.61 7 12.61 6.87 10.61C6.73 8.5 3.74 8.24 3.5 7.24C3.24 6.24 6 7.74 5.87 7.11C5.74 6.5 6.24 5.61 8 5.61C9.11 5.61 11 7.5 11 7.5C11 7.5 10.5 8 12.61 7.61C14.26 7.33 13.87 7 15 6C16.11 5 16.61 4.87 16.61 4.87C16.61 4.87 18 5.61 18 6.74C18 7.87 19.61 8.5 19.61 8.5C19.61 8.5 19.87 6.87 20 5.11C20.09 3.61 21.24 2.74 21.74 3.24C22.24 3.74 22.37 2.74 22.87 1.73C23.37 0.74 24.74 0.6 25.24 1.6C26 3.11 25.5 4.24 25.74 5.24C26 6.24 27.11 6.5 27.11 5.87C27.11 5.24 28.1 4 29 4C29.61 4 29.24 5.61 29.87 6.24C30.37 6.74 31.77 7.55 32.24 6.87C32.74 6.11 33 6.24 33.36 5.11C33.64 4.27 33.55 4.39 34.5 4C35.36 3.61 35.5 3.5 36.5 2.87C37.5 2.24 37.86 1.73 38.24 2.5C38.6 3.24 38.6 3.74 38.6 5.24C38.6 6.74 39 7.37 37.86 8.24C36.74 9.11 38.36 9.74 38.6 9.74C38.86 9.74 39.86 8.5 41 8.37C42.1 8.24 42.6 7.74 44.1 7.74C45.94 7.74 44 10.11 44.1 10.37C44.24 10.61 44.6 12.11 44.86 11.87C45.1 11.61 45.6 11.5 46.5 11C47.36 10.5 47.24 11.37 47.1 12.24C46.96 13.35 46.1 13.11 46.1 14C46.1 14.87 46.7 15.51 46.1 16C45.5 16.5 45.1 17.87 45.1 17.87C45.1 17.87 45.36 18.24 47.24 17.87C49.1 17.5 48.6 18.74 48.6 18.74C48.6 18.74 49.15 19.02 50.5 19.37C51.5 19.61 52.6 20 52.6 20C52.6 20 52.31 21.34 52 22C50.74 24.5 51.58 22.57 51.24 24C51 25 50.59 25.38 49.6 27.37C49.1 28.37 49 29.24 49 29.24C49 29.24 50.36 29.24 50.86 29.5C51.36 29.74 50.24 30.11 50.24 30.11C50.24 30.11 49.24 30.5 46.86 30.74C44.5 31 42.5 32 42 32.24C41.5 32.5 40.5 34.6 40.5 34.6C40.5 34.6 38.59 34.5 37.24 35.5C36.36 36.1 37 37.1 36.1 37.36C35.24 37.6 35.5 36.86 34.24 35.86C33 34.86 32.47 35.04 32.86 36.1C33.24 37.1 33.74 38.36 32.5 38.24C31.24 38.1 29.61 37.86 28.74 37.36C27.87 36.86 27.37 36.74 26.74 35.86C26.11 35 25.61 33 25.61 33C25.61 33 25.24 33.5 24.5 34C23.74 34.5 22.87 34.36 22.24 35.1C21.61 35.86 20.87 36.24 19.5 36.24C18.11 36.24 17.11 35.74 16.24 36.1C15.37 36.5 13.5 36.1 14.37 35.5C15.24 34.86 16.87 34 16 33.74C15.11 33.5 14.85 34.03 13.5 33.36C12.5 32.86 12.74 33.36 11.74 33.86C10.74 34.36 9.11 34.1 9.11 34.1z"
        transform="matrix(0.9844,0,0,0.9606,2.3157,0.2092)"
  />
  <path style="fill:#000000; fill-opacity:0.3686"
        d="M38.24 25.5C38.24 27.24 41.74 28.24 42.1 29.24C42.5 30.24 43.74 30.74 43.5 31.24C43.24 31.74 43.5 34.36 43.1 35C42.74 35.6 40 38.24 39.36 38.24C38.74 38.24 37.5 39.24 36.74 39.36C36 39.5 34.6 38.86 34.6 38.24C34.6 37.6 34.99 35.5 34.86 34.6C34.82 34.38 35.6 31.62 35.5 29.74C35.4 28.35 34.52 28.63 34.5 28.11C34.36 26.5 38.24 21.58 38.24 25.5z"
        transform="matrix(0.9668,0,0,0.9668,1.8935,-0.0112)"
  />
  <path style="fill:none; stroke:#000000; stroke-width:1"
        d="M29.37 16.24C29.37 16.24 29 17 28.5 17.5C28 18 27.5 19 27.5 19C27.5 19 28.24 19.61 29 19.61C29.74 19.61 30.74 19.11 31.11 19.24C31.5 19.37 31.61 18.61 31.61 18.24C31.61 17.87 31.37 17.37 31.37 17.37C31.37 17.37 31.11 17 30.87 16.61C30.61 16.24 29.37 16.24 29.37 16.24z"
        transform="matrix(0.9668,0,0,0.9668,2.8604,-0.0112)"
  />
  <path style="fill:none; stroke:#000000; stroke-width:1"
        d="M15 20.24C15 20.24 15.61 20.87 16.24 21.61C16.87 22.37 17.27 22.39 18.11 22.5C19.24 22.61 19.37 22.61 19.37 22.61C19.37 22.61 19.74 22.24 19.74 21C19.74 20.24 19 20.24 18.5 19.87C17.59 19.19 16.5 19.87 16.5 19.87L15 19.11V20.24z"
        transform="matrix(0.9668,0,0,1.069,2.8604,-2.3748)"
  />
  <path style="fill:#9e0404"
        d="M39.5 9L41.75 9.25L40.25 11.62L39.5 9z"
        transform="matrix(0.547,-1.2886,1.0293,0.437,8.3467,57.906)"
  />
 </g>
</svg>
