<?xml version="1.0" encoding="UTF-8" standalone="yes"?>
<svg version="1.1" width="64" height="64" color-interpolation="linearRGB"
     xmlns:svg="http://www.w3.org/2000/svg" xmlns="http://www.w3.org/2000/svg">
 <g>
  <path style="fill:none; stroke:#000000; stroke-width:3"
        d="M32.02 5.91C42.03 5.91 50.14 14.02 50.14 24.03C50.14 34.04 42.03 42.15 32.02 42.15C22.01 42.15 13.9 34.04 13.9 24.03C13.9 14.02 22.01 5.91 32.02 5.91z"
        transform="matrix(1.3688,0,0,1.3622,-11.4556,-0.8311)"
  />
  <radialGradient id="gradient0" gradientUnits="userSpaceOnUse" cx="0" cy="0" r="64" gradientTransform="matrix(0.3803,0,0,-0.3803,23.5321,21.0147)">
   <stop offset="0.1931" stop-color="#33ffff"/>
   <stop offset="0.7878" stop-color="#0066ff"/>
   <stop offset="1" stop-color="#0034cc"/>
  </radialGradient>
  <path style="fill:url(#gradient0)"
        d="M32.02 5.91C42.03 5.91 50.14 14.02 50.14 24.03C50.14 34.04 42.03 42.15 32.02 42.15C22.01 42.15 13.9 34.04 13.9 24.03C13.9 14.02 22.01 5.91 32.02 5.91z"
        transform="matrix(1.3688,0,0,1.3622,-11.4556,-0.8311)"
  />
  <path style="fill:none; stroke:#000000; stroke-width:1"
        d="M41.5 59.37C41.5 59.37 43.89 60.47 45.62 60C47 59.62 48.44 58.08 49 57.25C49.75 56.12 49.75 54.12 49.75 54.12L50.12 52.5"
        transform="matrix(1.0553,-0.0929,0.0929,1.0553,-6.0306,-1.2938)"
  />
  <path style="fill:none; stroke:#000000; stroke-width:1"
        d="M53.87 46.75C53.87 46.75 54.77 48.26 54 49.5C53.37 50.5 49.5 51.12 49.5 51.12"
        transform="matrix(1.0594,0,0,1.0594,-1.5484,-6.0027)"
  />
  <path style="fill:none; stroke:#000000; stroke-width:4"
        d="M59.68 19.37C60.32 18.43 60.37 13.25 57.87 9.37C56.33 6.98 53.62 6.25 53.62 6.25C53.62 6.25 55.87 10.87 56 11.87C56.24 13.86 53.21 15.73 52.37 17C52.08 17.43 48.75 19 47.37 20.37C44.3 23.44 47.07 25.45 47.37 25.75C48.12 26.5 49.35 23.71 49.12 25.12C48.12 31.17 43.06 42.27 45.56 45.25C45.91 45.66 48.31 45.62 49.18 45.62C49.59 45.62 47.76 42.85 48.75 42.75C49.32 42.68 49.92 45.09 50.68 45.5C51.42 45.88 53.01 45.01 53.18 45C54.68 44.85 58.37 40.75 55.68 38.75C54.62 37.95 51.13 39.21 50.18 38.62C49.18 38 53.59 35.11 53.87 34C53.96 33.64 56.75 34.25 57.31 32.75C57.49 32.26 56.03 31.35 56.31 30.37C56.44 29.91 53.86 33 54.06 31.37C54.43 28.25 55.87 25 59.68 19.37z"
        transform="matrix(1.1302,0.2937,-0.3283,0.9344,-1.7546,-1.233)"
  />
  <linearGradient id="gradient1" gradientUnits="userSpaceOnUse" x1="-64.82" y1="-36.11" x2="60.84" y2="-43.76">
   <stop offset="0.1764" stop-color="#00f3fc"/>
   <stop offset="0.0753" stop-color="#020fff"/>
   <stop offset="0.204" stop-color="#90fbff"/>
   <stop offset="0.2187" stop-color="#ffffff"/>
  </linearGradient>
  <path style="fill:url(#gradient1)"
        d="M53.93 22.93C53.93 22.93 58.62 30 52.25 31.87C51.44 32.11 51.78 32.19 50.25 32.62C45.37 34 48.25 32.62 47.12 33.12C44.66 34.21 42.75 35.25 42.75 35.25C42.75 35.25 45.8 35.31 48.75 36.25C51.5 37.12 49.12 43.87 49.12 43.87L47.62 46C47.62 46 42.99 48.37 35.87 52.37C35.32 52.68 35.35 53.32 36.12 53.75C37.13 54.3 38.48 55.24 40.5 55.37C48.5 55.87 40.46 55.78 40.37 54.87C40.25 53.62 40.62 52.28 40.87 52.12C41.52 51.71 41.05 52.85 41.62 53.62C42.26 54.48 43.31 55.29 44.25 55.87C45.62 56.72 48.94 54.63 49.12 54C50.87 47.87 48.23 53.65 46.12 52.25C43.87 50.75 45.92 49.01 47.87 47.5C49 46.62 48.87 49.37 52.62 46.87C54.66 45.51 53.25 43.37 53.25 43.37C53.25 43.37 52.55 44.88 51.87 44.62C48.93 43.5 51.43 42 52.56 40.62C54.03 38.82 57.51 38.04 58.5 36.75C61.25 33.12 59.47 29.06 59.12 28.12C58.35 26.06 56.5 25.25 56.5 25.25"
        transform="matrix(1.1389,0,0,1.1389,-6.5767,-7.2827)"
  />
  <linearGradient id="gradient2" gradientUnits="userSpaceOnUse" x1="-64" y1="-64" x2="64" y2="-64">
   <stop offset="0.9733" stop-color="#000000" stop-opacity="0.4196"/>
   <stop offset="1" stop-color="#000000" stop-opacity="0.2431"/>
  </linearGradient>
  <path style="fill:url(#gradient2)"
        d="M32 55.12L34.12 57.37C34.12 57.37 35.12 57.37 35.25 56.62C35.31 56.26 38.27 54.02 40.5 52.75C41.76 52.02 44.75 50.62 47 48.75C48.9 47.16 49.37 46.37 49.75 44.25C50.22 41.54 48.87 39.87 48.87 39.87"
        transform="matrix(1.0594,0,0,1.1956,-1.6808,-11.037)"
  />
  <path style="fill:none; stroke:#000000; stroke-width:4"
        d="M42.18 33.75C45.51 38.78 34.81 44.9 29 48.62C22.75 52.62 14.68 53.18 13.81 51.25C13.2 49.9 13.81 47.18 23.68 39.87C28.26 36.48 40.25 30.81 42.18 33.75z"
        transform="matrix(1.2622,0.1817,-0.1893,1.2118,1.1538,-11.9211)"
  />
  <path style="fill:none; stroke:#000000; stroke-width:1"
        d="M11.25 47.87C11.25 47.87 5.12 51.87 8.12 56.25C11.22 60.76 24.25 56.75 24.25 56.75"
        transform="matrix(1.0594,0,0,1.1006,-0.8862,-6.9896)"
  />
  <linearGradient id="gradient3" gradientUnits="userSpaceOnUse" x1="-64" y1="-64" x2="64" y2="-64">
   <stop offset="0.4788" stop-color="#fffc00"/>
   <stop offset="0.8704" stop-color="#ffba36"/>
  </linearGradient>
  <path style="fill:url(#gradient3)"
        d="M24.68 37.5C29.23 34.15 41.11 28.2 44.31 31.75C48.93 36.87 38.21 43.34 33.62 46.87C29.03 50.4 16.02 57.03 12.93 53.62C8.81 49.06 19.58 41.25 24.68 37.5z"
        transform="matrix(1.141,0.1566,-0.1711,1.0442,3.2552,-3.9231)"
  />
  <linearGradient id="gradient4" gradientUnits="userSpaceOnUse" x1="-64" y1="-64" x2="64" y2="-64">
   <stop offset="0.9733" stop-color="#000000" stop-opacity="0.4196"/>
   <stop offset="1" stop-color="#000000" stop-opacity="0.2431"/>
  </linearGradient>
  <path style="fill:url(#gradient4)"
        d="M23.68 50.93L34.06 49.18L40.18 47.18L42.31 45.93L43.31 44.68L43.43 41.43C43.43 41.43 38.19 40.91 37.43 40.18C37.22 39.98 35.86 42.35 33.56 42.68C31.28 43.01 26.43 43.62 26.43 43.62L25.81 45.12C25.81 45.12 28.06 45 28.31 45.37C29.09 46.55 26.93 46.5 26.93 46.5L23.68 50.93z"
        transform="matrix(0.8212,0,0,0.8212,4.4091,5.3263)"
  />
  <linearGradient id="gradient5" gradientUnits="userSpaceOnUse" x1="-64" y1="-64" x2="64" y2="-64">
   <stop offset="0.9733" stop-color="#000000" stop-opacity="0.4196"/>
   <stop offset="1" stop-color="#000000" stop-opacity="0.2431"/>
  </linearGradient>
  <path style="fill:url(#gradient5)"
        d="M48.62 42.62C48.96 44.46 41.62 43.62 40.87 44.37C39.91 45.33 36.06 46.25 36.06 46.25L36.56 40.75C36.56 40.75 40.95 40.31 41.75 41.25C42.81 42.5 48.37 41.25 48.62 42.62z"
        transform="matrix(1.0594,0,0,1.0594,-1.6808,-4.8108)"
  />
  <linearGradient id="gradient6" gradientUnits="userSpaceOnUse" x1="-64" y1="-64" x2="64" y2="-64">
   <stop offset="0.7371" stop-color="#6a4108"/>
   <stop offset="0.8676" stop-color="#8a6836"/>
  </linearGradient>
  <path style="fill:url(#gradient6)"
        d="M30.31 34.56C30.31 34.56 37.26 34.63 37.81 34.25C39.06 33.37 40.31 29.12 40.68 27.12C41.06 25.12 44.86 23.14 44.81 22.75C44.5 20.37 41.81 22 40.56 23.87C39.31 25.75 38.76 29.16 37.81 31.25C37.18 32.62 30.18 32.93 30.18 32.93L30.31 34.56z"
        transform="matrix(1.0594,0,0,1.0594,-1.6808,-4.8108)"
  />
  <path style="fill:none; stroke:#000000; stroke-width:1"
        d="M29 31.25C29 31.25 36.83 32.84 38.06 31.87C39.81 30.5 40.18 28.99 40.56 27C40.75 26 41.6 21.98 43.56 21.5C44.31 21.31 44.25 21.12 44.25 20.25C44.25 19.87 42.43 19.93 42.06 20.06C40.71 20.51 38.68 23.62 38.56 26.5C38.46 28.83 37.93 30.12 35.81 30.37C33.68 30.62 29.68 29.56 29.68 29.56L29 31.25z"
        transform="matrix(1.107,0,0,1.107,-3.6113,-3.7847)"
  />
  <path style="fill:none; stroke:#000000; stroke-width:3"
        d="M16.93 49.75C16.93 49.75 16.37 48.81 17.06 48C17.74 47.19 20.37 45.5 20.37 45.5L19.75 34.5V33.37L24.12 28.5L24.25 22.25L15.62 17.25C15.62 17.25 11.17 14.07 12.06 12.5C12.62 11.5 25.37 19.5 25.37 19.5L24.93 13.75C24.93 13.75 25.12 11.5 28 11.5C30.62 11.5 30.93 12.64 30.75 13.75C30.62 14.5 32.37 13.75 32.5 15C32.63 16.36 31.95 15.95 31.5 16.75C31 17.62 30.37 19.5 30.37 19.5L31.87 22.25L44 22.12C44 22.12 49.93 20.62 49.81 22.87C49.72 24.49 44.5 24.5 44.5 24.5L35 25L32.18 26.81L32.31 36.93C32.31 36.93 37.12 39.87 37.62 40.12C38.54 40.58 37.74 41.62 35.62 43.37C35.09 43.81 32.5 45.58 32.5 44.75C32.5 44.25 32.5 43 32.5 43L34 42.37L33.75 41L31.62 39.37H30.37L28.75 38.87L27.68 31.25L22.62 35.5L22.75 45.5C22.75 45.5 23.68 46.87 22.31 48.25C20.68 49.87 16.93 49.75 16.93 49.75z"
        transform="matrix(0.8478,0.0398,-0.0398,0.8478,8.3847,3.6808)"
  />
  <linearGradient id="gradient7" gradientUnits="userSpaceOnUse" x1="-89.82" y1="-38.89" x2="32.97" y2="-74.99">
   <stop offset="0.3042" stop-color="#8a6838"/>
   <stop offset="0.6075" stop-color="#6a4108"/>
  </linearGradient>
  <path style="fill:url(#gradient7)"
        d="M22.5 17.75L20.81 19.37L24.12 21.87L24.5 28.25L21.18 32.87L21.5 43.87L22.75 43.5L22.12 33.62L27.12 31.5L28.75 34.37L29.5 37.5L32.37 37.25L31.81 26.81C31.81 26.81 32.86 26.96 33.31 26.31C33.74 25.67 33.56 24.68 33.56 24.68L37 24.31L37.12 22.87L32.25 22.12L31.62 20.37C31.62 20.37 30.25 20.12 27.75 20.12C26.39 20.12 25.31 19.37 25.31 19.37L23.12 18.12L22.5 17.75z"
        transform="matrix(0.8478,0.0398,-0.0398,0.8478,8.3847,3.6808)"
  />
  <linearGradient id="gradient8" gradientUnits="userSpaceOnUse" x1="-89.82" y1="-38.89" x2="32.97" y2="-74.99">
   <stop offset="0.3042" stop-color="#8a6838"/>
   <stop offset="0.6075" stop-color="#6a4108"/>
  </linearGradient>
  <path style="fill:url(#gradient8)"
        d="M17 48.5L17.68 49.62C17.68 49.62 20.93 48.62 21.81 47.75C22.3 47.26 22.75 45.25 22.75 45.25L22.25 40.25L22.43 36.25L25.75 32.37L22.25 31L19.75 33.87L20.06 41.5L20 46.75L17 48.5z"
        transform="matrix(0.8478,0.0398,-0.0398,0.8478,8.3847,3.6808)"
  />
  <linearGradient id="gradient9" gradientUnits="userSpaceOnUse" x1="-89.82" y1="-38.89" x2="32.97" y2="-74.99">
   <stop offset="0.3042" stop-color="#8a6838"/>
   <stop offset="0.6075" stop-color="#6a4108"/>
  </linearGradient>
  <path style="fill:url(#gradient9)"
        d="M28.37 32.87L31.12 33L31.18 35.18L31.37 37L36 40C36 40 37.93 41.12 37.62 41.62C37.06 42.52 35.43 43.37 35.43 43.37L33.43 44.12L33.5 42.5L34 41L31.25 39.12L28.5 38.5L28.37 32.87z"
        transform="matrix(0.8478,0.0398,-0.0398,0.8478,8.3847,3.6808)"
  />
  <linearGradient id="gradient10" gradientUnits="userSpaceOnUse" x1="-89.82" y1="-38.89" x2="32.97" y2="-74.99">
   <stop offset="0.3042" stop-color="#8a6838"/>
   <stop offset="0.6075" stop-color="#6a4108"/>
  </linearGradient>
  <path style="fill:url(#gradient10)"
        d="M20.62 19.75L22.62 18.5L16.25 14.37C16.25 14.37 14.54 12.96 14.12 13.62C13.25 15 15.25 16.25 15.25 16.25L20.62 19.75z"
        transform="matrix(0.9357,0.0389,-0.044,0.8289,7.2226,4.073)"
  />
  <linearGradient id="gradient11" gradientUnits="userSpaceOnUse" x1="-89.82" y1="-38.89" x2="32.97" y2="-74.99">
   <stop offset="0.3042" stop-color="#8a6838"/>
   <stop offset="0.6075" stop-color="#6a4108"/>
  </linearGradient>
  <path style="fill:url(#gradient11)"
        d="M36.06 22.06L43.93 21.68L44.81 23.12L44.31 24.5L36.18 24.87L36.06 22.06z"
        transform="matrix(1.0489,0.0268,-0.0493,0.5717,1.4439,10.6108)"
  />
  <linearGradient id="gradient12" gradientUnits="userSpaceOnUse" x1="-89.82" y1="-38.89" x2="32.97" y2="-74.99">
   <stop offset="0.3042" stop-color="#8a6838"/>
   <stop offset="0.6075" stop-color="#6a4108"/>
  </linearGradient>
  <path style="fill:url(#gradient12)"
        d="M25.87 14L26.87 12.75H29.25L30.75 14L30.87 18.25C30.87 18.25 29.29 20.12 27.75 20.12C26.43 20.12 25.5 18.37 25.5 18.37L25.87 14z"
        transform="matrix(0.8478,0.0398,-0.0398,0.8478,8.3847,3.6808)"
  />
  <linearGradient id="gradient13" gradientUnits="userSpaceOnUse" x1="-89.82" y1="-38.89" x2="32.97" y2="-74.99">
   <stop offset="0.3042" stop-color="#8a6838"/>
   <stop offset="0.6075" stop-color="#6a4108"/>
  </linearGradient>
  <path style="fill:url(#gradient13)"
        d="M25 14.87L27.62 15L28 16.62L30 16.5L29.75 15.37L32.37 16.25L32.75 14.75C32.75 14.75 30.62 11.5 28.12 11.5C24.96 11.5 25 14.87 25 14.87z"
        transform="matrix(0.8478,0.0398,-0.0398,0.8478,8.3847,3.6808)"
  />
  <path style="fill:none; stroke:#000000; stroke-width:1"
        d="M24.25 18.25C24.25 18.25 25.61 20.77 27.12 21C29.62 21.37 30.87 18.12 30.87 18.12"
        transform="matrix(0.8478,0.0398,-0.0398,0.8478,8.3847,3.6808)"
  />
  <path style="fill:none; stroke:#000000; stroke-width:1"
        d="M8.87 28.62C8.87 28.62 7.61 31.36 7.5 33.37C7.38 35.41 8.42 36.73 8.87 37.25C10.62 39.25 13.37 40 13.37 40C13.37 40 12.56 40.45 11.25 40.75C10.12 41 7.62 40.5 7.62 40.5"
        transform="matrix(1.0174,0,0,1.0849,-1.6555,-7.4307)"
  />
  <path style="fill:none; stroke:#000000; stroke-width:4"
        d="M46.87 13.5C45.61 10.97 46 2 48 0C46 0 41.63 15.6 42.62 18.25C43.75 21.25 44.12 24.37 47.75 25.12C50.54 27.74 61.72 27.34 60.5 26.75C51.75 22.5 48.62 17 46.87 13.5z"
        transform="matrix(0.5588,0.1229,-0.1623,0.391,-19.9339,18.612)"
  />
  <path style="fill:none; stroke:#000000; stroke-width:1"
        d="M8 27.62C8 27.62 2.87 31 2.5 34.75C2.07 38.98 6.87 40.12 6.87 40.12"
        transform="matrix(1.0594,0,0,1.0594,-1.4159,-5.6054)"
  />
  <path style="fill:#000000; fill-opacity:0.4235"
        d="M32.43 37.62L36 40C36 40 37.93 41.12 37.62 41.62C37.06 42.52 35.43 43.37 35.43 43.37L33.43 44.12L33.06 42.5L35.18 41.5L29.68 39.5L32.43 37.62z"
        transform="matrix(0.8212,0,0,0.8212,4.4091,4.5318)"
  />
  <linearGradient id="gradient14" gradientUnits="userSpaceOnUse" x1="-64" y1="-64" x2="64" y2="-64">
   <stop offset="0.9733" stop-color="#000000" stop-opacity="0.4196"/>
   <stop offset="1" stop-color="#000000" stop-opacity="0.2431"/>
  </linearGradient>
  <path style="fill:url(#gradient14)"
        d="M41.37 24.62H49.5L48.25 25.87L40.75 26.12L41.37 24.62z"
        transform="matrix(0.7625,0,0,0.2346,6.7151,19.6389)"
  />
  <linearGradient id="gradient15" gradientUnits="userSpaceOnUse" x1="-64" y1="-64" x2="64" y2="-64">
   <stop offset="0" stop-color="#000000" stop-opacity="0"/>
   <stop offset="0.4319" stop-color="#000000" stop-opacity="0.396"/>
  </linearGradient>
  <path style="fill:none; stroke:url(#gradient15); stroke-width:2"
        d="M9.25 56.25C10.5 54.75 12.87 59.12 28.25 53C35.41 50.14 43.12 47.12 43.12 47.12L46.12 45.75C46.12 45.75 37.41 52.49 28.62 55.5C13.62 60.62 8.13 57.59 9.25 56.25z"
        transform="matrix(1.0594,0,0,1.0594,-1.6808,-4.5459)"
  />
  <path style="fill:#000000; fill-opacity:0.4196"
        d="M32.12 20.87C32.12 20.87 36.07 23.67 37.62 22.12C38 21.75 36.5 19.25 36.5 19.25C36.5 19.25 35.82 19.94 35 20.37C34.13 20.82 32.12 20.87 32.12 20.87z"
        transform="matrix(0.9878,0.1489,-0.1472,0.9763,1.0994,-2.8719)"
  />
  <linearGradient id="gradient16" gradientUnits="userSpaceOnUse" x1="-64" y1="-64" x2="64" y2="-64">
   <stop offset="0.3869" stop-color="#1fcaff"/>
   <stop offset="0.5101" stop-color="#03f6ff"/>
  </linearGradient>
  <path style="fill:url(#gradient16)"
        d="M8.12 29C8.12 29 6.12 29.75 3.68 34.18C2.55 36.25 4.02 37.39 5.83 38.22C9.12 39.75 11 39.37 11 39.37C11 39.37 6.25 37.5 6.37 34.12C6.41 32.94 8.12 29 8.12 29z"
        transform="matrix(1.0594,0,0,1.0594,-1.6808,-5.6054)"
  />
  <linearGradient id="gradient17" gradientUnits="userSpaceOnUse" x1="-64" y1="-64" x2="64" y2="-64">
   <stop offset="0" stop-color="#ffcb9c"/>
  </linearGradient>
  <path style="fill:url(#gradient17)"
        d="M17 48.5L17.68 49.62C17.68 49.62 20.5 49.25 21.37 48.37C21.86 47.88 21.81 46.75 21.81 46.75L19.81 47.12L17 48.5z"
        transform="matrix(1.0594,0,0,1.0594,2.4245,-6.1351)"
  />
  <path style="fill:#d6ad85"
        d="M35.62 40.75C35.62 40.75 37.5 41.62 37.31 41.93C36.76 42.84 35.43 43.37 35.43 43.37L33.37 44.62L32.37 43.87L33.62 42.75L35.25 41.62L35.62 40.75z"
        transform="matrix(1.0594,0,0,1.0594,-0.6213,-4.5459)"
  />
  <linearGradient id="gradient18" gradientUnits="userSpaceOnUse" x1="-64" y1="-64" x2="64" y2="-64">
   <stop offset="0" stop-color="#ffcb9c"/>
  </linearGradient>
  <path style="fill:url(#gradient18)"
        d="M16 14.12C16 14.12 15.16 13.59 14.75 14.25C13.87 15.62 15.37 16.12 15.37 16.12L16.12 17.12L17.37 15.25L16 14.12z"
        transform="matrix(0.8478,0.0018,-0.0018,0.8504,6.2815,3.2531)"
  />
  <path style="fill:#d6ad85"
        d="M40.37 21.62L43.81 21.5L44.81 23.12L44.31 24.5L41.25 24.75L40.37 21.62z"
        transform="matrix(0.6208,0,0,0.5704,21.1544,11.6209)"
  />
  <linearGradient id="gradient19" gradientUnits="userSpaceOnUse" x1="-64" y1="-64" x2="64" y2="-64">
   <stop offset="0" stop-color="#ffe5ce"/>
   <stop offset="0.817" stop-color="#ecb989"/>
  </linearGradient>
  <path style="fill:url(#gradient19)"
        d="M31.37 21.37C30.75 21.25 29.87 21.5 29.87 22.75C29.87 24 30.5 25.12 31 25.37C31.5 25.62 33.12 24.5 32.87 23.87C32.62 23.25 32 21.5 31.37 21.37z"
        transform="matrix(0.927,0,0,1.0268,1.4809,-4.3804)"
  />
  <path style="fill:#d6ad85"
        d="M34 20.37C34 20.37 34.52 21.16 34.5 21.87C34.46 22.66 33.5 22.87 33.5 22.87C33.5 22.87 33.33 22.51 32.73 21.55C31.97 20.35 34 20.37 34 20.37z"
        transform="matrix(0.9244,0,0,0.9536,2.7103,-2.3894)"
  />
  <linearGradient id="gradient20" gradientUnits="userSpaceOnUse" x1="-64" y1="-64" x2="64" y2="-64">
   <stop offset="0.9733" stop-color="#000000" stop-opacity="0.4196"/>
   <stop offset="1" stop-color="#000000" stop-opacity="0.2431"/>
  </linearGradient>
  <path style="fill:url(#gradient20)"
        d="M36.93 40.18C36.93 40.18 37.68 39.68 38.18 39.68C38.68 39.68 42.31 37.81 42.31 37.81C42.31 37.81 43.85 36.67 45 37C46.75 37.5 43.93 38.81 43.93 38.81L39.43 41.43"
        transform="matrix(1.0548,0.0985,-0.0985,1.0548,2.7831,-8.3849)"
  />
  <path style="fill:#158aaa"
        d="M9 28.12V29.87H10.87L11 28L9 28.12z"
        transform="matrix(0.4281,0,0,0.4281,4.0004,12.0698)"
  />
  <path style="fill:#26d7ff"
        d="M10 28V29.87H11.75L11.87 28H10z"
        transform="matrix(0.565,0,0,0.565,3.2632,8.2381)"
  />
  <path style="fill:none; stroke:#000000; stroke-width:1"
        d="M59.87 27.62C59.87 27.62 61.37 30.62 61.37 31.87C61.37 33.12 61.62 36.12 60.5 37.75C59.34 39.42 57.25 41.25 57.25 41.25"
        transform="matrix(1.0594,0,0,1.0594,-1.6808,-5.6054)"
  />
  <path style="fill:#282828"
        d="M37.87 57.12H39.87V59.12H37.75L37.87 57.12z"
        transform="matrix(0.4635,0,0,0.4635,22.0824,28.4379)"
  />
  <path style="fill:#156f8a"
        d="M8 33.12H10V35H7.87L8 33.12z"
        transform="matrix(0.5608,0,0,1.0594,2.2453,-5.6054)"
  />
  <path style="fill:none; stroke:#000000; stroke-width:1"
        d="M4.12 38.87C4.12 38.87 5.27 39.62 5.87 40C6.87 40.62 8.5 40.87 8.5 40.87"
        transform="matrix(1.0518,0.1267,-0.1267,1.0518,2.1499,-6.5124)"
  />
  <path style="fill:#2beaea"
        d="M16 16V48H48V16H16z"
        transform="matrix(-0.0312,0,0,0.0312,23.5,31.5)"
  />
  <path style="fill:#2beaea"
        d="M16 16V48H48V16H16z"
        transform="matrix(0.0312,0,0,0.0312,21.5,32.5)"
  />
  <path style="fill:#2beaea"
        d="M16 16V48H48V16H16z"
        transform="matrix(0.0312,0,0,0.0312,21.5,33.5)"
  />
  <path style="fill:#2beaea"
        d="M16 16V48H48V16H16z"
        transform="matrix(0.0312,0,0,0.0312,21.5,34.5)"
  />
  <path style="fill:#27d2ea"
        d="M16 16V48H48V16H16z"
        transform="matrix(0.0312,0,0,0.0312,21.5,35.5)"
  />
  <path style="fill:#8d6e14"
        d="M16 16V48H48V16H16z"
        transform="matrix(0.0312,0,0,0.0312,29.5,37.5)"
  />
  <path style="fill:#503b15"
        d="M16 16V48H48V16H16z"
        transform="matrix(0.0312,0,0,0.0312,38.5,26.5)"
  />
  <path style="fill:#382504"
        d="M16 16V48H48V16H16z"
        transform="matrix(0.0312,0,0,0.0312,39.5,26.5)"
  />
  <path style="fill:#00406d"
        d="M16 16V48H48V16H16z"
        transform="matrix(0.0312,0,0,0.0312,40.5,26.5)"
  />
  <path style="fill:#0077a5"
        d="M16 16V48H48V16H16z"
        transform="matrix(0.0312,0,0,0.0312,33.5,20.5)"
  />
  <path style="fill:#352200"
        d="M16 16V48H48V16H16z"
        transform="matrix(0.0312,0,0,0.0312,34.5,28.5)"
  />
  <path style="fill:#432b0e"
        d="M16 16V48H48V16H16z"
        transform="matrix(0.0312,0,0,0.0312,34.5,29.5)"
  />
  <path style="fill:#352200"
        d="M16 16V48H48V16H16z"
        transform="matrix(0.0312,0,0,0.0312,34.5,30.5)"
  />
  <path style="fill:#003f55"
        d="M16 16V48H48V16H16z"
        transform="matrix(0.0312,0,0,0.0312,34.5,31.5)"
  />
  <path style="fill:#27cbcb"
        d="M16 16V48H48V16H16z"
        transform="matrix(0.0312,0,0,0.0312,25.5,23.5)"
  />
  <path style="fill:#27caca"
        d="M16 16V48H48V16H16z"
        transform="matrix(0.0312,0,0,0.0312,25.5,24.5)"
  />
  <path style="fill:#26c7c7"
        d="M16 16V48H48V16H16z"
        transform="matrix(0.0312,0,0,0.0312,25.5,25.5)"
  />
  <path style="fill:#22c2c2"
        d="M16 16V48H48V16H16z"
        transform="matrix(0.0312,0,0,0.0312,25.5,26.5)"
  />
  <path style="fill:#b38d66"
        d="M16 16V48H48V16H16z"
        transform="matrix(0.0312,0,0,0.0312,17.5,15.5)"
  />
  <path style="fill:#b38d66"
        d="M16 16V48H48V16H16z"
        transform="matrix(0.0312,0,0,0.0312,17.5,14.5)"
  />
  <path style="fill:#d6ad85"
        d="M16 16V48H48V16H16z"
        transform="matrix(0.0312,0,0,0.0312,45.5,23.5)"
  />
  <path style="fill:#725942"
        d="M16 16V48H48V16H16z"
        transform="matrix(0.0312,0,0,0.0312,20.5,45.5)"
  />
  <path style="fill:#b88f1c"
        d="M16 16V48H48V16H16z"
        transform="matrix(0.0312,0,0,0.0312,33.5,43.5)"
  />
  <path style="fill:#674000"
        d="M16 16V48H48V16H16z"
        transform="matrix(0.0312,0,0,0.0312,36.5,23.5)"
  />
  <path style="fill:#aeb8b8"
        d="M16 16V48H48V16H16z"
        transform="matrix(0.0312,0,0,0.0312,53.5,41.5)"
  />
  <path style="fill:#002aa0"
        d="M16 16V48H48V16H16z"
        transform="matrix(0.0312,0,0,0.0312,54.5,38.5)"
  />
  <path style="fill:#002aa0"
        d="M16 16V48H48V16H16z"
        transform="matrix(0.0312,0,0,0.0312,55.4999,37.5)"
  />
  <path style="fill:#002aa0"
        d="M16 16V48H48V16H16z"
        transform="matrix(0.0312,0,0,0.0312,48.4999,47.4999)"
  />
  <path style="fill:#002aa0"
        d="M16 16V48H48V16H16z"
        transform="matrix(0.0312,0,0,0.0312,47.4999,48.4999)"
  />
  <path style="fill:#323232"
        d="M16 16V48H48V16H16z"
        transform="matrix(0.0312,0,0,0.0312,58.5,35.5)"
  />
  <path style="fill:#323232"
        d="M16 16V48H48V16H16z"
        transform="matrix(0.0312,0,0,0.0312,58.5,35.5)"
  />
  <path style="fill:#323232"
        d="M16 16V48H48V16H16z"
        transform="matrix(0.0312,0,0,0.0312,61.4999,32.5)"
  />
  <path style="fill:#5d5d5d"
        d="M16 16V48H48V16H16z"
        transform="matrix(0.0312,0,0,0.0312,49.5,46.5)"
  />
  <path style="fill:#606060"
        d="M16 16V48H48V16H16z"
        transform="matrix(0.0312,0,0,0.0312,39.5,52.5)"
  />
  <path style="fill:#614d3c"
        d="M16 16V48H48V16H16z"
        transform="matrix(0.0312,0,0,0.0312,21.5,45.5)"
  />
  <path style="fill:#614d3c"
        d="M16 16V48H48V16H16z"
        transform="matrix(0.0312,0,0,0.0312,19.5,44.4999)"
  />
  <path style="fill:#002e97"
        d="M16 16V48H48V16H16z"
        transform="matrix(0.0312,0,0,0.0625,49.5,23)"
  />
  <path style="fill:#e0e0e0"
        d="M16 16V48H48V16H16z"
        transform="matrix(0.0312,0,0,0.0312,38.5,54.5)"
  />
  <path style="fill:#e0e0e0"
        d="M16 16V48H48V16H16z"
        transform="matrix(0.0312,0,0,0.0312,38.5,53.5)"
  />
 </g>
</svg>
