<?xml version="1.0" encoding="UTF-8" standalone="yes"?>
<svg version="1.1" width="64" height="64" color-interpolation="linearRGB"
     xmlns:svg="http://www.w3.org/2000/svg" xmlns="http://www.w3.org/2000/svg">
 <g>
  <path style="fill:#000000; fill-opacity:0.4313"
        d="M5.75 46.75C5.5 47.62 2.24 51 2.5 53.25C2.61 54.31 4.75 57.49 9.5 59.62C13.12 61.25 17.25 61.87 17.87 61.62C18.67 61.3 21.12 60.12 23.12 58.12C25.05 56.19 27.37 54.74 27.37 54.12C27.37 52.81 30.25 50.62 30.25 50.62C30.25 50.62 36.49 45.74 40.87 41.25C45.37 36.62 48.75 33.5 48.75 33.5C48.75 33.5 49.37 32.62 51.25 32C52.69 31.51 56.12 27.82 56.75 26.75C57.62 25.25 59.81 22.75 60.25 21.25C60.75 19.5 58.87 17 56.12 15.25C54.4 14.15 51.62 12.62 51.62 12.62"
        transform="matrix(0.9694,-0.0285,0.0285,0.9694,2.3038,0.9596)"
  />
  <path style="fill:none; stroke:#010101; stroke-width:5"
        d="M46.25 5.37C48.35 4.99 53 6.37 54.37 7C55.75 7.62 57.87 8.62 59.25 10.5C60.24 11.85 60.47 14.24 60.37 15.75C60.25 17.62 55.37 26.82 48.62 35C42.12 42.87 33.7 49.8 31.62 51C29 52.5 23.62 57.75 18.62 58.62C16.62 58.97 10.11 56.47 8.75 55.75C6.87 54.75 3 50 3.25 48.62C3.81 45.52 4.62 42.62 5.37 41.75C6.72 40.17 14.11 35.62 15.62 35.5C17.12 35.37 19.62 35.62 20.5 36.25C21.6 37.03 28 31.37 30.5 29.25C33.33 26.84 34.62 25.37 35.37 24.12C37.62 20.37 37.6 19.49 37.75 17.62C37.87 16 37.62 14.5 38.25 13.62C39.88 11.33 44.87 5.62 46.25 5.37z"
        transform="matrix(0.9168,-0.027,0.027,0.9168,-0.9345,1.049)"
  />
  <linearGradient id="gradient0" gradientUnits="userSpaceOnUse" x1="62.35" y1="-87.43" x2="126.09" y2="-18.69">
   <stop offset="0.3395" stop-color="#bcbcbc"/>
   <stop offset="0.8417" stop-color="#414141"/>
  </linearGradient>
  <path style="fill:url(#gradient0)"
        d="M5.37 38.37C5 39 3 43.37 3 46.5C3 48.75 6.62 51.62 9.87 53.62C12.63 55.32 17.72 56.61 20.5 55C22 54.12 35.08 45.27 44.37 33.75C53.75 22.12 56.67 16.82 57.5 11.87C57.87 9.62 58.62 5.37 57.87 4.75C57.12 4.12 47.25 0.25 45.75 0.87C44.25 1.5 37.62 7.75 37.12 9C36.62 10.25 36.23 16.08 35.62 17.37C34.5 19.75 33.37 22.75 31.5 24.75C29.62 26.75 22.87 33 22.87 33C22.87 33 17.37 31.87 15.25 32C13.12 32.12 5.75 37.75 5.37 38.37z"
        transform="matrix(0.9172,0.0073,-0.0073,0.9172,0.5181,3.2965)"
  />
  <linearGradient id="gradient1" gradientUnits="userSpaceOnUse" x1="22.3" y1="20.19" x2="37.32" y2="36.4">
   <stop offset="1" stop-color="#676767"/>
   <stop offset="0" stop-color="#7e7e7e"/>
  </linearGradient>
  <path style="fill:url(#gradient1)"
        d="M9.37 46.5C12.6 48.71 16.8 50.68 17.37 50.62C18.5 50.5 28.37 43.75 28.37 42.75C28.37 42.22 26.96 38.73 23.87 37.12C21 35.62 17.72 34.84 16.87 34.75C16.12 34.66 7.38 38.6 5.62 42.12C5.25 42.87 8.33 45.78 9.37 46.5z"
        transform="matrix(0.9168,-0.0263,0.027,0.8932,-0.9345,2.2339)"
  />
  <linearGradient id="gradient2" gradientUnits="userSpaceOnUse" x1="1.55" y1="-18.62" x2="57.49" y2="-14.56">
   <stop offset="0.7294" stop-color="#777777"/>
   <stop offset="0.9352" stop-color="#686868"/>
  </linearGradient>
  <path style="fill:url(#gradient2)"
        d="M47.12 3.37C46.12 3.5 38.75 11.25 38.62 12.75C38.5 14.25 42.12 17 43.75 18.25C45.37 19.5 50.75 20.5 52.37 19.87C54 19.25 60.5 9.12 60.12 9.87C59.92 10.28 57.31 6.59 54 4.87C51.24 3.44 47.57 3.31 47.12 3.37z"
        transform="matrix(0.9168,-0.027,0.027,0.9168,-1.5849,2.33)"
  />
  <linearGradient id="gradient3" gradientUnits="userSpaceOnUse" x1="-64" y1="-64" x2="64" y2="-64">
   <stop offset="0.6359" stop-color="#363636"/>
   <stop offset="1" stop-color="#3e3e3e"/>
  </linearGradient>
  <path style="fill:url(#gradient3)"
        d="M18.87 50.12C19.25 49.87 26.87 43.5 28 43.12C29.12 42.75 28.37 47.37 30.37 47C31.37 46.81 36.48 42.76 41 38.37C45.55 33.95 49.49 29.19 50 28.25C51 26.37 51.37 21.74 51.87 20.75C52.1 20.28 54.35 18.25 56.12 15.87C58.14 13.15 59.72 10.07 60.12 9.87C60.87 9.5 61.12 14.37 60.62 16.12C60.39 16.92 60.7 16.36 58.87 20.12C56.68 24.61 51.91 32.25 46 38.37C35.12 49.62 33 50.25 28.62 53.37C24.66 56.2 20.62 59.37 18.5 58.75C17.2 58.36 18.5 50.37 18.87 50.12z"
        transform="matrix(0.9168,-0.027,0.027,0.9168,-0.9345,1.049)"
  />
  <linearGradient id="gradient4" gradientUnits="userSpaceOnUse" x1="65.75" y1="-69.88" x2="123.43" y2="-17.54">
   <stop offset="0.551" stop-color="#777777"/>
   <stop offset="0.7352" stop-color="#4d4d4d"/>
  </linearGradient>
  <path style="fill:url(#gradient4)"
        d="M36.12 23.12C35.25 24.87 31.5 28 30.12 29.25C28.75 30.5 21.75 35.62 22.12 36C22.64 36.51 22.5 33.62 26.25 37.37C27.95 39.07 29.62 40.83 29.62 41.37C29.62 42.37 29.5 43.84 29.5 45C29.5 45.87 31.16 45.99 32.62 45.12C33.87 44.37 37.75 40.68 41.5 37.25C45.83 33.27 49.04 28.51 48.5 27.75C47.87 26.87 44.58 27.65 41.5 25.87C38.25 24 37 21.37 36.12 23.12z"
        transform="matrix(0.9168,-0.027,0.027,0.9168,-0.9345,1.049)"
  />
  <path style="fill:none; stroke:#111111; stroke-width:1"
        d="M42.87 8.62L45.87 9.87"
        transform="matrix(0.9985,0.0538,-0.0538,0.9985,0.7396,-2.2752)"
  />
  <path style="fill:none; stroke:#111111; stroke-width:1"
        d="M42 10.87L45 11.62"
        transform="matrix(0.9947,0.1026,-0.1026,0.9947,1.3618,-4.4079)"
  />
  <path style="fill:none; stroke:#111111; stroke-width:1"
        d="M40.75 12.62L44 13.5"
        transform="matrix(0.9943,0.0951,-0.1049,0.9444,1.4088,-3.3755)"
  />
  <path style="fill:none; stroke:#111111; stroke-width:1"
        d="M13 37.75L16.62 40"
        transform="matrix(0.9947,-0.1027,0.1027,0.9947,-2.9969,1.2638)"
  />
  <path style="fill:none; stroke:#111111; stroke-width:1"
        d="M11.87 39.37L15.12 41.62"
        transform="matrix(1.1142,-0.115,0.1027,0.9947,-5.0509,1.3503)"
  />
 </g>
</svg>
