<?xml version="1.0" encoding="UTF-8" standalone="yes"?>
<svg version="1.1" width="64" height="64" color-interpolation="linearRGB"
     xmlns:svg="http://www.w3.org/2000/svg" xmlns="http://www.w3.org/2000/svg">
 <g>
  <path style="fill:#000000"
        d="M48 52.37C48 52.37 48.25 40.83 48.25 32C48.25 23.16 40.96 15.25 32.12 15.25C23.28 15.25 15.68 22.87 15.62 31.5C15.5 50.75 15.25 55.62 15.37 57C15.55 59 19.12 66.5 23.5 67.37C27.43 68.16 26.75 70.25 26.75 70.25"
        transform="matrix(0.4591,-0.0074,0.0047,0.3615,-3.2459,4.9802)"
  />
  <linearGradient id="gradient0" gradientUnits="userSpaceOnUse" x1="-50.8" y1="-75.58" x2="76.12" y2="-59.06">
   <stop offset="0.4992" stop-color="#ffde6d"/>
   <stop offset="0.5884" stop-color="#b39004"/>
  </linearGradient>
  <path style="fill:url(#gradient0)"
        d="M2.5 9.12L2.62 17.75C2.62 17.75 3.75 20.5 7.75 20.5C11.37 20.5 13.12 17.5 13.12 17.5L13.25 10"
        transform="matrix(1.0115,-0.016,0.0147,1.0994,3.3434,5.51)"
  />
  <linearGradient id="gradient1" gradientUnits="userSpaceOnUse" x1="-64" y1="-64" x2="64" y2="-64">
   <stop offset="0.2906" stop-color="#fff7dc"/>
   <stop offset="1" stop-color="#e4c206"/>
  </linearGradient>
  <path style="fill:url(#gradient1)"
        d="M32 16C23.16 16 16 23.16 16 32C16 40.83 23.16 48 32 48C40.83 48 48 40.83 48 32C48 23.16 40.83 16 32 16z"
        transform="matrix(0.3414,-0.0049,0.0035,0.246,0.4427,8.5172)"
  />
  <linearGradient id="gradient2" gradientUnits="userSpaceOnUse" x1="-64" y1="-64" x2="64" y2="-64">
   <stop offset="0" stop-color="#e1c906"/>
   <stop offset="1" stop-color="#dbc71d"/>
  </linearGradient>
  <path style="fill:url(#gradient2)"
        d="M32 16C23.16 16 16 23.16 16 32C16 40.83 23.16 48 32 48C40.83 48 48 40.83 48 32C48 23.16 40.83 16 32 16z"
        transform="matrix(0.1999,-0.0029,0.0021,0.1445,4.9995,11.7061)"
  />
  <path style="fill:none; stroke:#000000; stroke-width:3"
        d="M17.62 18.75L29.87 8.62L43.5 13.75L44.37 14.75L64.12 22L54.5 36L36.25 28.12L30.62 31.75L43.12 36.87L33.62 49.62L24.5 45.62L14.25 55.5L1.12 45.87L9.37 38.87L9.12 36.75L15.25 32.37L10.75 29.12V24"
        transform="matrix(0.9477,-0.0138,0.0138,0.9477,0.8732,5.5841)"
  />
  <path style="fill:#209a04"
        d="M34.62 10.5L4.62 37.75L26.37 51.75L57 19.12L34.62 10.5z"
        transform="matrix(0.5652,0.0166,-0.0166,0.5652,1.1455,27.4636)"
  />
  <path style="fill:#b2c9ae"
        d="M35.5 14L10.37 37.25L26.12 47.12L51 20.37L35.5 14z"
        transform="matrix(0.5652,0.0166,-0.0166,0.5652,1.1455,27.4636)"
  />
  <path style="fill:none; stroke:#1f9404; stroke-width:3"
        d="M41 18.5L34.75 24.5"
        transform="matrix(0.5652,0.0166,-0.0166,0.5652,1.1455,27.4636)"
  />
  <path style="fill:none; stroke:#1f9404; stroke-width:3"
        d="M41 18.5L34.75 24.5"
        transform="matrix(0.5652,0.0166,-0.0166,0.5652,-7.5885,35.9044)"
  />
  <path style="fill:#388327"
        d="M32 16C23.16 16 16 23.16 16 32C16 40.83 23.16 48 32 48C40.83 48 48 40.83 48 32C48 23.16 40.83 16 32 16z"
        transform="matrix(-0.1734,0.0876,-0.0845,-0.1673,26.2125,47.2128)"
  />
  <path style="fill:#9ebb98"
        d="M32 16C23.16 16 16 23.16 16 32C16 40.83 23.16 48 32 48C40.83 48 48 40.83 48 32C48 23.16 40.83 16 32 16z"
        transform="matrix(-0.0864,0.0437,-0.0421,-0.0834,22.0796,45.8284)"
  />
  <path style="fill:#000000"
        d="M32 16C23.16 16 16 23.16 16 32C16 40.83 23.16 48 32 48C40.83 48 48 40.83 48 32C48 23.16 40.83 16 32 16z"
        transform="matrix(0.3585,-0.0056,0.0037,0.2804,22.8245,43.538)"
  />
  <path style="fill:#209a04"
        d="M34.62 10.5L4.62 37.75L26.37 51.75L57 19.12L34.62 10.5z"
        transform="matrix(-0.5211,0.2039,0.2041,0.5215,36.2627,19.3636)"
  />
  <path style="fill:#b2c9ae"
        d="M35.5 14L10.37 37.25L26.12 47.12L51 20.37L35.5 14z"
        transform="matrix(-0.5211,0.2039,0.2041,0.5215,36.2627,19.3636)"
  />
  <path style="fill:none; stroke:#1f9404; stroke-width:3"
        d="M41 18.5L34.75 24.5"
        transform="matrix(-0.5211,0.2039,0.2041,0.5215,36.2627,19.3636)"
  />
  <path style="fill:none; stroke:#1f9404; stroke-width:3"
        d="M41 18.5L34.75 24.5"
        transform="matrix(-0.5211,0.2039,0.2041,0.5215,47.2189,24.3227)"
  />
  <path style="fill:#388327"
        d="M32 16C23.16 16 16 23.16 16 32C16 40.83 23.16 48 32 48C40.83 48 48 40.83 48 32C48 23.16 40.83 16 32 16z"
        transform="matrix(0.1909,0.0239,0.0229,-0.1842,19.4944,46.1395)"
  />
  <path style="fill:#9ebb98"
        d="M32 16C23.16 16 16 23.16 16 32C16 40.83 23.16 48 32 48C40.83 48 48 40.83 48 32C48 23.16 40.83 16 32 16z"
        transform="matrix(0.0951,0.0119,0.0114,-0.0918,22.8837,43.4703)"
  />
  <path style="fill:#209a04"
        d="M34.62 10.5L4.62 37.75L26.37 51.75L57 19.12L34.62 10.5z"
        transform="matrix(-0.5335,0.2383,0.2331,0.5218,54.8526,4.7758)"
  />
  <path style="fill:#b2c9ae"
        d="M35.5 14L10.37 37.25L26.12 47.12L51 20.37L35.5 14z"
        transform="matrix(-0.5335,0.2383,0.2331,0.5218,54.8526,4.7758)"
  />
  <path style="fill:none; stroke:#1f9404; stroke-width:3"
        d="M41 18.5L34.75 24.5"
        transform="matrix(-0.5335,0.2383,0.2331,0.5218,54.8526,4.7758)"
  />
  <path style="fill:none; stroke:#1f9404; stroke-width:3"
        d="M41 18.5L34.75 24.5"
        transform="matrix(-0.5335,0.2383,0.2331,0.5218,66.4404,9.224)"
  />
  <path style="fill:#388327"
        d="M32 16C23.16 16 16 23.16 16 32C16 40.83 23.16 48 32 48C40.83 48 48 40.83 48 32C48 23.16 40.83 16 32 16z"
        transform="matrix(0.1994,0.0135,0.0164,-0.1897,38.4975,33.1203)"
  />
  <path style="fill:#9ebb98"
        d="M32 16C23.16 16 16 23.16 16 32C16 40.83 23.16 48 32 48C40.83 48 48 40.83 48 32C48 23.16 40.83 16 32 16z"
        transform="matrix(0.0994,0.0067,0.0082,-0.0946,41.9134,30.1969)"
  />
  <path style="fill:#000000; fill-opacity:0.4196"
        d="M25.12 35.75L32 36L47.25 20.62L39.75 16.87L25.12 35.75z"
        transform="matrix(0.9998,-0.0145,0.0145,0.9998,-1.6309,5.3629)"
  />
  <linearGradient id="gradient3" gradientUnits="userSpaceOnUse" x1="-64" y1="-64" x2="64" y2="-64">
   <stop offset="0.5064" stop-color="#ffffff" stop-opacity="0"/>
   <stop offset="0.9553" stop-color="#010101" stop-opacity="0.1764"/>
  </linearGradient>
  <path style="fill:url(#gradient3)"
        d="M2.75 43.5L14.5 52.25L24.5 43L32.25 47.25L42 35.25L29.87 30L34.5 25.75L52.37 33.87L61.5 21L37.25 12.25L10.12 35.25L11.12 36.5L2.75 43.5z"
        transform="matrix(0.9998,-0.0145,0.0145,0.9998,-0.3828,5.2197)"
  />
  <path style="fill:#000000; fill-opacity:0.396"
        d="M44.75 20.5C44.75 20.5 48.13 20.5 50.5 20.37C52.75 20.25 54.12 19.25 54 16.87C53.94 15.87 53.62 14.75 52.25 14.37"
        transform="matrix(1,0,0,1,0,2.125)"
  />
  <path style="fill:#000000"
        d="M51.25 19.5C51.25 19.5 52.14 19.25 52.25 16.25C52.5 8.75 48.75 8.49 46.37 8C43.37 7.37 40.5 8.25 38.37 10.62C37.17 11.96 38.12 14.75 38.12 14.75"
        transform="matrix(1.0256,-0.0145,0.0149,0.9998,-1.7354,1.8447)"
  />
  <linearGradient id="gradient4" gradientUnits="userSpaceOnUse" x1="-86.96" y1="-33.41" x2="35.95" y2="-69.11">
   <stop offset="0.551" stop-color="#e5e5e5"/>
   <stop offset="0.823" stop-color="#a1a1a1"/>
  </linearGradient>
  <path style="fill:url(#gradient4)"
        d="M32 16C23.16 16 16 23.16 16 32C16 40.83 23.16 48 32 48C40.83 48 48 40.83 48 32C48 23.16 40.83 16 32 16z"
        transform="matrix(0.3375,-0.0048,0.0035,0.2382,33.6718,10.6628)"
  />
  <linearGradient id="gradient5" gradientUnits="userSpaceOnUse" x1="-64" y1="-64" x2="64" y2="-64">
   <stop offset="0.4187" stop-color="#ededed"/>
   <stop offset="1" stop-color="#bdbdbd"/>
  </linearGradient>
  <path style="fill:url(#gradient5)"
        d="M32 16C23.16 16 16 23.16 16 32C16 40.83 23.16 48 32 48C40.83 48 48 40.83 48 32C48 23.16 40.83 16 32 16z"
        transform="matrix(0.3375,-0.0048,0.0035,0.2382,33.5453,7.5378)"
  />
  <linearGradient id="gradient6" gradientUnits="userSpaceOnUse" x1="-64" y1="-64" x2="64" y2="-64">
   <stop offset="0.6848" stop-color="#ca9f4c"/>
   <stop offset="0.8935" stop-color="#a77a24"/>
  </linearGradient>
  <path style="fill:url(#gradient6)"
        d="M32 16C23.16 16 16 23.16 16 32C16 40.83 23.16 48 32 48C40.83 48 48 40.83 48 32C48 23.16 40.83 16 32 16z"
        transform="matrix(0.227,-0.0033,0.0023,0.164,27.0981,47.0732)"
  />
  <linearGradient id="gradient7" gradientUnits="userSpaceOnUse" x1="-64" y1="-64" x2="64" y2="-64">
   <stop offset="0.4187" stop-color="#c0933e"/>
   <stop offset="1" stop-color="#b58427"/>
  </linearGradient>
  <path style="fill:url(#gradient7)"
        d="M32 16C23.16 16 16 23.16 16 32C16 40.83 23.16 48 32 48C40.83 48 48 40.83 48 32C48 23.16 40.83 16 32 16z"
        transform="matrix(0.1371,-0.002,0.0014,0.0991,29.941,48.8978)"
  />
  <linearGradient id="gradient8" gradientUnits="userSpaceOnUse" x1="-64" y1="-64" x2="64" y2="-64">
   <stop offset="0.4733" stop-color="#e7e1e1"/>
   <stop offset="0.9237" stop-color="#bbc2c6"/>
  </linearGradient>
  <path style="fill:url(#gradient8)"
        d="M32 16C23.16 16 16 23.16 16 32C16 40.83 23.16 48 32 48C40.83 48 48 40.83 48 32C48 23.16 40.83 16 32 16z"
        transform="matrix(0.1999,-0.0029,0.0021,0.1445,37.5416,10.3566)"
  />
  <path style="fill:#209a04"
        d="M34.62 10.5L4.62 37.75L26.37 51.75L57 19.12L34.62 10.5z"
        transform="matrix(0.5399,0.0235,-0.0235,0.5399,11.4003,12.9882)"
  />
  <path style="fill:#b2c9ae"
        d="M35.5 14L10.37 37.25L26.12 47.12L51 20.37L35.5 14z"
        transform="matrix(0.5399,0.0235,-0.0235,0.5399,11.4003,12.9882)"
  />
  <path style="fill:none; stroke:#1f9404; stroke-width:3"
        d="M41 18.5L34.75 24.5"
        transform="matrix(0.5399,0.0235,-0.0235,0.5399,11.4003,12.9882)"
  />
  <path style="fill:none; stroke:#1f9404; stroke-width:3"
        d="M41 18.5L34.75 24.5"
        transform="matrix(0.5399,0.0235,-0.0235,0.5399,2.9389,20.9358)"
  />
  <path style="fill:#388327"
        d="M32 16C23.16 16 16 23.16 16 32C16 40.83 23.16 48 32 48C40.83 48 48 40.83 48 32C48 23.16 40.83 16 32 16z"
        transform="matrix(-0.1669,0.0814,-0.0785,-0.161,35.0867,32.2021)"
  />
  <path style="fill:#9ebb98"
        d="M32 16C23.16 16 16 23.16 16 32C16 40.83 23.16 48 32 48C40.83 48 48 40.83 48 32C48 23.16 40.83 16 32 16z"
        transform="matrix(-0.0832,0.0405,-0.0391,-0.0802,31.156,30.8229)"
  />
  <path style="fill:#209a04"
        d="M34.12 12.12L4.62 37.75L26.37 51.75L57 19.12L34.12 12.12z"
        transform="matrix(0.5765,0.0184,-0.0184,0.5765,9.9739,6.4058)"
  />
  <path style="fill:#b2c9ae"
        d="M34.75 15.87L10.37 37.25L26.12 47.12L51 20.37L34.75 15.87z"
        transform="matrix(0.5765,0.0184,-0.0184,0.5765,9.9739,6.4058)"
  />
  <path style="fill:none; stroke:#1f9404; stroke-width:3"
        d="M41 18.5L34.75 24.5"
        transform="matrix(0.5765,0.0184,-0.0184,0.5765,9.9739,6.4058)"
  />
  <path style="fill:none; stroke:#1f9404; stroke-width:3"
        d="M41 18.5L34.75 24.5"
        transform="matrix(0.5765,0.0184,-0.0184,0.5765,1.0419,14.9933)"
  />
  <path style="fill:#388327"
        d="M32 16C23.16 16 16 23.16 16 32C16 40.83 23.16 48 32 48C40.83 48 48 40.83 48 32C48 23.16 40.83 16 32 16z"
        transform="matrix(-0.1772,0.0889,-0.0858,-0.1709,35.4928,26.6183)"
  />
  <path style="fill:#9ebb98"
        d="M32 16C23.16 16 16 23.16 16 32C16 40.83 23.16 48 32 48C40.83 48 48 40.83 48 32C48 23.16 40.83 16 32 16z"
        transform="matrix(-0.0883,0.0443,-0.0427,-0.0852,31.2805,25.1951)"
  />
  <linearGradient id="gradient9" gradientUnits="userSpaceOnUse" x1="-64" y1="-64" x2="64" y2="-64">
   <stop offset="0.4892" stop-color="#2aa70d"/>
   <stop offset="0.8086" stop-color="#187603"/>
  </linearGradient>
  <path style="fill:url(#gradient9)"
        d="M24.87 32.37L25.37 38.5L17.25 33.75L11.12 29L11.25 23.37L24.87 32.37z"
        transform="matrix(0.9303,-0.0138,0.0135,0.9477,1.3252,5.5841)"
  />
  <linearGradient id="gradient10" gradientUnits="userSpaceOnUse" x1="-64" y1="-64" x2="64" y2="-64">
   <stop offset="0.246" stop-color="#1e9103"/>
   <stop offset="1" stop-color="#146002"/>
  </linearGradient>
  <path style="fill:url(#gradient10)"
        d="M25 31.62V38.25L43.25 21.62V14L25 31.62z"
        transform="matrix(0.9477,-0.0138,0.0138,0.9477,0.8732,5.5841)"
  />
  <linearGradient id="gradient11" gradientUnits="userSpaceOnUse" x1="-64" y1="-64" x2="64" y2="-64">
   <stop offset="0.5007" stop-color="#ffffff" stop-opacity="0"/>
   <stop offset="1" stop-color="#010101" stop-opacity="0.2117"/>
  </linearGradient>
  <path style="fill:url(#gradient11)"
        d="M29.5 8.62L42.12 14.12L24.87 30.87L11.75 23.25"
        transform="matrix(0.9998,-0.0145,0.0145,0.9998,-0.3828,5.2197)"
  />
  <linearGradient id="gradient12" gradientUnits="userSpaceOnUse" x1="-54.48" y1="-72.65" x2="72.93" y2="-60.54">
   <stop offset="0.528" stop-color="#ffde6d"/>
   <stop offset="0.6086" stop-color="#9c7f08"/>
   <stop offset="0.6388" stop-color="#010000"/>
  </linearGradient>
  <path style="fill:none; stroke:url(#gradient12); stroke-width:1"
        d="M16.75 18C16.75 18 16.59 20.2 15 20.5C9.62 21.5 7.25 19.25 7.25 19.25"
        transform="matrix(0.9629,0,0,1,0.388,1.75)"
  />
  <linearGradient id="gradient13" gradientUnits="userSpaceOnUse" x1="-54.48" y1="-72.65" x2="72.93" y2="-60.54">
   <stop offset="0.528" stop-color="#ffde6d"/>
   <stop offset="0.6086" stop-color="#9c7f08"/>
   <stop offset="0.6388" stop-color="#010000"/>
  </linearGradient>
  <path style="fill:none; stroke:url(#gradient13); stroke-width:1"
        d="M16.75 18C16.75 18 16.59 20.2 15 20.5C9.62 21.5 7.25 19.25 7.25 19.25"
        transform="matrix(1,0,0,0.9622,-0.375,5.1783)"
  />
 </g>
</svg>
