<?xml version="1.0" encoding="UTF-8" standalone="yes"?>
<svg version="1.1" width="64" height="64" color-interpolation="linearRGB"
     xmlns:svg="http://www.w3.org/2000/svg" xmlns="http://www.w3.org/2000/svg">
 <g>
  <path style="fill:none; stroke:#000000; stroke-width:4"
        d="M14 28L26 51L34 44L40 47L48 39V26L36 21V11L26 16L14 28z"
  />
  <linearGradient id="gradient0" gradientUnits="userSpaceOnUse" x1="48.21" y1="-12.33" x2="73.7" y2="9.93">
   <stop offset="0" stop-color="#ace2ff"/>
   <stop offset="1" stop-color="#6ecdff"/>
  </linearGradient>
  <path style="fill:url(#gradient0)"
        d="M14 28L26 51V40L40 47V32L26 26V16L14 28z"
  />
  <linearGradient id="gradient1" gradientUnits="userSpaceOnUse" x1="65.53" y1="-17.37" x2="71.22" y2="-10.77">
   <stop offset="0" stop-color="#26a8eb"/>
   <stop offset="1" stop-color="#0694de"/>
  </linearGradient>
  <path style="fill:url(#gradient1)"
        d="M26 16V26L36 21V11L26 16z"
  />
  <linearGradient id="gradient2" gradientUnits="userSpaceOnUse" x1="51.22" y1="23.33" x2="57.55" y2="33.53">
   <stop offset="0" stop-color="#035e8c"/>
   <stop offset="1" stop-color="#0585c7"/>
  </linearGradient>
  <path style="fill:url(#gradient2)"
        d="M26 40V51L34 44L26 40z"
  />
  <linearGradient id="gradient3" gradientUnits="userSpaceOnUse" x1="51.83" y1="-0.94" x2="63.47" y2="3.61">
   <stop offset="0" stop-color="#047bb8"/>
   <stop offset="1" stop-color="#0694de"/>
  </linearGradient>
  <path style="fill:url(#gradient3)"
        d="M40 32V47L48 39V26L40 32z"
  />
  <linearGradient id="gradient4" gradientUnits="userSpaceOnUse" x1="53.64" y1="-11.81" x2="67.01" y2="0.74">
   <stop offset="0" stop-color="#0592da"/>
   <stop offset="0.9923" stop-color="#67cbff"/>
  </linearGradient>
  <path style="fill:url(#gradient4)"
        d="M26 26L36 21L48 26L40 32L26 26z"
  />
  <path style="fill:none; stroke:#ffffff; stroke-opacity:0.2862; stroke-width:1; stroke-linecap:round"
        d="M35.5 12.12L26 16.62L14.62 27.75
           M26 26L40 32"
  />
 </g>
</svg>
