<?xml version="1.0" encoding="UTF-8" standalone="yes"?>
<svg version="1.1" width="64" height="64" color-interpolation="linearRGB"
     xmlns:svg="http://www.w3.org/2000/svg" xmlns="http://www.w3.org/2000/svg">
 <g>
  <path style="fill:#000000; fill-opacity:0.4"
        d="M30 61C52 61 55 57 55 57L51 55C51 55 56 54 57 52L50 48L52 47H60C60 45 59 44 59 44H62C62 44 60 40 56 39"
  />
  <path style="fill:none; stroke:#000000; stroke-width:4"
        d="M56 26C54.66 23.62 52.15 21.57 48 20V44H56V26z"
  />
  <path style="fill:#ff8080"
        d="M53 26H56C54.66 23.62 52.15 21.57 48 20V22C48 22 52 24 53 26z"
  />
  <path style="fill:#800000"
        d="M53 26C52 24 48 22 48 22V26H53z"
  />
  <path style="fill:#800000"
        d="M48 26V44H56V26H48z"
  />
  <path style="fill:none; stroke:#000000; stroke-width:4"
        d="M42 34C38.78 35.19 35 36 30 36C20 36 12 33 12 29V20C6.36 22.14 2 25.54 2 29V48C2 50.84 3.81 52.82 7 55C11.99 58.38 20.78 61 30 61C37.18 61 43.09 59.2 48 57V38L42 34z"
  />
  <path style="fill:#00bf00"
        d="M7 36C4.16 34.28 2 32 2 29V48C2 50.84 3.81 52.82 7 55V36z"
  />
  <linearGradient id="gradient0" gradientUnits="userSpaceOnUse" x1="1.99" y1="-64" x2="48" y2="-64">
   <stop offset="0" stop-color="#ff0606"/>
   <stop offset="1" stop-color="#cc0000"/>
  </linearGradient>
  <path style="fill:url(#gradient0)"
        d="M48 38C43.11 39.88 37.04 41 30 41C20.78 41 11.99 38.99 7 36V55C11.99 58.38 20.78 61 30 61C37.18 61 43.09 59.2 48 57V38z"
  />
  <path style="fill:#73e573"
        d="M7 36L15 33C13.07 31.89 12 31 12 29H2C2 32 4.16 34.28 7 36z"
  />
  <path style="fill:#ff8080"
        d="M42 34C39.1 34.98 30 36 30 36C23.99 36 18.32 34.92 15 33L7 36C11.97 39.01 20.72 41 30 41C37.04 41 43.11 39.88 48 38L42 34z"
  />
  <path style="fill:#7397e5"
        d="M12 20C6.36 22.14 2 25.54 2 29H12V20z"
  />
  <path style="fill:none; stroke:#000000; stroke-width:4"
        d="M30 3C19.96 3 12 6.29 12 10V29C12 33 20 36 30 36C35 36 38.78 35.19 42 34L48 38V10C48 6.29 40.04 3 30 3z"
  />
  <linearGradient id="gradient1" gradientUnits="userSpaceOnUse" x1="12" y1="-63" x2="44" y2="-63">
   <stop offset="0" stop-color="#fdff75"/>
   <stop offset="1" stop-color="#ffaa00"/>
  </linearGradient>
  <path style="fill:url(#gradient1)"
        d="M45 14C41.71 15.8 36.3 17 30 17C19.96 17 12 13.69 12 10V29C12 33 20 36 30 36C35 36 39 35 42 34L45 36V14z"
  />
  <linearGradient id="gradient2" gradientUnits="userSpaceOnUse" x1="58" y1="-64" x2="32" y2="-64">
   <stop offset="0" stop-color="#ff8000"/>
   <stop offset="1" stop-color="#802b00"/>
  </linearGradient>
  <path style="fill:url(#gradient2)"
        d="M30 10L45 14V36L48 38V10H30z"
  />
  <linearGradient id="gradient3" gradientUnits="userSpaceOnUse" x1="112.75" y1="-43.03" x2="120.95" y2="-26.79">
   <stop offset="0" stop-color="#ffffff"/>
   <stop offset="1" stop-color="#ffff80"/>
  </linearGradient>
  <path style="fill:url(#gradient3)"
        d="M30 3C20.05 3 12 6.13 12 10C12 13.86 20.05 17 30 17C36.23 17 41.76 15.87 45 14L30 10H48C48 6.13 39.94 3 30 3z"
  />
 </g>
</svg>
