<?xml version="1.0" encoding="UTF-8" standalone="yes"?>
<svg version="1.1" width="64" height="64" color-interpolation="linearRGB"
     xmlns:svg="http://www.w3.org/2000/svg" xmlns="http://www.w3.org/2000/svg">
 <g>
  <path style="fill:#010101; fill-opacity:0.5725"
        d="M27 57L29 59L32.13 55.83L37 59L45.39 47.54L64 38L59 35L61 37L36 49L27 57z
           M58 34L62 31L58 29L55 32L58 34z"
        transform="matrix(1,0,0,1,0,5)"
  />
  <path style="fill:none; stroke:#010101; stroke-width:4"
        d="M6.25 30C6.25 30 11.87 36 16.87 42.5C21.87 49 26.25 55.75 26.25 55.75L59.12 36.87L32 15L6.25 30z"
        transform="matrix(1,0,0,1,0,5)"
  />
  <radialGradient id="gradient0" gradientUnits="userSpaceOnUse" cx="0" cy="0" r="64" gradientTransform="matrix(0.5714,0,0,0.3333,26,35)">
   <stop offset="1" stop-color="#c0ffdd"/>
   <stop offset="0.4886" stop-color="#6dffbc"/>
  </radialGradient>
  <path style="fill:url(#gradient0)"
        d="M6.25 30C6.25 30 11.87 36 16.87 42.5C21.87 49 26.25 55.75 26.25 55.75L59.12 36.87L32 15L6.25 30z"
        transform="matrix(1,0,0,1,0,5)"
  />
  <path style="fill:none; stroke:#010101; stroke-width:4"
        d="M2.62 30.87C2.62 30.87 10.95 36.26 19 41.87C27.44 47.75 35.75 52.75 35.75 52.75L58.12 26.37C58.12 26.37 45.44 20.7 35.37 15.37C30.18 12.62 26 9.37 26 9.37L2.62 30.87z"
        transform="matrix(1,0,0,1,0,5)"
  />
  <linearGradient id="gradient1" gradientUnits="userSpaceOnUse" x1="105.45" y1="-23.42" x2="119.92" y2="34.32">
   <stop offset="0" stop-color="#a5fff5"/>
   <stop offset="0.7386" stop-color="#eafff2"/>
   <stop offset="1" stop-color="#b3ffe3"/>
  </linearGradient>
  <path style="fill:url(#gradient1)"
        d="M2.62 30.87C2.62 30.87 10.95 36.26 19 41.87C27.44 47.75 35.75 52.75 35.75 52.75L58.12 26.37C58.12 26.37 45.44 20.7 35.37 15.37C30.18 12.62 26 9.37 26 9.37L2.62 30.87z"
        transform="matrix(1,0,0,1,0,5)"
  />
  <path style="fill:none; stroke:#010101; stroke-width:4"
        d="M18 22V29L26 33L32 30V23L25 19L18 22z
           M26 35V42L32 45L38 42V35L33 32L26 35z
           M34 23V30L40 34L46 31V25L40 21L34 23z"
        transform="matrix(1,0,0,1,0,5)"
  />
  <linearGradient id="gradient2" gradientUnits="userSpaceOnUse" x1="19.58" y1="-2" x2="37.95" y2="0.06">
   <stop offset="0" stop-color="#fff9ba"/>
   <stop offset="1" stop-color="#ffc104"/>
  </linearGradient>
  <path style="fill:url(#gradient2)"
        d="M18 22V29L26 33L32 30V23L25 19L18 22z"
        transform="matrix(1,0,0,1,0,5)"
  />
  <linearGradient id="gradient3" gradientUnits="userSpaceOnUse" x1="27.29" y1="19.16" x2="46.61" y2="24.04">
   <stop offset="0" stop-color="#badcff"/>
   <stop offset="1" stop-color="#2a20f1"/>
  </linearGradient>
  <path style="fill:url(#gradient3)"
        d="M26 35V42L32 45L38 42V35L33 32L26 35z"
        transform="matrix(1,0,0,1,0,5)"
  />
  <linearGradient id="gradient4" gradientUnits="userSpaceOnUse" x1="39.27" y1="-4.08" x2="53.93" y2="-1.85">
   <stop offset="0" stop-color="#e99797"/>
   <stop offset="1" stop-color="#ce3232"/>
  </linearGradient>
  <path style="fill:url(#gradient4)"
        d="M34 23V30L40 34L46 31V25L40 21L34 23z"
        transform="matrix(1,0,0,1,0,5)"
  />
  <path style="fill:#010101; fill-opacity:0.5843"
        d="M50.04 47.08L46 47L49 43L57.05 43.06L50.04 47.08z"
  />
  <linearGradient id="gradient5" gradientUnits="userSpaceOnUse" x1="23.02" y1="-65.5" x2="51.47" y2="-65.5">
   <stop offset="0" stop-color="#010101"/>
   <stop offset="1" stop-color="#010101" stop-opacity="0.6"/>
  </linearGradient>
  <path style="fill:url(#gradient5)"
        d="M44.86 47L33 45.25L23 43L25 42L37 40.75L49.74 41.25L44.86 47z"
  />
  <path style="fill:none; stroke:#010101; stroke-width:4"
        d="M17 4H51C51 4 54 5 54 9C54 13 51 14 51 14H17L6 9L17 4z
           M17.96 4.58L16 7V11L17.96 13.41
           M49.96 4.58C49.1 5.25 48 6.57 48 9C48 11.42 49.1 12.74 49.96 13.41"
        transform="matrix(0.7071,-0.7071,0.7071,0.7071,15.8224,37.5335)"
  />
  <linearGradient id="gradient6" gradientUnits="userSpaceOnUse" x1="-1.01" y1="21.47" x2="-2.49" y2="4.81">
   <stop offset="0" stop-color="#ffeed5"/>
   <stop offset="0.553" stop-color="#dbab5f"/>
   <stop offset="0.8143" stop-color="#ffeed5"/>
  </linearGradient>
  <path style="fill:url(#gradient6)"
        d="M17 4L14.37 6.76V11.23L17 14L8.69 9.84L8.74 8.12L17 4z"
        transform="matrix(0.7071,-0.7071,0.7071,0.7071,15.8224,37.5335)"
  />
  <linearGradient id="gradient7" gradientUnits="userSpaceOnUse" x1="10.58" y1="-64" x2="63.41" y2="-64">
   <stop offset="0" stop-color="#9cfa80"/>
   <stop offset="1" stop-color="#f8faff"/>
  </linearGradient>
  <path style="fill:url(#gradient7)"
        d="M19 4L16.09 6.84L46 7L48 4H19z"
        transform="matrix(0.7071,-0.7071,0.7071,0.7071,15.8224,37.5335)"
  />
  <linearGradient id="gradient8" gradientUnits="userSpaceOnUse" x1="19.74" y1="-64" x2="52.25" y2="-64">
   <stop offset="0.9948" stop-color="#6ad839"/>
   <stop offset="0" stop-color="#4ab927"/>
  </linearGradient>
  <path style="fill:url(#gradient8)"
        d="M16.09 6.84V11.15L46 11V7L16.09 6.84z"
        transform="matrix(0.7071,-0.7071,0.7071,0.7071,15.8224,37.5335)"
  />
  <linearGradient id="gradient9" gradientUnits="userSpaceOnUse" x1="52.24" y1="6.16" x2="49.21" y2="26.25">
   <stop offset="0" stop-color="#116201"/>
   <stop offset="0.9962" stop-color="#69a403"/>
  </linearGradient>
  <path style="fill:url(#gradient9)"
        d="M16.09 11.15L19 14H48L46 11L16.09 11.15z"
        transform="matrix(0.7071,-0.7071,0.7071,0.7071,15.8224,37.5335)"
  />
  <linearGradient id="gradient10" gradientUnits="userSpaceOnUse" x1="112.68" y1="-2.81" x2="112.6" y2="13.44">
   <stop offset="1" stop-color="#fddcab"/>
   <stop offset="0" stop-color="#dbab5f"/>
  </linearGradient>
  <path style="fill:url(#gradient10)"
        d="M51 4C51 4 54 5 54 9C54 13 51 14 51 14C51 14 48 13 48 9C48 5 51 4 51 4z"
        transform="matrix(0.7071,-0.7071,0.7071,0.7071,15.8224,37.5335)"
  />
  <path style="fill:#010101"
        d="M51 7C51 7 53 8 53 9C53 10 51 11 51 11C51 11 50 10 50 9C50 8 51 7 51 7z"
        transform="matrix(0.7071,-0.7071,0.7071,0.7071,15.8224,37.5335)"
  />
 </g>
</svg>
