<?xml version="1.0" encoding="UTF-8" standalone="yes"?>
<svg version="1.1" width="64" height="64" color-interpolation="linearRGB"
     xmlns:svg="http://www.w3.org/2000/svg" xmlns="http://www.w3.org/2000/svg">
 <g>
  <radialGradient id="gradient0" gradientUnits="userSpaceOnUse" cx="0" cy="0" r="64" gradientTransform="matrix(0.5,0,0,0.5,32,32)">
   <stop offset="0" stop-color="#ffc000"/>
   <stop offset="0.3499" stop-color="#ffc000" stop-opacity="0.9019"/>
   <stop offset="0.3898" stop-color="#ffc000" stop-opacity="0"/>
   <stop offset="0.4799" stop-color="#ffc000" stop-opacity="0"/>
   <stop offset="0.5199" stop-color="#ffc000" stop-opacity="0.8"/>
   <stop offset="0.73" stop-color="#ffc000" stop-opacity="0.6"/>
   <stop offset="0.7699" stop-color="#ffc000" stop-opacity="0"/>
   <stop offset="0.86" stop-color="#ffc000" stop-opacity="0"/>
   <stop offset="0.8999" stop-color="#ffc000" stop-opacity="0.298"/>
  </radialGradient>
  <path style="fill:url(#gradient0)"
        d="M32 0C14.31 0 0 14.31 0 32C0 49.65 14.31 64 32 64C49.65 64 64 49.65 64 32C64 14.31 49.65 0 32 0z"
        transform="matrix(0.9687,0,0,0.625,1,23)"
  />
  <path style="fill:#000000; fill-opacity:0.4"
        d="M40 44C41 45 41 46 40 47C39 48 36 48 35 48H30V45C30 45 30 42 31 41C32 40 35 40 36 41L42 34C43 33 45 32 47 32C49 32 51 33 52 34C53 35 54 37 53 38C52 39 50 40 50 40L40 44z"
        transform="matrix(1,0,0,1,7,-5)"
  />
  <path style="fill:none; stroke:#010101; stroke-width:4; stroke-linecap:round; stroke-linejoin:round"
        d="M33 7C33.27 5.69 32 4 26 4C20 4 18.67 5.68 19 7L24 28C24.11 28.53 23.28 28.7 23.28 28.7C24 29 25 29 26 29C27 29 28 29 28.61 28.68C28.61 28.68 27.87 28.52 28 28L33 7z
           M20 31L26 40L32 31
           M26 28C24.64 28 19.13 28.01 20 31C20.37 32.25 24.53 32 26 32C27.4 32 31.61 32.25 32 31C32.81 28 27.36 27.97 26 28z
           M26 28C24.93 28.01 20.76 28.28 21 29C21.25 29.69 24.86 30 26 30C27.11 30 30.72 29.7 31 29C31.25 28.28 27.06 27.97 26 28z"
        transform="matrix(0.952,0.306,-0.306,0.952,20.4871,-8.9851)"
  />
  <linearGradient id="gradient1" gradientUnits="userSpaceOnUse" x1="25" y1="36" x2="27" y2="36">
   <stop offset="0.4788" stop-color="#ff0606"/>
   <stop offset="0" stop-color="#c80000"/>
   <stop offset="1" stop-color="#ff9090"/>
  </linearGradient>
  <path style="fill:url(#gradient1)"
        d="M20 31L26 40L32 31"
        transform="matrix(0.952,0.306,-0.306,0.952,20.4871,-8.9851)"
  />
  <radialGradient id="gradient2" gradientUnits="userSpaceOnUse" cx="0" cy="0" r="64" gradientTransform="matrix(0.157,-0.0599,0.0323,0.0847,21.3998,30.8861)">
   <stop offset="0" stop-color="#ff6767"/>
   <stop offset="0.4957" stop-color="#ff0606"/>
   <stop offset="1" stop-color="#c80000"/>
  </radialGradient>
  <path style="fill:url(#gradient2)"
        d="M26 28C24.64 28 19.13 28.01 20 31C20.37 32.25 24.53 32 26 32C27.4 32 31.61 32.25 32 31C32.81 28 27.36 27.97 26 28z"
        transform="matrix(0.952,0.306,-0.306,0.952,20.4871,-8.9851)"
  />
  <radialGradient id="gradient3" gradientUnits="userSpaceOnUse" cx="0" cy="0" r="64" gradientTransform="matrix(0.0781,0,0,0.0468,27.125,28.4375)">
   <stop offset="0.6228" stop-color="#ff0000"/>
   <stop offset="0" stop-color="#c80000"/>
   <stop offset="1" stop-color="#ff7575"/>
  </radialGradient>
  <path style="fill:url(#gradient3)"
        d="M26 28C24.93 28.01 20.76 28.28 21 29C21.25 29.69 24.86 30 26 30C27.11 30 30.72 29.7 31 29C31.25 28.28 27.06 27.97 26 28z"
        transform="matrix(0.952,0.306,-0.306,0.952,20.4871,-8.9851)"
  />
  <linearGradient id="gradient4" gradientUnits="userSpaceOnUse" x1="23" y1="15" x2="27" y2="15">
   <stop offset="1" stop-color="#ff9090"/>
   <stop offset="0.4957" stop-color="#ff0505"/>
   <stop offset="0" stop-color="#c80000"/>
  </linearGradient>
  <path style="fill:url(#gradient4)"
        d="M33 7C33.27 5.69 32 4 26 4C20 4 18.67 5.68 19 7L24 28C24.11 28.53 23.28 28.7 23.28 28.7C24 29 25 29 26 29C27 29 28 29 28.61 28.68C28.61 28.68 27.87 28.52 28 28L33 7z"
        transform="matrix(0.952,0.306,-0.306,0.952,20.4871,-8.9851)"
  />
 </g>
</svg>
