<?xml version="1.0" encoding="UTF-8" standalone="yes"?>
<svg version="1.1" width="64" height="64" color-interpolation="linearRGB"
     xmlns:svg="http://www.w3.org/2000/svg" xmlns="http://www.w3.org/2000/svg">
 <g>
  <path style="fill:#010101; fill-opacity:0.4235"
        d="M34 64H50C55 64 61.61 61.22 60 58C58 54 50 55.5 50 52C50 49 42 48 42 48V56L34 64z"
  />
  <path style="fill:none; stroke:#000000; stroke-width:4"
        d="M22 21V38L24 40V57L28 59H30V60L34 62L40 56V42L42 40V23L29 17L22 21z"
        transform="matrix(1,0,0,1,-16,-6)"
  />
  <linearGradient id="gradient0" gradientUnits="userSpaceOnUse" x1="85.74" y1="-57.07" x2="128.61" y2="-8.05">
   <stop offset="0" stop-color="#ffdb97"/>
   <stop offset="1" stop-color="#fcaf29"/>
  </linearGradient>
  <path style="fill:url(#gradient0)"
        d="M22 21V37L24 40V57L28 59H30V60L34 62V45H36V27L22 21z"
        transform="matrix(1,0,0,1,-16,-6)"
  />
  <linearGradient id="gradient1" gradientUnits="userSpaceOnUse" x1="-37.97" y1="-32.98" x2="-18.83" y2="-50.95">
   <stop offset="0" stop-color="#fff7ea"/>
   <stop offset="0.996" stop-color="#fdd17b"/>
  </linearGradient>
  <path style="fill:url(#gradient1)"
        d="M22 21L36 27L42 23L32 22L35.99 19.99L29 17L22 21z"
        transform="matrix(1,0,0,1,-16,-6)"
  />
  <linearGradient id="gradient2" gradientUnits="userSpaceOnUse" x1="55.23" y1="-51.61" x2="76.84" y2="-44.97">
   <stop offset="0" stop-color="#c85805"/>
   <stop offset="1" stop-color="#f06306"/>
  </linearGradient>
  <path style="fill:url(#gradient2)"
        d="M36 45H34V62L40 56V42L42 40V23L36 27V45z"
        transform="matrix(1,0,0,1,-16,-6)"
  />
  <path style="fill:#a32904"
        d="M34 45V51L40 42L36 45H34z"
        transform="matrix(1,0,0,1,-16,-6)"
  />
  <linearGradient id="gradient3" gradientUnits="userSpaceOnUse" x1="29.92" y1="-66" x2="40.07" y2="-66">
   <stop offset="0" stop-color="#c85804"/>
   <stop offset="1" stop-color="#dc952f"/>
  </linearGradient>
  <path style="fill:url(#gradient3)"
        d="M32 22L42 23L36 20L32 22z"
        transform="matrix(1,0,0,1,-16,-6)"
  />
  <path style="fill:none; stroke:#000000; stroke-width:4"
        d="M31 10C28.5 10 26 12.5 26 15C26 17.5 28.5 20 31 20C33.5 20 36 17.5 36 15C36 12.5 33.5 10 31 10z"
        transform="matrix(1,0,0,1,-16,-6)"
  />
  <radialGradient id="gradient4" gradientUnits="userSpaceOnUse" cx="0" cy="0" r="64" gradientTransform="matrix(0.1707,0,0,0.1694,30.5528,12.4743)">
   <stop offset="0" stop-color="#f2f2f2"/>
   <stop offset="0.6705" stop-color="#7d7a7a"/>
   <stop offset="1" stop-color="#bca184"/>
  </radialGradient>
  <path style="fill:url(#gradient4)"
        d="M31 10C28.5 10 26 12.5 26 15C26 17.5 28.5 20 31 20C33.5 20 36 17.5 36 15C36 12.5 33.5 10 31 10z"
        transform="matrix(1,0,0,1,-16,-6)"
  />
  <linearGradient id="gradient5" gradientUnits="userSpaceOnUse" x1="55.23" y1="-51.61" x2="76.84" y2="-44.97">
   <stop offset="0" stop-color="#c85805"/>
   <stop offset="1" stop-color="#f06306"/>
  </linearGradient>
  <path style="fill:url(#gradient5)"
        d="M28 59H30V45L28 44V59z"
        transform="matrix(1,0,0,1,-16,-6)"
  />
  <path style="fill:none; stroke:#000000; stroke-width:4"
        d="M22 21V38L24 40V57L28 59H30V60L34 62L40 56V42L42 40V23L29 17L22 21z"
  />
  <linearGradient id="gradient6" gradientUnits="userSpaceOnUse" x1="85.74" y1="-57.07" x2="128.61" y2="-8.05">
   <stop offset="0" stop-color="#ffdb97"/>
   <stop offset="1" stop-color="#fcaf29"/>
  </linearGradient>
  <path style="fill:url(#gradient6)"
        d="M22 21V37L24 40V57L28 59H30V60L34 62V45H36V27L22 21z"
  />
  <linearGradient id="gradient7" gradientUnits="userSpaceOnUse" x1="-37.97" y1="-32.98" x2="-18.83" y2="-50.95">
   <stop offset="0" stop-color="#fff7ea"/>
   <stop offset="0.996" stop-color="#fdd17b"/>
  </linearGradient>
  <path style="fill:url(#gradient7)"
        d="M22 21L36 27L42 23L32 22L35.99 19.99L29 17L22 21z"
  />
  <linearGradient id="gradient8" gradientUnits="userSpaceOnUse" x1="55.23" y1="-51.61" x2="76.84" y2="-44.97">
   <stop offset="0" stop-color="#c85805"/>
   <stop offset="1" stop-color="#f06306"/>
  </linearGradient>
  <path style="fill:url(#gradient8)"
        d="M36 45H34V62L40 56V42L42 40V23L36 27V45z"
  />
  <linearGradient id="gradient9" gradientUnits="userSpaceOnUse" x1="29.92" y1="-66" x2="40.07" y2="-66">
   <stop offset="0" stop-color="#c85804"/>
   <stop offset="1" stop-color="#dc952f"/>
  </linearGradient>
  <path style="fill:url(#gradient9)"
        d="M32 22L42 23L36 20L32 22z"
  />
  <path style="fill:#a32904"
        d="M34 45V51L40 42L36 45H34z"
  />
  <path style="fill:none; stroke:#000000; stroke-width:4"
        d="M32 8C29 8 26 11 26 14C26 17 29 20 32 20C35 20 38 17 38 14C38 11 35 8 32 8z"
  />
  <radialGradient id="gradient10" gradientUnits="userSpaceOnUse" cx="0" cy="0" r="64" gradientTransform="matrix(0.1707,0,0,0.1694,30.5528,12.4743)">
   <stop offset="0" stop-color="#f2f2f2"/>
   <stop offset="0.6705" stop-color="#7d7a7a"/>
   <stop offset="1" stop-color="#bca184"/>
  </radialGradient>
  <path style="fill:url(#gradient10)"
        d="M32 8C29 8 26 11 26 14C26 17 29 20 32 20C35 20 38 17 38 14C38 11 35 8 32 8z"
  />
  <linearGradient id="gradient11" gradientUnits="userSpaceOnUse" x1="55.23" y1="-51.61" x2="76.84" y2="-44.97">
   <stop offset="0" stop-color="#c85805"/>
   <stop offset="1" stop-color="#f06306"/>
  </linearGradient>
  <path style="fill:url(#gradient11)"
        d="M28 59H30V45L28 44V59z"
  />
 </g>
</svg>
