<?xml version="1.0" encoding="UTF-8" standalone="yes"?>
<svg version="1.1" width="64" height="64" color-interpolation="linearRGB"
     xmlns:svg="http://www.w3.org/2000/svg" xmlns="http://www.w3.org/2000/svg">
 <g>
  <path style="fill:#ffffff"
        d="M8.83 32.02C8.83 20.87 17.87 11.83 29.02 11.83C40.17 11.83 49.21 20.87 49.21 32.02C49.21 43.17 40.17 52.21 29.02 52.21C17.87 52.21 8.83 43.17 8.83 32.02z"
        transform="matrix(1.419,0,0,1.419,-9.2885,-13.547)"
  />
  <path style="fill:none; stroke:#ffffff; stroke-width:4.3596; stroke-linejoin:bevel"
        d="M8.83 32.02C8.83 20.87 17.87 11.83 29.02 11.83C40.17 11.83 49.21 20.87 49.21 32.02C49.21 43.17 40.17 52.21 29.02 52.21C17.87 52.21 8.83 43.17 8.83 32.02z"
        transform="matrix(1.419,0,0,1.419,-9.2885,-13.547)"
  />
  <radialGradient id="gradient0" gradientUnits="userSpaceOnUse" cx="0" cy="0" r="64" gradientTransform="matrix(0.582,0,0,-0.582,18.296,20.0445)">
   <stop offset="0" stop-color="#b8f5ff"/>
   <stop offset="1" stop-color="#0097ff"/>
  </radialGradient>
  <path style="fill:url(#gradient0)"
        d="M8.83 32.02C8.83 20.87 17.87 11.83 29.02 11.83C40.17 11.83 49.21 20.87 49.21 32.02C49.21 43.17 40.17 52.21 29.02 52.21C17.87 52.21 8.83 43.17 8.83 32.02z"
        transform="matrix(1.419,0,0,1.419,-9.2885,-13.547)"
  />
  <path style="fill:none; stroke:#000000; stroke-width:1.5358; stroke-linejoin:bevel"
        d="M8.83 32.02C8.83 20.87 17.87 11.83 29.02 11.83C40.17 11.83 49.21 20.87 49.21 32.02C49.21 43.17 40.17 52.21 29.02 52.21C17.87 52.21 8.83 43.17 8.83 32.02z"
        transform="matrix(1.419,0,0,1.419,-9.2885,-13.547)"
  />
  <path style="fill:#ffffff"
        d="M42.43 28.78L41.17 25.27L44.06 23.53L40.68 21.94L41.5 18.66L37.98 19.93L36.24 17.03L34.65 20.41L31.37 19.6L32.64 23.11L29.74 24.86L33.13 26.44L32.31 29.72L35.82 28.45L37.57 31.35L39.16 27.97L42.43 28.78z"
        transform="matrix(1.419,0,0,1.419,-9.2885,-13.547)"
  />
  <path style="fill:none; stroke:#ffffff; stroke-width:0.0726; stroke-linejoin:bevel"
        d="M42.43 28.78L41.17 25.27L44.06 23.53L40.68 21.94L41.5 18.66L37.98 19.93L36.24 17.03L34.65 20.41L31.37 19.6L32.64 23.11L29.74 24.86L33.13 26.44L32.31 29.72L35.82 28.45L37.57 31.35L39.16 27.97L42.43 28.78z"
        transform="matrix(1.419,0,0,1.419,-9.2885,-13.547)"
  />
  <path style="fill:#000000"
        d="M19.97 15.22L19.05 18.72L17.51 18.42L18.56 14.6L19.97 15.22z"
        transform="matrix(1.419,0,0,1.419,-9.2885,-13.547)"
  />
  <path style="fill:#000000"
        d="M18.31 22.29L18 25.86L16.59 25.8L16.9 22.04L18.31 22.29z"
        transform="matrix(1.419,0,0,1.419,-9.2885,-13.547)"
  />
  <path style="fill:#000000"
        d="M18 29.54L18.56 33.05L17.02 33.36L16.59 29.61L18 29.54z"
        transform="matrix(1.419,0,0,1.419,-9.2885,-13.547)"
  />
  <path style="fill:#000000"
        d="M19.42 36.62L20.83 39.81L19.48 40.43L18 36.99L19.42 36.62z"
        transform="matrix(1.419,0,0,1.419,-9.2885,-13.547)"
  />
  <path style="fill:#000000"
        d="M22.56 43.07L24.64 45.9L23.41 46.89L21.26 43.82L22.56 43.07z"
        transform="matrix(1.419,0,0,1.419,-9.2885,-13.547)"
  />
  <path style="fill:#000000"
        d="M26.92 48.86L29.56 51.56L28.09 52.3L25.82 49.79L26.92 48.86z"
        transform="matrix(1.419,0,0,1.419,-9.2885,-13.547)"
  />
  <path style="fill:#000000"
        d="M11.12 40.06L14.19 41.35L13.82 42.64L11.18 41.84L11.12 40.06z"
        transform="matrix(1.419,0,0,1.419,-9.2885,-13.547)"
  />
  <path style="fill:#000000"
        d="M17.7 42.09L21.39 42.34L21.33 43.87L17.51 43.5L17.7 42.09z"
        transform="matrix(1.419,0,0,1.419,-9.2885,-13.547)"
  />
  <path style="fill:#000000"
        d="M25.01 42.4L28.64 42.03L28.83 43.5L25.07 43.87L25.01 42.4z"
        transform="matrix(1.419,0,0,1.419,-9.2885,-13.547)"
  />
  <path style="fill:#000000"
        d="M32.21 41.48L35.71 40.61L36.14 42.09L32.52 42.95L32.21 41.48z"
        transform="matrix(1.419,0,0,1.419,-9.2885,-13.547)"
  />
  <path style="fill:#000000"
        d="M39.22 39.45L42.48 37.97L43.09 39.26L39.77 40.86L39.22 39.45z"
        transform="matrix(1.419,0,0,1.419,-9.2885,-13.547)"
  />
  <path style="fill:#000000"
        d="M45.43 36.01L47.89 33.54L49.24 34.4L46.41 37.17L45.43 36.01z"
        transform="matrix(1.419,0,0,1.419,-9.2885,-13.547)"
  />
 </g>
</svg>
