<?xml version="1.0" encoding="UTF-8" standalone="yes"?>
<svg version="1.1" width="64" height="64" color-interpolation="linearRGB"
     xmlns:svg="http://www.w3.org/2000/svg" xmlns="http://www.w3.org/2000/svg">
 <g>
  <path style="fill:#010101; fill-opacity:0.5019"
        d="M36 61H41L64 30L58 27L59 31L36 61z"
  />
  <path style="fill:none; stroke:#010000; stroke-width:4"
        d="M2 28V41L36 59L58 30V17L25 5L2 28z"
  />
  <linearGradient id="gradient0" gradientUnits="userSpaceOnUse" x1="18.96" y1="-37.01" x2="63.46" y2="-26.58">
   <stop offset="0" stop-color="#fff8ea"/>
   <stop offset="1" stop-color="#f5deac"/>
  </linearGradient>
  <path style="fill:url(#gradient0)"
        d="M2 28L36 43L58 17L25 5L2 28z"
  />
  <linearGradient id="gradient1" gradientUnits="userSpaceOnUse" x1="44.72" y1="-7.9" x2="86.1" y2="10.51">
   <stop offset="0" stop-color="#983f04"/>
   <stop offset="1" stop-color="#e6c276"/>
  </linearGradient>
  <path style="fill:url(#gradient1)"
        d="M36 43V59L58 30V17L36 43z"
  />
  <linearGradient id="gradient2" gradientUnits="userSpaceOnUse" x1="22.47" y1="94.72" x2="-15.1" y2="69.42">
   <stop offset="0" stop-color="#ffd16d"/>
   <stop offset="1" stop-color="#ffefce"/>
  </linearGradient>
  <path style="fill:url(#gradient2)"
        d="M2 28V41L36 59V43L2 28z"
  />
 </g>
</svg>
