<?xml version="1.0" encoding="UTF-8" standalone="yes"?>
<svg version="1.1" width="64" height="64" color-interpolation="linearRGB"
     xmlns:svg="http://www.w3.org/2000/svg" xmlns="http://www.w3.org/2000/svg">
 <g>
  <path style="fill:#010101; fill-opacity:0.396"
        d="M42 61H48L52 57H56L62 51L48 47L42 61z"
  />
  <path style="fill:none; stroke:#000000; stroke-width:4"
        d="M3 15L13 41L42 59L60 12L48 10L44 12L26 8L24 13L16 11L15.91 19.2L3 15z"
  />
  <linearGradient id="gradient0" gradientUnits="userSpaceOnUse" x1="102.6" y1="8.5" x2="102.74" y2="47.07">
   <stop offset="0" stop-color="#face79"/>
   <stop offset="1" stop-color="#bc4105"/>
  </linearGradient>
  <path style="fill:url(#gradient0)"
        d="M26 8L14 41L42 58L60 12L48 10L44 12L26 8z"
  />
  <linearGradient id="gradient1" gradientUnits="userSpaceOnUse" x1="103.24" y1="12.68" x2="103.39" y2="55.34">
   <stop offset="0" stop-color="#ffffff"/>
   <stop offset="1" stop-color="#8e8e8e"/>
  </linearGradient>
  <path style="fill:url(#gradient1)"
        d="M16 11V41L42 57L49 22L16 11z"
  />
  <linearGradient id="gradient2" gradientUnits="userSpaceOnUse" x1="78.34" y1="-26.66" x2="101.46" y2="12.94">
   <stop offset="0" stop-color="#9a9a9a"/>
   <stop offset="1" stop-color="#505050"/>
  </linearGradient>
  <path style="fill:url(#gradient2)"
        d="M16 11L49 22L42 57L52 20.37L16 11z"
  />
  <linearGradient id="gradient3" gradientUnits="userSpaceOnUse" x1="88.52" y1="9.59" x2="97.54" y2="51.29">
   <stop offset="0" stop-color="#ffe2ac"/>
   <stop offset="1" stop-color="#f49806"/>
  </linearGradient>
  <path style="fill:url(#gradient3)"
        d="M3 15L13 41L42 59L38 30L3 15z"
  />
  <path style="fill:#a03d03"
        d="M3 15L38 30L42 59L40.5 28L3 15z"
  />
  <path style="fill:none; stroke:#000000; stroke-width:4"
        d="M14.3 35.01C11.97 35.12 9.8 35.87 7.95 37.05C7.95 37.05 7.9 38.29 8.44 39.13L9.53 40.84C8.13 41.9 7.06 43.34 6.48 45.04L4.56 44.54C3.6 44.29 2.43 44.69 2.43 44.69C2.15 45.72 2.02 46.83 2.02 47.95C2.02 49.15 2.17 50.29 2.46 51.38C2.46 51.38 3.62 51.79 4.6 51.52L6.52 50.99C7.11 52.63 8.18 54.08 9.55 55.11L8.47 56.79C7.94 57.63 7.98 58.88 7.98 58.88C9.82 60.06 11.98 60.79 14.31 60.9C14.31 60.9 15.04 59.95 15.09 58.95L15.18 56.93C17 56.9 18.68 56.31 20.09 55.36L21.34 56.91C21.97 57.68 23.15 58.04 23.15 58.04C24.88 56.63 26.25 54.79 27.09 52.65C27.09 52.65 26.4 51.68 25.47 51.31L23.59 50.56C23.84 49.75 23.97 48.86 23.97 47.97C23.97 47.09 23.86 46.26 23.63 45.45L25.49 44.76C26.43 44.4 27.13 43.37 27.13 43.37C26.33 41.22 24.95 39.34 23.2 37.91C23.2 37.91 22.04 38.27 21.4 39.05L20.15 40.62C18.75 39.63 17.04 39.04 15.18 39L15.09 36.97C15.06 35.97 14.31 35.01 14.31 35.01H14.3z
           M19 48C19 50.2 17.21 52 15 52C12.8 52 11 50.21 11 48C11 45.79 12.78 44 15 44C17.2 44 19 45.78 19 48z"
  />
  <linearGradient id="gradient4" gradientUnits="userSpaceOnUse" x1="21.96" y1="-0.01" x2="57.17" y2="22.58">
   <stop offset="0" stop-color="#f7f9ff"/>
   <stop offset="1" stop-color="#989db0"/>
  </linearGradient>
  <path style="fill:url(#gradient4)"
        d="M14.3 35.01C11.97 35.12 9.8 35.87 7.95 37.05C7.95 37.05 7.9 38.29 8.44 39.13L9.53 40.84C8.13 41.9 7.06 43.34 6.48 45.04L4.56 44.54C3.6 44.29 2.43 44.69 2.43 44.69C2.15 45.72 2.02 46.83 2.02 47.95C2.02 49.15 2.17 50.29 2.46 51.38C2.46 51.38 3.62 51.79 4.6 51.52L6.52 50.99C7.11 52.63 8.18 54.08 9.55 55.11L8.47 56.79C7.94 57.63 7.98 58.88 7.98 58.88C9.82 60.06 11.98 60.79 14.31 60.9C14.31 60.9 15.04 59.95 15.09 58.95L15.18 56.93C17 56.9 18.68 56.31 20.09 55.36L21.34 56.91C21.97 57.68 23.15 58.04 23.15 58.04C24.88 56.63 26.25 54.79 27.09 52.65C27.09 52.65 26.4 51.68 25.47 51.31L23.59 50.56C23.84 49.75 23.97 48.86 23.97 47.97C23.97 47.09 23.86 46.26 23.63 45.45L25.49 44.76C26.43 44.4 27.13 43.37 27.13 43.37C26.33 41.22 24.95 39.34 23.2 37.91C23.2 37.91 22.04 38.27 21.4 39.05L20.15 40.62C18.75 39.63 17.04 39.04 15.18 39L15.09 36.97C15.06 35.97 14.31 35.01 14.31 35.01H14.3z
           M19 48C19 50.2 17.21 52 15 52C12.8 52 11 50.21 11 48C11 45.79 12.78 44 15 44C17.2 44 19 45.78 19 48z"
  />
 </g>
</svg>
