<?xml version="1.0" encoding="UTF-8" standalone="yes"?>
<svg version="1.1" width="64" height="64" color-interpolation="linearRGB"
     xmlns:svg="http://www.w3.org/2000/svg" xmlns="http://www.w3.org/2000/svg">
 <g>
  <path style="fill:#010101; fill-opacity:0.396"
        d="M42 61H48L52 57H56L62 51L48 47L42 61z"
  />
  <path style="fill:none; stroke:#000000; stroke-width:4"
        d="M3 15L13 41L42 59L60 12L48 10L44 12L26 8L24 13L16 11L15.91 19.2L3 15z"
  />
  <linearGradient id="gradient0" gradientUnits="userSpaceOnUse" x1="102.6" y1="8.5" x2="102.74" y2="47.07">
   <stop offset="0" stop-color="#face79"/>
   <stop offset="1" stop-color="#bc4105"/>
  </linearGradient>
  <path style="fill:url(#gradient0)"
        d="M26 8L14 41L42 58L60 12L48 10L44 12L26 8z"
  />
  <linearGradient id="gradient1" gradientUnits="userSpaceOnUse" x1="103.24" y1="12.68" x2="103.39" y2="55.34">
   <stop offset="0" stop-color="#ffffff"/>
   <stop offset="1" stop-color="#8e8e8e"/>
  </linearGradient>
  <path style="fill:url(#gradient1)"
        d="M16 11V41L42 57L49 22L16 11z"
  />
  <linearGradient id="gradient2" gradientUnits="userSpaceOnUse" x1="78.34" y1="-26.66" x2="101.46" y2="12.94">
   <stop offset="0" stop-color="#9a9a9a"/>
   <stop offset="1" stop-color="#505050"/>
  </linearGradient>
  <path style="fill:url(#gradient2)"
        d="M16 11L49 22L42 57L52 20.37L16 11z"
  />
  <linearGradient id="gradient3" gradientUnits="userSpaceOnUse" x1="88.52" y1="9.59" x2="97.54" y2="51.29">
   <stop offset="0" stop-color="#ffe2ac"/>
   <stop offset="1" stop-color="#f49806"/>
  </linearGradient>
  <path style="fill:url(#gradient3)"
        d="M3 15L13 41L42 59L38 30L3 15z"
  />
  <path style="fill:#a03d03"
        d="M3 15L38 30L42 59L40.5 28L3 15z"
  />
  <path style="fill:none; stroke:#000000; stroke-width:4"
        d="M8 54L4 58C4 58 3.87 59.12 4.37 59.62C4.87 60.12 6 60 6 60L10 56L13 51L8 54z"
  />
  <linearGradient id="gradient4" gradientUnits="userSpaceOnUse" x1="23.15" y1="39.19" x2="25.46" y2="41.67">
   <stop offset="0" stop-color="#d4d4d4"/>
   <stop offset="1" stop-color="#474747"/>
  </linearGradient>
  <path style="fill:url(#gradient4)"
        d="M8 54L4 58C4 58 3.87 59.12 4.37 59.62C4.87 60.12 6 60 6 60L10 56L13 51L8 54z"
  />
  <path style="fill:none; stroke:#000000; stroke-width:4"
        d="M18 38C13.58 38 10 41.58 10 46C10 50.41 13.58 54 18 54C22.41 54 26 50.41 26 46C26 41.58 22.41 38 18 38z"
  />
  <radialGradient id="gradient5" gradientUnits="userSpaceOnUse" cx="0" cy="0" r="64" gradientTransform="matrix(0.2031,0,0,0.2031,19,46)">
   <stop offset="0" stop-color="#dcf4ff"/>
   <stop offset="1" stop-color="#6094aa"/>
  </radialGradient>
  <path style="fill:url(#gradient5)"
        d="M18 38C13.58 38 10 41.58 10 46C10 50.41 13.58 54 18 54C22.41 54 26 50.41 26 46C26 41.58 22.41 38 18 38z"
  />
  <path style="fill:#ffffff"
        d="M18 38C13.58 38 10 41.58 10 46C10 50.41 13.58 54 18 54C22.41 54 26 50.41 26 46C26 41.58 22.41 38 18 38z"
        transform="matrix(0.25,0,0,0.25,11.5,31.5)"
  />
 </g>
</svg>
