<?xml version="1.0" encoding="UTF-8" standalone="yes"?>
<svg version="1.1" width="64" height="64" color-interpolation="linearRGB"
     xmlns:svg="http://www.w3.org/2000/svg" xmlns="http://www.w3.org/2000/svg">
 <g>
  <linearGradient id="gradient0" gradientUnits="userSpaceOnUse" x1="26.04" y1="45.89" x2="17.55" y2="54.38">
   <stop offset="0" stop-color="#000000" stop-opacity="0.4"/>
   <stop offset="1" stop-color="#000000" stop-opacity="0"/>
  </linearGradient>
  <path style="fill:none; stroke:url(#gradient0); stroke-width:4; stroke-linecap:round; stroke-linejoin:round"
        d="M24 26C11.84 26 2 30.47 2 36C2 24.95 11.85 16 24 16V6L40 21L24 36V26z"
        transform="matrix(1.4553,0,0,1.4553,2.9104,3.0759)"
  />
  <linearGradient id="gradient1" gradientUnits="userSpaceOnUse" x1="26.04" y1="45.89" x2="17.55" y2="54.38">
   <stop offset="0" stop-color="#004080"/>
   <stop offset="1" stop-color="#003f80" stop-opacity="0"/>
  </linearGradient>
  <path style="fill:none; stroke:url(#gradient1); stroke-width:4; stroke-linecap:round; stroke-linejoin:round"
        d="M24 26C11.84 26 2 30.47 2 36C2 24.95 11.85 16 24 16V6L40 21L24 36V26z"
        transform="matrix(1.4553,0,0,1.4553,-0.0001,0.1653)"
  />
  <linearGradient id="gradient2" gradientUnits="userSpaceOnUse" x1="128" y1="6" x2="128" y2="36">
   <stop offset="0" stop-color="#abd5ff"/>
   <stop offset="1" stop-color="#006cd9"/>
  </linearGradient>
  <path style="fill:url(#gradient2)"
        d="M24 26C11.84 26 2 30.47 2 36C2 24.95 11.85 16 24 16V6L40 21L24 36V26z"
        transform="matrix(1.4553,0,0,1.4553,-0.0001,0.1653)"
  />
 </g>
</svg>
