<?xml version="1.0" encoding="UTF-8" standalone="yes"?>
<svg version="1.1" width="64" height="64" color-interpolation="linearRGB"
     xmlns:svg="http://www.w3.org/2000/svg" xmlns="http://www.w3.org/2000/svg">
 <g>
  <path style="fill:none; stroke:#000000; stroke-opacity:0.4; stroke-width:6"
        d="M8 34L34 8
           M21 3C11.05 3 3 11.05 3 21C3 30.94 11.05 39 21 39C30.94 39 39 30.94 39 21C39 11.05 30.94 3 21 3z"
        transform="matrix(1.409,0,0,1.409,3.8183,3.8183)"
  />
  <path style="fill:none; stroke:#800000; stroke-width:6"
        d="M8 34L34 8
           M21 3C11.05 3 3 11.05 3 21C3 30.94 11.05 39 21 39C30.94 39 39 30.94 39 21C39 11.05 30.94 3 21 3z"
        transform="matrix(1.409,0,0,1.409,1.0001,1.0001)"
  />
  <linearGradient id="gradient0" gradientUnits="userSpaceOnUse" x1="128" y1="1.99" x2="128" y2="40">
   <stop offset="0" stop-color="#ffabab"/>
   <stop offset="1" stop-color="#d90000"/>
  </linearGradient>
  <path style="fill:none; stroke:url(#gradient0); stroke-width:2"
        d="M21 3C11.05 3 3 11.05 3 21C3 30.94 11.05 39 21 39C30.94 39 39 30.94 39 21C39 11.05 30.94 3 21 3z
           M8 34L34 8"
        transform="matrix(1.409,0,0,1.409,1.0001,1.0001)"
  />
  <path style="fill:none; stroke:#000000; stroke-opacity:0.4; stroke-width:6; stroke-linecap:round; stroke-linejoin:round"
        d="M27 33V25L33 33V25
           M17 25V31C17 32 18 33 19 33H21C22.06 33 23 32 23 31V25
           M7 31C7 32 8 33 9 33H11C12 33 13 32 13 31V25
           M37 33V25
           M43 25L37 29L43 33"
        transform="matrix(1.409,0,0,1.409,-1.8179,-7.4543)"
  />
  <path style="fill:none; stroke:#545454; stroke-width:6; stroke-linecap:round; stroke-linejoin:round"
        d="M27 33V25L33 33V25
           M17 25V31C17 32 18 33 19 33H21C22.06 33 23 32 23 31V25
           M7 31C7 32 8 33 9 33H11C12 33 13 32 13 31V25
           M43 25L37 29L43 33
           M37 33V25"
        transform="matrix(1.409,0,0,1.409,-4.6361,-10.2724)"
  />
  <linearGradient id="gradient1" gradientUnits="userSpaceOnUse" x1="128" y1="24" x2="128" y2="34">
   <stop offset="0" stop-color="#ffffff"/>
   <stop offset="1" stop-color="#e5e5e5"/>
  </linearGradient>
  <path style="fill:none; stroke:url(#gradient1); stroke-width:2; stroke-linecap:round; stroke-linejoin:round"
        d="M27 33V25L33 33V25
           M17 25V31C17 32 18 33 19 33H21C22.06 33 23 32 23 31V25
           M7 31C7 32 8 33 9 33H11C12 33 13 32 13 31V25
           M37 33V25
           M43 25L37 29L43 33"
        transform="matrix(1.409,0,0,1.409,-4.6361,-10.2724)"
  />
 </g>
</svg>
