<?xml version="1.0" encoding="UTF-8" standalone="yes"?>
<svg version="1.1" width="64" height="64" color-interpolation="linearRGB"
     xmlns:svg="http://www.w3.org/2000/svg" xmlns="http://www.w3.org/2000/svg">
 <g>
  <path style="fill:#000000; fill-opacity:0.3882"
        d="M60 35.39L38 58H44L64 37.39L60 35.39z"
        transform="matrix(1,0,0,1,0,-2)"
  />
  <path style="fill:none; stroke:#000000; stroke-width:4"
        d="M2 36V38L38 56L58 36V24L24 12L11 23L2 36z"
        transform="matrix(1,0,0,1,0,-2)"
  />
  <linearGradient id="gradient0" gradientUnits="userSpaceOnUse" x1="59.2" y1="-51.44" x2="80.1" y2="-27.22">
   <stop offset="0" stop-color="#8e8e8e"/>
   <stop offset="1" stop-color="#434343"/>
  </linearGradient>
  <path style="fill:url(#gradient0)"
        d="M38 52L2 36V38L38 56V52z"
        transform="matrix(1,0,0,1,0,-2)"
  />
  <linearGradient id="gradient1" gradientUnits="userSpaceOnUse" x1="60.48" y1="10.36" x2="75.86" y2="19.73">
   <stop offset="0" stop-color="#1f1f1f"/>
   <stop offset="1" stop-color="#515151"/>
  </linearGradient>
  <path style="fill:url(#gradient1)"
        d="M38 52L48.02 35.96L58 24V36L38 56V52z"
        transform="matrix(1,0,0,1,0,-2)"
  />
  <linearGradient id="gradient2" gradientUnits="userSpaceOnUse" x1="-4" y1="-62" x2="58" y2="-62">
   <stop offset="0" stop-color="#949494"/>
   <stop offset="1" stop-color="#2d2d2d"/>
  </linearGradient>
  <path style="fill:url(#gradient2)"
        d="M38 52L47.97 36.03L58 24L24 12L11 23L2 36L38 52z"
        transform="matrix(1,0,0,1,0,-2)"
  />
  <path style="fill:#d1d1d1"
        d="M43 44L47.97 37.03L11 23L6 30L43 44z"
        transform="matrix(1,0,0,1,0,-2)"
  />
  <path style="fill:#7f7f7f"
        d="M22 9V11L33.82 15.38L29.33 18.86L29.52 19.59L35.51 14.6L22 9z"
        transform="matrix(1,0,0,1,9,6)"
  />
  <linearGradient id="gradient3" gradientUnits="userSpaceOnUse" x1="60.48" y1="10.36" x2="75.86" y2="19.73">
   <stop offset="0" stop-color="#1f1f1f"/>
   <stop offset="1" stop-color="#515151"/>
  </linearGradient>
  <path style="fill:url(#gradient3)"
        d="M18.33 13.87L22.81 11.62L22.62 9.91L16.64 13.64L28.52 18.59L28.33 17.86L18.33 13.87z"
        transform="matrix(1,0,0,1,9,6)"
  />
  <path style="fill:#252525"
        d="M30.33 17.86L33.81 15.38L22.81 11.62L18.33 13.87L30.33 17.86z"
        transform="matrix(1,0,0,1,9,6)"
  />
  <linearGradient id="gradient4" gradientUnits="userSpaceOnUse" x1="21.27" y1="-6.84" x2="63.58" y2="8.86">
   <stop offset="0" stop-color="#ff0000"/>
   <stop offset="0.3116" stop-color="#ffde2b"/>
   <stop offset="0.537" stop-color="#0c9b27"/>
   <stop offset="0.829" stop-color="#18007f"/>
  </linearGradient>
  <path style="fill:url(#gradient4)"
        d="M44 42L45 41L8 27L7 28L44 42z"
        transform="matrix(1,0,0,1,0,-2)"
  />
 </g>
</svg>
