<?xml version="1.0" encoding="UTF-8" standalone="yes"?>
<svg version="1.1" width="64" height="64" color-interpolation="linearRGB"
     xmlns:svg="http://www.w3.org/2000/svg" xmlns="http://www.w3.org/2000/svg">
 <g>
  <path style="fill:#010101; fill-opacity:0.4941"
        d="M40 64H48L60 49L52 46L40 64z"
  />
  <path style="fill:none; stroke:#010000; stroke-width:4"
        d="M6 8V44L40 62L50 50V14L16 2L6 8z"
  />
  <linearGradient id="gradient0" gradientUnits="userSpaceOnUse" x1="13.84" y1="-38.14" x2="58.34" y2="-27.7">
   <stop offset="0" stop-color="#ffffff"/>
   <stop offset="1" stop-color="#d3d3d3"/>
  </linearGradient>
  <path style="fill:url(#gradient0)"
        d="M6 8L40 22L50 14L16 2L6 8z"
  />
  <linearGradient id="gradient1" gradientUnits="userSpaceOnUse" x1="50.76" y1="-56.62" x2="103.27" y2="-23.15">
   <stop offset="0" stop-color="#161616"/>
   <stop offset="0.2421" stop-color="#585a71"/>
   <stop offset="0.8521" stop-color="#161616"/>
  </linearGradient>
  <path style="fill:url(#gradient1)"
        d="M37 24V46L8 33L8.05 11.87L37 24z"
  />
  <linearGradient id="gradient2" gradientUnits="userSpaceOnUse" x1="40.61" y1="-4.89" x2="77.77" y2="1.75">
   <stop offset="0" stop-color="#474747"/>
   <stop offset="1" stop-color="#a5a0a0"/>
  </linearGradient>
  <path style="fill:url(#gradient2)"
        d="M40 22V62L50 50V14L40 22z"
  />
  <linearGradient id="gradient3" gradientUnits="userSpaceOnUse" x1="11.3" y1="82.69" x2="-25.59" y2="46.62">
   <stop offset="0" stop-color="#909090"/>
   <stop offset="1" stop-color="#d4d4d4"/>
  </linearGradient>
  <path style="fill:url(#gradient3)"
        d="M6 8V44L40 62V22L6 8z
           M37 24V46L8 32V12L37 24z"
  />
  <linearGradient id="gradient4" gradientUnits="userSpaceOnUse" x1="63.81" y1="3.47" x2="73.7" y2="31.53">
   <stop offset="1" stop-color="#9a9a9a"/>
   <stop offset="0" stop-color="#242222"/>
  </linearGradient>
  <path style="fill:url(#gradient4)"
        d="M8.97 33.01L8 34V12L9.05 12.87L8.97 33.01z"
  />
  <linearGradient id="gradient5" gradientUnits="userSpaceOnUse" x1="0.69" y1="-5.52" x2="39.3" y2="-5.52">
   <stop offset="0.3484" stop-color="#f3f3f3"/>
   <stop offset="0" stop-color="#d4cece"/>
   <stop offset="1" stop-color="#d9d9d9"/>
  </linearGradient>
  <path style="fill:url(#gradient5)"
        d="M37 46V48L8.34 33.5L9 32.53L37 46z"
  />
  <linearGradient id="gradient6" gradientUnits="userSpaceOnUse" x1="71.33" y1="67.55" x2="67.13" y2="75.92">
   <stop offset="0.1977" stop-color="#4b4b4b"/>
   <stop offset="0.7033" stop-color="#dbd8d8"/>
  </linearGradient>
  <path style="fill:url(#gradient6)"
        d="M8 37V42L36 56V50L8 37z"
  />
  <linearGradient id="gradient7" gradientUnits="userSpaceOnUse" x1="-18" y1="-64" x2="64" y2="-64">
   <stop offset="0.4448" stop-color="#858585"/>
   <stop offset="0.4562" stop-color="#e63737"/>
   <stop offset="0.9885" stop-color="#e63737"/>
  </linearGradient>
  <path style="fill:url(#gradient7)"
        d="M9 39V41L35 54V51L9 39z"
  />
  <path style="fill:#010000"
        d=""
        transform="matrix(1.5532,0,0,1.4841,-37.5347,-38.7341)"
  />
  <linearGradient id="gradient8" gradientUnits="userSpaceOnUse" x1="-7.46" y1="41.32" x2="1.05" y2="29.98">
   <stop offset="0.0537" stop-color="#d3d3d3"/>
   <stop offset="0.9992" stop-color="#555555"/>
  </linearGradient>
  <path style="fill:url(#gradient8)"
        d=""
        transform="matrix(1.0787,0,0,0.9855,-22.7652,-12.5583)"
  />
  <radialGradient id="gradient9" gradientUnits="userSpaceOnUse" cx="0" cy="0" r="64" gradientTransform="matrix(0.5274,0.0626,-0.0587,0.495,22.7732,18.9153)">
   <stop offset="0.0009" stop-color="#999cc1"/>
   <stop offset="0.9972" stop-color="#8c8c8c"/>
  </radialGradient>
  <path style="fill:url(#gradient9)"
        d="M15.93 21.89L16 31L28 37L28.11 27.63L15.93 21.89z
           M20 26V26V31V31L25 30.59V30.59L20 26z"
  />
  <linearGradient id="gradient10" gradientUnits="userSpaceOnUse" x1="50.76" y1="-56.62" x2="103.27" y2="-23.15">
   <stop offset="0" stop-color="#161616"/>
   <stop offset="0.2421" stop-color="#585a71"/>
   <stop offset="0.8521" stop-color="#161616"/>
  </linearGradient>
  <path style="fill:url(#gradient10)"
        d="M20 26V26V31V31L25 30.59V30.59L20 26z"
  />
  <linearGradient id="gradient11" gradientUnits="userSpaceOnUse" x1="36.01" y1="47.09" x2="39.48" y2="53.17">
   <stop offset="0" stop-color="#f3f3f3"/>
   <stop offset="1" stop-color="#2e2e2e"/>
  </linearGradient>
  <path style="fill:url(#gradient11)"
        d="M32.14 50.14C31.55 50.28 30 51 30 51L31.95 56.4C31.95 56.4 33.59 56.1 33.6 56.1C34.4 55.76 35.32 54.29 34.92 52.65C34.52 51.01 33.27 49.88 32.14 50.14z"
        transform="matrix(1.3081,0,0,1.3081,-24.4409,-25.0259)"
  />
  <linearGradient id="gradient12" gradientUnits="userSpaceOnUse" x1="43.06" y1="44.42" x2="45.67" y2="51.85">
   <stop offset="0.0075" stop-color="#bebebe"/>
   <stop offset="1" stop-color="#6d6d6d"/>
  </linearGradient>
  <path style="fill:url(#gradient12)"
        d="M30.46 50.57C29.38 50.81 28.8 52.32 29.17 53.94C29.53 55.55 30.7 56.66 31.78 56.42C32.86 56.18 33.44 54.67 33.07 53.05C32.71 51.44 31.54 50.33 30.46 50.57z"
        transform="matrix(1.3081,0,0,1.3081,-24.4409,-25.0259)"
  />
 </g>
</svg>
