<?xml version="1.0" encoding="UTF-8" standalone="yes"?>
<svg version="1.1" width="64" height="64" color-interpolation="linearRGB"
     xmlns:svg="http://www.w3.org/2000/svg" xmlns="http://www.w3.org/2000/svg">
 <g>
  <path style="fill:#000000; fill-opacity:0.3882"
        d="M45 35L38 58H44L64 43L45 35z"
  />
  <path style="fill:none; stroke:#000000; stroke-width:4"
        d="M2 36V38L38 56L51 43V37L53 34V30L17 17L12 23L2 36z"
  />
  <linearGradient id="gradient0" gradientUnits="userSpaceOnUse" x1="45.2" y1="0.55" x2="66.1" y2="24.77">
   <stop offset="0" stop-color="#6a6a6a"/>
   <stop offset="1" stop-color="#090909"/>
  </linearGradient>
  <path style="fill:url(#gradient0)"
        d="M38 52L2 36V37L38 54V52z"
  />
  <linearGradient id="gradient1" gradientUnits="userSpaceOnUse" x1="45.2" y1="0.55" x2="66.1" y2="24.77">
   <stop offset="0" stop-color="#e74e1f"/>
   <stop offset="1" stop-color="#cd3405"/>
  </linearGradient>
  <path style="fill:url(#gradient1)"
        d="M38 54L2 37V38L38 56V54z"
  />
  <linearGradient id="gradient2" gradientUnits="userSpaceOnUse" x1="-8.8" y1="-52.27" x2="38.29" y2="-61.51">
   <stop offset="1" stop-color="#010101"/>
   <stop offset="0" stop-color="#232323"/>
  </linearGradient>
  <path style="fill:url(#gradient2)"
        d="M38 52L53 30V32L38 54V52z"
  />
  <linearGradient id="gradient3" gradientUnits="userSpaceOnUse" x1="56.37" y1="5.34" x2="71.78" y2="14.66">
   <stop offset="0.0017" stop-color="#580c02"/>
   <stop offset="1" stop-color="#881f03"/>
  </linearGradient>
  <path style="fill:url(#gradient3)"
        d="M38 56V54L52 34V42L38 56V56z"
  />
  <linearGradient id="gradient4" gradientUnits="userSpaceOnUse" x1="56.37" y1="5.34" x2="71.78" y2="14.66">
   <stop offset="0.0017" stop-color="#b41904"/>
   <stop offset="1" stop-color="#dc3305"/>
  </linearGradient>
  <path style="fill:url(#gradient4)"
        d="M38 54L54 31V33L38 56V54z"
  />
  <linearGradient id="gradient5" gradientUnits="userSpaceOnUse" x1="-8.8" y1="-52.27" x2="38.29" y2="-61.51">
   <stop offset="1" stop-color="#010101"/>
   <stop offset="0" stop-color="#232323"/>
  </linearGradient>
  <path style="fill:url(#gradient5)"
        d="M38 52L53 30L17 17L2 36L38 52z"
  />
  <radialGradient id="gradient6" gradientUnits="userSpaceOnUse" cx="0" cy="0" r="64" gradientTransform="matrix(0.1249,0,0,0.121,9.25,34.75)">
   <stop offset="0" stop-color="#4d4d4d"/>
   <stop offset="1" stop-color="#7b7b7b"/>
  </radialGradient>
  <path style="fill:url(#gradient6)"
        d="M8 38L10 36L13 37.5L11 39.5L8 38z"
        transform="matrix(0.9986,-0.0523,0.0523,0.9986,-0.4707,-10.5288)"
  />
  <radialGradient id="gradient7" gradientUnits="userSpaceOnUse" cx="0" cy="0" r="64" gradientTransform="matrix(0.1249,0,0,0.121,9.25,34.75)">
   <stop offset="0" stop-color="#4d4d4d"/>
   <stop offset="1" stop-color="#7b7b7b"/>
  </radialGradient>
  <path style="fill:url(#gradient7)"
        d="M8 38L10 36L13 37.5L11 39.5L8 38z"
        transform="matrix(0.9986,-0.0523,0.0523,0.9986,3.6154,-8.9908)"
  />
  <radialGradient id="gradient8" gradientUnits="userSpaceOnUse" cx="0" cy="0" r="64" gradientTransform="matrix(0.1249,0,0,0.121,9.25,34.75)">
   <stop offset="0" stop-color="#4d4d4d"/>
   <stop offset="1" stop-color="#7b7b7b"/>
  </radialGradient>
  <path style="fill:url(#gradient8)"
        d="M8 38L10 36L13 37.5L11 39.5L8 38z"
        transform="matrix(0.9986,-0.0523,0.0523,0.9986,7.7147,-7.203)"
  />
  <radialGradient id="gradient9" gradientUnits="userSpaceOnUse" cx="0" cy="0" r="64" gradientTransform="matrix(0.1249,0,0,0.121,9.25,34.75)">
   <stop offset="0" stop-color="#4d4d4d"/>
   <stop offset="1" stop-color="#7b7b7b"/>
  </radialGradient>
  <path style="fill:url(#gradient9)"
        d="M8 38L10 36L13 37.5L11 39.5L8 38z"
        transform="matrix(0.9986,-0.0523,0.0523,0.9986,11.8139,-5.4153)"
  />
  <radialGradient id="gradient10" gradientUnits="userSpaceOnUse" cx="0" cy="0" r="64" gradientTransform="matrix(0.1249,0,0,0.121,9.25,34.75)">
   <stop offset="0" stop-color="#4d4d4d"/>
   <stop offset="1" stop-color="#7b7b7b"/>
  </radialGradient>
  <path style="fill:url(#gradient10)"
        d="M8 38L10 36L13 37.5L11 39.5L8 38z"
        transform="matrix(0.9986,-0.0523,0.0523,0.9986,16.038,-3.6341)"
  />
  <radialGradient id="gradient11" gradientUnits="userSpaceOnUse" cx="0" cy="0" r="64" gradientTransform="matrix(0.1249,0,0,0.121,9.25,34.75)">
   <stop offset="0" stop-color="#4d4d4d"/>
   <stop offset="1" stop-color="#7b7b7b"/>
  </radialGradient>
  <path style="fill:url(#gradient11)"
        d="M8 38L10 36L13 37.5L11 39.5L8 38z"
        transform="matrix(0.9986,-0.0523,0.0523,0.9986,20.1307,-1.9711)"
  />
  <radialGradient id="gradient12" gradientUnits="userSpaceOnUse" cx="0" cy="0" r="64" gradientTransform="matrix(0.1249,0,0,0.121,9.25,34.75)">
   <stop offset="0" stop-color="#4d4d4d"/>
   <stop offset="1" stop-color="#7b7b7b"/>
  </radialGradient>
  <path style="fill:url(#gradient12)"
        d="M8 38L10 36L13 37.5L11 39.5L8 38z"
        transform="matrix(0.9986,-0.0523,0.0523,0.9986,24.4797,-0.1965)"
  />
  <linearGradient id="gradient13" gradientUnits="userSpaceOnUse" x1="52.2" y1="-7.44" x2="73.1" y2="16.77">
   <stop offset="0" stop-color="#e23906"/>
   <stop offset="1" stop-color="#b12d04"/>
  </linearGradient>
  <path style="fill:url(#gradient13)"
        d="M8 38L10 36L13 37.5L11 39.5L8 38z"
        transform="matrix(0.9986,-0.0523,0.0523,0.9986,29.2031,1.5584)"
  />
  <linearGradient id="gradient14" gradientUnits="userSpaceOnUse" x1="52.2" y1="-7.44" x2="73.1" y2="16.77">
   <stop offset="0" stop-color="#e23906"/>
   <stop offset="1" stop-color="#b12d04"/>
  </linearGradient>
  <path style="fill:url(#gradient14)"
        d="M8 38L10 36L13 37.5L11 39.5L8 38z"
        transform="matrix(0.9986,-0.0523,0.0523,0.9986,-3.3094,-7.3758)"
  />
  <radialGradient id="gradient15" gradientUnits="userSpaceOnUse" cx="0" cy="0" r="64" gradientTransform="matrix(0.1249,0,0,0.121,9.25,34.75)">
   <stop offset="0" stop-color="#4d4d4d"/>
   <stop offset="1" stop-color="#7b7b7b"/>
  </radialGradient>
  <path style="fill:url(#gradient15)"
        d="M8 38L10 36L13 37.5L11 39.5L8 38z"
        transform="matrix(0.9986,-0.0523,0.0523,0.9986,0.7897,-5.5881)"
  />
  <radialGradient id="gradient16" gradientUnits="userSpaceOnUse" cx="0" cy="0" r="64" gradientTransform="matrix(0.1249,0,0,0.121,9.25,34.75)">
   <stop offset="0" stop-color="#4d4d4d"/>
   <stop offset="1" stop-color="#7b7b7b"/>
  </radialGradient>
  <path style="fill:url(#gradient16)"
        d="M8 38L10 36L13 37.5L11 39.5L8 38z"
        transform="matrix(0.9986,-0.0523,0.0523,0.9986,4.889,-3.8003)"
  />
  <radialGradient id="gradient17" gradientUnits="userSpaceOnUse" cx="0" cy="0" r="64" gradientTransform="matrix(0.1249,0,0,0.121,9.25,34.75)">
   <stop offset="0" stop-color="#4d4d4d"/>
   <stop offset="1" stop-color="#7b7b7b"/>
  </radialGradient>
  <path style="fill:url(#gradient17)"
        d="M8 38L10 36L13 37.5L11 39.5L8 38z"
        transform="matrix(0.9986,-0.0523,0.0523,0.9986,8.9883,-2.0126)"
  />
  <radialGradient id="gradient18" gradientUnits="userSpaceOnUse" cx="0" cy="0" r="64" gradientTransform="matrix(0.1249,0,0,0.121,9.25,34.75)">
   <stop offset="0" stop-color="#4d4d4d"/>
   <stop offset="1" stop-color="#7b7b7b"/>
  </radialGradient>
  <path style="fill:url(#gradient18)"
        d="M8 38L10 36L13 37.5L11 39.5L8 38z"
        transform="matrix(0.9986,-0.0523,0.0523,0.9986,13.2124,-0.2314)"
  />
  <radialGradient id="gradient19" gradientUnits="userSpaceOnUse" cx="0" cy="0" r="64" gradientTransform="matrix(0.1249,0,0,0.121,9.25,34.75)">
   <stop offset="0" stop-color="#4d4d4d"/>
   <stop offset="1" stop-color="#7b7b7b"/>
  </radialGradient>
  <path style="fill:url(#gradient19)"
        d="M8 38L10 36L13 37.5L11 39.5L8 38z"
        transform="matrix(0.9986,-0.0523,0.0523,0.9986,17.4299,1.4249)"
  />
  <linearGradient id="gradient20" gradientUnits="userSpaceOnUse" x1="52.2" y1="-7.44" x2="73.1" y2="16.77">
   <stop offset="0" stop-color="#e23906"/>
   <stop offset="1" stop-color="#b12d04"/>
  </linearGradient>
  <path style="fill:url(#gradient20)"
        d="M29 53L31 51L38 54.5L36 56.5L29 53z"
        transform="matrix(0.9986,-0.0523,0.0523,0.9986,0.0089,-10.9295)"
  />
  <linearGradient id="gradient21" gradientUnits="userSpaceOnUse" x1="52.2" y1="-7.44" x2="73.1" y2="16.77">
   <stop offset="0" stop-color="#e23906"/>
   <stop offset="1" stop-color="#b12d04"/>
  </linearGradient>
  <path style="fill:url(#gradient21)"
        d=""
        transform="matrix(0.9986,-0.0523,0.0523,0.9986,-0.3524,-10.6602)"
  />
  <radialGradient id="gradient22" gradientUnits="userSpaceOnUse" cx="0" cy="0" r="64" gradientTransform="matrix(0.1249,0,0,0.121,9.25,34.75)">
   <stop offset="0" stop-color="#4d4d4d"/>
   <stop offset="1" stop-color="#7b7b7b"/>
  </radialGradient>
  <path style="fill:url(#gradient22)"
        d="M9 48L11 46L24 53L22 55L9 48z"
        transform="matrix(0.9986,-0.0523,0.0523,0.9986,-0.4838,-10.7785)"
  />
  <path style="fill:#000000"
        d=""
        transform="matrix(0.9986,-0.0523,0.0523,0.9986,17.9628,-2.7336)"
  />
  <linearGradient id="gradient23" gradientUnits="userSpaceOnUse" x1="52.2" y1="-7.44" x2="73.1" y2="16.77">
   <stop offset="0" stop-color="#e23906"/>
   <stop offset="1" stop-color="#b12d04"/>
  </linearGradient>
  <path style="fill:url(#gradient23)"
        d="M8 38L10 36L13 37.5L11 39.5L8 38z"
        transform="matrix(0.9986,-0.0523,0.0523,0.9986,18.4473,6.5036)"
  />
  <linearGradient id="gradient24" gradientUnits="userSpaceOnUse" x1="52.2" y1="-7.44" x2="73.1" y2="16.77">
   <stop offset="0" stop-color="#e23906"/>
   <stop offset="1" stop-color="#b12d04"/>
  </linearGradient>
  <path style="fill:url(#gradient24)"
        d="M8 38L10 36L13 37.5L11 39.5L8 38z"
        transform="matrix(0.9986,-0.0523,0.0523,0.9986,-4.5526,-3.4963)"
  />
  <linearGradient id="gradient25" gradientUnits="userSpaceOnUse" x1="52.2" y1="-7.44" x2="73.1" y2="16.77">
   <stop offset="0" stop-color="#e23906"/>
   <stop offset="1" stop-color="#b12d04"/>
  </linearGradient>
  <path style="fill:url(#gradient25)"
        d="M8 38L10 36L13 37.5L11 39.5L8 38z"
        transform="matrix(0.9986,-0.0523,0.0523,0.9986,22.5466,8.2913)"
  />
  <linearGradient id="gradient26" gradientUnits="userSpaceOnUse" x1="14" y1="-64" x2="48" y2="-64">
   <stop offset="0" stop-color="#474747"/>
   <stop offset="0.9969" stop-color="#4b4b4b"/>
  </linearGradient>
  <path style="fill:url(#gradient26)"
        d="M44.97 35.03L48 32L29 24L24.73 23.99L17 21L15 23L44.97 35.03z"
        transform="matrix(1,0,0,1,-2,0)"
  />
  <path style="fill:#ffffff"
        d="M43 27L42 28H45L46 29L48 30L47 29H49"
  />
  <path style="fill:none; stroke:#ff0000; stroke-width:1"
        d="M48 31L43 29L45 27"
  />
 </g>
</svg>
