<?xml version="1.0" encoding="UTF-8" standalone="yes"?>
<svg version="1.1" width="64" height="64" color-interpolation="linearRGB"
     xmlns:svg="http://www.w3.org/2000/svg" xmlns="http://www.w3.org/2000/svg">
 <g>
  <path style="fill:#010101; fill-opacity:0.4274"
        d="M30 62H46L64 40L52 36L30 62z"
  />
  <path style="fill:none; stroke:#000000; stroke-width:4"
        d="M2 17V46L30 60L50 40V13L23 6L2 17z"
  />
  <linearGradient id="gradient0" gradientUnits="userSpaceOnUse" x1="62.32" y1="-22.67" x2="89" y2="15.12">
   <stop offset="0" stop-color="#fd437c"/>
   <stop offset="1" stop-color="#ff0606"/>
  </linearGradient>
  <path style="fill:url(#gradient0)"
        d="M2 17V46L30 60V26L2 17z"
  />
  <linearGradient id="gradient1" gradientUnits="userSpaceOnUse" x1="-12.07" y1="-18.78" x2="33.2" y2="-36.27">
   <stop offset="0" stop-color="#ff4106"/>
   <stop offset="1" stop-color="#ff0692"/>
  </linearGradient>
  <path style="fill:url(#gradient1)"
        d="M2 17L30 26L50 13L23 6L2 17z"
  />
  <linearGradient id="gradient2" gradientUnits="userSpaceOnUse" x1="59.27" y1="-39.09" x2="94.37" y2="-20.83">
   <stop offset="0" stop-color="#de1e46"/>
   <stop offset="1" stop-color="#740606"/>
  </linearGradient>
  <path style="fill:url(#gradient2)"
        d="M30 60L50 40V13L30 26V60z"
  />
  <path style="fill:#ffffff"
        d="M16 26C7.61 23.2 4 27 4 34C4 39 8.09 46.04 16 50C23.31 53.65 27.12 52.97 27.89 46.1L18 42C18 42 17 44 15 43C12.91 41.95 12 37 12 37C12 37 13.17 31.58 16 33C20 35 19 38 19 38L13 35L12 37C12 37 28 44.18 28 44C28 36 25 29 16 26z"
  />
  <path style="fill:#ffffff"
        d="M45 12L37 10C37 10 26 19 21 17C17.65 15.66 33 9 33 9L26 7C26 7 21 9 16 12C11 15 10.27 17.1 18 20C26 23 29.08 23.09 34 19C40 14 45 12 45 12z"
  />
  <path style="fill:#ffffff"
        d="M40 23C31.86 28.81 32 33 32 46C32 51 32 58 32 58L38 52V45L41 42V36L38 39C38 36 38.82 29.78 40 29C43 27 43 31 43 31C43 31 49 26.18 49 26C49 19 47 18 40 23z
           M43 47L49 41V30L43 35V47z"
  />
 </g>
</svg>
