<?xml version="1.0" encoding="UTF-8" standalone="yes"?>
<svg version="1.1" width="64" height="64" color-interpolation="linearRGB"
     xmlns:svg="http://www.w3.org/2000/svg" xmlns="http://www.w3.org/2000/svg">
 <g>
  <path style="fill:#000000; fill-opacity:0.4"
        d="M39 40L18 52C18 58 23 60 28 60C31 63 33 64 39 64C48.55 64 56 58.53 56 52C56 45.45 48.55 40 39 40z"
  />
  <path style="fill:none; stroke:#010101; stroke-width:4"
        d="M32 45V50C32 53 29 56 25 56C21 56 18 53 18 50V45
           M40 31V36C40 42 33.5 46 25 46C16.48 46 10 42 10 36V31"
  />
  <radialGradient id="gradient0" gradientUnits="userSpaceOnUse" cx="0" cy="0" r="64" gradientTransform="matrix(0.3125,0,0,0.1874,18,44)">
   <stop offset="0.3725" stop-color="#c5c9cc"/>
   <stop offset="0.5019" stop-color="#555659"/>
   <stop offset="0.6549" stop-color="#c5c9cc"/>
   <stop offset="0.7882" stop-color="#555659"/>
   <stop offset="0.9019" stop-color="#c5c9cc"/>
   <stop offset="1" stop-color="#555659"/>
  </radialGradient>
  <path style="fill:url(#gradient0)"
        d="M32 45V50C32 53 29 56 25 56C21 56 18 53 18 50V45"
  />
  <radialGradient id="gradient1" gradientUnits="userSpaceOnUse" cx="0" cy="0" r="64" gradientTransform="matrix(0.3125,0,0,0.1874,18,44)">
   <stop offset="0.3725" stop-color="#eff3f7"/>
   <stop offset="0.5019" stop-color="#aaadb2"/>
   <stop offset="0.6549" stop-color="#eff3f7"/>
   <stop offset="0.7882" stop-color="#aaadb2"/>
   <stop offset="0.9019" stop-color="#eff3f7"/>
   <stop offset="1" stop-color="#aaadb2"/>
  </radialGradient>
  <path style="fill:url(#gradient1)"
        d="M25 56C21 56 18 53 18 50V45C18 45 19 52 25 56z"
  />
  <path style="fill:#807a6d"
        d="M33 45L29.97 46.94C29 48 27 48 25 48C23 48 21 48 20 47L17 45"
  />
  <linearGradient id="gradient2" gradientUnits="userSpaceOnUse" x1="-20" y1="12" x2="40" y2="12">
   <stop offset="0.4901" stop-color="#ffffff"/>
   <stop offset="0.749" stop-color="#f2eeda"/>
   <stop offset="1" stop-color="#d9cdb9"/>
  </linearGradient>
  <path style="fill:url(#gradient2)"
        d="M40 31V36C40 42 33.5 46 25 46C16.48 46 10 42 10 36V31"
  />
  <path style="fill:none; stroke:#010101; stroke-width:4"
        d="M10 31C10 25.15 16.76 20 25 20C33.21 20 40 25.15 40 31C40 37.13 33.21 42 25 42C16.76 42 10 37.13 10 31z"
  />
  <radialGradient id="gradient3" gradientUnits="userSpaceOnUse" cx="0" cy="0" r="64" gradientTransform="matrix(0.4531,0,0,0.2343,11,27)">
   <stop offset="0.4666" stop-color="#ffffff"/>
   <stop offset="1" stop-color="#f2eeda"/>
  </radialGradient>
  <path style="fill:url(#gradient3)"
        d="M10 31C10 25.15 16.76 20 25 20C31.29 20 36.74 23.01 38.95 27.06L29 23L31 32L38.98 34.98C36.8 39.1 31.32 42 25 42C16.76 42 10 37.13 10 31z"
  />
  <linearGradient id="gradient4" gradientUnits="userSpaceOnUse" x1="18" y1="16" x2="32" y2="16">
   <stop offset="0.3882" stop-color="#fcfbf7"/>
   <stop offset="0.7176" stop-color="#b2aca4"/>
  </linearGradient>
  <path style="fill:url(#gradient4)"
        d="M31 32L39 35C39 35 40 33.55 40 31C40 28.43 39 27 39 27L29 23L31 32z"
  />
  <path style="fill:none; stroke:#807a6d; stroke-width:4"
        d="M17 28C17 25.04 20.72 23 25 23C29.25 23 33 25.04 33 28C33 31.02 29.25 34 25 34C20.72 34 17 31.02 17 28z"
        transform="matrix(1,0,0,0.8,0,4.1995)"
  />
  <linearGradient id="gradient5" gradientUnits="userSpaceOnUse" x1="18" y1="16" x2="32" y2="16">
   <stop offset="0.3882" stop-color="#fcfbf7"/>
   <stop offset="0.7176" stop-color="#b2aca4"/>
  </linearGradient>
  <path style="fill:url(#gradient5)"
        d="M17 28C17 25.04 20.72 23 25 23C29.25 23 33 25.04 33 28C33 31.02 29.25 34 25 34C20.72 34 17 31.02 17 28z"
  />
  <path style="fill:none; stroke:#010101; stroke-width:6; stroke-linecap:round; stroke-linejoin:round"
        d="M21 28V6C21 1 25 3 25 8V31"
        transform="matrix(1,0,0,0.896,4,-0.5405)"
  />
  <radialGradient id="gradient6" gradientUnits="userSpaceOnUse" cx="0" cy="0" r="64" gradientTransform="matrix(0.0625,0,0,0.4687,22,18)">
   <stop offset="0" stop-color="#c0dbff"/>
   <stop offset="0.4941" stop-color="#ffffff"/>
   <stop offset="1" stop-color="#d5e7ff"/>
  </radialGradient>
  <path style="fill:none; stroke:url(#gradient6); stroke-width:2; stroke-linecap:round; stroke-linejoin:round"
        d="M21 28V6C21 1 25 3 25 8V31"
        transform="matrix(1,0,0,0.9628,4,-0.8121)"
  />
  <path style="fill:none; stroke:#010101; stroke-width:6; stroke-linecap:round; stroke-linejoin:round"
        d="M21 28V6C21 1 25 3 25 8V31"
        transform="matrix(1,0,0,0.9331,0,0.2716)"
  />
  <radialGradient id="gradient7" gradientUnits="userSpaceOnUse" cx="0" cy="0" r="64" gradientTransform="matrix(0.0625,0,0,0.4687,22,18)">
   <stop offset="0" stop-color="#c0dbff"/>
   <stop offset="0.4941" stop-color="#ffffff"/>
   <stop offset="1" stop-color="#d5e7ff"/>
  </radialGradient>
  <path style="fill:none; stroke:url(#gradient7); stroke-width:2; stroke-linecap:round; stroke-linejoin:round"
        d="M21 28V6C21 1 25 3 25 8V31"
  />
 </g>
</svg>
