<?xml version="1.0" encoding="UTF-8" standalone="yes"?>
<svg version="1.1" width="64" height="64" color-interpolation="linearRGB"
     xmlns:svg="http://www.w3.org/2000/svg" xmlns="http://www.w3.org/2000/svg">
 <g>
  <path style="fill:#010101; fill-opacity:0.5529"
        d="M26 4C13.84 4 4 13.84 4 26C4 38.15 13.84 48 26 48C38.15 48 48 38.15 48 26C48 13.84 38.15 4 26 4z"
        transform="matrix(1.0909,0,0,0.4615,9.6363,32.1538)"
  />
  <path style="fill:none; stroke:#010101; stroke-width:4"
        d="M26 4C13.84 4 4 13.84 4 26C4 38.15 13.84 48 26 48C38.15 48 48 38.15 48 26C48 13.84 38.15 4 26 4z"
        transform="matrix(1,0,0,1,2,2)"
  />
  <radialGradient id="gradient0" gradientUnits="userSpaceOnUse" cx="0" cy="0" r="64" gradientTransform="matrix(0.5625,0,0,0.5625,16,16)">
   <stop offset="0" stop-color="#c7ffec"/>
   <stop offset="0.4412" stop-color="#2bbcfb"/>
   <stop offset="0.5951" stop-color="#18b4fd"/>
   <stop offset="0.7489" stop-color="#09aefe"/>
   <stop offset="0.9757" stop-color="#1ab7f2"/>
   <stop offset="0.8582" stop-color="#00aaff"/>
  </radialGradient>
  <path style="fill:url(#gradient0)"
        d="M26 4C13.84 4 4 13.84 4 26C4 38.15 13.84 48 26 48C38.15 48 48 38.15 48 26C48 13.84 38.15 4 26 4z"
        transform="matrix(1,0,0,1,2,2)"
  />
 </g>
</svg>
