<?xml version="1.0" encoding="UTF-8" standalone="yes"?>
<svg version="1.1" width="64" height="64" color-interpolation="linearRGB"
     xmlns:svg="http://www.w3.org/2000/svg" xmlns="http://www.w3.org/2000/svg">
 <g>
  <path style="fill:none; stroke:#000000; stroke-width:4"
        d="M16.3 28.01C13.97 28.12 11.8 28.87 9.95 30.05C9.95 30.05 9.9 31.29 10.44 32.13L11.53 33.84C10.13 34.9 9.06 36.34 8.48 38.04L6.56 37.54C5.6 37.29 4.43 37.69 4.43 37.69C4.15 38.72 4.02 39.83 4.02 40.95C4.02 42.15 4.17 43.29 4.46 44.38C4.46 44.38 5.62 44.79 6.6 44.52L8.52 43.99C9.11 45.63 10.18 47.08 11.55 48.11L10.47 49.79C9.94 50.63 9.98 51.88 9.98 51.88C11.82 53.06 13.98 53.79 16.31 53.9C16.31 53.9 17.04 52.95 17.09 51.95L17.18 49.93C19 49.9 20.68 49.31 22.09 48.36L23.34 49.91C23.97 50.68 25.15 51.04 25.15 51.04C26.88 49.63 28.25 47.79 29.09 45.65C29.09 45.65 28.4 44.68 27.47 44.31L25.59 43.56C25.84 42.75 25.97 41.86 25.97 40.97C25.97 40.09 25.86 39.26 25.63 38.45L27.49 37.76C28.43 37.4 29.13 36.37 29.13 36.37C28.33 34.22 26.95 32.34 25.2 30.92C25.2 30.92 24.04 31.28 23.4 32.05L22.15 33.62C20.75 32.63 19.04 32.04 17.18 32L17.09 29.97C17.06 28.97 16.31 28.01 16.31 28.01H16.3z
           M20 41C20 42.65 18.65 44 17 44C15.35 44 14 42.65 14 41C14 39.34 15.34 38 17 38C18.65 38 20 39.34 20 41z"
  />
  <linearGradient id="gradient0" gradientUnits="userSpaceOnUse" x1="21.96" y1="-0.01" x2="57.17" y2="22.58">
   <stop offset="0" stop-color="#fdfdfd"/>
   <stop offset="1" stop-color="#8d8d8d"/>
  </linearGradient>
  <path style="fill:url(#gradient0)"
        d="M16.3 28.01C13.97 28.12 11.8 28.87 9.95 30.05C9.95 30.05 9.9 31.29 10.44 32.13L11.53 33.84C10.13 34.9 9.06 36.34 8.48 38.04L6.56 37.54C5.6 37.29 4.43 37.69 4.43 37.69C4.15 38.72 4.02 39.83 4.02 40.95C4.02 42.15 4.17 43.29 4.46 44.38C4.46 44.38 5.62 44.79 6.6 44.52L8.52 43.99C9.11 45.63 10.18 47.08 11.55 48.11L10.47 49.79C9.94 50.63 9.98 51.88 9.98 51.88C11.82 53.06 13.98 53.79 16.31 53.9C16.31 53.9 17.04 52.95 17.09 51.95L17.18 49.93C19 49.9 20.68 49.31 22.09 48.36L23.34 49.91C23.97 50.68 25.15 51.04 25.15 51.04C26.88 49.63 28.25 47.79 29.09 45.65C29.09 45.65 28.4 44.68 27.47 44.31L25.59 43.56C25.84 42.75 25.97 41.86 25.97 40.97C25.97 40.09 25.86 39.26 25.63 38.45L27.49 37.76C28.43 37.4 29.13 36.37 29.13 36.37C28.33 34.22 26.95 32.34 25.2 30.92C25.2 30.92 24.04 31.28 23.4 32.05L22.15 33.62C20.75 32.63 19.04 32.04 17.18 32L17.09 29.97C17.06 28.97 16.31 28.01 16.31 28.01H16.3z
           M20 41C20 42.65 18.65 44 17 44C15.35 44 14 42.65 14 41C14 39.34 15.34 38 17 38C18.65 38 20 39.34 20 41z"
  />
 </g>
</svg>
