<?xml version="1.0" encoding="UTF-8" standalone="no"?>
<svg
   xmlns:dc="http://purl.org/dc/elements/1.1/"
   xmlns:cc="http://creativecommons.org/ns#"
   xmlns:rdf="http://www.w3.org/1999/02/22-rdf-syntax-ns#"
   xmlns:svg="http://www.w3.org/2000/svg"
   xmlns="http://www.w3.org/2000/svg"
   xmlns:xlink="http://www.w3.org/1999/xlink"
   xmlns:sodipodi="http://sodipodi.sourceforge.net/DTD/sodipodi-0.dtd"
   xmlns:inkscape="http://www.inkscape.org/namespaces/inkscape"
   version="1.1"
   width="64"
   height="64"
   color-interpolation="linearRGB"
   id="svg2"
   inkscape:version="0.91 r13725"
   sodipodi:docname="000-prefs_fonts-otf.svg">
  <metadata
     id="metadata63">
    <rdf:RDF>
      <cc:Work
         rdf:about="">
        <dc:format>image/svg+xml</dc:format>
        <dc:type
           rdf:resource="http://purl.org/dc/dcmitype/StillImage" />
        <dc:title />
      </cc:Work>
    </rdf:RDF>
  </metadata>
  <defs
     id="defs61">
    <linearGradient
       y2="-61.87"
       x2="77.72"
       y1="-66.99"
       x1="23.77"
       gradientUnits="userSpaceOnUse"
       id="gradient0">
      <stop
         id="stop11"
         stop-color="#032288"
         offset="0" />
      <stop
         id="stop13"
         stop-color="#1944e7"
         offset="1" />
    </linearGradient>
    <linearGradient
       y2="1.56"
       x2="116.16"
       y1="-30.26"
       x1="94.67"
       gradientUnits="userSpaceOnUse"
       id="gradient1">
      <stop
         id="stop18"
         stop-color="#020258"
         offset="0" />
      <stop
         id="stop20"
         stop-color="#1919e7"
         offset="1" />
    </linearGradient>
    <linearGradient
       y2="1.56"
       x2="116.16"
       y1="-30.26"
       x1="94.67"
       gradientUnits="userSpaceOnUse"
       id="gradient2">
      <stop
         id="stop25"
         stop-color="#020258"
         offset="0" />
      <stop
         id="stop27"
         stop-color="#1919e7"
         offset="1" />
    </linearGradient>
    <linearGradient
       y2="-12.38"
       x2="-60.87"
       y1="1.77"
       x1="-67.12"
       gradientUnits="userSpaceOnUse"
       id="gradient3">
      <stop
         id="stop32"
         stop-color="#cedeff"
         offset="0" />
      <stop
         id="stop34"
         stop-color="#3778ff"
         offset="1" />
    </linearGradient>
    <linearGradient
       y2="29.87"
       x2="-73.42"
       y1="45.34"
       x1="-72.8"
       gradientUnits="userSpaceOnUse"
       id="gradient4">
      <stop
         id="stop39"
         stop-color="#badaff"
         offset="0" />
      <stop
         id="stop41"
         stop-color="#032e85"
         offset="1" />
    </linearGradient>
    <linearGradient
       y2="2.28"
       x2="117.3"
       y1="-43.14"
       x1="88.05"
       gradientUnits="userSpaceOnUse"
       id="gradient5">
      <stop
         id="stop46"
         stop-color="#97c3ff"
         offset="0" />
      <stop
         id="stop48"
         stop-color="#376aff"
         offset="1" />
    </linearGradient>
    <linearGradient
       y2="-50.24"
       x2="102.04"
       y1="-59.29"
       x1="93.83"
       gradientUnits="userSpaceOnUse"
       id="gradient6">
      <stop
         id="stop53"
         stop-color="#e3ecff"
         offset="0" />
      <stop
         id="stop55"
         stop-color="#acc7ff"
         offset="1" />
    </linearGradient>
    <linearGradient
       inkscape:collect="always"
       xlink:href="#gradient5"
       id="linearGradient7531"
       x1="82.394485"
       y1="33.588272"
       x2="122.79165"
       y2="33.588272"
       gradientUnits="userSpaceOnUse" />
    <linearGradient
       inkscape:collect="always"
       xlink:href="#gradient0"
       id="linearGradient7539"
       x1="90.638138"
       y1="30.26779"
       x2="133.35883"
       y2="30.26779"
       gradientUnits="userSpaceOnUse" />
    <linearGradient
       inkscape:collect="always"
       xlink:href="#gradient0"
       id="linearGradient7547"
       x1="85.959175"
       y1="34.583858"
       x2="113.4982"
       y2="34.583858"
       gradientUnits="userSpaceOnUse" />
  </defs>
  <sodipodi:namedview
     pagecolor="#ffffff"
     bordercolor="#666666"
     borderopacity="1"
     objecttolerance="10"
     gridtolerance="10"
     guidetolerance="10"
     inkscape:pageopacity="0"
     inkscape:pageshadow="2"
     inkscape:window-width="1920"
     inkscape:window-height="1016"
     id="namedview59"
     showgrid="false"
     inkscape:zoom="5.2893674"
     inkscape:cx="29.843834"
     inkscape:cy="15.856601"
     inkscape:window-x="0"
     inkscape:window-y="30"
     inkscape:window-maximized="1"
     inkscape:current-layer="svg2" />
  <path
     sodipodi:nodetypes="cccsccccc"
     inkscape:connector-curvature="0"
     id="path7549"
     d="m 80.414641,29.731845 c 0.341632,10.518125 6.853886,31.635374 22.151439,32.220649 13.33412,0.0093 9.77835,1.516728 27.57375,-10.339804 C 148.40048,21.225375 117.37462,-9.5930817 98.672674,1.1744131 88.060923,7.2840439 80.940626,5.4368119 80.414641,29.731845 Z M 106.91437,13.173512 c 6.59097,1.183033 5.77177,8.638016 5.7068,22.951517 -0.0652,4.491964 12.19458,6.584705 1.62201,6.765857 -11.01489,-1.427822 -9.98055,-19.008516 -7.32881,-29.717374 z"
     style="fill:#000000;fill-opacity:1;fill-rule:evenodd;stroke:none;stroke-width:1px;stroke-linecap:butt;stroke-linejoin:miter;stroke-opacity:1" />
  <path
     style="fill:url(#linearGradient7547);fill-opacity:1.0;fill-rule:evenodd;stroke:none;stroke-width:1px;stroke-linecap:butt;stroke-linejoin:miter;stroke-opacity:1"
     d="m 103.87291,15.873556 c -1.46894,14.013405 -1.59651,25.18262 9.62529,29.677974 -5.48615,4.110239 -2.01934,23.044236 -27.539024,-6.015806 2.085866,-20.191087 7.286643,-30.5182918 17.913734,-23.662168 z"
     id="path7493"
     inkscape:connector-curvature="0"
     sodipodi:nodetypes="cccc" />
  <path
     inkscape:connector-curvature="0"
     id="path6"
     d="m 18,40 -6,8 18,4 -2,-9 -10,-3 z M 48,40 52,50 40,62 54,58 64,48 48,40 Z"
     style="fill:#000000;fill-opacity:0.37250001" />
  <path
     inkscape:connector-curvature="0"
     id="path8"
     d="M 39,7 29,4 18,9 4,42 l 8,4 8,-6.63 8.5,3.38 3.49,13.24 L 40,60 50,50 39,7 Z"
     style="fill:none;stroke:#000000;stroke-width:4" />
  <path
     inkscape:connector-curvature="0"
     id="path15"
     d="M 39,7 28,13 40,60 50,50 39,7 Z"
     style="fill:url(#gradient0)" />
  <path
     inkscape:connector-curvature="0"
     id="path22"
     d="M 12,46 20,39.37 15.62,37.75 12,46 Z"
     style="fill:url(#gradient1)" />
  <path
     inkscape:connector-curvature="0"
     id="path29"
     d="m 22.76,21.38 1.73,6.48 -7.13,5.86 5.4,-12.34 z"
     style="fill:url(#gradient2)" />
  <path
     inkscape:connector-curvature="0"
     id="path36"
     d="m 26.24,34.36 0.76,2.85 -9.64,-3.49 8.88,0.64 z"
     style="fill:url(#gradient3)" />
  <path
     inkscape:connector-curvature="0"
     id="path43"
     d="m 24.49,27.86 1.75,6.5 -8.88,-0.64 7.13,-5.86 z"
     style="fill:url(#gradient4)" />
  <path
     inkscape:connector-curvature="0"
     id="path50"
     d="M 28.49,42.81 32,56 40,60 28.21,13 18,9 4,42 l 8,4 3.58,-8.2 12.91,5.01 z M 22.76,21.38 27,37.21 17.36,33.72 22.76,21.38 Z"
     style="fill:url(#gradient5)" />
  <path
     inkscape:connector-curvature="0"
     id="path57"
     d="M 29,4 18,9 28,13 39,7 29,4 Z"
     style="fill:url(#gradient6)" />
  <path
     style="fill:url(#linearGradient7531);fill-opacity:1;fill-rule:evenodd;stroke:none;stroke-width:1px;stroke-linecap:butt;stroke-linejoin:miter;stroke-opacity:1"
     d="m 82.417969,30.087891 c 0.31556,9.71543 6.330829,29.221109 20.460941,29.761718 20.49034,3.322937 19.30857,-13.236567 19.91274,-18.811896 -0.2592,-10.62654 -2.3613,-27.85212 -21.41139,-32.8430324 C 83.625099,1.4603826 82.167604,22.627699 82.417969,30.087891 Z M 100.84473,16.645448 c 6.0222,1.410899 11.38193,6.126568 11.32192,19.347729 -0.0602,4.149158 1.26187,15.343369 -8.50385,15.510696 C 94.855839,51.000623 92.468257,38.857784 92.376572,31.693143 92.280633,24.196102 92.00301,14.573985 100.84473,16.645448 Z"
     id="path7534"
     inkscape:connector-curvature="0"
     sodipodi:nodetypes="cccccsccss" />
  <path
     style="fill:url(#linearGradient7539);fill-opacity:1;fill-rule:evenodd;stroke:none;stroke-width:1px;stroke-linecap:butt;stroke-linejoin:miter;stroke-opacity:1"
     d="m 90.638135,7.7187979 c 2.501897,-1.1396884 3.332437,-1.7617469 7.505691,-3.9809334 5.381864,-2.86188115 5.512724,-2.5220953 8.269084,-2.4025046 20.02102,3.5363246 25.68706,17.0162991 26.72908,29.2686631 0.92805,10.912341 -1.1318,15.947812 -6.0064,21.080575 -3.25756,2.553908 -7.99702,5.09579 -12.83966,7.524513 9.55423,-4.187669 9.57326,-20.384383 7.05378,-30.205831 C 119.14597,20.41265 114.87946,14.823782 108.78436,11.284101 102.53127,7.6526686 94.817388,6.1512491 90.638135,7.7187979 Z"
     id="path7491"
     inkscape:connector-curvature="0"
     sodipodi:nodetypes="cscsccssc" />
</svg>
