<?xml version="1.0" encoding="UTF-8" standalone="no"?>
<!DOCTYPE svg PUBLIC "-//W3C//DTD SVG 20010904//EN"
"http://www.w3.org/TR/2001/REC-SVG-20010904/DTD/svg10.dtd">
<!-- Created with Sodipodi ("http://www.sodipodi.com/") -->
<svg
   xlink:href="A453C314.png"
   i:viewOrigin="244.5059 462.248"
   i:rulerOrigin="-242 -332"
   i:pageBounds="242 460 370 332"
   width="48pt"
   height="48pt"
   viewBox="0 0 140.166 143.432"
   overflow="visible"
   enable-background="new 0 0 140.166 143.432"
   xml:space="preserve"
   xmlns="http://www.w3.org/2000/svg"
   xmlns:ns="http://ns.adobe.com/Variables/1.0/"
   xmlns:i="http://ns.adobe.com/AdobeIllustrator/10.0/"
   xmlns:xml="http://www.w3.org/XML/1998/namespace"
   xmlns:a="http://ns.adobe.com/AdobeSVGViewerExtensions/3.0/"
   xmlns:xlink="http://www.w3.org/1999/xlink"
   xmlns:sodipodi="http://sodipodi.sourceforge.net/DTD/sodipodi-0.dtd"
   id="svg153"
   sodipodi:version="0.32pre"
   sodipodi:docname="/home/cschalle/gnome-themes-extras/Amaranth/icons/scalable/apps/apacheconf.svg"
   sodipodi:docbase="/home/cschalle/gnome-themes-extras/Amaranth/icons/scalable/apps">
  <defs
     id="defs498">
    <linearGradient
       id="XMLID_32_"
       gradientUnits="userSpaceOnUse"
       x1="-164.8579"
       y1="426.2344"
       x2="-109.3032"
       y2="370.6797"
       gradientTransform="matrix(1 0 0 -1 237 454.4961)">
      <stop
         offset="0"
         style="stop-color:#E8E8E8"
         id="stop438" />
      <stop
         offset="1"
         style="stop-color:#BDBDBD"
         id="stop439" />
      
      
      
    </linearGradient>
  </defs>
  <sodipodi:namedview
     id="base" />
  <metadata
     id="metadata154">
    <sfw>
      <slices />
      <sliceSourceBounds
         y="318.816"
         x="244.506"
         width="140.166"
         height="143.432"
         bottomLeftOrigin="true" />
    </sfw>
    <ns:variableSets>
      <ns:variableSet
         varSetName="binding1"
         locked="none">
        <ns:variables />
        <ns:sampleDataSets />
      </ns:variableSet>
    </ns:variableSets>
  </metadata>
  <g
     id="g156"
     style="font-size:12;stroke:#000000;">
    <g
       id="g157">
      <linearGradient
         id="XMLID_1_"
         gradientUnits="userSpaceOnUse"
         x1="-230.6304"
         y1="442.0137"
         x2="-159.009"
         y2="370.3923"
         gradientTransform="matrix(1 0 0 -1 237 454.4961)">
        <stop
           offset="0"
           style="stop-color:#C4C4C4"
           id="stop159" />
        <stop
           offset="1"
           style="stop-color:#050505"
           id="stop160" />
        
        
        
      </linearGradient>
      <path
         fill="url(#XMLID_1_)"
         stroke="none"
         d="M63.081,94.3c0,2.75-1.654,6.525-3.676,8.39l-12.649,11.659      c-2.022,1.863-4.591,1.333-5.709-1.18L1.814,25.027C0.696,22.515,1.3,18.8,3.158,16.772L14.917,3.935      c1.858-2.028,5.628-3.687,8.378-3.687h34.786c2.75,0,5,2.25,5,5V94.3z"
         id="path164" />
      <path
         fill="none"
         stroke-width="0.5"
         d="M63.081,94.3c0,2.75-1.654,6.525-3.676,8.39l-12.649,11.659      c-2.022,1.863-4.591,1.333-5.709-1.18L1.814,25.027C0.696,22.515,1.3,18.8,3.158,16.772L14.917,3.935      c1.858-2.028,5.628-3.687,8.378-3.687h34.786c2.75,0,5,2.25,5,5V94.3z"
         id="path165" />
    </g>
  </g>
  <g
     id="g166"
     style="font-size:12;stroke:#000000;">
    <g
       id="g167">
      <linearGradient
         id="XMLID_2_"
         gradientUnits="userSpaceOnUse"
         x1="-185.272"
         y1="443.9805"
         x2="-184.596"
         y2="443.3045"
         gradientTransform="matrix(1 0 0 -1 237 454.4961)">
        <stop
           offset="0"
           style="stop-color:#C4C4C4"
           id="stop169" />
        <stop
           offset="1"
           style="stop-color:#050505"
           id="stop170" />
        
        
        
      </linearGradient>
      <path
         fill="url(#XMLID_2_)"
         stroke="none"
         d="M43.135,20.459L60.994,1.248"
         id="path174" />
      <path
         fill="none"
         stroke-width="0.5"
         d="M43.135,20.459L60.994,1.248"
         id="path175" />
    </g>
  </g>
  <g
     id="g176"
     style="font-size:12;stroke:#000000;">
    <g
       id="g177">
      <g
         id="g178">
        <linearGradient
           id="XMLID_3_"
           gradientUnits="userSpaceOnUse"
           x1="-249.1616"
           y1="422.2783"
           x2="-178.5171"
           y2="351.6338"
           gradientTransform="matrix(1 0 0 -1 237 454.4961)">
          <stop
             offset="0"
             style="stop-color:#C4C4C4"
             id="stop180" />
          <stop
             offset="1"
             style="stop-color:#050505"
             id="stop181" />
          
          
          
        </linearGradient>
        <path
           fill="url(#XMLID_3_)"
           stroke="none"
           d="M46.071,113.211c0,2.75-2.25,5-5,5H5.25c-2.75,0-5-2.25-5-5V21.868       c0-2.75,2.25-5,5-5h35.821c2.75,0,5,2.25,5,5V113.211z"
           id="path185" />
        <path
           fill="none"
           stroke-width="0.5"
           d="M46.071,113.211c0,2.75-2.25,5-5,5H5.25c-2.75,0-5-2.25-5-5V21.868c0-2.75,2.25-5,5-5       h35.821c2.75,0,5,2.25,5,5V113.211z"
           id="path186" />
      </g>
    </g>
    <g
       id="g187">
      <g
         id="g188">
        <linearGradient
           id="XMLID_4_"
           gradientUnits="userSpaceOnUse"
           x1="-224.542"
           y1="438.8594"
           x2="-202.8224"
           y2="417.1398"
           gradientTransform="matrix(1 0 0 -1 237 454.4961)">
          <stop
             offset="0"
             style="stop-color:#C4C4C4"
             id="stop190" />
          <stop
             offset="1"
             style="stop-color:#050505"
             id="stop191" />
          
          
          
        </linearGradient>
        <path
           fill="url(#XMLID_4_)"
           stroke="none"
           d="M43.05,26.497c0-2.691-2.25-4.894-5-4.894H8.586c-2.75,0-5,2.202-5,4.894       s2.25,4.894,5,4.894H38.05C40.8,31.39,43.05,29.188,43.05,26.497z"
           id="path195" />
        <path
           fill="none"
           stroke-width="0.5"
           d="M43.05,26.497c0-2.691-2.25-4.894-5-4.894H8.586c-2.75,0-5,2.202-5,4.894       s2.25,4.894,5,4.894H38.05C40.8,31.39,43.05,29.188,43.05,26.497z"
           id="path196" />
      </g>
    </g>
    <linearGradient
       id="XMLID_5_"
       gradientUnits="userSpaceOnUse"
       x1="-222.6782"
       y1="438.2607"
       x2="-204.6828"
       y2="420.2654"
       gradientTransform="matrix(1 0 0 -1 237 454.4961)">
      <stop
         offset="0"
         style="stop-color:#EBEBEB"
         id="stop198" />
      <stop
         offset="1"
         style="stop-color:#545454"
         id="stop199" />
      
      
      
    </linearGradient>
    <path
       fill="url(#XMLID_5_)"
       stroke-width="0.5"
       d="M40.209,26.339H6.428v-2.21h33.781V26.339z"
       id="path203" />
    <linearGradient
       id="XMLID_6_"
       gradientUnits="userSpaceOnUse"
       x1="-210.9097"
       y1="426.9531"
       x2="-207.6749"
       y2="423.7183"
       gradientTransform="matrix(1 0 0 -1 237 454.4961)">
      <stop
         offset="0"
         style="stop-color:#EBEBEB"
         id="stop205" />
      <stop
         offset="1"
         style="stop-color:#545454"
         id="stop206" />
      
      
      
    </linearGradient>
    <path
       fill="url(#XMLID_6_)"
       stroke-width="0.5"
       d="M30.942,29.161c0-0.51-0.414-0.925-0.925-0.925h-4.619     c-0.51,0-0.925,0.415-0.925,0.925c0,0.51,0.415,0.924,0.925,0.924h4.619C30.528,30.085,30.942,29.671,30.942,29.161z"
       id="path210" />
    <linearGradient
       id="XMLID_7_"
       gradientUnits="userSpaceOnUse"
       x1="-201.4375"
       y1="426.9541"
       x2="-198.203"
       y2="423.7195"
       gradientTransform="matrix(1 0 0 -1 237 454.4961)">
      <stop
         offset="0"
         style="stop-color:#EBEBEB"
         id="stop212" />
      <stop
         offset="1"
         style="stop-color:#545454"
         id="stop213" />
      
      
      
    </linearGradient>
    <path
       xlink:href="E1D8C017.png"
       fill="url(#XMLID_7_)"
       stroke-width="0.5"
       d="M40.413,29.161c0-0.51-0.414-0.925-0.924-0.925     h-4.62c-0.51,0-0.923,0.415-0.923,0.925c0,0.51,0.413,0.924,0.923,0.924h4.62C39.999,30.085,40.413,29.671,40.413,29.161z"
       id="path217" />
    <g
       id="g218">
      <g
         id="g219">
        <linearGradient
           id="XMLID_8_"
           gradientUnits="userSpaceOnUse"
           x1="-224.541"
           y1="425.5996"
           x2="-202.8219"
           y2="403.8805"
           gradientTransform="matrix(1 0 0 -1 237 454.4961)">
          <stop
             offset="0"
             style="stop-color:#C4C4C4"
             id="stop221" />
          <stop
             offset="1"
             style="stop-color:#050505"
             id="stop222" />
          
          
          
        </linearGradient>
        <path
           fill="url(#XMLID_8_)"
           stroke="none"
           d="M43.05,39.756c0-2.691-2.25-4.893-5-4.893H8.586c-2.75,0-5,2.202-5,4.893       c0,2.691,2.25,4.894,5,4.894H38.05C40.8,44.649,43.05,42.447,43.05,39.756z"
           id="path226" />
        <path
           fill="none"
           stroke-width="0.5"
           d="M43.05,39.756c0-2.691-2.25-4.893-5-4.893H8.586c-2.75,0-5,2.202-5,4.893       c0,2.691,2.25,4.894,5,4.894H38.05C40.8,44.649,43.05,42.447,43.05,39.756z"
           id="path227" />
      </g>
    </g>
    <linearGradient
       id="XMLID_9_"
       gradientUnits="userSpaceOnUse"
       x1="-222.6787"
       y1="425"
       x2="-204.6834"
       y2="407.0046"
       gradientTransform="matrix(1 0 0 -1 237 454.4961)">
      <stop
         offset="0"
         style="stop-color:#EBEBEB"
         id="stop229" />
      <stop
         offset="1"
         style="stop-color:#545454"
         id="stop230" />
      
      
      
    </linearGradient>
    <path
       fill="url(#XMLID_9_)"
       stroke-width="0.5"
       d="M40.209,39.599H6.428v-2.21h33.781V39.599z"
       id="path234" />
    <linearGradient
       id="XMLID_10_"
       gradientUnits="userSpaceOnUse"
       x1="-210.9092"
       y1="413.6924"
       x2="-207.6746"
       y2="410.4578"
       gradientTransform="matrix(1 0 0 -1 237 454.4961)">
      <stop
         offset="0"
         style="stop-color:#EBEBEB"
         id="stop236" />
      <stop
         offset="1"
         style="stop-color:#545454"
         id="stop237" />
      
      
      
    </linearGradient>
    <path
       fill="url(#XMLID_10_)"
       stroke-width="0.5"
       d="M30.942,42.421c0-0.511-0.414-0.924-0.925-0.924h-4.619     c-0.51,0-0.925,0.414-0.925,0.924c0,0.51,0.415,0.924,0.925,0.924h4.619C30.528,43.345,30.942,42.931,30.942,42.421z"
       id="path241" />
    <linearGradient
       id="XMLID_11_"
       gradientUnits="userSpaceOnUse"
       x1="-201.4375"
       y1="413.6924"
       x2="-198.2034"
       y2="410.4583"
       gradientTransform="matrix(1 0 0 -1 237 454.4961)">
      <stop
         offset="0"
         style="stop-color:#EBEBEB"
         id="stop243" />
      <stop
         offset="1"
         style="stop-color:#545454"
         id="stop244" />
      
      
      
    </linearGradient>
    <path
       fill="url(#XMLID_11_)"
       stroke-width="0.5"
       d="M40.413,42.421c0-0.511-0.414-0.924-0.924-0.924h-4.62     c-0.51,0-0.923,0.414-0.923,0.924c0,0.51,0.413,0.924,0.923,0.924h4.62C39.999,43.345,40.413,42.931,40.413,42.421z"
       id="path248" />
    <g
       id="g249">
      <linearGradient
         id="XMLID_12_"
         gradientUnits="userSpaceOnUse"
         x1="-221.4106"
         y1="393.582"
         x2="-206.8976"
         y2="379.069"
         gradientTransform="matrix(1 0 0 -1 237 454.4961)">
        <stop
           offset="0"
           style="stop-color:#C4C4C4"
           id="stop251" />
        <stop
           offset="1"
           style="stop-color:#050505"
           id="stop252" />
        
        
        
      </linearGradient>
      <path
         fill="url(#XMLID_12_)"
         stroke="none"
         d="M36.263,68.171c0-1.998-2.25-3.631-5-3.631H14.428c-2.75,0-5,1.634-5,3.631      s2.25,3.631,5,3.631h16.835C34.013,71.802,36.263,70.168,36.263,68.171z"
         id="path256" />
      <path
         fill="none"
         stroke-width="0.5"
         d="M36.263,68.171c0-1.998-2.25-3.631-5-3.631H14.428c-2.75,0-5,1.634-5,3.631      s2.25,3.631,5,3.631h16.835C34.013,71.802,36.263,70.168,36.263,68.171z"
         id="path257" />
    </g>
    <linearGradient
       id="XMLID_13_"
       gradientUnits="userSpaceOnUse"
       x1="-220.3101"
       y1="393.2725"
       x2="-207.9974"
       y2="380.9597"
       gradientTransform="matrix(1 0 0 -1 237 454.4961)">
      <stop
         offset="0"
         style="stop-color:#EBEBEB"
         id="stop259" />
      <stop
         offset="1"
         style="stop-color:#545454"
         id="stop260" />
      
      
      
    </linearGradient>
    <path
       fill="url(#XMLID_13_)"
       stroke-width="0.5"
       d="M34.052,68.486H11.637v-2.21h22.415V68.486z"
       id="path264" />
    <linearGradient
       id="XMLID_14_"
       gradientUnits="userSpaceOnUse"
       x1="-206.5146"
       y1="385.6201"
       x2="-204.4931"
       y2="383.5986"
       gradientTransform="matrix(1 0 0 -1 237 454.4961)">
      <stop
         offset="0"
         style="stop-color:#EBEBEB"
         id="stop266" />
      <stop
         offset="1"
         style="stop-color:#545454"
         id="stop267" />
      
      
      
    </linearGradient>
    <path
       fill="url(#XMLID_14_)"
       stroke-width="0.5"
       d="M33.518,69.887c0-0.317-0.259-0.576-0.578-0.576h-2.889     c-0.317,0-0.576,0.259-0.576,0.576c0,0.32,0.259,0.578,0.576,0.578h2.889C33.259,70.465,33.518,70.207,33.518,69.887z"
       id="path271" />
    <linearGradient
       id="XMLID_15_"
       gradientUnits="userSpaceOnUse"
       x1="-223.3008"
       y1="368.7119"
       x2="-205.8701"
       y2="351.2813"
       gradientTransform="matrix(1 0 0 -1 237 454.4961)">
      <stop
         offset="0"
         style="stop-color:#C4C4C4"
         id="stop273" />
      <stop
         offset="1"
         style="stop-color:#050505"
         id="stop274" />
      
      
      
    </linearGradient>
    <path
       fill="url(#XMLID_15_)"
       stroke-width="0.5"
       d="M28.326,101.752c0.053-0.051,0.241,1.149,0.689,1.599     c0.447,0.447,1.397,0.585,2.028-0.049c0.631-0.631,0.375-1.52,0.02-1.875c-0.354-0.354-1.836-0.634-1.739-0.755     c1.378-1.727,2.203-3.916,2.203-6.298c0-2.32-0.783-4.46-2.099-6.165c-0.127-0.166,1.633-1.275,1.495-1.434     c-0.889-1.016-3.398-2.797-4.625-3.392c-0.212-0.104-0.901,1.695-1.122,1.606c-1.16-0.464-2.426-0.719-3.752-0.719     c-4.106,0-7.64,2.447-9.22,5.965c-0.089,0.197-2.541-0.544-2.618-0.339c-0.41,1.098-0.02,7.35,0.241,8.248     c0.089,0.307,2.087-0.341,2.204-0.048c1.483,3.736,5.129,6.379,9.393,6.379C24.093,104.477,26.519,103.442,28.326,101.752z"
       id="path278" />
    <linearGradient
       id="XMLID_16_"
       gradientUnits="userSpaceOnUse"
       x1="-220.2627"
       y1="364.8096"
       x2="-210.8867"
       y2="355.4335"
       gradientTransform="matrix(1 0 0 -1 237 454.4961)">
      <stop
         offset="0"
         style="stop-color:#787878"
         id="stop280" />
      <stop
         offset="1"
         style="stop-color:#050505"
         id="stop281" />
      
      
      
    </linearGradient>
    <path
       fill="url(#XMLID_16_)"
       stroke-width="0.5"
       d="M28.054,94.374c0-3.662-2.967-6.63-6.629-6.63c-3.662,0-6.63,2.968-6.63,6.63     s2.968,6.63,6.63,6.63C25.086,101.004,28.054,98.036,28.054,94.374z"
       id="path285" />
    <linearGradient
       id="XMLID_17_"
       gradientUnits="userSpaceOnUse"
       x1="-219.4438"
       y1="363.832"
       x2="-212.0234"
       y2="356.4116"
       gradientTransform="matrix(1 0 0 -1 237 454.4961)">
      <stop
         offset="0"
         style="stop-color:#B0E1E0"
         id="stop287" />
      <stop
         offset="1"
         style="stop-color:#0863A5"
         id="stop288" />
      
      
      
    </linearGradient>
    <path
       fill="url(#XMLID_17_)"
       stroke-width="0.5"
       d="M26.476,96.585H16.057v-4.422h10.418L26.476,96.585z"
       id="path292" />
    <linearGradient
       id="XMLID_18_"
       gradientUnits="userSpaceOnUse"
       x1="-226.1567"
       y1="362.5342"
       x2="-225.0014"
       y2="361.3789"
       gradientTransform="matrix(1 0 0 -1 237 454.4961)">
      <stop
         offset="0"
         style="stop-color:#C4C4C4"
         id="stop294" />
      <stop
         offset="1"
         style="stop-color:#169133"
         id="stop295" />
      
      
      
    </linearGradient>
    <path
       fill="url(#XMLID_18_)"
       stroke-width="0.5"
       d="M12.575,92.54c0-0.638-0.517-1.155-1.155-1.155     c-0.637,0-1.154,0.519-1.154,1.155c0,0.636,0.517,1.154,1.154,1.154C12.057,93.694,12.575,93.176,12.575,92.54z"
       id="path299" />
    <linearGradient
       id="XMLID_19_"
       gradientUnits="userSpaceOnUse"
       x1="-225.6753"
       y1="359.2109"
       x2="-224.535"
       y2="358.0705"
       gradientTransform="matrix(1 0 0 -1 237 454.4961)">
      <stop
         offset="0"
         style="stop-color:#C4C4C4"
         id="stop301" />
      <stop
         offset="1"
         style="stop-color:#D81509"
         id="stop302" />
      
      
      
    </linearGradient>
    <path
       fill="url(#XMLID_19_)"
       stroke-width="0.5"
       d="M13.034,95.854c0-0.631-0.51-1.141-1.14-1.141s-1.14,0.51-1.14,1.141     c0,0.628,0.51,1.139,1.14,1.139S13.034,96.482,13.034,95.854z"
       id="path306" />
    <linearGradient
       id="XMLID_20_"
       gradientUnits="userSpaceOnUse"
       x1="-207.2881"
       y1="352.4277"
       x2="-206.5769"
       y2="351.7165"
       gradientTransform="matrix(1 0 0 -1 237 454.4961)">
      <stop
         offset="0"
         style="stop-color:#C4C4C4"
         id="stop308" />
      <stop
         offset="1"
         style="stop-color:#050505"
         id="stop309" />
      
      
      
    </linearGradient>
    <path
       xlink:href="E1D8C018.png"
       fill="url(#XMLID_20_)"
       stroke-width="0.5"
       d="M30.778,102.425c0-0.393-0.319-0.71-0.711-0.71     c-0.392,0-0.709,0.317-0.709,0.71c0,0.394,0.317,0.711,0.709,0.711C30.459,103.136,30.778,102.817,30.778,102.425z"
       id="path313" />
    <g
       id="g314">
      <g
         id="g315">
        <linearGradient
           id="XMLID_21_"
           gradientUnits="userSpaceOnUse"
           x1="-185.4634"
           y1="273.5674"
           x2="-183.6234"
           y2="271.7274"
           gradientTransform="matrix(0.7645 0.6446 0.6446 -0.7645 -7.1527 413.5693)">
          <stop
             offset="0"
             style="stop-color:#C4C4C4"
             id="stop317" />
          <stop
             offset="1"
             style="stop-color:#050505"
             id="stop318" />
          
          
          
        </linearGradient>
        <path
           fill="url(#XMLID_21_)"
           stroke="none"
           d="M28.919,87.359c-0.21,0.249-0.58,0.278-0.828,0.07c0,0-0.167-0.538-0.747-1.026       c-0.581-0.49-1.168-0.587-1.168-0.587c-0.248-0.21-0.28-0.582-0.07-0.829c0.209-0.25,0.581-0.28,0.829-0.07       c0,0,0.732,0.22,1.167,0.586c0.435,0.368,0.747,1.028,0.747,1.028C29.098,86.741,29.13,87.111,28.919,87.359z"
           id="path322" />
        <path
           fill="none"
           stroke-width="0.5"
           d="M28.919,87.359c-0.21,0.249-0.58,0.278-0.828,0.07c0,0-0.167-0.538-0.747-1.026       c-0.581-0.49-1.168-0.587-1.168-0.587c-0.248-0.21-0.28-0.582-0.07-0.829c0.209-0.25,0.581-0.28,0.829-0.07       c0,0,0.732,0.22,1.167,0.586c0.435,0.368,0.747,1.028,0.747,1.028C29.098,86.741,29.13,87.111,28.919,87.359z"
           id="path323" />
      </g>
    </g>
    <g
       opacity="0.5"
       id="g324">
      <path
         fill="#0F3D48"
         stroke="none"
         d="M17.875,92.783c0.597,0,0.9,0.368,0.9,0.758c0,0.262-0.133,0.544-0.511,0.72v0.016      c0.383,0.149,0.62,0.427,0.62,0.795c0,0.541-0.459,0.895-1.046,0.895c-0.644,0-1.032-0.378-1.032-0.827      c0-0.389,0.232-0.668,0.606-0.83v-0.015c-0.346-0.159-0.493-0.426-0.493-0.689c0-0.488,0.412-0.819,0.952-0.819h0.004V92.783z       M17.851,95.662c0.374,0,0.616-0.232,0.616-0.549c0-0.369-0.26-0.555-0.677-0.673c-0.36,0.104-0.554,0.346-0.554,0.64      c-0.015,0.308,0.222,0.582,0.611,0.582H17.851z M17.86,93.082c-0.345,0-0.535,0.227-0.535,0.491      c-0.004,0.309,0.232,0.475,0.587,0.567c0.265-0.089,0.469-0.278,0.469-0.558c0-0.247-0.147-0.502-0.516-0.502L17.86,93.082z"
         id="path325" />
      <path
         fill="#0F3D48"
         stroke="none"
         d="M21.029,93.124c-0.085-0.005-0.194,0.005-0.313,0.024      c-0.658,0.104-0.999,0.581-1.07,1.093h0.009c0.147-0.198,0.408-0.359,0.749-0.359c0.544,0,0.928,0.398,0.928,0.994      c0,0.568-0.384,1.089-1.028,1.089c-0.653,0-1.084-0.511-1.084-1.312c0-0.605,0.213-1.083,0.521-1.393      c0.255-0.252,0.597-0.406,0.984-0.454c0.124-0.02,0.228-0.023,0.304-0.023V93.124z M20.314,95.645      c0.355,0,0.597-0.299,0.597-0.738c0-0.44-0.251-0.706-0.635-0.706c-0.25,0-0.488,0.151-0.602,0.378      c-0.023,0.049-0.042,0.104-0.042,0.18c0.005,0.509,0.241,0.888,0.677,0.888L20.314,95.645z"
         id="path326" />
      <path
         fill="#0F3D48"
         stroke="none"
         d="M22.009,95.965c-0.161,0-0.275-0.128-0.275-0.298c0-0.171,0.119-0.298,0.285-0.298      s0.279,0.122,0.279,0.298c0,0.17-0.114,0.298-0.284,0.298H22.009z"
         id="path327" />
      <path
         fill="#0F3D48"
         stroke="none"
         d="M24.68,92.835v0.274l-1.34,2.804h-0.426l1.33-2.723V93.18h-1.506v-0.346L24.68,92.835z"
         id="path328" />
    </g>
    <g
       opacity="0.5"
       id="g329">
      <g
         id="g330">
        <g
           id="g331">
          <linearGradient
             id="XMLID_22_"
             gradientUnits="userSpaceOnUse"
             x1="-235.1763"
             y1="435.7314"
             x2="-233.3271"
             y2="433.8824"
             gradientTransform="matrix(1 0 0 -1 237 454.4961)">
            <stop
               offset="0"
               style="stop-color:#FFFFFF"
               id="stop333" />
            <stop
               offset="1"
               style="stop-color:#828282"
               id="stop334" />
            
            
            
          </linearGradient>
          <path
             fill="url(#XMLID_22_)"
             stroke="none"
             d="M4.596,19.69c0-1.021-0.828-1.849-1.849-1.849s-1.848,0.828-1.848,1.849        s0.828,1.848,1.848,1.848C3.768,21.538,4.596,20.71,4.596,19.69z"
             id="path338" />
          <path
             fill="none"
             stroke="#828282"
             stroke-width="0.5"
             d="M4.596,19.69c0-1.021-0.828-1.849-1.849-1.849        s-1.848,0.828-1.848,1.849s0.828,1.848,1.848,1.848C3.768,21.538,4.596,20.71,4.596,19.69z"
             id="path339" />
        </g>
      </g>
      <path
         xlink:href="E1D8C01A.png"
         fill="none"
         stroke="#828282"
         stroke-width="0.5"
         d="M1.75,21.248l1.995-3.118"
         id="path340" />
      <g
         id="g341">
        <g
           id="g342">
          <linearGradient
             id="XMLID_23_"
             gradientUnits="userSpaceOnUse"
             x1="-194.7676"
             y1="435.7305"
             x2="-192.9185"
             y2="433.8813"
             gradientTransform="matrix(1 0 0 -1 237 454.4961)">
            <stop
               offset="0"
               style="stop-color:#FFFFFF"
               id="stop344" />
            <stop
               offset="1"
               style="stop-color:#828282"
               id="stop345" />
            
            
            
          </linearGradient>
          <path
             fill="url(#XMLID_23_)"
             stroke="none"
             d="M45.006,19.69c0-1.021-0.828-1.849-1.848-1.849c-1.021,0-1.85,0.828-1.85,1.849        s0.829,1.848,1.85,1.848C44.178,21.538,45.006,20.71,45.006,19.69z"
             id="path349" />
          <path
             fill="none"
             stroke="#828282"
             stroke-width="0.5"
             d="M45.006,19.69c0-1.021-0.828-1.849-1.848-1.849        c-1.021,0-1.85,0.828-1.85,1.849s0.829,1.848,1.85,1.848C44.178,21.538,45.006,20.71,45.006,19.69z"
             id="path350" />
        </g>
      </g>
      <path
         xlink:href="E1D8C01B.png"
         fill="none"
         stroke="#828282"
         stroke-width="0.5"
         d="M43.117,21.54l0.083-3.701"
         id="path351" />
      <g
         id="g352">
        <g
           id="g353">
          <linearGradient
             id="XMLID_24_"
             gradientUnits="userSpaceOnUse"
             x1="-107.0811"
             y1="442.9287"
             x2="-105.2318"
             y2="441.0794"
             gradientTransform="matrix(0.666 -0.746 -0.746 -0.666 443.7505 331.005)">
            <stop
               offset="0"
               style="stop-color:#FFFFFF"
               id="stop355" />
            <stop
               offset="1"
               style="stop-color:#828282"
               id="stop356" />
            
            
            
          </linearGradient>
          <path
             fill="url(#XMLID_24_)"
             stroke="none"
             d="M44.547,114.445c-0.762-0.681-1.931-0.614-2.611,0.146        c-0.679,0.763-0.613,1.933,0.149,2.611c0.761,0.68,1.93,0.611,2.609-0.148C45.374,116.294,45.308,115.125,44.547,114.445z"
             id="path360" />
          <path
             fill="none"
             stroke="#828282"
             stroke-width="0.5"
             d="M44.547,114.445c-0.762-0.681-1.931-0.614-2.611,0.146        c-0.679,0.763-0.613,1.933,0.149,2.611c0.761,0.68,1.93,0.611,2.609-0.148C45.374,116.294,45.308,115.125,44.547,114.445z"
             id="path361" />
        </g>
      </g>
      <path
         xlink:href="A453C2EF.png"
         fill="none"
         stroke="#828282"
         stroke-width="0.5"
         d="M43.815,117.604l-0.998-3.563"
         id="path362" />
      <g
         id="g363">
        <g
           id="g364">
          <linearGradient
             id="XMLID_25_"
             gradientUnits="userSpaceOnUse"
             x1="-240.8486"
             y1="264.0566"
             x2="-239.0004"
             y2="262.2084"
             gradientTransform="matrix(0.8139 0.581 0.581 -0.8139 45.4575 469.3831)">
            <stop
               offset="0"
               style="stop-color:#FFFFFF"
               id="stop366" />
            <stop
               offset="1"
               style="stop-color:#828282"
               id="stop367" />
            
            
            
          </linearGradient>
          <path
             fill="url(#XMLID_25_)"
             stroke="none"
             d="M4.567,116.897c0.593-0.831,0.401-1.986-0.43-2.578        c-0.831-0.594-1.986-0.402-2.579,0.431c-0.592,0.83-0.4,1.984,0.431,2.577C2.82,117.922,3.973,117.727,4.567,116.897z"
             id="path371" />
          <path
             fill="none"
             stroke="#828282"
             stroke-width="0.5"
             d="M4.567,116.897c0.593-0.831,0.401-1.986-0.43-2.578        c-0.831-0.594-1.986-0.402-2.579,0.431c-0.592,0.83-0.4,1.984,0.431,2.577C2.82,117.922,3.973,117.727,4.567,116.897z"
             id="path372" />
        </g>
      </g>
      <path
         xlink:href="A453C2F0.png"
         fill="none"
         stroke="#828282"
         stroke-width="0.5"
         d="M1.345,116.514l3.435-1.381"
         id="path373" />
      <g
         id="g374">
        <g
           id="g375">
          <linearGradient
             id="XMLID_26_"
             gradientUnits="userSpaceOnUse"
             x1="-191.9185"
             y1="422.7324"
             x2="-190.0706"
             y2="420.8846"
             gradientTransform="matrix(0.9744 -0.2247 -0.2247 -0.9744 323.8069 436.5594)">
            <stop
               offset="0"
               style="stop-color:#FFFFFF"
               id="stop377" />
            <stop
               offset="1"
               style="stop-color:#828282"
               id="stop378" />
            
            
            
          </linearGradient>
          <path
             fill="url(#XMLID_26_)"
             stroke="none"
             d="M44.722,68.051c-0.229-0.995-1.221-1.615-2.216-1.385        c-0.996,0.229-1.617,1.221-1.386,2.217c0.229,0.994,1.221,1.614,2.216,1.385C44.331,70.039,44.952,69.046,44.722,68.051z"
             id="path382" />
          <path
             fill="none"
             stroke="#828282"
             stroke-width="0.5"
             d="M44.722,68.051c-0.229-0.995-1.221-1.615-2.216-1.385        c-0.996,0.229-1.617,1.221-1.386,2.217c0.229,0.994,1.221,1.614,2.216,1.385C44.331,70.039,44.952,69.046,44.722,68.051z"
             id="path383" />
        </g>
      </g>
      <path
         xlink:href="A453C2F1.png"
         fill="none"
         stroke="#828282"
         stroke-width="0.5"
         d="M42.299,70.21l1.244-3.486"
         id="path384" />
      <g
         id="g385">
        <g
           id="g386">
          <linearGradient
             id="XMLID_27_"
             gradientUnits="userSpaceOnUse"
             x1="-151.5991"
             y1="506.4365"
             x2="-149.7499"
             y2="504.5873"
             gradientTransform="matrix(0.1821 -0.9833 -0.9833 -0.1821 527.6496 12.5992)">
            <stop
               offset="0"
               style="stop-color:#FFFFFF"
               id="stop388" />
            <stop
               offset="1"
               style="stop-color:#828282"
               id="stop389" />
            
            
            
          </linearGradient>
          <path
             fill="url(#XMLID_27_)"
             stroke="none"
             d="M3.479,66.885c-1.004-0.186-1.969,0.478-2.155,1.481        c-0.186,1.004,0.478,1.968,1.481,2.155c1.003,0.186,1.967-0.479,2.153-1.482C5.145,68.036,4.482,67.072,3.479,66.885z"
             id="path393" />
          <path
             fill="none"
             stroke="#828282"
             stroke-width="0.5"
             d="M3.479,66.885c-1.004-0.186-1.969,0.478-2.155,1.481        c-0.186,1.004,0.478,1.968,1.481,2.155c1.003,0.186,1.967-0.479,2.153-1.482C5.145,68.036,4.482,67.072,3.479,66.885z"
             id="path394" />
        </g>
      </g>
      <path
         fill="none"
         stroke="#828282"
         stroke-width="0.5"
         d="M4.494,69.968L1.791,67.44"
         id="path395" />
    </g>
  </g>
  <g
     id="g396"
     style="font-size:12;stroke:#000000;">
    <g
       id="g397">
      <g
         id="g398">
        <linearGradient
           id="XMLID_28_"
           gradientUnits="userSpaceOnUse"
           x1="-162.4414"
           y1="359.748"
           x2="-115.5342"
           y2="359.748"
           gradientTransform="matrix(1 0 0 -1 237 454.4961)">
          <stop
             offset="0"
             style="stop-color:#9E9E9E"
             id="stop400" />
          <stop
             offset="1"
             style="stop-color:#616161"
             id="stop401" />
          
          
          
        </linearGradient>
        <path
           fill="url(#XMLID_28_)"
           stroke="none"
           d="M121.466,94.748c0-2.528-10.501-4.577-23.454-4.577       c-12.952,0-23.453,2.049-23.453,4.577c0,2.527,10.501,4.576,23.453,4.576C110.965,99.324,121.466,97.275,121.466,94.748z"
           id="path405" />
        <path
           fill="none"
           d="M121.466,94.748c0-2.528-10.501-4.577-23.454-4.577c-12.952,0-23.453,2.049-23.453,4.577       c0,2.527,10.501,4.576,23.453,4.576C110.965,99.324,121.466,97.275,121.466,94.748z"
           id="path406" />
      </g>
    </g>
    <g
       id="g407">
      <g
         id="g408">
        <linearGradient
           id="XMLID_29_"
           gradientUnits="userSpaceOnUse"
           x1="-143.54"
           y1="362.1357"
           x2="-134.1504"
           y2="362.1357"
           gradientTransform="matrix(1 0 0 -1 237 454.4961)">
          <stop
             offset="0"
             style="stop-color:#9E9E9E"
             id="stop410" />
          <stop
             offset="1"
             style="stop-color:#616161"
             id="stop411" />
          
          
          
        </linearGradient>
        <path
           fill="url(#XMLID_29_)"
           stroke="none"
           d="M102.85,88.829c-3.11-0.492-6.278-0.492-9.39,0       c0.373,2.354,0.746,4.709,1.119,7.063c2.369-0.375,4.781-0.375,7.15,0C102.104,93.538,102.477,91.184,102.85,88.829z"
           id="path415" />
        <path
           fill="none"
           d="M102.85,88.829c-3.11-0.492-6.278-0.492-9.39,0c0.373,2.354,0.746,4.709,1.119,7.063       c2.369-0.375,4.781-0.375,7.15,0C102.104,93.538,102.477,91.184,102.85,88.829z"
           id="path416" />
      </g>
    </g>
    <g
       id="g417">
      <g
         id="g418">
        <linearGradient
           id="XMLID_30_"
           gradientUnits="userSpaceOnUse"
           x1="-173.0723"
           y1="372.0469"
           x2="-102.2813"
           y2="372.0469"
           gradientTransform="matrix(1 0 0 -1 237 454.4961)">
          <stop
             offset="0"
             style="stop-color:#9E9E9E"
             id="stop420" />
          <stop
             offset="1"
             style="stop-color:#616161"
             id="stop421" />
          
          
          
        </linearGradient>
        <path
           fill="url(#XMLID_30_)"
           stroke="none"
           d="M63.928,79.445h70.791c0,0-8.58,12.871-37.184,12.871       S63.928,79.445,63.928,79.445z M63.928,72.581c0,0,5.006,12.871,33.607,12.871c28.604,0,37.184-12.871,37.184-12.871"
           id="path425" />
        <path
           fill="none"
           d="M63.928,79.445h70.791c0,0-8.58,12.871-37.184,12.871S63.928,79.445,63.928,79.445z M63.928,72.581       c0,0,5.006,12.871,33.607,12.871c28.604,0,37.184-12.871,37.184-12.871"
           id="path426" />
      </g>
    </g>
    <g
       id="g427">
      <g
         id="g428">
        <linearGradient
           id="XMLID_31_"
           gradientUnits="userSpaceOnUse"
           x1="66.4922"
           y1="89.4658"
           x2="133.3457"
           y2="22.6123">
          <stop
             offset="0"
             style="stop-color:#636363"
             id="stop430" />
          <stop
             offset="1"
             style="stop-color:#000000"
             id="stop431" />
          
          
          
        </linearGradient>
        <path
           fill="url(#XMLID_31_)"
           stroke="none"
           d="M139.676,81.071c0,2.75-2.25,5-5,5H65.16c-2.75,0-5-2.25-5-5V31.005       c0-2.75,2.25-5,5-5h69.516c2.75,0,5,2.25,5,5V81.071z M133.24,35.868c0-2.75-2.25-5-5-5H71.598c-2.75,0-5,2.25-5,5v40.341       c0,2.75,2.25,5,5,5h56.644c2.75,0,5-2.25,5-5L133.24,35.868z"
           id="path435" />
        <path
           fill="none"
           d="M139.676,81.071c0,2.75-2.25,5-5,5H65.16c-2.75,0-5-2.25-5-5V31.005c0-2.75,2.25-5,5-5h69.516       c2.75,0,5,2.25,5,5V81.071z M133.24,35.868c0-2.75-2.25-5-5-5H71.598c-2.75,0-5,2.25-5,5v40.341c0,2.75,2.25,5,5,5h56.644       c2.75,0,5-2.25,5-5L133.24,35.868z"
           id="path436" />
      </g>
    </g>
  </g>
  <path
     fill="url(#XMLID_32_)"
     d="M133.24,35.868c0-2.75-2.25-5-5-5H71.598c-2.75,0-5,2.25-5,5v40.341c0,2.75,2.25,5,5,5h56.644    c2.75,0,5-2.25,5-5L133.24,35.868z"
     id="path443"
     style="font-size:12;fill:url(#XMLID_32_);stroke:#000000;" />
  <g
     id="g444"
     style="font-size:12;stroke:#000000;">
    <g
       opacity="0.85"
       id="g445">
      <linearGradient
         id="XMLID_33_"
         gradientUnits="userSpaceOnUse"
         x1="59.0571"
         y1="73.3955"
         x2="98.8954"
         y2="113.2338">
        <stop
           offset="0"
           style="stop-color:#92BBF7"
           id="stop447" />
        <stop
           offset="1"
           style="stop-color:#3A6FFF"
           id="stop448" />
        
        
        
      </linearGradient>
      <path
         fill="url(#XMLID_33_)"
         stroke="none"
         d="M59.057,73.396c11-11,28.837-11,39.838,0c11.001,11.001,11.001,28.838,0,39.838      c-11.001,11.001-28.838,11.001-39.838,0C48.055,102.232,48.055,84.396,59.057,73.396z"
         id="path452" />
    </g>
  </g>
  <g
     id="g453"
     style="font-size:12;stroke:#000000;">
    <g
       opacity="0.85"
       id="g454">
      <linearGradient
         id="XMLID_34_"
         gradientUnits="userSpaceOnUse"
         x1="61.0737"
         y1="73.1924"
         x2="91.6872"
         y2="103.8058">
        <stop
           offset="0"
           style="stop-color:#92BB3D"
           id="stop456" />
        <stop
           offset="1"
           style="stop-color:#886F00"
           id="stop457" />
        
        
        
      </linearGradient>
      <path
         fill="url(#XMLID_34_)"
         stroke="none"
         d="M67.994,85.748c-5.25-6-4.545-16.11-2.075-17.402      c7.389-3.867,16.134-4.23,23.777-1.089c1.503,0.618,7.845,7.985,4.708,13.955c-3.844,7.316-2.41,18.036-15.91,15.036      s11.751,9,0.75,20c-11.001,11.001-2.25,0.251-13.25-10.75C54.993,94.497,73.244,91.748,67.994,85.748z"
         id="path461" />
    </g>
  </g>
  <g
     id="g462"
     style="font-size:12;stroke:#000000;">
    <g
       opacity="0.5"
       id="g463">
      <radialGradient
         id="XMLID_35_"
         cx="-158.0244"
         cy="361.1816"
         r="28.1699"
         fx="-158.0244"
         fy="361.1816"
         gradientTransform="matrix(1 0 0 -1 237 454.4961)"
         gradientUnits="userSpaceOnUse">
        <stop
           offset="0.0056"
           style="stop-color:#FFFFFF"
           id="stop465" />
        <stop
           offset="1"
           style="stop-color:#545454"
           id="stop466" />
        
        
        
      </radialGradient>
      <path
         fill="url(#XMLID_35_)"
         stroke="none"
         d="M59.056,73.396c11-11,28.837-11,39.838,0c11.001,11.001,11.001,28.838,0,39.838      c-11.001,11.001-28.838,11.001-39.838,0C48.055,102.232,48.055,84.396,59.056,73.396z"
         id="path470" />
    </g>
  </g>
  <g
     id="g483"
     style="font-size:12;stroke:#000000;">
    <g
       id="g484">
      <g
         id="g485">
        <linearGradient
           id="XMLID_37_"
           gradientUnits="userSpaceOnUse"
           x1="-157.7544"
           y1="372.9668"
           x2="-157.7544"
           y2="382.7002"
           gradientTransform="matrix(1 0 0 -1 237 454.4961)">
          <stop
             offset="0.0056"
             style="stop-color:#FFFFFF"
             id="stop487" />
          <stop
             offset="0.9831"
             style="stop-color:#1C1C1C"
             id="stop488" />
          
          
          
        </linearGradient>
        <path
           opacity="0.3"
           fill="url(#XMLID_37_)"
           stroke="none"
           adobe-blending-mode="screen"
           d="M98.025,76.662       c0,2.688-8.408,4.867-18.779,4.867c-10.373,0-18.78-2.181-18.78-4.867c0-2.688,8.407-4.866,18.78-4.866       C89.617,71.796,98.025,73.975,98.025,76.662z"
           id="path492" />
      </g>
    </g>
  </g>
</svg>
