<?xml version="1.0" encoding="UTF-8" standalone="no"?>
<svg
   xmlns:dc="http://purl.org/dc/elements/1.1/"
   xmlns:cc="http://creativecommons.org/ns#"
   xmlns:rdf="http://www.w3.org/1999/02/22-rdf-syntax-ns#"
   xmlns:svg="http://www.w3.org/2000/svg"
   xmlns="http://www.w3.org/2000/svg"
   xmlns:sodipodi="http://sodipodi.sourceforge.net/DTD/sodipodi-0.dtd"
   xmlns:inkscape="http://www.inkscape.org/namespaces/inkscape"
   version="1.1"
   width="64"
   height="64"
   color-interpolation="linearRGB"
   id="svg2"
   inkscape:version="0.91 r13725"
   sodipodi:docname="application-x-java-archive.svg">
  <metadata
     id="metadata44">
    <rdf:RDF>
      <cc:Work
         rdf:about="">
        <dc:format>image/svg+xml</dc:format>
        <dc:type
           rdf:resource="http://purl.org/dc/dcmitype/StillImage" />
        <dc:title></dc:title>
      </cc:Work>
    </rdf:RDF>
  </metadata>
  <defs
     id="defs42">
    <linearGradient
       y2="58"
       x2="10.99"
       y1="58"
       x1="53"
       gradientUnits="userSpaceOnUse"
       id="gradient0-3"
       gradientTransform="matrix(0.55971991,0,0,0.55971991,16.602675,9.0610812)">
      <stop
         id="stop7812"
         stop-color="#d4d4d4"
         offset="0" />
      <stop
         id="stop7814"
         stop-color="#ffffff"
         offset="1" />
    </linearGradient>
    <linearGradient
       y2="11"
       x2="45"
       y1="11"
       x1="-11"
       gradientUnits="userSpaceOnUse"
       id="gradient1-6"
       gradientTransform="matrix(0.3013532,0,0,0.3013532,24.352613,21.202693)">
      <stop
         id="stop7821"
         stop-color="#f2f2f2"
         offset="0" />
      <stop
         id="stop7823"
         stop-color="#ffffff"
         offset="1" />
    </linearGradient>
    <radialGradient
       gradientTransform="matrix(0.20989497,0,0,0.46350406,31.715113,20.815199)"
       r="64"
       cy="0"
       cx="0"
       gradientUnits="userSpaceOnUse"
       id="gradient2-3">
      <stop
         id="stop7832"
         stop-color="#f6f6f6"
         offset="0" />
      <stop
         id="stop7834"
         stop-color="#ffffff"
         offset="0.3913" />
      <stop
         id="stop7836"
         stop-color="#b6b6b6"
         offset="0.7871" />
      <stop
         id="stop7838"
         stop-color="#858585"
         offset="0.9954" />
    </radialGradient>
    <linearGradient
       y2="-64"
       x2="52"
       y1="-64"
       x1="-8"
       gradientUnits="userSpaceOnUse"
       id="gradient3-6"
       gradientTransform="matrix(0.48975492,0,0,0.41978993,18.841555,11.299961)">
      <stop
         id="stop7845"
         stop-color="#515151"
         offset="0" />
      <stop
         id="stop7847"
         stop-color="#ffffff"
         offset="1" />
    </linearGradient>
    <linearGradient
       y2="13"
       x2="-7.9899998"
       y1="29"
       x1="-7.9899998"
       gradientUnits="userSpaceOnUse"
       id="gradient4"
       gradientTransform="matrix(0.55971991,0,0,0.55971991,16.602675,9.0610812)">
      <stop
         id="stop7852"
         stop-color="#9d5e04"
         offset="0" />
      <stop
         id="stop7854"
         stop-color="#010101"
         offset="1" />
    </linearGradient>
    <linearGradient
       y2="-0.49000001"
       x2="67.5"
       y1="37.5"
       x1="67.5"
       gradientUnits="userSpaceOnUse"
       id="gradient5"
       gradientTransform="matrix(0.55971991,0,0,0.55971991,16.602675,9.0610812)">
      <stop
         id="stop7863"
         stop-opacity="0.0941"
         stop-color="#ffffff"
         offset="0" />
      <stop
         id="stop7865"
         stop-opacity="0.8627"
         stop-color="#ffffff"
         offset="1" />
    </linearGradient>
    <radialGradient
       gradientTransform="matrix(0.04584106,-0.04584106,0.05048674,0.05048674,37.86621,32.419424)"
       r="64"
       cy="0"
       cx="0"
       gradientUnits="userSpaceOnUse"
       id="gradient7">
      <stop
         id="stop7877"
         stop-color="#d2d2d2"
         offset="0.517" />
      <stop
         id="stop7879"
         stop-color="#2b2b2b"
         offset="1" />
    </radialGradient>
    <radialGradient
       gradientTransform="matrix(0.35855657,0,0,0.19237573,23.319314,33.129037)"
       r="64"
       cy="0"
       cx="0"
       gradientUnits="userSpaceOnUse"
       id="gradient8">
      <stop
         id="stop7884"
         stop-color="#ffffff"
         offset="0.913" />
      <stop
         id="stop7886"
         stop-color="#c2c2c2"
         offset="1" />
    </radialGradient>
  </defs>
  <sodipodi:namedview
     pagecolor="#ffffff"
     bordercolor="#666666"
     borderopacity="1"
     objecttolerance="10"
     gridtolerance="10"
     guidetolerance="10"
     inkscape:pageopacity="0"
     inkscape:pageshadow="2"
     inkscape:window-width="1039"
     inkscape:window-height="843"
     id="namedview40"
     showgrid="false"
     inkscape:zoom="4.0043945"
     inkscape:cx="30.281101"
     inkscape:cy="15.35994"
     inkscape:window-x="845"
     inkscape:window-y="188"
     inkscape:window-maximized="0"
     inkscape:current-layer="svg2" />
  <g
     id="g4">
    <path
       style="fill:#010101; fill-opacity:0.5333"
       d="M36 59H41C41 59 45.5 55.62 48.12 52.08C51.03 48.17 52.08 44.05 52.08 44.05C52.08 44.05 57.06 40.04 60.04 36.02C63.02 32.01 63 28 63 28L59 26L57 31L36 59z"
       id="path6" />
    <path
       style="fill:none; stroke:#010000; stroke-width:4"
       d="M3 28C3 28 2 30.47 2 33.25C2 36.86 2.62 40.62 2.62 40.62C2.62 40.62 4.97 42.57 8.23 44.3C12.2 46.4 16.61 47.73 16.61 47.73L16.62 33.87L29.5 20.75C29.5 20.75 25.45 19.1 21.66 17.55C18.29 16.17 15.11 15.88 15.11 15.88C15.11 15.88 11.04 17.95 7.87 21.12C4.49 24.5 3 28 3 28z            M30 19.75L38.93 10.06C38.93 10.06 35.07 8.66 31.42 7.33C28.13 6.13 25 6 25 6C25 6 23.27 6.72 21.37 8.62C19.05 10.94 16.49 13.5 16.49 13.5L30 19.75z            M31.5 21.37L47.87 27L47.92 41.96C47.92 41.96 51.84 38.11 54.36 34.78C56.29 32.24 57 29.62 57 29.62C57 29.62 58 25.95 58 22.37C58 19.53 56.25 17.5 56.25 17.5C56.25 17.5 52.21 14.89 47.33 13.12C43.79 11.83 40.72 11.21 40.72 11.21C40.72 11.21 38.67 12.65 36.4 14.79C33.61 17.43 31.5 21.37 31.5 21.37z            M46.62 29C46.62 29 42.42 26.85 37.97 24.94C34 23.24 30.5 22.25 30.5 22.25C30.5 22.25 27.59 24.49 24.78 27.54C21.62 30.97 18.62 34.62 18.62 34.62C18.62 34.62 18.24 37.59 18.24 40.88C18.24 44.98 18.87 49.47 18.87 49.47C18.87 49.47 22.15 51.66 26.3 53.86C30.99 56.35 36 57.25 36 57.25C36 57.25 39.12 54.87 42.12 50.92C44.88 47.29 46.77 43.67 46.77 43.67C46.77 43.67 47.23 40.08 47.2 36.36C47.16 32.62 46.62 29 46.62 29z"
       id="path8" />
    <linearGradient
       id="gradient0"
       gradientUnits="userSpaceOnUse"
       x1="13.84"
       y1="-38.14"
       x2="58.34"
       y2="-27.7">
      <stop
         offset="0"
         stop-color="#fff8ea"
         id="stop11" />
      <stop
         offset="1"
         stop-color="#f5deac"
         id="stop13" />
    </linearGradient>
    <path
       style="fill:url(#gradient0)"
       d="M46.62 29C46.62 29 42.42 26.85 37.97 24.94C34 23.24 30.5 22.25 30.5 22.25C30.5 22.25 27.59 24.49 24.78 27.54C21.62 30.97 18.62 34.62 18.62 34.62L36 42C36 42 39.67 38.72 42.34 35.46C44.98 32.22 46.62 29 46.62 29z            M3 28L16.62 33.87L29.5 20.75C29.5 20.75 25.45 19.1 21.66 17.55C18.29 16.17 15.11 15.88 15.11 15.88C15.11 15.88 11.04 17.95 7.87 21.12C4.49 24.5 3 28 3 28z            M30 19.75L38.93 10.06C38.93 10.06 35.07 8.66 31.42 7.33C28.13 6.13 25 6 25 6C25 6 23.27 6.72 21.37 8.62C19.05 10.94 16.49 13.5 16.49 13.5L30 19.75z            M31.5 21.37L47.87 27C47.87 27 51.34 24.19 53.6 21.63C55.5 19.48 56.25 17.5 56.25 17.5C56.25 17.5 52.21 14.89 47.33 13.12C43.79 11.83 40.72 11.21 40.72 11.21C40.72 11.21 38.67 12.65 36.4 14.79C33.61 17.43 31.5 21.37 31.5 21.37z"
       id="path15" />
    <linearGradient
       id="gradient1"
       gradientUnits="userSpaceOnUse"
       x1="44.72"
       y1="-7.9"
       x2="86.1"
       y2="10.51">
      <stop
         offset="0"
         stop-color="#983f04"
         id="stop18" />
      <stop
         offset="1"
         stop-color="#e6c276"
         id="stop20" />
    </linearGradient>
    <path
       style="fill:url(#gradient1)"
       d="M46.62 29C46.62 29 44.98 32.22 42.34 35.46C39.67 38.72 36 42 36 42V57.25C36 57.25 39.12 54.87 42.12 50.92C44.88 47.29 46.77 43.67 46.77 43.67C46.77 43.67 47.23 40.08 47.2 36.36C47.16 32.62 46.62 29 46.62 29z            M47.87 27L47.92 41.96C47.92 41.96 51.84 38.11 54.36 34.78C56.29 32.24 57 29.62 57 29.62C57 29.62 58 25.95 58 22.37C58 19.53 56.25 17.5 56.25 17.5C56.25 17.5 55.5 19.48 53.6 21.63C51.34 24.19 47.87 27 47.87 27z"
       id="path22" />
    <linearGradient
       id="gradient2"
       gradientUnits="userSpaceOnUse"
       x1="17.72"
       y1="90.92"
       x2="-10.6"
       y2="71.85">
      <stop
         offset="0"
         stop-color="#eebf5a"
         id="stop25" />
      <stop
         offset="1"
         stop-color="#ffebc0"
         id="stop27" />
    </linearGradient>
    <path
       style="fill:url(#gradient2)"
       d="M36 42L18.62 34.62C18.62 34.62 18.24 37.59 18.24 40.88C18.24 44.98 18.87 49.47 18.87 49.47C18.87 49.47 22.15 51.66 26.3 53.86C30.99 56.35 36 57.25 36 57.25V42z"
       id="path29" />
    <path
       style="fill:none; stroke:#010000; stroke-width:2"
       d="M37 31C37 31 31 17 27 15C23 13 11 20 18 21C25 22 42 14 46 17C50 20 51 21 47 21C45.42 21 31 20 31 20C31 20 28.37 20.67 24 23.25C19.88 25.67 15 27.25 15 27.25"
       id="path31" />
    <linearGradient
       id="gradient3"
       gradientUnits="userSpaceOnUse"
       x1="2.85"
       y1="-64"
       x2="21.14"
       y2="-64">
      <stop
         offset="0"
         stop-color="#ffefce"
         id="stop34" />
      <stop
         offset="1"
         stop-color="#ffd16e"
         id="stop36" />
    </linearGradient>
    <path
       style="fill:url(#gradient3)"
       d="M3 28C3 28 2 30.47 2 33.25C2 36.86 2.62 40.62 2.62 40.62C2.62 40.62 4.97 42.57 8.23 44.3C12.2 46.4 16.61 47.73 16.61 47.73L16.62 33.87L3 28z"
       id="path38" />
  </g>
  <g
     id="g8158"
     transform="matrix(1.1587548,0,0,1.1587548,2.181042,13.295105)">
    <path
       inkscape:connector-curvature="0"
       style="color-interpolation:linearRGB;fill:#010101;fill-opacity:0.40779999"
       d=""
       id="path7807" />
    <path
       inkscape:connector-curvature="0"
       style="color-interpolation:linearRGB;fill:none;stroke:#010101;stroke-width:2.23887968"
       d="m 34.513712,22.494359 c -8.658867,0 -15.672157,4.505745 -15.672157,10.074958 0,5.563616 7.01329,10.074959 15.672157,10.074959 8.65327,0 15.672158,-4.511343 15.672158,-10.074959 0,-5.569213 -7.018888,-10.074958 -15.672158,-10.074958 z"
       id="path7809" />
    <path
       inkscape:connector-curvature="0"
       style="color-interpolation:linearRGB;fill:url(#gradient0-3)"
       d="m 34.513712,22.494359 c -8.658867,0 -15.672157,4.505745 -15.672157,10.074958 0,5.563616 7.01329,10.074959 15.672157,10.074959 8.65327,0 15.672158,-4.511343 15.672158,-10.074959 0,-5.569213 -7.018888,-10.074958 -15.672158,-10.074958 z"
       id="path7816" />
    <path
       inkscape:connector-curvature="0"
       style="color-interpolation:linearRGB;fill:#b6b6b6"
       d="m 32.575626,28.505807 c -4.495684,0 -8.136985,2.285314 -8.136985,5.110018 0,2.821866 3.641301,5.110019 8.136985,5.110019 4.492777,0 8.136984,-2.288153 8.136984,-5.110019 0,-2.824704 -3.644207,-5.110018 -8.136984,-5.110018 z"
       id="path7818" />
    <path
       inkscape:connector-curvature="0"
       style="color-interpolation:linearRGB;fill:url(#gradient1-6)"
       d="m 33.995915,28.43517 c -4.661934,0 -8.437889,2.425893 -8.437889,5.424357 0,2.995451 3.775955,5.424358 8.437889,5.424358 4.658921,0 8.43789,-2.428907 8.43789,-5.424358 0,-2.998464 -3.778969,-5.424357 -8.43789,-5.424357 z"
       id="path7825" />
    <path
       inkscape:connector-curvature="0"
       style="color-interpolation:linearRGB;fill:#010101;fill-opacity:0.40779999"
       d="m 33.953992,37.606797 8.955519,0.55972 1.679159,0 1.67916,1.679159 c 0,0 -0.55972,3.35832 -15.672157,3.35832 10.074958,2.238879 14.552717,0.55972 16.231877,-0.55972 3.91804,0 5.597199,-1.67916 5.037479,-5.037479 1.11944,-5.03748 0,-6.716639 -1.119439,-7.276359 -1.623188,-0.811594 -1.11944,-1.11944 -1.11944,-1.11944 l -15.672158,0.55972"
       id="path7827" />
    <path
       inkscape:connector-curvature="0"
       style="color-interpolation:linearRGB;fill:none;stroke:#010101;stroke-width:2.23887968"
       d="m 45.70811,19.695759 c 0,-3.918039 -4.477759,-6.156919 -11.194398,-6.156919 -6.716639,0 -11.194398,2.23888 -11.194398,6.156919 l 0,5.03748 c 0,0 0.55972,11.754118 11.194398,11.754118 10.634678,0 11.194398,-11.754118 11.194398,-11.754118 l 0,-5.03748 z"
       id="path7829" />
    <path
       inkscape:connector-curvature="0"
       style="color-interpolation:linearRGB;fill:url(#gradient2-3)"
       d="m 45.70811,19.695759 c 0,-3.918039 -4.477759,-6.156919 -11.194398,-6.156919 -6.716639,0 -11.194398,2.23888 -11.194398,6.156919 l 0,5.03748 c 0,0 0.55972,11.754118 11.194398,11.754118 10.634678,0 11.194398,-11.754118 11.194398,-11.754118 l 0,-5.03748 z"
       id="path7840" />
    <path
       inkscape:connector-curvature="0"
       style="color-interpolation:linearRGB;fill:#ffffff"
       d="m 34.513712,13.53884 c -6.156919,0 -11.194398,2.7986 -11.194398,6.156919 0,3.35832 5.037479,6.156919 11.194398,6.156919 6.156919,0 11.194398,-2.798599 11.194398,-6.156919 0,-3.358319 -5.037479,-6.156919 -11.194398,-6.156919 z"
       id="path7842" />
    <path
       inkscape:connector-curvature="0"
       style="color-interpolation:linearRGB;fill:url(#gradient3-6)"
       d="m 34.513712,14.65828 c -5.387304,0 -9.795098,2.09895 -9.795098,4.61769 0,2.518739 4.407794,4.617689 9.795098,4.617689 5.387305,0 9.795099,-2.09895 9.795099,-4.617689 0,-2.51874 -4.407794,-4.61769 -9.795099,-4.61769 z"
       id="path7849" />
    <path
       inkscape:connector-curvature="0"
       style="color-interpolation:linearRGB;fill:url(#gradient4)"
       d="m 34.513712,16.89716 c -4.41619,0 -7.836079,1.11944 -8.955518,3.918039 1.141828,2.166116 3.414291,3.35832 8.955518,3.35832 5.541227,0 7.869662,-1.108246 8.955519,-3.35832 C 42.349791,18.0166 38.862736,16.89716 34.513712,16.89716 Z"
       id="path7856" />
    <path
       inkscape:connector-curvature="0"
       style="color-interpolation:linearRGB;fill:#010101;fill-opacity:0.40779999"
       d="m 31.715113,17.45688 c 0,0 -3.91804,2.238879 -3.35832,5.597199 0,0 -3.358319,-1.67916 -3.358319,-3.35832 0,-3.358319 4.477759,-4.477759 4.477759,-4.477759 l 2.23888,2.23888 z"
       id="path7858" />
    <path
       inkscape:connector-curvature="0"
       style="color-interpolation:linearRGB;fill:#ffffff;fill-opacity:0.15290001"
       d="m 26.117913,21.934639 c 1.67916,-3.358319 5.03748,-3.918039 5.03748,-3.918039 0,0 -3.91804,1.11944 -3.91804,4.477759"
       id="path7860" />
    <path
       inkscape:connector-curvature="0"
       style="color-interpolation:linearRGB;fill:url(#gradient5)"
       d="m 31.155393,12.419401 c 4.477759,-1.67916 6.156919,0 6.156919,0.55972 0,0.559719 -8.255869,1.1978 -8.955519,-0.55972 -1.214592,-3.0336823 11.048871,-3.643777 12.873558,0 1.11944,2.238879 -10.634678,4.477759 -10.634678,6.716639 0,3.358319 7.836078,2.798599 7.836078,2.798599 0,0 -4.477759,-0.55972 -5.037479,-2.23888 C 32.487526,16.986715 45.14839,18.0166 43.469231,11.859681 42.277027,7.510657 22.759594,8.5013613 26.117913,12.979121 c 2.888155,3.850873 12.873558,2.451573 12.873558,-0.55972 0,-1.11944 -5.037479,-2.23888 -7.836078,0 z"
       id="path7867" />
    <path
       inkscape:connector-curvature="0"
       style="color-interpolation:linearRGB;fill:none;stroke:#000000;stroke-width:2.23887968;stroke-opacity:1"
       d="m 41.790071,33.129037 1.11944,1.11944 c 0.55972,0.55972 1.679159,-1.11944 -0.55972,-3.358319 l -3.35832,-3.35832 c -0.55972,-1.67916 3.35832,-1.67916 3.35832,-1.11944 l 2.238879,2.23888 c 1.11944,1.11944 1.67916,2.23888 1.67916,5.597199 0,3.35832 -2.798599,3.91804 -4.477759,2.7986 l -2.7986,-2.7986 c -0.55972,-1.67916 2.7986,-1.67916 2.7986,-1.11944 z"
       id="path7874" />
    <path
       inkscape:connector-curvature="0"
       style="color-interpolation:linearRGB;fill:none;stroke:url(#gradient7);stroke-width:2.79859948"
       d="m 40.110911,35.367917 -1.11944,-1.11944 c -0.55972,-1.67916 2.7986,-1.67916 2.7986,-1.11944"
       id="path7881" />
    <path
       inkscape:connector-curvature="0"
       style="color-interpolation:linearRGB;fill:url(#gradient8)"
       d="m 41.790071,33.129037 1.11944,1.11944 c 0.55972,0.55972 1.679159,-1.11944 -0.55972,-3.358319 l -3.35832,-3.35832 c -0.55972,-1.67916 3.35832,-1.67916 3.35832,-1.11944 l 2.238879,2.23888 c 1.11944,1.11944 1.67916,2.23888 1.67916,5.597199 0,3.35832 -2.798599,3.91804 -4.477759,2.7986 l -2.7986,-2.7986 c -0.55972,-1.67916 2.7986,-1.67916 2.7986,-1.11944 z"
       id="path7888" />
    <path
       inkscape:connector-curvature="0"
       style="color-interpolation:linearRGB;fill:none;stroke:#010101;stroke-width:1.67915976;stroke-opacity:0.40779999"
       d="m 43.469231,34.808197 -2.7986,-2.798599"
       id="path7890" />
  </g>
</svg>
