<?xml version="1.0" encoding="UTF-8" standalone="no"?>
<svg
   xmlns:dc="http://purl.org/dc/elements/1.1/"
   xmlns:cc="http://creativecommons.org/ns#"
   xmlns:rdf="http://www.w3.org/1999/02/22-rdf-syntax-ns#"
   xmlns:svg="http://www.w3.org/2000/svg"
   xmlns="http://www.w3.org/2000/svg"
   xmlns:xlink="http://www.w3.org/1999/xlink"
   xmlns:sodipodi="http://sodipodi.sourceforge.net/DTD/sodipodi-0.dtd"
   xmlns:inkscape="http://www.inkscape.org/namespaces/inkscape"
   version="1.1"
   width="64"
   height="64"
   color-interpolation="linearRGB"
   id="svg2"
   inkscape:version="0.91 r13725"
   sodipodi:docname="application-x-tarz.svg">
  <metadata
     id="metadata61">
    <rdf:RDF>
      <cc:Work
         rdf:about="">
        <dc:format>image/svg+xml</dc:format>
        <dc:type
           rdf:resource="http://purl.org/dc/dcmitype/StillImage" />
        <dc:title></dc:title>
      </cc:Work>
    </rdf:RDF>
  </metadata>
  <defs
     id="defs59">
    <linearGradient
       inkscape:collect="always"
       id="linearGradient9509">
      <stop
         style="stop-color:#cccccc;stop-opacity:1"
         offset="0"
         id="stop9511" />
      <stop
         style="stop-color:#999999;stop-opacity:1"
         offset="1"
         id="stop9513" />
    </linearGradient>
    <linearGradient
       y2="-15.63"
       x2="60.099998"
       y1="-20.99"
       x1="31.15"
       gradientUnits="userSpaceOnUse"
       id="gradient4">
      <stop
         id="stop45"
         stop-color="#91ea85"
         offset="0" />
      <stop
         id="stop47"
         stop-color="#53cd42"
         offset="1" />
    </linearGradient>
    <linearGradient
       inkscape:collect="always"
       xlink:href="#linearGradient9509"
       id="linearGradient9515"
       x1="32.983051"
       y1="50.677966"
       x2="60.983051"
       y2="50.677966"
       gradientUnits="userSpaceOnUse"
       gradientTransform="translate(0,1.0715332e-6)" />
  </defs>
  <sodipodi:namedview
     pagecolor="#ffffff"
     bordercolor="#666666"
     borderopacity="1"
     objecttolerance="10"
     gridtolerance="10"
     guidetolerance="10"
     inkscape:pageopacity="0"
     inkscape:pageshadow="2"
     inkscape:window-width="1364"
     inkscape:window-height="708"
     id="namedview57"
     showgrid="false"
     inkscape:zoom="6.5683594"
     inkscape:cx="49.990473"
     inkscape:cy="32"
     inkscape:window-x="2"
     inkscape:window-y="30"
     inkscape:window-maximized="1"
     inkscape:current-layer="svg2" />
  <g
     id="g4">
    <path
       style="fill:#000000; fill-opacity:0.3294"
       d="M61.77 38.58V38.34C61.77 38.44 61.77 38.51 61.77 38.58C61.75 39.79 61.29 42.4 59.86 43.83C55.51 48.17 48.35 55.41 42.8 60.95C41.22 62.53 38.77 63.44 36.36 63.5L42.63 63.49C44.75 63.58 46.86 62.79 48.43 61.21L60.17 49.48C64.48 45.16 64.21 39.8 61.77 38.58z"
       id="path6" />
    <path
       style="fill:#000000"
       d="M42.8 60.95C48.35 55.41 55.51 48.17 59.86 43.83C61.29 42.4 61.75 39.79 61.77 38.58C61.77 38.52 61.77 38.44 61.77 38.34C61.78 37.41 61.79 34.99 61.8 34.4C61.8 34.02 61.65 33.54 61.4 33.03C61.65 32.13 61.76 31.26 61.77 30.7C61.78 30.04 61.79 27.16 61.8 26.51C61.8 26.14 61.65 25.66 61.4 25.15C61.65 24.25 61.76 23.39 61.77 22.82C61.78 22.16 61.79 19.28 61.8 18.63C61.82 17.49 60.37 15.32 58.94 14.6C52.94 11.6 40.4 5.32 31.69 0.98C28.34 -0.69 23.88 -0.38 21.31 2.2C15.62 7.92 6.36 17.17 2.2 21.34C0.99 22.56 0.25 24.47 0.25 25.65V27.67C0.25 28.46 0.59 29.65 1.15 30.63C0.58 31.64 0.25 32.74 0.25 33.53V35.55C0.25 36.33 0.59 37.52 1.15 38.51C0.58 39.52 0.25 40.62 0.25 41.42V43.44C0.25 44.75 1.2 47.25 2.6 47.94C8.58 50.88 23.58 58.4 32.23 62.66C33.39 63.23 34.73 63.5 36.1 63.5C36.15 63.5 36.19 63.5 36.24 63.5C36.28 63.5 36.32 63.5 36.36 63.5C38.77 63.44 41.22 62.53 42.8 60.95z"
       id="path8" />
    <path
       style="fill:#ffcb98"
       d="M2.28 41.78V43.5C2.28 44.59 3.02 46.24 4.3 46.88C7.04 48.25 12.4 50.85 18.03 53.58V48.73C18.03 48.45 18.09 48.13 18.2 47.82C12.29 44.87 6.51 42 3.12 40.31C2.58 40.44 2.28 41 2.28 41.78z"
       id="path10" />
    <linearGradient
       id="gradient0"
       gradientUnits="userSpaceOnUse"
       x1="47.58"
       y1="54.92"
       x2="20.01"
       y2="54.92">
      <stop
         offset="0.298"
         stop-color="#cb9866"
         id="stop13" />
      <stop
         offset="0.498"
         stop-color="#ffcb98"
         id="stop15" />
    </linearGradient>
    <path
       style="fill:url(#gradient0)"
       d="M37.6 55.5C36.94 55.63 36.25 55.67 35.56 55.6C34.39 55.54 33.23 55.28 32.23 54.78C28.86 53.12 24.52 50.97 20.13 48.78C20.05 49.01 20 49.25 20 49.47V54.53C24.71 56.82 29.43 59.11 32.8 60.77C35.78 62.24 39.29 61.64 41.61 59.33C43.45 57.5 45.5 55.43 47.58 53.36V48.88C47.58 48.7 47.55 48.51 47.52 48.34C45.89 49.98 44.29 51.58 42.8 53.07C41.49 54.38 39.58 55.22 37.6 55.5z"
       id="path17" />
    <path
       style="fill:#cb9866"
       d="M49.51 46.34C49.53 46.45 49.55 46.55 49.55 46.66V51.39C52.51 48.42 55.37 45.57 57.44 43.5C58.69 42.25 59.9 40.27 59.9 39.18C59.9 38.41 59.93 37.06 59.93 35.88C59.91 35.9 59.89 35.93 59.86 35.95C57.15 38.66 53.34 42.5 49.51 46.34z"
       id="path19" />
    <path
       style="fill:#cb9866"
       d="M49.51 38.47C49.53 38.57 49.55 38.68 49.55 38.79V43.51C52.51 40.54 55.37 37.69 57.44 35.63C58.69 34.37 59.9 32.39 59.9 31.31C59.9 30.52 59.93 29.19 59.93 28C59.91 28.01 59.89 28.04 59.86 28.06C57.15 30.78 53.34 34.61 49.51 38.47z"
       id="path21" />
    <linearGradient
       id="gradient1"
       gradientUnits="userSpaceOnUse"
       x1="47.58"
       y1="47.04"
       x2="20.01"
       y2="47.04">
      <stop
         offset="0.298"
         stop-color="#cb9866"
         id="stop24" />
      <stop
         offset="0.498"
         stop-color="#ffcb98"
         id="stop26" />
    </linearGradient>
    <path
       style="fill:url(#gradient1)"
       d="M37.6 47.63C36.94 47.75 36.25 47.79 35.56 47.73C34.39 47.67 33.23 47.4 32.23 46.91C28.86 45.24 24.52 43.08 20.13 40.9C20.05 41.13 20 41.37 20 41.58V46.66C24.71 48.95 29.43 51.23 32.8 52.89C35.78 54.37 39.29 53.77 41.61 51.45C43.45 49.61 45.5 47.55 47.58 45.48V41C47.58 40.82 47.55 40.63 47.52 40.46C45.89 42.09 44.29 43.7 42.8 45.19C41.49 46.5 39.58 47.34 37.6 47.63z"
       id="path28" />
    <path
       style="fill:#ffcb98"
       d="M2.28 33.91V35.63C2.28 36.71 3.02 38.37 4.3 39C7.04 40.38 12.4 42.98 18.03 45.7V40.85C18.03 40.56 18.09 40.25 18.2 39.94C12.29 36.99 6.51 34.11 3.12 32.44C2.58 32.55 2.28 33.12 2.28 33.91z"
       id="path30" />
    <path
       style="fill:#ffe2c6"
       d="M29.36 18.4C29.36 16.92 27.1 15.93 24.93 15.93C24.22 15.93 23.46 16.07 22.74 16.31C24.59 17.24 26.62 18.25 28.72 19.3C29.11 19.09 29.36 18.8 29.36 18.4z"
       id="path32" />
    <path
       style="fill:#ffe2c6"
       d="M20 18.39C20 19.48 21.77 19.87 23.95 19.87C22.61 19.2 21.33 18.56 20.13 17.97C20.05 18.11 20 18.25 20 18.39z"
       id="path34" />
    <path
       style="fill:#ffe2c6"
       d="M24.93 13.97C26.8 13.97 28.63 14.61 29.86 15.72V10.07L31.82 10.09V17.9C33.89 15.85 40.28 9.59 41.71 8.06C37.86 6.14 34.04 4.23 30.99 2.7C27.93 1.17 24.33 1.76 21.99 4.12C19.81 6.31 16.98 9.16 14.13 12.01C14.48 12.18 17.06 13.48 20.71 15.3C21.96 14.5 23.48 13.97 24.93 13.97z"
       id="path36" />
    <path
       style="fill:#ffe2c6"
       d="M57.39 15.91C54.36 14.4 49.09 11.76 43.64 9.03L34.54 18.13C35.52 17.99 36.59 17.9 37.73 17.9C42.08 17.9 44.62 19.09 44.62 20.86C44.62 22.18 43.19 24.29 40.63 25.26C43.93 26.91 46.67 28.28 48.21 29.04C48.69 29.29 49.05 29.62 49.28 30C52.26 27 55.43 23.85 57.31 21.97C59.73 19.54 59.83 17.13 57.39 15.91z"
       id="path38" />
    <path
       style="fill:#ffe2c6"
       d="M27.6 21.7C26.43 21.84 25.13 21.84 23.95 21.84C20.68 21.84 18.03 21.06 18.03 18.89C18.03 18.35 18.26 17.78 18.64 17.22C15.06 15.44 12.52 14.16 12.17 13.99C8.94 17.24 5.89 20.3 4.05 22.14C2.95 23.26 2.28 24.82 2.28 25.91V26.02C2.28 24.83 2.97 24.15 4.15 24.74C7.26 26.3 12.73 29.03 18.3 31.82C18.48 31.4 18.74 30.98 19.09 30.63C20.76 28.97 24.19 25.53 27.89 21.84C27.79 21.79 27.69 21.75 27.6 21.7z"
       id="path40" />
    <path
       style="fill:#ffe2c6"
       d="M42.66 21.35C42.66 20.47 41 19.87 37.73 19.87C34.99 19.87 32.68 20.3 32.02 20.96C33.96 21.93 35.9 22.89 37.73 23.81C41 23.81 42.66 22.23 42.66 21.35z"
       id="path42" />
    <path
       style="fill:#ffe2c6"
       d="M46.51 31.16L34.82 25.32C33.83 25 32.94 24.52 32.18 24C31.85 23.83 31.51 23.66 31.18 23.5C31.47 24.67 31.82 26.74 31.82 29.72H29.86C29.86 26.38 29.54 24.46 29.27 23.42C25.61 27.07 22.3 30.39 20.82 31.86C20.55 32.13 20.35 32.45 20.21 32.77C25.01 35.18 29.71 37.52 32.81 39.07C35.79 40.56 39.33 39.95 41.67 37.59C41.67 37.59 44.19 35.08 47.31 31.97C47.12 31.62 46.86 31.33 46.51 31.16z"
       id="path44" />
    <path
       style="fill:#ffcb98"
       d="M2.28 26.02V27.75C2.28 28.84 3.02 30.49 4.3 31.12C7.04 32.5 12.4 35.09 18.03 37.83V32.98C18.03 32.61 18.12 32.21 18.3 31.82C12.73 29.03 7.26 26.3 4.15 24.74C2.97 24.15 2.28 24.83 2.28 26.02z"
       id="path46" />
    <path
       style="fill:#cb9866"
       d="M59.92 19.2C59.89 17.86 58.89 16.42 57.39 15.91C59.83 17.12 59.73 19.54 57.31 21.97C55.43 23.85 52.26 27 49.28 30C49.46 30.29 49.55 30.6 49.55 30.91V35.63C52.51 32.66 55.37 29.82 57.44 27.75C58.69 26.49 59.9 24.51 59.9 23.43C59.9 22.45 59.96 20.55 59.92 19.2z"
       id="path48" />
    <linearGradient
       id="gradient2"
       gradientUnits="userSpaceOnUse"
       x1="47.58"
       y1="38.85"
       x2="20.01"
       y2="38.85">
      <stop
         offset="0.298"
         stop-color="#cb9866"
         id="stop51" />
      <stop
         offset="0.498"
         stop-color="#ffcb98"
         id="stop53" />
    </linearGradient>
    <path
       style="fill:url(#gradient2)"
       d="M41.67 37.59C39.33 39.95 35.79 40.56 32.81 39.07C29.71 37.52 25.01 35.18 20.21 32.77C20.07 33.08 20 33.41 20 33.71V38.78C24.71 41.06 29.43 43.35 32.8 45.01C35.78 46.49 39.29 45.89 41.61 43.56C43.45 41.73 45.5 39.67 47.58 37.6V33.12C47.58 32.71 47.49 32.31 47.31 31.97C44.19 35.08 41.67 37.59 41.67 37.59z"
       id="path55" />
  </g>
  <path
     id="path42-7"
     d="m 32.983051,56.677966 0,-14 c 0,0 6,2 11,2 4,0 12,-2 17,-2 l 0,14 c -5,0 -13,2 -17,2 -5,0 -11,-2 -11,-2 z"
     style="fill:none;stroke:#010000;stroke-width:4;stroke-linejoin:round"
     inkscape:connector-curvature="0" />
  <path
     id="path49"
     d="m 32.983051,56.677967 0,-14 c 0,0 6,2 11,2 4,0 12,-2 17,-2 l 0,14 c -5,0 -13,2 -17,2 -5,0 -11,-2 -11,-2 z"
     style="fill:url(#linearGradient9515);fill-opacity:1"
     inkscape:connector-curvature="0" />
  <g
     style="font-style:normal;font-variant:normal;font-weight:bold;font-stretch:normal;font-size:9.51441765px;line-height:125%;font-family:'DejaVu Sans';-inkscape-font-specification:'DejaVu Sans Bold';letter-spacing:0px;word-spacing:0px;fill:#000000;fill-opacity:1;stroke:none;stroke-width:1px;stroke-linecap:butt;stroke-linejoin:miter;stroke-opacity:1"
     id="text6760">
    <path
       d="m 33.559267,47.209945 6.392499,0 0,1.351902 -2.299627,0 0,5.584145 -1.788599,0 0,-5.584145 -2.304273,0 0,-1.351902 z"
       style=""
       id="path9597" />
    <path
       d="m 44.337318,52.882359 -2.796718,0 -0.441343,1.263633 -1.79789,0 2.569078,-6.936047 2.132382,0 2.569079,6.936047 -1.797891,0 -0.436697,-1.263633 z m -2.35073,-1.286862 1.900096,0 -0.947725,-2.759553 -0.952371,2.759553 z"
       style=""
       id="path9599" />
    <path
       d="m 50.028315,50.285406 q 0.562131,0 0.803708,-0.209057 0.246223,-0.209057 0.246223,-0.687566 0,-0.473862 -0.246223,-0.678273 -0.241577,-0.204412 -0.803708,-0.204412 l -0.752605,0 0,1.779308 0.752605,0 z m -0.752605,1.235759 0,2.624827 -1.788599,0 0,-6.936047 2.731678,0 q 1.370485,0 2.006948,0.459925 0.641108,0.459926 0.641108,1.454108 0,0.687565 -0.334491,1.128908 -0.329846,0.441342 -0.998828,0.650399 0.367011,0.08362 0.655045,0.380949 0.29268,0.29268 0.590006,0.891977 l 0.970953,1.969781 -1.904741,0 -0.84552,-1.723559 q -0.255514,-0.520319 -0.52032,-0.710794 -0.26016,-0.190474 -0.696857,-0.190474 l -0.506382,0 z"
       style=""
       id="path9601" />
    <path
       d="m 54.469617,47.209945 5.830368,0 0,1.08245 -3.721215,4.501695 3.828066,0 0,1.351902 -6.044071,0 0,-1.082451 3.721216,-4.501694 -3.614364,0 0,-1.351902 z"
       style=""
       id="path9603" />
  </g>
</svg>
