<?xml version="1.0" encoding="UTF-8" standalone="no"?>
<svg
   xmlns:dc="http://purl.org/dc/elements/1.1/"
   xmlns:cc="http://creativecommons.org/ns#"
   xmlns:rdf="http://www.w3.org/1999/02/22-rdf-syntax-ns#"
   xmlns:svg="http://www.w3.org/2000/svg"
   xmlns="http://www.w3.org/2000/svg"
   xmlns:xlink="http://www.w3.org/1999/xlink"
   xmlns:sodipodi="http://sodipodi.sourceforge.net/DTD/sodipodi-0.dtd"
   xmlns:inkscape="http://www.inkscape.org/namespaces/inkscape"
   width="48"
   height="48"
   overflow="visible"
   enable-background="new 0 0 128 129.396"
   xml:space="preserve"
   id="svg2"
   sodipodi:version="0.32"
   inkscape:version="0.47 r22583"
   sodipodi:docname="applications-accessories.svg"
   version="1.0"
   inkscape:export-filename="/home/tigert/My Downloads/go-home.png"
   inkscape:export-xdpi="90.000000"
   inkscape:export-ydpi="90.000000"
   inkscape:output_extension="org.inkscape.output.svg.inkscape"><metadata
   id="metadata367"><rdf:RDF><cc:Work
       rdf:about=""><dc:format>image/svg+xml</dc:format><dc:type
         rdf:resource="http://purl.org/dc/dcmitype/StillImage" /><cc:license
         rdf:resource="http://creativecommons.org/licenses/publicdomain/" /><dc:title>Go Home</dc:title><dc:creator><cc:Agent><dc:title>jakub Steiner</dc:title></cc:Agent></dc:creator><dc:source>http://jimmac.musichall.cz</dc:source><dc:subject><rdf:Bag><rdf:li>home</rdf:li><rdf:li>return</rdf:li><rdf:li>go</rdf:li><rdf:li>default</rdf:li><rdf:li>user</rdf:li><rdf:li>directory</rdf:li></rdf:Bag></dc:subject></cc:Work><cc:License
       rdf:about="http://creativecommons.org/licenses/publicdomain/"><cc:permits
         rdf:resource="http://creativecommons.org/ns#Reproduction" /><cc:permits
         rdf:resource="http://creativecommons.org/ns#Distribution" /><cc:permits
         rdf:resource="http://creativecommons.org/ns#DerivativeWorks" /></cc:License></rdf:RDF></metadata><defs
   id="defs365"><inkscape:perspective
     sodipodi:type="inkscape:persp3d"
     inkscape:vp_x="0 : 24 : 1"
     inkscape:vp_y="0 : 1000 : 0"
     inkscape:vp_z="48 : 24 : 1"
     inkscape:persp3d-origin="24 : 16 : 1"
     id="perspective90" /><linearGradient
     inkscape:collect="always"
     id="linearGradient3099"><stop
       style="stop-color:#ffffff;stop-opacity:1;"
       offset="0"
       id="stop3101" /><stop
       style="stop-color:#ffffff;stop-opacity:0;"
       offset="1"
       id="stop3103" /></linearGradient><linearGradient
     inkscape:collect="always"
     id="linearGradient3078"><stop
       style="stop-color:#c4a000"
       offset="0"
       id="stop3080" /><stop
       style="stop-color:#fce94f"
       offset="1"
       id="stop3082" /></linearGradient><linearGradient
     y2="27.836672"
     x2="74.587158"
     y1="21.424805"
     x1="68.175293"
     gradientUnits="userSpaceOnUse"
     id="XMLID_45_"><stop
       id="stop695"
       style="stop-color:#BABDB6"
       offset="0" /><stop
       id="stop697"
       style="stop-color:#EEEEEC"
       offset="1" /></linearGradient><radialGradient
     gradientUnits="userSpaceOnUse"
     gradientTransform="matrix(1.000000,0.000000,0.000000,1.010300,1.007969e-18,-0.159801)"
     r="7.2848282"
     cy="23.333008"
     cx="165.06104"
     id="XMLID_52_"><stop
       id="stop812"
       style="stop-color:#EF3535"
       offset="0" /><stop
       offset="0"
       style="stop-color:#c91a1a;stop-opacity:1;"
       id="stop2239" /><stop
       id="stop814"
       style="stop-color:#ff4c4c;stop-opacity:1;"
       offset="1" /></radialGradient><linearGradient
     gradientTransform="matrix(2.051000,0.000000,0.167200,-0.989000,-799.2049,221.0724)"
     y2="-79.574341"
     x2="1420.6542"
     y1="-50.919434"
     x1="1420.5474"
     gradientUnits="userSpaceOnUse"
     id="path3311_1_"><stop
       id="stop4970"
       style="stop-color:#C4A000"
       offset="0" /><stop
       id="stop4972"
       style="stop-color:#957A00"
       offset="1" /></linearGradient><linearGradient
     gradientTransform="matrix(1.213800,0.000000,0.282500,-1.671200,46.72625,447.9442)"
     y2="175.78883"
     x2="1679.5989"
     y1="185.30176"
     x1="1668.7646"
     gradientUnits="userSpaceOnUse"
     id="path3230_2_"><stop
       id="stop4977"
       style="stop-color:#FFFFFF"
       offset="0" /><stop
       id="stop4979"
       style="stop-color:#CFCFCF"
       offset="1" /></linearGradient><linearGradient
     y2="10.711433"
     x2="296.93979"
     y1="4.7592773"
     x1="292.97168"
     gradientUnits="userSpaceOnUse"
     id="XMLID_897_"><stop
       id="stop45093"
       style="stop-color:#EEEEEC"
       offset="0" /><stop
       id="stop45095"
       style="stop-color:#ffffff;stop-opacity:1;"
       offset="1" /></linearGradient><radialGradient
     id="radialGradient16850"
     cx="165.06104"
     cy="23.333008"
     r="7.2848282"
     gradientTransform="matrix(1.000000,0.000000,0.000000,1.010300,1.007969e-18,-0.159801)"
     gradientUnits="userSpaceOnUse"><stop
       offset="0"
       style="stop-color:#EF3535"
       id="stop16852" /><stop
       offset="1"
       style="stop-color:#a40000;stop-opacity:0"
       id="stop16854" /></radialGradient><linearGradient
     id="linearGradient2229"><stop
       id="stop2231"
       offset="0"
       style="stop-color:#e2e2e2;stop-opacity:1;" /><stop
       id="stop2233"
       offset="1"
       style="stop-color:#d8d8d8;stop-opacity:1;" /></linearGradient><linearGradient
     id="linearGradient2251"
     inkscape:collect="always"><stop
       id="stop2253"
       offset="0"
       style="stop-color:#df2a2a;stop-opacity:1;" /><stop
       id="stop2255"
       offset="1"
       style="stop-color:#df2a2a;stop-opacity:0;" /></linearGradient><linearGradient
     id="linearGradient2259"
     inkscape:collect="always"><stop
       id="stop2261"
       offset="0"
       style="stop-color:#9a0c00;stop-opacity:1;" /><stop
       id="stop2263"
       offset="1"
       style="stop-color:#9a0c00;stop-opacity:0;" /></linearGradient><linearGradient
     id="linearGradient2269"
     inkscape:collect="always"><stop
       id="stop2271"
       offset="0"
       style="stop-color:#000000;stop-opacity:1;" /><stop
       id="stop2273"
       offset="1"
       style="stop-color:#000000;stop-opacity:0;" /></linearGradient><linearGradient
     inkscape:collect="always"
     xlink:href="#path3230_2_"
     id="linearGradient1890"
     gradientUnits="userSpaceOnUse"
     gradientTransform="matrix(1.213781,0,0.282495,-1.671173,-1834.231,751.0328)"
     x1="1668.7646"
     y1="185.30176"
     x2="1679.5989"
     y2="175.78883" /><linearGradient
     inkscape:collect="always"
     xlink:href="#path3230_2_"
     id="linearGradient1893"
     gradientUnits="userSpaceOnUse"
     gradientTransform="matrix(1.213781,0,0.282495,-1.671173,-1774.231,387.0328)"
     x1="1668.7646"
     y1="185.30176"
     x2="1679.5989"
     y2="175.78883" /><linearGradient
     inkscape:collect="always"
     xlink:href="#path3311_1_"
     id="linearGradient1896"
     gradientUnits="userSpaceOnUse"
     gradientTransform="matrix(2.050967,0,0.167197,-0.988984,-2791.942,99.82423)"
     x1="1420.5474"
     y1="-50.919434"
     x2="1420.6542"
     y2="-79.574341" /><linearGradient
     inkscape:collect="always"
     xlink:href="#XMLID_897_"
     id="linearGradient2975"
     gradientUnits="userSpaceOnUse"
     gradientTransform="matrix(-4.127761,0,0,4.136601,2003.489,504.25)"
     x1="292.97168"
     y1="4.7592773"
     x2="296.93979"
     y2="10.711433" /><linearGradient
     inkscape:collect="always"
     xlink:href="#linearGradient2229"
     id="linearGradient2977"
     gradientUnits="userSpaceOnUse"
     gradientTransform="translate(759.0237,516.155)"
     x1="20.288025"
     y1="6.4603648"
     x2="24.32597"
     y2="23.942537" /><linearGradient
     inkscape:collect="always"
     xlink:href="#XMLID_52_"
     id="linearGradient2979"
     gradientUnits="userSpaceOnUse"
     x1="294.59497"
     y1="12.187603"
     x2="297.18515"
     y2="13.3396" /><linearGradient
     inkscape:collect="always"
     xlink:href="#XMLID_52_"
     id="linearGradient2981"
     gradientUnits="userSpaceOnUse"
     gradientTransform="matrix(3.637893,0,0,3.470375,-297.0923,500.1478)"
     x1="296.48611"
     y1="15.506916"
     x2="296.52905"
     y2="9.8769522" /><linearGradient
     inkscape:collect="always"
     xlink:href="#XMLID_897_"
     id="linearGradient2983"
     gradientUnits="userSpaceOnUse"
     gradientTransform="matrix(4.053427,0,0,4.136601,-416.5113,504.25)"
     x1="292.97168"
     y1="4.7592773"
     x2="296.93979"
     y2="10.711433" /><linearGradient
     inkscape:collect="always"
     xlink:href="#linearGradient2229"
     id="linearGradient2985"
     gradientUnits="userSpaceOnUse"
     gradientTransform="translate(759.0237,516.155)"
     x1="20.288025"
     y1="6.4603648"
     x2="24.32597"
     y2="23.942537" /><linearGradient
     inkscape:collect="always"
     xlink:href="#XMLID_45_"
     id="linearGradient2987"
     gradientUnits="userSpaceOnUse"
     x1="22.225399"
     y1="23.843431"
     x2="24.190449"
     y2="22.860907" /><linearGradient
     inkscape:collect="always"
     xlink:href="#XMLID_52_"
     id="linearGradient2989"
     gradientUnits="userSpaceOnUse"
     gradientTransform="matrix(1.161878,0,0,0.992497,756.5929,516.4208)"
     x1="7.184845"
     y1="31.056622"
     x2="25.152235"
     y2="50.774887" /><linearGradient
     inkscape:collect="always"
     xlink:href="#XMLID_52_"
     id="linearGradient2991"
     gradientUnits="userSpaceOnUse"
     gradientTransform="matrix(1.161878,0,0,0.992497,756.3567,516.219)"
     x1="13.82536"
     y1="40.068752"
     x2="7.6700611"
     y2="2.3262277" /><radialGradient
     inkscape:collect="always"
     xlink:href="#XMLID_52_"
     id="radialGradient2993"
     gradientUnits="userSpaceOnUse"
     gradientTransform="matrix(1,0,0,1.060381,759.0237,513.8555)"
     cx="34.376091"
     cy="37.50008"
     fx="34.376091"
     fy="37.50008"
     r="8.3887873" /><linearGradient
     inkscape:collect="always"
     xlink:href="#linearGradient2251"
     id="linearGradient2995"
     gradientUnits="userSpaceOnUse"
     x1="298.47852"
     y1="13.599585"
     x2="298.86948"
     y2="13.802949" /><linearGradient
     inkscape:collect="always"
     xlink:href="#linearGradient2259"
     id="linearGradient2997"
     gradientUnits="userSpaceOnUse"
     x1="298.47852"
     y1="13.599585"
     x2="298.86948"
     y2="13.802949" /><linearGradient
     inkscape:collect="always"
     xlink:href="#XMLID_52_"
     id="linearGradient2999"
     gradientUnits="userSpaceOnUse"
     gradientTransform="matrix(3.624438,0,0,3.624438,-294.1553,499.3078)"
     x1="296.76199"
     y1="12.012225"
     x2="297.79822"
     y2="10.946587" /><linearGradient
     inkscape:collect="always"
     xlink:href="#radialGradient16850"
     id="linearGradient3001"
     gradientUnits="userSpaceOnUse"
     gradientTransform="matrix(1.161878,0,0,0.992497,753.9116,516.219)"
     x1="39.619942"
     y1="44.540932"
     x2="-3.532515"
     y2="-11.889042" /><radialGradient
     inkscape:collect="always"
     xlink:href="#linearGradient2269"
     id="radialGradient3003"
     gradientUnits="userSpaceOnUse"
     gradientTransform="matrix(1,0,0,0.32526,0,28.08607)"
     cx="25.1875"
     cy="41.625"
     fx="25.1875"
     fy="41.625"
     r="18.0625" /><linearGradient
     inkscape:collect="always"
     xlink:href="#linearGradient3078"
     id="linearGradient3084"
     x1="42.426411"
     y1="58.076275"
     x2="32.350136"
     y2="16.35697"
     gradientUnits="userSpaceOnUse" /><linearGradient
     inkscape:collect="always"
     xlink:href="#linearGradient3099"
     id="linearGradient3105"
     x1="28.835155"
     y1="11.913623"
     x2="52.131729"
     y2="70.073158"
     gradientUnits="userSpaceOnUse" /><radialGradient
     inkscape:collect="always"
     xlink:href="#linearGradient2269"
     id="radialGradient3253"
     gradientUnits="userSpaceOnUse"
     gradientTransform="matrix(1,0,0,0.32526,2.34556e-13,28.08607)"
     cx="25.1875"
     cy="41.625"
     fx="25.1875"
     fy="41.625"
     r="18.0625" /><linearGradient
     inkscape:collect="always"
     xlink:href="#radialGradient16850"
     id="linearGradient5055"
     gradientUnits="userSpaceOnUse"
     gradientTransform="matrix(0.96194784,0,0,0.82171308,-4.6813386,2.3126156)"
     x1="39.619942"
     y1="44.540932"
     x2="-3.532515"
     y2="-11.889042" /><linearGradient
     inkscape:collect="always"
     xlink:href="#XMLID_52_"
     id="linearGradient5058"
     gradientUnits="userSpaceOnUse"
     gradientTransform="matrix(3.0007628,0,0,3.0007628,-872.40213,-11.68859)"
     x1="296.76199"
     y1="12.012225"
     x2="297.79822"
     y2="10.946587" /><radialGradient
     inkscape:collect="always"
     xlink:href="#XMLID_52_"
     id="radialGradient5062"
     gradientUnits="userSpaceOnUse"
     gradientTransform="matrix(0.827925,0,0,0.87791594,-0.44890318,0.35581484)"
     cx="34.376091"
     cy="37.50008"
     fx="34.376091"
     fy="37.50008"
     r="8.3887873" /><linearGradient
     inkscape:collect="always"
     xlink:href="#XMLID_52_"
     id="linearGradient5065"
     gradientUnits="userSpaceOnUse"
     gradientTransform="matrix(0.96194784,0,0,0.82171308,-2.6569792,2.3126156)"
     x1="13.82536"
     y1="40.068752"
     x2="7.6700611"
     y2="2.3262277" /><linearGradient
     inkscape:collect="always"
     xlink:href="#XMLID_52_"
     id="linearGradient5068"
     gradientUnits="userSpaceOnUse"
     gradientTransform="matrix(0.96194784,0,0,0.82171308,-2.4614233,2.4796908)"
     x1="7.184845"
     y1="31.056622"
     x2="25.152235"
     y2="50.774887" /><linearGradient
     inkscape:collect="always"
     xlink:href="#linearGradient2229"
     id="linearGradient5072"
     gradientUnits="userSpaceOnUse"
     gradientTransform="matrix(0.827925,0,0,0.827925,-0.44890318,2.2596284)"
     x1="20.288025"
     y1="6.4603648"
     x2="24.32597"
     y2="23.942537" /><linearGradient
     inkscape:collect="always"
     xlink:href="#XMLID_897_"
     id="linearGradient5075"
     gradientUnits="userSpaceOnUse"
     gradientTransform="matrix(3.3559335,0,0,3.4247954,-973.70372,-7.5968187)"
     x1="292.97168"
     y1="4.7592773"
     x2="296.93979"
     y2="10.711433" /><linearGradient
     inkscape:collect="always"
     xlink:href="#XMLID_52_"
     id="linearGradient5078"
     gradientUnits="userSpaceOnUse"
     gradientTransform="matrix(3.0119026,0,0,2.8732102,-874.83374,-10.993133)"
     x1="296.48611"
     y1="15.506916"
     x2="296.52905"
     y2="9.8769522" /><linearGradient
     inkscape:collect="always"
     xlink:href="#linearGradient2229"
     id="linearGradient5082"
     gradientUnits="userSpaceOnUse"
     gradientTransform="matrix(0.827925,0,0,0.827925,-0.44890318,2.2596284)"
     x1="20.288025"
     y1="6.4603648"
     x2="24.32597"
     y2="23.942537" /><linearGradient
     inkscape:collect="always"
     xlink:href="#XMLID_897_"
     id="linearGradient5085"
     gradientUnits="userSpaceOnUse"
     gradientTransform="matrix(-3.4174765,0,0,3.4247954,1029.875,-7.5968187)"
     x1="292.97168"
     y1="4.7592773"
     x2="296.93979"
     y2="10.711433" /><linearGradient
     inkscape:collect="always"
     xlink:href="#linearGradient2269"
     id="linearGradient5087"
     gradientUnits="userSpaceOnUse"
     x1="298.47852"
     y1="13.599585"
     x2="298.86948"
     y2="13.802949" /></defs><sodipodi:namedview
   inkscape:cy="22.947494"
   inkscape:cx="24.499977"
   inkscape:zoom="9.2493454"
   inkscape:window-height="671"
   inkscape:window-width="1098"
   inkscape:pageshadow="2"
   inkscape:pageopacity="0.0"
   borderopacity="0.21568627"
   bordercolor="#666666"
   pagecolor="#ffffff"
   id="base"
   inkscape:showpageshadow="false"
   inkscape:window-x="253"
   inkscape:window-y="30"
   inkscape:current-layer="svg2"
   fill="#2e3436"
   showgrid="true"
   stroke="#c4a000"
   showguides="true"
   inkscape:guide-bbox="true"
   inkscape:window-maximized="0"><inkscape:grid
     id="GridFromPre046Settings"
     type="xygrid"
     originx="0px"
     originy="0px"
     spacingx="1px"
     spacingy="1px"
     color="#3f3fff"
     empcolor="#3f3fff"
     opacity="0.03921569"
     empopacity="0.10196078"
     empspacing="5"
     visible="true"
     enabled="true" /></sodipodi:namedview>
	
<path
   transform="matrix(0.968858,0,0,0.465206,6.096886,24.90272)"
   d="M 43.25 41.625 A 18.0625 5.875 0 1 1  7.125,41.625 A 18.0625 5.875 0 1 1  43.25 41.625 z"
   sodipodi:ry="5.875"
   sodipodi:rx="18.0625"
   sodipodi:cy="41.625"
   sodipodi:cx="25.1875"
   id="path3251"
   style="opacity:0.26704544;color:#000000;fill:url(#radialGradient3253);fill-opacity:1;fill-rule:evenodd;stroke:none;stroke-width:1;stroke-linecap:butt;stroke-linejoin:miter;marker:none;marker-start:none;marker-mid:none;marker-end:none;stroke-miterlimit:4;stroke-dasharray:none;stroke-dashoffset:0;stroke-opacity:1;visibility:visible;display:inline;overflow:visible"
   sodipodi:type="arc"
   inkscape:r_cx="true"
   inkscape:r_cy="true" /><path
   style="fill:url(#linearGradient3084);fill-opacity:1;fill-rule:evenodd;stroke:#000000;stroke-width:1.02738463999999996px;stroke-linecap:butt;stroke-linejoin:miter;stroke-opacity:1"
   d="M 44.46875 3.6875 L 16.4375 44.46875 L 44.46875 44.46875 L 44.46875 3.6875 z M 38.53125 23.5 L 38.53125 37.5 L 29.5 37.5 L 38.53125 23.5 z "
   id="path1465" /><path
   style="fill:none;fill-opacity:0.75;fill-rule:evenodd;stroke:url(#linearGradient3105);stroke-width:1px;stroke-linecap:butt;stroke-linejoin:miter;stroke-opacity:1;opacity:0.63874346"
   d="M 43.5,43.5 L 43.5,6.8437499 L 18.375,43.4375 L 43.5,43.5 z "
   id="path3006"
   inkscape:r_cx="true"
   inkscape:r_cy="true"
   sodipodi:nodetypes="cccc" /><path
   inkscape:r_cy="true"
   inkscape:r_cx="true"
   style="fill:url(#linearGradient5085);stroke:#000000;stroke-width:0.99999952000000003;stroke-linecap:round;stroke-linejoin:round;stroke-miterlimit:4;stroke-opacity:1;stroke-dasharray:none"
   d="m 27.844862,3.6050065 c 0.175479,0.056713 0.34546,0.1197676 0.516609,0.1800737 0.539327,1.8189512 3.039718,3.6583687 2.088905,5.4697941 -3.167509,5.2824847 -6.312374,10.6350607 -9.45622,15.9591987 -0.617425,0.121622 -1.240257,0.187864 -1.864297,0.202585 -1.313412,0.03328 -2.661721,-0.161024 -3.90827,-0.607755 4.181742,-7.079811 8.365247,-14.175244 12.623273,-21.2038965 z"
   id="path16717" /><path
   inkscape:r_cy="true"
   inkscape:r_cx="true"
   style="fill:url(#linearGradient5082);fill-opacity:1;stroke:none"
   d="m 27.939668,5.7783096 c -0.19135,0.2545456 -0.372243,0.721073 -0.567981,0.9572883 -3.350489,5.5907541 -6.757532,11.1720861 -10.120398,16.7396091 -0.05017,0.209564 -0.673873,0.8381 -0.01002,0.7807 0.920288,0.163829 1.880839,0.290278 2.798246,0.04719 3.112161,-5.147383 6.16463,-10.334507 9.269688,-15.4837039 0.28354,-0.3206388 0.338712,-0.7660459 0.0409,-1.0862211 C 28.911296,7.0570812 28.466758,6.3466305 28.017121,5.7006585 l -0.05845,0.058534 -0.01904,0.019042 z"
   id="path16719" /><polygon
   inkscape:r_cy="true"
   inkscape:r_cx="true"
   style="fill:url(#linearGradient2979);fill-opacity:1;stroke:#000000;stroke-width:0.33993483000000002;stroke-linecap:round;stroke-linejoin:round;stroke-miterlimit:4;stroke-opacity:1;stroke-dasharray:none"
   id="polygon45129"
   points="295.13281,14.71875 294.73242,13.672852 295.74658,11.960449 297.04443,12.300293 297.04443,12.300293 296.39941,13.384766 "
   transform="matrix(3.0119026,0,0,2.8732102,-874.83374,-10.993133)" /><path
   inkscape:r_cy="true"
   inkscape:r_cx="true"
   style="fill:url(#linearGradient5078);fill-opacity:1;stroke:none"
   d="m 16.445941,24.587731 c -1.012014,0.402967 -1.005117,1.684976 -1.593739,2.453978 -0.283415,0.592628 -0.781387,1.114577 -0.993526,1.737392 -0.0083,0.426704 0.370869,1.12616 0.853797,0.750307 1.14666,-0.949075 2.123106,-2.101837 2.851556,-3.416739 0.192385,-0.405708 0.65883,-0.740297 0.718871,-1.162721 -0.445896,-0.472588 -1.252502,-0.441301 -1.836959,-0.362217 z"
   id="polygon16896" /><path
   inkscape:r_cy="true"
   inkscape:r_cx="true"
   style="fill:url(#linearGradient5075);stroke:#000000;stroke-width:0.99999952000000003;stroke-linecap:round;stroke-linejoin:round;stroke-miterlimit:4;stroke-opacity:1;stroke-dasharray:none"
   d="M 10.281088,3.6050065 C 10.108772,3.6617194 9.9418453,3.7247741 9.7737766,3.7850802 9.2441695,5.6040314 6.7888089,7.4434489 7.722493,9.2548743 c 3.110473,5.2824847 6.198699,10.6350607 9.285932,15.9591987 0.606306,0.121622 1.217919,0.187864 1.830716,0.202585 1.289767,0.03328 2.613793,-0.161024 3.837896,-0.607755 C 18.570596,17.729092 14.462432,10.633659 10.281088,3.6050065 z"
   id="polygon45097" /><path
   inkscape:r_cy="true"
   inkscape:r_cx="true"
   style="fill:url(#linearGradient5072);fill-opacity:1;stroke:none"
   d="M 10.08203,5.7783096 C 9.7649012,6.7111162 8.8818199,7.3976978 8.6622873,8.3914479 11.732672,13.685291 14.847674,18.96333 17.91593,24.251386 c 0.992153,0.213853 2.010567,0.07716 2.991583,-0.129363 -0.156287,-0.613029 -0.611174,-1.10191 -0.852746,-1.680315 C 16.83033,17.001802 13.57733,11.567882 10.386259,6.1146542 10.374088,5.9891324 10.206839,5.7138308 10.08203,5.7783096 z"
   id="path16635" /><path
   inkscape:r_cy="true"
   inkscape:r_cx="true"
   sodipodi:type="arc"
   style="color:#000000;fill:url(#linearGradient2987);fill-opacity:1;fill-rule:nonzero;stroke:none;stroke-width:1.25;marker:none;visibility:visible;display:inline;overflow:visible"
   id="path16731"
   sodipodi:cx="23.207924"
   sodipodi:cy="23.843431"
   sodipodi:rx="0.98252523"
   sodipodi:ry="0.98252523"
   d="m 24.190449,23.843431 a 0.98252523,0.98252523 0 1 1 -1.96505,0 0.98252523,0.98252523 0 1 1 1.96505,0 z"
   transform="matrix(0.81127791,0,0,0.827925,-0.19108733,2.4036873)" /><path
   inkscape:r_cy="true"
   inkscape:r_cx="true"
   id="path45138"
   style="fill:url(#linearGradient5068);fill-opacity:1;stroke:#000000;stroke-width:0.82792502999999984;stroke-opacity:1"
   d="m 14.205692,27.334935 c 2.678346,1.429537 2.894294,5.475002 0.478499,9.036271 -2.415769,3.563356 -6.5443244,5.29473 -9.2238788,3.871485 C 2.7807329,38.813155 2.5660271,34.769784 4.9818212,31.208523 7.3963568,27.647261 11.526138,25.91588 14.205692,27.334935 z m -1.5359,2.270294 c -1.189339,-0.632228 -3.7318388,0.44751 -5.3536446,2.84312 -1.6251422,2.395601 -1.5092244,4.895942 -0.3210113,5.526267 1.1881965,0.636036 3.7329399,-0.44751 5.3547459,-2.84312 1.62626,-2.395601 1.509216,-4.894038 0.31991,-5.526267 z" /><path
   inkscape:r_cy="true"
   inkscape:r_cx="true"
   style="fill:url(#linearGradient5065);fill-opacity:1;stroke:none"
   d="m 11.411536,27.580299 c -1.5938628,0.320589 -3.0090599,1.203819 -4.1784626,2.05428 -0.6224008,0.575325 -1.0295744,1.200425 -1.5860145,1.866317 -1.4143608,1.947329 -2.0070806,4.506752 -0.8882228,6.681082 0.5128582,1.203058 2.1878995,1.695126 3.6165503,1.390193 1.2020809,-0.205706 2.2199316,-0.961278 3.1563896,-1.489354 0.762444,-0.654706 1.286612,-1.346628 1.931466,-2.145385 1.498015,-2.048618 2.311492,-4.759468 1.074622,-7.04753 -0.599169,-0.945598 -1.850114,-1.446211 -3.126328,-1.309603 z m 0.390789,0.796033 c 1.669519,0.207271 2.779328,1.683014 2.585237,3.081421 0.01722,1.893415 -0.948818,3.679382 -2.254563,5.161392 -1.173344,1.160734 -2.7724067,2.258803 -4.6895001,2.182675 -1.1250259,-0.0025 -2.0139856,-0.755316 -2.3312878,-1.623114 -0.5105317,-2.096248 0.1612135,-4.359215 1.6278661,-6.075313 1.1245209,-1.261187 2.6450962,-2.390302 4.5266878,-2.683876 0.178576,-0.01267 0.356737,-0.03519 0.53556,-0.04322 z"
   id="path16771" /><path
   inkscape:r_cy="true"
   inkscape:r_cx="true"
   d="m 24.663519,27.334935 c -2.678345,1.429537 -2.894285,5.475002 -0.478491,9.036271 2.415769,3.563356 6.544325,5.29473 9.22388,3.871485 2.679579,-1.429536 2.894285,-5.472907 0.478491,-9.034168 -2.414536,-3.561262 -6.544325,-5.292643 -9.22388,-3.873588 z m 1.535909,2.270294 c 1.189331,-0.632228 3.731839,0.44751 5.353644,2.84312 1.625143,2.395601 1.509225,4.895942 0.321012,5.526267 -1.188197,0.636036 -3.73294,-0.44751 -5.354746,-2.84312 -1.62626,-2.395601 -1.509225,-4.894038 -0.31991,-5.526267 z"
   style="fill:url(#radialGradient5062);fill-opacity:1;stroke:#000000;stroke-width:0.82792502999999984;stroke-opacity:1"
   id="path11967" /><polygon
   inkscape:r_cy="true"
   inkscape:r_cx="true"
   style="fill:url(#linearGradient2995);fill-opacity:1;stroke:url(#linearGradient5087);stroke-width:0.33324850000000000;stroke-linecap:round;stroke-linejoin:round;stroke-miterlimit:4;stroke-opacity:1;stroke-dasharray:none"
   id="polygon45101"
   points="298.86719,14.71875 299.26807,13.672852 298.25391,11.960449 296.95605,12.300293 296.95605,12.300293 297.6001,13.384766 "
   transform="matrix(3.0007628,0,0,3.0007628,-872.40213,-11.68859)" /><path
   inkscape:r_cy="true"
   inkscape:r_cx="true"
   style="fill:url(#linearGradient5058);fill-opacity:1;stroke:none"
   d="m 21.20651,25.389783 c -0.353317,0.164608 -0.841842,0.16681 -1.112524,0.413963 0.786545,1.160245 1.564704,2.413119 2.360315,3.4877 0.553509,0.624702 1.122509,1.24207 1.753437,1.790321 0.608757,-1.151991 0.111903,-2.534452 -0.672689,-3.466935 -0.498858,-0.744876 -0.687029,-1.749373 -1.526487,-2.147431 -0.25173,-0.09803 -0.538664,-0.147271 -0.802052,-0.07758 z"
   id="polygon16860" /><path
   inkscape:r_cy="true"
   inkscape:r_cx="true"
   style="fill:url(#linearGradient5055);fill-opacity:1;stroke:none"
   d="m 26.27659,27.469191 c -1.258769,0.190216 -2.396801,0.898845 -2.682849,1.97706 -0.936508,1.983253 -0.177905,4.233603 1.059562,5.98329 0.912307,1.113725 1.606232,2.425746 3.013299,3.124564 1.217588,0.764688 2.766213,1.56525 4.319814,1.07704 1.252916,-0.358865 1.962737,-1.391386 2.21898,-2.460478 0.500423,-1.912531 -0.244809,-3.871344 -1.413235,-5.494507 -0.545337,-0.756484 -1.103615,-1.559157 -1.74967,-2.230968 -0.989006,-0.747989 -2.184,-1.367343 -3.385253,-1.848219 -0.442195,-0.09141 -0.923327,-0.192691 -1.380648,-0.127782 z m 0.360727,1.001467 c 1.454921,-0.05531 2.677932,0.612217 3.623306,1.464566 0.854667,0.802367 1.673783,1.494578 2.204359,2.482848 0.891833,1.507295 1.149044,3.295108 0.695548,4.937355 -0.437459,1.096595 -1.843093,1.632701 -3.138763,1.338299 -1.640848,-0.189454 -2.663716,-1.383479 -3.74766,-2.325111 -1.246649,-1.185084 -2.020651,-2.880045 -2.078572,-4.538999 0.01167,-0.842555 -0.02194,-1.803569 0.578007,-2.511569 0.341337,-0.449687 1.142545,-0.872898 1.863775,-0.847389 z"
   id="path16795" /><path
   inkscape:r_cy="true"
   inkscape:r_cx="true"
   sodipodi:type="arc"
   style="opacity:0.26704544;color:#000000;fill:url(#radialGradient3003);fill-opacity:1;fill-rule:evenodd;stroke:none;stroke-width:1;marker:none;visibility:visible;display:inline;overflow:visible"
   id="path2267"
   sodipodi:cx="25.1875"
   sodipodi:cy="41.625"
   sodipodi:rx="18.0625"
   sodipodi:ry="5.875"
   d="m 43.25,41.625 a 18.0625,5.875 0 1 1 -36.125,0 18.0625,5.875 0 1 1 36.125,0 z"
   transform="matrix(1.0399193,0,0,0.67819394,-6.4094664,9.7857978)" /><path
   inkscape:r_cy="true"
   inkscape:r_cx="true"
   id="path3022"
   d="M 43.506026,40.61612 L 42.747596,40.61612"
   style="opacity:1;fill:#2e3436;fill-opacity:0.75000000000000000;fill-rule:evenodd;stroke:#000000;stroke-width:0.99999963999999997px;stroke-linecap:square;stroke-linejoin:miter;stroke-opacity:1" /><path
   inkscape:r_cy="true"
   inkscape:r_cx="true"
   id="path3046"
   d="M 43.506026,36.61612 L 42.747596,36.61612"
   style="opacity:1;fill:#2e3436;fill-opacity:0.75000000000000000;fill-rule:evenodd;stroke:#000000;stroke-width:0.99999963999999997px;stroke-linecap:square;stroke-linejoin:miter;stroke-opacity:1" /><path
   inkscape:r_cy="true"
   inkscape:r_cx="true"
   id="path3050"
   d="M 43.506026,32.61612 L 42.747596,32.61612"
   style="opacity:1;fill:#2e3436;fill-opacity:0.75000000000000000;fill-rule:evenodd;stroke:#000000;stroke-width:0.99999963999999997px;stroke-linecap:square;stroke-linejoin:miter;stroke-opacity:1" /><path
   inkscape:r_cy="true"
   inkscape:r_cx="true"
   id="path3054"
   d="M 43.506026,28.61612 L 42.747596,28.61612"
   style="opacity:1;fill:#2e3436;fill-opacity:0.75000000000000000;fill-rule:evenodd;stroke:#000000;stroke-width:0.99999963999999997px;stroke-linecap:square;stroke-linejoin:miter;stroke-opacity:1" /><path
   inkscape:r_cy="true"
   inkscape:r_cx="true"
   id="path3058"
   d="M 43.506026,24.61612 L 42.747596,24.61612"
   style="opacity:1;fill:#2e3436;fill-opacity:0.75000000000000000;fill-rule:evenodd;stroke:#000000;stroke-width:0.99999963999999997px;stroke-linecap:square;stroke-linejoin:miter;stroke-opacity:1" /><path
   inkscape:r_cy="true"
   inkscape:r_cx="true"
   id="path3062"
   d="M 43.506026,20.61612 L 42.747596,20.61612"
   style="opacity:1;fill:#2e3436;fill-opacity:0.75000000000000000;fill-rule:evenodd;stroke:#000000;stroke-width:0.99999963999999997px;stroke-linecap:square;stroke-linejoin:miter;stroke-opacity:1" /><path
   inkscape:r_cy="true"
   inkscape:r_cx="true"
   id="path3066"
   d="M 43.506026,16.61612 L 42.747596,16.61612"
   style="opacity:1;fill:#2e3436;fill-opacity:0.75000000000000000;fill-rule:evenodd;stroke:#000000;stroke-width:0.99999963999999997px;stroke-linecap:square;stroke-linejoin:miter;stroke-opacity:1" /><path
   inkscape:r_cy="true"
   inkscape:r_cx="true"
   id="path3070"
   d="M 43.506026,12.61612 L 42.747596,12.61612"
   style="opacity:1;fill:#2e3436;fill-opacity:0.75000000000000000;fill-rule:evenodd;stroke:#000000;stroke-width:0.99999963999999997px;stroke-linecap:square;stroke-linejoin:miter;stroke-opacity:1" /></svg>