<?xml version="1.0" encoding="UTF-8" standalone="yes"?>
<svg version="1.1" width="64" height="64" color-interpolation="linearRGB"
     xmlns:svg="http://www.w3.org/2000/svg" xmlns="http://www.w3.org/2000/svg">
 <g>
  <path style="fill:#010101; fill-opacity:0.3921"
        d="M4 54H12L24 61V64H34C38 64 44 54 48 52C52 50 64 46.82 64 44C64 40 64 38 60 36L58 35C54 33 48 32 46 32H36V34L42 36L12 52H4V54z"
  />
  <path style="fill:none; stroke:#010101; stroke-width:4; stroke-linejoin:round"
        d="M4 42C4 42 4 40 6 38C8 36 14 34 16 26C17.76 18.93 20 8 32 6V10L26 14C20 18 21 33 15 38L6 46V54L4 53V42z"
  />
  <linearGradient id="gradient0" gradientUnits="userSpaceOnUse" x1="6" y1="-50" x2="32" y2="-50">
   <stop offset="0" stop-color="#d63f3f"/>
   <stop offset="1" stop-color="#c62020"/>
  </linearGradient>
  <path style="fill:url(#gradient0)"
        d="M4 42C4 42 4 40 6 38C8 36 14 34 16 26C17.76 18.93 20 8 32 6V10L26 14C20 18 21 33 15 38L6 46V54L4 53V42z"
  />
  <path style="fill:none; stroke:#010101; stroke-width:6; stroke-linecap:round"
        d="M31 23L45 28
           M31 31L45 36"
  />
  <path style="fill:none; stroke:#b64040; stroke-width:2; stroke-linecap:round"
        d="M31 23L45 28
           M31 31L45 36"
  />
  <path style="fill:none; stroke:#010101; stroke-width:4; stroke-linejoin:round"
        d="M8 47C8 47 10 50 14 52C18 54 22 54 22 54
           M32 10L46 14"
  />
  <linearGradient id="gradient1" gradientUnits="userSpaceOnUse" x1="113.24" y1="43.48" x2="100" y2="80.36">
   <stop offset="0" stop-color="#bdbdbd"/>
   <stop offset="0.8136" stop-color="#bdbdbd"/>
   <stop offset="0.3612" stop-color="#b0b0b0"/>
   <stop offset="0.114" stop-color="#ffffff"/>
   <stop offset="0.6311" stop-color="#868686"/>
   <stop offset="1" stop-color="#e2e2e2"/>
  </linearGradient>
  <path style="fill:url(#gradient1)"
        d="M6 46C6 46 10 50 14 52C18 54 22 54 22 54L30 46C36 40 36 24 42 18L46 14L32 10L26 14C20 18 21 33 15 38L6 46z"
  />
  <radialGradient id="gradient2" gradientUnits="userSpaceOnUse" cx="0" cy="0" r="64" gradientTransform="matrix(0.0892,-0.05,0.0455,0.0811,27.3778,14.3452)">
   <stop offset="0" stop-color="#e88a8a" stop-opacity="0.3764"/>
   <stop offset="1" stop-color="#e88a8a" stop-opacity="0"/>
  </radialGradient>
  <path style="fill:url(#gradient2)"
        d="M6 46C6 46 10 50 14 52C18 54 22 54 22 54L30 46C36 40 36 24 42 18L46 14L32 10L26 14C20 18 21 33 15 38L6 46z"
  />
  <radialGradient id="gradient3" gradientUnits="userSpaceOnUse" cx="0" cy="0" r="64" gradientTransform="matrix(0.0724,-0.2638,0.0897,0.0246,21.2144,24.4978)">
   <stop offset="0" stop-color="#be4343" stop-opacity="0.3764"/>
   <stop offset="1" stop-color="#e88a8a" stop-opacity="0"/>
  </radialGradient>
  <path style="fill:url(#gradient3)"
        d="M6 46C6 46 10 50 14 52C18 54 22 54 22 54L30 46C36 40 36 24 42 18L46 14L32 10L26 14C20 18 21 33 15 38L6 46z"
  />
  <radialGradient id="gradient4" gradientUnits="userSpaceOnUse" cx="0" cy="0" r="64" gradientTransform="matrix(0.2081,-0.1944,0.0635,0.068,10.6224,42.9615)">
   <stop offset="0" stop-color="#b21313" stop-opacity="0.3764"/>
   <stop offset="1" stop-color="#e88a8a" stop-opacity="0"/>
  </radialGradient>
  <path style="fill:url(#gradient4)"
        d="M6 46C6 46 10 50 14 52C18 54 22 54 22 54L30 46C36 40 36 24 42 18L46 14L32 10L26 14C20 18 21 33 15 38L6 46z"
  />
  <path style="fill:none; stroke:#010101; stroke-width:4; stroke-linejoin:round"
        d="M22 48C22 48 22 45 24 43C26 41 30 37 32 31C34 25 35 11 46 8V39L45 40L44 16L42 18C36 24 36 40 30 46L23.99 52L24 62L22 61V48z
           M49.91 47.02C46.05 44.86 41.18 46.23 39.02 50.08C36.86 53.94 38.23 58.81 42.08 60.97C45.94 63.13 50.81 61.76 52.97 57.91C55.13 54.05 53.76 49.18 49.91 47.02z"
  />
  <linearGradient id="gradient5" gradientUnits="userSpaceOnUse" x1="44.29" y1="-48.6" x2="72.72" y2="-40.33">
   <stop offset="0" stop-color="#f12d2d"/>
   <stop offset="1" stop-color="#ff5959"/>
  </linearGradient>
  <path style="fill:url(#gradient5)"
        d="M22 48C22 48 22 45 24 43C26 41 30 37 32 31C34 25 35 11 46 8V39L45 40L44 16L42 18C36 24 36 40 30 46L23.99 52L24 62L22 61V48z"
  />
  <path style="fill:none; stroke:#f56a6a; stroke-width:1"
        d="M6 39C8 37 14 35 16 27C17.76 19.93 20 9 32 7"
  />
  <path style="fill:none; stroke:#ff7c7c; stroke-width:1"
        d="M24 44C26 42 30 38 32 32C34 26 35 12 46 9"
  />
  <path style="fill:#010101; fill-opacity:0.3921"
        d="M49.91 47.02C46.05 44.86 41.18 46.23 39.02 50.08C36.86 53.94 38.23 58.81 42.08 60.97C45.94 63.13 50.81 61.76 52.97 57.91C55.13 54.05 53.76 49.18 49.91 47.02z"
        transform="matrix(1,0,0,0.625,6,25.25)"
  />
  <radialGradient id="gradient6" gradientUnits="userSpaceOnUse" cx="0" cy="0" r="64" gradientTransform="matrix(0.1562,0,0,0.1562,44,52)">
   <stop offset="0" stop-color="#ffffff"/>
   <stop offset="0.4638" stop-color="#c0eeff"/>
   <stop offset="1" stop-color="#90d9ff"/>
  </radialGradient>
  <path style="fill:url(#gradient6)"
        d="M49.91 47.02V47.02C49 49 48 50 46 54C44 58 43 59 42.08 60.97V60.97C39 59 39 54 41 51C43 48 47 46 49.91 47.02z
           M49.91 47.02C53 49 52.61 53.77 51 57C49 61 45 63 42.08 60.97C45.94 63.13 50.81 61.76 52.97 57.91C55.13 54.05 53.76 49.18 49.91 47.02z"
  />
  <radialGradient id="gradient7" gradientUnits="userSpaceOnUse" cx="0" cy="0" r="64" gradientTransform="matrix(0.1562,0,0,0.1562,44,52)">
   <stop offset="0" stop-color="#67cbff"/>
   <stop offset="0.4638" stop-color="#30b7fd"/>
   <stop offset="1" stop-color="#069fee"/>
  </radialGradient>
  <path style="fill:url(#gradient7)"
        d="M49.91 47.02V47.02C46.05 44.86 41.18 46.23 39.02 50.08C36.86 53.94 38.23 58.81 42.08 60.97V60.97C39 59 39 54 41 51C43 48 47 46 49.91 47.02z
           M49.91 47.02C49 49 48 50 46 54C44 58 43 59 42.08 60.97C45 63 49 61 51 57C52.61 53.77 53 49 49.91 47.02z"
  />
 </g>
</svg>
