<?xml version="1.0" encoding="UTF-8" standalone="no"?>
<svg
   xmlns:dc="http://purl.org/dc/elements/1.1/"
   xmlns:cc="http://creativecommons.org/ns#"
   xmlns:rdf="http://www.w3.org/1999/02/22-rdf-syntax-ns#"
   xmlns:svg="http://www.w3.org/2000/svg"
   xmlns="http://www.w3.org/2000/svg"
   xmlns:sodipodi="http://sodipodi.sourceforge.net/DTD/sodipodi-0.dtd"
   xmlns:inkscape="http://www.inkscape.org/namespaces/inkscape"
   version="1.1"
   width="64"
   height="64"
   color-interpolation="linearRGB"
   id="svg2"
   inkscape:version="0.91 r13725"
   sodipodi:docname="application-x-cbt.svg">
  <metadata
     id="metadata32">
    <rdf:RDF>
      <cc:Work
         rdf:about="">
        <dc:format>image/svg+xml</dc:format>
        <dc:type
           rdf:resource="http://purl.org/dc/dcmitype/StillImage" />
        <dc:title></dc:title>
      </cc:Work>
    </rdf:RDF>
  </metadata>
  <defs
     id="defs30">
    <radialGradient
       id="gradient0-1"
       gradientUnits="userSpaceOnUse"
       cx="0"
       cy="0"
       r="64"
       gradientTransform="matrix(0.23995005,0.14344543,-0.0868323,0.14524875,15.3314,16.208545)">
      <stop
         offset="0"
         stop-color="#ffffff"
         id="stop9" />
      <stop
         offset="0.7064"
         stop-color="#ffe405"
         id="stop11-2" />
      <stop
         offset="1"
         stop-color="#ffa405"
         id="stop13-9" />
    </radialGradient>
    <radialGradient
       id="gradient1-6"
       gradientUnits="userSpaceOnUse"
       cx="0"
       cy="0"
       r="64"
       gradientTransform="matrix(0.23995005,0.14344543,-0.0868323,0.14524875,15.3314,16.208545)">
      <stop
         offset="0"
         stop-color="#ffe405"
         id="stop18" />
      <stop
         offset="1"
         stop-color="#ffa405"
         id="stop20-8" />
    </radialGradient>
    <radialGradient
       id="gradient2"
       gradientUnits="userSpaceOnUse"
       cx="0"
       cy="0"
       r="64"
       gradientTransform="matrix(0.22268196,0.15825447,-0.11453776,0.1611507,26.578888,2.34106)">
      <stop
         offset="0"
         stop-color="#ffffff"
         id="stop29" />
      <stop
         offset="0.7064"
         stop-color="#7fe583"
         id="stop31" />
      <stop
         offset="1"
         stop-color="#04b10c"
         id="stop33" />
    </radialGradient>
    <radialGradient
       gradientTransform="matrix(0.4391,0.2625,-0.1589,0.2658,13.6466,37.066)"
       r="64"
       cy="0"
       cx="0"
       gradientUnits="userSpaceOnUse"
       id="radialGradient3392">
      <stop
         id="stop3394"
         stop-color="#ffffff"
         offset="0" />
      <stop
         id="stop3396"
         stop-color="#ffe405"
         offset="0.7064" />
      <stop
         id="stop3398"
         stop-color="#ffa405"
         offset="1" />
    </radialGradient>
    <radialGradient
       gradientTransform="matrix(0.4391,0.2625,-0.1589,0.2658,13.6466,37.066)"
       r="64"
       cy="0"
       cx="0"
       gradientUnits="userSpaceOnUse"
       id="radialGradient3401">
      <stop
         id="stop3403"
         stop-color="#ffe405"
         offset="0" />
      <stop
         id="stop3405"
         stop-color="#ffa405"
         offset="1" />
    </radialGradient>
    <radialGradient
       gradientTransform="matrix(0.4075,0.2896,-0.2096,0.2949,34.2291,11.689)"
       r="64"
       cy="0"
       cx="0"
       gradientUnits="userSpaceOnUse"
       id="radialGradient3410">
      <stop
         id="stop3412"
         stop-color="#ffffff"
         offset="0" />
      <stop
         id="stop3414"
         stop-color="#7fe583"
         offset="0.7064" />
      <stop
         id="stop3416"
         stop-color="#04b10c"
         offset="1" />
    </radialGradient>
  </defs>
  <sodipodi:namedview
     pagecolor="#ffffff"
     bordercolor="#666666"
     borderopacity="1"
     objecttolerance="10"
     gridtolerance="10"
     guidetolerance="10"
     inkscape:pageopacity="0"
     inkscape:pageshadow="2"
     inkscape:window-width="1017"
     inkscape:window-height="768"
     id="namedview28"
     showgrid="false"
     inkscape:zoom="3.6875"
     inkscape:cx="32"
     inkscape:cy="32"
     inkscape:window-x="2"
     inkscape:window-y="30"
     inkscape:window-maximized="0"
     inkscape:current-layer="svg2" />
  <g
     id="g4">
    <path
       style="fill:#010101; fill-opacity:0.5725"
       d="M27 57L29 59L32.13 55.83L37 59L45.39 47.54L64 38L59 35L61 37L36 49L27 57z            M58 34L62 31L58 29L55 32L58 34z"
       id="path6" />
    <path
       style="fill:none; stroke:#010101; stroke-width:4"
       d="M6.25 30C6.25 30 11.87 36 16.87 42.5C21.87 49 26.25 55.75 26.25 55.75L59.12 36.87L32 15L6.25 30z"
       id="path8" />
    <radialGradient
       id="gradient0"
       gradientUnits="userSpaceOnUse"
       cx="0"
       cy="0"
       r="64"
       gradientTransform="matrix(0.5714,0,0,0.3333,26,35)">
      <stop
         offset="1"
         stop-color="#c0d5ff"
         id="stop11" />
      <stop
         offset="0.4886"
         stop-color="#896eff"
         id="stop13" />
    </radialGradient>
    <path
       style="fill:url(#gradient0)"
       d="M6.25 30C6.25 30 11.87 36 16.87 42.5C21.87 49 26.25 55.75 26.25 55.75L59.12 36.87L32 15L6.25 30z"
       id="path15" />
    <path
       style="fill:none; stroke:#010101; stroke-width:4"
       d="M2.62 30.87C2.62 30.87 10.95 36.26 19 41.87C27.44 47.75 35.75 52.75 35.75 52.75L58.12 26.37C58.12 26.37 45.44 20.7 35.37 15.37C30.18 12.62 26 9.37 26 9.37L2.62 30.87z"
       id="path17" />
    <linearGradient
       id="gradient1"
       gradientUnits="userSpaceOnUse"
       x1="105.45"
       y1="-23.42"
       x2="119.92"
       y2="34.32">
      <stop
         offset="0"
         stop-color="#a5b1ff"
         id="stop20" />
      <stop
         offset="0.7386"
         stop-color="#eaf1ff"
         id="stop22" />
      <stop
         offset="1"
         stop-color="#b3b8ff"
         id="stop24" />
    </linearGradient>
    <path
       style="fill:url(#gradient1)"
       d="M2.62 30.87C2.62 30.87 10.95 36.26 19 41.87C27.44 47.75 35.75 52.75 35.75 52.75L58.12 26.37C58.12 26.37 45.44 20.7 35.37 15.37C30.18 12.62 26 9.37 26 9.37L2.62 30.87z"
       id="path26" />
  </g>
  <g
     id="g3442"
     transform="matrix(1.2789979,0,0,1.2789979,1.8761578,6.8327886)">
    <path
       inkscape:connector-curvature="0"
       style="fill:none;stroke:#000000;stroke-width:2.18563151"
       d="m 24.840548,13.461879 c -3.816742,-2.19977 -9.276739,-3.312797 -13.111678,-0.59493 -1.643256,1.086743 -2.744152,3.268315 -2.7502177,4.907528 -0.01011,2.732021 1.0746107,4.921681 2.7057357,7.113363 -0.550448,1.090787 -1.643256,1.086743 -2.7340423,0.536295 1.6351683,1.098874 3.2723593,1.651344 4.3671893,1.108983 1.088764,1.096852 2.725955,1.649322 3.816741,2.19977 1.637191,0.55247 3.820786,1.106962 6.006402,1.115049 3.278425,0.01213 6.014489,-1.070567 7.117407,-3.798544 2.203814,-4.90955 -1.600796,-10.387744 -5.417537,-12.587514 z"
       id="path6-2" />
    <path
       inkscape:connector-curvature="0"
       style="fill:url(#gradient0-1)"
       d="m 24.814318,13.440184 c -3.825212,-2.185835 -9.2898,-3.278752 -13.115011,-0.546458 -1.639377,1.092917 -2.7322942,3.278752 -2.7322942,4.918129 0,2.732294 1.0929172,4.918129 2.7322942,7.103964 -0.546459,1.092918 -1.639377,1.092918 -2.7322942,0.546459 1.6393762,1.092917 3.2787532,1.639376 4.3716702,1.092917 1.092918,1.092918 2.732294,1.639377 3.825212,2.185836 1.639376,0.546458 3.825211,1.092917 6.011046,1.092917 3.278753,0 6.011047,-1.092917 7.103965,-3.825211 2.185835,-4.918129 -1.639377,-10.382717 -5.464588,-12.568553 z"
       id="path15-9" />
    <path
       inkscape:connector-curvature="0"
       style="fill:url(#gradient1-6)"
       d="M 24.814318,13.440184 C 23.7214,12.893726 22.628483,11.800808 21.016429,11.83906 c -2.759617,-0.03825 -0.02732,3.78696 2.704971,6.519254 2.732294,2.732294 6.011047,5.464587 7.103964,4.37167 0,-3.825212 -3.278752,-7.650423 -6.011046,-9.2898 z"
       id="path22" />
    <path
       inkscape:connector-curvature="0"
       style="fill:none;stroke:#000000;stroke-width:2.18583512"
       d="m 37.38287,16.172478 c 2.295127,-1.163957 4.37167,-2.732294 4.37167,-6.011046 0,-4.1913392 -2.732294,-8.5739387 -6.557505,-10.75977384 C 30.825364,-3.3306358 24.267859,-3.8770946 20.442647,-1.1448006 c -2.852515,2.03282667 -3.278752,5.8416444 -2.185835,8.5739384 1.639377,4.9181292 7.650423,8.1968822 12.568552,9.2897992 1.639377,0.546459 3.573841,0.46449 4.918129,0 1.092918,2.732294 2.732294,4.918129 5.054744,5.57388 -1.229532,-0.655751 -2.759617,-3.459084 -3.415367,-6.120339 z"
       id="path26-3" />
    <path
       inkscape:connector-curvature="0"
       style="fill:url(#gradient2)"
       d="m 37.38287,16.172478 c 2.295127,-1.163957 4.37167,-2.732294 4.37167,-6.011046 0,-4.1913392 -2.732294,-8.5739387 -6.557505,-10.75977384 C 30.825364,-3.3306358 24.267859,-3.8770946 20.442647,-1.1448006 c -2.852515,2.03282667 -3.278752,5.8416444 -2.185835,8.5739384 1.639377,4.9181292 7.650423,8.1968822 12.568552,9.2897992 1.639377,0.546459 3.573841,0.46449 4.918129,0 1.092918,2.732294 2.732294,4.918129 5.054744,5.57388 -1.229532,-0.655751 -2.759617,-3.459084 -3.415367,-6.120339 z"
       id="path35" />
  </g>
  <path
     inkscape:connector-curvature="0"
     style="opacity:1;fill:#00cc00;fill-opacity:1;fill-rule:evenodd;stroke:#000000;stroke-width:1.09170306;stroke-linecap:square;stroke-linejoin:miter;stroke-miterlimit:4;stroke-dasharray:none;stroke-dashoffset:0;stroke-opacity:1"
     d="m 34.884836,48.651395 28.569312,0 0,14.802754 -28.569312,0 z"
     id="rect4173" />
  <g
     style="font-style:normal;font-variant:normal;font-weight:bold;font-stretch:normal;font-size:12.5px;line-height:124.00000095%;font-family:'DejaVu Sans';-inkscape-font-specification:'Sans Bold';letter-spacing:0px;word-spacing:0px;fill:#000000;fill-opacity:1;stroke:none;stroke-width:1px;stroke-linecap:butt;stroke-linejoin:miter;stroke-opacity:1"
     id="text4199">
    <path
       d="m 35.906551,51.496498 8.398438,0 0,1.776123 -3.02124,0 0,7.336426 -2.349854,0 0,-7.336426 -3.027344,0 0,-1.776123 z"
       style=""
       id="path4211" />
    <path
       d="m 50.066708,58.948891 -3.674317,0 -0.579834,1.660156 -2.36206,0 3.375244,-9.112549 2.801513,0 3.375245,9.112549 -2.362061,0 -0.57373,-1.660156 z m -3.088379,-1.690674 2.496338,0 -1.245118,-3.625488 -1.25122,3.625488 z"
       style=""
       id="path4213" />
    <path
       d="m 57.543514,55.537025 q 0.738526,0 1.055908,-0.274658 0.323487,-0.274658 0.323487,-0.90332 0,-0.622559 -0.323487,-0.891113 -0.317382,-0.268555 -1.055908,-0.268555 l -0.988769,0 0,2.337646 0.988769,0 z m -0.988769,1.623536 0,3.448486 -2.349854,0 0,-9.112549 3.588867,0 q 1.800538,0 2.636719,0.604248 0.842285,0.604248 0.842285,1.910401 0,0.90332 -0.439453,1.483154 -0.433349,0.579834 -1.312256,0.854492 0.482178,0.109863 0.860596,0.500488 0.384522,0.384522 0.775147,1.171875 l 1.275634,2.587891 -2.502441,0 -1.11084,-2.264404 q -0.335693,-0.683594 -0.683594,-0.933838 -0.341797,-0.250244 -0.915527,-0.250244 l -0.665283,0 z"
       style=""
       id="path4215" />
  </g>
</svg>
