<?xml version="1.0" encoding="UTF-8" standalone="no"?>
<svg
   xmlns:dc="http://purl.org/dc/elements/1.1/"
   xmlns:cc="http://creativecommons.org/ns#"
   xmlns:rdf="http://www.w3.org/1999/02/22-rdf-syntax-ns#"
   xmlns:svg="http://www.w3.org/2000/svg"
   xmlns="http://www.w3.org/2000/svg"
   xmlns:xlink="http://www.w3.org/1999/xlink"
   xmlns:sodipodi="http://sodipodi.sourceforge.net/DTD/sodipodi-0.dtd"
   xmlns:inkscape="http://www.inkscape.org/namespaces/inkscape"
   version="1.1"
   width="64"
   height="64"
   color-interpolation="linearRGB"
   id="svg2"
   sodipodi:version="0.32"
   inkscape:version="0.48.3.1 r9886"
   sodipodi:docname="application-x-genesis-rom.svg"
   inkscape:output_extension="org.inkscape.output.svg.inkscape">
  <metadata
     id="metadata31">
    <rdf:RDF>
      <cc:Work
         rdf:about="">
        <dc:format>image/svg+xml</dc:format>
        <dc:type
           rdf:resource="http://purl.org/dc/dcmitype/StillImage" />
        <dc:title></dc:title>
      </cc:Work>
    </rdf:RDF>
  </metadata>
  <defs
     id="defs29">
    <inkscape:perspective
       sodipodi:type="inkscape:persp3d"
       inkscape:vp_x="0 : 32 : 1"
       inkscape:vp_y="0 : 1000 : 0"
       inkscape:vp_z="64 : 32 : 1"
       inkscape:persp3d-origin="32 : 21.333333 : 1"
       id="perspective33" />
    <inkscape:perspective
       id="perspective35"
       inkscape:persp3d-origin="32 : 21.333333 : 1"
       inkscape:vp_z="64 : 32 : 1"
       inkscape:vp_y="0 : 1000 : 0"
       inkscape:vp_x="0 : 32 : 1"
       sodipodi:type="inkscape:persp3d" />
    <inkscape:perspective
       id="perspective3563"
       inkscape:persp3d-origin="0.5 : 0.33333333 : 1"
       inkscape:vp_z="1 : 0.5 : 1"
       inkscape:vp_y="0 : 1000 : 0"
       inkscape:vp_x="0 : 0.5 : 1"
       sodipodi:type="inkscape:persp3d" />
    <linearGradient
       inkscape:collect="always"
       xlink:href="#linearGradient2308"
       id="linearGradient3553"
       gradientUnits="userSpaceOnUse"
       x1="57"
       y1="29.928572"
       x2="97"
       y2="29.928572" />
    <linearGradient
       id="linearGradient2308">
      <stop
         id="stop2310"
         offset="0"
         style="stop-color:#edd400;stop-opacity:1;" />
      <stop
         id="stop2312"
         offset="1"
         style="stop-color:#fff492;stop-opacity:1;" />
    </linearGradient>
    <linearGradient
       id="linearGradient3572">
      <stop
         id="stop3574"
         offset="0"
         style="stop-color:#edd400;stop-opacity:1;" />
      <stop
         id="stop3576"
         offset="1"
         style="stop-color:#fff492;stop-opacity:1;" />
    </linearGradient>
    <linearGradient
       id="linearGradient3579">
      <stop
         id="stop3581"
         offset="0"
         style="stop-color:#edd400;stop-opacity:1;" />
      <stop
         id="stop3583"
         offset="1"
         style="stop-color:#fff492;stop-opacity:1;" />
    </linearGradient>
    <linearGradient
       id="linearGradient3586">
      <stop
         id="stop3588"
         offset="0"
         style="stop-color:#edd400;stop-opacity:1;" />
      <stop
         id="stop3590"
         offset="1"
         style="stop-color:#fff492;stop-opacity:1;" />
    </linearGradient>
    <linearGradient
       id="linearGradient3593">
      <stop
         id="stop3595"
         offset="0"
         style="stop-color:#edd400;stop-opacity:1;" />
      <stop
         id="stop3597"
         offset="1"
         style="stop-color:#fff492;stop-opacity:1;" />
    </linearGradient>
    <linearGradient
       id="linearGradient3600">
      <stop
         id="stop3602"
         offset="0"
         style="stop-color:#edd400;stop-opacity:1;" />
      <stop
         id="stop3604"
         offset="1"
         style="stop-color:#fff492;stop-opacity:1;" />
    </linearGradient>
    <linearGradient
       id="linearGradient3607">
      <stop
         id="stop3609"
         offset="0"
         style="stop-color:#edd400;stop-opacity:1;" />
      <stop
         id="stop3611"
         offset="1"
         style="stop-color:#fff492;stop-opacity:1;" />
    </linearGradient>
    <linearGradient
       y2="29.928572"
       x2="97"
       y1="29.928572"
       x1="57"
       gradientUnits="userSpaceOnUse"
       id="linearGradient3622"
       xlink:href="#linearGradient2308"
       inkscape:collect="always" />
    <inkscape:perspective
       id="perspective6986"
       inkscape:persp3d-origin="0.5 : 0.33333333 : 1"
       inkscape:vp_z="1 : 0.5 : 1"
       inkscape:vp_y="0 : 1000 : 0"
       inkscape:vp_x="0 : 0.5 : 1"
       sodipodi:type="inkscape:persp3d" />
    <inkscape:perspective
       id="perspective8425"
       inkscape:persp3d-origin="0.5 : 0.33333333 : 1"
       inkscape:vp_z="1 : 0.5 : 1"
       inkscape:vp_y="0 : 1000 : 0"
       inkscape:vp_x="0 : 0.5 : 1"
       sodipodi:type="inkscape:persp3d" />
    <linearGradient
       id="linearGradient2308-5">
      <stop
         id="stop2310-4"
         offset="0"
         style="stop-color:#edd400;stop-opacity:1;" />
      <stop
         id="stop2312-4"
         offset="1"
         style="stop-color:#fff492;stop-opacity:1;" />
    </linearGradient>
    <linearGradient
       inkscape:collect="always"
       id="linearGradient3261">
      <stop
         style="stop-color:#ffffff;stop-opacity:1;"
         offset="0"
         id="stop3263" />
      <stop
         style="stop-color:#ffffff;stop-opacity:0;"
         offset="1"
         id="stop3265" />
    </linearGradient>
    <linearGradient
       id="linearGradient5891"
       inkscape:collect="always">
      <stop
         id="stop5893"
         offset="0"
         style="stop-color:#ffffff;stop-opacity:1;" />
      <stop
         id="stop5895"
         offset="1"
         style="stop-color:#ffffff;stop-opacity:0;" />
    </linearGradient>
    <linearGradient
       y2="14.09375"
       x2="32.5625"
       y1="11.21875"
       x1="23.9375"
       gradientTransform="translate(22.686808,14.239244)"
       gradientUnits="userSpaceOnUse"
       id="linearGradient8446"
       xlink:href="#linearGradient5891"
       inkscape:collect="always" />
    <linearGradient
       inkscape:collect="always"
       xlink:href="#linearGradient2308-5"
       id="linearGradient8491"
       gradientUnits="userSpaceOnUse"
       gradientTransform="matrix(0.6931485,0,0,-0.6847878,24.156898,40.877311)"
       x1="22.312141"
       y1="20.909737"
       x2="22.312141"
       y2="24.184505" />
    <linearGradient
       inkscape:collect="always"
       xlink:href="#linearGradient3261"
       id="linearGradient8493"
       gradientUnits="userSpaceOnUse"
       gradientTransform="translate(12.686808,3.2392426)"
       x1="31.246544"
       y1="21.75"
       x2="49.086681"
       y2="43.582108" />
  </defs>
  <sodipodi:namedview
     inkscape:window-height="475"
     inkscape:window-width="770"
     inkscape:pageshadow="2"
     inkscape:pageopacity="0.0"
     guidetolerance="10.0"
     gridtolerance="10.0"
     objecttolerance="10.0"
     borderopacity="1.0"
     bordercolor="#666666"
     pagecolor="#ffffff"
     id="base"
     showgrid="false"
     inkscape:zoom="3.3363091"
     inkscape:cx="39.61631"
     inkscape:cy="29.644907"
     inkscape:window-x="443"
     inkscape:window-y="282"
     inkscape:current-layer="svg2"
     inkscape:window-maximized="0" />
  <g
     id="g4">
    <path
       style="fill:#010101; fill-opacity:0.5725"
       d="M27 57L29 59L32.13 55.83L37 59L45.39 47.54L64 38L59 35L61 37L36 49L27 57z            M58 34L62 31L58 29L55 32L58 34z"
       id="path6" />
    <path
       style="fill:none; stroke:#010101; stroke-width:4"
       d="M6.25 30C6.25 30 11.87 36 16.87 42.5C21.87 49 26.25 55.75 26.25 55.75L59.12 36.87L32 15L6.25 30z"
       id="path8" />
    <radialGradient
       id="gradient0"
       gradientUnits="userSpaceOnUse"
       cx="0"
       cy="0"
       r="64"
       gradientTransform="matrix(0.5714,0,0,0.3333,26,35)">
      <stop
         offset="1"
         stop-color="#c0d5ff"
         id="stop11" />
      <stop
         offset="0.4886"
         stop-color="#896eff"
         id="stop13" />
    </radialGradient>
    <path
       style="fill:url(#gradient0)"
       d="M6.25 30C6.25 30 11.87 36 16.87 42.5C21.87 49 26.25 55.75 26.25 55.75L59.12 36.87L32 15L6.25 30z"
       id="path15" />
    <path
       style="fill:none; stroke:#010101; stroke-width:4"
       d="M2.62 30.87C2.62 30.87 10.95 36.26 19 41.87C27.44 47.75 35.75 52.75 35.75 52.75L58.12 26.37C58.12 26.37 45.44 20.7 35.37 15.37C30.18 12.62 26 9.37 26 9.37L2.62 30.87z"
       id="path17" />
    <linearGradient
       id="gradient1"
       gradientUnits="userSpaceOnUse"
       x1="105.45"
       y1="-23.42"
       x2="119.92"
       y2="34.32">
      <stop
         offset="0"
         stop-color="#a5b1ff"
         id="stop20" />
      <stop
         offset="0.7386"
         stop-color="#eaf1ff"
         id="stop22" />
      <stop
         offset="1"
         stop-color="#b3b8ff"
         id="stop24" />
    </linearGradient>
    <path
       style="fill:url(#gradient1)"
       d="M2.62 30.87C2.62 30.87 10.95 36.26 19 41.87C27.44 47.75 35.75 52.75 35.75 52.75L58.12 26.37C58.12 26.37 45.44 20.7 35.37 15.37C30.18 12.62 26 9.37 26 9.37L2.62 30.87z"
       id="path26" />
  </g>
  <g
     id="g3036"
     transform="matrix(0.75769637,0,0,0.75769637,0,-5.3411228)">
    <path
       id="path3038"
       transform="matrix(0.9473,0,0,1,24.2105,-20)"
       d="m 28,56 h 4 l 2,2 h 6 l 2,-2 -4,-2 -1,-15 -9,17 z"
       style="fill:#010000;fill-opacity:0.41559999"
       inkscape:connector-curvature="0" />
    <path
       id="path3040"
       transform="matrix(0.9473,0,0,1,16.6315,-14)"
       d="m 28,56 h 4 l 2,2 h 6 l 2,-2 -4,-2 -1,-15 -9,17 z"
       style="fill:#010000;fill-opacity:0.41559999"
       inkscape:connector-curvature="0" />
    <path
       id="path3042"
       transform="matrix(0.9473,0,0,1,9.0526,-6)"
       d="m 28,56 h 4 l 2,2 h 6 l 2,-2 -4,-2 -1,-15 -9,17 z"
       style="fill:#010000;fill-opacity:0.41559999"
       inkscape:connector-curvature="0" />
    <path
       id="path3044"
       transform="matrix(0.9473,0,0,1,1.4736,0)"
       d="m 28,56 h 4 l 2,2 h 6 l 2,-2 -4,-2 -1,-15 -9,17 z"
       style="fill:#010000;fill-opacity:0.41559999"
       inkscape:connector-curvature="0" />
    <path
       id="path3046"
       d="M 34,10 2,35 28,46 58,18 49,15 c -1,1 -4,1 -6,0 -2,-1 -3,-2 -2,-3 L 34,10 z M 2,41 28,54 V 46 L 2,35 v 6 z M 28,54 58,24 V 18 L 28,46 v 8 z"
       style="fill:none;stroke:#010000;stroke-width:4;stroke-linecap:round;stroke-linejoin:round"
       inkscape:connector-curvature="0" />
    <path
       id="path3048"
       d="M 28,54 58,24 V 18 L 28,46 v 8 z"
       style="fill:#333333"
       inkscape:connector-curvature="0" />
    <linearGradient
       y2="38.790001"
       x2="38.639999"
       y1="22.9"
       x1="19.719999"
       gradientUnits="userSpaceOnUse"
       id="gradient0-0">
      <stop
         id="stop3051"
         stop-color="#747474"
         offset="0" />
      <stop
         id="stop3053"
         stop-color="#3e3d3d"
         offset="1" />
    </linearGradient>
    <path
       id="path3055"
       d="M 2,41 28,54 V 46 L 2,35 v 6 z"
       style="fill:url(#gradient0-0)"
       inkscape:connector-curvature="0" />
    <linearGradient
       y2="4.6300001"
       x2="45.349998"
       y1="3.47"
       x1="9.3100004"
       gradientUnits="userSpaceOnUse"
       id="gradient1-6">
      <stop
         id="stop3058"
         stop-color="#b0b0b0"
         offset="0" />
      <stop
         id="stop3060"
         stop-color="#838383"
         offset="1" />
    </linearGradient>
    <path
       id="path3062"
       d="M 34,10 2,35 28,46 58,18 49,15 c -1,1 -4,1 -6,0 -2,-1 -3,-2 -2,-3 l -7,-2 z"
       style="fill:url(#gradient1-6)"
       inkscape:connector-curvature="0" />
    <path
       id="path3064"
       transform="matrix(0.9444,0,0,0.9023,24.2236,-15.5054)"
       d="m 34,44 -4,4 c 0,0 1,0.5 2,1 1,0.5 2,1.85 2,2.99 0,2.37 0.99,5.01 0.99,5.01 L 37,54.99 c 0,0 1,-4.63 1,-7 C 38,46.85 37,45.5 36,45 35,44.5 34,44 34,44 z"
       style="fill:none;stroke:#010000;stroke-width:4;stroke-linecap:round;stroke-linejoin:round"
       inkscape:connector-curvature="0" />
    <linearGradient
       y2="38.169998"
       x2="50.720001"
       y1="32.73"
       x1="44.860001"
       gradientUnits="userSpaceOnUse"
       id="gradient2">
      <stop
         id="stop3067"
         stop-color="#5a5a5a"
         offset="0" />
      <stop
         id="stop3069"
         stop-color="#dcdcdc"
         offset="0.2234" />
      <stop
         id="stop3071"
         stop-color="#7e7e7e"
         offset="1" />
    </linearGradient>
    <path
       id="path3073"
       transform="matrix(0.9444,0,0,0.9023,24.2236,-15.5054)"
       d="m 34,44 -4,4 c 0,0 1,0.5 2,1 1,0.5 2,1.85 2,2.99 0,2.37 0.99,5.01 0.99,5.01 L 37,54.99 c 0,0 1,-4.63 1,-7 C 38,46.85 37,45.5 36,45 35,44.5 34,44 34,44 z"
       style="fill:url(#gradient2)"
       inkscape:connector-curvature="0" />
    <path
       id="path3075"
       transform="matrix(0.9444,0,0,0.9023,16.6683,-8.2866)"
       d="m 34,44 -4,4 c 0,0 1,0.5 2,1 1,0.5 2,1.85 2,2.99 0,2.37 0.99,5.01 0.99,5.01 L 37,54.99 c 0,0 1,-4.63 1,-7 C 38,46.85 37,45.5 36,45 35,44.5 34,44 34,44 z"
       style="fill:none;stroke:#010000;stroke-width:4;stroke-linecap:round;stroke-linejoin:round"
       inkscape:connector-curvature="0" />
    <linearGradient
       y2="38.169998"
       x2="50.720001"
       y1="32.73"
       x1="44.860001"
       gradientUnits="userSpaceOnUse"
       id="gradient3">
      <stop
         id="stop3078"
         stop-color="#5a5a5a"
         offset="0" />
      <stop
         id="stop3080"
         stop-color="#dcdcdc"
         offset="0.2234" />
      <stop
         id="stop3082"
         stop-color="#7e7e7e"
         offset="1" />
    </linearGradient>
    <path
       id="path3084"
       transform="matrix(0.9444,0,0,0.9023,16.6683,-8.2866)"
       d="m 34,44 -4,4 c 0,0 1,0.5 2,1 1,0.5 2,1.85 2,2.99 0,2.37 0.99,5.01 0.99,5.01 L 37,54.99 c 0,0 1,-4.63 1,-7 C 38,46.85 37,45.5 36,45 35,44.5 34,44 34,44 z"
       style="fill:url(#gradient3)"
       inkscape:connector-curvature="0" />
    <path
       id="path3086"
       transform="matrix(0.9444,0,0,0.9023,9.1131,-1.0678)"
       d="m 34,44 -4,4 c 0,0 1,0.5 2,1 1,0.5 2,1.85 2,2.99 0,2.37 0.99,5.01 0.99,5.01 L 37,54.99 c 0,0 1,-4.63 1,-7 C 38,46.85 37,45.5 36,45 35,44.5 34,44 34,44 z"
       style="fill:none;stroke:#010000;stroke-width:4;stroke-linecap:round;stroke-linejoin:round"
       inkscape:connector-curvature="0" />
    <linearGradient
       y2="38.169998"
       x2="50.720001"
       y1="32.73"
       x1="44.860001"
       gradientUnits="userSpaceOnUse"
       id="gradient4">
      <stop
         id="stop3089"
         stop-color="#5a5a5a"
         offset="0" />
      <stop
         id="stop3091"
         stop-color="#dcdcdc"
         offset="0.2234" />
      <stop
         id="stop3093"
         stop-color="#7e7e7e"
         offset="1" />
    </linearGradient>
    <path
       id="path3095"
       transform="matrix(0.9444,0,0,0.9023,9.1131,-1.0678)"
       d="m 34,44 -4,4 c 0,0 1,0.5 2,1 1,0.5 2,1.85 2,2.99 0,2.37 0.99,5.01 0.99,5.01 L 37,54.99 c 0,0 1,-4.63 1,-7 C 38,46.85 37,45.5 36,45 35,44.5 34,44 34,44 z"
       style="fill:url(#gradient4)"
       inkscape:connector-curvature="0" />
    <path
       id="path3097"
       transform="matrix(0.9444,0,0,0.9023,1.5578,6.1508)"
       d="m 34,44 -4,4 c 0,0 1,0.5 2,1 1,0.5 2,1.85 2,2.99 0,2.37 0.99,5.01 0.99,5.01 L 37,54.99 c 0,0 1,-4.63 1,-7 C 38,46.85 37,45.5 36,45 35,44.5 34,44 34,44 z"
       style="fill:none;stroke:#010000;stroke-width:4;stroke-linecap:round;stroke-linejoin:round"
       inkscape:connector-curvature="0" />
    <linearGradient
       y2="38.169998"
       x2="50.720001"
       y1="32.73"
       x1="44.860001"
       gradientUnits="userSpaceOnUse"
       id="gradient5">
      <stop
         id="stop3100"
         stop-color="#5a5a5a"
         offset="0" />
      <stop
         id="stop3102"
         stop-color="#dcdcdc"
         offset="0.2234" />
      <stop
         id="stop3104"
         stop-color="#7e7e7e"
         offset="1" />
    </linearGradient>
    <path
       id="path3106"
       transform="matrix(0.9444,0,0,0.9023,1.5578,6.1508)"
       d="m 34,44 -4,4 c 0,0 1,0.5 2,1 1,0.5 2,1.85 2,2.99 0,2.37 0.99,5.01 0.99,5.01 L 37,54.99 c 0,0 1,-4.63 1,-7 C 38,46.85 37,45.5 36,45 35,44.5 34,44 34,44 z"
       style="fill:url(#gradient5)"
       inkscape:connector-curvature="0" />
  </g>
  <g
     style="font-size:10px;font-style:normal;font-variant:normal;font-weight:bold;font-stretch:normal;line-height:125%;letter-spacing:0px;word-spacing:0px;fill:#000000;fill-opacity:1;stroke:none;font-family:DejaVu Sans Mono;-inkscape-font-specification:DejaVu Sans Mono Bold"
     id="text3153">
    <path
       d="m 51.350975,58.379883 0,3.549804 -1.420898,0 0,-3.330078 c -4e-6,-0.397131 -0.05697,-0.680334 -0.170899,-0.849609 -0.11068,-0.172522 -0.292972,-0.258785 -0.546875,-0.258789 -0.257164,4e-6 -0.460614,0.115564 -0.610351,0.34668 -0.146487,0.231123 -0.219729,0.551761 -0.219727,0.961914 l 0,3.129882 -1.420898,0 0,-5.46875 1.420898,0 0,0.820313 c 0.100909,-0.302729 0.273435,-0.537104 0.517578,-0.703125 0.244138,-0.16601 0.538734,-0.249018 0.883789,-0.249023 0.517574,5e-6 0.908199,0.172531 1.171875,0.517578 0.263667,0.341801 0.395503,0.852869 0.395508,1.533203"
       style=""
       id="path53240" />
    <path
       d="m 55.276756,58.277344 c -0.312503,3e-6 -0.55176,0.113936 -0.717773,0.341797 -0.162763,0.224612 -0.244143,0.55176 -0.244141,0.981445 -2e-6,0.426434 0.08138,0.753582 0.244141,0.981445 0.166013,0.224611 0.40527,0.336915 0.717773,0.336914 0.312497,10e-7 0.551754,-0.112303 0.717774,-0.336914 0.169267,-0.227863 0.253902,-0.555011 0.253906,-0.981445 -4e-6,-0.42643 -0.08464,-0.753578 -0.253906,-0.981445 -0.16602,-0.227861 -0.405277,-0.341794 -0.717774,-0.341797 m 1.889649,-3.466797 0,1.308594 c -0.257167,-0.146479 -0.504562,-0.255528 -0.742188,-0.327149 -0.234379,-0.07486 -0.460616,-0.112298 -0.678711,-0.112305 -0.520836,7e-6 -0.917971,0.175788 -1.191406,0.527344 -0.270184,0.348313 -0.411786,0.864263 -0.424805,1.547852 0.152993,-0.211584 0.348305,-0.369462 0.585938,-0.473633 0.237627,-0.107417 0.517575,-0.161128 0.839844,-0.161133 0.657548,5e-6 1.16536,0.208338 1.523437,0.625 0.358068,0.413415 0.537104,1.00098 0.537109,1.762695 -5e-6,0.817059 -0.201828,1.450197 -0.605468,1.899415 -0.400395,0.449218 -0.965173,0.673828 -1.694336,0.673828 -0.888674,0 -1.534833,-0.297852 -1.938477,-0.893555 -0.400391,-0.595702 -0.600586,-1.557615 -0.600586,-2.885742 0,-1.263016 0.245768,-2.208653 0.737305,-2.836914 0.491535,-0.631504 1.228839,-0.947258 2.211914,-0.947266 0.227861,8e-6 0.462236,0.02442 0.703125,0.07324 0.244136,0.04884 0.489904,0.122078 0.737305,0.219727"
       style=""
       id="path53242" />
    <path
       d="m 61.541405,56.241211 -1.840821,2.880859 1.840821,0 0,-2.880859 m -0.126953,-1.601563 1.508789,0 0,4.482422 0.800781,0 0,1.235352 -0.800781,0 0,1.572265 -1.381836,0 0,-1.572265 -2.890625,0 0,-1.396485 2.763672,-4.321289"
       style=""
       id="path53244" />
  </g>
</svg>
