<?xml version="1.0" encoding="UTF-8" standalone="no"?>
<svg
   xmlns:dc="http://purl.org/dc/elements/1.1/"
   xmlns:cc="http://creativecommons.org/ns#"
   xmlns:rdf="http://www.w3.org/1999/02/22-rdf-syntax-ns#"
   xmlns:svg="http://www.w3.org/2000/svg"
   xmlns="http://www.w3.org/2000/svg"
   xmlns:sodipodi="http://sodipodi.sourceforge.net/DTD/sodipodi-0.dtd"
   xmlns:inkscape="http://www.inkscape.org/namespaces/inkscape"
   version="1.1"
   width="64"
   height="64"
   color-interpolation="linearRGB"
   id="svg2"
   inkscape:version="0.91 r13725"
   sodipodi:docname="application-x-fictionbook.svg">
  <metadata
     id="metadata46">
    <rdf:RDF>
      <cc:Work
         rdf:about="">
        <dc:format>image/svg+xml</dc:format>
        <dc:type
           rdf:resource="http://purl.org/dc/dcmitype/StillImage" />
        <dc:title></dc:title>
      </cc:Work>
    </rdf:RDF>
  </metadata>
  <defs
     id="defs44" />
  <sodipodi:namedview
     pagecolor="#ffffff"
     bordercolor="#666666"
     borderopacity="1"
     objecttolerance="10"
     gridtolerance="10"
     guidetolerance="10"
     inkscape:pageopacity="0"
     inkscape:pageshadow="2"
     inkscape:window-width="770"
     inkscape:window-height="508"
     id="namedview42"
     showgrid="false"
     inkscape:zoom="2.6074563"
     inkscape:cx="27.506836"
     inkscape:cy="28.854785"
     inkscape:window-x="117"
     inkscape:window-y="188"
     inkscape:window-maximized="0"
     inkscape:current-layer="svg2" />
  <g
     id="g4">
    <path
       style="fill:#010101; fill-opacity:0.5725"
       d="M27 57L29 59L32.13 55.83L37 59L45.39 47.54L64 38L59 35L61 37L36 49L27 57z            M58 34L62 31L58 29L55 32L58 34z"
       id="path6" />
    <path
       style="fill:none; stroke:#010101; stroke-width:4"
       d="M6.25 30C6.25 30 11.87 36 16.87 42.5C21.87 49 26.25 55.75 26.25 55.75L59.12 36.87L32 15L6.25 30z"
       id="path8" />
    <radialGradient
       id="gradient0"
       gradientUnits="userSpaceOnUse"
       cx="0"
       cy="0"
       r="64"
       gradientTransform="matrix(0.5714,0,0,0.3333,26,35)">
      <stop
         offset="1"
         stop-color="#fffcc0"
         id="stop11" />
      <stop
         offset="0.4886"
         stop-color="#f1b706"
         id="stop13" />
    </radialGradient>
    <path
       style="fill:url(#gradient0)"
       d="M6.25 30C6.25 30 11.87 36 16.87 42.5C21.87 49 26.25 55.75 26.25 55.75L59.12 36.87L32 15L6.25 30z"
       id="path15" />
    <path
       style="fill:none; stroke:#010101; stroke-width:4"
       d="M2.62 30.87C2.62 30.87 10.95 36.26 19 41.87C27.44 47.75 35.75 52.75 35.75 52.75L58.12 26.37C58.12 26.37 45.44 20.7 35.37 15.37C30.18 12.62 26 9.37 26 9.37L2.62 30.87z"
       id="path17" />
    <linearGradient
       id="gradient1"
       gradientUnits="userSpaceOnUse"
       x1="107.04"
       y1="-17.09"
       x2="118.33"
       y2="27.99">
      <stop
         offset="0"
         stop-color="#ffefa5"
         id="stop20" />
      <stop
         offset="0.7424"
         stop-color="#fffcc0"
         id="stop22" />
      <stop
         offset="1"
         stop-color="#fff890"
         id="stop24" />
    </linearGradient>
    <path
       style="fill:url(#gradient1)"
       d="M2.62 30.87C2.62 30.87 10.95 36.26 19 41.87C27.44 47.75 35.75 52.75 35.75 52.75L58.12 26.37C58.12 26.37 45.44 20.7 35.37 15.37C30.18 12.62 26 9.37 26 9.37L2.62 30.87z"
       id="path26" />
    <linearGradient
       id="gradient2"
       gradientUnits="userSpaceOnUse"
       x1="-47.14"
       y1="-15.78"
       x2="-28.46"
       y2="-37.85">
      <stop
         offset="0"
         stop-color="#010101"
         id="stop29" />
      <stop
         offset="1"
         stop-color="#9e9e9e"
         id="stop31" />
    </linearGradient>
    <path
       style="fill:none; stroke:url(#gradient2); stroke-width:1"
       d="M20 36L34.87 20.87            M14 32L26.87 19            M26 40L38.75 26.87            M32 44L42.75 32.37"
       id="path33" />
    <linearGradient
       id="gradient3"
       gradientUnits="userSpaceOnUse"
       x1="-47.14"
       y1="-15.78"
       x2="-28.46"
       y2="-37.85">
      <stop
         offset="0"
         stop-color="#010101"
         id="stop36" />
      <stop
         offset="1"
         stop-color="#9e9e9e"
         id="stop38" />
    </linearGradient>
    <path
       style="fill:none; stroke:url(#gradient3); stroke-width:1"
       d="M29 42L44 26.37            M23 38L34.75 26.25            M17 34L28.12 22.62"
       id="path40" />
  </g>
  <g
     style="color-interpolation:linearRGB"
     id="g6767"
     transform="matrix(0.79625737,0,0,0.79625737,5.3612346,-8.5162871)">
    <g
       id="g6702">
      <path
         id="path6704"
         d="m 38,58 5,0 21,-22 -8,-4 -18,0 0,26 z"
         style="fill:#010000;fill-opacity:0.44310004"
         inkscape:connector-curvature="0" />
      <path
         id="path6706"
         d="M 2,30 21,14 58,28 58,36 38,56 2,38 2,30 Z"
         style="fill:none;stroke:#010000;stroke-width:4"
         inkscape:connector-curvature="0" />
      <linearGradient
         y2="42.900002"
         x2="50.490002"
         y1="14.68"
         x1="35.389999"
         gradientUnits="userSpaceOnUse"
         id="gradient0-5">
        <stop
           id="stop6709"
           stop-color="#c2772f"
           offset="0" />
        <stop
           id="stop6711"
           stop-color="#7f4c00"
           offset="1" />
      </linearGradient>
      <path
         id="path6713"
         d="M 38,56 2,38 2,30 38,46 38,56 Z"
         style="fill:url(#gradient0-5)"
         inkscape:connector-curvature="0" />
      <linearGradient
         y2="55.93"
         x2="27.91"
         y1="64.93"
         x1="35.459999"
         gradientUnits="userSpaceOnUse"
         id="gradient1-2">
        <stop
           id="stop6716"
           stop-color="#e6e276"
           offset="0" />
        <stop
           id="stop6718"
           stop-color="#e8bf71"
           offset="1" />
      </linearGradient>
      <path
         id="path6720"
         d="M 38,46 38,56 58,36 58,28 38,46 Z"
         style="fill:url(#gradient1-2)"
         inkscape:connector-curvature="0" />
      <radialGradient
         gradientTransform="matrix(0.6073,0.2281,-0.0814,0.2168,31.6668,28.5743)"
         r="64"
         cy="0"
         cx="0"
         gradientUnits="userSpaceOnUse"
         id="gradient2-1">
        <stop
           id="stop6723"
           stop-color="#ffb267"
           offset="0" />
        <stop
           id="stop6725"
           stop-color="#a35d01"
           offset="1" />
      </radialGradient>
      <path
         id="path6727"
         d="M 4.23,28.11 21,14 58,28 40,44 4.23,28.11 Z"
         style="fill:url(#gradient2-1)"
         inkscape:connector-curvature="0" />
      <linearGradient
         y2="26.73"
         x2="57.119999"
         y1="5.0799999"
         x1="33.549999"
         gradientUnits="userSpaceOnUse"
         id="gradient3-6">
        <stop
           id="stop6730"
           stop-color="#f0b840"
           offset="0" />
        <stop
           id="stop6732"
           stop-color="#b96d23"
           offset="1" />
      </linearGradient>
      <path
         id="path6734"
         d="M 2,30 4.23,28.11 40.37,43.86 38,46 2,30 Z"
         style="fill:url(#gradient3-6)"
         inkscape:connector-curvature="0" />
      <linearGradient
         y2="-48"
         x2="62"
         y1="-48"
         x1="26"
         gradientUnits="userSpaceOnUse"
         id="gradient4">
        <stop
           id="stop6737"
           stop-color="#7f4c00"
           offset="0" />
        <stop
           id="stop6739"
           stop-color="#e8bf71"
           offset="1" />
      </linearGradient>
      <path
         id="path6741"
         transform="matrix(0.8333,0,0,0.8363,9.6666,3.2363)"
         d="m 58,32 -24,22 2,0"
         style="fill:url(#gradient4)"
         inkscape:connector-curvature="0" />
      <linearGradient
         y2="-48"
         x2="62"
         y1="-48"
         x1="26"
         gradientUnits="userSpaceOnUse"
         id="gradient5">
        <stop
           id="stop6744"
           stop-color="#7f4c00"
           offset="0" />
        <stop
           id="stop6746"
           stop-color="#e8bf71"
           offset="1" />
      </linearGradient>
      <path
         id="path6748"
         transform="matrix(0.8333,0,0,0.8363,9.6666,5.9963)"
         d="m 58,32 -24,22 2,0"
         style="fill:url(#gradient5)"
         inkscape:connector-curvature="0" />
      <linearGradient
         y2="-48"
         x2="62"
         y1="-48"
         x1="26"
         gradientUnits="userSpaceOnUse"
         id="gradient6">
        <stop
           id="stop6751"
           stop-color="#7f4c00"
           offset="0" />
        <stop
           id="stop6753"
           stop-color="#e8bf71"
           offset="1" />
      </linearGradient>
      <path
         id="path6755"
         transform="matrix(0.8333,0,0,0.8363,9.6666,7.8363)"
         d="m 58,32 -24,22 2,0"
         style="fill:url(#gradient6)"
         inkscape:connector-curvature="0" />
      <path
         id="path6757"
         d="M 58,28 40,44 38.87,45.75 38.75,50.62 39,56 58.25,36.87"
         style="fill:none;stroke:#3c2401;stroke-width:1"
         inkscape:connector-curvature="0" />
      <path
         id="path6759"
         d="M 4,28 41,44 38.87,45.75 38.75,50.62 39,56 58.25,36.87"
         style="fill:none;stroke:#3c2401;stroke-width:1"
         inkscape:connector-curvature="0" />
    </g>
  </g>
</svg>
