<?xml version="1.0" encoding="UTF-8" standalone="no"?>
<svg
   xmlns:dc="http://purl.org/dc/elements/1.1/"
   xmlns:cc="http://creativecommons.org/ns#"
   xmlns:rdf="http://www.w3.org/1999/02/22-rdf-syntax-ns#"
   xmlns:svg="http://www.w3.org/2000/svg"
   xmlns="http://www.w3.org/2000/svg"
   xmlns:xlink="http://www.w3.org/1999/xlink"
   xmlns:sodipodi="http://sodipodi.sourceforge.net/DTD/sodipodi-0.dtd"
   xmlns:inkscape="http://www.inkscape.org/namespaces/inkscape"
   version="1.1"
   width="64"
   height="64"
   color-interpolation="linearRGB"
   id="svg2"
   sodipodi:version="0.32"
   inkscape:version="0.91 r13725"
   sodipodi:docname="application-x-gramps-package.svg"
   inkscape:output_extension="org.inkscape.output.svg.inkscape">
  <metadata
     id="metadata31">
    <rdf:RDF>
      <cc:Work
         rdf:about="">
        <dc:format>image/svg+xml</dc:format>
        <dc:type
           rdf:resource="http://purl.org/dc/dcmitype/StillImage" />
        <dc:title></dc:title>
      </cc:Work>
    </rdf:RDF>
  </metadata>
  <defs
     id="defs29">
    <inkscape:perspective
       sodipodi:type="inkscape:persp3d"
       inkscape:vp_x="0 : 32 : 1"
       inkscape:vp_y="0 : 1000 : 0"
       inkscape:vp_z="64 : 32 : 1"
       inkscape:persp3d-origin="32 : 21.333333 : 1"
       id="perspective33" />
    <inkscape:perspective
       id="perspective35"
       inkscape:persp3d-origin="32 : 21.333333 : 1"
       inkscape:vp_z="64 : 32 : 1"
       inkscape:vp_y="0 : 1000 : 0"
       inkscape:vp_x="0 : 32 : 1"
       sodipodi:type="inkscape:persp3d" />
    <inkscape:perspective
       id="perspective3563"
       inkscape:persp3d-origin="0.5 : 0.33333333 : 1"
       inkscape:vp_z="1 : 0.5 : 1"
       inkscape:vp_y="0 : 1000 : 0"
       inkscape:vp_x="0 : 0.5 : 1"
       sodipodi:type="inkscape:persp3d" />
    <linearGradient
       inkscape:collect="always"
       xlink:href="#linearGradient2308"
       id="linearGradient3553"
       gradientUnits="userSpaceOnUse"
       x1="57"
       y1="29.928572"
       x2="97"
       y2="29.928572" />
    <linearGradient
       id="linearGradient2308">
      <stop
         id="stop2310"
         offset="0"
         style="stop-color:#edd400;stop-opacity:1;" />
      <stop
         id="stop2312"
         offset="1"
         style="stop-color:#fff492;stop-opacity:1;" />
    </linearGradient>
    <linearGradient
       id="linearGradient3572">
      <stop
         id="stop3574"
         offset="0"
         style="stop-color:#edd400;stop-opacity:1;" />
      <stop
         id="stop3576"
         offset="1"
         style="stop-color:#fff492;stop-opacity:1;" />
    </linearGradient>
    <linearGradient
       id="linearGradient3579">
      <stop
         id="stop3581"
         offset="0"
         style="stop-color:#edd400;stop-opacity:1;" />
      <stop
         id="stop3583"
         offset="1"
         style="stop-color:#fff492;stop-opacity:1;" />
    </linearGradient>
    <linearGradient
       id="linearGradient3586">
      <stop
         id="stop3588"
         offset="0"
         style="stop-color:#edd400;stop-opacity:1;" />
      <stop
         id="stop3590"
         offset="1"
         style="stop-color:#fff492;stop-opacity:1;" />
    </linearGradient>
    <linearGradient
       id="linearGradient3593">
      <stop
         id="stop3595"
         offset="0"
         style="stop-color:#edd400;stop-opacity:1;" />
      <stop
         id="stop3597"
         offset="1"
         style="stop-color:#fff492;stop-opacity:1;" />
    </linearGradient>
    <linearGradient
       id="linearGradient3600">
      <stop
         id="stop3602"
         offset="0"
         style="stop-color:#edd400;stop-opacity:1;" />
      <stop
         id="stop3604"
         offset="1"
         style="stop-color:#fff492;stop-opacity:1;" />
    </linearGradient>
    <linearGradient
       id="linearGradient3607">
      <stop
         id="stop3609"
         offset="0"
         style="stop-color:#edd400;stop-opacity:1;" />
      <stop
         id="stop3611"
         offset="1"
         style="stop-color:#fff492;stop-opacity:1;" />
    </linearGradient>
    <linearGradient
       y2="29.928572"
       x2="97"
       y1="29.928572"
       x1="57"
       gradientUnits="userSpaceOnUse"
       id="linearGradient3622"
       xlink:href="#linearGradient2308"
       inkscape:collect="always" />
    <inkscape:perspective
       id="perspective6986"
       inkscape:persp3d-origin="0.5 : 0.33333333 : 1"
       inkscape:vp_z="1 : 0.5 : 1"
       inkscape:vp_y="0 : 1000 : 0"
       inkscape:vp_x="0 : 0.5 : 1"
       sodipodi:type="inkscape:persp3d" />
    <inkscape:perspective
       id="perspective8425"
       inkscape:persp3d-origin="0.5 : 0.33333333 : 1"
       inkscape:vp_z="1 : 0.5 : 1"
       inkscape:vp_y="0 : 1000 : 0"
       inkscape:vp_x="0 : 0.5 : 1"
       sodipodi:type="inkscape:persp3d" />
    <linearGradient
       id="linearGradient2308-5">
      <stop
         id="stop2310-4"
         offset="0"
         style="stop-color:#edd400;stop-opacity:1;" />
      <stop
         id="stop2312-4"
         offset="1"
         style="stop-color:#fff492;stop-opacity:1;" />
    </linearGradient>
    <linearGradient
       inkscape:collect="always"
       id="linearGradient3261">
      <stop
         style="stop-color:#ffffff;stop-opacity:1;"
         offset="0"
         id="stop3263" />
      <stop
         style="stop-color:#ffffff;stop-opacity:0;"
         offset="1"
         id="stop3265" />
    </linearGradient>
    <linearGradient
       id="linearGradient5891"
       inkscape:collect="always">
      <stop
         id="stop5893"
         offset="0"
         style="stop-color:#ffffff;stop-opacity:1;" />
      <stop
         id="stop5895"
         offset="1"
         style="stop-color:#ffffff;stop-opacity:0;" />
    </linearGradient>
    <linearGradient
       y2="14.09375"
       x2="32.5625"
       y1="11.21875"
       x1="23.9375"
       gradientTransform="translate(22.686808,14.239244)"
       gradientUnits="userSpaceOnUse"
       id="linearGradient8446"
       xlink:href="#linearGradient5891"
       inkscape:collect="always" />
    <linearGradient
       inkscape:collect="always"
       xlink:href="#linearGradient2308-5"
       id="linearGradient8491"
       gradientUnits="userSpaceOnUse"
       gradientTransform="matrix(0.6931485,0,0,-0.6847878,24.156898,40.877311)"
       x1="22.312141"
       y1="20.909737"
       x2="22.312141"
       y2="24.184505" />
    <linearGradient
       inkscape:collect="always"
       xlink:href="#linearGradient3261"
       id="linearGradient8493"
       gradientUnits="userSpaceOnUse"
       gradientTransform="translate(12.686808,3.2392426)"
       x1="31.246544"
       y1="21.75"
       x2="49.086681"
       y2="43.582108" />
    <linearGradient
       id="linearGradient259">
      <stop
         style="stop-color:#fafafa;stop-opacity:1.0000000;"
         offset="0.0000000"
         id="stop260" />
      <stop
         style="stop-color:#bbbbbb;stop-opacity:1.0000000;"
         offset="1.0000000"
         id="stop261" />
    </linearGradient>
    <linearGradient
       id="linearGradient269">
      <stop
         style="stop-color:#a3a3a3;stop-opacity:1.0000000;"
         offset="0.0000000"
         id="stop270" />
      <stop
         style="stop-color:#8a8a8a;stop-opacity:1;"
         offset="1"
         id="stop271" />
    </linearGradient>
    <linearGradient
       id="linearGradient15662">
      <stop
         style="stop-color:#ffffff;stop-opacity:1.0000000;"
         offset="0.0000000"
         id="stop15664" />
      <stop
         style="stop-color:#f8f8f8;stop-opacity:1.0000000;"
         offset="1.0000000"
         id="stop15666" />
    </linearGradient>
    <linearGradient
       id="linearGradient3702">
      <stop
         id="stop3704"
         offset="0"
         style="stop-color:black;stop-opacity:0;" />
      <stop
         style="stop-color:black;stop-opacity:1;"
         offset="0.5"
         id="stop3710" />
      <stop
         id="stop3706"
         offset="1"
         style="stop-color:black;stop-opacity:0;" />
    </linearGradient>
    <radialGradient
       gradientUnits="userSpaceOnUse"
       gradientTransform="matrix(0.05513908,0,0,0.04006233,8.838008,15.75957)"
       fy="623.87636"
       fx="449.36815"
       r="82.947255"
       cy="623.87636"
       cx="449.36815"
       id="radialGradient631"
       xlink:href="#linearGradient627" />
    <linearGradient
       id="linearGradient627">
      <stop
         id="stop628"
         offset="0"
         style="stop-color:#7f7f7f;stop-opacity:1;" />
      <stop
         id="stop629"
         offset="1"
         style="stop-color:#000000;stop-opacity:0;" />
    </linearGradient>
    <radialGradient
       inkscape:collect="always"
       xlink:href="#linearGradient627"
       id="radialGradient5403"
       gradientUnits="userSpaceOnUse"
       gradientTransform="matrix(0.07850764,0,0,0.05704119,-0.01793508,-58.40344)"
       cx="268.2341"
       cy="233.79426"
       fx="268.2341"
       fy="233.79426"
       r="82.947255" />
    <radialGradient
       inkscape:collect="always"
       xlink:href="#linearGradient627"
       id="radialGradient5405"
       gradientUnits="userSpaceOnUse"
       gradientTransform="matrix(0.07850764,0,0,0.05704119,-0.01793508,-58.40344)"
       cx="83.903561"
       cy="392.17353"
       fx="83.903561"
       fy="392.17353"
       r="82.947255" />
    <radialGradient
       inkscape:collect="always"
       xlink:href="#linearGradient627"
       id="radialGradient5407"
       gradientUnits="userSpaceOnUse"
       gradientTransform="matrix(0.07850764,0,0,0.05704119,-0.01793508,-58.40344)"
       cx="449.36815"
       cy="137.74019"
       fx="449.36815"
       fy="137.74019"
       r="82.947255" />
    <radialGradient
       inkscape:collect="always"
       xlink:href="#linearGradient627"
       id="radialGradient5409"
       gradientUnits="userSpaceOnUse"
       gradientTransform="matrix(0.07850764,0,0,0.05704119,-0.01793508,-58.40344)"
       cx="448.30267"
       cy="296.11937"
       fx="448.30267"
       fy="296.11937"
       r="82.947255" />
    <radialGradient
       inkscape:collect="always"
       xlink:href="#linearGradient627"
       id="radialGradient5411"
       gradientUnits="userSpaceOnUse"
       gradientTransform="matrix(0.07850764,0,0,0.05704119,-0.01793508,-58.40344)"
       cx="448.83541"
       cy="465.4972"
       fx="448.83541"
       fy="465.4972"
       r="82.947255" />
    <radialGradient
       inkscape:collect="always"
       xlink:href="#linearGradient627"
       id="radialGradient5413"
       gradientUnits="userSpaceOnUse"
       gradientTransform="matrix(0.07850764,0,0,0.05704119,-0.01793508,-58.40344)"
       cx="449.36815"
       cy="623.87636"
       fx="449.36815"
       fy="623.87636"
       r="82.947255" />
  </defs>
  <sodipodi:namedview
     inkscape:window-height="708"
     inkscape:window-width="1364"
     inkscape:pageshadow="2"
     inkscape:pageopacity="0.0"
     guidetolerance="10.0"
     gridtolerance="10.0"
     objecttolerance="10.0"
     borderopacity="1.0"
     bordercolor="#666666"
     pagecolor="#ffffff"
     id="base"
     showgrid="false"
     inkscape:zoom="4.7182536"
     inkscape:cx="19.768964"
     inkscape:cy="32.94676"
     inkscape:window-x="2"
     inkscape:window-y="30"
     inkscape:current-layer="svg2"
     inkscape:window-maximized="1" />
  <g
     style="color-interpolation:linearRGB"
     id="g7620"
     transform="matrix(0.78345592,0,0,0.78345592,-0.47841299,16.77803)">
    <g
       id="g7578">
      <path
         id="path7580"
         d="m 36,59 5,0 c 0,0 4.5,-3.38 7.12,-6.92 2.91,-3.91 3.96,-8.03 3.96,-8.03 0,0 4.98,-4.01 7.96,-8.03 C 63.02,32.01 63,28 63,28 l -4,-2 -2,5 -21,28 z"
         style="fill:#010101;fill-opacity:0.5333"
         inkscape:connector-curvature="0" />
      <path
         id="path7582"
         d="m 3,28 c 0,0 -1,2.47 -1,5.25 0,3.61 0.62,7.37 0.62,7.37 0,0 2.35,1.95 5.61,3.68 3.97,2.1 8.38,3.43 8.38,3.43 L 16.62,33.87 29.5,20.75 c 0,0 -4.05,-1.65 -7.84,-3.2 -3.37,-1.38 -6.55,-1.67 -6.55,-1.67 0,0 -4.07,2.07 -7.24,5.24 C 4.49,24.5 3,28 3,28 Z m 27,-8.25 8.93,-9.69 c 0,0 -3.86,-1.4 -7.51,-2.73 C 28.13,6.13 25,6 25,6 25,6 23.27,6.72 21.37,8.62 19.05,10.94 16.49,13.5 16.49,13.5 L 30,19.75 Z m 1.5,1.62 16.37,5.63 0.05,14.96 c 0,0 3.92,-3.85 6.44,-7.18 1.93,-2.54 2.64,-5.16 2.64,-5.16 0,0 1,-3.67 1,-7.25 0,-2.84 -1.75,-4.87 -1.75,-4.87 0,0 -4.04,-2.61 -8.92,-4.38 -3.54,-1.29 -6.61,-1.91 -6.61,-1.91 0,0 -2.05,1.44 -4.32,3.58 -2.79,2.64 -4.9,6.58 -4.9,6.58 z M 46.62,29 c 0,0 -4.2,-2.15 -8.65,-4.06 -3.97,-1.7 -7.47,-2.69 -7.47,-2.69 0,0 -2.91,2.24 -5.72,5.29 -3.16,3.43 -6.16,7.08 -6.16,7.08 0,0 -0.38,2.97 -0.38,6.26 0,4.1 0.63,8.59 0.63,8.59 0,0 3.28,2.19 7.43,4.39 4.69,2.49 9.7,3.39 9.7,3.39 0,0 3.12,-2.38 6.12,-6.33 2.76,-3.63 4.65,-7.25 4.65,-7.25 0,0 0.46,-3.59 0.43,-7.31 C 47.16,32.62 46.62,29 46.62,29 Z"
         style="fill:none;stroke:#010000;stroke-width:4"
         inkscape:connector-curvature="0" />
      <linearGradient
         y2="-27.700001"
         x2="58.34"
         y1="-38.139999"
         x1="13.84"
         gradientUnits="userSpaceOnUse"
         id="gradient0-4">
        <stop
           id="stop7585"
           stop-color="#fff8ea"
           offset="0" />
        <stop
           id="stop7587"
           stop-color="#f5deac"
           offset="1" />
      </linearGradient>
      <path
         id="path7589"
         d="m 46.62,29 c 0,0 -4.2,-2.15 -8.65,-4.06 -3.97,-1.7 -7.47,-2.69 -7.47,-2.69 0,0 -2.91,2.24 -5.72,5.29 -3.16,3.43 -6.16,7.08 -6.16,7.08 L 36,42 c 0,0 3.67,-3.28 6.34,-6.54 C 44.98,32.22 46.62,29 46.62,29 Z M 3,28 16.62,33.87 29.5,20.75 c 0,0 -4.05,-1.65 -7.84,-3.2 -3.37,-1.38 -6.55,-1.67 -6.55,-1.67 0,0 -4.07,2.07 -7.24,5.24 C 4.49,24.5 3,28 3,28 Z m 27,-8.25 8.93,-9.69 c 0,0 -3.86,-1.4 -7.51,-2.73 C 28.13,6.13 25,6 25,6 25,6 23.27,6.72 21.37,8.62 19.05,10.94 16.49,13.5 16.49,13.5 L 30,19.75 Z m 1.5,1.62 16.37,5.63 c 0,0 3.47,-2.81 5.73,-5.37 1.9,-2.15 2.65,-4.13 2.65,-4.13 0,0 -4.04,-2.61 -8.92,-4.38 -3.54,-1.29 -6.61,-1.91 -6.61,-1.91 0,0 -2.05,1.44 -4.32,3.58 -2.79,2.64 -4.9,6.58 -4.9,6.58 z"
         style="fill:url(#gradient0-4)"
         inkscape:connector-curvature="0" />
      <linearGradient
         y2="10.51"
         x2="86.099998"
         y1="-7.9000001"
         x1="44.720001"
         gradientUnits="userSpaceOnUse"
         id="gradient1-5">
        <stop
           id="stop7592"
           stop-color="#983f04"
           offset="0" />
        <stop
           id="stop7594"
           stop-color="#e6c276"
           offset="1" />
      </linearGradient>
      <path
         id="path7596"
         d="m 46.62,29 c 0,0 -1.64,3.22 -4.28,6.46 C 39.67,38.72 36,42 36,42 l 0,15.25 c 0,0 3.12,-2.38 6.12,-6.33 2.76,-3.63 4.65,-7.25 4.65,-7.25 0,0 0.46,-3.59 0.43,-7.31 C 47.16,32.62 46.62,29 46.62,29 Z m 1.25,-2 0.05,14.96 c 0,0 3.92,-3.85 6.44,-7.18 1.93,-2.54 2.64,-5.16 2.64,-5.16 0,0 1,-3.67 1,-7.25 0,-2.84 -1.75,-4.87 -1.75,-4.87 0,0 -0.75,1.98 -2.65,4.13 C 51.34,24.19 47.87,27 47.87,27 Z"
         style="fill:url(#gradient1-5)"
         inkscape:connector-curvature="0" />
      <linearGradient
         y2="71.849998"
         x2="-10.6"
         y1="90.919998"
         x1="17.719999"
         gradientUnits="userSpaceOnUse"
         id="gradient2">
        <stop
           id="stop7599"
           stop-color="#eebf5a"
           offset="0" />
        <stop
           id="stop7601"
           stop-color="#ffebc0"
           offset="1" />
      </linearGradient>
      <path
         id="path7603"
         d="M 36,42 18.62,34.62 c 0,0 -0.38,2.97 -0.38,6.26 0,4.1 0.63,8.59 0.63,8.59 0,0 3.28,2.19 7.43,4.39 4.69,2.49 9.7,3.39 9.7,3.39 L 36,42 Z"
         style="fill:url(#gradient2)"
         inkscape:connector-curvature="0" />
      <path
         id="path7605"
         d="m 37,31 c 0,0 -6,-14 -10,-16 -4,-2 -16,5 -9,6 7,1 24,-7 28,-4 4,3 5,4 1,4 -1.58,0 -16,-1 -16,-1 0,0 -2.63,0.67 -7,3.25 -4.12,2.42 -9,4 -9,4"
         style="fill:none;stroke:#010000;stroke-width:2"
         inkscape:connector-curvature="0" />
      <linearGradient
         y2="-64"
         x2="21.139999"
         y1="-64"
         x1="2.8499999"
         gradientUnits="userSpaceOnUse"
         id="gradient3">
        <stop
           id="stop7608"
           stop-color="#ffefce"
           offset="0" />
        <stop
           id="stop7610"
           stop-color="#ffd16e"
           offset="1" />
      </linearGradient>
      <path
         id="path7612"
         d="m 3,28 c 0,0 -1,2.47 -1,5.25 0,3.61 0.62,7.37 0.62,7.37 0,0 2.35,1.95 5.61,3.68 3.97,2.1 8.38,3.43 8.38,3.43 L 16.62,33.87 3,28 Z"
         style="fill:url(#gradient3)"
         inkscape:connector-curvature="0" />
    </g>
  </g>
  <g
     id="g7642"
     transform="matrix(0,-1,1,0,22.91464,55.887702)">
    <path
       inkscape:connector-curvature="0"
       style="font-size:12px;fill:none;stroke:#000000;stroke-width:0.04870966"
       d="m 36.702242,10.422111 0,3.252029"
       id="path617" />
    <path
       inkscape:connector-curvature="0"
       style="fill:none;stroke:#000000;stroke-width:0.58749998;stroke-linecap:butt;stroke-linejoin:miter;stroke-dasharray:none;stroke-opacity:1"
       d="m 45.633697,16.026079 -0.01642,-2.351939 -17.774008,0.112139 0.0034,2.166881"
       id="path618"
       sodipodi:nodetypes="cccc" />
    <path
       inkscape:connector-curvature="0"
       style="font-size:12px;fill:none;stroke:#000000;stroke-width:0.61714005;stroke-opacity:0.26950001"
       d="m 36.085476,10.36604 0,3.588444"
       id="path638" />
    <path
       inkscape:connector-curvature="0"
       style="fill:none;stroke:#000000;stroke-width:0.58749998;stroke-linecap:butt;stroke-linejoin:miter;stroke-dasharray:none;stroke-opacity:0.26950001"
       d="m 31.712063,31.131547 0.0068,-2.298846 -8.921831,0.03625 -0.01296,2.282425"
       id="path640"
       sodipodi:nodetypes="cccc" />
    <path
       inkscape:connector-curvature="0"
       style="font-size:12px;fill:none;stroke:#000000;stroke-width:0.62544167;stroke-opacity:0.26950001"
       d="m 45.05658,24.551603 0,3.812731"
       id="path641" />
    <path
       inkscape:connector-curvature="0"
       style="fill:none;stroke:#000000;stroke-width:0.58749998;stroke-linecap:butt;stroke-linejoin:miter;stroke-dasharray:none;stroke-opacity:0.26950001"
       d="m 50.379775,31.194424 0.0034,-2.437616 -8.934863,0.04928 0.0034,2.246173"
       id="path642"
       sodipodi:nodetypes="cccc" />
    <path
       inkscape:connector-curvature="0"
       style="font-size:12px;fill:none;stroke:#000000;stroke-width:0.63885504;stroke-opacity:0.26950001"
       d="m 27.282578,24.399818 0,4.024897"
       id="path643"
       sodipodi:nodetypes="cc" />
    <path
       inkscape:connector-curvature="0"
       style="fill:none;stroke:#000000;stroke-width:0.58749998;stroke-linecap:butt;stroke-linejoin:miter;stroke-dasharray:none;stroke-opacity:1"
       d="m 50.996542,30.353384 0.0034,-2.437616 -8.934861,0.04928 0.0034,2.246173"
       id="path622"
       sodipodi:nodetypes="cccc" />
    <path
       inkscape:connector-curvature="0"
       style="font-size:12px;fill:none;stroke:#000000;stroke-width:0.58749998;stroke-dasharray:none"
       d="m 45.673346,24.775883 0,3.364171"
       id="path621" />
    <path
       inkscape:connector-curvature="0"
       style="font-size:12px;fill:none;stroke:#000000;stroke-width:0.58749998;stroke-dasharray:none"
       d="m 27.843273,24.736233 0,3.403821"
       id="path623"
       sodipodi:nodetypes="cc" />
    <path
       inkscape:connector-curvature="0"
       style="fill:none;stroke:#000000;stroke-width:0.58749998;stroke-linecap:butt;stroke-linejoin:miter;stroke-dasharray:none;stroke-opacity:1"
       d="m 32.328829,30.290508 0.0068,-2.298846 -8.921832,0.03625 -0.01296,2.282425"
       id="path620"
       sodipodi:nodetypes="cccc" />
    <path
       inkscape:connector-curvature="0"
       style="fill:none;stroke:#000000;stroke-width:0.58749998;stroke-linecap:butt;stroke-linejoin:miter;stroke-dasharray:none;stroke-opacity:0.26950001"
       d="m 45.016929,16.833847 -0.01642,-2.318668 -17.774008,0.11214 0.0034,2.166881"
       id="path639"
       sodipodi:nodetypes="cccc" />
    <path
       inkscape:connector-curvature="0"
       style="fill:none;stroke:#000000;stroke-width:0.58749998;stroke-linecap:butt;stroke-linejoin:miter;stroke-dasharray:none;stroke-opacity:1"
       d="m 36.646171,10.422118 0,3.083814"
       id="path614" />
    <path
       inkscape:connector-curvature="0"
       style="fill:#70d4bc;fill-opacity:1;fill-rule:evenodd;stroke:none"
       d="m 43.585122,10.185224 c -3.194037,7.068293 -3.194037,7.068293 -3.194037,7.068293"
       id="path664" />
    <path
       inkscape:connector-curvature="0"
       style="font-size:12px;fill:#d7d7d7;fill-rule:evenodd;stroke:#b8b8b8;stroke-width:0.088125;stroke-linecap:square;stroke-dasharray:none"
       d="m 28.131447,14.167113 c -0.0017,-0.0014 -0.0054,1.739248 -0.0054,1.739248 l 0,4e-5"
       id="path670"
       sodipodi:nodetypes="ccc" />
    <path
       inkscape:connector-curvature="0"
       style="font-size:12px;fill:#d7d7d7;fill-rule:evenodd;stroke:#b8b8b8;stroke-width:0.08767714;stroke-linecap:square;stroke-opacity:1"
       d="m 27.577083,13.499019 c -0.0068,0.0019 8.664441,-0.05566 8.664441,-0.05566 l 1.93e-4,-8e-6"
       id="path671"
       sodipodi:nodetypes="ccc" />
    <path
       inkscape:connector-curvature="0"
       style="font-size:12px;fill:#d7d7d7;fill-rule:evenodd;stroke:#b8b8b8;stroke-width:0.088125;stroke-linecap:square;stroke-dasharray:none;stroke-opacity:1"
       d="m 36.987632,13.446741 c -0.0071,0.0019 8.899534,-0.05566 8.899534,-0.05566 l 2.07e-4,-8e-6"
       id="path672"
       sodipodi:nodetypes="ccc" />
    <path
       inkscape:connector-curvature="0"
       style="font-size:12px;fill:#d7d7d7;fill-rule:evenodd;stroke:#b8b8b8;stroke-width:0.088125;stroke-linecap:square;stroke-dasharray:none;stroke-opacity:1"
       d="m 45.894119,13.387914 c -0.0019,-0.002 0.01925,2.558886 0.01925,2.558886 l 0,4.7e-5"
       id="path673"
       sodipodi:nodetypes="ccc" />
    <path
       inkscape:connector-curvature="0"
       style="font-size:12px;fill:#d7d7d7;fill-rule:evenodd;stroke:#b8b8b8;stroke-width:0.088125;stroke-linecap:square;stroke-dasharray:none;stroke-opacity:1"
       d="m 36.903481,10.504401 c -0.0019,-0.0023 0.01925,2.943351 0.01925,2.943351 l 0,5.4e-5"
       id="path674"
       sodipodi:nodetypes="ccc" />
    <path
       inkscape:connector-curvature="0"
       style="font-size:12px;fill:#d7d7d7;fill-rule:evenodd;stroke:#b8b8b8;stroke-width:0.08786501;stroke-linecap:square"
       d="m 45.979937,27.688043 c -0.0043,0.0019 5.292238,-0.05566 5.292238,-0.05566 l 1.28e-4,-7e-6"
       id="path875"
       sodipodi:nodetypes="ccc" />
    <path
       inkscape:connector-curvature="0"
       style="font-size:12px;fill:#d7d7d7;fill-rule:evenodd;stroke:#b8b8b8;stroke-width:0.088125;stroke-linecap:square;stroke-dasharray:none;stroke-opacity:1"
       d="m 51.268588,27.733775 c -0.0019,-0.002 0.01925,2.558887 0.01925,2.558887 l 0,4.7e-5"
       id="path876"
       sodipodi:nodetypes="ccc" />
    <path
       inkscape:connector-curvature="0"
       style="font-size:12px;fill:#d7d7d7;fill-rule:evenodd;stroke:#b8b8b8;stroke-width:0.08654556;stroke-linecap:square"
       d="m 45.916698,24.850263 c -0.0019,-0.0023 0.01925,2.838791 0.01925,2.838791 l 0,5.2e-5"
       id="path877"
       sodipodi:nodetypes="ccc" />
    <rect
       transform="matrix(0,1,-1,0,0,0)"
       style="font-size:12px;fill:url(#radialGradient5403);fill-opacity:0.29080003;fill-rule:evenodd;stroke:none"
       id="rect644"
       width="9.1365852"
       height="6.6383581"
       x="16.544712"
       y="-48.282986" />
    <path
       inkscape:connector-curvature="0"
       style="font-size:12px;fill:#d7d7d7;fill-rule:evenodd;stroke:#b8b8b8;stroke-width:0.088125;stroke-linecap:square;stroke-dasharray:none"
       d="m 42.350316,28.336542 c -0.0017,-0.0014 -0.0054,1.838242 -0.0054,1.838242 l 0,4e-5"
       id="path878"
       sodipodi:nodetypes="ccc" />
    <path
       inkscape:connector-curvature="0"
       style="font-size:12px;fill:#d7d7d7;fill-rule:evenodd;stroke:#b8b8b8;stroke-width:0.08812468;stroke-linecap:square"
       d="m 41.816871,27.688484 c -0.0027,0.0019 3.43028,-0.01367 3.43028,-0.01367 l 7.4e-5,-5e-6"
       id="path879"
       sodipodi:nodetypes="ccc" />
    <path
       inkscape:connector-curvature="0"
       style="font-size:12px;fill:#d7d7d7;fill-rule:evenodd;stroke:#b8b8b8;stroke-width:0.08812477;stroke-linecap:square"
       d="m 28.138527,27.734618 c -0.0036,0.0019 4.46447,-0.01669 4.46447,-0.01669 l 1.07e-4,-7e-6"
       id="path880"
       sodipodi:nodetypes="ccc" />
    <path
       inkscape:connector-curvature="0"
       style="font-size:12px;fill:#d7d7d7;fill-rule:evenodd;stroke:#b8b8b8;stroke-width:0.088125;stroke-linecap:square;stroke-dasharray:none"
       d="m 32.596987,27.770145 c -0.0031,-0.002 0.009,2.470387 0.009,2.470387 l 0,4e-5"
       id="path881"
       sodipodi:nodetypes="ccc" />
    <path
       inkscape:connector-curvature="0"
       style="font-size:12px;fill:#d7d7d7;fill-rule:evenodd;stroke:#b8b8b8;stroke-width:0.08654556;stroke-linecap:square"
       d="m 28.105061,24.827684 c -0.0019,-0.0023 0.01925,2.838791 0.01925,2.838791 l 0,5.2e-5"
       id="path882"
       sodipodi:nodetypes="ccc" />
    <path
       inkscape:connector-curvature="0"
       style="font-size:12px;fill:#d7d7d7;fill-rule:evenodd;stroke:#b8b8b8;stroke-width:0.088125;stroke-linecap:square;stroke-dasharray:none"
       d="m 23.691477,28.400898 c -0.0017,-0.0014 -0.0054,1.848695 -0.0054,1.848695 l 0,4e-5"
       id="path884"
       sodipodi:nodetypes="ccc" />
    <path
       inkscape:connector-curvature="0"
       style="font-size:12px;fill:#d7d7d7;fill-rule:evenodd;stroke:#b8b8b8;stroke-width:0.088125;stroke-linecap:square;stroke-dasharray:none"
       d="m 23.147572,27.784205 c -0.0034,0.0019 4.302705,-0.01367 4.302705,-0.01367 l 9.4e-5,-6e-6"
       id="path885"
       sodipodi:nodetypes="ccc" />
    <rect
       transform="matrix(0,1,-1,0,0,0)"
       style="font-size:12px;fill:url(#radialGradient5405);fill-opacity:0.29080003;fill-rule:evenodd;stroke:none"
       id="rect887"
       width="9.1365852"
       height="6.6383581"
       x="2.0733612"
       y="-39.24884" />
    <rect
       transform="matrix(0,1,-1,0,0,0)"
       style="font-size:12px;fill:url(#radialGradient5407);fill-opacity:0.29080003;fill-rule:evenodd;stroke:none"
       id="rect888"
       width="9.1365852"
       height="6.6383581"
       x="30.765116"
       y="-53.762028" />
    <rect
       transform="matrix(0,1,-1,0,0,0)"
       style="font-size:12px;fill:url(#radialGradient5409);fill-opacity:0.29080003;fill-rule:evenodd;stroke:none"
       id="rect889"
       width="9.1365852"
       height="6.6383581"
       x="30.681473"
       y="-44.72789" />
    <rect
       transform="matrix(0,1,-1,0,0,0)"
       style="font-size:12px;fill:url(#radialGradient5411);fill-opacity:0.29080003;fill-rule:evenodd;stroke:none"
       id="rect890"
       width="9.1365852"
       height="6.6383581"
       x="30.723293"
       y="-35.066376" />
    <rect
       transform="matrix(0,1,-1,0,0,0)"
       style="font-size:12px;fill:url(#radialGradient5413);fill-opacity:0.29080003;fill-rule:evenodd;stroke:none"
       id="rect892"
       width="9.1365852"
       height="6.6383581"
       x="30.765116"
       y="-26.032236" />
    <rect
       transform="matrix(0,1,-1,0,0,0)"
       y="-26.086393"
       x="30.746475"
       height="5.4387341"
       width="7.9618578"
       id="rect712"
       style="font-size:12px;fill:#ffcc00;fill-opacity:1;fill-rule:evenodd;stroke:#000000;stroke-width:0.58750004;stroke-dasharray:none;stroke-dashoffset:5;stroke-opacity:1" />
    <rect
       transform="matrix(0,1,-1,0,0,0)"
       y="-35.036869"
       x="30.704643"
       height="5.4387341"
       width="7.9618578"
       id="rect706"
       style="font-size:12px;fill:#ffcc00;fill-opacity:1;fill-rule:evenodd;stroke:#000000;stroke-width:0.58750004;stroke-dasharray:none;stroke-dashoffset:5;stroke-opacity:1" />
    <rect
       transform="matrix(0,1,-1,0,0,0)"
       y="-44.782001"
       x="30.641911"
       height="5.4387341"
       width="7.9618578"
       id="rect700"
       style="font-size:12px;fill:#ffcc00;fill-opacity:1;fill-rule:evenodd;stroke:#000000;stroke-width:0.58750004;stroke-dasharray:none;stroke-dashoffset:5;stroke-opacity:1" />
    <rect
       transform="matrix(0,1,-1,0,0,0)"
       y="-53.816143"
       x="30.777842"
       height="5.4387341"
       width="7.9618578"
       id="rect694"
       style="font-size:12px;fill:#ffcc00;fill-opacity:1;fill-rule:evenodd;stroke:#000000;stroke-width:0.58750004;stroke-dasharray:none;stroke-dashoffset:5;stroke-opacity:1" />
    <rect
       transform="matrix(0,1,-1,0,0,0)"
       y="-48.378933"
       x="16.40062"
       height="5.4387341"
       width="7.9618578"
       id="rect607"
       style="font-size:12px;fill:#ffcc00;fill-opacity:1;fill-rule:evenodd;stroke:#000000;stroke-width:0.58750004;stroke-dasharray:none;stroke-dashoffset:5;stroke-opacity:1" />
    <rect
       transform="matrix(0,1,-1,0,0,0)"
       y="-30.477983"
       x="16.378437"
       height="5.4387341"
       width="7.9618578"
       id="rect688"
       style="font-size:12px;fill:#ffcc00;fill-opacity:1;fill-rule:evenodd;stroke:#000000;stroke-width:0.58750004;stroke-dasharray:none;stroke-dashoffset:5;stroke-opacity:1" />
    <rect
       transform="matrix(0,1,-1,0,0,0)"
       y="-39.386627"
       x="2.0547676"
       height="5.4387341"
       width="7.9618578"
       id="rect682"
       style="font-size:12px;fill:#ffcc00;fill-opacity:1;fill-rule:evenodd;stroke:#000000;stroke-width:0.58750004;stroke-dasharray:none;stroke-dashoffset:5;stroke-opacity:1" />
  </g>
</svg>
