<?xml version="1.0" encoding="UTF-8" standalone="no"?>
<!-- Created with Inkscape (http://www.inkscape.org/) -->
<svg
   xmlns:dc="http://purl.org/dc/elements/1.1/"
   xmlns:cc="http://creativecommons.org/ns#"
   xmlns:rdf="http://www.w3.org/1999/02/22-rdf-syntax-ns#"
   xmlns:svg="http://www.w3.org/2000/svg"
   xmlns="http://www.w3.org/2000/svg"
   xmlns:xlink="http://www.w3.org/1999/xlink"
   xmlns:sodipodi="http://sodipodi.sourceforge.net/DTD/sodipodi-0.dtd"
   xmlns:inkscape="http://www.inkscape.org/namespaces/inkscape"
   width="64px"
   height="64px"
   id="svg2383"
   sodipodi:version="0.32"
   inkscape:version="0.46"
   sodipodi:docname="arora.svg"
   inkscape:output_extension="org.inkscape.output.svg.inkscape"
   inkscape:export-filename="/home/jbache/icon/arora-16.png"
   inkscape:export-xdpi="22.5"
   inkscape:export-ydpi="22.5">
  <defs
     id="defs2385">
    <linearGradient
       id="linearGradient4736">
      <stop
         style="stop-color:#c7cde6;stop-opacity:1;"
         offset="0"
         id="stop4738" />
      <stop
         style="stop-color:#adbeff;stop-opacity:0;"
         offset="1"
         id="stop4740" />
    </linearGradient>
    <linearGradient
       id="linearGradient3536">
      <stop
         style="stop-color:#5e86c1;stop-opacity:1;"
         offset="0"
         id="stop3538" />
      <stop
         style="stop-color:#103070;stop-opacity:1;"
         offset="1"
         id="stop3540" />
    </linearGradient>
    <linearGradient
       id="linearGradient3447">
      <stop
         style="stop-color:#dbdbdb;stop-opacity:1;"
         offset="0"
         id="stop3449" />
      <stop
         style="stop-color:#cbcbcb;stop-opacity:0;"
         offset="1"
         id="stop3451" />
    </linearGradient>
    <linearGradient
       id="linearGradient3265">
      <stop
         id="stop3267"
         offset="0"
         style="stop-color:#7c7c7c;stop-opacity:1;" />
      <stop
         id="stop3269"
         offset="1"
         style="stop-color:#c8d1d2;stop-opacity:1;" />
    </linearGradient>
    <linearGradient
       id="linearGradient3217">
      <stop
         style="stop-color:#ffffff;stop-opacity:1;"
         offset="0"
         id="stop3219" />
      <stop
         style="stop-color:#c7d0d2;stop-opacity:1;"
         offset="1"
         id="stop3221" />
    </linearGradient>
    <linearGradient
       id="linearGradient3207">
      <stop
         style="stop-color:#eaffff;stop-opacity:1;"
         offset="0"
         id="stop3209" />
      <stop
         style="stop-color:#016792;stop-opacity:1;"
         offset="1"
         id="stop3211" />
    </linearGradient>
    <inkscape:perspective
       sodipodi:type="inkscape:persp3d"
       inkscape:vp_x="0 : 32 : 1"
       inkscape:vp_y="0 : 1000 : 0"
       inkscape:vp_z="64 : 32 : 1"
       inkscape:persp3d-origin="32 : 21.333333 : 1"
       id="perspective2391" />
    <radialGradient
       inkscape:collect="always"
       xlink:href="#linearGradient3207"
       id="radialGradient3215"
       cx="20.594498"
       cy="30.985296"
       fx="20.594498"
       fy="30.985296"
       r="19.334753"
       gradientUnits="userSpaceOnUse" />
    <radialGradient
       inkscape:collect="always"
       xlink:href="#linearGradient3536"
       id="radialGradient3542"
       cx="23.45262"
       cy="30.030596"
       fx="23.45262"
       fy="30.030596"
       r="7.9169221"
       gradientTransform="matrix(1.9707478,-1.8366141e-2,1.1251232e-2,1.4372967,-23.269368,-16.033148)"
       gradientUnits="userSpaceOnUse" />
    <filter
       inkscape:collect="always"
       id="filter4316"
       x="-0.21071652"
       width="1.421433"
       y="-0.15931528"
       height="1.3186306">
      <feGaussianBlur
         inkscape:collect="always"
         stdDeviation="0.23850654"
         id="feGaussianBlur4318" />
    </filter>
    <filter
       inkscape:collect="always"
       id="filter4384"
       x="-0.17884872"
       width="1.3576974"
       y="-0.1264228"
       height="1.2528456">
      <feGaussianBlur
         inkscape:collect="always"
         stdDeviation="0.25371455"
         id="feGaussianBlur4386" />
    </filter>
    <filter
       inkscape:collect="always"
       id="filter4654">
      <feGaussianBlur
         inkscape:collect="always"
         stdDeviation="0.57831467"
         id="feGaussianBlur4656" />
    </filter>
    <filter
       inkscape:collect="always"
       id="filter4788">
      <feGaussianBlur
         inkscape:collect="always"
         stdDeviation="0.34061157"
         id="feGaussianBlur4790" />
    </filter>
    <filter
       inkscape:collect="always"
       id="filter4812"
       x="-0.15308"
       width="1.30616"
       y="-0.047069354"
       height="1.0941387">
      <feGaussianBlur
         inkscape:collect="always"
         stdDeviation="0.40474704"
         id="feGaussianBlur4814" />
    </filter>
    <radialGradient
       inkscape:collect="always"
       xlink:href="#linearGradient3207"
       id="radialGradient3350"
       gradientUnits="userSpaceOnUse"
       cx="20.594498"
       cy="30.985296"
       fx="20.594498"
       fy="30.985296"
       r="19.334753" />
    <radialGradient
       inkscape:collect="always"
       xlink:href="#linearGradient3217"
       id="radialGradient3371"
       gradientUnits="userSpaceOnUse"
       gradientTransform="matrix(1.190409,-1.3563182,0.4144609,0.3637627,-10.494798,36.63006)"
       cx="21.118898"
       cy="16.672932"
       fx="21.118898"
       fy="16.672932"
       r="16.475277" />
    <radialGradient
       inkscape:collect="always"
       xlink:href="#linearGradient3536"
       id="radialGradient3376"
       gradientUnits="userSpaceOnUse"
       gradientTransform="matrix(3.0773698,-2.7724561e-2,1.7569068e-2,2.1696674,-48.645895,-43.130087)"
       cx="23.45262"
       cy="30.030596"
       fx="23.45262"
       fy="30.030596"
       r="7.9169221" />
    <linearGradient
       inkscape:collect="always"
       xlink:href="#linearGradient3536"
       id="linearGradient3380"
       gradientUnits="userSpaceOnUse"
       gradientTransform="matrix(1.5736688,0,0,1.3851572,-11.304863,-9.0360665)"
       x1="15.659304"
       y1="25.818771"
       x2="22.89031"
       y2="37.90387" />
    <radialGradient
       inkscape:collect="always"
       xlink:href="#linearGradient3265"
       id="radialGradient3384"
       gradientUnits="userSpaceOnUse"
       gradientTransform="matrix(1.5119908,0,0,1.9265069,-16.649017,-31.851372)"
       cx="17.947458"
       cy="27.263075"
       fx="17.947458"
       fy="27.263075"
       r="1.4711967" />
    <radialGradient
       inkscape:collect="always"
       xlink:href="#linearGradient3217"
       id="radialGradient3990"
       gradientUnits="userSpaceOnUse"
       gradientTransform="matrix(1.190409,-1.3563182,0.4144609,0.3637627,-10.494798,36.63006)"
       cx="21.118898"
       cy="16.672932"
       fx="21.118898"
       fy="16.672932"
       r="16.475277" />
    <radialGradient
       inkscape:collect="always"
       xlink:href="#linearGradient3536"
       id="radialGradient3995"
       gradientUnits="userSpaceOnUse"
       gradientTransform="matrix(3.0773698,-2.7724561e-2,1.7569068e-2,2.1696674,-48.645895,-43.130087)"
       cx="23.45262"
       cy="30.030596"
       fx="23.45262"
       fy="30.030596"
       r="7.9169221" />
    <linearGradient
       inkscape:collect="always"
       xlink:href="#linearGradient3536"
       id="linearGradient3999"
       gradientUnits="userSpaceOnUse"
       gradientTransform="matrix(1.5736688,0,0,1.3851572,-11.304863,-9.0360665)"
       x1="15.659304"
       y1="25.818771"
       x2="22.89031"
       y2="37.90387" />
    <radialGradient
       inkscape:collect="always"
       xlink:href="#linearGradient3265"
       id="radialGradient4003"
       gradientUnits="userSpaceOnUse"
       gradientTransform="matrix(1.5119908,0,0,1.9265069,-16.649017,-31.851372)"
       cx="17.947458"
       cy="27.263075"
       fx="17.947458"
       fy="27.263075"
       r="1.4711967" />
    <filter
       inkscape:collect="always"
       id="filter4028"
       x="-0.15308"
       width="1.30616"
       y="-0.047069354"
       height="1.0941387">
      <feGaussianBlur
         inkscape:collect="always"
         stdDeviation="0.40474704"
         id="feGaussianBlur4030" />
    </filter>
  </defs>
  <sodipodi:namedview
     id="base"
     pagecolor="#ffffff"
     bordercolor="#666666"
     borderopacity="1.0"
     inkscape:pageopacity="0"
     inkscape:pageshadow="2"
     inkscape:zoom="11.313708"
     inkscape:cx="12.420297"
     inkscape:cy="32"
     inkscape:current-layer="layer1"
     showgrid="true"
     inkscape:document-units="px"
     inkscape:grid-bbox="true"
     inkscape:window-width="1603"
     inkscape:window-height="893"
     inkscape:window-x="107"
     inkscape:window-y="25" />
  <metadata
     id="metadata2388">
    <rdf:RDF>
      <cc:Work
         rdf:about="">
        <dc:format>image/svg+xml</dc:format>
        <dc:type
           rdf:resource="http://purl.org/dc/dcmitype/StillImage" />
        <dc:title>Arora icon</dc:title>
        <dc:date>1/5/2008</dc:date>
        <dc:creator>
          <cc:Agent>
            <dc:title>Jens Bache-Wiig</dc:title>
          </cc:Agent>
        </dc:creator>
        <cc:license
           rdf:resource="http://www.gnu.org/licenses/gpl-2.0.txt" />
        <dc:description>Cute polar bear</dc:description>
        <dc:subject>
          <rdf:Bag>
            <rdf:li>polar bear arora</rdf:li>
          </rdf:Bag>
        </dc:subject>
      </cc:Work>
    </rdf:RDF>
  </metadata>
  <g
     id="layer1"
     inkscape:label="Layer 1"
     inkscape:groupmode="layer">
    <g
       id="g4582"
       transform="matrix(1.6131049,0,0,1.6131049,-11.967563,-18.602963)"
       style="opacity:0.30638296;fill:#000000;fill-opacity:1;stroke:none;filter:url(#filter4654)">
      <path
         sodipodi:nodetypes="cccc"
         id="path4584"
         d="M 14.371293,27.532931 C 14.710109,27.324179 14.319648,26.766879 14.50694,26.282521 C 14.765426,25.448405 15.25193,25.148043 15.665638,24.678078 C 16.417988,25.252628 16.127157,26.23141 16.000181,27.495992"
         style="fill:#000000;fill-opacity:1;fill-rule:evenodd;stroke:none;stroke-width:0.8725009;stroke-linecap:round;stroke-linejoin:miter;stroke-miterlimit:4;stroke-dasharray:none;stroke-opacity:1" />
      <path
         transform="matrix(0.7572962,0,0,0.7572962,4.7171145,9.0365597)"
         d="M 50.718842,35.908577 A 18.834753,18.834753 0 1 1 13.049335,35.908577 A 18.834753,18.834753 0 1 1 50.718842,35.908577 z"
         sodipodi:ry="18.834753"
         sodipodi:rx="18.834753"
         sodipodi:cy="35.908577"
         sodipodi:cx="31.884089"
         id="path4586"
         style="opacity:1;fill:#000000;fill-opacity:1;fill-rule:nonzero;stroke:none;stroke-width:0.86756015;stroke-linecap:square;stroke-linejoin:round;stroke-miterlimit:4;stroke-dasharray:none;stroke-opacity:1"
         sodipodi:type="arc" />
      <path
         id="path4588"
         d="M 21.723931,35.702199 C 21.716935,37.075819 22.786476,38.263673 23.92922,39.228449 C 24.365293,39.645191 24.135093,40.470441 23.370945,40.510436 C 22.705891,40.579255 22.278279,41.297281 22.749732,41.708007 C 23.076912,42.301838 23.431499,42.889922 23.883649,43.430775 C 24.125568,43.88821 23.451976,44.134644 23.156778,44.435784 C 22.882669,44.816099 23.290948,45.361108 22.80825,45.706653 C 22.356523,45.991569 21.788539,45.682515 21.413234,45.454138 C 20.945913,45.143342 20.39412,44.816018 19.746948,44.873873 C 19.274508,45.085951 18.679911,45.617729 18.151757,45.151938 C 17.801019,44.809579 17.776807,44.328726 17.399615,43.997449 C 16.821097,43.216793 16.438585,42.333438 16.456987,41.42218 C 16.423264,40.38878 16.599757,39.359911 16.612318,38.327467 C 16.675935,37.712345 17.080611,37.171596 17.341203,36.604217 C 17.559651,35.997468 17.856419,35.2526 18.719971,35.056344 C 19.59493,34.887876 20.3507,35.392229 21.150814,35.574754 C 21.338311,35.626307 21.529276,35.670698 21.723931,35.702199 z"
         style="fill:#000000;fill-opacity:1;fill-rule:evenodd;stroke:none;stroke-width:1px;stroke-linecap:butt;stroke-linejoin:miter;stroke-opacity:1" />
      <path
         sodipodi:nodetypes="cccccccccccccccccccccccc"
         id="path4590"
         d="M 35.280451,34.235092 C 34.299476,35.109172 33.243358,36.184531 31.887476,36.136952 C 31.410018,37.146163 32.33483,37.98621 32.895077,38.65891 C 33.647098,39.752078 34.799223,40.797574 34.696519,42.305028 C 34.12334,43.234611 34.524108,44.567216 33.6901,45.365487 C 32.985558,45.855334 32.881143,47.773128 33.925854,46.698632 C 34.842838,45.967794 35.865155,45.403863 36.906035,44.932744 C 37.964119,44.049746 38.718168,42.813971 39.76906,41.920884 C 40.660596,40.91243 41.501625,39.848933 42.375047,38.824326 C 43.159662,37.605524 41.159806,37.336026 40.494615,37.063831 C 39.664938,35.376268 38.873754,37.018805 38.838729,35.547119 C 38.692424,34.461989 38.822089,34.048678 39.247499,33.217933 C 39.76862,32.500346 39.47467,31.596919 39.083762,30.908361 C 38.69846,29.907323 38.633424,28.808236 38.340978,27.777233 C 37.494922,27.342734 37.152348,28.987843 36.764442,29.587481 C 36.634083,30.475144 35.677482,30.958133 35.287922,29.969957 C 34.463082,29.002064 33.172861,28.81486 32.25561,27.975094 C 31.257836,27.17887 30.238972,26.407455 29.187235,25.706806 C 28.631803,25.202111 27.725932,23.626697 27.099141,24.542659 C 26.884882,25.818778 27.227268,27.231443 26.544248,28.387923 C 26.004078,29.781956 27.510338,30.403489 27.727334,31.864513 C 27.771382,33.205689 27.650481,34.57809 28.659727,34.192313 C 29.688532,34.000624 30.736926,33.980888 31.753428,33.692787 C 32.906207,33.471141 34.376514,33.217935 35.280451,34.235092 z"
         style="fill:#000000;fill-opacity:1;fill-rule:evenodd;stroke:none;stroke-width:1px;stroke-linecap:butt;stroke-linejoin:miter;stroke-opacity:1" />
      <path
         sodipodi:nodetypes="cccccccccccccccccc"
         id="path4592"
         d="M 39.923783,32.787084 C 38.614736,35.274688 37.772365,34.879387 38.868821,36.156863 C 40.257442,37.646591 41.639348,35.482663 43.213123,34.376933 C 43.182182,31.608406 42.492165,30.669326 41.907894,29.191587 C 40.993949,25.539415 41.861298,25.466991 41.732495,24.273162 C 41.435039,20.581507 40.823658,19.499217 37.446579,16.630506 C 35.153445,15.752123 31.34721,15.234465 29.711364,15.332571 C 27.606019,15.235767 24.458376,19.831738 23.060208,21.823266 C 20.459174,24.540654 19.962944,24.690013 17.415108,27.512956 C 16.055358,29.494663 16.206353,29.367704 15.78981,32.144216 C 13.859739,38.823332 13.794152,37.455459 16.363136,38.352405 C 17.983369,37.33563 20.04289,34.295421 21.828338,33.584213 C 22.172272,30.710318 24.992675,30.674999 27.252756,29.002315 C 28.14034,28.87651 29.989014,28.628611 30.875302,30.447317 C 32.782289,33.347132 30.941671,42.456739 35.308094,37.098708 C 35.466389,35.068227 35.207618,37.05978 34.985074,34.977795 C 34.777229,32.836737 36.163227,30.518542 35.368127,28.537656 C 34.748537,27.243735 34.150883,27.217018 32.865574,24.880343"
         style="fill:#000000;fill-opacity:1;fill-rule:evenodd;stroke:none;stroke-width:0.89999998;stroke-linecap:round;stroke-linejoin:miter;stroke-miterlimit:4;stroke-dasharray:none;stroke-opacity:1" />
      <path
         transform="matrix(1.1599619,-0.6165902,0.6730581,1.0626441,-12.182788,5.040139)"
         d="M 25.970104,35.78001 A 11.34585,7.1996326 0 1 1 3.2784042,35.78001 A 11.34585,7.1996326 0 1 1 25.970104,35.78001 z"
         sodipodi:ry="7.1996326"
         sodipodi:rx="11.34585"
         sodipodi:cy="35.78001"
         sodipodi:cx="14.624254"
         id="path4594"
         style="opacity:0.11063831;fill:#000000;fill-opacity:1;fill-rule:nonzero;stroke:none;stroke-width:0.69999999;stroke-linecap:round;stroke-linejoin:round;stroke-miterlimit:4;stroke-dasharray:none;stroke-opacity:1"
         sodipodi:type="arc" />
      <path
         sodipodi:nodetypes="cccccccccccccccccc"
         id="path4596"
         d="M 40.433653,31.408807 C 38.955311,33.896411 38.003999,33.50111 39.242256,34.778586 C 40.810464,36.268314 42.371087,34.104386 44.148392,32.998656 C 44.11345,30.230129 43.334196,29.291049 42.674363,27.81331 C 41.642221,24.161138 42.62174,24.088714 42.476279,22.894885 C 42.140355,19.20323 41.449907,18.12094 37.636081,15.252229 C 35.046383,14.373846 30.747901,13.856188 28.900497,13.954294 C 26.522875,13.85749 22.968157,18.453461 21.389169,20.444989 C 18.451752,23.162377 17.891346,23.311736 15.014007,26.134679 C 13.478404,28.116386 13.648928,27.989427 13.178514,30.765939 C 10.998834,37.445055 10.924764,36.077182 13.825988,36.974128 C 15.65576,35.957353 17.981632,32.917144 19.997985,32.205936 C 20.3864,29.332041 23.571556,29.296722 26.123925,27.624038 C 27.126298,27.498233 29.214054,27.250334 30.214963,29.06904 C 32.368574,31.968855 30.289915,41.078462 35.221033,35.720431 C 35.399799,33.68995 35.107562,35.681503 34.856238,33.599518 C 34.621513,31.45846 36.186757,29.140265 35.28883,27.159379 C 34.589111,25.865458 33.914164,25.838741 32.46263,23.502066"
         style="fill:#000000;fill-opacity:1;fill-rule:evenodd;stroke:none;stroke-width:0.89999998;stroke-linecap:round;stroke-linejoin:miter;stroke-miterlimit:4;stroke-dasharray:none;stroke-opacity:1" />
      <path
         sodipodi:nodetypes="cc"
         id="path4598"
         d="M 35.268253,22.805321 C 36.206343,24.283062 35.453117,25.596138 35.869601,27.359013"
         style="fill:#000000;fill-opacity:1;fill-rule:evenodd;stroke:none;stroke-width:0.80000001;stroke-linecap:round;stroke-linejoin:miter;stroke-miterlimit:4;stroke-dasharray:none;stroke-opacity:1" />
      <path
         id="path4600"
         d="M 34.133973,20.866487 C 34.712514,22.2807 35.098209,22.923524 35.355339,23.823479 C 35.612469,24.723433 35.483904,26.523341 35.483904,26.523341 L 33.941125,24.65915 L 34.133973,20.866487 z"
         style="fill:#000000;fill-opacity:1;fill-rule:evenodd;stroke:none;stroke-width:1px;stroke-linecap:butt;stroke-linejoin:miter;stroke-opacity:1" />
      <path
         sodipodi:nodetypes="cc"
         id="path4602"
         d="M 35.741033,26.973318 C 37.219445,28.972262 39.355302,30.451291 40.10222,31.2639"
         style="fill:#000000;fill-opacity:1;fill-rule:evenodd;stroke:none;stroke-width:0.69999999;stroke-linecap:butt;stroke-linejoin:miter;stroke-miterlimit:4;stroke-dasharray:none;stroke-opacity:1" />
      <path
         sodipodi:nodetypes="cc"
         id="path4604"
         d="M 14.166615,30.37313 C 14.663119,30.96025 14.625662,31.160689 15.556332,30.482864"
         style="fill:#000000;fill-opacity:1;fill-rule:evenodd;stroke:none;stroke-width:0.55304056;stroke-linecap:round;stroke-linejoin:round;stroke-miterlimit:4;stroke-dasharray:none;stroke-opacity:1" />
      <path
         sodipodi:nodetypes="cccc"
         id="path4606"
         d="M 13.119717,35.595267 C 12.81066,36.685127 12.847668,36.589489 11.681572,35.843862 L 12.249948,33.992556 C 13.183893,33.946971 12.766637,34.563042 13.119717,35.595267 z"
         style="opacity:1;fill:#000000;fill-opacity:1;fill-rule:evenodd;stroke:none;stroke-width:1px;stroke-linecap:butt;stroke-linejoin:miter;stroke-opacity:1" />
      <path
         sodipodi:nodetypes="ccsc"
         transform="matrix(1.3532078,0,0,1.5930591,-11.463268,-11.435411)"
         id="path4608"
         d="M 38.686481,26.70957 C 40.893033,27.758305 36.702359,24.120051 36.685925,24.054314 C 36.596421,23.64407 36.467914,23.154928 36.364883,22.668486 C 36.269137,22.216441 36.195392,21.766728 36.195392,21.384828"
         style="opacity:0.18297873;fill:#000000;fill-opacity:1;fill-rule:evenodd;stroke:none;stroke-width:1.5;stroke-linecap:round;stroke-linejoin:miter;stroke-miterlimit:4;stroke-dasharray:none;stroke-opacity:1;filter:url(#filter4384)" />
      <path
         sodipodi:nodetypes="ccc"
         transform="matrix(0.741485,0,0,1.5982971,5.0201391,-7.4791344)"
         id="path4610"
         d="M 37.614083,26.742648 C 37.437449,26.276207 36.757388,23.748919 36.727682,23.277249 C 36.727682,22.893847 33.433303,21.339508 33.433303,21.154901"
         style="opacity:0.40851063;fill:#000000;fill-opacity:1;fill-rule:evenodd;stroke:none;stroke-width:1.5;stroke-linecap:round;stroke-linejoin:miter;stroke-miterlimit:4;stroke-dasharray:none;stroke-opacity:1;filter:url(#filter4316)" />
      <path
         sodipodi:nodetypes="cc"
         id="path4612"
         d="M 17.613387,28.066119 C 18.02298,27.856607 18.744615,27.278131 18.834754,26.780471"
         style="opacity:0.25531915;fill:#000000;fill-opacity:1;fill-rule:evenodd;stroke:none;stroke-width:1px;stroke-linecap:round;stroke-linejoin:miter;stroke-opacity:1" />
      <path
         sodipodi:nodetypes="cssscccssssc"
         id="path4614"
         d="M 28.541401,14.37396 C 28.541401,14.37396 35.548186,14.502525 37.476659,15.595327 C 39.405132,16.688128 42.169277,18.745166 42.169277,23.052089 C 42.169277,27.359012 41.7193,25.880516 41.847865,26.909035 C 41.97643,27.937554 43.454926,30.701699 43.454926,30.701699 L 43.712056,32.758737 L 41.333606,34.68721 C 41.333606,34.68721 40.433652,34.108668 40.690781,33.530126 C 40.947911,32.951584 42.49139,32.244361 42.362124,31.473088 C 42.23308,30.703137 39.430795,27.169716 39.790826,26.201928 C 43.106639,17.288793 31.790463,14.016383 24.81302,16.816693 C 24.81302,16.816693 27.19147,13.731136 28.541401,14.37396 z"
         style="fill:#000000;fill-opacity:1;fill-rule:evenodd;stroke:none;stroke-width:1px;stroke-linecap:butt;stroke-linejoin:miter;stroke-opacity:1" />
      <path
         sodipodi:nodetypes="csssssc"
         id="path4616"
         d="M 29.762767,22.152135 C 29.762767,22.152135 34.32682,25.816234 34.969644,27.616142 C 35.612469,29.41605 34.776797,30.573134 34.455385,31.730218 C 34.133973,32.887302 34.712515,34.365798 34.776797,34.880057 C 34.84108,35.394317 34.391103,36.165706 33.812561,36.422836 C 33.384913,36.612902 33.594124,29.434594 33.748278,28.387531 C 33.862569,27.611232 29.955614,23.502066 29.762767,22.152135 z"
         style="fill:#000000;fill-opacity:1;fill-rule:evenodd;stroke:none;stroke-width:1px;stroke-linecap:butt;stroke-linejoin:miter;stroke-opacity:1" />
      <path
         sodipodi:nodetypes="cccc"
         id="path4618"
         d="M 17.004565,27.773372 C 17.366038,27.642339 17.566698,27.292522 17.766515,26.988492 C 18.042287,26.464918 18.561326,26.276381 19.002701,25.981385 C 19.805364,26.342029 19.495083,26.95641 19.359616,27.750186"
         style="fill:#000000;fill-opacity:1;fill-rule:evenodd;stroke:none;stroke-width:0.71399999;stroke-linecap:round;stroke-linejoin:miter;stroke-miterlimit:4;stroke-dasharray:none;stroke-opacity:1" />
    </g>
    <path
       style="fill:url(#radialGradient4003);fill-opacity:1;fill-rule:evenodd;stroke:#99a2b5;stroke-width:1.4074353;stroke-linecap:round;stroke-linejoin:miter;stroke-miterlimit:4;stroke-dasharray:none;stroke-opacity:1"
       d="M 9.5090016,22.973713 C 10.055548,22.636975 9.4256925,21.737991 9.7278156,20.95667 C 10.14478,19.611154 10.929561,19.126639 11.596916,18.368536 C 12.810535,19.295346 12.341395,20.874223 12.136569,22.914126"
       id="path3606"
       sodipodi:nodetypes="cccc" />
    <path
       sodipodi:type="arc"
       style="fill:url(#radialGradient3350);fill-opacity:1;fill-rule:nonzero;stroke:#1d386c;stroke-width:1.23112547;stroke-linecap:square;stroke-linejoin:round;stroke-miterlimit:4;stroke-dasharray:none;stroke-opacity:1"
       id="path2395"
       sodipodi:cx="31.884089"
       sodipodi:cy="35.908577"
       sodipodi:rx="18.834753"
       sodipodi:ry="18.834753"
       d="M 50.718842,35.908577 A 18.834753,18.834753 0 1 1 13.049335,35.908577 A 18.834753,18.834753 0 1 1 50.718842,35.908577 z"
       transform="matrix(1.2215982,0,0,1.2215982,-6.0641998,-6.8628725)" />
    <path
       style="fill:url(#linearGradient3999);fill-opacity:1;fill-rule:evenodd;stroke:none;stroke-width:1px;stroke-linecap:butt;stroke-linejoin:miter;stroke-opacity:1"
       d="M 21.369578,34.202943 C 21.358293,36.683261 23.083574,38.828146 24.926941,40.570221 C 25.630372,41.322726 25.259036,42.812862 24.026384,42.88508 C 22.953582,43.009344 22.263799,44.305871 23.024302,45.04751 C 23.552079,46.119779 24.124064,47.18167 24.85343,48.158277 C 25.24367,48.984258 24.157096,49.429239 23.68091,49.973001 C 23.238743,50.659729 23.89734,51.643841 23.118698,52.267784 C 22.390015,52.782252 21.473797,52.224198 20.86839,51.811824 C 20.114554,51.250625 19.224454,50.659582 18.180497,50.76405 C 17.418402,51.146995 16.459255,52.107216 15.607286,51.266146 C 15.041509,50.647956 15.002454,49.77969 14.394002,49.181508 C 13.460792,47.771894 12.84376,46.176838 12.873445,44.531398 C 12.819047,42.665409 13.103748,40.807601 13.124011,38.943337 C 13.226631,37.832623 13.879416,36.856203 14.299778,35.831698 C 14.652158,34.736104 15.130876,33.391111 16.523875,33.036736 C 17.935276,32.732537 19.154412,33.643238 20.44508,33.97282 C 20.747532,34.065907 21.055579,34.146063 21.369578,34.202943 z"
       id="path3548" />
    <path
       sodipodi:type="arc"
       style="fill:none;fill-opacity:1;fill-rule:nonzero;stroke:#bbbdeb;stroke-width:0.86756015;stroke-linecap:square;stroke-linejoin:round;stroke-miterlimit:4;stroke-dasharray:none;stroke-opacity:0.36040608"
       id="path4706"
       sodipodi:cx="31.884089"
       sodipodi:cy="35.908577"
       sodipodi:rx="18.834753"
       sodipodi:ry="18.834753"
       d="M 50.718842,35.908577 A 18.834753,18.834753 0 1 1 13.049335,35.908577 A 18.834753,18.834753 0 1 1 50.718842,35.908577 z"
       transform="matrix(1.1487654,0,0,1.1342651,-3.7409149,-3.2921731)" />
    <path
       style="fill:url(#radialGradient3995);fill-opacity:1;fill-rule:evenodd;stroke:none;stroke-width:1px;stroke-linecap:butt;stroke-linejoin:miter;stroke-opacity:1"
       d="M 42.781052,32.752204 C 41.249236,34.07167 39.600081,35.694975 37.482839,35.623153 C 36.737277,37.146605 38.181394,38.414696 39.056233,39.430168 C 40.230532,41.080357 42.029602,42.658582 41.869227,44.934154 C 40.974195,46.337406 41.600003,48.349035 40.297679,49.554063 C 39.19752,50.29351 39.034475,53.188512 40.665815,51.56651 C 42.097709,50.463275 43.69408,49.611993 45.319439,48.900818 C 46.971663,47.56789 48.14913,45.702429 49.790122,44.354272 C 51.182276,42.831963 52.495564,41.226563 53.859434,39.679871 C 55.084628,37.840031 51.961805,37.433212 50.923092,37.022321 C 49.627534,34.474864 48.39208,36.954351 48.337387,34.732772 C 48.10893,33.094716 48.311403,32.470804 48.975692,31.216755 C 49.789434,30.133524 49.330425,28.769757 48.720013,27.730347 C 48.118355,26.219232 48.0168,24.560108 47.560138,23.003761 C 46.239001,22.347865 45.704063,24.831234 45.09834,25.736416 C 44.89478,27.076385 43.401025,27.80548 42.792718,26.313782 C 41.50471,24.852701 39.489999,24.570109 38.05769,23.30244 C 36.499642,22.100503 34.90866,20.936016 33.266347,19.878353 C 32.399028,19.116492 30.984489,16.73833 30.00574,18.121019 C 29.671168,20.04738 30.205812,22.179865 29.139259,23.925626 C 28.295773,26.029985 30.647833,26.968219 30.986678,29.173704 C 31.05546,31.198272 30.86667,33.269977 32.442632,32.687628 C 34.049136,32.398265 35.686229,32.368472 37.273519,31.93357 C 39.073612,31.598984 41.369533,31.216758 42.781052,32.752204 z"
       id="path3528"
       sodipodi:nodetypes="cccccccccccccccccccccccc" />
    <path
       style="fill:#001b52;fill-opacity:0.26943006;fill-rule:evenodd;stroke:none;stroke-width:0.89999998;stroke-linecap:round;stroke-linejoin:miter;stroke-miterlimit:4;stroke-dasharray:none;stroke-opacity:1"
       d="M 49.93235,30.388552 C 47.82072,34.401319 46.727054,33.189132 48.495752,35.249835 C 50.735744,37.652922 53.495233,35.797464 56.033898,34.013806 C 55.983985,29.547881 54.870916,28.033047 53.928426,25.649299 C 52.454137,19.757964 53.853262,19.641135 53.645489,17.715364 C 53.165661,11.760338 52.179439,10.014491 46.731858,5.3869589 C 43.032791,3.9700351 36.892935,3.1349984 34.254145,3.2932536 C 30.858002,3.1370986 25.780525,10.550881 23.525133,13.763425 C 19.329393,18.146857 18.528921,18.387788 14.418995,22.941492 C 12.225576,26.138193 12.469147,25.933394 11.797219,30.412199 C 8.6838122,41.186314 8.5780129,38.979792 12.722053,40.426658 C 15.33566,38.786494 18.657883,33.882319 21.537997,32.735065 C 22.092799,28.099171 26.642405,28.042198 30.288151,25.343983 C 31.719919,25.141047 32.97845,25.359878 34.408125,28.293641 C 36.600412,35.711386 35.973593,45.014448 43.017092,36.371383 C 43.272437,33.096004 44.666975,37.899578 44.307987,34.541118 C 43.972712,31.087367 46.120083,27.966594 44.837503,24.771217 C 43.83804,22.683987 41.415554,22.464112 39.342216,18.69481"
       id="path4556"
       sodipodi:nodetypes="cccccccccccccccccc" />
    <path
       sodipodi:type="arc"
       style="opacity:0.21645023;fill:#d6d6d6;fill-opacity:0.5076142;fill-rule:nonzero;stroke:none;stroke-width:0.69999999;stroke-linecap:round;stroke-linejoin:round;stroke-miterlimit:4;stroke-dasharray:none;stroke-opacity:1"
       id="path4093"
       sodipodi:cx="14.624254"
       sodipodi:cy="35.78001"
       sodipodi:rx="11.34585"
       sodipodi:ry="7.1996326"
       d="M 25.970104,35.78001 A 11.34585,7.1996326 0 1 1 3.2784042,35.78001 A 11.34585,7.1996326 0 1 1 25.970104,35.78001 z"
       transform="matrix(1.8711401,-0.9946246,1.0857133,1.7141564,-33.182923,-13.594701)" />
    <path
       style="fill:url(#radialGradient3990);fill-opacity:1;fill-rule:evenodd;stroke:#737f98;stroke-width:1.45179427;stroke-linecap:round;stroke-linejoin:miter;stroke-miterlimit:4;stroke-dasharray:none;stroke-opacity:1"
       d="M 50.99577,29.364545 C 48.61105,33.377311 47.631034,32.601011 49.628473,34.661714 C 52.158156,37.064801 54.675605,33.574158 57.542584,31.7905 C 57.48622,27.324577 56.2292,25.809742 55.164821,23.425993 C 53.499867,17.534657 55.079935,17.417831 54.845291,15.492059 C 54.303409,9.5370327 53.189645,7.7911846 47.037543,3.1636536 C 42.860089,1.7467298 35.926187,0.9116931 32.946132,1.0699483 C 29.110778,0.91379344 23.376645,8.3275768 20.829572,11.54012 C 16.09121,15.923552 15.187217,16.164484 10.545767,20.718187 C 8.0686783,23.914888 8.3437519,23.71009 7.5849245,28.188895 C 4.0688721,38.963009 3.9493895,36.756486 8.6293676,38.203353 C 11.580981,36.563188 15.332857,31.659014 18.585447,30.51176 C 19.212,25.875866 24.349991,25.818892 28.467229,23.120678 C 30.084162,22.917742 32.656436,22.473661 34.271006,25.407424 C 37.745007,30.08513 35.187407,44.824075 43.141818,36.181009 C 43.430187,32.905631 42.958778,36.118214 42.553366,32.759754 C 42.17473,29.306003 44.699633,25.566511 43.251183,22.371135 C 42.122461,20.283904 41.033702,20.240807 38.692224,16.471505"
       id="path3177"
       sodipodi:nodetypes="cccccccccccccccccc" />
    <path
       style="fill:#727ba6;fill-opacity:1;fill-rule:evenodd;stroke:none;stroke-width:0.80435652;stroke-linecap:round;stroke-linejoin:round;stroke-miterlimit:4;stroke-dasharray:none;stroke-opacity:1"
       d="M 8.0197082,28.956274 L 9.5750039,28.901155 L 9.5309088,28.269629 L 8.2261446,28.022015 L 8.0197082,28.956274 z"
       id="path4732"
       sodipodi:nodetypes="ccccc" />
    <path
       style="fill:#879bc8;fill-opacity:0.34010153;fill-rule:evenodd;stroke:none;stroke-width:1px;stroke-linecap:butt;stroke-linejoin:miter;stroke-opacity:1"
       d="M 41.486308,12.416104 C 42.419555,14.697378 43.041722,15.73432 43.456499,17.186042 C 43.871277,18.637762 43.663887,21.541202 43.663887,21.541202 L 40.881129,18.485051 L 41.486308,12.416104 z"
       id="path4560"
       sodipodi:nodetypes="csccc" />
    <path
       style="fill:none;fill-rule:evenodd;stroke:#737f98;stroke-width:1.1291734;stroke-linecap:butt;stroke-linejoin:miter;stroke-miterlimit:4;stroke-dasharray:none;stroke-opacity:1"
       d="M 43.980632,22.070999 C 46.365466,25.295505 49.810827,28.027927 51.015685,29.338751"
       id="path3181"
       sodipodi:nodetypes="cc" />
    <path
       style="fill:#7c84ac;fill-opacity:1;fill-rule:evenodd;stroke:none;stroke-width:0.80435652;stroke-linecap:round;stroke-linejoin:round;stroke-miterlimit:4;stroke-dasharray:none;stroke-opacity:1"
       d="M 10.93913,28.812444 C 10.82321,28.984802 10.707289,29.157158 10.59137,29.329515 C 11.109648,29.782834 11.981478,30.059378 12.455561,30.33592 C 13.860344,30.123634 13.689393,29.701892 14.065171,29.375273 C 13.359709,29.026173 13.124253,29.355199 12.344713,29.283581 C 12.03823,29.259118 11.245613,28.836908 10.93913,28.812444 z"
       id="path3334"
       sodipodi:nodetypes="cccccc" />
    <path
       style="opacity:0.18297873;fill:none;fill-rule:evenodd;stroke:#fefefe;stroke-width:1.5;stroke-linecap:round;stroke-linejoin:miter;stroke-miterlimit:4;stroke-dasharray:none;stroke-opacity:1;filter:url(#filter4384)"
       d="M 39.321598,26.574697 C 41.52815,27.623432 36.702359,24.120051 36.685925,24.054314 C 36.596421,23.64407 36.467914,23.154928 36.364883,22.668486 C 36.269137,22.216441 36.195392,21.766728 36.195392,21.384828"
       id="path4302"
       transform="matrix(2.1828661,0,0,2.5697713,-32.164853,-39.886307)"
       sodipodi:nodetypes="ccsc" />
    <path
       style="fill:none;fill-rule:evenodd;stroke:#b0cada;stroke-width:1.61310494px;stroke-linecap:round;stroke-linejoin:miter;stroke-opacity:1"
       d="M 14.73884,23.8338 C 15.399556,23.495837 16.563629,22.562694 16.709032,21.759917"
       id="path4506"
       sodipodi:nodetypes="cc" />
    <path
       style="fill:#a9b4ca;fill-opacity:0.41624367;fill-rule:evenodd;stroke:none;stroke-width:1px;stroke-linecap:butt;stroke-linejoin:miter;stroke-opacity:1"
       d="M 34.256206,1.8984169 C 34.256206,1.8984169 44.198481,1.9071018 46.976443,4.1582488 C 47.881561,4.8917197 55.197633,7.8369716 54.055969,15.741188 C 53.272579,21.164926 53.771252,20.749337 54.027656,22.359429 C 54.290608,24.010643 56.42395,28.085268 56.42395,28.085268 L 56.838729,31.403486 L 52.51188,34.514316 C 52.51188,34.514316 51.060161,33.728114 51.965095,32.647818 C 52.6209,31.864928 54.869666,30.573744 54.661146,29.3296 C 54.452985,28.087588 50.485968,22.492111 50.513373,20.826666 C 50.728838,7.7321671 40.8118,-1.1871094 25.069279,7.5409861 C 25.069279,7.5409861 30.657169,0.46934798 34.256206,1.8984169 z"
       id="path4544"
       sodipodi:nodetypes="cssscccssssc" />
    <path
       style="fill:#7891cb;fill-opacity:0.2538071;fill-rule:evenodd;stroke:none;stroke-width:1px;stroke-linecap:butt;stroke-linejoin:miter;stroke-opacity:1"
       d="M 34.337062,14.293925 C 34.337062,14.293925 41.699358,20.204501 42.736301,23.107941 C 43.773246,26.011382 42.42522,27.87788 41.906748,29.744377 C 41.388277,31.610875 42.321525,33.995845 42.42522,34.825398 C 42.528913,35.654953 41.803054,36.899283 40.869805,37.314062 C 40.179963,37.620658 40.517443,26.041296 40.76611,24.352273 C 40.950474,23.100021 34.648145,16.471505 34.337062,14.293925 z"
       id="path4554"
       sodipodi:nodetypes="csssssc" />
    <path
       style="fill:none;fill-opacity:1;fill-rule:evenodd;stroke:#9fa7b9;stroke-width:1.15175676;stroke-linecap:round;stroke-linejoin:miter;stroke-miterlimit:4;stroke-dasharray:none;stroke-opacity:1"
       d="M 13.756746,23.36157 C 14.33984,23.1502 14.663525,22.585908 14.985851,22.095476 C 15.4307,21.250896 16.267965,20.946766 16.979949,20.470907 C 18.274728,21.052663 17.774212,22.043724 17.55569,23.324168"
       id="path3227"
       sodipodi:nodetypes="cccc" />
    <path
       style="fill:#ffffff;fill-opacity:0.44041448999999999;fill-rule:evenodd;stroke:none;stroke-width:1px;stroke-linecap:butt;stroke-linejoin:miter;stroke-opacity:1;filter:url(#filter4028)"
       d="M 32.854577,16.883491 C 32.854577,16.883491 33.994965,21.606525 37.520854,25.285904 C 38.684401,26.500103 37.741825,33.373437 38.316349,34.920234 C 38.890873,36.46703 39.200232,36.99736 39.200232,36.99736 L 38.581514,37.483496 C 38.581514,37.483496 37.874407,38.190602 37.255689,33.461826 C 36.63697,28.733049 36.088334,25.46268 33.171519,23.606525 L 32.854577,16.883491 z"
       id="path4764"
       sodipodi:nodetypes="cssccscc"
       transform="matrix(1.1091008,0,0,1.1091008,-3.466475,-3.446122)" />
    <path
       style="fill:#ffffff;fill-opacity:0.44041449;fill-rule:evenodd;stroke:none;stroke-width:1px;stroke-linecap:butt;stroke-linejoin:miter;stroke-opacity:1;filter:url(#filter4788)"
       d="M 42.603184,14.502525 C 44.105786,16.358681 45.343222,17.949671 45.343222,20.336156 C 45.343222,22.722642 48.70198,28.114331 49.939417,28.998214 C 51.176853,29.882098 50.911688,29.882098 50.911688,29.882098 L 48.436815,33.240855 L 50.027805,29.174991 C 50.027805,29.174991 43.663844,24.40202 43.575455,22.634253 C 43.487067,20.866486 43.487067,18.038059 43.045125,16.181904 C 42.603184,14.325749 42.426407,14.23736 42.603184,14.502525 z"
       id="path4768"
       transform="matrix(1.1091008,0,0,1.1091008,-3.466475,-3.446122)" />
    <path
       style="fill:none;fill-rule:evenodd;stroke:#737f98;stroke-width:1.29048383;stroke-linecap:round;stroke-linejoin:miter;stroke-miterlimit:4;stroke-dasharray:none;stroke-opacity:1"
       d="M 43.806178,15.151521 C 45.319416,17.535271 43.397278,19.476624 44.069109,22.320326"
       id="path3179"
       sodipodi:nodetypes="cc" />
    <path
       style="fill:#5e616f;fill-opacity:1;fill-rule:evenodd;stroke:none;stroke-width:1px;stroke-linecap:butt;stroke-linejoin:miter;stroke-opacity:1"
       d="M 6.0987963,34.478291 C 6.9237541,34.684531 6.9974108,34.669799 8.3968931,35.097009 C 8.4263568,35.921967 8.1022652,36.393372 7.9107572,36.864777 C 10.408268,35.943223 11.028966,33.449466 11.474603,33.488412 C 12.201734,34.157192 12.22176,34.693392 8.5736698,37.571884 C 7.6161295,37.32145 6.6585888,37.071017 5.7010485,36.820583 C 5.8041683,36.15767 5.7747055,36.15767 6.0987963,34.478291 z"
       id="path2467"
       sodipodi:nodetypes="ccccccc" />
  </g>
</svg>
