<?xml version="1.0" encoding="UTF-8" standalone="no"?>
<!-- Created with Inkscape (http://www.inkscape.org/) -->

<svg
   xmlns:dc="http://purl.org/dc/elements/1.1/"
   xmlns:cc="http://creativecommons.org/ns#"
   xmlns:rdf="http://www.w3.org/1999/02/22-rdf-syntax-ns#"
   xmlns:svg="http://www.w3.org/2000/svg"
   xmlns="http://www.w3.org/2000/svg"
   xmlns:sodipodi="http://sodipodi.sourceforge.net/DTD/sodipodi-0.dtd"
   xmlns:inkscape="http://www.inkscape.org/namespaces/inkscape"
   width="48"
   height="48"
   id="svg2"
   version="1.1"
   inkscape:version="0.48.3.1 r9886"
   sodipodi:docname="Documento nuevo 1">
  <defs
     id="defs4" />
  <sodipodi:namedview
     id="base"
     pagecolor="#ffffff"
     bordercolor="#666666"
     borderopacity="1.0"
     inkscape:pageopacity="0.0"
     inkscape:pageshadow="2"
     inkscape:zoom="16"
     inkscape:cx="24"
     inkscape:cy="24"
     inkscape:document-units="px"
     inkscape:current-layer="layer1"
     showgrid="false"
     inkscape:window-width="1678"
     inkscape:window-height="988"
     inkscape:window-x="2"
     inkscape:window-y="30"
     inkscape:window-maximized="1" />
  <metadata
     id="metadata7">
    <rdf:RDF>
      <cc:Work
         rdf:about="">
        <dc:format>image/svg+xml</dc:format>
        <dc:type
           rdf:resource="http://purl.org/dc/dcmitype/StillImage" />
        <dc:title></dc:title>
      </cc:Work>
    </rdf:RDF>
  </metadata>
  <g
     inkscape:label="Capa 1"
     inkscape:groupmode="layer"
     id="layer1"
     transform="translate(0,-1004.3622)">
    <g
       id="g3772"
       transform="translate(0.6875,0.8125)">
      <path
         style="fill:#ffffff"
         d="m 24.135593,1052.3622 -24.135593,0 0,-24.1356 0,-24.1356 24.135593,0 24.135594,0 0,24.1356 0,24.1356 -24.135594,0 z"
         id="path3780"
         inkscape:connector-curvature="0" />
      <path
         style="fill:#fefefe"
         d="m 21.497265,1051.214 -3.392565,0.865 -0.897752,-1.4526 -0.897752,-1.4526 0.924989,-3.6855 0.924989,-3.6854 2.233972,0 c 1.228685,0 2.233973,-0.3879 2.233973,-0.862 0,-0.4741 -1.01822,-1.8802 -2.262712,-3.1247 l -2.262712,-2.2627 0,2.3193 c 0,1.2756 -1.143946,4.7181 -2.542099,7.6501 -1.398156,2.9319 -3.022564,5.3308 -3.609797,5.3308 -0.587234,0 -1.474925,-1.0612 -1.9726488,-2.3583 l -0.9049518,-2.3582 2.3142966,-4.4754 2.314297,-4.4753 -2.217224,-2.2173 -2.2172241,-2.2172 -2.37046,0 -2.3704601,0 0,1.5085 c 0,0.8297 -0.6061881,1.5085 -1.3470847,1.5085 -0.7408967,0 -1.754313,-1.0613 -2.25203652,-2.3583 l -0.90495178,-2.3583 2.1616347,-4.1801 2.1616348,-4.1801 -2.1962767,-6.3748 -2.19627659,-6.3747 1.35279979,-2.4173 1.3527996,-2.4174 1.0355313,3.2627 1.0355312,3.2627 3.669534,0 3.6695341,0 0,-2.928 0,-2.9279 1.673456,-1.0342 1.673455,-1.0343 3.528606,4.1065 c 1.940732,2.2586 3.809998,4.8901 4.153924,5.8478 l 0.62532,1.7413 1.082973,-1.0022 1.082972,-1.0022 -1.770438,-3.3081 -1.770438,-3.308 1.749772,-1.7237 1.749772,-1.7236 2.161161,2.9281 2.16116,2.9282 0,2.7286 0,2.7286 1.319915,0 1.319915,0 0.905085,-4.5254 0.905085,-4.5254 2.893271,0 2.893271,0 0.868284,2.2627 0.868284,2.2627 -0.868284,2.2627 c -0.477556,1.2445 -1.474472,2.2627 -2.215369,2.2627 l -1.347084,0 0,3.879 0,3.8789 2.518614,2.5186 2.518614,2.5186 0.624041,-1.8721 c 0.343223,-1.0297 1.173662,-1.8721 1.845421,-1.8721 0.671757,0 1.615191,1.0262 2.09652,2.2806 l 0.875145,2.2805 -1.710125,3.7534 -1.710123,3.7533 -2.64911,0 -2.64911,0 -0.760853,-1.8856 -0.760854,-1.8856 -0.119094,2.5164 c -0.0655,1.3841 -0.531121,3.5902 -1.034717,4.9026 l -0.915624,2.3861 4.525424,0 4.525423,0 0.868284,2.2627 0.868284,2.2627 -0.868284,2.2627 -0.868284,2.2627 -4.564214,0 -4.564215,0 -2.816769,-3.2477 -2.816767,-3.2478 -2.639831,2.9954 -2.63983,2.9954 -3.392566,0.865 z m 8.169403,-12.9309 1.005648,-1.0057 -1.005648,-1.0056 -1.005651,-1.0057 0,2.0113 0,2.0113 1.005651,-1.0056 z m -15.929007,-11.565 1.669865,0 -0.915627,-2.3861 c -0.503595,-1.3123 -0.915628,-2.6699 -0.915628,-3.0169 0,-0.347 -1.357627,-0.6309 -3.016949,-0.6309 l -3.016949,0 0,1.5085 0,1.5085 2.2627119,0 2.2627121,0 0,1.5084 0,1.5085 1.669864,0 z"
         id="path3778"
         inkscape:connector-curvature="0" />
      <path
         style="fill:#548700"
         d="m 21.497265,1051.214 -3.392565,0.865 -0.897752,-1.4526 -0.897752,-1.4526 0.924989,-3.6855 0.924989,-3.6854 2.233972,0 c 1.228685,0 2.233973,-0.3879 2.233973,-0.862 0,-0.4741 -1.01822,-1.8802 -2.262712,-3.1247 l -2.262712,-2.2627 0,2.3193 c 0,1.2756 -1.143946,4.7181 -2.542099,7.6501 -1.398156,2.9319 -3.022564,5.3308 -3.609797,5.3308 -0.587234,0 -1.474925,-1.0612 -1.9726488,-2.3583 l -0.9049518,-2.3582 2.3142966,-4.4754 2.314297,-4.4753 -2.217224,-2.2173 -2.2172241,-2.2172 -2.37046,0 -2.3704601,0 0,1.5085 c 0,0.8297 -0.6061881,1.5085 -1.3470847,1.5085 -0.7408967,0 -1.754313,-1.0613 -2.25203652,-2.3583 l -0.90495178,-2.3583 2.1616347,-4.1801 2.1616348,-4.1801 -2.1962767,-6.3748 -2.19627659,-6.3747 1.35279979,-2.4173 1.3527996,-2.4174 1.0355313,3.2627 1.0355312,3.2627 3.669534,0 3.6695341,0 0,-2.928 0,-2.9279 1.673456,-1.0342 1.673455,-1.0343 3.528606,4.1065 c 1.940732,2.2586 3.809998,4.8901 4.153924,5.8478 l 0.62532,1.7413 1.082973,-1.0022 1.082972,-1.0022 -1.770438,-3.3081 -1.770438,-3.308 1.749772,-1.7237 1.749772,-1.7236 2.161161,2.9281 2.16116,2.9282 0,2.7286 0,2.7286 1.319915,0 1.319915,0 0.905085,-4.5254 0.905085,-4.5254 2.893271,0 2.893271,0 0.868284,2.2627 0.868284,2.2627 -0.868284,2.2627 c -0.477556,1.2445 -1.474472,2.2627 -2.215369,2.2627 l -1.347084,0 0,3.879 0,3.8789 2.518614,2.5186 2.518614,2.5186 0.624041,-1.8721 c 0.343223,-1.0297 1.173662,-1.8721 1.845421,-1.8721 0.671757,0 1.615191,1.0262 2.09652,2.2806 l 0.875145,2.2805 -1.710125,3.7534 -1.710123,3.7533 -2.64911,0 -2.64911,0 -0.760853,-1.8856 -0.760854,-1.8856 -0.119094,2.5164 c -0.0655,1.3841 -0.531121,3.5902 -1.034717,4.9026 l -0.915624,2.3861 4.525424,0 4.525423,0 0.868284,2.2627 0.868284,2.2627 -0.868284,2.2627 -0.868284,2.2627 -4.564214,0 -4.564215,0 -2.816769,-3.2477 -2.816767,-3.2478 -2.639831,2.9954 -2.63983,2.9954 -3.392566,0.865 z m 8.169403,-12.9309 1.005648,-1.0057 -1.005648,-1.0056 -1.005651,-1.0057 0,2.0113 0,2.0113 1.005651,-1.0056 z m -6.109451,-8.7481 1.979944,-3.5711 0.106907,2.2627 0.106907,2.2627 2.155805,-3.7712 c 1.185693,-2.0741 2.169464,-4.45 2.18616,-5.2796 l 0.03035,-1.5085 -1.462273,2.2627 -1.462276,2.2627 -0.07655,-2.2627 -0.07655,-2.2627 -2.155805,3.7712 -2.155805,3.7712 -0.09932,-2.2628 -0.09932,-2.2627 -1.465009,2.5102 -1.46501,2.5102 0.985957,2.5694 0.985956,2.5693 1.979945,-3.571 z m -1.432922,-0.3028 -1.005651,1.0057 0,-2.0113 0,-2.0113 1.005651,1.0056 1.005648,1.0057 -1.005648,1.0056 z m 4.525423,-3.0169 -1.00565,1.0056 0,-2.0113 0,-2.0113 1.00565,1.0057 1.005649,1.0056 -1.005649,1.0057 z m -12.912057,0.5028 1.669865,0 -0.915627,-2.3861 c -0.503595,-1.3123 -0.915628,-2.6699 -0.915628,-3.0169 0,-0.347 -1.357627,-0.6309 -3.016949,-0.6309 l -3.016949,0 0,1.5085 0,1.5085 2.2627119,0 2.2627121,0 0,1.5084 0,1.5085 1.669864,0 z"
         id="path3776"
         inkscape:connector-curvature="0" />
      <path
         style="fill:#00cb00"
         d="m 21.583111,1051.1915 -3.306721,0.8426 -0.841584,-0.8416 c -0.462872,-0.4629 -0.887528,-2.2558 -0.943679,-3.9843 l -0.102095,-3.1426 -1.636897,3.394 c -0.900293,1.8668 -2.139352,3.3941 -2.753465,3.3941 -0.614112,0 -1.523796,-1.0612 -2.0215198,-2.3583 l -0.9049518,-2.3582 2.3142966,-4.4754 2.314297,-4.4753 -2.217224,-2.2173 -2.2172241,-2.2172 -2.37046,0 -2.3704601,0 0,1.5085 c 0,0.8297 -0.6061881,1.5085 -1.3470847,1.5085 -0.7408967,0 -1.754313,-1.0613 -2.25203652,-2.3583 l -0.90495178,-2.3583 2.1616347,-4.1801 2.1616348,-4.1801 -2.1962767,-6.3748 -2.19627659,-6.3747 1.35279979,-2.4173 1.3527996,-2.4174 1.0355313,3.2627 1.0355312,3.2627 3.669534,0 3.6695341,0 0,-2.928 0,-2.9279 1.673456,-1.0342 1.673455,-1.0343 3.528606,4.1065 c 1.940732,2.2586 3.809998,4.8901 4.153924,5.8478 l 0.62532,1.7413 1.082973,-1.0022 1.082972,-1.0022 -1.770438,-3.3081 -1.770438,-3.308 1.749772,-1.7237 1.749772,-1.7236 2.161161,2.9281 2.16116,2.9282 0,2.7286 0,2.7286 1.319915,0 1.319915,0 0.905085,-4.5254 0.905085,-4.5254 2.893271,0 2.893271,0 0.868284,2.2627 0.868284,2.2627 -0.868284,2.2627 c -0.477556,1.2445 -1.474472,2.2627 -2.215369,2.2627 l -1.347084,0 0,3.879 0,3.8789 2.518614,2.5186 2.518614,2.5186 0.624041,-1.8721 c 0.343223,-1.0297 1.173662,-1.8721 1.845421,-1.8721 0.671757,0 1.615191,1.0262 2.09652,2.2806 l 0.875145,2.2805 -1.710125,3.7534 -1.710123,3.7533 -2.774816,0 -2.774817,0 0,-1.5085 0,-1.5085 2.855559,0 2.855559,0 0.951136,-2.4786 0.951134,-2.4786 -0.871764,-0.8718 -0.871766,-0.8717 -1.541296,2.219 -1.541296,2.219 -0.765101,-1.8856 -0.765103,-1.8856 -2.998991,0 -2.99899,0 -2.334544,-2.3345 -2.334544,-2.3346 1.140334,-1.0595 1.140336,-1.0595 0.673425,1.8856 c 0.370385,1.0371 1.295673,1.8856 2.056194,1.8856 l 1.382769,0 0,-6.0339 0,-6.0339 2.262712,0 2.262712,0 0,-1.5085 0,-1.5085 -3.016949,0 -3.016949,0 0,4.5254 0,4.5255 -3.01695,0 -3.016949,0 -0.0231,-4.1483 c -0.0127,-2.2816 -0.654609,-5.1469 -1.426454,-6.3674 l -1.403355,-2.219 -0.958475,0.9585 -0.958475,0.9585 1.683765,3.1461 1.683767,3.1461 -1.556139,2.9077 -1.55614,2.9077 0.958754,2.4985 0.958751,2.4984 1.275452,-2.012 1.27545,-2.0121 -0.04013,1.5085 c -0.02208,0.8296 -1.340854,3.8843 -2.930625,6.7881 l -2.890492,5.2797 -0.116682,-2.2628 -0.116682,-2.2627 -2.155805,3.7712 c -1.185693,2.0742 -2.179859,4.9591 -2.209259,6.411 l -0.05345,2.6399 2.262712,0 2.262712,0 0,-1.3828 c 0,-0.7605 -0.848517,-1.6858 -1.885593,-2.0562 l -1.885594,-0.6734 1.059524,-1.1404 1.059524,-1.1403 2.33021,2.3302 2.330212,2.3302 -0.911295,2.3748 -0.911294,2.3748 -2.855559,0 -2.855559,0 0.119094,3.3941 0.119094,3.394 0.760854,-1.8855 0.760853,-1.8856 2.244754,0 2.244753,0 2.316765,-2.3168 2.316764,-2.3168 -0.744896,-2.5857 c -0.4097,-1.4222 -1.23395,-3.7737 -1.831672,-5.2257 l -1.08677,-2.6398 1.669864,0 1.669865,0 0.02309,3.3941 0.0231,3.3941 1.462285,-2.2628 1.462276,-2.2627 0.0231,4.2561 0.0231,4.256 2.154964,2.155 2.154964,2.155 4.633171,0 4.633173,0 0,-1.5085 0,-1.5085 -3.878936,0 -3.878933,0 -2.518614,-2.5186 -2.518614,-2.5186 1.872125,-0.6241 1.872124,-0.624 0,-2.8912 0,-2.8913 -2.855559,0 -2.855559,0 -0.951135,-2.4786 -0.951134,-2.4786 0.996261,-0.9155 0.996263,-0.9154 0.673426,1.8856 0.673426,1.8856 3.747133,0 3.747132,0 -0.736196,2.6398 c -0.404909,1.4519 -1.17521,4.1672 -1.711781,6.0339 l -0.975581,3.3941 4.465686,0 4.465685,0 0.868284,2.2627 0.868284,2.2627 -0.868284,2.2627 -0.868284,2.2627 -4.564214,0 -4.564215,0 -2.816769,-3.2477 -2.816767,-3.2478 -2.639831,2.9954 -2.63983,2.9954 -3.30672,0.8425 z m -9.616967,-3.3547 1.406822,0 1.020802,-3.2163 1.020801,-3.2163 1.300811,2.0849 1.30081,2.085 -0.933356,-5.8078 -0.933355,-5.8077 1.511075,-0.9804 c 0.831092,-0.5392 2.652767,-3.0169 4.048168,-5.5058 l 2.537091,-4.5255 -0.881376,3.7712 -0.881376,3.7712 1.499858,-2.3618 1.499857,-2.3618 -2.227373,-6.465 c -1.225055,-3.5557 -3.225205,-7.4628 -4.444778,-8.6824 -1.219573,-1.2195 -2.217404,-2.8477 -2.217404,-3.6181 0,-0.7704 -0.678814,-1.4007 -1.508475,-1.4007 l -1.508475,0 0,2.4629 0,2.4629 2.775743,2.4396 2.775741,2.4397 1.024185,4.1483 1.024183,4.1483 -1.537214,0 c -0.845468,0 -1.537214,-0.575 -1.537214,-1.2777 0,-0.7027 -1.267545,-2.7391 -2.816767,-4.5254 l -2.816768,-3.2478 -3.7408516,0 -3.7408515,0 -1.7856485,-3.394 -1.7856484,-3.3941 0.8008946,2.7632 c 0.4404919,1.5198 0.8008946,3.7259 0.8008946,4.9025 l 0,2.1394 4.5254238,0 4.525424,0 0,1.5084 0,1.5085 -1.616223,0 c -0.8889226,0 -2.4787474,0.8625 -3.5329443,1.9167 -1.0541967,1.0542 -2.7577416,3.4882 -3.7856553,5.4089 l -1.8689339,3.4921 1.0829717,1.0022 1.0829717,1.0022 0.6734262,-1.8856 0.6734262,-1.8856 2.3371871,0 2.3371872,0 2.8167674,3.2477 c 1.549223,1.7863 2.792714,3.653 2.763315,4.1483 -0.0294,0.4953 -1.023566,2.5976 -2.209259,4.6718 -1.185693,2.0741 -2.179859,4.2803 -2.209258,4.9025 -0.0294,0.6223 0.579616,1.1314 1.353368,1.1314 z m 1.610127,-18.1017 c -0.829661,0 -1.508474,-0.6788 -1.508474,-1.5085 l 0,-1.5085 -2.2627121,0 -2.2627119,0 0,-1.5085 0,-1.5084 2.2627119,0 2.2627121,0 0,1.5084 0,1.5085 1.610127,0 1.610127,0 -0.927918,-3.394 -0.927919,-3.3941 1.828704,3.0169 c 1.005786,1.6594 2.54587,3.4892 3.422409,4.0663 l 1.593708,1.0494 -1.16969,1.1696 -1.16969,1.1697 -1.403355,-2.219 -1.403356,-2.219 -0.0231,1.8856 -0.0231,1.8856 -1.508475,0 z"
         id="path3774"
         inkscape:connector-curvature="0" />
    </g>
  </g>
</svg>
