<?xml version="1.0" encoding="UTF-8" standalone="no"?>
<svg
   xmlns:dc="http://purl.org/dc/elements/1.1/"
   xmlns:cc="http://creativecommons.org/ns#"
   xmlns:rdf="http://www.w3.org/1999/02/22-rdf-syntax-ns#"
   xmlns:svg="http://www.w3.org/2000/svg"
   xmlns="http://www.w3.org/2000/svg"
   xmlns:sodipodi="http://sodipodi.sourceforge.net/DTD/sodipodi-0.dtd"
   xmlns:inkscape="http://www.inkscape.org/namespaces/inkscape"
   version="1.1"
   width="64"
   height="64"
   color-interpolation="linearRGB"
   id="svg2"
   inkscape:version="0.48.3.1 r9886"
   sodipodi:docname="system-run.svg">
  <metadata
     id="metadata98">
    <rdf:RDF>
      <cc:Work
         rdf:about="">
        <dc:format>image/svg+xml</dc:format>
        <dc:type
           rdf:resource="http://purl.org/dc/dcmitype/StillImage" />
        <dc:title></dc:title>
      </cc:Work>
    </rdf:RDF>
  </metadata>
  <defs
     id="defs96">
    <linearGradient
       id="aigrd1"
       gradientUnits="userSpaceOnUse"
       x1="12.6045"
       y1="12.1245"
       x2="18.485701"
       y2="19.192499">
      <stop
         offset="0"
         style="stop-color:#BBBBBB"
         id="stop8" />
      <stop
         offset="1"
         style="stop-color:#D2D2D2"
         id="stop10" />
    </linearGradient>
    <linearGradient
       id="aigrd2"
       gradientUnits="userSpaceOnUse"
       x1="44.0933"
       y1="-45.209999"
       x2="47.815498"
       y2="-40.736599"
       gradientTransform="matrix(0.9625,0.2714,-0.2714,0.9625,-49.4545,35.6615)">
      <stop
         offset="0"
         style="stop-color:#BBBBBB"
         id="stop29" />
      <stop
         offset="1"
         style="stop-color:#D2D2D2"
         id="stop31" />
    </linearGradient>
  </defs>
  <sodipodi:namedview
     pagecolor="#ffffff"
     bordercolor="#666666"
     borderopacity="1"
     objecttolerance="10"
     gridtolerance="10"
     guidetolerance="10"
     inkscape:pageopacity="0"
     inkscape:pageshadow="2"
     inkscape:window-width="770"
     inkscape:window-height="480"
     id="namedview94"
     showgrid="false"
     inkscape:zoom="3.6875"
     inkscape:cx="32"
     inkscape:cy="32"
     inkscape:window-x="272"
     inkscape:window-y="491"
     inkscape:window-maximized="0"
     inkscape:current-layer="svg2" />
  <g
     id="g4">
    <radialGradient
       id="gradient0"
       gradientUnits="userSpaceOnUse"
       cx="0"
       cy="0"
       r="64"
       gradientTransform="matrix(0.4898,-0.4128,0.2049,0.2432,18.1244,60.3866)">
      <stop
         offset="0"
         stop-color="#000000"
         stop-opacity="0.196"
         id="stop7" />
      <stop
         offset="1"
         stop-color="#000000"
         stop-opacity="0.3529"
         id="stop9" />
    </radialGradient>
    <path
       style="fill:url(#gradient0)"
       d="M22.67 59.3L20 64H28L32 56L44 53C57 50 63 40 64 37C62 36 47 34 36 42L28 48L19 46L18.3 52.44L22.67 59.3z"
       id="path11" />
    <radialGradient
       id="gradient1"
       gradientUnits="userSpaceOnUse"
       cx="0"
       cy="0"
       r="64"
       gradientTransform="matrix(0.1875,0,0,0.0937,11,59)">
      <stop
         offset="0"
         stop-color="#ffffff"
         stop-opacity="0.1215"
         id="stop14" />
      <stop
         offset="0.6556"
         stop-color="#ffffff"
         stop-opacity="0.0431"
         id="stop16" />
      <stop
         offset="1"
         stop-color="#ffffff"
         stop-opacity="0"
         id="stop18" />
    </radialGradient>
    <path
       style="fill:url(#gradient1)"
       d="M0 52V64H20V52H0z"
       id="path20" />
    <path
       style="fill:#000000"
       d="M22 46V60L32 50V38C35.09 35.74 39.55 32.67 45.11 29.5C59.82 21.09 60 3 60 0C57 0 38.91 0.16 30.5 14.89C27.31 20.44 24.76 25.35 22 28H10L0 38H14L12 40L20 48L22 46z"
       id="path22" />
    <path
       style="fill:none; stroke:#000000; stroke-width:4"
       d="M26 43C26 43 24 46 24 50C24 55 29.5 63 29.5 63C29.5 63 35 55 35 50C35 46 33 43 33 43H26z"
       transform="matrix(0.7011,0.713,-0.713,0.7011,26.344,-7.2522)"
       id="path24" />
    <path
       style="fill:#ff9900"
       d="M26 43C26 43 24 46 24 50C24 55 29.5 63 29.5 63C29.5 63 35 55 35 50C35 46 33 43 33 43H26z"
       transform="matrix(0.7011,0.713,-0.713,0.7011,26.344,-7.2522)"
       id="path26" />
    <path
       style="fill:#ffe400"
       d="M26 43C26 43 24 46 24 50C24 55 29.5 63 29.5 63C29.5 63 35 55 35 50C35 46 33 43 33 43H26z"
       transform="matrix(0.5402,0.5488,-0.5493,0.5397,23.6175,4.9563)"
       id="path28" />
    <path
       style="fill:#fdff75"
       d="M26 43C26 43 24 46 24 50C24 55 29.5 63 29.5 63C29.5 63 35 55 35 50C35 46 33 43 33 43H26z"
       transform="matrix(0.3344,0.3392,-0.34,0.3335,19.4096,21.2728)"
       id="path30" />
    <linearGradient
       id="gradient2"
       gradientUnits="userSpaceOnUse"
       x1="13.08"
       y1="35.72"
       x2="13.08"
       y2="29.76">
      <stop
         offset="0"
         stop-color="#ff0000"
         id="stop33" />
      <stop
         offset="1"
         stop-color="#ff6666"
         id="stop35" />
    </linearGradient>
    <path
       style="fill:url(#gradient2)"
       d="M5 36H12L21 30H11L5 36z"
       id="path37" />
    <linearGradient
       id="gradient3"
       gradientUnits="userSpaceOnUse"
       x1="42.26"
       y1="6.03"
       x2="55.41"
       y2="21.1">
      <stop
         offset="0"
         stop-color="#b20404"
         id="stop40" />
      <stop
         offset="1"
         stop-color="#8b0303"
         id="stop42" />
    </linearGradient>
    <path
       style="fill:url(#gradient3)"
       d="M15 36L21 30L12 36H15z"
       id="path44" />
    <linearGradient
       id="gradient4"
       gradientUnits="userSpaceOnUse"
       x1="23.89"
       y1="38.46"
       x2="30.2"
       y2="38.13">
      <stop
         offset="0"
         stop-color="#f70606"
         id="stop47" />
      <stop
         offset="1"
         stop-color="#980404"
         id="stop49" />
    </linearGradient>
    <path
       style="fill:url(#gradient4)"
       d="M30 49V39L24 48V55L30 49z"
       id="path51" />
    <linearGradient
       id="gradient5"
       gradientUnits="userSpaceOnUse"
       x1="42.26"
       y1="6.03"
       x2="55.41"
       y2="21.1">
      <stop
         offset="0"
         stop-color="#b20404"
         id="stop54" />
      <stop
         offset="1"
         stop-color="#8b0303"
         id="stop56" />
    </linearGradient>
    <path
       style="fill:url(#gradient5)"
       d="M24 45V48L30 39L24 45z"
       id="path58" />
    <linearGradient
       id="gradient6"
       gradientUnits="userSpaceOnUse"
       x1="46.2"
       y1="2.06"
       x2="57.89"
       y2="16.36">
      <stop
         offset="0"
         stop-color="#ff0000"
         id="stop61" />
      <stop
         offset="0.4"
         stop-color="#ff0000"
         id="stop63" />
      <stop
         offset="1"
         stop-color="#610202"
         id="stop65" />
    </linearGradient>
    <path
       style="fill:url(#gradient6)"
       d="M32.21 15.87C26.72 25.47 21.27 32.32 19 35L25 41C27.65 38.71 34.52 33.27 44.12 27.78C49.02 24.98 52 21 54 17C53.72 14.71 52.6 11.95 50.33 9.67C48.04 7.4 45.28 6.27 43 6C39 8 35 10.98 32.21 15.87z"
       id="path67" />
    <linearGradient
       id="gradient7"
       gradientUnits="userSpaceOnUse"
       x1="16.63"
       y1="37.4"
       x2="22.59"
       y2="43.35">
      <stop
         offset="0"
         stop-color="#969696"
         id="stop70" />
      <stop
         offset="1"
         stop-color="#585858"
         id="stop72" />
    </linearGradient>
    <path
       style="fill:url(#gradient7)"
       d="M19 35L14.11 40.27L14.13 40.29L19.72 45.86L19.73 45.88L25 41L19 35z"
       id="path74" />
    <path
       style="fill:none; stroke:#000000; stroke-width:4"
       d="M14 47L26 35L25 34L13 46L14 47z"
       id="path76" />
    <linearGradient
       id="gradient8"
       gradientUnits="userSpaceOnUse"
       x1="22.66"
       y1="33.76"
       x2="25.29"
       y2="35.88">
      <stop
         offset="0"
         stop-color="#ff6666"
         id="stop79" />
      <stop
         offset="1"
         stop-color="#c20000"
         id="stop81" />
    </linearGradient>
    <path
       style="fill:url(#gradient8)"
       d="M14 47L26 35L25 34L13 46L14 47z"
       id="path83" />
    <linearGradient
       id="gradient9"
       gradientUnits="userSpaceOnUse"
       x1="-51.01"
       y1="-21.49"
       x2="-17.78"
       y2="-60.26">
      <stop
         offset="0"
         stop-color="#ffacac"
         id="stop86" />
      <stop
         offset="0.6556"
         stop-color="#fff1f1"
         id="stop88" />
      <stop
         offset="1"
         stop-color="#b4b4b4"
         id="stop90" />
    </linearGradient>
    <path
       style="fill:url(#gradient9)"
       d="M34 19C29.95 24.32 26.56 29.01 24 32C27.03 29.46 30.69 25.07 35 20C45.02 8.19 57 2 57 2C57 2 43.42 6.59 34 19z"
       id="path92" />
  </g>
  <g
     transform="matrix(1.25,0,0,1.25,34.209749,31.977754)"
     id="Layer_x0020_2"
     style="fill:#ffffff;fill-rule:nonzero;stroke:#000000;stroke-miterlimit:4">
    <path
       inkscape:connector-curvature="0"
       style="fill:none;stroke-width:2.47239995;stroke-linecap:round;stroke-linejoin:round"
       d="M 21.6,16.3 V 14.1 H 20.2 C 20.1,13.5 19.8,13 19.5,12.5 l 1,-1 -1.6,-1.6 -1,1 c -0.5,-0.3 -1,-0.5 -1.6,-0.7 V 8.8 h -2.2 v 1.4 c -0.6,0.1 -1.1,0.4 -1.6,0.7 l -1,-1 -1.6,1.6 1,1 c -0.3,0.5 -0.5,1 -0.7,1.6 H 8.8 v 2.2 h 1.4 c 0.1,0.6 0.4,1.1 0.7,1.6 l -1,1 1.6,1.6 1,-1 c 0.5,0.3 1,0.5 1.6,0.7 v 1.4 h 2.2 v -1.4 c 0.6,-0.1 1.1,-0.4 1.6,-0.7 l 1,1 1.6,-1.6 -1,-1 c 0.3,-0.5 0.5,-1 0.7,-1.6 h 1.4 z m -6.4,0.1 c -0.6,0 -1.1,-0.5 -1.1,-1.1 0,-0.6 0.5,-1.1 1.1,-1.1 0.6,0 1.1,0.5 1.1,1.1 0,0.6 -0.5,1.1 -1.1,1.1 z"
       id="path5" />
    <linearGradient
       id="linearGradient3049"
       gradientUnits="userSpaceOnUse"
       x1="12.6045"
       y1="12.1245"
       x2="18.485701"
       y2="19.192499">
      <stop
         offset="0"
         style="stop-color:#BBBBBB"
         id="stop3051" />
      <stop
         offset="1"
         style="stop-color:#D2D2D2"
         id="stop3053" />
    </linearGradient>
    <path
       inkscape:connector-curvature="0"
       style="fill:url(#aigrd1);stroke:none"
       d="M 21.6,16.3 V 14.1 H 20.2 C 20.1,13.5 19.8,13 19.5,12.5 l 1,-1 -1.6,-1.6 -1,1 c -0.5,-0.3 -1,-0.5 -1.6,-0.7 V 8.8 h -2.2 v 1.4 c -0.6,0.1 -1.1,0.4 -1.6,0.7 l -1,-1 -1.6,1.6 1,1 c -0.3,0.5 -0.5,1 -0.7,1.6 H 8.8 v 2.2 h 1.4 c 0.1,0.6 0.4,1.1 0.7,1.6 l -1,1 1.6,1.6 1,-1 c 0.5,0.3 1,0.5 1.6,0.7 v 1.4 h 2.2 v -1.4 c 0.6,-0.1 1.1,-0.4 1.6,-0.7 l 1,1 1.6,-1.6 -1,-1 c 0.3,-0.5 0.5,-1 0.7,-1.6 h 1.4 z m -6.4,0.1 c -0.6,0 -1.1,-0.5 -1.1,-1.1 0,-0.6 0.5,-1.1 1.1,-1.1 0.6,0 1.1,0.5 1.1,1.1 0,0.6 -0.5,1.1 -1.1,1.1 z"
       id="path12" />
    <g
       style="stroke:none"
       id="g14">
      <path
         inkscape:connector-curvature="0"
         style="opacity:0.58999999"
         d="m 11.5,12.5 -1,-1 1.3,-1.3 -0.3,-0.3 -1.6,1.6 1,1 c -0.3,0.5 -0.5,1 -0.7,1.6 h 0.6 c 0.1,-0.6 0.4,-1.1 0.7,-1.6 z"
         id="path16" />
      <path
         inkscape:connector-curvature="0"
         style="opacity:0.58999999"
         d="m 13.1,19.5 -0.2,0.2 c 0.4,0.2 0.8,0.4 1.2,0.5 v 1.4 h 0.6 v -1.4 c -0.6,-0.1 -1.1,-0.4 -1.6,-0.7 z"
         id="path18" />
      <path
         inkscape:connector-curvature="0"
         style="opacity:0.58999999"
         d="m 11.5,17.9 c -0.3,-0.5 -0.5,-1 -0.7,-1.6 h -0.6 c 0.1,0.6 0.4,1.1 0.7,1.6 l -1,1 1.6,1.6 0.3,-0.3 -1.3,-1.3 1,-1 z"
         id="path20-9" />
      <path
         inkscape:connector-curvature="0"
         style="opacity:0.58999999"
         d="m 8.8,14.1 v 2.2 h 0.6 l 0,-2.2 H 8.8 z"
         id="path22-5" />
      <path
         inkscape:connector-curvature="0"
         style="opacity:0.58999999"
         d="M 14.7,10.2 V 8.8 h -0.6 v 1.4 c -0.4,0.1 -0.8,0.2 -1.2,0.4 l 0.2,0.2 c 0.5,-0.3 1,-0.5 1.6,-0.7 z"
         id="path24-5" />
    </g>
    <path
       inkscape:connector-curvature="0"
       style="fill:none;stroke-width:2.47239995;stroke-linecap:round;stroke-linejoin:round"
       d="M 10,8.2 10.4,6.8 9.5,6.6 C 9.5,6.2 9.5,5.9 9.4,5.5 L 10.2,5.1 9.5,3.8 8.7,4.3 C 8.4,4 8.2,3.8 7.8,3.6 L 8,2.7 6.7,2.3 6.5,3.2 c -0.4,0 -0.7,0 -1.1,0.1 L 4.9,2.6 3.7,3.3 4.1,4 C 3.9,4.3 3.6,4.6 3.5,4.9 L 2.6,4.7 2.2,6 3.1,6.2 c 0,0.4 0,0.7 0.1,1.1 L 2.4,7.8 3.1,9 3.9,8.6 C 4.1,8.9 4.4,9.1 4.8,9.3 L 4.6,10.2 6,10.6 6.2,9.7 c 0.4,0 0.7,0 1.1,-0.1 L 7.7,10.4 8.9,9.7 8.5,8.8 C 8.7,8.6 9,8.3 9.1,8 L 10,8.2 z M 6.1,7.1 C 5.7,7 5.5,6.6 5.6,6.3 5.7,5.9 6.1,5.7 6.5,5.8 6.9,5.9 7.1,6.3 7,6.6 6.9,7 6.5,7.2 6.1,7.1 z"
       id="path26-7" />
    <linearGradient
       id="linearGradient3063"
       gradientUnits="userSpaceOnUse"
       x1="44.0933"
       y1="-45.209999"
       x2="47.815498"
       y2="-40.736599"
       gradientTransform="matrix(0.9625,0.2714,-0.2714,0.9625,-49.4545,35.6615)">
      <stop
         offset="0"
         style="stop-color:#BBBBBB"
         id="stop3065" />
      <stop
         offset="1"
         style="stop-color:#D2D2D2"
         id="stop3067" />
    </linearGradient>
    <path
       inkscape:connector-curvature="0"
       style="fill:url(#aigrd2);stroke:none"
       d="M 10,8.2 10.4,6.8 9.5,6.6 C 9.5,6.2 9.5,5.9 9.4,5.5 L 10.2,5.1 9.5,3.8 8.7,4.3 C 8.4,4 8.2,3.8 7.8,3.6 L 8,2.7 6.7,2.3 6.5,3.2 c -0.4,0 -0.7,0 -1.1,0.1 L 4.9,2.6 3.7,3.3 4.1,4 C 3.9,4.3 3.6,4.6 3.5,4.9 L 2.6,4.7 2.2,6 3.1,6.2 c 0,0.4 0,0.7 0.1,1.1 L 2.4,7.8 3.1,9 3.9,8.6 C 4.1,8.9 4.4,9.1 4.8,9.3 L 4.6,10.2 6,10.6 6.2,9.7 c 0.4,0 0.7,0 1.1,-0.1 L 7.7,10.4 8.9,9.7 8.5,8.8 C 8.7,8.6 9,8.3 9.1,8 L 10,8.2 z M 6.1,7.1 C 5.7,7 5.5,6.6 5.6,6.3 5.7,5.9 6.1,5.7 6.5,5.8 6.9,5.9 7.1,6.3 7,6.6 6.9,7 6.5,7.2 6.1,7.1 z"
       id="path33" />
    <g
       style="stroke:none"
       id="g35">
      <path
         inkscape:connector-curvature="0"
         style="opacity:0.58999999"
         d="M 4.5,4.1 4.1,3.3 5.1,2.7 5,2.5 3.7,3.2 4.2,4 C 3.9,4.3 3.7,4.6 3.5,4.9 L 3.8,5 C 4,4.7 4.3,4.4 4.5,4.1 z"
         id="path37-9" />
      <path
         inkscape:connector-curvature="0"
         style="opacity:0.58999999"
         d="M 4.3,8.7 4.1,8.8 C 4.3,9 4.5,9.1 4.8,9.3 L 4.6,10.2 5,10.3 5.2,9.4 C 4.8,9.2 4.5,9 4.3,8.7 z"
         id="path39" />
      <path
         inkscape:connector-curvature="0"
         style="opacity:0.58999999"
         d="M 3.6,7.5 C 3.5,7.1 3.4,6.7 3.5,6.4 L 3.1,6.3 c 0,0.4 0,0.7 0.1,1.1 L 2.5,7.8 3.1,9 3.3,8.9 2.7,7.9 3.5,7.5 z"
         id="path41" />
      <path
         inkscape:connector-curvature="0"
         style="opacity:0.58999999"
         d="M 2.6,4.6 2.2,6 2.6,6.1 3,4.7 2.6,4.6 z"
         id="path43" />
      <path
         inkscape:connector-curvature="0"
         style="opacity:0.58999999"
         d="M 6.9,3.3 7.1,2.4 6.8,2.3 6.5,3.2 c -0.3,0 -0.6,0 -0.8,0.1 L 5.8,3.5 C 6.1,3.4 6.5,3.4 6.9,3.4 z"
         id="path45" />
    </g>
  </g>
</svg>
