<?xml version="1.0" encoding="UTF-8" standalone="no"?>
<svg
   xmlns:dc="http://purl.org/dc/elements/1.1/"
   xmlns:cc="http://creativecommons.org/ns#"
   xmlns:rdf="http://www.w3.org/1999/02/22-rdf-syntax-ns#"
   xmlns:svg="http://www.w3.org/2000/svg"
   xmlns="http://www.w3.org/2000/svg"
   xmlns:sodipodi="http://sodipodi.sourceforge.net/DTD/sodipodi-0.dtd"
   xmlns:inkscape="http://www.inkscape.org/namespaces/inkscape"
   version="1.1"
   width="64"
   height="64"
   color-interpolation="linearRGB"
   id="svg2"
   inkscape:version="0.47 r22583"
   sodipodi:docname="xfpm-primary-060.svg"
   inkscape:export-filename="/home/mdl/.icons/unix/scalable/battery.png"
   inkscape:export-xdpi="90"
   inkscape:export-ydpi="90">
  <metadata
     id="metadata84">
    <rdf:RDF>
      <cc:Work
         rdf:about="">
        <dc:format>image/svg+xml</dc:format>
        <dc:type
           rdf:resource="http://purl.org/dc/dcmitype/StillImage" />
        <dc:title></dc:title>
      </cc:Work>
    </rdf:RDF>
  </metadata>
  <defs
     id="defs82">
    <inkscape:perspective
       sodipodi:type="inkscape:persp3d"
       inkscape:vp_x="0 : 32 : 1"
       inkscape:vp_y="0 : 1000 : 0"
       inkscape:vp_z="64 : 32 : 1"
       inkscape:persp3d-origin="32 : 21.333333 : 1"
       id="perspective86" />
    <inkscape:perspective
       id="perspective2902"
       inkscape:persp3d-origin="0.5 : 0.33333333 : 1"
       inkscape:vp_z="1 : 0.5 : 1"
       inkscape:vp_y="0 : 1000 : 0"
       inkscape:vp_x="0 : 0.5 : 1"
       sodipodi:type="inkscape:persp3d" />
  </defs>
  <sodipodi:namedview
     pagecolor="#ffffff"
     bordercolor="#666666"
     borderopacity="1"
     objecttolerance="10"
     gridtolerance="10"
     guidetolerance="10"
     inkscape:pageopacity="0"
     inkscape:pageshadow="2"
     inkscape:window-width="1106"
     inkscape:window-height="682"
     id="namedview80"
     showgrid="false"
     inkscape:zoom="3.6875"
     inkscape:cx="44.076223"
     inkscape:cy="10.305085"
     inkscape:window-x="89"
     inkscape:window-y="43"
     inkscape:window-maximized="0"
     inkscape:current-layer="svg2" />
  <g
     id="g4"
     transform="translate(-7.9999062,0)">
    <path
       style="fill:#000100;fill-opacity:0.44310004"
       d="M 48,40 H 44 L 26,64 H 48 C 54.62,64 60,58.62 60,52 60,45.37 54.62,40 48,40 z"
       id="path6" />
    <path
       style="fill:none;stroke:#000100;stroke-width:4;stroke-linecap:round;stroke-linejoin:round"
       d="m 10,38 c 0.02,5.51 7.14,10 16,10 8.81,0 15.97,-4.49 16,-10 V 14 C 42,8.47 34.83,4 26,4 17.16,4 10,8.47 10,14 V 38 z M 41.97,37.98 C 42,43.5 34.81,48 26,48 17.14,48 9.97,43.5 10,37.98 V 50 c 0.02,6.62 7.14,12 16,12 8.81,0 15.97,-5.38 16,-12 L 41.97,37.98 z"
       id="path8" />
    <linearGradient
       id="gradient0"
       gradientUnits="userSpaceOnUse"
       x1="42"
       y1="32"
       x2="10"
       y2="32">
      <stop
         offset="0"
         stop-color="#3dae3d"
         id="stop11" />
      <stop
         offset="0.1702"
         stop-color="#237823"
         id="stop13" />
      <stop
         offset="0.826"
         stop-color="#50e550"
         id="stop15" />
      <stop
         offset="1"
         stop-color="#2eaa2e"
         id="stop17" />
    </linearGradient>
    <path
       style="fill:url(#gradient0)"
       d="m 10,38 c 0.02,5.51 7.14,10 16,10 8.81,0 15.97,-4.49 16,-10 V 14 C 42,19.52 34.83,24 26,24 17.16,24 10,19.52 10,14 v 24 z"
       id="path19" />
    <linearGradient
       id="gradient1"
       gradientUnits="userSpaceOnUse"
       x1="42"
       y1="32"
       x2="10"
       y2="32">
      <stop
         offset="0"
         stop-color="#ff9900"
         id="stop22" />
      <stop
         offset="0.1702"
         stop-color="#e37d06"
         id="stop24" />
      <stop
         offset="0.826"
         stop-color="#ffcc00"
         id="stop26" />
      <stop
         offset="1"
         stop-color="#ff9900"
         id="stop28" />
    </linearGradient>
    <path
       style="fill:url(#gradient1)"
       d="M 41.97,37.98 C 42,43.5 34.81,48 26,48 17.14,48 9.97,43.5 10,37.98 V 50 c 0.02,6.62 7.14,12 16,12 8.81,0 15.97,-5.38 16,-12 L 41.97,37.98 z"
       id="path30" />
    <linearGradient
       id="gradient2"
       gradientUnits="userSpaceOnUse"
       x1="48.490002"
       y1="-28.370001"
       x2="69.410004"
       y2="0.92000002">
      <stop
         offset="0"
         stop-color="#b3ffb3"
         id="stop33" />
      <stop
         offset="1"
         stop-color="#56c856"
         id="stop35" />
    </linearGradient>
    <path
       style="fill:url(#gradient2)"
       d="M 10,14 C 10,8.47 17.16,4 26,4 34.83,4 42,8.47 42,14 42,19.52 34.83,24 26,24 17.16,24 10,19.52 10,14 z"
       id="path37" />
    <radialGradient
       id="gradient3"
       gradientUnits="userSpaceOnUse"
       cx="0"
       cy="0"
       r="64"
       gradientTransform="matrix(0.375,0,0,0.375,26,16)">
      <stop
         offset="1"
         stop-color="#010101"
         id="stop40" />
      <stop
         offset="0"
         stop-color="#666666"
         id="stop42" />
    </radialGradient>
    <path
       style="fill:url(#gradient3)"
       d="m 40,14 c 0,4.41 -6.27,8 -14,8 -7.74,0 -14,-3.59 -14,-8 0,-4.42 6.26,-8 14,-8 7.73,0 14,3.58 14,8 z"
       id="path44" />
    <path
       style="fill:none;stroke:#000100;stroke-width:4;stroke-linecap:round;stroke-linejoin:round"
       d="m 18,8 c 0,-2.21 3.58,-4 8,-4 4.41,0 8,1.79 8,4 v 4 c 0,2.2 -3.59,4 -8,4 -4.42,0 -8,-1.8 -8,-4 V 8 z"
       id="path46" />
    <linearGradient
       id="gradient4"
       gradientUnits="userSpaceOnUse"
       x1="18"
       y1="4"
       x2="34"
       y2="4">
      <stop
         offset="0"
         stop-color="#999999"
         id="stop49" />
      <stop
         offset="0.25"
         stop-color="#cccccc"
         id="stop51" />
      <stop
         offset="1"
         stop-color="#868686"
         id="stop53" />
    </linearGradient>
    <path
       style="fill:url(#gradient4)"
       d="m 18,8 c 0,-2.21 3.58,-4 8,-4 4.41,0 8,1.79 8,4 v 4 c 0,2.2 -3.59,4 -8,4 -4.42,0 -8,-1.8 -8,-4 V 8 z"
       id="path55" />
    <linearGradient
       id="gradient5"
       gradientUnits="userSpaceOnUse"
       x1="47.209999"
       y1="-11.35"
       x2="56.139999"
       y2="1.92">
      <stop
         offset="0"
         stop-color="#ffffff"
         id="stop58" />
      <stop
         offset="1"
         stop-color="#9e9e9e"
         id="stop60" />
    </linearGradient>
    <path
       style="fill:url(#gradient5)"
       d="m 18,8 c 0,-2.21 3.58,-4 8,-4 4.41,0 8,1.79 8,4 0,2.2 -3.59,4 -8,4 -4.42,0 -8,-1.8 -8,-4 z"
       id="path62" />
    <linearGradient
       id="gradient6"
       gradientUnits="userSpaceOnUse"
       x1="43.869999"
       y1="-8.8500004"
       x2="50.5"
       y2="5.6999998">
      <stop
         offset="0"
         stop-color="#f3f3f3"
         id="stop65" />
      <stop
         offset="1"
         stop-color="#c2c2c2"
         id="stop67" />
    </linearGradient>
    <path
       style="fill:url(#gradient6)"
       d="m 18,8 c 0,-2.21 3.58,-4 8,-4 4.41,0 8,1.79 8,4 0,2.2 -3.59,4 -8,4 -4.42,0 -8,-1.8 -8,-4 z"
       transform="matrix(0.7009,0,0,0.5832,7.5429,3.1613)"
       id="path69" />
    <linearGradient
       id="gradient7"
       gradientUnits="userSpaceOnUse"
       x1="10"
       y1="32"
       x2="42"
       y2="32">
      <stop
         offset="0"
         stop-color="#b8b8b8"
         id="stop72" />
      <stop
         offset="0.25"
         stop-color="#eeeeee"
         id="stop74" />
      <stop
         offset="1"
         stop-color="#b8b8b8"
         id="stop76" />
    </linearGradient>
    <path
       style="fill:url(#gradient7)"
       d="m 32,31.11 c -1.27,0.39 -2.61,0.64 -4,0.78 v -3 C 27.34,28.95 26.67,29 26,29 25.32,29 24.65,28.95 24,28.89 v 3 c -1.4,-0.14 -2.74,-0.4 -4,-0.78 v 4 c 1.26,0.39 2.6,0.65 4,0.78 v 3 c 0.65,0.06 1.32,0.11 2,0.11 0.67,0 1.34,-0.05 2,-0.11 v -3 c 1.39,-0.14 2.73,-0.39 4,-0.78 v -4 z"
       id="path78" />
  </g>
  <rect
     y="12.788136"
     x="52.923729"
     height="50.711864"
     width="10.576271"
     id="rect2916"
     style="fill:#ff3e51;fill-opacity:1;stroke:#000000;stroke-width:1;stroke-linecap:butt;stroke-linejoin:miter;stroke-miterlimit:4;stroke-opacity:1;stroke-dasharray:none;stroke-dashoffset:0.5" />
  <rect
     style="fill:#3eff51;fill-opacity:1;stroke:#000000;stroke-width:1;stroke-linecap:butt;stroke-linejoin:miter;stroke-miterlimit:4;stroke-opacity:1;stroke-dasharray:none;stroke-dashoffset:0.50000000000000000"
     id="rect5585"
     width="10.991662"
     height="19.866585"
     x="52.71603"
     y="43.84111" />
</svg>
