<?xml version="1.0" encoding="UTF-8" standalone="no"?>
<svg
   xmlns:dc="http://purl.org/dc/elements/1.1/"
   xmlns:cc="http://creativecommons.org/ns#"
   xmlns:rdf="http://www.w3.org/1999/02/22-rdf-syntax-ns#"
   xmlns:svg="http://www.w3.org/2000/svg"
   xmlns="http://www.w3.org/2000/svg"
   xmlns:xlink="http://www.w3.org/1999/xlink"
   xmlns:sodipodi="http://sodipodi.sourceforge.net/DTD/sodipodi-0.dtd"
   xmlns:inkscape="http://www.inkscape.org/namespaces/inkscape"
   version="1.1"
   width="64"
   height="64"
   color-interpolation="linearRGB"
   id="svg2"
   sodipodi:version="0.32"
   inkscape:version="0.47 r22583"
   sodipodi:docname="battery-caution.svg"
   inkscape:output_extension="org.inkscape.output.svg.inkscape">
  <metadata
     id="metadata83">
    <rdf:RDF>
      <cc:Work
         rdf:about="">
        <dc:format>image/svg+xml</dc:format>
        <dc:type
           rdf:resource="http://purl.org/dc/dcmitype/StillImage" />
      </cc:Work>
    </rdf:RDF>
  </metadata>
  <defs
     id="defs81">
    <inkscape:perspective
       sodipodi:type="inkscape:persp3d"
       inkscape:vp_x="0 : 32 : 1"
       inkscape:vp_y="0 : 1000 : 0"
       inkscape:vp_z="64 : 32 : 1"
       inkscape:persp3d-origin="32 : 21.333333 : 1"
       id="perspective85" />
    <inkscape:perspective
       id="perspective49"
       inkscape:persp3d-origin="32 : 21.333333 : 1"
       inkscape:vp_z="64 : 32 : 1"
       inkscape:vp_y="0 : 1000 : 0"
       inkscape:vp_x="0 : 32 : 1"
       sodipodi:type="inkscape:persp3d" />
    <linearGradient
       inkscape:collect="always"
       xlink:href="#linearGradient2498"
       id="linearGradient3276"
       x1="4"
       y1="48"
       x2="16"
       y2="60"
       gradientUnits="userSpaceOnUse" />
    <linearGradient
       id="linearGradient6525"
       gradientUnits="userSpaceOnUse"
       x1="4.1914001"
       y1="11.1133"
       x2="47.319698"
       y2="56.052299">
      <stop
         offset="0"
         style="stop-color:#ffffff;stop-opacity:1;"
         id="stop6529" />
      <stop
         offset="1"
         style="stop-color:#ffffff;stop-opacity:0.34020618;"
         id="stop6531" />
    </linearGradient>
    <linearGradient
       y2="48.301884"
       x2="30.85088"
       y1="30.281681"
       x1="8.5469341"
       gradientTransform="matrix(0.996047,0,-0.00433576,1.035255,0.02669417,-0.617581)"
       gradientUnits="userSpaceOnUse"
       id="linearGradient3948"
       xlink:href="#linearGradient6525"
       inkscape:collect="always" />
    <linearGradient
       y2="609.50507"
       x2="302.85715"
       y1="366.64789"
       x1="302.85715"
       gradientTransform="matrix(2.774389,0,0,1.969706,-1892.179,-872.8854)"
       gradientUnits="userSpaceOnUse"
       id="linearGradient6715"
       xlink:href="#linearGradient5048"
       inkscape:collect="always" />
    <linearGradient
       id="linearGradient5048">
      <stop
         id="stop5050"
         offset="0"
         style="stop-color:black;stop-opacity:0;" />
      <stop
         style="stop-color:black;stop-opacity:1;"
         offset="0.5"
         id="stop5056" />
      <stop
         id="stop5052"
         offset="1"
         style="stop-color:black;stop-opacity:0;" />
    </linearGradient>
    <radialGradient
       r="117.14286"
       fy="486.64789"
       fx="605.71429"
       cy="486.64789"
       cx="605.71429"
       gradientTransform="matrix(2.774389,0,0,1.969706,-1891.633,-872.8854)"
       gradientUnits="userSpaceOnUse"
       id="radialGradient6717"
       xlink:href="#linearGradient5060"
       inkscape:collect="always" />
    <linearGradient
       id="linearGradient5060"
       inkscape:collect="always">
      <stop
         id="stop5062"
         offset="0"
         style="stop-color:black;stop-opacity:1;" />
      <stop
         id="stop5064"
         offset="1"
         style="stop-color:black;stop-opacity:0;" />
    </linearGradient>
    <radialGradient
       r="117.14286"
       fy="486.64789"
       fx="605.71429"
       cy="486.64789"
       cx="605.71429"
       gradientTransform="matrix(-2.774389,0,0,1.969706,112.7623,-872.8854)"
       gradientUnits="userSpaceOnUse"
       id="radialGradient6719"
       xlink:href="#linearGradient5060"
       inkscape:collect="always" />
    <inkscape:perspective
       id="perspective35"
       inkscape:persp3d-origin="24 : 16 : 1"
       inkscape:vp_z="48 : 24 : 1"
       inkscape:vp_y="0 : 1000 : 0"
       inkscape:vp_x="0 : 24 : 1"
       sodipodi:type="inkscape:persp3d" />
    <linearGradient
       inkscape:collect="always"
       xlink:href="#linearGradient5048"
       id="linearGradient2935"
       gradientUnits="userSpaceOnUse"
       gradientTransform="matrix(2.774389,0,0,1.969706,-1892.179,-872.8854)"
       x1="302.85715"
       y1="366.64789"
       x2="302.85715"
       y2="609.50507" />
    <radialGradient
       inkscape:collect="always"
       xlink:href="#linearGradient5060"
       id="radialGradient2937"
       gradientUnits="userSpaceOnUse"
       gradientTransform="matrix(2.774389,0,0,1.969706,-1891.633,-872.8854)"
       cx="605.71429"
       cy="486.64789"
       fx="605.71429"
       fy="486.64789"
       r="117.14286" />
    <radialGradient
       inkscape:collect="always"
       xlink:href="#linearGradient5060"
       id="radialGradient2939"
       gradientUnits="userSpaceOnUse"
       gradientTransform="matrix(-2.774389,0,0,1.969706,112.7623,-872.8854)"
       cx="605.71429"
       cy="486.64789"
       fx="605.71429"
       fy="486.64789"
       r="117.14286" />
  </defs>
  <sodipodi:namedview
     inkscape:window-height="800"
     inkscape:window-width="1280"
     inkscape:pageshadow="2"
     inkscape:pageopacity="0.0"
     guidetolerance="10.0"
     gridtolerance="10.0"
     objecttolerance="10.0"
     borderopacity="1.0"
     bordercolor="#666666"
     pagecolor="#ffffff"
     id="base"
     showgrid="false"
     inkscape:zoom="5.1486213"
     inkscape:cx="25.619968"
     inkscape:cy="32"
     inkscape:window-x="-4"
     inkscape:window-y="-26"
     inkscape:current-layer="svg2"
     inkscape:window-maximized="0" />
  <g
     id="g4"
     transform="translate(4,0)">
    <path
       style="fill:#000100;fill-opacity:0.44310004"
       d="M 48,40 H 44 L 26,64 H 48 C 54.62,64 60,58.62 60,52 60,45.37 54.62,40 48,40 z"
       id="path6" />
    <path
       style="fill:none;stroke:#000100;stroke-width:4;stroke-linecap:round;stroke-linejoin:round"
       d="m 10,38 c 0.02,5.51 7.14,10 16,10 8.81,0 15.97,-4.49 16,-10 V 14 C 42,8.47 34.83,4 26,4 17.16,4 10,8.47 10,14 V 38 z M 41.97,37.98 C 42,43.5 34.81,48 26,48 17.14,48 9.97,43.5 10,37.98 V 50 c 0.02,6.62 7.14,12 16,12 8.81,0 15.97,-5.38 16,-12 L 41.97,37.98 z"
       id="path8" />
    <linearGradient
       id="gradient0"
       gradientUnits="userSpaceOnUse"
       x1="42"
       y1="32"
       x2="10"
       y2="32">
      <stop
         offset="0"
         stop-color="#3dae3d"
         id="stop11" />
      <stop
         offset="0.1702"
         stop-color="#237823"
         id="stop13" />
      <stop
         offset="0.826"
         stop-color="#50e550"
         id="stop15" />
      <stop
         offset="1"
         stop-color="#2eaa2e"
         id="stop17" />
    </linearGradient>
    <path
       style="fill:url(#gradient0)"
       d="m 10,38 c 0.02,5.51 7.14,10 16,10 8.81,0 15.97,-4.49 16,-10 V 14 C 42,19.52 34.83,24 26,24 17.16,24 10,19.52 10,14 v 24 z"
       id="path19" />
    <linearGradient
       id="gradient1"
       gradientUnits="userSpaceOnUse"
       x1="42"
       y1="32"
       x2="10"
       y2="32">
      <stop
         offset="0"
         stop-color="#ff9900"
         id="stop22" />
      <stop
         offset="0.1702"
         stop-color="#e37d06"
         id="stop24" />
      <stop
         offset="0.826"
         stop-color="#ffcc00"
         id="stop26" />
      <stop
         offset="1"
         stop-color="#ff9900"
         id="stop28" />
    </linearGradient>
    <path
       style="fill:url(#gradient1)"
       d="M 41.97,37.98 C 42,43.5 34.81,48 26,48 17.14,48 9.97,43.5 10,37.98 V 50 c 0.02,6.62 7.14,12 16,12 8.81,0 15.97,-5.38 16,-12 L 41.97,37.98 z"
       id="path30" />
    <linearGradient
       id="gradient2"
       gradientUnits="userSpaceOnUse"
       x1="48.490002"
       y1="-28.370001"
       x2="69.410004"
       y2="0.92000002">
      <stop
         offset="0"
         stop-color="#b3ffb3"
         id="stop33" />
      <stop
         offset="1"
         stop-color="#56c856"
         id="stop35" />
    </linearGradient>
    <path
       style="fill:url(#gradient2)"
       d="M 10,14 C 10,8.47 17.16,4 26,4 34.83,4 42,8.47 42,14 42,19.52 34.83,24 26,24 17.16,24 10,19.52 10,14 z"
       id="path37" />
    <radialGradient
       id="gradient3"
       gradientUnits="userSpaceOnUse"
       cx="0"
       cy="0"
       r="64"
       gradientTransform="matrix(0.375,0,0,0.375,26,16)">
      <stop
         offset="1"
         stop-color="#010101"
         id="stop40" />
      <stop
         offset="0"
         stop-color="#666666"
         id="stop42" />
    </radialGradient>
    <path
       style="fill:url(#gradient3)"
       d="m 40,14 c 0,4.41 -6.27,8 -14,8 -7.74,0 -14,-3.59 -14,-8 0,-4.42 6.26,-8 14,-8 7.73,0 14,3.58 14,8 z"
       id="path44" />
    <path
       style="fill:none;stroke:#000100;stroke-width:4;stroke-linecap:round;stroke-linejoin:round"
       d="m 18,8 c 0,-2.21 3.58,-4 8,-4 4.41,0 8,1.79 8,4 v 4 c 0,2.2 -3.59,4 -8,4 -4.42,0 -8,-1.8 -8,-4 V 8 z"
       id="path46" />
    <linearGradient
       id="gradient4"
       gradientUnits="userSpaceOnUse"
       x1="18"
       y1="4"
       x2="34"
       y2="4">
      <stop
         offset="0"
         stop-color="#999999"
         id="stop49" />
      <stop
         offset="0.25"
         stop-color="#cccccc"
         id="stop51" />
      <stop
         offset="1"
         stop-color="#868686"
         id="stop53" />
    </linearGradient>
    <path
       style="fill:url(#gradient4)"
       d="m 18,8 c 0,-2.21 3.58,-4 8,-4 4.41,0 8,1.79 8,4 v 4 c 0,2.2 -3.59,4 -8,4 -4.42,0 -8,-1.8 -8,-4 V 8 z"
       id="path55" />
    <linearGradient
       id="gradient5"
       gradientUnits="userSpaceOnUse"
       x1="47.209999"
       y1="-11.35"
       x2="56.139999"
       y2="1.92">
      <stop
         offset="0"
         stop-color="#ffffff"
         id="stop58" />
      <stop
         offset="1"
         stop-color="#9e9e9e"
         id="stop60" />
    </linearGradient>
    <path
       style="fill:url(#gradient5)"
       d="m 18,8 c 0,-2.21 3.58,-4 8,-4 4.41,0 8,1.79 8,4 0,2.2 -3.59,4 -8,4 -4.42,0 -8,-1.8 -8,-4 z"
       id="path62" />
    <linearGradient
       id="gradient6"
       gradientUnits="userSpaceOnUse"
       x1="43.869999"
       y1="-8.8500004"
       x2="50.5"
       y2="5.6999998">
      <stop
         offset="0"
         stop-color="#f3f3f3"
         id="stop65" />
      <stop
         offset="1"
         stop-color="#c2c2c2"
         id="stop67" />
    </linearGradient>
    <path
       style="fill:url(#gradient6)"
       d="m 18,8 c 0,-2.21 3.58,-4 8,-4 4.41,0 8,1.79 8,4 0,2.2 -3.59,4 -8,4 -4.42,0 -8,-1.8 -8,-4 z"
       transform="matrix(0.7009,0,0,0.5832,7.5429,3.1613)"
       id="path69" />
    <linearGradient
       id="gradient7"
       gradientUnits="userSpaceOnUse"
       x1="10"
       y1="32"
       x2="42"
       y2="32">
      <stop
         offset="0"
         stop-color="#b8b8b8"
         id="stop72" />
      <stop
         offset="0.25"
         stop-color="#eeeeee"
         id="stop74" />
      <stop
         offset="1"
         stop-color="#b8b8b8"
         id="stop76" />
    </linearGradient>
    <path
       style="fill:url(#gradient7)"
       d="m 32,31.11 c -1.27,0.39 -2.61,0.64 -4,0.78 v -3 C 27.34,28.95 26.67,29 26,29 25.32,29 24.65,28.95 24,28.89 v 3 c -1.4,-0.14 -2.74,-0.4 -4,-0.78 v 4 c 1.26,0.39 2.6,0.65 4,0.78 v 3 c 0.65,0.06 1.32,0.11 2,0.11 0.67,0 1.34,-0.05 2,-0.11 v -3 c 1.39,-0.14 2.73,-0.39 4,-0.78 v -4 z"
       id="path78" />
  </g>
  <g
     inkscape:label="Layer 1"
     id="layer1"
     transform="matrix(0.65995244,0,0,0.65995244,-2.5970451e-6,32.747013)">
    <g
       id="g7435"
       transform="matrix(1.566667,0,0,1.566667,-8.925566,-23.94764)">
      <g
         id="g6707"
         transform="matrix(0.01508284,0,0,0.01391344,34.42474,40.95434)"
         style="display:inline">
        <rect
           y="-150.69685"
           x="-1559.2523"
           height="478.35718"
           width="1339.6335"
           id="rect6709"
           style="opacity:0.40206185;color:#000000;fill:url(#linearGradient2935);fill-opacity:1;fill-rule:nonzero;stroke:none;stroke-width:1;marker:none;visibility:visible;display:inline;overflow:visible" />
        <path
           sodipodi:nodetypes="cccc"
           id="path6711"
           d="m -219.61876,-150.68038 c 0,0 0,478.33079 0,478.33079 142.874166,0.90045 345.40022,-107.16966 345.40014,-239.196175 0,-132.026537 -159.436816,-239.134595 -345.40014,-239.134615 z"
           style="opacity:0.40206185;color:#000000;fill:url(#radialGradient2937);fill-opacity:1;fill-rule:nonzero;stroke:none;stroke-width:1;marker:none;visibility:visible;display:inline;overflow:visible" />
        <path
           style="opacity:0.40206185;color:#000000;fill:url(#radialGradient2939);fill-opacity:1;fill-rule:nonzero;stroke:none;stroke-width:1;marker:none;visibility:visible;display:inline;overflow:visible"
           d="m -1559.2523,-150.68038 c 0,0 0,478.33079 0,478.33079 -142.8742,0.90045 -345.4002,-107.16966 -345.4002,-239.196175 0,-132.026537 159.4368,-239.134595 345.4002,-239.134615 z"
           id="path6713"
           sodipodi:nodetypes="cccc" />
      </g>
      <g
         style="display:inline"
         transform="matrix(0.01508284,0,0,0.01391344,34.42474,40.95434)"
         id="g3952">
        <rect
           style="opacity:0.40206185;color:#000000;fill:url(#linearGradient6715);fill-opacity:1;fill-rule:nonzero;stroke:none;stroke-width:1;marker:none;visibility:visible;display:inline;overflow:visible"
           id="rect3954"
           width="1339.6335"
           height="478.35718"
           x="-1559.2523"
           y="-150.69685" />
        <path
           style="opacity:0.40206185;color:#000000;fill:url(#radialGradient6717);fill-opacity:1;fill-rule:nonzero;stroke:none;stroke-width:1;marker:none;visibility:visible;display:inline;overflow:visible"
           d="m -219.61876,-150.68038 c 0,0 0,478.33079 0,478.33079 142.874166,0.90045 345.40022,-107.16966 345.40014,-239.196175 0,-132.026537 -159.436816,-239.134595 -345.40014,-239.134615 z"
           id="path3956"
           sodipodi:nodetypes="cccc" />
        <path
           sodipodi:nodetypes="cccc"
           id="path3958"
           d="m -1559.2523,-150.68038 c 0,0 0,478.33079 0,478.33079 -142.8742,0.90045 -345.4002,-107.16966 -345.4002,-239.196175 0,-132.026537 159.4368,-239.134595 345.4002,-239.134615 z"
           style="opacity:0.40206185;color:#000000;fill:url(#radialGradient6719);fill-opacity:1;fill-rule:nonzero;stroke:none;stroke-width:1;marker:none;visibility:visible;display:inline;overflow:visible" />
      </g>
      <path
         inkscape:r_cy="true"
         inkscape:r_cx="true"
         id="path6485"
         d="M 34.661531,40.883147 22.706683,18.443515 c -0.343618,-0.623323 -0.965385,-0.969613 -1.657845,-0.969613 -0.692462,0 -1.317417,0.415547 -1.666257,1.038871 L 7.5167568,40.952406 c -0.2793053,0.554065 -0.282496,1.315904 0.061415,1.869969 0.3439093,0.554065 0.8967188,0.831097 1.5891806,0.831097 l 23.8206686,0 c 0.69246,0 1.317126,-0.34629 1.596433,-0.900356 0.34855,-0.554065 0.35145,-1.246645 0.07708,-1.869969 z"
         style="fill:#ff0000;fill-opacity:1;fill-rule:nonzero;stroke:#000000;stroke-width:0.63829809;stroke-miterlimit:4;stroke-opacity:1;stroke-dasharray:none" />
      <path
         style="fill:#ffffff;fill-opacity:1;fill-rule:nonzero;stroke:none"
         d="m 12.350235,39.643509 c -0.180686,0.297681 -0.0023,0.535827 0.296738,0.535827 l 16.865083,0 c 0.299028,0 0.47946,-0.238146 0.301316,-0.535827 L 21.328843,23.806857 c -0.178145,-0.297681 -0.417365,-0.297681 -0.538248,0 l -8.44036,15.836652 z"
         id="path6496"
         inkscape:r_cx="true"
         inkscape:r_cy="true" />
      <path
         inkscape:r_cy="true"
         inkscape:r_cx="true"
         sodipodi:nodetypes="ccsccscccc"
         id="path1325"
         d="M 33.589554,40.372476 22.40647,19.408588 c -0.476278,-0.903101 -0.647108,-1.192852 -1.370915,-1.192852 -0.62253,0 -0.948257,0.421984 -1.398129,1.274438 L 8.5784665,40.437181 c -0.6421717,1.176051 -0.7109747,1.482604 -0.4018775,2.000231 0.3090955,0.517628 0.7059594,0.489435 2.172334,0.5232 l 21.735721,0 c 1.365168,0.01688 1.672683,-0.08716 1.923863,-0.604785 0.313433,-0.517629 0.180116,-0.928304 -0.418953,-1.983351 z"
         style="opacity:0.5;fill:none;stroke:url(#linearGradient3948);stroke-width:0.63829821;stroke-miterlimit:4;stroke-opacity:1;stroke-dasharray:none" />
      <g
         inkscape:r_cy="true"
         inkscape:r_cx="true"
         id="g6498"
         transform="matrix(0.561759,0,0,0.570854,7.608308,17.60115)"
         style="fill:#121312;fill-opacity:1;fill-rule:nonzero;stroke:#000000;stroke-width:0.98018837;stroke-miterlimit:4">
        <path
           sodipodi:nodetypes="csscccccccc"
           inkscape:r_cy="true"
           inkscape:r_cx="true"
           id="path6500"
           d="m 23.9,36.5 c -1.3,0 -2.3,-1 -2.3,-2.3 0,-1.4 0.9,-2.3 2.3,-2.3 1.4,0 2.2,0.9 2.3,2.3 0,1.3 -0.9,2.3 -2.3,2.3 l 0,0 z M 23.167629,29.066754 21.9,19.1 l 4,0 -1.267629,11.609518 -1.464742,-1.642764 z"
           style="fill:#121312;fill-opacity:1;stroke:none" />
      </g>
    </g>
  </g>
</svg>
