<?xml version="1.0" encoding="UTF-8" standalone="no"?>
<svg
   xmlns:dc="http://purl.org/dc/elements/1.1/"
   xmlns:cc="http://creativecommons.org/ns#"
   xmlns:rdf="http://www.w3.org/1999/02/22-rdf-syntax-ns#"
   xmlns:svg="http://www.w3.org/2000/svg"
   xmlns="http://www.w3.org/2000/svg"
   xmlns:xlink="http://www.w3.org/1999/xlink"
   xmlns:sodipodi="http://sodipodi.sourceforge.net/DTD/sodipodi-0.dtd"
   xmlns:inkscape="http://www.inkscape.org/namespaces/inkscape"
   version="1.1"
   width="64"
   height="64"
   color-interpolation="linearRGB"
   id="svg2"
   sodipodi:version="0.32"
   inkscape:version="0.46"
   sodipodi:docname="battery-caution.svg"
   inkscape:output_extension="org.inkscape.output.svg.inkscape">
  <metadata
     id="metadata83">
    <rdf:RDF>
      <cc:Work
         rdf:about="">
        <dc:format>image/svg+xml</dc:format>
        <dc:type
           rdf:resource="http://purl.org/dc/dcmitype/StillImage" />
      </cc:Work>
    </rdf:RDF>
  </metadata>
  <defs
     id="defs81">
    <inkscape:perspective
       sodipodi:type="inkscape:persp3d"
       inkscape:vp_x="0 : 32 : 1"
       inkscape:vp_y="0 : 1000 : 0"
       inkscape:vp_z="64 : 32 : 1"
       inkscape:persp3d-origin="32 : 21.333333 : 1"
       id="perspective85" />
    <inkscape:perspective
       id="perspective49"
       inkscape:persp3d-origin="32 : 21.333333 : 1"
       inkscape:vp_z="64 : 32 : 1"
       inkscape:vp_y="0 : 1000 : 0"
       inkscape:vp_x="0 : 32 : 1"
       sodipodi:type="inkscape:persp3d" />
    <inkscape:perspective
       id="perspective2457"
       inkscape:persp3d-origin="32 : 21.333333 : 1"
       inkscape:vp_z="64 : 32 : 1"
       inkscape:vp_y="0 : 1000 : 0"
       inkscape:vp_x="0 : 32 : 1"
       sodipodi:type="inkscape:persp3d" />
    <linearGradient
       inkscape:collect="always"
       xlink:href="#linearGradient2480"
       id="linearGradient3260"
       x1="4"
       y1="48"
       x2="10"
       y2="60"
       gradientUnits="userSpaceOnUse" />
  </defs>
  <sodipodi:namedview
     inkscape:window-height="667"
     inkscape:window-width="674"
     inkscape:pageshadow="2"
     inkscape:pageopacity="0.0"
     guidetolerance="10.0"
     gridtolerance="10.0"
     objecttolerance="10.0"
     borderopacity="1.0"
     bordercolor="#666666"
     pagecolor="#ffffff"
     id="base"
     showgrid="false"
     inkscape:zoom="5.1486213"
     inkscape:cx="22.309967"
     inkscape:cy="32"
     inkscape:window-x="456"
     inkscape:window-y="112"
     inkscape:current-layer="svg2" />
  <g
     id="g4">
    <path
       style="fill:#000100; fill-opacity:0.4431"
       d="M48 40H44L26 64H48C54.62 64 60 58.62 60 52C60 45.37 54.62 40 48 40z"
       id="path6" />
    <path
       style="fill:none; stroke:#000100; stroke-width:4; stroke-linecap:round; stroke-linejoin:round"
       d="M10 38C10.02 43.51 17.14 48 26 48C34.81 48 41.97 43.51 42 38V14C42 8.47 34.83 4 26 4C17.16 4 10 8.47 10 14V38z            M41.97 37.98C42 43.5 34.81 48 26 48C17.14 48 9.97 43.5 10 37.98V50C10.02 56.62 17.14 62 26 62C34.81 62 41.97 56.62 42 50L41.97 37.98z"
       id="path8" />
    <linearGradient
       id="gradient0"
       gradientUnits="userSpaceOnUse"
       x1="42"
       y1="32"
       x2="10"
       y2="32">
      <stop
         offset="0"
         stop-color="#3dae3d"
         id="stop11" />
      <stop
         offset="0.1702"
         stop-color="#237823"
         id="stop13" />
      <stop
         offset="0.826"
         stop-color="#50e550"
         id="stop15" />
      <stop
         offset="1"
         stop-color="#2eaa2e"
         id="stop17" />
    </linearGradient>
    <path
       style="fill:url(#gradient0)"
       d="M10 38C10.02 43.51 17.14 48 26 48C34.81 48 41.97 43.51 42 38V14C42 19.52 34.83 24 26 24C17.16 24 10 19.52 10 14V38z"
       id="path19" />
    <linearGradient
       id="gradient1"
       gradientUnits="userSpaceOnUse"
       x1="42"
       y1="32"
       x2="10"
       y2="32">
      <stop
         offset="0"
         stop-color="#ff9900"
         id="stop22" />
      <stop
         offset="0.1702"
         stop-color="#e37d06"
         id="stop24" />
      <stop
         offset="0.826"
         stop-color="#ffcc00"
         id="stop26" />
      <stop
         offset="1"
         stop-color="#ff9900"
         id="stop28" />
    </linearGradient>
    <path
       style="fill:url(#gradient1)"
       d="M41.97 37.98C42 43.5 34.81 48 26 48C17.14 48 9.97 43.5 10 37.98V50C10.02 56.62 17.14 62 26 62C34.81 62 41.97 56.62 42 50L41.97 37.98z"
       id="path30" />
    <linearGradient
       id="gradient2"
       gradientUnits="userSpaceOnUse"
       x1="48.49"
       y1="-28.37"
       x2="69.41"
       y2="0.92">
      <stop
         offset="0"
         stop-color="#b3ffb3"
         id="stop33" />
      <stop
         offset="1"
         stop-color="#56c856"
         id="stop35" />
    </linearGradient>
    <path
       style="fill:url(#gradient2)"
       d="M10 14C10 8.47 17.16 4 26 4C34.83 4 42 8.47 42 14C42 19.52 34.83 24 26 24C17.16 24 10 19.52 10 14z"
       id="path37" />
    <radialGradient
       id="gradient3"
       gradientUnits="userSpaceOnUse"
       cx="0"
       cy="0"
       r="64"
       gradientTransform="matrix(0.375,0,0,0.375,26,16)">
      <stop
         offset="1"
         stop-color="#010101"
         id="stop40" />
      <stop
         offset="0"
         stop-color="#666666"
         id="stop42" />
    </radialGradient>
    <path
       style="fill:url(#gradient3)"
       d="M40 14C40 18.41 33.73 22 26 22C18.26 22 12 18.41 12 14C12 9.58 18.26 6 26 6C33.73 6 40 9.58 40 14z"
       id="path44" />
    <path
       style="fill:none; stroke:#000100; stroke-width:4; stroke-linecap:round; stroke-linejoin:round"
       d="M18 8C18 5.79 21.58 4 26 4C30.41 4 34 5.79 34 8V12C34 14.2 30.41 16 26 16C21.58 16 18 14.2 18 12V8z"
       id="path46" />
    <linearGradient
       id="gradient4"
       gradientUnits="userSpaceOnUse"
       x1="18"
       y1="4"
       x2="34"
       y2="4">
      <stop
         offset="0"
         stop-color="#999999"
         id="stop49" />
      <stop
         offset="0.25"
         stop-color="#cccccc"
         id="stop51" />
      <stop
         offset="1"
         stop-color="#868686"
         id="stop53" />
    </linearGradient>
    <path
       style="fill:url(#gradient4)"
       d="M18 8C18 5.79 21.58 4 26 4C30.41 4 34 5.79 34 8V12C34 14.2 30.41 16 26 16C21.58 16 18 14.2 18 12V8z"
       id="path55" />
    <linearGradient
       id="gradient5"
       gradientUnits="userSpaceOnUse"
       x1="47.21"
       y1="-11.35"
       x2="56.14"
       y2="1.92">
      <stop
         offset="0"
         stop-color="#ffffff"
         id="stop58" />
      <stop
         offset="1"
         stop-color="#9e9e9e"
         id="stop60" />
    </linearGradient>
    <path
       style="fill:url(#gradient5)"
       d="M18 8C18 5.79 21.58 4 26 4C30.41 4 34 5.79 34 8C34 10.2 30.41 12 26 12C21.58 12 18 10.2 18 8z"
       id="path62" />
    <linearGradient
       id="gradient6"
       gradientUnits="userSpaceOnUse"
       x1="43.87"
       y1="-8.85"
       x2="50.5"
       y2="5.7">
      <stop
         offset="0"
         stop-color="#f3f3f3"
         id="stop65" />
      <stop
         offset="1"
         stop-color="#c2c2c2"
         id="stop67" />
    </linearGradient>
    <path
       style="fill:url(#gradient6)"
       d="M18 8C18 5.79 21.58 4 26 4C30.41 4 34 5.79 34 8C34 10.2 30.41 12 26 12C21.58 12 18 10.2 18 8z"
       transform="matrix(0.7009,0,0,0.5832,7.5429,3.1613)"
       id="path69" />
    <linearGradient
       id="gradient7"
       gradientUnits="userSpaceOnUse"
       x1="10"
       y1="32"
       x2="42"
       y2="32">
      <stop
         offset="0"
         stop-color="#b8b8b8"
         id="stop72" />
      <stop
         offset="0.25"
         stop-color="#eeeeee"
         id="stop74" />
      <stop
         offset="1"
         stop-color="#b8b8b8"
         id="stop76" />
    </linearGradient>
    <path
       style="fill:url(#gradient7)"
       d="M32 31.11C30.73 31.5 29.39 31.75 28 31.89V28.89C27.34 28.95 26.67 29 26 29C25.32 29 24.65 28.95 24 28.89V31.89C22.6 31.75 21.26 31.49 20 31.11V35.11C21.26 35.5 22.6 35.76 24 35.89V38.89C24.65 38.95 25.32 39 26 39C26.67 39 27.34 38.95 28 38.89V35.89C29.39 35.75 30.73 35.5 32 35.11V31.11z"
       id="path78" />
  </g>
  <g
     id="g2479"
     transform="translate(0.575107,-0.4377686)">
    <linearGradient
       y2="-5.4099998"
       x2="74.970001"
       y1="-10.23"
       x1="55.689999"
       gradientUnits="userSpaceOnUse"
       id="linearGradient2481">
      <stop
         id="stop2483"
         stop-color="#5c5c5c"
         offset="0" />
      <stop
         id="stop2485"
         stop-color="#838383"
         offset="1" />
    </linearGradient>
    <radialGradient
       gradientTransform="matrix(0.25,0,0,0.25,10,10)"
       r="64"
       cy="0"
       cx="0"
       gradientUnits="userSpaceOnUse"
       id="radialGradient2487">
      <stop
         id="stop2489"
         stop-color="#29b6ff"
         offset="0" />
      <stop
         id="stop2491"
         stop-color="#035492"
         offset="1" />
    </radialGradient>
    <radialGradient
       gradientTransform="matrix(0.25,0,0,0.25,10,10)"
       r="64"
       cy="0"
       cx="0"
       gradientUnits="userSpaceOnUse"
       id="radialGradient2493">
      <stop
         id="stop29"
         stop-color="#9ff699"
         offset="0" />
      <stop
         id="stop31"
         stop-color="#049a43"
         offset="1" />
    </radialGradient>
    <linearGradient
       y2="41.650002"
       x2="31.65"
       y1="30.450001"
       x1="20.219999"
       gradientUnits="userSpaceOnUse"
       id="linearGradient2498">
      <stop
         id="stop38"
         stop-color="#ff8875"
         offset="0" />
      <stop
         id="stop2501"
         stop-color="#ff0505"
         offset="1" />
    </linearGradient>
  </g>
  <g
     id="g2459"
     transform="translate(0.4882447,-0.2940178)">
    <linearGradient
       y2="-5.4099998"
       x2="74.970001"
       y1="-10.23"
       x1="55.689999"
       gradientUnits="userSpaceOnUse"
       id="linearGradient2461">
      <stop
         id="stop2463"
         stop-color="#5c5c5c"
         offset="0" />
      <stop
         id="stop2465"
         stop-color="#838383"
         offset="1" />
    </linearGradient>
    <radialGradient
       gradientTransform="matrix(0.25,0,0,0.25,10,10)"
       r="64"
       cy="0"
       cx="0"
       gradientUnits="userSpaceOnUse"
       id="radialGradient2467">
      <stop
         id="stop2469"
         stop-color="#29b6ff"
         offset="0" />
      <stop
         id="stop2471"
         stop-color="#035492"
         offset="1" />
    </radialGradient>
    <radialGradient
       gradientTransform="matrix(0.25,0,0,0.25,10,10)"
       r="64"
       cy="0"
       cx="0"
       gradientUnits="userSpaceOnUse"
       id="radialGradient2473">
      <stop
         id="stop2475"
         stop-color="#9ff699"
         offset="0" />
      <stop
         id="stop2477"
         stop-color="#049a43"
         offset="1" />
    </radialGradient>
    <path
       id="path35"
       d="M 4,48 L 10,60 L 16,48 L 4,48 z"
       style="fill:none;stroke:#000000;stroke-width:8;stroke-linejoin:round" />
    <linearGradient
       y2="41.650002"
       x2="31.65"
       y1="30.450001"
       x1="20.219999"
       gradientUnits="userSpaceOnUse"
       id="linearGradient2480">
      <stop
         id="stop2482"
         stop-color="#fff375"
         offset="0" />
      <stop
         id="stop2484"
         stop-color="#ffa406"
         offset="1" />
    </linearGradient>
    <path
       id="path42"
       d="M 4,48 L 10,60 L 16,48 L 4,48 z"
       style="fill:url(#linearGradient3260);fill-opacity:1" />
  </g>
</svg>
