<?xml version="1.0" encoding="UTF-8" standalone="no"?>
<svg
   xmlns:dc="http://purl.org/dc/elements/1.1/"
   xmlns:cc="http://creativecommons.org/ns#"
   xmlns:rdf="http://www.w3.org/1999/02/22-rdf-syntax-ns#"
   xmlns:svg="http://www.w3.org/2000/svg"
   xmlns="http://www.w3.org/2000/svg"
   xmlns:sodipodi="http://sodipodi.sourceforge.net/DTD/sodipodi-0.dtd"
   xmlns:inkscape="http://www.inkscape.org/namespaces/inkscape"
   version="1.1"
   width="64"
   height="64"
   color-interpolation="linearRGB"
   id="svg2"
   inkscape:version="0.47 r22583"
   sodipodi:docname="gdict.svg">
  <metadata
     id="metadata104">
    <rdf:RDF>
      <cc:Work
         rdf:about="">
        <dc:format>image/svg+xml</dc:format>
        <dc:type
           rdf:resource="http://purl.org/dc/dcmitype/StillImage" />
        <dc:title></dc:title>
      </cc:Work>
    </rdf:RDF>
  </metadata>
  <defs
     id="defs102">
    <inkscape:perspective
       sodipodi:type="inkscape:persp3d"
       inkscape:vp_x="0 : 32 : 1"
       inkscape:vp_y="0 : 1000 : 0"
       inkscape:vp_z="64 : 32 : 1"
       inkscape:persp3d-origin="32 : 21.333333 : 1"
       id="perspective106" />
  </defs>
  <sodipodi:namedview
     pagecolor="#ffffff"
     bordercolor="#666666"
     borderopacity="1"
     objecttolerance="10"
     gridtolerance="10"
     guidetolerance="10"
     inkscape:pageopacity="0"
     inkscape:pageshadow="2"
     inkscape:window-width="739"
     inkscape:window-height="501"
     id="namedview100"
     showgrid="false"
     inkscape:zoom="3.6875"
     inkscape:cx="32"
     inkscape:cy="32"
     inkscape:window-x="200"
     inkscape:window-y="239"
     inkscape:window-maximized="0"
     inkscape:current-layer="svg2" />
  <path
     id="path6"
     d="M 0,0 H 63.34 V 63.34 H 0 V 0 z"
     style="fill:none;stroke:#ffffff;stroke-width:0.0618" />
  <path
     id="path8"
     d="m 55.09,11.21 c 0.59,1.65 1.19,3.37 1.85,5.08 1.91,0.27 3.82,0.4 5.74,0.4 0,13.52 0,27.12 0,40.64 -7.72,-0.72 -15.44,-1.38 -23.1,-2.18 -2.57,-0.52 -4.75,1.19 -7.26,1.32 -2.96,0.14 -5.6,-1.91 -8.57,-1.32 -7.66,0.73 -15.38,1.46 -23.1,2.18 0,-13.59 -0.06,-27.12 0,-40.64 1.79,0 3.57,0 5.35,0 0.72,-1.59 1.45,-3.24 2.04,-4.88 5.68,-1.39 11.75,-2.64 17.56,-1.19 2.63,0.53 4.28,2.77 6.07,4.62 1.51,-1.59 2.83,-3.5 5.08,-4.23 2.3,-0.92 10.504915,1.048305 12.944915,0.648305 C 54.64807,10.474749 52.214648,10.301673 55.09,11.21 z"
     style="fill:#020202"
     sodipodi:nodetypes="cccccccccccccccc" />
  <path
     id="path16"
     d="m 9.69,13.06 c 4.95,-1.52 10.3,-2.38 15.44,-1.32 1.78,0.66 6.459492,3.348305 6.659492,5.588305 C 31.662873,24.368707 31.488796,29.224952 31.01,42.29 c 0,1.52 0,2.97 0,4.42 C 25.07,41.69 16.75,43.54 9.76,44.47 9.69,34.04 9.76,23.55 9.69,13.06 z"
     style="fill:#ffffff"
     sodipodi:nodetypes="ccccccc" />
  <path
     id="path28"
     d="m 5.6,21.77 c -0.13,-2.51 1.65,-4.55 2.71,-6.67 0.06,9.24 0,18.54 0.06,27.78 0.14,2.51 -1.38,4.69 -2.63,6.73 C 5.54,40.31 5.67,31.07 5.6,21.77 z"
     style="fill:#ffffff" />
  <path
     id="path30"
     d="m 5.6,21.77 c -0.13,-2.51 1.65,-4.55 2.71,-6.67 0.06,9.24 0,18.54 0.06,27.78 0.14,2.51 -1.38,4.69 -2.63,6.73 C 5.54,40.31 5.67,31.07 5.6,21.77 z"
     style="fill:none;stroke:#ffffff;stroke-width:0.0618" />
  <path
     id="path36"
     d="m 54.96,15.1 c 1.12,2.12 2.83,4.16 2.77,6.67 -0.07,9.24 0,18.54 -0.07,27.84 -1.52,-1.91 -2.84,-4.16 -2.7,-6.66 0.06,-9.31 0,-18.61 0,-27.85 z"
     style="fill:#bbb5a1" />
  <path
     id="path38"
     d="m 54.96,15.1 c 1.12,2.12 2.83,4.16 2.77,6.67 -0.07,9.24 0,18.54 -0.07,27.84 -1.52,-1.91 -2.84,-4.16 -2.7,-6.66 0.06,-9.31 0,-18.61 0,-27.85 z"
     style="fill:none;stroke:#bbb5a1;stroke-width:0.0618" />
  <path
     id="path44"
     d="m 2.11,17.74 c 0.99,-0.06 2.04,-0.13 3.1,-0.19 -1.32,3.03 -0.86,6.33 -0.93,9.5 -0.06,8.57 0.07,17.15 -0.06,25.73 7.19,-0.2 14.38,-0.73 21.51,-1.32 2.04,-0.07 3.89,1.25 5.87,1.38 2.11,-0.06 3.89,-1.45 6,-1.38 7.13,0.59 14.32,1.19 21.51,1.32 -0.13,-10.36 0,-20.72 -0.06,-31.01 0.06,-1.52 -0.53,-2.9 -1.06,-4.29 1.12,0.07 2.24,0.13 3.37,0.13 0,12.6 0,25.21 0,37.81 -7.33,-0.33 -14.52,-1.06 -21.78,-1.65 -2.31,-0.33 -4.42,0.86 -6.6,1.32 -2.96,0.59 -5.6,-1.72 -8.57,-1.32 C 16.95,54.36 9.5,55.09 1.97,55.42 2.04,42.82 1.84,30.28 2.11,17.74 z"
     style="fill:#e9b109" />
  <path
     id="path46"
     d="m 2.11,17.74 c 0.99,-0.06 2.04,-0.13 3.1,-0.19 -1.32,3.03 -0.86,6.33 -0.93,9.5 -0.06,8.57 0.07,17.15 -0.06,25.73 7.19,-0.2 14.38,-0.73 21.51,-1.32 2.04,-0.07 3.89,1.25 5.87,1.38 2.11,-0.06 3.89,-1.45 6,-1.38 7.13,0.59 14.32,1.19 21.51,1.32 -0.13,-10.36 0,-20.72 -0.06,-31.01 0.06,-1.52 -0.53,-2.9 -1.06,-4.29 1.12,0.07 2.24,0.13 3.37,0.13 0,12.6 0,25.21 0,37.81 -7.33,-0.33 -14.52,-1.06 -21.78,-1.65 -2.31,-0.33 -4.42,0.86 -6.6,1.32 -2.96,0.59 -5.6,-1.72 -8.57,-1.32 C 16.95,54.36 9.5,55.09 1.97,55.42 2.04,42.82 1.84,30.28 2.11,17.74 z"
     style="fill:none;stroke:#e9b109;stroke-width:0.0618" />
  <path
     id="path84"
     d="M 33.129153,22.989322 C 29.59,4.5598305 50.73,16.917458 53.57,12.297458 53.64,15.987458 53.64,40.84 53.57,44.47 48.23,43.54 42.62,42.75 37.21,44 c -1.85,0.47 -3.37,1.72 -4.89,2.84 1.172974,-11.980302 0.297101,-22.512723 0.809153,-23.850678 z"
     style="fill:#ffffff"
     sodipodi:nodetypes="cccccc" />
  <path
     id="path92"
     d="m 9.69,45.98 c 5.22,-1.25 10.89,-1.84 16.17,-0.66 3.03,0.53 4.95,3.37 5.28,6.27 -1.98,-0.66 -3.9,-1.78 -6.07,-1.45 C 19,50.67 12.93,51.33 6.79,51.52 7.58,49.61 8.04,47.3 9.69,45.98 z"
     style="fill:#bbb5a1" />
  <path
     id="path94"
     d="m 9.69,45.98 c 5.22,-1.25 10.89,-1.84 16.17,-0.66 3.03,0.53 4.95,3.37 5.28,6.27 -1.98,-0.66 -3.9,-1.78 -6.07,-1.45 C 19,50.67 12.93,51.33 6.79,51.52 7.58,49.61 8.04,47.3 9.69,45.98 z"
     style="fill:none;stroke:#bbb5a1;stroke-width:0.0618" />
  <path
     id="path96"
     d="m 34.3,46.84 c 3.17,-2.51 7.46,-2.18 11.22,-2.05 2.97,0.4 6.14,0.33 8.91,1.65 1.05,1.59 1.71,3.37 2.37,5.08 -6.4,-0.26 -12.8,-0.98 -19.2,-1.38 -1.98,-0.2 -3.56,0.99 -5.34,1.52 0.13,-1.78 0.59,-3.7 2.04,-4.82 z"
     style="fill:#bbb5a1" />
  <path
     id="path98"
     d="m 34.3,46.84 c 3.17,-2.51 7.46,-2.18 11.22,-2.05 2.97,0.4 6.14,0.33 8.91,1.65 1.05,1.59 1.71,3.37 2.37,5.08 -6.4,-0.26 -12.8,-0.98 -19.2,-1.38 -1.98,-0.2 -3.56,0.99 -5.34,1.52 0.13,-1.78 0.59,-3.7 2.04,-4.82 z"
     style="fill:none;stroke:#bbb5a1;stroke-width:0.0618" />
</svg>
