<?xml version="1.0" encoding="UTF-8" standalone="no"?>
<!DOCTYPE svg PUBLIC "-//W3C//DTD SVG 20010904//EN"
"http://www.w3.org/TR/2001/REC-SVG-20010904/DTD/svg10.dtd"
[
 <!ATTLIST svg
  xmlns:xlink CDATA #FIXED "http://www.w3.org/1999/xlink">
]>
<!-- Created with Sodipodi ("http://www.sodipodi.com/") -->
<svg
   xmlns="http://www.w3.org/2000/svg"
   xmlns:xlink="http://www.w3.org/1999/xlink"
   version="1"
   x="0"
   y="0"
   width="60"
   height="60"
   viewBox="-0.356 0.45 103 127"
   id="svg153">
  <defs
     id="defs223" />
  <g
     style="font-size:12;"
     id="Layer_1_2_">
    <path
       d="M 0 13.704 L 0 78.527 L 6.226 82.856 C 25.419 96.754 37.48 110.818 38.442 120.444 L 39.669 126.984 L 43.968 121.74 C 45.487 119.322 46.926 116.146 48.271 112.343 C 48.659 112.5 55.479 117.114 55.479 117.114 L 76.211 103.402 L 76.211 37.798 L 20.712 0 L 0 13.704 z "
       id="path155" />
    <path
       d="M 73.255 86.051 L 102.851 99.688 L 76.434 117.299 L 55.486 117.101 L 72.78 100.964 L 73.255 86.051 z "
       style="opacity:0.2;"
       id="path156" />
    <g
       id="g157">
      <linearGradient
         x1="26.6128"
         y1="36.7544"
         x2="35.9332"
         y2="29.1286"
         id="XMLID_1_"
         gradientUnits="userSpaceOnUse"
         spreadMethod="pad">
        <stop
           style="stop-color:#f8faed;stop-opacity:1;"
           offset="0"
           id="stop159" />
        <stop
           style="stop-color:#ffffd4;stop-opacity:1;"
           offset="1"
           id="stop160" />
        
        
        
      </linearGradient>
      <path
         d="M 55.521 51.084 L 3 15.316 L 20.688 3.613 L 73.211 39.384 L 55.521 51.084 z "
         style="fill:url(#XMLID_1_);"
         id="path164" />
    </g>
    <g
       id="g165">
      <linearGradient
         x1="23.0781"
         y1="54.5415"
         x2="44.3879"
         y2="87.2167"
         id="XMLID_2_"
         gradientUnits="userSpaceOnUse"
         spreadMethod="pad">
        <stop
           style="stop-color:#ffff66;stop-opacity:1;"
           offset="0"
           id="stop167" />
        <stop
           style="stop-color:#ebf2f7;stop-opacity:1;"
           offset="1"
           id="stop168" />
        
        
        
      </linearGradient>
      <path
         d="M 55.521 113.488 L 3 76.959 L 2.99 15.363 L 55.521 51.084 L 55.521 113.488 z "
         style="fill:url(#XMLID_2_);"
         id="path172" />
    </g>
    <g
       style="opacity:0.3;"
       id="g173">
      <path
         d="M 55.482 73.429 L 51.997 110.966 C 51.997 110.966 50.245 109.491 46.712 108.741 C 42.347 107.814 37.255 108.184 37.255 108.184 L 55.521 51.083 L 55.482 73.429 z "
         id="path174" />
    </g>
    <g
       id="g175">
      <linearGradient
         x1="22.6206"
         y1="53.8394"
         x2="43.5224"
         y2="85.889"
         id="XMLID_3_"
         gradientUnits="userSpaceOnUse"
         spreadMethod="pad">
        <stop
           style="stop-color:#ffffa4;stop-opacity:1;"
           offset="0"
           id="stop177" />
        <stop
           style="stop-color:#ffffdc;stop-opacity:1;"
           offset="1"
           id="stop178" />
        
        
        
      </linearGradient>
      <path
         d="M 41.428 120.146 C 39.481 100.675 3 76.959 3 76.959 L 2.99 15.363 L 55.521 51.084 C 55.521 51.084 52.265 102.887 41.428 120.146 z "
         style="fill:url(#XMLID_3_);"
         id="path182" />
    </g>
    <path
       d="M 2.988 30.179 L 54.312 65.378 L 54.435 64.205 L 2.961 28.909 L 2.988 30.179 z "
       style="fill:#f79003;"
       id="path183" />
    <g
       id="g184">
      <linearGradient
         x1="85.2461"
         y1="76.0151"
         x2="61.8078"
         y2="76.4887"
         id="XMLID_4_"
         gradientUnits="userSpaceOnUse"
         spreadMethod="pad">
        <stop
           style="stop-color:#ffffe3;stop-opacity:1;"
           offset="0"
           id="stop186" />
        <stop
           style="stop-color:#fcfad1;stop-opacity:1;"
           offset="0.2431"
           id="stop187" />
        <stop
           style="stop-color:#f4efa2;stop-opacity:1;"
           offset="0.7296"
           id="stop188" />
        <stop
           style="stop-color:#f0e886;stop-opacity:1;"
           offset="0.9888"
           id="stop189" />
        
        
        
      </linearGradient>
      <path
         d="M 55.521 113.488 L 73.21 101.789 L 73.21 39.385 L 55.521 51.084 L 55.521 113.488 z "
         style="fill:url(#XMLID_4_);"
         id="path193" />
    </g>
    <g
       style="opacity:0.2;"
       id="g194">
      <path
         d="M 57.421 112.117 L 57.865 77.228 L 58.532 111.228 L 57.421 112.117 z "
         id="path195" />
    </g>
    <g
       style="opacity:0.2;"
       id="g196">
      <path
         d="M 64.977 107.006 L 64.31 86.34 L 65.866 107.006 L 64.977 107.006 z "
         id="path197" />
    </g>
    <g
       id="g198">
      <path
         d="M 19.839 81.394 L 13.744 77.286 L 13.744 52.276 L 9.681 49.537 L 9.681 48.1 L 15.706 47.768 L 19.839 50.554 L 19.839 81.394 L 19.839 81.394 z "
         id="path199" />
      <linearGradient
         x1="45.439"
         y1="103.917"
         x2="37.4383"
         y2="84.9154"
         id="XMLID_5_"
         gradientUnits="userSpaceOnUse"
         spreadMethod="pad">
        <stop
           style="stop-color:#ffffff;stop-opacity:1;"
           offset="0"
           id="stop201" />
        <stop
           style="stop-color:#000000;stop-opacity:1;"
           offset="1"
           id="stop202" />
        
        
        
      </linearGradient>
      <path
         d="M 43.03 88.655 C 42.399 90.356 41.399 92.356 39.399 93.356 C 32.399 94.356 28.399 88.356 25.399 83.356 C 25.399 82.357 25.399 80.357 25.399 78.357 C 28.399 81.357 32.399 87.356 36.399 85.356 C 42.399 82.357 32.399 76.357 29.487 73.926 L 29.487 70.546 C 30.099 70.959 30.797 71.429 31.576 71.954 C 32.355 72.479 33.096 72.978 33.799 73.452 C 35.399 74.357 37.399 76.357 38.035 71.973 C 38.035 70.688 37.597 69.392 36.721 68.086 C 35.846 66.779 34.61 65.575 33.013 64.473 C 31.991 63.771 30.948 63.198 29.887 62.753 C 28.826 62.31 27.689 62.033 26.475 61.925 L 26.475 58.207 L 30.05 57.913 C 30.471 58.02 31.102 58.304 31.944 58.763 C 32.785 59.221 33.397 59.578 33.78 59.836 C 36.584 61.726 38.917 64.04 40.777 66.776 C 41.708 68.144 42.405 69.48 42.871 70.783 C 43.336 72.086 43.568 73.356 43.526 74.58 C 44.399 78.357 41.399 79.357 38.399 78.357 C 40.399 79.357 41.399 81.357 42.346 83.004 C 43.112 84.851 43.332 86.731 43.03 88.655 z "
         style="fill:url(#XMLID_5_);"
         id="path206" />
    </g>
    <g
       id="g207">
      <g
         id="g208">
        <path
           d="M 16.872 27.998 L 21.213 30.859 L 21.162 31.888 L 17.676 29.59 L 17.549 32.147 L 20.613 34.167 L 20.563 35.165 L 17.499 33.144 L 17.307 36.98 L 16.452 36.416 L 16.872 27.998 z "
           style="fill:#920000;"
           id="path209" />
        <path
           d="M 21.676 33.498 L 22.4 33.975 L 22.346 35.053 C 22.417 34.886 22.579 34.733 22.832 34.592 C 23.085 34.452 23.367 34.484 23.679 34.689 C 23.693 34.699 23.718 34.717 23.753 34.744 C 23.788 34.771 23.847 34.819 23.93 34.887 L 23.876 35.979 C 23.83 35.935 23.788 35.899 23.749 35.869 C 23.71 35.839 23.667 35.808 23.621 35.778 C 23.225 35.517 22.914 35.485 22.685 35.68 C 22.456 35.875 22.331 36.192 22.309 36.627 L 22.133 40.158 L 21.37 39.656 L 21.676 33.498 z "
           style="fill:#920000;"
           id="path210" />
        <path
           d="M 24.798 35.606 L 25.561 36.109 L 25.256 42.221 L 24.493 41.717 L 24.798 35.606 z M 24.914 33.283 L 25.677 33.785 L 25.618 34.954 L 24.855 34.451 L 24.914 33.283 z "
           style="fill:#920000;"
           id="path211" />
        <path
           d="M 29.226 38.684 C 29.355 38.886 29.499 39.185 29.657 39.581 L 29.81 36.51 L 30.546 36.995 L 30.125 45.43 L 29.441 44.979 L 29.483 44.136 C 29.287 44.394 29.063 44.526 28.812 44.532 C 28.562 44.539 28.28 44.439 27.967 44.232 C 27.462 43.9 27.04 43.324 26.699 42.505 C 26.358 41.687 26.212 40.798 26.26 39.843 C 26.305 38.947 26.512 38.282 26.881 37.849 C 27.25 37.415 27.747 37.404 28.372 37.816 C 28.717 38.044 29.002 38.334 29.226 38.684 z M 27.288 42.178 C 27.47 42.758 27.786 43.196 28.236 43.492 C 28.586 43.722 28.883 43.705 29.129 43.44 C 29.374 43.175 29.517 42.657 29.555 41.884 C 29.594 41.104 29.507 40.449 29.293 39.922 C 29.08 39.394 28.803 39.018 28.462 38.793 C 28.082 38.542 27.764 38.539 27.507 38.783 C 27.251 39.027 27.104 39.538 27.065 40.313 C 27.032 40.977 27.106 41.597 27.288 42.178 z "
           style="fill:#920000;"
           id="path212" />
        <path
           d="M 33.893 44.065 C 34.071 44.151 34.193 44.129 34.261 44 C 34.303 43.935 34.328 43.815 34.337 43.646 C 34.355 43.298 34.274 42.984 34.095 42.705 C 33.916 42.425 33.654 42.17 33.306 41.941 C 32.905 41.676 32.613 41.632 32.431 41.808 C 32.329 41.905 32.256 42.101 32.212 42.395 L 31.502 41.927 C 31.554 41.178 31.762 40.771 32.127 40.704 C 32.491 40.638 32.904 40.757 33.366 41.061 C 33.901 41.415 34.329 41.84 34.649 42.342 C 34.966 42.84 35.111 43.38 35.082 43.96 L 34.906 47.49 C 34.901 47.597 34.913 47.693 34.943 47.781 C 34.973 47.867 35.041 47.945 35.147 48.015 C 35.182 48.038 35.221 48.061 35.264 48.083 C 35.307 48.105 35.354 48.128 35.404 48.148 L 35.366 48.907 C 35.244 48.873 35.152 48.842 35.089 48.811 C 35.026 48.782 34.941 48.731 34.832 48.66 C 34.567 48.485 34.382 48.233 34.275 47.903 C 34.219 47.729 34.184 47.512 34.171 47.252 C 34.001 47.429 33.765 47.523 33.462 47.536 C 33.16 47.548 32.833 47.438 32.481 47.206 C 32.059 46.928 31.722 46.526 31.471 46.003 C 31.221 45.478 31.108 44.955 31.135 44.433 C 31.163 43.861 31.317 43.504 31.597 43.363 C 31.877 43.222 32.232 43.258 32.664 43.467 L 33.893 44.065 z M 32.131 45.793 C 32.285 46.072 32.473 46.285 32.695 46.432 C 32.966 46.612 33.233 46.7 33.495 46.698 C 33.936 46.7 34.173 46.384 34.205 45.748 L 34.247 44.915 C 34.149 44.936 34.025 44.927 33.874 44.885 C 33.723 44.843 33.577 44.786 33.434 44.714 L 32.966 44.483 C 32.685 44.345 32.472 44.285 32.325 44.298 C 32.076 44.32 31.942 44.529 31.923 44.925 C 31.908 45.223 31.977 45.513 32.131 45.793 z "
           style="fill:#920000;"
           id="path213" />
        <path
           d="M 39.13 44.955 L 39.978 45.515 C 39.85 45.838 39.565 46.581 39.123 47.744 C 38.792 48.619 38.516 49.328 38.295 49.871 C 37.771 51.149 37.409 51.9 37.21 52.126 C 37.01 52.351 36.688 52.316 36.243 52.023 C 36.134 51.951 36.051 51.89 35.993 51.839 C 35.935 51.789 35.864 51.72 35.78 51.634 L 35.827 50.685 C 35.959 50.824 36.055 50.919 36.114 50.97 C 36.173 51.021 36.226 51.062 36.272 51.091 C 36.415 51.186 36.522 51.224 36.592 51.204 C 36.662 51.186 36.723 51.145 36.773 51.085 C 36.789 51.064 36.848 50.94 36.951 50.716 C 37.054 50.492 37.129 50.325 37.176 50.214 L 35.795 42.757 L 36.67 43.333 L 37.649 49.159 L 39.13 44.955 z "
           style="fill:#920000;"
           id="path214" />
      </g>
      <g
         id="g215">
        <path
           d="M 16.872 27.998 L 21.213 30.859 L 21.162 31.888 L 17.676 29.59 L 17.549 32.147 L 20.613 34.167 L 20.563 35.165 L 17.499 33.144 L 17.307 36.98 L 16.452 36.416 L 16.872 27.998 z "
           style="fill:#920000;"
           id="path216" />
        <path
           d="M 21.676 33.498 L 22.4 33.975 L 22.346 35.053 C 22.417 34.886 22.579 34.733 22.832 34.592 C 23.085 34.452 23.367 34.484 23.679 34.689 C 23.693 34.699 23.718 34.717 23.753 34.744 C 23.788 34.771 23.847 34.819 23.93 34.887 L 23.876 35.979 C 23.83 35.935 23.788 35.899 23.749 35.869 C 23.71 35.839 23.667 35.808 23.621 35.778 C 23.225 35.517 22.914 35.485 22.685 35.68 C 22.456 35.875 22.331 36.192 22.309 36.627 L 22.133 40.158 L 21.37 39.656 L 21.676 33.498 z "
           style="fill:#920000;"
           id="path217" />
        <path
           d="M 24.798 35.606 L 25.561 36.109 L 25.256 42.221 L 24.493 41.717 L 24.798 35.606 z M 24.914 33.283 L 25.677 33.785 L 25.618 34.954 L 24.855 34.451 L 24.914 33.283 z "
           style="fill:#920000;"
           id="path218" />
        <path
           d="M 29.226 38.684 C 29.355 38.886 29.499 39.185 29.657 39.581 L 29.81 36.51 L 30.546 36.995 L 30.125 45.43 L 29.441 44.979 L 29.483 44.136 C 29.287 44.394 29.063 44.526 28.812 44.532 C 28.562 44.539 28.28 44.439 27.967 44.232 C 27.462 43.9 27.04 43.324 26.699 42.505 C 26.358 41.687 26.212 40.798 26.26 39.843 C 26.305 38.947 26.512 38.282 26.881 37.849 C 27.25 37.415 27.747 37.404 28.372 37.816 C 28.717 38.044 29.002 38.334 29.226 38.684 z M 27.288 42.178 C 27.47 42.758 27.786 43.196 28.236 43.492 C 28.586 43.722 28.883 43.705 29.129 43.44 C 29.374 43.175 29.517 42.657 29.555 41.884 C 29.594 41.104 29.507 40.449 29.293 39.922 C 29.08 39.394 28.803 39.018 28.462 38.793 C 28.082 38.542 27.764 38.539 27.507 38.783 C 27.251 39.027 27.104 39.538 27.065 40.313 C 27.032 40.977 27.106 41.597 27.288 42.178 z "
           style="fill:#920000;"
           id="path219" />
        <path
           d="M 33.893 44.065 C 34.071 44.151 34.193 44.129 34.261 44 C 34.303 43.935 34.328 43.815 34.337 43.646 C 34.355 43.298 34.274 42.984 34.095 42.705 C 33.916 42.425 33.654 42.17 33.306 41.941 C 32.905 41.676 32.613 41.632 32.431 41.808 C 32.329 41.905 32.256 42.101 32.212 42.395 L 31.502 41.927 C 31.554 41.178 31.762 40.771 32.127 40.704 C 32.491 40.638 32.904 40.757 33.366 41.061 C 33.901 41.415 34.329 41.84 34.649 42.342 C 34.966 42.84 35.111 43.38 35.082 43.96 L 34.906 47.49 C 34.901 47.597 34.913 47.693 34.943 47.781 C 34.973 47.867 35.041 47.945 35.147 48.015 C 35.182 48.038 35.221 48.061 35.264 48.083 C 35.307 48.105 35.354 48.128 35.404 48.148 L 35.366 48.907 C 35.244 48.873 35.152 48.842 35.089 48.811 C 35.026 48.782 34.941 48.731 34.832 48.66 C 34.567 48.485 34.382 48.233 34.275 47.903 C 34.219 47.729 34.184 47.512 34.171 47.252 C 34.001 47.429 33.765 47.523 33.462 47.536 C 33.16 47.548 32.833 47.438 32.481 47.206 C 32.059 46.928 31.722 46.526 31.471 46.003 C 31.221 45.478 31.108 44.955 31.135 44.433 C 31.163 43.861 31.317 43.504 31.597 43.363 C 31.877 43.222 32.232 43.258 32.664 43.467 L 33.893 44.065 z M 32.131 45.793 C 32.285 46.072 32.473 46.285 32.695 46.432 C 32.966 46.612 33.233 46.7 33.495 46.698 C 33.936 46.7 34.173 46.384 34.205 45.748 L 34.247 44.915 C 34.149 44.936 34.025 44.927 33.874 44.885 C 33.723 44.843 33.577 44.786 33.434 44.714 L 32.966 44.483 C 32.685 44.345 32.472 44.285 32.325 44.298 C 32.076 44.32 31.942 44.529 31.923 44.925 C 31.908 45.223 31.977 45.513 32.131 45.793 z "
           style="fill:#920000;"
           id="path220" />
        <path
           d="M 39.13 44.955 L 39.978 45.515 C 39.85 45.838 39.565 46.581 39.123 47.744 C 38.792 48.619 38.516 49.328 38.295 49.871 C 37.771 51.149 37.409 51.9 37.21 52.126 C 37.01 52.351 36.688 52.316 36.243 52.023 C 36.134 51.951 36.051 51.89 35.993 51.839 C 35.935 51.789 35.864 51.72 35.78 51.634 L 35.827 50.685 C 35.959 50.824 36.055 50.919 36.114 50.97 C 36.173 51.021 36.226 51.062 36.272 51.091 C 36.415 51.186 36.522 51.224 36.592 51.204 C 36.662 51.186 36.723 51.145 36.773 51.085 C 36.789 51.064 36.848 50.94 36.951 50.716 C 37.054 50.492 37.129 50.325 37.176 50.214 L 35.795 42.757 L 36.67 43.333 L 37.649 49.159 L 39.13 44.955 z "
           style="fill:#920000;"
           id="path221" />
      </g>
    </g>
  </g>
</svg>
