<?xml version="1.0" encoding="UTF-8" standalone="no"?>
<!-- Created with Inkscape (http://www.inkscape.org/) -->
<svg
   xmlns:dc="http://purl.org/dc/elements/1.1/"
   xmlns:cc="http://creativecommons.org/ns#"
   xmlns:rdf="http://www.w3.org/1999/02/22-rdf-syntax-ns#"
   xmlns:svg="http://www.w3.org/2000/svg"
   xmlns="http://www.w3.org/2000/svg"
   xmlns:xlink="http://www.w3.org/1999/xlink"
   xmlns:sodipodi="http://sodipodi.sourceforge.net/DTD/sodipodi-0.dtd"
   xmlns:inkscape="http://www.inkscape.org/namespaces/inkscape"
   width="48"
   height="48"
   id="svg2"
   sodipodi:version="0.32"
   inkscape:version="0.46"
   version="1.0"
   sodipodi:docbase="/home/lapo/Desktop/kenneth"
   sodipodi:docname="call-start.svg"
   inkscape:output_extension="org.inkscape.output.svg.inkscape">
  <defs
     id="defs4">
    <inkscape:perspective
       sodipodi:type="inkscape:persp3d"
       inkscape:vp_x="0 : 24 : 1"
       inkscape:vp_y="0 : 1000 : 0"
       inkscape:vp_z="48 : 24 : 1"
       inkscape:persp3d-origin="24 : 16 : 1"
       id="perspective76" />
    <linearGradient
       id="linearGradient4801">
      <stop
         id="stop4803"
         offset="0"
         style="stop-color:#8ae234;stop-opacity:1" />
      <stop
         id="stop4805"
         offset="1"
         style="stop-color:#6dc714;stop-opacity:1" />
    </linearGradient>
    <linearGradient
       inkscape:collect="always"
       id="linearGradient2844">
      <stop
         style="stop-color:white;stop-opacity:1;"
         offset="0"
         id="stop2846" />
      <stop
         style="stop-color:white;stop-opacity:0;"
         offset="1"
         id="stop2848" />
    </linearGradient>
    <linearGradient
       id="linearGradient2946">
      <stop
         style="stop-color:#8ae234;stop-opacity:1"
         offset="0"
         id="stop2948" />
      <stop
         style="stop-color:#73d216;stop-opacity:1"
         offset="1"
         id="stop2950" />
    </linearGradient>
    <linearGradient
       id="linearGradient2894">
      <stop
         style="stop-color:white;stop-opacity:1;"
         offset="0"
         id="stop2896" />
      <stop
         style="stop-color:white;stop-opacity:0.43629342"
         offset="1"
         id="stop2898" />
    </linearGradient>
    <radialGradient
       inkscape:collect="always"
       xlink:href="#gradient0"
       id="radialGradient2478"
       gradientUnits="userSpaceOnUse"
       gradientTransform="matrix(0.7779357,-0.5099058,0.2249132,0.3431361,8.710057,35.620936)"
       cx="17.315821"
       cy="-18.43367"
       fx="17.315821"
       fy="-18.43367"
       r="20.988943" />
    <linearGradient
       inkscape:collect="always"
       xlink:href="#linearGradient2844"
       id="linearGradient6229"
       gradientUnits="userSpaceOnUse"
       gradientTransform="translate(-118,2)"
       x1="72.375"
       y1="28.301006"
       x2="72.375"
       y2="31.375868" />
    <linearGradient
       inkscape:collect="always"
       xlink:href="#linearGradient2844"
       id="linearGradient6232"
       gradientUnits="userSpaceOnUse"
       gradientTransform="translate(-118,2)"
       x1="92.586792"
       y1="6.5408134"
       x2="92.586792"
       y2="10.352213" />
    <radialGradient
       inkscape:collect="always"
       xlink:href="#linearGradient2946"
       id="radialGradient6244"
       gradientUnits="userSpaceOnUse"
       gradientTransform="matrix(0.7779357,-0.5099058,0.2249132,0.3431361,8.710057,35.620936)"
       cx="17.315821"
       cy="-18.43367"
       fx="17.315821"
       fy="-18.43367"
       r="20.988943" />
    <radialGradient
       inkscape:collect="always"
       xlink:href="#linearGradient4801"
       id="radialGradient6246"
       gradientUnits="userSpaceOnUse"
       gradientTransform="matrix(1.3852938,0,0,1.1828585,-2.1985396,-3.7252664)"
       cx="7.0907202"
       cy="22.561522"
       fx="7.0907202"
       fy="22.561522"
       r="5.4701443" />
    <radialGradient
       inkscape:collect="always"
       xlink:href="#linearGradient2946"
       id="radialGradient6248"
       gradientUnits="userSpaceOnUse"
       gradientTransform="matrix(1.065299,0,0,1.069873,-2.349853,-1.383156)"
       cx="35.407703"
       cy="21.517693"
       fx="35.407703"
       fy="21.517693"
       r="5.4555612" />
    <linearGradient
       inkscape:collect="always"
       xlink:href="#linearGradient2894"
       id="linearGradient6250"
       gradientUnits="userSpaceOnUse"
       x1="22.547333"
       y1="14.127917"
       x2="21.578205"
       y2="11.299405" />
    <linearGradient
       gradientUnits="userSpaceOnUse"
       y2="25.265625"
       x2="52.122894"
       y1="25.265625"
       x1="8.6876345"
       id="linearGradient3247"
       xlink:href="#gradient0"
       inkscape:collect="always" />
    <linearGradient
       gradientUnits="userSpaceOnUse"
       y2="25.265625"
       x2="52.122894"
       y1="25.265625"
       x1="8.6876345"
       id="linearGradient3239"
       xlink:href="#gradient0"
       inkscape:collect="always" />
    <inkscape:perspective
       sodipodi:type="inkscape:persp3d"
       inkscape:vp_x="0 : 32 : 1"
       inkscape:vp_y="0 : 1000 : 0"
       inkscape:vp_z="64 : 32 : 1"
       inkscape:persp3d-origin="32 : 21.333333 : 1"
       id="perspective35" />
    <linearGradient
       inkscape:collect="always"
       xlink:href="#gradient0"
       id="linearGradient3186"
       x1="51.021461"
       y1="9.6630907"
       x2="51.021461"
       y2="50.079403"
       gradientUnits="userSpaceOnUse"
       gradientTransform="translate(-61.787555,0)" />
    <linearGradient
       y2="27.721035"
       x2="45.198921"
       y1="20.540676"
       x1="5.8925977"
       gradientUnits="userSpaceOnUse"
       id="linearGradient3223"
       xlink:href="#linearGradient3207"
       inkscape:collect="always" />
    <linearGradient
       y2="19.776045"
       x2="11.881318"
       y1="37.904068"
       x1="49.412277"
       gradientUnits="userSpaceOnUse"
       id="linearGradient3217"
       xlink:href="#linearGradient8152"
       inkscape:collect="always" />
    <linearGradient
       y2="19.776045"
       x2="11.881318"
       y1="37.904068"
       x1="49.412277"
       gradientUnits="userSpaceOnUse"
       id="linearGradient3211"
       xlink:href="#linearGradient8152"
       inkscape:collect="always" />
    <linearGradient
       gradientUnits="userSpaceOnUse"
       y2="25.265626"
       x2="52.122673"
       y1="25.265626"
       x1="8.6878577"
       id="linearGradient5341"
       xlink:href="#linearGradient5335"
       inkscape:collect="always" />
    <linearGradient
       y2="20.333939"
       x2="10.969182"
       y1="28.049652"
       x1="61.572533"
       gradientUnits="userSpaceOnUse"
       id="linearGradient8180"
       xlink:href="#linearGradient5313"
       inkscape:collect="always" />
    <linearGradient
       y2="27.721035"
       x2="45.198921"
       y1="20.540676"
       x1="5.8925977"
       gradientUnits="userSpaceOnUse"
       id="linearGradient8178"
       xlink:href="#linearGradient3207"
       inkscape:collect="always" />
    <linearGradient
       y2="19.776045"
       x2="11.881318"
       y1="37.904068"
       x1="49.412277"
       gradientUnits="userSpaceOnUse"
       id="linearGradient8174"
       xlink:href="#linearGradient8152"
       inkscape:collect="always" />
    <linearGradient
       gradientUnits="userSpaceOnUse"
       y2="19.776045"
       x2="11.881318"
       y1="37.904068"
       x1="49.412277"
       id="linearGradient8158"
       xlink:href="#linearGradient8152"
       inkscape:collect="always" />
    <radialGradient
       r="15.644737"
       fy="36.421127"
       fx="24.837126"
       cy="36.421127"
       cx="24.837126"
       gradientTransform="matrix(1,0,0,0.536723,0,16.87306)"
       gradientUnits="userSpaceOnUse"
       id="radialGradient1503"
       xlink:href="#linearGradient8662"
       inkscape:collect="always" />
    <linearGradient
       id="linearGradient8662"
       inkscape:collect="always">
      <stop
         id="stop8664"
         offset="0"
         style="stop-color:#000000;stop-opacity:1;" />
      <stop
         id="stop8666"
         offset="1"
         style="stop-color:#000000;stop-opacity:0;" />
    </linearGradient>
    <linearGradient
       id="linearGradient2831">
      <stop
         id="stop2833"
         offset="0"
         style="stop-color:#3465a4;stop-opacity:1;" />
      <stop
         style="stop-color:#5b86be;stop-opacity:1;"
         offset="0.33333334"
         id="stop2855" />
      <stop
         id="stop2835"
         offset="1"
         style="stop-color:#83a8d8;stop-opacity:0;" />
    </linearGradient>
    <linearGradient
       id="linearGradient3207">
      <stop
         id="stop3209"
         offset="0"
         style="stop-color:#eeeeec;stop-opacity:0.47058824;" />
      <stop
         id="stop3211"
         offset="1"
         style="stop-color:#eeeeec;stop-opacity:0;" />
    </linearGradient>
    <linearGradient
       id="linearGradient8152">
      <stop
         id="stop8154"
         offset="0"
         style="stop-color:#3465a4;stop-opacity:1;" />
      <stop
         style="stop-color:#4f7eba;stop-opacity:1;"
         offset="0.5"
         id="stop3174" />
      <stop
         id="stop8156"
         offset="1"
         style="stop-color:#729fcf;stop-opacity:1;" />
    </linearGradient>
    <linearGradient
       id="linearGradient5313">
      <stop
         style="stop-color:#99b8df;stop-opacity:1"
         offset="0"
         id="stop5315" />
      <stop
         id="stop5333"
         offset="0.23705086"
         style="stop-color:#3969a8;stop-opacity:1;" />
      <stop
         id="stop5317"
         offset="0.54706067"
         style="stop-color:#4f7eba;stop-opacity:1;" />
      <stop
         style="stop-color:#96b6d7;stop-opacity:1"
         offset="0.74557692"
         id="stop5321" />
      <stop
         id="stop5331"
         offset="0.87321436"
         style="stop-color:#a0bddc;stop-opacity:1" />
      <stop
         style="stop-color:#729fcf;stop-opacity:1;"
         offset="1"
         id="stop5319" />
    </linearGradient>
    <linearGradient
       id="linearGradient5335"
       inkscape:collect="always">
      <stop
         id="stop5337"
         offset="0"
         style="stop-color:#ffffff;stop-opacity:1;" />
      <stop
         id="stop5339"
         offset="1"
         style="stop-color:#ffffff;stop-opacity:0;" />
    </linearGradient>
    <inkscape:perspective
       id="perspective56"
       inkscape:persp3d-origin="24 : 16 : 1"
       inkscape:vp_z="48 : 24 : 1"
       inkscape:vp_y="0 : 1000 : 0"
       inkscape:vp_x="0 : 24 : 1"
       sodipodi:type="inkscape:persp3d" />
    <linearGradient
       inkscape:collect="always"
       xlink:href="#gradient0"
       id="linearGradient3342"
       x1="-50.804844"
       y1="17.599966"
       x2="-37.770576"
       y2="17.599966"
       gradientUnits="userSpaceOnUse" />
    <linearGradient
       inkscape:collect="always"
       xlink:href="#gradient0"
       id="linearGradient3350"
       x1="-4.4337277"
       y1="30.027283"
       x2="8.6005421"
       y2="30.027283"
       gradientUnits="userSpaceOnUse" />
  </defs>
  <sodipodi:namedview
     id="base"
     pagecolor="#7d7d7d"
     bordercolor="#666666"
     borderopacity="1.0"
     inkscape:pageopacity="0"
     inkscape:pageshadow="2"
     inkscape:zoom="5.6568542"
     inkscape:cx="0.7547837"
     inkscape:cy="5.6554142"
     inkscape:document-units="px"
     inkscape:current-layer="layer1"
     width="48px"
     height="48px"
     inkscape:showpageshadow="false"
     showgrid="false"
     inkscape:window-width="1043"
     inkscape:window-height="712"
     inkscape:window-x="235"
     inkscape:window-y="177"
     showguides="false"
     inkscape:guide-bbox="true"
     showborder="true"
     objecttolerance="10000"
     inkscape:object-nodes="false"
     inkscape:snap-nodes="false"
     gridtolerance="10000"
     guidetolerance="10000"
     inkscape:snap-bbox="true">
    <sodipodi:guide
       orientation="horizontal"
       position="26"
       id="guide2780" />
    <sodipodi:guide
       orientation="vertical"
       position="10.9375"
       id="guide2782" />
    <inkscape:grid
       id="GridFromPre046Settings"
       type="xygrid"
       originx="0px"
       originy="0px"
       spacingx="0.5px"
       spacingy="0.5px"
       color="#0000ff"
       empcolor="#0000ff"
       opacity="0.2"
       empopacity="0.4"
       empspacing="2"
       visible="true"
       enabled="true" />
  </sodipodi:namedview>
  <metadata
     id="metadata7">
    <rdf:RDF>
      <cc:Work
         rdf:about="">
        <dc:format>image/svg+xml</dc:format>
        <dc:type
           rdf:resource="http://purl.org/dc/dcmitype/StillImage" />
        <cc:license
           rdf:resource="http://www.gnu.org/licenses/lgpl.html" />
        <dc:creator>
          <cc:Agent>
            <dc:title>Lapo Calamandrei</dc:title>
          </cc:Agent>
        </dc:creator>
        <dc:title>Call Start</dc:title>
        <dc:subject>
          <rdf:Bag>
            <rdf:li>receiver</rdf:li>
            <rdf:li>phone</rdf:li>
            <rdf:li>call</rdf:li>
            <rdf:li>start</rdf:li>
            <rdf:li>answer</rdf:li>
          </rdf:Bag>
        </dc:subject>
      </cc:Work>
    </rdf:RDF>
  </metadata>
  <g
     inkscape:label="Livello 1"
     inkscape:groupmode="layer"
     id="layer1"
     style="display:inline">
    <g
       id="g6807"
       transform="translate(131,0)">
      <g
         transform="translate(-70,0)"
         id="g6252">
        <g
           id="g2924"
           transform="matrix(-0.707107,0.707107,-0.707107,-0.707107,-0.7216,24.39662)">
          <rect
             inkscape:transform-center-x="-0.26691096"
             transform="matrix(0.965926,-0.258819,0.258819,0.965926,0,0)"
             inkscape:transform-center-y="0.99612571"
             ry="1.4805068"
             rx="1.4805068"
             y="28.027283"
             x="-3.9337273"
             height="4.0000005"
             width="12.034268"
             id="rect2926"
             style="fill:#8ae234;fill-opacity:1;stroke:#4e9a06;stroke-width:1.00000119;stroke-linecap:round;stroke-linejoin:miter;stroke-miterlimit:4;stroke-dasharray:none;stroke-dashoffset:0;stroke-opacity:1" />
          <rect
             inkscape:transform-center-x="-0.26691096"
             transform="matrix(-0.965926,-0.258819,-0.258819,0.965926,0,0)"
             inkscape:transform-center-y="0.99612571"
             ry="1.4805068"
             rx="1.4805068"
             y="15.599967"
             x="-50.304844"
             height="4.0000005"
             width="12.034268"
             id="rect2928"
             style="fill:#8ae234;fill-opacity:1;stroke:#4e9a06;stroke-width:1.00000107;stroke-linecap:round;stroke-linejoin:miter;stroke-miterlimit:4;stroke-dasharray:none;stroke-dashoffset:0;stroke-opacity:1" />
          <path
             id="path2930"
             d="M 24,14.5 C 13.540342,14.5 4.9369948,19.115197 4.0625,25 C 3.4945247,26.229253 3.3411412,27.653245 3.71875,29.0625 C 3.8062083,29.388899 3.9270339,29.702183 4.0625,30 L 15.46875,26.9375 C 15.437158,26.61185 15.399959,26.263899 15.3125,25.9375 C 15.104309,25.160519 14.74048,24.477891 14.28125,23.875 C 15.658933,21.324703 19.487863,19.5 24,19.5 C 28.512138,19.5 32.341068,21.324703 33.71875,23.875 C 33.261083,24.476943 32.926458,25.162323 32.71875,25.9375 C 32.631291,26.263899 32.562841,26.611851 32.53125,26.9375 L 43.9375,30 C 44.072966,29.702183 44.193789,29.388898 44.28125,29.0625 C 44.666771,27.623715 44.503631,26.15269 43.90625,24.90625 C 42.954722,19.066284 34.403892,14.5 24,14.5 z"
             style="opacity:1;fill:url(#radialGradient6244);fill-opacity:1;stroke:#4e9a06;stroke-width:1;stroke-linecap:round;stroke-linejoin:miter;stroke-miterlimit:4;stroke-dasharray:none;stroke-dashoffset:0;stroke-opacity:1" />
          <path
             transform="translate(0,4)"
             d="M 10.28125,18.03125 C 9.5736169,17.93258 8.8345396,17.989006 8.09375,18.1875 C 5.1417658,18.978483 3.3968235,21.986655 4.1875,24.9375 C 4.2294144,25.093927 4.2860071,25.253209 4.34375,25.40625 L 14.9375,22.59375 C 14.913297,22.408905 14.887368,22.225284 14.84375,22.0625 C 14.250695,19.849188 12.415004,18.328774 10.28125,18.03125 z"
             id="path2932"
             style="fill:url(#radialGradient6246);fill-opacity:1;stroke:none;stroke-width:1.00000012;stroke-linecap:round;stroke-linejoin:miter;stroke-miterlimit:4;stroke-dasharray:none;stroke-dashoffset:0;stroke-opacity:1"
             inkscape:original="M 10.34375 17.5625 C 9.5718404 17.454867 8.7685364 17.504448 7.96875 17.71875 C 4.769604 18.57596 2.8615416 21.863355 3.71875 25.0625 C 3.8062083 25.388899 3.9270339 25.702183 4.0625 26 L 15.46875 22.9375 C 15.437158 22.61185 15.399959 22.263899 15.3125 21.9375 C 14.669594 19.538141 12.659479 17.885398 10.34375 17.5625 z "
             inkscape:radius="-0.47406253"
             sodipodi:type="inkscape:offset" />
          <path
             transform="translate(0,4)"
             d="M 37.75,18.03125 C 35.617916,18.328542 33.780097,19.850896 33.1875,22.0625 C 33.139948,22.239965 33.125627,22.41277 33.09375,22.59375 L 43.65625,25.40625 C 43.713949,25.253325 43.770626,25.093772 43.8125,24.9375 C 44.603318,21.986127 42.886463,18.977673 39.9375,18.1875 C 39.197252,17.989151 38.457043,17.932662 37.75,18.03125 z"
             id="path2934"
             style="fill:url(#radialGradient6248);fill-opacity:1;stroke:none;stroke-width:1.00000012;stroke-linecap:round;stroke-linejoin:miter;stroke-miterlimit:4;stroke-dasharray:none;stroke-dashoffset:0;stroke-opacity:1"
             inkscape:original="M 37.6875 17.5625 C 35.371771 17.885399 33.361656 19.538141 32.71875 21.9375 C 32.631291 22.263899 32.562841 22.611851 32.53125 22.9375 L 43.9375 26 C 44.072966 25.702183 44.193789 25.388898 44.28125 25.0625 C 45.138458 21.863355 43.261646 18.575959 40.0625 17.71875 C 39.262714 17.504448 38.45941 17.454867 37.6875 17.5625 z "
             inkscape:radius="-0.47841442"
             sodipodi:type="inkscape:offset" />
          <path
             transform="translate(-1.7626838e-7,4.0000004)"
             d="M 24,11.53125 C 18.921657,11.53125 14.291861,12.675735 10.90625,14.46875 C 7.5206391,16.261765 5.4645692,18.660869 5.09375,21.15625 C 5.0762252,21.25403 5.0446482,21.348761 5,21.4375 C 4.5294438,22.455912 4.4040816,23.606892 4.71875,24.78125 C 4.6773163,24.626617 4.7076549,24.66492 4.78125,24.90625 C 4.8062906,24.988364 4.7737549,24.972537 4.78125,25.03125 C 4.781408,25.041666 4.781408,25.052084 4.78125,25.0625 C 4.7845732,25.103196 4.8142632,25.128378 4.8125,25.15625 C 4.805474,25.06881 4.8126453,25.133916 4.84375,25.25 C 4.843908,25.260416 4.843908,25.270834 4.84375,25.28125 L 5.09375,26.28125 C 5.1622416,26.536864 5.354334,26.635025 5.625,26.5625 L 14.4375,24.21875 C 14.693114,24.150259 14.791275,23.958167 14.71875,23.6875 C 14.718592,23.677084 14.718592,23.666666 14.71875,23.65625 L 14.46875,22.65625 C 14.491254,22.740236 14.502581,22.724236 14.4375,22.59375 C 14.395536,22.514837 14.364022,22.430798 14.34375,22.34375 C 14.304919,22.159697 14.286823,22.122924 14.3125,22.21875 C 14.142918,21.58586 13.85979,21.01337 13.46875,20.5 C 13.216496,20.177036 13.179682,19.735262 13.375,19.375 C 15.034329,16.303335 19.210187,14.46875 24,14.46875 C 28.789814,14.46875 32.965672,16.303335 34.625,19.375 C 34.820318,19.735262 34.783504,20.177036 34.53125,20.5 C 34.155167,20.99464 33.894164,21.564097 33.71875,22.21875 C 33.713479,22.238423 33.700283,22.261112 33.6875,22.3125 C 33.667228,22.399548 33.635714,22.483587 33.59375,22.5625 C 33.535416,22.666858 33.518774,22.73406 33.53125,22.6875 L 33.28125,23.65625 C 33.281408,23.666666 33.281408,23.677084 33.28125,23.6875 C 33.208726,23.958166 33.338137,24.150259 33.59375,24.21875 L 42.34375,26.5625 C 42.614418,26.635025 42.837758,26.505615 42.90625,26.25 L 43.15625,25.28125 C 43.156092,25.270834 43.156092,25.260416 43.15625,25.25 C 43.187354,25.133919 43.194526,25.068809 43.1875,25.15625 C 43.187648,25.071952 43.198143,24.987991 43.21875,24.90625 C 43.292343,24.664932 43.322681,24.626633 43.28125,24.78125 C 43.602546,23.582157 43.461215,22.371283 42.96875,21.34375 C 42.924102,21.255011 42.892525,21.16028 42.875,21.0625 C 42.471132,18.583777 40.407544,16.213918 37.03125,14.4375 C 33.654956,12.661082 29.051262,11.53125 24,11.53125 z"
             id="path2936"
             style="opacity:0.41891898;fill:none;fill-opacity:1;stroke:url(#linearGradient6250);stroke-width:1;stroke-linecap:round;stroke-linejoin:miter;stroke-miterlimit:4;stroke-dasharray:none;stroke-dashoffset:0;stroke-opacity:1"
             inkscape:original="M 24 10.5 C 13.540342 10.5 4.9369948 15.115197 4.0625 21 C 3.4945247 22.229253 3.3411412 23.653245 3.71875 25.0625 C 3.7334834 25.117486 3.7647122 25.16452 3.78125 25.21875 C 3.7841345 25.228209 3.7783138 25.240565 3.78125 25.25 C 3.788405 25.339046 3.8197661 25.441741 3.84375 25.53125 L 4.09375 26.53125 C 4.3060333 27.323502 5.1139975 27.774783 5.90625 27.5625 L 14.6875 25.21875 C 15.479752 25.006467 15.931033 24.198503 15.71875 23.40625 L 15.46875 22.40625 C 15.442215 22.307218 15.387727 22.213173 15.34375 22.125 C 15.33063 22.062813 15.328837 21.998469 15.3125 21.9375 C 15.104309 21.160519 14.74048 20.477891 14.28125 19.875 C 15.658933 17.324703 19.487863 15.5 24 15.5 C 28.512138 15.5 32.341068 17.324703 33.71875 19.875 C 33.261083 20.476943 32.926458 21.162323 32.71875 21.9375 C 32.707694 21.978762 32.697913 22.020638 32.6875 22.0625 C 32.628492 22.168063 32.564047 22.283851 32.53125 22.40625 L 32.28125 23.40625 C 32.068968 24.198502 32.520248 25.006467 33.3125 25.21875 L 42.09375 27.5625 C 42.886004 27.774784 43.693967 27.323502 43.90625 26.53125 L 44.15625 25.53125 C 44.180234 25.441741 44.211595 25.339045 44.21875 25.25 C 44.219511 25.240527 44.218173 25.228207 44.21875 25.21875 C 44.235288 25.16452 44.266516 25.117486 44.28125 25.0625 C 44.666771 23.623715 44.503631 22.15269 43.90625 20.90625 C 42.954722 15.066284 34.403892 10.5 24 10.5 z "
             inkscape:radius="-1.0299597"
             sodipodi:type="inkscape:offset" />
        </g>
        <path
           style="opacity:0.8;fill:url(#linearGradient6232);fill-opacity:1;stroke:none;stroke-width:1.29538584;stroke-linecap:round;stroke-linejoin:miter;stroke-miterlimit:4;stroke-dasharray:none;stroke-dashoffset:0;stroke-opacity:1;display:inline"
           d="M -25.40625,8.0625 L -27.78125,12.1875 C -27.323953,12.688682 -26.668901,13 -25.9375,13 C -24.557501,13 -23.437503,11.88 -23.4375,10.5 C -23.4375,9.303237 -24.282515,8.307286 -25.40625,8.0625 z"
           id="path2867" />
        <path
           style="opacity:0.8;fill:url(#linearGradient6229);fill-opacity:1;stroke:none;stroke-width:1.29538584;stroke-linecap:round;stroke-linejoin:miter;stroke-miterlimit:4;stroke-dasharray:none;stroke-dashoffset:0;stroke-opacity:1;display:inline"
           d="M -44.1875,29.6875 L -48.34375,32.125 C -48.063569,33.199325 -47.099192,34 -45.9375,34 C -44.557501,34 -43.437503,32.88 -43.4375,31.5 C -43.4375,30.7939 -43.716264,30.142261 -44.1875,29.6875 z"
           id="path2876" />
        <path
           sodipodi:type="arc"
           style="fill:#ecfbdd;fill-opacity:1;stroke:none;stroke-width:1;stroke-linecap:round;stroke-linejoin:miter;stroke-miterlimit:4;stroke-dasharray:none;stroke-dashoffset:0;stroke-opacity:1"
           id="path2864"
           sodipodi:cx="91.234375"
           sodipodi:cy="6.578125"
           sodipodi:rx="0.734375"
           sodipodi:ry="0.734375"
           d="M 91.96875,6.578125 A 0.734375,0.734375 0 1 1 90.5,6.578125 A 0.734375,0.734375 0 1 1 91.96875,6.578125 z"
           transform="translate(-118.5,1.1875)" />
        <path
           sodipodi:type="arc"
           style="fill:#ecfbdd;fill-opacity:1;stroke:none;stroke-width:1;stroke-linecap:round;stroke-linejoin:miter;stroke-miterlimit:4;stroke-dasharray:none;stroke-dashoffset:0;stroke-opacity:1;display:inline"
           id="path2866"
           sodipodi:cx="91.234375"
           sodipodi:cy="6.578125"
           sodipodi:rx="0.734375"
           sodipodi:ry="0.734375"
           d="M 91.96875,6.578125 A 0.734375,0.734375 0 1 1 90.5,6.578125 A 0.734375,0.734375 0 1 1 91.96875,6.578125 z"
           transform="translate(-136.96875,22.15625)" />
        <g
           style="display:inline"
           id="g6005">
          <g
             transform="matrix(-0.707107,0.707107,-0.707107,-0.707107,-0.7216,24.39662)"
             id="g6009">
            <rect
               style="fill:url(#linearGradient3350);fill-opacity:1.0;stroke:#000000;stroke-width:1.00000119000000010;stroke-linecap:round;stroke-linejoin:miter;stroke-miterlimit:4;stroke-dasharray:none;stroke-dashoffset:0;stroke-opacity:1"
               id="rect6011"
               width="12.034268"
               height="4.0000005"
               x="-3.9337273"
               y="28.027283"
               rx="1.4805068"
               ry="1.4805068"
               inkscape:transform-center-y="0.99612571"
               transform="matrix(0.965926,-0.258819,0.258819,0.965926,0,0)"
               inkscape:transform-center-x="-0.26691096" />
            <rect
               style="fill:url(#linearGradient3342);fill-opacity:1.0;stroke:#000000;stroke-width:1.00000106999999994;stroke-linecap:round;stroke-linejoin:miter;stroke-miterlimit:4;stroke-dasharray:none;stroke-dashoffset:0;stroke-opacity:1"
               id="rect6013"
               width="12.034268"
               height="4.0000005"
               x="-50.304844"
               y="15.599967"
               rx="1.4805068"
               ry="1.4805068"
               inkscape:transform-center-y="0.99612571"
               transform="matrix(-0.965926,-0.258819,-0.258819,0.965926,0,0)"
               inkscape:transform-center-x="-0.26691096" />
            <path
               style="opacity:1;fill:url(#radialGradient2478);fill-opacity:1.0;stroke:#000000;stroke-width:1;stroke-linecap:round;stroke-linejoin:miter;stroke-miterlimit:4;stroke-dasharray:none;stroke-dashoffset:0;stroke-opacity:1"
               d="M 24,14.5 C 13.540342,14.5 4.9369948,19.115197 4.0625,25 C 3.4945247,26.229253 3.3411412,27.653245 3.71875,29.0625 C 3.8062083,29.388899 3.9270339,29.702183 4.0625,30 L 15.46875,26.9375 C 15.437158,26.61185 15.399959,26.263899 15.3125,25.9375 C 15.104309,25.160519 14.74048,24.477891 14.28125,23.875 C 15.658933,21.324703 19.487863,19.5 24,19.5 C 28.512138,19.5 32.341068,21.324703 33.71875,23.875 C 33.261083,24.476943 32.926458,25.162323 32.71875,25.9375 C 32.631291,26.263899 32.562841,26.611851 32.53125,26.9375 L 43.9375,30 C 44.072966,29.702183 44.193789,29.388898 44.28125,29.0625 C 44.666771,27.623715 44.503631,26.15269 43.90625,24.90625 C 42.954722,19.066284 34.403892,14.5 24,14.5 z"
               id="path6015" />
          </g>
        </g>
      </g>
    </g>
    <g
       inkscape:r_cy="true"
       inkscape:r_cx="true"
       inkscape:label="Layer 1"
       id="g3317"
       transform="translate(-56.526912,-2.0220313)">
      <g
         style="opacity:0.5;fill:none;fill-opacity:1;stroke:#ffffff;stroke-opacity:1"
         inkscape:r_cy="true"
         inkscape:r_cx="true"
         transform="matrix(0.190868,0.16126,0.16126,-0.190868,-0.719083,15.30613)"
         id="g2424" />
      <g
         id="g8162"
         transform="matrix(0.6101332,0.5154999,0.5154881,-0.6101471,-10.618024,32.088556)"
         inkscape:r_cx="true"
         inkscape:r_cy="true"
         style="fill:url(#linearGradient8174);fill-opacity:1;stroke:#204a87;stroke-width:1.24932528;stroke-miterlimit:4;stroke-dasharray:none;stroke-opacity:1" />
      <g
         style="fill:none;fill-opacity:1;stroke:#204a87;stroke-width:1.24928653;stroke-miterlimit:4;stroke-dasharray:none;stroke-opacity:1"
         inkscape:r_cy="true"
         inkscape:r_cx="true"
         transform="matrix(0.6128107,0.5154406,0.5177504,-0.6100769,-10.856505,32.088635)"
         id="g8166" />
      <g
         style="fill:url(#linearGradient3217);fill-opacity:1;stroke:#204a87;stroke-width:1.24932528;stroke-miterlimit:4;stroke-dasharray:none;stroke-opacity:1"
         inkscape:r_cy="true"
         inkscape:r_cx="true"
         transform="matrix(-0.6101332,-0.5154999,-0.5154881,0.6101471,58.618025,13.154731)"
         id="g3213" />
      <g
         id="g3219"
         transform="matrix(-0.6128107,-0.5154406,-0.5177504,0.6100769,58.498602,12.959669)"
         inkscape:r_cx="true"
         inkscape:r_cy="true"
         style="fill:none;fill-opacity:1;stroke:#204a87;stroke-width:1.24928653;stroke-miterlimit:4;stroke-dasharray:none;stroke-opacity:1" />
      <g
         transform="translate(4.9035046,6.0195485)"
         id="g2446">
        <g
           id="g4"
           transform="matrix(-1,0,0,1,61.787555,0)">
          <linearGradient
             id="gradient0"
             gradientUnits="userSpaceOnUse"
             x1="66.449997"
             y1="-10.35"
             x2="77.269997"
             y2="5.25">
            <stop
               offset="0"
               stop-color="#acff0d"
               id="stop17" />
            <stop
               offset="1"
               stop-color="#04a804"
               id="stop19" />
          </linearGradient>
          <linearGradient
             id="gradient1"
             gradientUnits="userSpaceOnUse"
             x1="57.509998"
             y1="-20.74"
             x2="85.120003"
             y2="7.0100002">
            <stop
               offset="0"
               stop-color="#68fb06"
               id="stop24" />
            <stop
               offset="1"
               stop-color="#05d705"
               id="stop26" />
          </linearGradient>
        </g>
      </g>
    </g>
  </g>
  <g
     inkscape:groupmode="layer"
     id="layer2"
     inkscape:label="troiai"
     style="display:none">
    <path
       sodipodi:type="arc"
       style="opacity:0.9;fill:#ef2929;fill-opacity:1;stroke:#a40000;stroke-width:1.21590912;stroke-linecap:round;stroke-linejoin:miter;stroke-miterlimit:4;stroke-dasharray:none;stroke-dashoffset:0;stroke-opacity:1"
       id="path2763"
       sodipodi:cx="11.3125"
       sodipodi:cy="21.4375"
       sodipodi:rx="6.6875"
       sodipodi:ry="6.6875"
       d="M 18,21.4375 A 6.6875,6.6875 0 1 1 4.625,21.4375 A 6.6875,6.6875 0 1 1 18,21.4375 z"
       transform="matrix(0.82243,0,0,0.82243,-68.30374,4.369158)" />
    <path
       sodipodi:type="arc"
       style="opacity:0.9;fill:#ef2929;fill-opacity:1;stroke:#a40000;stroke-width:1.21590912;stroke-linecap:round;stroke-linejoin:miter;stroke-miterlimit:4;stroke-dasharray:none;stroke-dashoffset:0;stroke-opacity:1"
       id="path2765"
       sodipodi:cx="11.3125"
       sodipodi:cy="21.4375"
       sodipodi:rx="6.6875"
       sodipodi:ry="6.6875"
       d="M 18,21.4375 A 6.6875,6.6875 0 1 1 4.625,21.4375 A 6.6875,6.6875 0 1 1 18,21.4375 z"
       transform="matrix(0.82243,0,0,0.82243,-42.30374,4.369158)" />
    <path
       sodipodi:type="arc"
       style="opacity:0.6;fill:#ef2929;fill-opacity:1;stroke:#a40000;stroke-width:0.87122524;stroke-linecap:round;stroke-linejoin:miter;stroke-miterlimit:4;stroke-dasharray:none;stroke-dashoffset:0;stroke-opacity:1"
       id="path2767"
       sodipodi:cx="24.1875"
       sodipodi:cy="21.375"
       sodipodi:rx="16.5625"
       sodipodi:ry="9.75"
       d="M 40.75,21.375 A 16.5625,9.75 0 1 1 7.625,21.375 A 16.5625,9.75 0 1 1 40.75,21.375 z"
       transform="matrix(1.116981,0,0,1.179487,-73.01698,-3.211538)" />
    <path
       sodipodi:type="arc"
       style="opacity:0.6;fill:#ef2929;fill-opacity:1;stroke:#a40000;stroke-width:1.62041819;stroke-linecap:round;stroke-linejoin:miter;stroke-miterlimit:4;stroke-dasharray:none;stroke-dashoffset:0;stroke-opacity:1"
       id="path2769"
       sodipodi:cx="24.1875"
       sodipodi:cy="21.375"
       sodipodi:rx="16.5625"
       sodipodi:ry="9.75"
       d="M 40.75,21.375 A 16.5625,9.75 0 1 1 7.625,21.375 A 16.5625,9.75 0 1 1 40.75,21.375 z"
       transform="matrix(0.573586,0,0,0.663968,-59.87362,7.781372)" />
    <path
       style="opacity:0.6;fill:#ef2929;fill-opacity:1;stroke:#a40000;stroke-width:1;stroke-linecap:round;stroke-linejoin:miter;stroke-miterlimit:4;stroke-dasharray:none;stroke-dashoffset:0;stroke-opacity:1"
       d="M 23.99999,70.5 C 12.959975,70.5 3.9999611,75.652001 3.999961,82 L 13.729705,82 C 13.729624,81.989472 13.729705,81.97929 13.729705,81.96875 C 13.729705,78.395274 18.330782,75.5 23.99999,75.5 C 29.6692,75.5 34.270275,78.395274 34.270275,81.96875 C 34.270275,81.97929 34.270356,81.989472 34.270275,82 L 44.00002,82 C 44.00002,75.652001 35.040006,70.5 23.99999,70.5 z"
       id="path2805" />
    <path
       sodipodi:type="arc"
       style="opacity:0.9;fill:#ef2929;fill-opacity:1;stroke:#a40000;stroke-width:1.11458337;stroke-linecap:round;stroke-linejoin:miter;stroke-miterlimit:4;stroke-dasharray:none;stroke-dashoffset:0;stroke-opacity:1"
       id="path2807"
       sodipodi:cx="11.3125"
       sodipodi:cy="21.4375"
       sodipodi:rx="6.6875"
       sodipodi:ry="6.6875"
       d="M 18,21.4375 A 6.6875,6.6875 0 1 1 4.625,21.4375 A 6.6875,6.6875 0 1 1 18,21.4375 z"
       transform="matrix(0.897196,0,0,0.897196,-0.649528,64.26636)" />
    <path
       sodipodi:type="arc"
       style="opacity:0.9;fill:#ef2929;fill-opacity:1;stroke:#a40000;stroke-width:1.11458337;stroke-linecap:round;stroke-linejoin:miter;stroke-miterlimit:4;stroke-dasharray:none;stroke-dashoffset:0;stroke-opacity:1"
       id="path2809"
       sodipodi:cx="11.3125"
       sodipodi:cy="21.4375"
       sodipodi:rx="6.6875"
       sodipodi:ry="6.6875"
       d="M 18,21.4375 A 6.6875,6.6875 0 1 1 4.625,21.4375 A 6.6875,6.6875 0 1 1 18,21.4375 z"
       transform="matrix(0.897196,0,0,0.897196,28.35047,64.26636)" />
    <path
       style="fill:#ef2929;fill-opacity:1;stroke:#a40000;stroke-width:1.00000012;stroke-linecap:round;stroke-linejoin:miter;stroke-miterlimit:4;stroke-dasharray:none;stroke-dashoffset:0;stroke-opacity:1"
       d="M 7.9557575,-22.292184 C 4.7566116,-21.434975 2.8559071,-18.142859 3.7131155,-14.943714 C 3.8005738,-14.617315 3.927024,-14.299869 4.0624901,-14.002052 L 15.472491,-17.059351 C 15.440899,-17.385001 15.391686,-17.723143 15.304227,-18.049542 C 14.447019,-21.248687 11.154903,-23.149392 7.9557575,-22.292184 z"
       id="path2840"
       inkscape:transform-center-x="0.027159543"
       inkscape:transform-center-y="-1.7187079" />
    <path
       style="fill:#ef2929;fill-opacity:1;stroke:#a40000;stroke-width:1.00000012;stroke-linecap:round;stroke-linejoin:miter;stroke-miterlimit:4;stroke-dasharray:none;stroke-dashoffset:0;stroke-opacity:1"
       d="M 40.051683,-22.294327 C 43.250828,-21.437118 45.151533,-18.145002 44.294325,-14.945857 C 44.206866,-14.619458 44.080416,-14.302012 43.94495,-14.004195 L 32.534949,-17.061494 C 32.566541,-17.387144 32.615754,-17.725286 32.703213,-18.051685 C 33.560421,-21.25083 36.852537,-23.151535 40.051683,-22.294327 z"
       id="path2842"
       inkscape:transform-center-x="0.027159543"
       inkscape:transform-center-y="-1.7187079" />
  </g>
</svg>
