<?xml version="1.0" encoding="UTF-8" standalone="no"?>
<svg
   xmlns:dc="http://purl.org/dc/elements/1.1/"
   xmlns:cc="http://creativecommons.org/ns#"
   xmlns:rdf="http://www.w3.org/1999/02/22-rdf-syntax-ns#"
   xmlns:svg="http://www.w3.org/2000/svg"
   xmlns="http://www.w3.org/2000/svg"
   xmlns:sodipodi="http://sodipodi.sourceforge.net/DTD/sodipodi-0.dtd"
   xmlns:inkscape="http://www.inkscape.org/namespaces/inkscape"
   version="1.1"
   width="64"
   height="64"
   color-interpolation="linearRGB"
   id="svg2"
   inkscape:version="0.47 r22583"
   sodipodi:docname="camera.svg">
  <metadata
     id="metadata74">
    <rdf:RDF>
      <cc:Work
         rdf:about="">
        <dc:format>image/svg+xml</dc:format>
        <dc:type
           rdf:resource="http://purl.org/dc/dcmitype/StillImage" />
        <dc:title></dc:title>
      </cc:Work>
    </rdf:RDF>
  </metadata>
  <defs
     id="defs72">
    <inkscape:perspective
       sodipodi:type="inkscape:persp3d"
       inkscape:vp_x="0 : 32 : 1"
       inkscape:vp_y="0 : 1000 : 0"
       inkscape:vp_z="64 : 32 : 1"
       inkscape:persp3d-origin="32 : 21.333333 : 1"
       id="perspective76" />
    <inkscape:perspective
       id="perspective2941"
       inkscape:persp3d-origin="32 : 21.333333 : 1"
       inkscape:vp_z="64 : 32 : 1"
       inkscape:vp_y="0 : 1000 : 0"
       inkscape:vp_x="0 : 32 : 1"
       sodipodi:type="inkscape:persp3d" />
  </defs>
  <sodipodi:namedview
     pagecolor="#ffffff"
     bordercolor="#666666"
     borderopacity="1"
     objecttolerance="10"
     gridtolerance="10"
     guidetolerance="10"
     inkscape:pageopacity="0"
     inkscape:pageshadow="2"
     inkscape:window-width="1106"
     inkscape:window-height="906"
     id="namedview70"
     showgrid="false"
     inkscape:zoom="3.6875"
     inkscape:cx="32"
     inkscape:cy="32"
     inkscape:window-x="85"
     inkscape:window-y="43"
     inkscape:window-maximized="1"
     inkscape:current-layer="svg2" />
  <g
     id="g4">
    <path
       style="fill:#010101; fill-opacity:0.4078"
       d="M6 42L4 44L22 53C22 53 16 64 26 64C34 64 36 59 36 59L42 62L64 37L50 33L6 42z"
       id="path6" />
    <path
       style="fill:none; stroke:#010101; stroke-width:4; stroke-linecap:round"
       d="M6 36V42            M38 50V56            M54 31V37"
       id="path8" />
    <path
       style="fill:none; stroke:#010101; stroke-width:4"
       d="M2 26V38L34 54L58 29V17L36.98 10.99L36 12L27 9L12 20L10 18.99L2 26z"
       id="path10" />
    <path
       style="fill:#3d3d3d"
       d="M12 20L27 9L36 12L22 25L12 20z"
       id="path12" />
    <linearGradient
       id="gradient0"
       gradientUnits="userSpaceOnUse"
       x1="37.96"
       y1="-15.55"
       x2="52.81"
       y2="-2.15">
      <stop
         offset="0"
         stop-color="#bdbdbd"
         id="stop15" />
      <stop
         offset="1"
         stop-color="#808080"
         id="stop17" />
    </linearGradient>
    <path
       style="fill:none; stroke:url(#gradient0); stroke-width:1"
       d="M15.62 17.62L24.62 20.62            M18.37 15.75L27.37 18.75            M20.75 13.62L29.75 16.62            M23.37 11.87L32.37 14.87            M26 10L35 13"
       id="path19" />
    <linearGradient
       id="gradient1"
       gradientUnits="userSpaceOnUse"
       x1="24.39"
       y1="-5.5"
       x2="52.43"
       y2="0.21">
      <stop
         offset="0"
         stop-color="#ffffff"
         id="stop22" />
      <stop
         offset="1"
         stop-color="#dadada"
         id="stop24" />
    </linearGradient>
    <path
       style="fill:url(#gradient1)"
       d="M2 26L34 38L58 17L37 11L22 23L10 19L2 26z"
       id="path26" />
    <linearGradient
       id="gradient2"
       gradientUnits="userSpaceOnUse"
       x1="22.38"
       y1="-0.52"
       x2="54.81"
       y2="31.57">
      <stop
         offset="0"
         stop-color="#eeeeee"
         id="stop29" />
      <stop
         offset="1"
         stop-color="#9a9a9a"
         id="stop31" />
    </linearGradient>
    <path
       style="fill:url(#gradient2)"
       d="M2 26V38L34 54V38L2 26z"
       id="path33" />
    <linearGradient
       id="gradient3"
       gradientUnits="userSpaceOnUse"
       x1="43.22"
       y1="76.11"
       x2="19.29"
       y2="63.82">
      <stop
         offset="0"
         stop-color="#e2e2e2"
         id="stop36" />
      <stop
         offset="1"
         stop-color="#7c7c7c"
         id="stop38" />
    </linearGradient>
    <path
       style="fill:url(#gradient3)"
       d="M34 38V54L58 29V16L34 38z"
       id="path40" />
    <linearGradient
       id="gradient4"
       gradientUnits="userSpaceOnUse"
       x1="36.19"
       y1="20.64"
       x2="46.83"
       y2="33.8">
      <stop
         offset="0"
         stop-color="#2b2b2b"
         id="stop43" />
      <stop
         offset="0.1174"
         stop-color="#4b4b4b"
         id="stop45" />
      <stop
         offset="0.2651"
         stop-color="#ffffff"
         id="stop47" />
      <stop
         offset="0.4583"
         stop-color="#4e4e4e"
         id="stop49" />
      <stop
         offset="1"
         stop-color="#131313"
         id="stop51" />
    </linearGradient>
    <path
       style="fill:url(#gradient4)"
       d="M18.55 37.18L15.55 39.18L28.3 51.23L30.3 49.23C32.62 46.96 31.88 42.42 28.63 39.1C25.39 35.77 20.87 34.91 18.55 37.18z"
       id="path53" />
    <path
       style="fill:none; stroke:#010101; stroke-width:6"
       d="M12.26 43.27C9.85 45.62 10.62 50.33 13.99 53.78C17.36 57.23 22.04 58.12 24.46 55.77C26.87 53.41 26.1 48.71 22.73 45.25C19.36 41.8 14.68 40.91 12.26 43.27z"
       id="path55" />
    <radialGradient
       id="gradient5"
       gradientUnits="userSpaceOnUse"
       cx="0"
       cy="0"
       r="64"
       gradientTransform="matrix(0.1345,0.0871,-0.0673,0.1039,20.7047,50.7359)">
      <stop
         offset="0"
         stop-color="#434a68"
         id="stop58" />
      <stop
         offset="1"
         stop-color="#0f1238"
         id="stop60" />
    </radialGradient>
    <path
       style="fill:url(#gradient5)"
       d="M12.26 43.27C9.85 45.62 10.62 50.33 13.99 53.78C17.36 57.23 22.04 58.12 24.46 55.77C26.87 53.41 26.1 48.71 22.73 45.25C19.36 41.8 14.68 40.91 12.26 43.27z"
       id="path62" />
    <path
       style="fill:#ffffff"
       d="M12.26 43.27C9.85 45.62 10.62 50.33 13.99 53.78C17.36 57.23 22.04 58.12 24.46 55.77C26.87 53.41 26.1 48.71 22.73 45.25C19.36 41.8 14.68 40.91 12.26 43.27z"
       transform="matrix(0,0.1784,-0.1784,0,25.2544,41.1997)"
       id="path64" />
    <path
       style="fill:#ffffff"
       d="M19 53C19 53 22.25 53.25 23.25 52.25C24.25 51.25 24 49 24 49C24 49 24.87 52.12 23.87 53.12C22.87 54.12 19 53 19 53z"
       id="path66" />
    <path
       style="fill:none; stroke:#393939; stroke-width:1"
       d="M54.5 21.5V30.5            M52.5 23.5V32.62            M50.5 25.5V34.75            M48.5 27.5V36.87"
       id="path68" />
  </g>
  <g
     id="g2884"
     transform="matrix(0.46255778,0,0,0.46255778,34.85886,34.396302)">
    <path
       id="path2886"
       d="m 55,64 8,-8 -8,-4 -15,2 -4,4 4,4 15,2 z M 28,52 c -6.63,0 -12,2.68 -12,6 0,3.31 5.37,6 12,6 6.62,0 12,-2.69 12,-6 0,-3.32 -5.38,-6 -12,-6 z"
       style="fill:#010101;fill-opacity:0.46660001" />
    <path
       id="path2888"
       d="m 24,40 c -5.53,0 -10,4.47 -10,10 0,5.52 4.47,10 10,10 5.52,0 10,-4.48 10,-10 0,-5.53 -4.48,-10 -10,-10 z"
       style="fill:none;stroke:#000000;stroke-width:4" />
    <radialGradient
       gradientTransform="matrix(0.2281,0,0,0.2281,20.7999,47)"
       r="64"
       cy="0"
       cx="0"
       gradientUnits="userSpaceOnUse"
       id="gradient0-9">
      <stop
         id="stop2891"
         stop-color="#ffffff"
         offset="0" />
      <stop
         id="stop2893"
         stop-color="#ff3930"
         offset="0.25" />
      <stop
         id="stop2895"
         stop-color="#bf0000"
         offset="1" />
      <stop
         id="stop2897"
         stop-color="#800000"
         offset="0.8152" />
    </radialGradient>
    <path
       id="path2899"
       d="m 24,40 c -5.53,0 -10,4.47 -10,10 0.01,5.52 4.47,10 10,10 5.52,0 10,-4.48 10,-10 -2,2 -8,-1 -12,-3 0,0 0,-3 2,-7 z"
       style="fill:url(#gradient0-9)" />
    <radialGradient
       gradientTransform="matrix(0.2281,0,0,0.2281,20.7999,47)"
       r="64"
       cy="0"
       cx="0"
       gradientUnits="userSpaceOnUse"
       id="gradient1-3">
      <stop
         id="stop2902"
         stop-color="#ff756e"
         offset="0" />
      <stop
         id="stop2904"
         stop-color="#d50f05"
         offset="0.3007" />
      <stop
         id="stop2906"
         stop-color="#bf0000"
         offset="1" />
      <stop
         id="stop2908"
         stop-color="#800000"
         offset="0.8152" />
    </radialGradient>
    <path
       id="path2910"
       d="m 24,40 c -2,4 -2,7 -2,7 4,2 10,5 12,3 0,-5.53 -4.48,-10 -10,-10 z"
       style="fill:url(#gradient1-3)" />
    <path
       id="path2912"
       d="M 21,2 10,8 21,43 29,35 38,6 21,2 z"
       style="fill:none;stroke:#000000;stroke-width:4" />
    <linearGradient
       y2="-10.2"
       x2="76.040001"
       y1="-28.459999"
       x1="60.240002"
       gradientUnits="userSpaceOnUse"
       id="gradient2-6">
      <stop
         id="stop2915"
         stop-color="#ff6159"
         offset="0" />
      <stop
         id="stop2917"
         stop-color="#e40000"
         offset="1" />
    </linearGradient>
    <path
       id="path2919"
       d="M 10,8 21,43 28,13 10,8 z"
       style="fill:url(#gradient2-6)" />
    <linearGradient
       y2="-20.34"
       x2="56.59"
       y1="-23.389999"
       x1="50.369999"
       gradientUnits="userSpaceOnUse"
       id="gradient3-8">
      <stop
         id="stop2922"
         stop-color="#800000"
         offset="0" />
      <stop
         id="stop2924"
         stop-color="#a00404"
         offset="1" />
    </linearGradient>
    <path
       id="path2926"
       d="M 28,13 21,43 29,35 38,6 28,13 z"
       style="fill:url(#gradient3-8)" />
    <linearGradient
       y2="-20"
       x2="36"
       y1="-20"
       x1="12"
       gradientUnits="userSpaceOnUse"
       id="gradient4-0">
      <stop
         id="stop2929"
         stop-color="#ffc6c0"
         offset="0" />
      <stop
         id="stop2931"
         stop-color="#ff7575"
         offset="1" />
    </linearGradient>
    <path
       id="path2933"
       d="M 21,2 10,8 28,13 38,6 21,2 z"
       style="fill:url(#gradient4-0)" />
  </g>
</svg>
