<?xml version="1.0" encoding="UTF-8" standalone="no"?>
<!-- Generator: Adobe Illustrator 14.0.0, SVG Export Plug-In . SVG Version: 6.00 Build 43363)  -->

<svg
   xmlns:dc="http://purl.org/dc/elements/1.1/"
   xmlns:cc="http://creativecommons.org/ns#"
   xmlns:rdf="http://www.w3.org/1999/02/22-rdf-syntax-ns#"
   xmlns:svg="http://www.w3.org/2000/svg"
   xmlns="http://www.w3.org/2000/svg"
   xmlns:xlink="http://www.w3.org/1999/xlink"
   xmlns:sodipodi="http://sodipodi.sourceforge.net/DTD/sodipodi-0.dtd"
   xmlns:inkscape="http://www.inkscape.org/namespaces/inkscape"
   version="1.1"
   id="svg2"
   x="0px"
   y="0px"
   width="128px"
   height="128px"
   viewBox="0 0 128 128"
   enable-background="new 0 0 128 128"
   xml:space="preserve"
   inkscape:version="0.47 r22583"
   sodipodi:docname="catalog.svg"><metadata
   id="metadata123"><rdf:RDF><cc:Work
       rdf:about=""><dc:format>image/svg+xml</dc:format><dc:type
         rdf:resource="http://purl.org/dc/dcmitype/StillImage" /></cc:Work></rdf:RDF></metadata><defs
   id="defs121"><inkscape:perspective
   sodipodi:type="inkscape:persp3d"
   inkscape:vp_x="0 : 64 : 1"
   inkscape:vp_y="0 : 1000 : 0"
   inkscape:vp_z="128 : 64 : 1"
   inkscape:persp3d-origin="64 : 42.666667 : 1"
   id="perspective125" /><linearGradient
   inkscape:collect="always"
   xlink:href="#path5389_1_"
   id="linearGradient3801"
   x1="-106.80508"
   y1="41.491528"
   x2="-98.754227"
   y2="41.491528"
   gradientUnits="userSpaceOnUse" /><radialGradient
   inkscape:collect="always"
   xlink:href="#path5389_1_"
   id="radialGradient3803"
   gradientUnits="userSpaceOnUse"
   gradientTransform="matrix(-0.064,0.175,1.8694,0.6835,-425.1342,-169.6643)"
   cx="498.3457"
   cy="267.1621"
   r="27.1927" /><radialGradient
   inkscape:collect="always"
   xlink:href="#path5435_1_"
   id="radialGradient3805"
   gradientUnits="userSpaceOnUse"
   gradientTransform="matrix(-0.0902,0.2793,1.9257,0.6218,-445.576,-180.1955)"
   cx="316.8916"
   cy="261.2949"
   r="27.1937" /><radialGradient
   inkscape:collect="always"
   xlink:href="#path5463_1_"
   id="radialGradient3807"
   gradientUnits="userSpaceOnUse"
   gradientTransform="matrix(2.5834,0.998,0.0835,-0.2162,46.7076,-68.8071)"
   cx="14.938"
   cy="-466.4766"
   r="27.3207" /><linearGradient
   inkscape:collect="always"
   xlink:href="#path3311_1_"
   id="linearGradient3809"
   gradientUnits="userSpaceOnUse"
   gradientTransform="matrix(1,0,0,-1,5.4287,129.1426)"
   x1="-1.3145"
   y1="103.2168"
   x2="67.4683"
   y2="103.2168" />
	
	
	
	
	
	
	
	
	
		<radialGradient
   gradientUnits="userSpaceOnUse"
   gradientTransform="matrix(-0.064 0.175 1.8694 0.6835 -425.1342 -169.6643)"
   r="27.1927"
   cy="267.1621"
   cx="498.3457"
   id="path5389_1_">
		<stop
   id="stop36"
   style="stop-color:#24711f;stop-opacity:1;"
   offset="0" />
		<stop
   id="stop38"
   style="stop-color:#393e4a;stop-opacity:1;"
   offset="1" />
	</radialGradient>
	
	
	
	
	
	
	
	
	
	
	
		<radialGradient
   gradientUnits="userSpaceOnUse"
   gradientTransform="matrix(-0.0902 0.2793 1.9257 0.6218 -445.576 -180.1955)"
   r="27.1937"
   cy="261.2949"
   cx="316.8916"
   id="path5435_1_">
		<stop
   id="stop71"
   style="stop-color:#2e9dda;stop-opacity:1;"
   offset="0" />
		<stop
   id="stop73"
   style="stop-color:#232dac;stop-opacity:1;"
   offset="1" />
	</radialGradient>
	
	
	
	
	
	
	
	
	
	
	
		<radialGradient
   gradientUnits="userSpaceOnUse"
   gradientTransform="matrix(2.5834 0.998 0.0835 -0.2162 46.7076 -68.8071)"
   r="27.3207"
   cy="-466.4766"
   cx="14.938"
   id="path5463_1_">
		<stop
   id="stop106"
   style="stop-color:#b01c19;stop-opacity:1;"
   offset="0" />
		<stop
   id="stop108"
   style="stop-color:#8b0c20;stop-opacity:1;"
   offset="1" />
	</radialGradient>
	
	
		<linearGradient
   gradientTransform="matrix(1 0 0 -1 5.4287 129.1426)"
   y2="103.2168"
   x2="67.4683"
   y1="103.2168"
   x1="-1.3145"
   gradientUnits="userSpaceOnUse"
   id="path3311_1_">
		<stop
   id="stop112"
   style="stop-color:#797979;stop-opacity:1;"
   offset="0" />
		<stop
   id="stop114"
   style="stop-color:#4b4b4b;stop-opacity:0.24705882;"
   offset="1" />
	</linearGradient>
	
	
	
<linearGradient
   inkscape:collect="always"
   xlink:href="#path3311_1_"
   id="linearGradient3826"
   gradientUnits="userSpaceOnUse"
   gradientTransform="matrix(1,0,0,-1,5.4287,129.1426)"
   x1="-1.3145"
   y1="103.2168"
   x2="67.4683"
   y2="103.2168" /><radialGradient
   inkscape:collect="always"
   xlink:href="#path5463_1_"
   id="radialGradient3829"
   gradientUnits="userSpaceOnUse"
   gradientTransform="matrix(2.5834,0.998,0.0835,-0.2162,46.7076,-68.8071)"
   cx="14.938"
   cy="-466.4766"
   r="27.3207" /><radialGradient
   inkscape:collect="always"
   xlink:href="#path5435_1_"
   id="radialGradient3851"
   gradientUnits="userSpaceOnUse"
   gradientTransform="matrix(-0.0902,0.2793,1.9257,0.6218,-445.576,-180.1955)"
   cx="316.8916"
   cy="261.2949"
   r="27.1937" /><radialGradient
   inkscape:collect="always"
   xlink:href="#path5389_1_"
   id="radialGradient3873"
   gradientUnits="userSpaceOnUse"
   gradientTransform="matrix(-0.064,0.175,1.8694,0.6835,-425.1342,-169.6643)"
   cx="498.3457"
   cy="267.1621"
   r="27.1927" /></defs><sodipodi:namedview
   pagecolor="#ffffff"
   bordercolor="#666666"
   borderopacity="1"
   objecttolerance="10"
   gridtolerance="10"
   guidetolerance="10"
   inkscape:pageopacity="0"
   inkscape:pageshadow="2"
   inkscape:window-width="739"
   inkscape:window-height="501"
   id="namedview119"
   showgrid="false"
   inkscape:zoom="3.6875"
   inkscape:cx="64"
   inkscape:cy="64"
   inkscape:window-x="128"
   inkscape:window-y="332"
   inkscape:window-maximized="0"
   inkscape:current-layer="svg2" />
<filter
   id="filter5365">
	<feGaussianBlur
   stdDeviation="1.3829225"
   inkscape:collect="always"
   id="feGaussianBlur5367" />
</filter>
<g
   id="layer1">
</g>
<polygon
   style="opacity:0.57219998;fill:#0000a4"
   points="171.429,297.005 167.5,297.005 171.429,297.005 "
   enable-background="new    "
   id="rect3200" /><g
   style="filter:url(#filter5365)"
   id="path5265">
		<polygon
   style="fill:#362d2d"
   id="polygon9"
   points="119.953,80.636 70.397,97.084 21.951,79.904 70.397,63.09 " />
		<polygon
   style="fill:none;stroke:#362d2d;stroke-width:1.2507;stroke-linejoin:bevel"
   id="polygon11"
   points="119.953,80.636 70.397,97.084 21.951,79.904 70.397,63.09 " />
	</g><g
   style="filter:url(#filter5365)"
   id="path5267">
		<path
   style="fill:#362d2d"
   id="path14"
   d="m 118.639,100.902 v 1.724 l -46.437,15.432 c -3.723,-9.284 -1.901,-16.34 0.089,-20.69 l 46.883,-15.518 -6.34,2.068 2.322,16.553 3.483,0.431 z" />
		<path
   style="fill:none;stroke:#362d2d;stroke-width:1.89999998"
   id="path16"
   d="m 118.639,100.902 v 1.724 l -46.437,15.432 c -3.723,-9.284 -1.901,-16.34 0.089,-20.69 l 46.883,-15.518 -6.34,2.068 2.322,16.553 3.483,0.431 z" />
	</g><g
   style="filter:url(#filter5365)"
   id="path5269">
		<path
   style="fill:#362d2d"
   id="path19"
   d="m 70.711,98.81 47.581,-15.743 0.29,18.582 -47.56,15.986 c 0,0 -1.515,-3.455 -1.942,-9.812 -0.144,-6.097 1.631,-9.013 1.631,-9.013 z" />
		<path
   style="fill:none;stroke:#362d2d;stroke-width:2.0999999"
   id="path21"
   d="m 70.711,98.81 47.581,-15.743 0.29,18.582 -47.56,15.986 c 0,0 -1.515,-3.455 -1.942,-9.812 -0.144,-6.097 1.631,-9.013 1.631,-9.013 z" />
	</g><g
   style="filter:url(#filter5365)"
   id="path5271">
		<path
   style="fill:#362d2d"
   id="path24"
   d="m 21.479,79.607 49.115,17.501 c -3.287,7.816 -2.385,15.202 0.982,23.019 L 21.568,103.919 C 17.974,94.288 17.113,87.874 21.479,79.607 z" />
		<path
   style="fill:none;stroke:#362d2d;stroke-width:1.60000002"
   id="path26"
   d="m 21.479,79.607 49.115,17.501 c -3.287,7.816 -2.385,15.202 0.982,23.019 L 21.568,103.919 C 17.974,94.288 17.113,87.874 21.479,79.607 z" />
	</g><g
   style="filter:url(#filter5365)"
   id="path5273">
		<path
   style="fill:#362d2d"
   id="path29"
   d="m 120.871,99.092 v 4.827 L 70.863,120.816 21.212,104.953 C 16.449,93.791 19.225,86.271 21.926,79.607 l 49.651,-16.724 48.579,17.242 v 3.449 l -2.143,1.033 0.357,14.139 2.501,0.346 z" />
		<path
   style="fill:none;stroke:#362d2d;stroke-width:2.70000005;stroke-linejoin:bevel"
   id="path31"
   d="m 120.871,99.092 v 4.827 L 70.863,120.816 21.212,104.953 C 16.449,93.791 19.225,86.271 21.926,79.607 l 49.651,-16.724 48.579,17.242 v 3.449 l -2.143,1.033 0.357,14.139 2.501,0.346 z" />
	</g><path
   style="fill:#78ce4f"
   d="M 19.316,78.05 67.754,60.636 117.302,78.807 67.754,95.842 19.316,78.05 z"
   id="path5385" /><path
   style="fill:none;stroke:#0f973b;stroke-width:1.89999998"
   d="m 115.988,99.796 v 1.786 l -46.43,15.982 c -3.722,-9.616 -1.901,-16.924 0.09,-21.43 l 46.875,-16.07 -6.34,2.143 2.322,17.143 3.483,0.446 z"
   id="path5387" /><path
   style="fill:url(#radialGradient3873);stroke:#003131;stroke-width:1.60000002;stroke-opacity:0.96079999"
   d="m 18.845,77.742 49.107,18.125 c -3.287,8.096 -2.385,15.744 0.981,23.84 l -50,-16.786 C 15.339,92.946 14.479,86.304 18.845,77.742 z"
   id="path5389" /><path
   style="fill:none;stroke:#003131;stroke-width:2.70000005;stroke-linejoin:bevel;stroke-opacity:0.96079999"
   d="m 118.22,97.921 v 5 l -50,17.5 -49.643,-16.429 C 13.815,92.431 16.59,84.644 19.291,77.742 l 49.642,-17.321 48.572,17.857 v 3.571 l -2.143,1.071 0.356,14.644 2.502,0.357 z"
   id="path5391" /><path
   style="fill:#ffffff"
   d="m 68.068,97.629 47.572,-16.305 0.29,19.245 -47.194,16.423 c 0,0 -1.424,-2.819 -2.12,-10.029 -0.145,-6.314 1.452,-9.334 1.452,-9.334 z"
   id="path5393" /><g
   style="filter:url(#filter5365)"
   id="path5419">
		<polygon
   style="fill:#362d2d"
   id="polygon44"
   points="106.738,52.778 57.183,69.227 8.737,52.047 57.183,35.233 " />
		<polygon
   style="fill:none;stroke:#362d2d;stroke-width:1.2507;stroke-linejoin:bevel"
   id="polygon46"
   points="106.738,52.778 57.183,69.227 8.737,52.047 57.183,35.233 " />
	</g><g
   style="filter:url(#filter5365)"
   id="path5421">
		<path
   style="fill:#362d2d"
   id="path49"
   d="m 105.424,73.045 v 1.724 L 58.988,90.2 C 55.265,80.916 57.086,73.86 59.077,69.51 l 46.882,-15.518 -6.341,2.069 2.322,16.552 3.484,0.432 z" />
		<path
   style="fill:none;stroke:#362d2d;stroke-width:1.89999998"
   id="path51"
   d="m 105.424,73.045 v 1.724 L 58.988,90.2 C 55.265,80.916 57.086,73.86 59.077,69.51 l 46.882,-15.518 -6.341,2.069 2.322,16.552 3.484,0.432 z" />
	</g><g
   style="filter:url(#filter5365)"
   id="path5423">
		<path
   style="fill:#362d2d"
   id="path54"
   d="m 57.497,70.953 47.581,-15.744 0.289,18.582 -47.558,15.986 c 0,0 -1.515,-3.455 -1.942,-9.812 -0.146,-6.096 1.63,-9.012 1.63,-9.012 z" />
		<path
   style="fill:none;stroke:#362d2d;stroke-width:2.0999999"
   id="path56"
   d="m 57.497,70.953 47.581,-15.744 0.289,18.582 -47.558,15.986 c 0,0 -1.515,-3.455 -1.942,-9.812 -0.146,-6.096 1.63,-9.012 1.63,-9.012 z" />
	</g><g
   style="filter:url(#filter5365)"
   id="path5425">
		<path
   style="fill:#362d2d"
   id="path59"
   d="m 8.265,51.751 49.116,17.501 c -3.288,7.816 -2.385,15.201 0.982,23.018 L 8.354,76.062 C 4.759,66.431 3.899,60.017 8.265,51.751 z" />
		<path
   style="fill:none;stroke:#362d2d;stroke-width:1.60000002"
   id="path61"
   d="m 8.265,51.751 49.116,17.501 c -3.288,7.816 -2.385,15.201 0.982,23.018 L 8.354,76.062 C 4.759,66.431 3.899,60.017 8.265,51.751 z" />
	</g><g
   style="filter:url(#filter5365)"
   id="path5427">
		<path
   style="fill:#362d2d"
   id="path64"
   d="m 107.656,71.234 v 4.828 L 57.648,92.959 7.998,77.097 C 3.234,65.934 6.011,58.415 8.712,51.751 l 49.651,-16.725 48.58,17.242 v 3.448 l -2.144,1.035 0.357,14.139 2.5,0.344 z" />
		<path
   style="fill:none;stroke:#362d2d;stroke-width:2.70000005;stroke-linejoin:bevel"
   id="path66"
   d="m 107.656,71.234 v 4.828 L 57.648,92.959 7.998,77.097 C 3.234,65.934 6.011,58.415 8.712,51.751 l 49.651,-16.725 48.58,17.242 v 3.448 l -2.144,1.035 0.357,14.139 2.5,0.344 z" />
	</g><path
   style="fill:#60baff;stroke:#003244;stroke-width:1.2507;stroke-linejoin:bevel"
   d="M 6.102,50.193 54.54,32.779 104.088,50.95 54.54,67.985 6.102,50.193 z"
   id="path5431" /><path
   style="fill:none;stroke:#0056d5;stroke-width:2.81040001"
   d="m 102.768,71.76 v 1.803 L 56.35,89.701 c -3.721,-9.71 -1.901,-17.089 0.089,-21.639 l 46.865,-16.229 -6.338,2.164 2.321,17.312 3.481,0.451 z"
   id="path5433" /><path
   style="fill:url(#radialGradient3851);stroke:#003244;stroke-width:1.60000002"
   d="M 5.63,49.885 54.738,68.01 c -3.287,8.096 -2.385,15.744 0.982,23.84 L 5.72,75.065 C 2.125,65.09 1.265,58.447 5.63,49.885 z"
   id="path5435" /><path
   style="fill:none;stroke:#003244;stroke-width:2.70000005;stroke-linejoin:bevel"
   d="m 105.006,70.064 v 5 l -50,17.5 L 5.363,76.135 C 0.601,64.574 3.376,56.787 6.077,49.885 L 55.72,32.564 104.291,50.421 v 3.572 l -2.143,1.071 0.357,14.643 2.501,0.357 z"
   id="path5437" /><path
   style="fill:#ffffff"
   d="m 54.854,69.772 47.573,-16.306 0.29,19.245 -47.195,16.424 c 0,0 -1.425,-2.819 -2.121,-10.028 -0.145,-6.314 1.453,-9.335 1.453,-9.335 z"
   id="path5439" /><g
   style="filter:url(#filter5365)"
   id="path5447">
		<polygon
   style="fill:#362d2d"
   id="polygon79"
   points="123.882,28.85 74.326,45.299 25.88,28.119 74.326,11.305 " />
		<polygon
   style="fill:none;stroke:#362d2d;stroke-width:1.2507;stroke-linejoin:bevel"
   id="polygon81"
   points="123.882,28.85 74.326,45.299 25.88,28.119 74.326,11.305 " />
	</g><g
   style="filter:url(#filter5365)"
   id="path5449">
		<path
   style="fill:#362d2d"
   id="path84"
   d="M 122.567,49.116 V 50.84 L 76.131,66.271 c -3.723,-9.284 -1.902,-16.34 0.09,-20.69 l 46.883,-15.518 -6.341,2.069 2.321,16.552 3.483,0.432 z" />
		<path
   style="fill:none;stroke:#362d2d;stroke-width:1.89999998"
   id="path86"
   d="M 122.567,49.116 V 50.84 L 76.131,66.271 c -3.723,-9.284 -1.902,-16.34 0.09,-20.69 l 46.883,-15.518 -6.341,2.069 2.321,16.552 3.483,0.432 z" />
	</g><g
   style="filter:url(#filter5365)"
   id="path5451">
		<path
   style="fill:#362d2d"
   id="path89"
   d="m 74.641,47.024 47.58,-15.744 0.289,18.582 -47.559,15.987 c 0,0 -1.514,-3.455 -1.941,-9.812 -0.147,-6.097 1.631,-9.013 1.631,-9.013 z" />
		<path
   style="fill:none;stroke:#362d2d;stroke-width:2.0999999"
   id="path91"
   d="m 74.641,47.024 47.58,-15.744 0.289,18.582 -47.559,15.987 c 0,0 -1.514,-3.455 -1.941,-9.812 -0.147,-6.097 1.631,-9.013 1.631,-9.013 z" />
	</g><g
   style="filter:url(#filter5365)"
   id="path5453">
		<path
   style="fill:#362d2d"
   id="path94"
   d="m 25.408,27.822 49.115,17.5 c -3.287,7.816 -2.385,15.202 0.982,23.018 L 25.498,52.133 C 21.902,42.502 21.042,36.088 25.408,27.822 z" />
		<path
   style="fill:none;stroke:#362d2d;stroke-width:1.60000002"
   id="path96"
   d="m 25.408,27.822 49.115,17.5 c -3.287,7.816 -2.385,15.202 0.982,23.018 L 25.498,52.133 C 21.902,42.502 21.042,36.088 25.408,27.822 z" />
	</g><g
   style="filter:url(#filter5365)"
   id="path5455">
		<path
   style="fill:#362d2d"
   id="path99"
   d="m 124.8,47.306 v 4.828 L 74.791,69.03 25.14,53.168 C 20.377,42.005 23.153,34.486 25.854,27.822 l 49.651,-16.725 48.58,17.242 v 3.449 l -2.145,1.034 0.357,14.139 2.503,0.345 z" />
		<path
   style="fill:none;stroke:#362d2d;stroke-width:2.70000005;stroke-linejoin:bevel"
   id="path101"
   d="m 124.8,47.306 v 4.828 L 74.791,69.03 25.14,53.168 C 20.377,42.005 23.153,34.486 25.854,27.822 l 49.651,-16.725 48.58,17.242 v 3.449 l -2.145,1.034 0.357,14.139 2.503,0.345 z" />
	</g><path
   style="fill:#ff7272"
   d="M 23.245,26.264 71.684,8.85 121.231,27.021 71.684,44.057 23.245,26.264 z"
   id="path5459" /><path
   style="fill:none;stroke:#cf0505;stroke-width:1.89999998"
   d="m 119.916,48.01 v 1.786 L 73.488,65.778 C 69.765,56.162 71.586,48.855 73.577,44.349 l 46.875,-16.071 -6.339,2.143 2.32,17.143 3.483,0.446 z"
   id="path5461" /><path
   style="fill:url(#radialGradient3829);stroke:#600101;stroke-width:1.60000002"
   d="M 22.773,25.957 71.88,44.082 c -3.287,8.095 -2.385,15.744 0.982,23.839 l -50,-18.806 C 19.268,39.14 18.408,34.518 22.773,25.957 z"
   id="path5463" /><path
   style="fill:url(#linearGradient3826)"
   d="M 23.904,25.736 72.342,8.322 121.89,26.493 72.342,43.529 23.904,25.736 z"
   id="path3311" /><path
   style="fill:none;stroke:#600101;stroke-width:2.70000005;stroke-linejoin:bevel"
   d="m 122.148,46.135 v 5 l -50,17.5 -49.39,-18.701 C 17.996,38.372 20.519,32.858 23.219,25.957 l 49.644,-17.322 48.57,17.857 v 3.571 l -2.143,1.071 0.357,14.643 2.501,0.358 z"
   id="path5465" /><path
   style="fill:#ffffff"
   d="m 71.997,45.844 47.573,-16.306 0.289,19.246 -47.193,16.422 c 0,0 -1.426,-2.819 -2.121,-10.028 -0.146,-6.314 1.452,-9.334 1.452,-9.334 z"
   id="path5467" />
</svg>