<?xml version="1.0" encoding="iso-8859-1"?>
<!-- Generator: Adobe Illustrator 10.0, SVG Export Plug-In . SVG Version: 3.0.0 Build 43)  -->
<!DOCTYPE svg PUBLIC "-//W3C//DTD SVG 1.0//EN"    "http://www.w3.org/TR/2001/PR-SVG-20010719/DTD/svg10.dtd" [
	<!ENTITY ns_flows "http://ns.adobe.com/Flows/1.0/">
	<!ENTITY ns_svg "http://www.w3.org/2000/svg">
	<!ENTITY ns_xlink "http://www.w3.org/1999/xlink">
	<!ENTITY ns_extend "http://ns.adobe.com/Extensibility/1.0/">
	<!ENTITY ns_ai "http://ns.adobe.com/AdobeIllustrator/10.0/">
	<!ENTITY ns_graphs "http://ns.adobe.com/Graphs/1.0/">
	<!ENTITY ns_vars "http://ns.adobe.com/Variables/1.0/">
	<!ENTITY ns_imrep "http://ns.adobe.com/ImageReplacement/1.0/">
	<!ENTITY ns_sfw "http://ns.adobe.com/SaveForWeb/1.0/">
	<!ENTITY ns_custom "http://ns.adobe.com/GenericCustomNamespace/1.0/">
	<!ENTITY ns_adobe_xpath "http://ns.adobe.com/XPath/1.0/">
]>
<svg  xmlns:graph="" xmlns:xlink="&ns_xlink;" xmlns:x="&ns_extend;" xmlns:i="&ns_ai;"
	 xmlns="http://www.w3.org/2000/svg" xmlns:a="http://ns.adobe.com/AdobeSVGViewerExtensions/3.0/" width="26.775" height="30.394"
	 viewBox="0 0 26.775 30.394" overflow="visible" enable-background="new 0 0 26.775 30.394" xml:space="preserve">
	<metadata>
		<sfw>
			<slices></slices>
			<sliceSourceBounds  y="404.303" x="283.112" width="26.775" height="30.394" bottomLeftOrigin="true"></sliceSourceBounds>
		</sfw>
	</metadata>
	<g id="Layer_1" stroke="#000000">
		<g id="Layer_1_2_">
			<path stroke="none" d="M20.166,0.114l-4.085,0.533c0,0-5.088,10.489-6.907,14.241c-0.902-1.54-2.359-4.023-2.359-4.023
				l-5.388,0.704L0,17.734L7.02,29.7l1.147-0.163l4.061-0.46L24.361,3.901L23.67,3.107L21.033,0L20.166,0.114z"/>
			<path opacity="0.25" stroke="none" d="M24.632,25.877H7.02V29.7l19.755,0.694L24.632,25.877z"/>
			<path fill="#890101" stroke="none" d="M7.986,27.939L19.218,4.575l3.242-0.43L11.165,27.579L7.986,27.939z"/>
			
				<linearGradient id="XMLID_1_" gradientUnits="userSpaceOnUse" x1="-245.1855" y1="405.7505" x2="-242.8622" y2="409.3239" gradientTransform="matrix(1 0 0 -1 263.0303 411.9014)">
				<stop  offset="0" style="stop-color:#E6E6E6"/>
				<stop  offset="0.2673" style="stop-color:#ECC8C8"/>
				<stop  offset="0.8476" style="stop-color:#FB7B7A"/>
				<stop  offset="1" style="stop-color:#FF6665"/>
				
				
				
				
				
				
				
			</linearGradient>
			<path fill="url(#XMLID_1_)" stroke="none" d="M19.229,4.578l-2.08-2.449l3.225-0.42l2.08,2.449L19.229,4.578z"/>
			<g>
				
					<linearGradient id="XMLID_2_" gradientUnits="userSpaceOnUse" x1="-259.7856" y1="388.0103" x2="-255.5227" y2="396.3516" gradientTransform="matrix(1 0 0 -1 263.0303 411.9014)">
					<stop  offset="0" style="stop-color:#E6E6E6"/>
					<stop  offset="0.2673" style="stop-color:#ECC8C8"/>
					<stop  offset="0.8476" style="stop-color:#FB7B7A"/>
					<stop  offset="1" style="stop-color:#FF6665"/>
					
					
					
					
					
					
					
				</linearGradient>
				<path fill="url(#XMLID_2_)" stroke="none" d="M7.737,21.53l-5.169-8.634l3.735-0.428l4.658,8.642L7.737,21.53z"/>
			</g>
			<g>
				<path fill="#DD0000" stroke="none" d="M19.229,4.578L7.877,27.984L1.373,17.425l1.194-4.526l5.17,8.638l9.411-19.409
					L19.229,4.578z"/>
			</g>
		</g>
	</g>
</svg>
