<?xml version="1.0" encoding="UTF-8" standalone="no"?>
<svg
   xmlns:dc="http://purl.org/dc/elements/1.1/"
   xmlns:cc="http://creativecommons.org/ns#"
   xmlns:rdf="http://www.w3.org/1999/02/22-rdf-syntax-ns#"
   xmlns:svg="http://www.w3.org/2000/svg"
   xmlns="http://www.w3.org/2000/svg"
   xmlns:xlink="http://www.w3.org/1999/xlink"
   xmlns:sodipodi="http://sodipodi.sourceforge.net/DTD/sodipodi-0.dtd"
   xmlns:inkscape="http://www.inkscape.org/namespaces/inkscape"
   version="1.1"
   width="64"
   height="64"
   color-interpolation="linearRGB"
   id="svg2"
   inkscape:version="0.91 r13725"
   sodipodi:docname="chip-sensor.svg">
  <metadata
     id="metadata80">
    <rdf:RDF>
      <cc:Work
         rdf:about="">
        <dc:format>image/svg+xml</dc:format>
        <dc:type
           rdf:resource="http://purl.org/dc/dcmitype/StillImage" />
        <dc:title></dc:title>
      </cc:Work>
    </rdf:RDF>
  </metadata>
  <defs
     id="defs78">
    <radialGradient
       inkscape:collect="always"
       xlink:href="#linearGradient3807"
       id="radialGradient3813"
       cx="16.781393"
       cy="18.712614"
       fx="16.781393"
       fy="18.712614"
       r="7.96875"
       gradientUnits="userSpaceOnUse"
       gradientTransform="matrix(3.1344813,0,0,3.1344813,-26.07163,974.76466)" />
    <linearGradient
       id="linearGradient3807">
      <stop
         style="stop-color:white;stop-opacity:1;"
         offset="0"
         id="stop3809" />
      <stop
         style="stop-color:#eeeeec;stop-opacity:1;"
         offset="1"
         id="stop3811" />
    </linearGradient>
  </defs>
  <sodipodi:namedview
     pagecolor="#ffffff"
     bordercolor="#666666"
     borderopacity="1"
     objecttolerance="10"
     gridtolerance="10"
     guidetolerance="10"
     inkscape:pageopacity="0"
     inkscape:pageshadow="2"
     inkscape:window-width="770"
     inkscape:window-height="480"
     id="namedview76"
     showgrid="false"
     inkscape:zoom="3.6875"
     inkscape:cx="32"
     inkscape:cy="32"
     inkscape:window-x="578"
     inkscape:window-y="215"
     inkscape:window-maximized="0"
     inkscape:current-layer="svg2" />
  <g
     id="g4">
    <path
       style="fill:#010000; fill-opacity:0.4156"
       d="M28 56H32L34 58H40L42 56L38 54L37 39L28 56z"
       transform="matrix(0.9473,0,0,1,24.2105,-20)"
       id="path6" />
    <path
       style="fill:#010000; fill-opacity:0.4156"
       d="M28 56H32L34 58H40L42 56L38 54L37 39L28 56z"
       transform="matrix(0.9473,0,0,1,16.6315,-14)"
       id="path8" />
    <path
       style="fill:#010000; fill-opacity:0.4156"
       d="M28 56H32L34 58H40L42 56L38 54L37 39L28 56z"
       transform="matrix(0.9473,0,0,1,9.0526,-6)"
       id="path10" />
    <path
       style="fill:#010000; fill-opacity:0.4156"
       d="M28 56H32L34 58H40L42 56L38 54L37 39L28 56z"
       transform="matrix(0.9473,0,0,1,1.4736,0)"
       id="path12" />
    <path
       style="fill:none; stroke:#010000; stroke-width:4; stroke-linecap:round; stroke-linejoin:round"
       d="M34 10L2 35L28 46L58 18L49 15C48 16 45 16 43 15C41 14 40 13 41 12L34 10z            M2 41L28 54V46L2 35V41z            M28 54L58 24V18L28 46V54z"
       id="path14" />
    <path
       style="fill:#333333"
       d="M28 54L58 24V18L28 46V54z"
       id="path16" />
    <linearGradient
       id="gradient0"
       gradientUnits="userSpaceOnUse"
       x1="19.72"
       y1="22.9"
       x2="38.64"
       y2="38.79">
      <stop
         offset="0"
         stop-color="#747474"
         id="stop19" />
      <stop
         offset="1"
         stop-color="#3e3d3d"
         id="stop21" />
    </linearGradient>
    <path
       style="fill:url(#gradient0)"
       d="M2 41L28 54V46L2 35V41z"
       id="path23" />
    <linearGradient
       id="gradient1"
       gradientUnits="userSpaceOnUse"
       x1="9.31"
       y1="3.47"
       x2="45.35"
       y2="4.63">
      <stop
         offset="0"
         stop-color="#b0b0b0"
         id="stop26" />
      <stop
         offset="1"
         stop-color="#838383"
         id="stop28" />
    </linearGradient>
    <path
       style="fill:url(#gradient1)"
       d="M34 10L2 35L28 46L58 18L49 15C48 16 45 16 43 15C41 14 40 13 41 12L34 10z"
       id="path30" />
    <path
       style="fill:none; stroke:#010000; stroke-width:4; stroke-linecap:round; stroke-linejoin:round"
       d="M34 44L30 48C30 48 31 48.5 32 49C33 49.5 34 50.85 34 51.99C34 54.36 34.99 57 34.99 57L37 54.99C37 54.99 38 50.36 38 47.99C38 46.85 37 45.5 36 45C35 44.5 34 44 34 44z"
       transform="matrix(0.9444,0,0,0.9023,24.2236,-15.5054)"
       id="path32" />
    <linearGradient
       id="gradient2"
       gradientUnits="userSpaceOnUse"
       x1="44.86"
       y1="32.73"
       x2="50.72"
       y2="38.17">
      <stop
         offset="0"
         stop-color="#5a5a5a"
         id="stop35" />
      <stop
         offset="0.2234"
         stop-color="#dcdcdc"
         id="stop37" />
      <stop
         offset="1"
         stop-color="#7e7e7e"
         id="stop39" />
    </linearGradient>
    <path
       style="fill:url(#gradient2)"
       d="M34 44L30 48C30 48 31 48.5 32 49C33 49.5 34 50.85 34 51.99C34 54.36 34.99 57 34.99 57L37 54.99C37 54.99 38 50.36 38 47.99C38 46.85 37 45.5 36 45C35 44.5 34 44 34 44z"
       transform="matrix(0.9444,0,0,0.9023,24.2236,-15.5054)"
       id="path41" />
    <path
       style="fill:none; stroke:#010000; stroke-width:4; stroke-linecap:round; stroke-linejoin:round"
       d="M34 44L30 48C30 48 31 48.5 32 49C33 49.5 34 50.85 34 51.99C34 54.36 34.99 57 34.99 57L37 54.99C37 54.99 38 50.36 38 47.99C38 46.85 37 45.5 36 45C35 44.5 34 44 34 44z"
       transform="matrix(0.9444,0,0,0.9023,16.6683,-8.2866)"
       id="path43" />
    <linearGradient
       id="gradient3"
       gradientUnits="userSpaceOnUse"
       x1="44.86"
       y1="32.73"
       x2="50.72"
       y2="38.17">
      <stop
         offset="0"
         stop-color="#5a5a5a"
         id="stop46" />
      <stop
         offset="0.2234"
         stop-color="#dcdcdc"
         id="stop48" />
      <stop
         offset="1"
         stop-color="#7e7e7e"
         id="stop50" />
    </linearGradient>
    <path
       style="fill:url(#gradient3)"
       d="M34 44L30 48C30 48 31 48.5 32 49C33 49.5 34 50.85 34 51.99C34 54.36 34.99 57 34.99 57L37 54.99C37 54.99 38 50.36 38 47.99C38 46.85 37 45.5 36 45C35 44.5 34 44 34 44z"
       transform="matrix(0.9444,0,0,0.9023,16.6683,-8.2866)"
       id="path52" />
    <path
       style="fill:none; stroke:#010000; stroke-width:4; stroke-linecap:round; stroke-linejoin:round"
       d="M34 44L30 48C30 48 31 48.5 32 49C33 49.5 34 50.85 34 51.99C34 54.36 34.99 57 34.99 57L37 54.99C37 54.99 38 50.36 38 47.99C38 46.85 37 45.5 36 45C35 44.5 34 44 34 44z"
       transform="matrix(0.9444,0,0,0.9023,9.1131,-1.0678)"
       id="path54" />
    <linearGradient
       id="gradient4"
       gradientUnits="userSpaceOnUse"
       x1="44.86"
       y1="32.73"
       x2="50.72"
       y2="38.17">
      <stop
         offset="0"
         stop-color="#5a5a5a"
         id="stop57" />
      <stop
         offset="0.2234"
         stop-color="#dcdcdc"
         id="stop59" />
      <stop
         offset="1"
         stop-color="#7e7e7e"
         id="stop61" />
    </linearGradient>
    <path
       style="fill:url(#gradient4)"
       d="M34 44L30 48C30 48 31 48.5 32 49C33 49.5 34 50.85 34 51.99C34 54.36 34.99 57 34.99 57L37 54.99C37 54.99 38 50.36 38 47.99C38 46.85 37 45.5 36 45C35 44.5 34 44 34 44z"
       transform="matrix(0.9444,0,0,0.9023,9.1131,-1.0678)"
       id="path63" />
    <path
       style="fill:none; stroke:#010000; stroke-width:4; stroke-linecap:round; stroke-linejoin:round"
       d="M34 44L30 48C30 48 31 48.5 32 49C33 49.5 34 50.85 34 51.99C34 54.36 34.99 57 34.99 57L37 54.99C37 54.99 38 50.36 38 47.99C38 46.85 37 45.5 36 45C35 44.5 34 44 34 44z"
       transform="matrix(0.9444,0,0,0.9023,1.5578,6.1508)"
       id="path65" />
    <linearGradient
       id="gradient5"
       gradientUnits="userSpaceOnUse"
       x1="44.86"
       y1="32.73"
       x2="50.72"
       y2="38.17">
      <stop
         offset="0"
         stop-color="#5a5a5a"
         id="stop68" />
      <stop
         offset="0.2234"
         stop-color="#dcdcdc"
         id="stop70" />
      <stop
         offset="1"
         stop-color="#7e7e7e"
         id="stop72" />
    </linearGradient>
    <path
       style="fill:url(#gradient5)"
       d="M34 44L30 48C30 48 31 48.5 32 49C33 49.5 34 50.85 34 51.99C34 54.36 34.99 57 34.99 57L37 54.99C37 54.99 38 50.36 38 47.99C38 46.85 37 45.5 36 45C35 44.5 34 44 34 44z"
       transform="matrix(0.9444,0,0,0.9023,1.5578,6.1508)"
       id="path74" />
  </g>
  <g
     id="g5852"
     transform="matrix(1.171918,0,0,1.171918,-4.2616341,-1186.7134)">
    <circle
       id="path3797"
       style="color:#000000;display:inline;overflow:visible;visibility:visible;opacity:1;fill:url(#radialGradient3813);fill-opacity:1;fill-rule:nonzero;stroke:#000000;stroke-width:1.68621171;stroke-linecap:square;stroke-linejoin:miter;stroke-miterlimit:4;stroke-dasharray:none;stroke-dashoffset:0;stroke-opacity:1;marker:none;marker-start:none;marker-mid:none;marker-end:none"
       cx="24.000008"
       cy="1028.3605"
       r="13.489694" />
    <ellipse
       id="path2879"
       style="color:#000000;display:inline;overflow:visible;visibility:visible;opacity:0.47843137;fill:#2e3436;fill-opacity:1;fill-rule:nonzero;stroke:none;stroke-width:1;stroke-linecap:round;stroke-linejoin:miter;stroke-miterlimit:4;stroke-dasharray:none;stroke-dashoffset:0;stroke-opacity:1;marker:none;marker-start:none;marker-mid:none;marker-end:none"
       cx="30.744844"
       cy="1021.6237"
       rx="0.84310567"
       ry="0.85116601" />
    <g
       id="g2867"
       style="display:inline"
       transform="matrix(1.6862111,0,0,1.6862111,-2.1362749,1003.9103)">
      <ellipse
         style="color:#000000;display:inline;overflow:visible;visibility:visible;opacity:0.18431373;fill:#000000;fill-opacity:1;fill-rule:nonzero;stroke:none;stroke-width:1;stroke-linecap:round;stroke-linejoin:miter;stroke-miterlimit:4;stroke-dasharray:none;stroke-dashoffset:0;stroke-opacity:1;marker:none;marker-start:none;marker-mid:none;marker-end:none"
         id="path2863"
         transform="matrix(1.15,0,0,1.114329,1.972769,-1.664891)"
         cx="13.523417"
         cy="18.531826"
         rx="0.44194174"
         ry="0.45299029" />
      <ellipse
         style="color:#000000;display:inline;overflow:visible;visibility:visible;opacity:0.18431373;fill:#000000;fill-opacity:1;fill-rule:nonzero;stroke:none;stroke-width:1;stroke-linecap:round;stroke-linejoin:miter;stroke-miterlimit:4;stroke-dasharray:none;stroke-dashoffset:0;stroke-opacity:1;marker:none;marker-start:none;marker-mid:none;marker-end:none"
         id="path2865"
         transform="matrix(1.15,0,0,1.114329,-2.060163,-1.645771)"
         cx="13.523417"
         cy="18.531826"
         rx="0.44194174"
         ry="0.45299029" />
    </g>
    <path
       sodipodi:nodetypes="cccc"
       id="path3877"
       d="m 31.587946,1035.9482 -3.372421,-3.3724 c 1.68621,-1.6863 1.68621,-5.0586 1.646723,-10.1652 1.725698,1.7341 6.784332,8.4789 1.725698,13.5376 z"
       style="display:inline;opacity:1;fill:#cc0000;fill-opacity:1;fill-rule:evenodd;stroke:none;stroke-width:1.00000036px;stroke-linecap:round;stroke-linejoin:miter;stroke-opacity:1"
       inkscape:connector-curvature="0" />
    <path
       id="path3873"
       d="m 31.153981,1021.2063 -2.384663,2.3847"
       style="display:inline;opacity:0.1;fill:none;fill-opacity:0.75;fill-rule:evenodd;stroke:#000000;stroke-width:1.68621171px;stroke-linecap:round;stroke-linejoin:miter;stroke-opacity:1"
       inkscape:connector-curvature="0" />
    <path
       id="path3831"
       d="m 23.999996,1028.3603 9.274161,-5.9018 -5.901739,9.2742 -4.215527,0.8431 0.843105,-4.2155 z"
       style="display:inline;opacity:0.11764706;fill:#000000;fill-opacity:1;fill-rule:evenodd;stroke:none;stroke-width:1px;stroke-linecap:butt;stroke-linejoin:miter;stroke-opacity:1"
       inkscape:connector-curvature="0" />
    <path
       id="path3875"
       d="m 19.230664,1033.1295 -2.384662,2.3847"
       style="display:inline;opacity:0.1;fill:#babdb6;fill-opacity:0.75;fill-rule:evenodd;stroke:#000000;stroke-width:1.68621171px;stroke-linecap:round;stroke-linejoin:miter;stroke-opacity:1"
       inkscape:connector-curvature="0" />
    <circle
       id="path3815"
       style="color:#000000;display:inline;overflow:visible;visibility:visible;opacity:1;fill:none;fill-opacity:1;fill-rule:nonzero;stroke:#d3d7cf;stroke-width:1.68621051;stroke-linecap:square;stroke-linejoin:miter;stroke-miterlimit:4;stroke-dasharray:none;stroke-dashoffset:0;stroke-opacity:1;marker:none;marker-start:none;marker-mid:none;marker-end:none"
       cx="24.000004"
       cy="1028.3605"
       r="11.803486" />
    <g
       id="g3859"
       style="display:inline"
       transform="matrix(1.6862111,0,0,1.6862111,-2.1362749,1003.9103)">
      <path
         style="fill:#000000;fill-opacity:1;fill-rule:evenodd;stroke:none;stroke-width:1px;stroke-linecap:butt;stroke-linejoin:miter;stroke-opacity:1"
         d="M 14.5,13.5 20,10 16.5,15.5 14,16 14.5,13.5 Z"
         id="path3827"
         inkscape:connector-curvature="0" />
      <circle
         style="color:#000000;display:inline;overflow:visible;visibility:visible;opacity:1;fill:#eeeeec;fill-opacity:1;fill-rule:nonzero;stroke:none;stroke-width:1;stroke-linecap:square;stroke-linejoin:miter;stroke-miterlimit:4;stroke-dasharray:none;stroke-dashoffset:0;stroke-opacity:1;marker:none;marker-start:none;marker-mid:none;marker-end:none"
         id="path3829"
         cx="15.5"
         cy="14.5"
         r="0.5" />
    </g>
    <path
       id="path3865"
       d="m 23.999996,1018.2429 0,3.3725"
       style="display:inline;opacity:0.1;fill:none;fill-opacity:0.75;fill-rule:evenodd;stroke:#000000;stroke-width:1.68621111px;stroke-linecap:round;stroke-linejoin:miter;stroke-opacity:1"
       inkscape:connector-curvature="0" />
    <path
       id="path3871"
       d="m 17.255152,1028.3603 -3.372422,0"
       style="display:inline;opacity:0.1;fill:#babdb6;fill-opacity:0.75;fill-rule:evenodd;stroke:#000000;stroke-width:1.68621111px;stroke-linecap:round;stroke-linejoin:miter;stroke-opacity:1"
       inkscape:connector-curvature="0" />
    <path
       id="path3879"
       d="m 19.230664,1023.591 -2.384662,-2.3847"
       style="display:inline;opacity:0.1;fill:#babdb6;fill-opacity:0.75;fill-rule:evenodd;stroke:#000000;stroke-width:1.68621171px;stroke-linecap:round;stroke-linejoin:miter;stroke-opacity:1"
       inkscape:connector-curvature="0" />
    <ellipse
       id="path2859"
       style="color:#000000;display:inline;overflow:visible;visibility:visible;opacity:1;fill:#2e3436;fill-opacity:1;fill-rule:nonzero;stroke:none;stroke-width:1;stroke-linecap:round;stroke-linejoin:miter;stroke-miterlimit:4;stroke-dasharray:none;stroke-dashoffset:0;stroke-opacity:1;marker:none;marker-start:none;marker-mid:none;marker-end:none"
       cx="20.613693"
       cy="1035.1133"
       rx="0.85698813"
       ry="0.85116601" />
    <ellipse
       id="path2861"
       style="color:#000000;display:inline;overflow:visible;visibility:visible;opacity:1;fill:#2e3436;fill-opacity:1;fill-rule:nonzero;stroke:none;stroke-width:1;stroke-linecap:round;stroke-linejoin:miter;stroke-miterlimit:4;stroke-dasharray:none;stroke-dashoffset:0;stroke-opacity:1;marker:none;marker-start:none;marker-mid:none;marker-end:none"
       cx="27.386305"
       cy="1035.097"
       rx="0.85698813"
       ry="0.85116601" />
    <ellipse
       id="path2871"
       style="color:#000000;display:inline;overflow:visible;visibility:visible;opacity:0.47843137;fill:#2e3436;fill-opacity:1;fill-rule:nonzero;stroke:none;stroke-width:1;stroke-linecap:round;stroke-linejoin:miter;stroke-miterlimit:4;stroke-dasharray:none;stroke-dashoffset:0;stroke-opacity:1;marker:none;marker-start:none;marker-mid:none;marker-end:none"
       cx="17.269037"
       cy="1035.097"
       rx="0.85698813"
       ry="0.85116601" />
    <ellipse
       id="path2873"
       style="color:#000000;display:inline;overflow:visible;visibility:visible;opacity:0.47843137;fill:#2e3436;fill-opacity:1;fill-rule:nonzero;stroke:none;stroke-width:1;stroke-linecap:round;stroke-linejoin:miter;stroke-miterlimit:4;stroke-dasharray:none;stroke-dashoffset:0;stroke-opacity:1;marker:none;marker-start:none;marker-mid:none;marker-end:none"
       cx="13.868849"
       cy="1028.3685"
       rx="0.85698813"
       ry="0.85116601" />
    <ellipse
       id="path2875"
       style="color:#000000;display:inline;overflow:visible;visibility:visible;opacity:0.47843137;fill:#2e3436;fill-opacity:1;fill-rule:nonzero;stroke:none;stroke-width:1;stroke-linecap:round;stroke-linejoin:miter;stroke-miterlimit:4;stroke-dasharray:none;stroke-dashoffset:0;stroke-opacity:1;marker:none;marker-start:none;marker-mid:none;marker-end:none"
       cx="17.255159"
       cy="1021.6074"
       rx="0.84310567"
       ry="0.85116601" />
    <ellipse
       id="path2877"
       style="color:#000000;display:inline;overflow:visible;visibility:visible;opacity:0.47843137;fill:#2e3436;fill-opacity:1;fill-rule:nonzero;stroke:none;stroke-width:1;stroke-linecap:round;stroke-linejoin:miter;stroke-miterlimit:4;stroke-dasharray:none;stroke-dashoffset:0;stroke-opacity:1;marker:none;marker-start:none;marker-mid:none;marker-end:none"
       cx="23.986116"
       cy="1018.2512"
       rx="0.85698813"
       ry="0.85116601" />
    <ellipse
       id="path2881"
       style="color:#000000;display:inline;overflow:visible;visibility:visible;opacity:0.55294118;fill:#2e3436;fill-opacity:1;fill-rule:nonzero;stroke:none;stroke-width:1;stroke-linecap:round;stroke-linejoin:miter;stroke-miterlimit:4;stroke-dasharray:none;stroke-dashoffset:0;stroke-opacity:1;marker:none;marker-start:none;marker-mid:none;marker-end:none"
       cx="34.117268"
       cy="1028.3523"
       rx="0.84310567"
       ry="0.85116601" />
    <ellipse
       id="path2883"
       style="color:#000000;display:inline;overflow:visible;visibility:visible;opacity:0.55294118;fill:#2e3436;fill-opacity:1;fill-rule:nonzero;stroke:none;stroke-width:1;stroke-linecap:round;stroke-linejoin:miter;stroke-miterlimit:4;stroke-dasharray:none;stroke-dashoffset:0;stroke-opacity:1;marker:none;marker-start:none;marker-mid:none;marker-end:none"
       cx="30.744844"
       cy="1035.097"
       rx="0.84310567"
       ry="0.85116601" />
  </g>
</svg>
