<?xml version="1.0" encoding="UTF-8" standalone="no"?>
<!-- Generator: Adobe Illustrator 9.0, SVG Export Plug-In  -->

<svg
   xmlns:dc="http://purl.org/dc/elements/1.1/"
   xmlns:cc="http://creativecommons.org/ns#"
   xmlns:rdf="http://www.w3.org/1999/02/22-rdf-syntax-ns#"
   xmlns:svg="http://www.w3.org/2000/svg"
   xmlns="http://www.w3.org/2000/svg"
   xmlns:sodipodi="http://sodipodi.sourceforge.net/DTD/sodipodi-0.dtd"
   xmlns:inkscape="http://www.inkscape.org/namespaces/inkscape"
   width="24pt"
   height="24pt"
   viewBox="0 0 24 24"
   xml:space="preserve"
   id="svg2"
   version="1.1"
   inkscape:version="0.91 r13725"
   sodipodi:docname="close.svg"><metadata
     id="metadata22"><rdf:RDF><cc:Work
         rdf:about=""><dc:format>image/svg+xml</dc:format><dc:type
           rdf:resource="http://purl.org/dc/dcmitype/StillImage" /></cc:Work></rdf:RDF></metadata><defs
     id="defs20" /><sodipodi:namedview
     pagecolor="#ffffff"
     bordercolor="#666666"
     borderopacity="1"
     objecttolerance="10"
     gridtolerance="10"
     guidetolerance="10"
     inkscape:pageopacity="0"
     inkscape:pageshadow="2"
     inkscape:window-width="1918"
     inkscape:window-height="1020"
     id="namedview18"
     showgrid="false"
     inkscape:zoom="23.6"
     inkscape:cx="5.5720339"
     inkscape:cy="15"
     inkscape:window-x="2"
     inkscape:window-y="30"
     inkscape:window-maximized="1"
     inkscape:current-layer="svg2" /><g
     id="Layer_x0020_3"
     style="fill-rule:nonzero;clip-rule:nonzero;stroke:#000000;stroke-miterlimit:4;"><path
       style="fill-rule:evenodd;clip-rule:evenodd;stroke-width:2.8912;"
       d="M15.8,11.9L19.7,8c1.1-1.1,1.1-2.8,0-3.9c-1.1-1.1-2.8-1.1-3.9,0L11.9,8L8,4.1C6.9,3,5.1,3,4.1,4.1C3,5.2,3,7,4.1,8l3.9,3.9l-3.9,3.9c-1.1,1.1-1.1,2.8,0,3.9c1.1,1.1,2.8,1.1,3.9,0l3.9-3.9l3.9,3.9c1.1,1.1,2.8,1.1,3.9,0    c1.1-1.1,1.1-2.8,0-3.9l-3.9-3.9z"
       id="path5" /><radialGradient
       id="aigrd1"
       cx="3.1196"
       cy="0.8853"
       r="43.9955"
       fx="3.1196"
       fy="0.8853"
       gradientUnits="userSpaceOnUse"><stop
         offset="0"
         style="stop-color:#FED182"
         id="stop8" /><stop
         offset="0.2809"
         style="stop-color:#FFB310"
         id="stop10" /><stop
         offset="1"
         style="stop-color:#996E04"
         id="stop12" /></radialGradient><path
       style="fill-rule:evenodd;clip-rule:evenodd;fill:url(#aigrd1);stroke:none;"
       d="M15.8,11.9L19.7,8c1.1-1.1,1.1-2.8,0-3.9c-1.1-1.1-2.8-1.1-3.9,0L11.9,8L8,4.1C6.9,3,5.1,3,4.1,4.1C3,5.2,3,7,4.1,8l3.9,3.9l-3.9,3.9c-1.1,1.1-1.1,2.8,0,3.9c1.1,1.1,2.8,1.1,3.9,0l3.9-3.9l3.9,3.9c1.1,1.1,2.8,1.1,3.9,0    c1.1-1.1,1.1-2.8,0-3.9l-3.9-3.9z"
       id="path14" /><path
       style="fill:none;stroke:none;"
       d="M24,24H0V0h24v24z"
       id="path16" /></g></svg>