<?xml version="1.0" encoding="UTF-8" standalone="no"?>
<svg
   xmlns:dc="http://purl.org/dc/elements/1.1/"
   xmlns:cc="http://creativecommons.org/ns#"
   xmlns:rdf="http://www.w3.org/1999/02/22-rdf-syntax-ns#"
   xmlns:svg="http://www.w3.org/2000/svg"
   xmlns="http://www.w3.org/2000/svg"
   xmlns:sodipodi="http://sodipodi.sourceforge.net/DTD/sodipodi-0.dtd"
   xmlns:inkscape="http://www.inkscape.org/namespaces/inkscape"
   viewBox="0 0 256 256"
   id="svg2"
   version="1.1"
   inkscape:version="0.91 r13725"
   sodipodi:docname="cloud.svg"
   width="256"
   height="256">
  <metadata
     id="metadata10">
    <rdf:RDF>
      <cc:Work
         rdf:about="">
        <dc:format>image/svg+xml</dc:format>
        <dc:type
           rdf:resource="http://purl.org/dc/dcmitype/StillImage" />
        <dc:title></dc:title>
      </cc:Work>
    </rdf:RDF>
  </metadata>
  <defs
     id="defs8" />
  <sodipodi:namedview
     pagecolor="#ffffff"
     bordercolor="#666666"
     borderopacity="1"
     objecttolerance="10"
     gridtolerance="10"
     guidetolerance="10"
     inkscape:pageopacity="0"
     inkscape:pageshadow="2"
     inkscape:window-width="1087"
     inkscape:window-height="856"
     id="namedview6"
     showgrid="false"
     inkscape:zoom="1.1640074"
     inkscape:cx="147.2633"
     inkscape:cy="39.143468"
     inkscape:window-x="4"
     inkscape:window-y="75"
     inkscape:window-maximized="0"
     inkscape:current-layer="g7467"
     units="px" />
  <g
     id="g7467"
     transform="translate(0.4089493,-40.45779)">
    <path
       style="fill:#cbcbcb;fill-opacity:1;stroke:none;stroke-width:0.60000002;stroke-miterlimit:4;stroke-dasharray:none;stroke-opacity:1"
       d="m 157.3594,253.34743 c -6.82327,-1.44488 -12.98636,-4.41018 -18.45006,-8.88275 l -2.40063,-1.96373 -4.60278,2.3036 c -9.81523,4.91589 -18.72435,6.74663 -30.57373,6.28689 -12.79012,-0.49257 -24.73042,-4.42988 -33.199597,-10.93679 l -3.143337,-2.41525 -4.672976,1.5434 c -11.867691,3.92089 -24.509721,1.84058 -34.673611,-5.70894 -4.456199,-3.3101 -7.919134,-7.59385 -10.485057,-12.96783 -4.923035,-10.31122 -4.809804,-21.07889 0.331142,-31.49848 4.147108,-8.40496 11.693395,-14.86753 21.148124,-18.11195 4.298997,-1.47772 5.716083,-1.67475 12.002433,-1.6961 l 7.12793,0 0.945677,-2.92425 c 4.891665,-15.12531 16.819189,-26.07687 33.238648,-30.52153 6.614236,-1.79133 17.183414,-1.24786 26.334954,1.36279 1.07532,0.31196 1.59205,-0.31197 3.90227,-4.65155 14.8242,-27.86656 46.9588,-37.552208 73.3116,-22.09687 5.49593,3.22472 13.52598,11.11411 17.59163,17.28607 4.37257,6.63661 6.75308,12.66079 8.95367,22.65677 0.26024,1.18217 0.80175,1.65012 2.24039,1.93745 13.2227,2.64184 24.3157,12.31436 29.29459,25.54162 4.67134,12.41122 4.0999,26.78454 -1.50991,37.9791 -5.39656,10.76932 -12.87163,17.40593 -23.84471,21.17412 -2.46105,0.8538 -4.77569,1.08367 -9.92149,1.05083 -5.84416,0 -7.27002,-0.24629 -11.03225,-1.66326 -3.84655,-1.44488 -4.37774,-1.51056 -4.84069,-0.6896 -0.98187,1.7552 -5.17413,6.30659 -8.141,8.83842 -3.65502,3.11964 -9.38944,6.16374 -14.79657,7.85492 -5.19374,1.62549 -14.74317,2.0606 -20.13474,0.91947 z"
       id="path7465"
       inkscape:connector-curvature="0"
       sodipodi:nodetypes="cscssscsssssccsscssscssssssssscc" />
    <path
       sodipodi:nodetypes="cscssscsssssccsscssscssssssssscc"
       inkscape:connector-curvature="0"
       id="path12728"
       d="m 148.13146,234.86112 c -6.68231,-1.41204 -12.71807,-4.31987 -18.0689,-8.69886 l -2.35103,-1.92432 -4.50769,2.25599 c -9.61245,4.81409 -18.33751,6.60706 -29.942092,6.15718 -12.525883,-0.49258 -24.219502,-4.33794 -32.51371,-10.71185 l -3.078398,-2.36436 -4.576434,1.51056 c -11.622511,3.84044 -24.003363,1.80283 -33.957272,-5.59071 -4.364135,-3.24114 -7.75553,-7.43623 -10.2684402,-12.69856 -4.8213234,-10.09942 -4.7104301,-20.64543 0.3243059,-30.84828 4.0614293,-8.23092 11.4518143,-14.56049 20.7112133,-17.7376 4.210181,-1.44488 5.597992,-1.64191 11.754468,-1.66161 l 6.980672,0 0.926138,-2.8635 c 4.790607,-14.81171 16.471714,-25.53833 32.551955,-29.89104 6.47759,-1.75357 16.828417,-1.21502 25.790884,1.34637 1.05311,0.29554 1.55916,-0.29555 3.82165,-4.55631 14.51794,-27.290254 45.98869,-36.77559 71.79706,-21.638786 5.38238,3.1574 13.24652,10.884246 17.22819,16.928136 4.28223,6.50033 6.61357,12.39973 8.76869,22.18882 0.25483,1.16576 0.78517,1.60907 2.19411,1.89805 12.94951,2.58766 23.81333,12.05986 28.68937,25.01292 4.57484,12.15508 4.01521,26.23121 -1.4787,37.19427 -5.28506,10.54601 -12.60571,17.04799 -23.35209,20.73737 -2.4102,0.82096 -4.67702,1.06725 -9.71652,1.03441 -5.72343,0 -7.11981,-0.24629 -10.80433,-1.6255 -3.76708,-1.41204 -4.28729,-1.49414 -4.74068,-0.67318 -0.96151,1.71908 -5.06723,6.17688 -7.97281,8.65617 -3.5795,3.0556 -9.19546,6.03732 -14.49087,7.69237 -5.08644,1.59265 -14.43859,2.01791 -19.71881,0.90305 z"
       style="fill:#fdffff;fill-opacity:1;stroke:#000000;stroke-width:9.85148335;stroke-miterlimit:4;stroke-dasharray:none;stroke-opacity:1" />
  </g>
</svg>
