<?xml version="1.0" encoding="UTF-8" standalone="no"?>
<svg
   xmlns:dc="http://purl.org/dc/elements/1.1/"
   xmlns:cc="http://creativecommons.org/ns#"
   xmlns:rdf="http://www.w3.org/1999/02/22-rdf-syntax-ns#"
   xmlns:svg="http://www.w3.org/2000/svg"
   xmlns="http://www.w3.org/2000/svg"
   xmlns:sodipodi="http://sodipodi.sourceforge.net/DTD/sodipodi-0.dtd"
   xmlns:inkscape="http://www.inkscape.org/namespaces/inkscape"
   version="1.1"
   width="64"
   height="64"
   color-interpolation="linearRGB"
   id="svg2"
   sodipodi:version="0.32"
   inkscape:version="0.46"
   sodipodi:docname="deluge.svg"
   inkscape:output_extension="org.inkscape.output.svg.inkscape">
  <metadata
     id="metadata86">
    <rdf:RDF>
      <cc:Work
         rdf:about="">
        <dc:format>image/svg+xml</dc:format>
        <dc:type
           rdf:resource="http://purl.org/dc/dcmitype/StillImage" />
      </cc:Work>
    </rdf:RDF>
  </metadata>
  <defs
     id="defs84">
    <inkscape:perspective
       sodipodi:type="inkscape:persp3d"
       inkscape:vp_x="0 : 32 : 1"
       inkscape:vp_y="0 : 1000 : 0"
       inkscape:vp_z="64 : 32 : 1"
       inkscape:persp3d-origin="32 : 21.333333 : 1"
       id="perspective88" />
  </defs>
  <sodipodi:namedview
     inkscape:window-height="668"
     inkscape:window-width="640"
     inkscape:pageshadow="2"
     inkscape:pageopacity="0.0"
     guidetolerance="10.0"
     gridtolerance="10.0"
     objecttolerance="10.0"
     borderopacity="1.0"
     bordercolor="#666666"
     pagecolor="#ffffff"
     id="base"
     showgrid="false"
     inkscape:zoom="7.25"
     inkscape:cx="32"
     inkscape:cy="32"
     inkscape:window-x="193"
     inkscape:window-y="109"
     inkscape:current-layer="svg2" />
  <g
     id="g4"
     transform="matrix(1.2134647,0,0,1.2134647,1.7931035,-15.152709)">
    <path
       style="fill:#010101;fill-opacity:0.45489999"
       d="M 20,60 L 28,60 L 32,53 L 25,52 L 20,60 z"
       transform="translate(18,-16)"
       id="path6" />
    <path
       style="fill:none;stroke:#000000;stroke-width:4"
       d="M 2,37 L 2,49 L 20,58 L 24,54 L 24,40 L 8,36 L 2,37 z"
       transform="translate(18,-16)"
       id="path8" />
    <linearGradient
       id="gradient0"
       gradientUnits="userSpaceOnUse"
       x1="-21.43"
       y1="11.43"
       x2="6.4899998"
       y2="-10.37">
      <stop
         offset="0"
         stop-color="#ffec4b"
         id="stop11" />
      <stop
         offset="1"
         stop-color="#f0a506"
         id="stop13" />
    </linearGradient>
    <path
       style="fill:url(#gradient0)"
       d="M 2,37 L 2,49 L 20,58 L 20,43 L 2,37 z"
       transform="translate(18,-16)"
       id="path15" />
    <linearGradient
       id="gradient1"
       gradientUnits="userSpaceOnUse"
       x1="16.65"
       y1="4.77"
       x2="40.169998"
       y2="5.3800001">
      <stop
         offset="0"
         stop-color="#ffffff"
         id="stop18" />
      <stop
         offset="1"
         stop-color="#fff289"
         id="stop20" />
    </linearGradient>
    <path
       style="fill:url(#gradient1)"
       d="M 2,37 L 20,43 L 24,40 L 9,36 L 2,37 z"
       transform="translate(18,-16)"
       id="path22" />
    <linearGradient
       id="gradient2"
       gradientUnits="userSpaceOnUse"
       x1="52.490002"
       y1="12.11"
       x2="62.450001"
       y2="19.75">
      <stop
         offset="0"
         stop-color="#f99b05"
         id="stop25" />
      <stop
         offset="1"
         stop-color="#fcb23d"
         id="stop27" />
    </linearGradient>
    <path
       style="fill:url(#gradient2)"
       d="M 20,43 L 20,58 L 24,54 L 24,40 L 20,43 z"
       transform="translate(18,-16)"
       id="path29" />
    <path
       style="fill:#010101;fill-opacity:0.45489999"
       d="M 20,60 L 28,60 L 32,53 L 25,52 L 20,60 z"
       id="path31" />
    <path
       style="fill:none;stroke:#000000;stroke-width:4"
       d="M 2,37 L 2,49 L 20,58 L 24,54 L 24,40 L 8,36 L 2,37 z"
       id="path33" />
    <linearGradient
       id="gradient3"
       gradientUnits="userSpaceOnUse"
       x1="-21.43"
       y1="11.43"
       x2="6.4899998"
       y2="-10.37">
      <stop
         offset="0"
         stop-color="#ffec4b"
         id="stop36" />
      <stop
         offset="1"
         stop-color="#f0a506"
         id="stop38" />
    </linearGradient>
    <path
       style="fill:url(#gradient3)"
       d="M 2,37 L 2,49 L 20,58 L 20,43 L 2,37 z"
       id="path40" />
    <linearGradient
       id="gradient4"
       gradientUnits="userSpaceOnUse"
       x1="16.65"
       y1="4.77"
       x2="40.169998"
       y2="5.3800001">
      <stop
         offset="0"
         stop-color="#ffffff"
         id="stop43" />
      <stop
         offset="1"
         stop-color="#fff289"
         id="stop45" />
    </linearGradient>
    <path
       style="fill:url(#gradient4)"
       d="M 2,37 L 20,43 L 24,40 L 9,36 L 2,37 z"
       id="path47" />
    <linearGradient
       id="gradient5"
       gradientUnits="userSpaceOnUse"
       x1="52.490002"
       y1="12.11"
       x2="62.450001"
       y2="19.75">
      <stop
         offset="0"
         stop-color="#f99b05"
         id="stop50" />
      <stop
         offset="1"
         stop-color="#fcb23d"
         id="stop52" />
    </linearGradient>
    <path
       style="fill:url(#gradient5)"
       d="M 20,43 L 20,58 L 24,54 L 24,40 L 20,43 z"
       id="path54" />
    <linearGradient
       id="gradient6"
       gradientUnits="userSpaceOnUse"
       x1="78.019997"
       y1="9.9799995"
       x2="40.73"
       y2="37.959999">
      <stop
         offset="0"
         stop-color="#626262"
         id="stop57" />
      <stop
         offset="0.4933"
         stop-color="#b8b3b3"
         id="stop59" />
      <stop
         offset="1"
         stop-color="#595959"
         id="stop61" />
    </linearGradient>
    <path
       style="fill:url(#gradient6)"
       d="M 41.92,38 L 18,10 L 16,10 L 24,21 L 41.92,38 z"
       transform="matrix(-1.61e-2,-0.5702,0.7282,-2.06e-2,-2.3804,42.9129)"
       id="path63" />
    <linearGradient
       id="gradient7"
       gradientUnits="userSpaceOnUse"
       x1="78.019997"
       y1="9.9799995"
       x2="40.73"
       y2="37.959999">
      <stop
         offset="0"
         stop-color="#626262"
         id="stop66" />
      <stop
         offset="0.4933"
         stop-color="#b8b3b3"
         id="stop68" />
      <stop
         offset="1"
         stop-color="#595959"
         id="stop70" />
    </linearGradient>
    <path
       style="fill:url(#gradient7)"
       d="M 41.92,38 L 18,10 L 16,10 L 24,21 L 41.92,38 z"
       transform="matrix(-1.61e-2,-0.5702,0.7282,-2.06e-2,17.6195,48.9129)"
       id="path72" />
    <linearGradient
       id="gradient8"
       gradientUnits="userSpaceOnUse"
       x1="78.019997"
       y1="9.9799995"
       x2="40.73"
       y2="37.959999">
      <stop
         offset="0"
         stop-color="#626262"
         id="stop75" />
      <stop
         offset="0.4933"
         stop-color="#b8b3b3"
         id="stop77" />
      <stop
         offset="1"
         stop-color="#595959"
         id="stop79" />
    </linearGradient>
    <path
       style="fill:url(#gradient8)"
       d="M 41.92,38 L 18,10 L 16,10 L 24,21 L 41.92,38 z"
       transform="matrix(-1.61e-2,-0.5702,0.7282,-2.06e-2,18.6195,62.9129)"
       id="path81" />
  </g>
</svg>
