<?xml version="1.0" encoding="UTF-8" standalone="no"?>
<svg
   xmlns:dc="http://purl.org/dc/elements/1.1/"
   xmlns:cc="http://creativecommons.org/ns#"
   xmlns:rdf="http://www.w3.org/1999/02/22-rdf-syntax-ns#"
   xmlns:svg="http://www.w3.org/2000/svg"
   xmlns="http://www.w3.org/2000/svg"
   xmlns:sodipodi="http://sodipodi.sourceforge.net/DTD/sodipodi-0.dtd"
   xmlns:inkscape="http://www.inkscape.org/namespaces/inkscape"
   version="1.1"
   width="64"
   height="64"
   color-interpolation="linearRGB"
   id="svg2"
   inkscape:version="0.91 r13725"
   sodipodi:docname="dialog-close.svg">
  <metadata
     id="metadata47">
    <rdf:RDF>
      <cc:Work
         rdf:about="">
        <dc:format>image/svg+xml</dc:format>
        <dc:type
           rdf:resource="http://purl.org/dc/dcmitype/StillImage" />
        <dc:title></dc:title>
      </cc:Work>
    </rdf:RDF>
  </metadata>
  <defs
     id="defs45">
    <radialGradient
       gradientTransform="matrix(0.4391,0.2625,-0.1589,0.2658,13.6466,37.066)"
       r="64"
       cy="0"
       cx="0"
       gradientUnits="userSpaceOnUse"
       id="gradient0">
      <stop
         id="stop9"
         stop-color="#ffffff"
         offset="0" />
      <stop
         id="stop11"
         stop-color="#f2f2f2"
         offset="0.7064" />
      <stop
         id="stop13"
         stop-color="#bfbfbf"
         offset="1" />
    </radialGradient>
    <radialGradient
       gradientTransform="matrix(0.4391,0.2625,-0.1589,0.2658,13.6466,37.066)"
       r="64"
       cy="0"
       cx="0"
       gradientUnits="userSpaceOnUse"
       id="gradient1">
      <stop
         id="stop18"
         stop-color="#ffffff"
         offset="0" />
      <stop
         id="stop20"
         stop-color="#bfbfbf"
         offset="1" />
    </radialGradient>
    <radialGradient
       gradientTransform="matrix(0.407,0.2903,-0.2101,0.2946,34.2611,11.6781)"
       r="64"
       cy="0"
       cx="0"
       gradientUnits="userSpaceOnUse"
       id="gradient2">
      <stop
         id="stop31"
         stop-color="#ffffff"
         offset="0" />
      <stop
         id="stop33"
         stop-color="#f2f2f2"
         offset="0.7064" />
      <stop
         id="stop35"
         stop-color="#bfbfbf"
         offset="1" />
    </radialGradient>
  </defs>
  <sodipodi:namedview
     pagecolor="#ffffff"
     bordercolor="#666666"
     borderopacity="1"
     objecttolerance="10"
     gridtolerance="10"
     guidetolerance="10"
     inkscape:pageopacity="0"
     inkscape:pageshadow="2"
     inkscape:window-width="1366"
     inkscape:window-height="704"
     id="namedview43"
     showgrid="false"
     inkscape:zoom="6.921875"
     inkscape:cx="32"
     inkscape:cy="32"
     inkscape:window-x="0"
     inkscape:window-y="30"
     inkscape:window-maximized="1"
     inkscape:current-layer="svg2" />
  <g
     id="g7579">
    <path
       style="fill:none;stroke:#000000;stroke-width:4"
       d="M 54,37 C 58.2,34.87 62,32 62,26 62,18.33 57,11 50,7 42,2 30,1 23,6 c -5.22,3.72 -6,10 -4,15 3,9 14,15 23,17 3,1 6.54,0.85 9,0 2,5 5,9 9.25,10.2 C 58,47 55.2,41.87 54,37 Z"
       id="path28"
       inkscape:connector-curvature="0" />
    <path
       style="fill:url(#gradient2)"
       d="M 54,37 C 58.2,34.87 62,32 62,26 62,18.33 57,11 50,7 42,2 30,1 23,6 c -5.22,3.72 -6,10 -4,15 3,9 14,15 23,17 3,1 6.54,0.85 9,0 2,5 5,9 9.25,10.2 C 58,47 55.2,41.87 54,37 Z"
       id="path37"
       inkscape:connector-curvature="0" />
    <path
       style="fill:none;stroke:#010101;stroke-width:2;stroke-linecap:square"
       d="m 22,21 c 0,0 3.24,4.54 9,8 5,3 13,5 13,5"
       id="path39"
       inkscape:connector-curvature="0" />
    <path
       style="fill:none;stroke:#010101;stroke-width:1.93786192;stroke-linecap:square"
       d="m 22.8667,16.4188 c 0,0 3.197306,4.416942 8.7214,7.6614 4.7951,2.8129 12.3701,4.5155 12.3701,4.5155"
       id="path41"
       inkscape:connector-curvature="0" />
  </g>
  <g
     style="color-interpolation:linearRGB"
     id="g7540"
     transform="matrix(0.72910509,0,0,0.72910509,-7.345154,23.733723)">
    <g
       id="g7503">
      <path
         id="path7505"
         d="m 14,44 8,2 7.39,-4.75 L 34,50 42,52 48,46 40,31 50.37,19.75 42,17.37 35,21 32,14 24,12 14,14 24,32 14,44 Z"
         style="fill:none;stroke:#010101;stroke-width:4"
         inkscape:connector-curvature="0" />
      <linearGradient
         y2="12.34"
         x2="95.370003"
         y1="-20.700001"
         x1="70.139999"
         gradientUnits="userSpaceOnUse"
         id="gradient0-3">
        <stop
           id="stop7508"
           stop-color="#c80505"
           offset="0" />
        <stop
           id="stop7510"
           stop-color="#9d0404"
           offset="0.4904" />
        <stop
           id="stop7512"
           stop-color="#b40404"
           offset="1" />
      </linearGradient>
      <path
         id="path7514"
         d="m 22,17 6,11 4,7 10,17 6,-6 -16,-32 -10,3 z"
         style="fill:url(#gradient0-3)"
         inkscape:connector-curvature="0" />
      <path
         id="path7516"
         d="M 40,31 50.37,19.75 42,24 32,35 40,31 Z m -18,15 8,-6 -2,-1 -6,7 z"
         style="fill:#750303"
         inkscape:connector-curvature="0" />
      <linearGradient
         y2="22.549999"
         x2="102.64"
         y1="-7.1199999"
         x1="89.68"
         gradientUnits="userSpaceOnUse"
         id="gradient1-6">
        <stop
           id="stop7519"
           stop-color="#ff3e3e"
           offset="0" />
        <stop
           id="stop7521"
           stop-color="#f70606"
           offset="1" />
      </linearGradient>
      <path
         id="path7523"
         d="m 14,44 8,2 6,-7 6,11 8,2 L 32,35 42,24 34,21 28,27.87 22,17 14,14 24,32 14,44 Z"
         style="fill:url(#gradient1-6)"
         inkscape:connector-curvature="0" />
      <linearGradient
         y2="3.46"
         x2="71.470001"
         y1="-23.17"
         x1="47.25"
         gradientUnits="userSpaceOnUse"
         id="gradient2-7">
        <stop
           id="stop7526"
           stop-color="#ff9090"
           offset="0" />
        <stop
           id="stop7528"
           stop-color="#ff7575"
           offset="1" />
      </linearGradient>
      <path
         id="path7530"
         d="m 34,21 8,3 8.37,-4.25 L 42,17.37 34,21 Z m -20,-7 8,3 10,-3 -8,-2 -10,2 z"
         style="fill:url(#gradient2-7)"
         inkscape:connector-curvature="0" />
      <path
         id="path7532"
         d="m 15,14.12 9.5,-1.5 M 28,28 34,22 42,17.75 M 24.25,32.5 14.62,43.87"
         style="fill:none;stroke:#ffffff;stroke-width:1;stroke-opacity:0.26660001"
         inkscape:connector-curvature="0" />
    </g>
  </g>
</svg>
