<?xml version="1.0" encoding="UTF-8" standalone="no"?>
<svg
   xmlns:dc="http://purl.org/dc/elements/1.1/"
   xmlns:cc="http://creativecommons.org/ns#"
   xmlns:rdf="http://www.w3.org/1999/02/22-rdf-syntax-ns#"
   xmlns:svg="http://www.w3.org/2000/svg"
   xmlns="http://www.w3.org/2000/svg"
   xmlns:sodipodi="http://sodipodi.sourceforge.net/DTD/sodipodi-0.dtd"
   xmlns:inkscape="http://www.inkscape.org/namespaces/inkscape"
   version="1.1"
   width="64"
   height="64"
   color-interpolation="linearRGB"
   id="svg2"
   inkscape:version="0.91 r13725"
   sodipodi:docname="dictionary.svg">
  <metadata
     id="metadata70">
    <rdf:RDF>
      <cc:Work
         rdf:about="">
        <dc:format>image/svg+xml</dc:format>
        <dc:type
           rdf:resource="http://purl.org/dc/dcmitype/StillImage" />
        <dc:title />
      </cc:Work>
    </rdf:RDF>
  </metadata>
  <defs
     id="defs68" />
  <sodipodi:namedview
     pagecolor="#ffffff"
     bordercolor="#666666"
     borderopacity="1"
     objecttolerance="10"
     gridtolerance="10"
     guidetolerance="10"
     inkscape:pageopacity="0"
     inkscape:pageshadow="2"
     inkscape:window-width="1241"
     inkscape:window-height="734"
     id="namedview66"
     showgrid="false"
     inkscape:zoom="7.390625"
     inkscape:cx="32"
     inkscape:cy="32"
     inkscape:window-x="661"
     inkscape:window-y="299"
     inkscape:window-maximized="0"
     inkscape:current-layer="svg2" />
  <g
     id="g4"
     transform="translate(0.13530655,-4.7357294)">
    <path
       style="fill:#010000;fill-opacity:0.4196"
       d="m 32,64 4,0 12,-12 4,4 2,0 4,-4 -4,-4 0,-2 12,-12 -4,-2 -30,0 0,32 z"
       id="path6"
       inkscape:connector-curvature="0" />
    <path
       style="fill:none;stroke:#010000;stroke-width:4"
       d="M 4,43 4,48 32,62 60,34 60,29 32,16 4,43 Z m 28,9 C 36,50 40,42 46,42 L 18,28 C 12,28 8,36 4,38 L 32,52 Z M 18,28 C 18,14 28,14 28,8 l 28,14 c 0,6 -10,6 -10,20 L 18,28 Z"
       id="path8"
       inkscape:connector-curvature="0" />
    <linearGradient
       id="gradient0"
       gradientUnits="userSpaceOnUse"
       x1="-2.99"
       y1="75.879997"
       x2="24.129999"
       y2="17.110001">
      <stop
         offset="0"
         stop-color="#7d7d7d"
         id="stop11" />
      <stop
         offset="1"
         stop-color="#bbbbbb"
         id="stop13" />
    </linearGradient>
    <path
       style="fill:url(#gradient0)"
       d="m 60,29 0,5 -28,28 0,-6 C 37,51 41,43 46,42.5 48,38 57,32 60,29 Z"
       id="path15"
       inkscape:connector-curvature="0" />
    <linearGradient
       id="gradient1"
       gradientUnits="userSpaceOnUse"
       x1="15.2"
       y1="83.589996"
       x2="-3.99"
       y2="58">
      <stop
         offset="0"
         stop-color="#d8d8d8"
         id="stop18" />
      <stop
         offset="1"
         stop-color="#ececec"
         id="stop20" />
    </linearGradient>
    <path
       style="fill:url(#gradient1)"
       d="M 32,62 4,48 l 0,-5 28,13 0,6 z"
       id="path22"
       inkscape:connector-curvature="0" />
    <linearGradient
       id="gradient2"
       gradientUnits="userSpaceOnUse"
       x1="24.309999"
       y1="52.470001"
       x2="39.68"
       y2="19.52">
      <stop
         offset="0.0055"
         stop-color="#fafafa"
         id="stop25" />
      <stop
         offset="0.1098"
         stop-color="#8c8c8c"
         id="stop27" />
      <stop
         offset="0.4772"
         stop-color="#343434"
         id="stop29" />
      <stop
         offset="1"
         stop-color="#c2c2c2"
         id="stop31" />
    </linearGradient>
    <path
       style="fill:url(#gradient2)"
       d="M 4,43 32,56 C 37,51 41,43 46,42.5 48,38 57,32 60,29 L 32,16 4,43 Z"
       id="path33"
       inkscape:connector-curvature="0" />
    <linearGradient
       id="gradient3"
       gradientUnits="userSpaceOnUse"
       x1="33.700001"
       y1="32.259998"
       x2="40.799999"
       y2="17.030001">
      <stop
         offset="0"
         stop-color="#b6b6b6"
         id="stop36" />
      <stop
         offset="0.5189"
         stop-color="#fafafa"
         id="stop38" />
      <stop
         offset="1"
         stop-color="#d2d2d2"
         id="stop40" />
    </linearGradient>
    <path
       style="fill:url(#gradient3)"
       d="M 18,28 C 18,14 28,14 28,8 l 28,14 c 0,6 -10,6 -10,20 L 18,28 Z"
       id="path42"
       inkscape:connector-curvature="0" />
    <linearGradient
       id="gradient4"
       gradientUnits="userSpaceOnUse"
       x1="21.790001"
       y1="46.41"
       x2="28.690001"
       y2="32.619999">
      <stop
         offset="0.0055"
         stop-color="#cccccc"
         id="stop45" />
      <stop
         offset="0.8539"
         stop-color="#fafafa"
         id="stop47" />
      <stop
         offset="1"
         stop-color="#c8c8c8"
         id="stop49" />
    </linearGradient>
    <path
       style="fill:url(#gradient4)"
       d="M 32,52 C 36,50 40,42 46,42 L 18,28 C 12,28 8,36 4,38 l 28,14 z"
       id="path51"
       inkscape:connector-curvature="0" />
    <path
       style="fill:#010000"
       d="M 22,55.5 32,61 38,54.5 32,60 22,55.5 Z m 5,0 5,3.5 3.5,-4.5 -3.5,3 -5,-2 z M 4,47 8,48.5 4,46 4,47 Z m 0,-2 7,3 -7,-4 0,1 z m 56,-11 -5.5,4.5 5.5,-6 0,1.5 z m 0,-2 -3.5,3 3.5,-4 0,1 z"
       id="path53"
       inkscape:connector-curvature="0" />
    <path
       style="fill:none;stroke:#010000;stroke-width:4;stroke-linecap:round;stroke-linejoin:round"
       d="m 18,28 0,-4 c 4,2.05 22.68,10.84 27,13 4,2 4,4 5,7 1,3 2.42,5.91 5,7 l -3,0 0,3 C 50,53 48,50 47,48 46,46 46.8,42.71 44.9,41.36 L 18,28 Z"
       id="path55"
       inkscape:connector-curvature="0" />
    <linearGradient
       id="gradient5"
       gradientUnits="userSpaceOnUse"
       x1="41.700001"
       y1="19.32"
       x2="64.870003"
       y2="42.5">
      <stop
         offset="0"
         stop-color="#ff0606"
         id="stop58" />
      <stop
         offset="1"
         stop-color="#7e0303"
         id="stop60" />
      <stop
         offset="0.5"
         stop-color="#ff7575"
         id="stop62" />
    </linearGradient>
    <path
       style="fill:url(#gradient5)"
       d="m 18,28 0,-4 c 4,2.05 22.68,10.84 27,13 4,2 4,4 5,7 1,3 2.42,5.91 5,7 l -3,0 0,3 C 50,53 48,50 47,48 46,46 46.8,42.71 44.9,41.36 L 18,28 Z"
       id="path64"
       inkscape:connector-curvature="0" />
  </g>
  <g
     style="overflow:visible"
     id="g7532"
     transform="matrix(0.80431263,0,0,0.80431263,-0.24579512,25.411385)">
    <g
       id="Layer_1"
       style="stroke:#000000">
      <g
         id="Layer_1_2_">
        <path
           id="path157"
           d="M 18.455,0.623 11.037,7.494 0,35.4 9.541,39.291 c 0,0 3.617,-3.35 4.593,-4.254 1.209,0.485 5.177,2.077 6.143,2.465 0.312,1.111 1.958,6.965 1.958,6.965 l 9.07,3.698 8.508,-7.882 L 28.966,4.012 19.127,0 18.455,0.623 Z"
           inkscape:connector-curvature="0"
           style="stroke:none" />
        <linearGradient
           gradientTransform="matrix(1,0,0,-1,226.918,400.7705)"
           y2="374.34949"
           x2="-204.5553"
           y1="375.7417"
           x1="-189.1689"
           gradientUnits="userSpaceOnUse"
           id="XMLID_1_">
          <stop
             id="stop159"
             style="stop-color:#669EC9"
             offset="0" />
          <stop
             id="stop160"
             style="stop-color:#1353A2"
             offset="1" />
        </linearGradient>
        <path
           id="path164"
           d="M 38.176,39.837 27.783,5.085 l -7.177,6.648 10.392,34.752 7.178,-6.648 z"
           inkscape:connector-curvature="0"
           style="fill:url(#XMLID_1_);stroke:none" />
        <linearGradient
           gradientTransform="matrix(1,0,0,-1,226.918,400.7705)"
           y2="393.2222"
           x2="-207.42261"
           y1="389.92529"
           x1="-209.47411"
           gradientUnits="userSpaceOnUse"
           id="XMLID_2_">
          <stop
             id="stop166"
             style="stop-color:#A1DBE4"
             offset="0" />
          <stop
             id="stop167"
             style="stop-color:#67C4DC"
             offset="1" />
        </linearGradient>
        <path
           id="path171"
           d="m 27.783,5.085 -8.35,-3.405 -7.177,6.648 8.35,3.405 7.177,-6.648 z"
           inkscape:connector-curvature="0"
           style="fill:url(#XMLID_2_);stroke:none" />
        <path
           id="path172"
           d="M 9.235,37.611 1.863,34.605 12.255,8.328 l 8.35,3.405 10.392,34.752 -7.568,-3.086 -1.959,-6.97 -10.275,-4.189 -1.96,5.371 z"
           inkscape:connector-curvature="0"
           style="fill:#1e94c2;stroke:none" />
        <linearGradient
           gradientTransform="matrix(1,0,0,-1,226.918,400.7705)"
           y2="365.74881"
           x2="-217.7756"
           y1="366.2095"
           x1="-212.6841"
           gradientUnits="userSpaceOnUse"
           id="XMLID_3_">
          <stop
             id="stop174"
             style="stop-color:#669EC9"
             offset="0" />
          <stop
             id="stop175"
             style="stop-color:#2D62AA"
             offset="1" />
        </linearGradient>
        <path
           id="path179"
           d="m 13.823,33.36 -4.588,4.251 1.96,-5.371 2.628,1.12 z"
           inkscape:connector-curvature="0"
           style="fill:url(#XMLID_3_);stroke:none" />
        <linearGradient
           gradientTransform="matrix(1,0,0,-1,226.918,400.7705)"
           y2="377.89401"
           x2="-214.2493"
           y1="378.3696"
           x1="-208.99319"
           gradientUnits="userSpaceOnUse"
           id="XMLID_4_">
          <stop
             id="stop181"
             style="stop-color:#669EC9"
             offset="0" />
          <stop
             id="stop182"
             style="stop-color:#1353A2"
             offset="1" />
        </linearGradient>
        <path
           id="path186"
           d="m 12.931,27.381 4.707,-4.708 -1.304,-4.655 -3.403,9.363 z"
           inkscape:connector-curvature="0"
           style="fill:url(#XMLID_4_);stroke:none" />
        <linearGradient
           gradientTransform="matrix(1,0,0,-1,226.918,400.7705)"
           y2="373.72989"
           x2="-209.5114"
           y1="371.77881"
           x1="-210.7256"
           gradientUnits="userSpaceOnUse"
           id="XMLID_5_">
          <stop
             id="stop188"
             style="stop-color:#A1DBE4"
             offset="0" />
          <stop
             id="stop189"
             style="stop-color:#67C4DC"
             offset="1" />
        </linearGradient>
        <path
           id="path193"
           d="m 19.732,30.155 -6.802,-2.773 4.707,-4.708 2.095,7.481 z"
           inkscape:connector-curvature="0"
           style="fill:url(#XMLID_5_);stroke:none" />
        <path
           id="path194"
           d="m 16.334,18.018 -3.403,9.363 5.761,-0.798 -2.358,-8.565 z"
           a:adobe-blending-mode="multiply"
           inkscape:connector-curvature="0"
           style="opacity:0.41000001;stroke:none" />
        <path
           id="path195"
           d="m 11.195,32.24 -1.96,5.371 0.306,1.68 7.837,-0.757 4.917,1.525 -0.824,-3.63 -10.276,-4.189 z"
           a:adobe-blending-mode="multiply"
           inkscape:connector-curvature="0"
           style="opacity:0.2;stroke:none" />
        <path
           id="path196"
           d="M 38.176,39.837 31.304,48.164 42.81,47.02 50.1,38.886 36.643,34.715 38.176,39.837 Z"
           a:adobe-blending-mode="multiply"
           inkscape:connector-curvature="0"
           style="opacity:0.2;stroke:none" />
      </g>
    </g>
  </g>
</svg>
