<?xml version="1.0" encoding="UTF-8" standalone="no"?>
<svg
   xmlns:dc="http://purl.org/dc/elements/1.1/"
   xmlns:cc="http://creativecommons.org/ns#"
   xmlns:rdf="http://www.w3.org/1999/02/22-rdf-syntax-ns#"
   xmlns:svg="http://www.w3.org/2000/svg"
   xmlns="http://www.w3.org/2000/svg"
   xmlns:xlink="http://www.w3.org/1999/xlink"
   xmlns:sodipodi="http://sodipodi.sourceforge.net/DTD/sodipodi-0.dtd"
   xmlns:inkscape="http://www.inkscape.org/namespaces/inkscape"
   version="1.1"
   width="64"
   height="64"
   color-interpolation="linearRGB"
   id="svg2"
   sodipodi:version="0.32"
   inkscape:version="0.46"
   sodipodi:docname="document-open-recent.svg"
   inkscape:output_extension="org.inkscape.output.svg.inkscape">
  <metadata
     id="metadata60">
    <rdf:RDF>
      <cc:Work
         rdf:about="">
        <dc:format>image/svg+xml</dc:format>
        <dc:type
           rdf:resource="http://purl.org/dc/dcmitype/StillImage" />
      </cc:Work>
    </rdf:RDF>
  </metadata>
  <defs
     id="defs58">
    <inkscape:perspective
       sodipodi:type="inkscape:persp3d"
       inkscape:vp_x="0 : 32 : 1"
       inkscape:vp_y="0 : 1000 : 0"
       inkscape:vp_z="64 : 32 : 1"
       inkscape:persp3d-origin="32 : 21.333333 : 1"
       id="perspective62" />
    <linearGradient
       id="linearGradient2276">
      <stop
         id="stop2278"
         offset="0"
         style="stop-color:#f57900;stop-opacity:1;" />
      <stop
         id="stop2280"
         offset="1"
         style="stop-color:#fcaf3e;stop-opacity:1;" />
    </linearGradient>
    <linearGradient
       id="linearGradient2322">
      <stop
         id="stop2324"
         offset="0"
         style="stop-color:white;stop-opacity:1;" />
      <stop
         id="stop2326"
         offset="1"
         style="stop-color:#c1c7bc;stop-opacity:1;" />
    </linearGradient>
    <linearGradient
       id="linearGradient6917"
       inkscape:collect="always">
      <stop
         id="stop6919"
         offset="0"
         style="stop-color:#000000;stop-opacity:1;" />
      <stop
         id="stop6921"
         offset="1"
         style="stop-color:#000000;stop-opacity:0;" />
    </linearGradient>
    <linearGradient
       id="linearGradient7081">
      <stop
         id="stop7083"
         offset="0"
         style="stop-color:#555753;stop-opacity:1" />
      <stop
         id="stop7085"
         offset="1"
         style="stop-color:#888a85;stop-opacity:0;" />
    </linearGradient>
    <inkscape:perspective
       id="perspective2498"
       inkscape:persp3d-origin="24 : 16 : 1"
       inkscape:vp_z="48 : 24 : 1"
       inkscape:vp_y="0 : 1000 : 0"
       inkscape:vp_x="0 : 24 : 1"
       sodipodi:type="inkscape:persp3d" />
    <linearGradient
       inkscape:collect="always"
       xlink:href="#linearGradient2493"
       id="linearGradient2565"
       gradientUnits="userSpaceOnUse"
       gradientTransform="translate(1,0)"
       x1="80.625"
       y1="14.0625"
       x2="86.304581"
       y2="11.878284" />
    <linearGradient
       inkscape:collect="always"
       xlink:href="#linearGradient6917"
       id="linearGradient2567"
       gradientUnits="userSpaceOnUse"
       gradientTransform="translate(1,0)"
       x1="69"
       y1="23.294437"
       x2="80.625"
       y2="14.0625" />
    <inkscape:perspective
       sodipodi:type="inkscape:persp3d"
       inkscape:vp_x="0 : 24 : 1"
       inkscape:vp_y="0 : 1000 : 0"
       inkscape:vp_z="48 : 24 : 1"
       inkscape:persp3d-origin="24 : 16 : 1"
       id="perspective27" />
    <linearGradient
       id="linearGradient1913">
      <stop
         style="stop-color:#73d216;stop-opacity:1"
         offset="0"
         id="stop1915" />
      <stop
         style="stop-color:#8ae234;stop-opacity:1"
         offset="1"
         id="stop1917" />
    </linearGradient>
    <linearGradient
       inkscape:collect="always"
       id="linearGradient5132">
      <stop
         style="stop-color:white;stop-opacity:1;"
         offset="0"
         id="stop5134" />
      <stop
         style="stop-color:white;stop-opacity:0;"
         offset="1"
         id="stop5136" />
    </linearGradient>
    <linearGradient
       inkscape:collect="always"
       id="linearGradient8662">
      <stop
         style="stop-color:#000000;stop-opacity:1;"
         offset="0"
         id="stop8664" />
      <stop
         style="stop-color:#000000;stop-opacity:0;"
         offset="1"
         id="stop8666" />
    </linearGradient>
    <radialGradient
       inkscape:collect="always"
       xlink:href="#linearGradient8662"
       id="radialGradient8668"
       cx="24.837126"
       cy="36.421127"
       fx="24.837126"
       fy="36.421127"
       r="15.644737"
       gradientTransform="matrix(1,0,0,0.536723,0,16.87306)"
       gradientUnits="userSpaceOnUse" />
    <linearGradient
       inkscape:collect="always"
       xlink:href="#linearGradient5132"
       id="linearGradient5138"
       x1="25.200262"
       y1="38.927765"
       x2="26.20422"
       y2="46.323185"
       gradientUnits="userSpaceOnUse" />
    <linearGradient
       gradientUnits="userSpaceOnUse"
       y2="50.079403"
       x2="51.021461"
       y1="9.6630907"
       x1="51.021461"
       id="linearGradient3186"
       xlink:href="#gradient0"
       inkscape:collect="always" />
    <inkscape:perspective
       id="perspective35"
       inkscape:persp3d-origin="32 : 21.333333 : 1"
       inkscape:vp_z="64 : 32 : 1"
       inkscape:vp_y="0 : 1000 : 0"
       inkscape:vp_x="0 : 32 : 1"
       sodipodi:type="inkscape:persp3d" />
    <linearGradient
       inkscape:collect="always"
       xlink:href="#gradient0"
       id="linearGradient3211"
       x1="8.8637438"
       y1="17.32155"
       x2="41.660229"
       y2="17.32155"
       gradientUnits="userSpaceOnUse" />
    <linearGradient
       inkscape:collect="always"
       xlink:href="#gradient0"
       id="linearGradient3219"
       x1="7.8910675"
       y1="23.499998"
       x2="43"
       y2="23.499998"
       gradientUnits="userSpaceOnUse" />
    <linearGradient
       inkscape:collect="always"
       xlink:href="#gradient0"
       id="linearGradient3221"
       gradientUnits="userSpaceOnUse"
       x1="51.021461"
       y1="9.6630907"
       x2="51.021461"
       y2="50.079403" />
    <linearGradient
       inkscape:collect="always"
       xlink:href="#gradient0"
       id="linearGradient3223"
       gradientUnits="userSpaceOnUse"
       x1="51.021469"
       y1="-29.864973"
       x2="51.021461"
       y2="50.079403"
       gradientTransform="translate(24.93279,93.173291)" />
    <linearGradient
       y2="10.858153"
       x2="8.7223368"
       y1="6.7354665"
       x1="8.6790628"
       gradientTransform="matrix(2.810197,0,0,2.747234,1.562312,1.675085)"
       gradientUnits="userSpaceOnUse"
       id="linearGradient4320"
       xlink:href="#gradient0"
       inkscape:collect="always" />
    <inkscape:perspective
       id="perspective14"
       inkscape:persp3d-origin="24 : 16 : 1"
       inkscape:vp_z="48 : 24 : 1"
       inkscape:vp_y="0 : 1000 : 0"
       inkscape:vp_x="0 : 24 : 1"
       sodipodi:type="inkscape:persp3d" />
    <linearGradient
       gradientUnits="userSpaceOnUse"
       y2="52.257511"
       x2="30.695278"
       y1="47.019314"
       x1="30.695278"
       id="linearGradient3170"
       xlink:href="#gradient0"
       inkscape:collect="always" />
    <inkscape:perspective
       id="perspective2479"
       inkscape:persp3d-origin="32 : 21.333333 : 1"
       inkscape:vp_z="64 : 32 : 1"
       inkscape:vp_y="0 : 1000 : 0"
       inkscape:vp_x="0 : 32 : 1"
       sodipodi:type="inkscape:persp3d" />
    <linearGradient
       inkscape:collect="always"
       xlink:href="#gradient0"
       id="linearGradient2509"
       gradientUnits="userSpaceOnUse"
       x1="66"
       y1="-81.76"
       x2="122.5"
       y2="-25.25" />
    <linearGradient
       inkscape:collect="always"
       xlink:href="#gradient1"
       id="linearGradient2511"
       gradientUnits="userSpaceOnUse"
       x1="76.8"
       y1="-54.65"
       x2="115.02"
       y2="-11.7" />
  </defs>
  <sodipodi:namedview
     inkscape:window-height="747"
     inkscape:window-width="674"
     inkscape:pageshadow="2"
     inkscape:pageopacity="0.0"
     guidetolerance="10.0"
     gridtolerance="10.0"
     objecttolerance="10.0"
     borderopacity="1.0"
     bordercolor="#666666"
     pagecolor="#ffffff"
     id="base"
     showgrid="false"
     inkscape:zoom="7.28125"
     inkscape:cx="22.308691"
     inkscape:cy="32"
     inkscape:window-x="0"
     inkscape:window-y="26"
     inkscape:current-layer="svg2" />
  <g
     id="g4">
    <path
       style="fill:#000000; fill-opacity:0.4431"
       d="M62 50L50 44L40 64H48C54 64 68 53 62 50z"
       id="path6" />
    <path
       style="fill:none; stroke:#000000; stroke-width:4"
       d="M49.33 53.17V53.16C49.75 52.64 50 51.91 50 51V32C50 21.52 43.94 10.97 34.01 6C27.77 2.88 22 4 18.06 5.92C14 8 9.56 12.41 9.56 12.41V12.42C7.32 14.46 6 17.72 6.01 21.98V40.98C6.01 43.74 8.25 47.1 11.02 48.49L37.02 61.5C38.87 62.43 40.48 62.23 41.36 61.16V61.17L49.33 53.17z"
       id="path8" />
    <linearGradient
       id="gradient0"
       gradientUnits="userSpaceOnUse"
       x1="66"
       y1="-81.76"
       x2="122.5"
       y2="-25.25">
      <stop
         offset="0.2575"
         stop-color="#04a3a5"
         id="stop11" />
      <stop
         offset="0.5227"
         stop-color="#b3feff"
         id="stop13" />
      <stop
         offset="0.8825"
         stop-color="#026667"
         id="stop15" />
      <stop
         offset="1"
         stop-color="#037072"
         id="stop17" />
    </linearGradient>
    <path
       style="fill:url(#gradient0)"
       d="M49.33 53.17V53.16C49.75 52.64 50 51.91 50 51V32C50 21.52 43.94 10.97 34.01 6C27.77 2.88 22 4 18.06 5.92C14 8 9.56 12.41 9.56 12.41V12.42L41.36 61.16V61.17L49.33 53.17z"
       id="path19" />
    <linearGradient
       id="gradient1"
       gradientUnits="userSpaceOnUse"
       x1="76.8"
       y1="-54.65"
       x2="115.02"
       y2="-11.7">
      <stop
         offset="0.4886"
         stop-color="#40c5c7"
         id="stop22" />
      <stop
         offset="0"
         stop-color="#30a3a5"
         id="stop24" />
      <stop
         offset="1"
         stop-color="#28a3a5"
         id="stop26" />
    </linearGradient>
    <path
       style="fill:url(#gradient1)"
       d="M24 12C14.06 7.01 6 11.48 6.01 21.98V40.98C6.01 43.74 8.25 47.1 11.02 48.49L37.02 61.5C39.77 62.88 42.02 61.77 42.02 59V40C42 29.52 33.94 16.97 24.01 12H24z"
       id="path28" />
    <linearGradient
       id="gradient2"
       gradientUnits="userSpaceOnUse"
       x1="15.05"
       y1="6.93"
       x2="44.02"
       y2="35.9">
      <stop
         offset="0"
         stop-color="#9beff0"
         id="stop31" />
      <stop
         offset="0.25"
         stop-color="#ffffff"
         id="stop33" />
      <stop
         offset="1"
         stop-color="#04a8aa"
         id="stop35" />
    </linearGradient>
    <path
       style="fill:url(#gradient2)"
       d="M24 12H24C33.31 16.66 40.97 27.97 41.92 38C41.9 27.52 35.93 14.97 26.01 10H26C19.28 6.63 13.43 7.59 10.34 11.78C13.64 9.38 18.53 9.26 24 12H24z"
       id="path37" />
    <path
       style="fill:#000000"
       d="M24 16C31.72 19.87 38 29.72 38 38C38 46.29 31.73 49.86 24.02 46C16.29 42.13 10 32.27 10 23.98C10 15.7 16.26 12.12 24 16z"
       id="path39" />
    <radialGradient
       id="gradient3"
       gradientUnits="userSpaceOnUse"
       cx="0"
       cy="0"
       r="64"
       gradientTransform="matrix(0.2968,0,0,0.3593,26,33)">
      <stop
         offset="0"
         stop-color="#f8f8ff"
         id="stop42" />
      <stop
         offset="1"
         stop-color="#9898ff"
         id="stop44" />
    </radialGradient>
    <path
       style="fill:url(#gradient3)"
       d="M24 18C17.36 14.68 12 17.8 12.01 24.98C12.01 32.16 17.38 40.68 24.02 44C30.64 47.31 36.02 44.18 36.02 37C36 29.82 30.61 21.31 24 18z"
       id="path46" />
    <path
       style="fill:#ffffff"
       d="M16 28.98C16 22.91 20.47 20.23 26.01 23C28.11 24.04 30.05 25.74 31.68 27.77C29.82 24.45 27.07 21.54 24.01 20C18.48 17.23 14.01 19.91 14.02 25.98C14.02 29.75 15.73 33.93 18.37 37.22C16.89 34.58 16.01 31.68 16.02 28.98H16z            M29 26.95C27.59 26.24 26.45 26.81 26.45 28.22C26.45 29.63 27.6 31.34 29.02 32.04C30.44 32.75 31.56 32.18 31.56 30.78C31.55 29.37 30.42 27.65 29.02 26.95H29z"
       id="path48" />
    <linearGradient
       id="gradient4"
       gradientUnits="userSpaceOnUse"
       x1="74.63"
       y1="-48.18"
       x2="79.77"
       y2="-44.53">
      <stop
         offset="0"
         stop-color="#dadada"
         id="stop51" />
      <stop
         offset="1"
         stop-color="#000000"
         id="stop53" />
    </linearGradient>
    <path
       style="fill:none; stroke:url(#gradient4); stroke-width:3; stroke-linecap:round; stroke-linejoin:round"
       d="M28 25L31 32L41 26            M20 32H22            M42 32H44            M32 42V44            M32 20V22"
       transform="matrix(0.7484,0.4784,0.0261,0.8247,-0.7028,-10.2605)"
       id="path55" />
  </g>
  <g
     inkscape:label="Layer 1"
     id="layer1"
     transform="matrix(1.5132144,0,0,1.5132144,-11.458531,-11.076748)">
    <g
       transform="translate(0,50)"
       id="g8122">
      <g
         id="g8109">
        <g
           id="g8098" />
      </g>
      <g
         id="g7109"
         transform="translate(-62,-52)">
        <path
           sodipodi:nodetypes="ccccccsccc"
           id="path7007"
           d="M 86,10.5 C 81.638919,10.5 77.747988,12.564832 75.28125,15.78125 L 72.5,13 L 70.5,23.5 L 81,21.5 L 78.15625,18.65625 C 79.863849,16.151009 82.739729,13.5 86,13.5 C 86.169139,13.5 88.333026,13.522505 88.5,13.53125 L 88.5,10.53125 C 88.332013,10.525047 86.169495,10.5 86,10.5 z"
           style="opacity:1;fill:url(#linearGradient2565);fill-opacity:1;fill-rule:evenodd;stroke:url(#linearGradient2567);stroke-width:0.99999994000000003;stroke-linecap:round;stroke-linejoin:miter;stroke-miterlimit:10;stroke-dasharray:none;stroke-dashoffset:0.69999992000000000;stroke-opacity:1" />
      </g>
    </g>
  </g>
  <g
     inkscape:label="Layer 1"
     id="g2625"
     transform="translate(-60.532188,6.7145756)">
    <g
       transform="translate(18.545723,-7.0458238)"
       id="g2439"
       inkscape:label="Layer 1">
      <g
         id="g2416"
         transform="matrix(0.8082747,0,0,0.1252211,-10.151518,14.737781)">
        <g
           id="g2631">
          <linearGradient
             y2="5.25"
             x2="77.269997"
             y1="-10.35"
             x1="66.449997"
             gradientUnits="userSpaceOnUse"
             id="linearGradient2633">
            <stop
               id="stop2635"
               stop-color="#acff0d"
               offset="0" />
            <stop
               id="stop19"
               stop-color="#04a804"
               offset="1" />
          </linearGradient>
          <linearGradient
             y2="7.0100002"
             x2="85.120003"
             y1="-20.74"
             x1="57.509998"
             gradientUnits="userSpaceOnUse"
             id="linearGradient2638">
            <stop
               id="stop2640"
               stop-color="#68fb06"
               offset="0" />
            <stop
               id="stop2642"
               stop-color="#05d705"
               offset="1" />
          </linearGradient>
        </g>
      </g>
    </g>
  </g>
  <g
     id="g2482"
     transform="translate(51.845493,-4.033262)">
    <g
       transform="matrix(1,0,0,-1,0,56.99)"
       id="g2484">
      <linearGradient
         y2="-18.549999"
         x2="56.68"
         y1="-24.700001"
         x1="38.700001"
         gradientUnits="userSpaceOnUse"
         id="linearGradient2493">
        <stop
           id="stop2495"
           stop-color="#ffd789"
           offset="0" />
        <stop
           id="stop2497"
           stop-color="#e08606"
           offset="1" />
      </linearGradient>
      <linearGradient
         y2="7.0100002"
         x2="87.120003"
         y1="-20.74"
         x1="59.509998"
         gradientUnits="userSpaceOnUse"
         id="linearGradient2500">
        <stop
           id="stop2502"
           stop-color="#ffbf44"
           offset="0" />
        <stop
           id="stop2504"
           stop-color="#ff9806"
           offset="1" />
      </linearGradient>
    </g>
  </g>
</svg>
