<?xml version="1.0" encoding="UTF-8" standalone="no"?>
<!-- Created with Sodipodi ("http://www.sodipodi.com/") -->

<svg
   xmlns:dc="http://purl.org/dc/elements/1.1/"
   xmlns:cc="http://creativecommons.org/ns#"
   xmlns:rdf="http://www.w3.org/1999/02/22-rdf-syntax-ns#"
   xmlns:svg="http://www.w3.org/2000/svg"
   xmlns="http://www.w3.org/2000/svg"
   xmlns:xlink="http://www.w3.org/1999/xlink"
   xmlns:sodipodi="http://sodipodi.sourceforge.net/DTD/sodipodi-0.dtd"
   xmlns:inkscape="http://www.inkscape.org/namespaces/inkscape"
   width="48pt"
   height="48pt"
   viewBox="0 0 51.2 51.2"
   overflow="visible"
   enable-background="new 0 0 51.2 51.2"
   xml:space="preserve"
   id="svg153"
   sodipodi:version="0.32"
   sodipodi:docname="drive-optical.svg"
   inkscape:version="0.47 r22583"
   inkscape:output_extension="org.inkscape.output.svg.inkscape"
   version="1.1">
  <defs
   id="defs243"><inkscape:perspective
   sodipodi:type="inkscape:persp3d"
   inkscape:vp_x="0 : 30 : 1"
   inkscape:vp_y="0 : 1000 : 0"
   inkscape:vp_z="60 : 30 : 1"
   inkscape:persp3d-origin="30 : 20 : 1"
   id="perspective84" />
    
  
      
      
      
      <linearGradient
   gradientTransform="matrix(1.000000,0.000000,0.000000,-1.000000,235.3906,411.1221)"
   y2="383.14081"
   x2="-194.9144"
   y1="402.8472"
   x1="-229.04691"
   gradientUnits="userSpaceOnUse"
   id="linearGradient1460">
        <stop
   id="stop1462"
   style="stop-color:#E6E6FA"
   offset="0" />
        <stop
   id="stop1464"
   style="stop-color:#FFFFFF"
   offset="0.4246" />
        <stop
   id="stop1466"
   style="stop-color:#ADADD2"
   offset="0.4972" />
        <stop
   id="stop1468"
   style="stop-color:#EBEBFF"
   offset="0.8492" />
      </linearGradient>
      
      <linearGradient
   gradientTransform="matrix(1.000000,0.000000,0.000000,-1.000000,235.3906,411.1221)"
   y2="397.06049"
   x2="-204.748"
   y1="392.07181"
   x1="-216.3882"
   gradientUnits="userSpaceOnUse"
   id="linearGradient1472">
        <stop
   id="stop1474"
   style="stop-color:#FFFFFF"
   offset="0" />
        <stop
   id="stop1476"
   style="stop-color:#CCCCF5"
   offset="1" />
      </linearGradient>
      
      
      <linearGradient
   gradientTransform="matrix(1.000000,0.000000,0.000000,-1.000000,235.3906,411.1221)"
   y2="392.17499"
   x2="-227.8364"
   y1="394.6792"
   x1="-200.70799"
   gradientUnits="userSpaceOnUse"
   id="linearGradient1480">
        <stop
   id="stop182"
   style="stop-color:#FFFFFF"
   offset="0" />
        <stop
   id="stop183"
   style="stop-color:#6A77B8"
   offset="1" />
      </linearGradient>
      
      
      
    <inkscape:perspective
   id="perspective2492"
   inkscape:persp3d-origin="32 : 21.333333 : 1"
   inkscape:vp_z="64 : 32 : 1"
   inkscape:vp_y="0 : 1000 : 0"
   inkscape:vp_x="0 : 32 : 1"
   sodipodi:type="inkscape:persp3d" />
    
  <linearGradient
   inkscape:collect="always"
   xlink:href="#XMLID_1_"
   id="linearGradient2950"
   gradientUnits="userSpaceOnUse"
   gradientTransform="matrix(1,0,0,-1,232.5,406.6992)"
   x1="-210.1069"
   y1="372.58109"
   x2="-211.5811"
   y2="387.32211" /><linearGradient
   inkscape:collect="always"
   xlink:href="#XMLID_2_"
   id="linearGradient2952"
   gradientUnits="userSpaceOnUse"
   gradientTransform="matrix(1,0,0,-1,232.5,406.6992)"
   x1="-214.0112"
   y1="358.00681"
   x2="-220.55721"
   y2="369.76849" /><linearGradient
   inkscape:collect="always"
   xlink:href="#XMLID_3_"
   id="linearGradient2954"
   gradientUnits="userSpaceOnUse"
   gradientTransform="matrix(1,0,0,-1,232.5,406.6992)"
   x1="-198.4731"
   y1="371.91501"
   x2="-203.87131"
   y2="376.14349" /><linearGradient
   inkscape:collect="always"
   xlink:href="#XMLID_4_"
   id="linearGradient2956"
   gradientUnits="userSpaceOnUse"
   gradientTransform="matrix(1,0,0,-1,232.5,406.6992)"
   x1="-221.70309"
   y1="367.21881"
   x2="-220.25841"
   y2="369.62659" /><linearGradient
   inkscape:collect="always"
   xlink:href="#XMLID_5_"
   id="linearGradient2958"
   gradientUnits="userSpaceOnUse"
   gradientTransform="matrix(1,0,0,-1,232.5,406.6992)"
   x1="-217.0083"
   y1="361.7363"
   x2="-220.96609"
   y2="368.8476" /><linearGradient
   inkscape:collect="always"
   xlink:href="#XMLID_6_"
   id="linearGradient2960"
   gradientUnits="userSpaceOnUse"
   gradientTransform="matrix(1,0,0,-1,232.5,406.6992)"
   x1="-228.8423"
   y1="372.4277"
   x2="-227.892"
   y2="372.85971" />
      
      
      
      <linearGradient
   id="XMLID_1_"
   gradientUnits="userSpaceOnUse"
   x1="-210.1069"
   y1="372.58109"
   x2="-211.5811"
   y2="387.32211"
   gradientTransform="matrix(1,0,0,-1,232.5,406.6992)">
        <stop
   offset="0"
   style="stop-color:#F2F2F2"
   id="stop161" />
        <stop
   offset="0.3121"
   style="stop-color:#EEEEEE"
   id="stop162" />
        <stop
   offset="0.6646"
   style="stop-color:#E0E0E0"
   id="stop163" />
        <stop
   offset="1"
   style="stop-color:#CCCCCC"
   id="stop164" />
      </linearGradient>
      
      <linearGradient
   id="XMLID_2_"
   gradientUnits="userSpaceOnUse"
   x1="-214.0112"
   y1="358.00681"
   x2="-220.55721"
   y2="369.76849"
   gradientTransform="matrix(1,0,0,-1,232.5,406.6992)">
        <stop
   offset="0"
   style="stop-color:#E6E6E6"
   id="stop174" />
        <stop
   offset="0.621"
   style="stop-color:#C7C7C7"
   id="stop175" />
        <stop
   offset="1"
   style="stop-color:#B3B3B3"
   id="stop176" />
      </linearGradient>
      
      
      
      
      <linearGradient
   id="XMLID_3_"
   gradientUnits="userSpaceOnUse"
   x1="-198.4731"
   y1="371.91501"
   x2="-203.87131"
   y2="376.14349"
   gradientTransform="matrix(1,0,0,-1,232.5,406.6992)">
        <stop
   offset="0"
   style="stop-color:#999999"
   id="stop187" />
        <stop
   offset="0.6839"
   style="stop-color:#7B7B7B"
   id="stop188" />
        <stop
   offset="1"
   style="stop-color:#6B6B6B"
   id="stop189" />
      </linearGradient>
      
      
      <linearGradient
   id="XMLID_4_"
   gradientUnits="userSpaceOnUse"
   x1="-221.70309"
   y1="367.21881"
   x2="-220.25841"
   y2="369.62659"
   gradientTransform="matrix(1,0,0,-1,232.5,406.6992)">
        <stop
   offset="0"
   style="stop-color:#808080"
   id="stop198" />
        <stop
   offset="0.3311"
   style="stop-color:#616161"
   id="stop199" />
        <stop
   offset="1"
   style="stop-color:#1A1A1A"
   id="stop200" />
      </linearGradient>
      
      
      
      
      
      
      
      
    <linearGradient
   inkscape:collect="always"
   xlink:href="#XMLID_4_"
   id="linearGradient3005"
   gradientUnits="userSpaceOnUse"
   gradientTransform="matrix(1.1713555,0,0,-1.1713555,272.4711,467.61594)"
   x1="-221.70309"
   y1="367.21881"
   x2="-220.25841"
   y2="369.62659" /><linearGradient
   inkscape:collect="always"
   xlink:href="#XMLID_3_"
   id="linearGradient3009"
   gradientUnits="userSpaceOnUse"
   gradientTransform="matrix(1.1713555,0,0,-1.1713555,272.4711,467.61594)"
   x1="-198.4731"
   y1="371.91501"
   x2="-203.87131"
   y2="376.14349" /><linearGradient
   inkscape:collect="always"
   xlink:href="#XMLID_2_"
   id="linearGradient3015"
   gradientUnits="userSpaceOnUse"
   gradientTransform="matrix(1.1713555,0,0,-1.1713555,272.4711,467.61594)"
   x1="-214.0112"
   y1="358.00681"
   x2="-220.55721"
   y2="369.76849" /><linearGradient
   inkscape:collect="always"
   xlink:href="#XMLID_1_"
   id="linearGradient3018"
   gradientUnits="userSpaceOnUse"
   gradientTransform="matrix(1.1713555,0,0,-1.1713555,272.4711,467.61594)"
   x1="-210.1069"
   y1="372.58109"
   x2="-211.5811"
   y2="387.32211" /><linearGradient
   inkscape:collect="always"
   xlink:href="#XMLID_1_"
   id="linearGradient3147"
   gradientUnits="userSpaceOnUse"
   gradientTransform="matrix(1.1713555,0,0,-1.1713555,272.4711,467.61594)"
   x1="-210.1069"
   y1="372.58109"
   x2="-211.5811"
   y2="387.32211" /><linearGradient
   inkscape:collect="always"
   xlink:href="#XMLID_2_"
   id="linearGradient3149"
   gradientUnits="userSpaceOnUse"
   gradientTransform="matrix(1.1713555,0,0,-1.1713555,272.4711,467.61594)"
   x1="-214.0112"
   y1="358.00681"
   x2="-220.55721"
   y2="369.76849" /><linearGradient
   inkscape:collect="always"
   xlink:href="#XMLID_3_"
   id="linearGradient3151"
   gradientUnits="userSpaceOnUse"
   gradientTransform="matrix(1.1713555,0,0,-1.1713555,272.4711,467.61594)"
   x1="-198.4731"
   y1="371.91501"
   x2="-203.87131"
   y2="376.14349" /><linearGradient
   inkscape:collect="always"
   xlink:href="#XMLID_4_"
   id="linearGradient3153"
   gradientUnits="userSpaceOnUse"
   gradientTransform="matrix(1.1713555,0,0,-1.1713555,272.4711,467.61594)"
   x1="-221.70309"
   y1="367.21881"
   x2="-220.25841"
   y2="369.62659" /><linearGradient
   inkscape:collect="always"
   xlink:href="#XMLID_5_"
   id="linearGradient3155"
   gradientUnits="userSpaceOnUse"
   gradientTransform="matrix(1,0,0,-1,232.5,406.6992)"
   x1="-217.0083"
   y1="361.7363"
   x2="-220.96609"
   y2="368.8476" /><linearGradient
   inkscape:collect="always"
   xlink:href="#XMLID_6_"
   id="linearGradient3157"
   gradientUnits="userSpaceOnUse"
   gradientTransform="matrix(1,0,0,-1,232.5,406.6992)"
   x1="-228.8423"
   y1="372.4277"
   x2="-227.892"
   y2="372.85971" /><inkscape:perspective
   id="perspective3167"
   inkscape:persp3d-origin="0.5 : 0.33333333 : 1"
   inkscape:vp_z="1 : 0.5 : 1"
   inkscape:vp_y="0 : 1000 : 0"
   inkscape:vp_x="0 : 0.5 : 1"
   sodipodi:type="inkscape:persp3d" /><linearGradient
   y2="3.2"
   x2="-3.6400001"
   y1="67.690002"
   x1="4.6399999"
   gradientUnits="userSpaceOnUse"
   id="gradient0"><stop
     id="stop2466"
     stop-color="#f1f1f1"
     offset="0" /><stop
     id="stop2468"
     stop-color="#d9ddf4"
     offset="0.2121" /><stop
     id="stop2470"
     stop-color="#9996b9"
     offset="0.5416" /><stop
     id="stop2472"
     stop-color="#b8bedb"
     offset="0.7083" /><stop
     id="stop2474"
     stop-color="#f4f4f4"
     offset="1" /></linearGradient><linearGradient
   y2="6.6799998"
   x2="48.02"
   y1="-3.55"
   x1="6.8400002"
   gradientUnits="userSpaceOnUse"
   id="gradient1"><stop
     id="stop2481"
     stop-color="#4137a9"
     offset="0" /><stop
     id="stop2483"
     stop-color="#b9b9b9"
     offset="1" /></linearGradient><linearGradient
   inkscape:collect="always"
   xlink:href="#XMLID_1_-6"
   id="linearGradient3147-0"
   gradientUnits="userSpaceOnUse"
   gradientTransform="matrix(1.1713555,0,0,-1.1713555,272.4711,467.61594)"
   x1="-210.1069"
   y1="372.58109"
   x2="-211.5811"
   y2="387.32211" /><linearGradient
   id="XMLID_1_-6"
   gradientUnits="userSpaceOnUse"
   x1="-210.1069"
   y1="372.58109"
   x2="-211.5811"
   y2="387.32211"
   gradientTransform="matrix(1,0,0,-1,232.5,406.6992)"><stop
     offset="0"
     style="stop-color:#F2F2F2"
     id="stop161-4" /><stop
     offset="0.3121"
     style="stop-color:#EEEEEE"
     id="stop162-6" /><stop
     offset="0.6646"
     style="stop-color:#E0E0E0"
     id="stop163-2" /><stop
     offset="1"
     style="stop-color:#CCCCCC"
     id="stop164-5" /></linearGradient><linearGradient
   inkscape:collect="always"
   xlink:href="#XMLID_2_-6"
   id="linearGradient3149-8"
   gradientUnits="userSpaceOnUse"
   gradientTransform="matrix(1.1713555,0,0,-1.1713555,272.4711,467.61594)"
   x1="-214.0112"
   y1="358.00681"
   x2="-220.55721"
   y2="369.76849" /><linearGradient
   id="XMLID_2_-6"
   gradientUnits="userSpaceOnUse"
   x1="-214.0112"
   y1="358.00681"
   x2="-220.55721"
   y2="369.76849"
   gradientTransform="matrix(1,0,0,-1,232.5,406.6992)"><stop
     offset="0"
     style="stop-color:#E6E6E6"
     id="stop174-2" /><stop
     offset="0.621"
     style="stop-color:#C7C7C7"
     id="stop175-8" /><stop
     offset="1"
     style="stop-color:#B3B3B3"
     id="stop176-4" /></linearGradient><linearGradient
   inkscape:collect="always"
   xlink:href="#XMLID_3_-2"
   id="linearGradient3151-7"
   gradientUnits="userSpaceOnUse"
   gradientTransform="matrix(1.1713555,0,0,-1.1713555,272.4711,467.61594)"
   x1="-198.4731"
   y1="371.91501"
   x2="-203.87131"
   y2="376.14349" /><linearGradient
   id="XMLID_3_-2"
   gradientUnits="userSpaceOnUse"
   x1="-198.4731"
   y1="371.91501"
   x2="-203.87131"
   y2="376.14349"
   gradientTransform="matrix(1,0,0,-1,232.5,406.6992)"><stop
     offset="0"
     style="stop-color:#999999"
     id="stop187-4" /><stop
     offset="0.6839"
     style="stop-color:#7B7B7B"
     id="stop188-0" /><stop
     offset="1"
     style="stop-color:#6B6B6B"
     id="stop189-6" /></linearGradient><linearGradient
   inkscape:collect="always"
   xlink:href="#XMLID_4_-9"
   id="linearGradient3153-2"
   gradientUnits="userSpaceOnUse"
   gradientTransform="matrix(1.1713555,0,0,-1.1713555,272.4711,467.61594)"
   x1="-221.70309"
   y1="367.21881"
   x2="-220.25841"
   y2="369.62659" /><linearGradient
   id="XMLID_4_-9"
   gradientUnits="userSpaceOnUse"
   x1="-221.70309"
   y1="367.21881"
   x2="-220.25841"
   y2="369.62659"
   gradientTransform="matrix(1,0,0,-1,232.5,406.6992)"><stop
     offset="0"
     style="stop-color:#808080"
     id="stop198-9" /><stop
     offset="0.3311"
     style="stop-color:#616161"
     id="stop199-0" /><stop
     offset="1"
     style="stop-color:#1A1A1A"
     id="stop200-8" /></linearGradient><linearGradient
   inkscape:collect="always"
   xlink:href="#XMLID_5_"
   id="linearGradient3155-1"
   gradientUnits="userSpaceOnUse"
   gradientTransform="matrix(1,0,0,-1,232.5,406.6992)"
   x1="-217.0083"
   y1="361.7363"
   x2="-220.96609"
   y2="368.8476" /><linearGradient
   gradientTransform="matrix(1,0,0,-1,232.5,406.6992)"
   y2="368.8476"
   x2="-220.96609"
   y1="361.7363"
   x1="-217.0083"
   gradientUnits="userSpaceOnUse"
   id="XMLID_5_"><stop
     id="stop210"
     style="stop-color:#FFFFFF"
     offset="0" /><stop
     id="stop211"
     style="stop-color:#E1E1E1"
     offset="0.621" /><stop
     id="stop212"
     style="stop-color:#CCCCCC"
     offset="1" /></linearGradient><linearGradient
   inkscape:collect="always"
   xlink:href="#XMLID_6_"
   id="linearGradient3157-3"
   gradientUnits="userSpaceOnUse"
   gradientTransform="matrix(1,0,0,-1,232.5,406.6992)"
   x1="-228.8423"
   y1="372.4277"
   x2="-227.892"
   y2="372.85971" /><linearGradient
   gradientTransform="matrix(1,0,0,-1,232.5,406.6992)"
   y2="372.85971"
   x2="-227.892"
   y1="372.4277"
   x1="-228.8423"
   gradientUnits="userSpaceOnUse"
   id="XMLID_6_"><stop
     id="stop221"
     style="stop-color:#999999"
     offset="0" /><stop
     id="stop222"
     style="stop-color:#7B7B7B"
     offset="0.6839" /><stop
     id="stop223"
     style="stop-color:#6B6B6B"
     offset="1" /></linearGradient><linearGradient
   inkscape:collect="always"
   xlink:href="#gradient0"
   id="linearGradient3468"
   gradientUnits="userSpaceOnUse"
   x1="4.6399999"
   y1="67.690002"
   x2="-3.6400001"
   y2="3.2" /><linearGradient
   inkscape:collect="always"
   xlink:href="#gradient1"
   id="linearGradient3470"
   gradientUnits="userSpaceOnUse"
   x1="6.8400002"
   y1="-3.55"
   x2="48.02"
   y2="6.6799998" /></defs>
  <sodipodi:namedview
   id="base"
   inkscape:zoom="6.5166667"
   inkscape:cx="30"
   inkscape:cy="22.895874"
   inkscape:window-width="994"
   inkscape:window-height="671"
   inkscape:window-x="154"
   inkscape:window-y="38"
   inkscape:current-layer="svg153"
   showgrid="false"
   showguides="true"
   inkscape:guide-bbox="true"
   inkscape:window-maximized="0" />
  <metadata
   id="metadata154">
    <sfw
   id="sfw6">
      <slices
   id="slices8" />
      <sliceSourceBounds
   y="393.899"
   x="270.9"
   width="51.2"
   height="51.2"
   bottomLeftOrigin="true"
   id="sliceSourceBounds10" />
    </sfw>
  <rdf:RDF><cc:Work
     rdf:about=""><dc:format>image/svg+xml</dc:format><dc:type
       rdf:resource="http://purl.org/dc/dcmitype/StillImage" /></cc:Work></rdf:RDF></metadata>
  
<g
   id="g3023"
   transform="translate(-0.41207164,3.852588)"><path
     style="stroke:none"
     id="path158"
     d="M 0.41207164,22.587299 V 35.960665 L 26.658634,47.347412 49.81399,26.639018 V 13.263309 L 23.566256,1.8800767 0.41207164,22.587299 z" /><path
     style="opacity:0.2;stroke:none"
     id="path159"
     d="M 49.914726,26.376634 26.587182,47.238476 31.206589,47.10753 51.691914,28.863443 50.906236,20.385698 49.81399,16.71178 l 0.100736,9.664854 z"
     sodipodi:nodetypes="ccccccc" /><path
     style="fill:url(#linearGradient3147-0);stroke:none"
     id="path172"
     d="M 26.390394,33.877995 1.8176982,23.216317 23.832154,3.5281739 48.406021,14.187509 26.390394,33.877995 z" /><path
     style="fill:url(#linearGradient3149-8);stroke:none"
     id="path182"
     d="M 26.390394,45.700486 1.8176982,35.038808 V 23.216317 L 26.391565,33.879166 v 11.82132 z" /><path
     style="fill:#33cc33;stroke:none"
     id="path183"
     d="M 25.155785,37.903944 23.170338,37.04534 v -2.373166 l 1.985447,0.858603 v 2.373167 z" /><path
     style="fill:#74fa33;stroke:none"
     id="path184"
     d="m 24.324123,37.184731 -0.921857,-0.39826 v -1.101075 l 0.921857,0.399433 v 1.099902 z" /><path
     style="opacity:0.5;stroke:none"
     id="path185"
     d="m 25.155785,36.22422 -1.985447,-0.858604 v -1.283805 l 1.985447,0.858603 v 1.283806 z" /><path
     style="fill:url(#linearGradient3151-7);stroke:none"
     id="path195"
     d="M 48.407192,26.01 26.390394,45.699315 V 33.877995 L 48.406021,14.186338 V 26.01 z" /><path
     style="fill:none;stroke:#666666;stroke-width:0.29283887"
     id="path196"
     d="m 4.271688,33.189238 19.664716,8.529811 V 37.335836 L 4.271688,28.803683 v 4.385555 z" /><path
     style="fill:url(#linearGradient3153-2);stroke:none"
     id="path206"
     d="M 23.467862,41.005693 4.7414016,32.881171 V 29.51821 l 18.7264604,8.125693 v 3.36179 z" /><path
     style="opacity:0.6;fill:#ffffff;stroke:none"
     id="path207"
     d="M 48.423591,15.080082 48.407192,14.186338 47.693836,13.8771 26.396251,32.93154 2.4150895,22.720834 l -0.5973913,0.495483 0.00351,0.906629 23.8663688,10.331356 v 10.956859 l 0.702813,0.289325 0.702813,-0.525939 V 34.15912 L 48.423591,15.080082 z" /><g
     transform="matrix(1.1713555,0,0,1.1713555,0.13094632,-8.7734016)"
     id="g208"
     style="stroke:#000000"><linearGradient
       gradientTransform="matrix(1,0,0,-1,232.5,406.6992)"
       y2="368.8476"
       x2="-220.96609"
       y1="361.7363"
       x1="-217.0083"
       gradientUnits="userSpaceOnUse"
       id="linearGradient3224"><stop
         id="stop3226"
         style="stop-color:#FFFFFF"
         offset="0" /><stop
         id="stop3228"
         style="stop-color:#E1E1E1"
         offset="0.621" /><stop
         id="stop3230"
         style="stop-color:#CCCCCC"
         offset="1" /></linearGradient><path
       style="fill:url(#linearGradient3155-1);stroke:none"
       id="path218"
       d="m 4.766,33.09 -0.83,-0.36 v 2.832 l 15.987,6.936 V 41.563 L 4.766,34.986 V 33.09 z" /></g><g
     transform="matrix(1.1713555,0,0,1.1713555,0.13094632,-8.7734016)"
     id="g219"
     style="stroke:#000000"><linearGradient
       gradientTransform="matrix(1,0,0,-1,232.5,406.6992)"
       y2="372.85971"
       x2="-227.892"
       y1="372.4277"
       x1="-228.8423"
       gradientUnits="userSpaceOnUse"
       id="linearGradient3234"><stop
         id="stop3236"
         style="stop-color:#999999"
         offset="0" /><stop
         id="stop3238"
         style="stop-color:#7B7B7B"
         offset="0.6839" /><stop
         id="stop3240"
         style="stop-color:#6B6B6B"
         offset="1" /></linearGradient><path
       style="fill:url(#linearGradient3157-3);stroke:none"
       id="path229"
       d="m 4.766,33.09 -0.83,-0.36 v 2.832 l 0.83,-0.575 V 33.09 z" /></g><g
     transform="matrix(1.1713555,0,0,1.1713555,0.13094632,-8.7734016)"
     id="g230"
     style="stroke:#000000"><path
       style="opacity:0.2;stroke:none"
       id="path231"
       d="m 7.152,27.111 c -0.905,0 -1.646,-0.425 -1.767,-0.974 -0.011,0.051 -0.025,0.102 -0.025,0.154 0,0.623 0.802,1.128 1.792,1.128 0.99,0 1.791,-0.505 1.791,-1.128 0,-0.053 -0.014,-0.104 -0.025,-0.154 -0.12,0.551 -0.86,0.974 -1.766,0.974 z"
       adobe-blending-mode="multiply" /><path
       style="opacity:0.5;fill:#ffffff;stroke:none"
       id="path232"
       d="m 7.359,25.092 c 0.894,0.144 1.557,0.682 1.588,1.243 C 8.966,26.286 8.988,26.239 8.996,26.187 9.096,25.573 8.384,24.946 7.409,24.788 6.433,24.629 5.56,25 5.46,25.614 c -0.008,0.052 -0.003,0.104 0,0.156 0.207,-0.522 1.006,-0.822 1.899,-0.678 z"
       adobe-blending-mode="overlay" /></g><g
     transform="matrix(1.1713555,0,0,1.1713555,0.13094632,-8.7734016)"
     id="g233"
     style="stroke:#000000"><path
       style="opacity:0.2;stroke:none"
       id="path234"
       d="m 20.904,15.064 c -0.905,0 -1.646,-0.424 -1.766,-0.974 -0.012,0.051 -0.025,0.102 -0.025,0.154 0,0.623 0.802,1.127 1.791,1.127 0.989,0 1.791,-0.505 1.791,-1.127 0,-0.053 -0.013,-0.104 -0.025,-0.154 -0.12,0.55 -0.861,0.974 -1.766,0.974 z"
       adobe-blending-mode="multiply" /><path
       style="opacity:0.5;fill:#ffffff;stroke:none"
       id="path235"
       d="m 21.111,13.044 c 0.894,0.145 1.557,0.682 1.588,1.243 0.02,-0.048 0.041,-0.096 0.049,-0.148 0.1,-0.615 -0.611,-1.241 -1.587,-1.399 -0.977,-0.158 -1.849,0.212 -1.948,0.827 -0.009,0.052 -0.003,0.104 0,0.157 0.205,-0.524 1.005,-0.824 1.898,-0.68 z"
       adobe-blending-mode="overlay" /></g><g
     transform="matrix(1.1713555,0,0,1.1713555,0.13094632,-8.7734016)"
     id="g236"
     style="stroke:#000000"><path
       style="opacity:0.2;stroke:none"
       id="path237"
       d="m 21.391,33.075 c -0.905,0 -1.646,-0.425 -1.767,-0.974 -0.011,0.051 -0.024,0.102 -0.024,0.154 0,0.623 0.802,1.128 1.791,1.128 0.989,0 1.791,-0.505 1.791,-1.128 0,-0.053 -0.014,-0.104 -0.024,-0.154 -0.122,0.549 -0.863,0.974 -1.767,0.974 z"
       adobe-blending-mode="multiply" /><path
       style="opacity:0.5;fill:#ffffff;stroke:none"
       id="path238"
       d="m 21.598,31.056 c 0.894,0.145 1.558,0.682 1.588,1.242 0.02,-0.048 0.041,-0.096 0.049,-0.148 0.1,-0.613 -0.611,-1.24 -1.587,-1.398 -0.977,-0.158 -1.849,0.212 -1.948,0.827 -0.009,0.052 -0.003,0.104 0,0.156 0.205,-0.523 1.005,-0.824 1.898,-0.679 z"
       adobe-blending-mode="overlay" /></g><g
     transform="matrix(1.1713555,0,0,1.1713555,0.13094632,-8.7734016)"
     id="g239"
     style="stroke:#000000"><path
       style="opacity:0.2;stroke:none"
       id="path240"
       d="m 35.142,21.027 c -0.905,0 -1.646,-0.424 -1.766,-0.974 -0.012,0.051 -0.025,0.102 -0.025,0.155 0,0.623 0.802,1.127 1.791,1.127 0.989,0 1.791,-0.505 1.791,-1.127 0,-0.053 -0.013,-0.104 -0.024,-0.155 -0.121,0.55 -0.862,0.974 -1.767,0.974 z"
       adobe-blending-mode="multiply" /><path
       style="opacity:0.5;fill:#ffffff;stroke:none"
       id="path241"
       d="m 35.35,19.008 c 0.894,0.145 1.558,0.682 1.589,1.243 0.019,-0.048 0.04,-0.096 0.048,-0.148 0.1,-0.614 -0.61,-1.241 -1.588,-1.399 -0.976,-0.159 -1.849,0.212 -1.948,0.827 -0.008,0.052 -0.003,0.104 0,0.156 0.206,-0.523 1.005,-0.824 1.899,-0.679 z"
       adobe-blending-mode="overlay" /></g></g><g
   id="g2459"
   transform="matrix(0.5238317,0,0,0.5238317,0,-5.238317)"><path
     id="path2461"
     d="M 32,10 C 48,12 60,20 60,32 60,44 48,52 32,54 52,54 64,44 64,32 64,20 52,10 32,10 z"
     style="fill:#010101;fill-opacity:0.49409999" /><path
     id="path2463"
     d="M 31,12 C 16,12 2,20 2,32 2,44 16,52 31,52 46,52 60,44 60,32 60,20 46,12 31,12 z m 0,14 c -4,0 -6,2 -6,4 0,2 2,4 6,4 4,0 6,-2 6,-4 0,-2 -2,-4 -6,-4 z"
     style="fill:none;stroke:#000000;stroke-width:4" /><linearGradient
     y2="3.2"
     x2="-3.6400001"
     y1="67.690002"
     x1="4.6399999"
     gradientUnits="userSpaceOnUse"
     id="linearGradient3258"><stop
       id="stop3260"
       stop-color="#f1f1f1"
       offset="0" /><stop
       id="stop3262"
       stop-color="#d9ddf4"
       offset="0.2121" /><stop
       id="stop3264"
       stop-color="#9996b9"
       offset="0.5416" /><stop
       id="stop3266"
       stop-color="#b8bedb"
       offset="0.7083" /><stop
       id="stop3268"
       stop-color="#f4f4f4"
       offset="1" /></linearGradient><path
     id="path2476"
     d="M 31,12 C 16,12 2,20 2,32 2,44 16,52 31,52 46,52 60,44 60,32 60,20 46,12 31,12 z m 12,18 c 0,4 -4,8 -12,8 -8,0 -12,-4 -12,-8 0,-4 4,-7.5 12,-7.5 8,0 12,3.5 12,7.5 z"
     style="fill:url(#linearGradient3468)" /><path
     id="path2478"
     d="m 43,30 c 0,4 -4,8 -12,8 -8,0 -12,-4 -12,-8 0,-4 4,-7.5 12,-7.5 8,0 12,3.5 12,7.5 z M 31,26 c -4,0 -6,2 -6,4 0,2 2,4 6,4 4,0 6,-2 6,-4 0,-2 -2,-4 -6,-4 z"
     style="fill:#ebebeb;fill-opacity:0.81559999" /><linearGradient
     y2="6.6799998"
     x2="48.02"
     y1="-3.55"
     x1="6.8400002"
     gradientUnits="userSpaceOnUse"
     id="linearGradient3272"><stop
       id="stop3274"
       stop-color="#4137a9"
       offset="0" /><stop
       id="stop3276"
       stop-color="#b9b9b9"
       offset="1" /></linearGradient><path
     id="path2485"
     d="m 43,30 c 0,4 -4,8 -12,8 -8,0 -12,-4 -12,-8 0,-4 4,-7.5 12,-7.5 8,0 12,3.5 12,7.5 z"
     style="fill:none;stroke:url(#linearGradient3470);stroke-width:2" /></g></svg>