<?xml version="1.0" encoding="UTF-8" standalone="no"?>
<!-- Created with Sodipodi ("http://www.sodipodi.com/") -->

<svg
   xmlns:dc="http://purl.org/dc/elements/1.1/"
   xmlns:cc="http://creativecommons.org/ns#"
   xmlns:rdf="http://www.w3.org/1999/02/22-rdf-syntax-ns#"
   xmlns:svg="http://www.w3.org/2000/svg"
   xmlns="http://www.w3.org/2000/svg"
   xmlns:xlink="http://www.w3.org/1999/xlink"
   xmlns:sodipodi="http://sodipodi.sourceforge.net/DTD/sodipodi-0.dtd"
   xmlns:inkscape="http://www.inkscape.org/namespaces/inkscape"
   width="48pt"
   height="48pt"
   viewBox="0 0 51.2 51.2"
   overflow="visible"
   enable-background="new 0 0 51.2 51.2"
   xml:space="preserve"
   id="svg153"
   sodipodi:version="0.33"
   sodipodi:docname="drum2.svg"
   version="1.1"
   inkscape:version="0.91 r13725"><defs
     id="defs243"><linearGradient
       gradientTransform="matrix(0.47160291,0,0,0.47160291,-117.59287,-103.50589)"
       inkscape:collect="always"
       xlink:href="#linearGradient6733"
       id="linearGradient6739"
       x1="274.98691"
       y1="282.76776"
       x2="343.35202"
       y2="282.76776"
       gradientUnits="userSpaceOnUse" /><linearGradient
       inkscape:collect="always"
       id="linearGradient6733"><stop
         style="stop-color:#003fff;stop-opacity:1;"
         offset="0"
         id="stop6735" /><stop
         id="stop6741"
         offset="0.83304459"
         style="stop-color:#0029a7;stop-opacity:1;" /><stop
         style="stop-color:#001d72;stop-opacity:1"
         offset="1"
         id="stop6737" /></linearGradient><pattern
       inkscape:collect="always"
       xlink:href="#Strips1_2-2-5"
       id="pattern6486-8-4"
       patternTransform="matrix(0.23001499,0,0,0.88156376,17.637024,-4.917218)" /><pattern
       inkscape:stockid="Stripes 1:2"
       id="Strips1_2-2-5"
       patternTransform="translate(0,0) scale(10,10)"
       height="1"
       width="3"
       patternUnits="userSpaceOnUse"
       inkscape:collect="always"><rect
         id="rect5004-1-1"
         height="2"
         width="1"
         y="-0.5"
         x="0"
         style="fill:black;stroke:none" /></pattern><pattern
       inkscape:collect="always"
       xlink:href="#Strips1_2-6"
       id="pattern6486-9"
       patternTransform="matrix(0.23001499,0,0,0.88156376,-2.515158,-6.9142206)" /><pattern
       inkscape:stockid="Stripes 1:2"
       id="Strips1_2-6"
       patternTransform="translate(0,0) scale(10,10)"
       height="1"
       width="3"
       patternUnits="userSpaceOnUse"
       inkscape:collect="always"><rect
         id="rect5004-4"
         height="2"
         width="1"
         y="-0.5"
         x="0"
         style="fill:black;stroke:none" /></pattern><pattern
       inkscape:collect="always"
       xlink:href="#Strips1_2-2"
       id="pattern6486-8"
       patternTransform="matrix(0.23001499,0,0,0.88156376,17.969654,8.3302891)" /><pattern
       inkscape:stockid="Stripes 1:2"
       id="Strips1_2-2"
       patternTransform="translate(0,0) scale(10,10)"
       height="1"
       width="3"
       patternUnits="userSpaceOnUse"
       inkscape:collect="always"><rect
         id="rect5004-1"
         height="2"
         width="1"
         y="-0.5"
         x="0"
         style="fill:black;stroke:none" /></pattern><pattern
       inkscape:collect="always"
       xlink:href="#Strips1_2"
       id="pattern6486"
       patternTransform="matrix(0.23001499,0,0,0.88156376,-2.7826672,6.0640139)" /><pattern
       inkscape:stockid="Stripes 1:2"
       id="Strips1_2"
       patternTransform="translate(0,0) scale(10,10)"
       height="1"
       width="3"
       patternUnits="userSpaceOnUse"
       inkscape:collect="always"><rect
         id="rect5004"
         height="2"
         width="1"
         y="-0.5"
         x="0"
         style="fill:black;stroke:none" /></pattern><linearGradient
       gradientTransform="matrix(0.47160291,0,0,0.47160291,-117.59287,-103.50589)"
       inkscape:collect="always"
       xlink:href="#linearGradient6733"
       id="linearGradient6749"
       x1="274.23108"
       y1="311.8273"
       x2="343.93433"
       y2="311.8273"
       gradientUnits="userSpaceOnUse" /><linearGradient
       gradientTransform="matrix(0.47160291,0,0,0.47160291,-117.59287,-103.50589)"
       inkscape:collect="always"
       xlink:href="#linearGradient6659"
       id="linearGradient6665"
       x1="274.98767"
       y1="298.82648"
       x2="342.84665"
       y2="298.82648"
       gradientUnits="userSpaceOnUse" /><linearGradient
       inkscape:collect="always"
       id="linearGradient6659"><stop
         style="stop-color:#ff0000;stop-opacity:1;"
         offset="0"
         id="stop6661" /><stop
         id="stop6667"
         offset="0.74546456"
         style="stop-color:#ba0000;stop-opacity:1;" /><stop
         style="stop-color:#8e0000;stop-opacity:1"
         offset="1"
         id="stop6663" /></linearGradient><radialGradient
       inkscape:collect="always"
       xlink:href="#linearGradient6733"
       id="radialGradient6767"
       cx="309.23669"
       cy="272.66397"
       fx="309.23669"
       fy="272.66397"
       r="34.062012"
       gradientTransform="matrix(0.47160291,0,0,0.13106978,-117.59287,-10.654776)"
       gradientUnits="userSpaceOnUse" /><radialGradient
       inkscape:collect="always"
       xlink:href="#linearGradient6777"
       id="radialGradient6791"
       cx="265.61575"
       cy="322.51654"
       fx="265.61575"
       fy="322.51654"
       r="4.6983762"
       gradientTransform="matrix(-0.12996937,0.35725167,-0.2719689,-0.09894321,88.037016,-39.128618)"
       gradientUnits="userSpaceOnUse" /><linearGradient
       inkscape:collect="always"
       id="linearGradient6777"><stop
         style="stop-color:#ffd6d6;stop-opacity:1"
         offset="0"
         id="stop6779" /><stop
         style="stop-color:#bd001a;stop-opacity:1"
         offset="1"
         id="stop6781" /></linearGradient><linearGradient
       gradientTransform="matrix(0.47160291,0,0,0.47160291,-117.59287,-103.50589)"
       inkscape:collect="always"
       xlink:href="#linearGradient6769"
       id="linearGradient6775"
       x1="275.24017"
       y1="298.44418"
       x2="342.7226"
       y2="298.44418"
       gradientUnits="userSpaceOnUse" /><linearGradient
       inkscape:collect="always"
       id="linearGradient6769"><stop
         style="stop-color:#fff7a8;stop-opacity:1"
         offset="0"
         id="stop6771" /><stop
         style="stop-color:#ffe567;stop-opacity:1"
         offset="1"
         id="stop6773" /></linearGradient><radialGradient
       inkscape:collect="always"
       xlink:href="#linearGradient6777"
       id="radialGradient6783"
       cx="297.23865"
       cy="272.00595"
       fx="297.23865"
       fy="272.00595"
       r="4.7029715"
       gradientTransform="matrix(0.04075586,0.3711439,-0.45375137,0.04982712,61.565884,-102.37764)"
       gradientUnits="userSpaceOnUse" /><radialGradient
       inkscape:collect="always"
       xlink:href="#linearGradient6751"
       id="radialGradient6757"
       cx="303.85815"
       cy="278.34735"
       fx="303.85815"
       fy="278.34735"
       r="29.245344"
       gradientTransform="matrix(0.47160291,0,0,0.09264751,-117.59287,0.27032726)"
       gradientUnits="userSpaceOnUse" /><linearGradient
       inkscape:collect="always"
       id="linearGradient6751"><stop
         style="stop-color:#e8be8a;stop-opacity:1"
         offset="0"
         id="stop6753" /><stop
         style="stop-color:#aa8050;stop-opacity:1"
         offset="1"
         id="stop6755" /></linearGradient></defs><sodipodi:namedview
     id="base"
     showgrid="false"
     showguides="true"
     inkscape:guide-bbox="true"
     inkscape:zoom="11.125147"
     inkscape:cx="51.116854"
     inkscape:cy="31.695333"
     inkscape:window-width="1918"
     inkscape:window-height="1020"
     inkscape:window-x="2"
     inkscape:window-y="30"
     inkscape:window-maximized="1"
     inkscape:current-layer="svg153" /><metadata
     id="metadata154"><sfw><slices /><sliceSourceBounds
         y="393.899"
         x="270.9"
         width="51.2"
         height="51.2"
         bottomLeftOrigin="true" /></sfw><rdf:RDF><cc:Work
         rdf:about=""><dc:format>image/svg+xml</dc:format><dc:type
           rdf:resource="http://purl.org/dc/dcmitype/StillImage" /><dc:title></dc:title></cc:Work></rdf:RDF></metadata><path
     style="fill:#ffffff;fill-opacity:1;fill-rule:evenodd;stroke:#800080;stroke-width:0.16710339;stroke-linecap:butt;stroke-linejoin:miter;stroke-miterlimit:4;stroke-dasharray:none;stroke-opacity:1"
     d="m 12.52139,25.255622 30.905862,0.595493 c 0.674665,-0.671543 0.217439,-1.44226 0,-1.965117 -0.944064,-1.573438 -8.432823,-3.02472 -13.993984,-3.03699 -10.934493,-0.02415 -15.244509,2.203309 -15.244509,2.203309 -1.285475,0.942919 -1.464465,1.569697 -1.667369,2.203305 z"
     id="path5710"
     inkscape:connector-curvature="0"
     sodipodi:nodetypes="cccscc" /><path
     style="fill:url(#radialGradient6757);fill-opacity:1;fill-rule:evenodd;stroke:#000000;stroke-width:0.50131017;stroke-linecap:butt;stroke-linejoin:miter;stroke-miterlimit:4;stroke-dasharray:none;stroke-opacity:1"
     d="m 27.663226,23.214516 c 12.12636,0.387378 14.148088,2.231691 14.148088,2.231691 0,0 -2.54576,2.728609 -14.274415,2.652766 -12.774026,-0.0826 -12.70322,-2.537903 -12.70322,-2.537903 0,0 1.814128,-2.698445 12.829547,-2.346554 z"
     id="path4169"
     inkscape:connector-curvature="0"
     sodipodi:nodetypes="scscs" /><path
     style="fill:#00125f;fill-opacity:1;fill-rule:evenodd;stroke:#000000;stroke-width:0.50131017;stroke-linecap:butt;stroke-linejoin:miter;stroke-miterlimit:4;stroke-dasharray:none;stroke-opacity:1"
     d="m 14.898695,25.783672 c 0,0 0.22816,-2.613656 12.398262,-2.613656 10.98042,0 14.527052,2.568557 14.527052,2.568557 l 0.5895,-1.179013 c 0.106982,-0.965649 -7.907858,-3.220058 -15.074445,-2.652767 -7.018861,0.555596 -12.528175,0.842147 -13.348047,2.947518 z"
     id="path4167"
     inkscape:connector-curvature="0"
     sodipodi:nodetypes="csccscc" /><path
     style="fill:url(#linearGradient6775);fill-opacity:1;fill-rule:evenodd;stroke:#000000;stroke-width:0.50131017;stroke-linecap:butt;stroke-linejoin:miter;stroke-miterlimit:4;stroke-dasharray:none;stroke-opacity:1"
     d="m 12.461847,30.972318 0.05955,7.919996 c 0,0 3.569208,4.486834 15.661353,4.525713 10.298963,0.0331 15.601803,-4.883005 15.601803,-4.883005 l -0.05955,-7.205413 c 0,0 -4.213345,3.347946 -15.899549,3.334737 -13.696415,-0.01547 -15.363601,-3.692028 -15.363601,-3.692028 z"
     id="path4183"
     inkscape:connector-curvature="0"
     sodipodi:nodetypes="ccsccsc" /><path
     style="color:#000000;display:inline;overflow:visible;visibility:visible;opacity:1;fill:url(#radialGradient6767);fill-opacity:1;fill-rule:nonzero;stroke:#000000;stroke-width:0.50131017;stroke-linecap:round;stroke-linejoin:bevel;stroke-miterlimit:4;stroke-dasharray:none;stroke-dashoffset:0;stroke-opacity:1;marker:none;enable-background:accumulate"
     d="m 28.095191,20.869385 c -8.651788,-3.7e-5 -15.665238,1.886869 -15.664216,4.214319 0.0011,2.327083 7.013805,4.213409 15.664216,4.213371 8.650406,3.8e-5 15.961032,-2.005387 15.961962,-4.332469 0.0011,-2.32745 -7.310174,-4.095258 -15.961962,-4.095221 z m 0.132638,1.170641 c 7.55955,6.1e-5 13.688215,1.381707 13.690304,3.086335 2.2e-4,1.704996 -6.129118,3.087217 -13.690304,3.087278 -7.561545,5.1e-5 -13.691446,-1.382198 -13.691226,-3.087278 0.0017,-1.704708 6.131318,-3.086386 13.691226,-3.086335 z"
     id="path4147"
     inkscape:connector-curvature="0"
     sodipodi:nodetypes="scscsscscs" /><path
     inkscape:connector-curvature="0"
     id="path4210"
     style="fill:url(#linearGradient6665);fill-opacity:1;fill-rule:evenodd;stroke:#000000;stroke-width:0.50131017;stroke-linecap:butt;stroke-linejoin:bevel;stroke-miterlimit:4;stroke-dasharray:none;stroke-opacity:1"
     d="m 41.462139,40.08329 2.143761,-8.872779 0.238191,7.324511 c -0.461438,0.516089 -1.130737,1.032179 -2.381952,1.548268 z m -8.634584,2.858348 4.466164,-8.93233 4.16842,6.133532 c -2.349052,1.593272 -5.337848,2.311155 -8.634584,2.798798 z m -10.361501,0 5.299846,-7.920001 5.359395,7.860451 c -3.751282,0.559142 -7.212457,0.884129 -10.659241,0.05955 z m -8.217746,-2.858348 4.049321,-6.133531 4.585262,9.170527 c -2.98776,-0.720162 -6.097023,-1.116299 -8.634583,-3.036996 z m -1.786461,-8.813231 2.024658,9.051429 c -0.714589,-0.433517 -1.429173,-0.832083 -2.143756,-1.726916 z" /><path
     style="fill:url(#linearGradient6749);fill-opacity:1;fill-rule:evenodd;stroke:#000000;stroke-width:0.50131017;stroke-linecap:butt;stroke-linejoin:miter;stroke-miterlimit:4;stroke-dasharray:none;stroke-opacity:1"
     d="m 12.342887,38.680389 c -0.625262,-1.607816 -0.238196,4.615036 -0.238196,4.615036 0,0 3.210239,5.539542 15.601803,5.418948 12.574351,-0.122371 16.018642,-3.989775 16.018642,-3.989775 0.501146,-0.367336 0.545585,-0.576195 0.565714,-1.131427 0.0099,-1.697143 0.264619,-6.27968 -0.297762,-4.972327 0,0 -5.924518,4.882379 -16.733231,4.793679 -3.976464,0.155248 -12.187655,-1.484845 -14.91697,-4.734134 z"
     id="path4181-5"
     inkscape:connector-curvature="0"
     sodipodi:nodetypes="ccsccccc" /><path
     style="fill:url(#pattern6486);fill-opacity:1;fill-rule:evenodd;stroke:none;stroke-width:1px;stroke-linecap:butt;stroke-linejoin:miter;stroke-opacity:1"
     d="m 11.929503,38.499501 c 2.354717,2.362981 4.423378,2.723592 6.568758,3.621237 l -0.252648,5.137104 c -2.035291,-0.464043 -4.141184,-1.563576 -6.400324,-4.042311 z"
     id="path6480"
     inkscape:connector-curvature="0"
     sodipodi:nodetypes="ccccc" /><path
     style="fill:url(#pattern6486-8);fill-opacity:1;fill-rule:evenodd;stroke:none;stroke-width:1px;stroke-linecap:butt;stroke-linejoin:miter;stroke-opacity:1"
     d="m 32.562726,43.02863 c 6.523136,-0.73356 9.187288,-2.754902 11.570859,-4.001018 l 0.104642,5.256204 c -2.273482,1.441519 -5.808553,3.319433 -11.640622,3.937238 z"
     id="path6480-7"
     inkscape:connector-curvature="0"
     sodipodi:nodetypes="ccccc" /><path
     style="fill:url(#pattern6486-9);fill-opacity:1;fill-rule:evenodd;stroke:none;stroke-width:1px;stroke-linecap:butt;stroke-linejoin:miter;stroke-opacity:1"
     d="m 12.197017,25.521267 c 2.354712,2.362981 4.661575,2.009005 6.80695,2.906649 l -0.490845,5.375303 c -2.035285,-0.464044 -4.141184,-1.087187 -6.400318,-3.565922 z"
     id="path6480-0"
     inkscape:connector-curvature="0"
     sodipodi:nodetypes="ccccc" /><path
     style="fill:url(#pattern6486-8-4);fill-opacity:1;fill-rule:evenodd;stroke:none;stroke-width:1px;stroke-linecap:butt;stroke-linejoin:miter;stroke-opacity:1"
     d="m 31.991901,29.066537 c 6.523136,-0.01896 9.425489,-1.206628 11.809055,-3.286431 l 0.104653,5.256203 c -2.868973,1.203324 -5.808553,2.723946 -11.640622,3.341751 z"
     id="path6480-7-2"
     inkscape:connector-curvature="0"
     sodipodi:nodetypes="ccccc" /><g
     id="g7746"
     transform="matrix(0.99856416,-0.49498737,0.49498737,0.99856416,55.682567,-19.302499)"><path
       inkscape:connector-curvature="0"
       id="path4235-2"
       d="m -32.568056,25.136728 a 1.9234913,1.7632002 80.127584 0 1 -1.407298,2.197319 1.9234913,1.7632002 80.127584 0 1 -2.066885,-1.5927 1.9234913,1.7632002 80.127584 0 1 1.407298,-2.197319 1.9234913,1.7632002 80.127584 0 1 2.066885,1.5927 z"
       style="color:#000000;display:inline;overflow:visible;visibility:visible;opacity:1;fill:url(#radialGradient6791);fill-opacity:1;fill-rule:nonzero;stroke:#000000;stroke-width:0.44980136;stroke-linecap:round;stroke-linejoin:bevel;stroke-miterlimit:4;stroke-dasharray:none;stroke-dashoffset:0;stroke-opacity:1;marker:none;enable-background:accumulate" /><path
       sodipodi:nodetypes="ccccc"
       inkscape:connector-curvature="0"
       id="path4171-7"
       d="m -14.925735,19.64277 c 0.76932,-0.108063 0.495642,-1.232041 -0.333685,-1.029138 l -17.519467,5.760208 c 0.182249,0.431762 0.273311,0.838355 0.24394,1.129039 z"
       style="fill:#8a4708;fill-opacity:1;fill-rule:evenodd;stroke:#000000;stroke-width:0.42314649px;stroke-linecap:butt;stroke-linejoin:miter;stroke-opacity:1" /><path
       inkscape:connector-curvature="0"
       id="path6560-3"
       d="m -35.536724,25.492462 a 0.15760592,0.15760592 0 0 1 -0.157604,0.157604 0.15760592,0.15760592 0 0 1 -0.157609,-0.157604 0.15760592,0.15760592 0 0 1 0.157609,-0.15761 0.15760592,0.15760592 0 0 1 0.157604,0.15761 z"
       style="color:#000000;display:inline;overflow:visible;visibility:visible;opacity:1;fill:#000000;fill-opacity:1;fill-rule:nonzero;stroke:none;stroke-width:1.0629921;stroke-linecap:round;stroke-linejoin:bevel;stroke-miterlimit:4;stroke-dasharray:none;stroke-dashoffset:0;stroke-opacity:1;marker:none;enable-background:accumulate" /><path
       inkscape:connector-curvature="0"
       id="path6560-34"
       d="m -35.429863,26.000051 a 0.15760592,0.15760592 0 0 1 -0.157604,0.157605 0.15760592,0.15760592 0 0 1 -0.157609,-0.157605 0.15760592,0.15760592 0 0 1 0.157609,-0.157609 0.15760592,0.15760592 0 0 1 0.157604,0.157609 z"
       style="color:#000000;display:inline;overflow:visible;visibility:visible;opacity:1;fill:#000000;fill-opacity:1;fill-rule:nonzero;stroke:none;stroke-width:1.0629921;stroke-linecap:round;stroke-linejoin:bevel;stroke-miterlimit:4;stroke-dasharray:none;stroke-dashoffset:0;stroke-opacity:1;marker:none;enable-background:accumulate" /><path
       inkscape:connector-curvature="0"
       id="path6560-4"
       d="m -34.922276,26.58778 a 0.15760592,0.15760592 0 0 1 -0.157609,0.157605 0.15760592,0.15760592 0 0 1 -0.157604,-0.157605 0.15760592,0.15760592 0 0 1 0.157604,-0.157609 0.15760592,0.15760592 0 0 1 0.157609,0.157609 z"
       style="color:#000000;display:inline;overflow:visible;visibility:visible;opacity:1;fill:#000000;fill-opacity:1;fill-rule:nonzero;stroke:none;stroke-width:1.0629921;stroke-linecap:round;stroke-linejoin:bevel;stroke-miterlimit:4;stroke-dasharray:none;stroke-dashoffset:0;stroke-opacity:1;marker:none;enable-background:accumulate" /><path
       inkscape:connector-curvature="0"
       id="path6560-32"
       d="m -34.334545,26.58778 a 0.15760592,0.15760592 0 0 1 -0.157604,0.157605 0.15760592,0.15760592 0 0 1 -0.157604,-0.157605 0.15760592,0.15760592 0 0 1 0.157604,-0.157609 0.15760592,0.15760592 0 0 1 0.157604,0.157609 z"
       style="color:#000000;display:inline;overflow:visible;visibility:visible;opacity:1;fill:#000000;fill-opacity:1;fill-rule:nonzero;stroke:none;stroke-width:1.0629921;stroke-linecap:round;stroke-linejoin:bevel;stroke-miterlimit:4;stroke-dasharray:none;stroke-dashoffset:0;stroke-opacity:1;marker:none;enable-background:accumulate" /><path
       inkscape:connector-curvature="0"
       id="path6560-15"
       d="m -35.269577,26.374061 a 0.15760592,0.15760592 0 0 1 -0.157604,0.157606 0.15760592,0.15760592 0 0 1 -0.157604,-0.157606 0.15760592,0.15760592 0 0 1 0.157604,-0.157609 0.15760592,0.15760592 0 0 1 0.157604,0.157609 z"
       style="color:#000000;display:inline;overflow:visible;visibility:visible;opacity:1;fill:#000000;fill-opacity:1;fill-rule:nonzero;stroke:none;stroke-width:1.0629921;stroke-linecap:round;stroke-linejoin:bevel;stroke-miterlimit:4;stroke-dasharray:none;stroke-dashoffset:0;stroke-opacity:1;marker:none;enable-background:accumulate" /><path
       inkscape:connector-curvature="0"
       id="path6560-157"
       d="m -34.922276,26.133626 a 0.15760592,0.15760592 0 0 1 -0.157609,0.157605 0.15760592,0.15760592 0 0 1 -0.157604,-0.157605 0.15760592,0.15760592 0 0 1 0.157604,-0.15761 0.15760592,0.15760592 0 0 1 0.157609,0.15761 z"
       style="color:#000000;display:inline;overflow:visible;visibility:visible;opacity:1;fill:#000000;fill-opacity:1;fill-rule:nonzero;stroke:none;stroke-width:1.0629921;stroke-linecap:round;stroke-linejoin:bevel;stroke-miterlimit:4;stroke-dasharray:none;stroke-dashoffset:0;stroke-opacity:1;marker:none;enable-background:accumulate" /></g><g
     id="g7732"
     transform="matrix(1.0788576,0.27965911,-0.27965911,1.0788576,82.419046,13.52284)"><path
       inkscape:connector-curvature="0"
       id="path4235"
       d="m -47.936909,22.898317 a 1.7632002,1.9234913 6.1151125 0 1 -1.958071,1.724716 1.7632002,1.9234913 6.1151125 0 1 -1.548265,-2.100368 1.7632002,1.9234913 6.1151125 0 1 1.958076,-1.72472 1.7632002,1.9234913 6.1151125 0 1 1.54826,2.100372 z"
       style="color:#000000;display:inline;overflow:visible;visibility:visible;opacity:1;fill:url(#radialGradient6783);fill-opacity:1;fill-rule:nonzero;stroke:#000000;stroke-width:0.44980136;stroke-linecap:round;stroke-linejoin:bevel;stroke-miterlimit:4;stroke-dasharray:none;stroke-dashoffset:0;stroke-opacity:1;marker:none;enable-background:accumulate" /><g
       style="fill:#8a4708;fill-opacity:1;stroke:#000000;stroke-opacity:1"
       transform="matrix(0.42314646,0,0,0.42314646,-176.27844,-93.351057)"
       id="g4177"><path
         style="fill:#8a4708;fill-opacity:1;fill-rule:evenodd;stroke:#000000;stroke-width:1px;stroke-linecap:butt;stroke-linejoin:miter;stroke-opacity:1"
         d="m 249.82143,262.54077 c -1.7015,-0.68965 -2.47221,1.93331 -0.53572,2.5 l 45.49688,9.78445 c -0.14247,-0.85077 0.0908,-1.95407 0.44643,-2.80483 z"
         id="path4171"
         inkscape:connector-curvature="0"
         sodipodi:nodetypes="ccccc" /></g><path
       inkscape:connector-curvature="0"
       id="path6560"
       d="m -48.730215,23.309264 a 0.15760592,0.15760592 0 0 1 -0.157604,0.157606 0.15760592,0.15760592 0 0 1 -0.157604,-0.157606 0.15760592,0.15760592 0 0 1 0.157604,-0.157609 0.15760592,0.15760592 0 0 1 0.157604,0.157609 z"
       style="color:#000000;display:inline;overflow:visible;visibility:visible;opacity:1;fill:#000000;fill-opacity:1;fill-rule:nonzero;stroke:none;stroke-width:1.0629921;stroke-linecap:round;stroke-linejoin:bevel;stroke-miterlimit:4;stroke-dasharray:none;stroke-dashoffset:0;stroke-opacity:1;marker:none;enable-background:accumulate" /><path
       inkscape:connector-curvature="0"
       id="path6560-8"
       d="m -48.998161,23.698953 a 0.15760592,0.15760592 0 0 1 -0.157609,0.157605 0.15760592,0.15760592 0 0 1 -0.157603,-0.157605 0.15760592,0.15760592 0 0 1 0.157603,-0.157609 0.15760592,0.15760592 0 0 1 0.157609,0.157609 z"
       style="color:#000000;display:inline;overflow:visible;visibility:visible;opacity:1;fill:#000000;fill-opacity:1;fill-rule:nonzero;stroke:none;stroke-width:1.0629921;stroke-linecap:round;stroke-linejoin:bevel;stroke-miterlimit:4;stroke-dasharray:none;stroke-dashoffset:0;stroke-opacity:1;marker:none;enable-background:accumulate" /><path
       inkscape:connector-curvature="0"
       id="path6560-0"
       d="m -48.437148,23.698953 a 0.15760592,0.15760592 0 0 1 -0.157604,0.157605 0.15760592,0.15760592 0 0 1 -0.157604,-0.157605 0.15760592,0.15760592 0 0 1 0.157604,-0.157609 0.15760592,0.15760592 0 0 1 0.157604,0.157609 z"
       style="color:#000000;display:inline;overflow:visible;visibility:visible;opacity:1;fill:#000000;fill-opacity:1;fill-rule:nonzero;stroke:none;stroke-width:1.0629921;stroke-linecap:round;stroke-linejoin:bevel;stroke-miterlimit:4;stroke-dasharray:none;stroke-dashoffset:0;stroke-opacity:1;marker:none;enable-background:accumulate" /><path
       inkscape:connector-curvature="0"
       id="path6560-1"
       d="m -48.357005,23.244798 a 0.15760592,0.15760592 0 0 1 -0.157603,0.157605 0.15760592,0.15760592 0 0 1 -0.157604,-0.157605 0.15760592,0.15760592 0 0 1 0.157604,-0.157609 0.15760592,0.15760592 0 0 1 0.157603,0.157609 z"
       style="color:#000000;display:inline;overflow:visible;visibility:visible;opacity:1;fill:#000000;fill-opacity:1;fill-rule:nonzero;stroke:none;stroke-width:1.0629921;stroke-linecap:round;stroke-linejoin:bevel;stroke-miterlimit:4;stroke-dasharray:none;stroke-dashoffset:0;stroke-opacity:1;marker:none;enable-background:accumulate" /><path
       inkscape:connector-curvature="0"
       id="path6560-85"
       d="m -48.811156,24.04625 a 0.15760592,0.15760592 0 0 1 -0.157604,0.157605 0.15760592,0.15760592 0 0 1 -0.157609,-0.157605 0.15760592,0.15760592 0 0 1 0.157609,-0.157609 0.15760592,0.15760592 0 0 1 0.157604,0.157609 z"
       style="color:#000000;display:inline;overflow:visible;visibility:visible;opacity:1;fill:#000000;fill-opacity:1;fill-rule:nonzero;stroke:none;stroke-width:1.0629921;stroke-linecap:round;stroke-linejoin:bevel;stroke-miterlimit:4;stroke-dasharray:none;stroke-dashoffset:0;stroke-opacity:1;marker:none;enable-background:accumulate" /><path
       inkscape:connector-curvature="0"
       id="path6560-6"
       d="m -48.089847,22.897501 a 0.15760592,0.15760592 0 0 1 -0.157609,0.157605 0.15760592,0.15760592 0 0 1 -0.157604,-0.157605 0.15760592,0.15760592 0 0 1 0.157604,-0.15761 0.15760592,0.15760592 0 0 1 0.157609,0.15761 z"
       style="color:#000000;display:inline;overflow:visible;visibility:visible;opacity:1;fill:#000000;fill-opacity:1;fill-rule:nonzero;stroke:none;stroke-width:1.0629921;stroke-linecap:round;stroke-linejoin:bevel;stroke-miterlimit:4;stroke-dasharray:none;stroke-dashoffset:0;stroke-opacity:1;marker:none;enable-background:accumulate" /><path
       inkscape:connector-curvature="0"
       id="path6560-65"
       d="m -49.265318,24.126398 a 0.15760592,0.15760592 0 0 1 -0.157604,0.157605 0.15760592,0.15760592 0 0 1 -0.157604,-0.157605 0.15760592,0.15760592 0 0 1 0.157604,-0.157609 0.15760592,0.15760592 0 0 1 0.157604,0.157609 z"
       style="color:#000000;display:inline;overflow:visible;visibility:visible;opacity:1;fill:#000000;fill-opacity:1;fill-rule:nonzero;stroke:none;stroke-width:1.0629921;stroke-linecap:round;stroke-linejoin:bevel;stroke-miterlimit:4;stroke-dasharray:none;stroke-dashoffset:0;stroke-opacity:1;marker:none;enable-background:accumulate" /><path
       inkscape:connector-curvature="0"
       id="path6560-2"
       d="m -49.71947,24.099681 a 0.15760592,0.15760592 0 0 1 -0.157604,0.157605 0.15760592,0.15760592 0 0 1 -0.157609,-0.157605 0.15760592,0.15760592 0 0 1 0.157609,-0.15761 0.15760592,0.15760592 0 0 1 0.157604,0.15761 z"
       style="color:#000000;display:inline;overflow:visible;visibility:visible;opacity:1;fill:#000000;fill-opacity:1;fill-rule:nonzero;stroke:none;stroke-width:1.0629921;stroke-linecap:round;stroke-linejoin:bevel;stroke-miterlimit:4;stroke-dasharray:none;stroke-dashoffset:0;stroke-opacity:1;marker:none;enable-background:accumulate" /><path
       inkscape:connector-curvature="0"
       id="path6560-9"
       d="m -49.452322,23.832532 a 0.15760592,0.15760592 0 0 1 -0.157604,0.157605 0.15760592,0.15760592 0 0 1 -0.157604,-0.157605 0.15760592,0.15760592 0 0 1 0.157604,-0.15761 0.15760592,0.15760592 0 0 1 0.157604,0.15761 z"
       style="color:#000000;display:inline;overflow:visible;visibility:visible;opacity:1;fill:#000000;fill-opacity:1;fill-rule:nonzero;stroke:none;stroke-width:1.0629921;stroke-linecap:round;stroke-linejoin:bevel;stroke-miterlimit:4;stroke-dasharray:none;stroke-dashoffset:0;stroke-opacity:1;marker:none;enable-background:accumulate" /></g><path
     sodipodi:nodetypes="ccscccsc"
     inkscape:connector-curvature="0"
     id="path6721"
     d="m 12.402292,24.898331 -0.05955,5.77624 c 0,0 1.066478,4.050819 15.304052,3.930227 12.5745,-0.106503 16.137745,-3.394287 16.137745,-3.394287 0.322494,0.04951 0.277612,-0.635745 0.297741,-1.190977 l 5e-6,-5.121203 c 0,0 -0.06908,4.291748 -16.673687,4.347067 C 13.485592,29.291808 12.40229,24.898331 12.40229,24.898331 Z"
     style="fill:url(#linearGradient6739);fill-opacity:1;fill-rule:evenodd;stroke:#000000;stroke-width:0.50131017;stroke-linecap:butt;stroke-linejoin:miter;stroke-miterlimit:4;stroke-dasharray:none;stroke-opacity:1" /></svg>