<?xml version="1.0" encoding="UTF-8" standalone="no"?>
<!-- Created with Inkscape (http://www.inkscape.org/) -->

<svg
   xmlns:dc="http://purl.org/dc/elements/1.1/"
   xmlns:cc="http://creativecommons.org/ns#"
   xmlns:rdf="http://www.w3.org/1999/02/22-rdf-syntax-ns#"
   xmlns:svg="http://www.w3.org/2000/svg"
   xmlns="http://www.w3.org/2000/svg"
   xmlns:sodipodi="http://sodipodi.sourceforge.net/DTD/sodipodi-0.dtd"
   xmlns:inkscape="http://www.inkscape.org/namespaces/inkscape"
   width="48"
   height="48"
   id="svg1872"
   sodipodi:version="0.32"
   inkscape:version="0.47 r22583"
   sodipodi:docname="grace.svg"
   inkscape:export-filename="/home/george/debian/pkg-grace/grace-5.1.20/debian/grace32.png"
   inkscape:export-xdpi="60"
   inkscape:export-ydpi="60"
   version="1.0">
  <defs
     id="defs1874">
    <inkscape:perspective
       sodipodi:type="inkscape:persp3d"
       inkscape:vp_x="0 : 24 : 1"
       inkscape:vp_y="0 : 1000 : 0"
       inkscape:vp_z="48 : 24 : 1"
       inkscape:persp3d-origin="24 : 16 : 1"
       id="perspective36" />
  </defs>
  <sodipodi:namedview
     id="base"
     pagecolor="#ffffff"
     bordercolor="#666666"
     borderopacity="1.0"
     inkscape:pageopacity="0.0"
     inkscape:pageshadow="2"
     inkscape:zoom="16.541667"
     inkscape:cx="24"
     inkscape:cy="24.146988"
     inkscape:current-layer="layer1"
     showgrid="true"
     inkscape:document-units="px"
     inkscape:grid-bbox="true"
     inkscape:window-width="1280"
     inkscape:window-height="800"
     inkscape:window-x="-4"
     inkscape:window-y="-26"
     width="48px"
     height="48px"
     inkscape:window-maximized="0" />
  <metadata
     id="metadata1877">
    <rdf:RDF>
      <cc:Work
         rdf:about="">
        <dc:format>image/svg+xml</dc:format>
        <dc:type
           rdf:resource="http://purl.org/dc/dcmitype/StillImage" />
        <dc:title></dc:title>
      </cc:Work>
    </rdf:RDF>
  </metadata>
  <g
     id="layer1"
     inkscape:label="Layer 1"
     inkscape:groupmode="layer">
    <g
       id="g2842"
       transform="matrix(1.2642037,0,0,1.2642037,-6.0731956,-2.9062405)">
      <rect
         y="11.500817"
         x="8.5008192"
         height="23.998363"
         width="30.998362"
         id="rect2789"
         style="fill:#bebebe;fill-opacity:1;stroke:#000000;stroke-width:1.00163829;stroke-linecap:round;stroke-linejoin:miter;stroke-miterlimit:4.4000001;stroke-opacity:1;stroke-dasharray:none;stroke-dashoffset:0" />
      <path
         id="path638"
         style="font-size:12px;fill:none;stroke:#ff1441;stroke-width:1.33718467;stroke-linecap:round"
         d="m 10.247619,31.626584 27.26989,-16.22698" />
      <path
         id="selection_to_path#28"
         style="font-size:12px;fill:#00aa18;stroke:#000000;stroke-width:0"
         d="m 11,18 c 0,0 0,1 0,1 0,0 3,0 3,0 0,0 0,-1 0,-1 0,0 -3,0 -3,0 z" />
      <path
         id="selection_to_path#27"
         style="font-size:12px;fill:#ff1441;stroke:#000000;stroke-width:0"
         d="m 11,16 c 0,0 0,1 0,1 0,0 3,0 3,0 0,0 0,-1 0,-1 0,0 -3,0 -3,0 z" />
      <path
         id="selection_to_path#26"
         style="font-size:12px;fill:#5151ff;stroke:#000000;stroke-width:0"
         d="m 11,14 c 0,0 0,1 0,1 0,0 3,0 3,0 0,0 0,-1 0,-1 0,0 -3,0 -3,0 z" />
      <path
         id="selection_to_path#25"
         style="font-size:12px;stroke:#000000;stroke-width:0"
         d="m 16,18 c 0,0 0,1 0,1 0,0 5,0 5,0 0,0 0,-1 0,-1 0,0 -5,0 -5,0 z" />
      <path
         id="selection_to_path#24"
         style="font-size:12px;stroke:#000000;stroke-width:0"
         d="m 16,16 c 0,0 0,1 0,1 0,0 5,0 5,0 0,0 0,-1 0,-1 0,0 -5,0 -5,0 z" />
      <path
         id="selection_to_path#23"
         style="font-size:12px;stroke:#000000;stroke-width:0"
         d="m 16,14 c 0,0 0,1 0,1 0,0 6,0 6,0 0,0 0,-1 0,-1 0,0 -6,0 -6,0 z" />
      <path
         id="selection_to_path#22"
         style="font-size:12px;stroke:#000000;stroke-width:0"
         d="m 39,37 c 0,0 0,1 0,1 0,0 1,0 1,0 0,0 0,-1 0,-1 0,0 -1,0 -1,0 z" />
      <path
         id="selection_to_path#21"
         style="font-size:12px;stroke:#000000;stroke-width:0"
         d="m 34,37 c 0,0 0,1 0,1 0,0 1,0 1,0 0,0 0,-1 0,-1 0,0 -1,0 -1,0 z" />
      <path
         id="selection_to_path#20"
         style="font-size:12px;stroke:#000000;stroke-width:0"
         d="m 29,37 c 0,0 0,1 0,1 0,0 1,0 1,0 0,0 0,-1 0,-1 0,0 -1,0 -1,0 z" />
      <path
         id="selection_to_path#19"
         style="font-size:12px;stroke:#000000;stroke-width:0"
         d="m 23.999976,37 c 0,0 0,1 0,1 0,0 1,0 1,0 0,0 0,-1 0,-1 0,0 -1,0 -1,0 z" />
      <path
         id="selection_to_path#18"
         style="font-size:12px;stroke:#000000;stroke-width:0"
         d="m 19,37 c 0,0 0,1 0,1 0,0 1,0 1,0 0,0 0,-1 0,-1 0,0 -1,0 -1,0 z" />
      <path
         id="selection_to_path#17"
         style="font-size:12px;stroke:#000000;stroke-width:0"
         d="m 14,37 c 0,0 0,1 0,1 0,0 1,0 1,0 0,0 0,-1 0,-1 0,0 -1,0 -1,0 z" />
      <path
         id="selection_to_path#16"
         style="font-size:12px;stroke:#000000;stroke-width:0"
         d="m 9,37 c 0,0 0,1 0,1 0,0 1,0 1,0 0,0 0,-1 0,-1 0,0 -1,0 -1,0 z" />
      <path
         id="selection_to_path#15"
         style="font-size:12px;stroke:#000000;stroke-width:0"
         d="m 5.9735802,34.020785 c 0,0 0,1 0,1 0,0 1,0 1,0 0,0 0,-1 0,-1 0,0 -1,0 -1,0 z" />
      <path
         id="selection_to_path#14"
         style="font-size:12px;stroke:#000000;stroke-width:0"
         d="m 5.9735802,29.011753 c 0,0 0,1 0,1 0,0 1,0 1,0 0,0 0,-1 0,-1 0,0 -1,0 -1,0 z" />
      <path
         id="selection_to_path#13"
         style="font-size:12px;stroke:#000000;stroke-width:0"
         d="m 5.9735802,24.002721 c 0,0 0,1 0,1 0,0 1,0 1,0 0,0 0,-1 0,-1 0,0 -1,0 -1,0 z" />
      <path
         id="selection_to_path#12"
         style="font-size:12px;stroke:#000000;stroke-width:0"
         d="m 5.9735802,18.993688 c 0,0 0,1 0,1 0,0 1,0 1,0 0,0 0,-1 0,-1 0,0 -1,0 -1,0 z" />
      <path
         id="selection_to_path#11"
         style="font-size:12px;stroke:#000000;stroke-width:0"
         d="m 5.9735802,13.984656 c 0,0 0,1 0,1 0,0 1,0 1,0 0,0 0,-1 0,-1 0,0 -1,0 -1,0 z" />
      <path
         id="selection_to_path#7"
         style="font-size:12px;fill:#00aa18;stroke:#000000;stroke-width:0"
         d="m 31,27 c 0,0 0,8 0,8 0,0 5,0 5,0 0,0 0,-8 0,-8 0,0 -5,0 -5,0 z" />
      <path
         id="selection_to_path#6"
         style="font-size:12px;fill:#00aa18;stroke:#000000;stroke-width:0"
         d="m 23.999976,29 c 0,0 0,6 0,6 0,0 5,0 5,0 0,0 0,-6 0,-6 0,0 -5,0 -5,0 z" />
      <path
         id="selection_to_path#5"
         style="font-size:12px;fill:#00aa18;stroke:#000000;stroke-width:0"
         d="m 17,31 c 0,0 0,4 0,4 0,0 5,0 5,0 0,0 0,-4 0,-4 0,0 -5,0 -5,0 z" />
      <path
         id="path1354"
         style="font-size:12px;fill:none;stroke:#5151ff;stroke-width:1.33722365;stroke-linecap:round;stroke-linejoin:round"
         d="m 10.445308,34.166274 6.061706,-11.957521 3.104626,7.690066 6.312022,-11.764253 2.085764,5.745991 7.492252,-10.679607 2.19298,5.749237" />
    </g>
  </g>
</svg>
