<?xml version="1.0" encoding="iso-8859-1"?>
<!-- Generator: Adobe Illustrator 9.0, SVG Export Plug-In  -->
<!DOCTYPE svg PUBLIC "-//W3C//DTD SVG 20000303 Stylable//EN"   "http://www.w3.org/TR/2000/03/WD-SVG-20000303/DTD/svg-20000303-stylable.dtd" [
	<!ENTITY st0 "fill:url(#aigrd1);stroke:none;">
	<!ENTITY st1 "fill:#000000;stroke:none;">
	<!ENTITY st2 "opacity:0.35;fill:#000000;stroke:none;">
	<!ENTITY st3 "opacity:0.72;stroke:none;">
	<!ENTITY st4 "opacity:0.5;fill:url(#aigrd5);stroke:none;">
	<!ENTITY st5 "opacity:0.3333;fill:url(#aigrd4);stroke:none;">
	<!ENTITY st6 "opacity:0.8333;fill:url(#aigrd7);stroke:none;">
	<!ENTITY st7 "fill-rule:nonzero;clip-rule:nonzero;fill:#FFFFFF;stroke:#000000;stroke-miterlimit:4;">
	<!ENTITY st8 "fill:url(#aigrd8);stroke:none;">
	<!ENTITY st9 "opacity:0.1667;fill:url(#aigrd3);stroke:none;">
	<!ENTITY st10 "opacity:0.6667;fill:url(#aigrd6);stroke:none;">
	<!ENTITY st11 "fill:none;stroke:none;">
	<!ENTITY st12 "opacity:0;fill:url(#aigrd2);stroke:none;">
	<!ENTITY st13 "fill-rule:nonzero;clip-rule:nonzero;stroke:#000000;stroke-miterlimit:4;">
	<!ENTITY st14 "opacity:0.5;stroke:none;">
]>
<svg  width="52pt" height="48pt" viewBox="0 0 52 48" xml:space="preserve">
	<g id="Layer_x0020_1" style="&st7;">
		<path style="&st1;" d="M47.3,22.9L27.5,3.1c-0.4-0.4-1-0.7-1.6-0.7c-0.6,0-1.2,0.2-1.6,0.7L4.4,22.9c-0.4,0.4-0.7,1-0.7,1.6c0,0.6,0.2,1.2,0.7,1.6L24.2,46c0.9,0.9,2.4,0.9,3.3,0l19.8-19.8c0.9-0.9,0.9-2.4,0-3.3z"/>
		<linearGradient id="aigrd1" gradientUnits="userSpaceOnUse" x1="21.0137" y1="3.397" x2="31.6535" y2="50.0172">
			<stop  offset="0" style="stop-color:#184375"/>
			<stop  offset="1" style="stop-color:#C8BDDC"/>
		</linearGradient>
		<path style="&st0;" d="M25.8,44.4L6,24.6L25.8,4.7l19.8,19.8L25.8,44.4z"/>
		<g>
			<g>
				<linearGradient id="aigrd2" gradientUnits="userSpaceOnUse" x1="21.8735" y1="19.6479" x2="26.5373" y2="30.0392">
					<stop  offset="0" style="stop-color:#184375"/>
					<stop  offset="1" style="stop-color:#C8BDDC"/>
				</linearGradient>
				<path style="&st12;" d="M26.6,5.6L6.8,25.4l11.5,11.3c14.8,0,2.5-19.2,20.2-19.2L26.6,5.6z"/>
				<linearGradient id="aigrd3" gradientUnits="userSpaceOnUse" x1="21.6328" y1="19.4478" x2="26.2536" y2="29.7432">
					<stop  offset="0" style="stop-color:#184375"/>
					<stop  offset="1" style="stop-color:#C8BDDC"/>
				</linearGradient>
				<path style="&st9;" d="M26.5,5.4L6.7,25.3L18,36.4c14.8,0,2.5-19.3,20.1-19.3L26.5,5.4z"/>
				<linearGradient id="aigrd4" gradientUnits="userSpaceOnUse" x1="21.3916" y1="19.2466" x2="25.9694" y2="29.4462">
					<stop  offset="0" style="stop-color:#184375"/>
					<stop  offset="1" style="stop-color:#C8BDDC"/>
				</linearGradient>
				<path style="&st5;" d="M26.4,5.3L6.5,25.1l11.1,11c14.8,0,2.4-19.4,20.1-19.4L26.4,5.3z"/>
				<linearGradient id="aigrd5" gradientUnits="userSpaceOnUse" x1="21.1509" y1="19.0464" x2="25.686" y2="29.1509">
					<stop  offset="0" style="stop-color:#184375"/>
					<stop  offset="1" style="stop-color:#C8BDDC"/>
				</linearGradient>
				<path style="&st4;" d="M26.2,5.2L6.4,25l10.9,10.8c14.8,0,2.3-19.5,20-19.5L26.2,5.2z"/>
				<linearGradient id="aigrd6" gradientUnits="userSpaceOnUse" x1="20.9102" y1="18.8472" x2="25.4022" y2="28.8559">
					<stop  offset="0" style="stop-color:#184375"/>
					<stop  offset="1" style="stop-color:#C8BDDC"/>
				</linearGradient>
				<path style="&st10;" d="M26.1,5L6.3,24.9L17,35.5c14.8,0,2.2-19.6,19.9-19.6L26.1,5z"/>
				<linearGradient id="aigrd7" gradientUnits="userSpaceOnUse" x1="20.6689" y1="18.646" x2="25.118" y2="28.5589">
					<stop  offset="0" style="stop-color:#184375"/>
					<stop  offset="1" style="stop-color:#C8BDDC"/>
				</linearGradient>
				<path style="&st6;" d="M26,4.9L6.1,24.7l10.5,10.5c14.8,0,2.2-19.7,19.9-19.7L26,4.9z"/>
				<linearGradient id="aigrd8" gradientUnits="userSpaceOnUse" x1="20.4277" y1="18.4448" x2="24.834" y2="28.2623">
					<stop  offset="0" style="stop-color:#184375"/>
					<stop  offset="1" style="stop-color:#C8BDDC"/>
				</linearGradient>
				<path style="&st8;" d="M25.8,4.8L6,24.6l10.3,10.3c14.8,0,2.1-19.8,19.8-19.8L25.8,4.8z"/>
			</g>
		</g>
		<path style="&st3;" d="M45.7,24.6L25.8,4.7L6,24.6l0.8,0.6L26,8.1l19.7,16.4z"/>
		<path style="&st14;" d="M10,28.5l0.8-1.1c0.7,0.3,1.3,0.5,2,0.7l0,1.6c0.4,0.1,0.9,0.2,1.3,0.2l0.5-1.5c0.4,0,0.7,0,1.1,0c0.4,0,0.7,0,1.1,0l0.5,1.5c0.5-0.1,0.9-0.1,1.3-0.2l0-1.6c0.7-0.2,1.4-0.4,2-0.7l1,1.3c0.4-0.2,0.8-0.4,1.2-0.6l-0.5-1.5
			c0.6-0.4,1.2-0.8,1.7-1.3l1.3,1c0.3-0.3,0.7-0.6,1-1l-1-1.3c0.5-0.5,0.9-1.1,1.3-1.7l1.5,0.5c0.2-0.4,0.4-0.8,0.6-1.2l-1.3-1c0.3-0.7,0.5-1.3,0.7-2l1.6,0c0.1-0.4,0.2-0.9,0.2-1.3l-1.5-0.5c0-0.4,0-0.7,0-1.1s0-0.7,0-1.1l1.5-0.5c0-0.5-0.1-0.9-0.2-1.3l-1.6,0
			c-0.2-0.7-0.4-1.4-0.7-2l1.3-1c-0.2-0.4-0.4-0.8-0.6-1.2l-1.5,0.5c-0.4-0.6-0.8-1.2-1.3-1.7l1-1.3c-0.3-0.3-0.6-0.6-0.9-0.9L6,24.6l1,1l0.3-0.2c0.5,0.5,1.1,0.9,1.7,1.3l-0.2,0.8l1.1,1.1z"/>
		<path style="&st14;" d="M30.1,33.7c0-6.7,4.4-12.4,10.4-14.3l-2.3-2.3c0,0,0,0-0.1,0L38,16.9l-1.5-1.5c-0.5,0.2-0.9,0.5-1.4,0.7l0.7,2.2c-0.9,0.5-1.7,1.1-2.5,1.8l-1.8-1.4c-0.5,0.4-0.9,0.9-1.4,1.4l1.4,1.8c-0.7,0.8-1.3,1.6-1.8,2.5l-2.2-0.7
			c-0.3,0.6-0.6,1.1-0.9,1.7l1.9,1.3c-0.4,0.9-0.7,1.9-0.9,2.9l-2.3,0c-0.1,0.6-0.2,1.3-0.3,1.9l2.2,0.7c0,0.5-0.1,1-0.1,1.5c0,0.5,0,1,0.1,1.5L25.1,36c0.1,0.6,0.2,1.3,0.3,1.9l2.3,0c0.2,1,0.5,2,0.9,2.9l-1.9,1.3c0.1,0.3,0.3,0.6,0.5,1l3.9-3.9
			c-0.6-1.7-1-3.5-1-5.4z"/>
		<path style="&st2;" d="M6.2,24.7l19.7,19.7l19.8-19.8l-1-0.8L25.6,40.9L6.2,24.7z"/>
	</g>
	<g id="Layer_x0020_3" style="&st13;">
		<path style="&st11;" d="M52,48H0V0h52v48z"/>
	</g>
</svg>
