<?xml version="1.0" encoding="UTF-8" standalone="no"?>
<!-- Generator: Adobe Illustrator 9.0, SVG Export Plug-In  -->

<svg
   xmlns:dc="http://purl.org/dc/elements/1.1/"
   xmlns:cc="http://creativecommons.org/ns#"
   xmlns:rdf="http://www.w3.org/1999/02/22-rdf-syntax-ns#"
   xmlns:svg="http://www.w3.org/2000/svg"
   xmlns="http://www.w3.org/2000/svg"
   xmlns:sodipodi="http://sodipodi.sourceforge.net/DTD/sodipodi-0.dtd"
   xmlns:inkscape="http://www.inkscape.org/namespaces/inkscape"
   width="33.458pt"
   height="25.623pt"
   viewBox="0 0 33.458 25.623"
   xml:space="preserve"
   id="svg2"
   sodipodi:version="0.32"
   inkscape:version="0.48.3.1 r9886"
   sodipodi:docname="emblem-nowrite.svg"
   version="1.1"><metadata
   id="metadata24"><rdf:RDF><cc:Work
       rdf:about=""><dc:format>image/svg+xml</dc:format><dc:type
         rdf:resource="http://purl.org/dc/dcmitype/StillImage" /></cc:Work></rdf:RDF></metadata><defs
   id="defs22"><inkscape:perspective
   sodipodi:type="inkscape:persp3d"
   inkscape:vp_x="0 : 16.014374 : 1"
   inkscape:vp_y="0 : 1000 : 0"
   inkscape:vp_z="41.822502 : 16.014374 : 1"
   inkscape:persp3d-origin="20.911251 : 10.676249 : 1"
   id="perspective11" />
		
		
	
			
		
				
				
				
			</defs><sodipodi:namedview
   inkscape:window-height="683"
   inkscape:window-width="960"
   inkscape:pageshadow="2"
   inkscape:pageopacity="0.0"
   borderopacity="1.0"
   bordercolor="#666666"
   pagecolor="#ffffff"
   id="base"
   inkscape:zoom="13.773752"
   inkscape:cx="26.138472"
   inkscape:cy="14.934622"
   inkscape:window-x="233"
   inkscape:window-y="45"
   inkscape:current-layer="svg2"
   showgrid="false"
   inkscape:window-maximized="0" />
	<path
   id="path9"
   d="M 0.972,24.552 L 7.181,15.282 C 18.881,7.542 26.668,1.685 28.331,0.972 C 28.961,0.701 31.727,2.602 32.381,5.922 C 32.446,6.254 11.906,20.112 10.781,20.772 L 0.971,24.551 L 0.972,24.552 z "
   style="fill:#000000;fill-rule:nonzero;stroke:#000000;stroke-width:1.94400000999999989;stroke-linecap:round;stroke-linejoin:round;stroke-miterlimit:4;stroke-opacity:1;fill-opacity:1;opacity:1" /><g
   style="fill:#ff0000;fill-rule:nonzero;stroke:#000000;stroke-width:3.45849991000000001;stroke-miterlimit:4;stroke-opacity:1;opacity:1;fill-opacity:1"
   id="g15"
   transform="matrix(0.682386,0,0,0.682386,10.6268,8.138297)">
			<path
   id="path17"
   d="M 16.041,16.05 C 16.041,20.382 19.553,23.894 23.885,23.894 C 28.219,23.894 31.729,20.381 31.729,16.05 C 31.729,11.719 28.219,8.205 23.885,8.205 C 19.553,8.205 16.041,11.718 16.041,16.05 z "
   style="stroke:#000000;stroke-opacity:1;fill:#ff0000;fill-opacity:1" />
			<path
   id="path19"
   d="M 27.806,20.843 L 19.527,10.82"
   style="stroke:#000000;stroke-opacity:1;fill:#ff0000;fill-opacity:1" />
		</g>
<path
   style="fill:#ffffff;fill-rule:nonzero;stroke:none;stroke-width:3.45849991000000001;stroke-miterlimit:4;opacity:1;fill-opacity:1"
   d="M 7.092,16.363 C 7.092,16.363 4.3344372,20.339882 4.2794372,20.391882 C 5.4881244,21.011936 5.7233845,22.013167 5.7233845,22.013167 C 5.7233845,22.013167 9.989,20.342 10.152,20.233 C 10.314,20.125 9.522,18.397 8.928,17.75 C 8.333,17.102 7.47,16.309 7.092,16.363"
   id="path2182"
   sodipodi:nodetypes="cccssc" /></svg>