<?xml version="1.0" encoding="UTF-8" standalone="no"?>
<!-- Created with Sodipodi ("http://www.sodipodi.com/") -->

<svg
   xmlns:dc="http://purl.org/dc/elements/1.1/"
   xmlns:cc="http://creativecommons.org/ns#"
   xmlns:rdf="http://www.w3.org/1999/02/22-rdf-syntax-ns#"
   xmlns:svg="http://www.w3.org/2000/svg"
   xmlns="http://www.w3.org/2000/svg"
   xmlns:xlink="http://www.w3.org/1999/xlink"
   xmlns:sodipodi="http://sodipodi.sourceforge.net/DTD/sodipodi-0.dtd"
   xmlns:inkscape="http://www.inkscape.org/namespaces/inkscape"
   width="32pt"
   height="32pt"
   viewBox="0 0 22.741 24.318"
   overflow="visible"
   enable-background="new 0 0 22.741 24.318"
   xml:space="preserve"
   id="svg153"
   sodipodi:version="0.32pre"
   sodipodi:docname="exo-preferred-applications.svg"
   version="1.1"
   inkscape:version="0.91 r13725"><sodipodi:namedview
     id="base"
     showgrid="false"
     inkscape:zoom="5.9"
     inkscape:cx="20"
     inkscape:cy="20"
     inkscape:window-width="1089"
     inkscape:window-height="834"
     inkscape:window-x="2"
     inkscape:window-y="203"
     inkscape:window-maximized="0"
     inkscape:current-layer="svg153" /><metadata
     id="metadata154"><sfw><slices /><sliceSourceBounds
         y="388.643"
         x="267.471"
         width="22.741"
         height="24.318"
         bottomLeftOrigin="true" /></sfw><rdf:RDF><cc:Work
         rdf:about=""><dc:format>image/svg+xml</dc:format><dc:type
           rdf:resource="http://purl.org/dc/dcmitype/StillImage" /><dc:title></dc:title></cc:Work></rdf:RDF></metadata><defs
     id="defs155"><filter
       id="SVG_InvertMaskClipFilter"
       filterUnits="objectBoundingBox"><feColorMatrix
         type="matrix"
         values="-1 0 0 0 1  0 -1 0 0 1  0 0 -1 0 1  0 0 0 1 0"
         color-interpolation-filters="sRGB"
         id="feColorMatrix7" /></filter><inkscape:perspective
       id="perspective56"
       inkscape:persp3d-origin="24 : 16 : 1"
       inkscape:vp_z="48 : 24 : 1"
       inkscape:vp_y="0 : 1000 : 0"
       inkscape:vp_x="0 : 24 : 1"
       sodipodi:type="inkscape:persp3d" /><linearGradient
       id="linearGradient9662"
       inkscape:collect="always"><stop
         id="stop9664"
         offset="0"
         style="stop-color:#ffffff;stop-opacity:1;" /><stop
         id="stop9666"
         offset="1"
         style="stop-color:#ffffff;stop-opacity:0;" /></linearGradient><linearGradient
       id="linearGradient9649"><stop
         id="stop9651"
         offset="0"
         style="stop-color:#ffff00;stop-opacity:1;" /><stop
         id="stop9653"
         offset="1"
         style="stop-color:#ec7d00;stop-opacity:1;" /></linearGradient><linearGradient
       id="linearGradient3394"
       gradientUnits="userSpaceOnUse"
       x1="12.2744"
       y1="32.4165"
       x2="35.3912"
       y2="14.2033"><stop
         offset="0.0000000"
         style="stop-color:#fff307;stop-opacity:1.0000000;"
         id="stop3396" /><stop
         offset="0.50000000"
         style="stop-color:#166eff;stop-opacity:1.0000000;"
         id="stop3398" /><stop
         offset="1.0000000"
         style="stop-color:#ffffff;stop-opacity:0.0000000;"
         id="stop3400" /></linearGradient><radialGradient
       inkscape:collect="always"
       xlink:href="#linearGradient3394"
       id="radialGradient10580"
       gradientUnits="userSpaceOnUse"
       gradientTransform="matrix(0.441746,0.498655,-0.407098,0.360624,32.00755,10.21308)"
       cx="37.751469"
       cy="27.569166"
       fx="37.751469"
       fy="27.569166"
       r="21.333334" /><linearGradient
       inkscape:collect="always"
       xlink:href="#linearGradient9662"
       id="linearGradient10578"
       gradientUnits="userSpaceOnUse"
       x1="28.702885"
       y1="31.494707"
       x2="17.742729"
       y2="18.366575" /><linearGradient
       inkscape:collect="always"
       xlink:href="#linearGradient9662"
       id="linearGradient10576"
       gradientUnits="userSpaceOnUse"
       gradientTransform="matrix(0.573842,0,0,0.573842,20.97995,19.56347)"
       x1="10.501720"
       y1="3.6100161"
       x2="48.798885"
       y2="54.698483" /><linearGradient
       inkscape:collect="always"
       xlink:href="#linearGradient9662"
       id="linearGradient10574"
       gradientUnits="userSpaceOnUse"
       gradientTransform="matrix(0.717302,0,0,0.717302,17.73603,18.06909)"
       x1="21.125000"
       y1="14.625000"
       x2="29.000000"
       y2="28.000000" /><linearGradient
       y2="14.2033"
       x2="35.3912"
       y1="32.4165"
       x1="12.2744"
       gradientUnits="userSpaceOnUse"
       id="aigrd2"><stop
         id="stop3043"
         style="stop-color:#FBFBFB"
         offset="0" /><stop
         id="stop3045"
         style="stop-color:#B6B6B6"
         offset="0.5" /><stop
         id="stop3047"
         style="stop-color:#E4E4E4"
         offset="1" /></linearGradient><linearGradient
       inkscape:collect="always"
       xlink:href="#aigrd2"
       id="linearGradient10570"
       gradientUnits="userSpaceOnUse"
       gradientTransform="matrix(0.705308,0,0,0.705308,18.02392,17.61692)"
       x1="12.2744"
       y1="32.4165"
       x2="35.3912"
       y2="14.2033" /><linearGradient
       inkscape:collect="always"
       xlink:href="#aigrd1"
       id="linearGradient10568"
       gradientUnits="userSpaceOnUse"
       gradientTransform="matrix(0.683145,0,0,0.683145,18.55581,18.12886)"
       x1="14.9966"
       y1="11.1885"
       x2="32.511"
       y2="34.3075" /><linearGradient
       inkscape:collect="always"
       id="linearGradient7844"><stop
         style="stop-color:#000000;stop-opacity:1;"
         offset="0"
         id="stop7846" /><stop
         style="stop-color:#000000;stop-opacity:0;"
         offset="1"
         id="stop7848" /></linearGradient><radialGradient
       inkscape:collect="always"
       xlink:href="#linearGradient7844"
       id="radialGradient10566"
       gradientUnits="userSpaceOnUse"
       gradientTransform="matrix(1,0,0,0.333333,2.030559e-14,25.06362)"
       cx="24.546707"
       cy="37.595428"
       fx="24.546707"
       fy="37.595428"
       r="22.728432" /><linearGradient
       y2="248.6311"
       x2="153.0005"
       y1="15.4238"
       x1="99.7773"
       gradientUnits="userSpaceOnUse"
       id="aigrd1"><stop
         id="stop53300"
         style="stop-color:#184375"
         offset="0" /><stop
         id="stop53302"
         style="stop-color:#C8BDDC"
         offset="1" /></linearGradient><radialGradient
       inkscape:collect="always"
       xlink:href="#linearGradient7844"
       id="radialGradient2308"
       gradientTransform="matrix(1.399258,-2.234445e-7,8.196178e-8,0.513264,4.365074,4.839285)"
       cx="14.287618"
       cy="68.872971"
       fx="14.287618"
       fy="72.568001"
       r="11.689870"
       gradientUnits="userSpaceOnUse" /><radialGradient
       gradientTransform="matrix(1.727873,0,0,1.727873,-17.67698,-26.72805)"
       gradientUnits="userSpaceOnUse"
       r="20.410614"
       fy="36.720772"
       fx="24.285801"
       cy="36.720772"
       cx="24.285801"
       id="radialGradient9657"
       xlink:href="#linearGradient9649"
       inkscape:collect="always" /><linearGradient
       gradientUnits="userSpaceOnUse"
       y2="52.807446"
       x2="28.786495"
       y1="10.027484"
       x1="26.502604"
       id="linearGradient9668"
       xlink:href="#linearGradient9662"
       inkscape:collect="always" /></defs><defs
     id="defs157"><filter
       id="SVG_InvertMaskFilter"
       filterUnits="objectBoundingBox"><feColorMatrix
         type="matrix"
         values="-1 0 0 0 1  0 -1 0 0 1  0 0 -1 0 1  0 0 0 1 0"
         color-interpolation-filters="sRGB"
         result="source"
         id="feColorMatrix11" /><feColorMatrix
         type="matrix"
         values="0 0 0 0 1  0 0 0 0 1  0 0 0 0 1  0 0 0 0 1"
         in="BackgroundImage"
         result="back"
         id="feColorMatrix13" /><feBlend
         mode="normal"
         in2="back"
         in="source"
         id="feBlend15" /></filter></defs><defs
     id="defs159"><filter
       id="SVG_MaskClipFilter"
       filterUnits="objectBoundingBox"><feColorMatrix
         type="matrix"
         values="1 0 0 0 0  0 1 0 0 0  0 0 1 0 0  0 0 0 1 0"
         id="feColorMatrix19" /></filter></defs><defs
     id="defs161"><filter
       id="SVG_MaskFilter"
       filterUnits="objectBoundingBox"><feColorMatrix
         type="matrix"
         values="0 0 0 0 1  0 0 0 0 1  0 0 0 0 1  0 0 0 0 1"
         in="BackgroundImage"
         result="back"
         id="feColorMatrix23" /><feBlend
         mode="normal"
         in2="back"
         in="SourceGraphic"
         id="feBlend25" /></filter></defs><g
     id="Layer_1"
     transform="translate(2.4317998,0)"
     style="stroke:#000000"><linearGradient
       id="XMLID_1_"
       gradientUnits="userSpaceOnUse"
       x1="-215.91701"
       y1="325.49411"
       x2="-222.9362"
       y2="324.38589"
       gradientTransform="matrix(1,0,0,-1,238.2041,344.2969)"><stop
         offset="0"
         style="stop-color:#FFFFFF"
         id="stop165" /><stop
         offset="1"
         style="stop-color:#000000"
         id="stop166" /></linearGradient><path
       d="m 8.575,24.318 12.3,-1.044 c 0,0 2.24,-1.307 1.867,-5.04 -0.134,-1.339 -4.853,-2.985 -4.853,-2.985 l -9.314,9.069 z"
       id="path170"
       style="opacity:0.2;fill:url(#XMLID_1_);stroke:none"
       inkscape:connector-curvature="0" /><g
       id="g171"><linearGradient
         id="XMLID_2_"
         gradientUnits="userSpaceOnUse"
         x1="-195.166"
         y1="470.93951"
         x2="-175.04401"
         y2="470.93951"
         gradientTransform="matrix(-0.8031,-0.3416,0,-1,-137.3466,429.1258)"><stop
           offset="0"
           style="stop-color:#FF0000"
           id="stop173" /><stop
           offset="1"
           style="stop-color:#FF6666"
           id="stop174" /></linearGradient><path
         d="m 11.45,21.537 c 0,0 -0.05,-0.063 -0.139,-0.181 -0.089,0.041 -0.14,0.063 -0.14,0.063 l 0.279,0.118 z"
         id="path178"
         style="fill:url(#XMLID_2_);stroke:none"
         inkscape:connector-curvature="0" /><linearGradient
         id="XMLID_3_"
         gradientUnits="userSpaceOnUse"
         x1="-192.04691"
         y1="470.93951"
         x2="-171.9249"
         y2="470.93951"
         gradientTransform="matrix(-0.8031,-0.3416,0,-1,-137.3466,429.1258)"><stop
           offset="0"
           style="stop-color:#FF0000"
           id="stop180" /><stop
           offset="1"
           style="stop-color:#FF6666"
           id="stop181" /></linearGradient><path
         d="m 11.45,21.537 c 0,0 -0.05,-0.063 -0.139,-0.181 -0.089,0.041 -0.14,0.063 -0.14,0.063 l 0.279,0.118 z"
         id="path185"
         style="fill:url(#XMLID_3_);stroke:none"
         inkscape:connector-curvature="0" /></g><path
       d="M 5.156,0.293 C 4.728,0.49 4.339,0.739 4,1.033 L 4.063,0.982 1.73,2.644 c -5.799,4.434 4.374,18.387 6.472,21.14 l 0.408,0.535 0.611,-0.282 c 0.576,-0.265 2.588,-1.254 4.513,-2.891 1.741,-1.067 5.756,-3.943 6.633,-8.203 0.111,-0.538 0.166,-1.077 0.166,-1.614 0,-1.811 -0.628,-3.609 -1.877,-5.368 C 17.303,4.058 15.8,3.52 14.776,3.404 13.712,3.284 12.662,3.582 11.967,4.202 l 0.069,-0.056 c 0,0 -0.188,0.135 -0.289,0.207 C 11.222,3.068 10.125,1.561 8.798,0.702 7.567,-0.096 6.308,-0.236 5.156,0.293 Z"
       id="path186"
       inkscape:connector-curvature="0"
       style="stroke:none" /><linearGradient
       id="XMLID_4_"
       gradientUnits="userSpaceOnUse"
       x1="-230.769"
       y1="338.85251"
       x2="-232.32851"
       y2="341.45169"
       gradientTransform="matrix(1,0,0,-1,238.2041,344.2969)"><stop
         offset="0"
         style="stop-color:#FF0000"
         id="stop188" /><stop
         offset="1"
         style="stop-color:#FF6666"
         id="stop189" /></linearGradient><path
       d="M 5.448,0.94 C 5.078,1.111 4.762,1.317 4.492,1.551 L 2.158,3.213 5.226,2.832 c 2.207,1.188 3.585,5.201 3.585,5.201 0,0 0.877,-1.812 2.354,-2.193 C 11.502,4.6 8.437,-0.433 5.448,0.94 Z"
       id="path193"
       style="fill:url(#XMLID_4_);stroke:none"
       inkscape:connector-curvature="0" /><linearGradient
       id="XMLID_5_"
       gradientUnits="userSpaceOnUse"
       x1="-224.3506"
       y1="335.39551"
       x2="-221.9295"
       y2="328.82419"
       gradientTransform="matrix(1,0,0,-1,238.2041,344.2969)"><stop
         offset="0"
         style="stop-color:#FF0000"
         id="stop195" /><stop
         offset="1"
         style="stop-color:#BD0000"
         id="stop196" /></linearGradient><path
       d="M 17.913,6.331 C 15.973,3.602 13.493,3.799 12.467,4.714 l -2.263,1.621 2.572,0.901 0.604,-0.835 c 0.411,0.307 0.842,0.739 1.293,1.33 4.327,5.67 1.196,10.343 -1.857,12.963 3.435,-2.09 9.775,-7.778 5.097,-14.363 z"
       id="path200"
       style="fill:url(#XMLID_5_);stroke:none"
       inkscape:connector-curvature="0" /><linearGradient
       id="XMLID_6_"
       gradientUnits="userSpaceOnUse"
       x1="-229.397"
       y1="330.49609"
       x2="-229.397"
       y2="337.2937"
       gradientTransform="matrix(1,0,0,-1,238.2041,344.2969)"><stop
         offset="0"
         style="stop-color:#FF0000"
         id="stop202" /><stop
         offset="1"
         style="stop-color:#FF6666"
         id="stop203" /></linearGradient><path
       d="M 14.674,7.731 C 11.176,3.148 8.811,8.033 8.811,8.033 c 0,0 -2.366,-6.897 -5.863,-5.29 -6.953,3.196 4.395,18.486 5.852,20.399 0.008,0.011 0.017,0.021 0.024,0.032 -10e-4,0.001 13.271,-5.718 5.85,-15.443 z"
       id="path207"
       style="fill:url(#XMLID_6_);stroke:none"
       inkscape:connector-curvature="0" /><mask
       maskUnits="userSpaceOnUse"
       x="0.711"
       y="2.5"
       width="16.52"
       height="21"
       id="XMLID_7_"><g
         id="g209"
         style="filter:url(#SVG_MaskFilter)"><mask
           maskUnits="userSpaceOnUse"
           x="0.711"
           y="2.5"
           width="16.52"
           height="21"
           id="XMLID_8_"><g
             id="g211" /></mask><image
           sodipodi:absref="/home/mdl/.local/share/icons/amica/scalable/FB57C4F4.jpg"
           xlink:href="FB57C4F4.jpg"
           id="image212"
           transform="matrix(0.28,0,0,0.28,0.7114,2.5)"
           height="75"
           width="59"
           mask="url(#XMLID_8_)" /></g></mask></g><g
     id="g4271"
     transform="matrix(0.42351735,0,0,0.42351739,-2.0364438,5.5371969)"><g
       id="layer2"
       inkscape:label="shadow"><ellipse
         style="color:#000000;display:inline;overflow:visible;visibility:visible;fill:url(#radialGradient2308);fill-opacity:1;fill-rule:evenodd;stroke:none;stroke-width:0.50000042;stroke-linecap:round;stroke-linejoin:miter;stroke-miterlimit:4;stroke-dashoffset:0;stroke-opacity:1;marker:none;marker-start:none;marker-mid:none;marker-end:none"
         id="path1538"
         transform="matrix(1.18638,0,0,1.18638,-4.539687,-7.794678)"
         cx="24.357143"
         cy="38.714287"
         rx="19.928572"
         ry="9.837245" /></g><g
       inkscape:label="Layer 1"
       id="layer1"><path
         id="path53304"
         d="M 24.285801,43.196358 4.3751874,23.285744 24.285801,3.3751291 44.196415,23.285744 24.285801,43.196358 l 0,0 z"
         style="fill:url(#radialGradient9657);fill-opacity:1;fill-rule:nonzero;stroke:#000000;stroke-width:1.43547833;stroke-linecap:round;stroke-linejoin:round;stroke-miterlimit:4;stroke-opacity:1"
         inkscape:connector-curvature="0" /><path
         inkscape:r_cy="true"
         inkscape:r_cx="true"
         id="path53361"
         d="m 39.439932,19.376677 -0.73845,1.024184 c -0.636749,-0.268492 -1.300618,-0.485069 -1.986183,-0.644885 l 0.0058,-1.576858 c -0.427728,-0.08834 -0.86301,-0.156136 -1.304105,-0.204371 l -0.481774,1.501889 c -0.344041,-0.02848 -0.691764,-0.04417 -1.043361,-0.04417 -0.351209,0 -0.699124,0.0155 -1.043166,0.04417 l -0.481776,-1.501889 c -0.441287,0.04823 -0.876375,0.116036 -1.304103,0.204371 l 0.006,1.577051 c -0.685758,0.159623 -1.349433,0.3762 -1.986182,0.644692 l -0.92248,-1.279502 C 27.7578,19.303453 27.36591,19.50395 26.985257,19.721881 l 0.492817,1.498016 c -0.59723,0.36225 -1.161723,0.773319 -1.687471,1.227972 L 24.518479,21.51609 C 24.192841,21.812671 23.88115,22.124362 23.584763,22.45 l 0.931585,1.271947 c -0.454847,0.525748 -0.865916,1.090047 -1.228166,1.687665 l -1.498016,-0.493011 c -0.217931,0.380848 -0.418622,0.772932 -0.600328,1.175088 l 1.279308,0.922287 c -0.268492,0.636749 -0.485069,1.300618 -0.645079,1.986376 l -1.576663,-0.0058 c -0.08834,0.427727 -0.156137,0.86301 -0.204178,1.304298 l 1.501695,0.481774 c -0.02886,0.343848 -0.04417,0.691764 -0.04417,1.043167 0,0.351403 0.01569,0.699125 0.04417,1.043361 l -1.501695,0.481774 c 0.04785,0.441094 0.116037,0.876183 0.203984,1.304104 l 1.577051,-0.006 c 0.159816,0.685759 0.376393,1.349627 0.644691,1.986181 L 21.189644,37.5555 c 0.181707,0.402351 0.382591,0.794241 0.600135,1.175089 l 1.498209,-0.493011 c 0.362251,0.597425 0.773319,1.161723 1.227973,1.687277 l -0.931586,1.272141 c 0.278372,0.30588 0.571078,0.598005 0.875408,0.87812 l 18.838994,-18.839189 -1.006942,-1.006942 -0.298712,0.218706 c -0.525748,-0.454653 -1.090046,-0.865722 -1.687469,-1.227972 l 0.241952,-0.735157 -1.108062,-1.108062 3.88e-4,1.93e-4 z"
         style="opacity:0.5;fill:#ffffff;fill-rule:nonzero;stroke:none;stroke-miterlimit:4"
         inkscape:connector-curvature="0" /><path
         inkscape:r_cy="true"
         inkscape:r_cx="true"
         id="path53363"
         d="m 19.916729,14.330733 c 0,6.484682 -4.233883,11.979469 -10.0872397,13.874023 l 2.2269717,2.227167 c 0.01685,-0.007 0.0339,-0.01298 0.05056,-0.02015 l 0.181513,0.251832 1.412004,1.412004 c 0.463179,-0.2189 0.91667,-0.45446 1.359315,-0.707648 l -0.694089,-2.109193 c 0.841314,-0.509669 1.635748,-1.08869 2.375747,-1.728732 l 1.79111,1.311659 c 0.458721,-0.41746 0.897297,-0.856036 1.314564,-1.314565 l -1.311466,-1.790914 c 0.640042,-0.740195 1.218869,-1.534628 1.728732,-2.375748 l 2.109387,0.694089 c 0.306654,-0.536403 0.589093,-1.088304 0.844994,-1.654732 L 21.41765,21.101532 c 0.377942,-0.896329 0.682852,-1.831014 0.907758,-2.796501 l 2.219999,0.0085 c 0.124172,-0.602266 0.219869,-1.215188 0.287476,-1.836051 L 22.71846,15.799082 c 0.04029,-0.484293 0.06199,-0.97401 0.06199,-1.46857 0,-0.494753 -0.0217,-0.98447 -0.06199,-1.468763 l 2.114423,-0.677816 c -0.06761,-0.621251 -0.163304,-1.233979 -0.28767,-1.836246 l -2.219805,0.0083 C 22.100501,9.3905563 21.795591,8.4558713 21.417649,7.5595413 l 1.801182,-1.298486 c -0.142383,-0.31479 -0.293869,-0.624931 -0.452136,-0.930423 l -3.804023,3.803636 c 0.616019,1.6142457 0.95425,3.3658377 0.95425,5.1962707 l -1.93e-4,1.94e-4 z"
         style="opacity:0.5;fill:#ffffff;fill-rule:nonzero;stroke:none;stroke-miterlimit:4"
         inkscape:connector-curvature="0" /><path
         inkscape:r_cy="true"
         inkscape:r_cx="true"
         style="opacity:0.47252748;fill:none;fill-opacity:1;fill-rule:nonzero;stroke:url(#linearGradient9668);stroke-width:1.43547833;stroke-linecap:butt;stroke-linejoin:miter;stroke-miterlimit:4;stroke-dasharray:none;stroke-opacity:1"
         d="M 24.285792,41.605353 5.9661763,23.285736 24.285792,4.9661187 42.605409,23.285736 24.285792,41.605353 l 0,0 z"
         id="path9660"
         inkscape:connector-curvature="0" /></g></g></svg>