<?xml version="1.0" encoding="UTF-8" standalone="no"?>
<svg
   xmlns:dc="http://purl.org/dc/elements/1.1/"
   xmlns:cc="http://creativecommons.org/ns#"
   xmlns:rdf="http://www.w3.org/1999/02/22-rdf-syntax-ns#"
   xmlns:svg="http://www.w3.org/2000/svg"
   xmlns="http://www.w3.org/2000/svg"
   xmlns:xlink="http://www.w3.org/1999/xlink"
   xmlns:sodipodi="http://sodipodi.sourceforge.net/DTD/sodipodi-0.dtd"
   xmlns:inkscape="http://www.inkscape.org/namespaces/inkscape"
   version="1.1"
   width="64"
   height="64"
   color-interpolation="linearRGB"
   id="svg2"
   inkscape:version="0.47 r22583"
   sodipodi:docname="face-sad.svg">
  <metadata
     id="metadata32">
    <rdf:RDF>
      <cc:Work
         rdf:about="">
        <dc:format>image/svg+xml</dc:format>
        <dc:type
           rdf:resource="http://purl.org/dc/dcmitype/StillImage" />
        <dc:title></dc:title>
      </cc:Work>
    </rdf:RDF>
  </metadata>
  <defs
     id="defs30">
    <inkscape:perspective
       sodipodi:type="inkscape:persp3d"
       inkscape:vp_x="0 : 32 : 1"
       inkscape:vp_y="0 : 1000 : 0"
       inkscape:vp_z="64 : 32 : 1"
       inkscape:persp3d-origin="32 : 21.333333 : 1"
       id="perspective34" />
    <radialGradient
       gradientTransform="matrix(0.5625,0,0,0.5625,18,18)"
       r="64"
       cy="0"
       cx="0"
       gradientUnits="userSpaceOnUse"
       id="gradient0">
      <stop
         id="stop11"
         stop-color="#ffffff"
         offset="0" />
      <stop
         id="stop13"
         stop-color="#fee900"
         offset="0.75" />
      <stop
         id="stop15"
         stop-color="#febe00"
         offset="1" />
    </radialGradient>
    <radialGradient
       gradientTransform="matrix(0.5625,0,0,0.5625,18,18)"
       r="64"
       cy="0"
       cx="0"
       gradientUnits="userSpaceOnUse"
       id="gradient1">
      <stop
         id="stop20"
         stop-color="#ffffff"
         offset="0" />
      <stop
         id="stop22"
         stop-color="#cc9933"
         offset="0.25" />
      <stop
         id="stop24"
         stop-color="#663b19"
         offset="1" />
    </radialGradient>
    <radialGradient
       inkscape:collect="always"
       xlink:href="#gradient1"
       id="radialGradient3039"
       gradientUnits="userSpaceOnUse"
       gradientTransform="matrix(0.5625,0,0,0.5625,18,18)"
       cx="0"
       cy="0"
       r="64" />
    <radialGradient
       inkscape:collect="always"
       xlink:href="#gradient0"
       id="radialGradient3042"
       gradientUnits="userSpaceOnUse"
       gradientTransform="matrix(0.5625,0,0,0.5625,18,18)"
       cx="0"
       cy="0"
       r="64" />
    <radialGradient
       inkscape:collect="always"
       xlink:href="#gradient1"
       id="radialGradient3048"
       gradientUnits="userSpaceOnUse"
       gradientTransform="matrix(-0.37501293,0,-0.10074746,-0.38619194,18.27068,53.42983)"
       cx="0"
       cy="0"
       r="64" />
    <radialGradient
       inkscape:collect="always"
       xlink:href="#gradient1"
       id="radialGradient3052"
       gradientUnits="userSpaceOnUse"
       gradientTransform="matrix(0.5625,0,0,0.5625,18,18)"
       cx="0"
       cy="0"
       r="64" />
  </defs>
  <sodipodi:namedview
     pagecolor="#ffffff"
     bordercolor="#666666"
     borderopacity="1"
     objecttolerance="10"
     gridtolerance="10"
     guidetolerance="10"
     inkscape:pageopacity="0"
     inkscape:pageshadow="2"
     inkscape:window-width="786"
     inkscape:window-height="501"
     id="namedview28"
     showgrid="false"
     inkscape:zoom="3.6875"
     inkscape:cx="1.6250977"
     inkscape:cy="32"
     inkscape:window-x="102"
     inkscape:window-y="93"
     inkscape:window-maximized="0"
     inkscape:current-layer="svg2" />
  <path
     id="path6"
     d="M 38,38 C 23.64,38 12,43.82 12,51 12,58.17 23.64,64 38,64 52.34,64 64,58.17 64,51 64,43.82 52.34,38 38,38 z"
     style="fill:#010101;fill-opacity:0.37250001" />
  <path
     id="path8"
     d="M 28,2 C 13.64,2 2,13.64 2,28 2,42.34 13.64,54 28,54 42.34,54 54,42.34 54,28 54,13.64 42.34,2 28,2 z"
     style="fill:none;stroke:#000000;stroke-width:4" />
  <path
     id="path17"
     d="M 28,2 C 13.64,2 2,13.64 2,28 2,42.34 13.64,54 28,54 42.34,54 54,42.34 54,28 54,13.64 42.34,2 28,2 z"
     style="fill:url(#radialGradient3042)" />
  <path
     id="path26"
     d="m 27,20 c -3.32,0 -6,2.68 -6,6 0,3.29 2.68,6 6,6 3.29,0 6,-2.71 6,-6 0,-3.32 -2.71,-6 -6,-6 z"
     style="fill:url(#radialGradient3039)"
     sodipodi:nodetypes="csssc" />
  <path
     style="fill:url(#radialGradient3048)"
     d="M 26.654013,51.208754 C 23.609201,39.537175 12.28053,35.579179 5.1757868,39.011997 10.733466,28.136783 24.892843,36.790921 26.654013,51.208754 z"
     id="path3046"
     sodipodi:nodetypes="ccc" />
  <path
     style="fill:url(#radialGradient3052)"
     d="m 6,17 c -1,3 -1,5 1,5 2,0 4,-1 5,-4 1,-3 0,-5 -1,-5 -2,0 -4,1 -5,4 z"
     id="path3050"
     sodipodi:nodetypes="csssc" />
</svg>
