<?xml version="1.0" encoding="UTF-8" standalone="no"?>
<svg
   xmlns:dc="http://purl.org/dc/elements/1.1/"
   xmlns:cc="http://creativecommons.org/ns#"
   xmlns:rdf="http://www.w3.org/1999/02/22-rdf-syntax-ns#"
   xmlns:svg="http://www.w3.org/2000/svg"
   xmlns="http://www.w3.org/2000/svg"
   xmlns:xlink="http://www.w3.org/1999/xlink"
   xmlns:sodipodi="http://sodipodi.sourceforge.net/DTD/sodipodi-0.dtd"
   xmlns:inkscape="http://www.inkscape.org/namespaces/inkscape"
   version="1.1"
   width="64"
   height="64"
   color-interpolation="linearRGB"
   id="svg2"
   inkscape:version="0.47 r22583"
   sodipodi:docname="face-angel.svg">
  <metadata
     id="metadata32">
    <rdf:RDF>
      <cc:Work
         rdf:about="">
        <dc:format>image/svg+xml</dc:format>
        <dc:type
           rdf:resource="http://purl.org/dc/dcmitype/StillImage" />
        <dc:title></dc:title>
      </cc:Work>
    </rdf:RDF>
  </metadata>
  <defs
     id="defs30">
    <inkscape:perspective
       sodipodi:type="inkscape:persp3d"
       inkscape:vp_x="0 : 32 : 1"
       inkscape:vp_y="0 : 1000 : 0"
       inkscape:vp_z="64 : 32 : 1"
       inkscape:persp3d-origin="32 : 21.333333 : 1"
       id="perspective34" />
    <radialGradient
       inkscape:collect="always"
       xlink:href="#gradient0"
       id="radialGradient3026"
       gradientUnits="userSpaceOnUse"
       gradientTransform="matrix(0.5625,0,0,0.5625,18,18)"
       cx="0"
       cy="0"
       r="64" />
    <radialGradient
       inkscape:collect="always"
       xlink:href="#gradient1"
       id="radialGradient3028"
       gradientUnits="userSpaceOnUse"
       gradientTransform="matrix(0.5625,0,0,0.5625,18,18)"
       cx="0"
       cy="0"
       r="64" />
    <radialGradient
       gradientTransform="matrix(0.5625,0,0,0.5625,18,18)"
       r="64"
       cy="0"
       cx="0"
       gradientUnits="userSpaceOnUse"
       id="gradient0">
      <stop
         id="stop11"
         stop-color="#ffffff"
         offset="0" />
      <stop
         id="stop13"
         stop-color="#fee900"
         offset="0.75" />
      <stop
         id="stop15"
         stop-color="#febe00"
         offset="1" />
    </radialGradient>
    <radialGradient
       gradientTransform="matrix(0.5625,0,0,0.5625,18,18)"
       r="64"
       cy="0"
       cx="0"
       gradientUnits="userSpaceOnUse"
       id="gradient1">
      <stop
         id="stop20"
         stop-color="#ffffff"
         offset="0" />
      <stop
         id="stop22"
         stop-color="#cc9933"
         offset="0.25" />
      <stop
         id="stop24"
         stop-color="#663b19"
         offset="1" />
    </radialGradient>
    <radialGradient
       inkscape:collect="always"
       xlink:href="#gradient1"
       id="radialGradient3039"
       gradientUnits="userSpaceOnUse"
       gradientTransform="matrix(0.5625,0,0,0.5625,18,18)"
       cx="0"
       cy="0"
       r="64" />
    <radialGradient
       inkscape:collect="always"
       xlink:href="#gradient0"
       id="radialGradient3042"
       gradientUnits="userSpaceOnUse"
       gradientTransform="matrix(0.5625,0,0,0.5625,18,18)"
       cx="0"
       cy="0"
       r="64" />
    <radialGradient
       inkscape:collect="always"
       xlink:href="#gradient1"
       id="radialGradient3048"
       gradientUnits="userSpaceOnUse"
       gradientTransform="matrix(0.5625,0,0,0.34211493,18.271187,25.23213)"
       cx="0"
       cy="0"
       r="64" />
    <radialGradient
       inkscape:collect="always"
       xlink:href="#gradient1"
       id="radialGradient3052"
       gradientUnits="userSpaceOnUse"
       gradientTransform="matrix(0.5625,0,0,0.5625,18,18)"
       cx="0"
       cy="0"
       r="64" />
    <linearGradient
       y2="31.634424"
       x2="23.591845"
       y1="21.840229"
       x1="23.377983"
       gradientTransform="matrix(0.277603,-9.832923e-2,0.112086,0.340135,19.04250,26.33855)"
       gradientUnits="userSpaceOnUse"
       id="linearGradient3394"
       xlink:href="#linearGradient3050"
       inkscape:collect="always" />
    <linearGradient
       y2="31.634424"
       x2="23.591845"
       y1="21.840229"
       x1="23.377983"
       gradientTransform="matrix(0.277603,-9.832923e-2,0.112086,0.340135,19.04250,26.33855)"
       gradientUnits="userSpaceOnUse"
       id="linearGradient3388"
       xlink:href="#linearGradient3050"
       inkscape:collect="always" />
    <linearGradient
       y2="36.249878"
       x2="23.031250"
       y1="24.312500"
       x1="23.031250"
       gradientTransform="matrix(0.356785,-4.136152e-17,4.888137e-17,0.421652,15.59796,22.41694)"
       gradientUnits="userSpaceOnUse"
       id="linearGradient3384"
       xlink:href="#linearGradient3050"
       inkscape:collect="always" />
    <linearGradient
       id="linearGradient3800">
      <stop
         style="stop-color:#ffeed6;stop-opacity:1.0000000;"
         offset="0.0000000"
         id="stop3802" />
      <stop
         id="stop8664"
         offset="0.50000000"
         style="stop-color:#e49c2f;stop-opacity:1.0000000;" />
      <stop
         style="stop-color:#ffc66c;stop-opacity:1.0000000;"
         offset="1.0000000"
         id="stop3804" />
    </linearGradient>
    <linearGradient
       id="linearGradient3824">
      <stop
         style="stop-color:#ffffff;stop-opacity:1;"
         offset="0"
         id="stop3826" />
      <stop
         style="stop-color:#c9c9c9;stop-opacity:1.0000000;"
         offset="1.0000000"
         id="stop3828" />
    </linearGradient>
    <radialGradient
       gradientUnits="userSpaceOnUse"
       fy="39.5928"
       fx="25.0527"
       r="15.7572"
       cy="39.5928"
       cx="25.0527"
       id="aigrd2"
       gradientTransform="matrix(1.25,0,0,1.25,-6.479446,-13.37211)">
      <stop
         id="stop8602"
         style="stop-color:#777777;stop-opacity:1.0000000;"
         offset="0.0000000" />
      <stop
         id="stop8604"
         style="stop-color:#000000"
         offset="1" />
    </radialGradient>
    <linearGradient
       id="linearGradient2509">
      <stop
         id="stop2511"
         offset="0.0000000"
         style="stop-color:#fffbd5;stop-opacity:1.0000000;" />
      <stop
         id="stop2513"
         offset="1.0000000"
         style="stop-color:#edd400;stop-opacity:1.0000000;" />
    </linearGradient>
    <linearGradient
       id="linearGradient3290">
      <stop
         style="stop-color:#fffcde;stop-opacity:1.0000000;"
         offset="0.0000000"
         id="stop3292" />
      <stop
         id="stop3294"
         offset="0.64485979"
         style="stop-color:#f6e76a;stop-opacity:1.0000000;" />
      <stop
         style="stop-color:#ffb738;stop-opacity:1.0000000;"
         offset="1.0000000"
         id="stop3296" />
    </linearGradient>
    <linearGradient
       id="linearGradient3050">
      <stop
         id="stop3052"
         offset="0"
         style="stop-color:#a40000;stop-opacity:1;" />
      <stop
         id="stop3054"
         offset="1.0000000"
         style="stop-color:#ec0000;stop-opacity:1.0000000;" />
    </linearGradient>
    <linearGradient
       id="linearGradient3451">
      <stop
         id="stop3453"
         offset="0"
         style="stop-color:#ffffff;stop-opacity:1;" />
      <stop
         style="stop-color:#fefc9a;stop-opacity:0.62886596;"
         offset="0.5"
         id="stop4936" />
      <stop
         id="stop3455"
         offset="1"
         style="stop-color:#fefc9a;stop-opacity:0;" />
    </linearGradient>
    <linearGradient
       id="linearGradient3179">
      <stop
         id="stop3181"
         offset="0"
         style="stop-color:#ffffff;stop-opacity:1;" />
      <stop
         id="stop3185"
         offset="1"
         style="stop-color:#f6e76a;stop-opacity:1;" />
    </linearGradient>
    <inkscape:perspective
       id="perspective53"
       inkscape:persp3d-origin="24 : 16 : 1"
       inkscape:vp_z="48 : 24 : 1"
       inkscape:vp_y="0 : 1000 : 0"
       inkscape:vp_x="0 : 24 : 1"
       sodipodi:type="inkscape:persp3d" />
    <radialGradient
       inkscape:collect="always"
       xlink:href="#linearGradient3451"
       id="radialGradient3731"
       gradientUnits="userSpaceOnUse"
       gradientTransform="matrix(1,0,0,0.166667,0,8.709935)"
       cx="25.127777"
       cy="10.451922"
       fx="25.127777"
       fy="10.451922"
       r="15.076666" />
    <linearGradient
       id="linearGradient3712">
      <stop
         style="stop-color:white;stop-opacity:1;"
         offset="0"
         id="stop3714" />
      <stop
         style="stop-color:white;stop-opacity:0.50570345"
         offset="1"
         id="stop3716" />
    </linearGradient>
    <linearGradient
       id="linearGradient3752">
      <stop
         style="stop-color:white;stop-opacity:1"
         offset="0"
         id="stop3754" />
      <stop
         id="stop3756"
         offset="0.80000001"
         style="stop-color:#fce94f;stop-opacity:1;" />
      <stop
         style="stop-color:#edd400;stop-opacity:1"
         offset="1"
         id="stop3758" />
    </linearGradient>
    <linearGradient
       id="linearGradient7519"
       inkscape:collect="always">
      <stop
         id="stop7521"
         offset="0"
         style="stop-color:#2e3436;stop-opacity:1" />
      <stop
         id="stop7523"
         offset="1"
         style="stop-color:#2e3436;stop-opacity:0" />
    </linearGradient>
    <linearGradient
       id="linearGradient7549">
      <stop
         id="stop7551"
         offset="0"
         style="stop-color:#000000;stop-opacity:1;" />
      <stop
         id="stop7553"
         offset="1"
         style="stop-color:#888a85;stop-opacity:1" />
    </linearGradient>
    <linearGradient
       id="linearGradient7620"
       inkscape:collect="always">
      <stop
         id="stop7622"
         offset="0"
         style="stop-color:#2e3436;stop-opacity:1;" />
      <stop
         id="stop7624"
         offset="1"
         style="stop-color:#2e3436;stop-opacity:0;" />
    </linearGradient>
    <linearGradient
       inkscape:collect="always"
       id="linearGradient7638">
      <stop
         style="stop-color:#729fcf;stop-opacity:1"
         offset="0"
         id="stop7640" />
      <stop
         style="stop-color:#729fcf;stop-opacity:0"
         offset="1"
         id="stop7642" />
    </linearGradient>
    <inkscape:perspective
       id="perspective3834"
       inkscape:persp3d-origin="24 : 16 : 1"
       inkscape:vp_z="48 : 24 : 1"
       inkscape:vp_y="0 : 1000 : 0"
       inkscape:vp_x="0 : 24 : 1"
       sodipodi:type="inkscape:persp3d" />
    <linearGradient
       inkscape:collect="always"
       xlink:href="#linearGradient7519"
       id="linearGradient3977"
       gradientUnits="userSpaceOnUse"
       x1="43.78125"
       y1="14.6875"
       x2="44.3125"
       y2="13.375"
       gradientTransform="translate(-43.796611,-10.398531)" />
    <linearGradient
       inkscape:collect="always"
       xlink:href="#linearGradient7549"
       id="linearGradient3984"
       gradientUnits="userSpaceOnUse"
       x1="40.875"
       y1="20.125"
       x2="19.25"
       y2="16"
       gradientTransform="translate(-43.796611,-10.398531)" />
    <linearGradient
       inkscape:collect="always"
       xlink:href="#linearGradient7620"
       id="linearGradient3992"
       gradientUnits="userSpaceOnUse"
       gradientTransform="translate(-43.796611,-11.398531)"
       x1="4.5496697"
       y1="15.21875"
       x2="4.5496697"
       y2="14.71875" />
    <linearGradient
       inkscape:collect="always"
       xlink:href="#linearGradient7549"
       id="linearGradient3997"
       gradientUnits="userSpaceOnUse"
       x1="22"
       y1="19"
       x2="-3.8114223"
       y2="17.493725"
       gradientTransform="translate(-43.796611,-10.398531)" />
    <radialGradient
       inkscape:collect="always"
       xlink:href="#linearGradient7638"
       id="radialGradient4015"
       gradientUnits="userSpaceOnUse"
       gradientTransform="matrix(1.4271074,0,0,0.7135537,-7.225952,2.2588835)"
       cx="11.339117"
       cy="21.94875"
       fx="11.339117"
       fy="21.94875"
       r="8" />
  </defs>
  <sodipodi:namedview
     pagecolor="#ffffff"
     bordercolor="#666666"
     borderopacity="1"
     objecttolerance="10"
     gridtolerance="10"
     guidetolerance="10"
     inkscape:pageopacity="0"
     inkscape:pageshadow="2"
     inkscape:window-width="786"
     inkscape:window-height="501"
     id="namedview28"
     showgrid="false"
     inkscape:zoom="2.6074563"
     inkscape:cx="1.6250977"
     inkscape:cy="54.101991"
     inkscape:window-x="89"
     inkscape:window-y="138"
     inkscape:window-maximized="0"
     inkscape:current-layer="svg2" />
  <path
     id="path6"
     d="M 38,38 C 23.64,38 12,43.82 12,51 12,58.17 23.64,64 38,64 52.34,64 64,58.17 64,51 64,43.82 52.34,38 38,38 z"
     style="fill:#010101;fill-opacity:0.37250001" />
  <path
     id="path8"
     d="M 28,2 C 13.64,2 2,13.64 2,28 2,42.34 13.64,54 28,54 42.34,54 54,42.34 54,28 54,13.64 42.34,2 28,2 z"
     style="fill:none;stroke:#000000;stroke-width:4" />
  <path
     id="path17"
     d="M 28,2 C 13.64,2 2,13.64 2,28 2,42.34 13.64,54 28,54 42.34,54 54,42.34 54,28 54,13.64 42.34,2 28,2 z"
     style="fill:url(#radialGradient3042)" />
  <path
     id="path26"
     d="m 27,20 c -3.32,0 -6,2.68 -6,6 0,3.29 3.222373,-2.40678 6.542373,-2.40678 C 30.832373,23.59322 33,29.29 33,26 33,22.68 30.29,20 27,20 z"
     style="fill:url(#radialGradient3039)"
     sodipodi:nodetypes="csssc" />
  <path
     style="fill:url(#radialGradient3048)"
     d="m 3.2711865,28.881356 c 0,10.339474 17.0000005,12.164087 29.0000005,9.123065 -11,11.555882 -32.00000056,3.649226 -29.0000005,-9.123065 z"
     id="path3046"
     sodipodi:nodetypes="ccc" />
  <path
     style="fill:url(#radialGradient3052)"
     d="M 6,17 C 5,20 7.1694915,16.576271 9.1694915,16.576271 11.169492,16.576271 11,21 12,18 c 1,-3 0,-5 -1,-5 -2,0 -4,1 -5,4 z"
     id="path3050"
     sodipodi:nodetypes="csssc" />
  <g
     id="g7909"
     transform="translate(-185.59322,-0.12734493)" />
  <g
     id="g4068"
     transform="matrix(0.94293836,0.33296733,-0.33296733,0.94293836,40.943314,21.082003)">
    <path
       sodipodi:nodetypes="csc"
       id="path7513"
       d="m -1.3450758,5.1014686 c 0.97624297,0 2.439418,-0.375 1.95153497,-1.5 -0.487884,-1.125 -3.90306897,-1.5 -3.90306897,-1.5"
       style="fill:none;stroke:#2e3436;stroke-width:3;stroke-linecap:round;stroke-linejoin:round;stroke-miterlimit:4;stroke-opacity:1;stroke-dasharray:none;display:inline" />
    <path
       sodipodi:nodetypes="csc"
       id="path7509"
       d="m -1.2966108,5.1014686 c 1.00048797,0 2.5,-0.430556 1.99999997,-1.722222 -0.5,-1.291667 -3.99999997,-1.722223 -3.99999997,-1.722223"
       style="fill:none;stroke:#d3d7cf;stroke-width:1px;stroke-linecap:round;stroke-linejoin:round;stroke-opacity:1" />
    <path
       sodipodi:nodetypes="csc"
       id="path7527"
       d="m -38.197272,5.1014686 c -1.000488,0 -2.5,-0.375 -2,-1.5 0.5,-1.125 4,-1.5 4,-1.5"
       style="fill:none;stroke:#2e3436;stroke-width:3;stroke-linecap:round;stroke-linejoin:round;stroke-miterlimit:4;stroke-opacity:1;stroke-dasharray:none;display:inline" />
    <path
       sodipodi:nodetypes="csc"
       id="path7535"
       d="m -38.197272,5.1014686 c -1.000488,0 -2.5,-0.375 -2,-1.5 0.5,-1.125 4,-1.5 4,-1.5"
       style="fill:none;stroke:#d3d7cf;stroke-width:1px;stroke-linecap:round;stroke-linejoin:round;stroke-opacity:1;display:inline" />
    <path
       sodipodi:nodetypes="cccsccssc"
       id="path7507"
       d="m -25.265361,5.1014686 c 1.091197,0 2.96875,0.877553 2.96875,1.96875 l 0,2.75 c 0,1.8218744 -3.791,3.2812494 -8.5,3.2812504 -4.709,0 -8.5,-1.5 -8.5,-5.0000004 l 0,-1.03125 c 0,-2.46875 1.879124,-2.96875 2.96875,-2.96875 1.53125,0 3.405625,1 6.53125,1 2.776901,0 4.53125,0 4.53125,0 z"
       style="fill:url(#linearGradient3997);fill-opacity:1;stroke:#000000;stroke-width:1;stroke-linecap:square;stroke-linejoin:round;stroke-miterlimit:4;stroke-opacity:1;stroke-dasharray:none;stroke-dashoffset:0.7;display:inline" />
    <path
       transform="translate(-44.745763,-11.576271)"
       d="M 7.46875,16 C 7.0002564,16 6.361096,16.120939 5.875,16.46875 5.388904,16.816561 5,17.360971 5,18.46875 L 5,19.5 c 0,1.569852 0.7943668,2.621726 2.21875,3.375 C 8.6431332,23.628274 10.698479,24 13,24 15.302956,24 17.387343,23.624234 18.84375,23.0625 19.571953,22.781633 20.138076,22.456579 20.5,22.125 20.861924,21.793421 21,21.501178 21,21.21875 l 0,-2.75 C 21,18.209326 20.717067,17.811022 20.1875,17.5 19.657933,17.188978 18.943093,17 18.53125,17 L 14,17 C 10.767952,17 8.7827666,16 7.46875,16 z"
       id="path7595"
       style="opacity:0.25;fill:url(#radialGradient4015);fill-opacity:1;stroke:none;display:inline"
       inkscape:original="M 7.46875 15.5 C 6.379124 15.5 4.5 16 4.5 18.46875 L 4.5 19.5 C 4.5 23 8.291 24.5 13 24.5 C 17.709 24.499999 21.5 23.040624 21.5 21.21875 L 21.5 18.46875 C 21.5 17.377553 19.622447 16.5 18.53125 16.5 C 18.53125 16.5 16.776901 16.5 14 16.5 C 10.874375 16.5 9 15.5 7.46875 15.5 z "
       inkscape:radius="-0.49895787"
       sodipodi:type="inkscape:offset" />
    <path
       sodipodi:nodetypes="cs"
       id="path7529"
       d="m -38.197272,5.1014686 c -1.000488,0 -2.5,-0.5 -2,-2"
       style="fill:none;stroke:url(#linearGradient3992);stroke-width:3;stroke-linecap:round;stroke-linejoin:round;stroke-miterlimit:4;stroke-opacity:1;stroke-dasharray:none;display:inline" />
    <path
       sodipodi:nodetypes="cs"
       id="path7531"
       d="m -38.197272,5.1014686 c -1.000488,0 -2.5,-0.5 -2,-2"
       style="fill:none;stroke:#d3d7cf;stroke-width:1px;stroke-linecap:round;stroke-linejoin:round;stroke-opacity:1;display:inline" />
    <path
       sodipodi:nodetypes="cccsccssc"
       id="path6501"
       d="m -14.327861,5.1014686 c -1.091197,0 -2.96875,0.877553 -2.96875,1.96875 l 0,2.75 c 0,1.8218744 3.791,3.2812494 8.5000002,3.2812504 4.709,0 8.49999997,-1.5 8.49999997,-5.0000004 l 0,-1.03125 c 0,-2.46875 -1.87912397,-2.96875 -2.96874997,-2.96875 -1.53125,0 -3.405625,1 -6.53125,1 -2.7769012,0 -4.5312502,0 -4.5312502,0 z"
       style="fill:url(#linearGradient3984);fill-opacity:1;stroke:#000000;stroke-width:1;stroke-linecap:square;stroke-linejoin:round;stroke-miterlimit:4;stroke-opacity:1;stroke-dasharray:none;stroke-dashoffset:0.7;display:inline" />
    <path
       sodipodi:nodetypes="csc"
       id="path7487"
       d="m -22.296611,6.1014686 c 0,-1 1.428571,-1 2.5,-1 1.071428,0 2.5,0 2.5,1"
       style="fill:none;stroke:#2e3436;stroke-width:3;stroke-linecap:round;stroke-linejoin:miter;stroke-miterlimit:4;stroke-opacity:1;stroke-dasharray:none" />
    <path
       sodipodi:nodetypes="csc"
       id="path7503"
       d="m -22.296611,6.1014686 c 0,-1 1.428571,-1 2.5,-1 1.071428,0 2.5,0 2.5,1"
       style="fill:none;stroke:#d3d7cf;stroke-width:1;stroke-linecap:round;stroke-linejoin:miter;stroke-miterlimit:4;stroke-opacity:1;stroke-dasharray:none;display:inline" />
    <path
       sodipodi:nodetypes="cs"
       id="path7517"
       d="m -1.2966108,5.1014686 c 1.00048797,0 2.5,-0.5 1.99999997,-2"
       style="fill:none;stroke:url(#linearGradient3977);stroke-width:3;stroke-linecap:round;stroke-linejoin:round;stroke-miterlimit:4;stroke-opacity:1;stroke-dasharray:none;display:inline" />
    <path
       sodipodi:nodetypes="cs"
       id="path7515"
       d="m -1.2966108,5.1014686 c 1.00048797,0 2.5,-0.5 1.99999997,-2"
       style="fill:none;stroke:#d3d7cf;stroke-width:1px;stroke-linecap:round;stroke-linejoin:round;stroke-opacity:1;display:inline" />
    <path
       transform="matrix(1.5,0,0,1.5,-54.546611,-19.898531)"
       d="m 22.5,16.5 c 0,0.276142 -0.223858,0.5 -0.5,0.5 -0.276142,0 -0.5,-0.223858 -0.5,-0.5 0,-0.276142 0.223858,-0.5 0.5,-0.5 0.276142,0 0.5,0.223858 0.5,0.5 z"
       sodipodi:ry="0.5"
       sodipodi:rx="0.5"
       sodipodi:cy="16.5"
       sodipodi:cx="22"
       id="path7628"
       style="fill:#ffffff;fill-opacity:1;stroke:none"
       sodipodi:type="arc" />
    <path
       transform="matrix(1.5,0,0,1.5,-73.04661,-20.898531)"
       d="m 22.5,16.5 c 0,0.276142 -0.223858,0.5 -0.5,0.5 -0.276142,0 -0.5,-0.223858 -0.5,-0.5 0,-0.276142 0.223858,-0.5 0.5,-0.5 0.276142,0 0.5,0.223858 0.5,0.5 z"
       sodipodi:ry="0.5"
       sodipodi:rx="0.5"
       sodipodi:cy="16.5"
       sodipodi:cx="22"
       id="path7630"
       style="fill:#ffffff;fill-opacity:1;stroke:none;display:inline"
       sodipodi:type="arc" />
    <path
       transform="matrix(1.5,0,0,1.5,-34.046611,-19.898531)"
       d="m 22.5,16.5 c 0,0.276142 -0.223858,0.5 -0.5,0.5 -0.276142,0 -0.5,-0.223858 -0.5,-0.5 0,-0.276142 0.223858,-0.5 0.5,-0.5 0.276142,0 0.5,0.223858 0.5,0.5 z"
       sodipodi:ry="0.5"
       sodipodi:rx="0.5"
       sodipodi:cy="16.5"
       sodipodi:cx="22"
       id="path7632"
       style="fill:#ffffff;fill-opacity:1;stroke:none;display:inline"
       sodipodi:type="arc" />
  </g>
</svg>
