<?xml version="1.0" encoding="UTF-8" standalone="no"?>
<!-- Created with Inkscape (http://www.inkscape.org/) -->

<svg
   xmlns:dc="http://purl.org/dc/elements/1.1/"
   xmlns:cc="http://creativecommons.org/ns#"
   xmlns:rdf="http://www.w3.org/1999/02/22-rdf-syntax-ns#"
   xmlns:svg="http://www.w3.org/2000/svg"
   xmlns="http://www.w3.org/2000/svg"
   xmlns:sodipodi="http://sodipodi.sourceforge.net/DTD/sodipodi-0.dtd"
   xmlns:inkscape="http://www.inkscape.org/namespaces/inkscape"
   width="512"
   height="512"
   viewBox="0 0 512 512"
   id="svg2"
   version="1.1"
   inkscape:version="0.91 r13725"
   sodipodi:docname="fly.svg">
  <defs
     id="defs4" />
  <sodipodi:namedview
     id="base"
     pagecolor="#ffffff"
     bordercolor="#666666"
     borderopacity="1.0"
     inkscape:pageopacity="0.0"
     inkscape:pageshadow="2"
     inkscape:zoom="1.4609375"
     inkscape:cx="256"
     inkscape:cy="256"
     inkscape:document-units="px"
     inkscape:current-layer="layer1"
     showgrid="false"
     inkscape:window-width="1918"
     inkscape:window-height="1020"
     inkscape:window-x="2"
     inkscape:window-y="30"
     inkscape:window-maximized="1"
     units="px" />
  <metadata
     id="metadata7">
    <rdf:RDF>
      <cc:Work
         rdf:about="">
        <dc:format>image/svg+xml</dc:format>
        <dc:type
           rdf:resource="http://purl.org/dc/dcmitype/StillImage" />
        <dc:title></dc:title>
      </cc:Work>
    </rdf:RDF>
  </metadata>
  <g
     inkscape:label="Capa 1"
     inkscape:groupmode="layer"
     id="layer1"
     transform="translate(0,-540.3622)">
    <path
       sodipodi:nodetypes="ccc"
       inkscape:connector-curvature="0"
       id="path4159"
       d="m 477.41353,814.92478 c 97.38374,73.83852 -100.49996,213.43852 -106.08663,86.82486 -6.08535,-9.88004 63.22786,-90.49117 106.08663,-86.82486 z"
       style="opacity:1;fill:#660000;fill-opacity:1;fill-rule:evenodd;stroke:none;stroke-width:1.28299999;stroke-linecap:square;stroke-linejoin:round;stroke-miterlimit:4;stroke-dasharray:none;stroke-dashoffset:0;stroke-opacity:1" />
    <path
       style="opacity:1;fill:#191509;fill-opacity:1;fill-rule:evenodd;stroke:none;stroke-width:1.28299999;stroke-linecap:square;stroke-linejoin:round;stroke-miterlimit:4;stroke-dasharray:none;stroke-dashoffset:0;stroke-opacity:1"
       d="M 342.50451,900.52032 C 96.588282,642.6 343.37425,666.4669 448.59114,813.69546 c 6.08535,9.88119 -63.22785,90.49118 -106.08663,86.82486 z"
       id="path4157"
       inkscape:connector-curvature="0"
       sodipodi:nodetypes="ccc" />
    <path
       style="opacity:1;fill:#cccccc;fill-opacity:1;fill-rule:evenodd;stroke:none;stroke-width:1.28299999;stroke-linecap:square;stroke-linejoin:round;stroke-miterlimit:4;stroke-dasharray:none;stroke-dashoffset:0;stroke-opacity:1"
       d="m 32.793052,726.2127 72.744818,2.87181 C 364.41325,723.1599 316.60561,889.7661 183.06852,835.33025 102.88143,815.7853 53.643665,799.67901 30.878706,786.51397 5.3656098,767.32073 -17.870997,732.65408 32.793052,726.2127 Z"
       id="rect4152"
       inkscape:connector-curvature="0"
       sodipodi:nodetypes="ccccc" />
    <path
       sodipodi:nodetypes="ccccc"
       inkscape:connector-curvature="0"
       id="path4155"
       d="m 234.649,589.88404 c 10.67401,5.68331 17.51934,9.07986 29.62911,20.7572 128.76613,100.22325 100.89883,148.23365 10.39749,89.31308 -27.20292,-19.96269 -48.58934,-29.29523 -63.66958,-77.40239 -6.60715,-18.78688 -15.04835,-60.77478 23.64298,-32.66789 z"
       style="opacity:1;fill:#cccccc;fill-opacity:1;fill-rule:evenodd;stroke:none;stroke-width:1.28299999;stroke-linecap:square;stroke-linejoin:round;stroke-miterlimit:4;stroke-dasharray:none;stroke-dashoffset:0;stroke-opacity:1" />
    <path
       inkscape:connector-curvature="0"
       id="path3375"
       d="m 346.93068,997.33791 c 0.79426,-1.21223 2.96449,-1.72331 2.77106,-3.0232 -0.19339,-1.29875 -0.95579,-3.14613 -2.43757,-6.55292 -9.55235,-21.95692 -12.7883,-41.59293 -10.70017,-64.92941 0.96388,-10.7713 0.91846,-13.36424 -0.25303,-14.46265 -0.78505,-0.73988 -5.9636,-2.61458 -11.50785,-4.17512 -18.33733,-5.16312 -43.55128,-16.44891 -63.4089,-28.38236 -4.81927,-2.89571 -9.59421,-5.10735 -10.61099,-4.91497 -2.78023,0.52359 -2.75935,3.65606 0.21001,31.44766 3.35335,31.38621 3.35238,31.89046 -0.074,38.68812 -10.6295,20.2666 -31.98011,50.76839 -34.22914,43.90927 3.48309,-7.0549 10.02062,-7.86989 27.01797,-37.21407 l 7.34845,-12.68697 -0.2107,-8.94554 c -0.40748,-17.30487 -4.53263,-36.96593 -11.51144,-54.86611 -4.95495,-12.70747 -5.33755,-13.29253 -12.52733,-19.12835 -7.81968,-6.34691 -9.23885,-6.79652 -72.12464,-22.87207 C 75.162706,808.90114 66.911015,806.43796 49.938024,797.96708 18.560546,782.30698 2.843952,766.20069 1.4636077,748.29027 1.0320616,742.6912 1.3148834,741.25813 3.4774073,738.0881 10.172831,728.27067 20.214263,725.82114 53.161648,725.96229 c 13.131101,0 36.230913,0.93336 51.332912,1.95779 15.10203,1.02443 34.16856,1.9282 42.37008,2.01926 l 14.91187,0.15936 4.26371,-6.1978 c 6.53295,-9.4953 17.68317,-19.20461 27.61017,-24.04332 15.08881,-7.35426 28.50746,-8.68944 57.14084,-5.68331 5.21885,0.54637 6.10132,0.38701 6.10132,-1.1041 0,-0.95614 -4.91839,-6.63147 -10.92975,-12.59934 -14.21969,-14.11662 -20.67196,-22.86524 -28.34971,-38.43883 -13.33261,-27.04491 -16.83659,-51.54012 -8.46195,-59.15619 3.2043,-2.91392 9.75727,-4.08405 11.06086,-1.97486 0.32076,0.52359 1.90076,1.27371 3.51119,1.67778 4.88613,1.22363 18.99437,8.73951 28.73954,15.30952 19.0413,12.83722 46.13912,36.25452 62.34948,53.88037 27.40888,29.8029 51.19935,62.4799 61.13218,83.96785 3.57038,7.72305 4.56627,9.01155 8.03468,10.3877 14.64665,5.81534 29.1847,15.43358 33.20023,21.96603 1.14801,1.86787 2.56948,5.30539 3.1588,7.63996 1.68617,6.67926 2.40799,7.3736 8.44673,8.12599 3.6112,0.4553 7.15584,1.78477 9.96734,3.7551 5.04008,3.53085 11.03219,12.8577 11.95201,18.60361 0.34842,2.17634 1.24885,4.79774 2.00093,5.82673 1.29532,1.77112 1.62559,1.74493 6.26293,-0.51222 6.438,-3.12792 11.6552,-3.00385 18.56723,0.44392 16.48081,8.2125 30.8376,33.1562 30.8376,53.57647 0,13.08991 -6.80525,29.08693 -15.81297,37.16967 -4.93942,4.43236 -5.43995,7.20515 -2.16841,12.01427 1.19105,1.75063 4.25097,4.86945 5.13121,6.52447 l 4.65775,8.75431 -7.44599,-8.3434 c -1.49854,-1.67892 -3.77357,-1.97373 -4.83708,-1.5651 -2.34582,0.89922 -6.03024,12.893 -6.12655,19.94334 -0.0409,3.00158 -0.48398,6.51081 -0.2124,7.71167 2.82182,12.46502 -1.47677,1.85764 -2.25267,-1.23045 -2.55353,-10.16461 -2.87201,-11.10253 -4.91866,-11.10253 -1.13903,0 -5.29869,2.21619 -9.2437,4.92523 -12.86231,8.83285 -28.01952,14.41598 -43.00356,15.8388 -11.88928,1.12687 -11.19395,2.15585 -5.12037,16.32825 31.00167,46.09701 1.21123,12.47982 -7.03359,-7.27003 -2.50065,-5.99062 -5.87039,-10.18395 -6.97744,-10.48217 -1.04901,-0.28457 -5.20719,-2.09667 -9.24037,-4.02942 -8.54005,-4.09202 -15.94564,-10.53682 -19.9644,-17.37203 -2.54027,-4.32082 -2.85548,-5.96673 -2.95964,-15.44724 l -0.11656,-10.6108 -3.59726,0.11382 c -5.98195,0.18212 -13.79347,2.20593 -15.64579,4.05788 -1.4981,1.49794 -1.73577,4.48699 -1.67523,21.07248 0.0717,19.76237 1.87898,36.58803 5.68478,52.93791 1.04265,4.47903 1.60675,8.59723 1.25351,9.15156 -0.76353,1.19631 -39.06184,23.75425 -44.06614,25.19525 -2.95166,2.8046 -12.15068,31.4181 -14.62736,24.9869 -1.16059,-6.3116 4.46217,-12.63 10.27224,-32.7316 26.67243,-9.7343 23.94871,-7.8038 38.60418,-14.74834 z m 85.98205,-55.67996 c 9.45554,-2.22983 24.0673,-10.11793 31.33133,-16.91331 13.21417,-12.3603 14.54758,-21.62227 5.66981,-39.3813 -9.15312,-18.30995 -21.23334,-31.16767 -30.44202,-32.40267 -9.54273,-1.28054 -22.08312,9.46458 -39.67858,33.9985 -13.006,18.13466 -16.59832,25.01199 -16.61625,31.80736 -0.0171,6.28772 1.74471,9.81972 7.48095,15.00218 10.1918,9.20848 24.96716,11.96647 42.25476,7.88924 z m 61.23097,-64.33637 c 3.56498,-16.02434 0.49502,-31.45792 -8.68702,-43.67252 -8.08677,-10.75764 -17.82036,-15.51668 -22.08936,-10.79976 -2.54922,2.81718 -4.86575,11.10594 -4.86575,17.40959 0,4.86945 0.41284,5.73908 5.08568,10.70756 6.92507,7.3645 14.43482,18.121 19.53012,27.97486 2.33375,4.51318 4.48223,8.59495 4.77441,9.07075 1.35699,2.20935 4.62541,-3.37948 6.25192,-10.69048 z m -131.14099,5.77095 c 7.84439,-3.24176 15.40435,-8.20909 28.36965,-18.63778 10.81776,-8.70194 43.72269,-40.5298 47.22663,-45.68153 2.25341,-3.31346 2.40582,-9.73548 0.32645,-13.75694 -2.25567,-4.36179 -8.51316,-9.45319 -12.54903,-10.21013 -4.40867,-0.83093 -11.96835,1.93276 -20.50514,7.48743 -3.44337,2.24009 -13.68258,11.50433 -22.75379,20.58873 -25.10506,25.13834 -37.09235,42.62305 -37.09235,54.10121 0,4.24113 0.45985,5.58996 2.3583,6.91944 3.25413,2.27992 7.74586,2.03064 14.61927,-0.80817 z M 336.7828,848.31318 c 2.78758,-1.38867 13.04569,-10.91699 27.281,-25.33753 15.05317,-15.25033 25.76287,-25.152 31.48356,-29.10629 10.15915,-7.02416 15.20478,-12.37396 15.20478,-16.12222 0,-4.30715 -9.19529,-12.36485 -20.47369,-17.94116 -24.51359,-12.11784 -42.75935,-9.71158 -60.2894,7.95298 -6.46829,6.51765 -9.14694,10.27502 -13.44326,18.85631 -6.77805,13.53954 -7.62734,19.10446 -4.676,30.64065 3.15514,12.33185 8.25289,24.84239 11.95057,29.32825 3.81206,4.62472 6.44488,4.97644 12.96244,1.72901 z M 199.00995,833.61946 c -1.50404,-1.49566 -17.49852,-7.51134 -53.00187,-19.93424 -17.50813,-6.12607 -54.683717,-19.24559 -55.559127,-19.79651 -5.065464,-3.18596 59.886777,16.10743 101.716917,29.28386 30.88533,9.72865 33.75967,10.50266 34.51316,9.2836 0.30073,-0.48945 -1.49244,-2.27423 -3.98475,-3.97137 -4.47463,-3.04711 -42.47359,-22.63304 -69.78907,-38.20435 -20.58967,-11.73767 -59.635988,-29.78924 -11.7561,-9.67743 15.91312,6.68383 51.62281,23.84413 82.00884,40.43305 8.7605,4.7818 16.43859,8.24892 17.50812,7.98485 2.54813,-0.62605 -12.12048,-16.07328 -29.93098,-29.18369 -22.39097,-16.48191 -58.00173,-38.3933 -10.61099,-10.33762 7.61405,4.50748 27.38091,18.50914 39.85572,28.77961 10.51352,8.65642 13.72975,10.41616 13.72975,7.51247 0,-1.78251 -8.75279,-14.51274 -16.77988,-24.40416 -3.39999,-4.18992 -6.41491,-8.44357 -7.0952,-9.1527 -34.00428,-35.42929 15.62412,12.26697 30.13058,27.7973 3.6797,3.93949 7.12,7.16303 7.64513,7.16303 1.22949,0 1.23058,-4.4574 0.002,-7.62403 -0.52405,-1.3511 -1.63018,-5.14831 -3.19545,-8.09753 -12.28084,-23.13729 -8.67071,-18.78689 5.79007,4.60993 3.02568,4.89562 6.17883,9.10602 6.7978,9.48848 2.22406,1.37501 2.52997,-3.20078 0.7748,-11.58856 -0.98289,-4.69758 -8.74963,-22.41336 -9.02448,-23.87715 -0.2955,-1.57193 7.85359,12.02793 9.91989,17.98896 3.80056,10.96252 5.21776,10.94431 6.67835,11.43148 1.83071,0.61466 1.61268,-12.77918 -0.32952,-20.23587 -4.92197,-18.89615 -20.83368,-35.95289 -43.16377,-46.27002 -16.08836,-7.4328 -34.78364,-12.44567 -57.45226,-15.40399 -6.89329,-0.89922 -37.21418,-3.12678 -67.37975,-4.94798 -72.646055,-4.38797 -94.483381,-3.70958 -105.801312,3.28499 -9.8717121,6.10105 -6.8219513,20.77883 7.464113,35.92215 19.057021,20.20173 38.744308,27.91681 130.500799,51.14288 43.73665,11.06953 52.07379,12.84406 49.81857,10.60056 z m 98.58422,-34.90796 c 0.97321,-1.08135 2.94469,-4.95368 4.38099,-8.61886 7.51897,-19.18641 16.90564,-30.57236 36.35702,-44.10165 3.42816,-2.38464 2.95718,-5.2371 -1.62098,-9.81515 -7.04281,-7.04238 -21.31252,-12.57315 -35.2946,-13.67726 -20.43947,-1.61632 -32.21699,8.68145 -33.63782,29.41134 l -0.55865,8.15103 7.30428,7.87786 c 7.61652,8.21591 13.04897,17.17169 15.34592,25.3011 2.18544,7.7333 4.31285,9.24148 7.72384,5.47159 z m 37.22268,-76.64205 c -32.09423,-19.03843 -53.12834,-29.04254 -3.11654,-6.01908 1.98898,0.9106 -2.11526,-4.53367 -10.22832,-11.33132 -5.62556,-4.7135 -21.91647,-16.43866 -21.72558,-16.64468 0.19088,-0.20489 15.80955,9.32002 20.23168,11.76043 4.42213,2.44156 8.62992,4.23658 9.35068,3.99072 0.73997,-0.25042 -1.98663,-4.48699 -7.17834,-8.69511 -25.84808,-20.95071 -53.3115,-40.99422 1.56528,-1.89634 3.81888,2.72043 7.0412,4.15349 7.26223,3.48988 0.21524,-0.6488 -1.40315,-3.36353 -3.59655,-6.0407 l -33.4297,-31.17791 34.47224,30.15121 c 6.34061,5.54557 8.51019,5.09481 5.62625,0 -0.7088,-1.26575 -6.66973,-8.54716 -13.24645,-16.18256 -6.57673,-7.63427 -31.71654,-31.73338 -31.35972,-31.73338 0.35684,0 21.91367,18.80623 23.39753,19.97407 1.48386,1.16671 3.14355,2.12171 3.68819,2.12171 1.85637,0 -3.82695,-6.8796 -16.08911,-19.47666 -22.07732,-22.67857 -49.34872,-43.90359 -68.44007,-53.26572 -11.05249,-5.41923 -17.04032,-6.70546 -20.20438,-4.3413 -1.89799,1.4194 -2.10961,2.74433 -2.00318,12.54242 0.0956,8.84423 0.68137,12.68698 3.03644,19.93879 11.13324,34.27965 34.78707,62.73827 67.37843,81.06643 13.78588,7.75265 52.39115,24.95621 56.20062,25.045 0.96433,0 0.37927,-1.16329 -1.59163,-3.22468 z"
       style="opacity:1;fill:#000000;fill-opacity:1;stroke:none;stroke-opacity:1"
       sodipodi:nodetypes="cssssssssccscsssssssssscssssssssssssssssssssssssscsscssssscscsssccssssccccsssssssssssssssssssssssssssssssssssscssscssssssssssssscsscsssssssssssccsssssscssscsscsssssscssssssssscssccc" />
    <path
       sodipodi:nodetypes="cscscc"
       inkscape:connector-curvature="0"
       id="path4161"
       d="m 262.05894,755.48745 c -12.85339,-6.12153 -19.67598,-10.41389 -39.62606,-17.07381 -19.70469,-6.57797 -52.49631,-8.24665 -52.49631,-8.24665 5.61134,-16.08579 25.99734,-33.59328 56.2122,-33.32693 25.64224,0.22765 55.53413,4.7966 58.91964,20.53524 -17.11352,4.63155 -18.52981,21.82602 -23.00947,38.11215 z"
       style="opacity:1;fill:#280c06;fill-opacity:1;fill-rule:evenodd;stroke:none;stroke-width:1.28299999;stroke-linecap:square;stroke-linejoin:round;stroke-miterlimit:4;stroke-dasharray:none;stroke-dashoffset:0;stroke-opacity:1" />
  </g>
</svg>
