<?xml version="1.0" encoding="UTF-8" standalone="no"?>
<svg
   xmlns:dc="http://purl.org/dc/elements/1.1/"
   xmlns:cc="http://creativecommons.org/ns#"
   xmlns:rdf="http://www.w3.org/1999/02/22-rdf-syntax-ns#"
   xmlns:svg="http://www.w3.org/2000/svg"
   xmlns="http://www.w3.org/2000/svg"
   xmlns:xlink="http://www.w3.org/1999/xlink"
   xmlns:sodipodi="http://sodipodi.sourceforge.net/DTD/sodipodi-0.dtd"
   xmlns:inkscape="http://www.inkscape.org/namespaces/inkscape"
   version="1.1"
   width="64"
   height="64"
   color-interpolation="linearRGB"
   id="svg2"
   sodipodi:version="0.32"
   inkscape:version="0.47 r22583"
   sodipodi:docname="folder-music.svg"
   inkscape:output_extension="org.inkscape.output.svg.inkscape">
  <metadata
     id="metadata43">
    <rdf:RDF>
      <cc:Work
         rdf:about="">
        <dc:format>image/svg+xml</dc:format>
        <dc:type
           rdf:resource="http://purl.org/dc/dcmitype/StillImage" />
      </cc:Work>
    </rdf:RDF>
  </metadata>
  <defs
     id="defs41">
    <inkscape:perspective
       sodipodi:type="inkscape:persp3d"
       inkscape:vp_x="0 : 32 : 1"
       inkscape:vp_y="0 : 1000 : 0"
       inkscape:vp_z="64 : 32 : 1"
       inkscape:persp3d-origin="32 : 21.333333 : 1"
       id="perspective45" />
    <inkscape:perspective
       id="perspective2463"
       inkscape:persp3d-origin="32 : 21.333333 : 1"
       inkscape:vp_z="64 : 32 : 1"
       inkscape:vp_y="0 : 1000 : 0"
       inkscape:vp_x="0 : 32 : 1"
       sodipodi:type="inkscape:persp3d" />
    <linearGradient
       inkscape:collect="always"
       xlink:href="#linearGradient2475"
       id="linearGradient2491"
       gradientUnits="userSpaceOnUse"
       x1="102.6"
       y1="8.5"
       x2="102.74"
       y2="47.07" />
    <linearGradient
       inkscape:collect="always"
       xlink:href="#linearGradient2475"
       id="linearGradient2493"
       gradientUnits="userSpaceOnUse"
       x1="103.24"
       y1="12.68"
       x2="103.39"
       y2="55.34" />
    <linearGradient
       inkscape:collect="always"
       xlink:href="#gradient2"
       id="linearGradient2495"
       gradientUnits="userSpaceOnUse"
       x1="78.34"
       y1="-26.66"
       x2="101.46"
       y2="12.94" />
    <linearGradient
       inkscape:collect="always"
       xlink:href="#linearGradient2486"
       id="linearGradient2497"
       gradientUnits="userSpaceOnUse"
       x1="88.519997"
       y1="9.5900002"
       x2="97.540001"
       y2="51.290001" />
    <linearGradient
       inkscape:collect="always"
       xlink:href="#gradient2"
       id="linearGradient2857"
       gradientUnits="userSpaceOnUse"
       x1="78.34"
       y1="-26.66"
       x2="101.46"
       y2="12.94" />
    <linearGradient
       y2="47.07"
       x2="102.74"
       y1="8.5"
       x1="102.6"
       gradientUnits="userSpaceOnUse"
       id="gradient0">
      <stop
         id="stop11"
         stop-color="#face79"
         offset="0" />
      <stop
         id="stop13"
         stop-color="#bc4105"
         offset="1" />
    </linearGradient>
    <linearGradient
       y2="55.34"
       x2="103.39"
       y1="12.68"
       x1="103.24"
       gradientUnits="userSpaceOnUse"
       id="gradient1">
      <stop
         id="stop18"
         stop-color="#ffffff"
         offset="0" />
      <stop
         id="stop20"
         stop-color="#8e8e8e"
         offset="1" />
    </linearGradient>
    <linearGradient
       y2="12.94"
       x2="101.46"
       y1="-26.66"
       x1="78.34"
       gradientUnits="userSpaceOnUse"
       id="gradient2">
      <stop
         id="stop25"
         stop-color="#9a9a9a"
         offset="0" />
      <stop
         id="stop27"
         stop-color="#505050"
         offset="1" />
    </linearGradient>
    <linearGradient
       y2="51.29"
       x2="97.54"
       y1="9.59"
       x1="88.52"
       gradientUnits="userSpaceOnUse"
       id="gradient3">
      <stop
         id="stop32"
         stop-color="#ffe2ac"
         offset="0" />
      <stop
         id="stop34"
         stop-color="#f49806"
         offset="1" />
    </linearGradient>
    <linearGradient
       inkscape:collect="always"
       xlink:href="#gradient2"
       id="linearGradient2876"
       gradientUnits="userSpaceOnUse"
       x1="78.34"
       y1="-26.66"
       x2="101.46"
       y2="12.94" />
    <linearGradient
       inkscape:collect="always"
       xlink:href="#gradient1"
       id="linearGradient2879"
       gradientUnits="userSpaceOnUse"
       x1="103.24"
       y1="12.68"
       x2="103.39"
       y2="55.34" />
  </defs>
  <sodipodi:namedview
     inkscape:window-height="682"
     inkscape:window-width="1106"
     inkscape:pageshadow="2"
     inkscape:pageopacity="0.0"
     guidetolerance="10.0"
     gridtolerance="10.0"
     objecttolerance="10.0"
     borderopacity="1.0"
     bordercolor="#666666"
     pagecolor="#ffffff"
     id="base"
     showgrid="false"
     inkscape:zoom="7.28125"
     inkscape:cx="32"
     inkscape:cy="32"
     inkscape:window-x="85"
     inkscape:window-y="43"
     inkscape:current-layer="svg2"
     inkscape:window-maximized="1" />
  <path
     id="path6"
     d="m 42,61 h 6 l 4,-4 h 4 l 6,-6 -14,-4 -6,14 z"
     style="fill:#010101;fill-opacity:0.39599998" />
  <path
     id="path8"
     d="M 3,15 13,41 42,59 60,12 48,10 44,12 26,8 24,13 16,11 15.91,19.2 3,15 z"
     style="fill:none;stroke:#000000;stroke-width:4" />
  <path
     id="path15"
     d="M 26,8 14,41 42,58 60,12 48,10 44,12 26,8 z"
     style="fill:#ffff00;fill-opacity:1" />
  <path
     id="path22"
     d="M 16,11 V 41 L 42,57 49,22 16,11 z"
     style="fill:url(#linearGradient2879)" />
  <path
     id="path29"
     d="M 16,11 49,22 42,57 52,20.37 16,11 z"
     style="fill:url(#linearGradient2876)" />
  <path
     id="path36"
     d="M 3,15 13,41 42,59 38,30 3,15 z"
     style="fill:#ffbf00;fill-opacity:1" />
  <path
     id="path38"
     d="M 3,15 38,30 42,59 40.5,28 3,15 z"
     style="fill:#a03d03" />
  <g
     id="g2420"
     transform="matrix(0.583758,0,0,0.583758,0.9094434,29.141516)">
    <path
       id="path2422"
       d="M 27,57 L 29,59 L 32.13,55.83 L 37,59 L 45.39,47.54 L 64,38 L 59,35 L 61,37 L 36,49 L 27,57 z M 58,34 L 62,31 L 58,29 L 55,32 L 58,34 z"
       style="fill:#010101;fill-opacity:0.57250001" />
    <path
       id="path2424"
       d="M 6.25,30 C 6.25,30 11.87,36 16.87,42.5 C 21.87,49 26.25,55.75 26.25,55.75 L 59.12,36.87 L 32,15 L 6.25,30 z"
       style="fill:none;stroke:#010101;stroke-width:4" />
    <radialGradient
       gradientTransform="matrix(0.5714,0,0,0.3333,26,35)"
       r="64"
       cy="0"
       cx="0"
       gradientUnits="userSpaceOnUse"
       id="radialGradient2469">
      <stop
         id="stop2427"
         stop-color="#d8e4fa"
         offset="1" />
      <stop
         id="stop2429"
         stop-color="#7794c9"
         offset="0.4886" />
    </radialGradient>
    <path
       id="path2431"
       d="M 6.25,30 C 6.25,30 11.87,36 16.87,42.5 C 21.87,49 26.25,55.75 26.25,55.75 L 59.12,36.87 L 32,15 L 6.25,30 z"
       style="fill:url(#linearGradient2491);fill-opacity:1.0" />
    <path
       id="path2433"
       d="M 2.62,30.87 C 2.62,30.87 10.95,36.26 19,41.87 C 27.44,47.75 35.75,52.75 35.75,52.75 L 58.12,26.37 C 58.12,26.37 45.44,20.7 35.37,15.37 C 30.18,12.62 26,9.37 26,9.37 L 2.62,30.87 z"
       style="fill:none;stroke:#010101;stroke-width:4" />
    <linearGradient
       y2="27.99"
       x2="118.33"
       y1="-17.09"
       x1="107.04"
       gradientUnits="userSpaceOnUse"
       id="linearGradient2475">
      <stop
         id="stop2436"
         stop-color="#a5c5ff"
         offset="0" />
      <stop
         id="stop2438"
         stop-color="#eaf2ff"
         offset="0.7424" />
      <stop
         id="stop2440"
         stop-color="#d5e3ff"
         offset="1" />
    </linearGradient>
    <path
       id="path2442"
       d="M 2.62,30.87 C 2.62,30.87 10.95,36.26 19,41.87 C 27.44,47.75 35.75,52.75 35.75,52.75 L 58.12,26.37 C 58.12,26.37 45.44,20.7 35.37,15.37 C 30.18,12.62 26,9.37 26,9.37 L 2.62,30.87 z"
       style="fill:url(#linearGradient2493);fill-opacity:1.0" />
    <radialGradient
       gradientTransform="matrix(0.1558,-0.1915,0.4544,0.3697,27.8803,27.4956)"
       r="64"
       cy="0"
       cx="0"
       gradientUnits="userSpaceOnUse"
       id="radialGradient2481">
      <stop
         id="stop2445"
         stop-color="#485c85"
         offset="0" />
      <stop
         id="stop2447"
         stop-color="#bbcff7"
         offset="1" />
    </radialGradient>
    <path
       id="path2449"
       d="M 33,49 L 53,27 M 28,45 L 47,24 M 22,41 L 42,21 M 17,37 L 36,18 M 11,33 L 31,13"
       style="fill:none;stroke:url(#linearGradient2495);stroke-width:1" />
    <linearGradient
       y2="-12.12"
       x2="2.3199999"
       y1="12.97"
       x1="-16.879999"
       gradientUnits="userSpaceOnUse"
       id="linearGradient2486">
      <stop
         id="stop2452"
         stop-color="#010101"
         offset="0" />
      <stop
         id="stop2454"
         stop-color="#272727"
         offset="1" />
    </linearGradient>
    <path
       id="path2456"
       d="M 27,42 C 31.16,44.77 37,36 33,33 C 29,30 22,28 22,28 L 30.87,20.62 L 43,28 C 40,29 38,35 41,37 C 45.16,39.77 51,31 47,28 C 43,25 27,16 27,16 L 14,26 L 29,33 C 26,34 24,40 27,42 z"
       style="fill:url(#linearGradient2497);fill-opacity:1.0" />
  </g>
</svg>
