<?xml version="1.0" encoding="UTF-8" standalone="yes"?>
<svg version="1.1" width="64" height="64" color-interpolation="linearRGB"
     xmlns:svg="http://www.w3.org/2000/svg" xmlns="http://www.w3.org/2000/svg">
 <g>
  <path style="fill:none; stroke:#000000; stroke-width:4"
        d="M31 32C24 28 14 26 7 31C4 33 2 37 2 40C2 45 4 49 7 53C6 55 4 55 2 54C5 56 8 57 10 56C12 58 15 59 17 60C20 61 24 62 28 62C34 62 39 60 41 55C45 46 38 36 31 32z"
        transform="matrix(0.9999,0.0037,-0.0037,0.9999,0.1695,-0.0718)"
  />
  <radialGradient id="gradient0" gradientUnits="userSpaceOnUse" cx="0" cy="0" r="64" gradientTransform="matrix(0.4391,0.2625,-0.1589,0.2658,13.6466,37.066)">
   <stop offset="0" stop-color="#ffffff"/>
   <stop offset="0.7064" stop-color="#ffe405"/>
   <stop offset="1" stop-color="#ffa405"/>
  </radialGradient>
  <path style="fill:url(#gradient0)"
        d="M31 32C24 28 14 26 7 31C4 33 2 37 2 40C2 45 4 49 7 53C6 55 4 55 2 54C5 56 8 57 10 56C12 58 15 59 17 60C20 61 24 62 28 62C34 62 39 60 41 55C45 46 38 36 31 32z"
  />
  <radialGradient id="gradient1" gradientUnits="userSpaceOnUse" cx="0" cy="0" r="64" gradientTransform="matrix(0.4391,0.2625,-0.1589,0.2658,13.6466,37.066)">
   <stop offset="0" stop-color="#ffe405"/>
   <stop offset="1" stop-color="#ffa405"/>
  </radialGradient>
  <path style="fill:url(#gradient1)"
        d="M31 32C29 31 27 29 24.05 29.07C19 29 24 36 29 41C34 46 40 51 42 49C42 42 36 35 31 32z"
  />
  <path style="fill:none; stroke:#000000; stroke-width:2; stroke-linecap:square"
        d="M15 46C13 46 10 45 10 45C10 45 13 50 15 51
           M19 47C22 47 23 51 20 51C23 53 22 57 18 54"
  />
  <path style="fill:none; stroke:#000000; stroke-width:4"
        d="M54 37C58.2 34.87 62 32 62 26C62 18.33 57 10.31 50 6.31C42 1.31 30 0.31 23 5.31C17.78 9.03 17 16 19 21C22 30 33 36 42 38C45 39 48.54 38.85 51 38C53 43 56 47 60.25 48.2C58 47 55.2 41.87 54 37z"
  />
  <radialGradient id="gradient2" gradientUnits="userSpaceOnUse" cx="0" cy="0" r="64" gradientTransform="matrix(0.4075,0.2896,-0.2096,0.2949,34.2291,11.689)">
   <stop offset="0" stop-color="#ffffff"/>
   <stop offset="0.7064" stop-color="#7fe583"/>
   <stop offset="1" stop-color="#04b10c"/>
  </radialGradient>
  <path style="fill:url(#gradient2)"
        d="M54 37C58.2 34.87 62 32 62 26C62 18.33 57 10.31 50 6.31C42 1.31 30 0.31 23 5.31C17.78 9.03 17 16 19 21C22 30 33 36 42 38C45 39 48.54 38.85 51 38C53 43 56 47 60.25 48.2C58 47 55.2 41.87 54 37z"
  />
  <path style="fill:none; stroke:#000000; stroke-width:2; stroke-linecap:square"
        d="M30 23L34 25
           M25 17.62V18.62
           M25.37 22.87L25.56 24.25
           M37 21C37 21 39 25 39 28C39 31 37 32 37 32"
  />
 </g>
</svg>
