<?xml version="1.0" encoding="UTF-8" standalone="no"?>
<!-- Created with Inkscape (http://www.inkscape.org/) -->

<svg
   xmlns:dc="http://purl.org/dc/elements/1.1/"
   xmlns:cc="http://creativecommons.org/ns#"
   xmlns:rdf="http://www.w3.org/1999/02/22-rdf-syntax-ns#"
   xmlns:svg="http://www.w3.org/2000/svg"
   xmlns="http://www.w3.org/2000/svg"
   xmlns:sodipodi="http://sodipodi.sourceforge.net/DTD/sodipodi-0.dtd"
   xmlns:inkscape="http://www.inkscape.org/namespaces/inkscape"
   id="svg2"
   version="1.1"
   inkscape:version="0.47 r22583"
   width="175.43025"
   height="116.22461"
   sodipodi:docname="gmpc-metabrowser.svg"
   inkscape:export-filename="/home/zeltak/ThemeDB/2)PNG Database/$Workshop/Gmpc/bar/dbtst.png"
   inkscape:export-xdpi="479.94"
   inkscape:export-ydpi="479.94">
  <metadata
     id="metadata8">
    <rdf:RDF>
      <cc:Work
         rdf:about="">
        <dc:format>image/svg+xml</dc:format>
        <dc:type
           rdf:resource="http://purl.org/dc/dcmitype/StillImage" />
        <dc:title />
      </cc:Work>
    </rdf:RDF>
  </metadata>
  <defs
     id="defs6">
    <inkscape:perspective
       sodipodi:type="inkscape:persp3d"
       inkscape:vp_x="0 : 0.5 : 1"
       inkscape:vp_y="0 : 1000 : 0"
       inkscape:vp_z="1 : 0.5 : 1"
       inkscape:persp3d-origin="0.5 : 0.33333333 : 1"
       id="perspective10" />
    <inkscape:perspective
       id="perspective2854"
       inkscape:persp3d-origin="0.5 : 0.33333333 : 1"
       inkscape:vp_z="1 : 0.5 : 1"
       inkscape:vp_y="0 : 1000 : 0"
       inkscape:vp_x="0 : 0.5 : 1"
       sodipodi:type="inkscape:persp3d" />
    <inkscape:perspective
       id="perspective2886"
       inkscape:persp3d-origin="0.5 : 0.33333333 : 1"
       inkscape:vp_z="1 : 0.5 : 1"
       inkscape:vp_y="0 : 1000 : 0"
       inkscape:vp_x="0 : 0.5 : 1"
       sodipodi:type="inkscape:persp3d" />
    <inkscape:perspective
       id="perspective15777"
       inkscape:persp3d-origin="0.5 : 0.33333333 : 1"
       inkscape:vp_z="1 : 0.5 : 1"
       inkscape:vp_y="0 : 1000 : 0"
       inkscape:vp_x="0 : 0.5 : 1"
       sodipodi:type="inkscape:persp3d" />
    <inkscape:perspective
       sodipodi:type="inkscape:persp3d"
       inkscape:vp_x="0 : 0.5 : 1"
       inkscape:vp_y="0 : 1000 : 0"
       inkscape:vp_z="1 : 0.5 : 1"
       inkscape:persp3d-origin="0.5 : 0.33333333 : 1"
       id="perspective3635-8" />
    <inkscape:perspective
       sodipodi:type="inkscape:persp3d"
       inkscape:vp_x="0 : 0.5 : 1"
       inkscape:vp_y="0 : 1000 : 0"
       inkscape:vp_z="1 : 0.5 : 1"
       inkscape:persp3d-origin="0.5 : 0.33333333 : 1"
       id="perspective3635-5" />
    <inkscape:perspective
       sodipodi:type="inkscape:persp3d"
       inkscape:vp_x="0 : 0.5 : 1"
       inkscape:vp_y="0 : 1000 : 0"
       inkscape:vp_z="1 : 0.5 : 1"
       inkscape:persp3d-origin="0.5 : 0.33333333 : 1"
       id="perspective3635" />
    <inkscape:perspective
       id="perspective10-7"
       inkscape:persp3d-origin="0.5 : 0.33333333 : 1"
       inkscape:vp_z="1 : 0.5 : 1"
       inkscape:vp_y="0 : 1000 : 0"
       inkscape:vp_x="0 : 0.5 : 1"
       sodipodi:type="inkscape:persp3d" />
  </defs>
  <sodipodi:namedview
     pagecolor="#ffffff"
     bordercolor="#666666"
     borderopacity="1"
     objecttolerance="10"
     gridtolerance="10"
     guidetolerance="10"
     inkscape:pageopacity="0"
     inkscape:pageshadow="2"
     inkscape:window-width="1243"
     inkscape:window-height="774"
     id="namedview4"
     showgrid="false"
     inkscape:zoom="4.4968252"
     inkscape:cx="86.034958"
     inkscape:cy="92.176142"
     inkscape:window-x="34"
     inkscape:window-y="1"
     inkscape:window-maximized="1"
     inkscape:current-layer="svg2" />
  <path
     style="fill:#000000;fill-opacity:1;stroke:none"
     d="M 41.272131,115.88969 C 15.440841,114.44323 0.22063137,109.26989 0.00139137,101.86176 -0.05810863,99.851377 1.804771,89.121117 2.889571,85.225757 c 0.25714,-0.92339 1.38932,-0.52601 3.85112,1.3517 4.40059,3.35649 15.7022,6.86825 28.81017,8.9522 5.59186,0.88902 10.36676,1.81613 10.61087,2.06025 0.24412,0.24411 0.3384,3.352613 0.20952,6.907773 -0.22895,6.31524 -0.16953,6.482 2.58327,7.24994 4.4293,1.23563 26.33805,0.80802 31.31761,-0.61124 2.474995,-0.70542 5.962495,-1.96839 7.749995,-2.8066 3.203634,-1.50228 3.250004,-1.62209 3.250004,-8.397543 0,-6.85244 0.0115,-6.88081 3.75,-9.25635 2.0625,-1.31056 4.60724,-3.3412 5.65499,-4.51254 2.64745,-2.95976 3.59305,-2.66606 3.60688,1.12029 0.007,1.7875 0.65292,5.65845 1.43642,8.60212 1.67019,6.274953 0.94415,9.033883 -3.12885,11.889633 -8.69248,6.09465 -35.064789,9.58445 -61.319439,8.1143 z m 0.5,-24.523223 c -15.99196,-1.32319 -31.85184,-5.35819 -33.91464,-8.62839 -0.72969,-1.1568 -0.70926,-2.53783 0.068,-4.59702 1.01875,-2.69898 0.83011,-3.21573 -2.27116,-6.2216 -3.33857,-3.23587 -3.3822,-3.3917 -3.3822,-12.08198 0,-4.9298 0.4205,-8.80384 0.9556,-8.80384 0.52557,0 2.61244,1.12437 4.63748,2.4986 4.71723,3.2012 14.32381,6.04676 27.99188,8.29146 l 10.83193,1.77893 0.0416,6.96551 0.0416,6.9655 6,0.9137 c 7.64151,1.16368 26.18061,-0.5865 32.999995,-3.11535 l 5,-1.85416 0.291514,-7.10807 0.29151,-7.10808 5.45849,-3.62423 c 3.00217,-1.99333 5.45849,-4.06964 5.45849,-4.61402 0,-0.54438 0.45,-0.98979 1,-0.98979 0.59577,0 1,3.801 1,9.40301 l 0,9.403 -3.63123,2.91308 c -3.58463,2.87569 -3.61431,2.95989 -2.31222,6.56076 1.18112,3.26631 1.12397,3.8632 -0.54658,5.70914 -5.12949,5.66802 -32.651189,9.27658 -56.009969,7.34384 z m -2.27762,-33.39997 c -11.96958,-1.05048 -20.80524,-2.95309 -27.47238,-5.91572 -4.00539,-1.77985 -4.75,-2.54231 -4.75,-4.86393 0,-1.51426 0.53902,-3.29222 1.19781,-3.95102 0.93042,-0.93041 0.37232,-1.95393 -2.5,-4.584866 l -3.69781,-3.38706 0,-9.11513 c 0,-5.01332 0.1951,-9.11513 0.43356,-9.11513 0.23845,0 2.60095,1.3304 5.25,2.95644 5.18309,3.1815 15.86921,6.46031 26.31644,8.07466 12.9217,1.99671 11.87354,1.24716 12.2059,8.72859 l 0.2941,6.620136 3.5,0.92477 c 6.02758,1.5926 26.62068,0.18058 34.249995,-2.34844 l 6.750004,-2.237536 0,-6.81263 c 0,-6.19451 0.23433,-6.97563 2.58269,-8.6093 1.42048,-0.98818 4.06738,-3.03419 5.88201,-4.54669 1.81463,-1.5125 3.57742,-2.75 3.91732,-2.75 0.33989,0 0.61798,4.01724 0.61798,8.9272 l 0,8.92719 -3.57732,2.94873 c -3.5699,2.94262 -3.57469,2.95749 -2.31084,7.175816 1.20485,4.02146 1.14793,4.31652 -1.17011,6.06502 -7.612804,5.74234 -34.380779,8.93715 -57.719349,6.8889 z M 85.697696,17.797071 c 5.156,-4.47362 4.4213,-6.05636 -3.76599,-8.1129397 -23.281405,-5.84811 -64.361565,-3.2536 -71.606045,4.5224297 -1.27753,1.37127 -2.06023,1.62525 -2.55275,0.82833 -1.2657,-2.04794 3.73001,-5.9921697 10.06979,-7.9503297 9.13955,-2.82292 19.87967,-4.05092 35.42943,-4.05092 22.61647,0 39.792669,3.37838 43.932249,8.6409997 1.12228,1.42674 1.76356,3.04218 1.42508,3.58986 -0.89313,1.44511 -8.211844,4.42755 -12.857334,5.23948 l -4,0.69911 3.92557,-3.40602 z"
     id="path2842" />
  <rect
     style="fill:#d8d8d8;fill-opacity:1;stroke:none;stroke-width:0.21185066999999999;stroke-linecap:round;stroke-linejoin:round;stroke-miterlimit:4;stroke-opacity:1;stroke-dasharray:none"
     id="rect2822"
     width="70.685783"
     height="37.827934"
     x="92.208038"
     y="-60.693291"
     transform="matrix(0.63480044,0.77267613,-0.77267613,0.63480044,0,0)" />
  <path
     style="fill:#000000;fill-opacity:1;stroke:none"
     d="m 67.429133,41.696713 c 0.129888,0.681237 0.62851,0.688551 3.822607,0.921211 1.787789,0.130225 3.200707,0.44509 3.253951,0.725815 0.08441,0.445026 0.01851,6.19488 -0.08201,7.212858 -0.06789,0.687561 -0.227867,2.745099 -0.356159,4.572762 -0.128292,1.827667 -0.319065,4.096896 -0.424039,5.039884 -0.142984,1.284434 -0.121634,1.864329 0.07368,2.307919 0.143397,0.325667 2.097064,2.931924 4.344359,5.79399 2.247296,2.862065 6.478531,8.256934 9.403939,11.990509 6.40563,8.175231 15.686262,19.103089 23.287512,27.420359 4.36466,4.77581 5.22654,5.49213 7.42179,6.15938 0.86577,0.26315 1.21297,0.2614 2.54475,-0.008 1.85878,-0.37596 3.37018,-1.19295 6.99296,-3.78879 3.98966,-2.85872 15.37096,-12.133886 20.58317,-16.770664 1.23728,-1.10069 2.6685,-2.359733 3.17775,-2.801719 1.72808,-1.499838 2.70383,-2.558559 2.93781,-3.185117 0.37003,-0.990934 0.58166,-2.567445 0.51739,-3.838018 -0.0326,-0.644457 -0.0685,-1.280687 -0.0822,-1.416235 -0.0404,-0.40052 -1.5047,-2.41546 -4.28719,-5.893571 -10.6481,-13.310109 -35.46585,-42.386075 -38.85415,-45.521536 -1.3954,-1.291259 -4.0195,-1.859341 -12.877989,-2.771044 -3.123075,-0.321419 -6.042067,-0.644941 -6.488477,-0.71865 l -0.809459,-0.130663 -0.461986,-1.731051 c -1.396241,-5.23844 -4.358718,-8.579785 -9.091786,-10.241974 2.603105,2.179289 4.505042,5.228667 5.206738,8.820163 0.596079,3.050915 0.239257,6.066104 -0.855746,8.743272 1.289638,1.317863 0.824036,4.047424 -0.907282,5.281652 -0.780543,0.556436 -2.24456,0.888674 -3.65696,0.86184 -1.885588,1.526389 -4.157292,2.627659 -6.704115,3.125251 -2.647136,0.51719 -5.272303,0.323564 -7.668415,-0.452753 0.0091,0.106138 0.02354,0.208957 0.03954,0.29288 z m 17.396533,21.433431 c -0.02805,-0.130594 -0.0453,-0.258287 -0.05617,-0.37804 -0.250729,-2.759819 1.16563,-4.275567 13.138903,-14.054864 6.247386,-5.102616 9.131426,-6.983293 10.732986,-7.000967 1.75506,-0.01936 4.89159,2.999671 15.22569,14.666627 8.01255,9.045981 17.86342,20.544801 20.26268,23.643732 0.83368,1.076783 1.07048,1.531211 1.33519,2.580146 0.17702,0.701499 0.28943,1.579018 0.25114,1.949071 -0.11979,1.157085 -1.91576,3.485243 -4.43196,5.734523 -2.47588,2.21324 -14.77308,11.803858 -16.81735,13.117278 -1.48299,0.95279 -2.91653,1.33092 -3.99024,1.05662 -2.82365,-0.72135 -7.40109,-5.605028 -24.638121,-26.27824 C 87.721031,68.430464 85.246481,65.089104 84.825666,63.130144 z"
     id="path2818" />
  <path
     sodipodi:type="arc"
     style="fill:none;stroke:#000000;stroke-width:47.82941817999999756;stroke-miterlimit:4;stroke-opacity:1;stroke-dasharray:none"
     id="path3609"
     sodipodi:cx="-265.42374"
     sodipodi:cy="-25.805084"
     sodipodi:rx="122.29249"
     sodipodi:ry="123.49577"
     d="m -143.13125,-25.805084 a 122.29249,123.49577 0 1 1 -244.58497,0 122.29249,123.49577 0 1 1 244.58497,0 z"
     transform="matrix(-0.02718677,-0.13915017,0.13915017,-0.02718677,69.993295,-11.140026)" />
  <g
     style="stroke:#000000;stroke-opacity:1"
     id="g3667"
     transform="matrix(-0.03421893,-0.18192455,0.18192455,-0.03421893,73.239633,-31.986589)">
    <rect
       transform="matrix(0.8660254,-0.5,0.5,0.8660254,0,0)"
       ry="1.7410095"
       rx="70.901421"
       y="-257.08939"
       x="-682.83728"
       height="1.7410095"
       width="216.36911"
       id="rect3611"
       style="fill:none;stroke:#000000;stroke-width:15.74772452999999928;stroke-miterlimit:4;stroke-opacity:1;stroke-dasharray:none" />
    <rect
       transform="matrix(0.8660254,-0.5,0.5,0.8660254,0,0)"
       ry="1.7410095"
       rx="70.901421"
       y="-221.99551"
       x="-682.87927"
       height="1.7410095"
       width="216.36911"
       id="rect3611-8"
       style="fill:none;stroke:#000000;stroke-width:15.74772452999999928;stroke-miterlimit:4;stroke-opacity:1;stroke-dasharray:none" />
    <rect
       transform="matrix(0.8660254,-0.5,0.5,0.8660254,0,0)"
       ry="1.7410095"
       rx="70.901421"
       y="-181.52858"
       x="-682.83081"
       height="1.7410095"
       width="216.36911"
       id="rect3611-80"
       style="fill:none;stroke:#000000;stroke-width:15.74772452999999928;stroke-miterlimit:4;stroke-opacity:1;stroke-dasharray:none" />
    <rect
       transform="matrix(0.8660254,-0.5,0.5,0.8660254,0,0)"
       ry="1.7410095"
       rx="70.901421"
       y="-142.65791"
       x="-681.86078"
       height="1.7410095"
       width="216.36911"
       id="rect3611-6"
       style="fill:none;stroke:#000000;stroke-width:15.74772452999999928;stroke-miterlimit:4;stroke-opacity:1;stroke-dasharray:none" />
  </g>
  <rect
     transform="matrix(0.89844826,0.43907941,-0.43907941,0.89844826,0,0)"
     y="-31.107655"
     x="101.48856"
     height="37.827934"
     width="70.685783"
     id="rect3015"
     style="fill:#d8d8d8;fill-opacity:1;stroke:none;stroke-width:0.21185066999999999;stroke-linecap:round;stroke-linejoin:round;stroke-miterlimit:4;stroke-opacity:1;stroke-dasharray:none" />
  <path
     id="path3019"
     d="m 74.005481,40.567864 c 0.401188,0.565688 0.857774,0.365173 3.859795,-0.750289 1.680282,-0.62434 3.096296,-0.92498 3.261363,-0.691754 0.261678,0.369726 2.590692,5.627183 2.922216,6.594899 0.223917,0.653612 0.93327,2.591621 1.575935,4.307369 0.642669,1.715752 1.411964,3.859108 1.708274,4.760467 0.4036,1.22773 0.663956,1.746333 1.025923,2.068671 0.265742,0.236649 3.125652,1.795591 6.358932,3.46522 3.23328,1.669629 9.323481,4.818809 13.535671,6.999421 9.22323,4.77478 22.20524,10.858843 32.57501,15.266068 5.95437,2.530647 7.03596,2.824114 9.30999,2.51896 0.89684,-0.120349 1.21192,-0.266194 2.31139,-1.06454 1.53455,-1.114255 2.56988,-2.485354 4.78664,-6.351734 2.44126,-4.257927 8.94004,-17.423352 11.75458,-23.80655 0.66812,-1.515259 1.44684,-3.25513 1.72642,-3.868745 0.94872,-2.082244 1.39638,-3.450665 1.34888,-4.117794 -0.0751,-1.055099 -0.53764,-2.577024 -1.124,-3.706034 -0.29742,-0.572655 -0.59443,-1.136448 -0.66318,-1.254062 -0.20316,-0.347527 -2.37226,-1.571929 -6.34831,-3.57955 -15.21563,-7.682807 -49.87043,-23.819028 -54.25516,-25.263269 -1.80575,-0.594771 -4.42866,-0.02124 -12.865156,2.830022 -2.974298,1.005217 -5.763834,1.923728 -6.200514,2.042158 l -0.790574,0.217464 -1.139443,-1.38262 c -3.446499,-4.184781 -7.52944,-5.9932176 -12.525255,-5.538644 3.273243,0.900742 6.270208,2.88424 8.400673,5.859529 1.809795,2.527457 2.737985,5.418331 2.854282,8.308441 1.720605,0.662908 2.431175,3.339171 1.369165,5.181158 -0.478794,0.830435 -1.672427,1.740912 -2.968298,2.30333 -1.080947,2.171834 -2.689734,4.117402 -4.799588,5.62817 -2.192956,1.570274 -4.66126,2.484861 -7.163313,2.774262 0.0524,0.09275 0.108228,0.180288 0.15765,0.249977 z m 24.729112,12.267939 c -0.07978,-0.107131 -0.148517,-0.216117 -0.208166,-0.320525 -1.374717,-2.406162 -0.716161,-4.373361 6.111623,-18.2433 3.56259,-7.237021 5.40454,-10.145957 6.85397,-10.827449 1.58836,-0.74681 5.69571,0.696139 19.94302,7.014791 11.04667,4.899169 24.78459,11.265654 28.25451,13.087598 1.2057,0.633068 1.6099,0.948029 2.28649,1.792159 0.45248,0.564538 0.91933,1.316023 1.03824,1.668537 0.3718,1.102253 -0.29452,3.966143 -1.64872,7.057525 -1.33251,3.041853 -8.53333,16.874758 -9.8471,18.918796 -0.95306,1.482818 -2.09991,2.422379 -3.19052,2.618982 -2.86811,0.517033 -9.06083,-2.023329 -33.329,-13.666041 -11.42853,-5.482864 -15.067661,-7.49404 -16.264347,-9.101073 z"
     style="fill:#000000;fill-opacity:1;stroke:none" />
  <path
     transform="matrix(-0.08254348,-0.1152756,0.1152756,-0.08254348,54.385148,-8.5578766)"
     d="m -143.13125,-25.805084 a 122.29249,123.49577 0 1 1 -244.58497,0 122.29249,123.49577 0 1 1 244.58497,0 z"
     sodipodi:ry="123.49577"
     sodipodi:rx="122.29249"
     sodipodi:cy="-25.805084"
     sodipodi:cx="-265.42374"
     id="path3021"
     style="fill:none;stroke:#000000;stroke-width:47.82941817999999756;stroke-miterlimit:4;stroke-opacity:1;stroke-dasharray:none"
     sodipodi:type="arc" />
  <g
     transform="matrix(-0.10671192,-0.15126151,0.15126151,-0.10671192,48.676655,-28.868737)"
     id="g3023"
     style="stroke:#000000;stroke-opacity:1">
    <rect
       style="fill:none;stroke:#000000;stroke-width:15.74772452999999928;stroke-miterlimit:4;stroke-opacity:1;stroke-dasharray:none"
       id="rect3025"
       width="216.36911"
       height="1.7410095"
       x="-682.83728"
       y="-257.08939"
       rx="70.901421"
       ry="1.7410095"
       transform="matrix(0.8660254,-0.5,0.5,0.8660254,0,0)" />
    <rect
       style="fill:none;stroke:#000000;stroke-width:15.74772452999999928;stroke-miterlimit:4;stroke-opacity:1;stroke-dasharray:none"
       id="rect3027"
       width="216.36911"
       height="1.7410095"
       x="-682.87927"
       y="-221.99551"
       rx="70.901421"
       ry="1.7410095"
       transform="matrix(0.8660254,-0.5,0.5,0.8660254,0,0)" />
    <rect
       style="fill:none;stroke:#000000;stroke-width:15.74772452999999928;stroke-miterlimit:4;stroke-opacity:1;stroke-dasharray:none"
       id="rect3029"
       width="216.36911"
       height="1.7410095"
       x="-682.83081"
       y="-181.52858"
       rx="70.901421"
       ry="1.7410095"
       transform="matrix(0.8660254,-0.5,0.5,0.8660254,0,0)" />
    <rect
       style="fill:none;stroke:#000000;stroke-width:15.74772452999999928;stroke-miterlimit:4;stroke-opacity:1;stroke-dasharray:none"
       id="rect3031"
       width="216.36911"
       height="1.7410095"
       x="-681.86078"
       y="-142.65791"
       rx="70.901421"
       ry="1.7410095"
       transform="matrix(0.8660254,-0.5,0.5,0.8660254,0,0)" />
  </g>
</svg>
