<?xml version="1.0" encoding="UTF-8" standalone="no"?>
<!DOCTYPE svg PUBLIC "-//W3C//DTD SVG 20010904//EN"
"http://www.w3.org/TR/2001/REC-SVG-20010904/DTD/svg10.dtd">
<!-- Created with Sodipodi ("http://www.sodipodi.com/") -->
<svg
   id="svg602"
   sodipodi:version="0.32"
   width="48pt"
   height="48pt"
   xml:space="preserve"
   sodipodi:docbase="/home/krosstok/Desktop/Suede/scalable/mimetypes"
   sodipodi:docname="gnome-mime-text-html.svg"
   inkscape:version="0.38.1"
   xmlns="http://www.w3.org/2000/svg"
   xmlns:inkscape="http://www.inkscape.org/namespaces/inkscape"
   xmlns:sodipodi="http://sodipodi.sourceforge.net/DTD/sodipodi-0.dtd"
   xmlns:xml="http://www.w3.org/XML/1998/namespace"
   xmlns:xlink="http://www.w3.org/1999/xlink"><defs
   id="defs604"><linearGradient
   id="linearGradient1943">
  <stop
     offset="0.0000000"
     style="stop-color:#ffffff;stop-opacity:0.0000000;"
     id="stop1945" />
  <stop
     offset="1.0000000"
     style="stop-color:#ffffff;stop-opacity:0.69918698;"
     id="stop1944" />
</linearGradient>
<linearGradient
   id="linearGradient632">
      <stop
   style="stop-color:#2192ca;stop-opacity:1;"
   offset="0"
   id="stop633" />




      <stop
   style="stop-color:#373752;stop-opacity:1;"
   offset="1"
   id="stop634" />




    </linearGradient>
<linearGradient
   xlink:href="#linearGradient632"
   id="linearGradient725"
   x1="1.58296037"
   y1="26.4798145"
   x2="46.1758385"
   y2="82.2966461"
   gradientUnits="userSpaceOnUse" />
<linearGradient
   id="linearGradient862">
      <stop
   style="stop-color:#9f7b35;stop-opacity:0.79215688;"
   offset="0.0000000"
   id="stop863" />




      <stop
   style="stop-color:#eae8d5;stop-opacity:0.96862745;"
   offset="1.0000000"
   id="stop864" />




    </linearGradient>
<linearGradient
   xlink:href="#linearGradient862"
   id="linearGradient665"
   x1="1.1832061"
   y1="0.71093750"
   x2="-0.25190836"
   y2="0.0078125028" />
<linearGradient
   id="linearGradient912">
      <stop
   style="stop-color:#ffffff;stop-opacity:1.0000000;"
   offset="0.0000000"
   id="stop914" />





















      <stop
   style="stop-color:#a0a2a0;stop-opacity:1.0000000;"
   offset="1.0000000"
   id="stop916" />





















    </linearGradient>










<linearGradient
   id="linearGradient960">
      <stop
   style="stop-color:#7590ae;stop-opacity:1.0000000;"
   offset="0.0000000"
   id="stop962" />





















      <stop
   style="stop-color:#314e6c;stop-opacity:1.0000000;"
   offset="1.0000000"
   id="stop964" />





















    </linearGradient>











<linearGradient
   id="linearGradient954">
      <stop
   style="stop-color:#ffffff;stop-opacity:1.0000000;"
   offset="0.0000000"
   id="stop956" />





















      <stop
   style="stop-color:#14a2da;stop-opacity:1.0000000;"
   offset="1.0000000"
   id="stop958" />





















    </linearGradient>











<linearGradient
   id="linearGradient891">
      <stop
   style="stop-color:#fbffbf;stop-opacity:1.0000000;"
   offset="0.0000000"
   id="stop893" />





















      <stop
   style="stop-color:#ffffff;stop-opacity:0.13008130;"
   offset="1.0000000"
   id="stop895" />





















    </linearGradient>













    <linearGradient
   id="linearGradient622">
      <stop
   style="stop-color:#f8e29d;stop-opacity:0.4471;"
   offset="0"
   id="stop623" />





















      <stop
   style="stop-color:#272d2d;stop-opacity:0.4784;"
   offset="1"
   id="stop624" />





















    </linearGradient>





















    <linearGradient
   id="linearGradient617">
      <stop
   style="stop-color:#ffffff;stop-opacity:1.0000000;"
   offset="0.0000000"
   id="stop618" />





















      <stop
   style="stop-color:#565248;stop-opacity:1.0000000;"
   offset="1.0000000"
   id="stop619" />





















    </linearGradient>





















    <linearGradient
   id="linearGradient613">
      <stop
   style="stop-color:#ffffff;stop-opacity:0.0000000;"
   offset="0.0000000"
   id="stop614" />





















      <stop
   style="stop-color:#898989;stop-opacity:0.45528457;"
   offset="1.0000000"
   id="stop615" />





















    </linearGradient>





















    <linearGradient
   id="linearGradient607">
      <stop
   style="stop-color:#d7d5d5;stop-opacity:1.0000000;"
   offset="0.0000000"
   id="stop608" />





















      <stop
   style="stop-color:#000000;stop-opacity:0.4039;"
   offset="1"
   id="stop609" />





















    </linearGradient>





















    <radialGradient
   xlink:href="#linearGradient891"
   id="radialGradient610"
   cx="0.45522389"
   cy="0.45312500"
   r="0.48908448"
   fx="0.45522389"
   fy="0.45312500" />





















    <linearGradient
   xlink:href="#linearGradient1943"
   id="linearGradient612"
   x1="0.38157895"
   y1="0.62237763"
   x2="0.15131576"
   y2="0.36363637" />





















    <radialGradient
   xlink:href="#linearGradient613"
   id="radialGradient616"
   cx="0.21333396"
   cy="0.38369742"
   r="1.7808846"
   fx="0.21333396"
   fy="0.38369742"
   gradientTransform="scale(0.962608,1.038844)"
   gradientUnits="objectBoundingBox" />





















    <linearGradient
   xlink:href="#linearGradient617"
   id="linearGradient621"
   x1="-0.42741936"
   y1="0.90625"
   x2="-0.96774197"
   y2="0.7890625" />





















    <linearGradient
   xlink:href="#linearGradient617"
   id="linearGradient626"
   x1="-0.59104401"
   y1="-0.30253443"
   x2="0.35769230"
   y2="0.85937500" />





















    <linearGradient
   xlink:href="#linearGradient617"
   id="linearGradient687"
   x1="0.61332619"
   y1="1.1830040"
   x2="0.80003732"
   y2="0.65496588" />





















    <linearGradient
   xlink:href="#linearGradient613"
   id="linearGradient742"
   x1="0.16054857"
   y1="0.61256921"
   x2="0.32109749"
   y2="1.0231932"
   gradientTransform="scale(0.962609,1.038844)"
   gradientUnits="objectBoundingBox" />





















  <linearGradient
   xlink:href="#linearGradient912"
   id="linearGradient1039" />






<defs
   id="defs1100"><linearGradient
   id="linearGradient1101">
      <stop
   style="stop-color:#ffffff;stop-opacity:1.0000000;"
   offset="0.0000000"
   id="stop1103" />





















      <stop
   style="stop-color:#a0a2a0;stop-opacity:1.0000000;"
   offset="1.0000000"
   id="stop1105" />





















    </linearGradient>










<linearGradient
   id="linearGradient1108">
      <stop
   style="stop-color:#7590ae;stop-opacity:1.0000000;"
   offset="0.0000000"
   id="stop1110" />





















      <stop
   style="stop-color:#314e6c;stop-opacity:1.0000000;"
   offset="1.0000000"
   id="stop1112" />





















    </linearGradient>











<linearGradient
   id="linearGradient1115">
      <stop
   style="stop-color:#ffffff;stop-opacity:1.0000000;"
   offset="0.0000000"
   id="stop1117" />





















      <stop
   style="stop-color:#14a2da;stop-opacity:1.0000000;"
   offset="1.0000000"
   id="stop1119" />





















    </linearGradient>











<linearGradient
   id="linearGradient1122">
      <stop
   style="stop-color:#fbffbf;stop-opacity:1.0000000;"
   offset="0.0000000"
   id="stop1124" />





















      <stop
   style="stop-color:#ffffff;stop-opacity:0.13008130;"
   offset="1.0000000"
   id="stop1126" />





















    </linearGradient>













    <linearGradient
   id="linearGradient1129">
      <stop
   style="stop-color:#f8e29d;stop-opacity:0.4471;"
   offset="0"
   id="stop1131" />





















      <stop
   style="stop-color:#272d2d;stop-opacity:0.4784;"
   offset="1"
   id="stop1133" />





















    </linearGradient>





















    <linearGradient
   id="linearGradient1136">
      <stop
   style="stop-color:#ffffff;stop-opacity:1.0000000;"
   offset="0.0000000"
   id="stop1138" />





















      <stop
   style="stop-color:#565248;stop-opacity:1.0000000;"
   offset="1.0000000"
   id="stop1140" />





















    </linearGradient>





















    <linearGradient
   id="linearGradient1143"
   x1="0.0000000"
   y1="0.50000000"
   x2="1.0000000"
   y2="0.50000000"
   gradientUnits="objectBoundingBox"
   spreadMethod="pad"
   xlink:href="#linearGradient1943">
      




















      




















    </linearGradient>





















    <linearGradient
   id="linearGradient1150">
      <stop
   style="stop-color:#d7d5d5;stop-opacity:1.0000000;"
   offset="0.0000000"
   id="stop1152" />





















      <stop
   style="stop-color:#000000;stop-opacity:0.4039;"
   offset="1"
   id="stop1154" />





















    </linearGradient>





















    <radialGradient
   xlink:href="#linearGradient891"
   id="radialGradient1157"
   cx="0.45522389"
   cy="0.45312500"
   r="0.48908448"
   fx="0.45522389"
   fy="0.45312500" />





















    <linearGradient
   xlink:href="#linearGradient617"
   id="linearGradient1159"
   x1="0.39686918"
   y1="0.97534692"
   x2="0.41513580"
   y2="0.62097520"
   gradientUnits="objectBoundingBox" />





















    <radialGradient
   xlink:href="#linearGradient613"
   id="radialGradient1161"
   cx="0.21333396"
   cy="0.38369742"
   r="1.7808846"
   fx="0.21333396"
   fy="0.38369742"
   gradientTransform="scale(0.962608,1.038844)"
   gradientUnits="objectBoundingBox" />





















    <linearGradient
   xlink:href="#linearGradient617"
   id="linearGradient1163"
   x1="-0.42741936"
   y1="0.90625"
   x2="-0.96774197"
   y2="0.7890625" />





















    <linearGradient
   xlink:href="#linearGradient617"
   id="linearGradient1165"
   x1="-0.59104401"
   y1="-0.30253443"
   x2="0.35769230"
   y2="0.85937500" />





















    <linearGradient
   xlink:href="#linearGradient617"
   id="linearGradient1167"
   x1="0.61332619"
   y1="1.1830040"
   x2="0.80003732"
   y2="0.65496588" />





















    <linearGradient
   xlink:href="#linearGradient613"
   id="linearGradient1169"
   x1="0.30220908"
   y1="0.79432046"
   x2="0.32109731"
   y2="1.0231928"
   gradientTransform="scale(0.962609,1.038844)"
   gradientUnits="objectBoundingBox" />





















  <linearGradient
   xlink:href="#linearGradient912"
   id="linearGradient1171" />






</defs>


<sodipodi:namedview
   id="namedview1174"
   inkscape:zoom="2.6884790"
   inkscape:cx="22.431804"
   inkscape:cy="-13.996389"
   inkscape:window-width="640"
   inkscape:window-height="501"
   inkscape:window-x="-41"
   inkscape:window-y="209"
   showguides="false"
   snaptoguides="false">
    <sodipodi:guide
   orientation="horizontal"
   position="43.519031"
   id="guide1176" />






  </sodipodi:namedview>


</defs>


<rect
   style="fill:#000006;fill-opacity:0.68292683;fill-rule:evenodd;stroke:none;stroke-width:0.99266949pt;"
   id="rect933"
   width="48.605209"
   height="55.096209"
   ry="1.9003337"
   x="7.8949676"
   y="4.6713177" />




<sodipodi:namedview
   id="base"
   inkscape:zoom="5.3769580"
   inkscape:cx="22.431807"
   inkscape:cy="28.554352"
   inkscape:window-width="640"
   inkscape:window-height="501"
   inkscape:window-x="362"
   inkscape:window-y="108"
   showguides="false"
   snaptoguides="false">
    <sodipodi:guide
   orientation="horizontal"
   position="43.519031"
   id="guide1036" />






  </sodipodi:namedview>




<rect
   style="fill:#ffffff;fill-opacity:1.0000000;fill-rule:evenodd;stroke:#000000;stroke-width:0.48750000;stroke-opacity:1.0000000;stroke-dasharray:none;"
   id="rect932"
   width="45.815529"
   height="52.771473"
   ry="1.8201507"
   x="8.5923881"
   y="5.3687382" />








  

  

  

  

  
  

  




  





  





  





  





  
    











    











    














    








    











    











    











    











    











    











  





  





  
  
  
  
  
  
  
  






  
  
  
  
  
  
  
  
  







  













  




  




  











  
    

    

    








  






  






  






  






  




  




  
  
  
  
  
  
  
  





  
  
  
  
  
  
  
  
  






  

























































    
      
      
      
    
  


























  

  

  

  

  
  

  




  





  





  





  





  
    











    











    














    








    











    











    











    











    











    











  





  





  
  
  
  
  
  
  
  






  
  
  
  
  
  
  
  
  







  













  




  




  











  
    

    

    








  






  






  






  






  




  




  
  
  
  
  
  
  
  





  
  
  
  
  
  
  
  
  






  

























































    
      
      
      
    
  


















<text
   xml:space="preserve"
   style="fill:black;fill-opacity:1;stroke:none;font-family:Bitstream Vera Sans;font-style:normal;font-weight:bold;font-size:10.000000;font-stretch:normal;font-variant:normal;text-anchor:start;writing-mode:lr;stroke-opacity:1;stroke-width:1pt;stroke-linejoin:miter;stroke-linecap:butt;"
   x="23.247345"
   y="26.988769"
   id="text1447"><tspan
     id="tspan1448"></tspan></text>



  



  



  



  



















  




  




  




  




  




  




  
  
  
  
  
  
  
  









  
  
  
  
  
  
  
  
  










  














		



		


		
			<path
   style="fill:none;"
   d="M 31.184753,26.244111 C 28.684753,28.444111 39.584753,48.144111 42.184753,43.144111 C 45.084753,37.444111 16.084753,49.444111 22.384753,51.144111 C 29.684753,53.044111 35.884753,22.144111 31.184753,26.344111 L 31.184753,26.244111 z "
   id="path898" />




			


		
	




  



  



  



  



















  




  




  




  




  




  




  
  
  
  
  
  
  
  









  
  
  
  
  
  
  
  
  










  














		


		


		
			


			


		
	




  





  





  





  






































  




  




  




  




  




  




  
  
  
  
  
  
  
  











  
  
  
  
  
  
  
  
  












  

















  

  

  

  

  

  

  

  

  

  

  

  

  

  

  

  

  




  


<path
   sodipodi:type="arc"
   style="font-size:12.000000;fill:#000000;fill-rule:evenodd;stroke-width:0.78890002;fill-opacity:0.48780489;"
   id="path1224"
   d="M 72.34992 41.70259 A 32.47525 32.47525 0 1 0 7.399422 41.70259 A 32.47525 32.47525 0 1 0  72.34992 41.70259 z"
   sodipodi:cx="39.8746719"
   sodipodi:cy="41.7025909"
   sodipodi:rx="32.4752502"
   sodipodi:ry="32.4752502"
   transform="matrix(0.482608,0.000000,0.000000,0.471366,13.53492,16.63053)" />


  


  


  


  <path
   sodipodi:type="arc"
   style="font-size:12.000000;fill:#2e2626;fill-rule:evenodd;stroke-width:0.78890002;"
   id="path660"
   d="M 72.34992 41.70259 A 32.47525 32.47525 0 1 0 7.399422 41.70259 A 32.47525 32.47525 0 1 0  72.34992 41.70259 z"
   sodipodi:cx="39.8746719"
   sodipodi:cy="41.7025909"
   sodipodi:rx="32.4752502"
   sodipodi:ry="32.4752502"
   transform="matrix(0.436486,0.000000,0.000000,0.429643,15.17981,18.04454)" />




  <path
   sodipodi:type="arc"
   style="font-size:12.000000;fill:url(#linearGradient725);fill-rule:evenodd;stroke-width:0.78890002;"
   id="path631"
   d="M 72.34992 41.70259 A 32.47525 32.47525 0 1 0 7.399422 41.70259 A 32.47525 32.47525 0 1 0  72.34992 41.70259 z"
   sodipodi:cx="39.8746719"
   sodipodi:cy="41.7025909"
   sodipodi:rx="32.4752502"
   sodipodi:ry="32.4752502"
   transform="matrix(0.409969,0.000000,0.000000,0.399507,15.93816,18.85423)" />
<rect
   style="font-size:12;fill:url(#linearGradient742);fill-rule:evenodd;stroke-width:1.295431;stroke-linejoin:round;"
   id="rect809"
   width="40.625461"
   height="45.500029"
   x="11.703663"
   y="10.950606"
   ry="1.5693499" />




  <path
   fill="#006633"
   stroke="none"
   d="M 27.786127,23.372974 C 27.719003,23.372974 27.645604,23.400312 27.570266,23.442335 C 27.746825,23.391122 27.829908,23.372974 27.786127,23.372974 z M 32.155340,24.214691 L 32.199364,23.583701 L 31.524700,23.625605 L 31.613969,24.214807 L 32.155340,24.214807 L 32.155340,24.214691 z M 24.542888,35.120562 C 24.407319,34.993997 24.498024,34.446461 24.498024,34.446461 C 24.498024,34.446461 22.470731,33.394519 20.263636,32.762446 C 19.991410,32.684482 20.128907,32.131217 20.398103,31.921331 L 20.308256,31.329977 C 20.263636,31.036395 20.759078,29.604893 21.254536,29.479166 C 21.750224,29.352133 21.209545,30.320626 21.209545,30.320626 L 20.714097,30.615422 C 20.714097,30.615422 21.299280,31.288543 21.435087,31.288543 C 21.569803,31.288543 21.795093,30.951611 21.795093,30.951611 L 21.164684,30.531834 L 21.750470,30.278372 L 21.787117,30.056420 L 21.885434,30.025735 L 22.854806,28.575967 C 23.524883,28.305285 24.348186,27.969917 24.453026,27.920379 C 24.633221,27.836685 25.894405,27.121644 26.119574,26.952815 C 26.345359,26.783773 26.839964,26.826622 27.019660,26.826622 C 27.200706,26.826622 27.470860,26.742085 27.515607,26.278273 C 27.560593,25.815273 27.741139,25.730959 27.876466,25.857650 C 28.011410,25.983377 27.740781,26.194083 28.056411,26.278273 C 28.371680,26.362904 28.641353,26.573386 28.867130,26.362904 C 29.031826,26.208529 28.811504,26.033036 28.663004,25.900370 L 31.163963,25.900370 L 31.434848,25.141295 L 30.849293,25.057229 L 28.686341,24.846862 L 28.686341,24.594122 L 28.513892,24.622900 C 28.748130,23.352672 30.138944,23.561972 29.092045,22.826632 C 29.028453,22.781506 28.112400,24.251699 27.879364,24.223047 C 27.457067,24.168127 26.911425,24.163828 26.794854,24.299205 C 26.641398,24.478189 27.140365,23.683394 27.570266,23.442335 C 26.884336,23.641963 24.717023,24.373956 22.425624,26.783650 C 20.235334,29.087196 19.361961,32.190549 19.361961,32.299198 C 19.361961,32.509459 19.812799,32.593996 19.857911,32.846857 C 19.903010,33.098303 19.002442,33.941332 19.002442,34.362297 C 19.002442,34.556304 18.789844,37.151427 19.542150,39.289233 C 20.421203,41.784074 22.297329,43.867683 22.515481,44.004769 L 22.965469,43.793453 C 22.965469,43.793453 21.929570,41.983464 21.884582,41.814407 C 21.839962,41.646778 23.055673,39.204364 23.641584,39.289233 C 24.226771,39.371996 24.092048,39.541762 24.452430,39.331048 C 24.812558,39.120920 25.037729,37.393426 25.443088,37.226299 C 25.848816,37.056978 26.298917,36.846840 26.254665,36.425993 C 26.208822,36.003942 24.677608,35.246762 24.542393,35.120562 L 24.542888,35.120562 z M 34.317483,22.741387 L 33.101394,22.319935 L 33.326690,22.994263 L 34.317483,22.741387 z M 29.767694,24.299328 C 29.903266,24.299328 32.605824,22.531611 32.335313,22.488874 C 32.065623,22.447090 32.020163,22.488874 31.298555,22.404706 C 30.578408,22.320290 29.811819,23.415360 29.632382,23.583940 C 29.452675,23.752881 29.513244,24.299328 29.767694,24.299328 z M 42.169779,36.994771 L 42.518649,36.548004 L 42.169779,36.426716 L 41.908219,36.751574 L 41.603339,37.196908 L 41.864749,37.319061 L 42.169779,36.994771 z M 43.695209,38.456611 L 43.607929,37.807025 L 43.042249,37.807025 L 42.998349,38.293405 L 42.474399,38.213169 L 42.344349,37.684973 L 42.083049,37.522978 L 41.777079,37.887706 L 41.472809,37.807025 L 41.385019,38.090095 L 41.734169,38.172595 L 41.734169,40.809731 L 42.967919,41.102837 C 42.939619,41.151526 42.918189,41.192602 42.910959,41.214799 C 42.823069,41.499320 43.259329,41.621949 43.563879,41.499320 C 43.677719,41.454552 44.036479,41.096356 44.261749,40.567002 C 44.575949,39.829414 44.850139,38.855621 44.905379,38.511436 L 45.046679,38.213409 L 44.174539,38.537583 L 43.694859,38.457110 L 43.695209,38.456611 z M 45.526539,33.545770 L 45.298939,33.110600 C 45.029389,31.609609 44.410989,29.687617 43.085919,27.702137 C 41.091429,24.717201 35.542255,22.995457 35.542255,22.995457 L 35.237756,23.359843 L 35.063015,23.076639 L 34.626815,22.913667 L 34.626815,23.278892 L 35.019840,23.604234 L 34.758143,23.725777 L 33.755136,23.806484 L 31.488192,25.024411 L 31.705495,25.998049 L 31.443557,26.079952 L 31.313902,26.282313 L 32.054735,27.377381 L 32.098387,27.743326 L 31.488192,27.864864 L 31.488192,28.594827 L 31.139669,28.675896 L 31.183531,29.244320 L 28.218208,31.273994 L 28.305643,32.409035 C 28.523077,32.693546 30.224229,34.398356 30.224229,34.398356 C 30.224229,34.398356 32.185477,34.478456 32.621786,34.235855 C 33.057742,33.992442 32.752394,34.478960 32.883480,34.600835 C 33.014090,34.723467 33.057742,35.574618 33.188220,35.656161 C 33.318830,35.737098 33.188220,36.223617 33.362720,36.386841 C 33.536982,36.548004 33.536982,38.497216 33.536982,38.497216 C 33.536982,38.497216 34.583402,40.241168 34.583402,40.688288 C 34.583402,41.134327 34.539750,41.093752 35.368470,41.053515 C 36.196875,41.012912 36.370868,40.688288 36.544891,40.567107 C 36.720005,40.444954 36.720005,40.160699 36.894637,39.917018 C 37.069375,39.673102 37.373398,38.740421 37.766560,38.416270 C 38.158465,38.090700 39.205020,37.846998 39.291712,37.279657 C 39.378909,36.711355 39.771349,36.264582 39.771349,36.264582 L 41.656339,34.296157 L 41.603339,34.560837 L 41.559439,35.574250 L 42.126359,35.371874 L 42.083199,34.275508 L 41.879279,34.063091 L 41.908319,34.032187 C 41.908319,34.032187 41.777079,33.789091 41.603469,33.789091 C 41.429039,33.789091 40.381919,34.032187 40.208269,33.991940 C 40.033499,33.951126 39.291844,32.003113 39.161234,31.922764 C 39.030385,31.841453 38.202490,30.502119 38.202490,30.502119 C 38.202490,30.502119 40.120459,32.774864 40.425669,33.667077 C 40.602729,34.186909 41.268109,33.703141 41.809519,33.160491 L 41.952699,33.505298 L 42.300989,33.423292 L 42.257319,33.017715 L 42.649479,33.017715 L 42.649479,33.626484 L 42.518799,33.951250 L 42.474039,34.478358 L 42.823349,34.803813 L 42.998219,34.520141 L 43.563879,33.992063 L 44.218429,33.667202 L 44.392979,33.992063 L 44.480399,34.438707 L 44.305259,34.925349 L 43.956999,35.209391 L 43.782499,35.940071 L 43.782499,36.304339 L 43.390639,36.061360 L 43.346999,35.290705 L 42.780339,35.331773 L 42.518949,36.020672 L 42.911319,36.590037 L 43.826469,36.711573 L 44.568219,36.020768 L 44.654969,34.682867 L 44.984679,34.252928 C 45.199569,34.798086 45.353099,35.368648 45.353099,35.899947 C 45.353099,36.482577 45.622669,35.496281 45.393169,33.719375 L 45.526889,33.545896 L 45.526889,33.545770 L 45.526539,33.545770 z M 34.539750,29.406703 L 32.185716,29.324319 L 33.187611,28.513290 L 33.711244,28.513290 L 34.539619,29.080875 L 34.539619,29.406577 L 34.539750,29.406703 z M 37.417767,29.122782 L 37.417767,29.487991 L 36.415131,29.487991 L 36.502195,29.731809 L 35.891389,29.813469 L 35.848083,30.015601 L 35.412256,29.935126 L 34.627191,29.771783 L 34.758275,29.569551 L 34.889230,29.325014 L 35.324953,28.879216 L 35.499691,29.204067 L 36.153936,29.163253 L 36.502327,28.797803 L 37.853381,29.041347 L 37.417899,29.123255 L 37.417899,29.122782 L 37.417767,29.122782 z M 37.504115,28.594575 L 36.981570,28.675647 L 36.894505,28.309947 L 37.547528,28.229127 L 37.635336,27.864144 L 38.115796,28.351732 L 37.504115,28.593988 L 37.504115,28.594575 L 37.504115,28.594575 z M 40.033259,41.214457 L 39.727809,41.457896 L 39.771219,42.067407 L 40.163759,42.067407 L 40.163759,41.540636 L 40.513109,41.093146 L 40.513109,40.160223 L 40.294829,40.118460 L 40.033769,41.214457 L 40.033259,41.214457 z M 37.112921,39.998440 C 37.112921,39.998440 36.807544,40.077726 37.155829,40.200329 C 37.504115,40.322719 38.899643,38.213066 38.899643,38.213066 L 37.722400,38.942440 L 37.112444,39.998331 L 37.112921,39.998331 L 37.112921,39.998440 z M 34.739529,47.776131 L 34.478791,47.530564 L 33.955417,47.448391 L 33.868566,47.693958 L 33.171305,47.612942 L 33.127522,47.286181 L 32.604602,47.286181 L 32.038062,47.612942 L 31.036008,47.612942 L 30.949075,47.367453 L 29.337043,47.203364 L 29.075130,47.448391 L 28.421978,47.286181 L 28.334790,46.712925 L 28.029808,46.671118 L 27.681163,47.286052 L 26.504990,47.244734 C 26.715042,47.343037 28.472168,48.377480 31.166276,48.594027 C 34.739397,48.879136 36.438949,48.021723 36.438949,48.021723 L 36.308125,47.898696 L 34.739397,47.776568 L 34.739397,47.776131 L 34.739529,47.776131 z "
   id="path168"
   style="font-size:12.000000;fill:url(#linearGradient665);stroke:#000000;stroke-width:0.12500000;stroke-linejoin:round;stroke-opacity:0.83329999;stroke-dasharray:none;" />




  


  


<path
   sodipodi:type="arc"
   style="fill:url(#linearGradient612);fill-opacity:0.75000000;fill-rule:evenodd;stroke:none;stroke-width:1.0000000pt;"
   id="path1942"
   sodipodi:cx="34.522308"
   sodipodi:cy="34.311684"
   sodipodi:rx="14.529591"
   sodipodi:ry="13.832170"
   d="M 49.051899 34.311684 A 14.529591 13.832170 0 1 0 19.992718,34.311684 A 14.529591 13.832170 0 1 0 49.051899 34.311684 z"
   transform="translate(-1.859788,1.627314)" />

  





  





  





  






































  




  




  




  




  




  




  
  
  
  
  
  
  
  <rect
   style="fill:#ffffff;fill-rule:evenodd;stroke:#000000;stroke-width:0.87169582;"
   id="rect876"
   width="26.669992"
   height="10.035146"
   ry="0.85741842"
   x="18.513865"
   y="6.6279491" />












  
  
  
  
  
  
  
  
  <rect
   style="fill:#314e6c;fill-rule:evenodd;stroke-width:0.90870070;fill-opacity:1.0000000;"
   id="rect1035"
   width="25.369793"
   height="8.9803200"
   ry="0.76729244"
   x="19.491751"
   y="7.6466620" />













  

















  

  

  

  

  

  

  

  

  

  

  

  

  

  

  

  

  




  

<path
   style="font-size:10.000000;font-weight:bold;stroke-width:1.0000000pt;font-family:Bitstream Vera Sans;fill:#ffffff;fill-opacity:1.0000000;"
   d="M 42.346063,8.0792349 L 44.094110,8.0792349 L 44.094110,15.676892 L 42.346063,15.676892 L 42.346063,8.0792349 z M 36.994501,11.116345 C 37.215855,10.777803 37.477899,10.520642 37.780634,10.344860 C 38.086623,10.165824 38.421910,10.076306 38.786493,10.076306 C 39.414748,10.076306 39.893264,10.269991 40.222040,10.657360 C 40.550816,11.044730 40.715204,11.607881 40.715204,12.346814 L 40.715204,15.676892 L 38.957392,15.676892 L 38.957392,12.825329 C 38.960647,12.783011 38.962274,12.739066 38.962274,12.693493 C 38.965530,12.647920 38.967157,12.582816 38.967157,12.498181 C 38.967157,12.110811 38.910191,11.830863 38.796259,11.658337 C 38.682326,11.482556 38.498407,11.394665 38.244501,11.394665 C 37.912470,11.394665 37.655308,11.531384 37.473017,11.804821 C 37.293980,12.078259 37.201207,12.473767 37.194696,12.991345 L 37.194696,15.676892 L 35.436884,15.676892 L 35.436884,12.825329 C 35.436884,12.219860 35.384800,11.830863 35.280634,11.658337 C 35.176467,11.482556 34.990920,11.394665 34.723993,11.394665 C 34.388707,11.394665 34.129918,11.533011 33.947626,11.809704 C 33.765334,12.083142 33.674188,12.475394 33.674188,12.986462 L 33.674188,15.676892 L 31.916376,15.676892 L 31.916376,10.208142 L 33.674188,10.208142 L 33.674188,11.008923 C 33.889032,10.699678 34.134800,10.466931 34.411493,10.310681 C 34.691441,10.154431 34.999058,10.076306 35.334345,10.076306 C 35.711949,10.076306 36.045608,10.167452 36.335321,10.349743 C 36.625035,10.532035 36.844761,10.787569 36.994501,11.116345 z M 29.055048,8.6554069 L 29.055048,10.208142 L 30.856806,10.208142 L 30.856806,11.458142 L 29.055048,11.458142 L 29.055048,13.777478 C 29.055048,14.031384 29.105504,14.203910 29.206415,14.295056 C 29.307326,14.382946 29.507522,14.426892 29.807001,14.426892 L 30.705438,14.426892 L 30.705438,15.676892 L 29.206415,15.676892 C 28.516311,15.676892 28.026402,15.533662 27.736688,15.247204 C 27.450230,14.957491 27.307001,14.467582 27.307001,13.777478 L 27.307001,11.458142 L 26.437860,11.458142 L 26.437860,10.208142 L 27.307001,10.208142 L 27.307001,8.6554069 L 29.055048,8.6554069 z M 25.524774,12.346814 L 25.524774,15.676892 L 23.766962,15.676892 L 23.766962,15.134899 L 23.766962,13.137829 C 23.766962,12.659314 23.755569,12.330538 23.732782,12.151501 C 23.713251,11.972465 23.677444,11.840629 23.625360,11.755993 C 23.557001,11.642061 23.464227,11.554170 23.347040,11.492321 C 23.229852,11.427217 23.096389,11.394665 22.946649,11.394665 C 22.582066,11.394665 22.295608,11.536267 22.087274,11.819470 C 21.878941,12.099418 21.774774,12.488415 21.774774,12.986462 L 21.774774,15.676892 L 20.026727,15.676892 L 20.026727,8.0792349 L 21.774774,8.0792349 L 21.774774,11.008923 C 22.038446,10.689913 22.318394,10.455538 22.614618,10.305798 C 22.910842,10.152803 23.237991,10.076306 23.596063,10.076306 C 24.227574,10.076306 24.706089,10.269991 25.031610,10.657360 C 25.360386,11.044730 25.524774,11.607881 25.524774,12.346814 z "
   id="path951" />



  


  


  


  



  



  



  


  


</svg>
