<?xml version="1.0" encoding="UTF-8" standalone="no"?>
<!DOCTYPE svg PUBLIC "-//W3C//DTD SVG 20010904//EN"
"http://www.w3.org/TR/2001/REC-SVG-20010904/DTD/svg10.dtd">
<!-- Created with Sodipodi ("http://www.sodipodi.com/") -->
<svg
   id="svg602"
   sodipodi:version="0.32"
   width="48pt"
   height="48pt"
   xml:space="preserve"
   sodipodi:docbase="/home/krosstok/Desktop/contrib/tempmime"
   sodipodi:docname="gnome-mime-audio-x-mp3.svg"
   inkscape:version="0.38.1"
   xmlns="http://www.w3.org/2000/svg"
   xmlns:inkscape="http://www.inkscape.org/namespaces/inkscape"
   xmlns:sodipodi="http://sodipodi.sourceforge.net/DTD/sodipodi-0.dtd"
   xmlns:xml="http://www.w3.org/XML/1998/namespace"
   xmlns:xlink="http://www.w3.org/1999/xlink"><defs
   id="defs604"><linearGradient
   id="linearGradient912">
      <stop
   style="stop-color:#ffffff;stop-opacity:1.0000000;"
   offset="0.0000000"
   id="stop914" />



















      <stop
   style="stop-color:#a0a2a0;stop-opacity:1.0000000;"
   offset="1.0000000"
   id="stop916" />



















    </linearGradient>








<linearGradient
   id="linearGradient960">
      <stop
   style="stop-color:#7590ae;stop-opacity:1.0000000;"
   offset="0.0000000"
   id="stop962" />



















      <stop
   style="stop-color:#314e6c;stop-opacity:1.0000000;"
   offset="1.0000000"
   id="stop964" />



















    </linearGradient>









<linearGradient
   id="linearGradient954">
      <stop
   style="stop-color:#ffffff;stop-opacity:1.0000000;"
   offset="0.0000000"
   id="stop956" />



















      <stop
   style="stop-color:#14a2da;stop-opacity:1.0000000;"
   offset="1.0000000"
   id="stop958" />



















    </linearGradient>









<linearGradient
   id="linearGradient891">
      <stop
   style="stop-color:#fbffbf;stop-opacity:1.0000000;"
   offset="0.0000000"
   id="stop893" />



















      <stop
   style="stop-color:#ffffff;stop-opacity:0.13008130;"
   offset="1.0000000"
   id="stop895" />



















    </linearGradient>











    <linearGradient
   id="linearGradient622">
      <stop
   style="stop-color:#f8e29d;stop-opacity:0.4471;"
   offset="0"
   id="stop623" />



















      <stop
   style="stop-color:#272d2d;stop-opacity:0.4784;"
   offset="1"
   id="stop624" />



















    </linearGradient>



















    <linearGradient
   id="linearGradient617">
      <stop
   style="stop-color:#ffffff;stop-opacity:1.0000000;"
   offset="0.0000000"
   id="stop618" />



















      <stop
   style="stop-color:#565248;stop-opacity:1.0000000;"
   offset="1.0000000"
   id="stop619" />



















    </linearGradient>



















    <linearGradient
   id="linearGradient613">
      <stop
   style="stop-color:#ffffff;stop-opacity:0.0000000;"
   offset="0.0000000"
   id="stop614" />



















      <stop
   style="stop-color:#898989;stop-opacity:0.45528457;"
   offset="1.0000000"
   id="stop615" />



















    </linearGradient>



















    <linearGradient
   id="linearGradient607">
      <stop
   style="stop-color:#d7d5d5;stop-opacity:1.0000000;"
   offset="0.0000000"
   id="stop608" />



















      <stop
   style="stop-color:#000000;stop-opacity:0.4039;"
   offset="1"
   id="stop609" />



















    </linearGradient>



















    <radialGradient
   xlink:href="#linearGradient891"
   id="radialGradient610"
   cx="0.45522389"
   cy="0.45312500"
   r="0.48908448"
   fx="0.45522389"
   fy="0.45312500" />



















    <linearGradient
   xlink:href="#linearGradient617"
   id="linearGradient612"
   x1="0.39686918"
   y1="0.97534692"
   x2="0.41513580"
   y2="0.62097520"
   gradientUnits="objectBoundingBox" />



















    <radialGradient
   xlink:href="#linearGradient613"
   id="radialGradient616"
   cx="0.21333396"
   cy="0.38369742"
   r="1.7808846"
   fx="0.21333396"
   fy="0.38369742"
   gradientTransform="scale(0.962608,1.038844)"
   gradientUnits="objectBoundingBox" />



















    <linearGradient
   xlink:href="#linearGradient617"
   id="linearGradient621"
   x1="-0.42741936"
   y1="0.90625"
   x2="-0.96774197"
   y2="0.7890625" />



















    <linearGradient
   xlink:href="#linearGradient617"
   id="linearGradient626"
   x1="-0.59104401"
   y1="-0.30253443"
   x2="0.35769230"
   y2="0.85937500" />



















    <linearGradient
   xlink:href="#linearGradient617"
   id="linearGradient687"
   x1="0.61332619"
   y1="1.1830040"
   x2="0.80003732"
   y2="0.65496588" />



















    <linearGradient
   xlink:href="#linearGradient613"
   id="linearGradient742"
   x1="0.24554488"
   y1="0.78758895"
   x2="0.32109740"
   y2="1.0231930"
   gradientTransform="scale(0.962609,1.038844)"
   gradientUnits="objectBoundingBox" />



















  <linearGradient
   xlink:href="#linearGradient912"
   id="linearGradient1039" />




<defs
   id="defs1100"><linearGradient
   id="linearGradient1101">
      <stop
   style="stop-color:#ffffff;stop-opacity:1.0000000;"
   offset="0.0000000"
   id="stop1103" />



















      <stop
   style="stop-color:#a0a2a0;stop-opacity:1.0000000;"
   offset="1.0000000"
   id="stop1105" />



















    </linearGradient>








<linearGradient
   id="linearGradient1108">
      <stop
   style="stop-color:#7590ae;stop-opacity:1.0000000;"
   offset="0.0000000"
   id="stop1110" />



















      <stop
   style="stop-color:#314e6c;stop-opacity:1.0000000;"
   offset="1.0000000"
   id="stop1112" />



















    </linearGradient>









<linearGradient
   id="linearGradient1115">
      <stop
   style="stop-color:#ffffff;stop-opacity:1.0000000;"
   offset="0.0000000"
   id="stop1117" />



















      <stop
   style="stop-color:#14a2da;stop-opacity:1.0000000;"
   offset="1.0000000"
   id="stop1119" />



















    </linearGradient>









<linearGradient
   id="linearGradient1122">
      <stop
   style="stop-color:#fbffbf;stop-opacity:1.0000000;"
   offset="0.0000000"
   id="stop1124" />



















      <stop
   style="stop-color:#ffffff;stop-opacity:0.13008130;"
   offset="1.0000000"
   id="stop1126" />



















    </linearGradient>











    <linearGradient
   id="linearGradient1129">
      <stop
   style="stop-color:#f8e29d;stop-opacity:0.4471;"
   offset="0"
   id="stop1131" />



















      <stop
   style="stop-color:#272d2d;stop-opacity:0.4784;"
   offset="1"
   id="stop1133" />



















    </linearGradient>



















    <linearGradient
   id="linearGradient1136">
      <stop
   style="stop-color:#ffffff;stop-opacity:1.0000000;"
   offset="0.0000000"
   id="stop1138" />



















      <stop
   style="stop-color:#565248;stop-opacity:1.0000000;"
   offset="1.0000000"
   id="stop1140" />



















    </linearGradient>



















    <linearGradient
   id="linearGradient1143">
      <stop
   style="stop-color:#ffffff;stop-opacity:0.0000000;"
   offset="0.0000000"
   id="stop1145" />



















      <stop
   style="stop-color:#ffffff;stop-opacity:0.69918698;"
   offset="1.0000000"
   id="stop1147" />



















    </linearGradient>



















    <linearGradient
   id="linearGradient1150">
      <stop
   style="stop-color:#d7d5d5;stop-opacity:1.0000000;"
   offset="0.0000000"
   id="stop1152" />



















      <stop
   style="stop-color:#000000;stop-opacity:0.4039;"
   offset="1"
   id="stop1154" />



















    </linearGradient>



















    <radialGradient
   xlink:href="#linearGradient891"
   id="radialGradient1157"
   cx="0.45522389"
   cy="0.45312500"
   r="0.48908448"
   fx="0.45522389"
   fy="0.45312500" />



















    <linearGradient
   xlink:href="#linearGradient617"
   id="linearGradient1159"
   x1="0.39686918"
   y1="0.97534692"
   x2="0.41513580"
   y2="0.62097520"
   gradientUnits="objectBoundingBox" />



















    <radialGradient
   xlink:href="#linearGradient613"
   id="radialGradient1161"
   cx="0.21333396"
   cy="0.38369742"
   r="1.7808846"
   fx="0.21333396"
   fy="0.38369742"
   gradientTransform="scale(0.962608,1.038844)"
   gradientUnits="objectBoundingBox" />



















    <linearGradient
   xlink:href="#linearGradient617"
   id="linearGradient1163"
   x1="-0.42741936"
   y1="0.90625"
   x2="-0.96774197"
   y2="0.7890625" />



















    <linearGradient
   xlink:href="#linearGradient617"
   id="linearGradient1165"
   x1="-0.59104401"
   y1="-0.30253443"
   x2="0.35769230"
   y2="0.85937500" />



















    <linearGradient
   xlink:href="#linearGradient617"
   id="linearGradient1167"
   x1="0.61332619"
   y1="1.1830040"
   x2="0.80003732"
   y2="0.65496588" />



















    <linearGradient
   xlink:href="#linearGradient613"
   id="linearGradient1169"
   x1="0.30220908"
   y1="0.79432046"
   x2="0.32109731"
   y2="1.0231928"
   gradientTransform="scale(0.962609,1.038844)"
   gradientUnits="objectBoundingBox" />



















  <linearGradient
   xlink:href="#linearGradient912"
   id="linearGradient1171" />




</defs>
<sodipodi:namedview
   id="namedview1174"
   inkscape:zoom="2.6884790"
   inkscape:cx="22.431804"
   inkscape:cy="-13.996389"
   inkscape:window-width="640"
   inkscape:window-height="501"
   inkscape:window-x="-41"
   inkscape:window-y="209"
   showguides="false"
   snaptoguides="false">
    <sodipodi:guide
   orientation="horizontal"
   position="43.519031"
   id="guide1176" />




  </sodipodi:namedview>
</defs>
<rect
   style="fill:#000006;fill-opacity:0.68292683;fill-rule:evenodd;stroke:none;stroke-width:0.99266949pt;"
   id="rect933"
   width="48.605208"
   height="53.933841"
   ry="1.8602422"
   x="7.8949676"
   y="5.8336849" />


<sodipodi:namedview
   id="base"
   inkscape:zoom="5.3769580"
   inkscape:cx="22.431807"
   inkscape:cy="28.554352"
   inkscape:window-width="640"
   inkscape:window-height="501"
   inkscape:window-x="121"
   inkscape:window-y="142"
   showguides="false"
   snaptoguides="false">
    <sodipodi:guide
   orientation="horizontal"
   position="43.519031"
   id="guide1036" />




  </sodipodi:namedview>


<rect
   style="fill:#ffffff;fill-opacity:1.0000000;fill-rule:evenodd;stroke:#000000;stroke-width:0.48750000;stroke-opacity:1.0000000;stroke-dasharray:none;"
   id="rect932"
   width="45.815529"
   height="52.771473"
   ry="1.8201507"
   x="8.5923881"
   y="5.3687382" />






  

  

  

  

  
  

  




  





  





  





  





  
    <path
   sodipodi:type="arc"
   style="font-size:12.000000;fill:#444040;fill-opacity:0.44200000;fill-rule:evenodd;"
   id="path672"
   d="M 68.473 57.85183 A 23.6299 3.222258 0 1 0 21.2132 57.85183 A 23.6299 3.222258 0 1 0  68.473 57.85183 z"
   sodipodi:cx="44.8431015"
   sodipodi:cy="57.8518295"
   sodipodi:rx="23.6298981"
   sodipodi:ry="3.22225761"
   transform="matrix(0.338364,0.000000,-7.196567e-2,0.471439,30.81545,24.63180)" />












    <path
   sodipodi:type="arc"
   style="font-size:12.000000;fill:url(#linearGradient626);fill-rule:evenodd;stroke:#000000;stroke-width:2.3002000;stroke-opacity:0.95649999;"
   id="path625"
   d="M 58.29114 27.53164 A 19.36709 19.55696 0 1 0 19.55696 27.53164 A 19.36709 19.55696 0 1 0  58.29114 27.53164 z"
   sodipodi:cx="38.9240494"
   sodipodi:cy="27.5316448"
   sodipodi:rx="19.3670883"
   sodipodi:ry="19.556963"
   transform="matrix(-0.242027,-0.112606,-0.131423,0.315789,56.32717,40.72330)" />












    <path
   sodipodi:type="arc"
   style="font-size:12.000000;fill:url(#linearGradient612);fill-rule:evenodd;stroke:#000000;stroke-width:2.0610001;stroke-opacity:0.95649999;"
   id="path605"
   d="M 58.29114 27.53164 A 19.36709 19.55696 0 1 0 19.55696 27.53164 A 19.36709 19.55696 0 1 0  58.29114 27.53164 z"
   sodipodi:cx="38.9240494"
   sodipodi:cy="27.5316448"
   sodipodi:rx="19.3670883"
   sodipodi:ry="19.556963"
   transform="matrix(-0.340737,-0.189425,-0.268847,0.531217,58.99925,34.09440)" />



<path
   sodipodi:type="arc"
   style="font-size:12.000000;fill:url(#radialGradient616);fill-rule:evenodd;stroke:#000000;stroke-width:0.31700000;stroke-opacity:0.97829998;"
   id="path606"
   d="M 58.29114 27.53164 A 19.36709 19.55696 0 1 0 19.55696 27.53164 A 19.36709 19.55696 0 1 0  58.29114 27.53164 z"
   sodipodi:cx="38.9240494"
   sodipodi:cy="27.5316448"
   sodipodi:rx="19.3670883"
   sodipodi:ry="19.556963"
   transform="matrix(-0.274718,-0.166025,-0.227539,0.465590,54.23886,34.50620)" />












    








    <path
   sodipodi:type="arc"
   style="font-size:12.000000;fill-rule:evenodd;stroke-width:1.6350000;"
   id="path686"
   d="M 58.29114 27.53164 A 19.36709 19.55696 0 1 0 19.55696 27.53164 A 19.36709 19.55696 0 1 0  58.29114 27.53164 z"
   sodipodi:cx="38.9240494"
   sodipodi:cy="27.5316448"
   sodipodi:rx="19.3670883"
   sodipodi:ry="19.556963"
   transform="matrix(-9.396908e-2,-0.108055,-0.125818,0.223944,45.94225,39.57170)" />












    <path
   sodipodi:type="arc"
   style="font-size:12.000000;fill:url(#linearGradient687);fill-rule:evenodd;stroke:#3f3b3b;stroke-width:0.77380002;"
   id="path611"
   d="M 58.29114 27.53164 A 19.36709 19.55696 0 1 0 19.55696 27.53164 A 19.36709 19.55696 0 1 0  58.29114 27.53164 z"
   sodipodi:cx="38.9240494"
   sodipodi:cy="27.5316448"
   sodipodi:rx="19.3670883"
   sodipodi:ry="19.556963"
   transform="matrix(-8.791058e-2,-9.734990e-2,-0.117706,0.201758,45.24033,39.48590)" />












    <path
   style="font-size:12.000000;fill-rule:evenodd;stroke:#000000;stroke-width:0.22035471;stroke-linejoin:round;"
   d="M 36.383433,23.214293 L 32.262849,29.201122 C 30.173346,25.034088 28.771119,28.577160 29.410731,30.448165 C 30.148407,31.803480 30.967921,33.091758 32.378968,30.847703 L 35.851114,26.056105 L 37.682094,27.353633 L 39.158240,25.927124 L 36.383433,23.214293 z "
   id="path735"
   sodipodi:nodetypes="cccccccc" />












    <path
   style="font-size:12.000000;fill-rule:evenodd;stroke:#000000;stroke-width:0.073451571;stroke-linejoin:round;"
   d="M 23.635030,41.245064 L 22.955556,48.405863 C 18.513873,46.507730 19.139146,50.100444 20.837470,51.138580 C 22.339667,51.719791 23.884868,52.198599 24.007249,49.597586 L 24.723783,43.757950 L 27.276953,43.614247 L 27.928894,41.600289 L 23.635030,41.245064 z "
   id="path736"
   sodipodi:nodetypes="cccccccc" />












    <path
   style="font-size:12.000000;fill-rule:evenodd;stroke:#000000;stroke-width:0.073429875;stroke-linejoin:round;"
   d="M 19.148033,25.907815 L 21.095939,31.731581 C 16.713155,31.384930 18.498734,34.056577 20.284311,34.435477 C 21.745246,34.504808 23.206175,34.482229 22.394544,32.399098 L 20.941888,27.607750 L 25.265481,26.278146 L 24.615540,24.520882 L 19.148033,25.907815 z "
   id="path734"
   sodipodi:nodetypes="cccccccc" />












    <path
   style="font-size:12.000000;fill-rule:evenodd;stroke:#000000;stroke-width:0.073429823;stroke-linejoin:round;"
   d="M 24.064064,24.634190 L 26.279761,30.457968 C 21.896981,30.111312 23.682556,32.782966 25.468132,33.161866 C 26.929068,33.231198 28.389994,33.208616 27.578364,31.125484 L 25.590141,24.178139 L 24.064064,24.634190 z "
   id="path738"
   sodipodi:nodetypes="cccccc" />












  





  





  
  
  
  
  
  
  
  






  
  
  
  
  
  
  
  
  







  













  




  




  











  
    

    

    








  






  






  






  






  




  




  
  
  
  
  
  
  
  





  
  
  
  
  
  
  
  
  






  

























































    
      
      
      
    
  













<rect
   style="font-size:12;fill:url(#linearGradient742);fill-rule:evenodd;stroke-width:1.295431;stroke-linejoin:round;"
   id="rect809"
   width="35.278572"
   height="46.197449"
   x="17.747970"
   y="10.718132"
   ry="1.5934047" />












  

  

  

  

  
  

  




  





  





  





  





  
    











    











    














    








    











    











    











    











    











    











  





  





  
  
  
  
  
  
  
  






  
  
  
  
  
  
  
  
  







  













  




  




  











  
    

    

    








  






  






  






  






  




  




  
  
  
  
  
  
  
  





  
  
  
  
  
  
  
  
  






  

























































    
      
      
      
    
  










<rect
   style="fill:#ffffff;fill-rule:evenodd;stroke:#78787e;stroke-width:0.80786693;"
   id="rect876"
   width="27.218390"
   height="12.008054"
   ry="1.0259868"
   x="17.077301"
   y="6.8038621" />


<rect
   style="fill:#314e6c;fill-rule:evenodd;stroke:#000000;stroke-width:0.41249999;"
   id="rect1035"
   width="26.499226"
   height="10.404858"
   ry="0.88900727"
   x="17.430546"
   y="7.5413804" />


<path
   style="font-size:10.000000;font-weight:bold;fill:#ffffff;stroke-width:1.0000000pt;font-family:Bitstream Vera Sans;"
   d="M 41.299152,10.969486 C 41.790689,11.096439 42.163410,11.317794 42.417316,11.633549 C 42.674478,11.946049 42.803059,12.344812 42.803059,12.829838 C 42.803059,13.552494 42.526366,14.102624 41.972980,14.480229 C 41.419595,14.854578 40.612303,15.041752 39.551105,15.041752 C 39.176757,15.041752 38.800780,15.010828 38.423176,14.948979 C 38.048827,14.890385 37.677733,14.800867 37.309895,14.680424 L 37.309895,13.230229 C 37.661457,13.406010 38.009764,13.539473 38.354816,13.630619 C 38.703124,13.718510 39.044921,13.762455 39.380207,13.762455 C 39.878254,13.762455 40.259113,13.676192 40.522785,13.503666 C 40.789712,13.331140 40.923176,13.083744 40.923176,12.761479 C 40.923176,12.429447 40.786457,12.178796 40.513020,12.009525 C 40.242837,11.836999 39.842447,11.750736 39.311848,11.750736 L 38.559895,11.750736 L 38.559895,10.539799 L 39.350910,10.539799 C 39.822915,10.539799 40.174478,10.466557 40.405598,10.320072 C 40.636717,10.170333 40.752277,9.9440956 40.752277,9.6413606 C 40.752277,9.3614126 40.639973,9.1449417 40.415363,8.9919469 C 40.190754,8.8389521 39.873371,8.7624547 39.463215,8.7624547 C 39.160480,8.7624547 38.854491,8.7966344 38.545246,8.8649938 C 38.236001,8.9333531 37.928384,9.0342646 37.622395,9.1677281 L 37.622395,7.7907750 C 37.993488,7.6866084 38.361327,7.6084834 38.725910,7.5564000 C 39.090494,7.5043167 39.448566,7.4782750 39.800129,7.4782750 C 40.747395,7.4782750 41.455402,7.6345250 41.924152,7.9470250 C 42.396158,8.2562698 42.632160,8.7233922 42.632160,9.3483926 C 42.632160,9.7748246 42.519855,10.124760 42.295246,10.398197 C 42.070637,10.668380 41.738605,10.858809 41.299152,10.969486 z M 32.070637,14.109135 L 32.070637,16.980229 L 30.322590,16.980229 L 30.322590,9.4313996 L 32.070637,9.4313996 L 32.070637,10.232182 C 32.311522,9.9131706 32.578449,9.6787956 32.871418,9.5290566 C 33.164387,9.3760616 33.501301,9.2995641 33.882160,9.2995641 C 34.555988,9.2995641 35.109374,9.5681186 35.542316,10.105229 C 35.975259,10.639083 36.191730,11.327559 36.191730,12.170658 C 36.191730,13.013757 35.975259,13.703861 35.542316,14.240971 C 35.109374,14.774825 34.555988,15.041752 33.882160,15.041752 C 33.501301,15.041752 33.164387,14.966882 32.871418,14.817143 C 32.578449,14.664148 32.311522,14.428145 32.070637,14.109135 z M 33.232746,10.569096 C 32.858397,10.569096 32.570311,10.707442 32.368488,10.984135 C 32.169921,11.257572 32.070637,11.653080 32.070637,12.170658 C 32.070637,12.688236 32.169921,13.085372 32.368488,13.362064 C 32.570311,13.635502 32.858397,13.772221 33.232746,13.772221 C 33.607095,13.772221 33.891926,13.635502 34.087238,13.362064 C 34.285806,13.088627 34.385090,12.691492 34.385090,12.170658 C 34.385090,11.649825 34.285806,11.252689 34.087238,10.979252 C 33.891926,10.705814 33.607095,10.569096 33.232746,10.569096 z M 24.971027,10.339604 C 25.192382,10.001062 25.454426,9.7438996 25.757160,9.5681186 C 26.063150,9.3890826 26.398436,9.2995641 26.763020,9.2995641 C 27.391275,9.2995641 27.869790,9.4932486 28.198566,9.8806186 C 28.527342,10.267989 28.691730,10.831140 28.691730,11.570072 L 28.691730,14.900150 L 26.933918,14.900150 L 26.933918,12.048588 C 26.937173,12.006270 26.938801,11.962325 26.938801,11.916752 C 26.942056,11.871179 26.943684,11.806075 26.943684,11.721439 C 26.943684,11.334070 26.886717,11.054122 26.772785,10.881596 C 26.658853,10.705814 26.474934,10.617924 26.221027,10.617924 C 25.888996,10.617924 25.631835,10.754643 25.449543,11.028080 C 25.270507,11.301518 25.177733,11.697025 25.171223,12.214604 L 25.171223,14.900150 L 23.413410,14.900150 L 23.413410,12.048588 C 23.413410,11.443119 23.361327,11.054122 23.257160,10.881596 C 23.152994,10.705814 22.967447,10.617924 22.700520,10.617924 C 22.365233,10.617924 22.106444,10.756270 21.924152,11.032963 C 21.741861,11.306400 21.650715,11.698653 21.650715,12.209721 L 21.650715,14.900150 L 19.892902,14.900150 L 19.892902,9.4313996 L 21.650715,9.4313996 L 21.650715,10.232182 C 21.865559,9.9229366 22.111327,9.6901886 22.388020,9.5339386 C 22.667967,9.3776886 22.975585,9.2995641 23.310871,9.2995641 C 23.688475,9.2995641 24.022134,9.3907096 24.311848,9.5730016 C 24.601561,9.7552936 24.821288,10.010828 24.971027,10.339604 z "
   id="path1101" />




</svg>
