<?xml version="1.0" encoding="UTF-8" standalone="no"?>
<!-- Created with Inkscape (http://www.inkscape.org/) -->

<svg
   xmlns:dc="http://purl.org/dc/elements/1.1/"
   xmlns:cc="http://creativecommons.org/ns#"
   xmlns:rdf="http://www.w3.org/1999/02/22-rdf-syntax-ns#"
   xmlns:svg="http://www.w3.org/2000/svg"
   xmlns="http://www.w3.org/2000/svg"
   xmlns:xlink="http://www.w3.org/1999/xlink"
   xmlns:sodipodi="http://sodipodi.sourceforge.net/DTD/sodipodi-0.dtd"
   xmlns:inkscape="http://www.inkscape.org/namespaces/inkscape"
   version="1.0"
   width="48"
   height="48"
   id="svg2"
   inkscape:version="0.47 r22583"
   sodipodi:docname="gnome-tali.svg">
  <metadata
     id="metadata155">
    <rdf:RDF>
      <cc:Work
         rdf:about="">
        <dc:format>image/svg+xml</dc:format>
        <dc:type
           rdf:resource="http://purl.org/dc/dcmitype/StillImage" />
      </cc:Work>
    </rdf:RDF>
  </metadata>
  <defs
     id="defs4">
    <inkscape:perspective
       sodipodi:type="inkscape:persp3d"
       inkscape:vp_x="0 : 24 : 1"
       inkscape:vp_y="0 : 1000 : 0"
       inkscape:vp_z="48 : 24 : 1"
       inkscape:persp3d-origin="24 : 16 : 1"
       id="perspective157" />
    <linearGradient
       id="linearGradient4599">
      <stop
         style="stop-color:white;stop-opacity:1"
         offset="0"
         id="stop4601" />
      <stop
         style="stop-color:white;stop-opacity:0"
         offset="1"
         id="stop4603" />
    </linearGradient>
    <linearGradient
       id="linearGradient4578">
      <stop
         style="stop-color:white;stop-opacity:1"
         offset="0"
         id="stop4580" />
      <stop
         style="stop-color:white;stop-opacity:0"
         offset="1"
         id="stop4582" />
    </linearGradient>
    <linearGradient
       id="linearGradient4504">
      <stop
         style="stop-color:white;stop-opacity:1"
         offset="0"
         id="stop4506" />
      <stop
         style="stop-color:white;stop-opacity:0"
         offset="1"
         id="stop4508" />
    </linearGradient>
    <linearGradient
       id="linearGradient3139">
      <stop
         style="stop-color:white;stop-opacity:1"
         offset="0"
         id="stop3141" />
      <stop
         style="stop-color:white;stop-opacity:0"
         offset="1"
         id="stop3143" />
    </linearGradient>
    <linearGradient
       id="linearGradient3125">
      <stop
         style="stop-color:white;stop-opacity:1"
         offset="0"
         id="stop3127" />
      <stop
         style="stop-color:white;stop-opacity:0"
         offset="1"
         id="stop3129" />
    </linearGradient>
    <linearGradient
       id="linearGradient2692">
      <stop
         style="stop-color:white;stop-opacity:1"
         offset="0"
         id="stop2694" />
      <stop
         style="stop-color:white;stop-opacity:0"
         offset="1"
         id="stop2696" />
    </linearGradient>
    <linearGradient
       id="linearGradient2681">
      <stop
         style="stop-color:white;stop-opacity:1"
         offset="0"
         id="stop2683" />
      <stop
         style="stop-color:white;stop-opacity:0"
         offset="1"
         id="stop2685" />
    </linearGradient>
    <linearGradient
       id="linearGradient2657">
      <stop
         style="stop-color:white;stop-opacity:1"
         offset="0"
         id="stop2659" />
      <stop
         style="stop-color:white;stop-opacity:0"
         offset="1"
         id="stop2661" />
    </linearGradient>
    <linearGradient
       id="linearGradient2646">
      <stop
         style="stop-color:white;stop-opacity:1"
         offset="0"
         id="stop2648" />
      <stop
         style="stop-color:white;stop-opacity:0"
         offset="1"
         id="stop2650" />
    </linearGradient>
    <linearGradient
       id="linearGradient2582">
      <stop
         style="stop-color:white;stop-opacity:1"
         offset="0"
         id="stop2584" />
      <stop
         style="stop-color:white;stop-opacity:0"
         offset="1"
         id="stop2586" />
    </linearGradient>
    <linearGradient
       id="linearGradient2513">
      <stop
         style="stop-color:white;stop-opacity:1"
         offset="0"
         id="stop2515" />
      <stop
         style="stop-color:white;stop-opacity:0"
         offset="1"
         id="stop2517" />
    </linearGradient>
    <linearGradient
       id="linearGradient2361">
      <stop
         style="stop-color:#f4f4f3;stop-opacity:1"
         offset="0"
         id="stop2363" />
      <stop
         style="stop-color:#deded9;stop-opacity:1"
         offset="0.67391306"
         id="stop2369" />
      <stop
         style="stop-color:#c2c7b8;stop-opacity:1"
         offset="1"
         id="stop2365" />
    </linearGradient>
    <linearGradient
       id="linearGradient2353">
      <stop
         style="stop-color:#e6e6e3;stop-opacity:1"
         offset="0"
         id="stop2355" />
      <stop
         style="stop-color:#c2c8bd;stop-opacity:1"
         offset="1"
         id="stop2357" />
    </linearGradient>
    <linearGradient
       id="linearGradient2345">
      <stop
         style="stop-color:#7d8280;stop-opacity:1;"
         offset="0"
         id="stop2347" />
      <stop
         style="stop-color:#000000;stop-opacity:1;"
         offset="1"
         id="stop2349" />
    </linearGradient>
    <linearGradient
       id="linearGradient2336">
      <stop
         style="stop-color:#eeeeec;stop-opacity:1"
         offset="0"
         id="stop2338" />
      <stop
         style="stop-color:#d3d7cf;stop-opacity:1"
         offset="1"
         id="stop2340" />
    </linearGradient>
    <linearGradient
       id="linearGradient2320">
      <stop
         style="stop-color:black;stop-opacity:1"
         offset="0"
         id="stop2322" />
      <stop
         style="stop-color:black;stop-opacity:0"
         offset="1"
         id="stop2324" />
    </linearGradient>
    <linearGradient
       id="linearGradient2310">
      <stop
         style="stop-color:black;stop-opacity:1"
         offset="0"
         id="stop2312" />
      <stop
         style="stop-color:black;stop-opacity:0"
         offset="1"
         id="stop2314" />
    </linearGradient>
    <radialGradient
       cx="14.980695"
       cy="39.536678"
       r="12.324325"
       fx="14.980695"
       fy="39.536678"
       id="radialGradient2316"
       xlink:href="#linearGradient2310"
       gradientUnits="userSpaceOnUse"
       gradientTransform="matrix(1,0,0,0.250627,0,29.62774)" />
    <radialGradient
       cx="13.683397"
       cy="37.528957"
       r="10.656371"
       fx="13.683397"
       fy="37.528957"
       id="radialGradient2326"
       xlink:href="#linearGradient2320"
       gradientUnits="userSpaceOnUse"
       gradientTransform="matrix(1,0,0,0.304348,0,26.1071)" />
    <radialGradient
       cx="14.980695"
       cy="39.536678"
       r="12.324325"
       fx="14.980695"
       fy="39.536678"
       id="radialGradient2330"
       xlink:href="#linearGradient2310"
       gradientUnits="userSpaceOnUse"
       gradientTransform="matrix(1,0,0,0.250627,0,29.62774)" />
    <radialGradient
       cx="17.04533"
       cy="11.207438"
       r="2.6563706"
       fx="17.04533"
       fy="11.207438"
       id="radialGradient2652"
       xlink:href="#linearGradient2646"
       gradientUnits="userSpaceOnUse"
       gradientTransform="matrix(0.563736,0.674575,-1,0.835689,18.89567,-9.65194)" />
    <radialGradient
       cx="32.679535"
       cy="14.640926"
       r="5.189189"
       fx="32.679535"
       fy="14.640926"
       id="radialGradient2687"
       xlink:href="#linearGradient2681"
       gradientUnits="userSpaceOnUse"
       gradientTransform="matrix(1,0,0,1.059524,0,-0.871484)" />
    <radialGradient
       cx="25.544401"
       cy="28.416988"
       r="3.3667953"
       fx="25.544401"
       fy="28.416988"
       id="radialGradient3131"
       xlink:href="#linearGradient3125"
       gradientUnits="userSpaceOnUse"
       gradientTransform="matrix(1,0,0,1.082569,0,-2.346357)" />
    <linearGradient
       x1="32.288513"
       y1="10.605587"
       x2="25.20225"
       y2="34.464256"
       id="linearGradient3565"
       xlink:href="#linearGradient2361"
       gradientUnits="userSpaceOnUse" />
    <linearGradient
       x1="32.17588"
       y1="7.2459474"
       x2="26.624687"
       y2="26.810707"
       id="linearGradient3567"
       xlink:href="#linearGradient2345"
       gradientUnits="userSpaceOnUse" />
    <linearGradient
       x1="32.288513"
       y1="10.605587"
       x2="25.20225"
       y2="34.464256"
       id="linearGradient3569"
       xlink:href="#linearGradient2361"
       gradientUnits="userSpaceOnUse" />
    <linearGradient
       x1="32.17588"
       y1="7.2459474"
       x2="26.624687"
       y2="26.810707"
       id="linearGradient3571"
       xlink:href="#linearGradient2345"
       gradientUnits="userSpaceOnUse" />
    <linearGradient
       x1="32.288513"
       y1="10.605587"
       x2="25.20225"
       y2="34.464256"
       id="linearGradient3573"
       xlink:href="#linearGradient2361"
       gradientUnits="userSpaceOnUse" />
    <linearGradient
       x1="32.17588"
       y1="7.2459474"
       x2="26.624687"
       y2="26.810707"
       id="linearGradient3575"
       xlink:href="#linearGradient2345"
       gradientUnits="userSpaceOnUse" />
    <linearGradient
       x1="32.288513"
       y1="10.605587"
       x2="25.20225"
       y2="34.464256"
       id="linearGradient3577"
       xlink:href="#linearGradient2361"
       gradientUnits="userSpaceOnUse" />
    <linearGradient
       x1="32.17588"
       y1="7.2459474"
       x2="26.624687"
       y2="26.810707"
       id="linearGradient3579"
       xlink:href="#linearGradient2345"
       gradientUnits="userSpaceOnUse" />
    <linearGradient
       x1="32.288513"
       y1="10.605587"
       x2="25.20225"
       y2="34.464256"
       id="linearGradient3581"
       xlink:href="#linearGradient2361"
       gradientUnits="userSpaceOnUse" />
    <linearGradient
       x1="31.774618"
       y1="8.9054117"
       x2="26.624687"
       y2="26.810707"
       id="linearGradient3583"
       xlink:href="#linearGradient2345"
       gradientUnits="userSpaceOnUse" />
    <radialGradient
       cx="22.92478"
       cy="41.302956"
       r="2.2715373"
       fx="22.92478"
       fy="41.302956"
       id="radialGradient3585"
       xlink:href="#linearGradient2582"
       gradientUnits="userSpaceOnUse"
       gradientTransform="matrix(1.162301,-0.816522,0.606306,0.86306,-28.76291,23.6259)" />
    <radialGradient
       cx="22.92478"
       cy="41.302956"
       r="2.2715373"
       fx="22.92478"
       fy="41.302956"
       id="radialGradient3587"
       xlink:href="#linearGradient2582"
       gradientUnits="userSpaceOnUse"
       gradientTransform="matrix(1.09189,-0.523765,0.404604,0.843474,-18.81789,17.72347)" />
    <radialGradient
       cx="22.92478"
       cy="41.302956"
       r="2.2715373"
       fx="22.92478"
       fy="41.302956"
       id="radialGradient3589"
       xlink:href="#linearGradient2582"
       gradientUnits="userSpaceOnUse"
       gradientTransform="matrix(0.964462,-0.512812,0.455469,0.856613,-17.9975,16.9297)" />
    <radialGradient
       cx="15.671417"
       cy="10.832206"
       r="2.2162576"
       fx="15.671417"
       fy="10.832206"
       id="radialGradient3591"
       xlink:href="#linearGradient2657"
       gradientUnits="userSpaceOnUse"
       gradientTransform="matrix(1.363528,-0.584396,0.523349,1.22109,-11.1467,6.39046)" />
    <linearGradient
       x1="22.628933"
       y1="26.639828"
       x2="33.503548"
       y2="23.368464"
       id="linearGradient3593"
       xlink:href="#linearGradient2336"
       gradientUnits="userSpaceOnUse" />
    <linearGradient
       x1="8.9985495"
       y1="32.243877"
       x2="34.110966"
       y2="34.276466"
       id="linearGradient3595"
       xlink:href="#linearGradient2345"
       gradientUnits="userSpaceOnUse" />
    <linearGradient
       x1="8.9985495"
       y1="32.243877"
       x2="34.110966"
       y2="34.276466"
       id="linearGradient3597"
       xlink:href="#linearGradient2345"
       gradientUnits="userSpaceOnUse" />
    <linearGradient
       x1="22.628933"
       y1="26.639828"
       x2="33.503548"
       y2="23.368464"
       id="linearGradient3599"
       xlink:href="#linearGradient2336"
       gradientUnits="userSpaceOnUse" />
    <linearGradient
       x1="8.9985495"
       y1="32.243877"
       x2="34.110966"
       y2="34.276466"
       id="linearGradient3601"
       xlink:href="#linearGradient2345"
       gradientUnits="userSpaceOnUse" />
    <linearGradient
       x1="16.739037"
       y1="22.355106"
       x2="31.510798"
       y2="31.424662"
       id="linearGradient3603"
       xlink:href="#linearGradient2353"
       gradientUnits="userSpaceOnUse" />
    <linearGradient
       x1="8.9985495"
       y1="32.243877"
       x2="34.110966"
       y2="34.276466"
       id="linearGradient3605"
       xlink:href="#linearGradient2345"
       gradientUnits="userSpaceOnUse" />
    <linearGradient
       x1="24.264832"
       y1="5.3542581"
       x2="30.496349"
       y2="11.874205"
       id="linearGradient3607"
       xlink:href="#linearGradient2336"
       gradientUnits="userSpaceOnUse" />
    <linearGradient
       x1="8.9985495"
       y1="32.243877"
       x2="34.110966"
       y2="34.276466"
       id="linearGradient3609"
       xlink:href="#linearGradient2345"
       gradientUnits="userSpaceOnUse" />
    <linearGradient
       x1="20.056196"
       y1="13.748024"
       x2="32.051025"
       y2="42.659222"
       id="linearGradient3611"
       xlink:href="#linearGradient2513"
       gradientUnits="userSpaceOnUse" />
    <linearGradient
       x1="28.881805"
       y1="16.878307"
       x2="44.65892"
       y2="30.283712"
       id="linearGradient3613"
       xlink:href="#linearGradient2513"
       gradientUnits="userSpaceOnUse" />
    <radialGradient
       cx="38.499264"
       cy="19.868374"
       r="0.72237909"
       fx="38.499264"
       fy="19.868374"
       id="radialGradient3615"
       xlink:href="#linearGradient2692"
       gradientUnits="userSpaceOnUse"
       gradientTransform="matrix(2.127889,-0.181693,0.539343,6.316624,-54.13875,-98.03468)" />
    <radialGradient
       cx="38.499264"
       cy="19.868374"
       r="0.72237909"
       fx="38.499264"
       fy="19.868374"
       id="radialGradient3617"
       xlink:href="#linearGradient2692"
       gradientUnits="userSpaceOnUse"
       gradientTransform="matrix(2.127889,-0.181693,0.539343,6.316624,-51.79126,-90.06556)" />
    <radialGradient
       cx="24.981203"
       cy="28.267349"
       r="1.4223483"
       fx="24.981203"
       fy="28.267349"
       id="radialGradient3619"
       xlink:href="#linearGradient3139"
       gradientUnits="userSpaceOnUse"
       gradientTransform="matrix(1.723628,-0.710196,1.005057,2.439249,-46.99083,-23.33393)" />
    <radialGradient
       cx="24.981203"
       cy="28.267349"
       r="1.4223483"
       fx="24.981203"
       fy="28.267349"
       id="radialGradient3621"
       xlink:href="#linearGradient3139"
       gradientUnits="userSpaceOnUse"
       gradientTransform="matrix(-1.723628,-0.710196,-1.005057,2.439249,98.72329,-26.85516)" />
    <radialGradient
       cx="24.981203"
       cy="28.267349"
       r="1.4223483"
       fx="24.981203"
       fy="28.267349"
       id="radialGradient3623"
       xlink:href="#linearGradient3139"
       gradientUnits="userSpaceOnUse"
       gradientTransform="matrix(1.723628,-0.710196,1.005057,2.439249,-42.23407,-21.04821)" />
    <radialGradient
       cx="24.981203"
       cy="28.267349"
       r="1.4223483"
       fx="24.981203"
       fy="28.267349"
       id="radialGradient3625"
       xlink:href="#linearGradient3139"
       gradientUnits="userSpaceOnUse"
       gradientTransform="matrix(1.723628,-0.710196,1.005057,2.439249,-44.02558,-15.73547)" />
    <radialGradient
       cx="24.981203"
       cy="28.267349"
       r="1.4223483"
       fx="24.981203"
       fy="28.267349"
       id="radialGradient3627"
       xlink:href="#linearGradient3139"
       gradientUnits="userSpaceOnUse"
       gradientTransform="matrix(1.723628,-0.710196,1.005057,2.439249,-37.04489,-18.70072)" />
    <radialGradient
       cx="33.075966"
       cy="17.096407"
       r="1.4208494"
       fx="33.075966"
       fy="17.096407"
       id="radialGradient4510"
       xlink:href="#linearGradient4504"
       gradientUnits="userSpaceOnUse"
       gradientTransform="matrix(1.226078,-0.173501,0.103062,2.268532,-9.23971,-15.66634)" />
    <linearGradient
       x1="40.001495"
       y1="16.198771"
       x2="36.319153"
       y2="30.716145"
       id="linearGradient4528"
       xlink:href="#linearGradient2513"
       gradientUnits="userSpaceOnUse"
       gradientTransform="matrix(-1,0,0,1,61.80896,-7)" />
    <linearGradient
       x1="26.728012"
       y1="11.276981"
       x2="24.329018"
       y2="43.276981"
       id="linearGradient4531"
       xlink:href="#linearGradient2513"
       gradientUnits="userSpaceOnUse"
       gradientTransform="matrix(-1,0,0,1,61.80896,-7)" />
    <radialGradient
       cx="33.928219"
       cy="17.459913"
       r="1.6735688"
       fx="33.928219"
       fy="17.459913"
       id="radialGradient4551"
       xlink:href="#linearGradient4504"
       gradientUnits="userSpaceOnUse"
       gradientTransform="matrix(1.367925,0.603727,-1.029269,2.332124,5.195413,-43.65487)" />
    <radialGradient
       cx="33.928219"
       cy="17.459913"
       r="1.6735688"
       fx="33.928219"
       fy="17.459913"
       id="radialGradient4555"
       xlink:href="#linearGradient4504"
       gradientUnits="userSpaceOnUse"
       gradientTransform="matrix(1.216443,0.603727,-0.915289,2.332124,14.40596,-40.01009)" />
    <radialGradient
       cx="33.928219"
       cy="17.459913"
       r="1.6735688"
       fx="33.928219"
       fy="17.459913"
       id="radialGradient4559"
       xlink:href="#linearGradient4504"
       gradientUnits="userSpaceOnUse"
       gradientTransform="matrix(1.367925,0.603727,-1.029269,2.332124,6.430943,-37.78616)" />
    <radialGradient
       cx="33.928219"
       cy="17.459913"
       r="1.6735688"
       fx="33.928219"
       fy="17.459913"
       id="radialGradient4563"
       xlink:href="#linearGradient4504"
       gradientUnits="userSpaceOnUse"
       gradientTransform="matrix(1.367925,0.603727,-1.029269,2.332124,8.160673,-32.47342)" />
    <radialGradient
       cx="33.928219"
       cy="17.459913"
       r="1.6735688"
       fx="33.928219"
       fy="17.459913"
       id="radialGradient4567"
       xlink:href="#linearGradient4504"
       gradientUnits="userSpaceOnUse"
       gradientTransform="matrix(1.367925,0.603727,-1.029269,2.332124,1.241754,-35.43867)" />
    <radialGradient
       cx="38.499264"
       cy="19.868374"
       r="0.72237909"
       fx="38.499264"
       fy="19.868374"
       id="radialGradient4569"
       xlink:href="#linearGradient2692"
       gradientUnits="userSpaceOnUse"
       gradientTransform="matrix(2.127889,-0.181693,0.539343,6.316624,-51.79126,-90.06556)" />
    <radialGradient
       cx="22.332047"
       cy="10.903475"
       r="2.1930501"
       fx="22.332047"
       fy="10.903475"
       id="radialGradient4584"
       xlink:href="#linearGradient4578"
       gradientUnits="userSpaceOnUse"
       gradientTransform="matrix(1,0,0,1.704225,0,-7.678504)" />
    <radialGradient
       cx="9.853282"
       cy="6.1158299"
       r="1.7606177"
       fx="9.853282"
       fy="6.1158299"
       id="radialGradient4605"
       xlink:href="#linearGradient4599"
       gradientUnits="userSpaceOnUse"
       gradientTransform="matrix(1,0,0,1.964912,0,-5.90124)" />
    <radialGradient
       cx="33.985344"
       cy="17.59857"
       r="1.6735688"
       fx="33.985344"
       fy="17.59857"
       id="radialGradient4619"
       xlink:href="#linearGradient2681"
       gradientUnits="userSpaceOnUse"
       gradientTransform="matrix(1.023492,0.573306,-0.952181,2.89183,7.209171,-55.49864)" />
    <radialGradient
       inkscape:collect="always"
       xlink:href="#linearGradient2681"
       id="radialGradient2964"
       gradientUnits="userSpaceOnUse"
       gradientTransform="matrix(1.0627858,0.59531629,-0.98873701,3.0028528,6.5645398,-59.39541)"
       cx="33.985344"
       cy="17.59857"
       fx="33.985344"
       fy="17.59857"
       r="1.6735688" />
    <radialGradient
       inkscape:collect="always"
       xlink:href="#linearGradient4504"
       id="radialGradient2969"
       gradientUnits="userSpaceOnUse"
       gradientTransform="matrix(1.4204422,0.62690521,-1.0687846,2.4216586,0.36802248,-38.5653)"
       cx="33.928219"
       cy="17.459913"
       fx="33.928219"
       fy="17.459913"
       r="1.6735688" />
    <radialGradient
       inkscape:collect="always"
       xlink:href="#linearGradient4504"
       id="radialGradient2972"
       gradientUnits="userSpaceOnUse"
       gradientTransform="matrix(1.4204422,0.62690521,-1.0687846,2.4216586,7.5525717,-35.486209)"
       cx="33.928219"
       cy="17.459913"
       fx="33.928219"
       fy="17.459913"
       r="1.6735688" />
    <radialGradient
       inkscape:collect="always"
       xlink:href="#linearGradient4504"
       id="radialGradient2975"
       gradientUnits="userSpaceOnUse"
       gradientTransform="matrix(1.4204422,0.62690521,-1.0687846,2.4216586,5.7564342,-41.002915)"
       cx="33.928219"
       cy="17.459913"
       fx="33.928219"
       fy="17.459913"
       r="1.6735688" />
    <radialGradient
       inkscape:collect="always"
       xlink:href="#linearGradient4504"
       id="radialGradient2978"
       gradientUnits="userSpaceOnUse"
       gradientTransform="matrix(1.2631445,0.62690521,-0.95042866,2.4216586,14.037627,-43.312226)"
       cx="33.928219"
       cy="17.459913"
       fx="33.928219"
       fy="17.459913"
       r="1.6735688" />
    <radialGradient
       inkscape:collect="always"
       xlink:href="#linearGradient4504"
       id="radialGradient3002"
       gradientUnits="userSpaceOnUse"
       gradientTransform="matrix(1.4204422,0.62690521,-1.0687846,2.4216586,4.4734698,-47.096936)"
       cx="33.928219"
       cy="17.459913"
       fx="33.928219"
       fy="17.459913"
       r="1.6735688" />
    <linearGradient
       inkscape:collect="always"
       xlink:href="#linearGradient2513"
       id="linearGradient3010"
       gradientUnits="userSpaceOnUse"
       gradientTransform="matrix(-1.0383919,0,0,1.0383919,63.260519,-9.0348167)"
       x1="40.001495"
       y1="16.198771"
       x2="36.319153"
       y2="30.716145" />
    <linearGradient
       inkscape:collect="always"
       xlink:href="#linearGradient2513"
       id="linearGradient3013"
       gradientUnits="userSpaceOnUse"
       gradientTransform="matrix(-1.0383919,0,0,1.0383919,63.260519,-9.0348167)"
       x1="26.728012"
       y1="11.276981"
       x2="24.329018"
       y2="43.276981" />
    <linearGradient
       inkscape:collect="always"
       xlink:href="#linearGradient2361"
       id="linearGradient3792"
       gradientUnits="userSpaceOnUse"
       x1="32.288513"
       y1="10.605587"
       x2="25.20225"
       y2="34.464256" />
    <linearGradient
       inkscape:collect="always"
       xlink:href="#linearGradient2345"
       id="linearGradient3794"
       gradientUnits="userSpaceOnUse"
       x1="32.17588"
       y1="7.2459474"
       x2="26.624687"
       y2="26.810707" />
    <linearGradient
       inkscape:collect="always"
       xlink:href="#linearGradient2361"
       id="linearGradient3796"
       gradientUnits="userSpaceOnUse"
       x1="32.288513"
       y1="10.605587"
       x2="25.20225"
       y2="34.464256" />
    <linearGradient
       inkscape:collect="always"
       xlink:href="#linearGradient2345"
       id="linearGradient3798"
       gradientUnits="userSpaceOnUse"
       x1="32.17588"
       y1="7.2459474"
       x2="26.624687"
       y2="26.810707" />
    <linearGradient
       inkscape:collect="always"
       xlink:href="#linearGradient2361"
       id="linearGradient3800"
       gradientUnits="userSpaceOnUse"
       x1="32.288513"
       y1="10.605587"
       x2="25.20225"
       y2="34.464256" />
    <linearGradient
       inkscape:collect="always"
       xlink:href="#linearGradient2345"
       id="linearGradient3802"
       gradientUnits="userSpaceOnUse"
       x1="32.17588"
       y1="7.2459474"
       x2="26.624687"
       y2="26.810707" />
    <linearGradient
       inkscape:collect="always"
       xlink:href="#linearGradient2361"
       id="linearGradient3804"
       gradientUnits="userSpaceOnUse"
       x1="32.288513"
       y1="10.605587"
       x2="25.20225"
       y2="34.464256" />
    <linearGradient
       inkscape:collect="always"
       xlink:href="#linearGradient2345"
       id="linearGradient3806"
       gradientUnits="userSpaceOnUse"
       x1="31.774618"
       y1="8.9054117"
       x2="26.624687"
       y2="26.810707" />
    <linearGradient
       inkscape:collect="always"
       xlink:href="#linearGradient2361"
       id="linearGradient3808"
       gradientUnits="userSpaceOnUse"
       x1="32.288513"
       y1="10.605587"
       x2="25.20225"
       y2="34.464256" />
    <linearGradient
       inkscape:collect="always"
       xlink:href="#linearGradient2345"
       id="linearGradient3810"
       gradientUnits="userSpaceOnUse"
       x1="32.17588"
       y1="7.2459474"
       x2="26.624687"
       y2="26.810707" />
    <radialGradient
       inkscape:collect="always"
       xlink:href="#linearGradient2582"
       id="radialGradient3812"
       gradientUnits="userSpaceOnUse"
       gradientTransform="matrix(1.162301,-0.816522,0.606306,0.86306,-28.76291,23.6259)"
       cx="22.92478"
       cy="41.302956"
       fx="22.92478"
       fy="41.302956"
       r="2.2715373" />
    <radialGradient
       inkscape:collect="always"
       xlink:href="#linearGradient2582"
       id="radialGradient3814"
       gradientUnits="userSpaceOnUse"
       gradientTransform="matrix(1.09189,-0.523765,0.404604,0.843474,-18.81789,17.72347)"
       cx="22.92478"
       cy="41.302956"
       fx="22.92478"
       fy="41.302956"
       r="2.2715373" />
    <radialGradient
       inkscape:collect="always"
       xlink:href="#linearGradient2582"
       id="radialGradient3816"
       gradientUnits="userSpaceOnUse"
       gradientTransform="matrix(0.964462,-0.512812,0.455469,0.856613,-17.9975,16.9297)"
       cx="22.92478"
       cy="41.302956"
       fx="22.92478"
       fy="41.302956"
       r="2.2715373" />
    <radialGradient
       inkscape:collect="always"
       xlink:href="#linearGradient2657"
       id="radialGradient3818"
       gradientUnits="userSpaceOnUse"
       gradientTransform="matrix(1.363528,-0.584396,0.523349,1.22109,-11.1467,6.39046)"
       cx="15.671417"
       cy="10.832206"
       fx="15.671417"
       fy="10.832206"
       r="2.2162576" />
  </defs>
  <sodipodi:namedview
     stroke="#babdb6"
     fill="#2e3436"
     showgrid="false"
     inkscape:showpageshadow="false"
     inkscape:current-layer="svg2"
     inkscape:document-units="px"
     inkscape:cy="24"
     inkscape:cx="24"
     inkscape:zoom="8.6875"
     inkscape:pageshadow="2"
     inkscape:pageopacity="0"
     borderopacity="1.0"
     bordercolor="#666666"
     pagecolor="#ffffff"
     id="base"
     inkscape:window-width="1106"
     inkscape:window-height="682"
     inkscape:window-x="85"
     inkscape:window-y="43"
     inkscape:window-maximized="1" />
  <g
     style="display:inline"
     id="layer1"
     transform="matrix(1.0383919,0,0,1.0383919,-0.92140478,-1.7660734)">
    <g
       transform="matrix(-1,0,0,1.333335,43.99999,-11.33342)"
       style="opacity:0.75"
       id="g2527">
      <g
         style="opacity:0.45"
         id="g2332">
        <path
           d="m 27.305019,39.536678 c 0.0021,1.706275 -5.516286,3.089767 -12.324324,3.089767 -6.808039,0 -12.3264492,-1.383492 -12.3243248,-3.089767 -0.00212,-1.706275 5.5162858,-3.089767 12.3243248,-3.089767 6.808038,0 12.326448,1.383492 12.324324,3.089767 z"
           transform="matrix(1.217105,0,0,0.97125,9.76692,1.600001)"
           style="opacity:0.65;fill:url(#radialGradient2316);fill-opacity:1;fill-rule:nonzero;stroke:none"
           id="path2308" />
        <path
           d="m 27.305019,39.536678 c 0.0021,1.706275 -5.516286,3.089767 -12.324324,3.089767 -6.808039,0 -12.3264492,-1.383492 -12.3243248,-3.089767 -0.00212,-1.706275 5.5162858,-3.089767 12.3243248,-3.089767 6.808038,0 12.326448,1.383492 12.324324,3.089767 z"
           transform="matrix(0.608553,0,0,0.728442,22.38345,11.19983)"
           style="opacity:0.45;fill:url(#radialGradient2330);fill-opacity:1;fill-rule:nonzero;stroke:none"
           id="path2328" />
      </g>
      <path
         d="m 24.339768,37.528957 c 8.06e-4,1.791367 -4.77045,3.243688 -10.656371,3.243688 -5.8859212,0 -10.6571772,-1.452321 -10.6563708,-3.243688 -8.064e-4,-1.791367 4.7704496,-3.243688 10.6563708,-3.243688 5.885921,0 10.657177,1.452321 10.656371,3.243688 l 0,0 z"
         transform="matrix(1.50145,0,0,1.040625,-7.544937,-1.678562)"
         style="opacity:0.15;fill:url(#radialGradient2326);fill-opacity:1;fill-rule:nonzero;stroke:none"
         id="path2318" />
    </g>
  </g>
  <g
     id="g2287"
     style="fill:url(#linearGradient3593);fill-opacity:1;stroke:url(#linearGradient3595)"
     transform="matrix(-0.35515806,0.61136879,0.57845281,0.34232665,26.818165,-5.6443923)">
    <path
       id="path2289"
       style="fill:#c2c8bd;fill-opacity:1;fill-rule:evenodd;stroke:url(#linearGradient3597);stroke-width:1.50629878px;stroke-linecap:butt;stroke-linejoin:miter;stroke-opacity:1"
       d="m 39.036764,12.872729 c 1.680836,3.29208 2.145599,3.99707 1.728309,7.182665 -0.259555,1.981447 -3.933672,-3.040321 -3.933672,-3.040321 l 2.205363,-4.142344 z" />
    <path
       id="path2291"
       style="fill:url(#linearGradient3599);fill-opacity:1;fill-rule:evenodd;stroke:url(#linearGradient3601);stroke-width:1.50629914px;stroke-linecap:butt;stroke-linejoin:miter;stroke-opacity:1"
       d="m 11.739304,13.187929 c -0.605206,1.095988 -0.990819,1.517729 -1.155435,4.713002 -0.113478,2.202664 4.252826,-2.451526 4.252826,-2.451526 l -3.097391,-2.261476 z" />
    <path
       id="rect2293"
       style="fill:url(#linearGradient3603);fill-opacity:1;fill-rule:nonzero;stroke:url(#linearGradient3605);stroke-width:1.50629842;stroke-linecap:square;stroke-linejoin:miter;stroke-miterlimit:4;stroke-opacity:1;stroke-dashoffset:0"
       d="m 14.019605,15.499986 23.069764,1.908878 c 1.950521,0 3.520796,1.570274 3.520796,3.520795 l -3.109022,18.050756 c 0,1.950521 -1.570275,3.520795 -3.520796,3.520795 L 15.842535,39.245598 c -1.950521,0 -3.520795,-1.570274 -3.520795,-3.520795 L 10.49881,19.020781 c 0,-1.950521 1.570274,-3.520795 3.520795,-3.520795 z" />
    <path
       id="path2295"
       style="fill:url(#linearGradient3607);fill-opacity:1;fill-rule:evenodd;stroke:url(#linearGradient3609);stroke-width:1.50629854;stroke-linecap:butt;stroke-linejoin:miter;stroke-miterlimit:4;stroke-opacity:1;stroke-dasharray:none"
       d="m 17.73482,6.5986981 c -1.624124,1.1983531 -4.250631,4.0071219 -5.168475,5.2080409 -1.392177,1.821542 0.957746,3.674184 2.063582,3.674184 1.841579,0 21.231002,1.959205 23.072583,1.959205 1.659371,0 2.816247,-1.753919 2.114563,-3.103357 C 39.132358,13.019966 37.613214,9.0539209 36.95853,7.9353125 36.244909,6.7160032 34.810176,6.5576712 33.130416,6.4762646 28.61452,6.2574097 24.778723,5.8586159 21.448369,5.8271381 19.626597,5.8099191 18.54836,5.9984313 17.73482,6.5986981 z" />
  </g>
  <path
     id="path2451"
     style="opacity:0.85;fill:none;stroke:url(#linearGradient3013);stroke-width:1.03839362;stroke-linecap:square;stroke-linejoin:miter;stroke-miterlimit:4;stroke-opacity:1;stroke-dashoffset:0"
     d="M 31.535348,9.1438344 24.825226,23.068452 c -0.605552,1.073345 -0.61979,1.908103 0.366484,2.509105 l 10.798143,4.043469 c 0.986274,0.601001 1.947043,0.477332 2.552595,-0.596012 l 4.177256,-11.369005 c 0.605552,-1.073343 0.748084,-2.164692 -0.23819,-2.765695 L 33.83135,8.2270849 C 32.845076,7.6260814 32.140901,8.0704892 31.535348,9.1438344 z" />
  <path
     id="path2453"
     style="opacity:0.75;fill:none;stroke:url(#linearGradient3010);stroke-width:1.03839362;stroke-linecap:butt;stroke-linejoin:miter;stroke-miterlimit:4;stroke-opacity:1;stroke-dasharray:none"
     d="M 24.674101,8.3429757 C 25.67932,7.8420876 28.08853,7.2241552 28.896382,7.09519 30.121724,6.8995736 29.603744,8.2306269 29.292883,8.8117702 28.775198,9.7795587 23.4519,21.187112 22.934217,22.154902 c -0.466468,0.872036 -1.081521,1.348781 -1.502107,0.582948 -0.410419,-0.747312 -1.735068,-2.391956 -2.063185,-3.065166 -0.357653,-0.733815 -0.09097,-1.470242 0.34395,-2.376946 1.169257,-2.437602 3.091311,-6.046145 4.013091,-7.8055781 0.504233,-0.9624481 0.44461,-0.8962848 0.948135,-1.1471842 z" />
  <path
     id="path2665"
     style="opacity:0.98000004;fill:#2e3436;fill-opacity:1;fill-rule:nonzero;stroke:none"
     d="m 34.95229,24.630487 c -0.440357,1.117834 -0.07494,2.329314 0.816054,2.705502 0.890997,0.376188 1.96996,-0.225461 2.409562,-1.343614 0.440358,-1.117834 0.07494,-2.329315 -0.816054,-2.705503 -0.890997,-0.376188 -1.969959,0.225461 -2.409562,1.343615 z" />
  <path
     id="path2667"
     style="opacity:0.95;fill:#2e3436;fill-opacity:1;fill-rule:nonzero;stroke:none"
     d="m 38.088397,16.63886 c -0.495384,1.089985 -0.191549,2.32433 0.678534,2.756565 0.870084,0.432234 1.976722,-0.10142 2.471368,-1.191775 0.495385,-1.089986 0.191548,-2.324331 -0.678534,-2.756566 -0.870083,-0.432235 -1.976721,0.10142 -2.471368,1.191776 z" />
  <path
     id="path2669"
     style="opacity:0.98000004;fill:#2e3436;fill-opacity:1;fill-rule:nonzero;stroke:none"
     d="m 27.658615,21.494855 c -0.440357,1.117834 -0.07494,2.329314 0.816055,2.705502 0.890996,0.376188 1.969959,-0.225461 2.409561,-1.343614 0.440358,-1.117834 0.07494,-2.329314 -0.816054,-2.705503 -0.890997,-0.376188 -1.969959,0.225461 -2.409562,1.343615 z" />
  <path
     id="path2671"
     style="opacity:0.95;fill:#2e3436;fill-opacity:1;fill-rule:nonzero;stroke:none"
     d="m 31.836884,12.98101 c -0.495385,1.089986 -0.191549,2.32433 0.678534,2.756565 0.870083,0.432235 1.976721,-0.10142 2.471367,-1.191775 0.495385,-1.089985 0.191548,-2.324331 -0.678534,-2.756566 -0.870083,-0.432235 -1.976721,0.10142 -2.471367,1.191776 z" />
  <path
     id="path2673"
     style="opacity:0.975;fill:#2e3436;fill-opacity:1;fill-rule:nonzero;stroke:none"
     d="m 33.031855,19.129612 c -0.414337,1.123298 -0.02104,2.332116 0.87833,2.699556 0.899367,0.36744 1.964009,-0.245727 2.377583,-1.369338 0.414337,-1.123298 0.02104,-2.332116 -0.878331,-2.699556 -0.899366,-0.36744 -1.964008,0.245727 -2.377582,1.369338 z" />
  <path
     id="path4512"
     style="opacity:0.45;fill:url(#radialGradient3002);fill-opacity:1;fill-rule:nonzero;stroke:none"
     d="m 33.994522,12.738963 c -0.730659,0.111471 -1.533288,0.749629 -2.011884,1.654937 -0.08575,0.162201 -0.17044,0.32515 -0.227149,0.486746 -0.0026,0.0075 0.0026,0.02494 0,0.03245 0.153187,0.35716 0.406746,0.642539 0.746345,0.811244 0.869373,0.431882 2.004018,-0.07891 2.49863,-1.168191 0.177751,-0.39146 0.244879,-0.815652 0.227148,-1.200641 -0.0016,-0.03348 0.0029,-0.06429 0,-0.09735 -0.0076,-0.01184 -0.02455,-0.02093 -0.03245,-0.03245 -0.126506,-0.18425 -0.305746,-0.304553 -0.519196,-0.389397 -0.213451,-0.08485 -0.437892,-0.134506 -0.681445,-0.09735 z" />
  <g
     transform="matrix(-0.70880214,0.18082764,0.17651104,0.66221573,29.680762,6.9496864)"
     style="fill:url(#linearGradient3808);fill-opacity:1;stroke:url(#linearGradient3810)"
     id="g2298">
    <path
       d="m 39.036764,12.872729 c 1.680836,3.29208 2.145599,3.99707 1.728309,7.182665 -0.259555,1.981447 -3.933672,-3.040321 -3.933672,-3.040321 l 2.205363,-4.142344 z"
       style="fill:url(#linearGradient3792);fill-opacity:1;fill-rule:evenodd;stroke:url(#linearGradient3794);stroke-width:1.46660876px;stroke-linecap:butt;stroke-linejoin:miter;stroke-opacity:1"
       id="path2300" />
    <path
       d="m 11.739304,13.187929 c -0.605206,1.095988 -1.648374,2.326995 -1.354799,4.947359 0.245453,2.190841 4.45219,-2.685883 4.45219,-2.685883 l -3.097391,-2.261476 z"
       style="fill:url(#linearGradient3796);fill-opacity:1;fill-rule:evenodd;stroke:url(#linearGradient3798);stroke-width:1.46660924px;stroke-linecap:butt;stroke-linejoin:miter;stroke-opacity:1"
       id="path2302" />
    <path
       d="m 14.019605,15.499986 23.069764,1.908878 c 1.950521,0 3.520796,1.570274 3.520796,3.520795 l -3.109022,18.050756 c 0,1.950521 -1.570275,3.520795 -3.520796,3.520795 L 15.842535,39.245598 c -1.950521,0 -3.520795,-1.570274 -3.520795,-3.520795 L 10.49881,19.020781 c 0,-1.950521 1.570274,-3.520795 3.520795,-3.520795 z"
       style="fill:url(#linearGradient3800);fill-opacity:1;fill-rule:nonzero;stroke:url(#linearGradient3802);stroke-width:1.46660841;stroke-linecap:square;stroke-linejoin:miter;stroke-miterlimit:4;stroke-opacity:1;stroke-dashoffset:0"
       id="path2304" />
    <path
       d="m 17.73482,6.5986981 c -1.26559,1.30759 -5.283659,5.0002289 -6.063971,6.4325519 -1.038124,1.905556 0.670889,2.5 1.776725,2.5 1.841579,0 22.413355,1.908878 24.254936,1.908878 1.659371,0 2.816247,-1.753919 2.114563,-3.103357 C 39.132358,13.019966 37.613214,9.0539209 36.95853,7.9353125 36.244909,6.7160032 34.810176,6.5576712 33.130416,6.4762646 28.61452,6.2574097 24.778723,5.8586159 21.448369,5.8271381 19.626597,5.8099191 18.44394,5.8660461 17.73482,6.5986981 z"
       style="fill:url(#linearGradient3804);fill-opacity:1;fill-rule:evenodd;stroke:url(#linearGradient3806);stroke-width:1.46660841;stroke-linecap:butt;stroke-linejoin:miter;stroke-miterlimit:4;stroke-opacity:1;stroke-dasharray:none"
       id="path2306" />
  </g>
  <path
     d="M 22.500173,20.700552 7.1817015,25.98969 C 5.9368222,26.299585 5.2483491,27.27027 5.750801,28.084416 l 4.724897,10.393519 c 0.566597,1.327327 1.369332,2.055634 2.614211,1.745738 l 11.44353,-5.032543 c 1.244877,-0.309897 1.9975,-1.473022 1.68749,-2.607907 L 24.601202,21.933108 c -0.31001,-1.134883 -0.856151,-1.542452 -2.101029,-1.232556 z"
     style="opacity:0.5;fill:none;stroke:#ffffff;stroke-width:1.03839397;stroke-linecap:square;stroke-linejoin:miter;stroke-miterlimit:4;stroke-opacity:1;stroke-dashoffset:0"
     id="path2387" />
  <path
     d="m 17.912947,15.389238 c 0.988315,0.495458 3.165422,1.744678 3.991543,2.203545 1.388557,0.771269 0.611465,1.125331 -0.781003,1.473295 C 19.9857,19.350399 7.4334891,23.971105 6.2896703,24.230097 5.2590227,24.463464 4.7823771,23.915287 5.0094766,23.121606 5.2310848,22.347118 5.5611972,20.090844 5.794808,19.422657 6.04945,18.694317 6.9288757,18.454674 7.9468031,18.132835 10.717808,17.256725 13.295159,16.31944 15.807833,15.51412 c 1.104229,-0.353907 1.551353,-0.402492 2.105114,-0.124882 z"
     style="opacity:0.75;fill:none;stroke:#ffffff;stroke-width:1.03839433;stroke-linecap:butt;stroke-linejoin:miter;stroke-miterlimit:4;stroke-opacity:1;stroke-dasharray:none"
     id="path2389" />
  <g
     id="g2724"
     transform="matrix(1.0383919,0,0,1.0383919,-1.9597967,9.6562372)">
    <g
       transform="translate(-0.551167,-23.53899)"
       style="opacity:0.95"
       id="g2590">
      <path
         d="m 18.779923,21.436293 c 0,1.535309 -1.244614,2.779923 -2.779923,2.779923 -1.535309,0 -2.779923,-1.244614 -2.779923,-2.779923 0,-1.535309 1.244614,-2.779923 2.779923,-2.779923 1.535309,0 2.779923,1.244614 2.779923,2.779923 z"
         transform="matrix(0.871257,-0.279355,0.222123,0.662856,3.349561,28.79949)"
         style="fill:#2e3436;fill-opacity:1;fill-rule:nonzero;stroke:none"
         id="path2557" />
      <path
         d="m 22.9375,37.550463 c -0.294349,0.01437 -0.574684,0.09309 -0.875,0.1875 -1.178162,0.370369 -1.990983,1.25943 -2.0625,2.1875 0.576125,0.596533 1.611751,0.803654 2.65625,0.46875 1.284734,-0.41193 2.085916,-1.51216 1.84375,-2.5 -0.437894,-0.230268 -0.996444,-0.371377 -1.5625,-0.34375 z"
         style="opacity:0.35;fill:url(#radialGradient3812);fill-opacity:1;fill-rule:nonzero;stroke:none"
         id="path2539" />
    </g>
    <g
       transform="translate(-3.551167,-18.53899)"
       style="opacity:0.98000004"
       id="g2596">
      <path
         d="m 18.779923,21.436293 c 0,1.535309 -1.244614,2.779923 -2.779923,2.779923 -1.535309,0 -2.779923,-1.244614 -2.779923,-2.779923 0,-1.535309 1.244614,-2.779923 2.779923,-2.779923 1.535309,0 2.779923,1.244614 2.779923,2.779923 z"
         transform="matrix(0.871257,-0.279355,0.222123,0.662856,3.349561,28.79949)"
         style="fill:#2e3436;fill-opacity:1;fill-rule:nonzero;stroke:none"
         id="path2598" />
      <path
         d="m 22.9375,37.550463 c -0.294349,0.01437 -0.574684,0.09309 -0.875,0.1875 -1.178162,0.370369 -1.990983,1.25943 -2.0625,2.1875 0.576125,0.596533 1.611751,0.803654 2.65625,0.46875 1.284734,-0.41193 2.085916,-1.51216 1.84375,-2.5 -0.437894,-0.230268 -0.996444,-0.371377 -1.5625,-0.34375 z"
         style="opacity:0.25;fill:url(#radialGradient3814);fill-opacity:1;fill-rule:nonzero;stroke:none"
         id="path2600" />
    </g>
    <g
       transform="translate(-6.551167,-13.53899)"
       id="g2602">
      <path
         d="m 18.779923,21.436293 c 0,1.535309 -1.244614,2.779923 -2.779923,2.779923 -1.535309,0 -2.779923,-1.244614 -2.779923,-2.779923 0,-1.535309 1.244614,-2.779923 2.779923,-2.779923 1.535309,0 2.779923,1.244614 2.779923,2.779923 z"
         transform="matrix(0.871257,-0.279355,0.222123,0.662856,3.349561,28.79949)"
         style="fill:#2e3436;fill-opacity:1;fill-rule:nonzero;stroke:none"
         id="path2604" />
      <path
         d="m 22.9375,37.550463 c -0.294349,0.01437 -0.574684,0.09309 -0.875,0.1875 -1.178162,0.370369 -1.990983,1.25943 -2.0625,2.1875 0.576125,0.596533 1.611751,0.803654 2.65625,0.46875 1.284734,-0.41193 2.085916,-1.51216 1.84375,-2.5 -0.437894,-0.230268 -0.996444,-0.371377 -1.5625,-0.34375 z"
         style="opacity:0.2;fill:url(#radialGradient3816);fill-opacity:1;fill-rule:nonzero;stroke:none"
         id="path2606" />
    </g>
  </g>
  <g
     id="g2720"
     transform="matrix(1.0383919,0,0,1.0383919,-1.9597967,9.6562372)">
    <path
       d="m 35.027027,6.7027025 c 3.86e-4,0.9725591 -1.092222,1.7611217 -2.440155,1.7611217 -1.347932,0 -2.44054,-0.7885626 -2.440154,-1.7611217 -3.86e-4,-0.9725591 1.092222,-1.7611217 2.440154,-1.7611217 1.347933,0 2.440541,0.7885626 2.440155,1.7611217 z"
       transform="matrix(1.102506,-0.361366,0.395346,0.693486,-24.35654,16.08183)"
       style="opacity:0.9;fill:#2e3436;fill-opacity:1;fill-rule:nonzero;stroke:none"
       id="path2620" />
    <path
       d="m 15.03125,7.4375 c -0.385149,0.017277 -0.801236,0.1041784 -1.21875,0.21875 -0.005,0.00374 -0.02624,-0.00377 -0.03125,0 C 13.050059,8.2062939 12.5625,9.055562 12.5625,10 c 0,0.142313 0.0107,0.269201 0.03125,0.40625 0.648283,0.109615 1.477166,0.05504 2.3125,-0.21875 1.485037,-0.4867475 2.384221,-1.4510282 2,-2.125 C 16.88224,8.020377 16.84508,7.975517 16.8125,7.9375 16.492149,7.5954269 15.822944,7.401986 15.03125,7.4375 z"
       style="opacity:0.65;fill:url(#radialGradient3818);fill-opacity:1;fill-rule:nonzero;stroke:none"
       id="path2654" />
  </g>
  <path
     id="path4553"
     style="opacity:0.3;fill:url(#radialGradient2978);fill-opacity:1;fill-rule:nonzero;stroke:none"
     d="m 40.289562,16.523681 c -0.649748,0.111472 -1.363495,0.749629 -1.789092,1.654937 -0.07625,0.162201 -0.151565,0.32515 -0.201994,0.486747 -0.0024,0.0075 0.0023,0.02494 0,0.03245 0.136223,0.35716 0.361703,0.642539 0.663695,0.811244 0.773101,0.431883 1.782097,-0.07891 2.221936,-1.168191 0.158067,-0.39146 0.217762,-0.815652 0.201995,-1.200641 -0.0014,-0.03348 0.0026,-0.06429 0,-0.09735 -0.0068,-0.01184 -0.02183,-0.02093 -0.02886,-0.03245 -0.112497,-0.18425 -0.271888,-0.304553 -0.461702,-0.389396 -0.189813,-0.08485 -0.3894,-0.134507 -0.605982,-0.09735 z" />
  <path
     id="path4557"
     style="opacity:0.25;fill:url(#radialGradient2975);fill-opacity:1;fill-rule:nonzero;stroke:none"
     d="m 35.277477,18.833 c -0.730659,0.111472 -1.533289,0.749629 -2.011884,1.654937 -0.08575,0.162201 -0.17044,0.32515 -0.227149,0.486747 -0.0026,0.0075 0.0026,0.02494 0,0.03245 0.153187,0.35716 0.406746,0.64254 0.746345,0.811244 0.869373,0.431883 2.004018,-0.07891 2.49863,-1.168191 0.177751,-0.39146 0.244879,-0.815651 0.227148,-1.20064 -0.0016,-0.03348 0.0029,-0.06429 0,-0.09735 -0.0076,-0.01184 -0.02455,-0.02093 -0.03245,-0.03245 C 36.351612,19.135496 36.172372,19.015194 35.958922,18.93035 35.745471,18.845503 35.52103,18.795844 35.277477,18.833 z" />
  <path
     id="path4561"
     style="opacity:0.2;fill:url(#radialGradient2972);fill-opacity:1;fill-rule:nonzero;stroke:none"
     d="m 37.073614,24.349707 c -0.730659,0.111472 -1.533288,0.749629 -2.011884,1.654938 -0.08575,0.1622 -0.170439,0.325149 -0.227148,0.486746 -0.0026,0.0075 0.0026,0.02494 0,0.03245 0.153187,0.357161 0.406745,0.64254 0.746344,0.811244 0.869374,0.431883 2.004019,-0.07891 2.498631,-1.168191 0.17775,-0.39146 0.244878,-0.815651 0.227148,-1.20064 -0.0016,-0.03348 0.0029,-0.06429 0,-0.09735 -0.0076,-0.01184 -0.02455,-0.02093 -0.03245,-0.03245 -0.126505,-0.184251 -0.305745,-0.304553 -0.519196,-0.389397 -0.213451,-0.08485 -0.437892,-0.134506 -0.681445,-0.09735 z" />
  <path
     id="path4565"
     style="opacity:0.25;fill:url(#radialGradient2969);fill-opacity:1;fill-rule:nonzero;stroke:none"
     d="m 29.889065,21.270615 c -0.730659,0.111471 -1.533288,0.749629 -2.011884,1.654937 -0.08575,0.162201 -0.17044,0.32515 -0.227148,0.486746 -0.0026,0.0075 0.0026,0.02494 0,0.03245 0.153186,0.35716 0.406745,0.642539 0.746344,0.811244 0.869374,0.431882 2.004018,-0.07891 2.49863,-1.168191 0.177751,-0.391461 0.244879,-0.815652 0.227149,-1.200641 -0.0016,-0.03348 0.0029,-0.06429 0,-0.09735 -0.0076,-0.01184 -0.02455,-0.02093 -0.03245,-0.03245 -0.126505,-0.18425 -0.305745,-0.304553 -0.519196,-0.389397 -0.213451,-0.08485 -0.437892,-0.134506 -0.681445,-0.09735 z" />
  <g
     id="g4593"
     style="opacity:0.95"
     transform="matrix(-1.0383919,0,0,1.0383919,63.159274,-9.1088944)">
    <path
       id="path4595"
       style="opacity:0.98000004;fill:#2e3436;fill-opacity:1;fill-rule:nonzero;stroke:none"
       transform="matrix(0.499526,1.010274,-0.869911,0.530123,36.14344,-3.054286)"
       d="m 18.903475,9.0501928 c 5.78e-4,0.5973067 -0.815505,1.0817012 -1.822394,1.0817012 -1.006888,0 -1.822971,-0.4843945 -1.822393,-1.0817012 -5.78e-4,-0.5973067 0.815505,-1.0817013 1.822393,-1.0817013 1.006889,0 1.822972,0.4843946 1.822394,1.0817013 z" />
  </g>
  <path
     id="path4617"
     style="opacity:0.65;fill:url(#radialGradient2964);fill-opacity:1;fill-rule:nonzero;stroke:none"
     d="m 25.251351,9.4466492 c -0.561907,0.1589809 -1.169677,0.8676408 -1.522431,1.8336268 -0.06321,0.173073 -0.125573,0.346856 -0.166372,0.51757 -0.0019,0.0079 0.0025,0.02567 5.98e-4,0.0336 0.124804,0.360713 0.32576,0.641111 0.59098,0.795567 0.678966,0.395401 1.545342,-0.201163 1.907075,-1.35861 0.129996,-0.415957 0.174008,-0.859212 0.153242,-1.256815 -0.0018,-0.034578 0.001,-0.066737 -0.0018,-0.1008066 -0.006,-0.011807 -0.01932,-0.020217 -0.02564,-0.031671 -0.101025,-0.1832533 -0.241587,-0.2971431 -0.407901,-0.372277 -0.16631,-0.075138 -0.340457,-0.1131826 -0.527758,-0.060185 z" />
</svg>
