<?xml version="1.0" encoding="UTF-8" standalone="no"?>
<!DOCTYPE svg PUBLIC "-//W3C//DTD SVG 20010904//EN"
"http://www.w3.org/TR/2001/REC-SVG-20010904/DTD/svg10.dtd">
<!-- Created with Sodipodi ("http://www.sodipodi.com/") -->
<svg
   id="svg602"
   sodipodi:version="0.32"
   width="48pt"
   height="48pt"
   xml:space="preserve"
   sodipodi:docbase="/home/krosstok/Desktop/Suede/scalable/mimetypes"
   sodipodi:docname="gnome-mime-video-mpeg.svg"
   inkscape:version="0.38.1"
   xmlns="http://www.w3.org/2000/svg"
   xmlns:inkscape="http://www.inkscape.org/namespaces/inkscape"
   xmlns:sodipodi="http://sodipodi.sourceforge.net/DTD/sodipodi-0.dtd"
   xmlns:xml="http://www.w3.org/XML/1998/namespace"
   xmlns:xlink="http://www.w3.org/1999/xlink"><defs
   id="defs604"><linearGradient
   id="linearGradient3392">
  <stop
   offset="0.0000000"
   style="stop-color:#ffffff;stop-opacity:0.0000000;"
   id="stop3394" />

  <stop
   offset="1.0000000"
   style="stop-color:#898989;stop-opacity:0.45528457;"
   id="stop3393" />

</linearGradient>

<linearGradient
   id="linearGradient945">
      <stop
   style="stop-color:#ffffff;stop-opacity:1.0000000;"
   offset="0.0000000"
   id="stop947" />










      <stop
   style="stop-color:#ffffff;stop-opacity:0.0000000;"
   offset="1.0000000"
   id="stop949" />










    </linearGradient>










    <linearGradient
   id="linearGradient622">
      <stop
   style="stop-color:#f7be6a;stop-opacity:1.0000000;"
   offset="0.0000000"
   id="stop623" />










      <stop
   style="stop-color:#ffffff;stop-opacity:1.0000000;"
   offset="1.0000000"
   id="stop624" />










    </linearGradient>










    <linearGradient
   id="linearGradient617">
      <stop
   style="stop-color:#ffffff;stop-opacity:1;"
   offset="0"
   id="stop618" />










      <stop
   style="stop-color:#000000;stop-opacity:1;"
   offset="1"
   id="stop619" />










    </linearGradient>










    <linearGradient
   id="linearGradient613">
      <stop
   style="stop-color:#ffffff;stop-opacity:0.6235;"
   offset="0"
   id="stop614" />










      <stop
   style="stop-color:#5d6567;stop-opacity:1;"
   offset="1"
   id="stop615" />










    </linearGradient>










    <linearGradient
   id="linearGradient607">
      <stop
   style="stop-color:#d7d5d5;stop-opacity:1;"
   offset="0"
   id="stop608" />










      <stop
   style="stop-color:#000000;stop-opacity:0.4039;"
   offset="1"
   id="stop609" />










    </linearGradient>










    <radialGradient
   xlink:href="#linearGradient945"
   id="radialGradient610"
   cx="0.44849497"
   cy="-0.015890438"
   r="0.43766391"
   fx="0.46780509"
   fy="-0.015341539"
   gradientUnits="objectBoundingBox"
   gradientTransform="scale(1.024933,0.975673)" />










    








    








    <linearGradient
   xlink:href="#linearGradient3392"
   id="linearGradient621"
   y2="0.99418867"
   x2="0.69283748"
   y1="0.27756536"
   x1="0.27063963"
   gradientTransform="scale(0.721670,1.385675)" />










    <linearGradient
   xlink:href="#linearGradient622"
   id="linearGradient626"
   x1="0.55505979"
   y1="0.78260821"
   x2="0.37207326"
   y2="0.45484874"
   gradientUnits="objectBoundingBox"
   gradientTransform="scale(0.862875,1.158917)" />










    <linearGradient
   xlink:href="#linearGradient622"
   id="linearGradient687"
   x1="0.24416389"
   y1="0.88344800"
   x2="0.54326469"
   y2="0.41411623"
   gradientTransform="scale(0.890350,1.123154)"
   gradientUnits="objectBoundingBox" />










    <linearGradient
   xlink:href="#linearGradient622"
   id="linearGradient742"
   x1="0.53080297"
   y1="0.56502867"
   x2="0.81017262"
   y2="0.19580182"
   gradientUnits="objectBoundingBox"
   gradientTransform="scale(0.721670,1.385675)" />










  <linearGradient
   xlink:href="#linearGradient945"
   id="linearGradient944"
   x1="16.872660"
   y1="26.928745"
   x2="18.315645"
   y2="41.290451"
   gradientTransform="scale(1.455999,0.686814)"
   gradientUnits="userSpaceOnUse" />









<linearGradient
   xlink:href="#linearGradient945"
   id="linearGradient910"
   x1="21.120501"
   y1="73.160721"
   x2="17.971455"
   y2="58.009987"
   gradientTransform="scale(1.455999,0.686814)"
   gradientUnits="userSpaceOnUse" />




<defs
   id="defs3052"><linearGradient
   id="linearGradient912">
      <stop
   style="stop-color:#ffffff;stop-opacity:1.0000000;"
   offset="0.0000000"
   id="stop914" />






















      <stop
   style="stop-color:#a0a2a0;stop-opacity:1.0000000;"
   offset="1.0000000"
   id="stop916" />






















    </linearGradient>











<linearGradient
   id="linearGradient960">
      <stop
   style="stop-color:#7590ae;stop-opacity:1.0000000;"
   offset="0.0000000"
   id="stop962" />






















      <stop
   style="stop-color:#314e6c;stop-opacity:1.0000000;"
   offset="1.0000000"
   id="stop964" />






















    </linearGradient>




































    




















    




















    




















    




















    




















    




















    




















    




















    




















    




















    




















  





<defs
   id="defs1100">












































    




















    




















    




















    




















    




















    




















    




















    




















    




















    




















    




















  





</defs>



<sodipodi:namedview
   id="namedview1174"
   inkscape:zoom="2.6884790"
   inkscape:cx="22.431804"
   inkscape:cy="-13.996389"
   inkscape:window-width="640"
   inkscape:window-height="501"
   inkscape:window-x="-41"
   inkscape:window-y="209"
   showguides="false"
   snaptoguides="false">
    <sodipodi:guide
   orientation="horizontal"
   position="43.519031"
   id="guide1176" />







  </sodipodi:namedview>



</defs>

<sodipodi:namedview
   id="namedview3207"
   inkscape:zoom="5.3769580"
   inkscape:cx="22.431807"
   inkscape:cy="28.554352"
   inkscape:window-width="640"
   inkscape:window-height="501"
   inkscape:window-x="33"
   inkscape:window-y="150"
   showguides="false"
   snaptoguides="false">
    <sodipodi:guide
   orientation="horizontal"
   position="43.519031"
   id="guide1036" />







  </sodipodi:namedview>

</defs>

<rect
   style="fill:#000006;fill-opacity:0.68292683;fill-rule:evenodd;stroke-width:0.99266949pt;"
   id="rect933"
   width="48.605209"
   height="55.096209"
   ry="1.9003337"
   x="7.8949676"
   y="4.6713177" />

<rect
   style="fill:#ffffff;fill-rule:evenodd;stroke:#000000;stroke-width:0.48750001;"
   id="rect932"
   width="45.815529"
   height="52.771473"
   ry="1.8201507"
   x="8.5923881"
   y="5.3687382" />

<path
   style="fill:none;"
   d="M 30.952280,21.594642 C 28.452280,23.794642 39.352280,43.494642 41.952280,38.494642 C 44.852280,32.794642 15.852280,44.794642 22.152280,46.494642 C 29.452280,48.394642 35.652280,17.494642 30.952280,21.694642 L 30.952280,21.594642 z "
   id="path898" />

<sodipodi:namedview
   id="base"
   inkscape:zoom="5.3474950"
   inkscape:cx="21.990177"
   inkscape:cy="24.225062"
   inkscape:window-width="640"
   inkscape:window-height="501"
   inkscape:window-x="296"
   inkscape:window-y="34" />

<path
   style="fill:#000000;fill-opacity:0.24800000;fill-rule:evenodd;stroke:none;stroke-width:0.38340478pt;"
   d="M 46.797949,19.699784 L 46.797949,50.554805 L 19.863957,50.554805 L 20.884913,19.618261 L 46.797949,19.699784 z M 44.999741,26.335419 L 43.651082,26.335419 C 43.411930,26.335419 43.217586,26.484770 43.217586,26.685100 L 43.217586,27.599649 C 43.217586,27.799981 43.411930,27.962778 43.651082,27.962778 L 44.999741,27.962778 C 45.238892,27.962778 45.433237,27.799981 45.433237,27.599649 L 45.433237,26.685100 C 45.433237,26.484770 45.238892,26.335419 44.999741,26.335419 z M 24.930433,26.496811 L 23.581776,26.496811 C 23.342625,26.496811 23.148280,26.659611 23.148280,26.859942 L 23.148280,27.761040 C 23.148280,27.961372 23.342625,28.124171 23.581776,28.124171 L 24.930433,28.124171 C 25.169586,28.124171 25.363931,27.961372 25.363931,27.761040 L 25.363931,26.859942 C 25.363931,26.659611 25.169586,26.496811 24.930433,26.496811 z M 44.999741,29.939820 L 43.651082,29.939820 C 43.411930,29.939820 43.217586,30.102617 43.217586,30.302949 L 43.217586,31.204048 C 43.217586,31.404379 43.411930,31.567178 43.651082,31.567178 L 44.999741,31.567178 C 45.238891,31.567178 45.433237,31.404379 45.433237,31.204048 L 45.433237,30.302949 C 45.433237,30.102616 45.238892,29.939820 44.999741,29.939820 z M 24.930433,30.114659 L 23.581776,30.114659 C 23.342625,30.114659 23.148280,30.277458 23.148280,30.477789 L 23.148280,31.378890 C 23.148280,31.579221 23.342625,31.742017 23.581776,31.742017 L 24.930433,31.742017 C 25.169586,31.742017 25.363931,31.579220 25.363931,31.378890 L 25.363931,30.477789 C 25.363931,30.277457 25.169586,30.114659 24.930433,30.114659 z M 44.935517,33.772855 L 43.570805,33.772855 C 43.331653,33.772855 43.137308,33.935655 43.137308,34.135984 L 43.137308,35.037084 C 43.137308,35.237417 43.331653,35.400215 43.570805,35.400215 L 44.935517,35.400215 C 45.174668,35.400215 45.352960,35.237417 45.352960,35.037084 L 45.352960,34.135984 C 45.352960,33.935654 45.174668,33.772855 44.935517,33.772855 z M 24.930433,33.988043 L 23.581776,33.988043 C 23.342625,33.988043 23.148280,34.150842 23.148280,34.351174 L 23.148280,35.252272 C 23.148280,35.452603 23.342625,35.615402 23.581776,35.615402 L 24.930433,35.615402 C 25.169586,35.615402 25.363931,35.452603 25.363931,35.252272 L 25.363931,34.351174 C 25.363931,34.150841 25.169586,33.988043 24.930433,33.988043 z M 44.935517,37.390704 L 43.570805,37.390704 C 43.331653,37.390704 43.137308,37.540051 43.137308,37.740384 L 43.137308,38.654932 C 43.137308,38.855264 43.331653,39.018063 43.570805,39.018062 L 44.935517,39.018062 C 45.174668,39.018062 45.352960,38.855264 45.352960,38.654932 L 45.352960,37.740384 C 45.352960,37.540052 45.174668,37.390704 44.935517,37.390704 z M 24.930433,37.632789 L 23.581776,37.632789 C 23.342625,37.632789 23.148280,37.795588 23.148280,37.995920 L 23.148280,38.897018 C 23.148280,39.097350 23.342625,39.260149 23.581776,39.260148 L 24.930433,39.260148 C 25.169586,39.260148 25.363931,39.097349 25.363931,38.897018 L 25.363931,37.995920 C 25.363931,37.795588 25.169586,37.632789 24.930433,37.632789 z M 44.935517,41.102697 L 43.570805,41.102697 C 43.331653,41.102697 43.137308,41.265495 43.137308,41.465825 L 43.137308,42.380375 C 43.137308,42.580705 43.331653,42.730056 43.570805,42.730054 L 44.935517,42.730054 C 45.174668,42.730054 45.352960,42.580705 45.352960,42.380375 L 45.352960,41.465825 C 45.352960,41.265495 45.174668,41.102697 44.935517,41.102697 z M 24.930433,41.304435 L 23.581776,41.304435 C 23.342625,41.304435 23.148280,41.467232 23.148280,41.667564 L 23.148280,42.568664 C 23.148280,42.768996 23.342625,42.931795 23.581776,42.931794 L 24.930433,42.931794 C 25.169586,42.931794 25.363931,42.768995 25.363931,42.568664 L 25.363931,41.667564 C 25.363931,41.467232 25.169586,41.304435 24.930433,41.304435 z M 44.935517,44.612950 L 43.570805,44.612950 C 43.331653,44.612950 43.137308,44.775749 43.137308,44.976079 L 43.137308,45.877177 C 43.137308,46.077512 43.331653,46.240310 43.570805,46.240310 L 44.935517,46.240310 C 45.174668,46.240310 45.352960,46.077512 45.352960,45.877177 L 45.352960,44.976079 C 45.352960,44.775749 45.174668,44.612950 44.935517,44.612950 z M 24.930433,44.828138 L 23.581776,44.828138 C 23.342625,44.828138 23.148280,44.990936 23.148280,45.191268 L 23.148280,46.092368 C 23.148280,46.292698 23.342625,46.455497 23.581776,46.455496 L 24.930433,46.455496 C 25.169586,46.455496 25.363931,46.292698 25.363931,46.092368 L 25.363931,45.191268 C 25.363931,44.990936 25.169586,44.828138 24.930433,44.828138 z "
   id="path960"
   sodipodi:nodetypes="ccccccccccccccccccccccccccccccccccccccccccccccccccccccccccccccccccccccccccccccccccccccccccccccccccccccccccccccccc" />

<path
   style="fill:#000000;fill-opacity:1.0000000;fill-rule:evenodd;stroke:none;stroke-width:0.38340478pt;"
   d="M 44.814477,18.712841 L 44.979766,48.901915 L 19.868600,48.901915 L 19.696561,18.616293 L 44.814477,18.712841 z M 43.188399,24.352848 L 41.844869,24.352848 C 41.606627,24.352848 41.413022,24.520712 41.413022,24.745875 L 41.413022,25.773791 C 41.413022,25.998956 41.606627,26.181935 41.844869,26.181935 L 43.188399,26.181935 C 43.426642,26.181935 43.620246,25.998956 43.620246,25.773791 L 43.620246,24.745875 C 43.620246,24.520712 43.426642,24.352848 43.188399,24.352848 z M 23.195430,24.534244 L 21.851902,24.534244 C 21.613659,24.534244 21.420052,24.717224 21.420052,24.942389 L 21.420052,25.955188 C 21.420052,26.180353 21.613659,26.363333 21.851902,26.363333 L 23.195430,26.363333 C 23.433672,26.363333 23.627277,26.180353 23.627277,25.955188 L 23.627277,24.942389 C 23.627277,24.717224 23.433672,24.534244 23.195430,24.534244 z M 43.188399,28.404050 L 41.844869,28.404050 C 41.606627,28.404050 41.413022,28.587030 41.413022,28.812193 L 41.413022,29.824994 C 41.413022,30.050157 41.606627,30.233136 41.844869,30.233136 L 43.188399,30.233136 C 43.426641,30.233136 43.620246,30.050157 43.620246,29.824994 L 43.620246,28.812193 C 43.620246,28.587029 43.426642,28.404050 43.188399,28.404050 z M 23.195430,28.600562 L 21.851902,28.600562 C 21.613659,28.600562 21.420052,28.783542 21.420052,29.008706 L 21.420052,30.021507 C 21.420052,30.246671 21.613659,30.429649 21.851902,30.429649 L 23.195430,30.429649 C 23.433672,30.429649 23.627277,30.246670 23.627277,30.021507 L 23.627277,29.008706 C 23.627277,28.783541 23.433672,28.600562 23.195430,28.600562 z M 43.124420,32.712230 L 41.764898,32.712230 C 41.526657,32.712230 41.333049,32.895207 41.333049,33.120372 L 41.333049,34.133171 C 41.333049,34.358336 41.526657,34.541315 41.764898,34.541315 L 43.124420,34.541315 C 43.362661,34.541315 43.540274,34.358336 43.540274,34.133171 L 43.540274,33.120372 C 43.540274,32.895206 43.362661,32.712230 43.124420,32.712230 z M 23.195430,32.954093 L 21.851902,32.954093 C 21.613659,32.954093 21.420052,33.137069 21.420052,33.362236 L 21.420052,34.375033 C 21.420052,34.600200 21.613659,34.783178 21.851902,34.783178 L 23.195430,34.783178 C 23.433672,34.783178 23.627277,34.600200 23.627277,34.375033 L 23.627277,33.362236 C 23.627277,33.137068 23.433672,32.954093 23.195430,32.954093 z M 43.124420,36.778544 L 41.764898,36.778544 C 41.526657,36.778544 41.333049,36.946408 41.333049,37.171572 L 41.333049,38.199488 C 41.333049,38.424653 41.526657,38.607634 41.764898,38.607633 L 43.124420,38.607633 C 43.362661,38.607633 43.540274,38.424653 43.540274,38.199488 L 43.540274,37.171572 C 43.540274,36.946409 43.362661,36.778544 43.124420,36.778544 z M 23.195430,37.050641 L 21.851902,37.050641 C 21.613659,37.050641 21.420052,37.233621 21.420052,37.458784 L 21.420052,38.471586 C 21.420052,38.696749 21.613659,38.879729 21.851902,38.879727 L 23.195430,38.879727 C 23.433672,38.879727 23.627277,38.696748 23.627277,38.471586 L 23.627277,37.458784 C 23.627277,37.233621 23.433672,37.050641 23.195430,37.050641 z M 43.124420,40.950678 L 41.764898,40.950678 C 41.526657,40.950678 41.333049,41.133657 41.333049,41.358822 L 41.333049,42.386739 C 41.333049,42.611901 41.526657,42.779768 41.764898,42.779762 L 43.124420,42.779762 C 43.362661,42.779762 43.540274,42.611901 43.540274,42.386739 L 43.540274,41.358822 C 43.540274,41.133657 43.362661,40.950678 43.124420,40.950678 z M 23.195430,41.177425 L 21.851902,41.177425 C 21.613659,41.177425 21.420052,41.360402 21.420052,41.585569 L 21.420052,42.598367 C 21.420052,42.823534 21.613659,43.006511 21.851902,43.006510 L 23.195430,43.006510 C 23.433672,43.006510 23.627277,42.823533 23.627277,42.598367 L 23.627277,41.585569 C 23.627277,41.360402 23.433672,41.177425 23.195430,41.177425 z M 43.124420,44.896063 L 41.764898,44.896063 C 41.526657,44.896063 41.333049,45.079041 41.333049,45.304207 L 41.333049,46.317006 C 41.333049,46.542172 41.526657,46.725151 41.764898,46.725150 L 43.124420,46.725150 C 43.362661,46.725150 43.540274,46.542172 43.540274,46.317006 L 43.540274,45.304207 C 43.540274,45.079042 43.362661,44.896063 43.124420,44.896063 z M 23.195430,45.137925 L 21.851902,45.137925 C 21.613659,45.137925 21.420052,45.320904 21.420052,45.546070 L 21.420052,46.558869 C 21.420052,46.784035 21.613659,46.967013 21.851902,46.967012 L 23.195430,46.967012 C 23.433672,46.967012 23.627277,46.784034 23.627277,46.558869 L 23.627277,45.546070 C 23.627277,45.320904 23.433672,45.137925 23.195430,45.137925 z "
   id="path959"
   sodipodi:nodetypes="ccccccccccccccccccccccccccccccccccccccccccccccccccccccccccccccccccccccccccccccccccccccccccccccccccccccccccccccccc" />

<path
   style="fill:url(#linearGradient612);fill-opacity:0.75000000;fill-rule:evenodd;stroke:none;stroke-width:0.38340478pt;"
   d="M 44.483899,19.704576 L 44.483899,47.579600 L 20.357718,47.579600 L 20.192429,19.539287 L 44.483899,19.704576 z M 42.762797,24.805374 L 41.471969,24.805374 C 41.243072,24.805374 41.057060,24.961101 41.057060,25.169986 L 41.057060,26.123587 C 41.057060,26.332473 41.243072,26.502222 41.471969,26.502222 L 42.762797,26.502222 C 42.991694,26.502222 43.177706,26.332473 43.177706,26.123587 L 43.177706,25.169986 C 43.177706,24.961101 42.991694,24.805374 42.762797,24.805374 z M 23.554054,24.973657 L 22.263226,24.973657 C 22.034329,24.973657 21.848317,25.143407 21.848317,25.352293 L 21.848317,26.291869 C 21.848317,26.500755 22.034329,26.670505 22.263226,26.670505 L 23.554054,26.670505 C 23.782951,26.670505 23.968963,26.500755 23.968963,26.291869 L 23.968963,25.352293 C 23.968963,25.143407 23.782951,24.973657 23.554054,24.973657 z M 42.762797,28.563683 L 41.471969,28.563683 C 41.243072,28.563683 41.057060,28.733433 41.057060,28.942319 L 41.057060,29.881895 C 41.057060,30.090781 41.243072,30.260531 41.471969,30.260531 L 42.762797,30.260531 C 42.991693,30.260531 43.177706,30.090781 43.177706,29.881895 L 43.177706,28.942319 C 43.177706,28.733432 42.991694,28.563683 42.762797,28.563683 z M 23.554054,28.745989 L 22.263226,28.745989 C 22.034329,28.745989 21.848317,28.915739 21.848317,29.124624 L 21.848317,30.064202 C 21.848317,30.273087 22.034329,30.442836 22.263226,30.442836 L 23.554054,30.442836 C 23.782951,30.442836 23.968963,30.273086 23.968963,30.064202 L 23.968963,29.124624 C 23.968963,28.915738 23.782951,28.745989 23.554054,28.745989 z M 42.701328,32.560391 L 41.395134,32.560391 C 41.166237,32.560391 40.980225,32.730142 40.980225,32.939026 L 40.980225,33.878604 C 40.980225,34.087489 41.166237,34.257239 41.395134,34.257239 L 42.701328,34.257239 C 42.930224,34.257239 43.100870,34.087489 43.100870,33.878604 L 43.100870,32.939026 C 43.100870,32.730141 42.930224,32.560391 42.701328,32.560391 z M 23.554054,32.784768 L 22.263226,32.784768 C 22.034329,32.784768 21.848317,32.954518 21.848317,33.163404 L 21.848317,34.102980 C 21.848317,34.311866 22.034329,34.481616 22.263226,34.481616 L 23.554054,34.481616 C 23.782951,34.481616 23.968963,34.311866 23.968963,34.102980 L 23.968963,33.163404 C 23.968963,32.954517 23.782951,32.784768 23.554054,32.784768 z M 42.701328,36.332723 L 41.395134,36.332723 C 41.166237,36.332723 40.980225,36.488449 40.980225,36.697335 L 40.980225,37.650935 C 40.980225,37.859821 41.166237,38.029572 41.395134,38.029571 L 42.701328,38.029571 C 42.930224,38.029571 43.100870,37.859821 43.100870,37.650935 L 43.100870,36.697335 C 43.100870,36.488450 42.930224,36.332723 42.701328,36.332723 z M 23.554054,36.585147 L 22.263226,36.585147 C 22.034329,36.585147 21.848317,36.754896 21.848317,36.963782 L 21.848317,37.903359 C 21.848317,38.112245 22.034329,38.281995 22.263226,38.281994 L 23.554054,38.281994 C 23.782951,38.281994 23.968963,38.112244 23.968963,37.903359 L 23.968963,36.963782 C 23.968963,36.754896 23.782951,36.585147 23.554054,36.585147 z M 42.701328,40.203220 L 41.395134,40.203220 C 41.166237,40.203220 40.980225,40.372969 40.980225,40.581855 L 40.980225,41.535456 C 40.980225,41.744341 41.166237,41.900069 41.395134,41.900067 L 42.701328,41.900067 C 42.930224,41.900067 43.100870,41.744341 43.100870,41.535456 L 43.100870,40.581855 C 43.100870,40.372969 42.930224,40.203220 42.701328,40.203220 z M 23.554054,40.413573 L 22.263226,40.413573 C 22.034329,40.413573 21.848317,40.583322 21.848317,40.792208 L 21.848317,41.731785 C 21.848317,41.940671 22.034329,42.110422 22.263226,42.110421 L 23.554054,42.110421 C 23.782951,42.110421 23.968963,41.940670 23.968963,41.731785 L 23.968963,40.792208 C 23.968963,40.583322 23.782951,40.413573 23.554054,40.413573 z M 42.701328,43.863363 L 41.395134,43.863363 C 41.166237,43.863363 40.980225,44.033112 40.980225,44.241998 L 40.980225,45.181575 C 40.980225,45.390461 41.166237,45.560212 41.395134,45.560211 L 42.701328,45.560211 C 42.930224,45.560211 43.100870,45.390461 43.100870,45.181575 L 43.100870,44.241998 C 43.100870,44.033113 42.930224,43.863363 42.701328,43.863363 z M 23.554054,44.087739 L 22.263226,44.087739 C 22.034329,44.087739 21.848317,44.257489 21.848317,44.466375 L 21.848317,45.405952 C 21.848317,45.614838 22.034329,45.784588 22.263226,45.784587 L 23.554054,45.784587 C 23.782951,45.784587 23.968963,45.614837 23.968963,45.405952 L 23.968963,44.466375 C 23.968963,44.257489 23.782951,44.087739 23.554054,44.087739 z "
   id="path875"
   sodipodi:nodetypes="ccccccccccccccccccccccccccccccccccccccccccccccccccccccccccccccccccccccccccccccccccccccccccccccccccccccccccccccccc" />

<rect
   style="fill:#ffffff;fill-opacity:1.0000000;fill-rule:evenodd;stroke:none;stroke-width:0.96724424pt;"
   id="rect1118"
   width="12.426258"
   height="25.341476"
   ry="0.0000000"
   x="-38.740697"
   y="21.792073"
   transform="scale(-1.000000,1.000000)" />

<path
   style="fill:url(#linearGradient626);fill-opacity:0.75000000;fill-rule:evenodd;stroke:#000000;stroke-width:0.67867523;"
   d="M 39.399266,20.649831 L 39.399266,29.330430 C 39.399266,29.724795 39.081781,30.042280 38.687417,30.042280 L 26.072277,30.042280 C 25.677913,30.042280 25.360428,29.724795 25.360428,29.330430 L 25.525717,20.649831 C 25.525717,20.255466 39.399266,20.255466 39.399266,20.649831 z "
   id="path958"
   sodipodi:nodetypes="ccccccc" />

<rect
   style="fill:url(#linearGradient687);fill-opacity:0.75000000;fill-rule:evenodd;stroke:#000000;stroke-width:0.58629596;"
   id="rect939"
   width="14.038838"
   height="9.7258711"
   ry="0.32723489"
   x="25.360428"
   y="30.380587" />

<rect
   style="fill:url(#linearGradient742);fill-opacity:0.75000000;fill-rule:evenodd;stroke:#000000;stroke-width:0.55928761;"
   id="rect940"
   width="14.038838"
   height="7.0435281"
   ry="0.55451417"
   x="-39.399266"
   y="40.312228"
   transform="scale(-1.000000,1.000000)" />

<rect
   style="font-size:12.000000;fill:url(#linearGradient944);fill-rule:evenodd;stroke:none;stroke-width:0.097136825;stroke-linejoin:round;"
   id="rect983"
   width="35.856793"
   height="18.177607"
   x="14.481848"
   y="17.367743"
   ry="0.0000000" />

<rect
   style="font-size:12.000000;fill:url(#linearGradient910);fill-rule:evenodd;stroke:none;stroke-width:0.097136825;stroke-linejoin:round;"
   id="rect909"
   width="35.691502"
   height="18.342896"
   x="13.985982"
   y="34.723111"
   ry="0.0000000" />

<rect
   style="font-size:12.000000;fill:url(#linearGradient621);fill-rule:evenodd;stroke-width:1.2954310;stroke-linejoin:round;"
   id="rect809"
   width="40.157953"
   height="44.565013"
   x="11.703663"
   y="10.950606"
   ry="1.5371000" />



















  

  

  

  

  
  

  




  





  





  





  





  
    











    











    














    








    











    











    











    











    











    











  





  





  
  
  
  
  
  
  
  






  
  
  
  
  
  
  
  
  







  













  




  




  











  
    

    

    








  






  






  






  






  




  




  
  
  
  
  
  
  
  





  
  
  
  
  
  
  
  
  






  

























































    
      
      
      
    
  


























  

  

  

  

  
  

  




  





  





  





  





  
    











    











    














    








    











    











    











    











    











    











  





  





  
  
  
  
  
  
  
  






  
  
  
  
  
  
  
  
  







  













  




  




  











  
    

    

    








  






  






  






  






  




  




  
  
  
  
  
  
  
  





  
  
  
  
  
  
  
  
  






  

























































    
      
      
      
    
  


















<text
   xml:space="preserve"
   style="font-size:10.000000;font-weight:bold;stroke-width:1.0000000pt;font-family:Bitstream Vera Sans;"
   x="22.781117"
   y="25.845615"
   id="text1447"><tspan
     id="tspan1448"></tspan></text>




  



  



  



  



















  




  




  




  




  




  




  
  
  
  
  
  
  
  









  
  
  
  
  
  
  
  
  










  














		



		


		
			



			


		
	




  



  



  



  



















  




  




  




  




  




  




  
  
  
  
  
  
  
  









  
  
  
  
  
  
  
  
  










  














		


		


		
			


			


		
	























































































  
  
  
  
  
  
  
  
  
  
  

  
  
  
  
  <rect
   style="fill:#ffffff;fill-rule:evenodd;stroke:#000000;stroke-width:0.96504974;"
   id="rect1298"
   width="27.857307"
   height="11.775432"
   ry="1.0061111"
   x="18.730153"
   y="7.0400873" />









  







  
  
  
  
  
  
  
  













<rect
   style="fill:#314e6c;fill-rule:evenodd;stroke-width:0.90870070;fill-opacity:1.0000000;"
   id="rect1299"
   width="26.499226"
   height="10.404858"
   ry="0.88900727"
   x="19.751571"
   y="8.0100044" />

<path
   style="font-size:10.000000;font-weight:bold;stroke-width:1.0000000pt;font-family:Bitstream Vera Sans;fill:#fdffff;fill-opacity:1.0000000;"
   d="M 42.241542,14.191439 C 42.000657,14.510449 41.735357,14.744824 41.445644,14.894564 C 41.155930,15.044303 40.820644,15.119173 40.439784,15.119173 C 39.772467,15.119173 39.220709,14.857129 38.784511,14.333040 C 38.348313,13.805696 38.130214,13.135123 38.130214,12.321321 C 38.130214,11.504264 38.348313,10.835319 38.784511,10.314485 C 39.220709,9.7903967 39.772467,9.5283521 40.439784,9.5283521 C 40.820644,9.5283521 41.155930,9.6032219 41.445644,9.7529614 C 41.735357,9.9027007 42.000657,10.138704 42.241542,10.460970 L 42.241542,9.6504224 L 43.999355,9.6504224 L 43.999355,14.567415 C 43.999355,15.446321 43.721034,16.116894 43.164394,16.579134 C 42.611008,17.044629 41.806972,17.277376 40.752284,17.277376 C 40.410488,17.277376 40.080084,17.251334 39.761074,17.199251 C 39.442063,17.147168 39.121425,17.067415 38.799159,16.959993 L 38.799159,15.597689 C 39.105149,15.773470 39.404628,15.903678 39.697597,15.988314 C 39.990566,16.076204 40.285162,16.120149 40.581386,16.120149 C 41.154303,16.120149 41.574225,15.994824 41.841152,15.744173 C 42.108079,15.493522 42.241542,15.101269 42.241542,14.567415 L 42.241542,14.191439 z M 41.089199,10.788118 C 40.727870,10.788118 40.446295,10.921582 40.244472,11.188509 C 40.042649,11.455436 39.941738,11.833040 39.941738,12.321321 C 39.941738,12.822623 40.039394,13.203483 40.234706,13.463899 C 40.430019,13.721061 40.714850,13.849642 41.089199,13.849642 C 41.453782,13.849642 41.736985,13.716178 41.938808,13.449251 C 42.140631,13.182324 42.241542,12.806347 42.241542,12.321321 C 42.241542,11.833040 42.140631,11.455436 41.938808,11.188509 C 41.736985,10.921582 41.453782,10.788118 41.089199,10.788118 z M 33.110683,14.328157 L 33.110683,17.199251 L 31.362636,17.199251 L 31.362636,9.6504224 L 33.110683,9.6504224 L 33.110683,10.451204 C 33.351568,10.132194 33.618495,9.8978187 33.911464,9.7480786 C 34.204433,9.5950838 34.541347,9.5185864 34.922206,9.5185864 C 35.596034,9.5185864 36.149420,9.7871407 36.582363,10.324251 C 37.015305,10.858105 37.231777,11.546582 37.231777,12.389681 C 37.231777,13.232780 37.015305,13.922884 36.582363,14.459993 C 36.149420,14.993847 35.596034,15.260774 34.922206,15.260774 C 34.541347,15.260774 34.204433,15.185905 33.911464,15.036165 C 33.618495,14.883170 33.351568,14.647168 33.110683,14.328157 z M 34.272792,10.788118 C 33.898443,10.788118 33.610357,10.926464 33.408534,11.203157 C 33.209967,11.476595 33.110683,11.872103 33.110683,12.389681 C 33.110683,12.907259 33.209967,13.304394 33.408534,13.581087 C 33.610357,13.854524 33.898443,13.991243 34.272792,13.991243 C 34.647141,13.991243 34.931972,13.854524 35.127284,13.581087 C 35.325852,13.307649 35.425136,12.910514 35.425136,12.389681 C 35.425136,11.868847 35.325852,11.471712 35.127284,11.198274 C 34.931972,10.924837 34.647141,10.788118 34.272792,10.788118 z M 26.011074,10.558626 C 26.232428,10.220084 26.494472,9.9629227 26.797206,9.7871407 C 27.103196,9.6081047 27.438482,9.5185864 27.803066,9.5185864 C 28.431321,9.5185864 28.909837,9.7122713 29.238613,10.099641 C 29.567389,10.487011 29.731777,11.050162 29.731777,11.789095 L 29.731777,15.119173 L 27.973964,15.119173 L 27.973964,12.267610 C 27.977219,12.225293 27.978847,12.181347 27.978847,12.135774 C 27.982102,12.090202 27.983730,12.025097 27.983730,11.940462 C 27.983730,11.553092 27.926764,11.273144 27.812831,11.100618 C 27.698899,10.924837 27.514980,10.836946 27.261074,10.836946 C 26.929042,10.836946 26.671881,10.973665 26.489589,11.247102 C 26.310553,11.520540 26.217779,11.916048 26.211269,12.433626 L 26.211269,15.119173 L 24.453456,15.119173 L 24.453456,12.267610 C 24.453456,11.662141 24.401373,11.273144 24.297206,11.100618 C 24.193040,10.924837 24.007493,10.836946 23.740566,10.836946 C 23.405279,10.836946 23.146490,10.975293 22.964199,11.251985 C 22.781907,11.525423 22.690761,11.917675 22.690761,12.428743 L 22.690761,15.119173 L 20.932949,15.119173 L 20.932949,9.6504224 L 22.690761,9.6504224 L 22.690761,10.451204 C 22.905605,10.141959 23.151373,9.9092117 23.428066,9.7529614 C 23.708014,9.5967114 24.015631,9.5185864 24.350917,9.5185864 C 24.728521,9.5185864 25.062180,9.6097323 25.351894,9.7920237 C 25.641607,9.9743157 25.861334,10.229850 26.011074,10.558626 z "
   id="path1118" />

</svg>
