<?xml version="1.0" encoding="UTF-8" standalone="no"?>
<svg
   xmlns:dc="http://purl.org/dc/elements/1.1/"
   xmlns:cc="http://creativecommons.org/ns#"
   xmlns:rdf="http://www.w3.org/1999/02/22-rdf-syntax-ns#"
   xmlns:svg="http://www.w3.org/2000/svg"
   xmlns="http://www.w3.org/2000/svg"
   xmlns:sodipodi="http://sodipodi.sourceforge.net/DTD/sodipodi-0.dtd"
   xmlns:inkscape="http://www.inkscape.org/namespaces/inkscape"
   version="1.1"
   width="64"
   height="64"
   color-interpolation="linearRGB"
   id="svg2"
   sodipodi:version="0.32"
   inkscape:version="0.46"
   sodipodi:docname="archive"
   inkscape:output_extension="org.inkscape.output.svg.inkscape">
  <metadata
     id="metadata43">
    <rdf:RDF>
      <cc:Work
         rdf:about="">
        <dc:format>image/svg+xml</dc:format>
        <dc:type
           rdf:resource="http://purl.org/dc/dcmitype/StillImage" />
      </cc:Work>
    </rdf:RDF>
  </metadata>
  <defs
     id="defs41">
    <inkscape:perspective
       sodipodi:type="inkscape:persp3d"
       inkscape:vp_x="0 : 32 : 1"
       inkscape:vp_y="0 : 1000 : 0"
       inkscape:vp_z="64 : 32 : 1"
       inkscape:persp3d-origin="32 : 21.333333 : 1"
       id="perspective45" />
    <inkscape:perspective
       id="perspective2496"
       inkscape:persp3d-origin="30 : 20 : 1"
       inkscape:vp_z="60 : 30 : 1"
       inkscape:vp_y="0 : 1000 : 0"
       inkscape:vp_x="0 : 30 : 1"
       sodipodi:type="inkscape:persp3d" />
  </defs>
  <sodipodi:namedview
     inkscape:window-height="772"
     inkscape:window-width="1270"
     inkscape:pageshadow="2"
     inkscape:pageopacity="0.0"
     guidetolerance="10.0"
     gridtolerance="10.0"
     objecttolerance="10.0"
     borderopacity="1.0"
     bordercolor="#666666"
     pagecolor="#ffffff"
     id="base"
     showgrid="false"
     inkscape:zoom="7.25"
     inkscape:cx="30.432602"
     inkscape:cy="32"
     inkscape:window-x="0"
     inkscape:window-y="0"
     inkscape:current-layer="svg2" />
  <g
     id="g4">
    <path
       style="fill:#010101; fill-opacity:0.5333"
       d="M36 59H41C41 59 45.5 55.62 48.12 52.08C51.03 48.17 52.08 44.05 52.08 44.05C52.08 44.05 57.06 40.04 60.04 36.02C63.02 32.01 63 28 63 28L59 26L57 31L36 59z"
       id="path6" />
    <path
       style="fill:none; stroke:#010000; stroke-width:4"
       d="M3 28C3 28 2 30.47 2 33.25C2 36.86 2.62 40.62 2.62 40.62C2.62 40.62 4.97 42.57 8.23 44.3C12.2 46.4 16.61 47.73 16.61 47.73L16.62 33.87L29.5 20.75C29.5 20.75 25.45 19.1 21.66 17.55C18.29 16.17 15.11 15.88 15.11 15.88C15.11 15.88 11.04 17.95 7.87 21.12C4.49 24.5 3 28 3 28z            M30 19.75L38.93 10.06C38.93 10.06 35.07 8.66 31.42 7.33C28.13 6.13 25 6 25 6C25 6 23.27 6.72 21.37 8.62C19.05 10.94 16.49 13.5 16.49 13.5L30 19.75z            M31.5 21.37L47.87 27L47.92 41.96C47.92 41.96 51.84 38.11 54.36 34.78C56.29 32.24 57 29.62 57 29.62C57 29.62 58 25.95 58 22.37C58 19.53 56.25 17.5 56.25 17.5C56.25 17.5 52.21 14.89 47.33 13.12C43.79 11.83 40.72 11.21 40.72 11.21C40.72 11.21 38.67 12.65 36.4 14.79C33.61 17.43 31.5 21.37 31.5 21.37z            M46.62 29C46.62 29 42.42 26.85 37.97 24.94C34 23.24 30.5 22.25 30.5 22.25C30.5 22.25 27.59 24.49 24.78 27.54C21.62 30.97 18.62 34.62 18.62 34.62C18.62 34.62 18.24 37.59 18.24 40.88C18.24 44.98 18.87 49.47 18.87 49.47C18.87 49.47 22.15 51.66 26.3 53.86C30.99 56.35 36 57.25 36 57.25C36 57.25 39.12 54.87 42.12 50.92C44.88 47.29 46.77 43.67 46.77 43.67C46.77 43.67 47.23 40.08 47.2 36.36C47.16 32.62 46.62 29 46.62 29z"
       id="path8" />
    <linearGradient
       id="gradient0"
       gradientUnits="userSpaceOnUse"
       x1="13.84"
       y1="-38.14"
       x2="58.34"
       y2="-27.7">
      <stop
         offset="0"
         stop-color="#fff8ea"
         id="stop11" />
      <stop
         offset="1"
         stop-color="#f5deac"
         id="stop13" />
    </linearGradient>
    <path
       style="fill:url(#gradient0)"
       d="M46.62 29C46.62 29 42.42 26.85 37.97 24.94C34 23.24 30.5 22.25 30.5 22.25C30.5 22.25 27.59 24.49 24.78 27.54C21.62 30.97 18.62 34.62 18.62 34.62L36 42C36 42 39.67 38.72 42.34 35.46C44.98 32.22 46.62 29 46.62 29z            M3 28L16.62 33.87L29.5 20.75C29.5 20.75 25.45 19.1 21.66 17.55C18.29 16.17 15.11 15.88 15.11 15.88C15.11 15.88 11.04 17.95 7.87 21.12C4.49 24.5 3 28 3 28z            M30 19.75L38.93 10.06C38.93 10.06 35.07 8.66 31.42 7.33C28.13 6.13 25 6 25 6C25 6 23.27 6.72 21.37 8.62C19.05 10.94 16.49 13.5 16.49 13.5L30 19.75z            M31.5 21.37L47.87 27C47.87 27 51.34 24.19 53.6 21.63C55.5 19.48 56.25 17.5 56.25 17.5C56.25 17.5 52.21 14.89 47.33 13.12C43.79 11.83 40.72 11.21 40.72 11.21C40.72 11.21 38.67 12.65 36.4 14.79C33.61 17.43 31.5 21.37 31.5 21.37z"
       id="path15" />
    <linearGradient
       id="gradient1"
       gradientUnits="userSpaceOnUse"
       x1="44.72"
       y1="-7.9"
       x2="86.1"
       y2="10.51">
      <stop
         offset="0"
         stop-color="#983f04"
         id="stop18" />
      <stop
         offset="1"
         stop-color="#e6c276"
         id="stop20" />
    </linearGradient>
    <path
       style="fill:url(#gradient1)"
       d="M46.62 29C46.62 29 44.98 32.22 42.34 35.46C39.67 38.72 36 42 36 42V57.25C36 57.25 39.12 54.87 42.12 50.92C44.88 47.29 46.77 43.67 46.77 43.67C46.77 43.67 47.23 40.08 47.2 36.36C47.16 32.62 46.62 29 46.62 29z            M47.87 27L47.92 41.96C47.92 41.96 51.84 38.11 54.36 34.78C56.29 32.24 57 29.62 57 29.62C57 29.62 58 25.95 58 22.37C58 19.53 56.25 17.5 56.25 17.5C56.25 17.5 55.5 19.48 53.6 21.63C51.34 24.19 47.87 27 47.87 27z"
       id="path22" />
    <linearGradient
       id="gradient2"
       gradientUnits="userSpaceOnUse"
       x1="17.72"
       y1="90.92"
       x2="-10.6"
       y2="71.85">
      <stop
         offset="0"
         stop-color="#eebf5a"
         id="stop25" />
      <stop
         offset="1"
         stop-color="#ffebc0"
         id="stop27" />
    </linearGradient>
    <path
       style="fill:url(#gradient2)"
       d="M36 42L18.62 34.62C18.62 34.62 18.24 37.59 18.24 40.88C18.24 44.98 18.87 49.47 18.87 49.47C18.87 49.47 22.15 51.66 26.3 53.86C30.99 56.35 36 57.25 36 57.25V42z"
       id="path29" />
    <path
       style="fill:none; stroke:#010000; stroke-width:2"
       d="M37 31C37 31 31 17 27 15C23 13 11 20 18 21C25 22 42 14 46 17C50 20 51 21 47 21C45.42 21 31 20 31 20C31 20 28.37 20.67 24 23.25C19.88 25.67 15 27.25 15 27.25"
       id="path31" />
    <linearGradient
       id="gradient3"
       gradientUnits="userSpaceOnUse"
       x1="2.85"
       y1="-64"
       x2="21.14"
       y2="-64">
      <stop
         offset="0"
         stop-color="#ffefce"
         id="stop34" />
      <stop
         offset="1"
         stop-color="#ffd16e"
         id="stop36" />
    </linearGradient>
    <path
       style="fill:url(#gradient3)"
       d="M3 28C3 28 2 30.47 2 33.25C2 36.86 2.62 40.62 2.62 40.62C2.62 40.62 4.97 42.57 8.23 44.3C12.2 46.4 16.61 47.73 16.61 47.73L16.62 33.87L3 28z"
       id="path38" />
  </g>
  <g
     style="overflow:visible"
     id="g2499"
     transform="translate(-68.332087,-0.5888618)">
    <g
       id="Layer_1"
       style="stroke:#000000">
    <g
   id="Layer_1_2_">
      
      
      <g
   id="g159">
        <linearGradient
   gradientTransform="matrix(1,0,0,-1,237.7393,407.3438)"
   y2="370.54019"
   x2="-235.2596"
   y1="380.3623"
   x1="-217.2852"
   gradientUnits="userSpaceOnUse"
   id="XMLID_1_">
          <stop
   id="stop161"
   style="stop-color:#FACF9D"
   offset="0" />

          <stop
   id="stop162"
   style="stop-color:#CD9363"
   offset="1" />

        </linearGradient>

        
      </g>

      <g
   id="g167">
        
      </g>

      <g
   id="g169">
        
      </g>

      <g
   id="g171">
        <linearGradient
   gradientTransform="matrix(1,0,0,-1,237.7393,407.3438)"
   y2="387.66119"
   x2="-217.52521"
   y1="407.73441"
   x1="-220.8945"
   gradientUnits="userSpaceOnUse"
   id="XMLID_2_">
          <stop
   id="stop173"
   style="stop-color:#FFCD99"
   offset="0" />

          <stop
   id="stop174"
   style="stop-color:#EBA76E"
   offset="1" />

        </linearGradient>

        
      </g>

      <g
   id="g179">
        <linearGradient
   gradientTransform="matrix(1,0,0,-1,237.7393,407.3438)"
   y2="388.80591"
   x2="-226.2879"
   y1="400.05859"
   x1="-228.1768"
   gradientUnits="userSpaceOnUse"
   id="XMLID_3_">
          <stop
   id="stop181"
   style="stop-color:#FFDCAC"
   offset="0" />

          <stop
   id="stop182"
   style="stop-color:#E19A68"
   offset="1" />

        </linearGradient>

        
      </g>

      <g
   id="g187">
        <linearGradient
   gradientTransform="matrix(1,0,0,-1,237.7393,407.3438)"
   y2="381.50531"
   x2="-206.6564"
   y1="389.99411"
   x1="-225.3755"
   gradientUnits="userSpaceOnUse"
   id="XMLID_4_">
          <stop
   id="stop189"
   style="stop-color:#FFCD99"
   offset="0" />

          <stop
   id="stop190"
   style="stop-color:#EBA76E"
   offset="1" />

        </linearGradient>

        
      </g>

      <g
   id="g195">
        <linearGradient
   gradientTransform="matrix(1,0,0,-1,237.7393,407.3438)"
   y2="397.5347"
   x2="-218.45641"
   y1="406.80661"
   x1="-220.0127"
   gradientUnits="userSpaceOnUse"
   id="XMLID_5_">
          <stop
   id="stop197"
   style="stop-color:#FFCD99"
   offset="0" />

          <stop
   id="stop198"
   style="stop-color:#EBA76E"
   offset="1" />

        </linearGradient>

        
      </g>

      <g
   id="g203">
        <linearGradient
   gradientTransform="matrix(1,0,0,-1,237.7393,407.3438)"
   y2="396.1355"
   x2="-214.4516"
   y1="400.92969"
   x1="-215.2563"
   gradientUnits="userSpaceOnUse"
   id="XMLID_6_">
          <stop
   id="stop205"
   style="stop-color:#EBA76E"
   offset="0" />

          <stop
   id="stop206"
   style="stop-color:#CD9363"
   offset="1" />

        </linearGradient>

        
      </g>

      <g
   id="g211"
   style="opacity:0.25">
        
      </g>

      <g
   id="g213">
        
      </g>

      <g
   id="g215"
   style="opacity:0.3">
        
      </g>

      <g
   id="g217"
   style="opacity:0.35">
        
      </g>

      <g
   id="g219"
   style="opacity:0.36000001">
        <linearGradient
   gradientTransform="matrix(1,0,0,-1,237.7393,407.3438)"
   y2="382.08591"
   x2="-216.9883"
   y1="382.08591"
   x1="-226.0029"
   gradientUnits="userSpaceOnUse"
   id="XMLID_7_">
          <stop
   id="stop221"
   style="stop-color:#404040"
   offset="0" />

          <stop
   id="stop222"
   style="stop-color:#000000"
   offset="1" />

        </linearGradient>

        
      </g>

      <g
   id="g227"
   style="opacity:0.2">
        <linearGradient
   gradientTransform="matrix(1,0,0,-1,237.7393,407.3438)"
   y2="395.82141"
   x2="-223.35941"
   y1="396.78909"
   x1="-222.77879"
   gradientUnits="userSpaceOnUse"
   id="XMLID_8_">
          <stop
   id="stop229"
   style="stop-color:#FFFFFF"
   offset="0" />

          <stop
   id="stop230"
   style="stop-color:#000000"
   offset="1" />

        </linearGradient>

        
      </g>

      <g
   id="g235">
        
      </g>

      <g
   id="g237"
   style="opacity:0.5">
        <g
   id="g238">
          
        </g>

      </g>

      <g
   id="g240"
   style="opacity:0.5">
        
      </g>

      <g
   id="g242"
   style="opacity:0.5">
        
      </g>

    </g>

  </g>
    <g
       style="overflow:visible"
       transform="matrix(2.93751e-2,-2.21604e-3,2.62143e-3,3.0799e-2,-2.121,28.6931)"
       id="g324">
    <path
   id="path325"
   d="M 2877.5917,1214.6466 C 2869.6614,1216.7253 2855.8716,1229.7146 2866.3599,1237.194 C 2872.0027,1241.2185 2881.0055,1240.4101 2887.4788,1242.4081 C 2903.1116,1247.2283 2915.5725,1257.2072 2932.9691,1251.7511 C 2943.8893,1248.3262 2962.852,1225.2994 2944.5727,1217.782 C 2936.2469,1214.3587 2927.5257,1225.9907 2919.124,1226.6994 C 2903.8931,1227.9903 2893.5408,1210.4687 2877.5917,1214.6466 z M 2372.8297,1153.1138 C 2283.7461,926.74909 2369.0197,669.05552 2575.5468,540.51168 C 2782.074,411.96705 3050.9393,449.24171 3214.7082,629.12257 C 3378.474,809.00358 3396.0399,1073.2432 3242.8541,1273.7685 C 3222.8853,1264.6929 3181.0619,1269.4846 3151.5033,1268.7649 C 3135.6586,1268.6478 3116.5377,1265.563 3112.2016,1270.6648 C 3102.857,1281.0186 3113.9828,1285.5619 3101.7845,1296.8633 C 3092.625,1305.1637 3078.2626,1306.2553 3056.1486,1320.1336 C 3026.0553,1338.7911 2986.3296,1391.1581 2968.6799,1374.2376 C 2959.2262,1364.8883 2980.8166,1345.7184 3000.0482,1322.4464 C 3019.3479,1299.4197 3041.3258,1271.6108 3047.2201,1252.9755 C 3054.4939,1229.4425 3052.9072,1214.3967 3056.2609,1204.1678 C 3063.9365,1178.7176 3070.8164,1154.6372 3058.0675,1152.837 C 3049.2782,1151.6221 3037.8566,1157.6414 3023.3075,1156.6305 C 3008.1541,1155.55 2999.2319,1152.8307 2978.972,1153.1787 C 2963.0324,1153.4555 2946.6292,1156.4723 2932.175,1156.1211 C 2905.4449,1155.0612 2898.8261,1149.9405 2877.5015,1149.9262 C 2855.0158,1149.9104 2808.6285,1163.5088 2772.2818,1147.392 C 2743.0602,1134.3536 2723.452,1089.2635 2696.5226,1077.2676 C 2684.0807,1071.772 2675.989,1082.9848 2662.8906,1078.7689 C 2646.4257,1073.3966 2641.3192,1043.3666 2607.6223,1023.0134 C 2585.4703,1009.7235 2562.9166,1021.4979 2556.747,1028.2607 C 2535.5838,1051.6845 2553.3617,1085.788 2573.9775,1113.2173 C 2589.702,1134.4453 2606.3013,1134.8899 2607.9734,1149.2238 C 2609.1472,1159.4258 2593.524,1169.6451 2581.0567,1166.2487 C 2548.5747,1157.2269 2532.0561,1119.2033 2509.7175,1111.2303 C 2500.8697,1108.0158 2486.9771,1110.9804 2476.3591,1110.7225 C 2454.7798,1110.5818 2411.701,1110.9314 2386.9898,1110.5311 C 2391.3428,1141.2904 2387.0978,1146.6484 2372.8297,1153.1138 z"
   style="font-size:12px;fill:#000000;fill-opacity:1;stroke:#000000;stroke-width:1.58194172" />

    <path
   id="path173"
   d="M 3171.3739,561.78388 L 3171.3739,561.78388 z M 2609.6723,733.85326 C 2566.6261,733.85326 2512.5901,727.26606 2473.2013,748.3391 C 2457.431,756.77876 2439.0535,770.95138 2434.6985,789.2323 C 2428.5004,815.25049 2444.6536,836.54501 2461.1659,854.50163 C 2492.2131,888.26502 2525.3295,918.83129 2562.2046,946.21312 C 2689.6157,1040.8211 2846.0002,1088.6733 3003.2578,1095.5895 C 3078.1643,1098.8831 3174.8906,1068.4102 3223.8549,1008.771 C 3249.0077,978.13674 3266.5799,921.09505 3245.4784,884.16779 C 3227.6895,853.04308 3162.7998,820.17824 3127.861,814.94518 C 3121.4131,834.72894 3112.9307,853.55563 3094.2385,864.39035 C 3090.2235,838.7186 3105.2456,808.58419 3104.0497,781.32101 C 3101.8634,731.46453 3073.3109,680.54499 3055.0775,634.96292 C 3045.6697,611.44261 3037.8612,585.7851 3019.0519,567.89492 C 2968.1893,519.51756 2906.3686,545.3823 2847.011,549.73739 C 2802.5316,553.00094 2758.8526,531.93264 2714.4965,538.91849 C 2645.1284,549.8418 2633.4489,642.3316 2624.6849,700.23067 C 2618.3746,741.92749 2658.6176,760.81588 2690.7626,773.03005 C 2725.7093,786.30729 2761.7823,796.85093 2797.5643,807.58757 C 2816.4511,813.25408 2839.2801,818.52195 2852.165,834.75267 C 2860.8926,845.74875 2858.7269,859.46735 2861.9082,872.30164 C 2864.2051,881.57182 2883.5808,896.25857 2880.0277,905.06682 C 2877.1011,912.3216 2860.891,910.13852 2854.9223,909.54213 C 2830.7708,907.12967 2806.4991,897.32954 2783.7207,889.42141 C 2739.2207,873.97217 2695.9467,853.73123 2655.161,830.20617 C 2638.1963,820.4187 2616.6661,809.81811 2608.0682,791.21131 C 2599.4403,772.53648 2605.3615,752.69893 2609.6723,733.85326 M 2898.4336,569.69517 L 2898.4336,571.67259 C 2908.3983,574.05183 2944.1312,574.98043 2942.1031,591.47376 C 2941.1634,599.10505 2930.585,605.39485 2926.1239,611.22905 C 2941.6349,615.81352 3003.5805,613.28399 2985.7315,583.57038 C 2970.6508,558.46496 2922.2165,563.96696 2898.4336,569.69517 z M 2687.2523,629.192 C 2679.9817,632.91431 2679.0784,643.67942 2678.925,650.7855 C 2678.4709,672.19076 2692.7606,687.98803 2712.5191,695.51965 C 2723.3981,699.6675 2732.2585,690.42896 2742.1852,687.10372 C 2766.207,679.05796 2806.5892,685.95365 2826.7495,670.27344 C 2841.9282,658.46741 2814.654,653.51435 2807.4546,651.9245 C 2779.5744,645.766 2750.8812,657.93588 2724.3852,648.59451 C 2714.1153,644.97187 2698.4825,623.44164 2687.2523,629.192 z"
   style="font-size:12px;fill:#c1211f;fill-opacity:1;fill-rule:evenodd;stroke:#000000;stroke-width:1.58194172" />

  </g>
  </g>
</svg>
