<?xml version="1.0" encoding="UTF-8" standalone="no"?>
<!-- Generator: Adobe Illustrator 9.0, SVG Export Plug-In  -->
<svg
   xmlns:dc="http://purl.org/dc/elements/1.1/"
   xmlns:cc="http://web.resource.org/cc/"
   xmlns:rdf="http://www.w3.org/1999/02/22-rdf-syntax-ns#"
   xmlns:svg="http://www.w3.org/2000/svg"
   xmlns="http://www.w3.org/2000/svg"
   xmlns:sodipodi="http://inkscape.sourceforge.net/DTD/sodipodi-0.dtd"
   xmlns:inkscape="http://www.inkscape.org/namespaces/inkscape"
   width="48pt"
   height="48pt"
   viewBox="0 0 24 24"
   xml:space="preserve"
   id="svg2"
   sodipodi:version="0.32"
   inkscape:version="0.43"
   sodipodi:docname="stock_help.svg"
   sodipodi:docbase="/home/manuel/Desktop"
   version="1.0"><metadata
   id="metadata264"><rdf:RDF><cc:Work
       rdf:about=""><dc:format>image/svg+xml</dc:format><dc:type
         rdf:resource="http://purl.org/dc/dcmitype/StillImage" /></cc:Work></rdf:RDF></metadata><defs
   id="defs262" /><sodipodi:namedview
   inkscape:window-height="950"
   inkscape:window-width="1278"
   inkscape:pageshadow="2"
   inkscape:pageopacity="0.0"
   borderopacity="1.0"
   bordercolor="#666666"
   pagecolor="#ffffff"
   id="base"
   inkscape:zoom="5.22"
   inkscape:cx="75"
   inkscape:cy="-15"
   inkscape:window-x="0"
   inkscape:window-y="25"
   inkscape:current-layer="svg2" />
	<g
   id="Layer_x0020_2"
   style="fill-rule:nonzero;stroke:#000000;stroke-width:0.85650003;stroke-miterlimit:4">
		<path
   d="M 2.4,12.1 C 2.4,17.5 6.8,21.8 12.1,21.8 C 17.5,21.8 21.8,17.4 21.8,12.1 C 21.8,6.8 17.4,2.4 12.1,2.4 C 6.7,2.4 2.4,6.8 2.4,12.1 L 2.4,12.1 z M 9.5,12.1 C 9.5,10.7 10.7,9.5 12.1,9.5 C 13.5,9.5 14.7,10.7 14.7,12.1 C 14.7,13.5 13.5,14.7 12.1,14.7 C 10.7,14.7 9.5,13.5 9.5,12.1 z "
   id="path5" />
		<path
   d="M 14.1,18.4 C 14.1,20.7 16,22.5 18.2,22.5 C 20.5,22.5 22.3,20.6 22.3,18.4 C 22.3,16.2 20.4,14.3 18.2,14.3 C 15.9,14.3 14.1,16.2 14.1,18.4 L 14.1,18.4 z M 15.9,18.4 C 15.9,17.1 17,16 18.3,16 C 19.6,16 20.7,17.1 20.7,18.4 C 20.7,19.7 19.6,20.8 18.3,20.8 C 17,20.8 15.9,19.7 15.9,18.4 z "
   id="path7" />
		<radialGradient
   id="aigrd1"
   cx="18.1523"
   cy="18.3291"
   r="3.5495"
   fx="18.1523"
   fy="18.3291"
   gradientUnits="userSpaceOnUse">
			<stop
   offset="0"
   style="stop-color:#3C3C3C"
   id="stop10" />
			<stop
   offset="0.3633"
   style="stop-color:#3E3E3E"
   id="stop12" />
			<stop
   offset="0.4942"
   style="stop-color:#454545"
   id="stop14" />
			<stop
   offset="0.5875"
   style="stop-color:#505050"
   id="stop16" />
			<stop
   offset="0.6629"
   style="stop-color:#616161"
   id="stop18" />
			<stop
   offset="0.7276"
   style="stop-color:#777777"
   id="stop20" />
			<stop
   offset="0.7848"
   style="stop-color:#939393"
   id="stop22" />
			<stop
   offset="0.8353"
   style="stop-color:#B2B2B2"
   id="stop24" />
			<stop
   offset="0.8764"
   style="stop-color:#D2D2D2"
   id="stop26" />
			<stop
   offset="0.8998"
   style="stop-color:#CECECE"
   id="stop28" />
			<stop
   offset="0.9223"
   style="stop-color:#C3C3C3"
   id="stop30" />
			<stop
   offset="0.9446"
   style="stop-color:#AFAFAF"
   id="stop32" />
			<stop
   offset="0.9666"
   style="stop-color:#949494"
   id="stop34" />
			<stop
   offset="0.9884"
   style="stop-color:#717171"
   id="stop36" />
			<stop
   offset="1"
   style="stop-color:#5B5B5B"
   id="stop38" />
		</radialGradient>
		<path
   style="fill:url(#aigrd1);stroke:none"
   d="M 18.3,14.7 C 16.3,14.7 14.6,16.4 14.6,18.4 C 14.6,20.4 16.3,22.1 18.3,22.1 C 20.3,22.1 22,20.4 22,18.4 C 22,16.4 20.3,14.7 18.3,14.7 z M 18.3,21.3 C 16.7,21.3 15.4,20 15.4,18.4 C 15.4,16.8 16.7,15.5 18.3,15.5 C 19.9,15.5 21.2,16.8 21.2,18.4 C 21.2,20 19.9,21.3 18.3,21.3 z "
   id="path40" />
		<path
   d="M 1.7,18.4 C 1.7,20.7 3.6,22.5 5.8,22.5 C 8,22.5 9.9,20.6 9.9,18.4 C 9.9,16.2 8,14.3 5.8,14.3 C 3.6,14.3 1.7,16.2 1.7,18.4 L 1.7,18.4 z M 3.4,18.4 C 3.4,17.1 4.5,16 5.8,16 C 7.1,16 8.2,17.1 8.2,18.4 C 8.2,19.7 7.1,20.8 5.8,20.8 C 4.5,20.8 3.4,19.7 3.4,18.4 L 3.4,18.4 z "
   id="path42" />
		<radialGradient
   id="aigrd2"
   cx="5.7333999"
   cy="18.3291"
   r="3.5495"
   fx="5.7333999"
   fy="18.3291"
   gradientUnits="userSpaceOnUse">
			<stop
   offset="0"
   style="stop-color:#3C3C3C"
   id="stop45" />
			<stop
   offset="0.3633"
   style="stop-color:#3E3E3E"
   id="stop47" />
			<stop
   offset="0.4942"
   style="stop-color:#454545"
   id="stop49" />
			<stop
   offset="0.5875"
   style="stop-color:#505050"
   id="stop51" />
			<stop
   offset="0.6629"
   style="stop-color:#616161"
   id="stop53" />
			<stop
   offset="0.7276"
   style="stop-color:#777777"
   id="stop55" />
			<stop
   offset="0.7848"
   style="stop-color:#939393"
   id="stop57" />
			<stop
   offset="0.8353"
   style="stop-color:#B2B2B2"
   id="stop59" />
			<stop
   offset="0.8764"
   style="stop-color:#D2D2D2"
   id="stop61" />
			<stop
   offset="0.8998"
   style="stop-color:#CECECE"
   id="stop63" />
			<stop
   offset="0.9223"
   style="stop-color:#C3C3C3"
   id="stop65" />
			<stop
   offset="0.9446"
   style="stop-color:#AFAFAF"
   id="stop67" />
			<stop
   offset="0.9666"
   style="stop-color:#949494"
   id="stop69" />
			<stop
   offset="0.9884"
   style="stop-color:#717171"
   id="stop71" />
			<stop
   offset="1"
   style="stop-color:#5B5B5B"
   id="stop73" />
		</radialGradient>
		<path
   style="fill:url(#aigrd2);stroke:none"
   d="M 5.9,14.7 C 3.9,14.7 2.2,16.4 2.2,18.4 C 2.2,20.4 3.9,22.1 5.9,22.1 C 7.9,22.1 9.6,20.4 9.6,18.4 C 9.6,16.4 7.9,14.7 5.9,14.7 L 5.9,14.7 z M 5.9,21.3 C 4.3,21.3 3,20 3,18.4 C 3,16.8 4.3,15.5 5.9,15.5 C 7.5,15.5 8.8,16.8 8.8,18.4 C 8.8,20 7.5,21.3 5.9,21.3 L 5.9,21.3 z "
   id="path75" />
		<path
   d="M 1.7,5.7 C 1.7,8 3.6,9.8 5.8,9.8 C 8,9.8 10,8 10,5.7 C 10,3.4 8.1,1.6 5.9,1.6 C 3.7,1.6 1.7,3.5 1.7,5.7 z M 3.4,5.7 C 3.4,4.4 4.5,3.3 5.8,3.3 C 7.1,3.3 8.2,4.4 8.2,5.7 C 8.2,7 7.1,8.1 5.8,8.1 C 4.5,8.1 3.4,7 3.4,5.7 L 3.4,5.7 z "
   id="path77" />
		<radialGradient
   id="aigrd3"
   cx="5.7333999"
   cy="5.6528001"
   r="3.5497"
   fx="5.7333999"
   fy="5.6528001"
   gradientUnits="userSpaceOnUse">
			<stop
   offset="0"
   style="stop-color:#3C3C3C"
   id="stop80" />
			<stop
   offset="0.3633"
   style="stop-color:#3E3E3E"
   id="stop82" />
			<stop
   offset="0.4942"
   style="stop-color:#454545"
   id="stop84" />
			<stop
   offset="0.5875"
   style="stop-color:#505050"
   id="stop86" />
			<stop
   offset="0.6629"
   style="stop-color:#616161"
   id="stop88" />
			<stop
   offset="0.7276"
   style="stop-color:#777777"
   id="stop90" />
			<stop
   offset="0.7848"
   style="stop-color:#939393"
   id="stop92" />
			<stop
   offset="0.8353"
   style="stop-color:#B2B2B2"
   id="stop94" />
			<stop
   offset="0.8764"
   style="stop-color:#D2D2D2"
   id="stop96" />
			<stop
   offset="0.8998"
   style="stop-color:#CECECE"
   id="stop98" />
			<stop
   offset="0.9223"
   style="stop-color:#C3C3C3"
   id="stop100" />
			<stop
   offset="0.9446"
   style="stop-color:#AFAFAF"
   id="stop102" />
			<stop
   offset="0.9666"
   style="stop-color:#949494"
   id="stop104" />
			<stop
   offset="0.9884"
   style="stop-color:#717171"
   id="stop106" />
			<stop
   offset="1"
   style="stop-color:#5B5B5B"
   id="stop108" />
		</radialGradient>
		<path
   style="fill:url(#aigrd3);stroke:none"
   d="M 5.9,2 C 3.9,2 2.2,3.7 2.2,5.7 C 2.2,7.7 3.9,9.4 5.9,9.4 C 7.9,9.4 9.6,7.7 9.6,5.7 C 9.6,3.7 7.9,2 5.9,2 L 5.9,2 z M 5.9,8.6 C 4.3,8.6 3,7.3 3,5.7 C 3,4.1 4.3,2.8 5.9,2.8 C 7.5,2.8 8.8,4.1 8.8,5.7 C 8.8,7.3 7.4,8.6 5.9,8.6 z "
   id="path110" />
		<path
   d="M 14.1,5.7 C 14.1,8 16,9.8 18.2,9.8 C 20.5,9.8 22.3,7.9 22.3,5.7 C 22.3,3.4 20.4,1.6 18.2,1.6 C 15.9,1.6 14.1,3.5 14.1,5.7 L 14.1,5.7 z M 15.9,5.7 C 15.9,4.4 17,3.3 18.3,3.3 C 19.6,3.3 20.7,4.4 20.7,5.7 C 20.7,7 19.6,8.1 18.3,8.1 C 17,8.1 15.9,7 15.9,5.7 L 15.9,5.7 z "
   id="path112" />
		<radialGradient
   id="aigrd4"
   cx="18.1523"
   cy="5.6528001"
   r="3.5497"
   fx="18.1523"
   fy="5.6528001"
   gradientUnits="userSpaceOnUse">
			<stop
   offset="0"
   style="stop-color:#3C3C3C"
   id="stop115" />
			<stop
   offset="0.3633"
   style="stop-color:#3E3E3E"
   id="stop117" />
			<stop
   offset="0.4942"
   style="stop-color:#454545"
   id="stop119" />
			<stop
   offset="0.5875"
   style="stop-color:#505050"
   id="stop121" />
			<stop
   offset="0.6629"
   style="stop-color:#616161"
   id="stop123" />
			<stop
   offset="0.7276"
   style="stop-color:#777777"
   id="stop125" />
			<stop
   offset="0.7848"
   style="stop-color:#939393"
   id="stop127" />
			<stop
   offset="0.8353"
   style="stop-color:#B2B2B2"
   id="stop129" />
			<stop
   offset="0.8764"
   style="stop-color:#D2D2D2"
   id="stop131" />
			<stop
   offset="0.8998"
   style="stop-color:#CECECE"
   id="stop133" />
			<stop
   offset="0.9223"
   style="stop-color:#C3C3C3"
   id="stop135" />
			<stop
   offset="0.9446"
   style="stop-color:#AFAFAF"
   id="stop137" />
			<stop
   offset="0.9666"
   style="stop-color:#949494"
   id="stop139" />
			<stop
   offset="0.9884"
   style="stop-color:#717171"
   id="stop141" />
			<stop
   offset="1"
   style="stop-color:#5B5B5B"
   id="stop143" />
		</radialGradient>
		<path
   style="fill:url(#aigrd4);stroke:none"
   d="M 18.3,9.5 C 20.3,9.5 22,7.8 22,5.8 C 22,3.8 20.3,2.1 18.3,2.1 C 16.3,2.1 14.6,3.8 14.6,5.8 C 14.6,7.8 16.3,9.5 18.3,9.5 z M 18.3,2.9 C 19.9,2.9 21.2,4.2 21.2,5.8 C 21.2,7.4 19.9,8.7 18.3,8.7 C 16.7,8.7 15.4,7.4 15.4,5.8 C 15.4,4.2 16.7,2.9 18.3,2.9 L 18.3,2.9 z "
   id="path145" />
		<radialGradient
   id="aigrd5"
   cx="11.5034"
   cy="11.3452"
   r="9.2994003"
   fx="11.5034"
   fy="11.3452"
   gradientUnits="userSpaceOnUse">
			<stop
   offset="0"
   style="stop-color:#C5C5C5"
   id="stop148" />
			<stop
   offset="0.237"
   style="stop-color:#C8C8C8"
   id="stop150" />
			<stop
   offset="0.4082"
   style="stop-color:#D1D1D1"
   id="stop152" />
			<stop
   offset="0.5587"
   style="stop-color:#E1E1E1"
   id="stop154" />
			<stop
   offset="0.6964"
   style="stop-color:#F7F7F7"
   id="stop156" />
			<stop
   offset="0.736"
   style="stop-color:#FFFFFF"
   id="stop158" />
			<stop
   offset="0.8191"
   style="stop-color:#FCFCFC"
   id="stop160" />
			<stop
   offset="0.8812"
   style="stop-color:#F2F2F2"
   id="stop162" />
			<stop
   offset="0.9364"
   style="stop-color:#E2E2E2"
   id="stop164" />
			<stop
   offset="0.9875"
   style="stop-color:#CCCCCC"
   id="stop166" />
			<stop
   offset="1"
   style="stop-color:#C5C5C5"
   id="stop168" />
		</radialGradient>
		<path
   style="fill:url(#aigrd5);stroke:none"
   d="M 3.2,12.1 C 3.2,17 7.2,21 12.1,21 C 17,21 21,17 21,12.1 C 21,7.2 17,3.2 12.1,3.2 C 7.2,3.2 3.2,7.2 3.2,12.1 L 3.2,12.1 z M 8.6,12.1 C 8.6,10.2 10.2,8.6 12.1,8.6 C 14,8.6 15.6,10.2 15.6,12.1 C 15.6,14 14,15.6 12.1,15.6 C 10.2,15.6 8.6,14 8.6,12.1 z "
   id="path170" />
		<radialGradient
   id="aigrd6"
   cx="-30.6973"
   cy="-14.3955"
   r="12.8224"
   fx="-30.6973"
   fy="-14.3955"
   gradientTransform="matrix(0,-1,1,0,26.543,-18.6777)"
   gradientUnits="userSpaceOnUse">
			<stop
   offset="0"
   style="stop-color:#C40D0B"
   id="stop173" />
			<stop
   offset="5.031848e-002"
   style="stop-color:#C4110E"
   id="stop175" />
			<stop
   offset="0.1203"
   style="stop-color:#C31D18"
   id="stop177" />
			<stop
   offset="0.2019"
   style="stop-color:#C4352C"
   id="stop179" />
			<stop
   offset="0.2923"
   style="stop-color:#C3564C"
   id="stop181" />
			<stop
   offset="0.3887"
   style="stop-color:#C4807B"
   id="stop183" />
			<stop
   offset="0.4213"
   style="stop-color:#C4908F"
   id="stop185" />
			<stop
   offset="0.6337"
   style="stop-color:#C35D53"
   id="stop187" />
			<stop
   offset="1"
   style="stop-color:#C40D0B"
   id="stop189" />
		</radialGradient>
		<path
   style="fill:url(#aigrd6);stroke:none"
   d="M 4.2,16.2 L 8.9,13.5 C 9.4,14.4 9.8,14.8 10.6,15.2 L 8.3,20.1 C 6.8,19.5 4.8,17.5 4.2,16.2 L 4.2,16.2 z "
   id="path191" />
		<radialGradient
   id="aigrd7"
   cx="-2.1938"
   cy="-57.162601"
   r="12.8265"
   fx="-2.1938"
   fy="-57.162601"
   gradientTransform="matrix(-1,0,0,-1,9.9063,-45.2188)"
   gradientUnits="userSpaceOnUse">
			<stop
   offset="0"
   style="stop-color:#C40D0B"
   id="stop194" />
			<stop
   offset="8.831248e-002"
   style="stop-color:#C42921"
   id="stop196" />
			<stop
   offset="0.3933"
   style="stop-color:#C4908F"
   id="stop198" />
			<stop
   offset="0.4019"
   style="stop-color:#C48C89"
   id="stop200" />
			<stop
   offset="0.4705"
   style="stop-color:#C36960"
   id="stop202" />
			<stop
   offset="0.5427"
   style="stop-color:#C34B41"
   id="stop204" />
			<stop
   offset="0.6179"
   style="stop-color:#C4332B"
   id="stop206" />
			<stop
   offset="0.697"
   style="stop-color:#C4211B"
   id="stop208" />
			<stop
   offset="0.7818"
   style="stop-color:#C31512"
   id="stop210" />
			<stop
   offset="0.8763"
   style="stop-color:#C40F0C"
   id="stop212" />
			<stop
   offset="1"
   style="stop-color:#C40D0B"
   id="stop214" />
		</radialGradient>
		<path
   style="fill:url(#aigrd7);stroke:none"
   d="M 16.2,19.9 L 13.5,15.2 C 14.4,14.7 14.8,14.3 15.2,13.5 L 20.1,15.8 C 19.5,17.3 17.5,19.3 16.2,19.9 L 16.2,19.9 z "
   id="path216" />
		<radialGradient
   id="aigrd8"
   cx="37.6357"
   cy="-29.699699"
   r="12.8245"
   fx="37.6357"
   fy="-29.699699"
   gradientTransform="matrix(0,1,-1,0,-17.6563,-25.5215)"
   gradientUnits="userSpaceOnUse">
			<stop
   offset="0"
   style="stop-color:#C40D0B"
   id="stop219" />
			<stop
   offset="0.1318"
   style="stop-color:#C42C25"
   id="stop221" />
			<stop
   offset="0.4287"
   style="stop-color:#C48683"
   id="stop223" />
			<stop
   offset="0.4607"
   style="stop-color:#C4908F"
   id="stop225" />
			<stop
   offset="0.4967"
   style="stop-color:#C4837E"
   id="stop227" />
			<stop
   offset="0.6225"
   style="stop-color:#C3574D"
   id="stop229" />
			<stop
   offset="0.74"
   style="stop-color:#C3362D"
   id="stop231" />
			<stop
   offset="0.8457"
   style="stop-color:#C31E19"
   id="stop233" />
			<stop
   offset="0.9359"
   style="stop-color:#C4110E"
   id="stop235" />
			<stop
   offset="1"
   style="stop-color:#C40D0B"
   id="stop237" />
		</radialGradient>
		<path
   style="fill:url(#aigrd8);stroke:none"
   d="M 20,8 L 15.3,10.7 C 14.8,9.8 14.4,9.4 13.6,9 L 15.9,4.1 C 17.4,4.7 19.4,6.6 20,8 z "
   id="path239" />
		<radialGradient
   id="aigrd9"
   cx="12.1025"
   cy="12.1597"
   r="12.8245"
   fx="12.1025"
   fy="12.1597"
   gradientUnits="userSpaceOnUse">
			<stop
   offset="0.2191"
   style="stop-color:#C40D0B"
   id="stop242" />
			<stop
   offset="0.3816"
   style="stop-color:#C44D42"
   id="stop244" />
			<stop
   offset="0.5114"
   style="stop-color:#C47E78"
   id="stop246" />
			<stop
   offset="0.573"
   style="stop-color:#C4908F"
   id="stop248" />
			<stop
   offset="0.6184"
   style="stop-color:#C47E79"
   id="stop250" />
			<stop
   offset="0.7133"
   style="stop-color:#C34F45"
   id="stop252" />
			<stop
   offset="0.8427"
   style="stop-color:#C40D0B"
   id="stop254" />
		</radialGradient>
		<path
   style="fill:url(#aigrd9);stroke:none"
   d="M 8,4.2 L 10.7,8.9 C 9.8,9.4 9.4,9.8 9,10.6 L 4.1,8.3 C 4.7,6.8 6.6,4.8 8,4.2 z "
   id="path256" />
	</g>
	<g
   id="Layer_x0020_3"
   style="fill-rule:nonzero;stroke:#000000;stroke-miterlimit:4">
		<path
   style="fill:none;stroke:none"
   d="M 24,24 L 0,24 L 0,0 L 24,0 L 24,24 z "
   id="path259" />
	</g>
</svg>