<?xml version="1.0" encoding="UTF-8" standalone="no"?>
<!-- Created with Sodipodi ("http://www.sodipodi.com/") -->

<svg
   xmlns:dc="http://purl.org/dc/elements/1.1/"
   xmlns:cc="http://creativecommons.org/ns#"
   xmlns:rdf="http://www.w3.org/1999/02/22-rdf-syntax-ns#"
   xmlns:svg="http://www.w3.org/2000/svg"
   xmlns="http://www.w3.org/2000/svg"
   xmlns:xlink="http://www.w3.org/1999/xlink"
   xmlns:sodipodi="http://sodipodi.sourceforge.net/DTD/sodipodi-0.dtd"
   xmlns:inkscape="http://www.inkscape.org/namespaces/inkscape"
   id="svg602"
   sodipodi:version="0.32"
   width="48pt"
   height="48pt"
   xml:space="preserve"
   sodipodi:docname="gnome-fs-web.svg"
   inkscape:version="0.91 r13725"
   version="1.1"><metadata
     id="metadata145"><rdf:RDF><cc:Work
         rdf:about=""><dc:format>image/svg+xml</dc:format><dc:type
           rdf:resource="http://purl.org/dc/dcmitype/StillImage" /></cc:Work></rdf:RDF></metadata><defs
     id="defs604"><linearGradient
       id="linearGradient1287"><stop
         offset="0.0000000"
         style="stop-color:#ffffff;stop-opacity:1.0000000;"
         id="stop1289" /><stop
         offset="1.0000000"
         style="stop-color:#c2bfbf;stop-opacity:0.99607843;"
         id="stop1288" /></linearGradient><linearGradient
       id="linearGradient898"><stop
         style="stop-color:#000000;stop-opacity:0.74166667;"
         offset="0.0000000"
         id="stop900" /><stop
         style="stop-color:#000000;stop-opacity:0.0000000;"
         offset="1.0000000"
         id="stop902" /></linearGradient><linearGradient
       id="linearGradient888"><stop
         style="stop-color:#3d3d3d;stop-opacity:0.51666665;"
         offset="0.0000000"
         id="stop890" /><stop
         style="stop-color:#ffffff;stop-opacity:0.55833334;"
         offset="1.0000000"
         id="stop892" /></linearGradient><linearGradient
       id="linearGradient672"><stop
         style="stop-color:#d9dfd5;stop-opacity:1;"
         offset="0"
         id="stop673" /><stop
         style="stop-color:#ffffff;stop-opacity:1;"
         offset="1"
         id="stop674" /></linearGradient><linearGradient
       id="linearGradient616"><stop
         style="stop-color:#bfa673;stop-opacity:1.0000000;"
         offset="0.0000000"
         id="stop617" /><stop
         style="stop-color:#f0f0f0;stop-opacity:1.0000000;"
         offset="1.0000000"
         id="stop618" /></linearGradient><linearGradient
       xlink:href="#linearGradient616"
       id="linearGradient619"
       x1="0.41926342"
       y1="0.18983676"
       x2="0.91678953"
       y2="1.50409484"
       gradientUnits="objectBoundingBox"
       gradientTransform="scale(0.730143,1.369594)" /><radialGradient
       xlink:href="#linearGradient616"
       id="radialGradient620"
       cx="83.7103271"
       cy="144.164276"
       r="305.230225"
       fx="83.7103271"
       fy="144.164276"
       gradientTransform="scale(1.257427,0.795275)" /><linearGradient
       xlink:href="#linearGradient616"
       id="linearGradient621"
       x1="36.107239"
       y1="44.179695"
       x2="-1.1123854"
       y2="20.212824"
       gradientUnits="userSpaceOnUse"
       gradientTransform="scale(1.084598,0.922001)" /><radialGradient
       xlink:href="#linearGradient898"
       id="radialGradient632"
       cx="0.33214286"
       cy="0.62251657"
       r="0.32185856"
       fx="0.33214286"
       fy="0.62251657" /><radialGradient
       xlink:href="#linearGradient616"
       id="radialGradient634"
       cx="1.1638796"
       cy="0.83534139"
       r="1.3709123"
       fx="1.1638796"
       fy="0.83534139" /><linearGradient
       xlink:href="#linearGradient672"
       id="linearGradient676"
       x1="15.6870308"
       y1="18.9490681"
       x2="56.4882126"
       y2="55.0553169" /><linearGradient
       xlink:href="#linearGradient672"
       id="linearGradient740"
       x1="40.1527023"
       y1="35.1880341"
       x2="36.5803947"
       y2="18.5065861"
       gradientUnits="userSpaceOnUse" /><linearGradient
       xlink:href="#linearGradient888"
       id="linearGradient878"
       x1="1.0816108"
       y1="0.51442021"
       x2="-0.36504364"
       y2="0.49327964"
       gradientUnits="objectBoundingBox"
       gradientTransform="scale(0.901997,1.108651)"
       spreadMethod="pad" /><linearGradient
       xlink:href="#linearGradient888"
       id="linearGradient896"
       x1="0.51481462"
       y1="0.0077967593"
       x2="0.51481462"
       y2="0.54685849"
       spreadMethod="reflect"
       gradientUnits="objectBoundingBox" /><defs
       id="defs907"><linearGradient
         id="linearGradient622"><stop
           style="stop-color:#f8e29d;stop-opacity:0.4471;"
           offset="0"
           id="stop623" /><stop
           style="stop-color:#272d2d;stop-opacity:0.4784;"
           offset="1"
           id="stop624" /></linearGradient><linearGradient
         id="linearGradient617"><stop
           style="stop-color:#ffffff;stop-opacity:1;"
           offset="0"
           id="stop918" /><stop
           style="stop-color:#000000;stop-opacity:1;"
           offset="1"
           id="stop619" /></linearGradient><linearGradient
         id="linearGradient613"><stop
           style="stop-color:#ffffff;stop-opacity:0.6235;"
           offset="0"
           id="stop614" /><stop
           style="stop-color:#5d6567;stop-opacity:1;"
           offset="1"
           id="stop615" /></linearGradient><linearGradient
         id="linearGradient607"><stop
           style="stop-color:#d7d5d5;stop-opacity:1;"
           offset="0"
           id="stop608" /><stop
           style="stop-color:#000000;stop-opacity:0.4039;"
           offset="1"
           id="stop609" /></linearGradient><radialGradient
         xlink:href="#linearGradient622"
         id="radialGradient610" /><linearGradient
         xlink:href="#linearGradient617"
         id="linearGradient612"
         x1="-0.26619732"
         y1="-0.2180935"
         x2="1.07717049"
         y2="1.20107734"
         gradientTransform="matrix(1,-1.054768e-5,-2.212897e-8,1,6.882726e-9,-4.703892e-9)" /><radialGradient
         xlink:href="#linearGradient613"
         id="radialGradient616"
         cx="0.99938017"
         cy="1.1736089"
         r="1.10986722"
         fx="0.99938017"
         fy="1.1736089"
         gradientTransform="matrix(1.000001,1.020568e-7,2.121713e-5,0.999999,3.963748e-8,-1.000117e-8)" /><linearGradient
         xlink:href="#linearGradient617"
         id="linearGradient943"
         x1="-0.42741936"
         y1="0.90625"
         x2="-0.96774197"
         y2="0.7890625" /><linearGradient
         xlink:href="#linearGradient617"
         id="linearGradient626"
         x1="1.2993300"
         y1="1.1733478"
         x2="0.33747798"
         y2="0.12942465"
         gradientTransform="matrix(0.999728,-1.063720e-5,-1.320046e-7,1.000272,-3.469447e-16,-1.358505e-16)"
         gradientUnits="objectBoundingBox" /><linearGradient
         xlink:href="#linearGradient607"
         id="linearGradient687"
         x1="1.22036803"
         y1="1.05203915"
         x2="-0.73790783"
         y2="-7.41785839e-2"
         gradientTransform="matrix(1,2.268336e-6,-1.975559e-5,1,5.713033e-8,3.856326e-8)" /><linearGradient
         xlink:href="#linearGradient622"
         id="linearGradient742" /></defs><sodipodi:namedview
       id="namedview952"
       inkscape:zoom="5.3769580"
       inkscape:cx="24.865590"
       inkscape:cy="18.133934"
       inkscape:window-width="640"
       inkscape:window-height="497"
       inkscape:window-x="311"
       inkscape:window-y="96" /><sodipodi:namedview
       id="namedview1083"
       inkscape:zoom="4.6552648"
       inkscape:cx="23.878391"
       inkscape:cy="9.2081570"
       inkscape:window-width="719"
       inkscape:window-height="501"
       inkscape:window-x="613"
       inkscape:window-y="341" /><defs
       id="defs3"><linearGradient
         id="linearGradient1068"><stop
           offset="0.0000000"
           style="stop-color:#d2d2d2;stop-opacity:1.0000000;"
           id="stop1070" /><stop
           offset="1.0000000"
           style="stop-color:#ffffff;stop-opacity:1.0000000;"
           id="stop1069" /></linearGradient><linearGradient
         id="linearGradient1065"
         x1="0.0000000"
         y1="0.50000000"
         x2="1.0000000"
         y2="0.50000000"
         gradientUnits="objectBoundingBox"
         spreadMethod="pad"
         xlink:href="#linearGradient1287" /><linearGradient
         id="linearGradient1060"><stop
           offset="0.0000000"
           style="stop-color:#ffffff;stop-opacity:1.0000000;"
           id="stop1063" /><stop
           offset="0.50000000"
           style="stop-color:#acabaa;stop-opacity:0.99607843;"
           id="stop1062" /><stop
           offset="1.0000000"
           style="stop-color:#5a5856;stop-opacity:0.99607843;"
           id="stop1061" /></linearGradient><linearGradient
         id="linearGradient645"><stop
           style="stop-color:#aca597;stop-opacity:1.0000000;"
           offset="0.0000000"
           id="stop646" /><stop
           style="stop-color:#ffffff;stop-opacity:1.0000000;"
           offset="1.0000000"
           id="stop647" /></linearGradient><linearGradient
         id="linearGradient593"><stop
           style="stop-color:#478acf;stop-opacity:1.0000000;"
           offset="0.0000000"
           id="stop594" /><stop
           style="stop-color:#65c6f7;stop-opacity:1.0000000;"
           offset="1.0000000"
           id="stop595" /></linearGradient><linearGradient
         id="linearGradient574"><stop
           style="stop-color:#85ad92;stop-opacity:1.0000;"
           offset="0"
           id="stop575" /><stop
           style="stop-color:#559db2;stop-opacity:0.7725;"
           offset="1"
           id="stop576" /></linearGradient><linearGradient
         id="linearGradient570"><stop
           style="stop-color:#000000;stop-opacity:1.0000000;"
           offset="0.0000000"
           id="stop571" /><stop
           style="stop-color:#ffffff;stop-opacity:0.0000000;"
           offset="1.0000000"
           id="stop572" /></linearGradient><linearGradient
         id="linearGradient573"
         xlink:href="#linearGradient1060"
         x1="0.61777318"
         y1="-0.78747839"
         x2="0.66039586"
         y2="-0.033485886" /><linearGradient
         id="linearGradient1213"
         xlink:href="#linearGradient1068"
         x1="1.0192926"
         y1="0.99115056"
         x2="0.49839231"
         y2="0.41592926" /><radialGradient
         id="radialGradient581"
         xlink:href="#linearGradient570"
         cx="0.78290993"
         cy="0.62068933"
         r="0.83833146"
         fx="0.78290993"
         fy="0.62068933" /><linearGradient
         id="linearGradient580"
         xlink:href="#linearGradient1068"
         x1="1.0723866"
         y1="0.85896289"
         x2="0.85338652"
         y2="0.42466211" /><linearGradient
         xlink:href="#linearGradient1060"
         id="linearGradient901"
         x1="-0.12911281"
         y1="0.028423717"
         x2="0.084990859"
         y2="0.11342888" /><linearGradient
         xlink:href="#linearGradient570"
         id="linearGradient902"
         x1="0.25850341"
         y1="0.19907406"
         x2="0.55442178"
         y2="0.93055558" /><linearGradient
         xlink:href="#linearGradient1068"
         id="linearGradient916"
         x1="0.14831461"
         y1="-1.6875000"
         x2="0.43370786"
         y2="1.8125000" /><defs
         id="defs890"><linearGradient
           id="linearGradient922"
           x1="0.0000000"
           y1="0.50000000"
           x2="1.0000000"
           y2="0.50000000"
           gradientUnits="objectBoundingBox"
           spreadMethod="pad"
           xlink:href="#linearGradient1065" /><linearGradient
           id="linearGradient908"
           x1="0.0000000"
           y1="0.50000000"
           x2="1.0000000"
           y2="0.50000000"
           gradientUnits="objectBoundingBox"
           spreadMethod="pad"
           xlink:href="#linearGradient1060" /><linearGradient
           id="linearGradient894"
           x1="0.0000000"
           y1="0.50000000"
           x2="1.0000000"
           y2="0.50000000"
           gradientUnits="objectBoundingBox"
           spreadMethod="pad"
           xlink:href="#linearGradient1068" /><linearGradient
           xlink:href="#linearGradient894"
           id="linearGradient897"
           x1="0.59550560"
           y1="-0.33587787"
           x2="0.61348313"
           y2="1.1908396" /><linearGradient
           xlink:href="#linearGradient894"
           id="linearGradient1119"
           x1="0.96449792"
           y1="1.0278323"
           x2="0.46738392"
           y2="0.21800731" /><linearGradient
           xlink:href="#linearGradient908"
           id="linearGradient907"
           x1="0.57078654"
           y1="2.3770492"
           x2="0.33258426"
           y2="0.49180329" /><linearGradient
           xlink:href="#linearGradient922"
           id="linearGradient921"
           x1="0.47058824"
           y1="0.15384616"
           x2="0.46547315"
           y2="0.98380566" /><linearGradient
           xlink:href="#linearGradient922"
           id="linearGradient948" /><defs
           id="defs987"><linearGradient
             id="linearGradient855"
             x1="0.0000000"
             y1="0.50000000"
             x2="1.0000000"
             y2="0.50000000"
             gradientUnits="objectBoundingBox"
             spreadMethod="pad"
             xlink:href="#linearGradient908" /><linearGradient
             id="linearGradient1188"
             x1="0.0000000"
             y1="0.50000000"
             x2="1.0000000"
             y2="0.50000000"
             gradientUnits="objectBoundingBox"
             spreadMethod="pad"
             xlink:href="#linearGradient922" /><linearGradient
             id="linearGradient831"><stop
               style="stop-color:#94897f;stop-opacity:1.0000000;"
               offset="0.0000000"
               id="stop832" /><stop
               style="stop-color:#fff5fe;stop-opacity:1.0000000;"
               offset="1.0000000"
               id="stop833" /></linearGradient><linearGradient
             xlink:href="#linearGradient1188"
             id="linearGradient834"
             x1="0.87550199"
             y1="0.34817815"
             x2="-0.29317269"
             y2="0.93522269"
             gradientUnits="objectBoundingBox"
             spreadMethod="pad" /><radialGradient
             xlink:href="#linearGradient1188"
             id="radialGradient835"
             r="0.55628061"
             fy="0.28125"
             fx="0.59090906"
             cy="0.28125"
             cx="0.59090906"
             spreadMethod="pad" /><linearGradient
             xlink:href="#linearGradient1188"
             id="linearGradient893"
             x1="0.12793733"
             y1="0.76923078"
             x2="0.49608356"
             y2="0.70850199" /><linearGradient
             xlink:href="#linearGradient855"
             id="linearGradient625"
             x1="0.035955057"
             y1="1.0276498"
             x2="0.053932585"
             y2="-0.35944700" /><linearGradient
             xlink:href="#linearGradient1188"
             id="linearGradient627"
             x1="1.2826855"
             y1="0.12550607"
             x2="-0.15547703"
             y2="0.96356273" /><radialGradient
             xlink:href="#linearGradient1188"
             id="radialGradient628"
             r="1.59822237"
             fy="0.4866707"
             fx="0.36789617"
             cy="0.4866707"
             cx="0.36789617"
             gradientTransform="scale(0.877379,1.139758)" /><linearGradient
             xlink:href="#linearGradient1188"
             id="linearGradient628"
             x1="0.76923078"
             y1="0.14979757"
             x2="0.41909814"
             y2="0.73279351" /></defs><sodipodi:namedview
           id="namedview898"
           pagecolor="#ffffff"
           bordercolor="#666666"
           borderopacity="1.0"
           inkscape:pageopacity="0.0"
           inkscape:pageshadow="2"
           inkscape:zoom="3.4732669"
           inkscape:cx="50.051177"
           inkscape:cy="18.096983"
           inkscape:window-width="1022"
           inkscape:window-height="670"
           showguides="false"
           snaptoguides="false"
           showgrid="false"
           snaptogrid="false"
           inkscape:window-x="0"
           inkscape:window-y="25"><sodipodi:guide
             orientation="vertical"
             position="28.705556"
             id="guide879" /><sodipodi:guide
             orientation="horizontal"
             position="30.130655"
             id="guide880" /></sodipodi:namedview></defs><sodipodi:namedview
         id="namedview1003"
         pagecolor="#ffffff"
         bordercolor="#666666"
         borderopacity="1.0"
         inkscape:pageopacity="0.0"
         inkscape:pageshadow="2"
         inkscape:zoom="1.3368738"
         inkscape:cx="24.541029"
         inkscape:cy="14.368596"
         inkscape:window-width="640"
         inkscape:window-height="499"
         showguides="true"
         snaptoguides="true"
         inkscape:window-x="138"
         inkscape:window-y="169" /><linearGradient
         xlink:href="#linearGradient1060"
         id="linearGradient1304"
         x1="-0.66086954"
         y1="0.46460176"
         x2="0.97391301"
         y2="0.51769912" /><linearGradient
         xlink:href="#linearGradient1060"
         id="linearGradient1322"
         x1="0.018475750"
         y1="0.20707071"
         x2="0.16859123"
         y2="0.76767677" /><linearGradient
         xlink:href="#linearGradient1065"
         id="linearGradient909"
         x1="-0.23333344"
         y1="0.19911495"
         x2="1.1666667"
         y2="1.0796462" /><linearGradient
         xlink:href="#linearGradient570"
         id="linearGradient977"
         x1="0.25510204"
         y1="0.21759260"
         x2="0.67687070"
         y2="0.79166681" /><linearGradient
         xlink:href="#linearGradient1065"
         id="linearGradient1043"
         x1="-0.060439561"
         y1="0.37610620"
         x2="0.093406595"
         y2="0.37610620" /><linearGradient
         xlink:href="#linearGradient1065"
         id="linearGradient925"
         x1="0.52674896"
         y1="0.083333336"
         x2="0.65226340"
         y2="0.56666666" /></defs><defs
       id="defs630"><linearGradient
         id="linearGradient728"><stop
           style="stop-color:#a6d5ff;stop-opacity:1;"
           offset="0"
           id="stop729" /><stop
           style="stop-color:#fff2ff;stop-opacity:0;"
           offset="1"
           id="stop730" /></linearGradient><linearGradient
         id="linearGradient666"><stop
           style="stop-color:#deffe5;stop-opacity:0;"
           offset="0"
           id="stop667" /><stop
           style="stop-color:#d5eada;stop-opacity:0.9686;"
           offset="1"
           id="stop668" /></linearGradient><linearGradient
         id="linearGradient632"><stop
           style="stop-color:#2192ca;stop-opacity:1;"
           offset="0"
           id="stop633" /><stop
           style="stop-color:#373752;stop-opacity:1;"
           offset="1"
           id="stop634" /></linearGradient><radialGradient
         xlink:href="#linearGradient728"
         id="radialGradient635"
         cx="-0.30223033"
         cy="0.14848523"
         r="1.49821532"
         fx="-0.30223033"
         fy="0.14848523" /><linearGradient
         xlink:href="#linearGradient666"
         id="linearGradient665"
         x1="1.18320608"
         y1="0.7109375"
         x2="-0.25190836"
         y2="7.81250279e-3" /><radialGradient
         xlink:href="#linearGradient666"
         id="radialGradient669"
         cx="1.18120837"
         cy="0.93749976"
         r="0.37836838"
         fx="1.18120837"
         fy="0.93749976"
         gradientUnits="objectBoundingBox" /><linearGradient
         xlink:href="#linearGradient666"
         id="linearGradient1324"
         x1="1.01449275"
         y1="0.78905517"
         x2="7.24637285e-2"
         y2="-0.16406265" /><radialGradient
         xlink:href="#linearGradient666"
         id="radialGradient673"
         cx="68.4203796"
         cy="53.6307869"
         r="28.5600071"
         fx="68.4203796"
         fy="53.6307869"
         gradientUnits="userSpaceOnUse"
         gradientTransform="scale(0.991342,1.008734)" /><linearGradient
         xlink:href="#linearGradient666"
         id="linearGradient724"
         x1="1.26760578"
         y1="0.39062136"
         x2="-0.64788735"
         y2="0.25" /><linearGradient
         xlink:href="#linearGradient632"
         id="linearGradient725"
         x1="1.58296037"
         y1="26.4798145"
         x2="46.1758385"
         y2="82.2966461"
         gradientUnits="userSpaceOnUse" /><linearGradient
         xlink:href="#linearGradient666"
         id="linearGradient726"
         x1="1.19055109e-2"
         y1="0.93750215"
         x2="3.57143134e-2"
         y2="0.37500006" /><linearGradient
         xlink:href="#linearGradient666"
         id="linearGradient727"
         x1="4.58711162e-2"
         y1="0.85156238"
         x2="0.10091742"
         y2="0.75781232" /></defs><sodipodi:namedview
       id="namedview1330" /></defs><sodipodi:namedview
     id="base"
     inkscape:zoom="4.4810633"
     inkscape:cx="32.176048"
     inkscape:cy="50.144115"
     inkscape:window-width="782"
     inkscape:window-height="508"
     inkscape:window-x="259"
     inkscape:window-y="36"
     showguides="false"
     snaptoguides="true"
     showgrid="false"
     inkscape:window-maximized="0"
     inkscape:current-layer="svg602"><sodipodi:guide
       orientation="vertical"
       position="72.263738"
       id="guide627" /></sodipodi:namedview><path
     style="fill-opacity:0.46341464;fill-rule:evenodd;stroke-width:0.12500000;"
     d="M 14.735318,54.181384 L 49.512449,54.627677 L 52.513085,50.928300 L 14.735518,49.946456 L 14.735318,54.181384 z "
     id="path1031"
     sodipodi:nodetypes="ccccc" /><path
     style="fill:url(#linearGradient909);fill-opacity:0.75000000;fill-rule:evenodd;stroke:#000000;stroke-width:1.5133644;"
     d="M 11.879045,54.002312 L 47.842166,53.823795 L 47.842166,50.016003 L 12.008282,50.016003 L 11.879045,54.002312 z "
     id="path974"
     sodipodi:nodetypes="ccccc" /><path
     style="fill:url(#linearGradient1043);fill-opacity:0.75000000;fill-rule:evenodd;stroke-width:0.11985309;"
     d="M 11.117141,53.228277 L 48.276508,53.228277 L 48.276508,50.796453 L 11.263217,50.796453 L 11.117141,53.228277 z "
     id="path1042"
     sodipodi:nodetypes="ccccc" /><path
     style="fill:url(#linearGradient925);fill-opacity:0.75000000;fill-rule:evenodd;stroke-width:0.11985309;"
     d="M 11.163949,53.221662 L 48.591093,53.043145 L 48.591093,50.611320 L 11.042254,50.611320 L 11.163949,53.221662 z "
     id="path924"
     sodipodi:nodetypes="ccccc" /><g
     id="g1290"><path
       style="fill:#7d7d7d;fill-rule:evenodd;stroke:#000000;stroke-opacity:1.0000000;stroke-width:1pt;stroke-linejoin:round;stroke-linecap:butt;fill-opacity:1.0000000;"
       d="M 27.032967,45.659341 L 27.032967,49.615385 L 18.791209,49.615385 L 18.791209,54.395605 L 40.549451,54.395605 L 40.549451,49.615384 L 32.637363,49.615384 L 32.637363,45.659341 L 27.032967,45.659341 z "
       id="path877"
       sodipodi:nodetypes="ccccccccc" /><path
       style="fill:url(#linearGradient896);fill-rule:evenodd;stroke:none;stroke-opacity:1.0000000;stroke-width:1pt;stroke-linejoin:round;stroke-linecap:butt;fill-opacity:1.0000000;"
       d="M 19.343158,53.859891 L 39.931319,53.859891 L 39.931319,50.233516 L 19.301949,50.233516 L 19.343158,53.859891 z "
       id="path895"
       sodipodi:nodetypes="ccccc" /><path
       style="fill:url(#linearGradient878);fill-rule:evenodd;stroke:none;stroke-opacity:1.0000000;stroke-width:1pt;stroke-linejoin:round;stroke-linecap:butt;fill-opacity:1.0000000;"
       d="M 27.755582,46.860640 L 27.645692,50.194159 L 32.000030,50.194157 L 31.945085,46.860640 L 27.755582,46.860640 z "
       id="path887"
       sodipodi:nodetypes="ccccc" /><path
       style="fill:url(#radialGradient632);fill-rule:evenodd;stroke:none;stroke-opacity:1;stroke-width:1pt;stroke-linejoin:miter;stroke-linecap:butt;fill-opacity:1.0000000;"
       d="M 30.000000,47.142857 L 30.000000,51.868132 L 35.494505,51.868132 L 39.010989,50.769230 L 31.804945,50.329670 L 31.594780,44.175824 L 30.000000,47.142857 z "
       id="path1081"
       sodipodi:nodetypes="ccccccc" /></g><g
     style="overflow:visible;color-interpolation:linearRGB"
     id="g6785"
     transform="matrix(0.98578373,0,0,0.98578373,7.1971958,1.0821219)"><g
       style="font-size:12px;opacity:0.2;stroke:#000000"
       id="g157"><path
         id="path158"
         d="m 12.143,40.313 c 6.865,-2.226 22.623,-3.224 35.194,-2.229 0.853,0.068 1.689,0.421 2.445,0.225 1.19,-0.31 1.19,7.291 0.029,7.208 -2.327,0.309 -4.896,0.552 -7.595,0.722 -0.044,0.367 -7.173,5.144 -7.173,5.144 0,0 -9.716,-5.011 -12.563,-5.236 C 9.907,45.151 5.279,42.54 12.143,40.313 Z"
         inkscape:connector-curvature="0"
         style="stroke:none" /></g><g
       style="font-size:12px;stroke:#000000"
       id="g159"><path
         id="path160"
         d="M 0,22.836 C 0,10.225 10.225,0 22.837,0 35.449,0 45.672,10.225 45.672,22.836 45.672,35.447 35.449,45.673 22.837,45.673 10.225,45.673 0,35.448 0,22.836 Z"
         inkscape:connector-curvature="0"
         style="stroke:none" /></g><g
       style="font-size:12px;stroke:#000000"
       id="g161"><path
         id="path162"
         d="m 1.794,22.836 c 0,-11.621 9.421,-21.042 21.042,-21.042 11.622,0 21.042,9.421 21.042,21.042 0,11.622 -9.42,21.042 -21.042,21.042 C 11.215,43.879 1.794,34.458 1.794,22.836 Z"
         inkscape:connector-curvature="0"
         style="fill:#59f0f0;stroke:none" /></g><g
       style="font-size:12px;stroke:#000000"
       id="g163"><g
         id="g164"><g
           id="g165"><path
             id="path166"
             d="m 29.464,42.591 c 0.258,-1.094 0.837,-3.409 -0.193,-3.603 -1.03,-0.192 -2.96,-0.322 -3.539,-0.965 -0.58,-0.644 -1.159,-0.644 -1.544,-0.901 -0.386,-0.258 -0.965,-1.094 -0.386,-1.866 0.579,-0.772 0.45,-1.544 -0.322,-1.994 -0.772,-0.452 -1.223,0.128 -1.866,0.192 -0.644,0.064 -2.188,-0.965 -3.347,-0.965 -1.159,0 -2.252,0 -2.445,-0.644 -0.708,0.45 -4.955,-0.322 -4.762,-1.609 -0.451,-0.45 -2.124,-2.316 -2.574,-2.959 0.064,0.514 0.45,1.608 0.836,1.93 C 8.228,28.435 7.327,27.084 7.263,26.053 6.748,25.602 5.461,23.223 5.655,22.514 5.848,21.806 6.041,19.296 6.427,19.232 6.813,19.168 6.492,18.847 6.3,18.46 6.107,18.074 5.978,17.43 5.978,17.108 c 0,-0.321 0.322,-1.158 0,-1.222 -0.322,-0.064 -1.03,-0.515 -0.579,-0.515 0.45,0 0.837,0.258 0.837,-0.193 0,-0.45 -0.258,-1.673 -0.451,-1.866 C 5.593,13.119 5.657,13.183 5.271,13.44 4.885,13.697 4.499,13.762 4.434,13.569 4.369,13.376 4.498,13.44 4.82,12.99 5.142,12.539 5.914,11.252 6.172,10.802 6.429,10.352 6.365,10.931 7.201,9.966 8.037,9.001 8.488,8.1 8.488,9.001 c 0,0.901 0.193,1.288 0.708,1.288 0.515,0 0.579,-0.193 0.644,0.192 0.064,0.387 0.128,0.837 0.644,0.644 0.515,-0.192 0.965,0.064 1.223,-0.192 0.257,-0.259 -0.193,-0.516 0.128,-0.58 0.323,-0.064 0.451,0.515 0.58,0.064 0.128,-0.45 -0.064,-1.159 0.386,-0.708 0.45,0.451 0.579,0.515 0.9,0.322 0.322,-0.194 1.352,-0.257 0.451,0.322 -0.901,0.58 -0.966,0.515 -1.094,1.094 -0.128,0.579 -0.193,0.386 -0.515,1.03 -0.321,0.643 -0.965,1.287 -0.128,1.737 0.836,0.451 1.93,0.579 1.93,0.579 0,0 0.901,-0.708 0.772,0.063 -0.128,0.773 -0.193,1.224 0.257,1.095 0.451,-0.129 1.224,-0.064 0.708,-0.644 -0.515,-0.579 -0.451,-0.193 -0.257,-1.03 0.192,-0.836 0.064,-0.771 -0.194,-1.158 -0.257,-0.386 -0.9,-1.609 -0.257,-1.673 0.644,-0.064 1.159,-0.257 1.352,0.064 0.193,0.322 0.836,0.901 1.094,0.58 0.258,-0.321 -0.064,-1.223 0.9,-0.58 0.966,0.644 -0.064,0.966 0.966,0.966 1.029,0 1.995,-0.065 1.995,0.192 0,0.258 -0.708,1.48 -1.223,1.673 -0.515,0.193 -0.708,-0.257 -0.901,0.322 -0.193,0.579 -0.837,1.802 -0.45,1.351 0.385,-0.45 1.029,-1.416 1.093,-0.837 0.064,0.58 0,1.03 0.644,0.966 0.643,-0.064 1.608,-0.643 0.772,0.193 -0.837,0.836 -0.901,1.416 -0.837,0.836 0.064,-0.579 0.064,-0.901 -0.451,-0.128 -0.514,0.772 -0.643,1.351 -0.386,1.351 0.257,0 0.257,0.193 -0.064,0.386 -0.322,0.193 -0.515,1.094 -0.708,1.608 -0.193,0.515 -0.579,1.094 -0.193,1.159 0.386,0.064 0.257,1.029 0.257,1.029 0,0 -1.738,1.931 -1.094,2.51 0.644,0.579 1.416,1.479 1.094,1.673 -0.322,0.192 -1.094,-1.03 -1.287,-1.223 -0.192,-0.192 -2.123,-0.451 -2.252,-0.128 -0.128,0.321 0.322,0.579 0,0.643 -0.321,0.064 -1.48,0.323 -1.93,0.579 -0.45,0.257 -0.579,1.094 -0.515,1.416 0.064,0.322 0.386,3.088 1.866,2.766 1.48,-0.32 1.608,-0.449 1.351,-1.093 l 1.159,-0.45 c 0,0 -0.257,1.866 0.322,1.93 0.58,0.064 1.416,-0.129 1.608,-0.129 0.194,0 0.644,1.673 1.03,1.802 0.386,0.129 1.48,0 2.124,-0.45 0.643,-0.449 0.965,0.579 1.029,0.064 0.064,-0.514 0.771,-1.608 1.415,-1.866 0,0.45 0,0.901 0.387,0.772 0.386,-0.128 0.128,-0.965 0.128,-0.965 0,0 2.574,0.128 2.574,-0.644 0,0 1.416,-0.387 1.738,0.064 0.192,-0.45 0.514,-0.064 1.029,0.064 0.515,0.128 0.837,-0.322 1.545,-0.644 0.707,-0.321 2.252,-0.064 2.445,0.45 0.192,0.516 0.578,1.029 0.836,0.129 l 1.48,-0.386 c 0,0 0.837,-0.837 1.415,-0.901 0.579,-0.064 1.159,-0.45 1.224,-0.064 0.063,0.385 -0.193,1.93 -0.579,2.251 -0.387,0.321 -0.193,0.58 -0.064,0.901 0.129,0.322 -0.193,2.059 -0.451,2.381 -0.258,0.322 0,0.386 -0.515,0.836 -0.515,0.451 -0.772,1.094 -0.966,1.48 -0.191,0.386 -0.514,1.479 -1.028,1.931 -0.515,0.45 -0.837,0.965 -0.837,0.965 -0.71,0.584 -2.576,2.835 -6.051,3.35 z"
             inkscape:connector-curvature="0"
             style="fill:#2f9e32;stroke:none" /></g><g
           id="g167"><path
             id="path168-0"
             d="m 19.04,28.114 c 0.386,-0.193 0.45,-0.258 0.836,-0.258 0.386,0 1.608,0.064 1.995,0.064 0.387,0 0.515,0.385 0.128,0.45 -0.385,0.064 -1.029,-0.193 -1.479,-0.193 -0.451,0 -1.223,0.258 -1.48,-0.063 z"
             inkscape:connector-curvature="0"
             style="fill:#2f9e32;stroke:none" /></g><g
           id="g169"><path
             id="path170"
             d="m 23.416,27.92 c 0.193,-0.322 1.029,-0.514 1.416,-0.322 0.386,0.193 -0.837,0.901 -1.159,0.837 -0.322,-0.064 -0.257,-0.515 -0.257,-0.515 z"
             inkscape:connector-curvature="0"
             style="fill:#2f9e32;stroke:none" /></g><g
           id="g171"><path
             id="path172"
             d="m 22,13.635 c 0,0 0.193,0.579 0.064,0.836 -0.128,0.258 0.579,-0.128 1.094,-0.128 0.514,0 0.192,-0.193 0.064,-0.579 C 23.093,13.377 22.386,13.635 22,13.635 Z"
             inkscape:connector-curvature="0"
             style="fill:#2f9e32;stroke:none" /></g><g
           id="g173"><path
             id="path174"
             d="m 15.243,6.749 c 0.386,-0.128 0.45,-0.45 1.287,0 0.836,0.451 0.9,0.001 1.608,0.708 0.708,0.708 1.93,1.93 3.475,1.351 C 21.29,8.036 20.776,7.843 20.841,7.135 20.905,6.427 21.034,5.397 21.034,5.397 L 20.39,5.655 20.326,5.14 c 0,0 -2.252,-0.45 -2.703,-0.386 -0.45,0.063 -0.45,-0.258 -0.772,-0.258 -0.322,0 -0.386,0.515 -0.644,0.515 -0.258,0 -1.093,-0.386 -0.965,0.129 0.128,0.514 0.322,0.643 0.064,0.965 -0.256,0.322 -0.063,0.644 -0.063,0.644 z"
             inkscape:connector-curvature="0"
             style="fill:#2f9e32;stroke:none" /></g><g
           id="g175"><path
             id="path176"
             d="m 13.828,8.679 c 0.257,-0.386 0.515,-0.643 0.579,-0.386 0.064,0.258 0.128,0.515 0.837,0.322 0.708,-0.193 0.9,-0.064 1.158,0.128 0.258,0.193 0.901,0.257 0.901,0.579 0,0.321 -0.257,0.515 -0.515,0.257 -0.258,-0.258 -0.644,-0.643 -0.644,-0.322 0,0.322 0.193,0.966 0.837,0.901 0.644,-0.064 0.836,0.322 0.322,0.322 -0.514,0 -0.386,0.192 -0.708,0.258 -0.322,0.063 -0.644,-0.387 -0.966,-0.258 0,0 0.129,-0.901 -0.257,-0.965 -0.386,-0.064 -0.515,0.128 -0.515,0.128 0,0 0.064,-0.321 -0.258,-0.45 -0.322,-0.129 -0.45,0.192 -0.837,0.192 -0.385,0.002 -0.707,-1.092 0.066,-0.706 z"
             inkscape:connector-curvature="0"
             style="fill:#2f9e32;stroke:none" /></g><g
           id="g177"><path
             id="path178"
             d="m 10.031,6.042 c 0,0 0.064,0.386 0.258,0.322 0.193,-0.064 0.965,-0.643 1.479,-1.029 0.515,-0.387 0.966,-0.773 0.901,-0.966 -0.064,-0.194 -2.06,1.093 -2.638,1.673 z"
             inkscape:connector-curvature="0"
             style="fill:#2f9e32;stroke:none" /></g><g
           id="g179"><path
             id="path180"
             d="M 9.258,6.685 C 9.569,6.581 9.066,7.2 8.679,7.65 8.293,8.101 8.036,8.101 7.65,8.551 7.264,9.001 6.62,9.516 6.363,9.774 c -0.257,0.257 -0.772,0.642 -0.772,0.642 0,0 3.088,-3.538 3.667,-3.731 z"
             inkscape:connector-curvature="0"
             style="fill:#2f9e32;stroke:none" /></g><g
           id="g181"><path
             id="path182"
             d="m 21.742,2.051 c -0.064,0.387 -0.386,0.58 0.128,0.58 0.515,0 2.574,0.064 3.089,0.579 0.515,0.514 2.316,0.257 2.767,-0.129 C 28.177,2.695 27.533,2.567 26.89,2.631 26.246,2.695 25.667,2.695 25.281,2.503 24.895,2.31 24.444,2.181 24.444,1.924 23.608,1.859 22.128,1.859 21.742,2.051 Z"
             inkscape:connector-curvature="0"
             style="fill:#2f9e32;stroke:none" /></g><g
           id="g183"><path
             id="path184"
             d="m 28.306,2.438 c 0,0 1.029,0.772 0.772,0.836 -0.257,0.064 -0.9,0.064 -0.9,0.064 0,0 0.644,0.063 0.965,0.321 0.322,0.258 0.193,0.708 0.901,0.901 0.708,0.193 0.9,1.094 1.223,1.352 0.322,0.257 0.065,-0.322 0.579,-0.192 0.515,0.128 1.866,0.965 1.48,1.093 -0.387,0.129 -0.515,0.644 0.192,1.03 0.709,0.386 1.48,0.708 1.673,1.158 C 35.513,8.486 35.642,7.649 35.063,7.328 34.484,7.007 33.711,6.684 33.583,6.169 33.455,5.655 33.391,5.205 33.455,4.818 32.167,3.725 28.756,2.502 28.306,2.438 Z"
             inkscape:connector-curvature="0"
             style="fill:#2f9e32;stroke:none" /></g><g
           id="g185"><path
             id="path186"
             d="m 35.899,6.363 c 0.129,0.515 0.516,2.316 0.129,2.574 -0.386,0.257 0,0.386 0.258,0.643 0.257,0.257 0.321,0.128 0.707,0.708 0.387,0.58 0.708,1.03 0.708,1.802 0,0.773 0.515,1.48 0.773,1.93 0.257,0.451 1.866,1.673 1.866,2.317 0,0.643 -0.064,1.287 0.644,1.415 0.707,0.129 1.028,0.193 1.222,0.515 0.193,0.322 0.772,0.322 1.094,0.387 C 42.914,15.887 41.241,10.61 35.899,6.363 Z"
             inkscape:connector-curvature="0"
             style="fill:#2f9e32;stroke:none" /></g><g
           id="g187"><path
             id="path188"
             d="m 22.965,5.334 0,0.257 0.836,0.129 0,-0.644 -1.094,-0.192 0.258,0.45 z"
             inkscape:connector-curvature="0"
             style="fill:#2f9e32;stroke:none" /></g><g
           id="g189"><path
             id="path190"
             d="m 27.277,4.497 c -0.322,0 -0.065,0.322 0.321,0.387 0.387,0.064 0.708,0 1.223,0.064 0.515,0.064 0.902,0.128 1.03,0.387 0.129,0.257 0.451,0.257 0.451,0 0,-0.258 0.064,-0.579 -0.515,-0.644 C 29.208,4.627 28.564,4.562 28.243,4.498 27.922,4.434 27.277,4.497 27.277,4.497 Z"
             inkscape:connector-curvature="0"
             style="fill:#2f9e32;stroke:none" /></g><g
           id="g191"><path
             id="path192"
             d="m 28.5,5.527 0.772,0 0,0.642 L 28.5,5.527 Z"
             inkscape:connector-curvature="0"
             style="fill:#2f9e32;stroke:none" /></g><g
           id="g193"><path
             id="path194"
             d="m 11.575,9.837 c 0,0 -0.193,0.516 -0.451,0.516 -0.258,0 -0.708,-0.579 -0.257,-0.772 0.451,-0.194 0.708,0.256 0.708,0.256 z"
             inkscape:connector-curvature="0"
             style="fill:#2f9e32;stroke:none" /></g><g
           id="g195"><path
             id="path196"
             d="M 10.609,9.13 C 10.288,9.387 10.095,9.644 9.901,9.58 9.709,9.516 10.159,9.001 10.417,8.872 10.674,8.744 10.609,9.13 10.609,9.13 Z"
             inkscape:connector-curvature="0"
             style="fill:#2f9e32;stroke:none" /></g><g
           id="g197"><path
             id="path198"
             d="m 11.061,8.358 0.386,-0.129 0.515,0.579 0.451,0 -0.129,0.708 -0.258,0 -0.965,-1.158 z"
             inkscape:connector-curvature="0"
             style="fill:#2f9e32;stroke:none" /></g><g
           id="g199"><path
             id="path200"
             d="M 13.184,7.071 C 13.506,7.008 13.892,7.008 14.085,6.17 14.277,5.335 14.6,5.656 14.471,6.235 14.343,6.814 13.828,6.879 14.085,7.2 14.342,7.522 14.213,7.392 13.828,7.328 13.441,7.264 13.184,7.392 13.184,7.071 Z"
             inkscape:connector-curvature="0"
             style="fill:#2f9e32;stroke:none" /></g></g></g></g></svg>