<?xml version="1.0" encoding="UTF-8" standalone="no"?>
<!-- Created with Inkscape (http://www.inkscape.org/) -->
<svg
   xmlns:dc="http://purl.org/dc/elements/1.1/"
   xmlns:cc="http://web.resource.org/cc/"
   xmlns:rdf="http://www.w3.org/1999/02/22-rdf-syntax-ns#"
   xmlns:svg="http://www.w3.org/2000/svg"
   xmlns="http://www.w3.org/2000/svg"
   xmlns:xlink="http://www.w3.org/1999/xlink"
   xmlns:sodipodi="http://sodipodi.sourceforge.net/DTD/sodipodi-0.dtd"
   xmlns:inkscape="http://www.inkscape.org/namespaces/inkscape"
   version="1.0"
   width="48"
   height="48"
   id="svg2313"
   sodipodi:version="0.32"
   inkscape:version="0.44"
   sodipodi:docname="gnibbles.svg"
   sodipodi:docbase="/home/dcubed20/Pictures/gnome-games-tango-2/rock and roll/scalable">
  <metadata
     id="metadata53">
    <rdf:RDF>
      <cc:Work
         rdf:about="">
        <dc:format>image/svg+xml</dc:format>
        <dc:type
           rdf:resource="http://purl.org/dc/dcmitype/StillImage" />
      </cc:Work>
    </rdf:RDF>
  </metadata>
  <sodipodi:namedview
     inkscape:window-height="619"
     inkscape:window-width="872"
     inkscape:pageshadow="2"
     inkscape:pageopacity="0.0"
     guidetolerance="10.0"
     gridtolerance="10.0"
     objecttolerance="10.0"
     borderopacity="1.0"
     bordercolor="#666666"
     pagecolor="#ffffff"
     id="base"
     inkscape:zoom="8.4791667"
     inkscape:cx="24"
     inkscape:cy="23.941032"
     inkscape:window-x="0"
     inkscape:window-y="0"
     inkscape:current-layer="svg2313" />
  <defs
     id="defs2315">
    <linearGradient
       inkscape:collect="always"
       id="linearGradient3007">
      <stop
         style="stop-color:#2e3436;stop-opacity:1;"
         offset="0"
         id="stop3009" />
      <stop
         style="stop-color:#2e3436;stop-opacity:0;"
         offset="1"
         id="stop3011" />
    </linearGradient>
    <linearGradient
       id="linearGradient8606">
      <stop
         style="stop-color:#eeeeec;stop-opacity:1"
         offset="0"
         id="stop8608" />
      <stop
         style="stop-color:#eeeeec;stop-opacity:0"
         offset="1"
         id="stop8610" />
    </linearGradient>
    <linearGradient
       id="linearGradient5941">
      <stop
         style="stop-color:#fcaf3e;stop-opacity:1"
         offset="0"
         id="stop5943" />
      <stop
         style="stop-color:#f57900;stop-opacity:1"
         offset="1"
         id="stop5945" />
    </linearGradient>
    <linearGradient
       x1="308.45105"
       y1="586.14514"
       x2="302.67966"
       y2="687.3396"
       id="linearGradient5437"
       xlink:href="#linearGradient4523"
       gradientUnits="userSpaceOnUse"
       gradientTransform="matrix(0.387139,0,0,0.387139,-61.27558,-111.004)" />
    <linearGradient
       x1="420.13742"
       y1="516.57404"
       x2="417.42685"
       y2="681.9184"
       id="linearGradient5440"
       xlink:href="#linearGradient4523"
       gradientUnits="userSpaceOnUse"
       gradientTransform="matrix(0.387139,0,0,0.387139,-61.27558,-111.004)" />
    <linearGradient
       id="linearGradient3714">
      <stop
         style="stop-color:#d0d0d0;stop-opacity:1"
         offset="0"
         id="stop3718" />
      <stop
         style="stop-color:#b0b0b0;stop-opacity:0"
         offset="1"
         id="stop3722" />
    </linearGradient>
    <linearGradient
       x1="301.55588"
       y1="483.00668"
       x2="308.30713"
       y2="497.39062"
       id="linearGradient5445"
       xlink:href="#linearGradient3714"
       gradientUnits="userSpaceOnUse"
       gradientTransform="matrix(0.387139,0,0,0.387139,-61.27558,-111.004)" />
    <linearGradient
       id="linearGradient2955">
      <stop
         style="stop-color:#d0d0d0;stop-opacity:1"
         offset="0"
         id="stop2957" />
      <stop
         style="stop-color:white;stop-opacity:1"
         offset="0.40000001"
         id="stop3689" />
      <stop
         style="stop-color:white;stop-opacity:1"
         offset="0.69999999"
         id="stop3709" />
      <stop
         style="stop-color:#d0d0d0;stop-opacity:1"
         offset="1"
         id="stop2959" />
    </linearGradient>
    <linearGradient
       x1="222.58691"
       y1="499.1156"
       x2="337.48618"
       y2="473.95703"
       id="linearGradient5453"
       xlink:href="#linearGradient2955"
       gradientUnits="userSpaceOnUse"
       gradientTransform="matrix(0.387139,0,0,0.387139,-61.27558,-111.004)" />
    <linearGradient
       id="linearGradient4523">
      <stop
         style="stop-color:#ffd089;stop-opacity:0.41911766"
         offset="0"
         id="stop4525" />
      <stop
         style="stop-color:#ffd089;stop-opacity:0"
         offset="1"
         id="stop4527" />
    </linearGradient>
    <linearGradient
       x1="222.26625"
       y1="488.56488"
       x2="240.33669"
       y2="675.59375"
       id="linearGradient5460"
       xlink:href="#linearGradient4523"
       gradientUnits="userSpaceOnUse"
       gradientTransform="matrix(0.387139,0,0,0.387139,-61.27558,-111.004)" />
    <linearGradient
       id="linearGradient4515">
      <stop
         style="stop-color:#e49f81;stop-opacity:1"
         offset="0"
         id="stop4517" />
      <stop
         style="stop-color:#bf7a5c;stop-opacity:1"
         offset="0.85000002"
         id="stop4531" />
      <stop
         style="stop-color:#9c654b;stop-opacity:1"
         offset="1"
         id="stop4519" />
    </linearGradient>
    <linearGradient
       x1="309.90781"
       y1="357.55426"
       x2="338.8205"
       y2="663.84802"
       id="linearGradient5463"
       xlink:href="#linearGradient4515"
       gradientUnits="userSpaceOnUse"
       gradientTransform="matrix(0.387139,0,0,0.387139,-61.27558,-111.004)" />
    <linearGradient
       x1="308.45105"
       y1="586.14514"
       x2="302.67966"
       y2="687.3396"
       id="linearGradient3246"
       xlink:href="#linearGradient4523"
       gradientUnits="userSpaceOnUse"
       gradientTransform="matrix(0.117878,0,0,0.117878,-18.77804,-34.15895)" />
    <linearGradient
       x1="420.13742"
       y1="516.57404"
       x2="417.42685"
       y2="681.9184"
       id="linearGradient3249"
       xlink:href="#linearGradient4523"
       gradientUnits="userSpaceOnUse"
       gradientTransform="matrix(0.117878,0,0,0.117878,-18.77804,-34.15895)" />
    <linearGradient
       x1="301.55588"
       y1="483.00668"
       x2="308.30713"
       y2="497.39062"
       id="linearGradient3254"
       xlink:href="#linearGradient3714"
       gradientUnits="userSpaceOnUse"
       gradientTransform="matrix(0.117878,0,0,0.117878,-18.77804,-35.28747)" />
    <linearGradient
       x1="222.58691"
       y1="499.1156"
       x2="337.48618"
       y2="473.95703"
       id="linearGradient3262"
       xlink:href="#linearGradient2955"
       gradientUnits="userSpaceOnUse"
       gradientTransform="matrix(0.117878,0,0,0.117878,-18.77804,-35.28747)" />
    <linearGradient
       x1="222.26625"
       y1="488.56488"
       x2="240.33669"
       y2="675.59375"
       id="linearGradient3269"
       xlink:href="#linearGradient4523"
       gradientUnits="userSpaceOnUse"
       gradientTransform="matrix(0.117878,0,0,0.117878,-18.77804,-34.15895)" />
    <linearGradient
       x1="309.90781"
       y1="357.55426"
       x2="338.8205"
       y2="663.84802"
       id="linearGradient3272"
       xlink:href="#linearGradient4515"
       gradientUnits="userSpaceOnUse"
       gradientTransform="matrix(0.117878,0,0,0.117878,-18.77804,-34.15895)" />
    <radialGradient
       cx="7.6232362"
       cy="11.80622"
       r="21.627373"
       fx="7.6232362"
       fy="11.80622"
       id="radialGradient5947"
       xlink:href="#linearGradient5941"
       gradientUnits="userSpaceOnUse"
       gradientTransform="matrix(1,0,0,1.038933,0,-2.127509)" />
    <linearGradient
       x1="0.86083812"
       y1="4.9364119"
       x2="45.033524"
       y2="25.572334"
       id="linearGradient8612"
       xlink:href="#linearGradient8606"
       gradientUnits="userSpaceOnUse"
       gradientTransform="translate(0,-1.128516)" />
    <radialGradient
       inkscape:collect="always"
       xlink:href="#linearGradient3007"
       id="radialGradient3013"
       cx="24.117935"
       cy="43.813267"
       fx="24.117935"
       fy="43.813267"
       r="23.764128"
       gradientTransform="matrix(1,0,0,0.156328,0,36.96405)"
       gradientUnits="userSpaceOnUse" />
  </defs>
  <path
     sodipodi:type="arc"
     style="opacity:1;fill:url(#radialGradient3013);fill-opacity:1;stroke:none;stroke-width:1;stroke-linecap:round;stroke-linejoin:miter;stroke-miterlimit:4;stroke-dasharray:none;stroke-opacity:1"
     id="path2118"
     sodipodi:cx="24.117935"
     sodipodi:cy="43.813267"
     sodipodi:rx="23.764128"
     sodipodi:ry="3.7149878"
     d="M 47.882063 43.813267 A 23.764128 3.7149878 0 1 1  0.35380745,43.813267 A 23.764128 3.7149878 0 1 1  47.882063 43.813267 z"
     transform="matrix(1.009926,0,0,0.920635,-0.35732,4.125892)" />
  <g
     id="layer1">
    <path
       d="M 3.492233,14.383134 C 4.2009709,23.907406 12.740777,46.554008 18,46.448183 C 23.1822,47.25951 25.612945,38.334914 29.419417,34.27828 C 30.739806,33.486371 33.431359,45.554008 41,45.554008 C 43.301618,45.718086 45.603236,44.929736 45.682524,42.871484 C 45.714401,39.657892 39.591382,41.903266 37.126941,33.124882 C 35.250666,26.441552 32.190453,23.205465 30,23.272455 C 26.59644,24.509025 22.346279,34.105788 20.530097,35.342358 C 14.356958,29.908054 25.433333,20.769866 23.599029,12.372455 C 22.188025,-4.7359597 2.1517799,3.5536842 3.492233,14.383134 z "
       style="fill:url(#radialGradient5947);fill-opacity:1;fill-rule:evenodd;stroke:#ce5c00;stroke-width:1px;stroke-linecap:butt;stroke-linejoin:miter;stroke-opacity:1"
       id="path5054" />
    <path
       d="M 4.5504854,14.277309 C 5.2592233,23.801581 13.904855,45.284105 18,45.284105 C 23.1822,46.095432 25.189644,35.265982 29.419417,33.114202 C 32.115534,32.004818 33.325534,44.38993 40.894175,44.38993 C 43.195793,44.554008 44.544984,44.294785 44.518446,42.977309 C 44.867799,40.927795 39.05928,41.880078 36.174514,33.230707 C 33.980763,26.653202 32.190453,24.369543 30,24.436533 C 26.59644,25.673103 23.722007,34.634914 20.530097,36.718086 C 12.134628,29.590578 24.375081,20.875691 22.540777,12.47828 C 21.658899,-2.4078044 3.950809,3.5536842 4.5504854,14.277309 z "
       style="fill:none;fill-opacity:1;fill-rule:evenodd;stroke:url(#linearGradient8612);stroke-width:1px;stroke-linecap:butt;stroke-linejoin:miter;stroke-opacity:1"
       id="path6834" />
    <path
       d="M 21.932745,15.702196 C 21.506178,15.887929 21.080203,16.208672 20.685444,16.453786 C 17.369244,18.512881 11.875036,21.030323 7.8403811,22.285083 C 7.4352862,22.411066 7.3843414,22.812436 7.4462252,23.084446 C 7.667806,24.058401 8.4107607,25.324876 9.3949027,26.370307 C 10.379045,27.415737 11.83132,28.219023 13.863231,28.241626 C 14.749981,28.251489 15.619978,27.812603 16.471291,27.143884 C 17.322604,26.475164 18.157436,25.551588 18.906217,24.476885 C 20.403777,22.327479 21.561513,19.743691 21.595318,16.954769 C 21.599821,16.583309 21.80947,16.054924 21.932745,15.702196 z M 20.317074,18.067246 C 20.030957,20.03583 19.103546,22.134323 17.941087,23.802768 C 17.247549,24.798182 16.475764,25.642038 15.745602,26.215591 C 15.015439,26.789144 14.328393,27.067893 13.874282,27.062842 C 12.133546,27.043478 11.059405,26.419983 10.253205,25.563576 C 9.607686,24.877856 9.1810549,24.035989 8.8165617,23.22811 C 12.639375,22.123828 17.102541,20.006079 20.317074,18.067246 z "
       style="fill:#571e00;fill-opacity:0.32203393;stroke:none;stroke-width:10;stroke-miterlimit:4;stroke-dasharray:none;stroke-opacity:1"
       id="path2951" />
    <path
       d="M 11.926727,7.3655475 C 10.198031,7.4236994 8.5928349,7.7329226 7.4423349,8.166746 C 6.7264545,9.1601578 6.1197238,10.371774 5.7951113,11.871484 C 5.204603,9.9166518 5.3385848,8.0555864 6.2556375,6.4180564 C 8.3357717,5.9887455 10.60232,6.5968095 11.926727,7.3655475 z "
       style="fill:black;fill-opacity:1;stroke:none;stroke-width:0.23;stroke-miterlimit:4;stroke-opacity:1"
       id="path2184" />
    <path
       d="M 19.605029,6.6190682 C 18.145965,5.6901372 16.64691,5.0381362 15.452572,4.745885 C 14.300572,5.1609125 13.115312,5.8176437 12,6.8714838 C 12.617519,4.9250154 13.779766,3.4653248 15.461736,2.6325751 C 17.420484,3.4538953 18.946795,5.2364077 19.605029,6.6190682 z "
       style="fill:black;fill-opacity:1;stroke:none;stroke-width:0.23;stroke-miterlimit:4;stroke-opacity:1"
       id="path2186" />
    <path
       d="M 7.9907055,22.855913 C 12.24941,21.74089 17.660243,19.106418 21.004296,16.94946 C 20.954924,21.825028 16.551203,27.682629 13.86948,27.6528 C 10.096832,27.610835 8.8142409,24.800374 7.9907055,22.855913 z "
       style="fill:url(#linearGradient3262);fill-opacity:1;stroke:none;stroke-width:0.23;stroke-miterlimit:4;stroke-opacity:1"
       id="path2196" />
    <path
       d="M 12.826578,15.025356 C 13.186971,10.475275 11.030723,17.737822 9.5200355,19.742161 C 8.4584012,19.697112 7.0214115,17.548007 7.0214115,15.025356 C 7.0214115,12.502703 8.3217683,10.455331 9.923994,10.455331 C 11.52622,10.455331 12.826578,12.502703 12.826578,15.025356 z "
       style="fill:#571e00;fill-opacity:0.32203393;stroke:none;stroke-width:0.23;stroke-miterlimit:4;stroke-opacity:1"
       id="path2210" />
    <path
       d="M 18.523243,12.246292 C 18.523243,14.598495 17.112216,16.507531 15.373631,16.507531 C 13.635046,16.507531 12.22402,14.598495 12.22402,12.246292 C 12.22402,9.8940878 13.635046,7.9850519 15.373631,7.9850519 C 17.112216,7.9850519 18.523243,9.8940878 18.523243,12.246292 z "
       style="fill:#571e00;fill-opacity:0.32203393;stroke:none;stroke-width:0.23;stroke-miterlimit:4;stroke-opacity:1"
       id="path2212" />
    <path
       d="M 15.655682,8.2614567 C 14.129074,8.4165247 12.928493,10.453146 12.734508,13.009746 C 12.089262,11.624731 11.116347,10.749845 10.122764,10.854782 C 8.5980646,11.015812 7.6094007,13.402195 7.9162276,16.181412 C 8.0939978,17.791634 8.6748271,19.165787 9.4228612,20.019828 C 10.48582,19.161445 11.833668,18.426121 13.379155,17.890649 C 13.409918,17.70004 13.439541,17.506311 13.456513,17.304941 C 13.539458,17.478737 13.642617,17.617593 13.736474,17.772771 C 14.45214,17.543672 15.202581,17.352381 15.987215,17.216532 C 16.827481,17.071051 17.650751,16.999285 18.45161,16.980775 C 18.848467,15.990063 19.072364,14.776701 19.022584,13.470209 C 18.906315,10.418738 17.396293,8.0846486 15.655682,8.2614567 z "
       style="fill:white;fill-opacity:1;stroke:none;stroke-width:0.23;stroke-miterlimit:4;stroke-opacity:1"
       id="path2198" />
    <path
       d="M 299.14868 418.62723 A 6.443202 12.426176 0 1 1  286.26227,418.62723 A 6.443202 12.426176 0 1 1  299.14868 418.62723 z"
       transform="matrix(0.117878,0,0,0.117878,-18.88654,-35.61297)"
       style="fill:black;fill-opacity:1;stroke:none;stroke-width:0.23;stroke-miterlimit:4;stroke-dasharray:none;stroke-opacity:1"
       id="path2944" />
    <path
       d="M 20.597035,19.577563 C 19.813847,20.700197 18.168852,21.554246 15.428804,22.881842 C 18.553454,22.159228 18.492946,22.858684 18.593102,23.902227 C 19.276402,22.865958 20.17473,21.244218 20.597035,19.577563 z M 14.014263,23.474918 C 11.115946,24.407731 9.8407694,24.62473 8.6286932,24.230077 C 9.2477409,25.517025 10.242805,26.586123 11.37305,27.11073 C 10.898886,26.056948 10.900682,25.102739 14.014263,23.474918 z "
       style="fill:url(#linearGradient3254);fill-opacity:1;stroke:none;stroke-width:0.23;stroke-miterlimit:4;stroke-opacity:1"
       id="rect2946" />
    <path
       d="M 299.14868 418.62723 A 6.443202 12.426176 0 1 1  286.26227,418.62723 A 6.443202 12.426176 0 1 1  299.14868 418.62723 z"
       transform="matrix(0.117878,0,0,0.117878,-23.74402,-34.36441)"
       style="fill:black;fill-opacity:1;stroke:none;stroke-width:0.23;stroke-miterlimit:4;stroke-dasharray:none;stroke-opacity:1"
       id="path8632" />
  </g>
</svg>
