<?xml version="1.0" encoding="UTF-8" standalone="no"?>
<!DOCTYPE svg PUBLIC "-//W3C//DTD SVG 20010904//EN"
"http://www.w3.org/TR/2001/REC-SVG-20010904/DTD/svg10.dtd">
<!-- Created with Sodipodi ("http://www.sodipodi.com/") -->
<svg
   i:viewOrigin="242 461.25"
   i:rulerOrigin="-242 -332"
   i:pageBounds="242 460 370 332"
   width="48pt"
   height="48pt"
   viewBox="0 0 133 134.25"
   overflow="visible"
   enable-background="new 0 0 133 134.25"
   xml:space="preserve"
   id="svg153"
   sodipodi:version="0.32pre"
   sodipodi:docname="/home/cschalle/gnome-themes-extras/Amaranth/icons/scalable/apps/gnome-cdplayer.svg"
   sodipodi:docbase="/home/cschalle/gnome-themes-extras/Amaranth/icons/scalable/apps/"
   xmlns="http://www.w3.org/2000/svg"
   xmlns:sodipodi="http://sodipodi.sourceforge.net/DTD/sodipodi-0.dtd"
   xmlns:ns="http://ns.adobe.com/Variables/1.0/"
   xmlns:i="http://ns.adobe.com/AdobeIllustrator/10.0/"
   xmlns:xml="http://www.w3.org/XML/1998/namespace"
   xmlns:a="http://ns.adobe.com/AdobeSVGViewerExtensions/3.0/"
   xmlns:xlink="http://www.w3.org/1999/xlink">
  <defs
     id="defs220">
    <linearGradient
       id="XMLID_1_"
       gradientUnits="userSpaceOnUse"
       x1="30.9316"
       y1="19.1816"
       x2="93.8669"
       y2="82.1169">
      <stop
         offset="0"
         style="stop-color:#FFFFFA"
         id="stop159" />
      <stop
         offset="1"
         style="stop-color:#1F4F5A"
         id="stop160" />
      
      
      
    </linearGradient>
    <linearGradient
       id="XMLID_3_"
       gradientUnits="userSpaceOnUse"
       x1="55.4985"
       y1="77.6055"
       x2="104.3557"
       y2="111.8156">
      <stop
         offset="0.0056"
         style="stop-color:#FFFFFF"
         id="stop185" />
      <stop
         offset="0.9831"
         style="stop-color:#1C1C1C"
         id="stop186" />
      
      
      
    </linearGradient>
  </defs>
  <sodipodi:namedview
     id="base" />
  <metadata
     id="metadata154">
    <sfw>
      <slices />
      <sliceSourceBounds
         x="242"
         y="327"
         width="133"
         height="134.25"
         bottomLeftOrigin="true" />
    </sfw>
    <ns:variableSets>
      <ns:variableSet
         varSetName="binding1"
         locked="none">
        <ns:variables />
        <ns:sampleDataSets />
      </ns:variableSet>
    </ns:variableSets>
  </metadata>
  <path
     i:knockout="Off"
     fill="url(#XMLID_1_)"
     d="M62.399,95.15c-24.578,0-44.502-19.924-44.502-44.501     c0-24.578,19.924-44.502,44.502-44.502c24.577,0,44.501,19.924,44.501,44.502C106.9,75.227,86.977,95.15,62.399,95.15z      M71.335,50.649c0-4.936-4-8.937-8.936-8.937c-4.935,0-8.937,4.001-8.937,8.937s4.001,8.936,8.937,8.936     C67.335,59.585,71.335,55.585,71.335,50.649z"
     id="path164"
     style="font-size:12;fill:url(#XMLID_1_);stroke:#000000;" />
  <g
     i:knockout="Off"
     id="g165"
     style="font-size:12;stroke:#000000;">
    <path
       i:knockout="Off"
       opacity="0.25"
       fill="#FFFFFF"
       stroke="none"
       d="M17.897,50.649c0-24.578,19.924-44.502,44.502-44.502     c17.08,0,31.913,9.623,39.372,23.742c3.275,6.198-23.467,3.782-40.445,20.761C44.348,67.627,17.897,50.649,17.897,50.649z"
       id="path166" />
  </g>
  <g
     i:knockout="Off"
     id="g167"
     style="font-size:12;stroke:#000000;">
    <path
       i:knockout="Off"
       opacity="0.25"
       fill="#FFFFFF"
       stroke="none"
       d="M64.445,48.935C78.908,65.458,97.9,77.917,93.927,81.938     c-2.034,2.056-4.27,3.916-6.67,5.548c-3.553,2.413-12.576-18.746-26.976-35.099C45.814,35.959,25.988,24.323,29.693,20.341     c2.031-2.183,4.279-4.161,6.709-5.901C40.048,11.83,49.982,32.414,64.445,48.935z"
       id="path168" />
  </g>
  <g
     i:knockout="Off"
     id="g169"
     style="font-size:12;stroke:#000000;">
    <path
       i:knockout="Off"
       opacity="0.25"
       fill="#FFFFFF"
       stroke="none"
       d="M64.582,48.358c14.26,16.371,35.919,25.196,33.057,29.003     c-4.05,5.386-9.291,9.822-15.334,12.92c-3.038,1.556-8.375-21.074-22.252-37.166C46.175,37.021,23.759,27.467,26.602,23.729     c4.064-5.343,9.31-9.738,15.345-12.798C44.893,9.438,50.984,32.75,64.582,48.358z"
       id="path170" />
  </g>
  <g
     id="g173"
     transform="translate(0,-1.90735e-06)"
     style="font-size:12;stroke:#000000;">
    <linearGradient
       id="XMLID_2_"
       gradientUnits="userSpaceOnUse"
       x1="32.6304"
       y1="58.2549"
       x2="107.7467"
       y2="133.3712">
      <stop
         offset="0"
         style="stop-color:#4F637A"
         id="stop175" />
      <stop
         offset="1"
         style="stop-color:#4183A9"
         id="stop176" />
      
      
      
    </linearGradient>
    <path
       i:knockout="Off"
       fill="url(#XMLID_2_)"
       stroke="none"
       d="M122.741,114.25c0,5.5-4.5,10-10,10H13.51c-5.5,0-10-4.5-10-10      V91.5c0-5.5,4.5-10,10-10H49c5.5,0,10.04-4.5,10.088-10l0.073-8.25c0.048-5.5,4.588-10,10.088-10h43.491c5.5,0,10,4.5,10,10      V114.25z"
       id="path180" />
    <path
       i:knockout="Off"
       fill="none"
       d="M122.741,114.25c0,5.5-4.5,10-10,10H13.51c-5.5,0-10-4.5-10-10V91.5c0-5.5,4.5-10,10-10      H49c5.5,0,10.04-4.5,10.088-10l0.073-8.25c0.048-5.5,4.588-10,10.088-10h43.491c5.5,0,10,4.5,10,10V114.25z"
       id="path181" />
  </g>
  <path
     i:knockout="Off"
     fill="url(#XMLID_3_)"
     stroke-width="2"
     d="M67.279,63.74c-1.709-0.62-3.108,0.36-3.108,2.179v50.453     c0,1.818,1.372,2.731,3.049,2.03l51.757-28.011c1.678-0.701,1.651-1.782-0.057-2.403L67.279,63.74z"
     id="path190"
     style="font-size:12;fill:url(#XMLID_3_);stroke:#000000;stroke-width:2;" />
  <g
     i:knockout="Off"
     id="g191"
     style="font-size:12;stroke:#000000;">
    <path
       i:knockout="Off"
       opacity="0.25"
       fill="#FFFFFF"
       stroke="none"
       d="M67.279,63.569c-1.709-0.62-3.108,0.36-3.108,2.178     v23.209c0,0.613,17.231-4.145,26.141,3.053c8.911,7.196,28.665-1.788,28.665-1.788c1.678-0.701,1.651-1.783-0.057-2.403     L67.279,63.569z"
       id="path192" />
  </g>
  <g
     id="g195"
     style="font-size:12;stroke:#000000;">
    <linearGradient
       id="XMLID_4_"
       gradientUnits="userSpaceOnUse"
       x1="13.8813"
       y1="92.3818"
       x2="33.6189"
       y2="112.1194">
      <stop
         offset="0"
         style="stop-color:#FFFFFD"
         id="stop197" />
      <stop
         offset="0.9944"
         style="stop-color:#5E5E5E"
         id="stop198" />
      
      
      
    </linearGradient>
    <path
       i:knockout="Off"
       fill="url(#XMLID_4_)"
       stroke="none"
       d="M29.5,115c0,1.65-1.35,3-3,3H21c-1.65,0-3-1.35-3-3V89.5      c0-1.65,1.35-3,3-3h5.5c1.65,0,3,1.35,3,3V115z"
       id="path202" />
    <path
       i:knockout="Off"
       fill="none"
       d="M29.5,115c0,1.65-1.35,3-3,3H21c-1.65,0-3-1.35-3-3V89.5c0-1.65,1.35-3,3-3h5.5      c1.65,0,3,1.35,3,3V115z"
       id="path203" />
  </g>
  <g
     id="g206"
     style="font-size:12;stroke:#000000;">
    <linearGradient
       id="XMLID_5_"
       gradientUnits="userSpaceOnUse"
       x1="30.8813"
       y1="92.3818"
       x2="50.6189"
       y2="112.1194">
      <stop
         offset="0"
         style="stop-color:#FFFFFD"
         id="stop208" />
      <stop
         offset="0.9944"
         style="stop-color:#5E5E5E"
         id="stop209" />
      
      
      
    </linearGradient>
    <path
       i:knockout="Off"
       fill="url(#XMLID_5_)"
       stroke="none"
       d="M46.5,115c0,1.65-1.35,3-3,3H38c-1.65,0-3-1.35-3-3V89.5      c0-1.65,1.35-3,3-3h5.5c1.65,0,3,1.35,3,3V115z"
       id="path213" />
    <path
       i:knockout="Off"
       fill="none"
       d="M46.5,115c0,1.65-1.35,3-3,3H38c-1.65,0-3-1.35-3-3V89.5c0-1.65,1.35-3,3-3h5.5      c1.65,0,3,1.35,3,3V115z"
       id="path214" />
  </g>
  <g
     i:knockout="Off"
     opacity="0.3"
     id="g215"
     style="font-size:12;opacity:0.3;stroke:#000000;">
    <path
       i:knockout="Off"
       fill="#FFFFFF"
       stroke="none"
       d="M29.5,97.25c0,1.65-1.241,2.468-2.757,1.818c0,0-0.743-0.318-2.993,1.182     s-3.774,3.242-3.774,3.242C18.889,104.734,18,104.4,18,102.75V89.5c0-1.65,1.35-3,3-3h5.5c1.65,0,3,1.35,3,3V97.25z"
       id="path216" />
  </g>
  <g
     i:knockout="Off"
     opacity="0.3"
     id="g217"
     style="font-size:12;opacity:0.3;stroke:#000000;">
    <path
       i:knockout="Off"
       fill="#FFFFFF"
       stroke="none"
       d="M46.25,97.25c0,1.65-1.241,2.468-2.758,1.818     c0,0-0.742-0.318-2.992,1.182s-3.774,3.242-3.774,3.242c-1.086,1.242-1.976,0.908-1.976-0.742V89.5c0-1.65,1.35-3,3-3h5.5     c1.65,0,3,1.35,3,3V97.25z"
       id="path218" />
  </g>
</svg>
