<?xml version="1.0" encoding="UTF-8" standalone="no"?>
<!-- Created with Sodipodi ("http://www.sodipodi.com/") -->

<svg
   xmlns:dc="http://purl.org/dc/elements/1.1/"
   xmlns:cc="http://creativecommons.org/ns#"
   xmlns:rdf="http://www.w3.org/1999/02/22-rdf-syntax-ns#"
   xmlns:svg="http://www.w3.org/2000/svg"
   xmlns="http://www.w3.org/2000/svg"
   xmlns:xlink="http://www.w3.org/1999/xlink"
   xmlns:sodipodi="http://sodipodi.sourceforge.net/DTD/sodipodi-0.dtd"
   xmlns:inkscape="http://www.inkscape.org/namespaces/inkscape"
   width="48pt"
   height="45pt"
   viewBox="0 0 50.872 46.19"
   overflow="visible"
   enable-background="new 0 0 50.872 46.19"
   xml:space="preserve"
   id="svg153"
   sodipodi:version="0.32pre"
   sodipodi:docname="text-editor.svg"
   version="1.1"
   inkscape:version="0.47 r22583">
  <defs
   id="defs310"><inkscape:perspective
   sodipodi:type="inkscape:persp3d"
   inkscape:vp_x="0 : 28.125 : 1"
   inkscape:vp_y="0 : 1000 : 0"
   inkscape:vp_z="60 : 28.125 : 1"
   inkscape:persp3d-origin="30 : 18.75 : 1"
   id="perspective105" /><linearGradient
   inkscape:collect="always"
   xlink:href="#XMLID_1_"
   id="linearGradient2911"
   gradientUnits="userSpaceOnUse"
   gradientTransform="matrix(0.4828,0.721,0.7677,-0.514,50.3329,346.1161)"
   x1="-324.7451"
   y1="177.7949"
   x2="-310.0333"
   y2="153.6615" /><linearGradient
   inkscape:collect="always"
   xlink:href="#XMLID_1_"
   id="linearGradient2913"
   gradientUnits="userSpaceOnUse"
   gradientTransform="matrix(0.4828,0.721,0.7677,-0.514,50.3329,346.1161)"
   x1="-324.7451"
   y1="177.7949"
   x2="-310.0333"
   y2="153.6615" /><linearGradient
   inkscape:collect="always"
   xlink:href="#XMLID_3_"
   id="linearGradient2915"
   gradientUnits="userSpaceOnUse"
   gradientTransform="matrix(0.702,0.51,0.543,-0.7475,71.8123,340.4085)"
   x1="-265.0688"
   y1="257.3594"
   x2="-249.0802"
   y2="231.1314" /><linearGradient
   inkscape:collect="always"
   xlink:href="#XMLID_3_"
   id="linearGradient2917"
   gradientUnits="userSpaceOnUse"
   gradientTransform="matrix(0.702,0.51,0.543,-0.7475,71.8123,340.4085)"
   x1="-265.0688"
   y1="257.3594"
   x2="-249.0802"
   y2="231.1314" />
    
  <linearGradient
   inkscape:collect="always"
   xlink:href="#XMLID_1_"
   id="linearGradient3011"
   gradientUnits="userSpaceOnUse"
   gradientTransform="matrix(0.4828,0.721,0.7677,-0.514,50.3329,346.1161)"
   x1="-324.7451"
   y1="177.7949"
   x2="-310.0333"
   y2="153.6615" /><linearGradient
   inkscape:collect="always"
   xlink:href="#XMLID_1_"
   id="linearGradient3013"
   gradientUnits="userSpaceOnUse"
   gradientTransform="matrix(0.4828,0.721,0.7677,-0.514,50.3329,346.1161)"
   x1="-324.7451"
   y1="177.7949"
   x2="-310.0333"
   y2="153.6615" /><linearGradient
   inkscape:collect="always"
   xlink:href="#XMLID_3_"
   id="linearGradient3015"
   gradientUnits="userSpaceOnUse"
   gradientTransform="matrix(0.702,0.51,0.543,-0.7475,71.8123,340.4085)"
   x1="-265.0688"
   y1="257.3594"
   x2="-249.0802"
   y2="231.1314" /><linearGradient
   inkscape:collect="always"
   xlink:href="#XMLID_3_"
   id="linearGradient3017"
   gradientUnits="userSpaceOnUse"
   gradientTransform="matrix(0.702,0.51,0.543,-0.7475,71.8123,340.4085)"
   x1="-265.0688"
   y1="257.3594"
   x2="-249.0802"
   y2="231.1314" /><linearGradient
   inkscape:collect="always"
   xlink:href="#XMLID_5_"
   id="linearGradient3019"
   gradientUnits="userSpaceOnUse"
   gradientTransform="matrix(1,0,0,-1,232.9102,407.9512)"
   x1="-206.58591"
   y1="394.66699"
   x2="-217.3597"
   y2="383.89319" /><linearGradient
   inkscape:collect="always"
   xlink:href="#XMLID_6_"
   id="linearGradient3021"
   gradientUnits="userSpaceOnUse"
   gradientTransform="matrix(1,0,0,-1,232.9102,407.9512)"
   x1="-207.7251"
   y1="387.4473"
   x2="-217.89751"
   y2="378.02939" /><linearGradient
   inkscape:collect="always"
   xlink:href="#XMLID_7_"
   id="linearGradient3023"
   gradientUnits="userSpaceOnUse"
   gradientTransform="matrix(1,0,0,-1,232.9102,407.9512)"
   x1="-205.50391"
   y1="384.91309"
   x2="-215.6445"
   y2="375.52469" /><linearGradient
   inkscape:collect="always"
   xlink:href="#XMLID_8_"
   id="linearGradient3025"
   gradientUnits="userSpaceOnUse"
   gradientTransform="matrix(1,0,0,-1,232.9102,407.9512)"
   x1="-200.31931"
   y1="383.29199"
   x2="-209.48"
   y2="376.46649" /><linearGradient
   inkscape:collect="always"
   xlink:href="#XMLID_9_"
   id="linearGradient3027"
   gradientUnits="userSpaceOnUse"
   gradientTransform="matrix(1,0,0,-1,232.9102,407.9512)"
   x1="-196.8564"
   y1="382.28909"
   x2="-201.84669"
   y2="378.1304" /><linearGradient
   inkscape:collect="always"
   xlink:href="#XMLID_10_"
   id="linearGradient3029"
   gradientUnits="userSpaceOnUse"
   gradientTransform="matrix(1,0,0,-1,232.9102,407.9512)"
   x1="-209.79539"
   y1="383.4541"
   x2="-206.6615"
   y2="379.64801" /><linearGradient
   inkscape:collect="always"
   xlink:href="#XMLID_11_"
   id="linearGradient3031"
   gradientUnits="userSpaceOnUse"
   gradientTransform="matrix(1,0,0,-1,232.9102,407.9512)"
   x1="-202.1787"
   y1="393.5264"
   x2="-203.2431"
   y2="394.66669" /><linearGradient
   inkscape:collect="always"
   xlink:href="#XMLID_12_"
   id="linearGradient3033"
   gradientUnits="userSpaceOnUse"
   gradientTransform="matrix(1,0,0,-1,232.9102,407.9512)"
   x1="-200.11819"
   y1="390.5498"
   x2="-201.3344"
   y2="391.76599" /><linearGradient
   inkscape:collect="always"
   xlink:href="#XMLID_13_"
   id="linearGradient3035"
   gradientUnits="userSpaceOnUse"
   gradientTransform="matrix(1,0,0,-1,232.9102,407.9512)"
   x1="-193.3008"
   y1="405.5527"
   x2="-188.93671"
   y2="400.5466" /><linearGradient
   inkscape:collect="always"
   xlink:href="#XMLID_14_"
   id="linearGradient3037"
   gradientUnits="userSpaceOnUse"
   gradientTransform="matrix(1,0,0,-1,232.9102,407.9512)"
   x1="-201.166"
   y1="380.88089"
   x2="-201.166"
   y2="376.08051" /><linearGradient
   inkscape:collect="always"
   xlink:href="#XMLID_15_"
   id="linearGradient3039"
   gradientUnits="userSpaceOnUse"
   gradientTransform="matrix(1,0,0,-1,232.9102,407.9512)"
   x1="-190.4854"
   y1="403.82809"
   x2="-185.8945"
   y2="403.44559" />
      
      
      
      
      
      
      
      <linearGradient
   id="XMLID_6_"
   gradientUnits="userSpaceOnUse"
   x1="-207.7251"
   y1="387.4473"
   x2="-217.89751"
   y2="378.02939"
   gradientTransform="matrix(1,0,0,-1,232.9102,407.9512)">
        <stop
   offset="0"
   style="stop-color:#D8DAA1"
   id="stop188" />
        <stop
   offset="1"
   style="stop-color:#5C5C3A"
   id="stop189" />
      </linearGradient>
      
      <linearGradient
   id="XMLID_7_"
   gradientUnits="userSpaceOnUse"
   x1="-205.50391"
   y1="384.91309"
   x2="-215.6445"
   y2="375.52469"
   gradientTransform="matrix(1,0,0,-1,232.9102,407.9512)">
        <stop
   offset="0"
   style="stop-color:#D8DAA1"
   id="stop195" />
        <stop
   offset="1"
   style="stop-color:#5C5C3A"
   id="stop196" />
      </linearGradient>
      
      <linearGradient
   id="XMLID_8_"
   gradientUnits="userSpaceOnUse"
   x1="-200.31931"
   y1="383.29199"
   x2="-209.48"
   y2="376.46649"
   gradientTransform="matrix(1,0,0,-1,232.9102,407.9512)">
        <stop
   offset="0"
   style="stop-color:#D8DAA1"
   id="stop202" />
        <stop
   offset="1"
   style="stop-color:#5C5C3A"
   id="stop203" />
      </linearGradient>
      
      
      
      
      
      
      
      
      
      
      
      
      
      
      <linearGradient
   id="XMLID_14_"
   gradientUnits="userSpaceOnUse"
   x1="-201.166"
   y1="380.88089"
   x2="-201.166"
   y2="376.08051"
   gradientTransform="matrix(1,0,0,-1,232.9102,407.9512)">
        <stop
   offset="0"
   style="stop-color:#FFFFFF"
   id="stop287" />
        <stop
   offset="1"
   style="stop-color:#000000"
   id="stop288" />
      </linearGradient>
      
      
      
      
    <linearGradient
   inkscape:collect="always"
   xlink:href="#XMLID_14_"
   id="linearGradient3063"
   gradientUnits="userSpaceOnUse"
   gradientTransform="matrix(1,0,0,-1,232.9102,407.9512)"
   x1="-201.166"
   y1="380.88089"
   x2="-201.166"
   y2="376.08051" /><linearGradient
   inkscape:collect="always"
   xlink:href="#XMLID_8_"
   id="linearGradient3111"
   gradientUnits="userSpaceOnUse"
   gradientTransform="matrix(1,0,0,-1,232.9102,407.9512)"
   x1="-200.31931"
   y1="383.29199"
   x2="-209.48"
   y2="376.46649" /><linearGradient
   inkscape:collect="always"
   xlink:href="#XMLID_7_"
   id="linearGradient3114"
   gradientUnits="userSpaceOnUse"
   gradientTransform="matrix(1,0,0,-1,232.9102,407.9512)"
   x1="-205.50391"
   y1="384.91309"
   x2="-215.6445"
   y2="375.52469" /><linearGradient
   inkscape:collect="always"
   xlink:href="#XMLID_6_"
   id="linearGradient3117"
   gradientUnits="userSpaceOnUse"
   gradientTransform="matrix(1,0,0,-1,232.9102,407.9512)"
   x1="-207.7251"
   y1="387.4473"
   x2="-217.89751"
   y2="378.02939" /><linearGradient
   inkscape:collect="always"
   xlink:href="#XMLID_1_"
   id="linearGradient3920"
   x1="2.632"
   y1="26.151501"
   x2="45.435001"
   y2="26.151501"
   gradientUnits="userSpaceOnUse" /></defs>
  <sodipodi:namedview
   id="base"
   showgrid="false"
   inkscape:zoom="4.1955556"
   inkscape:cx="30"
   inkscape:cy="28.125"
   inkscape:window-width="1106"
   inkscape:window-height="682"
   inkscape:window-x="85"
   inkscape:window-y="43"
   inkscape:window-maximized="1"
   inkscape:current-layer="svg153" />
  <metadata
   id="metadata154">
    <sfw
   id="sfw6">
      <slices
   id="slices8" />
      <sliceSourceBounds
   y="396.404"
   x="271.064"
   width="50.872"
   height="46.19"
   bottomLeftOrigin="true"
   id="sliceSourceBounds10" />
    </sfw>
  <rdf:RDF><cc:Work
     rdf:about=""><dc:format>image/svg+xml</dc:format><dc:type
       rdf:resource="http://purl.org/dc/dcmitype/StillImage" /><dc:title></dc:title></cc:Work></rdf:RDF></metadata>
  <g
   style="stroke:#000000"
   id="g157">
        <linearGradient
   id="XMLID_1_"
   gradientUnits="userSpaceOnUse"
   x1="-324.74509"
   y1="177.79491"
   x2="-310.03329"
   y2="153.6615"
   gradientTransform="matrix(0.4828,0.721,0.7677,-0.514,50.3329,346.1161)">
          <stop
   offset="0"
   style="stop-color:#FDFEED"
   id="stop159" />
          <stop
   offset="1"
   style="stop-color:#fff2ff;stop-opacity:1;"
   id="stop160" />
        </linearGradient>
        <path
   d="M 17.234,43.405 3.903,27.501 26.402,17.472 46.172,33.829 17.234,43.405 z"
   id="path164"
   style="fill:url(#linearGradient3011);stroke:none" />
      </g><path
   d="M 1.3,26.903 16.863,45.343 48.775,34.427 26.772,15.532 1.3,26.903 z"
   id="path165"
   style="stroke:none" /><g
   style="stroke:#000000"
   id="g166">
        <path
   d="M 17.234,43.405 3.903,27.501 26.402,17.472 46.172,33.829 17.234,43.405 z"
   id="path167"
   style="fill:url(#linearGradient3013);stroke:none" />
      </g><g
   style="stroke:#000000"
   id="g168">
        <linearGradient
   id="XMLID_3_"
   gradientUnits="userSpaceOnUse"
   x1="-265.06879"
   y1="257.35941"
   x2="-249.0802"
   y2="231.13139"
   gradientTransform="matrix(0.702,0.51,0.543,-0.7475,71.8123,340.4085)">
          <stop
   offset="0"
   style="stop-color:#FDFEED"
   id="stop170" />
          <stop
   offset="1"
   style="stop-color:#FFF24B"
   id="stop171" />
        </linearGradient>
        <path
   d="M 29.241,41.361 2.632,27.234 18.826,10.942 45.435,25.069 29.241,41.361 z"
   id="path175"
   style="fill:url(#linearGradient3015);stroke:none" />
      </g><path
   d="M 0,27.658 29.504,43.322 48.068,24.646 18.564,8.981 0,27.658 z"
   id="path176"
   style="stroke:none" /><g
   style="stroke:#000000;fill-opacity:1.0;fill:url(#linearGradient3920)"
   id="g177">
        <path
   d="M 29.241,41.361 2.632,27.234 18.826,10.942 45.435,25.069 29.241,41.361 z"
   id="path178"
   style="fill:url(#linearGradient3920);stroke:none;fill-opacity:1.0" />
      </g><g
   style="stroke:#000000"
   id="g179">
        <linearGradient
   id="XMLID_5_"
   gradientUnits="userSpaceOnUse"
   x1="-206.58591"
   y1="394.66699"
   x2="-217.3597"
   y2="383.89319"
   gradientTransform="matrix(1,0,0,-1,232.9102,407.9512)">
          <stop
   offset="0"
   style="stop-color:#D8DAA1"
   id="stop181" />
          <stop
   offset="1"
   style="stop-color:#5C5C3A"
   id="stop182" />
        </linearGradient>
        <path
   d="m 11.94,26.594 c -0.607,0.616 0.814,1.342 1.421,0.728 l 8.898,-9.024 C 22.562,17.99 22.58,17.471 22.3,17.14 22.019,16.808 11.94,26.594 11.94,26.594 z"
   id="path186"
   style="fill:url(#linearGradient3019);stroke:none" />
      </g><path
   d="m 15.576,28.438 c -0.303,0.309 0.965,1.059 1.268,0.752 l 7.917,-8.052 c 0.303,-0.308 0.322,-0.826 0.042,-1.158 -0.281,-0.333 -9.227,8.458 -9.227,8.458 z"
   id="path193"
   style="fill:url(#linearGradient3117);stroke:none" /><path
   d="m 28.211,20.829 -9.064,9.453 c -0.304,0.309 0.879,1.081 1.182,0.774 0,0 9.221,-9.851 8.94,-10.182 -0.282,-0.332 -0.755,-0.352 -1.058,-0.045 z"
   id="path200"
   style="fill:url(#linearGradient3114);stroke:none" /><path
   d="m 22.796,31.721 c -0.304,0.308 1.097,1.082 1.401,0.774 l 7.026,-7.272 c 0.303,-0.309 0.321,-0.826 0.041,-1.158 -0.28,-0.332 -8.468,7.656 -8.468,7.656 z"
   id="path207"
   style="fill:url(#linearGradient3111);stroke:none" /><g
   style="stroke:#000000"
   id="g208">
        <g
   id="g209">
          <linearGradient
   id="XMLID_9_"
   gradientUnits="userSpaceOnUse"
   x1="-196.8564"
   y1="382.28909"
   x2="-201.84669"
   y2="378.1304"
   gradientTransform="matrix(1,0,0,-1,232.9102,407.9512)">
            <stop
   offset="0"
   style="stop-color:#D8DAA1"
   id="stop211" />
            <stop
   offset="1"
   style="stop-color:#5C5C3A"
   id="stop212" />
          </linearGradient>
          <path
   d="m 35.179,24.563 -9.163,9.407 c -0.303,0.309 0.978,1.127 1.28,0.819 0,0 9.221,-9.85 8.94,-10.181 -0.281,-0.331 -0.755,-0.351 -1.057,-0.045 z"
   id="path216"
   style="fill:url(#linearGradient3027);stroke:none" />
        </g>
      </g><path
   adobe-blending-mode="multiply"
   d="m 46.864,30.74 0.262,-1.714 2.998,-2.089 -4.018,-1.734 -3.837,4.602 4.114,2.868 -13.09,5.324 -3.813,3.164 c 0.027,-0.009 0.055,-0.015 0.082,-0.024 -0.027,0.009 -0.055,0.015 -0.082,0.024 l -0.241,0.2 -0.168,-0.08 c -2.163,0.626 -4.327,0.655 -6.491,0.655 l 0.239,0.157 -5.958,3.25 8.951,-0.793 4.861,1.64 5.236,-6.144 14.961,-4.916 -4.006,-4.39 z"
   id="path217"
   style="opacity:0.2;stroke:none" /><path
   adobe-blending-mode="multiply"
   d="m 1.503,28.166 21.079,13.771 c 2.163,0 4.327,-0.028 6.49,-0.655 L 1.503,28.166 z"
   id="path218"
   style="opacity:0.2;stroke:none" /><path
   adobe-blending-mode="multiply"
   d="m 45.435,33.097 -3.455,-0.151 -2.593,2.54 -4.427,1.877 7.211,-7.741 3.264,3.475 z"
   id="path219"
   style="opacity:0.2;stroke:none" /><g
   style="stroke:#000000"
   id="g220">
        <path
   d="M 47.534,1.691 47.425,1.589 C 46.622,0.765 45.702,0.314 44.761,0.103 43.413,-0.287 42.124,-0.002 41.282,0.764 41.226,0.8 37.287,4.726 37.287,4.726 37.283,4.728 22.315,20.011 22.315,20.011 l -0.142,0.146 -3.916,10.735 2.151,0.461 9.257,-4.008 15.034,-15.352 c -0.002,0.004 0.197,-0.197 0.219,-0.219 0.108,-0.092 0.24,-0.203 0.24,-0.203 0,-0.04 3.729,-4.04 3.729,-4.04 1.043,-1.57 0.498,-4.001 -1.353,-5.84 z"
   id="path221"
   style="stroke:none" />
      </g><g
   style="stroke:#000000"
   id="g222">
        <linearGradient
   id="XMLID_10_"
   gradientUnits="userSpaceOnUse"
   x1="-209.79539"
   y1="383.4541"
   x2="-206.6615"
   y2="379.64801"
   gradientTransform="matrix(1,0,0,-1,232.9102,407.9512)">
          <stop
   offset="0"
   style="stop-color:#FFFFFA"
   id="stop224" />
          <stop
   offset="1"
   style="stop-color:#F49333"
   id="stop225" />
        </linearGradient>
        <path
   d="m 23.555,20.514 -3.476,8.401 0.617,0.945 8.576,-3.881 -1.636,-4.29 -4.081,-1.175 z"
   id="path229"
   style="fill:url(#linearGradient3029);stroke:none" />
      </g><path
   d="m 20.929,26.395 -1.195,2.521 0.875,1.461 2.122,-1.101 -1.342,-1.374 -0.46,-1.507 z"
   id="path230"
   style="stroke:none" /><g
   style="stroke:#000000"
   id="g231">
        <path
   d="M 43.556,11.394 29.271,25.979 26.487,25.425 23.976,23.12 23.554,20.513 37.839,5.928 l 0.417,2.608 2.515,2.305 2.785,0.553 z"
   id="path232"
   style="fill:#f49300;stroke:none" />
      </g><g
   style="stroke:#000000"
   id="g233">
        <linearGradient
   id="XMLID_11_"
   gradientUnits="userSpaceOnUse"
   x1="-202.1787"
   y1="393.5264"
   x2="-203.2431"
   y2="394.66669"
   gradientTransform="matrix(1,0,0,-1,232.9102,407.9512)">
          <stop
   offset="0"
   style="stop-color:#ECEB23"
   id="stop235" />
          <stop
   offset="1"
   style="stop-color:#F49333"
   id="stop236" />
        </linearGradient>
        <path
   d="M 23.891,23.207 23.555,20.514 37.839,5.928 38.256,8.536 23.891,23.207 z"
   id="path240"
   style="fill:url(#linearGradient3031);stroke:none" />
      </g><g
   style="stroke:#000000"
   id="g241">
        <linearGradient
   id="XMLID_12_"
   gradientUnits="userSpaceOnUse"
   x1="-200.11819"
   y1="390.5498"
   x2="-201.3344"
   y2="391.76599"
   gradientTransform="matrix(1,0,0,-1,232.9102,407.9512)">
          <stop
   offset="0"
   style="stop-color:#ECEB23"
   id="stop243" />
          <stop
   offset="1"
   style="stop-color:#FFFCF7"
   id="stop244" />
        </linearGradient>
        <path
   d="M 26.487,25.426 23.971,23.122 38.256,8.536 40.771,10.84 26.487,25.426 z"
   id="path248"
   style="fill:url(#linearGradient3033);stroke:none" />
      </g><path
   d="M 37.971,8.257 23.834,22.798 26.853,25.676 41.347,10.825 38.24,7.98 37.971,8.257 z m 0.3,0.836 c 0.387,0.354 1.514,1.387 1.925,1.763 C 39.651,11.412 26.982,24.348 26.471,24.869 26.084,24.515 24.956,23.482 24.547,23.106 25.091,22.55 37.761,9.614 38.271,9.093 z"
   id="path249"
   style="stroke:none" /><g
   style="stroke:#000000"
   id="g250">
        <linearGradient
   id="XMLID_13_"
   gradientUnits="userSpaceOnUse"
   x1="-193.3008"
   y1="405.5527"
   x2="-188.93671"
   y2="400.5466"
   gradientTransform="matrix(1,0,0,-1,232.9102,407.9512)">
          <stop
   offset="0.0279"
   style="stop-color:#FF9999"
   id="stop252" />
          <stop
   offset="0.1116"
   style="stop-color:#FF9F9F"
   id="stop253" />
          <stop
   offset="0.2238"
   style="stop-color:#FFB0B0"
   id="stop254" />
          <stop
   offset="0.3523"
   style="stop-color:#FFCCCC"
   id="stop255" />
          <stop
   offset="0.4918"
   style="stop-color:#FFF3F3"
   id="stop256" />
          <stop
   offset="0.5307"
   style="stop-color:#FFFFFF"
   id="stop257" />
          <stop
   offset="0.6016"
   style="stop-color:#FFE6E6"
   id="stop258" />
          <stop
   offset="0.7129"
   style="stop-color:#FFC5C5"
   id="stop259" />
          <stop
   offset="0.8192"
   style="stop-color:#FFACAC"
   id="stop260" />
          <stop
   offset="0.9175"
   style="stop-color:#FF9E9E"
   id="stop261" />
          <stop
   offset="1"
   style="stop-color:#FF9999"
   id="stop262" />
        </linearGradient>
        <path
   d="M 46.624,2.644 C 46.587,2.607 46.549,2.575 46.511,2.539 45.806,1.814 45.107,1.454 44.473,1.317 43.518,1.031 42.615,1.143 42.048,1.713 42.042,1.718 42.038,1.725 42.032,1.731 41.963,1.772 41.925,1.8 41.925,1.8 l -4.152,4.197 0.075,2.18 2.858,2.733 2.784,0.553 4.152,-4.197 c 0,0 0.045,-0.086 0.101,-0.238 0.785,-1.055 0.321,-2.953 -1.119,-4.384 z"
   id="path284"
   style="fill:url(#linearGradient3035);stroke:none" />
      </g><path
   d="m 23.256,19.88 c -0.216,0.048 -0.352,0.262 -0.304,0.478 l 0.661,2.973 2.682,2.462 3.139,0.694 c 0.216,0.048 0.429,-0.089 0.477,-0.304 0.007,-0.029 0.009,-0.059 0.009,-0.088 0,-0.183 -0.126,-0.348 -0.313,-0.39 0,0 -2.733,-0.604 -2.929,-0.648 -0.143,-0.131 -2.172,-1.994 -2.338,-2.146 -0.05,-0.225 -0.607,-2.728 -0.607,-2.728 -0.048,-0.215 -0.262,-0.351 -0.477,-0.303 z"
   id="path285"
   style="stroke:none" /><path
   adobe-blending-mode="multiply"
   d="m 20.128,31.338 h 19.354 l 3.878,-3.749 -15.227,0.13 -8.005,3.619 z"
   id="path292"
   style="opacity:0.7;fill:url(#linearGradient3063);stroke:none" /><path
   d="m 37.88,4.815 c -1.242,1.25 -0.38,4.034 1.191,5.594 1.098,1.091 2.633,1.793 3.908,1.789 0.674,-0.002 1.231,-0.207 1.614,-0.592 0.155,-0.157 0.155,-0.41 -0.003,-0.565 -0.156,-0.156 -0.409,-0.155 -0.565,0.002 -0.29,0.292 -0.729,0.354 -1.048,0.355 C 41.918,11.401 40.575,10.776 39.634,9.841 38.233,8.449 37.594,6.199 38.406,5.381 38.562,5.225 38.6,4.968 38.444,4.813 38.289,4.657 38.035,4.658 37.88,4.815 z"
   id="path293"
   style="stroke:none" /><g
   style="stroke:#000000"
   id="g294">
        <linearGradient
   id="XMLID_15_"
   gradientUnits="userSpaceOnUse"
   x1="-190.4854"
   y1="403.82809"
   x2="-185.8945"
   y2="403.44559"
   gradientTransform="matrix(1,0,0,-1,232.9102,407.9512)">
          <stop
   offset="0"
   style="stop-color:#FFFFFF"
   id="stop296" />
          <stop
   offset="0.2071"
   style="stop-color:#FFEFEF"
   id="stop297" />
          <stop
   offset="0.6077"
   style="stop-color:#FFC7C7"
   id="stop298" />
          <stop
   offset="1"
   style="stop-color:#FF9999"
   id="stop299" />
        </linearGradient>
        <path
   d="M 43.262,6.016 C 41.754,4.513 41.283,2.541 42.209,1.612 c 0.927,-0.929 2.899,-0.464 4.407,1.04 1.508,1.503 1.979,3.475 1.053,4.404 -0.927,0.928 -2.899,0.463 -4.407,-1.04 z"
   id="path307"
   style="fill:url(#linearGradient3039);stroke:none" />
      </g><path
   d="m 41.521,1.176 c -0.387,0.389 -0.59,0.944 -0.588,1.607 0.004,1.22 0.708,2.705 1.793,3.784 1.104,1.097 2.626,1.803 3.878,1.799 C 47.265,8.364 47.815,8.16 48.196,7.777 48.351,7.62 48.351,7.367 48.194,7.212 48.037,7.057 47.785,7.057 47.629,7.214 47.341,7.504 46.912,7.565 46.603,7.567 45.569,7.57 44.238,6.941 43.291,6 42.363,5.078 41.737,3.784 41.734,2.782 41.733,2.471 41.735,1.976 42.031,1.679 c 0.156,-0.157 0.213,-0.348 0.057,-0.503 -0.157,-0.158 -0.411,-0.157 -0.567,0 z"
   id="path308"
   style="stroke:none" />
</svg>