<?xml version="1.0" encoding="UTF-8" standalone="no"?>
<svg
   xmlns:dc="http://purl.org/dc/elements/1.1/"
   xmlns:cc="http://creativecommons.org/ns#"
   xmlns:rdf="http://www.w3.org/1999/02/22-rdf-syntax-ns#"
   xmlns:svg="http://www.w3.org/2000/svg"
   xmlns="http://www.w3.org/2000/svg"
   xmlns:xlink="http://www.w3.org/1999/xlink"
   xmlns:sodipodi="http://sodipodi.sourceforge.net/DTD/sodipodi-0.dtd"
   xmlns:inkscape="http://www.inkscape.org/namespaces/inkscape"
   version="1.1"
   width="64"
   height="64"
   color-interpolation="linearRGB"
   id="svg2"
   inkscape:version="0.47 r22583"
   sodipodi:docname="gnote2.svg">
  <metadata
     id="metadata55">
    <rdf:RDF>
      <cc:Work
         rdf:about="">
        <dc:format>image/svg+xml</dc:format>
        <dc:type
           rdf:resource="http://purl.org/dc/dcmitype/StillImage" />
        <dc:title></dc:title>
      </cc:Work>
    </rdf:RDF>
  </metadata>
  <defs
     id="defs53">
    <linearGradient
       y2="36.200001"
       x2="-15.71"
       y1="26.76"
       x1="-10.95"
       gradientUnits="userSpaceOnUse"
       id="linearGradient2930">
      <stop
         id="stop2932"
         stop-color="#dad09f"
         offset="0" />
      <stop
         id="stop2934"
         stop-color="#fffdf2"
         offset="0.3121" />
      <stop
         id="stop2936"
         stop-color="#dad09f"
         offset="0.47982952" />
      <stop
         id="stop2938"
         stop-color="#c7ac5b"
         offset="1" />
    </linearGradient>
    <inkscape:perspective
       sodipodi:type="inkscape:persp3d"
       inkscape:vp_x="0 : 32 : 1"
       inkscape:vp_y="0 : 1000 : 0"
       inkscape:vp_z="64 : 32 : 1"
       inkscape:persp3d-origin="32 : 21.333333 : 1"
       id="perspective57" />
    <inkscape:perspective
       id="perspective35"
       inkscape:persp3d-origin="32 : 21.333333 : 1"
       inkscape:vp_z="64 : 32 : 1"
       inkscape:vp_y="0 : 1000 : 0"
       inkscape:vp_x="0 : 32 : 1"
       sodipodi:type="inkscape:persp3d" />
    <inkscape:perspective
       id="perspective3375"
       inkscape:persp3d-origin="30 : 18.75 : 1"
       inkscape:vp_z="60 : 28.125 : 1"
       inkscape:vp_y="0 : 1000 : 0"
       inkscape:vp_x="0 : 28.125 : 1"
       sodipodi:type="inkscape:persp3d" />
    <linearGradient
       inkscape:collect="always"
       xlink:href="#XMLID_1_"
       id="linearGradient3471"
       gradientUnits="userSpaceOnUse"
       gradientTransform="matrix(0.4828,0.721,0.7677,-0.514,50.3329,346.1161)"
       x1="-324.74509"
       y1="177.79491"
       x2="-310.03329"
       y2="153.6615" />
    <linearGradient
       inkscape:collect="always"
       xlink:href="#XMLID_1_"
       id="linearGradient3473"
       gradientUnits="userSpaceOnUse"
       gradientTransform="matrix(0.4828,0.721,0.7677,-0.514,50.3329,346.1161)"
       x1="-324.74509"
       y1="177.79491"
       x2="-310.03329"
       y2="153.6615" />
    <linearGradient
       inkscape:collect="always"
       xlink:href="#XMLID_3_"
       id="linearGradient3475"
       gradientUnits="userSpaceOnUse"
       gradientTransform="matrix(0.702,0.51,0.543,-0.7475,71.8123,340.4085)"
       x1="-265.06879"
       y1="257.35941"
       x2="-249.0802"
       y2="231.13139" />
    <linearGradient
       inkscape:collect="always"
       xlink:href="#XMLID_3_"
       id="linearGradient3477"
       gradientUnits="userSpaceOnUse"
       gradientTransform="matrix(0.702,0.51,0.543,-0.7475,71.8123,340.4085)"
       x1="-265.06879"
       y1="257.35941"
       x2="-249.0802"
       y2="231.13139" />
    <linearGradient
       inkscape:collect="always"
       xlink:href="#XMLID_1_"
       id="linearGradient3571"
       gradientUnits="userSpaceOnUse"
       gradientTransform="matrix(0.4828,0.721,0.7677,-0.514,50.3329,346.1161)"
       x1="-324.74509"
       y1="177.79491"
       x2="-310.03329"
       y2="153.6615" />
    <linearGradient
       inkscape:collect="always"
       xlink:href="#XMLID_1_"
       id="linearGradient3573"
       gradientUnits="userSpaceOnUse"
       gradientTransform="matrix(0.4828,0.721,0.7677,-0.514,50.3329,346.1161)"
       x1="-324.74509"
       y1="177.79491"
       x2="-310.03329"
       y2="153.6615" />
    <linearGradient
       inkscape:collect="always"
       xlink:href="#XMLID_3_"
       id="linearGradient3575"
       gradientUnits="userSpaceOnUse"
       gradientTransform="matrix(0.702,0.51,0.543,-0.7475,71.8123,340.4085)"
       x1="-265.06879"
       y1="257.35941"
       x2="-249.0802"
       y2="231.13139" />
    <linearGradient
       inkscape:collect="always"
       xlink:href="#XMLID_3_"
       id="linearGradient3577"
       gradientUnits="userSpaceOnUse"
       gradientTransform="matrix(0.702,0.51,0.543,-0.7475,71.8123,340.4085)"
       x1="-265.06879"
       y1="257.35941"
       x2="-249.0802"
       y2="231.13139" />
    <linearGradient
       inkscape:collect="always"
       xlink:href="#XMLID_5_"
       id="linearGradient3579"
       gradientUnits="userSpaceOnUse"
       gradientTransform="matrix(1,0,0,-1,232.9102,407.9512)"
       x1="-206.58591"
       y1="394.66699"
       x2="-217.3597"
       y2="383.89319" />
    <linearGradient
       inkscape:collect="always"
       xlink:href="#XMLID_6_"
       id="linearGradient3581"
       gradientUnits="userSpaceOnUse"
       gradientTransform="matrix(1,0,0,-1,232.9102,407.9512)"
       x1="-207.7251"
       y1="387.4473"
       x2="-217.89751"
       y2="378.02939" />
    <linearGradient
       inkscape:collect="always"
       xlink:href="#XMLID_7_"
       id="linearGradient3583"
       gradientUnits="userSpaceOnUse"
       gradientTransform="matrix(1,0,0,-1,232.9102,407.9512)"
       x1="-205.50391"
       y1="384.91309"
       x2="-215.6445"
       y2="375.52469" />
    <linearGradient
       inkscape:collect="always"
       xlink:href="#XMLID_8_"
       id="linearGradient3585"
       gradientUnits="userSpaceOnUse"
       gradientTransform="matrix(1,0,0,-1,232.9102,407.9512)"
       x1="-200.31931"
       y1="383.29199"
       x2="-209.48"
       y2="376.46649" />
    <linearGradient
       inkscape:collect="always"
       xlink:href="#XMLID_9_"
       id="linearGradient3587"
       gradientUnits="userSpaceOnUse"
       gradientTransform="matrix(1,0,0,-1,232.9102,407.9512)"
       x1="-196.8564"
       y1="382.28909"
       x2="-201.84669"
       y2="378.1304" />
    <linearGradient
       inkscape:collect="always"
       xlink:href="#XMLID_10_"
       id="linearGradient3589"
       gradientUnits="userSpaceOnUse"
       gradientTransform="matrix(1,0,0,-1,232.9102,407.9512)"
       x1="-209.79539"
       y1="383.4541"
       x2="-206.6615"
       y2="379.64801" />
    <linearGradient
       inkscape:collect="always"
       xlink:href="#XMLID_11_"
       id="linearGradient3591"
       gradientUnits="userSpaceOnUse"
       gradientTransform="matrix(1,0,0,-1,232.9102,407.9512)"
       x1="-202.1787"
       y1="393.5264"
       x2="-203.2431"
       y2="394.66669" />
    <linearGradient
       inkscape:collect="always"
       xlink:href="#XMLID_12_"
       id="linearGradient3593"
       gradientUnits="userSpaceOnUse"
       gradientTransform="matrix(1,0,0,-1,232.9102,407.9512)"
       x1="-200.11819"
       y1="390.5498"
       x2="-201.3344"
       y2="391.76599" />
    <linearGradient
       inkscape:collect="always"
       xlink:href="#XMLID_13_"
       id="linearGradient3595"
       gradientUnits="userSpaceOnUse"
       gradientTransform="matrix(1,0,0,-1,232.9102,407.9512)"
       x1="-193.3008"
       y1="405.5527"
       x2="-188.93671"
       y2="400.5466" />
    <linearGradient
       inkscape:collect="always"
       xlink:href="#XMLID_14_"
       id="linearGradient3597"
       gradientUnits="userSpaceOnUse"
       gradientTransform="matrix(1,0,0,-1,232.9102,407.9512)"
       x1="-201.166"
       y1="380.88089"
       x2="-201.166"
       y2="376.08051" />
    <linearGradient
       inkscape:collect="always"
       xlink:href="#XMLID_15_"
       id="linearGradient3599"
       gradientUnits="userSpaceOnUse"
       gradientTransform="matrix(1,0,0,-1,232.9102,407.9512)"
       x1="-190.4854"
       y1="403.82809"
       x2="-185.8945"
       y2="403.44559" />
    <linearGradient
       gradientTransform="matrix(1,0,0,-1,232.9102,407.9512)"
       y2="378.02939"
       x2="-217.89751"
       y1="387.4473"
       x1="-207.7251"
       gradientUnits="userSpaceOnUse"
       id="XMLID_6_">
      <stop
         id="stop188"
         style="stop-color:#D8DAA1"
         offset="0" />
      <stop
         id="stop189"
         style="stop-color:#5C5C3A"
         offset="1" />
    </linearGradient>
    <linearGradient
       gradientTransform="matrix(1,0,0,-1,232.9102,407.9512)"
       y2="375.52469"
       x2="-215.6445"
       y1="384.91309"
       x1="-205.50391"
       gradientUnits="userSpaceOnUse"
       id="XMLID_7_">
      <stop
         id="stop195"
         style="stop-color:#D8DAA1"
         offset="0" />
      <stop
         id="stop196"
         style="stop-color:#5C5C3A"
         offset="1" />
    </linearGradient>
    <linearGradient
       gradientTransform="matrix(1,0,0,-1,232.9102,407.9512)"
       y2="376.46649"
       x2="-209.48"
       y1="383.29199"
       x1="-200.31931"
       gradientUnits="userSpaceOnUse"
       id="XMLID_8_">
      <stop
         id="stop202"
         style="stop-color:#D8DAA1"
         offset="0" />
      <stop
         id="stop203"
         style="stop-color:#5C5C3A"
         offset="1" />
    </linearGradient>
    <linearGradient
       gradientTransform="matrix(1,0,0,-1,232.9102,407.9512)"
       y2="376.08051"
       x2="-201.166"
       y1="380.88089"
       x1="-201.166"
       gradientUnits="userSpaceOnUse"
       id="XMLID_14_">
      <stop
         id="stop287"
         style="stop-color:#FFFFFF"
         offset="0" />
      <stop
         id="stop288"
         style="stop-color:#000000"
         offset="1" />
    </linearGradient>
    <linearGradient
       inkscape:collect="always"
       xlink:href="#XMLID_14_"
       id="linearGradient3623"
       gradientUnits="userSpaceOnUse"
       gradientTransform="matrix(1.1794307,0,0,-1.1794307,214.05855,485.95308)"
       x1="-201.166"
       y1="380.88089"
       x2="-201.166"
       y2="376.08051" />
    <linearGradient
       inkscape:collect="always"
       xlink:href="#XMLID_8_"
       id="linearGradient3671"
       gradientUnits="userSpaceOnUse"
       gradientTransform="matrix(1.1794307,0,0,-1.1794307,214.05855,485.95308)"
       x1="-200.31931"
       y1="383.29199"
       x2="-209.48"
       y2="376.46649" />
    <linearGradient
       inkscape:collect="always"
       xlink:href="#XMLID_7_"
       id="linearGradient3674"
       gradientUnits="userSpaceOnUse"
       gradientTransform="matrix(1.1794307,0,0,-1.1794307,214.05855,485.95308)"
       x1="-205.50391"
       y1="384.91309"
       x2="-215.6445"
       y2="375.52469" />
    <linearGradient
       inkscape:collect="always"
       xlink:href="#XMLID_6_"
       id="linearGradient3677"
       gradientUnits="userSpaceOnUse"
       gradientTransform="matrix(1.1794307,0,0,-1.1794307,214.05855,485.95308)"
       x1="-207.7251"
       y1="387.4473"
       x2="-217.89751"
       y2="378.02939" />
    <linearGradient
       y2="0.95999998"
       x2="4.3000002"
       y1="-5.8800001"
       x1="6.8400002"
       gradientUnits="userSpaceOnUse"
       id="gradient0">
      <stop
         id="stop11"
         stop-color="#b17703"
         offset="0" />
      <stop
         id="stop13"
         stop-color="#c7ac5b"
         offset="1" />
    </linearGradient>
    <linearGradient
       y2="81.620003"
       x2="115.08"
       y1="28.690001"
       x1="130.53"
       gradientUnits="userSpaceOnUse"
       id="gradient1">
      <stop
         id="stop22"
         stop-color="#dad09f"
         offset="0" />
      <stop
         id="stop24"
         stop-color="#fffdf2"
         offset="0.1957" />
      <stop
         id="stop26"
         stop-color="#dad09f"
         offset="0.4761"
         style="stop-color:#dad0d4;stop-opacity:1;" />
      <stop
         id="stop28"
         stop-color="#c7ac5b"
         offset="0.77509999"
         style="stop-color:#de0ac0;stop-opacity:1;" />
      <stop
         id="stop30"
         stop-color="#b17703"
         offset="1"
         style="stop-color:#6f6f70;stop-opacity:1;" />
    </linearGradient>
    <linearGradient
       y2="36.200001"
       x2="-15.71"
       y1="26.76"
       x1="-10.95"
       gradientUnits="userSpaceOnUse"
       id="gradient2">
      <stop
         id="stop37"
         stop-color="#dad09f"
         offset="0" />
      <stop
         id="stop39"
         stop-color="#fffdf2"
         offset="0.3121" />
      <stop
         id="stop41"
         stop-color="#dad09f"
         offset="0.619" />
      <stop
         id="stop43"
         stop-color="#c7ac5b"
         offset="1" />
    </linearGradient>
    <linearGradient
       inkscape:collect="always"
       xlink:href="#gradient1"
       id="linearGradient3745"
       x1="-53.677967"
       y1="32.135593"
       x2="0.16405103"
       y2="32.135593"
       gradientUnits="userSpaceOnUse"
       gradientTransform="translate(60,0)" />
    <linearGradient
       inkscape:collect="always"
       xlink:href="#XMLID_7_"
       id="linearGradient3857"
       gradientUnits="userSpaceOnUse"
       gradientTransform="matrix(1.1794307,0,0,-1.1794307,279.68567,492.46155)"
       x1="-205.50391"
       y1="384.91309"
       x2="-215.6445"
       y2="375.52469" />
    <linearGradient
       inkscape:collect="always"
       xlink:href="#XMLID_10_"
       id="linearGradient3859"
       gradientUnits="userSpaceOnUse"
       gradientTransform="matrix(1,0,0,-1,232.9102,407.9512)"
       x1="-209.79539"
       y1="383.4541"
       x2="-206.6615"
       y2="379.64801" />
    <linearGradient
       inkscape:collect="always"
       xlink:href="#XMLID_11_"
       id="linearGradient3861"
       gradientUnits="userSpaceOnUse"
       gradientTransform="matrix(1,0,0,-1,232.9102,407.9512)"
       x1="-202.1787"
       y1="393.5264"
       x2="-203.2431"
       y2="394.66669" />
    <linearGradient
       inkscape:collect="always"
       xlink:href="#XMLID_12_"
       id="linearGradient3863"
       gradientUnits="userSpaceOnUse"
       gradientTransform="matrix(1,0,0,-1,232.9102,407.9512)"
       x1="-200.11819"
       y1="390.5498"
       x2="-201.3344"
       y2="391.76599" />
    <linearGradient
       inkscape:collect="always"
       xlink:href="#XMLID_13_"
       id="linearGradient3865"
       gradientUnits="userSpaceOnUse"
       gradientTransform="matrix(1,0,0,-1,232.9102,407.9512)"
       x1="-193.3008"
       y1="405.5527"
       x2="-188.93671"
       y2="400.5466" />
    <linearGradient
       inkscape:collect="always"
       xlink:href="#XMLID_15_"
       id="linearGradient3867"
       gradientUnits="userSpaceOnUse"
       gradientTransform="matrix(1,0,0,-1,232.9102,407.9512)"
       x1="-190.4854"
       y1="403.82809"
       x2="-185.8945"
       y2="403.44559" />
  </defs>
  <sodipodi:namedview
     pagecolor="#ffffff"
     bordercolor="#666666"
     borderopacity="1"
     objecttolerance="10"
     gridtolerance="10"
     guidetolerance="10"
     inkscape:pageopacity="0"
     inkscape:pageshadow="2"
     inkscape:window-width="1106"
     inkscape:window-height="682"
     id="namedview51"
     showgrid="false"
     inkscape:zoom="3.6875"
     inkscape:cx="25.768269"
     inkscape:cy="32"
     inkscape:window-x="85"
     inkscape:window-y="43"
     inkscape:window-maximized="1"
     inkscape:current-layer="svg2"
     showguides="true"
     inkscape:guide-bbox="true" />
  <path
     id="path6"
     d="m 29.434211,64 c 0,0 -6.372881,-0.271186 -8.372881,-2.271186 C 13.936374,55.301149 9.264638,44.932114 2.468109,37.220339 -1.19706,34.616155 7.692651,34.237288 28.756245,24.745763"
     style="fill:#010101;fill-opacity:0.47449999"
     sodipodi:nodetypes="cccc" />
  <path
     id="path19"
     d=""
     style="fill:none;stroke:#010101;stroke-width:4" />
  <path
     style="fill:url(#linearGradient3745);fill-opacity:1;stroke:#000000;stroke-width:2;stroke-linecap:butt;stroke-linejoin:miter;stroke-miterlimit:4;stroke-opacity:1;stroke-dasharray:none"
     d="M 7.322034,8.9491526 C 20.826579,8.7902855 30.962606,4.3529753 41.762712,0.81355932 54.783427,14.643954 46.954685,43.464462 59.118644,46.644068 59.966543,46.451958 48.902841,50.053107 29.016949,63.457627 11.862939,53.313007 25.543072,14.342324 7.322034,8.9491526 z"
     id="path2942"
     sodipodi:nodetypes="ccccc" />
  <path
     id="path47"
     d="m 46.191111,28.5249 -22.6353,9.9471 m 23.843,-3.9923 -16.9246,8.7092"
     style="fill:none;stroke:#010101;stroke-width:1.95907009" />
  <path
     id="path49"
     d="m 44.434211,15 -24,9 m 25,-3 -18,8"
     style="fill:none;stroke:#010101;stroke-width:2" />
  <g
     id="g3809"
     transform="translate(0,12)">
    <path
       style="fill:url(#linearGradient3857);stroke:none"
       d="M 38.257151,35.877752 27.566792,47.02691 c -0.358547,0.364444 1.036719,1.274965 1.394087,0.912879 0,0 10.87553,-11.618571 10.54411,-12.008963 -0.332599,-0.391571 -0.89047,-0.41516 -1.247838,-0.05307 z"
       id="path200" />
    <g
       transform="matrix(1.1794307,0,0,1.1794307,4.984232,11.311389)"
       id="g220"
       style="stroke:#000000">
      <path
         style="stroke:none"
         d="M 47.534,1.691 47.425,1.589 C 46.622,0.765 45.702,0.314 44.761,0.103 43.413,-0.287 42.124,-0.002 41.282,0.764 41.226,0.8 37.287,4.726 37.287,4.726 37.283,4.728 22.315,20.011 22.315,20.011 l -0.142,0.146 -3.916,10.735 2.151,0.461 9.257,-4.008 15.034,-15.352 c -0.002,0.004 0.197,-0.197 0.219,-0.219 0.108,-0.092 0.24,-0.203 0.24,-0.203 0,-0.04 3.729,-4.04 3.729,-4.04 1.043,-1.57 0.498,-4.001 -1.353,-5.84 z"
         id="path221" />
    </g>
    <g
       transform="matrix(1.1794307,0,0,1.1794307,4.984232,11.311389)"
       id="g222"
       style="stroke:#000000">
      <linearGradient
         id="XMLID_10_"
         gradientUnits="userSpaceOnUse"
         x1="-209.79539"
         y1="383.4541"
         x2="-206.6615"
         y2="379.64801"
         gradientTransform="matrix(1,0,0,-1,232.9102,407.9512)">
        <stop
           offset="0"
           style="stop-color:#FFFFFA"
           id="stop224" />
        <stop
           offset="1"
           style="stop-color:#F49333"
           id="stop225" />
      </linearGradient>
      <path
         style="fill:url(#linearGradient3859);stroke:none"
         d="m 23.555,20.514 -3.476,8.401 0.617,0.945 8.576,-3.881 -1.636,-4.29 -4.081,-1.175 z"
         id="path229" />
    </g>
    <path
       style="stroke:none"
       d="m 29.668537,42.442463 -1.40942,2.973345 1.032002,1.723148 2.502752,-1.298553 -1.582796,-1.620538 -0.542538,-1.777402 z"
       id="path230" />
    <g
       transform="matrix(1.1794307,0,0,1.1794307,4.984232,11.311389)"
       id="g231"
       style="stroke:#000000">
      <path
         style="fill:#f49300;stroke:none"
         d="M 43.556,11.394 29.271,25.979 26.487,25.425 23.976,23.12 23.554,20.513 37.839,5.928 l 0.417,2.608 2.515,2.305 2.785,0.553 z"
         id="path232" />
    </g>
    <g
       transform="matrix(1.1794307,0,0,1.1794307,4.984232,11.311389)"
       id="g233"
       style="stroke:#000000">
      <linearGradient
         id="XMLID_11_"
         gradientUnits="userSpaceOnUse"
         x1="-202.1787"
         y1="393.5264"
         x2="-203.2431"
         y2="394.66669"
         gradientTransform="matrix(1,0,0,-1,232.9102,407.9512)">
        <stop
           offset="0"
           style="stop-color:#ECEB23"
           id="stop235" />
        <stop
           offset="1"
           style="stop-color:#F49333"
           id="stop236" />
      </linearGradient>
      <path
         style="fill:url(#linearGradient3861);stroke:none"
         d="M 23.891,23.207 23.555,20.514 37.839,5.928 38.256,8.536 23.891,23.207 z"
         id="path240" />
    </g>
    <g
       transform="matrix(1.1794307,0,0,1.1794307,4.984232,11.311389)"
       id="g241"
       style="stroke:#000000">
      <linearGradient
         id="XMLID_12_"
         gradientUnits="userSpaceOnUse"
         x1="-200.11819"
         y1="390.5498"
         x2="-201.3344"
         y2="391.76599"
         gradientTransform="matrix(1,0,0,-1,232.9102,407.9512)">
        <stop
           offset="0"
           style="stop-color:#ECEB23"
           id="stop243" />
        <stop
           offset="1"
           style="stop-color:#FFFCF7"
           id="stop244" />
      </linearGradient>
      <path
         style="fill:url(#linearGradient3863);stroke:none"
         d="M 26.487,25.426 23.971,23.122 38.256,8.536 40.771,10.84 26.487,25.426 z"
         id="path248" />
    </g>
    <path
       style="stroke:none"
       d="m 49.768395,21.049949 -16.673612,17.150102 3.560702,3.394401 17.094668,-17.515725 -3.664491,-3.35548 -0.317267,0.326702 z m 0.353829,0.986004 c 0.45644,0.417518 1.785658,1.63587 2.270404,2.079336 -0.642789,0.655764 -15.584997,15.912879 -16.187686,16.527363 -0.45644,-0.417519 -1.786837,-1.635871 -2.269225,-2.079337 0.641611,-0.655763 15.584998,-15.912879 16.186507,-16.527362 z"
       id="path249" />
    <g
       transform="matrix(1.1794307,0,0,1.1794307,4.984232,11.311389)"
       id="g250"
       style="stroke:#000000">
      <linearGradient
         id="XMLID_13_"
         gradientUnits="userSpaceOnUse"
         x1="-193.3008"
         y1="405.5527"
         x2="-188.93671"
         y2="400.5466"
         gradientTransform="matrix(1,0,0,-1,232.9102,407.9512)">
        <stop
           offset="0.0279"
           style="stop-color:#FF9999"
           id="stop252" />
        <stop
           offset="0.1116"
           style="stop-color:#FF9F9F"
           id="stop253" />
        <stop
           offset="0.2238"
           style="stop-color:#FFB0B0"
           id="stop254" />
        <stop
           offset="0.3523"
           style="stop-color:#FFCCCC"
           id="stop255" />
        <stop
           offset="0.4918"
           style="stop-color:#FFF3F3"
           id="stop256" />
        <stop
           offset="0.5307"
           style="stop-color:#FFFFFF"
           id="stop257" />
        <stop
           offset="0.6016"
           style="stop-color:#FFE6E6"
           id="stop258" />
        <stop
           offset="0.7129"
           style="stop-color:#FFC5C5"
           id="stop259" />
        <stop
           offset="0.8192"
           style="stop-color:#FFACAC"
           id="stop260" />
        <stop
           offset="0.9175"
           style="stop-color:#FF9E9E"
           id="stop261" />
        <stop
           offset="1"
           style="stop-color:#FF9999"
           id="stop262" />
      </linearGradient>
      <path
         style="fill:url(#linearGradient3865);stroke:none"
         d="M 46.624,2.644 C 46.587,2.607 46.549,2.575 46.511,2.539 45.806,1.814 45.107,1.454 44.473,1.317 43.518,1.031 42.615,1.143 42.048,1.713 42.042,1.718 42.038,1.725 42.032,1.731 41.963,1.772 41.925,1.8 41.925,1.8 l -4.152,4.197 0.075,2.18 2.858,2.733 2.784,0.553 4.152,-4.197 c 0,0 0.045,-0.086 0.101,-0.238 0.785,-1.055 0.321,-2.953 -1.119,-4.384 z"
         id="path284" />
    </g>
    <path
       style="stroke:none"
       d="m 32.413072,34.758472 c -0.254757,0.05661 -0.415159,0.309011 -0.358547,0.563768 l 0.779604,3.506447 3.163233,2.903759 3.702233,0.818525 c 0.254757,0.05661 0.505976,-0.10497 0.562589,-0.358547 0.0083,-0.0342 0.01062,-0.06959 0.01062,-0.10379 0,-0.215836 -0.148609,-0.410442 -0.369162,-0.459978 0,0 -3.223384,-0.712376 -3.454553,-0.764271 -0.168658,-0.154506 -2.561723,-2.351785 -2.757509,-2.531059 -0.05897,-0.265372 -0.715914,-3.217487 -0.715914,-3.217487 -0.05661,-0.253577 -0.309011,-0.41398 -0.562589,-0.357367 z"
       id="path285" />
    <path
       style="stroke:none"
       d="m 49.661067,16.990348 c -1.464853,1.474289 -0.448184,4.757824 1.404702,6.597736 1.295015,1.286759 3.105441,2.114719 4.609215,2.110001 0.794936,-0.0024 1.451879,-0.244142 1.903601,-0.698223 0.182812,-0.18517 0.182812,-0.483566 -0.0035,-0.666378 -0.183991,-0.183991 -0.482387,-0.182812 -0.666378,0.0024 -0.342035,0.344394 -0.859805,0.417518 -1.236043,0.418698 -1.249018,0.0035 -2.832993,-0.733606 -3.942838,-1.836374 -1.652382,-1.641767 -2.406038,-4.295486 -1.448341,-5.260261 0.183992,-0.183991 0.22881,-0.487105 0.04482,-0.669916 -0.182812,-0.183992 -0.482387,-0.182812 -0.665199,0.0024 z"
       id="path293" />
    <g
       transform="matrix(1.1794307,0,0,1.1794307,4.984232,11.311389)"
       id="g294"
       style="stroke:#000000">
      <linearGradient
         id="XMLID_15_"
         gradientUnits="userSpaceOnUse"
         x1="-190.4854"
         y1="403.82809"
         x2="-185.8945"
         y2="403.44559"
         gradientTransform="matrix(1,0,0,-1,232.9102,407.9512)">
        <stop
           offset="0"
           style="stop-color:#FFFFFF"
           id="stop296" />
        <stop
           offset="0.2071"
           style="stop-color:#FFEFEF"
           id="stop297" />
        <stop
           offset="0.6077"
           style="stop-color:#FFC7C7"
           id="stop298" />
        <stop
           offset="1"
           style="stop-color:#FF9999"
           id="stop299" />
      </linearGradient>
      <path
         style="fill:url(#linearGradient3867);stroke:none"
         d="M 43.262,6.016 C 41.754,4.513 41.283,2.541 42.209,1.612 c 0.927,-0.929 2.899,-0.464 4.407,1.04 1.508,1.503 1.979,3.475 1.053,4.404 -0.927,0.928 -2.899,0.463 -4.407,-1.04 z"
         id="path307" />
    </g>
    <path
       style="stroke:none"
       d="m 53.955374,12.6984 c -0.45644,0.458798 -0.695864,1.113382 -0.693505,1.895345 0.0047,1.438905 0.835037,3.19036 2.114719,4.462966 1.302092,1.293835 3.097185,2.126514 4.573832,2.121796 0.779604,-0.0024 1.428291,-0.242963 1.877654,-0.694685 0.182812,-0.18517 0.182812,-0.483566 -0.0024,-0.666378 -0.185171,-0.182812 -0.482387,-0.182812 -0.666378,0.0024 -0.339676,0.342035 -0.845652,0.41398 -1.210096,0.416339 -1.219532,0.0035 -2.789354,-0.738324 -3.906275,-1.848168 -1.094511,-1.087435 -1.832835,-2.613619 -1.836373,-3.795409 -0.0012,-0.366802 0.0012,-0.950621 0.350291,-1.300912 0.183991,-0.18517 0.251218,-0.410441 0.06723,-0.593253 -0.18517,-0.18635 -0.484746,-0.185171 -0.668737,0 z"
       id="path308" />
  </g>
</svg>
