<?xml version="1.0" encoding="UTF-8" standalone="no"?>
<!-- Generator: Adobe Illustrator 10.0.3, SVG Export Plug-In . SVG Version: 3.0.0 Build 77)  -->

<svg
   xmlns:a="http://ns.adobe.com/AdobeSVGViewerExtensions/3.0/"
   xmlns:dc="http://purl.org/dc/elements/1.1/"
   xmlns:cc="http://creativecommons.org/ns#"
   xmlns:rdf="http://www.w3.org/1999/02/22-rdf-syntax-ns#"
   xmlns:svg="http://www.w3.org/2000/svg"
   xmlns="http://www.w3.org/2000/svg"
   xmlns:xlink="http://www.w3.org/1999/xlink"
   xmlns:sodipodi="http://sodipodi.sourceforge.net/DTD/sodipodi-0.dtd"
   xmlns:inkscape="http://www.inkscape.org/namespaces/inkscape"
   width="48"
   height="48"
   viewBox="0.1 -0.333 125 125"
   overflow="visible"
   enable-background="new 0.1 -0.333 125 125"
   xml:space="preserve"
   id="svg2"
   version="1.1"
   inkscape:version="0.47 r22583"
   sodipodi:docname="go-down.svg"><metadata
   id="metadata53"><rdf:RDF><cc:Work
       rdf:about=""><dc:format>image/svg+xml</dc:format><dc:type
         rdf:resource="http://purl.org/dc/dcmitype/StillImage" /></cc:Work></rdf:RDF></metadata><defs
   id="defs51"><inkscape:perspective
   sodipodi:type="inkscape:persp3d"
   inkscape:vp_x="0 : 24 : 1"
   inkscape:vp_y="0 : 1000 : 0"
   inkscape:vp_z="48 : 24 : 1"
   inkscape:persp3d-origin="24 : 16 : 1"
   id="perspective55" />
		
		<linearGradient
   y2="78.4402"
   x2="85.3164"
   y1="68.7568"
   x1="103.3237"
   gradientUnits="userSpaceOnUse"
   id="XMLID_1_">
			<stop
   id="stop8"
   style="stop-color:#d0a433;stop-opacity:1;"
   offset="0" />
			<stop
   id="stop10"
   style="stop-color:#b25d00;stop-opacity:1;"
   offset="1" />
		</linearGradient>
		
		<linearGradient
   y2="44.1865"
   x2="84.0435"
   y1="49.6226"
   x1="99.1616"
   gradientUnits="userSpaceOnUse"
   id="XMLID_2_">
			<stop
   id="stop15"
   style="stop-color:#b5a433;stop-opacity:1;"
   offset="0" />
			<stop
   id="stop17"
   style="stop-color:#b25d00;stop-opacity:1;"
   offset="1" />
		</linearGradient>
		
		<linearGradient
   y2="61.663"
   x2="24.4897"
   y1="49.6948"
   x1="23.5361"
   gradientUnits="userSpaceOnUse"
   id="XMLID_3_">
			<stop
   id="stop22"
   style="stop-color:#d0a433;stop-opacity:1;"
   offset="0" />
			<stop
   id="stop24"
   style="stop-color:#c95d00;stop-opacity:1;"
   offset="1" />
		</linearGradient>
		
		<linearGradient
   y2="25.7168"
   x2="53.1747"
   y1="1.0845"
   x1="72.7104"
   gradientUnits="userSpaceOnUse"
   id="XMLID_4_">
			<stop
   id="stop29"
   style="stop-color:#c5a433;stop-opacity:1;"
   offset="0" />
			<stop
   id="stop31"
   style="stop-color:#bc5d00;stop-opacity:1;"
   offset="1" />
		</linearGradient>
		
		<linearGradient
   y2="79.3744"
   x2="63.2121"
   y1="33.332"
   x1="33.9336"
   gradientUnits="userSpaceOnUse"
   id="XMLID_5_">
			<stop
   id="stop36"
   style="stop-color:#e7cc33;stop-opacity:1;"
   offset="0" />
			<stop
   id="stop38"
   style="stop-color:#e09900;stop-opacity:1;"
   offset="1" />
		</linearGradient>
		
		<linearGradient
   y2="85.5947"
   x2="59.228"
   y1="37.1128"
   x1="38.0518"
   gradientUnits="userSpaceOnUse"
   id="XMLID_6_">
			<stop
   id="stop43"
   style="stop-color:#FFFFFF"
   offset="0" />
			<stop
   id="stop45"
   style="stop-color:#000000"
   offset="1" />
		</linearGradient>
		
	<linearGradient
   inkscape:collect="always"
   xlink:href="#XMLID_6_"
   id="linearGradient2880"
   gradientUnits="userSpaceOnUse"
   x1="38.0518"
   y1="37.1128"
   x2="59.228"
   y2="85.5947" /><linearGradient
   inkscape:collect="always"
   xlink:href="#XMLID_5_"
   id="linearGradient2883"
   gradientUnits="userSpaceOnUse"
   x1="33.9336"
   y1="33.332"
   x2="63.2121"
   y2="79.3744" /><linearGradient
   inkscape:collect="always"
   xlink:href="#XMLID_4_"
   id="linearGradient2886"
   gradientUnits="userSpaceOnUse"
   x1="72.7104"
   y1="1.0845"
   x2="53.1747"
   y2="25.7168" /><linearGradient
   inkscape:collect="always"
   xlink:href="#XMLID_3_"
   id="linearGradient2889"
   gradientUnits="userSpaceOnUse"
   x1="23.5361"
   y1="49.6948"
   x2="24.4897"
   y2="61.663" /><linearGradient
   inkscape:collect="always"
   xlink:href="#XMLID_2_"
   id="linearGradient2892"
   gradientUnits="userSpaceOnUse"
   x1="99.1616"
   y1="49.6226"
   x2="84.0435"
   y2="44.1865" /><linearGradient
   inkscape:collect="always"
   xlink:href="#XMLID_1_"
   id="linearGradient2895"
   gradientUnits="userSpaceOnUse"
   x1="103.3237"
   y1="68.7568"
   x2="85.3164"
   y2="78.4402" /></defs><sodipodi:namedview
   pagecolor="#ffffff"
   bordercolor="#666666"
   borderopacity="1"
   objecttolerance="10"
   gridtolerance="10"
   guidetolerance="10"
   inkscape:pageopacity="0"
   inkscape:pageshadow="2"
   inkscape:window-width="739"
   inkscape:window-height="501"
   id="namedview49"
   showgrid="false"
   inkscape:zoom="4.9166667"
   inkscape:cx="24"
   inkscape:cy="24"
   inkscape:window-x="148"
   inkscape:window-y="213"
   inkscape:window-maximized="0"
   inkscape:current-layer="svg2" />
	<path
   id="path5"
   d="M 24.599,16.542 V 44.126 L 19.605,43.093 0,60.671 52.687,124.283 104.048,83.554 124.892,64.89 c 0,0 -23.527,-4.871 -27.404,-5.673 0,-4.4 0,-47.951 0,-47.951 L 43.071,0 24.599,16.542 z" /><path
   style="fill:url(#linearGradient2895)"
   id="path12"
   d="M 78.142,76.297 102.114,81.26 118.461,66.622 94.488,61.659 78.142,76.297 z" /><path
   style="fill:url(#linearGradient2892)"
   id="path19"
   d="M 78.142,76.297 94.488,61.659 V 13.709 L 78.142,28.347 v 47.95 z" /><path
   style="fill:url(#linearGradient2889)"
   id="path26"
   d="M 27.612,65.841 4.147,60.982 20.48,46.337 43.945,51.196 27.612,65.841 z" /><path
   style="fill:url(#linearGradient2886)"
   id="path33"
   d="M 27.599,17.883 78.142,28.347 94.488,13.709 43.945,3.245 27.599,17.883 z" /><path
   style="fill:url(#linearGradient2883)"
   id="path40"
   d="m 27.599,17.883 v 47.95 L 4.134,60.976 53.124,120.109 102.114,81.26 78.142,76.297 V 28.347 L 27.599,17.883 z" /><path
   style="opacity:0.4;fill:url(#linearGradient2880)"
   id="path47"
   d="m 77.377,76.92 c 0,0 0,-46.738 0,-47.95 -1.167,-0.242 -47.264,-9.785 -49.014,-10.148 0,1.805 0,47.012 0,47.012 v 0.939 c 0,0 -18.724,-3.877 -22.25,-4.606 0.742,0.896 4.83,5.83 10.311,12.446 7.662,-2.759 16.126,-2.521 23.705,0.394 15.539,6.121 32.238,14.27 48.847,15.697 6.053,-4.799 10.647,-8.443 11.382,-9.025 C 97.568,81.1 77.377,76.92 77.377,76.92 z"
   a:adobe-blending-mode="screen" />
</svg>