<?xml version="1.0" encoding="UTF-8" standalone="no"?>
<svg
   xmlns:dc="http://purl.org/dc/elements/1.1/"
   xmlns:cc="http://creativecommons.org/ns#"
   xmlns:rdf="http://www.w3.org/1999/02/22-rdf-syntax-ns#"
   xmlns:svg="http://www.w3.org/2000/svg"
   xmlns="http://www.w3.org/2000/svg"
   xmlns:xlink="http://www.w3.org/1999/xlink"
   xmlns:sodipodi="http://sodipodi.sourceforge.net/DTD/sodipodi-0.dtd"
   xmlns:inkscape="http://www.inkscape.org/namespaces/inkscape"
   version="1.1"
   width="64"
   height="64"
   color-interpolation="linearRGB"
   id="svg2"
   inkscape:version="0.91 r13725"
   sodipodi:docname="harddisk-warning.svg">
  <metadata
     id="metadata46">
    <rdf:RDF>
      <cc:Work
         rdf:about="">
        <dc:format>image/svg+xml</dc:format>
        <dc:type
           rdf:resource="http://purl.org/dc/dcmitype/StillImage" />
        <dc:title></dc:title>
      </cc:Work>
    </rdf:RDF>
  </metadata>
  <defs
     id="defs44">
    <inkscape:perspective
       id="perspective35"
       inkscape:persp3d-origin="24 : 16 : 1"
       inkscape:vp_z="48 : 24 : 1"
       inkscape:vp_y="0 : 1000 : 0"
       inkscape:vp_x="0 : 24 : 1"
       sodipodi:type="inkscape:persp3d" />
    <radialGradient
       r="117.14286"
       fy="486.64789"
       fx="605.71429"
       cy="486.64789"
       cx="605.71429"
       gradientTransform="matrix(-2.774389,0,0,1.969706,112.7623,-872.8854)"
       gradientUnits="userSpaceOnUse"
       id="radialGradient6719"
       xlink:href="#linearGradient5060"
       inkscape:collect="always" />
    <linearGradient
       id="linearGradient5060"
       inkscape:collect="always">
      <stop
         id="stop5062"
         offset="0"
         style="stop-color:black;stop-opacity:1;" />
      <stop
         id="stop5064"
         offset="1"
         style="stop-color:black;stop-opacity:0;" />
    </linearGradient>
    <radialGradient
       r="117.14286"
       fy="486.64789"
       fx="605.71429"
       cy="486.64789"
       cx="605.71429"
       gradientTransform="matrix(2.774389,0,0,1.969706,-1891.633,-872.8854)"
       gradientUnits="userSpaceOnUse"
       id="radialGradient6717"
       xlink:href="#linearGradient5060"
       inkscape:collect="always" />
    <linearGradient
       id="linearGradient5048">
      <stop
         id="stop5050"
         offset="0"
         style="stop-color:black;stop-opacity:0;" />
      <stop
         style="stop-color:black;stop-opacity:1;"
         offset="0.5"
         id="stop5056" />
      <stop
         id="stop5052"
         offset="1"
         style="stop-color:black;stop-opacity:0;" />
    </linearGradient>
    <linearGradient
       y2="609.50507"
       x2="302.85715"
       y1="366.64789"
       x1="302.85715"
       gradientTransform="matrix(2.774389,0,0,1.969706,-1892.179,-872.8854)"
       gradientUnits="userSpaceOnUse"
       id="linearGradient6715"
       xlink:href="#linearGradient5048"
       inkscape:collect="always" />
    <linearGradient
       y2="48.301884"
       x2="30.85088"
       y1="30.281681"
       x1="8.5469341"
       gradientTransform="matrix(0.996047,0,-4.335762e-3,1.035255,2.669417e-2,-0.617581)"
       gradientUnits="userSpaceOnUse"
       id="linearGradient3948"
       xlink:href="#linearGradient6525"
       inkscape:collect="always" />
    <linearGradient
       id="linearGradient6525"
       gradientUnits="userSpaceOnUse"
       x1="4.1914001"
       y1="11.1133"
       x2="47.319698"
       y2="56.052299">
      <stop
         offset="0"
         style="stop-color:#ffffff;stop-opacity:1;"
         id="stop6529" />
      <stop
         offset="1"
         style="stop-color:#ffffff;stop-opacity:0.34020618;"
         id="stop6531" />
    </linearGradient>
    <radialGradient
       r="117.14286"
       fy="486.64789"
       fx="605.71429"
       cy="486.64789"
       cx="605.71429"
       gradientTransform="matrix(2.774389,0,0,1.969706,-1891.633,-872.8854)"
       gradientUnits="userSpaceOnUse"
       id="radialGradient3043"
       xlink:href="#linearGradient5060"
       inkscape:collect="always" />
    <radialGradient
       r="117.14286"
       fy="486.64789"
       fx="605.71429"
       cy="486.64789"
       cx="605.71429"
       gradientTransform="matrix(-2.774389,0,0,1.969706,112.7623,-872.8854)"
       gradientUnits="userSpaceOnUse"
       id="radialGradient3045"
       xlink:href="#linearGradient5060"
       inkscape:collect="always" />
    <radialGradient
       r="117.14286"
       fy="486.64789"
       fx="605.71429"
       cy="486.64789"
       cx="605.71429"
       gradientTransform="matrix(2.774389,0,0,1.969706,-1891.633,-872.8854)"
       gradientUnits="userSpaceOnUse"
       id="radialGradient3049"
       xlink:href="#linearGradient5060"
       inkscape:collect="always" />
    <radialGradient
       r="117.14286"
       fy="486.64789"
       fx="605.71429"
       cy="486.64789"
       cx="605.71429"
       gradientTransform="matrix(-2.774389,0,0,1.969706,112.7623,-872.8854)"
       gradientUnits="userSpaceOnUse"
       id="radialGradient3051"
       xlink:href="#linearGradient5060"
       inkscape:collect="always" />
    <linearGradient
       y2="48.301884"
       x2="30.85088"
       y1="30.281681"
       x1="8.5469341"
       gradientTransform="matrix(0.996047,0,-0.00433576,1.035255,0.02669417,-0.617581)"
       gradientUnits="userSpaceOnUse"
       id="linearGradient3053"
       xlink:href="#linearGradient6525"
       inkscape:collect="always" />
    <linearGradient
       inkscape:collect="always"
       xlink:href="#linearGradient5048"
       id="linearGradient6783"
       gradientUnits="userSpaceOnUse"
       gradientTransform="matrix(2.774389,0,0,1.969706,-1892.179,-872.8854)"
       x1="302.85715"
       y1="366.64789"
       x2="302.85715"
       y2="609.50507" />
  </defs>
  <sodipodi:namedview
     pagecolor="#ffffff"
     bordercolor="#666666"
     borderopacity="1"
     objecttolerance="10"
     gridtolerance="10"
     guidetolerance="10"
     inkscape:pageopacity="0"
     inkscape:pageshadow="2"
     inkscape:window-width="770"
     inkscape:window-height="508"
     id="namedview42"
     showgrid="false"
     inkscape:zoom="3.6875"
     inkscape:cx="32"
     inkscape:cy="32"
     inkscape:window-x="243"
     inkscape:window-y="85"
     inkscape:window-maximized="0"
     inkscape:current-layer="svg2" />
  <g
     id="g4">
    <path
       style="fill:#010101; fill-opacity:0.5019"
       d="M36 61H41L64 30L58 27L59 31L36 61z"
       id="path6" />
    <path
       style="fill:none; stroke:#010000; stroke-width:4"
       d="M2 28V41L36 59L58 30V17L25 5L2 28z"
       id="path8" />
    <linearGradient
       id="gradient0"
       gradientUnits="userSpaceOnUse"
       x1="13.84"
       y1="-38.14"
       x2="58.34"
       y2="-27.7">
      <stop
         offset="0"
         stop-color="#ffffff"
         id="stop11" />
      <stop
         offset="1"
         stop-color="#d3d3d3"
         id="stop13" />
    </linearGradient>
    <path
       style="fill:url(#gradient0)"
       d="M2 28L36 43L58 17L25 5L2 28z"
       id="path15" />
    <linearGradient
       id="gradient1"
       gradientUnits="userSpaceOnUse"
       x1="44.72"
       y1="-7.9"
       x2="86.1"
       y2="10.51">
      <stop
         offset="0"
         stop-color="#474747"
         id="stop18" />
      <stop
         offset="1"
         stop-color="#a5a0a0"
         id="stop20" />
    </linearGradient>
    <path
       style="fill:url(#gradient1)"
       d="M36 43V59L58 30V17L36 43z"
       id="path22" />
    <linearGradient
       id="gradient2"
       gradientUnits="userSpaceOnUse"
       x1="22.97"
       y1="92.59"
       x2="-14.6"
       y2="67.29">
      <stop
         offset="0"
         stop-color="#7d7d7d"
         id="stop25" />
      <stop
         offset="1"
         stop-color="#d4d4d4"
         id="stop27" />
    </linearGradient>
    <path
       style="fill:url(#gradient2)"
       d="M2 28V41L36 59V43L2 28z"
       id="path29" />
    <linearGradient
       id="gradient3"
       gradientUnits="userSpaceOnUse"
       x1="32.05"
       y1="9.68"
       x2="43.48"
       y2="24.05">
      <stop
         offset="0"
         stop-color="#596756"
         id="stop32" />
      <stop
         offset="1"
         stop-color="#ebb2b2"
         id="stop34" />
    </linearGradient>
    <path
       style="fill:none; stroke:url(#gradient3); stroke-width:5; stroke-linecap:round"
       d="M7 35L12.75 37.5"
       id="path36" />
    <path
       style="fill:none; stroke:#ff0000; stroke-width:2"
       d="M6 35L9 36"
       transform="matrix(1,0,0,1,4,1.5)"
       id="path38" />
    <path
       style="fill:none; stroke:#a7ff00; stroke-width:2"
       d="M6 35L9 36"
       transform="matrix(1,0,0,1,0,-0.25)"
       id="path40" />
  </g>
  <g
     inkscape:label="Layer 1"
     id="layer1"
     transform="matrix(0.79405234,0,0,0.79405234,28.530186,24.78087)">
    <g
       id="g7435"
       transform="matrix(1.566667,0,0,1.566667,-8.925566,-23.94764)">
      <path
         style="fill:#999999;fill-opacity:1;stroke:#000000;stroke-width:0.63829774px;stroke-linecap:butt;stroke-linejoin:miter;stroke-opacity:1"
         d="m 26.246142,22.886524 -0.851073,0.299605 4.598633,12.599274 0.648081,-1.263384 z"
         id="path3790"
         inkscape:connector-curvature="0"
         sodipodi:nodetypes="ccccc" />
      <path
         sodipodi:nodetypes="ccccc"
         inkscape:connector-curvature="0"
         id="path3020"
         d="m 25.713383,22.724378 -1.027525,0.611474 9.041023,15.279041 0.528415,-1.81868 z"
         style="fill:#999999;fill-opacity:1;stroke:#000000;stroke-width:0.63829774px;stroke-linecap:butt;stroke-linejoin:miter;stroke-opacity:1" />
      <g
         transform="matrix(0.88837813,0.33305925,-0.16721754,0.96240629,7.9340384,-7.9468076)"
         id="g3012">
        <g
           style="display:inline"
           transform="matrix(0.01508284,0,0,0.01391344,34.42474,40.95434)"
           id="g6707">
          <rect
             style="color:#000000;display:inline;overflow:visible;visibility:visible;opacity:0.40206185;fill:url(#linearGradient6783);fill-opacity:1;fill-rule:nonzero;stroke:none;stroke-width:1;marker:none"
             id="rect6709"
             width="1339.6335"
             height="478.35718"
             x="-1559.2523"
             y="-150.69685" />
          <path
             inkscape:connector-curvature="0"
             style="color:#000000;display:inline;overflow:visible;visibility:visible;opacity:0.40206185;fill:url(#radialGradient3043);fill-opacity:1;fill-rule:nonzero;stroke:none;stroke-width:1;marker:none"
             d="m -219.61876,-150.68038 c 0,0 0,478.33079 0,478.33079 142.874166,0.90045 345.40022,-107.16966 345.40014,-239.196175 0,-132.026537 -159.436816,-239.134595 -345.40014,-239.134615 z"
             id="path6711"
             sodipodi:nodetypes="cccc" />
          <path
             inkscape:connector-curvature="0"
             sodipodi:nodetypes="cccc"
             id="path6713"
             d="m -1559.2523,-150.68038 c 0,0 0,478.33079 0,478.33079 -142.8742,0.90045 -345.4002,-107.16966 -345.4002,-239.196175 0,-132.026537 159.4368,-239.134595 345.4002,-239.134615 z"
             style="color:#000000;display:inline;overflow:visible;visibility:visible;opacity:0.40206185;fill:url(#radialGradient3045);fill-opacity:1;fill-rule:nonzero;stroke:none;stroke-width:1;marker:none" />
        </g>
        <g
           id="g3952"
           transform="matrix(0.01508284,0,0,0.01391344,34.42474,40.95434)"
           style="display:inline">
          <rect
             y="-150.69685"
             x="-1559.2523"
             height="478.35718"
             width="1339.6335"
             id="rect3954"
             style="color:#000000;display:inline;overflow:visible;visibility:visible;opacity:0.40206185;fill:url(#linearGradient6715);fill-opacity:1;fill-rule:nonzero;stroke:none;stroke-width:1;marker:none" />
          <path
             inkscape:connector-curvature="0"
             sodipodi:nodetypes="cccc"
             id="path3956"
             d="m -219.61876,-150.68038 c 0,0 0,478.33079 0,478.33079 142.874166,0.90045 345.40022,-107.16966 345.40014,-239.196175 0,-132.026537 -159.436816,-239.134595 -345.40014,-239.134615 z"
             style="color:#000000;display:inline;overflow:visible;visibility:visible;opacity:0.40206185;fill:url(#radialGradient3049);fill-opacity:1;fill-rule:nonzero;stroke:none;stroke-width:1;marker:none" />
          <path
             inkscape:connector-curvature="0"
             style="color:#000000;display:inline;overflow:visible;visibility:visible;opacity:0.40206185;fill:url(#radialGradient3051);fill-opacity:1;fill-rule:nonzero;stroke:none;stroke-width:1;marker:none"
             d="m -1559.2523,-150.68038 c 0,0 0,478.33079 0,478.33079 -142.8742,0.90045 -345.4002,-107.16966 -345.4002,-239.196175 0,-132.026537 159.4368,-239.134595 345.4002,-239.134615 z"
             id="path3958"
             sodipodi:nodetypes="cccc" />
        </g>
        <path
           inkscape:connector-curvature="0"
           style="fill:#ff0000;fill-opacity:1;fill-rule:nonzero;stroke:#000000;stroke-width:0.63829809;stroke-miterlimit:4;stroke-dasharray:none;stroke-opacity:1"
           d="M 34.661531,40.883147 22.706683,18.443515 c -0.343618,-0.623323 -0.965385,-0.969613 -1.657845,-0.969613 -0.692462,0 -1.317417,0.415547 -1.666257,1.038871 L 7.5167568,40.952406 c -0.2793053,0.554065 -0.282496,1.315904 0.061415,1.869969 0.3439093,0.554065 0.8967188,0.831097 1.5891806,0.831097 l 23.8206686,0 c 0.69246,0 1.317126,-0.34629 1.596433,-0.900356 0.34855,-0.554065 0.35145,-1.246645 0.07708,-1.869969 z"
           id="path6485"
           inkscape:r_cx="true"
           inkscape:r_cy="true" />
        <path
           inkscape:connector-curvature="0"
           inkscape:r_cy="true"
           inkscape:r_cx="true"
           id="path6496"
           d="m 12.350235,39.643509 c -0.180686,0.297681 -0.0023,0.535827 0.296738,0.535827 l 16.865083,0 c 0.299028,0 0.47946,-0.238146 0.301316,-0.535827 L 21.328843,23.806857 c -0.178145,-0.297681 -0.417365,-0.297681 -0.538248,0 l -8.44036,15.836652 z"
           style="fill:#fcaf00;fill-opacity:1;fill-rule:nonzero;stroke:none" />
        <path
           inkscape:connector-curvature="0"
           style="opacity:0.5;fill:none;stroke:url(#linearGradient3053);stroke-width:0.63829821;stroke-miterlimit:4;stroke-dasharray:none;stroke-opacity:1"
           d="M 33.589554,40.372476 22.40647,19.408588 c -0.476278,-0.903101 -0.647108,-1.192852 -1.370915,-1.192852 -0.62253,0 -0.948257,0.421984 -1.398129,1.274438 L 8.5784665,40.437181 c -0.6421717,1.176051 -0.7109747,1.482604 -0.4018775,2.000231 0.3090955,0.517628 0.7059594,0.489435 2.172334,0.5232 l 21.735721,0 c 1.365168,0.01688 1.672683,-0.08716 1.923863,-0.604785 0.313433,-0.517629 0.180116,-0.928304 -0.418953,-1.983351 z"
           id="path1325"
           sodipodi:nodetypes="ccsccscccc"
           inkscape:r_cx="true"
           inkscape:r_cy="true" />
        <g
           style="fill:#121312;fill-opacity:1;fill-rule:nonzero;stroke:#000000;stroke-width:0.98018837;stroke-miterlimit:4"
           transform="matrix(0.561759,0,0,0.570854,7.608308,17.60115)"
           id="g6498"
           inkscape:r_cx="true"
           inkscape:r_cy="true">
          <path
             inkscape:connector-curvature="0"
             style="fill:#121312;fill-opacity:1;stroke:none"
             d="m 23.9,36.5 c -1.3,0 -2.3,-1 -2.3,-2.3 0,-1.4 0.9,-2.3 2.3,-2.3 1.4,0 2.2,0.9 2.3,2.3 0,1.3 -0.9,2.3 -2.3,2.3 l 0,0 z M 23.167629,29.066754 21.9,19.1 l 4,0 -1.267629,11.609518 -1.464742,-1.642764 z"
             id="path6500"
             inkscape:r_cx="true"
             inkscape:r_cy="true"
             sodipodi:nodetypes="csscccccccc" />
        </g>
      </g>
    </g>
  </g>
</svg>
