<?xml version="1.0" encoding="UTF-8" standalone="no"?>
<svg
   xmlns:dc="http://purl.org/dc/elements/1.1/"
   xmlns:cc="http://creativecommons.org/ns#"
   xmlns:rdf="http://www.w3.org/1999/02/22-rdf-syntax-ns#"
   xmlns:svg="http://www.w3.org/2000/svg"
   xmlns="http://www.w3.org/2000/svg"
   xmlns:xlink="http://www.w3.org/1999/xlink"
   xmlns:sodipodi="http://sodipodi.sourceforge.net/DTD/sodipodi-0.dtd"
   xmlns:inkscape="http://www.inkscape.org/namespaces/inkscape"
   version="1.1"
   width="64"
   height="64"
   color-interpolation="linearRGB"
   id="svg2"
   inkscape:version="0.91 r13725"
   sodipodi:docname="disco_duro-limpio.svg">
  <metadata
     id="metadata46">
    <rdf:RDF>
      <cc:Work
         rdf:about="">
        <dc:format>image/svg+xml</dc:format>
        <dc:type
           rdf:resource="http://purl.org/dc/dcmitype/StillImage" />
        <dc:title></dc:title>
      </cc:Work>
    </rdf:RDF>
  </metadata>
  <defs
     id="defs44">
    <linearGradient
       inkscape:collect="always"
       xlink:href="#aigrd1"
       id="linearGradient3467"
       gradientUnits="userSpaceOnUse"
       x1="7.2065001"
       y1="10.7754"
       x2="9.1505003"
       y2="13.7797" />
    <linearGradient
       inkscape:collect="always"
       xlink:href="#aigrd2"
       id="linearGradient3469"
       gradientUnits="userSpaceOnUse"
       x1="3.2715001"
       y1="4.4575"
       x2="5.3694"
       y2="7.6447001" />
    <linearGradient
       inkscape:collect="always"
       xlink:href="#aigrd1"
       id="linearGradient3471"
       gradientUnits="userSpaceOnUse"
       x1="7.2065001"
       y1="10.7754"
       x2="9.1505003"
       y2="13.7797" />
    <linearGradient
       inkscape:collect="always"
       xlink:href="#aigrd2"
       id="linearGradient3473"
       gradientUnits="userSpaceOnUse"
       x1="3.2715001"
       y1="4.4575"
       x2="5.3694"
       y2="7.6447001" />
  </defs>
  <sodipodi:namedview
     pagecolor="#ffffff"
     bordercolor="#666666"
     borderopacity="1"
     objecttolerance="10"
     gridtolerance="10"
     guidetolerance="10"
     inkscape:pageopacity="0"
     inkscape:pageshadow="2"
     inkscape:window-width="770"
     inkscape:window-height="480"
     id="namedview42"
     showgrid="false"
     inkscape:zoom="3.6875"
     inkscape:cx="32"
     inkscape:cy="32"
     inkscape:window-x="578"
     inkscape:window-y="212"
     inkscape:window-maximized="0"
     inkscape:current-layer="svg2" />
  <g
     id="g4">
    <path
       style="fill:#010101; fill-opacity:0.5019"
       d="M36 61H41L64 30L58 27L59 31L36 61z"
       id="path6" />
    <path
       style="fill:none; stroke:#010000; stroke-width:4"
       d="M2 28V41L36 59L58 30V17L25 5L2 28z"
       id="path8" />
    <linearGradient
       id="gradient0"
       gradientUnits="userSpaceOnUse"
       x1="13.84"
       y1="-38.14"
       x2="58.34"
       y2="-27.7">
      <stop
         offset="0"
         stop-color="#ffffff"
         id="stop11" />
      <stop
         offset="1"
         stop-color="#d3d3d3"
         id="stop13" />
    </linearGradient>
    <path
       style="fill:url(#gradient0)"
       d="M2 28L36 43L58 17L25 5L2 28z"
       id="path15" />
    <linearGradient
       id="gradient1"
       gradientUnits="userSpaceOnUse"
       x1="44.72"
       y1="-7.9"
       x2="86.1"
       y2="10.51">
      <stop
         offset="0"
         stop-color="#474747"
         id="stop18" />
      <stop
         offset="1"
         stop-color="#a5a0a0"
         id="stop20" />
    </linearGradient>
    <path
       style="fill:url(#gradient1)"
       d="M36 43V59L58 30V17L36 43z"
       id="path22" />
    <linearGradient
       id="gradient2"
       gradientUnits="userSpaceOnUse"
       x1="22.97"
       y1="92.59"
       x2="-14.6"
       y2="67.29">
      <stop
         offset="0"
         stop-color="#7d7d7d"
         id="stop25" />
      <stop
         offset="1"
         stop-color="#d4d4d4"
         id="stop27" />
    </linearGradient>
    <path
       style="fill:url(#gradient2)"
       d="M2 28V41L36 59V43L2 28z"
       id="path29" />
    <linearGradient
       id="gradient3"
       gradientUnits="userSpaceOnUse"
       x1="32.05"
       y1="9.68"
       x2="43.48"
       y2="24.05">
      <stop
         offset="0"
         stop-color="#596756"
         id="stop32" />
      <stop
         offset="1"
         stop-color="#ebb2b2"
         id="stop34" />
    </linearGradient>
    <path
       style="fill:none; stroke:url(#gradient3); stroke-width:5; stroke-linecap:round"
       d="M7 35L12.75 37.5"
       id="path36" />
    <path
       style="fill:none; stroke:#ff0000; stroke-width:2"
       d="M6 35L9 36"
       transform="matrix(1,0,0,1,4,1.5)"
       id="path38" />
    <path
       style="fill:none; stroke:#a7ff00; stroke-width:2"
       d="M6 35L9 36"
       transform="matrix(1,0,0,1,0,-0.25)"
       id="path40" />
  </g>
  <g
     style="clip-rule:nonzero;fill:#ffffff;fill-rule:nonzero;stroke:#000000;stroke-miterlimit:4"
     id="Layer_x0020_2"
     transform="matrix(1.6567797,0,0,1.6567797,4.7966101,-3.3389831)">
    <linearGradient
       y2="13.7797"
       x2="9.1505003"
       y1="10.7754"
       x1="7.2065001"
       gradientUnits="userSpaceOnUse"
       id="aigrd1">
      <stop
         id="stop3378"
         style="stop-color:#F42120"
         offset="0" />
      <stop
         id="stop3380"
         style="stop-color:#9E3231"
         offset="0.2865" />
      <stop
         id="stop3382"
         style="stop-color:#722324"
         offset="0.4888" />
    </linearGradient>
    <path
       id="path3384"
       d="M 14.7,10.7 13.7,9 C 13.2,8.2 12.1,7.9 11.3,8.4 l -8,4.8 c -0.8,0.5 -1.1,1.6 -0.6,2.4 l 1.1,1.7 10.9,-6.6 z"
       style="fill:url(#linearGradient3467);stroke-width:2.48979998;stroke-linejoin:round"
       inkscape:connector-curvature="0" />
    <linearGradient
       y2="7.6447001"
       x2="5.3694"
       y1="4.4575"
       x1="3.2715001"
       gradientUnits="userSpaceOnUse"
       id="aigrd2">
      <stop
         id="stop3387"
         style="stop-color:#F42120"
         offset="0" />
      <stop
         id="stop3389"
         style="stop-color:#9E3231"
         offset="0.2865" />
      <stop
         id="stop3391"
         style="stop-color:#722324"
         offset="0.4888" />
    </linearGradient>
    <path
       id="path3393"
       d="M 8.3,9.8 C 8.7,10.4 8.5,11.3 7.9,11.6 7.3,12 6.4,11.8 6.1,11.2 L 2.7,5.8 C 2.3,5.2 2.5,4.4 3.2,4 3.8,3.6 4.6,3.8 5,4.5 l 3.3,5.4 z"
       style="fill:url(#linearGradient3469);stroke-width:2.48979998"
       inkscape:connector-curvature="0" />
    <path
       id="path3395"
       d="m 12.6,9.6 -9.5,5.7 4.1,5.6 c 0.6,1 2.3,0.4 2.3,0.4 L 22,15.7 c 0,0 -4.3,0.7 -5.3,-0.7 L 12.5,9.5 Z"
       style="stroke-width:2.48979998;stroke-linecap:round;stroke-linejoin:round"
       inkscape:connector-curvature="0" />
    <linearGradient
       y2="14.5166"
       x2="19.879"
       y1="15.8066"
       x1="7.4629002"
       gradientUnits="userSpaceOnUse"
       id="aigrd3">
      <stop
         id="stop3398"
         style="stop-color:#FFFFFF"
         offset="0" />
      <stop
         id="stop3400"
         style="stop-color:#C5C5C5"
         offset="1" />
    </linearGradient>
    <path
       id="path3402"
       d="m 12.6,9.6 -9.5,5.7 4.1,5.6 c 0.6,1 2.3,0.4 2.3,0.4 L 22,15.7 c 0,0 -4.3,0.7 -5.3,-0.7 L 12.5,9.5 Z"
       style="fill:url(#aigrd3);stroke:none"
       inkscape:connector-curvature="0" />
    <linearGradient
       y2="19.6623"
       x2="3.9329"
       y1="11.062"
       x1="20.327101"
       gradientUnits="userSpaceOnUse"
       id="aigrd4">
      <stop
         id="stop3405"
         style="stop-color:#FFFFFF"
         offset="0" />
      <stop
         id="stop3407"
         style="stop-color:#C5C5C5"
         offset="1" />
    </linearGradient>
    <path
       id="path3409"
       d="m 4.4,14.7 c 0,0 3.6,5 4.2,5.6 0.6,0.6 2.5,0.3 2.5,0.3 l 11,-4.9 c 0,0 -4,0.6 -5,-0.4 L 12.8,9.4 4.4,14.6 Z"
       style="fill:url(#aigrd4);stroke:none"
       inkscape:connector-curvature="0" />
    <path
       id="path3411"
       d="m 10.4,17.4 c 0,0 0.4,1.1 1,1.7 0.6,0.6 2.7,0.2 2.7,0.2 l 1,-0.5 c 0,0 -2.4,0.6 -3.1,0 -0.7,-0.6 -1.7,-1.5 -1.7,-1.5 z"
       style="opacity:0.15;fill:#000000;stroke:none"
       inkscape:connector-curvature="0" />
    <path
       id="path3413"
       d="M 14.7,10.7 13.7,9 C 13.2,8.2 12.1,7.9 11.3,8.4 l -8,4.8 c -0.8,0.5 -1.1,1.6 -0.6,2.4 l 1.1,1.7 10.9,-6.6 z"
       style="fill:url(#linearGradient3471);stroke:none"
       inkscape:connector-curvature="0" />
    <path
       id="path3415"
       d="M 3.1,16 C 2.6,15.2 2.9,14.1 3.7,13.6 l 8,-4.8 c 0.6,-0.4 1.4,-0.3 1.9,0.1 -0.5,-0.7 -1.5,-1 -2.3,-0.5 l -8,4.8 C 2.5,13.7 2.2,14.8 2.7,15.6 L 3.8,17.3 3.9,17.2 3.1,16 Z"
       style="opacity:0.2;stroke:none"
       inkscape:connector-curvature="0" />
    <path
       id="path3417"
       d="M 8.3,9.8 C 8.7,10.4 8.5,11.3 7.9,11.6 7.3,12 6.4,11.8 6.1,11.2 L 2.7,5.8 C 2.3,5.2 2.5,4.4 3.2,4 3.8,3.6 4.6,3.8 5,4.5 l 3.3,5.4 z"
       style="fill:url(#linearGradient3473);stroke:none"
       inkscape:connector-curvature="0" />
    <path
       id="path3419"
       d="m 13.7,15.7 c 0,0 0.4,1.1 1,1.7 0.6,0.6 2.7,0.2 2.7,0.2 l 1,-0.5 c 0,0 -2.4,0.6 -3.1,0 -0.7,-0.6 -1.7,-1.5 -1.7,-1.5 z"
       style="opacity:0.15;fill:#000000;stroke:none"
       inkscape:connector-curvature="0" />
    <path
       id="path3421"
       d="m 13.7,15.7 c 0,0 1,0.8 1.7,1.5 0.6,0.6 2.7,0.2 2.7,0.2 l 1.6,-0.6 c 0,0 -2.9,0.7 -3.7,0.1 -0.7,-0.5 -2.3,-1.2 -2.3,-1.2 z"
       style="stroke:none"
       inkscape:connector-curvature="0" />
    <path
       id="path3423"
       d="m 10.5,17.3 c 0,0 1,0.8 1.7,1.5 0.6,0.6 2.7,0.2 2.7,0.2 l 1.3,-0.6 c 0,0 -2.6,0.7 -3.4,0.1 -0.7,-0.5 -2.3,-1.2 -2.3,-1.2 z"
       style="stroke:none"
       inkscape:connector-curvature="0" />
    <path
       id="path3425"
       d="M 14.7,12.1 14,11.1 5.5,16.2 4.4,17 5.5,18.5 6,17 14.7,12.2 Z"
       style="opacity:0.27000002;fill:#000000;stroke:none"
       inkscape:connector-curvature="0" />
    <path
       id="path3427"
       d="M 6.4,11.6 3.1,6.2 C 2.7,5.6 2.9,4.8 3.6,4.4 4,4.1 4.6,4.2 5,4.4 4.6,3.8 3.8,3.6 3.2,4 2.5,4.4 2.3,5.2 2.7,5.8 L 6,11.2 c 0.1,0.2 0.3,0.3 0.4,0.4 0,0 0,0 0,0 z"
       style="opacity:0.31000001;stroke:none"
       inkscape:connector-curvature="0" />
    <path
       id="path3429"
       d="M 24,24 0,24 0,0 24,0 24,24 Z"
       style="fill:none;stroke:none"
       inkscape:connector-curvature="0" />
  </g>
</svg>
