<?xml version="1.0" encoding="UTF-8" standalone="yes"?>
<svg version="1.1" width="64" height="64" color-interpolation="linearRGB"
     xmlns:svg="http://www.w3.org/2000/svg" xmlns="http://www.w3.org/2000/svg">
 <g>
  <path style="fill:#000000; fill-opacity:0.4313"
        d="M22.81 63.37L28.25 62.62L30.75 61.75L32.62 60.25L39.06 52.62L39.56 50.12L38.25 48.5L33 44.87L33.25 49.75L22.81 63.37z"
        transform="matrix(1.088,0,0,1.0215,-6.7458,-3.3649)"
  />
  <path style="fill:#000000; fill-opacity:0.4313"
        d="M47.68 50.5L53.68 49L55.75 48.12L57.12 46.75L62.75 39.12L63.5 37L62.43 35L57.25 31.12L57.12 35.5L47.68 50.5z"
        transform="matrix(1.2078,0,0,1.0774,-15.1978,-5.1483)"
  />
  <path style="fill:#000000"
        d="M48.84 8.42C48.44 7.81 47.94 7.28 47.29 6.9C47.03 6.73 46.7 6.5 46.71 6.5L34.53 0.44C32.73 -0.45 30.34 -0.09 28.96 1.27L19.84 10.4C19.81 10.4 19.18 11.26 19.18 11.26C19.22 11.19 19.42 10.89 19.48 10.84C18.94 11.43 18.55 12.12 18.27 12.88C18.09 13.18 17.96 13.5 17.91 13.85C17.89 13.96 17.88 14.08 17.88 14.19C17.88 14.08 17.89 13.97 17.91 13.86L15.93 24.76C15.88 24.88 15.87 24.99 15.88 25.11C15.88 26.42 16.73 27.76 17.97 28.37C17.99 28.39 18.01 28.38 18.04 28.39C18.09 28.42 33.88 36.29 33.89 36.29C34.36 36.52 34.85 36.62 35.33 36.6C35.37 36.61 35.45 36.62 35.46 36.62C35.98 36.62 36.48 36.48 37 36.23C36.91 36.27 36.82 36.31 36.74 36.33C36.89 36.29 37.04 36.23 37.17 36.15C37.12 36.18 37.07 36.2 37.01 36.23C37.42 36.07 37.82 35.81 38.2 35.43L48.12 25.51C48.9 24.73 49.69 23.38 49.7 22.12V10.22C49.64 9.48 49.33 8.86 48.85 8.42H48.84z"
        transform="matrix(0.967,-0.0151,0.0151,0.967,-12.1956,3.5107)"
  />
  <path style="fill:#777777"
        d="M47.42 9.82C47.17 9.27 46.73 8.83 46.21 8.55C46.84 9.07 46.92 9.86 46.39 10.5L36.74 20.14C36.19 20.69 35.75 21.58 35.75 22.12V34.03C35.75 34.58 36.2 34.58 36.75 34.03L46.67 24.11C47.22 23.56 47.66 22.67 47.67 22.12L47.42 9.82z"
        transform="matrix(0.967,-0.0151,0.0151,0.967,-12.1956,3.5107)"
  />
  <path style="fill:#a7a7a7"
        d="M35.75 22.14C35.75 21.59 36.19 20.7 36.74 20.15L37.11 19.8C36.36 20.48 35.08 20.68 34.09 20.29L21.5 14.02C20.67 13.47 20.52 12.53 21.25 11.82L21.22 11.8C21.09 11.93 21 12.07 20.93 12.2C20.52 12.63 20.23 13.15 20.06 13.72C20.05 13.73 20.05 13.73 20.05 13.74C19.94 13.84 19.86 13.99 19.86 14.19L17.88 25.11C17.88 25.66 18.33 26.33 18.88 26.6L18.91 26.62C18.36 26.34 17.92 25.67 17.92 25.13V25.12C17.93 25.67 18.37 26.33 18.92 26.6L34.79 34.52C35.01 34.62 35.2 34.65 35.37 34.61C35.4 34.62 35.44 34.63 35.48 34.63C35.76 34.63 36 34.54 36.24 34.41C35.98 34.49 35.8 34.38 35.81 34.04V34.03C35.81 34.05 35.8 34.06 35.81 34.08C35.81 34.06 35.81 34.04 35.82 34.02V22.14H35.75z"
        transform="matrix(0.967,-0.0151,0.0151,0.967,-12.1956,3.5107)"
  />
  <path style="fill:#dfdfdf"
        d="M45.81 8.28L33.64 2.21C32.61 1.7 31.14 1.91 30.37 2.68L21.24 11.8C20.47 12.58 20.67 13.62 21.72 14.14L33.89 20.21C34.92 20.72 36.39 20.51 37.17 19.74L46.28 10.62C47.05 9.84 46.84 8.8 45.82 8.28H45.81z"
        transform="matrix(0.967,-0.0151,0.0151,0.967,-12.1956,3.5107)"
  />
  <path style="fill:#c8c8c8"
        d="M30.6 5.51C30.9 5.06 31.16 4.69 31.16 4.69C31.17 4.69 30.84 5.01 30.46 5.39L22.74 13.11C22.35 13.49 21.95 13.91 21.84 14.04C21.84 14.04 21.84 14.04 21.87 14.17C21.89 14.31 21.89 14.31 21.9 14.31C22.1 14.45 22.66 14.76 23.15 15L33.53 20.19C34.02 20.43 34.06 20.36 33.63 20.03L25.84 14.21C25.4 13.88 25.3 13.25 25.61 12.79L30.6 5.51z"
        transform="matrix(0.967,-0.0151,0.0151,0.967,-12.1956,3.5107)"
  />
  <path style="fill:#ffffff"
        d="M46.28 10.62L37.16 19.74C36.39 20.51 34.92 20.72 33.89 20.21L21.71 14.14C20.68 13.62 20.47 12.59 21.24 11.81L21.21 11.8C21.09 11.93 21 12.07 20.93 12.2C20.52 12.63 20.23 13.15 20.05 13.72C20.05 13.73 20.05 13.73 20.05 13.74C19.93 13.84 19.85 13.99 19.86 14.19L17.88 25.11L21.51 16.24L33.02 21.98C34.82 22.88 35.86 23.03 38.17 20.72C40.44 18.42 46.28 10.62 46.29 10.62H46.28z"
        transform="matrix(0.967,-0.0151,0.0151,0.967,-12.1956,3.5107)"
  />
  <path style="fill:#000000"
        d="M32.97 24.3C32.57 23.68 32.06 23.15 31.41 22.78C31.15 22.6 30.82 22.38 30.83 22.38L18.65 16.31C16.85 15.41 14.46 15.78 13.09 17.15L3.96 26.27C3.93 26.27 3.3 27.13 3.3 27.13C3.35 27.07 3.55 26.77 3.61 26.72C3.06 27.3 2.67 27.99 2.4 28.76C2.22 29.05 2.08 29.38 2.03 29.72C2.01 29.83 2 29.96 2 30.07C2 29.96 2.01 29.85 2.03 29.74L0.05 40.63C0 40.75 0 40.87 0 40.99C0 42.29 0.86 43.64 2.1 44.25C2.12 44.26 2.14 44.26 2.16 44.26C2.22 44.29 18 52.17 18.01 52.17C18.48 52.4 18.97 52.5 19.45 52.48C19.49 52.48 19.58 52.5 19.58 52.5C20.1 52.5 20.61 52.36 21.12 52.11C21.04 52.14 20.95 52.18 20.87 52.2C21.02 52.16 21.16 52.1 21.3 52.03C21.24 52.06 21.19 52.08 21.13 52.11C21.55 51.95 21.94 51.69 22.32 51.31L32.24 41.39C33.02 40.61 33.82 39.25 33.82 38V26.09C33.76 25.36 33.45 24.74 32.97 24.3H32.97z"
        transform="matrix(0.967,-0.0151,0.0151,0.967,24.2215,-2.3659)"
  />
  <path style="fill:#777777"
        d="M31.55 25.69C31.29 25.15 30.86 24.71 30.33 24.43C30.97 24.95 31.05 25.73 30.51 26.37L20.87 36.01C20.32 36.56 19.88 37.45 19.88 38V49.91C19.88 50.46 20.33 50.46 20.88 49.91L30.8 39.98C31.35 39.44 31.8 38.55 31.8 38L31.55 25.69z"
        transform="matrix(0.967,-0.0151,0.0151,0.967,24.2215,-2.3659)"
  />
  <path style="fill:#a7a7a7"
        d="M19.87 38.02C19.87 37.47 20.32 36.58 20.87 36.03L21.23 35.68C20.48 36.36 19.2 36.56 18.22 36.16L5.63 29.9C4.79 29.35 4.65 28.41 5.37 27.69L5.34 27.68C5.21 27.8 5.12 27.94 5.06 28.08C4.65 28.51 4.36 29.02 4.18 29.6C4.17 29.6 4.17 29.61 4.18 29.61C4.06 29.72 3.98 29.86 3.99 30.07L2 40.99C2 41.54 2.45 42.2 3 42.48L3.03 42.49C2.49 42.22 2.04 41.55 2.04 41V40.99C2.05 41.55 2.49 42.21 3.04 42.47L18.92 50.39C19.14 50.5 19.33 50.53 19.5 50.49C19.53 50.5 19.56 50.51 19.6 50.51C19.88 50.51 20.13 50.42 20.36 50.29C20.1 50.36 19.92 50.26 19.93 49.92V49.91C19.93 49.92 19.92 49.94 19.93 49.96C19.93 49.94 19.93 49.92 19.94 49.9V38.02H19.87z"
        transform="matrix(0.967,-0.0151,0.0151,0.967,24.2215,-2.3659)"
  />
  <path style="fill:#dfdfdf"
        d="M29.94 24.16L17.76 18.09C16.73 17.57 15.26 17.78 14.49 18.55L5.37 27.68C4.59 28.45 4.8 29.5 5.84 30.02L18.01 36.08C19.05 36.6 20.51 36.39 21.29 35.61L30.41 26.49C31.18 25.72 30.97 24.67 29.94 24.16H29.94z"
        transform="matrix(0.967,-0.0151,0.0151,0.967,24.2215,-2.3659)"
  />
  <path style="fill:#c8c8c8"
        d="M14.72 21.39C15.03 20.94 15.28 20.57 15.29 20.57C15.29 20.57 14.97 20.89 14.59 21.27L6.86 28.99C6.47 29.37 6.07 29.79 5.97 29.91C5.97 29.91 5.97 29.91 6 30.05C6.02 30.18 6.02 30.18 6.02 30.18C6.22 30.32 6.79 30.64 7.28 30.88L17.66 36.06C18.14 36.31 18.19 36.24 17.75 35.91L9.96 30.08C9.53 29.76 9.42 29.12 9.73 28.67L14.72 21.39z"
        transform="matrix(0.967,-0.0151,0.0151,0.967,24.2215,-2.3659)"
  />
  <path style="fill:#000000"
        d="M14.93 24.85L13.86 25.92L19.12 31.62L20.37 31L18.87 29.12L20.5 27L22.54 27.29L23.65 26.18L14.93 24.85z
           M17.77 28.1L15.96 26.18L18.75 26.62L17.77 28.1z"
        transform="matrix(0.0024,1.2041,-1.7254,0.0035,67.2498,-8.0933)"
  />
  <path style="fill:#ffffff"
        d="M30.41 26.49L21.28 35.61C20.51 36.39 19.04 36.6 18.01 36.08L5.83 30.02C4.8 29.5 4.59 28.46 5.36 27.69L5.34 27.68C5.21 27.8 5.12 27.94 5.05 28.08C4.65 28.51 4.35 29.02 4.18 29.6C4.17 29.6 4.17 29.61 4.17 29.61C4.06 29.72 3.98 29.86 3.99 30.07L2 40.99L5.63 32.12L17.15 37.86C18.94 38.76 19.99 38.9 22.29 36.59C24.57 34.29 30.41 26.49 30.41 26.49H30.41z"
        transform="matrix(0.967,-0.0151,0.0151,0.967,24.2215,-2.3659)"
  />
  <path style="fill:#000000"
        d="M62.73 28.27C62.33 27.65 61.83 27.12 61.18 26.75C60.92 26.57 60.59 26.35 60.6 26.35L48.42 20.28C46.62 19.38 44.23 19.75 42.86 21.12L33.73 30.24C33.7 30.24 33.07 31.1 33.07 31.1C33.12 31.04 33.31 30.74 33.37 30.69C32.83 31.27 32.44 31.96 32.16 32.72C31.99 33.02 31.85 33.34 31.8 33.69C31.78 33.81 31.77 33.92 31.77 34.04C31.77 33.92 31.78 33.82 31.8 33.71L29.82 44.6C29.55 46.05 30.63 47.6 31.89 48.22C31.91 48.23 31.93 48.22 31.96 48.23C32.01 48.26 47.8 56.14 47.8 56.14C48.27 56.37 48.76 56.47 49.25 56.44C49.28 56.45 49.37 56.46 49.37 56.46C49.9 56.46 50.4 56.33 50.91 56.08C50.83 56.11 50.74 56.15 50.65 56.17C50.81 56.13 50.95 56.07 51.09 56C51.04 56.03 50.98 56.05 50.93 56.08C51.34 55.91 51.73 55.65 52.11 55.28L62.04 45.36C62.81 44.57 63.61 43.22 63.61 41.97V30.06C63.53 29.33 63.22 28.71 62.74 28.27"
        transform="matrix(0.967,-0.0151,0.0151,0.967,-29.6704,6.7936)"
  />
  <path style="fill:#777777"
        d="M61.32 29.66C61.06 29.12 60.63 28.68 60.1 28.4C60.74 28.92 60.81 29.7 60.28 30.34L50.63 39.99C50.09 40.53 49.64 41.42 49.65 41.97V53.88C49.65 54.42 50.09 54.42 50.65 53.88L60.57 43.96C61.12 43.41 61.56 42.52 61.57 41.97L61.32 29.66z"
        transform="matrix(0.967,-0.0151,0.0151,0.967,-29.6704,6.7936)"
  />
  <path style="fill:#a7a7a7"
        d="M49.64 41.99C49.64 41.44 50.08 40.55 50.63 40L51 39.65C50.25 40.33 48.97 40.53 47.99 40.13L35.39 33.87C34.56 33.31 34.42 32.38 35.14 31.66L35.11 31.65C34.98 31.78 34.89 31.91 34.82 32.05C34.42 32.48 34.12 33 33.94 33.57C33.94 33.57 33.94 33.58 33.94 33.58C33.83 33.69 33.75 33.83 33.76 34.04L31.77 44.96C31.77 45.5 32.21 46.17 32.77 46.45L32.8 46.46C32.25 46.18 31.81 45.52 31.81 44.97V44.96C31.82 45.51 32.26 46.17 32.81 46.44L48.68 54.36C48.9 54.46 49.1 54.49 49.27 54.46C49.29 54.47 49.33 54.48 49.37 54.48C49.65 54.48 49.9 54.39 50.13 54.26C49.87 54.33 49.69 54.23 49.7 53.89V53.88C49.7 53.89 49.69 53.91 49.7 53.93C49.7 53.91 49.7 53.89 49.71 53.86L49.64 41.99z"
        transform="matrix(0.967,-0.0151,0.0151,0.967,-29.6704,6.7936)"
  />
  <path style="fill:#a7a7a7"
        d="M49.64 41.99C49.64 41.44 48.97 40.53 47.99 40.13L35.39 33.87C34.56 33.31 33.76 34.04 33.76 34.04L31.87 44.12C31.5 45.37 32.77 46.45 32.77 46.45L48.68 54.36C48.9 54.46 49.1 54.49 49.27 54.46C49.29 54.47 49.33 54.48 49.37 54.48C49.65 54.48 49.9 54.39 50.13 54.26C49.87 54.33 49.69 54.23 49.7 53.89V53.88C49.7 53.89 49.69 53.91 49.7 53.93C49.7 53.91 49.7 53.89 49.71 53.86L49.64 41.99z"
        transform="matrix(0.967,-0.0151,0.0151,0.967,-29.6704,6.7936)"
  />
  <path style="fill:#dfdfdf"
        d="M59.7 28.13L47.53 22.06C46.5 21.54 45.03 21.75 44.26 22.52L35.14 31.65C34.36 32.42 34.56 33.47 35.61 33.98L47.78 40.05C48.81 40.57 50.28 40.35 51.06 39.59L60.18 30.46C60.94 29.69 60.74 28.64 59.71 28.13H59.7z"
        transform="matrix(0.967,-0.0151,0.0151,0.967,-29.6704,6.7936)"
  />
  <path style="fill:#c8c8c8"
        d="M45 24C45 24 36.37 30.5 36.79 33.15C37.01 34.55 48.12 39.75 48.12 39.75C48.12 39.75 39.13 34.89 39.5 32.5C39.86 30.1 45 24 45 24z"
        transform="matrix(0.967,-0.0151,0.0151,0.967,-29.6704,6.7936)"
  />
  <path style="fill:#000000"
        d="M52 29.75L48.91 32.92L47.6 34.1L48.82 34.71L52.9 30.64L52 29.75z"
        transform="matrix(1.59,-0.0247,0.0248,1.5818,-63.7736,-12.8909)"
  />
  <path style="fill:#000000"
        d="M52 29.75L48.91 32.92L47.6 34.1L48.82 34.71L52.9 30.64L52 29.75z"
        transform="matrix(1.7307,-0.027,0.027,1.7287,-49.0175,-32.2588)"
  />
  <path style="fill:#ffffff"
        d="M49 41C48 41 37 35 36 34C35 33 47 22 46 22C45 22 35 31 34 33C33 35 32 46 32 46C32 46 34 37 35 36C36 35 48 43 49 43C50 43 61 30 61 30C61 30 50 41 49 41z"
        transform="matrix(0.967,-0.0151,0.0151,0.967,-29.6704,6.7936)"
  />
  <path style="fill:#000000"
        d="M40.75 18.87C43.25 19.62 45.67 20.95 44.75 22.5C43.62 24.37 42.59 22.51 42.87 24.62C43.25 27.5 40.12 27.5 37.25 25.62C36.63 25.22 37.36 24 38.12 24.62C40.12 26.25 44.62 25.5 39.87 22.37C38.47 21.45 37.08 20.38 42.87 22.7C44.87 23.5 42.87 22.7 42.87 22.7C44.57 22.65 43.5 21.25 41.87 21"
        transform="matrix(1.4562,0,0,1.3459,-17.8353,-7.3542)"
  />
 </g>
</svg>
