<?xml version="1.0" encoding="UTF-8" standalone="no"?>
<!-- Generator: Adobe Illustrator 10.0.3, SVG Export Plug-In . SVG Version: 3.0.0 Build 77)  -->

<svg
   xmlns:dc="http://purl.org/dc/elements/1.1/"
   xmlns:cc="http://creativecommons.org/ns#"
   xmlns:rdf="http://www.w3.org/1999/02/22-rdf-syntax-ns#"
   xmlns:svg="http://www.w3.org/2000/svg"
   xmlns="http://www.w3.org/2000/svg"
   xmlns:xlink="http://www.w3.org/1999/xlink"
   xmlns:sodipodi="http://sodipodi.sourceforge.net/DTD/sodipodi-0.dtd"
   xmlns:inkscape="http://www.inkscape.org/namespaces/inkscape"
   width="48"
   height="48"
   viewBox="-0.013 -0.307 125 124"
   overflow="visible"
   enable-background="new -0.013 -0.307 125 124"
   xml:space="preserve"
   id="svg2"
   version="1.1"
   inkscape:version="0.48.3.1 r9886"
   sodipodi:docname="help-about.svg"><metadata
   id="metadata46"><rdf:RDF><cc:Work
       rdf:about=""><dc:format>image/svg+xml</dc:format><dc:type
         rdf:resource="http://purl.org/dc/dcmitype/StillImage" /><dc:title></dc:title></cc:Work></rdf:RDF></metadata><defs
   id="defs44"><inkscape:perspective
   sodipodi:type="inkscape:persp3d"
   inkscape:vp_x="0 : 24 : 1"
   inkscape:vp_y="0 : 1000 : 0"
   inkscape:vp_z="48 : 24 : 1"
   inkscape:persp3d-origin="24 : 16 : 1"
   id="perspective48" />
		
		<linearGradient
   y2="21.1475"
   x2="50.6138"
   y1="35.7344"
   x1="33.1768"
   gradientUnits="userSpaceOnUse"
   id="XMLID_1_">
			<stop
   id="stop8"
   style="stop-color:#1961f6;stop-opacity:1;"
   offset="0" />
			<stop
   id="stop10"
   style="stop-color:#19194f;stop-opacity:1;"
   offset="1" />
		</linearGradient>
		
		<linearGradient
   y2="89.4463"
   x2="81.833"
   y1="89.6143"
   x1="99.2695"
   gradientUnits="userSpaceOnUse"
   id="XMLID_2_">
			<stop
   id="stop15"
   style="stop-color:#1961f6;stop-opacity:1;"
   offset="0" />
			<stop
   id="stop17"
   style="stop-color:#19143a;stop-opacity:1;"
   offset="1" />
		</linearGradient>
		
		<linearGradient
   y2="44.7593"
   x2="70.6143"
   y1="38.5557"
   x1="98.7812"
   gradientUnits="userSpaceOnUse"
   id="XMLID_3_">
			<stop
   id="stop22"
   style="stop-color:#1961f6;stop-opacity:1;"
   offset="0" />
			<stop
   id="stop24"
   style="stop-color:#19113d;stop-opacity:1;"
   offset="1" />
		</linearGradient>
		
		<linearGradient
   y2="94.7719"
   x2="67.7368"
   y1="48.8496"
   x1="38.5347"
   gradientUnits="userSpaceOnUse"
   id="XMLID_4_">
			<stop
   id="stop29"
   style="stop-color:#1961f6;stop-opacity:1;"
   offset="0" />
			<stop
   id="stop31"
   style="stop-color:#1c05d1;stop-opacity:1;"
   offset="1" />
		</linearGradient>
		
		<linearGradient
   y2="81.0557"
   x2="67.2393"
   y1="36.9678"
   x1="40.1895"
   gradientUnits="userSpaceOnUse"
   id="XMLID_5_">
			<stop
   id="stop36"
   style="stop-color:#FFFFFF"
   offset="0" />
			<stop
   id="stop38"
   style="stop-color:#000000"
   offset="1" />
		</linearGradient>
		
	<linearGradient
   id="gradient0"
   gradientUnits="userSpaceOnUse"
   x1="96.599998"
   y1="-47.07"
   x2="124.61"
   y2="-15.05"><stop
     offset="0"
     stop-color="#ee9bb0"
     id="stop11" /><stop
     offset="1"
     stop-color="#cc5876"
     id="stop13" /></linearGradient><linearGradient
   id="gradient1"
   gradientUnits="userSpaceOnUse"
   x1="-37.970001"
   y1="-32.98"
   x2="-18.83"
   y2="-50.950001"><stop
     offset="0"
     stop-color="#ffe3ea"
     id="stop18" /><stop
     offset="0.9962"
     stop-color="#f0a8bb"
     id="stop20" /></linearGradient><linearGradient
   id="gradient2"
   gradientUnits="userSpaceOnUse"
   x1="57.23"
   y1="-50.610001"
   x2="78.839996"
   y2="-43.970001"><stop
     offset="0"
     stop-color="#a02646"
     id="stop25" /><stop
     offset="1"
     stop-color="#d53961"
     id="stop27" /></linearGradient><linearGradient
   id="gradient3"
   gradientUnits="userSpaceOnUse"
   x1="30.92"
   y1="-67"
   x2="41.07"
   y2="-67"><stop
     offset="0"
     stop-color="#ab123a"
     id="stop34" /><stop
     offset="1"
     stop-color="#dd718d"
     id="stop36-6" /></linearGradient><radialGradient
   id="gradient4"
   gradientUnits="userSpaceOnUse"
   cx="0"
   cy="0"
   r="64"
   gradientTransform="matrix(0.1707,0,0,0.1694,30.5529,12.4743)"><stop
     offset="0"
     stop-color="#f2f2f2"
     id="stop43" /><stop
     offset="1"
     stop-color="#bca184"
     id="stop45" /><stop
     offset="0.6742"
     stop-color="#7d7a7a"
     id="stop47" /></radialGradient><linearGradient
   id="gradient5"
   gradientUnits="userSpaceOnUse"
   x1="85.739998"
   y1="-57.07"
   x2="128.61"
   y2="-8.0500002"><stop
     offset="0"
     stop-color="#d5dcff"
     id="stop54" /><stop
     offset="1"
     stop-color="#9d9bd5"
     id="stop56" /></linearGradient><linearGradient
   id="gradient6"
   gradientUnits="userSpaceOnUse"
   x1="-37.970001"
   y1="-32.98"
   x2="-18.83"
   y2="-50.950001"><stop
     offset="0"
     stop-color="#ffffff"
     id="stop61" /><stop
     offset="0.9962"
     stop-color="#a4a3d7"
     id="stop63" /></linearGradient><linearGradient
   id="gradient7"
   gradientUnits="userSpaceOnUse"
   x1="56.23"
   y1="-51.610001"
   x2="77.839996"
   y2="-44.970001"><stop
     offset="0"
     stop-color="#373583"
     id="stop68" /><stop
     offset="1"
     stop-color="#6967c0"
     id="stop70" /></linearGradient><linearGradient
   id="gradient8"
   gradientUnits="userSpaceOnUse"
   x1="30.92"
   y1="-66"
   x2="41.07"
   y2="-66"><stop
     offset="0"
     stop-color="#33318c"
     id="stop77" /><stop
     offset="1"
     stop-color="#a4a3d7"
     id="stop79" /></linearGradient><radialGradient
   id="gradient9"
   gradientUnits="userSpaceOnUse"
   cx="0"
   cy="0"
   r="64"
   gradientTransform="matrix(0.1707,0,0,0.1694,30.5529,12.4743)"><stop
     offset="0"
     stop-color="#f2f2f2"
     id="stop86" /><stop
     offset="1"
     stop-color="#bca184"
     id="stop88" /><stop
     offset="0.6742"
     stop-color="#7d7a7a"
     id="stop90" /></radialGradient><linearGradient
   id="gradient10"
   gradientUnits="userSpaceOnUse"
   x1="56.23"
   y1="-51.610001"
   x2="77.839996"
   y2="-44.970001"><stop
     offset="0"
     stop-color="#373583"
     id="stop95" /><stop
     offset="1"
     stop-color="#6967c0"
     id="stop97" /></linearGradient><linearGradient
   id="gradient11"
   gradientUnits="userSpaceOnUse"
   x1="85.739998"
   y1="-57.07"
   x2="128.61"
   y2="-8.0500002"><stop
     offset="0"
     stop-color="#ffdb97"
     id="stop104" /><stop
     offset="1"
     stop-color="#fcaf29"
     id="stop106" /></linearGradient><linearGradient
   id="gradient12"
   gradientUnits="userSpaceOnUse"
   x1="-37.970001"
   y1="-32.98"
   x2="-18.83"
   y2="-50.950001"><stop
     offset="0"
     stop-color="#fff7ea"
     id="stop111" /><stop
     offset="0.9962"
     stop-color="#fdd17b"
     id="stop113" /></linearGradient><linearGradient
   id="gradient13"
   gradientUnits="userSpaceOnUse"
   x1="55.23"
   y1="-51.610001"
   x2="76.839996"
   y2="-44.970001"><stop
     offset="0"
     stop-color="#c85805"
     id="stop118" /><stop
     offset="1"
     stop-color="#f06306"
     id="stop120" /></linearGradient><linearGradient
   id="gradient14"
   gradientUnits="userSpaceOnUse"
   x1="29.92"
   y1="-66"
   x2="40.07"
   y2="-66"><stop
     offset="0"
     stop-color="#c85804"
     id="stop127" /><stop
     offset="1"
     stop-color="#dc952f"
     id="stop129" /></linearGradient><radialGradient
   id="gradient15"
   gradientUnits="userSpaceOnUse"
   cx="0"
   cy="0"
   r="64"
   gradientTransform="matrix(0.1707,0,0,0.1694,30.5529,12.4743)"><stop
     offset="0"
     stop-color="#f2f2f2"
     id="stop136" /><stop
     offset="1"
     stop-color="#bca184"
     id="stop138" /><stop
     offset="0.6742"
     stop-color="#7d7a7a"
     id="stop140" /></radialGradient><linearGradient
   id="gradient16"
   gradientUnits="userSpaceOnUse"
   x1="55.23"
   y1="-51.610001"
   x2="76.839996"
   y2="-44.970001"><stop
     offset="0"
     stop-color="#c85805"
     id="stop145" /><stop
     offset="1"
     stop-color="#f06306"
     id="stop147" /></linearGradient><linearGradient
   y2="-44.970001"
   x2="76.839996"
   y1="-51.610001"
   x1="55.23"
   gradientUnits="userSpaceOnUse"
   id="linearGradient3332"
   xlink:href="#gradient16"
   inkscape:collect="always" /></defs><sodipodi:namedview
   pagecolor="#ffffff"
   bordercolor="#666666"
   borderopacity="1"
   objecttolerance="10"
   gridtolerance="10"
   guidetolerance="10"
   inkscape:pageopacity="0"
   inkscape:pageshadow="2"
   inkscape:window-width="1432"
   inkscape:window-height="1020"
   id="namedview42"
   showgrid="true"
   inkscape:zoom="23.570226"
   inkscape:cx="24"
   inkscape:cy="16.075305"
   inkscape:window-x="248"
   inkscape:window-y="30"
   inkscape:window-maximized="0"
   inkscape:current-layer="svg2" />
	
<g
   transform="matrix(1.953965,0,0,1.953965,-8.0462713,-4.3503481)"
   id="g4"><path
     inkscape:connector-curvature="0"
     style="fill:#010101;fill-opacity:0.42350003"
     d="m 34,64 c 0,0 6,0 11,0 5,0 6,-1 11,-2 7.84,-1.57 7,-4 4,-6 -3.44,-2.29 2.56,-1.87 1,-5 -1,-2 -9,-4 -9,-4 l -10,9 -8,8 z"
     id="path6" /><path
     inkscape:connector-curvature="0"
     style="fill:none;stroke:#000000;stroke-width:4"
     d="m 22,21 v 17 l 2,2 v 17 l 4,2 2,0 0,1 4,2 6,-6 V 42 l 2,-2 V 23 l -13,-6 -7,4 z"
     transform="translate(10,-6)"
     id="path8" /><linearGradient
     id="linearGradient3199"
     gradientUnits="userSpaceOnUse"
     x1="96.599998"
     y1="-47.07"
     x2="124.61"
     y2="-15.05"><stop
       offset="0"
       stop-color="#ee9bb0"
       id="stop3201" /><stop
       offset="1"
       stop-color="#cc5876"
       id="stop3203" /></linearGradient><path
     inkscape:connector-curvature="0"
     style="fill:url(#gradient0)"
     d="m 22,21 v 16 l 2,3 v 17 l 4,2 2,0 0,1 4,2 V 45 h 2 V 27 L 22,21 z"
     transform="translate(10,-6)"
     id="path15" /><linearGradient
     id="linearGradient3206"
     gradientUnits="userSpaceOnUse"
     x1="-37.970001"
     y1="-32.98"
     x2="-18.83"
     y2="-50.950001"><stop
       offset="0"
       stop-color="#ffe3ea"
       id="stop3208" /><stop
       offset="0.9962"
       stop-color="#f0a8bb"
       id="stop3210" /></linearGradient><path
     inkscape:connector-curvature="0"
     style="fill:url(#gradient1)"
     d="M 22,21 36,27 42,23 32,22 35.99,19.99 29,17 22,21 z"
     transform="translate(10,-6)"
     id="path22" /><linearGradient
     id="linearGradient3213"
     gradientUnits="userSpaceOnUse"
     x1="57.23"
     y1="-50.610001"
     x2="78.839996"
     y2="-43.970001"><stop
       offset="0"
       stop-color="#a02646"
       id="stop3215" /><stop
       offset="1"
       stop-color="#d53961"
       id="stop3217" /></linearGradient><path
     inkscape:connector-curvature="0"
     style="fill:url(#gradient2)"
     d="m 36,45 h -2 v 17 l 6,-6 V 42 l 2,-2 V 23 l -6,4 v 18 z"
     transform="translate(10,-6)"
     id="path29" /><path
     inkscape:connector-curvature="0"
     style="fill:#71152d"
     d="m 34,45 v 6 l 6,-9 -4,3 h -2 z"
     transform="translate(10,-6)"
     id="path31" /><linearGradient
     id="linearGradient3221"
     gradientUnits="userSpaceOnUse"
     x1="30.92"
     y1="-67"
     x2="41.07"
     y2="-67"><stop
       offset="0"
       stop-color="#ab123a"
       id="stop3223" /><stop
       offset="1"
       stop-color="#dd718d"
       id="stop3225" /></linearGradient><path
     inkscape:connector-curvature="0"
     style="fill:url(#gradient3)"
     d="m 32,22 10,1 -6,-3 -4,2 z"
     transform="translate(10,-6)"
     id="path38" /><path
     inkscape:connector-curvature="0"
     style="fill:none;stroke:#000000;stroke-width:4"
     d="m 31,10 c -2.5,0 -5,2.5 -5,5 0,2.5 2.5,5 5,5 2.5,0 5,-2.5 5,-5 0,-2.5 -2.5,-5 -5,-5 z"
     transform="translate(12,-6)"
     id="path40" /><radialGradient
     id="radialGradient3229"
     gradientUnits="userSpaceOnUse"
     cx="0"
     cy="0"
     r="64"
     gradientTransform="matrix(0.1707,0,0,0.1694,30.5529,12.4743)"><stop
       offset="0"
       stop-color="#f2f2f2"
       id="stop3231" /><stop
       offset="1"
       stop-color="#bca184"
       id="stop3233" /><stop
       offset="0.6742"
       stop-color="#7d7a7a"
       id="stop3235" /></radialGradient><path
     inkscape:connector-curvature="0"
     style="fill:url(#gradient4)"
     d="m 31,10 c -2.5,0 -5,2.5 -5,5 0,2.5 2.5,5 5,5 2.5,0 5,-2.5 5,-5 0,-2.5 -2.5,-5 -5,-5 z"
     transform="translate(12,-6)"
     id="path49" /><path
     inkscape:connector-curvature="0"
     style="fill:none;stroke:#000000;stroke-width:4"
     d="m 22,21 v 17 l 2,2 v 17 l 4,2 2,0 0,1 4,2 6,-6 V 42 l 2,-2 V 23 l -13,-6 -7,4 z"
     transform="translate(-16,-6)"
     id="path51" /><linearGradient
     id="linearGradient3239"
     gradientUnits="userSpaceOnUse"
     x1="85.739998"
     y1="-57.07"
     x2="128.61"
     y2="-8.0500002"><stop
       offset="0"
       stop-color="#d5dcff"
       id="stop3241" /><stop
       offset="1"
       stop-color="#9d9bd5"
       id="stop3243" /></linearGradient><path
     inkscape:connector-curvature="0"
     style="fill:url(#gradient5)"
     d="m 22,21 v 16 l 2,3 v 17 l 4,2 2,0 0,1 4,2 V 45 h 2 V 27 L 22,21 z"
     transform="translate(-16,-6)"
     id="path58" /><linearGradient
     id="linearGradient3246"
     gradientUnits="userSpaceOnUse"
     x1="-37.970001"
     y1="-32.98"
     x2="-18.83"
     y2="-50.950001"><stop
       offset="0"
       stop-color="#ffffff"
       id="stop3248" /><stop
       offset="0.9962"
       stop-color="#a4a3d7"
       id="stop3250" /></linearGradient><path
     inkscape:connector-curvature="0"
     style="fill:url(#gradient6)"
     d="M 22,21 36,27 42,23 32,22 35.99,19.99 29,17 22,21 z"
     transform="translate(-16,-6)"
     id="path65" /><linearGradient
     id="linearGradient3253"
     gradientUnits="userSpaceOnUse"
     x1="56.23"
     y1="-51.610001"
     x2="77.839996"
     y2="-44.970001"><stop
       offset="0"
       stop-color="#373583"
       id="stop3255" /><stop
       offset="1"
       stop-color="#6967c0"
       id="stop3257" /></linearGradient><path
     inkscape:connector-curvature="0"
     style="fill:url(#gradient7)"
     d="m 36,45 h -2 v 17 l 6,-6 V 42 l 2,-2 V 23 l -6,4 v 18 z"
     transform="translate(-16,-6)"
     id="path72" /><path
     inkscape:connector-curvature="0"
     style="fill:#252382"
     d="m 34,45 v 6 l 6,-9 -4,3 h -2 z"
     transform="translate(-16,-6)"
     id="path74" /><linearGradient
     id="linearGradient3261"
     gradientUnits="userSpaceOnUse"
     x1="30.92"
     y1="-66"
     x2="41.07"
     y2="-66"><stop
       offset="0"
       stop-color="#33318c"
       id="stop3263" /><stop
       offset="1"
       stop-color="#a4a3d7"
       id="stop3265" /></linearGradient><path
     inkscape:connector-curvature="0"
     style="fill:url(#gradient8)"
     d="m 32,22 10,1 -6,-3 -4,2 z"
     transform="translate(-16,-6)"
     id="path81" /><path
     inkscape:connector-curvature="0"
     style="fill:none;stroke:#000000;stroke-width:4"
     d="m 31,10 c -2.5,0 -5,2.5 -5,5 0,2.5 2.5,5 5,5 2.5,0 5,-2.5 5,-5 0,-2.5 -2.5,-5 -5,-5 z"
     transform="translate(-16,-6)"
     id="path83" /><radialGradient
     id="radialGradient3269"
     gradientUnits="userSpaceOnUse"
     cx="0"
     cy="0"
     r="64"
     gradientTransform="matrix(0.1707,0,0,0.1694,30.5529,12.4743)"><stop
       offset="0"
       stop-color="#f2f2f2"
       id="stop3271" /><stop
       offset="1"
       stop-color="#bca184"
       id="stop3273" /><stop
       offset="0.6742"
       stop-color="#7d7a7a"
       id="stop3275" /></radialGradient><path
     inkscape:connector-curvature="0"
     style="fill:url(#gradient9)"
     d="m 31,10 c -2.5,0 -5,2.5 -5,5 0,2.5 2.5,5 5,5 2.5,0 5,-2.5 5,-5 0,-2.5 -2.5,-5 -5,-5 z"
     transform="translate(-16,-6)"
     id="path92" /><linearGradient
     id="linearGradient3278"
     gradientUnits="userSpaceOnUse"
     x1="56.23"
     y1="-51.610001"
     x2="77.839996"
     y2="-44.970001"><stop
       offset="0"
       stop-color="#373583"
       id="stop3280" /><stop
       offset="1"
       stop-color="#6967c0"
       id="stop3282" /></linearGradient><path
     inkscape:connector-curvature="0"
     style="fill:url(#gradient10)"
     d="m 28,59 h 2 V 45 l -2,-1 v 15 z"
     transform="translate(-16,-6)"
     id="path99" /><path
     inkscape:connector-curvature="0"
     style="fill:none;stroke:#000000;stroke-width:4"
     d="m 22,21 v 17 l 2,2 v 17 l 4,2 2,0 0,1 4,2 6,-6 V 42 l 2,-2 V 23 l -13,-6 -7,4 z"
     id="path101" /><linearGradient
     id="linearGradient3286"
     gradientUnits="userSpaceOnUse"
     x1="85.739998"
     y1="-57.07"
     x2="128.61"
     y2="-8.0500002"><stop
       offset="0"
       stop-color="#ffdb97"
       id="stop3288" /><stop
       offset="1"
       stop-color="#fcaf29"
       id="stop3290" /></linearGradient><path
     inkscape:connector-curvature="0"
     style="fill:url(#gradient11)"
     d="m 22,21 v 16 l 2,3 v 17 l 4,2 2,0 0,1 4,2 V 45 h 2 V 27 L 22,21 z"
     id="path108" /><linearGradient
     id="linearGradient3293"
     gradientUnits="userSpaceOnUse"
     x1="-37.970001"
     y1="-32.98"
     x2="-18.83"
     y2="-50.950001"><stop
       offset="0"
       stop-color="#fff7ea"
       id="stop3295" /><stop
       offset="0.9962"
       stop-color="#fdd17b"
       id="stop3297" /></linearGradient><path
     inkscape:connector-curvature="0"
     style="fill:url(#gradient12)"
     d="M 22,21 36,27 42,23 32,22 35.99,19.99 29,17 22,21 z"
     id="path115" /><linearGradient
     id="linearGradient3300"
     gradientUnits="userSpaceOnUse"
     x1="55.23"
     y1="-51.610001"
     x2="76.839996"
     y2="-44.970001"><stop
       offset="0"
       stop-color="#c85805"
       id="stop3302" /><stop
       offset="1"
       stop-color="#f06306"
       id="stop3304" /></linearGradient><path
     inkscape:connector-curvature="0"
     style="fill:url(#gradient13)"
     d="m 36,45 h -2 v 17 l 6,-6 V 42 l 2,-2 V 23 l -6,4 v 18 z"
     id="path122" /><path
     inkscape:connector-curvature="0"
     style="fill:#a32904"
     d="m 34,45 v 6 l 6,-9 -4,3 h -2 z"
     id="path124" /><linearGradient
     id="linearGradient3308"
     gradientUnits="userSpaceOnUse"
     x1="29.92"
     y1="-66"
     x2="40.07"
     y2="-66"><stop
       offset="0"
       stop-color="#c85804"
       id="stop3310" /><stop
       offset="1"
       stop-color="#dc952f"
       id="stop3312" /></linearGradient><path
     inkscape:connector-curvature="0"
     style="fill:url(#gradient14)"
     d="m 32,22 10,1 -6,-3 -4,2 z"
     id="path131" /><path
     inkscape:connector-curvature="0"
     style="fill:none;stroke:#000000;stroke-width:4"
     d="m 32,8 c -3,0 -6,3 -6,6 0,3 3,6 6,6 3,0 6,-3 6,-6 0,-3 -3,-6 -6,-6 z"
     id="path133" /><radialGradient
     id="radialGradient3316"
     gradientUnits="userSpaceOnUse"
     cx="0"
     cy="0"
     r="64"
     gradientTransform="matrix(0.1707,0,0,0.1694,30.5529,12.4743)"><stop
       offset="0"
       stop-color="#f2f2f2"
       id="stop3318" /><stop
       offset="1"
       stop-color="#bca184"
       id="stop3320" /><stop
       offset="0.6742"
       stop-color="#7d7a7a"
       id="stop3322" /></radialGradient><path
     inkscape:connector-curvature="0"
     style="fill:url(#gradient15)"
     d="m 32,8 c -3,0 -6,3 -6,6 0,3 3,6 6,6 3,0 6,-3 6,-6 0,-3 -3,-6 -6,-6 z"
     id="path142" /><linearGradient
     id="linearGradient3325"
     gradientUnits="userSpaceOnUse"
     x1="55.23"
     y1="-51.610001"
     x2="76.839996"
     y2="-44.970001"><stop
       offset="0"
       stop-color="#c85805"
       id="stop3327" /><stop
       offset="1"
       stop-color="#f06306"
       id="stop3329" /></linearGradient><path
     inkscape:connector-curvature="0"
     style="fill:url(#linearGradient3332)"
     d="m 28,59 h 2 V 45 l -2,-1 v 15 z"
     id="path149" /></g><g
   id="g3771"
   transform="matrix(0.49033744,0,0,0.49033744,62.712014,58.167771)"><path
     sodipodi:nodetypes="cccccccccccccc"
     style="fill:#000000;fill-opacity:1;fill-rule:evenodd;stroke:none"
     inkscape:transform-center-y="-1.9938571"
     d="M 69.937856,1.8210173 53.958405,30.620851 25.074584,22.685959 10.327537,36.132701 30.565358,65.376936 6.1543163,111.05092 51.206033,93.094384 82.558813,132.9876 92.61846,109.55249 86.478062,76.819742 125.20947,54.854907 86.215421,39.637697 85.799146,-3.6709312 z"
     id="path3912"
     inkscape:connector-curvature="0" /><path
     sodipodi:nodetypes="ccccc"
     style="fill:#b99918;fill-opacity:1;stroke:none"
     d="M 54.204975,42.841924 79.780831,44.250486 26.367358,29.484259 18.128213,33.76616 z"
     id="path3908"
     inkscape:connector-curvature="0" /><path
     sodipodi:nodetypes="ccccccc"
     style="fill:#8c7414;fill-opacity:1;stroke:none"
     d="M 81.730955,121.42547 86.822846,110.56284 80.255552,75.406881 80.285997,3.9336534 72.821425,8.0883595 56.949274,77.156386 z"
     id="path3906"
     inkscape:connector-curvature="0" /><path
     style="fill:#635313;fill-opacity:1;stroke:none"
     d="m 72.134506,76.146903 8.431125,-1.68119 33.694319,-18.187629 -7.44051,1.29176 z"
     id="path3914"
     inkscape:connector-curvature="0"
     sodipodi:nodetypes="ccccc" /><path
     sodipodi:nodetypes="ccccc"
     inkscape:connector-curvature="0"
     id="path3904"
     d="M 107.2977,57.608152 114.57785,56.304529 79.780832,44.250486 72.821427,48.2685 z"
     style="fill:#b99918;fill-opacity:1;stroke:none" /><path
     sodipodi:nodetypes="ccccccccccc"
     inkscape:connector-curvature="0"
     id="path3845"
     d="M 72.821425,8.0883595 51.938578,42.13873 17.915975,33.684712 38.701114,64.418914 18.733876,99.123954 52.462643,84.068361 81.687606,121.66434 74.096724,76.231167 107.57275,57.708181 73.881312,48.018265 z"
     inkscape:transform-center-y="-1.9938577"
     style="fill:#ffcc00;fill-opacity:1;fill-rule:evenodd;stroke:none" /></g></svg>