<?xml version="1.0" encoding="UTF-8" standalone="no"?>
<!-- (c)2005 by yellowTAB GmbH. All rights reserved. It is prohibited to redistribute or publish thisor derivitive works of this data without prior express written permission from yellowTAB GmbH.  -->

<svg
   xmlns:dc="http://purl.org/dc/elements/1.1/"
   xmlns:cc="http://creativecommons.org/ns#"
   xmlns:rdf="http://www.w3.org/1999/02/22-rdf-syntax-ns#"
   xmlns:svg="http://www.w3.org/2000/svg"
   xmlns="http://www.w3.org/2000/svg"
   xmlns:xlink="http://www.w3.org/1999/xlink"
   xmlns:sodipodi="http://sodipodi.sourceforge.net/DTD/sodipodi-0.dtd"
   xmlns:inkscape="http://www.inkscape.org/namespaces/inkscape"
   width="122.914"
   height="105.428"
   viewBox="0 0 122.914 105.428"
   overflow="visible"
   enable-background="new 0 0 122.914 105.428"
   xml:space="preserve"
   id="svg2"
   sodipodi:version="0.32"
   inkscape:version="0.48.1 r9760"
   sodipodi:docname="multimedia.svg"
   inkscape:output_extension="org.inkscape.output.svg.inkscape"
   version="1.1"><metadata
   id="metadata497"><rdf:RDF><cc:Work
       rdf:about=""><dc:format>image/svg+xml</dc:format><dc:type
         rdf:resource="http://purl.org/dc/dcmitype/StillImage" /><dc:title /></cc:Work></rdf:RDF></metadata><defs
   id="defs495"><inkscape:perspective
   sodipodi:type="inkscape:persp3d"
   inkscape:vp_x="0 : 52.714001 : 1"
   inkscape:vp_y="0 : 1000 : 0"
   inkscape:vp_z="122.914 : 52.714001 : 1"
   inkscape:persp3d-origin="61.457001 : 35.142667 : 1"
   id="perspective499" />
			
			
			
			
			
				<linearGradient
   gradientTransform="matrix(1,0,0,-1,1727.9863,603.4326)"
   y2="595.2162"
   x2="-1665.3723"
   y1="586.5425"
   x1="-1664.5049"
   gradientUnits="userSpaceOnUse"
   id="XMLID_284_">
				<stop
   id="stop46"
   style="stop-color:#FFFFFF"
   offset="0" />
				<stop
   id="stop48"
   style="stop-color:#FAFAFA"
   offset="0.2662" />
				<stop
   id="stop50"
   style="stop-color:#EDEDED"
   offset="0.5674" />
				<stop
   id="stop52"
   style="stop-color:#D6D6D6"
   offset="0.8845" />
				<stop
   id="stop54"
   style="stop-color:#CCCCCC"
   offset="1" />
				<midPointStop
   id="midPointStop56"
   style="stop-color:#FFFFFF"
   offset="0" />
				<midPointStop
   id="midPointStop58"
   style="stop-color:#FFFFFF"
   offset="0.5" />
				<midPointStop
   id="midPointStop60"
   style="stop-color:#FAFAFA"
   offset="0.2662" />
				<midPointStop
   id="midPointStop62"
   style="stop-color:#FAFAFA"
   offset="0.5" />
				<midPointStop
   id="midPointStop64"
   style="stop-color:#EDEDED"
   offset="0.5674" />
				<midPointStop
   id="midPointStop66"
   style="stop-color:#EDEDED"
   offset="0.5" />
				<midPointStop
   id="midPointStop68"
   style="stop-color:#D6D6D6"
   offset="0.8845" />
				<midPointStop
   id="midPointStop70"
   style="stop-color:#D6D6D6"
   offset="0.5" />
				<midPointStop
   id="midPointStop72"
   style="stop-color:#CCCCCC"
   offset="1" />
			</linearGradient>
			
			
				<linearGradient
   gradientTransform="matrix(1,0,0,-1,1727.9863,603.4326)"
   y2="577.6362"
   x2="-1660.8553"
   y1="569.9985"
   x1="-1651.105"
   gradientUnits="userSpaceOnUse"
   id="XMLID_285_">
				<stop
   id="stop77"
   style="stop-color:#999999"
   offset="0" />
				<stop
   id="stop79"
   style="stop-color:#7B7B7B"
   offset="0.6839" />
				<stop
   id="stop81"
   style="stop-color:#6B6B6B"
   offset="1" />
				<midPointStop
   id="midPointStop83"
   style="stop-color:#999999"
   offset="0" />
				<midPointStop
   id="midPointStop85"
   style="stop-color:#999999"
   offset="0.5" />
				<midPointStop
   id="midPointStop87"
   style="stop-color:#7B7B7B"
   offset="0.6839" />
				<midPointStop
   id="midPointStop89"
   style="stop-color:#7B7B7B"
   offset="0.5" />
				<midPointStop
   id="midPointStop91"
   style="stop-color:#6B6B6B"
   offset="1" />
			</linearGradient>
			
			
			
				<linearGradient
   gradientTransform="matrix(1,0,0,-1,1727.9863,603.4326)"
   y2="568.9614"
   x2="-1675.6096"
   y1="545.2036"
   x1="-1662.3872"
   gradientUnits="userSpaceOnUse"
   id="XMLID_286_">
				<stop
   id="stop98"
   style="stop-color:#D0CFD1"
   offset="0" />
				<stop
   id="stop100"
   style="stop-color:#B6B4B8"
   offset="0.4304" />
				<stop
   id="stop102"
   style="stop-color:#B3B3B3"
   offset="1" />
				<midPointStop
   id="midPointStop104"
   style="stop-color:#D0CFD1"
   offset="0" />
				<midPointStop
   id="midPointStop106"
   style="stop-color:#D0CFD1"
   offset="0.5" />
				<midPointStop
   id="midPointStop108"
   style="stop-color:#B6B4B8"
   offset="0.4304" />
				<midPointStop
   id="midPointStop110"
   style="stop-color:#B6B4B8"
   offset="0.5" />
				<midPointStop
   id="midPointStop112"
   style="stop-color:#B3B3B3"
   offset="1" />
			</linearGradient>
			
			
				<linearGradient
   gradientTransform="translate(1489.8154,-147.1416)"
   y2="191.9487"
   x2="-1425.6279"
   y1="191.9487"
   x1="-1451.0635"
   gradientUnits="userSpaceOnUse"
   id="XMLID_287_">
				<stop
   id="stop117"
   style="stop-color:#545457"
   offset="0" />
				<stop
   id="stop119"
   style="stop-color:#AFACAA"
   offset="1" />
				<midPointStop
   id="midPointStop121"
   style="stop-color:#545457"
   offset="0" />
				<midPointStop
   id="midPointStop123"
   style="stop-color:#545457"
   offset="0.5" />
				<midPointStop
   id="midPointStop125"
   style="stop-color:#AFACAA"
   offset="1" />
			</linearGradient>
			
			
			
				<linearGradient
   gradientTransform="matrix(1,0,0,-1,1727.9863,603.4326)"
   y2="570.0596"
   x2="-1676.0958"
   y1="552.5483"
   x1="-1668.4341"
   gradientUnits="userSpaceOnUse"
   id="XMLID_288_">
				<stop
   id="stop132"
   style="stop-color:#CCCCFF"
   offset="0" />
				<stop
   id="stop134"
   style="stop-color:#6666CC"
   offset="1" />
				<midPointStop
   id="midPointStop136"
   style="stop-color:#CCCCFF"
   offset="0" />
				<midPointStop
   id="midPointStop138"
   style="stop-color:#CCCCFF"
   offset="0.5" />
				<midPointStop
   id="midPointStop140"
   style="stop-color:#6666CC"
   offset="1" />
			</linearGradient>
			
			
				<linearGradient
   gradientTransform="matrix(1,0,0,-1,1727.9863,603.4326)"
   y2="563.2596"
   x2="-1670.2756"
   y1="582.7974"
   x1="-1682.8853"
   gradientUnits="userSpaceOnUse"
   id="XMLID_289_">
				<stop
   id="stop145"
   style="stop-color:#CCCCFF"
   offset="0" />
				<stop
   id="stop147"
   style="stop-color:#6666CC"
   offset="1" />
				<midPointStop
   id="midPointStop149"
   style="stop-color:#CCCCFF"
   offset="0" />
				<midPointStop
   id="midPointStop151"
   style="stop-color:#CCCCFF"
   offset="0.5" />
				<midPointStop
   id="midPointStop153"
   style="stop-color:#6666CC"
   offset="1" />
			</linearGradient>
			
			
				<linearGradient
   gradientTransform="matrix(1,0,0,-1,1727.9863,603.4326)"
   y2="592.281"
   x2="-1671.3203"
   y1="577.5542"
   x1="-1669.8477"
   gradientUnits="userSpaceOnUse"
   id="XMLID_290_">
				<stop
   id="stop158"
   style="stop-color:#FFFFFF"
   offset="0" />
				<stop
   id="stop160"
   style="stop-color:#FAFAFA"
   offset="0.2662" />
				<stop
   id="stop162"
   style="stop-color:#EDEDED"
   offset="0.5674" />
				<stop
   id="stop164"
   style="stop-color:#D6D6D6"
   offset="0.8845" />
				<stop
   id="stop166"
   style="stop-color:#CCCCCC"
   offset="1" />
				<midPointStop
   id="midPointStop168"
   style="stop-color:#FFFFFF"
   offset="0" />
				<midPointStop
   id="midPointStop170"
   style="stop-color:#FFFFFF"
   offset="0.5" />
				<midPointStop
   id="midPointStop172"
   style="stop-color:#FAFAFA"
   offset="0.2662" />
				<midPointStop
   id="midPointStop174"
   style="stop-color:#FAFAFA"
   offset="0.5" />
				<midPointStop
   id="midPointStop176"
   style="stop-color:#EDEDED"
   offset="0.5674" />
				<midPointStop
   id="midPointStop178"
   style="stop-color:#EDEDED"
   offset="0.5" />
				<midPointStop
   id="midPointStop180"
   style="stop-color:#D6D6D6"
   offset="0.8845" />
				<midPointStop
   id="midPointStop182"
   style="stop-color:#D6D6D6"
   offset="0.5" />
				<midPointStop
   id="midPointStop184"
   style="stop-color:#CCCCCC"
   offset="1" />
			</linearGradient>
			
			
				<linearGradient
   gradientTransform="matrix(1,0,0,-1,1727.9863,603.4326)"
   y2="570.5425"
   x2="-1661.2935"
   y1="562.4614"
   x1="-1650.9771"
   gradientUnits="userSpaceOnUse"
   id="XMLID_291_">
				<stop
   id="stop189"
   style="stop-color:#999999"
   offset="0" />
				<stop
   id="stop191"
   style="stop-color:#7B7B7B"
   offset="0.6839" />
				<stop
   id="stop193"
   style="stop-color:#6B6B6B"
   offset="1" />
				<midPointStop
   id="midPointStop195"
   style="stop-color:#999999"
   offset="0" />
				<midPointStop
   id="midPointStop197"
   style="stop-color:#999999"
   offset="0.5" />
				<midPointStop
   id="midPointStop199"
   style="stop-color:#7B7B7B"
   offset="0.6839" />
				<midPointStop
   id="midPointStop201"
   style="stop-color:#7B7B7B"
   offset="0.5" />
				<midPointStop
   id="midPointStop203"
   style="stop-color:#6B6B6B"
   offset="1" />
			</linearGradient>
			
			 
			 
			 
			
			
			
			
				<linearGradient
   gradientTransform="matrix(1,0,0,-1,1726.0557,610.0811)"
   y2="560.3656"
   x2="-1648.7327"
   y1="559.7036"
   x1="-1636.5503"
   gradientUnits="userSpaceOnUse"
   id="XMLID_292_">
				<stop
   id="stop220"
   style="stop-color:#F2F2F2"
   offset="0" />
				<stop
   id="stop222"
   style="stop-color:#D4D4D4"
   offset="0.5062" />
				<stop
   id="stop224"
   style="stop-color:#B3B3B3"
   offset="1" />
				<midPointStop
   id="midPointStop226"
   style="stop-color:#F2F2F2"
   offset="0" />
				<midPointStop
   id="midPointStop228"
   style="stop-color:#F2F2F2"
   offset="0.5" />
				<midPointStop
   id="midPointStop230"
   style="stop-color:#D4D4D4"
   offset="0.5062" />
				<midPointStop
   id="midPointStop232"
   style="stop-color:#D4D4D4"
   offset="0.5" />
				<midPointStop
   id="midPointStop234"
   style="stop-color:#B3B3B3"
   offset="1" />
			</linearGradient>
			
			
				<linearGradient
   gradientTransform="matrix(1,0,0,-1,1726.0557,610.0811)"
   y2="554.3701"
   x2="-1648.6932"
   y1="546.8218"
   x1="-1650.6797"
   gradientUnits="userSpaceOnUse"
   id="XMLID_293_">
				<stop
   id="stop239"
   style="stop-color:#F2F2F2"
   offset="0" />
				<stop
   id="stop241"
   style="stop-color:#D4D4D4"
   offset="0.4304" />
				<stop
   id="stop243"
   style="stop-color:#A6A6A6"
   offset="1" />
				<midPointStop
   id="midPointStop245"
   style="stop-color:#F2F2F2"
   offset="0" />
				<midPointStop
   id="midPointStop247"
   style="stop-color:#F2F2F2"
   offset="0.5" />
				<midPointStop
   id="midPointStop249"
   style="stop-color:#D4D4D4"
   offset="0.4304" />
				<midPointStop
   id="midPointStop251"
   style="stop-color:#D4D4D4"
   offset="0.5" />
				<midPointStop
   id="midPointStop253"
   style="stop-color:#A6A6A6"
   offset="1" />
			</linearGradient>
			
			
			
			
				<linearGradient
   gradientTransform="matrix(1,0,0,-1,1726.0557,610.0811)"
   y2="581.0919"
   x2="-1642.6375"
   y1="567.7183"
   x1="-1639.1938"
   gradientUnits="userSpaceOnUse"
   id="XMLID_294_">
				<stop
   id="stop266"
   style="stop-color:#FFFFFF"
   offset="0" />
				<stop
   id="stop268"
   style="stop-color:#FAFAFA"
   offset="0.2662" />
				<stop
   id="stop270"
   style="stop-color:#EDEDED"
   offset="0.5674" />
				<stop
   id="stop272"
   style="stop-color:#D6D6D6"
   offset="0.8845" />
				<stop
   id="stop274"
   style="stop-color:#CCCCCC"
   offset="1" />
				<midPointStop
   id="midPointStop276"
   style="stop-color:#FFFFFF"
   offset="0" />
				<midPointStop
   id="midPointStop278"
   style="stop-color:#FFFFFF"
   offset="0.5" />
				<midPointStop
   id="midPointStop280"
   style="stop-color:#FAFAFA"
   offset="0.2662" />
				<midPointStop
   id="midPointStop282"
   style="stop-color:#FAFAFA"
   offset="0.5" />
				<midPointStop
   id="midPointStop284"
   style="stop-color:#EDEDED"
   offset="0.5674" />
				<midPointStop
   id="midPointStop286"
   style="stop-color:#EDEDED"
   offset="0.5" />
				<midPointStop
   id="midPointStop288"
   style="stop-color:#D6D6D6"
   offset="0.8845" />
				<midPointStop
   id="midPointStop290"
   style="stop-color:#D6D6D6"
   offset="0.5" />
				<midPointStop
   id="midPointStop292"
   style="stop-color:#CCCCCC"
   offset="1" />
			</linearGradient>
			
			
				<linearGradient
   gradientTransform="matrix(1,0,0,-1,1726.0557,610.0811)"
   y2="561.9535"
   x2="-1639.2404"
   y1="560.6294"
   x1="-1625.8687"
   gradientUnits="userSpaceOnUse"
   id="XMLID_295_">
				<stop
   id="stop297"
   style="stop-color:#999999"
   offset="0" />
				<stop
   id="stop299"
   style="stop-color:#7B7B7B"
   offset="0.6838" />
				<stop
   id="stop301"
   style="stop-color:#6B6B6B"
   offset="1" />
				<midPointStop
   id="midPointStop303"
   style="stop-color:#999999"
   offset="0" />
				<midPointStop
   id="midPointStop305"
   style="stop-color:#999999"
   offset="0.5" />
				<midPointStop
   id="midPointStop307"
   style="stop-color:#7B7B7B"
   offset="0.6838" />
				<midPointStop
   id="midPointStop309"
   style="stop-color:#7B7B7B"
   offset="0.5" />
				<midPointStop
   id="midPointStop311"
   style="stop-color:#6B6B6B"
   offset="1" />
			</linearGradient>
			
			
				<linearGradient
   gradientTransform="matrix(1,0,0,-1,1726.0557,610.0811)"
   y2="574.3984"
   x2="-1654.1714"
   y1="574.9819"
   x1="-1654.4775"
   gradientUnits="userSpaceOnUse"
   id="XMLID_296_">
				<stop
   id="stop316"
   style="stop-color:#ADADAD"
   offset="0" />
				<stop
   id="stop318"
   style="stop-color:#212121"
   offset="1" />
				<midPointStop
   id="midPointStop320"
   style="stop-color:#ADADAD"
   offset="0" />
				<midPointStop
   id="midPointStop322"
   style="stop-color:#ADADAD"
   offset="0.5" />
				<midPointStop
   id="midPointStop324"
   style="stop-color:#212121"
   offset="1" />
			</linearGradient>
			 
			
				<linearGradient
   gradientTransform="matrix(1,0,0,-1,1726.0557,610.0811)"
   y2="567.6615"
   x2="-1640.1096"
   y1="568.2446"
   x1="-1640.4155"
   gradientUnits="userSpaceOnUse"
   id="XMLID_297_">
				<stop
   id="stop329"
   style="stop-color:#ADADAD"
   offset="0" />
				<stop
   id="stop331"
   style="stop-color:#212121"
   offset="1" />
				<midPointStop
   id="midPointStop333"
   style="stop-color:#ADADAD"
   offset="0" />
				<midPointStop
   id="midPointStop335"
   style="stop-color:#ADADAD"
   offset="0.5" />
				<midPointStop
   id="midPointStop337"
   style="stop-color:#212121"
   offset="1" />
			</linearGradient>
			 
			
				<linearGradient
   gradientTransform="matrix(1,0,0,-1,1726.0557,610.0811)"
   y2="552.9009"
   x2="-1654.1713"
   y1="553.4839"
   x1="-1654.4771"
   gradientUnits="userSpaceOnUse"
   id="XMLID_298_">
				<stop
   id="stop342"
   style="stop-color:#ADADAD"
   offset="0" />
				<stop
   id="stop344"
   style="stop-color:#212121"
   offset="1" />
				<midPointStop
   id="midPointStop346"
   style="stop-color:#ADADAD"
   offset="0" />
				<midPointStop
   id="midPointStop348"
   style="stop-color:#ADADAD"
   offset="0.5" />
				<midPointStop
   id="midPointStop350"
   style="stop-color:#212121"
   offset="1" />
			</linearGradient>
			 
			
				<linearGradient
   gradientTransform="matrix(1,0,0,-1,1726.0557,610.0811)"
   y2="546.1631"
   x2="-1640.1093"
   y1="546.7466"
   x1="-1640.4155"
   gradientUnits="userSpaceOnUse"
   id="XMLID_299_">
				<stop
   id="stop355"
   style="stop-color:#ADADAD"
   offset="0" />
				<stop
   id="stop357"
   style="stop-color:#212121"
   offset="1" />
				<midPointStop
   id="midPointStop359"
   style="stop-color:#ADADAD"
   offset="0" />
				<midPointStop
   id="midPointStop361"
   style="stop-color:#ADADAD"
   offset="0.5" />
				<midPointStop
   id="midPointStop363"
   style="stop-color:#212121"
   offset="1" />
			</linearGradient>
			 
			
			 
			
			 
			
			 
			
				<linearGradient
   gradientTransform="matrix(0.8854,-0.4648,-0.4648,-0.8854,1967.3704,-156.0932)"
   y2="699.9758"
   x2="-1767.7059"
   y1="690.6274"
   x1="-1765.2988"
   gradientUnits="userSpaceOnUse"
   id="XMLID_300_">
				<stop
   id="stop380"
   style="stop-color:#808080"
   offset="0" />
				<stop
   id="stop382"
   style="stop-color:#000000"
   offset="1" />
				<midPointStop
   id="midPointStop384"
   style="stop-color:#808080"
   offset="0" />
				<midPointStop
   id="midPointStop386"
   style="stop-color:#808080"
   offset="0.5" />
				<midPointStop
   id="midPointStop388"
   style="stop-color:#000000"
   offset="1" />
			</linearGradient>
			
			
				<linearGradient
   gradientTransform="matrix(1,0,0,-1,1726.0557,610.0811)"
   y2="562.3813"
   x2="-1657.8837"
   y1="562.3813"
   x1="-1643.5303"
   gradientUnits="userSpaceOnUse"
   id="XMLID_301_">
				<stop
   id="stop393"
   style="stop-color:#808080"
   offset="0" />
				<stop
   id="stop395"
   style="stop-color:#363636"
   offset="1" />
				<midPointStop
   id="midPointStop397"
   style="stop-color:#808080"
   offset="0" />
				<midPointStop
   id="midPointStop399"
   style="stop-color:#808080"
   offset="0.5" />
				<midPointStop
   id="midPointStop401"
   style="stop-color:#363636"
   offset="1" />
			</linearGradient>
			
			
				<linearGradient
   gradientTransform="matrix(1,0,0,-1,1726.0557,610.0811)"
   y2="563.0829"
   x2="-1648.1379"
   y1="559.3755"
   x1="-1645.2256"
   gradientUnits="userSpaceOnUse"
   id="XMLID_302_">
				<stop
   id="stop406"
   style="stop-color:#808080"
   offset="0" />
				<stop
   id="stop408"
   style="stop-color:#242424"
   offset="1" />
				<midPointStop
   id="midPointStop410"
   style="stop-color:#808080"
   offset="0" />
				<midPointStop
   id="midPointStop412"
   style="stop-color:#808080"
   offset="0.5" />
				<midPointStop
   id="midPointStop414"
   style="stop-color:#242424"
   offset="1" />
			</linearGradient>
			 
			
				<linearGradient
   gradientTransform="matrix(1,0,0,-1,1726.0557,610.0811)"
   y2="562.1677"
   x2="-1647.4178"
   y1="564.1353"
   x1="-1648.4502"
   gradientUnits="userSpaceOnUse"
   id="XMLID_303_">
				<stop
   id="stop419"
   style="stop-color:#ADADAD"
   offset="0" />
				<stop
   id="stop421"
   style="stop-color:#212121"
   offset="1" />
				<midPointStop
   id="midPointStop423"
   style="stop-color:#ADADAD"
   offset="0" />
				<midPointStop
   id="midPointStop425"
   style="stop-color:#ADADAD"
   offset="0.5" />
				<midPointStop
   id="midPointStop427"
   style="stop-color:#212121"
   offset="1" />
			</linearGradient>
			 
			
				<linearGradient
   gradientTransform="matrix(1,0.7889,0,-1,2188.499,2234.5078)"
   y2="504.485"
   x2="-2120.4241"
   y1="509.7632"
   x1="-2124.27"
   gradientUnits="userSpaceOnUse"
   id="XMLID_304_">
				<stop
   id="stop432"
   style="stop-color:#969696"
   offset="0" />
				<stop
   id="stop434"
   style="stop-color:#2B2B2B"
   offset="1" />
				<midPointStop
   id="midPointStop436"
   style="stop-color:#969696"
   offset="0" />
				<midPointStop
   id="midPointStop438"
   style="stop-color:#969696"
   offset="0.5" />
				<midPointStop
   id="midPointStop440"
   style="stop-color:#2B2B2B"
   offset="1" />
			</linearGradient>
			
			
		<linearGradient
   inkscape:collect="always"
   xlink:href="#XMLID_304_"
   id="linearGradient3070"
   gradientUnits="userSpaceOnUse"
   gradientTransform="matrix(1.3849408,1.0925798,0,-1.3849408,2992.6069,3119.1322)"
   x1="-2124.27"
   y1="509.7632"
   x2="-2120.4241"
   y2="504.485" /><linearGradient
   inkscape:collect="always"
   xlink:href="#XMLID_301_"
   id="linearGradient3075"
   gradientUnits="userSpaceOnUse"
   gradientTransform="matrix(1.3849408,0,0,-1.3849408,2361.8345,845.15345)"
   x1="-1643.5303"
   y1="562.3813"
   x2="-1657.8837"
   y2="562.3813" /><linearGradient
   inkscape:collect="always"
   xlink:href="#XMLID_300_"
   id="linearGradient3078"
   gradientUnits="userSpaceOnUse"
   gradientTransform="matrix(1.2262266,-0.6437205,-0.6437205,-1.2262266,2696.0411,-215.95263)"
   x1="-1765.2988"
   y1="690.6274"
   x2="-1767.7059"
   y2="699.9758" /><linearGradient
   y2="82.75"
   x2="23.18"
   y1="76.480003"
   x1="91"
   gradientUnits="userSpaceOnUse"
   id="gradient2"><stop
     id="stop2559"
     stop-color="#ffffff"
     offset="0" /><stop
     id="stop2561"
     stop-color="#6a77b8"
     offset="1" /></linearGradient><linearGradient
   y2="70.5"
   x2="80.980003"
   y1="83.010002"
   x1="51.77"
   gradientUnits="userSpaceOnUse"
   id="gradient1"><stop
     id="stop2550"
     stop-color="#ffffff"
     offset="0" /><stop
     id="stop2552"
     stop-color="#ccccf5"
     offset="1" /></linearGradient><linearGradient
   y2="105.33"
   x2="105.48"
   y1="56.060001"
   x1="20.120001"
   gradientUnits="userSpaceOnUse"
   id="gradient0"><stop
     id="stop2539"
     stop-color="#e6e6fa"
     offset="0" /><stop
     id="stop2541"
     stop-color="#ffffff"
     offset="0.4246" /><stop
     id="stop2543"
     stop-color="#adadd2"
     offset="0.4972" /><stop
     id="stop2545"
     stop-color="#ebebff"
     offset="0.8492" /></linearGradient><inkscape:perspective
   sodipodi:type="inkscape:persp3d"
   inkscape:vp_x="0 : 63 : 1"
   inkscape:vp_y="0 : 1000 : 0"
   inkscape:vp_z="128 : 63 : 1"
   inkscape:persp3d-origin="64 : 42 : 1"
   id="perspective3104" /><inkscape:perspective
   id="perspective155"
   inkscape:persp3d-origin="63 : 42.333333 : 1"
   inkscape:vp_z="126 : 63.5 : 1"
   inkscape:vp_y="0 : 1000 : 0"
   inkscape:vp_x="0 : 63.5 : 1"
   sodipodi:type="inkscape:persp3d" /><inkscape:perspective
   id="perspective3860"
   inkscape:persp3d-origin="36.25 : 20 : 1"
   inkscape:vp_z="72.5 : 30 : 1"
   inkscape:vp_y="0 : 1000 : 0"
   inkscape:vp_x="0 : 30 : 1"
   sodipodi:type="inkscape:persp3d" /><linearGradient
   inkscape:collect="always"
   xlink:href="#XMLID_1_"
   id="linearGradient3908"
   gradientUnits="userSpaceOnUse"
   gradientTransform="matrix(0.4828,0.721,0.7677,-0.514,139.425,346.3546)"
   x1="-360.3203"
   y1="123.2476"
   x2="-330.8967"
   y2="74.9808" /><linearGradient
   inkscape:collect="always"
   xlink:href="#XMLID_2_"
   id="linearGradient3910"
   gradientUnits="userSpaceOnUse"
   gradientTransform="matrix(0.4828,0.721,0.7677,-0.514,139.425,346.3546)"
   x1="-360.3203"
   y1="123.2476"
   x2="-330.8967"
   y2="74.9808" /><linearGradient
   inkscape:collect="always"
   xlink:href="#XMLID_3_"
   id="linearGradient3912"
   gradientUnits="userSpaceOnUse"
   gradientTransform="matrix(0.702,0.51,0.543,-0.7475,128.6427,347.1387)"
   x1="-302.3232"
   y1="247.7876"
   x2="-270.3463"
   y2="195.3323" /><linearGradient
   inkscape:collect="always"
   xlink:href="#XMLID_4_"
   id="linearGradient3914"
   gradientUnits="userSpaceOnUse"
   gradientTransform="matrix(1,0,0,-1,232.9102,447.4053)"
   x1="-183.2178"
   y1="450.4243"
   x2="-185.6178"
   y2="395.222" /><linearGradient
   inkscape:collect="always"
   xlink:href="#XMLID_5_"
   id="linearGradient3916"
   gradientUnits="userSpaceOnUse"
   gradientTransform="matrix(0.9985,-5.4e-2,-5.4e-2,-0.9985,270.7189,425.8398)"
   x1="-174.6353"
   y1="399.8286"
   x2="-198.9588"
   y2="402.19" />
    
  <linearGradient
   inkscape:collect="always"
   xlink:href="#XMLID_1_"
   id="linearGradient3960"
   gradientUnits="userSpaceOnUse"
   gradientTransform="matrix(0.4828,0.721,0.7677,-0.514,139.425,346.3546)"
   x1="-360.3203"
   y1="123.2476"
   x2="-330.8967"
   y2="74.9808" /><linearGradient
   inkscape:collect="always"
   xlink:href="#XMLID_2_"
   id="linearGradient3962"
   gradientUnits="userSpaceOnUse"
   gradientTransform="matrix(0.4828,0.721,0.7677,-0.514,139.425,346.3546)"
   x1="-360.3203"
   y1="123.2476"
   x2="-330.8967"
   y2="74.9808" /><linearGradient
   inkscape:collect="always"
   xlink:href="#XMLID_3_"
   id="linearGradient3964"
   gradientUnits="userSpaceOnUse"
   gradientTransform="matrix(0.702,0.51,0.543,-0.7475,128.6427,347.1387)"
   x1="-302.3232"
   y1="247.7876"
   x2="-270.3463"
   y2="195.3323" /><linearGradient
   inkscape:collect="always"
   xlink:href="#XMLID_4_"
   id="linearGradient3966"
   gradientUnits="userSpaceOnUse"
   gradientTransform="matrix(1,0,0,-1,232.9102,447.4053)"
   x1="-183.2178"
   y1="450.4243"
   x2="-185.6178"
   y2="395.222" /><linearGradient
   inkscape:collect="always"
   xlink:href="#XMLID_5_"
   id="linearGradient3968"
   gradientUnits="userSpaceOnUse"
   gradientTransform="matrix(0.9985,-5.4e-2,-5.4e-2,-0.9985,270.7189,425.8398)"
   x1="-174.6353"
   y1="399.8286"
   x2="-198.9588"
   y2="402.19" /><linearGradient
   inkscape:collect="always"
   xlink:href="#XMLID_6_"
   id="linearGradient3970"
   gradientUnits="userSpaceOnUse"
   gradientTransform="matrix(0.9985,-5.4e-2,-5.4e-2,-0.9985,270.7189,425.8398)"
   x1="-161.20799"
   y1="384.25049"
   x2="-179.8627"
   y2="384.25049" />
      
    <linearGradient
   inkscape:collect="always"
   xlink:href="#XMLID_1_"
   id="linearGradient4013"
   gradientUnits="userSpaceOnUse"
   gradientTransform="matrix(0.4828,0.721,0.7677,-0.514,139.425,346.3546)"
   x1="-360.3203"
   y1="123.2476"
   x2="-330.8967"
   y2="74.9808" /><linearGradient
   inkscape:collect="always"
   xlink:href="#XMLID_2_"
   id="linearGradient4015"
   gradientUnits="userSpaceOnUse"
   gradientTransform="matrix(0.4828,0.721,0.7677,-0.514,139.425,346.3546)"
   x1="-360.3203"
   y1="123.2476"
   x2="-330.8967"
   y2="74.9808" /><linearGradient
   inkscape:collect="always"
   xlink:href="#XMLID_3_"
   id="linearGradient4017"
   gradientUnits="userSpaceOnUse"
   gradientTransform="matrix(0.702,0.51,0.543,-0.7475,128.6427,347.1387)"
   x1="-302.3232"
   y1="247.7876"
   x2="-270.3463"
   y2="195.3323" /><linearGradient
   inkscape:collect="always"
   xlink:href="#XMLID_4_"
   id="linearGradient4019"
   gradientUnits="userSpaceOnUse"
   gradientTransform="matrix(1,0,0,-1,232.9102,447.4053)"
   x1="-183.2178"
   y1="450.4243"
   x2="-185.6178"
   y2="395.222" /><linearGradient
   inkscape:collect="always"
   xlink:href="#XMLID_5_"
   id="linearGradient4021"
   gradientUnits="userSpaceOnUse"
   gradientTransform="matrix(0.9985,-5.4e-2,-5.4e-2,-0.9985,270.7189,425.8398)"
   x1="-174.6353"
   y1="399.8286"
   x2="-198.9588"
   y2="402.19" /><linearGradient
   inkscape:collect="always"
   xlink:href="#XMLID_6_"
   id="linearGradient4023"
   gradientUnits="userSpaceOnUse"
   gradientTransform="matrix(0.9985,-5.4e-2,-5.4e-2,-0.9985,270.7189,425.8398)"
   x1="-161.20799"
   y1="384.25049"
   x2="-179.8627"
   y2="384.25049" />
        
        
        
        
        
        
        
        
        
        
      <linearGradient
   inkscape:collect="always"
   xlink:href="#XMLID_292_"
   id="linearGradient3280"
   gradientUnits="userSpaceOnUse"
   gradientTransform="matrix(1,0,0,-1,1726.0557,610.0811)"
   x1="-1636.5503"
   y1="559.7036"
   x2="-1648.7327"
   y2="560.3656" /><linearGradient
   inkscape:collect="always"
   xlink:href="#XMLID_293_"
   id="linearGradient3282"
   gradientUnits="userSpaceOnUse"
   gradientTransform="matrix(1,0,0,-1,1726.0557,610.0811)"
   x1="-1650.6797"
   y1="546.8218"
   x2="-1648.6932"
   y2="554.3701" /><linearGradient
   inkscape:collect="always"
   xlink:href="#XMLID_294_"
   id="linearGradient3284"
   gradientUnits="userSpaceOnUse"
   gradientTransform="matrix(1,0,0,-1,1726.0557,610.0811)"
   x1="-1639.1938"
   y1="567.7183"
   x2="-1642.6375"
   y2="581.0919" /><linearGradient
   inkscape:collect="always"
   xlink:href="#XMLID_295_"
   id="linearGradient3286"
   gradientUnits="userSpaceOnUse"
   gradientTransform="matrix(1,0,0,-1,1726.0557,610.0811)"
   x1="-1625.8687"
   y1="560.6294"
   x2="-1639.2404"
   y2="561.9535" /><linearGradient
   inkscape:collect="always"
   xlink:href="#XMLID_296_"
   id="linearGradient3288"
   gradientUnits="userSpaceOnUse"
   gradientTransform="matrix(1,0,0,-1,1726.0557,610.0811)"
   x1="-1654.4775"
   y1="574.9819"
   x2="-1654.1714"
   y2="574.3984" /><linearGradient
   inkscape:collect="always"
   xlink:href="#XMLID_297_"
   id="linearGradient3290"
   gradientUnits="userSpaceOnUse"
   gradientTransform="matrix(1,0,0,-1,1726.0557,610.0811)"
   x1="-1640.4155"
   y1="568.2446"
   x2="-1640.1096"
   y2="567.6615" /><linearGradient
   inkscape:collect="always"
   xlink:href="#XMLID_298_"
   id="linearGradient3292"
   gradientUnits="userSpaceOnUse"
   gradientTransform="matrix(1,0,0,-1,1726.0557,610.0811)"
   x1="-1654.4771"
   y1="553.4839"
   x2="-1654.1713"
   y2="552.9009" /><linearGradient
   inkscape:collect="always"
   xlink:href="#XMLID_299_"
   id="linearGradient3294"
   gradientUnits="userSpaceOnUse"
   gradientTransform="matrix(1,0,0,-1,1726.0557,610.0811)"
   x1="-1640.4155"
   y1="546.7466"
   x2="-1640.1093"
   y2="546.1631" /><linearGradient
   inkscape:collect="always"
   xlink:href="#XMLID_300_"
   id="linearGradient3296"
   gradientUnits="userSpaceOnUse"
   gradientTransform="matrix(1.2262266,-0.6437205,-0.6437205,-1.2262266,2696.0411,-215.95263)"
   x1="-1765.2988"
   y1="690.6274"
   x2="-1767.7059"
   y2="699.9758" /><linearGradient
   inkscape:collect="always"
   xlink:href="#XMLID_301_"
   id="linearGradient3298"
   gradientUnits="userSpaceOnUse"
   gradientTransform="matrix(1.3849408,0,0,-1.3849408,2361.8345,845.15345)"
   x1="-1643.5303"
   y1="562.3813"
   x2="-1657.8837"
   y2="562.3813" /><linearGradient
   inkscape:collect="always"
   xlink:href="#XMLID_302_"
   id="linearGradient3300"
   gradientUnits="userSpaceOnUse"
   gradientTransform="matrix(1,0,0,-1,1726.0557,610.0811)"
   x1="-1645.2256"
   y1="559.3755"
   x2="-1648.1379"
   y2="563.0829" /><linearGradient
   inkscape:collect="always"
   xlink:href="#XMLID_303_"
   id="linearGradient3302"
   gradientUnits="userSpaceOnUse"
   gradientTransform="matrix(1,0,0,-1,1726.0557,610.0811)"
   x1="-1648.4502"
   y1="564.1353"
   x2="-1647.4178"
   y2="562.1677" /><linearGradient
   inkscape:collect="always"
   xlink:href="#XMLID_292_"
   id="linearGradient3304"
   gradientUnits="userSpaceOnUse"
   gradientTransform="matrix(1,0,0,-1,1726.0557,610.0811)"
   x1="-1636.5503"
   y1="559.7036"
   x2="-1648.7327"
   y2="560.3656" /><linearGradient
   inkscape:collect="always"
   xlink:href="#XMLID_293_"
   id="linearGradient3306"
   gradientUnits="userSpaceOnUse"
   gradientTransform="matrix(1,0,0,-1,1726.0557,610.0811)"
   x1="-1650.6797"
   y1="546.8218"
   x2="-1648.6932"
   y2="554.3701" /><linearGradient
   inkscape:collect="always"
   xlink:href="#XMLID_294_"
   id="linearGradient3308"
   gradientUnits="userSpaceOnUse"
   gradientTransform="matrix(1,0,0,-1,1726.0557,610.0811)"
   x1="-1639.1938"
   y1="567.7183"
   x2="-1642.6375"
   y2="581.0919" /><linearGradient
   inkscape:collect="always"
   xlink:href="#XMLID_295_"
   id="linearGradient3310"
   gradientUnits="userSpaceOnUse"
   gradientTransform="matrix(1,0,0,-1,1726.0557,610.0811)"
   x1="-1625.8687"
   y1="560.6294"
   x2="-1639.2404"
   y2="561.9535" /><linearGradient
   inkscape:collect="always"
   xlink:href="#XMLID_296_"
   id="linearGradient3312"
   gradientUnits="userSpaceOnUse"
   gradientTransform="matrix(1,0,0,-1,1726.0557,610.0811)"
   x1="-1654.4775"
   y1="574.9819"
   x2="-1654.1714"
   y2="574.3984" /><linearGradient
   inkscape:collect="always"
   xlink:href="#XMLID_297_"
   id="linearGradient3314"
   gradientUnits="userSpaceOnUse"
   gradientTransform="matrix(1,0,0,-1,1726.0557,610.0811)"
   x1="-1640.4155"
   y1="568.2446"
   x2="-1640.1096"
   y2="567.6615" /><linearGradient
   inkscape:collect="always"
   xlink:href="#XMLID_298_"
   id="linearGradient3316"
   gradientUnits="userSpaceOnUse"
   gradientTransform="matrix(1,0,0,-1,1726.0557,610.0811)"
   x1="-1654.4771"
   y1="553.4839"
   x2="-1654.1713"
   y2="552.9009" /><linearGradient
   inkscape:collect="always"
   xlink:href="#XMLID_299_"
   id="linearGradient3318"
   gradientUnits="userSpaceOnUse"
   gradientTransform="matrix(1,0,0,-1,1726.0557,610.0811)"
   x1="-1640.4155"
   y1="546.7466"
   x2="-1640.1093"
   y2="546.1631" /><linearGradient
   inkscape:collect="always"
   xlink:href="#XMLID_302_"
   id="linearGradient3320"
   gradientUnits="userSpaceOnUse"
   gradientTransform="matrix(1,0,0,-1,1726.0557,610.0811)"
   x1="-1645.2256"
   y1="559.3755"
   x2="-1648.1379"
   y2="563.0829" /><linearGradient
   inkscape:collect="always"
   xlink:href="#XMLID_303_"
   id="linearGradient3322"
   gradientUnits="userSpaceOnUse"
   gradientTransform="matrix(1,0,0,-1,1726.0557,610.0811)"
   x1="-1648.4502"
   y1="564.1353"
   x2="-1647.4178"
   y2="562.1677" /><inkscape:perspective
   id="perspective3418"
   inkscape:persp3d-origin="32 : 21.333333 : 1"
   inkscape:vp_z="64 : 32 : 1"
   inkscape:vp_y="0 : 1000 : 0"
   inkscape:vp_x="0 : 32 : 1"
   sodipodi:type="inkscape:persp3d" /><linearGradient
   id="gradient0-6"
   gradientUnits="userSpaceOnUse"
   x1="122.91"
   y1="-32.330002"
   x2="131.67999"
   y2="-5.4299998"><stop
     offset="0.0075"
     stop-color="#fd9d9d"
     id="stop3333" /><stop
     offset="1"
     stop-color="#891a1a"
     id="stop3335" /></linearGradient><linearGradient
   id="gradient1-4"
   gradientUnits="userSpaceOnUse"
   x1="20.98"
   y1="-36.459999"
   x2="58.34"
   y2="-27.700001"><stop
     offset="0"
     stop-color="#ffb3b3"
     id="stop3344" /><stop
     offset="1"
     stop-color="#a53e3e"
     id="stop3346" /></linearGradient><linearGradient
   id="gradient2-6"
   gradientUnits="userSpaceOnUse"
   x1="35.259998"
   y1="-1.67"
   x2="72.739998"
   y2="2.8499999"><stop
     offset="0"
     stop-color="#530404"
     id="stop3351" /><stop
     offset="1"
     stop-color="#bc6060"
     id="stop3353" /></linearGradient><linearGradient
   id="gradient3"
   gradientUnits="userSpaceOnUse"
   x1="11.3"
   y1="82.690002"
   x2="-25.59"
   y2="46.619999"><stop
     offset="0"
     stop-color="#b73636"
     id="stop3358" /><stop
     offset="1"
     stop-color="#d25555"
     id="stop3360" /></linearGradient><radialGradient
   id="gradient4"
   gradientUnits="userSpaceOnUse"
   cx="0"
   cy="0"
   r="64"
   gradientTransform="matrix(0.2922,0.1494,-0.0979,0.1914,23.2158,34.2507)"><stop
     offset="0"
     stop-color="#5abcee"
     id="stop3365" /><stop
     offset="0.0833"
     stop-color="#00337f"
     id="stop3367" /><stop
     offset="0.1992"
     stop-color="#7ac6ed"
     id="stop3369" /><stop
     offset="0.3115"
     stop-color="#1651a8"
     id="stop3371" /><stop
     offset="0.4746"
     stop-color="#98d5f5"
     id="stop3373" /><stop
     offset="0.6123"
     stop-color="#0660e7"
     id="stop3375" /><stop
     offset="0.721"
     stop-color="#99d7f7"
     id="stop3377" /><stop
     offset="0.8514"
     stop-color="#058dd3"
     id="stop3379" /><stop
     offset="1"
     stop-color="#99d7f7"
     id="stop3381" /></radialGradient><linearGradient
   id="gradient5"
   gradientUnits="userSpaceOnUse"
   x1="63.810001"
   y1="3.47"
   x2="73.699997"
   y2="31.530001"><stop
     offset="1"
     stop-color="#b83131"
     id="stop3386" /><stop
     offset="0"
     stop-color="#250e0e"
     id="stop3388" /></linearGradient><linearGradient
   id="gradient6"
   gradientUnits="userSpaceOnUse"
   x1="3.4400001"
   y1="-5.52"
   x2="39.299999"
   y2="-5.52"><stop
     offset="0.3484"
     stop-color="#f29696"
     id="stop3393" /><stop
     offset="0"
     stop-color="#ad4f4f"
     id="stop3395" /><stop
     offset="0.9818"
     stop-color="#eb7f7f"
     id="stop3397" /></linearGradient><radialGradient
   id="gradient7"
   gradientUnits="userSpaceOnUse"
   cx="0"
   cy="0"
   r="64"
   gradientTransform="matrix(0.1406,0,0,0.1093,35,18)"><stop
     offset="0"
     stop-color="#ff7c7c"
     id="stop3404" /><stop
     offset="0.9891"
     stop-color="#650a0a"
     id="stop3406" /></radialGradient><radialGradient
   inkscape:collect="always"
   xlink:href="#gradient7"
   id="radialGradient3502"
   gradientUnits="userSpaceOnUse"
   gradientTransform="matrix(0.16955152,0,0,0.13180641,159.0708,27.42423)"
   cx="0"
   cy="0"
   r="64" /><linearGradient
   inkscape:collect="always"
   xlink:href="#gradient6"
   id="linearGradient3506"
   gradientUnits="userSpaceOnUse"
   x1="3.4400001"
   y1="-5.52"
   x2="39.299999"
   y2="-5.52"
   gradientTransform="matrix(1.2059141,0,0,1.2059141,116.86381,5.7177762)" /><linearGradient
   inkscape:collect="always"
   xlink:href="#gradient5"
   id="linearGradient3509"
   gradientUnits="userSpaceOnUse"
   x1="63.810001"
   y1="3.47"
   x2="73.699997"
   y2="31.530001"
   gradientTransform="matrix(1.2059141,0,0,1.2059141,116.86381,5.7177762)" /><radialGradient
   inkscape:collect="always"
   xlink:href="#gradient4"
   id="radialGradient3512"
   gradientUnits="userSpaceOnUse"
   gradientTransform="matrix(0.3523681,0.18016357,-0.11805899,0.23081196,33.700468,69.082772)"
   cx="0"
   cy="0"
   r="64" /><linearGradient
   inkscape:collect="always"
   xlink:href="#gradient3"
   id="linearGradient3515"
   gradientUnits="userSpaceOnUse"
   x1="11.3"
   y1="82.690002"
   x2="-25.59"
   y2="46.619999"
   gradientTransform="matrix(1.2059141,0,0,1.2059141,116.86381,5.7177762)" /><linearGradient
   inkscape:collect="always"
   xlink:href="#gradient2-6"
   id="linearGradient3518"
   gradientUnits="userSpaceOnUse"
   x1="35.259998"
   y1="-1.67"
   x2="72.739998"
   y2="2.8499999"
   gradientTransform="matrix(1.2059141,0,0,1.2059141,116.86381,5.7177762)" /><linearGradient
   inkscape:collect="always"
   xlink:href="#gradient1-4"
   id="linearGradient3521"
   gradientUnits="userSpaceOnUse"
   x1="20.98"
   y1="-36.459999"
   x2="58.34"
   y2="-27.700001"
   gradientTransform="matrix(1.2059141,0,0,1.2059141,116.86381,5.7177762)" /><linearGradient
   inkscape:collect="always"
   xlink:href="#gradient0-6"
   id="linearGradient3526"
   gradientUnits="userSpaceOnUse"
   x1="122.91"
   y1="-32.330002"
   x2="131.67999"
   y2="-5.4299998"
   gradientTransform="matrix(1.2059141,0,0,1.2059141,116.86381,5.7177762)" /></defs><sodipodi:namedview
   inkscape:window-height="686"
   inkscape:window-width="1106"
   inkscape:pageshadow="2"
   inkscape:pageopacity="0.0"
   guidetolerance="10.0"
   gridtolerance="10.0"
   objecttolerance="10.0"
   borderopacity="1.0"
   bordercolor="#666666"
   pagecolor="#ffffff"
   id="base"
   showgrid="false"
   inkscape:zoom="3.1120532"
   inkscape:cx="69.705274"
   inkscape:cy="48.949371"
   inkscape:window-x="88"
   inkscape:window-y="43"
   inkscape:current-layer="svg2"
   inkscape:window-maximized="1" />
		<g
   id="g3230"
   transform="matrix(0.91456426,0,0,0.91456426,-61.231136,-23.621626)"><polygon
     id="polygon3232"
     points="87.225,67.88 99.454,56.693 99.454,30.413 81.468,21.793 80.639,22.554 80.639,22.554 69.236,32.978 69.236,59.262 "
     transform="matrix(1.3849408,0,0,1.3849408,-28.650557,0.2272155)" /><polygon
     id="polygon3234"
     points="97.786,31.463 81.766,23.783 81.766,23.783 70.904,33.715 70.904,58.21 86.932,65.891 97.786,55.96 "
     transform="matrix(1.3849408,0,0,1.3849408,-28.650557,0.2272155)" /><polygon
     style="fill:url(#linearGradient3280)"
     id="polygon3236"
     points="86.932,65.891 86.932,65.891 70.904,58.212 70.904,33.715 86.932,41.393 "
     transform="matrix(1.3849408,0,0,1.3849408,-28.650557,0.2272155)" /><polygon
     style="fill:url(#linearGradient3282)"
     id="polygon3238"
     points="85.947,63.921 85.947,63.921 71.887,57.182 71.887,35.684 85.947,42.424 "
     transform="matrix(1.3849408,0,0,1.3849408,-28.650557,0.2272155)" /><g
     id="g3240"
     transform="matrix(1.3849408,0,0,1.3849408,-28.650557,0.2272155)">
				<polygon
   style="fill:#d10000"
   id="polygon3242"
   points="83.55,61.16 83.55,61.16 81.743,60.294 81.743,56.943 83.55,57.809 " />
			</g><g
     id="g3244"
     transform="matrix(1.3849408,0,0,1.3849408,-28.650557,0.2272155)">
				<rect
   style="fill:#fc0000"
   id="rect3246"
   height="2.0350001"
   width="1.048"
   y="58.083"
   x="82.134003" /> 
			</g><polygon
     style="fill:url(#linearGradient3284)"
     id="polygon3248"
     points="86.932,41.393 86.932,41.393 70.904,33.715 81.766,23.785 97.786,31.465 "
     transform="matrix(1.3849408,0,0,1.3849408,-28.650557,0.2272155)" /><polygon
     style="fill:url(#linearGradient3286)"
     id="polygon3250"
     points="97.786,55.96 97.786,55.96 86.932,65.891 86.932,41.393 97.786,31.465 "
     transform="matrix(1.3849408,0,0,1.3849408,-28.650557,0.2272155)" /><circle
     sodipodi:ry="0.50099999"
     sodipodi:rx="0.50099999"
     sodipodi:cy="35.683998"
     sodipodi:cx="71.885002"
     style="fill:url(#linearGradient3288)"
     id="circle3252"
     r="0.50099999"
     cy="35.683998"
     cx="71.885002"
     transform="matrix(1.3849408,0,0,1.3849408,-28.650557,0.2272155)"
     d="m 72.386002,35.683998 c 0,0.276695 -0.224305,0.501 -0.501,0.501 -0.276695,0 -0.501,-0.224305 -0.501,-0.501 0,-0.276695 0.224305,-0.501 0.501,-0.501 0.276695,0 0.501,0.224305 0.501,0.501 z" /><circle
     sodipodi:ry="0.50099999"
     sodipodi:rx="0.50099999"
     sodipodi:cy="42.424"
     sodipodi:cx="85.947998"
     style="fill:url(#linearGradient3290)"
     id="circle3254"
     r="0.50099999"
     cy="42.424"
     cx="85.947998"
     transform="matrix(1.3849408,0,0,1.3849408,-28.650557,0.2272155)"
     d="m 86.448998,42.424 c 0,0.276694 -0.224305,0.501 -0.501,0.501 -0.276695,0 -0.501,-0.224306 -0.501,-0.501 0,-0.276695 0.224305,-0.501 0.501,-0.501 0.276695,0 0.501,0.224305 0.501,0.501 z" /><circle
     sodipodi:ry="0.50099999"
     sodipodi:rx="0.50099999"
     sodipodi:cy="57.181"
     sodipodi:cx="71.885002"
     style="fill:url(#linearGradient3292)"
     id="circle3256"
     r="0.50099999"
     cy="57.181"
     cx="71.885002"
     transform="matrix(1.3849408,0,0,1.3849408,-28.650557,0.2272155)"
     d="m 72.386002,57.181 c 0,0.276694 -0.224305,0.501 -0.501,0.501 -0.276695,0 -0.501,-0.224306 -0.501,-0.501 0,-0.276695 0.224305,-0.501 0.501,-0.501 0.276695,0 0.501,0.224305 0.501,0.501 z" /><circle
     sodipodi:ry="0.50099999"
     sodipodi:rx="0.50099999"
     sodipodi:cy="63.919998"
     sodipodi:cx="85.947998"
     style="fill:url(#linearGradient3294)"
     id="circle3258"
     r="0.50099999"
     cy="63.919998"
     cx="85.947998"
     transform="matrix(1.3849408,0,0,1.3849408,-28.650557,0.2272155)"
     d="m 86.448998,63.919998 c 0,0.276695 -0.224305,0.501 -0.501,0.501 -0.276695,0 -0.501,-0.224305 -0.501,-0.501 0,-0.276694 0.224305,-0.501 0.501,-0.501 0.276695,0 0.501,0.224306 0.501,0.501 z" /><polygon
     style="opacity:0.2"
     id="polygon3260"
     points="93.214,67.88 106.216,56.059 99.264,53.729 99.454,56.693 87.225,67.88 87.225,67.88 "
     enable-background="new    "
     transform="matrix(1.3849408,0,0,1.3849408,-28.650557,0.2272155)" /><rect
     id="rect3262"
     height="0.8101849"
     width="21.670023"
     transform="matrix(0.4969034,0.8678059,-0.8678059,0.4969034,0,0)"
     y="-37.083118"
     x="86.558723" /><polygon
     id="polygon3264"
     points="76.878,54.343 76.878,54.343 77.374,54.597 80.505,41.149 79.964,40.909 "
     transform="matrix(1.3849408,0,0,1.3849408,-28.650557,0.2272155)" /><rect
     id="rect3266"
     height="16.609596"
     width="0.73124874"
     y="57.995869"
     x="79.941261" /><polygon
     id="polygon3268"
     points="72.229,46.041 72.229,46.041 84.988,49.972 84.964,49.382 72.214,45.468 "
     transform="matrix(1.3849408,0,0,1.3849408,-28.650557,0.2272155)" /><ellipse
     sodipodi:ry="5.7129998"
     sodipodi:rx="7.5190001"
     sodipodi:cy="47.702"
     sodipodi:cx="78.634003"
     id="ellipse3270"
     ry="5.7129998"
     rx="7.5190001"
     cy="47.702"
     cx="78.634003"
     transform="matrix(0.644136,1.2260881,-1.2260881,0.644136,88.090119,-60.841889)"
     d="m 86.153003,47.702 c 0,3.155202 -3.366371,5.712999 -7.519,5.712999 -4.152629,0 -7.519,-2.557797 -7.519,-5.712999 0,-3.155203 3.366371,-5.713 7.519,-5.713 4.152629,0 7.519,2.557797 7.519,5.713 z" /><path
     style="fill:url(#linearGradient3296)"
     id="path3272"
     d="m 74.08989,69.536581 c -2.353014,-4.484439 -1.501276,-9.569942 1.909833,-11.3579 3.40834,-1.787959 8.076975,0.394708 10.425835,4.877761 2.355785,4.478899 1.504046,9.564402 -1.907063,11.35236 -3.40557,1.787959 -8.074206,-0.391938 -10.428605,-4.872221 z" /><path
     style="fill:url(#linearGradient3298)"
     id="path3274"
     d="m 75.229696,68.931361 c -1.920913,-3.657628 -1.225672,-7.804141 1.552519,-9.262484 2.782346,-1.458343 6.586779,0.322691 8.509077,3.976165 1.925067,3.659014 1.222902,7.808297 -1.555289,9.262485 -2.780961,1.465267 -6.589549,-0.314382 -8.506307,-3.976166 z" /><circle
     sodipodi:ry="2.382"
     sodipodi:rx="2.382"
     sodipodi:cy="47.917"
     sodipodi:cx="78.639"
     style="fill:url(#linearGradient3300)"
     id="circle3276"
     r="2.382"
     cy="47.917"
     cx="78.639"
     transform="matrix(1.3849408,0,0,1.3849408,-28.650557,0.2272155)"
     d="m 81.021,47.917 c 0,1.315542 -1.066458,2.382 -2.382,2.382 -1.315542,0 -2.382,-1.066458 -2.382,-2.382 0,-1.315542 1.066458,-2.382 2.382,-2.382 1.315542,0 2.382,1.066458 2.382,2.382 z" /><circle
     sodipodi:ry="1.689"
     sodipodi:rx="1.689"
     sodipodi:cy="47.916"
     sodipodi:cx="78.639"
     style="fill:url(#linearGradient3302)"
     id="circle3278"
     r="1.689"
     cy="47.916"
     cx="78.639"
     transform="matrix(1.3849408,0,0,1.3849408,-28.650557,0.2272155)"
     d="m 80.328,47.916 c 0,0.932809 -0.756191,1.689 -1.689,1.689 -0.932809,0 -1.689,-0.756191 -1.689,-1.689 0,-0.932809 0.756191,-1.689 1.689,-1.689 0.932809,0 1.689,0.756191 1.689,1.689 z" /></g><path
   id="path41"
   d="m 24.651019,26.4654 -14.6776026,13.544722 0,43.696269 46.3872086,22.426349 15.08616,-13.917273 0,-43.699038 c 0,0 -2.656316,-1.28661 -3.340477,-1.613456 0,-0.836504 0,-5.38465 0,-5.38465 L 37.434023,26.69253 c 0,0 -3.160435,2.93746 -3.808587,3.544064 -0.886362,-0.432102 -8.570014,-4.143743 -8.570014,-4.143743 L 24.651019,26.4654 z"
   inkscape:connector-curvature="0" /><path
   id="path43"
   d="m 24.389265,27.814332 -13.604274,12.55172 0,42.830681 45.432985,21.965157 14.417234,-13.300967 0,-42.836221 c 0,0 -2.376559,-1.149501 -3.340477,-1.614841 0,-1.339238 0,-5.380495 0,-5.380495 L 37.579442,27.670298 c 0,0 -2.80312,2.606459 -3.808587,3.545449 -1.559444,-0.756177 -8.571399,-4.143743 -8.571399,-4.143743 l -0.810191,0.742328 z"
   inkscape:connector-curvature="0" /><polygon
   style="fill:url(#XMLID_284_)"
   id="polygon74"
   points="70.682,17.52 70.682,17.52 50.61,7.816 55.026,3.712 75.098,13.415 "
   transform="matrix(1.3849408,0,0,1.3849408,-38.334701,24.471085)" /><polygon
   style="fill:url(#XMLID_285_)"
   id="polygon93"
   points="70.682,17.52 75.098,13.415 75.098,43.093 75.098,43.093 70.682,47.198 "
   transform="matrix(1.3849408,0,0,1.3849408,-38.334701,24.471085)" /><polygon
   id="polygon95"
   points="36.639,41.669 68.063,56.859 77.509,48.143 77.509,18.467 46.084,3.273 46.084,3.273 36.639,11.992 "
   transform="matrix(1.3849408,0,0,1.3849408,-38.334701,24.471085)" /><polygon
   style="fill:url(#XMLID_286_)"
   id="polygon114"
   points="68.063,56.859 68.063,56.859 36.639,41.668 36.639,11.992 68.063,27.184 "
   transform="matrix(1.3849408,0,0,1.3849408,-38.334701,24.471085)" /><polygon
   style="fill:url(#XMLID_287_)"
   id="polygon127"
   points="64.188,51.791 64.188,51.791 38.812,39.455 38.752,37.825 64.188,50.164 "
   transform="matrix(1.3849408,0,0,1.3849408,-38.334701,24.471085)" /><polygon
   style="fill:#3b3b3b"
   id="polygon129"
   points="40.502,38.689 40.502,38.689 38.812,39.455 38.812,17.882 40.501,18.697 "
   transform="matrix(1.3849408,0,0,1.3849408,-38.334701,24.471085)" /><polygon
   style="fill:url(#XMLID_290_)"
   id="polygon186"
   points="68.063,27.184 68.063,27.184 36.639,11.992 46.084,3.273 77.509,18.467 "
   transform="matrix(1.3849408,0,0,1.3849408,-38.334701,24.471085)" /><polygon
   style="fill:url(#XMLID_291_)"
   id="polygon205"
   points="77.509,48.143 68.063,56.859 68.063,27.184 77.509,18.467 77.509,48.143 "
   transform="matrix(1.3849408,0,0,1.3849408,-38.334701,24.471085)" /><rect
   id="rect207"
   height="1.2962691"
   width="35.51722"
   transform="matrix(0.9004247,0.4350119,-0.4350119,0.9004247,0,0)"
   y="13.734223"
   x="44.998909" /><rect
   y="24.471085"
   id="rect209"
   height="28.593489"
   width="1.9472269"
   x="52.024387" /><rect
   id="rect211"
   height="24.178297"
   width="1.2990745"
   y="30.175655"
   x="57.895153" /><polygon
   style="opacity:0.3"
   id="polygon213"
   points="65.324,19.194 65.324,19.194 75.786,19.215 74.507,20.568 65.324,20.604 "
   enable-background="new    "
   transform="matrix(1.3849408,0,0,1.3849408,-38.334701,24.471085)" /><g
   id="g3204"
   transform="translate(4.454431,4)"><polygon
     transform="matrix(1.3849408,0,0,1.3849408,-28.650557,0.2272155)"
     points="80.639,22.554 69.236,32.978 69.236,59.262 87.225,67.88 99.454,56.693 99.454,30.413 81.468,21.793 80.639,22.554 "
     id="polygon215" /><polygon
     transform="matrix(1.3849408,0,0,1.3849408,-28.650557,0.2272155)"
     points="70.904,33.715 70.904,58.21 86.932,65.891 97.786,55.96 97.786,31.463 81.766,23.783 81.766,23.783 "
     id="polygon217" /><polygon
     transform="matrix(1.3849408,0,0,1.3849408,-28.650557,0.2272155)"
     points="86.932,41.393 86.932,65.891 86.932,65.891 70.904,58.212 70.904,33.715 "
     id="polygon236"
     style="fill:url(#linearGradient3304)" /><polygon
     transform="matrix(1.3849408,0,0,1.3849408,-28.650557,0.2272155)"
     points="85.947,42.424 85.947,63.921 85.947,63.921 71.887,57.182 71.887,35.684 "
     id="polygon255"
     style="fill:url(#linearGradient3306)" /><g
     transform="matrix(1.3849408,0,0,1.3849408,-28.650557,0.2272155)"
     id="g257">
				<polygon
   points="83.55,57.809 83.55,61.16 83.55,61.16 81.743,60.294 81.743,56.943 "
   id="polygon259"
   style="fill:#d10000" />
			</g><g
     transform="matrix(1.3849408,0,0,1.3849408,-28.650557,0.2272155)"
     id="g261">
				<rect
   x="82.134003"
   y="58.083"
   width="1.048"
   height="2.0350001"
   id="rect263"
   style="fill:#fc0000" /> 
			</g><polygon
     transform="matrix(1.3849408,0,0,1.3849408,-28.650557,0.2272155)"
     points="97.786,31.465 86.932,41.393 86.932,41.393 70.904,33.715 81.766,23.785 "
     id="polygon294"
     style="fill:url(#linearGradient3308)" /><polygon
     transform="matrix(1.3849408,0,0,1.3849408,-28.650557,0.2272155)"
     points="97.786,31.465 97.786,55.96 97.786,55.96 86.932,65.891 86.932,41.393 "
     id="polygon313"
     style="fill:url(#linearGradient3310)" /><circle
     transform="matrix(1.3849408,0,0,1.3849408,-28.650557,0.2272155)"
     cx="71.885002"
     cy="35.683998"
     r="0.50099999"
     id="circle326"
     style="fill:url(#linearGradient3312)"
     sodipodi:cx="71.885002"
     sodipodi:cy="35.683998"
     sodipodi:rx="0.50099999"
     sodipodi:ry="0.50099999"
     d="m 72.386002,35.683998 c 0,0.276695 -0.224305,0.501 -0.501,0.501 -0.276695,0 -0.501,-0.224305 -0.501,-0.501 0,-0.276695 0.224305,-0.501 0.501,-0.501 0.276695,0 0.501,0.224305 0.501,0.501 z" /><circle
     transform="matrix(1.3849408,0,0,1.3849408,-28.650557,0.2272155)"
     cx="85.947998"
     cy="42.424"
     r="0.50099999"
     id="circle339"
     style="fill:url(#linearGradient3314)"
     sodipodi:cx="85.947998"
     sodipodi:cy="42.424"
     sodipodi:rx="0.50099999"
     sodipodi:ry="0.50099999"
     d="m 86.448998,42.424 c 0,0.276694 -0.224305,0.501 -0.501,0.501 -0.276695,0 -0.501,-0.224306 -0.501,-0.501 0,-0.276695 0.224305,-0.501 0.501,-0.501 0.276695,0 0.501,0.224305 0.501,0.501 z" /><circle
     transform="matrix(1.3849408,0,0,1.3849408,-28.650557,0.2272155)"
     cx="71.885002"
     cy="57.181"
     r="0.50099999"
     id="circle352"
     style="fill:url(#linearGradient3316)"
     sodipodi:cx="71.885002"
     sodipodi:cy="57.181"
     sodipodi:rx="0.50099999"
     sodipodi:ry="0.50099999"
     d="m 72.386002,57.181 c 0,0.276694 -0.224305,0.501 -0.501,0.501 -0.276695,0 -0.501,-0.224306 -0.501,-0.501 0,-0.276695 0.224305,-0.501 0.501,-0.501 0.276695,0 0.501,0.224305 0.501,0.501 z" /><circle
     transform="matrix(1.3849408,0,0,1.3849408,-28.650557,0.2272155)"
     cx="85.947998"
     cy="63.919998"
     r="0.50099999"
     id="circle365"
     style="fill:url(#linearGradient3318)"
     sodipodi:cx="85.947998"
     sodipodi:cy="63.919998"
     sodipodi:rx="0.50099999"
     sodipodi:ry="0.50099999"
     d="m 86.448998,63.919998 c 0,0.276695 -0.224305,0.501 -0.501,0.501 -0.276695,0 -0.501,-0.224305 -0.501,-0.501 0,-0.276694 0.224305,-0.501 0.501,-0.501 0.276695,0 0.501,0.224306 0.501,0.501 z" /><polygon
     transform="matrix(1.3849408,0,0,1.3849408,-28.650557,0.2272155)"
     enable-background="new    "
     points="106.216,56.059 99.264,53.729 99.454,56.693 87.225,67.88 87.225,67.88 93.214,67.88 "
     id="polygon367"
     style="opacity:0.2" /><rect
     x="86.558723"
     y="-37.083118"
     transform="matrix(0.4969034,0.8678059,-0.8678059,0.4969034,0,0)"
     width="21.670023"
     height="0.8101849"
     id="rect369" /><polygon
     transform="matrix(1.3849408,0,0,1.3849408,-28.650557,0.2272155)"
     points="79.964,40.909 76.878,54.343 76.878,54.343 77.374,54.597 80.505,41.149 "
     id="polygon371" /><rect
     x="79.941261"
     y="57.995869"
     width="0.73124874"
     height="16.609596"
     id="rect373" /><polygon
     transform="matrix(1.3849408,0,0,1.3849408,-28.650557,0.2272155)"
     points="72.214,45.468 72.229,46.041 72.229,46.041 84.988,49.972 84.964,49.382 "
     id="polygon375" /><ellipse
     transform="matrix(0.644136,1.2260881,-1.2260881,0.644136,88.090119,-60.841889)"
     cx="78.634003"
     cy="47.702"
     rx="7.5190001"
     ry="5.7129998"
     id="ellipse377"
     sodipodi:cx="78.634003"
     sodipodi:cy="47.702"
     sodipodi:rx="7.5190001"
     sodipodi:ry="5.7129998"
     d="m 86.153003,47.702 c 0,3.155202 -3.366371,5.712999 -7.519,5.712999 -4.152629,0 -7.519,-2.557797 -7.519,-5.712999 0,-3.155203 3.366371,-5.713 7.519,-5.713 4.152629,0 7.519,2.557797 7.519,5.713 z" /><path
     d="m 74.08989,69.536581 c -2.353014,-4.484439 -1.501276,-9.569942 1.909833,-11.3579 3.40834,-1.787959 8.076975,0.394708 10.425835,4.877761 2.355785,4.478899 1.504046,9.564402 -1.907063,11.35236 -3.40557,1.787959 -8.074206,-0.391938 -10.428605,-4.872221 z"
     id="path390"
     style="fill:url(#linearGradient3078)" /><path
     d="m 75.229696,68.931361 c -1.920913,-3.657628 -1.225672,-7.804141 1.552519,-9.262484 2.782346,-1.458343 6.586779,0.322691 8.509077,3.976165 1.925067,3.659014 1.222902,7.808297 -1.555289,9.262485 -2.780961,1.465267 -6.589549,-0.314382 -8.506307,-3.976166 z"
     id="path403"
     style="fill:url(#linearGradient3075)" /><circle
     transform="matrix(1.3849408,0,0,1.3849408,-28.650557,0.2272155)"
     cx="78.639"
     cy="47.917"
     r="2.382"
     id="circle416"
     style="fill:url(#linearGradient3320)"
     sodipodi:cx="78.639"
     sodipodi:cy="47.917"
     sodipodi:rx="2.382"
     sodipodi:ry="2.382"
     d="m 81.021,47.917 c 0,1.315542 -1.066458,2.382 -2.382,2.382 -1.315542,0 -2.382,-1.066458 -2.382,-2.382 0,-1.315542 1.066458,-2.382 2.382,-2.382 1.315542,0 2.382,1.066458 2.382,2.382 z" /><circle
     transform="matrix(1.3849408,0,0,1.3849408,-28.650557,0.2272155)"
     cx="78.639"
     cy="47.916"
     r="1.689"
     id="circle429"
     style="fill:url(#linearGradient3322)"
     sodipodi:cx="78.639"
     sodipodi:cy="47.916"
     sodipodi:rx="1.689"
     sodipodi:ry="1.689"
     d="m 80.328,47.916 c 0,0.932809 -0.756191,1.689 -1.689,1.689 -0.932809,0 -1.689,-0.756191 -1.689,-1.689 0,-0.932809 0.756191,-1.689 1.689,-1.689 0.932809,0 1.689,0.756191 1.689,1.689 z" /></g>
	<path
   style="fill:url(#radialGradient3512)"
   d="M 50.707627,66.386327 50.02598,93.781528 17.763348,77.87743 l 0.0603,-27.342461 32.883979,15.851358 z"
   id="path3383"
   sodipodi:nodetypes="ccccc"
   inkscape:connector-curvature="0" /><g
   id="g3448"
   transform="matrix(0.72099807,0,0,0.72099807,37.413936,-35.535454)"><path
     inkscape:connector-curvature="0"
     d="m 52.870574,96.144545 c 0.403018,-0.03324 0.711859,-0.01385 0.952839,0.175887 0.144034,0.113565 0.189737,0.256214 0.170348,0.317152 -0.113565,0.375318 -0.927911,-0.206357 -0.927911,-0.206357 0,0 -0.69801,0.03324 -0.752022,1.05671 -0.01939,0.362855 0.170347,0.760333 0.419637,1.044246 0.144033,0.170347 0.403017,0.343465 0.538742,0.44872 0.360084,0.278374 0.905751,0.786647 0.905751,1.447267 0,0.46811 -0.321306,0.58998 -0.871128,0.15372 -0.346235,-0.27006 -0.430717,-0.52766 -0.430717,-0.619064 0,-0.09418 0.08448,-0.148188 0.281143,0.01108 0.270064,0.210514 0.418253,0.476424 0.551207,0.516584 0.159268,0.0485 0.254829,0.0374 0.254829,-0.15096 0,-0.22159 -0.200816,-0.476419 -0.365624,-0.606604 -0.229901,-0.181427 -0.24652,-0.148188 -0.522123,-0.371164 -0.210511,-0.170348 -1.027626,-0.894672 -1.027626,-1.940302 0,-1.04563 0.681391,-1.2783 0.729864,-1.229827 0.02908,0.03324 -0.519353,-0.421022 -0.508274,-0.779722 0.01108,-0.256214 0.306072,-0.159268 0.490269,-0.04847 0.145419,0.08725 0.202202,0.23544 0.01108,0.137109 -0.08448,-0.04293 -0.195277,-0.01246 -0.195277,0.119105 0.0014,0.217436 0.294993,0.524893 0.294993,0.524893 z"
     id="path442"
     style="fill:url(#linearGradient3070)" /><path
     inkscape:connector-curvature="0"
     id="path2565"
     d="m 76.178773,53.535148 -13.89279,-3.118453 0,45.630064 3.58045,0 0,-39.368408 10.31234,2.318215 0,-5.444918 0,0 0,-0.0165 z"
     style="fill:#000000" /><path
     inkscape:connector-curvature="0"
     id="path2567"
     d="m 53.021373,85.924161 c 6.53391,0 11.69008,4.083689 11.69008,9.31411 0,5.205669 -5.12318,9.322359 -11.69008,9.322359 -6.54215,0 -11.69832,-4.10019 -11.69832,-9.322359 0,-5.205672 5.14792,-9.31411 11.69832,-9.31411 l 0,0 z"
     style="fill:#d90f0f" /><path
     inkscape:connector-curvature="0"
     id="path2569"
     d="m 52.881123,86.03966 c 6.37716,0 11.39308,3.992939 11.39308,9.074863 0,5.073677 -4.99942,9.074867 -11.39308,9.074867 -6.37715,0 -11.39307,-3.98469 -11.39307,-9.074867 0,-5.073674 4.99942,-9.074863 11.39307,-9.074863 l 0,0 z"
     style="fill:#da1414" /><path
     inkscape:connector-curvature="0"
     id="path2571"
     d="m 52.716133,86.163408 c 6.19566,0 11.07958,3.860942 11.07958,8.810867 0,4.949926 -4.86743,8.827365 -11.07958,8.827365 -6.19566,0 -11.07134,-3.877439 -11.07134,-8.827365 0,-4.949925 4.87568,-8.810867 11.07134,-8.810867 l 0,0 z"
     style="fill:#db1818" /><path
     inkscape:connector-curvature="0"
     id="path2573"
     d="m 52.567633,86.278906 c 6.00591,0 10.74959,3.753693 10.74959,8.563371 0,4.784928 -4.71068,8.563373 -10.74959,8.563373 -6.02241,0 -10.77434,-3.761945 -10.77434,-8.563373 0,-4.793178 4.72718,-8.563371 10.77434,-8.563371 z"
     style="fill:#dc1d1d" /><path
     inkscape:connector-curvature="0"
     id="path2575"
     d="m 52.402633,86.394404 c 5.84916,0 10.4526,3.671195 10.4526,8.340625 0,4.64468 -4.57869,8.340621 -10.4526,8.340621 -5.84091,0 -10.45259,-3.671191 -10.45259,-8.340621 0,-4.66118 4.58693,-8.340625 10.45259,-8.340625 z"
     style="fill:#dd2121" /><path
     inkscape:connector-curvature="0"
     id="path2577"
     d="m 52.262393,86.509902 c 5.68416,0 10.14734,3.555697 10.14734,8.093129 0,4.512682 -4.44668,8.076629 -10.14734,8.076629 -5.68417,0 -10.14735,-3.539197 -10.14735,-8.076629 0,-4.512682 4.45493,-8.093129 10.14735,-8.093129 z"
     style="fill:#de2626" /><path
     inkscape:connector-curvature="0"
     id="path2579"
     d="m 52.097393,86.633651 c 5.51091,0 9.83385,3.448448 9.83385,7.837382 0,4.364184 -4.30644,7.837377 -9.83385,7.837377 -5.50267,0 -9.83386,-3.440193 -9.83386,-7.837377 0,-4.380684 4.30644,-7.837382 9.83386,-7.837382 z"
     style="fill:#df2a2a" /><path
     inkscape:connector-curvature="0"
     id="path2581"
     d="m 51.957143,86.749149 c 5.31292,0 9.50386,3.33295 9.50386,7.589886 0,4.232186 -4.16619,7.573385 -9.50386,7.573385 -5.32942,0 -9.52861,-3.316449 -9.52861,-7.573385 0,-4.248686 4.16619,-7.589886 9.52861,-7.589886 l 0,0 z"
     style="fill:#e02f2f" /><path
     inkscape:connector-curvature="0"
     id="path2583"
     d="m 51.783893,86.864647 c 5.14792,0 9.20686,3.217452 9.20686,7.34239 0,4.100188 -4.02594,7.325893 -9.20686,7.325893 -5.14792,0 -9.21511,-3.217455 -9.21511,-7.325893 0,-4.116688 4.03419,-7.34239 9.21511,-7.34239 z"
     style="fill:#e03334" /><path
     inkscape:connector-curvature="0"
     id="path2585"
     d="m 51.651893,86.988395 c 4.95818,0 8.87687,3.093704 8.87687,7.078394 0,3.96819 -3.91869,7.103141 -8.87687,7.103141 -4.97467,0 -8.90986,-3.110201 -8.90986,-7.103141 0,-3.959941 3.91869,-7.078394 8.90986,-7.078394 z"
     style="fill:#e13838" /><path
     inkscape:connector-curvature="0"
     id="path2587"
     d="m 51.478653,87.103894 c 4.80142,0 8.59637,2.986455 8.59637,6.830897 0,3.827942 -3.76195,6.855649 -8.59637,6.855649 -4.79318,0 -8.59638,-3.011207 -8.59638,-6.855649 0,-3.811443 3.76195,-6.830897 8.59638,-6.830897 l 0,0 z"
     style="fill:#e23c3d" /><path
     inkscape:connector-curvature="0"
     id="path2589"
     d="m 51.338403,87.219392 c 4.62818,0 8.26637,2.903956 8.26637,6.599901 0,3.687694 -3.62994,6.599897 -8.26637,6.599897 -4.62818,0 -8.27463,-2.903953 -8.27463,-6.599897 0,-3.687695 3.6382,-6.599901 8.27463,-6.599901 z"
     style="fill:#e34141" /><path
     inkscape:connector-curvature="0"
     id="path2591"
     d="m 51.189903,87.33489 c 4.43843,0 7.97763,2.788458 7.97763,6.352405 0,3.539196 -3.5062,6.352405 -7.97763,6.352405 -4.44668,0 -7.97763,-2.788459 -7.97763,-6.352405 0,-3.539197 3.5062,-6.352405 7.97763,-6.352405 l 0,0 z"
     style="fill:#e44646" /><path
     inkscape:connector-curvature="0"
     id="path2593"
     d="m 51.033153,87.458638 c 4.26519,0 7.63939,2.68121 7.63939,6.088409 0,3.398949 -3.3412,6.096658 -7.63939,6.096658 -4.28993,0 -7.66413,-2.68121 -7.66413,-6.096658 0,-3.407199 3.36595,-6.088409 7.66413,-6.088409 z"
     style="fill:#e54a4b" /><path
     inkscape:connector-curvature="0"
     id="path2595"
     d="m 50.884663,87.574136 c 4.11668,0 7.35064,2.565712 7.35064,5.865662 0,3.258701 -3.23396,5.849162 -7.35064,5.849162 -4.10844,0 -7.33415,-2.565711 -7.33415,-5.849162 0,-3.28345 3.21746,-5.865662 7.33415,-5.865662 l 0,0 z"
     style="fill:#e64f4f" /><path
     inkscape:connector-curvature="0"
     id="path2597"
     d="m 50.719663,87.689635 c 3.93519,0 7.02889,2.450213 7.02889,5.618165 0,3.118453 -3.0937,5.593416 -7.02889,5.593416 -3.93519,0 -7.0289,-2.441963 -7.0289,-5.593416 0,-3.143202 3.09371,-5.618165 7.0289,-5.618165 z"
     style="fill:#e75354" /><path
     inkscape:connector-curvature="0"
     id="path2599"
     d="m 50.579413,87.813383 c 3.74544,0 6.70715,2.334715 6.70715,5.362419 0,2.978205 -2.96171,5.36242 -6.70715,5.36242 -3.77019,0 -6.7154,-2.359465 -6.7154,-5.36242 0,-3.002955 2.93696,-5.362419 6.7154,-5.362419 l 0,0 z"
     style="fill:#e85858" /><path
     inkscape:connector-curvature="0"
     id="path2601"
     d="m 50.414413,87.928881 c 3.5722,0 6.40191,2.227467 6.40191,5.098423 0,2.854458 -2.82146,5.106674 -6.40191,5.106674 -3.58044,0 -6.41015,-2.235717 -6.41015,-5.106674 0,-2.846207 2.82146,-5.098423 6.41015,-5.098423 z"
     style="fill:#e95c5d" /><path
     inkscape:connector-curvature="0"
     id="path2603"
     d="m 50.265923,88.044379 c 3.41544,0 6.1049,2.136718 6.1049,4.850927 0,2.70596 -2.68946,4.859177 -6.1049,4.859177 -3.41545,0 -6.10491,-2.136717 -6.10491,-4.859177 0,-2.714209 2.67296,-4.850927 6.10491,-4.850927 z"
     style="fill:#ea6161" /><path
     inkscape:connector-curvature="0"
     id="path2605"
     d="m 50.100923,88.159878 c 3.23395,0 5.78316,2.021219 5.78316,4.61168 0,2.582211 -2.53271,4.611681 -5.78316,4.611681 -3.21746,0 -5.78317,-2.00472 -5.78317,-4.611681 0,-2.565711 2.54922,-4.61168 5.78317,-4.61168 l 0,0 z"
     style="fill:#eb6566" /><path
     inkscape:connector-curvature="0"
     id="path2607"
     d="m 49.960673,88.283626 c 3.0607,0 5.46142,1.897471 5.46142,4.347684 0,2.433714 -2.40072,4.364185 -5.46142,4.364185 -3.06895,0 -5.48617,-1.905722 -5.48617,-4.364185 0,-2.433713 2.40071,-4.347684 5.48617,-4.347684 z"
     style="fill:#ec6a6b" /><path
     inkscape:connector-curvature="0"
     id="path2609"
     d="m 49.795673,88.399124 c 2.88746,0 5.16442,1.814973 5.16442,4.124938 0,2.301715 -2.27696,4.124938 -5.16442,4.124938 -2.88745,0 -5.15617,-1.814973 -5.15617,-4.124938 0,-2.301715 2.26872,-4.124938 5.15617,-4.124938 z"
     style="fill:#ed6f6f" /><path
     inkscape:connector-curvature="0"
     id="path2611"
     d="m 49.655423,88.514622 c 2.69771,0 4.86743,1.699475 4.86743,3.877442 0,2.153218 -2.13672,3.877442 -4.86743,3.877442 -2.72246,0 -4.86742,-1.707725 -4.86742,-3.877442 0,-2.169717 2.13672,-3.877442 4.86742,-3.877442 z"
     style="fill:#ee7374" /><path
     inkscape:connector-curvature="0"
     id="path2613"
     d="m 49.482183,88.63837 c 2.54921,0 4.54568,1.567477 4.54568,3.605196 0,2.01297 -1.99647,3.613446 -4.54568,3.613446 -2.53272,0 -4.53744,-1.592226 -4.53744,-3.613446 0,-2.021219 1.99647,-3.605196 4.53744,-3.605196 l 0,0 z"
     style="fill:#ef7878" /><path
     inkscape:connector-curvature="0"
     id="path2615"
     d="m 49.350183,88.753869 c 2.35121,0 4.21568,1.460228 4.21568,3.374199 0,1.872722 -1.84797,3.374199 -4.21568,3.374199 -2.37597,0 -4.24044,-1.476728 -4.24044,-3.374199 0,-1.889222 1.86447,-3.374199 4.24044,-3.374199 z"
     style="fill:#ef7c7d" /><path
     inkscape:connector-curvature="0"
     id="path2617"
     d="m 49.176933,88.869367 c 1.74897,0 3.1267,1.35298 3.1267,3.126703 0,1.740724 -1.37773,3.110203 -3.1267,3.110203 -1.75722,0 -3.11845,-1.361229 -3.11845,-3.110203 0,-1.757224 1.36123,-3.126703 3.11845,-3.126703 l 0,0 z"
     style="fill:#f08182" /><path
     inkscape:connector-curvature="0"
     id="path2619"
     d="m 49.036683,88.984865 c 1.61698,0 2.88746,1.270481 2.88746,2.887457 0,1.608726 -1.26223,2.887456 -2.88746,2.887456 -1.61697,0 -2.88745,-1.253981 -2.88745,-2.887456 0,-1.608726 1.27048,-2.887457 2.88745,-2.887457 z"
     style="fill:#f18586" /><path
     inkscape:connector-curvature="0"
     id="path2621"
     d="m 48.888193,89.108613 c 1.45197,0 2.62346,1.138483 2.62346,2.623461 0,1.468478 -1.14674,2.63171 -2.62346,2.63171 -1.46023,0 -2.63172,-1.146732 -2.63172,-2.63171 0,-1.460228 1.15499,-2.623461 2.63172,-2.623461 z"
     style="fill:#f28a8b" /><path
     inkscape:connector-curvature="0"
     id="path2623"
     d="m 48.731443,89.224112 c 1.31173,0 2.36771,1.047734 2.36771,2.367714 0,1.32823 -1.03123,2.392464 -2.36771,2.392464 -1.33648,0 -2.39247,-1.047734 -2.39247,-2.392464 0,-1.31998 1.04774,-2.367714 2.39247,-2.367714 z"
     style="fill:#f38e8f" /><path
     inkscape:connector-curvature="0"
     id="path2625"
     d="m 48.582943,89.33961 c 1.17973,0 2.13672,0.932236 2.13672,2.136718 0,1.196232 -0.93224,2.136718 -2.13672,2.136718 -1.18798,0 -2.14497,-0.915737 -2.14497,-2.136718 0,-1.179732 0.94049,-2.136718 2.14497,-2.136718 l 0,0 z"
     style="fill:#f49394" /><path
     inkscape:connector-curvature="0"
     id="path2627"
     d="m 48.417943,89.463358 c 1.03949,0 1.88097,0.824988 1.88097,1.872722 0,1.047734 -0.82498,1.889221 -1.88097,1.889221 -1.05598,0 -1.88922,-0.824987 -1.88922,-1.889221 0,-1.047734 0.82499,-1.872722 1.88922,-1.872722 l 0,0 z"
     style="fill:#f59798" /><path
     inkscape:connector-curvature="0"
     id="path2629"
     d="m 48.277693,89.149863 c 1.13849,0 2.06247,0.899236 2.06247,2.062469 0,1.138483 -0.89923,2.062469 -2.06247,2.062469 -1.15498,0 -2.07072,-0.899237 -2.07072,-2.062469 0,-1.138483 0.90749,-2.062469 2.07072,-2.062469 z"
     style="fill:#f69c9d" /><path
     inkscape:connector-curvature="0"
     id="path2631"
     d="m 40.052573,95.172272 c 0,5.807908 5.84916,10.526838 13.04305,10.526838 7.19389,0 13.04306,-4.71068 13.04306,-10.526838 0,-5.807912 -5.84917,-10.535091 -13.04306,-10.535091 -7.18564,0 -13.04305,4.718929 -13.04305,10.535091 m 1.83147,0 c 0,-4.982925 5.02418,-9.050114 11.17858,-9.050114 6.17091,0 11.19508,4.04244 11.19508,9.050114 0,4.982928 -4.99942,9.058368 -11.19508,9.058368 -6.1544,0 -11.17858,-4.05894 -11.17858,-9.058368 l 0,0 z"
     style="fill:#000000" /><path
     inkscape:connector-curvature="0"
     id="path2635"
     d="m 49.300683,91.121583 c 0.80024,0 1.44373,0.635241 1.44373,1.443728 0,0.800238 -0.63524,1.443729 -1.44373,1.443729 -0.80849,0 -1.44373,-0.618741 -1.44373,-1.443729 0,-0.800238 0.62699,-1.443728 1.44373,-1.443728 z"
     style="fill:#f58b8c" /><path
     inkscape:connector-curvature="0"
     id="path2637"
     d="m 49.300683,90.709089 c 1.03948,0 1.85622,0.816738 1.85622,1.856222 0,1.031235 -0.80849,1.856223 -1.85622,1.856223 -1.03948,0 -1.85622,-0.800238 -1.85622,-1.856223 0,-1.031234 0.80024,-1.856222 1.85622,-1.856222 z"
     style="fill:#f58c8d" /><path
     inkscape:connector-curvature="0"
     id="path2639"
     d="m 49.300683,90.725589 c 1.03123,0 1.83147,0.800238 1.83147,1.831473 0,1.031234 -0.79199,1.839722 -1.83147,1.839722 -1.03123,0 -1.83972,-0.800238 -1.83972,-1.839722 0,-1.031235 0.80024,-1.831473 1.83972,-1.831473 z"
     style="fill:#f68d8e" /><path
     inkscape:connector-curvature="0"
     id="path2641"
     d="m 49.300683,90.742089 c 1.00648,0 1.83147,0.783738 1.83147,1.814973 0,1.014734 -0.80849,1.823222 -1.83147,1.823222 -1.01474,0 -1.83972,-0.791988 -1.83972,-1.823222 0,-1.006485 0.80849,-1.814973 1.83972,-1.814973 z"
     style="fill:#f68f90" /><path
     inkscape:connector-curvature="0"
     id="path2643"
     d="m 49.300683,90.742089 c 1.00648,0 1.82322,0.783738 1.82322,1.814973 0,1.006484 -0.80024,1.806722 -1.82322,1.806722 -1.01474,0 -1.82322,-0.791988 -1.82322,-1.806722 0,-1.014735 0.80023,-1.814973 1.82322,-1.814973 l 0,0 z"
     style="fill:#f69091" /><path
     inkscape:connector-curvature="0"
     id="path2645"
     d="m 49.300683,90.758589 c 1.00648,0 1.79847,0.775488 1.79847,1.798473 0,0.998235 -0.79199,1.806722 -1.79847,1.806722 -1.01474,0 -1.79847,-0.775488 -1.79847,-1.806722 0,-1.006485 0.77548,-1.798473 1.79847,-1.798473 z"
     style="fill:#f79191" /><path
     inkscape:connector-curvature="0"
     id="path2647"
     d="m 49.300683,90.758589 c 1.00648,0 1.79847,0.767238 1.79847,1.798473 0,0.989985 -0.79199,1.790223 -1.79847,1.790223 -1.00649,0 -1.79847,-0.775489 -1.79847,-1.790223 0,-0.998235 0.77548,-1.798473 1.79847,-1.798473 z"
     style="fill:#f79293" /><path
     inkscape:connector-curvature="0"
     id="path2649"
     d="m 49.300683,90.758589 c 1.00648,0 1.79847,0.775488 1.79847,1.798473 0,0.998235 -0.79199,1.790223 -1.79847,1.790223 -1.00649,0 -1.79847,-0.775489 -1.79847,-1.790223 0,-0.989986 0.79198,-1.798473 1.79847,-1.798473 z"
     style="fill:#f79394" /><path
     inkscape:connector-curvature="0"
     id="path2651"
     d="m 49.300683,90.783338 c 0.99823,0 1.76547,0.783738 1.76547,1.773724 0,0.981735 -0.76724,1.757223 -1.76547,1.757223 -0.99824,0 -1.76547,-0.767238 -1.76547,-1.757223 0,-0.989986 0.76723,-1.773724 1.76547,-1.773724 z"
     style="fill:#f79495" /><path
     inkscape:connector-curvature="0"
     id="path2653"
     d="m 49.300683,90.799838 c 0.97348,0 1.76547,0.767238 1.76547,1.757224 0,0.981735 -0.76724,1.765473 -1.76547,1.765473 -0.97349,0 -1.76547,-0.767238 -1.76547,-1.765473 0,-0.973486 0.76723,-1.757224 1.76547,-1.757224 z"
     style="fill:#f79696" /><path
     inkscape:connector-curvature="0"
     id="path2655"
     d="m 49.300683,90.799838 c 0.97348,0 1.76547,0.767238 1.76547,1.757224 0,0.973485 -0.77549,1.748973 -1.76547,1.748973 -0.97349,0 -1.76547,-0.767238 -1.76547,-1.748973 0,-0.981736 0.77548,-1.757224 1.76547,-1.757224 z"
     style="fill:#f79798" /><path
     inkscape:connector-curvature="0"
     id="path2657"
     d="m 49.300683,90.816338 c 0.97348,0 1.75722,0.767238 1.75722,1.740724 0,0.965235 -0.76724,1.748973 -1.75722,1.748973 -0.97349,0 -1.75722,-0.767238 -1.75722,-1.748973 0,-0.973486 0.76723,-1.740724 1.75722,-1.740724 l 0,0 z"
     style="fill:#f79899" /><path
     inkscape:connector-curvature="0"
     id="path2659"
     d="m 49.300683,90.816338 c 0.97348,0 1.73247,0.767238 1.73247,1.740724 0,0.956985 -0.75899,1.724224 -1.73247,1.724224 -0.97349,0 -1.73247,-0.767239 -1.73247,-1.724224 0,-0.973486 0.75898,-1.740724 1.73247,-1.740724 z"
     style="fill:#f7999a" /><path
     inkscape:connector-curvature="0"
     id="path2661"
     d="m 49.300683,90.841087 c 0.97348,0 1.73247,0.742489 1.73247,1.724224 0,0.973486 -0.75899,1.724224 -1.73247,1.724224 -0.97349,0 -1.73247,-0.742488 -1.73247,-1.724224 0,-0.973485 0.75898,-1.724224 1.73247,-1.724224 z"
     style="fill:#f79a9b" /><path
     inkscape:connector-curvature="0"
     id="path2663"
     d="m 49.300683,90.841087 c 0.96524,0 1.72422,0.742489 1.72422,1.724224 0,0.948736 -0.75898,1.724224 -1.72422,1.724224 -0.96524,0 -1.72422,-0.742488 -1.72422,-1.724224 0,-0.948735 0.75898,-1.724224 1.72422,-1.724224 z"
     style="fill:#f69c9d" /><path
     inkscape:connector-curvature="0"
     id="path2665"
     d="m 49.300683,90.857587 c 0.94049,0 1.69947,0.725989 1.69947,1.699475 0,0.940485 -0.73423,1.699474 -1.69947,1.699474 -0.94049,0 -1.69948,-0.734239 -1.69948,-1.699474 0,-0.948736 0.73424,-1.699475 1.69948,-1.699475 z"
     style="fill:#f69d9e" /><path
     inkscape:connector-curvature="0"
     id="path2667"
     d="m 49.300683,90.857587 c 0.94049,0 1.69947,0.725989 1.69947,1.699475 0,0.932236 -0.75074,1.682974 -1.69947,1.682974 -0.94049,0 -1.69948,-0.725989 -1.69948,-1.682974 0,-0.948736 0.75074,-1.699475 1.69948,-1.699475 z"
     style="fill:#f69e9f" /><path
     inkscape:connector-curvature="0"
     id="path2669"
     d="m 49.300683,90.874087 c 0.94049,0 1.69122,0.725989 1.69122,1.682975 0,0.932236 -0.74249,1.674724 -1.69122,1.674724 -0.94049,0 -1.69123,-0.734239 -1.69123,-1.674724 0,-0.940486 0.74249,-1.682975 1.69123,-1.682975 l 0,0 z"
     style="fill:#f69fa0" /><path
     inkscape:connector-curvature="0"
     id="path2671"
     d="m 49.300683,90.890587 c 0.94049,0 1.65822,0.717739 1.65822,1.666475 0,0.923986 -0.71773,1.674724 -1.65822,1.674724 -0.94049,0 -1.66648,-0.717739 -1.66648,-1.674724 0,-0.932236 0.72599,-1.666475 1.66648,-1.666475 z"
     style="fill:#f6a1a1" /><path
     inkscape:connector-curvature="0"
     id="path2673"
     d="m 49.300683,90.890587 c 0.56099,0 1.00648,0.725989 1.00648,1.666475 0,0.907486 -0.43724,1.658225 -1.00648,1.658225 -0.56099,0 -1.01474,-0.734239 -1.01474,-1.658225 0,-0.915737 0.45375,-1.666475 1.01474,-1.666475 z"
     style="fill:#f6a3a3" /><path
     inkscape:connector-curvature="0"
     id="path2675"
     d="m 49.300683,90.907086 c 0.93224,0 1.65822,0.70124 1.65822,1.649976 0,0.923986 -0.70949,1.658225 -1.65822,1.658225 -0.93224,0 -1.66648,-0.70124 -1.66648,-1.658225 0,-0.915737 0.72599,-1.649976 1.66648,-1.649976 z"
     style="fill:#f6a4a5" /><path
     inkscape:connector-curvature="0"
     id="path2677"
     d="m 49.300683,90.915336 c 0.90749,0 1.65822,0.725989 1.65822,1.649975 0,0.915737 -0.72598,1.649976 -1.65822,1.649976 -0.90749,0 -1.65823,-0.70949 -1.65823,-1.649976 0,-0.915736 0.72599,-1.649975 1.65823,-1.649975 z"
     style="fill:#f6a5a6" /><path
     inkscape:connector-curvature="0"
     id="path2679"
     d="m 49.300683,90.931836 c 0.90749,0 1.62522,0.709489 1.62522,1.625226 0,0.907486 -0.70123,1.633475 -1.62522,1.633475 -0.90749,0 -1.63348,-0.709489 -1.63348,-1.633475 0,-0.899237 0.70949,-1.625226 1.63348,-1.625226 z"
     style="fill:#f6a6a6" /><path
     inkscape:connector-curvature="0"
     id="path2681"
     d="m 49.300683,90.931836 c 0.90749,0 1.62522,0.709489 1.62522,1.625226 0,0.899236 -0.70948,1.616975 -1.62522,1.616975 -0.90749,0 -1.63348,-0.709489 -1.63348,-1.616975 0,-0.907487 0.71774,-1.625226 1.63348,-1.625226 z"
     style="fill:#f5a7a7" /><path
     inkscape:connector-curvature="0"
     id="path2683"
     d="m 49.300683,90.948336 c 0.90749,0 1.62522,0.709489 1.62522,1.608726 0,0.890986 -0.70948,1.616975 -1.62522,1.616975 -0.90749,0 -1.62523,-0.709489 -1.62523,-1.616975 0,-0.899237 0.70949,-1.608726 1.62523,-1.608726 z"
     style="fill:#f4a7a8" /><path
     inkscape:connector-curvature="0"
     id="path2685"
     d="m 49.300683,90.964835 c 0.89924,0 1.59223,0.69299 1.59223,1.592227 0,0.890986 -0.69299,1.600475 -1.59223,1.600475 -0.89924,0 -1.59223,-0.709489 -1.59223,-1.600475 0,-0.899237 0.69299,-1.592227 1.59223,-1.592227 z"
     style="fill:#f4a9a9" /><path
     inkscape:connector-curvature="0"
     id="path2687"
     d="m 49.300683,90.964835 c 0.89924,0 1.59223,0.69299 1.59223,1.592227 0,0.882736 -0.69299,1.583976 -1.59223,1.583976 -0.89924,0 -1.59223,-0.69299 -1.59223,-1.583976 0,-0.899237 0.69299,-1.592227 1.59223,-1.592227 z"
     style="fill:#f4aaab" /><path
     inkscape:connector-curvature="0"
     id="path2689"
     d="m 49.300683,90.964835 c 0.87449,0 1.59223,0.69299 1.59223,1.592227 0,0.874486 -0.70124,1.583976 -1.59223,1.583976 -0.87449,0 -1.59223,-0.69299 -1.59223,-1.583976 0,-0.874487 0.70124,-1.592227 1.59223,-1.592227 z"
     style="fill:#f4abac" /><path
     inkscape:connector-curvature="0"
     id="path2691"
     d="m 49.300683,90.989585 c 0.87449,0 1.58398,0.69299 1.58398,1.567477 0,0.866237 -0.69299,1.567476 -1.58398,1.567476 -0.87449,0 -1.58398,-0.69299 -1.58398,-1.567476 0,-0.874487 0.69299,-1.567477 1.58398,-1.567477 z"
     style="fill:#f3abac" /><path
     inkscape:connector-curvature="0"
     id="path2693"
     d="m 49.300683,91.006085 c 0.87449,0 1.55923,0.692989 1.55923,1.550977 0,0.866237 -0.67649,1.559226 -1.55923,1.559226 -0.87449,0 -1.55923,-0.692989 -1.55923,-1.559226 0,-0.857988 0.67649,-1.550977 1.55923,-1.550977 z"
     style="fill:#f3acad" /><path
     inkscape:connector-curvature="0"
     id="path2695"
     d="m 49.300683,91.006085 c 0.87449,0 1.55923,0.66824 1.55923,1.550977 0,0.857987 -0.67649,1.542726 -1.55923,1.542726 -0.87449,0 -1.55923,-0.676489 -1.55923,-1.542726 0,-0.866237 0.67649,-1.550977 1.55923,-1.550977 z"
     style="fill:#f4afaf" /><path
     inkscape:connector-curvature="0"
     id="path2697"
     d="m 49.300683,91.022585 c 0.86624,0 1.55098,0.65174 1.55098,1.534477 0,0.849737 -0.66824,1.542726 -1.55098,1.542726 -0.86624,0 -1.55098,-0.65999 -1.55098,-1.542726 0,-0.857988 0.66824,-1.534477 1.55098,-1.534477 z"
     style="fill:#f4b0b1" /><path
     inkscape:connector-curvature="0"
     id="path2699"
     d="m 49.300683,91.022585 c 0.83324,0 1.52623,0.65174 1.52623,1.534477 0,0.841487 -0.65999,1.526227 -1.52623,1.526227 -0.84149,0 -1.52623,-0.65999 -1.52623,-1.526227 0,-0.849738 0.65999,-1.534477 1.52623,-1.534477 z"
     style="fill:#f4b1b2" /><path
     inkscape:connector-curvature="0"
     id="path2701"
     d="m 49.300683,91.039084 c 0.83324,0 1.52623,0.643491 1.52623,1.517978 0,0.849737 -0.66824,1.526227 -1.52623,1.526227 -0.84149,0 -1.52623,-0.643491 -1.52623,-1.526227 0,-0.841488 0.66824,-1.517978 1.52623,-1.517978 z"
     style="fill:#f4b2b2" /><path
     inkscape:connector-curvature="0"
     id="path2703"
     d="m 49.300683,91.047334 c 0.38774,0 0.69299,0.66824 0.69299,1.517977 0,0.841488 -0.297,1.517978 -0.69299,1.517978 -0.38774,0 -0.69299,-0.651741 -0.69299,-1.517978 0,-0.841487 0.28874,-1.517977 0.69299,-1.517977 z"
     style="fill:#f4b3b4" /><path
     inkscape:connector-curvature="0"
     id="path2705"
     d="m 49.300683,91.063834 c 0.35474,0 0.66824,0.65174 0.66824,1.493228 0,0.833237 -0.297,1.493227 -0.66824,1.493227 -0.35475,0 -0.66824,-0.64349 -0.66824,-1.493227 0,-0.824988 0.297,-1.493228 0.66824,-1.493228 z"
     style="fill:#f4b4b5" /><path
     inkscape:connector-curvature="0"
     id="path2707"
     d="m 49.300683,91.063834 c 0.35474,0 0.62699,0.65174 0.62699,1.493228 0,0.824987 -0.27225,1.476727 -0.62699,1.476727 -0.35475,0 -0.63524,-0.65174 -0.63524,-1.476727 0,-0.833238 0.28049,-1.493228 0.63524,-1.493228 z"
     style="fill:#f5b6b7" /><path
     inkscape:connector-curvature="0"
     id="path2709"
     d="m 49.300683,91.080334 c 0.35474,0 0.62699,0.65174 0.62699,1.476728 0,0.824987 -0.264,1.484977 -0.62699,1.484977 -0.35475,0 -0.62699,-0.65174 -0.62699,-1.484977 0,-0.824988 0.264,-1.476728 0.62699,-1.476728 z"
     style="fill:#f5b7b8" /><path
     inkscape:connector-curvature="0"
     id="path2711"
     d="m 49.300683,91.096833 c 0.32174,0 0.59399,0.635241 0.59399,1.460229 0,0.824987 -0.2475,1.468477 -0.59399,1.468477 -0.32175,0 -0.60224,-0.64349 -0.60224,-1.468477 0,-0.824988 0.25574,-1.460229 0.60224,-1.460229 z"
     style="fill:#f5b8b9" /><path
     inkscape:connector-curvature="0"
     id="path2713"
     d="m 49.300683,91.096833 c 0.32174,0 0.58574,0.635241 0.58574,1.460229 0,0.824987 -0.25575,1.451978 -0.58574,1.451978 -0.32175,0 -0.58574,-0.626991 -0.58574,-1.451978 0,-0.824988 0.25574,-1.460229 0.58574,-1.460229 z"
     style="fill:#f6b9ba" /><path
     inkscape:connector-curvature="0"
     id="path2715"
     d="m 49.300683,91.113333 c 0.31349,0 0.56099,0.618741 0.56099,1.443729 0,0.808487 -0.2475,1.451978 -0.56099,1.451978 -0.3135,0 -0.56099,-0.626991 -0.56099,-1.451978 0,-0.800238 0.24749,-1.443729 0.56099,-1.443729 z"
     style="fill:#f6babb" /><path
     inkscape:connector-curvature="0"
     id="path2717"
     d="m 49.300683,91.121583 c 0.28875,0 0.52799,0.635241 0.52799,1.443728 0,0.800238 -0.22275,1.443729 -0.52799,1.443729 -0.28875,0 -0.52799,-0.618741 -0.52799,-1.443729 0,-0.800238 0.22274,-1.443728 0.52799,-1.443728 z"
     style="fill:#f7bcbd" /><path
     inkscape:connector-curvature="0"
     id="path2719"
     d="m 49.300683,91.121583 c 0.28875,0 0.51974,0.635241 0.51974,1.443728 0,0.800238 -0.22274,1.443729 -0.51974,1.443729 -0.28875,0 -0.51974,-0.618741 -0.51974,-1.443729 0,-0.800238 0.22274,-1.443728 0.51974,-1.443728 z"
     style="fill:#f7bdbe" /><path
     inkscape:connector-curvature="0"
     id="path2721"
     d="m 49.300683,91.138083 c 0.25575,0 0.49499,0.618741 0.49499,1.418979 0,0.783738 -0.2145,1.410728 -0.49499,1.410728 -0.25575,0 -0.49499,-0.61874 -0.49499,-1.410728 0,-0.791989 0.21449,-1.418979 0.49499,-1.418979 z"
     style="fill:#f7bebf" /><path
     inkscape:connector-curvature="0"
     id="path2723"
     d="m 49.300683,91.154583 c 0.25575,0 0.46199,0.61874 0.46199,1.402479 0,0.775488 -0.20624,1.410728 -0.46199,1.410728 -0.25575,0 -0.46199,-0.61874 -0.46199,-1.410728 0,-0.783739 0.20624,-1.402479 0.46199,-1.402479 z"
     style="fill:#f8c0c0" /><path
     inkscape:connector-curvature="0"
     id="path2725"
     d="m 49.300683,91.154583 c 0.25575,0 0.45374,0.61874 0.45374,1.402479 0,0.767238 -0.18974,1.394229 -0.45374,1.394229 -0.25575,0 -0.45374,-0.618741 -0.45374,-1.394229 0,-0.775489 0.18974,-1.402479 0.45374,-1.402479 z"
     style="fill:#f8c1c1" /><path
     inkscape:connector-curvature="0"
     id="path2727"
     d="m 49.300683,91.171082 c 0.2145,0 0.42074,0.585742 0.42074,1.38598 0,0.775488 -0.18149,1.394229 -0.42074,1.394229 -0.22275,0 -0.42899,-0.585742 -0.42899,-1.394229 0,-0.767239 0.18974,-1.38598 0.42899,-1.38598 z"
     style="fill:#f9c3c3" /><path
     inkscape:connector-curvature="0"
     id="path2729"
     d="m 49.300683,91.171082 c 0.2145,0 0.41249,0.602241 0.41249,1.38598 0,0.758988 -0.18149,1.377729 -0.41249,1.377729 -0.22275,0 -0.41249,-0.585741 -0.41249,-1.377729 0,-0.767239 0.18149,-1.38598 0.41249,-1.38598 z"
     style="fill:#f9c4c4" /><path
     inkscape:connector-curvature="0"
     id="path2731"
     d="m 49.300683,91.195832 c 0.2145,0 0.38774,0.593991 0.38774,1.36123 0,0.758988 -0.16499,1.361229 -0.38774,1.361229 -0.2145,0 -0.38774,-0.585741 -0.38774,-1.361229 0,-0.767239 0.15674,-1.36123 0.38774,-1.36123 z"
     style="fill:#f9c5c5" /><path
     inkscape:connector-curvature="0"
     id="path2733"
     d="m 49.300683,91.195832 c 0.20625,0 0.35474,0.593991 0.35474,1.36123 0,0.750738 -0.14849,1.344729 -0.35474,1.344729 -0.20625,0 -0.35475,-0.593991 -0.35475,-1.344729 0,-0.767239 0.1485,-1.36123 0.35475,-1.36123 z"
     style="fill:#f9c6c6" /><path
     inkscape:connector-curvature="0"
     id="path2735"
     d="m 49.300683,91.212332 c 0.1815,0 0.34649,0.577491 0.34649,1.34473 0,0.742488 -0.14849,1.352979 -0.34649,1.352979 -0.18975,0 -0.3465,-0.593991 -0.3465,-1.352979 0,-0.742489 0.1485,-1.34473 0.3465,-1.34473 z"
     style="fill:#f9c7c7" /><path
     inkscape:connector-curvature="0"
     id="path2737"
     d="m 49.300683,91.228832 c 0.1815,0 0.32174,0.569241 0.32174,1.32823 0,0.734238 -0.14024,1.336479 -0.32174,1.336479 -0.1815,0 -0.32175,-0.585741 -0.32175,-1.336479 0,-0.742489 0.14025,-1.32823 0.32175,-1.32823 z"
     style="fill:#f9c8c8" /><path
     inkscape:connector-curvature="0"
     id="path2739"
     d="m 49.300683,91.228832 c 0.1485,0 0.28875,0.560991 0.28875,1.32823 0,0.725989 -0.12375,1.31998 -0.28875,1.31998 -0.1485,0 -0.28875,-0.569242 -0.28875,-1.31998 0,-0.742489 0.12375,-1.32823 0.28875,-1.32823 z"
     style="fill:#f8c9ca" /><path
     inkscape:connector-curvature="0"
     id="path2741"
     d="m 49.300683,91.245331 c 0.1485,0 0.28049,0.560992 0.28049,1.311731 0,0.734238 -0.12374,1.31998 -0.28049,1.31998 -0.1485,0 -0.2805,-0.569242 -0.2805,-1.31998 0,-0.72599 0.12375,-1.311731 0.2805,-1.311731 z"
     style="fill:#f8cacb" /><path
     inkscape:connector-curvature="0"
     id="path2743"
     d="m 49.300683,91.253581 c 0.14025,0 0.25575,0.577491 0.25575,1.31173 0,0.725989 -0.10725,1.311731 -0.25575,1.311731 -0.14025,0 -0.25575,-0.560992 -0.25575,-1.311731 0,-0.725989 0.10725,-1.31173 0.25575,-1.31173 z"
     style="fill:#f8cccc" /><path
     inkscape:connector-curvature="0"
     id="path2745"
     d="m 49.300683,91.270081 c 0.1155,0 0.2145,0.560991 0.2145,1.31173 0,0.725989 -0.0825,1.31173 -0.2145,1.31173 -0.1155,0 -0.22275,-0.569241 -0.22275,-1.31173 0,-0.725989 0.09075,-1.31173 0.22275,-1.31173 z"
     style="fill:#f8cdcd" /><path
     inkscape:connector-curvature="0"
     id="path2747"
     d="m 49.300683,91.270081 c 0.1155,0 0.2145,0.560991 0.2145,1.286981 0,0.709489 -0.09075,1.27048 -0.2145,1.27048 -0.1155,0 -0.2145,-0.560991 -0.2145,-1.27048 0,-0.71774 0.09075,-1.286981 0.2145,-1.286981 z"
     style="fill:#f7cece" /><path
     inkscape:connector-curvature="0"
     id="path2749"
     d="m 49.300683,91.286581 c 0.10725,0 0.1815,0.560991 0.1815,1.270481 0,0.701239 -0.07425,1.27873 -0.1815,1.27873 -0.10725,0 -0.18975,-0.560991 -0.18975,-1.27873 0,-0.70949 0.0825,-1.270481 0.18975,-1.270481 z"
     style="fill:#f7d0d0" /><path
     inkscape:connector-curvature="0"
     id="path2751"
     d="m 49.300683,91.286581 c 0.0825,0 0.1485,0.560991 0.1485,1.270481 0,0.692989 -0.05775,1.262231 -0.1485,1.262231 -0.0825,0 -0.1485,-0.560992 -0.1485,-1.262231 0,-0.70124 0.05775,-1.270481 0.1485,-1.270481 z"
     style="fill:#f6d0d1" /><path
     inkscape:connector-curvature="0"
     id="path2753"
     d="m 49.300683,91.30308 c 0.0825,0 0.1485,0.527992 0.1485,1.253982 0,0.701239 -0.05775,1.262231 -0.1485,1.262231 -0.0825,0 -0.1485,-0.527993 -0.1485,-1.262231 0,-0.69299 0.05775,-1.253982 0.1485,-1.253982 z"
     style="fill:#f6d2d2" /><path
     inkscape:connector-curvature="0"
     id="path2755"
     d="m 49.300683,91.31958 c 0.0495,0 0.1155,0.527992 0.1155,1.237482 0,0.684739 -0.04125,1.245731 -0.1155,1.245731 -0.0495,0 -0.1155,-0.527992 -0.1155,-1.245731 0,-0.69299 0.04125,-1.237482 0.1155,-1.237482 z"
     style="fill:#f6d3d4" /><path
     inkscape:connector-curvature="0"
     id="path2757"
     d="m 49.300683,91.32783 c 0.0495,0 0.0825,0.536242 0.0825,1.237481 0,0.69299 -0.02475,1.237482 -0.0825,1.237482 -0.0495,0 -0.0825,-0.519742 -0.0825,-1.237482 0,-0.692989 0.02475,-1.237481 0.0825,-1.237481 z"
     style="fill:#f6d4d4" /><path
     inkscape:connector-curvature="0"
     id="path2759"
     d="m 49.300683,91.32783 c 0.04125,0 0.0825,0.536242 0.0825,1.237481 0,0.69299 -0.02475,1.237482 -0.0825,1.237482 -0.04125,0 -0.0825,-0.536242 -0.0825,-1.237482 0,-0.692989 0.02475,-1.237481 0.0825,-1.237481 z"
     style="fill:#f5d6d6" /><path
     inkscape:connector-curvature="0"
     id="path2761"
     d="m 49.300683,91.34433 c 0.0082,0 0.0495,0.519742 0.0495,1.212732 0,0.668239 -0.0165,1.220981 -0.0495,1.220981 -0.0165,0 -0.0495,-0.536242 -0.0495,-1.220981 0,-0.66824 0.0165,-1.212732 0.0495,-1.212732 z"
     style="fill:#f5d7d7" /><path
     inkscape:connector-curvature="0"
     id="path2763"
     d="m 49.300683,91.36083 c 0.0082,0 0.0082,0.511492 0.0082,1.196232 0,0.65999 0,1.204481 -0.0082,1.204481 -0.0165,0 -0.0165,-0.527992 -0.0165,-1.204481 0,-0.66824 0,-1.196232 0.0165,-1.196232 z"
     style="fill:#f5d8d9" /><path
     inkscape:connector-curvature="0"
     id="path2765"
     d="m 49.300683,91.36083 c 0.0082,0 0.0082,0.503242 0.0082,1.196232 0,0.65174 0,1.187982 -0.0082,1.187982 -0.0083,0 -0.0165,-0.511493 -0.0165,-1.187982 0,-0.66824 0,-1.196232 0.0165,-1.196232 z"
     style="fill:#f5d9d9" /><path
     inkscape:connector-curvature="0"
     id="path2767"
     d="m 49.300683,91.377329 c 0,0 0,0.503243 0,1.179733 0,0.65999 0,1.187982 0,1.187982 0,0 0,-0.511493 0,-1.187982 0,-0.651741 0,-1.179733 0,-1.179733 z"
     style="fill:#f5dada" /><path
     inkscape:connector-curvature="0"
     id="path2769"
     d="m 49.300683,91.377329 c 0.0082,0 0.0082,0.503243 0.0082,1.179733 0,0.64349 0,1.171482 -0.0082,1.171482 -0.0083,0 -0.0165,-0.511492 -0.0165,-1.171482 0,-0.651741 0,-1.179733 0.0165,-1.179733 z"
     style="fill:#f5dbdb" /><path
     inkscape:connector-curvature="0"
     id="path2771"
     d="m 49.300683,91.402079 c 0.0082,0 0.04125,0.503242 0.04125,1.179732 0,0.65174 -0.0165,1.179732 -0.04125,1.179732 -0.0165,0 -0.04125,-0.511492 -0.04125,-1.179732 0,-0.65174 0.0165,-1.179732 0.04125,-1.179732 z"
     style="fill:#f5dcdd" /><path
     inkscape:connector-curvature="0"
     id="path2773"
     d="m 49.300683,91.402079 c 0.0082,0 0.0495,0.503242 0.0495,1.154983 0,0.63524 -0.0082,1.138482 -0.0495,1.138482 -0.0165,0 -0.0495,-0.503242 -0.0495,-1.138482 0,-0.643491 0.0082,-1.154983 0.0495,-1.154983 z"
     style="fill:#f5ddde" /><path
     inkscape:connector-curvature="0"
     id="path2775"
     d="m 49.300683,91.418579 c 0.0495,0 0.0825,0.503242 0.0825,1.138483 0,0.62699 -0.02475,1.146732 -0.0825,1.146732 -0.0495,0 -0.0825,-0.503242 -0.0825,-1.146732 0,-0.635241 0.02475,-1.138483 0.0825,-1.138483 z"
     style="fill:#f5dedf" /><path
     inkscape:connector-curvature="0"
     id="path2777"
     d="m 49.300683,91.418579 c 0.0495,0 0.10725,0.503242 0.10725,1.138483 0,0.62699 -0.0495,1.130233 -0.10725,1.130233 -0.0495,0 -0.10725,-0.503243 -0.10725,-1.130233 0,-0.635241 0.0495,-1.138483 0.10725,-1.138483 z"
     style="fill:#f5dfe0" /><path
     inkscape:connector-curvature="0"
     id="path2779"
     d="m 49.300683,91.435078 c 0.07425,0 0.1155,0.486743 0.1155,1.121984 0,0.62699 -0.04125,1.130233 -0.1155,1.130233 -0.07425,0 -0.1155,-0.486743 -0.1155,-1.130233 0,-0.618741 0.04125,-1.121984 0.1155,-1.121984 z"
     style="fill:#f5e0e1" /><path
     inkscape:connector-curvature="0"
     id="path2781"
     d="m 49.300683,91.451578 c 0.0825,0 0.1485,0.486743 0.1485,1.105484 0,0.61874 -0.05775,1.113733 -0.1485,1.113733 -0.0825,0 -0.1485,-0.486743 -0.1485,-1.113733 0,-0.618741 0.05775,-1.105484 0.1485,-1.105484 z"
     style="fill:#f5e3e3" /><path
     inkscape:connector-curvature="0"
     id="path2783"
     d="m 49.300683,91.459828 c 0.0825,0 0.17325,0.486743 0.17325,1.105483 0,0.618741 -0.07425,1.105484 -0.17325,1.105484 -0.0825,0 -0.17325,-0.486743 -0.17325,-1.105484 0,-0.61874 0.07425,-1.105483 0.17325,-1.105483 z"
     style="fill:#f5e4e4" /><path
     inkscape:connector-curvature="0"
     id="path2785"
     d="m 49.300683,91.459828 c -0.10725,0 -0.18975,0.486743 -0.18975,1.105483 0,0.610491 0.07425,1.105484 0.18975,1.105484 0.10725,0 0.1815,-0.486743 0.1815,-1.105484 0,-0.593991 -0.05775,-1.105483 -0.1815,-1.105483 z"
     style="fill:#f5e6e5" /><path
     inkscape:connector-curvature="0"
     id="path2787"
     d="m 49.300683,91.476328 c 0.1155,0 0.2145,0.461993 0.2145,1.080734 0,0.60224 -0.0825,1.080733 -0.2145,1.080733 -0.1155,0 -0.22275,-0.461993 -0.22275,-1.080733 0,-0.593992 0.09075,-1.080734 0.22275,-1.080734 z"
     style="fill:#f5e7e6" /><path
     inkscape:connector-curvature="0"
     id="path2789"
     d="m 49.300683,91.492828 c 0.1155,0 0.2145,0.453743 0.2145,1.064234 0,0.585741 -0.099,1.072483 -0.2145,1.072483 -0.1155,0 -0.22275,-0.453743 -0.22275,-1.072483 0,-0.593992 0.10725,-1.064234 0.22275,-1.064234 z"
     style="fill:#f5e8e7" /><path
     inkscape:connector-curvature="0"
     id="path2791"
     d="m 49.300683,91.492828 c 0.59399,0 1.07248,0.445493 1.07248,1.064234 0,0.585741 -0.47024,1.055984 -1.07248,1.055984 -0.60224,0 -1.07249,-0.453744 -1.07249,-1.055984 0,-0.593992 0.462,-1.064234 1.07249,-1.064234 z"
     style="fill:#f5e9e8" /><path
     inkscape:connector-curvature="0"
     id="path2793"
     d="m 49.300683,91.509327 c 0.59399,0 1.03948,0.437244 1.03948,1.047735 0,0.585741 -0.44549,1.055984 -1.03948,1.055984 -0.59399,0 -1.04773,-0.437244 -1.04773,-1.055984 0,-0.577492 0.43724,-1.047735 1.04773,-1.047735 z"
     style="fill:#f5ebea" /><path
     inkscape:connector-curvature="0"
     id="path2795"
     d="m 49.300683,91.509327 c 0.58574,0 1.03948,0.445494 1.03948,1.047735 0,0.569241 -0.43724,1.039484 -1.03948,1.039484 -0.58574,0 -1.04773,-0.453743 -1.04773,-1.039484 0,-0.577492 0.45374,-1.047735 1.04773,-1.047735 z"
     style="fill:#f6eceb" /><path
     inkscape:connector-curvature="0"
     id="path2797"
     d="m 49.300683,91.534077 c 0.58574,0 1.03948,0.445493 1.03948,1.047734 0,0.577491 -0.43724,1.047734 -1.03948,1.047734 -0.58574,0 -1.04773,-0.445493 -1.04773,-1.047734 0,-0.577491 0.45374,-1.047734 1.04773,-1.047734 z"
     style="fill:#f6edec" /><path
     inkscape:connector-curvature="0"
     id="path2799"
     d="m 49.300683,91.534077 c 0.56099,0 1.03123,0.445493 1.03123,1.031234 0,0.577492 -0.45374,1.031235 -1.03123,1.031235 -0.56099,0 -1.03123,-0.445493 -1.03123,-1.031235 0,-0.560991 0.45374,-1.031234 1.03123,-1.031234 z"
     style="fill:#f6eeed" /><path
     inkscape:connector-curvature="0"
     id="path2801"
     d="m 49.300683,91.550577 c 0.56099,0 1.00648,0.445493 1.00648,1.006485 0,0.552741 -0.42899,1.014734 -1.00648,1.014734 -0.56099,0 -1.01474,-0.445493 -1.01474,-1.014734 0,-0.560992 0.43725,-1.006485 1.01474,-1.006485 z"
     style="fill:#f7efee" /><path
     inkscape:connector-curvature="0"
     id="path2803"
     d="m 49.300683,91.550577 c 0.56099,0 1.00648,0.445493 1.00648,1.006485 0,0.552741 -0.43724,0.998235 -1.00648,0.998235 -0.56099,0 -1.01474,-0.445494 -1.01474,-0.998235 0,-0.560992 0.4455,-1.006485 1.01474,-1.006485 z"
     style="fill:#f8f2f0" /><path
     inkscape:connector-curvature="0"
     id="path2805"
     d="m 49.300683,91.567076 c 0.56099,0 1.00648,0.428994 1.00648,0.989986 0,0.552741 -0.43724,0.998235 -1.00648,0.998235 -0.56099,0 -1.00649,-0.428994 -1.00649,-0.998235 0,-0.560992 0.43725,-0.989986 1.00649,-0.989986 z"
     style="fill:#f8f3f1" /><path
     inkscape:connector-curvature="0"
     id="path2807"
     d="m 49.300683,91.583576 c 0.55274,0 0.97348,0.412494 0.97348,0.973486 0,0.536241 -0.42074,0.981735 -0.97348,0.981735 -0.55274,0 -0.97349,-0.428994 -0.97349,-0.981735 0,-0.536242 0.42075,-0.973486 0.97349,-0.973486 z"
     style="fill:#f8f4f2" /><path
     inkscape:connector-curvature="0"
     id="path2809"
     d="m 49.300683,91.583576 c 0.55274,0 0.97348,0.412494 0.97348,0.973486 0,0.536241 -0.42074,0.965235 -0.97348,0.965235 -0.55274,0 -0.97349,-0.420744 -0.97349,-0.965235 0,-0.544492 0.42075,-0.973486 0.97349,-0.973486 z"
     style="fill:#f9f5f3" /><path
     inkscape:connector-curvature="0"
     id="path2811"
     d="m 49.300683,91.583576 c 0.52799,0 0.97348,0.420744 0.97348,0.973486 0,0.527992 -0.42899,0.965235 -0.97348,0.965235 -0.52799,0 -0.97349,-0.420744 -0.97349,-0.965235 0,-0.536242 0.429,-0.973486 0.97349,-0.973486 z"
     style="fill:#f9f6f4" /><path
     inkscape:connector-curvature="0"
     id="path2813"
     d="m 49.300683,91.608326 c 0.52799,0 0.96524,0.412494 0.96524,0.948736 0,0.527992 -0.42075,0.948735 -0.96524,0.948735 -0.52799,0 -0.96524,-0.412494 -0.96524,-0.948735 0,-0.519743 0.42075,-0.948736 0.96524,-0.948736 z"
     style="fill:#faf7f6" /><path
     inkscape:connector-curvature="0"
     id="path2815"
     d="m 49.300683,91.624826 c 0.52799,0 0.94049,0.412493 0.94049,0.932236 0,0.511492 -0.4125,0.940485 -0.94049,0.940485 -0.52799,0 -0.94049,-0.412493 -0.94049,-0.940485 0,-0.519743 0.4125,-0.932236 0.94049,-0.932236 z"
     style="fill:#faf8f6" /><path
     inkscape:connector-curvature="0"
     id="path2817"
     d="m 49.300683,91.624826 c 0.52799,0 0.94049,0.412493 0.94049,0.932236 0,0.511492 -0.4125,0.923986 -0.94049,0.923986 -0.52799,0 -0.94049,-0.412494 -0.94049,-0.923986 0,-0.519743 0.4125,-0.932236 0.94049,-0.932236 z"
     style="fill:#fbfaf8" /><path
     inkscape:connector-curvature="0"
     id="path2819"
     d="m 49.300683,91.641325 c 0.51974,0 0.93224,0.379495 0.93224,0.915737 0,0.511492 -0.396,0.923986 -0.93224,0.923986 -0.51974,0 -0.93224,-0.379495 -0.93224,-0.923986 0,-0.503243 0.396,-0.915737 0.93224,-0.915737 z"
     style="fill:#fbfbf9" /><path
     inkscape:connector-curvature="0"
     id="path2821"
     d="m 49.300683,91.641325 c 0.49499,0 0.90749,0.387744 0.90749,0.915737 0,0.494992 -0.38775,0.907486 -0.90749,0.907486 -0.49499,0 -0.90749,-0.395994 -0.90749,-0.907486 0,-0.503243 0.38775,-0.915737 0.90749,-0.915737 z"
     style="fill:#fcfbfa" /><path
     inkscape:connector-curvature="0"
     id="path2823"
     d="m 49.300683,91.657825 c 0.49499,0 0.90749,0.371244 0.90749,0.899237 0,0.494992 -0.396,0.907486 -0.90749,0.907486 -0.49499,0 -0.90749,-0.379494 -0.90749,-0.907486 0,-0.503243 0.396,-0.899237 0.90749,-0.899237 z"
     style="fill:#fcfcfb" /><path
     inkscape:connector-curvature="0"
     id="path2825"
     d="m 49.300683,91.666075 c 0.49499,0 0.89924,0.387744 0.89924,0.899236 0,0.503243 -0.396,0.899237 -0.89924,0.899237 -0.49499,0 -0.89924,-0.387744 -0.89924,-0.899237 0,-0.486742 0.396,-0.899236 0.89924,-0.899236 z"
     style="fill:#fefefd" /><path
     inkscape:connector-curvature="0"
     id="path2827"
     d="m 49.300683,91.682575 c -0.35475,0 -0.65999,0.387744 -0.65999,0.874487 0,0.478492 0.297,0.874486 0.65999,0.874486 0.35474,0 0.65999,-0.379494 0.65999,-0.874486 0,-0.486743 -0.297,-0.874487 -0.65999,-0.874487 z"
     style="fill:#fefefd" /><path
     inkscape:connector-curvature="0"
     id="path2829"
     d="m 49.275933,91.888822 c 0.37949,0 0.66824,0.296995 0.66824,0.66824 0,0.362994 -0.28875,0.65999 -0.66824,0.65999 -0.3795,0 -0.65999,-0.280496 -0.65999,-0.65999 0,-0.371245 0.28049,-0.66824 0.65999,-0.66824 z"
     style="fill:#ffffff" /></g></svg>