<?xml version="1.0" encoding="UTF-8" standalone="no"?>
<!DOCTYPE svg PUBLIC "-//W3C//DTD SVG 20010904//EN"
"http://www.w3.org/TR/2001/REC-SVG-20010904/DTD/svg10.dtd">
<!-- Created with Sodipodi ("http://www.sodipodi.com/") -->
<svg
   i:viewOrigin="242 463"
   i:rulerOrigin="-242 -332"
   i:pageBounds="242 460 370 332"
   width="48pt"
   height="48pt"
   viewBox="0 0 142.334 137.175"
   overflow="visible"
   enable-background="new 0 0 142.334 137.175"
   xml:space="preserve"
   id="svg548"
   sodipodi:version="0.32"
   sodipodi:docname="/home/cschalle/gnome-themes-extras/Amaranth/icons/scalable/apps/downloadmanager.svg"
   sodipodi:docbase="/home/cschalle/gnome-themes-extras/Amaranth/icons/scalable/apps"
   xmlns="http://www.w3.org/2000/svg"
   xmlns:sodipodi="http://sodipodi.sourceforge.net/DTD/sodipodi-0.dtd"
   xmlns:ns="http://ns.adobe.com/Variables/1.0/"
   xmlns:i="http://ns.adobe.com/AdobeIllustrator/10.0/"
   xmlns:xml="http://www.w3.org/XML/1998/namespace"
   xmlns:a="http://ns.adobe.com/AdobeSVGViewerExtensions/3.0/"
   xmlns:xlink="http://www.w3.org/1999/xlink">
  <defs
     id="defs698">
    <linearGradient
       id="XMLID_2_"
       gradientUnits="userSpaceOnUse"
       x1="58.7188"
       y1="111.166"
       x2="58.7188"
       y2="111.166">
      <stop
         offset="0"
         style="stop-color:#FFFFFF"
         id="stop586" />
      <stop
         offset="1"
         style="stop-color:#2D345E"
         id="stop587" />
      
      
      
    </linearGradient>
    <linearGradient
       id="XMLID_7_"
       gradientUnits="userSpaceOnUse"
       x1="35.4185"
       y1="105.6563"
       x2="47.855"
       y2="105.6563">
      <stop
         offset="0"
         style="stop-color:#FFFFFF"
         id="stop629" />
      <stop
         offset="1"
         style="stop-color:#05171D"
         id="stop630" />
      
      
      
    </linearGradient>
    <linearGradient
       id="XMLID_8_"
       gradientUnits="userSpaceOnUse"
       x1="61.6616"
       y1="115.9619"
       x2="103.2749"
       y2="74.3486">
      <stop
         offset="0"
         style="stop-color:#FFFFFF"
         id="stop636" />
      <stop
         offset="1"
         style="stop-color:#05171D"
         id="stop637" />
      
      
      
    </linearGradient>
    <linearGradient
       id="XMLID_9_"
       gradientUnits="userSpaceOnUse"
       x1="46.2778"
       y1="115.1504"
       x2="133.2324"
       y2="115.1504">
      <stop
         offset="0"
         style="stop-color:#FFFFFF"
         id="stop643" />
      <stop
         offset="1"
         style="stop-color:#05171D"
         id="stop644" />
      
      
      
    </linearGradient>
    <linearGradient
       id="XMLID_6_"
       gradientUnits="userSpaceOnUse"
       x1="36.0732"
       y1="105.5908"
       x2="132.7607"
       y2="105.5908">
      <stop
         offset="0"
         style="stop-color:#FFFFFF"
         id="stop622" />
      <stop
         offset="1"
         style="stop-color:#05171D"
         id="stop623" />
      
      
      
    </linearGradient>
    <linearGradient
       id="XMLID_11_"
       gradientUnits="userSpaceOnUse"
       x1="68.3223"
       y1="111.2725"
       x2="82.2031"
       y2="111.2725">
      <stop
         offset="0"
         style="stop-color:#FEE06E"
         id="stop670" />
      <stop
         offset="0.7978"
         style="stop-color:#008837"
         id="stop671" />
      <stop
         offset="0.827"
         style="stop-color:#0A8A38"
         id="stop672" />
      <stop
         offset="0.8624"
         style="stop-color:#168F3B"
         id="stop673" />
      <stop
         offset="0.9011"
         style="stop-color:#2E9842"
         id="stop674" />
      <stop
         offset="0.9421"
         style="stop-color:#50A14D"
         id="stop675" />
      <stop
         offset="0.9845"
         style="stop-color:#7BAA60"
         id="stop676" />
      <stop
         offset="1"
         style="stop-color:#8CAD69"
         id="stop677" />
      
      
      
      
      
    </linearGradient>
    <linearGradient
       id="XMLID_10_"
       gradientUnits="userSpaceOnUse"
       x1="50.3599"
       y1="111.2725"
       x2="64.2402"
       y2="111.2725">
      <stop
         offset="0"
         style="stop-color:#FEE06E"
         id="stop652" />
      <stop
         offset="0.7978"
         style="stop-color:#FF0000"
         id="stop653" />
      <stop
         offset="0.8206"
         style="stop-color:#FF0A02"
         id="stop654" />
      <stop
         offset="0.8483"
         style="stop-color:#FE1608"
         id="stop655" />
      <stop
         offset="0.8785"
         style="stop-color:#FE2E0E"
         id="stop656" />
      <stop
         offset="0.9105"
         style="stop-color:#FD501B"
         id="stop657" />
      <stop
         offset="0.944"
         style="stop-color:#FD7C30"
         id="stop658" />
      <stop
         offset="0.9781"
         style="stop-color:#FDB04E"
         id="stop659" />
      <stop
         offset="1"
         style="stop-color:#FED667"
         id="stop660" />
      
      
      
      
      
    </linearGradient>
  </defs>
  <sodipodi:namedview
     id="base" />
  <metadata
     id="metadata549">
    <sfw>
      <slices />
      <sliceSourceBounds
         y="325.825"
         x="242"
         width="142.334"
         height="137.175"
         bottomLeftOrigin="true" />
    </sfw>
    <ns:variableSets>
      <ns:variableSet
         varSetName="binding1"
         locked="none">
        <ns:variables />
        <ns:sampleDataSets />
      </ns:variableSet>
    </ns:variableSets>
  </metadata>
  <g
     id="g554"
     style="font-size:12;stroke:#000000;">
    <linearGradient
       id="XMLID_1_"
       gradientUnits="userSpaceOnUse"
       x1="20.2969"
       y1="20.9487"
       x2="81.2047"
       y2="81.8566">
      <stop
         offset="0"
         style="stop-color:#FFFFFF"
         id="stop556" />
      <stop
         offset="1"
         style="stop-color:#2D345E"
         id="stop557" />
      
      
      
    </linearGradient>
    <path
       i:knockout="Off"
       fill="url(#XMLID_1_)"
       stroke="none"
       d="M93.819,51.402c0-23.786-19.284-43.068-43.069-43.068       c-23.786,0-43.068,19.282-43.068,43.068c0,23.786,19.282,43.068,43.068,43.068C74.535,94.47,93.819,75.188,93.819,51.402z"
       id="path561" />
    <path
       i:knockout="Off"
       fill="none"
       stroke="#6F708C"
       d="M93.819,51.402c0-23.786-19.284-43.068-43.069-43.068       c-23.786,0-43.068,19.282-43.068,43.068c0,23.786,19.282,43.068,43.068,43.068C74.535,94.47,93.819,75.188,93.819,51.402z"
       id="path562" />
  </g>
  <g
     id="g565"
     style="font-size:12;stroke:#000000;">
    <g
       id="g566">
      <path
         i:knockout="Off"
         fill="none"
         stroke="#7C7C96"
         d="M9.769,37.742l79.307,32.253"
         id="path567" />
      <path
         i:knockout="Off"
         fill="none"
         stroke="#7C7C96"
         d="M13.46,29.583l78.84,32.064"
         id="path568" />
      <path
         i:knockout="Off"
         fill="none"
         stroke="#7C7C96"
         d="M18.521,22.753l75.108,30.546"
         id="path569" />
      <path
         i:knockout="Off"
         fill="none"
         stroke="#7C7C96"
         d="M25.226,16.682L93.06,44.27"
         id="path570" />
      <path
         i:knockout="Off"
         fill="none"
         stroke="#7C7C96"
         d="M34.146,11.559l56.448,22.957"
         id="path571" />
      <path
         i:knockout="Off"
         fill="none"
         stroke="#7C7C96"
         d="M44.694,8.713l40.018,16.274"
         id="path572" />
      <path
         i:knockout="Off"
         fill="none"
         stroke="#7C7C96"
         d="M7.84,46.09l77.441,31.495"
         id="path573" />
      <path
         i:knockout="Off"
         fill="none"
         stroke="#7C7C96"
         d="M7.849,54.248l71.843,29.218"
         id="path574" />
      <path
         i:knockout="Off"
         fill="none"
         stroke="#7C7C96"
         d="M9.574,63.734l62.047,25.234"
         id="path575" />
      <path
         i:knockout="Off"
         fill="none"
         stroke="#7C7C96"
         d="M13.238,73.031l48.516,19.731"
         id="path576" />
      <path
         i:knockout="Off"
         fill="none"
         stroke="#7C7C96"
         d="M22.291,83.786l25.803,10.495"
         id="path577" />
      <path
         i:knockout="Off"
         fill="none"
         stroke="#7C7C96"
         d="M67.256,11.559L33.674,91.056"
         id="path578" />
      <path
         i:knockout="Off"
         fill="none"
         stroke="#7C7C96"
         d="M77.123,17.63c0,0-6.729,23.45-13.136,37.244        c-6.406,13.793-19.084,39.028-19.084,39.028"
         id="path579" />
      <path
         i:knockout="Off"
         fill="none"
         stroke="#7C7C96"
         d="M86.229,26.737c0,0-5.113,21.633-9.672,33.395        c-4.559,11.761-18.621,33.58-18.621,33.58"
         id="path580" />
      <path
         i:knockout="Off"
         fill="none"
         stroke="#7C7C96"
         d="M93.06,42.674c0,0-1.641,15.167-4.899,22.098        S74.225,87.261,74.225,87.261"
         id="path581" />
      <path
         i:knockout="Off"
         fill="none"
         stroke="#7C7C96"
         d="M56.632,8.523c0,0-12.563,21.957-18.614,35.358        S24.251,85.174,24.251,85.174"
         id="path582" />
      <path
         i:knockout="Off"
         fill="none"
         stroke="#7C7C96"
         d="M45.248,8.523c0,0-11.551,18.035-17.823,30.931        s-11.11,37.561-11.11,37.561"
         id="path583" />
      <path
         i:knockout="Off"
         fill="none"
         stroke="#7C7C96"
         d="M32.346,12.318c0,0-9.238,11.082-15.149,24.324        c-5.911,13.243-7.239,28.674-7.239,28.674"
         id="path584" />
    </g>
  </g>
  <path
     i:knockout="Off"
     fill="url(#XMLID_2_)"
     stroke="#6F708C"
     d="M58.719,111.166"
     id="path591"
     style="font-size:12;fill:url(#XMLID_2_);stroke:#6f708c;" />
  <g
     id="g592"
     style="font-size:12;stroke:#000000;">
    <linearGradient
       id="XMLID_3_"
       gradientUnits="userSpaceOnUse"
       x1="15.8301"
       y1="25.9653"
       x2="76.1758"
       y2="86.3111">
      <stop
         offset="0"
         style="stop-color:#FFFFFF"
         id="stop594" />
      <stop
         offset="1"
         style="stop-color:#648761"
         id="stop595" />
      
      
      
    </linearGradient>
    <path
       i:knockout="Off"
       fill="url(#XMLID_3_)"
       stroke="#6F708C"
       d="M12.045,32.808c0,0,3.225-1.328,3.604-0.189      c0.38,1.138-0.948,8.537,0.759,9.296c1.707,0.759-2.467,6.451-1.708,9.486c0.759,3.036,4.933,7.021,8.158,10.815      c3.226,3.795,2.656,4.553,4.174,5.881c1.518,1.329,8.538,3.036,13.092,3.036c4.553,0,4.743,2.467,6.451,2.276      c1.708-0.189,3.794-2.276,4.933-0.947c1.139,1.327-3.415,5.69,0.949,8.916s9.676,0.759,10.435,2.656      c0.76,1.897-2.782,7.717-0.695,8.664c1.245,0.567,12.648-5.059,14.356-6.767c1.707-1.708,3.794-10.436,6.45-12.143      c2.655-1.707,4.364-10.056,0.759-10.814c-3.605-0.759-7.209,1.328-7.969,3.036c-0.759,1.707-8.917-0.38-9.866-0.76      c-0.948-0.38-10.814,1.518-12.901,3.036c-2.086,1.518-4.743,4.363-6.45,3.795c-1.708-0.569-1.708-3.985-5.692-3.985      c-3.984,0,0.758-3.415-1.898-3.604c-2.656-0.19-1.707,2.466-3.604,2.656c-1.897,0.189-9.676-2.847-3.226-7.969      c6.451-5.123,7.779-1.329,9.676,0.38c1.897,1.708,0.949-1.898-0.759-3.605c-1.708-1.708,0.569-4.364,1.518-4.933      c0.948-0.569-1.518-6.641,2.276-10.435s0.569-4.174-0.569-4.743c-1.139-0.569,4.743-2.656,4.553-4.174      c-0.19-1.518-11.004-4.364-12.333-3.604c-1.328,0.759,1.897,9.107,0.19,8.917c-1.708-0.189-7.399-1.138-8.538-3.984      c-1.139-2.846,4.364-5.882,1.897-7.21c-2.467-1.328-3.605,1.708-5.123,1.139c-1.518-0.569-5.503-3.036-5.503-4.364      S13.563,28.255,12.045,32.808z"
       id="path599" />
    <linearGradient
       id="XMLID_4_"
       gradientUnits="userSpaceOnUse"
       x1="75.6318"
       y1="20.8286"
       x2="95.174"
       y2="40.3707">
      <stop
         offset="0"
         style="stop-color:#FFFFFF"
         id="stop601" />
      <stop
         offset="1"
         style="stop-color:#648761"
         id="stop602" />
      
      
      
    </linearGradient>
    <path
       i:knockout="Off"
       fill="url(#XMLID_4_)"
       stroke="#6F708C"
       d="M78.07,18.389c0,0,0,8.348,4.934,14.989      c1.608,2.166,3.198,1.651,4.608,3.043c2.914,2.875,5.067,6.443,5.067,6.443S87.938,23.892,78.07,18.389z"
       id="path606" />
    <linearGradient
       id="XMLID_5_"
       gradientUnits="userSpaceOnUse"
       x1="61.3579"
       y1="9.6787"
       x2="75.7535"
       y2="24.0743">
      <stop
         offset="0"
         style="stop-color:#FFFFFF"
         id="stop608" />
      <stop
         offset="1"
         style="stop-color:#648761"
         id="stop609" />
      
      
      
    </linearGradient>
    <path
       i:knockout="Off"
       fill="url(#XMLID_5_)"
       stroke="#6F708C"
       d="M61.185,9.852c0,0,5.123,2.466,3.605,3.984      c-1.518,1.518-6.831,0.759-3.226,2.277c3.605,1.518,6.262-0.949,7.209,0.759c0.949,1.708,1.708,1.138,2.468,1.328      c0.758,0.19,3.034,6.831,4.363,5.882c1.327-0.949,3.036-1.897,0.569-3.984c-2.467-2.087-4.364-5.882-2.846-5.123      C74.846,15.733,65.359,9.472,61.185,9.852z"
       id="path613" />
  </g>
  <path
     i:knockout="Off"
     fill="url(#XMLID_6_)"
     d="M36.073,102.264c0,0,9.601,22.91,12,23.564c2.4,0.654,82.259,1.31,83.35,0.219      c1.092-1.092,2.4-19.638,0.219-22.692S98.695,84.59,98.695,84.59"
     id="path627"
     style="font-size:12;fill:url(#XMLID_6_);stroke:#000000;" />
  <path
     i:knockout="Off"
     fill="url(#XMLID_7_)"
     d="M35.418,99.053c0,1.887,0.642,4.832,1.427,6.549l8.388,18.338     c0.784,1.716,2.593,5.005,2.622,3.119l-0.869-24.576c0.029-1.887-0.756-1.314-1.746-2.92l-6.88-15.309     c-0.989-1.605-2.942,0.91-2.942,2.797V99.053z"
     id="path634"
     style="font-size:12;fill:url(#XMLID_7_);stroke:#000000;" />
  <path
     i:knockout="Off"
     fill="url(#XMLID_8_)"
     d="M45.444,99.744c0.982,1.61,3.329,2.928,5.215,2.928h77.538     c1.892,0,4.391,0.348,2.777-0.624l-28.414-16.851c-1.617-0.971-4.482-1.762-6.369-1.756l-57.153,0.17     c-1.886,0.006-2.625,1.326-1.643,2.938L45.444,99.744z"
     id="path641"
     style="font-size:12;fill:url(#XMLID_8_);stroke:#000000;" />
  <path
     i:knockout="Off"
     fill="url(#XMLID_9_)"
     d="M133.232,104.74c0-1.347-1.103-2.449-2.449-2.449H48.727     c-1.347,0-2.449,1.103-2.449,2.449v20.821c0,1.347,1.102,2.449,2.449,2.449h82.056c1.347,0,2.449-1.103,2.449-2.449V104.74z"
     id="path648"
     style="font-size:12;fill:url(#XMLID_9_);stroke:#000000;" />
  <path
     i:knockout="Off"
     fill="url(#XMLID_10_)"
     d="M64.24,108.62c0-1.35-1.103-2.45-2.45-2.45H52.81      c-1.347,0-2.45,1.101-2.45,2.45v5.307c0,1.347,1.103,2.448,2.45,2.448h8.981c1.347,0,2.45-1.102,2.45-2.448V108.62z"
     id="path666"
     style="font-size:12;fill:url(#XMLID_10_);stroke:#000000;" />
  <path
     i:knockout="Off"
     fill="url(#XMLID_11_)"
     d="M82.203,108.62c0-1.35-1.102-2.45-2.451-2.45h-8.98      c-1.347,0-2.449,1.101-2.449,2.45v5.307c0,1.347,1.103,2.448,2.449,2.448h8.98c1.35,0,2.451-1.102,2.451-2.448V108.62z"
     id="path683"
     style="font-size:12;fill:url(#XMLID_11_);stroke:#000000;" />
  <g
     i:knockout="Off"
     id="g684"
     style="font-size:12;stroke:#000000;">
    <path
       i:knockout="Off"
       opacity="0.25"
       fill="#FFFFFF"
       stroke="none"
       d="M79.058,94.627c16.583-0.873,50.957,6.719,50.957,6.719      l-26.582-16.148c-1.616-0.971-4.481-1.762-6.368-1.756l-57.154,0.17c-1.886,0.006-2.625,1.326-1.643,2.938      C38.268,86.549,62.475,95.5,79.058,94.627z"
       id="path685" />
  </g>
  <g
     id="g688"
     style="font-size:12;stroke:#000000;">
    <linearGradient
       id="XMLID_12_"
       gradientUnits="userSpaceOnUse"
       x1="44.1665"
       y1="35.167"
       x2="100.3332"
       y2="91.3336">
      <stop
         offset="0"
         style="stop-color:#FFFFFF"
         id="stop690" />
      <stop
         offset="1"
         style="stop-color:#3BA42A"
         id="stop691" />
      
      
      
    </linearGradient>
    <path
       i:knockout="Off"
       fill="url(#XMLID_12_)"
       stroke="none"
       d="M38,41.333c0,0,59,4.667,59,37.333h16L87.666,104L63,79.334h17      C80,79.334,76.667,51,38,41.333z"
       id="path695" />
    <path
       i:knockout="Off"
       opacity="0.75"
       fill="none"
       stroke="#66B821"
       stroke-width="2"
       stroke-linejoin="bevel"
       d="M38,41.333      c0,0,59,4.667,59,37.333h16L87.666,104L63,79.334h17C80,79.334,76.667,51,38,41.333z"
       id="path696" />
  </g>
</svg>
