<?xml version="1.0" encoding="UTF-8" standalone="no"?>
<!-- Generator: Adobe Illustrator 9.0, SVG Export Plug-In  -->
<svg
   xmlns:dc="http://purl.org/dc/elements/1.1/"
   xmlns:cc="http://web.resource.org/cc/"
   xmlns:rdf="http://www.w3.org/1999/02/22-rdf-syntax-ns#"
   xmlns:svg="http://www.w3.org/2000/svg"
   xmlns="http://www.w3.org/2000/svg"
   xmlns:xlink="http://www.w3.org/1999/xlink"
   xmlns:sodipodi="http://sodipodi.sourceforge.net/DTD/sodipodi-0.dtd"
   xmlns:inkscape="http://www.inkscape.org/namespaces/inkscape"
   width="44.572pt"
   height="48pt"
   viewBox="0 0 44.572 48"
   xml:space="preserve"
   id="svg2"
   sodipodi:version="0.32"
   inkscape:version="0.45"
   sodipodi:docname="mime-image:svg+xml.svg"
   sodipodi:docbase="/home/ihuhnix/.icons/amica/MIME"
   inkscape:output_extension="org.inkscape.output.svg.inkscape"
   sodipodi:modified="true"><metadata
   id="metadata71"><rdf:RDF><cc:Work
       rdf:about=""><dc:format>image/svg+xml</dc:format><dc:type
         rdf:resource="http://purl.org/dc/dcmitype/StillImage" /></cc:Work></rdf:RDF></metadata><defs
   id="defs69">
		
		<radialGradient
   gradientUnits="userSpaceOnUse"
   fy="12.9375"
   fx="18.585899"
   r="20.5907"
   cy="12.9375"
   cx="18.585899"
   id="aigrd5"
   gradientTransform="matrix(1.1927121,0,0,1.1927121,-2.4007012,-1.6363185)">
			<stop
   id="stop50"
   style="stop-color:#00ffff;stop-opacity:1;"
   offset="0" /><stop
   offset="0.5"
   style="stop-color:#ffff00;stop-opacity:1;"
   id="stop3159" />
			<stop
   id="stop52"
   style="stop-color:#ff0000;stop-opacity:1;"
   offset="1" />
		</radialGradient>
		
		
		
		
	<sodipodi:namedview
   snaptoguides="true"
   showguides="true"
   inkscape:window-y="26"
   inkscape:window-x="293"
   inkscape:window-height="762"
   inkscape:window-width="912"
   inkscape:cy="25.063334"
   inkscape:cx="24.000021"
   inkscape:zoom="11.353430"
   id="namedview1096"><sodipodi:guide
     id="guide627"
     position="72.263738"
     orientation="vertical" /></sodipodi:namedview><defs
   id="defs604"><linearGradient
     id="linearGradient1287"><stop
       id="stop1289"
       style="stop-color:#ffffff;stop-opacity:1.0000000;"
       offset="0.0000000" /><stop
       id="stop1288"
       style="stop-color:#c2bfbf;stop-opacity:0.99607843;"
       offset="1.0000000" /></linearGradient><linearGradient
     id="linearGradient898"><stop
       id="stop900"
       offset="0.0000000"
       style="stop-color:#000000;stop-opacity:0.74166667;" /><stop
       id="stop902"
       offset="1.0000000"
       style="stop-color:#000000;stop-opacity:0.0000000;" /></linearGradient><linearGradient
     id="linearGradient888"><stop
       id="stop878"
       offset="0.0000000"
       style="stop-color:#3d3d3d;stop-opacity:0.51666665;" /><stop
       id="stop892"
       offset="1.0000000"
       style="stop-color:#ffffff;stop-opacity:0.55833334;" /></linearGradient><linearGradient
     id="linearGradient672"><stop
       id="stop673"
       offset="0"
       style="stop-color:#d9dfd5;stop-opacity:1;" /><stop
       id="stop674"
       offset="1"
       style="stop-color:#ffffff;stop-opacity:1;" /></linearGradient><linearGradient
     id="linearGradient616"><stop
       id="stop617"
       offset="0.0000000"
       style="stop-color:#bfa673;stop-opacity:1.0000000;" /><stop
       id="stop618"
       offset="1.0000000"
       style="stop-color:#f0f0f0;stop-opacity:1.0000000;" /></linearGradient><linearGradient
     gradientTransform="scale(0.730143,1.369594)"
     gradientUnits="objectBoundingBox"
     y2="1.50409484"
     x2="0.91678953"
     y1="0.18983676"
     x1="0.41926342"
     id="linearGradient619"
     xlink:href="#linearGradient616" /><radialGradient
     gradientTransform="scale(1.257427,0.795275)"
     fy="144.164276"
     fx="83.7103271"
     r="305.230225"
     cy="144.164276"
     cx="83.7103271"
     id="radialGradient620"
     xlink:href="#linearGradient616" /><linearGradient
     gradientTransform="scale(1.084598,0.922001)"
     gradientUnits="userSpaceOnUse"
     y2="20.212824"
     x2="-1.1123854"
     y1="44.179695"
     x1="36.107239"
     id="linearGradient621"
     xlink:href="#linearGradient616" /><radialGradient
     fy="0.62251657"
     fx="0.33214286"
     r="0.32185856"
     cy="0.62251657"
     cx="0.33214286"
     id="radialGradient632"
     xlink:href="#linearGradient898" /><radialGradient
     fy="0.83534139"
     fx="1.1638796"
     r="1.3709123"
     cy="0.83534139"
     cx="1.1638796"
     id="radialGradient634"
     xlink:href="#linearGradient616" /><linearGradient
     y2="55.0553169"
     x2="56.4882126"
     y1="18.9490681"
     x1="15.6870308"
     id="linearGradient676"
     xlink:href="#linearGradient672" /><linearGradient
     gradientUnits="userSpaceOnUse"
     y2="18.5065861"
     x2="36.5803947"
     y1="35.1880341"
     x1="40.1527023"
     id="linearGradient740"
     xlink:href="#linearGradient672" /><linearGradient
     spreadMethod="pad"
     gradientTransform="scale(0.901997,1.108651)"
     gradientUnits="objectBoundingBox"
     y2="0.49327964"
     x2="-0.36504364"
     y1="0.51442021"
     x1="1.0816108"
     id="linearGradient878"
     xlink:href="#linearGradient888" /><linearGradient
     gradientUnits="objectBoundingBox"
     spreadMethod="reflect"
     y2="0.54685849"
     x2="0.51481462"
     y1="0.0077967593"
     x1="0.51481462"
     id="linearGradient913"
     xlink:href="#linearGradient888" /><defs
     id="defs907"><linearGradient
       id="linearGradient622"><stop
         id="stop623"
         offset="0"
         style="stop-color:#f8e29d;stop-opacity:0.4471;" /><stop
         id="stop624"
         offset="1"
         style="stop-color:#272d2d;stop-opacity:0.4784;" /></linearGradient><linearGradient
       id="linearGradient617"><stop
         id="stop918"
         offset="0"
         style="stop-color:#ffffff;stop-opacity:1;" /><stop
         id="stop619"
         offset="1"
         style="stop-color:#000000;stop-opacity:1;" /></linearGradient><linearGradient
       id="linearGradient613"><stop
         id="stop614"
         offset="0"
         style="stop-color:#ffffff;stop-opacity:0.6235;" /><stop
         id="stop615"
         offset="1"
         style="stop-color:#5d6567;stop-opacity:1;" /></linearGradient><linearGradient
       id="linearGradient607"><stop
         id="stop608"
         offset="0"
         style="stop-color:#d7d5d5;stop-opacity:1;" /><stop
         id="stop609"
         offset="1"
         style="stop-color:#000000;stop-opacity:0.4039;" /></linearGradient><radialGradient
       id="radialGradient610"
       xlink:href="#linearGradient622" /><linearGradient
       gradientTransform="matrix(1,-1.054768e-5,-2.212897e-8,1,6.882726e-9,-4.703892e-9)"
       y2="1.20107734"
       x2="1.07717049"
       y1="-0.2180935"
       x1="-0.26619732"
       id="linearGradient612"
       xlink:href="#linearGradient617" /><radialGradient
       gradientTransform="matrix(1.000001,1.020568e-7,2.121713e-5,0.999999,3.963748e-8,-1.000117e-8)"
       fy="1.1736089"
       fx="0.99938017"
       r="1.10986722"
       cy="1.1736089"
       cx="0.99938017"
       id="radialGradient616"
       xlink:href="#linearGradient613" /><linearGradient
       y2="0.7890625"
       x2="-0.96774197"
       y1="0.90625"
       x1="-0.42741936"
       id="linearGradient943"
       xlink:href="#linearGradient617" /><linearGradient
       gradientUnits="objectBoundingBox"
       gradientTransform="matrix(0.999728,-1.063720e-5,-1.320046e-7,1.000272,-3.469447e-16,-1.358505e-16)"
       y2="0.12942465"
       x2="0.33747798"
       y1="1.1733478"
       x1="1.2993300"
       id="linearGradient626"
       xlink:href="#linearGradient617" /><linearGradient
       gradientTransform="matrix(1,2.268336e-6,-1.975559e-5,1,5.713033e-8,3.856326e-8)"
       y2="-7.41785839e-2"
       x2="-0.73790783"
       y1="1.05203915"
       x1="1.22036803"
       id="linearGradient687"
       xlink:href="#linearGradient607" /><linearGradient
       id="linearGradient742"
       xlink:href="#linearGradient622" /></defs><sodipodi:namedview
     inkscape:window-y="96"
     inkscape:window-x="311"
     inkscape:window-height="497"
     inkscape:window-width="640"
     inkscape:cy="18.133934"
     inkscape:cx="24.865590"
     inkscape:zoom="5.3769580"
     id="namedview952" /><sodipodi:namedview
     inkscape:window-y="341"
     inkscape:window-x="613"
     inkscape:window-height="501"
     inkscape:window-width="719"
     inkscape:cy="9.2081570"
     inkscape:cx="23.878391"
     inkscape:zoom="4.6552648"
     id="namedview1083" /><defs
     id="defs964"><linearGradient
       id="linearGradient1068"><stop
         id="stop1070"
         style="stop-color:#d2d2d2;stop-opacity:1.0000000;"
         offset="0.0000000" /><stop
         id="stop1069"
         style="stop-color:#ffffff;stop-opacity:1.0000000;"
         offset="1.0000000" /></linearGradient><linearGradient
       xlink:href="#linearGradient1287"
       spreadMethod="pad"
       gradientUnits="objectBoundingBox"
       y2="0.50000000"
       x2="1.0000000"
       y1="0.50000000"
       x1="0.0000000"
       id="linearGradient1065" /><linearGradient
       id="linearGradient1060"><stop
         id="stop1063"
         style="stop-color:#ffffff;stop-opacity:1.0000000;"
         offset="0.0000000" /><stop
         id="stop1062"
         style="stop-color:#acabaa;stop-opacity:0.99607843;"
         offset="0.50000000" /><stop
         id="stop1061"
         style="stop-color:#5a5856;stop-opacity:0.99607843;"
         offset="1.0000000" /></linearGradient><linearGradient
       id="linearGradient645"><stop
         id="stop646"
         offset="0.0000000"
         style="stop-color:#aca597;stop-opacity:1.0000000;" /><stop
         id="stop647"
         offset="1.0000000"
         style="stop-color:#ffffff;stop-opacity:1.0000000;" /></linearGradient><linearGradient
       id="linearGradient593"><stop
         id="stop594"
         offset="0.0000000"
         style="stop-color:#478acf;stop-opacity:1.0000000;" /><stop
         id="stop595"
         offset="1.0000000"
         style="stop-color:#65c6f7;stop-opacity:1.0000000;" /></linearGradient><linearGradient
       id="linearGradient574"><stop
         id="stop575"
         offset="0"
         style="stop-color:#85ad92;stop-opacity:1.0000;" /><stop
         id="stop576"
         offset="1"
         style="stop-color:#559db2;stop-opacity:0.7725;" /></linearGradient><linearGradient
       id="linearGradient570"><stop
         id="stop571"
         offset="0.0000000"
         style="stop-color:#000000;stop-opacity:1.0000000;" /><stop
         id="stop572"
         offset="1.0000000"
         style="stop-color:#ffffff;stop-opacity:0.0000000;" /></linearGradient><linearGradient
       y2="-0.033485886"
       x2="0.66039586"
       y1="-0.78747839"
       x1="0.61777318"
       xlink:href="#linearGradient1060"
       id="linearGradient573" /><linearGradient
       y2="0.41592926"
       x2="0.49839231"
       y1="0.99115056"
       x1="1.0192926"
       xlink:href="#linearGradient1068"
       id="linearGradient1213" /><radialGradient
       fy="0.62068933"
       fx="0.78290993"
       r="0.83833146"
       cy="0.62068933"
       cx="0.78290993"
       xlink:href="#linearGradient570"
       id="radialGradient581" /><linearGradient
       y2="0.42466211"
       x2="0.85338652"
       y1="0.85896289"
       x1="1.0723866"
       xlink:href="#linearGradient1068"
       id="linearGradient580" /><linearGradient
       y2="0.11342888"
       x2="0.084990859"
       y1="0.028423717"
       x1="-0.12911281"
       id="linearGradient901"
       xlink:href="#linearGradient1060" /><linearGradient
       y2="0.93055558"
       x2="0.55442178"
       y1="0.19907406"
       x1="0.25850341"
       id="linearGradient902"
       xlink:href="#linearGradient570" /><linearGradient
       y2="1.8125000"
       x2="0.43370786"
       y1="-1.6875000"
       x1="0.14831461"
       id="linearGradient916"
       xlink:href="#linearGradient1068" /><defs
       id="defs890"><linearGradient
         xlink:href="#linearGradient1065"
         spreadMethod="pad"
         gradientUnits="objectBoundingBox"
         y2="0.50000000"
         x2="1.0000000"
         y1="0.50000000"
         x1="0.0000000"
         id="linearGradient922" /><linearGradient
         xlink:href="#linearGradient1060"
         spreadMethod="pad"
         gradientUnits="objectBoundingBox"
         y2="0.50000000"
         x2="1.0000000"
         y1="0.50000000"
         x1="0.0000000"
         id="linearGradient908" /><linearGradient
         xlink:href="#linearGradient1068"
         spreadMethod="pad"
         gradientUnits="objectBoundingBox"
         y2="0.50000000"
         x2="1.0000000"
         y1="0.50000000"
         x1="0.0000000"
         id="linearGradient894" /><linearGradient
         y2="1.1908396"
         x2="0.61348313"
         y1="-0.33587787"
         x1="0.59550560"
         id="linearGradient897"
         xlink:href="#linearGradient894" /><linearGradient
         y2="0.21800731"
         x2="0.46738392"
         y1="1.0278323"
         x1="0.96449792"
         id="linearGradient1119"
         xlink:href="#linearGradient894" /><linearGradient
         y2="0.49180329"
         x2="0.33258426"
         y1="2.3770492"
         x1="0.57078654"
         id="linearGradient907"
         xlink:href="#linearGradient908" /><linearGradient
         y2="0.98380566"
         x2="0.46547315"
         y1="0.15384616"
         x1="0.47058824"
         id="linearGradient921"
         xlink:href="#linearGradient922" /><linearGradient
         id="linearGradient948"
         xlink:href="#linearGradient922" /><defs
         id="defs987"><linearGradient
           xlink:href="#linearGradient908"
           spreadMethod="pad"
           gradientUnits="objectBoundingBox"
           y2="0.50000000"
           x2="1.0000000"
           y1="0.50000000"
           x1="0.0000000"
           id="linearGradient855" /><linearGradient
           xlink:href="#linearGradient922"
           spreadMethod="pad"
           gradientUnits="objectBoundingBox"
           y2="0.50000000"
           x2="1.0000000"
           y1="0.50000000"
           x1="0.0000000"
           id="linearGradient1188" /><linearGradient
           id="linearGradient831"><stop
             id="stop832"
             offset="0.0000000"
             style="stop-color:#94897f;stop-opacity:1.0000000;" /><stop
             id="stop833"
             offset="1.0000000"
             style="stop-color:#fff5fe;stop-opacity:1.0000000;" /></linearGradient><linearGradient
           spreadMethod="pad"
           gradientUnits="objectBoundingBox"
           y2="0.93522269"
           x2="-0.29317269"
           y1="0.34817815"
           x1="0.87550199"
           id="linearGradient834"
           xlink:href="#linearGradient1188" /><radialGradient
           spreadMethod="pad"
           cx="0.59090906"
           cy="0.28125"
           fx="0.59090906"
           fy="0.28125"
           r="0.55628061"
           id="radialGradient835"
           xlink:href="#linearGradient1188" /><linearGradient
           y2="0.70850199"
           x2="0.49608356"
           y1="0.76923078"
           x1="0.12793733"
           id="linearGradient893"
           xlink:href="#linearGradient1188" /><linearGradient
           y2="-0.35944700"
           x2="0.053932585"
           y1="1.0276498"
           x1="0.035955057"
           id="linearGradient625"
           xlink:href="#linearGradient855" /><linearGradient
           y2="0.96356273"
           x2="-0.15547703"
           y1="0.12550607"
           x1="1.2826855"
           id="linearGradient627"
           xlink:href="#linearGradient1188" /><radialGradient
           gradientTransform="scale(0.877379,1.139758)"
           cx="0.36789617"
           cy="0.4866707"
           fx="0.36789617"
           fy="0.4866707"
           r="1.59822237"
           id="radialGradient628"
           xlink:href="#linearGradient1188" /><linearGradient
           y2="0.73279351"
           x2="0.41909814"
           y1="0.14979757"
           x1="0.76923078"
           id="linearGradient628"
           xlink:href="#linearGradient1188" /></defs><sodipodi:namedview
         inkscape:window-y="25"
         inkscape:window-x="0"
         snaptogrid="false"
         showgrid="false"
         snaptoguides="false"
         showguides="false"
         inkscape:window-height="670"
         inkscape:window-width="1022"
         inkscape:cy="18.096983"
         inkscape:cx="50.051177"
         inkscape:zoom="3.4732669"
         inkscape:pageshadow="2"
         inkscape:pageopacity="0.0"
         borderopacity="1.0"
         bordercolor="#666666"
         pagecolor="#ffffff"
         id="namedview898"><sodipodi:guide
           id="guide879"
           position="28.705556"
           orientation="vertical" /><sodipodi:guide
           id="guide880"
           position="30.130655"
           orientation="horizontal" /></sodipodi:namedview></defs><sodipodi:namedview
       inkscape:window-y="169"
       inkscape:window-x="138"
       snaptoguides="true"
       showguides="true"
       inkscape:window-height="499"
       inkscape:window-width="640"
       inkscape:cy="14.368596"
       inkscape:cx="24.541029"
       inkscape:zoom="1.3368738"
       inkscape:pageshadow="2"
       inkscape:pageopacity="0.0"
       borderopacity="1.0"
       bordercolor="#666666"
       pagecolor="#ffffff"
       id="namedview1003" /><linearGradient
       y2="0.51769912"
       x2="0.97391301"
       y1="0.46460176"
       x1="-0.66086954"
       id="linearGradient1304"
       xlink:href="#linearGradient1060" /><linearGradient
       y2="0.76767677"
       x2="0.16859123"
       y1="0.20707071"
       x1="0.018475750"
       id="linearGradient1322"
       xlink:href="#linearGradient1060" /><linearGradient
       y2="1.0796462"
       x2="1.1666667"
       y1="0.19911495"
       x1="-0.23333344"
       id="linearGradient909"
       xlink:href="#linearGradient1065" /><linearGradient
       y2="0.79166681"
       x2="0.67687070"
       y1="0.21759260"
       x1="0.25510204"
       id="linearGradient977"
       xlink:href="#linearGradient570" /><linearGradient
       y2="0.37610620"
       x2="0.093406595"
       y1="0.37610620"
       x1="-0.060439561"
       id="linearGradient1043"
       xlink:href="#linearGradient1065" /><linearGradient
       y2="0.56666666"
       x2="0.65226340"
       y1="0.083333336"
       x1="0.52674896"
       id="linearGradient925"
       xlink:href="#linearGradient1065" /></defs></defs><linearGradient
   y2="-0.89062488"
   x2="-0.88709682"
   y1="0.94531238"
   x1="0.94354844"
   id="linearGradient844"
   xlink:href="#linearGradient920" /><linearGradient
   gradientTransform="scale(1.953449,0.511915)"
   gradientUnits="userSpaceOnUse"
   y2="34.593231"
   x2="15.138050"
   y1="48.439602"
   x1="12.437087"
   id="linearGradient842"
   xlink:href="#aigrd2" /><linearGradient
   gradientTransform="scale(1.953449,0.511915)"
   gradientUnits="userSpaceOnUse"
   y2="42.296951"
   x2="22.458817"
   y1="53.504665"
   x1="14.013419"
   id="linearGradient843"
   xlink:href="#aigrd2" /><linearGradient
   gradientUnits="userSpaceOnUse"
   y2="28.634627"
   x2="30.042664"
   y1="28.322721"
   x1="53.730463"
   id="linearGradient839"
   xlink:href="#aigrd2"
   gradientTransform="scale(1.0095924,0.9904988)" /><radialGradient
   gradientUnits="userSpaceOnUse"
   fy="11.7568"
   fx="8.1943"
   r="8.4446"
   cy="11.7568"
   cx="8.1943"
   id="aigrd3"><stop
     id="stop897"
     style="stop-color:#FFFFFF"
     offset="0" /><stop
     id="stop899"
     style="stop-color:#F0E1BD"
     offset="1" /></radialGradient><radialGradient
   fy="-10.060932"
   fx="30.500441"
   r="18.819009"
   cy="-10.060932"
   cx="30.500441"
   id="radialGradient847"
   xlink:href="#linearGradient848"
   gradientTransform="scale(1.6278683,0.6143003)"
   gradientUnits="userSpaceOnUse" /><linearGradient
   gradientTransform="scale(0.755985,1.322778)"
   gradientUnits="userSpaceOnUse"
   y2="32.670872"
   x2="-4.3753457"
   y1="37.199493"
   x1="40.772385"
   id="linearGradient896"
   xlink:href="#aigrd2" /><linearGradient
   id="linearGradient836"><stop
     id="stop837"
     offset="0.0000000"
     style="stop-color:#f3f3e7;stop-opacity:0.19166666;" /><stop
     id="stop838"
     offset="1.0000000"
     style="stop-color:#b4b4b4;stop-opacity:0.65833336;" /></linearGradient><linearGradient
   id="linearGradient892"><stop
     id="stop893"
     offset="0.0000000"
     style="stop-color:#bab5a8;stop-opacity:1.0000000;" /><stop
     id="stop894"
     offset="1.0000000"
     style="stop-color:#7e7f7e;stop-opacity:1.0000000;" /></linearGradient><linearGradient
   id="linearGradient848"><stop
     id="stop849"
     offset="0.0000000"
     style="stop-color:#000000;stop-opacity:1.0000000;" /><stop
     id="stop850"
     offset="1.0000000"
     style="stop-color:#ffffff;stop-opacity:0.12171052;" /></linearGradient><radialGradient
   gradientUnits="userSpaceOnUse"
   fy="6.8301"
   fx="13.2129"
   r="8.4458"
   cy="6.8301"
   cx="13.2129"
   id="radialGradient862"><stop
     id="stop863"
     style="stop-color:#dfc787;stop-opacity:1.0000000;"
     offset="0.0000000" /><stop
     id="stop864"
     style="stop-color:#b7a26b;stop-opacity:1.0000000;"
     offset="1.0000000" /></radialGradient><linearGradient
   id="linearGradient920"><stop
     id="stop922"
     style="stop-color:#bfa673;stop-opacity:1.0000000;"
     offset="0.0000000" /><stop
     id="stop921"
     style="stop-color:#f0f0f0;stop-opacity:1.0000000;"
     offset="1.0000000" /></linearGradient><radialGradient
   gradientUnits="userSpaceOnUse"
   fy="6.8301"
   fx="13.2129"
   r="8.4458"
   cy="6.8301"
   cx="13.2129"
   id="aigrd2"><stop
     id="stop888"
     style="stop-color:#f3daa6;stop-opacity:1.0000000;"
     offset="0.0000000" /><stop
     id="stop890"
     style="stop-color:#bfa673;stop-opacity:1.0000000;"
     offset="1.0000000" /></radialGradient><radialGradient
   inkscape:collect="always"
   xlink:href="#aigrd5"
   id="radialGradient3936"
   gradientUnits="userSpaceOnUse"
   gradientTransform="matrix(1.1927121,0,0,1.1927121,-2.4007012,-1.6363185)"
   cx="18.585899"
   cy="12.9375"
   fx="18.585899"
   fy="12.9375"
   r="20.5907" /></defs><sodipodi:namedview
   inkscape:window-height="627"
   inkscape:window-width="872"
   inkscape:pageshadow="2"
   inkscape:pageopacity="0.0"
   borderopacity="1.0"
   bordercolor="#666666"
   pagecolor="#ffffff"
   id="base"
   inkscape:zoom="3.7042068"
   inkscape:cx="4.2872666"
   inkscape:cy="3.7126413"
   inkscape:window-x="125"
   inkscape:window-y="262"
   inkscape:current-layer="svg2" />
	
	<g
   id="g3912"
   transform="matrix(0.7840377,0,0,0.7840377,-2.4357978,-1.958871)"><g
     transform="translate(-21.88544,39.19021)"
     style="stroke:#000000"
     id="g3914"><path
       id="path907"
       d="M 24,24 L 0,24 L 0,0 L 24,0 L 24,24 z "
       style="fill:none;stroke:none" /></g><path
     sodipodi:nodetypes="cccccccccccc"
     id="path1152"
     d="M 28.205272,15.682664 L 5.8357776,19.717168 L 6.2993944,49.933634 C 11.138402,53.039187 18.183798,55.787464 28.784794,57.184457 C 34.577055,55.719972 39.069392,53.398964 43.70745,50.949313 L 55.703527,50.949313 C 56.22672,50.949313 56.659734,50.549711 56.659734,50.046488 L 56.659734,38.037003 C 56.659734,37.533782 56.22672,37.134178 55.703527,37.134178 L 51.969324,36.852487 L 52.516163,21.353541 C 46.178085,18.775442 37.716156,16.043201 28.205272,15.682664 z "
     style="fill-opacity:0.67479709;fill-rule:evenodd;stroke-width:0.64973855" /><path
     transform="translate(-13.52051,55.24757)"
     sodipodi:nodetypes="ccccc"
     id="path1153"
     d="M 72.414177,-5.1262381 C 70.057814,-1.1797111 53.002734,4.4570149 42.530354,3.5067369 C 32.057973,2.5564619 27.1319,-3.3407471 29.488263,-7.2872731 C 31.844627,-11.233798 42.256363,-13.66554 52.72874,-12.715263 C 63.201122,-11.764986 74.770543,-9.0727641 72.414177,-5.1262381 z "
     style="fill:url(#radialGradient847);fill-opacity:0.75;fill-rule:evenodd;stroke-width:3pt" /><path
     transform="matrix(0.973859,0,0,0.874157,1.777489,5.64418)"
     sodipodi:nodetypes="ccccccc"
     id="path1155"
     d="M 4.9665358,16.812289 L 5.4246414,49.137025 C 10.11274,52.457307 16.92625,55.380584 27.196651,56.874171 C 35.764555,54.483569 41.003878,50.110048 49.098883,46.059821 L 50.197443,18.555196 C 44.05702,15.798839 35.86578,12.903106 26.651498,12.51764 L 4.9665358,16.812289 z "
     style="fill:url(#linearGradient839);fill-rule:evenodd;stroke:#000000;stroke-width:1.00253367;stroke-linejoin:round;stroke-dasharray:none" /><path
     transform="matrix(0.973859,0,0,0.874157,1.777489,5.64418)"
     sodipodi:nodetypes="ccccc"
     id="path1156"
     d="M 5.838521,18.506042 L 6.5837021,49.072215 L 26.06956,55.197034 L 26.807894,25.393845 L 5.838521,18.506042 z "
     style="fill:url(#linearGradient896);fill-opacity:0.75;fill-rule:evenodd;stroke-width:1pt" /><path
     transform="matrix(0.973859,0,0,0.874157,1.777489,5.64418)"
     sodipodi:nodetypes="ccccc"
     id="path1157"
     d="M 27.627245,13.292238 L 5.327643,18.056903 L 27.030096,24.439182 L 48.821446,18.529327 L 27.627245,13.292238 z "
     style="fill:url(#linearGradient843);fill-opacity:0.75;fill-rule:evenodd;stroke:none;stroke-width:1pt;stroke-opacity:1" /><path
     sodipodi:nodetypes="ccccc"
     id="path987"
     d="M 28.922651,16.797459 L 7.4320862,20.964368 L 17.748855,23.51118 L 37.433975,18.665876 L 28.922651,16.797459 z "
     style="fill:url(#linearGradient842);fill-opacity:0.75;fill-rule:evenodd;stroke:none;stroke-width:0;stroke-dasharray:none;stroke-opacity:1" /><g
     transform="translate(35.19993,39.39595)"
     id="g2092"><rect
       y="-1.368403"
       x="-7.4015136"
       ry="1.0061111"
       height="11.775432"
       width="27.857307"
       id="rect1915"
       style="fill:#ffffff;fill-rule:evenodd;stroke:#000000;stroke-width:0.96504974" /><rect
       y="-0.39848578"
       x="-6.3800988"
       ry="0.88900727"
       height="10.404858"
       width="26.499226"
       id="rect1916"
       style="fill:#3b629a;fill-rule:evenodd;stroke-width:0.9087007" /><path
       id="path998"
       d="M 7.8812809,1.2317209 L 12.651789,1.2317209 L 12.651789,2.4524239 L 9.7709299,5.4504709 L 12.651789,5.4504709 L 12.651789,6.7004709 L 7.7592109,6.7004709 L 7.7592109,5.4797679 L 10.64007,2.4817209 L 7.8812809,2.4817209 L 7.8812809,1.2317209 z M 4.7123359,5.7727369 C 4.4714509,6.0917469 4.2061509,6.3261219 3.9164379,6.4758619 C 3.6267239,6.6256019 3.2914379,6.7004709 2.9105779,6.7004709 C 2.2432609,6.7004709 1.6915029,6.4384269 1.2553049,5.9143389 C 0.81910693,5.3869949 0.60100793,4.7164219 0.60100793,3.9026199 C 0.60100793,3.0855619 0.81910693,2.4166169 1.2553049,1.8957839 C 1.6915029,1.3716949 2.2432609,1.1096509 2.9105779,1.1096509 C 3.2914379,1.1096509 3.6267239,1.1845209 3.9164379,1.3342599 C 4.2061509,1.4839999 4.4714509,1.7200029 4.7123359,2.0422679 L 4.7123359,1.2317209 L 6.4701489,1.2317209 L 6.4701489,6.1487139 C 6.4701489,7.0276199 6.1918279,7.6981929 5.6351879,8.1604319 C 5.0818019,8.6259269 4.2777659,8.8586739 3.2230779,8.8586739 C 2.8812809,8.8586739 2.5508779,8.8326329 2.2318669,8.7805489 C 1.9128569,8.7284659 1.5922189,8.6487139 1.2699529,8.5412919 L 1.2699529,7.1789869 C 1.5759429,7.3547679 1.8754219,7.4849769 2.1683909,7.5696119 C 2.4613589,7.6575029 2.7559559,7.7014479 3.0521799,7.7014479 C 3.6250959,7.7014479 4.0450179,7.5761219 4.3119449,7.3254709 C 4.5788719,7.0748199 4.7123359,6.6825679 4.7123359,6.1487139 L 4.7123359,5.7727369 z M 3.5599919,2.3694169 C 3.1986639,2.3694169 2.9170889,2.5028799 2.7152659,2.7698069 C 2.5134429,3.0367339 2.4125309,3.4143389 2.4125309,3.9026199 C 2.4125309,4.4039219 2.5101879,4.7847809 2.7054999,5.0451979 C 2.9008129,5.3023589 3.1856429,5.4309399 3.5599919,5.4309399 C 3.9245759,5.4309399 4.2077789,5.2974769 4.4096019,5.0305489 C 4.6114249,4.7636219 4.7123359,4.3876459 4.7123359,3.9026199 C 4.7123359,3.4143389 4.6114249,3.0367339 4.4096019,2.7698069 C 4.2077789,2.5028799 3.9245759,2.3694169 3.5599919,2.3694169 z "
       style="font-size:10px;font-weight:bold;fill:#ffffff;stroke-width:1pt;font-family:Bitstream Vera Sans" /></g></g><g
   id="Layer_x0020_4"
   style="fill-rule:nonzero;clip-rule:nonzero;stroke:#000000;stroke-miterlimit:4;">
		<path
   style="fill:none;stroke:none;"
   d="M44.572,48H0V0h44.572v48z"
   id="path44" />
	</g>
	
<g
   id="g3929"
   transform="translate(-11.878387,-7.9909151)"><path
     style="opacity:0.3;fill-rule:nonzero;stroke:none;stroke-miterlimit:4"
     d="M 30.006479,15.366985 C 27.901343,13.261848 14.329472,9.6312328 19.398498,18.316562 C 21.964022,22.714092 15.011702,27.149788 18.80572,32.901046 C 23.37977,39.833089 36.205004,32.635071 29.120294,26.141947 C 24.140721,21.576244 32.110423,17.470929 30.005287,15.366985 L 30.006479,15.366985 z "
     id="path47" /><path
     style="fill:url(#radialGradient3936);fill-opacity:1;fill-rule:nonzero;stroke:#000000;stroke-width:0.51787561;stroke-miterlimit:4"
     d="M 29.219289,14.252992 C 27.115345,12.149048 13.28227,9.1255228 18.350104,17.810853 C 20.915627,22.208382 13.963308,26.644078 17.757326,32.394143 C 22.331377,39.327378 35.15661,32.131746 28.073093,25.637429 C 23.092327,21.071727 31.323234,16.358129 29.218097,14.254185 L 29.219289,14.252992 z "
     id="path54" /><path
     style="fill-rule:nonzero;stroke:none;stroke-miterlimit:4"
     d="M 34.717692,18.605199 L 33.546448,18.605199 L 29.555634,14.613191 C 29.611692,14.528508 29.645088,14.427128 29.645088,14.317399 C 29.645088,14.021606 29.405353,13.78187 29.108367,13.78187 C 28.998638,13.78187 28.897257,13.815266 28.813767,13.871325 L 24.712031,9.7683947 L 24.712031,8.491 L 24.604686,8.491 L 23.281969,8.491 L 23.281969,9.9210618 L 24.560555,9.9210618 L 28.662293,14.023991 C 28.606235,14.108674 28.572839,14.208861 28.572839,14.318591 C 28.572839,14.615577 28.813767,14.855312 29.108367,14.855312 C 29.218097,14.855312 29.319477,14.821916 29.404159,14.765858 L 33.396167,18.756673 L 33.396167,20.03526 L 34.825036,20.03526 L 34.825036,18.605199 L 34.717692,18.605199 L 34.717692,18.605199 z M 24.496149,9.7063736 C 24.336326,9.7063736 23.65648,9.7063736 23.495464,9.7063736 C 23.495464,9.5453575 23.495464,8.8667043 23.495464,8.7056882 C 23.65648,8.7056882 24.336326,8.7056882 24.496149,8.7056882 C 24.496149,8.8667043 24.496149,9.5465502 24.496149,9.7063736 z M 34.607963,19.81938 C 34.448139,19.81938 33.770678,19.81938 33.609663,19.81938 C 33.609663,19.659556 33.609663,18.97971 33.609663,18.818694 C 33.770678,18.818694 34.448139,18.818694 34.607963,18.818694 C 34.607963,18.97971 34.607963,19.659556 34.607963,19.81938 z "
     id="path56" /><path
     style="fill-rule:nonzero;stroke:none;stroke-miterlimit:4"
     d="M 20.586439,11.259285 L 20.586439,9.829223 L 20.479095,9.829223 L 19.156377,9.829223 L 19.156377,11.10781 L 17.832467,12.43172 C 17.747784,12.375663 17.646404,12.342267 17.537867,12.342267 C 17.242075,12.342267 17.001146,12.583196 17.001146,12.878988 C 17.001146,12.987524 17.03335,13.088905 17.0906,13.173588 L 15.690356,14.573832 L 14.412962,14.573832 L 14.412962,16.003893 L 15.843023,16.003893 L 15.843023,14.726499 L 17.243267,13.326255 C 17.326757,13.382313 17.428137,13.415708 17.537867,13.415708 C 17.83366,13.415708 18.074587,13.17478 18.074587,12.88018 C 18.074587,12.770451 18.041191,12.670263 17.985134,12.584388 L 19.309045,11.259285 L 20.587632,11.259285 L 20.586439,11.259285 z M 19.371066,10.043911 C 19.532081,10.043911 20.210735,10.043911 20.371751,10.043911 C 20.371751,10.203735 20.371751,10.88358 20.371751,11.044596 C 20.210735,11.044596 19.532081,11.044596 19.371066,11.044596 C 19.371066,10.88358 19.371066,10.203735 19.371066,10.043911 z M 14.626457,15.789205 C 14.626457,15.626996 14.626457,14.949536 14.626457,14.78852 C 14.78151,14.78852 15.417225,14.78852 15.604481,14.78852 L 15.628335,14.811181 C 15.628335,14.999629 15.628335,15.634153 15.628335,15.789205 C 15.467319,15.789205 14.788666,15.789205 14.627649,15.789205 L 14.626457,15.789205 z "
     id="path58" /><path
     id="path2187"
     d="M 23.893173,37.688594 L 22.72193,37.688594 L 18.731115,33.696586 C 18.787172,33.611903 18.820568,33.510523 18.820568,33.400793 C 18.820568,33.105001 18.580833,32.865265 18.283848,32.865265 C 18.174118,32.865265 18.072738,32.898662 17.989248,32.954719 L 13.887511,28.851789 L 13.887511,27.574395 L 13.780167,27.574395 L 12.457449,27.574395 L 12.457449,29.004457 L 13.736037,29.004457 L 17.837774,33.107386 C 17.781715,33.192068 17.748319,33.292257 17.748319,33.401986 C 17.748319,33.698971 17.989248,33.938706 18.283848,33.938706 C 18.393577,33.938706 18.494957,33.90531 18.57964,33.849253 L 22.571648,37.840068 L 22.571648,39.118656 L 24.000517,39.118656 L 24.000517,37.688594 L 23.893173,37.688594 L 23.893173,37.688594 z M 13.67163,28.789768 C 13.511807,28.789768 12.831961,28.789768 12.670944,28.789768 C 12.670944,28.628753 12.670944,27.950099 12.670944,27.789083 C 12.831961,27.789083 13.511807,27.789083 13.67163,27.789083 C 13.67163,27.950099 13.67163,28.629945 13.67163,28.789768 z M 23.783443,38.902774 C 23.62362,38.902774 22.946159,38.902774 22.785143,38.902774 C 22.785143,38.74295 22.785143,38.063105 22.785143,37.902089 C 22.946159,37.902089 23.62362,37.902089 23.783443,37.902089 C 23.783443,38.063105 23.783443,38.74295 23.783443,38.902774 z "
     style="fill-rule:nonzero;stroke:none;stroke-miterlimit:4" /></g></svg>