<?xml version="1.0" encoding="UTF-8" standalone="no"?>
<!-- Generator: Adobe Illustrator 9.0, SVG Export Plug-In  -->
<svg
   xmlns:dc="http://purl.org/dc/elements/1.1/"
   xmlns:cc="http://web.resource.org/cc/"
   xmlns:rdf="http://www.w3.org/1999/02/22-rdf-syntax-ns#"
   xmlns:svg="http://www.w3.org/2000/svg"
   xmlns="http://www.w3.org/2000/svg"
   xmlns:xlink="http://www.w3.org/1999/xlink"
   xmlns:sodipodi="http://sodipodi.sourceforge.net/DTD/sodipodi-0.dtd"
   xmlns:inkscape="http://www.inkscape.org/namespaces/inkscape"
   width="24pt"
   height="24pt"
   viewBox="0 0 24 24"
   xml:space="preserve"
   id="svg2"
   sodipodi:version="0.32"
   inkscape:version="0.44.1"
   sodipodi:docname="stock_import.svg"
   sodipodi:docbase="/home/ihuhnix/.icons/amica/scalable/stock"><metadata
   id="metadata66"><rdf:RDF><cc:Work
       rdf:about=""><dc:format>image/svg+xml</dc:format><dc:type
         rdf:resource="http://purl.org/dc/dcmitype/StillImage" /></cc:Work></rdf:RDF></metadata><defs
   id="defs64">
    
    
    
    <linearGradient
   y2="142.8498"
   x2="111.7876"
   y1="230.2852"
   x1="111.7876"
   gradientUnits="userSpaceOnUse"
   id="XMLID_3_"
   gradientTransform="matrix(1.5709466,0,0,1.5709466,-72.112385,-74.103341)">
      <stop
   id="stop3166"
   style="stop-color:#FFFFFF"
   offset="0" />
      <stop
   id="stop3167"
   style="stop-color:#FAFAFA"
   offset="0.1019" />
      <stop
   id="stop3168"
   style="stop-color:#EBEBEB"
   offset="0.2256" />
      <stop
   id="stop3169"
   style="stop-color:#D2D2D2"
   offset="0.3606" />
      <stop
   id="stop3170"
   style="stop-color:#B0B0B0"
   offset="0.5037" />
      <stop
   id="stop3171"
   style="stop-color:#848484"
   offset="0.6532" />
      <stop
   id="stop3172"
   style="stop-color:#4E4E4E"
   offset="0.8081" />
      <stop
   id="stop3173"
   style="stop-color:#0F0F0F"
   offset="0.9646" />
      <stop
   id="stop3174"
   style="stop-color:#000000"
   offset="1" />
      
      
      
    </linearGradient>
    
    <radialGradient
   gradientUnits="userSpaceOnUse"
   gradientTransform="matrix(2.1333454,-0.9771287,0.8197199,1.7897794,-1234.4818,-1464.9697)"
   fy="994.0244"
   fx="223.2383"
   r="45.424"
   cy="994.0244"
   cx="223.2383"
   id="XMLID_4_">
      <stop
   id="stop3180"
   style="stop-color:#FFFFFF"
   offset="0" />
      <stop
   id="stop3181"
   style="stop-color:#000000"
   offset="1" />
      
      
      
    </radialGradient>
    
    
    <linearGradient
   y2="105.7555"
   x2="141.1622"
   y1="96.0942"
   x1="131.501"
   gradientUnits="userSpaceOnUse"
   id="XMLID_5_"
   gradientTransform="matrix(1.5709466,0,0,1.5709466,-72.112385,-74.103341)">
      <stop
   id="stop3188"
   style="stop-color:#FFFFFF"
   offset="0" />
      <stop
   id="stop3189"
   style="stop-color:#000000"
   offset="1" />
      
      
      
    </linearGradient>
    
    
    <linearGradient
   y2="98.6406"
   x2="154.4531"
   y1="98.6406"
   x1="139.9121"
   gradientUnits="userSpaceOnUse"
   id="XMLID_6_"
   gradientTransform="matrix(1.5709466,0,0,1.5709466,-72.112385,-74.103341)">
      <stop
   id="stop3196"
   style="stop-color:#BBBBBB"
   offset="0" />
      <stop
   id="stop3197"
   style="stop-color:#888888"
   offset="1" />
      
      
      
    </linearGradient>
    
    <linearGradient
   y2="93.0645"
   x2="166.4863"
   y1="93.0645"
   x1="145.959"
   gradientUnits="userSpaceOnUse"
   id="XMLID_7_"
   gradientTransform="matrix(1.5709466,0,0,1.5709466,-72.112385,-74.103341)">
      <stop
   id="stop3203"
   style="stop-color:#FF9200"
   offset="0" />
      <stop
   id="stop3204"
   style="stop-color:#FF0000"
   offset="0.264" />
      <stop
   id="stop3205"
   style="stop-color:#FA0000"
   offset="0.3747" />
      <stop
   id="stop3206"
   style="stop-color:#EB0000"
   offset="0.5089" />
      <stop
   id="stop3207"
   style="stop-color:#D20000"
   offset="0.6554" />
      <stop
   id="stop3208"
   style="stop-color:#B00000"
   offset="0.8106" />
      <stop
   id="stop3209"
   style="stop-color:#850000"
   offset="0.9711" />
      <stop
   id="stop3210"
   style="stop-color:#7C0000"
   offset="1" />
      
      
      
      
      
    </linearGradient>
    
    <linearGradient
   y2="69.667"
   x2="171.8574"
   y1="69.667"
   x1="158.666"
   gradientUnits="userSpaceOnUse"
   id="XMLID_8_"
   gradientTransform="matrix(1.5709466,0,0,1.5709466,-72.112385,-74.103341)">
      <stop
   id="stop3218"
   style="stop-color:#FF6D00"
   offset="0" />
      <stop
   id="stop3219"
   style="stop-color:#FF3300"
   offset="1" />
      
      
      
    </linearGradient>
    
    <linearGradient
   y2="69.8423"
   x2="168.7969"
   y1="69.8423"
   x1="160.666"
   gradientUnits="userSpaceOnUse"
   id="XMLID_9_"
   gradientTransform="matrix(1.5709466,0,0,1.5709466,-72.112385,-74.103341)">
      <stop
   id="stop3225"
   style="stop-color:#FFAE00"
   offset="0" />
      <stop
   id="stop3226"
   style="stop-color:#FFF030"
   offset="1" />
      
      
      
    </linearGradient>
    
    <linearGradient
   y2="81.1758"
   x2="193.2949"
   y1="81.1758"
   x1="169.2207"
   gradientUnits="userSpaceOnUse"
   id="XMLID_10_"
   gradientTransform="matrix(1.5709466,0,0,1.5709466,-72.112385,-74.103341)">
      <stop
   id="stop3232"
   style="stop-color:#FF6D00"
   offset="0" />
      <stop
   id="stop3233"
   style="stop-color:#FF3300"
   offset="1" />
      
      
      
    </linearGradient>
    
    <linearGradient
   y2="80.1768"
   x2="189.1348"
   y1="80.1768"
   x1="171.3809"
   gradientUnits="userSpaceOnUse"
   id="XMLID_11_"
   gradientTransform="matrix(1.5709466,0,0,1.5709466,-72.112385,-74.103341)">
      <stop
   id="stop3239"
   style="stop-color:#FFAE00"
   offset="0" />
      <stop
   id="stop3240"
   style="stop-color:#FFF030"
   offset="1" />
      
      
      
    </linearGradient>
    
    <linearGradient
   y2="100.71"
   x2="194.9375"
   y1="100.71"
   x1="170.4492"
   gradientUnits="userSpaceOnUse"
   id="XMLID_12_"
   gradientTransform="matrix(1.5709466,0,0,1.5709466,-72.112385,-74.103341)">
      <stop
   id="stop3246"
   style="stop-color:#FF6D00"
   offset="0" />
      <stop
   id="stop3247"
   style="stop-color:#FF3300"
   offset="1" />
      
      
      
    </linearGradient>
    
    <linearGradient
   y2="99.7109"
   x2="191.0391"
   y1="99.7109"
   x1="172.3457"
   gradientUnits="userSpaceOnUse"
   id="XMLID_13_"
   gradientTransform="matrix(1.5709466,0,0,1.5709466,-72.112385,-74.103341)">
      <stop
   id="stop3253"
   style="stop-color:#FFAE00"
   offset="0" />
      <stop
   id="stop3254"
   style="stop-color:#FFF030"
   offset="1" />
      
      
      
    </linearGradient>
    
  <linearGradient
   inkscape:collect="always"
   xlink:href="#XMLID_3_"
   id="linearGradient2362"
   gradientUnits="userSpaceOnUse"
   gradientTransform="matrix(1.5709466,0,0,1.5709466,-68.341201,-138.0986)"
   x1="111.7876"
   y1="230.2852"
   x2="111.7876"
   y2="142.8498" /><radialGradient
   inkscape:collect="always"
   xlink:href="#XMLID_4_"
   id="radialGradient2364"
   gradientUnits="userSpaceOnUse"
   gradientTransform="matrix(2.1333454,-0.9771287,0.8197199,1.7897794,-1230.7106,-1528.965)"
   cx="223.2383"
   cy="994.0244"
   fx="223.2383"
   fy="994.0244"
   r="45.424" /><linearGradient
   inkscape:collect="always"
   xlink:href="#XMLID_5_"
   id="linearGradient2366"
   gradientUnits="userSpaceOnUse"
   gradientTransform="matrix(1.5709466,0,0,1.5709466,-68.341201,-138.0986)"
   x1="131.501"
   y1="96.0942"
   x2="141.1622"
   y2="105.7555" /><linearGradient
   inkscape:collect="always"
   xlink:href="#XMLID_6_"
   id="linearGradient2368"
   gradientUnits="userSpaceOnUse"
   gradientTransform="matrix(1.5709466,0,0,1.5709466,-68.341201,-138.0986)"
   x1="139.9121"
   y1="98.6406"
   x2="154.4531"
   y2="98.6406" /><linearGradient
   inkscape:collect="always"
   xlink:href="#XMLID_7_"
   id="linearGradient2370"
   gradientUnits="userSpaceOnUse"
   gradientTransform="matrix(1.5709466,0,0,1.5709466,-68.341201,-138.0986)"
   x1="145.959"
   y1="93.0645"
   x2="166.4863"
   y2="93.0645" /><linearGradient
   inkscape:collect="always"
   xlink:href="#XMLID_8_"
   id="linearGradient2372"
   gradientUnits="userSpaceOnUse"
   gradientTransform="matrix(1.5709466,0,0,1.5709466,-68.341201,-138.0986)"
   x1="158.666"
   y1="69.667"
   x2="171.8574"
   y2="69.667" /><linearGradient
   inkscape:collect="always"
   xlink:href="#XMLID_9_"
   id="linearGradient2374"
   gradientUnits="userSpaceOnUse"
   gradientTransform="matrix(1.5709466,0,0,1.5709466,-68.341201,-138.0986)"
   x1="160.666"
   y1="69.8423"
   x2="168.7969"
   y2="69.8423" /><linearGradient
   inkscape:collect="always"
   xlink:href="#XMLID_10_"
   id="linearGradient2376"
   gradientUnits="userSpaceOnUse"
   gradientTransform="matrix(1.5709466,0,0,1.5709466,-68.341201,-138.0986)"
   x1="169.2207"
   y1="81.1758"
   x2="193.2949"
   y2="81.1758" /><linearGradient
   inkscape:collect="always"
   xlink:href="#XMLID_11_"
   id="linearGradient2378"
   gradientUnits="userSpaceOnUse"
   gradientTransform="matrix(1.5709466,0,0,1.5709466,-68.341201,-138.0986)"
   x1="171.3809"
   y1="80.1768"
   x2="189.1348"
   y2="80.1768" /><linearGradient
   inkscape:collect="always"
   xlink:href="#XMLID_12_"
   id="linearGradient2380"
   gradientUnits="userSpaceOnUse"
   gradientTransform="matrix(1.5709466,0,0,1.5709466,-68.341201,-138.0986)"
   x1="170.4492"
   y1="100.71"
   x2="194.9375"
   y2="100.71" /><linearGradient
   inkscape:collect="always"
   xlink:href="#XMLID_13_"
   id="linearGradient2382"
   gradientUnits="userSpaceOnUse"
   gradientTransform="matrix(1.5709466,0,0,1.5709466,-68.341201,-138.0986)"
   x1="172.3457"
   y1="99.7109"
   x2="191.0391"
   y2="99.7109" /><linearGradient
   xlink:href="#linearGradient900"
   id="linearGradient907" /><linearGradient
   xlink:href="#linearGradient900"
   id="linearGradient906" /><linearGradient
   xlink:href="#linearGradient900"
   id="linearGradient905" /><linearGradient
   xlink:href="#linearGradient900"
   id="linearGradient904" /><linearGradient
   xlink:href="#linearGradient900"
   id="linearGradient903" /><linearGradient
   id="linearGradient900"><stop
     style="stop-color:#000;stop-opacity:1;"
     offset="0"
     id="stop901" /><stop
     style="stop-color:#fff;stop-opacity:1;"
     offset="1"
     id="stop902" /></linearGradient></defs><sodipodi:namedview
   inkscape:window-height="575"
   inkscape:window-width="883"
   inkscape:pageshadow="2"
   inkscape:pageopacity="0.0"
   guidetolerance="10.0"
   gridtolerance="10.0"
   objecttolerance="10.0"
   borderopacity="1.0"
   bordercolor="#666666"
   pagecolor="#ffffff"
   id="base"
   inkscape:zoom="13.166667"
   inkscape:cx="15"
   inkscape:cy="11.623089"
   inkscape:window-x="171"
   inkscape:window-y="199"
   inkscape:current-layer="svg2" />
	<g
   transform="matrix(-9.188548e-2,0,0,9.188548e-2,23.45902,1.47945)"
   id="g2044"
   style="overflow:visible"><path
     d="M 14.881128,21.207229 C 12.494702,21.207229 10.488048,23.213883 10.488048,25.600309 L 10.488048,47.707419 C 10.482828,47.820707 10.346335,47.876222 10.346335,47.990844 L 10.346335,215.77816 C 10.346335,219.78599 13.565838,223.00548 17.573661,223.00548 L 186.63639,223.00548 C 190.6442,223.00548 193.86371,219.78598 193.86371,215.77816 L 193.86371,47.990844 C 193.86371,43.983021 190.64421,40.763518 186.63639,40.763518 L 119.88991,40.763518 L 119.88991,25.600309 C 119.88991,23.213888 117.88326,21.207229 115.49683,21.207229 L 14.881128,21.207229 z "
     id="path938"
     style="font-size:12px;fill:yellow;fill-opacity:1;fill-rule:evenodd;stroke:black;stroke-width:14.17122555;stroke-linejoin:round;stroke-dasharray:none;stroke-opacity:1" /><rect
     height="151.69043"
     id="rect922"
     rx="7.2343354"
     sodipodi:stroke-cmyk="(0 0 0 0.8)"
     style="font-size:12px;fill:#ffbf00;fill-opacity:1;fill-rule:evenodd;stroke:black;stroke-width:14.67055035;stroke-linejoin:round;stroke-dasharray:none;stroke-opacity:1"
     transform="matrix(1,0,-0.35965,0.933087,0,0)"
     width="183.55222"
     x="97.09993"
     y="87.588005" /></g>
	<g
   id="Layer_x0020_1"
   style="fill:white;fill-rule:nonzero;stroke:black;stroke-miterlimit:4"
   transform="translate(0.607592,0.972153)">
		<path
   style="fill:none;stroke-width:2.5552001;stroke-linecap:round;stroke-linejoin:round"
   d="M 21.9,16.1 L 21.9,13.8 L 20.4,13.8 C 20.3,13.2 20,12.6 19.7,12.1 L 20.7,11 L 19.1,9.4 L 18,10.5 C 17.5,10.2 16.9,10 16.3,9.8 L 16.3,8.3 L 14,8.3 L 14,9.8 C 13.4,9.9 12.8,10.2 12.3,10.5 L 11.2,9.4 L 9.6,11 L 10.6,12.1 C 10.3,12.6 10,13.2 9.9,13.8 L 8.7,13.8 L 8.7,16.1 L 10.2,16.1 C 10.3,16.7 10.6,17.3 10.9,17.8 L 9.9,18.8 L 11.5,20.4 L 12.5,19.4 C 13,19.7 13.6,20 14.2,20.1 L 14.2,21.6 L 16.5,21.6 L 16.5,20.1 C 17.1,20 17.7,19.7 18.2,19.4 L 19.2,20.4 L 20.8,18.8 L 19.8,17.8 C 20.1,17.3 20.4,16.7 20.5,16.1 L 22,16.1 L 21.9,16.1 z M 15.3,16.1 C 14.7,16.1 14.1,15.6 14.1,14.9 C 14.1,14.2 14.6,13.7 15.3,13.7 C 15.9,13.7 16.5,14.2 16.5,14.9 C 16.5,15.6 16,16.1 15.3,16.1 z "
   id="path39" />
		<linearGradient
   id="aigrd4"
   gradientUnits="userSpaceOnUse"
   x1="12.6411"
   y1="11.7534"
   x2="18.7194"
   y2="19.0583">
			<stop
   offset="0"
   style="stop-color:#BBBBBB"
   id="stop42" />
			<stop
   offset="1"
   style="stop-color:#D2D2D2"
   id="stop44" />
		</linearGradient>
		<path
   style="fill:url(#aigrd4);stroke:none"
   d="M 21.9,16.1 L 21.9,13.8 L 20.4,13.8 C 20.3,13.2 20,12.6 19.7,12.1 L 20.7,11 L 19.1,9.4 L 18,10.5 C 17.5,10.2 16.9,10 16.3,9.8 L 16.3,8.3 L 14,8.3 L 14,9.8 C 13.4,9.9 12.8,10.2 12.3,10.5 L 11.2,9.4 L 9.6,11 L 10.6,12.1 C 10.3,12.6 10,13.2 9.9,13.8 L 8.7,13.8 L 8.7,16.1 L 10.2,16.1 C 10.3,16.7 10.6,17.3 10.9,17.8 L 9.9,18.8 L 11.5,20.4 L 12.5,19.4 C 13,19.7 13.6,20 14.2,20.1 L 14.2,21.6 L 16.5,21.6 L 16.5,20.1 C 17.1,20 17.7,19.7 18.2,19.4 L 19.2,20.4 L 20.8,18.8 L 19.8,17.8 C 20.1,17.3 20.4,16.7 20.5,16.1 L 22,16.1 L 21.9,16.1 z M 15.3,16.1 C 14.7,16.1 14.1,15.6 14.1,14.9 C 14.1,14.2 14.6,13.7 15.3,13.7 C 15.9,13.7 16.5,14.2 16.5,14.9 C 16.5,15.6 16,16.1 15.3,16.1 z "
   id="path46" />
		<g
   style="stroke:none"
   id="g48">
			<path
   style="opacity:0.58999999"
   d="M 11.5,12.1 L 10.5,11 L 11.8,9.7 L 11.5,9.4 L 9.9,11 L 11,12.1 C 10.7,12.6 10.4,13.2 10.3,13.8 L 10.9,13.8 C 11,13.2 11.3,12.6 11.6,12.1 L 11.5,12.1 z "
   id="path50" />
			<path
   style="opacity:0.58999999"
   d="M 13.1,19.4 L 12.9,19.6 C 13.3,19.8 13.7,20 14.2,20.1 L 14.2,21.6 L 14.8,21.6 L 14.8,20.1 C 14.2,20 13.6,19.7 13.1,19.4 L 13.1,19.4 z "
   id="path52" />
			<path
   style="opacity:0.58999999"
   d="M 11.5,17.7 C 11.2,17.2 10.9,16.6 10.8,16 L 10.2,16 C 10.3,16.6 10.6,17.2 10.9,17.7 L 9.9,18.7 L 11.5,20.3 L 11.8,20 L 10.5,18.7 L 11.5,17.7 z "
   id="path54" />
			<path
   style="opacity:0.58999999"
   d="M 8.7,13.8 L 8.7,16.1 L 9.3,16.1 L 9.3,13.8 L 8.7,13.8 z "
   id="path56" />
			<path
   style="opacity:0.58999999"
   d="M 14.8,9.8 L 14.8,8.3 L 14.2,8.3 L 14.2,9.8 C 13.8,9.9 13.3,10.1 12.9,10.3 L 13.1,10.5 C 13.6,10.2 14.2,10 14.8,9.8 L 14.8,9.8 z "
   id="path58" />
		</g>
	</g>
	<g
   id="Layer_x0020_3"
   style="fill-rule:nonzero;clip-rule:nonzero;stroke:#000000;stroke-miterlimit:4;">
		<path
   style="fill:none;stroke:none;"
   d="M24,24H0V0h24v24z"
   id="path61" />
	</g>
</svg>