<?xml version="1.0" encoding="iso-8859-1"?>
<!-- Generator: Adobe Illustrator 10.0, SVG Export Plug-In . SVG Version: 3.0.0 Build 43)  -->
<!DOCTYPE svg PUBLIC "-//W3C//DTD SVG 1.0//EN"    "http://www.w3.org/TR/2001/PR-SVG-20010719/DTD/svg10.dtd" [
	<!ENTITY ns_flows "http://ns.adobe.com/Flows/1.0/">
	<!ENTITY ns_svg "http://www.w3.org/2000/svg">
	<!ENTITY ns_xlink "http://www.w3.org/1999/xlink">
	<!ENTITY ns_extend "http://ns.adobe.com/Extensibility/1.0/">
	<!ENTITY ns_ai "http://ns.adobe.com/AdobeIllustrator/10.0/">
	<!ENTITY ns_graphs "http://ns.adobe.com/Graphs/1.0/">
	<!ENTITY ns_vars "http://ns.adobe.com/Variables/1.0/">
	<!ENTITY ns_imrep "http://ns.adobe.com/ImageReplacement/1.0/">
	<!ENTITY ns_sfw "http://ns.adobe.com/SaveForWeb/1.0/">
	<!ENTITY ns_custom "http://ns.adobe.com/GenericCustomNamespace/1.0/">
	<!ENTITY ns_adobe_xpath "http://ns.adobe.com/XPath/1.0/">
]>
<svg  xmlns:graph="" xmlns:xlink="&ns_xlink;" xmlns:x="&ns_extend;" xmlns:i="&ns_ai;"
	 xmlns="http://www.w3.org/2000/svg" xmlns:a="http://ns.adobe.com/AdobeSVGViewerExtensions/3.0/" width="39.727" height="46.463"
	 viewBox="0 0 39.727 46.463" overflow="visible" enable-background="new 0 0 39.727 46.463" xml:space="preserve">
	<metadata>
		<sfw>
			<slices></slices>
			<sliceSourceBounds  y="396.269" x="276.637" width="39.727" height="46.463" bottomLeftOrigin="true"></sliceSourceBounds>
		</sfw>
	</metadata>
	<g id="Layer_1" stroke="#000000">
		<g id="Layer_1_2_">
			<path opacity="0.2" stroke="none" d="M39.727,37.248L19.631,26.826l0.476,19.637l12.379-3.046L39.727,37.248z"/>
			<path stroke="none" d="M9.582,8.692l-6.965,6.01v3.519c0,0,1.986,1.029,2.653,1.375c0,0.919,0,5.679,0,6.386
				C4.691,26.48,0,30.527,0,30.527v5.502l20.107,10.434l7.452-6.429v-5.501c0,0-3.492-1.813-4.286-2.225c0-1.078,0-17.194,0-17.194
				L10.069,8.272L9.582,8.692z"/>
			<path stroke="none" d="M22.323,32.885V15.691l-12.121-6.28l-6.637,5.725v2.507l2.654,1.375v7.398l-5.271,4.546v4.489
				l19.025,9.872L26.61,39.6v-4.49L22.323,32.885z"/>
			<g>
				
					<linearGradient id="XMLID_1_" gradientUnits="userSpaceOnUse" x1="-235.3315" y1="389.0645" x2="-233.4918" y2="393.4338" gradientTransform="matrix(1 0 0 -1 246.8418 407.8848)">
					<stop  offset="0" style="stop-color:#3399FF"/>
					<stop  offset="1" style="stop-color:#012DF1"/>
					
					
					
				</linearGradient>
				<path fill="url(#XMLID_1_)" stroke="none" d="M22.323,15.691l-12.121-6.28l-6.637,5.725l12.121,6.28L22.323,15.691z"/>
			</g>
			<g>
				
					<linearGradient id="XMLID_2_" gradientUnits="userSpaceOnUse" x1="-228.1763" y1="367.124" x2="-226.5663" y2="369.6539" gradientTransform="matrix(1 0 0 -1 246.8418 407.8848)">
					<stop  offset="0" style="stop-color:#3399FF"/>
					<stop  offset="1" style="stop-color:#0D53F1"/>
					
					
					
				</linearGradient>
				<path fill="url(#XMLID_2_)" stroke="none" d="M26.61,35.109l-4.287-2.225l-6.636,5.726l4.287,2.225L26.61,35.109z"/>
			</g>
			<g>
				<path fill="#000088" stroke="none" d="M26.61,39.6v-4.49l-6.637,5.726v4.489L26.61,39.6z"/>
			</g>
			<g>
				
					<linearGradient id="XMLID_3_" gradientUnits="userSpaceOnUse" x1="-222.979" y1="378.9922" x2="-227.1395" y2="380.4834" gradientTransform="matrix(1 0 0 -1 246.8418 407.8848)">
					<stop  offset="0" style="stop-color:#0100DE"/>
					<stop  offset="1" style="stop-color:#000088"/>
					
					
					
				</linearGradient>
				<path fill="url(#XMLID_3_)" stroke="none" d="M22.323,32.885V15.691l-6.636,5.726V38.61L22.323,32.885z"/>
			</g>
			<g>
				
					<linearGradient id="XMLID_4_" gradientUnits="userSpaceOnUse" x1="-245.6587" y1="371.9814" x2="-238.7256" y2="379.7826" gradientTransform="matrix(1 0 0 -1 246.8418 407.8848)">
					<stop  offset="0" style="stop-color:#3399FF"/>
					<stop  offset="1" style="stop-color:#012DF1"/>
					
					
					
				</linearGradient>
				<path fill="url(#XMLID_4_)" stroke="none" d="M12.857,27.973l-5.271-2.735l-6.637,5.726l5.271,2.734L12.857,27.973z"/>
			</g>
			
				<linearGradient id="XMLID_5_" gradientUnits="userSpaceOnUse" x1="-244.7773" y1="379.998" x2="-228.0115" y2="375.9484" gradientTransform="matrix(1 0 0 -1 246.8418 407.8848)">
				<stop  offset="0.0056" style="stop-color:#0000DF"/>
				<stop  offset="1" style="stop-color:#1749FF"/>
				
				
				
			</linearGradient>
			<path fill="url(#XMLID_5_)" stroke="none" d="M15.687,38.61V23.924v-2.507l-12.121-6.28v2.507l2.654,1.375v14.68l-5.271-2.735
				v4.489l19.025,9.872v-4.489L15.687,38.61z"/>
			<path stroke="none" d="M5.27,19.019V33.19l0.95,0.508v-14.68H5.27z"/>
			<g a:adobe-blending-mode="multiply" opacity="0.7">
				<path a:adobe-blending-mode="normal" fill="#000088" stroke="none" d="M8.176,14.116c0-1.651,1.766-3.055,4.227-3.568
					c-0.029,0.016,8.87,4.61,8.865,4.576c-0.578,1.728-3.741,2.77-6.793,2.77C10.996,17.894,8.176,16.203,8.176,14.116z"/>
			</g>
			<path stroke="none" d="M4.761,8.172c0,4.506,3.666,8.171,8.171,8.171c4.506,0,8.171-3.666,8.171-8.171
				C21.104,3.666,17.438,0,12.932,0C8.427,0,4.761,3.666,4.761,8.172z"/>
			<g>
				<path stroke="none" d="M5.71,8.172c0-3.989,3.233-7.223,7.222-7.223c3.99,0,7.223,3.233,7.223,7.223
					c0,3.988-3.233,7.222-7.223,7.222C8.943,15.394,5.71,12.16,5.71,8.172z"/>
			</g>
			
				<radialGradient id="XMLID_6_" cx="-235.8594" cy="401.9824" r="7.1051" fx="-235.8594" fy="401.9824" gradientTransform="matrix(1 0 0 -1 246.8418 407.8848)" gradientUnits="userSpaceOnUse">
				<stop  offset="0.0335" style="stop-color:#FFFFFF"/>
				<stop  offset="0.4302" style="stop-color:#0000DF"/>
				<stop  offset="1" style="stop-color:#0000A9"/>
				
				
				
				
				
			</radialGradient>
			<path fill="url(#XMLID_6_)" stroke="none" d="M5.71,8.172c0-3.989,3.233-7.223,7.222-7.223c3.99,0,7.223,3.233,7.223,7.223
				c0,3.988-3.233,7.222-7.223,7.222C8.943,15.394,5.71,12.16,5.71,8.172z"/>
		</g>
	</g>
</svg>
