<?xml version="1.0" encoding="UTF-8" standalone="no"?>
<!DOCTYPE svg PUBLIC "-//W3C//DTD SVG 20010904//EN"
"http://www.w3.org/TR/2001/REC-SVG-20010904/DTD/svg10.dtd">
<!-- Created with Sodipodi ("http://www.sodipodi.com/") -->
<svg
   width="48pt"
   height="48pt"
   viewBox="0 0 256 256"
   style="overflow:visible;enable-background:new 0 0 256 256"
   xml:space="preserve"
   xmlns="http://www.w3.org/2000/svg"
   xmlns:xml="http://www.w3.org/XML/1998/namespace"
   xmlns:a="http://ns.adobe.com/AdobeSVGViewerExtensions/3.0/"
   xmlns:sodipodi="http://sodipodi.sourceforge.net/DTD/sodipodi-0.dtd"
   xmlns:xlink="http://www.w3.org/1999/xlink"
   id="svg548"
   sodipodi:version="0.32"
   sodipodi:docname="/home/cschalle/gnome-themes-extras/Nuvola/icons/scalable/apps/kasteroids.svg"
   sodipodi:docbase="/home/cschalle/gnome-themes-extras/Nuvola/icons/scalable/apps">
  <defs
     id="defs642" />
  <sodipodi:namedview
     id="base" />
  <g
     id="Layer_2"
     style="stroke:#000000;">
    <path
       style="fill:none;stroke:none;"
       d="M0,0h256v256H0V0z"
       id="path550" />
  </g>
  <g
     id="Layer_1"
     style="stroke:#000000;">
    <path
       style="opacity:0.2;stroke:none;"
       d="M174.724,0.353l-11.938,5.38c0,0-7.688,11.375-8.131,12.032c-0.542,0.463-15.639,13.358-15.639,13.358    s17.902,18.972,20.162,21.367c0.813,3.361,3.516,14.528,3.516,14.528l15.266,18.79l18.761,10.552c0,0,17.064-0.989,17.196-0.996    c0.134,0,19.308,0.165,19.308,0.165s5.523-13.597,6.208-15.285C240.622,79.357,256,67.905,256,67.905L243.536,42.45l-12.45-19.335    l-17.251-18.2c0,0-21.303,1.39-22.226,1.45C190.667,5.992,175.507,0,175.507,0L174.724,0.353z"
       id="path552" />
    <path
       style="fill:#7F7F7F;stroke:none;"
       d="M167.603,1.663l-11.938,5.38c0,0-7.688,11.375-8.131,12.032c-0.542,0.463-15.639,13.358-15.639,13.358    s17.902,18.972,20.162,21.367c0.813,3.361,3.516,14.528,3.516,14.528l15.266,18.79L189.6,97.67c0,0,17.064-0.989,17.196-0.996    c0.134,0,19.308,0.165,19.308,0.165s5.523-13.597,6.208-15.285c1.189-0.886,16.567-12.338,16.567-12.338l-12.464-25.455    l-12.45-19.335l-17.251-18.2c0,0-21.303,1.39-22.226,1.45c-0.942-0.373-16.103-6.364-16.103-6.364L167.603,1.663z"
       id="path553" />
    <path
       style="fill:#999999;stroke:none;"
       d="M138.975,33.698l15.799,16.742l3.587,14.824l13.521,16.643l17.401,9.787l16.603-0.961l17.856,0.152    l5.838-14.371l13.799-10.277l-9.31-19.014l-11.854-18.41l-15.706-16.571l-21.513,1.403L169.274,7.43l-11.331,5.108l-7.922,11.722    L138.975,33.698z"
       id="path554" />
    <path
       style="fill:#7F7F7F;stroke:none;"
       d="M153.066,45.09l11.402,13.158l4.078,12.98l8.146,14.931l17.244,8.95l10.817-7.641l13.31,0.202    l-1.823-13.833l7.958-7.718l0.153-10.412l-4.706-14.29L209.044,29.42l-17.463-4.41l-18.066-11.169l-8.406,11.605l-15.473,3.4    L153.066,45.09z"
       id="path555" />
    <path
       style="fill:#999999;stroke:none;"
       d="M171.085,43.486l7.357,9.949l2.676,10.168l5.286,11.523l11.073,6.296l6.884-6.64l8.514-0.497l-1.236-10.962    l5.052-6.559l0.047-8.328l-3.082-11.184l-6.843-9.058l-11.192-2.66l-11.613-8.029l-5.32,9.69l-9.879,3.483L171.085,43.486z"
       id="path556" />
    <path
       style="opacity:0.37;fill:#BFBFBF;stroke:none;"
       d="M182.743,49.858l-5.038,19.155l20.535,12.138l2.649,5.258l-3.924,7.476L175.32,81.688l-20.319-29.173    l18.251-6.506l-3.391-12.868l17.68,11.187L182.743,49.858z"
       id="path557" />
    <path
       style="opacity:0.37;fill:#BFBFBF;stroke:none;"
       d="M191.185,28.471l-3.488,18.191l14.824,9.948l1.938,4.724l-2.767,7.231l-15.622-9.928l-14.787-25.841    l13.063-7.281l-2.522-11.77l12.769,9.249L191.185,28.471z"
       id="path558" />
    <path
       style="opacity:0.2;stroke:none;"
       d="M141.97,110.192c-8.86-8.863-25.316-5.659-39.152,7.61c-0.055,0.053-0.327,0.305-0.327,0.305l-3.266,3.265    c-7.427,0.051-17.326,6.09-25.773,13.779c-15.817,0.401-35.312,1.195-44.376,2.748l-1.015,0.173L9.271,151.08l42.599,20.753    c-0.411,1.431-0.631,2.91-0.631,4.394c0,0.002,0,0.005,0,0.007c0.001,3.962,1.491,7.632,4.194,10.331l10.184,10.184    c2.701,2.705,6.372,4.193,10.336,4.193c2.302-0.003,4.593-0.528,6.72-1.486l38.935,54.213l10.718-23.007v-1.029    c0-14.801-5.522-52.009-8.319-69.904l10.072-10.075l0.251-0.264C147.63,135.557,150.85,119.064,141.97,110.192z"
       id="path559" />
    <linearGradient
       id="XMLID_1_"
       gradientUnits="userSpaceOnUse"
       x1="3.4775"
       y1="169.6973"
       x2="51.2155"
       y2="147.6879">
      <stop
         offset="0"
         style="stop-color:#3B3B3B"
         id="stop561" />
      <stop
         offset="1"
         style="stop-color:#636363"
         id="stop562" />
      
      
      
    </linearGradient>
    <path
       style="fill:url(#XMLID_1_);stroke:none;"
       d="M88.825,126.984c-2.107,0.014-51.789,0.367-68.02,3.146l-1.015,0.173L1,143.311l62.645,30.519l2.33-2.101    c2.736-2.464,26.757-24.524,27.524-39.861l0.245-4.915L88.825,126.984z"
       id="path566" />
    <linearGradient
       id="XMLID_2_"
       gradientUnits="userSpaceOnUse"
       x1="35.3574"
       y1="162.7539"
       x2="60.5626"
       y2="121.0075">
      <stop
         offset="0"
         style="stop-color:#CCCCCC"
         id="stop568" />
      <stop
         offset="1"
         style="stop-color:#FFFFFF"
         id="stop569" />
      
      
      
    </linearGradient>
    <path
       style="fill:url(#XMLID_2_);stroke:none;"
       d="M62.863,168.276c0,0,25.299-22.792,25.992-36.643c0,0-51.222,0.333-67.265,3.079l-11.41,7.898    L62.863,168.276z"
       id="path573" />
    <path
       style="opacity:0.5;stroke:none;"
       d="M19.006,146.912l43.856,21.364c0,0,6.803-6.133,13.451-13.968    C62.946,144.783,44.482,140.646,19.006,146.912z"
       id="path574" />
    <linearGradient
       id="XMLID_3_"
       gradientUnits="userSpaceOnUse"
       x1="43.0308"
       y1="140.1709"
       x2="78.4743"
       y2="143.7153">
      <stop
         offset="0"
         style="stop-color:#3B3B3B"
         id="stop576" />
      <stop
         offset="1"
         style="stop-color:#636363"
         id="stop577" />
      
      
      
    </linearGradient>
    <path
       style="fill:url(#XMLID_3_);stroke:none;"
       d="M133.699,102.424c-8.861-8.864-25.316-5.66-39.152,7.611c-0.055,0.051-0.327,0.302-0.327,0.302    l-3.266,3.268c-8.339,0.056-19.799,7.655-28.815,16.671c-9.269,9.27-17.035,21.119-16.649,29.507    c-1.618,2.636-2.522,5.645-2.522,8.677c0,0,0,0.002,0,0.005c0.001,3.964,1.491,7.634,4.194,10.331l10.184,10.186    c2.701,2.702,6.372,4.193,10.336,4.191c4.361-0.003,8.701-1.844,11.906-5.054l46.22-46.236l0.25-0.261    C139.359,127.787,142.579,111.297,133.699,102.424z"
       id="path581" />
    <linearGradient
       id="XMLID_4_"
       gradientUnits="userSpaceOnUse"
       x1="90.4814"
       y1="140.6104"
       x2="96.0511"
       y2="156.3912">
      <stop
         offset="0"
         style="stop-color:#FF0000"
         id="stop583" />
      <stop
         offset="1"
         style="stop-color:#CC0000"
         id="stop584" />
      
      
      
    </linearGradient>
    <path
       style="fill:url(#XMLID_4_);stroke:none;"
       d="M97.712,113.438l0.033-0.028l-0.299,0.277L51.3,159.843c-4.554,4.553-4.938,11.584-0.853,15.661    l10.188,10.188c4.083,4.087,11.11,3.701,15.662-0.86l46.145-46.152l0.248-0.264c11.3-11.752,14.623-25.811,7.722-32.703    C123.519,98.814,109.46,102.139,97.712,113.438z"
       id="path588" />
    <linearGradient
       id="XMLID_5_"
       gradientUnits="userSpaceOnUse"
       x1="74.6523"
       y1="242.4141"
       x2="119.1534"
       y2="157.3495">
      <stop
         offset="0"
         style="stop-color:#3B3B3B"
         id="stop590" />
      <stop
         offset="1"
         style="stop-color:#636363"
         id="stop591" />
      
      
      
    </linearGradient>
    <path
       style="fill:url(#XMLID_5_);stroke:none;"
       d="M108.565,138.338c-17.382,3.877-38.119,35.996-40.426,39.645l-1.675,2.651l46.874,65.265l10.719-23.005    v-1.029c0-19.4-9.487-77.289-9.891-79.744l-0.798-4.855L108.565,138.338z"
       id="path595" />
    <linearGradient
       id="XMLID_6_"
       gradientUnits="userSpaceOnUse"
       x1="98.7207"
       y1="149.3438"
       x2="76.4044"
       y2="127.027">
      <stop
         offset="0"
         style="stop-color:#FFFFFF"
         id="stop597" />
      <stop
         offset="1"
         style="stop-color:#CCDEED"
         id="stop598" />
      
      
      
    </linearGradient>
    <path
       style="fill:url(#XMLID_6_);stroke:none;"
       d="M127.33,103.517c-7.485-3.682-19.42,0.113-29.618,9.922l0.033-0.028l-0.299,0.277L51.3,159.843    c-4.554,4.553-4.938,11.584-0.853,15.661l9.124,9.125c4.042,1.885,9.299,0.921,12.958-2.746l46.144-46.155l0.25-0.261    C129.826,124.125,133.297,110.64,127.33,103.517z"
       id="path602" />
    <path
       style="fill:#FFFFFF;stroke:none;adobe-blending-mode:screen;"
       d="M63.993,147.146c19.936-7.665,38.393-16.035,45.193-22.836c6.601-6.602,9.117-14.635,9.709-22.059    c-6.579,0.672-14.277,4.544-21.183,11.188l0.033-0.028l-0.299,0.277L63.993,147.146z"
       id="path603" />
    <path
       style="fill:#CC3300;stroke:none;"
       d="M65.428,133.563c-11.962,11.96-18.228,25.088-13.995,29.32s17.361-2.033,29.323-13.993    C92.717,136.93,98.983,123.8,94.75,119.567C90.518,115.335,77.39,121.601,65.428,133.563z"
       id="path604" />
    <linearGradient
       id="XMLID_7_"
       gradientUnits="userSpaceOnUse"
       x1="64.8574"
       y1="134.542"
       x2="93.5272"
       y2="163.2123">
      <stop
         offset="0.0056"
         style="stop-color:#FFFFFF"
         id="stop606" />
      <stop
         offset="0.309"
         style="stop-color:#99CCFF"
         id="stop607" />
      <stop
         offset="1"
         style="stop-color:#3399FF"
         id="stop608" />
      
      
      
      
      
    </linearGradient>
    <path
       style="fill:url(#XMLID_7_);stroke:none;"
       d="M77.037,148.27c11.962-11.96,18.228-25.088,13.994-29.32c-0.262-0.263-0.559-0.482-0.886-0.667    c-6.033,0.494-15.705,6.27-24.718,15.281c-11.962,11.96-18.228,25.088-13.995,29.32c0.262,0.263,0.558,0.484,0.886,0.667    C58.352,163.06,68.024,157.283,77.037,148.27z"
       id="path614" />
    <path
       style="fill:#999999;stroke:none;"
       d="M114.319,140.131c-15.459-0.928-48.752,35.581-44.676,44.786c0.487-0.369,0.959-0.775,1.406-1.223    l43.588-43.621C114.53,140.092,114.428,140.104,114.319,140.131z"
       id="path615" />
    <linearGradient
       id="XMLID_8_"
       gradientUnits="userSpaceOnUse"
       x1="89.4546"
       y1="199.5625"
       x2="125.4123"
       y2="183.1343">
      <stop
         offset="0"
         style="stop-color:#CCCCCC"
         id="stop617" />
      <stop
         offset="0.2966"
         style="stop-color:#D0D0D0"
         id="stop618" />
      <stop
         offset="0.5627"
         style="stop-color:#DADADA"
         id="stop619" />
      <stop
         offset="0.8163"
         style="stop-color:#EDEDED"
         id="stop620" />
      <stop
         offset="1"
         style="stop-color:#FFFFFF"
         id="stop621" />
      
      
      
    </linearGradient>
    <path
       style="fill:url(#XMLID_8_);stroke:none;"
       d="M72.069,180.468c0,0,21.509-34.023,37.509-37.593c0,0,9.828,59.746,9.828,78.989l-6.928,14.868    L72.069,180.468z"
       id="path625" />
    <path
       style="opacity:0.5;fill:#FFFFFF;stroke:none;adobe-blending-mode:screen;"
       d="M72.541,152.453c1.504-1.301,3.009-2.695,4.496-4.184c1.319-1.319,2.564-2.651,3.739-3.985    c-13.742,4.681-24.594,6.061-24.594,6.061l-1.006,5.852C60.293,154.232,66.845,153.102,72.541,152.453z"
       id="path626" />
    <path
       style="fill:#FF0000;stroke:none;"
       d="M64.843,158.289c-3.347-5.217-7.401-9.107-10.15-11.413c-2.169,3.515-3.629,6.782-4.246,9.517    l-0.155,1.703l3.42,5.252C56.827,162.75,60.689,160.989,64.843,158.289z"
       id="path627" />
    <path
       style="fill:#CC0000;stroke:none;"
       d="M53.707,149.535c-0.035-0.028-0.07-0.053-0.104-0.082c-3.246,6.057-4.109,11.098-1.775,13.432    c0.262,0.262,0.558,0.483,0.886,0.666c2.453-0.199,5.515-1.286,8.882-3.097C60.619,157.007,57.823,152.964,53.707,149.535z"
       id="path628" />
    <path
       style="opacity:0.5;stroke:none;"
       d="M85.382,162.342c-7.66,9.192-13.313,18.126-13.313,18.126l38.739,53.939    C109.399,215.19,104.156,182.724,85.382,162.342z"
       id="path629" />
    <path
       style="opacity:0.6;fill:#FFFFFF;stroke:none;adobe-blending-mode:screen;"
       d="M91.031,118.949c-0.262-0.263-0.559-0.482-0.886-0.667c-4.138,0.339-9.989,3.164-16.164,7.812    c12.46-6.129,14.971-1.893,3.897,3.794c-11.469,5.891-9.919,13.02,0.311,4.34c5.875-4.984,10.417-6.39,13.221-6.683    C92.732,123.703,92.708,120.625,91.031,118.949z"
       id="path630" />
    <radialGradient
       id="XMLID_9_"
       cx="187.001"
       cy="38.001"
       r="47.3494"
       fx="187.001"
       fy="38.001"
       gradientUnits="userSpaceOnUse">
      <stop
         offset="0"
         style="stop-color:#FFFFFF"
         id="stop632" />
      <stop
         offset="1"
         style="stop-color:#000000"
         id="stop633" />
      
      
      
    </radialGradient>
    <path
       style="opacity:0.3;fill:url(#XMLID_9_);stroke:none;adobe-blending-mode:overlay;"
       d="M138.975,33.698l15.799,16.742l3.587,14.824l13.521,16.643l17.401,9.787l16.603-0.961l17.856,0.152    l5.838-14.371l13.799-10.277l-9.31-19.014l-11.854-18.41l-15.706-16.571l-21.513,1.403L169.274,7.43l-11.331,5.108l-7.922,11.722    L138.975,33.698z"
       id="path637" />
    <path
       style="opacity:0.2;fill:none;stroke-width:4;stroke-linecap:square;stroke-linejoin:round;stroke-dasharray:5 12;"
       d="M139.008,98.667l46.991-46.991"
       id="path638" />
    <path
       style="fill:none;stroke:#FFCC00;stroke-width:4;stroke-linecap:square;stroke-linejoin:round;stroke-dasharray:5 12;"
       d="M136.571,98.667l46.992-46.991"
       id="path639" />
    <path
       style="fill:none;stroke:#FF0000;stroke-width:4;stroke-linecap:square;stroke-linejoin:round;stroke-dasharray:5 12;"
       d="M132.166,93.637l46.991-46.991"
       id="path640" />
  </g>
</svg>
