<?xml version="1.0" encoding="UTF-8" standalone="no"?>
<!-- Created with Inkscape (http://www.inkscape.org/) -->

<svg
   xmlns:dc="http://purl.org/dc/elements/1.1/"
   xmlns:cc="http://creativecommons.org/ns#"
   xmlns:rdf="http://www.w3.org/1999/02/22-rdf-syntax-ns#"
   xmlns:svg="http://www.w3.org/2000/svg"
   xmlns="http://www.w3.org/2000/svg"
   xmlns:sodipodi="http://sodipodi.sourceforge.net/DTD/sodipodi-0.dtd"
   xmlns:inkscape="http://www.inkscape.org/namespaces/inkscape"
   width="22"
   height="22"
   id="svg3869"
   version="1.1"
   inkscape:version="0.91 r13725"
   sodipodi:docname="knemo-wireless-idle.svg">
  <defs
     id="defs3871" />
  <sodipodi:namedview
     id="base"
     pagecolor="#ffffff"
     bordercolor="#666666"
     borderopacity="1.0"
     inkscape:pageopacity="0.0"
     inkscape:pageshadow="2"
     inkscape:zoom="64.272727"
     inkscape:cx="7.9893918"
     inkscape:cy="9.7635254"
     inkscape:document-units="px"
     inkscape:current-layer="layer1"
     showgrid="true"
     fit-margin-top="0"
     fit-margin-left="0"
     fit-margin-right="0"
     fit-margin-bottom="0"
     inkscape:window-width="1920"
     inkscape:window-height="1145"
     inkscape:window-x="-2"
     inkscape:window-y="-3"
     inkscape:window-maximized="1"
     inkscape:showpageshadow="false"
     showguides="true">
    <inkscape:grid
       type="xygrid"
       id="grid4132" />
    <sodipodi:guide
       position="2,20"
       orientation="18,0"
       id="guide4138" />
    <sodipodi:guide
       position="2,2"
       orientation="0,18"
       id="guide4140" />
    <sodipodi:guide
       position="20,2"
       orientation="-18,0"
       id="guide4142" />
    <sodipodi:guide
       position="20,20"
       orientation="0,-18"
       id="guide4144" />
    <sodipodi:guide
       position="3,19"
       orientation="16,0"
       id="guide4147" />
    <sodipodi:guide
       position="3,3"
       orientation="0,16"
       id="guide4149" />
    <sodipodi:guide
       position="19,3"
       orientation="-16,0"
       id="guide4151" />
    <sodipodi:guide
       position="19,19"
       orientation="0,-16"
       id="guide4153" />
  </sodipodi:namedview>
  <metadata
     id="metadata3874">
    <rdf:RDF>
      <cc:Work
         rdf:about="">
        <dc:format>image/svg+xml</dc:format>
        <dc:type
           rdf:resource="http://purl.org/dc/dcmitype/StillImage" />
        <dc:title />
      </cc:Work>
    </rdf:RDF>
  </metadata>
  <g
     inkscape:label="Layer 1"
     inkscape:groupmode="layer"
     id="layer1">
    <path
       style="opacity:1;fill:#4d4d4d;fill-opacity:1;stroke:none"
       d="m 9,9 c -1.108,0 -2,0.892 -2,2 0,0.93265 0.63525,1.70433 1.49609,1.92773 0.007,2.01366 0.005,3.04705 0.004,5.07227 l -1,0 0,1 3,0 0,-1 -1,0 c 0,-2.02499 -0.006,-3.0598 0.004,-5.07227 C 10.36457,12.70433 11,11.93265 11,11 11,9.8919999 10.108,9 9,9 Z m 0,1 C 9.55228,10 10,10.44772 10,11 10,11.55228 9.55228,12 9,12 8.44772,12 8,11.55228 8,11 8,10.44772 8.44772,10 9,10 Z"
       id="rect4155-9-5-4-1-1"
       inkscape:connector-curvature="0"
       sodipodi:nodetypes="ssccccccccsssssss" />
    <path
       inkscape:connector-curvature="0"
       style="opacity:0.2;fill:#4d4d4d;fill-opacity:1"
       d="M 5.53711,6.1054699 A 6,6 0 0 0 3,11 6,6 0 0 0 5.53711,15.89063 L 6.25391,15.17383 A 5,5 0 0 1 4,11 5,5 0 0 1 6.25586,6.8242199 L 5.53711,6.1054699 Z"
       id="path4148-7" />
    <path
       inkscape:connector-curvature="0"
       style="opacity:0.2;fill:#4d4d4d;fill-opacity:1"
       d="M 6.98242,7.5507799 A 4,3.9999826 0 0 0 5,11 4,3.9999826 0 0 0 6.98047,14.44727 L 7.71875,13.70898 A 3,2.9999826 0 0 1 6,11 3,2.9999826 0 0 1 7.7207,8.2890599 L 6.98242,7.5507799 Z"
       id="path4148" />
    <path
       style="opacity:1;fill:#4d4d4d;fill-opacity:1;stroke:none"
       d="m 13,6 c -1.108,0 -2,0.892 -2,2 0,0.93265 0.63525,1.70433 1.49609,1.92773 0.007,2.01366 0.005,3.04705 0.004,5.07227 l -1,0 0,1 3,0 0,-1 -1,0 c 0,-2.02499 -0.006,-3.0598 0.004,-5.07227 C 14.36457,9.70433 15,8.93265 15,8 15,6.8919999 14.108,6 13,6 Z m 0,1 c 0.55228,0 1,0.44772 1,1 0,0.55228 -0.44772,1 -1,1 -0.55228,0 -1,-0.44772 -1,-1 0,-0.55228 0.44772,-1 1,-1 z"
       id="rect4155-9-5-4-1-1-7"
       inkscape:connector-curvature="0"
       sodipodi:nodetypes="ssccccccccsssssss" />
    <path
       style="opacity:0.2;fill:#4d4d4d;fill-opacity:1"
       d="M 16.46289,3.1054699 A 6,6 0 0 1 19,7.9999999 6,6 0 0 1 16.46289,12.89063 L 15.74609,12.17383 A 5,5 0 0 0 18,7.9999999 5,5 0 0 0 15.74414,3.8242199 L 16.46289,3.1054699 Z"
       id="path4148-7-9"
       inkscape:connector-curvature="0" />
    <path
       style="opacity:0.2;fill:#4d4d4d;fill-opacity:1"
       d="M 15.01758,4.5507799 A 4,3.9999826 0 0 1 17,7.9999999 4,3.9999826 0 0 1 15.01953,11.44727 L 14.28125,10.70898 A 3,2.9999826 0 0 0 16,7.9999999 3,2.9999826 0 0 0 14.2793,5.2890599 L 15.01758,4.5507799 Z"
       id="path4148-6"
       inkscape:connector-curvature="0" />
  </g>
</svg>
