<?xml version="1.0" encoding="UTF-8" standalone="no"?>
<!-- Generator: Adobe Illustrator 9.0, SVG Export Plug-In  -->

<svg
   xmlns:dc="http://purl.org/dc/elements/1.1/"
   xmlns:cc="http://creativecommons.org/ns#"
   xmlns:rdf="http://www.w3.org/1999/02/22-rdf-syntax-ns#"
   xmlns:svg="http://www.w3.org/2000/svg"
   xmlns="http://www.w3.org/2000/svg"
   xmlns:xlink="http://www.w3.org/1999/xlink"
   xmlns:sodipodi="http://sodipodi.sourceforge.net/DTD/sodipodi-0.dtd"
   xmlns:inkscape="http://www.inkscape.org/namespaces/inkscape"
   width="82pt"
   height="74pt"
   viewBox="0 0 82 74"
   xml:space="preserve"
   id="svg2"
   version="1.1"
   inkscape:version="0.48.3.1 r9886"
   sodipodi:docname="line-in.svg"><metadata
   id="metadata340"><rdf:RDF><cc:Work
       rdf:about=""><dc:format>image/svg+xml</dc:format><dc:type
         rdf:resource="http://purl.org/dc/dcmitype/StillImage" /></cc:Work></rdf:RDF></metadata><defs
   id="defs338"><linearGradient
     y2="39.095699"
     x2="34.3354"
     y1="40.775902"
     x1="37.671398"
     gradientUnits="userSpaceOnUse"
     id="aigrd12"><stop
       id="stop303"
       style="stop-color:#B9B9B9"
       offset="0" /><stop
       id="stop305"
       style="stop-color:#CCCCCC"
       offset="1.499000e-002" /><stop
       id="stop307"
       style="stop-color:#E0E0E0"
       offset="3.599611e-002" /><stop
       id="stop309"
       style="stop-color:#EEEEEE"
       offset="6.006415e-002" /><stop
       id="stop311"
       style="stop-color:#F7F7F7"
       offset="8.958846e-002" /><stop
       id="stop313"
       style="stop-color:#F9F9F9"
       offset="0.1404" /><stop
       id="stop315"
       style="stop-color:#C7C7C7"
       offset="0.382" /><stop
       id="stop317"
       style="stop-color:#C5C5C5"
       offset="0.6348" /><stop
       id="stop319"
       style="stop-color:#EDEDED"
       offset="0.7584" /><stop
       id="stop321"
       style="stop-color:#E8E8E8"
       offset="0.7958" /><stop
       id="stop323"
       style="stop-color:#DADADA"
       offset="0.8398" /><stop
       id="stop325"
       style="stop-color:#D9D9D9"
       offset="0.8427" /><stop
       id="stop327"
       style="stop-color:#FFFFFF"
       offset="1" /></linearGradient><linearGradient
     gradientTransform="matrix(0.9017,0.4324,-0.3215,0.6704,-22.8424,-26.6058)"
     y2="43.941399"
     x2="82.417198"
     y1="43.941399"
     x1="81.314499"
     gradientUnits="userSpaceOnUse"
     id="aigrd11"><stop
       id="stop270"
       style="stop-color:#B9B9B9"
       offset="0" /><stop
       id="stop272"
       style="stop-color:#CCCCCC"
       offset="1.499000e-002" /><stop
       id="stop274"
       style="stop-color:#E0E0E0"
       offset="3.599611e-002" /><stop
       id="stop276"
       style="stop-color:#EEEEEE"
       offset="6.006415e-002" /><stop
       id="stop278"
       style="stop-color:#F7F7F7"
       offset="8.958846e-002" /><stop
       id="stop280"
       style="stop-color:#F9F9F9"
       offset="0.1404" /><stop
       id="stop282"
       style="stop-color:#C7C7C7"
       offset="0.382" /><stop
       id="stop284"
       style="stop-color:#C5C5C5"
       offset="0.6348" /><stop
       id="stop286"
       style="stop-color:#EDEDED"
       offset="0.7584" /><stop
       id="stop288"
       style="stop-color:#E8E8E8"
       offset="0.7958" /><stop
       id="stop290"
       style="stop-color:#DADADA"
       offset="0.8398" /><stop
       id="stop292"
       style="stop-color:#D9D9D9"
       offset="0.8427" /><stop
       id="stop294"
       style="stop-color:#FFFFFF"
       offset="1" /></linearGradient><linearGradient
     gradientTransform="matrix(0.9885,-0.0054,-0.0054,0.9975,-1.3328,-0.5824)"
     y2="40.445801"
     x2="40.0811"
     y1="38.713902"
     x1="37.275902"
     gradientUnits="userSpaceOnUse"
     id="aigrd10"><stop
       id="stop247"
       style="stop-color:#797979"
       offset="0" /><stop
       id="stop249"
       style="stop-color:#7C7C7C"
       offset="0.2498" /><stop
       id="stop251"
       style="stop-color:#858585"
       offset="0.4216" /><stop
       id="stop253"
       style="stop-color:#949494"
       offset="0.5699" /><stop
       id="stop255"
       style="stop-color:#AAAAAA"
       offset="0.705" /><stop
       id="stop257"
       style="stop-color:#C6C6C6"
       offset="0.8298" /><stop
       id="stop259"
       style="stop-color:#DEDEDE"
       offset="0.9157" /><stop
       id="stop261"
       style="stop-color:#E2E2E2"
       offset="0.9439" /><stop
       id="stop263"
       style="stop-color:#F1F1F1"
       offset="0.9771" /><stop
       id="stop265"
       style="stop-color:#FFFFFF"
       offset="1" /></linearGradient><linearGradient
     y2="42.537701"
     x2="36.329399"
     y1="39.1572"
     x1="35.1245"
     gradientUnits="userSpaceOnUse"
     id="aigrd9"><stop
       id="stop236"
       style="stop-color:#F17B85"
       offset="5.618000e-003" /><stop
       id="stop238"
       style="stop-color:#F26971"
       offset="0.3216" /><stop
       id="stop240"
       style="stop-color:#F73944"
       offset="0.9613" /><stop
       id="stop242"
       style="stop-color:#F73641"
       offset="1" /></linearGradient><linearGradient
     y2="45.875198"
     x2="35.863499"
     y1="43.637699"
     x1="31.4692"
     gradientUnits="userSpaceOnUse"
     id="aigrd8"><stop
       id="stop207"
       style="stop-color:#CF353F"
       offset="0" /><stop
       id="stop209"
       style="stop-color:#D8414A"
       offset="1.641390e-002" /><stop
       id="stop211"
       style="stop-color:#E7535B"
       offset="4.846740e-002" /><stop
       id="stop213"
       style="stop-color:#F06069"
       offset="8.519811e-002" /><stop
       id="stop215"
       style="stop-color:#F76872"
       offset="0.1303" /><stop
       id="stop217"
       style="stop-color:#F86A74"
       offset="0.2079" /><stop
       id="stop219"
       style="stop-color:#F5666F"
       offset="0.3084" /><stop
       id="stop221"
       style="stop-color:#E85960"
       offset="0.427" /><stop
       id="stop223"
       style="stop-color:#D7454B"
       offset="0.5548" /><stop
       id="stop225"
       style="stop-color:#BF2B31"
       offset="0.6889" /><stop
       id="stop227"
       style="stop-color:#A31116"
       offset="0.8258" /><stop
       id="stop229"
       style="stop-color:#AF1219"
       offset="0.8987" /><stop
       id="stop231"
       style="stop-color:#CE161E"
       offset="1" /></linearGradient><radialGradient
     gradientUnits="userSpaceOnUse"
     fy="47.913101"
     fx="31.2749"
     r="2.0671999"
     cy="47.913101"
     cx="31.2749"
     id="aigrd7"><stop
       id="stop178"
       style="stop-color:#CF353F"
       offset="0" /><stop
       id="stop180"
       style="stop-color:#D8414A"
       offset="1.641390e-002" /><stop
       id="stop182"
       style="stop-color:#E7535B"
       offset="4.846740e-002" /><stop
       id="stop184"
       style="stop-color:#F06069"
       offset="8.519811e-002" /><stop
       id="stop186"
       style="stop-color:#F76872"
       offset="0.1303" /><stop
       id="stop188"
       style="stop-color:#F86A74"
       offset="0.2079" /><stop
       id="stop190"
       style="stop-color:#F5666F"
       offset="0.3084" /><stop
       id="stop192"
       style="stop-color:#E85960"
       offset="0.427" /><stop
       id="stop194"
       style="stop-color:#D7454B"
       offset="0.5548" /><stop
       id="stop196"
       style="stop-color:#BF2B31"
       offset="0.6889" /><stop
       id="stop198"
       style="stop-color:#A31116"
       offset="0.8258" /><stop
       id="stop200"
       style="stop-color:#AF1219"
       offset="0.8987" /><stop
       id="stop202"
       style="stop-color:#CE161E"
       offset="1" /></radialGradient><linearGradient
     y2="39.050301"
     x2="42.395401"
     y1="40.730499"
     x1="45.7314"
     gradientUnits="userSpaceOnUse"
     id="aigrd6"><stop
       id="stop139"
       style="stop-color:#B9B9B9"
       offset="0" /><stop
       id="stop141"
       style="stop-color:#CCCCCC"
       offset="1.499000e-002" /><stop
       id="stop143"
       style="stop-color:#E0E0E0"
       offset="3.599611e-002" /><stop
       id="stop145"
       style="stop-color:#EEEEEE"
       offset="6.006415e-002" /><stop
       id="stop147"
       style="stop-color:#F7F7F7"
       offset="8.958846e-002" /><stop
       id="stop149"
       style="stop-color:#F9F9F9"
       offset="0.1404" /><stop
       id="stop151"
       style="stop-color:#C7C7C7"
       offset="0.382" /><stop
       id="stop153"
       style="stop-color:#C5C5C5"
       offset="0.6348" /><stop
       id="stop155"
       style="stop-color:#EDEDED"
       offset="0.7584" /><stop
       id="stop157"
       style="stop-color:#E8E8E8"
       offset="0.7958" /><stop
       id="stop159"
       style="stop-color:#DADADA"
       offset="0.8398" /><stop
       id="stop161"
       style="stop-color:#D9D9D9"
       offset="0.8427" /><stop
       id="stop163"
       style="stop-color:#FFFFFF"
       offset="1" /></linearGradient><linearGradient
     gradientTransform="matrix(0.9017,0.4324,-0.3215,0.6704,-22.8424,-26.6058)"
     y2="39.1992"
     x2="89.665398"
     y1="39.1992"
     x1="88.561501"
     gradientUnits="userSpaceOnUse"
     id="aigrd5"><stop
       id="stop106"
       style="stop-color:#B9B9B9"
       offset="0" /><stop
       id="stop108"
       style="stop-color:#CCCCCC"
       offset="1.499000e-002" /><stop
       id="stop110"
       style="stop-color:#E0E0E0"
       offset="3.599611e-002" /><stop
       id="stop112"
       style="stop-color:#EEEEEE"
       offset="6.006415e-002" /><stop
       id="stop114"
       style="stop-color:#F7F7F7"
       offset="8.958846e-002" /><stop
       id="stop116"
       style="stop-color:#F9F9F9"
       offset="0.1404" /><stop
       id="stop118"
       style="stop-color:#C7C7C7"
       offset="0.382" /><stop
       id="stop120"
       style="stop-color:#C5C5C5"
       offset="0.6348" /><stop
       id="stop122"
       style="stop-color:#EDEDED"
       offset="0.7584" /><stop
       id="stop124"
       style="stop-color:#E8E8E8"
       offset="0.7958" /><stop
       id="stop126"
       style="stop-color:#DADADA"
       offset="0.8398" /><stop
       id="stop128"
       style="stop-color:#D9D9D9"
       offset="0.8427" /><stop
       id="stop130"
       style="stop-color:#FFFFFF"
       offset="1" /></linearGradient><linearGradient
     gradientTransform="matrix(0.9885,-0.0054,-0.0054,0.9975,-1.3328,-0.5824)"
     y2="40.444801"
     x2="48.2342"
     y1="38.713402"
     x1="45.429699"
     gradientUnits="userSpaceOnUse"
     id="aigrd4"><stop
       id="stop83"
       style="stop-color:#797979"
       offset="0" /><stop
       id="stop85"
       style="stop-color:#7C7C7C"
       offset="0.2498" /><stop
       id="stop87"
       style="stop-color:#858585"
       offset="0.4216" /><stop
       id="stop89"
       style="stop-color:#949494"
       offset="0.5699" /><stop
       id="stop91"
       style="stop-color:#AAAAAA"
       offset="0.705" /><stop
       id="stop93"
       style="stop-color:#C6C6C6"
       offset="0.8298" /><stop
       id="stop95"
       style="stop-color:#DEDEDE"
       offset="0.9157" /><stop
       id="stop97"
       style="stop-color:#E2E2E2"
       offset="0.9439" /><stop
       id="stop99"
       style="stop-color:#F1F1F1"
       offset="0.9771" /><stop
       id="stop101"
       style="stop-color:#FFFFFF"
       offset="1" /></linearGradient><linearGradient
     y2="43.249699"
     x2="44.981499"
     y1="39.159698"
     x1="43.025398"
     gradientUnits="userSpaceOnUse"
     id="aigrd3"><stop
       id="stop74"
       style="stop-color:#3283BA"
       offset="5.618000e-003" /><stop
       id="stop76"
       style="stop-color:#256399"
       offset="0.7097" /><stop
       id="stop78"
       style="stop-color:#1F568C"
       offset="1" /></linearGradient><linearGradient
     y2="45.830299"
     x2="43.923599"
     y1="43.5928"
     x1="39.529301"
     gradientUnits="userSpaceOnUse"
     id="aigrd2"><stop
       id="stop43"
       style="stop-color:#2069AD"
       offset="0" /><stop
       id="stop45"
       style="stop-color:#246EB0"
       offset="1.423236e-002" /><stop
       id="stop47"
       style="stop-color:#2C7AB6"
       offset="5.874576e-002" /><stop
       id="stop49"
       style="stop-color:#3081B9"
       offset="0.1135" /><stop
       id="stop51"
       style="stop-color:#3283BA"
       offset="0.2079" /><stop
       id="stop53"
       style="stop-color:#317FB6"
       offset="0.3335" /><stop
       id="stop55"
       style="stop-color:#2E73AA"
       offset="0.4816" /><stop
       id="stop57"
       style="stop-color:#295F97"
       offset="0.641" /><stop
       id="stop59"
       style="stop-color:#224680"
       offset="0.8075" /><stop
       id="stop61"
       style="stop-color:#21437D"
       offset="0.8258" /><stop
       id="stop63"
       style="stop-color:#1E427C"
       offset="0.861" /><stop
       id="stop65"
       style="stop-color:#183F78"
       offset="0.9152" /><stop
       id="stop67"
       style="stop-color:#10396D"
       offset="0.9814" /><stop
       id="stop69"
       style="stop-color:#0E3668"
       offset="1" /></linearGradient><radialGradient
     gradientUnits="userSpaceOnUse"
     fy="47.618698"
     fx="38.771"
     r="2.3577001"
     cy="47.618698"
     cx="38.771"
     id="aigrd1"><stop
       id="stop14"
       style="stop-color:#2069AD"
       offset="0" /><stop
       id="stop16"
       style="stop-color:#246EB0"
       offset="1.423236e-002" /><stop
       id="stop18"
       style="stop-color:#2C7AB6"
       offset="5.874576e-002" /><stop
       id="stop20"
       style="stop-color:#3081B9"
       offset="0.1135" /><stop
       id="stop22"
       style="stop-color:#3283BA"
       offset="0.2079" /><stop
       id="stop24"
       style="stop-color:#317FB7"
       offset="0.3457" /><stop
       id="stop26"
       style="stop-color:#2F74AE"
       offset="0.5081" /><stop
       id="stop28"
       style="stop-color:#2B619F"
       offset="0.6824" /><stop
       id="stop30"
       style="stop-color:#254F90"
       offset="0.8258" /><stop
       id="stop32"
       style="stop-color:#224C8D"
       offset="0.8583" /><stop
       id="stop34"
       style="stop-color:#1B4783"
       offset="0.9084" /><stop
       id="stop36"
       style="stop-color:#123C73"
       offset="0.9696" /><stop
       id="stop38"
       style="stop-color:#0E3668"
       offset="1" /></radialGradient><radialGradient
     inkscape:collect="always"
     xlink:href="#aigrd1"
     id="radialGradient4140"
     gradientUnits="userSpaceOnUse"
     gradientTransform="translate(1,-10)"
     cx="38.771"
     cy="47.618698"
     fx="38.771"
     fy="47.618698"
     r="2.3577001" /><linearGradient
     inkscape:collect="always"
     xlink:href="#aigrd2"
     id="linearGradient4142"
     gradientUnits="userSpaceOnUse"
     gradientTransform="translate(1,-10)"
     x1="39.529301"
     y1="43.5928"
     x2="43.923599"
     y2="45.830299" /><linearGradient
     inkscape:collect="always"
     xlink:href="#aigrd3"
     id="linearGradient4144"
     gradientUnits="userSpaceOnUse"
     gradientTransform="translate(1,-10)"
     x1="43.025398"
     y1="39.159698"
     x2="44.981499"
     y2="43.249699" /><linearGradient
     inkscape:collect="always"
     xlink:href="#aigrd4"
     id="linearGradient4146"
     gradientUnits="userSpaceOnUse"
     gradientTransform="matrix(0.9885,-0.0054,-0.0054,0.9975,-0.3328,-10.5824)"
     x1="45.429699"
     y1="38.713402"
     x2="48.2342"
     y2="40.444801" /><linearGradient
     inkscape:collect="always"
     xlink:href="#aigrd5"
     id="linearGradient4148"
     gradientUnits="userSpaceOnUse"
     gradientTransform="matrix(0.9017,0.4324,-0.3215,0.6704,-21.8424,-36.6058)"
     x1="88.561501"
     y1="39.1992"
     x2="89.665398"
     y2="39.1992" /><linearGradient
     inkscape:collect="always"
     xlink:href="#aigrd6"
     id="linearGradient4150"
     gradientUnits="userSpaceOnUse"
     gradientTransform="translate(1,-10)"
     x1="45.7314"
     y1="40.730499"
     x2="42.395401"
     y2="39.050301" /><radialGradient
     inkscape:collect="always"
     xlink:href="#aigrd7"
     id="radialGradient4152"
     gradientUnits="userSpaceOnUse"
     gradientTransform="translate(1,-10)"
     cx="31.2749"
     cy="47.913101"
     fx="31.2749"
     fy="47.913101"
     r="2.0671999" /><linearGradient
     inkscape:collect="always"
     xlink:href="#aigrd8"
     id="linearGradient4154"
     gradientUnits="userSpaceOnUse"
     gradientTransform="translate(1,-10)"
     x1="31.4692"
     y1="43.637699"
     x2="35.863499"
     y2="45.875198" /><linearGradient
     inkscape:collect="always"
     xlink:href="#aigrd9"
     id="linearGradient4156"
     gradientUnits="userSpaceOnUse"
     gradientTransform="translate(1,-10)"
     x1="35.1245"
     y1="39.1572"
     x2="36.329399"
     y2="42.537701" /><linearGradient
     inkscape:collect="always"
     xlink:href="#aigrd10"
     id="linearGradient4158"
     gradientUnits="userSpaceOnUse"
     gradientTransform="matrix(0.9885,-0.0054,-0.0054,0.9975,-0.3328,-10.5824)"
     x1="37.275902"
     y1="38.713902"
     x2="40.0811"
     y2="40.445801" /><linearGradient
     inkscape:collect="always"
     xlink:href="#aigrd11"
     id="linearGradient4160"
     gradientUnits="userSpaceOnUse"
     gradientTransform="matrix(0.9017,0.4324,-0.3215,0.6704,-21.8424,-36.6058)"
     x1="81.314499"
     y1="43.941399"
     x2="82.417198"
     y2="43.941399" /><linearGradient
     inkscape:collect="always"
     xlink:href="#aigrd12"
     id="linearGradient4162"
     gradientUnits="userSpaceOnUse"
     gradientTransform="translate(1,-10)"
     x1="37.671398"
     y1="40.775902"
     x2="34.3354"
     y2="39.095699" /></defs><sodipodi:namedview
   pagecolor="#ffffff"
   bordercolor="#666666"
   borderopacity="1"
   objecttolerance="10"
   gridtolerance="10"
   guidetolerance="10"
   inkscape:pageopacity="0"
   inkscape:pageshadow="2"
   inkscape:window-width="770"
   inkscape:window-height="480"
   id="namedview336"
   showgrid="false"
   inkscape:zoom="2.5513514"
   inkscape:cx="51.25"
   inkscape:cy="46.25"
   inkscape:window-x="5"
   inkscape:window-y="30"
   inkscape:window-maximized="0"
   inkscape:current-layer="svg2" />
	
	<g
   id="Layer_x0020_2"
   style="fill-rule:nonzero;clip-rule:nonzero;stroke:#000000;stroke-miterlimit:4;">
		<path
   style="fill:none;stroke:none;"
   d="M52,59H28V35h24v24z"
   id="path334" />
	</g>
<g
   id="g4114"
   transform="matrix(3.1426554,0,0,3.1426554,-87.84887,-80.846045)"><path
     d="m 45.8,26 c -0.3,0.1 -0.5,0.3 -0.6,0.5 -1,-0.1 -1.7,0.3 -2.1,1 0,0.1 -0.1,0.1 -0.1,0.2 0,0.1 -0.1,0.3 -0.3,0.6 -0.4,0.2 -0.8,0.5 -1,0.8 l -3.5,7.2 c -0.1,0.2 -0.2,0.5 -0.2,0.8 0,0.5 0.2,0.9 0.5,1.4 0,0.1 0,0.3 0,0.4 0,1.2 1,2.2 2.2,2.2 0.6,0 1.2,-0.3 1.6,-0.7 0.9,0 1.6,-0.4 2,-1 l 0,0 3.4,-7.2 0,0 c 0,0 0,-0.1 0,-0.1 0.1,-0.2 0.1,-0.5 0.1,-0.7 0,-0.2 0,-0.4 -0.1,-0.6 0.1,-0.3 0.3,-0.6 0.3,-0.6 0,0 0,-0.1 0,-0.1 0.1,-0.2 0.1,-0.4 0.1,-0.7 0,-0.5 -0.2,-1 -0.6,-1.4 0.1,-0.1 0.1,-0.3 0.1,-0.4 0,-0.5 -0.3,-1 -0.8,-1.2 -0.4,-0.2 -0.8,-0.2 -1.1,-0.1 z"
     id="path5"
     inkscape:connector-curvature="0"
     style="fill-rule:nonzero;stroke:#000000;stroke-width:0.87629998;stroke-miterlimit:4" /><g
     id="g7"
     style="fill-rule:nonzero;stroke:#000000;stroke-width:0.87629998;stroke-miterlimit:4"
     transform="translate(1,-10)"><path
       d="m 38.5,49.5 c -0.1,0.2 -0.8,1.6 -1.2,3.3 -0.1,0.6 -0.2,1.1 -0.2,1.6 0,1.5 0.6,2.6 1.6,3.3 1.4,0.8 3.8,0.8 7.3,-0.2 2.4,-0.7 4.6,-1.5 4.6,-1.5 0.4,-0.2 0.7,-0.7 0.5,-1.1 -0.2,-0.4 -0.7,-0.7 -1.1,-0.5 -1.2,0.5 -3.3,1.2 -5.4,1.7 -2.4,0.6 -4.2,0.6 -5,0.1 -0.8,-0.5 -1,-1.5 -0.6,-3.1 0.3,-1.4 1,-2.6 1,-2.6 0.2,-0.4 0.1,-1 -0.4,-1.2 -0.5,-0.2 -1,-0.1 -1.2,0.4 z"
       id="path9"
       inkscape:connector-curvature="0" /><path
       style="fill:#999999;stroke:none"
       d="m 38.9,49.7 c -0.1,0.2 -3,5.6 0.1,7.5 1.2,0.8 3.6,0.7 6.9,-0.2 2.4,-0.7 4.6,-1.5 4.6,-1.5 0.2,-0.1 0.3,-0.3 0.2,-0.6 -0.1,-0.2 -0.3,-0.3 -0.6,-0.2 -2.3,0.9 -8.6,3.1 -10.7,1.8 -1,-0.6 -1.2,-1.8 -0.8,-3.6 0.3,-1.5 1,-2.7 1,-2.7 0.1,-0.2 0,-0.5 -0.2,-0.6 -0.2,-0.1 -0.5,0 -0.6,0.2 z"
       id="path11"
       inkscape:connector-curvature="0" /></g><path
     style="fill:url(#radialGradient4140);fill-rule:nonzero;stroke:none"
     d="m 42,38.8 c 0,0.7 -0.6,1.3 -1.3,1.3 -0.7,0 -1.3,-0.6 -1.3,-1.3 0,-0.7 0.6,-1.3 1.3,-1.3 0.7,0 1.3,0.6 1.3,1.3 z"
     id="path40"
     inkscape:connector-curvature="0" /><path
     style="fill:url(#linearGradient4142);fill-rule:nonzero;stroke:none"
     d="m 43.6,38.8 c -0.9,1.7 -5.2,-0.5 -4.5,-2.1 l 3.4,-7.2 c 0,1.9 3.1,3.3 4.5,2.1 l -3.4,7.2 z"
     id="path71"
     inkscape:connector-curvature="0" /><path
     style="fill:url(#linearGradient4144);fill-rule:nonzero;stroke:none"
     d="m 47,31.5 c -0.3,0.8 -1.6,1 -2.9,0.5 -1.3,-0.5 -2,-1.6 -1.7,-2.4 0.3,-0.8 1.6,-1 2.9,-0.5 1.3,0.5 2,1.6 1.7,2.4 z"
     id="path80"
     inkscape:connector-curvature="0" /><path
     style="fill:url(#linearGradient4146);fill-rule:nonzero;stroke:#ffffff;stroke-width:0.87629998;stroke-miterlimit:4"
     d="m 47.4,29.4 c -0.3,0.5 -1.2,0.6 -2.2,0.2 -0.9,-0.4 -1.5,-1.2 -1.3,-1.8 0.3,-0.5 1.2,-0.6 2.2,-0.2 0.9,0.4 1.5,1.2 1.3,1.8 z"
     id="path103"
     inkscape:connector-curvature="0" /><path
     style="fill:url(#linearGradient4148);fill-rule:nonzero;stroke:none"
     d="m 45.7,29.7 c 0,0 -0.2,0 -0.5,-0.2 -0.3,-0.1 -0.4,-0.3 -0.4,-0.3 l 1.1,-2.3 c 0.1,-0.2 0.4,-0.2 0.6,-0.1 0.3,0.1 0.4,0.4 0.3,0.6 l -1.1,2.3 z"
     id="path132"
     inkscape:connector-curvature="0" /><path
     style="fill:url(#linearGradient4150);fill-rule:nonzero;stroke:none"
     d="M 45.2,29.6 C 44.3,29.2 43.8,28.5 43.9,28 l -0.8,1.7 c -0.3,1 2.3,2.6 3.5,1.6 l 0.9,-1.9 c -0.3,0.6 -1.3,0.7 -2.2,0.2 z"
     id="path165"
     inkscape:connector-curvature="0" /><path
     style="opacity:0.73000004;fill:#ffffff;fill-rule:nonzero;stroke:none"
     d="m 42.6,31.1 c -0.5,-0.7 -0.2,-1.2 -0.2,-1.2 0,1.1 0.9,1.8 2.7,2.3 0,0 -1.1,-0.1 -2,-0.7 -0.1,-0.1 -2.7,4.9 -2.7,4.8 0,0 2.4,-5.1 2.4,-5.1 -0.1,-0.1 -0.1,-0.1 -0.2,-0.2 z"
     id="path167"
     inkscape:connector-curvature="0" /><path
     d="m 37.8,26 c -0.3,0.1 -0.5,0.3 -0.6,0.5 -1,-0.1 -1.7,0.3 -2.1,1 0,0.1 -0.1,0.1 -0.1,0.2 0,0.1 -0.1,0.3 -0.3,0.6 -0.4,0.2 -0.8,0.5 -1,0.8 l -3.5,7.2 c -0.1,0.2 -0.2,0.5 -0.2,0.8 0,0.5 0.2,0.9 0.5,1.4 0,0.1 0,0.3 0,0.4 0,1.2 1,2.2 2.2,2.2 0.6,0 1.2,-0.3 1.6,-0.7 0.9,0 1.6,-0.4 2,-1 l 0,0 3.4,-7.2 0,0 c 0,0 0,-0.1 0,-0.1 0.1,-0.2 0.1,-0.5 0.1,-0.7 0,-0.2 0,-0.4 -0.1,-0.6 0.1,-0.3 0.3,-0.6 0.3,-0.6 0,0 0,-0.1 0,-0.1 0.1,-0.2 0.1,-0.4 0.1,-0.7 0,-0.5 -0.2,-1 -0.6,-1.4 0.1,-0.1 0.1,-0.3 0.1,-0.4 0,-0.5 -0.3,-1 -0.8,-1.2 -0.4,-0.2 -0.8,-0.2 -1.1,-0.1 z"
     id="path169"
     inkscape:connector-curvature="0"
     style="fill-rule:nonzero;stroke:#000000;stroke-width:0.87629998;stroke-miterlimit:4" /><g
     id="g171"
     style="fill-rule:nonzero;stroke:#000000;stroke-width:0.87629998;stroke-miterlimit:4"
     transform="translate(1,-10)"><path
       d="m 30.4,49.2 c -0.1,0.2 -0.8,1.6 -1.2,3.3 -0.1,0.5 -0.2,1 -0.2,1.5 0,1.5 0.6,2.6 1.6,3.3 1.4,0.8 3.8,0.8 7.3,-0.2 2.4,-0.7 9.4,-3.3 9.5,-3.3 0.4,-0.2 0.7,-0.7 0.5,-1.1 -0.2,-0.4 -0.7,-0.7 -1.1,-0.5 -1.2,0.5 -8.2,3 -10.2,3.5 -2.4,0.6 -4.2,0.6 -5,0.1 -0.8,-0.5 -1,-1.5 -0.6,-3.1 0.3,-1.4 1,-2.6 1,-2.6 0.2,-0.4 0.1,-1 -0.4,-1.2 -0.5,-0.2 -1,-0.1 -1.2,0.4 z"
       id="path173"
       inkscape:connector-curvature="0" /><path
       style="fill:#999999;stroke:none"
       d="m 30.8,49.4 c -0.1,0.2 -3,5.7 0.1,7.5 1.2,0.8 3.7,0.5 7.1,-0.4 2.4,-0.7 9.2,-3.1 9.3,-3.1 0.2,-0.1 0.3,-0.3 0.2,-0.6 -0.1,-0.2 -0.3,-0.3 -0.6,-0.2 -3.2,1.1 -12.7,5.2 -15.6,3.6 -1,-0.6 -1.2,-1.8 -0.8,-3.6 0.3,-1.5 1,-2.7 1,-2.7 0.1,-0.2 0,-0.5 -0.2,-0.6 -0.2,-0.1 -0.5,0 -0.6,0.2 z"
       id="path175"
       inkscape:connector-curvature="0" /></g><path
     style="fill:url(#radialGradient4152);fill-rule:nonzero;stroke:none"
     d="m 34,38.9 c 0,0.7 -0.6,1.3 -1.3,1.3 -0.7,0 -1.3,-0.6 -1.3,-1.3 0,-0.7 0.6,-1.3 1.3,-1.3 0.7,0 1.3,0.6 1.3,1.3 z"
     id="path204"
     inkscape:connector-curvature="0" /><path
     style="fill:url(#linearGradient4154);fill-rule:nonzero;stroke:none"
     d="M 35.5,38.8 C 34.6,40.5 30.3,38.3 31,36.7 l 3.4,-7.2 c 0,1.9 3.1,3.3 4.5,2.1 l -3.4,7.2 z"
     id="path233"
     inkscape:connector-curvature="0" /><path
     style="fill:url(#linearGradient4156);fill-rule:nonzero;stroke:none"
     d="m 38.9,31.6 c -0.3,0.8 -1.6,1 -2.9,0.5 -1.3,-0.5 -2,-1.6 -1.7,-2.4 0.3,-0.8 1.6,-1 2.9,-0.5 1.3,0.5 2,1.6 1.7,2.4 z"
     id="path244"
     inkscape:connector-curvature="0" /><path
     style="fill:url(#linearGradient4158);fill-rule:nonzero;stroke:#ffffff;stroke-width:0.87629998;stroke-miterlimit:4"
     d="M 39.3,29.4 C 39,29.9 38.1,30 37.1,29.6 36.2,29.2 35.6,28.4 35.8,27.8 36,27.2 37,27.2 38,27.6 c 0.9,0.4 1.5,1.2 1.3,1.8 z"
     id="path267"
     inkscape:connector-curvature="0" /><path
     style="fill:url(#linearGradient4160);fill-rule:nonzero;stroke:none"
     d="m 37.7,29.8 c 0,0 -0.2,0 -0.5,-0.2 -0.3,-0.1 -0.4,-0.3 -0.4,-0.3 L 37.9,27 c 0.1,-0.2 0.4,-0.2 0.6,-0.1 0.3,0.1 0.4,0.4 0.3,0.6 l -1.1,2.3 z"
     id="path296"
     inkscape:connector-curvature="0" /><path
     style="fill:url(#linearGradient4162);fill-rule:nonzero;stroke:none"
     d="M 37.1,29.6 C 36.2,29.2 35.7,28.5 35.8,28 L 35,29.7 c -0.3,1 2.3,2.6 3.5,1.6 l 0.9,-1.9 c -0.3,0.6 -1.3,0.7 -2.2,0.2 z"
     id="path329"
     inkscape:connector-curvature="0" /><path
     style="opacity:0.73000004;fill:#ffffff;fill-rule:nonzero;stroke:none"
     d="M 34.5,31.1 C 34,30.4 34.3,30 34.3,30 c 0,1.1 0.9,1.8 2.7,2.3 0,0 -1.1,-0.1 -2,-0.7 -0.1,-0.1 -2.7,4.9 -2.7,4.8 0,0 2.4,-5.1 2.4,-5.1 -0.1,-0.1 -0.1,-0.1 -0.2,-0.2 z"
     id="path331"
     inkscape:connector-curvature="0" /><g
     style="fill-rule:nonzero;stroke:#000000;stroke-miterlimit:4"
     id="Layer_x0020_2-3"
     transform="translate(1,-10)"><path
       id="path334-6"
       d="M 52,59 H 28 V 35 h 24 v 24 z"
       style="fill:none;stroke:none"
       inkscape:connector-curvature="0" /></g></g></svg>