<?xml version="1.0" encoding="UTF-8" standalone="no"?>
<!-- Generator: Adobe Illustrator 9.0, SVG Export Plug-In  -->

<svg
   xmlns:dc="http://purl.org/dc/elements/1.1/"
   xmlns:cc="http://creativecommons.org/ns#"
   xmlns:rdf="http://www.w3.org/1999/02/22-rdf-syntax-ns#"
   xmlns:svg="http://www.w3.org/2000/svg"
   xmlns="http://www.w3.org/2000/svg"
   xmlns:xlink="http://www.w3.org/1999/xlink"
   xmlns:sodipodi="http://sodipodi.sourceforge.net/DTD/sodipodi-0.dtd"
   xmlns:inkscape="http://www.inkscape.org/namespaces/inkscape"
   width="24pt"
   height="24pt"
   viewBox="0 0 24 24"
   xml:space="preserve"
   id="svg2"
   version="1.1"
   inkscape:version="0.47 r22583"
   sodipodi:docname="convert.svg"><metadata
   id="metadata64"><rdf:RDF><cc:Work
       rdf:about=""><dc:format>image/svg+xml</dc:format><dc:type
         rdf:resource="http://purl.org/dc/dcmitype/StillImage" /></cc:Work></rdf:RDF></metadata><defs
   id="defs62"><radialGradient
   id="radialGradient3684"
   cx="15.8252"
   cy="15.0303"
   r="6.4574"
   fx="15.8252"
   fy="15.0303"
   gradientUnits="userSpaceOnUse">
			
			
			
			
			
			
			
			<stop
   offset="0"
   style="stop-color:#ffffff;stop-opacity:1;"
   id="stop3686" /><stop
   id="stop3688"
   style="stop-color:#ff807f;stop-opacity:1;"
   offset="0.2413629" /><stop
   offset="0.63038462"
   style="stop-color:#dd203f;stop-opacity:1;"
   id="stop3690" />
			<stop
   offset="1"
   style="stop-color:#860200;stop-opacity:1;"
   id="stop3692" />
		</radialGradient><inkscape:perspective
   sodipodi:type="inkscape:persp3d"
   inkscape:vp_x="0 : 15 : 1"
   inkscape:vp_y="0 : 1000 : 0"
   inkscape:vp_z="30 : 15 : 1"
   inkscape:persp3d-origin="15 : 10 : 1"
   id="perspective66" />
		
		<linearGradient
   y2="7.8862"
   x2="13.6641"
   y1="7.8862"
   x1="1.958"
   gradientUnits="userSpaceOnUse"
   id="aigrd1">
			<stop
   id="stop8"
   style="stop-color:#0000f7;stop-opacity:1;"
   offset="0" />
			<stop
   id="stop10"
   style="stop-color:#00be8b;stop-opacity:1;"
   offset="1" />
		</linearGradient>
		
		<linearGradient
   y2="7.8862"
   x2="7.0854"
   y1="7.8862"
   x1="1.958"
   gradientUnits="userSpaceOnUse"
   id="aigrd2">
			<stop
   id="stop15"
   style="stop-color:#000bff;stop-opacity:1;"
   offset="0" />
			<stop
   id="stop17"
   style="stop-color:#00ffff;stop-opacity:1;"
   offset="1" />
		</linearGradient>
		
		
		
		<radialGradient
   gradientUnits="userSpaceOnUse"
   fy="15.0303"
   fx="15.8252"
   r="6.4574"
   cy="15.0303"
   cx="15.8252"
   id="aigrd3">
			
			
			
			
			
			
			
			<stop
   id="stop40"
   style="stop-color:#ffffff;stop-opacity:1;"
   offset="0" /><stop
   offset="0.5"
   style="stop-color:#ff807f;stop-opacity:1;"
   id="stop3680" /><stop
   id="stop3682"
   style="stop-color:#dd203f;stop-opacity:1;"
   offset="0.75" />
			<stop
   id="stop42"
   style="stop-color:#860200;stop-opacity:1;"
   offset="1" />
		</radialGradient>
		
		
		
		<linearGradient
   gradientTransform="matrix(0,-1,1,0,155.0742,125.2012)"
   y2="-137.4191"
   x2="118.8398"
   y1="-135.4287"
   x1="118.8398"
   gradientUnits="userSpaceOnUse"
   id="aigrd4">
			<stop
   id="stop51"
   style="stop-color:#FFBA00"
   offset="0" />
			<stop
   id="stop53"
   style="stop-color:#000000"
   offset="1" />
		</linearGradient>
		
	<linearGradient
   inkscape:collect="always"
   xlink:href="#aigrd4"
   id="linearGradient2892"
   gradientUnits="userSpaceOnUse"
   gradientTransform="matrix(0,-1,1,0,155.0742,125.2012)"
   x1="118.8398"
   y1="-135.4287"
   x2="118.8398"
   y2="-137.4191" /><radialGradient
   inkscape:collect="always"
   xlink:href="#radialGradient3684"
   id="radialGradient2897"
   gradientUnits="userSpaceOnUse"
   cx="15.8252"
   cy="15.0303"
   fx="15.8252"
   fy="15.0303"
   r="6.4574"
   gradientTransform="matrix(0.90977794,0.05708615,-0.03906656,0.62260103,2.0149642,4.7690202)" /><linearGradient
   inkscape:collect="always"
   xlink:href="#aigrd2"
   id="linearGradient2902"
   gradientUnits="userSpaceOnUse"
   x1="1.958"
   y1="7.8862"
   x2="7.0854"
   y2="7.8862" /><linearGradient
   inkscape:collect="always"
   xlink:href="#aigrd1"
   id="linearGradient2905"
   gradientUnits="userSpaceOnUse"
   x1="1.958"
   y1="7.8862"
   x2="13.6641"
   y2="7.8862" /></defs><sodipodi:namedview
   pagecolor="#ffffff"
   bordercolor="#666666"
   borderopacity="1"
   objecttolerance="10"
   gridtolerance="10"
   guidetolerance="10"
   inkscape:pageopacity="0"
   inkscape:pageshadow="2"
   inkscape:window-width="1106"
   inkscape:window-height="682"
   id="namedview60"
   showgrid="false"
   inkscape:zoom="7.8666667"
   inkscape:cx="15"
   inkscape:cy="15"
   inkscape:window-x="85"
   inkscape:window-y="43"
   inkscape:window-maximized="1"
   inkscape:current-layer="svg2" />
	<path
   id="path5"
   d="M 6.6,2.5 2,9.9 7.1,13.3 13.7,8.8 6.6,2.5 z"
   style="fill:none;stroke:#000000;stroke-width:2.51460004;stroke-linecap:round;stroke-linejoin:round;stroke-miterlimit:4" /><path
   id="path12"
   d="M 6.6,2.5 2,9.9 7.1,13.3 13.7,8.8 6.6,2.5 z"
   style="fill:url(#linearGradient2905);fill-rule:nonzero;stroke:none" /><path
   id="path19"
   d="M 6.6,2.5 7.1,13.3 2,9.9 6.6,2.4 z"
   style="fill:url(#linearGradient2902);fill-rule:nonzero;stroke:none" /><path
   id="path21"
   d="M 6.6,2.5 6.8,2.6 7.4,13.1 7.1,13.3 6.8,13.2 6.4,2.7 6.6,2.5 z"
   style="fill:#b8b8d9;fill-rule:nonzero;stroke:none" /><path
   id="path23"
   d="m 12,16.9 c 0,2.9 2.4,5.3 5.3,5.3 2.9,0 5.3,-2.4 5.3,-5.3 0,-2.9 -2.4,-5.3 -5.3,-5.3 -2.9,0 -5.3,2.4 -5.3,5.3 z"
   style="fill-rule:evenodd;stroke:#000000;stroke-width:0.83819997;stroke-miterlimit:4" /><path
   id="path44"
   d="m 21.7,16.9 c 0,2.4 -2,4.4 -4.4,4.4 -2.4,0 -4.4,-2 -4.4,-4.4 0,-2.4 2,-4.4 4.4,-4.4 2.4,0 4.4,2 4.4,4.4 z"
   style="fill:url(#radialGradient2897);fill-rule:evenodd;stroke:none" /><path
   id="path46"
   d="m 15.8,2 c -1.9,0 -2.5,0.9 -2.5,1.7 0,1.1 1.2,1.6 2.1,1.6 0,0 0.7,0 0.8,0 0,0 0,0.1 0,0.2 0,0 0,0 0,0 -0.5,0 -1.1,0 -1.1,0 -0.4,0 -0.7,0.2 -0.8,0.5 0,0.1 -0.1,0.2 -0.1,0.3 0,0.2 0.1,0.5 0.3,0.6 l 3.2,3.2 c 0.1,0.1 0.3,0.3 0.7,0.3 0.3,0 0.5,-0.1 0.7,-0.3 l 0,0 3.3,-3.2 c 0.3,-0.3 0.3,-0.6 0.2,-1 -0.1,-0.3 -0.5,-0.5 -0.8,-0.5 0,0 -0.6,0 -1.1,0 0,-0.2 0,-0.4 0,-0.4 C 20.7,4.1 20.4,3.3 19.8,2.7 19.1,2.3 18.2,2 17.2,2 h -1.4 z"
   style="fill-rule:nonzero;stroke:#000000;stroke-width:0.83819997;stroke-miterlimit:4" /><path
   id="path48"
   d="m 21.7,6.4 c 0.1,0 0.1,0.1 0,0.1 l -3.3,3.2 c -0.1,0.1 -0.1,0.1 -0.2,0 L 15,6.5 c 0,0 0,-0.1 0,-0.1 h 2 V 5.5 c 0,-0.3 -0.1,-1 -0.8,-1 h -0.8 c -0.3,0 -1.2,-0.2 -1.2,-0.8 0,-0.6 0.7,-0.9 1.7,-0.9 h 1.4 c 1.7,0 2.5,0.9 2.5,2.3 v 1.2 l 2,0 z"
   style="fill:#f0dc00;fill-rule:nonzero;stroke:none;fill-opacity:1" /><path
   id="path55"
   d="M 18.4,9.3 V 5 c 0,-0.6 -0.2,-1.4 -0.9,-1.5 1.2,0 1.8,0.9 1.8,1.4 v 1.8 h 1.5 l -2.4,2.6 z"
   style="opacity:0.2;fill:url(#linearGradient2892);fill-rule:nonzero;stroke:none" />
	<g
   id="Layer_x0020_3"
   style="fill-rule:nonzero;clip-rule:nonzero;stroke:#000000;stroke-miterlimit:4;">
		<path
   style="fill:none;stroke:none;"
   d="M24,24H0V0h24v24z"
   id="path58" />
	</g>
</svg>