<?xml version="1.0" encoding="UTF-8" standalone="no"?>
<!-- Creator: CorelDRAW -->

<svg
   xmlns:dc="http://purl.org/dc/elements/1.1/"
   xmlns:cc="http://creativecommons.org/ns#"
   xmlns:rdf="http://www.w3.org/1999/02/22-rdf-syntax-ns#"
   xmlns:svg="http://www.w3.org/2000/svg"
   xmlns="http://www.w3.org/2000/svg"
   xmlns:xlink="http://www.w3.org/1999/xlink"
   xmlns:sodipodi="http://sodipodi.sourceforge.net/DTD/sodipodi-0.dtd"
   xmlns:inkscape="http://www.inkscape.org/namespaces/inkscape"
   xml:space="preserve"
   width="256"
   height="256"
   style="fill-rule:evenodd"
   viewBox="0 0 88.069622 533.95137"
   id="svg2"
   sodipodi:version="0.32"
   inkscape:version="0.47 r22583"
   sodipodi:docname="media-codec.svg"
   inkscape:output_extension="org.inkscape.output.svg.inkscape"
   version="1.0"
   sodipodi:modified="true"><metadata
   id="metadata149"><rdf:RDF><cc:Work
       rdf:about=""><dc:format>image/svg+xml</dc:format><dc:type
         rdf:resource="http://purl.org/dc/dcmitype/StillImage" /><dc:title /></cc:Work></rdf:RDF></metadata><sodipodi:namedview
   inkscape:window-height="689"
   inkscape:window-width="1207"
   inkscape:pageshadow="2"
   inkscape:pageopacity="0.0"
   guidetolerance="10.0"
   gridtolerance="10.0"
   objecttolerance="10.0"
   borderopacity="1.0"
   bordercolor="#666666"
   pagecolor="#ffffff"
   id="base"
   inkscape:zoom="1.7982806"
   inkscape:cx="127.31178"
   inkscape:cy="131.25943"
   inkscape:window-x="-3"
   inkscape:window-y="51"
   inkscape:current-layer="svg2"
   showgrid="false"
   inkscape:window-maximized="1" />
 <defs
   id="defs4"><inkscape:perspective
   sodipodi:type="inkscape:persp3d"
   inkscape:vp_x="0 : 71.197495 : 1"
   inkscape:vp_y="0 : 1000 : 0"
   inkscape:vp_z="610.42615 : 71.197495 : 1"
   inkscape:persp3d-origin="305.21307 : 47.464996 : 1"
   id="perspective9" />
  <style
   type="text/css"
   id="style6">
   
    .str0 {stroke:#1F1A17;stroke-width:0.0762}
    .fil0 {fill:#1F1A17}
    .fil1 {fill:white}
   
  </style>
 
  <metadata
   id="CorelCorpID_0Corel-Layer" />
  
  
  
  
  
  
  
  
  
  
  
  
  
  
  
  
  
  
  
  
  
  
  
  
  
  
  
  
  
  
  
  
  
  
  
  
  
  
  
  
  
  
  
  
  
  
  
  
  
  
  
  
  
  
  
  
  
  
  
  
  
  
  
  
  
  
  
  
  
 <inkscape:perspective
   id="perspective2918"
   inkscape:persp3d-origin="0.5 : 0.33333333 : 1"
   inkscape:vp_z="1 : 0.5 : 1"
   inkscape:vp_y="0 : 1000 : 0"
   inkscape:vp_x="0 : 0.5 : 1"
   sodipodi:type="inkscape:persp3d" /><inkscape:perspective
   id="perspective3625"
   inkscape:persp3d-origin="0.5 : 0.33333333 : 1"
   inkscape:vp_z="1 : 0.5 : 1"
   inkscape:vp_y="0 : 1000 : 0"
   inkscape:vp_x="0 : 0.5 : 1"
   sodipodi:type="inkscape:persp3d" /><inkscape:perspective
   id="perspective3625-1"
   inkscape:persp3d-origin="0.5 : 0.33333333 : 1"
   inkscape:vp_z="1 : 0.5 : 1"
   inkscape:vp_y="0 : 1000 : 0"
   inkscape:vp_x="0 : 0.5 : 1"
   sodipodi:type="inkscape:persp3d" /><inkscape:perspective
   id="perspective2881"
   inkscape:persp3d-origin="0.5 : 0.33333333 : 1"
   inkscape:vp_z="1 : 0.5 : 1"
   inkscape:vp_y="0 : 1000 : 0"
   inkscape:vp_x="0 : 0.5 : 1"
   sodipodi:type="inkscape:persp3d" /><inkscape:perspective
   id="perspective3477"
   inkscape:persp3d-origin="0.5 : 0.33333333 : 1"
   inkscape:vp_z="1 : 0.5 : 1"
   inkscape:vp_y="0 : 1000 : 0"
   inkscape:vp_x="0 : 0.5 : 1"
   sodipodi:type="inkscape:persp3d" /><clipPath
   id="clip_bars_ean13"><path
     d="m-95,-75 h 190 v 140 h -6 v -10 h -86 v 10 h -6 v -10 h -86 v 10 h -6 v -140z"
     id="path493" /></clipPath><inkscape:perspective
   id="perspective3477-8"
   inkscape:persp3d-origin="0.5 : 0.33333333 : 1"
   inkscape:vp_z="1 : 0.5 : 1"
   inkscape:vp_y="0 : 1000 : 0"
   inkscape:vp_x="0 : 0.5 : 1"
   sodipodi:type="inkscape:persp3d" /><clipPath
   id="clip_bars_ean13-5"><path
     d="m-95,-75 h 190 v 140 h -6 v -10 h -86 v 10 h -6 v -10 h -86 v 10 h -6 v -140z"
     id="path493-7" /></clipPath><inkscape:perspective
   id="perspective3477-89"
   inkscape:persp3d-origin="0.5 : 0.33333333 : 1"
   inkscape:vp_z="1 : 0.5 : 1"
   inkscape:vp_y="0 : 1000 : 0"
   inkscape:vp_x="0 : 0.5 : 1"
   sodipodi:type="inkscape:persp3d" /><clipPath
   id="clip_bars_ean13-7"><path
     d="m-95,-75 h 190 v 140 h -6 v -10 h -86 v 10 h -6 v -10 h -86 v 10 h -6 v -140z"
     id="path493-76" /></clipPath><inkscape:perspective
   id="perspective3357"
   inkscape:persp3d-origin="0.5 : 0.33333333 : 1"
   inkscape:vp_z="1 : 0.5 : 1"
   inkscape:vp_y="0 : 1000 : 0"
   inkscape:vp_x="0 : 0.5 : 1"
   sodipodi:type="inkscape:persp3d" /><clipPath
   id="clip_bars_ean13-0"><path
     d="M -95,-75 H 95 V 65 H 89 V 55 H 3 V 65 H -3 V 55 h -86 v 10 h -6 V -75 z"
     id="path493-8" /></clipPath><inkscape:perspective
   id="perspective2829"
   inkscape:persp3d-origin="0.5 : 0.33333333 : 1"
   inkscape:vp_z="1 : 0.5 : 1"
   inkscape:vp_y="0 : 1000 : 0"
   inkscape:vp_x="0 : 0.5 : 1"
   sodipodi:type="inkscape:persp3d" /></defs>
 
<path
   sodipodi:type="arc"
   style="fill:#000000;fill-opacity:1;fill-rule:evenodd;stroke:none;opacity:1"
   id="path2820"
   sodipodi:cx="2.0170603"
   sodipodi:cy="3.2616172"
   sodipodi:rx="32.536057"
   sodipodi:ry="32.536057"
   d="m 34.553117,3.2616172 a 32.536057,32.536057 0 1 1 -65.072113,0 32.536057,32.536057 0 1 1 65.072113,0 z"
   transform="matrix(7.8426358,0,0,7.8426358,26.780298,234.59766)" /><g
   transform="matrix(2.0857475,0,0,2.0857475,48.206306,198.14602)"
   id="bars"
   clip-path="url(#clip_bars_ean13)"><use
     id="use501"
     xlink:href="#guard_left"
     transform="translate(-92,0)"
     x="0"
     y="0"
     width="1"
     height="1" /><use
     id="use503"
     xlink:href="#left_odd_0"
     transform="translate(-82,0)"
     x="0"
     y="0"
     width="1"
     height="1" /><use
     id="use505"
     xlink:href="#left_odd_7"
     transform="translate(-68,0)"
     x="0"
     y="0"
     width="1"
     height="1" /><use
     id="use507"
     xlink:href="#left_odd_5"
     transform="translate(-54,0)"
     x="0"
     y="0"
     width="1"
     height="1" /><use
     id="use509"
     xlink:href="#left_odd_6"
     transform="translate(-40,0)"
     x="0"
     y="0"
     width="1"
     height="1" /><use
     id="use511"
     xlink:href="#left_odd_7"
     transform="translate(-26,0)"
     x="0"
     y="0"
     width="1"
     height="1" /><use
     id="use513"
     xlink:href="#left_odd_8"
     transform="translate(-12,0)"
     x="0"
     y="0"
     width="1"
     height="1" /><use
     id="use515"
     xlink:href="#guard_center"
     x="0"
     y="0"
     width="1"
     height="1" /><use
     id="use517"
     xlink:href="#right_1"
     transform="translate(12,0)"
     x="0"
     y="0"
     width="1"
     height="1" /><use
     id="use519"
     xlink:href="#right_6"
     transform="translate(26,0)"
     x="0"
     y="0"
     width="1"
     height="1" /><use
     id="use521"
     xlink:href="#right_4"
     transform="translate(40,0)"
     x="0"
     y="0"
     width="1"
     height="1" /><use
     id="use523"
     xlink:href="#right_1"
     transform="translate(54,0)"
     x="0"
     y="0"
     width="1"
     height="1" /><use
     id="use525"
     xlink:href="#right_2"
     transform="translate(68,0)"
     x="0"
     y="0"
     width="1"
     height="1" /><use
     id="use527"
     xlink:href="#right_5"
     transform="translate(82,0)"
     x="0"
     y="0"
     width="1"
     height="1" /><use
     id="use529"
     xlink:href="#guard_right"
     transform="translate(92,0)"
     x="0"
     y="0"
     width="1"
     height="1" /></g><g
   transform="matrix(2.0857475,0,0,2.0857475,48.206306,198.14602)"
   id="bars-4"
   clip-path="url(#clip_bars_ean13-5)"><use
     id="use501-1"
     xlink:href="#guard_left"
     transform="translate(-92,0)"
     x="0"
     y="0"
     width="1"
     height="1" /><use
     id="use503-8"
     xlink:href="#left_odd_0"
     transform="translate(-82,0)"
     x="0"
     y="0"
     width="1"
     height="1" /><use
     id="use505-5"
     xlink:href="#left_odd_7"
     transform="translate(-68,0)"
     x="0"
     y="0"
     width="1"
     height="1" /><use
     id="use507-9"
     xlink:href="#left_odd_5"
     transform="translate(-54,0)"
     x="0"
     y="0"
     width="1"
     height="1" /><use
     id="use509-7"
     xlink:href="#left_odd_6"
     transform="translate(-40,0)"
     x="0"
     y="0"
     width="1"
     height="1" /><use
     id="use511-5"
     xlink:href="#left_odd_7"
     transform="translate(-26,0)"
     x="0"
     y="0"
     width="1"
     height="1" /><use
     id="use513-3"
     xlink:href="#left_odd_8"
     transform="translate(-12,0)"
     x="0"
     y="0"
     width="1"
     height="1" /><use
     id="use515-8"
     xlink:href="#guard_center"
     x="0"
     y="0"
     width="1"
     height="1" /><use
     id="use517-8"
     xlink:href="#right_1"
     transform="translate(12,0)"
     x="0"
     y="0"
     width="1"
     height="1" /><use
     id="use519-3"
     xlink:href="#right_6"
     transform="translate(26,0)"
     x="0"
     y="0"
     width="1"
     height="1" /><use
     id="use521-1"
     xlink:href="#right_4"
     transform="translate(40,0)"
     x="0"
     y="0"
     width="1"
     height="1" /><use
     id="use523-8"
     xlink:href="#right_1"
     transform="translate(54,0)"
     x="0"
     y="0"
     width="1"
     height="1" /><use
     id="use525-9"
     xlink:href="#right_2"
     transform="translate(68,0)"
     x="0"
     y="0"
     width="1"
     height="1" /><use
     id="use527-6"
     xlink:href="#right_5"
     transform="translate(82,0)"
     x="0"
     y="0"
     width="1"
     height="1" /><use
     id="use529-4"
     xlink:href="#guard_right"
     transform="translate(92,0)"
     x="0"
     y="0"
     width="1"
     height="1" /></g><g
   transform="matrix(2.0857475,0,0,2.0857475,48.206306,198.14602)"
   id="bars-43"
   clip-path="url(#clip_bars_ean13-7)"><use
     id="use501-0"
     xlink:href="#guard_left"
     transform="translate(-92,0)"
     x="0"
     y="0"
     width="1"
     height="1" /><use
     id="use503-3"
     xlink:href="#left_odd_0"
     transform="translate(-82,0)"
     x="0"
     y="0"
     width="1"
     height="1" /><use
     id="use505-0"
     xlink:href="#left_odd_7"
     transform="translate(-68,0)"
     x="0"
     y="0"
     width="1"
     height="1" /><use
     id="use507-92"
     xlink:href="#left_odd_5"
     transform="translate(-54,0)"
     x="0"
     y="0"
     width="1"
     height="1" /><use
     id="use509-5"
     xlink:href="#left_odd_6"
     transform="translate(-40,0)"
     x="0"
     y="0"
     width="1"
     height="1" /><use
     id="use511-4"
     xlink:href="#left_odd_7"
     transform="translate(-26,0)"
     x="0"
     y="0"
     width="1"
     height="1" /><use
     id="use513-0"
     xlink:href="#left_odd_8"
     transform="translate(-12,0)"
     x="0"
     y="0"
     width="1"
     height="1" /><use
     id="use515-5"
     xlink:href="#guard_center"
     x="0"
     y="0"
     width="1"
     height="1" /><use
     id="use517-9"
     xlink:href="#right_1"
     transform="translate(12,0)"
     x="0"
     y="0"
     width="1"
     height="1" /><use
     id="use519-4"
     xlink:href="#right_6"
     transform="translate(26,0)"
     x="0"
     y="0"
     width="1"
     height="1" /><use
     id="use521-6"
     xlink:href="#right_4"
     transform="translate(40,0)"
     x="0"
     y="0"
     width="1"
     height="1" /><use
     id="use523-9"
     xlink:href="#right_1"
     transform="translate(54,0)"
     x="0"
     y="0"
     width="1"
     height="1" /><use
     id="use525-2"
     xlink:href="#right_2"
     transform="translate(68,0)"
     x="0"
     y="0"
     width="1"
     height="1" /><use
     id="use527-2"
     xlink:href="#right_5"
     transform="translate(82,0)"
     x="0"
     y="0"
     width="1"
     height="1" /><use
     id="use529-47"
     xlink:href="#guard_right"
     transform="translate(92,0)"
     x="0"
     y="0"
     width="1"
     height="1" /></g><path
   style="fill:#98ffc4;fill-opacity:1;stroke:none"
   d="m -122.25812,364.58829 c -4.62597,0 -8.48917,3.79909 -8.48917,8.81568 l 0,2.28556 c 0,5.0166 3.86324,9.14218 8.48917,9.14218 l 83.259138,0 c 4.625919,0 8.162659,-4.12558 8.162659,-9.14218 l 0,-2.28556 c 0,-5.01665 -3.53674,-8.81568 -8.162659,-8.81568 l -29.385607,0 -24.48798,0 -29.385551,0 z m 116.8893029,0 c -4.6259686,0 -8.1626589,3.79909 -8.1626589,8.81568 l 0,2.28556 c -5e-5,5.0166 3.5367404,9.14218 8.1626589,9.14218 l 83.5856541,0 c 4.625916,0 8.16265,-4.12558 8.16265,-9.14218 l 0,-2.28556 c 0,-5.01665 -3.536734,-8.81568 -8.16265,-8.81568 l -29.385608,0 -24.487981,0 -29.7120651,0 z m 117.2158271,0 c -4.62597,0 -8.16266,3.79909 -8.16266,8.81568 l 0,2.28556 c -6e-5,5.0166 3.53669,9.14218 8.16266,9.14218 l 83.58564,0 c 4.62592,0 8.16266,-4.12558 8.16266,-9.14218 l 0,-2.28556 c 0,-5.01665 -3.53674,-8.81568 -8.16266,-8.81568 l -29.3856,0 -24.8145,0 -29.38554,0 z"
   id="path3249"
   sodipodi:nodetypes="ccccccccccccccccccccccccccccccccc" /><path
   sodipodi:nodetypes="ccccccccccccccccccccccccccccccccc"
   id="path3673"
   d="m -122.25812,339.55934 c -4.62597,0 -8.48917,3.79909 -8.48917,8.81568 l 0,2.28556 c 0,5.0166 3.86324,9.14218 8.48917,9.14218 l 83.259138,0 c 4.625919,0 8.162659,-4.12558 8.162659,-9.14218 l 0,-2.28556 c 0,-5.01665 -3.53674,-8.81568 -8.162659,-8.81568 l -29.385607,0 -24.48798,0 -29.385551,0 z m 116.8893029,0 c -4.6259686,0 -8.1626589,3.79909 -8.1626589,8.81568 l 0,2.28556 c -5e-5,5.0166 3.5367404,9.14218 8.1626589,9.14218 l 83.5856541,0 c 4.625916,0 8.16265,-4.12558 8.16265,-9.14218 l 0,-2.28556 c 0,-5.01665 -3.536734,-8.81568 -8.16265,-8.81568 l -29.385608,0 -24.487981,0 -29.7120651,0 z m 117.2158271,0 c -4.62597,0 -8.16266,3.79909 -8.16266,8.81568 l 0,2.28556 c -6e-5,5.0166 3.53669,9.14218 8.16266,9.14218 l 83.58564,0 c 4.62592,0 8.16266,-4.12558 8.16266,-9.14218 l 0,-2.28556 c 0,-5.01665 -3.53674,-8.81568 -8.16266,-8.81568 l -29.3856,0 -24.8145,0 -29.38554,0 z"
   style="fill:#00ffff;fill-opacity:1;stroke:none" /><path
   style="fill:#00ff00;fill-opacity:1;stroke:none"
   d="m -122.25812,314.53039 c -4.62597,0 -8.48917,3.79909 -8.48917,8.81568 l 0,2.28556 c 0,5.0166 3.86324,9.14218 8.48917,9.14218 l 83.259138,0 c 4.625919,0 8.162659,-4.12558 8.162659,-9.14218 l 0,-2.28556 c 0,-5.01665 -3.53674,-8.81568 -8.162659,-8.81568 l -29.385607,0 -24.48798,0 -29.385551,0 z m 116.8893029,0 c -4.6259686,0 -8.1626589,3.79909 -8.1626589,8.81568 l 0,2.28556 c -5e-5,5.0166 3.5367404,9.14218 8.1626589,9.14218 l 83.5856541,0 c 4.625916,0 8.16265,-4.12558 8.16265,-9.14218 l 0,-2.28556 c 0,-5.01665 -3.536734,-8.81568 -8.16265,-8.81568 l -29.385608,0 -24.487981,0 -29.7120651,0 z m 117.2158271,0 c -4.62597,0 -8.16266,3.79909 -8.16266,8.81568 l 0,2.28556 c -6e-5,5.0166 3.53669,9.14218 8.16266,9.14218 l 83.58564,0 c 4.62592,0 8.16266,-4.12558 8.16266,-9.14218 l 0,-2.28556 c 0,-5.01665 -3.53674,-8.81568 -8.16266,-8.81568 l -29.3856,0 -24.8145,0 -29.38554,0 z"
   id="path3675"
   sodipodi:nodetypes="ccccccccccccccccccccccccccccccccc" /><path
   sodipodi:nodetypes="ccccccccccccccccccccccccccccccccc"
   id="path3677"
   d="m -122.25812,289.50139 c -4.62597,0 -8.48917,3.79909 -8.48917,8.81568 l 0,2.28556 c 0,5.0166 3.86324,9.14218 8.48917,9.14218 l 83.259138,0 c 4.625919,0 8.162659,-4.12558 8.162659,-9.14218 l 0,-2.28556 c 0,-5.01665 -3.53674,-8.81568 -8.162659,-8.81568 l -29.385607,0 -24.48798,0 -29.385551,0 z m 116.8893029,0 c -4.6259686,0 -8.1626589,3.79909 -8.1626589,8.81568 l 0,2.28556 c -5e-5,5.0166 3.5367404,9.14218 8.1626589,9.14218 l 83.5856541,0 c 4.625916,0 8.16265,-4.12558 8.16265,-9.14218 l 0,-2.28556 c 0,-5.01665 -3.536734,-8.81568 -8.16265,-8.81568 l -29.385608,0 -24.487981,0 -29.7120651,0 z m 117.2158271,0 c -4.62597,0 -8.16266,3.79909 -8.16266,8.81568 l 0,2.28556 c -6e-5,5.0166 3.53669,9.14218 8.16266,9.14218 l 83.58564,0 c 4.62592,0 8.16266,-4.12558 8.16266,-9.14218 l 0,-2.28556 c 0,-5.01665 -3.53674,-8.81568 -8.16266,-8.81568 l -29.3856,0 -24.8145,0 -29.38554,0 z"
   style="fill:#baff00;fill-opacity:1;stroke:none" /><path
   style="fill:#ffff00;fill-opacity:1;stroke:none"
   d="m -122.25812,264.47244 c -4.62597,0 -8.48917,3.79909 -8.48917,8.81568 l 0,2.28556 c 0,5.0166 3.86324,9.14218 8.48917,9.14218 l 83.259138,0 c 4.625919,0 8.162659,-4.12558 8.162659,-9.14218 l 0,-2.28556 c 0,-5.01665 -3.53674,-8.81568 -8.162659,-8.81568 l -29.385607,0 -24.48798,0 -29.385551,0 z m 234.10513,0 c -4.62597,0 -8.16266,3.79909 -8.16266,8.81568 l 0,2.28556 c -6e-5,5.0166 3.53669,9.14218 8.16266,9.14218 l 83.58564,0 c 4.62592,0 8.16266,-4.12558 8.16266,-9.14218 l 0,-2.28556 c 0,-5.01665 -3.53674,-8.81568 -8.16266,-8.81568 l -29.3856,0 -24.8145,0 -29.38554,0 z"
   id="path3679"
   sodipodi:nodetypes="cccccccccccccccccccccc" /><path
   sodipodi:nodetypes="cccccccccccccccccccccc"
   id="path3681"
   d="m -122.25812,239.44349 c -4.62597,0 -8.48917,3.79909 -8.48917,8.81568 l 0,2.28556 c 0,5.0166 3.86324,9.14218 8.48917,9.14218 l 83.259138,0 c 4.625919,0 8.162659,-4.12558 8.162659,-9.14218 l 0,-2.28556 c 0,-5.01665 -3.53674,-8.81568 -8.162659,-8.81568 l -29.385607,0 -24.48798,0 -29.385551,0 z m 234.10513,0 c -4.62597,0 -8.16266,3.79909 -8.16266,8.81568 l 0,2.28556 c -6e-5,5.0166 3.53669,9.14218 8.16266,9.14218 l 83.58564,0 c 4.62592,0 8.16266,-4.12558 8.16266,-9.14218 l 0,-2.28556 c 0,-5.01665 -3.53674,-8.81568 -8.16266,-8.81568 l -29.3856,0 -24.8145,0 -29.38554,0 z"
   style="fill:#ff7500;fill-opacity:1;stroke:none" /><path
   sodipodi:nodetypes="ccccccccccc"
   id="path3683"
   d="m 111.84701,214.41449 c -4.62597,0 -8.16266,3.79909 -8.16266,8.81568 l 0,2.28556 c -6e-5,5.0166 3.53669,9.14218 8.16266,9.14218 l 83.58564,0 c 4.62592,0 8.16266,-4.12558 8.16266,-9.14218 l 0,-2.28556 c 0,-5.01665 -3.53674,-8.81568 -8.16266,-8.81568 l -29.3856,0 -24.8145,0 -29.38554,0 z"
   style="fill:#ff0000;fill-opacity:1;stroke:none" /><path
   style="fill:#b40000;fill-opacity:1;stroke:none"
   d="m 111.84701,189.38554 c -4.62597,0 -8.16266,3.79909 -8.16266,8.81568 l 0,2.28556 c -6e-5,5.0166 3.53669,9.14218 8.16266,9.14218 l 83.58564,0 c 4.62592,0 8.16266,-4.12558 8.16266,-9.14218 l 0,-2.28556 c 0,-5.01665 -3.53674,-8.81568 -8.16266,-8.81568 l -29.3856,0 -24.8145,0 -29.38554,0 z"
   id="path3685"
   sodipodi:nodetypes="ccccccccccc" /><path
   sodipodi:nodetypes="ccccccccccc"
   id="path3695"
   d="m 111.84701,164.35659 c -4.62597,0 -8.16266,3.79909 -8.16266,8.81568 l 0,2.28556 c -6e-5,5.0166 3.53669,9.14218 8.16266,9.14218 l 83.58564,0 c 4.62592,0 8.16266,-4.12558 8.16266,-9.14218 l 0,-2.28556 c 0,-5.01665 -3.53674,-8.81568 -8.16266,-8.81568 l -29.3856,0 -24.8145,0 -29.38554,0 z"
   style="fill:#620000;fill-opacity:1;stroke:none" /></svg>