<?xml version="1.0" encoding="UTF-8" standalone="no"?>
<!-- Creator: CorelDRAW -->

<svg
   xmlns:dc="http://purl.org/dc/elements/1.1/"
   xmlns:cc="http://creativecommons.org/ns#"
   xmlns:rdf="http://www.w3.org/1999/02/22-rdf-syntax-ns#"
   xmlns:svg="http://www.w3.org/2000/svg"
   xmlns="http://www.w3.org/2000/svg"
   xmlns:xlink="http://www.w3.org/1999/xlink"
   xmlns:sodipodi="http://sodipodi.sourceforge.net/DTD/sodipodi-0.dtd"
   xmlns:inkscape="http://www.inkscape.org/namespaces/inkscape"
   height="256"
   id="svg2"
   inkscape:version="0.47 r22583"
   sodipodi:docname="media-artist.svg"
   sodipodi:version="0.32"
   space="preserve"
   style="fill-rule:evenodd"
   viewBox="0 0 24.569416 24.569416"
   width="256"
   version="1.1"
   inkscape:export-filename="/media/raid/thd/Ztemp/art2.png"
   inkscape:export-xdpi="7.73"
   inkscape:export-ydpi="7.73">
  <metadata
     id="metadata3">
    <rdf:RDF>
      <cc:Work
         rdf:about="">
        <dc:title />
        <dc:description />
        <dc:subject>
          <rdf:Bag>
            <rdf:li>info</rdf:li>
            <rdf:li>icon</rdf:li>
            <rdf:li>information</rdf:li>
            <rdf:li>sign</rdf:li>
          </rdf:Bag>
        </dc:subject>
        <dc:publisher>
          <cc:Agent
             rdf:about="http://www.openclipart.org/">
            <dc:title>Open Clip Art Library</dc:title>
          </cc:Agent>
        </dc:publisher>
        <dc:creator>
          <cc:Agent>
            <dc:title>mo</dc:title>
          </cc:Agent>
        </dc:creator>
        <dc:rights>
          <cc:Agent>
            <dc:title>mo</dc:title>
          </cc:Agent>
        </dc:rights>
        <dc:date />
        <dc:format>image/svg+xml</dc:format>
        <dc:type
           rdf:resource="http://purl.org/dc/dcmitype/StillImage" />
        <cc:license
           rdf:resource="http://web.resource.org/cc/PublicDomain" />
        <dc:language>en</dc:language>
      </cc:Work>
      <cc:License
         rdf:about="http://web.resource.org/cc/PublicDomain">
        <cc:permits
           rdf:resource="http://web.resource.org/cc/Reproduction" />
        <cc:permits
           rdf:resource="http://web.resource.org/cc/Distribution" />
        <cc:permits
           rdf:resource="http://web.resource.org/cc/DerivativeWorks" />
      </cc:License>
    </rdf:RDF>
  </metadata>
  <sodipodi:namedview
     bordercolor="#666666"
     borderopacity="1.0"
     id="base"
     inkscape:current-layer="svg2"
     inkscape:cx="9.8640205"
     inkscape:cy="140.42002"
     inkscape:pageopacity="0.0"
     inkscape:pageshadow="2"
     inkscape:window-height="774"
     inkscape:window-width="1243"
     inkscape:window-x="34"
     inkscape:window-y="1"
     inkscape:zoom="1.4253417"
     pagecolor="#ffffff"
     showgrid="false"
     inkscape:window-maximized="1" />
  <defs
     id="defs4">
    <inkscape:perspective
       sodipodi:type="inkscape:persp3d"
       inkscape:vp_x="0 : 65.598305 : 1"
       inkscape:vp_y="0 : 1000 : 0"
       inkscape:vp_z="131.19661 : 65.598305 : 1"
       inkscape:persp3d-origin="65.598305 : 43.732203 : 1"
       id="perspective10" />
    <style
       id="style6"
       type="text/css">
   
    .fil0 {fill:#EF7900}
   
  </style>
    <inkscape:perspective
       id="perspective2841"
       inkscape:persp3d-origin="0.5 : 0.33333333 : 1"
       inkscape:vp_z="1 : 0.5 : 1"
       inkscape:vp_y="0 : 1000 : 0"
       inkscape:vp_x="0 : 0.5 : 1"
       sodipodi:type="inkscape:persp3d" />
    <inkscape:perspective
       id="perspective2870"
       inkscape:persp3d-origin="0.5 : 0.33333333 : 1"
       inkscape:vp_z="1 : 0.5 : 1"
       inkscape:vp_y="0 : 1000 : 0"
       inkscape:vp_x="0 : 0.5 : 1"
       sodipodi:type="inkscape:persp3d" />
    <inkscape:perspective
       id="perspective2844"
       inkscape:persp3d-origin="0.5 : 0.33333333 : 1"
       inkscape:vp_z="1 : 0.5 : 1"
       inkscape:vp_y="0 : 1000 : 0"
       inkscape:vp_x="0 : 0.5 : 1"
       sodipodi:type="inkscape:persp3d" />
    <inkscape:perspective
       id="perspective2928"
       inkscape:persp3d-origin="0.5 : 0.33333333 : 1"
       inkscape:vp_z="1 : 0.5 : 1"
       inkscape:vp_y="0 : 1000 : 0"
       inkscape:vp_x="0 : 0.5 : 1"
       sodipodi:type="inkscape:persp3d" />
    <inkscape:perspective
       id="perspective19467"
       inkscape:persp3d-origin="0.5 : 0.33333333 : 1"
       inkscape:vp_z="1 : 0.5 : 1"
       inkscape:vp_y="0 : 1000 : 0"
       inkscape:vp_x="0 : 0.5 : 1"
       sodipodi:type="inkscape:persp3d" />
    <radialGradient
       cx="6.0044956"
       cy="9.9044514"
       r="6.0044961"
       fx="6.0044956"
       fy="9.9044514"
       id="radialGradient3644"
       xlink:href="#linearGradient3803"
       gradientUnits="userSpaceOnUse"
       gradientTransform="matrix(0.7071068,-0.7071068,0.7178292,0.7178292,94.015238,30.853488)" />
    <linearGradient
       id="linearGradient3803">
      <stop
         id="stop3805"
         style="stop-color:#ce5c00;stop-opacity:1"
         offset="0" />
      <stop
         id="stop3807"
         style="stop-color:#ce5c00;stop-opacity:0"
         offset="1" />
    </linearGradient>
    <radialGradient
       cx="61.871639"
       cy="14.900355"
       r="7.0694604"
       fx="61.871639"
       fy="14.900355"
       id="radialGradient3646"
       xlink:href="#linearGradient3596"
       gradientUnits="userSpaceOnUse"
       gradientTransform="matrix(0.5132442,-0.5132442,0.5105902,0.5105902,65.945539,57.928569)" />
    <linearGradient
       id="linearGradient3596">
      <stop
         id="stop3598"
         style="stop-color:#fcaf3e;stop-opacity:1"
         offset="0" />
      <stop
         id="stop3600"
         style="stop-color:#fcaf3e;stop-opacity:0"
         offset="1" />
    </linearGradient>
    <linearGradient
       x1="403.81253"
       y1="339.44629"
       x2="411.47675"
       y2="339.44629"
       id="linearGradient3648"
       xlink:href="#linearGradient19089"
       gradientUnits="userSpaceOnUse"
       gradientTransform="matrix(0.4180431,0,0,0.2840879,-80.993726,-57.41686)" />
    <linearGradient
       id="linearGradient19089">
      <stop
         id="stop19091"
         style="stop-color:#f2f5fa;stop-opacity:1"
         offset="0" />
      <stop
         id="stop19093"
         style="stop-color:#f2f5fa;stop-opacity:0"
         offset="1" />
    </linearGradient>
    <linearGradient
       x1="403.81253"
       y1="339.44629"
       x2="411.47675"
       y2="339.44629"
       id="linearGradient3650"
       xlink:href="#linearGradient19089"
       gradientUnits="userSpaceOnUse"
       gradientTransform="matrix(0.418038,0,0,0.2830939,-80.993033,-57.11616)" />
    <linearGradient
       id="linearGradient19484">
      <stop
         id="stop19486"
         style="stop-color:#f2f5fa;stop-opacity:1"
         offset="0" />
      <stop
         id="stop19488"
         style="stop-color:#f2f5fa;stop-opacity:0"
         offset="1" />
    </linearGradient>
    <linearGradient
       x1="403.81253"
       y1="339.44629"
       x2="411.47675"
       y2="339.44629"
       id="linearGradient3652"
       xlink:href="#linearGradient19089"
       gradientUnits="userSpaceOnUse"
       gradientTransform="matrix(0.4180405,0,0,0.2835909,-80.99324,-57.303328)" />
    <linearGradient
       id="linearGradient19491">
      <stop
         id="stop19493"
         style="stop-color:#f2f5fa;stop-opacity:1"
         offset="0" />
      <stop
         id="stop19495"
         style="stop-color:#f2f5fa;stop-opacity:0"
         offset="1" />
    </linearGradient>
    <linearGradient
       x1="403.81253"
       y1="339.44629"
       x2="411.47675"
       y2="339.44629"
       id="linearGradient3654"
       xlink:href="#linearGradient19089"
       gradientUnits="userSpaceOnUse"
       gradientTransform="matrix(0.4180431,0,0,0.2840879,-80.993605,-57.453594)" />
    <linearGradient
       id="linearGradient19498">
      <stop
         id="stop19500"
         style="stop-color:#f2f5fa;stop-opacity:1"
         offset="0" />
      <stop
         id="stop19502"
         style="stop-color:#f2f5fa;stop-opacity:0"
         offset="1" />
    </linearGradient>
    <radialGradient
       cx="96.125526"
       cy="2.3873661"
       r="2.0775449"
       fx="96.125526"
       fy="2.3873661"
       id="radialGradient3656"
       xlink:href="#linearGradient3803"
       gradientUnits="userSpaceOnUse"
       gradientTransform="matrix(-0.9031052,-0.6754471,-1.0689303,0.6274572,178.26778,101.35495)" />
    <linearGradient
       id="linearGradient19505">
      <stop
         id="stop19507"
         style="stop-color:#ce5c00;stop-opacity:1"
         offset="0" />
      <stop
         id="stop19509"
         style="stop-color:#ce5c00;stop-opacity:0"
         offset="1" />
    </linearGradient>
    <radialGradient
       cx="96.125526"
       cy="2.6118443"
       r="1.628588"
       fx="96.125526"
       fy="2.6118443"
       id="radialGradient3658"
       xlink:href="#linearGradient3596"
       gradientUnits="userSpaceOnUse"
       gradientTransform="matrix(-1.2736689,-1.0103598,-1.7965263,0.994264,216.02874,132.52382)" />
    <linearGradient
       id="linearGradient19512">
      <stop
         id="stop19514"
         style="stop-color:#fcaf3e;stop-opacity:1"
         offset="0" />
      <stop
         id="stop19516"
         style="stop-color:#fcaf3e;stop-opacity:0"
         offset="1" />
    </linearGradient>
    <inkscape:perspective
       id="perspective2825"
       inkscape:persp3d-origin="0.5 : 0.33333333 : 1"
       inkscape:vp_z="1 : 0.5 : 1"
       inkscape:vp_y="0 : 1000 : 0"
       inkscape:vp_x="0 : 0.5 : 1"
       sodipodi:type="inkscape:persp3d" />
    <clipPath
       clipPathUnits="userSpaceOnUse"
       id="clipPath608">
      <path
         d="m 2610.66,3005.65 c -5.01,-17 -19.77,-28.38 -21.49,-34.4 -1.72,-6.01 -18.92,-24.07 -18.92,-35.25 0,-11.18 2.59,-25.8 2.59,-31.81 0,-6.02 -4.3,-20.64 -12.05,-26.66 -7.73,-6.01 -35.24,-28.37 -40.41,-32.67 -5.16,-4.29 -13.76,-16.33 -13.76,-26.65 0,-10.32 1.73,-25.8 -4.29,-35.25 -6.01,-9.46 -16.32,-25.79 -16.32,-29.24 0,-3.44 1.71,-7.73 -1.74,-17.19 -3.44,-9.46 -7.74,-25.79 -8.61,-31.82 -0.84,-6.01 -6,-28.37 9.48,-39.54 15.48,-11.19 49.01,-35.26 49.01,-37.83 0,-2.58 -18.93,-10.32 -24.08,-20.64 -5.15,-10.32 -18.92,-33.53 -6.02,-74.8 12.89,-41.27 16.33,-30.95 16.33,-52.45 0,-21.49 10.32,-61.9 13.77,-73.94 3.43,-12.04 8.59,-48.15 12.89,-55.89 4.3,-7.74 23.21,-60.18 23.21,-60.18 l 125.68,0.86 c 0,0 0.88,39.54 0,45.57 -0.85,6.01 8.45,49 2.43,60.18 -6.01,11.18 -11.17,42.13 -11.17,49.87 0,7.74 10.32,48.15 12.04,53.31 1.72,5.16 15.48,35.25 13.75,42.99 -1.72,7.74 -3.43,34.39 -4.31,43.85 -0.85,9.46 -4.29,35.25 -4.29,35.25 0,0 6.88,6.02 6.88,15.48 0,9.45 11.18,19.77 12.9,17.18 1.71,-2.56 9.44,-12.88 16.33,-12.88 6.88,0 12.9,5.15 20.63,11.17 7.75,6.02 18.93,18.91 10.33,24.07 -8.6,5.16 89.41,67.93 95.43,72.22 6.02,4.3 20.65,1.72 24.08,0 3.42,-1.71 61.9,24.94 64.49,25.8 2.57,0.86 -8.6,31.82 -18.06,31.82 -9.45,0 -63.63,-25.8 -64.49,-29.24 -0.86,-3.44 -3.44,-2.58 -3.44,-5.16 0,-2.58 -100.59,-64.49 -100.59,-64.49 0,0 -10.32,31.82 -13.75,35.26 -3.45,3.44 -5.16,30.09 -0.86,43.84 4.29,13.77 5.15,35.26 -6.89,48.16 -12.03,12.89 -17.19,17.19 -23.21,24.93 -6.02,7.74 -17.31,80.65 -18.07,87.7 -1.71,16.33 -2.56,21.5 -2.56,21.5 0,0 0,12.03 -12.03,25.79 -12.05,13.75 -29.25,24.07 -39.56,23.21 -10.32,-0.86 -36.97,2.58 -41.28,-12.03 z"
         id="path610" />
    </clipPath>
    <inkscape:perspective
       id="perspective2878"
       inkscape:persp3d-origin="0.5 : 0.33333333 : 1"
       inkscape:vp_z="1 : 0.5 : 1"
       inkscape:vp_y="0 : 1000 : 0"
       inkscape:vp_x="0 : 0.5 : 1"
       sodipodi:type="inkscape:persp3d" />
    <linearGradient
       id="gradient0"
       gradientUnits="userSpaceOnUse"
       x1="73.739998"
       y1="-57.07"
       x2="116.61"
       y2="-8.0500002">
      <stop
         offset="0"
         stop-color="#ffdb97"
         id="stop11" />
      <stop
         offset="1"
         stop-color="#fcaf29"
         id="stop13" />
    </linearGradient>
    <linearGradient
       id="gradient1"
       gradientUnits="userSpaceOnUse"
       x1="-43.970001"
       y1="-33.98"
       x2="-24.83"
       y2="-51.950001">
      <stop
         offset="0"
         stop-color="#fff7ea"
         id="stop18" />
      <stop
         offset="0.9962"
         stop-color="#fdd17b"
         id="stop20" />
    </linearGradient>
    <linearGradient
       id="gradient2"
       gradientUnits="userSpaceOnUse"
       x1="54.23"
       y1="-52.610001"
       x2="75.839996"
       y2="-45.970001">
      <stop
         offset="0"
         stop-color="#c85805"
         id="stop25" />
      <stop
         offset="1"
         stop-color="#f06306"
         id="stop27" />
    </linearGradient>
    <linearGradient
       id="gradient3"
       gradientUnits="userSpaceOnUse"
       x1="28.92"
       y1="-64"
       x2="39.07"
       y2="-64">
      <stop
         offset="0"
         stop-color="#c85804"
         id="stop34" />
      <stop
         offset="1"
         stop-color="#dc952f"
         id="stop36" />
    </linearGradient>
    <radialGradient
       id="gradient4"
       gradientUnits="userSpaceOnUse"
       cx="0"
       cy="0"
       r="64"
       gradientTransform="matrix(0.2361,0,0,0.2321,22.625,6.375)">
      <stop
         offset="0"
         stop-color="#f2f2f2"
         id="stop43" />
      <stop
         offset="1"
         stop-color="#bca184"
         id="stop45" />
      <stop
         offset="0.6742"
         stop-color="#7d7a7a"
         id="stop47" />
    </radialGradient>
    <linearGradient
       id="gradient5"
       gradientUnits="userSpaceOnUse"
       x1="54.23"
       y1="-52.610001"
       x2="75.839996"
       y2="-45.970001">
      <stop
         offset="0"
         stop-color="#c85805"
         id="stop52" />
      <stop
         offset="1"
         stop-color="#f06306"
         id="stop54" />
    </linearGradient>
    <linearGradient
       y2="-45.970001"
       x2="75.839996"
       y1="-52.610001"
       x1="54.23"
       gradientUnits="userSpaceOnUse"
       id="linearGradient2950"
       xlink:href="#gradient5"
       inkscape:collect="always" />
  </defs>
  <path
     sodipodi:type="arc"
     style="fill:#000000;fill-opacity:1;stroke:none"
     id="path2820"
     sodipodi:cx="2.0170603"
     sodipodi:cy="3.2616172"
     sodipodi:rx="32.536057"
     sodipodi:ry="32.536057"
     d="m 34.553117,3.2616172 a 32.536057,32.536057 0 1 1 -65.072113,0 32.536057,32.536057 0 1 1 65.072113,0 z"
     transform="matrix(0.36087365,0,0,0.36087365,11.556804,11.107676)" />
  <g
     transform="matrix(0.33390081,0,0,0.33390081,2.9797793,2.163554)"
     id="g4">
    <path
       style="fill:#010101;fill-opacity:0.42350003"
       d="m 28,64 c 0,0 5,0 10,0 5,0 10.2,-3.04 14.75,-2.88 10.37,0.38 14.5,-4.75 8.12,-6.75 C 57.04,53.17 52,53.25 49.12,51.25 45.45,48.69 38,48 38,48 v 7 l -10,9 z"
       id="path6" />
    <path
       style="fill:none;stroke:#000000;stroke-width:4"
       d="m 12,18 v 17 l 4,4 v 17 l 4,2 2,0 1,1.5 5,2.5 8,-8 V 43 l 4,-4 V 21 l -19,-9 -9,6 z"
       id="path8" />
    <linearGradient
       id="linearGradient2904"
       gradientUnits="userSpaceOnUse"
       x1="73.739998"
       y1="-57.07"
       x2="116.61"
       y2="-8.0500002">
      <stop
         offset="0"
         stop-color="#ffdb97"
         id="stop2906" />
      <stop
         offset="1"
         stop-color="#fcaf29"
         id="stop2908" />
    </linearGradient>
    <path
       style="fill:url(#gradient0)"
       d="m 12,18 v 17 l 4,4 v 17 l 4,2 2,0 1,1.5 5,2.5 V 45 h 4 V 27 L 12,18 z"
       id="path15" />
    <linearGradient
       id="linearGradient2911"
       gradientUnits="userSpaceOnUse"
       x1="-43.970001"
       y1="-33.98"
       x2="-24.83"
       y2="-51.950001">
      <stop
         offset="0"
         stop-color="#fff7ea"
         id="stop2913" />
      <stop
         offset="0.9962"
         stop-color="#fdd17b"
         id="stop2915" />
    </linearGradient>
    <path
       style="fill:url(#gradient1)"
       d="M 12,18 32,27 40,21 26,20 31.99,16.99 21,12 12,18 z"
       id="path22" />
    <linearGradient
       id="linearGradient2918"
       gradientUnits="userSpaceOnUse"
       x1="54.23"
       y1="-52.610001"
       x2="75.839996"
       y2="-45.970001">
      <stop
         offset="0"
         stop-color="#c85805"
         id="stop2920" />
      <stop
         offset="1"
         stop-color="#f06306"
         id="stop2922" />
    </linearGradient>
    <path
       style="fill:url(#gradient2)"
       d="m 32,45 h -4 v 17 l 8,-8 V 43 l 4,-4 V 21 l -8,6 v 18 z"
       id="path29" />
    <path
       style="fill:#a32904"
       d="m 28,45 v 6 l 8,-8 -4,2 h -4 z"
       id="path31" />
    <linearGradient
       id="linearGradient2926"
       gradientUnits="userSpaceOnUse"
       x1="28.92"
       y1="-64"
       x2="39.07"
       y2="-64">
      <stop
         offset="0"
         stop-color="#c85804"
         id="stop2928" />
      <stop
         offset="1"
         stop-color="#dc952f"
         id="stop2930" />
    </linearGradient>
    <path
       style="fill:url(#gradient3)"
       d="m 26,20 14,1 -8,-4 -6,3 z"
       id="path38" />
    <path
       style="fill:none;stroke:#000000;stroke-width:4"
       d="m 26,2 c -4,0 -8,4 -8,8 0,4 4,8 8,8 4,0 8,-4 8,-8 0,-4 -4,-8 -8,-8 z"
       id="path40" />
    <radialGradient
       id="radialGradient2934"
       gradientUnits="userSpaceOnUse"
       cx="0"
       cy="0"
       r="64"
       gradientTransform="matrix(0.2361,0,0,0.2321,22.625,6.375)">
      <stop
         offset="0"
         stop-color="#f2f2f2"
         id="stop2936" />
      <stop
         offset="1"
         stop-color="#bca184"
         id="stop2938" />
      <stop
         offset="0.6742"
         stop-color="#7d7a7a"
         id="stop2940" />
    </radialGradient>
    <path
       style="fill:url(#gradient4)"
       d="m 26,2 c -4,0 -8,4 -8,8 0,4 4,8 8,8 4,0 8,-4 8,-8 0,-4 -4,-8 -8,-8 z"
       id="path49" />
    <linearGradient
       id="linearGradient2943"
       gradientUnits="userSpaceOnUse"
       x1="54.23"
       y1="-52.610001"
       x2="75.839996"
       y2="-45.970001">
      <stop
         offset="0"
         stop-color="#c85805"
         id="stop2945" />
      <stop
         offset="1"
         stop-color="#f06306"
         id="stop2947" />
    </linearGradient>
    <path
       style="fill:url(#linearGradient2950)"
       d="m 20,58 h 2 V 44 l -2,-1 v 15 z"
       id="path56" />
  </g>
</svg>
