<?xml version="1.0" encoding="UTF-8" standalone="no"?>
<!-- Generator: Adobe Illustrator 10.0, SVG Export Plug-In . SVG Version: 3.0.0 Build 43)  -->

<svg
   xmlns:a="http://ns.adobe.com/AdobeSVGViewerExtensions/3.0/"
   xmlns:dc="http://purl.org/dc/elements/1.1/"
   xmlns:cc="http://creativecommons.org/ns#"
   xmlns:rdf="http://www.w3.org/1999/02/22-rdf-syntax-ns#"
   xmlns:svg="http://www.w3.org/2000/svg"
   xmlns="http://www.w3.org/2000/svg"
   xmlns:xlink="http://www.w3.org/1999/xlink"
   xmlns:sodipodi="http://sodipodi.sourceforge.net/DTD/sodipodi-0.dtd"
   xmlns:inkscape="http://www.inkscape.org/namespaces/inkscape"
   width="40.775"
   height="50.404"
   viewBox="0 0 40.775 50.404"
   overflow="visible"
   enable-background="new 0 0 40.775 50.404"
   xml:space="preserve"
   id="svg2"
   version="1.1"
   inkscape:version="0.91 r13725"
   sodipodi:docname="merge_books.svg"><defs
     id="defs70"><radialGradient
       id="gradient0"
       gradientUnits="userSpaceOnUse"
       cx="0"
       cy="0"
       r="64"
       gradientTransform="matrix(0.2181,0,0,0.2193,44.25,8.75)"><stop
         offset="0.0075"
         stop-color="#ffffff"
         id="stop11" /><stop
         offset="0.2744"
         stop-color="#4b7aff"
         id="stop13" /><stop
         offset="0.7142"
         stop-color="#0420ae"
         id="stop15-9" /><stop
         offset="0.8759"
         stop-color="#031b92"
         id="stop17-5" /><stop
         offset="1"
         stop-color="#0431b3"
         id="stop19" /></radialGradient><linearGradient
       id="gradient1"
       gradientUnits="userSpaceOnUse"
       x1="61.14"
       y1="-4.27"
       x2="70.73"
       y2="3.29"><stop
         offset="0"
         stop-color="#910335"
         id="stop26" /><stop
         offset="1"
         stop-color="#ff90af"
         id="stop28" /></linearGradient><linearGradient
       id="gradient2"
       gradientUnits="userSpaceOnUse"
       x1="25.57"
       y1="1.69"
       x2="49.33"
       y2="5.08"><stop
         offset="0"
         stop-color="#fc3d5d"
         id="stop33" /><stop
         offset="0.9924"
         stop-color="#f92145"
         id="stop35-6" /></linearGradient><linearGradient
       id="gradient3"
       gradientUnits="userSpaceOnUse"
       x1="24"
       y1="-18"
       x2="44"
       y2="-18"><stop
         offset="0"
         stop-color="#ffa5a5"
         id="stop40" /><stop
         offset="1"
         stop-color="#ff6e6e"
         id="stop42" /></linearGradient><linearGradient
       id="gradient4"
       gradientUnits="userSpaceOnUse"
       x1="18.66"
       y1="-12.2"
       x2="46.08"
       y2="3.6"><stop
         offset="0"
         stop-color="#fff289"
         id="stop49" /><stop
         offset="1"
         stop-color="#ffcc60"
         id="stop51" /></linearGradient><linearGradient
       id="gradient5"
       gradientUnits="userSpaceOnUse"
       x1="30.27"
       y1="9.3"
       x2="50.06"
       y2="17.27"><stop
         offset="0"
         stop-color="#f99b05"
         id="stop56" /><stop
         offset="1"
         stop-color="#fcb23d"
         id="stop58" /></linearGradient><linearGradient
       id="gradient6"
       gradientUnits="userSpaceOnUse"
       x1="20.5"
       y1="-6.81"
       x2="46.01"
       y2="6.86"><stop
         offset="0"
         stop-color="#ffffff"
         id="stop63" /><stop
         offset="1"
         stop-color="#fff289"
         id="stop65" /></linearGradient><inkscape:perspective
       sodipodi:type="inkscape:persp3d"
       inkscape:vp_x="0 : 24 : 1"
       inkscape:vp_y="0 : 1000 : 0"
       inkscape:vp_z="48 : 24 : 1"
       inkscape:persp3d-origin="24 : 16 : 1"
       id="perspective22" /><linearGradient
       id="linearGradient6918"><stop
         style="stop-color:#fcaf3e;stop-opacity:1"
         offset="0"
         id="stop6920" /><stop
         style="stop-color:#ffffff;stop-opacity:1;"
         offset="1"
         id="stop6922" /></linearGradient><linearGradient
       inkscape:collect="always"
       id="linearGradient3263"><stop
         style="stop-color:white;stop-opacity:1;"
         offset="0"
         id="stop3265" /><stop
         style="stop-color:white;stop-opacity:0;"
         offset="1"
         id="stop3267" /></linearGradient><linearGradient
       inkscape:collect="always"
       xlink:href="#linearGradient3263"
       id="linearGradient3854"
       gradientUnits="userSpaceOnUse"
       gradientTransform="matrix(0,1,-1,0,44.01386,-2.96967)"
       x1="20.875"
       y1="24.5625"
       x2="52.219353"
       y2="13.597429" /><linearGradient
       id="XMLID_1_"
       gradientUnits="userSpaceOnUse"
       x1="-206.60741"
       y1="369.65381"
       x2="-221.7785"
       y2="364.6796"
       gradientTransform="matrix(1,0,0,-1,245.5313,406.8994)"><stop
         offset="0"
         style="stop-color:#FFFFFF"
         id="stop15" /><stop
         offset="1"
         style="stop-color:#000000"
         id="stop17" /></linearGradient><linearGradient
       id="XMLID_2_"
       gradientUnits="userSpaceOnUse"
       x1="-218.06351"
       y1="403.439"
       x2="-231.80409"
       y2="397.87979"
       gradientTransform="matrix(1,0,0,-1,245.5313,406.8994)"><stop
         offset="0"
         style="stop-color:#FFFFDC"
         id="stop22" /><stop
         offset="1"
         style="stop-color:#F2F2DA"
         id="stop24" /></linearGradient><linearGradient
       id="XMLID_3_"
       gradientUnits="userSpaceOnUse"
       x1="-236.68359"
       y1="376.59811"
       x2="-233.16589"
       y2="376.59811"
       gradientTransform="matrix(1,0,0,-1,245.5313,406.8994)"><stop
         offset="0"
         style="stop-color:#0C3950"
         id="stop35" /><stop
         offset="1"
         style="stop-color:#02668C"
         id="stop37" /></linearGradient><linearGradient
       id="XMLID_4_"
       gradientUnits="userSpaceOnUse"
       x1="-234.7603"
       y1="378.48099"
       x2="-240.47791"
       y2="378.75311"
       gradientTransform="matrix(1.0384,-0.0244,-0.0604,-0.9616,275.7509,387.4734)"><stop
         offset="0"
         style="stop-color:#0C3950"
         id="stop60" /><stop
         offset="1"
         style="stop-color:#02668C"
         id="stop62" /></linearGradient><linearGradient
       inkscape:collect="always"
       xlink:href="#XMLID_1_"
       id="linearGradient7792"
       gradientUnits="userSpaceOnUse"
       gradientTransform="matrix(1,0,0,-1,245.5313,406.8994)"
       x1="-206.60741"
       y1="369.65381"
       x2="-221.7785"
       y2="364.6796" /><linearGradient
       inkscape:collect="always"
       xlink:href="#XMLID_2_"
       id="linearGradient7794"
       gradientUnits="userSpaceOnUse"
       gradientTransform="matrix(1,0,0,-1,245.5313,406.8994)"
       x1="-218.06351"
       y1="403.439"
       x2="-231.80409"
       y2="397.87979" /><linearGradient
       inkscape:collect="always"
       xlink:href="#XMLID_3_"
       id="linearGradient7796"
       gradientUnits="userSpaceOnUse"
       gradientTransform="matrix(1,0,0,-1,245.5313,406.8994)"
       x1="-236.68359"
       y1="376.59811"
       x2="-233.16589"
       y2="376.59811" /><linearGradient
       inkscape:collect="always"
       xlink:href="#XMLID_4_"
       id="linearGradient7798"
       gradientUnits="userSpaceOnUse"
       gradientTransform="matrix(1.0384,-0.0244,-0.0604,-0.9616,275.7509,387.4734)"
       x1="-234.7603"
       y1="378.48099"
       x2="-240.47791"
       y2="378.75311" /></defs><sodipodi:namedview
     pagecolor="#ffffff"
     bordercolor="#666666"
     borderopacity="1"
     objecttolerance="10"
     gridtolerance="10"
     guidetolerance="10"
     inkscape:pageopacity="0"
     inkscape:pageshadow="2"
     inkscape:window-width="1364"
     inkscape:window-height="708"
     id="namedview68"
     showgrid="false"
     inkscape:zoom="2.6261636"
     inkscape:cx="-74.979391"
     inkscape:cy="-12.230274"
     inkscape:window-x="2"
     inkscape:window-y="30"
     inkscape:window-maximized="1"
     inkscape:current-layer="svg2" /><metadata
     id="metadata4"><sfw><slices /><sliceSourceBounds
         y="394.298"
         x="276.113"
         width="40.775"
         height="50.404"
         bottomLeftOrigin="true" /></sfw><rdf:RDF><cc:Work
         rdf:about=""><dc:format>image/svg+xml</dc:format><dc:type
           rdf:resource="http://purl.org/dc/dcmitype/StillImage" /><dc:title /></cc:Work></rdf:RDF></metadata><g
     style="color-interpolation:linearRGB"
     id="g7616"
     transform="matrix(0.50022154,0,0,0.50022154,0.27486065,21.554959)"><g
       id="g7551"><path
         id="path7553"
         d="m 38,58 5,0 21,-22 -8,-4 -18,0 0,26 z"
         style="fill:#010000;fill-opacity:0.44310004"
         inkscape:connector-curvature="0" /><path
         id="path7555"
         d="M 2,30 21,14 58,28 58,36 38,56 2,38 2,30 Z"
         style="fill:none;stroke:#010000;stroke-width:4"
         inkscape:connector-curvature="0" /><linearGradient
         y2="42.900002"
         x2="50.490002"
         y1="14.68"
         x1="35.389999"
         gradientUnits="userSpaceOnUse"
         id="gradient0-4"><stop
           id="stop7558"
           stop-color="#c2772f"
           offset="0" /><stop
           id="stop7560"
           stop-color="#7f4c00"
           offset="1" /></linearGradient><path
         id="path7562"
         d="M 38,56 2,38 2,30 38,46 38,56 Z"
         style="fill:url(#gradient0-4)"
         inkscape:connector-curvature="0" /><linearGradient
         y2="55.93"
         x2="27.91"
         y1="64.93"
         x1="35.459999"
         gradientUnits="userSpaceOnUse"
         id="gradient1-4"><stop
           id="stop7565"
           stop-color="#e6e276"
           offset="0" /><stop
           id="stop7567"
           stop-color="#e8bf71"
           offset="1" /></linearGradient><path
         id="path7569"
         d="M 38,46 38,56 58,36 58,28 38,46 Z"
         style="fill:url(#gradient1-4)"
         inkscape:connector-curvature="0" /><radialGradient
         gradientTransform="matrix(0.6073,0.2281,-0.0814,0.2168,31.6668,28.5743)"
         r="64"
         cy="0"
         cx="0"
         gradientUnits="userSpaceOnUse"
         id="gradient2-9"><stop
           id="stop7572"
           stop-color="#ffb267"
           offset="0" /><stop
           id="stop7574"
           stop-color="#a35d01"
           offset="1" /></radialGradient><path
         id="path7576"
         d="M 4.23,28.11 21,14 58,28 40,44 4.23,28.11 Z"
         style="fill:url(#gradient2-9)"
         inkscape:connector-curvature="0" /><linearGradient
         y2="26.73"
         x2="57.119999"
         y1="5.0799999"
         x1="33.549999"
         gradientUnits="userSpaceOnUse"
         id="gradient3-8"><stop
           id="stop7579"
           stop-color="#f0b840"
           offset="0" /><stop
           id="stop7581"
           stop-color="#b96d23"
           offset="1" /></linearGradient><path
         id="path7583"
         d="M 2,30 4.23,28.11 40.37,43.86 38,46 2,30 Z"
         style="fill:url(#gradient3-8)"
         inkscape:connector-curvature="0" /><linearGradient
         y2="-48"
         x2="62"
         y1="-48"
         x1="26"
         gradientUnits="userSpaceOnUse"
         id="gradient4-6"><stop
           id="stop7586"
           stop-color="#7f4c00"
           offset="0" /><stop
           id="stop7588"
           stop-color="#e8bf71"
           offset="1" /></linearGradient><path
         id="path7590"
         transform="matrix(0.8333,0,0,0.8363,9.6666,3.2363)"
         d="m 58,32 -24,22 2,0"
         style="fill:url(#gradient4-6)"
         inkscape:connector-curvature="0" /><linearGradient
         y2="-48"
         x2="62"
         y1="-48"
         x1="26"
         gradientUnits="userSpaceOnUse"
         id="gradient5-0"><stop
           id="stop7593"
           stop-color="#7f4c00"
           offset="0" /><stop
           id="stop7595"
           stop-color="#e8bf71"
           offset="1" /></linearGradient><path
         id="path7597"
         transform="matrix(0.8333,0,0,0.8363,9.6666,5.9963)"
         d="m 58,32 -24,22 2,0"
         style="fill:url(#gradient5-0)"
         inkscape:connector-curvature="0" /><linearGradient
         y2="-48"
         x2="62"
         y1="-48"
         x1="26"
         gradientUnits="userSpaceOnUse"
         id="gradient6-2"><stop
           id="stop7600"
           stop-color="#7f4c00"
           offset="0" /><stop
           id="stop7602"
           stop-color="#e8bf71"
           offset="1" /></linearGradient><path
         id="path7604"
         transform="matrix(0.8333,0,0,0.8363,9.6666,7.8363)"
         d="m 58,32 -24,22 2,0"
         style="fill:url(#gradient6-2)"
         inkscape:connector-curvature="0" /><path
         id="path7606"
         d="M 58,28 40,44 38.87,45.75 38.75,50.62 39,56 58.25,36.87"
         style="fill:none;stroke:#3c2401;stroke-width:1"
         inkscape:connector-curvature="0" /><path
         id="path7608"
         d="M 4,28 41,44 38.87,45.75 38.75,50.62 39,56 58.25,36.87"
         style="fill:none;stroke:#3c2401;stroke-width:1"
         inkscape:connector-curvature="0" /></g></g><g
     transform="matrix(0.5965472,0,0,0.5965472,21.822249,0.28583658)"
     id="g7754"><path
       d="M 19.882,0.284 0,8.332 0,45.648 0.071,45.844 c 1.155,3.219 4.848,5.009 9.407,4.56 l 0.171,-0.017 2.221,-0.892 c 0,0 0,-0.063 0,-0.076 0.068,0.009 0.138,0.017 0.138,0.017 l 0.317,-0.122 17.369,-7.041 0,-37.912 -2.174,-0.889 c 0,0 -2.015,0.831 -2.551,1.051 C 24.401,4.38 23.9,4.229 23.523,4.064 22.706,3.709 22.257,3.214 22.054,2.942 c 0,-0.404 0,-1.601 0,-1.601 L 20.583,0 19.882,0.284 Z"
       id="path7756"
       inkscape:connector-curvature="0"
       style="stroke:none" /><path
       d="m 1.721,45.915 19.133,-7.745 0,-36.298 -19.133,7.744 0,36.299 z"
       id="path7758"
       inkscape:connector-curvature="0"
       style="fill:#406ac9;stroke:none" /><path
       d="m 1.721,45.915 5.25,-2.104 0,-36.299 -5.25,2.104 0,36.299 z"
       id="path7760"
       inkscape:connector-curvature="0"
       style="fill:#13678d;stroke:none" /><path
       a:adobe-blending-mode="multiply"
       d="M 8.863,50.33 11.427,50.285 40.775,40.834 36.422,33.87 26.225,37.476 8.863,50.33 Z"
       id="path7762"
       style="opacity:0.2;fill:url(#linearGradient7792);stroke:none"
       inkscape:connector-curvature="0" /><path
       d="m 23.044,5.166 c 1.733,0.753 4.478,1.036 4.478,1.036 L 9.093,13.727 C 5.018,13.569 3.585,12.734 2.425,10.829 L 20.854,3.304 c 0,0 0.596,1.168 2.19,1.862 z"
       id="path7764"
       style="fill:url(#linearGradient7794);stroke:none"
       inkscape:connector-curvature="0" /><path
       d="M 2.504,11.221 20.933,3.697"
       id="path7766"
       inkscape:connector-curvature="0"
       style="fill:none;stroke:#bfbfbf;stroke-width:0.25" /><path
       d="m 9.36,49.209 1.103,-0.446 0.431,-0.778 1.221,0.11 16.378,-6.63 0,-36.298 -19.133,7.744 0,36.298 z"
       id="path7768"
       inkscape:connector-curvature="0"
       style="fill:#406ac9;stroke:none" /><path
       d="m 9.36,49.209 1.304,-0.522 c 0,0 -0.014,-0.307 0.307,-0.436 0.279,-0.111 0.899,-0.047 0.899,-0.047 l 2.74,-1.099 0,-36.298 -5.25,2.104 0,36.298 z"
       id="path7770"
       inkscape:connector-curvature="0"
       style="fill:#13678d;stroke:none" /><path
       d="m 10.664,48.689 c 0,0 -0.036,-0.338 0.28,-0.462 0.289,-0.112 0.93,-0.014 0.93,-0.014 l 0,-36.298 c 0,0 -0.561,0.021 -0.879,0.146 -0.285,0.111 -0.331,0.329 -0.331,0.329 l 0,36.299 z"
       id="path7772"
       style="fill:url(#linearGradient7796);stroke:none"
       inkscape:connector-curvature="0" /><path
       d="M 27.522,4.769 10.389,11.831 9.32,12.317 C 5.244,12.159 3.586,11.302 2.425,9.397 L 20.854,1.872 20.332,1.396 4.234,7.913 4.039,8.59 3.251,8.31 1.2,9.141 c 1.014,2.458 3.819,4.011 8.161,3.771 l 1.3,-0.526 c 0,0 0.025,-0.19 0.32,-0.31 0.308,-0.125 0.886,-0.178 0.886,-0.178 l 16.627,-6.73"
       id="path7774"
       inkscape:connector-curvature="0"
       style="fill:#a2b9ea;stroke:none" /><path
       d="M 2.896,11.613 21.324,4.088"
       id="path7776"
       inkscape:connector-curvature="0"
       style="fill:none;stroke:#bfbfbf;stroke-width:0.25" /><path
       d="M 3.445,12.006 21.873,4.481"
       id="path7778"
       inkscape:connector-curvature="0"
       style="fill:none;stroke:#bfbfbf;stroke-width:0.25" /><path
       d="M 3.917,12.398 22.346,4.874"
       id="path7780"
       inkscape:connector-curvature="0"
       style="fill:none;stroke:#bfbfbf;stroke-width:0.25" /><path
       d="M 4.623,12.712 23.052,5.187"
       id="path7782"
       inkscape:connector-curvature="0"
       style="fill:none;stroke:#bfbfbf;stroke-width:0.25" /><path
       d="M 5.329,12.947 23.757,5.422"
       id="path7784"
       inkscape:connector-curvature="0"
       style="fill:none;stroke:#bfbfbf;stroke-width:0.25" /><path
       d="M 6.114,13.183 24.542,5.658"
       id="path7786"
       inkscape:connector-curvature="0"
       style="fill:none;stroke:#bfbfbf;stroke-width:0.25" /><path
       d="m 1.2,45.439 c 1.073,2.988 4.594,4.122 8.161,3.771 l 0,-36.299 C 5.198,13.151 2.333,11.838 1.2,9.14 l 0,36.299 z"
       id="path7788"
       style="fill:url(#linearGradient7798);stroke:none"
       inkscape:connector-curvature="0" /><path
       d="M 13.699,10.477 10.288,11.823 9.32,12.316 C 5.244,12.158 3.586,11.301 2.425,9.396 L 3.671,8.887 c 0,0 0.352,0.002 0.528,-0.07 C 4.384,8.742 4.393,8.591 4.393,8.591 L 6.973,7.536 6.42,7.034 4.101,7.97 c 0,0 0.03,0.271 -0.192,0.361 C 3.708,8.411 3.252,8.312 3.252,8.312 L 1.2,9.141 c 1.014,2.458 3.819,4.011 8.161,3.771 l 1.3,-0.526 c 0,0 0.025,-0.19 0.32,-0.31 0.308,-0.125 0.886,-0.178 0.886,-0.178 l 2.804,-1.023 -0.972,-0.398 z"
       id="path7790"
       inkscape:connector-curvature="0"
       style="fill:#62b2c8;stroke:none" /></g><path
     sodipodi:type="inkscape:offset"
     inkscape:radius="1.03125"
     inkscape:original="M 29.5 10.0625 L 29.5 16.53125 C 29.494978 17.081441 29.050191 17.526228 28.5 17.53125 L 18.5 17.53125 C 17.949809 17.526228 17.505022 17.081441 17.5 16.53125 L 17.5 10.125 L 3.5 23.03125 L 17.5 36 L 17.5 29.53125 C 17.505022 28.981059 17.949809 28.536272 18.5 28.53125 L 28.5 28.53125 C 29.050191 28.536272 29.494978 28.981059 29.5 29.53125 L 29.5 35.9375 L 43.5 23.03125 L 29.5 10.0625 z "
     style="color:#000000;display:inline;overflow:visible;visibility:visible;color-interpolation:linearRGB;fill:#00ccff;fill-opacity:1;fill-rule:nonzero;stroke:#000000;stroke-width:2;stroke-linecap:round;stroke-linejoin:miter;stroke-miterlimit:4;stroke-dasharray:none;stroke-dashoffset:1.39999998;stroke-opacity:1;marker:none;marker-start:none;marker-mid:none;marker-end:none"
     id="path5945"
     d="M 29.445312,9.0332031 A 1.0313531,1.0313531 0 0 0 28.46875,10.0625 l 0,6.4375 -9.9375,0 0,-6.375 A 1.0313531,1.0313531 0 0 0 16.800781,9.3671875 L 2.8007812,22.273438 a 1.0313531,1.0313531 0 0 0 -0.00195,1.513671 L 16.798828,36.755859 A 1.0313531,1.0313531 0 0 0 18.53125,36 l 0,-6.4375 9.9375,0 0,6.375 a 1.0313531,1.0313531 0 0 0 1.730469,0.757812 l 14,-12.90625 a 1.0313531,1.0313531 0 0 0 0.002,-1.513671 l -14,-12.9687504 a 1.0313531,1.0313531 0 0 0 -0.75586,-0.2734375 z"
     transform="matrix(0.43214758,-0.31195643,0.2834461,0.39265273,1.9597968,25.003898)" /></svg>