<?xml version="1.0" encoding="UTF-8" standalone="yes"?>
<svg version="1.1" width="64" height="64" color-interpolation="linearRGB"
     xmlns:svg="http://www.w3.org/2000/svg" xmlns="http://www.w3.org/2000/svg">
 <g>
  <path style="fill:#000000; fill-opacity:0.4431"
        d="M62 50L50 44L40 64H48C54 64 68 53 62 50z"
  />
  <path style="fill:none; stroke:#000000; stroke-width:4"
        d="M49.33 53.17V53.16C49.75 52.64 50 51.91 50 51V32C50 21.52 43.94 10.97 34.01 6C27.77 2.88 22 4 18.06 5.92C14 8 9.56 12.41 9.56 12.41V12.42C7.32 14.46 6 17.72 6.01 21.98L6 46L37.02 61.5C38.87 62.43 40.48 62.23 41.36 61.16V61.17L49.33 53.17z"
  />
  <linearGradient id="gradient0" gradientUnits="userSpaceOnUse" x1="66" y1="-81.76" x2="122.5" y2="-25.25">
   <stop offset="0.3225" stop-color="#696b89"/>
   <stop offset="0.5665" stop-color="#acafc5"/>
   <stop offset="1" stop-color="#5a5c78"/>
  </linearGradient>
  <path style="fill:url(#gradient0)"
        d="M49.33 53.17V53.16C49.75 52.64 50 51.91 50 51V32C50 21.52 43.94 10.97 34.01 6C27.77 2.88 22 4 18.06 5.92C14 8 9.56 12.41 9.56 12.41V12.42L41.36 61.16V61.17L49.33 53.17z"
  />
  <linearGradient id="gradient1" gradientUnits="userSpaceOnUse" x1="63.39" y1="-58.15" x2="106.23" y2="-21.76">
   <stop offset="0.4886" stop-color="#848998"/>
   <stop offset="0" stop-color="#3f3c4c"/>
   <stop offset="1" stop-color="#3f3c4c"/>
  </linearGradient>
  <path style="fill:url(#gradient1)"
        d="M24 12C14.06 7.01 6 11.48 6.01 21.98L6 46L37.02 61.5C39.77 62.88 42.02 61.77 42.02 59V40C42 29.52 33.94 16.97 24.01 12H24z"
  />
  <linearGradient id="gradient2" gradientUnits="userSpaceOnUse" x1="15.05" y1="6.93" x2="44.02" y2="35.9">
   <stop offset="0" stop-color="#626262"/>
   <stop offset="0.25" stop-color="#ffffff"/>
   <stop offset="1" stop-color="#595959"/>
  </linearGradient>
  <path style="fill:url(#gradient2)"
        d="M24 12H24C33.31 16.66 40.97 27.97 41.92 38C37.25 5.62 10.12 6.5 10.34 11.78C13.64 9.38 18.53 9.26 24 12H24z"
  />
  <path style="fill:#ffffff; fill-opacity:0.3686"
        d="M32.25 33.93C31.84 32.63 30.89 31.12 29.45 29.42C26.87 26.37 24.05 24.14 21.01 22.73C21.04 22.65 20.49 22.38 19.37 21.91C15.26 20.17 12 20.01 9.6 21.44C9.23 21.6 9.4 22.13 10.1 23.04C10.75 23.89 11.15 24.26 11.33 24.15C12.22 23.72 13.23 23.5 14.35 23.47C17.41 23.43 20.7 24.7 24.23 27.3C26.84 29.25 28.64 31.2 29.65 33.2V33.61C29.6 33.95 29.29 34.26 28.73 34.54C28.56 34.29 28.38 34.03 28.2 33.77C26.1 31.01 23.56 28.94 20.6 27.54C17.15 25.9 14.42 25.9 12.41 27.53L12.37 27.59L12.32 27.62C12.18 27.88 12.22 28.19 12.42 28.54C12.67 29.05 12.93 29.55 13.22 30.03C14.96 32.77 17.63 35.02 21.25 36.8C24.21 38.25 26.54 38.82 28.22 38.51C28.45 39.52 28.46 40.36 28.27 41.01C28.04 41.85 27.28 42.6 25.96 43.26C24.68 43.88 23.89 44.5 23.62 45.11L23.54 45.24C23.42 45.54 23.28 46.31 23.12 47.54C23.01 48.56 22.46 49.16 21.48 49.38C19.38 48.86 18.1 47.56 17.62 45.47C17.54 45.13 16.98 44.88 15.95 44.77C15.28 44.71 15 44.79 15.11 45.02C15.31 45.95 15.77 46.99 16.51 48.1C18.27 50.86 20.51 52.32 23.23 52.5L23.4 52.46C24.63 52.24 25.39 51.36 25.68 49.85C25.95 48.45 26.17 47.63 26.31 47.4C26.59 46.95 27.04 46.5 27.66 46.05C29.01 45.15 29.73 44.65 29.85 44.54C31.33 43.18 31.57 40.93 30.56 37.79C31.95 36.88 32.56 35.59 32.26 33.93H32.25z
           M25.75 35.63C22.19 35.46 19.2 33.95 16.8 31.09L15.96 29.96L16.09 29.81C16.68 29.37 17.87 29.48 19.67 30.12C22.61 31.17 24.95 33.01 26.72 35.65C26.4 35.67 26.08 35.66 25.75 35.63H25.75z"
        transform="matrix(0.6164,0,0,0.6164,10.0434,10.8551)"
  />
 </g>
</svg>
