<?xml version="1.0" encoding="UTF-8" standalone="no"?>
<svg
   xmlns:dc="http://purl.org/dc/elements/1.1/"
   xmlns:cc="http://creativecommons.org/ns#"
   xmlns:rdf="http://www.w3.org/1999/02/22-rdf-syntax-ns#"
   xmlns:svg="http://www.w3.org/2000/svg"
   xmlns="http://www.w3.org/2000/svg"
   xmlns:xlink="http://www.w3.org/1999/xlink"
   xmlns:sodipodi="http://sodipodi.sourceforge.net/DTD/sodipodi-0.dtd"
   xmlns:inkscape="http://www.inkscape.org/namespaces/inkscape"
   width="193.89"
   height="144.98"
   viewBox="0 0 999 747"
   id="svg4798"
   sodipodi:version="0.32"
   inkscape:version="0.46"
   sodipodi:docname="mistelix.svg"
   inkscape:output_extension="org.inkscape.output.svg.inkscape"
   version="1.0">
  <metadata
     id="metadata4911">
    <rdf:RDF>
      <cc:Work
         rdf:about="">
        <dc:format>image/svg+xml</dc:format>
        <dc:type
           rdf:resource="http://purl.org/dc/dcmitype/StillImage" />
      </cc:Work>
    </rdf:RDF>
  </metadata>
  <defs
     id="defs4909">
    <inkscape:perspective
       sodipodi:type="inkscape:persp3d"
       inkscape:vp_x="0 : 72.490501 : 1"
       inkscape:vp_y="0 : 1000 : 0"
       inkscape:vp_z="193.88699 : 72.490501 : 1"
       inkscape:persp3d-origin="96.943497 : 48.327001 : 1"
       id="perspective122" />
    <linearGradient
       id="linearGradient11802">
      <stop
         style="stop-color:#6d5a1a;stop-opacity:1;"
         offset="0"
         id="stop11804" />
      <stop
         style="stop-color:#50480f;stop-opacity:1;"
         offset="1"
         id="stop11806" />
    </linearGradient>
    <linearGradient
       id="linearGradient10825">
      <stop
         style="stop-color:#a5c4c7;stop-opacity:1;"
         offset="0"
         id="stop10827" />
      <stop
         style="stop-color:#86a4b7;stop-opacity:0.99607843;"
         offset="1"
         id="stop10829" />
    </linearGradient>
    <linearGradient
       id="linearGradient10817">
      <stop
         style="stop-color:#cac08d;stop-opacity:1;"
         offset="0"
         id="stop10819" />
      <stop
         style="stop-color:#a9976f;stop-opacity:1;"
         offset="1"
         id="stop10821" />
    </linearGradient>
    <linearGradient
       id="linearGradient10809">
      <stop
         style="stop-color:#fcc719;stop-opacity:1;"
         offset="0"
         id="stop10811" />
      <stop
         style="stop-color:#fca519;stop-opacity:1;"
         offset="1"
         id="stop10813" />
    </linearGradient>
    <linearGradient
       id="linearGradient5914">
      <stop
         style="stop-color:#9b9b9b;stop-opacity:1;"
         offset="0"
         id="stop5916" />
      <stop
         style="stop-color:#ffffff;stop-opacity:1;"
         offset="1"
         id="stop5918" />
    </linearGradient>
    <linearGradient
       id="linearGradient5906">
      <stop
         style="stop-color:#9b9b9b;stop-opacity:1;"
         offset="0"
         id="stop5908" />
      <stop
         style="stop-color:#ffffff;stop-opacity:1;"
         offset="1"
         id="stop5910" />
    </linearGradient>
    <linearGradient
       id="linearGradient5898">
      <stop
         style="stop-color:#9b9b9b;stop-opacity:1;"
         offset="0"
         id="stop5900" />
      <stop
         style="stop-color:#ffffff;stop-opacity:1;"
         offset="1"
         id="stop5902" />
    </linearGradient>
    <linearGradient
       id="linearGradient5890">
      <stop
         style="stop-color:#9b9b9b;stop-opacity:1;"
         offset="0"
         id="stop5892" />
      <stop
         style="stop-color:#ffffff;stop-opacity:1;"
         offset="1"
         id="stop5894" />
    </linearGradient>
    <linearGradient
       id="linearGradient5882">
      <stop
         style="stop-color:#9b9b9b;stop-opacity:1;"
         offset="0"
         id="stop5884" />
      <stop
         style="stop-color:#ffffff;stop-opacity:1;"
         offset="1"
         id="stop5886" />
    </linearGradient>
    <linearGradient
       inkscape:collect="always"
       xlink:href="#linearGradient5882"
       id="linearGradient5888"
       x1="110.44397"
       y1="69"
       x2="113.85258"
       y2="246.98146"
       gradientUnits="userSpaceOnUse" />
    <linearGradient
       inkscape:collect="always"
       xlink:href="#linearGradient5890"
       id="linearGradient5896"
       x1="114.42544"
       y1="260"
       x2="115.85258"
       y2="436"
       gradientUnits="userSpaceOnUse" />
    <linearGradient
       inkscape:collect="always"
       xlink:href="#linearGradient5898"
       id="linearGradient5904"
       x1="619.5"
       y1="47"
       x2="619.5"
       y2="171.42628"
       gradientUnits="userSpaceOnUse"
       gradientTransform="matrix(0.9393988,0.3428262,-0.3428262,0.9393988,98.72165,-249.05025)" />
    <linearGradient
       inkscape:collect="always"
       xlink:href="#linearGradient5906"
       id="linearGradient5912"
       x1="740.05475"
       y1="145"
       x2="696.8526"
       y2="328.31424"
       gradientUnits="userSpaceOnUse"
       gradientTransform="matrix(0.9393988,0.3428262,-0.3428262,0.9393988,98.72165,-249.05025)" />
    <linearGradient
       inkscape:collect="always"
       xlink:href="#linearGradient5914"
       id="linearGradient5920"
       x1="796.203"
       y1="303.68576"
       x2="802.07501"
       y2="428.5181"
       gradientUnits="userSpaceOnUse"
       gradientTransform="matrix(0.9393988,0.3428262,-0.3428262,0.9393988,98.72165,-249.05025)" />
    <linearGradient
       inkscape:collect="always"
       xlink:href="#linearGradient10809"
       id="linearGradient11861"
       gradientUnits="userSpaceOnUse"
       x1="451"
       y1="575.5"
       x2="514"
       y2="575.5"
       gradientTransform="matrix(0.8426833,-0.5384096,0.5384096,0.8426833,194.10088,483.46287)" />
    <linearGradient
       inkscape:collect="always"
       xlink:href="#linearGradient10825"
       id="linearGradient11863"
       gradientUnits="userSpaceOnUse"
       x1="451"
       y1="472.5"
       x2="514"
       y2="472.5"
       gradientTransform="matrix(0.8426833,-0.5384096,0.5384096,0.8426833,194.10088,483.46287)" />
    <linearGradient
       inkscape:collect="always"
       xlink:href="#linearGradient11802"
       id="linearGradient11865"
       gradientUnits="userSpaceOnUse"
       x1="450.91949"
       y1="441.42639"
       x2="514.04706"
       y2="441.42639"
       gradientTransform="matrix(0.8426833,-0.5384096,0.5384096,0.8426833,194.10088,483.46287)" />
    <linearGradient
       inkscape:collect="always"
       xlink:href="#linearGradient10817"
       id="linearGradient11867"
       gradientUnits="userSpaceOnUse"
       x1="450.96487"
       y1="702.28851"
       x2="514.03253"
       y2="702.28851"
       gradientTransform="matrix(0.8426833,-0.5384096,0.5384096,0.8426833,194.10088,483.46287)" />
    <linearGradient
       inkscape:collect="always"
       xlink:href="#linearGradient10809"
       id="linearGradient11884"
       gradientUnits="userSpaceOnUse"
       x1="451"
       y1="575.5"
       x2="514"
       y2="575.5"
       gradientTransform="matrix(0.9239176,-0.3825916,0.3825916,0.9239176,-289.04946,715.03125)" />
    <linearGradient
       inkscape:collect="always"
       xlink:href="#linearGradient10825"
       id="linearGradient11886"
       gradientUnits="userSpaceOnUse"
       x1="451"
       y1="472.5"
       x2="514"
       y2="472.5"
       gradientTransform="matrix(0.9239176,-0.3825916,0.3825916,0.9239176,-289.04946,715.03125)" />
    <linearGradient
       inkscape:collect="always"
       xlink:href="#linearGradient11802"
       id="linearGradient11888"
       gradientUnits="userSpaceOnUse"
       x1="450.91949"
       y1="441.42639"
       x2="514.04706"
       y2="441.42639"
       gradientTransform="matrix(0.9239176,-0.3825916,0.3825916,0.9239176,-289.04946,715.03125)" />
    <linearGradient
       inkscape:collect="always"
       xlink:href="#linearGradient10817"
       id="linearGradient11890"
       gradientUnits="userSpaceOnUse"
       x1="450.96487"
       y1="702.28851"
       x2="514.03253"
       y2="702.28851"
       gradientTransform="matrix(0.9239176,-0.3825916,0.3825916,0.9239176,-289.04946,715.03125)" />
    <linearGradient
       inkscape:collect="always"
       xlink:href="#linearGradient10817"
       id="linearGradient11894"
       gradientUnits="userSpaceOnUse"
       gradientTransform="matrix(0.9239176,-0.3825916,0.3825916,0.9239176,-5.80387,301.44256)"
       x1="450.96487"
       y1="702.28851"
       x2="514.03253"
       y2="702.28851" />
    <linearGradient
       inkscape:collect="always"
       xlink:href="#linearGradient11802"
       id="linearGradient11897"
       gradientUnits="userSpaceOnUse"
       gradientTransform="matrix(0.9239176,-0.3825916,0.3825916,0.9239176,-5.80387,301.44256)"
       x1="450.91949"
       y1="441.42639"
       x2="514.04706"
       y2="441.42639" />
    <linearGradient
       inkscape:collect="always"
       xlink:href="#linearGradient10825"
       id="linearGradient11900"
       gradientUnits="userSpaceOnUse"
       gradientTransform="matrix(0.9239176,-0.3825916,0.3825916,0.9239176,-5.80387,301.44256)"
       x1="451"
       y1="472.5"
       x2="514"
       y2="472.5" />
    <linearGradient
       inkscape:collect="always"
       xlink:href="#linearGradient10809"
       id="linearGradient11903"
       gradientUnits="userSpaceOnUse"
       gradientTransform="matrix(0.9239176,-0.3825916,0.3825916,0.9239176,-5.80387,301.44256)"
       x1="451"
       y1="575.5"
       x2="514"
       y2="575.5" />
    <linearGradient
       inkscape:collect="always"
       xlink:href="#linearGradient10809"
       id="linearGradient12951"
       gradientUnits="userSpaceOnUse"
       gradientTransform="matrix(0.9239176,-0.3825916,0.3825916,0.9239176,-5.0438089,306.55385)"
       x1="451"
       y1="575.5"
       x2="514"
       y2="575.5" />
    <linearGradient
       inkscape:collect="always"
       xlink:href="#linearGradient10825"
       id="linearGradient12953"
       gradientUnits="userSpaceOnUse"
       gradientTransform="matrix(0.9239176,-0.3825916,0.3825916,0.9239176,-5.0438089,306.55385)"
       x1="451"
       y1="472.5"
       x2="514"
       y2="472.5" />
    <linearGradient
       inkscape:collect="always"
       xlink:href="#linearGradient11802"
       id="linearGradient12955"
       gradientUnits="userSpaceOnUse"
       gradientTransform="matrix(0.9239176,-0.3825916,0.3825916,0.9239176,-5.0438089,306.55385)"
       x1="450.91949"
       y1="441.42639"
       x2="514.04706"
       y2="441.42639" />
    <linearGradient
       inkscape:collect="always"
       xlink:href="#linearGradient10817"
       id="linearGradient12957"
       gradientUnits="userSpaceOnUse"
       gradientTransform="matrix(0.9239176,-0.3825916,0.3825916,0.9239176,-5.0438089,306.55385)"
       x1="450.96487"
       y1="702.28851"
       x2="514.03253"
       y2="702.28851" />
  </defs>
  <sodipodi:namedview
     inkscape:window-height="725"
     inkscape:window-width="1280"
     inkscape:pageshadow="2"
     inkscape:pageopacity="0.0"
     guidetolerance="10.0"
     gridtolerance="10.0"
     objecttolerance="10.0"
     borderopacity="1.0"
     bordercolor="#666666"
     pagecolor="#ffffff"
     id="base"
     inkscape:zoom="2.0555692"
     inkscape:cx="126.09362"
     inkscape:cy="90.189701"
     inkscape:window-x="0"
     inkscape:window-y="52"
     inkscape:current-layer="svg4798"
     showgrid="false"
     showborder="true"
     inkscape:showpageshadow="true"
     borderlayer="false" />
  <g
     id="g12970"
     transform="matrix(1.6852358,-0.2458681,0.335056,1.2366462,-731.96121,252.64767)"
     inkscape:export-filename="/home/jordi/dev/mistelix-fresh/data/mistelix48.png"
     inkscape:export-xdpi="41.238842"
     inkscape:export-ydpi="41.238842">
    <path
       id="path4800"
       d="M 444.19103,76.089585 L 686.18874,-35.723238 L 692.42171,-32.38406 L 699.9369,-29.641452 L 708.3024,-23.394986 L 719.48611,-16.120053 L 724.43685,-12.184295 L 729.98417,-6.9663147 L 743.30041,3.2158956 L 749.4443,9.7161092 L 755.58819,16.216314 L 761.38925,23.655915 L 767.19031,31.095517 L 772.99137,38.535127 L 778.4496,46.914125 L 783.56501,56.232529 L 787.74102,65.208105 L 792.5136,75.465905 L 796.94335,86.663102 L 799.49431,97.174654 L 801.70243,108.62559 L 803.7459,114.69389 L 804.84997,120.41937 L 805.43304,133.40628 L 806.01613,146.39321 L 806.25638,160.31952 L 804.27501,174.49958 L 803.23303,189.02247 L 802.4583,194.06229 L 801.34074,200.04151 L 800.73068,210.46398 L 801.06001,221.22927 L 802.67157,231.39799 L 804.28312,241.56672 L 807.17691,251.13886 L 811.01009,261.05383 L 813.90387,270.62598 L 815.6936,274.47266 L 819.36211,279.00499 L 823.19529,288.91996 L 828.99634,296.35956 L 834.45458,304.73857 L 840.25564,312.17817 L 846.0567,319.61777 L 858.59822,334.83981 L 871.22881,346.90082 L 877.71553,352.46163 L 883.85941,358.96183 L 896.57909,367.86182 L 907.41997,376.07616 L 916.38205,383.60484 L 923.21159,388.22625 L 929.44456,391.56543 L 687.44684,503.37825 L 680.87104,500.97847 L 672.75928,496.95364 L 662.51498,490.02152 L 652.27067,483.08941 L 638.6116,473.84659 L 624.35594,463.32155 L 611.12877,449.97831 L 598.24443,435.69568 L 592.44337,428.25608 L 586.38857,418.59485 L 580.93034,410.21585 L 575.81493,400.89745 L 573.42864,395.76854 L 571.04234,390.63965 L 565.33036,380.03902 L 561.84001,369.18464 L 558.94622,359.6125 L 556.14153,346.87932 L 555.21562,334.8318 L 554.28972,322.78428 L 554.04946,308.85798 L 554.22762,302.53592 L 555.68801,295.61731 L 557.66938,281.43725 L 558.78694,275.45803 L 558.62227,270.07538 L 559.57516,258.71351 L 560.52806,247.35165 L 559.25933,236.24353 L 557.64776,226.07481 L 555.09681,215.56326 L 553.48525,205.39454 L 549.30924,196.41897 L 545.47606,186.50399 L 542.23945,177.87124 L 536.78122,169.49224 L 531.66581,160.17384 L 526.80415,153.07706 L 521.00309,145.63745 L 515.20203,138.19785 L 510.34037,131.10108 L 504.19649,124.60086 L 497.70977,119.04006 L 485.67575,108.26127 L 474.23829,98.764711 L 464.33682,90.893204 L 450.08116,80.36816 L 444.19103,76.089585 z"
       style="fill:#2b2725" />
    <path
       id="path4802"
       d="M 538.87053,61.674638 L 659.3997,5.5968095 L 665.28983,9.8753979 L 671.17997,14.153981 L 678.60609,20.057614 L 685.68937,26.900649 L 693.71205,34.086498 L 701.39191,42.211763 L 706.85014,50.590759 L 710.51865,55.123088 L 713.84435,60.594818 L 717.17004,66.066539 L 719.55633,71.195445 L 724.32891,81.453245 L 728.16209,91.368221 L 729.5199,99.315314 L 732.50277,105.72644 L 732.66743,111.10909 L 610.51322,168.72288 L 608.46975,162.65458 L 602.59311,146.6713 L 597.82052,136.4135 L 592.10855,125.81288 L 586.99315,116.49448 L 581.87774,107.17608 L 576.07667,99.736469 L 569.33622,91.954037 L 555.51247,77.32858 L 543.47845,66.54979 L 538.87053,61.674638 z"
       style="fill:url(#linearGradient5904);fill-opacity:1" />
    <path
       id="path4804"
       d="M 633.2748,360.12537 L 753.55021,301.82591 L 762.84163,320.11989 L 767.36047,328.15607 L 771.8793,336.19224 L 777.33753,344.57125 L 781.85637,352.60743 L 789.53623,360.73268 L 797.81265,370.14017 L 807.02848,379.89047 L 815.05116,387.07633 L 830.84279,399.22642 L 836.73292,403.50501 L 710.98578,465.13014 L 704.15624,460.50873 L 698.95176,454.35135 L 690.92907,447.1655 L 673.34774,431.16872 L 665.41414,420.82185 L 658.67368,413.03942 L 654.15485,405.00324 L 648.69661,396.62423 L 640.94117,379.95531 L 633.2748,360.12537 z"
       style="fill:url(#linearGradient5920);fill-opacity:1" />
    <path
       id="path4806"
       d="M 617.06203,194.53205 L 623.65405,331.06609 L 746.74766,273.79512 L 741.34878,139.82553 L 617.06203,194.53205 z"
       style="fill:url(#linearGradient5912);fill-opacity:1" />
    <g
       id="g12940"
       transform="matrix(0.9393988,0.3428262,-0.3428262,0.9393988,98.72165,-249.05025)">
      <path
         style="fill:#ffffff"
         d="M 499,186 L 479,179 L 494,161 L 514,169 L 499,186 z"
         id="path4808" />
      <path
         style="fill:#ffffff"
         d="M 545,210 L 526,199 L 543,184 L 563,195 L 545,210 z"
         id="path4810" />
      <path
         style="fill:#ffffff"
         d="M 584,244 L 569,229 L 584,211 L 600,227 L 584,244 z"
         id="path4812" />
      <path
         style="fill:#ffffff"
         d="M 615,294 L 605,272 L 618,253 L 630,275 L 615,294 z"
         id="path4814" />
      <path
         style="fill:#ffffff"
         d="M 653,400 L 640,377 L 657,361 L 670,385 L 653,400 z"
         id="path4816" />
      <path
         style="fill:#ffffff"
         d="M 688,437 L 668,419 L 686,405 L 705,422 L 688,437 z"
         id="path4818" />
      <path
         style="fill:#ffffff"
         d="M 733,464 L 708,451 L 727,438 L 751,451 L 733,464 z"
         id="path4820" />
      <path
         style="fill:#ffffff"
         d="M 781,483 L 755,474 L 771,458 L 798,466 L 781,483 z"
         id="path4822" />
      <path
         style="fill:#ffffff"
         d="M 628,345 L 623,321 L 641,301 L 646,325 L 628,345 z"
         id="path4824" />
    </g>
    <g
       id="g12959"
       transform="matrix(0.9393988,0.3428262,-0.3428262,0.9393988,98.72165,-249.05025)">
      <path
         style="fill:#ffffff"
         d="M 647,39 L 627,32 L 642,14 L 663,22 L 647,39 z"
         id="path4826" />
      <path
         style="fill:#ffffff"
         d="M 692,62 L 674,52 L 692,37 L 710,48 L 692,62 z"
         id="path4828" />
      <path
         style="fill:#ffffff"
         d="M 732,97 L 717,82 L 733,64 L 747,79 L 732,97 z"
         id="path4830" />
      <path
         style="fill:#ffffff"
         d="M 763,146 L 753,124 L 766,106 L 778,128 L 763,146 z"
         id="path4832" />
      <path
         style="fill:#ffffff"
         d="M 801,252 L 787,229 L 805,214 L 818,237 L 801,252 z"
         id="path4834" />
      <path
         style="fill:#ffffff"
         d="M 835,290 L 816,272 L 834,257 L 853,274 L 835,290 z"
         id="path4836" />
      <path
         style="fill:#ffffff"
         d="M 881,317 L 857,304 L 875,290 L 899,304 L 881,317 z"
         id="path4838" />
      <path
         style="fill:#ffffff"
         d="M 929,335 L 903,327 L 920,310 L 945,319 L 929,335 z"
         id="path4840" />
      <path
         style="fill:#ffffff"
         d="M 776,198 L 771,174 L 789,153 L 794,178 L 776,198 z"
         id="path4842" />
    </g>
  </g>
  <g
     id="g11810"
     transform="matrix(1.2659243,0.8525235,-1.1617737,0.9289505,-144.11367,-516.36718)"
     inkscape:export-xdpi="41.238842"
     inkscape:export-ydpi="41.238842"
     inkscape:export-filename="/home/jordi/dev/mistelix-fresh/data/mistelix48.png">
    <g
       id="g12874">
      <path
         style="fill:url(#linearGradient12951);fill-opacity:1"
         d="M 797.24559,42.41131 L 797.24559,265.41131 L 766.24559,305.41131 L 734.24559,264.41131 L 734.24559,42.41131 L 734.24559,28.41131 L 734.24559,27.41131 L 734.24559,26.41131 L 737.24559,24.41131 L 739.24559,22.41131 L 743.24559,21.41131 L 748.24559,20.41131 L 754.24559,19.41131 L 759.24559,18.41131 L 766.24559,18.41131 L 772.24559,18.41131 L 778.24559,19.41131 L 784.24559,20.41131 L 788.24559,21.41131 L 792.24559,22.41131 L 795.24559,24.41131 L 796.24559,25.41131 L 797.24559,26.41131 L 797.24559,28.41131 L 797.24559,42.41131 z"
         id="path4898" />
      <path
         style="fill:url(#linearGradient12953);fill-opacity:1"
         d="M 734.24559,48.41131 L 797.24559,48.41131 L 797.24559,69.41131 L 734.24559,69.41131 L 734.24559,48.41131 z"
         id="path4902" />
      <path
         id="path5922"
         style="fill:url(#linearGradient12955);fill-opacity:1"
         d="M 734.24217,26.03667 L 797.21553,26.03667 L 797.21553,48.57161 L 734.24217,48.57161 L 734.24217,26.03667 z M 797.29262,27.50026 C 797.29262,38.75913 783.15205,47.89675 765.72885,47.89675 C 748.30564,47.89675 734.16507,38.75913 734.16507,27.50026 C 734.16507,16.24141 748.30564,7.10376 765.72885,7.10376 C 783.15205,7.10376 797.29262,16.24141 797.29262,27.50026 z" />
      <path
         style="fill:url(#linearGradient12957);fill-opacity:1;fill-rule:evenodd;stroke:none;stroke-width:1px;stroke-linecap:butt;stroke-linejoin:miter;stroke-opacity:1"
         d="M 734.21046,264.38022 L 758.1474,315.67733 L 774.17364,315.54378 L 797.27813,265.32824 L 786.32687,273.87557 L 777.77954,263.05786 L 765.62631,273.74201 L 754.00729,261.72234 L 743.99089,272.6736 L 734.21046,264.38022 z"
         id="path7884"
         sodipodi:nodetypes="cccccccccc" />
      <path
         style="fill:#000000;fill-opacity:1;fill-rule:evenodd;stroke:none;stroke-width:1px;stroke-linecap:butt;stroke-linejoin:miter;stroke-opacity:1"
         d="M 758.13286,315.65455 L 765.93165,332.36927 L 774.16346,315.50105 L 758.13286,315.65455 z"
         id="path8869"
         sodipodi:nodetypes="cccc" />
    </g>
  </g>
</svg>
