<?xml version="1.0" encoding="UTF-8" standalone="no"?>
<!DOCTYPE svg PUBLIC "-//W3C//DTD SVG 20010904//EN"
"http://www.w3.org/TR/2001/REC-SVG-20010904/DTD/svg10.dtd">
<!-- Created with Sodipodi ("http://www.sodipodi.com/") -->
<svg
   width="48pt"
   height="48pt"
   viewBox="0 0 45.091 48.018"
   overflow="visible"
   enable-background="new 0 0 45.091 48.018"
   xml:space="preserve"
   id="svg153"
   sodipodi:version="0.33"
   sodipodi:docname="/home/joss/deb/pkg-gnome/packages/tarballs/gnome-themes-extras-0.7.debian.1/Wasp/icons/scalable/apps/mozilla-star.svg"
   sodipodi:docbase="/home/joss/deb/pkg-gnome/packages/tarballs/gnome-themes-extras-0.7.debian.1/Wasp/icons/scalable/apps/"
   xmlns="http://www.w3.org/2000/svg"
   xmlns:sodipodi="http://sodipodi.sourceforge.net/DTD/sodipodi-0.dtd"
   xmlns:xml="http://www.w3.org/XML/1998/namespace"
   xmlns:xlink="http://www.w3.org/1999/xlink">
  <defs
   id="defs327" />

  <sodipodi:namedview
   id="base" />

  <metadata
   id="metadata154">
    <sfw>
      <slices />

      <sliceSourceBounds
   y="394.491"
   x="272.955"
   width="45.091"
   height="48.018"
   bottomLeftOrigin="true" />

    </sfw>

  </metadata>

  <g
   id="Layer_1"
   stroke="#000000">
    <g
   id="Layer_1_2_">
      <path
   stroke="none"
   d="M24.6,1.072c0,0-0.616,0.98-1.191,1.897c-0.361-0.232-0.772-0.495-0.772-0.495s0.019,0.018,0.02,0.02     c-0.314-0.208-0.698-0.27-1.153-0.258c-0.206-0.348-1.006-1.702-1.006-1.702L15.72,1.815c0,0-0.078,1.39-0.089,1.604     c-0.017,0.006-0.035,0.012-0.035,0.012c0.006-0.002-0.909,0.332-0.909,0.332c-0.017,0.006-0.101,0.039-0.101,0.039     c-0.679,0.268-1.349,0.57-1.983,0.894c0,0-0.082,0.044-0.082,0.044c-0.021,0.011-0.838,0.458-0.838,0.458     c-0.002,0-0.268,0.158-0.268,0.158c0,0-0.65,0.403-0.65,0.403c-0.002,0.001-0.301,0.198-0.301,0.198l-0.63,0.441     C9.836,6.398,9.76,6.453,9.76,6.453L9.563,6.597c0.003-0.002-0.859,0.684-0.859,0.684L8.296,7.606L8.207,8.082     c0,0-0.597,2.395-0.759,3.048c-0.959,0.928-4.086,3.884-6.713,5.578L0,17.181l0.268,7.297l7.336,4.75     c0,0,1.032-0.101,1.312-0.128c-0.147,0.354-0.489,1.174-0.489,1.174v3.523c0,0,5.673,3.825,5.785,3.9     c-0.348,1.239-1.191,4.247-1.191,4.247s0.874,2.687,3.413,4.058c3.043,1.642,7.843,2.016,7.843,2.016l12.107-9.179     c0,0,3.021-0.119,5.117-1.708c2.252-1.707,3.59-4.893,3.59-4.893s-0.909-1.793-1.106-2.181c0.056-0.646,0.266-3.129,0.266-3.129     l-2.313-4.556c0,0-1.42-0.25-2.029-0.357c-0.242-0.479-0.384-0.759-0.607-1.199c0.288-0.77,1.074-2.872,1.074-2.872l-2.238-4.489     c0,0-1.702,0.443-2.187,0.57c0.223-1.001,1.123-5.063,1.123-5.063l-3.705-4.572c0,0-2.219,1.89-3.102,2.642     c0.102-1.408,0.354-4.947,0.354-4.947L25.272,0L24.6,1.072z"
   id="path157" />

      <g
   id="g158">
        <linearGradient
   id="XMLID_1_"
   gradientUnits="userSpaceOnUse"
   x1="-223.5068"
   y1="378.8516"
   x2="-223.5077"
   y2="378.8544"
   gradientTransform="matrix(1 0 0 -1 237.6367 402.9961)">
          <stop
   offset="0"
   style="stop-color:#FFFFFF"
   id="stop160" />

          <stop
   offset="1"
   style="stop-color:#808080"
   id="stop161" />

        </linearGradient>

        <path
   fill="url(#XMLID_1_)"
   stroke="none"
   d="M14.108,24.151c0.013-0.009,0.026-0.016,0.04-0.024l-0.015,0.009L14.108,24.151z"
   id="path165" />

      </g>

      <linearGradient
   id="XMLID_2_"
   gradientUnits="userSpaceOnUse"
   x1="-192.4058"
   y1="364.8525"
   x2="-222.3176"
   y2="382.7092"
   gradientTransform="matrix(1 0 0 -1 237.6367 402.9961)">
        <stop
   offset="0"
   style="stop-color:#FFFFFF"
   id="stop167" />

        <stop
   offset="1"
   style="stop-color:#808080"
   id="stop168" />

      </linearGradient>

      <path
   fill="url(#XMLID_2_)"
   stroke="none"
   d="M34.949,37.343c0,0,3.613-0.659,5.978-2.348c1.436-1.025,2.106-3.426,2.106-3.426     L32.37,10.537c-7.915-1.078-13.708,2.862-13.708,2.862l-1.595,3.592c0,0-6.175,3.819-9.083,4.705l0.003,5.952l9.599-0.938     l3.463-1.909l-0.692,4.339l-5.589,4.572l0.05,2.544l7.962-3.992l0.866,0.347l0.173,12.681L34.949,37.343z"
   id="path172" />

      <linearGradient
   id="XMLID_3_"
   gradientUnits="userSpaceOnUse"
   x1="-227.9438"
   y1="394.4121"
   x2="-205.2666"
   y2="394.4121"
   gradientTransform="matrix(1 0 0 -1 237.6367 402.9961)">
        <stop
   offset="0"
   style="stop-color:#FFFFFF"
   id="stop174" />

        <stop
   offset="1"
   style="stop-color:#808080"
   id="stop175" />

      </linearGradient>

      <path
   fill="url(#XMLID_3_)"
   stroke="none"
   d="M18.663,13.399c0,0,5.792-3.94,13.708-2.862l-10.56-6.769     c0,0-5.748-0.121-12.118,4.686L18.663,13.399z"
   id="path179" />

      <linearGradient
   id="XMLID_4_"
   gradientUnits="userSpaceOnUse"
   x1="-221.8931"
   y1="390.4336"
   x2="-216.7068"
   y2="393.4427"
   gradientTransform="matrix(1 0 0 -1 237.6367 402.9961)">
        <stop
   offset="0"
   style="stop-color:#FFFFFF"
   id="stop181" />

        <stop
   offset="1"
   style="stop-color:#808080"
   id="stop182" />

      </linearGradient>

      <path
   fill="url(#XMLID_4_)"
   stroke="none"
   d="M18.663,13.399c0,0,5.792-3.94,13.708-2.862l-10.56-6.769     C18.104,3.936,13.376,5.33,9.693,8.454L18.663,13.399z"
   id="path186" />

      <linearGradient
   id="XMLID_5_"
   gradientUnits="userSpaceOnUse"
   x1="-231.9409"
   y1="383.2275"
   x2="-223.8083"
   y2="389.1828"
   gradientTransform="matrix(1 0 0 -1 237.6367 402.9961)">
        <stop
   offset="0"
   style="stop-color:#FFFFFF"
   id="stop188" />

        <stop
   offset="1"
   style="stop-color:#808080"
   id="stop189" />

      </linearGradient>

      <path
   fill="url(#XMLID_5_)"
   stroke="none"
   d="M1.563,18l6.421,3.696c0,0,2.35-0.858,4.582-2.107     c2.279-1.276,4.502-2.598,4.502-2.598l-8.24-5.065C8.827,11.926,4.868,15.869,1.563,18z"
   id="path193" />

      <linearGradient
   id="XMLID_6_"
   gradientUnits="userSpaceOnUse"
   x1="-228.8096"
   y1="390.2734"
   x2="-218.9741"
   y2="390.2734"
   gradientTransform="matrix(1 0 0 -1 237.6367 402.9961)">
        <stop
   offset="0"
   style="stop-color:#FFFFFF"
   id="stop195" />

        <stop
   offset="1"
   style="stop-color:#808080"
   id="stop196" />

      </linearGradient>

      <path
   fill="url(#XMLID_6_)"
   stroke="none"
   d="M9.693,8.455l8.969,4.945l-1.595,3.592l-8.24-5.065L9.693,8.455z"
   id="path200" />

      <linearGradient
   id="XMLID_7_"
   gradientUnits="userSpaceOnUse"
   x1="-233.0215"
   y1="377.4746"
   x2="-232.3232"
   y2="389.2702"
   gradientTransform="matrix(1 0 0 -1 237.6367 402.9961)">
        <stop
   offset="0"
   style="stop-color:#FFFFFF"
   id="stop202" />

        <stop
   offset="1"
   style="stop-color:#808080"
   id="stop203" />

      </linearGradient>

      <path
   fill="url(#XMLID_7_)"
   stroke="none"
   d="M1.563,18l0.206,5.622l6.218,4.026l-0.004-5.952L1.563,18z"
   id="path207" />

      <linearGradient
   id="XMLID_8_"
   gradientUnits="userSpaceOnUse"
   x1="-221.3882"
   y1="396.5508"
   x2="-217.4788"
   y2="398.2159"
   gradientTransform="matrix(1 0 0 -1 237.6367 402.9961)">
        <stop
   offset="0"
   style="stop-color:#FFFFFF"
   id="stop209" />

        <stop
   offset="1"
   style="stop-color:#6B6B6B"
   id="stop210" />

      </linearGradient>

      <path
   fill="url(#XMLID_8_)"
   stroke="none"
   d="M16.847,9.102l5.596-2.261L19.77,2.318l-2.583,0.693L16.847,9.102z"
   id="path214" />

      <linearGradient
   id="XMLID_9_"
   gradientUnits="userSpaceOnUse"
   x1="-214.9917"
   y1="397.9736"
   x2="-210.8656"
   y2="397.9736"
   gradientTransform="matrix(1 0 0 -1 237.6367 402.9961)">
        <stop
   offset="0"
   style="stop-color:#FFFFFF"
   id="stop216" />

        <stop
   offset="1"
   style="stop-color:#808080"
   id="stop217" />

      </linearGradient>

      <path
   fill="url(#XMLID_9_)"
   stroke="none"
   d="M22.953,6.578l2.942-4.687l3.115,1.215l-0.359,5.047L26.773,6.95L22.953,6.578z"
   id="path221" />

      <linearGradient
   id="XMLID_10_"
   gradientUnits="userSpaceOnUse"
   x1="-207.4639"
   y1="392.5283"
   x2="-202.2207"
   y2="392.5283"
   gradientTransform="matrix(1 0 0 -1 237.6367 402.9961)">
        <stop
   offset="0"
   style="stop-color:#FFFFFF"
   id="stop223" />

        <stop
   offset="1"
   style="stop-color:#575757"
   id="stop224" />

      </linearGradient>

      <path
   fill="url(#XMLID_10_)"
   stroke="none"
   d="M30.173,9.128l2.993-2.551l2.25,2.776l-1.108,5.004l-1.938-3.821L30.173,9.128z"
   id="path228" />

      <linearGradient
   id="XMLID_11_"
   gradientUnits="userSpaceOnUse"
   x1="-227.1206"
   y1="369.5869"
   x2="-222.3133"
   y2="374.2658"
   gradientTransform="matrix(1 0 0 -1 237.6367 402.9961)">
        <stop
   offset="0"
   style="stop-color:#FFFFFF"
   id="stop230" />

        <stop
   offset="1"
   style="stop-color:#808080"
   id="stop231" />

      </linearGradient>

      <path
   fill="url(#XMLID_11_)"
   stroke="none"
   d="M11.318,27.322l-1.359,3.259l4.809,3.131l5.589-4.573l0.692-4.339l-3.462,1.91     L11.318,27.322z"
   id="path235" />

      <linearGradient
   id="XMLID_12_"
   gradientUnits="userSpaceOnUse"
   x1="-225.0859"
   y1="367.6484"
   x2="-225.5275"
   y2="372.3565"
   gradientTransform="matrix(1 0 0 -1 237.6367 402.9961)">
        <stop
   offset="0"
   style="stop-color:#FFFFFF"
   id="stop237" />

        <stop
   offset="1"
   style="stop-color:#808080"
   id="stop238" />

      </linearGradient>

      <path
   fill="url(#XMLID_12_)"
   stroke="none"
   d="M9.959,32.978v-2.396l4.809,3.13l0.05,2.544L9.959,32.978z"
   id="path242" />

      <linearGradient
   id="XMLID_13_"
   gradientUnits="userSpaceOnUse"
   x1="-218.583"
   y1="355.9775"
   x2="-217.5757"
   y2="367.6964"
   gradientTransform="matrix(1 0 0 -1 237.6367 402.9961)">
        <stop
   offset="0"
   style="stop-color:#FFFFFF"
   id="stop244" />

        <stop
   offset="1"
   style="stop-color:#808080"
   id="stop245" />

      </linearGradient>

      <path
   fill="url(#XMLID_13_)"
   stroke="none"
   d="M16.434,35.444l-1.444,5.15c0,0,0.616,2.381,2.753,3.518     c2.273,1.209,6.074,1.179,6.074,1.179L23.646,32.61l-0.866-0.347L16.434,35.444z"
   id="path249" />

      <linearGradient
   id="XMLID_14_"
   gradientUnits="userSpaceOnUse"
   x1="-202.5752"
   y1="384.9063"
   x2="-198.9307"
   y2="384.9063"
   gradientTransform="matrix(1 0 0 -1 237.6367 402.9961)">
        <stop
   offset="0"
   style="stop-color:#FFFFFF"
   id="stop251" />

        <stop
   offset="1"
   style="stop-color:#4F4F4F"
   id="stop252" />

      </linearGradient>

      <path
   fill="url(#XMLID_14_)"
   stroke="none"
   d="M35.062,15.844l2.259-0.589l1.386,2.777l-1.083,2.893L35.062,15.844z"
   id="path256" />

      <linearGradient
   id="XMLID_15_"
   gradientUnits="userSpaceOnUse"
   x1="-198.7471"
   y1="376.1162"
   x2="-194.9492"
   y2="376.1162"
   gradientTransform="matrix(1 0 0 -1 237.6367 402.9961)">
        <stop
   offset="0"
   style="stop-color:#FFFFFF"
   id="stop258" />

        <stop
   offset="1"
   style="stop-color:#404040"
   id="stop259" />

      </linearGradient>

      <path
   fill="url(#XMLID_15_)"
   stroke="none"
   d="M40.956,23.76l-2.066-0.364l3.532,6.967l0.266-3.132L40.956,23.76z"
   id="path263" />

      <linearGradient
   id="XMLID_16_"
   gradientUnits="userSpaceOnUse"
   x1="-218.3442"
   y1="377.5801"
   x2="-222.9546"
   y2="374.5063"
   gradientTransform="matrix(1 0 0 -1 237.6367 402.9961)">
        <stop
   offset="0"
   style="stop-color:#A91212"
   id="stop265" />

        <stop
   offset="1"
   style="stop-color:#D71212"
   id="stop266" />

      </linearGradient>

      <path
   fill="url(#XMLID_16_)"
   stroke="none"
   d="M13.399,27.118l-0.833,2.195l1.385,1.215l6.8-3.858l0.298-1.869l-3.463,1.909     L13.399,27.118z"
   id="path270" />

      <linearGradient
   id="XMLID_17_"
   gradientUnits="userSpaceOnUse"
   x1="-219.0259"
   y1="400.8457"
   x2="-219.4349"
   y2="396.0017"
   gradientTransform="matrix(1 0 0 -1 237.6367 402.9961)">
        <stop
   offset="0"
   style="stop-color:#FFFFFF"
   id="stop272" />

        <stop
   offset="1"
   style="stop-color:#6B6B6B"
   id="stop273" />

      </linearGradient>

      <path
   fill="url(#XMLID_17_)"
   stroke="none"
   d="M16.847,9.102l0.34-6.09l2.583-0.693l0.155,0.263l-2.413,0.724l-0.288,5.645     L16.847,9.102z"
   id="path277" />

      <linearGradient
   id="XMLID_18_"
   gradientUnits="userSpaceOnUse"
   x1="-211.9585"
   y1="400.6689"
   x2="-213.7214"
   y2="397.5597"
   gradientTransform="matrix(1 0 0 -1 237.6367 402.9961)">
        <stop
   offset="0"
   style="stop-color:#FFFFFF"
   id="stop279" />

        <stop
   offset="1"
   style="stop-color:#808080"
   id="stop280" />

      </linearGradient>

      <path
   fill="url(#XMLID_18_)"
   stroke="none"
   d="M22.953,6.578l0.438,0.046L26.178,2l-0.282-0.109L22.953,6.578z"
   id="path284" />

      <linearGradient
   id="XMLID_19_"
   gradientUnits="userSpaceOnUse"
   x1="-203.5171"
   y1="396.6943"
   x2="-205.5146"
   y2="395.2366"
   gradientTransform="matrix(1 0 0 -1 237.6367 402.9961)">
        <stop
   offset="0"
   style="stop-color:#FFFFFF"
   id="stop286" />

        <stop
   offset="1"
   style="stop-color:#808080"
   id="stop287" />

      </linearGradient>

      <path
   fill="url(#XMLID_19_)"
   stroke="none"
   d="M30.173,9.128l2.993-2.551l0.245,0.302l-2.893,2.471L30.173,9.128z"
   id="path291" />

      <linearGradient
   id="XMLID_20_"
   gradientUnits="userSpaceOnUse"
   x1="-200.0776"
   y1="388.2881"
   x2="-201.2076"
   y2="387.4635"
   gradientTransform="matrix(1 0 0 -1 237.6367 402.9961)">
        <stop
   offset="0"
   style="stop-color:#FFFFFF"
   id="stop293" />

        <stop
   offset="1"
   style="stop-color:#808080"
   id="stop294" />

      </linearGradient>

      <path
   fill="url(#XMLID_20_)"
   stroke="none"
   d="M35.062,15.844l2.259-0.589l0.116,0.23L35.22,16.16L35.062,15.844z"
   id="path298" />

      <linearGradient
   id="XMLID_21_"
   gradientUnits="userSpaceOnUse"
   x1="-196.7119"
   y1="379.8691"
   x2="-197.4759"
   y2="379.3116"
   gradientTransform="matrix(1 0 0 -1 237.6367 402.9961)">
        <stop
   offset="0"
   style="stop-color:#FFFFFF"
   id="stop300" />

        <stop
   offset="1"
   style="stop-color:#808080"
   id="stop301" />

      </linearGradient>

      <path
   fill="url(#XMLID_21_)"
   stroke="none"
   d="M38.89,23.396l2.066,0.364l0.205,0.411l-2.048-0.377L38.89,23.396z"
   id="path305" />

      <path
   adobe-blending-mode="multiply"
   opacity="0.6"
   fill="#007900"
   stroke="none"
   d="M42.356,30.234l0.331-3.004l-1.731-3.471     l-2.066-0.364l-1.261-2.486l1.077-2.878l-1.27-2.546l-0.116-0.23l-2.259,0.589l-0.754-1.486l1.108-5.003L33.411,6.88     l-0.245-0.302l-2.993,2.551l0.125,0.081l-1.646-1.056l0.359-5.048L26.178,2l-0.282-0.109l-2.013,3.206l-2.072-1.328     c0,0-0.415-0.008-1.142,0.071L19.77,2.319l-2.583,0.693L17.1,4.566c-2.546,0.734-5.169,1.99-7.407,3.888l-0.866,3.471     c0,0-3.959,3.943-7.264,6.074l0.206,5.622l6.218,4.026l3.33-0.325l-1.358,3.259v2.396l4.858,3.278l7.962-3.992l0.866,0.347     l0.172,12.68l11.132-7.948c0,0,3.594-0.634,5.65-2.102c1.985-1.418,2.434-3.672,2.434-3.672L42.356,30.234z M20.109,28.891     l-5.567,4.172l-4.043-2.585l1.23-3.196l5.857-0.571l3.199-1.764L20.109,28.891z M22.913,16.229     c-0.13,0.465-0.432,0.852-0.852,1.089c-0.867,0.488-1.967,0.181-2.456-0.688c0,0-0.021-0.046-0.039-0.091     c0.133-0.072,0.34-0.158,0.525-0.229l1.121-0.501c0,0,1.009-0.703,1.009-0.703c0.157-0.121,0.338-0.255,0.468-0.331     c0.028,0.04,0.057,0.081,0.057,0.081c0.154,0.274,0.233,0.578,0.233,0.885C22.98,15.902,22.958,16.067,22.913,16.229z"
   id="path306" />

      <path
   fill="#FF0000"
   stroke="none"
   d="M22.857,16.425c-0.116,0.414-0.383,0.756-0.756,0.967c-0.769,0.434-1.746,0.16-2.178-0.61     c0,0-0.018-0.042-0.035-0.081c0.118-0.063,0.301-0.141,0.466-0.203l0.995-0.445c0.001,0,0.896-0.623,0.896-0.623     c0.139-0.108,0.299-0.227,0.415-0.295c0.024,0.035,0.05,0.072,0.05,0.072c0.137,0.244,0.206,0.513,0.206,0.785     C22.916,16.137,22.896,16.282,22.857,16.425z"
   id="path307" />

      <path
   adobe-blending-mode="overlay"
   opacity="0.38"
   stroke="none"
   d="M16.3,35.502l9.25-5.321c0,0,1.692-3.703,1.932-4.505     c-0.08,0.803-1.358,4.889-1.358,4.889l-10.221,5.85L16.3,35.502z"
   id="path308" />

      <path
   adobe-blending-mode="overlay"
   opacity="0.38"
   stroke="none"
   d="M16.847,9.102l5.596-2.261l2.766,1.547l-2.583,0.693     L16.847,9.102z"
   id="path309" />

      <path
   adobe-blending-mode="overlay"
   opacity="0.38"
   stroke="none"
   d="M22.953,6.578L29.661,8.8L26.773,6.95L22.953,6.578z"
   id="path310" />

      <path
   adobe-blending-mode="multiply"
   opacity="0.38"
   stroke="none"
   d="M17.185,35.075l0.104-0.054l2.396,1.472l4.124-0.331     l-4.322,0.881L17.185,35.075z"
   id="path311" />

      <path
   adobe-blending-mode="multiply"
   opacity="0.38"
   stroke="none"
   d="M16.343,36.526l3.039,2.325l4.325,0.01l-4.523,0.54     L16.343,36.526z"
   id="path312" />

      <path
   adobe-blending-mode="multiply"
   opacity="0.38"
   stroke="none"
   d="M15.089,38.033l3.458,3.091l5.413-0.633l-5.611,1.184     L15.089,38.033z"
   id="path313" />

      <path
   adobe-blending-mode="multiply"
   opacity="0.38"
   stroke="none"
   d="M14.875,40.477l3.458,3.091l5.412-0.633l-5.61,1.182     L14.875,40.477z"
   id="path314" />

      <linearGradient
   id="XMLID_22_"
   gradientUnits="userSpaceOnUse"
   x1="-200.0273"
   y1="371.957"
   x2="-202.102"
   y2="371.3187"
   gradientTransform="matrix(1 0 0 -1 237.6367 402.9961)">
        <stop
   offset="0"
   style="stop-color:#FFFFFF"
   id="stop316" />

        <stop
   offset="1"
   style="stop-color:#000000"
   id="stop317" />

      </linearGradient>

      <path
   adobe-blending-mode="multiply"
   opacity="0.38"
   fill="url(#XMLID_22_)"
   stroke="none"
   d="M35.458,25.902l5.469,9.914     l-5.963,1.549L35.458,25.902z"
   id="path321" />

      <path
   adobe-blending-mode="overlay"
   opacity="0.38"
   stroke="none"
   d="M18.903,16.535l2.31-0.726l2.582-2.283L18.903,16.535z"
   id="path322" />

      <path
   fill="#FFFF00"
   stroke="none"
   d="M21.919,16.121c0-0.349,0.219-0.632,0.489-0.632c0.271,0,0.49,0.283,0.49,0.632     c0,0.349-0.219,0.631-0.49,0.631C22.138,16.752,21.919,16.469,21.919,16.121z"
   id="path323" />

      <path
   adobe-blending-mode="overlay"
   opacity="0.85"
   fill="#FFFFFF"
   stroke="none"
   d="M13.906,29.745l2.049-0.893l-2.093,0.402     l-0.49-0.402L13.906,29.745z"
   id="path324" />

      <path
   adobe-blending-mode="multiply"
   opacity="0.6"
   fill="#FFFF66"
   stroke="none"
   d="M16.3,35.502l-1.444,5.15     c0,0,0.297,2.217,2.479,3.377c2.232,1.188,6.35,1.32,6.35,1.32l-0.173-12.68l-0.866-0.349L16.3,35.502z"
   id="path325" />

    </g>

  </g>

</svg>
