<?xml version="1.0" encoding="utf-8"?>
<!-- Generator: Adobe Illustrator 10.0.3, SVG Export Plug-In . SVG Version: 3.0.0 Build 77)  -->
<!DOCTYPE svg PUBLIC "-//W3C//DTD SVG 1.0//EN"    "http://www.w3.org/TR/2001/REC-SVG-20010904/DTD/svg10.dtd" [
	<!ENTITY ns_flows "http://ns.adobe.com/Flows/1.0/">
	<!ENTITY ns_extend "http://ns.adobe.com/Extensibility/1.0/">
	<!ENTITY ns_ai "http://ns.adobe.com/AdobeIllustrator/10.0/">
	<!ENTITY ns_svg "http://www.w3.org/2000/svg">
	<!ENTITY ns_xlink "http://www.w3.org/1999/xlink">
]>
<svg  xmlns:x="&ns_extend;" xmlns:i="&ns_ai;" xmlns:graph="&ns_graphs;"
	 xmlns="&ns_svg;" xmlns:xlink="&ns_xlink;" xmlns:a="http://ns.adobe.com/AdobeSVGViewerExtensions/3.0/" width="48" height="48"
	 viewBox="0.1 -0.333 125 125" overflow="visible" enable-background="new 0.1 -0.333 125 125" xml:space="preserve">
	<g id="Layer_1_2_">
		<path d="M24.599,16.542v27.584l-4.994-1.033L0,60.671l52.687,63.612l51.361-40.729l20.844-18.664c0,0-23.527-4.871-27.404-5.673
			c0-4.4,0-47.951,0-47.951L43.071,0L24.599,16.542z"/>
		<linearGradient id="XMLID_1_" gradientUnits="userSpaceOnUse" x1="103.3237" y1="68.7568" x2="85.3164" y2="78.4402">
			<stop  offset="0" style="stop-color:#33A433"/>
			<stop  offset="1" style="stop-color:#005D00"/>
		</linearGradient>
		<path fill="url(#XMLID_1_)" d="M78.142,76.297l23.972,4.963l16.347-14.638l-23.973-4.963L78.142,76.297z"/>
		<linearGradient id="XMLID_2_" gradientUnits="userSpaceOnUse" x1="99.1616" y1="49.6226" x2="84.0435" y2="44.1865">
			<stop  offset="0" style="stop-color:#33A433"/>
			<stop  offset="1" style="stop-color:#005D00"/>
		</linearGradient>
		<path fill="url(#XMLID_2_)" d="M78.142,76.297l16.346-14.638v-47.95L78.142,28.347V76.297z"/>
		<linearGradient id="XMLID_3_" gradientUnits="userSpaceOnUse" x1="23.5361" y1="49.6948" x2="24.4897" y2="61.663">
			<stop  offset="0" style="stop-color:#33A433"/>
			<stop  offset="1" style="stop-color:#005D00"/>
		</linearGradient>
		<path fill="url(#XMLID_3_)" d="M27.612,65.841L4.147,60.982L20.48,46.337l23.465,4.859L27.612,65.841z"/>
		<linearGradient id="XMLID_4_" gradientUnits="userSpaceOnUse" x1="72.7104" y1="1.0845" x2="53.1747" y2="25.7168">
			<stop  offset="0" style="stop-color:#33A433"/>
			<stop  offset="1" style="stop-color:#005D00"/>
		</linearGradient>
		<path fill="url(#XMLID_4_)" d="M27.599,17.883l50.543,10.464l16.346-14.638L43.945,3.245L27.599,17.883z"/>
		<linearGradient id="XMLID_5_" gradientUnits="userSpaceOnUse" x1="33.9336" y1="33.332" x2="63.2121" y2="79.3744">
			<stop  offset="0" style="stop-color:#33CC33"/>
			<stop  offset="1" style="stop-color:#009900"/>
		</linearGradient>
		<path fill="url(#XMLID_5_)" d="M27.599,17.883v47.95L4.134,60.976l48.99,59.133l48.99-38.849l-23.972-4.963v-47.95L27.599,17.883z
			"/>
		<linearGradient id="XMLID_6_" gradientUnits="userSpaceOnUse" x1="38.0518" y1="37.1128" x2="59.228" y2="85.5947">
			<stop  offset="0" style="stop-color:#FFFFFF"/>
			<stop  offset="1" style="stop-color:#000000"/>
		</linearGradient>
		<path opacity="0.4" fill="url(#XMLID_6_)"  a:adobe-blending-mode="screen" d="M77.377,76.92c0,0,0-46.738,0-47.95
			c-1.167-0.242-47.264-9.785-49.014-10.148c0,1.805,0,47.012,0,47.012v0.939c0,0-18.724-3.877-22.25-4.606
			c0.742,0.896,4.83,5.83,10.311,12.446c7.662-2.759,16.126-2.521,23.705,0.394c15.539,6.121,32.238,14.27,48.847,15.697
			c6.053-4.799,10.647-8.443,11.382-9.025C97.568,81.1,77.377,76.92,77.377,76.92z"/>
	</g>
</svg>
