<?xml version="1.0" encoding="UTF-8" standalone="yes"?>
<svg version="1.1" width="64" height="64" color-interpolation="linearRGB"
     xmlns:svg="http://www.w3.org/2000/svg" xmlns="http://www.w3.org/2000/svg">
 <g>
  <linearGradient id="gradient0" gradientUnits="userSpaceOnUse" x1="26.27" y1="65.97" x2="17.69" y2="74.07">
   <stop offset="0" stop-color="#000000"/>
   <stop offset="1" stop-color="#000000" stop-opacity="0"/>
  </linearGradient>
  <path style="fill:none; stroke:url(#gradient0); stroke-width:8"
        d="M17 49L5 61"
  />
  <path style="fill:none; stroke:#000000; stroke-width:3"
        d="M32 16L22 26C18 30 15 47 15 47L19 51C19 51 34 46 38 42L48 32L32 16z
           M28 15C27 16 26 18 26 19C26 20 26 23 28 25C30 27 33 27 35 27C37 27 40 26 41 25L29.61 13.74L28 15z"
  />
  <path style="fill:none; stroke:#000000; stroke-width:3"
        d="M55.5 11.5L56.5 10.5L52 6L50.66 6.66L49 5L46 8L45 7L37.85 14.13L32.74 16.74L46 30L60 16L55.5 11.5z"
  />
  <linearGradient id="gradient1" gradientUnits="userSpaceOnUse" x1="26.27" y1="65.97" x2="17.69" y2="74.07">
   <stop offset="0" stop-color="#ffcc00"/>
   <stop offset="1" stop-color="#ffcc00" stop-opacity="0"/>
  </linearGradient>
  <path style="fill:none; stroke:url(#gradient1); stroke-width:2"
        d="M17 49L5 61"
        transform="matrix(1,0,0,1,-1,-1)"
  />
  <linearGradient id="gradient2" gradientUnits="userSpaceOnUse" x1="26.27" y1="65.97" x2="17.69" y2="74.07">
   <stop offset="0" stop-color="#ff7e00"/>
   <stop offset="1" stop-color="#ff7e00" stop-opacity="0"/>
  </linearGradient>
  <path style="fill:none; stroke:url(#gradient2); stroke-width:2"
        d="M17 49L5 61"
  />
  <linearGradient id="gradient3" gradientUnits="userSpaceOnUse" x1="26.27" y1="65.97" x2="17.69" y2="74.07">
   <stop offset="0" stop-color="#ca5a00"/>
   <stop offset="1" stop-color="#ca5a00" stop-opacity="0"/>
  </linearGradient>
  <path style="fill:none; stroke:url(#gradient3); stroke-width:2"
        d="M17 49L5 61"
        transform="matrix(1,0,0,1,1,1)"
  />
  <linearGradient id="gradient4" gradientUnits="userSpaceOnUse" x1="41.02" y1="25.73" x2="42.82" y2="19.01">
   <stop offset="0" stop-color="#b2b2b2"/>
   <stop offset="1" stop-color="#e5e5e5"/>
  </linearGradient>
  <path style="fill:url(#gradient4)"
        d="M45 7L34 18L42 26L53 15L45 7z"
  />
  <linearGradient id="gradient5" gradientUnits="userSpaceOnUse" x1="50.29" y1="15" x2="51.17" y2="11.72">
   <stop offset="0" stop-color="#b2b2b2"/>
   <stop offset="1" stop-color="#e5e5e5"/>
  </linearGradient>
  <path style="fill:url(#gradient5)"
        d="M49 5L46 8L54 16L57 13L49 5z"
  />
  <linearGradient id="gradient6" gradientUnits="userSpaceOnUse" x1="42" y1="21.5" x2="60" y2="21.5">
   <stop offset="0" stop-color="#6f8793"/>
   <stop offset="0.3254" stop-color="#6a7883"/>
   <stop offset="0.6509" stop-color="#a4b2bd"/>
   <stop offset="1" stop-color="#7c8a94"/>
  </linearGradient>
  <path style="fill:url(#gradient6)"
        d="M57 13L54 16L53 15L42 26L46 30L60 16L57 13z"
  />
  <linearGradient id="gradient7" gradientUnits="userSpaceOnUse" x1="50.65" y1="13.64" x2="51.27" y2="11.35">
   <stop offset="0" stop-color="#404040"/>
   <stop offset="1" stop-color="#808080"/>
  </linearGradient>
  <path style="fill:url(#gradient7)"
        d="M52 14L55 11L51 7L48 10L52 14z"
  />
  <linearGradient id="gradient8" gradientUnits="userSpaceOnUse" x1="42.16" y1="23.84" x2="43.63" y2="18.37">
   <stop offset="0" stop-color="#404040"/>
   <stop offset="1" stop-color="#808080"/>
  </linearGradient>
  <path style="fill:url(#gradient8)"
        d="M43.99 13.99L37 21L39 23L46 16L47 17L51 13L47 9L43 13L43.99 13.99z"
  />
  <linearGradient id="gradient9" gradientUnits="userSpaceOnUse" x1="46" y1="12.75" x2="56.5" y2="12.75">
   <stop offset="0" stop-color="#bfbfbf"/>
   <stop offset="1" stop-color="#8c8c8c"/>
  </linearGradient>
  <path style="fill:url(#gradient9)"
        d="M56.5 10.5L56 10L46 15V15.5L55 11L55.5 11.5L56.5 10.5z"
  />
  <path style="fill:#afafaf"
        d="M42 11L46 15V15.5L42 11.5V11z"
  />
  <linearGradient id="gradient10" gradientUnits="userSpaceOnUse" x1="44" y1="14" x2="44" y2="9">
   <stop offset="0" stop-color="#cccccc"/>
   <stop offset="1" stop-color="#ffffff"/>
  </linearGradient>
  <path style="fill:url(#gradient10)"
        d="M52 6L42 11L46 15L56 10L52 6z"
  />
  <linearGradient id="gradient11" gradientUnits="userSpaceOnUse" x1="39.87" y1="18.75" x2="39.87" y2="10.5">
   <stop offset="0" stop-color="#cccccc"/>
   <stop offset="1" stop-color="#ffffff"/>
  </linearGradient>
  <path style="fill:url(#gradient11)"
        d="M45 10.5L32.74 16.74L34.74 18.74L47 12.5L45 10.5z"
  />
  <linearGradient id="gradient12" gradientUnits="userSpaceOnUse" x1="34.75" y1="15.79" x2="47" y2="15.79">
   <stop offset="0" stop-color="#808080"/>
   <stop offset="1" stop-color="#a3a3a3"/>
  </linearGradient>
  <path style="fill:url(#gradient12)"
        d="M34.74 18.74L35.07 19.07L47 13V12.5L34.74 18.74z"
  />
  <linearGradient id="gradient13" gradientUnits="userSpaceOnUse" x1="29.28" y1="36.66" x2="35.14" y2="43.65">
   <stop offset="0" stop-color="#ff8000"/>
   <stop offset="1" stop-color="#b60d04"/>
  </linearGradient>
  <path style="fill:url(#gradient13)"
        d="M42 26L32 36C28 40 17 49 17 49L19 51C19 51 34 46 38 42L48 32L42 26z"
  />
  <linearGradient id="gradient14" gradientUnits="userSpaceOnUse" x1="24.43" y1="19.14" x2="35.23" y2="23.57">
   <stop offset="0" stop-color="#ffde00"/>
   <stop offset="1" stop-color="#ffa200"/>
  </linearGradient>
  <path style="fill:url(#gradient14)"
        d="M32 16L22 26C18 30 15 47 15 47L17 49C17 49 28 40 32 36L42 26L32 16z"
  />
  <linearGradient id="gradient15" gradientUnits="userSpaceOnUse" x1="31.25" y1="21.75" x2="40.75" y2="31.25">
   <stop offset="0" stop-color="#ffae00"/>
   <stop offset="0.749" stop-color="#e05d00"/>
   <stop offset="1" stop-color="#990000"/>
  </linearGradient>
  <path style="fill:url(#gradient15)"
        d="M40 28C39 29 33 29 28 25C30 27 33 27 35 27C37 27 40 26 41 25L44 28C43 29 40 28 40 28z"
  />
  <radialGradient id="gradient16" gradientUnits="userSpaceOnUse" cx="0" cy="0" r="64" gradientTransform="matrix(0.1413,0,0,0.11,30.9993,18.0004)">
   <stop offset="0.3529" stop-color="#ffca00"/>
   <stop offset="0.7098" stop-color="#ff8a00"/>
   <stop offset="0.9921" stop-color="#ca4700"/>
  </radialGradient>
  <path style="fill:url(#gradient16)"
        d="M28 15C27 16 26 18 26 19C26 20 26 23 28 25C30 27 33 27 35 27C37 27 40 26 41 25L29.61 13.74L28 15z"
  />
  <linearGradient id="gradient17" gradientUnits="userSpaceOnUse" x1="29.25" y1="23.75" x2="38.75" y2="33.25">
   <stop offset="0" stop-color="#ffc105"/>
   <stop offset="0.7568" stop-color="#c05405"/>
   <stop offset="1" stop-color="#720303"/>
  </linearGradient>
  <path style="fill:none; stroke:url(#gradient17); stroke-width:1"
        d="M15 46L20 51
           M16 44L22 50
           M16 41L24 49
           M17 39L26 48
           M17 36L28 47
           M18 34L30 46"
  />
 </g>
</svg>
