<?xml version="1.0" encoding="UTF-8" standalone="no"?>
<svg
   xmlns:dc="http://purl.org/dc/elements/1.1/"
   xmlns:cc="http://creativecommons.org/ns#"
   xmlns:rdf="http://www.w3.org/1999/02/22-rdf-syntax-ns#"
   xmlns:svg="http://www.w3.org/2000/svg"
   xmlns="http://www.w3.org/2000/svg"
   xmlns:sodipodi="http://sodipodi.sourceforge.net/DTD/sodipodi-0.dtd"
   xmlns:inkscape="http://www.inkscape.org/namespaces/inkscape"
   version="1.1"
   width="64"
   height="64"
   color-interpolation="linearRGB"
   id="svg2"
   inkscape:version="0.91 r13725"
   sodipodi:docname="network-wired-offline.svg">
  <metadata
     id="metadata152">
    <rdf:RDF>
      <cc:Work
         rdf:about="">
        <dc:format>image/svg+xml</dc:format>
        <dc:type
           rdf:resource="http://purl.org/dc/dcmitype/StillImage" />
        <dc:title></dc:title>
      </cc:Work>
    </rdf:RDF>
  </metadata>
  <defs
     id="defs150" />
  <sodipodi:namedview
     pagecolor="#ffffff"
     bordercolor="#666666"
     borderopacity="1"
     objecttolerance="10"
     gridtolerance="10"
     guidetolerance="10"
     inkscape:pageopacity="0"
     inkscape:pageshadow="2"
     inkscape:window-width="1918"
     inkscape:window-height="1020"
     id="namedview148"
     showgrid="false"
     inkscape:zoom="11.0625"
     inkscape:cx="11.887006"
     inkscape:cy="31.936723"
     inkscape:window-x="2"
     inkscape:window-y="30"
     inkscape:window-maximized="1"
     inkscape:current-layer="svg2" />
  <g
     id="g4">
    <linearGradient
       id="gradient0"
       gradientUnits="userSpaceOnUse"
       x1="26.27"
       y1="65.97"
       x2="17.69"
       y2="74.07">
      <stop
         offset="0"
         stop-color="#000000"
         id="stop7" />
      <stop
         offset="1"
         stop-color="#000000"
         stop-opacity="0"
         id="stop9" />
    </linearGradient>
    <path
       style="fill:none; stroke:url(#gradient0); stroke-width:8"
       d="M17 49L5 61"
       id="path11" />
    <path
       style="fill:none; stroke:#000000; stroke-width:3"
       d="M32 16L22 26C18 30 15 47 15 47L19 51C19 51 34 46 38 42L48 32L32 16z            M28 15C27 16 26 18 26 19C26 20 26 23 28 25C30 27 33 27 35 27C37 27 40 26 41 25L29.61 13.74L28 15z"
       id="path13" />
    <path
       style="fill:none; stroke:#000000; stroke-width:3"
       d="M55.5 11.5L56.5 10.5L52 6L50.66 6.66L49 5L46 8L45 7L37.85 14.13L32.74 16.74L46 30L60 16L55.5 11.5z"
       id="path15" />
    <linearGradient
       id="gradient1"
       gradientUnits="userSpaceOnUse"
       x1="26.27"
       y1="65.97"
       x2="17.69"
       y2="74.07">
      <stop
         offset="0"
         stop-color="#ffcc00"
         id="stop18" />
      <stop
         offset="1"
         stop-color="#ffcc00"
         stop-opacity="0"
         id="stop20" />
    </linearGradient>
    <path
       style="fill:none; stroke:url(#gradient1); stroke-width:2"
       d="M17 49L5 61"
       transform="matrix(1,0,0,1,-1,-1)"
       id="path22" />
    <linearGradient
       id="gradient2"
       gradientUnits="userSpaceOnUse"
       x1="26.27"
       y1="65.97"
       x2="17.69"
       y2="74.07">
      <stop
         offset="0"
         stop-color="#ff7e00"
         id="stop25" />
      <stop
         offset="1"
         stop-color="#ff7e00"
         stop-opacity="0"
         id="stop27" />
    </linearGradient>
    <path
       style="fill:none; stroke:url(#gradient2); stroke-width:2"
       d="M17 49L5 61"
       id="path29" />
    <linearGradient
       id="gradient3"
       gradientUnits="userSpaceOnUse"
       x1="26.27"
       y1="65.97"
       x2="17.69"
       y2="74.07">
      <stop
         offset="0"
         stop-color="#ca5a00"
         id="stop32" />
      <stop
         offset="1"
         stop-color="#ca5a00"
         stop-opacity="0"
         id="stop34" />
    </linearGradient>
    <path
       style="fill:none; stroke:url(#gradient3); stroke-width:2"
       d="M17 49L5 61"
       transform="matrix(1,0,0,1,1,1)"
       id="path36" />
    <linearGradient
       id="gradient4"
       gradientUnits="userSpaceOnUse"
       x1="41.02"
       y1="25.73"
       x2="42.82"
       y2="19.01">
      <stop
         offset="0"
         stop-color="#b2b2b2"
         id="stop39" />
      <stop
         offset="1"
         stop-color="#e5e5e5"
         id="stop41" />
    </linearGradient>
    <path
       style="fill:url(#gradient4)"
       d="M45 7L34 18L42 26L53 15L45 7z"
       id="path43" />
    <linearGradient
       id="gradient5"
       gradientUnits="userSpaceOnUse"
       x1="50.29"
       y1="15"
       x2="51.17"
       y2="11.72">
      <stop
         offset="0"
         stop-color="#b2b2b2"
         id="stop46" />
      <stop
         offset="1"
         stop-color="#e5e5e5"
         id="stop48" />
    </linearGradient>
    <path
       style="fill:url(#gradient5)"
       d="M49 5L46 8L54 16L57 13L49 5z"
       id="path50" />
    <linearGradient
       id="gradient6"
       gradientUnits="userSpaceOnUse"
       x1="42"
       y1="21.5"
       x2="60"
       y2="21.5">
      <stop
         offset="0"
         stop-color="#6f8793"
         id="stop53" />
      <stop
         offset="0.3254"
         stop-color="#6a7883"
         id="stop55" />
      <stop
         offset="0.6509"
         stop-color="#a4b2bd"
         id="stop57" />
      <stop
         offset="1"
         stop-color="#7c8a94"
         id="stop59" />
    </linearGradient>
    <path
       style="fill:url(#gradient6)"
       d="M57 13L54 16L53 15L42 26L46 30L60 16L57 13z"
       id="path61" />
    <linearGradient
       id="gradient7"
       gradientUnits="userSpaceOnUse"
       x1="50.65"
       y1="13.64"
       x2="51.27"
       y2="11.35">
      <stop
         offset="0"
         stop-color="#404040"
         id="stop64" />
      <stop
         offset="1"
         stop-color="#808080"
         id="stop66" />
    </linearGradient>
    <path
       style="fill:url(#gradient7)"
       d="M52 14L55 11L51 7L48 10L52 14z"
       id="path68" />
    <linearGradient
       id="gradient8"
       gradientUnits="userSpaceOnUse"
       x1="42.16"
       y1="23.84"
       x2="43.63"
       y2="18.37">
      <stop
         offset="0"
         stop-color="#404040"
         id="stop71" />
      <stop
         offset="1"
         stop-color="#808080"
         id="stop73" />
    </linearGradient>
    <path
       style="fill:url(#gradient8)"
       d="M43.99 13.99L37 21L39 23L46 16L47 17L51 13L47 9L43 13L43.99 13.99z"
       id="path75" />
    <linearGradient
       id="gradient9"
       gradientUnits="userSpaceOnUse"
       x1="46"
       y1="12.75"
       x2="56.5"
       y2="12.75">
      <stop
         offset="0"
         stop-color="#bfbfbf"
         id="stop78" />
      <stop
         offset="1"
         stop-color="#8c8c8c"
         id="stop80" />
    </linearGradient>
    <path
       style="fill:url(#gradient9)"
       d="M56.5 10.5L56 10L46 15V15.5L55 11L55.5 11.5L56.5 10.5z"
       id="path82" />
    <path
       style="fill:#afafaf"
       d="M42 11L46 15V15.5L42 11.5V11z"
       id="path84" />
    <linearGradient
       id="gradient10"
       gradientUnits="userSpaceOnUse"
       x1="44"
       y1="14"
       x2="44"
       y2="9">
      <stop
         offset="0"
         stop-color="#cccccc"
         id="stop87" />
      <stop
         offset="1"
         stop-color="#ffffff"
         id="stop89" />
    </linearGradient>
    <path
       style="fill:url(#gradient10)"
       d="M52 6L42 11L46 15L56 10L52 6z"
       id="path91" />
    <linearGradient
       id="gradient11"
       gradientUnits="userSpaceOnUse"
       x1="39.87"
       y1="18.75"
       x2="39.87"
       y2="10.5">
      <stop
         offset="0"
         stop-color="#cccccc"
         id="stop94" />
      <stop
         offset="1"
         stop-color="#ffffff"
         id="stop96" />
    </linearGradient>
    <path
       style="fill:url(#gradient11)"
       d="M45 10.5L32.74 16.74L34.74 18.74L47 12.5L45 10.5z"
       id="path98" />
    <linearGradient
       id="gradient12"
       gradientUnits="userSpaceOnUse"
       x1="34.75"
       y1="15.79"
       x2="47"
       y2="15.79">
      <stop
         offset="0"
         stop-color="#808080"
         id="stop101" />
      <stop
         offset="1"
         stop-color="#a3a3a3"
         id="stop103" />
    </linearGradient>
    <path
       style="fill:url(#gradient12)"
       d="M34.74 18.74L35.07 19.07L47 13V12.5L34.74 18.74z"
       id="path105" />
    <linearGradient
       id="gradient13"
       gradientUnits="userSpaceOnUse"
       x1="29.28"
       y1="36.66"
       x2="35.14"
       y2="43.65">
      <stop
         offset="0"
         stop-color="#ff8000"
         id="stop108" />
      <stop
         offset="1"
         stop-color="#b60d04"
         id="stop110" />
    </linearGradient>
    <path
       style="fill:url(#gradient13)"
       d="M42 26L32 36C28 40 17 49 17 49L19 51C19 51 34 46 38 42L48 32L42 26z"
       id="path112" />
    <linearGradient
       id="gradient14"
       gradientUnits="userSpaceOnUse"
       x1="24.43"
       y1="19.14"
       x2="35.23"
       y2="23.57">
      <stop
         offset="0"
         stop-color="#ffde00"
         id="stop115" />
      <stop
         offset="1"
         stop-color="#ffa200"
         id="stop117" />
    </linearGradient>
    <path
       style="fill:url(#gradient14)"
       d="M32 16L22 26C18 30 15 47 15 47L17 49C17 49 28 40 32 36L42 26L32 16z"
       id="path119" />
    <linearGradient
       id="gradient15"
       gradientUnits="userSpaceOnUse"
       x1="31.25"
       y1="21.75"
       x2="40.75"
       y2="31.25">
      <stop
         offset="0"
         stop-color="#ffae00"
         id="stop122" />
      <stop
         offset="0.749"
         stop-color="#e05d00"
         id="stop124" />
      <stop
         offset="1"
         stop-color="#990000"
         id="stop126" />
    </linearGradient>
    <path
       style="fill:url(#gradient15)"
       d="M40 28C39 29 33 29 28 25C30 27 33 27 35 27C37 27 40 26 41 25L44 28C43 29 40 28 40 28z"
       id="path128" />
    <radialGradient
       id="gradient16"
       gradientUnits="userSpaceOnUse"
       cx="0"
       cy="0"
       r="64"
       gradientTransform="matrix(0.1413,0,0,0.11,30.9993,18.0004)">
      <stop
         offset="0.3529"
         stop-color="#ffca00"
         id="stop131" />
      <stop
         offset="0.7098"
         stop-color="#ff8a00"
         id="stop133" />
      <stop
         offset="0.9921"
         stop-color="#ca4700"
         id="stop135" />
    </radialGradient>
    <path
       style="fill:url(#gradient16)"
       d="M28 15C27 16 26 18 26 19C26 20 26 23 28 25C30 27 33 27 35 27C37 27 40 26 41 25L29.61 13.74L28 15z"
       id="path137" />
    <linearGradient
       id="gradient17"
       gradientUnits="userSpaceOnUse"
       x1="29.25"
       y1="23.75"
       x2="38.75"
       y2="33.25">
      <stop
         offset="0"
         stop-color="#ffc105"
         id="stop140" />
      <stop
         offset="0.7568"
         stop-color="#c05405"
         id="stop142" />
      <stop
         offset="1"
         stop-color="#720303"
         id="stop144" />
    </linearGradient>
    <path
       style="fill:none; stroke:url(#gradient17); stroke-width:1"
       d="M15 46L20 51            M16 44L22 50            M16 41L24 49            M17 39L26 48            M17 36L28 47            M18 34L30 46"
       id="path146" />
  </g>
  <g
     transform="matrix(0.64001268,0,0,0.64001268,5.0560539,-50.794634)"
     id="g7904">
    <text
       sodipodi:linespacing="125%"
       id="text3455"
       y="173.81429"
       x="59.81496"
       style="font-style:normal;font-variant:normal;font-weight:bold;font-stretch:normal;font-size:42.07255936px;line-height:125%;font-family:'Bitstream Vera Sans';text-align:start;writing-mode:lr-tb;text-anchor:start;fill:none;stroke:#000000;stroke-width:8.76511669;stroke-linecap:butt;stroke-linejoin:round;stroke-miterlimit:4;stroke-dasharray:none;stroke-opacity:1"
       xml:space="preserve"><tspan
         style="stroke-width:8.76511669"
         y="173.81429"
         x="59.81496"
         id="tspan3457"
         sodipodi:role="line">x</tspan></text>
    <text
       sodipodi:linespacing="125%"
       id="text3451"
       y="173.81429"
       x="59.81496"
       style="font-style:normal;font-variant:normal;font-weight:bold;font-stretch:normal;font-size:42.07255936px;line-height:125%;font-family:'Bitstream Vera Sans';text-align:start;writing-mode:lr-tb;text-anchor:start;fill:#ff0606;fill-opacity:1;stroke:none"
       xml:space="preserve"><tspan
         y="173.81429"
         x="59.81496"
         id="tspan3453"
         sodipodi:role="line">x</tspan></text>
  </g>
</svg>
