<?xml version="1.0" encoding="UTF-8" standalone="no"?>
<svg
   xmlns:dc="http://purl.org/dc/elements/1.1/"
   xmlns:cc="http://creativecommons.org/ns#"
   xmlns:rdf="http://www.w3.org/1999/02/22-rdf-syntax-ns#"
   xmlns:svg="http://www.w3.org/2000/svg"
   xmlns="http://www.w3.org/2000/svg"
   xmlns:sodipodi="http://sodipodi.sourceforge.net/DTD/sodipodi-0.dtd"
   xmlns:inkscape="http://www.inkscape.org/namespaces/inkscape"
   version="1.1"
   width="64"
   height="64"
   color-interpolation="linearRGB"
   id="svg2"
   inkscape:version="0.91 r13725"
   sodipodi:docname="network-roaming.svg">
  <metadata
     id="metadata102">
    <rdf:RDF>
      <cc:Work
         rdf:about="">
        <dc:format>image/svg+xml</dc:format>
        <dc:type
           rdf:resource="http://purl.org/dc/dcmitype/StillImage" />
        <dc:title></dc:title>
      </cc:Work>
    </rdf:RDF>
  </metadata>
  <defs
     id="defs100" />
  <sodipodi:namedview
     pagecolor="#ffffff"
     bordercolor="#666666"
     borderopacity="1"
     objecttolerance="10"
     gridtolerance="10"
     guidetolerance="10"
     inkscape:pageopacity="0"
     inkscape:pageshadow="2"
     inkscape:window-width="1364"
     inkscape:window-height="708"
     id="namedview98"
     showgrid="false"
     inkscape:zoom="3.2841797"
     inkscape:cx="25.71877"
     inkscape:cy="7.1319167"
     inkscape:window-x="2"
     inkscape:window-y="30"
     inkscape:window-maximized="1"
     inkscape:current-layer="svg2" />
  <rect
     style="opacity:1;fill:#ffcc00;fill-opacity:1;stroke:#000000;stroke-width:1.93548393;stroke-linecap:square;stroke-linejoin:miter;stroke-miterlimit:4;stroke-dasharray:none;stroke-dashoffset:0;stroke-opacity:1"
     id="rect6756"
     width="58.064518"
     height="58.064518"
     x="2.967741"
     y="2.967741" />
  <g
     style="font-style:normal;font-variant:normal;font-weight:bold;font-stretch:normal;font-size:40px;line-height:125%;font-family:'DejaVu Sans Mono';-inkscape-font-specification:'DejaVu Sans Mono Bold';letter-spacing:0px;word-spacing:0px;fill:#000000;fill-opacity:1;stroke:none;stroke-width:1px;stroke-linecap:butt;stroke-linejoin:miter;stroke-opacity:1"
     id="text7558">
    <path
       d="m 34.421875,32.810547 q 0.859375,0.175781 1.484375,0.820312 0.644531,0.625 1.5625,2.460938 l 5.273437,10.488281 -6.328125,0 -3.515625,-7.363281 q -0.15625,-0.3125 -0.410156,-0.859375 -1.542969,-3.300781 -3.632812,-3.300781 l -1.835938,0 0,11.523437 -5.761719,0 0,-29.160156 8.320313,0 q 5.625,0 8.066406,1.992187 2.460938,1.992188 2.460938,6.484375 0,3.007813 -1.464844,4.785157 -1.464844,1.777343 -4.21875,2.128906 z m -7.402344,-10.546875 0,7.949219 2.714844,0 q 2.363281,0 3.378906,-0.917969 1.035156,-0.9375 1.035156,-3.066406 0,-2.128907 -1.015625,-3.046875 -1.015625,-0.917969 -3.398437,-0.917969 l -2.714844,0 z"
       style=""
       id="path7696" />
  </g>
</svg>
