<?xml version="1.0" encoding="UTF-8" standalone="no"?>
<!-- Created with Inkscape (http://www.inkscape.org/) -->

<svg
   xmlns:dc="http://purl.org/dc/elements/1.1/"
   xmlns:cc="http://creativecommons.org/ns#"
   xmlns:rdf="http://www.w3.org/1999/02/22-rdf-syntax-ns#"
   xmlns:svg="http://www.w3.org/2000/svg"
   xmlns="http://www.w3.org/2000/svg"
   xmlns:sodipodi="http://sodipodi.sourceforge.net/DTD/sodipodi-0.dtd"
   xmlns:inkscape="http://www.inkscape.org/namespaces/inkscape"
   width="48"
   height="48"
   viewBox="0 0 48 48"
   id="svg2"
   version="1.1"
   inkscape:version="0.91 r13725"
   sodipodi:docname="fly-red.svg">
  <defs
     id="defs4" />
  <sodipodi:namedview
     id="base"
     pagecolor="#ffffff"
     bordercolor="#666666"
     borderopacity="1.0"
     inkscape:pageopacity="0.0"
     inkscape:pageshadow="2"
     inkscape:zoom="5.8235471"
     inkscape:cx="22.07085"
     inkscape:cy="23.289815"
     inkscape:document-units="px"
     inkscape:current-layer="layer1"
     showgrid="false"
     inkscape:window-width="1364"
     inkscape:window-height="708"
     inkscape:window-x="2"
     inkscape:window-y="30"
     inkscape:window-maximized="1"
     units="px" />
  <metadata
     id="metadata7">
    <rdf:RDF>
      <cc:Work
         rdf:about="">
        <dc:format>image/svg+xml</dc:format>
        <dc:type
           rdf:resource="http://purl.org/dc/dcmitype/StillImage" />
        <dc:title></dc:title>
      </cc:Work>
    </rdf:RDF>
  </metadata>
  <g
     inkscape:label="Capa 1"
     inkscape:groupmode="layer"
     id="layer1"
     transform="translate(0,-1004.3622)">
    <g
       id="g4155"
       transform="matrix(0.09943638,0,0,0.09943638,21.550024,986.74172)">
      <path
         style="opacity:1;fill:#de0000;fill-opacity:1;fill-rule:evenodd;stroke:none;stroke-width:1.28299999;stroke-linecap:square;stroke-linejoin:round;stroke-miterlimit:4;stroke-dasharray:none;stroke-dashoffset:0;stroke-opacity:1"
         d="m 216.93455,421.21874 c 86.04033,65.23744 -88.79357,188.57721 -93.72949,76.71154 -5.37651,-8.72945 55.86297,-79.95029 93.72949,-76.71154 z"
         id="path4159"
         inkscape:connector-curvature="0"
         sodipodi:nodetypes="ccc" />
      <path
         sodipodi:nodetypes="ccc"
         inkscape:connector-curvature="0"
         id="path4157"
         d="m 97.73995,496.84457 c -217.27152,-227.87771 0.76842,-206.79116 93.72949,-76.71154 5.37651,8.72945 -55.86297,79.95029 -93.72949,76.71154 z"
         style="opacity:1;fill:#ae1010;fill-opacity:1;fill-rule:evenodd;stroke:none;stroke-width:1.28299999;stroke-linecap:square;stroke-linejoin:round;stroke-miterlimit:4;stroke-dasharray:none;stroke-dashoffset:0;stroke-opacity:1" />
      <path
         sodipodi:nodetypes="ccccc"
         inkscape:connector-curvature="0"
         id="rect4152"
         d="m -175.89583,342.83997 64.27138,2.53703 c 228.72117,-5.23448 186.482239,141.96559 68.49976,93.87005 -70.84677,-17.26826 -114.34924,-31.49827 -134.4625,-43.12948 -22.54129,-16.95767 -43.07126,-47.58656 1.69136,-53.2776 z"
         style="opacity:1;fill:#ec8300;fill-opacity:1;fill-rule:evenodd;stroke:none;stroke-width:1.28299999;stroke-linecap:square;stroke-linejoin:round;stroke-miterlimit:4;stroke-dasharray:none;stroke-dashoffset:0;stroke-opacity:1" />
      <path
         style="opacity:1;fill:#ec8300;fill-opacity:1;fill-rule:evenodd;stroke:none;stroke-width:1.28299999;stroke-linecap:square;stroke-linejoin:round;stroke-miterlimit:4;stroke-dasharray:none;stroke-dashoffset:0;stroke-opacity:1"
         d="m 2.44762,222.39101 c 9.43068,5.02128 15.47866,8.02199 26.17786,18.33981 113.76725,88.54915 89.14597,130.96651 9.18638,78.90961 -24.03429,-17.6378 -42.92958,-25.88259 -56.25325,-68.38636 -5.83754,-16.59884 -13.2955,-53.69586 20.88901,-28.86306 z"
         id="path4155"
         inkscape:connector-curvature="0"
         sodipodi:nodetypes="ccccc" />
      <path
         sodipodi:nodetypes="cssssssssccscsssssssssscssssssssssssssssssssssssscsscssssscscsssccssssccccsssssssssssssssssssssssssssssssssssscssscssssssssssssscsscsssssssssssccsssssscssscsscsssssscssssssssscssccc"
         style="opacity:1;fill:#000000;fill-opacity:1;stroke:none;stroke-opacity:1"
         d="m 101.65054,582.38438 c 0.70172,-1.07097 2.61918,-1.52291 2.44829,-2.67083 -0.17089,-1.14792 -0.8445,-2.7804 -2.15364,-5.78963 -8.43967,-19.39958 -11.2987,-36.74871 -9.45379,-57.36669 0.85155,-9.51657 0.81147,-11.80793 -0.22352,-12.7778 -0.69363,-0.64999 -5.26896,-2.31022 -10.1674,-3.68939 -16.20137,-4.56157 -38.47836,-14.53263 -56.02293,-25.07558 -4.25791,-2.55868 -8.47666,-4.51277 -9.375,-4.34242 -2.45639,0.46581 -2.43794,3.22973 0.18555,27.78432 2.96275,27.72983 2.9619,28.17538 -0.0652,34.18116 -9.39136,17.90581 -28.25502,44.85516 -30.24208,38.79457 3.07737,-6.23279 8.8534,-6.95291 23.87087,-32.87906 l 6.49249,-11.20862 -0.18613,-7.9037 C 16.39799,504.15106 12.75338,486.78011 6.58748,470.96573 2.20968,459.7375 1.87166,459.22134 -4.48065,454.06534 c -6.90883,-5.60772 -8.1627,-6.00536 -63.72344,-20.20862 -70.25714,-17.96016 -77.54766,-20.13608 -92.54361,-27.62038 -27.72258,-13.83601 -41.60848,-28.06627 -42.82804,-43.89015 -0.38128,-4.94716 -0.1314,-6.21315 1.77923,-9.0144 5.91553,-8.67297 14.78732,-10.83807 43.89694,-10.71275 11.60157,0.05 32.01068,0.82823 45.35358,1.72951 13.34291,0.90129 30.18855,1.70417 37.43474,1.78419 l 13.17491,0.14549 3.76707,-5.47522 c 5.77198,-8.38925 15.6234,-16.96812 24.39409,-21.24299 13.33124,-6.4977 25.18687,-7.67696 50.48499,-5.02166 4.61095,0.48397 5.39062,0.34231 5.39062,-0.97939 0,-0.84985 -4.34548,-5.85912 -9.65663,-11.13171 -12.56336,-12.47216 -18.26405,-20.20164 -25.04749,-33.96153 -11.77961,-23.89442 -14.87544,-45.53688 -7.47629,-52.26563 2.83106,-2.57455 8.62072,-3.60806 9.77247,-1.74448 0.28338,0.45851 1.67936,1.12529 3.10221,1.48175 4.31698,1.08151 16.78187,7.72171 25.3919,13.5266 16.82334,11.34229 40.76477,32.03193 55.08692,47.60486 24.21625,26.33109 45.23557,55.20185 54.0114,74.18648 3.1545,6.82409 4.03439,7.96173 7.09879,9.17835 12.94059,5.13765 25.78522,13.63582 29.33302,19.40712 1.01429,1.64997 2.27018,4.68745 2.79086,6.74995 1.48976,5.90123 2.1275,6.5147 7.46284,7.17899 3.19055,0.39725 6.32232,1.57714 8.80633,3.31776 4.453,3.12035 9.74713,11.36088 10.55981,16.43676 0.30786,1.92282 1.10339,4.23953 1.76787,5.14826 1.14443,1.5651 1.43623,1.54141 5.5334,-0.44915 5.68809,-2.76349 10.29759,-2.65419 16.40449,0.38901 14.5611,7.2561 27.2456,29.29364 27.2456,47.33543 0,11.56565 -6.01256,25.69861 -13.97105,32.83997 -4.36407,3.91598 -4.80631,6.36646 -1.91583,10.61547 1.0523,1.54688 3.75581,4.30204 4.53352,5.76387 l 4.1152,7.73524 -6.57867,-7.37198 c -1.32399,-1.48365 -3.33402,-1.74368 -4.27365,-1.38311 -2.07258,0.79532 -5.32782,11.39191 -5.41291,17.62036 -0.0363,2.65271 -0.42765,5.75318 -0.18764,6.81345 2.49312,11.01375 -1.30476,1.64164 -1.99028,-1.087 -2.2561,-8.98018 -2.53748,-9.80958 -4.34572,-9.80958 -1.00636,0 -4.6815,1.95845 -8.16698,4.3521 -11.36409,7.80431 -24.75577,12.73673 -37.99444,13.99411 -10.5044,0.99768 -9.89007,1.90488 -4.52395,14.42576 27.39055,40.72776 1.07015,11.02678 -6.2143,-6.42287 -2.20937,-5.29247 -5.1866,-8.99782 -6.1647,-9.26161 -0.92683,-0.24995 -4.60065,-1.85167 -8.16403,-3.55937 -7.5453,-3.616 -14.08827,-9.30961 -17.63893,-15.3492 -2.24437,-3.81763 -2.52286,-5.27112 -2.61488,-13.64767 l -0.103,-9.375 -3.17825,0.0955 c -5.28516,0.15872 -12.18678,1.94879 -13.82334,3.58534 -1.3236,1.32361 -1.53358,3.96485 -1.48009,18.61831 0.0637,17.46057 1.6601,32.3262 5.02261,46.77137 0.92121,3.95751 1.41959,7.59582 1.1075,8.08514 -0.67461,1.05772 -34.51187,20.9878 -38.93326,22.26134 -2.60784,2.47698 -10.73534,27.75763 -12.92354,22.07586 -1.0254,-5.57606 3.94241,-11.15892 9.07572,-28.91901 23.56559,-8.60003 21.15912,-6.89467 34.1075,-13.0302 z m 75.96674,-49.19447 c 8.35414,-1.97034 21.26389,-8.93905 27.6818,-14.94269 11.67496,-10.92135 12.85305,-19.10419 5.00938,-34.79444 -8.08695,-16.17691 -18.76004,-27.53763 -26.89608,-28.6289 -8.43118,-1.13086 -19.51085,8.36295 -35.05676,30.039 -11.49104,16.02224 -14.66492,22.09781 -14.68076,28.10253 -0.0146,5.55521 1.54148,8.67582 6.60955,13.25453 9.00464,8.13515 22.05895,10.57236 37.33287,6.96997 z m 54.09868,-56.84219 c 3.14973,-14.15743 0.43733,-27.79361 -7.67514,-38.58558 -7.14481,-9.50469 -15.74462,-13.70904 -19.51636,-9.54131 -2.25228,2.48874 -4.29898,9.81166 -4.29898,15.38144 0,4.30215 0.36479,5.07021 4.4933,9.46038 6.11842,6.5062 12.75342,16.00994 17.25521,24.71571 2.06192,3.98743 3.96014,7.59375 4.21828,8.01406 1.19893,1.9521 4.08664,-2.98546 5.52369,-9.4447 z m -115.86548,5.09858 c 6.93066,-2.86455 13.61003,-7.25264 25.06511,-16.46676 9.55769,-7.68792 38.6298,-35.80907 41.72559,-40.36073 1.99093,-2.92721 2.12559,-8.60157 0.28844,-12.15422 -1.99292,-3.8539 -7.52153,-8.35227 -11.08729,-9.0212 -3.89516,-0.73074 -10.57426,1.7081 -18.11668,6.61521 -3.04228,1.97931 -12.08881,10.16501 -20.10339,18.19044 -22.18078,22.21079 -32.77178,37.65855 -32.77178,47.80006 0,3.7466 0.40627,4.93862 2.08361,6.11347 2.87508,2.01379 6.84361,1.79372 12.91639,-0.71627 z M 92.68471,450.71801 c 2.46288,-1.22706 11.5261,-9.64475 24.10327,-22.38652 13.29975,-13.47379 22.76196,-22.22146 27.8163,-25.71573 8.9758,-6.20533 13.4337,-10.93197 13.4337,-14.24352 0,-3.8061 -8.12421,-10.92549 -18.08888,-15.85161 -21.65821,-10.70693 -37.77867,-8.58059 -53.2668,7.02603 -5.71485,5.75859 -8.08149,9.07832 -11.87736,16.66071 -5.98854,11.96231 -6.7389,16.87909 -4.13133,27.07094 2.78762,10.89557 7.29158,21.94904 10.55855,25.91244 3.36801,4.08598 5.69416,4.39618 11.45255,1.52726 z M -29.04014,437.736 c -1.32885,-1.32193 -15.46026,-6.63675 -46.82813,-17.61204 -15.46875,-5.41235 -48.31407,-17.00409 -49.08751,-17.49058 -4.47543,-2.81505 52.91107,14.23059 89.86876,25.87257 27.28776,8.59586 29.8273,9.27893 30.49303,8.20174 0.26568,-0.42987 -1.3186,-2.00851 -3.52061,-3.50809 -3.95342,-2.69228 -37.5262,-19.99724 -61.65992,-33.75462 -18.19136,-10.36995 -52.6895,-26.31932 -10.38674,-8.5503 14.05954,5.90562 45.6097,21.06743 72.45632,35.72332 7.74007,4.2254 14.52379,7.28813 15.46875,7.05536 2.25132,-0.55456 -10.70867,-14.20165 -26.44458,-25.78466 -19.78283,-14.5619 -51.24559,-33.92122 -9.375,-9.13357 6.72716,3.98252 24.19154,16.35287 35.21326,25.42752 9.2889,7.64795 12.13049,9.2028 12.13049,6.63751 0,-1.57551 -7.73326,-12.82266 -14.82533,-21.56177 -3.00396,-3.70159 -5.66769,-7.46018 -6.26874,-8.08641 -30.04341,-31.30228 13.8042,10.83835 26.62092,24.55937 3.25108,3.48047 6.29065,6.32813 6.75461,6.32813 1.08628,0 1.08724,-3.93721 0.002,-6.73584 -0.46305,-1.19373 -1.44029,-4.54875 -2.82324,-7.15425 -10.85034,-20.44225 -7.66073,-16.59851 5.11563,4.07367 2.67326,4.32533 5.45912,8.04528 6.00598,8.38325 1.96501,1.21445 2.23529,-2.82812 0.68459,-10.23934 -0.86842,-4.15044 -7.73046,-19.80259 -7.9733,-21.0952 -0.26104,-1.38947 6.9388,10.62676 8.76441,15.89271 3.35787,9.68573 4.60998,9.67029 5.90045,10.10045 1.61746,0.53915 1.42483,-11.29074 -0.29113,-17.87871 C 42.60618,390.71062 28.54789,375.64064 8.81884,366.52578 -5.39551,359.95874 -21.91315,355.53 -41.94128,352.91591 c -6.09035,-0.79493 -32.87942,-2.76234 -59.53125,-4.37202 -64.18413,-3.87654 -83.47781,-3.27743 -93.47741,2.90267 -8.72184,5.39039 -6.02732,18.35837 6.59468,31.73835 16.83723,17.84836 34.23131,24.66492 115.29987,45.18478 38.64212,9.78098 46.00814,11.34843 44.01562,9.36631 z m 87.10097,-30.84161 c 0.85989,-0.95017 2.6017,-4.3769 3.87069,-7.61496 6.64315,-16.95129 14.93644,-27.01134 32.12209,-38.96526 3.02885,-2.1068 2.61272,-4.62635 -1.43217,-8.67124 -6.22244,-6.22243 -18.83,-11.10834 -31.18342,-12.08477 -18.05865,-1.42738 -28.4643,7.67102 -29.71963,25.98599 l -0.49358,7.20103 6.45346,6.96084 c 6.72934,7.25842 11.52901,15.17153 13.5584,22.35346 1.93088,6.83327 3.81049,8.16498 6.82416,4.83491 z m 32.88692,-67.71452 c -28.35584,-16.82129 -46.93986,-25.66034 -2.75352,-5.31856 1.7573,0.809 -1.86886,-4.00489 -9.0369,-10.01102 -4.97029,-4.16463 -19.36361,-14.52364 -19.19495,-14.70638 0.16866,-0.18275 13.96803,8.23439 17.87506,10.39112 3.90703,2.15673 7.62469,3.74332 8.26149,3.52577 0.65377,-0.22335 -1.75522,-3.96415 -6.3422,-7.68216 -22.83724,-18.51092 -47.10168,-36.21923 1.38296,-1.67584 3.37406,2.40388 6.22103,3.66972 6.41631,3.08387 0.19022,-0.57066 -1.2397,-2.97256 -3.17762,-5.33752 L 54.84263,283.9026 85.2995,310.54184 c 5.60204,4.89985 7.5189,4.50116 4.97088,-0.0454 -0.62626,-1.11747 -5.89282,-7.55106 -11.70348,-14.29687 -5.81065,-6.7458 -28.02214,-28.03692 -27.70688,-28.03692 0.31527,0 19.36113,16.61556 20.67215,17.64681 1.31102,1.03125 2.77738,1.875 3.25858,1.875 1.64014,0 -3.38118,-6.0785 -14.21502,-17.20784 C 41.07,250.43885 16.97523,231.68631 0.10767,223.41539 c -9.76508,-4.78826 -15.05544,-5.92498 -17.85094,-3.83555 -1.67692,1.25337 -1.86389,2.42401 -1.76985,11.08114 0.0848,7.81401 0.60197,11.20943 2.68274,17.61615 9.83643,30.28647 30.73502,55.43071 59.53008,71.62391 12.18008,6.84959 46.28856,22.04917 49.6543,22.12719 0.852,0.0198 0.33504,-1.02736 -1.40625,-2.84838 z"
         id="path3375"
         inkscape:connector-curvature="0" />
      <path
         style="opacity:1;fill:#650000;fill-opacity:1;fill-rule:evenodd;stroke:none;stroke-width:1.28299999;stroke-linecap:square;stroke-linejoin:round;stroke-miterlimit:4;stroke-dasharray:none;stroke-dashoffset:0;stroke-opacity:1"
         d="M 26.664809,368.70494 C 15.308589,363.2966 9.2807191,359.50371 -8.3455509,353.61982 -25.755011,347.80831 -54.727001,346.3342 -54.727001,346.3342 c 4.95771,-14.21231 22.969126,-29.68029 49.6645064,-29.4458 22.6553896,0.199 49.0654236,4.23807 52.0565836,18.1435 -15.12011,4.09246 -16.37142,19.28408 -20.32928,33.67304 z"
         id="path4161"
         inkscape:connector-curvature="0"
         sodipodi:nodetypes="cscscc" />
    </g>
  </g>
</svg>
