<?xml version="1.0" encoding="UTF-8" standalone="no"?>
<svg
   xmlns:dc="http://purl.org/dc/elements/1.1/"
   xmlns:cc="http://creativecommons.org/ns#"
   xmlns:rdf="http://www.w3.org/1999/02/22-rdf-syntax-ns#"
   xmlns:svg="http://www.w3.org/2000/svg"
   xmlns="http://www.w3.org/2000/svg"
   xmlns:sodipodi="http://sodipodi.sourceforge.net/DTD/sodipodi-0.dtd"
   xmlns:inkscape="http://www.inkscape.org/namespaces/inkscape"
   version="1.1"
   width="64"
   height="64"
   color-interpolation="linearRGB"
   id="svg2"
   inkscape:version="0.91 r13725"
   sodipodi:docname="object-group.svg">
  <metadata
     id="metadata57">
    <rdf:RDF>
      <cc:Work
         rdf:about="">
        <dc:format>image/svg+xml</dc:format>
        <dc:type
           rdf:resource="http://purl.org/dc/dcmitype/StillImage" />
        <dc:title />
      </cc:Work>
    </rdf:RDF>
  </metadata>
  <defs
     id="defs55" />
  <sodipodi:namedview
     pagecolor="#ffffff"
     bordercolor="#666666"
     borderopacity="1"
     objecttolerance="10"
     gridtolerance="10"
     guidetolerance="10"
     inkscape:pageopacity="0"
     inkscape:pageshadow="2"
     inkscape:window-width="1041"
     inkscape:window-height="768"
     id="namedview53"
     showgrid="false"
     inkscape:zoom="9.1369084"
     inkscape:cx="32.099144"
     inkscape:cy="31.974728"
     inkscape:window-x="0"
     inkscape:window-y="30"
     inkscape:window-maximized="0"
     inkscape:current-layer="svg2" />
  <g
     id="g4"
     transform="matrix(0.56743011,0,0,0.56743011,16.214824,10.182125)">
    <path
       style="fill:#010101;fill-opacity:0.45489999"
       d="m 14,60 9,0 11,-9 7,13 c 0,0 16,2 19,-8 C 63,46 50,44 50,44 l 10,0 4,-6 -6,-8 -24,20 -13,-7"
       id="path6"
       inkscape:connector-curvature="0" />
    <path
       style="fill:none;stroke:#000000;stroke-width:4"
       d="m 46,1.99 -8,6 -12,26 L 50,46 59.5,36.49 46,1.99 Z"
       id="path8"
       inkscape:connector-curvature="0" />
    <linearGradient
       id="gradient0"
       gradientUnits="userSpaceOnUse"
       x1="71.389999"
       y1="72"
       x2="47.299999"
       y2="80.129997">
      <stop
         offset="0"
         stop-color="#fff289"
         id="stop11" />
      <stop
         offset="1"
         stop-color="#ffcd05"
         id="stop13" />
    </linearGradient>
    <path
       style="fill:url(#gradient0)"
       d="M 26,33.99 38,7.99 50,46 26,33.99 Z"
       id="path15"
       inkscape:connector-curvature="0" />
    <linearGradient
       id="gradient1"
       gradientUnits="userSpaceOnUse"
       x1="55.279999"
       y1="53"
       x2="30.83"
       y2="48.060001">
      <stop
         offset="0"
         stop-color="#f98e05"
         id="stop18" />
      <stop
         offset="1"
         stop-color="#fcb23d"
         id="stop20" />
    </linearGradient>
    <path
       style="fill:url(#gradient1)"
       d="M 50,46 59.5,36.49 46,1.99 38,7.99 50,46 Z"
       id="path22"
       inkscape:connector-curvature="0" />
    <path
       style="fill:none;stroke:#000000;stroke-width:4"
       d="m 40.99,35.99 c 7.29,0 13,5.72 13,13.01 0,7.28 -5.71,13 -13,13 -7.27,0 -13,-5.72 -13,-13 0,-7.29 5.73,-13.01 13,-13.01 z"
       id="path24"
       inkscape:connector-curvature="0" />
    <radialGradient
       id="gradient2"
       gradientUnits="userSpaceOnUse"
       cx="0"
       cy="0"
       r="64"
       gradientTransform="matrix(0.25,0,0,0.25,38,46)">
      <stop
         offset="0"
         stop-color="#ffebeb"
         id="stop27" />
      <stop
         offset="0.4925"
         stop-color="#e86b06"
         id="stop29" />
      <stop
         offset="1"
         stop-color="#bb0505"
         id="stop31" />
    </radialGradient>
    <path
       style="fill:url(#gradient2)"
       d="m 40.99,35.99 c 7.29,0 13,5.72 13,13.01 0,7.28 -5.71,13 -13,13 -7.27,0 -13,-5.72 -13,-13 0,-7.29 5.73,-13.01 13,-13.01 z"
       id="path33"
       inkscape:connector-curvature="0" />
    <path
       style="fill:none;stroke:#000000;stroke-width:4"
       d="m 9.99,13.99 -8,6.01 0,32 12,6 8.01,-8 0,-31.01 -12.01,-5 z"
       id="path35"
       inkscape:connector-curvature="0" />
    <linearGradient
       id="gradient3"
       gradientUnits="userSpaceOnUse"
       x1="-16.700001"
       y1="-3.72"
       x2="2.1800001"
       y2="-10.18">
      <stop
         offset="0"
         stop-color="#bde2b7"
         id="stop38" />
      <stop
         offset="1"
         stop-color="#40a635"
         id="stop40" />
    </linearGradient>
    <path
       style="fill:url(#gradient3)"
       d="m 1.99,52 12,6 0,-33.01 -12,-4.99 0,32 z"
       id="path42"
       inkscape:connector-curvature="0" />
    <path
       style="fill:#497334"
       d="m 13.99,58 8.01,-8 0,-31.01 -8.01,6 0,33.01 z"
       id="path44"
       inkscape:connector-curvature="0" />
    <linearGradient
       id="gradient4"
       gradientUnits="userSpaceOnUse"
       x1="-49.27"
       y1="-42.240002"
       x2="-35.259998"
       y2="-53.540001">
      <stop
         offset="0"
         stop-color="#d1facb"
         id="stop47" />
      <stop
         offset="1"
         stop-color="#76cb68"
         id="stop49" />
    </linearGradient>
    <path
       style="fill:url(#gradient4)"
       d="m 1.99,20 12,4.99 8.01,-6 -12.01,-5 -8,6.01 z"
       id="path51"
       inkscape:connector-curvature="0" />
  </g>
  <circle
     style="opacity:1;fill:none;fill-opacity:1;stroke:#000000;stroke-width:2;stroke-linecap:butt;stroke-linejoin:miter;stroke-miterlimit:4;stroke-dasharray:none;stroke-dashoffset:0;stroke-opacity:1"
     id="path7511"
     cx="32.099144"
     cy="32.025272"
     r="27.321028" />
</svg>
