<?xml version="1.0" encoding="utf-8"?>
<!-- Generator: Adobe Illustrator 13.0.0, SVG Export Plug-In . SVG Version: 6.00 Build 14948)  -->
<!DOCTYPE svg PUBLIC "-//W3C//DTD SVG 1.1//EN" "http://www.w3.org/Graphics/SVG/1.1/DTD/svg11.dtd">
<svg version="1.1" id="Layer_2" xmlns="http://www.w3.org/2000/svg" xmlns:xlink="http://www.w3.org/1999/xlink" x="0px" y="0px"
	 width="317.984px" height="239.988px" viewBox="0 0 317.984 239.988" enable-background="new 0 0 317.984 239.988"
	 xml:space="preserve">
<polygon stroke="#000000" points="160.232,156.905 149.096,134.604 160.232,108.905 171.368,134.604 "/>
<path stroke="#000000" d="M196.093,223.061h36.675c-6.949-3.088-11.195-9.266-11.195-9.266l-61.094-200.64L99.386,214.012
	c0,0-4.247,6.177-11.196,9.266h36.675c0,0-8.133-4.373-11.466-8.373l47.08-166.108l47.081,165.892
	C204.226,218.688,196.093,223.061,196.093,223.061z"/>
<path stroke="#000000" d="M159.803,41.445c-79.848,0-144.578,25.235-144.578,56.364c0,27.275,49.692,50.023,115.705,55.239
	l6.145-21.681C69.945,128.203,14.779,111.32,20.631,90.325c6.435-23.087,62.31-46.087,139.172-46.087
	c76.863,0,134.93,24.667,139.173,46.087c4.205,21.229-48.878,37.722-115.079,40.987l6.137,21.623
	c65.333-5.419,114.347-28.039,114.347-55.126C304.381,66.681,239.651,41.445,159.803,41.445z"/>
</svg>
