<?xml version="1.0" encoding="UTF-8" standalone="no"?>
<!-- Created with Sodipodi ("http://www.sodipodi.com/") -->
<svg
   xmlns:dc="http://purl.org/dc/elements/1.1/"
   xmlns:cc="http://web.resource.org/cc/"
   xmlns:rdf="http://www.w3.org/1999/02/22-rdf-syntax-ns#"
   xmlns:svg="http://www.w3.org/2000/svg"
   xmlns="http://www.w3.org/2000/svg"
   xmlns:sodipodi="http://inkscape.sourceforge.net/DTD/sodipodi-0.dtd"
   xmlns:inkscape="http://www.inkscape.org/namespaces/inkscape"
   id="svg590"
   sodipodi:version="0.32"
   width="60"
   height="60"
   sodipodi:docname="gnome-lockscreen.svg"
   inkscape:version="0.43"
   sodipodi:docbase="/home/manuel/Desktop"
   version="1.0">
  <metadata
     id="metadata47">
    <rdf:RDF>
      <cc:Work
         rdf:about="">
        <dc:format>image/svg+xml</dc:format>
        <dc:type
           rdf:resource="http://purl.org/dc/dcmitype/StillImage" />
      </cc:Work>
    </rdf:RDF>
  </metadata>
  <defs
     id="defs592">
    <linearGradient
       id="aigrd5"
       gradientUnits="userSpaceOnUse"
       x1="16.387199"
       y1="28.735399"
       x2="32.099201"
       y2="28.735399">
      <stop
         offset="0"
         style="stop-color:#F6EDC8"
         id="stop1408" />
      <stop
         offset="1.444304e-002"
         style="stop-color:#F3EAC0"
         id="stop1410" />
      <stop
         offset="7.716820e-002"
         style="stop-color:#E8DEA3"
         id="stop1412" />
      <stop
         offset="0.1471"
         style="stop-color:#E1D48F"
         id="stop1414" />
      <stop
         offset="0.2271"
         style="stop-color:#DACD81"
         id="stop1416" />
      <stop
         offset="0.3259"
         style="stop-color:#D7CA78"
         id="stop1418" />
      <stop
         offset="0.5"
         style="stop-color:#D6C876"
         id="stop1420" />
      <stop
         offset="0.7061"
         style="stop-color:#D3C575"
         id="stop1422" />
      <stop
         offset="0.7987"
         style="stop-color:#CABE70"
         id="stop1424" />
      <stop
         offset="0.8686"
         style="stop-color:#BAAF67"
         id="stop1426" />
      <stop
         offset="0.9271"
         style="stop-color:#A49B5C"
         id="stop1428" />
      <stop
         offset="0.9779"
         style="stop-color:#8A844E"
         id="stop1430" />
      <stop
         offset="1"
         style="stop-color:#7D7746"
         id="stop1432" />
    </linearGradient>
  </defs>
  <sodipodi:namedview
     id="base"
     inkscape:zoom="5.0533333"
     inkscape:cx="37.5"
     inkscape:cy="21.350264"
     inkscape:window-width="897"
     inkscape:window-height="546"
     inkscape:window-x="192"
     inkscape:window-y="169"
     inkscape:current-layer="svg590" />
  <g
     id="g626"
     transform="matrix(0.461716,0,0,0.458175,1.629516,1.778104)">
    <g
       id="Layer_1_2_">
      <g
         id="g628">
        <radialGradient
           id="XMLID_1_"
           cx="88.666496"
           cy="118.243"
           r="56.1092"
           fx="88.666496"
           fy="118.243"
           gradientUnits="userSpaceOnUse">
          <stop
             offset="0"
             style="stop-color:rgb(242,0,0)"
             id="stop630" />
          <stop
             offset="1"
             style="stop-color:rgb(141,0,0)"
             id="stop631" />
          <midPointStop
             offset="0"
             style="stop-color:#F20000"
             id="midPointStop632" />
          <midPointStop
             offset="0.5"
             style="stop-color:#F20000"
             id="midPointStop633" />
          <midPointStop
             offset="1"
             style="stop-color:#8D0000"
             id="midPointStop634" />
        </radialGradient>
        <path
           d="M 110.305,0 C 109.847,0 109.414,0.213 109.131,0.579 L 54.44,71.719 C 54.031,72.252 54.031,72.992 54.44,73.525 L 91.144,121.384 C 91.424,121.75 91.858,121.963 92.321,121.963 L 119.302,121.963 C 119.865,121.963 120.38,121.643 120.632,121.136 C 120.732,120.929 120.781,120.703 120.781,120.48 C 120.781,120.161 120.679,119.842 120.479,119.578 C 120.479,119.578 77.061,62.97 75.719,61.224 C 77.056,59.473 120.72,2.385 120.72,2.385 C 120.92,2.121 121.028,1.803 121.028,1.485 C 121.028,1.262 120.975,1.035 120.876,0.83 C 120.623,0.319 120.109,0 119.546,0 L 110.305,0 z M 116.544,2.962 C 113.181,7.357 72.675,60.322 72.675,60.322 C 72.471,60.589 72.369,60.905 72.369,61.225 C 72.369,61.542 72.471,61.861 72.678,62.125 C 72.678,62.125 112.925,114.605 116.293,119 C 111.692,119 94.278,119 93.053,119 C 92.2,117.887 58.802,74.34 57.481,72.622 C 58.826,70.876 110.174,4.088 111.034,2.961 C 111.839,2.962 114.129,2.962 116.544,2.962 z "
           style="fill:url(#XMLID_1_)"
           id="path635" />
        <radialGradient
           id="XMLID_2_"
           cx="34.226601"
           cy="118.243"
           r="56.108299"
           fx="34.226601"
           fy="118.243"
           gradientUnits="userSpaceOnUse">
          <stop
             offset="0"
             style="stop-color:rgb(242,0,0)"
             id="stop637" />
          <stop
             offset="1"
             style="stop-color:rgb(141,0,0)"
             id="stop638" />
          <midPointStop
             offset="0"
             style="stop-color:#F20000"
             id="midPointStop639" />
          <midPointStop
             offset="0.5"
             style="stop-color:#F20000"
             id="midPointStop640" />
          <midPointStop
             offset="1"
             style="stop-color:#8D0000"
             id="midPointStop641" />
        </radialGradient>
        <path
           d="M 1.727,0 C 1.164,0 0.646,0.319 0.397,0.828 C 0.296,1.033 0.245,1.26 0.245,1.483 C 0.245,1.803 0.35,2.121 0.549,2.385 C 0.549,2.385 43.966,58.996 45.309,60.741 C 43.973,62.494 0.308,119.581 0.308,119.581 C 0.105,119.844 0,120.162 0,120.479 C 0,120.703 0.05,120.928 0.152,121.135 C 0.405,121.642 0.918,121.962 1.482,121.962 L 10.722,121.962 C 11.182,121.962 11.615,121.749 11.897,121.384 L 66.588,50.244 C 66.998,49.712 66.998,48.972 66.588,48.438 L 29.885,0.581 C 29.604,0.213 29.17,0 28.708,0 L 1.727,0 z M 27.978,2.962 C 28.831,4.075 62.227,47.623 63.549,49.34 C 62.203,51.087 10.857,117.876 9.993,119.001 C 9.19,119.001 6.899,119.001 4.485,119.001 C 7.847,114.606 48.353,61.641 48.353,61.641 C 48.559,61.374 48.659,61.06 48.659,60.742 C 48.659,60.421 48.559,60.106 48.351,59.841 C 48.351,59.841 8.102,7.359 4.733,2.964 C 9.335,2.962 26.748,2.962 27.978,2.962 z "
           style="fill:url(#XMLID_2_)"
           id="path642" />
        <radialGradient
           id="XMLID_3_"
           cx="90.745598"
           cy="135.49699"
           r="49.494999"
           fx="90.745598"
           fy="135.49699"
           gradientUnits="userSpaceOnUse">
          <stop
             offset="0"
             style="stop-color:rgb(255,255,255)"
             id="stop644" />
          <stop
             offset="1"
             style="stop-color:rgb(224,0,0)"
             id="stop645" />
          <midPointStop
             offset="0"
             style="stop-color:#FFFFFF"
             id="midPointStop646" />
          <midPointStop
             offset="0.5"
             style="stop-color:#FFFFFF"
             id="midPointStop647" />
          <midPointStop
             offset="1"
             style="stop-color:#E00000"
             id="midPointStop648" />
        </radialGradient>
        <path
           d="M 119.546,1.483 L 110.305,1.483 L 55.614,72.622 L 92.321,120.479 L 119.302,120.479 L 73.852,61.225 L 119.546,1.483 z "
           style="fill:url(#XMLID_3_)"
           id="path649" />
        <radialGradient
           id="XMLID_4_"
           cx="36.6133"
           cy="135.49699"
           r="49.497002"
           fx="36.6133"
           fy="135.49699"
           gradientUnits="userSpaceOnUse">
          <stop
             offset="0"
             style="stop-color:rgb(255,255,255)"
             id="stop651" />
          <stop
             offset="1"
             style="stop-color:rgb(224,0,0)"
             id="stop652" />
          <midPointStop
             offset="0"
             style="stop-color:#FFFFFF"
             id="midPointStop653" />
          <midPointStop
             offset="0.5"
             style="stop-color:#FFFFFF"
             id="midPointStop654" />
          <midPointStop
             offset="1"
             style="stop-color:#E00000"
             id="midPointStop655" />
        </radialGradient>
        <path
           d="M 1.481,120.479 L 10.721,120.479 L 65.415,49.341 L 28.708,1.483 L 1.727,1.483 L 47.176,60.741 L 1.481,120.479 z "
           style="fill:url(#XMLID_4_)"
           id="path656" />
        <linearGradient
           id="XMLID_5_"
           gradientUnits="userSpaceOnUse"
           x1="86.518997"
           y1="13.7202"
           x2="86.518997"
           y2="77.272499">
          <stop
             offset="9.1954%"
             style="stop-color:rgb(255,255,255)"
             id="stop658" />
          <stop
             offset="100%"
             style="stop-opacity:0;stop-color:rgb(255,255,255)"
             id="stop659" />
        </linearGradient>
        <path
           adobe-blending-mode="screen"
           d="M 71.077,61.226 C 71.077,60.629 71.266,60.036 71.649,59.537 C 71.649,59.537 108.087,11.899 113.927,4.259 C 112.855,4.259 112.24,4.259 111.671,4.259 C 110.097,6.311 61.551,69.453 59.11,72.623 C 61.467,75.696 92.155,115.704 93.689,117.704 C 95.612,117.704 107.077,117.704 113.673,117.704 C 107.819,110.071 71.648,62.912 71.648,62.912 C 71.269,62.414 71.077,61.819 71.077,61.226 z "
           style="fill:url(#XMLID_5_)"
           id="path660" />
        <linearGradient
           id="XMLID_6_"
           gradientUnits="userSpaceOnUse"
           x1="34.505901"
           y1="-5.8379002"
           x2="34.505901"
           y2="40.414001">
          <stop
             offset="0%"
             style="stop-color:rgb(255,255,255)"
             id="stop662" />
          <stop
             offset="100%"
             style="stop-opacity:0;stop-color:rgb(255,255,255)"
             id="stop663" />
        </linearGradient>
        <path
           adobe-blending-mode="screen"
           d="M 7.354,4.259 C 13.208,11.893 49.377,59.051 49.377,59.051 C 49.759,59.551 49.952,60.145 49.952,60.741 C 49.952,61.334 49.76,61.93 49.381,62.427 C 49.381,62.427 12.942,110.065 7.098,117.704 C 8.176,117.704 8.786,117.704 9.355,117.704 C 10.933,115.653 59.479,52.511 61.915,49.34 C 59.558,46.267 28.872,6.259 27.338,4.259 C 25.411,4.259 13.95,4.259 7.354,4.259 z "
           style="fill:url(#XMLID_6_)"
           id="path664" />
      </g>
    </g>
  </g>
  <g
     id="Layer_x0020_3"
     style="fill-rule:nonzero;stroke:#000000;stroke-miterlimit:4"
     transform="matrix(1.106872,0,0,1.106872,15.38483,17.61246)">
    <path
       style="stroke:none"
       d="M 16.7,18.8 C 16.7,18.8 16.7,20 16.7,21 C 15.4,21.1 14.3,22.3 14.3,23.6 L 14.3,34.2 C 14.3,35.7 15.5,36.8 16.9,36.8 L 31.2,36.8 C 32.7,36.8 33.8,35.6 33.8,34.2 L 33.8,23.5 C 33.8,22.2 32.8,21.1 31.6,20.9 C 31.6,20 31.6,18.7 31.6,18.7 C 31.6,14.6 28.2,11.2 24.1,11.2 C 20,11.2 16.6,14.6 16.6,18.7 L 16.7,18.8 z M 21.4,18.8 C 21.4,17.3 22.6,16 24.2,16 C 25.7,16 27,17.2 27,18.8 C 27,18.8 27,20 27,20.9 C 25.7,20.9 22.7,20.9 21.4,20.9 C 21.4,20 21.4,18.8 21.4,18.8 z "
       id="path1387" />
    <path
       style="fill:#d2d2d2;stroke:none"
       d="M 17.6,18.7 L 17.6,24.8 L 20.4,24.8 L 20.4,18.7 C 20.4,16.6 22.1,14.9 24.2,14.9 C 26.3,14.9 28,16.6 28,18.7 L 28,24.8 L 30.8,24.8 L 30.8,18.7 C 30.8,15.1 27.9,12.2 24.3,12.2 C 20.7,12.2 17.8,15.1 17.8,18.7 L 17.6,18.7 z "
       id="path1389" />
    <g
       id="g1391">
      <path
         style="opacity:0.5;stroke:none"
         d="M 24.6,12.6 C 27.9,12.5 30.5,14.9 30.7,18.6 L 30.7,24.7 L 30.1,24.7 L 30.1,19 C 30.1,15.4 27.6,12.9 24.6,12.6 z "
         id="path1393" />
    </g>
    <g
       id="g1395">
      <path
         style="opacity:0.5;fill:#ffffff;stroke:none"
         d="M 24.6,12.6 C 25.9,12.6 27.2,13 28.2,13.7 C 27.1,12.8 25.6,12.2 24,12.2 C 20.4,12.2 17.5,15.1 17.5,18.7 L 17.5,24.8 L 18.1,24.8 L 18.1,19.1 C 18.1,15.5 21,12.6 24.6,12.6 L 24.6,12.6 z "
         id="path1397" />
    </g>
    <g
       id="g1399">
      <path
         style="opacity:0.5;fill:#ffffff;stroke:none"
         d="M 28.4,24.7 L 28.4,18.9 C 28.4,17.4 27.5,16.1 26.3,15.5 C 27.3,16.2 27.9,17.3 27.9,18.6 L 27.9,24.7 L 28.4,24.7 L 28.4,24.7 z "
         id="path1401" />
    </g>
    <g
       id="g1403">
      <path
         style="opacity:0.5;stroke:none"
         d="M 20,24.8 L 20,19 C 20,17.5 20.9,16.2 22.1,15.6 C 21.1,16.3 20.5,17.4 20.5,18.7 L 20.5,24.8 L 20,24.8 L 20,24.8 z "
         id="path1405" />
    </g>
    <linearGradient
       id="linearGradient1722"
       gradientUnits="userSpaceOnUse"
       x1="16.387199"
       y1="28.735399"
       x2="32.099201"
       y2="28.735399">
      <stop
         offset="0"
         style="stop-color:#F6EDC8"
         id="stop1724" />
      <stop
         offset="1.444304e-002"
         style="stop-color:#F3EAC0"
         id="stop1726" />
      <stop
         offset="7.716820e-002"
         style="stop-color:#E8DEA3"
         id="stop1728" />
      <stop
         offset="0.1471"
         style="stop-color:#E1D48F"
         id="stop1730" />
      <stop
         offset="0.2271"
         style="stop-color:#DACD81"
         id="stop1732" />
      <stop
         offset="0.3259"
         style="stop-color:#D7CA78"
         id="stop1734" />
      <stop
         offset="0.5"
         style="stop-color:#D6C876"
         id="stop1736" />
      <stop
         offset="0.7061"
         style="stop-color:#D3C575"
         id="stop1738" />
      <stop
         offset="0.7987"
         style="stop-color:#CABE70"
         id="stop1740" />
      <stop
         offset="0.8686"
         style="stop-color:#BAAF67"
         id="stop1742" />
      <stop
         offset="0.9271"
         style="stop-color:#A49B5C"
         id="stop1744" />
      <stop
         offset="0.9779"
         style="stop-color:#8A844E"
         id="stop1746" />
      <stop
         offset="1"
         style="stop-color:#7D7746"
         id="stop1748" />
    </linearGradient>
    <path
       style="fill:url(#aigrd5);stroke:none"
       d="M 32.9,34 C 32.9,34.9 32.2,35.7 31.2,35.7 L 16.9,35.7 C 16,35.7 15.2,35 15.2,34 L 15.2,23.4 C 15.2,22.5 15.9,21.7 16.9,21.7 L 31.2,21.7 C 32.1,21.7 32.9,22.4 32.9,23.4 L 32.9,34 z "
       id="path1434" />
    <path
       style="opacity:0.5;fill:#ffffff;stroke:none"
       d="M 26.8,26.9 C 26.8,25.8 25.7,24.7 24.6,24.7 C 23.5,24.7 22.9,25.8 22.9,26.9 C 22.9,27.7 23.4,28.4 24.1,28.7 L 22.4,31.6 L 26.7,31.9 L 25.5,28.7 C 26.2,28.4 26.7,27.7 26.7,26.9 L 26.8,26.9 z "
       id="path1436" />
    <path
       style="opacity:0.5;stroke:none"
       d="M 26.4,26.5 C 26.4,25.4 25.4,24.2 24,24.2 C 22.9,24.2 22.1,25.1 22.1,26.1 C 22.1,27.3 22.7,28 23.4,28.3 L 22.5,31.6 L 26,31.2 L 24.7,28 C 25.4,27.7 26.4,27.3 26.4,26.5 z "
       id="path1438" />
    <path
       style="stroke:none"
       d="M 26.4,26.6 C 26.4,25.5 25.5,24.7 24.5,24.7 C 23.5,24.7 22.6,25.6 22.6,26.6 C 22.6,27.4 23.1,28.1 23.8,28.4 L 22.6,31.6 L 26.5,31.6 L 25.3,28.4 C 26,28.1 26.5,27.4 26.5,26.6 L 26.4,26.6 z "
       id="path1440" />
    <path
       style="opacity:0.5;stroke:none"
       d="M 16.9,35.7 C 16.9,35.7 30.4,35.7 31.2,35.7 C 32.1,35.7 32.9,35 32.9,34 C 32.9,33.1 32.9,23.4 32.9,23.4 C 32.9,23.4 31.9,33 31.8,33.5 C 31.7,34 31.3,34.7 30.6,34.7 C 30,34.7 16.9,35.6 16.9,35.6 L 16.9,35.7 z "
       id="path1442" />
    <path
       style="opacity:0.5;fill:#ffffff;stroke:none"
       d="M 31.2,21.8 C 31.2,21.8 17.7,21.8 16.9,21.8 C 16,21.8 15.2,22.5 15.2,23.5 C 15.2,24.5 15.2,34.1 15.2,34.1 C 15.2,34.1 16.2,24.5 16.3,24 C 16.4,23.6 16.8,22.8 17.5,22.8 C 18.1,22.8 31.2,21.9 31.2,21.9 L 31.2,21.8 z "
       id="path1444" />
  </g>
</svg>
