<?xml version="1.0" encoding="UTF-8" standalone="no"?>
<!-- Created with Sodipodi ("http://www.sodipodi.com/") -->

<svg
   xmlns:a="http://ns.adobe.com/AdobeSVGViewerExtensions/3.0/"
   xmlns:dc="http://purl.org/dc/elements/1.1/"
   xmlns:cc="http://creativecommons.org/ns#"
   xmlns:rdf="http://www.w3.org/1999/02/22-rdf-syntax-ns#"
   xmlns:svg="http://www.w3.org/2000/svg"
   xmlns="http://www.w3.org/2000/svg"
   xmlns:xlink="http://www.w3.org/1999/xlink"
   xmlns:sodipodi="http://sodipodi.sourceforge.net/DTD/sodipodi-0.dtd"
   xmlns:inkscape="http://www.inkscape.org/namespaces/inkscape"
   width="48pt"
   height="48pt"
   viewBox="0.287 -0.141 124 129"
   overflow="visible"
   enable-background="new 0.287 -0.141 124 129"
   xml:space="preserve"
   id="svg153"
   sodipodi:version="0.32pre"
   sodipodi:docname="pidgin-tray-invisible.svg"
   version="1.1"
   inkscape:version="0.47 r22583"><metadata
   id="metadata349"><rdf:RDF><cc:Work
       rdf:about=""><dc:format>image/svg+xml</dc:format><dc:type
         rdf:resource="http://purl.org/dc/dcmitype/StillImage" /><dc:title></dc:title></cc:Work></rdf:RDF></metadata>
  <defs
   id="defs523"><linearGradient
   id="linearGradient5024"><stop
     style="stop-color:#ffffff;stop-opacity:1;"
     offset="0"
     id="stop5026" /><stop
     style="stop-color:#00db00;stop-opacity:1;"
     offset="1"
     id="stop5028" /></linearGradient><inkscape:perspective
   sodipodi:type="inkscape:persp3d"
   inkscape:vp_x="0 : 30 : 1"
   inkscape:vp_y="0 : 1000 : 0"
   inkscape:vp_z="60 : 30 : 1"
   inkscape:persp3d-origin="30 : 20 : 1"
   id="perspective351" /><linearGradient
   id="linearGradient4447"><stop
     id="stop4449"
     offset="0"
     style="stop-color:#c00;stop-opacity:1;" /><stop
     id="stop4451"
     offset="1"
     style="stop-color:#ad0000;stop-opacity:1;" /></linearGradient><inkscape:perspective
   id="perspective29"
   inkscape:persp3d-origin="24 : 16 : 1"
   inkscape:vp_z="48 : 24 : 1"
   inkscape:vp_y="0 : 1000 : 0"
   inkscape:vp_x="0 : 24 : 1"
   sodipodi:type="inkscape:persp3d" /><pattern
   id="pattern2826"
   patternTransform="translate(5,39)"
   height="3"
   width="8"
   patternUnits="userSpaceOnUse"><g
     transform="translate(-5,-39)"
     id="g2820"><rect
       y="39"
       x="5"
       height="3"
       width="2"
       id="rect2812"
       style="opacity:1;fill:#729fcf;fill-opacity:1;stroke:none;stroke-width:1;stroke-linecap:round;stroke-linejoin:round;stroke-miterlimit:4;stroke-dasharray:none;stroke-opacity:1" /><rect
       y="39"
       x="9"
       height="3"
       width="2"
       id="rect2814"
       style="opacity:1;fill:#c00;fill-opacity:1;stroke:none;stroke-width:1;stroke-linecap:round;stroke-linejoin:round;stroke-miterlimit:4;stroke-dasharray:none;stroke-opacity:1" /><rect
       y="39"
       x="7"
       height="3"
       width="2"
       id="rect2816"
       style="opacity:1;fill:#729fcf;fill-opacity:0;stroke:none;stroke-width:1;stroke-linecap:round;stroke-linejoin:round;stroke-miterlimit:4;stroke-dasharray:none;stroke-opacity:1" /><rect
       y="39"
       x="11"
       height="3"
       width="2"
       id="rect2818"
       style="opacity:1;fill:#c00;fill-opacity:0;stroke:none;stroke-width:1;stroke-linecap:round;stroke-linejoin:round;stroke-miterlimit:4;stroke-dasharray:none;stroke-opacity:1" /></g></pattern><inkscape:perspective
   id="perspective61"
   inkscape:persp3d-origin="24 : 16 : 1"
   inkscape:vp_z="48 : 24 : 1"
   inkscape:vp_y="0 : 1000 : 0"
   inkscape:vp_x="0 : 24 : 1"
   sodipodi:type="inkscape:persp3d" /><inkscape:perspective
   id="perspective5245"
   inkscape:persp3d-origin="354.33072 : 236.22048 : 1"
   inkscape:vp_z="708.66144 : 354.33072 : 1"
   inkscape:vp_y="0 : 1000 : 0"
   inkscape:vp_x="0 : 354.33072 : 1"
   sodipodi:type="inkscape:persp3d" /><linearGradient
   id="linearGradient900"><stop
     id="stop901"
     offset="0"
     style="stop-color:#000;stop-opacity:1;" /><stop
     id="stop902"
     offset="1"
     style="stop-color:#fff;stop-opacity:1;" /></linearGradient><linearGradient
   id="linearGradient903"
   xlink:href="#linearGradient900" /><linearGradient
   id="linearGradient904"
   xlink:href="#linearGradient900" /><linearGradient
   id="linearGradient905"
   xlink:href="#linearGradient900" /><linearGradient
   id="linearGradient906"
   xlink:href="#linearGradient900" /><linearGradient
   id="linearGradient907"
   xlink:href="#linearGradient900" /><linearGradient
   y2="99.7109"
   x2="191.0391"
   y1="99.7109"
   x1="172.3457"
   gradientTransform="matrix(1.5709466,0,0,1.5709466,-68.341201,-138.0986)"
   gradientUnits="userSpaceOnUse"
   id="linearGradient2382"
   xlink:href="#XMLID_13_"
   inkscape:collect="always" /><linearGradient
   y2="100.71"
   x2="194.9375"
   y1="100.71"
   x1="170.4492"
   gradientTransform="matrix(1.5709466,0,0,1.5709466,-68.341201,-138.0986)"
   gradientUnits="userSpaceOnUse"
   id="linearGradient2380"
   xlink:href="#XMLID_12_"
   inkscape:collect="always" /><linearGradient
   y2="80.1768"
   x2="189.1348"
   y1="80.1768"
   x1="171.3809"
   gradientTransform="matrix(1.5709466,0,0,1.5709466,-68.341201,-138.0986)"
   gradientUnits="userSpaceOnUse"
   id="linearGradient2378"
   xlink:href="#XMLID_11_"
   inkscape:collect="always" /><linearGradient
   y2="81.1758"
   x2="193.2949"
   y1="81.1758"
   x1="169.2207"
   gradientTransform="matrix(1.5709466,0,0,1.5709466,-68.341201,-138.0986)"
   gradientUnits="userSpaceOnUse"
   id="linearGradient2376"
   xlink:href="#XMLID_10_"
   inkscape:collect="always" /><linearGradient
   y2="69.8423"
   x2="168.7969"
   y1="69.8423"
   x1="160.666"
   gradientTransform="matrix(1.5709466,0,0,1.5709466,-68.341201,-138.0986)"
   gradientUnits="userSpaceOnUse"
   id="linearGradient2374"
   xlink:href="#XMLID_9_"
   inkscape:collect="always" /><linearGradient
   y2="69.667"
   x2="171.8574"
   y1="69.667"
   x1="158.666"
   gradientTransform="matrix(1.5709466,0,0,1.5709466,-68.341201,-138.0986)"
   gradientUnits="userSpaceOnUse"
   id="linearGradient2372"
   xlink:href="#XMLID_8_-0"
   inkscape:collect="always" /><linearGradient
   y2="93.0645"
   x2="166.4863"
   y1="93.0645"
   x1="145.959"
   gradientTransform="matrix(1.5709466,0,0,1.5709466,-68.341201,-138.0986)"
   gradientUnits="userSpaceOnUse"
   id="linearGradient2370"
   xlink:href="#XMLID_7_-9"
   inkscape:collect="always" /><linearGradient
   y2="98.6406"
   x2="154.4531"
   y1="98.6406"
   x1="139.9121"
   gradientTransform="matrix(1.5709466,0,0,1.5709466,-68.341201,-138.0986)"
   gradientUnits="userSpaceOnUse"
   id="linearGradient2368"
   xlink:href="#XMLID_6_-3"
   inkscape:collect="always" /><linearGradient
   y2="105.7555"
   x2="141.1622"
   y1="96.0942"
   x1="131.501"
   gradientTransform="matrix(1.5709466,0,0,1.5709466,-68.341201,-138.0986)"
   gradientUnits="userSpaceOnUse"
   id="linearGradient2366"
   xlink:href="#XMLID_5_-3"
   inkscape:collect="always" /><radialGradient
   r="45.424"
   fy="994.0244"
   fx="223.2383"
   cy="994.0244"
   cx="223.2383"
   gradientTransform="matrix(2.1333454,-0.9771287,0.8197199,1.7897794,-1230.7106,-1528.965)"
   gradientUnits="userSpaceOnUse"
   id="radialGradient2364"
   xlink:href="#XMLID_4_-0"
   inkscape:collect="always" /><linearGradient
   y2="142.8498"
   x2="111.7876"
   y1="230.2852"
   x1="111.7876"
   gradientTransform="matrix(1.5709466,0,0,1.5709466,-68.341201,-138.0986)"
   gradientUnits="userSpaceOnUse"
   id="linearGradient2362"
   xlink:href="#XMLID_3_-0"
   inkscape:collect="always" />
    
  <linearGradient
   gradientTransform="matrix(1.5709466,0,0,1.5709466,-72.112385,-74.103341)"
   id="XMLID_13_"
   gradientUnits="userSpaceOnUse"
   x1="172.3457"
   y1="99.7109"
   x2="191.0391"
   y2="99.7109">
      <stop
   offset="0"
   style="stop-color:#FFAE00"
   id="stop3253" />
      <stop
   offset="1"
   style="stop-color:#FFF030"
   id="stop3254" />
      
      
      
    </linearGradient>
    
    <linearGradient
   gradientTransform="matrix(1.5709466,0,0,1.5709466,-72.112385,-74.103341)"
   id="XMLID_12_"
   gradientUnits="userSpaceOnUse"
   x1="170.4492"
   y1="100.71"
   x2="194.9375"
   y2="100.71">
      <stop
   offset="0"
   style="stop-color:#FF6D00"
   id="stop3246" />
      <stop
   offset="1"
   style="stop-color:#FF3300"
   id="stop3247" />
      
      
      
    </linearGradient>
    
    <linearGradient
   gradientTransform="matrix(1.5709466,0,0,1.5709466,-72.112385,-74.103341)"
   id="XMLID_11_"
   gradientUnits="userSpaceOnUse"
   x1="171.3809"
   y1="80.1768"
   x2="189.1348"
   y2="80.1768">
      <stop
   offset="0"
   style="stop-color:#FFAE00"
   id="stop3239" />
      <stop
   offset="1"
   style="stop-color:#FFF030"
   id="stop3240" />
      
      
      
    </linearGradient>
    
    <linearGradient
   gradientTransform="matrix(1.5709466,0,0,1.5709466,-72.112385,-74.103341)"
   id="XMLID_10_"
   gradientUnits="userSpaceOnUse"
   x1="169.2207"
   y1="81.1758"
   x2="193.2949"
   y2="81.1758">
      <stop
   offset="0"
   style="stop-color:#FF6D00"
   id="stop3232" />
      <stop
   offset="1"
   style="stop-color:#FF3300"
   id="stop3233" />
      
      
      
    </linearGradient>
    
    <linearGradient
   gradientTransform="matrix(1.5709466,0,0,1.5709466,-72.112385,-74.103341)"
   id="XMLID_9_"
   gradientUnits="userSpaceOnUse"
   x1="160.666"
   y1="69.8423"
   x2="168.7969"
   y2="69.8423">
      <stop
   offset="0"
   style="stop-color:#FFAE00"
   id="stop3225" />
      <stop
   offset="1"
   style="stop-color:#FFF030"
   id="stop3226" />
      
      
      
    </linearGradient>
    
    <linearGradient
   gradientTransform="matrix(1.5709466,0,0,1.5709466,-72.112385,-74.103341)"
   id="XMLID_8_-0"
   gradientUnits="userSpaceOnUse"
   x1="158.666"
   y1="69.667"
   x2="171.8574"
   y2="69.667">
      <stop
   offset="0"
   style="stop-color:#FF6D00"
   id="stop3218" />
      <stop
   offset="1"
   style="stop-color:#FF3300"
   id="stop3219" />
      
      
      
    </linearGradient>
    
    <linearGradient
   gradientTransform="matrix(1.5709466,0,0,1.5709466,-72.112385,-74.103341)"
   id="XMLID_7_-9"
   gradientUnits="userSpaceOnUse"
   x1="145.959"
   y1="93.0645"
   x2="166.4863"
   y2="93.0645">
      <stop
   offset="0"
   style="stop-color:#FF9200"
   id="stop3203" />
      <stop
   offset="0.264"
   style="stop-color:#FF0000"
   id="stop3204" />
      <stop
   offset="0.3747"
   style="stop-color:#FA0000"
   id="stop3205" />
      <stop
   offset="0.5089"
   style="stop-color:#EB0000"
   id="stop3206" />
      <stop
   offset="0.6554"
   style="stop-color:#D20000"
   id="stop3207" />
      <stop
   offset="0.8106"
   style="stop-color:#B00000"
   id="stop3208" />
      <stop
   offset="0.9711"
   style="stop-color:#850000"
   id="stop3209" />
      <stop
   offset="1"
   style="stop-color:#7C0000"
   id="stop3210" />
      
      
      
      
      
    </linearGradient>
    
    <linearGradient
   gradientTransform="matrix(1.5709466,0,0,1.5709466,-72.112385,-74.103341)"
   id="XMLID_6_-3"
   gradientUnits="userSpaceOnUse"
   x1="139.9121"
   y1="98.6406"
   x2="154.4531"
   y2="98.6406">
      <stop
   offset="0"
   style="stop-color:#BBBBBB"
   id="stop3196" />
      <stop
   offset="1"
   style="stop-color:#888888"
   id="stop3197" />
      
      
      
    </linearGradient>
    
    
    <linearGradient
   gradientTransform="matrix(1.5709466,0,0,1.5709466,-72.112385,-74.103341)"
   id="XMLID_5_-3"
   gradientUnits="userSpaceOnUse"
   x1="131.501"
   y1="96.0942"
   x2="141.1622"
   y2="105.7555">
      <stop
   offset="0"
   style="stop-color:#FFFFFF"
   id="stop3188" />
      <stop
   offset="1"
   style="stop-color:#000000"
   id="stop3189" />
      
      
      
    </linearGradient>
    
    
    <radialGradient
   id="XMLID_4_-0"
   cx="223.2383"
   cy="994.0244"
   r="45.424"
   fx="223.2383"
   fy="994.0244"
   gradientTransform="matrix(2.1333454,-0.9771287,0.8197199,1.7897794,-1234.4818,-1464.9697)"
   gradientUnits="userSpaceOnUse">
      <stop
   offset="0"
   style="stop-color:#FFFFFF"
   id="stop3180" />
      <stop
   offset="1"
   style="stop-color:#000000"
   id="stop3181" />
      
      
      
    </radialGradient>
    
    <linearGradient
   gradientTransform="matrix(1.5709466,0,0,1.5709466,-72.112385,-74.103341)"
   id="XMLID_3_-0"
   gradientUnits="userSpaceOnUse"
   x1="111.7876"
   y1="230.2852"
   x2="111.7876"
   y2="142.8498">
      <stop
   offset="0"
   style="stop-color:#FFFFFF"
   id="stop3166" />
      <stop
   offset="0.1019"
   style="stop-color:#FAFAFA"
   id="stop3167" />
      <stop
   offset="0.2256"
   style="stop-color:#EBEBEB"
   id="stop3168" />
      <stop
   offset="0.3606"
   style="stop-color:#D2D2D2"
   id="stop3169" />
      <stop
   offset="0.5037"
   style="stop-color:#B0B0B0"
   id="stop3170" />
      <stop
   offset="0.6532"
   style="stop-color:#848484"
   id="stop3171" />
      <stop
   offset="0.8081"
   style="stop-color:#4E4E4E"
   id="stop3172" />
      <stop
   offset="0.9646"
   style="stop-color:#0F0F0F"
   id="stop3173" />
      <stop
   offset="1"
   style="stop-color:#000000"
   id="stop3174" />
      
      
      
    </linearGradient>
    
    
    
    <inkscape:perspective
   id="perspective5363"
   inkscape:persp3d-origin="30 : 20 : 1"
   inkscape:vp_z="60 : 30 : 1"
   inkscape:vp_y="0 : 1000 : 0"
   inkscape:vp_x="0 : 30 : 1"
   sodipodi:type="inkscape:persp3d" /><inkscape:perspective
   id="perspective5736"
   inkscape:persp3d-origin="0.5 : 0.33333333 : 1"
   inkscape:vp_z="1 : 0.5 : 1"
   inkscape:vp_y="0 : 1000 : 0"
   inkscape:vp_x="0 : 0.5 : 1"
   sodipodi:type="inkscape:persp3d" />

		
		
	<radialGradient
   id="aigrd1"
   cx="18.9292"
   cy="17.7773"
   r="22.4782"
   fx="18.9292"
   fy="17.7773"
   gradientUnits="userSpaceOnUse">
			<stop
   offset="0"
   style="stop-color:#FED182"
   id="stop8" />

			<stop
   offset="0.2809"
   style="stop-color:#FFB310"
   id="stop10" />

			<stop
   offset="1"
   style="stop-color:#996E04"
   id="stop12" />

		</radialGradient>
		
		<inkscape:perspective
   id="perspective14"
   inkscape:persp3d-origin="30 : 20 : 1"
   inkscape:vp_z="60 : 30 : 1"
   inkscape:vp_y="0 : 1000 : 0"
   inkscape:vp_x="0 : 30 : 1"
   sodipodi:type="inkscape:persp3d" /><inkscape:perspective
   id="perspective5827"
   inkscape:persp3d-origin="0.5 : 0.33333333 : 1"
   inkscape:vp_z="1 : 0.5 : 1"
   inkscape:vp_y="0 : 1000 : 0"
   inkscape:vp_x="0 : 0.5 : 1"
   sodipodi:type="inkscape:persp3d" /><radialGradient
   gradientUnits="userSpaceOnUse"
   gradientTransform="matrix(1,0,0,0.282913,0,26.85053)"
   r="18.031223"
   fy="37.443905"
   fx="26.617519"
   cy="37.443905"
   cx="26.617519"
   id="radialGradient3207"
   xlink:href="#linearGradient3201"
   inkscape:collect="always" /><radialGradient
   gradientUnits="userSpaceOnUse"
   gradientTransform="matrix(1.476477,0,0,1.406674,-11.46524,-4.222999)"
   r="19.9375"
   fy="11.80171"
   fx="24.0625"
   cy="11.80171"
   cx="24.0625"
   id="radialGradient3197"
   xlink:href="#linearGradient3191"
   inkscape:collect="always" /><linearGradient
   id="linearGradient3191"><stop
     id="stop3193"
     offset="0"
     style="stop-color:#eeeeec;stop-opacity:1;" /><stop
     id="stop3195"
     offset="1"
     style="stop-color:#d6d6d1;stop-opacity:1;" /></linearGradient><linearGradient
   id="linearGradient3201"
   inkscape:collect="always"><stop
     id="stop3203-9"
     offset="0"
     style="stop-color:#000000;stop-opacity:1;" /><stop
     id="stop3205-6"
     offset="1"
     style="stop-color:#000000;stop-opacity:0;" /></linearGradient><inkscape:perspective
   id="perspective5891"
   inkscape:persp3d-origin="24 : 16 : 1"
   inkscape:vp_z="48 : 24 : 1"
   inkscape:vp_y="0 : 1000 : 0"
   inkscape:vp_x="0 : 24 : 1"
   sodipodi:type="inkscape:persp3d" /><radialGradient
   inkscape:collect="always"
   xlink:href="#linearGradient3191"
   id="radialGradient5910"
   gradientUnits="userSpaceOnUse"
   gradientTransform="matrix(3.1744256,0,0,3.0243491,147.38366,8.5987432)"
   cx="24.0625"
   cy="11.80171"
   fx="24.0625"
   fy="11.80171"
   r="19.9375" /><radialGradient
   inkscape:collect="always"
   xlink:href="#linearGradient3201"
   id="radialGradient5918"
   gradientUnits="userSpaceOnUse"
   gradientTransform="matrix(1,0,0,0.282913,0,26.85053)"
   cx="26.617519"
   cy="37.443905"
   fx="26.617519"
   fy="37.443905"
   r="18.031223" /><radialGradient
   inkscape:collect="always"
   xlink:href="#linearGradient3191"
   id="radialGradient5920"
   gradientUnits="userSpaceOnUse"
   gradientTransform="matrix(3.1744256,0,0,3.0243491,147.38366,8.5987432)"
   cx="24.0625"
   cy="11.80171"
   fx="24.0625"
   fy="11.80171"
   r="19.9375" /></defs>
  <sodipodi:namedview
   id="base"
   showgrid="false"
   inkscape:zoom="6.9640901"
   inkscape:cx="25.605712"
   inkscape:cy="29.995116"
   inkscape:window-width="1106"
   inkscape:window-height="682"
   inkscape:window-x="85"
   inkscape:window-y="43"
   inkscape:window-maximized="1"
   inkscape:current-layer="svg153" />
  <g
   id="Layer_1_2_"
   transform="matrix(0.66426859,0,0,0.66426859,-2.1877028,43.341726)">
    <path
   d="m 43.744,128.632 43.113,-6.338 28.334,-15.597 0.04,-3.283 -37.709,-20.69 -16.086,22.72 -17.692,23.188 z"
   id="path155"
   style="opacity:0.2" />
    <g
   id="single_5_">
      <path
   d="m 73.054,15.419 -18.413,9.535 v 37.195 c 0,0 2.68,1.216 2.918,1.324 0,4.342 0,39.685 0,39.685 l 25.184,13.198 17.797,-12.025 c 0,0 -0.088,-34.439 -0.096,-37.785 1.323,-1.055 4.469,-3.559 4.469,-3.559 V 28.64 L 74.726,14.553 73.054,15.419 z"
   id="path157" />
      <g
   id="g158">
        <path
   d="M 101.085,31.077 74.814,18.817 58.467,27.282 v 32.401 l 2.919,1.324 v 39.835 L 82.493,111.904 96.705,102.3 96.61,64.704 101.085,61.143 V 31.077 z"
   id="path159" />
      </g>
      <g
   id="g160">
        <linearGradient
   id="XMLID_1_"
   gradientUnits="userSpaceOnUse"
   x1="72.430702"
   y1="81.379898"
   x2="52.625702"
   y2="75.372002">
          <stop
   offset="0"
   style="stop-color:#FFCC00"
   id="stop162" />
          <stop
   offset="0.8114"
   style="stop-color:#FFBC00"
   id="stop163" />
          <stop
   offset="1"
   style="stop-color:#FFB800"
   id="stop164" />
          
          
          
        </linearGradient>
        <path
   d="m 61.387,58.808 v 42.035 L 82.494,111.905 96.706,102.301 96.602,61.238 85.276,69.584 61.387,58.808 z"
   id="path168"
   style="fill:url(#XMLID_1_)" />
      </g>
      <g
   id="g169">
        <path
   d="m 82.474,68.031 14.22,-9.633 v 43.911 l -14.02,9.565 -0.2,-43.843 z"
   id="path170"
   style="fill:#ff6600" />
      </g>
      <g
   id="g171">
        <linearGradient
   id="XMLID_2_"
   gradientUnits="userSpaceOnUse"
   x1="91.566399"
   y1="75.322304"
   x2="89.847504"
   y2="69.878502">
          <stop
   offset="0"
   style="stop-color:#FF6600"
   id="stop173" />
          <stop
   offset="0.3765"
   style="stop-color:#EF5700"
   id="stop174" />
          <stop
   offset="1"
   style="stop-color:#CD3500"
   id="stop175" />
          
          
          
        </linearGradient>
        <path
   d="M 82.473,67.794 96.692,58.163 V 73.072 L 82.588,80.275 82.473,67.794 z"
   id="path179"
   style="fill:url(#XMLID_2_)" />
      </g>
      <g
   id="g180">
        <linearGradient
   id="XMLID_3_"
   gradientUnits="userSpaceOnUse"
   x1="83.056602"
   y1="46.357899"
   x2="63.2528"
   y2="40.350399">
          <stop
   offset="0"
   style="stop-color:#FFCC00"
   id="stop182" />
          <stop
   offset="0.8114"
   style="stop-color:#FFBC00"
   id="stop183" />
          <stop
   offset="1"
   style="stop-color:#FFB800"
   id="stop184" />
          
          
          
        </linearGradient>
        <path
   d="M 58.468,27.282 V 59.683 L 86.781,72.528 101.085,61.143 V 31.077 L 74.814,18.817 58.468,27.282 z"
   id="path188"
   style="fill:url(#XMLID_3_)" />
      </g>
      <g
   id="g189">
        <path
   d="m 86.667,40.772 14.429,-9.726 0.061,30.153 -14.376,11.364 -0.114,-31.791 z"
   id="path190"
   style="fill:#ff6600" />
      </g>
      <path
   d="m 70.771,70.776 c -0.984,-0.514 -1.913,0.198 -1.913,0.198 l 0.069,33.778 3.758,2.082 V 72.962 c 0.001,0 -0.988,-1.705 -1.914,-2.186 z"
   id="path191"
   style="fill:#ff6600" />
      <path
   d="m 70.629,71.552 c -0.824,-0.16 -0.978,0.307 -0.978,0.307 l -0.181,33.154 2.623,1.268 -0.039,-33.318 c 0.001,-10e-4 -0.656,-1.26 -1.425,-1.411 z"
   id="path192"
   style="fill:#cd3500" />
      <g
   id="g193">
        <linearGradient
   id="XMLID_4_"
   gradientUnits="userSpaceOnUse"
   x1="82.964798"
   y1="28.711399"
   x2="63.973598"
   y2="38.065102">
          <stop
   offset="0"
   style="stop-color:#FFCC00"
   id="stop195" />
          <stop
   offset="0.0962"
   style="stop-color:#FFCF10"
   id="stop196" />
          <stop
   offset="0.2834"
   style="stop-color:#FFD739"
   id="stop197" />
          <stop
   offset="0.5431"
   style="stop-color:#FFE57B"
   id="stop198" />
          <stop
   offset="0.8621"
   style="stop-color:#FFF7D6"
   id="stop199" />
          <stop
   offset="1"
   style="stop-color:#FFFFFF"
   id="stop200" />
          
          
          
        </linearGradient>
        <path
   d="m 58.455,27.308 28.194,13.5 14.446,-9.761 -26.281,-12.23 -16.359,8.491 z"
   id="path204"
   style="fill:url(#XMLID_4_)" />
      </g>
      <path
   d="m 58.455,27.308 0.051,1.709 28.154,13.837 -0.011,-2.047 1.878,-1.262 -28.446,-13.133 -1.626,0.896 z"
   id="path205"
   style="fill:#ffffff" />
      <g
   a:adobe-blending-mode="multiply"
   id="g206"
   style="opacity:0.8">
        <path
   a:adobe-blending-mode="normal"
   d="m 67.899,25.419 c 0,-2.897 2.46,-5.496 6.978,-6.648 0.054,0.004 21.211,9.738 21.218,9.691 -1.718,2.91 -6.569,4.381 -14.933,4.187 -7.322,-0.17 -13.263,-3.238 -13.263,-7.23 z"
   id="path207"
   style="fill:#ff6600" />
      </g>
    </g>
    <path
   d="m 34.158,27.802 -18.413,9.535 v 37.195 c 0,0 2.68,1.216 2.918,1.324 0,4.342 0,39.685 0,39.685 l 25.184,13.198 17.797,-12.025 c 0,0 -0.088,-34.439 -0.096,-37.785 1.323,-1.055 4.469,-3.559 4.469,-3.559 V 41.022 L 35.83,26.936 34.158,27.802 z"
   id="path208" />
    <g
   id="g209">
      <path
   d="M 62.189,43.46 35.919,31.2 19.572,39.665 v 32.401 l 2.919,1.324 v 39.835 l 21.107,11.062 14.212,-9.604 -0.096,-37.598 4.475,-3.561 V 43.46 z"
   id="path210" />
    </g>
    <g
   id="g211">
      <linearGradient
   id="XMLID_5_"
   gradientUnits="userSpaceOnUse"
   x1="33.535599"
   y1="93.761703"
   x2="13.7307"
   y2="87.753799">
        <stop
   offset="0"
   style="stop-color:#FFCC00"
   id="stop213" />
        <stop
   offset="0.8114"
   style="stop-color:#FFBC00"
   id="stop214" />
        <stop
   offset="1"
   style="stop-color:#FFB800"
   id="stop215" />
        
        
        
      </linearGradient>
      <path
   d="m 22.491,71.19 v 42.035 L 43.598,124.287 57.81,114.683 57.706,73.62 46.38,81.967 22.491,71.19 z"
   id="path219"
   style="fill:url(#XMLID_5_)" />
    </g>
    <g
   id="g220">
      <path
   d="m 43.578,80.414 14.22,-9.633 v 43.911 l -14.02,9.565 -0.2,-43.843 z"
   id="path221"
   style="fill:#ff6600" />
    </g>
    <g
   id="g222">
      <linearGradient
   id="XMLID_6_"
   gradientUnits="userSpaceOnUse"
   x1="52.671398"
   y1="87.704102"
   x2="50.952499"
   y2="82.2603">
        <stop
   offset="0"
   style="stop-color:#FF6600"
   id="stop224" />
        <stop
   offset="0.3765"
   style="stop-color:#EF5700"
   id="stop225" />
        <stop
   offset="1"
   style="stop-color:#CD3500"
   id="stop226" />
        
        
        
      </linearGradient>
      <path
   d="M 43.577,80.177 57.796,70.546 V 85.455 L 43.692,92.658 43.577,80.177 z"
   id="path230"
   style="fill:url(#XMLID_6_)" />
    </g>
    <g
   id="g231">
      <linearGradient
   id="XMLID_7_"
   gradientUnits="userSpaceOnUse"
   x1="44.160599"
   y1="58.7402"
   x2="24.3568"
   y2="52.7327">
        <stop
   offset="0"
   style="stop-color:#FFCC00"
   id="stop233" />
        <stop
   offset="0.8114"
   style="stop-color:#FFBC00"
   id="stop234" />
        <stop
   offset="1"
   style="stop-color:#FFB800"
   id="stop235" />
        
        
        
      </linearGradient>
      <path
   d="M 19.572,39.665 V 72.066 L 47.885,84.911 62.189,73.526 V 43.46 L 35.919,31.2 19.572,39.665 z"
   id="path239"
   style="fill:url(#XMLID_7_)" />
    </g>
    <g
   id="g240">
      <path
   d="M 47.771,53.155 62.2,43.43 62.261,73.583 47.886,84.946 47.771,53.155 z"
   id="path241"
   style="fill:#ff6600" />
    </g>
    <path
   d="m 31.876,83.159 c -0.984,-0.514 -1.913,0.198 -1.913,0.198 l 0.069,33.778 3.758,2.082 V 85.345 c 0,0 -0.988,-1.705 -1.914,-2.186 z"
   id="path242"
   style="fill:#ff6600" />
    <path
   d="m 31.733,83.935 c -0.824,-0.16 -0.978,0.307 -0.978,0.307 l -0.181,33.154 2.623,1.268 -0.039,-33.318 c 10e-4,-0.001 -0.655,-1.26 -1.425,-1.411 z"
   id="path243"
   style="fill:#cd3500" />
    <g
   id="g244">
      <linearGradient
   id="XMLID_8_"
   gradientUnits="userSpaceOnUse"
   x1="44.070301"
   y1="41.095699"
   x2="25.079"
   y2="50.449299">
        <stop
   offset="0"
   style="stop-color:#FFCC00"
   id="stop246" />
        <stop
   offset="0.0962"
   style="stop-color:#FFCF10"
   id="stop247" />
        <stop
   offset="0.2834"
   style="stop-color:#FFD739"
   id="stop248" />
        <stop
   offset="0.5431"
   style="stop-color:#FFE57B"
   id="stop249" />
        <stop
   offset="0.8621"
   style="stop-color:#FFF7D6"
   id="stop250" />
        <stop
   offset="1"
   style="stop-color:#FFFFFF"
   id="stop251" />
        
        
        
      </linearGradient>
      <path
   d="M 19.56,39.69 47.754,53.19 62.2,43.43 35.919,31.2 19.56,39.69 z"
   id="path255"
   style="fill:url(#XMLID_8_)" />
    </g>
    <path
   d="M 19.56,39.69 19.611,41.399 47.765,55.237 47.754,53.19 49.632,51.928 21.186,38.795 19.56,39.69 z"
   id="path256"
   style="fill:#ffffff" />
    <g
   a:adobe-blending-mode="multiply"
   id="g257"
   style="opacity:0.8">
      <path
   a:adobe-blending-mode="normal"
   d="m 29.004,37.802 c 0,-2.897 2.46,-5.496 6.978,-6.648 0.054,0.004 21.211,9.738 21.218,9.691 -1.718,2.91 -6.569,4.381 -14.933,4.187 -7.323,-0.171 -13.263,-3.238 -13.263,-7.23 z"
   id="path258"
   style="fill:#ff6600" />
    </g>
    <path
   d="m 24.483,27.417 c 0,8.231 6.696,14.928 14.927,14.928 8.231,0 14.929,-6.696 14.929,-14.928 0,-8.231 -6.697,-14.928 -14.929,-14.928 -8.23,0 -14.927,6.697 -14.927,14.928 z m 3,0 c 0,-6.577 5.35,-11.928 11.927,-11.928 6.578,0 11.929,5.351 11.929,11.928 0,6.577 -5.351,11.928 -11.929,11.928 -6.577,0 -11.927,-5.351 -11.927,-11.928 z"
   id="path259" />
    <path
   d="m 123.856,52.302 c -1.951,-5.785 -6.51,-10.593 -13.188,-13.902 -1.884,-0.934 -3.89,-1.722 -6.004,-2.37 l -0.092,3.343 c 1.632,0.543 3.189,1.18 4.666,1.912 5.979,2.965 9.869,7.018 11.566,12.047 3.91,11.598 -4.508,26.78 -22.605,38.745 0,0 -9.395,5.564 -18.311,9.168 -1.453,0.586 -4.457,1.732 -6.729,2.498 -21.961,7.406 -43.774,9.482 -57.568,2.646 C 9.612,103.424 5.719,99.371 4.024,94.342 1.335,86.365 5.202,77.764 13.874,68.391 c 0.138,-0.149 2.494,-2.434 2.842,-3.264 0.626,-1.496 -0.708,-1.923 -0.906,-2.562 -0.107,-0.346 -2.59,1.859 -2.59,1.859 C 2.463,75.199 -2.283,85.711 0.973,95.369 c 1.951,5.787 6.513,10.596 13.189,13.904 14.531,7.203 37.286,5.189 60.028,-2.479 2.123,-0.717 4.24,-1.496 6.303,-2.322 11.381,-4.564 19.018,-9.465 19.018,-9.465 19.65,-12.989 28.806,-29.478 24.345,-42.705 z"
   id="path260" />
    <g
   a:adobe-knockout="true"
   id="g261">
      <path
   a:adobe-knockout="false"
   d="m 27.483,27.417 c 0,-6.577 5.351,-11.928 11.927,-11.928 6.578,0 11.929,5.351 11.929,11.928 0,6.577 -5.351,11.928 -11.929,11.928 -6.576,0 -11.927,-5.351 -11.927,-11.928 z"
   id="path262"
   style="fill:#808080" />
      <path
   a:adobe-knockout="false"
   d="m 39.385,15.531 c 6.538,0 11.856,5.317 11.856,11.854 0,6.536 -5.318,11.853 -11.856,11.853 -6.536,0 -11.854,-5.317 -11.854,-11.853 0,-6.537 5.318,-11.854 11.854,-11.854 z"
   id="path263"
   style="fill:#808080" />
      <path
   a:adobe-knockout="false"
   d="m 39.36,15.573 c 6.498,0 11.783,5.284 11.783,11.779 0,6.495 -5.285,11.779 -11.783,11.779 -6.497,0 -11.781,-5.284 -11.781,-11.779 0,-6.495 5.285,-11.779 11.781,-11.779 z"
   id="path264"
   style="fill:#818181" />
      <path
   a:adobe-knockout="false"
   d="m 39.335,15.616 c 6.458,0 11.711,5.25 11.711,11.704 0,6.455 -5.253,11.705 -11.711,11.705 -6.456,0 -11.709,-5.25 -11.709,-11.705 0,-6.454 5.253,-11.704 11.709,-11.704 z"
   id="path265"
   style="fill:#828282" />
      <path
   a:adobe-knockout="false"
   d="m 39.31,15.658 c 6.418,0 11.639,5.217 11.639,11.63 0,6.413 -5.221,11.63 -11.639,11.63 -6.416,0 -11.636,-5.217 -11.636,-11.63 0,-6.413 5.221,-11.63 11.636,-11.63 z"
   id="path266"
   style="fill:#838383" />
      <path
   a:adobe-knockout="false"
   d="m 39.285,15.7 c 6.378,0 11.566,5.184 11.566,11.556 0,6.372 -5.188,11.556 -11.566,11.556 -6.376,0 -11.563,-5.184 -11.563,-11.556 0,-6.372 5.187,-11.556 11.563,-11.556 z"
   id="path267"
   style="fill:#848484" />
      <path
   a:adobe-knockout="false"
   d="m 39.26,15.742 c 6.338,0 11.493,5.15 11.493,11.481 0,6.331 -5.154,11.482 -11.493,11.482 -6.335,0 -11.491,-5.15 -11.491,-11.481 0,-6.331 5.156,-11.482 11.491,-11.482 z"
   id="path268"
   style="fill:#858585" />
      <path
   a:adobe-knockout="false"
   d="m 39.235,15.783 c 6.298,0 11.42,5.117 11.42,11.408 0,6.29 -5.123,11.407 -11.42,11.407 -6.296,0 -11.418,-5.117 -11.418,-11.407 0,-6.291 5.122,-11.408 11.418,-11.408 z"
   id="path269"
   style="fill:#868686" />
      <path
   a:adobe-knockout="false"
   d="m 39.21,15.826 c 6.258,0 11.347,5.083 11.347,11.333 0,6.249 -5.089,11.333 -11.347,11.333 -6.256,0 -11.346,-5.084 -11.346,-11.333 10e-4,-6.25 5.091,-11.333 11.346,-11.333 z"
   id="path270"
   style="fill:#878787" />
      <path
   a:adobe-knockout="false"
   d="m 39.186,15.868 c 6.218,0 11.275,5.05 11.275,11.259 0,6.208 -5.057,11.258 -11.275,11.258 -6.216,0 -11.273,-5.05 -11.273,-11.258 0,-6.209 5.057,-11.259 11.273,-11.259 z"
   id="path271"
   style="fill:#888888" />
      <path
   a:adobe-knockout="false"
   d="m 39.161,15.91 c 6.178,0 11.202,5.017 11.202,11.185 0,6.167 -5.024,11.184 -11.202,11.184 -6.176,0 -11.2,-5.017 -11.2,-11.184 -10e-4,-6.168 5.023,-11.185 11.2,-11.185 z"
   id="path272"
   style="fill:#898989" />
      <path
   a:adobe-knockout="false"
   d="m 39.136,15.952 c 6.138,0 11.129,4.983 11.129,11.11 0,6.127 -4.992,11.11 -11.129,11.11 -6.136,0 -11.128,-4.984 -11.128,-11.11 0,-6.126 4.992,-11.11 11.128,-11.11 z"
   id="path273"
   style="fill:#8a8a8a" />
      <path
   a:adobe-knockout="false"
   d="m 39.11,15.994 c 6.098,0 11.057,4.951 11.057,11.036 0,6.085 -4.959,11.036 -11.057,11.036 -6.095,0 -11.055,-4.95 -11.055,-11.036 0.001,-6.086 4.96,-11.036 11.055,-11.036 z"
   id="path274"
   style="fill:#8b8b8b" />
      <path
   a:adobe-knockout="false"
   d="m 39.085,16.036 c 6.058,0 10.984,4.917 10.984,10.961 0,6.044 -4.927,10.961 -10.984,10.961 -6.056,0 -10.982,-4.917 -10.982,-10.961 0,-6.044 4.927,-10.961 10.982,-10.961 z"
   id="path275"
   style="fill:#8c8c8c" />
      <path
   a:adobe-knockout="false"
   d="m 39.061,16.078 c 6.018,0 10.912,4.883 10.912,10.887 0,6.003 -4.894,10.886 -10.912,10.886 -6.015,0 -10.91,-4.883 -10.91,-10.886 0,-6.004 4.894,-10.887 10.91,-10.887 z"
   id="path276"
   style="fill:#8d8d8d" />
      <path
   a:adobe-knockout="false"
   d="m 39.036,16.12 c 5.978,0 10.839,4.85 10.839,10.812 0,5.963 -4.861,10.813 -10.839,10.813 -5.976,0 -10.837,-4.85 -10.837,-10.813 0,-5.962 4.861,-10.812 10.837,-10.812 z"
   id="path277"
   style="fill:#8e8e8e" />
      <path
   a:adobe-knockout="false"
   d="m 39.011,16.162 c 5.938,0 10.767,4.816 10.767,10.738 0,5.922 -4.829,10.738 -10.767,10.738 -5.936,0 -10.764,-4.816 -10.764,-10.738 0,-5.921 4.828,-10.738 10.764,-10.738 z"
   id="path278"
   style="fill:#8f8f8f" />
      <path
   a:adobe-knockout="false"
   d="m 38.986,16.204 c 5.897,0 10.693,4.783 10.693,10.664 0,5.881 -4.796,10.664 -10.693,10.664 -5.896,0 -10.692,-4.783 -10.692,-10.664 0,-5.881 4.796,-10.664 10.692,-10.664 z"
   id="path279"
   style="fill:#909090" />
      <path
   a:adobe-knockout="false"
   d="m 38.961,16.247 c 5.857,0 10.621,4.75 10.621,10.589 0,5.839 -4.764,10.589 -10.621,10.589 -5.856,0 -10.62,-4.75 -10.62,-10.589 0,-5.839 4.764,-10.589 10.62,-10.589 z"
   id="path280"
   style="fill:#919191" />
      <path
   a:adobe-knockout="false"
   d="m 38.936,16.289 c 5.817,0 10.548,4.716 10.548,10.514 0,5.799 -4.731,10.515 -10.548,10.515 -5.815,0 -10.547,-4.716 -10.547,-10.515 0,-5.798 4.732,-10.514 10.547,-10.514 z"
   id="path281"
   style="fill:#929292" />
      <path
   a:adobe-knockout="false"
   d="m 38.911,16.33 c 5.777,0 10.476,4.683 10.476,10.441 0,5.757 -4.698,10.44 -10.476,10.44 -5.775,0 -10.474,-4.683 -10.474,-10.44 0,-5.758 4.699,-10.441 10.474,-10.441 z"
   id="path282"
   style="fill:#939393" />
      <path
   a:adobe-knockout="false"
   d="m 38.886,16.372 c 5.737,0 10.403,4.65 10.403,10.367 0,5.717 -4.667,10.366 -10.403,10.366 -5.736,0 -10.401,-4.65 -10.401,-10.366 0,-5.716 4.665,-10.367 10.401,-10.367 z"
   id="path283"
   style="fill:#949494" />
      <path
   a:adobe-knockout="false"
   d="m 38.861,16.414 c 5.697,0 10.331,4.617 10.331,10.292 0,5.675 -4.634,10.292 -10.331,10.292 -5.695,0 -10.329,-4.616 -10.329,-10.292 0.001,-5.675 4.634,-10.292 10.329,-10.292 z"
   id="path284"
   style="fill:#959595" />
      <path
   a:adobe-knockout="false"
   d="m 38.836,16.456 c 5.657,0 10.258,4.583 10.258,10.218 0,5.635 -4.601,10.217 -10.258,10.217 -5.655,0 -10.256,-4.583 -10.256,-10.217 0,-5.634 4.601,-10.218 10.256,-10.218 z"
   id="path285"
   style="fill:#969696" />
      <path
   a:adobe-knockout="false"
   d="m 38.812,16.499 c 5.617,0 10.185,4.55 10.185,10.143 0,5.593 -4.568,10.144 -10.185,10.144 -5.616,0 -10.184,-4.55 -10.184,-10.144 0,-5.594 4.568,-10.143 10.184,-10.143 z"
   id="path286"
   style="fill:#979797" />
      <path
   a:adobe-knockout="false"
   d="m 38.787,16.541 c 5.577,0 10.112,4.517 10.112,10.069 0,5.552 -4.535,10.069 -10.112,10.069 -5.576,0 -10.111,-4.517 -10.111,-10.069 0,-5.552 4.535,-10.069 10.111,-10.069 z"
   id="path287"
   style="fill:#989898" />
      <path
   a:adobe-knockout="false"
   d="m 38.762,16.583 c 5.537,0 10.039,4.483 10.039,9.995 0,5.511 -4.502,9.994 -10.039,9.994 -5.536,0 -10.039,-4.483 -10.039,-9.994 0,-5.513 4.503,-9.995 10.039,-9.995 z"
   id="path288"
   style="fill:#999999" />
      <path
   a:adobe-knockout="false"
   d="m 38.736,16.625 c 5.497,0 9.967,4.449 9.967,9.92 0,5.471 -4.47,9.92 -9.967,9.92 -5.495,0 -9.965,-4.45 -9.965,-9.92 0,-5.47 4.47,-9.92 9.965,-9.92 z"
   id="path289"
   style="fill:#9a9a9a" />
      <path
   a:adobe-knockout="false"
   d="m 38.711,16.667 c 5.457,0 9.895,4.417 9.895,9.846 0,5.43 -4.438,9.846 -9.895,9.846 -5.455,0 -9.893,-4.416 -9.893,-9.846 0,-5.43 4.438,-9.846 9.893,-9.846 z"
   id="path290"
   style="fill:#9b9b9b" />
      <path
   a:adobe-knockout="false"
   d="m 38.687,16.709 c 5.417,0 9.822,4.382 9.822,9.771 0,5.389 -4.405,9.771 -9.822,9.771 -5.416,0 -9.82,-4.383 -9.82,-9.771 0,-5.388 4.404,-9.771 9.82,-9.771 z"
   id="path291"
   style="fill:#9c9c9c" />
      <path
   a:adobe-knockout="false"
   d="m 38.662,16.751 c 5.376,0 9.749,4.349 9.749,9.697 0,5.348 -4.373,9.697 -9.749,9.697 -5.375,0 -9.748,-4.35 -9.748,-9.697 0,-5.347 4.373,-9.697 9.748,-9.697 z"
   id="path292"
   style="fill:#9d9d9d" />
      <path
   a:adobe-knockout="false"
   d="m 38.637,16.793 c 5.336,0 9.676,4.316 9.676,9.622 0,5.307 -4.34,9.623 -9.676,9.623 -5.335,0 -9.675,-4.316 -9.675,-9.623 0,-5.306 4.34,-9.622 9.675,-9.622 z"
   id="path293"
   style="fill:#9e9e9e" />
      <path
   a:adobe-knockout="false"
   d="m 38.612,16.835 c 5.296,0 9.604,4.283 9.604,9.548 0,5.266 -4.308,9.549 -9.604,9.549 -5.295,0 -9.602,-4.283 -9.602,-9.549 0,-5.265 4.306,-9.548 9.602,-9.548 z"
   id="path294"
   style="fill:#9f9f9f" />
      <path
   a:adobe-knockout="false"
   d="m 38.587,16.876 c 5.256,0 9.531,4.25 9.531,9.475 0,5.225 -4.275,9.474 -9.531,9.474 -5.255,0 -9.53,-4.25 -9.53,-9.474 0,-5.225 4.275,-9.475 9.53,-9.475 z"
   id="path295"
   style="fill:#a0a0a0" />
      <path
   a:adobe-knockout="false"
   d="m 38.562,16.919 c 5.217,0 9.459,4.216 9.459,9.4 0,5.184 -4.242,9.399 -9.459,9.399 -5.215,0 -9.457,-4.216 -9.457,-9.399 0,-5.183 4.242,-9.4 9.457,-9.4 z"
   id="path296"
   style="fill:#a1a1a1" />
      <path
   a:adobe-knockout="false"
   d="m 38.537,16.961 c 5.177,0 9.386,4.183 9.386,9.326 0,5.143 -4.209,9.325 -9.386,9.325 -5.175,0 -9.384,-4.182 -9.384,-9.325 -10e-4,-5.143 4.209,-9.326 9.384,-9.326 z"
   id="path297"
   style="fill:#a2a2a2" />
      <path
   a:adobe-knockout="false"
   d="m 38.512,17.003 c 5.137,0 9.313,4.149 9.313,9.251 0,5.102 -4.177,9.251 -9.313,9.251 -5.135,0 -9.312,-4.149 -9.312,-9.251 0,-5.102 4.177,-9.251 9.312,-9.251 z"
   id="path298"
   style="fill:#a3a3a3" />
      <path
   a:adobe-knockout="false"
   d="m 38.487,17.045 c 5.097,0 9.241,4.116 9.241,9.177 0,5.061 -4.144,9.177 -9.241,9.177 -5.095,0 -9.239,-4.116 -9.239,-9.177 0,-5.061 4.144,-9.177 9.239,-9.177 z"
   id="path299"
   style="fill:#a4a4a4" />
      <path
   a:adobe-knockout="false"
   d="m 38.462,17.087 c 5.057,0 9.168,4.083 9.168,9.103 0,5.02 -4.112,9.102 -9.168,9.102 -5.055,0 -9.167,-4.083 -9.167,-9.102 0,-5.019 4.112,-9.103 9.167,-9.103 z"
   id="path300"
   style="fill:#a5a5a5" />
      <path
   a:adobe-knockout="false"
   d="m 38.437,17.129 c 5.016,0 9.096,4.049 9.096,9.028 0,4.979 -4.08,9.027 -9.096,9.027 -5.015,0 -9.094,-4.049 -9.094,-9.027 0,-4.979 4.079,-9.028 9.094,-9.028 z"
   id="path301"
   style="fill:#a6a6a6" />
      <path
   a:adobe-knockout="false"
   d="m 38.412,17.171 c 4.976,0 9.022,4.015 9.022,8.953 0,4.938 -4.046,8.954 -9.022,8.954 -4.975,0 -9.021,-4.016 -9.021,-8.954 0,-4.938 4.046,-8.953 9.021,-8.953 z"
   id="path302"
   style="fill:#a7a7a7" />
      <path
   a:adobe-knockout="false"
   d="m 38.387,17.213 c 4.936,0 8.95,3.982 8.95,8.879 0,4.897 -4.014,8.879 -8.95,8.879 -4.935,0 -8.949,-3.982 -8.949,-8.879 0,-4.896 4.014,-8.879 8.949,-8.879 z"
   id="path303"
   style="fill:#a8a8a8" />
      <path
   a:adobe-knockout="false"
   d="m 38.362,17.255 c 4.896,0 8.877,3.949 8.877,8.805 0,4.855 -3.981,8.805 -8.877,8.805 -4.895,0 -8.876,-3.949 -8.876,-8.805 0,-4.856 3.981,-8.805 8.876,-8.805 z"
   id="path304"
   style="fill:#a9a9a9" />
      <path
   a:adobe-knockout="false"
   d="m 38.337,17.297 c 4.856,0 8.805,3.916 8.805,8.73 0,4.814 -3.948,8.73 -8.805,8.73 -4.854,0 -8.803,-3.916 -8.803,-8.73 0,-4.814 3.948,-8.73 8.803,-8.73 z"
   id="path305"
   style="fill:#aaaaaa" />
      <path
   a:adobe-knockout="false"
   d="m 38.312,17.34 c 4.816,0 8.732,3.882 8.732,8.655 0,4.774 -3.917,8.656 -8.732,8.656 -4.814,0 -8.73,-3.882 -8.73,-8.656 0,-4.773 3.916,-8.655 8.73,-8.655 z"
   id="path306"
   style="fill:#ababab" />
      <path
   a:adobe-knockout="false"
   d="m 38.287,17.381 c 4.776,0 8.66,3.849 8.66,8.582 0,4.732 -3.883,8.582 -8.66,8.582 -4.775,0 -8.658,-3.849 -8.658,-8.582 0,-4.733 3.883,-8.582 8.658,-8.582 z"
   id="path307"
   style="fill:#acacac" />
      <path
   a:adobe-knockout="false"
   d="m 38.262,17.423 c 4.736,0 8.587,3.815 8.587,8.508 0,4.692 -3.851,8.507 -8.587,8.507 -4.734,0 -8.585,-3.815 -8.585,-8.507 0,-4.692 3.851,-8.508 8.585,-8.508 z"
   id="path308"
   style="fill:#adadad" />
      <path
   a:adobe-knockout="false"
   d="m 38.237,17.465 c 4.696,0 8.514,3.783 8.514,8.434 0,4.651 -3.818,8.433 -8.514,8.433 -4.694,0 -8.513,-3.782 -8.513,-8.433 0,-4.651 3.819,-8.434 8.513,-8.434 z"
   id="path309"
   style="fill:#aeaeae" />
      <path
   a:adobe-knockout="false"
   d="m 38.213,17.507 c 4.656,0 8.441,3.749 8.441,8.359 0,4.61 -3.785,8.358 -8.441,8.358 -4.655,0 -8.441,-3.749 -8.441,-8.358 0,-4.609 3.786,-8.359 8.441,-8.359 z"
   id="path310"
   style="fill:#afafaf" />
      <path
   a:adobe-knockout="false"
   d="m 38.188,17.55 c 4.616,0 8.369,3.715 8.369,8.284 0,4.569 -3.753,8.284 -8.369,8.284 -4.615,0 -8.368,-3.715 -8.368,-8.284 0,-4.569 3.753,-8.284 8.368,-8.284 z"
   id="path311"
   style="fill:#b0b0b0" />
      <path
   a:adobe-knockout="false"
   d="m 38.163,17.592 c 4.576,0 8.296,3.682 8.296,8.21 0,4.528 -3.721,8.21 -8.296,8.21 -4.575,0 -8.295,-3.682 -8.295,-8.21 0,-4.528 3.72,-8.21 8.295,-8.21 z"
   id="path312"
   style="fill:#b1b1b1" />
      <path
   a:adobe-knockout="false"
   d="m 38.138,17.634 c 4.536,0 8.224,3.649 8.224,8.136 0,4.487 -3.688,8.135 -8.224,8.135 -4.535,0 -8.222,-3.648 -8.222,-8.135 0,-4.487 3.687,-8.136 8.222,-8.136 z"
   id="path313"
   style="fill:#b2b2b2" />
      <path
   a:adobe-knockout="false"
   d="m 38.113,17.676 c 4.496,0 8.151,3.615 8.151,8.061 0,4.446 -3.655,8.062 -8.151,8.062 -4.495,0 -8.15,-3.615 -8.15,-8.062 0,-4.446 3.655,-8.061 8.15,-8.061 z"
   id="path314"
   style="fill:#b3b3b3" />
      <path
   a:adobe-knockout="false"
   d="m 38.088,17.718 c 4.455,0 8.078,3.582 8.078,7.987 0,4.405 -3.623,7.987 -8.078,7.987 -4.455,0 -8.077,-3.582 -8.077,-7.987 0,-4.405 3.622,-7.987 8.077,-7.987 z"
   id="path315"
   style="fill:#b4b4b4" />
      <path
   a:adobe-knockout="false"
   d="m 38.063,17.76 c 4.415,0 8.005,3.548 8.005,7.912 0,4.364 -3.59,7.913 -8.005,7.913 -4.415,0 -8.005,-3.548 -8.005,-7.913 0,-4.363 3.59,-7.912 8.005,-7.912 z"
   id="path316"
   style="fill:#b5b5b5" />
      <path
   a:adobe-knockout="false"
   d="m 38.038,17.802 c 4.375,0 7.933,3.515 7.933,7.838 0,4.323 -3.557,7.838 -7.933,7.838 -4.375,0 -7.932,-3.516 -7.932,-7.838 0,-4.323 3.558,-7.838 7.932,-7.838 z"
   id="path317"
   style="fill:#b6b6b6" />
      <path
   a:adobe-knockout="false"
   d="m 38.013,17.844 c 4.335,0 7.86,3.482 7.86,7.763 0,4.282 -3.524,7.764 -7.86,7.764 -4.335,0 -7.859,-3.482 -7.859,-7.764 0,-4.281 3.524,-7.763 7.859,-7.763 z"
   id="path318"
   style="fill:#b7b7b7" />
      <path
   a:adobe-knockout="false"
   d="m 37.988,17.886 c 4.296,0 7.788,3.448 7.788,7.689 0,4.241 -3.492,7.689 -7.788,7.689 -4.294,0 -7.787,-3.448 -7.787,-7.689 0,-4.241 3.492,-7.689 7.787,-7.689 z"
   id="path319"
   style="fill:#b8b8b8" />
      <path
   a:adobe-knockout="false"
   d="m 37.963,17.928 c 4.255,0 7.715,3.416 7.715,7.616 0,4.2 -3.459,7.615 -7.715,7.615 -4.254,0 -7.714,-3.416 -7.714,-7.615 0,-4.201 3.459,-7.616 7.714,-7.616 z"
   id="path320"
   style="fill:#b9b9b9" />
      <path
   a:adobe-knockout="false"
   d="m 37.938,17.97 c 4.215,0 7.642,3.381 7.642,7.541 0,4.159 -3.427,7.541 -7.642,7.541 -4.214,0 -7.641,-3.382 -7.641,-7.541 0,-4.159 3.427,-7.541 7.641,-7.541 z"
   id="path321"
   style="fill:#bababa" />
      <path
   a:adobe-knockout="false"
   d="m 37.913,18.012 c 4.175,0 7.569,3.349 7.569,7.466 0,4.118 -3.394,7.466 -7.569,7.466 -4.174,0 -7.568,-3.348 -7.568,-7.466 0,-4.117 3.394,-7.466 7.568,-7.466 z"
   id="path322"
   style="fill:#bbbbbb" />
      <path
   a:adobe-knockout="false"
   d="m 37.888,18.054 c 4.135,0 7.497,3.315 7.497,7.392 0,4.077 -3.361,7.392 -7.497,7.392 -4.134,0 -7.496,-3.315 -7.496,-7.392 0,-4.077 3.362,-7.392 7.496,-7.392 z"
   id="path323"
   style="fill:#bcbcbc" />
      <path
   a:adobe-knockout="false"
   d="m 37.863,18.096 c 4.095,0 7.424,3.282 7.424,7.318 0,4.036 -3.33,7.318 -7.424,7.318 -4.094,0 -7.424,-3.282 -7.424,-7.318 0,-4.036 3.33,-7.318 7.424,-7.318 z"
   id="path324"
   style="fill:#bdbdbd" />
      <path
   a:adobe-knockout="false"
   d="m 37.838,18.138 c 4.055,0 7.352,3.249 7.352,7.244 0,3.995 -3.297,7.243 -7.352,7.243 -4.054,0 -7.351,-3.249 -7.351,-7.243 0,-3.995 3.297,-7.244 7.351,-7.244 z"
   id="path325"
   style="fill:#bebebe" />
      <path
   a:adobe-knockout="false"
   d="m 37.813,18.181 c 4.015,0 7.279,3.215 7.279,7.169 0,3.954 -3.264,7.169 -7.279,7.169 -4.015,0 -7.278,-3.215 -7.278,-7.169 0,-3.954 3.264,-7.169 7.278,-7.169 z"
   id="path326"
   style="fill:#bfbfbf" />
      <path
   a:adobe-knockout="false"
   d="m 37.788,18.223 c 3.976,0 7.207,3.181 7.207,7.094 0,3.914 -3.231,7.095 -7.207,7.095 -3.974,0 -7.205,-3.181 -7.205,-7.095 0,-3.913 3.231,-7.094 7.205,-7.094 z"
   id="path327"
   style="fill:#c0c0c0" />
      <path
   a:adobe-knockout="false"
   d="m 37.763,18.265 c 3.935,0 7.134,3.148 7.134,7.02 0,3.872 -3.199,7.021 -7.134,7.021 -3.934,0 -7.133,-3.148 -7.133,-7.021 0,-3.873 3.199,-7.02 7.133,-7.02 z"
   id="path328"
   style="fill:#c1c1c1" />
      <path
   a:adobe-knockout="false"
   d="m 37.738,18.307 c 3.895,0 7.061,3.115 7.061,6.946 0,3.831 -3.166,6.946 -7.061,6.946 -3.894,0 -7.06,-3.115 -7.06,-6.946 0,-3.831 3.166,-6.946 7.06,-6.946 z"
   id="path329"
   style="fill:#c2c2c2" />
      <path
   a:adobe-knockout="false"
   d="m 37.713,18.349 c 3.855,0 6.988,3.081 6.988,6.872 0,3.79 -3.133,6.872 -6.988,6.872 -3.854,0 -6.987,-3.082 -6.987,-6.872 0,-3.791 3.133,-6.872 6.987,-6.872 z"
   id="path330"
   style="fill:#c3c3c3" />
      <path
   a:adobe-knockout="false"
   d="m 37.688,18.391 c 3.815,0 6.916,3.048 6.916,6.797 0,3.749 -3.101,6.797 -6.916,6.797 -3.814,0 -6.915,-3.048 -6.915,-6.797 0,-3.75 3.102,-6.797 6.915,-6.797 z"
   id="path331"
   style="fill:#c4c4c4" />
      <path
   a:adobe-knockout="false"
   d="m 37.664,18.433 c 3.775,0 6.843,3.015 6.843,6.723 0,3.708 -3.068,6.723 -6.843,6.723 -3.774,0 -6.842,-3.015 -6.842,-6.723 -10e-4,-3.709 3.068,-6.723 6.842,-6.723 z"
   id="path332"
   style="fill:#c5c5c5" />
      <path
   a:adobe-knockout="false"
   d="m 37.639,18.475 c 3.735,0 6.771,2.981 6.771,6.648 0,3.667 -3.036,6.648 -6.771,6.648 -3.734,0 -6.77,-2.981 -6.77,-6.648 0,-3.667 3.036,-6.648 6.77,-6.648 z"
   id="path333"
   style="fill:#c6c6c6" />
      <path
   a:adobe-knockout="false"
   d="m 37.613,18.517 c 3.695,0 6.698,2.948 6.698,6.574 0,3.626 -3.003,6.574 -6.698,6.574 -3.693,0 -6.697,-2.948 -6.697,-6.574 0.001,-3.626 3.004,-6.574 6.697,-6.574 z"
   id="path334"
   style="fill:#c7c7c7" />
      <path
   a:adobe-knockout="false"
   d="m 37.589,18.559 c 3.654,0 6.625,2.915 6.625,6.5 0,3.585 -2.971,6.5 -6.625,6.5 -3.654,0 -6.625,-2.915 -6.625,-6.5 0,-3.585 2.971,-6.5 6.625,-6.5 z"
   id="path335"
   style="fill:#c8c8c8" />
      <path
   a:adobe-knockout="false"
   d="m 37.564,18.601 c 3.615,0 6.552,2.881 6.552,6.426 0,3.545 -2.938,6.425 -6.552,6.425 -3.614,0 -6.552,-2.881 -6.552,-6.425 0,-3.544 2.938,-6.426 6.552,-6.426 z"
   id="path336"
   style="fill:#c9c9c9" />
      <path
   a:adobe-knockout="false"
   d="m 37.539,18.643 c 3.574,0 6.479,2.848 6.479,6.351 0,3.503 -2.905,6.351 -6.479,6.351 -3.574,0 -6.479,-2.848 -6.479,-6.351 0,-3.503 2.905,-6.351 6.479,-6.351 z"
   id="path337"
   style="fill:#cacaca" />
      <path
   a:adobe-knockout="false"
   d="m 37.514,18.685 c 3.535,0 6.407,2.814 6.407,6.277 0,3.462 -2.873,6.276 -6.407,6.276 -3.534,0 -6.406,-2.814 -6.406,-6.276 -0.001,-3.462 2.872,-6.277 6.406,-6.277 z"
   id="path338"
   style="fill:#cbcbcb" />
      <path
   a:adobe-knockout="false"
   d="m 37.489,18.727 c 3.495,0 6.334,2.781 6.334,6.202 0,3.421 -2.84,6.203 -6.334,6.203 -3.494,0 -6.334,-2.781 -6.334,-6.203 0,-3.422 2.84,-6.202 6.334,-6.202 z"
   id="path339"
   style="fill:#cccccc" />
      <path
   a:adobe-knockout="false"
   d="m 37.464,18.769 c 3.455,0 6.262,2.748 6.262,6.128 0,3.38 -2.808,6.128 -6.262,6.128 -3.454,0 -6.261,-2.748 -6.261,-6.128 0,-3.38 2.807,-6.128 6.261,-6.128 z"
   id="path340"
   style="fill:#cdcdcd" />
      <path
   a:adobe-knockout="false"
   d="m 37.439,18.811 c 3.415,0 6.189,2.714 6.189,6.054 0,3.34 -2.775,6.054 -6.189,6.054 -3.414,0 -6.188,-2.714 -6.188,-6.054 0,-3.34 2.774,-6.054 6.188,-6.054 z"
   id="path341"
   style="fill:#cecece" />
      <path
   a:adobe-knockout="false"
   d="m 37.414,18.854 c 3.375,0 6.117,2.681 6.117,5.979 0,3.298 -2.742,5.979 -6.117,5.979 -3.374,0 -6.116,-2.681 -6.116,-5.979 0,-3.298 2.743,-5.979 6.116,-5.979 z"
   id="path342"
   style="fill:#cfcfcf" />
      <path
   a:adobe-knockout="false"
   d="m 37.389,18.895 c 3.334,0 6.044,2.648 6.044,5.905 0,3.257 -2.709,5.905 -6.044,5.905 -3.334,0 -6.043,-2.647 -6.043,-5.905 0,-3.258 2.709,-5.905 6.043,-5.905 z"
   id="path343"
   style="fill:#d0d0d0" />
      <path
   a:adobe-knockout="false"
   d="m 37.364,18.938 c 3.294,0 5.971,2.614 5.971,5.831 0,3.216 -2.677,5.83 -5.971,5.83 -3.294,0 -5.971,-2.614 -5.971,-5.83 10e-4,-3.218 2.677,-5.831 5.971,-5.831 z"
   id="path344"
   style="fill:#d1d1d1" />
      <path
   a:adobe-knockout="false"
   d="m 37.339,18.979 c 3.254,0 5.899,2.581 5.899,5.756 0,3.176 -2.645,5.756 -5.899,5.756 -3.253,0 -5.897,-2.581 -5.897,-5.756 -0.001,-3.175 2.644,-5.756 5.897,-5.756 z"
   id="path345"
   style="fill:#d2d2d2" />
      <path
   a:adobe-knockout="false"
   d="m 37.314,19.021 c 3.214,0 5.826,2.547 5.826,5.682 0,3.135 -2.612,5.682 -5.826,5.682 -3.213,0 -5.825,-2.547 -5.825,-5.682 0,-3.134 2.612,-5.682 5.825,-5.682 z"
   id="path346"
   style="fill:#d3d3d3" />
      <path
   a:adobe-knockout="false"
   d="m 37.289,19.063 c 3.174,0 5.753,2.514 5.753,5.607 0,3.093 -2.579,5.607 -5.753,5.607 -3.173,0 -5.752,-2.514 -5.752,-5.607 0,-3.093 2.579,-5.607 5.752,-5.607 z"
   id="path347"
   style="fill:#d4d4d4" />
      <path
   a:adobe-knockout="false"
   d="m 37.264,19.105 c 3.134,0 5.681,2.481 5.681,5.533 0,3.052 -2.547,5.533 -5.681,5.533 -3.133,0 -5.68,-2.481 -5.68,-5.533 0,-3.052 2.547,-5.533 5.68,-5.533 z"
   id="path348"
   style="fill:#d5d5d5" />
      <path
   a:adobe-knockout="false"
   d="m 37.239,19.147 c 3.094,0 5.608,2.447 5.608,5.459 0,3.011 -2.514,5.458 -5.608,5.458 -3.093,0 -5.607,-2.447 -5.607,-5.458 0,-3.011 2.514,-5.459 5.607,-5.459 z"
   id="path349"
   style="fill:#d6d6d6" />
      <path
   a:adobe-knockout="false"
   d="m 37.214,19.189 c 3.054,0 5.536,2.414 5.536,5.385 0,2.97 -2.481,5.384 -5.536,5.384 -3.053,0 -5.535,-2.414 -5.535,-5.384 0.001,-2.97 2.482,-5.385 5.535,-5.385 z"
   id="path350"
   style="fill:#d7d7d7" />
      <path
   a:adobe-knockout="false"
   d="m 37.189,19.231 c 3.014,0 5.463,2.381 5.463,5.31 0,2.93 -2.449,5.311 -5.463,5.311 -3.014,0 -5.462,-2.381 -5.462,-5.311 0,-2.929 2.449,-5.31 5.462,-5.31 z"
   id="path351"
   style="fill:#d8d8d8" />
      <path
   a:adobe-knockout="false"
   d="m 37.165,19.274 c 2.974,0 5.39,2.347 5.39,5.235 0,2.888 -2.416,5.236 -5.39,5.236 -2.974,0 -5.39,-2.347 -5.39,-5.236 0,-2.889 2.416,-5.235 5.39,-5.235 z"
   id="path352"
   style="fill:#d9d9d9" />
      <path
   a:adobe-knockout="false"
   d="m 37.14,19.316 c 2.934,0 5.317,2.313 5.317,5.161 0,2.848 -2.384,5.162 -5.317,5.162 -2.933,0 -5.317,-2.314 -5.317,-5.162 0,-2.848 2.384,-5.161 5.317,-5.161 z"
   id="path353"
   style="fill:#dadada" />
      <path
   a:adobe-knockout="false"
   d="m 37.115,19.358 c 2.894,0 5.245,2.28 5.245,5.087 0,2.807 -2.351,5.087 -5.245,5.087 -2.894,0 -5.245,-2.28 -5.245,-5.087 0,-2.807 2.351,-5.087 5.245,-5.087 z"
   id="path354"
   style="fill:#dbdbdb" />
      <path
   a:adobe-knockout="false"
   d="m 37.09,19.4 c 2.854,0 5.172,2.247 5.172,5.013 0,2.766 -2.318,5.013 -5.172,5.013 -2.854,0 -5.172,-2.247 -5.172,-5.013 0,-2.766 2.318,-5.013 5.172,-5.013 z"
   id="path355"
   style="fill:#dcdcdc" />
      <path
   a:adobe-knockout="false"
   d="m 37.065,19.442 c 2.813,0 5.099,2.214 5.099,4.938 0,2.724 -2.286,4.938 -5.099,4.938 -2.813,0 -5.099,-2.213 -5.099,-4.938 0,-2.725 2.285,-4.938 5.099,-4.938 z"
   id="path356"
   style="fill:#dddddd" />
      <path
   a:adobe-knockout="false"
   d="m 37.04,19.484 c 2.774,0 5.027,2.18 5.027,4.864 0,2.684 -2.253,4.864 -5.027,4.864 -2.773,0 -5.026,-2.181 -5.026,-4.864 0,-2.683 2.253,-4.864 5.026,-4.864 z"
   id="path357"
   style="fill:#dedede" />
      <path
   a:adobe-knockout="false"
   d="m 37.015,19.526 c 2.734,0 4.954,2.147 4.954,4.79 0,2.643 -2.22,4.79 -4.954,4.79 -2.733,0 -4.954,-2.147 -4.954,-4.79 0,-2.643 2.221,-4.79 4.954,-4.79 z"
   id="path358"
   style="fill:#dfdfdf" />
      <path
   a:adobe-knockout="false"
   d="m 36.99,19.568 c 2.694,0 4.882,2.114 4.882,4.715 0,2.601 -2.188,4.715 -4.882,4.715 -2.693,0 -4.881,-2.114 -4.881,-4.715 0,-2.601 2.188,-4.715 4.881,-4.715 z"
   id="path359"
   style="fill:#e0e0e0" />
      <path
   a:adobe-knockout="false"
   d="m 36.965,19.61 c 2.653,0 4.809,2.081 4.809,4.641 0,2.56 -2.156,4.641 -4.809,4.641 -2.653,0 -4.809,-2.08 -4.809,-4.641 0,-2.561 2.156,-4.641 4.809,-4.641 z"
   id="path360"
   style="fill:#e1e1e1" />
      <path
   a:adobe-knockout="false"
   d="m 36.94,19.652 c 2.613,0 4.736,2.047 4.736,4.566 0,2.519 -2.123,4.566 -4.736,4.566 -2.613,0 -4.736,-2.047 -4.736,-4.566 0,-2.519 2.123,-4.566 4.736,-4.566 z"
   id="path361"
   style="fill:#e2e2e2" />
      <path
   a:adobe-knockout="false"
   d="m 36.915,19.694 c 2.573,0 4.664,2.013 4.664,4.492 0,2.479 -2.09,4.492 -4.664,4.492 -2.574,0 -4.663,-2.014 -4.663,-4.492 0,-2.478 2.09,-4.492 4.663,-4.492 z"
   id="path362"
   style="fill:#e3e3e3" />
      <path
   a:adobe-knockout="false"
   d="m 36.89,19.736 c 2.533,0 4.591,1.98 4.591,4.418 0,2.438 -2.058,4.417 -4.591,4.417 -2.533,0 -4.591,-1.98 -4.591,-4.417 0,-2.438 2.058,-4.418 4.591,-4.418 z"
   id="path363"
   style="fill:#e4e4e4" />
      <path
   a:adobe-knockout="false"
   d="m 36.865,19.778 c 2.493,0 4.518,1.947 4.518,4.343 0,2.397 -2.025,4.344 -4.518,4.344 -2.493,0 -4.518,-1.947 -4.518,-4.344 0,-2.396 2.025,-4.343 4.518,-4.343 z"
   id="path364"
   style="fill:#e5e5e5" />
      <path
   a:adobe-knockout="false"
   d="m 36.84,19.82 c 2.453,0 4.445,1.914 4.445,4.269 0,2.356 -1.992,4.269 -4.445,4.269 -2.453,0 -4.445,-1.913 -4.445,-4.269 0,-2.355 1.992,-4.269 4.445,-4.269 z"
   id="path365"
   style="fill:#e6e6e6" />
      <path
   a:adobe-knockout="false"
   d="m 36.815,19.862 c 2.414,0 4.374,1.88 4.374,4.195 0,2.314 -1.96,4.195 -4.374,4.195 -2.413,0 -4.373,-1.88 -4.373,-4.195 0,-2.315 1.96,-4.195 4.373,-4.195 z"
   id="path366"
   style="fill:#e7e7e7" />
      <path
   a:adobe-knockout="false"
   d="m 36.79,19.904 c 2.374,0 4.3,1.847 4.3,4.121 0,2.273 -1.927,4.12 -4.3,4.12 -2.373,0 -4.3,-1.847 -4.3,-4.12 0,-2.274 1.927,-4.121 4.3,-4.121 z"
   id="path367"
   style="fill:#e8e8e8" />
      <path
   a:adobe-knockout="false"
   d="m 36.765,19.946 c 2.333,0 4.228,1.813 4.228,4.046 0,2.232 -1.895,4.046 -4.228,4.046 -2.333,0 -4.228,-1.813 -4.228,-4.046 10e-4,-2.232 1.896,-4.046 4.228,-4.046 z"
   id="path368"
   style="fill:#e9e9e9" />
      <path
   a:adobe-knockout="false"
   d="m 36.74,19.989 c 2.293,0 4.155,1.78 4.155,3.971 0,2.192 -1.862,3.972 -4.155,3.972 -2.293,0 -4.155,-1.78 -4.155,-3.972 0,-2.191 1.862,-3.971 4.155,-3.971 z"
   id="path369"
   style="fill:#eaeaea" />
      <path
   a:adobe-knockout="false"
   d="m 36.715,20.031 c 2.253,0 4.083,1.747 4.083,3.897 0,2.151 -1.83,3.897 -4.083,3.897 -2.253,0 -4.082,-1.747 -4.082,-3.897 0,-2.151 1.829,-3.897 4.082,-3.897 z"
   id="path370"
   style="fill:#ebebeb" />
      <path
   a:adobe-knockout="false"
   d="m 36.69,20.073 c 2.213,0 4.01,1.713 4.01,3.823 0,2.11 -1.797,3.823 -4.01,3.823 -2.213,0 -4.009,-1.713 -4.009,-3.823 0,-2.11 1.797,-3.823 4.009,-3.823 z"
   id="path371"
   style="fill:#ececec" />
      <path
   a:adobe-knockout="false"
   d="m 36.666,20.115 c 2.173,0 3.937,1.68 3.937,3.749 0,2.069 -1.764,3.749 -3.937,3.749 -2.173,0 -3.937,-1.68 -3.937,-3.749 0,-2.069 1.764,-3.749 3.937,-3.749 z"
   id="path372"
   style="fill:#ededed" />
      <path
   a:adobe-knockout="false"
   d="m 36.641,20.157 c 2.133,0 3.864,1.646 3.864,3.674 0,2.028 -1.731,3.674 -3.864,3.674 -2.133,0 -3.864,-1.646 -3.864,-3.674 0,-2.028 1.731,-3.674 3.864,-3.674 z"
   id="path373"
   style="fill:#eeeeee" />
      <path
   a:adobe-knockout="false"
   d="m 36.616,20.199 c 2.093,0 3.792,1.613 3.792,3.6 0,1.987 -1.699,3.6 -3.792,3.6 -2.093,0 -3.792,-1.613 -3.792,-3.6 0,-1.987 1.699,-3.6 3.792,-3.6 z"
   id="path374"
   style="fill:#efefef" />
      <path
   a:adobe-knockout="false"
   d="m 36.59,20.241 c 2.053,0 3.719,1.58 3.719,3.526 0,1.946 -1.666,3.525 -3.719,3.525 -2.052,0 -3.719,-1.58 -3.719,-3.525 10e-4,-1.947 1.667,-3.526 3.719,-3.526 z"
   id="path375"
   style="fill:#f0f0f0" />
      <path
   a:adobe-knockout="false"
   d="m 36.565,20.283 c 2.013,0 3.646,1.546 3.646,3.451 0,1.905 -1.633,3.451 -3.646,3.451 -2.012,0 -3.646,-1.546 -3.646,-3.451 0,-1.905 1.634,-3.451 3.646,-3.451 z"
   id="path376"
   style="fill:#f1f1f1" />
      <path
   a:adobe-knockout="false"
   d="m 36.541,20.325 c 1.973,0 3.574,1.513 3.574,3.377 0,1.864 -1.601,3.377 -3.574,3.377 -1.972,0 -3.573,-1.513 -3.573,-3.377 0,-1.864 1.6,-3.377 3.573,-3.377 z"
   id="path377"
   style="fill:#f2f2f2" />
      <path
   a:adobe-knockout="false"
   d="m 36.516,20.367 c 1.933,0 3.501,1.479 3.501,3.302 0,1.823 -1.569,3.302 -3.501,3.302 -1.932,0 -3.501,-1.479 -3.501,-3.302 0,-1.823 1.568,-3.302 3.501,-3.302 z"
   id="path378"
   style="fill:#f3f3f3" />
      <path
   a:adobe-knockout="false"
   d="m 36.491,20.409 c 1.893,0 3.429,1.446 3.429,3.228 0,1.782 -1.536,3.228 -3.429,3.228 -1.893,0 -3.428,-1.446 -3.428,-3.228 -0.001,-1.782 1.535,-3.228 3.428,-3.228 z"
   id="path379"
   style="fill:#f4f4f4" />
      <path
   a:adobe-knockout="false"
   d="m 36.466,20.451 c 1.853,0 3.356,1.413 3.356,3.154 0,1.741 -1.503,3.153 -3.356,3.153 -1.853,0 -3.356,-1.413 -3.356,-3.153 0,-1.741 1.503,-3.154 3.356,-3.154 z"
   id="path380"
   style="fill:#f5f5f5" />
      <path
   a:adobe-knockout="false"
   d="m 36.441,20.493 c 1.812,0 3.283,1.379 3.283,3.079 0,1.7 -1.471,3.08 -3.283,3.08 -1.812,0 -3.283,-1.379 -3.283,-3.08 0,-1.699 1.47,-3.079 3.283,-3.079 z"
   id="path381"
   style="fill:#f6f6f6" />
      <path
   a:adobe-knockout="false"
   d="m 36.416,20.535 c 1.772,0 3.21,1.346 3.21,3.005 0,1.659 -1.438,3.005 -3.21,3.005 -1.772,0 -3.21,-1.346 -3.21,-3.005 0,-1.659 1.438,-3.005 3.21,-3.005 z"
   id="path382"
   style="fill:#f7f7f7" />
      <path
   a:adobe-knockout="false"
   d="m 36.391,20.577 c 1.732,0 3.138,1.313 3.138,2.931 0,1.618 -1.405,2.931 -3.138,2.931 -1.733,0 -3.138,-1.312 -3.138,-2.931 0,-1.618 1.406,-2.931 3.138,-2.931 z"
   id="path383"
   style="fill:#f8f8f8" />
      <path
   a:adobe-knockout="false"
   d="m 36.366,20.619 c 1.692,0 3.065,1.279 3.065,2.856 0,1.577 -1.373,2.856 -3.065,2.856 -1.692,0 -3.065,-1.279 -3.065,-2.856 0,-1.577 1.373,-2.856 3.065,-2.856 z"
   id="path384"
   style="fill:#f9f9f9" />
      <path
   a:adobe-knockout="false"
   d="m 36.341,20.661 c 1.652,0 2.992,1.246 2.992,2.782 0,1.536 -1.34,2.782 -2.992,2.782 -1.652,0 -2.993,-1.246 -2.993,-2.782 10e-4,-1.536 1.341,-2.782 2.993,-2.782 z"
   id="path385"
   style="fill:#fafafa" />
      <path
   a:adobe-knockout="false"
   d="m 36.316,20.704 c 1.612,0 2.92,1.212 2.92,2.708 0,1.495 -1.308,2.708 -2.92,2.708 -1.612,0 -2.92,-1.213 -2.92,-2.708 0,-1.496 1.308,-2.708 2.92,-2.708 z"
   id="path386"
   style="fill:#fbfbfb" />
      <path
   a:adobe-knockout="false"
   d="m 36.291,20.746 c 1.572,0 2.848,1.179 2.848,2.633 0,1.454 -1.275,2.633 -2.848,2.633 -1.573,0 -2.847,-1.179 -2.847,-2.633 0,-1.454 1.275,-2.633 2.847,-2.633 z"
   id="path387"
   style="fill:#fcfcfc" />
      <path
   a:adobe-knockout="false"
   d="m 36.266,20.788 c 1.532,0 2.775,1.146 2.775,2.559 0,1.413 -1.243,2.559 -2.775,2.559 -1.532,0 -2.774,-1.146 -2.774,-2.559 0,-1.413 1.242,-2.559 2.774,-2.559 z"
   id="path388"
   style="fill:#fdfdfd" />
      <path
   a:adobe-knockout="false"
   d="m 36.241,20.83 c 1.492,0 2.702,1.112 2.702,2.484 0,1.372 -1.21,2.484 -2.702,2.484 -1.492,0 -2.702,-1.112 -2.702,-2.484 0,-1.372 1.21,-2.484 2.702,-2.484 z"
   id="path389"
   style="fill:#fefefe" />
      <path
   a:adobe-knockout="false"
   d="m 33.587,23.282 c 0,-1.331 1.177,-2.41 2.629,-2.41 1.452,0 2.629,1.079 2.629,2.41 0,1.331 -1.177,2.41 -2.629,2.41 -1.452,0 -2.629,-1.079 -2.629,-2.41 z"
   id="path390"
   style="fill:#ffffff" />
    </g>
    <path
   d="m 63.484,14.928 c 0,8.231 6.695,14.928 14.926,14.928 8.232,0 14.93,-6.696 14.93,-14.928 C 93.34,6.697 86.643,0 78.41,0 70.18,0 63.484,6.697 63.484,14.928 z m 3,0 C 66.484,8.351 71.834,3 78.41,3 c 6.578,0 11.93,5.351 11.93,11.928 0,6.577 -5.352,11.928 -11.93,11.928 C 71.834,26.855 66.484,21.505 66.484,14.928 z"
   id="path391" />
    <g
   a:adobe-knockout="true"
   id="g392">
      <path
   a:adobe-knockout="false"
   d="M 66.484,14.928 C 66.484,8.351 71.834,3 78.41,3 c 6.578,0 11.93,5.351 11.93,11.928 0,6.577 -5.352,11.928 -11.93,11.928 C 71.834,26.855 66.484,21.505 66.484,14.928 z"
   id="path393"
   style="fill:#808080" />
      <path
   a:adobe-knockout="false"
   d="m 78.386,3.042 c 6.538,0 11.856,5.317 11.856,11.854 0,6.536 -5.318,11.853 -11.856,11.853 -6.536,0 -11.854,-5.317 -11.854,-11.853 C 66.531,8.359 71.85,3.042 78.386,3.042 z"
   id="path394"
   style="fill:#808080" />
      <path
   a:adobe-knockout="false"
   d="m 78.361,3.084 c 6.498,0 11.783,5.284 11.783,11.779 0,6.495 -5.285,11.779 -11.783,11.779 -6.497,0 -11.781,-5.284 -11.781,-11.779 0,-6.495 5.284,-11.779 11.781,-11.779 z"
   id="path395"
   style="fill:#818181" />
      <path
   a:adobe-knockout="false"
   d="m 78.336,3.126 c 6.457,0 11.711,5.25 11.711,11.704 0,6.455 -5.254,11.705 -11.711,11.705 -6.456,0 -11.709,-5.25 -11.709,-11.705 0,-6.454 5.253,-11.704 11.709,-11.704 z"
   id="path396"
   style="fill:#828282" />
      <path
   a:adobe-knockout="false"
   d="m 78.311,3.168 c 6.418,0 11.639,5.217 11.639,11.63 0,6.413 -5.221,11.63 -11.639,11.63 -6.416,0 -11.637,-5.217 -11.637,-11.63 0,-6.413 5.221,-11.63 11.637,-11.63 z"
   id="path397"
   style="fill:#838383" />
      <path
   a:adobe-knockout="false"
   d="m 78.285,3.21 c 6.379,0 11.566,5.184 11.566,11.556 0,6.372 -5.188,11.556 -11.566,11.556 -6.375,0 -11.562,-5.184 -11.562,-11.556 0,-6.372 5.187,-11.556 11.562,-11.556 z"
   id="path398"
   style="fill:#848484" />
      <path
   a:adobe-knockout="false"
   d="m 78.261,3.252 c 6.339,0 11.493,5.15 11.493,11.481 0,6.331 -5.154,11.482 -11.493,11.482 -6.335,0 -11.491,-5.15 -11.491,-11.481 0,-6.331 5.156,-11.482 11.491,-11.482 z"
   id="path399"
   style="fill:#858585" />
      <path
   a:adobe-knockout="false"
   d="m 78.236,3.294 c 6.297,0 11.42,5.117 11.42,11.408 0,6.29 -5.123,11.407 -11.42,11.407 -6.297,0 -11.418,-5.117 -11.418,-11.407 0,-6.291 5.121,-11.408 11.418,-11.408 z"
   id="path400"
   style="fill:#868686" />
      <path
   a:adobe-knockout="false"
   d="m 78.211,3.336 c 6.258,0 11.348,5.083 11.348,11.333 0,6.249 -5.09,11.333 -11.348,11.333 -6.256,0 -11.346,-5.084 -11.346,-11.333 0,-6.249 5.09,-11.333 11.346,-11.333 z"
   id="path401"
   style="fill:#878787" />
      <path
   a:adobe-knockout="false"
   d="m 78.186,3.378 c 6.219,0 11.275,5.05 11.275,11.259 0,6.208 -5.057,11.258 -11.275,11.258 -6.215,0 -11.272,-5.05 -11.272,-11.258 C 66.913,8.429 71.971,3.378 78.186,3.378 z"
   id="path402"
   style="fill:#888888" />
      <path
   a:adobe-knockout="false"
   d="m 78.161,3.42 c 6.178,0 11.202,5.017 11.202,11.185 0,6.167 -5.024,11.184 -11.202,11.184 -6.177,0 -11.2,-5.017 -11.2,-11.184 0,-6.167 5.023,-11.185 11.2,-11.185 z"
   id="path403"
   style="fill:#898989" />
      <path
   a:adobe-knockout="false"
   d="m 78.137,3.462 c 6.137,0 11.129,4.983 11.129,11.11 0,6.127 -4.992,11.11 -11.129,11.11 -6.137,0 -11.129,-4.984 -11.129,-11.11 0,-6.126 4.992,-11.11 11.129,-11.11 z"
   id="path404"
   style="fill:#8a8a8a" />
      <path
   a:adobe-knockout="false"
   d="m 78.111,3.504 c 6.098,0 11.057,4.951 11.057,11.036 0,6.085 -4.959,11.036 -11.057,11.036 -6.096,0 -11.055,-4.95 -11.055,-11.036 0.001,-6.085 4.96,-11.036 11.055,-11.036 z"
   id="path405"
   style="fill:#8b8b8b" />
      <path
   a:adobe-knockout="false"
   d="m 78.086,3.547 c 6.058,0 10.984,4.917 10.984,10.961 0,6.044 -4.927,10.961 -10.984,10.961 -6.056,0 -10.982,-4.917 -10.982,-10.961 0,-6.044 4.926,-10.961 10.982,-10.961 z"
   id="path406"
   style="fill:#8c8c8c" />
      <path
   a:adobe-knockout="false"
   d="m 78.061,3.589 c 6.018,0 10.912,4.883 10.912,10.887 0,6.003 -4.895,10.886 -10.912,10.886 -6.015,0 -10.909,-4.883 -10.909,-10.886 C 67.151,8.472 72.046,3.589 78.061,3.589 z"
   id="path407"
   style="fill:#8d8d8d" />
      <path
   a:adobe-knockout="false"
   d="m 78.036,3.631 c 5.978,0 10.839,4.85 10.839,10.812 0,5.963 -4.861,10.813 -10.839,10.813 -5.976,0 -10.837,-4.85 -10.837,-10.813 0,-5.962 4.862,-10.812 10.837,-10.812 z"
   id="path408"
   style="fill:#8e8e8e" />
      <path
   a:adobe-knockout="false"
   d="m 78.012,3.673 c 5.938,0 10.766,4.816 10.766,10.738 0,5.922 -4.828,10.738 -10.766,10.738 -5.936,0 -10.765,-4.816 -10.765,-10.738 0,-5.922 4.829,-10.738 10.765,-10.738 z"
   id="path409"
   style="fill:#8f8f8f" />
      <path
   a:adobe-knockout="false"
   d="m 77.986,3.715 c 5.897,0 10.693,4.783 10.693,10.664 0,5.881 -4.796,10.664 -10.693,10.664 -5.896,0 -10.691,-4.783 -10.691,-10.664 0,-5.881 4.796,-10.664 10.691,-10.664 z"
   id="path410"
   style="fill:#909090" />
      <path
   a:adobe-knockout="false"
   d="m 77.962,3.757 c 5.856,0 10.62,4.75 10.62,10.589 0,5.839 -4.764,10.589 -10.62,10.589 -5.856,0 -10.62,-4.75 -10.62,-10.589 0,-5.839 4.763,-10.589 10.62,-10.589 z"
   id="path411"
   style="fill:#919191" />
      <path
   a:adobe-knockout="false"
   d="m 77.937,3.799 c 5.817,0 10.548,4.716 10.548,10.514 0,5.799 -4.73,10.515 -10.548,10.515 -5.815,0 -10.547,-4.716 -10.547,-10.515 0,-5.797 4.731,-10.514 10.547,-10.514 z"
   id="path412"
   style="fill:#929292" />
      <path
   a:adobe-knockout="false"
   d="m 77.912,3.841 c 5.777,0 10.475,4.683 10.475,10.441 0,5.757 -4.697,10.44 -10.475,10.44 -5.775,0 -10.475,-4.683 -10.475,-10.44 0.001,-5.758 4.7,-10.441 10.475,-10.441 z"
   id="path413"
   style="fill:#939393" />
      <path
   a:adobe-knockout="false"
   d="m 77.887,3.883 c 5.736,0 10.403,4.65 10.403,10.367 0,5.717 -4.667,10.366 -10.403,10.366 -5.736,0 -10.401,-4.65 -10.401,-10.366 0,-5.716 4.664,-10.367 10.401,-10.367 z"
   id="path414"
   style="fill:#949494" />
      <path
   a:adobe-knockout="false"
   d="m 77.861,3.925 c 5.697,0 10.331,4.617 10.331,10.292 0,5.675 -4.634,10.292 -10.331,10.292 -5.695,0 -10.328,-4.616 -10.328,-10.292 0,-5.675 4.633,-10.292 10.328,-10.292 z"
   id="path415"
   style="fill:#959595" />
      <path
   a:adobe-knockout="false"
   d="m 77.837,3.967 c 5.657,0 10.258,4.583 10.258,10.218 0,5.635 -4.601,10.217 -10.258,10.217 -5.655,0 -10.257,-4.583 -10.257,-10.217 0,-5.634 4.602,-10.218 10.257,-10.218 z"
   id="path416"
   style="fill:#969696" />
      <path
   a:adobe-knockout="false"
   d="m 77.812,4.009 c 5.616,0 10.184,4.55 10.184,10.143 0,5.593 -4.567,10.144 -10.184,10.144 -5.617,0 -10.184,-4.55 -10.184,-10.144 0,-5.594 4.568,-10.143 10.184,-10.143 z"
   id="path417"
   style="fill:#979797" />
      <path
   a:adobe-knockout="false"
   d="m 77.787,4.051 c 5.577,0 10.111,4.517 10.111,10.069 0,5.552 -4.534,10.069 -10.111,10.069 -5.576,0 -10.111,-4.517 -10.111,-10.069 0,-5.552 4.535,-10.069 10.111,-10.069 z"
   id="path418"
   style="fill:#989898" />
      <path
   a:adobe-knockout="false"
   d="m 77.762,4.093 c 5.537,0 10.039,4.483 10.039,9.995 0,5.511 -4.502,9.994 -10.039,9.994 -5.535,0 -10.038,-4.483 -10.038,-9.994 0,-5.512 4.503,-9.995 10.038,-9.995 z"
   id="path419"
   style="fill:#999999" />
      <path
   a:adobe-knockout="false"
   d="m 77.736,4.135 c 5.498,0 9.968,4.449 9.968,9.92 0,5.471 -4.47,9.92 -9.968,9.92 -5.494,0 -9.965,-4.45 -9.965,-9.92 0,-5.47 4.471,-9.92 9.965,-9.92 z"
   id="path420"
   style="fill:#9a9a9a" />
      <path
   a:adobe-knockout="false"
   d="m 77.712,4.177 c 5.457,0 9.895,4.417 9.895,9.846 0,5.43 -4.438,9.846 -9.895,9.846 -5.455,0 -9.894,-4.416 -9.894,-9.846 0,-5.429 4.439,-9.846 9.894,-9.846 z"
   id="path421"
   style="fill:#9b9b9b" />
      <path
   a:adobe-knockout="false"
   d="m 77.688,4.22 c 5.416,0 9.821,4.382 9.821,9.771 0,5.389 -4.405,9.771 -9.821,9.771 -5.416,0 -9.82,-4.383 -9.82,-9.771 0,-5.388 4.403,-9.771 9.82,-9.771 z"
   id="path422"
   style="fill:#9c9c9c" />
      <path
   a:adobe-knockout="false"
   d="m 77.662,4.262 c 5.377,0 9.749,4.349 9.749,9.697 0,5.348 -4.372,9.697 -9.749,9.697 -5.375,0 -9.748,-4.35 -9.748,-9.697 0,-5.347 4.373,-9.697 9.748,-9.697 z"
   id="path423"
   style="fill:#9d9d9d" />
      <path
   a:adobe-knockout="false"
   d="m 77.637,4.304 c 5.337,0 9.677,4.316 9.677,9.622 0,5.307 -4.34,9.623 -9.677,9.623 -5.334,0 -9.674,-4.316 -9.674,-9.623 0,-5.306 4.34,-9.622 9.674,-9.622 z"
   id="path424"
   style="fill:#9e9e9e" />
      <path
   a:adobe-knockout="false"
   d="m 77.612,4.346 c 5.296,0 9.604,4.283 9.604,9.548 0,5.266 -4.309,9.549 -9.604,9.549 -5.295,0 -9.603,-4.283 -9.603,-9.549 0.001,-5.266 4.307,-9.548 9.603,-9.548 z"
   id="path425"
   style="fill:#9f9f9f" />
      <path
   a:adobe-knockout="false"
   d="m 77.588,4.387 c 5.256,0 9.531,4.25 9.531,9.475 0,5.225 -4.275,9.474 -9.531,9.474 -5.256,0 -9.531,-4.25 -9.531,-9.474 0,-5.225 4.275,-9.475 9.531,-9.475 z"
   id="path426"
   style="fill:#a0a0a0" />
      <path
   a:adobe-knockout="false"
   d="m 77.562,4.43 c 5.217,0 9.459,4.216 9.459,9.4 0,5.184 -4.242,9.399 -9.459,9.399 -5.215,0 -9.457,-4.216 -9.457,-9.399 0,-5.183 4.243,-9.4 9.457,-9.4 z"
   id="path427"
   style="fill:#a1a1a1" />
      <path
   a:adobe-knockout="false"
   d="m 77.537,4.472 c 5.177,0 9.387,4.183 9.387,9.326 0,5.143 -4.21,9.325 -9.387,9.325 -5.175,0 -9.385,-4.182 -9.385,-9.325 0,-5.144 4.21,-9.326 9.385,-9.326 z"
   id="path428"
   style="fill:#a2a2a2" />
      <path
   a:adobe-knockout="false"
   d="m 77.512,4.514 c 5.137,0 9.314,4.149 9.314,9.251 0,5.102 -4.178,9.251 -9.314,9.251 -5.135,0 -9.311,-4.149 -9.311,-9.251 0,-5.102 4.176,-9.251 9.311,-9.251 z"
   id="path429"
   style="fill:#a3a3a3" />
      <path
   a:adobe-knockout="false"
   d="m 77.487,4.556 c 5.097,0 9.241,4.116 9.241,9.177 0,5.061 -4.145,9.177 -9.241,9.177 -5.095,0 -9.239,-4.116 -9.239,-9.177 0,-5.061 4.145,-9.177 9.239,-9.177 z"
   id="path430"
   style="fill:#a4a4a4" />
      <path
   a:adobe-knockout="false"
   d="m 77.463,4.598 c 5.057,0 9.168,4.083 9.168,9.103 0,5.02 -4.111,9.102 -9.168,9.102 -5.055,0 -9.167,-4.083 -9.167,-9.102 0,-5.019 4.112,-9.103 9.167,-9.103 z"
   id="path431"
   style="fill:#a5a5a5" />
      <path
   a:adobe-knockout="false"
   d="m 77.438,4.64 c 5.016,0 9.096,4.049 9.096,9.028 0,4.979 -4.08,9.027 -9.096,9.027 -5.015,0 -9.094,-4.049 -9.094,-9.027 0,-4.979 4.079,-9.028 9.094,-9.028 z"
   id="path432"
   style="fill:#a6a6a6" />
      <path
   a:adobe-knockout="false"
   d="m 77.412,4.682 c 4.977,0 9.023,4.015 9.023,8.953 0,4.938 -4.047,8.954 -9.023,8.954 -4.975,0 -9.021,-4.016 -9.021,-8.954 0,-4.938 4.047,-8.953 9.021,-8.953 z"
   id="path433"
   style="fill:#a7a7a7" />
      <path
   a:adobe-knockout="false"
   d="m 77.388,4.724 c 4.937,0 8.95,3.982 8.95,8.879 0,4.897 -4.014,8.879 -8.95,8.879 -4.935,0 -8.948,-3.982 -8.948,-8.879 -0.001,-4.896 4.013,-8.879 8.948,-8.879 z"
   id="path434"
   style="fill:#a8a8a8" />
      <path
   a:adobe-knockout="false"
   d="m 77.362,4.766 c 4.896,0 8.878,3.949 8.878,8.805 0,4.855 -3.981,8.805 -8.878,8.805 -4.895,0 -8.876,-3.949 -8.876,-8.805 0,-4.856 3.982,-8.805 8.876,-8.805 z"
   id="path435"
   style="fill:#a9a9a9" />
      <path
   a:adobe-knockout="false"
   d="m 77.338,4.808 c 4.855,0 8.805,3.916 8.805,8.73 0,4.814 -3.949,8.73 -8.805,8.73 -4.856,0 -8.804,-3.916 -8.804,-8.73 0,-4.814 3.948,-8.73 8.804,-8.73 z"
   id="path436"
   style="fill:#aaaaaa" />
      <path
   a:adobe-knockout="false"
   d="m 77.312,4.851 c 4.816,0 8.732,3.882 8.732,8.655 0,4.774 -3.916,8.656 -8.732,8.656 -4.814,0 -8.73,-3.882 -8.73,-8.656 0,-4.774 3.916,-8.655 8.73,-8.655 z"
   id="path437"
   style="fill:#ababab" />
      <path
   a:adobe-knockout="false"
   d="m 77.287,4.892 c 4.777,0 8.66,3.849 8.66,8.582 0,4.732 -3.883,8.582 -8.66,8.582 -4.774,0 -8.657,-3.849 -8.657,-8.582 0,-4.733 3.883,-8.582 8.657,-8.582 z"
   id="path438"
   style="fill:#acacac" />
      <path
   a:adobe-knockout="false"
   d="m 77.263,4.934 c 4.736,0 8.587,3.815 8.587,8.508 0,4.692 -3.851,8.507 -8.587,8.507 -4.734,0 -8.585,-3.815 -8.585,-8.507 0,-4.692 3.85,-8.508 8.585,-8.508 z"
   id="path439"
   style="fill:#adadad" />
      <path
   a:adobe-knockout="false"
   d="m 77.238,4.976 c 4.695,0 8.514,3.783 8.514,8.434 0,4.651 -3.818,8.433 -8.514,8.433 -4.696,0 -8.514,-3.782 -8.514,-8.433 0,-4.651 3.819,-8.434 8.514,-8.434 z"
   id="path440"
   style="fill:#aeaeae" />
      <path
   a:adobe-knockout="false"
   d="m 77.213,5.018 c 4.656,0 8.441,3.749 8.441,8.359 0,4.61 -3.785,8.358 -8.441,8.358 -4.654,0 -8.44,-3.749 -8.44,-8.358 0,-4.609 3.786,-8.359 8.44,-8.359 z"
   id="path441"
   style="fill:#afafaf" />
      <path
   a:adobe-knockout="false"
   d="m 77.188,5.061 c 4.616,0 8.369,3.715 8.369,8.284 0,4.569 -3.753,8.284 -8.369,8.284 -4.614,0 -8.367,-3.715 -8.367,-8.284 0,-4.569 3.752,-8.284 8.367,-8.284 z"
   id="path442"
   style="fill:#b0b0b0" />
      <path
   a:adobe-knockout="false"
   d="m 77.163,5.103 c 4.575,0 8.296,3.682 8.296,8.21 0,4.528 -3.721,8.21 -8.296,8.21 -4.575,0 -8.295,-3.682 -8.295,-8.21 0,-4.528 3.72,-8.21 8.295,-8.21 z"
   id="path443"
   style="fill:#b1b1b1" />
      <path
   a:adobe-knockout="false"
   d="m 77.139,5.145 c 4.535,0 8.223,3.649 8.223,8.136 0,4.487 -3.688,8.135 -8.223,8.135 -4.535,0 -8.223,-3.648 -8.223,-8.135 0,-4.487 3.688,-8.136 8.223,-8.136 z"
   id="path444"
   style="fill:#b2b2b2" />
      <path
   a:adobe-knockout="false"
   d="m 77.113,5.187 c 4.496,0 8.15,3.615 8.15,8.061 0,4.446 -3.654,8.062 -8.15,8.062 -4.494,0 -8.15,-3.615 -8.15,-8.062 0,-4.446 3.656,-8.061 8.15,-8.061 z"
   id="path445"
   style="fill:#b3b3b3" />
      <path
   a:adobe-knockout="false"
   d="m 77.088,5.229 c 4.455,0 8.078,3.582 8.078,7.987 0,4.405 -3.623,7.987 -8.078,7.987 -4.454,0 -8.076,-3.582 -8.076,-7.987 0,-4.405 3.622,-7.987 8.076,-7.987 z"
   id="path446"
   style="fill:#b4b4b4" />
      <path
   a:adobe-knockout="false"
   d="m 77.063,5.271 c 4.415,0 8.005,3.548 8.005,7.912 0,4.364 -3.59,7.913 -8.005,7.913 -4.415,0 -8.005,-3.548 -8.005,-7.913 10e-4,-4.364 3.59,-7.912 8.005,-7.912 z"
   id="path447"
   style="fill:#b5b5b5" />
      <path
   a:adobe-knockout="false"
   d="m 77.039,5.313 c 4.375,0 7.932,3.515 7.932,7.838 0,4.323 -3.557,7.838 -7.932,7.838 -4.375,0 -7.933,-3.516 -7.933,-7.838 0,-4.323 3.558,-7.838 7.933,-7.838 z"
   id="path448"
   style="fill:#b6b6b6" />
      <path
   a:adobe-knockout="false"
   d="m 77.014,5.355 c 4.336,0 7.859,3.482 7.859,7.763 0,4.282 -3.523,7.764 -7.859,7.764 -4.335,0 -7.859,-3.482 -7.859,-7.764 -0.001,-4.281 3.524,-7.763 7.859,-7.763 z"
   id="path449"
   style="fill:#b7b7b7" />
      <path
   a:adobe-knockout="false"
   d="m 76.988,5.397 c 4.296,0 7.787,3.448 7.787,7.689 0,4.241 -3.491,7.689 -7.787,7.689 -4.295,0 -7.787,-3.448 -7.787,-7.689 0,-4.241 3.492,-7.689 7.787,-7.689 z"
   id="path450"
   style="fill:#b8b8b8" />
      <path
   a:adobe-knockout="false"
   d="m 76.963,5.438 c 4.256,0 7.715,3.416 7.715,7.616 0,4.2 -3.459,7.615 -7.715,7.615 -4.254,0 -7.713,-3.416 -7.713,-7.615 0,-4.2 3.459,-7.616 7.713,-7.616 z"
   id="path451"
   style="fill:#b9b9b9" />
      <path
   a:adobe-knockout="false"
   d="m 76.938,5.481 c 4.216,0 7.642,3.381 7.642,7.541 0,4.159 -3.426,7.541 -7.642,7.541 -4.214,0 -7.642,-3.382 -7.642,-7.541 10e-4,-4.16 3.429,-7.541 7.642,-7.541 z"
   id="path452"
   style="fill:#bababa" />
      <path
   a:adobe-knockout="false"
   d="m 76.914,5.523 c 4.175,0 7.568,3.349 7.568,7.466 0,4.118 -3.394,7.466 -7.568,7.466 -4.174,0 -7.568,-3.348 -7.568,-7.466 0,-4.117 3.393,-7.466 7.568,-7.466 z"
   id="path453"
   style="fill:#bbbbbb" />
      <path
   a:adobe-knockout="false"
   d="m 76.889,5.565 c 4.135,0 7.496,3.315 7.496,7.392 0,4.077 -3.361,7.392 -7.496,7.392 -4.135,0 -7.496,-3.315 -7.496,-7.392 0,-4.077 3.361,-7.392 7.496,-7.392 z"
   id="path454"
   style="fill:#bcbcbc" />
      <path
   a:adobe-knockout="false"
   d="m 76.863,5.607 c 4.096,0 7.425,3.282 7.425,7.318 0,4.036 -3.329,7.318 -7.425,7.318 -4.094,0 -7.424,-3.282 -7.424,-7.318 0,-4.036 3.331,-7.318 7.424,-7.318 z"
   id="path455"
   style="fill:#bdbdbd" />
      <path
   a:adobe-knockout="false"
   d="m 76.839,5.649 c 4.055,0 7.352,3.249 7.352,7.244 0,3.995 -3.297,7.243 -7.352,7.243 -4.054,0 -7.351,-3.249 -7.351,-7.243 0,-3.996 3.297,-7.244 7.351,-7.244 z"
   id="path456"
   style="fill:#bebebe" />
      <path
   a:adobe-knockout="false"
   d="m 76.814,5.691 c 4.014,0 7.278,3.215 7.278,7.169 0,3.954 -3.265,7.169 -7.278,7.169 -4.016,0 -7.279,-3.215 -7.279,-7.169 0,-3.954 3.264,-7.169 7.279,-7.169 z"
   id="path457"
   style="fill:#bfbfbf" />
      <path
   a:adobe-knockout="false"
   d="m 76.789,5.733 c 3.975,0 7.206,3.181 7.206,7.094 0,3.914 -3.231,7.095 -7.206,7.095 -3.975,0 -7.205,-3.181 -7.205,-7.095 0,-3.912 3.23,-7.094 7.205,-7.094 z"
   id="path458"
   style="fill:#c0c0c0" />
      <path
   a:adobe-knockout="false"
   d="m 76.764,5.775 c 3.936,0 7.134,3.148 7.134,7.02 0,3.872 -3.198,7.021 -7.134,7.021 -3.934,0 -7.133,-3.148 -7.133,-7.021 0,-3.873 3.199,-7.02 7.133,-7.02 z"
   id="path459"
   style="fill:#c1c1c1" />
      <path
   a:adobe-knockout="false"
   d="m 76.738,5.817 c 3.896,0 7.062,3.115 7.062,6.946 0,3.831 -3.166,6.946 -7.062,6.946 -3.894,0 -7.06,-3.115 -7.06,-6.946 0,-3.831 3.167,-6.946 7.06,-6.946 z"
   id="path460"
   style="fill:#c2c2c2" />
      <path
   a:adobe-knockout="false"
   d="m 76.714,5.859 c 3.854,0 6.988,3.081 6.988,6.872 0,3.79 -3.134,6.872 -6.988,6.872 -3.854,0 -6.987,-3.082 -6.987,-6.872 0,-3.791 3.132,-6.872 6.987,-6.872 z"
   id="path461"
   style="fill:#c3c3c3" />
      <path
   a:adobe-knockout="false"
   d="m 76.689,5.901 c 3.814,0 6.916,3.048 6.916,6.797 0,3.749 -3.102,6.797 -6.916,6.797 -3.814,0 -6.916,-3.048 -6.916,-6.797 0,-3.749 3.102,-6.797 6.916,-6.797 z"
   id="path462"
   style="fill:#c4c4c4" />
      <path
   a:adobe-knockout="false"
   d="m 76.664,5.943 c 3.775,0 6.844,3.015 6.844,6.723 0,3.708 -3.068,6.723 -6.844,6.723 -3.773,0 -6.842,-3.015 -6.842,-6.723 0,-3.708 3.069,-6.723 6.842,-6.723 z"
   id="path463"
   style="fill:#c5c5c5" />
      <path
   a:adobe-knockout="false"
   d="m 76.639,5.985 c 3.735,0 6.771,2.981 6.771,6.648 0,3.667 -3.036,6.648 -6.771,6.648 -3.733,0 -6.77,-2.981 -6.77,-6.648 0,-3.666 3.036,-6.648 6.77,-6.648 z"
   id="path464"
   style="fill:#c6c6c6" />
      <path
   a:adobe-knockout="false"
   d="m 76.613,6.028 c 3.695,0 6.699,2.948 6.699,6.574 0,3.626 -3.004,6.574 -6.699,6.574 -3.693,0 -6.696,-2.948 -6.696,-6.574 0,-3.626 3.003,-6.574 6.696,-6.574 z"
   id="path465"
   style="fill:#c7c7c7" />
      <path
   a:adobe-knockout="false"
   d="m 76.59,6.07 c 3.654,0 6.625,2.915 6.625,6.5 0,3.585 -2.971,6.5 -6.625,6.5 -3.654,0 -6.625,-2.915 -6.625,-6.5 0,-3.585 2.971,-6.5 6.625,-6.5 z"
   id="path466"
   style="fill:#c8c8c8" />
      <path
   a:adobe-knockout="false"
   d="m 76.564,6.111 c 3.615,0 6.553,2.881 6.553,6.426 0,3.545 -2.938,6.425 -6.553,6.425 -3.614,0 -6.553,-2.881 -6.553,-6.425 0,-3.544 2.939,-6.426 6.553,-6.426 z"
   id="path467"
   style="fill:#c9c9c9" />
      <path
   a:adobe-knockout="false"
   d="m 76.539,6.154 c 3.574,0 6.48,2.848 6.48,6.351 0,3.503 -2.906,6.351 -6.48,6.351 -3.574,0 -6.479,-2.848 -6.479,-6.351 0,-3.503 2.905,-6.351 6.479,-6.351 z"
   id="path468"
   style="fill:#cacaca" />
      <path
   a:adobe-knockout="false"
   d="m 76.514,6.196 c 3.535,0 6.408,2.814 6.408,6.277 0,3.462 -2.873,6.276 -6.408,6.276 -3.533,0 -6.406,-2.814 -6.406,-6.276 C 70.107,9.01 72.98,6.196 76.514,6.196 z"
   id="path469"
   style="fill:#cbcbcb" />
      <path
   a:adobe-knockout="false"
   d="m 76.489,6.238 c 3.495,0 6.335,2.781 6.335,6.202 0,3.421 -2.84,6.203 -6.335,6.203 -3.493,0 -6.334,-2.781 -6.334,-6.203 0,-3.422 2.841,-6.202 6.334,-6.202 z"
   id="path470"
   style="fill:#cccccc" />
      <path
   a:adobe-knockout="false"
   d="m 76.465,6.28 c 3.454,0 6.262,2.748 6.262,6.128 0,3.38 -2.808,6.128 -6.262,6.128 -3.454,0 -6.262,-2.748 -6.262,-6.128 0,-3.38 2.808,-6.128 6.262,-6.128 z"
   id="path471"
   style="fill:#cdcdcd" />
      <path
   a:adobe-knockout="false"
   d="m 76.439,6.322 c 3.414,0 6.189,2.714 6.189,6.054 0,3.34 -2.775,6.054 -6.189,6.054 -3.414,0 -6.188,-2.714 -6.188,-6.054 0,-3.34 2.774,-6.054 6.188,-6.054 z"
   id="path472"
   style="fill:#cecece" />
      <path
   a:adobe-knockout="false"
   d="m 76.414,6.364 c 3.375,0 6.117,2.681 6.117,5.979 0,3.298 -2.742,5.979 -6.117,5.979 -3.373,0 -6.115,-2.681 -6.115,-5.979 0,-3.298 2.742,-5.979 6.115,-5.979 z"
   id="path473"
   style="fill:#cfcfcf" />
      <path
   a:adobe-knockout="false"
   d="m 76.39,6.406 c 3.335,0 6.044,2.648 6.044,5.905 0,3.257 -2.709,5.905 -6.044,5.905 -3.334,0 -6.044,-2.647 -6.044,-5.905 0,-3.258 2.71,-5.905 6.044,-5.905 z"
   id="path474"
   style="fill:#d0d0d0" />
      <path
   a:adobe-knockout="false"
   d="m 76.365,6.448 c 3.293,0 5.971,2.614 5.971,5.831 0,3.216 -2.678,5.83 -5.971,5.83 -3.295,0 -5.971,-2.614 -5.971,-5.83 10e-4,-3.217 2.676,-5.831 5.971,-5.831 z"
   id="path475"
   style="fill:#d1d1d1" />
      <path
   a:adobe-knockout="false"
   d="m 76.34,6.49 c 3.254,0 5.898,2.581 5.898,5.756 0,3.176 -2.645,5.756 -5.898,5.756 -3.253,0 -5.898,-2.581 -5.898,-5.756 C 70.441,9.071 73.086,6.49 76.34,6.49 z"
   id="path476"
   style="fill:#d2d2d2" />
      <path
   a:adobe-knockout="false"
   d="m 76.314,6.532 c 3.215,0 5.826,2.547 5.826,5.682 0,3.135 -2.611,5.682 -5.826,5.682 -3.213,0 -5.825,-2.547 -5.825,-5.682 0,-3.134 2.613,-5.682 5.825,-5.682 z"
   id="path477"
   style="fill:#d3d3d3" />
      <path
   a:adobe-knockout="false"
   d="m 76.289,6.574 c 3.175,0 5.754,2.514 5.754,5.607 0,3.093 -2.579,5.607 -5.754,5.607 -3.173,0 -5.752,-2.514 -5.752,-5.607 0,-3.093 2.579,-5.607 5.752,-5.607 z"
   id="path478"
   style="fill:#d4d4d4" />
      <path
   a:adobe-knockout="false"
   d="m 76.265,6.616 c 3.134,0 5.681,2.481 5.681,5.533 0,3.052 -2.547,5.533 -5.681,5.533 -3.134,0 -5.68,-2.481 -5.68,-5.533 0,-3.052 2.546,-5.533 5.68,-5.533 z"
   id="path479"
   style="fill:#d5d5d5" />
      <path
   a:adobe-knockout="false"
   d="m 76.24,6.658 c 3.094,0 5.607,2.447 5.607,5.459 0,3.011 -2.514,5.458 -5.607,5.458 -3.093,0 -5.607,-2.447 -5.607,-5.458 0,-3.012 2.513,-5.459 5.607,-5.459 z"
   id="path480"
   style="fill:#d6d6d6" />
      <path
   a:adobe-knockout="false"
   d="m 76.215,6.7 c 3.055,0 5.535,2.414 5.535,5.385 0,2.97 -2.48,5.384 -5.535,5.384 -3.053,0 -5.535,-2.414 -5.535,-5.384 0,-2.971 2.482,-5.385 5.535,-5.385 z"
   id="path481"
   style="fill:#d7d7d7" />
      <path
   a:adobe-knockout="false"
   d="m 76.189,6.742 c 3.015,0 5.463,2.381 5.463,5.31 0,2.93 -2.448,5.311 -5.463,5.311 -3.014,0 -5.462,-2.381 -5.462,-5.311 10e-4,-2.929 2.449,-5.31 5.462,-5.31 z"
   id="path482"
   style="fill:#d8d8d8" />
      <path
   a:adobe-knockout="false"
   d="m 76.165,6.785 c 2.974,0 5.39,2.347 5.39,5.235 0,2.888 -2.416,5.236 -5.39,5.236 -2.974,0 -5.39,-2.347 -5.39,-5.236 0,-2.889 2.416,-5.235 5.39,-5.235 z"
   id="path483"
   style="fill:#d9d9d9" />
      <path
   a:adobe-knockout="false"
   d="m 76.141,6.827 c 2.934,0 5.316,2.313 5.316,5.161 0,2.848 -2.383,5.162 -5.316,5.162 -2.933,0 -5.317,-2.314 -5.317,-5.162 0,-2.848 2.383,-5.161 5.317,-5.161 z"
   id="path484"
   style="fill:#dadada" />
      <path
   a:adobe-knockout="false"
   d="m 76.115,6.869 c 2.894,0 5.244,2.28 5.244,5.087 0,2.807 -2.351,5.087 -5.244,5.087 -2.893,0 -5.244,-2.28 -5.244,-5.087 0,-2.807 2.351,-5.087 5.244,-5.087 z"
   id="path485"
   style="fill:#dbdbdb" />
      <path
   a:adobe-knockout="false"
   d="m 76.09,6.911 c 2.854,0 5.172,2.247 5.172,5.013 0,2.766 -2.318,5.013 -5.172,5.013 -2.854,0 -5.172,-2.247 -5.172,-5.013 0,-2.766 2.318,-5.013 5.172,-5.013 z"
   id="path486"
   style="fill:#dcdcdc" />
      <path
   a:adobe-knockout="false"
   d="m 76.065,6.953 c 2.813,0 5.099,2.214 5.099,4.938 0,2.724 -2.285,4.938 -5.099,4.938 -2.814,0 -5.099,-2.213 -5.099,-4.938 0,-2.725 2.286,-4.938 5.099,-4.938 z"
   id="path487"
   style="fill:#dddddd" />
      <path
   a:adobe-knockout="false"
   d="m 76.04,6.995 c 2.774,0 5.027,2.18 5.027,4.864 0,2.684 -2.253,4.864 -5.027,4.864 -2.772,0 -5.026,-2.181 -5.026,-4.864 0,-2.683 2.254,-4.864 5.026,-4.864 z"
   id="path488"
   style="fill:#dedede" />
      <path
   a:adobe-knockout="false"
   d="m 76.016,7.037 c 2.733,0 4.953,2.147 4.953,4.79 0,2.643 -2.22,4.79 -4.953,4.79 -2.733,0 -4.954,-2.147 -4.954,-4.79 0,-2.643 2.22,-4.79 4.954,-4.79 z"
   id="path489"
   style="fill:#dfdfdf" />
      <path
   a:adobe-knockout="false"
   d="m 75.99,7.079 c 2.693,0 4.882,2.114 4.882,4.715 0,2.601 -2.188,4.715 -4.882,4.715 -2.694,0 -4.881,-2.114 -4.881,-4.715 0,-2.601 2.188,-4.715 4.881,-4.715 z"
   id="path490"
   style="fill:#e0e0e0" />
      <path
   a:adobe-knockout="false"
   d="m 75.965,7.121 c 2.654,0 4.81,2.081 4.81,4.641 0,2.56 -2.155,4.641 -4.81,4.641 -2.652,0 -4.809,-2.08 -4.809,-4.641 0,-2.561 2.156,-4.641 4.809,-4.641 z"
   id="path491"
   style="fill:#e1e1e1" />
      <path
   a:adobe-knockout="false"
   d="m 75.94,7.163 c 2.613,0 4.736,2.047 4.736,4.566 0,2.519 -2.123,4.566 -4.736,4.566 -2.613,0 -4.735,-2.047 -4.735,-4.566 0,-2.519 2.122,-4.566 4.735,-4.566 z"
   id="path492"
   style="fill:#e2e2e2" />
      <path
   a:adobe-knockout="false"
   d="m 75.916,7.205 c 2.572,0 4.663,2.013 4.663,4.492 0,2.479 -2.091,4.492 -4.663,4.492 -2.574,0 -4.664,-2.014 -4.664,-4.492 0,-2.479 2.09,-4.492 4.664,-4.492 z"
   id="path493"
   style="fill:#e3e3e3" />
      <path
   a:adobe-knockout="false"
   d="m 75.891,7.247 c 2.533,0 4.591,1.98 4.591,4.418 0,2.438 -2.058,4.417 -4.591,4.417 -2.533,0 -4.591,-1.98 -4.591,-4.417 0,-2.438 2.057,-4.418 4.591,-4.418 z"
   id="path494"
   style="fill:#e4e4e4" />
      <path
   a:adobe-knockout="false"
   d="m 75.865,7.289 c 2.494,0 4.519,1.947 4.519,4.343 0,2.397 -2.024,4.344 -4.519,4.344 -2.492,0 -4.518,-1.947 -4.518,-4.344 0.001,-2.396 2.026,-4.343 4.518,-4.343 z"
   id="path495"
   style="fill:#e5e5e5" />
      <path
   a:adobe-knockout="false"
   d="m 75.841,7.331 c 2.453,0 4.445,1.914 4.445,4.269 0,2.356 -1.992,4.269 -4.445,4.269 -2.453,0 -4.445,-1.913 -4.445,-4.269 0,-2.355 1.992,-4.269 4.445,-4.269 z"
   id="path496"
   style="fill:#e6e6e6" />
      <path
   a:adobe-knockout="false"
   d="m 75.815,7.373 c 2.413,0 4.374,1.88 4.374,4.195 0,2.314 -1.961,4.195 -4.374,4.195 -2.413,0 -4.372,-1.88 -4.372,-4.195 0,-2.315 1.959,-4.195 4.372,-4.195 z"
   id="path497"
   style="fill:#e7e7e7" />
      <path
   a:adobe-knockout="false"
   d="m 75.791,7.415 c 2.373,0 4.3,1.847 4.3,4.121 0,2.273 -1.927,4.12 -4.3,4.12 -2.373,0 -4.301,-1.847 -4.301,-4.12 0,-2.274 1.928,-4.121 4.301,-4.121 z"
   id="path498"
   style="fill:#e8e8e8" />
      <path
   a:adobe-knockout="false"
   d="m 75.766,7.457 c 2.334,0 4.229,1.813 4.229,4.046 0,2.232 -1.895,4.046 -4.229,4.046 -2.332,0 -4.228,-1.813 -4.228,-4.046 0,-2.232 1.896,-4.046 4.228,-4.046 z"
   id="path499"
   style="fill:#e9e9e9" />
      <path
   a:adobe-knockout="false"
   d="m 75.74,7.5 c 2.293,0 4.156,1.78 4.156,3.971 0,2.192 -1.863,3.972 -4.156,3.972 -2.293,0 -4.154,-1.78 -4.154,-3.972 0,-2.192 1.861,-3.971 4.154,-3.971 z"
   id="path500"
   style="fill:#eaeaea" />
      <path
   a:adobe-knockout="false"
   d="m 75.716,7.542 c 2.253,0 4.083,1.747 4.083,3.897 0,2.151 -1.83,3.897 -4.083,3.897 -2.253,0 -4.082,-1.747 -4.082,-3.897 0,-2.151 1.829,-3.897 4.082,-3.897 z"
   id="path501"
   style="fill:#ebebeb" />
      <path
   a:adobe-knockout="false"
   d="m 75.691,7.583 c 2.213,0 4.01,1.713 4.01,3.823 0,2.11 -1.797,3.823 -4.01,3.823 -2.213,0 -4.01,-1.713 -4.01,-3.823 0,-2.11 1.798,-3.823 4.01,-3.823 z"
   id="path502"
   style="fill:#ececec" />
      <path
   a:adobe-knockout="false"
   d="m 75.666,7.625 c 2.173,0 3.938,1.68 3.938,3.749 0,2.069 -1.765,3.749 -3.938,3.749 -2.173,0 -3.938,-1.68 -3.938,-3.749 0,-2.069 1.765,-3.749 3.938,-3.749 z"
   id="path503"
   style="fill:#ededed" />
      <path
   a:adobe-knockout="false"
   d="m 75.641,7.667 c 2.133,0 3.865,1.646 3.865,3.674 0,2.028 -1.732,3.674 -3.865,3.674 -2.133,0 -3.863,-1.646 -3.863,-3.674 0,-2.028 1.73,-3.674 3.863,-3.674 z"
   id="path504"
   style="fill:#eeeeee" />
      <path
   a:adobe-knockout="false"
   d="m 75.616,7.709 c 2.093,0 3.792,1.613 3.792,3.6 0,1.987 -1.699,3.6 -3.792,3.6 -2.093,0 -3.792,-1.613 -3.792,-3.6 0,-1.987 1.699,-3.6 3.792,-3.6 z"
   id="path505"
   style="fill:#efefef" />
      <path
   a:adobe-knockout="false"
   d="m 75.591,7.751 c 2.054,0 3.72,1.58 3.72,3.526 0,1.946 -1.666,3.525 -3.72,3.525 -2.052,0 -3.719,-1.58 -3.719,-3.525 0,-1.946 1.667,-3.526 3.719,-3.526 z"
   id="path506"
   style="fill:#f0f0f0" />
      <path
   a:adobe-knockout="false"
   d="m 75.566,7.793 c 2.013,0 3.646,1.546 3.646,3.451 0,1.905 -1.634,3.451 -3.646,3.451 -2.012,0 -3.646,-1.546 -3.646,-3.451 0,-1.905 1.634,-3.451 3.646,-3.451 z"
   id="path507"
   style="fill:#f1f1f1" />
      <path
   a:adobe-knockout="false"
   d="m 75.541,7.835 c 1.973,0 3.574,1.513 3.574,3.377 0,1.864 -1.602,3.377 -3.574,3.377 -1.972,0 -3.573,-1.513 -3.573,-3.377 0,-1.864 1.6,-3.377 3.573,-3.377 z"
   id="path508"
   style="fill:#f2f2f2" />
      <path
   a:adobe-knockout="false"
   d="m 75.516,7.878 c 1.934,0 3.502,1.479 3.502,3.302 0,1.823 -1.568,3.302 -3.502,3.302 -1.932,0 -3.5,-1.479 -3.5,-3.302 0,-1.823 1.568,-3.302 3.5,-3.302 z"
   id="path509"
   style="fill:#f3f3f3" />
      <path
   a:adobe-knockout="false"
   d="m 75.491,7.92 c 1.893,0 3.429,1.446 3.429,3.228 0,1.782 -1.536,3.228 -3.429,3.228 -1.893,0 -3.429,-1.446 -3.429,-3.228 0,-1.782 1.537,-3.228 3.429,-3.228 z"
   id="path510"
   style="fill:#f4f4f4" />
      <path
   a:adobe-knockout="false"
   d="m 75.467,7.962 c 1.852,0 3.355,1.413 3.355,3.154 0,1.741 -1.504,3.153 -3.355,3.153 -1.854,0 -3.356,-1.413 -3.356,-3.153 -0.001,-1.741 1.502,-3.154 3.356,-3.154 z"
   id="path511"
   style="fill:#f5f5f5" />
      <path
   a:adobe-knockout="false"
   d="m 75.441,8.004 c 1.812,0 3.283,1.379 3.283,3.079 0,1.7 -1.471,3.08 -3.283,3.08 -1.812,0 -3.283,-1.379 -3.283,-3.08 0,-1.7 1.471,-3.079 3.283,-3.079 z"
   id="path512"
   style="fill:#f6f6f6" />
      <path
   a:adobe-knockout="false"
   d="m 75.416,8.046 c 1.773,0 3.211,1.346 3.211,3.005 0,1.659 -1.438,3.005 -3.211,3.005 -1.771,0 -3.21,-1.346 -3.21,-3.005 0,-1.659 1.439,-3.005 3.21,-3.005 z"
   id="path513"
   style="fill:#f7f7f7" />
      <path
   a:adobe-knockout="false"
   d="m 75.392,8.088 c 1.732,0 3.138,1.313 3.138,2.931 0,1.618 -1.405,2.931 -3.138,2.931 -1.733,0 -3.138,-1.312 -3.138,-2.931 0,-1.618 1.405,-2.931 3.138,-2.931 z"
   id="path514"
   style="fill:#f8f8f8" />
      <path
   a:adobe-knockout="false"
   d="m 75.367,8.13 c 1.691,0 3.064,1.279 3.064,2.856 0,1.577 -1.373,2.856 -3.064,2.856 -1.693,0 -3.066,-1.279 -3.066,-2.856 0,-1.577 1.373,-2.856 3.066,-2.856 z"
   id="path515"
   style="fill:#f9f9f9" />
      <path
   a:adobe-knockout="false"
   d="m 75.342,8.172 c 1.652,0 2.992,1.246 2.992,2.782 0,1.536 -1.34,2.782 -2.992,2.782 -1.652,0 -2.992,-1.246 -2.992,-2.782 0,-1.536 1.339,-2.782 2.992,-2.782 z"
   id="path516"
   style="fill:#fafafa" />
      <path
   a:adobe-knockout="false"
   d="m 75.316,8.214 c 1.612,0 2.92,1.212 2.92,2.708 0,1.495 -1.308,2.708 -2.92,2.708 -1.612,0 -2.92,-1.213 -2.92,-2.708 0,-1.495 1.308,-2.708 2.92,-2.708 z"
   id="path517"
   style="fill:#fbfbfb" />
      <path
   a:adobe-knockout="false"
   d="m 75.291,8.256 c 1.572,0 2.848,1.179 2.848,2.633 0,1.454 -1.275,2.633 -2.848,2.633 -1.573,0 -2.847,-1.179 -2.847,-2.633 0,-1.453 1.275,-2.633 2.847,-2.633 z"
   id="path518"
   style="fill:#fcfcfc" />
      <path
   a:adobe-knockout="false"
   d="m 75.267,8.298 c 1.532,0 2.774,1.146 2.774,2.559 0,1.413 -1.242,2.559 -2.774,2.559 -1.532,0 -2.774,-1.146 -2.774,-2.559 0,-1.413 1.241,-2.559 2.774,-2.559 z"
   id="path519"
   style="fill:#fdfdfd" />
      <path
   a:adobe-knockout="false"
   d="m 75.242,8.34 c 1.492,0 2.701,1.112 2.701,2.484 0,1.372 -1.209,2.484 -2.701,2.484 -1.492,0 -2.703,-1.112 -2.703,-2.484 0,-1.372 1.211,-2.484 2.703,-2.484 z"
   id="path520"
   style="fill:#fefefe" />
      <path
   a:adobe-knockout="false"
   d="m 72.588,10.792 c 0,-1.331 1.177,-2.41 2.629,-2.41 1.452,0 2.629,1.079 2.629,2.41 0,1.331 -1.177,2.41 -2.629,2.41 -1.452,0 -2.629,-1.078 -2.629,-2.41 z"
   id="path521"
   style="fill:#ffffff" />
    </g>
  </g>
<g
   id="g5913"
   transform="matrix(-0.92239847,0,0,0.92239847,293.65135,-26.36312)"><path
     transform="matrix(2.15,0,0,2.15,170.73083,20.501567)"
     d="m 44.648743,37.443905 c 0,2.817354 -8.072854,5.10127 -18.031224,5.10127 -9.958369,0 -18.0312229,-2.283916 -18.0312229,-5.10127 0,-2.817354 8.0728539,-5.10127 18.0312229,-5.10127 9.95837,0 18.031224,2.283916 18.031224,5.10127 z"
     sodipodi:ry="5.1012702"
     sodipodi:rx="18.031223"
     sodipodi:cy="37.443905"
     sodipodi:cx="26.617519"
     id="path3199"
     style="opacity:0.15384617;color:#000000;fill:url(#radialGradient5918);fill-opacity:1;fill-rule:evenodd;stroke:none;stroke-width:1;marker:none;visibility:visible;display:inline;overflow:visible"
     sodipodi:type="arc" /><path
     sodipodi:nodetypes="cscccsc"
     id="path1314"
     d="m 223.7683,29.503191 c -23.07292,0 -41.79062,14.933898 -41.79062,33.325 0,18.391104 18.73078,34.780212 46.13749,33.490617 1.77913,5.660252 8.29907,12.473912 19.15785,12.712552 -2.7951,-3.58059 -6.62262,-7.14742 -6.70784,-15.767232 14.6927,-5.166613 24.99375,-16.820292 24.99375,-30.435937 0,-18.391104 -18.7177,-33.325 -41.79063,-33.325 z"
     style="fill:url(#radialGradient5920);fill-opacity:1;stroke:#000000;stroke-width:2.1500001;stroke-linecap:butt;stroke-linejoin:miter;stroke-miterlimit:10;stroke-opacity:1;stroke-dasharray:none;stroke-dashoffset:0" /><path
     sodipodi:nodetypes="cscccsc"
     id="path1318"
     d="m 223.63393,31.586003 c -21.97689,0 -39.84219,13.951834 -39.84219,31.175 0,17.223169 20.54167,34.147909 46.21491,31.177611 -0.0131,5.710537 7.77243,11.784056 12.30632,12.279246 -2.2395,-3.24013 -3.78075,-8.294836 -3.96498,-14.499044 14.66779,-4.60143 25.06094,-15.82564 25.06094,-28.957813 0,-17.223168 -17.79811,-31.174999 -39.775,-31.175 z"
     style="opacity:0.78021982;fill:none;stroke:#ffffff;stroke-width:2.1500001;stroke-linecap:round;stroke-linejoin:miter;stroke-miterlimit:4;stroke-opacity:1;stroke-dasharray:none;stroke-dashoffset:0" /></g></svg>