<?xml version="1.0" encoding="UTF-8" standalone="no"?>
<svg
   xmlns:dc="http://purl.org/dc/elements/1.1/"
   xmlns:cc="http://creativecommons.org/ns#"
   xmlns:rdf="http://www.w3.org/1999/02/22-rdf-syntax-ns#"
   xmlns:svg="http://www.w3.org/2000/svg"
   xmlns="http://www.w3.org/2000/svg"
   xmlns:sodipodi="http://sodipodi.sourceforge.net/DTD/sodipodi-0.dtd"
   xmlns:inkscape="http://www.inkscape.org/namespaces/inkscape"
   version="1.1"
   width="64"
   height="64"
   color-interpolation="linearRGB"
   id="svg2"
   inkscape:version="0.91 r13725"
   sodipodi:docname="playlist-browser.svg">
  <metadata
     id="metadata55">
    <rdf:RDF>
      <cc:Work
         rdf:about="">
        <dc:format>image/svg+xml</dc:format>
        <dc:type
           rdf:resource="http://purl.org/dc/dcmitype/StillImage" />
        <dc:title></dc:title>
      </cc:Work>
    </rdf:RDF>
  </metadata>
  <defs
     id="defs53">
    <linearGradient
       y2="26.57"
       x2="48.470001"
       y1="19.5"
       x1="41.400002"
       gradientUnits="userSpaceOnUse"
       id="gradient0-3">
      <stop
         id="stop8245"
         stop-color="#888888"
         offset="0" />
      <stop
         id="stop8247"
         stop-color="#ffffff"
         offset="0.25" />
      <stop
         id="stop8249"
         stop-color="#888888"
         offset="0.75" />
      <stop
         id="stop8251"
         stop-color="#888888"
         offset="1" />
    </linearGradient>
    <linearGradient
       y2="7.8400002"
       x2="130.73"
       y1="-37.060001"
       x1="105.74"
       gradientUnits="userSpaceOnUse"
       id="gradient1-6">
      <stop
         id="stop8258"
         stop-color="#e7e7e7"
         offset="0.3484" />
      <stop
         id="stop8260"
         stop-color="#fdfdfd"
         offset="0" />
      <stop
         id="stop8262"
         stop-color="#ffffff"
         offset="1" />
    </linearGradient>
    <radialGradient
       gradientTransform="matrix(0.3125,0,0,0.125,26,40)"
       r="64"
       cy="0"
       cx="0"
       gradientUnits="userSpaceOnUse"
       id="gradient2-7">
      <stop
         id="stop8267"
         stop-color="#ceceff"
         offset="0" />
      <stop
         id="stop8269"
         stop-color="#9898ff"
         offset="1" />
    </radialGradient>
    <linearGradient
       y2="-64"
       x2="64"
       y1="-64"
       x1="-10.5"
       gradientUnits="userSpaceOnUse"
       id="gradient3-5">
      <stop
         id="stop8276"
         stop-color="#6464ba"
         offset="0" />
      <stop
         id="stop8278"
         stop-color="#c7c7e0"
         offset="1" />
    </linearGradient>
    <linearGradient
       y2="-64"
       x2="52"
       y1="-64"
       x1="4"
       gradientUnits="userSpaceOnUse"
       id="gradient4-3">
      <stop
         id="stop8287"
         stop-color="#d1d1ea"
         offset="0" />
      <stop
         id="stop8289"
         stop-color="#4c4c76"
         offset="0.5909" />
      <stop
         id="stop8291"
         stop-color="#75759b"
         offset="1" />
    </linearGradient>
    <radialGradient
       id="gradient2-7-3"
       gradientUnits="userSpaceOnUse"
       cx="0"
       cy="0"
       r="64"
       gradientTransform="matrix(0.0701,0,0,-0.0701,20.8376,9.9224)">
      <stop
         offset="0"
         stop-color="#ffcb98"
         id="stop89" />
      <stop
         offset="1"
         stop-color="#ffcb98"
         id="stop91" />
    </radialGradient>
    <radialGradient
       id="gradient3-8"
       gradientUnits="userSpaceOnUse"
       cx="0"
       cy="0"
       r="64"
       gradientTransform="matrix(0.121,0,0,0.121,31.255,5.9534)">
      <stop
         offset="0"
         stop-color="#ffcb98"
         id="stop116" />
      <stop
         offset="0.498"
         stop-color="#ffcb98"
         id="stop118" />
      <stop
         offset="1"
         stop-color="#cb9866"
         id="stop120" />
    </radialGradient>
  </defs>
  <sodipodi:namedview
     pagecolor="#ffffff"
     bordercolor="#666666"
     borderopacity="1"
     objecttolerance="10"
     gridtolerance="10"
     guidetolerance="10"
     inkscape:pageopacity="0"
     inkscape:pageshadow="2"
     inkscape:window-width="1304"
     inkscape:window-height="890"
     id="namedview51"
     showgrid="false"
     inkscape:zoom="9.828125"
     inkscape:cx="32"
     inkscape:cy="32"
     inkscape:window-x="100"
     inkscape:window-y="143"
     inkscape:window-maximized="0"
     inkscape:current-layer="svg2" />
  <g
     id="g4"
     transform="matrix(0.98336983,0,0,0.98336983,0.52688653,0.00877088)">
    <path
       style="fill:#010101;fill-opacity:0.57250001"
       d="m 40,62 2,0 2,1 20,-28 -9,-6 -18,32 2,0 1,1 z"
       id="path6"
       inkscape:connector-curvature="0" />
    <path
       style="fill:none;stroke:#010101;stroke-width:4"
       d="m 2.62,38.87 c 0,0 8.33,5.39 16.38,11 8.44,5.88 16.75,10.88 16.75,10.88 L 58.12,34.37 26,17.37 2.62,38.87 Z"
       id="path8"
       inkscape:connector-curvature="0" />
    <radialGradient
       id="gradient0"
       gradientUnits="userSpaceOnUse"
       cx="0"
       cy="0"
       r="64"
       gradientTransform="matrix(0.2756,0.4683,-0.39,0.2295,31.3262,28.3883)">
      <stop
         offset="1"
         stop-color="#d8e2f3"
         id="stop11" />
      <stop
         offset="0.4886"
         stop-color="#6385c2"
         id="stop13" />
    </radialGradient>
    <path
       style="fill:url(#gradient0)"
       d="m 2.62,38.87 c 0,0 8.33,5.39 16.38,11 8.44,5.88 16.75,10.88 16.75,10.88 L 58.12,34.37 26,17.37 2.62,38.87 Z"
       id="path15"
       inkscape:connector-curvature="0" />
    <path
       style="fill:none;stroke:#010101;stroke-width:4"
       d="m 2.62,30.87 c 0,0 8.01,5.88 16.38,11 10,6.13 16.75,9.88 16.75,9.88 L 58.12,26.37 26,9.37 2.62,30.87 Z"
       id="path17"
       inkscape:connector-curvature="0" />
    <radialGradient
       id="gradient1"
       gradientUnits="userSpaceOnUse"
       cx="0"
       cy="0"
       r="64"
       gradientTransform="matrix(0.3055,0.4867,-0.3665,0.23,28.202,16.0601)">
      <stop
         offset="1"
         stop-color="#d8e4fa"
         id="stop20" />
      <stop
         offset="0.4886"
         stop-color="#7794c9"
         id="stop22" />
    </radialGradient>
    <path
       style="fill:url(#gradient1)"
       d="m 2.62,30.87 c 0,0 8.01,5.88 16.38,11 10,6.13 16.75,9.88 16.75,9.88 L 58.12,26.37 26,9.37 2.62,30.87 Z"
       id="path24"
       inkscape:connector-curvature="0" />
    <path
       style="fill:none;stroke:#010101;stroke-width:4"
       d="m 2.62,22.87 c 0,0 7.85,6.15 16.38,11 9,5.13 16.75,8.88 16.75,8.88 L 58.12,18.37 c 0,0 -12.68,-4.67 -22.75,-10 C 30.18,5.62 26,3 26,3 L 2.62,22.87 Z"
       id="path26"
       inkscape:connector-curvature="0" />
    <linearGradient
       id="gradient2"
       gradientUnits="userSpaceOnUse"
       x1="107.04"
       y1="-25.09"
       x2="118.33"
       y2="19.99">
      <stop
         offset="0"
         stop-color="#a5c5ff"
         id="stop29" />
      <stop
         offset="0.7424"
         stop-color="#eaf2ff"
         id="stop31" />
      <stop
         offset="1"
         stop-color="#d5e3ff"
         id="stop33" />
    </linearGradient>
    <path
       style="fill:url(#gradient2)"
       d="m 2.62,22.87 c 0,0 7.85,6.15 16.38,11 9,5.13 16.75,8.88 16.75,8.88 L 58.12,18.37 c 0,0 -12.68,-4.67 -22.75,-10 C 30.18,5.62 26,3 26,3 L 2.62,22.87 Z"
       id="path35"
       inkscape:connector-curvature="0" />
    <radialGradient
       id="gradient3"
       gradientUnits="userSpaceOnUse"
       cx="0"
       cy="0"
       r="64"
       gradientTransform="matrix(0.1558,-0.1915,0.4544,0.3697,26.8803,19.4956)">
      <stop
         offset="0"
         stop-color="#485c85"
         id="stop38" />
      <stop
         offset="1"
         stop-color="#bbcff7"
         id="stop40" />
    </radialGradient>
    <path
       style="fill:none;stroke:url(#gradient3);stroke-width:1"
       d="M 32,41 52,19 M 27,37 46,16 M 21,33 41,13 M 16,29 35,10 M 10,25 30,5"
       id="path42"
       inkscape:connector-curvature="0" />
    <linearGradient
       id="gradient4"
       gradientUnits="userSpaceOnUse"
       x1="-16.879999"
       y1="12.97"
       x2="2.3199999"
       y2="-12.12">
      <stop
         offset="0"
         stop-color="#010101"
         id="stop45" />
      <stop
         offset="1"
         stop-color="#272727"
         id="stop47" />
    </linearGradient>
    <path
       style="fill:url(#gradient4)"
       d="m 27,42 c 4.16,2.77 10,-6 6,-9 C 29,30 22,28 22,28 L 30.87,20.62 43,28 c -3,1 -5,7 -2,9 4.16,2.77 10,-6 6,-9 C 43,25 27,16 27,16 l -13,10 15,7 c -3,1 -5,7 -2,9 z"
       transform="translate(0,-8)"
       id="path49"
       inkscape:connector-curvature="0" />
  </g>
  <g
     style="color-interpolation:linearRGB"
     id="g6818"
     transform="matrix(0.71388625,0,0,0.71388625,22.047243,4.8250808)">
    <g
       id="g6860">
      <path
         inkscape:connector-curvature="0"
         id="path36-2"
         d="m 20.94,41.88 c -4.38,2.2 -18.6,9.89 -18.14,16.13 0.11,1.45 0.96,2.63 2.38,3.35 l 0.99,0.38 c 6.41,2.01 21.16,-2.7 32.41,-8.38 4.38,-2.21 18.6,-9.89 18.13,-16.14 -0.11,-1.44 -0.95,-2.63 -2.38,-3.34 L 53.35,33.5 c -6.41,-2.01 -21.16,2.69 -32.41,8.38 z"
         style="fill:#000000" />
      <path
         inkscape:connector-curvature="0"
         id="path38"
         d="m 22.92,42.87 c -4.38,2.2 -18.6,9.9 -18.13,16.13 0.11,1.45 0.95,2.63 2.38,3.35 l 0.99,0.39 c 6.4,2 21.15,-2.71 32.4,-8.39 4.38,-2.21 18.6,-9.89 18.14,-16.13 -0.11,-1.44 -0.95,-2.63 -2.38,-3.34 l -0.99,-0.39 c -6.4,-2.01 -21.16,2.69 -32.41,8.38 z"
         style="fill:#000000;fill-opacity:0.32940004" />
      <path
         inkscape:connector-curvature="0"
         id="path40"
         d="M 54.74,37.37 C 54.68,36.65 54.26,36.06 53.45,35.65 53.24,35.55 53,35.47 52.75,35.39 47.72,33.81 34.29,37.35 21.83,43.65 11.2,49.01 4.54,54.74 4.78,57.87 c 0.06,0.71 0.47,1.3 1.29,1.71 0.21,0.1 0.44,0.19 0.7,0.27 5.03,1.58 18.45,-1.96 30.92,-8.26 C 48.32,46.22 54.97,40.5 54.74,37.37 Z"
         style="fill:#ffcb00" />
      <path
         inkscape:connector-curvature="0"
         id="path42-6"
         d="M 21.83,43.65 C 11.2,49.01 4.54,54.74 4.78,57.87 c 0.06,0.71 0.47,1.3 1.29,1.71 0.21,0.1 0.44,0.19 0.7,0.27 -0.04,-0.48 0.09,-1.03 0.37,-1.62 1.54,-3.26 7.69,-8.06 16.67,-12.6 10.85,-5.48 22.43,-8.87 28.57,-8.62 0.28,-0.59 0.41,-1.14 0.37,-1.62 -5.03,-1.58 -18.46,1.96 -30.92,8.26 z"
         style="fill:#ffff00" />
      <path
         inkscape:connector-curvature="0"
         id="path44"
         d="m 54.74,37.37 c -0.06,-0.72 -0.48,-1.31 -1.29,-1.72 -0.21,-0.1 -0.45,-0.18 -0.7,-0.26 0.04,0.48 -0.09,1.03 -0.37,1.62 C 50.84,40.27 44.69,45.06 35.7,49.6 24.86,55.08 13.28,58.48 7.14,58.23 6.86,58.82 6.73,59.37 6.77,59.85 11.8,61.43 25.23,57.89 37.69,51.59 48.32,46.22 54.97,40.5 54.74,37.37 Z"
         style="fill:#ff9800" />
      <path
         inkscape:connector-curvature="0"
         id="path46"
         d="m 27.77,49.44 -5.56,5.56 0.77,0 5.68,0.61 c 2.98,-1.15 6.03,-2.51 9.03,-4.02 1.02,-0.52 2,-1.04 2.94,-1.56 l -4.59,-0.59 -8.27,0 z"
         style="fill:#cb6600" />
      <path
         inkscape:connector-curvature="0"
         id="path48"
         d="m 48.44,41.66 -5.89,5.89 1.69,0.39 c 3.16,-1.96 5.72,-3.88 7.51,-5.61 l -3.31,-0.67 z"
         style="fill:#cb6600" />
      <path
         inkscape:connector-curvature="0"
         id="path50-3"
         d="m 16.45,2.55 -2.57,2.57 0,5.02 c 0,0 12.04,6.02 13.89,6.95 0,1.42 0,3.88 0,4.9 -1.03,1.03 -9.92,9.93 -9.92,9.93 0,0 0,12.43 0,13.88 -0.58,0.59 -1.98,1.99 -1.98,1.99 l 0,4.03 6.34,3.18 5.56,-5.56 c 0,0 0,-11.46 0,-12.91 0.54,-0.53 2.03,-2.03 3.97,-3.97 0,1.51 0,4.1 0,4.1 0,0 2.51,2.01 3.98,3.19 -0.14,0.14 -1.82,1.81 -1.82,1.81 l 3.11,3.12 5.54,2.77 5.89,-5.89 c 0,0 -5.83,-5.82 -6.78,-6.77 0,-1.13 0,-7.18 0,-10.86 3.32,1.66 10.32,5.16 10.32,5.16 l 3.57,-3.57 0,-5.03 c 0,0 -10.55,-5.27 -10.85,-5.43 -0.26,-0.19 -3.97,-2.97 -3.97,-2.97 L 32.44,8.04 c 0,0 -3.59,-0.9 -3.97,-1 C 28.09,6.86 17.46,1.54 17.46,1.54 l -1.01,1.01 z"
         style="fill:#000000" />
      <path
         inkscape:connector-curvature="0"
         id="path52"
         d="m 43.65,16.86 -3.97,-2.98 -7.94,-3.96 -3.97,-1 -9.92,-4.96 -1.98,1.99 0,2.97 13.89,6.95 0,6.94 -9.92,9.92 0,13.89 -1.99,1.99 0,1.98 3.97,1.99 3.97,-3.97 0,-12.9 7.94,-7.94 0,7.94 4.96,3.97 -1.99,1.98 1.49,1.49 3.97,1.99 3.47,-3.48 -5.95,-5.95 0,-14.88 11.9,5.95 1.99,-1.98 0,-2.98 -9.92,-4.96 z"
         style="fill:#800000" />
      <path
         inkscape:connector-curvature="0"
         id="path54"
         d="m 25.79,48.61 0,-12.9 2.48,-2.48 0,-2.98 -2.48,2.48 -1.98,1.99 0,13.89 -1.99,1.98 0,1.99 3.97,-3.97 z"
         style="fill:#cb9866" />
      <path
         inkscape:connector-curvature="0"
         id="path56"
         d="m 17.85,48.61 3.97,1.98 0,1.99 -3.97,-1.99 0,-1.98 z"
         style="fill:#ffcb98" />
      <path
         inkscape:connector-curvature="0"
         id="path58"
         d="m 17.85,48.61 1.99,-1.99 3.97,1.99 -1.99,1.98 -3.97,-1.98 z"
         style="fill:#ffe5cb" />
      <path
         inkscape:connector-curvature="0"
         id="path60"
         d="m 19.84,32.73 3.97,1.99 0,13.89 -3.97,-1.99 0,-13.89 z"
         style="fill:#ffcb98" />
      <path
         inkscape:connector-curvature="0"
         id="path62"
         d="m 19.84,32.73 4.46,-4.46 3.97,1.98 -4.46,4.47 -3.97,-1.99 z"
         style="fill:#ffe5cb" />
      <path
         inkscape:connector-curvature="0"
         id="path64"
         d="m 37.69,37.69 4.97,3.97 -3.97,-1.98 -4.96,-3.97 3.96,1.98 z"
         style="fill:#cb9866" />
      <path
         inkscape:connector-curvature="0"
         id="path66"
         d="m 36.7,41.66 1.99,-1.98 3.97,1.98 -1.99,1.99 -3.97,-1.99 z"
         style="fill:#ffcb98" />
      <path
         inkscape:connector-curvature="0"
         id="path68"
         d="m 38.19,43.15 -1.49,-1.49 3.97,1.99 1.49,1.49 -3.97,-1.99 z"
         style="fill:#cb9866" />
      <path
         inkscape:connector-curvature="0"
         id="path70-8"
         d="m 33.73,31.74 3.96,1.99 0,3.96 -3.96,-1.98 0,-3.97 z"
         style="fill:#ffcb98" />
      <path
         inkscape:connector-curvature="0"
         id="path72"
         d="m 39.68,35.71 0,-3.97 -1.99,1.99 0,3.96 4.97,3.97 -1.99,1.99 1.49,1.49 1.98,-1.99 1.49,-1.49 -5.95,-5.95 z"
         style="fill:#cb9866" />
      <path
         inkscape:connector-curvature="0"
         id="path74"
         d="m 37.69,26.78 1.99,-1.98 0,6.13 -1.99,1.99 0,-6.14 z"
         style="fill:#980000" />
      <path
         inkscape:connector-curvature="0"
         id="path76"
         d="m 33.73,24.8 3.96,1.98 0,6.14 -3.96,-1.99 0,-6.13 z"
         style="fill:#e03333" />
      <path
         inkscape:connector-curvature="0"
         id="path78"
         d="m 28.86,29.66 4.87,-4.86 0,2.97 -4.87,4.87 0,-2.98 z"
         style="fill:#980000" />
      <path
         inkscape:connector-curvature="0"
         id="path80"
         d="m 24.89,27.68 4.87,-4.87 3.97,1.99 -4.87,4.86 -3.97,-1.98 z"
         style="fill:#d80000" />
      <path
         inkscape:connector-curvature="0"
         id="path82"
         d="m 37.69,15.87 1.99,-1.99 0,10.92 -1.99,1.98 0,-10.91 z"
         style="fill:#980000" />
      <path
         inkscape:connector-curvature="0"
         id="path84"
         d="m 29.76,11.9 7.94,3.97 0,10.91 -7.94,-3.97 0,-10.91 z"
         style="fill:#e00000" />
      <path
         inkscape:connector-curvature="0"
         id="path86"
         d="m 37.69,15.87 1.99,-1.99 -7.94,-3.96 -1.98,1.98 7.93,3.97 z"
         style="fill:#ff3333" />
      <path
         inkscape:connector-curvature="0"
         id="path93"
         d="m 25.79,10.91 0,2.97 -9.92,-4.96 0,-2.97 9.92,4.96 z"
         style="fill:url(#gradient2-7-3)" />
      <path
         inkscape:connector-curvature="0"
         id="path95"
         d="m 25.79,10.91 1.98,-1.99 -9.92,-4.96 -1.98,1.99 9.92,4.96 z"
         style="fill:#ffe5cb" />
      <path
         inkscape:connector-curvature="0"
         id="path97"
         d="m 29.76,11.9 0,3.97 -3.29,-1.65 0,-3.15 3.29,0.83 z"
         style="fill:#e00000" />
      <path
         inkscape:connector-curvature="0"
         id="path99"
         d="m 29.76,11.9 1.98,-1.98 -3.28,-0.83 -1.99,1.98 3.29,0.83 z"
         style="fill:#ff3333" />
      <path
         inkscape:connector-curvature="0"
         id="path101"
         d="m 51.58,23.81 1.99,-1.99 0,2.98 -1.99,1.98 0,-2.97 z"
         style="fill:#cb9866" />
      <path
         inkscape:connector-curvature="0"
         id="path103"
         d="m 51.58,23.81 0,2.97 -9.92,-4.96 0,-2.98 9.92,4.97 z"
         style="fill:#ffcb98" />
      <path
         inkscape:connector-curvature="0"
         id="path105"
         d="m 51.58,23.81 1.99,-1.99 -9.92,-4.96 -1.99,1.98 9.92,4.97 z"
         style="fill:#ffe5cb" />
      <path
         inkscape:connector-curvature="0"
         id="path107"
         d="m 37.69,15.87 0,3.97 3.51,1.74 0,-3.08 -3.51,-2.63 z"
         style="fill:#e00000" />
      <path
         inkscape:connector-curvature="0"
         id="path109"
         d="m 37.69,15.87 1.99,-1.99 3.5,2.63 -1.98,1.99 -3.51,-2.63 z"
         style="fill:#ff3333" />
      <path
         inkscape:connector-curvature="0"
         id="path111"
         d="m 39.68,13.88 -1.67,-0.83 c -0.98,0.53 -2.09,0.83 -3.29,0.83 -0.42,0 -0.82,-0.04 -1.22,-0.11 -1.34,-0.24 -2.54,-0.86 -3.5,-1.75 0.05,0.06 0.1,0.12 0.16,0.18 1.3,1.3 3.16,2.14 5.14,2.46 1.85,0.32 3.82,0.17 5.54,-0.49 l -1.16,-0.29 z"
         style="fill:#980000" />
      <path
         inkscape:connector-curvature="0"
         id="path113"
         d="m 34.72,0 c 3.83,0 6.94,3.1 6.94,6.94 0,3.83 -3.11,6.94 -6.94,6.94 -3.83,0 -6.95,-3.11 -6.95,-6.94 C 27.77,3.1 30.89,0 34.72,0 Z"
         style="fill:#000000" />
      <path
         inkscape:connector-curvature="0"
         id="path122"
         d="m 37.69,5.95 c 0,0 -0.49,2.48 -0.99,2.48 0,0 -0.67,-1.8 -1.02,-1.77 -2.02,0.17 -4.14,-0.46 -5.5,-1.72 -0.27,0.6 -0.42,1.28 -0.42,2 0,2.73 2.22,4.96 4.96,4.96 1.63,0 3.07,-0.79 3.97,-2 0.32,-1.62 -0.5,-3.36 -1,-3.95 z"
         style="fill:url(#gradient3-8)" />
    </g>
  </g>
</svg>
