<?xml version="1.0" encoding="UTF-8" standalone="no"?>
<!-- Created with Sodipodi ("http://www.sodipodi.com/") -->

<svg
   xmlns:dc="http://purl.org/dc/elements/1.1/"
   xmlns:cc="http://creativecommons.org/ns#"
   xmlns:rdf="http://www.w3.org/1999/02/22-rdf-syntax-ns#"
   xmlns:svg="http://www.w3.org/2000/svg"
   xmlns="http://www.w3.org/2000/svg"
   xmlns:xlink="http://www.w3.org/1999/xlink"
   xmlns:sodipodi="http://sodipodi.sourceforge.net/DTD/sodipodi-0.dtd"
   xmlns:inkscape="http://www.inkscape.org/namespaces/inkscape"
   width="48pt"
   height="48pt"
   viewBox="0 0 50.678 51.383"
   overflow="visible"
   enable-background="new 0 0 50.678 51.383"
   xml:space="preserve"
   id="svg153"
   sodipodi:version="0.32pre"
   sodipodi:docname="poedit.svg"
   version="1.1"
   inkscape:version="0.91 r13725"><defs
     id="defs340"><linearGradient
       id="XMLID_7_"
       gradientUnits="userSpaceOnUse"
       x1="-195.5322"
       y1="376.2266"
       x2="-203.8642"
       y2="380.8235"
       gradientTransform="matrix(1 0 0 -1 233.1519 413.8262)"><stop
         offset="0"
         style="stop-color:#FFFFFF"
         id="stop248" /><stop
         offset="1"
         style="stop-color:#000000"
         id="stop249" /></linearGradient><linearGradient
       y2="153.6615"
       x2="-310.0333"
       y1="177.7949"
       x1="-324.7451"
       gradientTransform="matrix(0.4828,0.721,0.7677,-0.514,50.3329,346.1161)"
       gradientUnits="userSpaceOnUse"
       id="linearGradient3080"
       xlink:href="#XMLID_1_"
       inkscape:collect="always" /><linearGradient
       y2="153.6615"
       x2="-310.0333"
       y1="177.7949"
       x1="-324.7451"
       gradientTransform="matrix(0.4828,0.721,0.7677,-0.514,50.3329,346.1161)"
       gradientUnits="userSpaceOnUse"
       id="linearGradient3082"
       xlink:href="#XMLID_1_"
       inkscape:collect="always" /><linearGradient
       y2="231.1314"
       x2="-249.0802"
       y1="257.3594"
       x1="-265.0688"
       gradientTransform="matrix(0.702,0.51,0.543,-0.7475,71.8123,340.4085)"
       gradientUnits="userSpaceOnUse"
       id="linearGradient3084"
       xlink:href="#XMLID_3_"
       inkscape:collect="always" /><linearGradient
       y2="231.1314"
       x2="-249.0802"
       y1="257.3594"
       x1="-265.0688"
       gradientTransform="matrix(0.702,0.51,0.543,-0.7475,71.8123,340.4085)"
       gradientUnits="userSpaceOnUse"
       id="linearGradient3086"
       xlink:href="#XMLID_3_"
       inkscape:collect="always" /><linearGradient
       y2="153.6615"
       x2="-310.0333"
       y1="177.7949"
       x1="-324.7451"
       gradientTransform="matrix(0.4828,0.721,0.7677,-0.514,50.3329,346.1161)"
       gradientUnits="userSpaceOnUse"
       id="linearGradient3210"
       xlink:href="#XMLID_1_"
       inkscape:collect="always" /><linearGradient
       y2="153.6615"
       x2="-310.0333"
       y1="177.7949"
       x1="-324.7451"
       gradientTransform="matrix(0.4828,0.721,0.7677,-0.514,50.3329,346.1161)"
       gradientUnits="userSpaceOnUse"
       id="linearGradient3212"
       xlink:href="#XMLID_1_"
       inkscape:collect="always" /><linearGradient
       y2="231.1314"
       x2="-249.0802"
       y1="257.3594"
       x1="-265.0688"
       gradientTransform="matrix(0.702,0.51,0.543,-0.7475,71.8123,340.4085)"
       gradientUnits="userSpaceOnUse"
       id="linearGradient3214"
       xlink:href="#XMLID_3_"
       inkscape:collect="always" /><linearGradient
       y2="231.1314"
       x2="-249.0802"
       y1="257.3594"
       x1="-265.0688"
       gradientTransform="matrix(0.702,0.51,0.543,-0.7475,71.8123,340.4085)"
       gradientUnits="userSpaceOnUse"
       id="linearGradient3216"
       xlink:href="#XMLID_3_"
       inkscape:collect="always" /><linearGradient
       y2="383.89319"
       x2="-217.3597"
       y1="394.66699"
       x1="-206.58591"
       gradientTransform="matrix(1,0,0,-1,232.9102,407.9512)"
       gradientUnits="userSpaceOnUse"
       id="linearGradient3218"
       xlink:href="#XMLID_5_"
       inkscape:collect="always" /><linearGradient
       y2="378.02939"
       x2="-217.89751"
       y1="387.4473"
       x1="-207.7251"
       gradientTransform="matrix(1,0,0,-1,232.9102,407.9512)"
       gradientUnits="userSpaceOnUse"
       id="linearGradient3220"
       xlink:href="#XMLID_6_"
       inkscape:collect="always" /><linearGradient
       y2="375.52469"
       x2="-215.6445"
       y1="384.91309"
       x1="-205.50391"
       gradientTransform="matrix(1,0,0,-1,232.9102,407.9512)"
       gradientUnits="userSpaceOnUse"
       id="linearGradient3222"
       xlink:href="#XMLID_7_-2"
       inkscape:collect="always" /><linearGradient
       y2="376.46649"
       x2="-209.48"
       y1="383.29199"
       x1="-200.31931"
       gradientTransform="matrix(1,0,0,-1,232.9102,407.9512)"
       gradientUnits="userSpaceOnUse"
       id="linearGradient3224"
       xlink:href="#XMLID_8_"
       inkscape:collect="always" /><linearGradient
       y2="378.1304"
       x2="-201.84669"
       y1="382.28909"
       x1="-196.8564"
       gradientTransform="matrix(1,0,0,-1,232.9102,407.9512)"
       gradientUnits="userSpaceOnUse"
       id="linearGradient3226"
       xlink:href="#XMLID_9_"
       inkscape:collect="always" /><linearGradient
       y2="379.64801"
       x2="-206.6615"
       y1="383.4541"
       x1="-209.79539"
       gradientTransform="matrix(1,0,0,-1,232.9102,407.9512)"
       gradientUnits="userSpaceOnUse"
       id="linearGradient3228"
       xlink:href="#XMLID_10_"
       inkscape:collect="always" /><linearGradient
       y2="394.66669"
       x2="-203.2431"
       y1="393.5264"
       x1="-202.1787"
       gradientTransform="matrix(1,0,0,-1,232.9102,407.9512)"
       gradientUnits="userSpaceOnUse"
       id="linearGradient3230"
       xlink:href="#XMLID_11_"
       inkscape:collect="always" /><linearGradient
       y2="391.76599"
       x2="-201.3344"
       y1="390.5498"
       x1="-200.11819"
       gradientTransform="matrix(1,0,0,-1,232.9102,407.9512)"
       gradientUnits="userSpaceOnUse"
       id="linearGradient3232"
       xlink:href="#XMLID_12_"
       inkscape:collect="always" /><linearGradient
       y2="400.5466"
       x2="-188.93671"
       y1="405.5527"
       x1="-193.3008"
       gradientTransform="matrix(1,0,0,-1,232.9102,407.9512)"
       gradientUnits="userSpaceOnUse"
       id="linearGradient3234"
       xlink:href="#XMLID_13_"
       inkscape:collect="always" /><linearGradient
       y2="376.08051"
       x2="-201.166"
       y1="380.88089"
       x1="-201.166"
       gradientTransform="matrix(1,0,0,-1,232.9102,407.9512)"
       gradientUnits="userSpaceOnUse"
       id="linearGradient3236"
       xlink:href="#XMLID_14_"
       inkscape:collect="always" /><linearGradient
       y2="403.44559"
       x2="-185.8945"
       y1="403.82809"
       x1="-190.4854"
       gradientTransform="matrix(1,0,0,-1,232.9102,407.9512)"
       gradientUnits="userSpaceOnUse"
       id="linearGradient3238"
       xlink:href="#XMLID_15_"
       inkscape:collect="always" /><linearGradient
       gradientTransform="matrix(1,0,0,-1,232.9102,407.9512)"
       y2="378.02939"
       x2="-217.89751"
       y1="387.4473"
       x1="-207.7251"
       gradientUnits="userSpaceOnUse"
       id="XMLID_6_"><stop
         id="stop188"
         style="stop-color:#D8DAA1"
         offset="0" /><stop
         id="stop189"
         style="stop-color:#5C5C3A"
         offset="1" /></linearGradient><linearGradient
       gradientTransform="matrix(1,0,0,-1,232.9102,407.9512)"
       y2="375.52469"
       x2="-215.6445"
       y1="384.91309"
       x1="-205.50391"
       gradientUnits="userSpaceOnUse"
       id="XMLID_7_-2"><stop
         id="stop195"
         style="stop-color:#D8DAA1"
         offset="0" /><stop
         id="stop196"
         style="stop-color:#5C5C3A"
         offset="1" /></linearGradient><linearGradient
       gradientTransform="matrix(1,0,0,-1,232.9102,407.9512)"
       y2="376.46649"
       x2="-209.48"
       y1="383.29199"
       x1="-200.31931"
       gradientUnits="userSpaceOnUse"
       id="XMLID_8_"><stop
         id="stop202"
         style="stop-color:#D8DAA1"
         offset="0" /><stop
         id="stop203"
         style="stop-color:#5C5C3A"
         offset="1" /></linearGradient><linearGradient
       gradientTransform="matrix(1,0,0,-1,232.9102,407.9512)"
       y2="376.08051"
       x2="-201.166"
       y1="380.88089"
       x1="-201.166"
       gradientUnits="userSpaceOnUse"
       id="XMLID_14_"><stop
         id="stop287"
         style="stop-color:#FFFFFF"
         offset="0" /><stop
         id="stop288"
         style="stop-color:#000000"
         offset="1" /></linearGradient><linearGradient
       y2="376.46649"
       x2="-209.48"
       y1="383.29199"
       x1="-200.31931"
       gradientTransform="matrix(1,0,0,-1,180.97388,432.40371)"
       gradientUnits="userSpaceOnUse"
       id="linearGradient3310"
       xlink:href="#XMLID_8_"
       inkscape:collect="always" /><linearGradient
       y2="378.02939"
       x2="-217.89751"
       y1="387.4473"
       x1="-207.7251"
       gradientTransform="matrix(1,0,0,-1,195.32204,426.13902)"
       gradientUnits="userSpaceOnUse"
       id="linearGradient3316"
       xlink:href="#XMLID_6_"
       inkscape:collect="always" /><linearGradient
       y2="231.1314"
       x2="-249.0802"
       y1="257.3594"
       x1="-265.0688"
       gradientTransform="matrix(0.702,0.51,0.543,-0.7475,71.8123,340.4085)"
       gradientUnits="userSpaceOnUse"
       id="linearGradient3339"
       xlink:href="#XMLID_3_"
       inkscape:collect="always" /><linearGradient
       y2="231.1314"
       x2="-249.0802"
       y1="257.3594"
       x1="-265.0688"
       gradientTransform="matrix(0.702,0.51,0.543,-0.7475,71.8123,340.4085)"
       gradientUnits="userSpaceOnUse"
       id="linearGradient3341"
       xlink:href="#XMLID_3_"
       inkscape:collect="always" /><linearGradient
       y2="153.6615"
       x2="-310.0333"
       y1="177.7949"
       x1="-324.7451"
       gradientTransform="matrix(0.4828,0.721,0.7677,-0.514,50.3329,346.1161)"
       gradientUnits="userSpaceOnUse"
       id="linearGradient3343"
       xlink:href="#XMLID_1_"
       inkscape:collect="always" /><linearGradient
       y2="153.6615"
       x2="-310.0333"
       y1="177.7949"
       x1="-324.7451"
       gradientTransform="matrix(0.4828,0.721,0.7677,-0.514,50.3329,346.1161)"
       gradientUnits="userSpaceOnUse"
       id="linearGradient3345"
       xlink:href="#XMLID_1_"
       inkscape:collect="always" /><linearGradient
       y2="383.89319"
       x2="-217.3597"
       y1="394.66699"
       x1="-206.58591"
       gradientTransform="matrix(1,0,0,-1,232.9102,407.9512)"
       gradientUnits="userSpaceOnUse"
       id="linearGradient3347"
       xlink:href="#XMLID_5_"
       inkscape:collect="always" /><linearGradient
       y2="378.1304"
       x2="-201.84669"
       y1="382.28909"
       x1="-196.8564"
       gradientTransform="matrix(1,0,0,-1,232.9102,407.9512)"
       gradientUnits="userSpaceOnUse"
       id="linearGradient3349"
       xlink:href="#XMLID_9_"
       inkscape:collect="always" /></defs><sodipodi:namedview
     id="base"
     showgrid="false"
     inkscape:zoom="3.503125"
     inkscape:cx="-21.490681"
     inkscape:cy="38.428846"
     inkscape:window-width="1364"
     inkscape:window-height="708"
     inkscape:window-x="2"
     inkscape:window-y="30"
     inkscape:window-maximized="1"
     inkscape:current-layer="svg153" /><metadata
     id="metadata154"><sfw><slices /><sliceSourceBounds
         y="397.395"
         x="266.725"
         width="50.678"
         height="51.383"
         bottomLeftOrigin="true" /></sfw><rdf:RDF><cc:Work
         rdf:about=""><dc:format>image/svg+xml</dc:format><dc:type
           rdf:resource="http://purl.org/dc/dcmitype/StillImage" /><dc:title></dc:title></cc:Work></rdf:RDF></metadata><g
     opacity="0.2"
     id="g157"
     style="font-size:12;opacity:0.2;stroke:#000000;"><path
       stroke="none"
       d="M12.143,40.313c6.865-2.226,22.623-3.224,35.194-2.229c0.853,0.068,1.689,0.421,2.445,0.225      c1.19-0.31,1.19,7.291,0.029,7.208c-2.327,0.309-4.896,0.552-7.595,0.722c-0.044,0.367-7.173,5.144-7.173,5.144      s-9.716-5.011-12.563-5.236C9.907,45.151,5.279,42.54,12.143,40.313z"
       id="path158" /></g><g
     id="g159"
     style="font-size:12;stroke:#000000;"><path
       stroke="none"
       d="M0,22.836C0,10.225,10.225,0,22.837,0c12.612,0,22.835,10.225,22.835,22.836S35.449,45.673,22.837,45.673      C10.225,45.673,0,35.448,0,22.836z"
       id="path160" /></g><g
     id="g161"
     style="font-size:12;stroke:#000000;"><path
       fill="#59F0F0"
       stroke="none"
       d="M1.794,22.836c0-11.621,9.421-21.042,21.042-21.042c11.622,0,21.042,9.421,21.042,21.042      c0,11.622-9.42,21.042-21.042,21.042C11.215,43.879,1.794,34.458,1.794,22.836z"
       id="path162" /></g><g
     id="g163"
     style="font-size:12;stroke:#000000;"><g
       id="g164"><g
         id="g165"><path
           fill="#2F9E32"
           stroke="none"
           d="M29.464,42.591c0.258-1.094,0.837-3.409-0.193-3.603        c-1.03-0.192-2.96-0.322-3.539-0.965c-0.58-0.644-1.159-0.644-1.544-0.901c-0.386-0.258-0.965-1.094-0.386-1.866        c0.579-0.772,0.45-1.544-0.322-1.994c-0.772-0.452-1.223,0.128-1.866,0.192c-0.644,0.064-2.188-0.965-3.347-0.965        s-2.252,0-2.445-0.644c-0.708,0.45-4.955-0.322-4.762-1.609c-0.451-0.45-2.124-2.316-2.574-2.959        c0.064,0.514,0.45,1.608,0.836,1.93c-1.094-0.772-1.995-2.123-2.059-3.154c-0.515-0.451-1.802-2.83-1.608-3.539        c0.193-0.708,0.386-3.218,0.772-3.282S6.492,18.847,6.3,18.46c-0.193-0.386-0.322-1.03-0.322-1.352        c0-0.321,0.322-1.158,0-1.222c-0.322-0.064-1.03-0.515-0.579-0.515c0.45,0,0.837,0.258,0.837-0.193        c0-0.45-0.258-1.673-0.451-1.866c-0.192-0.193-0.128-0.129-0.514,0.128s-0.772,0.322-0.837,0.129s0.064-0.129,0.386-0.579        c0.322-0.451,1.094-1.738,1.352-2.188c0.257-0.45,0.193,0.129,1.029-0.836C8.037,9.001,8.488,8.1,8.488,9.001        c0,0.901,0.193,1.288,0.708,1.288s0.579-0.193,0.644,0.192c0.064,0.387,0.128,0.837,0.644,0.644        c0.515-0.192,0.965,0.064,1.223-0.192c0.257-0.259-0.193-0.516,0.128-0.58c0.323-0.064,0.451,0.515,0.58,0.064        c0.128-0.45-0.064-1.159,0.386-0.708s0.579,0.515,0.9,0.322c0.322-0.194,1.352-0.257,0.451,0.322        c-0.901,0.58-0.966,0.515-1.094,1.094c-0.128,0.579-0.193,0.386-0.515,1.03c-0.321,0.643-0.965,1.287-0.128,1.737        c0.836,0.451,1.93,0.579,1.93,0.579s0.901-0.708,0.772,0.063c-0.128,0.773-0.193,1.224,0.257,1.095        c0.451-0.129,1.224-0.064,0.708-0.644c-0.515-0.579-0.451-0.193-0.257-1.03c0.192-0.836,0.064-0.771-0.194-1.158        c-0.257-0.386-0.9-1.609-0.257-1.673c0.644-0.064,1.159-0.257,1.352,0.064c0.193,0.322,0.836,0.901,1.094,0.58        s-0.064-1.223,0.9-0.58c0.966,0.644-0.064,0.966,0.966,0.966c1.029,0,1.995-0.065,1.995,0.192c0,0.258-0.708,1.48-1.223,1.673        c-0.515,0.193-0.708-0.257-0.901,0.322c-0.193,0.579-0.837,1.802-0.45,1.351c0.385-0.45,1.029-1.416,1.093-0.837        c0.064,0.58,0,1.03,0.644,0.966c0.643-0.064,1.608-0.643,0.772,0.193c-0.837,0.836-0.901,1.416-0.837,0.836        c0.064-0.579,0.064-0.901-0.451-0.128c-0.514,0.772-0.643,1.351-0.386,1.351c0.257,0,0.257,0.193-0.064,0.386        c-0.322,0.193-0.515,1.094-0.708,1.608c-0.193,0.515-0.579,1.094-0.193,1.159c0.386,0.064,0.257,1.029,0.257,1.029        s-1.738,1.931-1.094,2.51c0.644,0.579,1.416,1.479,1.094,1.673c-0.322,0.192-1.094-1.03-1.287-1.223        c-0.192-0.192-2.123-0.451-2.252-0.128c-0.128,0.321,0.322,0.579,0,0.643c-0.321,0.064-1.48,0.323-1.93,0.579        c-0.45,0.257-0.579,1.094-0.515,1.416c0.064,0.322,0.386,3.088,1.866,2.766c1.48-0.32,1.608-0.449,1.351-1.093l1.159-0.45        c0,0-0.257,1.866,0.322,1.93c0.58,0.064,1.416-0.129,1.608-0.129c0.194,0,0.644,1.673,1.03,1.802s1.48,0,2.124-0.45        c0.643-0.449,0.965,0.579,1.029,0.064c0.064-0.514,0.771-1.608,1.415-1.866c0,0.45,0,0.901,0.387,0.772        c0.386-0.128,0.128-0.965,0.128-0.965s2.574,0.128,2.574-0.644c0,0,1.416-0.387,1.738,0.064        c0.192-0.45,0.514-0.064,1.029,0.064c0.515,0.128,0.837-0.322,1.545-0.644c0.707-0.321,2.252-0.064,2.445,0.45        c0.192,0.516,0.578,1.029,0.836,0.129l1.48-0.386c0,0,0.837-0.837,1.415-0.901c0.579-0.064,1.159-0.45,1.224-0.064        c0.063,0.385-0.193,1.93-0.579,2.251c-0.387,0.321-0.193,0.58-0.064,0.901c0.129,0.322-0.193,2.059-0.451,2.381        s0,0.386-0.515,0.836c-0.515,0.451-0.772,1.094-0.966,1.48c-0.191,0.386-0.514,1.479-1.028,1.931        c-0.515,0.45-0.837,0.965-0.837,0.965C34.805,39.825,32.939,42.076,29.464,42.591z"
           id="path166" /></g><g
         id="g167"><path
           fill="#2F9E32"
           stroke="none"
           d="M19.04,28.114c0.386-0.193,0.45-0.258,0.836-0.258s1.608,0.064,1.995,0.064        c0.387,0,0.515,0.385,0.128,0.45c-0.385,0.064-1.029-0.193-1.479-0.193C20.069,28.177,19.297,28.435,19.04,28.114z"
           id="path168" /></g><g
         id="g169"><path
           fill="#2F9E32"
           stroke="none"
           d="M23.416,27.92c0.193-0.322,1.029-0.514,1.416-0.322        c0.386,0.193-0.837,0.901-1.159,0.837C23.351,28.371,23.416,27.92,23.416,27.92z"
           id="path170" /></g><g
         id="g171"><path
           fill="#2F9E32"
           stroke="none"
           d="M22,13.635c0,0,0.193,0.579,0.064,0.836c-0.128,0.258,0.579-0.128,1.094-0.128        c0.514,0,0.192-0.193,0.064-0.579C23.093,13.377,22.386,13.635,22,13.635z"
           id="path172" /></g><g
         id="g173"><path
           fill="#2F9E32"
           stroke="none"
           d="M15.243,6.749c0.386-0.128,0.45-0.45,1.287,0c0.836,0.451,0.9,0.001,1.608,0.708        c0.708,0.708,1.93,1.93,3.475,1.351c-0.323-0.772-0.837-0.965-0.772-1.673c0.064-0.708,0.193-1.738,0.193-1.738l-0.644,0.258        L20.326,5.14c0,0-2.252-0.45-2.703-0.386c-0.45,0.063-0.45-0.258-0.772-0.258c-0.322,0-0.386,0.515-0.644,0.515        s-1.093-0.386-0.965,0.129c0.128,0.514,0.322,0.643,0.064,0.965C15.05,6.427,15.243,6.749,15.243,6.749z"
           id="path174" /></g><g
         id="g175"><path
           fill="#2F9E32"
           stroke="none"
           d="M13.828,8.679c0.257-0.386,0.515-0.643,0.579-0.386        c0.064,0.258,0.128,0.515,0.837,0.322c0.708-0.193,0.9-0.064,1.158,0.128c0.258,0.193,0.901,0.257,0.901,0.579        c0,0.321-0.257,0.515-0.515,0.257s-0.644-0.643-0.644-0.322c0,0.322,0.193,0.966,0.837,0.901        c0.644-0.064,0.836,0.322,0.322,0.322s-0.386,0.192-0.708,0.258c-0.322,0.063-0.644-0.387-0.966-0.258        c0,0,0.129-0.901-0.257-0.965s-0.515,0.128-0.515,0.128s0.064-0.321-0.258-0.45c-0.322-0.129-0.45,0.192-0.837,0.192        C13.377,9.387,13.055,8.293,13.828,8.679z"
           id="path176" /></g><g
         id="g177"><path
           fill="#2F9E32"
           stroke="none"
           d="M10.031,6.042c0,0,0.064,0.386,0.258,0.322c0.193-0.064,0.965-0.643,1.479-1.029        c0.515-0.387,0.966-0.773,0.901-0.966C12.605,4.175,10.609,5.462,10.031,6.042z"
           id="path178" /></g><g
         id="g179"><path
           fill="#2F9E32"
           stroke="none"
           d="M9.258,6.685C9.569,6.581,9.066,7.2,8.679,7.65C8.293,8.101,8.036,8.101,7.65,8.551        c-0.386,0.45-1.03,0.965-1.287,1.223c-0.257,0.257-0.772,0.642-0.772,0.642S8.679,6.878,9.258,6.685z"
           id="path180" /></g><g
         id="g181"><path
           fill="#2F9E32"
           stroke="none"
           d="M21.742,2.051c-0.064,0.387-0.386,0.58,0.128,0.58c0.515,0,2.574,0.064,3.089,0.579        c0.515,0.514,2.316,0.257,2.767-0.129c0.451-0.386-0.193-0.514-0.836-0.45c-0.644,0.064-1.223,0.064-1.609-0.128        c-0.386-0.193-0.837-0.322-0.837-0.579C23.608,1.859,22.128,1.859,21.742,2.051z"
           id="path182" /></g><g
         id="g183"><path
           fill="#2F9E32"
           stroke="none"
           d="M28.306,2.438c0,0,1.029,0.772,0.772,0.836s-0.9,0.064-0.9,0.064        s0.644,0.063,0.965,0.321c0.322,0.258,0.193,0.708,0.901,0.901c0.708,0.193,0.9,1.094,1.223,1.352        c0.322,0.257,0.065-0.322,0.579-0.192c0.515,0.128,1.866,0.965,1.48,1.093c-0.387,0.129-0.515,0.644,0.192,1.03        c0.709,0.386,1.48,0.708,1.673,1.158c0.322-0.515,0.451-1.352-0.128-1.673c-0.579-0.321-1.352-0.644-1.48-1.159        c-0.128-0.514-0.192-0.964-0.128-1.351C32.167,3.725,28.756,2.502,28.306,2.438z"
           id="path184" /></g><g
         id="g185"><path
           fill="#2F9E32"
           stroke="none"
           d="M35.899,6.363c0.129,0.515,0.516,2.316,0.129,2.574c-0.386,0.257,0,0.386,0.258,0.643        c0.257,0.257,0.321,0.128,0.707,0.708c0.387,0.58,0.708,1.03,0.708,1.802c0,0.773,0.515,1.48,0.773,1.93        c0.257,0.451,1.866,1.673,1.866,2.317c0,0.643-0.064,1.287,0.644,1.415c0.707,0.129,1.028,0.193,1.222,0.515        c0.193,0.322,0.772,0.322,1.094,0.387C42.914,15.887,41.241,10.61,35.899,6.363z"
           id="path186" /></g><g
         id="g187"><path
           fill="#2F9E32"
           stroke="none"
           d="M22.965,5.334v0.257l0.836,0.129V5.076l-1.094-0.192L22.965,5.334z"
           id="path188" /></g><g
         id="g189"><path
           fill="#2F9E32"
           stroke="none"
           d="M27.277,4.497c-0.322,0-0.065,0.322,0.321,0.387c0.387,0.064,0.708,0,1.223,0.064        c0.515,0.064,0.902,0.128,1.03,0.387c0.129,0.257,0.451,0.257,0.451,0c0-0.258,0.064-0.579-0.515-0.644        c-0.579-0.064-1.223-0.129-1.544-0.193S27.277,4.497,27.277,4.497z"
           id="path190" /></g><g
         id="g191"><path
           fill="#2F9E32"
           stroke="none"
           d="M28.5,5.527h0.772v0.642L28.5,5.527z"
           id="path192" /></g><g
         id="g193"><path
           fill="#2F9E32"
           stroke="none"
           d="M11.575,9.837c0,0-0.193,0.516-0.451,0.516s-0.708-0.579-0.257-0.772        C11.318,9.387,11.575,9.837,11.575,9.837z"
           id="path194" /></g><g
         id="g195"><path
           fill="#2F9E32"
           stroke="none"
           d="M10.609,9.13c-0.321,0.257-0.514,0.514-0.708,0.45        c-0.192-0.064,0.258-0.579,0.516-0.708C10.674,8.744,10.609,9.13,10.609,9.13z"
           id="path196" /></g><g
         id="g197"><path
           fill="#2F9E32"
           stroke="none"
           d="M11.061,8.358l0.386-0.129l0.515,0.579h0.451l-0.129,0.708h-0.258L11.061,8.358z"
           id="path198" /></g><g
         id="g199"><path
           fill="#2F9E32"
           stroke="none"
           d="M13.184,7.071c0.322-0.063,0.708-0.063,0.901-0.901        c0.192-0.835,0.515-0.514,0.386,0.065c-0.128,0.579-0.643,0.644-0.386,0.965c0.257,0.322,0.128,0.192-0.257,0.128        C13.441,7.264,13.184,7.392,13.184,7.071z"
           id="path200" /></g></g></g><g
     style="overflow:visible"
     id="g7644"
     transform="matrix(1.0100447,0,0,1.0100448,1.345148,2.8794697)"><g
       transform="matrix(1.5106849,0,0,1.5106849,-27.580574,-0.42325309)"
       id="g3351"><path
         d="m 28.211,20.829 -9.064,9.453 c -0.304,0.309 0.879,1.081 1.182,0.774 0,0 9.221,-9.851 8.94,-10.182 -0.282,-0.332 -0.755,-0.352 -1.058,-0.045 z"
         id="path200-9"
         style="fill:url(#linearGradient3222);stroke:none"
         inkscape:connector-curvature="0" /><g
         style="stroke:#000000"
         id="g220"><path
           d="M 47.534,1.691 47.425,1.589 C 46.622,0.765 45.702,0.314 44.761,0.103 43.413,-0.287 42.124,-0.002 41.282,0.764 41.226,0.8 37.287,4.726 37.287,4.726 37.283,4.728 22.315,20.011 22.315,20.011 l -0.142,0.146 -3.916,10.735 2.151,0.461 9.257,-4.008 15.034,-15.352 c -0.002,0.004 0.197,-0.197 0.219,-0.219 0.108,-0.092 0.24,-0.203 0.24,-0.203 0,-0.04 3.729,-4.04 3.729,-4.04 1.043,-1.57 0.498,-4.001 -1.353,-5.84 z"
           id="path221"
           inkscape:connector-curvature="0"
           style="stroke:none" /></g><g
         style="stroke:#000000"
         id="g222"><linearGradient
           id="XMLID_10_"
           gradientUnits="userSpaceOnUse"
           x1="-209.79539"
           y1="383.4541"
           x2="-206.6615"
           y2="379.64801"
           gradientTransform="matrix(1,0,0,-1,232.9102,407.9512)"><stop
             offset="0"
             style="stop-color:#FFFFFA"
             id="stop224" /><stop
             offset="1"
             style="stop-color:#F49333"
             id="stop225" /></linearGradient><path
           d="m 23.555,20.514 -3.476,8.401 0.617,0.945 8.576,-3.881 -1.636,-4.29 -4.081,-1.175 z"
           id="path229"
           style="fill:url(#linearGradient3228);stroke:none"
           inkscape:connector-curvature="0" /></g><path
         d="m 20.929,26.395 -1.195,2.521 0.875,1.461 2.122,-1.101 -1.342,-1.374 -0.46,-1.507 z"
         id="path230"
         inkscape:connector-curvature="0"
         style="stroke:none" /><g
         style="stroke:#000000"
         id="g231"><path
           d="M 43.556,11.394 29.271,25.979 26.487,25.425 23.976,23.12 23.554,20.513 37.839,5.928 l 0.417,2.608 2.515,2.305 2.785,0.553 z"
           id="path232"
           inkscape:connector-curvature="0"
           style="fill:#f49300;stroke:none" /></g><g
         style="stroke:#000000"
         id="g233"><linearGradient
           id="XMLID_11_"
           gradientUnits="userSpaceOnUse"
           x1="-202.1787"
           y1="393.5264"
           x2="-203.2431"
           y2="394.66669"
           gradientTransform="matrix(1,0,0,-1,232.9102,407.9512)"><stop
             offset="0"
             style="stop-color:#ECEB23"
             id="stop235" /><stop
             offset="1"
             style="stop-color:#F49333"
             id="stop236" /></linearGradient><path
           d="M 23.891,23.207 23.555,20.514 37.839,5.928 38.256,8.536 23.891,23.207 Z"
           id="path240"
           style="fill:url(#linearGradient3230);stroke:none"
           inkscape:connector-curvature="0" /></g><g
         style="stroke:#000000"
         id="g241"><linearGradient
           id="XMLID_12_"
           gradientUnits="userSpaceOnUse"
           x1="-200.11819"
           y1="390.5498"
           x2="-201.3344"
           y2="391.76599"
           gradientTransform="matrix(1,0,0,-1,232.9102,407.9512)"><stop
             offset="0"
             style="stop-color:#ECEB23"
             id="stop243" /><stop
             offset="1"
             style="stop-color:#FFFCF7"
             id="stop244" /></linearGradient><path
           d="M 26.487,25.426 23.971,23.122 38.256,8.536 40.771,10.84 26.487,25.426 Z"
           id="path248"
           style="fill:url(#linearGradient3232);stroke:none"
           inkscape:connector-curvature="0" /></g><path
         d="M 37.971,8.257 23.834,22.798 26.853,25.676 41.347,10.825 38.24,7.98 37.971,8.257 Z m 0.3,0.836 c 0.387,0.354 1.514,1.387 1.925,1.763 C 39.651,11.412 26.982,24.348 26.471,24.869 26.084,24.515 24.956,23.482 24.547,23.106 25.091,22.55 37.761,9.614 38.271,9.093 Z"
         id="path249"
         inkscape:connector-curvature="0"
         style="stroke:none" /><g
         style="stroke:#000000"
         id="g250"><linearGradient
           id="XMLID_13_"
           gradientUnits="userSpaceOnUse"
           x1="-193.3008"
           y1="405.5527"
           x2="-188.93671"
           y2="400.5466"
           gradientTransform="matrix(1,0,0,-1,232.9102,407.9512)"><stop
             offset="0.0279"
             style="stop-color:#FF9999"
             id="stop252" /><stop
             offset="0.1116"
             style="stop-color:#FF9F9F"
             id="stop253" /><stop
             offset="0.2238"
             style="stop-color:#FFB0B0"
             id="stop254" /><stop
             offset="0.3523"
             style="stop-color:#FFCCCC"
             id="stop255" /><stop
             offset="0.4918"
             style="stop-color:#FFF3F3"
             id="stop256" /><stop
             offset="0.5307"
             style="stop-color:#FFFFFF"
             id="stop257" /><stop
             offset="0.6016"
             style="stop-color:#FFE6E6"
             id="stop258" /><stop
             offset="0.7129"
             style="stop-color:#FFC5C5"
             id="stop259" /><stop
             offset="0.8192"
             style="stop-color:#FFACAC"
             id="stop260" /><stop
             offset="0.9175"
             style="stop-color:#FF9E9E"
             id="stop261" /><stop
             offset="1"
             style="stop-color:#FF9999"
             id="stop262" /></linearGradient><path
           d="M 46.624,2.644 C 46.587,2.607 46.549,2.575 46.511,2.539 45.806,1.814 45.107,1.454 44.473,1.317 43.518,1.031 42.615,1.143 42.048,1.713 42.042,1.718 42.038,1.725 42.032,1.731 41.963,1.772 41.925,1.8 41.925,1.8 l -4.152,4.197 0.075,2.18 2.858,2.733 2.784,0.553 4.152,-4.197 c 0,0 0.045,-0.086 0.101,-0.238 0.785,-1.055 0.321,-2.953 -1.119,-4.384 z"
           id="path284"
           style="fill:url(#linearGradient3234);stroke:none"
           inkscape:connector-curvature="0" /></g><path
         d="m 23.256,19.88 c -0.216,0.048 -0.352,0.262 -0.304,0.478 l 0.661,2.973 2.682,2.462 3.139,0.694 c 0.216,0.048 0.429,-0.089 0.477,-0.304 0.007,-0.029 0.009,-0.059 0.009,-0.088 0,-0.183 -0.126,-0.348 -0.313,-0.39 0,0 -2.733,-0.604 -2.929,-0.648 -0.143,-0.131 -2.172,-1.994 -2.338,-2.146 -0.05,-0.225 -0.607,-2.728 -0.607,-2.728 -0.048,-0.215 -0.262,-0.351 -0.477,-0.303 z"
         id="path285"
         inkscape:connector-curvature="0"
         style="stroke:none" /><path
         a:adobe-blending-mode="multiply"
         d="m 20.128,31.338 19.354,0 3.878,-3.749 -15.227,0.13 -8.005,3.619 z"
         id="path292"
         style="opacity:0.7;fill:url(#linearGradient3236);stroke:none"
         inkscape:connector-curvature="0" /><path
         d="m 37.88,4.815 c -1.242,1.25 -0.38,4.034 1.191,5.594 1.098,1.091 2.633,1.793 3.908,1.789 0.674,-0.002 1.231,-0.207 1.614,-0.592 0.155,-0.157 0.155,-0.41 -0.003,-0.565 -0.156,-0.156 -0.409,-0.155 -0.565,0.002 -0.29,0.292 -0.729,0.354 -1.048,0.355 C 41.918,11.401 40.575,10.776 39.634,9.841 38.233,8.449 37.594,6.199 38.406,5.381 38.562,5.225 38.6,4.968 38.444,4.813 38.289,4.657 38.035,4.658 37.88,4.815 Z"
         id="path293"
         inkscape:connector-curvature="0"
         style="stroke:none" /><g
         style="stroke:#000000"
         id="g294"><linearGradient
           id="XMLID_15_"
           gradientUnits="userSpaceOnUse"
           x1="-190.4854"
           y1="403.82809"
           x2="-185.8945"
           y2="403.44559"
           gradientTransform="matrix(1,0,0,-1,232.9102,407.9512)"><stop
             offset="0"
             style="stop-color:#FFFFFF"
             id="stop296" /><stop
             offset="0.2071"
             style="stop-color:#FFEFEF"
             id="stop297" /><stop
             offset="0.6077"
             style="stop-color:#FFC7C7"
             id="stop298" /><stop
             offset="1"
             style="stop-color:#FF9999"
             id="stop299" /></linearGradient><path
           d="M 43.262,6.016 C 41.754,4.513 41.283,2.541 42.209,1.612 c 0.927,-0.929 2.899,-0.464 4.407,1.04 1.508,1.503 1.979,3.475 1.053,4.404 -0.927,0.928 -2.899,0.463 -4.407,-1.04 z"
           id="path307"
           style="fill:url(#linearGradient3238);stroke:none"
           inkscape:connector-curvature="0" /></g><path
         d="m 41.521,1.176 c -0.387,0.389 -0.59,0.944 -0.588,1.607 0.004,1.22 0.708,2.705 1.793,3.784 1.104,1.097 2.626,1.803 3.878,1.799 C 47.265,8.364 47.815,8.16 48.196,7.777 48.351,7.62 48.351,7.367 48.194,7.212 48.037,7.057 47.785,7.057 47.629,7.214 47.341,7.504 46.912,7.565 46.603,7.567 45.569,7.57 44.238,6.941 43.291,6 42.363,5.078 41.737,3.784 41.734,2.782 41.733,2.471 41.735,1.976 42.031,1.679 c 0.156,-0.157 0.213,-0.348 0.057,-0.503 -0.157,-0.158 -0.411,-0.157 -0.567,0 z"
         id="path308"
         inkscape:connector-curvature="0"
         style="stroke:none" /></g></g></svg>