<?xml version="1.0" encoding="UTF-8" standalone="yes"?>
<svg version="1.1" width="64" height="64" color-interpolation="linearRGB"
     xmlns:svg="http://www.w3.org/2000/svg" xmlns="http://www.w3.org/2000/svg">
 <g>
  <path style="fill:#000000; fill-opacity:0.4039"
        d="M55.5 47L46 64H52C52 64 64 60 64 53C64 49 60 47 55.5 47z
           M18 52L14 56H24L32 60H38L44 54L26 44H18V52z"
  />
  <path style="fill:none; stroke:#000000; stroke-width:4"
        d="M18 51V36L24 39L30 33V22L29 21C29 21 30 16 32 15C31 14 30 13 30 11L28 10C25 10 22 10 22 10L18 6L15 5C14 2 12 6 12 6C12 6 10 4 8 2C7 4 6 7 2 8C4 10 4 16 4 16L2 17V28L12 33V51C12 55 18 55 18 51z"
  />
  <linearGradient id="gradient0" gradientUnits="userSpaceOnUse" x1="11.47" y1="25.53" x2="17.47" y2="25.53">
   <stop offset="0" stop-color="#d3a966"/>
   <stop offset="0.7819" stop-color="#84572a"/>
   <stop offset="1" stop-color="#ab7a4a"/>
  </linearGradient>
  <path style="fill:url(#gradient0)"
        d="M12 34V51C12 55 18 55 18 51V35C18 40 12 38 12 34z"
  />
  <linearGradient id="gradient1" gradientUnits="userSpaceOnUse" x1="11.47" y1="25.53" x2="17.47" y2="25.53">
   <stop offset="0" stop-color="#a97f57"/>
   <stop offset="1" stop-color="#673e16"/>
  </linearGradient>
  <path style="fill:url(#gradient1)"
        d="M12 28V34C12 38 18 40 18 35V28H12z"
  />
  <linearGradient id="gradient2" gradientUnits="userSpaceOnUse" x1="21.09" y1="4.39" x2="38.12" y2="26.66">
   <stop offset="0" stop-color="#e3ae62"/>
   <stop offset="1" stop-color="#be8b48"/>
  </linearGradient>
  <path style="fill:url(#gradient2)"
        d="M2 17V28L24 39V26L2 17z"
  />
  <linearGradient id="gradient3" gradientUnits="userSpaceOnUse" x1="26.1" y1="14.71" x2="34.89" y2="17.64">
   <stop offset="0" stop-color="#93663b"/>
   <stop offset="1" stop-color="#a77543"/>
  </linearGradient>
  <path style="fill:url(#gradient3)"
        d="M24 26V39L30 33V22L24 26z"
  />
  <linearGradient id="gradient4" gradientUnits="userSpaceOnUse" x1="2.62" y1="-72.37" x2="27.62" y2="-72.37">
   <stop offset="0" stop-color="#9c6d2a"/>
   <stop offset="1" stop-color="#6d400b"/>
  </linearGradient>
  <path style="fill:url(#gradient4)"
        d="M8 14L2 17L24 26L30 22L8 14z"
  />
  <linearGradient id="gradient5" gradientUnits="userSpaceOnUse" x1="20.87" y1="-32.47" x2="49.03" y2="-16.96">
   <stop offset="0" stop-color="#ebbf5f"/>
   <stop offset="1" stop-color="#e3b649"/>
  </linearGradient>
  <path style="fill:url(#gradient5)"
        d="M24 24L29 21C29 21 30 16 32 15C31 14 30 13 30 11L28 10C25 10 22 10 22 10L18 6L15 5C14 2 12 6 12 6C12 6 10 4 8 2C7 4 6 7 2 8C4 10 4 16 4 16L24 24z"
  />
  <linearGradient id="gradient6" gradientUnits="userSpaceOnUse" x1="4.12" y1="0.97" x2="26.74" y2="10.38">
   <stop offset="0" stop-color="#ffecb3"/>
   <stop offset="1" stop-color="#ffde90"/>
  </linearGradient>
  <path style="fill:url(#gradient6)"
        d="M3 8C6 11.89 6 16 6 16L10 18C11 13 10 10 3 8z
           M12 8C12.48 10.4 12 18 12 18L17 21C17 21 15 14 17 10C17 10 13.18 9.13 12 8z
           M22 23C22 20 23 16 24 14C24 14 21 13 19 10C19.46 12.73 16 17 18 22L22 23z
           M24 24C24 24 29 13 25 14C25 16 23 22 22 23L24 24z"
  />
  <path style="fill:none; stroke:#000000; stroke-width:4"
        d="M46 2C41.58 2 38 3.34 38 5V52C38 55.31 41.58 58 46 58L54 52V5C54 3.34 50.41 2 46 2z"
  />
  <path style="fill:#f8f8f8"
        d="M46 2C41.58 2 38 3.34 38 5C38 6.65 41.58 8 46 8C50.41 8 54 6.65 54 5C54 3.34 50.41 2 46 2z"
  />
  <linearGradient id="gradient7" gradientUnits="userSpaceOnUse" x1="40" y1="-64" x2="54" y2="-64">
   <stop offset="0" stop-color="#d9d9d9"/>
   <stop offset="1" stop-color="#adadad"/>
   <stop offset="0.8195" stop-color="#989898"/>
  </linearGradient>
  <path style="fill:url(#gradient7)"
        d="M46 8C41.58 8 38 6.65 38 5V43.51C44 46 46 58 46 58C50.41 58 54 55.31 54 52V5C54 6.65 50.41 8 46 8z"
  />
  <linearGradient id="gradient8" gradientUnits="userSpaceOnUse" x1="33" y1="-64" x2="47" y2="-64">
   <stop offset="0" stop-color="#dddddd"/>
   <stop offset="1" stop-color="#a7a7a7"/>
  </linearGradient>
  <path style="fill:url(#gradient8)"
        d="M38 43.51V52C38 55.31 41.58 58 46 58C46 58 44 46 38 43.51z"
  />
  <path style="fill:#000000"
        d="M46 4C44.89 4 44 4.44 44 5C44 5.55 44.89 6 46 6C47.1 6 48 5.55 48 5C48 4.44 47.1 4 46 4z"
  />
  <path style="fill:none; stroke:#000000; stroke-width:4; stroke-linejoin:round"
        d="M54 8C52 11 50.91 12.97 49 20C46 31 46 38 46 47V62C46 62 47 60 49 59C51 58 54 56 54 53V8z"
  />
  <linearGradient id="gradient9" gradientUnits="userSpaceOnUse" x1="46" y1="-64" x2="54" y2="-64">
   <stop offset="0" stop-color="#adadad"/>
   <stop offset="0.2857" stop-color="#868686"/>
   <stop offset="1" stop-color="#adadad"/>
   <stop offset="0.8496" stop-color="#999999"/>
  </linearGradient>
  <path style="fill:url(#gradient9)"
        d="M54 7C54 8.72 52.78 8.44 50.25 15.88C49.83 17.09 49.41 18.45 49 20C47.14 26.82 47.04 36.71 46.48 45.39C46.14 50.71 46 55.58 46 59V62C46 62 47 60 49 59C51 58 54 56 54 53V7z"
  />
  <linearGradient id="gradient10" gradientUnits="userSpaceOnUse" x1="50.35" y1="16.6" x2="58.59" y2="18.05">
   <stop offset="0" stop-color="#ffffff"/>
   <stop offset="1" stop-color="#a0a0a0"/>
  </linearGradient>
  <path style="fill:url(#gradient10)"
        d="M58 26C55 21 53 20 52 11C47 22 46 38 46 47C49 32 58 26 58 26z"
  />
  <path style="fill:#000000"
        d="M58 26C55 21 53 20 52 11C54 19 58 21 61 27C58 30 53 31 46 47C49 32 58 26 58 26z"
  />
 </g>
</svg>
