<?xml version="1.0" encoding="UTF-8" standalone="no"?>
<svg
   xmlns:dc="http://purl.org/dc/elements/1.1/"
   xmlns:cc="http://creativecommons.org/ns#"
   xmlns:rdf="http://www.w3.org/1999/02/22-rdf-syntax-ns#"
   xmlns:svg="http://www.w3.org/2000/svg"
   xmlns="http://www.w3.org/2000/svg"
   xmlns:xlink="http://www.w3.org/1999/xlink"
   xmlns:sodipodi="http://sodipodi.sourceforge.net/DTD/sodipodi-0.dtd"
   xmlns:inkscape="http://www.inkscape.org/namespaces/inkscape"
   version="1.1"
   width="64"
   height="64"
   color-interpolation="linearRGB"
   id="svg2"
   inkscape:version="0.91 r13725"
   sodipodi:docname="display-capplet.svg">
  <metadata
     id="metadata76">
    <rdf:RDF>
      <cc:Work
         rdf:about="">
        <dc:format>image/svg+xml</dc:format>
        <dc:type
           rdf:resource="http://purl.org/dc/dcmitype/StillImage" />
        <dc:title />
      </cc:Work>
    </rdf:RDF>
  </metadata>
  <defs
     id="defs74">
    <radialGradient
       inkscape:collect="always"
       xlink:href="#linearGradient22122"
       id="radialGradient4770"
       gradientUnits="userSpaceOnUse"
       gradientTransform="matrix(0,-1.000001,1.142856,0,-41.10259,45.50001)"
       cx="7"
       cy="39.464806"
       fx="7"
       fy="39.464806"
       r="3.5" />
    <linearGradient
       id="linearGradient22122"
       inkscape:collect="always">
      <stop
         id="stop22124"
         offset="0"
         style="stop-color:black;stop-opacity:1;" />
      <stop
         id="stop22126"
         offset="1"
         style="stop-color:black;stop-opacity:0;" />
    </linearGradient>
    <radialGradient
       inkscape:collect="always"
       xlink:href="#linearGradient22122"
       id="radialGradient4772"
       gradientUnits="userSpaceOnUse"
       gradientTransform="matrix(0,-1.000001,1.142856,0,-89.10259,-31.49999)"
       cx="7"
       cy="39.464806"
       fx="7"
       fy="39.464806"
       r="3.5" />
    <linearGradient
       inkscape:collect="always"
       xlink:href="#linearGradient22140"
       id="linearGradient4774"
       gradientUnits="userSpaceOnUse"
       x1="18.142136"
       y1="35"
       x2="18.142136"
       y2="42.040661" />
    <linearGradient
       id="linearGradient22140">
      <stop
         id="stop22142"
         offset="0"
         style="stop-color:black;stop-opacity:0;" />
      <stop
         style="stop-color:black;stop-opacity:1;"
         offset="0.5"
         id="stop22148" />
      <stop
         id="stop22144"
         offset="1"
         style="stop-color:black;stop-opacity:0;" />
    </linearGradient>
    <linearGradient
       inkscape:collect="always"
       xlink:href="#linearGradient7025"
       id="linearGradient4776"
       gradientUnits="userSpaceOnUse"
       gradientTransform="translate(53,1.428571)"
       x1="13.630114"
       y1="28.5"
       x2="25.208096"
       y2="41.180992" />
    <linearGradient
       id="linearGradient7025"
       inkscape:collect="always">
      <stop
         id="stop7027"
         offset="0"
         style="stop-color:#e6ce46;stop-opacity:1" />
      <stop
         id="stop7029"
         offset="1"
         style="stop-color:#d6ba1c;stop-opacity:1" />
    </linearGradient>
    <linearGradient
       inkscape:collect="always"
       xlink:href="#linearGradient2594"
       id="linearGradient3070"
       gradientUnits="userSpaceOnUse"
       gradientTransform="translate(51.077253,2.9393006)"
       x1="7.3125172"
       y1="18.33691"
       x2="25.208096"
       y2="41.180992" />
    <linearGradient
       y2="-18.549999"
       x2="56.68"
       y1="-24.700001"
       x1="38.700001"
       gradientUnits="userSpaceOnUse"
       id="linearGradient2594">
      <stop
         id="stop17"
         stop-color="#ffd789"
         offset="0" />
      <stop
         id="stop19"
         stop-color="#e08606"
         offset="1" />
    </linearGradient>
  </defs>
  <sodipodi:namedview
     pagecolor="#ffffff"
     bordercolor="#666666"
     borderopacity="1"
     objecttolerance="10"
     gridtolerance="10"
     guidetolerance="10"
     inkscape:pageopacity="0"
     inkscape:pageshadow="2"
     inkscape:window-width="1366"
     inkscape:window-height="768"
     id="namedview72"
     showgrid="false"
     inkscape:zoom="3.6875"
     inkscape:cx="32"
     inkscape:cy="32"
     inkscape:window-x="2"
     inkscape:window-y="30"
     inkscape:window-maximized="0"
     inkscape:current-layer="svg2" />
  <g
     id="g4">
    <path
       style="fill:#000000; fill-opacity:0.4196"
       d="M35 62L40 56C40 56 43.72 58.38 48 59C53.94 59.84 61 59 61 59L62 57L50 51L38 53L31 61L35 62z"
       transform="matrix(1,0,0,1,-4,-2)"
       id="path6" />
    <path
       style="fill:none; stroke:#010000; stroke-width:4"
       d="M34 38C34 38 34 51 20 53V55L34 62L48 48L45 35L34 38z"
       transform="matrix(1,0,0,1,-5,-2)"
       id="path8" />
    <linearGradient
       id="gradient0"
       gradientUnits="userSpaceOnUse"
       x1="41.67"
       y1="-9.73"
       x2="71.92"
       y2="-3.5">
      <stop
         offset="0"
         stop-color="#5c5c5c"
         id="stop11" />
      <stop
         offset="1"
         stop-color="#b8b8b8"
         id="stop13" />
    </linearGradient>
    <path
       style="fill:url(#gradient0)"
       d="M34 36V62L48 48L45 34L34 36z"
       transform="matrix(1,0,0,1,-5,-2)"
       id="path15" />
    <linearGradient
       id="gradient1"
       gradientUnits="userSpaceOnUse"
       x1="14.26"
       y1="97.46"
       x2="-8.94"
       y2="81.76">
      <stop
         offset="0"
         stop-color="#c9c9c9"
         id="stop18" />
      <stop
         offset="1"
         stop-color="#ffffff"
         id="stop20" />
    </linearGradient>
    <path
       style="fill:url(#gradient1)"
       d="M20 55L34 62V59L20 53V55z"
       transform="matrix(1,0,0,1,-5,-2)"
       id="path22" />
    <linearGradient
       id="gradient2"
       gradientUnits="userSpaceOnUse"
       x1="51.94"
       y1="63.65"
       x2="26.51"
       y2="73.34">
      <stop
         offset="0"
         stop-color="#797979"
         id="stop25" />
      <stop
         offset="1"
         stop-color="#e4e4e4"
         id="stop27" />
    </linearGradient>
    <path
       style="fill:url(#gradient2)"
       d="M34 59C45 50 40 40 40 40L34 38C34 38 34 51 20 53L34 59z"
       transform="matrix(1,0,0,1,-5,-2)"
       id="path29" />
    <path
       style="fill:none; stroke:#000000; stroke-width:4"
       d="M14 39L52 58L55 55V17L17 5.53L14 7V39z"
       transform="matrix(1,0,0,1,-4,-2)"
       id="path31" />
    <linearGradient
       id="gradient3"
       gradientUnits="userSpaceOnUse"
       x1="121.6"
       y1="-41.06"
       x2="151.37"
       y2="15.32">
      <stop
         offset="0"
         stop-color="#d4d4d4"
         id="stop34" />
      <stop
         offset="1"
         stop-color="#7d7d7d"
         id="stop36" />
    </linearGradient>
    <path
       style="fill:url(#gradient3)"
       d="M14 39L52 58V20L14 7V39z"
       transform="matrix(1,0,0,1,-4,-2)"
       id="path38" />
    <linearGradient
       id="gradient4"
       gradientUnits="userSpaceOnUse"
       x1="28.71"
       y1="-38.38"
       x2="57.09"
       y2="-27.57">
      <stop
         offset="0"
         stop-color="#3c3c3c"
         id="stop41" />
      <stop
         offset="1"
         stop-color="#242424"
         id="stop43" />
    </linearGradient>
    <path
       style="fill:url(#gradient4)"
       d="M50 48L16 32V9L50 21V48z"
       transform="matrix(1,0,0,1,-4,-2)"
       id="path45" />
    <linearGradient
       id="gradient5"
       gradientUnits="userSpaceOnUse"
       x1="57.02"
       y1="1.21"
       x2="111.43"
       y2="25.45">
      <stop
         offset="0.6195"
         stop-color="#0032a1"
         id="stop48" />
      <stop
         offset="0.8116"
         stop-color="#7793d2"
         id="stop50" />
      <stop
         offset="0.9742"
         stop-color="#0032a1"
         id="stop52" />
    </linearGradient>
    <path
       style="fill:url(#gradient5)"
       d="M47 44L19 30V13L47 22V44z"
       transform="matrix(1,0,0,1,-4,-2)"
       id="path54" />
    <linearGradient
       id="gradient6"
       gradientUnits="userSpaceOnUse"
       x1="47.12"
       y1="-61.43"
       x2="36.73"
       y2="-59.88">
      <stop
         offset="0"
         stop-color="#a5a0a0"
         id="stop57" />
      <stop
         offset="1"
         stop-color="#474747"
         id="stop59" />
    </linearGradient>
    <path
       style="fill:url(#gradient6)"
       d="M52 57L55 54V17L52 20V57z"
       transform="matrix(1,0,0,1,-4,-2)"
       id="path61" />
    <linearGradient
       id="gradient7"
       gradientUnits="userSpaceOnUse"
       x1="111.38"
       y1="-24.02"
       x2="117.24"
       y2="4">
      <stop
         offset="0"
         stop-color="#ffffff"
         id="stop64" />
      <stop
         offset="1"
         stop-color="#d3d3d3"
         id="stop66" />
    </linearGradient>
    <path
       style="fill:url(#gradient7)"
       d="M16.93 5.43L14 7L52 20L55 17L16.93 5.43z"
       transform="matrix(1,0,0,1,-4,-2)"
       id="path68" />
    <path
       style="fill:#000000"
       d="M30 41C28.89 41 28 41.89 28 43C28 44.1 28.89 46 30 46C31.1 46 32 45.1 32 44C32 42.89 31.1 41 30 41z"
       transform="matrix(1,0,0,1,-4,-2)"
       id="path70" />
  </g>
  <path
     id="path15577"
     d="m 30.924564,57.803447 30,0 0,-30 c -0.01068,-1.64e-4 -0.02053,0 -0.03125,0 0,0 -4.275972,0 -6.90625,0 l -23.0625,30 z m 13,-6 11,-15 0,15 -11,0 z"
     style="display:inline;opacity:0.1;fill:#000000;fill-opacity:1;fill-rule:evenodd;stroke:#000000;stroke-width:1.00000024px;stroke-linecap:butt;stroke-linejoin:miter;stroke-opacity:1"
     inkscape:connector-curvature="0" />
  <g
     transform="matrix(0,-1,1,0,16.06248,118.39139)"
     id="g10824">
    <path
       style="fill:url(#linearGradient3070);fill-opacity:1;fill-rule:evenodd;stroke:#000000;stroke-width:1.00000024px;stroke-linecap:butt;stroke-linejoin:miter;stroke-opacity:1"
       d="m 55.577253,16.439301 0,30 39,0 -39,-30 z m 6,13 15,11 -15,0 0,-11 z"
       id="path4319"
       inkscape:connector-curvature="0" />
    <path
       style="fill:none;stroke:#000000;stroke-width:1px;stroke-linecap:round;stroke-linejoin:miter;stroke-opacity:1"
       d="m 61.5,44.928571 0,-3"
       id="path4326"
       sodipodi:nodetypes="cc"
       inkscape:connector-curvature="0" />
    <path
       style="fill:none;stroke:#000000;stroke-width:1px;stroke-linecap:round;stroke-linejoin:miter;stroke-opacity:1"
       d="m 67.5,44.928571 0,-3"
       id="path4328"
       sodipodi:nodetypes="cc"
       inkscape:connector-curvature="0" />
    <path
       style="fill:none;stroke:#000000;stroke-width:1px;stroke-linecap:round;stroke-linejoin:miter;stroke-opacity:1"
       d="m 73.5,44.928571 0,-2.964286"
       id="path4330"
       sodipodi:nodetypes="cc"
       inkscape:connector-curvature="0" />
    <path
       style="fill:none;stroke:#000000;stroke-width:1px;stroke-linecap:round;stroke-linejoin:miter;stroke-opacity:1"
       d="m 79.5,44.928571 0,-3"
       id="path4332"
       sodipodi:nodetypes="cc"
       inkscape:connector-curvature="0" />
    <path
       style="fill:none;stroke:#000000;stroke-width:1px;stroke-linecap:round;stroke-linejoin:miter;stroke-opacity:1"
       d="m 85.5,44.928571 0,-3"
       id="path4334"
       sodipodi:nodetypes="cc"
       inkscape:connector-curvature="0" />
  </g>
</svg>
