<?xml version="1.0" encoding="UTF-8" standalone="no"?>
<!-- Created with Sodipodi ("http://www.sodipodi.com/") -->

<svg
   xmlns:dc="http://purl.org/dc/elements/1.1/"
   xmlns:cc="http://creativecommons.org/ns#"
   xmlns:rdf="http://www.w3.org/1999/02/22-rdf-syntax-ns#"
   xmlns:svg="http://www.w3.org/2000/svg"
   xmlns="http://www.w3.org/2000/svg"
   xmlns:sodipodi="http://sodipodi.sourceforge.net/DTD/sodipodi-0.dtd"
   xmlns:inkscape="http://www.inkscape.org/namespaces/inkscape"
   width="48pt"
   height="48pt"
   viewBox="-0.124 0.474 127 123"
   overflow="visible"
   enable-background="new -0.124 0.474 127 123"
   xml:space="preserve"
   id="svg548"
   sodipodi:version="0.32"
   sodipodi:docname="preferences-desktop-peripherals.svg"
   version="1.1"
   inkscape:version="0.91 r13725"><metadata
     id="metadata140"><rdf:RDF><cc:Work
         rdf:about=""><dc:format>image/svg+xml</dc:format><dc:type
           rdf:resource="http://purl.org/dc/dcmitype/StillImage" /><dc:title /></cc:Work></rdf:RDF></metadata><defs
     id="defs748"><linearGradient
       y2="86.8368"
       x2="37.7203"
       y1="82.7852"
       x1="39.7847"
       gradientUnits="userSpaceOnUse"
       id="XMLID_1_"><stop
         id="stop557"
         style="stop-color:#DBDBDA"
         offset="0" /><stop
         id="stop558"
         style="stop-color:#BDBDBC"
         offset="0.404" /><stop
         id="stop559"
         style="stop-color:#898989"
         offset="1" /></linearGradient><linearGradient
       y2="62.0324"
       x2="75.2631"
       y1="60.4878"
       x1="73.7715"
       gradientUnits="userSpaceOnUse"
       id="XMLID_2_"><stop
         id="stop565"
         style="stop-color:#BFBFBF"
         offset="0" /><stop
         id="stop566"
         style="stop-color:#A1A1A1"
         offset="0.3197" /><stop
         id="stop567"
         style="stop-color:#555555"
         offset="1" /></linearGradient><linearGradient
       y2="66.3698"
       x2="25.352"
       y1="57.5356"
       x1="24.5947"
       gradientUnits="userSpaceOnUse"
       id="XMLID_3_"><stop
         id="stop573"
         style="stop-color:#FFFFFF"
         offset="0" /><stop
         id="stop574"
         style="stop-color:#E0E0E0"
         offset="0.2079" /><stop
         id="stop575"
         style="stop-color:#939393"
         offset="0.6585" /><stop
         id="stop576"
         style="stop-color:#555555"
         offset="1" /></linearGradient><linearGradient
       y2="59.6519"
       x2="32.3923"
       y1="50.8149"
       x1="31.6348"
       gradientUnits="userSpaceOnUse"
       id="XMLID_4_"><stop
         id="stop582"
         style="stop-color:#FFFFFF"
         offset="0" /><stop
         id="stop583"
         style="stop-color:#E0E0E0"
         offset="0.2079" /><stop
         id="stop584"
         style="stop-color:#939393"
         offset="0.6585" /><stop
         id="stop585"
         style="stop-color:#555555"
         offset="1" /></linearGradient><linearGradient
       y2="53.2515"
       x2="39.4338"
       y1="44.4146"
       x1="38.6763"
       gradientUnits="userSpaceOnUse"
       id="XMLID_5_"><stop
         id="stop591"
         style="stop-color:#FFFFFF"
         offset="0" /><stop
         id="stop592"
         style="stop-color:#E0E0E0"
         offset="0.2079" /><stop
         id="stop593"
         style="stop-color:#939393"
         offset="0.6585" /><stop
         id="stop594"
         style="stop-color:#555555"
         offset="1" /></linearGradient><linearGradient
       y2="46.0441"
       x2="46.3833"
       y1="37.209"
       x1="45.626"
       gradientUnits="userSpaceOnUse"
       id="XMLID_6_"><stop
         id="stop600"
         style="stop-color:#FFFFFF"
         offset="0" /><stop
         id="stop601"
         style="stop-color:#E0E0E0"
         offset="0.2079" /><stop
         id="stop602"
         style="stop-color:#939393"
         offset="0.6585" /><stop
         id="stop603"
         style="stop-color:#555555"
         offset="1" /></linearGradient><linearGradient
       y2="39.3234"
       x2="53.4251"
       y1="30.4902"
       x1="52.668"
       gradientUnits="userSpaceOnUse"
       id="XMLID_7_"><stop
         id="stop609"
         style="stop-color:#FFFFFF"
         offset="0" /><stop
         id="stop610"
         style="stop-color:#E0E0E0"
         offset="0.2079" /><stop
         id="stop611"
         style="stop-color:#939393"
         offset="0.6585" /><stop
         id="stop612"
         style="stop-color:#555555"
         offset="1" /></linearGradient><linearGradient
       y2="32.2051"
       x2="60.6295"
       y1="23.3691"
       x1="59.8721"
       gradientUnits="userSpaceOnUse"
       id="XMLID_8_"><stop
         id="stop618"
         style="stop-color:#FFFFFF"
         offset="0" /><stop
         id="stop619"
         style="stop-color:#E0E0E0"
         offset="0.2079" /><stop
         id="stop620"
         style="stop-color:#939393"
         offset="0.6585" /><stop
         id="stop621"
         style="stop-color:#555555"
         offset="1" /></linearGradient><linearGradient
       y2="71.4139"
       x2="36.4094"
       y1="59.7739"
       x1="35.4116"
       gradientUnits="userSpaceOnUse"
       id="XMLID_9_"><stop
         id="stop627"
         style="stop-color:#FFFFFF"
         offset="0" /><stop
         id="stop628"
         style="stop-color:#E0E0E0"
         offset="0.2079" /><stop
         id="stop629"
         style="stop-color:#939393"
         offset="0.6585" /><stop
         id="stop630"
         style="stop-color:#555555"
         offset="1" /></linearGradient><linearGradient
       y2="60.9322"
       x2="44.8741"
       y1="52.0962"
       x1="44.1167"
       gradientUnits="userSpaceOnUse"
       id="XMLID_10_"><stop
         id="stop636"
         style="stop-color:#FFFFFF"
         offset="0" /><stop
         id="stop637"
         style="stop-color:#E0E0E0"
         offset="0.2079" /><stop
         id="stop638"
         style="stop-color:#939393"
         offset="0.6585" /><stop
         id="stop639"
         style="stop-color:#555555"
         offset="1" /></linearGradient><linearGradient
       y2="54.5303"
       x2="51.9142"
       y1="45.6934"
       x1="51.1567"
       gradientUnits="userSpaceOnUse"
       id="XMLID_11_"><stop
         id="stop645"
         style="stop-color:#FFFFFF"
         offset="0" /><stop
         id="stop646"
         style="stop-color:#E0E0E0"
         offset="0.2079" /><stop
         id="stop647"
         style="stop-color:#939393"
         offset="0.6585" /><stop
         id="stop648"
         style="stop-color:#555555"
         offset="1" /></linearGradient><linearGradient
       y2="47.4903"
       x2="59.2761"
       y1="38.6533"
       x1="58.5186"
       gradientUnits="userSpaceOnUse"
       id="XMLID_12_"><stop
         id="stop654"
         style="stop-color:#FFFFFF"
         offset="0" /><stop
         id="stop655"
         style="stop-color:#E0E0E0"
         offset="0.2079" /><stop
         id="stop656"
         style="stop-color:#939393"
         offset="0.6585" /><stop
         id="stop657"
         style="stop-color:#555555"
         offset="1" /></linearGradient><linearGradient
       y2="40.7696"
       x2="66.3151"
       y1="31.9326"
       x1="65.5576"
       gradientUnits="userSpaceOnUse"
       id="XMLID_13_"><stop
         id="stop663"
         style="stop-color:#FFFFFF"
         offset="0" /><stop
         id="stop664"
         style="stop-color:#E0E0E0"
         offset="0.2079" /><stop
         id="stop665"
         style="stop-color:#939393"
         offset="0.6585" /><stop
         id="stop666"
         style="stop-color:#555555"
         offset="1" /></linearGradient><linearGradient
       y2="33.7292"
       x2="73.3569"
       y1="24.895"
       x1="72.5996"
       gradientUnits="userSpaceOnUse"
       id="XMLID_14_"><stop
         id="stop672"
         style="stop-color:#FFFFFF"
         offset="0" /><stop
         id="stop673"
         style="stop-color:#E0E0E0"
         offset="0.2079" /><stop
         id="stop674"
         style="stop-color:#939393"
         offset="0.6585" /><stop
         id="stop675"
         style="stop-color:#555555"
         offset="1" /></linearGradient><linearGradient
       y2="71.6856"
       x2="48.5362"
       y1="62.8496"
       x1="47.7788"
       gradientUnits="userSpaceOnUse"
       id="XMLID_15_"><stop
         id="stop681"
         style="stop-color:#FFFFFF"
         offset="0" /><stop
         id="stop682"
         style="stop-color:#E0E0E0"
         offset="0.2079" /><stop
         id="stop683"
         style="stop-color:#939393"
         offset="0.6585" /><stop
         id="stop684"
         style="stop-color:#555555"
         offset="1" /></linearGradient><linearGradient
       y2="76.3057"
       x2="42.123"
       y1="69.123"
       x1="41.5073"
       gradientUnits="userSpaceOnUse"
       id="XMLID_16_"><stop
         id="stop690"
         style="stop-color:#FFFFFF"
         offset="0" /><stop
         id="stop691"
         style="stop-color:#E0E0E0"
         offset="0.2079" /><stop
         id="stop692"
         style="stop-color:#939393"
         offset="0.6585" /><stop
         id="stop693"
         style="stop-color:#555555"
         offset="1" /></linearGradient><linearGradient
       y2="53.0748"
       x2="68.6364"
       y1="47.3145"
       x1="64.1543"
       gradientUnits="userSpaceOnUse"
       id="XMLID_17_"><stop
         id="stop699"
         style="stop-color:#FFFFFF"
         offset="0" /><stop
         id="stop700"
         style="stop-color:#E0E0E0"
         offset="0.2079" /><stop
         id="stop701"
         style="stop-color:#939393"
         offset="0.6585" /><stop
         id="stop702"
         style="stop-color:#555555"
         offset="1" /></linearGradient><linearGradient
       y2="39.1335"
       x2="83.8998"
       y1="28.4092"
       x1="82.9805"
       gradientUnits="userSpaceOnUse"
       id="XMLID_18_"><stop
         id="stop708"
         style="stop-color:#FFFFFF"
         offset="0" /><stop
         id="stop709"
         style="stop-color:#E0E0E0"
         offset="0.2079" /><stop
         id="stop710"
         style="stop-color:#939393"
         offset="0.6585" /><stop
         id="stop711"
         style="stop-color:#555555"
         offset="1" /></linearGradient><linearGradient
       y2="25.732"
       x2="67.5983"
       y1="16.895"
       x1="66.8408"
       gradientUnits="userSpaceOnUse"
       id="XMLID_19_"><stop
         id="stop717"
         style="stop-color:#FFFFFF"
         offset="0" /><stop
         id="stop718"
         style="stop-color:#E0E0E0"
         offset="0.2079" /><stop
         id="stop719"
         style="stop-color:#939393"
         offset="0.6585" /><stop
         id="stop720"
         style="stop-color:#555555"
         offset="1" /></linearGradient><linearGradient
       y2="56.7438"
       x2="101.3117"
       y1="65.666"
       x1="95.5107"
       gradientUnits="userSpaceOnUse"
       id="XMLID_20_"><stop
         id="stop729"
         style="stop-color:#E6E6E6"
         offset="0" /><stop
         id="stop730"
         style="stop-color:#EAC8C8"
         offset="0.2673" /><stop
         id="stop731"
         style="stop-color:#F67A7A"
         offset="0.8478" /><stop
         id="stop732"
         style="stop-color:#F96565"
         offset="1" /></linearGradient><linearGradient
       y2="89.1363"
       x2="69.6948"
       y1="109.9648"
       x1="59.0498"
       gradientUnits="userSpaceOnUse"
       id="XMLID_21_"><stop
         id="stop738"
         style="stop-color:#E6E6E6"
         offset="0" /><stop
         id="stop739"
         style="stop-color:#EAC8C8"
         offset="0.2673" /><stop
         id="stop740"
         style="stop-color:#F67A7A"
         offset="0.8478" /><stop
         id="stop741"
         style="stop-color:#F96565"
         offset="1" /></linearGradient><inkscape:perspective
       id="perspective94"
       inkscape:persp3d-origin="24 : 16 : 1"
       inkscape:vp_z="48 : 24 : 1"
       inkscape:vp_y="0 : 1000 : 0"
       inkscape:vp_x="0 : 24 : 1"
       sodipodi:type="inkscape:persp3d" /><linearGradient
       id="linearGradient6035"><stop
         id="stop6037"
         offset="0"
         style="stop-color:#8e908b;stop-opacity:1;" /><stop
         id="stop6039"
         offset="1"
         style="stop-color:#40423f;stop-opacity:1;" /></linearGradient><linearGradient
       id="linearGradient5983"><stop
         id="stop5985"
         offset="0"
         style="stop-color:#3b3c3a;stop-opacity:1;" /><stop
         style="stop-color:#989a96;stop-opacity:1;"
         offset="0.5"
         id="stop5991" /><stop
         id="stop5987"
         offset="1"
         style="stop-color:#31322f;stop-opacity:1;" /></linearGradient><linearGradient
       id="linearGradient7386"><stop
         id="stop7388"
         offset="0"
         style="stop-color:#ffffff;stop-opacity:1;" /><stop
         style="stop-color:#ffffff;stop-opacity:1;"
         offset="0.34523809"
         id="stop6033" /><stop
         style="stop-color:#c1c1c1;stop-opacity:1;"
         offset="0.79733562"
         id="stop6031" /><stop
         id="stop7390"
         offset="1"
         style="stop-color:#e3e3e3;stop-opacity:1;" /></linearGradient><linearGradient
       id="linearGradient8895"><stop
         id="stop8899"
         offset="0"
         style="stop-color:#204a87;stop-opacity:0;" /><stop
         style="stop-color:#204a87;stop-opacity:0;"
         offset="0.5"
         id="stop8905" /><stop
         id="stop8897"
         offset="1"
         style="stop-color:#204a87;stop-opacity:1;" /></linearGradient><linearGradient
       y2="29.17"
       x2="70.120003"
       y1="19.700001"
       x1="76.269997"
       gradientUnits="userSpaceOnUse"
       id="gradient0"><stop
         id="stop7762"
         stop-opacity="0"
         stop-color="#010000"
         offset="0" /><stop
         id="stop7764"
         stop-color="#010000"
         offset="1" /></linearGradient><linearGradient
       y2="-22.639999"
       x2="29.83"
       y1="-5.3699999"
       x1="-20.360001"
       gradientUnits="userSpaceOnUse"
       id="gradient1"><stop
         id="stop7771"
         stop-color="#696969"
         offset="0" /><stop
         id="stop7773"
         stop-color="#010101"
         offset="1" /></linearGradient><radialGradient
       gradientTransform="matrix(0.5625,0,0,0.5625,16,16)"
       r="64"
       cy="0"
       cx="0"
       gradientUnits="userSpaceOnUse"
       id="gradient2"><stop
         id="stop7778"
         stop-color="#fbfbfb"
         offset="0" /><stop
         id="stop7780"
         stop-color="#c0c0c0"
         offset="1" /></radialGradient><radialGradient
       gradientTransform="matrix(-0.0687,-0.1744,0.1744,-0.0687,22.6166,25.7815)"
       r="64"
       cy="0"
       cx="0"
       gradientUnits="userSpaceOnUse"
       id="gradient3"><stop
         id="stop7789"
         stop-color="#bebebe"
         offset="1" /><stop
         id="stop7791"
         stop-color="#010000"
         offset="0" /></radialGradient><linearGradient
       y2="86.8368"
       x2="37.720299"
       y1="82.785202"
       x1="39.784698"
       gradientUnits="userSpaceOnUse"
       id="XMLID_1_-7"><stop
         id="stop557-6"
         style="stop-color:#DBDBDA"
         offset="0" /><stop
         id="stop558-0"
         style="stop-color:#BDBDBC"
         offset="0.404" /><stop
         id="stop559-4"
         style="stop-color:#898989"
         offset="1" /></linearGradient><linearGradient
       y2="62.032398"
       x2="75.2631"
       y1="60.487801"
       x1="73.7715"
       gradientUnits="userSpaceOnUse"
       id="XMLID_2_-6"><stop
         id="stop565-9"
         style="stop-color:#BFBFBF"
         offset="0" /><stop
         id="stop566-8"
         style="stop-color:#A1A1A1"
         offset="0.3197" /><stop
         id="stop567-0"
         style="stop-color:#555555"
         offset="1" /></linearGradient><linearGradient
       y2="66.369797"
       x2="25.351999"
       y1="57.535599"
       x1="24.5947"
       gradientUnits="userSpaceOnUse"
       id="XMLID_3_-3"><stop
         id="stop573-8"
         style="stop-color:#FFFFFF"
         offset="0" /><stop
         id="stop574-1"
         style="stop-color:#E0E0E0"
         offset="0.2079" /><stop
         id="stop575-9"
         style="stop-color:#939393"
         offset="0.6585" /><stop
         id="stop576-3"
         style="stop-color:#555555"
         offset="1" /></linearGradient><linearGradient
       y2="59.651901"
       x2="32.3923"
       y1="50.814899"
       x1="31.6348"
       gradientUnits="userSpaceOnUse"
       id="XMLID_4_-1"><stop
         id="stop582-8"
         style="stop-color:#FFFFFF"
         offset="0" /><stop
         id="stop583-4"
         style="stop-color:#E0E0E0"
         offset="0.2079" /><stop
         id="stop584-6"
         style="stop-color:#939393"
         offset="0.6585" /><stop
         id="stop585-5"
         style="stop-color:#555555"
         offset="1" /></linearGradient><linearGradient
       y2="53.251499"
       x2="39.4338"
       y1="44.4146"
       x1="38.6763"
       gradientUnits="userSpaceOnUse"
       id="XMLID_5_-2"><stop
         id="stop591-9"
         style="stop-color:#FFFFFF"
         offset="0" /><stop
         id="stop592-3"
         style="stop-color:#E0E0E0"
         offset="0.2079" /><stop
         id="stop593-3"
         style="stop-color:#939393"
         offset="0.6585" /><stop
         id="stop594-1"
         style="stop-color:#555555"
         offset="1" /></linearGradient><linearGradient
       y2="46.044102"
       x2="46.383301"
       y1="37.209"
       x1="45.625999"
       gradientUnits="userSpaceOnUse"
       id="XMLID_6_-4"><stop
         id="stop600-8"
         style="stop-color:#FFFFFF"
         offset="0" /><stop
         id="stop601-2"
         style="stop-color:#E0E0E0"
         offset="0.2079" /><stop
         id="stop602-8"
         style="stop-color:#939393"
         offset="0.6585" /><stop
         id="stop603-2"
         style="stop-color:#555555"
         offset="1" /></linearGradient><linearGradient
       y2="39.323399"
       x2="53.425098"
       y1="30.4902"
       x1="52.667999"
       gradientUnits="userSpaceOnUse"
       id="XMLID_7_-5"><stop
         id="stop609-3"
         style="stop-color:#FFFFFF"
         offset="0" /><stop
         id="stop610-8"
         style="stop-color:#E0E0E0"
         offset="0.2079" /><stop
         id="stop611-2"
         style="stop-color:#939393"
         offset="0.6585" /><stop
         id="stop612-1"
         style="stop-color:#555555"
         offset="1" /></linearGradient><linearGradient
       y2="32.205101"
       x2="60.629501"
       y1="23.369101"
       x1="59.872101"
       gradientUnits="userSpaceOnUse"
       id="XMLID_8_-9"><stop
         id="stop618-8"
         style="stop-color:#FFFFFF"
         offset="0" /><stop
         id="stop619-9"
         style="stop-color:#E0E0E0"
         offset="0.2079" /><stop
         id="stop620-8"
         style="stop-color:#939393"
         offset="0.6585" /><stop
         id="stop621-9"
         style="stop-color:#555555"
         offset="1" /></linearGradient><linearGradient
       y2="71.413902"
       x2="36.409401"
       y1="59.773899"
       x1="35.411598"
       gradientUnits="userSpaceOnUse"
       id="XMLID_9_-0"><stop
         id="stop627-2"
         style="stop-color:#FFFFFF"
         offset="0" /><stop
         id="stop628-7"
         style="stop-color:#E0E0E0"
         offset="0.2079" /><stop
         id="stop629-3"
         style="stop-color:#939393"
         offset="0.6585" /><stop
         id="stop630-3"
         style="stop-color:#555555"
         offset="1" /></linearGradient><linearGradient
       y2="60.932201"
       x2="44.8741"
       y1="52.096199"
       x1="44.116699"
       gradientUnits="userSpaceOnUse"
       id="XMLID_10_-0"><stop
         id="stop636-4"
         style="stop-color:#FFFFFF"
         offset="0" /><stop
         id="stop637-1"
         style="stop-color:#E0E0E0"
         offset="0.2079" /><stop
         id="stop638-5"
         style="stop-color:#939393"
         offset="0.6585" /><stop
         id="stop639-1"
         style="stop-color:#555555"
         offset="1" /></linearGradient><linearGradient
       y2="54.5303"
       x2="51.9142"
       y1="45.693401"
       x1="51.1567"
       gradientUnits="userSpaceOnUse"
       id="XMLID_11_-8"><stop
         id="stop645-9"
         style="stop-color:#FFFFFF"
         offset="0" /><stop
         id="stop646-0"
         style="stop-color:#E0E0E0"
         offset="0.2079" /><stop
         id="stop647-1"
         style="stop-color:#939393"
         offset="0.6585" /><stop
         id="stop648-2"
         style="stop-color:#555555"
         offset="1" /></linearGradient><linearGradient
       y2="47.490299"
       x2="59.2761"
       y1="38.653301"
       x1="58.5186"
       gradientUnits="userSpaceOnUse"
       id="XMLID_12_-3"><stop
         id="stop654-7"
         style="stop-color:#FFFFFF"
         offset="0" /><stop
         id="stop655-2"
         style="stop-color:#E0E0E0"
         offset="0.2079" /><stop
         id="stop656-5"
         style="stop-color:#939393"
         offset="0.6585" /><stop
         id="stop657-5"
         style="stop-color:#555555"
         offset="1" /></linearGradient><linearGradient
       y2="40.7696"
       x2="66.315102"
       y1="31.9326"
       x1="65.557602"
       gradientUnits="userSpaceOnUse"
       id="XMLID_13_-4"><stop
         id="stop663-2"
         style="stop-color:#FFFFFF"
         offset="0" /><stop
         id="stop664-0"
         style="stop-color:#E0E0E0"
         offset="0.2079" /><stop
         id="stop665-5"
         style="stop-color:#939393"
         offset="0.6585" /><stop
         id="stop666-7"
         style="stop-color:#555555"
         offset="1" /></linearGradient><linearGradient
       y2="33.729198"
       x2="73.356903"
       y1="24.895"
       x1="72.599602"
       gradientUnits="userSpaceOnUse"
       id="XMLID_14_-2"><stop
         id="stop672-4"
         style="stop-color:#FFFFFF"
         offset="0" /><stop
         id="stop673-7"
         style="stop-color:#E0E0E0"
         offset="0.2079" /><stop
         id="stop674-1"
         style="stop-color:#939393"
         offset="0.6585" /><stop
         id="stop675-2"
         style="stop-color:#555555"
         offset="1" /></linearGradient><linearGradient
       y2="71.6856"
       x2="48.536201"
       y1="62.849602"
       x1="47.778801"
       gradientUnits="userSpaceOnUse"
       id="XMLID_15_-6"><stop
         id="stop681-3"
         style="stop-color:#FFFFFF"
         offset="0" /><stop
         id="stop682-6"
         style="stop-color:#E0E0E0"
         offset="0.2079" /><stop
         id="stop683-6"
         style="stop-color:#939393"
         offset="0.6585" /><stop
         id="stop684-6"
         style="stop-color:#555555"
         offset="1" /></linearGradient><linearGradient
       y2="76.305702"
       x2="42.123001"
       y1="69.123001"
       x1="41.507301"
       gradientUnits="userSpaceOnUse"
       id="XMLID_16_-9"><stop
         id="stop690-6"
         style="stop-color:#FFFFFF"
         offset="0" /><stop
         id="stop691-1"
         style="stop-color:#E0E0E0"
         offset="0.2079" /><stop
         id="stop692-3"
         style="stop-color:#939393"
         offset="0.6585" /><stop
         id="stop693-3"
         style="stop-color:#555555"
         offset="1" /></linearGradient><linearGradient
       y2="53.074799"
       x2="68.636398"
       y1="47.314499"
       x1="64.154297"
       gradientUnits="userSpaceOnUse"
       id="XMLID_17_-4"><stop
         id="stop699-1"
         style="stop-color:#FFFFFF"
         offset="0" /><stop
         id="stop700-5"
         style="stop-color:#E0E0E0"
         offset="0.2079" /><stop
         id="stop701-6"
         style="stop-color:#939393"
         offset="0.6585" /><stop
         id="stop702-3"
         style="stop-color:#555555"
         offset="1" /></linearGradient><linearGradient
       y2="39.133499"
       x2="83.899803"
       y1="28.409201"
       x1="82.980499"
       gradientUnits="userSpaceOnUse"
       id="XMLID_18_-7"><stop
         id="stop708-9"
         style="stop-color:#FFFFFF"
         offset="0" /><stop
         id="stop709-0"
         style="stop-color:#E0E0E0"
         offset="0.2079" /><stop
         id="stop710-2"
         style="stop-color:#939393"
         offset="0.6585" /><stop
         id="stop711-7"
         style="stop-color:#555555"
         offset="1" /></linearGradient><linearGradient
       y2="25.732"
       x2="67.598297"
       y1="16.895"
       x1="66.840797"
       gradientUnits="userSpaceOnUse"
       id="XMLID_19_-6"><stop
         id="stop717-8"
         style="stop-color:#FFFFFF"
         offset="0" /><stop
         id="stop718-9"
         style="stop-color:#E0E0E0"
         offset="0.2079" /><stop
         id="stop719-8"
         style="stop-color:#939393"
         offset="0.6585" /><stop
         id="stop720-3"
         style="stop-color:#555555"
         offset="1" /></linearGradient></defs><sodipodi:namedview
     id="base"
     showgrid="false"
     inkscape:zoom="2.1572739"
     inkscape:cx="-44.559537"
     inkscape:cy="-38.117907"
     inkscape:window-width="1364"
     inkscape:window-height="708"
     inkscape:window-x="2"
     inkscape:window-y="30"
     inkscape:window-maximized="1"
     inkscape:current-layer="svg548" /><g
     transform="matrix(0.78333404,0,0,0.78333404,36.832596,2.1993947)"
     id="g7728"><path
       d="M 62.205,2.047 0,62.387 0.884,83.292 46.887,104.238 110.719,42.013 110.219,24.348 64.316,0 62.205,2.047 Z"
       id="path551"
       inkscape:connector-curvature="0" /><path
       d="M 107.071,26.408 65.177,4.182 3.283,64.219 l 0.715,16.887 41.894,19.074 61.57,-60.012 -0.391,-13.76 z"
       id="path552"
       inkscape:connector-curvature="0" /><path
       d="M 107.071,26.408 45.18,86.445 3.283,64.219 65.177,4.182 107.071,26.408 Z"
       id="path553"
       inkscape:connector-curvature="0"
       style="fill:#d9d9d9" /><path
       d="m 10.197,63.238 c 7.188,3.811 30.22,16.031 34.268,18.176 C 48.19,77.801 93.342,34.002 100.159,27.389 92.97,23.576 69.938,11.357 65.889,9.211 62.164,12.826 17.012,56.625 10.197,63.238 Z"
       id="path554"
       inkscape:connector-curvature="0"
       style="fill:#bfbfbf" /><path
       d="M 67.594,13.25 17.108,62.254 c 0,0 22.276,11.814 26.643,14.133 C 47.418,72.83 86.568,34.852 94.236,27.381 L 67.594,13.25 Z"
       id="path555"
       inkscape:connector-curvature="0"
       style="fill:#686868" /><path
       d="M 3.283,64.219 45.18,86.445 107.072,26.408 107.463,40.168 45.893,100.18 3.998,81.105 3.283,64.219 Z"
       id="path563"
       style="fill:url(#XMLID_1_-7)"
       inkscape:connector-curvature="0" /><path
       d="m 45.18,86.445 61.892,-60.037 0.391,13.76 -61.57,60.012 -0.713,-13.735 z"
       id="path571"
       style="fill:url(#XMLID_2_-6)"
       inkscape:connector-curvature="0" /><path
       d="m 18.476,60.428 5.577,-5.412 7.012,3.721 -5.583,5.406 -7.006,-3.715 z"
       id="path580"
       style="fill:url(#XMLID_3_-3)"
       inkscape:connector-curvature="0" /><path
       d="m 25.516,53.709 5.579,-5.414 7.011,3.721 -5.584,5.408 -7.006,-3.715 z"
       id="path589"
       style="fill:url(#XMLID_4_-1)"
       inkscape:connector-curvature="0" /><path
       d="m 32.556,47.307 5.579,-5.412 7.013,3.723 -5.583,5.406 -7.009,-3.717 z"
       id="path598"
       style="fill:url(#XMLID_5_-2)"
       inkscape:connector-curvature="0" /><path
       d="m 39.507,40.1 5.579,-5.412 7.01,3.721 -5.583,5.408 -7.006,-3.717 z"
       id="path607"
       style="fill:url(#XMLID_6_-4)"
       inkscape:connector-curvature="0" /><path
       d="m 46.547,33.381 5.579,-5.41 7.013,3.719 -5.584,5.406 -7.008,-3.715 z"
       id="path616"
       style="fill:url(#XMLID_7_-5)"
       inkscape:connector-curvature="0" /><path
       d="m 53.753,26.26 5.576,-5.41 7.013,3.719 -5.584,5.408 -7.005,-3.717 z"
       id="path625"
       style="fill:url(#XMLID_8_-9)"
       inkscape:connector-curvature="0" /><path
       d="m 27.74,64.92 8.793,-8.623 7.011,3.719 -8.798,8.621 -7.006,-3.717 z"
       id="path634"
       style="fill:url(#XMLID_9_-0)"
       inkscape:connector-curvature="0" /><path
       d="m 37.997,54.986 5.576,-5.41 7.013,3.719 -5.583,5.41 -7.006,-3.719 z"
       id="path643"
       style="fill:url(#XMLID_10_-0)"
       inkscape:connector-curvature="0" /><path
       d="m 45.037,48.588 5.579,-5.414 7.011,3.723 -5.584,5.406 -7.006,-3.715 z"
       id="path652"
       style="fill:url(#XMLID_11_-8)"
       inkscape:connector-curvature="0" /><path
       d="m 52.399,41.547 5.578,-5.414 7.011,3.721 -5.583,5.408 -7.006,-3.715 z"
       id="path661"
       style="fill:url(#XMLID_12_-3)"
       inkscape:connector-curvature="0" /><path
       d="m 59.439,34.826 5.579,-5.414 7.01,3.723 -5.583,5.406 -7.006,-3.715 z"
       id="path670"
       style="fill:url(#XMLID_13_-4)"
       inkscape:connector-curvature="0" /><path
       d="m 66.479,27.785 5.579,-5.41 7.013,3.721 -5.584,5.406 -7.008,-3.717 z"
       id="path679"
       style="fill:url(#XMLID_14_-2)"
       inkscape:connector-curvature="0" /><path
       d="m 41.659,65.742 5.579,-5.412 7.011,3.721 -5.584,5.406 -7.006,-3.715 z"
       id="path688"
       style="fill:url(#XMLID_15_-6)"
       inkscape:connector-curvature="0" /><path
       d="m 36.304,70.688 3.681,-3.52 7.013,3.721 -3.688,3.514 -7.006,-3.715 z"
       id="path697"
       style="fill:url(#XMLID_16_-9)"
       inkscape:connector-curvature="0" /><path
       d="m 49.067,59.371 25.42,-24.934 7.01,3.721 -25.424,24.928 -7.006,-3.715 z"
       id="path706"
       style="fill:url(#XMLID_17_-4)"
       inkscape:connector-curvature="0" /><path
       d="m 75.951,32.809 7.472,-7.553 7.013,3.721 -7.479,7.547 -7.006,-3.715 z"
       id="path715"
       style="fill:url(#XMLID_18_-7)"
       inkscape:connector-curvature="0" /><path
       d="m 60.722,19.787 5.576,-5.412 7.013,3.719 -5.583,5.41 -7.006,-3.717 z"
       id="path724"
       style="fill:url(#XMLID_19_-6)"
       inkscape:connector-curvature="0" /><path
       d="m 46.887,104.238 14.841,0.355 64.869,-63.232 -0.31,-6.848 -16.137,-5.869 -0.49,12.717 -62.773,62.877 z"
       id="path725"
       inkscape:connector-curvature="0"
       style="opacity:0.2" /></g><g
     style="color-interpolation:linearRGB"
     id="g7801"
     transform="matrix(1.2041738,0,0,1.2041738,-0.48420594,56.519789)"><g
       id="g7757"><path
         id="path7759"
         d="m 38,57 c 0,0 3.21,0 5.99,0 2.13,0 5.8,-0.9 8.01,-2.01 3.49,-1.74 9.24,-7.11 10.34,-9.86 C 63.21,42.95 62.2,40.1 59.99,38.99 56.5,37.25 52,35 52,35 L 38,57 Z"
         style="fill:#010000;fill-opacity:0.49010004"
         inkscape:connector-curvature="0" /><linearGradient
         y2="29.17"
         x2="70.120003"
         y1="19.700001"
         x1="76.269997"
         gradientUnits="userSpaceOnUse"
         id="linearGradient8243"><stop
           id="stop8245"
           stop-opacity="0"
           stop-color="#010000"
           offset="0" /><stop
           id="stop8247"
           stop-color="#010000"
           offset="1" /></linearGradient><path
         id="path7766"
         d="M 12,28 C 12,28 6,26 6,20 6,14 12,10 24,10 36,10 46,10.4 46,4"
         style="fill:none;stroke:url(#gradient0);stroke-width:4"
         inkscape:connector-curvature="0" /><path
         id="path7768"
         d="m 39,52 c 4,0 9.62,-2.63 10.99,-4 C 51.36,46.63 52.73,45.26 54,43.99 57.36,40.63 56,34 54,32 52,30 46,21 34,19 22,17 16,22 12,26 8,30 7.93,37.99 7.93,37.99 10,42 12.68,38.86 20,42 27.76,45.32 35,52 39,52 Z M 12,44 c 5.95,2.97 14.03,7.01 19.99,9.99 C 36.64,56.32 44.64,53.35 48,50 50.53,47.46 49.46,48.53 52,46 55.35,42.64 56.64,36.32 51.99,33.99 46.03,31.01 37.95,26.97 32,24 27.34,21.67 21.36,22.63 18,25.99 15.47,28.52 12.52,31.47 9.99,34 6.63,37.36 7.34,41.67 12,44 Z m 2,-20 c 0,0 4,-2 10,0 l 3,-2 c 0,0 0,-3 -6,-3 -6,0 -7,5 -7,5 z"
         style="fill:none;stroke:#010000;stroke-width:4;stroke-linecap:round;stroke-linejoin:round"
         inkscape:connector-curvature="0" /><linearGradient
         y2="-22.639999"
         x2="29.83"
         y1="-5.3699999"
         x1="-20.360001"
         gradientUnits="userSpaceOnUse"
         id="linearGradient8251"><stop
           id="stop8253"
           stop-color="#696969"
           offset="0" /><stop
           id="stop8255"
           stop-color="#010101"
           offset="1" /></linearGradient><path
         id="path7775"
         d="m 12,44 c 5.95,2.97 14.03,7.01 19.99,9.99 C 36.64,56.32 44.64,53.35 48,50 50.53,47.46 49.46,48.53 52,46 55.35,42.64 56.64,36.32 51.99,33.99 46.03,31.01 37.95,26.97 32,24 27.34,21.67 21.36,22.63 18,25.99 15.47,28.52 12.52,31.47 9.99,34 6.63,37.36 7.34,41.67 12,44 Z"
         style="fill:url(#gradient1)"
         inkscape:connector-curvature="0" /><radialGradient
         gradientTransform="matrix(0.5625,0,0,0.5625,16,16)"
         r="64"
         cy="0"
         cx="0"
         gradientUnits="userSpaceOnUse"
         id="radialGradient8258"><stop
           id="stop8260"
           stop-color="#fbfbfb"
           offset="0" /><stop
           id="stop8262"
           stop-color="#c0c0c0"
           offset="1" /></radialGradient><path
         id="path7782"
         d="m 39,52 c 4,0 9.62,-2.63 10.99,-4 C 51.36,46.63 52.73,45.26 54,43.99 57.36,40.63 56,34 54,32 52,30 46,21 34,19 22,17 16,22 12,26 8,30 7.93,37.99 7.93,37.99 10,42 12.68,38.86 20,42 c 7.76,3.32 15,10 19,10 z"
         style="fill:url(#gradient2)"
         inkscape:connector-curvature="0" /><path
         id="path7784"
         d="m 16,41 c 0,-6 1.86,-13.19 10,-19 7,-5 7,-3 7,-3"
         style="fill:none;stroke:#010000;stroke-width:1"
         inkscape:connector-curvature="0" /><path
         id="path7786"
         transform="matrix(0.9723,0,0,0.9687,1.9288,1.0321)"
         d="m 16,41 c 0,-6 1.86,-13.19 10,-19 7,-5 7,-3 7,-3"
         style="fill:none;stroke:#fcfcfc;stroke-width:1"
         inkscape:connector-curvature="0" /><radialGradient
         gradientTransform="matrix(-0.0687,-0.1744,0.1744,-0.0687,22.6166,25.7815)"
         r="64"
         cy="0"
         cx="0"
         gradientUnits="userSpaceOnUse"
         id="radialGradient8267"><stop
           id="stop8269"
           stop-color="#bebebe"
           offset="1" /><stop
           id="stop8271"
           stop-color="#010000"
           offset="0" /></radialGradient><path
         id="path7793"
         d="m 14,24 c 0,0 4,-2 10,0 l 3,-2 c 0,0 0,-3 -6,-3 -6,0 -7,5 -7,5 z"
         style="fill:url(#gradient3)"
         inkscape:connector-curvature="0" /></g></g><g
     style="color-interpolation:linearRGB"
     id="g7853"
     transform="matrix(1.1268639,0,0,1.1268639,62.851128,50.676191)"><g
       id="g7784"><path
         id="path7786-6"
         d="M 38,40 C 25.84,40 16,45.37 16,52 16,58.61 25.84,64 38,64 50.14,64 60,58.61 60,52 60,45.37 50.14,40 38,40 Z"
         style="fill:#010101;fill-opacity:0.40779999"
         inkscape:connector-curvature="0" /><linearGradient
         y2="-64"
         x2="68"
         y1="-64"
         x1="52"
         gradientUnits="userSpaceOnUse"
         id="gradient0-2"><stop
           id="stop7789-6"
           stop-color="#010000"
           offset="0" /><stop
           id="stop7791-7"
           stop-opacity="0"
           stop-color="#010000"
           offset="1" /></linearGradient><path
         id="path7793-6"
         d="m 44,44 c 0,0 5.51,-6 10,-6 4,0 2,8 10,4"
         style="fill:none;stroke:url(#gradient0-2);stroke-width:4"
         inkscape:connector-curvature="0" /><path
         id="path7795"
         d="m 28,34 c 0,0 -5,14 -14,15 l 0,3 20,10 14,-14 -3,-14 -17,0 z"
         style="fill:none;stroke:#010000;stroke-width:4"
         inkscape:connector-curvature="0" /><linearGradient
         y2="-3.5"
         x2="71.919998"
         y1="-9.7299995"
         x1="41.669998"
         gradientUnits="userSpaceOnUse"
         id="gradient1-2"><stop
           id="stop7798"
           stop-color="#5c5c5c"
           offset="0" /><stop
           id="stop7800"
           stop-color="#b8b8b8"
           offset="1" /></linearGradient><path
         id="path7802"
         d="M 34,36 34,62 48,48 45,34 34,36 Z"
         style="fill:url(#gradient1-2)"
         inkscape:connector-curvature="0" /><linearGradient
         y2="81.760002"
         x2="-8.9399996"
         y1="97.459999"
         x1="14.26"
         gradientUnits="userSpaceOnUse"
         id="gradient2-8"><stop
           id="stop7805"
           stop-color="#c9c9c9"
           offset="0" /><stop
           id="stop7807"
           stop-color="#ffffff"
           offset="1" /></linearGradient><path
         id="path7809"
         d="m 14,52 20,10 0,-4 -20,-9 0,3 z"
         style="fill:url(#gradient2-8)"
         inkscape:connector-curvature="0" /><linearGradient
         y2="73.339996"
         x2="26.51"
         y1="63.650002"
         x1="51.939999"
         gradientUnits="userSpaceOnUse"
         id="gradient3-2"><stop
           id="stop7812"
           stop-color="#797979"
           offset="0" /><stop
           id="stop7814"
           stop-color="#e4e4e4"
           offset="1" /></linearGradient><path
         id="path7816"
         d="m 34,58 c 7,-7 6,-19 6,-19 L 28,34 c 0,0 -5,14 -14,15 l 20,9 z"
         style="fill:url(#gradient3-2)"
         inkscape:connector-curvature="0" /><path
         id="path7818"
         d="M 30,2 C 18.95,2 10,10.95 10,22 10,33.03 18.95,42 30,42 41.03,42 50,33.03 50,22 50,10.95 41.03,2 30,2 Z"
         style="fill:none;stroke:#010000;stroke-width:4"
         inkscape:connector-curvature="0" /><radialGradient
         gradientTransform="matrix(0.3731,0.2924,-0.3363,0.4291,25.2905,16.1419)"
         r="64"
         cy="0"
         cx="0"
         gradientUnits="userSpaceOnUse"
         id="gradient4"><stop
           id="stop7821"
           stop-color="#ffffff"
           offset="0.1647" /><stop
           id="stop7823"
           stop-color="#959191"
           offset="0.7686" /><stop
           id="stop7825"
           stop-color="#b9b9b9"
           offset="1" /></radialGradient><path
         id="path7827"
         d="M 30,2 C 18.95,2 10,10.95 10,22 10,33.03 18.95,42 30,42 41.03,42 50,33.03 50,22 50,10.95 41.03,2 30,2 Z"
         style="fill:url(#gradient4)"
         inkscape:connector-curvature="0" /><linearGradient
         y2="-4"
         x2="38"
         y1="-4"
         x1="-6"
         gradientUnits="userSpaceOnUse"
         id="gradient5"><stop
           id="stop7830"
           stop-color="#010101"
           offset="0.2509" /><stop
           id="stop7832"
           stop-color="#c1acac"
           offset="1" /></linearGradient><path
         id="path7834"
         transform="matrix(0.9846,0.4347,-0.4379,0.9773,24.6832,-30.2941)"
         d="m 12.25,43.25 c -2.42,2.35 -1.64,7.06 1.74,10.51 3.36,3.47 8.04,4.34 10.47,1.99 2.41,-2.34 1.63,-7.05 -1.73,-10.51 -3.37,-3.45 -8.06,-4.33 -10.48,-1.99 z"
         style="fill:none;stroke:url(#gradient5);stroke-width:4"
         inkscape:connector-curvature="0" /><radialGradient
         gradientTransform="matrix(0.1345,0.0871,-0.0673,0.1039,20.7047,50.7358)"
         r="64"
         cy="0"
         cx="0"
         gradientUnits="userSpaceOnUse"
         id="gradient6"><stop
           id="stop7837"
           stop-color="#434a68"
           offset="0" /><stop
           id="stop7839"
           stop-color="#0f1238"
           offset="1" /></radialGradient><path
         id="path7841"
         transform="matrix(0.9846,0.4347,-0.4379,0.9773,26.8385,-30.2941)"
         d="m 12.25,43.25 c -2.42,2.35 -1.64,7.06 1.74,10.51 3.36,3.47 8.04,4.34 10.47,1.99 2.41,-2.34 1.63,-7.05 -1.73,-10.51 -3.37,-3.45 -8.06,-4.33 -10.48,-1.99 z"
         style="fill:url(#gradient6)"
         inkscape:connector-curvature="0" /><path
         id="path7843"
         transform="matrix(-0.0781,0.1744,-0.1757,-0.0775,31.659,20.9543)"
         d="m 12.25,43.25 c -2.42,2.35 -1.64,7.06 1.74,10.51 3.36,3.47 8.04,4.34 10.47,1.99 2.41,-2.34 1.63,-7.05 -1.73,-10.51 -3.37,-3.45 -8.06,-4.33 -10.48,-1.99 z"
         style="fill:#ffffff"
         inkscape:connector-curvature="0" /><path
         id="path7845"
         transform="matrix(0.9846,0.4347,-0.4379,0.9773,26.8385,-30.2941)"
         d="m 19,53 c 0,0 3.24,0.24 4.24,-0.76 1,-1 0.76,-3.24 0.76,-3.24 0,0 0.87,3.1 -0.13,4.1 C 22.87,54.1 19,53 19,53 Z"
         style="fill:#ffffff"
         inkscape:connector-curvature="0" /></g></g></svg>