<?xml version="1.0" encoding="UTF-8" standalone="no"?>
<svg
   xmlns:dc="http://purl.org/dc/elements/1.1/"
   xmlns:cc="http://creativecommons.org/ns#"
   xmlns:rdf="http://www.w3.org/1999/02/22-rdf-syntax-ns#"
   xmlns:svg="http://www.w3.org/2000/svg"
   xmlns="http://www.w3.org/2000/svg"
   xmlns:xlink="http://www.w3.org/1999/xlink"
   xmlns:sodipodi="http://sodipodi.sourceforge.net/DTD/sodipodi-0.dtd"
   xmlns:inkscape="http://www.inkscape.org/namespaces/inkscape"
   version="1.1"
   width="64"
   height="64"
   color-interpolation="linearRGB"
   id="svg2"
   sodipodi:version="0.32"
   inkscape:version="0.46"
   sodipodi:docname="printer-error.svg"
   inkscape:output_extension="org.inkscape.output.svg.inkscape">
  <metadata
     id="metadata83">
    <rdf:RDF>
      <cc:Work
         rdf:about="">
        <dc:format>image/svg+xml</dc:format>
        <dc:type
           rdf:resource="http://purl.org/dc/dcmitype/StillImage" />
      </cc:Work>
    </rdf:RDF>
  </metadata>
  <defs
     id="defs81">
    <inkscape:perspective
       sodipodi:type="inkscape:persp3d"
       inkscape:vp_x="0 : 32 : 1"
       inkscape:vp_y="0 : 1000 : 0"
       inkscape:vp_z="64 : 32 : 1"
       inkscape:persp3d-origin="32 : 21.333333 : 1"
       id="perspective85" />
    <inkscape:perspective
       id="perspective49"
       inkscape:persp3d-origin="32 : 21.333333 : 1"
       inkscape:vp_z="64 : 32 : 1"
       inkscape:vp_y="0 : 1000 : 0"
       inkscape:vp_x="0 : 32 : 1"
       sodipodi:type="inkscape:persp3d" />
    <inkscape:perspective
       id="perspective2456"
       inkscape:persp3d-origin="32 : 21.333333 : 1"
       inkscape:vp_z="64 : 32 : 1"
       inkscape:vp_y="0 : 1000 : 0"
       inkscape:vp_x="0 : 32 : 1"
       sodipodi:type="inkscape:persp3d" />
    <linearGradient
       inkscape:collect="always"
       xlink:href="#linearGradient2476"
       id="linearGradient2482"
       gradientUnits="userSpaceOnUse"
       x1="4"
       y1="48"
       x2="16"
       y2="60" />
  </defs>
  <sodipodi:namedview
     inkscape:window-height="667"
     inkscape:window-width="674"
     inkscape:pageshadow="2"
     inkscape:pageopacity="0.0"
     guidetolerance="10.0"
     gridtolerance="10.0"
     objecttolerance="10.0"
     borderopacity="1.0"
     bordercolor="#666666"
     pagecolor="#ffffff"
     id="base"
     showgrid="false"
     inkscape:zoom="7.28125"
     inkscape:cx="14.927084"
     inkscape:cy="21.012876"
     inkscape:window-x="839"
     inkscape:window-y="144"
     inkscape:current-layer="svg2" />
  <g
     id="g4">
    <path
       style="fill:#010000; fill-opacity:0.4509"
       d="M26 63C26 63 38 56 40 60C44 62 50 58 54 54L64 44L56 40H26V63z"
       id="path6" />
    <path
       style="fill:none; stroke:#000000; stroke-width:4"
       d="M16 14C5 23 2 26 2 40L38 58C38 58 40 59 42 57L56 43V33C56 33 56 31 55 30C54 29 52 28 52 28L16 14z            M2 49L26 62C26 62 28 56 34 52V50L11.24 38.61C5 42 2 49 2 49z            M52 10L28 2L21 17V18L44 27V26L52 10z"
       id="path8" />
    <linearGradient
       id="gradient0"
       gradientUnits="userSpaceOnUse"
       x1="-8.09"
       y1="65.12"
       x2="-14.95"
       y2="33.36">
      <stop
         offset="0"
         stop-color="#aeaeae"
         id="stop11" />
      <stop
         offset="1"
         stop-color="#e1e1e1"
         id="stop13" />
    </linearGradient>
    <path
       style="fill:url(#gradient0)"
       d="M48 26L46 28L18 17L20 15L16 14C5 23 2 26 2 40L38 58C38 44 42 38 52 28L48 26z"
       id="path15" />
    <path
       style="fill:none; stroke:#000000; stroke-width:2"
       d="M6 40L34 54V50L6 36V40z"
       id="path17" />
    <path
       style="fill:#383838"
       d="M6 40L34 54V50L6 36V40z"
       id="path19" />
    <linearGradient
       id="gradient1"
       gradientUnits="userSpaceOnUse"
       x1="13.56"
       y1="56.53"
       x2="19.96"
       y2="43.73">
      <stop
         offset="0"
         stop-color="#ffffff"
         id="stop22" />
      <stop
         offset="0.749"
         stop-color="#e5e5e5"
         id="stop24" />
      <stop
         offset="1"
         stop-color="#9b9b9b"
         id="stop26" />
    </linearGradient>
    <path
       style="fill:url(#gradient1)"
       d="M2 49L26 62C26 62 28 56 34 52V50L11.24 38.61C5 42 2 49 2 49z"
       id="path28" />
    <linearGradient
       id="gradient2"
       gradientUnits="userSpaceOnUse"
       x1="28.55"
       y1="21.21"
       x2="34.1"
       y2="8.58">
      <stop
         offset="0"
         stop-color="#535353"
         id="stop31" />
      <stop
         offset="0.2745"
         stop-color="#b5b5b5"
         id="stop33" />
      <stop
         offset="1"
         stop-color="#ffffff"
         id="stop35" />
    </linearGradient>
    <path
       style="fill:url(#gradient2)"
       d="M52 10L28 2L21 17V18L44 27V26L52 10z"
       id="path37" />
    <linearGradient
       id="gradient3"
       gradientUnits="userSpaceOnUse"
       x1="45.88"
       y1="35.61"
       x2="42.88"
       y2="54.61">
      <stop
         offset="0.0039"
         stop-color="#c0c0c0"
         id="stop40" />
      <stop
         offset="1"
         stop-color="#9a9a9a"
         id="stop42" />
    </linearGradient>
    <path
       style="fill:url(#gradient3)"
       d="M55 30C54 29 52 28 52 28C42 38 38 44 38 58C38 58 40 59 42 57L56 43V33C56 33 56 31 55 30z"
       id="path44" />
    <radialGradient
       id="gradient4"
       gradientUnits="userSpaceOnUse"
       cx="0"
       cy="0"
       r="64"
       gradientTransform="matrix(0.165,0.118,-0.269,0.3761,44.6696,44.5417)">
      <stop
         offset="0.0039"
         stop-color="#838383"
         id="stop47" />
      <stop
         offset="1"
         stop-color="#adadad"
         id="stop49" />
    </radialGradient>
    <path
       style="fill:url(#gradient4)"
       d="M42 57L56 43V33L54 31C46 39 42 47 42 57z"
       id="path51" />
    <radialGradient
       id="gradient5"
       gradientUnits="userSpaceOnUse"
       cx="0"
       cy="0"
       r="64"
       gradientTransform="matrix(0.0312,0,0,0.0468,33,43)">
      <stop
         offset="0"
         stop-color="#ffe3e3"
         id="stop54" />
      <stop
         offset="1"
         stop-color="#dd0505"
         id="stop56" />
    </radialGradient>
    <path
       style="fill:url(#gradient5)"
       d="M32 42C34 40 37 43 35 45C33 47 30 44 32 42z"
       transform="matrix(1,0,0,1,5,-4)"
       id="path58" />
    <radialGradient
       id="gradient6"
       gradientUnits="userSpaceOnUse"
       cx="0"
       cy="0"
       r="64"
       gradientTransform="matrix(0.0312,0,0,0.0468,33,43)">
      <stop
         offset="0"
         stop-color="#35ff06"
         id="stop61" />
      <stop
         offset="0.9843"
         stop-color="#1e9303"
         id="stop63" />
    </radialGradient>
    <path
       style="fill:url(#gradient6)"
       d="M32 42C34 40 37 43 35 45C33 47 30 44 32 42z"
       transform="matrix(1,0,0,1,2,1)"
       id="path65" />
    <path
       style="fill:none; stroke:#000000; stroke-width:1"
       d="M8 48L24 56"
       transform="matrix(1,0,0,1,4,-4)"
       id="path67" />
    <path
       style="fill:none; stroke:#000000; stroke-width:1"
       d="M8 48L24 56"
       transform="matrix(1,0,0,1,2,-2)"
       id="path69" />
    <path
       style="fill:none; stroke:#000000; stroke-width:1"
       d="M8 48L24 56"
       id="path71" />
    <radialGradient
       id="gradient7"
       gradientUnits="userSpaceOnUse"
       cx="0"
       cy="0"
       r="64"
       gradientTransform="matrix(0.5295,-0.3272,0.1957,0.3167,17.1527,18.9224)">
      <stop
         offset="0"
         stop-color="#909090"
         id="stop74" />
      <stop
         offset="1"
         stop-color="#3c3c3c"
         id="stop76" />
    </radialGradient>
    <path
       style="fill:url(#gradient7)"
       d="M18 19L43 30C37 30 36 46 21 39C6 32 11 19 18 19z"
       id="path78" />
  </g>
  <g
     id="g2458"
     transform="translate(0.7124463,-0.7124464)">
    <linearGradient
       y2="-5.4099998"
       x2="74.970001"
       y1="-10.23"
       x1="55.689999"
       gradientUnits="userSpaceOnUse"
       id="linearGradient2460">
      <stop
         id="stop15"
         stop-color="#5c5c5c"
         offset="0" />
      <stop
         id="stop17"
         stop-color="#838383"
         offset="1" />
    </linearGradient>
    <radialGradient
       gradientTransform="matrix(0.25,0,0,0.25,10,10)"
       r="64"
       cy="0"
       cx="0"
       gradientUnits="userSpaceOnUse"
       id="radialGradient2464">
      <stop
         id="stop2466"
         stop-color="#29b6ff"
         offset="0" />
      <stop
         id="stop2468"
         stop-color="#035492"
         offset="1" />
    </radialGradient>
    <radialGradient
       gradientTransform="matrix(0.25,0,0,0.25,10,10)"
       r="64"
       cy="0"
       cx="0"
       gradientUnits="userSpaceOnUse"
       id="radialGradient2470">
      <stop
         id="stop29"
         stop-color="#9ff699"
         offset="0" />
      <stop
         id="stop2473"
         stop-color="#049a43"
         offset="1" />
    </radialGradient>
    <path
       id="path35"
       d="M 4,48 L 4,60 L 16,60 L 16,48 L 4,48 z"
       style="fill:none;stroke:#000000;stroke-width:8;stroke-linejoin:round" />
    <linearGradient
       y2="41.650002"
       x2="31.65"
       y1="30.450001"
       x1="20.219999"
       gradientUnits="userSpaceOnUse"
       id="linearGradient2476">
      <stop
         id="stop38"
         stop-color="#ff8875"
         offset="0" />
      <stop
         id="stop2479"
         stop-color="#ff0505"
         offset="1" />
    </linearGradient>
    <path
       id="path42"
       d="M 4,48 L 4,60 L 16,60 L 16,48 L 4,48 z"
       style="fill:url(#linearGradient2482);fill-opacity:1" />
  </g>
</svg>
