<?xml version="1.0" encoding="iso-8859-1"?>
<!-- Generator: Adobe Illustrator 9.0, SVG Export Plug-In  -->
<!DOCTYPE svg PUBLIC "-//W3C//DTD SVG 20000303 Stylable//EN"   "http://www.w3.org/TR/2000/03/WD-SVG-20000303/DTD/svg-20000303-stylable.dtd" [
	<!ENTITY st0 "opacity:0.54;stroke-width:0.927;">
	<!ENTITY st1 "fill:url(#aigrd1);stroke:none;">
	<!ENTITY st2 "fill:#000000;stroke:none;">
	<!ENTITY st3 "fill-rule:nonzero;clip-rule:nonzero;fill:none;stroke:#FFFFFF;stroke-width:0.4635;stroke-linecap:round;stroke-miterlimit:4;">
	<!ENTITY st4 "opacity:0.18;">
	<!ENTITY st5 "opacity:0.27;">
	<!ENTITY st6 "fill:url(#aigrd6);stroke:none;">
	<!ENTITY st7 "fill:url(#aigrd3);stroke:none;">
	<!ENTITY st8 "fill:#919191;stroke:none;">
	<!ENTITY st9 "opacity:0.1;">
	<!ENTITY st10 "opacity:0.5;">
	<!ENTITY st11 "opacity:0.47;fill:url(#aigrd8);stroke:none;">
	<!ENTITY st12 "fill:url(#aigrd5);stroke:none;">
	<!ENTITY st13 "opacity:0.16;fill:#FFFFFF;stroke:none;">
	<!ENTITY st14 "fill:url(#aigrd2);stroke:none;">
	<!ENTITY st15 "fill:none;stroke:none;">
	<!ENTITY st16 "stroke-width:0.927;">
	<!ENTITY st17 "fill-rule:nonzero;clip-rule:nonzero;stroke:#000000;stroke-miterlimit:4;">
	<!ENTITY st18 "fill:url(#aigrd7);stroke:none;">
	<!ENTITY st19 "stroke:none;">
	<!ENTITY st20 "opacity:9.000000e-002;stroke:none;">
	<!ENTITY st21 "fill:url(#aigrd4);stroke:none;">
]>
<svg  width="24pt" height="24pt" viewBox="0 0 24 24" xml:space="preserve">
	<g id="Layer_x0020_1" style="&st17;">
		<path style="&st16;" d="M2.4,9.1C1.6,9.1,1,9.7,1,10.5v9.7c0,0.7,0.6,1.3,1.3,1.3h19.3c0.7,0,1.3-0.6,1.3-1.3v-9.7c0-0.7-0.6-1.3-1.3-1.3H2.4z"/>
		<path style="&st16;" d="M3.1,19.1c-0.7,0-1.3,0.6-1.3,1.3v0.8c0,0.7,0.6,1.3,1.3,1.3h17.7c0.7,0,1.3-0.6,1.3-1.3v-0.8c0-0.7-0.6-1.3-1.3-1.3H3.1z"/>
		<linearGradient id="aigrd1" gradientUnits="userSpaceOnUse" x1="11.9272" y1="20.0703" x2="11.9272" y2="21.47">
			<stop  offset="0" style="stop-color:#7C7C7C"/>
			<stop  offset="0.4065" style="stop-color:#797979"/>
			<stop  offset="0.7202" style="stop-color:#6F6F6F"/>
			<stop  offset="1" style="stop-color:#5F5F5F"/>
		</linearGradient>
		<path style="&st1;" d="M21.2,21.2c0,0.2-0.2,0.4-0.4,0.4H3.1c-0.2,0-0.4-0.2-0.4-0.4v-0.8c0-0.2,0.2-0.4,0.4-0.4h17.7c0.2,0,0.4,0.2,0.4,0.4v0.8z"/>
		<linearGradient id="aigrd2" gradientUnits="userSpaceOnUse" x1="11.9849" y1="10.4775" x2="11.9849" y2="20.2583">
			<stop  offset="0" style="stop-color:#CACACA"/>
			<stop  offset="3.315715e-002" style="stop-color:#C5C5C5"/>
			<stop  offset="0.1195" style="stop-color:#BEBEBE"/>
			<stop  offset="0.3596" style="stop-color:#BCBCBC"/>
			<stop  offset="0.3695" style="stop-color:#C3C3C3"/>
			<stop  offset="0.3911" style="stop-color:#CBCBCB"/>
			<stop  offset="0.4326" style="stop-color:#CDCDCD"/>
			<stop  offset="0.5" style="stop-color:#909090"/>
			<stop  offset="0.9326" style="stop-color:#8B8B8B"/>
			<stop  offset="1" style="stop-color:#737373"/>
		</linearGradient>
		<path style="&st14;" d="M22,20.2c0,0.2-0.2,0.4-0.4,0.4H2.4c-0.2,0-0.4-0.2-0.4-0.4v-9.7c0-0.2,0.2-0.4,0.4-0.4h19.3c0.2,0,0.4,0.2,0.4,0.4v9.7z"/>
		<path style="&st16;" d="M5.3,1.2C4.6,1.2,4,1.8,4,2.5v10.1h16.1V2.5c0-0.7-0.6-1.3-1.3-1.3H5.3z"/>
		<linearGradient id="aigrd3" gradientUnits="userSpaceOnUse" x1="12.0415" y1="13.1895" x2="12.0415" y2="12.1233">
			<stop  offset="0" style="stop-color:#7E7E7E"/>
			<stop  offset="0.3534" style="stop-color:#585858"/>
			<stop  offset="1" style="stop-color:#161616"/>
		</linearGradient>
		<path style="&st7;" d="M20.7,12.7c0,0.2-0.2,0.4-0.4,0.4H3.8c-0.2,0-0.4-0.2-0.4-0.4v-0.5c0-0.2,0.2-0.4,0.4-0.4h16.6c0.2,0,0.4,0.2,0.4,0.4v0.5z"/>
		<linearGradient id="aigrd4" gradientUnits="userSpaceOnUse" x1="12.02" y1="2.6543" x2="12.02" y2="11.0039">
			<stop  offset="0" style="stop-color:#F0F0F0"/>
			<stop  offset="0.1955" style="stop-color:#FBFBFB"/>
			<stop  offset="0.4045" style="stop-color:#FFFFFF"/>
			<stop  offset="0.7475" style="stop-color:#F1F1F1"/>
			<stop  offset="1" style="stop-color:#E4E4E4"/>
		</linearGradient>
		<path style="&st21;" d="M19.1,11.7H4.9V2.5c0-0.2,0.2-0.4,0.4-0.4h13.5c0.2,0,0.4,0.2,0.4,0.4v9.2z"/>
		<g style="&st19;">
			<path style="&st5;" d="M17.4,10.4H6.8V9h10.6v1.3z"/>
			<path style="&st9;" d="M17.4,7.7H6.8V6.3h10.6v1.3z"/>
			<path style="&st4;" d="M17.4,4.9H6.8V3.6h10.6v1.3z"/>
		</g>
		<linearGradient id="aigrd5" gradientUnits="userSpaceOnUse" x1="12.02" y1="11.1519" x2="12.02" y2="12.2211">
			<stop  offset="0" style="stop-color:#E2E2E2"/>
			<stop  offset="0.1771" style="stop-color:#D4D4D4"/>
			<stop  offset="0.5109" style="stop-color:#B0B0B0"/>
			<stop  offset="0.9628" style="stop-color:#757575"/>
			<stop  offset="1" style="stop-color:#707070"/>
		</linearGradient>
		<path style="&st12;" d="M4.9,12.3h14.2v-1.2H4.9v1.2z"/>
		<linearGradient id="aigrd6" gradientUnits="userSpaceOnUse" x1="12.1343" y1="14.1631" x2="12.1343" y2="20.3698">
			<stop  offset="0" style="stop-color:#BDBDBD"/>
			<stop  offset="0.3989" style="stop-color:#CFCFCF"/>
			<stop  offset="0.4341" style="stop-color:#C0C0C0"/>
			<stop  offset="0.4898" style="stop-color:#AFAFAF"/>
			<stop  offset="0.5592" style="stop-color:#A3A3A3"/>
			<stop  offset="0.6566" style="stop-color:#9C9C9C"/>
			<stop  offset="0.927" style="stop-color:#9B9B9B"/>
			<stop  offset="1" style="stop-color:#737373"/>
		</linearGradient>
		<path style="&st6;" d="M20.4,20.1c0,0.3-0.2,0.5-0.5,0.5H4.4c-0.3,0-0.5-0.2-0.5-0.5v-5.7c0-0.3,0.2-0.5,0.5-0.5h15.5c0.3,0,0.5,0.2,0.5,0.5v5.7z"/>
		<path style="&st20;" d="M20.4,20.1v-5.7c0-0.3-0.2-0.5-0.5-0.5v6.7c0.2,0,0.5-0.2,0.5-0.5z"/>
		<path style="&st13;" d="M3.9,14.4v5.7c0,0.3,0.2,0.5,0.5,0.5v-6.7c-0.2,0-0.5,0.2-0.5,0.5z"/>
	</g>
	<g id="Layer_x0020_3" style="&st3;">
		<path style="&st2;" d="M3,9.2c0,3.3,2.7,6,6,6c1,0,1.9-0.2,2.8-0.7c0.1,0.1,0.2,0.3,0.3,0.4l3.3,3.3c0.7,0.7,1.9,0.7,2.6,0c0.4-0.4,0.5-0.8,0.5-1.3c0-0.5-0.2-0.9-0.5-1.3l-3.3-3.3c-0.1-0.1-0.3-0.2-0.4-0.3c0.5-0.9,0.7-1.8,0.7-2.8c0-3.3-2.7-6-6-6s-6,2.7-6,6z
			 M5.9,9.2c0-1.7,1.4-3.1,3.1-3.1c1.7,0,3.1,1.4,3.1,3.1c0,1.7-1.4,3.1-3.1,3.1c-1.7,0-3.1-1.4-3.1-3.1z"/>
		<path style="&st8;" d="M17.4,16.1l-3.3-3.3c-0.3-0.3-0.7-0.4-1.1-0.3c0.8-0.9,1.2-2.1,1.2-3.4C14.2,6.3,11.9,4,9,4C6.1,4,3.7,6.3,3.7,9.2c0,2.9,2.4,5.3,5.2,5.3c1.3,0,2.4-0.4,3.3-1.2c-0.1,0.4,0,0.8,0.3,1.1l3.3,3.3c0.4,0.4,1.1,0.4,1.6,0c0.4-0.4,0.4-1.1,0-1.6z
			 M9,13.1c-2.1,0-3.9-1.7-3.9-3.9S6.9,5.4,9,5.4c2.1,0,3.9,1.7,3.9,3.9s-1.7,3.9-3.9,3.9z"/>
		<linearGradient id="aigrd7" gradientUnits="userSpaceOnUse" x1="15.793" y1="14.4805" x2="14.23" y2="16.0435">
			<stop  offset="0" style="stop-color:#304A2F"/>
			<stop  offset="0.3315" style="stop-color:#6FAB6C"/>
			<stop  offset="1" style="stop-color:#304A2F"/>
		</linearGradient>
		<path style="&st18;" d="M14.2,12.8l-1.6,1.6l3.3,3.3l1.6-1.6l-3.3-3.3z"/>
		<path style="&st0;" d="M13.7,13.3l3.2,3.2"/>
		<path style="&st10;" d="M4,9.1c0-2.7,2.2-4.9,4.9-4.9"/>
		<path style="&st10;" d="M13.2,9.1c0,2.4-1.9,4.3-4.3,4.3"/>
		<radialGradient id="aigrd8" cx="8.4019" cy="8.4604" r="4.1321" fx="8.4019" fy="8.4604" gradientUnits="userSpaceOnUse">
			<stop  offset="0" style="stop-color:#FFFFFF"/>
			<stop  offset="1.256170e-002" style="stop-color:#F5F3F8"/>
			<stop  offset="7.182755e-002" style="stop-color:#C7C4D9"/>
			<stop  offset="0.1357" style="stop-color:#A19FC1"/>
			<stop  offset="0.2033" style="stop-color:#8182AF"/>
			<stop  offset="0.2758" style="stop-color:#696CA2"/>
			<stop  offset="0.355" style="stop-color:#555C99"/>
			<stop  offset="0.4444" style="stop-color:#495193"/>
			<stop  offset="0.5524" style="stop-color:#424C8F"/>
			<stop  offset="0.7303" style="stop-color:#3F4A8E"/>
			<stop  offset="0.8388" style="stop-color:#3A4A92"/>
			<stop  offset="0.997" style="stop-color:#2C499E"/>
			<stop  offset="1" style="stop-color:#2C499E"/>
		</radialGradient>
		<path style="&st11;" d="M12.2,9.2c0,1.7-1.4,3.2-3.2,3.2c-1.7,0-3.2-1.4-3.2-3.2C5.8,7.5,7.3,6,9,6c1.7,0,3.2,1.4,3.2,3.2z"/>
	</g>
	<g id="Layer_x0020_2" style="&st17;">
		<path style="&st15;" d="M24,24H0V0h24v24z"/>
	</g>
</svg>
