<?xml version="1.0" encoding="UTF-8" standalone="no"?>
<!-- Generator: Adobe Illustrator 9.0, SVG Export Plug-In  -->

<svg
   xmlns:dc="http://purl.org/dc/elements/1.1/"
   xmlns:cc="http://creativecommons.org/ns#"
   xmlns:rdf="http://www.w3.org/1999/02/22-rdf-syntax-ns#"
   xmlns:svg="http://www.w3.org/2000/svg"
   xmlns="http://www.w3.org/2000/svg"
   xmlns:xlink="http://www.w3.org/1999/xlink"
   xmlns:sodipodi="http://sodipodi.sourceforge.net/DTD/sodipodi-0.dtd"
   xmlns:inkscape="http://www.inkscape.org/namespaces/inkscape"
   width="64"
   height="64"
   viewBox="0 0 51.2 51.2"
   xml:space="preserve"
   id="svg2"
   version="1.1"
   inkscape:version="0.91 r13725"
   sodipodi:docname="reconfigure.svg"><metadata
     id="metadata149"><rdf:RDF><cc:Work
         rdf:about=""><dc:format>image/svg+xml</dc:format><dc:type
           rdf:resource="http://purl.org/dc/dcmitype/StillImage" /></cc:Work></rdf:RDF></metadata><defs
     id="defs147"><linearGradient
       inkscape:collect="always"
       xlink:href="#gradient4"
       id="linearGradient2538"
       gradientUnits="userSpaceOnUse"
       x1="21.959999"
       y1="-0.0099999998"
       x2="57.169998"
       y2="22.58"
       gradientTransform="matrix(0.80019064,0,0,0.80019064,-72.160304,-43.856385)" /><linearGradient
       id="gradient4"
       gradientUnits="userSpaceOnUse"
       x1="21.959999"
       y1="-0.0099999998"
       x2="57.169998"
       y2="22.58"><stop
         offset="0"
         stop-color="#f7f9ff"
         id="stop2483" /><stop
         offset="1"
         stop-color="#989db0"
         id="stop2485" /></linearGradient></defs><sodipodi:namedview
     pagecolor="#ffffff"
     bordercolor="#666666"
     borderopacity="1"
     objecttolerance="10"
     gridtolerance="10"
     guidetolerance="10"
     inkscape:pageopacity="0"
     inkscape:pageshadow="2"
     inkscape:window-width="833"
     inkscape:window-height="657"
     id="namedview145"
     showgrid="false"
     width="64px"
     inkscape:zoom="2.7812867"
     inkscape:cx="15"
     inkscape:cy="15"
     inkscape:window-x="0"
     inkscape:window-y="20"
     inkscape:window-maximized="0"
     inkscape:current-layer="svg2" /><g
     id="Layer_x0020_3"
     style="fill:#ffffff;fill-rule:nonzero;stroke:#000000;stroke-miterlimit:4"
     transform="matrix(1.9679488,0,0,1.9679488,10.751325,2.7652448)"><linearGradient
       id="aigrd1"
       gradientUnits="userSpaceOnUse"
       x1="10.73"
       y1="-4.4619002"
       x2="10.73"
       y2="20.142599"><stop
         offset="0"
         style="stop-color:#B8B8B8"
         id="stop6" /><stop
         offset="0.2528"
         style="stop-color:#E9E9E9"
         id="stop8" /><stop
         offset="0.2978"
         style="stop-color:#909090"
         id="stop10" /><stop
         offset="0.2992"
         style="stop-color:#919191"
         id="stop12" /><stop
         offset="0.3458"
         style="stop-color:#AAAAAA"
         id="stop14" /><stop
         offset="0.3973"
         style="stop-color:#BEBEBE"
         id="stop16" /><stop
         offset="0.4565"
         style="stop-color:#CCCCCC"
         id="stop18" /><stop
         offset="0.5295"
         style="stop-color:#D4D4D4"
         id="stop20" /><stop
         offset="0.6573"
         style="stop-color:#D6D6D6"
         id="stop22" /><stop
         offset="1"
         style="stop-color:#A2A2A2"
         id="stop24" /></linearGradient><path
       style="fill:url(#aigrd1);stroke-width:2.55139995;stroke-linecap:round;stroke-linejoin:round"
       d="M 18.9,17.5 10.3,8.6 C 10.8,7.4 11.3,5.8 11,5.1 10.3,4 7.7,3 7.7,3 L 6.7,4 8.5,5.8 7.8,8.3 5.4,8.9 3.6,7.1 l -1,1 c 0,0 0.6,2.8 2.1,3.3 0.9,0.3 2.3,-0.2 3.4,-0.6 l 8.5,8.9 c 0.6,0.6 1.5,0.6 2.1,0 0.6,-0.6 0.6,-1.5 0,-2.1 z"
       id="path26"
       inkscape:connector-curvature="0" /><linearGradient
       id="aigrd2"
       gradientUnits="userSpaceOnUse"
       x1="6.7680998"
       y1="2.3311"
       x2="6.7680998"
       y2="20.279499"><stop
         offset="0"
         style="stop-color:#B8B8B8"
         id="stop29" /><stop
         offset="0.2528"
         style="stop-color:#F8F8F8"
         id="stop31" /><stop
         offset="0.2978"
         style="stop-color:#C2C2C2"
         id="stop33" /><stop
         offset="0.3067"
         style="stop-color:#C6C6C6"
         id="stop35" /><stop
         offset="0.3647"
         style="stop-color:#D9D9D9"
         id="stop37" /><stop
         offset="0.4313"
         style="stop-color:#E7E7E7"
         id="stop39" /><stop
         offset="0.5135"
         style="stop-color:#F0F0F0"
         id="stop41" /><stop
         offset="0.6573"
         style="stop-color:#F2F2F2"
         id="stop43" /><stop
         offset="1"
         style="stop-color:#A2A2A2"
         id="stop45" /></linearGradient><path
       style="fill:url(#aigrd2);stroke:none"
       d="M 10.9,5.1 C 10.3,4 7.7,3 7.7,3 L 6.7,4 8.5,5.8 7.8,8.3 5.4,8.9 3.6,7.1 l -1,1 c 0,0 0.6,2.8 2.1,3.3 1.5,0.5 4.9,-1.3 4.9,-1.3 0,0 1.9,-3.7 1.3,-4.9 z"
       id="path47"
       inkscape:connector-curvature="0" /><path
       style="fill:#787878;stroke:none"
       d="m 8.7,9.1 9.9,10.4"
       id="path49"
       inkscape:connector-curvature="0" /><linearGradient
       id="aigrd3"
       gradientUnits="userSpaceOnUse"
       x1="13.3486"
       y1="3.1245"
       x2="13.3486"
       y2="19.996799"><stop
         offset="0"
         style="stop-color:#B8B8B8"
         id="stop52" /><stop
         offset="0.2528"
         style="stop-color:#F8F8F8"
         id="stop54" /><stop
         offset="0.2978"
         style="stop-color:#C2C2C2"
         id="stop56" /><stop
         offset="0.3067"
         style="stop-color:#C6C6C6"
         id="stop58" /><stop
         offset="0.3647"
         style="stop-color:#D9D9D9"
         id="stop60" /><stop
         offset="0.4313"
         style="stop-color:#E7E7E7"
         id="stop62" /><stop
         offset="0.5135"
         style="stop-color:#F0F0F0"
         id="stop64" /><stop
         offset="0.6573"
         style="stop-color:#F2F2F2"
         id="stop66" /><stop
         offset="1"
         style="stop-color:#A2A2A2"
         id="stop68" /></linearGradient><path
       style="fill:url(#aigrd3);stroke:none"
       d="m 7.9,8.3 c -0.6,0.6 -0.6,1.5 0,2.1 l 8.9,9.2 c 0.6,0.6 1.5,0.6 2.1,0 0.6,-0.6 0.6,-1.5 0,-2.1 L 10,8.3 C 9.4,7.7 8.5,7.7 7.9,8.3 Z"
       id="path70"
       inkscape:connector-curvature="0" /><path
       style="stroke:none"
       d="M 7,4.3 6.7,4 7.7,3 c 0,0 2.2,0.8 3,1.7 C 9.6,4 7.8,3.5 7.8,3.5 L 7,4.3 Z"
       id="path72"
       inkscape:connector-curvature="0" /><path
       style="stroke:none"
       d="m 2.6,8.1 1,-1 L 5.4,8.9 7.9,8.2 8.5,5.7 8.2,8.5 5.2,9.5 3.6,7.7 2.7,8.6 2.6,8.1 Z"
       id="path74"
       inkscape:connector-curvature="0" /><path
       style="stroke:none"
       d="m 10.2,8.5 8.6,9 -8.3,-8 -0.3,-1.1 z"
       id="path76"
       inkscape:connector-curvature="0" /><radialGradient
       id="aigrd4"
       cx="17.6094"
       cy="18.306601"
       r="0.9138"
       fx="17.6094"
       fy="18.306601"
       gradientUnits="userSpaceOnUse"><stop
         offset="0"
         style="stop-color:#4D4D4D"
         id="stop79" /><stop
         offset="1"
         style="stop-color:#B8B8B8"
         id="stop81" /></radialGradient><path
       style="fill:url(#aigrd4);stroke:none"
       d="m 18.4,18.7 c 0,0.3 -0.3,0.6 -0.6,0.6 -0.3,0 -0.6,-0.3 -0.6,-0.6 0,-0.3 0.3,-0.6 0.6,-0.6 0.3,0 0.6,0.3 0.6,0.6 z"
       id="path83"
       inkscape:connector-curvature="0" /></g><g
     id="Layer_x0020_4"
     style="fill-rule:nonzero;stroke:#000000;stroke-miterlimit:4"
     transform="matrix(1.6811112,0,0,1.6811112,-1.4042607,12.579153)"><path
       style="fill:none;stroke:none"
       d="M 24,24 0,24 0,0 24,0 24,24 Z"
       id="path143"
       inkscape:connector-curvature="0" /></g><g
     id="g4223"
     transform="matrix(1.0586379,0,0,1.0586379,77.157968,44.775547)"><path
       inkscape:connector-curvature="0"
       id="path2480"
       d="m -60.717579,-15.84171 c -1.864443,0.08802 -3.600857,0.688164 -5.08121,1.632389 0,0 -0.04001,0.992236 0.392094,1.664396 l 0.872207,1.368326 c -1.120266,0.848202 -1.97647,2.0004769 -2.440581,3.3608009 l -1.536366,-0.4000952 c -0.768183,-0.2000472 -1.704406,0.1200288 -1.704406,0.1200288 -0.224054,0.8241956 -0.328078,1.7124076 -0.328078,2.6086216 0,0.960229 0.120029,1.872446 0.352084,2.744652 0,0 0.928221,0.32808 1.712408,0.112029 l 1.536366,-0.424101 c 0.472112,1.312314 1.328316,2.472591 2.424577,3.296786 l -0.864206,1.344321 c -0.424101,0.672159 -0.392093,1.672397 -0.392093,1.672397 1.472351,0.944225 3.200762,1.528362 5.065207,1.616383 0,0 0.584139,-0.76018 0.624148,-1.56037 l 0.07202,-1.616385 c 1.456347,-0.024 2.800668,-0.496116 3.928937,-1.256296 l 1.000236,1.240294 c 0.504121,0.616146 1.448345,0.904214 1.448345,0.904214 1.384332,-1.128269 2.480591,-2.600618 3.152754,-4.313027 0,0 -0.552132,-0.776184 -1.29631,-1.072258 l -1.504357,-0.600143 c 0.200048,-0.648151 0.304072,-1.360323 0.304072,-2.072493 0,-0.704167 -0.08802,-1.368325 -0.272063,-2.0164798 l 1.488352,-0.552132 c 0.752179,-0.288068 1.312312,-1.1122648 1.312312,-1.1122648 -0.640149,-1.7204095 -1.744414,-3.2247685 -3.144748,-4.3690405 0,0 -0.928221,0.288068 -1.440344,0.912217 l -1.000241,1.256299 c -1.120268,-0.792188 -2.488593,-1.264301 -3.976948,-1.296308 l -0.07202,-1.624387 c -0.02401,-0.800191 -0.624148,-1.568374 -0.624148,-1.568374 l -0.008,0 z m 3.760896,10.3944771 c 0,1.760418 -1.43234,3.200764 -3.200762,3.200764 -1.760419,0 -3.200762,-1.432345 -3.200762,-3.200764 0,-1.768422 1.424339,-3.2007636 3.200762,-3.2007636 1.760419,0 3.200762,1.4243396 3.200762,3.2007636 z"
       style="overflow:visible;fill:none;stroke:#000000;stroke-width:3.20076251" /><path
       inkscape:connector-curvature="0"
       id="path2487"
       d="m -60.717579,-15.84171 c -1.864443,0.08802 -3.600857,0.688164 -5.08121,1.632389 0,0 -0.04001,0.992236 0.392094,1.664396 l 0.872207,1.368326 c -1.120266,0.848202 -1.97647,2.0004769 -2.440581,3.3608009 l -1.536366,-0.4000952 c -0.768183,-0.2000472 -1.704406,0.1200288 -1.704406,0.1200288 -0.224054,0.8241956 -0.328078,1.7124076 -0.328078,2.6086216 0,0.960229 0.120029,1.872446 0.352084,2.744652 0,0 0.928221,0.32808 1.712408,0.112029 l 1.536366,-0.424101 c 0.472112,1.312314 1.328316,2.472591 2.424577,3.296786 l -0.864206,1.344321 c -0.424101,0.672159 -0.392093,1.672397 -0.392093,1.672397 1.472351,0.944225 3.200762,1.528362 5.065207,1.616383 0,0 0.584139,-0.76018 0.624148,-1.56037 l 0.07202,-1.616385 c 1.456347,-0.024 2.800668,-0.496116 3.928937,-1.256296 l 1.000236,1.240294 c 0.504121,0.616146 1.448345,0.904214 1.448345,0.904214 1.384332,-1.128269 2.480591,-2.600618 3.152754,-4.313027 0,0 -0.552132,-0.776184 -1.29631,-1.072258 l -1.504357,-0.600143 c 0.200048,-0.648151 0.304072,-1.360323 0.304072,-2.072493 0,-0.704167 -0.08802,-1.368325 -0.272063,-2.0164798 l 1.488352,-0.552132 c 0.752179,-0.288068 1.312312,-1.1122648 1.312312,-1.1122648 -0.640149,-1.7204095 -1.744414,-3.2247685 -3.144748,-4.3690405 0,0 -0.928221,0.288068 -1.440344,0.912217 l -1.000241,1.256299 c -1.120268,-0.792188 -2.488593,-1.264301 -3.976948,-1.296308 l -0.07202,-1.624387 c -0.02401,-0.800191 -0.624148,-1.568374 -0.624148,-1.568374 l -0.008,0 z m 3.760896,10.3944771 c 0,1.760418 -1.43234,3.200764 -3.200762,3.200764 -1.760419,0 -3.200762,-1.432345 -3.200762,-3.200764 0,-1.768422 1.424339,-3.2007636 3.200762,-3.2007636 1.760419,0 3.200762,1.4243396 3.200762,3.2007636 z"
       style="overflow:visible;fill:url(#linearGradient2538)" /></g></svg>