<?xml version="1.0" encoding="UTF-8" standalone="no"?>
<!DOCTYPE svg PUBLIC "-//W3C//DTD SVG 20010904//EN"
"http://www.w3.org/TR/2001/REC-SVG-20010904/DTD/svg10.dtd">
<!-- Created with Sodipodi ("http://www.sodipodi.com/") -->
<svg
   width="48pt"
   height="48pt"
   viewBox="-0.057 -0.352 119 124"
   overflow="visible"
   enable-background="new -0.057 -0.352 119 124"
   xml:space="preserve"
   xmlns="http://www.w3.org/2000/svg"
   xmlns:xml="http://www.w3.org/XML/1998/namespace"
   xmlns:a="http://ns.adobe.com/AdobeSVGViewerExtensions/3.0/"
   xmlns:sodipodi="http://sodipodi.sourceforge.net/DTD/sodipodi-0.dtd"
   xmlns:xlink="http://www.w3.org/1999/xlink"
   id="svg153"
   sodipodi:version="0.32pre"
   sodipodi:docname="/home/cschalle/gnome-themes-extras/Wasp/icons/scalable/apps/redhat-config-xfree86.svg"
   sodipodi:docbase="/home/cschalle/gnome-themes-extras/Wasp/icons/scalable/apps">
  <defs
     id="defs250" />
  <sodipodi:namedview
     id="base" />
  <g
     id="Layer_1_2_">
    <linearGradient
       id="XMLID_1_"
       gradientUnits="userSpaceOnUse"
       x1="92.9297"
       y1="75.8906"
       x2="68.507"
       y2="109.4922">
      <stop
         offset="0"
         style="stop-color:#FFFFFF"
         id="stop156" />
      <stop
         offset="1"
         style="stop-color:#1A1A1A"
         id="stop157" />
      
      
      
    </linearGradient>
    <path
       opacity="0.3"
       fill="url(#XMLID_1_)"
       d="M118.646,98.736l-22.742-7.201l0.59,9.164l-57.485,5.561l13.738,9.576l-25.042-0.162    l-10.716,6.471l74.9,1.014L118.646,98.736z"
       id="path161" />
    <path
       d="M24.573,0.578L1.99,21.416V88.65l71.379,34.508l23.208-21.418V34.504c0,0-4.087-1.975-5.138-2.482    c0-1.285,0-8.281,0-8.281L44.245,0.928c0,0-4.862,4.52-5.861,5.447C37.021,5.717,25.198,0,25.198,0L24.573,0.578z"
       id="path162" />
    <path
       d="M24.17,2.648L3.238,21.963v65.904l69.908,33.797l22.182-20.471V35.289c0,0-3.653-1.768-5.138-2.484    c0-2.061,0-8.279,0-8.279L44.471,2.424c0,0-4.313,4.01-5.86,5.447c-2.4-1.16-13.19-6.375-13.19-6.375L24.17,2.648z"
       id="path163" />
    <linearGradient
       id="XMLID_2_"
       gradientUnits="userSpaceOnUse"
       x1="62.9395"
       y1="33.4966"
       x2="61.0911"
       y2="15.013">
      <stop
         offset="0"
         style="stop-color:#FFFFFF"
         id="stop165" />
      <stop
         offset="0.2662"
         style="stop-color:#FAFAFA"
         id="stop166" />
      <stop
         offset="0.5674"
         style="stop-color:#EDEDED"
         id="stop167" />
      <stop
         offset="0.8845"
         style="stop-color:#D6D6D6"
         id="stop168" />
      <stop
         offset="1"
         style="stop-color:#CCCCCC"
         id="stop169" />
      
      
      
    </linearGradient>
    <path
       fill="url(#XMLID_2_)"
       d="M78.281,34.842L35.51,14.166l9.411-8.752l42.772,20.678L78.281,34.842z"
       id="path173" />
    <linearGradient
       id="XMLID_3_"
       gradientUnits="userSpaceOnUse"
       x1="91.4941"
       y1="68.7529"
       x2="70.715"
       y2="52.4762">
      <stop
         offset="0"
         style="stop-color:#999999"
         id="stop175" />
      <stop
         offset="0.6839"
         style="stop-color:#7B7B7B"
         id="stop176" />
      <stop
         offset="1"
         style="stop-color:#6B6B6B"
         id="stop177" />
      
      
      
    </linearGradient>
    <path
       fill="url(#XMLID_3_)"
       d="M87.693,89.334l-9.412,8.752V34.842l9.412-8.75V89.334z"
       id="path181" />
    <path
       d="M25.864,4.484L5.736,23.059v63.242l66.967,32.373L92.83,100.1V36.855L25.864,4.484z"
       id="path182" />
    <linearGradient
       id="XMLID_4_"
       gradientUnits="userSpaceOnUse"
       x1="67.4531"
       y1="121.5957"
       x2="39.276"
       y2="70.9675">
      <stop
         offset="0"
         style="stop-color:#FFFFFF"
         id="stop184" />
      <stop
         offset="0.4304"
         style="stop-color:#E1E1E1"
         id="stop185" />
      <stop
         offset="1"
         style="stop-color:#B3B3B3"
         id="stop186" />
      
      
      
    </linearGradient>
    <path
       fill="url(#XMLID_4_)"
       d="M72.703,118.674L5.736,86.301V23.059l66.967,32.373V118.674z"
       id="path190" />
    <path
       fill="#F2F2F2"
       d="M68.07,109.502L10.366,81.584V35.609l57.704,27.92V109.502z"
       id="path191" />
    <path
       fill="#555555"
       d="M13.971,79.957l-3.604,1.627V35.609l3.6,1.74L13.971,79.957z"
       id="path192" />
    <linearGradient
       id="XMLID_5_"
       gradientUnits="userSpaceOnUse"
       x1="54.5625"
       y1="105.9385"
       x2="38.2353"
       y2="68.6209">
      <stop
         offset="0"
         style="stop-color:#808080"
         id="stop194" />
      <stop
         offset="1"
         style="stop-color:#000000"
         id="stop195" />
      
      
      
    </linearGradient>
    <path
       fill="url(#XMLID_5_)"
       d="M64.465,104.387l-50.494-24.43V37.344l50.494,24.432V104.387z"
       id="path199" />
    <linearGradient
       id="XMLID_6_"
       gradientUnits="userSpaceOnUse"
       x1="23.7676"
       y1="41.4775"
       x2="50.639"
       y2="83.1128">
      <stop
         offset="0"
         style="stop-color:#808080"
         id="stop201" />
      <stop
         offset="1"
         style="stop-color:#000000"
         id="stop202" />
      
      
      
    </linearGradient>
    <path
       fill="url(#XMLID_6_)"
       d="M62.591,95.916L21.163,75.873V43.158l41.428,20.041V95.916z"
       id="path206" />
    <linearGradient
       id="XMLID_7_"
       gradientUnits="userSpaceOnUse"
       x1="51.5532"
       y1="52.6562"
       x2="48.4147"
       y2="21.2712">
      <stop
         offset="0"
         style="stop-color:#FFFFFF"
         id="stop208" />
      <stop
         offset="0.2662"
         style="stop-color:#FAFAFA"
         id="stop209" />
      <stop
         offset="0.5674"
         style="stop-color:#EDEDED"
         id="stop210" />
      <stop
         offset="0.8845"
         style="stop-color:#D6D6D6"
         id="stop211" />
      <stop
         offset="1"
         style="stop-color:#CCCCCC"
         id="stop212" />
      
      
      
    </linearGradient>
    <path
       fill="url(#XMLID_7_)"
       d="M72.703,55.432L5.736,23.059L25.864,4.484L92.83,36.855L72.703,55.432z"
       id="path216" />
    <linearGradient
       id="XMLID_8_"
       gradientUnits="userSpaceOnUse"
       x1="91.7676"
       y1="84.8154"
       x2="69.7837"
       y2="67.5949">
      <stop
         offset="0"
         style="stop-color:#999999"
         id="stop218" />
      <stop
         offset="0.6839"
         style="stop-color:#7B7B7B"
         id="stop219" />
      <stop
         offset="1"
         style="stop-color:#6B6B6B"
         id="stop220" />
      
      
      
    </linearGradient>
    <path
       fill="url(#XMLID_8_)"
       d="M92.83,100.1l-20.127,18.574V55.432L92.83,36.855V100.1z"
       id="path224" />
    <path
       fill="#808080"
       d="M67.173,110.844c0-0.438,0.239-0.689,0.573-0.668c-0.076-0.324-0.011-1.234-1.279-1    c-0.84-1.113-1.838-0.494-1.838,0.447c0,0.773,0.568,2.24,1.292,2.99c0.159,0.164,0.342,0.025,0.511,0.107    c0.15,0.072,0.422,0.387,0.559,0.379c0.446-0.025,0.66-0.453,0.858-0.951C67.463,111.867,67.173,111.324,67.173,110.844z"
       id="path225" />
    <path
       fill="#808080"
       d="M67.248,108.562c-0.214,0.299-0.662,0.348-0.662,0.348s-0.102-0.438,0.113-0.74    c0.215-0.299,0.664-0.348,0.664-0.348S67.463,108.262,67.248,108.562z"
       id="path226" />
    <path
       d="M49.425,50.34c0,0-9.161,1.195-9.667,1.26c-0.23,0.479-17.826,36.758-17.826,36.758s-6.187-10.547-6.503-11.086    C14.823,77.35,3.951,78.77,3.319,78.854C3.172,79.488,0.085,92.82,0,93.188c0.197,0.336,16.659,28.395,16.989,28.957    c0.503-0.07,2.203-0.312,2.203-0.312c0.001,0,8.273-0.938,9.62-1.09c0.237-0.492,29.495-61.199,29.773-61.777    c-0.317-0.365-1.295-1.488-1.295-1.488c0.005,0.008-0.003-0.002-5.876-6.92c0,0-0.206-0.242-0.365-0.432    C50.653,50.178,49.425,50.34,49.425,50.34z"
       id="path227" />
    <path
       fill="#890F05"
       d="M18.88,118.832l28.049-58.344l8.096-1.074l-28.206,58.52L18.88,118.832z"
       id="path228" />
    <linearGradient
       id="XMLID_9_"
       gradientUnits="userSpaceOnUse"
       x1="43.501"
       y1="64.4229"
       x2="49.3015"
       y2="55.5012">
      <stop
         offset="0"
         style="stop-color:#E6E6E6"
         id="stop230" />
      <stop
         offset="0.2673"
         style="stop-color:#EAC8C8"
         id="stop231" />
      <stop
         offset="0.8478"
         style="stop-color:#F67A7A"
         id="stop232" />
      <stop
         offset="1"
         style="stop-color:#F96565"
         id="stop233" />
      
      
      
    </linearGradient>
    <path
       fill="url(#XMLID_9_)"
       d="M46.955,60.496l-5.194-6.117l8.052-1.049l5.195,6.115L46.955,60.496z"
       id="path237" />
    <linearGradient
       id="XMLID_10_"
       gradientUnits="userSpaceOnUse"
       x1="7.0391"
       y1="108.7246"
       x2="17.6849"
       y2="87.8944">
      <stop
         offset="0"
         style="stop-color:#E6E6E6"
         id="stop239" />
      <stop
         offset="0.2673"
         style="stop-color:#EAC8C8"
         id="stop240" />
      <stop
         offset="0.8478"
         style="stop-color:#F67A7A"
         id="stop241" />
      <stop
         offset="1"
         style="stop-color:#F96565"
         id="stop242" />
      
      
      
    </linearGradient>
    <path
       fill="url(#XMLID_10_)"
       d="M18.258,102.828L5.352,81.268l9.325-1.07l11.634,21.58L18.258,102.828z"
       id="path246" />
    <path
       fill="#DD1407"
       d="M46.955,60.496l-28.347,58.447L2.365,92.578l2.981-11.303l12.911,21.57l23.503-48.467L46.955,60.496z"
       id="path247" />
    <path
       d="M38.923,10.787l49.215,23.781l0.881-1.795L39.804,8.992L38.923,10.787z"
       id="path248" />
  </g>
</svg>
