<?xml version="1.0" encoding="UTF-8" standalone="no"?>
<!-- Generator: Adobe Illustrator 10.0.3, SVG Export Plug-In . SVG Version: 3.0.0 Build 77)  -->

<svg
   xmlns:a="http://ns.adobe.com/AdobeSVGViewerExtensions/3.0/"
   xmlns:dc="http://purl.org/dc/elements/1.1/"
   xmlns:cc="http://creativecommons.org/ns#"
   xmlns:rdf="http://www.w3.org/1999/02/22-rdf-syntax-ns#"
   xmlns:svg="http://www.w3.org/2000/svg"
   xmlns="http://www.w3.org/2000/svg"
   xmlns:xlink="http://www.w3.org/1999/xlink"
   xmlns:sodipodi="http://sodipodi.sourceforge.net/DTD/sodipodi-0.dtd"
   xmlns:inkscape="http://www.inkscape.org/namespaces/inkscape"
   width="32"
   height="32"
   viewBox="-0.033 -0.097 121 122"
   overflow="visible"
   enable-background="new -0.033 -0.097 121 122"
   xml:space="preserve"
   id="svg2"
   sodipodi:version="0.32"
   inkscape:version="0.48.3.1 r9886"
   sodipodi:docname="list_remove.svg"
   inkscape:output_extension="org.inkscape.output.svg.inkscape"
   version="1.0"
   style="overflow:visible"><metadata
   id="metadata56"><rdf:RDF><cc:Work
       rdf:about=""><dc:format>image/svg+xml</dc:format><dc:type
         rdf:resource="http://purl.org/dc/dcmitype/StillImage" /><dc:title /></cc:Work></rdf:RDF></metadata><defs
   id="defs54"><inkscape:perspective
   sodipodi:type="inkscape:persp3d"
   inkscape:vp_x="0 : 24 : 1"
   inkscape:vp_y="0 : 1000 : 0"
   inkscape:vp_z="48 : 24 : 1"
   inkscape:persp3d-origin="24 : 16 : 1"
   id="perspective58" />
		
		<linearGradient
   y2="66.058502"
   x2="103.745"
   y1="30.3428"
   x1="25.819799"
   gradientUnits="userSpaceOnUse"
   id="XMLID_1_">
			<stop
   id="stop8"
   style="stop-color:#CB2F39"
   offset="0" />
			<stop
   id="stop10"
   style="stop-color:#F81314"
   offset="0.309" />
			<stop
   id="stop12"
   style="stop-color:#8D1214"
   offset="1" />
		</linearGradient>
		
		
		
		
		
		
		<linearGradient
   y2="84.4646"
   x2="43.597099"
   y1="84.938499"
   x1="46.0532"
   gradientUnits="userSpaceOnUse"
   id="XMLID_2_">
			<stop
   id="stop27"
   style="stop-color:#FFFFFF"
   offset="0" />
			<stop
   id="stop29"
   style="stop-color:#CCCCCC"
   offset="1" />
		</linearGradient>
		
		
		<linearGradient
   y2="64.203903"
   x2="61.155899"
   y1="66.057602"
   x1="70.762703"
   gradientUnits="userSpaceOnUse"
   id="XMLID_3_">
			<stop
   id="stop36"
   style="stop-color:#FFFFFF"
   offset="0" />
			<stop
   id="stop38"
   style="stop-color:#CCCCCC"
   offset="1" />
		</linearGradient>
		
		
		
		<linearGradient
   y2="96.055702"
   x2="52.383301"
   y1="35.398399"
   x1="52.383301"
   gradientUnits="userSpaceOnUse"
   id="XMLID_4_">
			<stop
   id="stop47"
   style="stop-color:#FFFFFF"
   offset="0" />
			<stop
   id="stop49"
   style="stop-color:#000000"
   offset="1" />
		</linearGradient>
		
	<linearGradient
   inkscape:collect="always"
   xlink:href="#XMLID_4_"
   id="linearGradient2852"
   gradientUnits="userSpaceOnUse"
   x1="52.383301"
   y1="35.398399"
   x2="52.383301"
   y2="96.055702"
   gradientTransform="matrix(0.99306638,0,0,0.99306638,0.10364548,0.20512852)" /><linearGradient
   inkscape:collect="always"
   xlink:href="#XMLID_3_"
   id="linearGradient2857"
   gradientUnits="userSpaceOnUse"
   x1="70.762703"
   y1="66.057602"
   x2="61.155899"
   y2="64.203903"
   gradientTransform="matrix(0.99306638,0,0,0.99306638,0.10364548,0.20512852)" /><linearGradient
   inkscape:collect="always"
   xlink:href="#XMLID_2_"
   id="linearGradient2861"
   gradientUnits="userSpaceOnUse"
   x1="46.0532"
   y1="84.938499"
   x2="43.597099"
   y2="84.4646"
   gradientTransform="matrix(0.6927824,0,0,0.6927824,16.170259,16.170192)" /><linearGradient
   inkscape:collect="always"
   xlink:href="#XMLID_1_"
   id="linearGradient2869"
   gradientUnits="userSpaceOnUse"
   x1="25.819799"
   y1="30.3428"
   x2="103.745"
   y2="66.058502"
   gradientTransform="matrix(0.99306638,0,0,0.99306638,0.10364548,0.20512852)" /></defs><sodipodi:namedview
   inkscape:window-height="1018"
   inkscape:window-width="1918"
   inkscape:pageshadow="2"
   inkscape:pageopacity="0.0"
   guidetolerance="10.0"
   gridtolerance="10.0"
   objecttolerance="10.0"
   borderopacity="1.0"
   bordercolor="#666666"
   pagecolor="#ffffff"
   id="base"
   showgrid="false"
   inkscape:zoom="19.333333"
   inkscape:cx="24"
   inkscape:cy="15.724138"
   inkscape:window-x="2"
   inkscape:window-y="30"
   inkscape:current-layer="svg2"
   inkscape:window-maximized="1" />
	<path
   id="path5"
   d="M 30.860895,10.013645 14.88345,24.422046 c -0.06951,0.06455 -0.478658,0.447872 -0.478658,0.447872 -9.2226052,7.929635 -14.30114652,19.66768 -14.30114652,33.052228 0,28.423547 23.09971452,56.355524 51.49446352,62.267254 15.774858,3.28605 30.618222,-0.68522 40.722671,-10.89792 -0.06753,0.0616 16.34291,-14.7371 16.34291,-14.7371 l 0.0656,-0.05858 0.0616,-0.06257 C 116.48218,86.623754 120.7186,75.66626 120.7186,63.578657 120.7186,35.157096 97.617867,7.2241252 69.224113,1.3124006 54.800737,-1.6906372 40.819355,1.4802249 30.860884,10.013644 z"
   inkscape:connector-curvature="0" /><path
   style="fill:url(#linearGradient2869)"
   id="path14"
   d="m 16.387946,27.075519 c 8.960438,-7.677398 21.692543,-10.987286 35.815933,-8.047809 27.129579,5.648561 49.122041,32.220039 49.122041,59.349618 0,11.787698 -4.15103,21.740212 -11.070717,28.764172 L 106.66763,92.341828 c 6.91969,-7.024953 11.0707,-16.977464 11.0707,-28.764168 0,-27.129581 -21.992463,-53.7010576 -49.123037,-59.3496188 C 54.491902,1.2875711 41.760791,4.5974618 32.799361,12.27585 L 16.387946,27.075519 z"
   inkscape:connector-curvature="0" /><path
   style="fill:#ac1214"
   id="path16"
   d="m 101.32691,78.378322 c 0,27.129578 -21.992458,44.542998 -49.122039,38.893448 C 25.075291,111.6232 3.0828442,85.050734 3.0828442,57.922146 c 0,-27.130573 21.9924468,-44.542006 49.1210348,-38.893445 27.129579,5.648562 49.123031,32.219048 49.123031,59.349621 z"
   inkscape:connector-curvature="0" /><path
   style="fill:#ffffff"
   id="path18"
   d="M 82.906511,66.867689 59.880282,62.073165 44.52946,58.877478 21.503231,54.082951 l 0,15.350822 23.026229,4.794524 15.350822,3.195688 23.026229,4.794523 0,-15.350819 z"
   sodipodi:nodetypes="ccccccccc"
   inkscape:connector-curvature="0" /><path
   style="fill:#cccccc"
   id="path22"
   d="m 80.445694,78.755687 2.460817,3.463815 0,-15.351813 -2.405206,2.595875 -0.0556,9.292123 z"
   inkscape:connector-curvature="0" /><path
   style="fill:#cccccc"
   id="path33"
   d="m 21.503231,69.433773 23.026229,4.794524 2.407194,-2.413151 -22.953736,-4.875957 -2.479687,2.494584 z"
   inkscape:connector-curvature="0" /><path
   style="fill:url(#linearGradient2857)"
   id="path40"
   d="m 57.466137,64.66904 23.02623,4.794524 2.414144,-2.595875 -23.026229,-4.794524 -2.414145,2.595875 z"
   inkscape:connector-curvature="0" /><path
   style="fill:#cccccc"
   id="path42"
   d="m 38.020225,72.902209 44.886286,9.317293 -2.515438,-3.463815 -44.887278,-9.317295 2.51643,3.463817 z"
   sodipodi:nodetypes="ccccc"
   inkscape:connector-curvature="0" /><path
   style="opacity:0.3;fill:url(#linearGradient2852)"
   id="path51"
   d="M 18.553819,28.266205 C 10.062115,35.171989 5.3857661,45.704451 5.3857661,57.922146 c 0,1.045699 0.051634,2.136086 0.1290963,3.245342 18.5782816,-9.207711 38.6541116,-1.56706 58.0943816,5.847175 7.876014,3.003033 15.316059,5.841216 22.676677,7.631714 4.168892,1.042721 8.479781,1.201611 12.577173,0.547181 C 98.084532,63.340317 93.056647,51.38777 84.534149,41.391564 75.660099,30.980257 64.011441,23.839114 51.735148,21.282962 39.108307,18.654315 27.325578,21.133009 18.553819,28.266205 z"
   a:adobe-blending-mode="screen"
   inkscape:connector-curvature="0" />
</svg>