<?xml version="1.0" encoding="UTF-8" standalone="no"?>
<svg
   xmlns:dc="http://purl.org/dc/elements/1.1/"
   xmlns:cc="http://creativecommons.org/ns#"
   xmlns:rdf="http://www.w3.org/1999/02/22-rdf-syntax-ns#"
   xmlns:svg="http://www.w3.org/2000/svg"
   xmlns="http://www.w3.org/2000/svg"
   xmlns:xlink="http://www.w3.org/1999/xlink"
   xmlns:sodipodi="http://sodipodi.sourceforge.net/DTD/sodipodi-0.dtd"
   xmlns:inkscape="http://www.inkscape.org/namespaces/inkscape"
   version="1.1"
   width="64"
   height="64"
   color-interpolation="linearRGB"
   id="svg2"
   inkscape:version="0.91 r13725"
   sodipodi:docname="retrosmart-misc-antenna-transmit-receive.svg">
  <metadata
     id="metadata52">
    <rdf:RDF>
      <cc:Work
         rdf:about="">
        <dc:format>image/svg+xml</dc:format>
        <dc:type
           rdf:resource="http://purl.org/dc/dcmitype/StillImage" />
        <dc:title></dc:title>
      </cc:Work>
    </rdf:RDF>
  </metadata>
  <defs
     id="defs50">
    <linearGradient
       inkscape:collect="always"
       id="linearGradient7529">
      <stop
         style="stop-color:#ff0000;stop-opacity:1"
         offset="0"
         id="stop7531" />
      <stop
         style="stop-color:#00ffff;stop-opacity:1"
         offset="1"
         id="stop7533" />
    </linearGradient>
    <linearGradient
       y2="2"
       x2="22"
       y1="14"
       x1="22"
       gradientUnits="userSpaceOnUse"
       id="gradient0"
       gradientTransform="matrix(3.7023,0,0,3.7023,-75.6666,-21.619)">
      <stop
         id="stop7"
         stop-opacity="0"
         stop-color="#ff0505"
         offset="0.3333" />
      <stop
         id="stop9"
         stop-opacity="0"
         stop-color="#ff0606"
         offset="0.8257" />
      <stop
         id="stop11"
         stop-color="#ff0606"
         offset="0.4886" />
    </linearGradient>
    <radialGradient
       gradientTransform="matrix(0.1542,-0.0247,-0.0593,-0.3702,39.9635,40.6404)"
       r="64"
       cy="0"
       cx="0"
       gradientUnits="userSpaceOnUse"
       id="gradient1">
      <stop
         id="stop22"
         stop-color="#8fa0b1"
         offset="0" />
      <stop
         id="stop24"
         stop-color="#677788"
         offset="1" />
    </radialGradient>
    <radialGradient
       gradientTransform="matrix(0.1721,0.0536,-0.1393,0.4475,24.8856,26.1233)"
       r="64"
       cy="0"
       cx="0"
       gradientUnits="userSpaceOnUse"
       id="gradient2">
      <stop
         id="stop29"
         stop-color="#f0f7fd"
         offset="0" />
      <stop
         id="stop31"
         stop-color="#aebfd0"
         offset="1" />
    </radialGradient>
    <radialGradient
       gradientTransform="matrix(0.1406,0,0,0.1406,26,6)"
       r="64"
       cy="0"
       cx="0"
       gradientUnits="userSpaceOnUse"
       id="gradient3">
      <stop
         id="stop38"
         stop-color="#677788"
         offset="0.8181" />
      <stop
         id="stop40"
         stop-color="#8ea5bc"
         offset="0.6136" />
      <stop
         id="stop42"
         stop-color="#ffffff"
         offset="0.0037" />
      <stop
         id="stop44"
         stop-color="#8ea5bc"
         offset="1" />
    </radialGradient>
    <radialGradient
       inkscape:collect="always"
       xlink:href="#linearGradient7529"
       id="radialGradient7535"
       cx="27.997801"
       cy="7.9994001"
       fx="27.997801"
       fy="7.9994001"
       r="29.6184"
       gradientUnits="userSpaceOnUse"
       gradientTransform="matrix(0.98857043,-0.98164757,0.97156378,0.97841554,-7.4519258,27.656637)" />
  </defs>
  <sodipodi:namedview
     pagecolor="#ffffff"
     bordercolor="#666666"
     borderopacity="1"
     objecttolerance="10"
     gridtolerance="10"
     guidetolerance="10"
     inkscape:pageopacity="0"
     inkscape:pageshadow="2"
     inkscape:window-width="1364"
     inkscape:window-height="704"
     id="namedview48"
     showgrid="false"
     inkscape:zoom="3.0154636"
     inkscape:cx="26.845622"
     inkscape:cy="59.436144"
     inkscape:window-x="2"
     inkscape:window-y="30"
     inkscape:window-maximized="1"
     inkscape:current-layer="svg2" />
  <path
     inkscape:connector-curvature="0"
     id="path13"
     d="m 27.9978,-14.2144 c -11.1069,0 -22.2138,11.1069 -22.2138,22.2138 0,11.1069 11.1069,22.2138 22.2138,22.2138 11.1069,0 22.2138,-11.1069 22.2138,-22.2138 0,-11.1069 -11.1069,-22.2138 -22.2138,-22.2138 z"
     style="fill:none;stroke:url(#radialGradient7535);stroke-width:14.80920029;stroke-opacity:1" />
  <path
     inkscape:connector-curvature="0"
     id="path15"
     d="m 8,52 52,6 -28,4 M 26,42 60,58 48,48 m 11,8 c -4,0 -4,4 0,4 4,0 4,-4 0,-4 z"
     style="fill:none;stroke:#000000;stroke-width:4;stroke-linecap:round;stroke-linejoin:round;stroke-opacity:0.447" />
  <path
     inkscape:connector-curvature="0"
     id="path17"
     d="M 32,62 28,10 48,48 m -16,6 12,-12 -14,0 10,-8 -10,-2 6,-6 -6,0 3,-5 -3,-1 2,-2"
     style="fill:none;stroke:#010101;stroke-width:6;stroke-linecap:round;stroke-linejoin:round" />
  <path
     inkscape:connector-curvature="0"
     id="path19"
     d="M 8,52 28,10 32,62 M 30,54 12,46 30,42 16,36 28,32 20,28 28,26 23,23 28,20 25,18"
     style="fill:none;stroke:#010101;stroke-width:6;stroke-linecap:round;stroke-linejoin:round" />
  <path
     inkscape:connector-curvature="0"
     id="path26"
     d="M 32,62 28,10 48,48 m -16,6 12,-12 -14,0 10,-8 -10,-2 6,-6 -6,0 3,-5 -3,-1 2,-2"
     style="fill:none;stroke:url(#gradient1);stroke-width:2;stroke-linecap:round;stroke-linejoin:round" />
  <path
     inkscape:connector-curvature="0"
     id="path33"
     d="M 8,52 28,10 32,62 M 30,54 12,46 30,42 16,36 28,32 20,28 28,26 23,23 28,20 25,18"
     style="fill:none;stroke:url(#gradient2);stroke-width:2;stroke-linecap:round;stroke-linejoin:round" />
  <path
     inkscape:connector-curvature="0"
     id="path35"
     d="m 28,2 c -3,0 -6,3 -6,6 0,3 3,6 6,6 3,0 6,-3 6,-6 0,-3 -3,-6 -6,-6 z"
     style="fill:none;stroke:#010101;stroke-width:4" />
  <path
     inkscape:connector-curvature="0"
     id="path46"
     d="m 28,2 c -3,0 -6,3 -6,6 0,3 3,6 6,6 3,0 6,-3 6,-6 0,-3 -3,-6 -6,-6 z"
     style="fill:url(#gradient3)" />
</svg>
