<?xml version="1.0" encoding="UTF-8" standalone="no"?>
<svg
   xmlns:dc="http://purl.org/dc/elements/1.1/"
   xmlns:cc="http://creativecommons.org/ns#"
   xmlns:rdf="http://www.w3.org/1999/02/22-rdf-syntax-ns#"
   xmlns:svg="http://www.w3.org/2000/svg"
   xmlns="http://www.w3.org/2000/svg"
   xmlns:sodipodi="http://sodipodi.sourceforge.net/DTD/sodipodi-0.dtd"
   xmlns:inkscape="http://www.inkscape.org/namespaces/inkscape"
   version="1.1"
   width="64"
   height="64"
   color-interpolation="linearRGB"
   id="svg2"
   inkscape:version="0.91 r13725"
   sodipodi:docname="retrosmart-funnel.svg">
  <metadata
     id="metadata67">
    <rdf:RDF>
      <cc:Work
         rdf:about="">
        <dc:format>image/svg+xml</dc:format>
        <dc:type
           rdf:resource="http://purl.org/dc/dcmitype/StillImage" />
        <dc:title></dc:title>
      </cc:Work>
    </rdf:RDF>
  </metadata>
  <defs
     id="defs65" />
  <sodipodi:namedview
     pagecolor="#ffffff"
     bordercolor="#666666"
     borderopacity="1"
     objecttolerance="10"
     gridtolerance="10"
     guidetolerance="10"
     inkscape:pageopacity="0"
     inkscape:pageshadow="2"
     inkscape:window-width="739"
     inkscape:window-height="497"
     id="namedview63"
     showgrid="false"
     inkscape:zoom="3.6875"
     inkscape:cx="35.598095"
     inkscape:cy="32"
     inkscape:window-x="0"
     inkscape:window-y="30"
     inkscape:window-maximized="0"
     inkscape:current-layer="svg2" />
  <g
     id="g4"
     transform="matrix(-0.5,0.8660254,0.8660254,0.5,20.354174,-9.1391608)">
    <path
       style="fill:#000000;fill-opacity:0.4"
       d="m 4,41 c 6,16 21,23 30,23 9,0 19.99,-7 19.99,-13 0.01,-6 0,-13.77 0,-13.77 0,0 2.01,-1.23 4.01,-2.23 2,-1 3,-3 3,-4 0,-3 -5,-5 -5,-5"
       id="path6"
       inkscape:connector-curvature="0" />
    <path
       style="fill:none;stroke:#000000;stroke-width:4"
       d="M 55.5,25 46.4,25 31.44,7.42 C 29.04,4.63 26.13,3 23,3 L 18,3 C 9.71,3 3,14.41 3,28.5 3,42.58 9.71,54 18,54 l 5,0 c 3.13,0 6.04,-1.64 8.45,-4.43 L 46.4,32 55.5,32 C 56.88,32 58,30.43 58,28.5 58,26.56 56.88,25 55.5,25 Z"
       id="path8"
       inkscape:connector-curvature="0" />
    <linearGradient
       id="gradient0"
       gradientUnits="userSpaceOnUse"
       x1="128"
       y1="24"
       x2="128"
       y2="32">
      <stop
         offset="0"
         stop-color="#ffffff"
         id="stop11" />
      <stop
         offset="0.4625"
         stop-color="#fffdc7"
         id="stop13" />
      <stop
         offset="1"
         stop-color="#aecb68"
         id="stop15" />
    </linearGradient>
    <path
       style="fill:url(#gradient0)"
       d="m 47,25 8.5,0 c 1.38,0 2.5,1.56 2.5,3.5 0,1.93 -1.12,3.5 -2.5,3.5 L 47,32"
       id="path17"
       inkscape:connector-curvature="0" />
    <linearGradient
       id="gradient1"
       gradientUnits="userSpaceOnUse"
       x1="-6"
       y1="39"
       x2="-6"
       y2="17">
      <stop
         offset="0"
         stop-color="#ecf08e"
         id="stop20" />
      <stop
         offset="1"
         stop-color="#73a103"
         id="stop22" />
    </linearGradient>
    <path
       style="fill:url(#gradient1)"
       d="M 47.06,25.77 31.44,7.42 C 35.4,12.01 38,19.74 38,28.5 38,37.25 35.4,44.97 31.45,49.57 L 47.06,31.22 C 47.63,30.58 48,29.6 48,28.5 48,27.39 47.63,26.41 47.06,25.77 Z"
       id="path24"
       inkscape:connector-curvature="0" />
    <linearGradient
       id="gradient2"
       gradientUnits="userSpaceOnUse"
       x1="128"
       y1="4"
       x2="128"
       y2="54">
      <stop
         offset="0"
         stop-color="#ffffff"
         id="stop27" />
      <stop
         offset="0.4788"
         stop-color="#f5ffc7"
         id="stop29" />
      <stop
         offset="1"
         stop-color="#aecb68"
         id="stop31" />
    </linearGradient>
    <path
       style="fill:url(#gradient2)"
       d="M 18,54 C 26.28,54 33,42.58 33,28.5 33,14.41 26.28,3 18,3 l 5,0 C 31.28,3 38,14.41 38,28.5 38,42.58 31.28,54 23,54 l -5,0 z"
       id="path33"
       inkscape:connector-curvature="0" />
    <linearGradient
       id="gradient3"
       gradientUnits="userSpaceOnUse"
       x1="128"
       y1="4"
       x2="128"
       y2="54">
      <stop
         offset="0"
         stop-color="#ffffff"
         id="stop36" />
      <stop
         offset="0.4788"
         stop-color="#f5ffc7"
         id="stop38" />
      <stop
         offset="1"
         stop-color="#aecb68"
         id="stop40" />
    </linearGradient>
    <path
       style="fill:url(#gradient3)"
       d="M 8,28.5 C 8,25.85 8.23,23.29 8.67,20.89 L 3.99,19.33 C 3.35,22.17 3,25.26 3,28.5 3,42.58 9.71,54 18,54 18.85,54 19.68,53.87 20.5,53.64 13.4,51.62 8,41.13 8,28.5 Z"
       id="path42"
       inkscape:connector-curvature="0" />
    <path
       style="fill:#aecb68"
       d="M 20.5,3.35 C 19.68,3.12 18.85,3 18,3 11.61,3 6.16,9.77 3.99,19.33 l 4.68,1.56 C 10.34,11.83 14.89,4.95 20.5,3.35 Z"
       id="path44"
       inkscape:connector-curvature="0" />
    <linearGradient
       id="gradient4"
       gradientUnits="userSpaceOnUse"
       x1="87"
       y1="22"
       x2="87"
       y2="36">
      <stop
         offset="0"
         stop-color="#ecf08e"
         id="stop47" />
      <stop
         offset="1"
         stop-color="#73a104"
         id="stop49" />
    </linearGradient>
    <path
       style="fill:url(#gradient4)"
       d="M 9,21 8.67,20.89 C 8.23,23.29 8,25.85 8,28.5 8,41.13 13.4,51.62 20.5,53.64 27.28,51.71 32.52,42.04 32.96,30.15 16.87,17.04 13.89,18.06 9,21 Z"
       id="path51"
       inkscape:connector-curvature="0" />
    <path
       style="fill:#4c6b02"
       d="M 20.5,3.35 C 14.89,4.95 10.34,11.83 8.67,20.89 L 9,21 c 4.89,-2.94 7.87,-3.96 23.96,9.15 C 32.98,29.6 33,29.05 33,28.5 33,15.86 27.59,5.37 20.5,3.35 Z"
       id="path53"
       inkscape:connector-curvature="0" />
    <path
       style="fill:#000000"
       d="M 18,3 C 16.19,3 14.45,3.54 12.84,4.54 13.86,4.18 14.91,4 16,4 24.28,4 31,14.96 31,28.5 31,42.03 24.28,53 16,53 14.91,53 13.86,52.81 12.84,52.45 14.45,53.45 16.19,54 18,54 26.28,54 33,42.58 33,28.5 33,14.41 26.28,3 18,3 Z"
       id="path55"
       inkscape:connector-curvature="0" />
    <path
       style="fill:#000000"
       d="M 33.45,49.57 C 37.18,44.97 39.41,37.25 39,28.5 38.58,19.74 35.62,12.01 31.44,7.42 35.4,12.01 38,19.74 38,28.5 c 0,8.75 -2.6,16.47 -6.55,21.07 l 2,0 z"
       id="path57"
       inkscape:connector-curvature="0" />
    <path
       style="fill:#000000"
       d="M 22.5,4.35 C 15.47,6.26 9.76,16.48 9.25,28.87 8.75,41.25 13.63,51.58 20.5,53.64 13.4,51.62 8,41.13 8,28.5 8,15.86 13.4,5.37 20.5,3.35"
       id="path59"
       inkscape:connector-curvature="0" />
    <path
       style="fill:#000000"
       d="m 48.4,32 0.55,-0.78 c 0.48,-0.64 0.7,-1.62 0.55,-2.72 -0.16,-1.11 -0.67,-2.09 -1.33,-2.73 L 47.4,25 l -1,0 0.66,0.77 c 0.57,0.64 0.94,1.62 0.94,2.72 0,1.11 -0.37,2.09 -0.94,2.73 L 46.4,32 l 2,0 z"
       id="path61"
       inkscape:connector-curvature="0" />
  </g>
</svg>
