<?xml version="1.0" encoding="UTF-8" standalone="no"?>
<svg
   xmlns:dc="http://purl.org/dc/elements/1.1/"
   xmlns:cc="http://creativecommons.org/ns#"
   xmlns:rdf="http://www.w3.org/1999/02/22-rdf-syntax-ns#"
   xmlns:svg="http://www.w3.org/2000/svg"
   xmlns="http://www.w3.org/2000/svg"
   xmlns:sodipodi="http://sodipodi.sourceforge.net/DTD/sodipodi-0.dtd"
   xmlns:inkscape="http://www.inkscape.org/namespaces/inkscape"
   version="1.1"
   width="64"
   height="64"
   color-interpolation="linearRGB"
   id="svg2"
   inkscape:version="0.91 r13725"
   sodipodi:docname="retrosmart-network-proxy.svg">
  <metadata
     id="metadata67">
    <rdf:RDF>
      <cc:Work
         rdf:about="">
        <dc:format>image/svg+xml</dc:format>
        <dc:type
           rdf:resource="http://purl.org/dc/dcmitype/StillImage" />
        <dc:title></dc:title>
      </cc:Work>
    </rdf:RDF>
  </metadata>
  <defs
     id="defs65">
    <linearGradient
       gradientTransform="matrix(1 0 0 -1 233.1519 413.8262)"
       y2="380.8235"
       x2="-203.8642"
       y1="376.2266"
       x1="-195.5322"
       gradientUnits="userSpaceOnUse"
       id="XMLID_7_">
      <stop
         id="stop248"
         style="stop-color:#FFFFFF"
         offset="0" />
      <stop
         id="stop249"
         style="stop-color:#000000"
         offset="1" />
    </linearGradient>
    <linearGradient
       id="gradient0-0"
       gradientUnits="userSpaceOnUse"
       x1="13"
       y1="-20"
       x2="47"
       y2="-20">
      <stop
         offset="0"
         stop-color="#eeffac"
         id="stop3080" />
      <stop
         offset="1"
         stop-color="#d5e68f"
         id="stop3082" />
    </linearGradient>
    <linearGradient
       id="gradient2-3"
       gradientUnits="userSpaceOnUse"
       x1="46.93"
       y1="-1.38"
       x2="67.709999"
       y2="15">
      <stop
         offset="0"
         stop-color="#4c5e02"
         id="stop3096" />
      <stop
         offset="1"
         stop-color="#698303"
         id="stop3098" />
    </linearGradient>
    <linearGradient
       id="gradient3-8"
       gradientUnits="userSpaceOnUse"
       x1="54.400002"
       y1="-7.2800002"
       x2="72.739998"
       y2="22.809999">
      <stop
         offset="0"
         stop-color="#97e306"
         id="stop3103" />
      <stop
         offset="1"
         stop-color="#81a104"
         id="stop3105" />
    </linearGradient>
  </defs>
  <sodipodi:namedview
     pagecolor="#ffffff"
     bordercolor="#666666"
     borderopacity="1"
     objecttolerance="10"
     gridtolerance="10"
     guidetolerance="10"
     inkscape:pageopacity="0"
     inkscape:pageshadow="2"
     inkscape:window-width="739"
     inkscape:window-height="691"
     id="namedview63"
     showgrid="false"
     inkscape:zoom="3.3404964"
     inkscape:cx="45.068226"
     inkscape:cy="23.517664"
     inkscape:window-x="609"
     inkscape:window-y="30"
     inkscape:window-maximized="0"
     inkscape:current-layer="g4" />
  <g
     id="g4"
     transform="matrix(-0.00876156,0.6525395,0.6525395,0.00876156,13.212898,24.700955)">
    <path
       style="fill:#000000;fill-opacity:0.4"
       d="m 42.064103,66.752813 c 0,0 12.267507,5.193229 18.47849,-16.697653 C 60.542593,50.05516 56,36 58,35 c 2,-1 3,-3 3,-4 0,-3 -5,-5 -5,-5 0,0 3.73519,-20.4957956 -8.723555,6.639187 -17.516473,27.984586 -5.212342,34.113626 -5.212342,34.113626 z"
       id="path6"
       inkscape:connector-curvature="0"
       sodipodi:nodetypes="ccssccc" />
    <path
       style="fill:none;stroke:#000000;stroke-width:4"
       d="M 55.5,25 46.4,25 31.44,7.42 C 29.04,4.63 26.13,3 23,3 L 18,3 C 9.71,3 3,14.41 3,28.5 3,42.58 9.71,54 18,54 l 5,0 c 3.13,0 6.04,-1.64 8.45,-4.43 L 46.4,32 55.5,32 C 56.88,32 58,30.43 58,28.5 58,26.56 56.88,25 55.5,25 Z"
       id="path8"
       inkscape:connector-curvature="0" />
    <linearGradient
       id="gradient0"
       gradientUnits="userSpaceOnUse"
       x1="128"
       y1="24"
       x2="128"
       y2="32">
      <stop
         offset="0"
         stop-color="#ffffff"
         id="stop11" />
      <stop
         offset="0.4625"
         stop-color="#fffdc7"
         id="stop13" />
      <stop
         offset="1"
         stop-color="#aecb68"
         id="stop15" />
    </linearGradient>
    <path
       style="fill:url(#gradient0)"
       d="m 47,25 8.5,0 c 1.38,0 2.5,1.56 2.5,3.5 0,1.93 -1.12,3.5 -2.5,3.5 L 47,32"
       id="path17"
       inkscape:connector-curvature="0" />
    <linearGradient
       id="gradient1"
       gradientUnits="userSpaceOnUse"
       x1="-6"
       y1="39"
       x2="-6"
       y2="17">
      <stop
         offset="0"
         stop-color="#ecf08e"
         id="stop20" />
      <stop
         offset="1"
         stop-color="#73a103"
         id="stop22" />
    </linearGradient>
    <path
       style="fill:url(#gradient1)"
       d="M 47.06,25.77 31.44,7.42 C 35.4,12.01 38,19.74 38,28.5 38,37.25 35.4,44.97 31.45,49.57 L 47.06,31.22 C 47.63,30.58 48,29.6 48,28.5 48,27.39 47.63,26.41 47.06,25.77 Z"
       id="path24"
       inkscape:connector-curvature="0" />
    <linearGradient
       id="gradient2"
       gradientUnits="userSpaceOnUse"
       x1="128"
       y1="4"
       x2="128"
       y2="54">
      <stop
         offset="0"
         stop-color="#ffffff"
         id="stop27" />
      <stop
         offset="0.4788"
         stop-color="#f5ffc7"
         id="stop29" />
      <stop
         offset="1"
         stop-color="#aecb68"
         id="stop31" />
    </linearGradient>
    <path
       style="fill:url(#gradient2)"
       d="M 18,54 C 26.28,54 33,42.58 33,28.5 33,14.41 26.28,3 18,3 l 5,0 C 31.28,3 38,14.41 38,28.5 38,42.58 31.28,54 23,54 l -5,0 z"
       id="path33"
       inkscape:connector-curvature="0" />
    <linearGradient
       id="gradient3"
       gradientUnits="userSpaceOnUse"
       x1="128"
       y1="4"
       x2="128"
       y2="54">
      <stop
         offset="0"
         stop-color="#ffffff"
         id="stop36" />
      <stop
         offset="0.4788"
         stop-color="#f5ffc7"
         id="stop38" />
      <stop
         offset="1"
         stop-color="#aecb68"
         id="stop40" />
    </linearGradient>
    <path
       style="fill:url(#gradient3)"
       d="M 8,28.5 C 8,25.85 8.23,23.29 8.67,20.89 L 3.99,19.33 C 3.35,22.17 3,25.26 3,28.5 3,42.58 9.71,54 18,54 18.85,54 19.68,53.87 20.5,53.64 13.4,51.62 8,41.13 8,28.5 Z"
       id="path42"
       inkscape:connector-curvature="0" />
    <path
       style="fill:#aecb68"
       d="M 20.5,3.35 C 19.68,3.12 18.85,3 18,3 11.61,3 6.16,9.77 3.99,19.33 l 4.68,1.56 C 10.34,11.83 14.89,4.95 20.5,3.35 Z"
       id="path44"
       inkscape:connector-curvature="0" />
    <linearGradient
       id="gradient4"
       gradientUnits="userSpaceOnUse"
       x1="87"
       y1="22"
       x2="87"
       y2="36">
      <stop
         offset="0"
         stop-color="#ecf08e"
         id="stop47" />
      <stop
         offset="1"
         stop-color="#73a104"
         id="stop49" />
    </linearGradient>
    <path
       style="fill:url(#gradient4)"
       d="M 9,21 8.67,20.89 C 8.23,23.29 8,25.85 8,28.5 8,41.13 13.4,51.62 20.5,53.64 27.28,51.71 32.52,42.04 32.96,30.15 16.87,17.04 13.89,18.06 9,21 Z"
       id="path51"
       inkscape:connector-curvature="0" />
    <path
       style="fill:#4c6b02"
       d="M 20.5,3.35 C 14.89,4.95 10.34,11.83 8.67,20.89 L 9,21 c 4.89,-2.94 7.87,-3.96 23.96,9.15 C 32.98,29.6 33,29.05 33,28.5 33,15.86 27.59,5.37 20.5,3.35 Z"
       id="path53"
       inkscape:connector-curvature="0" />
    <path
       style="fill:#000000"
       d="M 18,3 C 16.19,3 14.45,3.54 12.84,4.54 13.86,4.18 14.91,4 16,4 24.28,4 31,14.96 31,28.5 31,42.03 24.28,53 16,53 14.91,53 13.86,52.81 12.84,52.45 14.45,53.45 16.19,54 18,54 26.28,54 33,42.58 33,28.5 33,14.41 26.28,3 18,3 Z"
       id="path55"
       inkscape:connector-curvature="0" />
    <path
       style="fill:#000000"
       d="M 33.45,49.57 C 37.18,44.97 39.41,37.25 39,28.5 38.58,19.74 35.62,12.01 31.44,7.42 35.4,12.01 38,19.74 38,28.5 c 0,8.75 -2.6,16.47 -6.55,21.07 l 2,0 z"
       id="path57"
       inkscape:connector-curvature="0" />
    <path
       style="fill:#000000"
       d="M 22.5,4.35 C 15.47,6.26 9.76,16.48 9.25,28.87 8.75,41.25 13.63,51.58 20.5,53.64 13.4,51.62 8,41.13 8,28.5 8,15.86 13.4,5.37 20.5,3.35"
       id="path59"
       inkscape:connector-curvature="0" />
    <path
       style="fill:#000000"
       d="m 48.4,32 0.55,-0.78 c 0.48,-0.64 0.7,-1.62 0.55,-2.72 -0.16,-1.11 -0.67,-2.09 -1.33,-2.73 L 47.4,25 l -1,0 0.66,0.77 c 0.57,0.64 0.94,1.62 0.94,2.72 0,1.11 -0.37,2.09 -0.94,2.73 L 46.4,32 l 2,0 z"
       id="path61"
       inkscape:connector-curvature="0" />
  </g>
  <g
     id="g7585"
     transform="matrix(1.1885327,0,0,1.1885327,14.223083,0.67500583)">
    <g
       transform="scale(0.65254237,0.65254237)"
       style="font-size:12px;opacity:0.2;stroke:#000000"
       id="g157">
      <path
         style="stroke:none"
         inkscape:connector-curvature="0"
         id="path158"
         d="m 12.143,40.313 c 6.865,-2.226 22.623,-3.224 35.194,-2.229 0.853,0.068 1.689,0.421 2.445,0.225 1.19,-0.31 1.19,7.291 0.029,7.208 -2.327,0.309 -4.896,0.552 -7.595,0.722 -0.044,0.367 -7.173,5.144 -7.173,5.144 0,0 -9.716,1.455547 -12.563,1.230547 C 9.907,51.617547 5.279,42.54 12.143,40.313 Z"
         sodipodi:nodetypes="cccccccc" />
    </g>
    <g
       transform="scale(0.65254237,0.65254237)"
       style="font-size:12px;stroke:#000000"
       id="g159">
      <path
         style="stroke:none"
         inkscape:connector-curvature="0"
         id="path160"
         d="M 0,22.836 C 0,10.225 10.225,0 22.837,0 35.449,0 45.672,10.225 45.672,22.836 45.672,35.447 35.449,45.673 22.837,45.673 10.225,45.673 0,35.448 0,22.836 Z" />
    </g>
    <g
       transform="scale(0.65254237,0.65254237)"
       style="font-size:12px;stroke:#000000"
       id="g161">
      <path
         style="fill:#59f0f0;stroke:none"
         inkscape:connector-curvature="0"
         id="path162"
         d="m 1.794,22.836 c 0,-11.621 9.421,-21.042 21.042,-21.042 11.622,0 21.042,9.421 21.042,21.042 0,11.622 -9.42,21.042 -21.042,21.042 C 11.215,43.879 1.794,34.458 1.794,22.836 Z" />
    </g>
    <g
       transform="scale(0.65254237,0.65254237)"
       style="font-size:12px;stroke:#000000"
       id="g163">
      <g
         id="g164">
        <g
           id="g165">
          <path
             style="fill:#2f9e32;stroke:none"
             inkscape:connector-curvature="0"
             id="path166"
             d="m 29.464,42.591 c 0.258,-1.094 0.837,-3.409 -0.193,-3.603 -1.03,-0.192 -2.96,-0.322 -3.539,-0.965 -0.58,-0.644 -1.159,-0.644 -1.544,-0.901 -0.386,-0.258 -0.965,-1.094 -0.386,-1.866 0.579,-0.772 0.45,-1.544 -0.322,-1.994 -0.772,-0.452 -1.223,0.128 -1.866,0.192 -0.644,0.064 -2.188,-0.965 -3.347,-0.965 -1.159,0 -2.252,0 -2.445,-0.644 -0.708,0.45 -4.955,-0.322 -4.762,-1.609 -0.451,-0.45 -2.124,-2.316 -2.574,-2.959 0.064,0.514 0.45,1.608 0.836,1.93 C 8.228,28.435 7.327,27.084 7.263,26.053 6.748,25.602 5.461,23.223 5.655,22.514 5.848,21.806 6.041,19.296 6.427,19.232 6.813,19.168 6.492,18.847 6.3,18.46 6.107,18.074 5.978,17.43 5.978,17.108 c 0,-0.321 0.322,-1.158 0,-1.222 -0.322,-0.064 -1.03,-0.515 -0.579,-0.515 0.45,0 0.837,0.258 0.837,-0.193 0,-0.45 -0.258,-1.673 -0.451,-1.866 C 5.593,13.119 5.657,13.183 5.271,13.44 4.885,13.697 4.499,13.762 4.434,13.569 4.369,13.376 4.498,13.44 4.82,12.99 5.142,12.539 5.914,11.252 6.172,10.802 6.429,10.352 6.365,10.931 7.201,9.966 8.037,9.001 8.488,8.1 8.488,9.001 c 0,0.901 0.193,1.288 0.708,1.288 0.515,0 0.579,-0.193 0.644,0.192 0.064,0.387 0.128,0.837 0.644,0.644 0.515,-0.192 0.965,0.064 1.223,-0.192 0.257,-0.259 -0.193,-0.516 0.128,-0.58 0.323,-0.064 0.451,0.515 0.58,0.064 0.128,-0.45 -0.064,-1.159 0.386,-0.708 0.45,0.451 0.579,0.515 0.9,0.322 0.322,-0.194 1.352,-0.257 0.451,0.322 -0.901,0.58 -0.966,0.515 -1.094,1.094 -0.128,0.579 -0.193,0.386 -0.515,1.03 -0.321,0.643 -0.965,1.287 -0.128,1.737 0.836,0.451 1.93,0.579 1.93,0.579 0,0 0.901,-0.708 0.772,0.063 -0.128,0.773 -0.193,1.224 0.257,1.095 0.451,-0.129 1.224,-0.064 0.708,-0.644 -0.515,-0.579 -0.451,-0.193 -0.257,-1.03 0.192,-0.836 0.064,-0.771 -0.194,-1.158 -0.257,-0.386 -0.9,-1.609 -0.257,-1.673 0.644,-0.064 1.159,-0.257 1.352,0.064 0.193,0.322 0.836,0.901 1.094,0.58 0.258,-0.321 -0.064,-1.223 0.9,-0.58 0.966,0.644 -0.064,0.966 0.966,0.966 1.029,0 1.995,-0.065 1.995,0.192 0,0.258 -0.708,1.48 -1.223,1.673 -0.515,0.193 -0.708,-0.257 -0.901,0.322 -0.193,0.579 -0.837,1.802 -0.45,1.351 0.385,-0.45 1.029,-1.416 1.093,-0.837 0.064,0.58 0,1.03 0.644,0.966 0.643,-0.064 1.608,-0.643 0.772,0.193 -0.837,0.836 -0.901,1.416 -0.837,0.836 0.064,-0.579 0.064,-0.901 -0.451,-0.128 -0.514,0.772 -0.643,1.351 -0.386,1.351 0.257,0 0.257,0.193 -0.064,0.386 -0.322,0.193 -0.515,1.094 -0.708,1.608 -0.193,0.515 -0.579,1.094 -0.193,1.159 0.386,0.064 0.257,1.029 0.257,1.029 0,0 -1.738,1.931 -1.094,2.51 0.644,0.579 1.416,1.479 1.094,1.673 -0.322,0.192 -1.094,-1.03 -1.287,-1.223 -0.192,-0.192 -2.123,-0.451 -2.252,-0.128 -0.128,0.321 0.322,0.579 0,0.643 -0.321,0.064 -1.48,0.323 -1.93,0.579 -0.45,0.257 -0.579,1.094 -0.515,1.416 0.064,0.322 0.386,3.088 1.866,2.766 1.48,-0.32 1.608,-0.449 1.351,-1.093 l 1.159,-0.45 c 0,0 -0.257,1.866 0.322,1.93 0.58,0.064 1.416,-0.129 1.608,-0.129 0.194,0 0.644,1.673 1.03,1.802 0.386,0.129 1.48,0 2.124,-0.45 0.643,-0.449 0.965,0.579 1.029,0.064 0.064,-0.514 0.771,-1.608 1.415,-1.866 0,0.45 0,0.901 0.387,0.772 0.386,-0.128 0.128,-0.965 0.128,-0.965 0,0 2.574,0.128 2.574,-0.644 0,0 1.416,-0.387 1.738,0.064 0.192,-0.45 0.514,-0.064 1.029,0.064 0.515,0.128 0.837,-0.322 1.545,-0.644 0.707,-0.321 2.252,-0.064 2.445,0.45 0.192,0.516 0.578,1.029 0.836,0.129 l 1.48,-0.386 c 0,0 0.837,-0.837 1.415,-0.901 0.579,-0.064 1.159,-0.45 1.224,-0.064 0.063,0.385 -0.193,1.93 -0.579,2.251 -0.387,0.321 -0.193,0.58 -0.064,0.901 0.129,0.322 -0.193,2.059 -0.451,2.381 -0.258,0.322 0,0.386 -0.515,0.836 -0.515,0.451 -0.772,1.094 -0.966,1.48 -0.191,0.386 -0.514,1.479 -1.028,1.931 -0.515,0.45 -0.837,0.965 -0.837,0.965 -0.71,0.584 -2.576,2.835 -6.051,3.35 z" />
        </g>
        <g
           id="g167">
          <path
             style="fill:#2f9e32;stroke:none"
             inkscape:connector-curvature="0"
             id="path168"
             d="m 19.04,28.114 c 0.386,-0.193 0.45,-0.258 0.836,-0.258 0.386,0 1.608,0.064 1.995,0.064 0.387,0 0.515,0.385 0.128,0.45 -0.385,0.064 -1.029,-0.193 -1.479,-0.193 -0.451,0 -1.223,0.258 -1.48,-0.063 z" />
        </g>
        <g
           id="g169">
          <path
             style="fill:#2f9e32;stroke:none"
             inkscape:connector-curvature="0"
             id="path170"
             d="m 23.416,27.92 c 0.193,-0.322 1.029,-0.514 1.416,-0.322 0.386,0.193 -0.837,0.901 -1.159,0.837 -0.322,-0.064 -0.257,-0.515 -0.257,-0.515 z" />
        </g>
        <g
           id="g171">
          <path
             style="fill:#2f9e32;stroke:none"
             inkscape:connector-curvature="0"
             id="path172"
             d="m 22,13.635 c 0,0 0.193,0.579 0.064,0.836 -0.128,0.258 0.579,-0.128 1.094,-0.128 0.514,0 0.192,-0.193 0.064,-0.579 C 23.093,13.377 22.386,13.635 22,13.635 Z" />
        </g>
        <g
           id="g173">
          <path
             style="fill:#2f9e32;stroke:none"
             inkscape:connector-curvature="0"
             id="path174"
             d="m 15.243,6.749 c 0.386,-0.128 0.45,-0.45 1.287,0 0.836,0.451 0.9,0.001 1.608,0.708 0.708,0.708 1.93,1.93 3.475,1.351 C 21.29,8.036 20.776,7.843 20.841,7.135 20.905,6.427 21.034,5.397 21.034,5.397 L 20.39,5.655 20.326,5.14 c 0,0 -2.252,-0.45 -2.703,-0.386 -0.45,0.063 -0.45,-0.258 -0.772,-0.258 -0.322,0 -0.386,0.515 -0.644,0.515 -0.258,0 -1.093,-0.386 -0.965,0.129 0.128,0.514 0.322,0.643 0.064,0.965 -0.256,0.322 -0.063,0.644 -0.063,0.644 z" />
        </g>
        <g
           id="g175">
          <path
             style="fill:#2f9e32;stroke:none"
             inkscape:connector-curvature="0"
             id="path176"
             d="m 13.828,8.679 c 0.257,-0.386 0.515,-0.643 0.579,-0.386 0.064,0.258 0.128,0.515 0.837,0.322 0.708,-0.193 0.9,-0.064 1.158,0.128 0.258,0.193 0.901,0.257 0.901,0.579 0,0.321 -0.257,0.515 -0.515,0.257 -0.258,-0.258 -0.644,-0.643 -0.644,-0.322 0,0.322 0.193,0.966 0.837,0.901 0.644,-0.064 0.836,0.322 0.322,0.322 -0.514,0 -0.386,0.192 -0.708,0.258 -0.322,0.063 -0.644,-0.387 -0.966,-0.258 0,0 0.129,-0.901 -0.257,-0.965 -0.386,-0.064 -0.515,0.128 -0.515,0.128 0,0 0.064,-0.321 -0.258,-0.45 -0.322,-0.129 -0.45,0.192 -0.837,0.192 -0.385,0.002 -0.707,-1.092 0.066,-0.706 z" />
        </g>
        <g
           id="g177">
          <path
             style="fill:#2f9e32;stroke:none"
             inkscape:connector-curvature="0"
             id="path178"
             d="m 10.031,6.042 c 0,0 0.064,0.386 0.258,0.322 0.193,-0.064 0.965,-0.643 1.479,-1.029 0.515,-0.387 0.966,-0.773 0.901,-0.966 -0.064,-0.194 -2.06,1.093 -2.638,1.673 z" />
        </g>
        <g
           id="g179">
          <path
             style="fill:#2f9e32;stroke:none"
             inkscape:connector-curvature="0"
             id="path180"
             d="M 9.258,6.685 C 9.569,6.581 9.066,7.2 8.679,7.65 8.293,8.101 8.036,8.101 7.65,8.551 7.264,9.001 6.62,9.516 6.363,9.774 c -0.257,0.257 -0.772,0.642 -0.772,0.642 0,0 3.088,-3.538 3.667,-3.731 z" />
        </g>
        <g
           id="g181">
          <path
             style="fill:#2f9e32;stroke:none"
             inkscape:connector-curvature="0"
             id="path182"
             d="m 21.742,2.051 c -0.064,0.387 -0.386,0.58 0.128,0.58 0.515,0 2.574,0.064 3.089,0.579 0.515,0.514 2.316,0.257 2.767,-0.129 C 28.177,2.695 27.533,2.567 26.89,2.631 26.246,2.695 25.667,2.695 25.281,2.503 24.895,2.31 24.444,2.181 24.444,1.924 23.608,1.859 22.128,1.859 21.742,2.051 Z" />
        </g>
        <g
           id="g183">
          <path
             style="fill:#2f9e32;stroke:none"
             inkscape:connector-curvature="0"
             id="path184"
             d="m 28.306,2.438 c 0,0 1.029,0.772 0.772,0.836 -0.257,0.064 -0.9,0.064 -0.9,0.064 0,0 0.644,0.063 0.965,0.321 0.322,0.258 0.193,0.708 0.901,0.901 0.708,0.193 0.9,1.094 1.223,1.352 0.322,0.257 0.065,-0.322 0.579,-0.192 0.515,0.128 1.866,0.965 1.48,1.093 -0.387,0.129 -0.515,0.644 0.192,1.03 0.709,0.386 1.48,0.708 1.673,1.158 C 35.513,8.486 35.642,7.649 35.063,7.328 34.484,7.007 33.711,6.684 33.583,6.169 33.455,5.655 33.391,5.205 33.455,4.818 32.167,3.725 28.756,2.502 28.306,2.438 Z" />
        </g>
        <g
           id="g185">
          <path
             style="fill:#2f9e32;stroke:none"
             inkscape:connector-curvature="0"
             id="path186"
             d="m 35.899,6.363 c 0.129,0.515 0.516,2.316 0.129,2.574 -0.386,0.257 0,0.386 0.258,0.643 0.257,0.257 0.321,0.128 0.707,0.708 0.387,0.58 0.708,1.03 0.708,1.802 0,0.773 0.515,1.48 0.773,1.93 0.257,0.451 1.866,1.673 1.866,2.317 0,0.643 -0.064,1.287 0.644,1.415 0.707,0.129 1.028,0.193 1.222,0.515 0.193,0.322 0.772,0.322 1.094,0.387 C 42.914,15.887 41.241,10.61 35.899,6.363 Z" />
        </g>
        <g
           id="g187">
          <path
             style="fill:#2f9e32;stroke:none"
             inkscape:connector-curvature="0"
             id="path188"
             d="m 22.965,5.334 0,0.257 0.836,0.129 0,-0.644 -1.094,-0.192 0.258,0.45 z" />
        </g>
        <g
           id="g189">
          <path
             style="fill:#2f9e32;stroke:none"
             inkscape:connector-curvature="0"
             id="path190"
             d="m 27.277,4.497 c -0.322,0 -0.065,0.322 0.321,0.387 0.387,0.064 0.708,0 1.223,0.064 0.515,0.064 0.902,0.128 1.03,0.387 0.129,0.257 0.451,0.257 0.451,0 0,-0.258 0.064,-0.579 -0.515,-0.644 C 29.208,4.627 28.564,4.562 28.243,4.498 27.922,4.434 27.277,4.497 27.277,4.497 Z" />
        </g>
        <g
           id="g191">
          <path
             style="fill:#2f9e32;stroke:none"
             inkscape:connector-curvature="0"
             id="path192"
             d="m 28.5,5.527 0.772,0 0,0.642 L 28.5,5.527 Z" />
        </g>
        <g
           id="g193">
          <path
             style="fill:#2f9e32;stroke:none"
             inkscape:connector-curvature="0"
             id="path194"
             d="m 11.575,9.837 c 0,0 -0.193,0.516 -0.451,0.516 -0.258,0 -0.708,-0.579 -0.257,-0.772 0.451,-0.194 0.708,0.256 0.708,0.256 z" />
        </g>
        <g
           id="g195">
          <path
             style="fill:#2f9e32;stroke:none"
             inkscape:connector-curvature="0"
             id="path196"
             d="M 10.609,9.13 C 10.288,9.387 10.095,9.644 9.901,9.58 9.709,9.516 10.159,9.001 10.417,8.872 10.674,8.744 10.609,9.13 10.609,9.13 Z" />
        </g>
        <g
           id="g197">
          <path
             style="fill:#2f9e32;stroke:none"
             inkscape:connector-curvature="0"
             id="path198"
             d="m 11.061,8.358 0.386,-0.129 0.515,0.579 0.451,0 -0.129,0.708 -0.258,0 -0.965,-1.158 z" />
        </g>
        <g
           id="g199">
          <path
             style="fill:#2f9e32;stroke:none"
             inkscape:connector-curvature="0"
             id="path200"
             d="M 13.184,7.071 C 13.506,7.008 13.892,7.008 14.085,6.17 14.277,5.335 14.6,5.656 14.471,6.235 14.343,6.814 13.828,6.879 14.085,7.2 14.342,7.522 14.213,7.392 13.828,7.328 13.441,7.264 13.184,7.392 13.184,7.071 Z" />
        </g>
      </g>
    </g>
  </g>
</svg>
