<?xml version="1.0" encoding="UTF-8" standalone="no"?>
<svg
   xmlns:dc="http://purl.org/dc/elements/1.1/"
   xmlns:cc="http://creativecommons.org/ns#"
   xmlns:rdf="http://www.w3.org/1999/02/22-rdf-syntax-ns#"
   xmlns:svg="http://www.w3.org/2000/svg"
   xmlns="http://www.w3.org/2000/svg"
   xmlns:xlink="http://www.w3.org/1999/xlink"
   xmlns:sodipodi="http://sodipodi.sourceforge.net/DTD/sodipodi-0.dtd"
   xmlns:inkscape="http://www.inkscape.org/namespaces/inkscape"
   version="1.1"
   width="64"
   height="64"
   color-interpolation="linearRGB"
   id="svg2"
   inkscape:version="0.91 r13725"
   sodipodi:docname="image-png.svg">
  <metadata
     id="metadata50">
    <rdf:RDF>
      <cc:Work
         rdf:about="">
        <dc:format>image/svg+xml</dc:format>
        <dc:type
           rdf:resource="http://purl.org/dc/dcmitype/StillImage" />
        <dc:title></dc:title>
      </cc:Work>
    </rdf:RDF>
  </metadata>
  <defs
     id="defs48">
    <linearGradient
       inkscape:collect="always"
       id="linearGradient7526">
      <stop
         style="stop-color:#0000ff;stop-opacity:1;"
         offset="0"
         id="stop7528" />
      <stop
         style="stop-color:#0000ff;stop-opacity:0;"
         offset="1"
         id="stop7530" />
    </linearGradient>
    <radialGradient
       gradientTransform="matrix(0.5714,0,0,0.3333,26,35)"
       r="64"
       cy="0"
       cx="0"
       gradientUnits="userSpaceOnUse"
       id="gradient0">
      <stop
         id="stop11"
         stop-color="#eaeaea"
         offset="1" />
      <stop
         id="stop13"
         stop-color="#a3a3a3"
         offset="0.4886" />
    </radialGradient>
    <linearGradient
       y2="27.99"
       x2="118.33"
       y1="-17.09"
       x1="107.04"
       gradientUnits="userSpaceOnUse"
       id="gradient1">
      <stop
         id="stop20"
         stop-color="#edecec"
         offset="0" />
      <stop
         id="stop22"
         stop-color="#f5f5f5"
         offset="0.673" />
      <stop
         id="stop24"
         stop-color="#e6e6e6"
         offset="1" />
    </linearGradient>
    <linearGradient
       y2="43.630001"
       x2="78.900002"
       y1="10.12"
       x1="80.480003"
       gradientUnits="userSpaceOnUse"
       id="gradient2"
       xlink:href="#gradient3">
      <stop
         id="stop29"
         stop-color="#9aa5ec"
         offset="0" />
      <stop
         id="stop31"
         stop-color="#bfd2f9"
         offset="0.5498" />
      <stop
         id="stop33"
         stop-color="#949aee"
         offset="1" />
    </linearGradient>
    <linearGradient
       y2="14.4"
       x2="-58.5"
       y1="43.08"
       x1="-62.14"
       gradientUnits="userSpaceOnUse"
       id="gradient3"
       gradientTransform="matrix(0.6608,0,0,0.7205,8.6916,7.9718)">
      <stop
         id="stop40"
         stop-opacity="0.8588"
         stop-color="#c70484"
         offset="0" />
      <stop
         id="stop42"
         stop-color="#ee058e"
         offset="0.9607" />
    </linearGradient>
    <linearGradient
       inkscape:collect="always"
       xlink:href="#linearGradient7526"
       id="linearGradient7532"
       x1="15.916429"
       y1="28.517755"
       x2="41.396252"
       y2="28.517755"
       gradientUnits="userSpaceOnUse" />
  </defs>
  <sodipodi:namedview
     pagecolor="#ffffff"
     bordercolor="#666666"
     borderopacity="1"
     objecttolerance="10"
     gridtolerance="10"
     guidetolerance="10"
     inkscape:pageopacity="0"
     inkscape:pageshadow="2"
     inkscape:window-width="942"
     inkscape:window-height="1003"
     id="namedview46"
     showgrid="false"
     inkscape:zoom="6.6115723"
     inkscape:cx="32"
     inkscape:cy="32"
     inkscape:window-x="960"
     inkscape:window-y="30"
     inkscape:window-maximized="0"
     inkscape:current-layer="svg2" />
  <path
     inkscape:connector-curvature="0"
     id="path6"
     d="m 27,57 2,2 3.13,-3.17 L 37,59 45.39,47.54 64,38 l -5,-3 2,2 -25,12 -9,8 z m 31,-23 4,-3 -4,-2 -3,3 3,2 z"
     style="fill:#010101;fill-opacity:0.57250001" />
  <path
     inkscape:connector-curvature="0"
     id="path8"
     d="m 6.25,30 c 0,0 5.62,6 10.62,12.5 5,6.5 9.38,13.25 9.38,13.25 L 59.12,36.87 32,15 6.25,30 Z"
     style="fill:none;stroke:#010101;stroke-width:4" />
  <path
     inkscape:connector-curvature="0"
     id="path15"
     d="m 6.25,30 c 0,0 5.62,6 10.62,12.5 5,6.5 9.38,13.25 9.38,13.25 L 59.12,36.87 32,15 6.25,30 Z"
     style="fill:url(#gradient0)" />
  <path
     inkscape:connector-curvature="0"
     id="path17"
     d="m 2.62,30.87 c 0,0 8.33,5.39 16.38,11 8.44,5.88 16.75,10.88 16.75,10.88 L 58.12,26.37 c 0,0 -12.68,-5.67 -22.75,-11 C 30.18,12.62 26,9.37 26,9.37 L 2.62,30.87 Z"
     style="fill:none;stroke:#010101;stroke-width:4" />
  <path
     inkscape:connector-curvature="0"
     id="path26"
     d="m 2.62,30.87 c 0,0 8.33,5.39 16.38,11 8.44,5.88 16.75,10.88 16.75,10.88 L 58.12,26.37 c 0,0 -12.68,-5.67 -22.75,-11 C 30.18,12.62 26,9.37 26,9.37 L 2.62,30.87 Z"
     style="fill:url(#gradient1)" />
  <path
     inkscape:connector-curvature="0"
     id="path35"
     d="M 8,30 30,44 C 30,44 45,29 48,25 35,19 26,13 26,13 L 8,30 Z"
     style="fill:#ffd600;fill-opacity:1" />
  <path
     inkscape:connector-curvature="0"
     id="path37"
     d="M 8,30 30,44 C 30,44 45,29 48,25 35,19 26,13 26,13 L 8,30 Z"
     style="fill:none;stroke:#010101;stroke-width:1;stroke-opacity:0.57250001" />
  <path
     inkscape:connector-curvature="0"
     id="path44"
     d="m 22.152096,23.368885 c 0,0 -2.663024,1.217645 -4.2952,3.05492 -1.731296,1.94535 -2.914128,5.30288 -0.832608,5.59108 1.9824,0.266585 4.467008,1.61392 9.423008,0.453915 3.938368,-0.93665 5.25336,-1.39777 6.693904,-1.98858 1.724688,-0.7205 5.200496,0.266585 4.2952,-1.347335 -0.350224,-0.626835 -0.918512,-1.08075 1.394288,-1.534665 2.3128,-0.453915 2.121168,-3.062125 -2.385488,-3.6025 -4.552912,-0.53317 -7.196112,1.98858 -10.328304,3.42958 -3.145408,1.441 -5.180672,1.22485 -6.119008,0.987085 -2.055088,-0.54758 2.154208,-5.0435 2.154208,-5.0435 z M 35.1236,31.7483 c -1.407504,0.07925 -1.9824,1.520255 0.3304,1.880505 2.3128,0.36025 1.063888,-1.97417 -0.3304,-1.880505 z m 5.689488,-3.06933 c -0.733488,0.09367 -0.9912,0.7205 -0.07269,1.08075 0.905296,0.36025 0.819392,-1.174415 0.07269,-1.08075 z"
     style="fill:url(#linearGradient7532);fill-opacity:1" />
</svg>
