<?xml version="1.0" encoding="UTF-8" standalone="no"?>
<!-- Created with Sodipodi ("http://www.sodipodi.com/") -->

<svg
   xmlns:a="http://ns.adobe.com/AdobeSVGViewerExtensions/3.0/"
   xmlns:dc="http://purl.org/dc/elements/1.1/"
   xmlns:cc="http://creativecommons.org/ns#"
   xmlns:rdf="http://www.w3.org/1999/02/22-rdf-syntax-ns#"
   xmlns:svg="http://www.w3.org/2000/svg"
   xmlns="http://www.w3.org/2000/svg"
   xmlns:xlink="http://www.w3.org/1999/xlink"
   xmlns:sodipodi="http://sodipodi.sourceforge.net/DTD/sodipodi-0.dtd"
   xmlns:inkscape="http://www.inkscape.org/namespaces/inkscape"
   width="48pt"
   height="48pt"
   viewBox="0.237 0.185 123 114"
   overflow="visible"
   enable-background="new 0.237 0.185 123 114"
   xml:space="preserve"
   id="svg153"
   sodipodi:version="0.32pre"
   sodipodi:docname="retrosmart-network-transmit-receive.svg"
   version="1.1"
   inkscape:version="0.91 r13725"><metadata
     id="metadata89"><rdf:RDF><cc:Work
         rdf:about=""><dc:format>image/svg+xml</dc:format><dc:type
           rdf:resource="http://purl.org/dc/dcmitype/StillImage" /><dc:title /></cc:Work></rdf:RDF></metadata><defs
     id="defs269"><linearGradient
       y2="18.4902"
       x2="105.7848"
       y1="12.3223"
       x1="113.5518"
       gradientUnits="userSpaceOnUse"
       id="XMLID_1_"><stop
         id="stop158"
         style="stop-color:#FFFFFF"
         offset="0" /><stop
         id="stop159"
         style="stop-color:#000000"
         offset="1" /></linearGradient><linearGradient
       y2="12.7793"
       x2="40.3423"
       y1="29.752"
       x1="42.0396"
       gradientUnits="userSpaceOnUse"
       id="XMLID_2_"><stop
         id="stop167"
         style="stop-color:#F2F2F2"
         offset="0" /><stop
         id="stop168"
         style="stop-color:#EEEEEE"
         offset="0.3121" /><stop
         id="stop169"
         style="stop-color:#E0E0E0"
         offset="0.6646" /><stop
         id="stop170"
         style="stop-color:#CCCCCC"
         offset="1" /></linearGradient><linearGradient
       y2="44.6155"
       x2="29.0975"
       y1="65.3813"
       x1="40.6548"
       gradientUnits="userSpaceOnUse"
       id="XMLID_3_"><stop
         id="stop176"
         style="stop-color:#E6E6E6"
         offset="0" /><stop
         id="stop177"
         style="stop-color:#C7C7C7"
         offset="0.621" /><stop
         id="stop178"
         style="stop-color:#B3B3B3"
         offset="1" /></linearGradient><linearGradient
       y2="32.6188"
       x2="43.835"
       y1="42.9404"
       x1="57.0117"
       gradientUnits="userSpaceOnUse"
       id="XMLID_4_"><stop
         id="stop186"
         style="stop-color:#999999"
         offset="0" /><stop
         id="stop187"
         style="stop-color:#7B7B7B"
         offset="0.6839" /><stop
         id="stop188"
         style="stop-color:#6B6B6B"
         offset="1" /></linearGradient><linearGradient
       y2="59.021"
       x2="87.5576"
       y1="75.9937"
       x1="89.2549"
       gradientUnits="userSpaceOnUse"
       id="XMLID_5_"><stop
         id="stop205"
         style="stop-color:#F2F2F2"
         offset="0" /><stop
         id="stop206"
         style="stop-color:#EEEEEE"
         offset="0.3121" /><stop
         id="stop207"
         style="stop-color:#E0E0E0"
         offset="0.6646" /><stop
         id="stop208"
         style="stop-color:#CCCCCC"
         offset="1" /></linearGradient><linearGradient
       y2="90.8567"
       x2="76.3119"
       y1="111.6226"
       x1="87.8691"
       gradientUnits="userSpaceOnUse"
       id="XMLID_6_"><stop
         id="stop214"
         style="stop-color:#E6E6E6"
         offset="0" /><stop
         id="stop215"
         style="stop-color:#C7C7C7"
         offset="0.621" /><stop
         id="stop216"
         style="stop-color:#B3B3B3"
         offset="1" /></linearGradient><linearGradient
       y2="78.8596"
       x2="91.0499"
       y1="89.1812"
       x1="104.2266"
       gradientUnits="userSpaceOnUse"
       id="XMLID_7_"><stop
         id="stop224"
         style="stop-color:#999999"
         offset="0" /><stop
         id="stop225"
         style="stop-color:#7B7B7B"
         offset="0.6839" /><stop
         id="stop226"
         style="stop-color:#6B6B6B"
         offset="1" /></linearGradient><linearGradient
       id="XMLID_1_-3"
       gradientUnits="userSpaceOnUse"
       x1="103.3237"
       y1="68.756798"
       x2="85.316399"
       y2="78.440201"><stop
         offset="0"
         style="stop-color:#a43333;stop-opacity:1"
         id="stop8" /><stop
         offset="1"
         style="stop-color:#5d0000;stop-opacity:1"
         id="stop10" /></linearGradient><linearGradient
       id="XMLID_2_-6"
       gradientUnits="userSpaceOnUse"
       x1="99.161598"
       y1="49.622601"
       x2="84.043503"
       y2="44.186501"><stop
         offset="0"
         style="stop-color:#ff0000;stop-opacity:1"
         id="stop15" /><stop
         offset="1"
         style="stop-color:#990000;stop-opacity:1"
         id="stop17" /></linearGradient><linearGradient
       id="XMLID_3_-7"
       gradientUnits="userSpaceOnUse"
       x1="23.5361"
       y1="49.694801"
       x2="24.4897"
       y2="61.662998"><stop
         offset="0"
         style="stop-color:#a43333;stop-opacity:1"
         id="stop22" /><stop
         offset="1"
         style="stop-color:#5d0000;stop-opacity:1"
         id="stop24" /></linearGradient><linearGradient
       id="XMLID_4_-5"
       gradientUnits="userSpaceOnUse"
       x1="72.710403"
       y1="1.0845"
       x2="53.174702"
       y2="25.716801"><stop
         offset="0"
         style="stop-color:#a43333;stop-opacity:1"
         id="stop29" /><stop
         offset="1"
         style="stop-color:#5d0000;stop-opacity:1"
         id="stop31" /></linearGradient><linearGradient
       xlink:href="#XMLID_2_-9"
       id="XMLID_5_-3"
       gradientUnits="userSpaceOnUse"
       x1="33.933601"
       y1="33.332001"
       x2="63.212101"
       y2="79.374397"><stop
         offset="0"
         style="stop-color:#ff0000;stop-opacity:1"
         id="stop36" /><stop
         offset="1"
         style="stop-color:#990000;stop-opacity:1"
         id="stop38" /></linearGradient><linearGradient
       id="XMLID_2_-9"
       gradientUnits="userSpaceOnUse"
       x1="125.9731"
       y1="70.976097"
       x2="107.4731"
       y2="76.726097"><stop
         offset="0"
         style="stop-color:#ee0c33;stop-opacity:1;"
         id="stop15-3" /><stop
         offset="1"
         style="stop-color:#640000;stop-opacity:1;"
         id="stop17-3" /></linearGradient><linearGradient
       id="XMLID_6_-5"
       gradientUnits="userSpaceOnUse"
       x1="38.0518"
       y1="37.112801"
       x2="59.228001"
       y2="85.594704"><stop
         offset="0"
         style="stop-color:#FFFFFF"
         id="stop43" /><stop
         offset="1"
         style="stop-color:#000000"
         id="stop45" /></linearGradient></defs><sodipodi:namedview
     id="base"
     showgrid="false"
     inkscape:zoom="7.5662366"
     inkscape:cx="30"
     inkscape:cy="30"
     inkscape:window-width="949"
     inkscape:window-height="951"
     inkscape:window-x="953"
     inkscape:window-y="82"
     inkscape:window-maximized="0"
     inkscape:current-layer="svg153" /><path
     inkscape:connector-curvature="0"
     id="path155"
     d="m 16.27,22.44 0,35.415 23.992,10.299 25.092,-22.44 0,-35.417 L 41.361,0 16.27,22.44 Z" /><path
     inkscape:connector-curvature="0"
     id="path156"
     d="m 121.068,51.286 c -1.066,-4.019 -4.789,-6.82 -7.918,-8.101 0.018,0.007 -10.301,-4.422 -21.435,-9.202 l 19.229,-17.268 -4.729,-2.397 -19.569,17.49 C 75.268,26.924 64.538,22.318 64.538,22.318 l -0.293,5.184 46.971,20.294 c 2.533,1.038 4.535,2.949 5.018,4.772 0.078,0.292 0.117,0.583 0.117,0.874 0,0.858 -0.35,1.721 -1.03,2.611 -0.311,0.311 -3.557,3.889 -3.557,3.889 l 0,6.854 7.363,-7.478 0.095,-0.12 c 2.434,-3.115 2.347,-6.022 1.846,-7.912 z" /><path
     inkscape:connector-curvature="0"
     style="fill:url(#XMLID_1_)"
     id="path163"
     d="M 91.716,33.983 114.6,13.517 109.709,11.053 86.647,31.808 91.716,33.983 Z" /><path
     inkscape:connector-curvature="0"
     id="path164"
     d="m 16.535,22.599 0,35.026 23.68,10.175 24.873,-22.246 0,-35.028 L 41.408,0.354 16.535,22.599 Z" /><path
     style="opacity:0.3"
     inkscape:connector-curvature="0"
     id="path165"
     d="M 65.088,45.555 40.215,67.8 l 11.35,0 24.873,-22.246 0,-5.408 -11.456,-4.896 0.106,10.305 z" /><path
     inkscape:connector-curvature="0"
     style="fill:url(#XMLID_2_)"
     id="path174"
     d="M 39.879,32.612 18.27,23.334 22.916,19.178 23.591,19.525 23.562,18.601 41.745,2.341 63.354,11.615 39.879,32.612 Z" /><path
     inkscape:connector-curvature="0"
     style="fill:url(#XMLID_3_)"
     id="path182"
     d="m 39.879,65.813 -12.688,-5.434 -0.018,-0.647 -1.051,0.211 -7.853,-3.406 0,-33.203 7.844,3.403 1.148,0.026 -0.067,0.443 12.684,5.405 0,33.202 z" /><path
     style="opacity:0.3"
     inkscape:connector-curvature="0"
     id="path183"
     d="m 27.173,59.732 -1.083,0.078 0,-33.04 1.171,-0.007 -0.088,0.479 0,32.49 z" /><path
     style="opacity:0.8;fill:#ffffff"
     inkscape:connector-curvature="0"
     id="path184"
     d="m 28.274,60.85 -1.083,-0.471 0,-33.175 1.083,0.47 0,33.176 z" /><path
     inkscape:connector-curvature="0"
     style="fill:url(#XMLID_4_)"
     id="path192"
     d="m 63.354,44.819 -18.284,16.35 -0.833,-0.429 0.025,1.151 -4.383,3.921 0,-33.2 23.475,-20.997 0,33.204 z" /><path
     style="opacity:0.8;fill:#ffffff"
     inkscape:connector-curvature="0"
     id="path193"
     d="m 23.632,18.541 21.429,9.455 1.135,-0.971 -21.776,-9.146 -0.788,0.662 z" /><path
     style="opacity:0.6;fill:#242424"
     inkscape:connector-curvature="0"
     id="path194"
     d="m 45.061,27.996 0,33.207 1.135,-1.014 0,-33.164 -1.135,0.971 z" /><path
     style="opacity:0.83999999;fill:#ffffff"
     inkscape:connector-curvature="0"
     id="path195"
     d="m 18.27,23.334 0.004,0.967 7.832,3.39 -0.015,-0.92 1.171,-0.007 -0.088,1.391 12.721,5.404 0.048,-0.876 0.741,-0.731 -21.776,-9.145 -0.638,0.527 z" /><path
     style="opacity:0.3"
     inkscape:connector-curvature="0"
     id="path196"
     d="m 23.59,19.525 20.646,9.141 0,32.075 0.824,0.421 0,-33.166 -21.5,-9.396 0.03,0.925 z" /><path
     style="fill:#ffffff"
     inkscape:connector-curvature="0"
     id="path197"
     d="m 36.756,38.812 -5.844,-2.793 0,-4.375 5.844,2.793 0,4.375 z" /><g
     id="g198"><path
       style="fill:#302f92"
       inkscape:connector-curvature="0"
       id="path199"
       d="m 32.921,34.588 c 0.356,0.172 0.621,0.373 0.793,0.601 0.173,0.228 0.258,0.46 0.258,0.696 0,0.206 -0.059,0.358 -0.176,0.46 -0.118,0.101 -0.268,0.137 -0.452,0.108 -0.183,-0.029 -0.428,-0.106 -0.736,-0.231 l -1.234,-0.502 0,-0.112 0.121,0.049 c 0.135,0.055 0.228,0.076 0.279,0.061 0.052,-0.014 0.085,-0.056 0.099,-0.125 0.014,-0.068 0.021,-0.239 0.021,-0.511 l 0.002,-1.587 c 0,-0.264 -0.007,-0.438 -0.022,-0.521 -0.015,-0.083 -0.045,-0.148 -0.093,-0.197 -0.047,-0.048 -0.151,-0.104 -0.311,-0.17 l -0.061,-0.024 0,-0.113 0.518,0.195 0.589,0.221 c 0.86,0.35 1.29,0.781 1.29,1.293 0,0.211 -0.074,0.352 -0.221,0.42 -0.146,0.068 -0.368,0.065 -0.664,-0.011 z m -0.569,-0.159 0,0.728 c 0,0.311 0.005,0.509 0.016,0.598 0.011,0.088 0.04,0.163 0.087,0.225 0.047,0.063 0.141,0.123 0.28,0.18 0.248,0.101 0.434,0.111 0.558,0.03 0.124,-0.082 0.186,-0.254 0.186,-0.518 0,-0.27 -0.069,-0.498 -0.21,-0.683 -0.14,-0.185 -0.387,-0.349 -0.739,-0.494 -0.058,-0.022 -0.116,-0.044 -0.178,-0.066 z m 0,-0.119 c 0.039,0.018 0.071,0.031 0.098,0.042 0.335,0.136 0.563,0.174 0.686,0.115 0.122,-0.06 0.184,-0.211 0.185,-0.455 0,-0.17 -0.024,-0.312 -0.072,-0.425 -0.048,-0.113 -0.121,-0.214 -0.216,-0.304 -0.096,-0.089 -0.26,-0.181 -0.493,-0.276 -0.061,-0.025 -0.123,-0.047 -0.186,-0.068 l -0.002,1.371 z" /><path
       style="fill:#fb0f0c"
       inkscape:connector-curvature="0"
       id="path200"
       d="m 36.074,36.32 -1.326,-0.54 c -0.006,0.093 -0.01,0.163 -0.01,0.21 0,0.351 0.053,0.636 0.156,0.854 0.104,0.218 0.262,0.371 0.469,0.455 0.281,0.115 0.481,0.064 0.6,-0.152 l 0.109,0.044 c -0.049,0.143 -0.146,0.229 -0.295,0.261 -0.146,0.031 -0.307,0.012 -0.479,-0.059 -0.161,-0.065 -0.312,-0.169 -0.456,-0.312 -0.143,-0.142 -0.26,-0.309 -0.351,-0.5 -0.091,-0.191 -0.137,-0.396 -0.136,-0.615 0,-0.31 0.088,-0.532 0.265,-0.666 0.177,-0.134 0.397,-0.146 0.661,-0.04 0.249,0.102 0.441,0.257 0.577,0.467 0.136,0.21 0.208,0.41 0.216,0.593 z m -0.399,-0.258 c 0.005,-0.035 0.008,-0.067 0.008,-0.095 0,-0.142 -0.04,-0.268 -0.12,-0.377 -0.08,-0.111 -0.18,-0.19 -0.297,-0.237 -0.283,-0.116 -0.453,-0.003 -0.508,0.336 l 0.917,0.373 z" /></g><path
     inkscape:connector-curvature="0"
     id="path201"
     d="m 63.484,68.681 0,35.414 23.992,10.3 25.092,-22.44 0,-35.416 -23.992,-10.298 -25.092,22.44 z" /><path
     inkscape:connector-curvature="0"
     id="path202"
     d="m 63.75,68.84 0,35.026 23.68,10.174 24.873,-22.244 0,-35.029 L 88.623,46.595 63.75,68.84 Z" /><path
     style="opacity:0.3"
     inkscape:connector-curvature="0"
     id="path203"
     d="m 112.303,91.796 -24.873,22.245 11.35,0 24.873,-22.244 0,-5.408 -11.456,-4.896 0.106,10.303 z" /><path
     inkscape:connector-curvature="0"
     style="fill:url(#XMLID_5_)"
     id="path212"
     d="M 87.094,78.853 65.485,69.576 70.131,65.42 70.806,65.767 70.778,64.842 88.961,48.583 110.57,57.857 87.094,78.853 Z" /><path
     inkscape:connector-curvature="0"
     style="fill:url(#XMLID_6_)"
     id="path220"
     d="m 87.094,112.054 -12.688,-5.434 -0.018,-0.648 -1.052,0.212 -7.853,-3.406 0,-33.202 7.844,3.403 1.148,0.026 -0.066,0.443 12.684,5.404 0,33.202 z" /><path
     style="opacity:0.3"
     inkscape:connector-curvature="0"
     id="path221"
     d="m 74.389,105.972 -1.084,0.079 0,-33.04 1.172,-0.006 -0.088,0.479 0,32.488 z" /><path
     style="opacity:0.8;fill:#ffffff"
     inkscape:connector-curvature="0"
     id="path222"
     d="m 75.488,107.091 -1.082,-0.471 0,-33.175 1.082,0.471 0,33.175 z" /><path
     inkscape:connector-curvature="0"
     style="fill:url(#XMLID_7_)"
     id="path230"
     d="m 110.568,91.06 -18.284,16.352 -0.833,-0.43 0.025,1.151 -4.383,3.921 0,-33.201 23.475,-20.997 0,33.204 z" /><path
     style="opacity:0.8;fill:#ffffff"
     inkscape:connector-curvature="0"
     id="path231"
     d="m 70.847,64.783 21.429,9.454 1.135,-0.971 -21.775,-9.146 -0.789,0.663 z" /><path
     style="opacity:0.6;fill:#242424"
     inkscape:connector-curvature="0"
     id="path232"
     d="m 92.275,74.237 0,33.207 1.135,-1.014 0,-33.164 -1.135,0.971 z" /><path
     style="opacity:0.83999999;fill:#ffffff"
     inkscape:connector-curvature="0"
     id="path233"
     d="m 65.484,69.576 0.004,0.967 7.832,3.39 -0.016,-0.921 1.172,-0.006 -0.088,1.391 12.721,5.403 0.048,-0.877 0.741,-0.73 -21.775,-9.146 -0.639,0.529 z" /><path
     style="opacity:0.3"
     inkscape:connector-curvature="0"
     id="path234"
     d="m 70.805,65.766 20.646,9.141 0,32.075 0.824,0.42 0,-33.165 -21.501,-9.396 0.031,0.925 z" /><path
     style="fill:#ffffff"
     inkscape:connector-curvature="0"
     id="path235"
     d="m 83.971,85.053 -5.844,-2.793 0,-4.376 5.844,2.794 0,4.375 z" /><g
     id="g236"><path
       style="fill:#302f92"
       inkscape:connector-curvature="0"
       id="path237"
       d="m 80.136,80.83 c 0.356,0.172 0.621,0.373 0.794,0.6 0.173,0.229 0.258,0.461 0.258,0.697 0,0.205 -0.059,0.357 -0.176,0.459 -0.118,0.102 -0.269,0.137 -0.452,0.108 -0.183,-0.029 -0.429,-0.106 -0.735,-0.231 l -1.235,-0.503 0,-0.113 0.121,0.049 c 0.135,0.056 0.227,0.076 0.279,0.062 0.052,-0.015 0.084,-0.056 0.099,-0.124 0.014,-0.068 0.021,-0.24 0.021,-0.512 l 0.002,-1.587 c 0,-0.265 -0.007,-0.438 -0.021,-0.521 -0.016,-0.082 -0.046,-0.148 -0.094,-0.197 -0.047,-0.047 -0.15,-0.104 -0.311,-0.17 l -0.061,-0.023 0,-0.112 0.518,0.194 0.59,0.222 c 0.859,0.351 1.289,0.781 1.289,1.294 0,0.211 -0.073,0.352 -0.221,0.42 -0.147,0.067 -0.369,0.063 -0.665,-0.012 z m -0.57,-0.16 0,0.728 c -0.001,0.311 0.004,0.51 0.016,0.598 0.01,0.088 0.039,0.163 0.086,0.226 0.048,0.063 0.141,0.123 0.28,0.18 0.248,0.101 0.435,0.11 0.558,0.03 0.124,-0.082 0.187,-0.254 0.187,-0.518 0.001,-0.271 -0.069,-0.498 -0.21,-0.684 -0.14,-0.185 -0.387,-0.348 -0.739,-0.493 -0.056,-0.023 -0.115,-0.044 -0.178,-0.067 z m 0,-0.12 c 0.039,0.018 0.071,0.031 0.098,0.043 0.335,0.137 0.563,0.174 0.686,0.115 0.123,-0.06 0.184,-0.211 0.186,-0.455 0,-0.17 -0.025,-0.312 -0.072,-0.425 -0.049,-0.112 -0.121,-0.214 -0.217,-0.304 -0.096,-0.09 -0.26,-0.182 -0.492,-0.276 C 79.694,79.224 79.632,79.2 79.569,79.18 l -0.003,1.37 z" /><path
       style="fill:#fb0f0c"
       inkscape:connector-curvature="0"
       id="path238"
       d="m 83.289,82.561 -1.326,-0.54 c -0.006,0.094 -0.01,0.164 -0.01,0.211 0,0.351 0.053,0.636 0.156,0.854 0.104,0.219 0.262,0.371 0.469,0.455 0.281,0.115 0.481,0.064 0.6,-0.152 l 0.109,0.045 c -0.049,0.143 -0.146,0.229 -0.295,0.261 -0.146,0.031 -0.307,0.012 -0.479,-0.059 -0.161,-0.065 -0.312,-0.169 -0.456,-0.312 -0.143,-0.143 -0.26,-0.309 -0.351,-0.5 -0.091,-0.19 -0.137,-0.395 -0.136,-0.614 0,-0.31 0.088,-0.532 0.265,-0.665 0.177,-0.135 0.397,-0.146 0.661,-0.04 0.249,0.102 0.441,0.257 0.577,0.468 0.136,0.208 0.208,0.405 0.216,0.588 z M 82.89,82.304 c 0.005,-0.035 0.008,-0.067 0.008,-0.096 0,-0.142 -0.04,-0.268 -0.12,-0.377 -0.08,-0.111 -0.18,-0.19 -0.297,-0.238 -0.283,-0.115 -0.453,-0.003 -0.508,0.337 l 0.917,0.374 z" /></g><path
     d="m 36.756,55.212 -5.844,-2.793 0,-12.575 5.844,2.793 z"
     id="path7626"
     inkscape:connector-curvature="0"
     style="fill:#009900;fill-opacity:1;stroke:#000000;stroke-opacity:1"
     sodipodi:nodetypes="ccccc" /><path
     d="m 83.971,101.453 -5.844,-2.793 0,-12.576 5.844,2.794 z"
     id="path7628"
     inkscape:connector-curvature="0"
     style="fill:#009900;fill-opacity:1;stroke:#000000;stroke-opacity:1"
     sodipodi:nodetypes="ccccc" /><g
     style="overflow:visible"
     id="g7594"
     transform="matrix(0.2626269,0,0,0.2626269,27.998645,84.730357)"><path
       d="m 24.599,16.542 0,27.584 L 19.605,43.093 0,60.671 52.687,124.283 104.048,83.554 124.892,64.89 c 0,0 -23.527,-4.871 -27.404,-5.673 0,-4.4 0,-47.951 0,-47.951 L 43.071,0 24.599,16.542 Z"
       id="path5"
       inkscape:connector-curvature="0" /><path
       d="M 78.142,76.297 102.114,81.26 118.461,66.622 94.488,61.659 78.142,76.297 Z"
       id="path12"
       style="fill:url(#XMLID_1_-3)"
       inkscape:connector-curvature="0" /><path
       d="m 78.142,76.297 16.346,-14.638 0,-47.95 -16.346,14.638 0,47.95 z"
       id="path19"
       style="fill:url(#XMLID_2_-6)"
       inkscape:connector-curvature="0" /><path
       d="M 27.612,65.841 4.147,60.982 20.48,46.337 43.945,51.196 27.612,65.841 Z"
       id="path26"
       style="fill:url(#XMLID_3_-7)"
       inkscape:connector-curvature="0" /><path
       d="M 27.599,17.883 78.142,28.347 94.488,13.709 43.945,3.245 27.599,17.883 Z"
       id="path33"
       style="fill:url(#XMLID_4_-5)"
       inkscape:connector-curvature="0" /><path
       d="m 27.599,17.883 0,47.95 -23.465,-4.857 48.99,59.133 48.99,-38.849 -23.972,-4.963 0,-47.95 -50.543,-10.464 z"
       id="path40"
       style="fill:url(#XMLID_5_-3);fill-opacity:1"
       inkscape:connector-curvature="0" /><path
       a:adobe-blending-mode="screen"
       d="m 77.377,76.92 c 0,0 0,-46.738 0,-47.95 -1.167,-0.242 -47.264,-9.785 -49.014,-10.148 0,1.805 0,47.012 0,47.012 l 0,0.939 c 0,0 -18.724,-3.877 -22.25,-4.606 0.742,0.896 4.83,5.83 10.311,12.446 7.662,-2.759 16.126,-2.521 23.705,0.394 15.539,6.121 32.238,14.27 48.847,15.697 6.053,-4.799 10.647,-8.443 11.382,-9.025 C 97.568,81.1 77.377,76.92 77.377,76.92 Z"
       id="path47"
       style="opacity:0.4;fill:url(#XMLID_6_-5)"
       inkscape:connector-curvature="0" /></g><g
     style="overflow:visible"
     id="g7631"
     transform="matrix(0.26320012,0,0,0.26320012,1.852443,63.321595)"><g
       id="Layer_1_2_"><path
         id="path7588"
         d="M 20.806,40.635 0,59.248 c 0,0 23.471,4.855 27.346,5.658 0,4.398 0,47.825 0,47.825 l 54.286,11.233 18.431,-16.489 c 0,0 0,-21.861 0,-27.523 1.745,0.36 4.973,1.028 4.973,1.028 L 124.62,63.459 72.039,0 20.806,40.635 Z"
         inkscape:connector-curvature="0" /><linearGradient
         y2="21.147499"
         x2="50.6138"
         y1="35.734402"
         x1="33.1768"
         gradientUnits="userSpaceOnUse"
         id="XMLID_1_-36"><stop
           id="stop7591"
           style="stop-color:#33A433"
           offset="0" /><stop
           id="stop7593"
           style="stop-color:#005D00"
           offset="1" /></linearGradient><path
         style="fill:url(#XMLID_1_-36)"
         id="path7595"
         d="M 71.603,4.175 22.74,42.93 6.436,57.516 55.299,18.762 71.603,4.175 Z"
         inkscape:connector-curvature="0" /><linearGradient
         y2="89.446297"
         x2="81.833"
         y1="89.614304"
         x1="99.269501"
         gradientUnits="userSpaceOnUse"
         id="XMLID_2_-7"><stop
           id="stop7598"
           style="stop-color:#33A433"
           offset="0" /><stop
           id="stop7600"
           style="stop-color:#005D00"
           offset="1" /></linearGradient><path
         style="fill:url(#XMLID_2_-7)"
         id="path7602"
         d="m 80.759,72.895 0,47.826 16.304,-14.587 0,-47.827 -16.304,14.588 z"
         inkscape:connector-curvature="0" /><linearGradient
         y2="44.7593"
         x2="70.614304"
         y1="38.555698"
         x1="98.781197"
         gradientUnits="userSpaceOnUse"
         id="XMLID_3_-5"><stop
           id="stop7605"
           style="stop-color:#33A433"
           offset="0" /><stop
           id="stop7607"
           style="stop-color:#005D00"
           offset="1" /></linearGradient><path
         style="fill:url(#XMLID_3_-5)"
         id="path7609"
         d="M 120.467,63.148 71.603,4.175 55.299,18.762 104.162,77.736 120.467,63.148 Z"
         inkscape:connector-curvature="0" /><linearGradient
         y2="94.771896"
         x2="67.736801"
         y1="48.849602"
         x1="38.534698"
         gradientUnits="userSpaceOnUse"
         id="XMLID_4_-3"><stop
           id="stop7612"
           style="stop-color:#33CC33"
           offset="0" /><stop
           id="stop7614"
           style="stop-color:#009900"
           offset="1" /></linearGradient><path
         style="fill:url(#XMLID_4_-3)"
         id="path7616"
         d="m 80.759,120.721 0,-47.826 23.403,4.842 -48.863,-58.975 -48.863,38.754 23.91,4.947 0,47.826 50.413,10.432 z"
         inkscape:connector-curvature="0" /><linearGradient
         y2="81.055702"
         x2="67.239304"
         y1="36.9678"
         x1="40.189499"
         gradientUnits="userSpaceOnUse"
         id="XMLID_5_-5"><stop
           id="stop7619"
           style="stop-color:#FFFFFF"
           offset="0" /><stop
           id="stop7621"
           style="stop-color:#000000"
           offset="1" /></linearGradient><path
         style="opacity:0.4;fill:url(#XMLID_5_-5)"
         id="path7623"
         d="M 62.916,70.713 C 72.975,72.389 83.028,69.143 91.909,64.516 78.479,48.306 56.007,21.184 55.153,20.154 54.009,21.061 27.132,42.378 14.727,52.216 c 16.352,-1.3 31.187,15.096 48.189,18.497 z"
         a:adobe-blending-mode="screen"
         inkscape:connector-curvature="0" /></g></g></svg>