<?xml version="1.0" encoding="UTF-8" standalone="no"?>
<!-- Generator: Adobe Illustrator 10.0, SVG Export Plug-In . SVG Version: 3.0.0 Build 43)  -->

<svg
   xmlns:dc="http://purl.org/dc/elements/1.1/"
   xmlns:cc="http://creativecommons.org/ns#"
   xmlns:rdf="http://www.w3.org/1999/02/22-rdf-syntax-ns#"
   xmlns:svg="http://www.w3.org/2000/svg"
   xmlns="http://www.w3.org/2000/svg"
   xmlns:xlink="http://www.w3.org/1999/xlink"
   xmlns:sodipodi="http://sodipodi.sourceforge.net/DTD/sodipodi-0.dtd"
   xmlns:inkscape="http://www.inkscape.org/namespaces/inkscape"
   width="48"
   height="48"
   viewBox="0 0 47.999999 48.000001"
   overflow="visible"
   enable-background="new 0 0 64.707 48.176"
   xml:space="preserve"
   id="svg2"
   version="1.1"
   inkscape:version="0.91 r13725"
   sodipodi:docname="retrosmart-revert-to-saved.svg"
   style="overflow:visible"><defs
     id="defs109"><linearGradient
       inkscape:collect="always"
       xlink:href="#XMLID_4_-9"
       id="linearGradient3228"
       gradientUnits="userSpaceOnUse"
       x1="111.2725"
       y1="45.898399"
       x2="29.4869"
       y2="41.0541" /><linearGradient
       gradientUnits="userSpaceOnUse"
       id="XMLID_4_-9"
       y2="41.0541"
       x2="29.4869"
       y1="45.898399"
       x1="111.2725"><stop
         offset="0"
         style="stop-color:#808080;stop-opacity:1"
         id="stop87-5" /><stop
         offset="1"
         style="stop-color:#4d4d4d;stop-opacity:1"
         id="stop89-2" /><midPointStop
         offset="0"
         style="stop-color:#808080"
         id="midPointStop91" /><midPointStop
         offset="0.5"
         style="stop-color:#808080"
         id="midPointStop93" /><midPointStop
         offset="1"
         style="stop-color:#4D4D4D"
         id="midPointStop95" /></linearGradient><linearGradient
       inkscape:collect="always"
       xlink:href="#XMLID_5_-8"
       id="linearGradient3230"
       gradientUnits="userSpaceOnUse"
       x1="114.0615"
       y1="35.506802"
       x2="113.6484"
       y2="36.2225" /><linearGradient
       gradientUnits="userSpaceOnUse"
       id="XMLID_5_-8"
       y2="36.2225"
       x2="113.6484"
       y1="35.506802"
       x1="114.0615"><stop
         offset="0"
         style="stop-color:#a6a6a6;stop-opacity:1"
         id="stop110" /><stop
         offset="0.44780001"
         style="stop-color:#7c7c7c;stop-opacity:1"
         id="stop112" /><stop
         offset="1"
         style="stop-color:#4d4d4d;stop-opacity:1"
         id="stop114" /><midPointStop
         offset="0"
         style="stop-color:#A6A6A6"
         id="midPointStop116" /><midPointStop
         offset="0.4804"
         style="stop-color:#A6A6A6"
         id="midPointStop118" /><midPointStop
         offset="1"
         style="stop-color:#4D4D4D"
         id="midPointStop120" /></linearGradient><linearGradient
       inkscape:collect="always"
       xlink:href="#XMLID_6_-8"
       id="linearGradient3232"
       gradientUnits="userSpaceOnUse"
       x1="69.819298"
       y1="72.785202"
       x2="24.4517"
       y2="70.0979" /><linearGradient
       gradientUnits="userSpaceOnUse"
       id="XMLID_6_-8"
       y2="70.0979"
       x2="24.4517"
       y1="72.785202"
       x1="69.819298"><stop
         offset="0"
         style="stop-color:#999999;stop-opacity:1"
         id="stop131" /><stop
         offset="1"
         style="stop-color:#666666;stop-opacity:1"
         id="stop133" /><midPointStop
         offset="0"
         style="stop-color:#999999"
         id="midPointStop135" /><midPointStop
         offset="0.5"
         style="stop-color:#999999"
         id="midPointStop137" /><midPointStop
         offset="1"
         style="stop-color:#666666"
         id="midPointStop139" /></linearGradient><linearGradient
       inkscape:collect="always"
       xlink:href="#XMLID_7_-5"
       id="linearGradient3234"
       gradientUnits="userSpaceOnUse"
       x1="116.7529"
       y1="62.6782"
       x2="79.020599"
       y2="60.443298" /><linearGradient
       gradientUnits="userSpaceOnUse"
       id="XMLID_7_-5"
       y2="60.443298"
       x2="79.020599"
       y1="62.6782"
       x1="116.7529"><stop
         offset="0"
         style="stop-color:#262626;stop-opacity:1"
         id="stop144" /><stop
         offset="1"
         style="stop-color:#404040;stop-opacity:1"
         id="stop146" /><midPointStop
         offset="0"
         style="stop-color:#262626"
         id="midPointStop148" /><midPointStop
         offset="0.5"
         style="stop-color:#262626"
         id="midPointStop150" /><midPointStop
         offset="1"
         style="stop-color:#404040"
         id="midPointStop152" /></linearGradient><linearGradient
       inkscape:collect="always"
       xlink:href="#XMLID_8_"
       id="linearGradient3236"
       gradientUnits="userSpaceOnUse"
       x1="70.559601"
       y1="84.591797"
       x2="75.377998"
       y2="84.591797" /><linearGradient
       gradientUnits="userSpaceOnUse"
       id="XMLID_8_"
       y2="84.591797"
       x2="75.377998"
       y1="84.591797"
       x1="70.559601"><stop
         offset="0"
         style="stop-color:#999999;stop-opacity:1"
         id="stop157" /><stop
         offset="1"
         style="stop-color:#404040;stop-opacity:1"
         id="stop159" /><midPointStop
         offset="0"
         style="stop-color:#999999"
         id="midPointStop161" /><midPointStop
         offset="0.5"
         style="stop-color:#999999"
         id="midPointStop163" /><midPointStop
         offset="1"
         style="stop-color:#404040"
         id="midPointStop165" /></linearGradient><linearGradient
       inkscape:collect="always"
       xlink:href="#XMLID_9_"
       id="linearGradient3238"
       gradientUnits="userSpaceOnUse"
       x1="13.2295"
       y1="63.6567"
       x2="85.201302"
       y2="61.944" /><linearGradient
       gradientUnits="userSpaceOnUse"
       id="XMLID_9_"
       y2="61.944"
       x2="85.201302"
       y1="63.6567"
       x1="13.2295"><stop
         offset="0"
         style="stop-color:#ffffff;stop-opacity:1"
         id="stop172" /><stop
         offset="0.52509999"
         style="stop-color:#adadad;stop-opacity:1"
         id="stop174" /><stop
         offset="0.65359998"
         style="stop-color:#ffffff;stop-opacity:1"
         id="stop176" /><stop
         offset="0.94410002"
         style="stop-color:#adadad;stop-opacity:1"
         id="stop178" /><midPointStop
         offset="0"
         style="stop-color:#FFFFFF"
         id="midPointStop180" /><midPointStop
         offset="0.5"
         style="stop-color:#FFFFFF"
         id="midPointStop182" /><midPointStop
         offset="0.5251"
         style="stop-color:#ADADAD"
         id="midPointStop184" /><midPointStop
         offset="0.5"
         style="stop-color:#ADADAD"
         id="midPointStop186" /><midPointStop
         offset="0.6536"
         style="stop-color:#FFFFFF"
         id="midPointStop188" /><midPointStop
         offset="0.5"
         style="stop-color:#FFFFFF"
         id="midPointStop190" /><midPointStop
         offset="0.9441"
         style="stop-color:#ADADAD"
         id="midPointStop192" /></linearGradient><linearGradient
       inkscape:collect="always"
       xlink:href="#XMLID_10_"
       id="linearGradient3240"
       gradientUnits="userSpaceOnUse"
       x1="60.561501"
       y1="73.681602"
       x2="25.885799"
       y2="66.927902" /><linearGradient
       gradientUnits="userSpaceOnUse"
       id="XMLID_10_"
       y2="66.927902"
       x2="25.885799"
       y1="73.681602"
       x1="60.561501"><stop
         offset="0"
         style="stop-color:#ffffff;stop-opacity:1"
         id="stop197" /><stop
         offset="0.52509999"
         style="stop-color:#adadad;stop-opacity:1"
         id="stop199" /><stop
         offset="0.65359998"
         style="stop-color:#ffffff;stop-opacity:1"
         id="stop201" /><stop
         offset="1"
         style="stop-color:#adadad;stop-opacity:1"
         id="stop203" /><midPointStop
         offset="0"
         style="stop-color:#FFFFFF"
         id="midPointStop205" /><midPointStop
         offset="0.5"
         style="stop-color:#FFFFFF"
         id="midPointStop207" /><midPointStop
         offset="0.5251"
         style="stop-color:#ADADAD"
         id="midPointStop209" /><midPointStop
         offset="0.5"
         style="stop-color:#ADADAD"
         id="midPointStop211" /><midPointStop
         offset="0.6536"
         style="stop-color:#FFFFFF"
         id="midPointStop213" /><midPointStop
         offset="0.5"
         style="stop-color:#FFFFFF"
         id="midPointStop215" /><midPointStop
         offset="1"
         style="stop-color:#ADADAD"
         id="midPointStop217" /></linearGradient><linearGradient
       inkscape:collect="always"
       xlink:href="#linearGradient3646"
       id="linearGradient3927"
       gradientUnits="userSpaceOnUse"
       gradientTransform="matrix(0.80374469,0,0,0.80382376,12.175709,7.7424117)"
       x1="2.891506"
       y1="35.786373"
       x2="52.259041"
       y2="35.786373" /><linearGradient
       id="linearGradient3646"><stop
         id="stop3648"
         offset="0"
         style="stop-color:#ffce00;stop-opacity:1;" /><stop
         id="stop3650"
         offset="1"
         style="stop-color:#ffff14;stop-opacity:1;" /></linearGradient><linearGradient
       inkscape:collect="always"
       xlink:href="#linearGradient3654"
       id="linearGradient3924"
       gradientUnits="userSpaceOnUse"
       gradientTransform="matrix(0.80374469,0,0,0.80382376,12.175709,7.7424117)"
       x1="16.891504"
       y1="11.809084"
       x2="26.891504"
       y2="11.809084" /><linearGradient
       id="linearGradient3654"><stop
         id="stop3656"
         offset="0"
         style="stop-color:#ffae1b;stop-opacity:1;" /><stop
         id="stop3658"
         offset="1"
         style="stop-color:#dee500;stop-opacity:1;" /></linearGradient><linearGradient
       inkscape:collect="always"
       xlink:href="#linearGradient3670"
       id="linearGradient3921"
       gradientUnits="userSpaceOnUse"
       gradientTransform="matrix(0.80374469,0,0,0.80382376,12.175709,7.7424117)"
       x1="16.891504"
       y1="42.309086"
       x2="24.891504"
       y2="42.309086" /><linearGradient
       id="linearGradient3670"><stop
         id="stop3672"
         offset="0"
         style="stop-color:#ffa700;stop-opacity:1;" /><stop
         id="stop3674"
         offset="1"
         style="stop-color:#ffef00;stop-opacity:1;" /></linearGradient><linearGradient
       inkscape:collect="always"
       xlink:href="#linearGradient3662"
       id="linearGradient3918"
       gradientUnits="userSpaceOnUse"
       gradientTransform="matrix(0.80374469,0,0,0.80382376,12.175709,7.7424117)"
       x1="16.891504"
       y1="38.978134"
       x2="63.436829"
       y2="38.978134" /><linearGradient
       id="linearGradient3662"><stop
         id="stop3664"
         offset="0"
         style="stop-color:#b59800;stop-opacity:1;" /><stop
         id="stop3666"
         offset="1"
         style="stop-color:#edff00;stop-opacity:1;" /></linearGradient></defs><sodipodi:namedview
     pagecolor="#ffffff"
     bordercolor="#666666"
     borderopacity="1"
     objecttolerance="10"
     gridtolerance="10"
     guidetolerance="10"
     inkscape:pageopacity="0"
     inkscape:pageshadow="2"
     inkscape:window-width="1159"
     inkscape:window-height="961"
     id="namedview107"
     showgrid="false"
     inkscape:zoom="3.4444019"
     inkscape:cx="44.257962"
     inkscape:cy="-32.305302"
     inkscape:window-x="14"
     inkscape:window-y="72"
     inkscape:window-maximized="0"
     inkscape:current-layer="svg2" /><metadata
     id="metadata4"><sfw
       id="sfw6"><slices
         id="slices8" /><sliceSourceBounds
         y="395.412"
         x="264.146"
         width="64.707"
         height="48.176"
         bottomLeftOrigin="true"
         id="sliceSourceBounds10" /></sfw><rdf:RDF><cc:Work
         rdf:about=""><dc:format>image/svg+xml</dc:format><dc:type
           rdf:resource="http://purl.org/dc/dcmitype/StillImage" /><dc:title></dc:title></cc:Work></rdf:RDF></metadata><path
     sodipodi:nodetypes="cccccccc"
     inkscape:connector-curvature="0"
     style="opacity:0.2;stroke:none;overflow:visible"
     id="path50"
     d="m 26.028256,46.913137 -0.03526,0.03446 c -0.317347,0.31814 -1.437856,0.622657 -1.847273,0.810977 l 8.646724,-0.0601 L 52.972024,24.258015 50.800092,18.1437 34.250317,12.256197 z" /><g
     style="overflow:visible"
     id="g82"
     transform="matrix(0.43555148,0,0,0.52417446,-7.0811719,-0.11038352)"><path
       inkscape:connector-curvature="0"
       id="path84"
       d="m 64.474,1.261 c -1.33,0.227 -2.533,0.904 -2.762,1.038 L 61.425,2.468 16.377,44.56 16.98,62.075 c 0,0 5.878,3.101 7.931,4.185 -0.001,0.242 -0.003,0.564 -0.003,0.564 l 33.212,17.57 c 0,0 1.07,0.137 1.518,0.195 0.873,0.459 9.6,5.066 9.6,5.066 1.143,0.625 2.871,1.348 4.395,1.123 1.436,-0.215 2.883,-1.256 3.617,-1.857 l 0.082,-0.066 47.445,-44.669 c -0.049,0.1 1.182,-1.619 1.182,-1.619 0.002,-0.003 0.385,-1.973 0.385,-1.973 l 0,-5.234 c -0.062,-2.004 -1.352,-3.274 -1.746,-3.619 l -0.299,-0.26 -11.619,-5.69 c 0,0 -1.775,0.264 -2.531,0.376 C 108.553,25.322 78.924,9.647 76.661,8.45 76.569,8.009 76.188,6.173 76.188,6.173 L 67.715,1.546 67.44,1.458 C 67.097,1.351 65.876,1.017 64.474,1.261 z" /><linearGradient
       gradientUnits="userSpaceOnUse"
       id="linearGradient3316"
       y2="41.0541"
       x2="29.4869"
       y1="45.898399"
       x1="111.2725"><stop
         offset="0"
         style="stop-color:#808080;stop-opacity:1"
         id="stop3318" /><stop
         offset="1"
         style="stop-color:#4d4d4d;stop-opacity:1"
         id="stop3320" /><midPointStop
         offset="0"
         style="stop-color:#808080"
         id="midPointStop3322" /><midPointStop
         offset="0.5"
         style="stop-color:#808080"
         id="midPointStop3324" /><midPointStop
         offset="1"
         style="stop-color:#4D4D4D"
         id="midPointStop3326" /></linearGradient><path
       inkscape:connector-curvature="0"
       style="fill:url(#linearGradient3228)"
       id="path97-6"
       d="m 64.983,4.216 c 0.791,-0.139 1.547,0.102 1.547,0.102 l 7.002,3.824 0.479,2.301 35.604,18.836 2.582,-0.383 10.428,5.105 c 0,0 0.695,0.607 0.719,1.354 0.02,0.664 -0.633,1.479 -0.633,1.479 l -47.36,44.537 c 0,0 -1.33,1.088 -2.154,1.211 -0.85,0.125 -2.559,-0.809 -2.559,-0.809 L 19.918,55.005 19.422,45.819 63.231,4.886 c 0,0 0.895,-0.526 1.752,-0.67 z" /><path
       inkscape:connector-curvature="0"
       style="fill:#ffffff"
       id="path99-9"
       d="M 109.614,29.278 74.011,10.442 52.944,30.228 88.542,49.062 109.614,29.278 z" /><path
       inkscape:connector-curvature="0"
       style="fill:#3333ff"
       id="path101-6"
       d="M 109.614,29.278 74.011,10.442 68.9,15.528 l 35.598,18.834 5.116,-5.084 z" /><path
       inkscape:connector-curvature="0"
       style="fill:#ff0000"
       id="path103-8"
       d="m 88.198,17.942 -14.188,-7.5 -5.111,5.086 14.18,7.498 5.119,-5.084 z" /><path
       inkscape:connector-curvature="0"
       style="opacity:0.5;fill:#ffffff"
       id="path105-2"
       d="M 50.401,30.69 88.542,50.794 112.196,28.896 109.614,29.279 88.542,49.062 51.218,29.427 50.401,30.69 z" /><path
       inkscape:connector-curvature="0"
       id="path107"
       d="m 117.021,36.776 -5.658,-2.99 -3.35,3.145 5.66,2.99 3.348,-3.145 z" /><linearGradient
       gradientUnits="userSpaceOnUse"
       id="linearGradient3334"
       y2="36.2225"
       x2="113.6484"
       y1="35.506802"
       x1="114.0615"><stop
         offset="0"
         style="stop-color:#a6a6a6;stop-opacity:1"
         id="stop3336" /><stop
         offset="0.44780001"
         style="stop-color:#7c7c7c;stop-opacity:1"
         id="stop3338" /><stop
         offset="1"
         style="stop-color:#4d4d4d;stop-opacity:1"
         id="stop3340" /><midPointStop
         offset="0"
         style="stop-color:#A6A6A6"
         id="midPointStop3342" /><midPointStop
         offset="0.4804"
         style="stop-color:#A6A6A6"
         id="midPointStop3344" /><midPointStop
         offset="1"
         style="stop-color:#4D4D4D"
         id="midPointStop3346" /></linearGradient><path
       inkscape:connector-curvature="0"
       style="fill:url(#linearGradient3230)"
       id="path122"
       d="m 111.362,33.786 5.658,2.99 -0.766,0.738 -4.887,-2.583 -0.005,-1.145 z" /><path
       inkscape:connector-curvature="0"
       style="fill:#2f2f2f"
       id="path124"
       d="m 69.696,10.271 -5.664,-2.996 -3.354,3.15 5.664,2.992 3.354,-3.146 z" /><path
       inkscape:connector-curvature="0"
       style="fill:#2f2f2f"
       id="path126"
       d="M 52.944,30.228 74.01,10.443 73.522,8.142 50.921,29.353 l 2.023,0.875 z" /><path
       inkscape:connector-curvature="0"
       style="opacity:0.5"
       id="path128"
       d="m 45.923,65.041 -10.471,-5.464 11.502,-10.893 1.791,0 -11.502,10.893 10.471,5.464" /><linearGradient
       gradientUnits="userSpaceOnUse"
       id="linearGradient3352"
       y2="70.0979"
       x2="24.4517"
       y1="72.785202"
       x1="69.819298"><stop
         offset="0"
         style="stop-color:#999999;stop-opacity:1"
         id="stop3354" /><stop
         offset="1"
         style="stop-color:#666666;stop-opacity:1"
         id="stop3356" /><midPointStop
         offset="0"
         style="stop-color:#999999"
         id="midPointStop3358" /><midPointStop
         offset="0.5"
         style="stop-color:#999999"
         id="midPointStop3360" /><midPointStop
         offset="1"
         style="stop-color:#666666"
         id="midPointStop3362" /></linearGradient><path
       inkscape:connector-curvature="0"
       style="fill:url(#linearGradient3232)"
       id="path141"
       d="m 19.918,60.233 50.719,26.769 c 0,0 1.709,0.934 2.559,0.809 C 74.02,87.688 75.35,86.6 75.35,86.6 l 0,-5.229 c 0,0 -1.33,1.088 -2.154,1.211 -0.85,0.125 -2.559,-0.809 -2.559,-0.809 L 19.918,55.005" /><linearGradient
       gradientUnits="userSpaceOnUse"
       id="linearGradient3365"
       y2="60.443298"
       x2="79.020599"
       y1="62.6782"
       x1="116.7529"><stop
         offset="0"
         style="stop-color:#262626;stop-opacity:1"
         id="stop3367" /><stop
         offset="1"
         style="stop-color:#404040;stop-opacity:1"
         id="stop3369" /><midPointStop
         offset="0"
         style="stop-color:#262626"
         id="midPointStop3371" /><midPointStop
         offset="0.5"
         style="stop-color:#262626"
         id="midPointStop3373" /><midPointStop
         offset="1"
         style="stop-color:#404040"
         id="midPointStop3375" /></linearGradient><path
       inkscape:connector-curvature="0"
       style="fill:url(#linearGradient3234)"
       id="path154"
       d="m 123.188,36.028 c -0.129,0.299 -0.293,0.537 -0.387,0.674 l 0,-0.006 -47.45,44.675 c 0,0 -1.33,1.088 -2.154,1.211 -0.85,0.125 -0.85,5.354 0,5.229 0.824,-0.123 2.154,-1.211 2.154,-1.211 l 47.369,-44.597 0,0.055 c 0,0 0.318,-0.287 0.479,-0.664 0.152,-0.359 0.145,-0.811 0.145,-0.811 l 0,-5.229 c -10e-4,0 -0.019,0.348 -0.156,0.674 z" /><linearGradient
       gradientUnits="userSpaceOnUse"
       id="linearGradient3378"
       y2="84.591797"
       x2="75.377998"
       y1="84.591797"
       x1="70.559601"><stop
         offset="0"
         style="stop-color:#999999;stop-opacity:1"
         id="stop3380" /><stop
         offset="1"
         style="stop-color:#404040;stop-opacity:1"
         id="stop3382" /><midPointStop
         offset="0"
         style="stop-color:#999999"
         id="midPointStop3384" /><midPointStop
         offset="0.5"
         style="stop-color:#999999"
         id="midPointStop3386" /><midPointStop
         offset="1"
         style="stop-color:#404040"
         id="midPointStop3388" /></linearGradient><path
       inkscape:connector-curvature="0"
       style="fill:url(#linearGradient3236)"
       id="path167"
       d="m 70.638,87.002 c 0,0 1.709,0.934 2.559,0.809 0.824,-0.123 2.154,-1.211 2.154,-1.211 l 0,-5.229 c 0,0 -1.33,1.088 -2.154,1.211 -0.85,0.125 -2.559,-0.809 -2.559,-0.809 l 0,5.229 z" /><path
       inkscape:connector-curvature="0"
       style="opacity:0.5"
       id="path169"
       d="m 60.63,81.691 -1.588,-0.203 0,-0.49 0.076,-5.34 L 74.116,61.547 74.042,59.879 44.097,44.036 75.159,59.604 c 0,0 0.746,0.705 0.834,1.417 0.092,0.711 -0.475,1.43 -0.475,1.43 l -14.826,13.92 -0.062,5.32 z" /><linearGradient
       gradientUnits="userSpaceOnUse"
       id="linearGradient3392"
       y2="61.944"
       x2="85.201302"
       y1="63.6567"
       x1="13.2295"><stop
         offset="0"
         style="stop-color:#ffffff;stop-opacity:1"
         id="stop3394" /><stop
         offset="0.52509999"
         style="stop-color:#adadad;stop-opacity:1"
         id="stop3396" /><stop
         offset="0.65359998"
         style="stop-color:#ffffff;stop-opacity:1"
         id="stop3398" /><stop
         offset="0.94410002"
         style="stop-color:#adadad;stop-opacity:1"
         id="stop3400" /><midPointStop
         offset="0"
         style="stop-color:#FFFFFF"
         id="midPointStop3402" /><midPointStop
         offset="0.5"
         style="stop-color:#FFFFFF"
         id="midPointStop3404" /><midPointStop
         offset="0.5251"
         style="stop-color:#ADADAD"
         id="midPointStop3406" /><midPointStop
         offset="0.5"
         style="stop-color:#ADADAD"
         id="midPointStop3408" /><midPointStop
         offset="0.6536"
         style="stop-color:#FFFFFF"
         id="midPointStop3410" /><midPointStop
         offset="0.5"
         style="stop-color:#FFFFFF"
         id="midPointStop3412" /><midPointStop
         offset="0.9441"
         style="stop-color:#ADADAD"
         id="midPointStop3414" /></linearGradient><path
       inkscape:connector-curvature="0"
       style="fill:url(#linearGradient3238)"
       id="path194"
       d="m 59.042,80.998 -31.124,-16.467 0.037,-5.302 15.2,-14.307 c 0,0 0.527,-0.346 1.086,-0.439 0.451,-0.078 0.951,0.094 0.951,0.094 l 28.637,15.189 c 0,0 0.662,0.304 0.738,0.783 0.07,0.408 -0.451,0.998 -0.451,0.998 l -14.998,14.111 -0.076,5.34 z M 45.923,65.041 57.402,54.179 46.955,48.685 35.452,59.577 45.923,65.041 z" /><linearGradient
       gradientUnits="userSpaceOnUse"
       id="linearGradient3417"
       y2="66.927902"
       x2="25.885799"
       y1="73.681602"
       x1="60.561501"><stop
         offset="0"
         style="stop-color:#ffffff;stop-opacity:1"
         id="stop3419" /><stop
         offset="0.52509999"
         style="stop-color:#adadad;stop-opacity:1"
         id="stop3421" /><stop
         offset="0.65359998"
         style="stop-color:#ffffff;stop-opacity:1"
         id="stop3423" /><stop
         offset="1"
         style="stop-color:#adadad;stop-opacity:1"
         id="stop3425" /><midPointStop
         offset="0"
         style="stop-color:#FFFFFF"
         id="midPointStop3427" /><midPointStop
         offset="0.5"
         style="stop-color:#FFFFFF"
         id="midPointStop3429" /><midPointStop
         offset="0.5251"
         style="stop-color:#ADADAD"
         id="midPointStop3431" /><midPointStop
         offset="0.5"
         style="stop-color:#ADADAD"
         id="midPointStop3433" /><midPointStop
         offset="0.6536"
         style="stop-color:#FFFFFF"
         id="midPointStop3435" /><midPointStop
         offset="0.5"
         style="stop-color:#FFFFFF"
         id="midPointStop3437" /><midPointStop
         offset="1"
         style="stop-color:#ADADAD"
         id="midPointStop3439" /></linearGradient><path
       inkscape:connector-curvature="0"
       style="fill:url(#linearGradient3240)"
       id="path219"
       d="m 59.118,75.658 -31.162,-16.429 -0.037,5.794 31.124,16.465 0.075,-5.83 z" /><path
       inkscape:connector-curvature="0"
       style="opacity:0.6;fill:#ffffff"
       id="path221"
       d="m 59.144,75.66 0.803,-0.75 -31.163,-16.429 -0.779,0.748 -0.018,0.9 31.123,16.465 0.034,-0.934 z" /><path
       inkscape:connector-curvature="0"
       style="opacity:0.6;fill:#ffffff"
       id="path223"
       d="m 72.56,82.783 c 1.365,-0.248 2.734,-0.871 2.791,-1.412 -2.791,0.42 -2.977,0.031 -2.977,0.031 l -52.375,-27.694 -0.08,1.297 -0.018,0.9 50.704,26.802 c -0.001,0 0.728,0.301 1.955,0.076 z" /><path
       inkscape:connector-curvature="0"
       style="fill:#d9d9d9"
       id="path225"
       d="M 56.259,30.28 87.489,46.757 88.53,45.821 57.3,29.347 56.259,30.28 z" /><path
       inkscape:connector-curvature="0"
       style="fill:#d9d9d9"
       id="path227"
       d="m 59.919,27.21 31.23,16.477 1.039,-0.936 -31.23,-16.475 -1.039,0.934 z" /><path
       inkscape:connector-curvature="0"
       style="fill:#d9d9d9"
       id="path229"
       d="m 63.577,24.14 31.23,16.475 1.039,-0.934 -31.23,-16.475 -1.039,0.934 z" /><path
       inkscape:connector-curvature="0"
       style="fill:#d9d9d9"
       id="path231"
       d="m 67.235,21.069 31.23,16.475 1.041,-0.934 -31.23,-16.475 -1.041,0.934 z" /></g><g
     transform="matrix(0.70391653,0,0,0.70391653,3.5547024,0.64883267)"
     id="g7571"><path
       id="path6-4"
       d="m 14.499743,25.273073 11.252425,20.899418 6.429958,-5.626767 c 12.358938,5.458045 18.476838,13.557411 19.145212,15.546452 l 1.960354,1.89294 8.399773,-1.686069 C 64.872251,34.242232 41.162344,23.437596 33.789614,19.646307 l 0,-8.842062 -8.037446,4.019118 -11.252425,10.44971 z"
       style="fill:none;stroke:#000000;stroke-width:4"
       sodipodi:nodetypes="cccccccccc"
       inkscape:connector-curvature="0" /><path
       id="path13"
       d="m 14.499741,25.273072 11.252425,20.899418 0,-8.842062 c 8.370931,5.14925 17.358361,6.984501 25.421045,18.607607 l 1.772429,1.715816 C 49.172749,29.574554 39.543135,29.625709 25.752166,23.665425 l 0,-8.842062 -11.252425,10.449709 z"
       style="fill:url(#linearGradient3927);fill-opacity:1"
       sodipodi:nodetypes="cccccccc"
       inkscape:connector-curvature="0" /><path
       id="path20"
       d="m 25.752166,14.823363 0,8.842062 8.037446,-4.019119 0,-8.842062 -8.037446,4.019119 z"
       style="fill:url(#linearGradient3924);fill-opacity:1"
       inkscape:connector-curvature="0" /><path
       id="path27"
       d="m 25.752166,37.330428 0,8.842062 6.429957,-5.626768 -6.429957,-3.215294 z"
       style="fill:url(#linearGradient3921);fill-opacity:1"
       inkscape:connector-curvature="0" /><path
       id="path41"
       d="m 25.752166,23.665425 8.037446,-4.019119 c 8.4516,3.534389 30.697323,14.313335 28.360221,36.575668 l -8.895946,1.971364 C 51.458926,56.08654 54.21063,34.55817 25.752166,23.665425 Z"
       style="fill:url(#linearGradient3918);fill-opacity:1"
       sodipodi:nodetypes="ccccc"
       inkscape:connector-curvature="0" /><path
       id="path43"
       d="m 33.387742,11.704527 -7.635574,3.617207 -10.754103,9.750383 m 9.752293,-1.869111 c 4.286639,1.87559 27.68469,11.226941 28.195283,34.527916"
       style="fill:none;stroke:#ffffff;stroke-width:1;stroke-linecap:round;stroke-opacity:0.28620001"
       sodipodi:nodetypes="ccccc"
       inkscape:connector-curvature="0" /></g></svg>