<?xml version="1.0" encoding="iso-8859-1"?>
<!-- Generator: Adobe Illustrator 9.0, SVG Export Plug-In  -->
<!DOCTYPE svg PUBLIC "-//W3C//DTD SVG 20000303 Stylable//EN"   "http://www.w3.org/TR/2000/03/WD-SVG-20000303/DTD/svg-20000303-stylable.dtd" [
	<!ENTITY st0 "opacity:0.2;fill:url(#aigrd2);stroke:none;">
	<!ENTITY st1 "fill:#D9D9D9;stroke-width:0.2071;">
	<!ENTITY st2 "fill:#7273A3;stroke:none;">
	<!ENTITY st3 "fill:#7273A3;stroke-width:0.2071;">
	<!ENTITY st4 "stroke-width:0.8284;">
	<!ENTITY st5 "fill:none;stroke:none;">
	<!ENTITY st6 "fill-rule:nonzero;clip-rule:nonzero;stroke:#000000;stroke-miterlimit:4;">
	<!ENTITY st7 "fill:#FFBA00;stroke:none;">
	<!ENTITY st8 "fill:url(#aigrd1);stroke-width:0.2071;">
]>
<svg  width="24pt" height="24pt" viewBox="0 0 24 24" xml:space="preserve">
	<g id="Layer_x0020_1" style="&st6;">
		<path style="&st4;" d="M20.8,3.2c0.7,0,1.3,0.6,1.3,1.3v16.6c0,0.7-0.6,1.3-1.3,1.3H4.4l-1.8-1.8V4.5c0-0.7,0.6-1.3,1.3-1.3h16.8z"/>
		<path style="&st2;" d="M3.5,20.3l1.3,1.3h16c0.3,0,0.5-0.2,0.5-0.5V4.5c0-0.3-0.2-0.5-0.5-0.5H4C3.7,4,3.5,4.2,3.5,4.5v15.8z"/>
		<linearGradient id="aigrd1" gradientUnits="userSpaceOnUse" x1="12.4604" y1="4.2432" x2="12.4604" y2="6.897">
			<stop  offset="0" style="stop-color:#FFFFFF"/>
			<stop  offset="0.1236" style="stop-color:#E6E6E6"/>
		</linearGradient>
		<path style="&st8;" d="M19.4,12.2c0,0.3-0.2,0.5-0.5,0.5H6c-0.3,0-0.5-0.2-0.5-0.5V4.4c0-0.3,0.2-0.5,0.5-0.5h13c0.3,0,0.5,0.2,0.5,0.5v7.8z"/>
		<path style="&st1;" d="M16.7,21.1c0,0.3-0.3,0.5-0.6,0.5H7.1c-0.4,0-0.6-0.2-0.6-0.5v-6.6c0-0.3,0.3-0.5,0.6-0.5H16c0.4,0,0.6,0.2,0.6,0.5v6.6z"/>
		<path style="&st3;" d="M11.1,19.8c0,0.3-0.2,0.5-0.5,0.5H8.9c-0.3,0-0.5-0.2-0.5-0.5v-4c0-0.3,0.2-0.5,0.5-0.5h1.7c0.3,0,0.5,0.2,0.5,0.5v4z"/>
	</g>
	<g id="Layer_x0020_3" style="&st6;">
		<path style="&st4;" d="M8.7,1.5l-6,6.1l0,0C2.5,7.7,2.3,8,2.3,8.4c0,0.4,0.2,0.6,0.4,0.8l6,6c0.3,0.3,0.7,0.3,1,0.2c0.3-0.1,0.6-0.5,0.6-0.8c0,0,0-1.8,0-2.8c0.4,0,0.8,0,0.8,0c0.2,0,0.5,0,0.7,0.2c0.2,0.1,0.3,0.3,0.3,0.6v1.6c0,0.4-0.9,0.9-1.5,1.1
			c-0.3,0.1-0.5,0.2-0.7,0.3c-0.4,0.3-0.6,0.6-0.6,1c0,0.8,0.7,1.3,1.3,1.4l0.1,0h2.2c2.6,0,3.9-2.4,3.9-4.7v-2.7c0-1.7-0.5-3.2-1.4-4.1C14.5,5.5,13.2,5,11.7,5c0,0-0.8,0-1.5,0c0-1,0-2.8,0-2.8c0-0.4-0.2-0.7-0.6-0.9c-0.3-0.1-0.8-0.1-1,0.2z"/>
		<path style="&st7;" d="M9.4,2.2c0-0.1-0.1-0.1-0.2-0.1l-6,6.1C3,8.4,3.1,8.5,3.2,8.6l6,6c0.1,0,0.1,0,0.1,0V11h1.7c0.5,0,1.9,0.3,1.9,1.6v1.6c0,1.5-2.8,1.9-2.8,2.4c0,0.5,0.6,0.6,0.6,0.6h2.1c2.1,0,3.1-2,3.1-3.9v-2.7c0-3.2-1.8-4.7-4.3-4.7H9.4l0-3.7z"/>
		<linearGradient id="aigrd2" gradientUnits="userSpaceOnUse" x1="9.1763" y1="12.5557" x2="9.1763" y2="8.7166">
			<stop  offset="0" style="stop-color:#FFBA00"/>
			<stop  offset="1" style="stop-color:#000000"/>
		</linearGradient>
		<path style="&st0;" d="M4,8.4h8c1.2,0,2.4,1.3,2.4,2.4v4c0-2.6-1.1-4.8-2.2-4.8H8.8v2.9L4,8.4z"/>
	</g>
	<g id="Layer_x0020_4" style="&st6;">
		<path style="&st5;" d="M24,24H0V0h24v24z"/>
	</g>
</svg>
