<?xml version="1.0" encoding="UTF-8" standalone="no"?>
<!-- Created with Inkscape (http://www.inkscape.org/) -->

<svg
   xmlns:dc="http://purl.org/dc/elements/1.1/"
   xmlns:cc="http://creativecommons.org/ns#"
   xmlns:rdf="http://www.w3.org/1999/02/22-rdf-syntax-ns#"
   xmlns:svg="http://www.w3.org/2000/svg"
   xmlns="http://www.w3.org/2000/svg"
   xmlns:sodipodi="http://sodipodi.sourceforge.net/DTD/sodipodi-0.dtd"
   xmlns:inkscape="http://www.inkscape.org/namespaces/inkscape"
   width="48"
   height="48"
   id="svg2"
   version="1.1"
   inkscape:version="0.48.3.1 r9886"
   sodipodi:docname="Documento nuevo 1">
  <defs
     id="defs4" />
  <sodipodi:namedview
     id="base"
     pagecolor="#ffffff"
     bordercolor="#666666"
     borderopacity="1.0"
     inkscape:pageopacity="0.0"
     inkscape:pageshadow="2"
     inkscape:zoom="16"
     inkscape:cx="24"
     inkscape:cy="24"
     inkscape:document-units="px"
     inkscape:current-layer="layer1"
     showgrid="false"
     inkscape:window-width="1678"
     inkscape:window-height="988"
     inkscape:window-x="2"
     inkscape:window-y="30"
     inkscape:window-maximized="1" />
  <metadata
     id="metadata7">
    <rdf:RDF>
      <cc:Work
         rdf:about="">
        <dc:format>image/svg+xml</dc:format>
        <dc:type
           rdf:resource="http://purl.org/dc/dcmitype/StillImage" />
        <dc:title></dc:title>
      </cc:Work>
    </rdf:RDF>
  </metadata>
  <g
     inkscape:label="Capa 1"
     inkscape:groupmode="layer"
     id="layer1"
     transform="translate(0,-1004.3622)">
    <path
       style="fill:none;stroke:#000000;stroke-width:1px;stroke-linecap:butt;stroke-linejoin:miter;stroke-opacity:1"
       d="m 10.6875,15.5 1.75,-1.25 C 16.166137,10.883429 20.631479,10.279505 25,9.3125 34.106478,8.6563415 36.113654,12.642034 41.375,14.5 c 3.458661,4.594246 3.888723,9.666693 4.25,14.75 -0.977739,3.020833 -2.553967,6.041667 -4.1875,9.0625 -7.126324,2.708601 -8.692758,-0.632975 -13.5,1.5 -1.332958,-0.588448 -1.70596,-0.936907 -2.4375,-1.375 0,0 -1.1875,4.25 -1.5625,4.375 -0.375,0.125 -8.625,0.5625 -8.625,0.5625 C 15.769946,43.901063 8.9334396,40.904937 6.25,38.3125 5.4548667,37.544332 7.0186903,27.546152 7.25,25.6875 7.327186,25.067284 9.375,23.75 9.375,23.75 c 0,0 0.6875,-5.125 0.25,-5.3125 C 7.7596359,16.719751 8.5369694,15.407685 10.6875,15.5 z"
       id="path2993"
       inkscape:connector-curvature="0"
       transform="translate(0,1004.3622)"
       sodipodi:nodetypes="ccccccccscssccc" />
    <path
       style="fill:none;stroke:#000000;stroke-width:1px;stroke-linecap:butt;stroke-linejoin:miter;stroke-opacity:1"
       d="m 12.0625,1020.7997 c 2.622147,0.3041 4.210495,1.8634 4.5,5"
       id="path2999"
       inkscape:connector-curvature="0"
       sodipodi:nodetypes="cc" />
  </g>
</svg>
