<?xml version="1.0" encoding="UTF-8" standalone="no"?>
<svg
   xmlns:dc="http://purl.org/dc/elements/1.1/"
   xmlns:cc="http://creativecommons.org/ns#"
   xmlns:rdf="http://www.w3.org/1999/02/22-rdf-syntax-ns#"
   xmlns:svg="http://www.w3.org/2000/svg"
   xmlns="http://www.w3.org/2000/svg"
   xmlns:sodipodi="http://sodipodi.sourceforge.net/DTD/sodipodi-0.dtd"
   xmlns:inkscape="http://www.inkscape.org/namespaces/inkscape"
   version="1.1"
   width="64"
   height="64"
   color-interpolation="linearRGB"
   id="svg2"
   sodipodi:version="0.32"
   inkscape:version="0.91 r13725"
   sodipodi:docname="state-warning.svg"
   inkscape:output_extension="org.inkscape.output.svg.inkscape">
  <metadata
     id="metadata45">
    <rdf:RDF>
      <cc:Work
         rdf:about="">
        <dc:format>image/svg+xml</dc:format>
        <dc:type
           rdf:resource="http://purl.org/dc/dcmitype/StillImage" />
        <dc:title></dc:title>
      </cc:Work>
    </rdf:RDF>
  </metadata>
  <defs
     id="defs43">
    <inkscape:perspective
       sodipodi:type="inkscape:persp3d"
       inkscape:vp_x="0 : 32 : 1"
       inkscape:vp_y="0 : 1000 : 0"
       inkscape:vp_z="64 : 32 : 1"
       inkscape:persp3d-origin="32 : 21.333333 : 1"
       id="perspective47" />
    <inkscape:perspective
       id="perspective2502"
       inkscape:persp3d-origin="32 : 21.333333 : 1"
       inkscape:vp_z="64 : 32 : 1"
       inkscape:vp_y="0 : 1000 : 0"
       inkscape:vp_x="0 : 32 : 1"
       sodipodi:type="inkscape:persp3d" />
  </defs>
  <sodipodi:namedview
     inkscape:window-height="1016"
     inkscape:window-width="1920"
     inkscape:pageshadow="2"
     inkscape:pageopacity="0.0"
     guidetolerance="10.0"
     gridtolerance="10.0"
     objecttolerance="10.0"
     borderopacity="1.0"
     bordercolor="#666666"
     pagecolor="#ffffff"
     id="base"
     showgrid="false"
     inkscape:zoom="4.180157"
     inkscape:cx="48.623082"
     inkscape:cy="16.796436"
     inkscape:window-x="0"
     inkscape:window-y="30"
     inkscape:current-layer="svg2"
     inkscape:window-maximized="1" />
  <g
     id="g8102"
     transform="matrix(1.6880244,0,0,1.6880244,-1.5769618,-71.053432)">
    <path
       sodipodi:nodetypes="cscssscsssssccsscssscssssssssscc"
       inkscape:connector-curvature="0"
       id="path7465"
       d="m 24.278505,68.38947 c -1.013381,-0.214591 -1.928714,-0.654993 -2.740174,-1.319253 l -0.356539,-0.291651 -0.683597,0.342128 c -1.457744,0.730101 -2.780913,1.001999 -4.540766,0.933719 -1.899569,-0.07315 -3.672924,-0.657918 -4.930754,-1.624315 l -0.466844,-0.35871 -0.6940234,0.229224 C 8.1032358,66.882938 6.2256603,66.573973 4.7161345,65.452729 4.0543064,64.961118 3.5399965,64.324901 3.1589094,63.526767 2.4277476,61.995359 2.4445645,60.396161 3.2080902,58.848659 3.8240124,57.600367 4.9447757,56.640555 6.348978,56.158699 6.9874587,55.939229 7.1979222,55.909967 8.1315615,55.906796 l 1.0586296,0 0.1404505,-0.434305 c 0.7265024,-2.246389 2.4979614,-3.872898 4.9365544,-4.533012 0.982336,-0.266046 2.552055,-0.185331 3.911228,0.2024 0.159705,0.04633 0.236449,-0.04633 0.579559,-0.690841 2.201669,-4.138701 6.974252,-5.577198 10.88813,-3.281794 0.816247,0.47893 2.008859,1.65065 2.612683,2.567301 0.649408,0.98566 1.002957,1.880361 1.329785,3.364949 0.03865,0.175575 0.119076,0.245074 0.33274,0.287748 1.963816,0.392362 3.611332,1.82891 4.350789,3.793403 0.693781,1.843296 0.608911,3.977999 -0.22425,5.6406 -0.801489,1.599443 -1.911675,2.585102 -3.541381,3.144748 -0.365511,0.126805 -0.709278,0.160945 -1.473525,0.156067 -0.867965,0 -1.079732,-0.03658 -1.638493,-0.247025 -0.571283,-0.214591 -0.650175,-0.224346 -0.718931,-0.102417 -0.145826,0.260679 -0.768456,0.936644 -1.20909,1.312668 -0.542838,0.463324 -1.394505,0.91543 -2.197565,1.166602 -0.771366,0.241415 -2.189633,0.306037 -2.990381,0.136557 z"
       style="fill:#000000;fill-opacity:0.39607843;stroke:none;stroke-width:0.60000002;stroke-miterlimit:4;stroke-dasharray:none;stroke-opacity:1" />
    <path
       style="fill:#fdffff;fill-opacity:1;stroke:#000000;stroke-width:1.46312773;stroke-miterlimit:4;stroke-dasharray:none;stroke-opacity:1"
       d="m 22.907986,65.64391 c -0.992447,-0.209713 -1.888869,-0.64158 -2.683567,-1.291941 l -0.349171,-0.285796 -0.669475,0.335055 c -1.427627,0.714982 -2.72346,0.981271 -4.446955,0.914456 -1.860326,-0.07316 -3.597045,-0.644265 -4.8288879,-1.590909 L 9.472731,63.373624 8.793046,63.597971 C 7.0668879,64.168346 5.2281022,63.865724 3.7497625,62.767646 3.1016075,62.286277 2.5979226,61.663229 2.224709,60.881676 1.5086532,59.381725 1.5251229,57.815446 2.2728744,56.300134 2.8760718,55.077691 3.9736807,54.137632 5.3488729,53.665773 5.9741627,53.451181 6.1802784,53.421919 7.0946291,53.418992 l 1.036759,0 0.1375485,-0.425281 c 0.7114939,-2.199814 2.4463544,-3.792916 4.8345674,-4.439373 0.962043,-0.260439 2.499332,-0.180453 3.830424,0.19996 0.156406,0.04389 0.231565,-0.04389 0.567586,-0.676696 2.156183,-4.053108 6.830172,-5.461856 10.663193,-3.213761 0.799382,0.468932 1.967353,1.616512 2.558704,2.514142 0.635991,0.965419 0.982238,1.84159 1.302313,3.29545 0.03784,0.173137 0.116613,0.238977 0.325866,0.281897 1.923242,0.384314 3.53672,1.791112 4.260903,3.714881 0.679448,1.805254 0.596332,3.89582 -0.219614,5.524037 -0.78493,1.566278 -1.872182,2.531942 -3.468219,3.079884 -0.357959,0.121927 -0.694623,0.158506 -1.443082,0.153628 -0.850036,0 -1.057424,-0.03658 -1.604643,-0.241417 -0.559481,-0.209713 -0.636742,-0.221906 -0.704079,-0.09998 -0.142802,0.255316 -0.752577,0.917381 -1.18411,1.285602 -0.531622,0.453812 -1.365696,0.896654 -2.152162,1.142458 -0.755431,0.236539 -2.144398,0.299698 -2.928609,0.134121 z"
       id="path12728"
       inkscape:connector-curvature="0"
       sodipodi:nodetypes="cscssscsssssccsscssscssssssssscc" />
    <path
       sodipodi:nodetypes="cccc"
       inkscape:connector-curvature="0"
       id="path12817"
       d="m 15.105022,49.221812 c 1.130546,5.042188 3.371286,7.259888 5.494947,8.925487 -1.928754,-2.989527 -4.253304,-6.053266 -3.03426,-8.452581 z"
       style="fill:#cbcbcb;fill-opacity:0.87029263;fill-rule:evenodd;stroke:none;stroke-width:1px;stroke-linecap:butt;stroke-linejoin:miter;stroke-opacity:1" />
    <path
       style="fill:#cbcbcb;fill-opacity:0.87029263;fill-rule:evenodd;stroke:none;stroke-width:1px;stroke-linecap:butt;stroke-linejoin:miter;stroke-opacity:1"
       d="m 30.437107,62.438391 c -0.606427,-2.704639 -1.808365,-3.894218 -2.947501,-4.787649 1.034588,1.603588 2.281481,3.246984 1.627583,4.533981 z"
       id="path12819"
       inkscape:connector-curvature="0"
       sodipodi:nodetypes="cccc" />
    <path
       sodipodi:nodetypes="cccc"
       inkscape:connector-curvature="0"
       id="path12821"
       d="m 31.517826,51.259927 c -2.170293,1.365063 -2.669441,2.587848 -2.929198,3.66356 0.958059,-1.258591 1.849024,-2.672623 3.340695,-2.694968 z"
       style="fill:#cbcbcb;fill-opacity:0.87029263;fill-rule:evenodd;stroke:none;stroke-width:1px;stroke-linecap:butt;stroke-linejoin:miter;stroke-opacity:1" />
    <path
       style="fill:#cbcbcb;fill-opacity:0.87029263;fill-rule:evenodd;stroke:none;stroke-width:1px;stroke-linecap:butt;stroke-linejoin:miter;stroke-opacity:1"
       d="m 10.399565,63.139615 c 3.323625,-3.008031 0.410593,-3.441267 -0.211517,-3.717084 0.752872,0.488121 2.014974,1.136018 -0.3533845,3.101631 z"
       id="path12823"
       inkscape:connector-curvature="0"
       sodipodi:nodetypes="cccc" />
  </g>
  <g
     style="color-interpolation:linearRGB"
     id="g7558"
     transform="matrix(0.66345726,0,0,0.66345726,21.404638,21.861793)">
    <g
       id="g7516">
      <path
         id="path7518"
         d="m 30,62 6,0 2,-2 4,2 14,0 8,-10 -10,-4 -10,0 -1,1 -3,-1 -2,0 -8,14 z"
         style="fill:#010101;fill-opacity:0.45489999"
         inkscape:connector-curvature="0" />
      <path
         id="path7520"
         d="m 14,41 0,11 16,8 8,-8 0,-11 -16,-6 -8,6 z"
         style="fill:none;stroke:#000000;stroke-width:4"
         inkscape:connector-curvature="0" />
      <linearGradient
         y2="65.650002"
         x2="49.669998"
         y1="56.150002"
         x1="56.220001"
         gradientUnits="userSpaceOnUse"
         id="gradient0">
        <stop
           id="stop7523"
           stop-color="#e07900"
           offset="0" />
        <stop
           id="stop7525"
           stop-color="#fff289"
           offset="1" />
      </linearGradient>
      <path
         id="path7527"
         d="m 14,41 16,7 8,-7 -16,-6 -8,6 z"
         style="fill:url(#gradient0)"
         inkscape:connector-curvature="0" />
      <path
         id="path7529"
         d="m 14,6 0,28 16,7 8,-6 L 38,6 22,2 14,6 Z"
         style="fill:none;stroke:#000000;stroke-width:4"
         inkscape:connector-curvature="0" />
      <linearGradient
         y2="-13.84"
         x2="51.299999"
         y1="-24.129999"
         x1="24.32"
         gradientUnits="userSpaceOnUse"
         id="gradient1">
        <stop
           id="stop7532"
           stop-color="#fff49e"
           offset="0" />
        <stop
           id="stop7534"
           stop-color="#ffbd30"
           offset="1" />
      </linearGradient>
      <path
         id="path7536"
         d="m 14,6 0,28 16,7 0,-30 -16,-5 z m 0,35 0,11 16,8 0,-12 -16,-7 z"
         style="fill:url(#gradient1)"
         inkscape:connector-curvature="0" />
      <linearGradient
         y2="-9.1300001"
         x2="56.009998"
         y1="-22.809999"
         x1="30.5"
         gradientUnits="userSpaceOnUse"
         id="gradient2">
        <stop
           id="stop7539"
           stop-color="#ffffff"
           offset="0" />
        <stop
           id="stop7541"
           stop-color="#fff289"
           offset="1" />
      </linearGradient>
      <path
         id="path7543"
         d="M 14,6 30,11 38,6 22,2 14,6 Z"
         style="fill:url(#gradient2)"
         inkscape:connector-curvature="0" />
      <linearGradient
         y2="0.74000001"
         x2="46.77"
         y1="-0.68000001"
         x1="33.299999"
         gradientUnits="userSpaceOnUse"
         id="gradient3">
        <stop
           id="stop7546"
           stop-color="#ed9406"
           offset="0" />
        <stop
           id="stop7548"
           stop-color="#fcb23d"
           offset="1" />
      </linearGradient>
      <path
         id="path7550"
         d="m 30,11 0,30 8,-6 0,-29 -8,5 z m 0,37 0,12 8,-8 0,-11 -8,7 z"
         style="fill:url(#gradient3)"
         inkscape:connector-curvature="0" />
    </g>
  </g>
</svg>
