<?xml version="1.0" encoding="UTF-8" standalone="no"?>
<!-- Created with Inkscape (http://www.inkscape.org/) -->
<svg
   xmlns:dc="http://purl.org/dc/elements/1.1/"
   xmlns:cc="http://web.resource.org/cc/"
   xmlns:rdf="http://www.w3.org/1999/02/22-rdf-syntax-ns#"
   xmlns:svg="http://www.w3.org/2000/svg"
   xmlns="http://www.w3.org/2000/svg"
   xmlns:xlink="http://www.w3.org/1999/xlink"
   xmlns:sodipodi="http://sodipodi.sourceforge.net/DTD/sodipodi-0.dtd"
   xmlns:inkscape="http://www.inkscape.org/namespaces/inkscape"
   width="48.000000px"
   height="48.000000px"
   id="svg3077"
   sodipodi:version="0.32"
   inkscape:version="0.44.1"
   sodipodi:docbase="/tmp"
   sodipodi:docname="import-session.svg">
  <defs
     id="defs3">
    <linearGradient
       inkscape:collect="always"
       id="linearGradient2187">
      <stop
         style="stop-color:#ffffff;stop-opacity:1;"
         offset="0"
         id="stop2189" />
      <stop
         style="stop-color:#ffffff;stop-opacity:0;"
         offset="1"
         id="stop2191" />
    </linearGradient>
    <linearGradient
       inkscape:collect="always"
       xlink:href="#linearGradient2187"
       id="linearGradient2193"
       x1="14.296179"
       y1="15.230618"
       x2="10.022297"
       y2="23.105061"
       gradientUnits="userSpaceOnUse"
       gradientTransform="matrix(1.171926,0,0,1.171926,-4.674553,-1.427903)" />
    <linearGradient
       inkscape:collect="always"
       id="linearGradient2702">
      <stop
         style="stop-color:#3a7304;stop-opacity:1;"
         offset="0"
         id="stop2704" />
      <stop
         style="stop-color:#3a7304;stop-opacity:0;"
         offset="1"
         id="stop2706" />
    </linearGradient>
    <linearGradient
       inkscape:collect="always"
       xlink:href="#linearGradient2702"
       id="linearGradient2708"
       x1="12.105637"
       y1="24.589863"
       x2="6.1056361"
       y2="29.839863"
       gradientUnits="userSpaceOnUse" />
    <linearGradient
       id="linearGradient2161">
      <stop
         style="stop-color:#519e07;stop-opacity:1"
         offset="0"
         id="stop2163" />
      <stop
         style="stop-color:#6cc813;stop-opacity:1"
         offset="1.0000000"
         id="stop2165" />
    </linearGradient>
    <linearGradient
       inkscape:collect="always"
       xlink:href="#linearGradient2161"
       id="linearGradient2167"
       x1="22.000000"
       y1="16.642263"
       x2="19.377108"
       y2="12.448164"
       gradientUnits="userSpaceOnUse"
       gradientTransform="matrix(1.171926,0,0,1.171926,-4.674553,-1.427903)" />
    <linearGradient
       inkscape:collect="always"
       id="linearGradient23419">
      <stop
         style="stop-color:#000000;stop-opacity:1;"
         offset="0"
         id="stop23421" />
      <stop
         style="stop-color:#000000;stop-opacity:0;"
         offset="1"
         id="stop23423" />
    </linearGradient>
    <linearGradient
       id="linearGradient3435"
       gradientUnits="userSpaceOnUse"
       x1="12.2744"
       y1="32.4165"
       x2="35.3912"
       y2="14.2033">
      <stop
         offset="0.0000000"
         style="stop-color:#ffffc8;stop-opacity:1.0000000;"
         id="stop3437" />
      <stop
         offset="1.0000000"
         style="stop-color:#9a91ef;stop-opacity:0.0000000;"
         id="stop3439" />
    </linearGradient>
    <linearGradient
       y2="14.2033"
       x2="35.3912"
       y1="32.4165"
       x1="12.2744"
       gradientUnits="userSpaceOnUse"
       id="linearGradient3421">
      <stop
         id="stop3423"
         style="stop-color:#ffffff;stop-opacity:1.0000000;"
         offset="0.0000000" />
      <stop
         id="stop3427"
         style="stop-color:#b8c04c;stop-opacity:0.0000000;"
         offset="1.0000000" />
    </linearGradient>
    <linearGradient
       id="linearGradient3406"
       gradientUnits="userSpaceOnUse"
       x1="12.2744"
       y1="32.4165"
       x2="35.3912"
       y2="14.2033">
      <stop
         offset="0.0000000"
         style="stop-color:#b307ff;stop-opacity:0.82178217;"
         id="stop3408" />
      <stop
         offset="1.0000000"
         style="stop-color:#f0ff8b;stop-opacity:0.64356434;"
         id="stop3410" />
      <stop
         offset="1.0000000"
         style="stop-color:#ffffff;stop-opacity:0.0000000;"
         id="stop3412" />
    </linearGradient>
    <linearGradient
       y2="14.2033"
       x2="35.3912"
       y1="32.4165"
       x1="12.2744"
       gradientUnits="userSpaceOnUse"
       id="linearGradient3394">
      <stop
         id="stop3396"
         style="stop-color:#fff307;stop-opacity:1.0000000;"
         offset="0.0000000" />
      <stop
         id="stop3398"
         style="stop-color:#166eff;stop-opacity:1.0000000;"
         offset="0.50000000" />
      <stop
         id="stop3400"
         style="stop-color:#ffffff;stop-opacity:0.0000000;"
         offset="1.0000000" />
    </linearGradient>
    <linearGradient
       inkscape:collect="always"
       id="linearGradient6036">
      <stop
         style="stop-color:#ffffff;stop-opacity:1;"
         offset="0"
         id="stop6038" />
      <stop
         style="stop-color:#ffffff;stop-opacity:0;"
         offset="1"
         id="stop6040" />
    </linearGradient>
    <linearGradient
       inkscape:collect="always"
       id="linearGradient6028">
      <stop
         style="stop-color:#ffffff;stop-opacity:1;"
         offset="0"
         id="stop6030" />
      <stop
         style="stop-color:#ffffff;stop-opacity:0;"
         offset="1"
         id="stop6032" />
    </linearGradient>
    <linearGradient
       id="linearGradient4236">
      <stop
         style="stop-color:#ffffff;stop-opacity:0.32673267;"
         offset="0.0000000"
         id="stop4238" />
      <stop
         style="stop-color:#ffffff;stop-opacity:0.60396039;"
         offset="1.0000000"
         id="stop4240" />
    </linearGradient>
    <linearGradient
       id="aigrd2"
       gradientUnits="userSpaceOnUse"
       x1="12.2744"
       y1="32.4165"
       x2="35.3912"
       y2="14.2033">
      <stop
         offset="0"
         style="stop-color:#FBFBFB"
         id="stop3043" />
      <stop
         offset="0.5"
         style="stop-color:#B6B6B6"
         id="stop3045" />
      <stop
         offset="1"
         style="stop-color:#E4E4E4"
         id="stop3047" />
    </linearGradient>
    <linearGradient
       id="aigrd1"
       gradientUnits="userSpaceOnUse"
       x1="14.9966"
       y1="11.1885"
       x2="32.511"
       y2="34.3075">
      <stop
         offset="0"
         style="stop-color:#EBEBEB"
         id="stop3034" />
      <stop
         offset="0.5"
         style="stop-color:#FFFFFF"
         id="stop3036" />
      <stop
         offset="1"
         style="stop-color:#EBEBEB"
         id="stop3038" />
    </linearGradient>
    <linearGradient
       inkscape:collect="always"
       xlink:href="#aigrd1"
       id="linearGradient3912"
       gradientUnits="userSpaceOnUse"
       x1="14.9966"
       y1="11.1885"
       x2="32.511"
       y2="34.3075"
       gradientTransform="matrix(1.190476,0.000000,0.000000,1.190476,-4.224424,-2.500000)" />
    <linearGradient
       inkscape:collect="always"
       xlink:href="#linearGradient4236"
       id="linearGradient4222"
       x1="21.125000"
       y1="14.625000"
       x2="29.000000"
       y2="28.000000"
       gradientUnits="userSpaceOnUse"
       gradientTransform="matrix(1.250000,0.000000,0.000000,1.250000,-5.652995,-2.604165)" />
    <linearGradient
       inkscape:collect="always"
       xlink:href="#linearGradient4236"
       id="linearGradient4224"
       x1="21.125000"
       y1="14.625000"
       x2="29.000000"
       y2="28.000000"
       gradientUnits="userSpaceOnUse"
       gradientTransform="matrix(1.250000,0.000000,0.000000,1.250000,-5.652995,-2.604165)" />
    <linearGradient
       inkscape:collect="always"
       xlink:href="#aigrd2"
       id="linearGradient4242"
       gradientUnits="userSpaceOnUse"
       gradientTransform="matrix(1.190476,0.000000,0.000000,1.190476,-4.224424,-2.500001)"
       x1="12.2744"
       y1="32.4165"
       x2="35.3912"
       y2="14.2033" />
    <linearGradient
       inkscape:collect="always"
       xlink:href="#linearGradient6028"
       id="linearGradient6034"
       x1="28.702885"
       y1="31.494707"
       x2="17.742729"
       y2="18.366575"
       gradientUnits="userSpaceOnUse" />
    <linearGradient
       inkscape:collect="always"
       xlink:href="#linearGradient6036"
       id="linearGradient6042"
       x1="10.501720"
       y1="3.6100161"
       x2="48.798885"
       y2="54.698483"
       gradientUnits="userSpaceOnUse" />
    <radialGradient
       gradientTransform="matrix(0.848684,0.958020,-0.782119,0.692834,18.69147,-20.52578)"
       gradientUnits="userSpaceOnUse"
       r="21.333334"
       fy="27.569166"
       fx="37.751469"
       cy="27.569166"
       cx="37.751469"
       id="radialGradient3392"
       xlink:href="#linearGradient3394"
       inkscape:collect="always" />
    <radialGradient
       r="21.333334"
       fy="48.238270"
       fx="53.556889"
       cy="48.238270"
       cx="53.556889"
       gradientTransform="matrix(0.158450,-0.158988,0.432907,0.431441,-2.723645,15.00107)"
       gradientUnits="userSpaceOnUse"
       id="radialGradient3429"
       xlink:href="#linearGradient3421"
       inkscape:collect="always" />
    <radialGradient
       r="21.333334"
       fy="33.377594"
       fx="16.885271"
       cy="33.377594"
       cx="16.885271"
       gradientTransform="matrix(5.184267e-3,-0.122860,0.544548,2.297824e-2,0.957234,26.30756)"
       gradientUnits="userSpaceOnUse"
       id="radialGradient3433"
       xlink:href="#linearGradient3435"
       inkscape:collect="always" />
    <radialGradient
       r="21.333334"
       fy="21.618015"
       fx="35.511295"
       cy="21.618015"
       cx="35.511295"
       gradientTransform="matrix(0.105916,-1.914240e-2,0.104789,0.579807,17.13693,7.115158)"
       gradientUnits="userSpaceOnUse"
       id="radialGradient3443"
       xlink:href="#linearGradient3435"
       inkscape:collect="always" />
    <radialGradient
       gradientTransform="matrix(-5.048220e-2,1.387847e-2,-0.128440,-0.467196,35.41257,39.44172)"
       r="21.333334"
       fy="23.914305"
       fx="133.84108"
       cy="23.914305"
       cx="133.84108"
       gradientUnits="userSpaceOnUse"
       id="radialGradient3447"
       xlink:href="#linearGradient3435"
       inkscape:collect="always" />
    <radialGradient
       r="21.333334"
       fy="38.807304"
       fx="26.137741"
       cy="38.807304"
       cx="26.137741"
       gradientTransform="matrix(0.769501,-1.242500,0.670300,0.415141,-21.77857,41.36563)"
       gradientUnits="userSpaceOnUse"
       id="radialGradient3449"
       xlink:href="#linearGradient3406"
       inkscape:collect="always" />
    <linearGradient
       inkscape:collect="always"
       xlink:href="#aigrd1"
       id="linearGradient23343"
       gradientUnits="userSpaceOnUse"
       gradientTransform="matrix(1.190476,0,0,1.190476,-4.224424,-2.5)"
       x1="14.9966"
       y1="11.1885"
       x2="32.511"
       y2="34.3075" />
    <linearGradient
       inkscape:collect="always"
       xlink:href="#aigrd2"
       id="linearGradient23345"
       gradientUnits="userSpaceOnUse"
       gradientTransform="matrix(1.190476,0,0,1.190476,-4.224424,-2.500001)"
       x1="12.2744"
       y1="32.4165"
       x2="35.3912"
       y2="14.2033" />
    <linearGradient
       inkscape:collect="always"
       xlink:href="#linearGradient4236"
       id="linearGradient23347"
       gradientUnits="userSpaceOnUse"
       gradientTransform="matrix(1.25,0,0,1.25,-5.652995,-2.604165)"
       x1="21.125000"
       y1="14.625000"
       x2="29.000000"
       y2="28.000000" />
    <linearGradient
       inkscape:collect="always"
       xlink:href="#linearGradient4236"
       id="linearGradient23349"
       gradientUnits="userSpaceOnUse"
       gradientTransform="matrix(1.25,0,0,1.25,-5.652995,-2.604165)"
       x1="21.125000"
       y1="14.625000"
       x2="29.000000"
       y2="28.000000" />
    <linearGradient
       inkscape:collect="always"
       xlink:href="#linearGradient6036"
       id="linearGradient23351"
       gradientUnits="userSpaceOnUse"
       x1="10.501720"
       y1="3.6100161"
       x2="48.798885"
       y2="54.698483" />
    <radialGradient
       inkscape:collect="always"
       xlink:href="#linearGradient3394"
       id="radialGradient23355"
       gradientUnits="userSpaceOnUse"
       gradientTransform="matrix(0.848684,0.95802,-0.782119,0.692834,18.69147,-20.52578)"
       cx="37.751469"
       cy="27.569166"
       fx="37.751469"
       fy="27.569166"
       r="21.333334" />
    <radialGradient
       inkscape:collect="always"
       xlink:href="#linearGradient3406"
       id="radialGradient23357"
       gradientUnits="userSpaceOnUse"
       gradientTransform="matrix(0.769501,-1.2425,0.6703,0.415141,-21.77857,41.36563)"
       cx="26.137741"
       cy="38.807304"
       fx="26.137741"
       fy="38.807304"
       r="21.333334" />
    <radialGradient
       inkscape:collect="always"
       xlink:href="#linearGradient3421"
       id="radialGradient23359"
       gradientUnits="userSpaceOnUse"
       gradientTransform="matrix(0.15845,-0.158988,0.432907,0.431441,-2.723645,15.00107)"
       cx="53.556889"
       cy="48.238270"
       fx="53.556889"
       fy="48.238270"
       r="21.333334" />
    <radialGradient
       inkscape:collect="always"
       xlink:href="#linearGradient3435"
       id="radialGradient23361"
       gradientUnits="userSpaceOnUse"
       gradientTransform="matrix(5.184267e-3,-0.12286,0.544548,2.297824e-2,0.957234,26.30756)"
       cx="16.885271"
       cy="33.377594"
       fx="16.885271"
       fy="33.377594"
       r="21.333334" />
    <radialGradient
       inkscape:collect="always"
       xlink:href="#linearGradient3435"
       id="radialGradient23363"
       gradientUnits="userSpaceOnUse"
       gradientTransform="matrix(0.105916,-1.91424e-2,0.104789,0.579807,17.13693,7.115158)"
       cx="35.511295"
       cy="21.618015"
       fx="35.511295"
       fy="21.618015"
       r="21.333334" />
    <radialGradient
       inkscape:collect="always"
       xlink:href="#linearGradient3435"
       id="radialGradient23365"
       gradientUnits="userSpaceOnUse"
       gradientTransform="matrix(-5.04822e-2,1.387847e-2,-0.12844,-0.467196,35.41257,39.44172)"
       cx="133.84108"
       cy="23.914305"
       fx="133.84108"
       fy="23.914305"
       r="21.333334" />
    <radialGradient
       inkscape:collect="always"
       xlink:href="#linearGradient23419"
       id="radialGradient2072"
       gradientUnits="userSpaceOnUse"
       gradientTransform="matrix(1,0,0,0.25,0,31.22703)"
       cx="23.334524"
       cy="41.63604"
       fx="23.334524"
       fy="41.63604"
       r="22.627417" />
    <linearGradient
       inkscape:collect="always"
       xlink:href="#aigrd1"
       id="linearGradient2074"
       gradientUnits="userSpaceOnUse"
       gradientTransform="matrix(1.190476,0,0,1.190476,-4.224424,-2.5)"
       x1="14.9966"
       y1="11.1885"
       x2="32.511"
       y2="34.3075" />
    <linearGradient
       inkscape:collect="always"
       xlink:href="#aigrd2"
       id="linearGradient2076"
       gradientUnits="userSpaceOnUse"
       gradientTransform="matrix(1.190476,0,0,1.190476,-4.224424,-2.500001)"
       x1="12.2744"
       y1="32.4165"
       x2="35.3912"
       y2="14.2033" />
    <linearGradient
       inkscape:collect="always"
       xlink:href="#linearGradient4236"
       id="linearGradient2078"
       gradientUnits="userSpaceOnUse"
       gradientTransform="matrix(1.25,0,0,1.25,-5.652995,-2.604165)"
       x1="21.125000"
       y1="14.625000"
       x2="29.000000"
       y2="28.000000" />
    <linearGradient
       inkscape:collect="always"
       xlink:href="#linearGradient4236"
       id="linearGradient2080"
       gradientUnits="userSpaceOnUse"
       gradientTransform="matrix(1.25,0,0,1.25,-5.652995,-2.604165)"
       x1="21.125000"
       y1="14.625000"
       x2="29.000000"
       y2="28.000000" />
    <linearGradient
       inkscape:collect="always"
       xlink:href="#linearGradient6036"
       id="linearGradient2082"
       gradientUnits="userSpaceOnUse"
       x1="10.501720"
       y1="3.6100161"
       x2="48.798885"
       y2="54.698483" />
    <linearGradient
       inkscape:collect="always"
       xlink:href="#linearGradient6028"
       id="linearGradient2084"
       gradientUnits="userSpaceOnUse"
       x1="28.702885"
       y1="31.494707"
       x2="17.742729"
       y2="18.366575" />
    <radialGradient
       inkscape:collect="always"
       xlink:href="#linearGradient3394"
       id="radialGradient2086"
       gradientUnits="userSpaceOnUse"
       gradientTransform="matrix(0.848684,0.95802,-0.782119,0.692834,18.69147,-20.52578)"
       cx="37.751469"
       cy="27.569166"
       fx="37.751469"
       fy="27.569166"
       r="21.333334" />
    <radialGradient
       inkscape:collect="always"
       xlink:href="#linearGradient3406"
       id="radialGradient2088"
       gradientUnits="userSpaceOnUse"
       gradientTransform="matrix(0.769501,-1.2425,0.6703,0.415141,-21.77857,41.36563)"
       cx="26.137741"
       cy="38.807304"
       fx="26.137741"
       fy="38.807304"
       r="21.333334" />
    <radialGradient
       inkscape:collect="always"
       xlink:href="#linearGradient3421"
       id="radialGradient2090"
       gradientUnits="userSpaceOnUse"
       gradientTransform="matrix(0.15845,-0.158988,0.432907,0.431441,-2.723645,15.00107)"
       cx="53.556889"
       cy="48.238270"
       fx="53.556889"
       fy="48.238270"
       r="21.333334" />
    <radialGradient
       inkscape:collect="always"
       xlink:href="#linearGradient3435"
       id="radialGradient2092"
       gradientUnits="userSpaceOnUse"
       gradientTransform="matrix(5.184267e-3,-0.12286,0.544548,2.297824e-2,0.957234,26.30756)"
       cx="16.885271"
       cy="33.377594"
       fx="16.885271"
       fy="33.377594"
       r="21.333334" />
    <radialGradient
       inkscape:collect="always"
       xlink:href="#linearGradient3435"
       id="radialGradient2094"
       gradientUnits="userSpaceOnUse"
       gradientTransform="matrix(0.105916,-1.91424e-2,0.104789,0.579807,17.13693,7.115158)"
       cx="35.511295"
       cy="21.618015"
       fx="35.511295"
       fy="21.618015"
       r="21.333334" />
    <radialGradient
       inkscape:collect="always"
       xlink:href="#linearGradient3435"
       id="radialGradient2096"
       gradientUnits="userSpaceOnUse"
       gradientTransform="matrix(-5.04822e-2,1.387847e-2,-0.12844,-0.467196,35.41257,39.44172)"
       cx="133.84108"
       cy="23.914305"
       fx="133.84108"
       fy="23.914305"
       r="21.333334" />
  </defs>
  <sodipodi:namedview
     id="base"
     pagecolor="#ffffff"
     bordercolor="#666666"
     borderopacity="0.25490196"
     inkscape:pageopacity="0.0"
     inkscape:pageshadow="2"
     inkscape:zoom="6.4885786"
     inkscape:cx="40.411981"
     inkscape:cy="27.760044"
     inkscape:current-layer="layer1"
     showgrid="false"
     inkscape:grid-bbox="true"
     inkscape:document-units="px"
     inkscape:window-width="872"
     inkscape:window-height="804"
     inkscape:window-x="640"
     inkscape:window-y="158"
     inkscape:showpageshadow="false" />
  <metadata
     id="metadata4">
    <rdf:RDF>
      <cc:Work
         rdf:about="">
        <dc:format>image/svg+xml</dc:format>
        <dc:type
           rdf:resource="http://purl.org/dc/dcmitype/StillImage" />
        <dc:title>Media CD-ROM</dc:title>
        <dc:creator>
          <cc:Agent>
            <dc:title>Jakub Steiner</dc:title>
          </cc:Agent>
        </dc:creator>
        <dc:source>http://jimmac.musichall.cz</dc:source>
        <dc:subject>
          <rdf:Bag>
            <rdf:li>cdrom</rdf:li>
            <rdf:li>media</rdf:li>
            <rdf:li>removable</rdf:li>
            <rdf:li>cd</rdf:li>
            <rdf:li>audio</rdf:li>
          </rdf:Bag>
        </dc:subject>
        <cc:license
           rdf:resource="http://creativecommons.org/licenses/by-sa/2.0/" />
      </cc:Work>
      <cc:License
         rdf:about="http://creativecommons.org/licenses/by-sa/2.0/">
        <cc:permits
           rdf:resource="http://web.resource.org/cc/Reproduction" />
        <cc:permits
           rdf:resource="http://web.resource.org/cc/Distribution" />
        <cc:requires
           rdf:resource="http://web.resource.org/cc/Notice" />
        <cc:requires
           rdf:resource="http://web.resource.org/cc/Attribution" />
        <cc:permits
           rdf:resource="http://web.resource.org/cc/DerivativeWorks" />
        <cc:requires
           rdf:resource="http://web.resource.org/cc/ShareAlike" />
      </cc:License>
    </rdf:RDF>
  </metadata>
  <g
     id="layer1"
     inkscape:label="Layer 1"
     inkscape:groupmode="layer">
    <g
       id="g2056"
       transform="matrix(1.063225,0,0,1.063225,-2.787041,-3.10109)">
      <path
         transform="matrix(1,0,0,1.066291,1,-2.885106)"
         inkscape:r_cy="true"
         inkscape:r_cx="true"
         d="M 45.961941 41.63604 A 22.627417 5.6568542 0 1 1  0.70710754,41.63604 A 22.627417 5.6568542 0 1 1  45.961941 41.63604 z"
         sodipodi:ry="5.6568542"
         sodipodi:rx="22.627417"
         sodipodi:cy="41.63604"
         sodipodi:cx="23.334524"
         id="path23417"
         style="opacity:0.55;color:black;fill:url(#radialGradient2072);fill-opacity:1;fill-rule:evenodd;stroke:none;stroke-width:2;stroke-linecap:butt;stroke-linejoin:miter;marker:none;marker-start:none;marker-mid:none;marker-end:none;stroke-miterlimit:4;stroke-dasharray:none;stroke-dashoffset:0;stroke-opacity:1;visibility:visible;display:inline;overflow:visible"
         sodipodi:type="arc" />
      <path
         style="fill:url(#linearGradient2074);fill-rule:nonzero;stroke:none;stroke-miterlimit:4"
         d="M 24.347006,4.1666669 C 12.799386,4.1666669 3.5136719,13.452381 3.5136719,25 C 3.5136719,36.54762 12.799386,45.833335 24.347006,45.833335 C 35.894626,45.833335 45.180341,36.54762 45.180341,25 C 45.180341,13.452381 35.894626,4.1666669 24.347006,4.1666669 L 24.347006,4.1666669 z M 24.347006,30.000001 C 21.608911,30.000001 19.347006,27.738096 19.347006,25 C 19.347006,22.261905 21.608911,20 24.347006,20 C 27.085101,20 29.347006,22.261905 29.347006,25 C 29.347006,27.738096 27.085101,30.000001 24.347006,30.000001 z "
         id="path3040"
         inkscape:r_cx="true"
         inkscape:r_cy="true" />
      <path
         style="fill:url(#linearGradient2076);fill-rule:nonzero;stroke:gray;stroke-miterlimit:4;stroke-opacity:1"
         d="M 24.347006,4.1666665 C 12.799386,4.1666665 3.513672,13.452381 3.513672,25 C 3.513672,36.54762 12.799386,45.833335 24.347006,45.833335 C 35.894626,45.833335 45.180341,36.54762 45.180341,25 C 45.180341,13.452381 35.894626,4.1666665 24.347006,4.1666665 L 24.347006,4.1666665 z M 24.347006,30.000001 C 21.608911,30.000001 19.347006,27.738096 19.347006,25 C 19.347006,22.261905 21.608911,20 24.347006,20 C 27.085101,20 29.347006,22.261905 29.347006,25 C 29.347006,27.738096 27.085101,30.000001 24.347006,30.000001 z "
         id="path3049"
         inkscape:r_cx="true"
         inkscape:r_cy="true" />
      <path
         style="opacity:0.10999995;fill-rule:nonzero;stroke:none;stroke-miterlimit:4"
         d="M 24.347006,14.895835 C 18.70442,14.895835 14.24284,19.488638 14.24284,25 C 14.24284,30.642588 18.835644,35.104166 24.347006,35.104166 C 29.989592,35.104166 34.451172,30.511364 34.451172,25 C 34.451172,19.357414 29.858368,14.895835 24.347006,14.895835 L 24.347006,14.895835 z M 24.347006,30.511364 C 21.328879,30.511364 18.835644,28.018129 18.835644,25 C 18.835644,21.981873 21.328879,19.488638 24.347006,19.488638 C 27.365133,19.488638 29.858368,21.981873 29.858368,25 C 29.858368,28.018129 27.365133,30.511364 24.347006,30.511364 z "
         id="path3051"
         inkscape:r_cx="true"
         inkscape:r_cy="true" />
      <path
         id="path3916"
         d="M 29.922111,5.6692337 L 26.325518,19.663896 C 27.450222,19.963413 28.349661,20.659366 28.960646,21.622438 L 41.352866,14.073153 C 38.817618,9.9434382 34.748656,6.9050853 29.922111,5.6692337 z "
         style="fill:url(#linearGradient2078);fill-opacity:1;fill-rule:nonzero;stroke:none;stroke-miterlimit:4;stroke-opacity:1"
         inkscape:r_cx="true"
         inkscape:r_cy="true" />
      <path
         style="fill:url(#linearGradient2080);fill-opacity:1;fill-rule:nonzero;stroke:none;stroke-miterlimit:4;stroke-opacity:1"
         d="M 17.307824,43.766057 L 22.043079,30.114558 C 20.946815,29.723566 20.107654,28.956005 19.577936,27.945951 L 6.6068752,34.450599 C 8.7939325,38.774811 12.599255,42.137482 17.307824,43.766057 z "
         id="path4214"
         inkscape:r_cx="true"
         inkscape:r_cy="true" />
      <path
         sodipodi:nodetypes="cccccc"
         id="path5264"
         d="M 24.347002,5.2023655 C 13.373458,5.2023655 4.5493711,14.026454 4.5493711,24.999997 C 4.5493711,35.973541 13.373458,44.797628 24.347002,44.797628 C 35.320546,44.797628 44.144633,35.973541 44.144633,24.999997 C 44.144633,14.026454 35.320546,5.2023655 24.347002,5.2023655 L 24.347002,5.2023655 z "
         style="opacity:0.54644811;fill:none;fill-rule:nonzero;stroke:url(#linearGradient2082);stroke-miterlimit:4;stroke-opacity:1"
         inkscape:r_cx="true"
         inkscape:r_cy="true" />
      <path
         transform="translate(8.838835e-2,8.838865e-2)"
         d="M 30.405591 24.930641 A 6.0987959 6.0987959 0 1 1  18.207999,24.930641 A 6.0987959 6.0987959 0 1 1  30.405591 24.930641 z"
         sodipodi:ry="6.0987959"
         sodipodi:rx="6.0987959"
         sodipodi:cy="24.930641"
         sodipodi:cx="24.306795"
         id="path6026"
         style="opacity:0.67213111;color:black;fill:none;fill-opacity:0.31638417;fill-rule:nonzero;stroke:url(#linearGradient2084);stroke-width:0.93053865;stroke-linecap:butt;stroke-linejoin:miter;marker:none;marker-start:none;marker-mid:none;marker-end:none;stroke-miterlimit:4;stroke-dashoffset:0;stroke-opacity:1;visibility:visible;display:inline;overflow:visible"
         sodipodi:type="arc"
         inkscape:r_cx="true"
         inkscape:r_cy="true" />
      <path
         id="path3390"
         d="M 24.347006,4.1666665 C 12.799386,4.1666665 3.513672,13.452381 3.513672,25 C 3.513672,36.54762 12.799386,45.833335 24.347006,45.833335 C 35.894626,45.833335 45.180341,36.54762 45.180341,25 C 45.180341,13.452381 35.894626,4.1666665 24.347006,4.1666665 L 24.347006,4.1666665 z M 24.347006,30.000001 C 21.608911,30.000001 19.347006,27.738096 19.347006,25 C 19.347006,22.261905 21.608911,20 24.347006,20 C 27.085101,20 29.347006,22.261905 29.347006,25 C 29.347006,27.738096 27.085101,30.000001 24.347006,30.000001 z "
         style="opacity:0.1142857;fill:url(#radialGradient2086);fill-opacity:1;fill-rule:nonzero;stroke:none;stroke-miterlimit:4;stroke-opacity:1"
         inkscape:r_cx="true"
         inkscape:r_cy="true" />
      <path
         style="opacity:0.09714284;fill:url(#radialGradient2088);fill-opacity:1;fill-rule:nonzero;stroke:none;stroke-miterlimit:4;stroke-opacity:1"
         d="M 24.347006,4.1666665 C 12.799386,4.1666665 3.513672,13.452381 3.513672,25 C 3.513672,36.54762 12.799386,45.833335 24.347006,45.833335 C 35.894626,45.833335 45.180341,36.54762 45.180341,25 C 45.180341,13.452381 35.894626,4.1666665 24.347006,4.1666665 L 24.347006,4.1666665 z M 24.347006,30.000001 C 21.608911,30.000001 19.347006,27.738096 19.347006,25 C 19.347006,22.261905 21.608911,20 24.347006,20 C 27.085101,20 29.347006,22.261905 29.347006,25 C 29.347006,27.738096 27.085101,30.000001 24.347006,30.000001 z "
         id="path3404"
         inkscape:r_cx="true"
         inkscape:r_cy="true" />
      <path
         id="path3419"
         d="M 24.347006,4.1666665 C 12.799386,4.1666665 3.513672,13.452381 3.513672,25 C 3.513672,36.54762 12.799386,45.833335 24.347006,45.833335 C 35.894626,45.833335 45.180341,36.54762 45.180341,25 C 45.180341,13.452381 35.894626,4.1666665 24.347006,4.1666665 L 24.347006,4.1666665 z M 24.347006,30.000001 C 21.608911,30.000001 19.347006,27.738096 19.347006,25 C 19.347006,22.261905 21.608911,20 24.347006,20 C 27.085101,20 29.347006,22.261905 29.347006,25 C 29.347006,27.738096 27.085101,30.000001 24.347006,30.000001 z "
         style="opacity:0.71428576;fill:url(#radialGradient2090);fill-opacity:1;fill-rule:nonzero;stroke:none;stroke-miterlimit:4;stroke-opacity:1"
         inkscape:r_cx="true"
         inkscape:r_cy="true" />
      <path
         style="opacity:0.62285713;fill:url(#radialGradient2092);fill-opacity:1;fill-rule:nonzero;stroke:none;stroke-miterlimit:4;stroke-opacity:1"
         d="M 24.347006,4.1666665 C 12.799386,4.1666665 3.513672,13.452381 3.513672,25 C 3.513672,36.54762 12.799386,45.833335 24.347006,45.833335 C 35.894626,45.833335 45.180341,36.54762 45.180341,25 C 45.180341,13.452381 35.894626,4.1666665 24.347006,4.1666665 L 24.347006,4.1666665 z M 24.347006,30.000001 C 21.608911,30.000001 19.347006,27.738096 19.347006,25 C 19.347006,22.261905 21.608911,20 24.347006,20 C 27.085101,20 29.347006,22.261905 29.347006,25 C 29.347006,27.738096 27.085101,30.000001 24.347006,30.000001 z "
         id="path3431"
         inkscape:r_cx="true"
         inkscape:r_cy="true" />
      <path
         id="path3441"
         d="M 24.347006,4.1666665 C 12.799386,4.1666665 3.513672,13.452381 3.513672,25 C 3.513672,36.54762 12.799386,45.833335 24.347006,45.833335 C 35.894626,45.833335 45.180341,36.54762 45.180341,25 C 45.180341,13.452381 35.894626,4.1666665 24.347006,4.1666665 L 24.347006,4.1666665 z M 24.347006,30.000001 C 21.608911,30.000001 19.347006,27.738096 19.347006,25 C 19.347006,22.261905 21.608911,20 24.347006,20 C 27.085101,20 29.347006,22.261905 29.347006,25 C 29.347006,27.738096 27.085101,30.000001 24.347006,30.000001 z "
         style="opacity:0.37142861;fill:url(#radialGradient2094);fill-opacity:1;fill-rule:nonzero;stroke:none;stroke-miterlimit:4;stroke-opacity:1"
         inkscape:r_cx="true"
         inkscape:r_cy="true" />
      <path
         style="opacity:0.23428572;fill:url(#radialGradient2096);fill-opacity:1;fill-rule:nonzero;stroke:none;stroke-miterlimit:4;stroke-opacity:1"
         d="M 24.347006,4.1666665 C 12.799386,4.1666665 3.513672,13.452381 3.513672,25 C 3.513672,36.54762 12.799386,45.833335 24.347006,45.833335 C 35.894626,45.833335 45.180341,36.54762 45.180341,25 C 45.180341,13.452381 35.894626,4.1666665 24.347006,4.1666665 L 24.347006,4.1666665 z M 24.347006,30.000001 C 21.608911,30.000001 19.347006,27.738096 19.347006,25 C 19.347006,22.261905 21.608911,20 24.347006,20 C 27.085101,20 29.347006,22.261905 29.347006,25 C 29.347006,27.738096 27.085101,30.000001 24.347006,30.000001 z "
         id="path3445"
         inkscape:r_cx="true"
         inkscape:r_cy="true" />
    </g>
    <g
       id="g2037"
       transform="matrix(0.928289,0,0,0.928289,3.291939,5.400669)">
      <path
         sodipodi:nodetypes="ccccccc"
         id="path1432"
         d="M 4.3920955,35.164045 C 3.0709563,-4.8617622 38.100746,1.7948935 36.92882,22.59658 L 46.304228,22.59658 L 31.655153,34.31584 L 16.420115,22.59658 C 16.420115,22.59658 26.088504,22.59658 26.088504,22.59658 C 26.674467,8.533468 4.6559242,4.106551 4.3920955,35.164045 z "
         style="opacity:1;color:black;fill:url(#linearGradient2167);fill-opacity:1;fill-rule:nonzero;stroke:url(#linearGradient2708);stroke-width:1.00000012;stroke-linecap:butt;stroke-linejoin:miter;marker:none;marker-start:none;marker-mid:none;marker-end:none;stroke-miterlimit:4;stroke-dasharray:none;stroke-dashoffset:0;stroke-opacity:1;visibility:visible;display:block;overflow:visible" />
      <path
         style="opacity:0.41764706;color:black;fill:none;fill-opacity:1;fill-rule:nonzero;stroke:url(#linearGradient2193);stroke-width:0.9999997;stroke-linecap:butt;stroke-linejoin:miter;marker:none;marker-start:none;marker-mid:none;marker-end:none;stroke-miterlimit:4;stroke-dasharray:none;stroke-dashoffset:0;stroke-opacity:1;visibility:visible;display:block;overflow:visible"
         d="M 4.3609454,33.776714 C 4.4557415,-2.2986419 38.008172,2.0411991 35.829171,23.579043 L 43.433623,23.579043 L 31.618133,32.977887 L 19.387494,23.579043 C 19.387494,23.579043 27.066938,23.579043 27.066938,23.579043 C 28.105744,5.5081081 3.1989499,4.7058695 4.3609454,33.776714 z "
         id="path2177"
         sodipodi:nodetypes="ccccccc" />
    </g>
  </g>
</svg>
