<?xml version="1.0" encoding="UTF-8" standalone="no"?>
<!-- Generator: Adobe Illustrator 10.0.3, SVG Export Plug-In . SVG Version: 3.0.0 Build 77)  -->

<svg
   xmlns:a="http://ns.adobe.com/AdobeSVGViewerExtensions/3.0/"
   xmlns:dc="http://purl.org/dc/elements/1.1/"
   xmlns:cc="http://creativecommons.org/ns#"
   xmlns:rdf="http://www.w3.org/1999/02/22-rdf-syntax-ns#"
   xmlns:svg="http://www.w3.org/2000/svg"
   xmlns="http://www.w3.org/2000/svg"
   xmlns:sodipodi="http://sodipodi.sourceforge.net/DTD/sodipodi-0.dtd"
   xmlns:inkscape="http://www.inkscape.org/namespaces/inkscape"
   width="32"
   height="32"
   viewBox="-0.033 -0.097 121 122"
   overflow="visible"
   enable-background="new -0.033 -0.097 121 122"
   xml:space="preserve"
   id="svg2"
   sodipodi:version="0.32"
   inkscape:version="0.91 r13725"
   sodipodi:docname="stop.svg"
   inkscape:output_extension="org.inkscape.output.svg.inkscape"
   version="1.0"
   style="overflow:visible"><metadata
     id="metadata56"><rdf:RDF><cc:Work
         rdf:about=""><dc:format>image/svg+xml</dc:format><dc:type
           rdf:resource="http://purl.org/dc/dcmitype/StillImage" /></cc:Work></rdf:RDF></metadata><defs
     id="defs54"><inkscape:perspective
       sodipodi:type="inkscape:persp3d"
       inkscape:vp_x="0 : 24 : 1"
       inkscape:vp_y="0 : 1000 : 0"
       inkscape:vp_z="48 : 24 : 1"
       inkscape:persp3d-origin="24 : 16 : 1"
       id="perspective58" /><linearGradient
       y2="66.058502"
       x2="103.745"
       y1="30.3428"
       x1="25.819799"
       gradientUnits="userSpaceOnUse"
       id="XMLID_1_"
       gradientTransform="matrix(0.6927824,0,0,0.6927824,16.170259,16.170192)"><stop
         id="stop8"
         style="stop-color:#CB2F39"
         offset="0" /><stop
         id="stop10"
         style="stop-color:#F81314"
         offset="0.309" /><stop
         id="stop12"
         style="stop-color:#8D1214"
         offset="1" /></linearGradient><linearGradient
       y2="84.4646"
       x2="43.597099"
       y1="84.938499"
       x1="46.0532"
       gradientUnits="userSpaceOnUse"
       id="XMLID_2_"
       gradientTransform="matrix(0.48987113,0.48987119,-0.48987108,0.48987113,60.333222,4.3523905)"><stop
         id="stop27"
         style="stop-color:#FFFFFF"
         offset="0" /><stop
         id="stop29"
         style="stop-color:#CCCCCC"
         offset="1" /></linearGradient><linearGradient
       y2="64.203903"
       x2="61.155899"
       y1="66.057602"
       x1="70.762703"
       gradientUnits="userSpaceOnUse"
       id="XMLID_3_"
       gradientTransform="matrix(0.48987113,0.48987119,-0.48987108,0.48987113,60.333222,4.3523905)"><stop
         id="stop36"
         style="stop-color:#FFFFFF"
         offset="0" /><stop
         id="stop38"
         style="stop-color:#CCCCCC"
         offset="1" /></linearGradient><linearGradient
       y2="96.055702"
       x2="52.383301"
       y1="35.398399"
       x1="52.383301"
       gradientUnits="userSpaceOnUse"
       id="XMLID_4_"
       gradientTransform="matrix(0.6927824,0,0,0.6927824,16.170259,16.170192)"><stop
         id="stop47"
         style="stop-color:#FFFFFF"
         offset="0" /><stop
         id="stop49"
         style="stop-color:#000000"
         offset="1" /></linearGradient></defs><sodipodi:namedview
     inkscape:window-height="1020"
     inkscape:window-width="1918"
     inkscape:pageshadow="2"
     inkscape:pageopacity="0.0"
     guidetolerance="10.0"
     gridtolerance="10.0"
     objecttolerance="10.0"
     borderopacity="1.0"
     bordercolor="#666666"
     pagecolor="#ffffff"
     id="base"
     showgrid="false"
     inkscape:zoom="48.710938"
     inkscape:cx="10.666239"
     inkscape:cy="15.724138"
     inkscape:window-x="2"
     inkscape:window-y="30"
     inkscape:current-layer="svg2"
     inkscape:window-maximized="1" /><path
     inkscape:connector-curvature="0"
     id="path5"
     d="m 37.627115,23.012804 -11.146176,10.05158 c -0.04849,0.04503 -0.333921,0.312444 -0.333921,0.312444 -6.43387,5.531868 -9.976759,13.720556 -9.976759,23.057877 0,19.828818 16.114811,39.314709 35.923539,43.438842 11.004848,2.292413 21.359867,-0.47802 28.408927,-7.602594 -0.04711,0.04295 11.40112,-10.280891 11.40112,-10.280891 l 0.04572,-0.04087 0.04295,-0.04365 c 5.365599,-5.448041 8.321008,-13.092202 8.321008,-21.524749 0,-19.827433 -16.115503,-39.314016 -35.923538,-43.43815 -10.061971,-2.094974 -19.815655,0.117081 -26.762877,6.07016 z" /><path
     inkscape:connector-curvature="0"
     style="fill:url(#XMLID_1_)"
     id="path14"
     d="m 27.530505,34.915498 c 6.250975,-5.355901 15.133139,-7.664944 24.98589,-5.614308 18.926122,3.940546 34.268481,22.477325 34.268481,41.403447 0,8.223327 -2.89583,15.166392 -7.723138,20.066442 L 90.511353,80.446543 c 4.827308,-4.900743 7.723138,-11.843808 7.723138,-20.066442 0,-18.926123 -15.342359,-37.462901 -34.269174,-41.403447 -9.852752,-2.051329 -18.734222,0.257715 -24.98589,5.614308 L 27.530505,34.915498 Z" /><path
     inkscape:connector-curvature="0"
     style="fill:#ac1214"
     id="path16"
     d="m 86.785569,70.70533 c 0,18.926122 -15.342359,31.07406 -34.268481,27.132822 C 33.590965,93.897606 18.248606,75.360135 18.248606,56.434705 c 0,-18.926815 15.342359,-31.073369 34.267789,-27.132823 18.926122,3.940547 34.269174,22.476633 34.269174,41.403448 z" /><path
     inkscape:connector-curvature="0"
     style="fill:#ffffff"
     id="path18"
     d="M 68.295102,78.082409 59.301557,64.358669 70.659708,53.000517 64.664175,43.851192 53.305534,55.209834 44.31199,41.486093 36.739563,49.058521 45.733107,62.782262 34.374956,74.140414 40.37,83.290228 51.72913,71.931097 l 8.993545,13.72374 7.572427,-7.572428 z" /><path
     inkscape:connector-curvature="0"
     style="fill:#cccccc"
     id="path20"
     d="m 56.802235,64.431169 2.499322,-0.0725 11.358151,-11.358152 -2.025617,-0.346339 -11.831858,11.776988 z" /><path
     inkscape:connector-curvature="0"
     style="fill:#cccccc"
     id="path22"
     d="m 61.216955,82.732756 -0.49477,2.922571 7.572917,-7.572918 -2.466991,0.09405 -4.611153,4.556296 z" /><path
     inkscape:connector-curvature="0"
     style="fill:#cccccc"
     id="path24"
     d="M 40.569377,80.664029 40.37,83.290228 51.72864,71.931587 52.195977,68.981582 40.569378,80.66403 Z" /><path
     inkscape:connector-curvature="0"
     style="fill:url(#XMLID_2_)"
     id="path31"
     d="m 34.374956,74.140414 2.105956,0.323806 11.630027,-11.6849 -2.405267,-0.02449 -11.330715,11.385588 z" /><path
     inkscape:connector-curvature="0"
     style="fill:#cccccc"
     id="path33"
     d="m 36.739563,49.058521 8.993544,13.723741 2.377835,-0.0029 -8.917614,-13.72815 -2.453765,0.0073 z" /><path
     inkscape:connector-curvature="0"
     style="fill:url(#XMLID_3_)"
     id="path40"
     d="m 56.830158,64.448315 8.993544,13.72374 2.4714,-0.08965 -8.993545,-13.72374 -2.471399,0.08965 z" /><path
     inkscape:connector-curvature="0"
     style="fill:#cccccc"
     id="path42"
     d="m 51.72864,71.931587 8.993545,13.72374 0.467826,-2.949514 -8.994034,-13.724231 -0.467337,2.950005 z" /><path
     inkscape:connector-curvature="0"
     style="fill:#cccccc"
     id="path44"
     d="M 34.374956,74.140414 40.37,83.290228 40.569377,80.664029 36.481402,74.46471 34.374956,74.140414 Z" /><path
     inkscape:connector-curvature="0"
     style="opacity:0.3;fill:url(#XMLID_4_)"
     id="path51"
     d="m 29.041463,35.746144 c -5.923982,4.817609 -9.186294,12.165259 -9.186294,20.688561 0,0.7295 0.03602,1.490175 0.09006,2.264013 12.960573,-6.423478 26.965862,-1.093211 40.527771,4.079103 5.494457,2.094974 10.684783,4.074946 15.819686,5.324032 2.9083,0.727422 5.915669,0.838267 8.774089,0.381724 C 84.523634,60.214526 81.016077,51.876197 75.070619,44.902649 68.879915,37.639519 60.753578,32.65772 52.189402,30.874498 43.380673,29.040703 35.16081,30.769888 29.041463,35.746144 Z"
     a:adobe-blending-mode="screen" /></svg>