<?xml version="1.0" encoding="UTF-8" standalone="no"?>
<!-- Created with Inkscape (http://www.inkscape.org/) -->
<svg
   xmlns:dc="http://purl.org/dc/elements/1.1/"
   xmlns:cc="http://creativecommons.org/ns#"
   xmlns:rdf="http://www.w3.org/1999/02/22-rdf-syntax-ns#"
   xmlns:svg="http://www.w3.org/2000/svg"
   xmlns="http://www.w3.org/2000/svg"
   xmlns:xlink="http://www.w3.org/1999/xlink"
   xmlns:sodipodi="http://sodipodi.sourceforge.net/DTD/sodipodi-0.dtd"
   xmlns:inkscape="http://www.inkscape.org/namespaces/inkscape"
   width="48px"
   height="48px"
   id="svg1325"
   sodipodi:version="0.32"
   inkscape:version="0.46"
   sodipodi:docbase="/home/dobey/Projects/gnome-icon-theme/scalable/places"
   sodipodi:docname="debgnome.svg"
   inkscape:output_extension="org.inkscape.output.svg.inkscape">
  <sodipodi:namedview
     inkscape:window-height="722"
     inkscape:window-width="1024"
     inkscape:pageshadow="2"
     inkscape:pageopacity="1"
     guidetolerance="10.0"
     gridtolerance="10.0"
     objecttolerance="10.0"
     borderopacity="1.0"
     bordercolor="#666666"
     pagecolor="#ffffff"
     id="base"
     inkscape:zoom="4"
     inkscape:cx="23.021311"
     inkscape:cy="20.886975"
     inkscape:window-x="0"
     inkscape:window-y="25"
     inkscape:current-layer="layer1"
     showgrid="false"
     showborder="true"
     showguides="false"
     inkscape:guide-bbox="true"
     inkscape:showpageshadow="false"
     borderlayer="false">
    <sodipodi:guide
       orientation="vertical"
       position="0"
       id="guide2983" />
  </sodipodi:namedview>
  <defs
     id="defs1327">
    <inkscape:perspective
       sodipodi:type="inkscape:persp3d"
       inkscape:vp_x="0 : 24 : 1"
       inkscape:vp_y="0 : 1000 : 0"
       inkscape:vp_z="48 : 24 : 1"
       inkscape:persp3d-origin="24 : 16 : 1"
       id="perspective55" />
    <linearGradient
       id="linearGradient2796">
      <stop
         style="stop-color:#2e3436;stop-opacity:1;"
         offset="0"
         id="stop2798" />
      <stop
         style="stop-color:#2e3436;stop-opacity:0;"
         offset="1"
         id="stop2800" />
    </linearGradient>
    <linearGradient
       id="linearGradient3052">
      <stop
         id="stop3054"
         offset="0"
         style="stop-color:#555753;stop-opacity:1" />
      <stop
         id="stop3056"
         offset="1"
         style="stop-color:#2e3436;stop-opacity:1" />
    </linearGradient>
    <linearGradient
       id="linearGradient3013">
      <stop
         style="stop-color:#2d2d2d;stop-opacity:1;"
         offset="0"
         id="stop3015" />
      <stop
         style="stop-color:white;stop-opacity:1"
         offset="1"
         id="stop3017" />
    </linearGradient>
    <radialGradient
       inkscape:collect="always"
       xlink:href="#linearGradient3052"
       id="radialGradient3073"
       gradientUnits="userSpaceOnUse"
       gradientTransform="matrix(2.140448,-1.450766e-6,0,0.93766,-24.37707,2.17114)"
       cx="18.107206"
       cy="8.0827875"
       fx="18.107206"
       fy="8.0827875"
       r="17.994564" />
    <radialGradient
       inkscape:collect="always"
       xlink:href="#linearGradient3052"
       id="radialGradient3076"
       gradientUnits="userSpaceOnUse"
       gradientTransform="matrix(2.140448,-1.450766e-6,0,0.93766,-24.37707,2.17114)"
       cx="14.95366"
       cy="13.681828"
       fx="14.95366"
       fy="13.681828"
       r="17.994564" />
    <radialGradient
       inkscape:collect="always"
       xlink:href="#linearGradient3052"
       id="radialGradient3079"
       gradientUnits="userSpaceOnUse"
       gradientTransform="matrix(2.140448,-1.450766e-6,0,0.93766,-24.37707,2.17114)"
       cx="21.494347"
       cy="4.3500967"
       fx="21.494347"
       fy="4.3500967"
       r="17.994564" />
    <radialGradient
       inkscape:collect="always"
       xlink:href="#linearGradient3052"
       id="radialGradient3082"
       gradientUnits="userSpaceOnUse"
       gradientTransform="matrix(2.140448,-1.450766e-6,0,0.93766,-24.37707,2.17114)"
       cx="25.640675"
       cy="3.6835504"
       fx="25.640675"
       fy="3.6835504"
       r="17.994565" />
    <linearGradient
       inkscape:collect="always"
       xlink:href="#linearGradient2796"
       id="linearGradient2804"
       gradientUnits="userSpaceOnUse"
       x1="33.305901"
       y1="3.7170186"
       x2="33.305901"
       y2="12.644369" />
    <linearGradient
       inkscape:collect="always"
       xlink:href="#linearGradient2796"
       id="linearGradient2806"
       gradientUnits="userSpaceOnUse"
       x1="33.129124"
       y1="12.426562"
       x2="33.129124"
       y2="15.742812" />
    <linearGradient
       inkscape:collect="always"
       xlink:href="#linearGradient3013"
       id="linearGradient2440"
       gradientUnits="userSpaceOnUse"
       x1="35.222755"
       y1="1.5140598"
       x2="35.222755"
       y2="14.403073" />
    <linearGradient
       inkscape:collect="always"
       xlink:href="#linearGradient3013"
       id="linearGradient2444"
       gradientUnits="userSpaceOnUse"
       x1="23.113552"
       y1="3.2925007"
       x2="23.113552"
       y2="12.78336" />
    <linearGradient
       inkscape:collect="always"
       xlink:href="#linearGradient3013"
       id="linearGradient2446"
       gradientUnits="userSpaceOnUse"
       x1="8.3526993"
       y1="11.509477"
       x2="8.3526993"
       y2="19.071247" />
    <linearGradient
       inkscape:collect="always"
       xlink:href="#linearGradient3013"
       id="linearGradient2448"
       gradientUnits="userSpaceOnUse"
       x1="15.202796"
       y1="6.2158523"
       x2="15.202796"
       y2="14.586771" />
    <inkscape:perspective
       id="perspective2524"
       inkscape:persp3d-origin="125 : 96.666667 : 1"
       inkscape:vp_z="250 : 145 : 1"
       inkscape:vp_y="0 : 1000 : 0"
       inkscape:vp_x="0 : 145 : 1"
       sodipodi:type="inkscape:persp3d" />
    <defs
       id="defs829" />
    <inkscape:perspective
       id="perspective21"
       inkscape:persp3d-origin="50 : 40 : 1"
       inkscape:vp_z="100 : 60 : 1"
       inkscape:vp_y="0 : 1000 : 0"
       inkscape:vp_x="0 : 60 : 1"
       sodipodi:type="inkscape:persp3d" />
    <linearGradient
       inkscape:collect="always"
       xlink:href="#linearGradient3013"
       id="linearGradient3431"
       x1="3170.3745"
       y1="4381.5576"
       x2="2987.3245"
       y2="3408.053"
       gradientUnits="userSpaceOnUse" />
  </defs>
  <sodipodi:namedview
     id="namedview32"
     pagecolor="#ffffff"
     bordercolor="#666666"
     borderopacity="1.0"
     inkscape:pageopacity="0"
     inkscape:pageshadow="2"
     inkscape:zoom="1"
     inkscape:cx="29.202731"
     inkscape:cy="14.650528"
     inkscape:current-layer="layer1"
     showgrid="false"
     inkscape:grid-bbox="true"
     inkscape:document-units="px"
     stroke="#eeeeec"
     fill="#2e3436"
     inkscape:window-width="1270"
     inkscape:window-height="943"
     inkscape:window-x="0"
     inkscape:window-y="25"
     showborder="false"
     inkscape:grid-points="true"
     showguides="false"
     inkscape:guide-bbox="true"
     inkscape:showpageshadow="false">
    <sodipodi:guide
       orientation="vertical"
       position="31.875"
       id="guide2260" />
    <inkscape:grid
       id="GridFromPre046Settings"
       type="xygrid"
       originx="0px"
       originy="0px"
       spacingx="0.5px"
       spacingy="0.5px"
       color="#0000ff"
       empcolor="#0000ff"
       opacity="0.2"
       empopacity="0.4"
       empspacing="2" />
  </sodipodi:namedview>
  <metadata
     id="metadata1330">
    <rdf:RDF>
      <cc:Work
         rdf:about="">
        <dc:format>image/svg+xml</dc:format>
        <dc:type
           rdf:resource="http://purl.org/dc/dcmitype/StillImage" />
        <dc:title>Piedone</dc:title>
        <dc:creator>
          <cc:Agent>
            <dc:title>Lapo Calamandrei</dc:title>
          </cc:Agent>
        </dc:creator>
        <dc:subject>
          <rdf:Bag />
        </dc:subject>
        <dc:contributor>
          <cc:Agent>
            <dc:title />
          </cc:Agent>
        </dc:contributor>
        <cc:license
           rdf:resource="http://creativecommons.org/licenses/GPL/2.0/" />
      </cc:Work>
      <cc:License
         rdf:about="http://creativecommons.org/licenses/GPL/2.0/">
        <cc:permits
           rdf:resource="http://web.resource.org/cc/Reproduction" />
        <cc:permits
           rdf:resource="http://web.resource.org/cc/Distribution" />
        <cc:requires
           rdf:resource="http://web.resource.org/cc/Notice" />
        <cc:permits
           rdf:resource="http://web.resource.org/cc/DerivativeWorks" />
        <cc:requires
           rdf:resource="http://web.resource.org/cc/ShareAlike" />
        <cc:requires
           rdf:resource="http://web.resource.org/cc/SourceCode" />
      </cc:License>
    </rdf:RDF>
  </metadata>
  <g
     inkscape:groupmode="layer"
     id="layer2"
     inkscape:label="incavo"
     style="display:inline">
    <g
       id="g3045"
       style="opacity:0.5"
       transform="translate(0,1)">
      <path
         d="M 37.84375,0.5625 C 32.937667,0.5625 29.926498,4.1974996 28.9375,7.75 C 28.443001,9.5262502 28.416155,11.31354 28.90625,12.78125 C 29.396345,14.24896 30.61967,15.4375 32.28125,15.4375 C 33.942709,15.4375 35.582624,14.48396 37.125,13.1875 C 38.667376,11.89104 40.09201,10.203617 41.09375,8.46875 C 42.09549,6.7338829 42.728692,4.9559671 42.34375,3.3125 C 42.151279,2.4907665 41.629001,1.7294453 40.84375,1.25 C 40.058499,0.77055466 39.070311,0.5625 37.84375,0.5625 z"
         id="path2997"
         style="opacity:1;fill:none;fill-opacity:1;fill-rule:nonzero;stroke:url(#linearGradient2440);stroke-width:1;stroke-linejoin:round;stroke-miterlimit:4;stroke-dasharray:none;stroke-opacity:1"
         inkscape:original="M 37.84375 1.5 C 28.95865 1.5 27.282885 14.5 32.28125 14.5 C 37.278893 14.5 46.729211 1.5 37.84375 1.5 z "
         inkscape:radius="0.95043164"
         sodipodi:type="inkscape:offset" />
      <path
         d="M 23.5625,2.59375 C 22.04759,2.7779966 20.907689,3.6091831 20.28125,4.6875 C 19.654811,5.7658169 19.475654,7.0365166 19.5625,8.25 C 19.649346,9.4634834 20.008218,10.642553 20.5625,11.59375 C 21.116782,12.544947 21.921418,13.372232 23.0625,13.4375 C 24.308222,13.508783 25.18784,12.604822 25.84375,11.59375 C 26.49966,10.582678 26.978531,9.2903666 27.21875,8 C 27.458969,6.7096334 27.470563,5.3998619 26.9375,4.28125 C 26.404437,3.1626381 25.106931,2.4059809 23.5625,2.59375 z"
         id="path2999"
         style="opacity:1;fill:none;fill-opacity:1;fill-rule:nonzero;stroke:url(#linearGradient2444);stroke-width:1;stroke-linejoin:round;stroke-miterlimit:4;stroke-dasharray:none;stroke-opacity:1"
         inkscape:original="M 23.6875 3.53125 C 18.652699 4.1435932 20.444137 12.346659 23.125 12.5 C 25.804774 12.653342 28.724119 2.9189068 23.6875 3.53125 z "
         inkscape:radius="0.93958104"
         sodipodi:type="inkscape:offset" />
      <path
         d="M 8.84375,10.96875 C 8.2326827,10.94736 7.647776,11.187005 7.125,11.5625 C 6.0807177,12.313036 5.5564729,13.445414 5.53125,14.53125 C 5.5060271,15.617086 5.8804909,16.654222 6.40625,17.5625 C 6.9320091,18.470778 7.6368772,19.239284 8.40625,19.78125 C 9.1756228,20.323216 10.130388,20.72215 11.09375,20.28125 C 12.032054,19.851632 12.291902,18.942072 12.40625,18.0625 C 12.520598,17.182928 12.454069,16.191707 12.25,15.21875 C 12.045931,14.245793 11.705034,13.291412 11.1875,12.5 C 10.669966,11.708588 9.8932255,11.005487 8.84375,10.96875 z"
         id="path3001"
         style="opacity:1;fill:none;fill-opacity:1;fill-rule:nonzero;stroke:url(#linearGradient2446);stroke-width:1;stroke-linejoin:round;stroke-miterlimit:4;stroke-dasharray:none;stroke-opacity:1"
         inkscape:original="M 8.8125 11.9375 C 8.4606561 11.925184 8.0926115 12.05277 7.6875 12.34375 C 4.4480637 14.671966 8.7815845 20.278527 10.6875 19.40625 C 12.355175 18.642678 11.275407 12.023715 8.8125 11.9375 z "
         inkscape:radius="0.97573626"
         sodipodi:type="inkscape:offset" />
      <path
         d="M 15.9375,5.625 C 15.319047,5.4756575 14.662873,5.5627442 14.03125,5.8125 C 12.761729,6.3145115 11.968151,7.3431338 11.6875,8.4375 C 11.406849,9.5318662 11.57594,10.656406 11.9375,11.6875 C 12.29906,12.718594 12.8628,13.66803 13.5625,14.375 C 14.2622,15.08197 15.157389,15.645352 16.21875,15.4375 C 17.244742,15.23705 17.764385,14.361298 18.09375,13.5 C 18.423115,12.638702 18.590593,11.65157 18.59375,10.625 C 18.596907,9.5984297 18.442591,8.5368008 18.0625,7.625 C 17.682409,6.7131992 16.99497,5.8803552 15.9375,5.625 z"
         id="path3003"
         style="opacity:1;fill:none;fill-opacity:1;fill-rule:nonzero;stroke:url(#linearGradient2448);stroke-width:1;stroke-linejoin:round;stroke-miterlimit:4;stroke-dasharray:none;stroke-opacity:1"
         inkscape:original="M 15.71875 6.5625 C 15.339365 6.4708871 14.912003 6.5187657 14.40625 6.71875 C 10.3595 8.3189717 13.764225 14.912713 16.03125 14.46875 C 18.016485 14.080891 18.374445 7.2037903 15.71875 6.5625 z "
         inkscape:radius="0.98042816"
         sodipodi:type="inkscape:offset" />
      <g
         id="Layer"
         transform="matrix(0.1232753,0,0,0.1232753,10.116429,14.725836)">
        <g
           id="g3327"
           transform="matrix(0.9556033,0,0,0.9556033,-7.4725017,-11.78053)">
          <path
             d="M 130.968,14.197 L 131.423,14.271 L 131.877,14.346 L 132.356,14.42 L 132.811,14.494 L 133.013,14.519 L 133.24,14.568 L 133.467,14.593 L 133.669,14.642 L 133.871,14.667 L 134.072,14.717 L 134.249,14.741 L 134.451,14.791 L 134.628,14.815 L 134.779,14.865 L 134.93,14.914 L 135.082,14.939 L 135.233,14.989 L 135.334,15.038 L 135.46,15.063 L 135.561,15.112 L 135.637,15.162 L 135.713,15.211 L 135.738,15.236 L 135.763,15.261 L 135.788,15.285 L 135.814,15.285 L 135.814,15.31 L 135.839,15.335 L 135.839,15.359 L 135.839,15.384 L 135.839,15.434 L 135.839,15.458 L 135.814,15.483 L 135.788,15.508 C 138.463,14.939 139.044,14.42 130.968,14.197 z"
             id="path2910"
             style="fill:#d70751;fill-opacity:1;stroke:none;stroke-width:2.54663992000000006;stroke-linecap:butt;stroke-linejoin:miter;stroke-miterlimit:4;stroke-dasharray:none;stroke-opacity:1;opacity:1" />
          <path
             d="M 135.788,15.508 L 134.098,15.854 L 135.687,15.706 L 135.788,15.508 z"
             id="polygon2912"
             style="fill:#d70751;fill-opacity:1;stroke:none;stroke-width:2.54663992000000006;stroke-linecap:butt;stroke-linejoin:miter;stroke-miterlimit:4;stroke-dasharray:none;stroke-opacity:1;opacity:1" />
          <path
             d="M 131.877,12.046 L 132.154,11.947 L 132.457,11.873 L 132.76,11.774 L 133.088,11.7 L 133.391,11.65 L 133.719,11.576 L 134.047,11.527 L 134.375,11.477 L 135.082,11.403 L 135.763,11.329 L 136.47,11.279 L 137.176,11.255 L 138.615,11.156 L 139.321,11.131 L 140.028,11.082 L 140.709,11.007 L 141.391,10.933 L 141.694,10.884 L 142.022,10.834 L 142.35,10.785 L 142.653,10.711 C 138.413,11.082 134.199,11.279 130.035,11.799 L 131.877,12.046 z"
             id="path2539"
             style="fill:#d70751;fill-opacity:1;stroke:none;stroke-width:2.54663992000000006;stroke-linecap:butt;stroke-linejoin:miter;stroke-miterlimit:4;stroke-dasharray:none;stroke-opacity:1;opacity:1" />
        </g>
      </g>
    </g>
  </g>
  <g
     id="layer1"
     inkscape:label="Layer 1"
     inkscape:groupmode="layer"
     style="display:inline">
    <path
       id="path4490"
       d="M 37.836287,2.5000004 C 28.951188,2.5000004 27.284464,15.500003 32.282829,15.500003 C 37.280472,15.500003 46.721748,2.5000004 37.836287,2.5000004 z "
       style="fill:url(#radialGradient3082);fill-opacity:1;fill-rule:nonzero;stroke:#2e3436;stroke-width:1.00000048;stroke-miterlimit:4;stroke-dasharray:none" />
    <path
       id="path4492"
       d="M 23.118531,13.498207 C 25.798304,13.651549 28.738452,3.9153808 23.701833,4.527724 C 18.667033,5.1400672 20.437668,13.344866 23.118531,13.498207 z "
       style="fill:url(#radialGradient3079);fill-opacity:1;fill-rule:nonzero;stroke:#2e3436;stroke-width:1.00000036;stroke-miterlimit:4;stroke-dasharray:none" />
    <path
       id="path4494"
       d="M 10.673889,20.408945 C 12.579804,19.536291 10.919357,11.000759 7.6784646,13.328597 C 4.4390281,15.656813 8.7679735,21.281222 10.673889,20.408945 z "
       style="fill:url(#radialGradient3076);fill-opacity:1;fill-rule:nonzero;stroke:#2e3436;stroke-width:1;stroke-miterlimit:4;stroke-dasharray:none" />
    <path
       id="path4496"
       d="M 16.043979,15.478633 C 18.31282,15.035365 18.437191,6.1170517 14.391167,7.7169262 C 10.344417,9.3171478 13.776954,15.922596 16.043979,15.478633 L 16.043979,15.478633 z "
       style="fill:url(#radialGradient3073);fill-opacity:1;fill-rule:nonzero;stroke:#2e3436;stroke-width:1;stroke-miterlimit:4;stroke-dasharray:none" />
    <g
       id="g2836"
       style="opacity:0.3;stroke:#2e3436">
      <path
         transform="translate(0,1)"
         d="M 37.84375,2.5 C 33.896305,2.5 31.658583,5.3543541 30.84375,8.28125 C 30.436334,9.7446979 30.431832,11.203417 30.75,12.15625 C 31.068168,13.109083 31.471708,13.5 32.28125,13.5 C 33.090548,13.5 34.492571,12.823247 35.84375,11.6875 C 37.194929,10.551753 38.504459,9.0076497 39.375,7.5 C 40.245541,5.9923503 40.616707,4.5151049 40.4375,3.75 C 40.347896,3.3674476 40.209065,3.160548 39.84375,2.9375 C 39.478435,2.714452 38.830661,2.5 37.84375,2.5 z "
         id="path2920"
         style="opacity:1;fill:none;fill-opacity:1;fill-rule:nonzero;stroke:url(#linearGradient2804);stroke-width:0.99999994;stroke-linejoin:miter;stroke-miterlimit:4;stroke-dasharray:none;stroke-opacity:1;color:black;stroke-linecap:butt;marker:none;marker-start:none;marker-mid:none;marker-end:none;stroke-dashoffset:0;visibility:visible;display:inline;overflow:visible"
         inkscape:original="M 37.84375 1.5 C 28.95865 1.5 27.282885 14.5 32.28125 14.5 C 37.278893 14.5 46.729211 1.5 37.84375 1.5 z "
         inkscape:radius="-1.0151668"
         sodipodi:type="inkscape:offset" />
      <path
         transform="translate(0,1)"
         d="M 23.8125,4.53125 C 22.831737,4.6505324 22.3278,5.0694512 21.96875,5.6875 C 21.6097,6.3055488 21.465329,7.2038998 21.53125,8.125 C 21.597171,9.0461002 21.879196,9.9574168 22.25,10.59375 C 22.620804,11.230083 23.028082,11.459632 23.1875,11.46875 C 23.232836,11.471344 23.70687,11.272131 24.1875,10.53125 C 24.66813,9.7903692 25.119405,8.6934849 25.3125,7.65625 C 25.505595,6.6190151 25.427964,5.6296051 25.1875,5.125 C 24.947036,4.6203949 24.762186,4.4157888 23.8125,4.53125 z "
         id="path2922"
         style="opacity:1;fill:none;fill-opacity:1;fill-rule:nonzero;stroke:url(#linearGradient2804);stroke-width:0.99999994;stroke-linejoin:miter;stroke-miterlimit:4;stroke-dasharray:none;stroke-opacity:1;color:black;stroke-linecap:butt;marker:none;marker-start:none;marker-mid:none;marker-end:none;stroke-dashoffset:0;visibility:visible;display:inline;overflow:visible"
         inkscape:original="M 23.6875 3.53125 C 18.652699 4.1435932 20.444137 12.346659 23.125 12.5 C 25.804774 12.653342 28.724119 2.9189068 23.6875 3.53125 z "
         inkscape:radius="-1.0192616"
         sodipodi:type="inkscape:offset" />
      <path
         transform="translate(0,1)"
         d="M 8.78125,12.9375 C 8.6914294,12.934356 8.5361761,12.950698 8.25,13.15625 C 7.6770962,13.568002 7.5137117,13.972216 7.5,14.5625 C 7.4862883,15.152784 7.7347971,15.919653 8.125,16.59375 C 8.5152029,17.267847 9.0548551,17.851915 9.53125,18.1875 C 10.007645,18.523085 10.296913,18.492831 10.28125,18.5 C 10.171152,18.55041 10.393698,18.389809 10.46875,17.8125 C 10.543802,17.235191 10.508818,16.412009 10.34375,15.625 C 10.178682,14.837991 9.8869629,14.058668 9.5625,13.5625 C 9.2380371,13.066332 8.9585431,12.943706 8.78125,12.9375 z "
         id="path2926"
         style="opacity:1;fill:none;fill-opacity:1;fill-rule:nonzero;stroke:url(#linearGradient2806);stroke-width:0.99999994;stroke-linejoin:miter;stroke-miterlimit:4;stroke-dasharray:none;stroke-opacity:1;color:black;stroke-linecap:butt;marker:none;marker-start:none;marker-mid:none;marker-end:none;stroke-dashoffset:0;visibility:visible;display:inline;overflow:visible"
         inkscape:original="M 8.8125 11.9375 C 8.4606561 11.925184 8.0926115 12.05277 7.6875 12.34375 C 4.4480637 14.671966 8.7815845 20.278527 10.6875 19.40625 C 12.355175 18.642678 11.275407 12.023715 8.8125 11.9375 z "
         inkscape:radius="-0.98627526"
         sodipodi:type="inkscape:offset" />
      <path
         transform="translate(0,1)"
         d="M 15.5,7.5 C 15.359503,7.4660732 15.161228,7.4747497 14.78125,7.625 C 14.027202,7.9231762 13.742067,8.3279067 13.59375,8.90625 C 13.445433,9.4845933 13.514058,10.269275 13.78125,11.03125 C 14.048442,11.793225 14.48758,12.514156 14.9375,12.96875 C 15.38742,13.423344 15.771226,13.514203 15.84375,13.5 C 15.810775,13.506442 16.068097,13.369899 16.28125,12.8125 C 16.494403,12.255101 16.622474,11.415176 16.625,10.59375 C 16.627526,9.7723241 16.487721,8.9765178 16.25,8.40625 C 16.012279,7.8359822 15.770674,7.5653616 15.5,7.5 z "
         id="path2924"
         style="opacity:1;fill:none;fill-opacity:1;fill-rule:nonzero;stroke:url(#linearGradient2804);stroke-width:0.99999994;stroke-linejoin:miter;stroke-miterlimit:4;stroke-dasharray:none;stroke-opacity:1;color:black;stroke-linecap:butt;marker:none;marker-start:none;marker-mid:none;marker-end:none;stroke-dashoffset:0;visibility:visible;display:inline;overflow:visible"
         inkscape:original="M 15.71875 6.5625 C 15.339365 6.4708871 14.912003 6.5187657 14.40625 6.71875 C 10.3595 8.3189717 13.764225 14.912713 16.03125 14.46875 C 18.016485 14.080891 18.374445 7.2037903 15.71875 6.5625 z "
         inkscape:radius="-0.9796893"
         sodipodi:type="inkscape:offset" />
    </g>
    <g
       id="Debian"
       style="fill:#d70751;stroke:url(#linearGradient3431);stroke-opacity:1;stroke-width:25.57423722;stroke-miterlimit:4;stroke-dasharray:none"
       transform="matrix(2.8505249e-2,0,0,-2.8505249e-2,-66.824991,141.88543)">
      <g
         id="GROUP_BEGIN_2"
         style="stroke:url(#linearGradient3431);stroke-opacity:1;stroke-width:25.57423722;stroke-miterlimit:4;stroke-dasharray:none">
        <path
           id="PATH_1"
           d="M 3255.5,3850.9 C 3237.5,3850.7 3258.9,3841.6 3282.3,3838 C 3288.8,3843.1 3294.7,3848.2 3299.9,3853.2 C 3285.3,3849.6 3270.4,3849.5 3255.5,3850.9"
           style="stroke:url(#linearGradient3431);stroke-opacity:1;stroke-width:25.57423722;stroke-miterlimit:4;stroke-dasharray:none" />
        <path
           id="PATH_2"
           d="M 3351.9,3874.9 C 3362.6,3889.7 3370.4,3905.9 3373.2,3922.6 C 3370.8,3910.7 3364.3,3900.4 3358.2,3889.5 C 3324.6,3868.4 3355,3902.1 3358.2,3914.9 C 3322.1,3869.4 3353.2,3887.6 3351.9,3874.9"
           style="stroke:url(#linearGradient3431);stroke-opacity:1;stroke-width:25.57423722;stroke-miterlimit:4;stroke-dasharray:none" />
        <path
           id="PATH_3"
           d="M 3387.5,3967.6 C 3389.7,3999.9 3381.1,3989.7 3378.3,3977.4 C 3381.6,3975.6 3384.3,3954.6 3387.5,3967.6"
           style="stroke:url(#linearGradient3431);stroke-opacity:1;stroke-width:25.57423722;stroke-miterlimit:4;stroke-dasharray:none" />
        <path
           id="PATH_4"
           d="M 3187.3,4409.9 C 3196.9,4408.2 3208.1,4406.8 3206.5,4404.6 C 3217,4406.9 3219.3,4409 3187.3,4409.9"
           style="stroke:url(#linearGradient3431);stroke-opacity:1;stroke-width:25.57423722;stroke-miterlimit:4;stroke-dasharray:none" />
        <path
           id="PATH_5"
           d="M 3206.5,4404.6 L 3199.7,4403.1 L 3206,4403.7 L 3206.5,4404.6"
           style="stroke:url(#linearGradient3431);stroke-opacity:1;stroke-width:25.57423722;stroke-miterlimit:4;stroke-dasharray:none" />
        <path
           id="PATH_6"
           d="M 3505.5,3955.3 C 3506.6,3926.2 3497,3912.2 3488.4,3887.2 L 3472.9,3879.4 C 3460.2,3854.8 3474.1,3863.8 3465,3844.1 C 3445.2,3826.5 3404.8,3788.9 3391.9,3785.5 C 3382.4,3785.7 3398.3,3796.6 3400.3,3800.9 C 3373.8,3782.7 3379,3773.5 3338.4,3762.4 L 3337.2,3765.1 C 3237,3717.9 3097.9,3811.3 3099.7,3938.8 C 3098.6,3930.7 3096.7,3932.7 3094.4,3929.4 C 3089.3,3995 3124.7,4060.9 3184.5,4087.8 C 3243,4116.7 3311.5,4104.8 3353.4,4065.8 C 3330.4,4095.9 3284.6,4127.9 3230.3,4124.9 C 3177.2,4124.1 3127.4,4090.3 3110.8,4053.6 C 3083.6,4036.4 3080.4,3987.5 3068.6,3978.5 C 3052.6,3861.2 3098.6,3810.4 3176.4,3750.8 C 3188.7,3742.5 3179.9,3741.3 3181.5,3735 C 3155.7,3747.1 3132,3765.4 3112.5,3787.8 C 3122.9,3772.7 3134,3757.9 3148.4,3746.4 C 3124,3754.7 3091.5,3805.5 3082,3807.6 C 3124,3732.3 3252.5,3675.6 3319.8,3703.7 C 3288.6,3702.6 3249.1,3703.1 3214.1,3716 C 3199.4,3723.6 3179.4,3739.2 3183,3742.2 C 3274.8,3707.9 3369.7,3716.2 3449.1,3779.9 C 3469.3,3795.6 3491.4,3822.4 3497.8,3822.8 C 3488.2,3808.3 3499.4,3815.8 3492.1,3803.1 C 3512.2,3835.6 3483.3,3816.3 3512.9,3859.2 L 3523.8,3844.1 C 3519.7,3871.1 3557.3,3903.8 3553.4,3946.5 C 3562.1,3959.5 3563.1,3932.4 3553.9,3902.4 C 3566.6,3935.7 3557.3,3941.1 3560.5,3968.5 C 3564,3959.3 3568.7,3949.5 3571,3939.8 C 3562.8,3971.9 3579.5,3993.9 3583.7,4012.6 C 3579.6,4014.4 3570.9,3998.4 3568.9,4036.4 C 3569.2,4052.9 3573.5,4045 3575.2,4049.1 C 3571.9,4050.9 3563.4,4063.6 3558.3,4087.8 C 3562,4093.6 3568.3,4073.1 3573.4,4072.2 C 3570.1,4091.5 3564.4,4106.2 3564.2,4121 C 3549.3,4152.2 3558.9,4116.9 3546.8,4134.4 C 3531,4183.9 3560,4145.9 3562,4168.4 C 3586,4133.5 3599.7,4079.6 3606,4057.2 C 3601.2,4084.4 3593.5,4110.9 3584,4136.4 C 3591.3,4133.3 3572.2,4192.5 3593.5,4153.3 C 3570.8,4236.8 3496.3,4314.9 3427.8,4351.5 C 3436.2,4343.8 3446.8,4334.2 3443,4332.7 C 3408.9,4353 3414.9,4354.6 3410,4363.1 C 3382.3,4374.4 3380.5,4362.2 3362.1,4363.1 C 3309.8,4390.8 3299.7,4387.9 3251.6,4405.3 L 3253.8,4395 C 3219.1,4406.6 3213.4,4390.7 3175.9,4395 C 3173.7,4396.8 3187.9,4401.4 3199.7,4403.1 C 3166.2,4398.7 3167.8,4409.8 3135,4401.9 C 3143.1,4407.6 3151.6,4411.4 3160.2,4416.2 C 3132.9,4414.5 3095,4400.3 3106.7,4413.2 C 3062.2,4393.3 2983,4365.4 2938.6,4323.8 L 2937.2,4333.1 C 2916.8,4308.7 2848.5,4260.2 2843,4228.5 L 2837.6,4227.2 C 2827,4209.3 2820.1,4189 2811.7,4170.6 C 2797.9,4146.9 2791.4,4161.5 2793.4,4157.8 C 2766.2,4102.5 2752.6,4056.1 2740.9,4018.1 C 2749.3,4005.6 2741.1,3943.1 2744.3,3893.1 C 2730.6,3646.1 2917.7,3406.2 3122.1,3350.8 C 3152.1,3340.1 3196.7,3340.5 3234.6,3339.4 C 3189.8,3352.2 3184.1,3346.2 3140.5,3361.4 C 3109.1,3376.2 3102.2,3393.1 3079.9,3412.4 L 3088.7,3396.8 C 3045.1,3412.3 3063.3,3416 3027.8,3427.2 L 3037.2,3439.5 C 3023.1,3440.6 2999.8,3463.3 2993.4,3476 L 2977.9,3475.3 C 2959.3,3498.3 2949.4,3514.8 2950.1,3527.7 L 2945.1,3518.8 C 2939.4,3528.5 2876.7,3604.8 2909.2,3587.1 C 2903.2,3592.6 2895.2,3596.1 2886.4,3611.9 L 2893.1,3619.5 C 2877.4,3639.6 2864.2,3665.5 2865.2,3674.1 C 2873.6,3662.8 2879.4,3660.7 2885.1,3658.8 C 2845.6,3756.9 2843.3,3664.2 2813.4,3758.7 L 2819.7,3759.2 C 2814.8,3766.5 2811.9,3774.5 2808,3782.3 L 2810.7,3809.8 C 2782.3,3842.7 2802.8,3949.8 2806.9,4008.5 C 2809.8,4032.4 2830.7,4057.8 2846.6,4097.7 L 2836.9,4099.4 C 2855.4,4131.7 2942.8,4229.3 2983.2,4224.3 C 3002.8,4248.9 2979.3,4224.4 2975.5,4230.6 C 3018.5,4275.1 3032,4262 3061.1,4270 C 3092.4,4288.6 3034.2,4262.8 3049.1,4277.1 C 3103.2,4290.9 3087.4,4308.6 3158.1,4315.6 C 3165.5,4311.3 3140.8,4309 3134.6,4303.5 C 3179.7,4325.6 3277.3,4320.6 3340.7,4291.3 C 3414.3,4256.9 3497,4155.2 3500.2,4059.6 L 3504,4058.6 C 3502.1,4020.6 3509.8,3976.6 3496.4,3936.2 L 3505.5,3955.3"
           style="stroke:url(#linearGradient3431);stroke-opacity:1;stroke-width:25.57423722;stroke-miterlimit:4;stroke-dasharray:none" />
        <path
           id="PATH_7"
           d="M 3059.3,3826.2 L 3056.8,3813.6 C 3068.6,3797.6 3078,3780.2 3093.1,3767.7 C 3082.2,3788.8 3074.2,3797.6 3059.3,3826.2"
           style="stroke:url(#linearGradient3431);stroke-opacity:1;stroke-width:25.57423722;stroke-miterlimit:4;stroke-dasharray:none" />
        <path
           id="PATH_8"
           d="M 3087.2,3827.3 C 3081,3834.2 3077.3,3842.6 3073.2,3850.8 C 3077.1,3836.3 3085.2,3823.8 3092.8,3811 L 3087.2,3827.3"
           style="stroke:url(#linearGradient3431);stroke-opacity:1;stroke-width:25.57423722;stroke-miterlimit:4;stroke-dasharray:none" />
        <path
           id="PATH_9"
           d="M 3581.3,3934.7 L 3578.7,3928.1 C 3573.8,3893.7 3563.4,3859.7 3547.3,3828.2 C 3565,3861.4 3576.5,3897.8 3581.3,3934.7"
           style="stroke:url(#linearGradient3431);stroke-opacity:1;stroke-width:25.57423722;stroke-miterlimit:4;stroke-dasharray:none" />
        <path
           id="PATH_10"
           d="M 3190.9,4418.5 C 3203,4422.9 3220.7,4420.9 3233.6,4423.9 C 3216.8,4422.5 3200.1,4421.6 3183.6,4419.5 L 3190.9,4418.5"
           style="stroke:url(#linearGradient3431);stroke-opacity:1;stroke-width:25.57423722;stroke-miterlimit:4;stroke-dasharray:none" />
        <path
           id="PATH_11"
           d="M 2764.3,4191.7 C 2767.1,4165.8 2744.8,4155.7 2769.3,4172.8 C 2782.4,4202.3 2764.1,4180.9 2764.3,4191.7"
           style="stroke:url(#linearGradient3431);stroke-opacity:1;stroke-width:25.57423722;stroke-miterlimit:4;stroke-dasharray:none" />
        <path
           id="PATH_12"
           d="M 2735.6,4071.7 C 2741.2,4089 2742.2,4099.4 2744.4,4109.4 C 2728.8,4089.5 2737.2,4085.2 2735.6,4071.7"
           style="stroke:url(#linearGradient3431);stroke-opacity:1;stroke-width:25.57423722;stroke-miterlimit:4;stroke-dasharray:none" />
      </g>
    </g>
  </g>
</svg>
