<?xml version="1.0" encoding="UTF-8" standalone="no"?>
<svg
   xmlns:dc="http://purl.org/dc/elements/1.1/"
   xmlns:cc="http://creativecommons.org/ns#"
   xmlns:rdf="http://www.w3.org/1999/02/22-rdf-syntax-ns#"
   xmlns:svg="http://www.w3.org/2000/svg"
   xmlns="http://www.w3.org/2000/svg"
   xmlns:xlink="http://www.w3.org/1999/xlink"
   xmlns:sodipodi="http://sodipodi.sourceforge.net/DTD/sodipodi-0.dtd"
   xmlns:inkscape="http://www.inkscape.org/namespaces/inkscape"
   version="1.1"
   width="64"
   height="64"
   color-interpolation="linearRGB"
   id="svg2"
   inkscape:version="0.91 r13725"
   sodipodi:docname="telegram-messenger.svg">
  <metadata
     id="metadata46">
    <rdf:RDF>
      <cc:Work
         rdf:about="">
        <dc:format>image/svg+xml</dc:format>
        <dc:type
           rdf:resource="http://purl.org/dc/dcmitype/StillImage" />
        <dc:title></dc:title>
      </cc:Work>
    </rdf:RDF>
  </metadata>
  <defs
     id="defs44">
    <inkscape:perspective
       sodipodi:type="inkscape:persp3d"
       inkscape:vp_x="0 : 32 : 1"
       inkscape:vp_y="0 : 1000 : 0"
       inkscape:vp_z="64 : 32 : 1"
       inkscape:persp3d-origin="32 : 21.333333 : 1"
       id="perspective48" />
    <linearGradient
       id="linearGradient3962">
      <stop
         id="stop3964"
         offset="0.0000000"
         style="stop-color:#d3e9ff;stop-opacity:1.0000000;" />
      <stop
         id="stop4134"
         offset="0.15517241"
         style="stop-color:#d3e9ff;stop-opacity:1.0000000;" />
      <stop
         id="stop4346"
         offset="0.75000000"
         style="stop-color:#4074ae;stop-opacity:1.0000000;" />
      <stop
         id="stop3966"
         offset="1.0000000"
         style="stop-color:#36486c;stop-opacity:1.0000000;" />
    </linearGradient>
    <linearGradient
       id="linearGradient4114"
       inkscape:collect="always">
      <stop
         id="stop4116"
         offset="0"
         style="stop-color:#000000;stop-opacity:1;" />
      <stop
         id="stop4118"
         offset="1"
         style="stop-color:#000000;stop-opacity:0;" />
    </linearGradient>
    <linearGradient
       id="linearGradient4126">
      <stop
         id="stop4128"
         offset="0.0000000"
         style="stop-color:#ffffff;stop-opacity:1.0000000;" />
      <stop
         id="stop4130"
         offset="1.0000000"
         style="stop-color:#ffffff;stop-opacity:0.16494845;" />
    </linearGradient>
    <linearGradient
       id="linearGradient4750">
      <stop
         id="stop4752"
         offset="0"
         style="stop-color:#ffffff;stop-opacity:1;" />
      <stop
         id="stop4758"
         offset="0.37931034"
         style="stop-color:#fefefe;stop-opacity:1.0000000;" />
      <stop
         id="stop4754"
         offset="1.0000000"
         style="stop-color:#1d1d1d;stop-opacity:1.0000000;" />
    </linearGradient>
    <inkscape:perspective
       id="perspective156"
       inkscape:persp3d-origin="24 : 16 : 1"
       inkscape:vp_z="48 : 24 : 1"
       inkscape:vp_y="0 : 1000 : 0"
       inkscape:vp_x="0 : 24 : 1"
       sodipodi:type="inkscape:persp3d" />
    <linearGradient
       y2="19.192499"
       x2="18.485701"
       y1="12.1245"
       x1="12.6045"
       gradientUnits="userSpaceOnUse"
       id="aigrd1">
      <stop
         id="stop8"
         style="stop-color:#BBBBBB"
         offset="0" />
      <stop
         id="stop10"
         style="stop-color:#D2D2D2"
         offset="1" />
    </linearGradient>
    <linearGradient
       gradientTransform="matrix(0.9625,0.2714,-0.2714,0.9625,-49.4545,35.6615)"
       y2="-40.736599"
       x2="47.815498"
       y1="-45.209999"
       x1="44.0933"
       gradientUnits="userSpaceOnUse"
       id="aigrd2">
      <stop
         id="stop29"
         style="stop-color:#BBBBBB"
         offset="0" />
      <stop
         id="stop31"
         style="stop-color:#D2D2D2"
         offset="1" />
    </linearGradient>
    <radialGradient
       gradientUnits="userSpaceOnUse"
       gradientTransform="matrix(1,0,0,0.353741,0,16.64116)"
       r="18.375"
       fy="25.75"
       fx="23.625"
       cy="25.75"
       cx="23.625"
       id="radialGradient5153"
       xlink:href="#linearGradient4114"
       inkscape:collect="always" />
    <linearGradient
       gradientTransform="matrix(0.977282,0,0,1,9.8716802,8.2855802)"
       gradientUnits="userSpaceOnUse"
       y2="28.645691"
       x2="28.933086"
       y1="23.645691"
       x1="27.383825"
       id="linearGradient5170"
       xlink:href="#linearGradient5164"
       inkscape:collect="always" />
    <linearGradient
       id="linearGradient5164">
      <stop
         id="stop5166"
         offset="0"
         style="stop-color:#888a85;stop-opacity:1;" />
      <stop
         id="stop5168"
         offset="1"
         style="stop-color:#b0b2ae;stop-opacity:1;" />
    </linearGradient>
    <linearGradient
       gradientUnits="userSpaceOnUse"
       y2="27.232378"
       x2="29.703455"
       y1="6.2843385"
       x1="26.515743"
       id="linearGradient5182"
       xlink:href="#linearGradient4126"
       inkscape:collect="always" />
    <radialGradient
       inkscape:collect="always"
       xlink:href="#linearGradient4114"
       id="radialGradient3042"
       gradientUnits="userSpaceOnUse"
       gradientTransform="matrix(1,0,0,0.353741,0,16.64116)"
       cx="23.625"
       cy="25.75"
       fx="23.625"
       fy="25.75"
       r="18.375" />
    <radialGradient
       r="18.375"
       fy="25.75"
       fx="23.625"
       cy="25.75"
       cx="23.625"
       gradientTransform="matrix(1,0,0,0.353741,0,16.64116)"
       gradientUnits="userSpaceOnUse"
       id="radialGradient3114"
       xlink:href="#linearGradient4114"
       inkscape:collect="always" />
    <linearGradient
       y2="27.232378"
       x2="29.703455"
       y1="6.2843385"
       x1="26.515743"
       gradientUnits="userSpaceOnUse"
       id="linearGradient3118"
       xlink:href="#linearGradient4126"
       inkscape:collect="always" />
    <linearGradient
       gradientTransform="matrix(1 0 0 -1 233.1519 413.8262)"
       y2="380.8235"
       x2="-203.8642"
       y1="376.2266"
       x1="-195.5322"
       gradientUnits="userSpaceOnUse"
       id="XMLID_7_">
      <stop
         id="stop248"
         style="stop-color:#FFFFFF"
         offset="0" />
      <stop
         id="stop249"
         style="stop-color:#000000"
         offset="1" />
    </linearGradient>
  </defs>
  <sodipodi:namedview
     pagecolor="#ffffff"
     bordercolor="#666666"
     borderopacity="1"
     objecttolerance="10"
     gridtolerance="10"
     guidetolerance="10"
     inkscape:pageopacity="0"
     inkscape:pageshadow="2"
     inkscape:window-width="1364"
     inkscape:window-height="708"
     id="namedview42"
     showgrid="false"
     inkscape:zoom="4.6445315"
     inkscape:cx="-16.524596"
     inkscape:cy="37.456238"
     inkscape:window-x="2"
     inkscape:window-y="30"
     inkscape:window-maximized="1"
     inkscape:current-layer="svg2"
     showguides="true"
     inkscape:guide-bbox="true" />
  <g
     style="overflow:visible"
     id="g6902"
     transform="matrix(1.2832563,0,0,1.2832563,2.6901285,0.14451332)">
    <g
       style="font-size:12px;opacity:0.2;stroke:#000000"
       id="g157">
      <path
         id="path158"
         d="m 12.143,40.313 c 6.865,-2.226 22.623,-3.224 35.194,-2.229 0.853,0.068 1.689,0.421 2.445,0.225 1.19,-0.31 1.19,7.291 0.029,7.208 -2.327,0.309 -4.896,0.552 -7.595,0.722 -0.044,0.367 -7.173,5.144 -7.173,5.144 0,0 -9.716,-5.011 -12.563,-5.236 C 9.907,45.151 5.279,42.54 12.143,40.313 Z"
         inkscape:connector-curvature="0"
         style="stroke:none" />
    </g>
    <g
       style="font-size:12px;stroke:#000000"
       id="g159">
      <path
         id="path160"
         d="M 0,22.836 C 0,10.225 10.225,0 22.837,0 35.449,0 45.672,10.225 45.672,22.836 45.672,35.447 35.449,45.673 22.837,45.673 10.225,45.673 0,35.448 0,22.836 Z"
         inkscape:connector-curvature="0"
         style="stroke:none" />
    </g>
    <g
       style="font-size:12px;stroke:#000000"
       id="g161">
      <path
         id="path162"
         d="m 1.794,22.836 c 0,-11.621 9.421,-21.042 21.042,-21.042 11.622,0 21.042,9.421 21.042,21.042 0,11.622 -9.42,21.042 -21.042,21.042 C 11.215,43.879 1.794,34.458 1.794,22.836 Z"
         inkscape:connector-curvature="0"
         style="fill:#59f0f0;stroke:none" />
    </g>
    <g
       style="font-size:12px;stroke:#000000"
       id="g163">
      <g
         id="g164">
        <g
           id="g165">
          <path
             id="path166"
             d="m 29.464,42.591 c 0.258,-1.094 0.837,-3.409 -0.193,-3.603 -1.03,-0.192 -2.96,-0.322 -3.539,-0.965 -0.58,-0.644 -1.159,-0.644 -1.544,-0.901 -0.386,-0.258 -0.965,-1.094 -0.386,-1.866 0.579,-0.772 0.45,-1.544 -0.322,-1.994 -0.772,-0.452 -1.223,0.128 -1.866,0.192 -0.644,0.064 -2.188,-0.965 -3.347,-0.965 -1.159,0 -2.252,0 -2.445,-0.644 -0.708,0.45 -4.955,-0.322 -4.762,-1.609 -0.451,-0.45 -2.124,-2.316 -2.574,-2.959 0.064,0.514 0.45,1.608 0.836,1.93 C 8.228,28.435 7.327,27.084 7.263,26.053 6.748,25.602 5.461,23.223 5.655,22.514 5.848,21.806 6.041,19.296 6.427,19.232 6.813,19.168 6.492,18.847 6.3,18.46 6.107,18.074 5.978,17.43 5.978,17.108 c 0,-0.321 0.322,-1.158 0,-1.222 -0.322,-0.064 -1.03,-0.515 -0.579,-0.515 0.45,0 0.837,0.258 0.837,-0.193 0,-0.45 -0.258,-1.673 -0.451,-1.866 C 5.593,13.119 5.657,13.183 5.271,13.44 4.885,13.697 4.499,13.762 4.434,13.569 4.369,13.376 4.498,13.44 4.82,12.99 5.142,12.539 5.914,11.252 6.172,10.802 6.429,10.352 6.365,10.931 7.201,9.966 8.037,9.001 8.488,8.1 8.488,9.001 c 0,0.901 0.193,1.288 0.708,1.288 0.515,0 0.579,-0.193 0.644,0.192 0.064,0.387 0.128,0.837 0.644,0.644 0.515,-0.192 0.965,0.064 1.223,-0.192 0.257,-0.259 -0.193,-0.516 0.128,-0.58 0.323,-0.064 0.451,0.515 0.58,0.064 0.128,-0.45 -0.064,-1.159 0.386,-0.708 0.45,0.451 0.579,0.515 0.9,0.322 0.322,-0.194 1.352,-0.257 0.451,0.322 -0.901,0.58 -0.966,0.515 -1.094,1.094 -0.128,0.579 -0.193,0.386 -0.515,1.03 -0.321,0.643 -0.965,1.287 -0.128,1.737 0.836,0.451 1.93,0.579 1.93,0.579 0,0 0.901,-0.708 0.772,0.063 -0.128,0.773 -0.193,1.224 0.257,1.095 0.451,-0.129 1.224,-0.064 0.708,-0.644 -0.515,-0.579 -0.451,-0.193 -0.257,-1.03 0.192,-0.836 0.064,-0.771 -0.194,-1.158 -0.257,-0.386 -0.9,-1.609 -0.257,-1.673 0.644,-0.064 1.159,-0.257 1.352,0.064 0.193,0.322 0.836,0.901 1.094,0.58 0.258,-0.321 -0.064,-1.223 0.9,-0.58 0.966,0.644 -0.064,0.966 0.966,0.966 1.029,0 1.995,-0.065 1.995,0.192 0,0.258 -0.708,1.48 -1.223,1.673 -0.515,0.193 -0.708,-0.257 -0.901,0.322 -0.193,0.579 -0.837,1.802 -0.45,1.351 0.385,-0.45 1.029,-1.416 1.093,-0.837 0.064,0.58 0,1.03 0.644,0.966 0.643,-0.064 1.608,-0.643 0.772,0.193 -0.837,0.836 -0.901,1.416 -0.837,0.836 0.064,-0.579 0.064,-0.901 -0.451,-0.128 -0.514,0.772 -0.643,1.351 -0.386,1.351 0.257,0 0.257,0.193 -0.064,0.386 -0.322,0.193 -0.515,1.094 -0.708,1.608 -0.193,0.515 -0.579,1.094 -0.193,1.159 0.386,0.064 0.257,1.029 0.257,1.029 0,0 -1.738,1.931 -1.094,2.51 0.644,0.579 1.416,1.479 1.094,1.673 -0.322,0.192 -1.094,-1.03 -1.287,-1.223 -0.192,-0.192 -2.123,-0.451 -2.252,-0.128 -0.128,0.321 0.322,0.579 0,0.643 -0.321,0.064 -1.48,0.323 -1.93,0.579 -0.45,0.257 -0.579,1.094 -0.515,1.416 0.064,0.322 0.386,3.088 1.866,2.766 1.48,-0.32 1.608,-0.449 1.351,-1.093 l 1.159,-0.45 c 0,0 -0.257,1.866 0.322,1.93 0.58,0.064 1.416,-0.129 1.608,-0.129 0.194,0 0.644,1.673 1.03,1.802 0.386,0.129 1.48,0 2.124,-0.45 0.643,-0.449 0.965,0.579 1.029,0.064 0.064,-0.514 0.771,-1.608 1.415,-1.866 0,0.45 0,0.901 0.387,0.772 0.386,-0.128 0.128,-0.965 0.128,-0.965 0,0 2.574,0.128 2.574,-0.644 0,0 1.416,-0.387 1.738,0.064 0.192,-0.45 0.514,-0.064 1.029,0.064 0.515,0.128 0.837,-0.322 1.545,-0.644 0.707,-0.321 2.252,-0.064 2.445,0.45 0.192,0.516 0.578,1.029 0.836,0.129 l 1.48,-0.386 c 0,0 0.837,-0.837 1.415,-0.901 0.579,-0.064 1.159,-0.45 1.224,-0.064 0.063,0.385 -0.193,1.93 -0.579,2.251 -0.387,0.321 -0.193,0.58 -0.064,0.901 0.129,0.322 -0.193,2.059 -0.451,2.381 -0.258,0.322 0,0.386 -0.515,0.836 -0.515,0.451 -0.772,1.094 -0.966,1.48 -0.191,0.386 -0.514,1.479 -1.028,1.931 -0.515,0.45 -0.837,0.965 -0.837,0.965 -0.71,0.584 -2.576,2.835 -6.051,3.35 z"
             inkscape:connector-curvature="0"
             style="fill:#2f9e32;stroke:none" />
        </g>
        <g
           id="g167">
          <path
             id="path168"
             d="m 19.04,28.114 c 0.386,-0.193 0.45,-0.258 0.836,-0.258 0.386,0 1.608,0.064 1.995,0.064 0.387,0 0.515,0.385 0.128,0.45 -0.385,0.064 -1.029,-0.193 -1.479,-0.193 -0.451,0 -1.223,0.258 -1.48,-0.063 z"
             inkscape:connector-curvature="0"
             style="fill:#2f9e32;stroke:none" />
        </g>
        <g
           id="g169">
          <path
             id="path170"
             d="m 23.416,27.92 c 0.193,-0.322 1.029,-0.514 1.416,-0.322 0.386,0.193 -0.837,0.901 -1.159,0.837 -0.322,-0.064 -0.257,-0.515 -0.257,-0.515 z"
             inkscape:connector-curvature="0"
             style="fill:#2f9e32;stroke:none" />
        </g>
        <g
           id="g171">
          <path
             id="path172"
             d="m 22,13.635 c 0,0 0.193,0.579 0.064,0.836 -0.128,0.258 0.579,-0.128 1.094,-0.128 0.514,0 0.192,-0.193 0.064,-0.579 C 23.093,13.377 22.386,13.635 22,13.635 Z"
             inkscape:connector-curvature="0"
             style="fill:#2f9e32;stroke:none" />
        </g>
        <g
           id="g173">
          <path
             id="path174"
             d="m 15.243,6.749 c 0.386,-0.128 0.45,-0.45 1.287,0 0.836,0.451 0.9,0.001 1.608,0.708 0.708,0.708 1.93,1.93 3.475,1.351 C 21.29,8.036 20.776,7.843 20.841,7.135 20.905,6.427 21.034,5.397 21.034,5.397 L 20.39,5.655 20.326,5.14 c 0,0 -2.252,-0.45 -2.703,-0.386 -0.45,0.063 -0.45,-0.258 -0.772,-0.258 -0.322,0 -0.386,0.515 -0.644,0.515 -0.258,0 -1.093,-0.386 -0.965,0.129 0.128,0.514 0.322,0.643 0.064,0.965 -0.256,0.322 -0.063,0.644 -0.063,0.644 z"
             inkscape:connector-curvature="0"
             style="fill:#2f9e32;stroke:none" />
        </g>
        <g
           id="g175">
          <path
             id="path176"
             d="m 13.828,8.679 c 0.257,-0.386 0.515,-0.643 0.579,-0.386 0.064,0.258 0.128,0.515 0.837,0.322 0.708,-0.193 0.9,-0.064 1.158,0.128 0.258,0.193 0.901,0.257 0.901,0.579 0,0.321 -0.257,0.515 -0.515,0.257 -0.258,-0.258 -0.644,-0.643 -0.644,-0.322 0,0.322 0.193,0.966 0.837,0.901 0.644,-0.064 0.836,0.322 0.322,0.322 -0.514,0 -0.386,0.192 -0.708,0.258 -0.322,0.063 -0.644,-0.387 -0.966,-0.258 0,0 0.129,-0.901 -0.257,-0.965 -0.386,-0.064 -0.515,0.128 -0.515,0.128 0,0 0.064,-0.321 -0.258,-0.45 -0.322,-0.129 -0.45,0.192 -0.837,0.192 -0.385,0.002 -0.707,-1.092 0.066,-0.706 z"
             inkscape:connector-curvature="0"
             style="fill:#2f9e32;stroke:none" />
        </g>
        <g
           id="g177">
          <path
             id="path178"
             d="m 10.031,6.042 c 0,0 0.064,0.386 0.258,0.322 0.193,-0.064 0.965,-0.643 1.479,-1.029 0.515,-0.387 0.966,-0.773 0.901,-0.966 -0.064,-0.194 -2.06,1.093 -2.638,1.673 z"
             inkscape:connector-curvature="0"
             style="fill:#2f9e32;stroke:none" />
        </g>
        <g
           id="g179">
          <path
             id="path180"
             d="M 9.258,6.685 C 9.569,6.581 9.066,7.2 8.679,7.65 8.293,8.101 8.036,8.101 7.65,8.551 7.264,9.001 6.62,9.516 6.363,9.774 c -0.257,0.257 -0.772,0.642 -0.772,0.642 0,0 3.088,-3.538 3.667,-3.731 z"
             inkscape:connector-curvature="0"
             style="fill:#2f9e32;stroke:none" />
        </g>
        <g
           id="g181">
          <path
             id="path182"
             d="m 21.742,2.051 c -0.064,0.387 -0.386,0.58 0.128,0.58 0.515,0 2.574,0.064 3.089,0.579 0.515,0.514 2.316,0.257 2.767,-0.129 C 28.177,2.695 27.533,2.567 26.89,2.631 26.246,2.695 25.667,2.695 25.281,2.503 24.895,2.31 24.444,2.181 24.444,1.924 23.608,1.859 22.128,1.859 21.742,2.051 Z"
             inkscape:connector-curvature="0"
             style="fill:#2f9e32;stroke:none" />
        </g>
        <g
           id="g183">
          <path
             id="path184"
             d="m 28.306,2.438 c 0,0 1.029,0.772 0.772,0.836 -0.257,0.064 -0.9,0.064 -0.9,0.064 0,0 0.644,0.063 0.965,0.321 0.322,0.258 0.193,0.708 0.901,0.901 0.708,0.193 0.9,1.094 1.223,1.352 0.322,0.257 0.065,-0.322 0.579,-0.192 0.515,0.128 1.866,0.965 1.48,1.093 -0.387,0.129 -0.515,0.644 0.192,1.03 0.709,0.386 1.48,0.708 1.673,1.158 C 35.513,8.486 35.642,7.649 35.063,7.328 34.484,7.007 33.711,6.684 33.583,6.169 33.455,5.655 33.391,5.205 33.455,4.818 32.167,3.725 28.756,2.502 28.306,2.438 Z"
             inkscape:connector-curvature="0"
             style="fill:#2f9e32;stroke:none" />
        </g>
        <g
           id="g185">
          <path
             id="path186"
             d="m 35.899,6.363 c 0.129,0.515 0.516,2.316 0.129,2.574 -0.386,0.257 0,0.386 0.258,0.643 0.257,0.257 0.321,0.128 0.707,0.708 0.387,0.58 0.708,1.03 0.708,1.802 0,0.773 0.515,1.48 0.773,1.93 0.257,0.451 1.866,1.673 1.866,2.317 0,0.643 -0.064,1.287 0.644,1.415 0.707,0.129 1.028,0.193 1.222,0.515 0.193,0.322 0.772,0.322 1.094,0.387 C 42.914,15.887 41.241,10.61 35.899,6.363 Z"
             inkscape:connector-curvature="0"
             style="fill:#2f9e32;stroke:none" />
        </g>
        <g
           id="g187">
          <path
             id="path188"
             d="m 22.965,5.334 0,0.257 0.836,0.129 0,-0.644 -1.094,-0.192 0.258,0.45 z"
             inkscape:connector-curvature="0"
             style="fill:#2f9e32;stroke:none" />
        </g>
        <g
           id="g189">
          <path
             id="path190"
             d="m 27.277,4.497 c -0.322,0 -0.065,0.322 0.321,0.387 0.387,0.064 0.708,0 1.223,0.064 0.515,0.064 0.902,0.128 1.03,0.387 0.129,0.257 0.451,0.257 0.451,0 0,-0.258 0.064,-0.579 -0.515,-0.644 C 29.208,4.627 28.564,4.562 28.243,4.498 27.922,4.434 27.277,4.497 27.277,4.497 Z"
             inkscape:connector-curvature="0"
             style="fill:#2f9e32;stroke:none" />
        </g>
        <g
           id="g191">
          <path
             id="path192"
             d="m 28.5,5.527 0.772,0 0,0.642 L 28.5,5.527 Z"
             inkscape:connector-curvature="0"
             style="fill:#2f9e32;stroke:none" />
        </g>
        <g
           id="g193">
          <path
             id="path194"
             d="m 11.575,9.837 c 0,0 -0.193,0.516 -0.451,0.516 -0.258,0 -0.708,-0.579 -0.257,-0.772 0.451,-0.194 0.708,0.256 0.708,0.256 z"
             inkscape:connector-curvature="0"
             style="fill:#2f9e32;stroke:none" />
        </g>
        <g
           id="g195">
          <path
             id="path196"
             d="M 10.609,9.13 C 10.288,9.387 10.095,9.644 9.901,9.58 9.709,9.516 10.159,9.001 10.417,8.872 10.674,8.744 10.609,9.13 10.609,9.13 Z"
             inkscape:connector-curvature="0"
             style="fill:#2f9e32;stroke:none" />
        </g>
        <g
           id="g197">
          <path
             id="path198"
             d="m 11.061,8.358 0.386,-0.129 0.515,0.579 0.451,0 -0.129,0.708 -0.258,0 -0.965,-1.158 z"
             inkscape:connector-curvature="0"
             style="fill:#2f9e32;stroke:none" />
        </g>
        <g
           id="g199">
          <path
             id="path200"
             d="M 13.184,7.071 C 13.506,7.008 13.892,7.008 14.085,6.17 14.277,5.335 14.6,5.656 14.471,6.235 14.343,6.814 13.828,6.879 14.085,7.2 14.342,7.522 14.213,7.392 13.828,7.328 13.441,7.264 13.184,7.392 13.184,7.071 Z"
             inkscape:connector-curvature="0"
             style="fill:#2f9e32;stroke:none" />
        </g>
      </g>
    </g>
  </g>
  <g
     style="color-interpolation:linearRGB"
     id="g6838"
     transform="matrix(0.80057906,0,0,0.80057906,7.1544343,7.0627847)">
    <g
       transform="matrix(1.51975,-0.23888416,0.58342713,1.8077778,-39.019293,-25.416352)"
       id="g3105">
      <ellipse
         style="color:#000000;display:inline;overflow:visible;visibility:visible;opacity:0.2;fill:url(#radialGradient3114);fill-opacity:1;fill-rule:evenodd;stroke:none;stroke-width:1;marker:none"
         id="path5145"
         transform="matrix(1.3121944,-0.1052656,0.1402201,0.8308229,-4.2100045,18.881062)"
         cx="23.625"
         cy="25.75"
         rx="18.375"
         ry="6.5" />
      <path
         inkscape:connector-curvature="0"
         style="color:#000000;display:inline;overflow:visible;visibility:visible;fill:#eeeeec;fill-opacity:1;fill-rule:evenodd;stroke:#000000;stroke-width:2.00000024;stroke-linecap:round;stroke-linejoin:round;stroke-miterlimit:4;stroke-dasharray:none;stroke-dashoffset:0;stroke-opacity:1;marker:none"
         d="m 31.156253,21.474287 -20.055241,20.15625 33.689226,-6.948223 1.026583,-4.75 10.911045,-4.09375 -12.007924,-1.59375 -4.819651,2.6875 -0.916202,-3.791053 -7.827836,-1.666974 z"
         id="path5155"
         sodipodi:nodetypes="ccccccccc" />
      <path
         inkscape:connector-curvature="0"
         style="color:#000000;display:inline;overflow:visible;visibility:visible;fill:#eeeeec;fill-opacity:1;fill-rule:evenodd;stroke:none;stroke-width:1;marker:none"
         d="M 38.856112,23.137785 10.747658,41.820712 31.16833,21.662817 l 7.687782,1.474968 z"
         id="path5137"
         sodipodi:nodetypes="cccc" />
      <path
         inkscape:connector-curvature="0"
         style="color:#000000;display:inline;overflow:visible;visibility:visible;fill:url(#linearGradient5170);fill-opacity:1;fill-rule:evenodd;stroke:none;stroke-width:1;marker:none"
         d="M 45.505832,29.283485 44.627747,34.570872 11.468388,41.329056 45.505832,29.283485 Z"
         id="path5143"
         sodipodi:nodetypes="cccc" />
      <path
         inkscape:connector-curvature="0"
         style="color:#000000;display:inline;overflow:visible;visibility:visible;fill:#eeeeec;fill-opacity:1;fill-rule:evenodd;stroke:none;stroke-width:1;marker:none"
         d="M 11.468388,41.574884 44.621949,24.366925 56.393866,25.841892 11.468388,41.574884 Z"
         id="path5139"
         sodipodi:nodetypes="cccc" />
      <path
         inkscape:connector-curvature="0"
         style="color:#000000;display:inline;overflow:visible;visibility:visible;fill:#d3d7cf;fill-opacity:1;fill-rule:evenodd;stroke:none;stroke-width:1;marker:none"
         d="m 38.881034,23.074254 0.916779,3.864195 -28.569668,14.636435 27.652889,-18.50063 z"
         id="path5141"
         sodipodi:nodetypes="cccc" />
      <path
         sodipodi:type="inkscape:offset"
         inkscape:radius="-0.6239785"
         inkscape:original="M 31.15625 21.474609 L 11.101562 41.630859 L 44.791016 34.681641 L 45.816406 29.931641 L 56.728516 25.837891 L 44.720703 24.244141 L 39.900391 26.931641 L 38.984375 23.140625 L 31.15625 21.474609 z "
         xlink:href="#path5155"
         style="color:#000000;display:inline;overflow:visible;visibility:visible;fill:none;stroke:url(#linearGradient3118);stroke-width:1;stroke-linecap:butt;stroke-linejoin:miter;stroke-miterlimit:4.5;stroke-dasharray:none;stroke-dashoffset:0;stroke-opacity:1;marker:none"
         id="path5174"
         inkscape:href="#path5155"
         d="m 31.357422,22.154297 -18.351563,18.447265 31.261719,-6.449218 0.939453,-4.351563 a 0.62404089,0.62404089 0 0 1 0.390625,-0.453125 l 8.578125,-3.21875 -9.332031,-1.238281 -4.638672,2.585937 a 0.62404089,0.62404089 0 0 1 -0.912109,-0.398437 l -0.822266,-3.408203 -7.113281,-1.515625 z" />
    </g>
  </g>
</svg>
