<?xml version="1.0" encoding="UTF-8" standalone="no"?>
<svg
   xmlns:dc="http://purl.org/dc/elements/1.1/"
   xmlns:cc="http://creativecommons.org/ns#"
   xmlns:rdf="http://www.w3.org/1999/02/22-rdf-syntax-ns#"
   xmlns:svg="http://www.w3.org/2000/svg"
   xmlns="http://www.w3.org/2000/svg"
   xmlns:sodipodi="http://sodipodi.sourceforge.net/DTD/sodipodi-0.dtd"
   xmlns:inkscape="http://www.inkscape.org/namespaces/inkscape"
   version="1.1"
   width="64"
   height="64"
   color-interpolation="linearRGB"
   id="svg2"
   inkscape:version="0.91 r13725"
   sodipodi:docname="text-x-preview.svg">
  <metadata
     id="metadata46">
    <rdf:RDF>
      <cc:Work
         rdf:about="">
        <dc:format>image/svg+xml</dc:format>
        <dc:type
           rdf:resource="http://purl.org/dc/dcmitype/StillImage" />
        <dc:title></dc:title>
      </cc:Work>
    </rdf:RDF>
  </metadata>
  <defs
     id="defs44" />
  <sodipodi:namedview
     pagecolor="#ffffff"
     bordercolor="#666666"
     borderopacity="1"
     objecttolerance="10"
     gridtolerance="10"
     guidetolerance="10"
     inkscape:pageopacity="0"
     inkscape:pageshadow="2"
     inkscape:window-width="739"
     inkscape:window-height="497"
     id="namedview42"
     showgrid="false"
     inkscape:zoom="3.6875"
     inkscape:cx="32"
     inkscape:cy="32"
     inkscape:window-x="1077"
     inkscape:window-y="250"
     inkscape:window-maximized="0"
     inkscape:current-layer="svg2" />
  <g
     id="g4"
     transform="translate(0,-6)">
    <path
       style="fill:#010101;fill-opacity:0.57250001"
       d="m 27,57 2,2 3.13,-3.17 L 37,59 45.39,47.54 64,38 l -5,-3 2,2 -25,12 -9,8 z m 31,-23 4,-3 -4,-2 -3,3 3,2 z"
       id="path6"
       inkscape:connector-curvature="0" />
    <path
       style="fill:none;stroke:#010101;stroke-width:4"
       d="m 6.25,30 c 0,0 5.62,6 10.62,12.5 5,6.5 9.38,13.25 9.38,13.25 L 59.12,36.87 32,15 6.25,30 Z"
       id="path8"
       inkscape:connector-curvature="0" />
    <radialGradient
       id="gradient0"
       gradientUnits="userSpaceOnUse"
       cx="0"
       cy="0"
       r="64"
       gradientTransform="matrix(0.5714,0,0,0.3333,26,35)">
      <stop
         offset="1"
         stop-color="#fffcc0"
         id="stop11" />
      <stop
         offset="0.4886"
         stop-color="#f1b706"
         id="stop13" />
    </radialGradient>
    <path
       style="fill:url(#gradient0)"
       d="m 6.25,30 c 0,0 5.62,6 10.62,12.5 5,6.5 9.38,13.25 9.38,13.25 L 59.12,36.87 32,15 6.25,30 Z"
       id="path15"
       inkscape:connector-curvature="0" />
    <path
       style="fill:none;stroke:#010101;stroke-width:4"
       d="m 2.62,30.87 c 0,0 8.33,5.39 16.38,11 8.44,5.88 16.75,10.88 16.75,10.88 L 58.12,26.37 c 0,0 -12.68,-5.67 -22.75,-11 C 30.18,12.62 26,9.37 26,9.37 L 2.62,30.87 Z"
       id="path17"
       inkscape:connector-curvature="0" />
    <linearGradient
       id="gradient1"
       gradientUnits="userSpaceOnUse"
       x1="107.04"
       y1="-17.09"
       x2="118.33"
       y2="27.99">
      <stop
         offset="0"
         stop-color="#ffefa5"
         id="stop20" />
      <stop
         offset="0.7424"
         stop-color="#fffcc0"
         id="stop22" />
      <stop
         offset="1"
         stop-color="#fff890"
         id="stop24" />
    </linearGradient>
    <path
       style="fill:url(#gradient1)"
       d="m 2.62,30.87 c 0,0 8.33,5.39 16.38,11 8.44,5.88 16.75,10.88 16.75,10.88 L 58.12,26.37 c 0,0 -12.68,-5.67 -22.75,-11 C 30.18,12.62 26,9.37 26,9.37 L 2.62,30.87 Z"
       id="path26"
       inkscape:connector-curvature="0" />
    <linearGradient
       id="gradient2"
       gradientUnits="userSpaceOnUse"
       x1="-47.139999"
       y1="-15.78"
       x2="-28.459999"
       y2="-37.849998">
      <stop
         offset="0"
         stop-color="#010101"
         id="stop29" />
      <stop
         offset="1"
         stop-color="#9e9e9e"
         id="stop31" />
    </linearGradient>
    <path
       style="fill:none;stroke:url(#gradient2);stroke-width:1"
       d="M 20,36 34.87,20.87 M 14,32 26.87,19 M 26,40 38.75,26.87 M 32,44 42.75,32.37"
       id="path33"
       inkscape:connector-curvature="0" />
    <linearGradient
       id="gradient3"
       gradientUnits="userSpaceOnUse"
       x1="-47.139999"
       y1="-15.78"
       x2="-28.459999"
       y2="-37.849998">
      <stop
         offset="0"
         stop-color="#010101"
         id="stop36" />
      <stop
         offset="1"
         stop-color="#9e9e9e"
         id="stop38" />
    </linearGradient>
    <path
       style="fill:none;stroke:url(#gradient3);stroke-width:1"
       d="M 29,42 44,26.37 M 23,38 34.75,26.25 M 17,34 28.12,22.62"
       id="path40"
       inkscape:connector-curvature="0" />
  </g>
  <g
     style="color-interpolation:linearRGB"
     id="g7565"
     transform="matrix(0.66573303,0,0,0.66573303,1.0534297,19.147585)">
    <g
       id="g7502">
      <path
         id="path7504"
         d="M 52.42,31.27 31,64 C 48.12,64 62,55.49 62,45 62,39.6 58.32,34.73 52.43,31.27 l -0.01,0 z M 48,28 51,30 62,16 c 1.5,-1.88 2,-4 1,-6 L 48,28 Z"
         style="fill:#000000;fill-opacity:0.32940004"
         inkscape:connector-curvature="0" />
      <path
         id="path7506"
         d="M 54,6 36,22 49,29 61,14 C 62.71,11.73 65,8 62,5 59.25,2.25 56,4 54,6 Z"
         style="fill:#101010"
         inkscape:connector-curvature="0" />
      <linearGradient
         y2="26.57"
         x2="48.470001"
         y1="19.5"
         x1="41.400002"
         gradientUnits="userSpaceOnUse"
         id="gradient0-3">
        <stop
           id="stop7509"
           stop-color="#888888"
           offset="0" />
        <stop
           id="stop7511"
           stop-color="#ffffff"
           offset="0.25" />
        <stop
           id="stop7513"
           stop-color="#888888"
           offset="0.75" />
        <stop
           id="stop7515"
           stop-color="#888888"
           offset="1" />
      </linearGradient>
      <path
         id="path7517"
         d="m 48,27 c 2,-2 2.75,-5 0.75,-7 C 46.75,18 43,18 42,19 l -5,4 11,4 z"
         style="fill:url(#gradient0-3)"
         inkscape:connector-curvature="0" />
      <path
         id="path7519"
         d="M 27,20 C 12.09,20 0,27.61 0,37 L 0,47 C 0,56.38 12.09,64 27.01,64 41.92,64 54,56.38 54,47 L 54,37 C 54,27.61 41.9,20 27,20 l 0,0 z"
         style="fill:#000000"
         inkscape:connector-curvature="0" />
      <linearGradient
         y2="7.8400002"
         x2="130.73"
         y1="-37.060001"
         x1="105.74"
         gradientUnits="userSpaceOnUse"
         id="gradient1-6">
        <stop
           id="stop7522"
           stop-color="#e7e7e7"
           offset="0.3484" />
        <stop
           id="stop7524"
           stop-color="#fdfdfd"
           offset="0" />
        <stop
           id="stop7526"
           stop-color="#ffffff"
           offset="1" />
      </linearGradient>
      <path
         id="path7528"
         d="M 27,22 C 13.19,22 2,28.71 2,37 2,45.28 13.19,52 27.01,52 40.81,52 52,45.28 52.01,37 52,28.71 40.8,22 27,22 l 0,0 z m 0,4 C 38.59,26 48,30.92 48.01,37 48,43.07 38.6,48 27.01,48 15.4,48 6,43.07 6,37 6,30.92 15.39,26 27,26 l 0,0 z"
         style="fill:url(#gradient1-6)"
         inkscape:connector-curvature="0" />
      <radialGradient
         gradientTransform="matrix(0.3125,0,0,0.125,26,40)"
         r="64"
         cy="0"
         cx="0"
         gradientUnits="userSpaceOnUse"
         id="gradient2-7">
        <stop
           id="stop7531"
           stop-color="#ceceff"
           offset="0" />
        <stop
           id="stop7533"
           stop-color="#9898ff"
           offset="1" />
      </radialGradient>
      <path
         id="path7535"
         d="m 27,46 c 9.04,0 16.59,-3 18.52,-7 -1.93,-4.01 -9.48,-7 -18.52,-7 -9.04,0 -16.61,2.99 -18.52,7 1.91,4 9.47,7 18.52,7 l 0,0 z"
         style="fill:url(#gradient2-7)"
         inkscape:connector-curvature="0" />
      <path
         id="path7537"
         d="m 9.11,39.87 c 3.1,-2.97 10.43,-5.25 17.89,-5.25 7.45,0 14.66,2.16 17.77,5.13"
         style="fill:none;stroke:#666698;stroke-width:2"
         inkscape:connector-curvature="0" />
      <linearGradient
         y2="-64"
         x2="64"
         y1="-64"
         x1="-10.5"
         gradientUnits="userSpaceOnUse"
         id="gradient3-5">
        <stop
           id="stop7540"
           stop-color="#6464ba"
           offset="0" />
        <stop
           id="stop7542"
           stop-color="#c7c7e0"
           offset="1" />
      </linearGradient>
      <path
         id="path7544"
         d="m 27,28 c -10.5,0 -19,4.02 -19,9 0,0.68 0.17,1.35 0.48,2 1.91,-4.01 9.47,-7 18.52,-7 9.04,0 16.6,2.99 18.53,7 0.3,-0.65 0.47,-1.32 0.47,-2 0,-4.98 -8.51,-9 -19,-9 l 0,0 z"
         style="fill:url(#gradient3-5)"
         inkscape:connector-curvature="0" />
      <path
         id="path7546"
         d="m 17,36 c 3,1 7,-3 4,-4 -3,-1 -7,3 -4,4 z m 21.12,2.25 c -1.87,2.12 -4.5,3.12 -9.25,3.69 0,0 4.5,0.56 7,-0.32 3.18,-1.11 2.25,-3.37 2.25,-3.37 z"
         style="fill:#ffffff"
         inkscape:connector-curvature="0" />
      <path
         id="path7548"
         d="M 48.12,16 57.5,7"
         style="fill:none;stroke:#787878;stroke-width:3;stroke-linecap:round"
         inkscape:connector-curvature="0" />
      <linearGradient
         y2="-64"
         x2="52"
         y1="-64"
         x1="4"
         gradientUnits="userSpaceOnUse"
         id="gradient4">
        <stop
           id="stop7551"
           stop-color="#d1d1ea"
           offset="0" />
        <stop
           id="stop7553"
           stop-color="#4c4c76"
           offset="0.5909" />
        <stop
           id="stop7555"
           stop-color="#75759b"
           offset="1" />
      </linearGradient>
      <path
         id="path7557"
         d="M 27,52 C 13.19,52 2,45.48 2,37.45 l 0,9.09 C 2,55.08 13.19,62 27,62 40.82,62 52,55.08 52,46.54 l 0,-9.09 C 52,45.48 40.8,52 27,52 l 0,0 z"
         style="fill:url(#gradient4)"
         inkscape:connector-curvature="0" />
    </g>
  </g>
</svg>
