<?xml version="1.0" encoding="UTF-8" standalone="no"?>
<!-- Generator: Adobe Illustrator 9.0, SVG Export Plug-In  -->
<svg
   xmlns:a="http://ns.adobe.com/AdobeSVGViewerExtensions/3.0/"
   xmlns:dc="http://purl.org/dc/elements/1.1/"
   xmlns:cc="http://web.resource.org/cc/"
   xmlns:rdf="http://www.w3.org/1999/02/22-rdf-syntax-ns#"
   xmlns:svg="http://www.w3.org/2000/svg"
   xmlns="http://www.w3.org/2000/svg"
   xmlns:xlink="http://www.w3.org/1999/xlink"
   xmlns:sodipodi="http://sodipodi.sourceforge.net/DTD/sodipodi-0.dtd"
   xmlns:inkscape="http://www.inkscape.org/namespaces/inkscape"
   width="42.5pt"
   height="48pt"
   viewBox="0 0 42.5 48"
   xml:space="preserve"
   id="svg2"
   sodipodi:version="0.32"
   inkscape:version="0.44.1"
   sodipodi:docname="mime-text:x-perl.svg"
   sodipodi:docbase="/home/ihuhnix/.icons/amica/scalable/mimetypes"><metadata
   id="metadata109">
  <rdf:RDF>
    <cc:Work
   rdf:about="">
      <dc:format>image/svg+xml</dc:format>

      <dc:type
   rdf:resource="http://purl.org/dc/dcmitype/StillImage" />

    </cc:Work>

  </rdf:RDF>

</metadata>

<defs
   id="defs107"><linearGradient
   inkscape:collect="always"
   id="linearGradient2122">
  <stop
   style="stop-color:#d2be00;stop-opacity:1;"
   offset="0"
   id="stop2124" />
  <stop
   style="stop-color:#d2be00;stop-opacity:0;"
   offset="1"
   id="stop2126" />
</linearGradient>
<linearGradient
   gradientTransform="matrix(0.187500,0.000000,0.000000,0.187500,2.167665e-6,6.855561e-6)"
   inkscape:collect="always"
   xlink:href="#linearGradient2122"
   id="linearGradient2132"
   x1="11.540104"
   y1="128.96866"
   x2="150.91762"
   y2="128.96866"
   gradientUnits="userSpaceOnUse" />
<linearGradient
   inkscape:collect="always"
   xlink:href="#aigrd5"
   id="linearGradient1408"
   gradientUnits="userSpaceOnUse"
   x1="16.3872"
   y1="28.7354"
   x2="32.0992"
   y2="28.7354" />

<linearGradient
   inkscape:collect="always"
   xlink:href="#XMLID_1_"
   id="linearGradient1513"
   gradientUnits="userSpaceOnUse"
   x1="61.3184"
   y1="35.4429"
   x2="61.3184"
   y2="134.158" />

<radialGradient
   inkscape:collect="always"
   xlink:href="#XMLID_2_"
   id="radialGradient1515"
   gradientUnits="userSpaceOnUse"
   cx="58.7456"
   cy="111.291"
   fx="58.7456"
   fy="111.291"
   r="87.8555" />

<linearGradient
   inkscape:collect="always"
   xlink:href="#XMLID_3_"
   id="linearGradient1517"
   gradientUnits="userSpaceOnUse"
   x1="61.3184"
   y1="10.4624"
   x2="61.3184"
   y2="65.9197" />


		

	
			

			

		
				

				<linearGradient
   y2="134.15800"
   x2="61.318401"
   y1="35.442902"
   x1="61.318401"
   gradientUnits="userSpaceOnUse"
   id="XMLID_1_">
					<stop
   id="stop14"
   style="stop-color:rgb(255,167,0)"
   offset="0" />



					<stop
   id="stop16"
   style="stop-color:rgb(255,255,0)"
   offset="0.691" />



					<stop
   id="stop18"
   style="stop-color:rgb(255,252,0)"
   offset="0.792" />



					<stop
   id="stop20"
   style="stop-color:rgb(255,244,0)"
   offset="0.8546" />



					<stop
   id="stop22"
   style="stop-color:rgb(255,229,0)"
   offset="0.9067" />



					<stop
   id="stop1478"
   style="stop-color:rgb(255,209,0)"
   offset="0.953" />



					<stop
   id="stop1480"
   style="stop-color:rgb(255,183,0)"
   offset="0.9952" />



					<stop
   id="stop28"
   style="stop-color:rgb(255,179,0)"
   offset="1" />



				</linearGradient>



				

				<radialGradient
   gradientUnits="userSpaceOnUse"
   fy="111.29100"
   fx="58.745602"
   r="87.855499"
   cy="111.29100"
   cx="58.745602"
   id="XMLID_2_">
					<stop
   id="stop1486"
   style="stop-color:rgb(255,255,0)"
   offset="0" />



					<stop
   id="stop1488"
   style="stop-color:rgb(255,241,0)"
   offset="0.1643" />



					<stop
   id="stop37"
   style="stop-color:rgb(255,196,0)"
   offset="0.7192" />



					<stop
   id="stop39"
   style="stop-color:rgb(255,179,0)"
   offset="1" />



					<a:midPointStop
   id="midPointStop41"
   style="stop-color:#FFFF00"
   offset="0" />



					<a:midPointStop
   id="midPointStop43"
   style="stop-color:#FFFF00"
   offset="0.4463" />



					<a:midPointStop
   id="midPointStop45"
   style="stop-color:#FFB300"
   offset="1" />



				</radialGradient>



				

				

				<linearGradient
   y2="65.919701"
   x2="61.318401"
   y1="10.462400"
   x1="61.318401"
   gradientUnits="userSpaceOnUse"
   id="XMLID_3_">
					<stop
   id="stop76"
   style="stop-color:rgb(255,255,255)"
   offset="14.9425%" />



					<stop
   id="stop78"
   style="stop-opacity:0;stop-color:rgb(255,255,255)"
   offset="100%" />



				</linearGradient>



				

			<linearGradient
   inkscape:collect="always"
   xlink:href="#XMLID_3_"
   id="linearGradient1619"
   gradientUnits="userSpaceOnUse"
   x1="61.3184"
   y1="10.4624"
   x2="61.3184"
   y2="65.9197"
   gradientTransform="matrix(0.340376,0.000000,0.000000,0.340376,-33.27174,33.89622)" />

<radialGradient
   inkscape:collect="always"
   xlink:href="#XMLID_2_"
   id="radialGradient1635"
   gradientUnits="userSpaceOnUse"
   cx="58.7456"
   cy="111.291"
   fx="58.7456"
   fy="111.291"
   r="87.8555"
   gradientTransform="matrix(0.340376,0.000000,0.000000,0.340376,-31.51068,24.50392)" />

<linearGradient
   inkscape:collect="always"
   xlink:href="#XMLID_1_"
   id="linearGradient1638"
   gradientUnits="userSpaceOnUse"
   x1="61.3184"
   y1="35.4429"
   x2="61.3184"
   y2="134.158"
   gradientTransform="matrix(0.340376,0.000000,0.000000,0.340376,-31.51068,24.50392)" />

</defs>

<sodipodi:namedview
   id="base"
   pagecolor="#ffffff"
   bordercolor="#666666"
   borderopacity="1.0"
   inkscape:pageopacity="0.0"
   inkscape:pageshadow="2"
   inkscape:window-width="948"
   inkscape:window-height="712"
   inkscape:zoom="8.015534"
   inkscape:cx="51.153975"
   inkscape:cy="22.1875"
   inkscape:window-x="144"
   inkscape:window-y="126"
   inkscape:current-layer="svg2" />


	<g
   id="Layer_x0020_1"
   style="fill-rule:nonzero;clip-rule:nonzero;fill:#FFFFFF;stroke:#000000;stroke-miterlimit:4;">
		<path
   style="fill:#000000;stroke:none;"
   d="M8.2,3.6C5.3,3.6,3,5.9,3,8.8v30.8c0,2.9,2.3,5.2,5.2,5.2h27.5c2.9,0,5.2-2.3,5.2-5.2V8.8c0-2.9-2.3-5.2-5.2-5.2H8.2z"
   id="path5" />


		<linearGradient
   id="aigrd1"
   gradientUnits="userSpaceOnUse"
   x1="12.2363"
   y1="7.7627"
   x2="31.5515"
   y2="41.3164">
			<stop
   offset="0"
   style="stop-color:#F0F0F0"
   id="stop8" />


			<stop
   offset="1"
   style="stop-color:#D6D6D6"
   id="stop10" />


		</linearGradient>


		<path
   style="fill:url(#aigrd1);stroke:none;"
   d="M38.3,39.6c0,1.6-1.3,2.8-2.8,2.8H7.9c-1.6,0-2.8-1.3-2.8-2.8V8.8c0-1.6,1.3-2.8,2.8-2.8h27.5c1.6,0,2.8,1.3,2.8,2.8v30.8z"
   id="path12" />


		<g
   id="g14">
			<radialGradient
   id="aigrd2"
   cx="7.9224"
   cy="30.7285"
   r="1.247"
   fx="7.9224"
   fy="30.7285"
   gradientUnits="userSpaceOnUse">
				<stop
   offset="0"
   style="stop-color:#F0F0F0"
   id="stop17" />


				<stop
   offset="1"
   style="stop-color:#474747"
   id="stop19" />


			</radialGradient>


			<path
   style="fill:url(#aigrd2);stroke:none;"
   d="M8.5,30.4c0,0.5-0.4,0.8-0.8,0.8s-0.8-0.4-0.8-0.8s0.4-0.8,0.8-0.8s0.8,0.4,0.8,0.8z"
   id="path21" />


			<radialGradient
   id="aigrd3"
   cx="7.9224"
   cy="18.8711"
   r="1.247"
   fx="7.9224"
   fy="18.8711"
   gradientUnits="userSpaceOnUse">
				<stop
   offset="0"
   style="stop-color:#F0F0F0"
   id="stop24" />


				<stop
   offset="1"
   style="stop-color:#474747"
   id="stop26" />


			</radialGradient>


			<path
   style="fill:url(#aigrd3);stroke:none;"
   d="M8.5,18.5c0,0.5-0.4,0.8-0.8,0.8S6.8,19,6.8,18.5c0-0.5,0.4-0.8,0.8-0.8s0.8,0.4,0.8,0.8z"
   id="path28" />


		</g>


		<path
   style="stroke:none;"
   d="M10.5,42.4h-0.4V6.6h0.4v35.8z"
   id="path30" />


		<linearGradient
   id="aigrd4"
   gradientUnits="userSpaceOnUse"
   x1="10.1172"
   y1="7.5537"
   x2="9.6941"
   y2="41.0821">
			<stop
   offset="0"
   style="stop-color:#EDEDED"
   id="stop33" />


			<stop
   offset="1"
   style="stop-color:#CACACA"
   id="stop35" />


		</linearGradient>


		<path
   style="fill:url(#aigrd4);stroke:none;"
   d="M10.1,42.4H9.7V6.6h0.4v35.8z"
   id="path37" />


		<path
   style="stroke:none;"
   d="M6.4,9.8L5.8,41.4c-0.5-0.5-0.6-1.4-0.6-1.4l0-31.3c0,0,0-0.8,0.7-1.7c0.7-0.9,2-1,2-1l28,0L8.9,7.3C7.8,7.3,7.2,7.8,7,8.1c-0.2,0.2-0.6,1-0.6,1.7z"
   id="path39" />


		<path
   style="fill:#BEBEBE;stroke:none;"
   d="M37.1,38.6L37.7,7c0.5,0.5,0.6,1.4,0.6,1.4l0,31.3c0,0,0,0.8-0.7,1.7c-0.8,0.9-2,1-2,1l-28,0l26.9-1.3c1.1,0,1.7-0.5,1.9-0.8c0.2-0.2,0.6-1,0.6-1.7z"
   id="path41" />


	</g>


	


	














<g
   id="g1399"
   transform="matrix(-0.182733,0,0,0.182733,67.72877,15.00916)"><g
     transform="matrix(0.989055,0,0,0.989055,4.6111,-32.73437)"
     id="g5346"><path
       style="fill:#f9cd98;fill-opacity:1;fill-rule:evenodd;stroke:none;stroke-width:1pt;stroke-linecap:butt;stroke-linejoin:miter;stroke-opacity:0.27419356"
       sodipodi:nodetypes="ccccccccccccccccccc"
       id="path909"
       d="M 25.628157,136.41608 C 35.303002,128.09179 26.995961,120.30785 33.554842,106.75886 C 36.321776,102.47068 38.36798,98.580788 43.035106,92.541291 C 39.848442,81.541506 45.069703,71.698973 53.360038,67.079509 C 51.261694,63.959209 45.87218,52.380824 54.828526,39.581276 C 55.517725,44.556094 60.21885,52.029966 60.940775,50.225375 C 62.384624,46.616195 62.792539,47.228902 67.679545,45.475133 C 78.33213,43.488603 92.896639,46.220398 99.882446,55.448373 C 101.40483,57.179536 105.96951,50.722086 109.68158,49.630119 C 109.26009,55.978583 106.33257,61.078811 107.75143,62.777313 C 110.58914,66.174319 114.27806,72.498722 114.11394,77.750055 C 116.50149,80.234032 116.59989,85.453661 113.34872,87.927351 C 115.05784,93.707901 115.07083,100.04937 115.63413,104.77703 C 115.4319,117.1291 97.800602,119.96776 88.924713,117.69488 C 86.441388,120.5228 84.213779,127.6619 81.530906,134.34488 C 80.419773,139.50823 76.960297,161.76736 67.778501,168.07825 C 65.874427,167.51348 63.159808,165.85515 61.848053,163.62303 C 60.12294,163.04433 58.973974,165.19871 57.721062,167.29907 C 54.287895,157.23989 36.241069,142.92994 25.628157,136.41608 z " /><path
       style="fill:black;fill-opacity:0.09411765;fill-rule:evenodd;stroke:none;stroke-width:1pt;stroke-linecap:butt;stroke-linejoin:miter;stroke-opacity:1"
       id="path928"
       d="M 62.450407,84.897506 C 62.450407,84.897506 74.940489,70.543233 81.09232,68.119785 C 87.244151,65.696336 66.551628,60.103762 59.467701,58.798828 C 52.383775,57.493894 56.298576,84.15183 62.450407,84.897506 z " /><path
       style="fill:black;fill-opacity:0.37647059;fill-rule:evenodd;stroke:none;stroke-width:1pt;stroke-linecap:butt;stroke-linejoin:miter;stroke-opacity:1"
       sodipodi:nodetypes="ccccccc"
       id="path3473"
       d="M 57.434917,68.663541 C 57.434917,68.663541 56.896465,66.689216 58.511822,66.061022 C 60.306664,64.714891 65.242477,67.317411 66.229639,69.650704 C 66.588608,71.535286 66.22964,71.714772 64.793767,72.342966 C 64.704025,73.509612 66.050156,75.304454 64.345057,75.214712 C 60.396406,77.189037 55.550335,72.701934 56.088787,70.458383 C 56.178529,68.753283 57.434918,69.650704 57.434917,68.663541 z " /><path
       style="fill:black;fill-opacity:1;fill-rule:evenodd;stroke:none;stroke-width:1pt;stroke-linecap:butt;stroke-linejoin:miter;stroke-opacity:1"
       sodipodi:nodetypes="ccc"
       id="path915"
       d="M 57.251544,68.884814 C 56.233738,72.701584 63.627825,76.586386 65.393985,71.429327 C 65.222565,67.867009 58.5238,65.035367 57.251544,68.884814 z " /><path
       style="fill:black;fill-opacity:0.50196078;fill-rule:evenodd;stroke:none;stroke-width:1pt;stroke-linecap:butt;stroke-linejoin:miter;stroke-opacity:1"
       sodipodi:nodetypes="cccc"
       id="path916"
       d="M 54.596433,40.56917 C 54.227461,43.520948 51.293112,57.006245 54.600979,55.988439 C 57.908846,54.970634 59.571428,53.732257 60.508591,51.073223 C 58.616967,49.521106 56.275954,44.237539 54.596433,40.56917 z " /><path
       style="fill:black;fill-opacity:0.50196078;fill-rule:evenodd;stroke:none;stroke-width:1pt;stroke-linecap:butt;stroke-linejoin:miter;stroke-opacity:1"
       sodipodi:nodetypes="cccc"
       id="path917"
       d="M 102.27578,57.335679 C 103.99765,55.613809 108.09946,51.263972 109.11726,50.500619 C 109.52011,53.91895 106.65314,61.083445 106.90759,62.610153 C 105.44871,60.888772 102.78468,58.353484 102.27578,57.335679 z " /><path
       style="fill:black;fill-opacity:0.25098039;fill-rule:evenodd;stroke:none;stroke-width:1pt;stroke-linecap:butt;stroke-linejoin:miter;stroke-opacity:1"
       sodipodi:nodetypes="cccc"
       id="path918"
       d="M 79.643258,103.23574 C 79.643258,103.23574 99.111296,113.82293 104.20032,111.78732 C 106.07622,108.60416 104.83394,90.004273 105.34284,87.714211 C 105.85174,85.424149 80.661063,85.169698 79.643258,103.23574 z " /><path
       style="fill:black;fill-opacity:0.25098039;fill-rule:evenodd;stroke:none;stroke-width:1pt;stroke-linecap:butt;stroke-linejoin:miter;stroke-opacity:1"
       sodipodi:nodetypes="ccc"
       id="path919"
       d="M 80.531325,104.4032 C 80.531325,104.4032 106.6151,114.9405 110.17742,112.65044 C 114.24864,113.92269 81.878408,127.74292 80.531325,104.4032 z " /><path
       style="fill:black;fill-opacity:0.25098039;fill-rule:evenodd;stroke:none;stroke-width:1pt;stroke-linecap:butt;stroke-linejoin:miter;stroke-opacity:1"
       sodipodi:nodetypes="ccccc"
       id="path920"
       d="M 105.51744,87.764095 C 105.51744,87.764095 106.86955,107.35684 105.34284,110.15581 C 103.81613,112.95477 107.88735,113.66824 110.68632,112.39599 C 117.84595,112.04177 113.99418,91.022078 112.72193,89.240919 C 111.44967,87.459759 110.60646,86.74629 105.51744,87.764095 z " /><path
       style="fill:black;fill-opacity:0.50196078;fill-rule:evenodd;stroke:none;stroke-width:1pt;stroke-linecap:butt;stroke-linejoin:miter;stroke-opacity:1"
       sodipodi:nodetypes="cccccc"
       id="path923"
       d="M 107.92623,86.940574 C 107.92623,86.940574 114.44262,89.633202 115.72746,84.493858 C 115.91087,82.612713 115.41631,80.597563 114.03152,77.374473 C 114.7123,73.921874 110.37169,69.720353 107.91217,69.433694 C 98.490037,69.433694 80.088115,74.94877 87.368852,80.944672 C 94.64959,86.940574 102.78689,86.084016 107.92623,86.940574 z " /><path
       style="fill:black;fill-opacity:1;fill-rule:evenodd;stroke:none;stroke-width:1pt;stroke-linecap:butt;stroke-linejoin:miter;stroke-opacity:1"
       sodipodi:nodetypes="cccccccc"
       id="path924"
       d="M 58.46875,99.78125 C 58.46875,99.78125 58.340486,105.49554 61.3125,110.09375 C 62.798507,112.39286 65.094492,114.41754 68.53125,115.21875 C 71.968008,116.01996 77.101093,116.00517 83.068147,113.61835 L 82,111.6629 C 76.18939,113.98714 73.11917,114.32494 70.011294,113.6004 C 66.903418,112.87586 64.294486,111.6968 62.943147,109.60605 L 58.46875,99.78125 z " /><path
       style="fill:black;fill-opacity:1;fill-rule:evenodd;stroke:none;stroke-width:1pt;stroke-linecap:butt;stroke-linejoin:miter;stroke-opacity:1"
       sodipodi:nodetypes="cccccccc"
       id="path925"
       d="M 73.910227,100.22955 C 71.979987,100.01719 70.298187,100.34469 68.910227,100.85455 C 66.134307,101.87428 64.535227,103.6983 64.535227,103.6983 L 66.131818,103.85171 C 66.131818,103.85171 66.877234,102.91833 69.347727,102.0108 C 71.81822,101.10327 76.463186,102.44118 80.815341,105.34262 L 80.215909,102.07046 C 77.895061,100.52323 75.840467,100.44191 73.910227,100.22955 z " /><path
       style="fill:#a06a46;fill-opacity:1;fill-rule:evenodd;stroke:none;stroke-width:1pt;stroke-linecap:butt;stroke-linejoin:miter;stroke-opacity:1"
       sodipodi:nodetypes="ccccc"
       id="path927"
       d="M 55.24795,108.35451 C 53.963114,116.92008 52.746342,164.59514 68.164374,168.87793 C 77.878659,157.98668 81.899936,131.43101 88.653688,118.20492 C 86.310631,116.34835 86.597539,116.50705 82.731598,113.86184 C 67.866927,120.35117 59.102459,112.85143 55.24795,108.35451 z " /><path
       style="fill:black;fill-opacity:0.25098039;fill-rule:evenodd;stroke:none;stroke-width:1pt;stroke-linecap:butt;stroke-linejoin:miter;stroke-opacity:1"
       sodipodi:nodetypes="ccccc"
       id="path929"
       d="M 75.686165,52.08774 C 75.686165,52.08774 80.160225,44.948116 83.702188,46.066631 C 96.192269,47.557984 112.0379,67.758544 112.22431,71.102491 C 112.41073,73.33952 108.80921,66.009612 102.47096,68.992317 C 100.97961,71.042928 101.412,50.223548 75.686165,52.08774 z " /><path
       style="fill:black;fill-opacity:1;fill-rule:evenodd;stroke:none;stroke-width:1pt;stroke-linecap:butt;stroke-linejoin:miter;stroke-opacity:1"
       sodipodi:nodetypes="cccccccccc"
       id="path930"
       d="M 91.5,74.0625 C 90.685288,73.99502 89.63954,74.120115 89.22519,74.929664 C 88.782966,76.110666 90.452604,77.305077 90.994661,77.684124 C 94.054998,79.858547 98.972607,81.271965 99.912615,80.500758 C 100.45202,79.198216 97.476737,77.236538 96.360169,76.286467 C 94.769289,74.859963 93.662863,74.389296 91.5,74.0625 z M 94.130538,76.021088 C 95.142458,76.688004 97.048804,78.097994 97.892185,78.966741 C 96.043654,79.048558 92.554943,77.037654 90.632425,75.58008 C 90.610327,75.551127 93.047756,75.278842 94.130538,76.021088 z " /><path
       style="fill:black;fill-opacity:1;fill-rule:evenodd;stroke:none;stroke-width:1pt;stroke-linecap:butt;stroke-linejoin:miter;stroke-opacity:1"
       sodipodi:nodetypes="cccccccc"
       id="path931"
       d="M 102.9375,81.1875 L 101.18488,81.923838 C 101.18488,81.923838 101.6039,83.109045 102.38866,84.298838 C 103.17342,85.488631 104.95007,86.362504 106.96875,86.46875 C 108.69966,86.559849 110.99034,86.996019 110.67253,86.880234 C 110.0369,86.648665 109.40742,86.161743 107.59637,86.066426 C 106.07309,85.421136 104.53499,84.188131 103.875,83.1875 C 103.21501,82.186869 102.9375,81.1875 102.9375,81.1875 z " /><path
       style="fill:black;fill-opacity:1;fill-rule:evenodd;stroke:none;stroke-width:1pt;stroke-linecap:butt;stroke-linejoin:miter;stroke-opacity:1"
       sodipodi:nodetypes="ccccccccc"
       id="path933"
       d="M 50.8125,78.90625 C 50.8125,78.90625 50.500158,84.79452 50.6875,91.28125 C 50.781171,94.524615 50.807518,98.310398 51.268951,101.2121 C 51.730384,104.1138 53.572073,107.72547 54.780245,109.09839 L 55.318147,107.85504 C 54.475709,106.89773 53.134861,103.43821 52.6875,100.625 C 52.240139,97.81179 51.830449,95.260594 51.737701,92.049196 C 51.552205,85.626399 51.862701,74.972769 51.862701,74.972769 L 50.8125,78.90625 z " /><path
       style="fill:black;fill-opacity:1;fill-rule:evenodd;stroke:none;stroke-width:1pt;stroke-linecap:butt;stroke-linejoin:miter;stroke-opacity:1"
       sodipodi:nodetypes="ccccccc"
       id="path932"
       d="M 50.680361,69.456695 C 49.101463,76.793926 47.235076,88.692544 43.189509,100.96875 C 39.143942,113.24496 34.959112,123.59225 30.146204,129.49487 L 29.147102,132.76719 C 34.214408,126.55257 40.436335,113.67487 44.5,101.34375 C 48.563665,89.012629 51.784772,75.651935 53.006028,67.770092 L 50.680361,69.456695 z " /><path
       style="fill:#a06a46;fill-opacity:1;fill-rule:evenodd;stroke:none;stroke-width:1pt;stroke-linecap:butt;stroke-linejoin:miter;stroke-opacity:1"
       sodipodi:nodetypes="cccc"
       id="path934"
       d="M 30.759156,128.706 C 30.759156,128.706 28.771974,104.47538 43.685504,92.730976 C 44.244761,92.358138 35.606053,78.932094 51.824517,68.865461 C 49.960326,82.660477 37.581638,122.36775 30.759156,128.706 z " /><path
       style="fill:black;fill-opacity:1;fill-rule:evenodd;stroke:none;stroke-width:1pt;stroke-linecap:butt;stroke-linejoin:miter;stroke-opacity:1"
       sodipodi:nodetypes="cccccccccccccc"
       id="path2181"
       d="M 102.15625,85.875 C 92.099331,85.032883 82.834057,90.661381 81.111815,96.588745 C 79.395399,98.856971 79.553906,101.69728 79.4375,104.06815 C 86.548554,107.6902 93.752186,110.95933 101.65963,112.47397 C 105.22178,113.73426 106.39833,110.24699 106.15716,107.35446 C 106.63653,100.62439 106.14744,93.837884 106.33546,87.126451 C 105.43674,85.84235 103.55485,86.015294 102.15625,85.875 z M 102.125,87.125 C 106.71349,86.275634 104.59269,91.204626 105.05867,94.004155 C 105.04126,99.493611 105.49499,105.07453 104.38637,110.48649 C 102.17817,112.45154 98.107595,110.13005 95.387306,109.46989 C 90.356617,108.52913 84.393173,105.81621 81.380647,102.75829 C 81.62764,96.524601 85.653377,91.233852 91.365773,89.132295 C 94.767685,87.764061 98.457584,87.06668 102.125,87.125 z " /><path
       style="fill:black;fill-opacity:1;fill-rule:evenodd;stroke:none;stroke-width:1pt;stroke-linecap:butt;stroke-linejoin:miter;stroke-opacity:1"
       sodipodi:nodetypes="cccccccccccccccccc"
       id="path2804"
       d="M 108.78125,86.65625 C 107.62182,86.946648 106.11261,86.511393 105.28722,87.588077 C 104.92753,88.580648 105.29637,89.669807 105.26778,90.702504 C 105.62437,96.643408 105.87599,102.61372 105.37374,108.55414 C 104.81422,109.84167 104.20618,111.60244 105.27684,112.79253 C 106.66155,113.87636 108.88022,114.08449 110.49017,113.68832 C 111.99492,113.28443 114.17716,112.62667 114.9819,111.16683 C 116.3607,108.7263 115.93894,105.55224 115.95832,102.81504 C 115.9481,98.263918 115.08592,93.685397 113.69674,89.345567 C 112.87365,87.516105 110.78358,86.295683 108.78125,86.65625 z M 110.59375,88.03125 C 112.57441,88.734375 113.06404,90.495059 113.36233,92.329939 C 114.40203,97.826267 115.32054,104.42633 113.64731,109.88148 C 112.9735,111.62581 110.86077,111.90422 109.21036,112.25319 C 108.14781,112.54847 106.6733,112.50598 106.04727,111.4497 C 105.71607,110.15651 106.82774,108.97635 106.73134,107.64594 C 107.10242,101.21422 106.79091,94.766779 106.375,88.34375 C 107.76852,88.139846 109.18071,87.786319 110.59375,88.03125 z " /><path
       style="fill:black;fill-opacity:1;fill-rule:evenodd;stroke:none;stroke-width:1pt;stroke-linecap:butt;stroke-linejoin:miter;stroke-opacity:1"
       sodipodi:nodetypes="cccccccccccccc"
       id="path2806"
       d="M 78.632656,103.4877 C 78.74722,107.57206 81.185623,112.12362 84.253059,115.02419 C 87.674185,118.29822 92.707579,119.02505 97.2532,118.65609 C 101.58025,118.26576 105.92159,117.18249 109.72533,115.04156 C 110.87615,114.64699 112.18936,112.66794 110.37316,112.2598 C 109.39009,112.63449 108.16732,112.64626 107.07378,112.46199 C 101.78351,111.65009 96.726656,109.80139 91.675982,108.09029 C 87.7659,106.70165 82.472181,105.06209 78.632656,103.4877 z M 81.5,105.59375 C 88.800045,108.47889 93.285691,112.28054 103.41669,113.78208 C 105.30577,114.1232 107.68743,114.15767 109.59375,113.5625 C 107.00549,115.3816 104.52507,116.23259 101.47444,116.91521 C 97.037317,117.77377 91.495715,117.92503 87.38382,115.76975 C 83.603956,113.84056 81.851494,109.61782 81.5,105.59375 z " /><path
       style="fill:black;fill-opacity:1;fill-rule:evenodd;stroke:none;stroke-width:1pt;stroke-linecap:butt;stroke-linejoin:miter;stroke-opacity:1"
       sodipodi:nodetypes="cccccccccccccccccc"
       id="path2808"
       d="M 107.33503,68.035202 C 100.62945,68.233589 93.852413,70.706677 87.929094,73.917161 C 85.613058,75.048944 82.527178,78.170271 84.627428,80.564682 C 89.003001,85.222057 96.480918,86.463778 102.66355,86.864786 C 105.10765,86.956987 107.50937,87.335317 109.85425,88.002538 C 111.26715,88.327158 112.5567,88.014494 113.35724,88.816666 C 113.90395,86.82672 115.61155,85.190124 115.57608,83.628368 C 115.74979,80.633595 114.08428,78.243272 114.06141,75.284211 C 113.25703,72.258126 110.47399,68.638494 107.33503,68.035202 z M 108.54404,69.991598 C 111.34543,70.845724 112.84461,73.305475 113.11924,76.277221 C 113.12851,78.786838 114.8929,80.91021 114.68636,83.502722 C 114.87166,86.218202 112.35947,87.543758 110.15441,86.824396 C 106.17724,85.48731 101.18189,85.288617 97.133784,84.265106 C 93.262648,83.471027 89.436531,82.366421 86.61371,79.554766 C 84.906731,77.865233 86.734466,75.663599 88.369923,74.817607 C 93.765918,71.639874 99.231944,70.066174 105.41755,69.596684 C 105.80017,69.579298 108.16103,69.993131 108.54404,69.991598 z " /><path
       style="fill:black;fill-opacity:1;fill-rule:evenodd;stroke:none;stroke-width:1pt;stroke-linecap:butt;stroke-linejoin:miter;stroke-opacity:1"
       sodipodi:nodetypes="cccccc"
       id="path2823"
       d="M 78.045831,96.472976 C 78.229171,98.862959 77.802448,101.65234 78.560942,103.93207 C 79.120727,104.68819 80.916157,104.1228 80.158847,103.49115 C 79.109542,99.993237 78.650587,96.099825 78.787374,92.464967 C 78.88594,90.592643 78.983772,88.712034 79.473197,86.560808 C 78.085287,88.726585 77.798557,92.681818 78.045831,96.472976 z " /><path
       style="fill:black;fill-opacity:1;fill-rule:evenodd;stroke:none;stroke-width:1pt;stroke-linecap:butt;stroke-linejoin:miter;stroke-opacity:1"
       sodipodi:nodetypes="ccccccccccccccc"
       id="path2841"
       d="M 53.427454,66.395092 C 47.808689,69.528261 42.112824,76.008046 41.571185,82.719718 C 41.194151,86.202201 41.542193,89.146496 42.728796,92.383037 C 34.320078,99.220636 30.240035,111.0771 30.473357,121.18317 C 30.212135,124.18812 30.197522,127.21223 30.4375,130.21875 C 34.243036,126.0734 36.798772,120.7135 39.046678,115.65833 C 44.471096,101.97681 48.49412,87.859971 51.799894,73.50655 C 52.231546,71.562788 53.1604,68.367345 53.427454,66.395092 z M 52.015176,68.930361 C 49.597846,81.673584 45.637232,95.108857 41.258713,107.29093 C 38.788942,113.7482 35.341067,121.07403 31.654241,126.96272 C 31.496742,116.24406 33.866673,103.92056 41.360266,95.866966 C 42.72361,94.171838 45.978386,93.48079 43.988753,90.900748 C 42.019996,85.834651 42.307827,79.732092 45.791502,75.373664 C 47.236178,73.431128 50.042733,70.321475 52.015176,68.930361 z " /><path
       style="fill:black;fill-opacity:1;fill-rule:evenodd;stroke:none;stroke-width:1pt;stroke-linecap:butt;stroke-linejoin:miter;stroke-opacity:1"
       sodipodi:nodetypes="cccccccccccccccc"
       id="path2844"
       d="M 53.734824,107.15826 C 51.887084,122.28529 53.196326,137.90231 56.327245,152.8358 C 57.79295,158.33729 62.491898,166.68291 67.647961,170.12164 C 69.622509,166.87975 73.19754,164.5047 74.674874,160.48178 C 80.006311,147.24411 82.75447,130.43989 89.280268,117.61087 C 87.283481,116.11087 83.931606,114.56779 82.095149,112.21167 C 73.860391,116.03807 61.214143,114.89762 55.350042,107.7724 C 54.83363,107.21555 54.21443,107.74705 53.734824,107.15826 z M 55.287278,109.72478 C 61.279323,116.86813 72.930091,119.363 82.320146,114.28473 C 84.221166,115.30581 85.212082,117.76814 87.631397,117.74127 C 83.380712,125.05922 80.558086,137.79052 78.663824,145.92674 C 77.093542,152.3835 72.502131,163.82964 67.630943,168.43217 C 65.466283,166.51538 63.71299,165.47809 61.819453,161.61243 C 56.062486,151.48582 55.464052,140.401 54.924524,129.04764 C 54.757651,122.72328 54.377872,116.02418 55.287278,109.72478 z " /><path
       style="fill:black;fill-opacity:1;fill-rule:evenodd;stroke:none;stroke-width:1pt;stroke-linecap:butt;stroke-linejoin:miter;stroke-opacity:1"
       sodipodi:nodetypes="ccccccccccccccccccc"
       id="path3474"
       d="M 60.508016,65.394226 C 58.78332,65.105004 57.128342,66.78434 57.2874,68.679867 C 57.549004,69.657289 56.023831,69.072794 56.167912,70.176913 C 55.740987,71.880119 56.915979,73.257727 58.108173,74.334112 C 59.931825,75.956504 61.804661,76.621639 64.123968,75.541654 C 64.98199,75.410636 65.958646,74.881353 65.622567,73.897167 C 65.323465,73.081425 64.886564,72.188809 65.991579,72.006375 C 66.771105,71.294611 66.710398,69.968746 66.388931,69.066678 C 65.332734,67.009576 65.425127,66.661597 63.295613,65.96142 C 62.970466,65.867638 60.843845,65.436802 60.508016,65.394226 z M 60.53125,66.375 C 62.606542,66.740547 64.577026,67.938941 65.768466,69.683615 C 66.365969,70.661056 65.768689,71.718482 64.657178,71.868244 C 64.065471,72.554758 64.755048,73.776238 64.893672,74.622452 C 63.983701,74.687026 63.105694,75.303486 62.123576,75.091263 C 60.125183,74.875815 58.251313,73.616661 57.264333,71.870962 C 56.713065,71.025291 56.866516,69.755532 57.985152,69.570021 C 58.809008,68.808786 57.703281,67.494718 58.718176,66.824066 C 59.26621,66.474686 59.866383,66.245559 60.53125,66.375 z " /><path
       style="fill:white;fill-opacity:0.78431373;fill-rule:evenodd;stroke:none;stroke-width:1pt;stroke-linecap:butt;stroke-linejoin:miter;stroke-opacity:1"
       sodipodi:nodetypes="ccc"
       id="path4099"
       d="M 58.601565,67.945605 C 59.67847,66.778958 62.909183,67.496895 63.537378,69.47122 C 60.665632,70.548124 57.793886,70.009672 58.601565,67.945605 z " /><path
       style="fill:black;fill-opacity:1;fill-rule:evenodd;stroke:none;stroke-width:1pt;stroke-linecap:butt;stroke-linejoin:miter;stroke-opacity:1"
       sodipodi:nodetypes="ccccccccccccccccccccccccccccccccccccccccc"
       id="path4722"
       d="M 55.5,38.4375 C 49.014189,46.433587 47.413816,58.415031 52.958286,67.375 C 44.265159,72.653335 40.550304,80.506614 42.916573,92.68757 C 36.764039,98.245584 30.435903,108.4801 30.403311,118.44404 C 30.39946,124.68081 31.367456,132.27847 25.5,136.4375 C 26.44223,139.75009 35.056506,142.72173 38.190537,146.40724 C 45.840559,152.866 54.374094,159.55612 57.84375,169.28125 C 59.347313,165.60253 62.235206,163.01087 64.803505,167.45327 C 68.161753,169.96015 67.292043,169.1849 68.440632,168.46795 C 70.541079,165.72037 75.167482,157.57377 76.19194,155.49111 C 79.781132,146.88901 80.86326,137.22913 84.801275,128.77534 C 86.656694,123.52395 88.693567,115.88179 95.533455,118.69593 C 103.7384,118.7747 112.54559,116.54775 114.69308,107.47431 C 115.15092,101.5019 115.03135,95.214346 113.93879,89.339878 C 118.03915,82.741912 114.71048,74.670192 111.82305,67.729633 C 105.93932,62.843841 110.49589,55.166856 110.24521,49.108727 C 103.76419,51.916377 102.10992,53.855857 100.65625,55.118299 C 92.792758,45.379341 78.427026,43.178789 66.673077,45.831331 C 60.406627,46.260234 60.959489,52.757564 58.195322,46.760089 C 56.772948,44.179539 55.773811,41.380749 55.5,38.4375 z M 54.621171,40.704392 C 55.119515,43.113245 58.682232,49.473006 60.339055,51.083379 C 61.361305,50.345835 62.191006,49.23745 64.267069,47.87848 C 74.641724,44.077717 87.093801,46.074791 95.970112,52.599565 C 97.736063,54.267558 99.395407,54.961447 101.45009,56.633213 C 103.63169,55.06866 105.38369,51.689868 108.92138,50.415991 C 110.10858,51.731548 105.07881,62.527196 107.53125,63.624043 C 111.82987,67.974493 112.8708,74.365526 114.63337,79.619652 C 117.75119,85.096096 110.20045,88.423803 114.15436,94.023739 C 114.39101,100.09078 117.28122,107.37681 112.4375,112.40625 C 106.34843,118.22717 96.908708,119.24326 88.96875,117.5 C 85.044738,122.51323 83.722479,128.99622 81.1875,134.71875 C 78.715237,145.99079 76.045921,159.97325 67.707602,168.61518 C 66.192464,168.33742 63.220458,164.71941 61.803935,163.2785 C 60.514326,162.53563 59.511057,162.70073 58.0625,166.5625 C 51.99485,154.59787 40.594733,146.4852 29.964533,138.83527 C 23.566177,136.47549 33.698719,131.15932 31.641564,125.70446 C 31.204087,118.02073 31.178986,108.50828 36.12207,102.25325 C 39.02937,96.660218 45.622682,94.400494 42.549926,87.574839 C 41.971226,78.624999 46.744739,70.982656 54.53125,67.8125 C 49.200395,60.06486 49.452651,48.399528 54.621171,40.704392 z " /></g><path
     style="fill:black;fill-opacity:1;fill-rule:evenodd;stroke:none;stroke-width:1pt;stroke-linecap:butt;stroke-linejoin:miter;stroke-opacity:1"
     sodipodi:nodetypes="ccccccccccccccc"
     id="path955"
     d="M 67.299106,87.040178 C 67.299108,91.803548 67.116891,95.540367 68.25,98.96875 C 69.37854,102.38331 70.545539,105.47147 73.660716,107.79018 C 75.097432,109.09421 76.636914,111.12965 76.6875,113.75 C 76.738438,116.3886 76.168291,119.39693 75.375,122.25 C 73.788417,127.95613 71.214286,134.3616 71.214286,134.3616 L 71.303574,134.40625 C 71.303574,134.40625 74.968243,128.43987 76.59375,122.59375 C 77.406503,119.67069 77.992223,116.55338 77.9375,113.71875 C 77.882777,110.88412 77.18038,108.27505 75.25,106.59375 L 75.21875,106.59375 L 75.21875,106.5625 C 72.270023,104.37826 70.502137,101.81496 69.4375,98.59375 C 68.372863,95.372539 68.031252,91.485096 68.03125,86.78125 L 67.299106,87.040178 z " /><path
     style="fill:black;fill-opacity:1;fill-rule:evenodd;stroke:none;stroke-width:1pt;stroke-linecap:butt;stroke-linejoin:miter;stroke-opacity:1"
     sodipodi:nodetypes="ccccccccc"
     id="path956"
     d="M 61.375,99.28125 L 60.861606,99.839286 C 61.436088,100.73293 62.091576,102.18697 63.53125,104.09375 C 64.970924,106.00053 66.638053,108.45679 68.09375,111.4375 C 71.005145,117.39893 73.456154,123.51639 71.013392,133.62054 L 71.325894,134.29018 C 73.842148,123.88203 72.224363,117.02935 69.21875,110.875 C 67.715943,107.79783 66.000771,105.29006 64.53125,103.34375 C 63.061729,101.39744 61.814862,99.96548 61.375,99.28125 z " /><path
     style="fill:black;fill-opacity:1;fill-rule:evenodd;stroke:none;stroke-width:1pt;stroke-linecap:butt;stroke-linejoin:miter;stroke-opacity:1"
     sodipodi:nodetypes="ccccccccc"
     id="path958"
     d="M 85.584822,83.285714 L 85.24107,83.089286 C 85.24107,83.089286 84.628397,84.334155 84.1875,86.59375 C 83.746603,88.853345 82.94876,92.330395 80.941964,96.566964 C 76.738505,105.44093 80.91964,117.89286 80.91964,117.89286 L 81.102678,117.83928 C 81.102678,117.83928 78.026212,105.22592 81.9375,96.96875 C 83.988081,92.639745 84.458901,89.075592 84.919644,86.714286 C 85.380387,84.35298 85.584822,83.285714 85.584822,83.285714 z " /><path
     style="fill:black;fill-opacity:1;fill-rule:evenodd;stroke:none;stroke-width:1pt;stroke-linecap:butt;stroke-linejoin:miter;stroke-opacity:1"
     sodipodi:nodetypes="cccc"
     id="path962"
     d="M 36.299108,81.205358 C 37.766369,83.055058 39.492559,83.092262 41.089284,84.035714 L 41.906248,82.84375 C 40.037201,82.297619 39.33333,81.363097 36.299108,81.205358 z " /><path
     style="fill:black;fill-opacity:1;fill-rule:evenodd;stroke:none;stroke-width:1pt;stroke-linecap:butt;stroke-linejoin:miter;stroke-opacity:1"
     sodipodi:nodetypes="cccc"
     id="path963"
     d="M 38.40625,74.34375 C 40.602677,75.983629 42.281248,76.328869 44.218748,77.321428 L 45.102676,75.580358 C 42.870534,75.168155 41.674103,74.497025 38.40625,74.34375 z " /><path
     style="fill:black;fill-opacity:1;fill-rule:evenodd;stroke:none;stroke-width:1pt;stroke-linecap:butt;stroke-linejoin:miter;stroke-opacity:1"
     sodipodi:nodetypes="cccc"
     id="path964"
     d="M 41.625,67.4375 C 42.926338,69.074132 45.540396,71.071752 46.649429,71.754901 C 46.214276,71.465449 47.378851,70.113347 46.898688,69.846748 C 45.75671,69.15348 43.944057,67.851813 41.625,67.4375 z " /><path
     style="fill:black;fill-opacity:1;fill-rule:evenodd;stroke:none;stroke-width:1pt;stroke-linecap:butt;stroke-linejoin:miter;stroke-opacity:1"
     sodipodi:nodetypes="cccc"
     id="path965"
     d="M 43.879466,62.892858 C 45.044642,64.705353 48.024552,66.441405 48.477676,66.651784 L 48.28125,64.9375 C 48.28125,64.9375 47.633921,63.540178 43.879466,62.892858 z " /><path
     style="fill:black;fill-opacity:1;fill-rule:evenodd;stroke:none;stroke-width:1pt;stroke-linecap:butt;stroke-linejoin:miter;stroke-opacity:1"
     sodipodi:nodetypes="cccc"
     id="path966"
     d="M 52.55357,51.294644 C 50.562499,51.811012 50.383924,51.162204 46.580358,52.843748 C 48.625,53.563985 50.410714,52.989583 52.325892,53.0625 L 52.55357,51.294644 z " /><path
     style="fill:black;fill-opacity:1;fill-rule:evenodd;stroke:none;stroke-width:1pt;stroke-linecap:butt;stroke-linejoin:miter;stroke-opacity:1"
     sodipodi:nodetypes="cccc"
     id="path967"
     d="M 47.214286,45.776786 C 47.732142,46.941962 52.974573,49.478602 53.066964,49.508928 C 53.066964,49.508928 53.281648,48.062541 53.28125,48.0625 C 53.207123,48.03795 50.644149,45.905908 47.214286,45.776786 z " /><path
     style="fill:black;fill-opacity:1;fill-rule:evenodd;stroke:none;stroke-width:1pt;stroke-linecap:butt;stroke-linejoin:miter;stroke-opacity:1"
     sodipodi:nodetypes="cccc"
     id="path968"
     d="M 49.651788,41.03125 C 49.651788,41.03125 52.12333,44.589843 54.308034,45.415176 L 54.428572,43.629464 C 54.428572,43.629464 53.665172,42.71428 49.651788,41.03125 z " /><path
     style="fill:black;fill-opacity:1;fill-rule:evenodd;stroke:none;stroke-width:1pt;stroke-linecap:butt;stroke-linejoin:miter;stroke-opacity:1"
     sodipodi:nodetypes="cccc"
     id="path969"
     d="M 54.806951,40.880409 C 55.34527,41.098002 56.006865,39.562983 55.51603,39.745198 C 55.078843,40.009675 52.932399,38.305808 52.631298,38.019928 C 52.428942,37.872038 53.969351,40.778044 54.806951,40.880409 z " /></g><path
   id="path1881"
   d="M 17.089281,39.660445 C 16.535379,39.255421 16.760363,38.877079 17.631112,38.74928 C 18.078435,38.683626 18.306538,38.754545 18.306538,38.959273 C 18.306538,39.129291 18.217529,39.268398 18.108737,39.268398 C 17.999947,39.268398 17.910938,39.37521 17.910938,39.505758 C 17.910938,39.636306 18.189395,39.743118 18.529732,39.743118 C 18.969876,39.743118 19.110779,39.644754 19.017787,39.402414 C 18.945878,39.215025 19.014558,39.017008 19.170412,38.962372 C 19.367909,38.893137 19.327905,38.720992 19.038396,38.394288 C 18.466003,37.748354 18.513613,37.497476 19.097737,38.081599 C 19.665527,38.64939 19.721295,39.635214 19.197003,39.836403 C 18.56025,40.080748 17.548579,39.996293 17.089281,39.660445 z M 17.673578,39.531153 C 17.673578,39.414571 17.498252,39.251909 17.283966,39.16968 C 16.958195,39.04467 16.943512,39.079403 17.194349,39.381645 C 17.536178,39.793521 17.673578,39.836388 17.673578,39.531153 z M 33.668818,38.836627 C 33.734902,38.729701 33.4728,38.688621 33.086365,38.745338 C 32.515069,38.829185 32.41126,38.7768 32.530897,38.465028 C 32.611822,38.254143 32.876877,38.081599 33.119907,38.081599 C 33.415168,38.081599 33.51645,37.963465 33.425159,37.72556 C 33.350013,37.529738 33.406773,37.36952 33.551287,37.36952 C 33.695804,37.36952 33.814042,37.529738 33.814042,37.72556 C 33.814042,37.921382 34.000963,38.083235 34.229422,38.085234 C 34.557942,38.088107 34.576399,38.132193 34.317691,38.296056 C 34.137782,38.41001 34.063977,38.621996 34.15368,38.767142 C 34.24768,38.919232 34.154065,39.031038 33.932722,39.031038 C 33.721491,39.031038 33.602735,38.943552 33.668818,38.836627 z M 24.244097,37.689567 C 23.675075,37.120541 24.957525,36.525661 25.86343,36.938417 C 26.189282,37.086886 26.455889,37.301784 26.455889,37.415971 C 26.455889,37.530158 26.249287,37.513011 25.996774,37.377871 C 25.333432,37.022861 25.034335,37.074446 25.012991,37.54754 C 24.999927,37.837148 24.955292,37.864951 24.865579,37.639363 C 24.774979,37.411543 24.687936,37.395041 24.571405,37.58359 C 24.48038,37.730872 24.333093,37.778559 24.244097,37.689567 z M 27.702028,37.687041 C 27.538844,37.621195 27.405328,37.382684 27.405328,37.157019 C 27.405328,36.931352 27.084893,36.509808 26.693249,36.220252 C 26.301605,35.930697 25.98117,35.797495 25.98117,35.924249 C 25.98117,36.050999 26.087982,36.220718 26.218529,36.301401 C 26.349078,36.382085 26.455889,36.561685 26.455889,36.700512 C 26.455889,36.856453 26.315776,36.836645 26.089297,36.648682 C 25.849996,36.450078 25.769915,36.129491 25.858669,35.725398 C 25.971735,35.210612 25.786554,34.89718 24.759111,33.864341 C 24.079576,33.181232 23.442873,32.622325 23.344217,32.622325 C 22.769106,32.622325 22.713879,30.415693 23.262522,29.358184 C 23.467672,28.962753 23.503927,28.669849 23.358817,28.580166 C 23.215513,28.4916 23.270294,28.147277 23.501389,27.684036 C 23.94204,26.800727 23.799869,26.450972 23.000164,26.450972 C 22.681499,26.450972 22.420774,26.337856 22.420774,26.199603 C 22.420774,26.061351 22.303902,26.020465 22.161061,26.108746 C 22.01822,26.197027 21.949384,26.520534 22.008092,26.827651 C 22.066801,27.134768 22.023454,27.329567 21.911765,27.26054 C 21.744137,27.156939 21.579571,28.481504 21.680586,29.121269 C 21.696046,29.219179 21.601882,29.299289 21.471334,29.299289 C 21.340787,29.299289 21.233975,29.566318 21.233975,29.892688 C 21.233975,30.219058 21.131139,30.486088 21.005449,30.486088 C 20.875393,30.486088 20.824773,30.974356 20.88797,31.619245 C 20.965295,32.40827 20.850587,33.147138 20.510262,34.052182 C 20.142753,35.029521 20.055236,35.147711 20.157472,34.52862 C 20.388503,33.129591 19.896217,34.064124 19.60393,35.579436 C 19.453893,36.357285 19.209493,37.104969 19.06082,37.240954 C 18.862886,37.421998 18.836033,37.361091 18.960536,37.01348 C 19.3587,35.901789 19.547099,34.205885 19.427287,32.811901 C 19.356613,31.989621 19.275512,30.15534 19.247059,28.735721 C 19.199341,26.354656 19.152664,26.120045 18.644864,25.708853 C 18.118084,25.282294 18.111327,25.237272 18.487815,24.662679 C 18.704194,24.332441 18.983353,24.12536 19.108164,24.202499 C 19.232977,24.279637 19.336732,24.09612 19.33873,23.794683 C 19.341448,23.385072 19.395359,23.330307 19.552136,23.577902 C 19.667509,23.76011 19.926001,23.846219 20.126565,23.769256 C 20.327127,23.692292 20.532811,23.754083 20.58364,23.906566 C 20.634468,24.05905 20.738218,23.946091 20.814199,23.655545 C 20.899525,23.329258 20.86033,23.184146 20.71169,23.276012 C 20.561409,23.36889 20.530589,23.237109 20.629622,22.92509 C 20.716841,22.650279 20.674306,22.236359 20.5351,22.005265 C 20.320056,21.648281 20.296657,21.677683 20.379508,22.200789 C 20.433142,22.539421 20.371946,22.966668 20.243518,23.150229 C 20.072994,23.393955 20.038156,23.307915 20.114358,22.831235 C 20.171749,22.472228 20.126705,22.178495 20.014261,22.178495 C 19.901816,22.178495 19.836519,22.058332 19.869156,21.911466 C 19.901793,21.764599 19.780113,21.590525 19.598756,21.524634 C 19.398445,21.451854 19.333408,21.509016 19.433064,21.670264 C 19.537372,21.839037 19.463461,21.884412 19.230108,21.794866 C 19.028255,21.717407 18.918243,21.564817 18.985635,21.455774 C 19.053025,21.346732 18.964336,21.123157 18.788542,20.958942 C 18.520863,20.708893 18.524719,20.548516 18.812269,19.972111 C 19.00111,19.593568 19.176647,19.000543 19.202353,18.654276 C 19.258892,17.892639 19.979873,16.639593 20.532688,16.342183 C 22.398673,15.338303 22.914807,14.989347 23.347775,14.438915 C 23.621211,14.091298 23.844932,13.554258 23.844932,13.245495 C 23.844932,12.850488 23.979762,12.684105 24.299854,12.684105 C 24.550062,12.684105 24.950606,12.424886 25.189952,12.108062 C 25.429301,11.791238 25.89216,11.497505 26.218529,11.455323 C 26.5449,11.41314 26.929999,11.227757 27.074304,11.04336 C 27.218612,10.858965 27.485641,10.765256 27.667704,10.83512 C 27.849768,10.904985 28.093304,10.949043 28.208898,10.933026 C 28.32449,10.91701 28.527682,11.170936 28.660432,11.497307 C 28.865675,12.001902 28.917244,12.025989 29.005013,11.658257 C 29.104867,11.239898 29.118909,11.239898 29.436029,11.658257 C 29.865214,12.224458 29.864758,12.530472 29.434975,12.365549 C 29.202783,12.276448 29.134791,12.34762 29.225724,12.584587 C 29.312419,12.810514 29.540735,12.886757 29.866374,12.798525 C 30.323242,12.674737 30.330823,12.687383 29.944518,12.92888 C 29.659793,13.106876 29.421635,13.117797 29.232438,12.961532 C 29.042767,12.804874 28.654829,12.827836 28.066694,13.030528 C 27.581882,13.19761 27.135168,13.284264 27.073996,13.223092 C 27.012823,13.161919 27.021399,13.336058 27.093055,13.610066 C 27.16471,13.884075 27.329117,14.108264 27.458407,14.108264 C 27.587696,14.108264 27.629868,13.942499 27.552121,13.739896 C 27.471065,13.528664 27.510857,13.433388 27.645406,13.516545 C 27.774459,13.596304 27.880048,13.542141 27.880048,13.396184 C 27.880048,13.250228 27.998263,13.203869 28.142748,13.293167 C 28.325879,13.406347 28.307905,13.517332 28.083409,13.65958 C 27.835816,13.816463 27.831679,13.864475 28.065516,13.867269 C 28.232801,13.869268 28.424717,13.727445 28.492001,13.552107 C 28.591949,13.291645 29.517752,13.211239 30.44862,13.382174 C 30.49058,13.38988 30.345948,13.575152 30.127209,13.793889 C 29.837558,14.083539 29.623363,14.12778 29.338838,13.95672 C 28.921452,13.705787 27.744579,14.131035 28.039694,14.42615 C 28.125953,14.512409 28.005428,14.582984 27.771864,14.582984 C 27.422914,14.582984 27.399437,14.645922 27.64018,14.936 C 27.801319,15.130159 27.866538,15.462625 27.785114,15.674812 C 27.660901,15.998505 27.576505,16.010342 27.260828,15.748352 C 26.920592,15.465983 26.92654,15.420608 27.322977,15.27423 C 27.582192,15.178519 27.349615,15.125444 26.753933,15.144372 C 26.199843,15.161978 25.745892,15.256492 25.745154,15.354403 C 25.744415,15.452314 25.878333,15.532422 26.042753,15.532422 C 26.207172,15.532422 26.478673,15.751755 26.646089,16.019828 C 26.894175,16.417079 26.893759,16.499686 26.643843,16.466425 C 25.948378,16.373867 25.525653,16.499512 25.593677,16.778561 C 25.633459,16.941746 25.621204,16.995152 25.566447,16.897241 C 25.511691,16.79933 25.311815,16.719221 25.122279,16.719221 C 24.851221,16.719221 24.831895,16.617899 25.031731,16.244502 C 25.171464,15.983406 25.224871,15.769782 25.15041,15.769782 C 25.075951,15.769782 25.13878,15.529455 25.290033,15.235722 L 25.565036,14.701663 L 25.051776,15.235722 C 24.523285,15.785634 23.844932,15.952405 23.844932,15.532422 C 23.844932,15.401874 23.633343,15.295062 23.374734,15.295062 C 22.78823,15.295062 22.426021,16.429072 22.915832,16.731792 C 23.092905,16.841229 23.151575,17.016686 23.046207,17.121694 C 22.940838,17.226704 22.648311,17.058128 22.396145,16.747082 L 21.937659,16.181544 L 21.447172,16.747082 C 21.177402,17.058128 20.867755,17.31262 20.759067,17.31262 C 20.65038,17.31262 20.472446,17.409854 20.363654,17.528695 C 20.248735,17.654234 20.290173,17.673227 20.462555,17.574027 C 20.825538,17.36514 20.862974,17.813901 20.501216,18.03748 C 20.359297,18.125192 20.294863,18.394598 20.358034,18.63616 C 20.421202,18.877723 20.333833,19.19077 20.163876,19.331822 C 19.814357,19.621898 19.835019,19.884564 20.279862,20.806234 C 20.61893,21.508754 20.996615,21.474026 20.996615,20.740329 C 20.996615,20.486938 21.147932,20.279618 21.332876,20.279618 C 21.517817,20.279618 21.72301,20.146102 21.788855,19.982918 C 21.861826,19.802077 21.915893,19.844765 21.927314,20.09224 C 21.937621,20.315552 21.795819,20.635987 21.6122,20.804318 C 21.325728,21.066938 21.329097,21.167285 21.635936,21.511334 C 21.83261,21.731861 21.993526,22.292921 21.993526,22.758135 C 21.993526,23.223348 22.089656,23.663389 22.207149,23.736004 C 22.324642,23.808618 22.420774,24.063923 22.420774,24.303347 C 22.420774,24.752055 23.018614,25.125433 23.379724,24.902255 C 23.49194,24.832902 23.704579,25.00192 23.852255,25.277853 C 23.999928,25.553787 24.180727,25.719578 24.254027,25.646278 C 24.327325,25.572977 24.245705,25.323503 24.072643,25.091889 C 23.899582,24.860276 24.030823,24.937803 24.36429,25.264172 C 24.697756,25.590543 24.924639,25.937681 24.868472,26.035592 C 24.812309,26.133503 24.853395,26.213612 24.95978,26.213612 C 25.203333,26.213612 25.785258,27.504222 25.729334,27.920355 C 25.706359,28.091302 25.7094,28.444793 25.736089,28.70589 C 25.772875,29.065775 25.835331,29.010744 25.994275,28.478396 C 26.140838,27.987518 26.104772,27.577402 25.874441,27.115689 C 25.693217,26.752419 25.633454,26.400494 25.741636,26.333635 C 26.03417,26.15284 26.711245,26.467185 26.559198,26.713203 C 26.486969,26.830071 26.548186,26.925691 26.695236,26.925691 C 26.999239,26.925691 26.75882,27.944521 26.424513,28.07293 C 26.311223,28.116446 26.218529,28.462679 26.218529,28.842337 C 26.218529,29.275563 26.041744,29.64303 25.743811,29.829093 C 25.482714,29.99215 25.260658,30.340194 25.250351,30.602524 C 25.240045,30.864854 25.177738,30.945972 25.111892,30.782787 C 24.914463,30.293505 24.491764,30.448304 24.625787,30.960807 C 24.694063,31.221903 24.653116,31.435526 24.53479,31.435526 C 24.416463,31.435526 24.319652,31.247596 24.319652,31.017903 C 24.319652,30.78821 24.094851,30.459889 23.820095,30.288301 C 23.545337,30.116712 23.378072,30.069416 23.448391,30.183198 C 23.518714,30.296979 23.484285,30.538876 23.371884,30.720744 C 23.134443,31.104932 23.531088,31.974925 24.355097,32.877306 C 24.661972,33.213366 25.369202,33.987751 25.926719,34.598165 C 26.484235,35.208575 27.104708,35.708002 27.305545,35.708002 C 27.506382,35.708002 27.604692,35.814814 27.524008,35.945362 C 27.443325,36.075909 27.455447,36.309146 27.550946,36.463665 C 27.670308,36.656798 27.780756,36.601158 27.904311,36.285645 C 28.071533,35.858623 28.085203,35.862876 28.100724,36.346732 C 28.1099,36.63276 28.224219,36.932797 28.354768,37.01348 C 28.485315,37.094164 28.592128,37.314091 28.592128,37.502209 C 28.592128,37.844021 28.261311,37.912716 27.702028,37.687041 z M 20.521895,31.791566 C 20.521895,30.833529 20.423538,30.248728 20.262407,30.248728 C 20.100574,30.248728 20.043307,30.598406 20.110243,31.177868 C 20.193231,31.896307 20.143812,32.078706 19.89232,31.982199 C 19.662591,31.894044 19.609403,31.987141 19.711215,32.299198 C 19.790493,32.542192 19.895163,32.87452 19.943817,33.037705 C 19.992469,33.20089 20.142441,33.334405 20.277085,33.334405 C 20.420149,33.334405 20.521895,32.693184 20.521895,31.791566 z M 25.080781,28.778675 C 24.928582,28.626476 24.784874,28.647907 24.665808,28.840561 C 24.548395,29.03054 24.581052,29.075088 24.757697,28.965915 C 24.932579,28.857832 25.041693,28.994855 25.059265,29.34462 C 25.081408,29.785358 25.109008,29.806406 25.200204,29.452096 C 25.262578,29.20977 25.208837,28.906731 25.080781,28.778675 z M 21.471334,26.716002 C 21.471334,26.444219 20.308775,26.219726 20.158712,26.462531 C 20.09574,26.56442 20.178398,26.701882 20.342397,26.767999 C 20.838614,26.968055 21.471334,26.938913 21.471334,26.716002 z M 24.405488,26.332291 C 24.256628,25.944369 23.844932,25.842678 23.844932,26.193832 C 23.844932,26.373988 24.011284,26.496635 24.490221,26.669592 C 24.518761,26.679899 24.480631,26.528113 24.405488,26.332291 z M 20.355431,24.869195 C 20.245378,24.582406 20.289971,24.527436 20.518233,24.66851 C 20.735277,24.80265 20.776212,24.77156 20.650459,24.568086 C 20.529031,24.371609 20.389195,24.35249 20.230956,24.51073 C 20.100406,24.641278 20.06536,24.864208 20.153074,25.006132 C 20.396812,25.400506 20.525814,25.313209 20.355431,24.869195 z M 26.263035,14.658199 C 26.09169,14.589633 25.886967,14.598065 25.808095,14.676938 C 25.729222,14.755811 25.869414,14.811911 26.119629,14.801604 C 26.396141,14.790215 26.452383,14.73397 26.263035,14.658199 z M 25.269091,13.856896 C 25.269091,13.718643 25.162279,13.671541 25.031731,13.752224 C 24.901183,13.832907 24.794371,13.946023 24.794371,14.003592 C 24.794371,14.061162 24.901183,14.108264 25.031731,14.108264 C 25.162279,14.108264 25.269091,13.995148 25.269091,13.856896 z M 26.361935,12.98575 C 26.283061,12.906878 26.226963,13.047068 26.237269,13.297284 C 26.248657,13.573795 26.304903,13.630039 26.380673,13.440689 C 26.449241,13.269345 26.440808,13.064623 26.361935,12.98575 z M 25.98117,12.698113 C 25.98117,12.367353 25.544822,12.157654 25.24375,12.343727 C 25.06062,12.456909 25.078592,12.567892 25.30309,12.710141 C 25.726798,12.978616 25.98117,12.974104 25.98117,12.698113 z M 28.020982,12.410738 C 28.252506,12.036122 27.388882,11.418808 27.073915,11.733777 C 26.942878,11.864814 26.643404,11.972026 26.408418,11.972026 C 25.920914,11.972026 25.832633,12.34725 26.27787,12.526907 C 26.835935,12.752091 27.851859,12.684385 28.020982,12.410738 z M 33.291592,36.420081 C 33.353094,36.224259 33.486695,35.6902 33.588482,35.233282 C 33.765414,34.439041 33.772519,34.451509 33.750114,35.516993 C 33.737225,36.129954 33.648647,36.583237 33.553274,36.524293 C 33.4579,36.465351 33.334846,36.497897 33.279819,36.596622 C 33.22479,36.695347 33.230087,36.615903 33.291592,36.420081 z M 26.930609,34.170901 C 26.930609,34.108781 27.143834,33.708237 27.404441,33.280802 C 27.961989,32.366339 28.039883,32.574169 27.517913,33.583552 C 27.192283,34.213247 26.930609,34.474944 26.930609,34.170901 z M 33.705428,33.276427 C 33.511714,32.812807 33.368789,31.841865 33.387812,31.118779 C 33.40773,30.361761 33.295778,29.651502 33.123893,29.444393 C 32.953188,29.238707 32.891247,28.851178 32.979222,28.53926 C 33.085646,28.161922 33.064256,28.093065 32.909822,28.315851 C 32.658432,28.678501 32.524103,28.518443 32.30315,27.592977 C 32.219324,27.241877 32.259692,26.887474 32.392884,26.805157 C 32.52604,26.722862 32.563334,26.539595 32.47576,26.397896 C 32.377,26.238099 32.427902,26.209092 32.609803,26.321513 C 32.788176,26.431754 32.844983,26.73419 32.754803,27.093497 C 32.648468,27.517173 32.693371,27.655287 32.913589,27.581882 C 33.082469,27.525589 33.220643,27.169045 33.220643,26.789563 C 33.220643,26.214174 33.106271,26.079498 32.531922,25.978583 C 32.028321,25.890099 31.819529,25.701947 31.755133,25.278586 C 31.63041,24.458574 31.452313,24.36369 31.06049,24.908506 C 30.872865,25.169397 30.587378,25.54307 30.42608,25.738892 C 30.26478,25.934714 30.138255,26.388664 30.144915,26.747671 C 30.151574,27.106678 30.071951,27.400411 29.967976,27.400411 C 29.863998,27.400411 29.771419,28.014579 29.762242,28.765229 C 29.744613,30.207526 29.354078,31.700201 29.32089,30.452142 C 29.311714,30.107103 29.156937,29.768285 28.97694,29.699214 C 28.681123,29.585698 28.437027,30.364449 28.302499,31.850906 C 28.28773,32.014091 28.213341,32.147686 28.137187,32.147783 C 28.061035,32.14788 27.994932,31.4269 27.990294,30.545604 C 27.977871,28.184681 27.815194,26.368836 27.588497,26.060577 C 27.464979,25.892623 27.505155,25.798015 27.693701,25.81283 C 29.500506,25.954797 31.392541,24.430658 32.067478,22.289512 C 32.466149,21.024777 32.503512,20.981836 32.668492,21.598723 C 32.765247,21.960501 32.779044,22.362265 32.699152,22.491533 C 32.617758,22.623231 32.674376,22.652103 32.827928,22.557202 C 33.005125,22.447689 33.100678,22.581515 33.098329,22.935906 C 33.095597,23.34772 33.042266,23.401166 32.883812,23.150889 C 32.73177,22.910739 32.683116,22.987166 32.709427,23.424812 C 32.7295,23.758667 32.826033,23.98236 32.923943,23.921909 C 33.021854,23.861457 33.101963,24.298955 33.101963,24.894125 C 33.101963,26.202594 33.72727,26.453742 33.875561,25.204833 C 33.925939,24.780552 33.975155,25.040053 33.984929,25.781502 C 33.994706,26.52295 34.090402,27.270633 34.197587,27.443019 C 34.304772,27.615406 34.407436,28.824569 34.425733,30.130048 C 34.444028,31.435526 34.414002,32.322645 34.359008,32.101422 C 34.301365,31.869542 34.116375,31.753937 33.922198,31.828449 C 33.667821,31.926062 33.645327,32.069717 33.830299,32.41534 C 33.965005,32.667042 34.169994,32.814407 34.285831,32.742817 C 34.487125,32.618409 34.36857,33.808436 34.158765,34.01824 C 34.103142,34.073862 33.89914,33.740048 33.705428,33.276427 z M 28.735533,28.651494 C 28.494252,28.410214 28.295171,28.773471 28.493136,29.093786 C 28.64268,29.335755 28.698591,29.335942 28.778989,29.094743 C 28.833962,28.929829 28.814405,28.730367 28.735533,28.651494 z M 34.047767,28.25095 C 34.045769,27.978975 33.93196,27.596233 33.794858,27.400411 C 33.602643,27.125867 33.582129,27.173419 33.705243,27.608155 C 33.813838,27.991628 33.780854,28.119996 33.602111,28.009527 C 33.445327,27.912629 33.339322,28.028302 33.339322,28.296282 C 33.339322,28.543324 33.499541,28.745449 33.695363,28.745449 C 33.899071,28.745449 34.049847,28.53388 34.047767,28.25095 z M 29.447612,27.702055 C 29.368738,27.623183 29.31264,27.763373 29.322946,28.01359 C 29.334334,28.290101 29.39058,28.346344 29.46635,28.156995 C 29.534918,27.985651 29.526485,27.780928 29.447612,27.702055 z M 35.346287,27.100688 C 35.257631,26.870567 35.317576,26.52265 35.479506,26.327539 C 35.807053,25.932867 35.640812,23.125999 35.209283,21.765037 C 35.075089,21.341811 35.010167,20.807752 35.065014,20.578238 C 35.154776,20.202612 35.18405,20.208346 35.35815,20.635657 C 35.464528,20.896753 35.757541,21.310266 36.009292,21.554576 C 36.354926,21.889996 36.431441,22.188417 36.321741,22.773176 C 36.21453,23.344649 36.271224,23.583939 36.538089,23.686345 C 36.736985,23.762669 36.899719,23.948358 36.899719,24.098988 C 36.899719,24.296306 36.800197,24.290263 36.54368,24.077374 C 36.319163,23.891043 36.187639,23.875132 36.187639,24.034302 C 36.187639,24.173131 36.284423,24.346533 36.402716,24.419642 C 36.607643,24.546294 36.541347,25.20639 36.246375,25.976252 C 36.171347,26.172074 36.097946,26.385697 36.083261,26.450972 C 36.068578,26.516246 35.933022,26.783276 35.782025,27.044371 C 35.527661,27.484203 35.495638,27.488342 35.346287,27.100688 z M 16.852819,25.992433 C 16.766636,25.852985 16.441434,25.738892 16.130151,25.738892 C 15.755329,25.738892 15.424689,25.502755 15.151168,25.039722 C 14.924012,24.655177 14.657906,24.390148 14.559822,24.450768 C 14.336737,24.588642 13.350388,23.2845 12.833641,22.168429 C 12.216609,20.835752 12.183639,18.280472 12.765417,16.880559 C 13.240289,15.737889 13.24129,15.701438 12.806535,15.383537 C 12.561451,15.204328 12.141019,15.056067 11.872237,15.054068 C 11.603456,15.052069 11.223326,14.946893 11.027505,14.820343 C 10.748616,14.640111 10.8087,14.589465 11.304791,14.586618 C 11.653121,14.584619 12.108282,14.517685 12.316261,14.437876 C 12.595831,14.330595 12.655176,14.395001 12.543916,14.684942 C 12.461146,14.900637 12.486636,15.060099 12.600564,15.039301 C 13.119829,14.944506 13.38257,15.09726 13.550815,15.591763 C 13.65075,15.885495 13.705327,16.224011 13.672096,16.34402 C 13.638866,16.46403 13.77656,16.425377 13.978086,16.258125 C 14.179611,16.090874 14.526779,16.023981 14.749572,16.109475 C 15.083857,16.237751 15.017487,16.348328 14.369784,16.742219 C 13.93811,17.004735 13.645289,17.279888 13.71907,17.353668 C 13.792851,17.427449 14.031235,17.309794 14.248817,17.092215 C 14.466395,16.874635 14.711808,16.769731 14.794178,16.859094 C 14.876547,16.948457 14.809762,17.069478 14.645763,17.128029 C 14.481764,17.186581 14.405148,17.327627 14.475504,17.441465 C 14.545858,17.555303 14.282662,17.814315 13.890619,18.017048 C 13.15037,18.399845 12.461308,19.330178 12.918032,19.330178 C 13.053174,19.330178 13.163743,19.490397 13.163743,19.686219 C 13.163743,19.882041 13.267203,20.042258 13.393651,20.042258 C 13.520102,20.042258 13.562083,20.202475 13.486939,20.398297 C 13.239423,21.043311 13.81981,20.769175 14.296843,20.015752 C 14.823559,19.183859 15.262779,19.465585 14.793085,20.334052 C 14.632765,20.630483 14.474071,21.121058 14.440432,21.424218 C 14.390124,21.877612 14.439435,21.925488 14.718333,21.694023 C 14.904816,21.539255 14.998861,21.317918 14.927319,21.202162 C 14.855779,21.086407 14.921788,20.991697 15.074007,20.991697 C 15.226225,20.991697 15.294284,21.138899 15.225244,21.318813 C 15.156205,21.498727 15.224885,21.787308 15.377868,21.960106 C 15.608373,22.220462 15.584865,22.220438 15.240641,21.959965 C 14.878083,21.68562 14.825261,21.707198 14.825261,22.129652 C 14.825261,22.395853 14.721872,22.649259 14.595509,22.692776 C 14.449191,22.743162 14.447871,22.901195 14.591873,23.127935 C 14.784732,23.431602 14.818527,23.422874 14.821627,23.068595 C 14.823625,22.840136 14.924876,22.653215 15.046625,22.653215 C 15.37323,22.653215 15.591674,23.523221 15.419107,24.136714 C 15.302418,24.551554 15.323755,24.591294 15.514689,24.314734 C 15.712849,24.027705 15.790475,24.10747 15.915176,24.726261 C 16.000251,25.148422 16.165409,25.434774 16.282192,25.362599 C 16.398973,25.290423 16.418871,25.105236 16.326407,24.951072 C 16.224988,24.781973 16.313492,24.796586 16.549499,24.987908 C 16.764661,25.162331 17.030815,25.249349 17.140952,25.18128 C 17.251089,25.113212 17.470298,25.264234 17.628081,25.516886 C 17.785866,25.769537 17.869386,25.976252 17.813682,25.976252 C 17.757979,25.976252 17.554255,26.03694 17.360961,26.111114 C 17.167668,26.185287 16.939005,26.131881 16.852819,25.992433 z M 15.153188,23.709007 C 15.234244,23.497774 15.194453,23.402498 15.059903,23.485655 C 14.93085,23.565414 14.825261,23.731179 14.825261,23.854023 C 14.825261,24.195448 14.995393,24.120212 15.153188,23.709007 z M 27.434251,25.198152 C 27.287797,25.051697 27.167969,24.793014 27.167969,24.623302 C 27.167969,24.453589 26.954345,24.314734 26.693249,24.314734 C 26.432154,24.314734 26.218529,24.195464 26.218529,24.04969 C 26.218529,23.901506 26.427836,23.839382 26.693249,23.908788 C 27.015095,23.992953 27.167969,23.916072 27.167969,23.670049 C 27.167969,23.393387 27.243653,23.369979 27.486508,23.571531 C 27.661703,23.716932 27.87808,23.762862 27.967344,23.673598 C 28.258295,23.382648 29.1473,23.348774 29.316286,23.6222 C 29.438035,23.819194 29.614621,23.817618 29.991005,23.616185 C 30.271403,23.46612 30.621924,23.41819 30.769946,23.509672 C 30.934937,23.611644 30.973541,23.56997 30.869711,23.401968 C 30.768386,23.238024 30.854401,23.127935 31.083816,23.127935 C 31.429666,23.127935 31.426528,23.196928 31.05182,23.831259 C 30.617105,24.567172 29.756037,24.899833 28.473447,24.827375 C 27.996995,24.80046 27.866131,24.855142 28.07797,24.992629 C 28.337151,25.160842 28.331634,25.22226 28.047553,25.331272 C 27.856694,25.404513 27.580707,25.344608 27.434251,25.198152 z M 28.934485,23.86215 C 29.007645,23.743777 28.853731,23.702829 28.592455,23.771153 C 28.038223,23.916089 27.968163,24.077374 28.459438,24.077374 C 28.647556,24.077374 28.861326,23.980524 28.934485,23.86215 z M 26.455889,24.922141 C 26.455889,24.505212 26.598317,24.443824 26.801792,24.773052 C 26.876901,24.894579 26.829797,25.061101 26.69712,25.1431 C 26.564444,25.225099 26.455889,25.125667 26.455889,24.922141 z M 23.56291,24.66567 C 23.371741,24.474502 23.650556,23.126484 23.855115,23.252908 C 23.962022,23.31898 24.113697,23.269149 24.192173,23.142173 C 24.270646,23.015198 24.494377,22.972523 24.689352,23.047341 C 24.960848,23.151525 24.980559,23.259632 24.773535,23.509081 C 24.624863,23.68822 24.408512,23.776254 24.292756,23.704713 C 24.177001,23.633171 24.082292,23.788262 24.082292,24.049358 C 24.082292,24.518693 23.77755,24.880311 23.56291,24.66567 z M 16.01206,24.458809 C 16.01206,24.407501 16.172278,24.304043 16.368099,24.228898 C 16.563921,24.153754 16.724139,24.195733 16.724139,24.322183 C 16.724139,24.448634 16.563921,24.552094 16.368099,24.552094 C 16.172278,24.552094 16.01206,24.510115 16.01206,24.458809 z M 25.664691,21.782896 C 25.577659,21.695865 25.506451,21.514284 25.506451,21.379385 C 25.506451,21.230654 25.617006,21.244668 25.787325,21.414988 C 25.941809,21.56947 26.013017,21.751051 25.945566,21.8185 C 25.878115,21.88595 25.751721,21.869928 25.664691,21.782896 z M 16.104829,20.4834 C 16.086828,19.994521 16.173673,19.816126 16.389379,19.898899 C 16.70737,20.020924 17.118593,19.170794 16.864492,18.916691 C 16.787298,18.839497 16.724139,18.936557 16.724139,19.132379 C 16.724139,19.328201 16.563921,19.488418 16.368099,19.488418 C 16.172278,19.488418 16.01206,19.38633 16.01206,19.261555 C 16.01206,19.136781 15.84926,19.169803 15.650284,19.334939 C 15.232808,19.681413 15.183361,19.649393 14.946037,18.878893 C 14.805247,18.421806 14.843376,18.336902 15.138573,18.45018 C 15.341027,18.527868 15.56599,18.463917 15.638494,18.308065 C 15.710997,18.152214 15.71635,18.247225 15.65039,18.5192 C 15.56701,18.862995 15.645301,19.013699 15.90728,19.013699 C 16.278209,19.013699 16.277025,18.858585 15.897919,17.78734 C 15.76292,17.405875 15.780231,17.382561 15.986034,17.668661 C 16.207609,17.976681 16.242641,17.96895 16.245786,17.611332 C 16.247784,17.383979 16.463044,17.064553 16.724139,16.901496 C 16.985235,16.73844 17.196482,16.443802 17.193579,16.246746 C 17.189652,15.980069 17.083447,16.016213 16.7782,16.38811 C 16.292187,16.980244 15.607969,17.262889 15.415285,16.95112 C 15.229556,16.650603 15.744992,15.723405 16.007567,15.885686 C 16.122546,15.956746 16.293908,15.889829 16.388373,15.736979 C 16.49225,15.568903 16.457506,15.522498 16.300459,15.619559 C 16.140667,15.718315 16.055257,15.587991 16.078402,15.280726 C 16.099091,15.006103 16.325498,14.669299 16.581533,14.532272 C 16.984546,14.316587 16.999495,14.247491 16.692867,14.017679 C 16.498064,13.871678 16.271224,13.572291 16.188777,13.352372 C 15.936777,12.680182 15.193736,12.414333 14.68003,12.812564 C 14.292647,13.112868 14.288199,13.140369 14.647241,13.015333 C 14.932937,12.915838 15.062621,12.992368 15.062621,13.260461 C 15.062621,13.576695 15.1522,13.602306 15.53734,13.396184 C 15.916237,13.193405 16.01206,13.215675 16.01206,13.506513 C 16.01206,13.706928 15.825139,13.879336 15.59668,13.889643 C 15.346088,13.900948 15.299593,13.956072 15.479479,14.028595 C 15.643478,14.094714 15.717282,14.246499 15.64349,14.365896 C 15.474556,14.639238 14.587901,14.652715 14.587901,14.381942 C 14.587901,14.27137 14.374278,13.934591 14.113181,13.633544 C 13.530905,12.962175 13.520725,12.782633 14.053842,12.587204 C 14.2823,12.503454 14.764673,12.270722 15.12578,12.070017 C 16.07258,11.543785 16.732647,11.819339 16.630328,12.698111 C 16.576179,13.163186 16.655008,13.396184 16.866505,13.396184 C 17.065078,13.396184 17.1272,13.248273 17.032394,13.001208 C 16.925645,12.723028 16.969057,12.66076 17.1792,12.790635 C 17.343307,12.892059 17.424863,13.176611 17.360439,13.422973 C 17.288364,13.69858 17.366546,13.870904 17.563662,13.870904 C 17.921783,13.870904 18.623017,14.765085 18.623017,15.221747 C 18.623017,15.400881 18.459208,15.459882 18.207637,15.371358 C 17.868555,15.252041 17.846755,15.283928 18.088958,15.544959 C 18.252142,15.720831 18.373267,16.190502 18.358124,16.588674 C 18.342932,16.988093 18.281928,17.126416 18.222038,16.897241 C 18.087648,16.382973 17.819196,16.370153 17.334494,16.854855 C 17.129345,17.060002 16.961499,17.145452 16.961499,17.044743 C 16.961499,16.944035 16.842325,16.980811 16.69667,17.126467 C 16.501805,17.321332 16.526466,17.526392 16.790018,17.902668 C 17.044957,18.266641 17.181156,18.32372 17.262537,18.10069 C 17.349793,17.861566 17.44648,17.852723 17.670699,18.063359 C 18.013008,18.384928 17.76411,18.939427 17.383143,18.703977 C 17.231681,18.610368 17.193596,18.654918 17.290729,18.81208 C 17.3816,18.959112 17.288868,19.334407 17.084658,19.646069 C 16.868139,19.976523 16.78085,20.399814 16.875252,20.661552 C 16.964288,20.908405 16.949835,21.031195 16.843137,20.934417 C 16.736437,20.837638 16.532497,20.854887 16.389939,20.972746 C 16.21336,21.11873 16.122479,20.962749 16.104829,20.4834 z M 16.530295,18.091952 C 16.359975,17.921631 16.24942,17.907617 16.24942,18.056348 C 16.24942,18.191247 16.320628,18.372828 16.407661,18.459859 C 16.49469,18.546891 16.621085,18.562913 16.688535,18.495463 C 16.755986,18.428014 16.684778,18.246434 16.530295,18.091952 z M 16.867544,15.121987 C 16.78867,15.043115 16.732573,15.183306 16.742879,15.433523 C 16.754267,15.710033 16.810512,15.766277 16.886282,15.576928 C 16.954848,15.405584 16.946417,15.20086 16.867544,15.121987 z M 34.060866,20.647059 C 33.732341,20.251212 33.822118,19.389492 34.173334,19.567538 C 34.302092,19.632813 34.407441,19.846436 34.407441,20.042258 C 34.407441,20.23808 34.493855,20.531813 34.59947,20.694998 C 34.867196,21.108658 34.410202,21.067984 34.060866,20.647059 z M 29.304206,19.567538 C 29.304206,19.436991 29.403822,19.330178 29.525571,19.330178 C 29.647322,19.330178 29.813006,19.122005 29.893761,18.867572 C 29.98499,18.580134 30.174854,18.456487 30.395174,18.541031 C 30.68494,18.652225 30.660298,18.739761 30.260372,19.019879 C 29.991209,19.208409 29.832481,19.462163 29.907644,19.583779 C 29.982806,19.705394 29.877782,19.804898 29.674255,19.804898 C 29.470728,19.804898 29.304206,19.698086 29.304206,19.567538 z M 32.569149,19.211499 C 32.631539,18.885129 32.723537,18.618099 32.773595,18.618099 C 32.823649,18.618099 32.864603,18.885129 32.864603,19.211499 C 32.864603,19.537868 32.772602,19.804898 32.660158,19.804898 C 32.547713,19.804898 32.50676,19.537868 32.569149,19.211499 z M 30.253646,19.337628 C 30.253646,19.211177 30.413864,19.169199 30.609686,19.244344 C 30.805507,19.319487 30.965725,19.422947 30.965725,19.474253 C 30.965725,19.52556 30.805507,19.567538 30.609686,19.567538 C 30.413864,19.567538 30.253646,19.464078 30.253646,19.337628 z M 13.163743,19.053259 C 13.163743,18.900953 13.2383,18.850897 13.329427,18.942024 C 13.420554,19.03315 13.630392,18.864031 13.795734,18.566204 C 13.997193,18.203323 14.099134,18.146059 14.10477,18.392607 C 14.113654,18.781212 13.673848,19.330178 13.35363,19.330178 C 13.249192,19.330178 13.163743,19.205564 13.163743,19.053259 z M 28.829487,18.848009 C 28.829487,18.721559 28.989705,18.618099 29.185527,18.618099 C 29.381349,18.618099 29.541566,18.660078 29.541566,18.711384 C 29.541566,18.762691 29.381349,18.86615 29.185527,18.941295 C 28.989705,19.016439 28.829487,18.97446 28.829487,18.848009 z M 20.521895,18.61065 C 20.521895,18.476005 20.682114,18.30436 20.877935,18.229215 C 21.073757,18.154072 21.233975,17.943799 21.233975,17.761946 C 21.233975,17.580091 21.395017,17.431301 21.591845,17.431301 C 21.849301,17.431301 21.771692,17.631103 21.315252,18.14338 C 20.623718,18.919506 20.521895,18.979478 20.521895,18.61065 z M 26.455889,18.632107 C 26.455889,18.493856 26.562701,18.38074 26.693249,18.38074 C 26.823797,18.38074 26.930609,18.427842 26.930609,18.485411 C 26.930609,18.54298 26.823797,18.656096 26.693249,18.736779 C 26.562701,18.817462 26.455889,18.77036 26.455889,18.632107 z M 31.203085,18.38074 C 31.203085,18.250191 31.309896,18.14338 31.440445,18.14338 C 31.570992,18.14338 31.677805,18.250191 31.677805,18.38074 C 31.677805,18.511288 31.570992,18.618099 31.440445,18.618099 C 31.309896,18.618099 31.203085,18.511288 31.203085,18.38074 z M 33.620198,18.091952 C 33.465717,17.93747 33.335143,17.912547 33.330032,18.036568 C 33.324922,18.160589 33.14802,17.888218 32.936917,17.431301 C 32.725817,16.974383 32.569152,16.52231 32.588779,16.426694 C 32.608404,16.331079 32.358059,16.185985 32.032453,16.104263 C 31.706847,16.022541 31.440445,15.80704 31.440445,15.62537 C 31.440445,15.443701 31.327329,15.295062 31.189076,15.295062 C 31.050823,15.295062 30.999159,15.394494 31.074268,15.516021 C 31.149377,15.637549 31.097595,15.806962 30.9592,15.892496 C 30.678482,16.065989 30.016286,15.605598 30.016286,15.236936 C 30.016286,15.096818 30.152213,15.112384 30.34807,15.274933 C 30.610887,15.49305 30.78358,15.418427 31.178829,14.915947 C 31.453266,14.567058 31.677805,14.395191 31.677805,14.534019 C 31.677805,14.672847 31.864725,14.970399 32.093184,15.195245 C 32.321643,15.42009 32.629301,15.935076 32.776868,16.339657 C 32.924436,16.74424 33.172703,17.045912 33.32857,17.010039 C 33.491836,16.972466 33.538809,17.063192 33.439381,17.224068 C 33.342423,17.380955 33.457107,17.642476 33.701111,17.820896 C 33.939986,17.995564 34.082698,18.191205 34.01825,18.255651 C 33.953805,18.320098 33.77468,18.246434 33.620198,18.091952 z M 14.680153,17.770619 C 14.759963,17.562639 14.825261,17.347804 14.825261,17.293208 C 14.825261,17.238611 14.932073,17.193941 15.062621,17.193941 C 15.449277,17.193941 15.332786,17.842642 14.917513,18.001997 C 14.637578,18.109418 14.573947,18.04739 14.680153,17.770619 z M 23.241772,16.466069 C 23.155722,16.326837 23.136223,16.162012 23.198443,16.099793 C 23.26066,16.037574 23.374815,16.151492 23.45212,16.352944 C 23.612618,16.771198 23.475821,16.844768 23.241772,16.466069 z M 30.965725,16.244502 C 30.965725,16.113954 31.072537,16.007142 31.203085,16.007142 C 31.333632,16.007142 31.440445,16.113954 31.440445,16.244502 C 31.440445,16.375049 31.333632,16.481861 31.203085,16.481861 C 31.072537,16.481861 30.965725,16.375049 30.965725,16.244502 z M 13.757142,15.057703 C 13.837825,14.927155 14.010649,14.820343 14.141197,14.820343 C 14.271746,14.820343 14.312545,14.927155 14.231862,15.057703 C 14.151178,15.188251 13.978355,15.295062 13.847806,15.295062 C 13.717259,15.295062 13.676458,15.188251 13.757142,15.057703 z M 29.209977,14.622543 C 29.14274,14.513753 29.238551,14.424744 29.422887,14.424744 C 29.607223,14.424744 29.703033,14.513753 29.635796,14.622543 C 29.568562,14.731333 29.472751,14.820343 29.422887,14.820343 C 29.373022,14.820343 29.277211,14.731333 29.209977,14.622543 z M 30.362566,14.567191 C 30.276515,14.427958 30.254922,14.265226 30.314586,14.205565 C 30.480137,14.040011 31.203085,14.36777 31.203085,14.608378 C 31.203085,14.905502 30.551933,14.873595 30.362566,14.567191 z M 11.027505,13.633544 C 11.306379,13.241901 11.687495,12.921465 11.874425,12.921465 C 12.292815,12.921465 12.323254,13.312662 11.917604,13.476345 C 11.754419,13.542192 11.834528,13.609187 12.095623,13.625224 C 12.394239,13.643565 12.218134,13.781269 11.620905,13.996429 C 11.098712,14.184555 10.637489,14.340084 10.595964,14.34205 C 10.554435,14.344015 10.748631,14.025188 11.027505,13.633544 z M 31.203085,13.870904 C 31.203085,13.740357 31.309896,13.633544 31.440445,13.633544 C 31.570992,13.633544 31.677805,13.740357 31.677805,13.870904 C 31.677805,14.001452 31.570992,14.108264 31.440445,14.108264 C 31.309896,14.108264 31.203085,14.001452 31.203085,13.870904 z "
   style="fill:black;fill-opacity:1;stroke:none;stroke-opacity:1"
   sodipodi:nodetypes="cssssssssssccssccssssssssssccssssssccssssssssssssssssssssssssssssssssssssssssssssssssssssssssssssssssssssssssssssssssssssssssssssssssssscccsssscccssssssssssssssssssssssssssssssssssssssssssssssssssccssssssccssssccssccssccssssccssccsssccssccssccsssccssssccssccsssssssssssssssssssssssssssssssssssssssssssccssccsssssccssccssssssssssssssccsssssssssssssssssssssssssssssssssssssssssssssssssssccssccssssssssssssssssccssccssccssssssccsssccsssccssssssssssssssssssssssssssssssssssssssssssssssssssssssssssssccsssccssccsssccssssssccsssccsssccssssccsssccssssccsssccsssccssssssssssssssssssccsssccssccsssccsssccsssccssccsssssccsssc" /></svg>