<?xml version="1.0" encoding="UTF-8" standalone="yes"?>
<svg version="1.1" width="64" height="64" color-interpolation="linearRGB"
     xmlns:svg="http://www.w3.org/2000/svg" xmlns="http://www.w3.org/2000/svg">
 <g>
  <path style="fill:#010101; fill-opacity:0.5725"
        d="M27 57L29 59L32.13 55.83L37 59L45.39 47.54L64 38L59 35L61 37L36 49L27 57z
           M58 34L62 31L58 29L55 32L58 34z"
        transform="matrix(1,0,0,1,0,3)"
  />
  <path style="fill:none; stroke:#010101; stroke-width:4"
        d="M6.25 30C6.25 30 11.87 36 16.87 42.5C21.87 49 26.25 55.75 26.25 55.75L59.12 36.87L32 15L6.25 30z"
        transform="matrix(1,0,0,1,0,3)"
  />
  <radialGradient id="gradient0" gradientUnits="userSpaceOnUse" cx="0" cy="0" r="64" gradientTransform="matrix(0.5714,0,0,0.3333,26,35)">
   <stop offset="1" stop-color="#fffcc0"/>
   <stop offset="0.4886" stop-color="#f1b706"/>
  </radialGradient>
  <path style="fill:url(#gradient0)"
        d="M6.25 30C6.25 30 11.87 36 16.87 42.5C21.87 49 26.25 55.75 26.25 55.75L59.12 36.87L32 15L6.25 30z"
        transform="matrix(1,0,0,1,0,3)"
  />
  <path style="fill:none; stroke:#010101; stroke-width:4"
        d="M2.62 30.87C2.62 30.87 10.95 36.26 19 41.87C27.44 47.75 35.75 52.75 35.75 52.75L58.12 26.37C58.12 26.37 45.44 20.7 35.37 15.37C30.18 12.62 26 9.37 26 9.37L2.62 30.87z"
        transform="matrix(1,0,0,1,0,3)"
  />
  <linearGradient id="gradient1" gradientUnits="userSpaceOnUse" x1="107.04" y1="-17.09" x2="118.33" y2="27.99">
   <stop offset="0" stop-color="#ffefa5"/>
   <stop offset="0.7424" stop-color="#fffcc0"/>
   <stop offset="1" stop-color="#fff890"/>
  </linearGradient>
  <path style="fill:url(#gradient1)"
        d="M2.62 30.87C2.62 30.87 10.95 36.26 19 41.87C27.44 47.75 35.75 52.75 35.75 52.75L58.12 26.37C58.12 26.37 45.44 20.7 35.37 15.37C30.18 12.62 26 9.37 26 9.37L2.62 30.87z"
        transform="matrix(1,0,0,1,0,3)"
  />
  <linearGradient id="gradient2" gradientUnits="userSpaceOnUse" x1="-47.14" y1="-15.78" x2="-28.46" y2="-37.85">
   <stop offset="0" stop-color="#010101"/>
   <stop offset="1" stop-color="#9e9e9e"/>
  </linearGradient>
  <path style="fill:none; stroke:url(#gradient2); stroke-width:1"
        d="M20 36L34.87 20.87
           M14 32L26.87 19
           M26 40L38.75 26.87
           M32 44L42.75 32.37"
        transform="matrix(1,0,0,1,0,3)"
  />
  <linearGradient id="gradient3" gradientUnits="userSpaceOnUse" x1="-47.14" y1="-15.78" x2="-28.46" y2="-37.85">
   <stop offset="0" stop-color="#010101"/>
   <stop offset="1" stop-color="#9e9e9e"/>
  </linearGradient>
  <path style="fill:none; stroke:url(#gradient3); stroke-width:1"
        d="M29 42L44 26.37
           M23 38L34.75 26.25
           M17 34L28.12 22.62"
        transform="matrix(1,0,0,1,0,3)"
  />
  <path style="fill:none; stroke:#010101; stroke-width:4"
        d="M32.02 1.91C42.03 1.91 50.14 10.02 50.14 20.03C50.14 30.04 42.03 38.15 32.02 38.15C22.01 38.15 13.9 30.04 13.9 20.03C13.9 10.02 22.01 1.91 32.02 1.91z"
  />
  <radialGradient id="gradient4" gradientUnits="userSpaceOnUse" cx="0" cy="0" r="64" gradientTransform="matrix(0.3803,0,0,-0.3803,23.5321,21.0147)">
   <stop offset="0.1931" stop-color="#33ffff"/>
   <stop offset="0.7878" stop-color="#0066ff"/>
   <stop offset="1" stop-color="#0034cc"/>
  </radialGradient>
  <path style="fill:url(#gradient4)"
        d="M32.02 1.91C42.03 1.91 50.14 10.02 50.14 20.03C50.14 30.04 42.03 38.15 32.02 38.15C22.01 38.15 13.9 30.04 13.9 20.03C13.9 10.02 22.01 1.91 32.02 1.91z"
  />
  <radialGradient id="gradient5" gradientUnits="userSpaceOnUse" cx="0" cy="0" r="64" gradientTransform="matrix(0.3803,0,0,-0.3803,23.5321,17.0147)">
   <stop offset="0.33" stop-color="#09b4b6"/>
   <stop offset="0.85" stop-color="#033784"/>
   <stop offset="1" stop-color="#051d61"/>
  </radialGradient>
  <path style="fill:url(#gradient5)"
        d="M47.33 10.33C44.65 6.1 40.23 3.11 35.3 2.2C34.22 2.01 33.12 1.91 32.02 1.91C26.94 1.91 22.01 4.09 18.6 7.86C14.99 11.84 13.32 17.31 14.09 22.63C14.5 25.12 14.75 25.87 15.41 27.28C17.23 31.44 20.63 34.83 24.79 36.65C29.54 38.72 35.09 38.63 39.77 36.41C39.58 35.54 38.84 35.51 38.11 35.44L38.03 35.44L38.29 35.5C37.71 35.37 37.18 35.63 36.64 35.79C36.01 35.98 35.35 35.89 34.71 35.82C33.42 35.67 31.84 35.42 30.77 36.34C30.71 36.34 30.65 36.34 30.65 36.34L30.43 36.34C30.43 36.34 27.95 36.34 27.43 36.34C26.91 35.97 26.42 35.87 25.95 35.83C25.92 35.8 25.71 35.56 25.71 35.56C25.58 35.41 25.47 35.32 25.29 35.26L24.2 34.89L23.07 34.47C22.97 34.44 22.87 34.43 22.77 34.42C22.75 34.38 22.76 34.33 22.73 34.29L22.48 33.9C22.15 33.32 21.78 32.74 21.09 32.6C21.18 32.22 21.05 31.9 20.94 31.54C20.82 31.15 20.79 30.73 20.81 30.32L20.84 29.96C20.88 29.45 20.91 28.95 20.83 28.45C21.63 27.56 21.81 26.65 21.74 25.48L21.72 25.05C21.72 24.42 21.72 24.34 21.92 24.07L22.03 23.93C22.59 23.19 23.48 21.7 22.3 21.05L19.36 19.45C19.36 19.45 18.98 19.28 18.93 19.25C18.93 19.25 18.93 19.23 18.93 19.23C18.91 18.37 18.61 17.77 17.92 17.26C17.92 17.26 17.74 17.13 17.74 17.13C17.74 17.12 17.49 16.79 17.49 16.79L16.76 15.92C16.29 15.48 15.85 15.34 15.45 15.31C15.42 15.23 15.37 15.15 15.32 15.08C16.35 14.65 16.83 13.5 17.23 12.54C17.47 11.97 17.67 11.36 18.1 10.9C18.49 10.47 18.85 10.1 18.75 9.47C19.57 9.15 20.32 8.73 21.03 8.31L21.13 8.25L22.57 7.36C23.58 6.76 24.04 5.94 24.37 4.83C24.99 4.89 25.54 4.74 25.96 4.52C26.74 4.99 28.01 5.01 28.67 4.32C28.7 4.32 28.82 4.31 28.94 4.3C28.56 5.09 28.94 6.18 29.81 6.5C29.84 6.54 29.85 6.61 29.89 6.64C29.72 6.7 29.55 6.76 29.55 6.76L28.75 7.66C28.57 8.21 28.75 8.78 29.02 9.27C29.03 9.29 29.04 9.35 29.04 9.35C29.06 9.45 29.09 9.59 29.14 9.75C29.06 9.85 28.98 9.93 28.98 9.93C28.18 10.9 26.89 11.12 26.53 12.46L26.48 12.64C26.07 13.17 25.97 13.81 26.34 14.4C26.3 14.47 26.27 14.54 26.27 14.54C25.94 15.14 25.66 15.83 25.85 16.51C26.04 17.18 26.59 17.67 27.1 18.1C27.6 18.53 28.11 18.97 28.74 19.21C29.47 19.49 30.29 19.43 31.04 19.24L31.81 19C32.16 18.88 32.52 18.7 32.9 18.74C33.31 18.78 33.62 19.1 33.92 19.36C33.38 20.72 34.41 22.07 35.02 23.24C35.02 23.24 35.16 23.47 35.2 23.54C34.45 24.9 34.37 26.4 35.52 27.54L35.63 27.66C35.62 28.77 35.65 30.73 37.07 31.07C38.52 31.41 39.98 30.6 40.86 29.5L41.21 29.09L41.49 28.87C41.8 28.65 42.13 28.39 42.31 28.05C42.49 27.69 42.51 27.25 42.76 26.92V26.93C42.79 27.63 43.45 28.13 44.13 28.01C44.97 27.87 45.48 26.97 45.82 26.28L45.97 25.98L46.01 25.91C46.42 25.2 46.72 24.31 46.2 23.57C45.75 22.93 44.87 22.76 44.26 23.29C44.26 23.08 44.26 22.88 44.26 22.88L44.29 21.58C44.31 21.39 44.72 20.99 44.94 20.77L45.16 20.56L45.39 20.35C45.85 19.95 46.29 19.51 46.45 18.9C46.55 18.64 46.49 18.2 46.51 17.92L46.5 17.72L46.51 17.62C46.56 17.03 46.47 16.43 46 16.02C46.53 15.7 46.9 15.16 47.07 14.48C47.1 14.53 47.16 14.66 47.16 14.66C47.31 14.96 47.5 15.32 47.84 15.64C47.79 16.39 48.06 17.09 48.39 17.74C48.72 18.38 48.79 19.09 48.78 19.8L48.8 20.51C48.82 20.88 48.86 21.27 48.76 21.64C48.67 21.98 48.49 22.29 48.4 22.63C48.18 23.41 48.12 24.23 48.12 25.04C48.01 25.7 48.39 26.34 48.93 26.55C50.98 21.24 50.38 15.14 47.33 10.33z"
  />
  <radialGradient id="gradient6" gradientUnits="userSpaceOnUse" cx="0" cy="0" r="64" gradientTransform="matrix(0.4477,0,0,0.4477,26.4917,10.4363)">
   <stop offset="0" stop-color="#ffffff"/>
   <stop offset="0.2992" stop-color="#00ff00"/>
   <stop offset="0.5643" stop-color="#00b200"/>
   <stop offset="1" stop-color="#008000"/>
  </radialGradient>
  <path style="fill:url(#gradient6)"
        d="M19.58 28.17C19.87 27.78 20.26 27.46 20.48 27.02C20.74 26.47 20.59 25.64 20.59 25.05C20.59 24.36 20.59 23.97 21.02 23.39C21.33 22.96 21.66 22.59 21.75 22.04C20.78 21.51 19.81 20.97 18.83 20.45C18.58 20.32 18.01 20.16 17.88 19.87C17.72 19.48 17.88 18.98 17.69 18.61C17.55 18.32 17.1 18.12 16.88 17.86C16.58 17.5 16.34 17.08 15.99 16.75C15.65 16.44 15.33 16.29 14.9 16.52C14.43 16.78 14.46 16.07 14.41 15.76C14.29 16.27 14.18 16.79 14.1 17.31C14.52 17.31 14.47 17.43 14.48 17.83C14.49 18.23 14.5 18.63 14.52 19.04C14.59 19.21 14.54 19.3 14.37 19.3C14.32 19.32 14.27 19.34 14.21 19.36C14.11 19.44 14.04 19.43 13.99 19.33C13.83 19.32 13.94 21.1 13.95 21.25C13.99 21.82 13.93 23.64 14.76 23.36C15.19 23.65 15.12 24.35 15.41 24.76C15.75 25.25 16.19 25.5 16.37 26.11C16.54 26.73 16.55 27.38 16.65 28.01C16.78 28.8 17.21 29.08 17.79 29.56C17.93 30.38 18.17 30.89 18.72 31.52C18.97 31.8 19.22 32.08 19.45 32.38C19.69 32.69 19.8 32.68 20.04 32.35C19.73 31.71 19.64 30.97 19.68 30.26C19.72 29.58 19.87 28.81 19.58 28.17
           M26.02 3.13C26.36 3.36 26.39 3.58 26.83 3.66C27.14 3.72 27.62 3.79 27.86 3.53C28.44 2.93 29.34 3.36 30.02 2.94C30.56 2.61 31.01 1.94 31.71 1.94C32.14 1.93 32.4 2.2 32.75 2.39C33.22 2.65 33.6 2.16 34.03 2.02C30.69 1.65 27.27 2.22 24.22 3.67C24.9 3.87 25.5 3.54 26.02 3.13
           M30.64 5.82C30.95 5.84 31.32 6.06 31.63 5.93C32.13 5.73 31.65 4.97 31.44 4.75C31.29 4.59 30.57 3.87 30.71 4.51C30.8 4.94 31.17 5.53 30.64 5.82
           M17.63 9.8C17.69 9.57 17.55 9.48 17.4 9.33C16.34 10.78 15.49 12.39 14.9 14.09C16.3 13 16.19 10.9 17.63 9.8
           M50.11 18.94C49.85 16.17 49.05 13.44 47.68 11C46.99 9.76 46.15 8.6 45.17 7.57C44.69 7.06 44.18 6.58 43.64 6.13C43.47 5.99 43.29 5.74 43.06 5.87C42.85 5.98 42.68 5.58 42.74 5.42C40.37 3.68 37.58 2.53 34.67 2.1C35.09 2.39 35.62 2.36 36.07 2.55C36.23 2.61 36.7 2.87 36.32 2.99C35.58 3.24 34.74 2.94 33.98 2.99C33.51 3.03 33.29 3.19 33.25 3.67C33.23 3.93 33.16 4.44 33.26 4.69C33.37 4.98 34.27 4.62 34.41 4.46C34.64 4.19 34.36 3.61 34.99 3.79C35.22 4.26 35.71 5.62 34.66 5.26C34.4 5.17 33.91 4.74 33.63 4.87C33.61 4.88 33.56 5.21 33.54 5.25C33.45 5.41 33.29 5.52 33.11 5.57C32.37 5.77 31.84 5.88 31.57 6.68C31.44 7.07 31.45 7.31 31.02 7.46C30.7 7.57 30.34 7.64 30.03 7.79C29.61 7.99 29.9 8.54 30.06 8.82C30.17 9.02 30.15 9.49 30.36 9.61C30.99 9.97 31.72 8.57 31.98 8.24C32.32 7.79 32.71 7.9 33.18 7.74C33.4 7.67 33.69 7.11 33.92 7.2C34.7 7.5 34.93 8.43 35.05 9.16C35.3 9.16 35.14 8.57 35.66 8.7C35.27 8.28 35 7.72 34.94 7.14C35.5 7.5 35.89 7.89 36.07 8.52C36.24 9.14 36.53 9.49 37.04 8.86C37.17 8.73 37.35 7.89 37.62 8.13C37.85 8.33 37.85 9.01 37.5 9.1C37.7 9.28 37.98 9.2 38.21 9.14C38.53 9.06 38.71 9.08 39.01 9.2C39.36 9.33 39.73 9.38 40.1 9.4C40.47 9.42 40.68 9.76 40.85 10.04C41.32 10.81 38.52 10.49 38.38 10.48C38.04 10.46 37.66 10.46 37.35 10.58C37.11 10.68 36.93 11 36.64 10.9C36.32 10.8 36.03 10.51 35.75 10.33C35.37 10.08 34.97 9.85 34.56 9.67C33.87 9.36 33.09 9.17 32.34 9.32C31.99 9.4 31.65 9.55 31.36 9.77C31.01 10.03 30.63 9.8 30.29 10.16C29.76 10.7 29.39 11.36 28.69 11.7C28.4 11.84 28.06 11.96 27.86 12.21C27.65 12.47 27.65 12.82 27.51 13.11C27.38 13.39 27.08 13.53 27.32 13.86C27.53 14.15 27.59 14.38 27.44 14.72C27.23 15.23 26.65 15.91 27.07 16.46C27.47 17 28.18 17.53 28.71 17.92C29.32 18.37 30.07 18.32 30.76 18.14C31.4 17.97 32.05 17.66 32.72 17.61C33.56 17.55 34.2 18.08 34.79 18.61C35.18 18.96 35.33 19.1 35.03 19.59C34.7 20.15 34.9 20.55 35.17 21.09C35.44 21.63 35.73 22.17 36.01 22.69C36.14 22.92 36.31 23.13 36.41 23.37C36.53 23.65 36.34 23.81 36.21 24.05C35.94 24.53 35.75 25.08 35.75 25.64C35.76 26.26 36.05 26.47 36.44 26.87C36.8 27.23 36.78 27.87 36.75 28.34C36.7 28.99 36.9 29.44 37.28 29.95C37.86 29.98 38.46 29.94 38.99 29.69C39.64 29.38 39.92 28.78 40.41 28.29C40.86 27.84 41.33 27.8 41.47 27.11C41.63 26.3 42.06 25.98 42.65 25.48C43.19 25.02 43.12 24.36 43.14 23.72C43.15 22.98 43.07 22.17 43.16 21.43C43.25 20.76 43.9 20.22 44.35 19.77C44.68 19.43 45.23 19.1 45.35 18.61C45.42 18.35 45.36 18 45.36 17.72C45.36 17.52 45.43 17.19 45.34 17C45.1 16.48 44.02 16.99 43.9 16.51C43.82 16.22 43.84 16.27 44.03 16.09C44.25 15.89 44.03 15.69 43.84 15.58C43.32 15.27 42.9 15.07 42.52 14.56C42.16 14.09 41.86 13.57 41.57 13.05C41.5 12.92 40.8 11.51 41.21 11.64C41.66 11.79 42.07 12.32 42.38 12.66C42.91 13.24 43.4 13.89 43.73 14.6C43.74 14.69 44.07 14.87 44.14 14.92C44.38 15.1 44.65 15.24 44.96 15.22C45.67 15.16 46.01 14.52 46.06 13.88C46.13 13.01 45.46 13.19 44.94 12.78C44.65 12.54 44.45 12.21 44.22 11.92C44.07 11.75 43.67 11.47 43.81 11.19C44.11 10.99 44.23 11.17 44.52 11.34C44.86 11.55 45.23 11.73 45.61 11.85C46.01 11.98 46.6 11.86 46.94 12.12C47.15 12.27 47.3 12.64 47.44 12.86C47.67 13.21 47.88 13.57 48.07 13.94C48.36 14.52 48.44 14.91 49.14 15.12C48.7 15.85 49.13 16.7 49.47 17.36C49.88 18.16 49.92 18.93 49.91 19.81C49.9 20.61 50.09 21.53 49.72 22.28C49.33 23.1 49.25 24.21 49.25 25.12C49.26 25.07 49.28 24.99 49.31 24.94C49.27 25.01 49.15 25.47 49.26 25.49C49.43 25.53 49.74 23.82 49.78 23.62C50.1 22.09 50.2 20.51 50.11 18.94
           M40.17 8.15C39.9 8.19 39.92 7.75 39.73 7.65C39.38 7.47 38.98 7.68 38.68 7.84C37.69 8.38 37.97 7.25 38.18 6.7C38.21 6.61 38.85 6.72 38.95 6.71C39.28 6.66 39.77 6.52 40.03 6.81C40.27 7.09 40.46 7.36 40.74 7.62C41.1 7.94 40.43 8.12 40.17 8.15
           M45.06 24.06C44.73 24.46 44.29 24.76 44.04 25.22C43.74 25.74 43.89 26.36 43.89 26.93C44.45 26.67 44.7 25.92 44.99 25.42C45.2 25.05 45.66 24.32 45.06 24.06
           M37.83 36.54C36.38 37.57 34.17 36.65 32.53 36.83C32.16 36.87 31.8 36.94 31.51 37.2C31.13 37.53 30.96 37.47 30.43 37.47C29.32 37.47 28.21 37.47 27.1 37.47C29.5 38.14 32.04 38.32 34.51 37.98C35.68 37.82 36.85 37.55 37.97 37.17C38.06 37.14 38.91 36.69 38.6 36.58C38.36 36.49 38.06 36.64 37.83 36.54
           M22.76 5.77C23.08 5.25 23.28 4.67 23.42 4.08C21.34 5.2 19.49 6.74 17.99 8.57C18.9 8.27 19.73 7.76 20.55 7.27C20.95 7.03 21.35 6.79 21.74 6.54C22.07 6.33 22.55 6.1 22.76 5.77
           M20.9 33.67C20.76 33.78 20.63 33.93 20.45 33.97C20.91 34.36 21.4 34.72 21.9 35.06C21.51 34.64 21.37 34.03 20.9 33.67"
  />
 </g>
</svg>
