<?xml version="1.0" encoding="UTF-8" standalone="no"?>
<!-- Generator: Adobe Illustrator 9.0, SVG Export Plug-In  -->

<svg
   xmlns:dc="http://purl.org/dc/elements/1.1/"
   xmlns:cc="http://creativecommons.org/ns#"
   xmlns:rdf="http://www.w3.org/1999/02/22-rdf-syntax-ns#"
   xmlns:svg="http://www.w3.org/2000/svg"
   xmlns="http://www.w3.org/2000/svg"
   xmlns:sodipodi="http://sodipodi.sourceforge.net/DTD/sodipodi-0.dtd"
   xmlns:inkscape="http://www.inkscape.org/namespaces/inkscape"
   width="64"
   height="64"
   viewBox="0 0 51.2 51.2"
   xml:space="preserve"
   id="svg2"
   version="1.1"
   inkscape:version="0.48.3.1 r9886"
   sodipodi:docname="gtk-preferences.svg"><metadata
   id="metadata149"><rdf:RDF><cc:Work
       rdf:about=""><dc:format>image/svg+xml</dc:format><dc:type
         rdf:resource="http://purl.org/dc/dcmitype/StillImage" /></cc:Work></rdf:RDF></metadata><defs
   id="defs147" /><sodipodi:namedview
   pagecolor="#ffffff"
   bordercolor="#666666"
   borderopacity="1"
   objecttolerance="10"
   gridtolerance="10"
   guidetolerance="10"
   inkscape:pageopacity="0"
   inkscape:pageshadow="2"
   inkscape:window-width="833"
   inkscape:window-height="657"
   id="namedview145"
   showgrid="false"
   width="64px"
   inkscape:zoom="2.7812867"
   inkscape:cx="15"
   inkscape:cy="15"
   inkscape:window-x="0"
   inkscape:window-y="20"
   inkscape:window-maximized="0"
   inkscape:current-layer="svg2" />
	<g
   id="Layer_x0020_3"
   style="fill:#ffffff;fill-rule:nonzero;stroke:#000000;stroke-miterlimit:4"
   transform="matrix(2.210471,0,0,2.210471,-1.7258199,-0.12548237)">
		<linearGradient
   id="aigrd1"
   gradientUnits="userSpaceOnUse"
   x1="10.73"
   y1="-4.4619002"
   x2="10.73"
   y2="20.142599">
			<stop
   offset="0"
   style="stop-color:#B8B8B8"
   id="stop6" />
			<stop
   offset="0.2528"
   style="stop-color:#E9E9E9"
   id="stop8" />
			<stop
   offset="0.2978"
   style="stop-color:#909090"
   id="stop10" />
			<stop
   offset="0.2992"
   style="stop-color:#919191"
   id="stop12" />
			<stop
   offset="0.3458"
   style="stop-color:#AAAAAA"
   id="stop14" />
			<stop
   offset="0.3973"
   style="stop-color:#BEBEBE"
   id="stop16" />
			<stop
   offset="0.4565"
   style="stop-color:#CCCCCC"
   id="stop18" />
			<stop
   offset="0.5295"
   style="stop-color:#D4D4D4"
   id="stop20" />
			<stop
   offset="0.6573"
   style="stop-color:#D6D6D6"
   id="stop22" />
			<stop
   offset="1"
   style="stop-color:#A2A2A2"
   id="stop24" />
		</linearGradient>
		<path
   style="fill:url(#aigrd1);stroke-width:2.55139995;stroke-linecap:round;stroke-linejoin:round"
   d="M 18.9,17.5 10.3,8.6 C 10.8,7.4 11.3,5.8 11,5.1 10.3,4 7.7,3 7.7,3 L 6.7,4 8.5,5.8 7.8,8.3 5.4,8.9 3.6,7.1 l -1,1 c 0,0 0.6,2.8 2.1,3.3 0.9,0.3 2.3,-0.2 3.4,-0.6 l 8.5,8.9 c 0.6,0.6 1.5,0.6 2.1,0 0.6,-0.6 0.6,-1.5 0,-2.1 z"
   id="path26"
   inkscape:connector-curvature="0" />
		<linearGradient
   id="aigrd2"
   gradientUnits="userSpaceOnUse"
   x1="6.7680998"
   y1="2.3311"
   x2="6.7680998"
   y2="20.279499">
			<stop
   offset="0"
   style="stop-color:#B8B8B8"
   id="stop29" />
			<stop
   offset="0.2528"
   style="stop-color:#F8F8F8"
   id="stop31" />
			<stop
   offset="0.2978"
   style="stop-color:#C2C2C2"
   id="stop33" />
			<stop
   offset="0.3067"
   style="stop-color:#C6C6C6"
   id="stop35" />
			<stop
   offset="0.3647"
   style="stop-color:#D9D9D9"
   id="stop37" />
			<stop
   offset="0.4313"
   style="stop-color:#E7E7E7"
   id="stop39" />
			<stop
   offset="0.5135"
   style="stop-color:#F0F0F0"
   id="stop41" />
			<stop
   offset="0.6573"
   style="stop-color:#F2F2F2"
   id="stop43" />
			<stop
   offset="1"
   style="stop-color:#A2A2A2"
   id="stop45" />
		</linearGradient>
		<path
   style="fill:url(#aigrd2);stroke:none"
   d="M 10.9,5.1 C 10.3,4 7.7,3 7.7,3 L 6.7,4 8.5,5.8 7.8,8.3 5.4,8.9 3.6,7.1 l -1,1 c 0,0 0.6,2.8 2.1,3.3 1.5,0.5 4.9,-1.3 4.9,-1.3 0,0 1.9,-3.7 1.3,-4.9 z"
   id="path47"
   inkscape:connector-curvature="0" />
		<path
   style="fill:#787878;stroke:none"
   d="m 8.7,9.1 9.9,10.4"
   id="path49"
   inkscape:connector-curvature="0" />
		<linearGradient
   id="aigrd3"
   gradientUnits="userSpaceOnUse"
   x1="13.3486"
   y1="3.1245"
   x2="13.3486"
   y2="19.996799">
			<stop
   offset="0"
   style="stop-color:#B8B8B8"
   id="stop52" />
			<stop
   offset="0.2528"
   style="stop-color:#F8F8F8"
   id="stop54" />
			<stop
   offset="0.2978"
   style="stop-color:#C2C2C2"
   id="stop56" />
			<stop
   offset="0.3067"
   style="stop-color:#C6C6C6"
   id="stop58" />
			<stop
   offset="0.3647"
   style="stop-color:#D9D9D9"
   id="stop60" />
			<stop
   offset="0.4313"
   style="stop-color:#E7E7E7"
   id="stop62" />
			<stop
   offset="0.5135"
   style="stop-color:#F0F0F0"
   id="stop64" />
			<stop
   offset="0.6573"
   style="stop-color:#F2F2F2"
   id="stop66" />
			<stop
   offset="1"
   style="stop-color:#A2A2A2"
   id="stop68" />
		</linearGradient>
		<path
   style="fill:url(#aigrd3);stroke:none"
   d="m 7.9,8.3 c -0.6,0.6 -0.6,1.5 0,2.1 l 8.9,9.2 c 0.6,0.6 1.5,0.6 2.1,0 0.6,-0.6 0.6,-1.5 0,-2.1 L 10,8.3 C 9.4,7.7 8.5,7.7 7.9,8.3 z"
   id="path70"
   inkscape:connector-curvature="0" />
		<path
   style="stroke:none"
   d="M 7,4.3 6.7,4 7.7,3 c 0,0 2.2,0.8 3,1.7 C 9.6,4 7.8,3.5 7.8,3.5 L 7,4.3 z"
   id="path72"
   inkscape:connector-curvature="0" />
		<path
   style="stroke:none"
   d="m 2.6,8.1 1,-1 L 5.4,8.9 7.9,8.2 8.5,5.7 8.2,8.5 5.2,9.5 3.6,7.7 2.7,8.6 2.6,8.1 z"
   id="path74"
   inkscape:connector-curvature="0" />
		<path
   style="stroke:none"
   d="m 10.2,8.5 8.6,9 -8.3,-8 -0.3,-1.1 z"
   id="path76"
   inkscape:connector-curvature="0" />
		<radialGradient
   id="aigrd4"
   cx="17.6094"
   cy="18.306601"
   r="0.9138"
   fx="17.6094"
   fy="18.306601"
   gradientUnits="userSpaceOnUse">
			<stop
   offset="0"
   style="stop-color:#4D4D4D"
   id="stop79" />
			<stop
   offset="1"
   style="stop-color:#B8B8B8"
   id="stop81" />
		</radialGradient>
		<path
   style="fill:url(#aigrd4);stroke:none"
   d="m 18.4,18.7 c 0,0.3 -0.3,0.6 -0.6,0.6 -0.3,0 -0.6,-0.3 -0.6,-0.6 0,-0.3 0.3,-0.6 0.6,-0.6 0.3,0 0.6,0.3 0.6,0.6 z"
   id="path83"
   inkscape:connector-curvature="0" />
	</g>
	<g
   id="Layer_x0020_2"
   style="fill-rule:nonzero;stroke:#000000;stroke-miterlimit:4"
   transform="matrix(2.210471,0,0,2.210471,-1.7258199,-0.12548237)">
		<path
   style="fill:none;stroke-width:2.55139995;stroke-linecap:round;stroke-linejoin:round"
   d="m 20.8,3.9 -3,1.7 -0.4,1.2 0.4,0.4 -5.4,5.4 c -0.7,-0.4 -1.7,-0.3 -2.3,0.3 L 5,18.1 c -0.7,0.7 -0.7,1.9 0,2.7 0.7,0.7 1.9,0.7 2.7,0 l 5.1,-5.1 c 0.6,-0.6 0.7,-1.6 0.3,-2.3 L 18.5,8 19,8.5 20.4,8.1 22,5.2 20.8,4 z"
   id="path86"
   inkscape:connector-curvature="0" />
		<path
   style="fill:#b5b5b5;stroke:none"
   d="m 18.6,6.6 -6.2,6.2 c -0.2,0.2 -0.2,0.5 0,0.7 0.2,0.2 0.5,0.2 0.7,0 l 6.2,-6.2 c 0.2,-0.2 0.2,-0.5 0,-0.7 -0.2,-0.2 -0.5,-0.2 -0.7,0 z"
   id="path88"
   inkscape:connector-curvature="0" />
		<path
   style="fill:#1e0a63;stroke:none"
   d="m 10.1,13.1 -5.1,5 c -0.7,0.7 -0.7,1.9 0,2.7 0.7,0.7 1.9,0.7 2.7,0 l 5.1,-5.1 c 0.7,-0.7 0.7,-1.9 0,-2.7 -0.7,-0.7 -1.9,-0.7 -2.7,0 z"
   id="path90"
   inkscape:connector-curvature="0" />
		<linearGradient
   id="aigrd5"
   gradientUnits="userSpaceOnUse"
   x1="7.5697999"
   y1="15.5918"
   x2="10.2567"
   y2="18.2787">
			<stop
   offset="0"
   style="stop-color:#2B2A52"
   id="stop93" />
			<stop
   offset="1.266844e-003"
   style="stop-color:#2C2B53"
   id="stop95" />
			<stop
   offset="2.360989e-002"
   style="stop-color:#36456A"
   id="stop97" />
			<stop
   offset="4.795597e-002"
   style="stop-color:#3F5F82"
   id="stop99" />
			<stop
   offset="7.536279e-002"
   style="stop-color:#487798"
   id="stop101" />
			<stop
   offset="0.1061"
   style="stop-color:#508DAC"
   id="stop103" />
			<stop
   offset="0.1417"
   style="stop-color:#559EBC"
   id="stop105" />
			<stop
   offset="0.1853"
   style="stop-color:#5BACC9"
   id="stop107" />
			<stop
   offset="0.2452"
   style="stop-color:#5CB3CF"
   id="stop109" />
			<stop
   offset="0.3989"
   style="stop-color:#5DB6D2"
   id="stop111" />
			<stop
   offset="0.4909"
   style="stop-color:#5CB1CD"
   id="stop113" />
			<stop
   offset="0.5891"
   style="stop-color:#57A3BF"
   id="stop115" />
			<stop
   offset="0.6903"
   style="stop-color:#508DAB"
   id="stop117" />
			<stop
   offset="0.7934"
   style="stop-color:#467090"
   id="stop119" />
			<stop
   offset="0.897"
   style="stop-color:#3B4F72"
   id="stop121" />
			<stop
   offset="1"
   style="stop-color:#2F2E54"
   id="stop123" />
		</linearGradient>
		<path
   style="fill:url(#aigrd5);stroke:none"
   d="M 10.1,13.1 12.8,15.8 7.7,20.9 5,18.1 10.1,13 z"
   id="path125"
   inkscape:connector-curvature="0" />
		<path
   style="opacity:0.52999998;fill:none;stroke:#ffffff;stroke-width:0.85049999;stroke-linecap:round"
   d="M 11.3,13.8 5.7,19.4"
   id="path127"
   inkscape:connector-curvature="0" />
		<linearGradient
   id="aigrd6"
   gradientUnits="userSpaceOnUse"
   x1="18.8848"
   y1="4.9443002"
   x2="21.6397"
   y2="8.5331001">
			<stop
   offset="0"
   style="stop-color:#A7A7A7"
   id="stop130" />
			<stop
   offset="0.2423"
   style="stop-color:#AFAFAF"
   id="stop132" />
			<stop
   offset="0.6203"
   style="stop-color:#C5C5C5"
   id="stop134" />
			<stop
   offset="1"
   style="stop-color:#E2E2E2"
   id="stop136" />
		</linearGradient>
		<path
   style="fill:url(#aigrd6);stroke:none"
   d="M 17.4,6.9 19,8.5 20.4,8.1 22,5.2 20.8,4 l -3,1.7 -0.4,1.2 z"
   id="path138"
   inkscape:connector-curvature="0" />
		<path
   style="opacity:0.7;fill:#ffffff;stroke:none"
   d="m 20.8,3.9 -3,1.7 -0.4,1.2 0.4,0.4 -5.4,5.4 L 18.6,7.2 18,6.7 18.2,5.8 20.8,3.9 z"
   id="path140"
   inkscape:connector-curvature="0" />
	</g>
	<g
   id="Layer_x0020_4"
   style="fill-rule:nonzero;stroke:#000000;stroke-miterlimit:4"
   transform="matrix(2.210471,0,0,2.210471,-1.7258199,-0.12548237)">
		<path
   style="fill:none;stroke:none"
   d="M 24,24 H 0 V 0 h 24 v 24 z"
   id="path143"
   inkscape:connector-curvature="0" />
	</g>
</svg>