<?xml version="1.0" encoding="UTF-8" standalone="no"?>
<!-- Created with Inkscape (http://www.inkscape.org/) -->
<svg
   xmlns:dc="http://purl.org/dc/elements/1.1/"
   xmlns:cc="http://creativecommons.org/ns#"
   xmlns:rdf="http://www.w3.org/1999/02/22-rdf-syntax-ns#"
   xmlns:svg="http://www.w3.org/2000/svg"
   xmlns="http://www.w3.org/2000/svg"
   xmlns:xlink="http://www.w3.org/1999/xlink"
   xmlns:sodipodi="http://sodipodi.sourceforge.net/DTD/sodipodi-0.dtd"
   xmlns:inkscape="http://www.inkscape.org/namespaces/inkscape"
   id="svg7415"
   sodipodi:version="0.32"
   inkscape:version="0.46"
   width="199"
   height="199"
   version="1.0"
   sodipodi:docname="icon.svg"
   inkscape:output_extension="org.inkscape.output.svg.inkscape"
   enable-background="new">
  <metadata
     id="metadata7420">
    <rdf:RDF>
      <cc:Work
         rdf:about="">
        <dc:format>image/svg+xml</dc:format>
        <dc:type
           rdf:resource="http://purl.org/dc/dcmitype/StillImage" />
      </cc:Work>
    </rdf:RDF>
  </metadata>
  <defs
     id="defs7418">
    <linearGradient
       inkscape:collect="always"
       id="linearGradient4736">
      <stop
         style="stop-color:#ffffff;stop-opacity:1;"
         offset="0"
         id="stop4738" />
      <stop
         style="stop-color:#ffffff;stop-opacity:0;"
         offset="1"
         id="stop4740" />
    </linearGradient>
    <linearGradient
       id="linearGradient3161">
      <stop
         style="stop-color:#f75a10;stop-opacity:1;"
         offset="0"
         id="stop3163" />
      <stop
         style="stop-color:#f75a10;stop-opacity:0;"
         offset="1"
         id="stop3165" />
    </linearGradient>
    <inkscape:perspective
       sodipodi:type="inkscape:persp3d"
       inkscape:vp_x="0 : 526.18109 : 1"
       inkscape:vp_y="0 : 1000 : 0"
       inkscape:vp_z="744.09448 : 526.18109 : 1"
       inkscape:persp3d-origin="372.04724 : 350.78739 : 1"
       id="perspective7422" />
    <linearGradient
       inkscape:collect="always"
       xlink:href="#linearGradient4736"
       id="linearGradient4742"
       x1="94.81604"
       y1="148.87433"
       x2="115.34945"
       y2="160.9528"
       gradientUnits="userSpaceOnUse" />
  </defs>
  <sodipodi:namedview
     inkscape:window-height="684"
     inkscape:window-width="1024"
     inkscape:pageshadow="2"
     inkscape:pageopacity="0.0"
     guidetolerance="10.0"
     gridtolerance="10.0"
     objecttolerance="10.0"
     borderopacity="1.0"
     bordercolor="#666666"
     pagecolor="#ffffff"
     id="base"
     showgrid="false"
     inkscape:zoom="1.655838"
     inkscape:cx="148.32031"
     inkscape:cy="82.695907"
     inkscape:window-x="0"
     inkscape:window-y="28"
     inkscape:current-layer="svg7415"
     showguides="true"
     inkscape:guide-bbox="true" />
  <g
     id="g4730">
    <g
       id="g4716">
      <path
         style="fill:#000000;fill-opacity:1;fill-rule:evenodd;stroke:none;stroke-width:1px;stroke-linecap:butt;stroke-linejoin:miter;stroke-opacity:1"
         d="M 17.710014,188.3552 L 174.24801,189.18785 C 185.55743,180.63099 187.45208,153.74489 180.04921,130.11548 C 175.20623,114.65706 186.25514,106.60456 173.39042,57.354606 C 158.72481,28.809801 129.18755,9.4315008 119.75647,24.651841 C 125.00325,36.565524 134.58481,68.597816 129.20123,84.935117 C 117.97661,103.4394 98.91916,108.16955 97.70852,106.25198 C 88.962981,109.60609 79.329134,122.87272 72.755621,126.79584 C 48.001003,141.56957 28.256981,160.84363 17.710014,188.3552 z"
         id="path4619"
         sodipodi:nodetypes="ccsccccsc" />
      <path
         style="fill:#ffffff;fill-opacity:1;fill-rule:evenodd;stroke:#000000;stroke-width:3.5;stroke-linecap:butt;stroke-linejoin:miter;stroke-miterlimit:4;stroke-dasharray:none;stroke-opacity:1"
         d="M 94.375573,101.82985 C 94.248183,97.609844 93.377703,93.142134 94.328213,89.281414 C 105.89448,88.605904 113.97937,84.449014 123.36685,81.594727 C 125.72087,78.968847 127.98278,76.009097 127.18429,61.955394 L 126.78316,31.996321 C 126.14595,30.906859 125.56472,28.913274 125.32516,27.02851 C 125.60584,26.253715 126.12731,25.599319 127.2102,25.225628 C 129.32474,24.783389 130.66356,25.273056 131.17862,26.830166 C 134.42947,26.242995 137.02037,26.49472 148.86409,37.234518 C 151.63106,41.868175 151.69156,47.178452 151.27534,52.607908 C 158.88506,55.869067 164.63335,66.575931 171.16927,74.132277 C 172.96835,78.923087 172.2841,81.782427 172.4267,85.284864 C 175.27293,90.935364 176.43049,96.577584 177.6291,101.20442 C 178.81294,105.77422 180.0499,109.33261 180.91031,114.26317 C 181.97187,121.49484 182.05214,130.02458 180.59002,137.53678 C 176.02779,148.76745 170.73585,151.24155 165.64368,156.11296 C 150.93583,158.94408 138.90188,153.41925 126.35612,149.49386 C 107.87416,136.42112 96.571973,126.08657 94.375573,101.82985 z"
         id="path7428"
         sodipodi:nodetypes="ccccccccccccsccccc" />
    </g>
    <path
       sodipodi:nodetypes="cccc"
       id="path4722"
       d="M 33.819734,179.07052 C 45.403581,166.701 52.652222,148.9458 78.510096,138.00369 C 85.398095,167.02467 99.871333,170.09314 115.34945,179.07051 L 33.819734,179.07052 z"
       style="fill:url(#linearGradient4742);fill-rule:evenodd;stroke:none;stroke-width:1px;stroke-linecap:butt;stroke-linejoin:miter;stroke-opacity:1;fill-opacity:1;opacity:0.20000000000000001" />
  </g>
  <g
     id="g4669"
     transform="translate(-211.37334,3.0196192)">
    <path
       sodipodi:nodetypes="ccccccccc"
       id="path7450"
       d="M 231.06982,90.835898 C 228.6736,72.348278 227.92867,53.733608 240.59235,37.477088 C 269.7934,6.3553854 291.01735,8.8303054 313.84401,10.373785 C 318.92346,11.378785 324.00291,13.635665 329.08236,16.339745 C 331.31913,19.841808 335.43752,23.227088 335.62191,26.216048 C 336.57101,55.258178 337.47477,48.402908 337.86072,58.467878 C 337.32052,69.540558 334.59565,75.840948 331.78484,76.128208 C 323.21242,81.890978 314.63239,83.800098 303.0452,83.110718 C 280.91867,80.508538 243.17464,70.664988 231.06982,90.835898 z"
       style="opacity:0.8;fill:#f5e220;fill-opacity:0.94117647;fill-rule:evenodd;stroke:none;stroke-width:1px;stroke-linecap:butt;stroke-linejoin:miter;stroke-opacity:1" />
    <g
       style="opacity:0.7"
       transform="translate(0.6039243,0)"
       id="g3260">
      <path
         style="opacity:1;fill:#f75c10;fill-opacity:1;fill-rule:evenodd;stroke:none;stroke-width:1px;stroke-linecap:butt;stroke-linejoin:miter;stroke-opacity:1"
         d="M 234.74796,50.116522 C 246.43428,23.964011 260.52969,14.038937 298.66302,9.8482837 C 305.65176,11.718733 320.8589,13.830858 327.12685,17.679727 C 288.69953,9.4222972 258.4271,31.783199 234.74796,50.116522 z"
         id="path3159"
         sodipodi:nodetypes="cccc" />
      <path
         style="fill:#f75c10;fill-opacity:1;fill-rule:evenodd;stroke:none;stroke-width:1px;stroke-linecap:butt;stroke-linejoin:miter;stroke-opacity:1"
         d="M 237.34206,83.04663 C 258.75974,77.308054 283.81026,81.117743 307.69918,82.442703 C 312.69959,78.557625 314.27217,82.017911 324.30708,67.344609 C 331.02373,57.941309 335.22489,63.820292 335.47968,63.117142 C 340.67553,30.938627 300.04369,41.449497 265.12255,45.603351 C 242.71784,51.136637 246.13342,69.631926 237.34206,83.04663 z"
         id="path3258"
         sodipodi:nodetypes="cccccc" />
    </g>
    <g
       transform="translate(2.394751e-8,0.8540772)"
       id="g3249">
      <path
         sodipodi:nodetypes="cccccc"
         id="path3223"
         d="M 230.39577,87.291044 C 229.27951,74.01164 225.64624,61.147962 235.0932,45.227744 C 239.67471,42.344423 236.62912,41.749228 251.32067,35.832894 C 254.02525,36.009222 256.72983,34.17663 259.43441,37.968088 C 263.00388,41.800615 264.39969,47.806804 264.55887,55.049633 C 253.93066,68.224444 234.79782,68.975514 230.39577,87.291044 z"
         style="opacity:1;fill:#000000;fill-opacity:1;fill-rule:evenodd;stroke:none;stroke-width:1px;stroke-linecap:butt;stroke-linejoin:miter;stroke-opacity:1" />
      <path
         sodipodi:nodetypes="ccccc"
         id="path3225"
         d="M 304.7005,81.526024 C 318.3491,79.243974 323.01971,65.988815 332.03097,58.038903 C 333.62262,57.488902 334.68522,56.542105 338.43655,57.611864 C 337.8603,62.406475 339.91428,66.324341 336.30135,72.131178 C 331.14322,77.423813 320.80256,82.52444 304.7005,81.526024 z"
         style="opacity:1;fill:#000000;fill-opacity:1;fill-rule:evenodd;stroke:none;stroke-width:1px;stroke-linecap:butt;stroke-linejoin:miter;stroke-opacity:1" />
    </g>
    <path
       sodipodi:nodetypes="ccccccccccccccccscc"
       id="path2393"
       d="M 273.24982,74.787398 C 274.78527,72.575928 277.03071,71.074438 277.30899,67.605798 C 281.90444,62.728128 283.17817,70.074588 283.8661,74.266998 C 286.80507,70.565018 284.84681,69.167758 289.27831,65.732348 C 290.45897,67.033678 293.88465,71.371158 292.0885,74.891478 C 296.82393,72.713528 293.54665,63.326278 298.85378,65.107858 C 299.76375,67.973228 299.62877,71.429758 299.06194,74.787398 C 302.68781,73.081748 303.3416,67.713998 303.95375,65.003778 C 319.81442,65.965518 322.04186,61.723668 326.74751,58.967068 C 319.22186,54.812518 311.38645,55.319338 303.32926,55.948718 C 302.49725,50.065926 299.34318,47.100186 296.04359,42.314096 C 296.93091,47.110876 297.84705,51.514376 297.50072,55.324228 C 294.05462,57.066588 294.00866,51.045976 287.40485,43.563066 C 289.21,50.666126 289.92451,54.209728 287.40485,55.948718 C 282.57436,56.808258 283.7752,47.514336 278.66204,44.812036 C 279.19029,45.483996 283.62702,58.006168 277.41307,57.509938 C 272.36756,51.275286 271.13735,50.821492 269.52139,50.523286 C 268.20675,50.280685 274.64318,61.908888 252.25235,69.608798 C 259.78737,72.249868 274.02031,60.607578 273.24982,74.787398 z"
       style="opacity:0.3;fill:#ff0000;fill-opacity:1;fill-rule:evenodd;stroke:none;stroke-width:0.5;stroke-linecap:butt;stroke-linejoin:miter;stroke-miterlimit:4;stroke-dasharray:none;stroke-opacity:1" />
    <path
       sodipodi:nodetypes="ccccc"
       id="path3253"
       d="M 230.6989,87.576063 C 257.32775,59.720763 289.95302,49.704971 327.93063,58.889671 L 335.47967,57.077901 C 333.55421,52.009761 330.60748,52.047901 327.93063,50.736701 C 294.90586,49.292289 236.08407,62.893371 230.6989,87.576063 z"
       style="fill:#ffffff;fill-opacity:1;fill-rule:evenodd;stroke:none;stroke-width:1px;stroke-linecap:butt;stroke-linejoin:miter;stroke-opacity:1" />
    <path
       style="fill:none;fill-opacity:1;fill-rule:evenodd;stroke:#000000;stroke-width:3.5;stroke-linecap:butt;stroke-linejoin:miter;stroke-miterlimit:4;stroke-dasharray:none;stroke-opacity:1"
       d="M 230.17274,91.647016 C 227.77652,73.159394 227.03159,54.544727 239.69527,38.288203 C 268.89632,7.1664916 290.12027,9.6414112 312.94693,11.184899 C 318.02638,12.189894 323.10583,14.44677 328.18528,17.150869 C 330.42205,20.652924 334.54044,24.038206 334.72483,27.027169 C 335.67393,56.069301 336.57769,49.214026 336.96364,59.279 C 336.42344,70.351678 333.69857,76.652072 330.88776,76.939327 C 322.31534,82.702096 313.73531,84.611216 302.14812,83.921836 C 280.02159,81.319656 242.27756,71.47611 230.17274,91.647016 z"
       id="path3217"
       sodipodi:nodetypes="ccccccccc" />
  </g>
  <g
     id="g4705"
     transform="translate(-100.85527,-44.690362)">
    <path
       sodipodi:nodetypes="cccc"
       id="path4689"
       d="M 228.2832,73.383846 C 249.09871,70.627876 254.95976,95.104323 251.83623,98.144723 L 229.79301,108.41143 C 227.15837,97.161841 226.89465,85.43807 228.2832,73.383846 z"
       style="fill:#f5e220;fill-opacity:1;fill-rule:evenodd;stroke:none;stroke-width:1px;stroke-linecap:butt;stroke-linejoin:miter;stroke-opacity:1" />
    <path
       sodipodi:nodetypes="cccc"
       id="path4691"
       d="M 238.39892,81.234854 C 248.62822,86.2142 246.91488,100.46345 236.43617,102.67415 C 233.53766,99.942857 232.32479,95.785845 232.66165,91.199597 C 233.12753,87.321654 232.9009,83.177358 238.39892,81.234854 z"
       style="fill:#5473b3;fill-opacity:1;fill-rule:evenodd;stroke:none;stroke-width:1px;stroke-linecap:butt;stroke-linejoin:miter;stroke-opacity:1" />
    <g
       transform="translate(349.06796,44.690363)"
       id="g4699">
      <path
         sodipodi:type="arc"
         style="opacity:1;fill:#000000;fill-opacity:1;stroke:none;stroke-width:0.5;stroke-miterlimit:4;stroke-dasharray:none;stroke-opacity:1"
         id="path4695"
         sodipodi:cx="-109.64217"
         sodipodi:cy="45.799892"
         sodipodi:rx="4.4839058"
         sodipodi:ry="4.4839058"
         d="M -105.15827,45.799892 A 4.4839058,4.4839058 0 1 1 -114.12608,45.799892 A 4.4839058,4.4839058 0 1 1 -105.15827,45.799892 z" />
      <path
         sodipodi:type="arc"
         style="opacity:1;fill:#ffffff;fill-opacity:1;stroke:none;stroke-width:0.5;stroke-miterlimit:4;stroke-dasharray:none;stroke-opacity:1"
         id="path4697"
         sodipodi:cx="-116.63493"
         sodipodi:cy="58.557671"
         sodipodi:rx="0.69393778"
         sodipodi:ry="1.0142168"
         d="M -115.941,58.557671 A 0.69393778,1.0142168 0 1 1 -117.32887,58.557671 A 0.69393778,1.0142168 0 1 1 -115.941,58.557671 z"
         transform="translate(5.2312232,-13.558476)" />
    </g>
  </g>
</svg>
