<?xml version="1.0" encoding="iso-8859-1"?>
<!-- Generator: Adobe Illustrator 9.0, SVG Export Plug-In  -->
<!DOCTYPE svg PUBLIC "-//W3C//DTD SVG 20000303 Stylable//EN"   "http://www.w3.org/TR/2000/03/WD-SVG-20000303/DTD/svg-20000303-stylable.dtd" [
	<!ENTITY st0 "opacity:0.44;fill:#FFFFFF;stroke:none;">
	<!ENTITY st1 "fill:url(#aigrd14);stroke:none;">
	<!ENTITY st2 "fill:url(#aigrd1);stroke:none;">
	<!ENTITY st3 "fill:url(#aigrd11);stroke:none;">
	<!ENTITY st4 "fill:url(#aigrd9);stroke:none;">
	<!ENTITY st5 "fill:url(#aigrd21);stroke:none;">
	<!ENTITY st6 "opacity:0.33;fill:#BCBCBC;stroke:none;">
	<!ENTITY st7 "fill:url(#aigrd19);stroke:none;">
	<!ENTITY st8 "fill:url(#aigrd6);stroke:none;">
	<!ENTITY st9 "fill:url(#aigrd16);stroke:none;">
	<!ENTITY st10 "fill:url(#aigrd3);stroke:none;">
	<!ENTITY st11 "fill:url(#aigrd13);stroke:none;">
	<!ENTITY st12 "opacity:0.2;fill:url(#aigrd24);stroke:none;">
	<!ENTITY st13 "fill:url(#aigrd23);stroke:none;">
	<!ENTITY st14 "fill:url(#aigrd10);stroke:none;">
	<!ENTITY st15 "fill:url(#aigrd8);stroke:none;">
	<!ENTITY st16 "fill:url(#aigrd20);stroke:none;">
	<!ENTITY st17 "fill:url(#aigrd18);stroke:none;">
	<!ENTITY st18 "stroke-width:0.8252;">
	<!ENTITY st19 "fill:url(#aigrd5);stroke:none;">
	<!ENTITY st20 "fill:url(#aigrd15);stroke:none;">
	<!ENTITY st21 "fill:url(#aigrd2);stroke:none;">
	<!ENTITY st22 "fill:none;stroke:none;">
	<!ENTITY st23 "fill:url(#aigrd12);stroke:none;">
	<!ENTITY st24 "fill:url(#aigrd22);stroke:none;">
	<!ENTITY st25 "fill-rule:nonzero;clip-rule:nonzero;stroke:#000000;stroke-miterlimit:4;">
	<!ENTITY st26 "fill:url(#aigrd7);stroke:none;">
	<!ENTITY st27 "fill:#FFBA00;stroke:none;">
	<!ENTITY st28 "fill:url(#aigrd17);stroke:none;">
	<!ENTITY st29 "opacity:9.000000e-002;stroke:none;">
	<!ENTITY st30 "fill:url(#aigrd4);stroke:none;">
]>
<svg  width="24pt" height="24pt" viewBox="0 0 24 24" xml:space="preserve">
	<g id="Layer_x0020_2" style="&st25;">
		<path style="&st18;" d="M7.3,2.8C5.5,3.6,4.5,4.8,4.5,6v3c0,0.5,0.2,1.2,0.9,2c0,0.7,0,7.7,0,7.7c0,1.2,0.9,2.3,2.6,3c1.5,0.6,3.4,1,5.5,1c2.1,0,4-0.4,5.5-1c1.7-0.7,2.6-1.8,2.6-3c0,0,0-7.2,0-7.8c0.7-0.7,0.8-1.4,0.8-1.9V6c0-1.3-1-2.5-2.9-3.3
			c-1.6-0.7-3.8-1.1-6.1-1.1S9,2.1,7.3,2.8z"/>
		<linearGradient id="aigrd1" gradientUnits="userSpaceOnUse" x1="10.9946" y1="12.4829" x2="20.2988" y2="12.4334">
			<stop  offset="0" style="stop-color:#BBBBBB"/>
			<stop  offset="1" style="stop-color:#707070"/>
		</linearGradient>
		<path style="&st2;" d="M13.5,3.1c-4,0-7.3,1.4-7.3,3.2v12.3c0,1.8,3.3,3.2,7.3,3.2c4,0,7.3-1.4,7.3-3.2V6.3c0-1.8-3.3-3.2-7.3-3.2z"/>
		<linearGradient id="aigrd2" gradientUnits="userSpaceOnUse" x1="8.1006" y1="18.6328" x2="9.4964" y2="11.6538">
			<stop  offset="0" style="stop-color:#BBBBBB"/>
			<stop  offset="1" style="stop-color:#F3F3F3"/>
		</linearGradient>
		<path style="&st21;" d="M7.2,10.6v8l3.2,0.4v-7.8l-3.2-0.6z"/>
		<path style="&st29;" d="M20.7,13.5c-0.3-1.8-5.1-0.3-6.9-1l6.9-2.2c0,0,0.3,5,0,3.2z"/>
		<linearGradient id="aigrd3" gradientUnits="userSpaceOnUse" x1="7.0879" y1="7.4263" x2="15.7571" y2="7.4263">
			<stop  offset="0" style="stop-color:#BBBBBB"/>
			<stop  offset="1" style="stop-color:#707070"/>
		</linearGradient>
		<path style="&st10;" d="M13.4,2.4C8.9,2.4,5.3,4,5.3,5.9v3c0,2,3.7,3.6,8.2,3.6s8.2-1.6,8.2-3.6v-3c0-2-3.7-3.6-8.2-3.6z"/>
		<linearGradient id="aigrd4" gradientUnits="userSpaceOnUse" x1="8.688" y1="5.7964" x2="17.5554" y2="5.6973">
			<stop  offset="0" style="stop-color:#4E4E4E"/>
			<stop  offset="1" style="stop-color:#707070"/>
		</linearGradient>
		<path style="&st30;" d="M20.2,5.7c0,1.5-3,2.6-6.7,2.6c-3.7,0-6.7-1.2-6.7-2.6s3-2.6,6.7-2.6c3.7,0,6.7,1.2,6.7,2.6z"/>
		<path style="&st0;" d="M5.8,5.6c0.2,1.5,2,3.8,9.5,3.9C9.5,10.1,5.1,8.5,5.8,5.6z"/>
		<path style="&st6;" d="M18.9,7.4c3.1-2.2-1.8-5.1-8.8-3.9c6.3-1.7,13.8,1.4,8.8,3.9z"/>
		<g>
			<linearGradient id="aigrd5" gradientUnits="userSpaceOnUse" x1="11.4575" y1="11.1797" x2="11.4575" y2="8.0758">
				<stop  offset="0" style="stop-color:#C5C5C5"/>
				<stop  offset="0.2838" style="stop-color:#D1D1D1"/>
				<stop  offset="0.7942" style="stop-color:#F0F0F0"/>
				<stop  offset="1" style="stop-color:#FFFFFF"/>
			</linearGradient>
			<path style="&st19;" d="M12,7.8l0.5-0.2c-0.6-0.9-1.1-1.7-1.1-2.3c-0.4,0.2-0.8,0.5-1.2,0.9h1v2.1c0.5,0.1,1,0.1,1.5,0.1l0,0L12,7.8z"/>
			<linearGradient id="aigrd6" gradientUnits="userSpaceOnUse" x1="9.9956" y1="11.1812" x2="9.9956" y2="8.0764">
				<stop  offset="0" style="stop-color:#C5C5C5"/>
				<stop  offset="0.2838" style="stop-color:#D1D1D1"/>
				<stop  offset="0.7942" style="stop-color:#F0F0F0"/>
				<stop  offset="1" style="stop-color:#FFFFFF"/>
			</linearGradient>
			<path style="&st8;" d="M9,7.7c0.6,0.2,1.2,0.4,1.9,0.5L9.5,7C9.3,7.2,9.2,7.5,9,7.7z"/>
			<linearGradient id="aigrd7" gradientUnits="userSpaceOnUse" x1="9.5913" y1="5.1885" x2="8.9117" y2="8.5411">
				<stop  offset="0" style="stop-color:#C5C5C5"/>
				<stop  offset="1" style="stop-color:#FFFFFF"/>
			</linearGradient>
			<path style="&st26;" d="M9.4,6.2l1.4-0.7L10.2,5l0.4-0.8L8.2,6l1.3,1c0.2-0.3,0.5-0.6,0.7-0.9H9.4z"/>
			<linearGradient id="aigrd8" gradientUnits="userSpaceOnUse" x1="10.3433" y1="11.1802" x2="10.3433" y2="8.076">
				<stop  offset="0" style="stop-color:#C5C5C5"/>
				<stop  offset="0.2838" style="stop-color:#D1D1D1"/>
				<stop  offset="0.7942" style="stop-color:#F0F0F0"/>
				<stop  offset="1" style="stop-color:#FFFFFF"/>
			</linearGradient>
			<path style="&st15;" d="M10.2,6.2C9.9,6.4,9.7,6.7,9.5,7L11,8.2c0.1,0,0.2,0,0.3,0V6.2h-1z"/>
			<linearGradient id="aigrd9" gradientUnits="userSpaceOnUse" x1="10.7876" y1="5.4307" x2="10.108" y2="8.7831">
				<stop  offset="0" style="stop-color:#C5C5C5"/>
				<stop  offset="1" style="stop-color:#FFFFFF"/>
			</linearGradient>
			<path style="&st4;" d="M10.2,6.2C9.9,6.4,9.7,6.7,9.5,7L11,8.2c0.1,0,0.2,0,0.3,0V6.2h-1z"/>
			<linearGradient id="aigrd10" gradientUnits="userSpaceOnUse" x1="13.4385" y1="6.4409" x2="12.5233" y2="10.9556">
				<stop  offset="0" style="stop-color:#C5C5C5"/>
				<stop  offset="1" style="stop-color:#FFFFFF"/>
			</linearGradient>
			<path style="&st14;" d="M14.1,5.7c-0.4,0.1-0.9,0.2-1.3,0.4c0.5,0.5,0.9,1,1.2,1.4c0.3-0.5,0.4-1.1,0.1-1.8z"/>
			<linearGradient id="aigrd11" gradientUnits="userSpaceOnUse" x1="16.7666" y1="7.1499" x2="15.8788" y2="11.5295">
				<stop  offset="0" style="stop-color:#C5C5C5"/>
				<stop  offset="1" style="stop-color:#FFFFFF"/>
			</linearGradient>
			<path style="&st3;" d="M14.4,5.6c0.6,0.9,1.4,2,1.8,2.5c1.4-0.2,2.5-0.7,3.2-1.2c-0.4-0.5-1.8-2-5-1.4z"/>
			<linearGradient id="aigrd12" gradientUnits="userSpaceOnUse" x1="12.7314" y1="-0.6079" x2="12.4526" y2="0.7676" gradientTransform="matrix(0.7871 0.6168 -0.6168 0.7871 2.9023 0.1809)">
				<stop  offset="0" style="stop-color:#C5C5C5"/>
				<stop  offset="1" style="stop-color:#FFFFFF"/>
			</linearGradient>
			<path style="&st23;" d="M13.6,8l-0.1-0.1l0.1-0.7l-1.1,0.4c0.2,0.3,0.4,0.5,0.6,0.8c0.2-0.1,0.3-0.2,0.5-0.4z"/>
			<linearGradient id="aigrd13" gradientUnits="userSpaceOnUse" x1="12.5244" y1="11.1792" x2="12.5244" y2="8.0755">
				<stop  offset="0" style="stop-color:#C5C5C5"/>
				<stop  offset="0.2838" style="stop-color:#D1D1D1"/>
				<stop  offset="0.7942" style="stop-color:#F0F0F0"/>
				<stop  offset="1" style="stop-color:#FFFFFF"/>
			</linearGradient>
			<path style="&st11;" d="M12.5,7.6L12,7.8l0.7,0.6l0,0c0.1,0,0.2,0,0.3,0c0,0,0,0,0,0c-0.2-0.3-0.4-0.5-0.6-0.8z"/>
			<linearGradient id="aigrd14" gradientUnits="userSpaceOnUse" x1="12.6221" y1="-0.6304" x2="12.3431" y2="0.7456" gradientTransform="matrix(0.7871 0.6168 -0.6168 0.7871 2.9023 0.1809)">
				<stop  offset="0" style="stop-color:#C5C5C5"/>
				<stop  offset="1" style="stop-color:#FFFFFF"/>
			</linearGradient>
			<path style="&st1;" d="M12.5,7.6L12,7.8l0.7,0.6l0,0c0.1,0,0.2,0,0.3,0c0,0,0,0,0,0c-0.2-0.3-0.4-0.5-0.6-0.8z"/>
			<linearGradient id="aigrd15" gradientUnits="userSpaceOnUse" x1="13.9883" y1="8.5249" x2="13.9883" y2="6.3745">
				<stop  offset="0" style="stop-color:#C5C5C5"/>
				<stop  offset="0.2838" style="stop-color:#D1D1D1"/>
				<stop  offset="0.7942" style="stop-color:#F0F0F0"/>
				<stop  offset="1" style="stop-color:#FFFFFF"/>
			</linearGradient>
			<path style="&st20;" d="M13.8,5.1c0.1,0.2,0.2,0.4,0.3,0.6c0.1,0,0.2-0.1,0.3-0.1c-0.8-1.1-1.4-1.8-0.6-0.5z"/>
			<linearGradient id="aigrd16" gradientUnits="userSpaceOnUse" x1="14.04" y1="8.5264" x2="14.04" y2="6.3737">
				<stop  offset="0" style="stop-color:#C5C5C5"/>
				<stop  offset="0.2838" style="stop-color:#D1D1D1"/>
				<stop  offset="0.7942" style="stop-color:#F0F0F0"/>
				<stop  offset="1" style="stop-color:#FFFFFF"/>
			</linearGradient>
			<path style="&st9;" d="M13.6,8l0.3,0.4c0.2,0,0.4,0,0.6,0c-0.1-0.3-0.3-0.5-0.5-0.8c-0.1,0.2-0.2,0.3-0.4,0.5z"/>
			<linearGradient id="aigrd17" gradientUnits="userSpaceOnUse" x1="15.2041" y1="6.7988" x2="14.2887" y2="11.3144">
				<stop  offset="0" style="stop-color:#C5C5C5"/>
				<stop  offset="1" style="stop-color:#FFFFFF"/>
			</linearGradient>
			<path style="&st28;" d="M14.1,5.7C14.4,6.4,14.3,7,14,7.5c0.2,0.3,0.4,0.6,0.5,0.8c0.6,0,1.2-0.1,1.8-0.2c-0.4-0.6-1.2-1.7-1.8-2.5c-0.1,0-0.2,0-0.3,0.1z"/>
			<linearGradient id="aigrd18" gradientUnits="userSpaceOnUse" x1="15.1182" y1="8.5259" x2="15.1182" y2="6.3749">
				<stop  offset="0" style="stop-color:#C5C5C5"/>
				<stop  offset="0.2838" style="stop-color:#D1D1D1"/>
				<stop  offset="0.7942" style="stop-color:#F0F0F0"/>
				<stop  offset="1" style="stop-color:#FFFFFF"/>
			</linearGradient>
			<path style="&st17;" d="M14.1,5.7C14.4,6.4,14.3,7,14,7.5c0.2,0.3,0.4,0.6,0.5,0.8c0.6,0,1.2-0.1,1.8-0.2c-0.4-0.6-1.2-1.7-1.8-2.5c-0.1,0-0.2,0-0.3,0.1z"/>
			<linearGradient id="aigrd19" gradientUnits="userSpaceOnUse" x1="13.4492" y1="-0.4619" x2="13.1707" y2="0.912" gradientTransform="matrix(0.7871 0.6168 -0.6168 0.7871 2.9023 0.1809)">
				<stop  offset="0" style="stop-color:#C5C5C5"/>
				<stop  offset="1" style="stop-color:#FFFFFF"/>
			</linearGradient>
			<path style="&st7;" d="M13.1,8.4c0,0,0,0,0,0c0.1,0,0.3,0,0.4,0c0.1,0,0.2,0,0.3,0L13.6,8c-0.2,0.2-0.3,0.3-0.5,0.4z"/>
			<linearGradient id="aigrd20" gradientUnits="userSpaceOnUse" x1="13.4697" y1="8.5259" x2="13.4697" y2="6.3733">
				<stop  offset="0" style="stop-color:#C5C5C5"/>
				<stop  offset="0.2838" style="stop-color:#D1D1D1"/>
				<stop  offset="0.7942" style="stop-color:#F0F0F0"/>
				<stop  offset="1" style="stop-color:#FFFFFF"/>
			</linearGradient>
			<path style="&st16;" d="M13.1,8.4c0,0,0,0,0,0c0.1,0,0.3,0,0.4,0c0.1,0,0.2,0,0.3,0L13.6,8c-0.2,0.2-0.3,0.3-0.5,0.4z"/>
			<linearGradient id="aigrd21" gradientUnits="userSpaceOnUse" x1="13.0723" y1="11.1147" x2="13.0723" y2="8.0826">
				<stop  offset="0" style="stop-color:#C5C5C5"/>
				<stop  offset="0.2838" style="stop-color:#D1D1D1"/>
				<stop  offset="0.7942" style="stop-color:#F0F0F0"/>
				<stop  offset="1" style="stop-color:#FFFFFF"/>
			</linearGradient>
			<path style="&st5;" d="M13.1,8.4c0,0,0,0,0,0c0,0,0,0,0,0c0,0,0,0,0,0z"/>
			<linearGradient id="aigrd22" gradientUnits="userSpaceOnUse" x1="13.2061" y1="-0.5464" x2="12.9139" y2="0.895" gradientTransform="matrix(0.7871 0.6168 -0.6168 0.7871 2.9023 0.1809)">
				<stop  offset="0" style="stop-color:#C5C5C5"/>
				<stop  offset="1" style="stop-color:#FFFFFF"/>
			</linearGradient>
			<path style="&st24;" d="M13.1,8.4c0,0,0,0,0,0c0,0,0,0,0,0c0,0,0,0,0,0z"/>
			<linearGradient id="aigrd23" gradientUnits="userSpaceOnUse" x1="13.0723" y1="8.522" x2="13.0723" y2="6.4209">
				<stop  offset="0" style="stop-color:#C5C5C5"/>
				<stop  offset="0.2838" style="stop-color:#D1D1D1"/>
				<stop  offset="0.7942" style="stop-color:#F0F0F0"/>
				<stop  offset="1" style="stop-color:#FFFFFF"/>
			</linearGradient>
			<path style="&st13;" d="M13.1,8.4c0,0,0,0,0,0c0,0,0,0,0,0c0,0,0,0,0,0z"/>
		</g>
	</g>
	<g id="Layer_x0020_3" style="&st25;">
		<path style="&st18;" d="M7.6,2.1l-6,6.1l0,0C1.5,8.2,1.2,8.5,1.2,8.9c0,0.4,0.2,0.6,0.4,0.8l6,6c0.3,0.3,0.7,0.3,1,0.2c0.3-0.1,0.6-0.5,0.6-0.8c0,0,0-1.8,0-2.8c0.4,0,0.8,0,0.8,0c0.1,0,0.5,0,0.7,0.2c0.2,0.1,0.3,0.3,0.3,0.5v1.6c0,0.4-0.9,0.9-1.5,1.1
			c-0.3,0.1-0.5,0.2-0.7,0.3c-0.4,0.3-0.6,0.6-0.6,1c0,0.8,0.7,1.3,1.3,1.4l0.1,0h2.2c2.6,0,3.9-2.4,3.9-4.7v-2.7c0-1.7-0.5-3.1-1.4-4.1c-0.9-0.9-2.2-1.4-3.7-1.4c0,0-0.8,0-1.5,0c0-1,0-2.8,0-2.8c0-0.4-0.2-0.7-0.6-0.9c-0.3-0.1-0.8-0.1-1,0.2z"/>
		<path style="&st27;" d="M8.3,2.7c0-0.1-0.1-0.1-0.2-0.1l-6,6.1C2,8.9,2,9,2.1,9.1l6,6c0.1,0.1,0.1,0,0.1,0v-3.6H10c0.5,0,1.9,0.3,1.9,1.6v1.6c0,1.5-2.7,1.9-2.7,2.4c0,0.5,0.6,0.6,0.6,0.6h2.1c2.1,0,3.1-1.9,3.1-3.9v-2.7c0-3.2-1.8-4.7-4.3-4.7H8.3l0-3.6z"/>
		<linearGradient id="aigrd24" gradientUnits="userSpaceOnUse" x1="8.0854" y1="13.0596" x2="8.0854" y2="9.2357">
			<stop  offset="0" style="stop-color:#FFBA00"/>
			<stop  offset="1" style="stop-color:#000000"/>
		</linearGradient>
		<path style="&st12;" d="M2.9,8.9h8c1.2,0,2.4,1.3,2.4,2.4v4c0-2.5-1.1-4.7-2.2-4.7H7.8v2.9L2.9,8.9z"/>
	</g>
	<g id="Layer_x0020_4" style="&st25;">
		<path style="&st22;" d="M24,24H0V0h24v24z"/>
	</g>
</svg>
