<?xml version="1.0" encoding="UTF-8" standalone="no"?>
<svg
   xmlns:dc="http://purl.org/dc/elements/1.1/"
   xmlns:cc="http://creativecommons.org/ns#"
   xmlns:rdf="http://www.w3.org/1999/02/22-rdf-syntax-ns#"
   xmlns:svg="http://www.w3.org/2000/svg"
   xmlns="http://www.w3.org/2000/svg"
   xmlns:xlink="http://www.w3.org/1999/xlink"
   xmlns:sodipodi="http://sodipodi.sourceforge.net/DTD/sodipodi-0.dtd"
   xmlns:inkscape="http://www.inkscape.org/namespaces/inkscape"
   version="1.1"
   width="64"
   height="64"
   color-interpolation="linearRGB"
   id="svg2"
   sodipodi:version="0.32"
   inkscape:version="0.47 r22583"
   sodipodi:docname="user_profile.svg"
   inkscape:output_extension="org.inkscape.output.svg.inkscape">
  <metadata
     id="metadata61">
    <rdf:RDF>
      <cc:Work
         rdf:about="">
        <dc:format>image/svg+xml</dc:format>
        <dc:type
           rdf:resource="http://purl.org/dc/dcmitype/StillImage" />
        <dc:title></dc:title>
      </cc:Work>
    </rdf:RDF>
  </metadata>
  <defs
     id="defs59">
    <inkscape:perspective
       sodipodi:type="inkscape:persp3d"
       inkscape:vp_x="0 : 32 : 1"
       inkscape:vp_y="0 : 1000 : 0"
       inkscape:vp_z="64 : 32 : 1"
       inkscape:persp3d-origin="32 : 21.333333 : 1"
       id="perspective63" />
    <inkscape:perspective
       id="perspective2518"
       inkscape:persp3d-origin="32 : 21.333333 : 1"
       inkscape:vp_z="64 : 32 : 1"
       inkscape:vp_y="0 : 1000 : 0"
       inkscape:vp_x="0 : 32 : 1"
       sodipodi:type="inkscape:persp3d" />
    <linearGradient
       inkscape:collect="always"
       xlink:href="#gradient0"
       id="linearGradient2581"
       gradientUnits="userSpaceOnUse"
       x1="73.74"
       y1="-57.07"
       x2="116.61"
       y2="-8.05" />
    <linearGradient
       inkscape:collect="always"
       xlink:href="#gradient1"
       id="linearGradient2583"
       gradientUnits="userSpaceOnUse"
       x1="-43.97"
       y1="-38.98"
       x2="-24.83"
       y2="-56.95" />
    <linearGradient
       inkscape:collect="always"
       xlink:href="#gradient2"
       id="linearGradient2585"
       gradientUnits="userSpaceOnUse"
       x1="54.23"
       y1="-52.61"
       x2="75.84"
       y2="-45.97" />
    <linearGradient
       inkscape:collect="always"
       xlink:href="#gradient3"
       id="linearGradient2587"
       gradientUnits="userSpaceOnUse"
       x1="25.92"
       y1="-64"
       x2="36.07"
       y2="-64" />
    <radialGradient
       inkscape:collect="always"
       xlink:href="#gradient4"
       id="radialGradient2589"
       gradientUnits="userSpaceOnUse"
       gradientTransform="matrix(0.1736,0,0,0.1696,22.625,6.375)"
       cx="0"
       cy="0"
       r="64" />
    <linearGradient
       inkscape:collect="always"
       xlink:href="#gradient5"
       id="linearGradient2591"
       gradientUnits="userSpaceOnUse"
       x1="54.23"
       y1="-52.61"
       x2="75.84"
       y2="-45.97" />
    <linearGradient
       y2="396.23099"
       x2="-165.3002"
       y1="375.40329"
       x1="-175.94479"
       gradientTransform="matrix(1,0,0,-1,235.1714,481.9902)"
       gradientUnits="userSpaceOnUse"
       id="linearGradient3296"
       xlink:href="#XMLID_8_"
       inkscape:collect="always" />
    <linearGradient
       y2="428.6254"
       x2="-133.683"
       y1="419.70309"
       x1="-139.4839"
       gradientTransform="matrix(1,0,0,-1,235.1714,481.9902)"
       gradientUnits="userSpaceOnUse"
       id="linearGradient3294"
       xlink:href="#XMLID_7_"
       inkscape:collect="always" />
    <linearGradient
       y2="371.26559"
       x2="-131.42731"
       y1="387.64059"
       x1="-119.5254"
       gradientTransform="matrix(1,0,0,-1,235.1714,481.9902)"
       gradientUnits="userSpaceOnUse"
       id="linearGradient3292"
       xlink:href="#XMLID_6_"
       inkscape:collect="always" />
    <linearGradient
       gradientTransform="matrix(1,0,0,-1,235.1714,481.9902)"
       y2="396.23099"
       x2="-165.3002"
       y1="375.40329"
       x1="-175.94479"
       gradientUnits="userSpaceOnUse"
       id="XMLID_8_">
      <stop
         id="stop227"
         style="stop-color:#E6E6E6"
         offset="0" />
      <stop
         id="stop228"
         style="stop-color:#EAC8C8"
         offset="0.2673" />
      <stop
         id="stop229"
         style="stop-color:#F67A7A"
         offset="0.8478" />
      <stop
         id="stop230"
         style="stop-color:#F96565"
         offset="1" />
    </linearGradient>
    <linearGradient
       y2="396.23099"
       x2="-165.3002"
       y1="375.40329"
       x1="-175.94479"
       gradientTransform="matrix(1,0,0,-1,235.1714,481.9902)"
       gradientUnits="userSpaceOnUse"
       id="linearGradient3150"
       xlink:href="#XMLID_8_"
       inkscape:collect="always" />
    <linearGradient
       gradientTransform="matrix(1,0,0,-1,235.1714,481.9902)"
       y2="428.6254"
       x2="-133.683"
       y1="419.70309"
       x1="-139.4839"
       gradientUnits="userSpaceOnUse"
       id="XMLID_7_">
      <stop
         id="stop214"
         style="stop-color:#E6E6E6"
         offset="0" />
      <stop
         id="stop215"
         style="stop-color:#EAC8C8"
         offset="0.2673" />
      <stop
         id="stop216"
         style="stop-color:#F67A7A"
         offset="0.8478" />
      <stop
         id="stop217"
         style="stop-color:#F96565"
         offset="1" />
    </linearGradient>
    <linearGradient
       y2="428.6254"
       x2="-133.683"
       y1="419.70309"
       x1="-139.4839"
       gradientTransform="matrix(1,0,0,-1,235.1714,481.9902)"
       gradientUnits="userSpaceOnUse"
       id="linearGradient3148"
       xlink:href="#XMLID_7_"
       inkscape:collect="always" />
    <linearGradient
       gradientTransform="matrix(1,0,0,-1,235.1714,481.9902)"
       y2="371.26559"
       x2="-131.42731"
       y1="387.64059"
       x1="-119.5254"
       gradientUnits="userSpaceOnUse"
       id="XMLID_6_">
      <stop
         id="stop205"
         style="stop-color:#FFFFFF"
         offset="0" />
      <stop
         id="stop206"
         style="stop-color:#1A1A1A"
         offset="1" />
    </linearGradient>
    <linearGradient
       y2="371.26559"
       x2="-131.42731"
       y1="387.64059"
       x1="-119.5254"
       gradientTransform="matrix(1,0,0,-1,235.1714,481.9902)"
       gradientUnits="userSpaceOnUse"
       id="linearGradient3146"
       xlink:href="#XMLID_6_"
       inkscape:collect="always" />
    <inkscape:perspective
       sodipodi:type="inkscape:persp3d"
       inkscape:vp_x="0 : 0.5 : 1"
       inkscape:vp_y="0 : 1000 : 0"
       inkscape:vp_z="1 : 0.5 : 1"
       inkscape:persp3d-origin="0.5 : 0.33333333 : 1"
       id="perspective3160" />
    <radialGradient
       gradientUnits="userSpaceOnUse"
       gradientTransform="matrix(1.4491017,0.02209594,-0.0255303,1.6743348,-9.8849927,-12.213469)"
       r="15.5625"
       fy="16.305218"
       fx="22.9375"
       cy="16.305218"
       cx="22.9375"
       id="radialGradient5243"
       xlink:href="#linearGradient5237"
       inkscape:collect="always" />
    <radialGradient
       r="10"
       fy="26.6875"
       fx="14.5"
       cy="26.6875"
       cx="14.5"
       gradientTransform="matrix(1,0,0,0.29375,0,18.848047)"
       gradientUnits="userSpaceOnUse"
       id="radialGradient5330"
       xlink:href="#linearGradient5224"
       inkscape:collect="always" />
    <radialGradient
       gradientTransform="matrix(2.2469896,0,0,2.2469896,-37.128341,-8.8439229)"
       gradientUnits="userSpaceOnUse"
       r="25.380436"
       fy="7.0922189"
       fx="29.77438"
       cy="7.0922189"
       cx="29.77438"
       id="radialGradient5306"
       xlink:href="#linearGradient5300"
       inkscape:collect="always" />
    <radialGradient
       gradientUnits="userSpaceOnUse"
       gradientTransform="matrix(1,0,0,0.29375,0,18.848047)"
       r="10"
       fy="26.6875"
       fx="14.5"
       cy="26.6875"
       cx="14.5"
       id="radialGradient5230"
       xlink:href="#linearGradient5224"
       inkscape:collect="always" />
    <linearGradient
       id="linearGradient5224"
       inkscape:collect="always">
      <stop
         id="stop5226"
         offset="0"
         style="stop-color:#000000;stop-opacity:1;" />
      <stop
         id="stop5228"
         offset="1"
         style="stop-color:#000000;stop-opacity:0;" />
    </linearGradient>
    <linearGradient
       id="linearGradient5300"
       inkscape:collect="always">
      <stop
         id="stop5302"
         offset="0"
         style="stop-color:#ffffff;stop-opacity:1;" />
      <stop
         id="stop5304"
         offset="1"
         style="stop-color:#ffffff;stop-opacity:0;" />
    </linearGradient>
    <linearGradient
       id="linearGradient5226">
      <stop
         id="stop5229"
         offset="0"
         style="stop-color:#63b512;stop-opacity:1;" />
      <stop
         style="stop-color:#58a30e;stop-opacity:1;"
         offset="0.16030352"
         id="stop5245" />
      <stop
         style="stop-color:#366b04;stop-opacity:1"
         offset="0.66008514"
         id="stop5235" />
      <stop
         id="stop5231"
         offset="1"
         style="stop-color:#87ea25;stop-opacity:1" />
    </linearGradient>
    <linearGradient
       id="linearGradient5237">
      <stop
         id="stop5239"
         offset="0"
         style="stop-color:#ffffff;stop-opacity:1;" />
      <stop
         style="stop-color:#ffffff;stop-opacity:1;"
         offset="0.5"
         id="stop5247" />
      <stop
         id="stop5241"
         offset="1"
         style="stop-color:#9c9c9c;stop-opacity:1" />
    </linearGradient>
    <inkscape:perspective
       id="perspective35"
       inkscape:persp3d-origin="24 : 16 : 1"
       inkscape:vp_z="48 : 24 : 1"
       inkscape:vp_y="0 : 1000 : 0"
       inkscape:vp_x="0 : 24 : 1"
       sodipodi:type="inkscape:persp3d" />
  </defs>
  <sodipodi:namedview
     inkscape:window-height="682"
     inkscape:window-width="1106"
     inkscape:pageshadow="2"
     inkscape:pageopacity="0.0"
     guidetolerance="10.0"
     gridtolerance="10.0"
     objecttolerance="10.0"
     borderopacity="1.0"
     bordercolor="#666666"
     pagecolor="#ffffff"
     id="base"
     showgrid="false"
     inkscape:zoom="6.515625"
     inkscape:cx="36.977239"
     inkscape:cy="32.137339"
     inkscape:window-x="85"
     inkscape:window-y="43"
     inkscape:current-layer="svg2"
     inkscape:window-maximized="1" />
  <g
     id="g4"
     transform="translate(-10.575107,-0.1373391)">
    <path
       style="fill:#010101;fill-opacity:0.41170002"
       d="M 26,63 C 26,63 31,63 36,63 C 41,63 46.2,59.96 50.75,60.12 C 61.12,60.5 64.25,56.37 57.87,54.37 C 54.04,53.17 50,55 46,53 C 44,52 34,52 34,52 L 34,56 L 26,63 z"
       id="path6" />
    <path
       style="fill:none;stroke:#000000;stroke-width:4"
       d="M 14,16 L 14,35 L 16,37 L 16,57 L 20,59 L 22,59 L 22,60 L 26,62 L 32,56 L 32,39 L 34,37 L 34,18 L 21,12 L 14,16 z"
       id="path8" />
    <linearGradient
       id="gradient0"
       gradientUnits="userSpaceOnUse"
       x1="73.739998"
       y1="-57.07"
       x2="116.61"
       y2="-8.0500002">
      <stop
         offset="0"
         stop-color="#ffdb97"
         id="stop11" />
      <stop
         offset="1"
         stop-color="#fcaf29"
         id="stop13" />
    </linearGradient>
    <path
       style="fill:url(#linearGradient2581)"
       d="M 14,16 L 14,34 L 16,37 L 16,57 L 20,59 L 22,59 L 22,60 L 26,62 L 26,42 L 28,42 L 28,22 L 14,16 z"
       id="path15" />
    <linearGradient
       id="gradient1"
       gradientUnits="userSpaceOnUse"
       x1="-43.970001"
       y1="-38.98"
       x2="-24.83"
       y2="-56.950001">
      <stop
         offset="0"
         stop-color="#fff7ea"
         id="stop18" />
      <stop
         offset="0.9962"
         stop-color="#fdd17b"
         id="stop20" />
    </linearGradient>
    <path
       style="fill:url(#linearGradient2583)"
       d="M 14,16 L 28,22 L 34,18 L 22,16 L 25.99,13.99 L 21,12 L 14,16 z"
       id="path22" />
    <linearGradient
       id="gradient2"
       gradientUnits="userSpaceOnUse"
       x1="54.23"
       y1="-52.610001"
       x2="75.839996"
       y2="-45.970001">
      <stop
         offset="0"
         stop-color="#c85805"
         id="stop25" />
      <stop
         offset="1"
         stop-color="#f06306"
         id="stop27" />
    </linearGradient>
    <path
       style="fill:url(#linearGradient2585)"
       d="M 28,42 L 26,42 L 26,62 L 32,56 L 32,39 L 34,37 L 34,18 L 28,22 L 28,42 z"
       id="path29" />
    <path
       style="fill:#a32904"
       d="M 26,42 L 26,48 L 32,39 L 28,42 L 26,42 z"
       id="path31" />
    <linearGradient
       id="gradient3"
       gradientUnits="userSpaceOnUse"
       x1="25.92"
       y1="-64"
       x2="36.07"
       y2="-64">
      <stop
         offset="0"
         stop-color="#c85804"
         id="stop34" />
      <stop
         offset="1"
         stop-color="#dc952f"
         id="stop36" />
    </linearGradient>
    <path
       style="fill:url(#linearGradient2587)"
       d="M 22,16 L 34,18 L 26,14 L 22,16 z"
       id="path38" />
    <path
       style="fill:none;stroke:#000000;stroke-width:4"
       d="M 24,2 C 21,2 18,5 18,8 C 18,11 21,14 24,14 C 27,14 30,11 30,8 C 30,5 27,2 24,2 z"
       id="path40" />
    <radialGradient
       id="gradient4"
       gradientUnits="userSpaceOnUse"
       cx="0"
       cy="0"
       r="64"
       gradientTransform="matrix(0.1736,0,0,0.1696,22.625,6.375)">
      <stop
         offset="0"
         stop-color="#f2f2f2"
         id="stop43" />
      <stop
         offset="1"
         stop-color="#bca184"
         id="stop45" />
      <stop
         offset="0.6742"
         stop-color="#7d7a7a"
         id="stop47" />
    </radialGradient>
    <path
       style="fill:url(#radialGradient2589)"
       d="M 24,2 C 21,2 18,5 18,8 C 18,11 21,14 24,14 C 27,14 30,11 30,8 C 30,5 27,2 24,2 z"
       id="path49" />
    <linearGradient
       id="gradient5"
       gradientUnits="userSpaceOnUse"
       x1="54.23"
       y1="-52.610001"
       x2="75.839996"
       y2="-45.970001">
      <stop
         offset="0"
         stop-color="#c85805"
         id="stop52" />
      <stop
         offset="1"
         stop-color="#f06306"
         id="stop54" />
    </linearGradient>
    <path
       style="fill:url(#linearGradient2591)"
       d="M 20,59 L 22,59 L 22,42 L 20,41 L 20,59 z"
       id="path56" />
  </g>
  <g
     transform="matrix(0.66303026,0,0,0.66303026,-17.325303,-15.570925)"
     id="Layer_1_5_"
     style="stroke:#000000">
    <linearGradient
       gradientTransform="matrix(1,0,0,-1,235.1714,481.9902)"
       y2="371.26559"
       x2="-131.42731"
       y1="387.64059"
       x1="-119.5254"
       gradientUnits="userSpaceOnUse"
       id="linearGradient3181">
      <stop
         id="stop3183"
         style="stop-color:#FFFFFF"
         offset="0" />
      <stop
         id="stop3185"
         style="stop-color:#1A1A1A"
         offset="1" />
    </linearGradient>
    <path
       id="path210"
       d="m 80.999,118.605 41.658,-7.677 v -9.459 l -37.154,8.128 -4.504,9.008 z"
       style="opacity:0.3;fill:url(#linearGradient3292);stroke:none" />
    <path
       id="path211"
       d="m 101.609,48.204 c 0,0 -9.159,1.194 -9.666,1.262 -0.229,0.479 -17.825,36.758 -17.825,36.758 0,0 -6.188,-10.549 -6.504,-11.088 -0.605,0.078 -11.478,1.5 -12.109,1.582 -0.147,0.637 -3.234,13.967 -3.319,14.334 0.197,0.336 16.659,28.396 16.988,28.959 0.504,-0.07 2.203,-0.312 2.203,-0.312 0.002,0 8.273,-0.938 9.621,-1.093 0.236,-0.489 29.494,-61.198 29.772,-61.774 -0.317,-0.365 -1.295,-1.488 -1.295,-1.488 0.004,0.008 -0.004,-0.004 -5.877,-6.922 0,0 -0.205,-0.24 -0.365,-0.43 -0.395,0.052 -1.624,0.212 -1.624,0.212 z"
       style="stroke:none" />
    <path
       id="path212"
       d="M 71.065,116.695 99.113,58.353 107.21,57.277 79.004,115.8 71.065,116.695 z"
       style="fill:#890f05;stroke:none" />
    <linearGradient
       gradientTransform="matrix(1,0,0,-1,235.1714,481.9902)"
       y2="428.6254"
       x2="-133.683"
       y1="419.70309"
       x1="-139.4839"
       gradientUnits="userSpaceOnUse"
       id="linearGradient3190">
      <stop
         id="stop3192"
         style="stop-color:#E6E6E6"
         offset="0" />
      <stop
         id="stop3194"
         style="stop-color:#EAC8C8"
         offset="0.2673" />
      <stop
         id="stop3196"
         style="stop-color:#F67A7A"
         offset="0.8478" />
      <stop
         id="stop3198"
         style="stop-color:#F96565"
         offset="1" />
    </linearGradient>
    <path
       id="path225"
       d="m 99.141,58.359 -5.195,-6.114 8.053,-1.052 5.195,6.117 -8.053,1.049 z"
       style="fill:url(#linearGradient3294);stroke:none" />
    <linearGradient
       gradientTransform="matrix(1,0,0,-1,235.1714,481.9902)"
       y2="396.23099"
       x2="-165.3002"
       y1="375.40329"
       x1="-175.94479"
       gradientUnits="userSpaceOnUse"
       id="linearGradient3201">
      <stop
         id="stop3203"
         style="stop-color:#E6E6E6"
         offset="0" />
      <stop
         id="stop3205"
         style="stop-color:#EAC8C8"
         offset="0.2673" />
      <stop
         id="stop3207"
         style="stop-color:#F67A7A"
         offset="0.8478" />
      <stop
         id="stop3209"
         style="stop-color:#F96565"
         offset="1" />
    </linearGradient>
    <path
       id="path238"
       d="m 70.443,100.691 -12.906,-21.56 9.325,-1.068 11.635,21.578 -8.054,1.05 z"
       style="fill:url(#linearGradient3296);stroke:none" />
    <path
       id="path239"
       d="M 99.141,58.359 70.793,116.809 54.551,90.441 57.532,79.14 70.443,100.71 93.945,52.243 99.141,58.359 z"
       style="fill:#dd1407;stroke:none" />
  </g>
</svg>
