<?xml version="1.0" encoding="UTF-8" standalone="no"?>
<svg
   xmlns:dc="http://purl.org/dc/elements/1.1/"
   xmlns:cc="http://creativecommons.org/ns#"
   xmlns:rdf="http://www.w3.org/1999/02/22-rdf-syntax-ns#"
   xmlns:svg="http://www.w3.org/2000/svg"
   xmlns="http://www.w3.org/2000/svg"
   xmlns:xlink="http://www.w3.org/1999/xlink"
   xmlns:sodipodi="http://sodipodi.sourceforge.net/DTD/sodipodi-0.dtd"
   xmlns:inkscape="http://www.inkscape.org/namespaces/inkscape"
   version="1.1"
   width="64"
   height="64"
   color-interpolation="linearRGB"
   id="svg2"
   sodipodi:version="0.32"
   inkscape:version="0.91 r13725"
   sodipodi:docname="user-tall.svg"
   inkscape:output_extension="org.inkscape.output.svg.inkscape">
  <metadata
     id="metadata61">
    <rdf:RDF>
      <cc:Work
         rdf:about="">
        <dc:format>image/svg+xml</dc:format>
        <dc:type
           rdf:resource="http://purl.org/dc/dcmitype/StillImage" />
        <dc:title></dc:title>
      </cc:Work>
    </rdf:RDF>
  </metadata>
  <defs
     id="defs59">
    <inkscape:perspective
       sodipodi:type="inkscape:persp3d"
       inkscape:vp_x="0 : 32 : 1"
       inkscape:vp_y="0 : 1000 : 0"
       inkscape:vp_z="64 : 32 : 1"
       inkscape:persp3d-origin="32 : 21.333333 : 1"
       id="perspective63" />
    <inkscape:perspective
       id="perspective2518"
       inkscape:persp3d-origin="32 : 21.333333 : 1"
       inkscape:vp_z="64 : 32 : 1"
       inkscape:vp_y="0 : 1000 : 0"
       inkscape:vp_x="0 : 32 : 1"
       sodipodi:type="inkscape:persp3d" />
    <linearGradient
       inkscape:collect="always"
       xlink:href="#gradient0"
       id="linearGradient2581"
       gradientUnits="userSpaceOnUse"
       x1="73.74"
       y1="-57.07"
       x2="116.61"
       y2="-8.05" />
    <linearGradient
       inkscape:collect="always"
       xlink:href="#gradient1"
       id="linearGradient2583"
       gradientUnits="userSpaceOnUse"
       x1="-43.97"
       y1="-38.98"
       x2="-24.83"
       y2="-56.95" />
    <linearGradient
       inkscape:collect="always"
       xlink:href="#gradient2"
       id="linearGradient2585"
       gradientUnits="userSpaceOnUse"
       x1="54.23"
       y1="-52.61"
       x2="75.84"
       y2="-45.97" />
    <linearGradient
       inkscape:collect="always"
       xlink:href="#gradient3"
       id="linearGradient2587"
       gradientUnits="userSpaceOnUse"
       x1="25.92"
       y1="-64"
       x2="36.07"
       y2="-64" />
    <radialGradient
       inkscape:collect="always"
       xlink:href="#gradient4"
       id="radialGradient2589"
       gradientUnits="userSpaceOnUse"
       gradientTransform="matrix(0.1736,0,0,0.1696,22.625,6.375)"
       cx="0"
       cy="0"
       r="64" />
    <linearGradient
       inkscape:collect="always"
       xlink:href="#gradient5"
       id="linearGradient2591"
       gradientUnits="userSpaceOnUse"
       x1="54.23"
       y1="-52.61"
       x2="75.84"
       y2="-45.97" />
  </defs>
  <sodipodi:namedview
     inkscape:window-height="1020"
     inkscape:window-width="1918"
     inkscape:pageshadow="2"
     inkscape:pageopacity="0.0"
     guidetolerance="10.0"
     gridtolerance="10.0"
     objecttolerance="10.0"
     borderopacity="1.0"
     bordercolor="#666666"
     pagecolor="#ffffff"
     id="base"
     showgrid="false"
     inkscape:zoom="11.6875"
     inkscape:cx="32"
     inkscape:cy="32"
     inkscape:window-x="2"
     inkscape:window-y="30"
     inkscape:current-layer="svg2"
     inkscape:window-maximized="1" />
  <g
     id="g4"
     transform="translate(-4.5857007,-0.1373391)">
    <path
       style="fill:#010101;fill-opacity:0.41170002"
       d="m 26,63 c 0,0 5,0 10,0 5,0 10.2,-3.04 14.75,-2.88 10.37,0.38 13.5,-3.75 7.12,-5.75 C 54.04,53.17 50,55 46,53 44,52 34,52 34,52 l 0,4 -8,7 z"
       id="path6"
       inkscape:connector-curvature="0" />
    <path
       style="fill:none;stroke:#000000;stroke-width:4"
       d="m 14,16 0,19 2,2 0,20 4,2 2,0 0,1 4,2 6,-6 0,-17 2,-2 0,-19 -13,-6 -7,4 z"
       id="path8"
       inkscape:connector-curvature="0" />
    <linearGradient
       id="gradient0"
       gradientUnits="userSpaceOnUse"
       x1="73.739998"
       y1="-57.07"
       x2="116.61"
       y2="-8.0500002">
      <stop
         offset="0"
         stop-color="#ffdb97"
         id="stop11" />
      <stop
         offset="1"
         stop-color="#fcaf29"
         id="stop13" />
    </linearGradient>
    <path
       style="fill:url(#linearGradient2581)"
       d="m 14,16 0,18 2,3 0,20 4,2 2,0 0,1 4,2 0,-20 2,0 0,-20 -14,-6 z"
       id="path15"
       inkscape:connector-curvature="0" />
    <linearGradient
       id="gradient1"
       gradientUnits="userSpaceOnUse"
       x1="-43.970001"
       y1="-38.98"
       x2="-24.83"
       y2="-56.950001">
      <stop
         offset="0"
         stop-color="#fff7ea"
         id="stop18" />
      <stop
         offset="0.9962"
         stop-color="#fdd17b"
         id="stop20" />
    </linearGradient>
    <path
       style="fill:url(#linearGradient2583)"
       d="M 14,16 28,22 34,18 22,16 25.99,13.99 21,12 14,16 Z"
       id="path22"
       inkscape:connector-curvature="0" />
    <linearGradient
       id="gradient2"
       gradientUnits="userSpaceOnUse"
       x1="54.23"
       y1="-52.610001"
       x2="75.839996"
       y2="-45.970001">
      <stop
         offset="0"
         stop-color="#c85805"
         id="stop25" />
      <stop
         offset="1"
         stop-color="#f06306"
         id="stop27" />
    </linearGradient>
    <path
       style="fill:url(#linearGradient2585)"
       d="m 28,42 -2,0 0,20 6,-6 0,-17 2,-2 0,-19 -6,4 0,20 z"
       id="path29"
       inkscape:connector-curvature="0" />
    <path
       style="fill:#a32904"
       d="m 26,42 0,6 6,-9 -4,3 -2,0 z"
       id="path31"
       inkscape:connector-curvature="0" />
    <linearGradient
       id="gradient3"
       gradientUnits="userSpaceOnUse"
       x1="25.92"
       y1="-64"
       x2="36.07"
       y2="-64">
      <stop
         offset="0"
         stop-color="#c85804"
         id="stop34" />
      <stop
         offset="1"
         stop-color="#dc952f"
         id="stop36" />
    </linearGradient>
    <path
       style="fill:url(#linearGradient2587)"
       d="m 22,16 12,2 -8,-4 -4,2 z"
       id="path38"
       inkscape:connector-curvature="0" />
    <path
       style="fill:none;stroke:#000000;stroke-width:4"
       d="m 24,2 c -3,0 -6,3 -6,6 0,3 3,6 6,6 3,0 6,-3 6,-6 0,-3 -3,-6 -6,-6 z"
       id="path40"
       inkscape:connector-curvature="0" />
    <radialGradient
       id="gradient4"
       gradientUnits="userSpaceOnUse"
       cx="0"
       cy="0"
       r="64"
       gradientTransform="matrix(0.1736,0,0,0.1696,22.625,6.375)">
      <stop
         offset="0"
         stop-color="#f2f2f2"
         id="stop43" />
      <stop
         offset="1"
         stop-color="#bca184"
         id="stop45" />
      <stop
         offset="0.6742"
         stop-color="#7d7a7a"
         id="stop47" />
    </radialGradient>
    <path
       style="fill:url(#radialGradient2589)"
       d="m 24,2 c -3,0 -6,3 -6,6 0,3 3,6 6,6 3,0 6,-3 6,-6 0,-3 -3,-6 -6,-6 z"
       id="path49"
       inkscape:connector-curvature="0" />
    <linearGradient
       id="gradient5"
       gradientUnits="userSpaceOnUse"
       x1="54.23"
       y1="-52.610001"
       x2="75.839996"
       y2="-45.970001">
      <stop
         offset="0"
         stop-color="#c85805"
         id="stop52" />
      <stop
         offset="1"
         stop-color="#f06306"
         id="stop54" />
    </linearGradient>
    <path
       style="fill:url(#linearGradient2591)"
       d="m 20,59 2,0 0,-17 -2,-1 0,18 z"
       id="path56"
       inkscape:connector-curvature="0" />
  </g>
</svg>
