<?xml version="1.0" encoding="UTF-8" standalone="no"?>
<svg
   xmlns:svg="http://www.w3.org/2000/svg"
   xmlns="http://www.w3.org/2000/svg"
   version="1.0"
   width="195"
   height="90"
   id="svg2"
   style="display:inline" >
  <defs
     id="defs4" />
  <path
     d="M 130.2438,1 C 95.528761,1 67.354915,17.78547 67.354905,38.46455 C 67.354905,51.16605 77.989211,62.3891 94.234651,69.16468 C 89.057591,78.08585 81.798781,85.18887 66.598065,86.90357 C 83.117271,91.39817 101.79274,84.2107 112.00862,74.32079 C 117.78137,75.36216 123.90277,75.91728 130.2438,75.91728 C 164.95885,75.91728 193.1327,59.14364 193.13271,38.46455 C 193.13271,17.78547 164.95885,1 130.2438,1 z"
     id="balloon"
     style="fill:#ffffff;stroke:#000000;stroke-width:2;stroke-linecap:round;stroke-linejoin:round;stroke-miterlimit:4;display:inline" />
  <path
     d="M 7.4229949,28 C 5.6489789,29.02422 6.7873649,41.77927 8.1104949,46.90625 C 5.9997309,51.49858 6.4616049,56.19931 8.0792449,60.84375 C 5.2292089,60.00795 1.0207399,58.07637 0.45422691,59.0625 C -0.55686109,60.8225 3.3794059,63.04459 4.5167269,65.25 C 3.5302809,66.16235 0.21917091,66.66285 0.016726914,67.9375 C -0.27555309,69.77778 3.3359249,71.0206 5.1104769,72.78125 C 3.1497849,73.71245 0.80476391,75.43175 1.0792269,76.9375 C 1.3148699,78.23027 3.9664919,78.97355 5.7979769,79.375 C 9.8325549,80.25935 14.019775,81.00951 17.547995,83.21875 C 21.221605,86.83373 26.337115,89.84375 32.516745,89.84375 C 38.647575,89.84374 43.750725,86.88257 47.422995,83.3125 C 51.526015,79.11841 63.910395,78.3602 63.954245,76.40625 C 63.995695,74.55939 61.231565,74.10885 59.860495,73.03125 C 61.998085,71.95562 65.210235,70.36586 65.016745,68.78125 C 64.763635,66.70846 61.717635,66.99249 59.485495,66.25 C 60.971995,64.01668 65.552045,59.61684 64.485495,58.59375 C 63.451185,57.60159 60.271495,59.80494 57.047995,60.71875 C 58.826315,56.28775 58.937515,51.893 57.110495,47.5 C 57.736975,41.97717 60.978215,28.81203 57.860495,28.09375 C 55.246605,27.49154 47.699295,33.44669 43.079245,36.40625 C 42.252655,36.12746 40.886975,36.27525 39.204245,35.34375 C 37.943065,34.64561 38.747885,33.15733 37.304655,32.6888 C 35.716515,32.17322 33.588715,34.89335 32.912275,34.56786 C 32.168025,34.20975 33.371055,31.7244 31.822965,31.24816 C 30.069195,30.70864 28.598035,32.31817 27.705165,33.96377 C 27.008175,35.02546 26.189955,36.05458 22.324965,36.75796 C 18.548215,34.60998 9.5112849,26.79432 7.4229949,28 z"
     id="face"
     style="fill:#000000;display:inline" />
  <path
     d="M 43.016745,48.4375 C 36.558085,48.53229 33.621115,53.06224 33.610495,58.84375 C 36.174565,60.56566 38.698315,62.14172 41.422995,62.96875 C 44.212425,63.81543 47.265115,63.87958 51.047995,62.59375 C 53.457485,59.47538 53.909125,55.99171 51.704245,52.75 C 49.578505,49.62464 46.388595,48.38802 43.016745,48.4375 z"
     id="eyeR"
     style="fill:#ddff95;display:inline" />
  <path
     d="M 22.016745,48.4375 C 18.634415,48.13954 15.625975,49.76317 13.297995,52.8125 C 10.871795,55.99047 11.970335,59.56422 13.985495,62.59375 C 17.782655,63.89068 20.844775,63.81772 23.641745,62.96875 C 26.378575,62.13803 28.878145,60.54352 31.454245,58.8125 C 31.993765,52.57994 28.014495,48.96586 22.016745,48.4375 z"
     id="eyeL"
     style="fill:#ddff95;display:inline" />
  <path
     d="M 27.835845,63.20612 C 18.767615,65.23394 13.441245,72.64783 18.241125,81.06553 C 20.631585,85.25774 26.682035,88.25157 32.540745,88.25157 C 38.353795,88.25157 44.295305,85.29237 46.758195,81.16595 C 51.876315,72.59085 46.374125,65.24654 37.225105,63.36679 L 27.835845,63.20612 z"
     id="snout"
     style="fill:#ffffff;display:inline" />
  <path
     d="M 40.100327,65.097476 C 40.101847,68.846971 36.712058,71.887261 32.530015,71.887261 C 28.347972,71.887261 24.958183,68.846971 24.959703,65.097476 C 24.958183,61.347981 28.347972,58.307691 32.530015,58.307691 C 36.712058,58.307691 40.101847,61.347981 40.100327,65.097476 z"
     id="nose"
     style="fill:#000000" />
  <path
     d="M 23.49621,56.426447 C 23.49621,58.416484 22.490892,60.029728 21.25077,60.029728 C 20.010648,60.029728 19.00533,58.416484 19.00533,56.426447 C 19.00533,54.43641 20.010648,52.823166 21.25077,52.823166 C 22.490892,52.823166 23.49621,54.43641 23.49621,56.426447 L 23.49621,56.426447 z"
     id="pupilL"
     style="fill:#000000" />
  <path
     d="M 46.053328,56.426447 C 46.053328,58.416484 45.04801,60.029728 43.807888,60.029728 C 42.567766,60.029728 41.562448,58.416484 41.562448,56.426447 C 41.562448,54.43641 42.567766,52.823166 43.807888,52.823166 C 45.04801,52.823166 46.053328,54.43641 46.053328,56.426447 L 46.053328,56.426447 z"
     id="pupilR"
     style="fill:#000000" />
  <path
     d="M 10.559645,32.74932 C 10.428085,32.74259 10.313045,32.7651 10.216705,32.82027 C 9.0663849,33.47906 10.010705,39.5587 11.281015,45.45036 C 13.098435,42.84648 15.973675,40.34124 19.105195,38.66669 C 15.543485,35.94194 11.959435,32.82092 10.559645,32.74932 z"
     id="earL"
     style="fill:#383838;display:inline" />
  <path
     d="M 54.503825,32.74932 C 53.104045,32.82092 49.519995,35.94194 45.958285,38.66669 C 49.089795,40.34124 51.965035,42.84648 53.782455,45.45036 C 55.052765,39.5587 55.997085,33.47906 54.846775,32.82027 C 54.750425,32.7651 54.635405,32.74259 54.503825,32.74932 z"
     id="earR"
     style="fill:#383838;display:inline" />
  <path
     style="stroke:#b0b0b0;stroke-width:1.3;stroke-linecap:round;stroke-miterlimit:4"
     id="whiskerLu"
     d="M 23.286875,67.357822 C 20.132928,67.558676 15.061869,66.968294 12.206661,66.343661" />
  <path
     d="M 14.759781,72.25309 C 17.85073,72.154481 21.488808,71.518954 24.9607,70.75817"
     id="whiskerLl"
     style="stroke:#b0b0b0;stroke-width:1.29157937;stroke-linecap:round;stroke-miterlimit:4" />
  <path
     style="stroke:#b0b0b0;stroke-width:1.3;stroke-linecap:round;stroke-miterlimit:4"
     id="whiskerRu"
     d="M 41.76972,67.361007 C 45.496761,67.513873 49.203297,67.026157 52.85972,66.348277" />
  <path
     d="M 50.308871,72.257122 C 47.213257,72.157981 43.569688,71.51903 40.092557,70.754143"
     id="whiskerRl"
     style="fill:none;stroke:#b0b0b0;stroke-width:1.3;stroke-linecap:round;stroke-miterlimit:4" />
  <path
     d="M 23.413745,75.78454 C 23.394195,75.95627 23.937405,77.35517 24.045765,77.85244 C 24.788975,81.26378 27.665935,83.31625 32.530055,83.31626 C 37.394165,83.31625 40.271125,81.26378 41.014345,77.85244 C 41.122675,77.35517 41.665895,75.95627 41.646345,75.78454 C 39.688735,77.07482 36.147415,76.39833 32.530055,76.39832 C 28.912675,76.39833 25.371345,77.07482 23.413745,75.78454 z"
     id="mouth"
     style="fill:#000000;stroke:#000000;stroke-width:2;stroke-linecap:round;stroke-linejoin:round;stroke-miterlimit:4;display:inline" />
  <g
     transform="matrix(0.6791858,0,0,0.6683349,-64.743849,-227.77607)"
     id="tongue"
     style="display:inline">
    <path
       d="M 132.88896,456.0374 C 133.99323,456.14863 135.08871,456.26866 136.30709,456.26579 C 136.19994,457.90996 136.10008,459.66679 136.39326,461.78923 C 134.99201,460.5637 133.19588,457.6885 132.88896,456.0374 z"
       id="path2531"
       style="fill:#ffffff" />
    <path
       d="M 153.55363,456.0374 C 152.44936,456.14863 151.35388,456.26866 150.1355,456.26579 C 150.24265,457.90996 150.34251,459.66679 150.04933,461.78923 C 151.45058,460.5637 153.24671,457.6885 153.55363,456.0374 z"
       id="path2533"
       style="fill:#ffffff;display:inline" />
  </g>
  <path
     d="M 21.959615,42.81464 C 20.842135,42.69957 19.626995,42.70862 18.393615,42.92876 C 16.786905,43.21553 15.399085,44.20132 14.371165,45.09688 C 13.343265,45.99245 12.659485,46.83709 12.659485,46.83709 C 12.373595,47.20669 12.412895,47.73248 12.750555,48.05546 C 13.088225,48.37845 13.597195,48.37152 13.971775,48.09233 C 17.897935,45.16605 22.600345,45.48967 27.180245,46.26653 C 27.621655,46.36785 28.070635,46.13026 28.235125,45.70829 C 28.399615,45.28632 28.236375,44.7957 27.836395,44.58338 C 26.001355,43.6093 24.005915,43.14466 21.959615,42.81464 z"
     id="browL"
     style="fill:#818181;display:inline" />
  <path
     d="M 43.100465,42.81464 C 44.217945,42.69957 45.433085,42.70862 46.666465,42.92876 C 48.273175,43.21553 49.660995,44.20132 50.688915,45.09688 C 51.716815,45.99245 52.400595,46.83709 52.400595,46.83709 C 52.686485,47.20669 52.647185,47.73248 52.309525,48.05546 C 51.971855,48.37845 51.462885,48.37152 51.088305,48.09233 C 47.162145,45.16605 42.459735,45.48967 37.879835,46.26653 C 37.438425,46.36785 36.989445,46.13026 36.824955,45.70829 C 36.660465,45.28632 36.823705,44.7957 37.223685,44.58338 C 39.058725,43.6093 41.054165,43.14466 43.100465,42.81464 z"
     id="browR"
     style="fill:#818181;display:inline" />
  <path
     d="M 35.49285,62.274281 C 35.49285,63.434073 34.166353,64.37427 32.530036,64.37427 C 30.893718,64.37427 29.567221,63.434073 29.567221,62.274281 C 29.567221,61.114489 30.893718,60.174292 32.530036,60.174292 C 34.166353,60.174292 35.49285,61.114489 35.49285,62.274281 z"
     id="noseFX"
     style="fill:#4d4d4d" />
  <path
     d="M 102.53173,28.48722 L 102.53173,48.8451 C 102.0014,49.37392 101.21226,49.91223 100.16889,50.33672 C 97.990081,51.22316 96.531731,48.86807 96.531731,42.69946 L 96.531731,28.48722 L 88.531731,28.48722 L 88.531731,44.15787 C 88.531731,49.39116 89.906881,54.76131 96.273531,54.76131 C 99.031271,54.76131 101.19259,54.31016 102.53173,52.87657 L 102.53173,54.48722 L 110.53173,54.48722 L 110.53173,28.48722 L 102.53173,28.48722 z"
     id="u"
     style="fill:#000000;display:inline" />
  <path
     d="M 113.53173,28.48722 L 113.53173,32.48722 L 123.53173,32.48722 L 113.53173,51.48722 L 113.53173,54.48722 L 132.53173,54.48722 L 132.53173,50.48722 L 122.53173,50.48722 L 132.53173,31.48722 L 132.53173,28.48722 L 113.53173,28.48722 z"
     id="z"
     style="fill:#000000;display:inline" />
  <rect
     width="8"
     height="37"
     x="158.53174"
     y="17.487188"
     id="l"
     style="fill:#000000;display:inline" />
  <path
     d="M 135.53173,54.48722 L 143.53173,54.48722 L 143.53173,53.06136 C 144.79089,53.93732 146.45939,54.76847 148.56141,54.76847 C 154.39811,54.76847 156.53173,51.26472 156.53173,44.17472 L 156.53173,39.08097 C 156.53173,32.07866 154.79659,28.22205 148.53931,28.22205 C 146.41905,28.22205 144.7025,29.06549 143.53173,29.98565 L 143.53173,17.48722 L 135.53173,17.48722 L 135.53173,54.48722 z M 148.53173,40.54972 L 148.53173,42.70597 C 148.53173,47.68952 148.76445,52.18644 143.53173,48.76402 L 143.53173,34.17472 C 148.88613,30.75837 148.53173,35.71631 148.53173,40.54972 z"
     id="b"
     style="fill:#000000;fill-rule:evenodd;display:inline" />
</svg>