<?xml version="1.0" encoding="UTF-8" standalone="no"?>
<!-- Created with Inkscape (http://www.inkscape.org/) -->
<svg
   xmlns:dc="http://purl.org/dc/elements/1.1/"
   xmlns:cc="http://creativecommons.org/ns#"
   xmlns:rdf="http://www.w3.org/1999/02/22-rdf-syntax-ns#"
   xmlns:svg="http://www.w3.org/2000/svg"
   xmlns="http://www.w3.org/2000/svg"
   xmlns:xlink="http://www.w3.org/1999/xlink"
   xmlns:sodipodi="http://sodipodi.sourceforge.net/DTD/sodipodi-0.dtd"
   xmlns:inkscape="http://www.inkscape.org/namespaces/inkscape"
   width="48px"
   height="48px"
   id="svg1306"
   sodipodi:version="0.32"
   inkscape:version="0.46"
   sodipodi:docbase="/home/dobey/Projects/gnome-icon-theme/scalable/status"
   sodipodi:docname="weather-showers.svg"
   inkscape:output_extension="org.inkscape.output.svg.inkscape">
  <defs
     id="defs1308">
    <inkscape:perspective
       sodipodi:type="inkscape:persp3d"
       inkscape:vp_x="0 : 24 : 1"
       inkscape:vp_y="0 : 1000 : 0"
       inkscape:vp_z="48 : 24 : 1"
       inkscape:persp3d-origin="24 : 16 : 1"
       id="perspective80" />
    <linearGradient
       inkscape:collect="always"
       id="linearGradient2948">
      <stop
         style="stop-color:#888a85;stop-opacity:1;"
         offset="0"
         id="stop2950" />
      <stop
         style="stop-color:#888a85;stop-opacity:0;"
         offset="1"
         id="stop2952" />
    </linearGradient>
    <linearGradient
       inkscape:collect="always"
       id="linearGradient2940">
      <stop
         style="stop-color:#888a85;stop-opacity:1;"
         offset="0"
         id="stop2942" />
      <stop
         style="stop-color:#888a85;stop-opacity:0;"
         offset="1"
         id="stop2944" />
    </linearGradient>
    <linearGradient
       inkscape:collect="always"
       id="linearGradient3326">
      <stop
         style="stop-color:#3465a4;stop-opacity:1;"
         offset="0"
         id="stop3328" />
      <stop
         style="stop-color:#3465a4;stop-opacity:0;"
         offset="1"
         id="stop3330" />
    </linearGradient>
    <linearGradient
       id="linearGradient3285">
      <stop
         style="stop-color:#729fcf;stop-opacity:1"
         offset="0"
         id="stop3287" />
      <stop
         id="stop3293"
         offset="0.63855422"
         style="stop-color:#729fcf;stop-opacity:1;" />
      <stop
         style="stop-color:#729fcf;stop-opacity:0"
         offset="1"
         id="stop3289" />
    </linearGradient>
    <linearGradient
       id="linearGradient3220"
       inkscape:collect="always">
      <stop
         id="stop3222"
         offset="0"
         style="stop-color:white;stop-opacity:1" />
      <stop
         id="stop3224"
         offset="1"
         style="stop-color:white;stop-opacity:0" />
    </linearGradient>
    <linearGradient
       inkscape:collect="always"
       id="linearGradient3164">
      <stop
         style="stop-color:#3465a4;stop-opacity:1;"
         offset="0"
         id="stop3166" />
      <stop
         style="stop-color:#3465a4;stop-opacity:0;"
         offset="1"
         id="stop3168" />
    </linearGradient>
    <linearGradient
       id="linearGradient2851">
      <stop
         id="stop2853"
         offset="0"
         style="stop-color:#babdb6;stop-opacity:1" />
      <stop
         style="stop-color:#babdb6;stop-opacity:1;"
         offset="0.26506025"
         id="stop2855" />
      <stop
         id="stop2857"
         offset="1"
         style="stop-color:#555753;stop-opacity:1" />
    </linearGradient>
    <linearGradient
       inkscape:collect="always"
       id="linearGradient3123">
      <stop
         style="stop-color:black;stop-opacity:1;"
         offset="0"
         id="stop3125" />
      <stop
         style="stop-color:black;stop-opacity:0;"
         offset="1"
         id="stop3127" />
    </linearGradient>
    <radialGradient
       inkscape:collect="always"
       xlink:href="#linearGradient3123"
       id="radialGradient3129"
       cx="24.000002"
       cy="25.344858"
       fx="24.000002"
       fy="25.344858"
       r="24"
       gradientTransform="matrix(1.194997,0,0,0.484904,-4.679924,11.44763)"
       gradientUnits="userSpaceOnUse" />
    <radialGradient
       inkscape:collect="always"
       xlink:href="#linearGradient2851"
       id="radialGradient3208"
       gradientUnits="userSpaceOnUse"
       gradientTransform="matrix(1.941537,0,0,0.691557,-19.95792,7.170901)"
       cx="20.387419"
       cy="17.105022"
       fx="20.387419"
       fy="17.105022"
       r="24" />
    <linearGradient
       inkscape:collect="always"
       xlink:href="#linearGradient3220"
       id="linearGradient3218"
       gradientUnits="userSpaceOnUse"
       gradientTransform="matrix(7.692302e-2,0,0,1,5.153854,-4.172325e-6)"
       x1="4.2426405"
       y1="38.012115"
       x2="4.2426405"
       y2="47.657135" />
    <linearGradient
       inkscape:collect="always"
       xlink:href="#linearGradient3220"
       id="linearGradient3228"
       gradientUnits="userSpaceOnUse"
       gradientTransform="matrix(7.692302e-2,0,0,1,11.15385,-4.172325e-6)"
       x1="4.2426405"
       y1="38.012115"
       x2="4.2426405"
       y2="47.657135" />
    <linearGradient
       inkscape:collect="always"
       xlink:href="#linearGradient3220"
       id="linearGradient3232"
       gradientUnits="userSpaceOnUse"
       gradientTransform="matrix(7.692302e-2,0,0,1,17.15385,-4.172325e-6)"
       x1="4.2426405"
       y1="38.012115"
       x2="4.2426405"
       y2="47.657135" />
    <linearGradient
       inkscape:collect="always"
       xlink:href="#linearGradient3220"
       id="linearGradient3236"
       gradientUnits="userSpaceOnUse"
       gradientTransform="matrix(7.692302e-2,0,0,1,23.15385,-4.172325e-6)"
       x1="4.2426405"
       y1="38.012115"
       x2="4.2426405"
       y2="47.657135" />
    <linearGradient
       inkscape:collect="always"
       xlink:href="#linearGradient3220"
       id="linearGradient3240"
       gradientUnits="userSpaceOnUse"
       gradientTransform="matrix(7.692302e-2,0,0,1,29.15385,-4.172325e-6)"
       x1="4.2426405"
       y1="38.012115"
       x2="4.2426405"
       y2="47.657135" />
    <linearGradient
       inkscape:collect="always"
       xlink:href="#linearGradient3220"
       id="linearGradient3244"
       gradientUnits="userSpaceOnUse"
       gradientTransform="matrix(7.692302e-2,0,0,1,35.15385,-4.172325e-6)"
       x1="4.2426405"
       y1="38.012115"
       x2="4.2426405"
       y2="47.657135" />
    <linearGradient
       inkscape:collect="always"
       xlink:href="#linearGradient3220"
       id="linearGradient3248"
       gradientUnits="userSpaceOnUse"
       gradientTransform="matrix(7.692302e-2,0,0,1,41.15385,-4.172325e-6)"
       x1="4.2426405"
       y1="38.012115"
       x2="4.2426405"
       y2="47.657135" />
    <radialGradient
       inkscape:collect="always"
       xlink:href="#linearGradient3285"
       id="radialGradient3314"
       gradientUnits="userSpaceOnUse"
       gradientTransform="matrix(-2.051746,0.783599,-0.415753,-1.18316,89.19374,37.21558)"
       cx="15.90526"
       cy="24.499178"
       fx="15.90526"
       fy="24.499178"
       r="20.000004" />
    <linearGradient
       inkscape:collect="always"
       xlink:href="#linearGradient3164"
       id="linearGradient3316"
       gradientUnits="userSpaceOnUse"
       x1="10.076271"
       y1="36.421127"
       x2="9.7227182"
       y2="42.618999"
       gradientTransform="matrix(1,0,-2.069876e-7,1.04253,8.9421,0)" />
    <radialGradient
       inkscape:collect="always"
       xlink:href="#linearGradient3326"
       id="radialGradient3332"
       cx="23.887568"
       cy="27.653486"
       fx="23.887568"
       fy="27.653486"
       r="17.000001"
       gradientTransform="matrix(-2.372066,0.289362,-9.527831e-2,-0.781044,98.23514,46.31143)"
       gradientUnits="userSpaceOnUse" />
    <radialGradient
       inkscape:collect="always"
       xlink:href="#linearGradient3326"
       id="radialGradient2033"
       gradientUnits="userSpaceOnUse"
       gradientTransform="matrix(-2.372066,0.289362,-9.527831e-2,-0.781044,98.23514,46.31143)"
       cx="23.887568"
       cy="27.653486"
       fx="23.887568"
       fy="27.653486"
       r="17.000001" />
    <radialGradient
       inkscape:collect="always"
       xlink:href="#linearGradient3326"
       id="radialGradient2035"
       gradientUnits="userSpaceOnUse"
       gradientTransform="matrix(-2.372066,0.289362,-9.527831e-2,-0.781044,98.23514,46.31143)"
       cx="23.887568"
       cy="27.653486"
       fx="23.887568"
       fy="27.653486"
       r="17.000001" />
    <radialGradient
       inkscape:collect="always"
       xlink:href="#linearGradient3326"
       id="radialGradient2037"
       gradientUnits="userSpaceOnUse"
       gradientTransform="matrix(-2.372066,0.289362,-9.527831e-2,-0.781044,98.23514,46.31143)"
       cx="23.887568"
       cy="27.653486"
       fx="23.887568"
       fy="27.653486"
       r="17.000001" />
    <radialGradient
       inkscape:collect="always"
       xlink:href="#linearGradient3326"
       id="radialGradient2039"
       gradientUnits="userSpaceOnUse"
       gradientTransform="matrix(-2.372066,0.289362,-9.527831e-2,-0.781044,98.23514,46.31143)"
       cx="23.887568"
       cy="27.653486"
       fx="23.887568"
       fy="27.653486"
       r="17.000001" />
    <radialGradient
       inkscape:collect="always"
       xlink:href="#linearGradient3326"
       id="radialGradient2041"
       gradientUnits="userSpaceOnUse"
       gradientTransform="matrix(-2.372066,0.289362,-9.527831e-2,-0.781044,98.23514,46.31143)"
       cx="23.887568"
       cy="27.653486"
       fx="23.887568"
       fy="27.653486"
       r="17.000001" />
    <radialGradient
       inkscape:collect="always"
       xlink:href="#linearGradient3326"
       id="radialGradient2043"
       gradientUnits="userSpaceOnUse"
       gradientTransform="matrix(-2.372066,0.289362,-9.527831e-2,-0.781044,98.23514,46.31143)"
       cx="23.887568"
       cy="27.653486"
       fx="23.887568"
       fy="27.653486"
       r="17.000001" />
    <linearGradient
       inkscape:collect="always"
       xlink:href="#linearGradient2940"
       id="linearGradient2946"
       x1="24.518503"
       y1="22.428678"
       x2="33.601199"
       y2="22.428678"
       gradientUnits="userSpaceOnUse" />
    <linearGradient
       inkscape:collect="always"
       xlink:href="#linearGradient2948"
       id="linearGradient2954"
       x1="18.991407"
       y1="27.180725"
       x2="20.316456"
       y2="23.61031"
       gradientUnits="userSpaceOnUse"
       gradientTransform="translate(-1.5,-0.625)" />
  </defs>
  <sodipodi:namedview
     id="base"
     pagecolor="#878787"
     bordercolor="#666"
     borderopacity="0.25490196"
     inkscape:pageopacity="0"
     inkscape:pageshadow="2"
     inkscape:zoom="8"
     inkscape:cx="51.520715"
     inkscape:cy="35.43855"
     inkscape:current-layer="layer1"
     showgrid="false"
     inkscape:grid-bbox="true"
     inkscape:document-units="px"
     inkscape:window-width="1051"
     inkscape:window-height="900"
     inkscape:window-x="404"
     inkscape:window-y="80"
     inkscape:showpageshadow="false"
     showborder="true"
     showguides="true"
     inkscape:guide-bbox="true" />
  <metadata
     id="metadata1311">
    <rdf:RDF>
      <cc:Work
         rdf:about="">
        <dc:format>image/svg+xml</dc:format>
        <dc:type
           rdf:resource="http://purl.org/dc/dcmitype/StillImage" />
        <cc:license
           rdf:resource="http://creativecommons.org/licenses/GPL/2.0/" />
        <dc:title>Showers</dc:title>
        <dc:creator>
          <cc:Agent>
            <dc:title>Lapo Calamandrei</dc:title>
          </cc:Agent>
        </dc:creator>
      </cc:Work>
      <cc:License
         rdf:about="http://creativecommons.org/licenses/GPL/2.0/">
        <cc:permits
           rdf:resource="http://web.resource.org/cc/Reproduction" />
        <cc:permits
           rdf:resource="http://web.resource.org/cc/Distribution" />
        <cc:requires
           rdf:resource="http://web.resource.org/cc/Notice" />
        <cc:permits
           rdf:resource="http://web.resource.org/cc/DerivativeWorks" />
        <cc:requires
           rdf:resource="http://web.resource.org/cc/ShareAlike" />
        <cc:requires
           rdf:resource="http://web.resource.org/cc/SourceCode" />
      </cc:License>
    </rdf:RDF>
  </metadata>
  <g
     id="layer1"
     inkscape:label="Layer 1"
     inkscape:groupmode="layer">
    <path
       sodipodi:type="inkscape:offset"
       inkscape:radius="0.49410588"
       inkscape:original="M 27 11.5 C 25.619997 11.5 24.5 12.619997 24.5 14 C 24.5 14.183237 24.525021 14.359194 24.5625 14.53125 C 21.248692 14.683188 18.391149 16.518951 16.8125 19.21875 C 16.163117 18.76344 15.352746 18.5 14.5 18.5 C 14.154227 18.5 13.820085 18.573642 13.5 18.65625 C 13.504018 18.604511 13.5 18.552765 13.5 18.5 C 13.5 17.395997 12.604003 16.5 11.5 16.5 C 10.395997 16.5 9.4999998 17.395996 9.5 18.5 C 9.5 19.455653 10.165989 20.27106 11.0625 20.46875 C 10.712418 21.063082 10.5 21.760776 10.5 22.5 C 10.5 22.70146 10.533709 22.900261 10.5625 23.09375 C 9.9602283 22.730458 9.2541665 22.5 8.5 22.5 C 6.8835526 22.5 5.5056469 23.462793 4.875 24.84375 C 4.4167467 24.323207 3.7474993 24 3 24 C 1.6200014 24 0.49999998 25.120005 0.5 26.5 C 0.5 27.879994 1.6200014 29 3 29 C 3.7474993 29 4.4167467 28.676793 4.875 28.15625 C 5.505647 29.537206 6.8835529 30.499999 8.5 30.5 C 9.3765388 30.5 10.184417 30.197486 10.84375 29.71875 C 11.550079 31.623343 13.350649 33 15.5 33 C 16.919591 33 18.183331 32.388645 19.09375 31.4375 C 20.717472 32.732721 22.763047 33.5 25 33.5 C 27.934178 33.5 30.569428 32.154918 32.3125 30.0625 C 33.289388 30.950443 34.576875 31.5 36 31.5 C 37.549626 31.5 38.937507 30.844777 39.9375 29.8125 C 40.516678 30.236992 41.227414 30.5 42 30.5 C 43.086749 30.5 44.04538 29.996717 44.6875 29.21875 C 44.941606 29.686327 45.43075 30 46 30 C 46.827999 30 47.500002 29.328003 47.5 28.5 C 47.5 27.671996 46.827998 27.000001 46 27 C 45.8275 27 45.654292 27.040082 45.5 27.09375 C 45.500816 27.062682 45.5 27.031264 45.5 27 C 45.5 25.067993 43.931997 23.5 42 23.5 C 41.64465 23.5 41.29198 23.557651 40.96875 23.65625 C 40.261246 22.164952 38.891932 21.042815 37.25 20.65625 C 37.401875 20.297374 37.5 19.914001 37.5 19.5 C 37.5 17.843997 36.156003 16.5 34.5 16.5 C 33.52101 16.5 32.641436 16.961292 32.09375 17.6875 C 31.254049 16.746697 30.21396 15.985374 29.0625 15.4375 C 29.340986 15.034361 29.5 14.526701 29.5 14 C 29.5 12.619997 28.380002 11.5 27 11.5 z "
       style="opacity:0.4;fill:url(#radialGradient3129);fill-opacity:1.0;stroke:none;stroke-width:1;stroke-linecap:round;stroke-linejoin:miter;stroke-miterlimit:4;stroke-dasharray:none;stroke-dashoffset:1.20000057;stroke-opacity:1"
       id="path3113"
       d="M 27,11 C 25.352656,11 24,12.352656 24,14 C 24,14.046313 24.028848,14.079998 24.03125,14.125 C 20.934234,14.427317 18.268841,16.112104 16.65625,18.59375 C 16.006617,18.239183 15.282322,18 14.5,18 C 14.292036,18 14.124896,18.061474 13.9375,18.09375 C 13.736624,16.919945 12.728639,16 11.5,16 C 10.128657,16 8.9999998,17.128655 9,18.5 C 9,19.472692 9.5849886,20.304447 10.40625,20.71875 C 10.190761,21.210421 10.056183,21.746483 10.03125,22.3125 C 9.5500036,22.128963 9.0482675,22 8.5,22 C 6.8856991,22 5.5076389,22.873832 4.71875,24.15625 C 4.2220002,23.793149 3.658547,23.5 3,23.5 C 1.3526576,23.5 -2.387456e-08,24.852661 0,26.5 C 0,28.147338 1.3526574,29.5 3,29.5 C 3.658547,29.5 4.2220002,29.206851 4.71875,28.84375 C 5.507639,30.126167 6.8856995,30.999999 8.5,31 C 9.2982101,31 10.012358,30.740585 10.65625,30.375 C 11.548154,32.189142 13.341338,33.5 15.5,33.5 C 16.907152,33.5 18.127882,32.900586 19.09375,32.03125 C 20.751175,33.254647 22.78471,34 25,34 C 27.92617,34 30.545933,32.696246 32.375,30.6875 C 33.385251,31.471869 34.620867,32 36,32 C 37.550792,32 38.908192,31.341916 39.96875,30.375 C 40.568608,30.741907 41.240931,31 42,31 C 43.038042,31 43.918439,30.525733 44.625,29.875 C 44.986081,30.24032 45.448989,30.5 46,30.5 C 47.09534,30.5 48.000003,29.595346 48,28.5 C 48,27.404654 47.095339,26.500001 46,26.5 C 45.963489,26.5 45.941612,26.529027 45.90625,26.53125 C 45.664459,24.560223 44.034388,23 42,23 C 41.730971,23 41.473144,23.073607 41.21875,23.125 C 40.484022,21.798621 39.279092,20.813255 37.8125,20.34375 C 37.889819,20.067532 38,19.809778 38,19.5 C 38,17.576656 36.423344,16 34.5,16 C 33.565899,16 32.757348,16.428943 32.125,17.03125 C 31.412251,16.308542 30.587282,15.728941 29.6875,15.25 C 29.863684,14.860731 30,14.445177 30,14 C 30,12.352656 28.647343,11 27,11 z " />
    <rect
       style="opacity:0.7;fill:url(#radialGradient3314);fill-opacity:1;stroke:url(#linearGradient3316);stroke-width:1.02104437;stroke-linecap:round;stroke-linejoin:miter;stroke-miterlimit:4;stroke-dasharray:none;stroke-dashoffset:1.20000057;stroke-opacity:1"
       id="rect3162"
       width="39.000008"
       height="23.196325"
       x="13.442104"
       y="27.366428"
       transform="matrix(1,0,-0.282713,0.959205,0,0)" />
    <g
       id="g3318"
       style="stroke:url(#radialGradient3332)"
       transform="matrix(1,0,-0.294737,1,8.9421,0)">
      <rect
         y="26.249989"
         x="7.4999981"
         height="22.250011"
         width="2.9999986"
         id="rect3180"
         style="opacity:0.7;fill:none;fill-opacity:1;stroke:url(#radialGradient2033);stroke-width:1.0000006;stroke-linecap:round;stroke-linejoin:miter;stroke-miterlimit:4;stroke-dasharray:none;stroke-dashoffset:1.20000057;stroke-opacity:1" />
      <rect
         y="26.249989"
         x="13.499998"
         height="22.250011"
         width="2.9999986"
         id="rect3184"
         style="opacity:0.7;fill:none;fill-opacity:1;stroke:url(#radialGradient2035);stroke-width:1.0000006;stroke-linecap:round;stroke-linejoin:miter;stroke-miterlimit:4;stroke-dasharray:none;stroke-dashoffset:1.20000057;stroke-opacity:1" />
      <rect
         y="26.249989"
         x="19.499998"
         height="22.250011"
         width="2.9999986"
         id="rect3188"
         style="opacity:0.7;fill:none;fill-opacity:1;stroke:url(#radialGradient2037);stroke-width:1.0000006;stroke-linecap:round;stroke-linejoin:miter;stroke-miterlimit:4;stroke-dasharray:none;stroke-dashoffset:1.20000057;stroke-opacity:1" />
      <rect
         y="26.249989"
         x="25.499998"
         height="22.250011"
         width="2.9999986"
         id="rect3192"
         style="opacity:0.7;fill:none;fill-opacity:1;stroke:url(#radialGradient2039);stroke-width:1.0000006;stroke-linecap:round;stroke-linejoin:miter;stroke-miterlimit:4;stroke-dasharray:none;stroke-dashoffset:1.20000057;stroke-opacity:1" />
      <rect
         y="26.249989"
         x="31.5"
         height="22.250011"
         width="2.9999986"
         id="rect3196"
         style="opacity:0.7;fill:none;fill-opacity:1;stroke:url(#radialGradient2041);stroke-width:1.0000006;stroke-linecap:round;stroke-linejoin:miter;stroke-miterlimit:4;stroke-dasharray:none;stroke-dashoffset:1.20000057;stroke-opacity:1" />
      <rect
         y="26.249989"
         x="37.5"
         height="22.250011"
         width="2.9999986"
         id="rect3200"
         style="opacity:0.7;fill:none;fill-opacity:1;stroke:url(#radialGradient2043);stroke-width:1.0000006;stroke-linecap:round;stroke-linejoin:miter;stroke-miterlimit:4;stroke-dasharray:none;stroke-dashoffset:1.20000057;stroke-opacity:1" />
    </g>
    <g
       id="g3251"
       style="opacity:0.4"
       transform="matrix(1,0,-0.294737,1,8.9421,0)">
      <rect
         y="26.249989"
         x="5.4999981"
         height="22.250011"
         width="2.9999986"
         id="rect3216"
         style="opacity:1;fill:none;fill-opacity:1;stroke:url(#linearGradient3218);stroke-width:1.0000006;stroke-linecap:round;stroke-linejoin:miter;stroke-miterlimit:4;stroke-dasharray:none;stroke-dashoffset:1.20000057;stroke-opacity:1" />
      <rect
         y="26.249989"
         x="11.499998"
         height="22.250011"
         width="2.9999986"
         id="rect3226"
         style="opacity:1;fill:none;fill-opacity:1;stroke:url(#linearGradient3228);stroke-width:1.0000006;stroke-linecap:round;stroke-linejoin:miter;stroke-miterlimit:4;stroke-dasharray:none;stroke-dashoffset:1.20000057;stroke-opacity:1" />
      <rect
         y="26.249989"
         x="17.499998"
         height="22.250011"
         width="2.9999986"
         id="rect3230"
         style="opacity:1;fill:none;fill-opacity:1;stroke:url(#linearGradient3232);stroke-width:1.0000006;stroke-linecap:round;stroke-linejoin:miter;stroke-miterlimit:4;stroke-dasharray:none;stroke-dashoffset:1.20000057;stroke-opacity:1" />
      <rect
         y="26.249989"
         x="23.499998"
         height="22.250011"
         width="2.9999986"
         id="rect3234"
         style="opacity:1;fill:none;fill-opacity:1;stroke:url(#linearGradient3236);stroke-width:1.0000006;stroke-linecap:round;stroke-linejoin:miter;stroke-miterlimit:4;stroke-dasharray:none;stroke-dashoffset:1.20000057;stroke-opacity:1" />
      <rect
         y="26.249989"
         x="29.499998"
         height="22.250011"
         width="2.9999986"
         id="rect3238"
         style="opacity:1;fill:none;fill-opacity:1;stroke:url(#linearGradient3240);stroke-width:1.0000006;stroke-linecap:round;stroke-linejoin:miter;stroke-miterlimit:4;stroke-dasharray:none;stroke-dashoffset:1.20000057;stroke-opacity:1" />
      <rect
         y="26.249989"
         x="35.5"
         height="22.250011"
         width="2.9999986"
         id="rect3242"
         style="opacity:1;fill:none;fill-opacity:1;stroke:url(#linearGradient3244);stroke-width:1.0000006;stroke-linecap:round;stroke-linejoin:miter;stroke-miterlimit:4;stroke-dasharray:none;stroke-dashoffset:1.20000057;stroke-opacity:1" />
      <path
         sodipodi:nodetypes="cc"
         id="rect3246"
         d="M 41.5,48.5 L 41.5,26.249989"
         style="fill:none;fill-opacity:1;stroke:url(#linearGradient3248);stroke-width:1.0000006;stroke-linecap:round;stroke-linejoin:miter;stroke-miterlimit:4;stroke-dashoffset:1.20000057;stroke-opacity:1" />
    </g>
    <g
       id="g3204">
      <path
         id="path2077"
         d="M 27,9.5 C 25.619997,9.5 24.5,10.619997 24.5,12 C 24.5,12.183237 24.525021,12.359194 24.5625,12.53125 C 21.248692,12.683188 18.391149,14.518951 16.8125,17.21875 C 16.163117,16.76344 15.352746,16.5 14.5,16.5 C 14.154227,16.5 13.820085,16.573642 13.5,16.65625 C 13.504018,16.604511 13.5,16.552765 13.5,16.5 C 13.5,15.395997 12.604003,14.5 11.5,14.5 C 10.395997,14.5 9.4999998,15.395996 9.5,16.5 C 9.5,17.455653 10.165989,18.27106 11.0625,18.46875 C 10.712418,19.063082 10.5,19.760776 10.5,20.5 C 10.5,20.70146 10.533709,20.900261 10.5625,21.09375 C 9.9602283,20.730458 9.2541665,20.5 8.5,20.5 C 6.8835526,20.5 5.5056469,21.462793 4.875,22.84375 C 4.4167467,22.323207 3.7474993,22 3,22 C 1.6200014,22 0.49999998,23.120005 0.5,24.5 C 0.5,25.879994 1.6200014,27 3,27 C 3.7474993,27 4.4167467,26.676793 4.875,26.15625 C 5.505647,27.537206 6.8835529,28.499999 8.5,28.5 C 9.3765388,28.5 10.184417,28.197486 10.84375,27.71875 C 11.550079,29.623343 13.350649,31 15.5,31 C 16.919591,31 18.183331,30.388645 19.09375,29.4375 C 20.717472,30.732721 22.763047,31.5 25,31.5 C 27.934178,31.5 30.569428,30.154918 32.3125,28.0625 C 33.289388,28.950443 34.576875,29.5 36,29.5 C 37.549626,29.5 38.937507,28.844777 39.9375,27.8125 C 40.516678,28.236992 41.227414,28.5 42,28.5 C 43.086749,28.5 44.04538,27.996717 44.6875,27.21875 C 44.941606,27.686327 45.43075,28 46,28 C 46.827999,28 47.500002,27.328003 47.5,26.5 C 47.5,25.671996 46.827998,25.000001 46,25 C 45.8275,25 45.654292,25.040082 45.5,25.09375 C 45.500816,25.062682 45.5,25.031264 45.5,25 C 45.5,23.067993 43.931997,21.5 42,21.5 C 41.64465,21.5 41.29198,21.557651 40.96875,21.65625 C 40.261246,20.164952 38.891932,19.042815 37.25,18.65625 C 37.401875,18.297374 37.5,17.914001 37.5,17.5 C 37.5,15.843997 36.156003,14.5 34.5,14.5 C 33.52101,14.5 32.641436,14.961292 32.09375,15.6875 C 31.254049,14.746697 30.21396,13.985374 29.0625,13.4375 C 29.340986,13.034361 29.5,12.526701 29.5,12 C 29.5,10.619997 28.380002,9.4999998 27,9.5 z "
         style="fill:url(#radialGradient3208);fill-opacity:1;stroke:#000000;stroke-width:1;stroke-linecap:round;stroke-linejoin:miter;stroke-miterlimit:4;stroke-dasharray:none;stroke-dashoffset:1.20000057000000004;stroke-opacity:1" />
    </g>
    <path
       style="opacity:1;color:black;fill:url(#linearGradient2954);fill-opacity:1;fill-rule:nonzero;stroke:none;stroke-width:1;stroke-linecap:butt;stroke-linejoin:miter;marker:none;marker-start:none;marker-mid:none;marker-end:none;stroke-miterlimit:4;stroke-dasharray:none;stroke-dashoffset:0;stroke-opacity:1;visibility:visible;display:inline;overflow:visible"
       d="M 13.076999,24.88047 C 14.182509,25.19633 17.625382,24.24875 17.625382,24.24875 C 17.625382,24.24875 19.504749,26.254461 21.352529,26.522941 C 23.20031,26.791422 25.016504,25.322674 25.016504,25.322674 C 25.016504,25.322674 23.184517,26.459769 21.352529,25.891222 C 19.520542,25.322674 17.688554,23.048482 17.688554,23.048482 C 17.688554,23.048482 15.019538,24.390887 13.898235,24.375094 C 12.776932,24.359301 13.203343,22.98531 13.203343,22.98531 C 13.203343,22.98531 11.971489,24.564609 13.076999,24.88047 z "
       id="path2045"
       sodipodi:nodetypes="ccscscscs" />
    <path
       style="opacity:1;color:black;fill:white;fill-opacity:0.36979167;fill-rule:nonzero;stroke:none;stroke-width:1;stroke-linecap:butt;stroke-linejoin:miter;marker:none;marker-start:none;marker-mid:none;marker-end:none;stroke-miterlimit:4;stroke-dasharray:none;stroke-dashoffset:0;stroke-opacity:1;visibility:visible;display:inline;overflow:visible"
       d="M 26.813077,16.783748 C 28.675301,16.382086 30.371066,16.895951 31.762825,19.081845 C 31.762825,19.081845 31.055718,16.827942 29.818281,16.253418 C 28.580844,15.678894 26.813077,16.783748 26.813077,16.783748 z "
       id="path2047"
       sodipodi:nodetypes="ccsc" />
    <path
       sodipodi:nodetypes="ccsc"
       id="path2934"
       d="M 18.025683,19.506745 C 19.068498,18.297967 20.302976,17.979504 21.887488,19.287026 C 21.887488,19.287026 20.71217,17.605939 19.74672,17.660869 C 18.781268,17.715799 18.025683,19.506745 18.025683,19.506745 z "
       style="opacity:1;color:black;fill:white;fill-opacity:0.453125;fill-rule:nonzero;stroke:none;stroke-width:1;stroke-linecap:butt;stroke-linejoin:miter;marker:none;marker-start:none;marker-mid:none;marker-end:none;stroke-miterlimit:4;stroke-dasharray:none;stroke-dashoffset:0;stroke-opacity:1;visibility:visible;display:inline;overflow:visible" />
    <path
       sodipodi:nodetypes="ccsc"
       id="path2936"
       d="M 39.243071,23.027281 C 38.433229,24.751626 36.996328,25.788444 34.414227,25.569627 C 34.414227,25.569627 36.635242,26.374098 37.842453,25.738511 C 39.049663,25.102924 39.243071,23.027281 39.243071,23.027281 z "
       style="opacity:1;color:black;fill:#838383;fill-opacity:1;fill-rule:nonzero;stroke:none;stroke-width:1;stroke-linecap:butt;stroke-linejoin:miter;marker:none;marker-start:none;marker-mid:none;marker-end:none;stroke-miterlimit:4;stroke-dasharray:none;stroke-dashoffset:0;stroke-opacity:1;visibility:visible;display:inline;overflow:visible" />
    <path
       sodipodi:nodetypes="ccscscscs"
       id="path2938"
       d="M 32.931167,22.548546 C 32.146407,22.772763 30.078902,22.288342 30.078902,22.288342 C 30.078902,22.288342 29.058528,23.586634 27.056679,23.714475 C 25.733929,23.798947 24.518503,21.607578 24.518503,21.607578 C 24.518503,21.607578 26.069937,23.4814 27.370397,23.07781 C 28.670856,22.674219 29.657597,21.248086 29.657597,21.248086 C 29.657597,21.248086 31.552232,22.201009 32.348203,22.189798 C 33.144174,22.178588 33.594403,21.1405 33.594403,21.1405 C 33.594403,21.1405 33.715927,22.324328 32.931167,22.548546 z "
       style="opacity:1;color:black;fill:url(#linearGradient2946);fill-opacity:1.0;fill-rule:nonzero;stroke:none;stroke-width:1;stroke-linecap:butt;stroke-linejoin:miter;marker:none;marker-start:none;marker-mid:none;marker-end:none;stroke-miterlimit:4;stroke-dasharray:none;stroke-dashoffset:0;stroke-opacity:1;visibility:visible;display:inline;overflow:visible" />
  </g>
</svg>
