<?xml version="1.0" encoding="UTF-8" standalone="no"?>
<!DOCTYPE svg PUBLIC "-//W3C//DTD SVG 20010904//EN"
"http://www.w3.org/TR/2001/REC-SVG-20010904/DTD/svg10.dtd"
[
 <!ATTLIST svg
  xmlns:xlink CDATA #FIXED "http://www.w3.org/1999/xlink">
]>
<!-- Created with Sodipodi ("http://www.sodipodi.com/") -->
<svg
   xmlns="http://www.w3.org/2000/svg"
   xmlns:xlink="http://www.w3.org/1999/xlink"
   version="1"
   x="0.00000000"
   y="0.00000000"
   width="60.0000000"
   height="60.0000000"
   viewBox="0.01 0.153 117 123"
   id="svg548">
  <defs
     id="defs668" />
  <g
     style="font-size:12;"
     id="Layer_1_2_">
    <path
       d="M 0 58.443 C 0 26.166 26.166 0 58.444 0 C 90.721 0 116.885 26.166 116.885 58.443 C 116.885 90.72 90.721 116.886 58.444 116.886 C 26.166 116.887 0 90.721 0 58.443 z "
       id="path550" />
    <path
       d="M 3.636 58.445 C 3.636 28.17 28.178 3.628 58.454 3.628 C 88.728 3.628 113.271 28.17 113.271 58.445 C 113.271 88.72 88.728 113.262 58.454 113.262 C 28.178 113.262 3.636 88.72 3.636 58.445 z "
       style="fill:#3fd2ff;"
       id="path551" />
    <g
       id="g552">
      <path
         d="M 75.731 110.609 C 76.403 107.753 77.915 101.706 75.227 101.203 C 72.538 100.699 67.498 100.362 65.987 98.682 C 64.476 97.002 62.966 97.002 61.956 96.328 C 60.948 95.658 59.436 93.474 60.948 91.458 C 62.46 89.441 62.124 87.427 60.11 86.252 C 58.092 85.074 56.917 86.587 55.237 86.755 C 53.557 86.923 49.524 84.235 46.502 84.235 C 43.479 84.235 40.622 84.235 40.119 82.554 C 38.27 83.731 27.184 81.714 27.687 78.354 C 26.511 77.179 22.145 72.307 20.968 70.628 C 21.136 71.971 22.145 74.826 23.152 75.667 C 20.297 73.651 17.944 70.125 17.776 67.436 C 16.432 66.258 13.073 60.046 13.577 58.198 C 14.081 56.35 14.585 49.799 15.594 49.631 C 16.601 49.463 15.762 48.622 15.257 47.614 C 14.753 46.607 14.417 44.926 14.417 44.087 C 14.417 43.248 15.257 41.064 14.417 40.896 C 13.577 40.728 11.729 39.552 12.905 39.552 C 14.081 39.552 15.089 40.225 15.089 39.048 C 15.089 37.872 14.417 34.68 13.913 34.176 C 13.409 33.672 13.577 33.84 12.57 34.512 C 11.56 35.183 10.553 35.354 10.385 34.849 C 10.217 34.344 10.553 34.512 11.393 33.337 C 12.234 32.159 14.248 28.8 14.92 27.624 C 15.593 26.449 15.424 27.961 17.608 25.442 C 19.792 22.921 20.967 20.569 20.967 22.921 C 20.967 25.273 21.471 26.28 22.815 26.28 C 24.159 26.28 24.327 25.776 24.495 26.784 C 24.662 27.792 24.83 28.969 26.176 28.465 C 27.519 27.96 28.695 28.633 29.367 27.96 C 30.039 27.287 28.862 26.616 29.702 26.448 C 30.543 26.28 30.879 27.792 31.215 26.615 C 31.55 25.441 31.047 23.592 32.224 24.767 C 33.399 25.944 33.735 26.112 34.574 25.608 C 35.415 25.102 38.102 24.936 35.752 26.448 C 33.399 27.96 33.231 27.792 32.896 29.303 C 32.561 30.814 32.391 30.31 31.551 31.992 C 30.712 33.67 29.032 35.351 31.216 36.526 C 33.4 37.702 36.255 38.038 36.255 38.038 C 36.255 38.038 38.607 36.19 38.271 38.204 C 37.935 40.221 37.767 41.397 38.943 41.061 C 40.12 40.725 42.135 40.893 40.791 39.381 C 39.448 37.869 39.615 38.876 40.12 36.693 C 40.623 34.509 40.288 34.677 39.615 33.67 C 38.943 32.662 37.264 29.471 38.943 29.303 C 40.623 29.135 41.966 28.632 42.47 29.471 C 42.975 30.31 44.654 31.822 45.326 30.983 C 45.998 30.144 45.158 27.792 47.677 29.471 C 50.198 31.151 47.509 31.992 50.198 31.992 C 52.886 31.992 55.405 31.821 55.405 32.494 C 55.405 33.167 53.557 36.358 52.213 36.862 C 50.869 37.365 50.366 36.19 49.861 37.702 C 49.356 39.214 47.676 42.405 48.685 41.229 C 49.693 40.054 51.373 37.533 51.54 39.045 C 51.707 40.557 51.54 41.733 53.221 41.565 C 54.9 41.397 57.419 39.886 55.237 42.071 C 53.053 44.253 52.885 45.765 53.053 44.253 C 53.221 42.742 53.221 41.9 51.876 43.917 C 50.533 45.934 50.197 47.444 50.868 47.444 C 51.54 47.444 51.54 47.949 50.7 48.453 C 49.86 48.956 49.355 51.308 48.852 52.652 C 48.348 53.996 47.34 55.506 48.348 55.676 C 49.355 55.844 49.02 58.362 49.02 58.362 C 49.02 58.362 44.484 63.404 46.165 64.916 C 47.845 66.428 49.86 68.778 49.02 69.283 C 48.18 69.786 46.165 66.595 45.66 66.092 C 45.157 65.587 40.118 64.914 39.781 65.756 C 39.446 66.595 40.621 67.267 39.781 67.435 C 38.941 67.603 35.917 68.276 34.741 68.947 C 33.566 69.619 33.23 71.802 33.398 72.643 C 33.566 73.483 34.406 80.706 38.269 79.866 C 42.133 79.026 42.468 78.69 41.796 77.011 L 44.819 75.836 C 44.819 75.836 44.148 80.707 45.659 80.873 C 47.173 81.043 49.354 80.538 49.859 80.538 C 50.364 80.538 51.539 84.905 52.547 85.241 C 53.556 85.577 56.411 85.241 58.09 84.066 C 59.77 82.891 60.611 85.577 60.778 84.234 C 60.946 82.891 62.794 80.034 64.473 79.361 C 64.473 80.538 64.473 81.714 65.481 81.378 C 66.491 81.043 65.817 78.858 65.817 78.858 C 65.817 78.858 72.536 79.194 72.536 77.178 C 72.536 77.178 76.233 76.168 77.073 77.346 C 77.577 76.171 78.417 77.178 79.761 77.514 C 81.105 77.849 81.945 76.674 83.792 75.835 C 85.64 74.995 89.671 75.666 90.177 77.01 C 90.679 78.355 91.687 79.698 92.359 77.346 L 96.224 76.338 C 96.224 76.338 98.408 74.154 99.919 73.986 C 101.43 73.818 102.942 72.811 103.112 73.818 C 103.278 74.825 102.606 78.857 101.598 79.697 C 100.59 80.537 101.094 81.21 101.43 82.049 C 101.766 82.891 100.926 87.425 100.252 88.264 C 99.582 89.105 100.252 89.272 98.91 90.449 C 97.566 91.625 96.894 93.304 96.389 94.312 C 95.887 95.32 95.047 98.175 93.703 99.352 C 92.357 100.528 91.519 101.872 91.519 101.872 C 89.672 103.386 84.801 109.265 75.731 110.609 z "
         style="fill:#009900;"
         id="path553" />
    </g>
    <g
       id="g554">
      <radialGradient
         cx="31.2152996"
         cy="38.8628006"
         fx="31.2152996"
         fy="38.8628006"
         r="94.2721024"
         id="XMLID_1_"
         gradientUnits="userSpaceOnUse"
         spreadMethod="pad">
        <stop
           style="stop-color:#33cc33;stop-opacity:1;"
           offset="0.00000000"
           id="stop556" />
        <stop
           style="stop-color:#009900;stop-opacity:1;"
           offset="0.57539999"
           id="stop557" />
        <stop
           style="stop-color:#005e07;stop-opacity:1;"
           offset="1.00000000"
           id="stop558" />
        
        
        
        
        
      </radialGradient>
      <path
         d="M 48.518 72.814 C 49.525 72.308 49.694 72.14 50.702 72.14 C 51.71 72.14 54.901 72.308 55.909 72.308 C 56.918 72.308 57.254 73.316 56.246 73.485 C 55.238 73.653 53.558 72.98 52.382 72.98 C 51.205 72.98 49.189 73.653 48.518 72.814 z "
         style="fill:url(#XMLID_1_);"
         id="path564" />
    </g>
    <g
       id="g565">
      <radialGradient
         cx="31.4550991"
         cy="38.0522003"
         fx="31.4550991"
         fy="38.0522003"
         r="92.7236023"
         id="XMLID_2_"
         gradientUnits="userSpaceOnUse"
         spreadMethod="pad">
        <stop
           style="stop-color:#33cc33;stop-opacity:1;"
           offset="0.00000000"
           id="stop567" />
        <stop
           style="stop-color:#009900;stop-opacity:1;"
           offset="0.49439999"
           id="stop568" />
        <stop
           style="stop-color:#005e07;stop-opacity:1;"
           offset="1.00000000"
           id="stop569" />
        
        
        
        
        
      </radialGradient>
      <path
         d="M 38.606 17.042 C 39.614 16.707 39.782 15.867 41.965 17.042 C 44.15 18.219 44.317 17.044 46.165 18.892 C 48.013 20.739 51.204 23.93 55.236 22.418 C 54.395 20.403 53.052 19.899 53.22 18.051 C 53.388 16.203 53.724 13.515 53.724 13.515 L 52.043 14.187 L 51.875 12.844 C 51.875 12.844 45.997 11.667 44.819 11.836 C 43.644 12.002 43.644 11.163 42.804 11.163 C 41.963 11.163 41.795 12.507 41.123 12.507 C 40.452 12.507 38.268 11.499 38.603 12.844 C 38.939 14.187 39.444 14.523 38.771 15.365 C 38.103 16.203 38.606 17.042 38.606 17.042 z "
         style="fill:url(#XMLID_2_);"
         id="path575" />
    </g>
    <g
       id="g576">
      <radialGradient
         cx="28.4433994"
         cy="13.4312000"
         fx="28.4433994"
         fy="13.4312000"
         r="3.05270004"
         id="XMLID_3_"
         gradientUnits="userSpaceOnUse"
         spreadMethod="pad">
        <stop
           style="stop-color:#33cc33;stop-opacity:1;"
           offset="0.00000000"
           id="stop578" />
        <stop
           style="stop-color:#009900;stop-opacity:1;"
           offset="0.57539999"
           id="stop579" />
        <stop
           style="stop-color:#005e07;stop-opacity:1;"
           offset="1.00000000"
           id="stop580" />
        
        
        
        
        
      </radialGradient>
      <path
         d="M 25 15.196 C 25 15.196 25.168 16.203 25.673 16.035 C 26.177 15.868 28.192 14.356 29.535 13.347 C 30.88 12.338 32.056 11.33 31.887 10.826 C 31.719 10.324 26.512 13.684 25 15.196 z "
         style="fill:url(#XMLID_3_);"
         id="path586" />
    </g>
    <g
       id="g587">
      <radialGradient
         cx="30.9990005"
         cy="39.9473000"
         fx="30.9990005"
         fy="39.9473000"
         r="96.6732025"
         id="XMLID_4_"
         gradientUnits="userSpaceOnUse"
         spreadMethod="pad">
        <stop
           style="stop-color:#33cc33;stop-opacity:1;"
           offset="0.00000000"
           id="stop589" />
        <stop
           style="stop-color:#009900;stop-opacity:1;"
           offset="0.57539999"
           id="stop590" />
        <stop
           style="stop-color:#005e07;stop-opacity:1;"
           offset="1.00000000"
           id="stop591" />
        
        
        
        
        
      </radialGradient>
      <path
         d="M 22.984 16.875 C 23.796 16.604 22.481 18.219 21.471 19.395 C 20.464 20.571 19.792 20.571 18.783 21.747 C 17.775 22.924 16.096 24.267 15.424 24.939 C 14.752 25.611 13.661 27.09 13.661 27.09 C 13.661 27.09 21.472 17.38 22.984 16.875 z "
         style="fill:url(#XMLID_4_);"
         id="path597" />
    </g>
    <g
       id="g598">
      <g
         id="g599">
        <radialGradient
           cx="31.2162991"
           cy="38.8813019"
           fx="31.2162991"
           fy="38.8813019"
           r="94.2369003"
           id="XMLID_5_"
           gradientUnits="userSpaceOnUse"
           spreadMethod="pad">
          <stop
             style="stop-color:#33cc33;stop-opacity:1;"
             offset="0.00000000"
             id="stop601" />
          <stop
             style="stop-color:#009900;stop-opacity:1;"
             offset="0.57539999"
             id="stop602" />
          <stop
             style="stop-color:#005e07;stop-opacity:1;"
             offset="1.00000000"
             id="stop603" />
          
          
          
          
          
        </radialGradient>
        <path
           d="M 72.706 5.789 C 72.706 5.789 75.394 7.804 74.724 7.972 C 74.051 8.14 72.372 8.14 72.372 8.14 C 72.372 8.14 74.052 8.309 74.892 8.98 C 75.732 9.652 75.394 10.828 77.244 11.332 C 79.092 11.837 79.596 14.187 80.435 14.86 C 81.275 15.53 80.605 14.02 81.947 14.357 C 83.291 14.691 86.82 16.876 85.81 17.211 C 84.802 17.547 84.466 18.893 86.314 19.9 C 88.164 20.907 90.179 21.747 90.681 22.923 C 91.523 21.578 91.859 19.395 90.345 18.556 C 88.833 17.715 86.82 16.874 86.484 15.53 C 86.146 14.187 85.978 13.012 86.146 12.003 C 82.786 9.147 73.883 5.956 72.706 5.789 z "
           style="fill:url(#XMLID_5_);"
           id="path609" />
      </g>
    </g>
    <g
       id="g610">
      <g
         id="g611">
        <g
           id="g612">
          <defs
             id="defs613">
            <path
               d="M 92.528 16.035 C 92.866 17.38 93.874 22.081 92.866 22.755 C 91.858 23.427 92.866 23.763 93.538 24.434 C 94.21 25.105 94.378 24.77 95.384 26.283 C 96.392 27.795 97.234 28.971 97.234 30.986 C 97.234 33.003 98.578 34.85 99.25 36.026 C 99.922 37.201 104.121 40.392 104.121 42.075 C 104.121 43.753 103.953 45.431 105.801 45.769 C 107.649 46.105 108.489 46.273 108.992 47.112 C 109.496 47.953 111.01 47.953 111.847 48.121 C 110.84 40.896 106.471 27.121 92.528 16.035 z "
               id="XMLID_7_" />
          </defs>
          <radialGradient
             cx="50.7344017"
             cy="78.0038986"
             fx="50.7344017"
             fy="78.0038986"
             r="102.968102"
             id="XMLID_8_"
             gradientUnits="userSpaceOnUse"
             spreadMethod="pad">
            <stop
               style="stop-color:#33cc33;stop-opacity:1;"
               offset="0.00000000"
               id="stop616" />
            <stop
               style="stop-color:#009900;stop-opacity:1;"
               offset="0.57539999"
               id="stop617" />
            <stop
               style="stop-color:#005e07;stop-opacity:1;"
               offset="1.00000000"
               id="stop618" />
            
            
            
            
            
          </radialGradient>
          <use
             id="use624"
             xlink:href="XMLID_7_"
             x="0.00000000"
             y="0.00000000"
             width="117.000000"
             height="123.000000" />
          <clipPath
             id="XMLID_9_">
            <use
               id="use626"
               xlink:href="XMLID_7_"
               x="0.00000000"
               y="0.00000000"
               width="117.000000"
               height="123.000000" />
          </clipPath>
        </g>
      </g>
    </g>
    <path
       d="M 57.05 116.683 L 27.808 105.245 C 33.664 98.862 43.518 91.374 57.501 83.423 C 85.469 67.524 108.682 58.89 112.7 65.94 C 116.708 72.997 99.993 93.063 72.022 108.967 C 66.653 112.021 61.653 114.583 57.05 116.683 z "
       style="opacity:0.25;"
       id="path627" />
    <path
       d="M 60.905 6.605 C 60.891 6.607 60.512 6.666 60.512 6.666 C 60.528 6.662 59.032 7.015 59.032 7.015 C 58.97 7.037 57.612 7.577 57.612 7.577 C 57.584 7.589 57.278 7.738 57.278 7.738 C 57.278 7.739 56 8.485 56 8.485 C 55.904 8.554 54.82 9.415 54.82 9.415 C 54.822 9.414 54.562 9.651 54.562 9.651 C 54.555 9.657 53.434 10.853 53.434 10.853 L 53.38 10.955 L 53.428 10.893 C 53.441 10.874 52.68 11.964 52.68 11.964 C 52.656 12.004 52.487 12.286 52.487 12.286 C 52.489 12.281 51.835 13.6 51.835 13.6 C 51.265 15.004 50.991 16.415 50.972 17.854 C 46.968 15.76 33.92 8.963 33.92 8.963 L 27.104 10.753 L 21.997 19.446 L 49.945 34.022 C 49.945 34.022 49.945 45.172 49.945 47.242 C 48.189 48.81 35.616 59.804 35.616 59.804 C 35.616 59.804 35.595 81.406 35.595 84.48 C 17.495 95.14 7.621 105.384 7.621 113.417 C 7.621 114.88 7.945 116.27 8.605 117.575 C 13.646 127.568 34.089 124.744 63.289 110.02 C 92.727 95.176 112.545 74.903 107.469 64.827 C 104.289 58.532 93.651 58.832 75.02 65.753 C 75.02 64.933 75.02 45.735 75.02 43.95 C 75.346 43.711 75.401 43.672 75.676 43.47 C 76.906 43.47 105.278 43.47 105.278 43.47 L 109.719 38.904 L 109.719 32.866 L 104.244 27.765 L 83.917 27.765 C 83.917 27.765 74.532 23.661 73.216 23.085 C 73.122 22.994 73.04 22.884 72.933 22.805 C 72.96 22.747 73.007 22.702 73.031 22.645 C 73.047 22.64 73.451 21.543 73.451 21.542 C 73.453 21.54 73.545 21.219 73.545 21.219 C 73.572 21.134 73.678 20.719 73.678 20.719 C 73.893 19.829 74.008 18.909 74.008 18.013 C 74.008 16.72 73.785 15.432 73.344 14.186 C 73.342 14.182 73.102 13.53 73.102 13.53 C 73.073 13.468 72.418 12.19 72.418 12.19 C 72.418 12.188 72.221 11.865 72.221 11.865 C 72.223 11.869 71.371 10.677 71.371 10.677 C 71.338 10.642 70.359 9.613 70.359 9.613 L 70.081 9.36 C 70.079 9.357 68.923 8.457 68.923 8.457 C 68.892 8.437 67.642 7.716 67.642 7.716 C 67.64 7.715 67.304 7.554 67.304 7.554 C 67.298 7.552 65.902 7.006 65.902 7.006 C 65.886 7.001 64.427 6.662 64.427 6.662 C 64.411 6.66 64.025 6.601 64.025 6.601 C 64.039 6.602 62.48 6.488 62.48 6.488 C 62.48 6.488 60.909 6.605 60.905 6.605 z M 57.475 25.696 C 58.761 26.457 59.702 27.014 60.079 27.237 C 60.081 27.241 60.091 27.257 60.093 27.261 C 59.73 27.053 58.765 26.502 57.468 25.76 C 57.471 25.729 57.471 25.729 57.475 25.696 z M 57.965 61.561 C 57.965 61.561 57.796 72.236 57.796 73.025 C 56.341 73.699 53.254 75.802 53.254 75.802 L 53.366 65.922 L 57.965 61.561 z "
       id="path628" />
    <path
       d="M 83.254 30.931 L 78.024 28.645 L 71.09 25.613 L 71.084 26.12 L 70.684 26.12 C 70.823 25.953 70.965 25.79 71.088 25.613 C 71.432 25.126 69.676 24.87 67.34 24.807 C 68.553 23.937 69.524 22.754 70.131 21.371 C 70.135 21.371 70.141 21.381 70.143 21.375 C 70.256 21.112 70.348 20.852 70.428 20.593 C 70.459 20.498 70.485 20.401 70.514 20.305 C 70.541 20.202 70.567 20.1 70.592 19.998 C 70.748 19.36 70.838 18.698 70.838 18.013 C 70.838 17.038 70.662 16.106 70.358 15.237 C 70.262 14.947 70.186 14.769 70.178 14.748 C 70.172 14.737 70.166 14.728 70.162 14.719 C 70.023 14.399 69.861 14.092 69.687 13.794 C 69.638 13.715 69.593 13.637 69.542 13.56 C 69.353 13.259 69.153 12.968 68.927 12.696 C 68.919 12.686 68.909 12.678 68.904 12.67 C 68.683 12.405 68.443 12.159 68.191 11.924 C 68.123 11.862 68.056 11.8 67.986 11.739 C 67.72 11.505 67.445 11.282 67.15 11.084 C 67.144 11.079 67.136 11.074 67.129 11.07 C 66.84 10.876 66.535 10.706 66.221 10.549 C 66.139 10.508 66.055 10.468 65.973 10.43 C 65.647 10.279 65.313 10.141 64.965 10.034 C 64.961 10.032 64.957 10.032 64.951 10.03 C 64.607 9.924 64.252 9.847 63.89 9.786 C 63.796 9.77 63.704 9.756 63.609 9.743 C 63.24 9.693 62.863 9.658 62.478 9.658 C 62.087 9.658 61.708 9.694 61.333 9.746 C 61.241 9.758 61.151 9.771 61.06 9.787 C 60.691 9.85 60.328 9.93 59.978 10.039 C 59.962 10.044 59.951 10.051 59.935 10.056 C 59.595 10.164 59.269 10.299 58.949 10.448 C 58.871 10.486 58.793 10.522 58.715 10.561 C 58.391 10.724 58.078 10.902 57.78 11.105 C 57.757 11.122 57.735 11.14 57.711 11.158 C 57.436 11.349 57.176 11.56 56.927 11.783 C 56.862 11.841 56.797 11.898 56.734 11.958 C 56.476 12.203 56.229 12.461 56.004 12.736 C 55.976 12.77 55.952 12.807 55.926 12.842 C 55.727 13.093 55.544 13.358 55.375 13.631 C 55.327 13.708 55.28 13.783 55.234 13.861 C 55.058 14.169 54.898 14.485 54.761 14.814 C 54.754 14.83 54.743 14.842 54.74 14.857 C 54.737 14.86 54.742 14.862 54.742 14.865 C 54.346 15.839 54.122 16.9 54.122 18.015 C 54.122 21.253 55.965 24.055 58.658 25.444 C 58.189 25.571 57.879 25.716 57.784 25.877 L 58.187 25.196 L 51.414 21.669 L 51.423 21.652 L 30.755 10.886 L 29.384 13.075 L 29.44 13.104 L 26.426 18.183 L 33.199 21.711 L 33.19 21.728 L 53.108 32.102 L 53.108 48.66 L 41.206 59.298 L 41.247 59.298 L 38.78 61.309 L 38.76 61.309 L 38.76 86.263 C 17.159 98.67 8.228 109.798 11.432 116.148 C 15.087 123.392 33.141 121.675 61.866 107.193 C 90.595 92.706 108.292 73.499 104.641 66.252 C 102.024 61.071 89.2 63.416 71.602 70.466 L 71.602 64.311 L 71.602 64.111 L 71.854 64.111 L 71.854 48.66 L 71.854 42.346 L 74.639 40.303 L 83.254 40.303 L 106.555 40.303 L 106.555 37.373 L 106.555 33.881 L 106.555 30.931 L 83.254 30.931 z M 50.194 59.632 L 49.932 59.629 L 50.325 59.309 L 50.197 62.036 L 50.194 59.632 z M 57.809 26.119 L 57.638 26.119 L 57.779 25.881 C 57.737 25.957 57.748 26.036 57.809 26.119 z M 41.171 61.334 L 41.171 61.343 L 39.156 61.314 L 41.171 61.334 z M 50.217 80.167 L 50.199 64.506 L 60.199 55.568 L 60.199 64.111 L 60.961 64.111 L 60.961 73.738 L 62.348 74.409 C 58.45 76.158 54.393 78.087 50.217 80.167 z "
       id="path629" />
    <path
       d="M 33.19 21.729 L 53.856 32.492 L 58.186 25.194 L 37.52 14.43 L 33.19 21.729 z "
       style="fill:#f70001;"
       id="path630" />
    <path
       d="M 29.555 12.908 L 26.426 18.183 L 47.091 28.947 L 51.422 21.649 L 32.69 11.894 L 29.555 12.908 z "
       style="fill:#fac692;"
       id="path631" />
    <path
       d="M 29.438 13.106 L 26.426 18.183 L 30.753 20.319 L 35.081 13.159 L 32.717 11.853 L 29.438 13.106 z "
       style="fill:#d8a674;"
       id="path632" />
    <path
       d="M 29.384 13.075 L 50.05 23.839 L 51.422 21.65 L 32.808 11.956 L 29.384 13.075 z "
       style="fill:#fee7cd;"
       id="path633" />
    <path
       d="M 11.432 116.148 C 7.778 108.904 19.911 95.441 48.638 80.955 C 77.364 66.473 100.981 59.008 104.641 66.252 C 108.291 73.499 90.594 92.706 61.866 107.193 C 33.141 121.676 15.087 123.393 11.432 116.148 z "
       style="fill:#ffcc01;"
       id="path634" />
    <path
       d="M 104.641 66.252 C 104.252 65.484 103.627 64.893 102.811 64.445 C 107.088 74.564 88.081 89.717 59.315 104.871 C 34.545 117.92 20.533 120.024 11.732 116.657 C 15.981 123.297 33.841 121.323 61.866 107.193 C 90.594 92.706 108.292 73.499 104.641 66.252 z "
       style="fill:#fe9900;"
       id="path635" />
    <path
       d="M 71.854 49.771 L 53.108 49.771 L 53.108 26.119 L 71.854 26.119 L 71.854 49.771 z "
       style="fill:#f70001;"
       id="path636" />
    <path
       d="M 14.937 117.024 C 11.283 109.78 23.417 96.317 52.144 81.831 C 74.317 70.652 93.436 63.662 102.692 64.383 C 95.663 60.761 74.174 68.08 48.638 80.955 C 19.911 95.441 7.778 108.904 11.432 116.148 C 12.528 118.32 14.928 119.679 18.512 120.137 C 16.826 119.436 15.625 118.389 14.937 117.024 z "
       style="fill:#fffa01;"
       id="path637" />
    <path
       d="M 58.872 48.669 L 54.962 48.669 L 54.962 32.079 L 58.872 28.068 L 58.872 48.669 z "
       style="fill:#ff3334;"
       id="path638" />
    <path
       d="M 39.838 57.725 L 36.54 60.199 L 36.54 93.835 L 32.965 96.953 L 32.116 102.363 L 43.985 102.33 L 51.684 94.868 L 52.413 57.445 L 40.444 57.27 L 39.838 57.725 z "
       id="path639" />
    <path
       d="M 50.327 59.298 L 41.206 59.298 L 53.108 48.66 L 62.231 48.66 L 50.327 59.298 z "
       style="fill:#f70001;"
       id="path640" />
    <path
       d="M 50.075 64.617 L 50.327 59.298 L 62.231 48.66 L 61.977 53.979 L 50.075 64.617 z "
       style="fill:#9e0000;"
       id="path641" />
    <path
       d="M 70.838 43.09 L 74.639 40.303 L 83.254 40.303 L 83.254 30.931 L 78.024 28.645 L 70.708 25.382 L 70.838 43.09 z "
       style="fill:#f70001;"
       id="path642" />
    <path
       d="M 83.254 40.303 L 103.486 40.303 L 106.554 37.374 L 106.554 33.881 L 103.275 30.931 L 83.254 30.931 L 83.254 40.303 z "
       style="fill:#fac692;"
       id="path643" />
    <path
       d="M 83.254 33.881 L 106.555 33.881 L 103.159 30.931 L 83.254 30.931 L 83.254 33.881 z "
       style="fill:#fee7cd;"
       id="path644" />
    <path
       d="M 83.254 40.303 L 103.486 40.303 L 106.554 37.373 L 106.517 34.137 L 103.185 34.143 L 103.185 37.373 L 83.254 37.373 L 83.254 40.303 z "
       style="fill:#d8a674;"
       id="path645" />
    <path
       d="M 49.666 93.521 L 47.849 95.012 L 41.171 94.915 L 41.356 59.209 L 50.338 59.297 L 49.666 93.521 z "
       style="fill:#cb9966;"
       id="path646" />
    <path
       d="M 47.198 94.418 L 38.76 94.916 L 38.76 61.309 L 47.784 61.441 L 47.198 94.418 z "
       style="fill:#fac692;"
       id="path647" />
    <path
       d="M 43.003 100.109 L 35.097 97.933 L 38.76 94.915 L 49.686 93.492 L 43.003 100.109 z "
       style="fill:#fac692;"
       id="path648" />
    <path
       d="M 43.003 100.109 L 43.082 97.756 L 47.345 93.504 L 49.666 93.521 L 43.003 100.109 z "
       style="fill:#cb9966;"
       id="path649" />
    <path
       d="M 47.749 61.563 L 38.76 61.308 L 41.315 59.204 L 50.338 59.298 L 47.749 61.563 z "
       style="fill:#fac692;"
       id="path650" />
    <path
       d="M 71.602 60.754 L 58.741 60.754 L 58.741 75.13 C 58.741 75.13 68.632 79.912 70.723 80.923 C 70.375 82.576 69.364 87.34 69.364 87.34 L 82.407 87.34 L 84.464 77.632 C 84.464 77.632 75.683 73.016 73.823 72.037 C 73.823 70.002 73.823 60.754 73.823 60.754 L 71.602 60.754 L 71.602 60.754 z "
       id="path651" />
    <path
       d="M 81.944 78.815 L 73.256 79.712 L 60.961 73.736 L 70.838 72.975 L 81.944 78.815 z "
       style="fill:#d8a674;"
       id="path652" />
    <path
       d="M 71.602 73.737 L 68.692 73.737 L 65.965 74.844 L 60.961 73.737 L 60.961 62.974 L 71.602 62.974 L 71.602 73.737 z "
       style="fill:#fac692;"
       id="path653" />
    <path
       d="M 71.602 73.737 L 68.692 73.737 L 68.692 64.31 L 71.602 64.31 L 71.602 73.737 z "
       style="fill:#d8a674;"
       id="path654" />
    <path
       d="M 80.608 85.12 L 72.104 85.12 L 73.44 78.815 L 81.944 78.815 L 80.608 85.12 z "
       style="fill:#d8a674;"
       id="path655" />
    <path
       d="M 57.398 26.423 C 56.97 25.906 54.177 23.035 54.177 23.035 C 54.177 23.035 71.705 24.735 71.088 25.612 C 69.574 27.759 67.078 29.16 64.252 29.16 C 61.667 29.16 58.936 28.268 57.398 26.423 z "
       style="fill:#9e0000;"
       id="path656" />
    <path
       d="M 54.121 18.013 C 54.121 13.398 57.863 9.656 62.479 9.656 C 67.096 9.656 70.838 13.398 70.838 18.013 C 70.838 22.631 67.096 26.372 62.479 26.372 C 57.863 26.372 54.121 22.631 54.121 18.013 z "
       style="fill:#fac692;"
       id="path657" />
    <path
       d="M 70.143 21.375 C 69.993 21.575 69.362 16.927 68.901 16.988 C 68.635 17.025 67.897 19.261 67.571 19.293 C 67.159 19.332 67.053 15.393 66.565 15.421 C 61.915 15.693 54.775 15.57 54.739 14.855 C 54.572 11.596 59.028 8.874 62.522 8.874 C 65.983 8.874 69.53 11.436 70.801 14.429 C 70.84 14.522 71.999 18.894 70.143 21.375 z "
       id="path658" />
    <path
       d="M 69.065 64.11 L 60.2 64.11 L 60.2 48.66 L 69.065 48.66 L 69.065 64.11 z "
       style="fill:#f70001;"
       id="path659" />
    <path
       d="M 71.854 42.329 L 71.854 64.11 L 69.063 64.11 L 69.063 40.554 L 72.612 38.025 L 83.251 37.771 L 83.255 40.303 L 74.64 40.303 L 71.854 42.329 z "
       style="fill:#9e0000;"
       id="path660" />
    <path
       d="M 66.385 63.977 L 62.477 63.977 L 62.477 50.881 L 66.385 52.843 L 66.385 63.977 z "
       style="fill:#ff3334;"
       id="path661" />
    <path
       d="M 43.003 100.109 L 34.725 100.109 L 35.097 97.933 L 43.082 97.756 L 43.003 100.109 z "
       style="fill:#fac692;"
       id="path662" />
    <path
       d="M 76.235 94.867 L 51.685 94.867 L 43.986 102.329 L 63.226 102.329 L 76.235 94.867 z "
       style="fill:#d4ab0f;"
       id="path663" />
    <path
       d="M 96.926 79.878 L 84.127 79.899 L 82.406 87.339 L 88.179 87.339 L 96.926 79.878 z "
       style="fill:#d4ab0f;"
       id="path664" />
    <path
       d="M 61.454 50.369 L 60.325 50.369 L 60.046 50.619 L 60.064 55.683 L 60.201 55.567 L 60.201 64.11 L 61.455 64.11 L 61.455 50.369 L 61.454 50.369 z "
       style="fill:#9e0000;"
       id="path665" />
    <path
       d="M 76.7 81.446 L 72.923 81.446 L 73.257 79.713 L 77.032 79.713 L 76.7 81.446 z "
       style="fill:#a9774e;"
       id="path666" />
  </g>
</svg>
