<?xml version="1.0" encoding="UTF-8" standalone="no"?>
<!DOCTYPE svg PUBLIC "-//W3C//DTD SVG 20010904//EN"
"http://www.w3.org/TR/2001/REC-SVG-20010904/DTD/svg10.dtd">
<!-- Created with Sodipodi ("http://www.sodipodi.com/") -->
<svg
   width="48pt"
   height="48pt"
   viewBox="0.418 0.188 122 99"
   overflow="visible"
   enable-background="new 0.418 0.188 122 99"
   xml:space="preserve"
   xmlns="http://www.w3.org/2000/svg"
   xmlns:xml="http://www.w3.org/XML/1998/namespace"
   xmlns:a="http://ns.adobe.com/AdobeSVGViewerExtensions/3.0/"
   xmlns:sodipodi="http://sodipodi.sourceforge.net/DTD/sodipodi-0.dtd"
   xmlns:xlink="http://www.w3.org/1999/xlink"
   id="svg153"
   sodipodi:version="0.32pre"
   sodipodi:docname="/home/cschalle/gnome-themes-extras/Wasp/icons/scalable/apps/ximian-redhat-config-nfs.svg"
   sodipodi:docbase="/home/cschalle/gnome-themes-extras/Wasp/icons/scalable/apps">
  <defs
     id="defs241" />
  <sodipodi:namedview
     id="base" />
  <g
     id="Layer_1_2_">
    <path
       opacity="0.3"
       a:adobe-blending-mode="multiply"
       d="M122.006,26.621l-2.637,4.66l-0.943,2.832    c0.467,2.258-0.266,3.598-0.266,4.855c0,1.557-0.461,2.801-1.645,4.869c-2.098,3.672-16.805,18.723-22.295,24.213L66.418,95.188    c-4.184,4.484-9.047,5.219-11.953,4.496c-1.66-0.41-2.832-1.318-3.131-2.428c-0.348-1.283-3.07-3.521-1.371-5.18    c-3.203,3.916-8.291,4.537-11.707,3.916c-2.805-0.51-8.205-3.641-8.752-5.273c-0.102-0.293-0.178-1.016-0.178-1.016    c-5.578,4.826-12.225,3.771-14.654,1.168c-0.664-0.719-3.564-2.396-3.564-3.217c0-1.072,4.309-6.359,4.309-6.359    C13.318,83.393,49.35,34.031,49.35,34.031l2.182-6.07c0-4.17-4.432-4.512-6.564-4.678l-19,4.461c-1.674,0-2.938-0.445-3.758-1.32    c-0.895-0.951-1.082-2.211-1.082-3.1c0-3.186,2.354-6.746,5.502-6.746l65.373-6.016l0.148-0.135    c0.111-0.102,2.812-2.486,7.525-1.494c12.463,2.629,19.994,6.096,22.389,10.303c0.621,1.09,0.848,2.166,0.848,3.199    C122.912,23.953,122.43,25.377,122.006,26.621z"
       id="path155" />
    <path
       fill="#FFCD9A"
       d="M96.543,1.602c-5.537-1.168-8.74,1.826-8.74,1.826L81.18,6.74c0,0-3.223-2.094-5.959-1.988H24.229    c-7.285,0-10.594,13.908-0.662,13.908h17.879c2.729,0.209,5.297,0.66,5.297,3.311l-1.986,5.297L3.699,67.002    c-7.283,7.285,4.303,14.238,9.27,9.271l0.104,0.027l-2.088,1.959c-7.283,7.285,5.982,15.008,15.916,6.398l1.709-1.795    C23.99,90.904,40.586,95.555,47.5,87.068l1.416-1.379l0.139,0.037c-8.443,8.23,5.635,14.387,14.904,4.453l27.812-27.15    c0,0,19.869-19.865,22.518-24.502c2.65-4.637,1.99-5.961,0.664-12.584l4.635-3.973C120.99,17.434,126.348,7.889,96.543,1.602z"
       id="path156" />
    <path
       opacity="0.7"
       fill="#CD9966"
       a:adobe-blending-mode="multiply"
       d="M80.938,8.09c1.131,0.225,7.479,3.145,7.479,5.934v1.523    l1.514-0.16c7.818-0.816,20.182,1.822,20.182,8.736l-0.859-5.594l1.885-0.039c-3.328-5.121-13.105-5.26-20.998-4.865    c-1.391-4.408-7.977-8.105-8.721-8.236L80.938,8.09z"
       id="path157" />
    <path
       opacity="0.7"
       fill="#CD9966"
       a:adobe-blending-mode="multiply"
       d="M21.555,15.852l26.672-1.438    c4.801,7.543,7.543,9.6,17.828,6.172c8.482-2.828,14.398-3.43,14.398-3.43s-6.857,6.172-13.027,8.914    c-6.172,2.744-13.713,3.43-23.998,4.115c0.572-4.787,6.08-10.43,2.057-10.971C32.934,17.52,23.566,18.66,23.566,18.66    L21.555,15.852z"
       id="path158" />
    <path
       opacity="0.7"
       fill="#CD9966"
       a:adobe-blending-mode="multiply"
       d="M65.369,56.24c0,0,4.113,2.742,2.742,4.801    c-1.371,2.057-10.971,7.541-11.656,10.285c-4.113,2.742-8.229,8.227-9.6,10.971c-1.371,2.742-8.914,4.113-11.656,4.113    s-3.428,4.799-0.686,4.799s9.52-0.742,12.986-4.141l24.039-23.971c0,0,3.43-3.43,5.486-2.057    C73.596,59.668,65.369,56.24,65.369,56.24z"
       id="path159" />
    <path
       opacity="0.7"
       fill="#CD9966"
       a:adobe-blending-mode="multiply"
       d="M44.799,52.127c0,0,4.113,2.742,2.742,4.799    S36.57,64.469,35.885,67.211c-4.113,2.742-8.229,8.229-9.6,10.971s-8.914,4.115-11.656,4.115s-3.198,3.7-0.686,4.799    c4.095,1.791,9.52-0.742,12.988-4.143l24.037-23.971c0,0,3.43-3.428,5.486-2.057C53.027,55.555,44.799,52.127,44.799,52.127z"
       id="path160" />
    <path
       opacity="0.7"
       fill="#CD9966"
       a:adobe-blending-mode="multiply"
       d="M35.885,41.842c0,0,4.113,2.742,2.742,4.799    s-10.971,7.543-11.656,10.285c-4.113,2.742-8.229,8.229-9.6,10.971s-6.643,6.533-11.656,4.115    c-2.471-1.191-3.428,4.799-0.686,4.799s9.52-0.742,12.988-4.143l24.039-23.971c0,0,3.428-3.428,5.484-2.057    C44.113,45.27,35.885,41.842,35.885,41.842z"
       id="path161" />
    <path
       opacity="0.7"
       fill="#CD9966"
       a:adobe-blending-mode="multiply"
       d="M49.598,32.242c4.801,0.686,15.086,4.799,17.828,6.855    c2.742,2.059,13.713,2.059,15.084,6.172c-4.113-2.742-8.822-0.908-13.713-2.742c-5.484-2.057-10.285-3.43-13.027-4.801    S49.598,32.242,49.598,32.242z"
       id="path162" />
    <path
       opacity="0.7"
       fill="#CD9966"
       a:adobe-blending-mode="multiply"
       d="M53.713,29.5c6.17,0,24.684-1.373,28.797-4.801    C76.34,30.871,61.254,34.299,53.713,29.5z"
       id="path163" />
    <path
       opacity="0.7"
       fill="#CD9966"
       a:adobe-blending-mode="multiply"
       d="M67.426,45.955c6.17,1.371,10.971,0.686,13.027,2.057    s2.742,4.801,2.742,4.801C79.082,50.756,69.482,46.641,67.426,45.955z"
       id="path164" />
    <path
       opacity="0.95"
       fill="#FFFFFF"
       a:adobe-blending-mode="lighten"
       d="M5.072,71.023c2.234-1.117,6.674-4.912,7.789-7.146    c1.119-2.232,2.236-3.908,5.029-5.584c2.791-1.676,10.053-7.26,11.17-9.494c1.117-2.236,5.023-6.145,5.023-6.145l3.303-1.631    l3.842-8.705L5.604,66.113C5.604,66.113,3.959,69.348,5.072,71.023z"
       id="path165" />
    <path
       opacity="0.95"
       fill="#FFFFFF"
       a:adobe-blending-mode="lighten"
       d="M13.814,81.086c2.234-1.117,6.67-4.912,7.789-7.146    c1.113-2.234,2.234-3.91,5.025-5.584c2.793-1.676,10.055-7.26,11.17-9.496c1.117-2.234,5.027-6.145,5.027-6.145l5.061-0.936    l-3.943-4.092L14.34,76.174C14.34,76.174,12.695,79.41,13.814,81.086z"
       id="path166" />
    <path
       opacity="0.95"
       fill="#FFFFFF"
       a:adobe-blending-mode="lighten"
       d="M31.23,85.951c2.232-1.117,6.668-4.912,7.787-7.146    c1.115-2.234,2.234-3.908,5.025-5.584c2.095-1.257,6.703-4.712,9.348-7.305c0.882-0.864-1.4-0.004-1.4-0.004l-8.09,6.127    l-2.84-0.078l-9.307,9.078C31.754,81.039,28.759,83.688,31.23,85.951z"
       id="path167" />
    <path
       opacity="0.95"
       fill="#FFFFFF"
       a:adobe-blending-mode="lighten"
       d="M50.176,90.561c2.234-1.117,6.672-4.912,7.793-7.146    c1.113-2.234,2.232-3.908,5.023-5.584c1.852-1.11,5.665-3.938,8.352-6.369c1.367-1.237-5.445-0.629-5.445-0.629L50.707,85.648    C50.707,85.648,45.328,89.536,50.176,90.561z"
       id="path168" />
    <path
       d="M122.242,16.428c0-1.426-0.311-2.961-1.211-4.541C118.191,6.9,110.275,3.098,96.826,0.26    c-5.664-1.195-9.096,1.439-9.75,1.998c-0.191,0.096-4.789,2.395-5.846,2.922c-1.189-0.664-3.715-1.889-6.064-1.797L24.229,3.381    c-4.859,0-8.244,5-8.244,9.488c0,1.984,0.633,3.707,1.824,4.977c0.934,0.998,2.693,2.186,5.758,2.186h17.879    c3.119,0.244,3.822,0.807,3.895,1.777c-0.201,0.535-1.578,4.205-1.76,4.688C43.141,26.922,2.744,66.018,2.744,66.018    C0.758,68.006,0,69.992,0,71.773c0,1.939,0.898,3.637,2.094,4.83c1.617,1.619,4.025,2.611,6.418,2.666    c-1.479,2.564-1.27,5.322,0.738,7.477c3.498,3.762,11.031,4.398,17.285-0.129c0.051,0.26,0.109,0.506,0.184,0.732    c0.891,2.641,3.74,4.643,7.629,5.35c3.059,0.557,7.23,0.258,10.762-1.822c0.018,0.43,0.08,0.805,0.16,1.104    c0.574,2.117,2.438,3.711,5.115,4.375c3.631,0.898,9.629,0.068,14.576-5.24C64.918,91.158,92.73,64.01,92.73,64.01    c0.828-0.826,20.041-20.061,22.752-24.803c1.467-2.57,1.998-4.312,1.998-6.238c0-1.547-0.344-3.213-0.82-5.523l4.109-4.682    C120.77,22.764,122.242,18.4,122.242,16.428z M118.586,20.629l-5.137,4.799L113.973,28c0.467,2.258,0.77,3.719,0.77,4.977    c0,1.557-0.461,2.803-1.645,4.869C111,41.52,96.293,56.57,90.803,62.059L63,89.197c-4.184,4.482-9.047,5.215-11.953,4.496    c-1.66-0.412-2.83-1.32-3.131-2.43c-0.348-1.281,0.396-2.9,2.094-4.557l-0.088-0.092c5.375-5.234,25.049-24.41,25.049-24.41    l-5.062-0.951l1.047,1.039l-24.41,23.793c-3.203,3.914-8.289,4.537-11.707,3.916c-2.805-0.512-4.969-1.895-5.516-3.525    c-0.102-0.297-0.145-0.594-0.145-0.891c0-0.658,0.223-1.307,0.547-1.906c1.473-1.545,3.252-3.41,3.252-3.41l-0.119-0.109    c4.816-4.678,17.279-16.785,20.451-19.867c0.477-0.463,3.029-1.6,3.029-1.6l-5.379-2.305l0.418,1.957L28.963,80.121    c-0.588,0.641-1.027,1.252-1.389,1.844l-1.666,1.748c-5.576,4.824-12.225,3.771-14.654,1.166c-0.664-0.717-0.996-1.5-0.996-2.318    c0-1.07,0.568-2.203,1.695-3.332c0.002,0,31.756-29.768,31.756-29.768l-2.738-3.826l-0.768,3.84l-28.125,25.91l-0.08-0.08    c-2.096,2.096-5.936,1.393-7.965-0.639c-1.926-1.924-1.693-4.365,0.635-6.693l41.264-39.934l2.184-6.068    c0-4.172-4.434-4.514-6.566-4.678l-17.982-0.004c-1.674,0-2.938-0.445-3.758-1.32c-0.895-0.951-1.082-2.211-1.082-3.1    c0-3.186,2.355-6.746,5.502-6.746h50.992c1.928-0.074,4.412,1.252,5.215,1.768l0.656,0.426l7.494-3.746l0.146-0.135    c0.113-0.102,2.812-2.486,7.525-1.492c12.463,2.629,19.996,6.094,22.389,10.301c0.623,1.092,0.848,2.166,0.848,3.201    C119.494,17.963,119.01,19.385,118.586,20.629z"
       id="path169" />
    <path
       opacity="0.7"
       fill="#FFFFFF"
       a:adobe-blending-mode="lighten"
       d="M82.271,22.626c2.408-2.106,3.312-5.72,6.923-6.321    c3.612-0.602,13.545-1.505,17.76,2.709c-3.312,0-9.633,4.214-9.934,6.923s-1.806,2.106-3.01,1.204s-2.107-3.611-2.107-5.117    c0-1.504,2.107-3.611,4.215-3.912C90.699,18.713,85.581,18.111,82.271,22.626z"
       id="path170" />
    <path
       d="M68.936,27.401V12.561L50.491,0L32.074,12.855V25.1l-0.704,0.489L14.209,37.524l-0.018,1.135v20.452l18.442,12.587    l16.048-11.161l16.353,11.161l18.419-12.811v-21.6L68.936,27.401z"
       id="path171" />
    <g
       id="g172">
      <path
         d="M63.458,25.804L46.655,37.489l-0.017,1.11v20.023l18.056,12.323l18.033-12.542V37.258L64.67,24.96L63.458,25.804z"
         id="path173" />
      <g
         id="g174">
        <linearGradient
           id="XMLID_1_"
           gradientUnits="userSpaceOnUse"
           x1="59.7939"
           y1="45.353"
           x2="62.4763"
           y2="41.5978">
          <stop
             offset="0"
             style="stop-color:#FFE5E5"
             id="stop176" />
          <stop
             offset="0.2769"
             style="stop-color:#FFD3D3"
             id="stop177" />
          <stop
             offset="0.8312"
             style="stop-color:#FFA4A4"
             id="stop178" />
          <stop
             offset="1"
             style="stop-color:#FF9494"
             id="stop179" />
          
          
          
        </linearGradient>
        <path
           fill="url(#XMLID_1_)"
           d="M64.683,49.449L48.784,38.622l15.898-11.056l15.898,10.826L64.683,49.449z"
           id="path183" />
      </g>
      <g
         id="g184">
        <linearGradient
           id="XMLID_2_"
           gradientUnits="userSpaceOnUse"
           x1="73.252"
           y1="54.043"
           x2="67.485"
           y2="47.7515">
          <stop
             offset="0"
             style="stop-color:#AE0001"
             id="stop186" />
          <stop
             offset="0.7868"
             style="stop-color:#9C0001"
             id="stop187" />
          <stop
             offset="1"
             style="stop-color:#960001"
             id="stop188" />
          
          
          
        </linearGradient>
        <path
           fill="url(#XMLID_2_)"
           d="M64.683,68.34l15.898-11.057V38.393L64.683,49.449V68.34z"
           id="path192" />
      </g>
      <g
         id="g193">
        <path
           fill="#C66364"
           d="M64.683,68.34L48.784,57.489V38.6l15.898,10.85V68.34z"
           id="path194" />
      </g>
      <path
         d="M31.735,25.804L14.935,37.489l-0.018,1.11v20.023l18.056,12.323l18.033-12.542V37.258L32.948,24.96L31.735,25.804z"
         id="path195" />
      <g
         id="g196">
        <linearGradient
           id="XMLID_3_"
           gradientUnits="userSpaceOnUse"
           x1="27.9414"
           y1="45.2007"
           x2="31.1599"
           y2="40.9093">
          <stop
             offset="0"
             style="stop-color:#FDFEED"
             id="stop198" />
          <stop
             offset="0.4341"
             style="stop-color:#EBECF3"
             id="stop199" />
          <stop
             offset="1"
             style="stop-color:#CECEFE"
             id="stop200" />
          
          
          
        </linearGradient>
        <path
           fill="url(#XMLID_3_)"
           d="M32.962,49.449L17.063,38.622l15.898-11.056l15.897,10.826L32.962,49.449z"
           id="path204" />
      </g>
      <g
         id="g205">
        <linearGradient
           id="XMLID_4_"
           gradientUnits="userSpaceOnUse"
           x1="32.9116"
           y1="49.1313"
           x2="41.8235"
           y2="53.8496">
          <stop
             offset="0"
             style="stop-color:#303162"
             id="stop207" />
          <stop
             offset="0.6492"
             style="stop-color:#383A74"
             id="stop208" />
          <stop
             offset="1"
             style="stop-color:#3E4080"
             id="stop209" />
          
          
          
        </linearGradient>
        <path
           fill="url(#XMLID_4_)"
           d="M32.962,68.34l15.897-11.057V38.393L32.962,49.449V68.34z"
           id="path213" />
      </g>
      <path
         d="M32.425,13.337v20.856l18.044,12.551l18.045-12.551V13.048L50.456,0.751L32.425,13.337z"
         id="path214" />
      <path
         d="M50.469,3.355L34.736,14.298l-0.168,0.129l0.002,18.646L50.469,44.13l15.899-11.058v-18.89L50.469,3.355z"
         id="path215" />
      <g
         id="g216">
        <linearGradient
           id="XMLID_5_"
           gradientUnits="userSpaceOnUse"
           x1="43.1924"
           y1="20.252"
           x2="49.0937"
           y2="15.4236">
          <stop
             offset="0"
             style="stop-color:#FDFEED"
             id="stop218" />
          <stop
             offset="1"
             style="stop-color:#FBEA96"
             id="stop219" />
          
          
          
        </linearGradient>
        <path
           fill="url(#XMLID_5_)"
           d="M50.469,25.239L34.57,14.413L50.469,3.355l15.899,10.827L50.469,25.239z"
           id="path223" />
      </g>
      <g
         id="g224">
        <path
           fill="#FFCD00"
           d="M50.469,44.13L34.57,33.072l-0.002-18.646l15.9,10.812V44.13z"
           id="path225" />
      </g>
      <g
         id="g226">
        <linearGradient
           id="XMLID_6_"
           gradientUnits="userSpaceOnUse"
           x1="44.2021"
           y1="23.9185"
           x2="54.1643"
           y2="27.5886">
          <stop
             offset="0"
             style="stop-color:#F08B01"
             id="stop228" />
          <stop
             offset="1"
             style="stop-color:#FF9401"
             id="stop229" />
          
          
          
        </linearGradient>
        <path
           fill="url(#XMLID_6_)"
           d="M50.469,44.13l15.899-11.058v-18.89L50.469,25.239V44.13z"
           id="path233" />
      </g>
      <g
         id="g234">
        <path
           fill="#9493FD"
           d="M32.962,68.34L17.063,57.489V38.6l15.898,10.85V68.34z"
           id="path235" />
      </g>
      <path
         opacity="0.25"
         a:adobe-blending-mode="multiply"
         d="M43.355,41.797l5.54,16.38l8.372-13.767l19.607-3.402l3.92-2.674     l-12.247-8.167l-0.034,4.026l-17.94,12.57L43.355,41.797z"
         id="path236" />
      <path
         opacity="0.7"
         fill="#CD9966"
         a:adobe-blending-mode="multiply"
         d="M32.634,71.698L43.9,72.039l8.09-6.127l5.439,0.006     l-8.723-5.926L32.634,71.698z"
         id="path237" />
      <path
         opacity="0.25"
         a:adobe-blending-mode="multiply"
         d="M40.997,40.15l8.361,18.011l7.909-13.751l-1.947-1.339l-4.852,3.673     L40.997,40.15z"
         id="path238" />
    </g>
    <path
       opacity="0.7"
       fill="#CD9966"
       a:adobe-blending-mode="multiply"
       d="M114.953,25.943c4.635-3.973,10.068-13.586-0.902-17.699    c2.057,4.113-2.057,10.285-4.799,10.285c0,2.742,2.742,9.598-4.801,18.512c-1.601,1.893-3.071,3.62-4.445,5.203    c-6.871,1.032-16.722-0.734-16.722-0.734l0.298,9.83l-0.832-0.397l-0.022,7.462L64.694,70.946l10.673,0.369    c-4.389,4.685-9.312,9.608-9.312,9.608s-8.914,10.285-11.656,10.285c-2.744,0-6.172,3.43-2.744,3.43    c3.43,0,9.6-2.059,21.256-13.715c11.658-11.656,42.512-39.768,43.197-47.996C116.795,24.699,114.953,25.943,114.953,25.943z"
       id="path239" />
  </g>
</svg>
