<?xml version="1.0" encoding="UTF-8" standalone="no"?>
<svg
   xmlns:dc="http://purl.org/dc/elements/1.1/"
   xmlns:cc="http://creativecommons.org/ns#"
   xmlns:rdf="http://www.w3.org/1999/02/22-rdf-syntax-ns#"
   xmlns:svg="http://www.w3.org/2000/svg"
   xmlns="http://www.w3.org/2000/svg"
   xmlns:xlink="http://www.w3.org/1999/xlink"
   xmlns:sodipodi="http://sodipodi.sourceforge.net/DTD/sodipodi-0.dtd"
   xmlns:inkscape="http://www.inkscape.org/namespaces/inkscape"
   version="1.1"
   width="64"
   height="64"
   color-interpolation="linearRGB"
   id="svg2"
   inkscape:version="0.47 r22583"
   sodipodi:docname="xfce4-fsguard-plugin.svg">
  <metadata
     id="metadata46">
    <rdf:RDF>
      <cc:Work
         rdf:about="">
        <dc:format>image/svg+xml</dc:format>
        <dc:type
           rdf:resource="http://purl.org/dc/dcmitype/StillImage" />
        <dc:title></dc:title>
      </cc:Work>
    </rdf:RDF>
  </metadata>
  <defs
     id="defs44">
    <inkscape:perspective
       sodipodi:type="inkscape:persp3d"
       inkscape:vp_x="0 : 32 : 1"
       inkscape:vp_y="0 : 1000 : 0"
       inkscape:vp_z="64 : 32 : 1"
       inkscape:persp3d-origin="32 : 21.333333 : 1"
       id="perspective48" />
    <inkscape:perspective
       id="perspective3018"
       inkscape:persp3d-origin="0.5 : 0.33333333 : 1"
       inkscape:vp_z="1 : 0.5 : 1"
       inkscape:vp_y="0 : 1000 : 0"
       inkscape:vp_x="0 : 0.5 : 1"
       sodipodi:type="inkscape:persp3d" />
    <linearGradient
       gradientUnits="userSpaceOnUse"
       xlink:href="#linearGradient13678"
       id="linearGradient13684"
       y2="37.75"
       x2="47.375"
       y1="1.125"
       x1="40.546875" />
    <linearGradient
       id="linearGradient13678">
      <stop
         id="stop13680"
         offset="0"
         style="stop-color:#ffffff;stop-opacity:1" />
      <stop
         id="stop13682"
         offset="1"
         style="stop-color:#ffffff;stop-opacity:0" />
    </linearGradient>
    <linearGradient
       gradientUnits="userSpaceOnUse"
       xlink:href="#linearGradient13678"
       id="linearGradient13702"
       y2="37.75"
       x2="47.375"
       y1="1.125"
       x1="40.546875" />
    <linearGradient
       id="linearGradient3027">
      <stop
         id="stop3029"
         offset="0"
         style="stop-color:#ffffff;stop-opacity:1" />
      <stop
         id="stop3031"
         offset="1"
         style="stop-color:#ffffff;stop-opacity:0" />
    </linearGradient>
    <linearGradient
       inkscape:collect="always"
       xlink:href="#linearGradient13678"
       id="linearGradient3083"
       gradientUnits="userSpaceOnUse"
       x1="40.546875"
       y1="1.125"
       x2="47.375"
       y2="37.75" />
    <linearGradient
       inkscape:collect="always"
       xlink:href="#linearGradient13678"
       id="linearGradient3085"
       gradientUnits="userSpaceOnUse"
       x1="40.546875"
       y1="1.125"
       x2="47.375"
       y2="37.75" />
  </defs>
  <sodipodi:namedview
     pagecolor="#ffffff"
     bordercolor="#666666"
     borderopacity="1"
     objecttolerance="10"
     gridtolerance="10"
     guidetolerance="10"
     inkscape:pageopacity="0"
     inkscape:pageshadow="2"
     inkscape:window-width="739"
     inkscape:window-height="501"
     id="namedview42"
     showgrid="false"
     inkscape:zoom="3.6875"
     inkscape:cx="58.053491"
     inkscape:cy="32"
     inkscape:window-x="117"
     inkscape:window-y="69"
     inkscape:window-maximized="0"
     inkscape:current-layer="svg2" />
  <g
     id="g4">
    <path
       style="fill:#010101; fill-opacity:0.5019"
       d="M36 61H41L64 30L58 27L59 31L36 61z"
       id="path6" />
    <path
       style="fill:none; stroke:#010000; stroke-width:4"
       d="M2 28V41L36 59L58 30V17L25 5L2 28z"
       id="path8" />
    <linearGradient
       id="gradient0"
       gradientUnits="userSpaceOnUse"
       x1="13.84"
       y1="-38.14"
       x2="58.34"
       y2="-27.7">
      <stop
         offset="0"
         stop-color="#ffffff"
         id="stop11" />
      <stop
         offset="1"
         stop-color="#d3d3d3"
         id="stop13" />
    </linearGradient>
    <path
       style="fill:url(#gradient0)"
       d="M2 28L36 43L58 17L25 5L2 28z"
       id="path15" />
    <linearGradient
       id="gradient1"
       gradientUnits="userSpaceOnUse"
       x1="44.72"
       y1="-7.9"
       x2="86.1"
       y2="10.51">
      <stop
         offset="0"
         stop-color="#474747"
         id="stop18" />
      <stop
         offset="1"
         stop-color="#a5a0a0"
         id="stop20" />
    </linearGradient>
    <path
       style="fill:url(#gradient1)"
       d="M36 43V59L58 30V17L36 43z"
       id="path22" />
    <linearGradient
       id="gradient2"
       gradientUnits="userSpaceOnUse"
       x1="22.97"
       y1="92.59"
       x2="-14.6"
       y2="67.29">
      <stop
         offset="0"
         stop-color="#7d7d7d"
         id="stop25" />
      <stop
         offset="1"
         stop-color="#d4d4d4"
         id="stop27" />
    </linearGradient>
    <path
       style="fill:url(#gradient2)"
       d="M2 28V41L36 59V43L2 28z"
       id="path29" />
    <linearGradient
       id="gradient3"
       gradientUnits="userSpaceOnUse"
       x1="32.05"
       y1="9.68"
       x2="43.48"
       y2="24.05">
      <stop
         offset="0"
         stop-color="#596756"
         id="stop32" />
      <stop
         offset="1"
         stop-color="#ebb2b2"
         id="stop34" />
    </linearGradient>
    <path
       style="fill:none; stroke:url(#gradient3); stroke-width:5; stroke-linecap:round"
       d="M7 35L12.75 37.5"
       id="path36" />
    <path
       style="fill:none; stroke:#ff0000; stroke-width:2"
       d="M6 35L9 36"
       transform="matrix(1,0,0,1,4,1.5)"
       id="path38" />
    <path
       style="fill:none; stroke:#a7ff00; stroke-width:2"
       d="M6 35L9 36"
       transform="matrix(1,0,0,1,0,-0.25)"
       id="path40" />
  </g>
  <g
     transform="matrix(1.4238539,0,0,1.4238539,-104.10977,-25.926323)"
     id="g3000">
    <g
       id="g13689"
       transform="translate(70.019481,18.238139)">
      <path
         id="path13687"
         style="font-size:10px;font-style:normal;font-variant:normal;font-weight:normal;font-stretch:normal;line-height:100%;writing-mode:lr-tb;text-anchor:start;fill:#3465a4;fill-opacity:1;stroke:#204a87;stroke-width:2;stroke-linecap:butt;stroke-linejoin:miter;stroke-miterlimit:4;stroke-opacity:1;stroke-dasharray:none;font-family:Segoe"
         d="m 46.925968,3.8880343 -6.972128,9.1323537 7.093408,0 0,2.99976 -12.571877,0 0,-0.586808 8.924315,-11.4616471 -8.383753,0 0.0625,-3.00127569 11.910035,0 -0.0625,2.91761709 z" />
      <path
         id="text12733"
         style="font-size:10px;font-style:normal;font-variant:normal;font-weight:normal;font-stretch:normal;line-height:100%;writing-mode:lr-tb;text-anchor:start;fill:#3465a4;fill-opacity:1;stroke:none;font-family:Segoe"
         d="m 46.925968,3.8880343 -6.972128,9.1323537 7.093408,0 0,2.99976 -12.571877,0 0,-0.586808 8.924315,-11.4616471 -8.383753,0 0.0625,-3.00127569 11.910035,0" />
      <path
         id="path13676"
         style="font-size:10px;font-style:normal;font-variant:normal;font-weight:normal;font-stretch:normal;line-height:100%;writing-mode:lr-tb;text-anchor:start;opacity:0.21348314;fill:#3465a4;fill-opacity:1;stroke:url(#linearGradient3083);stroke-width:1px;stroke-linecap:butt;stroke-linejoin:miter;stroke-opacity:1;font-family:Segoe"
         d="m 35.46875,1.34375 -0.0625,2.25 8,0 c 0.136431,0.00835 0.257516,0.090261 0.316029,0.2137889 0.05851,0.1235282 0.04519,0.2691084 -0.03478,0.3799611 l -8.84375,11.34375 0,0.125 11.84375,0 0,-2.25 -6.71875,0 c -0.142054,0.003 -0.273601,-0.07455 -0.339777,-0.200282 -0.06618,-0.125734 -0.05562,-0.278068 0.02728,-0.393468 L 46.5625,3.75 46.625,1.34375 l -11.15625,0 z" />
    </g>
    <g
       id="g13694"
       transform="matrix(0.567849,0,0,0.567849,73.77912,30.707234)">
      <path
         id="path13696"
         style="font-size:10px;font-style:normal;font-variant:normal;font-weight:normal;font-stretch:normal;line-height:100%;writing-mode:lr-tb;text-anchor:start;fill:#3465a4;fill-opacity:1;stroke:#204a87;stroke-width:3.52206182;stroke-linecap:butt;stroke-linejoin:miter;stroke-miterlimit:4;stroke-opacity:1;stroke-dasharray:none;font-family:Segoe"
         d="m 46.925968,3.8880343 -6.972128,9.1323537 7.093408,0 0,3.770211 -12.571877,0 0,-0.586808 8.924315,-12.2320981 -8.383753,0 0.0625,-3.00127569 11.910035,0 -0.0625,2.91761709 z" />
      <path
         id="path13698"
         style="font-size:10px;font-style:normal;font-variant:normal;font-weight:normal;font-stretch:normal;line-height:100%;writing-mode:lr-tb;text-anchor:start;fill:#3465a4;fill-opacity:1;stroke:none;font-family:Segoe"
         d="m 46.925968,3.8880343 -6.972128,9.1323537 7.093408,0 0,2.99976 -12.571877,0 0,-0.586808 8.924315,-11.4616471 -8.383753,0 0.0625,-3.00127569 11.910035,0" />
      <path
         id="path13700"
         style="font-size:10px;font-style:normal;font-variant:normal;font-weight:normal;font-stretch:normal;line-height:100%;writing-mode:lr-tb;text-anchor:start;opacity:0.21348314;fill:#3465a4;fill-opacity:1;stroke:url(#linearGradient3085);stroke-width:1.76103091px;stroke-linecap:butt;stroke-linejoin:miter;stroke-opacity:1;font-family:Segoe"
         d="m 35.46875,1.34375 -0.0625,2.25 8,0 c 0.136431,0.00835 0.257516,0.090261 0.316029,0.2137889 0.05851,0.1235282 0.04519,0.2691084 -0.03478,0.3799611 l -8.84375,11.34375 0,0.125 11.84375,0 0,-2.25 -6.71875,0 c -0.142054,0.003 -0.273601,-0.07455 -0.339777,-0.200282 -0.06618,-0.125734 -0.05562,-0.278068 0.02728,-0.393468 L 46.5625,3.75 46.625,1.34375 l -11.15625,0 z" />
    </g>
  </g>
</svg>
