<?xml version="1.0" encoding="UTF-8" standalone="no"?>
<svg
   xmlns:dc="http://purl.org/dc/elements/1.1/"
   xmlns:cc="http://creativecommons.org/ns#"
   xmlns:rdf="http://www.w3.org/1999/02/22-rdf-syntax-ns#"
   xmlns:svg="http://www.w3.org/2000/svg"
   xmlns="http://www.w3.org/2000/svg"
   xmlns:sodipodi="http://sodipodi.sourceforge.net/DTD/sodipodi-0.dtd"
   xmlns:inkscape="http://www.inkscape.org/namespaces/inkscape"
   version="1.1"
   width="64"
   height="64"
   color-interpolation="linearRGB"
   id="svg2"
   inkscape:version="0.91 r13725"
   sodipodi:docname="xfpm-mouse-000.svg"
   inkscape:export-filename="/home/mdl/.icons/unix/scalable/battery.png"
   inkscape:export-xdpi="90"
   inkscape:export-ydpi="90">
  <metadata
     id="metadata84">
    <rdf:RDF>
      <cc:Work
         rdf:about="">
        <dc:format>image/svg+xml</dc:format>
        <dc:type
           rdf:resource="http://purl.org/dc/dcmitype/StillImage" />
        <dc:title />
      </cc:Work>
    </rdf:RDF>
  </metadata>
  <defs
     id="defs82">
    <inkscape:perspective
       sodipodi:type="inkscape:persp3d"
       inkscape:vp_x="0 : 32 : 1"
       inkscape:vp_y="0 : 1000 : 0"
       inkscape:vp_z="64 : 32 : 1"
       inkscape:persp3d-origin="32 : 21.333333 : 1"
       id="perspective86" />
    <inkscape:perspective
       id="perspective2902"
       inkscape:persp3d-origin="0.5 : 0.33333333 : 1"
       inkscape:vp_z="1 : 0.5 : 1"
       inkscape:vp_y="0 : 1000 : 0"
       inkscape:vp_x="0 : 0.5 : 1"
       sodipodi:type="inkscape:persp3d" />
    <linearGradient
       x1="33.689999"
       y1="1.88"
       x2="51.599998"
       y2="3.6700001"
       id="gradient0-0"
       gradientUnits="userSpaceOnUse">
      <stop
         id="stop2454"
         style="stop-color:#d7d7d7;stop-opacity:1"
         offset="0" />
      <stop
         id="stop2456"
         style="stop-color:#b8b8b8;stop-opacity:1"
         offset="1" />
    </linearGradient>
    <linearGradient
       x1="33.689999"
       y1="1.88"
       x2="51.599998"
       y2="3.6700001"
       id="gradient1-9"
       gradientUnits="userSpaceOnUse">
      <stop
         id="stop2463"
         style="stop-color:#d2d2d2;stop-opacity:1"
         offset="0" />
      <stop
         id="stop2465"
         style="stop-color:#858585;stop-opacity:1"
         offset="1" />
    </linearGradient>
    <linearGradient
       x1="24"
       y1="7.9899998"
       x2="64"
       y2="7.9899998"
       id="gradient2-7"
       gradientUnits="userSpaceOnUse">
      <stop
         id="stop2472"
         style="stop-color:#f4f4f4;stop-opacity:1"
         offset="0" />
      <stop
         id="stop2474"
         style="stop-color:#dbdbdb;stop-opacity:1"
         offset="1" />
    </linearGradient>
    <linearGradient
       x1="55.689999"
       y1="-10.23"
       x2="74.970001"
       y2="-5.4099998"
       id="gradient3-7"
       gradientUnits="userSpaceOnUse">
      <stop
         id="stop2479"
         style="stop-color:#5c5c5c;stop-opacity:1"
         offset="0" />
      <stop
         id="stop2481-3"
         style="stop-color:#838383;stop-opacity:1"
         offset="1" />
    </linearGradient>
    <linearGradient
       y2="-22.639999"
       x2="29.83"
       y1="-5.3699999"
       x1="-20.360001"
       gradientUnits="userSpaceOnUse"
       id="gradient1">
      <stop
         id="stop18"
         stop-color="#696969"
         offset="0" />
      <stop
         id="stop20"
         stop-color="#010101"
         offset="1" />
    </linearGradient>
    <radialGradient
       gradientTransform="matrix(0.5625,0,0,0.5625,16,16)"
       r="64"
       cy="0"
       cx="0"
       gradientUnits="userSpaceOnUse"
       id="gradient2">
      <stop
         id="stop25"
         stop-color="#fbfbfb"
         offset="0" />
      <stop
         id="stop27"
         stop-color="#c0c0c0"
         offset="1" />
    </radialGradient>
    <radialGradient
       gradientTransform="matrix(-0.0687,-0.1744,0.1744,-0.0687,22.6166,25.7815)"
       r="64"
       cy="0"
       cx="0"
       gradientUnits="userSpaceOnUse"
       id="gradient3">
      <stop
         id="stop36"
         stop-color="#bebebe"
         offset="1" />
      <stop
         id="stop38"
         stop-color="#010000"
         offset="0" />
    </radialGradient>
  </defs>
  <sodipodi:namedview
     pagecolor="#ffffff"
     bordercolor="#666666"
     borderopacity="1"
     objecttolerance="10"
     gridtolerance="10"
     guidetolerance="10"
     inkscape:pageopacity="0"
     inkscape:pageshadow="2"
     inkscape:window-width="1106"
     inkscape:window-height="682"
     id="namedview80"
     showgrid="false"
     inkscape:zoom="4.3983156"
     inkscape:cx="46.961605"
     inkscape:cy="18.108946"
     inkscape:window-x="121"
     inkscape:window-y="43"
     inkscape:window-maximized="0"
     inkscape:current-layer="svg2" />
  <g
     id="g4429">
    <g
       transform="matrix(0.94850727,0,0,0.94850727,-4.9739987,6.5329518)"
       id="g4194">
      <path
         inkscape:connector-curvature="0"
         id="path6"
         d="m 38,57 c 0,0 3.21,0 5.99,0 2.13,0 5.8,-0.9 8.01,-2.01 3.49,-1.74 9.24,-7.11 10.34,-9.86 C 63.21,42.95 62.2,40.1 59.99,38.99 56.5,37.25 52,35 52,35 L 38,57 Z"
         style="fill:#010000;fill-opacity:0.49010004" />
      <path
         inkscape:connector-curvature="0"
         id="path15"
         d="m 39,52 c 4,0 9.62,-2.63 10.99,-4 C 51.36,46.63 52.73,45.26 54,43.99 57.36,40.63 56,34 54,32 52,30 46,21 34,19 22,17 16,22 12,26 8,30 7.93,37.99 7.93,37.99 10,42 12.68,38.86 20,42 27.76,45.32 35,52 39,52 Z M 12,44 c 5.95,2.97 14.03,7.01 19.99,9.99 C 36.64,56.32 44.64,53.35 48,50 50.53,47.46 49.46,48.53 52,46 55.35,42.64 56.64,36.32 51.99,33.99 46.03,31.01 37.95,26.97 32,24 27.34,21.67 21.36,22.63 18,25.99 15.47,28.52 12.52,31.47 9.99,34 6.63,37.36 7.34,41.67 12,44 Z m 2,-20 c 0,0 4,-2 10,0 l 3,-2 c 0,0 0,-3 -6,-3 -6,0 -7,5 -7,5 z"
         style="fill:none;stroke:#010000;stroke-width:4;stroke-linecap:round;stroke-linejoin:round" />
      <path
         inkscape:connector-curvature="0"
         id="path22"
         d="m 12,44 c 5.95,2.97 14.03,7.01 19.99,9.99 C 36.64,56.32 44.64,53.35 48,50 50.53,47.46 49.46,48.53 52,46 55.35,42.64 56.64,36.32 51.99,33.99 46.03,31.01 37.95,26.97 32,24 27.34,21.67 21.36,22.63 18,25.99 15.47,28.52 12.52,31.47 9.99,34 6.63,37.36 7.34,41.67 12,44 Z"
         style="fill:url(#gradient1)" />
      <path
         inkscape:connector-curvature="0"
         id="path29"
         d="m 39,52 c 4,0 9.62,-2.63 10.99,-4 C 51.36,46.63 52.73,45.26 54,43.99 57.36,40.63 56,34 54,32 52,30 46,21 34,19 22,17 16,22 12,26 8,30 7.93,37.99 7.93,37.99 10,42 12.68,38.86 20,42 c 7.76,3.32 15,10 19,10 z"
         style="fill:url(#gradient2)" />
      <path
         inkscape:connector-curvature="0"
         id="path31"
         d="m 16,41 c 0,-6 1.86,-13.19 10,-19 7,-5 7,-3 7,-3"
         style="fill:none;stroke:#010000;stroke-width:1" />
      <path
         inkscape:connector-curvature="0"
         id="path33"
         d="m 17.4856,40.7488 c 0,-5.8122 1.808478,-12.777153 9.723,-18.4053 6.8061,-4.8435 6.8061,-2.9061 6.8061,-2.9061"
         style="fill:none;stroke:#fcfcfc;stroke-width:0.97049832" />
      <path
         inkscape:connector-curvature="0"
         id="path40"
         d="m 14,24 c 0,0 4,-2 10,0 l 3,-2 c 0,0 0,-3 -6,-3 -6,0 -7,5 -7,5 z"
         style="fill:url(#gradient3)" />
    </g>
    <g
       style="stroke:#009999;stroke-opacity:1"
       id="g4872"
       transform="matrix(-1.6634239,-0.4380232,-0.4380232,1.6634239,88.259385,5.9949954)">
      <path
         inkscape:connector-curvature="0"
         sodipodi:nodetypes="csc"
         id="path3235"
         d="M 47.52284,14.808679 C 45.89136,11.935578 43.15815,9.692241 39.74484,8.750231 36.33153,7.8082201 32.8346,8.332155 29.960456,9.961788"
         style="color:#000000;display:inline;overflow:visible;visibility:visible;fill:none;fill-opacity:1;fill-rule:evenodd;stroke:#009999;stroke-width:1.00000036;stroke-linecap:round;stroke-linejoin:miter;stroke-miterlimit:4;stroke-dasharray:none;stroke-dashoffset:0;stroke-opacity:1;marker:none;marker-start:none;marker-mid:none;marker-end:none" />
      <path
         inkscape:connector-curvature="0"
         sodipodi:nodetypes="csc"
         id="path3233"
         d="M 43.97905,16.819501 C 42.86381,14.853644 40.99673,13.31527 38.66275,12.671132 36.32876,12.026997 33.93694,12.389996 31.97128,13.50558"
         style="color:#000000;display:inline;overflow:visible;visibility:visible;fill:none;fill-opacity:1;fill-rule:evenodd;stroke:#009999;stroke-width:1.00000036;stroke-linecap:round;stroke-linejoin:miter;stroke-miterlimit:4;stroke-dasharray:none;stroke-dashoffset:0;stroke-opacity:1;marker:none;marker-start:none;marker-mid:none;marker-end:none" />
      <path
         inkscape:connector-curvature="0"
         sodipodi:nodetypes="csc"
         id="path3227"
         d="M 40.43526,18.830323 C 39.83409,17.77083 38.8387,16.939234 37.58065,16.592036 36.3226,16.24484 35.04158,16.448186 33.9821,17.049372"
         style="color:#000000;display:inline;overflow:visible;visibility:visible;fill:none;fill-opacity:1;fill-rule:evenodd;stroke:#009999;stroke-width:1.00000036;stroke-linecap:round;stroke-linejoin:miter;stroke-miterlimit:4;stroke-dasharray:none;stroke-dashoffset:0;stroke-opacity:1;marker:none;marker-start:none;marker-mid:none;marker-end:none" />
    </g>
  </g>
  <rect
     y="12.788136"
     x="52.923729"
     height="50.711864"
     width="10.576271"
     id="rect2916"
     style="fill:#ff3e51;fill-opacity:1;stroke:#000000;stroke-width:1;stroke-linecap:butt;stroke-linejoin:miter;stroke-miterlimit:4;stroke-opacity:1;stroke-dasharray:none;stroke-dashoffset:0.5" />
  <path
     style="fill:#3eff51;fill-opacity:1;stroke:#000000;stroke-width:1;stroke-linecap:butt;stroke-linejoin:miter;stroke-miterlimit:4;stroke-dasharray:none;stroke-dashoffset:0.5;stroke-opacity:1"
     d="m 52.229156,63.171883 11.965403,0 0,1.022678 -11.965403,0 z"
     id="rect5585" />
</svg>
