<?xml version="1.0" encoding="UTF-8" standalone="no"?>
<!-- Created with Sodipodi ("http://www.sodipodi.com/") -->

<svg
   xmlns:dc="http://purl.org/dc/elements/1.1/"
   xmlns:cc="http://creativecommons.org/ns#"
   xmlns:rdf="http://www.w3.org/1999/02/22-rdf-syntax-ns#"
   xmlns:svg="http://www.w3.org/2000/svg"
   xmlns="http://www.w3.org/2000/svg"
   xmlns:xlink="http://www.w3.org/1999/xlink"
   xmlns:sodipodi="http://sodipodi.sourceforge.net/DTD/sodipodi-0.dtd"
   xmlns:inkscape="http://www.inkscape.org/namespaces/inkscape"
   inkscape:version="0.91 r13725"
   sodipodi:docname="xfwm4.svg"
   height="128pt"
   width="128pt"
   sodipodi:version="0.32"
   id="svg639"
   version="1.1">
  <metadata
     id="metadata34">
    <rdf:RDF>
      <cc:Work
         rdf:about="">
        <dc:format>image/svg+xml</dc:format>
        <dc:type
           rdf:resource="http://purl.org/dc/dcmitype/StillImage" />
      </cc:Work>
    </rdf:RDF>
  </metadata>
  <defs
     id="defs641">
    <linearGradient
       id="linearGradient850">
      <stop
         id="stop851"
         offset="0.0000000"
         style="stop-color:#7590ae;stop-opacity:1.0000000;" />
      <stop
         id="stop854"
         offset="0.78970802"
         style="stop-color:#bac7d6;stop-opacity:1.0000000;" />
      <stop
         id="stop852"
         offset="1.0000000"
         style="stop-color:#ffffff;stop-opacity:1.0000000;" />
    </linearGradient>
    <linearGradient
       id="linearGradient846">
      <stop
         id="stop847"
         offset="0.0000000"
         style="stop-color:#139cff;stop-opacity:1.0000000;" />
      <stop
         id="stop849"
         offset="0.59651518"
         style="stop-color:#d8dbdb;stop-opacity:0.49803922;" />
      <stop
         id="stop848"
         offset="1"
         style="stop-color:#ffffff;stop-opacity:0;" />
    </linearGradient>
    <linearGradient
       id="linearGradient643">
      <stop
         id="stop644"
         offset="0"
         style="stop-color:#57524f;stop-opacity:1.0000;" />
      <stop
         id="stop645"
         offset="1"
         style="stop-color:#ffffff;stop-opacity:0;" />
    </linearGradient>
    <linearGradient
       y2="-1.3055908"
       x2="3.8204695"
       y1="51.064174"
       x1="3.8204695"
       id="linearGradient646"
       xlink:href="#linearGradient850"
       gradientTransform="matrix(0.433156,0.000000,0.000000,1.721887,17.10240,16.65414)"
       gradientUnits="userSpaceOnUse" />
    <linearGradient
       y2="192.69274"
       x2="-0.44683951"
       y1="28.057038"
       x1="141.11459"
       id="linearGradient656"
       xlink:href="#linearGradient643"
       gradientTransform="matrix(0.946902,0.000000,0.000000,1.039274,-0.458092,7.249133)"
       gradientUnits="userSpaceOnUse" />
    <linearGradient
       y2="39.032839"
       x2="171.43154"
       y1="78.649513"
       x1="76.064267"
       id="linearGradient674"
       xlink:href="#linearGradient643"
       gradientTransform="matrix(0.700013,0,0,1.065476,38.554471,25.487948)"
       gradientUnits="userSpaceOnUse" />
    <linearGradient
       y2="0.632813"
       x2="-2.228573"
       y1="0.460943"
       x1="0.799803"
       id="linearGradient675"
       xlink:href="#linearGradient643" />
    <linearGradient
       y2="192.69274"
       x2="-0.44683951"
       y1="28.057038"
       x1="141.11459"
       gradientTransform="matrix(0.946902,0.000000,0.000000,0.883593,-160.0125,9.496688)"
       gradientUnits="userSpaceOnUse"
       id="linearGradient1319"
       xlink:href="#linearGradient643"
       inkscape:collect="always" />
    <linearGradient
       inkscape:collect="always"
       xlink:href="#linearGradient643"
       id="linearGradient3779"
       gradientUnits="userSpaceOnUse"
       gradientTransform="matrix(0.700013,0,0,1.065476,35.818754,22.942123)"
       x1="76.064267"
       y1="78.649513"
       x2="171.43154"
       y2="39.032839" />
    <linearGradient
       inkscape:collect="always"
       xlink:href="#gradient4"
       id="linearGradient2538"
       gradientUnits="userSpaceOnUse"
       x1="21.959999"
       y1="-0.0099999998"
       x2="57.169998"
       y2="22.58"
       gradientTransform="matrix(0.80019064,0,0,0.80019064,-72.160304,-43.856385)" />
    <linearGradient
       id="gradient4"
       gradientUnits="userSpaceOnUse"
       x1="21.959999"
       y1="-0.0099999998"
       x2="57.169998"
       y2="22.58">
      <stop
         offset="0"
         stop-color="#f7f9ff"
         id="stop2483" />
      <stop
         offset="1"
         stop-color="#989db0"
         id="stop2485" />
    </linearGradient>
    <linearGradient
       id="aigrd1"
       gradientUnits="userSpaceOnUse"
       x1="10.73"
       y1="-4.4619002"
       x2="10.73"
       y2="20.142599">
      <stop
         offset="0"
         style="stop-color:#B8B8B8"
         id="stop6" />
      <stop
         offset="0.2528"
         style="stop-color:#E9E9E9"
         id="stop8" />
      <stop
         offset="0.2978"
         style="stop-color:#909090"
         id="stop10" />
      <stop
         offset="0.2992"
         style="stop-color:#919191"
         id="stop12" />
      <stop
         offset="0.3458"
         style="stop-color:#AAAAAA"
         id="stop14" />
      <stop
         offset="0.3973"
         style="stop-color:#BEBEBE"
         id="stop16" />
      <stop
         offset="0.4565"
         style="stop-color:#CCCCCC"
         id="stop18" />
      <stop
         offset="0.5295"
         style="stop-color:#D4D4D4"
         id="stop20" />
      <stop
         offset="0.6573"
         style="stop-color:#D6D6D6"
         id="stop22" />
      <stop
         offset="1"
         style="stop-color:#A2A2A2"
         id="stop24" />
    </linearGradient>
    <linearGradient
       id="aigrd2"
       gradientUnits="userSpaceOnUse"
       x1="6.7680998"
       y1="2.3311"
       x2="6.7680998"
       y2="20.279499">
      <stop
         offset="0"
         style="stop-color:#B8B8B8"
         id="stop29" />
      <stop
         offset="0.2528"
         style="stop-color:#F8F8F8"
         id="stop31" />
      <stop
         offset="0.2978"
         style="stop-color:#C2C2C2"
         id="stop33" />
      <stop
         offset="0.3067"
         style="stop-color:#C6C6C6"
         id="stop35" />
      <stop
         offset="0.3647"
         style="stop-color:#D9D9D9"
         id="stop37" />
      <stop
         offset="0.4313"
         style="stop-color:#E7E7E7"
         id="stop39" />
      <stop
         offset="0.5135"
         style="stop-color:#F0F0F0"
         id="stop41" />
      <stop
         offset="0.6573"
         style="stop-color:#F2F2F2"
         id="stop43" />
      <stop
         offset="1"
         style="stop-color:#A2A2A2"
         id="stop45" />
    </linearGradient>
    <linearGradient
       id="aigrd3"
       gradientUnits="userSpaceOnUse"
       x1="13.3486"
       y1="3.1245"
       x2="13.3486"
       y2="19.996799">
      <stop
         offset="0"
         style="stop-color:#B8B8B8"
         id="stop52" />
      <stop
         offset="0.2528"
         style="stop-color:#F8F8F8"
         id="stop54" />
      <stop
         offset="0.2978"
         style="stop-color:#C2C2C2"
         id="stop56" />
      <stop
         offset="0.3067"
         style="stop-color:#C6C6C6"
         id="stop58" />
      <stop
         offset="0.3647"
         style="stop-color:#D9D9D9"
         id="stop60" />
      <stop
         offset="0.4313"
         style="stop-color:#E7E7E7"
         id="stop62" />
      <stop
         offset="0.5135"
         style="stop-color:#F0F0F0"
         id="stop64" />
      <stop
         offset="0.6573"
         style="stop-color:#F2F2F2"
         id="stop66" />
      <stop
         offset="1"
         style="stop-color:#A2A2A2"
         id="stop68" />
    </linearGradient>
    <radialGradient
       id="aigrd4"
       cx="17.6094"
       cy="18.306601"
       r="0.9138"
       fx="17.6094"
       fy="18.306601"
       gradientUnits="userSpaceOnUse">
      <stop
         offset="0"
         style="stop-color:#4D4D4D"
         id="stop79" />
      <stop
         offset="1"
         style="stop-color:#B8B8B8"
         id="stop81" />
    </radialGradient>
  </defs>
  <sodipodi:namedview
     inkscape:current-layer="svg639"
     inkscape:window-y="30"
     inkscape:window-x="106"
     inkscape:window-height="768"
     inkscape:window-width="1242"
     inkscape:cy="93.153273"
     inkscape:cx="-34.408464"
     inkscape:zoom="2.7906269"
     showgrid="true"
     snaptogrid="true"
     id="base"
     inkscape:window-maximized="0"
     showguides="true"
     inkscape:guide-bbox="true">
    <sodipodi:guide
       orientation="0,1"
       position="71.822467,40.171888"
       id="guide3008" />
    <sodipodi:guide
       orientation="1,0"
       position="97.386396,87.343424"
       id="guide3010" />
  </sodipodi:namedview>
  <rect
     ry="8.9929466"
     y="21.452541"
     x="9.5770073"
     height="82.622330"
     width="140.76396"
     id="rect647"
     style="font-size:12;fill:#000099;fill-rule:evenodd;stroke:#000000;stroke-width:3.23859139999999979;stroke-linecap:round;stroke-linejoin:round;fill-opacity:1"
     rx="8.9929466" />
  <path
     style="fill:#000000;fill-opacity:0.076923080;fill-rule:evenodd;stroke:none;stroke-width:1.2500000;stroke-linecap:round;stroke-miterlimit:4.0000000;stroke-opacity:1.0000000"
     d="M 29.491526,102.50847 L 143.45763,102.50847 L 149.45763,95.728813 L 29.491526,95.728813 L 29.491526,102.50847 z "
     id="path2078"
     sodipodi:nodetypes="ccccc" />
  <rect
     y="21.452539"
     x="9.5770073"
     height="82.622330"
     width="18.360518"
     id="rect654"
     style="font-size:12;fill:#ffcc00;fill-rule:evenodd;stroke:#000000;stroke-width:3.23859139999999979;stroke-linecap:round;stroke-linejoin:round;stroke-opacity:1;fill-opacity:1" />
  <g
     id="g3781"
     transform="translate(-1.5216624,2.1135665)">
    <path
       inkscape:connector-curvature="0"
       style="font-size:12px;fill:none;stroke:#ffffff;stroke-width:7.55700016;stroke-linecap:square;stroke-miterlimit:4;stroke-opacity:1;stroke-dasharray:none"
       d="M 136.27466,39.501527 99.553565,80.540691"
       id="path670"
       sodipodi:nodetypes="cc" />
    <path
       inkscape:connector-curvature="0"
       style="font-size:12px;fill:none;stroke:#ffffff;stroke-width:7.55671358;stroke-linecap:square;stroke-opacity:1"
       d="M 99.553555,39.501527 136.27466,80.540691"
       id="path671"
       sodipodi:nodetypes="cc" />
  </g>
  <path
     sodipodi:nodetypes="ccccc"
     id="path668"
     d="M 43.237953,82.654262 L 79.958995,82.654262 L 79.958995,41.615089 L 43.237953,41.615089 L 43.237953,82.654262 z "
     style="font-size:12;fill:none;fill-rule:evenodd;stroke:#ffffff;stroke-width:7.55671360000000014;stroke-linecap:square;stroke-linejoin:round;fill-opacity:1;stroke-opacity:1" />
  <path
     style="fill:#ffffff;fill-opacity:0.40080968;fill-rule:evenodd;stroke:none;stroke-width:1.2500000;stroke-linecap:round;stroke-miterlimit:4.0000000;stroke-opacity:1.0000000"
     d="M 29.830509,22.711864 L 143.79661,22.711864 L 147.79661,29.491526 L 29.830509,29.491526 L 29.830509,22.711864 z "
     id="rect1317"
     sodipodi:nodetypes="ccccc" />
  <path
     sodipodi:nodetypes="cccccccc"
     id="path694"
     d="m 38.211625,110.30786 -4.730389,39.79687 -7.470012,-8.59938 -8.95933,15.68876 -9.2856288,-5.42005 8.9593318,-15.68876 -11.1012398,-2.24071 z"
     style="font-size:12px;fill:#000000;fill-opacity:1;fill-rule:evenodd;stroke:#ffffff;stroke-width:3.23859143;stroke-linecap:round;stroke-linejoin:round;stroke-opacity:1"
     inkscape:connector-curvature="0" />
  <g
     id="Layer_x0020_3"
     style="fill:#ffffff;fill-rule:nonzero;stroke:#000000;stroke-width:0.55564058;stroke-miterlimit:4"
     transform="matrix(4.4315274,0,0,4.422892,68.610793,62.180817)">
    <linearGradient
       id="linearGradient3431"
       gradientUnits="userSpaceOnUse"
       x1="10.73"
       y1="-4.4619002"
       x2="10.73"
       y2="20.142599">
      <stop
         offset="0"
         style="stop-color:#B8B8B8"
         id="stop3433" />
      <stop
         offset="0.2528"
         style="stop-color:#E9E9E9"
         id="stop3435" />
      <stop
         offset="0.2978"
         style="stop-color:#909090"
         id="stop3437" />
      <stop
         offset="0.2992"
         style="stop-color:#919191"
         id="stop3439" />
      <stop
         offset="0.3458"
         style="stop-color:#AAAAAA"
         id="stop3441" />
      <stop
         offset="0.3973"
         style="stop-color:#BEBEBE"
         id="stop3443" />
      <stop
         offset="0.4565"
         style="stop-color:#CCCCCC"
         id="stop3445" />
      <stop
         offset="0.5295"
         style="stop-color:#D4D4D4"
         id="stop3447" />
      <stop
         offset="0.6573"
         style="stop-color:#D6D6D6"
         id="stop3449" />
      <stop
         offset="1"
         style="stop-color:#A2A2A2"
         id="stop3451" />
    </linearGradient>
    <path
       style="fill:url(#aigrd1);stroke-width:1.41766131;stroke-linecap:round;stroke-linejoin:round"
       d="M 18.9,17.5 10.3,8.6 C 10.8,7.4 11.3,5.8 11,5.1 10.3,4 7.7,3 7.7,3 L 6.7,4 8.5,5.8 7.8,8.3 5.4,8.9 3.6,7.1 l -1,1 c 0,0 0.6,2.8 2.1,3.3 0.9,0.3 2.3,-0.2 3.4,-0.6 l 8.5,8.9 c 0.6,0.6 1.5,0.6 2.1,0 0.6,-0.6 0.6,-1.5 0,-2.1 z"
       id="path26"
       inkscape:connector-curvature="0" />
    <linearGradient
       id="linearGradient3454"
       gradientUnits="userSpaceOnUse"
       x1="6.7680998"
       y1="2.3311"
       x2="6.7680998"
       y2="20.279499">
      <stop
         offset="0"
         style="stop-color:#B8B8B8"
         id="stop3456" />
      <stop
         offset="0.2528"
         style="stop-color:#F8F8F8"
         id="stop3458" />
      <stop
         offset="0.2978"
         style="stop-color:#C2C2C2"
         id="stop3460" />
      <stop
         offset="0.3067"
         style="stop-color:#C6C6C6"
         id="stop3462" />
      <stop
         offset="0.3647"
         style="stop-color:#D9D9D9"
         id="stop3464" />
      <stop
         offset="0.4313"
         style="stop-color:#E7E7E7"
         id="stop3466" />
      <stop
         offset="0.5135"
         style="stop-color:#F0F0F0"
         id="stop3468" />
      <stop
         offset="0.6573"
         style="stop-color:#F2F2F2"
         id="stop3470" />
      <stop
         offset="1"
         style="stop-color:#A2A2A2"
         id="stop3472" />
    </linearGradient>
    <path
       style="fill:url(#aigrd2);stroke:none"
       d="M 10.9,5.1 C 10.3,4 7.7,3 7.7,3 L 6.7,4 8.5,5.8 7.8,8.3 5.4,8.9 3.6,7.1 l -1,1 c 0,0 0.6,2.8 2.1,3.3 1.5,0.5 4.9,-1.3 4.9,-1.3 0,0 1.9,-3.7 1.3,-4.9 z"
       id="path47"
       inkscape:connector-curvature="0" />
    <path
       style="fill:#787878;stroke:none"
       d="m 8.7,9.1 9.9,10.4"
       id="path49"
       inkscape:connector-curvature="0" />
    <linearGradient
       id="linearGradient3476"
       gradientUnits="userSpaceOnUse"
       x1="13.3486"
       y1="3.1245"
       x2="13.3486"
       y2="19.996799">
      <stop
         offset="0"
         style="stop-color:#B8B8B8"
         id="stop3478" />
      <stop
         offset="0.2528"
         style="stop-color:#F8F8F8"
         id="stop3480" />
      <stop
         offset="0.2978"
         style="stop-color:#C2C2C2"
         id="stop3482" />
      <stop
         offset="0.3067"
         style="stop-color:#C6C6C6"
         id="stop3484" />
      <stop
         offset="0.3647"
         style="stop-color:#D9D9D9"
         id="stop3486" />
      <stop
         offset="0.4313"
         style="stop-color:#E7E7E7"
         id="stop3488" />
      <stop
         offset="0.5135"
         style="stop-color:#F0F0F0"
         id="stop3490" />
      <stop
         offset="0.6573"
         style="stop-color:#F2F2F2"
         id="stop3492" />
      <stop
         offset="1"
         style="stop-color:#A2A2A2"
         id="stop3494" />
    </linearGradient>
    <path
       style="fill:url(#aigrd3);stroke:none"
       d="m 7.9,8.3 c -0.6,0.6 -0.6,1.5 0,2.1 l 8.9,9.2 c 0.6,0.6 1.5,0.6 2.1,0 0.6,-0.6 0.6,-1.5 0,-2.1 L 10,8.3 C 9.4,7.7 8.5,7.7 7.9,8.3 Z"
       id="path70"
       inkscape:connector-curvature="0" />
    <path
       style="stroke:none"
       d="M 7,4.3 6.7,4 7.7,3 c 0,0 2.2,0.8 3,1.7 C 9.6,4 7.8,3.5 7.8,3.5 L 7,4.3 Z"
       id="path72"
       inkscape:connector-curvature="0" />
    <path
       style="stroke:none"
       d="m 2.6,8.1 1,-1 L 5.4,8.9 7.9,8.2 8.5,5.7 8.2,8.5 5.2,9.5 3.6,7.7 2.7,8.6 2.6,8.1 Z"
       id="path74"
       inkscape:connector-curvature="0" />
    <path
       style="stroke:none"
       d="m 10.2,8.5 8.6,9 -8.3,-8 -0.3,-1.1 z"
       id="path76"
       inkscape:connector-curvature="0" />
    <radialGradient
       id="radialGradient3500"
       cx="17.6094"
       cy="18.306601"
       r="0.9138"
       fx="17.6094"
       fy="18.306601"
       gradientUnits="userSpaceOnUse">
      <stop
         offset="0"
         style="stop-color:#4D4D4D"
         id="stop3502" />
      <stop
         offset="1"
         style="stop-color:#B8B8B8"
         id="stop3504" />
    </radialGradient>
    <path
       style="fill:url(#aigrd4);stroke:none"
       d="m 18.4,18.7 c 0,0.3 -0.3,0.6 -0.6,0.6 -0.3,0 -0.6,-0.3 -0.6,-0.6 0,-0.3 0.3,-0.6 0.6,-0.6 0.3,0 0.6,0.3 0.6,0.6 z"
       id="path83"
       inkscape:connector-curvature="0" />
  </g>
  <g
     id="Layer_x0020_4"
     style="fill-rule:nonzero;stroke:#000000;stroke-miterlimit:4"
     transform="matrix(2.101389,0,0,2.101389,82.351225,85.761486)">
    <path
       style="fill:none;stroke:none"
       d="M 24,24 0,24 0,0 24,0 24,24 Z"
       id="path143"
       inkscape:connector-curvature="0" />
  </g>
  <g
     id="g4223"
     transform="matrix(2.1338094,0,0,2.1312814,201.00716,142.15277)">
    <path
       inkscape:connector-curvature="0"
       id="path2480"
       d="m -60.717579,-15.84171 c -1.864443,0.08802 -3.600857,0.688164 -5.08121,1.632389 0,0 -0.04001,0.992236 0.392094,1.664396 l 0.872207,1.368326 c -1.120266,0.848202 -1.97647,2.0004769 -2.440581,3.3608009 l -1.536366,-0.4000952 c -0.768183,-0.2000472 -1.704406,0.1200288 -1.704406,0.1200288 -0.224054,0.8241956 -0.328078,1.7124076 -0.328078,2.6086216 0,0.960229 0.120029,1.872446 0.352084,2.744652 0,0 0.928221,0.32808 1.712408,0.112029 l 1.536366,-0.424101 c 0.472112,1.312314 1.328316,2.472591 2.424577,3.296786 l -0.864206,1.344321 c -0.424101,0.672159 -0.392093,1.672397 -0.392093,1.672397 1.472351,0.944225 3.200762,1.528362 5.065207,1.616383 0,0 0.584139,-0.76018 0.624148,-1.56037 l 0.07202,-1.616385 c 1.456347,-0.024 2.800668,-0.496116 3.928937,-1.256296 l 1.000236,1.240294 c 0.504121,0.616146 1.448345,0.904214 1.448345,0.904214 1.384332,-1.128269 2.480591,-2.600618 3.152754,-4.313027 0,0 -0.552132,-0.776184 -1.29631,-1.072258 l -1.504357,-0.600143 c 0.200048,-0.648151 0.304072,-1.360323 0.304072,-2.072493 0,-0.704167 -0.08802,-1.368325 -0.272063,-2.0164798 l 1.488352,-0.552132 c 0.752179,-0.288068 1.312312,-1.1122648 1.312312,-1.1122648 -0.640149,-1.7204095 -1.744414,-3.2247685 -3.144748,-4.3690405 0,0 -0.928221,0.288068 -1.440344,0.912217 l -1.000241,1.256299 c -1.120268,-0.792188 -2.488593,-1.264301 -3.976948,-1.296308 l -0.07202,-1.624387 c -0.02401,-0.800191 -0.624148,-1.568374 -0.624148,-1.568374 l -0.008,0 z m 3.760896,10.3944771 c 0,1.760418 -1.43234,3.200764 -3.200762,3.200764 -1.760419,0 -3.200762,-1.432345 -3.200762,-3.200764 0,-1.768422 1.424339,-3.2007636 3.200762,-3.2007636 1.760419,0 3.200762,1.4243396 3.200762,3.2007636 z"
       style="overflow:visible;fill:none;stroke:#000000;stroke-width:1.98615301" />
    <path
       inkscape:connector-curvature="0"
       id="path2487"
       d="m -60.717579,-15.84171 c -1.864443,0.08802 -3.600857,0.688164 -5.08121,1.632389 0,0 -0.04001,0.992236 0.392094,1.664396 l 0.872207,1.368326 c -1.120266,0.848202 -1.97647,2.0004769 -2.440581,3.3608009 l -1.536366,-0.4000952 c -0.768183,-0.2000472 -1.704406,0.1200288 -1.704406,0.1200288 -0.224054,0.8241956 -0.328078,1.7124076 -0.328078,2.6086216 0,0.960229 0.120029,1.872446 0.352084,2.744652 0,0 0.928221,0.32808 1.712408,0.112029 l 1.536366,-0.424101 c 0.472112,1.312314 1.328316,2.472591 2.424577,3.296786 l -0.864206,1.344321 c -0.424101,0.672159 -0.392093,1.672397 -0.392093,1.672397 1.472351,0.944225 3.200762,1.528362 5.065207,1.616383 0,0 0.584139,-0.76018 0.624148,-1.56037 l 0.07202,-1.616385 c 1.456347,-0.024 2.800668,-0.496116 3.928937,-1.256296 l 1.000236,1.240294 c 0.504121,0.616146 1.448345,0.904214 1.448345,0.904214 1.384332,-1.128269 2.480591,-2.600618 3.152754,-4.313027 0,0 -0.552132,-0.776184 -1.29631,-1.072258 l -1.504357,-0.600143 c 0.200048,-0.648151 0.304072,-1.360323 0.304072,-2.072493 0,-0.704167 -0.08802,-1.368325 -0.272063,-2.0164798 l 1.488352,-0.552132 c 0.752179,-0.288068 1.312312,-1.1122648 1.312312,-1.1122648 -0.640149,-1.7204095 -1.744414,-3.2247685 -3.144748,-4.3690405 0,0 -0.928221,0.288068 -1.440344,0.912217 l -1.000241,1.256299 c -1.120268,-0.792188 -2.488593,-1.264301 -3.976948,-1.296308 l -0.07202,-1.624387 c -0.02401,-0.800191 -0.624148,-1.568374 -0.624148,-1.568374 l -0.008,0 z m 3.760896,10.3944771 c 0,1.760418 -1.43234,3.200764 -3.200762,3.200764 -1.760419,0 -3.200762,-1.432345 -3.200762,-3.200764 0,-1.768422 1.424339,-3.2007636 3.200762,-3.2007636 1.760419,0 3.200762,1.4243396 3.200762,3.2007636 z"
       style="overflow:visible;fill:url(#linearGradient2538)" />
  </g>
</svg>
