<?xml version="1.0" encoding="UTF-8" standalone="no"?>
<svg
   xmlns:dc="http://purl.org/dc/elements/1.1/"
   xmlns:cc="http://creativecommons.org/ns#"
   xmlns:rdf="http://www.w3.org/1999/02/22-rdf-syntax-ns#"
   xmlns:svg="http://www.w3.org/2000/svg"
   xmlns="http://www.w3.org/2000/svg"
   xmlns:xlink="http://www.w3.org/1999/xlink"
   xmlns:sodipodi="http://sodipodi.sourceforge.net/DTD/sodipodi-0.dtd"
   xmlns:inkscape="http://www.inkscape.org/namespaces/inkscape"
   version="1.1"
   width="64"
   height="64"
   color-interpolation="linearRGB"
   id="svg2"
   sodipodi:version="0.32"
   inkscape:version="0.91 r13725"
   sodipodi:docname="viewmagfit.svg"
   inkscape:output_extension="org.inkscape.output.svg.inkscape">
  <metadata
     id="metadata64">
    <rdf:RDF>
      <cc:Work
         rdf:about="">
        <dc:format>image/svg+xml</dc:format>
        <dc:type
           rdf:resource="http://purl.org/dc/dcmitype/StillImage" />
      </cc:Work>
    </rdf:RDF>
  </metadata>
  <defs
     id="defs62">
    <inkscape:perspective
       sodipodi:type="inkscape:persp3d"
       inkscape:vp_x="0 : 32 : 1"
       inkscape:vp_y="0 : 1000 : 0"
       inkscape:vp_z="64 : 32 : 1"
       inkscape:persp3d-origin="32 : 21.333333 : 1"
       id="perspective66" />
    <radialGradient
       r="13.258252"
       fy="30.145554"
       fx="28.284271"
       cy="30.145554"
       cx="28.284271"
       gradientTransform="matrix(1,-4.196543e-16,-3.619011e-17,0.34,1.860387e-15,19.89607)"
       gradientUnits="userSpaceOnUse"
       id="radialGradient23432"
       xlink:href="#linearGradient2980"
       inkscape:collect="always" />
    <radialGradient
       r="13.258252"
       fy="30.145554"
       fx="28.284271"
       cy="30.145554"
       cx="28.284271"
       gradientTransform="matrix(1,0,0,0.34,1.362626e-15,19.89607)"
       gradientUnits="userSpaceOnUse"
       id="radialGradient23426"
       xlink:href="#linearGradient2980"
       inkscape:collect="always" />
    <linearGradient
       id="linearGradient2698">
      <stop
         style="stop-color:#555753"
         offset="0"
         id="stop2700" />
      <stop
         id="stop2706"
         offset="0.70238096"
         style="stop-color:#a3a5a2;stop-opacity:1;" />
      <stop
         style="stop-color:#888a85"
         offset="1"
         id="stop2702" />
    </linearGradient>
    <linearGradient
       id="linearGradient2617">
      <stop
         style="stop-color:#fbfbfa;stop-opacity:1;"
         offset="0"
         id="stop2619" />
      <stop
         style="stop-color:#d3d7cf"
         offset="1"
         id="stop2621" />
    </linearGradient>
    <linearGradient
       id="linearGradient2980"
       inkscape:collect="always">
      <stop
         id="stop2982"
         offset="0"
         style="stop-color:#000000;stop-opacity:1;" />
      <stop
         id="stop2984"
         offset="1"
         style="stop-color:#000000;stop-opacity:0;" />
    </linearGradient>
    <linearGradient
       id="linearGradient4919">
      <stop
         id="stop4921"
         offset="0"
         style="stop-color:#429eff;stop-opacity:1;" />
      <stop
         id="stop4923"
         offset="1"
         style="stop-color:#0044a7;stop-opacity:1;" />
    </linearGradient>
    <linearGradient
       id="linearGradient15493">
      <stop
         id="stop15495"
         offset="0"
         style="stop-color:#eeeeec;stop-opacity:1;" />
      <stop
         id="stop15497"
         offset="1"
         style="stop-color:#ffffff;stop-opacity:1" />
    </linearGradient>
    <linearGradient
       gradientUnits="userSpaceOnUse"
       y2="45.742943"
       x2="46.77866"
       y1="35.742943"
       x1="3.5"
       id="linearGradient3250"
       xlink:href="#linearGradient3244"
       inkscape:collect="always" />
    <linearGradient
       id="linearGradient3244">
      <stop
         id="stop3246"
         offset="0"
         style="stop-color:#000000;stop-opacity:0" />
      <stop
         style="stop-color:#000000;stop-opacity:0;"
         offset="0.0807889"
         id="stop3274" />
      <stop
         id="stop3276"
         offset="0.61539668"
         style="stop-color:#000000;stop-opacity:0.24705882;" />
      <stop
         style="stop-color:#000000;stop-opacity:0.49803922;"
         offset="0.74850917"
         id="stop3272" />
      <stop
         id="stop3248"
         offset="1"
         style="stop-color:#000000;stop-opacity:1" />
    </linearGradient>
    <filter
       height="1.7672127"
       y="-0.38360636"
       width="1.1772727"
       x="-0.088636374"
       id="filter3268"
       inkscape:collect="always">
      <feGaussianBlur
         id="feGaussianBlur3270"
         stdDeviation="1.5983598"
         inkscape:collect="always" />
    </filter>
    <inkscape:perspective
       id="perspective2530"
       inkscape:persp3d-origin="24 : 16 : 1"
       inkscape:vp_z="48 : 24 : 1"
       inkscape:vp_y="0 : 1000 : 0"
       inkscape:vp_x="0 : 24 : 1"
       sodipodi:type="inkscape:persp3d" />
    <linearGradient
       gradientUnits="userSpaceOnUse"
       y2="45.742943"
       x2="46.77866"
       y1="35.742943"
       x1="3.5"
       id="linearGradient2614"
       xlink:href="#linearGradient3244"
       inkscape:collect="always" />
    <linearGradient
       gradientUnits="userSpaceOnUse"
       y2="28.4375"
       x2="21"
       y1="12.5625"
       x1="17.25"
       id="linearGradient2849"
       xlink:href="#gradient3"
       inkscape:collect="always" />
    <linearGradient
       id="linearGradient2594">
      <stop
         style="stop-color:#555753"
         offset="0"
         id="stop2596" />
      <stop
         id="stop2598"
         offset="0.70238096"
         style="stop-color:#a3a5a2;stop-opacity:1;" />
      <stop
         style="stop-color:#888a85"
         offset="1"
         id="stop2600" />
    </linearGradient>
    <linearGradient
       id="linearGradient2585">
      <stop
         style="stop-color:#fbfbfa;stop-opacity:1;"
         offset="0"
         id="stop2587" />
      <stop
         style="stop-color:#d3d7cf"
         offset="1"
         id="stop2589" />
    </linearGradient>
    <linearGradient
       id="linearGradient2576">
      <stop
         id="stop2578"
         offset="0"
         style="stop-color:#429eff;stop-opacity:1;" />
      <stop
         id="stop2580"
         offset="1"
         style="stop-color:#0044a7;stop-opacity:1;" />
    </linearGradient>
    <linearGradient
       id="linearGradient2843">
      <stop
         id="stop2845"
         offset="0"
         style="stop-color:#eeeeec;stop-opacity:1" />
      <stop
         id="stop2847"
         offset="1"
         style="stop-color:white;stop-opacity:1;" />
    </linearGradient>
    <linearGradient
       id="linearGradient2543">
      <stop
         id="stop2545"
         offset="0"
         style="stop-color:#000000;stop-opacity:0" />
      <stop
         style="stop-color:#000000;stop-opacity:0;"
         offset="0.0807889"
         id="stop2547" />
      <stop
         id="stop2549"
         offset="0.61539668"
         style="stop-color:#000000;stop-opacity:0.24705882;" />
      <stop
         style="stop-color:#000000;stop-opacity:0.49803922;"
         offset="0.74850917"
         id="stop2551" />
      <stop
         id="stop2553"
         offset="1"
         style="stop-color:#000000;stop-opacity:1" />
    </linearGradient>
    <inkscape:perspective
       id="perspective2540"
       inkscape:persp3d-origin="24 : 16 : 1"
       inkscape:vp_z="48 : 24 : 1"
       inkscape:vp_y="0 : 1000 : 0"
       inkscape:vp_x="0 : 24 : 1"
       sodipodi:type="inkscape:persp3d" />
    <linearGradient
       inkscape:collect="always"
       xlink:href="#linearGradient3244"
       id="linearGradient2655"
       gradientUnits="userSpaceOnUse"
       x1="3.5"
       y1="35.742943"
       x2="46.77866"
       y2="45.742943" />
    <linearGradient
       inkscape:collect="always"
       xlink:href="#gradient3"
       id="linearGradient3433"
       x1="12"
       y1="26.25"
       x2="14.5"
       y2="26.25"
       gradientUnits="userSpaceOnUse" />
    <linearGradient
       inkscape:collect="always"
       xlink:href="#linearGradient3244"
       id="linearGradient2925"
       gradientUnits="userSpaceOnUse"
       x1="3.5"
       y1="35.742943"
       x2="46.77866"
       y2="45.742943" />
    <linearGradient
       inkscape:collect="always"
       xlink:href="#gradient3"
       id="linearGradient2927"
       gradientUnits="userSpaceOnUse"
       x1="17.25"
       y1="12.5625"
       x2="21"
       y2="28.4375" />
  </defs>
  <sodipodi:namedview
     inkscape:window-height="678"
     inkscape:window-width="955"
     inkscape:pageshadow="2"
     inkscape:pageopacity="0.0"
     guidetolerance="10.0"
     gridtolerance="10.0"
     objecttolerance="10.0"
     borderopacity="1.0"
     bordercolor="#666666"
     pagecolor="#ffffff"
     id="base"
     showgrid="false"
     inkscape:zoom="5.1486213"
     inkscape:cx="16.538099"
     inkscape:cy="39.346311"
     inkscape:window-x="234"
     inkscape:window-y="47"
     inkscape:current-layer="layer1"
     inkscape:window-maximized="0" />
  <g
     id="g4">
    <path
       style="fill:#000000; fill-opacity:0.3294"
       d="M52.42 31.27L31 64C48.12 64 62 55.49 62 45C62 39.6 58.32 34.73 52.43 31.27H52.42z            M48 28L51 30L62 16C63.5 14.12 64 12 63 10L48 28z"
       id="path6" />
    <path
       style="fill:#101010"
       d="M54 6L36 22L49 29L61 14C62.71 11.73 65 8 62 5C59.25 2.25 56 4 54 6z"
       id="path8" />
    <linearGradient
       id="gradient0"
       gradientUnits="userSpaceOnUse"
       x1="41.4"
       y1="19.5"
       x2="48.47"
       y2="26.57">
      <stop
         offset="0"
         stop-color="#888888"
         id="stop11" />
      <stop
         offset="0.25"
         stop-color="#ffffff"
         id="stop13" />
      <stop
         offset="0.75"
         stop-color="#888888"
         id="stop15" />
      <stop
         offset="1"
         stop-color="#888888"
         id="stop17" />
    </linearGradient>
    <path
       style="fill:url(#gradient0)"
       d="M48 27C50 25 50.75 22 48.75 20C46.75 18 43 18 42 19L37 23L48 27z"
       id="path19" />
    <path
       style="fill:#000000"
       d="M27 20C12.09 20 0 27.61 0 37V47C0 56.38 12.09 64 27.01 64C41.92 64 54 56.38 54 47V37C54 27.61 41.9 20 27 20H27z"
       id="path21" />
    <linearGradient
       id="gradient1"
       gradientUnits="userSpaceOnUse"
       x1="105.74"
       y1="-37.06"
       x2="130.73"
       y2="7.84">
      <stop
         offset="0.3484"
         stop-color="#e7e7e7"
         id="stop24" />
      <stop
         offset="0"
         stop-color="#fdfdfd"
         id="stop26" />
      <stop
         offset="1"
         stop-color="#ffffff"
         id="stop28" />
    </linearGradient>
    <path
       style="fill:url(#gradient1)"
       d="M27 22C13.19 22 2 28.71 2 37C2 45.28 13.19 52 27.01 52C40.81 52 52 45.28 52.01 37C52 28.71 40.8 22 27 22H27z            M27 26C38.59 26 48 30.92 48.01 37C48 43.07 38.6 48 27.01 48C15.4 48 6 43.07 6 37C6 30.92 15.39 26 27 26H27z"
       id="path30" />
    <radialGradient
       id="gradient2"
       gradientUnits="userSpaceOnUse"
       cx="0"
       cy="0"
       r="64"
       gradientTransform="matrix(0.3125,0,0,0.125,26,40)">
      <stop
         offset="0"
         stop-color="#ceceff"
         id="stop33" />
      <stop
         offset="1"
         stop-color="#9898ff"
         id="stop35" />
    </radialGradient>
    <path
       style="fill:url(#gradient2)"
       d="M27 46C36.04 46 43.59 43 45.52 39C43.59 34.99 36.04 32 27 32C17.96 32 10.39 34.99 8.48 39C10.39 43 17.95 46 27 46H27z"
       id="path37" />
    <path
       style="fill:none; stroke:#666698; stroke-width:2"
       d="M9.11 39.87C12.21 36.9 19.54 34.62 27 34.62C34.45 34.62 41.66 36.78 44.77 39.75"
       id="path39" />
    <linearGradient
       id="gradient3"
       gradientUnits="userSpaceOnUse"
       x1="-10.5"
       y1="-64"
       x2="64"
       y2="-64">
      <stop
         offset="0"
         stop-color="#6464ba"
         id="stop42" />
      <stop
         offset="1"
         stop-color="#c7c7e0"
         id="stop44" />
    </linearGradient>
    <path
       style="fill:url(#gradient3)"
       d="M27 28C16.5 28 8 32.02 8 37C8 37.68 8.17 38.35 8.48 39C10.39 34.99 17.95 32 27 32C36.04 32 43.6 34.99 45.53 39C45.83 38.35 46 37.68 46 37C46 32.02 37.49 28 27 28H27z"
       id="path46" />
    <path
       style="fill:#ffffff"
       d="M17 36C20 37 24 33 21 32C18 31 14 35 17 36z            M38.12 38.25C36.25 40.37 33.62 41.37 28.87 41.94C28.87 41.94 33.37 42.5 35.87 41.62C39.05 40.51 38.12 38.25 38.12 38.25z"
       id="path48" />
    <path
       style="fill:none; stroke:#787878; stroke-width:3; stroke-linecap:round"
       d="M48.12 16L57.5 7"
       id="path50" />
    <linearGradient
       id="gradient4"
       gradientUnits="userSpaceOnUse"
       x1="4"
       y1="-64"
       x2="52"
       y2="-64">
      <stop
         offset="0"
         stop-color="#d1d1ea"
         id="stop53" />
      <stop
         offset="0.5909"
         stop-color="#4c4c76"
         id="stop55" />
      <stop
         offset="1"
         stop-color="#75759b"
         id="stop57" />
    </linearGradient>
    <path
       style="fill:url(#gradient4)"
       d="M27 52C13.19 52 2 45.48 2 37.45V46.54C2 55.08 13.19 62 27 62C40.82 62 52 55.08 52 46.54V37.45C52 45.48 40.8 52 27 52H27z"
       id="path59" />
  </g>
  <g
     inkscape:groupmode="layer"
     id="layer1"
     inkscape:label="Плюсик">
    <g
       id="g2596"
       transform="translate(-2.9783861,-2.0010731)">
      <g
         inkscape:label="Shadow"
         id="layer6">
        <path
           transform="matrix(1,0,0,0.9,1.5,5.3313522)"
           id="path2462"
           d="M 21,35.742942 C 11.34,35.742942 3.5,37.555955 3.5,39.789845 C 3.5,42.023736 11.34,43.836748 21,43.836748 C 25.496436,43.836748 29.586827,43.441342 32.6875,42.796116 L 33.5,43.742802 C 33.525278,43.764 33.586841,43.785509 33.65625,43.800615 L 41.625,45.657855 C 41.981813,45.740449 42.507656,45.759155 43.15625,45.730121 C 43.804844,45.701087 44.567815,45.60604 45.375,45.419377 C 46.175523,45.234255 46.580812,45.069505 46.71875,44.92074 C 46.856687,44.771976 46.758027,44.640759 46.40625,44.55941 L 38.375,42.716623 C 38.29626,42.698751 38.203146,42.684259 38.09375,42.68049 L 34,42.492598 C 36.790145,41.775563 38.5,40.829653 38.5,39.789845 C 38.5,37.555955 30.66,35.742942 21,35.742942 z"
           style="opacity:0.6;fill:url(#linearGradient3250);fill-opacity:1;fill-rule:nonzero;stroke:none;stroke-width:0.67653471;stroke-linecap:round;stroke-linejoin:round;marker:none;marker-start:none;marker-mid:none;marker-end:none;stroke-miterlimit:4;stroke-dashoffset:0;stroke-opacity:1;visibility:visible;display:inline;overflow:visible;filter:url(#filter3268)" />
      </g>
      <g
         id="g2600"
         inkscape:label="Base"
         style="display:inline" />
      <g
         style="display:inline"
         inkscape:label="Text"
         id="layer5">
        <g
           id="g2637"
           inkscape:label="base"
           style="display:inline"
           transform="translate(-12.26513,47.49999)" />
        <g
           id="g2708"
           transform="matrix(1.544052,0,0,1.536016,-85.57756,-44.44515)">
          <path
             sodipodi:nodetypes="csccc"
             id="path2687"
             d="M 79.567301,51.320041 C 79.564315,51.331245 79.861402,51.644359 79.32201,52.185023 C 78.782611,52.725686 78.314866,52.559011 78.328524,52.545282 L 78.059375,51.023705 L 79.567301,51.320041 z"
             style="opacity:0.19215686;fill:#ffffff;fill-opacity:1;fill-rule:nonzero;stroke:none;stroke-width:0.99999964;stroke-linecap:round;stroke-linejoin:miter;marker:none;marker-start:none;marker-mid:none;marker-end:none;stroke-miterlimit:4;stroke-dashoffset:0;stroke-opacity:1;visibility:visible;display:inline;overflow:visible" />
        </g>
        <g
           transform="translate(-2.905726e-7,1)"
           style="opacity:0.76078431"
           id="g1399" />
      </g>
    </g>
    <g
       id="g2628"
       inkscape:label="base"
       style="display:inline"
       transform="translate(-22.934503,37.80793)" />
    <path
       transform="matrix(1,0,0,0.9,-9.169373,-4.360708)"
       id="path2630"
       d="m 21,35.742942 c -9.66,0 -17.5,1.813013 -17.5,4.046903 0,2.233891 7.84,4.046903 17.5,4.046903 4.496436,0 8.586827,-0.395406 11.6875,-1.040632 L 33.5,43.742802 c 0.02528,0.0212 0.08684,0.04271 0.15625,0.05781 l 7.96875,1.85724 c 0.356813,0.08259 0.882656,0.1013 1.53125,0.07227 0.648594,-0.02903 1.411565,-0.124081 2.21875,-0.310744 0.800523,-0.185122 1.205812,-0.349872 1.34375,-0.498637 0.137937,-0.148764 0.03928,-0.279981 -0.3125,-0.36133 L 38.375,42.716623 c -0.07874,-0.01787 -0.171854,-0.03236 -0.28125,-0.03613 L 34,42.492598 c 2.790145,-0.717035 4.5,-1.662945 4.5,-2.702753 0,-2.23389 -7.84,-4.046903 -17.5,-4.046903 z"
       style="opacity:0.6;fill:url(#linearGradient2925);fill-opacity:1;fill-rule:nonzero;stroke:none;stroke-width:0.67653471;marker:none;visibility:visible;display:inline;overflow:visible;filter:url(#filter3268)" />
    <g
       id="g2635"
       transform="matrix(1.544052,0,0,1.536016,-96.246933,-54.13721)">
      <path
         sodipodi:nodetypes="csccc"
         id="path2638"
         d="m 79.567301,51.320041 c -0.003,0.0112 0.294101,0.324318 -0.245291,0.864982 -0.539399,0.540663 -1.007144,0.373988 -0.993486,0.360259 l -0.269149,-1.521577 1.507926,0.296336 z"
         style="opacity:0.19215686;fill:#ffffff;fill-opacity:1;fill-rule:nonzero;stroke:none;stroke-width:0.99999964;marker:none;visibility:visible;display:inline;overflow:visible" />
    </g>
    <g
       style="fill:#000000;fill-opacity:1;stroke:#ffffff;stroke-opacity:1"
       id="g2867"
       transform="matrix(0,1,-1,0,30.330627,-10.69206)" />
    <g
       style="font-style:normal;font-variant:normal;font-weight:bold;font-stretch:normal;font-size:35px;line-height:124.00000095%;font-family:'DejaVu Sans';-inkscape-font-specification:'Sans Bold';letter-spacing:0px;word-spacing:0px;fill:#ffffff;fill-opacity:1;stroke:#000000;stroke-width:2;stroke-linecap:butt;stroke-linejoin:miter;stroke-miterlimit:4;stroke-dasharray:none;stroke-opacity:1"
       id="text3434"
       transform="translate(56.115204,0.88214111)">
      <path
         d="m -41.990204,4.8859253 q -3.007812,0 -4.665527,2.2216797 -1.657715,2.2216797 -1.657715,6.254883 0,4.016113 1.657715,6.237793 1.657715,2.221679 4.665527,2.221679 3.024902,0 4.682617,-2.221679 1.657715,-2.22168 1.657715,-6.237793 0,-4.0332033 -1.657715,-6.254883 -1.657715,-2.2216797 -4.682617,-2.2216797 z m 0,-4.76806641 q 6.152344,0 9.638672,3.52050781 3.486328,3.5205078 3.486328,9.7241213 0,6.186523 -3.486328,9.707031 -3.486328,3.520508 -9.638672,3.520508 -6.135254,0 -9.638672,-3.520508 -3.486328,-3.520508 -3.486328,-9.707031 0,-6.2036135 3.486328,-9.7241213 3.503418,-3.52050781 9.638672,-3.52050781 z"
         style="fill:#ffffff;fill-opacity:1;stroke:#000000;stroke-width:2;stroke-miterlimit:4;stroke-dasharray:none;stroke-opacity:1"
         id="path3439"
         inkscape:connector-curvature="0" />
      <path
         d="m -23.909149,0.57928467 6.57959,0 0,9.31396483 9.484863,-9.31396483 7.63916011,0 L -12.493134,12.661804 1.0591125,26.094421 l -8.2373046,0 -10.1513669,-10.048828 0,10.048828 -6.57959,0 0,-25.51513633 z"
         style="fill:#ffffff;fill-opacity:1;stroke:#000000;stroke-width:2;stroke-miterlimit:4;stroke-dasharray:none;stroke-opacity:1"
         id="path3441"
         inkscape:connector-curvature="0" />
    </g>
  </g>
</svg>
