<?xml version="1.0" encoding="UTF-8" standalone="no"?>
<!-- Created with Inkscape (http://www.inkscape.org/) -->

<svg
   xmlns:dc="http://purl.org/dc/elements/1.1/"
   xmlns:cc="http://creativecommons.org/ns#"
   xmlns:rdf="http://www.w3.org/1999/02/22-rdf-syntax-ns#"
   xmlns:svg="http://www.w3.org/2000/svg"
   xmlns="http://www.w3.org/2000/svg"
   xmlns:xlink="http://www.w3.org/1999/xlink"
   xmlns:sodipodi="http://sodipodi.sourceforge.net/DTD/sodipodi-0.dtd"
   xmlns:inkscape="http://www.inkscape.org/namespaces/inkscape"
   width="32mm"
   height="30.199999mm"
   viewBox="0 0 113.38582 107.00787"
   id="svg2"
   version="1.1"
   inkscape:version="0.91 r13725"
   sodipodi:docname="zwiebel-coloured.svg">
  <title
     id="title4136">onion - coloured</title>
  <defs
     id="defs4">
    <linearGradient
       inkscape:collect="always"
       id="linearGradient6064">
      <stop
         style="stop-color:#452909;stop-opacity:1"
         offset="0"
         id="stop6066" />
      <stop
         style="stop-color:#bb9263;stop-opacity:1"
         offset="1"
         id="stop6068" />
    </linearGradient>
    <linearGradient
       inkscape:collect="always"
       id="linearGradient6010">
      <stop
         style="stop-color:#bf6834;stop-opacity:1"
         offset="0"
         id="stop6012" />
      <stop
         style="stop-color:#351400;stop-opacity:1"
         offset="1"
         id="stop6014" />
    </linearGradient>
    <linearGradient
       inkscape:collect="always"
       id="linearGradient5992">
      <stop
         style="stop-color:#ffe3d8;stop-opacity:1"
         offset="0"
         id="stop5994" />
      <stop
         id="stop6008"
         offset="0.07470397"
         style="stop-color:#ffc099;stop-opacity:1" />
      <stop
         id="stop6006"
         offset="0.12208571"
         style="stop-color:#d46f49;stop-opacity:1" />
      <stop
         id="stop6004"
         offset="0.38281977"
         style="stop-color:#e47b3a;stop-opacity:1" />
      <stop
         id="stop6002"
         offset="0.6243403"
         style="stop-color:#e76718;stop-opacity:1" />
      <stop
         id="stop6000"
         offset="0.83469695"
         style="stop-color:#c03700;stop-opacity:1" />
      <stop
         style="stop-color:#742c00;stop-opacity:1"
         offset="1"
         id="stop5996" />
    </linearGradient>
    <pattern
       inkscape:collect="always"
       xlink:href="#Polkadots-large"
       id="pattern5963"
       patternTransform="scale(1.325,1.275)" />
    <pattern
       inkscape:isstock="true"
       inkscape:stockid="Polka dots, large"
       id="Polkadots-large"
       patternTransform="translate(0,0) scale(10,10)"
       height="10"
       width="10"
       patternUnits="userSpaceOnUse"
       inkscape:collect="always">
      <circle
         id="circle5605"
         r="0.45"
         cy="0.810"
         cx="2.567"
         style="fill:black;stroke:none" />
      <circle
         id="circle5607"
         r="0.45"
         cy="2.33"
         cx="3.048"
         style="fill:black;stroke:none" />
      <circle
         id="circle5609"
         r="0.45"
         cy="2.415"
         cx="4.418"
         style="fill:black;stroke:none" />
      <circle
         id="circle5611"
         r="0.45"
         cy="3.029"
         cx="1.844"
         style="fill:black;stroke:none" />
      <circle
         id="circle5613"
         r="0.45"
         cy="1.363"
         cx="6.08"
         style="fill:black;stroke:none" />
      <circle
         id="circle5615"
         r="0.45"
         cy="4.413"
         cx="5.819"
         style="fill:black;stroke:none" />
      <circle
         id="circle5617"
         r="0.45"
         cy="4.048"
         cx="4.305"
         style="fill:black;stroke:none" />
      <circle
         id="circle5619"
         r="0.45"
         cy="3.045"
         cx="5.541"
         style="fill:black;stroke:none" />
      <circle
         id="circle5621"
         r="0.45"
         cy="5.527"
         cx="4.785"
         style="fill:black;stroke:none" />
      <circle
         id="circle5623"
         r="0.45"
         cy="5.184"
         cx="2.667"
         style="fill:black;stroke:none" />
      <circle
         id="circle5625"
         r="0.45"
         cy="1.448"
         cx="7.965"
         style="fill:black;stroke:none" />
      <circle
         id="circle5627"
         r="0.45"
         cy="5.049"
         cx="7.047"
         style="fill:black;stroke:none" />
      <circle
         id="circle5629"
         r="0.45"
         cy="0.895"
         cx="4.340"
         style="fill:black;stroke:none" />
      <circle
         id="circle5631"
         r="0.45"
         cy="0.340"
         cx="7.125"
         style="fill:black;stroke:none" />
      <circle
         id="circle5633"
         r="0.45"
         cy="1.049"
         cx="9.553"
         style="fill:black;stroke:none" />
      <circle
         id="circle5635"
         r="0.45"
         cy="2.689"
         cx="7.006"
         style="fill:black;stroke:none" />
      <circle
         id="circle5637"
         r="0.45"
         cy="2.689"
         cx="8.909"
         style="fill:black;stroke:none" />
      <circle
         id="circle5639"
         r="0.45"
         cy="4.407"
         cx="9.315"
         style="fill:black;stroke:none" />
      <circle
         id="circle5641"
         r="0.45"
         cy="3.870"
         cx="7.820"
         style="fill:black;stroke:none" />
      <circle
         id="circle5643"
         r="0.45"
         cy="5.948"
         cx="8.270"
         style="fill:black;stroke:none" />
      <circle
         id="circle5645"
         r="0.45"
         cy="7.428"
         cx="7.973"
         style="fill:black;stroke:none" />
      <circle
         id="circle5647"
         r="0.45"
         cy="8.072"
         cx="9.342"
         style="fill:black;stroke:none" />
      <circle
         id="circle5649"
         r="0.45"
         cy="9.315"
         cx="8.206"
         style="fill:black;stroke:none" />
      <circle
         id="circle5651"
         r="0.45"
         cy="9.475"
         cx="9.682"
         style="fill:black;stroke:none" />
      <circle
         id="circle5653"
         r="0.45"
         cy="6.186"
         cx="9.688"
         style="fill:black;stroke:none" />
      <circle
         id="circle5655"
         r="0.45"
         cy="6.296"
         cx="3.379"
         style="fill:black;stroke:none" />
      <circle
         id="circle5657"
         r="0.45"
         cy="8.204"
         cx="2.871"
         style="fill:black;stroke:none" />
      <circle
         id="circle5659"
         r="0.45"
         cy="8.719"
         cx="4.59"
         style="fill:black;stroke:none" />
      <circle
         id="circle5661"
         r="0.45"
         cy="9.671"
         cx="3.181"
         style="fill:black;stroke:none" />
      <circle
         id="circle5663"
         r="0.45"
         cy="7.315"
         cx="5.734"
         style="fill:black;stroke:none" />
      <circle
         id="circle5665"
         r="0.45"
         cy="6.513"
         cx="6.707"
         style="fill:black;stroke:none" />
      <circle
         id="circle5667"
         r="0.45"
         cy="9.670"
         cx="5.730"
         style="fill:black;stroke:none" />
      <circle
         id="circle5669"
         r="0.45"
         cy="8.373"
         cx="6.535"
         style="fill:black;stroke:none" />
      <circle
         id="circle5671"
         r="0.45"
         cy="7.154"
         cx="4.37"
         style="fill:black;stroke:none" />
      <circle
         id="circle5673"
         r="0.45"
         cy="7.25"
         cx="0.622"
         style="fill:black;stroke:none" />
      <circle
         id="circle5675"
         r="0.45"
         cy="5.679"
         cx="0.831"
         style="fill:black;stroke:none" />
      <circle
         id="circle5677"
         r="0.45"
         cy="8.519"
         cx="1.257"
         style="fill:black;stroke:none" />
      <circle
         id="circle5679"
         r="0.45"
         cy="6.877"
         cx="1.989"
         style="fill:black;stroke:none" />
      <circle
         id="circle5681"
         r="0.45"
         cy="3.181"
         cx="0.374"
         style="fill:black;stroke:none" />
      <circle
         id="circle5683"
         r="0.45"
         cy="1.664"
         cx="1.166"
         style="fill:black;stroke:none" />
      <circle
         id="circle5685"
         r="0.45"
         cy="0.093"
         cx="1.151"
         style="fill:black;stroke:none" />
      <circle
         id="circle5687"
         r="0.45"
         cy="10.093"
         cx="1.151"
         style="fill:black;stroke:none" />
      <circle
         id="circle5689"
         r="0.45"
         cy="4.451"
         cx="1.302"
         style="fill:black;stroke:none" />
      <circle
         id="circle5691"
         r="0.45"
         cy="3.763"
         cx="3.047"
         style="fill:black;stroke:none" />
    </pattern>
    <radialGradient
       inkscape:collect="always"
       xlink:href="#linearGradient5992"
       id="radialGradient5998"
       cx="33.16835"
       cy="45.592445"
       fx="33.16835"
       fy="45.592445"
       r="45.379803"
       gradientTransform="matrix(1.046746,-0.97387326,0.72106011,0.7750154,-35.46854,44.264868)"
       gradientUnits="userSpaceOnUse" />
    <linearGradient
       inkscape:collect="always"
       xlink:href="#linearGradient6010"
       id="linearGradient6040"
       x1="95.08783"
       y1="11.863803"
       x2="87.446365"
       y2="32.193123"
       gradientUnits="userSpaceOnUse" />
    <radialGradient
       inkscape:collect="always"
       xlink:href="#linearGradient6064"
       id="radialGradient6070"
       cx="17.082914"
       cy="84.8862"
       fx="17.082914"
       fy="84.8862"
       r="17.43051"
       gradientTransform="matrix(1,0,0,1.2534326,0,-20.343523)"
       gradientUnits="userSpaceOnUse" />
  </defs>
  <sodipodi:namedview
     id="base"
     pagecolor="#ffffff"
     bordercolor="#666666"
     borderopacity="1.0"
     inkscape:pageopacity="0.0"
     inkscape:pageshadow="2"
     inkscape:zoom="1.7238574"
     inkscape:cx="-83.18672"
     inkscape:cy="114.14569"
     inkscape:document-units="mm"
     inkscape:current-layer="layer2"
     showgrid="false"
     inkscape:window-width="1449"
     inkscape:window-height="950"
     inkscape:window-x="217"
     inkscape:window-y="83"
     inkscape:window-maximized="0"
     inkscape:snap-global="false"
     fit-margin-top="1"
     fit-margin-right="1"
     fit-margin-bottom="1"
     fit-margin-left="1">
    <inkscape:grid
       type="xygrid"
       id="grid4434"
       originx="3.748383"
       originy="0.67773156" />
  </sodipodi:namedview>
  <metadata
     id="metadata7">
    <rdf:RDF>
      <cc:Work
         rdf:about="">
        <dc:format>image/svg+xml</dc:format>
        <dc:type
           rdf:resource="http://purl.org/dc/dcmitype/StillImage" />
        <dc:title>onion - coloured</dc:title>
        <dc:date>2015-06-10</dc:date>
        <dc:creator>
          <cc:Agent>
            <dc:title>Frank Tremmel</dc:title>
          </cc:Agent>
        </dc:creator>
        <dc:subject>
          <rdf:Bag>
            <rdf:li>Zwiebel</rdf:li>
            <rdf:li>Gemüse</rdf:li>
            <rdf:li>Salat</rdf:li>
            <rdf:li>Onion</rdf:li>
            <rdf:li>vegetable</rdf:li>
            <rdf:li>salad</rdf:li>
            <rdf:li>line art</rdf:li>
            <rdf:li>outline</rdf:li>
          </rdf:Bag>
        </dc:subject>
        <dc:description>coloured line art onion</dc:description>
        <cc:license
           rdf:resource="http://creativecommons.org/publicdomain/zero/1.0/" />
      </cc:Work>
      <cc:License
         rdf:about="http://creativecommons.org/publicdomain/zero/1.0/">
        <cc:permits
           rdf:resource="http://creativecommons.org/ns#Reproduction" />
        <cc:permits
           rdf:resource="http://creativecommons.org/ns#Distribution" />
        <cc:permits
           rdf:resource="http://creativecommons.org/ns#DerivativeWorks" />
      </cc:License>
    </rdf:RDF>
  </metadata>
  <g
     inkscape:groupmode="layer"
     id="layer2"
     inkscape:label="Ebene 2"
     transform="translate(3.7483832,0.03092614)">
    <path
       style="fill:url(#linearGradient6040);fill-opacity:1;fill-rule:evenodd;stroke:#00ff00;stroke-width:0.29055119;stroke-linecap:butt;stroke-linejoin:miter;stroke-miterlimit:4;stroke-dasharray:none;stroke-opacity:1"
       d="m 79.887712,18.553828 c 3.463233,-3.699485 5.85193,-9.014336 8.327821,-14.1981047 1.882534,1.2362984 3.765068,3.8139797 5.647602,3.6454594 L 96.63908,5.1231886 c 1.94696,0.4445884 3.82203,1.2494802 5.26471,4.2210582 l -2.20161,2.8779942 c 1.91913,1.09985 3.99929,1.97377 4.69038,4.796656 l -3.15882,4.412927 c 1.82302,0.664349 3.53738,2.853236 3.73315,4.412923 -5.69985,2.748321 -11.432452,5.48352 -15.889859,8.729918 z"
       id="path4430"
       inkscape:connector-curvature="0"
       sodipodi:nodetypes="ccccccccccc" />
    <path
       style="color:#000000;font-style:normal;font-variant:normal;font-weight:normal;font-stretch:normal;font-size:medium;line-height:normal;font-family:sans-serif;text-indent:0;text-align:start;text-decoration:none;text-decoration-line:none;text-decoration-style:solid;text-decoration-color:#000000;letter-spacing:normal;word-spacing:normal;text-transform:none;direction:ltr;block-progression:tb;writing-mode:lr-tb;baseline-shift:baseline;text-anchor:start;white-space:normal;clip-rule:nonzero;display:inline;overflow:visible;visibility:visible;opacity:1;isolation:auto;mix-blend-mode:normal;color-interpolation:sRGB;color-interpolation-filters:linearRGB;solid-color:#000000;solid-opacity:1;fill:#000000;fill-opacity:1;fill-rule:evenodd;stroke:none;stroke-width:2.83464575;stroke-linecap:butt;stroke-linejoin:miter;stroke-miterlimit:4;stroke-dasharray:none;stroke-dashoffset:0;stroke-opacity:1;color-rendering:auto;image-rendering:auto;shape-rendering:auto;text-rendering:auto;enable-background:accumulate"
       d="M 95.257405,4.7709352 93.084895,7.116394 C 91.766505,6.3130783 90.660481,3.7911236 88.929281,3.5878824 88.335191,3.5181354 87.313403,3.3669906 86.762491,4.0091007 83.353009,7.9829862 83.06482,14.718802 79.087169,18.222652 l 1.096059,1.289264 c 3.542561,-3.12482 6.521437,-8.404572 9.147573,-12.2709769 0.756921,-1.1143996 2.126979,1.2318801 3.197326,1.4268789 1.19364,0.2174605 -1.126062,3.331648 -1.582143,4.037746 -2.443179,3.782497 -5.915061,6.752476 -8.836754,10.159143 l 0.914684,1.141933 c 4.12025,-4.705044 9.225787,-8.042005 11.735674,-13.883909 0.806099,-1.8762401 1.887042,-4.2579292 2.836192,-3.6646803 0.81728,0.5108278 3.17249,2.1379882 2.65376,3.1334952 -0.71602,1.3741401 -2.5108,2.4338651 -3.48589,3.6928891 -3.448433,4.452577 -7.766992,8.135139 -11.24734,12.556816 -0.90606,0.7419 -0.691803,1.303895 0.257361,1.686696 0.898101,0.985452 1.340763,-0.698062 1.900157,-1.301802 3.869902,-4.176704 7.819315,-7.492766 11.041802,-12.210589 1.00232,-1.467423 5.25633,2.402548 4.46819,3.605855 -1.47574,2.253098 -1.29286,1.384567 -2.29775,2.797137 -3.8089,0.629569 -7.14155,4.852127 -11.056533,7.024355 -1.015213,0.563289 -3.085938,1.041427 -3.218604,2.02351 l 0.395069,0.976203 c 4.497937,-2.238129 9.494728,-4.105446 12.790678,-8.014297 0.73183,-0.867919 2.22811,0.307648 2.91734,0.790476 0.74027,0.518584 1.8882,1.693977 0.76549,2.196429 -3.77837,1.690975 -10.256626,5.306806 -14.759992,8.31057 -1.178994,1.124818 -0.174989,0.616938 0.678623,1.76682 3.689848,-2.873349 8.024529,-4.677696 12.264499,-6.572248 1.34972,-0.6031 2.99532,-0.933919 3.96119,-2.092237 1.25837,-1.509097 -0.2958,-3.266637 -1.30795,-4.464226 -0.54747,-0.647769 -1.76867,-1.354346 -0.73147,-2.289551 l 1.33703,-1.205551 c 0.43061,-0.388265 0.84827,-0.990116 0.7596,-1.562217 -0.27367,-1.765536 -1.66936,-2.930197 -2.79688,-4.115225 -0.6233,-0.655097 -1.59299,-1.429466 -0.64545,-2.242821 0.58965,-0.506151 1.54206,-0.9489838 0.52539,-2.7848249 C 101.70534,6.2518727 99.94563,4.6656618 97.93707,3.836892 96.83669,3.382852 95.875749,4.1033663 95.257405,4.7709352 Z"
       id="path4171"
       inkscape:connector-curvature="0"
       sodipodi:nodetypes="scssccsssccssssccssscsccsssccsssssssssss" />
    <path
       style="fill:url(#radialGradient5998);fill-opacity:1;fill-rule:evenodd;stroke:#ff0000;stroke-width:0.99999988px;stroke-linecap:butt;stroke-linejoin:miter;stroke-opacity:1"
       d="m 66.078289,10.283976 c 14.47988,7.052317 22.895338,20.626847 25.449835,35.208351 1.075092,6.136808 2.466101,13.205417 1.290673,19.686578 C 91.18376,74.194292 85.925259,82.43177 79.886178,88.635374 70.813329,97.955393 55.41856,101.35095 42.523655,99.76031 39.610104,99.400911 20.208609,93.743062 12.856896,84.13781 6.742121,76.148657 3.6954554,62.886115 3.5366736,52.818504 3.3615456,41.714462 3.8260971,31.271473 10.57599,22.464182 17.558496,13.353365 28.1056,7.0518121 39.446943,5.3833984 47.800768,4.1544759 58.604395,6.643873 66.078289,10.283976 Z"
       id="path4428"
       inkscape:connector-curvature="0"
       sodipodi:nodetypes="ssssssssss" />
    <path
       style="opacity:0.29800002;fill:url(#pattern5963);fill-opacity:1;fill-rule:evenodd;stroke:none;stroke-width:0.29055119;stroke-linecap:butt;stroke-linejoin:miter;stroke-miterlimit:4;stroke-dasharray:none;stroke-opacity:1"
       d="m 6.125,70.54921 c 0,0 18.675994,15.432602 33.5,14 C 59.69224,82.609898 75.305056,69.132362 79.928178,58.15812 81.832166,53.638484 83.150348,48.940178 83.62133,43.434589 84.450125,33.746285 81.329227,24.732774 80.625,21.54921 92.347368,39.636791 94.324611,54.20658 92.687403,66.665984 91.361881,76.753399 83.891977,85.862969 80.25,88.67421 69.16144,97.233466 61.74495,101.39787 47.75,100.79921 19.877424,99.606902 6.3584741,80.121649 6.125,70.54921 Z"
       id="path4432"
       inkscape:connector-curvature="0"
       sodipodi:nodetypes="cssscsssc" />
    <path
       style="color:#000000;font-style:normal;font-variant:normal;font-weight:normal;font-stretch:normal;font-size:medium;line-height:normal;font-family:sans-serif;text-indent:0;text-align:start;text-decoration:none;text-decoration-line:none;text-decoration-style:solid;text-decoration-color:#000000;letter-spacing:normal;word-spacing:normal;text-transform:none;direction:ltr;block-progression:tb;writing-mode:lr-tb;baseline-shift:baseline;text-anchor:start;white-space:normal;clip-rule:nonzero;display:inline;overflow:visible;visibility:visible;opacity:1;isolation:auto;mix-blend-mode:normal;color-interpolation:sRGB;color-interpolation-filters:linearRGB;solid-color:#000000;solid-opacity:1;fill:#000000;fill-opacity:1;fill-rule:evenodd;stroke:none;stroke-width:2.83464575;stroke-linecap:butt;stroke-linejoin:miter;stroke-miterlimit:4;stroke-dasharray:none;stroke-dashoffset:0;stroke-opacity:1;color-rendering:auto;image-rendering:auto;shape-rendering:auto;text-rendering:auto;enable-background:accumulate"
       d="M 49.338656,3.6815727 C 35.675767,2.5046304 21.160804,7.5017706 11.782367,17.618198 2.6633967,27.454737 -0.3420836,42.011827 1.4126283,55.089553 2.3905702,62.378066 3.9558466,69.610121 5.9232845,76.683876 7.910803,83.829829 13.010473,90.08751 20.019102,93.145611 c 7.439767,3.24623 14.111849,8.620439 22.407563,9.684619 12.202601,1.56534 25.209773,-0.90871 34.92287,-8.973822 C 87.722779,85.2431 95.53055,72.650985 94.96499,58.852839 94.396246,44.976997 90.206239,30.815072 81.528679,19.885153 73.837014,10.197049 61.489675,4.7282806 49.338656,3.6815727 Z M 49.072137,6.7595843 C 62.966805,8.0409882 76.805017,15.540687 83.443655,28.233988 89.927569,40.631446 93.50652,54.256869 90.095581,68.116656 87.104251,80.271405 78.37382,88.42861 67.292118,93.753631 58.314207,98.067731 49.095529,98.414428 39.564826,95.563986 32.700183,93.510918 26.502003,89.415711 20.111136,86.273617 12.651356,82.605996 9.461338,76.407066 7.931653,68.683321 6.0029251,58.944706 4.8945762,49.571583 6.943312,39.606394 8.989139,29.655354 12.336518,20.325479 21.152723,14.911406 29.516656,9.7750821 39.241483,5.8529747 49.072137,6.7595843 Z"
       id="path4169"
       inkscape:connector-curvature="0"
       sodipodi:nodetypes="ssssssssssssssssssss" />
    <path
       style="fill:url(#radialGradient6070);fill-opacity:1;fill-rule:evenodd;stroke:#ff6600;stroke-width:0.35433072;stroke-linecap:butt;stroke-linejoin:miter;stroke-miterlimit:4;stroke-dasharray:none;stroke-opacity:1"
       d="m 11.092683,63.156259 c -0.230131,1.526526 0.573999,1.873359 -0.150176,4.831914 -0.404554,1.652771 -1.764936,2.526248 -1.88463,4.583105 -0.146485,2.517234 1.593941,5.284266 2.616481,7.381291 -1.217282,0.809322 -0.638444,2.103061 0.723393,2.531091 0.04873,0.179333 0.05386,0.653984 0.148063,0.81402 -1.288508,0.316229 -4.484753,2.954031 -5.573503,2.44206 C 4.049674,84.365403 5.9437374,79.580249 6.2425726,78.865095 L 4.71029,74.725172 c -0.2954686,0 -3.194104,7.151187 -2.2581184,9.255103 0.8026649,1.804237 2.6883582,3.923216 4.5772554,4.485585 0.452639,0.134759 1.271355,-0.114291 2.068639,-0.360371 -0.364886,1.329403 -0.575134,1.781628 -0.738197,1.863342 -0.306979,0.15383 -2.7218982,1.530884 -4.2832398,1.528406 -1.3063518,-0.0022 -3.1710032,0.712091 -3.3612995,1.025224 -0.3080835,0.506949 1.568701,1.872862 3.7145432,2.521274 1.7785629,0.537432 4.0008111,-1.593685 5.3429381,-2.880869 1.389031,-1.332158 1.541827,-2.732772 2.051723,-4.570384 0.201011,-0.724425 1.262376,-1.188869 2.365611,-1.573666 0.121791,0.83624 -0.155905,5.428136 -2.581361,8.054032 -1.227115,1.328524 -3.790455,1.601752 -3.561959,2.664634 0.214578,0.99814 1.152499,1.662393 2.163832,1.539009 0.797403,-0.09723 3.416266,-2.035322 3.718481,-2.781236 1.270174,-3.134962 1.240457,-3.981283 1.909506,-7.858252 0.329473,-1.909158 0.801865,0.157758 1.267488,1.216784 0.311587,0.708681 0.198802,1.76816 -0.0084,2.64981 -0.0966,0.410862 -0.42887,1.72038 -0.488604,2.058362 -0.472197,2.671711 0.336934,4.84878 -1.926932,6.194179 -2.826296,1.679652 -0.786324,3.217572 2.102492,1.288862 2.462548,-1.64411 1.19846,-5.424091 1.958652,-7.996036 0.594064,-0.273089 1.502755,0.17449 2.07923,0.826728 1.226563,1.387763 1.126107,3.93508 2.563589,4.937117 1.79117,1.248591 4.686495,1.568441 6.827801,1.148963 3.016639,-0.590967 4.806434,-2.512771 0.596479,-3.061063 -1.451572,-0.189036 -4.463338,0.526563 -5.660217,-0.317967 -1.450727,-1.023656 -1.773333,-3.040688 -2.292856,-4.405039 2.313193,0.650933 3.653698,1.24241 6.413239,1.214668 6.544409,-0.242034 3.748382,-3.09271 1.053352,-2.855427 -4.739452,0.417288 -6.017131,-0.975794 -8.373992,-1.95025 -0.361799,-0.149596 -1.053948,-0.436099 -1.364284,-0.671994 -0.558142,-1.583775 -0.197354,-2.365066 0.359579,-2.490811 2.013472,-0.109036 4.322701,1.298285 5.933071,1.846369 1.834078,0.624226 5.216918,-0.678288 6.114989,-0.803415 2.382856,-0.331993 3.409691,-2.526844 0.05499,-2.887228 -0.944237,-0.10144 -2.972335,1.302137 -4.735889,1.172275 -2.344796,-0.172672 -3.388911,-0.906852 -5.402166,-1.176519 2.076068,-0.33402 3.36358,-0.51966 5.006632,-1.833663 1.646962,-1.317135 2.239109,-2.683085 3.606372,-4.171848 0.71432,-0.777801 1.269763,-1.702475 2.096146,-2.35939 2.560686,-2.035549 0.158135,-4.258992 -1.918463,-1.331258 -0.865782,1.220629 -1.940913,1.881037 -2.986641,2.950821 -1.074145,1.098862 -1.672433,2.537323 -3.001434,3.30695 -0.830575,0.481001 -1.750007,0.656532 -2.794154,0.701673 1.185497,-1.021181 1.696973,-1.916714 2.508606,-2.919032 0.981357,-1.211909 3.228837,-2.951883 3.858087,-4.379587 0.568495,-1.289885 0.544908,-3.534885 -0.841848,-3.773317 -0.302907,-0.05213 -0.343161,2.236948 -0.901065,3.249717 -0.646967,1.174457 -1.585167,1.970057 -2.569935,2.878744 -1.005583,0.927886 -2.043037,1.921674 -3.071243,2.832102 0.559117,-1.897097 -0.240095,-3.772402 0.321502,-5.693892 0.48698,-1.666231 3.587474,-5.041734 3.887706,-6.751697 0.164937,-0.939378 -0.08025,-1.943109 -0.435734,-2.827873 -1.763338,-4.388823 -3.935551,-3.869153 -3.022585,-1.011174 0.419316,1.312656 0.616049,3.416854 0.05923,4.099773 -1.323229,1.622851 -2.013537,3.459529 -2.504372,5.496762 -0.831365,3.450529 0.881323,4.479093 -2.449379,6.677499 -0.369174,-1.300856 -0.895206,-2.50817 -0.750889,-3.684285 0.247632,-2.018172 1.916329,-3.719396 2.246322,-5.725696 0.412558,-2.508364 0.08588,-4.850906 -0.198834,-7.377057 -0.381347,-3.383655 -1.690562,-3.026692 -2.026337,-0.195031 -0.235168,1.983215 0.749048,4.05102 0.393422,6.016117 -0.401848,2.220538 -2.159013,3.530555 -2.510719,5.759612 -0.278778,1.76687 0.403645,3.724054 0.568983,5.507355 -0.492124,0.08604 -0.617966,0.219198 -1.104122,0.307385 -0.87476,-1.705711 -2.469966,-2.786109 -2.394386,-4.667905 0.05122,-1.276263 0.943583,-2.181442 1.281805,-3.412945 0.288656,-1.051073 -0.254844,-2.320717 -0.08884,-3.39811 0.136357,-0.885013 0.583402,-1.009672 0.774152,-1.884543 0.383567,-1.759216 -0.250535,-3.011427 -0.101529,-3.446864 0.207638,-0.606771 1.476437,-1.794044 1.404474,-2.431454 -0.08198,-0.725758 -0.342149,-1.423043 -1.104122,-1.481768 -1.92198,0.106173 -2.789163,2.943483 -3.054327,4.554767 z"
       id="path4209-0"
       inkscape:connector-curvature="0"
       sodipodi:nodetypes="csscccsccsscsssssscsssssssssscsssssccssccsssscsssssscssssscsssssscssssssccssssssccc" />
    <path
       style="color:#000000;font-style:normal;font-variant:normal;font-weight:normal;font-stretch:normal;font-size:medium;line-height:normal;font-family:sans-serif;text-indent:0;text-align:start;text-decoration:none;text-decoration-line:none;text-decoration-style:solid;text-decoration-color:#000000;letter-spacing:normal;word-spacing:normal;text-transform:none;direction:ltr;block-progression:tb;writing-mode:lr-tb;baseline-shift:baseline;text-anchor:start;white-space:normal;clip-rule:nonzero;display:inline;overflow:visible;visibility:visible;opacity:1;isolation:auto;mix-blend-mode:normal;color-interpolation:sRGB;color-interpolation-filters:linearRGB;solid-color:#000000;solid-opacity:1;fill:#000000;fill-opacity:1;fill-rule:evenodd;stroke:none;stroke-width:1.0629921;stroke-linecap:butt;stroke-linejoin:miter;stroke-miterlimit:4;stroke-dasharray:none;stroke-dashoffset:0;stroke-opacity:1;color-rendering:auto;image-rendering:auto;shape-rendering:auto;text-rendering:auto;enable-background:accumulate"
       d="m 14.204849,57.892162 c -2.521543,-0.170903 -3.518173,3.3043 -3.727651,5.306453 -0.227504,2.174435 0.162682,4.408779 -1.171088,6.336253 -1.336504,1.931423 -0.719162,4.563086 0.06538,6.739079 0.527759,1.463795 2.174793,3.071712 1.144248,4.525935 -0.94176,1.328932 2.493491,2.020912 0.211817,2.883764 -1.122257,0.424398 -4.6805344,2.602185 -4.6322997,0.08428 C 6.1360933,81.636105 6.349018,80.685092 6.821347,79.215227 6.2393125,77.458254 5.2819437,73.38898 4.7654147,72.117959 2.4633925,76.032927 1.3645071,79.667995 1.4669095,83.465172 c 0.060004,2.225008 2.6709057,5.577768 5.5128945,5.499193 2.154778,-0.0596 -0.212763,1.025872 -1.5098547,1.49788 -1.8584608,0.676285 -5.4416266,0.113737 -5.6750254,2.63921 1.0245633,1.433516 4.7948684,3.129627 6.5312192,2.665821 2.1794709,-0.582158 3.6289109,-2.582956 4.8405149,-4.455732 0.940908,-1.454366 0.23795,-3.895341 2.404427,-4.474226 -0.06178,2.75161 -1.434543,5.260432 -3.375825,7.28802 -0.767891,0.80203 -3.340736,0.817526 -2.701084,2.910543 0.546351,1.787731 3.53228,2.358402 5.134213,1.075303 1.389436,-1.112905 2.182063,-2.567002 2.63687,-4.201765 0.503136,-1.808474 0.771169,-3.666861 1.076711,-5.514016 1.065641,1.913496 -0.463458,3.61139 -0.496115,5.590666 -0.02961,1.794317 0.0466,4.134578 -1.737514,5.07426 -1.466438,0.772356 -2.447396,4.770861 0.02125,4.341091 2.1388,-0.37229 4.805998,-2.37656 5.092774,-4.664684 0.170271,-1.358568 -0.86001,-5.073028 0.18476,-5.144203 2.593343,-0.176645 1.037528,4.256032 2.646478,5.604513 2.387444,2.000964 6.472817,1.826714 9.271653,1.302324 4.439391,-0.831732 4.531566,-4.368512 -0.466481,-4.228079 -1.995416,0.05605 -4.149886,0.617018 -5.694077,-0.680345 -0.747519,-0.62804 -1.295531,-2.248243 -0.846193,-2.41765 2.635402,1.007107 7.825796,1.335125 10.207532,-0.293004 1.845368,-1.261483 -3.449099,-3.284386 -4.716599,-3.310803 -2.128678,-0.04431 -4.444015,0.355535 -6.248478,-1.132044 -1.090213,-0.898758 -4.247404,-1.477192 -2.421759,-2.297554 2.539525,-1.141152 5.214137,2.475526 8.096085,1.749397 1.72071,-0.433537 3.422219,-0.89656 5.117439,-1.399627 3.003104,-0.891181 0.437478,-4.363421 -1.736046,-3.723267 -2.04767,0.603092 -3.883611,2.054753 -6.090739,1.203532 -0.884578,-0.341157 -2.519876,-0.344209 -0.873072,-0.566585 2.304609,-0.311216 3.729161,-2.323076 5.062057,-4.123849 1.208642,-1.632893 2.5504,-3.134061 3.995545,-4.557047 2.06636,-2.034674 -1.33779,-3.9835 -2.76847,-1.850802 -1.456397,2.171028 -4.072774,3.348389 -5.302532,5.671042 -0.504142,0.952174 -3.311663,2.557198 -1.691447,0.813006 1.42828,-1.53757 3.127675,-2.808107 4.318238,-4.529356 1.102111,-1.593369 1.594761,-6.403894 -0.939792,-5.761925 -1.695864,0.429544 -0.274966,3.725381 -2.061693,4.846224 -1.229028,0.770991 -3.364308,3.710688 -3.628459,3.016601 -0.712891,-1.87321 0.08116,-4.048907 1.227593,-5.836922 1.34889,-2.10378 3.314428,-4.377422 2.565057,-7.105633 -0.420003,-1.529098 -2.860584,-6.546679 -4.426341,-4.218803 -1.071846,1.593554 0.826069,4.232108 0.07326,6.05294 -0.766282,1.853434 -1.943959,3.618799 -2.49561,5.665046 -0.502783,1.864983 0.169313,3.486254 -0.924432,5.112053 -0.332615,0.494413 -0.575967,1.299041 -0.743806,1.143896 -0.432014,-0.399335 -0.363719,-3.110026 -0.0296,-3.810585 0.935757,-1.962024 2.212403,-3.863457 2.178158,-6.151169 -0.03948,-2.637712 -0.279661,-5.287236 -0.845813,-7.852409 -0.607907,-2.754371 -2.817456,-0.180764 -2.825537,1.437223 -0.01301,2.604931 1.151589,5.478701 -0.399331,7.897622 -1.262249,1.968689 -2.140085,4.333266 -1.530899,6.772393 0.25101,1.00502 0.866068,4.112838 -0.463754,1.898375 -0.940635,-1.566372 -2.103674,-3.710449 -0.651697,-5.310955 1.45145,-1.599921 -0.321233,-3.825979 0.60637,-5.33191 1.216342,-1.974684 -0.428888,-4.313305 0.980695,-5.544007 1.702489,-1.486433 1.096915,-3.728706 -0.725779,-3.852228 z m -0.312259,1.486845 c 2.520147,0.654237 -1.266716,1.989734 -0.372186,3.814192 1.000558,2.040697 -1.484529,3.599184 -0.760834,5.490066 0.810027,2.116458 -0.983113,3.454463 -1.234658,5.287288 -0.332846,2.425203 1.498654,4.444485 2.569012,6.441275 0.639232,1.110079 2.842595,1.621748 0.494846,1.957236 -1.2121,0.683501 -1.235777,0.137015 -2.145882,-0.473356 -1.723191,-1.155677 0.62226,-1.121025 -0.467699,-2.780519 -1.419088,-2.160614 -3.073561,-5.02582 -1.776837,-7.649147 0.955714,-1.933444 1.827725,-3.915706 1.706204,-6.129771 -0.102817,-1.873228 0.02949,-3.986514 1.196205,-5.538237 0.184384,-0.245227 0.497827,-0.49535 0.791829,-0.419027 z m 4.268431,1.320659 c 0.736917,2.801659 1.234485,5.844694 0.547352,8.707869 -0.577704,2.4072 -2.993165,4.553712 -2.102795,7.166282 0.27058,0.793947 0.365419,2.932959 1.120264,2.806556 1.598214,-0.912724 3.010905,-2.467804 2.891888,-4.460251 -0.160379,-2.684866 0.883157,-5.289085 2.575438,-7.428535 1.276152,-1.613361 0.538551,-3.830619 0.353889,-5.773574 -0.1619,-1.703455 1.454806,1.59549 1.672784,2.2164 0.772239,2.199745 -0.830782,4.121519 -1.911353,5.836032 -1.119737,1.776655 -2.095089,3.767478 -1.762561,5.884717 0.3135,1.996075 -0.53547,3.918684 -2.351195,4.778645 -1.333176,0.343932 -3.929073,0.879353 -3.770271,-0.61675 1.776841,0.05127 0.51043,-2.395502 0.309989,-3.411151 -0.481633,-2.440459 0.544709,-4.581164 1.757087,-6.510626 1.361257,-2.1664 0.764092,-4.769076 0.456899,-7.135828 -0.08981,-0.691978 0.03625,-2.730211 0.212585,-2.059786 z M 28.84056,70.809198 c 1.109139,1.594585 -0.517618,3.776796 -1.996712,4.940798 -2.4765,1.948933 -3.926485,5.273999 -7.046419,6.357545 -0.691513,0.391918 -2.860936,-0.267862 -1.431235,-0.427786 2.349222,0.153646 3.450973,-2.141727 4.939431,-3.506652 1.585394,-1.453817 3.313262,-2.756277 4.666004,-4.426672 0.668987,-0.826081 0.284447,-3.777533 0.868931,-2.937233 z m 5.108158,2.223716 c 1.148004,0.424513 -1.478649,2.650239 -2.388563,3.672082 -1.71982,1.931374 -2.704864,4.593099 -5.399321,5.347576 -1.430767,0.400625 -5.356864,1.402356 -5.028639,0.727786 0.979679,-2.013438 4.086788,-0.911697 5.626727,-2.597589 1.269272,-1.389565 2.264634,-3.04383 3.84195,-4.127605 1.259501,-0.865405 1.836828,-3.580998 3.347846,-3.02225 z M 5.5015111,78.401016 c 0.07139,0.960671 -0.4743578,1.660152 -0.5881098,2.33788 -0.3839222,2.287389 -0.5999732,3.471057 1.1150203,5.114103 1.6032514,1.535994 4.3370174,-1.198235 6.0228374,-1.637434 1.352431,-0.35235 3.763895,-1.281481 4.438279,-1.216653 -0.679638,1.82488 -3.04019,1.957886 -4.215618,3.254192 -1.127892,1.243881 -2.486825,0.773149 -3.658702,1.338894 -2.4394037,1.177665 -5.3022643,-2.073342 -5.4667703,-3.88512 -0.321564,-3.541527 0.020148,-4.876725 1.7327806,-7.97322 0.00832,1.639556 0.2806991,1.690331 0.6202828,2.667358 z m 12.1328309,5.074247 c 1.725599,0.79192 3.692442,0.256736 5.434912,0.802509 2.4562,0.769325 5.197453,2.18668 7.649401,0.800533 0.925578,-0.523242 4.669161,-0.757981 3.69138,0.06085 -1.729948,1.448778 -4.373842,1.734647 -6.670027,1.703541 -2.643092,-0.03576 -4.80525,-2.138678 -7.589374,-1.932498 -0.951634,0.07047 -4.285229,0.101394 -2.516292,-1.434962 z m -1.649839,1.918459 c 2.487047,-0.179804 0.883674,3.101795 2.625093,4.31451 0.692125,1.459306 2.208487,1.485236 3.276256,2.454149 1.537491,1.395136 0.78974,4.591851 3.350093,5.132548 1.809252,0.382088 4.75306,-0.367083 6.500511,0.420104 1.213369,0.546581 -2.548022,1.335531 -3.196714,1.432714 -1.925714,0.288521 -5.502699,-0.05716 -5.893299,-2.503662 -0.370366,-2.31981 -1.680657,-3.528688 -3.799999,-4.497287 -1.268059,-0.579544 -0.42571,0.910484 -0.546108,1.478721 -0.438995,2.071894 -0.116312,5.163366 -1.630392,6.918631 -0.62939,0.72965 -3.601607,1.15449 -1.499785,-0.22038 2.154951,-1.409623 2.08268,-4.405815 2.270037,-6.629983 0.162,-1.92312 0.702514,-4.007686 -0.343345,-5.936128 0.233739,-1.544707 -1.542406,-2.9333 -1.775142,-0.537132 -0.517013,2.895296 -0.588088,5.344301 -1.979881,7.97776 -0.311602,0.589591 -1.370841,1.752501 -2.282331,1.975149 -1.246408,0.304471 -2.318809,0.108027 -1.395146,-0.998193 0.610145,-0.730742 1.332926,-0.26212 2.008715,-0.724019 0.908823,-0.621174 1.732655,-2.149585 2.08324,-3.180326 0.659521,-1.939033 1.157572,-4.057656 0.893523,-6.107679 0.463836,-0.221669 0.921192,-0.461293 1.334674,-0.769497 z m 2.61013,0.551153 c 1.751591,-0.298987 1.534694,0.943358 1.180271,2.217357 1.594669,1.026498 3.210046,2.104582 4.968127,2.819616 2.222591,0.90395 8.944496,-0.582656 7.125429,1.081188 -1.068126,0.976981 -2.417149,0.607292 -4.033864,0.400577 -2.551907,-0.326291 -5.371063,-0.601316 -7.902133,-2.600681 -1.024444,-0.809245 -1.48535,-2.696949 -1.33783,-3.918057 z m -7.221139,1.830678 c -0.435423,2.530563 -2.327238,4.469238 -3.839339,5.652966 -1.6363326,1.280972 -3.7651784,0.968594 -5.3551313,-0.312644 0.051625,-1.477153 4.0806544,-0.73254 5.9089483,-1.740692 1.394341,-0.768859 1.01727,-3.42675 3.285522,-3.59963 z"
       id="path4209"
       inkscape:connector-curvature="0"
       sodipodi:nodetypes="sssssssccssscsscsssscssssssssscssssssssssssssssssssssssssssssssssssssssccssssssssscssssssccssssssccsssssssssscssscssscccssssscccssssssssssccsssssccccssssccccscc" />
    <path
       style="color:#000000;font-style:normal;font-variant:normal;font-weight:normal;font-stretch:normal;font-size:medium;line-height:normal;font-family:sans-serif;text-indent:0;text-align:start;text-decoration:none;text-decoration-line:none;text-decoration-style:solid;text-decoration-color:#000000;letter-spacing:normal;word-spacing:normal;text-transform:none;direction:ltr;block-progression:tb;writing-mode:lr-tb;baseline-shift:baseline;text-anchor:start;white-space:normal;clip-rule:nonzero;display:inline;overflow:visible;visibility:visible;opacity:1;isolation:auto;mix-blend-mode:normal;color-interpolation:sRGB;color-interpolation-filters:linearRGB;solid-color:#000000;solid-opacity:1;fill:#000000;fill-opacity:1;fill-rule:evenodd;stroke:none;stroke-width:1.77165353;stroke-linecap:butt;stroke-linejoin:miter;stroke-miterlimit:4;stroke-dasharray:none;stroke-dashoffset:0;stroke-opacity:1;color-rendering:auto;image-rendering:auto;shape-rendering:auto;text-rendering:auto;enable-background:accumulate"
       d="m 54.949387,7.6669091 c 0,0 -15.135527,2.4308099 -23.620855,6.8719119 -9.140068,4.783783 -15.140347,13.955769 -19.215635,23.143353 -1.143701,2.578436 -3.122748,9.811382 -1.837309,9.741462 0.8728,-0.04744 2.188338,-6.441209 3.823552,-9.478438 4.814624,-8.94263 10.527676,-18.371844 20.090379,-22.708727 7.77382,-3.525592 24.572365,-6.5919232 24.572365,-6.5919232 -0.9476,-0.4027791 -2.864897,-0.7551965 -3.812497,-0.9776387 z m 1.19602,5.3532479 c -7.932475,0.526358 -13.053702,2.713829 -18.10664,5.694746 -4.572074,2.697231 -6.662667,6.673836 -6.158694,6.77841 0.608728,0.126309 5.28941,-4.086764 7.53265,-5.233946 2.141102,-1.094944 10.535956,-4.425703 17.410375,-4.897001 9.568986,-0.656025 17.602939,2.137587 18.495248,2.552577 -0.371598,-0.404792 -2.209977,-2.105808 -4.274394,-3.3546 -0.57087,-0.393639 -10.604634,-1.82511 -14.898545,-1.540186 z m 9.425238,6.412526 c -9.690072,0.01885 -18.718218,5.329024 -25.920617,11.371834 -3.455095,2.898825 -8.200038,8.022466 -10.824714,13.049387 -2.905981,5.565696 -3.457429,10.936225 -2.131661,11.361731 0.56582,0.181599 1.15336,-5.801097 2.71922,-8.831252 2.093123,-4.050477 6.776641,-9.367687 11.232787,-13.490684 3.540415,-3.275727 8.308416,-5.919127 12.709132,-8.047746 3.819836,-1.847648 9.374439,-3.463542 12.215853,-3.490572 4.916057,-0.04671 7.522541,-1.937372 0,-1.922698 z m 13.799429,2.757916 c -7.255299,2.078145 -10.70081,3.733625 -16.927314,7.865426 -5.101846,3.385493 -14.30174,14.20653 -14.172164,16.18843 0.103316,1.580185 9.135635,-8.475861 11.537114,-10.328199 2.89114,-2.230036 6.263036,-5.501391 9.897158,-7.429044 5.78989,-3.071146 11.042747,-4.568171 11.042747,-4.568171 z m 8.824527,17.052015 c -1.739719,6.695928 -7.854178,10.256505 -13.190316,13.867934 -7.240602,4.900353 -16.840582,6.724675 -23.880313,10.493303 -3.778956,2.023016 6.608277,-0.326416 9.21006,-1.107263 5.146807,-1.544659 11.15471,-4.028751 16.509663,-7.126069 5.371774,-3.107037 10.086489,-6.833285 12.615783,-12.212553 -0.225664,-1.169598 -0.47924,-2.410056 -1.264877,-3.915352 z m 3.029618,22.276001 c -4.70547,9.239872 -11.026578,12.569466 -18.589995,15.225392 -10.368619,3.64099 -21.115302,6.298084 -32.056511,5.05195 -3.199325,-0.364382 -2.448007,1.595423 0.801288,1.991538 4.717701,0.575112 9.479634,0.412014 14.197115,-0.01997 6.795666,-0.622271 13.499084,-2.679251 19.845142,-5.166202 7.442051,-2.91646 11.828516,-4.950337 15.151351,-12.516309 0.244144,-1.395935 0.639927,-2.860517 0.65161,-4.566399 z M 78.049725,87.03714 c -4.054875,0.991933 -9.849517,2.108333 -16.032623,2.123024 -4.166395,0.01 -9.312178,-0.705862 -13.355198,-0.448891 -5.228398,0.332316 10.750258,2.752367 12.858491,2.863972 4.569161,0.24186 7.850853,0.0857 12.524477,-1.566226 1.272548,-0.86582 2.567731,-1.776911 4.004853,-2.971879 z m -43.242244,3.454798 c -2.046253,1.671108 6.000615,5.437765 7.252063,5.791411 1.063705,0.267845 3.851759,0.787969 5.475793,0.904445 -0.689123,-0.872271 -4.51367,-2.087827 -6.659666,-3.145518 -2.39864,-1.182197 -4.915696,-2.579206 -6.06819,-3.550338 z"
       id="path4360"
       inkscape:connector-curvature="0"
       sodipodi:nodetypes="csssssccsssssccsssssssssscsssscccsssscccssssscccssscccccsc" />
  </g>
</svg>
