<?xml version="1.0" encoding="UTF-8" standalone="yes"?>
<svg version="1.1" width="64" height="64" color-interpolation="linearRGB"
     xmlns:svg="http://www.w3.org/2000/svg" xmlns="http://www.w3.org/2000/svg">
 <g>
  <path style="fill:none; stroke:#010101; stroke-width:4"
        d="M26 17C26 18 24 19.14 24 20C24 24 28 25 32 25C36 25 40 24 40 21C40 20 38 18 38 17C38 17 35 18 32 18C29 18 26 17 26 17z
           M32 4C27.58 4 24 7.58 24 12C24 13.71 26 15 26 17C26 17 29 18 32 18C35 18 38 17 38 17C38 15 40 14.03 40 12C40 7.58 36.41 4 32 4z
           M28 54C30 56 28 60 32 60C36 60 34 56 36 54C36 54 38 52 38 48V22H26V48C26 52 28 54 28 54z"
        transform="matrix(0.7071,0.7071,-0.7071,0.7071,31.9997,-13.255)"
  />
  <linearGradient id="gradient0" gradientUnits="userSpaceOnUse" x1="26" y1="-64" x2="38" y2="-64">
   <stop offset="0" stop-color="#d6d6d6"/>
   <stop offset="0.2525" stop-color="#ffffff"/>
   <stop offset="0.5257" stop-color="#d6d6d6"/>
   <stop offset="0.8891" stop-color="#ededed"/>
   <stop offset="1" stop-color="#d6d6d6"/>
  </linearGradient>
  <path style="fill:url(#gradient0)"
        d="M28 54C30 56 28 60 32 60C36 60 34 56 36 54C36 54 38 52 38 48V22H26V48C26 52 28 54 28 54z"
        transform="matrix(0.7071,0.7071,-0.7071,0.7071,31.9997,-13.255)"
  />
  <radialGradient id="gradient1" gradientUnits="userSpaceOnUse" cx="0" cy="0" r="64" gradientTransform="matrix(0.1875,0,0,0.0625,28,20)">
   <stop offset="0" stop-color="#ffffff"/>
   <stop offset="0.4072" stop-color="#ff0606"/>
   <stop offset="0.786" stop-color="#b80404"/>
   <stop offset="1" stop-color="#d70505"/>
  </radialGradient>
  <path style="fill:url(#gradient1)"
        d="M26 17C26 18 24 19.14 24 20C24 24 28 25 32 25C36 25 40 24 40 21C40 20 38 18 38 17C38 17 35 18 32 18C29 18 26 17 26 17z"
        transform="matrix(0.7071,0.7071,-0.7071,0.7071,31.9997,-13.255)"
  />
  <radialGradient id="gradient2" gradientUnits="userSpaceOnUse" cx="0" cy="0" r="64" gradientTransform="matrix(0.1718,0,0,0.1718,29,9)">
   <stop offset="0" stop-color="#ffffff"/>
   <stop offset="0.4072" stop-color="#ff0606"/>
   <stop offset="0.786" stop-color="#b80404"/>
   <stop offset="1" stop-color="#d70505"/>
  </radialGradient>
  <path style="fill:url(#gradient2)"
        d="M32 4C27.58 4 24 7.58 24 12C24 13.71 26 15 26 17C26 17 29 18 32 18C35 18 38 17 38 17C38 15 40 14.03 40 12C40 7.58 36.41 4 32 4z"
        transform="matrix(0.7071,0.7071,-0.7071,0.7071,31.9997,-13.255)"
  />
  <linearGradient id="gradient3" gradientUnits="userSpaceOnUse" x1="27" y1="-64" x2="37" y2="-64">
   <stop offset="0" stop-color="#1b8403"/>
   <stop offset="0.2525" stop-color="#9cf188"/>
   <stop offset="0.5257" stop-color="#5ab645"/>
   <stop offset="0.8891" stop-color="#9cf188"/>
   <stop offset="1" stop-color="#5ab645"/>
  </linearGradient>
  <path style="fill:url(#gradient3)"
        d="M28 54C30 56 28 60 32 60C36 60 34 56 36 54C36 54 38 52 38 48V29L26 41V48C26 52 28 54 28 54z"
        transform="matrix(0.7071,0.7071,-0.7071,0.7071,31.9997,-13.255)"
  />
  <linearGradient id="gradient4" gradientUnits="userSpaceOnUse" x1="93.63" y1="-37.12" x2="102.12" y2="-28.63">
   <stop offset="0" stop-color="#4fce32"/>
   <stop offset="0.2525" stop-color="#ddffd5"/>
   <stop offset="0.5257" stop-color="#81f067"/>
   <stop offset="0.8891" stop-color="#ddffd5"/>
   <stop offset="1" stop-color="#81f067"/>
  </linearGradient>
  <path style="fill:url(#gradient4)"
        d="M23 35C23 38 36 38 36 35C36 32 23 32 23 35z"
  />
 </g>
</svg>
