<?xml version="1.0" encoding="UTF-8" standalone="yes"?>
<svg version="1.1" width="64" height="64" color-interpolation="linearRGB"
     xmlns:svg="http://www.w3.org/2000/svg" xmlns="http://www.w3.org/2000/svg">
 <g>
  <path style="fill:none; stroke:#010101; stroke-width:4"
        d="M22 60H42C43 60 44 59 44 58V8L40 4H24L20 8V58C20 59 21 60 22 60z"
        transform="matrix(0.7071,0.7071,-0.7071,0.7071,33,-14.2548)"
  />
  <linearGradient id="gradient0" gradientUnits="userSpaceOnUse" x1="20" y1="-64" x2="44" y2="-64">
   <stop offset="0" stop-color="#6a8387"/>
   <stop offset="0.3041" stop-color="#cdd7d9"/>
   <stop offset="0.7061" stop-color="#cdd7d9"/>
   <stop offset="1" stop-color="#ffffff"/>
  </linearGradient>
  <path style="fill:url(#gradient0)"
        d="M44 8L40 4H24L20 8H44z"
        transform="matrix(0.7071,0.7071,-0.7071,0.7071,33,-14.2548)"
  />
  <linearGradient id="gradient1" gradientUnits="userSpaceOnUse" x1="20" y1="10" x2="44" y2="10">
   <stop offset="0" stop-color="#acdcff"/>
   <stop offset="1" stop-color="#0096ff"/>
  </linearGradient>
  <path style="fill:url(#gradient1)"
        d="M20 48H44V8H20V48z"
        transform="matrix(0.7071,0.7071,-0.7071,0.7071,33,-14.2548)"
  />
  <linearGradient id="gradient2" gradientUnits="userSpaceOnUse" x1="20" y1="-64" x2="44" y2="-64">
   <stop offset="0" stop-color="#ffffff"/>
   <stop offset="1" stop-color="#cdd7d9"/>
  </linearGradient>
  <path style="fill:url(#gradient2)"
        d="M22 60H42C43 60 44 59 44 58V48H20V58C20 59 21 60 22 60z"
        transform="matrix(0.7071,0.7071,-0.7071,0.7071,33,-14.2548)"
  />
 </g>
</svg>
