<?xml version="1.0" encoding="UTF-8" standalone="yes"?>
<svg version="1.1" width="64" height="64" color-interpolation="linearRGB"
     xmlns:svg="http://www.w3.org/2000/svg" xmlns="http://www.w3.org/2000/svg">
 <g>
  <path style="fill:none; stroke:#010101; stroke-width:4"
        d="M38 10C38 6.68 35.31 4 32 4C28.68 4 26 6.68 26 10C26 13.31 32 32 32 32C32 32 38 13.31 38 10z"
        transform="matrix(-0.1994,-0.9799,0.9799,-0.1994,7.0253,69.7394)"
  />
  <path style="fill:none; stroke:#010101; stroke-width:4"
        d="M38 10C38 6.68 35.31 4 32 4C28.68 4 26 6.68 26 10C26 13.31 32 32 32 32C32 32 38 13.31 38 10z"
        transform="matrix(-0.9799,0.1994,-0.1994,-0.9799,69.7394,56.9746)"
  />
  <path style="fill:none; stroke:#010101; stroke-width:4"
        d="M38 10C38 6.68 35.31 4 32 4C28.68 4 26 6.68 26 10C26 13.31 32 32 32 32C32 32 38 13.31 38 10z"
        transform="matrix(0.1994,0.9799,-0.9799,0.1994,56.9746,-5.7394)"
  />
  <path style="fill:none; stroke:#010101; stroke-width:4"
        d="M38 10C38 6.68 35.31 4 32 4C28.68 4 26 6.68 26 10C26 13.31 32 32 32 32C32 32 38 13.31 38 10z"
        transform="matrix(0.9799,-0.1994,0.1994,0.9799,-5.7394,7.0253)"
  />
  <path style="fill:none; stroke:#010101; stroke-width:4"
        d="M41 9C41 4.02 36.97 0 32 0C27.02 0 23 4.02 23 9C23 13.97 32 32 32 32C32 32 41 13.97 41 9z"
        transform="matrix(-0.5518,0.8339,-0.8339,-0.5518,76.3455,22.9739)"
  />
  <path style="fill:none; stroke:#010101; stroke-width:4"
        d="M41 9C41 4.02 36.97 0 32 0C27.02 0 23 4.02 23 9C23 13.97 32 32 32 32C32 32 41 13.97 41 9z"
        transform="matrix(-0.8339,-0.5518,0.5518,-0.8339,41.026,76.3455)"
  />
  <path style="fill:none; stroke:#010101; stroke-width:4"
        d="M41 9C41 4.02 36.97 0 32 0C27.02 0 23 4.02 23 9C23 13.97 32 32 32 32C32 32 41 13.97 41 9z"
        transform="matrix(0.5518,-0.8339,0.8339,0.5518,-12.3455,41.026)"
  />
  <path style="fill:none; stroke:#010101; stroke-width:4"
        d="M41 9C41 4.02 36.97 0 32 0C27.02 0 23 4.02 23 9C23 13.97 32 32 32 32C32 32 41 13.97 41 9z"
        transform="matrix(0.8339,0.5518,-0.5518,0.8339,22.9739,-12.3455)"
  />
  <radialGradient id="gradient0" gradientUnits="userSpaceOnUse" cx="0" cy="0" r="64" gradientTransform="matrix(0.125,0,0,0.2812,32,20)">
   <stop offset="1" stop-color="#ff0606"/>
   <stop offset="0" stop-color="#c00505"/>
  </radialGradient>
  <path style="fill:url(#gradient0)"
        d="M38 10C38 6.68 35.31 4 32 4C28.68 4 26 6.68 26 10C26 13.31 32 32 32 32C32 32 38 13.31 38 10z"
        transform="matrix(-0.1994,-0.9799,0.9799,-0.1994,7.0253,69.7394)"
  />
  <radialGradient id="gradient1" gradientUnits="userSpaceOnUse" cx="0" cy="0" r="64" gradientTransform="matrix(0.125,0,0,0.2812,32,20)">
   <stop offset="1" stop-color="#05c205"/>
   <stop offset="0" stop-color="#049d04"/>
  </radialGradient>
  <path style="fill:url(#gradient1)"
        d="M38 10C38 6.68 35.31 4 32 4C28.68 4 26 6.68 26 10C26 13.31 32 32 32 32C32 32 38 13.31 38 10z"
        transform="matrix(-0.9799,0.1994,-0.1994,-0.9799,69.7394,56.9746)"
  />
  <radialGradient id="gradient2" gradientUnits="userSpaceOnUse" cx="0" cy="0" r="64" gradientTransform="matrix(0.125,0,0,0.2812,32,20)">
   <stop offset="1" stop-color="#05c205"/>
   <stop offset="0" stop-color="#049d04"/>
  </radialGradient>
  <path style="fill:url(#gradient2)"
        d="M38 10C38 6.68 35.31 4 32 4C28.68 4 26 6.68 26 10C26 13.31 32 32 32 32C32 32 38 13.31 38 10z"
        transform="matrix(0.1994,0.9799,-0.9799,0.1994,56.9746,-5.7394)"
  />
  <radialGradient id="gradient3" gradientUnits="userSpaceOnUse" cx="0" cy="0" r="64" gradientTransform="matrix(0.125,0,0,0.2812,32,20)">
   <stop offset="1" stop-color="#05c205"/>
   <stop offset="0" stop-color="#049d04"/>
  </radialGradient>
  <path style="fill:url(#gradient3)"
        d="M38 10C38 6.68 35.31 4 32 4C28.68 4 26 6.68 26 10C26 13.31 32 32 32 32C32 32 38 13.31 38 10z"
        transform="matrix(0.9799,-0.1994,0.1994,0.9799,-5.7394,7.0253)"
  />
  <radialGradient id="gradient4" gradientUnits="userSpaceOnUse" cx="0" cy="0" r="64" gradientTransform="matrix(0.125,0,0,0.2812,32,20)">
   <stop offset="1" stop-color="#05c205"/>
   <stop offset="0" stop-color="#049d04"/>
  </radialGradient>
  <path style="fill:url(#gradient4)"
        d="M41 9C41 4.02 36.97 0 32 0C27.02 0 23 4.02 23 9C23 13.97 32 32 32 32C32 32 41 13.97 41 9z"
        transform="matrix(-0.5518,0.8339,-0.8339,-0.5518,76.3455,22.9739)"
  />
  <radialGradient id="gradient5" gradientUnits="userSpaceOnUse" cx="0" cy="0" r="64" gradientTransform="matrix(0.125,0,0,0.2812,32,20)">
   <stop offset="1" stop-color="#05c205"/>
   <stop offset="0" stop-color="#049d04"/>
  </radialGradient>
  <path style="fill:url(#gradient5)"
        d="M41 9C41 4.02 36.97 0 32 0C27.02 0 23 4.02 23 9C23 13.97 32 32 32 32C32 32 41 13.97 41 9z"
        transform="matrix(-0.8339,-0.5518,0.5518,-0.8339,41.026,76.3455)"
  />
  <radialGradient id="gradient6" gradientUnits="userSpaceOnUse" cx="0" cy="0" r="64" gradientTransform="matrix(0.125,0,0,0.2812,32,20)">
   <stop offset="1" stop-color="#05c205"/>
   <stop offset="0" stop-color="#049d04"/>
  </radialGradient>
  <path style="fill:url(#gradient6)"
        d="M41 9C41 4.02 36.97 0 32 0C27.02 0 23 4.02 23 9C23 13.97 32 32 32 32C32 32 41 13.97 41 9z"
        transform="matrix(0.5518,-0.8339,0.8339,0.5518,-12.3455,41.026)"
  />
  <radialGradient id="gradient7" gradientUnits="userSpaceOnUse" cx="0" cy="0" r="64" gradientTransform="matrix(0.125,0,0,0.2812,32,20)">
   <stop offset="1" stop-color="#05c205"/>
   <stop offset="0" stop-color="#049d04"/>
  </radialGradient>
  <path style="fill:url(#gradient7)"
        d="M41 9C41 4.02 36.97 0 32 0C27.02 0 23 4.02 23 9C23 13.97 32 32 32 32C32 32 41 13.97 41 9z"
        transform="matrix(0.8339,0.5518,-0.5518,0.8339,22.9739,-12.3455)"
  />
  <radialGradient id="gradient8" gradientUnits="userSpaceOnUse" cx="0" cy="0" r="64" gradientTransform="matrix(0.1562,0,0,0.1562,30,30)">
   <stop offset="0" stop-color="#ffffff"/>
   <stop offset="0.4813" stop-color="#f0ff06"/>
   <stop offset="1" stop-color="#ffde00"/>
  </radialGradient>
  <path style="fill:url(#gradient8)"
        d="M32 24C36.47 24 40 27.52 40 32C40 36.47 36.47 40 32 40C27.52 40 24 36.47 24 32C24 27.52 27.52 24 32 24z"
  />
 </g>
</svg>
