<?xml version="1.0" encoding="UTF-8" standalone="yes"?>
<svg version="1.1" width="64" height="64" color-interpolation="linearRGB"
     xmlns:svg="http://www.w3.org/2000/svg" xmlns="http://www.w3.org/2000/svg">
 <g>
  <path style="fill:#000000; fill-opacity:0.4"
        d="M33 55L51 61C52 59 58 56 59 57C61 55 62 54 62 51C62 48 55 37 55 37L29 28L17 34C19 36 20 44 20 44C20 44 26 48 28 50C30 52 33 55 33 55z"
  />
  <path style="fill:none; stroke:#000000; stroke-opacity:0.4; stroke-width:2"
        d="M27 51C27 51 22 55 18 57C14 59 11 55 13 53"
  />
  <path style="fill:none; stroke:#000000; stroke-width:2; stroke-linecap:round; stroke-linejoin:round"
        d="M25 58C26 62 32 63 32 57C32 50 32 2 32 2"
        transform="matrix(0.902,0.4315,-0.4315,0.902,15.5386,-10.5194)"
  />
  <path style="fill:none; stroke:#000000; stroke-width:4"
        d="M61 31C61 18.84 47.79 9 31.5 9C15.2 9 2 18.84 2 31C2 31 12 30 15 32C21 31 39 31 44 32C50 30 61 31 61 31z"
        transform="matrix(0.902,0.4315,-0.4315,0.902,15.5386,-10.5194)"
  />
  <linearGradient id="gradient0" gradientUnits="userSpaceOnUse" x1="88.13" y1="118.88" x2="67.58" y2="124.41">
   <stop offset="1" stop-color="#3c78a7"/>
   <stop offset="0" stop-color="#4c97d2"/>
  </linearGradient>
  <path style="fill:url(#gradient0)"
        d="M36.4 9.3C44.73 14.3 44 32 44 32C50 30 61 31 61 31C61 20.09 50.36 11.04 36.4 9.3z"
        transform="matrix(0.902,0.4315,-0.4315,0.902,15.5386,-10.5194)"
  />
  <linearGradient id="gradient1" gradientUnits="userSpaceOnUse" x1="49" y1="-64" x2="15" y2="-64">
   <stop offset="0" stop-color="#5bb4fa"/>
   <stop offset="1" stop-color="#4c97d2"/>
  </linearGradient>
  <path style="fill:url(#gradient1)"
        d="M36.4 9.3C34.8 9.1 33.16 9 31.5 9C29.42 9 27.4 9.16 25.44 9.46C15.72 14.67 15 32 15 32C21 31 39 31 44 32C44 32 44.73 14.3 36.4 9.3z"
        transform="matrix(0.902,0.4315,-0.4315,0.902,15.5386,-10.5194)"
  />
  <linearGradient id="gradient2" gradientUnits="userSpaceOnUse" x1="-38.32" y1="102.68" x2="-26.47" y2="108.83">
   <stop offset="0" stop-color="#b3e6ff"/>
   <stop offset="1" stop-color="#67ceff"/>
  </linearGradient>
  <path style="fill:url(#gradient2)"
        d="M25.44 9.46C12.05 11.54 2 20.39 2 31C2 31 12 30 15 32C15 32 15.72 14.67 25.44 9.46z"
        transform="matrix(0.902,0.4315,-0.4315,0.902,15.5386,-10.5194)"
  />
 </g>
</svg>
