<?xml version="1.0" encoding="UTF-8" standalone="no"?>
<svg
   xmlns:dc="http://purl.org/dc/elements/1.1/"
   xmlns:cc="http://creativecommons.org/ns#"
   xmlns:rdf="http://www.w3.org/1999/02/22-rdf-syntax-ns#"
   xmlns:svg="http://www.w3.org/2000/svg"
   xmlns="http://www.w3.org/2000/svg"
   xmlns:sodipodi="http://sodipodi.sourceforge.net/DTD/sodipodi-0.dtd"
   xmlns:inkscape="http://www.inkscape.org/namespaces/inkscape"
   version="1.1"
   width="64"
   height="64"
   color-interpolation="linearRGB"
   id="svg2"
   inkscape:version="0.47 r22583"
   sodipodi:docname="accessories-text-editor.svg">
  <metadata
     id="metadata103">
    <rdf:RDF>
      <cc:Work
         rdf:about="">
        <dc:format>image/svg+xml</dc:format>
        <dc:type
           rdf:resource="http://purl.org/dc/dcmitype/StillImage" />
      </cc:Work>
    </rdf:RDF>
  </metadata>
  <defs
     id="defs101">
    <inkscape:perspective
       sodipodi:type="inkscape:persp3d"
       inkscape:vp_x="0 : 32 : 1"
       inkscape:vp_y="0 : 1000 : 0"
       inkscape:vp_z="64 : 32 : 1"
       inkscape:persp3d-origin="32 : 21.333333 : 1"
       id="perspective105" />
  </defs>
  <sodipodi:namedview
     pagecolor="#ffffff"
     bordercolor="#666666"
     borderopacity="1"
     objecttolerance="10"
     gridtolerance="10"
     guidetolerance="10"
     inkscape:pageopacity="0"
     inkscape:pageshadow="2"
     inkscape:window-width="739"
     inkscape:window-height="501"
     id="namedview99"
     showgrid="false"
     inkscape:zoom="3.6875"
     inkscape:cx="32"
     inkscape:cy="27.079721"
     inkscape:window-x="177"
     inkscape:window-y="135"
     inkscape:window-maximized="0"
     inkscape:current-layer="svg2" />
  <g
     id="g4">
    <path
       style="fill:#010101; fill-opacity:0.5725"
       d="M27 62L29 64L32.13 60.83L37 64L45.39 52.54L64 43L59 40L61 42L36 54L27 62z            M58 39L62 36L58 34L55 37L58 39z"
       id="path6" />
    <path
       style="fill:none; stroke:#010101; stroke-width:4"
       d="M6.25 35C6.25 35 11.87 41 16.87 47.5C21.87 54 26.25 60.75 26.25 60.75L59.12 41.87L32 20L6.25 35z"
       id="path8" />
    <radialGradient
       id="gradient0"
       gradientUnits="userSpaceOnUse"
       cx="0"
       cy="0"
       r="64"
       gradientTransform="matrix(0.5714,0,0,0.3333,26,40)">
      <stop
         offset="1"
         stop-color="#fffcc0"
         id="stop11" />
      <stop
         offset="0.4886"
         stop-color="#f1b706"
         id="stop13" />
    </radialGradient>
    <path
       style="fill:url(#gradient0)"
       d="M6.25 35C6.25 35 11.87 41 16.87 47.5C21.87 54 26.25 60.75 26.25 60.75L50.04 47.08L46 47L49 43L57.05 43.06L59.12 41.87L32 20L6.25 35z"
       id="path15" />
    <path
       style="fill:#e2c255"
       d="M50.04 47.08L46 47L49 43L57.05 43.06L50.04 47.08z"
       id="path17" />
    <path
       style="fill:none; stroke:#010101; stroke-width:4"
       d="M2.62 35.87C2.62 35.87 10.95 41.26 19 46.87C27.44 52.75 35.75 57.75 35.75 57.75L58.12 31.37C58.12 31.37 45.44 25.7 35.37 20.37C30.18 17.62 26 14.37 26 14.37L2.62 35.87z"
       id="path19" />
    <linearGradient
       id="gradient1"
       gradientUnits="userSpaceOnUse"
       x1="107.04"
       y1="-12.09"
       x2="118.33"
       y2="32.99">
      <stop
         offset="0"
         stop-color="#ffefa5"
         id="stop22" />
      <stop
         offset="0.7424"
         stop-color="#fffcc0"
         id="stop24" />
      <stop
         offset="1"
         stop-color="#fff890"
         id="stop26" />
    </linearGradient>
    <path
       style="fill:url(#gradient1)"
       d="M2.62 35.87C2.62 35.87 10.95 41.26 19 46.87C27.44 52.75 35.75 57.75 35.75 57.75L44.86 47L33 45.25L23 43L25 42L37 40.75L49.74 41.25L58.12 31.37C58.12 31.37 45.44 25.7 35.37 20.37C30.18 17.62 26 14.37 26 14.37L2.62 35.87z"
       id="path28" />
    <linearGradient
       id="gradient2"
       gradientUnits="userSpaceOnUse"
       x1="-47.14"
       y1="-15.78"
       x2="-28.46"
       y2="-37.85">
      <stop
         offset="0"
         stop-color="#010101"
         id="stop31" />
      <stop
         offset="1"
         stop-color="#9e9e9e"
         id="stop33" />
    </linearGradient>
    <path
       style="fill:none; stroke:url(#gradient2); stroke-width:1"
       d="M20 41L34.87 25.87            M14 37L26.87 24"
       id="path35" />
    <linearGradient
       id="gradient3"
       gradientUnits="userSpaceOnUse"
       x1="-47.14"
       y1="-15.78"
       x2="-28.46"
       y2="-37.85">
      <stop
         offset="0"
         stop-color="#010101"
         id="stop38" />
      <stop
         offset="1"
         stop-color="#9e9e9e"
         id="stop40" />
    </linearGradient>
    <path
       style="fill:none; stroke:url(#gradient3); stroke-width:1"
       d="M17 39L28.12 27.62"
       id="path42" />
    <linearGradient
       id="gradient4"
       gradientUnits="userSpaceOnUse"
       x1="17.77"
       y1="-64"
       x2="46.22"
       y2="-64">
      <stop
         offset="0"
         stop-color="#c5b03a"
         id="stop45" />
      <stop
         offset="1"
         stop-color="#e9da71"
         id="stop47" />
    </linearGradient>
    <path
       style="fill:url(#gradient4)"
       d="M44.86 47L33 45.25L23 43L25 42L37 40.75L49.74 41.25L44.86 47z"
       id="path49" />
    <path
       style="fill:none; stroke:#010101; stroke-width:4"
       d="M17 4H51C51 4 54 5 54 9C54 13 51 14 51 14H17L6 9L17 4z            M17.96 4.58L16 7V11L17.96 13.41            M44.96 4.58C44.1 5.25 43 6.57 43 9C43 11.42 44.1 12.74 44.96 13.41"
       transform="matrix(0.7071,-0.7071,0.7071,0.7071,15.8224,37.5335)"
       id="path51" />
    <linearGradient
       id="gradient5"
       gradientUnits="userSpaceOnUse"
       x1="43.05"
       y1="9.82"
       x2="40.39"
       y2="21.77">
      <stop
         offset="0"
         stop-color="#ffeed5"
         id="stop54" />
      <stop
         offset="0.553"
         stop-color="#dbab5f"
         id="stop56" />
      <stop
         offset="0.8143"
         stop-color="#ffeed5"
         id="stop58" />
    </linearGradient>
    <path
       style="fill:url(#gradient5)"
       d="M17 4L14.37 6.76V11.23L17 14L8.69 9.84L8.74 8.12L17 4z"
       transform="matrix(0.7071,-0.7071,0.7071,0.7071,15.8224,37.5335)"
       id="path60" />
    <linearGradient
       id="gradient6"
       gradientUnits="userSpaceOnUse"
       x1="10.58"
       y1="-64"
       x2="63.41"
       y2="-64">
      <stop
         offset="0"
         stop-color="#ffeaba"
         id="stop63" />
      <stop
         offset="1"
         stop-color="#fff6e3"
         id="stop65" />
    </linearGradient>
    <path
       style="fill:url(#gradient6)"
       d="M19 4L16.09 6.84L42 7L45 4H19z"
       transform="matrix(0.7071,-0.7071,0.7071,0.7071,15.8224,37.5335)"
       id="path67" />
    <linearGradient
       id="gradient7"
       gradientUnits="userSpaceOnUse"
       x1="19.74"
       y1="-64"
       x2="52.25"
       y2="-64">
      <stop
         offset="1"
         stop-color="#fbb50d"
         id="stop70" />
      <stop
         offset="0"
         stop-color="#f0ab06"
         id="stop72" />
    </linearGradient>
    <path
       style="fill:url(#gradient7)"
       d="M16.09 6.84V11.15L42 11V7L16.09 6.84z"
       transform="matrix(0.7071,-0.7071,0.7071,0.7071,15.8224,37.5335)"
       id="path74" />
    <linearGradient
       id="gradient8"
       gradientUnits="userSpaceOnUse"
       x1="129.35"
       y1="27.64"
       x2="124.48"
       y2="47.37">
      <stop
         offset="0"
         stop-color="#a52a04"
         id="stop77" />
      <stop
         offset="1"
         stop-color="#fdb44b"
         id="stop79" />
    </linearGradient>
    <path
       style="fill:url(#gradient8)"
       d="M16.09 11.15L19 14H45L42 11L16.09 11.15z"
       transform="matrix(0.7071,-0.7071,0.7071,0.7071,15.8224,37.5335)"
       id="path81" />
    <linearGradient
       id="gradient9"
       gradientUnits="userSpaceOnUse"
       x1="69.23"
       y1="1.9"
       x2="69.23"
       y2="14.09">
      <stop
         offset="0"
         stop-color="#ffeaee"
         id="stop84" />
      <stop
         offset="0.7765"
         stop-color="#d17c8a"
         id="stop86" />
      <stop
         offset="1"
         stop-color="#da9faa"
         id="stop88" />
    </linearGradient>
    <path
       style="fill:url(#gradient9)"
       d="M51 4C51 4 48 5 48 9C48 13 51 14 51 14H47C47 14 44 13 44 9C44 5 47 4 47 4H51z"
       transform="matrix(0.7071,-0.7071,0.7071,0.7071,15.8224,37.5335)"
       id="path90" />
    <linearGradient
       id="gradient10"
       gradientUnits="userSpaceOnUse"
       x1="114.68"
       y1="3.18"
       x2="114.6"
       y2="19.44">
      <stop
         offset="0"
         stop-color="#ffe3e8"
         id="stop93" />
      <stop
         offset="1"
         stop-color="#f8a1b1"
         id="stop95" />
    </linearGradient>
    <path
       style="fill:url(#gradient10)"
       d="M51 4C51 4 54 5 54 9C54 13 51 14 51 14C51 14 48 13 48 9C48 5 51 4 51 4z"
       transform="matrix(0.7071,-0.7071,0.7071,0.7071,15.8224,37.5335)"
       id="path97" />
  </g>
</svg>
