<?xml version="1.0" encoding="UTF-8" standalone="no"?>
<!-- Created with Inkscape (http://www.inkscape.org/) -->
<svg
   xmlns:dc="http://purl.org/dc/elements/1.1/"
   xmlns:cc="http://creativecommons.org/ns#"
   xmlns:rdf="http://www.w3.org/1999/02/22-rdf-syntax-ns#"
   xmlns:svg="http://www.w3.org/2000/svg"
   xmlns="http://www.w3.org/2000/svg"
   xmlns:sodipodi="http://sodipodi.sourceforge.net/DTD/sodipodi-0.dtd"
   xmlns:inkscape="http://www.inkscape.org/namespaces/inkscape"
   version="1.0"
   width="127"
   height="89"
   viewBox="0.024 -0.209 127 89"
   id="svg2"
   xml:space="preserve"
   style="overflow:visible"
   sodipodi:version="0.32"
   inkscape:version="0.46"
   sodipodi:docname="bookmark-new.svg"
   inkscape:output_extension="org.inkscape.output.svg.inkscape"><metadata
   id="metadata125"><rdf:RDF><cc:Work
       rdf:about=""><dc:format>image/svg+xml</dc:format><dc:type
         rdf:resource="http://purl.org/dc/dcmitype/StillImage" /></cc:Work></rdf:RDF></metadata><sodipodi:namedview
   inkscape:window-height="772"
   inkscape:window-width="1270"
   inkscape:pageshadow="2"
   inkscape:pageopacity="0.0"
   guidetolerance="10.0"
   gridtolerance="10.0"
   objecttolerance="10.0"
   borderopacity="1.0"
   bordercolor="#666666"
   pagecolor="#ffffff"
   id="base"
   showgrid="false"
   inkscape:zoom="4.3937008"
   inkscape:cx="-29.883383"
   inkscape:cy="44.5"
   inkscape:window-x="0"
   inkscape:window-y="0"
   inkscape:current-layer="svg2" /><defs
   id="defs232"><inkscape:perspective
     sodipodi:type="inkscape:persp3d"
     inkscape:vp_x="0 : 44.5 : 1"
     inkscape:vp_y="0 : 1000 : 0"
     inkscape:vp_z="127 : 44.5 : 1"
     inkscape:persp3d-origin="63.5 : 29.666667 : 1"
     id="perspective127" /><inkscape:perspective
     id="perspective2522"
     inkscape:persp3d-origin="64.5 : 43 : 1"
     inkscape:vp_z="129 : 64.5 : 1"
     inkscape:vp_y="0 : 1000 : 0"
     inkscape:vp_x="0 : 64.5 : 1"
     sodipodi:type="inkscape:persp3d" /></defs>
	<g
   id="Layer_1_2_">
		<path
   d="M 115.704,34.934 C 111.894,38.341 55.221,89.032 55.221,89.032 L 73.423,88.293 L 126.727,40.524 L 126.727,33.419 L 115.2,28.61 L 115.704,34.934 z"
   id="path5"
   style="opacity:0.2" />
		<path
   d="M 57.52,3.822 C 57.367,4.758 56.681,6.889 55.544,7.503 L 55.544,7.503 C 53.776,8.459 51.343,8.849 48.766,9.263 C 44.717,9.912 40.128,10.649 36.505,13.867 C 35.715,14.569 35,15.493 34.332,16.607 C 33.584,16.28 30.529,24.301 30.009,26.186 C 26.629,26.218 21.801,27.256 17.79,32.002 C 16.078,34.028 14.713,37.04 13.269,40.229 C 12.155,42.688 11.003,45.23 9.878,46.777 C 7.656,49.832 5.604,50.918 5.583,50.928 L 0,53.822 C 0,53.822 1.706,54.578 3.325,55.296 C 2.586,55.957 1.82,56.643 1.82,56.643 C 1.82,56.643 1.954,56.702 1.963,56.705 C 1.957,56.711 0.854,57.697 0.854,57.697 L 0.854,65.271 L 55.221,89.031 C 55.221,89.031 80.805,66.148 84.615,62.741 C 84.695,62.814 84.745,62.905 84.827,62.977 C 88.886,66.559 99.84,70.056 101.076,70.444 L 111.821,72.381 C 111.821,72.381 102.464,63.999 101.175,62.85 C 103.559,62.562 114.946,60.445 114.946,60.445 C 114.946,60.445 98.789,54.226 95.962,52.591 C 100,48.979 115.703,34.934 115.703,34.934 L 115.703,27.36 C 115.703,27.36 110.957,25.286 108.844,24.363 C 108.849,24.239 108.853,24.122 108.853,24.071 C 108.853,24.067 108.979,21.511 108.979,21.511 L 58.148,0 L 57.52,3.822 z"
   id="path7" />
		<path
   d="M 61.898,7.126 L 112.704,29.322 L 54.657,81.241 L 3.854,59.039 L 61.898,7.126 z"
   id="path9"
   style="fill:#d9883d" />
		<linearGradient
   x1="65.067902"
   y1="36.088902"
   x2="77.288597"
   y2="26.4258"
   id="XMLID_1_"
   gradientUnits="userSpaceOnUse">
			<stop
   id="stop12"
   style="stop-color:#ffffff;stop-opacity:1"
   offset="0" />
			<stop
   id="stop14"
   style="stop-color:#cccccc;stop-opacity:1"
   offset="1" />
			<midPointStop
   offset="0"
   style="stop-color:#FFFFFF"
   id="midPointStop16" />
			<midPointStop
   offset="0.5"
   style="stop-color:#FFFFFF"
   id="midPointStop18" />
			<midPointStop
   offset="1"
   style="stop-color:#CCCCCC"
   id="midPointStop20" />
		</linearGradient>
		<path
   d="M 60.846,7.876 L 107.723,28.356 L 54.165,76.261 L 7.289,55.774 L 60.846,7.876 z"
   id="path22"
   style="fill:url(#XMLID_1_);stroke:#000000;stroke-linejoin:round" />
		<g
   id="g24">
			<linearGradient
   x1="65.641098"
   y1="35.742199"
   x2="80.703598"
   y2="19.2593"
   id="XMLID_2_"
   gradientUnits="userSpaceOnUse">
				<stop
   id="stop27"
   style="stop-color:#ffffff;stop-opacity:1"
   offset="0" />
				<stop
   id="stop29"
   style="stop-color:#cccccc;stop-opacity:1"
   offset="1" />
				<midPointStop
   offset="0"
   style="stop-color:#FFFFFF"
   id="midPointStop31" />
				<midPointStop
   offset="0.5"
   style="stop-color:#FFFFFF"
   id="midPointStop33" />
				<midPointStop
   offset="1"
   style="stop-color:#CCCCCC"
   id="midPointStop35" />
			</linearGradient>
			<path
   d="M 60.846,7.876 L 107.723,28.356 L 81.732,51.251 L 34.856,30.765 L 60.846,7.876 z"
   id="path37"
   style="fill:url(#XMLID_2_);stroke:#000000;stroke-linejoin:round" />
			<linearGradient
   x1="53.1035"
   y1="26.4604"
   x2="94.679901"
   y2="31.2817"
   id="XMLID_3_"
   gradientUnits="userSpaceOnUse">
				<stop
   id="stop40"
   style="stop-color:#ffffff;stop-opacity:1"
   offset="0" />
				<stop
   id="stop42"
   style="stop-color:#ffffff;stop-opacity:1"
   offset="0.0056" />
				<stop
   id="stop44"
   style="stop-color:#e7e7e7;stop-opacity:1"
   offset="0.3202" />
				<stop
   id="stop46"
   style="stop-color:#eaeaea;stop-opacity:1"
   offset="0.4339" />
				<stop
   id="stop48"
   style="stop-color:#ebeaea;stop-opacity:1"
   offset="0.57870001" />
				<stop
   id="stop50"
   style="stop-color:#e6e6e6;stop-opacity:1"
   offset="0.72659999" />
				<stop
   id="stop52"
   style="stop-color:#d9d9d9;stop-opacity:1"
   offset="0.89160001" />
				<stop
   id="stop54"
   style="stop-color:#cccccc;stop-opacity:1"
   offset="1" />
				<midPointStop
   offset="0"
   style="stop-color:#FFFFFF"
   id="midPointStop56" />
				<midPointStop
   offset="0.5"
   style="stop-color:#FFFFFF"
   id="midPointStop58" />
				<midPointStop
   offset="0.0056"
   style="stop-color:#FFFFFF"
   id="midPointStop60" />
				<midPointStop
   offset="0.5357"
   style="stop-color:#FFFFFF"
   id="midPointStop62" />
				<midPointStop
   offset="0.3202"
   style="stop-color:#E7E7E7"
   id="midPointStop64" />
				<midPointStop
   offset="0.3043"
   style="stop-color:#E7E7E7"
   id="midPointStop66" />
				<midPointStop
   offset="0.5787"
   style="stop-color:#EBEAEA"
   id="midPointStop68" />
				<midPointStop
   offset="0.6842"
   style="stop-color:#EBEAEA"
   id="midPointStop70" />
				<midPointStop
   offset="1"
   style="stop-color:#CCCCCC"
   id="midPointStop72" />
			</linearGradient>
			<path
   d="M 107.1,26.642 C 107.1,26.642 105.645,29.497 104.693,30.011 C 102.944,30.957 90.244,39.839 88.531,41.36 C 87.372,42.389 81.304,50.393 81.304,50.393 L 34.428,29.909 C 34.428,29.909 39.364,22.987 40.523,21.957 C 42.235,20.436 55.614,11.506 57.363,10.56 C 58.315,10.045 60.724,6.681 60.724,6.681 L 107.1,26.642 z"
   id="path74"
   style="fill:url(#XMLID_3_);stroke:#000000;stroke-linejoin:round" />
			<linearGradient
   x1="62.798302"
   y1="13.6748"
   x2="79.947701"
   y2="44.369099"
   id="XMLID_4_"
   gradientUnits="userSpaceOnUse">
				<stop
   id="stop77"
   style="stop-color:#ffffff;stop-opacity:1"
   offset="0" />
				<stop
   id="stop79"
   style="stop-color:#ffffff;stop-opacity:1"
   offset="0.0056" />
				<stop
   id="stop81"
   style="stop-color:#e0e1e0;stop-opacity:1"
   offset="0.30680001" />
				<stop
   id="stop83"
   style="stop-color:#dfe0df;stop-opacity:1"
   offset="0.3202" />
				<stop
   id="stop85"
   style="stop-color:#e7e8e7;stop-opacity:1"
   offset="0.3757" />
				<stop
   id="stop87"
   style="stop-color:#f1f1f0;stop-opacity:1"
   offset="0.4799" />
				<stop
   id="stop89"
   style="stop-color:#f6f6f5;stop-opacity:1"
   offset="0.57870001" />
				<stop
   id="stop91"
   style="stop-color:#f1f1f1;stop-opacity:1"
   offset="0.704" />
				<stop
   id="stop93"
   style="stop-color:#e4e4e3;stop-opacity:1"
   offset="0.84390002" />
				<stop
   id="stop95"
   style="stop-color:#cecece;stop-opacity:1"
   offset="0.99049997" />
				<stop
   id="stop97"
   style="stop-color:#cccccc;stop-opacity:1"
   offset="1" />
				<midPointStop
   offset="0"
   style="stop-color:#FFFFFF"
   id="midPointStop99" />
				<midPointStop
   offset="0.5"
   style="stop-color:#FFFFFF"
   id="midPointStop101" />
				<midPointStop
   offset="0.0056"
   style="stop-color:#FFFFFF"
   id="midPointStop103" />
				<midPointStop
   offset="0.5357"
   style="stop-color:#FFFFFF"
   id="midPointStop105" />
				<midPointStop
   offset="0.3202"
   style="stop-color:#DFE0DF"
   id="midPointStop107" />
				<midPointStop
   offset="0.3043"
   style="stop-color:#DFE0DF"
   id="midPointStop109" />
				<midPointStop
   offset="0.5787"
   style="stop-color:#F6F6F5"
   id="midPointStop111" />
				<midPointStop
   offset="0.6842"
   style="stop-color:#F6F6F5"
   id="midPointStop113" />
				<midPointStop
   offset="1"
   style="stop-color:#CCCCCC"
   id="midPointStop115" />
			</linearGradient>
			<path
   d="M 106.476,24.929 C 106.476,24.929 105.754,28.711 103.852,29.74 C 100.352,31.633 90.244,35.925 86.819,38.968 C 84.5,41.028 80.878,49.538 80.878,49.538 L 34,29.055 C 34,29.055 37.191,21.094 39.51,19.034 C 42.935,15.991 53.667,12.244 57.167,10.351 C 59.07,9.323 60.604,5.486 60.604,5.486 L 106.476,24.929 z"
   id="path117"
   style="fill:url(#XMLID_4_);stroke:#000000;stroke-linejoin:round" />
			<linearGradient
   x1="75.713402"
   y1="12.5347"
   x2="62.795101"
   y2="40.237999"
   id="XMLID_5_"
   gradientUnits="userSpaceOnUse">
				<stop
   id="stop120"
   style="stop-color:#ffffff;stop-opacity:1"
   offset="0.0056" />
				<stop
   id="stop122"
   style="stop-color:#e5e5e5;stop-opacity:1"
   offset="0.2146" />
				<stop
   id="stop124"
   style="stop-color:#d6d6d6;stop-opacity:1"
   offset="0.3202" />
				<stop
   id="stop126"
   style="stop-color:#d9d9d9;stop-opacity:1"
   offset="0.32960001" />
				<stop
   id="stop128"
   style="stop-color:#eeeeee;stop-opacity:1"
   offset="0.4154" />
				<stop
   id="stop130"
   style="stop-color:#fbfbfb;stop-opacity:1"
   offset="0.4993" />
				<stop
   id="stop132"
   style="stop-color:#ffffff;stop-opacity:1"
   offset="0.57870001" />
				<stop
   id="stop134"
   style="stop-color:#fafafa;stop-opacity:1"
   offset="0.69129997" />
				<stop
   id="stop136"
   style="stop-color:#ededed;stop-opacity:1"
   offset="0.81720001" />
				<stop
   id="stop138"
   style="stop-color:#d7d7d7;stop-opacity:1"
   offset="0.94889998" />
				<stop
   id="stop140"
   style="stop-color:#cccccc;stop-opacity:1"
   offset="1" />
				<midPointStop
   offset="0.0056"
   style="stop-color:#FFFFFF"
   id="midPointStop142" />
				<midPointStop
   offset="0.5357"
   style="stop-color:#FFFFFF"
   id="midPointStop144" />
				<midPointStop
   offset="0.3202"
   style="stop-color:#D6D6D6"
   id="midPointStop146" />
				<midPointStop
   offset="0.3043"
   style="stop-color:#D6D6D6"
   id="midPointStop148" />
				<midPointStop
   offset="0.5787"
   style="stop-color:#FFFFFF"
   id="midPointStop150" />
				<midPointStop
   offset="0.6842"
   style="stop-color:#FFFFFF"
   id="midPointStop152" />
				<midPointStop
   offset="1"
   style="stop-color:#CCCCCC"
   id="midPointStop154" />
			</linearGradient>
			<path
   d="M 33.572,28.2 C 33.572,28.2 35.019,19.2 38.498,16.11 C 43.636,11.546 51.722,12.981 56.971,10.142 C 59.825,8.599 60.483,4.29 60.483,4.29 L 105.853,23.214 C 105.853,23.214 105.865,27.923 103.01,29.466 C 97.761,32.305 90.243,32.008 85.106,36.572 C 81.627,39.662 80.45,48.679 80.45,48.679 L 33.572,28.2 z"
   id="path156"
   style="fill:url(#XMLID_5_);stroke:#000000;stroke-linejoin:round" />
		</g>
		<g
   id="g158">
			<linearGradient
   x1="40.2188"
   y1="57.5723"
   x2="93.7033"
   y2="7.4837999"
   id="XMLID_6_"
   gradientUnits="userSpaceOnUse">
				<stop
   id="stop161"
   style="stop-color:#ffffff;stop-opacity:1"
   offset="0" />
				<stop
   id="stop163"
   style="stop-color:#cccccc;stop-opacity:1"
   offset="1" />
				<midPointStop
   offset="0"
   style="stop-color:#FFFFFF"
   id="midPointStop165" />
				<midPointStop
   offset="0.5"
   style="stop-color:#FFFFFF"
   id="midPointStop167" />
				<midPointStop
   offset="1"
   style="stop-color:#CCCCCC"
   id="midPointStop169" />
			</linearGradient>
			<path
   d="M 34.983,30.327 L 81.86,50.806 L 55.834,74.086 L 9.846,53.785 L 34.983,30.327 z"
   id="path171"
   style="fill:url(#XMLID_6_);stroke:#000000;stroke-linejoin:round" />
			<linearGradient
   x1="44.783699"
   y1="52.609402"
   x2="74.726097"
   y2="15.9494"
   id="XMLID_7_"
   gradientUnits="userSpaceOnUse">
				<stop
   id="stop174"
   style="stop-color:#ffffff;stop-opacity:1"
   offset="0" />
				<stop
   id="stop176"
   style="stop-color:#cccccc;stop-opacity:1"
   offset="1" />
				<midPointStop
   offset="0"
   style="stop-color:#FFFFFF"
   id="midPointStop178" />
				<midPointStop
   offset="0.5"
   style="stop-color:#FFFFFF"
   id="midPointStop180" />
				<midPointStop
   offset="1"
   style="stop-color:#CCCCCC"
   id="midPointStop182" />
			</linearGradient>
			<path
   d="M 55.157,74.088 L 8.873,53.727 C 8.873,53.727 11.324,51.831 12.247,50.562 C 13.164,49.301 22.059,39.186 22.975,38.103 C 24.923,35.798 34.559,30.104 34.559,30.104 L 81.435,50.585 C 81.435,50.585 73.079,54.861 71.13,57.166 C 70.214,58.249 58.837,70.4 58.05,71.502 C 57.281,72.579 55.157,74.088 55.157,74.088 z"
   id="path184"
   style="fill:url(#XMLID_7_);stroke:#000000;stroke-linejoin:round" />
			<linearGradient
   x1="46.98"
   y1="47.910198"
   x2="60.2673"
   y2="26.314501"
   id="XMLID_8_"
   gradientUnits="userSpaceOnUse">
				<stop
   id="stop187"
   style="stop-color:#ffffff;stop-opacity:1"
   offset="0" />
				<stop
   id="stop189"
   style="stop-color:#cccccc;stop-opacity:1"
   offset="1" />
				<midPointStop
   offset="0"
   style="stop-color:#FFFFFF"
   id="midPointStop191" />
				<midPointStop
   offset="0.5"
   style="stop-color:#FFFFFF"
   id="midPointStop193" />
				<midPointStop
   offset="1"
   style="stop-color:#CCCCCC"
   id="midPointStop195" />
			</linearGradient>
			<path
   d="M 54.48,74.091 L 7.9,53.669 C 7.9,53.669 10.43,52.089 12.276,49.551 C 14.109,47.029 19.698,38.186 21.528,36.021 C 25.424,31.412 34.132,29.882 34.132,29.882 L 81.008,50.364 C 81.008,50.364 72.941,51.185 69.044,55.795 C 67.214,57.96 59.535,68.776 57.961,70.982 C 56.423,73.134 54.48,74.091 54.48,74.091 z"
   id="path197"
   style="fill:url(#XMLID_8_);stroke:#000000;stroke-linejoin:round" />
			<linearGradient
   x1="47.068401"
   y1="44.423801"
   x2="50.478901"
   y2="36.751301"
   id="XMLID_9_"
   gradientUnits="userSpaceOnUse">
				<stop
   id="stop200"
   style="stop-color:#ffffff;stop-opacity:1"
   offset="0" />
				<stop
   id="stop202"
   style="stop-color:#cccccc;stop-opacity:1"
   offset="1" />
				<midPointStop
   offset="0"
   style="stop-color:#FFFFFF"
   id="midPointStop204" />
				<midPointStop
   offset="0.5"
   style="stop-color:#FFFFFF"
   id="midPointStop206" />
				<midPointStop
   offset="1"
   style="stop-color:#CCCCCC"
   id="midPointStop208" />
			</linearGradient>
			<path
   d="M 53.803,74.093 C 53.803,74.093 55.564,73.689 57.871,70.458 C 60.232,67.151 64.213,57.669 66.958,54.421 C 72.803,47.507 80.582,50.142 80.582,50.142 L 33.706,29.659 C 33.706,29.659 25.927,27.024 20.082,33.939 C 17.337,37.187 15.056,44.757 12.305,48.541 C 9.536,52.348 6.927,53.611 6.927,53.611 L 53.803,74.093 z"
   id="path210"
   style="fill:url(#XMLID_9_);stroke:#000000;stroke-linejoin:round" />
		</g>
		<path
   d="M 54.657,85.511 L 112.704,33.592 L 112.704,29.322 L 54.657,81.241 L 54.657,85.511 z"
   id="path212"
   style="fill:#ac6a3d" />
		<path
   d="M 3.854,63.309 L 54.657,85.511 L 54.657,81.241 L 3.854,59.039 L 3.854,63.309 z"
   id="path214"
   style="fill:#e8a762" />
		<path
   d="M 33.84,19.822 L 31.481,28.373 L 32.214,30.371 L 71.617,47.213 C 71.742,47.259 78.417,49.661 80.592,52.775 C 81.31,53.802 81.772,54.8 82.26,55.856 C 83.101,57.673 83.97,59.552 86.151,61.478 C 89.963,64.842 101.198,68.385 101.674,68.535 L 102.639,66.835 C 102.639,66.835 98.587,63.221 96.542,61.397 C 99.413,61.049 105.812,60.275 105.812,60.275 L 105.916,58.307 C 105.823,58.286 96.645,56.156 93.184,53.1 C 90.922,51.105 89.191,48.367 87.663,45.951 L 85.952,43.332 C 83.411,39.692 76.364,37.158 76.065,37.052 C 76.064,37.049 35.207,19.174 35.207,19.174 L 34.149,18.711 L 33.84,19.822 z"
   id="path216" />
		<linearGradient
   x1="71.2183"
   y1="38.578098"
   x2="67.318802"
   y2="45.819099"
   id="XMLID_10_"
   gradientUnits="userSpaceOnUse">
			<stop
   id="stop219"
   style="stop-color:#ff0000;stop-opacity:1"
   offset="0" />
			<stop
   id="stop221"
   style="stop-color:#9d0000;stop-opacity:1"
   offset="1" />
			<midPointStop
   offset="0"
   style="stop-color:#FF0000"
   id="midPointStop223" />
			<midPointStop
   offset="0.5"
   style="stop-color:#FF0000"
   id="midPointStop225" />
			<midPointStop
   offset="1"
   style="stop-color:#9D0000"
   id="midPointStop227" />
		</linearGradient>
		<path
   d="M 72.009,46.293 C 72.009,46.293 79.024,48.784 81.411,52.203 C 83.458,55.133 83.572,57.869 86.811,60.728 C 90.507,63.991 101.971,67.581 101.971,67.581 L 94.224,60.67 L 105.69,59.281 C 105.69,59.281 96.215,57.112 92.519,53.849 C 89.28,50.99 87.176,46.832 85.129,43.903 C 82.741,40.484 75.727,37.993 75.727,37.993 L 34.804,20.088 L 32.53,28.33 L 33.004,29.621 L 72.009,46.293 z"
   id="path229"
   style="fill:url(#XMLID_10_)" />
	</g>
<g
   id="g2502"
   transform="matrix(0.3781897,0,0,0.3781897,0.6691722,0.2187516)"><path
     id="path2504"
     d="M 49.5,9.84 C 49.5,11.12 49.5,117.84 49.5,119.14 C 49.5,120.43 50.54,121.48 51.84,121.48 C 53.13,121.48 76.34,121.48 77.63,121.48 C 78.92,121.48 79.97,120.43 79.97,119.14 C 79.97,117.85 79.97,11.13 79.97,9.84 C 79.97,8.56 78.92,7.5 77.63,7.5 C 76.34,7.5 53.13,7.5 51.84,7.5 C 50.55,7.5 49.5,8.55 49.5,9.84 L 49.5,9.84 z M 119.12,49.41 C 117.83,49.41 11.12,49.56 9.83,49.56 C 8.55,49.56 7.49,50.6 7.49,51.9 C 7.49,53.19 7.52,76.4 7.52,77.69 C 7.52,78.98 8.56,80.03 9.85,80.03 C 11.13,80.03 117.86,79.88 119.15,79.88 C 120.43,79.88 121.48,78.83 121.48,77.54 C 121.48,76.25 121.46,53.04 121.46,51.75 C 121.46,50.47 120.41,49.41 119.12,49.41 L 119.12,49.41 z"
     style="fill:none;stroke:#17450c;stroke-width:14.12899971;stroke-linecap:round" /><path
     id="path2506"
     d="M 49.5,9.84 C 49.5,11.12 49.5,117.84 49.5,119.14 C 49.5,120.43 50.54,121.48 51.84,121.48 C 53.13,121.48 76.34,121.48 77.63,121.48 C 78.92,121.48 79.97,120.43 79.97,119.14 C 79.97,117.85 79.97,11.13 79.97,9.84 C 79.97,8.56 78.92,7.5 77.63,7.5 C 76.34,7.5 53.13,7.5 51.84,7.5 C 50.55,7.5 49.5,8.55 49.5,9.84 L 49.5,9.84 z M 119.22,49.75 C 117.93,49.75 11.21,49.26 9.92,49.25 C 8.64,49.25 7.57,50.27 7.57,51.58 C 7.57,52.86 7.47,76.08 7.47,77.37 C 7.47,78.66 8.49,79.72 9.79,79.72 C 11.07,79.72 117.8,80.2 119.08,80.22 C 120.37,80.22 121.43,79.19 121.43,77.89 C 121.43,76.6 121.54,53.38 121.54,52.09 C 121.54,50.81 120.51,49.75 119.21,49.75 L 119.22,49.75 z"
     style="fill:none;stroke:#7cb66e;stroke-width:4.83370018" /><radialGradient
     gradientTransform="matrix(-6.3e-3,-0.2447,0.2447,-6.3e-3,64.3273,65.9999)"
     r="200"
     cy="0"
     cx="0"
     gradientUnits="userSpaceOnUse"
     id="gradient0"><stop
       id="stop2509"
       stop-color="#55df36"
       offset="0.6072" /><stop
       id="stop2511"
       stop-color="#73fc54"
       offset="0.9838" /></radialGradient><path
     id="path2513"
     d="M 49.5,9.84 C 49.5,10.36 49.5,28.62 49.5,50.06 C 49.5,80.91 49.5,118.36 49.5,119.14 C 49.5,120.43 50.54,121.48 51.84,121.48 C 53.13,121.48 76.34,121.48 77.63,121.48 C 78.92,121.48 79.97,120.43 79.97,119.14 C 79.97,117.85 79.97,11.13 79.97,9.84 C 79.97,8.56 78.92,7.5 77.63,7.5 C 76.34,7.5 53.13,7.5 51.84,7.5 C 50.55,7.5 49.5,8.55 49.5,9.84 L 49.5,9.84 z M 119.22,49.75 C 117.93,49.75 11.21,49.26 9.92,49.25 C 8.64,49.25 7.57,50.27 7.57,51.58 C 7.57,52.86 7.47,76.08 7.47,77.37 C 7.47,78.66 8.49,79.72 9.79,79.72 C 11.07,79.72 117.8,80.2 119.08,80.22 C 120.37,80.22 121.43,79.19 121.43,77.89 C 121.43,76.6 121.54,53.38 121.54,52.09 C 121.54,50.81 120.51,49.75 119.21,49.75 L 119.22,49.75 z"
     style="fill:url(#gradient0);fill-rule:evenodd" /><path
     id="path2515"
     d="M 36.66,67.08 C 37.94,68.37 60.95,91.58 62.23,92.87 C 63.5,94.16 65.59,94.17 66.9,92.89 C 68.18,91.62 91.48,68.51 92.78,67.23 C 94.06,65.96 94.07,63.87 92.79,62.57 C 91.52,61.28 68.5,38.07 67.23,36.78 C 65.96,35.5 63.86,35.49 62.57,36.76 C 61.28,38.04 37.98,61.14 36.68,62.41 C 35.4,63.69 35.39,65.78 36.66,67.07 L 36.66,67.08 z"
     style="fill:#56e136" /></g></svg>