<?xml version="1.0" encoding="UTF-8" standalone="no"?>
<svg
   xmlns:dc="http://purl.org/dc/elements/1.1/"
   xmlns:cc="http://creativecommons.org/ns#"
   xmlns:rdf="http://www.w3.org/1999/02/22-rdf-syntax-ns#"
   xmlns:svg="http://www.w3.org/2000/svg"
   xmlns="http://www.w3.org/2000/svg"
   xmlns:xlink="http://www.w3.org/1999/xlink"
   xmlns:sodipodi="http://sodipodi.sourceforge.net/DTD/sodipodi-0.dtd"
   xmlns:inkscape="http://www.inkscape.org/namespaces/inkscape"
   version="1.1"
   width="64"
   height="64"
   color-interpolation="linearRGB"
   id="svg2"
   sodipodi:version="0.32"
   inkscape:version="0.47 r22583"
   sodipodi:docname="dnd.svg"
   inkscape:output_extension="org.inkscape.output.svg.inkscape">
  <metadata
     id="metadata31">
    <rdf:RDF>
      <cc:Work
         rdf:about="">
        <dc:format>image/svg+xml</dc:format>
        <dc:type
           rdf:resource="http://purl.org/dc/dcmitype/StillImage" />
        <dc:title></dc:title>
      </cc:Work>
    </rdf:RDF>
  </metadata>
  <defs
     id="defs29">
    <inkscape:perspective
       sodipodi:type="inkscape:persp3d"
       inkscape:vp_x="0 : 32 : 1"
       inkscape:vp_y="0 : 1000 : 0"
       inkscape:vp_z="64 : 32 : 1"
       inkscape:persp3d-origin="32 : 21.333333 : 1"
       id="perspective33" />
    <inkscape:perspective
       id="perspective35"
       inkscape:persp3d-origin="32 : 21.333333 : 1"
       inkscape:vp_z="64 : 32 : 1"
       inkscape:vp_y="0 : 1000 : 0"
       inkscape:vp_x="0 : 32 : 1"
       sodipodi:type="inkscape:persp3d" />
    <inkscape:perspective
       id="perspective3563"
       inkscape:persp3d-origin="0.5 : 0.33333333 : 1"
       inkscape:vp_z="1 : 0.5 : 1"
       inkscape:vp_y="0 : 1000 : 0"
       inkscape:vp_x="0 : 0.5 : 1"
       sodipodi:type="inkscape:persp3d" />
    <linearGradient
       inkscape:collect="always"
       xlink:href="#linearGradient2308"
       id="linearGradient3553"
       gradientUnits="userSpaceOnUse"
       x1="57"
       y1="29.928572"
       x2="97"
       y2="29.928572" />
    <linearGradient
       id="linearGradient2308">
      <stop
         id="stop2310"
         offset="0"
         style="stop-color:#edd400;stop-opacity:1;" />
      <stop
         id="stop2312"
         offset="1"
         style="stop-color:#fff492;stop-opacity:1;" />
    </linearGradient>
    <linearGradient
       id="linearGradient3572">
      <stop
         id="stop3574"
         offset="0"
         style="stop-color:#edd400;stop-opacity:1;" />
      <stop
         id="stop3576"
         offset="1"
         style="stop-color:#fff492;stop-opacity:1;" />
    </linearGradient>
    <linearGradient
       id="linearGradient3579">
      <stop
         id="stop3581"
         offset="0"
         style="stop-color:#edd400;stop-opacity:1;" />
      <stop
         id="stop3583"
         offset="1"
         style="stop-color:#fff492;stop-opacity:1;" />
    </linearGradient>
    <linearGradient
       id="linearGradient3586">
      <stop
         id="stop3588"
         offset="0"
         style="stop-color:#edd400;stop-opacity:1;" />
      <stop
         id="stop3590"
         offset="1"
         style="stop-color:#fff492;stop-opacity:1;" />
    </linearGradient>
    <linearGradient
       id="linearGradient3593">
      <stop
         id="stop3595"
         offset="0"
         style="stop-color:#edd400;stop-opacity:1;" />
      <stop
         id="stop3597"
         offset="1"
         style="stop-color:#fff492;stop-opacity:1;" />
    </linearGradient>
    <linearGradient
       id="linearGradient3600">
      <stop
         id="stop3602"
         offset="0"
         style="stop-color:#edd400;stop-opacity:1;" />
      <stop
         id="stop3604"
         offset="1"
         style="stop-color:#fff492;stop-opacity:1;" />
    </linearGradient>
    <linearGradient
       id="linearGradient3607">
      <stop
         id="stop3609"
         offset="0"
         style="stop-color:#edd400;stop-opacity:1;" />
      <stop
         id="stop3611"
         offset="1"
         style="stop-color:#fff492;stop-opacity:1;" />
    </linearGradient>
    <linearGradient
       y2="29.928572"
       x2="97"
       y1="29.928572"
       x1="57"
       gradientUnits="userSpaceOnUse"
       id="linearGradient3622"
       xlink:href="#linearGradient2308"
       inkscape:collect="always" />
    <inkscape:perspective
       id="perspective6986"
       inkscape:persp3d-origin="0.5 : 0.33333333 : 1"
       inkscape:vp_z="1 : 0.5 : 1"
       inkscape:vp_y="0 : 1000 : 0"
       inkscape:vp_x="0 : 0.5 : 1"
       sodipodi:type="inkscape:persp3d" />
    <inkscape:perspective
       id="perspective8425"
       inkscape:persp3d-origin="0.5 : 0.33333333 : 1"
       inkscape:vp_z="1 : 0.5 : 1"
       inkscape:vp_y="0 : 1000 : 0"
       inkscape:vp_x="0 : 0.5 : 1"
       sodipodi:type="inkscape:persp3d" />
    <linearGradient
       id="linearGradient2308-5">
      <stop
         id="stop2310-4"
         offset="0"
         style="stop-color:#edd400;stop-opacity:1;" />
      <stop
         id="stop2312-4"
         offset="1"
         style="stop-color:#fff492;stop-opacity:1;" />
    </linearGradient>
    <inkscape:perspective
       id="perspective10096"
       inkscape:persp3d-origin="32 : 21.333333 : 1"
       inkscape:vp_z="64 : 32 : 1"
       inkscape:vp_y="0 : 1000 : 0"
       inkscape:vp_x="0 : 32 : 1"
       sodipodi:type="inkscape:persp3d" />
  </defs>
  <sodipodi:namedview
     inkscape:window-height="682"
     inkscape:window-width="1106"
     inkscape:pageshadow="2"
     inkscape:pageopacity="0.0"
     guidetolerance="10.0"
     gridtolerance="10.0"
     objecttolerance="10.0"
     borderopacity="1.0"
     bordercolor="#666666"
     pagecolor="#ffffff"
     id="base"
     showgrid="false"
     inkscape:zoom="3.3363091"
     inkscape:cx="39.61631"
     inkscape:cy="53.623501"
     inkscape:window-x="85"
     inkscape:window-y="43"
     inkscape:current-layer="svg2"
     inkscape:window-maximized="1" />
  <g
     id="g4">
    <path
       style="fill:#010101; fill-opacity:0.5725"
       d="M27 57L29 59L32.13 55.83L37 59L45.39 47.54L64 38L59 35L61 37L36 49L27 57z            M58 34L62 31L58 29L55 32L58 34z"
       id="path6" />
    <path
       style="fill:none; stroke:#010101; stroke-width:4"
       d="M6.25 30C6.25 30 11.87 36 16.87 42.5C21.87 49 26.25 55.75 26.25 55.75L59.12 36.87L32 15L6.25 30z"
       id="path8" />
    <radialGradient
       id="gradient0"
       gradientUnits="userSpaceOnUse"
       cx="0"
       cy="0"
       r="64"
       gradientTransform="matrix(0.5714,0,0,0.3333,26,35)">
      <stop
         offset="1"
         stop-color="#c0d5ff"
         id="stop11" />
      <stop
         offset="0.4886"
         stop-color="#896eff"
         id="stop13" />
    </radialGradient>
    <path
       style="fill:url(#gradient0)"
       d="M6.25 30C6.25 30 11.87 36 16.87 42.5C21.87 49 26.25 55.75 26.25 55.75L59.12 36.87L32 15L6.25 30z"
       id="path15" />
    <path
       style="fill:none; stroke:#010101; stroke-width:4"
       d="M2.62 30.87C2.62 30.87 10.95 36.26 19 41.87C27.44 47.75 35.75 52.75 35.75 52.75L58.12 26.37C58.12 26.37 45.44 20.7 35.37 15.37C30.18 12.62 26 9.37 26 9.37L2.62 30.87z"
       id="path17" />
    <linearGradient
       id="gradient1"
       gradientUnits="userSpaceOnUse"
       x1="105.45"
       y1="-23.42"
       x2="119.92"
       y2="34.32">
      <stop
         offset="0"
         stop-color="#a5b1ff"
         id="stop20" />
      <stop
         offset="0.7386"
         stop-color="#eaf1ff"
         id="stop22" />
      <stop
         offset="1"
         stop-color="#b3b8ff"
         id="stop24" />
    </linearGradient>
    <path
       style="fill:url(#gradient1)"
       d="M2.62 30.87C2.62 30.87 10.95 36.26 19 41.87C27.44 47.75 35.75 52.75 35.75 52.75L58.12 26.37C58.12 26.37 45.44 20.7 35.37 15.37C30.18 12.62 26 9.37 26 9.37L2.62 30.87z"
       id="path26" />
  </g>
  <g
     id="g10064"
     transform="translate(16,-13)">
    <path
       id="path10066"
       transform="translate(3,1)"
       d="m 45,30 -15,15 0,-7 -20,-0.01 0,-16 20,0.01 0,-7 15,15 z"
       style="fill:#010101;fill-opacity:0.29010004" />
    <path
       id="path10068"
       transform="translate(3,1)"
       d="m 45,30 -15,15 0,-7 -20,-0.01 0,-16 20,0.01 0,-7 15,15 z"
       style="fill:#010101;fill-opacity:0.29010004" />
    <path
       id="path10070"
       transform="translate(3,1)"
       d="m 45,30 -15,15 0,-7 -20,-0.01 0,-16 20,0.01 0,-7 15,15 z"
       style="fill:#010101;fill-opacity:0.29010004" />
    <path
       id="path10072"
       transform="translate(3,1)"
       d="m 45,30 -15,15 0,-7 -20,-0.01 0,-16 20,0.01 0,-7 15,15 z"
       style="fill:#010101;fill-opacity:0.29010004" />
    <path
       id="path10074"
       d="m 45,30 -15,15 0,-7 -20,-0.01 0,-16 20,0.01 0,-7 15,15 z"
       style="fill:none;stroke:#000000;stroke-width:4" />
    <linearGradient
       y2="5.25"
       x2="77.269997"
       y1="-10.35"
       x1="66.449997"
       gradientUnits="userSpaceOnUse"
       id="gradient0-9">
      <stop
         id="stop10077"
         stop-color="#acff0d"
         offset="0" />
      <stop
         id="stop10079"
         stop-color="#04a804"
         offset="1" />
    </linearGradient>
    <path
       id="path10081"
       d="m 45,30 -15,15 0,-7 -20,-0.01 0,-16 20,0.01 0,-7 15,15 z"
       style="fill:url(#gradient0-9)" />
    <linearGradient
       y2="7.0100002"
       x2="85.120003"
       y1="-20.74"
       x1="57.509998"
       gradientUnits="userSpaceOnUse"
       id="gradient1-3">
      <stop
         id="stop10084"
         stop-color="#68fb06"
         offset="0" />
      <stop
         id="stop10086"
         stop-color="#05d705"
         offset="1" />
    </linearGradient>
    <path
       id="path10088"
       d="m 45,30 -15,15 0,-7 -20,-0.01 0,-16 20,0.01 0,-7 15,15 z"
       style="fill:url(#gradient1-3)" />
  </g>
</svg>
