<?xml version="1.0" encoding="UTF-8" standalone="no"?>
<!DOCTYPE svg PUBLIC "-//W3C//DTD SVG 20010904//EN"
"http://www.w3.org/TR/2001/REC-SVG-20010904/DTD/svg10.dtd">
<!-- Created with Sodipodi ("http://www.sodipodi.com/") -->
<svg
   width="32pt"
   height="32pt"
   viewBox="0 0 18.957 24.604"
   overflow="visible"
   enable-background="new 0 0 18.957 24.604"
   xml:space="preserve"
   xmlns="http://www.w3.org/2000/svg"
   xmlns:xml="http://www.w3.org/XML/1998/namespace"
   xmlns:a="http://ns.adobe.com/AdobeSVGViewerExtensions/3.0/"
   xmlns:sodipodi="http://sodipodi.sourceforge.net/DTD/sodipodi-0.dtd"
   xmlns:xlink="http://www.w3.org/1999/xlink"
   id="svg153"
   sodipodi:version="0.32pre"
   sodipodi:docname="/home/cschalle/Shared/BeOS_SVG/emblem-idea.svg"
   sodipodi:docbase="/home/cschalle/Shared/BeOS_SVG/">
  <defs
     id="defs347" />
  <sodipodi:namedview
     id="base" />
  <metadata
     id="metadata154">
    <sfw>
      <slices />
      <sliceSourceBounds
         y="407.198"
         x="287.021"
         width="18.957"
         height="24.604"
         bottomLeftOrigin="true" />
    </sfw>
  </metadata>
  <g
     id="Layer_1"
     stroke="#000000">
    <g
       id="Layer_1_2_">
      <g
         id="g157">
        <path
           fill="#FFFF07"
           stroke="none"
           d="M0.547,7.897c0-4.075,3.303-7.378,7.378-7.378c4.075,0,7.378,3.303,7.378,7.378      c0,4.075-3.304,7.378-7.378,7.378C3.85,15.275,0.547,11.972,0.547,7.897z"
           id="path158" />
        <path
           fill="#FFFF0A"
           stroke="none"
           d="M7.902,0.546c4.04,0,7.314,3.275,7.314,7.314s-3.274,7.314-7.314,7.314      c-4.04,0-7.314-3.275-7.314-7.314S3.863,0.546,7.902,0.546z"
           id="path159" />
        <path
           fill="#FFFF0E"
           stroke="none"
           d="M7.88,0.573c4.004,0,7.25,3.246,7.25,7.25s-3.246,7.25-7.25,7.25      c-4.004,0-7.25-3.246-7.25-7.25S3.875,0.573,7.88,0.573z"
           id="path160" />
        <path
           fill="#FFFF11"
           stroke="none"
           d="M7.857,0.6c3.969,0,7.187,3.218,7.187,7.187c0,3.969-3.218,7.187-7.187,7.187      c-3.969,0-7.187-3.218-7.187-7.187C0.67,3.818,3.888,0.6,7.857,0.6z"
           id="path161" />
        <path
           fill="#FFFF14"
           stroke="none"
           d="M7.834,0.627c3.934,0,7.123,3.189,7.123,7.123s-3.188,7.123-7.123,7.123      c-3.934,0-7.123-3.189-7.123-7.123S3.901,0.627,7.834,0.627z"
           id="path162" />
        <path
           fill="#FFFF18"
           stroke="none"
           d="M7.812,0.655c3.898,0,7.059,3.16,7.059,7.059c0,3.899-3.159,7.059-7.059,7.059      c-3.898,0-7.059-3.161-7.059-7.059C0.753,3.814,3.913,0.655,7.812,0.655z"
           id="path163" />
        <path
           fill="#FFFF1B"
           stroke="none"
           d="M7.789,0.682c3.863,0,6.995,3.132,6.995,6.995s-3.132,6.995-6.995,6.995      S0.794,11.54,0.794,7.677S3.926,0.682,7.789,0.682z"
           id="path164" />
        <path
           fill="#FFFF1E"
           stroke="none"
           d="M7.767,0.708c3.827,0,6.931,3.104,6.931,6.931c0,3.828-3.104,6.932-6.931,6.932      c-3.829,0-6.931-3.104-6.931-6.932S3.938,0.708,7.767,0.708z"
           id="path165" />
        <path
           fill="#FFFF21"
           stroke="none"
           d="M7.744,0.736c3.792,0,6.868,3.075,6.868,6.867s-3.075,6.868-6.868,6.868      s-6.867-3.075-6.867-6.868S3.951,0.736,7.744,0.736z"
           id="path166" />
        <path
           fill="#FFFF25"
           stroke="none"
           d="M7.721,0.763c3.757,0,6.803,3.046,6.803,6.803s-3.046,6.803-6.803,6.803      c-3.758,0-6.804-3.045-6.804-6.803S3.963,0.763,7.721,0.763z"
           id="path167" />
        <path
           fill="#FFFF28"
           stroke="none"
           d="M7.698,0.79c3.722,0,6.739,3.017,6.739,6.739s-3.018,6.739-6.739,6.739      c-3.722,0-6.739-3.017-6.739-6.739S3.976,0.79,7.698,0.79z"
           id="path168" />
        <path
           fill="#FFFF2B"
           stroke="none"
           d="M7.676,0.817c3.687,0,6.675,2.989,6.675,6.675c0,3.687-2.988,6.676-6.675,6.676      C3.989,14.169,1,11.18,1,7.493C1,3.806,3.989,0.817,7.676,0.817z"
           id="path169" />
        <path
           fill="#FFFF2F"
           stroke="none"
           d="M7.653,0.844c3.652,0,6.612,2.96,6.612,6.612s-2.96,6.611-6.612,6.611      c-3.651,0-6.611-2.96-6.611-6.612C1.042,3.804,4.001,0.844,7.653,0.844z"
           id="path170" />
        <path
           fill="#FFFF32"
           stroke="none"
           d="M7.63,0.872c3.616,0,6.548,2.931,6.548,6.547s-2.932,6.548-6.548,6.548      s-6.547-2.932-6.547-6.548S4.014,0.872,7.63,0.872z"
           id="path171" />
        <path
           fill="#FFFF35"
           stroke="none"
           d="M7.608,0.898c3.581,0,6.484,2.903,6.484,6.484s-2.903,6.484-6.484,6.484      c-3.582,0-6.484-2.903-6.484-6.484S4.026,0.898,7.608,0.898z"
           id="path172" />
        <path
           fill="#FFFF39"
           stroke="none"
           d="M7.585,0.926c3.545,0,6.42,2.874,6.42,6.42c0,3.545-2.875,6.42-6.42,6.42      c-3.545,0-6.42-2.875-6.42-6.42C1.165,3.8,4.039,0.926,7.585,0.926z"
           id="path173" />
        <path
           fill="#FFFF3C"
           stroke="none"
           d="M7.562,0.953c3.51,0,6.356,2.846,6.356,6.356s-2.846,6.356-6.356,6.356      s-6.356-2.846-6.356-6.356C1.206,3.798,4.052,0.953,7.562,0.953z"
           id="path174" />
        <path
           fill="#FFFF3F"
           stroke="none"
           d="M7.54,0.98c3.475,0,6.292,2.817,6.292,6.292c0,3.475-2.816,6.292-6.292,6.292      s-6.292-2.817-6.292-6.292S4.064,0.98,7.54,0.98z"
           id="path175" />
        <path
           fill="#FFFF43"
           stroke="none"
           d="M7.517,1.007c3.439,0,6.229,2.789,6.229,6.228c0,3.44-2.789,6.229-6.229,6.229      c-3.44,0-6.228-2.789-6.228-6.229C1.289,3.795,4.077,1.007,7.517,1.007z"
           id="path176" />
        <path
           fill="#FFFF46"
           stroke="none"
           d="M7.494,1.034c3.404,0,6.164,2.76,6.164,6.165c0,3.404-2.76,6.165-6.164,6.165      c-3.405,0-6.165-2.76-6.165-6.165C1.33,3.794,4.089,1.034,7.494,1.034z"
           id="path177" />
        <path
           fill="#FFFF49"
           stroke="none"
           d="M7.471,1.062c3.37,0,6.1,2.731,6.1,6.1c0,3.37-2.73,6.101-6.1,6.101      c-3.369,0-6.1-2.731-6.1-6.101C1.371,3.792,4.102,1.062,7.471,1.062z"
           id="path178" />
        <path
           fill="#FFFF4D"
           stroke="none"
           d="M7.449,1.088c3.333,0,6.037,2.703,6.037,6.037s-2.703,6.036-6.037,6.036      c-3.334,0-6.037-2.702-6.037-6.036S4.115,1.088,7.449,1.088z"
           id="path179" />
        <path
           fill="#FFFF50"
           stroke="none"
           d="M7.426,1.115c3.299,0,5.973,2.674,5.973,5.973c0,3.299-2.674,5.973-5.973,5.973      c-3.298,0-5.973-2.674-5.973-5.973C1.453,3.79,4.127,1.115,7.426,1.115z"
           id="path180" />
        <path
           fill="#FFFF53"
           stroke="none"
           d="M7.403,1.143c3.263,0,5.909,2.646,5.909,5.909c0,3.264-2.646,5.909-5.909,5.909      c-3.264,0-5.909-2.645-5.909-5.909C1.495,3.788,4.14,1.143,7.403,1.143z"
           id="path181" />
        <path
           fill="#FFFF56"
           stroke="none"
           d="M7.381,1.17c3.228,0,5.845,2.617,5.845,5.845s-2.617,5.845-5.845,5.845      c-3.229,0-5.845-2.617-5.845-5.845S4.152,1.17,7.381,1.17z"
           id="path182" />
        <path
           fill="#FFFF5A"
           stroke="none"
           d="M7.358,1.197c3.193,0,5.781,2.588,5.781,5.781s-2.588,5.781-5.781,5.781      s-5.781-2.588-5.781-5.781S4.165,1.197,7.358,1.197z"
           id="path183" />
        <path
           fill="#FFFF5D"
           stroke="none"
           d="M7.335,1.224c3.157,0,5.717,2.56,5.717,5.717c0,3.158-2.56,5.717-5.717,5.717      s-5.717-2.56-5.717-5.717C1.618,3.784,4.178,1.224,7.335,1.224z"
           id="path184" />
        <path
           fill="#FFFF60"
           stroke="none"
           d="M7.313,1.251c3.122,0,5.653,2.531,5.653,5.653s-2.531,5.653-5.653,5.653      s-5.653-2.531-5.653-5.653S4.19,1.251,7.313,1.251z"
           id="path185" />
        <path
           fill="#FFFF64"
           stroke="none"
           d="M7.29,1.278c3.087,0,5.589,2.502,5.589,5.589c0,3.086-2.502,5.589-5.589,5.589      S1.701,9.954,1.701,6.868C1.701,3.781,4.203,1.278,7.29,1.278z"
           id="path186" />
        <path
           fill="#FFFF67"
           stroke="none"
           d="M7.267,1.305c3.051,0,5.525,2.474,5.525,5.525c0,3.052-2.474,5.525-5.525,5.525      c-3.052,0-5.525-2.474-5.525-5.525C1.742,3.779,4.215,1.305,7.267,1.305z"
           id="path187" />
        <path
           fill="#FFFF6A"
           stroke="none"
           d="M7.244,1.333c3.017,0,5.462,2.445,5.462,5.461s-2.445,5.461-5.462,5.461      c-3.016,0-5.461-2.445-5.461-5.461S4.228,1.333,7.244,1.333z"
           id="path188" />
        <path
           fill="#FFFF6E"
           stroke="none"
           d="M7.222,1.36c2.981,0,5.397,2.417,5.397,5.397s-2.416,5.397-5.397,5.397      c-2.981,0-5.397-2.417-5.397-5.398C1.824,3.776,4.241,1.36,7.222,1.36z"
           id="path189" />
        <path
           fill="#FFFF71"
           stroke="none"
           d="M7.199,1.387c2.946,0,5.333,2.388,5.333,5.333c0,2.946-2.388,5.334-5.333,5.334      c-2.945,0-5.333-2.388-5.333-5.334C1.865,3.775,4.253,1.387,7.199,1.387z"
           id="path190" />
        <path
           fill="#FFFF74"
           stroke="none"
           d="M7.176,1.414c2.911,0,5.27,2.359,5.27,5.27s-2.359,5.27-5.27,5.27      c-2.91,0-5.27-2.359-5.27-5.27S4.266,1.414,7.176,1.414z"
           id="path191" />
        <path
           fill="#FFFF78"
           stroke="none"
           d="M7.154,1.441c2.875,0,5.206,2.331,5.206,5.206c0,2.875-2.33,5.206-5.206,5.206      S1.948,9.522,1.948,6.647S4.278,1.441,7.154,1.441z"
           id="path192" />
        <path
           fill="#FFFF7B"
           stroke="none"
           d="M7.131,1.468c2.84,0,5.142,2.302,5.142,5.142s-2.302,5.142-5.142,5.142      S1.989,9.45,1.989,6.61C1.989,3.771,4.291,1.468,7.131,1.468z"
           id="path193" />
        <path
           fill="#FFFF7E"
           stroke="none"
           d="M7.108,1.496c2.804,0,5.078,2.273,5.078,5.078c0,2.805-2.274,5.078-5.078,5.078      c-2.805,0-5.078-2.273-5.078-5.078S4.304,1.496,7.108,1.496z"
           id="path194" />
        <path
           fill="#FFFF82"
           stroke="none"
           d="M7.085,1.522c2.769,0,5.014,2.245,5.014,5.014c0,2.769-2.245,5.014-5.014,5.014      S2.071,9.306,2.071,6.537C2.071,3.767,4.316,1.522,7.085,1.522z"
           id="path195" />
        <path
           fill="#FFFF85"
           stroke="none"
           d="M7.063,1.549c2.734,0,4.95,2.217,4.95,4.951s-2.216,4.95-4.95,4.95S2.113,9.233,2.113,6.5      S4.329,1.549,7.063,1.549z"
           id="path196" />
        <path
           fill="#FFFF88"
           stroke="none"
           d="M7.04,1.577c2.699,0,4.887,2.188,4.887,4.886c0,2.699-2.188,4.887-4.887,4.887      S2.154,9.162,2.154,6.463C2.154,3.764,4.341,1.577,7.04,1.577z"
           id="path197" />
        <path
           fill="#FFFF8B"
           stroke="none"
           d="M7.018,1.604c2.664,0,4.822,2.159,4.822,4.823s-2.159,4.823-4.822,4.823      S2.195,9.09,2.195,6.426S4.354,1.604,7.018,1.604z"
           id="path198" />
        <path
           fill="#FFFF8F"
           stroke="none"
           d="M6.995,1.631c2.628,0,4.758,2.13,4.758,4.758c0,2.628-2.13,4.759-4.758,4.759      c-2.628,0-4.759-2.131-4.759-4.759C2.236,3.761,4.366,1.631,6.995,1.631z"
           id="path199" />
        <path
           fill="#FFFF92"
           stroke="none"
           d="M6.972,1.658c2.593,0,4.695,2.102,4.695,4.694s-2.102,4.695-4.695,4.695      S2.278,8.945,2.278,6.353S4.379,1.658,6.972,1.658z"
           id="path200" />
        <path
           fill="#FFFF95"
           stroke="none"
           d="M6.949,1.685c2.558,0,4.631,2.073,4.631,4.631s-2.073,4.631-4.631,4.631      c-2.557,0-4.63-2.073-4.63-4.631S4.392,1.685,6.949,1.685z"
           id="path201" />
        <path
           fill="#FFFF99"
           stroke="none"
           d="M6.927,1.712c2.522,0,4.566,2.044,4.566,4.567c0,2.522-2.044,4.567-4.566,4.567      c-2.522,0-4.567-2.045-4.567-4.567C2.36,3.757,4.405,1.712,6.927,1.712z"
           id="path202" />
        <path
           fill="#FFFF9C"
           stroke="none"
           d="M6.904,1.739c2.487,0,4.503,2.016,4.503,4.503c0,2.487-2.017,4.503-4.503,4.503      S2.401,8.729,2.401,6.242C2.401,3.755,4.417,1.739,6.904,1.739z"
           id="path203" />
        <path
           fill="#FFFF9F"
           stroke="none"
           d="M6.881,1.767c2.452,0,4.439,1.987,4.439,4.439s-1.987,4.439-4.439,4.439      S2.442,8.657,2.442,6.206S4.429,1.767,6.881,1.767z"
           id="path204" />
        <path
           fill="#FFFFA3"
           stroke="none"
           d="M6.858,1.794c2.417,0,4.375,1.958,4.375,4.375s-1.958,4.375-4.375,4.375      S2.483,8.585,2.483,6.169C2.483,3.752,4.442,1.794,6.858,1.794z"
           id="path205" />
        <path
           fill="#FFFFA6"
           stroke="none"
           d="M6.836,1.821c2.381,0,4.312,1.93,4.312,4.311s-1.93,4.312-4.312,4.312      S2.524,8.513,2.524,6.132S4.455,1.821,6.836,1.821z"
           id="path206" />
        <path
           fill="#FFFFA9"
           stroke="none"
           d="M6.813,1.848c2.346,0,4.248,1.901,4.248,4.247s-1.901,4.248-4.248,4.248      c-2.346,0-4.248-1.902-4.248-4.248C2.566,3.75,4.467,1.848,6.813,1.848z"
           id="path207" />
        <path
           fill="#FFFFAD"
           stroke="none"
           d="M6.791,1.875c2.311,0,4.183,1.873,4.183,4.184s-1.873,4.184-4.183,4.184      S2.607,8.369,2.607,6.059S4.48,1.875,6.791,1.875z"
           id="path208" />
        <path
           fill="#FFFFB0"
           stroke="none"
           d="M6.768,1.902c2.275,0,4.12,1.844,4.12,4.119s-1.844,4.12-4.12,4.12s-4.12-1.845-4.12-4.12      S4.493,1.902,6.768,1.902z"
           id="path209" />
        <path
           fill="#FFFFB3"
           stroke="none"
           d="M6.745,1.929c2.24,0,4.056,1.816,4.056,4.056c0,2.24-1.816,4.056-4.056,4.056      c-2.24,0-4.056-1.816-4.056-4.056S4.505,1.929,6.745,1.929z"
           id="path210" />
        <path
           fill="#FFFFB7"
           stroke="none"
           d="M6.723,1.956c2.205,0,3.992,1.788,3.992,3.992S8.927,9.94,6.723,9.94      c-2.205,0-3.992-1.787-3.992-3.992S4.518,1.956,6.723,1.956z"
           id="path211" />
        <path
           fill="#FFFFBA"
           stroke="none"
           d="M6.7,1.983c2.169,0,3.928,1.758,3.928,3.928S8.869,9.839,6.7,9.839      S2.772,8.081,2.772,5.911S4.53,1.983,6.7,1.983z"
           id="path212" />
        <path
           fill="#FFFFBD"
           stroke="none"
           d="M6.677,2.011c2.134,0,3.864,1.729,3.864,3.864s-1.73,3.864-3.864,3.864      c-2.134,0-3.864-1.73-3.864-3.864C2.813,3.741,4.543,2.011,6.677,2.011z"
           id="path213" />
        <path
           fill="#FFFFC0"
           stroke="none"
           d="M6.654,2.038c2.099,0,3.8,1.702,3.8,3.8c0,2.099-1.701,3.801-3.8,3.801      c-2.099,0-3.8-1.702-3.8-3.801C2.854,3.739,4.556,2.038,6.654,2.038z"
           id="path214" />
        <path
           fill="#FFFFC4"
           stroke="none"
           d="M6.632,2.065c2.063,0,3.736,1.672,3.736,3.736c0,2.063-1.673,3.736-3.736,3.736      S2.896,7.865,2.896,5.801C2.896,3.737,4.568,2.065,6.632,2.065z"
           id="path215" />
        <path
           fill="#FFFFC7"
           stroke="none"
           d="M6.609,2.092c2.028,0,3.672,1.644,3.672,3.672S8.637,9.437,6.609,9.437      c-2.028,0-3.672-1.645-3.672-3.673C2.937,3.736,4.581,2.092,6.609,2.092z"
           id="path216" />
        <path
           fill="#FFFFCA"
           stroke="none"
           d="M6.586,2.119c1.993,0,3.608,1.615,3.608,3.608S8.58,9.336,6.586,9.336      S2.978,7.721,2.978,5.728C2.978,3.735,4.593,2.119,6.586,2.119z"
           id="path217" />
        <path
           fill="#FFFFCE"
           stroke="none"
           d="M6.563,2.146c1.958,0,3.544,1.587,3.544,3.545c0,1.958-1.586,3.544-3.544,3.544      S3.019,7.648,3.019,5.691C3.019,3.733,4.606,2.146,6.563,2.146z"
           id="path218" />
        <path
           fill="#FFFFD1"
           stroke="none"
           d="M3.06,5.654c0-1.922,1.559-3.48,3.481-3.48c1.922,0,3.48,1.558,3.48,3.48      s-1.558,3.481-3.48,3.481C4.618,9.135,3.06,7.576,3.06,5.654z"
           id="path219" />
      </g>
      <g
         id="g220">
        <path
           fill="#FFFFA2"
           stroke="none"
           d="M3.06,5.654c0-1.922,1.559-3.48,3.481-3.48c1.922,0,3.48,1.558,3.48,3.48      s-1.558,3.481-3.48,3.481C4.618,9.135,3.06,7.576,3.06,5.654z"
           id="path221" />
        <path
           fill="#FFFFA4"
           stroke="none"
           d="M6.536,2.197c1.905,0,3.45,1.544,3.45,3.45s-1.544,3.45-3.45,3.45      c-1.905,0-3.45-1.544-3.45-3.45S4.631,2.197,6.536,2.197z"
           id="path222" />
        <path
           fill="#FFFFA5"
           stroke="none"
           d="M6.532,2.221c1.888,0,3.418,1.531,3.418,3.419S8.42,9.06,6.532,9.06      S3.113,7.528,3.113,5.64S4.644,2.221,6.532,2.221z"
           id="path223" />
        <path
           fill="#FFFFA7"
           stroke="none"
           d="M6.527,2.245c1.872,0,3.388,1.517,3.388,3.388S8.398,9.021,6.527,9.021      S3.139,7.504,3.139,5.633S4.656,2.245,6.527,2.245z"
           id="path224" />
        <path
           fill="#FFFFA8"
           stroke="none"
           d="M6.522,2.269c1.854,0,3.356,1.503,3.356,3.357S8.376,8.983,6.522,8.983      S3.166,7.48,3.166,5.626S4.668,2.269,6.522,2.269z"
           id="path225" />
        <path
           fill="#FFFFAA"
           stroke="none"
           d="M6.518,2.293c1.837,0,3.326,1.489,3.326,3.326c0,1.837-1.489,3.327-3.326,3.327      c-1.837,0-3.326-1.489-3.326-3.327C3.192,3.782,4.681,2.293,6.518,2.293z"
           id="path226" />
        <path
           fill="#FFFFAB"
           stroke="none"
           d="M6.513,2.317c1.82,0,3.295,1.475,3.295,3.295c0,1.82-1.475,3.295-3.295,3.295      c-1.82,0-3.295-1.476-3.295-3.295C3.218,3.792,4.693,2.317,6.513,2.317z"
           id="path227" />
        <path
           fill="#FFFFAD"
           stroke="none"
           d="M6.508,2.341c1.803,0,3.264,1.461,3.264,3.264S8.312,8.87,6.508,8.87      c-1.803,0-3.264-1.462-3.264-3.265S4.706,2.341,6.508,2.341z"
           id="path228" />
        <path
           fill="#FFFFAE"
           stroke="none"
           d="M6.504,2.365c1.786,0,3.233,1.447,3.233,3.233c0,1.786-1.447,3.233-3.233,3.233      c-1.786,0-3.233-1.448-3.233-3.233C3.271,3.812,4.718,2.365,6.504,2.365z"
           id="path229" />
        <path
           fill="#FFFFB0"
           stroke="none"
           d="M6.499,2.389c1.769,0,3.203,1.434,3.203,3.203c0,1.769-1.434,3.203-3.203,3.203      c-1.769,0-3.203-1.434-3.203-3.203S4.73,2.389,6.499,2.389z"
           id="path230" />
        <path
           fill="#FFFFB1"
           stroke="none"
           d="M6.494,2.413c1.752,0,3.172,1.42,3.172,3.171c0,1.752-1.42,3.172-3.172,3.172      c-1.751,0-3.171-1.42-3.171-3.172C3.323,3.833,4.743,2.413,6.494,2.413z"
           id="path231" />
        <path
           fill="#FFFFB3"
           stroke="none"
           d="M6.49,2.437c1.734,0,3.141,1.406,3.141,3.141S8.225,8.718,6.49,8.718      S3.349,7.312,3.349,5.577S4.755,2.437,6.49,2.437z"
           id="path232" />
        <path
           fill="#FFFFB4"
           stroke="none"
           d="M6.485,2.46c1.718,0,3.11,1.392,3.11,3.109c0,1.718-1.392,3.11-3.11,3.11      c-1.717,0-3.109-1.393-3.109-3.11C3.375,3.853,4.768,2.46,6.485,2.46z"
           id="path233" />
        <path
           fill="#FFFFB6"
           stroke="none"
           d="M6.48,2.484c1.7,0,3.079,1.378,3.079,3.079c0,1.7-1.378,3.079-3.079,3.079      c-1.701,0-3.079-1.379-3.079-3.079C3.401,3.863,4.78,2.484,6.48,2.484z"
           id="path234" />
        <path
           fill="#FFFFB7"
           stroke="none"
           d="M6.476,2.508c1.684,0,3.048,1.364,3.048,3.048S8.159,8.604,6.476,8.604      c-1.683,0-3.048-1.365-3.048-3.048S4.792,2.508,6.476,2.508z"
           id="path235" />
        <path
           fill="#FFFFB9"
           stroke="none"
           d="M6.471,2.532c1.667,0,3.017,1.351,3.017,3.017c0,1.667-1.351,3.018-3.017,3.018      c-1.667,0-3.017-1.352-3.017-3.018C3.454,3.883,4.805,2.532,6.471,2.532z"
           id="path236" />
        <path
           fill="#FFFFBA"
           stroke="none"
           d="M6.466,2.556c1.649,0,2.986,1.337,2.986,2.986c0,1.649-1.337,2.986-2.986,2.986      c-1.649,0-2.986-1.337-2.986-2.986S4.817,2.556,6.466,2.556z"
           id="path237" />
        <path
           fill="#FFFFBC"
           stroke="none"
           d="M6.462,2.58c1.632,0,2.955,1.323,2.955,2.955S8.094,8.491,6.462,8.491      S3.507,7.167,3.507,5.535C3.506,3.903,4.83,2.58,6.462,2.58z"
           id="path238" />
        <path
           fill="#FFFFBD"
           stroke="none"
           d="M6.457,2.604c1.615,0,2.924,1.309,2.924,2.924S8.072,8.453,6.457,8.453      S3.533,7.144,3.533,5.528S4.842,2.604,6.457,2.604z"
           id="path239" />
        <path
           fill="#FFFFBF"
           stroke="none"
           d="M6.453,2.628c1.598,0,2.893,1.295,2.893,2.894c0,1.598-1.295,2.894-2.893,2.894      S3.559,7.12,3.559,5.521S4.854,2.628,6.453,2.628z"
           id="path240" />
        <path
           fill="#FFFFC0"
           stroke="none"
           d="M6.448,2.652c1.581,0,2.863,1.282,2.863,2.862c0,1.581-1.282,2.863-2.863,2.863      S3.585,7.095,3.585,5.514C3.585,3.934,4.867,2.652,6.448,2.652z"
           id="path241" />
        <path
           fill="#FFFFC2"
           stroke="none"
           d="M6.443,2.676c1.563,0,2.832,1.268,2.832,2.832S8.007,8.339,6.443,8.339      c-1.564,0-2.832-1.268-2.832-2.832C3.611,3.943,4.879,2.676,6.443,2.676z"
           id="path242" />
        <path
           fill="#FFFFC4"
           stroke="none"
           d="M6.438,2.7c1.547,0,2.801,1.254,2.801,2.8c0,1.547-1.254,2.801-2.801,2.801      S3.638,7.047,3.638,5.5C3.638,3.954,4.892,2.7,6.438,2.7z"
           id="path243" />
        <path
           fill="#FFFFC5"
           stroke="none"
           d="M6.434,2.724c1.53,0,2.77,1.24,2.77,2.77c0,1.53-1.24,2.771-2.77,2.771      s-2.77-1.241-2.77-2.771C3.664,3.964,4.904,2.724,6.434,2.724z"
           id="path244" />
        <path
           fill="#FFFFC7"
           stroke="none"
           d="M6.429,2.748c1.513,0,2.739,1.226,2.739,2.739S7.942,8.226,6.429,8.226      S3.69,6.999,3.69,5.486S4.917,2.748,6.429,2.748z"
           id="path245" />
        <path
           fill="#FFFFC8"
           stroke="none"
           d="M6.424,2.771c1.496,0,2.708,1.212,2.708,2.708S7.92,8.188,6.424,8.188      c-1.495,0-2.708-1.213-2.708-2.708S4.929,2.771,6.424,2.771z"
           id="path246" />
        <path
           fill="#FFFFCA"
           stroke="none"
           d="M6.42,2.795c1.479,0,2.677,1.199,2.677,2.677S7.898,8.15,6.42,8.15      S3.743,6.951,3.743,5.473C3.743,3.994,4.941,2.795,6.42,2.795z"
           id="path247" />
        <path
           fill="#FFFFCB"
           stroke="none"
           d="M6.415,2.819c1.462,0,2.646,1.185,2.646,2.646S7.877,8.112,6.415,8.112      c-1.461,0-2.646-1.185-2.646-2.646S4.954,2.819,6.415,2.819z"
           id="path248" />
        <path
           fill="#FFFFCD"
           stroke="none"
           d="M6.411,2.843c1.444,0,2.616,1.171,2.616,2.615c0,1.445-1.171,2.616-2.616,2.616      S3.795,6.903,3.795,5.458C3.795,4.014,4.966,2.843,6.411,2.843z"
           id="path249" />
        <path
           fill="#FFFFCE"
           stroke="none"
           d="M6.406,2.867c1.428,0,2.585,1.157,2.585,2.584S7.833,8.036,6.406,8.036      c-1.427,0-2.584-1.157-2.584-2.584S4.979,2.867,6.406,2.867z"
           id="path250" />
        <path
           fill="#FFFFD0"
           stroke="none"
           d="M6.401,2.891c1.41,0,2.554,1.143,2.554,2.553c0,1.411-1.144,2.554-2.554,2.554      S3.848,6.855,3.848,5.444C3.848,4.034,4.991,2.891,6.401,2.891z"
           id="path251" />
        <path
           fill="#FFFFD1"
           stroke="none"
           d="M6.396,2.915c1.394,0,2.523,1.129,2.523,2.522c0,1.393-1.129,2.523-2.523,2.523      c-1.393,0-2.522-1.13-2.522-2.523C3.874,4.044,5.003,2.915,6.396,2.915z"
           id="path252" />
        <path
           fill="#FFFFD3"
           stroke="none"
           d="M6.392,2.939c1.376,0,2.492,1.115,2.492,2.492c0,1.376-1.116,2.492-2.492,2.492      S3.9,6.807,3.9,5.431S5.016,2.939,6.392,2.939z"
           id="path253" />
        <path
           fill="#FFFFD4"
           stroke="none"
           d="M6.387,2.963c1.359,0,2.461,1.102,2.461,2.461c0,1.359-1.102,2.461-2.461,2.461      c-1.359,0-2.46-1.102-2.46-2.461C3.927,4.064,5.028,2.963,6.387,2.963z"
           id="path254" />
        <path
           fill="#FFFFD6"
           stroke="none"
           d="M6.383,2.987c1.342,0,2.43,1.088,2.43,2.43c0,1.342-1.088,2.43-2.43,2.43      c-1.342,0-2.43-1.088-2.43-2.43C3.953,4.075,5.041,2.987,6.383,2.987z"
           id="path255" />
        <path
           fill="#FFFFD7"
           stroke="none"
           d="M6.378,3.011c1.325,0,2.399,1.074,2.399,2.399S7.703,7.809,6.378,7.809      c-1.325,0-2.399-1.075-2.399-2.399S5.053,3.011,6.378,3.011z"
           id="path256" />
        <path
           fill="#FFFFD9"
           stroke="none"
           d="M6.374,3.035c1.308,0,2.368,1.06,2.368,2.368s-1.06,2.368-2.368,2.368      s-2.368-1.06-2.368-2.368S5.065,3.035,6.374,3.035z"
           id="path257" />
        <path
           fill="#FFFFDA"
           stroke="none"
           d="M6.369,3.059c1.291,0,2.337,1.046,2.337,2.337c0,1.291-1.046,2.337-2.337,2.337      c-1.291,0-2.337-1.046-2.337-2.337C4.032,4.105,5.078,3.059,6.369,3.059z"
           id="path258" />
        <path
           fill="#FFFFDC"
           stroke="none"
           d="M6.364,3.083c1.273,0,2.306,1.033,2.306,2.306c0,1.274-1.033,2.307-2.306,2.307      c-1.274,0-2.306-1.033-2.306-2.307C4.058,4.115,5.09,3.083,6.364,3.083z"
           id="path259" />
        <path
           fill="#FFFFDD"
           stroke="none"
           d="M6.359,3.106c1.257,0,2.275,1.019,2.275,2.275c0,1.256-1.019,2.275-2.275,2.275      S4.084,6.638,4.084,5.382C4.084,4.125,5.103,3.106,6.359,3.106z"
           id="path260" />
        <path
           fill="#FFFFDF"
           stroke="none"
           d="M6.354,3.13c1.24,0,2.245,1.005,2.245,2.244c0,1.24-1.005,2.245-2.245,2.245      c-1.239,0-2.244-1.005-2.244-2.245C4.11,4.135,5.115,3.13,6.354,3.13z"
           id="path261" />
        <path
           fill="#FFFFE1"
           stroke="none"
           d="M6.35,3.154c1.223,0,2.214,0.991,2.214,2.214c0,1.222-0.991,2.213-2.214,2.213      S4.137,6.59,4.137,5.368S5.127,3.154,6.35,3.154z"
           id="path262" />
        <path
           fill="#FFFFE2"
           stroke="none"
           d="M6.345,3.178c1.206,0,2.183,0.977,2.183,2.183S7.551,7.544,6.345,7.544      c-1.205,0-2.183-0.978-2.183-2.183S5.14,3.178,6.345,3.178z"
           id="path263" />
        <path
           fill="#FFFFE4"
           stroke="none"
           d="M6.341,3.202c1.188,0,2.152,0.963,2.152,2.152S7.53,7.506,6.341,7.506      c-1.188,0-2.152-0.963-2.152-2.152S5.152,3.202,6.341,3.202z"
           id="path264" />
        <path
           fill="#FFFFE5"
           stroke="none"
           d="M6.336,3.226c1.171,0,2.121,0.949,2.121,2.121S7.508,7.468,6.336,7.468      c-1.171,0-2.121-0.95-2.121-2.121S5.165,3.226,6.336,3.226z"
           id="path265" />
        <path
           fill="#FFFFE7"
           stroke="none"
           d="M6.332,3.25c1.154,0,2.09,0.936,2.09,2.09s-0.936,2.09-2.09,2.09s-2.09-0.936-2.09-2.09      S5.177,3.25,6.332,3.25z"
           id="path266" />
        <path
           fill="#FFFFE8"
           stroke="none"
           d="M6.327,3.274c1.138,0,2.059,0.922,2.059,2.059S7.464,7.392,6.327,7.392      c-1.137,0-2.059-0.922-2.059-2.059C4.268,4.195,5.189,3.274,6.327,3.274z"
           id="path267" />
        <path
           fill="#FFFFEA"
           stroke="none"
           d="M6.322,3.298c1.12,0,2.028,0.908,2.028,2.028c0,1.121-0.908,2.029-2.028,2.029      S4.294,6.446,4.294,5.326C4.294,4.206,5.202,3.298,6.322,3.298z"
           id="path268" />
        <path
           fill="#FFFFEB"
           stroke="none"
           d="M6.317,3.322c1.104,0,1.998,0.894,1.998,1.997c0,1.104-0.894,1.998-1.998,1.998      c-1.103,0-1.997-0.894-1.997-1.998C4.32,4.216,5.214,3.322,6.317,3.322z"
           id="path269" />
        <path
           fill="#FFFFED"
           stroke="none"
           d="M6.313,3.346c1.086,0,1.966,0.88,1.966,1.966s-0.88,1.967-1.966,1.967      S4.347,6.398,4.347,5.312S5.227,3.346,6.313,3.346z"
           id="path270" />
        <path
           fill="#FFFFEE"
           stroke="none"
           d="M6.308,3.369c1.069,0,1.936,0.867,1.936,1.936c0,1.069-0.867,1.936-1.936,1.936      S4.373,6.374,4.373,5.305C4.373,4.236,5.239,3.369,6.308,3.369z"
           id="path271" />
        <path
           fill="#FFFFF0"
           stroke="none"
           d="M6.304,3.394c1.052,0,1.904,0.853,1.904,1.904c0,1.052-0.853,1.905-1.904,1.905      S4.399,6.35,4.399,5.298C4.399,4.246,5.251,3.394,6.304,3.394z"
           id="path272" />
        <path
           fill="#FFFFF1"
           stroke="none"
           d="M6.299,3.417c1.035,0,1.874,0.839,1.874,1.874S7.333,7.165,6.299,7.165      S4.425,6.326,4.425,5.291S5.264,3.417,6.299,3.417z"
           id="path273" />
        <path
           fill="#FFFFF3"
           stroke="none"
           d="M6.294,3.441c1.018,0,1.843,0.825,1.843,1.843c0,1.018-0.825,1.843-1.843,1.843      c-1.018,0-1.843-0.825-1.843-1.843C4.452,4.266,5.276,3.441,6.294,3.441z"
           id="path274" />
        <path
           fill="#FFFFF4"
           stroke="none"
           d="M6.29,3.465c1,0,1.812,0.811,1.812,1.812c0,1.001-0.811,1.812-1.812,1.812      S4.478,6.277,4.478,5.277S5.289,3.465,6.29,3.465z"
           id="path275" />
        <path
           fill="#FFFFF6"
           stroke="none"
           d="M6.285,3.489c0.983,0,1.781,0.797,1.781,1.781S7.269,7.051,6.285,7.051      c-0.984,0-1.781-0.797-1.781-1.781C4.504,4.287,5.301,3.489,6.285,3.489z"
           id="path276" />
        <path
           fill="#FFFFF7"
           stroke="none"
           d="M6.28,3.513c0.967,0,1.75,0.783,1.75,1.75c0,0.966-0.784,1.75-1.75,1.75      s-1.75-0.784-1.75-1.75C4.53,4.296,5.314,3.513,6.28,3.513z"
           id="path277" />
        <path
           fill="#FFFFF9"
           stroke="none"
           d="M6.275,3.537c0.95,0,1.72,0.77,1.72,1.719c0,0.95-0.77,1.719-1.72,1.719      c-0.949,0-1.719-0.77-1.719-1.719C4.557,4.307,5.326,3.537,6.275,3.537z"
           id="path278" />
        <path
           fill="#FFFFFA"
           stroke="none"
           d="M6.271,3.561c0.932,0,1.688,0.756,1.688,1.688c0,0.933-0.756,1.688-1.688,1.688      c-0.933,0-1.688-0.756-1.688-1.688C4.583,4.317,5.338,3.561,6.271,3.561z"
           id="path279" />
        <path
           fill="#FFFFFC"
           stroke="none"
           d="M6.266,3.585c0.916,0,1.658,0.742,1.658,1.657S7.182,6.9,6.266,6.9      c-0.915,0-1.657-0.742-1.657-1.658S5.351,3.585,6.266,3.585z"
           id="path280" />
        <path
           fill="#FFFFFD"
           stroke="none"
           d="M6.262,3.609c0.898,0,1.626,0.728,1.626,1.626S7.16,6.862,6.262,6.862      S4.635,6.134,4.635,5.235S5.363,3.609,6.262,3.609z"
           id="path281" />
        <path
           fill="#FFFFFF"
           stroke="none"
           d="M4.662,5.228c0-0.881,0.714-1.596,1.595-1.596c0.882,0,1.596,0.714,1.596,1.596      S7.139,6.824,6.257,6.824C5.376,6.824,4.662,6.109,4.662,5.228z"
           id="path282" />
      </g>
      <path
         opacity="0.2"
         stroke="none"
         d="M18.957,21.553H8.024v3.051h10.933V21.553z"
         id="path283" />
      <path
         stroke="none"
         d="M6.198,22.596v-0.224H5.905v0.224c0,1.126,0.931,2.008,2.119,2.008s2.119-0.882,2.119-2.008v-0.224H9.85     v0.224"
         id="path284" />
      <g
         a:adobe-blending-mode="multiply"
         id="g285">
        <radialGradient
           id="XMLID_1_"
           cx="-242.7334"
           cy="372.248"
           r="8.8744"
           fx="-242.7334"
           fy="372.248"
           gradientTransform="matrix(1 0 0 -1 251.3643 385.5234)"
           gradientUnits="userSpaceOnUse">
          <stop
             offset="0.0223"
             style="stop-color:#FFFF00"
             id="stop287" />
          <stop
             offset="0.3669"
             style="stop-color:#FFDE00"
             id="stop288" />
          <stop
             offset="1"
             style="stop-color:#FF9901"
             id="stop289" />
          
          
          
          
          
        </radialGradient>
        <path
           a:adobe-blending-mode="normal"
           fill="url(#XMLID_1_)"
           stroke="none"
           d="M2.183,12.9c0.657,0.775,1.466,1.419,2.382,1.882      v6.421c0,1.124,1.532,2.034,3.422,2.034c1.891,0,3.423-0.91,3.423-2.034v-6.421c2.05-1.035,3.565-2.971,4.031-5.287      C12.75,13.402,8.05,16.395,2.183,12.9z"
           id="path295" />
      </g>
      <g
         id="g296">
        <linearGradient
           id="XMLID_2_"
           gradientUnits="userSpaceOnUse"
           x1="-246.7988"
           y1="365.7529"
           x2="-239.9541"
           y2="365.7529"
           gradientTransform="matrix(1 0 0 -1 251.3643 385.5234)">
          <stop
             offset="0.0223"
             style="stop-color:#C2C2C2"
             id="stop298" />
          <stop
             offset="0.3855"
             style="stop-color:#FFFFFF"
             id="stop299" />
          <stop
             offset="1"
             style="stop-color:#000000"
             id="stop300" />
          
          
          
          
          
        </linearGradient>
        <path
           fill="url(#XMLID_2_)"
           stroke="none"
           d="M4.565,16.359c0,1.124,1.533,2.034,3.422,2.034c1.89,0,3.422-0.91,3.422-2.034      v4.787c0,1.123-1.532,2.034-3.422,2.034c-1.89,0-3.422-0.911-3.422-2.034V16.359z"
           id="path306" />
      </g>
      <path
         stroke="none"
         d="M15.976,7.987C15.976,3.583,12.393,0,7.988,0S0,3.583,0,7.987c0,2.654,1.313,5.124,3.514,6.615     c0.719,0.595,0.674,1.273,0.671,1.302L4.184,15.92l0,0.02v5.262c0,1.354,1.671,2.416,3.804,2.416s3.803-1.062,3.803-2.416v-5.262     v-0.02l-0.001-0.016c-0.003-0.028-0.048-0.707,0.671-1.302C14.662,13.111,15.976,10.642,15.976,7.987z M12.01,13.988     l-0.016,0.011l-0.015,0.012c-0.972,0.802-0.961,1.766-0.95,1.94v5.25c0,0.896-1.393,1.652-3.041,1.652s-3.041-0.756-3.041-1.652     v-5.25c0.01-0.175,0.021-1.139-0.951-1.94l-0.015-0.012l-0.016-0.011c-2.006-1.347-3.203-3.59-3.203-6.001     c0-3.984,3.241-7.225,7.225-7.225s7.225,3.241,7.225,7.225C15.213,10.398,14.016,12.641,12.01,13.988z"
         id="path307" />
      <g
         a:adobe-blending-mode="multiply"
         id="g308">
        <radialGradient
           id="XMLID_3_"
           cx="-243.3354"
           cy="379.3838"
           r="1.731"
           fx="-243.3354"
           fy="379.3838"
           gradientTransform="matrix(1 0 0 -1 251.3643 385.5234)"
           gradientUnits="userSpaceOnUse">
          <stop
             offset="0.0223"
             style="stop-color:#FFFF00"
             id="stop310" />
          <stop
             offset="0.3669"
             style="stop-color:#FFDE00"
             id="stop311" />
          <stop
             offset="1"
             style="stop-color:#FF9901"
             id="stop312" />
          
          
          
          
          
        </radialGradient>
        <path
           a:adobe-blending-mode="normal"
           fill="url(#XMLID_3_)"
           stroke="none"
           d="M8.074,6.546c0.292,0,0.5,0.069,0.635,0.212      C8.99,7.056,8.954,7.675,8.924,8.172L8.907,8.59c0,0.561-0.958,0.762-0.967,0.764l-0.206,0.04l0,0.21v8.561h0.509      c0,0,0-7.99,0-8.364c0.384-0.115,1.174-0.443,1.174-1.21l0.016-0.389c0.01-0.17,0.021-0.353,0.021-0.537      c0-0.459-0.066-0.929-0.374-1.256C8.846,6.162,8.508,6.037,8.074,6.037V6.546z"
           id="path318" />
      </g>
      <g
         a:adobe-blending-mode="multiply"
         opacity="0.5"
         id="g319">
        <radialGradient
           id="XMLID_4_"
           cx="-241.2847"
           cy="371.4824"
           r="1.8461"
           fx="-241.2847"
           fy="371.4824"
           gradientTransform="matrix(1 0 0 -1 251.3643 385.5234)"
           gradientUnits="userSpaceOnUse">
          <stop
             offset="0.0223"
             style="stop-color:#FFFF00"
             id="stop321" />
          <stop
             offset="0.3669"
             style="stop-color:#FFDE00"
             id="stop322" />
          <stop
             offset="1"
             style="stop-color:#FF9901"
             id="stop323" />
          
          
          
          
          
        </radialGradient>
        <path
           a:adobe-blending-mode="normal"
           fill="url(#XMLID_4_)"
           stroke="none"
           d="M9.268,14.922v3.243h0.917      c0,0-0.285-2.937,0.636-3.908C10.055,14.973,9.268,14.922,9.268,14.922z"
           id="path329" />
      </g>
      <g
         a:adobe-blending-mode="multiply"
         id="g330">
        <radialGradient
           id="XMLID_5_"
           cx="-245.5308"
           cy="375.3057"
           r="3.5727"
           fx="-245.5308"
           fy="375.3057"
           gradientTransform="matrix(1 0 0 -1 251.3643 385.5234)"
           gradientUnits="userSpaceOnUse">
          <stop
             offset="0.0223"
             style="stop-color:#FFFF00"
             id="stop332" />
          <stop
             offset="0.3669"
             style="stop-color:#FFDE00"
             id="stop333" />
          <stop
             offset="1"
             style="stop-color:#FF9901"
             id="stop334" />
          
          
          
          
          
        </radialGradient>
        <path
           a:adobe-blending-mode="normal"
           fill="url(#XMLID_5_)"
           stroke="none"
           d="M6.915,6.409C6.483,6.867,6.526,7.607,6.561,8.202      l0.016,0.389c0,0.99,1.325,1.253,1.381,1.264l0.095-0.5c-0.01-0.002-0.967-0.204-0.967-0.764L7.069,8.172      C7.04,7.675,7.003,7.057,7.285,6.758c0.135-0.143,0.342-0.212,0.635-0.212V6.038C7.485,6.037,7.147,6.163,6.915,6.409z"
           id="path340" />
      </g>
      <path
         fill="#FFFF99"
         stroke="none"
         d="M5.208,13.969c1.985,2.139,1.005,4.26,1.005,4.26h1.017v-4.953     C7.231,13.275,4.743,13.468,5.208,13.969z"
         id="path341" />
      <g
         id="g342">
        <path
           stroke="none"
           d="M11.156,19.306v0.254c0,0.965-1.451,1.78-3.168,1.78c-1.717,0-3.168-0.815-3.168-1.78v-0.254H4.311v0.254      c0,1.283,1.615,2.288,3.677,2.288s3.677-1.005,3.677-2.288v-0.254H11.156z"
           id="path343" />
        <path
           stroke="none"
           d="M11.156,17.719v0.254c0,0.965-1.451,1.779-3.168,1.779c-1.717,0-3.168-0.814-3.168-1.779v-0.254H4.311      v0.254c0,1.283,1.615,2.288,3.677,2.288s3.677-1.005,3.677-2.288v-0.254H11.156z"
           id="path344" />
        <path
           stroke="none"
           d="M11.156,16.131v0.255c0,0.965-1.451,1.779-3.168,1.779c-1.717,0-3.168-0.814-3.168-1.779v-0.255H4.311      v0.255c0,1.283,1.615,2.288,3.677,2.288s3.677-1.005,3.677-2.288v-0.255H11.156z"
           id="path345" />
      </g>
    </g>
  </g>
</svg>
