<?xml version="1.0" encoding="UTF-8" standalone="no"?>
<!DOCTYPE svg PUBLIC "-//W3C//DTD SVG 20010904//EN"
"http://www.w3.org/TR/2001/REC-SVG-20010904/DTD/svg10.dtd">
<!-- Created with Sodipodi ("http://www.sodipodi.com/") -->
<svg
   id="svg1"
   sodipodi:version="0.32"
   inkscape:version="0.38.1"
   width="48.000000pt"
   height="48.000000pt"
   sodipodi:docbase="/home/supertux/Desktop"
   sodipodi:docname="gnome-dev-cdrom-audio.svg"
   xmlns="http://www.w3.org/2000/svg"
   xmlns:inkscape="http://www.inkscape.org/namespaces/inkscape"
   xmlns:sodipodi="http://sodipodi.sourceforge.net/DTD/sodipodi-0.dtd"
   xmlns:xlink="http://www.w3.org/1999/xlink">
  <defs
     id="defs3">
    <linearGradient
       id="linearGradient855">
      <stop
         style="stop-color:#ffffff;stop-opacity:1.0000000;"
         offset="0.0000000"
         id="stop856" />
      <stop
         style="stop-color:#acabaa;stop-opacity:0.99607843;"
         offset="0.50000000"
         id="stop869" />
      <stop
         style="stop-color:#5a5856;stop-opacity:0.99607843;"
         offset="1.0000000"
         id="stop857" />
    </linearGradient>
    <linearGradient
       id="linearGradient1188">
      <stop
         style="stop-color:#ffffff;stop-opacity:1.0000000;"
         offset="0.0000000"
         id="stop1189" />
      <stop
         style="stop-color:#c2bfbf;stop-opacity:0.99607843;"
         offset="1.0000000"
         id="stop1190" />
    </linearGradient>
    <linearGradient
       id="linearGradient831">
      <stop
         style="stop-color:#94897f;stop-opacity:1.0000000;"
         offset="0.0000000"
         id="stop832" />
      <stop
         style="stop-color:#fff5fe;stop-opacity:1.0000000;"
         offset="1.0000000"
         id="stop833" />
    </linearGradient>
    <linearGradient
       xlink:href="#linearGradient1188"
       id="linearGradient834"
       x1="0.87550199"
       y1="0.34817815"
       x2="-0.29317269"
       y2="0.93522269"
       gradientUnits="objectBoundingBox"
       spreadMethod="pad" />
    <radialGradient
       xlink:href="#linearGradient1188"
       id="radialGradient835"
       r="0.55628061"
       fy="0.28125"
       fx="0.59090906"
       cy="0.28125"
       cx="0.59090906"
       spreadMethod="pad" />
    <linearGradient
       xlink:href="#linearGradient1188"
       id="linearGradient893"
       x1="0.12793733"
       y1="0.76923078"
       x2="0.49608356"
       y2="0.70850199" />
    <linearGradient
       xlink:href="#linearGradient855"
       id="linearGradient625"
       x1="0.035955057"
       y1="1.0276498"
       x2="0.053932585"
       y2="-0.35944700" />
    <linearGradient
       xlink:href="#linearGradient1188"
       id="linearGradient627"
       x1="1.2826855"
       y1="0.12550607"
       x2="-0.15547703"
       y2="0.96356273" />
    <radialGradient
       xlink:href="#linearGradient1188"
       id="radialGradient628"
       r="1.59822237"
       fy="0.4866707"
       fx="0.36789617"
       cy="0.4866707"
       cx="0.36789617"
       gradientTransform="scale(0.877379,1.139758)" />
    <linearGradient
       xlink:href="#linearGradient1188"
       id="linearGradient628"
       x1="0.76923078"
       y1="0.14979757"
       x2="0.41909814"
       y2="0.73279351" />
    <defs
       id="defs604">
      <linearGradient
         id="linearGradient622">
        <stop
           style="stop-color:#f8e29d;stop-opacity:0.4471;"
           offset="0"
           id="stop623" />
        <stop
           style="stop-color:#272d2d;stop-opacity:0.4784;"
           offset="1"
           id="stop624" />
      </linearGradient>
      <linearGradient
         id="linearGradient617">
        <stop
           style="stop-color:#ffffff;stop-opacity:1;"
           offset="0"
           id="stop618" />
        <stop
           style="stop-color:#000000;stop-opacity:1;"
           offset="1"
           id="stop619" />
      </linearGradient>
      <linearGradient
         id="linearGradient613">
        <stop
           style="stop-color:#ffffff;stop-opacity:0.6235;"
           offset="0"
           id="stop614" />
        <stop
           style="stop-color:#5d6567;stop-opacity:1;"
           offset="1"
           id="stop615" />
      </linearGradient>
      <linearGradient
         id="linearGradient607">
        <stop
           style="stop-color:#d7d5d5;stop-opacity:1;"
           offset="0"
           id="stop608" />
        <stop
           style="stop-color:#000000;stop-opacity:0.4039;"
           offset="1"
           id="stop609" />
      </linearGradient>
      <radialGradient
         xlink:href="#linearGradient607"
         id="radialGradient610"
         cx="1.4287461"
         cy="0.75323397"
         r="0.85534656"
         fx="1.4287461"
         fy="0.75323397"
         gradientTransform="matrix(1,2.268336e-6,-1.975559e-5,1,5.713033e-8,3.856326e-8)" />
      <linearGradient
         xlink:href="#linearGradient617"
         id="linearGradient612"
         x1="-0.26619732"
         y1="-0.2180935"
         x2="1.07717049"
         y2="1.20107734"
         gradientTransform="matrix(1,-1.054768e-5,-2.212897e-8,1,6.882726e-9,-4.703892e-9)" />
      <radialGradient
         xlink:href="#linearGradient613"
         id="radialGradient616"
         cx="0.99938017"
         cy="1.1736089"
         r="1.10986722"
         fx="0.99938017"
         fy="1.1736089"
         gradientTransform="matrix(1.000001,1.020568e-7,2.121713e-5,0.999999,3.963748e-8,-1.000117e-8)" />
      <linearGradient
         xlink:href="#linearGradient617"
         id="linearGradient621" />
      <linearGradient
         xlink:href="#linearGradient617"
         id="linearGradient626"
         x1="72.0602036"
         y1="55.1614342"
         x2="32.4089966"
         y2="12.1269455"
         gradientTransform="matrix(0.995134,-1.068631e-5,-1.31398e-7,1.00489,-5.887359e-7,1.594126e-7)"
         gradientUnits="userSpaceOnUse" />
      <linearGradient
         xlink:href="#linearGradient607"
         id="linearGradient687"
         x1="1.22036803"
         y1="1.05203915"
         x2="-0.73790783"
         y2="-7.41785839e-2"
         gradientTransform="matrix(1,2.268336e-6,-1.975559e-5,1,5.713033e-8,3.856326e-8)" />
      <linearGradient
         xlink:href="#linearGradient617"
         id="linearGradient742"
         x1="-7.43783855"
         y1="25.9237137"
         x2="18.0097446"
         y2="10.089797"
         gradientTransform="scale(0.889853,1.123781)" />
    </defs>
    <sodipodi:namedview
       id="namedview872" />
  </defs>
  <sodipodi:namedview
     id="base"
     pagecolor="#ffffff"
     bordercolor="#666666"
     borderopacity="1.0"
     inkscape:pageopacity="0.0"
     inkscape:pageshadow="2"
     inkscape:zoom="3.4732669"
     inkscape:cx="50.051177"
     inkscape:cy="18.096983"
     inkscape:window-width="507"
     inkscape:window-height="500"
     showguides="false"
     snaptoguides="false"
     showgrid="false"
     snaptogrid="false"
     inkscape:window-x="512"
     inkscape:window-y="223">
    <sodipodi:guide
       orientation="vertical"
       position="28.705556"
       id="guide879" />
    <sodipodi:guide
       orientation="horizontal"
       position="30.130655"
       id="guide880" />
  </sodipodi:namedview>
  <path
     sodipodi:type="arc"
     style="fill:#555a57;fill-opacity:0.46739131;fill-rule:evenodd;stroke-width:3.0000000pt;"
     id="path913"
     sodipodi:cx="29.871014"
     sodipodi:cy="47.583736"
     sodipodi:rx="21.953396"
     sodipodi:ry="6.6579967"
     d="M 51.824409 47.583736 A 21.953396 6.6579967 0 1 0 7.9176178,47.583736 A 21.953396 6.6579967 0 1 0 51.824409 47.583736 z"
     transform="matrix(0.918033,0.000000,0.000000,0.405405,6.407253,31.53205)" />
  <g
     id="g907"
     transform="matrix(0.690739,0.000000,0.000000,0.693423,3.849393,3.200608)">
    <path
       style="font-size:12.000000;fill-rule:evenodd;stroke:#000000;stroke-width:0.13126707;"
       d="M 36.868770,5.8223250 C 19.570290,5.8223250 5.5429069,19.986839 5.5429069,37.439551 C 5.5429069,54.892273 19.570290,69.056798 36.868770,69.056788 C 54.167240,69.056788 68.227295,54.892273 68.227295,37.439551 C 68.227295,19.986839 54.167240,5.8223240 36.868770,5.8223250 z M 36.117478,29.955606 C 40.637955,29.955606 44.316424,33.670119 44.316424,38.230811 C 44.316424,42.791513 40.637955,46.473053 36.117478,46.473053 C 31.596982,46.473053 27.951191,42.791513 27.951191,38.230811 C 27.951191,33.670119 31.596982,29.955606 36.117478,29.955606 z "
       id="path1191" />
    <path
       style="font-size:12.000000;fill:#ddd9d9;stroke:#000000;stroke-width:0.78640574;"
       d="M 36.261552,20.114745 C 26.518810,20.114745 18.618400,27.961777 18.618400,37.630432 C 18.618400,47.299106 26.518810,55.146138 36.261552,55.146138 C 46.004295,55.146138 53.923095,47.299106 53.923095,37.630432 C 53.923095,27.961777 46.004295,20.114745 36.261552,20.114745 z M 35.838409,33.484394 C 38.384404,33.484394 40.456166,35.542196 40.456166,38.068784 C 40.456166,40.595372 38.384404,42.634924 35.838409,42.634924 C 33.292414,42.634924 31.239044,40.595372 31.239044,38.068784 C 31.239044,35.542196 33.292414,33.484394 35.838409,33.484394 z "
       id="path1187" />
    <path
       style="fill:url(#linearGradient834);fill-rule:evenodd;stroke:#000000;stroke-width:0.75000000;"
       d="M 36.69503 7.343556 C 20.14596 7.343556 6.726278 20.76956 6.726278 37.31231 C 6.726278 53.85506 20.14596 67.28106 36.69503 67.28106 C 53.24409 67.28106 66.69503 53.85506 66.69503 37.31231 C 66.69503 20.76956 53.24409 7.343555 36.69503 7.343556 z M 35.97628 30.21856 C 40.30092 30.21856 43.82003 33.7394 43.82003 38.06231 C 43.82003 42.38522 40.30092 45.87481 35.97628 45.87481 C 31.65163 45.87481 28.16378 42.38522 28.16378 38.06231 C 28.16378 33.73941 31.65163 30.21856 35.97628 30.21856 z "
       id="path1176" />
    <path
       style="fill:url(#linearGradient893);fill-opacity:0.75000000;fill-rule:evenodd;stroke-width:3.0000000pt;"
       d="M 44.614316,38.626639 C 42.547589,45.266383 39.011690,45.827170 37.086055,46.336134 C 34.975154,46.336135 32.615682,46.123735 30.846963,44.959416 L 20.133964,61.516314 C 25.143122,64.813759 30.226162,66.350002 36.204411,66.350003 C 52.468671,66.350003 65.687500,53.008701 65.687500,36.573235 L 44.614316,38.626639 z "
       id="path882"
       sodipodi:nodetypes="ccccccc" />
    <path
       style="fill:url(#linearGradient628);fill-rule:evenodd;stroke-width:0.37500000;"
       d="M 38.579229,30.373560 C 42.597658,31.555730 45.180150,34.955110 44.023110,39.057510 L 28.380512,34.680413 C 29.537542,30.578023 34.560791,29.191400 38.579229,30.373560 z M 45.369660,8.8619500 C 29.992346,4.3381900 13.038863,12.959060 8.6111433,28.657930 L 65.224275,45.502540 C 69.651982,29.803680 60.746953,13.385700 45.369660,8.8619500 z "
       id="path626"
       sodipodi:nodetypes="cccccccc" />
  </g>
  <path
     style="font-size:12.000000;fill-rule:evenodd;stroke:#000000;stroke-width:0.37500000;stroke-linejoin:round;"
     d="M 44.069444,5.8514322 L 37.060594,16.045013 C 33.506484,8.9499392 31.121384,14.982613 32.209324,18.168313 C 33.464064,20.475963 34.858004,22.669473 37.258104,18.848593 L 43.164004,10.690093 L 46.278384,12.899353 L 48.789214,10.470483 L 44.069444,5.8514322 z "
     id="path735"
     sodipodi:nodetypes="cccccccc" />
  <path
     style="font-size:12.000000;fill-rule:evenodd;stroke:#000000;stroke-width:0.12500000;stroke-linejoin:round;"
     d="M 13.028039,27.194658 L 11.872299,39.387118 C 4.3172785,36.155228 5.3808275,42.272428 8.2695685,44.040028 C 10.824709,45.029638 13.452999,45.844888 13.661159,41.416228 L 14.879939,31.473268 L 19.222719,31.228588 L 20.331629,27.799488 L 13.028039,27.194658 z "
     id="path736"
     sodipodi:nodetypes="cccccccc" />
  <g
     id="g914"
     transform="translate(5.398376,1.439567)">
    <path
       style="font-size:12.000000;fill-rule:evenodd;stroke:#000000;stroke-width:0.12496313;stroke-linejoin:round;"
       d="M 5.3959473,6.4788074 L 8.7092077,16.394760 C 1.2543781,15.804529 4.2915322,20.353462 7.3286812,20.998604 C 9.8136363,21.116652 12.298582,21.078207 10.918050,17.531323 L 8.4471778,9.3732352 L 15.801329,7.1093596 L 14.695821,4.1173190 L 5.3959473,6.4788074 z "
       id="path734"
       sodipodi:nodetypes="cccccccc" />
    <path
       style="font-size:12.000000;fill-rule:evenodd;stroke:#000000;stroke-width:0.12496300;stroke-linejoin:round;"
       d="M 13.757799,4.3102373 L 17.526559,14.226194 C 10.071729,13.635954 13.108879,18.184894 16.146029,18.830034 C 18.630989,18.948084 21.115929,18.909634 19.735399,15.362754 L 16.353559,3.5337333 L 13.757799,4.3102373 z "
       id="path738"
       sodipodi:nodetypes="cccccc" />
  </g>
</svg>
