<?xml version="1.0" encoding="UTF-8" standalone="no"?>
<svg
   xmlns:dc="http://purl.org/dc/elements/1.1/"
   xmlns:cc="http://creativecommons.org/ns#"
   xmlns:rdf="http://www.w3.org/1999/02/22-rdf-syntax-ns#"
   xmlns:svg="http://www.w3.org/2000/svg"
   xmlns="http://www.w3.org/2000/svg"
   xmlns:xlink="http://www.w3.org/1999/xlink"
   xmlns:sodipodi="http://sodipodi.sourceforge.net/DTD/sodipodi-0.dtd"
   xmlns:inkscape="http://www.inkscape.org/namespaces/inkscape"
   version="1.1"
   width="64"
   height="64"
   color-interpolation="linearRGB"
   id="svg2"
   sodipodi:version="0.32"
   inkscape:version="0.46"
   sodipodi:docname="user-info.svg"
   inkscape:output_extension="org.inkscape.output.svg.inkscape">
  <metadata
     id="metadata61">
    <rdf:RDF>
      <cc:Work
         rdf:about="">
        <dc:format>image/svg+xml</dc:format>
        <dc:type
           rdf:resource="http://purl.org/dc/dcmitype/StillImage" />
      </cc:Work>
    </rdf:RDF>
  </metadata>
  <defs
     id="defs59">
    <inkscape:perspective
       sodipodi:type="inkscape:persp3d"
       inkscape:vp_x="0 : 32 : 1"
       inkscape:vp_y="0 : 1000 : 0"
       inkscape:vp_z="64 : 32 : 1"
       inkscape:persp3d-origin="32 : 21.333333 : 1"
       id="perspective63" />
    <inkscape:perspective
       id="perspective2518"
       inkscape:persp3d-origin="32 : 21.333333 : 1"
       inkscape:vp_z="64 : 32 : 1"
       inkscape:vp_y="0 : 1000 : 0"
       inkscape:vp_x="0 : 32 : 1"
       sodipodi:type="inkscape:persp3d" />
    <linearGradient
       inkscape:collect="always"
       xlink:href="#gradient0"
       id="linearGradient2581"
       gradientUnits="userSpaceOnUse"
       x1="73.74"
       y1="-57.07"
       x2="116.61"
       y2="-8.05" />
    <linearGradient
       inkscape:collect="always"
       xlink:href="#gradient1"
       id="linearGradient2583"
       gradientUnits="userSpaceOnUse"
       x1="-43.97"
       y1="-38.98"
       x2="-24.83"
       y2="-56.95" />
    <linearGradient
       inkscape:collect="always"
       xlink:href="#gradient2"
       id="linearGradient2585"
       gradientUnits="userSpaceOnUse"
       x1="54.23"
       y1="-52.61"
       x2="75.84"
       y2="-45.97" />
    <linearGradient
       inkscape:collect="always"
       xlink:href="#gradient3"
       id="linearGradient2587"
       gradientUnits="userSpaceOnUse"
       x1="25.92"
       y1="-64"
       x2="36.07"
       y2="-64" />
    <radialGradient
       inkscape:collect="always"
       xlink:href="#gradient4"
       id="radialGradient2589"
       gradientUnits="userSpaceOnUse"
       gradientTransform="matrix(0.1736,0,0,0.1696,22.625,6.375)"
       cx="0"
       cy="0"
       r="64" />
    <linearGradient
       inkscape:collect="always"
       xlink:href="#gradient5"
       id="linearGradient2591"
       gradientUnits="userSpaceOnUse"
       x1="54.23"
       y1="-52.61"
       x2="75.84"
       y2="-45.97" />
    <inkscape:perspective
       id="perspective2549"
       inkscape:persp3d-origin="32 : 21.333333 : 1"
       inkscape:vp_z="64 : 32 : 1"
       inkscape:vp_y="0 : 1000 : 0"
       inkscape:vp_x="0 : 32 : 1"
       sodipodi:type="inkscape:persp3d" />
    <linearGradient
       inkscape:collect="always"
       xlink:href="#linearGradient2578"
       id="linearGradient2611"
       gradientUnits="userSpaceOnUse"
       x1="54.23"
       y1="-52.610001"
       x2="75.839996"
       y2="-45.970001" />
    <linearGradient
       inkscape:collect="always"
       xlink:href="#linearGradient2584"
       id="linearGradient2613"
       gradientUnits="userSpaceOnUse"
       x1="25.92"
       y1="-64"
       x2="36.07"
       y2="-64" />
    <radialGradient
       inkscape:collect="always"
       xlink:href="#radialGradient2602"
       id="radialGradient2619"
       gradientUnits="userSpaceOnUse"
       gradientTransform="matrix(0.3125,0,0,0.3044048,30,44.810917)"
       cx="-45.387421"
       cy="-139.2567"
       r="64"
       fx="-45.387421"
       fy="-139.2567" />
    <radialGradient
       inkscape:collect="always"
       xlink:href="#radialGradient2597"
       id="radialGradient3391"
       cx="16.447405"
       cy="6.8717027"
       fx="16.447405"
       fy="6.8717027"
       r="9.772543"
       gradientTransform="matrix(1.8518906,-9.1334338e-8,1.3939296e-7,2.8257476,-14.01139,-17.129206)"
       gradientUnits="userSpaceOnUse" />
    <linearGradient
       inkscape:collect="always"
       xlink:href="#linearGradient2584"
       id="linearGradient3393"
       x1="16"
       y1="3.866215"
       x2="5.0161843"
       y2="5.7162457"
       gradientUnits="userSpaceOnUse" />
    <radialGradient
       inkscape:collect="always"
       xlink:href="#radialGradient2566"
       id="radialGradient3397"
       cx="17.502813"
       cy="46.847355"
       fx="17.502813"
       fy="46.847355"
       r="6"
       gradientTransform="matrix(4.8239367,0.2467875,-0.1489891,2.912278,-58.236169,-101.46466)"
       gradientUnits="userSpaceOnUse" />
    <radialGradient
       inkscape:collect="always"
       xlink:href="#radialGradient2555"
       id="radialGradient3399"
       cx="17.281443"
       cy="43.621319"
       fx="17.281443"
       fy="43.621319"
       r="3.5"
       gradientTransform="matrix(8.2412823,0.4680707,-0.2466795,4.3432558,-113.66076,-159.80184)"
       gradientUnits="userSpaceOnUse" />
  </defs>
  <sodipodi:namedview
     inkscape:window-height="832"
     inkscape:window-width="1011"
     inkscape:pageshadow="2"
     inkscape:pageopacity="0.0"
     guidetolerance="10.0"
     gridtolerance="10.0"
     objecttolerance="10.0"
     borderopacity="1.0"
     bordercolor="#666666"
     pagecolor="#ffffff"
     id="base"
     showgrid="false"
     inkscape:zoom="7.28125"
     inkscape:cx="38.750986"
     inkscape:cy="37.209713"
     inkscape:window-x="663"
     inkscape:window-y="166"
     inkscape:current-layer="svg2" />
  <g
     id="g4"
     transform="translate(-10.575107,-0.1373391)">
    <path
       style="fill:#010101;fill-opacity:0.41170002"
       d="M 26,63 C 26,63 31,63 36,63 C 41,63 46.2,59.96 50.75,60.12 C 61.12,60.5 64.25,56.37 57.87,54.37 C 54.04,53.17 50,55 46,53 C 44,52 34,52 34,52 L 34,56 L 26,63 z"
       id="path6" />
    <path
       style="fill:none;stroke:#000000;stroke-width:4"
       d="M 14,16 L 14,35 L 16,37 L 16,57 L 20,59 L 22,59 L 22,60 L 26,62 L 32,56 L 32,39 L 34,37 L 34,18 L 21,12 L 14,16 z"
       id="path8" />
    <linearGradient
       id="gradient0"
       gradientUnits="userSpaceOnUse"
       x1="73.739998"
       y1="-57.07"
       x2="116.61"
       y2="-8.0500002">
      <stop
         offset="0"
         stop-color="#ffdb97"
         id="stop11" />
      <stop
         offset="1"
         stop-color="#fcaf29"
         id="stop13" />
    </linearGradient>
    <path
       style="fill:url(#linearGradient2581)"
       d="M 14,16 L 14,34 L 16,37 L 16,57 L 20,59 L 22,59 L 22,60 L 26,62 L 26,42 L 28,42 L 28,22 L 14,16 z"
       id="path15" />
    <linearGradient
       id="gradient1"
       gradientUnits="userSpaceOnUse"
       x1="-43.970001"
       y1="-38.98"
       x2="-24.83"
       y2="-56.950001">
      <stop
         offset="0"
         stop-color="#fff7ea"
         id="stop18" />
      <stop
         offset="0.9962"
         stop-color="#fdd17b"
         id="stop20" />
    </linearGradient>
    <path
       style="fill:url(#linearGradient2583)"
       d="M 14,16 L 28,22 L 34,18 L 22,16 L 25.99,13.99 L 21,12 L 14,16 z"
       id="path22" />
    <linearGradient
       id="gradient2"
       gradientUnits="userSpaceOnUse"
       x1="54.23"
       y1="-52.610001"
       x2="75.839996"
       y2="-45.970001">
      <stop
         offset="0"
         stop-color="#c85805"
         id="stop25" />
      <stop
         offset="1"
         stop-color="#f06306"
         id="stop27" />
    </linearGradient>
    <path
       style="fill:url(#linearGradient2585)"
       d="M 28,42 L 26,42 L 26,62 L 32,56 L 32,39 L 34,37 L 34,18 L 28,22 L 28,42 z"
       id="path29" />
    <path
       style="fill:#a32904"
       d="M 26,42 L 26,48 L 32,39 L 28,42 L 26,42 z"
       id="path31" />
    <linearGradient
       id="gradient3"
       gradientUnits="userSpaceOnUse"
       x1="25.92"
       y1="-64"
       x2="36.07"
       y2="-64">
      <stop
         offset="0"
         stop-color="#c85804"
         id="stop34" />
      <stop
         offset="1"
         stop-color="#dc952f"
         id="stop36" />
    </linearGradient>
    <path
       style="fill:url(#linearGradient2587)"
       d="M 22,16 L 34,18 L 26,14 L 22,16 z"
       id="path38" />
    <path
       style="fill:none;stroke:#000000;stroke-width:4"
       d="M 24,2 C 21,2 18,5 18,8 C 18,11 21,14 24,14 C 27,14 30,11 30,8 C 30,5 27,2 24,2 z"
       id="path40" />
    <radialGradient
       id="gradient4"
       gradientUnits="userSpaceOnUse"
       cx="0"
       cy="0"
       r="64"
       gradientTransform="matrix(0.1736,0,0,0.1696,22.625,6.375)">
      <stop
         offset="0"
         stop-color="#f2f2f2"
         id="stop43" />
      <stop
         offset="1"
         stop-color="#bca184"
         id="stop45" />
      <stop
         offset="0.6742"
         stop-color="#7d7a7a"
         id="stop47" />
    </radialGradient>
    <path
       style="fill:url(#radialGradient2589)"
       d="M 24,2 C 21,2 18,5 18,8 C 18,11 21,14 24,14 C 27,14 30,11 30,8 C 30,5 27,2 24,2 z"
       id="path49" />
    <linearGradient
       id="gradient5"
       gradientUnits="userSpaceOnUse"
       x1="54.23"
       y1="-52.610001"
       x2="75.839996"
       y2="-45.970001">
      <stop
         offset="0"
         stop-color="#c85805"
         id="stop52" />
      <stop
         offset="1"
         stop-color="#f06306"
         id="stop54" />
    </linearGradient>
    <path
       style="fill:url(#linearGradient2591)"
       d="M 20,59 L 22,59 L 22,42 L 20,41 L 20,59 z"
       id="path56" />
  </g>
  <g
     id="g2438"
     transform="matrix(0.6268956,0,0,0.6268956,23.664092,2.0600859)">
    <linearGradient
       y2="-34.419998"
       x2="56.75"
       y1="-43.139999"
       x1="25.16"
       gradientUnits="userSpaceOnUse"
       id="linearGradient2524">
      <stop
         id="stop2445"
         stop-color="#227aff"
         offset="0" />
      <stop
         id="stop2447"
         stop-color="#0025e5"
         offset="1" />
    </linearGradient>
    <linearGradient
       y2="-60.169998"
       x2="65.470001"
       y1="-64.5"
       x1="46.77"
       gradientUnits="userSpaceOnUse"
       id="linearGradient2529">
      <stop
         id="stop2452"
         stop-color="#000081"
         offset="0" />
      <stop
         id="stop2454"
         stop-color="#0909b7"
         offset="1" />
    </linearGradient>
    <linearGradient
       y2="-60.169998"
       x2="65.470001"
       y1="-64.5"
       x1="46.77"
       gradientUnits="userSpaceOnUse"
       id="linearGradient2534">
      <stop
         id="stop2459"
         stop-color="#000081"
         offset="0" />
      <stop
         id="stop2461"
         stop-color="#0909b7"
         offset="1" />
    </linearGradient>
    <linearGradient
       y2="31.35"
       x2="29.9"
       y1="37.580002"
       x1="17.32"
       gradientUnits="userSpaceOnUse"
       id="linearGradient2539">
      <stop
         id="stop2466"
         stop-color="#050ec5"
         offset="0" />
      <stop
         id="stop2468"
         stop-color="#062fe3"
         offset="1" />
    </linearGradient>
    <linearGradient
       y2="10.9"
       x2="12.76"
       y1="21.52"
       x1="-8.6300001"
       gradientUnits="userSpaceOnUse"
       id="linearGradient2544">
      <stop
         id="stop2473"
         stop-color="#67b5ff"
         offset="0" />
      <stop
         id="stop2475"
         stop-color="#3b79f6"
         offset="1" />
    </linearGradient>
    <linearGradient
       y2="10.9"
       x2="12.76"
       y1="21.52"
       x1="-8.6300001"
       gradientUnits="userSpaceOnUse"
       id="linearGradient2549">
      <stop
         id="stop2480"
         stop-color="#67b5ff"
         offset="0" />
      <stop
         id="stop2482"
         stop-color="#3b79f6"
         offset="1" />
    </linearGradient>
    <radialGradient
       gradientTransform="matrix(0.3125,0,0,0.1406,30,22)"
       r="64"
       cy="0"
       cx="0"
       gradientUnits="userSpaceOnUse"
       id="gradient6">
      <stop
         id="stop2487"
         stop-color="#0530d1"
         offset="0" />
      <stop
         id="stop2489"
         stop-color="#67b5ff"
         offset="1" />
    </radialGradient>
    <radialGradient
       gradientTransform="matrix(0.2031,0,0,0.2031,19,9.43)"
       r="64"
       cy="0"
       cx="0"
       gradientUnits="userSpaceOnUse"
       id="gradient7">
      <stop
         id="stop2496"
         stop-color="#3787ff"
         offset="0" />
      <stop
         id="stop2498"
         stop-color="#1b76ff"
         offset="0.3369" />
      <stop
         id="stop2500"
         stop-color="#031d8c"
         offset="1" />
      <stop
         id="stop2502"
         stop-color="#000081"
         offset="0.8586" />
    </radialGradient>
    <radialGradient
       gradientTransform="matrix(5.27e-2,0,0,-5.27e-2,19,9)"
       r="64"
       cy="0"
       cx="0"
       gradientUnits="userSpaceOnUse"
       id="gradient8">
      <stop
         id="stop2507"
         stop-color="#ffffff"
         offset="0" />
      <stop
         id="stop2509"
         stop-color="#3787ff"
         offset="1" />
    </radialGradient>
  </g>
  <g
     id="g2465"
     transform="matrix(0.8908331,0,0,0.8908331,17.878673,6.1133758)">
    <path
       id="path2467"
       transform="translate(-1,0)"
       d="M 19,53 C 19,53 19,59 25,59 C 25,59 27,61 31,61 L 34,61 C 34,61 34,62 35,62 L 44,62 C 48,62 52,58.6 52,54.54 C 52,50.48 48,47 44,47 L 35,47 C 35,47 34,47 34,48 L 32,48"
       style="fill:#000000;fill-opacity:0.4" />
    <path
       id="path2469"
       transform="translate(-1,0)"
       d="M 18,42 L 18,50 C 18,53.07 21.26,56 25,56 C 28.73,56 32,53.07 32,50 L 32,42"
       style="fill:none;stroke:#000000;stroke-width:4" />
    <radialGradient
       gradientTransform="matrix(0.4218,0,0,0.2656,18,39)"
       r="64"
       cy="0"
       cx="0"
       gradientUnits="userSpaceOnUse"
       id="radialGradient2555">
      <stop
         id="stop2472"
         stop-color="#eff3f7"
         offset="0.3516" />
      <stop
         id="stop2474"
         stop-color="#aaadb2"
         offset="0.4945" />
      <stop
         id="stop2476"
         stop-color="#eff3f7"
         offset="0.619" />
      <stop
         id="stop2478"
         stop-color="#aaadb2"
         offset="0.7509" />
      <stop
         id="stop2561"
         stop-color="#eff3f7"
         offset="0.8901" />
      <stop
         id="stop2563"
         stop-color="#aaadb2"
         offset="1" />
    </radialGradient>
    <path
       id="path2484"
       transform="translate(-1,0)"
       d="M 18,42 L 18,50 C 18,53.07 21.26,56 25,56 C 25,56 20,52 20,42"
       style="fill:url(#radialGradient3399);fill-opacity:1" />
    <radialGradient
       gradientTransform="matrix(0.4218,0,0,0.2656,18,39)"
       r="64"
       cy="0"
       cx="0"
       gradientUnits="userSpaceOnUse"
       id="radialGradient2566">
      <stop
         id="stop2568"
         stop-color="#c5c9cc"
         offset="0.3516" />
      <stop
         id="stop2570"
         stop-color="#555659"
         offset="0.4945" />
      <stop
         id="stop2491"
         stop-color="#c5c9cc"
         offset="0.619" />
      <stop
         id="stop2493"
         stop-color="#555659"
         offset="0.7509" />
      <stop
         id="stop2495"
         stop-color="#c5c9cc"
         offset="0.8901" />
      <stop
         id="stop2497"
         stop-color="#555659"
         offset="1" />
    </radialGradient>
    <path
       id="path2499"
       transform="translate(-1,0)"
       d="M 20,42 C 20,52 25,56 25,56 C 28.73,56 32,53.07 32,50 L 32,42"
       style="fill:url(#radialGradient3397);fill-opacity:1" />
    <path
       id="path2501"
       transform="translate(-1,0)"
       d="M 16,36 L 18,43 C 19,45 22,46 25,46 C 28,46 31,45 32,43 L 34,36 M 16,32 L 16,36 C 18,41 23.28,41 25,41 C 26.71,41 33,41 34,36 L 34,32 M 19,27 C 19,27 16,30 16,32 C 16,34 19.39,36 25,36 C 30.6,36 34,34 34,32 C 34,30 31,27 31,27 C 31,27 28.08,26 25,26 C 22.08,26 19,27 19,27 z"
       style="fill:none;stroke:#000000;stroke-width:4" />
    <linearGradient
       y2="-65"
       x2="32"
       y1="-65"
       x1="16"
       gradientUnits="userSpaceOnUse"
       id="linearGradient2578">
      <stop
         id="stop2504"
         stop-color="#fff9e6"
         offset="0" />
      <stop
         id="stop2506"
         stop-color="#999282"
         offset="1" />
    </linearGradient>
    <path
       id="path2508"
       d="M 16,36 L 18,43 C 19,45 22,46 25,46 C 28,46 31,45 32,43 L 34,36"
       style="fill:url(#linearGradient2611);fill-opacity:1.0"
       transform="translate(-1,0)" />
    <linearGradient
       y2="-63"
       x2="30"
       y1="-63"
       x1="16"
       gradientUnits="userSpaceOnUse"
       id="linearGradient2584">
      <stop
         id="stop2511"
         stop-color="#f9f7ed"
         offset="0" />
      <stop
         id="stop2513"
         stop-color="#b2a998"
         offset="1" />
    </linearGradient>
    <path
       id="path2515"
       transform="translate(-1,0)"
       d="M 16,32 L 16,36 C 18,41 23.28,41 25,41 C 26.71,41 33,41 34,36 L 34,32"
       style="fill:url(#linearGradient2613);fill-opacity:1.0" />
    <linearGradient
       y2="9.8800001"
       x2="7.79"
       y1="5.54"
       x1="16.59"
       gradientUnits="userSpaceOnUse"
       id="linearGradient2589">
      <stop
         id="stop2518"
         stop-color="#fcfbf7"
         offset="1" />
      <stop
         id="stop2520"
         stop-color="#ccc1ad"
         offset="0" />
    </linearGradient>
    <path
       id="path2522"
       transform="translate(-1,0)"
       d="M 19,27 C 19,27 16,30 16,32 C 16,34 19.39,36 25,36 C 30.6,36 34,34 34,32 C 34,30 31,27 31,27 C 31,27 28.08,26 25,26 C 22.08,26 19,27 19,27 z"
       style="fill:url(#linearGradient3393);fill-opacity:1" />
    <path
       id="path2524"
       transform="translate(-1,0)"
       d="M 18.96,28.92 C 18.96,30 21.79,31 24.99,31 C 28.19,31 30.96,30 30.96,28.92 C 30.96,27.85 28.19,27 24.99,27 C 21.79,27 18.96,27.85 18.96,28.92 z"
       style="fill:#807a6d" />
    <path
       id="path2526"
       transform="translate(-1,0)"
       d="M 33,7 C 31,5 17,1 17,5 M 16,9 C 16,5 31,9 33,11 M 16,13 C 16,8 31,13 33,16 M 27,30 C 27,29 27,23 29,24 C 31,25 35,22 33,19 C 31,16 16,11 16,17 M 16,22 C 16,19 20,20 21,21 C 22,22 22,28 22,28"
       style="fill:none;stroke:#000000;stroke-width:6" />
    <path
       id="path2528"
       transform="translate(-1,0)"
       d="M 16,9 C 16,11.09 23.89,10.2 25,10 C 26.04,9.8 34,7 33,6 C 31,4 17,8 17,5 M 16,13 C 16,17 39,14 33,7 M 16,17 C 16,21 39,18 33,11 M 16,22 C 16,26 39,23 33,15"
       style="fill:none;stroke:#000000;stroke-width:6" />
    <radialGradient
       gradientTransform="matrix(0.2968,0,0,0.3593,16,3)"
       r="64"
       cy="0"
       cx="0"
       gradientUnits="userSpaceOnUse"
       id="radialGradient2597">
      <stop
         id="stop2531"
         stop-color="#dadee5"
         offset="0" />
      <stop
         id="stop2533"
         stop-color="#98a1b2"
         offset="1" />
    </radialGradient>
    <path
       id="path2535"
       transform="translate(-1,0)"
       d="M 33,7 C 31,5 17,1 17,5 M 16,9 C 16,5 31,9 33,11 M 16,13 C 16,8 31,13 33,16 M 27,30 C 27,29 27,23 29,24 C 31,25 35,22 33,19 C 31,16 16,11 16,17 M 16,22 C 16,19 20,20 21,21 C 22,22 22,28 22,28"
       style="fill:none;stroke:url(#radialGradient3391);stroke-width:2" />
    <radialGradient
       gradientTransform="matrix(0.2968,0,0,0.3437,16,3)"
       r="64"
       cy="0"
       cx="0"
       gradientUnits="userSpaceOnUse"
       id="radialGradient2602">
      <stop
         id="stop2538"
         stop-color="#ffffff"
         offset="0.4908" />
      <stop
         id="stop2540"
         stop-color="#e7efff"
         offset="1" />
    </radialGradient>
    <path
       id="path2542"
       transform="translate(-1,0)"
       d="M 16,9 C 16,11.09 23.89,10.2 25,10 C 26.04,9.8 34,7 33,6 C 31,4 17,8 17,5 M 16,13 C 16,17 39,14 33,7 M 16,17 C 16,21 39,18 33,11 M 16,22 C 16,26 39,23 33,15"
       style="fill:none;stroke:url(#radialGradient2619);stroke-width:2" />
  </g>
</svg>
