<?xml version="1.0" encoding="UTF-8" standalone="no"?>
<!-- Created with Inkscape (http://www.inkscape.org/) -->
<svg
   xmlns:dc="http://purl.org/dc/elements/1.1/"
   xmlns:cc="http://creativecommons.org/ns#"
   xmlns:rdf="http://www.w3.org/1999/02/22-rdf-syntax-ns#"
   xmlns:svg="http://www.w3.org/2000/svg"
   xmlns="http://www.w3.org/2000/svg"
   xmlns:xlink="http://www.w3.org/1999/xlink"
   xmlns:sodipodi="http://sodipodi.sourceforge.net/DTD/sodipodi-0.dtd"
   xmlns:inkscape="http://www.inkscape.org/namespaces/inkscape"
   width="48"
   height="48"
   id="svg2"
   sodipodi:version="0.32"
   inkscape:version="0.46"
   sodipodi:docbase="/home/dobey/Projects/gnome-icon-theme/scalable/devices"
   sodipodi:docname="input-tablet.svg"
   version="1.0"
   inkscape:output_extension="org.inkscape.output.svg.inkscape"
   inkscape:export-filename="/home/needcoffee/Desktop/grafiktablet48.png"
   inkscape:export-xdpi="90"
   inkscape:export-ydpi="90">
  <defs
     id="defs4">
    <inkscape:perspective
       sodipodi:type="inkscape:persp3d"
       inkscape:vp_x="0 : 24 : 1"
       inkscape:vp_y="0 : 1000 : 0"
       inkscape:vp_z="48 : 24 : 1"
       inkscape:persp3d-origin="24 : 16 : 1"
       id="perspective60" />
    <linearGradient
       id="linearGradient5717">
      <stop
         style="stop-color:#ffffff;stop-opacity:1;"
         offset="0"
         id="stop5719" />
      <stop
         style="stop-color:#d3d3d3;stop-opacity:1;"
         offset="1"
         id="stop5721" />
    </linearGradient>
    <linearGradient
       id="linearGradient49731">
      <stop
         style="stop-color:#000000;stop-opacity:0;"
         offset="0"
         id="stop49733" />
      <stop
         id="stop51687"
         offset="1"
         style="stop-color:#000000;stop-opacity:1;" />
      <stop
         style="stop-color:#000000;stop-opacity:1;"
         offset="1"
         id="stop49735" />
    </linearGradient>
    <linearGradient
       id="linearGradient23236">
      <stop
         style="stop-color:#ffffff;stop-opacity:1;"
         offset="0"
         id="stop23238" />
      <stop
         style="stop-color:#babdb6;stop-opacity:1;"
         offset="1"
         id="stop23240" />
    </linearGradient>
    <linearGradient
       id="linearGradient16397">
      <stop
         style="stop-color:#888a85;stop-opacity:1;"
         offset="0"
         id="stop16399" />
      <stop
         style="stop-color:#4a4b48;stop-opacity:1;"
         offset="1"
         id="stop16401" />
    </linearGradient>
    <linearGradient
       id="linearGradient9508">
      <stop
         style="stop-color:#2e3436;stop-opacity:0.58152175;"
         offset="0"
         id="stop9510" />
      <stop
         style="stop-color:#2e3436;stop-opacity:0;"
         offset="1"
         id="stop9512" />
    </linearGradient>
    <linearGradient
       id="linearGradient4625">
      <stop
         style="stop-color:#eeeeec;stop-opacity:1;"
         offset="0"
         id="stop4627" />
      <stop
         style="stop-color:#888a85;stop-opacity:1;"
         offset="1"
         id="stop4629" />
    </linearGradient>
    <linearGradient
       id="linearGradient3648">
      <stop
         style="stop-color:#eeeeec;stop-opacity:1;"
         offset="0"
         id="stop3650" />
      <stop
         id="stop26236"
         offset="0.79710144"
         style="stop-color:#abaca9;stop-opacity:1;" />
      <stop
         style="stop-color:#d3d7cf;stop-opacity:1;"
         offset="1"
         id="stop3652" />
    </linearGradient>
    <radialGradient
       inkscape:collect="always"
       xlink:href="#linearGradient5717"
       id="radialGradient4658"
       gradientUnits="userSpaceOnUse"
       gradientTransform="matrix(2.4615467,-1.0699271,0.7998114,1.8528198,-21.204988,5.9018902)"
       cx="7.6711912"
       cy="15.00725"
       fx="7.6711912"
       fy="15.00725"
       r="19.769346" />
    <linearGradient
       inkscape:collect="always"
       xlink:href="#linearGradient23236"
       id="linearGradient4661"
       gradientUnits="userSpaceOnUse"
       gradientTransform="matrix(1.0206415,0,0,0.8416288,0.4990254,7.9398705)"
       x1="2.4415672"
       y1="37.205902"
       x2="2.4415672"
       y2="43" />
    <radialGradient
       inkscape:collect="always"
       xlink:href="#linearGradient49731"
       id="radialGradient4667"
       gradientUnits="userSpaceOnUse"
       gradientTransform="matrix(0.113791,0.6773045,-0.4679608,4.7182104e-3,14.144529,6.6142105)"
       cx="6.5998492"
       cy="1.8850985"
       fx="6.5998492"
       fy="1.8850985"
       r="11.58128" />
    <linearGradient
       y2="19.440001"
       x2="114.6"
       y1="3.1800001"
       x1="114.68"
       gradientUnits="userSpaceOnUse"
       id="linearGradient3269"
       xlink:href="#gradient6"
       inkscape:collect="always" />
    <linearGradient
       y2="14.09"
       x2="69.230003"
       y1="1.9"
       x1="69.230003"
       gradientUnits="userSpaceOnUse"
       id="linearGradient3267"
       xlink:href="#gradient5"
       inkscape:collect="always" />
    <linearGradient
       y2="47.369999"
       x2="124.48"
       y1="27.639999"
       x1="129.35001"
       gradientUnits="userSpaceOnUse"
       id="linearGradient3265"
       xlink:href="#gradient4"
       inkscape:collect="always" />
    <linearGradient
       y2="-64"
       x2="52.25"
       y1="-64"
       x1="19.74"
       gradientUnits="userSpaceOnUse"
       id="linearGradient3263"
       xlink:href="#gradient3"
       inkscape:collect="always" />
    <linearGradient
       y2="-64"
       x2="63.41"
       y1="-64"
       x1="10.58"
       gradientUnits="userSpaceOnUse"
       id="linearGradient3261"
       xlink:href="#gradient2"
       inkscape:collect="always" />
    <linearGradient
       y2="21.77"
       x2="40.389999"
       y1="9.8199997"
       x1="43.049999"
       gradientUnits="userSpaceOnUse"
       id="linearGradient3259"
       xlink:href="#gradient1"
       inkscape:collect="always" />
    <linearGradient
       y2="-64"
       x2="46.220001"
       y1="-64"
       x1="17.77"
       gradientUnits="userSpaceOnUse"
       id="linearGradient3257"
       xlink:href="#gradient0"
       inkscape:collect="always" />
    <inkscape:perspective
       id="perspective68"
       inkscape:persp3d-origin="32 : 21.333333 : 1"
       inkscape:vp_z="64 : 32 : 1"
       inkscape:vp_y="0 : 1000 : 0"
       inkscape:vp_x="0 : 32 : 1"
       sodipodi:type="inkscape:persp3d" />
  </defs>
  <sodipodi:namedview
     id="base"
     pagecolor="#ffffff"
     bordercolor="#666666"
     borderopacity="1.0"
     inkscape:pageopacity="0.0"
     inkscape:pageshadow="2"
     inkscape:zoom="8"
     inkscape:cx="14.621616"
     inkscape:cy="20.855078"
     inkscape:document-units="px"
     inkscape:current-layer="layer1"
     inkscape:window-width="872"
     inkscape:window-height="902"
     inkscape:window-x="400"
     inkscape:window-y="96"
     inkscape:showpageshadow="false"
     width="48px"
     height="48px"
     showgrid="false"
     inkscape:grid-points="true"
     gridtolerance="1.4">
    <inkscape:grid
       id="GridFromPre046Settings"
       type="xygrid"
       originx="0px"
       originy="0px"
       spacingx="0.5px"
       spacingy="0.5px"
       color="#0000ff"
       empcolor="#0000ff"
       opacity="0.2"
       empopacity="0.4"
       empspacing="5" />
  </sodipodi:namedview>
  <metadata
     id="metadata7">
    <rdf:RDF>
      <cc:Work
         rdf:about="">
        <dc:format>image/svg+xml</dc:format>
        <dc:type
           rdf:resource="http://purl.org/dc/dcmitype/StillImage" />
        <dc:title>Graphic tablet</dc:title>
        <cc:license
           rdf:resource="http://creativecommons.org/licenses/GPL/2.0/" />
        <dc:creator>
          <cc:Agent>
            <dc:title>Sebastien Kraft</dc:title>
          </cc:Agent>
        </dc:creator>
        <dc:subject>
          <rdf:Bag>
            <rdf:li>tablet</rdf:li>
            <rdf:li>pen</rdf:li>
            <rdf:li>input</rdf:li>
            <rdf:li>stylus</rdf:li>
          </rdf:Bag>
        </dc:subject>
      </cc:Work>
      <cc:License
         rdf:about="http://creativecommons.org/licenses/GPL/2.0/">
        <cc:permits
           rdf:resource="http://web.resource.org/cc/Reproduction" />
        <cc:permits
           rdf:resource="http://web.resource.org/cc/Distribution" />
        <cc:requires
           rdf:resource="http://web.resource.org/cc/Notice" />
        <cc:permits
           rdf:resource="http://web.resource.org/cc/DerivativeWorks" />
        <cc:requires
           rdf:resource="http://web.resource.org/cc/ShareAlike" />
        <cc:requires
           rdf:resource="http://web.resource.org/cc/SourceCode" />
      </cc:License>
    </rdf:RDF>
  </metadata>
  <g
     inkscape:label="Ebene 1"
     inkscape:groupmode="layer"
     id="layer1">
    <path
       style="fill:none;fill-rule:evenodd;stroke:url(#radialGradient4667);stroke-width:0.99999994px;stroke-linecap:round;stroke-linejoin:round;stroke-opacity:1"
       d="M 13.91719,11.500001 C 11.738325,13.671032 28.288808,15.425275 29.441611,16.927577 C 32.396831,20.778743 13.808426,19.231703 10.240354,21.196732 C 5.5555129,23.067939 16.91313,22.897913 16.913132,26.522237"
       id="path46799"
       sodipodi:nodetypes="cscc" />
    <path
       style="fill:url(#linearGradient4661);fill-opacity:1;stroke:none;stroke-width:1;stroke-linecap:round;stroke-linejoin:round;stroke-miterlimit:4;stroke-dasharray:none;stroke-dashoffset:0;stroke-opacity:1"
       d="M 12.448317,25.50009 L 37.030206,25.50009 C 37.030206,25.50009 37.823486,25.470418 38.262762,26.516464 C 38.262762,26.516464 44.055001,41.756232 44.386612,42.576578 C 44.700323,43.352646 43.587961,44.053197 42.595917,44.053197 L 6.8826065,44.053197 C 5.8905618,44.053197 4.7782002,43.352646 5.0919123,42.576578 C 5.4235223,41.756232 11.215761,26.516464 11.215761,26.516464 C 11.508612,25.591162 12.448317,25.50009 12.448317,25.50009 z "
       id="rect2676"
       sodipodi:nodetypes="ccccccccc" />
    <path
       sodipodi:nodetypes="ccccccccc"
       id="path4736"
       d="M 12.448317,25.50009 L 37.030206,25.50009 C 37.030206,25.50009 37.823486,25.470418 38.262762,26.516464 C 38.262762,26.516464 44.055001,41.756232 44.386612,42.576578 C 44.700323,43.352646 43.587961,44.053197 42.595917,44.053197 L 6.8826065,44.053197 C 5.8905618,44.053197 4.7782002,43.352646 5.0919123,42.576578 C 5.4235223,41.756232 11.215761,26.516464 11.215761,26.516464 C 11.508612,25.591162 12.448317,25.50009 12.448317,25.50009 z "
       style="opacity:0.5;fill:url(#radialGradient4658);fill-opacity:1;stroke:none;stroke-width:1;stroke-linecap:round;stroke-linejoin:round;stroke-miterlimit:4;stroke-dasharray:none;stroke-dashoffset:0;stroke-opacity:1" />
    <path
       sodipodi:nodetypes="ccccccccc"
       id="path7556"
       d="M 12.50006,25.520005 L 36.915824,25.520005 C 36.915824,25.520005 37.823486,25.724022 38.262762,26.755792 C 38.262762,26.755792 44.055001,41.787582 44.386612,42.596733 C 44.700323,43.36221 43.887239,44.500008 42.895195,44.500008 L 6.5206893,44.500008 C 5.5286448,44.500008 4.7782001,43.36221 5.0919123,42.596733 C 5.4235223,41.787582 11.215761,26.755792 11.215761,26.755792 C 11.508612,25.843118 12.50006,25.520005 12.50006,25.520005 z "
       style="fill:none;fill-opacity:1;stroke:#000000;stroke-width:1.03999983999999990;stroke-linecap:round;stroke-linejoin:round;stroke-miterlimit:4;stroke-dasharray:none;stroke-dashoffset:0;stroke-opacity:1" />
    <path
       style="fill:none;fill-opacity:1;stroke:#000000;stroke-width:0.79999995000000002;stroke-linecap:round;stroke-linejoin:round;stroke-miterlimit:4;stroke-dasharray:none;stroke-dashoffset:0;stroke-opacity:1"
       d="M 14.493184,28.485226 L 34.42442,28.485226 C 34.42442,28.485226 35.033532,28.471117 35.367676,29.099048 C 35.367675,29.099047 38.979365,37.989263 39.223628,38.466125 C 39.454709,38.917252 38.630464,39.327655 37.899724,39.327655 L 11.587102,39.327655 C 10.856361,39.327655 10.032115,38.917252 10.263196,38.466125 C 10.50746,37.989263 13.549927,29.099048 13.549927,29.099048 C 13.772689,28.543597 14.493184,28.485226 14.493184,28.485226 z "
       id="path41909"
       sodipodi:nodetypes="ccssccscc" />
    <g
       id="g2764"
       transform="matrix(1.1396241,0,0,1.1157384,-2.2076279,-0.6365627)">
      <path
         style="fill:none;fill-opacity:1;stroke:#ffffff;stroke-width:0.88682508;stroke-linecap:round;stroke-linejoin:round;stroke-miterlimit:4;stroke-dashoffset:0;stroke-opacity:1"
         d="M 33.436616,19.110318 L 40.984536,9.7841254 C 41.574218,9.0555166 41.504717,8.5083326 41.203064,8.2242188 L 39.816138,6.9179343 C 39.514485,6.6338207 39.108572,6.7332326 38.51889,7.4618419 L 30.97097,16.788034 L 33.436616,19.110318 z "
         id="path12478"
         sodipodi:nodetypes="ccccccc" />
      <path
         id="path10496"
         d="M 22.054788,29.952381 C 21.935958,30.099207 21.949979,30.322407 22.086082,30.450597 C 22.222186,30.578787 22.429088,30.563663 22.547917,30.416838 L 22.978458,29.884862 L 22.485328,29.420406 L 22.054788,29.952381 z "
         style="color:#000000;fill:#eeeeec;fill-opacity:1;fill-rule:evenodd;stroke:none;stroke-width:1px;stroke-linecap:butt;stroke-linejoin:miter;marker:none;marker-start:none;marker-mid:none;marker-end:none;stroke-miterlimit:4;stroke-dashoffset:0;stroke-opacity:1;visibility:visible;display:inline;overflow:visible;enable-background:accumulate" />
    </g>
    <g
       transform="matrix(0.4544124,-0.5980526,0.5980526,0.4544124,13.483635,32.192317)"
       id="g4">
      <linearGradient
         y2="-64"
         x2="46.220001"
         y1="-64"
         x1="17.77"
         gradientUnits="userSpaceOnUse"
         id="gradient0">
        <stop
           id="stop9"
           stop-color="#c5b03a"
           offset="0" />
        <stop
           id="stop11"
           stop-color="#e9da71"
           offset="1" />
      </linearGradient>
      <path
         id="path15"
         d="M 17,4 L 51,4 C 51,4 54,5 54,9 C 54,13 51,14 51,14 L 17,14 L 6,9 L 17,4 z M 17.96,4.58 L 16,7 L 16,11 L 17.96,13.41 M 44.96,4.58 C 44.1,5.25 43,6.57 43,9 C 43,11.42 44.1,12.74 44.96,13.41"
         style="fill:none;stroke:#010101;stroke-width:4" />
      <linearGradient
         y2="21.77"
         x2="40.389999"
         y1="9.8199997"
         x1="43.049999"
         gradientUnits="userSpaceOnUse"
         id="gradient1">
        <stop
           id="stop18"
           stop-color="#ffeed5"
           offset="0" />
        <stop
           id="stop20"
           stop-color="#dbab5f"
           offset="0.553" />
        <stop
           id="stop22"
           stop-color="#ffeed5"
           offset="0.8143" />
      </linearGradient>
      <path
         id="path24"
         d="M 17,4 L 14.37,6.76 L 14.37,11.23 L 17,14 L 8.69,9.84 L 8.74,8.12 L 17,4 z"
         style="fill:url(#linearGradient3259)" />
      <linearGradient
         y2="-64"
         x2="63.41"
         y1="-64"
         x1="10.58"
         gradientUnits="userSpaceOnUse"
         id="gradient2">
        <stop
           id="stop27"
           stop-color="#ffeaba"
           offset="0" />
        <stop
           id="stop29"
           stop-color="#fff6e3"
           offset="1" />
      </linearGradient>
      <path
         id="path31"
         d="M 19,4 L 16.09,6.84 L 42,7 L 45,4 L 19,4 z"
         style="fill:url(#linearGradient3261)" />
      <linearGradient
         y2="-64"
         x2="52.25"
         y1="-64"
         x1="19.74"
         gradientUnits="userSpaceOnUse"
         id="gradient3">
        <stop
           id="stop34"
           stop-color="#fbb50d"
           offset="1" />
        <stop
           id="stop36"
           stop-color="#f0ab06"
           offset="0" />
      </linearGradient>
      <path
         id="path38"
         d="M 16.09,6.84 L 16.09,11.15 L 42,11 L 42,7 L 16.09,6.84 z"
         style="fill:url(#linearGradient3263)" />
      <linearGradient
         y2="47.369999"
         x2="124.48"
         y1="27.639999"
         x1="129.35001"
         gradientUnits="userSpaceOnUse"
         id="gradient4">
        <stop
           id="stop41"
           stop-color="#a52a04"
           offset="0" />
        <stop
           id="stop43"
           stop-color="#fdb44b"
           offset="1" />
      </linearGradient>
      <path
         id="path45"
         d="M 16.09,11.15 L 19,14 L 45,14 L 42,11 L 16.09,11.15 z"
         style="fill:url(#linearGradient3265)" />
      <linearGradient
         y2="14.09"
         x2="69.230003"
         y1="1.9"
         x1="69.230003"
         gradientUnits="userSpaceOnUse"
         id="gradient5">
        <stop
           id="stop48"
           stop-color="#ffeaee"
           offset="0" />
        <stop
           id="stop50"
           stop-color="#d17c8a"
           offset="0.7765" />
        <stop
           id="stop52"
           stop-color="#da9faa"
           offset="1" />
      </linearGradient>
      <path
         id="path54"
         d="M 51,4 C 51,4 48,5 48,9 C 48,13 51,14 51,14 L 47,14 C 47,14 44,13 44,9 C 44,5 47,4 47,4 L 51,4 z"
         style="fill:url(#linearGradient3267)" />
      <linearGradient
         y2="19.440001"
         x2="114.6"
         y1="3.1800001"
         x1="114.68"
         gradientUnits="userSpaceOnUse"
         id="gradient6">
        <stop
           id="stop57"
           stop-color="#ffe3e8"
           offset="0" />
        <stop
           id="stop59"
           stop-color="#f8a1b1"
           offset="1" />
      </linearGradient>
      <path
         id="path61"
         d="M 51,4 C 51,4 54,5 54,9 C 54,13 51,14 51,14 C 51,14 48,13 48,9 C 48,5 51,4 51,4 z"
         style="fill:url(#linearGradient3269)" />
    </g>
  </g>
</svg>
