<?xml version="1.0" encoding="UTF-8" standalone="no"?>
<svg
   xmlns:dc="http://purl.org/dc/elements/1.1/"
   xmlns:cc="http://creativecommons.org/ns#"
   xmlns:rdf="http://www.w3.org/1999/02/22-rdf-syntax-ns#"
   xmlns:svg="http://www.w3.org/2000/svg"
   xmlns="http://www.w3.org/2000/svg"
   xmlns:xlink="http://www.w3.org/1999/xlink"
   xmlns:sodipodi="http://sodipodi.sourceforge.net/DTD/sodipodi-0.dtd"
   xmlns:inkscape="http://www.inkscape.org/namespaces/inkscape"
   version="1.1"
   width="64"
   height="64"
   color-interpolation="linearRGB"
   id="svg2"
   inkscape:version="0.47 r22583"
   sodipodi:docname="leon.svg">
  <metadata
     id="metadata126">
    <rdf:RDF>
      <cc:Work
         rdf:about="">
        <dc:format>image/svg+xml</dc:format>
        <dc:type
           rdf:resource="http://purl.org/dc/dcmitype/StillImage" />
      </cc:Work>
    </rdf:RDF>
  </metadata>
  <defs
     id="defs124">
    <linearGradient
       inkscape:collect="always"
       id="linearGradient4188">
      <stop
         style="stop-color:#000000;stop-opacity:1;"
         offset="0"
         id="stop4190" />
      <stop
         style="stop-color:#000000;stop-opacity:0;"
         offset="1"
         id="stop4192" />
    </linearGradient>
    <linearGradient
       id="linearGradient3956">
      <stop
         style="stop-color:#e5a400;stop-opacity:1;"
         offset="0"
         id="stop3958" />
      <stop
         style="stop-color:#be8900;stop-opacity:1;"
         offset="1"
         id="stop3960" />
    </linearGradient>
    <linearGradient
       id="linearGradient3948">
      <stop
         style="stop-color:#e5a400;stop-opacity:1;"
         offset="0"
         id="stop3950" />
      <stop
         style="stop-color:#b38100;stop-opacity:1;"
         offset="1"
         id="stop3952" />
    </linearGradient>
    <linearGradient
       id="linearGradient3940">
      <stop
         style="stop-color:#824800;stop-opacity:1;"
         offset="0"
         id="stop3942" />
      <stop
         style="stop-color:#f7be14;stop-opacity:1;"
         offset="1"
         id="stop3944" />
    </linearGradient>
    <linearGradient
       id="linearGradient3932">
      <stop
         style="stop-color:#fcb400;stop-opacity:1;"
         offset="0"
         id="stop3934" />
      <stop
         style="stop-color:#cc9200;stop-opacity:1;"
         offset="1"
         id="stop3936" />
    </linearGradient>
    <linearGradient
       id="linearGradient3924">
      <stop
         style="stop-color:#dfbd6a;stop-opacity:1;"
         offset="0"
         id="stop3926" />
      <stop
         style="stop-color:#e5a400;stop-opacity:1;"
         offset="1"
         id="stop3928" />
    </linearGradient>
    <linearGradient
       inkscape:collect="always"
       id="linearGradient3914">
      <stop
         style="stop-color:#d09500;stop-opacity:1;"
         offset="0"
         id="stop3916" />
      <stop
         style="stop-color:#ba8c00;stop-opacity:1;"
         offset="1"
         id="stop3918" />
    </linearGradient>
    <linearGradient
       id="linearGradient3906">
      <stop
         style="stop-color:#e5a400;stop-opacity:1;"
         offset="0"
         id="stop3908" />
      <stop
         style="stop-color:#d09500;stop-opacity:1;"
         offset="1"
         id="stop3910" />
    </linearGradient>
    <inkscape:perspective
       sodipodi:type="inkscape:persp3d"
       inkscape:vp_x="0 : 32 : 1"
       inkscape:vp_y="0 : 1000 : 0"
       inkscape:vp_z="64 : 32 : 1"
       inkscape:persp3d-origin="32 : 21.333333 : 1"
       id="perspective128" />
    <radialGradient
       inkscape:collect="always"
       xlink:href="#gradient0"
       id="radialGradient3022"
       gradientUnits="userSpaceOnUse"
       gradientTransform="matrix(0.7031,0,0,0.7499,19,13)"
       cx="0"
       cy="0"
       r="64" />
    <linearGradient
       inkscape:collect="always"
       xlink:href="#gradient1"
       id="linearGradient3024"
       gradientUnits="userSpaceOnUse"
       x1="21.52"
       y1="-12.88"
       x2="53.86"
       y2="-5.66" />
    <radialGradient
       inkscape:collect="always"
       xlink:href="#gradient2"
       id="radialGradient3026"
       gradientUnits="userSpaceOnUse"
       gradientTransform="matrix(0.7031,0,0,0.7499,19,13)"
       cx="0"
       cy="0"
       r="64" />
    <linearGradient
       inkscape:collect="always"
       xlink:href="#gradient3"
       id="linearGradient3028"
       gradientUnits="userSpaceOnUse"
       x1="42.37"
       y1="-14.97"
       x2="64.49"
       y2="-12.12" />
    <linearGradient
       inkscape:collect="always"
       xlink:href="#gradient4"
       id="linearGradient3030"
       gradientUnits="userSpaceOnUse"
       x1="19.03"
       y1="-15.59"
       x2="40.05"
       y2="-20.72" />
    <linearGradient
       inkscape:collect="always"
       xlink:href="#gradient5"
       id="linearGradient3032"
       gradientUnits="userSpaceOnUse"
       x1="42.37"
       y1="-14.97"
       x2="64.49"
       y2="-12.12" />
    <radialGradient
       inkscape:collect="always"
       xlink:href="#gradient6"
       id="radialGradient3034"
       gradientUnits="userSpaceOnUse"
       gradientTransform="matrix(0.2047,0.1393,-0.3093,0.4543,8.9428,7.1471)"
       cx="0"
       cy="0"
       r="64" />
    <linearGradient
       inkscape:collect="always"
       xlink:href="#gradient7"
       id="linearGradient3036"
       gradientUnits="userSpaceOnUse"
       x1="32.03"
       y1="-0.01"
       x2="41.41"
       y2="9.37" />
    <linearGradient
       inkscape:collect="always"
       xlink:href="#gradient8"
       id="linearGradient3038"
       gradientUnits="userSpaceOnUse"
       x1="26.04"
       y1="16.06"
       x2="47.09"
       y2="36.56" />
    <linearGradient
       inkscape:collect="always"
       xlink:href="#gradient9"
       id="linearGradient3040"
       gradientUnits="userSpaceOnUse"
       x1="49.12"
       y1="26.44"
       x2="50.2"
       y2="40.66" />
    <linearGradient
       inkscape:collect="always"
       xlink:href="#gradient10"
       id="linearGradient3042"
       gradientUnits="userSpaceOnUse"
       x1="71.62"
       y1="-3.78"
       x2="87.81"
       y2="31.31" />
    <linearGradient
       inkscape:collect="always"
       xlink:href="#gradient11"
       id="linearGradient3044"
       gradientUnits="userSpaceOnUse"
       x1="22.89"
       y1="20.74"
       x2="24.62"
       y2="33.09" />
    <radialGradient
       gradientTransform="matrix(0.7031,0,0,0.7499,19,13)"
       r="64"
       cy="0"
       cx="0"
       gradientUnits="userSpaceOnUse"
       id="gradient0">
      <stop
         id="stop11"
         stop-color="#dda771"
         offset="0" />
      <stop
         id="stop13"
         stop-color="#a97644"
         offset="0.9962" />
    </radialGradient>
    <linearGradient
       y2="-5.66"
       x2="53.86"
       y1="-12.88"
       x1="21.52"
       gradientUnits="userSpaceOnUse"
       id="gradient1">
      <stop
         id="stop18"
         stop-color="#875b2f"
         offset="0" />
      <stop
         id="stop20"
         stop-color="#c58a50"
         offset="1" />
      <stop
         id="stop22"
         stop-color="#a97644"
         offset="0.7706" />
    </linearGradient>
    <radialGradient
       gradientTransform="matrix(0.7031,0,0,0.7499,19,13)"
       r="64"
       cy="0"
       cx="0"
       gradientUnits="userSpaceOnUse"
       id="gradient2">
      <stop
         id="stop27"
         stop-color="#dda771"
         offset="0"
         style="stop-color:#d0b600;stop-opacity:1;" />
      <stop
         id="stop29"
         stop-color="#a97644"
         offset="0.99620003"
         style="stop-color:#d09500;stop-opacity:1;" />
    </radialGradient>
    <linearGradient
       y2="-12.12"
       x2="64.49"
       y1="-14.97"
       x1="42.37"
       gradientUnits="userSpaceOnUse"
       id="gradient3">
      <stop
         id="stop36"
         stop-color="#c28d59"
         offset="0" />
      <stop
         id="stop38"
         stop-color="#b6783b"
         offset="1" />
      <stop
         id="stop40"
         stop-color="#a26c38"
         offset="0.8646" />
    </linearGradient>
    <linearGradient
       y2="-20.72"
       x2="40.05"
       y1="-15.59"
       x1="19.03"
       gradientUnits="userSpaceOnUse"
       id="gradient4">
      <stop
         id="stop45"
         stop-color="#f4c597"
         offset="0" />
      <stop
         id="stop47"
         stop-color="#daa470"
         offset="1" />
    </linearGradient>
    <linearGradient
       y2="-12.12"
       x2="64.49"
       y1="-14.97"
       x1="42.37"
       gradientUnits="userSpaceOnUse"
       id="gradient5">
      <stop
         id="stop54"
         stop-color="#c28d59"
         offset="0" />
      <stop
         id="stop56"
         stop-color="#b6783b"
         offset="1" />
      <stop
         id="stop58"
         stop-color="#a26c38"
         offset="0.8646" />
    </linearGradient>
    <radialGradient
       gradientTransform="matrix(0.2047,0.1393,-0.3093,0.4543,8.9428,7.1471)"
       r="64"
       cy="0"
       cx="0"
       gradientUnits="userSpaceOnUse"
       id="gradient6">
      <stop
         id="stop69"
         stop-color="#fdd6ab"
         offset="0" />
      <stop
         id="stop71"
         stop-color="#c48b54"
         offset="1"
         style="stop-color:#e5a400;stop-opacity:1;" />
    </radialGradient>
    <linearGradient
       y2="9.37"
       x2="41.41"
       y1="-0.01"
       x1="32.03"
       gradientUnits="userSpaceOnUse"
       id="gradient7">
      <stop
         id="stop80"
         stop-color="#d4975b"
         offset="0" />
      <stop
         id="stop82"
         stop-color="#a06f40"
         offset="1" />
    </linearGradient>
    <linearGradient
       y2="36.56"
       x2="47.09"
       y1="16.06"
       x1="26.04"
       gradientUnits="userSpaceOnUse"
       id="gradient8">
      <stop
         id="stop93"
         stop-color="#ededed"
         offset="0" />
      <stop
         id="stop95"
         stop-color="#a5a5a5"
         offset="1" />
    </linearGradient>
    <linearGradient
       y2="40.66"
       x2="50.2"
       y1="26.44"
       x1="49.12"
       gradientUnits="userSpaceOnUse"
       id="gradient9">
      <stop
         id="stop102"
         stop-color="#919191"
         offset="0" />
      <stop
         id="stop104"
         stop-color="#b5b5b5"
         offset="1" />
    </linearGradient>
    <linearGradient
       y2="31.31"
       x2="87.81"
       y1="-3.78"
       x1="71.62"
       gradientUnits="userSpaceOnUse"
       id="gradient10">
      <stop
         id="stop109"
         stop-color="#ffffff"
         offset="0" />
      <stop
         id="stop111"
         stop-color="#e9e9e9"
         offset="1" />
    </linearGradient>
    <linearGradient
       y2="33.09"
       x2="24.62"
       y1="20.74"
       x1="22.89"
       gradientUnits="userSpaceOnUse"
       id="gradient11">
      <stop
         id="stop116"
         stop-color="#ffea00"
         offset="0" />
      <stop
         id="stop118"
         stop-color="#ffb830"
         offset="1" />
    </linearGradient>
    <linearGradient
       inkscape:collect="always"
       xlink:href="#gradient11"
       id="linearGradient3086"
       gradientUnits="userSpaceOnUse"
       x1="22.89"
       y1="20.74"
       x2="24.62"
       y2="33.09" />
    <linearGradient
       inkscape:collect="always"
       xlink:href="#gradient10"
       id="linearGradient3089"
       gradientUnits="userSpaceOnUse"
       x1="71.62"
       y1="-3.78"
       x2="87.81"
       y2="31.31" />
    <linearGradient
       inkscape:collect="always"
       xlink:href="#gradient9"
       id="linearGradient3092"
       gradientUnits="userSpaceOnUse"
       x1="49.12"
       y1="26.44"
       x2="50.2"
       y2="40.66" />
    <linearGradient
       inkscape:collect="always"
       xlink:href="#gradient8"
       id="linearGradient3096"
       gradientUnits="userSpaceOnUse"
       x1="26.04"
       y1="16.06"
       x2="47.09"
       y2="36.56" />
    <radialGradient
       inkscape:collect="always"
       xlink:href="#gradient0"
       id="radialGradient3130"
       gradientUnits="userSpaceOnUse"
       gradientTransform="matrix(0.7031,0,0,0.7499,19,13)"
       cx="0"
       cy="0"
       r="64" />
    <radialGradient
       inkscape:collect="always"
       xlink:href="#linearGradient3906"
       id="radialGradient3912"
       cx="31.567797"
       cy="10.126901"
       fx="31.567797"
       fy="10.126901"
       r="14.5"
       gradientTransform="matrix(0.2711864,0.38266232,-1.0583211,0.75001453,33.724553,-8.9382075)"
       gradientUnits="userSpaceOnUse" />
    <linearGradient
       inkscape:collect="always"
       xlink:href="#linearGradient3914"
       id="linearGradient3922"
       x1="33.588474"
       y1="39.5"
       x2="24.736271"
       y2="27.296612"
       gradientUnits="userSpaceOnUse" />
    <radialGradient
       inkscape:collect="always"
       xlink:href="#linearGradient3924"
       id="radialGradient3930"
       cx="12.020452"
       cy="5.3504853"
       fx="12.020452"
       fy="5.3504853"
       r="11.323785"
       gradientTransform="matrix(0.83614369,0.8352749,-2.3341395,2.3365673,14.458406,-17.193611)"
       gradientUnits="userSpaceOnUse" />
    <linearGradient
       inkscape:collect="always"
       xlink:href="#linearGradient3932"
       id="linearGradient3938"
       x1="40"
       y1="27.04"
       x2="59.102041"
       y2="27.04"
       gradientUnits="userSpaceOnUse" />
    <linearGradient
       inkscape:collect="always"
       xlink:href="#linearGradient3940"
       id="linearGradient3946"
       x1="37.35593"
       y1="2.7118645"
       x2="43.729507"
       y2="10.983051"
       gradientUnits="userSpaceOnUse"
       gradientTransform="matrix(0.73667489,0,0,0.73667489,9.4020954,5.0837409)" />
    <linearGradient
       inkscape:collect="always"
       xlink:href="#linearGradient3948"
       id="linearGradient3954"
       x1="47.138645"
       y1="-15.034685"
       x2="63.016949"
       y2="-10.560108"
       gradientUnits="userSpaceOnUse" />
    <linearGradient
       inkscape:collect="always"
       xlink:href="#linearGradient3956"
       id="linearGradient3962"
       x1="31.661016"
       y1="-10.165813"
       x2="51.583729"
       y2="-22.23361"
       gradientUnits="userSpaceOnUse" />
    <linearGradient
       inkscape:collect="always"
       xlink:href="#linearGradient3940"
       id="linearGradient3972"
       gradientUnits="userSpaceOnUse"
       x1="37.35593"
       y1="2.7118645"
       x2="43.729507"
       y2="10.983051" />
    <linearGradient
       inkscape:collect="always"
       xlink:href="#linearGradient3940"
       id="linearGradient3980"
       gradientUnits="userSpaceOnUse"
       x1="37.35593"
       y1="2.7118645"
       x2="43.729507"
       y2="10.983051" />
    <linearGradient
       inkscape:collect="always"
       xlink:href="#linearGradient3940"
       id="linearGradient3988"
       gradientUnits="userSpaceOnUse"
       x1="37.35593"
       y1="2.7118645"
       x2="43.729507"
       y2="10.983051" />
    <linearGradient
       inkscape:collect="always"
       xlink:href="#linearGradient3940"
       id="linearGradient4038"
       gradientUnits="userSpaceOnUse"
       x1="37.35593"
       y1="2.7118645"
       x2="43.729507"
       y2="10.983051" />
    <linearGradient
       inkscape:collect="always"
       xlink:href="#linearGradient3940"
       id="linearGradient4046"
       gradientUnits="userSpaceOnUse"
       x1="37.35593"
       y1="2.7118645"
       x2="43.729507"
       y2="10.983051" />
    <linearGradient
       inkscape:collect="always"
       xlink:href="#linearGradient3940"
       id="linearGradient4054"
       gradientUnits="userSpaceOnUse"
       x1="37.35593"
       y1="2.7118645"
       x2="43.729507"
       y2="10.983051" />
    <linearGradient
       inkscape:collect="always"
       xlink:href="#linearGradient3940"
       id="linearGradient4062"
       gradientUnits="userSpaceOnUse"
       x1="37.35593"
       y1="2.7118645"
       x2="43.729507"
       y2="10.983051" />
    <linearGradient
       inkscape:collect="always"
       xlink:href="#linearGradient3940"
       id="linearGradient4078"
       gradientUnits="userSpaceOnUse"
       x1="37.35593"
       y1="2.7118645"
       x2="43.729507"
       y2="10.983051" />
    <linearGradient
       inkscape:collect="always"
       xlink:href="#linearGradient3940"
       id="linearGradient4086"
       gradientUnits="userSpaceOnUse"
       x1="37.35593"
       y1="2.7118645"
       x2="43.729507"
       y2="10.983051" />
    <linearGradient
       inkscape:collect="always"
       xlink:href="#linearGradient3940"
       id="linearGradient4094"
       gradientUnits="userSpaceOnUse"
       x1="37.35593"
       y1="2.7118645"
       x2="43.729507"
       y2="10.983051" />
    <linearGradient
       inkscape:collect="always"
       xlink:href="#linearGradient3940"
       id="linearGradient4102"
       gradientUnits="userSpaceOnUse"
       x1="37.35593"
       y1="2.7118645"
       x2="43.729507"
       y2="10.983051" />
    <linearGradient
       inkscape:collect="always"
       xlink:href="#linearGradient3940"
       id="linearGradient4110"
       gradientUnits="userSpaceOnUse"
       x1="37.35593"
       y1="2.7118645"
       x2="43.729507"
       y2="10.983051" />
    <linearGradient
       inkscape:collect="always"
       xlink:href="#linearGradient3940"
       id="linearGradient4118"
       gradientUnits="userSpaceOnUse"
       x1="37.35593"
       y1="2.7118645"
       x2="43.729507"
       y2="10.983051" />
    <linearGradient
       inkscape:collect="always"
       xlink:href="#linearGradient3940"
       id="linearGradient4126"
       gradientUnits="userSpaceOnUse"
       x1="37.35593"
       y1="2.7118645"
       x2="43.729507"
       y2="10.983051" />
    <linearGradient
       inkscape:collect="always"
       xlink:href="#linearGradient3940"
       id="linearGradient4134"
       gradientUnits="userSpaceOnUse"
       x1="37.35593"
       y1="2.7118645"
       x2="43.729507"
       y2="10.983051" />
    <linearGradient
       inkscape:collect="always"
       xlink:href="#linearGradient3940"
       id="linearGradient4142"
       gradientUnits="userSpaceOnUse"
       x1="37.35593"
       y1="2.7118645"
       x2="43.729507"
       y2="10.983051" />
    <linearGradient
       inkscape:collect="always"
       xlink:href="#linearGradient3940"
       id="linearGradient4150"
       gradientUnits="userSpaceOnUse"
       x1="37.35593"
       y1="2.7118645"
       x2="43.729507"
       y2="10.983051" />
    <linearGradient
       inkscape:collect="always"
       xlink:href="#linearGradient3940"
       id="linearGradient4153"
       gradientUnits="userSpaceOnUse"
       x1="37.35593"
       y1="2.7118645"
       x2="43.729507"
       y2="10.983051"
       gradientTransform="matrix(-0.58036855,-0.30425124,-0.31390849,0.59879002,37.279691,4.5463834)" />
    <linearGradient
       inkscape:collect="always"
       xlink:href="#linearGradient3940"
       id="linearGradient4162"
       gradientUnits="userSpaceOnUse"
       x1="37.35593"
       y1="2.7118645"
       x2="43.729507"
       y2="10.983051" />
    <linearGradient
       inkscape:collect="always"
       xlink:href="#linearGradient3940"
       id="linearGradient4170"
       gradientUnits="userSpaceOnUse"
       x1="37.35593"
       y1="2.7118645"
       x2="43.729507"
       y2="10.983051" />
    <linearGradient
       inkscape:collect="always"
       xlink:href="#linearGradient3940"
       id="linearGradient4178"
       gradientUnits="userSpaceOnUse"
       x1="37.35593"
       y1="2.7118645"
       x2="43.729507"
       y2="10.983051" />
    <linearGradient
       inkscape:collect="always"
       xlink:href="#linearGradient4188"
       id="linearGradient4194"
       x1="10.276271"
       y1="20.406779"
       x2="13.384746"
       y2="15.864406"
       gradientUnits="userSpaceOnUse" />
    <linearGradient
       inkscape:collect="always"
       xlink:href="#linearGradient4188"
       id="linearGradient4198"
       gradientUnits="userSpaceOnUse"
       x1="2.8186443"
       y1="33.723728"
       x2="10.208474"
       y2="16.067795"
       gradientTransform="translate(-4.2033898,-1.559322)" />
  </defs>
  <sodipodi:namedview
     pagecolor="#ffffff"
     bordercolor="#666666"
     borderopacity="1"
     objecttolerance="10"
     gridtolerance="10"
     guidetolerance="10"
     inkscape:pageopacity="0"
     inkscape:pageshadow="2"
     inkscape:window-width="1201"
     inkscape:window-height="922"
     id="namedview122"
     showgrid="false"
     inkscape:zoom="14.75"
     inkscape:cx="58.108934"
     inkscape:cy="34.711864"
     inkscape:window-x="2"
     inkscape:window-y="17"
     inkscape:window-maximized="0"
     inkscape:current-layer="svg2" />
  <g
     transform="matrix(-0.63724863,-0.40288232,-0.34467366,0.79290362,29.119387,10.150213)"
     id="g4144">
    <path
       style="fill:#000000"
       d="m 20,14 c 0,0 2,2 4,4 1.05,1.05 6,6 6,6 0,0 3,-4 2,-8 -1.22,-4.86 -8,-8 -8,-8 0,0 9.01,2.08 10,8 1,6 -3,10 -3,10 0,0 -5,-4 -7,-6 -2,-2 -4,-6 -4,-6 z"
       id="path4146" />
    <path
       style="fill:url(#linearGradient4150);fill-opacity:1"
       d="m 20,14 4,-6 c 0,0 6.78,3.14 8,8 1,4 -2,8 -2,8 0,0 -4,-4 -6,-6 -2,-2 -4,-4 -4,-4 z"
       id="path4148" />
  </g>
  <g
     transform="matrix(-0.4957051,0.54521328,0.44217405,0.65063576,16.290767,7.0443807)"
     id="g4120">
    <path
       style="fill:#000000"
       d="m 20,14 c 0,0 2,2 4,4 1.05,1.05 6,6 6,6 0,0 3,-4 2,-8 -1.22,-4.86 -8,-8 -8,-8 0,0 9.01,2.08 10,8 1,6 -3,10 -3,10 0,0 -5,-4 -7,-6 -2,-2 -4,-6 -4,-6 z"
       id="path4122" />
    <path
       style="fill:url(#linearGradient4126);fill-opacity:1"
       d="m 20,14 4,-6 c 0,0 6.78,3.14 8,8 1,4 -2,8 -2,8 0,0 -4,-4 -6,-6 -2,-2 -4,-4 -4,-4 z"
       id="path4124" />
  </g>
  <g
     transform="matrix(-0.42319048,0.43809263,0.37749025,0.52280226,19.167608,13.417605)"
     id="g4136">
    <path
       style="fill:#000000"
       d="m 20,14 c 0,0 2,2 4,4 1.05,1.05 6,6 6,6 0,0 3,-4 2,-8 -1.22,-4.86 -8,-8 -8,-8 0,0 9.01,2.08 10,8 1,6 -3,10 -3,10 0,0 -5,-4 -7,-6 -2,-2 -4,-6 -4,-6 z"
       id="path4138" />
    <path
       style="fill:url(#linearGradient4142);fill-opacity:1"
       d="m 20,14 4,-6 c 0,0 6.78,3.14 8,8 1,4 -2,8 -2,8 0,0 -4,-4 -6,-6 -2,-2 -4,-4 -4,-4 z"
       id="path4140" />
  </g>
  <g
     id="g4112"
     transform="matrix(-0.4957051,0.4285708,0.44217405,0.51143928,12.765343,7.4319481)">
    <path
       id="path4114"
       d="m 20,14 c 0,0 2,2 4,4 1.05,1.05 6,6 6,6 0,0 3,-4 2,-8 -1.22,-4.86 -8,-8 -8,-8 0,0 9.01,2.08 10,8 1,6 -3,10 -3,10 0,0 -5,-4 -7,-6 -2,-2 -4,-6 -4,-6 z"
       style="fill:#000000" />
    <path
       id="path4116"
       d="m 20,14 4,-6 c 0,0 6.78,3.14 8,8 1,4 -2,8 -2,8 0,0 -4,-4 -6,-6 -2,-2 -4,-4 -4,-4 z"
       style="fill:url(#linearGradient4118);fill-opacity:1" />
  </g>
  <path
     id="path6"
     d="m 19,58 10,-1 5,7 c 0,0 9,1 16,-2 C 57,59 65.26,51.95 64,45 62,34 50,40 50,40 H 38 v 4 h 6 l -9,8 H 24 l -5,6 z"
     style="fill:#000000;fill-opacity:0.40779999" />
  <path
     id="path8"
     d="m 20,16 c -4,6 -4,10 -4,14 0,4 2,6 2,6 l 0,14 c 0,0 -8,6 2,6 8,0 4,-18 4,-18 l 8,4 0,12 c 0,0 -12,8 2,8 8,0 2,-28 2,-28 l 4,-4 c 0,0 4,4 6,4 2,0 4,0 4,0 l 2,6 c 0,0 -8,6 4,6 8,0 -2,-16 -2,-16 l -2,0 c 0,0 0,-6 0,-10 0,-3.19 -1.28,-8.19 -5.84,-11.92 6.463407,0.747422 7.509603,17.52904 8.356982,13.736741 1.143595,10.552127 3.37356,9.815717 6.477949,1.538938 C 56.197248,30.579605 62.874118,32.336365 50.881357,9.3898309 47.830508,6.8813559 52,10 42,6 36.12,3.65 24,10 20,16 z"
     style="fill:none;stroke:#000000;stroke-width:4;stroke-linejoin:round"
     sodipodi:nodetypes="csccscccsccsccsccscccccc" />
  <path
     id="path15"
     d=""
     style="fill:url(#radialGradient3130)" />
  <path
     id="path24"
     d="M 32,17 16,29 v 2 c 0,0 3,0 5,2 2,2 3,5 3,5 l 8,4 v 12 c 0,0 -12,8 2,8 8,0 2,-28 2,-28 0,0 2,-6 2,-8 0,-2 -1.67,-6.3 -6,-9 z"
     style="fill:url(#linearGradient3922);fill-opacity:1" />
  <path
     id="path31"
     d="m 40,30 c 0,0 3.15,0.94 6,0 3,-1 4,-8 4,-10 C 50,14 46.16,8.08 46.16,8.08 46.16,8.08 41,6 37,7 29,9 21,19 21,19 l 11,-2 c 4.33,2.7 6,7 6,9 0,2 -2,8 -2,8 l 4,-4 z"
     style="fill:url(#radialGradient3912);fill-opacity:1" />
  <path
     id="path33"
     d="m 18,36 v 14 c 0,0 -8,6 2,6 8,0 4,-18 4,-18 0,0 -1,-3 -3,-5 -2,-2 -5,-2 -5,-2 l 2,5 z"
     style="fill:#e5a400;fill-opacity:1" />
  <path
     id="path42"
     d="m 50,20 c 0,2 -1,9 -4,10 -2.85,0.94 -6,0 -6,0 0,0 4,4 6,4 2,0 4,0 4,0 l 2,6 c 0,0 -8,6 4,6 8,0 -2,-16 -2,-16 h -2 c 0,0 0,-6 0,-10 C 52,16.81 50.72,11.81 46.16,8.08 46.16,8.08 50,14 50,20 z"
     style="fill:url(#linearGradient3938);fill-opacity:1" />
  <path
     id="path49"
     d="m 20,16 1,4 c 0,0 8,-11.01 16,-13 4,-1 9.16,1.08 9.16,1.08 L 42,6 C 36.12,3.65 24,10 20,16 z"
     style="fill:url(#linearGradient3962);fill-opacity:1.0" />
  <path
     id="path51"
     d="M 56.576271,25.59322 C 56.576271,25.59322 52,10 42,6 l 2,1 c 13,5 12.576271,18.59322 12.576271,18.59322 z"
     style="fill:#e5a400;fill-opacity:1"
     sodipodi:nodetypes="cccc" />
  <path
     id="path60"
     d="M 46.16,8.08 C 56.329244,12.894469 57.153053,28.183591 56.440678,27.898305 56.359172,27.409272 55.975968,15.957502 44.02,7.01 l 2.14,1.07 z"
     style="fill:url(#linearGradient3954);fill-opacity:1.0"
     sodipodi:nodetypes="cccc" />
  <g
     id="g4096"
     transform="matrix(-0.58036855,-0.30425124,-0.31390849,0.59879002,29.686471,9.6989257)">
    <path
       id="path4098"
       d="m 20,14 c 0,0 2,2 4,4 1.05,1.05 6,6 6,6 0,0 3,-4 2,-8 -1.22,-4.86 -8,-8 -8,-8 0,0 9.01,2.08 10,8 1,6 -3,10 -3,10 0,0 -5,-4 -7,-6 -2,-2 -4,-6 -4,-6 z"
       style="fill:#000000" />
    <path
       id="path4100"
       d="m 20,14 4,-6 c 0,0 6.78,3.14 8,8 1,4 -2,8 -2,8 0,0 -4,-4 -6,-6 -2,-2 -4,-4 -4,-4 z"
       style="fill:url(#linearGradient4102);fill-opacity:1" />
  </g>
  <g
     transform="matrix(-0.60127525,0.26050824,0.26877702,0.62036033,17.003106,5.2083376)"
     id="g4104">
    <path
       style="fill:#000000"
       d="m 20,14 c 0,0 2,2 4,4 1.05,1.05 6,6 6,6 0,0 3,-4 2,-8 -1.22,-4.86 -8,-8 -8,-8 0,0 9.01,2.08 10,8 1,6 -3,10 -3,10 0,0 -5,-4 -7,-6 -2,-2 -4,-6 -4,-6 z"
       id="path4106" />
    <path
       style="fill:url(#linearGradient4110);fill-opacity:1"
       d="m 20,14 4,-6 c 0,0 6.78,3.14 8,8 1,4 -2,8 -2,8 0,0 -4,-4 -6,-6 -2,-2 -4,-4 -4,-4 z"
       id="path4108" />
  </g>
  <g
     transform="matrix(0.34759309,0.60742037,-0.6259476,0.39811694,21.270749,10.259108)"
     id="g4172">
    <path
       style="fill:#000000"
       d="m 20,14 c 0,0 2,2 4,4 1.05,1.05 6,6 6,6 0,0 3,-4 2,-8 -1.22,-4.86 -8,-8 -8,-8 0,0 9.01,2.08 10,8 1,6 -3,10 -3,10 0,0 -5,-4 -7,-6 -2,-2 -4,-6 -4,-6 z"
       id="path4174" />
    <path
       style="fill:url(#linearGradient4178);fill-opacity:1"
       d="m 20,14 4,-6 c 0,0 6.78,3.14 8,8 1,4 -2,8 -2,8 0,0 -4,-4 -6,-6 -2,-2 -4,-4 -4,-4 z"
       id="path4176" />
  </g>
  <g
     id="g4128"
     transform="matrix(0.4957051,0.4690386,-0.44217405,0.55973193,10.382106,6.4811591)">
    <path
       id="path4130"
       d="m 20,14 c 0,0 2,2 4,4 1.05,1.05 6,6 6,6 0,0 3,-4 2,-8 -1.22,-4.86 -8,-8 -8,-8 0,0 9.01,2.08 10,8 1,6 -3,10 -3,10 0,0 -5,-4 -7,-6 -2,-2 -4,-6 -4,-6 z"
       style="fill:#000000" />
    <path
       id="path4132"
       d="m 20,14 4,-6 c 0,0 6.78,3.14 8,8 1,4 -2,8 -2,8 0,0 -4,-4 -6,-6 -2,-2 -4,-4 -4,-4 z"
       style="fill:url(#linearGradient4134);fill-opacity:1" />
  </g>
  <path
     id="path66"
     d="m 28.09,12.5 c 0.57,1.59 0.6,3.43 -0.09,5.5 -0.75,2.23 -2.6,4.33 -4.95,6.03 C 23.05,24.03 22,17 21,15 l 7.09,-2.5 z M 20,6 c 3.93,1.3 7,3.47 8.09,6.5 L 21,15 c 1,2 2.05,9.03 2.05,9.03 C 19.76,26.41 15.5,28 12,28 6,28 4.46,24.13 6,18 8,10 11.51,3.17 20,6 z"
     style="fill:none;stroke:#000000;stroke-width:4;stroke-linejoin:round" />
  <path
     id="path73"
     d="m 20,6 c 3.93,1.3 7,3.47 8.09,6.5 L 21,15 c 1,2 2.05,9.03 2.05,9.03 C 19.76,26.41 15.5,28 12,28 6,28 4.46,24.13 6,18 8,10 11.51,3.17 20,6 z"
     style="fill:url(#radialGradient3930);fill-opacity:1" />
  <path
     id="path75"
     d="m 28.09,12.5 c 0.57,1.59 0.6,3.43 -0.09,5.5 -0.75,2.23 -2.6,4.33 -4.95,6.03 C 23.05,24.03 22,17 21,15 l 7.09,-2.5 z"
     style="fill:#99632d" />
  <g
     id="g4068">
    <path
       style="fill:#000000"
       d="m 24.135594,15.397189 c 0,0 1.473349,1.47335 2.946699,2.9467 0.773509,0.773508 4.420049,4.420049 4.420049,4.420049 0,0 2.210025,-2.946699 1.47335,-5.893399 -0.898743,-3.58024 -5.893399,-5.893399 -5.893399,-5.893399 0,0 6.637441,1.532284 7.366749,5.893399 0.736675,4.420049 -2.210025,7.366749 -2.210025,7.366749 0,0 -3.683374,-2.9467 -5.156724,-4.420049 -1.47335,-1.47335 -2.946699,-4.42005 -2.946699,-4.42005 z"
       id="path77" />
    <path
       style="fill:url(#linearGradient3946);fill-opacity:1"
       d="m 24.135594,15.397189 2.946699,-4.420049 c 0,0 4.994656,2.313159 5.893399,5.893399 0.736675,2.9467 -1.47335,5.893399 -1.47335,5.893399 0,0 -2.946699,-2.946699 -4.420049,-4.420049 -1.47335,-1.47335 -2.946699,-2.9467 -2.946699,-2.9467 z"
       id="path84" />
  </g>
  <path
     id="path86"
     d="M 8.09,24.4 11,23 V 22 L 6,20 v 1 l 2.09,3.4 z"
     style="fill:#000000" />
  <path
     id="path88"
     d="M 9,12 C 8.44,12 8,13.11 8,14.5 8,15.88 8.44,17 9,17 9.55,17 11,15.88 11,14.5 11,13.11 9.55,12 9,12 z m 7,4 c -1.11,0 -2,0.89 -2,2 0,1.1 0.89,2 2,2 1.1,0 2,-0.9 2,-2 0,-1.11 -0.9,-2 -2,-2 z"
     style="fill:#000000" />
  <g
     transform="matrix(0.6552835,0,0,0.67608286,11.09772,13.981168)"
     id="g3974">
    <path
       style="fill:#000000"
       d="m 20,14 c 0,0 2,2 4,4 1.05,1.05 6,6 6,6 0,0 3,-4 2,-8 -1.22,-4.86 -8,-8 -8,-8 0,0 9.01,2.08 10,8 1,6 -3,10 -3,10 0,0 -5,-4 -7,-6 -2,-2 -4,-6 -4,-6 z"
       id="path3976" />
    <path
       style="fill:url(#linearGradient3980);fill-opacity:1"
       d="m 20,14 4,-6 c 0,0 6.78,3.14 8,8 1,4 -2,8 -2,8 0,0 -4,-4 -6,-6 -2,-2 -4,-4 -4,-4 z"
       id="path3978" />
  </g>
  <g
     transform="matrix(0.45050563,0.62203136,-0.49096254,0.60758289,18.413247,1.9344584)"
     id="g4040">
    <path
       style="fill:#000000"
       d="m 20,14 c 0,0 2,2 4,4 1.05,1.05 6,6 6,6 0,0 3,-4 2,-8 -1.22,-4.86 -8,-8 -8,-8 0,0 9.01,2.08 10,8 1,6 -3,10 -3,10 0,0 -5,-4 -7,-6 -2,-2 -4,-6 -4,-6 z"
       id="path4042" />
    <path
       style="fill:url(#linearGradient4046);fill-opacity:1"
       d="m 20,14 4,-6 c 0,0 6.78,3.14 8,8 1,4 -2,8 -2,8 0,0 -4,-4 -6,-6 -2,-2 -4,-4 -4,-4 z"
       id="path4044" />
  </g>
  <g
     id="g4032"
     transform="matrix(0.45050563,0.525502,-0.49096254,0.5132957,21.057315,3.6495286)">
    <path
       id="path4034"
       d="m 20,14 c 0,0 2,2 4,4 1.05,1.05 6,6 6,6 0,0 3,-4 2,-8 -1.22,-4.86 -8,-8 -8,-8 0,0 9.01,2.08 10,8 1,6 -3,10 -3,10 0,0 -5,-4 -7,-6 -2,-2 -4,-6 -4,-6 z"
       style="fill:#000000" />
    <path
       id="path4036"
       d="m 20,14 4,-6 c 0,0 6.78,3.14 8,8 1,4 -2,8 -2,8 0,0 -4,-4 -6,-6 -2,-2 -4,-4 -4,-4 z"
       style="fill:url(#linearGradient4038);fill-opacity:1" />
  </g>
  <g
     id="g3968"
     transform="matrix(0.59511786,0.3516918,-0.28298909,0.78729394,11.097157,-2.5505596)">
    <path
       id="path3964"
       d="m 20,14 c 0,0 2,2 4,4 1.05,1.05 6,6 6,6 0,0 3,-4 2,-8 -1.22,-4.86 -8,-8 -8,-8 0,0 9.01,2.08 10,8 1,6 -3,10 -3,10 0,0 -5,-4 -7,-6 -2,-2 -4,-6 -4,-6 z"
       style="fill:#000000" />
    <path
       id="path3966"
       d="m 20,14 4,-6 c 0,0 6.78,3.14 8,8 1,4 -2,8 -2,8 0,0 -4,-4 -6,-6 -2,-2 -4,-4 -4,-4 z"
       style="fill:url(#linearGradient3972);fill-opacity:1" />
  </g>
  <g
     id="g3982"
     transform="matrix(0.6552835,0,0,0.67608286,-27.546348,-5.679849)">
    <path
       id="path3984"
       d="m 20,14 c 0,0 2,2 4,4 1.05,1.05 6,6 6,6 0,0 3,-4 2,-8 -1.22,-4.86 -8,-8 -8,-8 0,0 9.01,2.08 10,8 1,6 -3,10 -3,10 0,0 -5,-4 -7,-6 -2,-2 -4,-6 -4,-6 z"
       style="fill:#000000" />
    <path
       id="path3986"
       d="m 20,14 4,-6 c 0,0 6.78,3.14 8,8 1,4 -2,8 -2,8 0,0 -4,-4 -6,-6 -2,-2 -4,-4 -4,-4 z"
       style="fill:url(#linearGradient3988);fill-opacity:1" />
  </g>
  <g
     transform="matrix(0.6552835,0,0,0.67608286,-27.546348,-5.679849)"
     id="g3990">
    <path
       style="fill:#000000"
       d="m 20,14 c 0,0 2,2 4,4 1.05,1.05 6,6 6,6 0,0 3,-4 2,-8 -1.22,-4.86 -8,-8 -8,-8 0,0 9.01,2.08 10,8 1,6 -3,10 -3,10 0,0 -5,-4 -7,-6 -2,-2 -4,-6 -4,-6 z"
       id="path3992" />
    <path
       style="fill:url(#linearGradient3988);fill-opacity:1"
       d="m 20,14 4,-6 c 0,0 6.78,3.14 8,8 1,4 -2,8 -2,8 0,0 -4,-4 -6,-6 -2,-2 -4,-4 -4,-4 z"
       id="path3994" />
  </g>
  <g
     id="g3996"
     transform="matrix(0.6552835,0,0,0.67608286,-27.546348,-5.679849)">
    <path
       id="path3998"
       d="m 20,14 c 0,0 2,2 4,4 1.05,1.05 6,6 6,6 0,0 3,-4 2,-8 -1.22,-4.86 -8,-8 -8,-8 0,0 9.01,2.08 10,8 1,6 -3,10 -3,10 0,0 -5,-4 -7,-6 -2,-2 -4,-6 -4,-6 z"
       style="fill:#000000" />
    <path
       id="path4000"
       d="m 20,14 4,-6 c 0,0 6.78,3.14 8,8 1,4 -2,8 -2,8 0,0 -4,-4 -6,-6 -2,-2 -4,-4 -4,-4 z"
       style="fill:url(#linearGradient3988);fill-opacity:1" />
  </g>
  <g
     transform="matrix(0.6552835,0,0,0.67608286,-27.546348,-5.679849)"
     id="g4002">
    <path
       style="fill:#000000"
       d="m 20,14 c 0,0 2,2 4,4 1.05,1.05 6,6 6,6 0,0 3,-4 2,-8 -1.22,-4.86 -8,-8 -8,-8 0,0 9.01,2.08 10,8 1,6 -3,10 -3,10 0,0 -5,-4 -7,-6 -2,-2 -4,-6 -4,-6 z"
       id="path4004" />
    <path
       style="fill:url(#linearGradient3988);fill-opacity:1"
       d="m 20,14 4,-6 c 0,0 6.78,3.14 8,8 1,4 -2,8 -2,8 0,0 -4,-4 -6,-6 -2,-2 -4,-4 -4,-4 z"
       id="path4006" />
  </g>
  <g
     id="g4008"
     transform="matrix(0.6552835,0,0,0.67608286,-27.546348,-5.679849)">
    <path
       id="path4010"
       d="m 20,14 c 0,0 2,2 4,4 1.05,1.05 6,6 6,6 0,0 3,-4 2,-8 -1.22,-4.86 -8,-8 -8,-8 0,0 9.01,2.08 10,8 1,6 -3,10 -3,10 0,0 -5,-4 -7,-6 -2,-2 -4,-6 -4,-6 z"
       style="fill:#000000" />
    <path
       id="path4012"
       d="m 20,14 4,-6 c 0,0 6.78,3.14 8,8 1,4 -2,8 -2,8 0,0 -4,-4 -6,-6 -2,-2 -4,-4 -4,-4 z"
       style="fill:url(#linearGradient3988);fill-opacity:1" />
  </g>
  <g
     transform="matrix(0.6552835,0,0,0.67608286,-27.546348,-5.679849)"
     id="g4014">
    <path
       style="fill:#000000"
       d="m 20,14 c 0,0 2,2 4,4 1.05,1.05 6,6 6,6 0,0 3,-4 2,-8 -1.22,-4.86 -8,-8 -8,-8 0,0 9.01,2.08 10,8 1,6 -3,10 -3,10 0,0 -5,-4 -7,-6 -2,-2 -4,-6 -4,-6 z"
       id="path4016" />
    <path
       style="fill:url(#linearGradient3988);fill-opacity:1"
       d="m 20,14 4,-6 c 0,0 6.78,3.14 8,8 1,4 -2,8 -2,8 0,0 -4,-4 -6,-6 -2,-2 -4,-4 -4,-4 z"
       id="path4018" />
  </g>
  <g
     id="g4020"
     transform="matrix(0.6552835,0,0,0.67608286,-27.546348,-5.679849)">
    <path
       id="path4022"
       d="m 20,14 c 0,0 2,2 4,4 1.05,1.05 6,6 6,6 0,0 3,-4 2,-8 -1.22,-4.86 -8,-8 -8,-8 0,0 9.01,2.08 10,8 1,6 -3,10 -3,10 0,0 -5,-4 -7,-6 -2,-2 -4,-6 -4,-6 z"
       style="fill:#000000" />
    <path
       id="path4024"
       d="m 20,14 4,-6 c 0,0 6.78,3.14 8,8 1,4 -2,8 -2,8 0,0 -4,-4 -6,-6 -2,-2 -4,-4 -4,-4 z"
       style="fill:url(#linearGradient3988);fill-opacity:1" />
  </g>
  <g
     transform="matrix(0.6552835,0,0,0.67608286,-27.546348,-5.679849)"
     id="g4026">
    <path
       style="fill:#000000"
       d="m 20,14 c 0,0 2,2 4,4 1.05,1.05 6,6 6,6 0,0 3,-4 2,-8 -1.22,-4.86 -8,-8 -8,-8 0,0 9.01,2.08 10,8 1,6 -3,10 -3,10 0,0 -5,-4 -7,-6 -2,-2 -4,-6 -4,-6 z"
       id="path4028" />
    <path
       style="fill:url(#linearGradient3988);fill-opacity:1"
       d="m 20,14 4,-6 c 0,0 6.78,3.14 8,8 1,4 -2,8 -2,8 0,0 -4,-4 -6,-6 -2,-2 -4,-4 -4,-4 z"
       id="path4030" />
  </g>
  <g
     transform="matrix(0.71512422,-0.048612,0.04526819,0.81747275,6.7955919,4.6861464)"
     id="g4048">
    <path
       style="fill:#000000"
       d="m 20,14 c 0,0 2,2 4,4 1.05,1.05 6,6 6,6 0,0 3,-4 2,-8 -1.22,-4.86 -8,-8 -8,-8 0,0 9.01,2.08 10,8 1,6 -3,10 -3,10 0,0 -5,-4 -7,-6 -2,-2 -4,-6 -4,-6 z"
       id="path4050" />
    <path
       style="fill:url(#linearGradient4054);fill-opacity:1"
       d="m 20,14 4,-6 c 0,0 6.78,3.14 8,8 1,4 -2,8 -2,8 0,0 -4,-4 -6,-6 -2,-2 -4,-4 -4,-4 z"
       id="path4052" />
  </g>
  <g
     id="g4056"
     transform="matrix(0.65377238,0.04447635,-0.04588806,0.67452377,10.034789,-1.2003144)">
    <path
       id="path4058"
       d="m 20,14 c 0,0 2,2 4,4 1.05,1.05 6,6 6,6 0,0 3,-4 2,-8 -1.22,-4.86 -8,-8 -8,-8 0,0 9.01,2.08 10,8 1,6 -3,10 -3,10 0,0 -5,-4 -7,-6 -2,-2 -4,-6 -4,-6 z"
       style="fill:#000000" />
    <path
       id="path4060"
       d="m 20,14 4,-6 c 0,0 6.78,3.14 8,8 1,4 -2,8 -2,8 0,0 -4,-4 -6,-6 -2,-2 -4,-4 -4,-4 z"
       style="fill:url(#linearGradient4062);fill-opacity:1" />
  </g>
  <g
     transform="matrix(0.19352895,0.31248848,-0.38899039,0.25643778,21.617489,-0.27194392)"
     id="g4164"
     inkscape:transform-center-x="0.6221989"
     inkscape:transform-center-y="-1.4559227">
    <path
       style="fill:#000000"
       d="m 20,14 c 0,0 2,2 4,4 1.05,1.05 6,6 6,6 0,0 3,-4 2,-8 -1.22,-4.86 -8,-8 -8,-8 0,0 9.01,2.08 10,8 1,6 -3,10 -3,10 0,0 -5,-4 -7,-6 -2,-2 -4,-6 -4,-6 z"
       id="path4166" />
    <path
       style="fill:url(#linearGradient4170);fill-opacity:1"
       d="m 20,14 4,-6 c 0,0 6.78,3.14 8,8 1,4 -2,8 -2,8 0,0 -4,-4 -6,-6 -2,-2 -4,-4 -4,-4 z"
       id="path4168" />
  </g>
  <g
     transform="matrix(-0.58036855,-0.30425124,-0.31390849,0.59879002,31.042403,5.4277393)"
     id="g4088">
    <path
       style="fill:#000000"
       d="m 20,14 c 0,0 2,2 4,4 1.05,1.05 6,6 6,6 0,0 3,-4 2,-8 -1.22,-4.86 -8,-8 -8,-8 0,0 9.01,2.08 10,8 1,6 -3,10 -3,10 0,0 -5,-4 -7,-6 -2,-2 -4,-6 -4,-6 z"
       id="path4090" />
    <path
       style="fill:url(#linearGradient4094);fill-opacity:1"
       d="m 20,14 4,-6 c 0,0 6.78,3.14 8,8 1,4 -2,8 -2,8 0,0 -4,-4 -6,-6 -2,-2 -4,-4 -4,-4 z"
       id="path4092" />
  </g>
  <path
     style="fill:#000000"
     d="m 21.277601,6.8444189 c 0,0 -1.788554,0.5890775 -3.577108,1.1781551 -0.938991,0.3092657 -5.365662,1.7672327 -5.365662,1.7672327 0,0 -0.485472,-3.3079138 1.350531,-5.3988227 2.233644,-2.5389329 7.154216,-2.3563102 7.154216,-2.3563102 0,0 -5.88205,-1.49582043 -8.314954,1.7478078 -2.463819,3.2884888 -1.397979,6.9006534 -1.397979,6.9006534 0,0 4.157477,-0.8739034 5.946031,-1.462981 1.788554,-0.5890775 4.204925,-2.3757351 4.204925,-2.3757351 z"
     id="path4082" />
  <path
     style="fill:url(#linearGradient4153);fill-opacity:1"
     d="M 21.277601,6.8444189 20.839578,2.0346738 c 0,0 -4.920572,-0.1826227 -7.154216,2.3563102 -1.836003,2.0909089 -1.350531,5.3988227 -1.350531,5.3988227 0,0 3.577108,-1.1781551 5.365662,-1.7672327 1.788554,-0.5890776 3.577108,-1.1781551 3.577108,-1.1781551 z"
     id="path4084" />
  <g
     transform="matrix(0.65377238,0.04447635,-0.04588806,0.67452377,4.81445,-4.5901449)"
     id="g4072">
    <path
       style="fill:#000000"
       d="m 20,14 c 0,0 2,2 4,4 1.05,1.05 6,6 6,6 0,0 3,-4 2,-8 -1.22,-4.86 -8,-8 -8,-8 0,0 9.01,2.08 10,8 1,6 -3,10 -3,10 0,0 -5,-4 -7,-6 -2,-2 -4,-6 -4,-6 z"
       id="path4074" />
    <path
       style="fill:url(#linearGradient4078);fill-opacity:1"
       d="m 20,14 4,-6 c 0,0 6.78,3.14 8,8 1,4 -2,8 -2,8 0,0 -4,-4 -6,-6 -2,-2 -4,-4 -4,-4 z"
       id="path4076" />
  </g>
  <g
     id="g4156"
     transform="matrix(0.33507558,0.1510856,-0.17939863,0.42998836,12.929069,-3.2678411)">
    <path
       id="path4158"
       d="m 20,14 c 0,0 2,2 4,4 1.05,1.05 6,6 6,6 0,0 3,-4 2,-8 -1.22,-4.86 -8,-8 -8,-8 0,0 9.01,2.08 10,8 1,6 -3,10 -3,10 0,0 -5,-4 -7,-6 -2,-2 -4,-6 -4,-6 z"
       style="fill:#000000" />
    <path
       id="path4160"
       d="m 20,14 4,-6 c 0,0 6.78,3.14 8,8 1,4 -2,8 -2,8 0,0 -4,-4 -6,-6 -2,-2 -4,-4 -4,-4 z"
       style="fill:url(#linearGradient4162);fill-opacity:1" />
  </g>
  <path
     style="fill:none;stroke:#000000;stroke-width:0.9;stroke-linecap:butt;stroke-linejoin:miter;stroke-opacity:1;stroke-miterlimit:4;stroke-dasharray:none"
     d="m 8.2711856,24.135593 0.2711865,1.423729 2.2372889,3.050847 -4.8135601,-2.440677 2.3728813,-1.016949 -0.067797,-1.01695 z"
     id="path4182"
     sodipodi:nodetypes="cccccc" />
  <path
     style="fill:none;stroke:url(#linearGradient4194);stroke-width:0.59999999999999998;stroke-linecap:butt;stroke-linejoin:miter;stroke-opacity:1;stroke-miterlimit:4;stroke-dasharray:none"
     d="m 10.508474,22.101694 3.050848,-3.728812"
     id="path4186"
     sodipodi:nodetypes="cc" />
  <path
     sodipodi:nodetypes="cc"
     id="path4196"
     d="M 6.3050842,20.271186 9.3559322,16.81356"
     style="fill:none;stroke:url(#linearGradient4198);stroke-width:0.60000001999999997;stroke-linecap:butt;stroke-linejoin:miter;stroke-miterlimit:4;stroke-opacity:1;stroke-dasharray:none" />
</svg>
