<?xml version="1.0" encoding="UTF-8" standalone="yes"?>
<svg version="1.1" width="64" height="64" color-interpolation="linearRGB"
     xmlns:svg="http://www.w3.org/2000/svg" xmlns="http://www.w3.org/2000/svg">
 <g>
  <path style="fill:#000000; fill-opacity:0.3882"
        d="M36 28C27.16 28 20 32.47 20 38C20 43.52 27.16 48 36 48C44.83 48 52 43.52 52 38C52 32.47 44.83 28 36 28z"
        transform="matrix(0.4312,0,0,0.4312,10.175,8.425)"
  />
  <path style="fill:none; stroke:#010101; stroke-width:4.2666"
        d="M40 7C36.13 7 33 10.13 33 14C33 17.86 36.13 21 40 21C43.86 21 47 17.86 47 14C47 10.13 43.86 7 40 7z"
        transform="matrix(1,0,0,1,-18,0)"
  />
  <radialGradient id="gradient0" gradientUnits="userSpaceOnUse" cx="0" cy="0" r="64" gradientTransform="matrix(0.1406,0,0,0.1406,37.9999,11)">
   <stop offset="0" stop-color="#fae6e6"/>
   <stop offset="0.5048" stop-color="#f76464"/>
   <stop offset="1" stop-color="#982d2d"/>
  </radialGradient>
  <path style="fill:url(#gradient0)"
        d="M40 7C36.13 7 33 10.13 33 14C33 17.86 36.13 21 40 21C43.86 21 47 17.86 47 14C47 10.13 43.86 7 40 7z"
        transform="matrix(1,0,0,1,-18,0)"
  />
  <path style="fill:#000000; fill-opacity:0.3882"
        d="M36 28C27.16 28 20 32.47 20 38C20 43.52 27.16 48 36 48C44.83 48 52 43.52 52 38C52 32.47 44.83 28 36 28z"
        transform="matrix(0.4312,0,0,0.4312,29.175,8.425)"
  />
  <path style="fill:none; stroke:#010101; stroke-width:4.2666"
        d="M40 7C36.13 7 33 10.13 33 14C33 17.86 36.13 21 40 21C43.86 21 47 17.86 47 14C47 10.13 43.86 7 40 7z"
  />
  <radialGradient id="gradient1" gradientUnits="userSpaceOnUse" cx="0" cy="0" r="64" gradientTransform="matrix(0.1406,0,0,0.1406,37.9999,11)">
   <stop offset="0" stop-color="#fae6e6"/>
   <stop offset="0.5048" stop-color="#f76464"/>
   <stop offset="1" stop-color="#982d2d"/>
  </radialGradient>
  <path style="fill:url(#gradient1)"
        d="M40 7C36.13 7 33 10.13 33 14C33 17.86 36.13 21 40 21C43.86 21 47 17.86 47 14C47 10.13 43.86 7 40 7z"
  />
  <path style="fill:#000000; fill-opacity:0.3882"
        d="M36 28C27.16 28 20 32.47 20 38C20 43.52 27.16 48 36 48C44.83 48 52 43.52 52 38C52 32.47 44.83 28 36 28z"
        transform="matrix(0.4749,0,0,0.4749,-3.6999,16.1999)"
  />
  <path style="fill:none; stroke:#010101; stroke-width:4.2666"
        d="M53.5 16C49.35 16 46 19.35 46 23.5C46 27.64 49.35 31 53.5 31C57.64 31 61 27.64 61 23.5C61 19.35 57.64 16 53.5 16z"
        transform="matrix(1,0,0,1,-44,0)"
  />
  <radialGradient id="gradient2" gradientUnits="userSpaceOnUse" cx="0" cy="0" r="64" gradientTransform="matrix(0.1562,0,0,0.1562,50.9999,21)">
   <stop offset="0" stop-color="#fae6e6"/>
   <stop offset="0.5048" stop-color="#f76464"/>
   <stop offset="1" stop-color="#982d2d"/>
  </radialGradient>
  <path style="fill:url(#gradient2)"
        d="M53.5 16C49.35 16 46 19.35 46 23.5C46 27.64 49.35 31 53.5 31C57.64 31 61 27.64 61 23.5C61 19.35 57.64 16 53.5 16z"
        transform="matrix(1,0,0,1,-44,0)"
  />
  <path style="fill:#000000; fill-opacity:0.3882"
        d="M36 28C27.16 28 20 32.47 20 38C20 43.52 27.16 48 36 48C44.83 48 52 43.52 52 38C52 32.47 44.83 28 36 28z"
        transform="matrix(0.4749,0,0,0.4749,39.2999,16.1999)"
  />
  <path style="fill:none; stroke:#010101; stroke-width:4.2666"
        d="M53.5 16C49.35 16 46 19.35 46 23.5C46 27.64 49.35 31 53.5 31C57.64 31 61 27.64 61 23.5C61 19.35 57.64 16 53.5 16z"
  />
  <radialGradient id="gradient3" gradientUnits="userSpaceOnUse" cx="0" cy="0" r="64" gradientTransform="matrix(0.1562,0,0,0.1562,50.9999,21)">
   <stop offset="0" stop-color="#fae6e6"/>
   <stop offset="0.5048" stop-color="#f76464"/>
   <stop offset="1" stop-color="#982d2d"/>
  </radialGradient>
  <path style="fill:url(#gradient3)"
        d="M53.5 16C49.35 16 46 19.35 46 23.5C46 27.64 49.35 31 53.5 31C57.64 31 61 27.64 61 23.5C61 19.35 57.64 16 53.5 16z"
  />
  <path style="fill:#000000; fill-opacity:0.3882"
        d="M36 28C27.16 28 20 32.47 20 38C20 43.52 27.16 48 36 48C44.83 48 52 43.52 52 38C52 32.47 44.83 28 36 28z"
  />
  <path style="fill:none; stroke:#010101; stroke-width:4.2666"
        d="M31 12C22.16 12 15 19.16 15 28C15 36.83 22.16 44 31 44C39.83 44 47 36.83 47 28C47 19.16 39.83 12 31 12z"
  />
  <radialGradient id="gradient4" gradientUnits="userSpaceOnUse" cx="0" cy="0" r="64" gradientTransform="matrix(0.3281,0,0,0.3281,25.9999,23)">
   <stop offset="0" stop-color="#fae6e6"/>
   <stop offset="0.5048" stop-color="#f76464"/>
   <stop offset="1" stop-color="#982d2d"/>
  </radialGradient>
  <path style="fill:url(#gradient4)"
        d="M31 12C22.16 12 15 19.16 15 28C15 36.83 22.16 44 31 44C39.83 44 47 36.83 47 28C47 19.16 39.83 12 31 12z"
  />
  <path style="fill:#000000; fill-opacity:0.3882"
        d="M36 28C27.16 28 20 32.47 20 38C20 43.52 27.16 48 36 48C44.83 48 52 43.52 52 38C52 32.47 44.83 28 36 28z"
        transform="matrix(0.5749,0,0,0.5749,-5.8999,27.3999)"
  />
  <path style="fill:none; stroke:#010101; stroke-width:4.2666"
        d="M51.5 30C46.8 30 43 33.8 43 38.5C43 43.19 46.8 47 51.5 47C56.19 47 60 43.19 60 38.5C60 33.8 56.19 30 51.5 30z"
        transform="matrix(1,0,0,1,-40,0)"
  />
  <radialGradient id="gradient5" gradientUnits="userSpaceOnUse" cx="0" cy="0" r="64" gradientTransform="matrix(0.1718,0,0,0.1718,48.9999,36)">
   <stop offset="0" stop-color="#fae6e6"/>
   <stop offset="0.5048" stop-color="#f76464"/>
   <stop offset="1" stop-color="#982d2d"/>
  </radialGradient>
  <path style="fill:url(#gradient5)"
        d="M51.5 30C46.8 30 43 33.8 43 38.5C43 43.19 46.8 47 51.5 47C56.19 47 60 43.19 60 38.5C60 33.8 56.19 30 51.5 30z"
        transform="matrix(1,0,0,1,-40,0)"
  />
  <path style="fill:#000000; fill-opacity:0.3882"
        d="M36 28C27.16 28 20 32.47 20 38C20 43.52 27.16 48 36 48C44.83 48 52 43.52 52 38C52 32.47 44.83 28 36 28z"
        transform="matrix(0.5749,0,0,0.5749,33.1,27.3999)"
  />
  <path style="fill:none; stroke:#010101; stroke-width:4.2666"
        d="M51.5 30C46.8 30 43 33.8 43 38.5C43 43.19 46.8 47 51.5 47C56.19 47 60 43.19 60 38.5C60 33.8 56.19 30 51.5 30z"
  />
  <radialGradient id="gradient6" gradientUnits="userSpaceOnUse" cx="0" cy="0" r="64" gradientTransform="matrix(0.1718,0,0,0.1718,48.9999,36)">
   <stop offset="0" stop-color="#fae6e6"/>
   <stop offset="0.5048" stop-color="#f76464"/>
   <stop offset="1" stop-color="#982d2d"/>
  </radialGradient>
  <path style="fill:url(#gradient6)"
        d="M51.5 30C46.8 30 43 33.8 43 38.5C43 43.19 46.8 47 51.5 47C56.19 47 60 43.19 60 38.5C60 33.8 56.19 30 51.5 30z"
  />
  <path style="fill:#000000; fill-opacity:0.3882"
        d="M36 28C27.16 28 20 32.47 20 38C20 43.52 27.16 48 36 48C44.83 48 52 43.52 52 38C52 32.47 44.83 28 36 28z"
        transform="matrix(0.6999,0,0,0.6999,11.6,30.3999)"
  />
  <path style="fill:none; stroke:#010101; stroke-width:4.2666"
        d="M31 36C25.47 36 21 40.47 21 46C21 51.52 25.47 56 31 56C36.52 56 41 51.52 41 46C41 40.47 36.52 36 31 36z"
  />
  <radialGradient id="gradient7" gradientUnits="userSpaceOnUse" cx="0" cy="0" r="64" gradientTransform="matrix(0.2031,0,0,0.2031,27.9999,43)">
   <stop offset="0" stop-color="#fae6e6"/>
   <stop offset="0.5048" stop-color="#f76464"/>
   <stop offset="1" stop-color="#982d2d"/>
  </radialGradient>
  <path style="fill:url(#gradient7)"
        d="M31 36C25.47 36 21 40.47 21 46C21 51.52 25.47 56 31 56C36.52 56 41 51.52 41 46C41 40.47 36.52 36 31 36z"
  />
 </g>
</svg>
