<?xml version="1.0" encoding="UTF-8" standalone="yes"?>
<svg version="1.1" width="64" height="64" color-interpolation="linearRGB"
     xmlns:svg="http://www.w3.org/2000/svg" xmlns="http://www.w3.org/2000/svg">
 <g>
  <path style="fill:#010101; fill-opacity:0.4549"
        d="M20 60H28L32 53L25 52L20 60z"
        transform="matrix(1,0,0,1,18,-16)"
  />
  <path style="fill:none; stroke:#000000; stroke-width:4"
        d="M2 37V49L20 58L24 54V40L8 36L2 37z"
        transform="matrix(1,0,0,1,18,-16)"
  />
  <linearGradient id="gradient0" gradientUnits="userSpaceOnUse" x1="-21.43" y1="11.43" x2="6.49" y2="-10.37">
   <stop offset="0" stop-color="#ffec4b"/>
   <stop offset="1" stop-color="#f0a506"/>
  </linearGradient>
  <path style="fill:url(#gradient0)"
        d="M2 37V49L20 58V43L2 37z"
        transform="matrix(1,0,0,1,18,-16)"
  />
  <linearGradient id="gradient1" gradientUnits="userSpaceOnUse" x1="16.65" y1="4.77" x2="40.17" y2="5.38">
   <stop offset="0" stop-color="#ffffff"/>
   <stop offset="1" stop-color="#fff289"/>
  </linearGradient>
  <path style="fill:url(#gradient1)"
        d="M2 37L20 43L24 40L9 36L2 37z"
        transform="matrix(1,0,0,1,18,-16)"
  />
  <linearGradient id="gradient2" gradientUnits="userSpaceOnUse" x1="52.49" y1="12.11" x2="62.45" y2="19.75">
   <stop offset="0" stop-color="#f99b05"/>
   <stop offset="1" stop-color="#fcb23d"/>
  </linearGradient>
  <path style="fill:url(#gradient2)"
        d="M20 43V58L24 54V40L20 43z"
        transform="matrix(1,0,0,1,18,-16)"
  />
  <path style="fill:#010101; fill-opacity:0.4549"
        d="M20 60H28L32 53L25 52L20 60z"
  />
  <path style="fill:none; stroke:#000000; stroke-width:4"
        d="M2 37V49L20 58L24 54V40L8 36L2 37z"
  />
  <linearGradient id="gradient3" gradientUnits="userSpaceOnUse" x1="-21.43" y1="11.43" x2="6.49" y2="-10.37">
   <stop offset="0" stop-color="#ffec4b"/>
   <stop offset="1" stop-color="#f0a506"/>
  </linearGradient>
  <path style="fill:url(#gradient3)"
        d="M2 37V49L20 58V43L2 37z"
  />
  <linearGradient id="gradient4" gradientUnits="userSpaceOnUse" x1="16.65" y1="4.77" x2="40.17" y2="5.38">
   <stop offset="0" stop-color="#ffffff"/>
   <stop offset="1" stop-color="#fff289"/>
  </linearGradient>
  <path style="fill:url(#gradient4)"
        d="M2 37L20 43L24 40L9 36L2 37z"
  />
  <linearGradient id="gradient5" gradientUnits="userSpaceOnUse" x1="52.49" y1="12.11" x2="62.45" y2="19.75">
   <stop offset="0" stop-color="#f99b05"/>
   <stop offset="1" stop-color="#fcb23d"/>
  </linearGradient>
  <path style="fill:url(#gradient5)"
        d="M20 43V58L24 54V40L20 43z"
  />
  <linearGradient id="gradient6" gradientUnits="userSpaceOnUse" x1="78.02" y1="9.98" x2="40.73" y2="37.96">
   <stop offset="0" stop-color="#626262"/>
   <stop offset="0.4933" stop-color="#b8b3b3"/>
   <stop offset="1" stop-color="#595959"/>
  </linearGradient>
  <path style="fill:url(#gradient6)"
        d="M41.92 38L18 10H16L24 21L41.92 38z"
        transform="matrix(-0.0161,-0.5702,0.7282,-0.0206,-2.3804,42.9129)"
  />
  <linearGradient id="gradient7" gradientUnits="userSpaceOnUse" x1="78.02" y1="9.98" x2="40.73" y2="37.96">
   <stop offset="0" stop-color="#626262"/>
   <stop offset="0.4933" stop-color="#b8b3b3"/>
   <stop offset="1" stop-color="#595959"/>
  </linearGradient>
  <path style="fill:url(#gradient7)"
        d="M41.92 38L18 10H16L24 21L41.92 38z"
        transform="matrix(-0.0161,-0.5702,0.7282,-0.0206,17.6195,48.9129)"
  />
  <linearGradient id="gradient8" gradientUnits="userSpaceOnUse" x1="78.02" y1="9.98" x2="40.73" y2="37.96">
   <stop offset="0" stop-color="#626262"/>
   <stop offset="0.4933" stop-color="#b8b3b3"/>
   <stop offset="1" stop-color="#595959"/>
  </linearGradient>
  <path style="fill:url(#gradient8)"
        d="M41.92 38L18 10H16L24 21L41.92 38z"
        transform="matrix(-0.0161,-0.5702,0.7282,-0.0206,18.6195,62.9129)"
  />
 </g>
</svg>
