<?xml version="1.0" encoding="UTF-8" standalone="yes"?>
<svg version="1.1" width="64" height="64" color-interpolation="linearRGB"
     xmlns:svg="http://www.w3.org/2000/svg" xmlns="http://www.w3.org/2000/svg">
 <g>
  <path style="fill:#000000; fill-opacity:0.4196"
        d="M35 62L40 56C40 56 43.72 58.38 48 59C53.94 59.84 61 59 61 59L62 57L50 51L38 53L31 61L35 62z"
        transform="matrix(1,0,0,1,-4,-2)"
  />
  <path style="fill:none; stroke:#010000; stroke-width:4"
        d="M34 38C34 38 34 51 20 53V55L34 62L48 48L45 35L34 38z"
        transform="matrix(1,0,0,1,-5,-2)"
  />
  <linearGradient id="gradient0" gradientUnits="userSpaceOnUse" x1="41.67" y1="-9.73" x2="71.92" y2="-3.5">
   <stop offset="0" stop-color="#5c5c5c"/>
   <stop offset="1" stop-color="#b8b8b8"/>
  </linearGradient>
  <path style="fill:url(#gradient0)"
        d="M34 36V62L48 48L45 34L34 36z"
        transform="matrix(1,0,0,1,-5,-2)"
  />
  <linearGradient id="gradient1" gradientUnits="userSpaceOnUse" x1="14.26" y1="97.46" x2="-8.94" y2="81.76">
   <stop offset="0" stop-color="#c9c9c9"/>
   <stop offset="1" stop-color="#ffffff"/>
  </linearGradient>
  <path style="fill:url(#gradient1)"
        d="M20 55L34 62V59L20 53V55z"
        transform="matrix(1,0,0,1,-5,-2)"
  />
  <linearGradient id="gradient2" gradientUnits="userSpaceOnUse" x1="51.94" y1="63.65" x2="26.51" y2="73.34">
   <stop offset="0" stop-color="#797979"/>
   <stop offset="1" stop-color="#e4e4e4"/>
  </linearGradient>
  <path style="fill:url(#gradient2)"
        d="M34 59C45 50 40 40 40 40L34 38C34 38 34 51 20 53L34 59z"
        transform="matrix(1,0,0,1,-5,-2)"
  />
  <path style="fill:none; stroke:#000000; stroke-width:4"
        d="M14 39L52 58L55 55V17L17 5.53L14 7V39z"
        transform="matrix(1,0,0,1,-4,-2)"
  />
  <linearGradient id="gradient3" gradientUnits="userSpaceOnUse" x1="121.6" y1="-41.06" x2="151.37" y2="15.32">
   <stop offset="0" stop-color="#d4d4d4"/>
   <stop offset="1" stop-color="#7d7d7d"/>
  </linearGradient>
  <path style="fill:url(#gradient3)"
        d="M14 39L52 58V20L14 7V39z"
        transform="matrix(1,0,0,1,-4,-2)"
  />
  <linearGradient id="gradient4" gradientUnits="userSpaceOnUse" x1="28.71" y1="-38.38" x2="57.09" y2="-27.57">
   <stop offset="0" stop-color="#3c3c3c"/>
   <stop offset="1" stop-color="#242424"/>
  </linearGradient>
  <path style="fill:url(#gradient4)"
        d="M50 48L16 32V9L50 21V48z"
        transform="matrix(1,0,0,1,-4,-2)"
  />
  <linearGradient id="gradient5" gradientUnits="userSpaceOnUse" x1="57.02" y1="1.21" x2="111.43" y2="25.45">
   <stop offset="0.6195" stop-color="#0032a1"/>
   <stop offset="0.8116" stop-color="#7793d2"/>
   <stop offset="0.9742" stop-color="#0032a1"/>
  </linearGradient>
  <path style="fill:url(#gradient5)"
        d="M47 44L19 30V13L47 22V44z"
        transform="matrix(1,0,0,1,-4,-2)"
  />
  <linearGradient id="gradient6" gradientUnits="userSpaceOnUse" x1="47.12" y1="-61.43" x2="36.73" y2="-59.88">
   <stop offset="0" stop-color="#a5a0a0"/>
   <stop offset="1" stop-color="#474747"/>
  </linearGradient>
  <path style="fill:url(#gradient6)"
        d="M52 57L55 54V17L52 20V57z"
        transform="matrix(1,0,0,1,-4,-2)"
  />
  <linearGradient id="gradient7" gradientUnits="userSpaceOnUse" x1="111.38" y1="-24.02" x2="117.24" y2="4">
   <stop offset="0" stop-color="#ffffff"/>
   <stop offset="1" stop-color="#d3d3d3"/>
  </linearGradient>
  <path style="fill:url(#gradient7)"
        d="M16.93 5.43L14 7L52 20L55 17L16.93 5.43z"
        transform="matrix(1,0,0,1,-4,-2)"
  />
  <path style="fill:#000000"
        d="M30 41C28.89 41 28 41.89 28 43C28 44.1 28.89 46 30 46C31.1 46 32 45.1 32 44C32 42.89 31.1 41 30 41z"
        transform="matrix(1,0,0,1,-4,-2)"
  />
 </g>
</svg>
