<?xml version="1.0" encoding="UTF-8" standalone="yes"?>
<svg version="1.1" width="64" height="64" color-interpolation="linearRGB"
     xmlns:svg="http://www.w3.org/2000/svg" xmlns="http://www.w3.org/2000/svg">
 <g>
  <path style="fill:#000000; fill-opacity:0.4"
        d="M19 53C19 53 19 59 25 59C25 59 27 61 31 61H34C34 61 34 62 35 62H44C48 62 52 58.6 52 54.54C52 50.48 48 47 44 47H35C35 47 34 47 34 48H32"
        transform="matrix(1,0,0,1,-1,0)"
  />
  <path style="fill:none; stroke:#000000; stroke-width:4"
        d="M18 42V50C18 53.07 21.26 56 25 56C28.73 56 32 53.07 32 50V42"
        transform="matrix(1,0,0,1,-1,0)"
  />
  <radialGradient id="gradient0" gradientUnits="userSpaceOnUse" cx="0" cy="0" r="64" gradientTransform="matrix(0.4218,0,0,0.2656,18,39)">
   <stop offset="0.3516" stop-color="#eff3f7"/>
   <stop offset="0.4945" stop-color="#aaadb2"/>
   <stop offset="0.619" stop-color="#eff3f7"/>
   <stop offset="0.7509" stop-color="#aaadb2"/>
   <stop offset="0.8901" stop-color="#eff3f7"/>
   <stop offset="1" stop-color="#aaadb2"/>
  </radialGradient>
  <path style="fill:url(#gradient0)"
        d="M18 42V50C18 53.07 21.26 56 25 56C25 56 20 52 20 42"
        transform="matrix(1,0,0,1,-1,0)"
  />
  <radialGradient id="gradient1" gradientUnits="userSpaceOnUse" cx="0" cy="0" r="64" gradientTransform="matrix(0.4218,0,0,0.2656,18,39)">
   <stop offset="0.3516" stop-color="#c5c9cc"/>
   <stop offset="0.4945" stop-color="#555659"/>
   <stop offset="0.619" stop-color="#c5c9cc"/>
   <stop offset="0.7509" stop-color="#555659"/>
   <stop offset="0.8901" stop-color="#c5c9cc"/>
   <stop offset="1" stop-color="#555659"/>
  </radialGradient>
  <path style="fill:url(#gradient1)"
        d="M20 42C20 52 25 56 25 56C28.73 56 32 53.07 32 50V42"
        transform="matrix(1,0,0,1,-1,0)"
  />
  <path style="fill:none; stroke:#000000; stroke-width:4"
        d="M16 36L18 43C19 45 22 46 25 46C28 46 31 45 32 43L34 36
           M16 32V36C18 41 23.28 41 25 41C26.71 41 33 41 34 36V32
           M19 27C19 27 16 30 16 32C16 34 19.39 36 25 36C30.6 36 34 34 34 32C34 30 31 27 31 27C31 27 28.08 26 25 26C22.08 26 19 27 19 27z"
        transform="matrix(1,0,0,1,-1,0)"
  />
  <linearGradient id="gradient2" gradientUnits="userSpaceOnUse" x1="16" y1="-65" x2="32" y2="-65">
   <stop offset="0" stop-color="#fff9e6"/>
   <stop offset="1" stop-color="#999282"/>
  </linearGradient>
  <path style="fill:url(#gradient2)"
        d="M16 36L18 43C19 45 22 46 25 46C28 46 31 45 32 43L34 36"
        transform="matrix(1,0,0,1,-1,0)"
  />
  <linearGradient id="gradient3" gradientUnits="userSpaceOnUse" x1="16" y1="-63" x2="30" y2="-63">
   <stop offset="0" stop-color="#f9f7ed"/>
   <stop offset="1" stop-color="#b2a998"/>
  </linearGradient>
  <path style="fill:url(#gradient3)"
        d="M16 32V36C18 41 23.28 41 25 41C26.71 41 33 41 34 36V32"
        transform="matrix(1,0,0,1,-1,0)"
  />
  <linearGradient id="gradient4" gradientUnits="userSpaceOnUse" x1="16.59" y1="5.54" x2="7.79" y2="9.88">
   <stop offset="1" stop-color="#fcfbf7"/>
   <stop offset="0" stop-color="#ccc1ad"/>
  </linearGradient>
  <path style="fill:url(#gradient4)"
        d="M19 27C19 27 16 30 16 32C16 34 19.39 36 25 36C30.6 36 34 34 34 32C34 30 31 27 31 27C31 27 28.08 26 25 26C22.08 26 19 27 19 27z"
        transform="matrix(1,0,0,1,-1,0)"
  />
  <path style="fill:#807a6d"
        d="M18.96 28.92C18.96 30 21.79 31 24.99 31C28.19 31 30.96 30 30.96 28.92C30.96 27.85 28.19 27 24.99 27C21.79 27 18.96 27.85 18.96 28.92z"
        transform="matrix(1,0,0,1,-1,0)"
  />
  <path style="fill:none; stroke:#000000; stroke-width:6"
        d="M33 7C31 5 17 1 17 5
           M16 9C16 5 31 9 33 11
           M16 13C16 8 31 13 33 16
           M27 30C27 29 27 23 29 24C31 25 35 22 33 19C31 16 16 11 16 17
           M16 22C16 19 20 20 21 21C22 22 22 28 22 28"
        transform="matrix(1,0,0,1,-1,0)"
  />
  <path style="fill:none; stroke:#000000; stroke-width:6"
        d="M16 9C16 11.09 23.89 10.2 25 10C26.04 9.8 34 7 33 6C31 4 17 8 17 5
           M16 13C16 17 39 14 33 7
           M16 17C16 21 39 18 33 11
           M16 22C16 26 39 23 33 15"
        transform="matrix(1,0,0,1,-1,0)"
  />
  <radialGradient id="gradient5" gradientUnits="userSpaceOnUse" cx="0" cy="0" r="64" gradientTransform="matrix(0.2968,0,0,0.3593,16,3)">
   <stop offset="0" stop-color="#dadee5"/>
   <stop offset="1" stop-color="#98a1b2"/>
  </radialGradient>
  <path style="fill:none; stroke:url(#gradient5); stroke-width:2"
        d="M33 7C31 5 17 1 17 5
           M16 9C16 5 31 9 33 11
           M16 13C16 8 31 13 33 16
           M27 30C27 29 27 23 29 24C31 25 35 22 33 19C31 16 16 11 16 17
           M16 22C16 19 20 20 21 21C22 22 22 28 22 28"
        transform="matrix(1,0,0,1,-1,0)"
  />
  <radialGradient id="gradient6" gradientUnits="userSpaceOnUse" cx="0" cy="0" r="64" gradientTransform="matrix(0.2968,0,0,0.3437,16,3)">
   <stop offset="0.4908" stop-color="#ffffff"/>
   <stop offset="1" stop-color="#e7efff"/>
  </radialGradient>
  <path style="fill:none; stroke:url(#gradient6); stroke-width:2"
        d="M16 9C16 11.09 23.89 10.2 25 10C26.04 9.8 34 7 33 6C31 4 17 8 17 5
           M16 13C16 17 39 14 33 7
           M16 17C16 21 39 18 33 11
           M16 22C16 26 39 23 33 15"
        transform="matrix(1,0,0,1,-1,0)"
  />
 </g>
</svg>
