<?xml version="1.0" encoding="UTF-8" standalone="yes"?>
<svg version="1.1" width="64" height="64" color-interpolation="linearRGB"
     xmlns:svg="http://www.w3.org/2000/svg" xmlns="http://www.w3.org/2000/svg">
 <g>
  <path style="fill:#010101; fill-opacity:0.4549"
        d="M38 64H46L64 44L52 39L38 64z"
        transform="matrix(1,0,0,1,1,1)"
  />
  <path style="fill:none; stroke:#000000; stroke-width:4"
        d="M6 11V46L38 62L54 46V10L25 2L6 11z"
  />
  <linearGradient id="gradient0" gradientUnits="userSpaceOnUse" x1="51.59" y1="-19.16" x2="82.98" y2="33.22">
   <stop offset="0" stop-color="#dddddd"/>
   <stop offset="1" stop-color="#c5c5c5"/>
  </linearGradient>
  <path style="fill:url(#gradient0)"
        d="M6 11V46L38 62V20L6 11z"
  />
  <linearGradient id="gradient1" gradientUnits="userSpaceOnUse" x1="23.1" y1="-21.78" x2="52.04" y2="-21.29">
   <stop offset="0" stop-color="#ffffff"/>
   <stop offset="1" stop-color="#c5c5c5"/>
  </linearGradient>
  <path style="fill:url(#gradient1)"
        d="M6 11L38 21L54 10L25 2L6 11z"
  />
  <linearGradient id="gradient2" gradientUnits="userSpaceOnUse" x1="33.3" y1="-0.68" x2="46.77" y2="0.74">
   <stop offset="0" stop-color="#646464"/>
   <stop offset="1" stop-color="#8c8c8c"/>
  </linearGradient>
  <path style="fill:url(#gradient2)"
        d="M38 21V62L54 46V10L38 21z"
  />
  <path style="fill:none; stroke:#010101; stroke-width:4"
        d="M16.68 20.61C10.71 22.81 8.24 31.05 11.17 39C14.09 46.96 21.31 51.62 27.28 49.42C33.25 47.22 35.72 38.98 32.79 31.02C29.86 23.07 22.65 18.4 16.68 20.61z"
  />
  <linearGradient id="gradient3" gradientUnits="userSpaceOnUse" x1="19.03" y1="125.45" x2="-68.73" y2="32.29">
   <stop offset="0" stop-color="#010101"/>
   <stop offset="0.7642" stop-color="#707070"/>
   <stop offset="0.8167" stop-color="#737373"/>
   <stop offset="1" stop-color="#ffffff"/>
  </linearGradient>
  <path style="fill:url(#gradient3)"
        d="M16.68 20.61C10.71 22.81 8.24 31.05 11.17 39C14.09 46.96 21.31 51.62 27.28 49.42C33.25 47.22 35.72 38.98 32.79 31.02C29.86 23.07 22.65 18.4 16.68 20.61z"
  />
  <radialGradient id="gradient4" gradientUnits="userSpaceOnUse" cx="0" cy="0" r="64" gradientTransform="matrix(0.2031,0,0,0.2656,18,31)">
   <stop offset="0.7487" stop-color="#4b4b4b"/>
   <stop offset="0" stop-color="#848484"/>
   <stop offset="1" stop-color="#323232"/>
  </radialGradient>
  <path style="fill:url(#gradient4)"
        d="M16.68 20.61C10.71 22.81 8.24 31.05 11.17 39C14.09 46.96 21.31 51.62 27.28 49.42C33.25 47.22 35.72 38.98 32.79 31.02C29.86 23.07 22.65 18.4 16.68 20.61z"
        transform="matrix(0.4666,0,0,0.4666,13.0666,19.0666)"
  />
  <linearGradient id="gradient5" gradientUnits="userSpaceOnUse" x1="32.91" y1="-8.43" x2="69.79" y2="43.86">
   <stop offset="0.632" stop-color="#434343"/>
   <stop offset="1" stop-color="#ffffff"/>
  </linearGradient>
  <path style="fill:none; stroke:url(#gradient5); stroke-width:1.5"
        d="M16.68 20.61C10.71 22.81 8.24 31.05 11.17 39C14.09 46.96 21.31 51.62 27.28 49.42C33.25 47.22 35.72 38.98 32.79 31.02C29.86 23.07 22.65 18.4 16.68 20.61z"
        transform="matrix(0.9062,0,0,0.9062,1.9999,2.9999)"
  />
  <linearGradient id="gradient6" gradientUnits="userSpaceOnUse" x1="15.39" y1="80.67" x2="-23.3" y2="29.7">
   <stop offset="0.1673" stop-color="#010101"/>
   <stop offset="0.6996" stop-color="#282828"/>
   <stop offset="1" stop-color="#ffffff"/>
  </linearGradient>
  <path style="fill:none; stroke:url(#gradient6); stroke-width:2.0999"
        d="M16.68 20.61C10.71 22.81 8.24 31.05 11.17 39C14.09 46.96 21.31 51.62 27.28 49.42C33.25 47.22 35.72 38.98 32.79 31.02C29.86 23.07 22.65 18.4 16.68 20.61z"
        transform="matrix(0.8048,0,0,0.8105,4.3946,6.6981)"
  />
  <path style="fill:none; stroke:#000000; stroke-width:2"
        d="M32.9 52.08C32.11 52.33 31.74 53.38 32.06 54.44C32.39 55.49 33.3 56.15 34.09 55.91C34.88 55.66 35.25 54.61 34.93 53.55C34.6 52.5 33.69 51.84 32.9 52.08z"
  />
  <path style="fill:#00ff00"
        d="M32.9 52.08C32.11 52.33 31.74 53.38 32.06 54.44C32.39 55.49 33.3 56.15 34.09 55.91C34.88 55.66 35.25 54.61 34.93 53.55C34.6 52.5 33.69 51.84 32.9 52.08z"
  />
 </g>
</svg>
