<?xml version="1.0" encoding="UTF-8" standalone="no"?>
<svg
   xmlns:dc="http://purl.org/dc/elements/1.1/"
   xmlns:cc="http://creativecommons.org/ns#"
   xmlns:rdf="http://www.w3.org/1999/02/22-rdf-syntax-ns#"
   xmlns:svg="http://www.w3.org/2000/svg"
   xmlns="http://www.w3.org/2000/svg"
   xmlns:xlink="http://www.w3.org/1999/xlink"
   xmlns:sodipodi="http://sodipodi.sourceforge.net/DTD/sodipodi-0.dtd"
   xmlns:inkscape="http://www.inkscape.org/namespaces/inkscape"
   version="1.1"
   width="64"
   height="64"
   color-interpolation="linearRGB"
   id="svg2"
   inkscape:version="0.47 r22583"
   sodipodi:docname="claws-mail.svg">
  <metadata
     id="metadata117">
    <rdf:RDF>
      <cc:Work
         rdf:about="">
        <dc:format>image/svg+xml</dc:format>
        <dc:type
           rdf:resource="http://purl.org/dc/dcmitype/StillImage" />
        <dc:title></dc:title>
      </cc:Work>
    </rdf:RDF>
  </metadata>
  <defs
     id="defs115">
    <inkscape:perspective
       sodipodi:type="inkscape:persp3d"
       inkscape:vp_x="0 : 32 : 1"
       inkscape:vp_y="0 : 1000 : 0"
       inkscape:vp_z="64 : 32 : 1"
       inkscape:persp3d-origin="32 : 21.333333 : 1"
       id="perspective119" />
    <linearGradient
       y2="-12.97"
       x2="125.88"
       y1="-66.76"
       x1="88.51"
       gradientUnits="userSpaceOnUse"
       id="gradient0">
      <stop
         id="stop11"
         stop-color="#5f8493"
         offset="0.2894" />
      <stop
         id="stop13"
         stop-color="#eaf7ff"
         offset="0.5227" />
      <stop
         id="stop15"
         stop-color="#a5b7c2"
         offset="0.639" />
      <stop
         id="stop17"
         stop-color="#a0bccc"
         offset="0.7631" />
      <stop
         id="stop19"
         stop-color="#748994"
         offset="0.8646" />
      <stop
         id="stop21"
         stop-color="#829ab2"
         offset="1" />
    </linearGradient>
    <linearGradient
       y2="15.9"
       x2="62.02"
       y1="-13.06"
       x1="33.05"
       gradientUnits="userSpaceOnUse"
       id="gradient1">
      <stop
         id="stop26"
         stop-color="#acd3db"
         offset="0" />
      <stop
         id="stop28"
         stop-color="#ffffff"
         offset="0.624" />
      <stop
         id="stop30"
         stop-color="#6492a8"
         offset="1" />
    </linearGradient>
    <linearGradient
       y2="-8.88"
       x2="8.06"
       y1="2.93"
       x1="-9.25"
       gradientUnits="userSpaceOnUse"
       id="gradient2">
      <stop
         id="stop37"
         stop-color="#f7fbfd"
         offset="0" />
      <stop
         id="stop39"
         stop-color="#31596b"
         offset="1" />
    </linearGradient>
    <linearGradient
       y2="61.3"
       x2="47.68"
       y1="38.95"
       x1="66.96"
       gradientUnits="userSpaceOnUse"
       id="gradient3">
      <stop
         id="stop44"
         stop-color="#343d41"
         offset="0" />
      <stop
         id="stop46"
         stop-color="#364145"
         offset="0.1879" />
      <stop
         id="stop48"
         stop-color="#566f7a"
         offset="1" />
    </linearGradient>
    <linearGradient
       y2="7.36"
       x2="29.74"
       y1="28.06"
       x1="3.3"
       gradientUnits="userSpaceOnUse"
       id="gradient4">
      <stop
         id="stop53"
         stop-color="#435563"
         offset="0" />
      <stop
         id="stop55"
         stop-color="#2d4048"
         offset="1" />
    </linearGradient>
    <linearGradient
       y2="33.48"
       x2="-4.14"
       y1="52.74"
       x1="-7.32"
       gradientUnits="userSpaceOnUse"
       id="gradient5">
      <stop
         id="stop60"
         stop-color="#bed1db"
         offset="0" />
      <stop
         id="stop62"
         stop-color="#8dadba"
         offset="1" />
    </linearGradient>
    <linearGradient
       y2="33.52"
       x2="41.57"
       y1="14.97"
       x1="25.01"
       gradientUnits="userSpaceOnUse"
       id="gradient6">
      <stop
         id="stop71"
         stop-color="#ffeec0"
         offset="0" />
      <stop
         id="stop73"
         stop-color="#e7d6a8"
         offset="1" />
    </linearGradient>
    <linearGradient
       y2="4.28"
       x2="13.11"
       y1="13.86"
       x1="1.65"
       gradientUnits="userSpaceOnUse"
       id="gradient7">
      <stop
         id="stop78"
         stop-color="#b4a06b"
         offset="0" />
      <stop
         id="stop80"
         stop-color="#a28b4e"
         offset="1" />
    </linearGradient>
    <linearGradient
       y2="31.1"
       x2="76.55"
       y1="3.07"
       x1="76.17"
       gradientUnits="userSpaceOnUse"
       id="gradient8">
      <stop
         id="stop91"
         stop-color="#ffc7ba"
         offset="0" />
      <stop
         id="stop93"
         stop-color="#c31a1a"
         offset="1" />
    </linearGradient>
    <linearGradient
       y2="31.1"
       x2="76.55"
       y1="3.07"
       x1="76.17"
       gradientUnits="userSpaceOnUse"
       id="gradient9">
      <stop
         id="stop100"
         stop-color="#e3e3e3"
         offset="0.0075" />
      <stop
         id="stop102"
         stop-color="#59697a"
         offset="1" />
    </linearGradient>
    <linearGradient
       y2="32.1"
       x2="75.55"
       y1="4.07"
       x1="75.17"
       gradientUnits="userSpaceOnUse"
       id="gradient10">
      <stop
         id="stop107"
         stop-color="#d6d9dc"
         offset="0" />
      <stop
         id="stop109"
         stop-color="#788999"
         offset="1" />
    </linearGradient>
    <linearGradient
       inkscape:collect="always"
       xlink:href="#gradient10"
       id="linearGradient2965"
       gradientUnits="userSpaceOnUse"
       x1="75.17"
       y1="4.07"
       x2="75.55"
       y2="32.1" />
    <linearGradient
       inkscape:collect="always"
       xlink:href="#gradient9"
       id="linearGradient2968"
       gradientUnits="userSpaceOnUse"
       x1="76.17"
       y1="3.07"
       x2="76.55"
       y2="31.1" />
    <linearGradient
       inkscape:collect="always"
       xlink:href="#gradient8"
       id="linearGradient2972"
       gradientUnits="userSpaceOnUse"
       x1="76.17"
       y1="3.07"
       x2="76.55"
       y2="31.1" />
    <linearGradient
       inkscape:collect="always"
       xlink:href="#gradient7"
       id="linearGradient2978"
       gradientUnits="userSpaceOnUse"
       x1="1.65"
       y1="13.86"
       x2="13.11"
       y2="4.28" />
    <linearGradient
       inkscape:collect="always"
       xlink:href="#gradient6"
       id="linearGradient2981"
       gradientUnits="userSpaceOnUse"
       x1="25.01"
       y1="14.97"
       x2="41.57"
       y2="33.52" />
    <linearGradient
       inkscape:collect="always"
       xlink:href="#gradient5"
       id="linearGradient2986"
       gradientUnits="userSpaceOnUse"
       x1="-7.32"
       y1="52.74"
       x2="-4.14"
       y2="33.48" />
    <linearGradient
       inkscape:collect="always"
       xlink:href="#gradient4"
       id="linearGradient2989"
       gradientUnits="userSpaceOnUse"
       x1="3.3"
       y1="28.06"
       x2="29.74"
       y2="7.36" />
    <linearGradient
       inkscape:collect="always"
       xlink:href="#gradient3"
       id="linearGradient2992"
       gradientUnits="userSpaceOnUse"
       x1="66.96"
       y1="38.95"
       x2="47.68"
       y2="61.3" />
    <linearGradient
       inkscape:collect="always"
       xlink:href="#gradient2"
       id="linearGradient2995"
       gradientUnits="userSpaceOnUse"
       x1="-9.25"
       y1="2.93"
       x2="8.06"
       y2="-8.88" />
    <linearGradient
       inkscape:collect="always"
       xlink:href="#gradient1"
       id="linearGradient2999"
       gradientUnits="userSpaceOnUse"
       x1="33.05"
       y1="-13.06"
       x2="62.02"
       y2="15.9" />
    <linearGradient
       inkscape:collect="always"
       xlink:href="#gradient0"
       id="linearGradient3002"
       gradientUnits="userSpaceOnUse"
       x1="88.51"
       y1="-66.76"
       x2="125.88"
       y2="-12.97" />
  </defs>
  <sodipodi:namedview
     pagecolor="#ffffff"
     bordercolor="#666666"
     borderopacity="1"
     objecttolerance="10"
     gridtolerance="10"
     guidetolerance="10"
     inkscape:pageopacity="0"
     inkscape:pageshadow="2"
     inkscape:window-width="739"
     inkscape:window-height="501"
     id="namedview113"
     showgrid="false"
     inkscape:zoom="3.6875"
     inkscape:cx="32"
     inkscape:cy="32"
     inkscape:window-x="532"
     inkscape:window-y="383"
     inkscape:window-maximized="0"
     inkscape:current-layer="svg2" />
  <path
     id="path6"
     d="m 25,64 h 3 L 38,54 c 0,0 4,0 6,0 2,0 5,-1 7,-3 0.53,-0.54 5.37,-5 5.37,-5 H 59 l 4,-6 -1.5,-1 c 2,-3 2.5,-4 2.5,-7 0,-3 -2,-4 -4,-5 L 25,64 z"
     style="fill:#000000;fill-opacity:0.41559999" />
  <path
     id="path8"
     d="M 58,32 V 20 C 58,11 55,6 46,3 41,1 37,2 31,5 l -17,8 c -2.24,2.04 -4,5.72 -3.99,9.98 L 10,41 12,42 2,49 25,62 35,52 36.98,53.01 58,32 z"
     style="fill:none;stroke:#000000;stroke-width:4;stroke-linejoin:round" />
  <path
     id="path23"
     d="M 58,32 V 20 C 58,11 55,6 46,3 41,1 37,2 31,5 L 14,13 36,37 V 54 L 58,32 z"
     style="fill:url(#linearGradient3002)" />
  <path
     id="path32"
     d="M 38,39 C 39.07,27.99 36.48,17.24 28,13 c -4,-2 -8,-2 -13,0 5,0 7,0 10,2 7.11,4.73 12,12 13,24 z"
     style="fill:url(#linearGradient2999)" />
  <path
     id="path34"
     d="m 36,54 c 0,0 0,-7 0,-16 0,-9 -2.37,-18.19 -12,-23 -4.23,-2.12 -8,-2 -11,0"
     style="fill:none;stroke:#000000;stroke-width:4" />
  <path
     id="path41"
     d="M 24,15 C 14.06,10.02 10,16 10.01,25.98 L 10,41 11,26 C 11,16 14,10 24,15 H 24.01 24 z"
     style="fill:url(#linearGradient2995)" />
  <path
     id="path50"
     d="M 24,15 C 14.06,10.02 11,16 11.01,25.98 L 11,41 34.46,26.95 C 32.63,21.6 29.15,17.57 24.01,15 H 24 z"
     style="fill:url(#linearGradient2992)" />
  <path
     id="path57"
     d="m 12,42 c 0,0 15,-1 24,3 V 37 C 35.98,33.26 35.47,29.9 34.46,26.95 L 10,41 l 2,1 z"
     style="fill:url(#linearGradient2989)" />
  <path
     id="path64"
     d="m 36,45 v 7.5 L 35,52 25,62 2,49 12,42 c 0,0 15,-1 24,3 z"
     style="fill:url(#linearGradient2986)" />
  <path
     id="path86"
     d="m 44,7 v 24 l 2,1 1,-1 V 18 l 7,-6 V 3 L 52,2 44,7 z"
     style="fill:none;stroke:#000000;stroke-width:4" />
  <path
     id="path88"
     d="M 46,17.99 V 8 l 8,-5 v 9 l -6,5 -2,0.99 z"
     style="fill:#f20606" />
  <path
     id="path95"
     d="M 44,16.88 V 7 l 2,1 v 9.88 l -2,-1 z"
     style="fill:url(#linearGradient2972)" />
  <path
     id="path97"
     d="M 44,7 46,8 54,3 52,2 44,7 z"
     style="fill:#faa28e" />
  <path
     id="path104"
     d="M 46,32 V 17.99 L 47,18 v 13 l -1,1 z"
     style="fill:url(#linearGradient2968)" />
  <path
     id="path111"
     d="M 46,32 44,31 V 16.99 l 2,1.14 V 32 z"
     style="fill:url(#linearGradient2965)" />
</svg>
