<?xml version="1.0" encoding="UTF-8" standalone="yes"?>
<svg version="1.1" width="64" height="64" color-interpolation="linearRGB"
     xmlns:svg="http://www.w3.org/2000/svg" xmlns="http://www.w3.org/2000/svg">
 <g>
  <path style="fill:#010101; fill-opacity:0.4313"
        d="M44 64H49L64 48L60 46L44 64z
           M19 20C11.81 20 6 22.23 6 25C6 27.75 11.81 30 19 30C26.17 30 32 27.75 32 25C32 22.23 26.17 20 19 20z"
  />
  <path style="fill:none; stroke:#010101; stroke-opacity:0.4313; stroke-width:4"
        d="M32 42C32 42 18 42 18 38C18 30 34 28 34 22C34 18 23 18 23 18"
        transform="matrix(1,0,0,0.9285,2,3.1428)"
  />
  <path style="fill:none; stroke:#000000; stroke-width:4"
        d="M32 42C32 42 18 42 18 38C18 30 34 28 34 22C34 18 23 18 23 18
           M49 22L58 25V48L44 62L34 56V32L49 22z
           M14 2C7.37 2 2 7.37 2 14C2 20.61 7.37 26 14 26C20.61 26 26 20.61 26 14C26 7.37 20.61 2 14 2z"
  />
  <linearGradient id="gradient0" gradientUnits="userSpaceOnUse" x1="33.69" y1="1.88" x2="51.6" y2="3.67">
   <stop offset="0" stop-color="#d7d7d7"/>
   <stop offset="1" stop-color="#b8b8b8"/>
  </linearGradient>
  <path style="fill:url(#gradient0)"
        d="M44 36V62L41.87 60.62L41.87 50.62L36 48L36.02 57.21L34 56V32L44 36z"
  />
  <path style="fill:#949494"
        d="M37.48 48.66L36 48L36.02 57.21L37.31 57.96L37.48 48.66z"
  />
  <linearGradient id="gradient1" gradientUnits="userSpaceOnUse" x1="33.69" y1="1.88" x2="51.6" y2="3.67">
   <stop offset="0" stop-color="#d2d2d2"/>
   <stop offset="1" stop-color="#858585"/>
  </linearGradient>
  <path style="fill:url(#gradient1)"
        d="M40.39 49.96L37.48 48.66L37.31 57.96L40.37 59.75L40.39 49.96z"
  />
  <path style="fill:#c4c4c4"
        d="M41.87 60.62L41.87 50.62L40.39 49.96L40.37 59.75L41.87 60.62z"
  />
  <linearGradient id="gradient2" gradientUnits="userSpaceOnUse" x1="24" y1="7.99" x2="64" y2="7.99">
   <stop offset="0" stop-color="#f4f4f4"/>
   <stop offset="1" stop-color="#dbdbdb"/>
  </linearGradient>
  <path style="fill:url(#gradient2)"
        d="M49 22L58 25L44 36L34 32L49 22z"
  />
  <linearGradient id="gradient3" gradientUnits="userSpaceOnUse" x1="55.69" y1="-10.23" x2="74.97" y2="-5.41">
   <stop offset="0" stop-color="#5c5c5c"/>
   <stop offset="1" stop-color="#838383"/>
  </linearGradient>
  <path style="fill:url(#gradient3)"
        d="M44 36L58 25V48L44 62V36z"
  />
  <linearGradient id="gradient4" gradientUnits="userSpaceOnUse" x1="33.69" y1="1.88" x2="51.6" y2="3.67">
   <stop offset="0" stop-color="#d2d2d2"/>
   <stop offset="1" stop-color="#858585"/>
  </linearGradient>
  <path style="fill:none; stroke:url(#gradient4); stroke-width:1"
        d="M40 38V40L42 40.5V38.5L40 38z"
  />
  <path style="fill:#a9ff00"
        d="M40 38V40L42 40.5V38.5L40 38z"
  />
  <radialGradient id="gradient5" gradientUnits="userSpaceOnUse" cx="0" cy="0" r="64" gradientTransform="matrix(0.25,0,0,0.25,10,10)">
   <stop offset="0.044" stop-color="#9eedff"/>
   <stop offset="0.1457" stop-color="#67ceff"/>
   <stop offset="1" stop-color="#0473b3"/>
  </radialGradient>
  <path style="fill:url(#gradient5)"
        d="M14 2C10.46 2 7.27 3.52 5.07 5.96C5.07 5.96 8 6 8 8C8 10 4 14 4 14V16C4 16 6 16 8 18C10 20 8 22 8 22L10.27 25.41C11.44 25.78 12.69 26 14 26C16.99 26 19.72 24.9 21.83 23.07L20 22L22 18C22 18 16 16 16 14C16 12 20 8 20 8L18 6L15.87 8H14L16 6L14 4L17.39 2.48C16.31 2.16 15.17 2 14 2z"
  />
  <radialGradient id="gradient6" gradientUnits="userSpaceOnUse" cx="0" cy="0" r="64" gradientTransform="matrix(0.25,0,0,0.25,10,10)">
   <stop offset="0" stop-color="#b9ff97"/>
   <stop offset="0.7457" stop-color="#05d65e"/>
   <stop offset="1" stop-color="#049943"/>
  </radialGradient>
  <path style="fill:url(#gradient6)"
        d="M5.07 5.96C3.16 8.08 2 10.9 2 14C2 19.32 5.47 23.84 10.27 25.41L8 22C8 22 10 20 8 18C6 16 4 16 4 16V14C4 14 8 10 8 8C8 6 5.07 5.96 5.07 5.96z
           M14 8H16.37L18 6L20 8C20 8 16 12 16 14C16 16 22 18 22 18L20 22L21.83 23.07C24.38 20.88 26 17.62 26 14C26 8.54 22.36 3.95 17.39 2.48L14 4L16 6L14 8z"
  />
 </g>
</svg>
