<?xml version="1.0" encoding="UTF-8" standalone="no"?>
<!-- Generator: Adobe Illustrator 9.0, SVG Export Plug-In  -->
<svg
   xmlns:dc="http://purl.org/dc/elements/1.1/"
   xmlns:cc="http://web.resource.org/cc/"
   xmlns:rdf="http://www.w3.org/1999/02/22-rdf-syntax-ns#"
   xmlns:svg="http://www.w3.org/2000/svg"
   xmlns="http://www.w3.org/2000/svg"
   xmlns:sodipodi="http://sodipodi.sourceforge.net/DTD/sodipodi-0.dtd"
   xmlns:inkscape="http://www.inkscape.org/namespaces/inkscape"
   width="24pt"
   height="24pt"
   viewBox="0 0 24 24"
   xml:space="preserve"
   id="svg2"
   sodipodi:version="0.32"
   inkscape:version="0.44.1"
   sodipodi:docname="stock_cancel.svg"
   sodipodi:docbase="/home/ihuhnix/.icons/amica/scalable/stock"><metadata
   id="metadata21"><rdf:RDF><cc:Work
       rdf:about=""><dc:format>image/svg+xml</dc:format><dc:type
         rdf:resource="http://purl.org/dc/dcmitype/StillImage" /></cc:Work></rdf:RDF></metadata><defs
   id="defs19">
		
		<radialGradient
   gradientUnits="userSpaceOnUse"
   fy="0.8853"
   fx="3.1196"
   r="43.9955"
   cy="0.8853"
   cx="3.1196"
   id="aigrd1">
			<stop
   id="stop8"
   style="stop-color:#fe0082;stop-opacity:1;"
   offset="0" />
			<stop
   id="stop10"
   style="stop-color:#ff0010;stop-opacity:1;"
   offset="0.2809" />
			<stop
   id="stop12"
   style="stop-color:#996E04"
   offset="1" />
		</radialGradient>
		
		
	</defs><sodipodi:namedview
   inkscape:window-height="575"
   inkscape:window-width="883"
   inkscape:pageshadow="2"
   inkscape:pageopacity="0.0"
   guidetolerance="10.0"
   gridtolerance="10.0"
   objecttolerance="10.0"
   borderopacity="1.0"
   bordercolor="#666666"
   pagecolor="#ffffff"
   id="base"
   inkscape:zoom="12.633333"
   inkscape:cx="15"
   inkscape:cy="14.920844"
   inkscape:window-x="2"
   inkscape:window-y="78"
   inkscape:current-layer="svg2" />
	<path
   id="path5"
   d="M 15.8,11.9 L 19.7,8 C 20.8,6.9 20.8,5.2 19.7,4.1 C 18.6,3 16.9,3 15.8,4.1 L 11.9,8 L 8,4.1 C 6.9,3 5.1,3 4.1,4.1 C 3,5.2 3,7 4.1,8 L 8,11.9 L 4.1,15.8 C 3,16.9 3,18.6 4.1,19.7 C 5.2,20.8 6.9,20.8 8,19.7 L 11.9,15.8 L 15.8,19.7 C 16.9,20.8 18.6,20.8 19.7,19.7 C 20.8,18.6 20.8,16.9 19.7,15.8 L 15.8,11.9 L 15.8,11.9 z "
   style="fill-rule:evenodd;stroke:black;stroke-width:2.89120007;stroke-miterlimit:4" /><path
   id="path14"
   d="M 15.8,11.9 L 19.7,8 C 20.8,6.9 20.8,5.2 19.7,4.1 C 18.6,3 16.9,3 15.8,4.1 L 11.9,8 L 8,4.1 C 6.9,3 5.1,3 4.1,4.1 C 3,5.2 3,7 4.1,8 L 8,11.9 L 4.1,15.8 C 3,16.9 3,18.6 4.1,19.7 C 5.2,20.8 6.9,20.8 8,19.7 L 11.9,15.8 L 15.8,19.7 C 16.9,20.8 18.6,20.8 19.7,19.7 C 20.8,18.6 20.8,16.9 19.7,15.8 L 15.8,11.9 L 15.8,11.9 z "
   style="fill:url(#aigrd1);fill-rule:evenodd;stroke:none;stroke-miterlimit:4" /><path
   id="path16"
   d="M 24,24 L 0,24 L 0,0 L 24,0 L 24,24 z "
   style="fill:none;fill-rule:nonzero;stroke:none;stroke-miterlimit:4" />
</svg>