<?xml version="1.0" encoding="UTF-8" standalone="no"?>
<!-- Generator: Adobe Illustrator 9.0, SVG Export Plug-In  -->
<svg
   xmlns:dc="http://purl.org/dc/elements/1.1/"
   xmlns:cc="http://web.resource.org/cc/"
   xmlns:rdf="http://www.w3.org/1999/02/22-rdf-syntax-ns#"
   xmlns:svg="http://www.w3.org/2000/svg"
   xmlns="http://www.w3.org/2000/svg"
   xmlns:sodipodi="http://sodipodi.sourceforge.net/DTD/sodipodi-0.dtd"
   xmlns:inkscape="http://www.inkscape.org/namespaces/inkscape"
   width="24pt"
   height="24pt"
   viewBox="0 0 24 24"
   xml:space="preserve"
   id="svg2"
   sodipodi:version="0.32"
   inkscape:version="0.44.1"
   sodipodi:docname="stock_refresh.svg"
   sodipodi:docbase="/home/ihuhnix/.icons/amica/scalable/stock"><metadata
   id="metadata34"><rdf:RDF><cc:Work
       rdf:about=""><dc:format>image/svg+xml</dc:format><dc:type
         rdf:resource="http://purl.org/dc/dcmitype/StillImage" /></cc:Work></rdf:RDF></metadata><defs
   id="defs32">
		
		<radialGradient
   gradientUnits="userSpaceOnUse"
   fy="7.9038"
   fx="8.7515"
   r="13.7593"
   cy="7.9038"
   cx="8.7515"
   id="aigrd1">
			<stop
   id="stop8"
   style="stop-color:#FED182"
   offset="0" />
			<stop
   id="stop10"
   style="stop-color:#FFB310"
   offset="0.2809" />
			<stop
   id="stop12"
   style="stop-color:#996E04"
   offset="1" />
		</radialGradient>
		
	
		
		
		<radialGradient
   gradientUnits="userSpaceOnUse"
   fy="8.4395"
   fx="9.855"
   r="12.0506"
   cy="8.4395"
   cx="9.855"
   id="aigrd2">
			<stop
   id="stop22"
   style="stop-color:#FFFFFF"
   offset="0" />
			<stop
   id="stop24"
   style="stop-color:#F0E1BD"
   offset="1" />
		</radialGradient>
		
	</defs><sodipodi:namedview
   inkscape:window-height="575"
   inkscape:window-width="897"
   inkscape:pageshadow="2"
   inkscape:pageopacity="0.0"
   borderopacity="1.0"
   bordercolor="#666666"
   pagecolor="#ffffff"
   id="base"
   inkscape:zoom="12.5"
   inkscape:cx="15"
   inkscape:cy="14.969475"
   inkscape:window-x="102"
   inkscape:window-y="145"
   inkscape:current-layer="svg2" />
	<path
   id="path5"
   d="M 1.142722,12.063336 C 1.142722,18.08234 6.076332,22.917278 12.095336,22.917278 C 18.11434,22.917278 22.949278,17.983668 22.949278,12.063336 C 22.949278,6.044332 18.015668,1.110722 11.996664,1.110722 C 5.9776597,1.110722 1.142722,6.044332 1.142722,12.063336 z "
   style="fill:yellow;fill-rule:nonzero;stroke:black;stroke-width:2;stroke-miterlimit:4;stroke-dasharray:none;fill-opacity:1" />
	<path
   id="path17"
   d="M 16.8,7.7 C 16.3,7.1 15.4,7.1 14.8,7.7 C 14.2,8.2 14.2,9.1 14.8,9.7 C 16.1,11.1 16.1,13.3 14.7,14.7 C 14,15.4 13.1,15.7 12.2,15.7 C 11.3,15.7 10.4,15.3 9.7,14.6 C 8.4,13.3 8.4,11.3 9.5,9.9 L 10.9,11.4 C 11,11.5 11.2,11.6 11.4,11.5 C 11.6,11.4 11.7,11.3 11.7,11.1 L 11.8,6.5 C 11.8,6.4 11.8,6.3 11.7,6.2 C 11.6,6.1 11.5,6.1 11.4,6.1 L 6.8,6 C 6.6,6 6.4,6.1 6.3,6.2 C 6.2,6.3 6.3,6.6 6.4,6.7 L 7.5,7.8 C 5.2,10.3 5.3,14.1 7.6,16.5 C 8.8,17.7 10.4,18.4 12.1,18.5 C 13.8,18.5 15.4,17.9 16.6,16.7 C 19.1,14.3 19.2,10.2 16.8,7.7 L 16.8,7.7 z "
   style="fill-rule:evenodd;stroke:none;stroke-miterlimit:4" />
	<g
   id="Layer_x0020_3"
   style="fill-rule:nonzero;clip-rule:nonzero;stroke:#000000;stroke-miterlimit:4;">
		<path
   style="fill:none;stroke:none;"
   d="M24,24H0V0h24v24z"
   id="path29" />
	</g>
</svg>