<?xml version="1.0" encoding="UTF-8" standalone="yes"?>
<svg version="1.1" width="64" height="64" color-interpolation="linearRGB"
     xmlns:svg="http://www.w3.org/2000/svg" xmlns="http://www.w3.org/2000/svg">
 <g>
  <path style="fill:#010101; fill-opacity:0.5725"
        d="M27 57L29 59L32.13 55.83L37 59L45.39 47.54L64 38L59 35L61 37L36 49L27 57z
           M58 34L62 31L58 29L55 32L58 34z"
  />
  <path style="fill:none; stroke:#010101; stroke-width:4"
        d="M6.25 30C6.25 30 11.87 36 16.87 42.5C21.87 49 26.25 55.75 26.25 55.75L59.12 36.87L32 15L6.25 30z"
  />
  <radialGradient id="gradient0" gradientUnits="userSpaceOnUse" cx="0" cy="0" r="64" gradientTransform="matrix(0.5714,0,0,0.3333,26,35)">
   <stop offset="1" stop-color="#fffcc0"/>
   <stop offset="0.4886" stop-color="#f1b706"/>
  </radialGradient>
  <path style="fill:url(#gradient0)"
        d="M6.25 30C6.25 30 11.87 36 16.87 42.5C21.87 49 26.25 55.75 26.25 55.75L59.12 36.87L32 15L6.25 30z"
  />
  <path style="fill:none; stroke:#010101; stroke-width:4"
        d="M2.62 30.87C2.62 30.87 10.95 36.26 19 41.87C27.44 47.75 35.75 52.75 35.75 52.75L58.12 26.37C58.12 26.37 45.44 20.7 35.37 15.37C30.18 12.62 26 9.37 26 9.37L2.62 30.87z"
  />
  <linearGradient id="gradient1" gradientUnits="userSpaceOnUse" x1="107.04" y1="-17.09" x2="118.33" y2="27.99">
   <stop offset="0" stop-color="#ffefa5"/>
   <stop offset="0.7424" stop-color="#fffcc0"/>
   <stop offset="1" stop-color="#fff890"/>
  </linearGradient>
  <path style="fill:url(#gradient1)"
        d="M2.62 30.87C2.62 30.87 10.95 36.26 19 41.87C27.44 47.75 35.75 52.75 35.75 52.75L58.12 26.37C58.12 26.37 45.44 20.7 35.37 15.37C30.18 12.62 26 9.37 26 9.37L2.62 30.87z"
  />
  <linearGradient id="gradient2" gradientUnits="userSpaceOnUse" x1="-47.14" y1="-15.78" x2="-28.46" y2="-37.85">
   <stop offset="0" stop-color="#010101"/>
   <stop offset="1" stop-color="#9e9e9e"/>
  </linearGradient>
  <path style="fill:none; stroke:url(#gradient2); stroke-width:1"
        d="M20 36L34.87 20.87
           M14 32L26.87 19
           M26 40L38.75 26.87
           M32 44L42.75 32.37"
  />
  <linearGradient id="gradient3" gradientUnits="userSpaceOnUse" x1="-47.14" y1="-15.78" x2="-28.46" y2="-37.85">
   <stop offset="0" stop-color="#010101"/>
   <stop offset="1" stop-color="#9e9e9e"/>
  </linearGradient>
  <path style="fill:none; stroke:url(#gradient3); stroke-width:1"
        d="M29 42L44 26.37
           M23 38L34.75 26.25
           M17 34L28.12 22.62"
  />
  <path style="fill:none; stroke:#010101; stroke-width:4"
        d="M16.3 28.01C13.97 28.12 11.8 28.87 9.95 30.05C9.95 30.05 9.9 31.29 10.44 32.13L11.53 33.84C10.13 34.9 9.06 36.34 8.48 38.04L6.56 37.54C5.6 37.29 4.43 37.69 4.43 37.69C4.15 38.72 4.02 39.83 4.02 40.95C4.02 42.15 4.17 43.29 4.46 44.38C4.46 44.38 5.62 44.79 6.6 44.52L8.52 43.99C9.11 45.63 10.18 47.08 11.55 48.11L10.47 49.79C9.94 50.63 9.98 51.88 9.98 51.88C11.82 53.06 13.98 53.79 16.31 53.9C16.31 53.9 17.04 52.95 17.09 51.95L17.18 49.93C19 49.9 20.68 49.31 22.09 48.36L23.34 49.91C23.97 50.68 25.15 51.04 25.15 51.04C26.88 49.63 28.25 47.79 29.09 45.65C29.09 45.65 28.4 44.68 27.47 44.31L25.59 43.56C25.84 42.75 25.97 41.86 25.97 40.97C25.97 40.09 25.86 39.26 25.63 38.45L27.49 37.76C28.43 37.4 29.13 36.37 29.13 36.37C28.33 34.22 26.95 32.34 25.2 30.92C25.2 30.92 24.04 31.28 23.4 32.05L22.15 33.62C20.75 32.63 19.04 32.04 17.18 32L17.09 29.97C17.06 28.97 16.31 28.01 16.31 28.01H16.3z
           M20 41C20 42.65 18.65 44 17 44C15.35 44 14 42.65 14 41C14 39.34 15.34 38 17 38C18.65 38 20 39.34 20 41z"
  />
  <linearGradient id="gradient4" gradientUnits="userSpaceOnUse" x1="21.96" y1="-0.01" x2="57.17" y2="22.58">
   <stop offset="0" stop-color="#fdfdfd"/>
   <stop offset="1" stop-color="#8d8d8d"/>
  </linearGradient>
  <path style="fill:url(#gradient4)"
        d="M16.3 28.01C13.97 28.12 11.8 28.87 9.95 30.05C9.95 30.05 9.9 31.29 10.44 32.13L11.53 33.84C10.13 34.9 9.06 36.34 8.48 38.04L6.56 37.54C5.6 37.29 4.43 37.69 4.43 37.69C4.15 38.72 4.02 39.83 4.02 40.95C4.02 42.15 4.17 43.29 4.46 44.38C4.46 44.38 5.62 44.79 6.6 44.52L8.52 43.99C9.11 45.63 10.18 47.08 11.55 48.11L10.47 49.79C9.94 50.63 9.98 51.88 9.98 51.88C11.82 53.06 13.98 53.79 16.31 53.9C16.31 53.9 17.04 52.95 17.09 51.95L17.18 49.93C19 49.9 20.68 49.31 22.09 48.36L23.34 49.91C23.97 50.68 25.15 51.04 25.15 51.04C26.88 49.63 28.25 47.79 29.09 45.65C29.09 45.65 28.4 44.68 27.47 44.31L25.59 43.56C25.84 42.75 25.97 41.86 25.97 40.97C25.97 40.09 25.86 39.26 25.63 38.45L27.49 37.76C28.43 37.4 29.13 36.37 29.13 36.37C28.33 34.22 26.95 32.34 25.2 30.92C25.2 30.92 24.04 31.28 23.4 32.05L22.15 33.62C20.75 32.63 19.04 32.04 17.18 32L17.09 29.97C17.06 28.97 16.31 28.01 16.31 28.01H16.3z
           M20 41C20 42.65 18.65 44 17 44C15.35 44 14 42.65 14 41C14 39.34 15.34 38 17 38C18.65 38 20 39.34 20 41z"
  />
 </g>
</svg>
