<?xml version="1.0" encoding="UTF-8" standalone="no"?>
<!-- Generator: Adobe Illustrator 10.0.3, SVG Export Plug-In . SVG Version: 3.0.0 Build 77)  -->

<svg
   xmlns:a="http://ns.adobe.com/AdobeSVGViewerExtensions/3.0/"
   xmlns:dc="http://purl.org/dc/elements/1.1/"
   xmlns:cc="http://creativecommons.org/ns#"
   xmlns:rdf="http://www.w3.org/1999/02/22-rdf-syntax-ns#"
   xmlns:svg="http://www.w3.org/2000/svg"
   xmlns="http://www.w3.org/2000/svg"
   xmlns:xlink="http://www.w3.org/1999/xlink"
   xmlns:sodipodi="http://sodipodi.sourceforge.net/DTD/sodipodi-0.dtd"
   xmlns:inkscape="http://www.inkscape.org/namespaces/inkscape"
   width="32"
   height="32"
   viewBox="-0.033 -0.097 121 122"
   overflow="visible"
   enable-background="new -0.033 -0.097 121 122"
   xml:space="preserve"
   id="svg2"
   sodipodi:version="0.32"
   inkscape:version="0.47 r22583"
   sodipodi:docname="view-refresh.svg"
   inkscape:output_extension="org.inkscape.output.svg.inkscape"
   version="1.0"
   style="overflow:visible"><metadata
   id="metadata56"><rdf:RDF><cc:Work
       rdf:about=""><dc:format>image/svg+xml</dc:format><dc:type
         rdf:resource="http://purl.org/dc/dcmitype/StillImage" /><dc:title /></cc:Work></rdf:RDF></metadata><defs
   id="defs54"><linearGradient
   inkscape:collect="always"
   id="linearGradient3712"><stop
     style="stop-color:#000000;stop-opacity:1;"
     offset="0"
     id="stop3714" /><stop
     style="stop-color:#000000;stop-opacity:0;"
     offset="1"
     id="stop3716" /></linearGradient><inkscape:perspective
   sodipodi:type="inkscape:persp3d"
   inkscape:vp_x="0 : 24 : 1"
   inkscape:vp_y="0 : 1000 : 0"
   inkscape:vp_z="48 : 24 : 1"
   inkscape:persp3d-origin="24 : 16 : 1"
   id="perspective58" />
		
		<radialGradient
   gradientUnits="userSpaceOnUse"
   fy="8.1055"
   fx="8.9658"
   r="13.6202"
   cy="8.1055"
   cx="8.9658"
   id="radialGradient1898">
			<stop
   id="stop1900"
   style="stop-color:#FED182"
   offset="0" />
			<stop
   id="stop1902"
   style="stop-color:#FFB310"
   offset="0.2809" />
			<stop
   id="stop1904"
   style="stop-color:#996E04"
   offset="1" />
		</radialGradient>
		
	
		
		
		
		
		<radialGradient
   gradientUnits="userSpaceOnUse"
   fy="6.8301"
   fx="13.2129"
   r="8.4458"
   cy="6.8301"
   cx="13.2129"
   id="radialGradient1906"
   gradientTransform="translate(3.584,3.2)">
			<stop
   id="stop26"
   style="stop-color:#FFFFFF"
   offset="0" />
			<stop
   id="stop28"
   style="stop-color:#F0E1BD"
   offset="1" />
		</radialGradient>
		
		<radialGradient
   gradientUnits="userSpaceOnUse"
   fy="11.7568"
   fx="8.1943"
   r="8.4446"
   cy="11.7568"
   cx="8.1943"
   id="aigrd3">
			<stop
   id="stop33"
   style="stop-color:#FFFFFF"
   offset="0" />
			<stop
   id="stop35"
   style="stop-color:#F0E1BD"
   offset="1" />
		</radialGradient>
		
	
		
	<radialGradient
   id="aigrd2"
   cx="9.855"
   cy="8.4395"
   r="12.0506"
   fx="9.855"
   fy="8.4395"
   gradientUnits="userSpaceOnUse">
			<stop
   offset="0"
   style="stop-color:#FFFFFF"
   id="stop22" />
			<stop
   offset="1"
   style="stop-color:#F0E1BD"
   id="stop24" />
		</radialGradient>
		
	
		
		
		<radialGradient
   id="aigrd1"
   cx="8.7515"
   cy="7.9038"
   r="13.7593"
   fx="8.7515"
   fy="7.9038"
   gradientUnits="userSpaceOnUse">
			<stop
   offset="0"
   style="stop-color:#FED182"
   id="stop8-2" />
			<stop
   offset="0.2809"
   style="stop-color:#FFB310"
   id="stop10-1" />
			<stop
   offset="1"
   style="stop-color:#996E04"
   id="stop12-0" />
		</radialGradient>
		
		<inkscape:perspective
   id="perspective29"
   inkscape:persp3d-origin="15 : 10 : 1"
   inkscape:vp_z="30 : 15 : 1"
   inkscape:vp_y="0 : 1000 : 0"
   inkscape:vp_x="0 : 15 : 1"
   sodipodi:type="inkscape:persp3d" />
		
		<linearGradient
   y2="66.058502"
   x2="103.745"
   y1="30.3428"
   x1="25.819799"
   gradientUnits="userSpaceOnUse"
   id="XMLID_1_">
			<stop
   id="stop8"
   style="stop-color:#ffab15;stop-opacity:1;"
   offset="0" />
			<stop
   id="stop10"
   style="stop-color:#f8e414;stop-opacity:1;"
   offset="0.30899999" />
			<stop
   id="stop12"
   style="stop-color:#ffd949;stop-opacity:1;"
   offset="1" />
		</linearGradient>
		
		
		
		
		
		
		<linearGradient
   y2="84.4646"
   x2="43.597099"
   y1="84.938499"
   x1="46.0532"
   gradientUnits="userSpaceOnUse"
   id="XMLID_2_">
			<stop
   id="stop27"
   style="stop-color:#FFFFFF"
   offset="0" />
			<stop
   id="stop29"
   style="stop-color:#CCCCCC"
   offset="1" />
		</linearGradient>
		
		
		<linearGradient
   y2="64.203903"
   x2="61.155899"
   y1="66.057602"
   x1="70.762703"
   gradientUnits="userSpaceOnUse"
   id="XMLID_3_">
			<stop
   id="stop36"
   style="stop-color:#FFFFFF"
   offset="0" />
			<stop
   id="stop38"
   style="stop-color:#CCCCCC"
   offset="1" />
		</linearGradient>
		
		
		
		<linearGradient
   y2="96.055702"
   x2="52.383301"
   y1="35.398399"
   x1="52.383301"
   gradientUnits="userSpaceOnUse"
   id="XMLID_4_">
			<stop
   id="stop47"
   style="stop-color:#FFFFFF"
   offset="0" />
			<stop
   id="stop49"
   style="stop-color:#000000"
   offset="1" />
		</linearGradient>
		
	<linearGradient
   inkscape:collect="always"
   xlink:href="#XMLID_4_"
   id="linearGradient2906"
   gradientUnits="userSpaceOnUse"
   x1="52.383301"
   y1="35.398399"
   x2="52.383301"
   y2="96.055702"
   gradientTransform="matrix(0.98977546,0,0,0.98977546,0.30349576,0.79648951)" /><linearGradient
   inkscape:collect="always"
   xlink:href="#XMLID_1_"
   id="linearGradient2923"
   gradientUnits="userSpaceOnUse"
   x1="25.819799"
   y1="30.3428"
   x2="103.745"
   y2="66.058502"
   gradientTransform="matrix(0.98977546,0,0,0.98977546,0.30349596,0.79648951)" /><radialGradient
   inkscape:collect="always"
   xlink:href="#linearGradient3712"
   id="radialGradient3720"
   cx="52.459103"
   cy="67.753662"
   fx="52.459103"
   fy="67.753662"
   r="48.100216"
   gradientTransform="matrix(1.0285509,0,0,1.0505826,-1.7247891,-2.6642635)"
   gradientUnits="userSpaceOnUse" /></defs><sodipodi:namedview
   inkscape:window-height="906"
   inkscape:window-width="1106"
   inkscape:pageshadow="2"
   inkscape:pageopacity="0.0"
   guidetolerance="10.0"
   gridtolerance="10.0"
   objecttolerance="10.0"
   borderopacity="1.0"
   bordercolor="#666666"
   pagecolor="#ffffff"
   id="base"
   showgrid="false"
   inkscape:zoom="10.240274"
   inkscape:cx="32.052689"
   inkscape:cy="15.826527"
   inkscape:window-x="85"
   inkscape:window-y="43"
   inkscape:current-layer="svg2"
   inkscape:window-maximized="1" />
	<path
   id="path5"
   d="M 30.958822,10.572502 15.034324,24.933154 c -0.06928,0.06433 -0.477071,0.446388 -0.477071,0.446388 C 5.3652075,33.282899 0.30349596,44.982046 0.30349596,58.32224 c 0,28.329353 23.02316704,56.16876 51.32381704,62.0609 15.722583,3.27516 30.516757,-0.68295 40.587723,-10.86179 -0.06731,0.0614 16.288734,-14.688273 16.288734,-14.688273 l 0.0653,-0.0584 0.0614,-0.06236 C 116.29633,86.928717 120.51871,76.007535 120.51871,63.959988 120.51865,35.632627 97.494494,7.7922224 69.194838,1.9000891 54.819339,-1.0929918 40.88429,2.0673612 30.958822,10.572502 z" /><path
   style="fill:url(#linearGradient2923)"
   id="path14"
   d="m 16.533834,27.577834 c 8.930744,-7.651954 21.620656,-10.950876 35.697242,-8.02114 27.039675,5.629842 48.959244,32.113265 48.959244,59.15294 0,11.748635 -4.137262,21.668166 -11.034017,28.668846 L 106.51432,92.627857 c 6.89676,-7.001672 11.03402,-16.921201 11.03402,-28.668847 0,-27.039676 -21.919569,-53.523097 -48.960235,-59.1529401 C 54.511519,1.8753447 41.822597,5.1742664 32.890863,12.82721 L 16.533834,27.577834 z" /><path
   style="fill:#ffd400;fill-opacity:1;stroke:url(#radialGradient3720);stroke-width:1.02855086;stroke-opacity:1"
   id="path16"
   d="m 101.19131,78.710625 c 0,27.039665 -21.919569,44.395385 -48.959245,38.764555 C 25.19239,111.84533 3.2728223,85.360926 3.2728223,58.32224 c 0,-27.040666 21.9195677,-44.394399 48.9582537,-38.764557 27.039675,5.629843 48.960234,32.112276 48.960234,59.152942 z" />
<g
   id="g1946"
   transform="matrix(4.9016877,1.624569,0,4.9016877,-125.82539,-46.36062)"><path
     style="fill-rule:evenodd;stroke:none"
     d="m 38.527603,5.0038611 c 0,-0.1 -0.1,-0.1 -0.1,0 l -3.8,3.8 c -0.1,0.1 -0.1,0.2 0,0.2 l 3.8,3.7999999 c 0,0 0.1,0 0.1,0 l 0,-2.3 1,0 c 0.3,0 1.2,0.2 1.2,1 l 0,1 c 0,0.9 -1.7,1.2 -1.7,1.5 0,0.3 0.4,0.4 0.4,0.4 l 1.3,0 c 1.3,0 2,-1.2 2,-2.4 l 0,-1.7 c 0,-1.9999999 -1.1,-2.9999999 -2.7,-2.9999999 l -1.5,0 0,-2.3 0,0 z"
     id="path1917" /><path
     style="fill-rule:evenodd;stroke:none"
     d="m 33.727603,19.303861 c 0,0.1 0.1,0.1 0.1,0 l 3.8,-3.8 c 0.1,-0.1 0.1,-0.2 0,-0.2 l -3.8,-3.8 c 0,0 -0.1,0 -0.1,0 l 0,2.3 -1,0 c -0.3,0 -1.2,-0.2 -1.2,-1 l 0,-1 c 0,-0.9 1.7,-1.2 1.7,-1.5 0,-0.3 -0.4,-0.3999999 -0.4,-0.3999999 l -1.3,0 c -1.3,0 -2,1.1999999 -2,2.3999999 l 0,1.7 c 0,2 1.1,3 2.7,3 l 1.5,0 0,2.3 z"
     id="path19" /></g><path
   style="opacity:0.3;fill:url(#linearGradient2906)"
   id="path51"
   d="M 18.692533,28.764575 C 10.228964,35.647473 5.5681117,46.145032 5.5681117,58.32224 c 0,1.042233 0.051468,2.129007 0.1286706,3.234586 18.5167197,-9.177198 38.5260197,-1.561866 57.9018647,5.827798 7.849909,2.99308 15.265306,5.821858 22.601523,7.606424 4.155077,1.039265 8.451692,1.197629 12.535506,0.545367 C 97.959692,63.722455 92.948459,51.809517 84.454206,41.846437 75.609572,31.469631 63.999506,24.352156 51.763902,21.804473 39.178906,19.184538 27.435222,21.655018 18.692533,28.764575 z"
   a:adobe-blending-mode="screen" /></svg>