<?xml version="1.0" encoding="UTF-8" standalone="yes"?>
<svg version="1.1" width="64" height="64" color-interpolation="linearRGB"
     xmlns:svg="http://www.w3.org/2000/svg" xmlns="http://www.w3.org/2000/svg">
 <g>
  <path style="fill:#010000; fill-opacity:0.4156"
        d="M28 60H32L34 62H40L42 60L38 58L37 43L28 60z"
        transform="matrix(0.9473,0,0,1,24.2105,-20)"
  />
  <path style="fill:#010000; fill-opacity:0.4156"
        d="M28 60H32L34 62H40L42 60L38 58L37 43L28 60z"
        transform="matrix(0.9473,0,0,1,16.6315,-14)"
  />
  <path style="fill:#010000; fill-opacity:0.4156"
        d="M28 60H32L34 62H40L42 60L38 58L37 43L28 60z"
        transform="matrix(0.9473,0,0,1,9.0526,-6)"
  />
  <path style="fill:#010000; fill-opacity:0.4156"
        d="M28 60H32L34 62H40L42 60L38 58L37 43L28 60z"
        transform="matrix(0.9473,0,0,1,1.4736,0)"
  />
  <path style="fill:none; stroke:#010000; stroke-width:4"
        d="M34 14L4 40V46L28 58L58 28V22L49 19C48 20 45 20 43 19C41 18 40 17 41 16L34 14z"
  />
  <path style="fill:#333333"
        d="M28 58L58 28V22L28 50V58z"
  />
  <linearGradient id="gradient0" gradientUnits="userSpaceOnUse" x1="19.72" y1="26.9" x2="38.64" y2="42.79">
   <stop offset="0" stop-color="#747474"/>
   <stop offset="1" stop-color="#3e3d3d"/>
  </linearGradient>
  <path style="fill:url(#gradient0)"
        d="M4 46L28 58V50L4 40V46z"
  />
  <linearGradient id="gradient1" gradientUnits="userSpaceOnUse" x1="51.18" y1="11.2" x2="59.72" y2="35.74">
   <stop offset="0" stop-color="#b0b0b0"/>
   <stop offset="1" stop-color="#838383"/>
  </linearGradient>
  <path style="fill:url(#gradient1)"
        d="M34 14L4 40L28 50L58 22L49 19C48 20 45 20 43 19C41 18 40 17 41 16L34 14z"
  />
  <path style="fill:none; stroke:#010000; stroke-width:4; stroke-linecap:round; stroke-linejoin:round"
        d="M34 48L30 52C30 52 31 52.5 32 53C33 53.5 34 54.85 34 55.99C34 58.36 34.99 61 34.99 61L37 58.99C37 58.99 38 54.36 38 51.99C38 50.85 37 49.5 36 49C35 48.5 34 48 34 48z"
        transform="matrix(0.9444,0,0,0.9023,24.2236,-15.5054)"
  />
  <linearGradient id="gradient2" gradientUnits="userSpaceOnUse" x1="44.86" y1="36.73" x2="50.72" y2="42.17">
   <stop offset="0" stop-color="#5a5a5a"/>
   <stop offset="0.2234" stop-color="#dcdcdc"/>
   <stop offset="1" stop-color="#7e7e7e"/>
  </linearGradient>
  <path style="fill:url(#gradient2)"
        d="M34 48L30 52C30 52 31 52.5 32 53C33 53.5 34 54.85 34 55.99C34 58.36 34.99 61 34.99 61L37 58.99C37 58.99 38 54.36 38 51.99C38 50.85 37 49.5 36 49C35 48.5 34 48 34 48z"
        transform="matrix(0.9444,0,0,0.9023,24.2236,-15.5054)"
  />
  <path style="fill:none; stroke:#010000; stroke-width:4; stroke-linecap:round; stroke-linejoin:round"
        d="M34 48L30 52C30 52 31 52.5 32 53C33 53.5 34 54.85 34 55.99C34 58.36 34.99 61 34.99 61L37 58.99C37 58.99 38 54.36 38 51.99C38 50.85 37 49.5 36 49C35 48.5 34 48 34 48z"
        transform="matrix(0.9444,0,0,0.9023,16.6683,-8.2866)"
  />
  <linearGradient id="gradient3" gradientUnits="userSpaceOnUse" x1="44.86" y1="36.73" x2="50.72" y2="42.17">
   <stop offset="0" stop-color="#5a5a5a"/>
   <stop offset="0.2234" stop-color="#dcdcdc"/>
   <stop offset="1" stop-color="#7e7e7e"/>
  </linearGradient>
  <path style="fill:url(#gradient3)"
        d="M34 48L30 52C30 52 31 52.5 32 53C33 53.5 34 54.85 34 55.99C34 58.36 34.99 61 34.99 61L37 58.99C37 58.99 38 54.36 38 51.99C38 50.85 37 49.5 36 49C35 48.5 34 48 34 48z"
        transform="matrix(0.9444,0,0,0.9023,16.6683,-8.2866)"
  />
  <path style="fill:none; stroke:#010000; stroke-width:4; stroke-linecap:round; stroke-linejoin:round"
        d="M34 48L30 52C30 52 31 52.5 32 53C33 53.5 34 54.85 34 55.99C34 58.36 34.99 61 34.99 61L37 58.99C37 58.99 38 54.36 38 51.99C38 50.85 37 49.5 36 49C35 48.5 34 48 34 48z"
        transform="matrix(0.9444,0,0,0.9023,9.1131,-1.0678)"
  />
  <linearGradient id="gradient4" gradientUnits="userSpaceOnUse" x1="44.86" y1="36.73" x2="50.72" y2="42.17">
   <stop offset="0" stop-color="#5a5a5a"/>
   <stop offset="0.2234" stop-color="#dcdcdc"/>
   <stop offset="1" stop-color="#7e7e7e"/>
  </linearGradient>
  <path style="fill:url(#gradient4)"
        d="M34 48L30 52C30 52 31 52.5 32 53C33 53.5 34 54.85 34 55.99C34 58.36 34.99 61 34.99 61L37 58.99C37 58.99 38 54.36 38 51.99C38 50.85 37 49.5 36 49C35 48.5 34 48 34 48z"
        transform="matrix(0.9444,0,0,0.9023,9.1131,-1.0678)"
  />
  <path style="fill:none; stroke:#010000; stroke-width:4; stroke-linecap:round; stroke-linejoin:round"
        d="M34 48L30 52C30 52 31 52.5 32 53C33 53.5 34 54.85 34 55.99C34 58.36 34.99 61 34.99 61L37 58.99C37 58.99 38 54.36 38 51.99C38 50.85 37 49.5 36 49C35 48.5 34 48 34 48z"
        transform="matrix(0.9444,0,0,0.9023,1.5578,6.1508)"
  />
  <linearGradient id="gradient5" gradientUnits="userSpaceOnUse" x1="44.86" y1="36.73" x2="50.72" y2="42.17">
   <stop offset="0" stop-color="#5a5a5a"/>
   <stop offset="0.2234" stop-color="#dcdcdc"/>
   <stop offset="1" stop-color="#7e7e7e"/>
  </linearGradient>
  <path style="fill:url(#gradient5)"
        d="M34 48L30 52C30 52 31 52.5 32 53C33 53.5 34 54.85 34 55.99C34 58.36 34.99 61 34.99 61L37 58.99C37 58.99 38 54.36 38 51.99C38 50.85 37 49.5 36 49C35 48.5 34 48 34 48z"
        transform="matrix(0.9444,0,0,0.9023,1.5578,6.1508)"
  />
 </g>
</svg>
