<?xml version="1.0" encoding="UTF-8" standalone="yes"?>
<svg version="1.1" width="64" height="64" color-interpolation="linearRGB"
     xmlns:svg="http://www.w3.org/2000/svg" xmlns="http://www.w3.org/2000/svg">
 <g>
  <path style="fill:#000000; fill-opacity:0.4431"
        d="M62 50L50 44L40 64H48C54 64 68 53 62 50z"
  />
  <path style="fill:none; stroke:#000000; stroke-width:4"
        d="M49.32 53.16C49.75 52.63 50 51.91 50 51V32C50 21.51 43.94 10.97 34 6C27.77 2.87 22 4 18.06 5.92C14 8 9.56 12.41 9.56 12.41C7.32 14.46 6 17.71 6 21.98V40.98C6 43.73 8.24 47.09 11.01 48.48L37.01 61.5C38.87 62.43 40.48 62.22 41.35 61.16L49.32 53.16z"
  />
  <linearGradient id="gradient0" gradientUnits="userSpaceOnUse" x1="65.99" y1="-81.76" x2="122.5" y2="-25.25">
   <stop offset="0.2549" stop-color="#04a3a5"/>
   <stop offset="0.5215" stop-color="#b3feff"/>
   <stop offset="0.8823" stop-color="#026667"/>
   <stop offset="1" stop-color="#037072"/>
  </linearGradient>
  <path style="fill:url(#gradient0)"
        d="M49.32 53.16C49.75 52.63 50 51.91 50 51V32C50 21.51 43.94 10.97 34 6C27.77 2.87 22 4 18.06 5.92C14 8 9.56 12.41 9.56 12.41L41.35 61.16L49.32 53.16z"
  />
  <linearGradient id="gradient1" gradientUnits="userSpaceOnUse" x1="76.8" y1="-54.65" x2="115.02" y2="-11.7">
   <stop offset="0" stop-color="#30a3a5"/>
   <stop offset="0.4862" stop-color="#40c5c7"/>
   <stop offset="1" stop-color="#28a3a5"/>
  </linearGradient>
  <path style="fill:url(#gradient1)"
        d="M24 12C14.05 7.01 6 11.48 6 21.98V40.98C6 43.73 8.24 47.09 11.01 48.48L37.01 61.5C39.77 62.88 42.01 61.77 42.02 59V40C42 29.51 33.93 16.97 24 12H24z"
  />
  <linearGradient id="gradient2" gradientUnits="userSpaceOnUse" x1="15.05" y1="6.93" x2="44.01" y2="35.9">
   <stop offset="0" stop-color="#9beff0"/>
   <stop offset="0.247" stop-color="#ffffff"/>
   <stop offset="1" stop-color="#04a8aa"/>
  </linearGradient>
  <path style="fill:url(#gradient2)"
        d="M24 12C33.31 16.65 40.97 27.97 41.92 38C41.9 27.51 35.93 14.97 26 10H26C19.28 6.62 13.43 7.58 10.34 11.78C13.63 9.38 18.52 9.25 24 12V12z"
  />
  <path style="fill:#000000"
        d="M24 16C31.72 19.86 38 29.71 38 38C38 46.29 31.73 49.86 24.01 46C16.29 42.12 10 32.26 10 23.98C10 15.69 16.25 12.11 24 16z"
  />
  <radialGradient id="gradient3" gradientUnits="userSpaceOnUse" cx="0" cy="0" r="64" gradientTransform="matrix(0.2968,0,0,0.3593,26,33)">
   <stop offset="0" stop-color="#f8f8ff"/>
   <stop offset="1" stop-color="#9898ff"/>
  </radialGradient>
  <path style="fill:url(#gradient3)"
        d="M24 18C17.36 14.67 12 17.8 12 24.98C12 32.16 17.38 40.67 24.01 44C30.64 47.31 36.01 44.18 36.02 37C36 29.82 30.61 21.31 24 18z"
  />
  <path style="fill:#ffffff"
        d="M16 28.98C16 22.91 20.47 20.22 26 23C28.1 24.04 30.05 25.73 31.67 27.76C29.82 24.44 27.06 21.53 24 20C18.48 17.22 14 19.91 14.01 25.98C14.01 29.74 15.73 33.92 18.36 37.21C16.89 34.57 16 31.67 16.01 28.98H16z
           M29 26.94C27.58 26.23 26.44 26.81 26.45 28.21C26.45 29.62 27.59 31.34 29.01 32.04C30.43 32.75 31.56 32.17 31.56 30.77C31.55 29.36 30.41 27.64 29.01 26.94H29z"
  />
  <linearGradient id="gradient4" gradientUnits="userSpaceOnUse" x1="74.63" y1="-48.18" x2="79.77" y2="-44.53">
   <stop offset="0" stop-color="#dadada"/>
   <stop offset="1" stop-color="#000000"/>
  </linearGradient>
  <path style="fill:none; stroke:url(#gradient4); stroke-width:3; stroke-linecap:round; stroke-linejoin:round"
        d="M33 34C33 34 34.04 28.09 31 30C27.94 31.89 28 37 28 37C28 37 36.54 37.85 37 33C37.3 29.54 38 25 32 25C27 25 20.35 33.93 24 40C27 45 38 39 38 39
           M20 32H22
           M42 32H44
           M32 42V44
           M32 20V22"
        transform="matrix(0.7484,0.4784,0.0261,0.8247,-0.7028,-10.2605)"
  />
 </g>
</svg>
