<?xml version="1.0" encoding="UTF-8" standalone="no"?>
<svg
   xmlns:dc="http://purl.org/dc/elements/1.1/"
   xmlns:cc="http://creativecommons.org/ns#"
   xmlns:rdf="http://www.w3.org/1999/02/22-rdf-syntax-ns#"
   xmlns:svg="http://www.w3.org/2000/svg"
   xmlns="http://www.w3.org/2000/svg"
   xmlns:sodipodi="http://sodipodi.sourceforge.net/DTD/sodipodi-0.dtd"
   xmlns:inkscape="http://www.inkscape.org/namespaces/inkscape"
   viewBox="0 0 22 22"
   id="svg2"
   version="1.1"
   inkscape:version="0.91 r13725"
   sodipodi:docname="accept_signal.svg">
  <metadata
     id="metadata10">
    <rdf:RDF>
      <cc:Work
         rdf:about="">
        <dc:format>image/svg+xml</dc:format>
        <dc:type
           rdf:resource="http://purl.org/dc/dcmitype/StillImage" />
      </cc:Work>
    </rdf:RDF>
  </metadata>
  <sodipodi:namedview
     pagecolor="#ffffff"
     bordercolor="#666666"
     borderopacity="1"
     objecttolerance="10"
     gridtolerance="10"
     guidetolerance="10"
     inkscape:pageopacity="0"
     inkscape:pageshadow="2"
     inkscape:window-width="1920"
     inkscape:window-height="1016"
     id="namedview8"
     showgrid="false"
     inkscape:zoom="32.475142"
     inkscape:cx="11"
     inkscape:cy="11"
     inkscape:window-x="0"
     inkscape:window-y="30"
     inkscape:window-maximized="1"
     inkscape:current-layer="svg2" />
  <defs
     id="defs3051">
    <style
       type="text/css"
       id="current-color-scheme">
      .ColorScheme-Text {
        color:#4d4d4d;
      }
      </style>
  </defs>
  <path
     style="color:#4d4d4d;fill:#ff0000;fill-opacity:1;stroke:none;stroke-opacity:1"
     d="M 3.03125,3 3,3.0175781 3,3.9003906 7.7402344,11 3,18.101562 3,18.984375 3.0273438,19 3.3007812,19 3.6601562,19 8,19 8.3007812,19 18,19 19,19 19,4 19,3 8.3007812,3 3.65625,3 Z"
     class="ColorScheme-Text"
     id="path6-3"
     inkscape:connector-curvature="0"
     sodipodi:nodetypes="cccccccccccccccccc" />
  <path
     style="fill:#000000;fill-opacity:1;stroke:none"
     d="M 3.03125 3 L 3 3.0175781 L 3 3.9003906 L 7.7402344 11 L 3 18.101562 L 3 18.984375 L 3.0273438 19 L 3.3007812 19 L 3.6601562 19 L 8 19 L 8.3007812 19 L 18 19 L 19 19 L 19 4 L 19 3 L 8.3007812 3 L 3.65625 3 L 3.03125 3 z M 4.3242188 4 L 8.3007812 4 L 18 4 L 18 18 L 8.3007812 18 L 8 18 L 4.328125 18 L 9 11 L 4.3242188 4 z "
     class="ColorScheme-Text"
     id="path6"
     transform="matrix(1 0 0 1 0 0)" />
</svg>
