<?xml version="1.0" encoding="UTF-8" standalone="no"?>
<svg
   xmlns:dc="http://purl.org/dc/elements/1.1/"
   xmlns:cc="http://creativecommons.org/ns#"
   xmlns:rdf="http://www.w3.org/1999/02/22-rdf-syntax-ns#"
   xmlns:svg="http://www.w3.org/2000/svg"
   xmlns="http://www.w3.org/2000/svg"
   xmlns:sodipodi="http://sodipodi.sourceforge.net/DTD/sodipodi-0.dtd"
   xmlns:inkscape="http://www.inkscape.org/namespaces/inkscape"
   version="1.1"
   width="64"
   height="64"
   color-interpolation="linearRGB"
   id="svg2"
   inkscape:version="0.47 r22583"
   sodipodi:docname="person.svg">
  <metadata
     id="metadata62">
    <rdf:RDF>
      <cc:Work
         rdf:about="">
        <dc:format>image/svg+xml</dc:format>
        <dc:type
           rdf:resource="http://purl.org/dc/dcmitype/StillImage" />
        <dc:title></dc:title>
      </cc:Work>
    </rdf:RDF>
  </metadata>
  <defs
     id="defs60">
    <inkscape:perspective
       sodipodi:type="inkscape:persp3d"
       inkscape:vp_x="0 : 32 : 1"
       inkscape:vp_y="0 : 1000 : 0"
       inkscape:vp_z="64 : 32 : 1"
       inkscape:persp3d-origin="32 : 21.333333 : 1"
       id="perspective64" />
  </defs>
  <sodipodi:namedview
     pagecolor="#ffffff"
     bordercolor="#666666"
     borderopacity="1"
     objecttolerance="10"
     gridtolerance="10"
     guidetolerance="10"
     inkscape:pageopacity="0"
     inkscape:pageshadow="2"
     inkscape:window-width="1280"
     inkscape:window-height="800"
     id="namedview58"
     showgrid="false"
     inkscape:zoom="3.6875"
     inkscape:cx="-49.908521"
     inkscape:cy="49.772881"
     inkscape:window-x="-4"
     inkscape:window-y="-26"
     inkscape:window-maximized="0"
     inkscape:current-layer="svg2" />
  <g
     id="g4">
    <path
       style="fill:#010101; fill-opacity:0.4235"
       d="M28 64C28 64 33 64 38 64C43 64 48.2 60.96 52.75 61.12C63.12 61.5 67.25 56.37 60.87 54.37C57.04 53.17 52 53.25 49.12 51.25C45.45 48.69 38 48 38 48V55L28 64z"
       id="path6" />
    <path
       style="fill:none; stroke:#000000; stroke-width:4"
       d="M12 18V35L16 39V56L20 58L22 58L23 59.5L28 62L36 54V43L40 39V21L21 12L12 18z"
       id="path8" />
    <linearGradient
       id="gradient0"
       gradientUnits="userSpaceOnUse"
       x1="73.74"
       y1="-57.07"
       x2="116.61"
       y2="-8.05">
      <stop
         offset="0"
         stop-color="#ffdb97"
         id="stop11" />
      <stop
         offset="1"
         stop-color="#fcaf29"
         id="stop13" />
    </linearGradient>
    <path
       style="fill:url(#gradient0)"
       d="M12 18V35L16 39V56L20 58L22 58L23 59.5L28 62V45H32V27L12 18z"
       id="path15" />
    <linearGradient
       id="gradient1"
       gradientUnits="userSpaceOnUse"
       x1="-43.97"
       y1="-33.98"
       x2="-24.83"
       y2="-51.95">
      <stop
         offset="0"
         stop-color="#fff7ea"
         id="stop18" />
      <stop
         offset="0.9962"
         stop-color="#fdd17b"
         id="stop20" />
    </linearGradient>
    <path
       style="fill:url(#gradient1)"
       d="M12 18L32 27L40 21L26 20L31.99 16.99L21 12L12 18z"
       id="path22" />
    <linearGradient
       id="gradient2"
       gradientUnits="userSpaceOnUse"
       x1="54.23"
       y1="-52.61"
       x2="75.84"
       y2="-45.97">
      <stop
         offset="0"
         stop-color="#c85805"
         id="stop25" />
      <stop
         offset="1"
         stop-color="#f06306"
         id="stop27" />
    </linearGradient>
    <path
       style="fill:url(#gradient2)"
       d="M32 45H28V62L36 54V43L40 39V21L32 27V45z"
       id="path29" />
    <path
       style="fill:#a32904"
       d="M28 45V51L36 43L32 45H28z"
       id="path31" />
    <linearGradient
       id="gradient3"
       gradientUnits="userSpaceOnUse"
       x1="28.92"
       y1="-64"
       x2="39.07"
       y2="-64">
      <stop
         offset="0"
         stop-color="#c85804"
         id="stop34" />
      <stop
         offset="1"
         stop-color="#dc952f"
         id="stop36" />
    </linearGradient>
    <path
       style="fill:url(#gradient3)"
       d="M26 20L40 21L32 17L26 20z"
       id="path38" />
    <path
       style="fill:none; stroke:#000000; stroke-width:4"
       d="M26 2C22 2 18 6 18 10C18 14 22 18 26 18C30 18 34 14 34 10C34 6 30 2 26 2z"
       id="path40" />
    <radialGradient
       id="gradient4"
       gradientUnits="userSpaceOnUse"
       cx="0"
       cy="0"
       r="64"
       gradientTransform="matrix(0.2361,0,0,0.2321,22.625,6.375)">
      <stop
         offset="0"
         stop-color="#f2f2f2"
         id="stop43" />
      <stop
         offset="1"
         stop-color="#bca184"
         id="stop45" />
      <stop
         offset="0.6742"
         stop-color="#7d7a7a"
         id="stop47" />
    </radialGradient>
    <path
       style="fill:url(#gradient4)"
       d="M26 2C22 2 18 6 18 10C18 14 22 18 26 18C30 18 34 14 34 10C34 6 30 2 26 2z"
       id="path49" />
    <linearGradient
       id="gradient5"
       gradientUnits="userSpaceOnUse"
       x1="54.23"
       y1="-52.61"
       x2="75.84"
       y2="-45.97">
      <stop
         offset="0"
         stop-color="#c85805"
         id="stop52" />
      <stop
         offset="1"
         stop-color="#f06306"
         id="stop54" />
    </linearGradient>
    <path
       style="fill:url(#gradient5)"
       d="M20 58H22V44L20 43V58z"
       id="path56" />
  </g>
  <g
     style="font-size:40px;font-style:normal;font-variant:normal;font-weight:normal;font-stretch:normal;fill:#000000;fill-opacity:1;stroke:none;font-family:FreeSans;-inkscape-font-specification:FreeSans"
     id="text3808"
     transform="matrix(1.0731947,0,0,1.0731947,174.78136,21.926135)">
    <path
       d="m -104.38576,-10.298983 c -2e-5,1.2266878 -0.25335,2.3333534 -0.76,3.3200004 -0.48002,0.9866843 -1.06668,1.8133502 -1.76,2.48 -0.69335,0.6400155 -1.40001,1.2666816 -2.12,1.88 -0.69335,0.5866804 -1.29335,1.2666797 -1.8,2.04000002 -0.48001,0.74667816 -0.72001,1.54667736 -0.72,2.39999998 l 0,1.88 -3.6,0 0,-2.2 c -1e-5,-0.9866555 0.23999,-1.9199879 0.72,-2.8 0.50666,-0.8799861 1.10666,-1.6399854 1.8,-2.28 0.71999,-0.6399841 1.42666,-1.2799835 2.12,-1.92 0.69332,-0.6399822 1.27999,-1.3599815 1.76,-2.16 0.50665,-0.8266465 0.75999,-1.7066456 0.76,-2.6400004 -1e-5,-1.359976 -0.46668,-2.453309 -1.4,-3.28 -0.93335,-0.853307 -2.17334,-1.279973 -3.72,-1.28 -1.94667,2.7e-5 -3.29334,0.546693 -4.04,1.64 -0.74667,1.093358 -1.12,2.626689 -1.12,4.6000004 l -3.4,0 c 0,-3.0666434 0.73333,-5.3866414 2.2,-6.9600004 1.49333,-1.599971 3.67999,-2.39997 6.56,-2.4 2.58665,3e-5 4.65332,0.693363 6.2,2.08 1.54665,1.386693 2.31998,3.253358 2.32,5.6 m -7.16,17.8000004 0,4.1599996 -3.6,0 0,-4.1599996 3.6,0"
       id="path3813" />
  </g>
</svg>
