<?xml version="1.0" encoding="UTF-8" standalone="no"?>
<!-- Created with Inkscape (http://www.inkscape.org/) -->

<svg
   xmlns:dc="http://purl.org/dc/elements/1.1/"
   xmlns:cc="http://creativecommons.org/ns#"
   xmlns:rdf="http://www.w3.org/1999/02/22-rdf-syntax-ns#"
   xmlns:svg="http://www.w3.org/2000/svg"
   xmlns="http://www.w3.org/2000/svg"
   xmlns:xlink="http://www.w3.org/1999/xlink"
   xmlns:sodipodi="http://sodipodi.sourceforge.net/DTD/sodipodi-0.dtd"
   xmlns:inkscape="http://www.inkscape.org/namespaces/inkscape"
   width="300"
   height="300"
   viewBox="0 0 300 300"
   id="svg7814"
   version="1.1"
   inkscape:version="0.91 r13725"
   sodipodi:docname="app-launcher.svg">
  <defs
     id="defs7816">
    <radialGradient
       inkscape:collect="always"
       xlink:href="#linearGradient3212"
       id="radialGradient3222"
       gradientUnits="userSpaceOnUse"
       gradientTransform="matrix(1,0,0,0.385766,0,8.906398)"
       cx="22.742641"
       cy="14.5"
       fx="22.742641"
       fy="14.5"
       r="14.25736" />
    <linearGradient
       inkscape:collect="always"
       id="linearGradient3212">
      <stop
         style="stop-color:black;stop-opacity:1;"
         offset="0"
         id="stop3214" />
      <stop
         style="stop-color:black;stop-opacity:0;"
         offset="1"
         id="stop3216" />
    </linearGradient>
    <radialGradient
       inkscape:collect="always"
       xlink:href="#linearGradient3212"
       id="radialGradient3226"
       gradientUnits="userSpaceOnUse"
       gradientTransform="matrix(1,0,0,0.385766,0,8.906398)"
       cx="22.742641"
       cy="14.5"
       fx="22.742641"
       fy="14.5"
       r="14.25736" />
    <linearGradient
       inkscape:collect="always"
       xlink:href="#linearGradient3281"
       id="linearGradient2935"
       x1="18.031223"
       y1="25.991301"
       x2="31.000006"
       y2="25.991301"
       gradientUnits="userSpaceOnUse" />
    <linearGradient
       id="linearGradient3281">
      <stop
         style="stop-color:#babdb6;stop-opacity:1;"
         offset="0"
         id="stop3289" />
      <stop
         id="stop3291"
         offset="0.09212018"
         style="stop-color:#878a84;stop-opacity:1;" />
      <stop
         style="stop-color:#555753;stop-opacity:1;"
         offset="0.23513441"
         id="stop3285" />
      <stop
         id="stop3293"
         offset="0.72439361"
         style="stop-color:#6e706c;stop-opacity:1;" />
      <stop
         id="stop3287"
         offset="1"
         style="stop-color:#888a85;stop-opacity:1" />
    </linearGradient>
    <linearGradient
       inkscape:collect="always"
       xlink:href="#linearGradient3281"
       id="linearGradient3261"
       gradientUnits="userSpaceOnUse"
       x1="18.093723"
       y1="26.241301"
       x2="26.562506"
       y2="25.616301" />
    <linearGradient
       inkscape:collect="always"
       xlink:href="#linearGradient3281"
       id="linearGradient3263"
       gradientUnits="userSpaceOnUse"
       x1="18.343723"
       y1="22.428801"
       x2="28.125006"
       y2="20.053801" />
    <linearGradient
       inkscape:collect="always"
       xlink:href="#linearGradient3281"
       id="linearGradient3265"
       gradientUnits="userSpaceOnUse"
       x1="18.625"
       y1="31.928801"
       x2="26.250006"
       y2="31.303801" />
    <linearGradient
       inkscape:collect="always"
       xlink:href="#linearGradient3065"
       id="linearGradient2920"
       x1="17.984695"
       y1="23.781593"
       x2="30.604265"
       y2="23.781593"
       gradientUnits="userSpaceOnUse" />
    <linearGradient
       id="linearGradient3065">
      <stop
         id="stop3067"
         offset="0"
         style="stop-color:#babdb6;stop-opacity:1" />
      <stop
         style="stop-color:white;stop-opacity:1;"
         offset="0.23705763"
         id="stop3069" />
      <stop
         id="stop3259"
         offset="0.68664968"
         style="stop-color:#dfe0df;stop-opacity:1;" />
      <stop
         id="stop3071"
         offset="1"
         style="stop-color:#888a85;stop-opacity:1" />
    </linearGradient>
    <linearGradient
       inkscape:collect="always"
       xlink:href="#linearGradient2914"
       id="linearGradient2939"
       gradientUnits="userSpaceOnUse"
       x1="16.671698"
       y1="23.781593"
       x2="30.604265"
       y2="23.781593" />
    <linearGradient
       id="linearGradient2914">
      <stop
         style="stop-color:#888a85;stop-opacity:1"
         offset="0"
         id="stop2916" />
      <stop
         id="stop2922"
         offset="0.26190478"
         style="stop-color:white;stop-opacity:1;" />
      <stop
         style="stop-color:white;stop-opacity:1;"
         offset="0.47278914"
         id="stop3257" />
      <stop
         style="stop-color:#555753;stop-opacity:1"
         offset="1"
         id="stop2918" />
    </linearGradient>
    <radialGradient
       inkscape:collect="always"
       xlink:href="#linearGradient3212"
       id="radialGradient3269"
       gradientUnits="userSpaceOnUse"
       gradientTransform="matrix(-6.064651e-6,0.789996,-2.56077,0,76.84922,-13.69235)"
       cx="42.187771"
       cy="20.616692"
       fx="42.187771"
       fy="20.616692"
       r="8.0002031" />
    <linearGradient
       inkscape:collect="always"
       xlink:href="#linearGradient2844"
       id="linearGradient2850"
       x1="9"
       y1="18"
       x2="39"
       y2="18"
       gradientUnits="userSpaceOnUse" />
    <linearGradient
       id="linearGradient2844">
      <stop
         style="stop-color:#d3d7cf;stop-opacity:1;"
         offset="0"
         id="stop2846" />
      <stop
         style="stop-color:#babdb6;stop-opacity:1"
         offset="1"
         id="stop2848" />
    </linearGradient>
    <radialGradient
       inkscape:collect="always"
       xlink:href="#linearGradient2827"
       id="radialGradient2833"
       cx="21.315046"
       cy="14.030881"
       fx="21.315046"
       fy="14.030881"
       r="13.875"
       gradientTransform="matrix(1.910968,0,0,0.825953,-11.9594,3.411152)"
       gradientUnits="userSpaceOnUse" />
    <linearGradient
       id="linearGradient2827">
      <stop
         style="stop-color:white;stop-opacity:1"
         offset="0"
         id="stop2829" />
      <stop
         style="stop-color:#eeeeec;stop-opacity:1;"
         offset="1"
         id="stop2831" />
    </linearGradient>
    <linearGradient
       inkscape:collect="always"
       xlink:href="#linearGradient3065"
       id="linearGradient8571"
       gradientUnits="userSpaceOnUse"
       x1="17.984695"
       y1="23.781593"
       x2="30.604265"
       y2="23.781593" />
    <linearGradient
       inkscape:collect="always"
       xlink:href="#linearGradient3065"
       id="linearGradient8573"
       gradientUnits="userSpaceOnUse"
       x1="17.984695"
       y1="23.781593"
       x2="30.604265"
       y2="23.781593" />
    <linearGradient
       inkscape:collect="always"
       xlink:href="#linearGradient3065"
       id="linearGradient8575"
       gradientUnits="userSpaceOnUse"
       x1="17.984695"
       y1="23.781593"
       x2="30.604265"
       y2="23.781593" />
  </defs>
  <sodipodi:namedview
     id="base"
     pagecolor="#ffffff"
     bordercolor="#666666"
     borderopacity="1.0"
     inkscape:pageopacity="0.0"
     inkscape:pageshadow="2"
     inkscape:zoom="1.05"
     inkscape:cx="163.09524"
     inkscape:cy="291.42857"
     inkscape:document-units="px"
     inkscape:current-layer="layer1"
     showgrid="false"
     units="px"
     inkscape:window-width="1918"
     inkscape:window-height="1020"
     inkscape:window-x="2"
     inkscape:window-y="30"
     inkscape:window-maximized="1" />
  <metadata
     id="metadata7819">
    <rdf:RDF>
      <cc:Work
         rdf:about="">
        <dc:format>image/svg+xml</dc:format>
        <dc:type
           rdf:resource="http://purl.org/dc/dcmitype/StillImage" />
        <dc:title></dc:title>
      </cc:Work>
    </rdf:RDF>
  </metadata>
  <g
     inkscape:label="Capa 1"
     inkscape:groupmode="layer"
     id="layer1"
     transform="translate(0,-752.36216)">
    <g
       transform="matrix(7.6807665,0,0,7.6807665,-34.81451,728.96363)"
       style="display:inline"
       id="g7594">
      <ellipse
         ry="5.5"
         rx="14.25736"
         cy="14.5"
         cx="22.742641"
         transform="matrix(1.252416,0,0,1.11601,-4.483258,19.31786)"
         id="path3202"
         style="display:inline;opacity:0.2;fill:url(#radialGradient3222);fill-opacity:1;stroke:none;stroke-width:1;stroke-linecap:round;stroke-linejoin:miter;stroke-miterlimit:4;stroke-dasharray:none;stroke-opacity:1" />
      <ellipse
         ry="5.5"
         rx="14.25736"
         cy="14.5"
         cx="22.742641"
         transform="matrix(0.717111,0,0,0.639006,7.691004,26.23441)"
         id="path3224"
         style="display:inline;opacity:0.3;fill:url(#radialGradient3226);fill-opacity:1;stroke:none;stroke-width:1;stroke-linecap:round;stroke-linejoin:miter;stroke-miterlimit:4;stroke-dasharray:none;stroke-opacity:1" />
      <g
         transform="translate(-14,0)"
         id="g3097"
         style="display:inline;fill-opacity:1;stroke:#000000;stroke-opacity:1">
        <g
           id="g3099"
           transform="translate(-2,0)"
           style="fill-opacity:1;stroke:#000000;stroke-opacity:1">
          <path
             inkscape:connector-curvature="0"
             sodipodi:nodetypes="csc"
             id="path3101"
             d="m 33.5,27 c 0,-2 2.5,-3.5 7,-3.5 3.657,0 6,0.448 6,1"
             style="display:inline;fill:none;fill-opacity:1;stroke:#000000;stroke-width:3;stroke-linecap:round;stroke-linejoin:miter;stroke-miterlimit:4;stroke-dasharray:none;stroke-opacity:1" />
          <path
             inkscape:connector-curvature="0"
             sodipodi:nodetypes="csc"
             id="path3103"
             d="m 33.5,22.5 c 0,-2 2.5,-3 7,-3 3.657,0 6,0.448 6,1"
             style="display:inline;fill:none;fill-opacity:1;stroke:#000000;stroke-width:3;stroke-linecap:round;stroke-linejoin:miter;stroke-miterlimit:4;stroke-dasharray:none;stroke-opacity:1" />
          <path
             inkscape:connector-curvature="0"
             sodipodi:nodetypes="csc"
             id="path3105"
             d="m 34.5,32.5 c 0,-3 2,-5 6.461541,-5 3.375692,0 5.538462,0.5 5.538462,1.5"
             style="display:inline;fill:none;fill-opacity:1;stroke:#000000;stroke-width:3;stroke-linecap:round;stroke-linejoin:miter;stroke-miterlimit:4;stroke-dasharray:none;stroke-opacity:1" />
        </g>
        <g
           id="g3107"
           transform="translate(-2,0)"
           style="fill-opacity:1;stroke:#000000;stroke-opacity:1">
          <path
             inkscape:connector-curvature="0"
             sodipodi:nodetypes="css"
             id="path3109"
             d="m 46.499985,20.5 c 0,1 -4.178569,1 -5.571426,0.999984 -4.10057,-4.7e-5 -7.428568,-1.567999 -7.428568,-3.499998"
             style="display:inline;fill:none;fill-opacity:1;stroke:#000000;stroke-width:3;stroke-linecap:round;stroke-linejoin:miter;stroke-miterlimit:4;stroke-dasharray:none;stroke-opacity:1" />
          <path
             inkscape:connector-curvature="0"
             sodipodi:nodetypes="css"
             id="path3111"
             d="m 46.499985,24.5 c 0,1 -4.178569,1 -5.571426,0.999984 C 36.827989,25.499937 33.5,24.431999 33.5,22.5"
             style="display:inline;fill:none;fill-opacity:1;stroke:#000000;stroke-width:3;stroke-linecap:round;stroke-linejoin:miter;stroke-miterlimit:4;stroke-dasharray:none;stroke-opacity:1" />
          <path
             inkscape:connector-curvature="0"
             sodipodi:nodetypes="css"
             id="path3113"
             d="m 46.5,29 c 0,1.5 -4.178584,1.5 -5.571441,1.499984 -4.10057,-4.7e-5 -7.428568,-1.567999 -7.428568,-3.499998"
             style="display:inline;fill:none;fill-opacity:1;stroke:#000000;stroke-width:3;stroke-linecap:round;stroke-linejoin:miter;stroke-miterlimit:4;stroke-dasharray:none;stroke-opacity:1" />
          <path
             inkscape:connector-curvature="0"
             sodipodi:nodetypes="cs"
             id="path3115"
             d="m 34.5,32.5 c 0,3 2.5,4 6.285704,3.999984 L 41.5,36.5"
             style="display:inline;fill:none;fill-opacity:1;stroke:#000000;stroke-width:3;stroke-linecap:round;stroke-linejoin:miter;stroke-miterlimit:4;stroke-dasharray:none;stroke-opacity:1" />
        </g>
      </g>
      <g
         style="display:inline;fill-opacity:1;stroke:url(#linearGradient2935)"
         id="g2924">
        <path
           inkscape:connector-curvature="0"
           style="display:inline;opacity:1;fill:none;fill-opacity:1;stroke:url(#linearGradient3261);stroke-width:0.99999988;stroke-linecap:round;stroke-linejoin:miter;stroke-miterlimit:4;stroke-opacity:1"
           d="m 17.5,27 c 0,-2 2.5,-3.5 7,-3.5 3.657,0 6,0.448 6,1"
           id="path2857"
           sodipodi:nodetypes="csc" />
        <path
           inkscape:connector-curvature="0"
           style="display:inline;opacity:1;fill:none;fill-opacity:1;stroke:url(#linearGradient3263);stroke-width:0.99999988;stroke-linecap:round;stroke-linejoin:miter;stroke-miterlimit:4;stroke-opacity:1"
           d="m 17.5,22.5 c 0,-2 2.5,-3 7,-3 3.657,0 6,0.448 6,1"
           id="path2871"
           sodipodi:nodetypes="csc" />
        <path
           inkscape:connector-curvature="0"
           style="display:inline;opacity:1;fill:none;fill-opacity:1;stroke:url(#linearGradient3265);stroke-width:1;stroke-linecap:round;stroke-linejoin:miter;stroke-miterlimit:4;stroke-dasharray:none;stroke-opacity:1"
           d="m 18.5,32.5 c 0,-3 2,-5 6.461541,-5 3.375692,0 5.538462,0.5 5.538462,1.5"
           id="path2873"
           sodipodi:nodetypes="csc" />
      </g>
      <g
         style="display:inline;opacity:0.8;stroke:#000000;stroke-opacity:1"
         id="g3081">
        <path
           inkscape:connector-curvature="0"
           style="display:inline;fill:none;fill-opacity:1;stroke:#000000;stroke-width:3;stroke-linecap:round;stroke-linejoin:miter;stroke-miterlimit:4;stroke-dasharray:none;stroke-opacity:1"
           d="m 30.5,29 c 0,1.5 -4.178584,1.5 -5.571441,1.499984 -4.10057,-4.7e-5 -7.428568,-1.567999 -7.428568,-3.499998"
           id="path3023"
           sodipodi:nodetypes="css" />
        <path
           inkscape:connector-curvature="0"
           style="display:inline;fill:none;fill-opacity:1;stroke:#000000;stroke-width:3;stroke-linecap:round;stroke-linejoin:miter;stroke-miterlimit:4;stroke-dasharray:none;stroke-opacity:1"
           d="m 30.499985,24.5 c 0,1 -4.178569,1 -5.571426,0.999984 C 20.827989,25.499937 17.5,24.431999 17.5,22.5"
           id="path3021"
           sodipodi:nodetypes="css" />
        <path
           inkscape:connector-curvature="0"
           style="display:inline;fill:none;fill-opacity:1;stroke:#000000;stroke-width:3;stroke-linecap:round;stroke-linejoin:miter;stroke-miterlimit:4;stroke-dasharray:none;stroke-opacity:1"
           d="m 30.499985,20.5 c 0,1 -4.178569,1 -5.571426,0.999984 -4.10057,-4.7e-5 -7.428568,-1.567999 -7.428568,-3.499998"
           id="path3019"
           sodipodi:nodetypes="css" />
      </g>
      <g
         style="display:inline;fill-opacity:1;stroke:url(#linearGradient2920)"
         id="g2908">
        <path
           inkscape:connector-curvature="0"
           style="display:inline;opacity:1;fill:none;fill-opacity:1;stroke:url(#linearGradient8571);stroke-width:0.99999952;stroke-linecap:round;stroke-linejoin:miter;stroke-miterlimit:4;stroke-opacity:1"
           d="m 30.499985,20.5 c 0,1 -4.178569,1 -5.571426,0.999984 -4.10057,-4.7e-5 -7.428568,-1.567999 -7.428568,-3.499998"
           id="path2869"
           sodipodi:nodetypes="css" />
        <path
           inkscape:connector-curvature="0"
           style="display:inline;opacity:1;fill:none;fill-opacity:1;stroke:url(#linearGradient8573);stroke-width:0.99999952;stroke-linecap:round;stroke-linejoin:miter;stroke-miterlimit:4;stroke-opacity:1"
           d="m 30.499985,24.5 c 0,1 -4.178569,1 -5.571426,0.999984 C 20.827989,25.499937 17.5,24.431999 17.5,22.5"
           id="path2852"
           sodipodi:nodetypes="css" />
        <path
           inkscape:connector-curvature="0"
           style="display:inline;opacity:1;fill:none;fill-opacity:1;stroke:url(#linearGradient8575);stroke-width:0.99999952;stroke-linecap:round;stroke-linejoin:miter;stroke-miterlimit:4;stroke-opacity:1"
           d="m 30.5,29 c 0,1.5 -4.178584,1.5 -5.571441,1.499984 -4.10057,-4.7e-5 -7.428568,-1.567999 -7.428568,-3.499998"
           id="path2867"
           sodipodi:nodetypes="css" />
        <path
           inkscape:connector-curvature="0"
           style="display:inline;opacity:1;fill:none;fill-opacity:1;stroke:url(#linearGradient2939);stroke-width:0.99999952;stroke-linecap:round;stroke-linejoin:miter;stroke-miterlimit:4;stroke-opacity:1"
           d="m 18.5,32.5 c 0,3 2.5,4 6.285704,3.999984 L 25.5,36.5"
           id="path2875"
           sodipodi:nodetypes="cs" />
      </g>
      <path
         inkscape:connector-curvature="0"
         id="path2885"
         d="M 17.46875,16.46875 C 16.640281,16.485913 15.982643,17.171535 16,18 c 0,0.881664 0.320508,1.625607 0.84375,2.25 C 16.320151,20.887228 16,21.657449 16,22.5 c -0.0019,0.135238 0.02963,0.278745 0.0625,0.40625 0.09588,0.655904 0.37162,1.279607 0.78125,1.75 C 16.319659,25.334874 16,26.134654 16,27 c 0,0.772652 0.299003,1.426674 0.71875,2 L 32,29 C 32,28.836163 31.97594,28.686296 31.9375,28.53125 31.9276,28.50047 31.91802,28.46741 31.90625,28.4375 31.742351,27.885083 31.375524,27.400575 31,27.125 30.665359,26.879426 30.308761,26.71594 29.9375,26.59375 30.063036,26.56028 30.189806,26.54173 30.3125,26.5 30.620513,26.395251 30.942476,26.27716 31.28125,26 31.535331,25.79213 31.814752,25.416695 31.9375,24.96875 31.98308,24.822653 32.00136,24.658748 32,24.5 32,24.350107 31.97263,24.194889 31.9375,24.0625 31.919,23.99549 31.90233,23.938222 31.875,23.875 c -0.120342,-0.299017 -0.307143,-0.539806 -0.46875,-0.6875 -0.262792,-0.240167 -0.516295,-0.367748 -0.75,-0.46875 -0.163949,-0.07086 -0.329671,-0.136933 -0.5,-0.1875 0.05099,-0.01571 0.105766,-0.01408 0.15625,-0.03125 0.308013,-0.104749 0.629976,-0.22284 0.96875,-0.5 0.254081,-0.20787 0.533502,-0.583305 0.65625,-1.03125 C 31.98308,20.822653 32.00136,20.658748 32,20.5 32,20.350107 31.97263,20.194889 31.9375,20.0625 31.919,19.99549 31.90233,19.938222 31.875,19.875 31.83164,19.767259 31.77518,19.683888 31.71875,19.59375 31.618572,19.433724 31.509628,19.281977 31.40625,19.1875 31.143458,18.947333 30.889955,18.819752 30.65625,18.71875 30.188839,18.516746 29.714461,18.414806 29.125,18.3125 27.946079,18.107888 26.389752,18 24.5,18 c -1.984241,0 -3.623155,0.193957 -5,0.625 C 19.126212,18.321771 19,18.068697 19,18 c 0.0086,-0.408678 -0.148458,-0.804707 -0.4375,-1.09375 -0.289044,-0.289042 -0.685072,-0.446064 -1.09375,-0.4375 z m 1.84375,5.46875 c 0.42455,0.184362 0.867094,0.363911 1.34375,0.5 -0.463867,0.118666 -0.904518,0.269641 -1.3125,0.4375 C 19.267296,22.82307 19.169197,22.762446 19.125,22.71875 18.962512,22.558104 19,22.552359 19,22.5 c 0,-0.25 0.04398,-0.386574 0.3125,-0.5625 z m 0.09375,4.25 C 19.903173,26.361466 20.440441,26.510718 21,26.625 20.403985,26.85067 19.856247,27.147539 19.375,27.5 19.106187,27.249692 19,27.060031 19,27 c 0,-0.261568 0.0728,-0.528831 0.40625,-0.8125 z"
         style="display:inline;opacity:0.41906613;fill:url(#radialGradient3269);fill-opacity:1;stroke:none;stroke-width:3;stroke-linecap:round;stroke-linejoin:miter;stroke-miterlimit:4;stroke-dasharray:none;stroke-opacity:1" />
      <path
         inkscape:connector-curvature="0"
         sodipodi:nodetypes="ccccccc"
         id="rect1880"
         d="m 12.5,9.5 23,0 4,7.5 0,2.5 -31,0 0,-2.5 4,-7.5 z"
         style="opacity:1;fill:#ffffff;fill-opacity:1;stroke:#000000;stroke-width:1;stroke-linecap:round;stroke-linejoin:round;stroke-miterlimit:4;stroke-opacity:1" />
      <rect
         y="17"
         x="9"
         height="2"
         width="30"
         id="rect2768"
         style="opacity:1;fill:url(#linearGradient2850);fill-opacity:1;stroke:none;stroke-width:1;stroke-linecap:round;stroke-linejoin:round;stroke-miterlimit:4;stroke-dasharray:none;stroke-opacity:1" />
      <g
         style="opacity:0.8"
         id="g2835">
        <rect
           style="opacity:1;fill:#ef2929;fill-opacity:1;stroke:none;stroke-width:1;stroke-linecap:round;stroke-linejoin:round;stroke-miterlimit:4;stroke-dasharray:none;stroke-opacity:1"
           id="rect2770"
           width="2"
           height="2"
           x="11"
           y="17" />
        <rect
           style="display:inline;opacity:1;fill:#ef2929;fill-opacity:1;stroke:none;stroke-width:1;stroke-linecap:round;stroke-linejoin:round;stroke-miterlimit:4;stroke-dasharray:none;stroke-opacity:1"
           id="rect2772"
           width="2"
           height="2"
           x="15"
           y="17" />
        <rect
           style="display:inline;opacity:1;fill:#ef2929;fill-opacity:1;stroke:none;stroke-width:1;stroke-linecap:round;stroke-linejoin:round;stroke-miterlimit:4;stroke-dasharray:none;stroke-opacity:1"
           id="rect2774"
           width="2"
           height="2"
           x="23"
           y="17" />
        <rect
           style="display:inline;opacity:1;fill:#ef2929;fill-opacity:1;stroke:none;stroke-width:1;stroke-linecap:round;stroke-linejoin:round;stroke-miterlimit:4;stroke-dasharray:none;stroke-opacity:1"
           id="rect2776"
           width="2"
           height="2"
           x="19"
           y="17" />
        <rect
           style="display:inline;opacity:1;fill:#ef2929;fill-opacity:1;stroke:none;stroke-width:1;stroke-linecap:round;stroke-linejoin:round;stroke-miterlimit:4;stroke-dasharray:none;stroke-opacity:1"
           id="rect2778"
           width="2"
           height="2"
           x="27"
           y="17" />
        <rect
           style="display:inline;opacity:1;fill:#ef2929;fill-opacity:1;stroke:none;stroke-width:1;stroke-linecap:round;stroke-linejoin:round;stroke-miterlimit:4;stroke-dasharray:none;stroke-opacity:1"
           id="rect2780"
           width="2"
           height="2"
           x="31"
           y="17" />
        <rect
           style="display:inline;opacity:1;fill:#ef2929;fill-opacity:1;stroke:none;stroke-width:1;stroke-linecap:round;stroke-linejoin:round;stroke-miterlimit:4;stroke-dasharray:none;stroke-opacity:1"
           id="rect2782"
           width="2"
           height="2"
           x="35"
           y="17" />
      </g>
      <path
         inkscape:connector-curvature="0"
         id="path2805"
         d="M 14.0625,10 11.375,12.6875 9.0625,17 l 7,-7 -2,0 z M 18,10 l -7,7 2,0 7,-7 -2,0 z m 4,0 -7,7 2,0 7,-7 -2,0 z m 4,0 -7,7 2,0 7,-7 -2,0 z m 4,0 -7,7 2,0 7,-7 -2,0 z m 4.0625,0 -7,7 2,0 L 35.5,10.5625 35.1875,10 l -1.125,0 z m 2.125,1.875 -5.125,5.125 2,0 3.8125,-3.8125 -0.6875,-1.3125 z M 37.59375,14.46875 35.0625,17 l 2,0 1.21875,-1.21875 -0.6875,-1.3125 z"
         style="display:inline;opacity:0.5;fill:#ef2929;fill-opacity:1;stroke:none;stroke-width:1;stroke-linecap:round;stroke-linejoin:round;stroke-miterlimit:4;stroke-opacity:1" />
      <path
         inkscape:connector-curvature="0"
         id="path2810"
         d="m 12.25,11 -2.125,4 27.75,0 -2.125,-4 -23.5,0 z"
         style="display:inline;opacity:1;fill:url(#radialGradient2833);fill-opacity:1;stroke:none;stroke-width:1;stroke-linecap:round;stroke-linejoin:round;stroke-miterlimit:4;stroke-opacity:1" />
      <path
         d="m 13.101562,10.505859 -3.5957026,6.746094 0,1.242188 28.9882816,0 0,-1.242188 -3.597657,-6.746094 -21.794922,0 z"
         id="path2817"
         style="display:inline;opacity:0.5;fill:none;fill-opacity:1;stroke:#ffffff;stroke-width:1;stroke-linecap:round;stroke-linejoin:miter;stroke-miterlimit:4;stroke-opacity:1"
         inkscape:original="M 12.5 9.5 L 8.5 17 L 8.5 19.5 L 39.5 19.5 L 39.5 17 L 35.5 9.5 L 12.5 9.5 z "
         inkscape:radius="-1.0054175"
         sodipodi:type="inkscape:offset" />
      <path
         inkscape:connector-curvature="0"
         sodipodi:nodetypes="cccc"
         id="path2868"
         d="M 38.49718,10.501127 37.310514,8.3842603 C 37.007073,7.8351458 36.407932,7.4966591 35.756546,7.4999995 l -2.260317,0"
         style="display:inline;opacity:1;fill:none;fill-opacity:1;stroke:#729fcf;stroke-width:0.99775636;stroke-linecap:round;stroke-linejoin:round;stroke-miterlimit:4;stroke-opacity:1" />
      <path
         inkscape:connector-curvature="0"
         sodipodi:nodetypes="cccc"
         id="path2872"
         d="M 39.001314,7.5013112 38.182154,6.2504915 C 37.876164,5.7861072 37.278835,5.499985 36.628574,5.4999997 l -1.129877,0"
         style="display:inline;opacity:1;fill:none;fill-opacity:1;stroke:#729fcf;stroke-width:0.99737924;stroke-linecap:round;stroke-linejoin:round;stroke-miterlimit:4;stroke-opacity:1" />
      <path
         inkscape:connector-curvature="0"
         sodipodi:nodetypes="cccc"
         id="path2931"
         d="m 14.50111,7.4999995 -2.259116,0 c -0.65104,-0.00334 -1.249865,0.3351462 -1.553143,0.8842608 L 9.5028143,10.501127"
         style="display:inline;opacity:1;fill:none;fill-opacity:1;stroke:#729fcf;stroke-width:0.99775618;stroke-linecap:round;stroke-linejoin:round;stroke-miterlimit:4;stroke-opacity:1" />
      <path
         inkscape:connector-curvature="0"
         sodipodi:nodetypes="cccc"
         id="path2933"
         d="m 12.501306,5.5000034 -1.129876,0 C 10.721169,5.4999886 10.12384,5.7861108 9.8178502,6.2504952 L 8.9986899,7.5013149"
         style="display:inline;opacity:1;fill:none;fill-opacity:1;stroke:#729fcf;stroke-width:0.9973793;stroke-linecap:round;stroke-linejoin:round;stroke-miterlimit:4;stroke-opacity:1" />
    </g>
  </g>
</svg>
