<?xml version="1.0" encoding="UTF-8" standalone="no"?>
<svg
   xmlns:dc="http://purl.org/dc/elements/1.1/"
   xmlns:cc="http://creativecommons.org/ns#"
   xmlns:rdf="http://www.w3.org/1999/02/22-rdf-syntax-ns#"
   xmlns:svg="http://www.w3.org/2000/svg"
   xmlns="http://www.w3.org/2000/svg"
   xmlns:xlink="http://www.w3.org/1999/xlink"
   xmlns:sodipodi="http://sodipodi.sourceforge.net/DTD/sodipodi-0.dtd"
   xmlns:inkscape="http://www.inkscape.org/namespaces/inkscape"
   version="1.1"
   width="64"
   height="64"
   color-interpolation="linearRGB"
   id="svg2"
   inkscape:version="0.91 r13725"
   sodipodi:docname="application-x-bzpostscript.svg">
  <metadata
     id="metadata46">
    <rdf:RDF>
      <cc:Work
         rdf:about="">
        <dc:format>image/svg+xml</dc:format>
        <dc:type
           rdf:resource="http://purl.org/dc/dcmitype/StillImage" />
        <dc:title></dc:title>
      </cc:Work>
    </rdf:RDF>
  </metadata>
  <defs
     id="defs44">
    <linearGradient
       inkscape:collect="always"
       xlink:href="#linearGradient7582-8"
       id="linearGradient7588-5"
       x1="81.728813"
       y1="16"
       x2="109.72881"
       y2="16"
       gradientUnits="userSpaceOnUse"
       gradientTransform="translate(-51.728813,-6)" />
    <linearGradient
       inkscape:collect="always"
       id="linearGradient7582-8">
      <stop
         style="stop-color:#ff3300;stop-opacity:1"
         offset="0"
         id="stop7584-4" />
      <stop
         style="stop-color:#ff0000;stop-opacity:1"
         offset="1"
         id="stop7586-4" />
    </linearGradient>
  </defs>
  <sodipodi:namedview
     pagecolor="#ffffff"
     bordercolor="#666666"
     borderopacity="1"
     objecttolerance="10"
     gridtolerance="10"
     guidetolerance="10"
     inkscape:pageopacity="0"
     inkscape:pageshadow="2"
     inkscape:window-width="1364"
     inkscape:window-height="708"
     id="namedview42"
     showgrid="false"
     inkscape:zoom="4.1365358"
     inkscape:cx="-9.0856513"
     inkscape:cy="29.987484"
     inkscape:window-x="2"
     inkscape:window-y="30"
     inkscape:window-maximized="1"
     inkscape:current-layer="svg2" />
  <g
     id="g4">
    <path
       style="fill:#010101; fill-opacity:0.5725"
       d="M27 57L29 59L32.13 55.83L37 59L45.39 47.54L64 38L59 35L61 37L36 49L27 57z            M58 34L62 31L58 29L55 32L58 34z"
       id="path6" />
    <path
       style="fill:none; stroke:#010101; stroke-width:4"
       d="M6.25 30C6.25 30 11.87 36 16.87 42.5C21.87 49 26.25 55.75 26.25 55.75L59.12 36.87L32 15L6.25 30z"
       id="path8" />
    <radialGradient
       id="gradient0"
       gradientUnits="userSpaceOnUse"
       cx="0"
       cy="0"
       r="64"
       gradientTransform="matrix(0.5714,0,0,0.3333,26,35)">
      <stop
         offset="1"
         stop-color="#fffcc0"
         id="stop11" />
      <stop
         offset="0.4886"
         stop-color="#f1b706"
         id="stop13" />
    </radialGradient>
    <path
       style="fill:url(#gradient0)"
       d="M6.25 30C6.25 30 11.87 36 16.87 42.5C21.87 49 26.25 55.75 26.25 55.75L59.12 36.87L32 15L6.25 30z"
       id="path15" />
    <path
       style="fill:none; stroke:#010101; stroke-width:4"
       d="M2.62 30.87C2.62 30.87 10.95 36.26 19 41.87C27.44 47.75 35.75 52.75 35.75 52.75L58.12 26.37C58.12 26.37 45.44 20.7 35.37 15.37C30.18 12.62 26 9.37 26 9.37L2.62 30.87z"
       id="path17" />
    <linearGradient
       id="gradient1"
       gradientUnits="userSpaceOnUse"
       x1="107.04"
       y1="-17.09"
       x2="118.33"
       y2="27.99">
      <stop
         offset="0"
         stop-color="#ffefa5"
         id="stop20" />
      <stop
         offset="0.7424"
         stop-color="#fffcc0"
         id="stop22" />
      <stop
         offset="1"
         stop-color="#fff890"
         id="stop24" />
    </linearGradient>
    <path
       style="fill:url(#gradient1)"
       d="M2.62 30.87C2.62 30.87 10.95 36.26 19 41.87C27.44 47.75 35.75 52.75 35.75 52.75L58.12 26.37C58.12 26.37 45.44 20.7 35.37 15.37C30.18 12.62 26 9.37 26 9.37L2.62 30.87z"
       id="path26" />
    <linearGradient
       id="gradient2"
       gradientUnits="userSpaceOnUse"
       x1="-47.14"
       y1="-15.78"
       x2="-28.46"
       y2="-37.85">
      <stop
         offset="0"
         stop-color="#010101"
         id="stop29" />
      <stop
         offset="1"
         stop-color="#9e9e9e"
         id="stop31" />
    </linearGradient>
    <path
       style="fill:none; stroke:url(#gradient2); stroke-width:1"
       d="M20 36L34.87 20.87            M14 32L26.87 19            M26 40L38.75 26.87            M32 44L42.75 32.37"
       id="path33" />
    <linearGradient
       id="gradient3"
       gradientUnits="userSpaceOnUse"
       x1="-47.14"
       y1="-15.78"
       x2="-28.46"
       y2="-37.85">
      <stop
         offset="0"
         stop-color="#010101"
         id="stop36" />
      <stop
         offset="1"
         stop-color="#9e9e9e"
         id="stop38" />
    </linearGradient>
    <path
       style="fill:none; stroke:url(#gradient3); stroke-width:1"
       d="M29 42L44 26.37            M23 38L34.75 26.25            M17 34L28.12 22.62"
       id="path40" />
  </g>
  <g
     style="color-interpolation:linearRGB"
     transform="matrix(1.5426287,0,0,1.5426287,-35.911236,-21.237275)"
     id="g17241">
    <path
       inkscape:connector-curvature="0"
       sodipodi:nodetypes="czz"
       id="path8488"
       d="m 43.547347,42.410843 c 12.375,-4.375 -26.25082,-25 -8,-25 18.12582,0 -4.26395,29.33574 8,25 z"
       style="display:inline;opacity:0.06300001;fill:#000000;fill-rule:evenodd;stroke:#000000;stroke-width:1px;stroke-linecap:butt;stroke-linejoin:miter;stroke-opacity:1" />
    <path
       inkscape:connector-curvature="0"
       style="opacity:0.9;fill:#a7ffff;fill-opacity:1;fill-rule:evenodd;stroke:#000000;stroke-width:1px;stroke-linecap:butt;stroke-linejoin:miter;stroke-opacity:1"
       d="m 42.547347,41.410843 c 12.375,-4.375 -26.25082,-25 -8,-25 18.12582,0 -4.26395,29.33574 8,25 z"
       id="path7317"
       sodipodi:nodetypes="czz" />
    <g
       transform="translate(165.04735,-414.08916)"
       id="g6664"
       style="opacity:0.9">
      <path
         inkscape:connector-curvature="0"
         sodipodi:nodetypes="cc"
         id="path6646"
         d="m -139.5,430.5 18,0"
         style="display:inline;fill:none;stroke:#ffffff;stroke-width:2;stroke-linecap:butt;stroke-linejoin:miter;stroke-miterlimit:4;stroke-dasharray:none;stroke-opacity:1" />
      <rect
         y="429.5"
         x="-131.5"
         height="2"
         width="2"
         id="rect6648"
         style="display:inline;fill:#729fcf;fill-opacity:1;stroke:#ffffff;stroke-width:2;stroke-linecap:round;stroke-linejoin:miter;stroke-miterlimit:4;stroke-dasharray:none;stroke-opacity:1" />
      <circle
         r="1"
         cy="453.5"
         cx="-113.5"
         transform="translate(-8,-23)"
         id="path6650"
         style="display:inline;fill:#ffffff;fill-opacity:1;stroke:#ffffff;stroke-width:2;stroke-linecap:round;stroke-linejoin:round;stroke-miterlimit:4;stroke-dasharray:none;stroke-opacity:1" />
      <circle
         r="1"
         cy="453.5"
         cx="-113.5"
         transform="translate(-26,-23)"
         id="path6652"
         style="display:inline;fill:#ffffff;fill-opacity:1;stroke:#ffffff;stroke-width:2;stroke-linecap:round;stroke-linejoin:round;stroke-miterlimit:4;stroke-dasharray:none;stroke-opacity:1" />
    </g>
    <path
       inkscape:connector-curvature="0"
       style="opacity:0.9;fill:none;stroke:#000000;stroke-width:1px;stroke-linecap:butt;stroke-linejoin:miter;stroke-opacity:1"
       d="m 25.547347,16.410843 18,0"
       id="path7321"
       sodipodi:nodetypes="cc" />
    <g
       transform="translate(165.04735,-414.08916)"
       id="g6691"
       style="opacity:0.9">
      <path
         inkscape:connector-curvature="0"
         sodipodi:nodetypes="cc"
         id="path6678"
         d="m -130.5,458.5 16,-6"
         style="fill:#ffffff;fill-rule:evenodd;stroke:#ffffff;stroke-width:2;stroke-linecap:butt;stroke-linejoin:miter;stroke-miterlimit:4;stroke-dasharray:none;stroke-opacity:1" />
      <rect
         y="454.5"
         x="-123.5"
         height="2"
         width="2"
         id="rect6681"
         style="fill:#ffffff;fill-opacity:1;stroke:#ffffff;stroke-width:2;stroke-linecap:round;stroke-linejoin:miter;stroke-miterlimit:4;stroke-dasharray:none;stroke-opacity:1" />
      <circle
         r="1"
         cy="453.5"
         cx="-113.5"
         transform="translate(-1,-1)"
         id="path6683"
         style="fill:#ffffff;fill-opacity:1;stroke:#ffffff;stroke-width:2;stroke-linecap:round;stroke-linejoin:round;stroke-miterlimit:4;stroke-dasharray:none;stroke-opacity:1" />
      <circle
         r="1"
         cy="453.5"
         cx="-113.5"
         transform="translate(-17,5)"
         id="path6685"
         style="display:inline;fill:#ffffff;fill-opacity:1;stroke:#ffffff;stroke-width:2;stroke-linecap:round;stroke-linejoin:round;stroke-miterlimit:4;stroke-dasharray:none;stroke-opacity:1" />
    </g>
    <path
       inkscape:connector-curvature="0"
       style="opacity:0.9;fill:none;stroke:#000000;stroke-width:1px;stroke-linecap:butt;stroke-linejoin:miter;stroke-opacity:1"
       d="m 34.547347,44.410843 16,-6"
       id="path7319"
       sodipodi:nodetypes="cc" />
    <rect
       style="opacity:0.9;fill:#729fcf;fill-opacity:1;stroke:#000000;stroke-width:1;stroke-linecap:round;stroke-linejoin:miter;stroke-miterlimit:4;stroke-dasharray:none;stroke-opacity:1"
       id="rect7325"
       width="2"
       height="2"
       x="41.547348"
       y="40.410843" />
    <circle
       r="1"
       cy="453.5"
       cx="-113.5"
       style="opacity:0.9;fill:#ffffff;fill-opacity:1;stroke:#000000;stroke-width:1;stroke-linecap:round;stroke-linejoin:round;stroke-miterlimit:4;stroke-dasharray:none;stroke-opacity:1"
       id="path7327"
       transform="translate(164.04735,-415.08916)" />
    <circle
       r="1"
       cy="453.5"
       cx="-113.5"
       style="display:inline;opacity:0.9;fill:#ffffff;fill-opacity:1;stroke:#000000;stroke-width:1;stroke-linecap:round;stroke-linejoin:round;stroke-miterlimit:4;stroke-dasharray:none;stroke-opacity:1"
       id="path7329"
       transform="translate(148.04735,-409.08916)" />
    <rect
       style="display:inline;opacity:0.9;fill:#729fcf;fill-opacity:1;stroke:#000000;stroke-width:1;stroke-linecap:round;stroke-linejoin:miter;stroke-miterlimit:4;stroke-dasharray:none;stroke-opacity:1"
       id="rect7331"
       width="2"
       height="2"
       x="33.547348"
       y="15.410844" />
    <circle
       r="1"
       cy="453.5"
       cx="-113.5"
       style="display:inline;opacity:0.9;fill:#ffffff;fill-opacity:1;stroke:#000000;stroke-width:1;stroke-linecap:round;stroke-linejoin:round;stroke-miterlimit:4;stroke-dasharray:none;stroke-opacity:1"
       id="path7333"
       transform="translate(157.04735,-437.08916)" />
    <circle
       r="1"
       cy="453.5"
       cx="-113.5"
       style="display:inline;opacity:0.9;fill:#ffffff;fill-opacity:1;stroke:#000000;stroke-width:1;stroke-linecap:round;stroke-linejoin:round;stroke-miterlimit:4;stroke-dasharray:none;stroke-opacity:1"
       id="path7335"
       transform="translate(139.04735,-437.08916)" />
  </g>
  <g
     style="overflow:visible"
     id="g7659"
     transform="matrix(0.60891661,0,0,0.60891661,30.346389,4.1032334)">
    <g
       id="Layer_1"
       style="stroke:#000000">
      <g
         id="Layer_1_2_">
        <path
           id="path157"
           d="M 18.455,0.623 11.037,7.494 0,35.4 9.541,39.291 c 0,0 3.617,-3.35 4.593,-4.254 1.209,0.485 5.177,2.077 6.143,2.465 0.312,1.111 1.958,6.965 1.958,6.965 l 9.07,3.698 8.508,-7.882 L 28.966,4.012 19.127,0 18.455,0.623 Z"
           inkscape:connector-curvature="0"
           style="stroke:none" />
        <linearGradient
           gradientTransform="matrix(1,0,0,-1,226.918,400.7705)"
           y2="374.34949"
           x2="-204.5553"
           y1="375.7417"
           x1="-189.1689"
           gradientUnits="userSpaceOnUse"
           id="XMLID_1_">
          <stop
             id="stop159"
             style="stop-color:#669EC9"
             offset="0" />
          <stop
             id="stop160"
             style="stop-color:#1353A2"
             offset="1" />
        </linearGradient>
        <path
           id="path164"
           d="M 38.176,39.837 27.783,5.085 l -7.177,6.648 10.392,34.752 7.178,-6.648 z"
           inkscape:connector-curvature="0"
           style="fill:url(#XMLID_1_);stroke:none" />
        <linearGradient
           gradientTransform="matrix(1,0,0,-1,226.918,400.7705)"
           y2="393.2222"
           x2="-207.42261"
           y1="389.92529"
           x1="-209.47411"
           gradientUnits="userSpaceOnUse"
           id="XMLID_2_">
          <stop
             id="stop166"
             style="stop-color:#A1DBE4"
             offset="0" />
          <stop
             id="stop167"
             style="stop-color:#67C4DC"
             offset="1" />
        </linearGradient>
        <path
           id="path171"
           d="m 27.783,5.085 -8.35,-3.405 -7.177,6.648 8.35,3.405 7.177,-6.648 z"
           inkscape:connector-curvature="0"
           style="fill:url(#XMLID_2_);stroke:none" />
        <path
           id="path172"
           d="M 9.235,37.611 1.863,34.605 12.255,8.328 l 8.35,3.405 10.392,34.752 -7.568,-3.086 -1.959,-6.97 -10.275,-4.189 -1.96,5.371 z"
           inkscape:connector-curvature="0"
           style="fill:#1e94c2;stroke:none" />
        <linearGradient
           gradientTransform="matrix(1,0,0,-1,226.918,400.7705)"
           y2="365.74881"
           x2="-217.7756"
           y1="366.2095"
           x1="-212.6841"
           gradientUnits="userSpaceOnUse"
           id="XMLID_3_">
          <stop
             id="stop174"
             style="stop-color:#669EC9"
             offset="0" />
          <stop
             id="stop175"
             style="stop-color:#2D62AA"
             offset="1" />
        </linearGradient>
        <path
           id="path179"
           d="m 13.823,33.36 -4.588,4.251 1.96,-5.371 2.628,1.12 z"
           inkscape:connector-curvature="0"
           style="fill:url(#XMLID_3_);stroke:none" />
        <linearGradient
           gradientTransform="matrix(1,0,0,-1,226.918,400.7705)"
           y2="377.89401"
           x2="-214.2493"
           y1="378.3696"
           x1="-208.99319"
           gradientUnits="userSpaceOnUse"
           id="XMLID_4_">
          <stop
             id="stop181"
             style="stop-color:#669EC9"
             offset="0" />
          <stop
             id="stop182"
             style="stop-color:#1353A2"
             offset="1" />
        </linearGradient>
        <path
           id="path186"
           d="m 12.931,27.381 4.707,-4.708 -1.304,-4.655 -3.403,9.363 z"
           inkscape:connector-curvature="0"
           style="fill:url(#XMLID_4_);stroke:none" />
        <linearGradient
           gradientTransform="matrix(1,0,0,-1,226.918,400.7705)"
           y2="373.72989"
           x2="-209.5114"
           y1="371.77881"
           x1="-210.7256"
           gradientUnits="userSpaceOnUse"
           id="XMLID_5_">
          <stop
             id="stop188"
             style="stop-color:#A1DBE4"
             offset="0" />
          <stop
             id="stop189"
             style="stop-color:#67C4DC"
             offset="1" />
        </linearGradient>
        <path
           id="path193"
           d="m 19.732,30.155 -6.802,-2.773 4.707,-4.708 2.095,7.481 z"
           inkscape:connector-curvature="0"
           style="fill:url(#XMLID_5_);stroke:none" />
        <path
           id="path194"
           d="m 16.334,18.018 -3.403,9.363 5.761,-0.798 -2.358,-8.565 z"
           a:adobe-blending-mode="multiply"
           inkscape:connector-curvature="0"
           style="opacity:0.41000001;stroke:none" />
        <path
           id="path195"
           d="m 11.195,32.24 -1.96,5.371 0.306,1.68 7.837,-0.757 4.917,1.525 -0.824,-3.63 -10.276,-4.189 z"
           a:adobe-blending-mode="multiply"
           inkscape:connector-curvature="0"
           style="opacity:0.2;stroke:none" />
        <path
           id="path196"
           d="M 38.176,39.837 31.304,48.164 42.81,47.02 50.1,38.886 36.643,34.715 38.176,39.837 Z"
           a:adobe-blending-mode="multiply"
           inkscape:connector-curvature="0"
           style="opacity:0.2;stroke:none" />
      </g>
    </g>
  </g>
  <g
     transform="translate(3.3826459,43.846576)"
     id="g7494">
    <path
       inkscape:connector-curvature="0"
       style="fill:none;stroke:#010000;stroke-width:4;stroke-linejoin:round"
       d="M 30,16 30,2 c 0,0 6,2 11,2 4,0 11.999997,-2 16.999997,-2 l 0,14 C 52.999997,16 45,18 41,18 36,18 30,16 30,16 Z"
       id="path42-7-9" />
    <path
       inkscape:connector-curvature="0"
       style="fill:url(#linearGradient7588-5);fill-opacity:1"
       d="M 30,16 30,2 c 0,0 6,2 11,2 4,0 11.999997,-2 16.999997,-2 l 0,14 C 52.999997,16 45,18 41,18 36,18 30,16 30,16 Z"
       id="path49-1-3" />
    <g
       id="text7606-7"
       style="font-style:normal;font-variant:normal;font-weight:bold;font-stretch:normal;font-size:11.25px;line-height:125%;font-family:'DejaVu Sans';-inkscape-font-specification:'DejaVu Sans Bold';letter-spacing:0px;word-spacing:0px;fill:#000000;fill-opacity:1;stroke:none;stroke-width:1px;stroke-linecap:butt;stroke-linejoin:miter;stroke-opacity:1">
      <path
         inkscape:connector-curvature="0"
         id="path7615"
         d="m 36.015684,9.1485596 q 0.499878,0 0.758057,-0.2197266 0.258178,-0.2197266 0.258178,-0.6481934 0,-0.4229736 -0.258178,-0.6427001 -0.258179,-0.2252198 -0.758057,-0.2252198 l -1.170044,0 0,1.7358399 1.170044,0 z m 0.07141,3.5870364 q 0.637207,0 0.955811,-0.269165 0.324096,-0.269165 0.324096,-0.812989 0,-0.532837 -0.318603,-0.796508 -0.318604,-0.269165 -0.961304,-0.269165 l -1.241455,0 0,2.147827 1.241455,0 z m 1.966553,-2.9498294 q 0.681152,0.1977539 1.054687,0.7305904 0.373536,0.532837 0.373536,1.307373 0,1.186524 -0.802002,1.768799 -0.802002,0.582276 -2.438965,0.582276 l -3.510132,0 0,-8.2012943 3.175049,0 q 1.708374,0 2.471924,0.5163575 0.769043,0.5163574 0.769043,1.6534423 0,0.5987549 -0.280152,1.0217286 -0.280151,0.4174804 -0.812988,0.6207275 z" />
      <path
         inkscape:connector-curvature="0"
         id="path7617"
         d="m 40.899107,5.9735107 6.893921,0 0,1.2799073 -4.400025,5.322876 4.526368,0 0,1.598511 -7.146607,0 0,-1.279908 4.400025,-5.3228755 -4.273682,0 0,-1.5985108 z" />
      <path
         inkscape:connector-curvature="0"
         id="path7619"
         d="m 51.660215,12.620239 3.609009,0 0,1.554566 -5.960083,0 0,-1.554566 2.993775,-2.6422117 q 0.401001,-0.3625488 0.593261,-0.7086181 0.192261,-0.3460694 0.192261,-0.7196045 0,-0.5767822 -0.390015,-0.9283447 -0.384521,-0.3515625 -1.027221,-0.3515625 -0.494385,0 -1.082154,0.2142334 -0.587768,0.2087402 -1.257934,0.6262207 l 0,-1.8017579 q 0.714111,-0.236206 1.411743,-0.3570556 0.697632,-0.1263428 1.367798,-0.1263428 1.472168,0 2.285156,0.6481934 0.818482,0.6481933 0.818482,1.8072509 0,0.6701661 -0.34607,1.2524415 -0.346069,0.5767819 -1.455688,1.5490719 l -1.75232,1.538086 z" />
    </g>
  </g>
</svg>
