<?xml version="1.0" encoding="UTF-8" standalone="yes"?>
<svg version="1.1" width="64" height="64" color-interpolation="linearRGB"
     xmlns:svg="http://www.w3.org/2000/svg" xmlns="http://www.w3.org/2000/svg">
 <g>
  <path style="fill:#010101; fill-opacity:0.5725"
        d="M27 57L29 59L32.13 55.83L37 59L45.39 47.54L64 38L59 35L61 37L36 49L27 57z
           M58 34L62 31L58 29L55 32L58 34z"
  />
  <path style="fill:none; stroke:#010101; stroke-width:4"
        d="M6.25 30C6.25 30 11.87 36 16.87 42.5C21.87 49 26.25 55.75 26.25 55.75L59.12 36.87L32 15L6.25 30z"
  />
  <radialGradient id="gradient0" gradientUnits="userSpaceOnUse" cx="0" cy="0" r="64" gradientTransform="matrix(0.5714,0,0,0.3333,26,35)">
   <stop offset="1" stop-color="#eaeaea"/>
   <stop offset="0.4886" stop-color="#a3a3a3"/>
  </radialGradient>
  <path style="fill:url(#gradient0)"
        d="M6.25 30C6.25 30 11.87 36 16.87 42.5C21.87 49 26.25 55.75 26.25 55.75L59.12 36.87L32 15L6.25 30z"
  />
  <path style="fill:none; stroke:#010101; stroke-width:4"
        d="M2.62 30.87C2.62 30.87 10.95 36.26 19 41.87C27.44 47.75 35.75 52.75 35.75 52.75L58.12 26.37C58.12 26.37 45.44 20.7 35.37 15.37C30.18 12.62 26 9.37 26 9.37L2.62 30.87z"
  />
  <linearGradient id="gradient1" gradientUnits="userSpaceOnUse" x1="107.04" y1="-17.09" x2="118.33" y2="27.99">
   <stop offset="0" stop-color="#d6d6d6"/>
   <stop offset="0.7424" stop-color="#f5f5f5"/>
   <stop offset="1" stop-color="#e6e6e6"/>
  </linearGradient>
  <path style="fill:url(#gradient1)"
        d="M2.62 30.87C2.62 30.87 10.95 36.26 19 41.87C27.44 47.75 35.75 52.75 35.75 52.75L58.12 26.37C58.12 26.37 45.44 20.7 35.37 15.37C30.18 12.62 26 9.37 26 9.37L2.62 30.87z"
  />
  <linearGradient id="gradient2" gradientUnits="userSpaceOnUse" x1="-47.14" y1="-15.78" x2="-28.46" y2="-37.85">
   <stop offset="0" stop-color="#010101"/>
   <stop offset="1" stop-color="#9e9e9e"/>
  </linearGradient>
  <path style="fill:none; stroke:url(#gradient2); stroke-width:1"
        d=""
  />
  <linearGradient id="gradient3" gradientUnits="userSpaceOnUse" x1="-47.14" y1="-15.78" x2="-28.46" y2="-37.85">
   <stop offset="0" stop-color="#010101"/>
   <stop offset="1" stop-color="#9e9e9e"/>
  </linearGradient>
  <path style="fill:none; stroke:url(#gradient3); stroke-width:1"
        d=""
  />
  <path style="fill:#010101"
        d="M41.5 19.5L40.5 20.5L41.5 21.5L42.5 20.5L41.5 19.5z
           M49.5 29.5L48.5 30.5L49.5 31.5L50.5 30.5L49.5 29.5z
           M46.5 35.5L45.5 36.5L46.5 37.5L47.5 36.5L46.5 35.5z
           M39.5 40.5L38.5 41.5L39.5 42.5L40.5 41.5L39.5 40.5z
           M22.5 39.5L21.5 40.5L22.5 41.5L23.5 40.5L22.5 39.5z
           M16.5 34.5L15.5 35.5L16.5 36.5L17.5 35.5L16.5 34.5z
           M14.5 28.5L13.5 29.5L14.5 30.5L15.5 29.5L14.5 28.5z
           M24.5 17.5L23.5 18.5L24.5 19.5L25.5 18.5L24.5 17.5z
           M32.5 16.5L31.5 17.5L32.5 18.5L33.5 17.5L32.5 16.5z"
  />
  <path style="fill:none; stroke:#ff0505; stroke-width:2"
        d="M32 27C40 28 50 28 46 24C44 22 39 26 35 30C30 35 26 43 30 43C35 43 30 34 27 29C24.42 24.71 21 20 19 21C13.78 23.6 24 26 32 27z"
  />
 </g>
</svg>
