<?xml version="1.0" encoding="UTF-8" standalone="no"?>
<svg
   xmlns:dc="http://purl.org/dc/elements/1.1/"
   xmlns:cc="http://creativecommons.org/ns#"
   xmlns:rdf="http://www.w3.org/1999/02/22-rdf-syntax-ns#"
   xmlns:svg="http://www.w3.org/2000/svg"
   xmlns="http://www.w3.org/2000/svg"
   xmlns:sodipodi="http://sodipodi.sourceforge.net/DTD/sodipodi-0.dtd"
   xmlns:inkscape="http://www.inkscape.org/namespaces/inkscape"
   version="1.1"
   width="64"
   height="64"
   color-interpolation="linearRGB"
   id="svg2"
   sodipodi:version="0.32"
   inkscape:version="0.91 r13725"
   sodipodi:docname="application-x-deb.svg"
   inkscape:output_extension="org.inkscape.output.svg.inkscape">
  <metadata
     id="metadata56">
    <rdf:RDF>
      <cc:Work
         rdf:about="">
        <dc:format>image/svg+xml</dc:format>
        <dc:type
           rdf:resource="http://purl.org/dc/dcmitype/StillImage" />
      </cc:Work>
    </rdf:RDF>
  </metadata>
  <defs
     id="defs54">
    <inkscape:perspective
       sodipodi:type="inkscape:persp3d"
       inkscape:vp_x="0 : 32 : 1"
       inkscape:vp_y="0 : 1000 : 0"
       inkscape:vp_z="64 : 32 : 1"
       inkscape:persp3d-origin="32 : 21.333333 : 1"
       id="perspective58" />
    <inkscape:perspective
       id="perspective21"
       inkscape:persp3d-origin="50 : 40 : 1"
       inkscape:vp_z="100 : 60 : 1"
       inkscape:vp_y="0 : 1000 : 0"
       inkscape:vp_x="0 : 60 : 1"
       sodipodi:type="inkscape:persp3d" />
    <defs
       id="defs829" />
  </defs>
  <sodipodi:namedview
     inkscape:window-height="708"
     inkscape:window-width="1364"
     inkscape:pageshadow="2"
     inkscape:pageopacity="0.0"
     guidetolerance="10.0"
     gridtolerance="10.0"
     objecttolerance="10.0"
     borderopacity="1.0"
     bordercolor="#666666"
     pagecolor="#ffffff"
     id="base"
     showgrid="false"
     inkscape:zoom="3.2424316"
     inkscape:cx="-74.104768"
     inkscape:cy="18.157082"
     inkscape:window-x="2"
     inkscape:window-y="30"
     inkscape:current-layer="svg2"
     inkscape:window-maximized="1" />
  <g
     id="g4">
    <path
       style="fill:#010101; fill-opacity:0.5333"
       d="M36 63H41C41 63 45.5 59.62 48.12 56.08C51.03 52.17 52.08 48.05 52.08 48.05C52.08 48.05 57.06 44.04 60.04 40.02C63.02 36.01 63 32 63 32L59 30L57 35L36 63z"
       id="path6" />
    <path
       style="fill:none; stroke:#010000; stroke-width:4"
       d="M3 32C3 32 2 34.47 2 37.25C2 40.86 2.62 44.62 2.62 44.62C2.62 44.62 4.97 46.57 8.23 48.3C12.2 50.4 16.61 51.73 16.61 51.73L16.62 37.87L29.5 24.75C29.5 24.75 25.45 23.1 21.66 21.55C18.29 20.17 15.11 19.88 15.11 19.88C15.11 19.88 11.04 21.95 7.87 25.12C4.49 28.5 3 32 3 32z            M30 23.75L38.93 14.06C38.93 14.06 35.07 12.66 31.42 11.33C28.13 10.13 25 10 25 10C25 10 23.27 10.72 21.37 12.62C19.05 14.94 16.49 17.5 16.49 17.5L30 23.75z            M31.5 25.37L47.87 31L47.92 45.96C47.92 45.96 51.84 42.11 54.36 38.78C56.29 36.24 57 33.62 57 33.62C57 33.62 58 29.95 58 26.37C58 23.53 56.25 21.5 56.25 21.5C56.25 21.5 52.21 18.89 47.33 17.12C43.79 15.83 40.72 15.21 40.72 15.21C40.72 15.21 38.67 16.65 36.4 18.79C33.61 21.43 31.5 25.37 31.5 25.37z            M46.62 33C46.62 33 42.42 30.85 37.97 28.94C34 27.24 30.5 26.25 30.5 26.25C30.5 26.25 27.59 28.49 24.78 31.54C21.62 34.97 18.62 38.62 18.62 38.62C18.62 38.62 18.24 41.59 18.24 44.88C18.24 48.98 18.87 53.47 18.87 53.47C18.87 53.47 22.15 55.66 26.3 57.86C30.99 60.35 36 61.25 36 61.25C36 61.25 39.12 58.87 42.12 54.92C44.88 51.29 46.77 47.67 46.77 47.67C46.77 47.67 47.23 44.08 47.2 40.36C47.16 36.62 46.62 33 46.62 33z"
       id="path8" />
    <linearGradient
       id="gradient0"
       gradientUnits="userSpaceOnUse"
       x1="13.84"
       y1="-34.14"
       x2="58.34"
       y2="-23.7">
      <stop
         offset="0"
         stop-color="#fff8ea"
         id="stop11" />
      <stop
         offset="1"
         stop-color="#f5deac"
         id="stop13" />
    </linearGradient>
    <path
       style="fill:url(#gradient0)"
       d="M46.62 33C46.62 33 42.42 30.85 37.97 28.94C34 27.24 30.5 26.25 30.5 26.25C30.5 26.25 27.59 28.49 24.78 31.54C21.62 34.97 18.62 38.62 18.62 38.62L36 46C36 46 39.67 42.72 42.34 39.46C44.98 36.22 46.62 33 46.62 33z            M3 32L16.62 37.87L29.5 24.75C29.5 24.75 25.45 23.1 21.66 21.55C18.29 20.17 15.11 19.88 15.11 19.88C15.11 19.88 11.04 21.95 7.87 25.12C4.49 28.5 3 32 3 32z            M30 23.75L38.93 14.06C38.93 14.06 35.07 12.66 31.42 11.33C28.13 10.13 25 10 25 10C25 10 23.27 10.72 21.37 12.62C19.05 14.94 16.49 17.5 16.49 17.5L30 23.75z            M31.5 25.37L47.87 31C47.87 31 51.34 28.19 53.6 25.63C55.5 23.48 56.25 21.5 56.25 21.5C56.25 21.5 52.21 18.89 47.33 17.12C43.79 15.83 40.72 15.21 40.72 15.21C40.72 15.21 38.67 16.65 36.4 18.79C33.61 21.43 31.5 25.37 31.5 25.37z"
       id="path15" />
    <linearGradient
       id="gradient1"
       gradientUnits="userSpaceOnUse"
       x1="44.72"
       y1="-3.9"
       x2="86.1"
       y2="14.51">
      <stop
         offset="0"
         stop-color="#983f04"
         id="stop18" />
      <stop
         offset="1"
         stop-color="#e6c276"
         id="stop20" />
    </linearGradient>
    <path
       style="fill:url(#gradient1)"
       d="M46.62 33C46.62 33 44.98 36.22 42.34 39.46C39.67 42.72 36 46 36 46V61.25C36 61.25 39.12 58.87 42.12 54.92C44.88 51.29 46.77 47.67 46.77 47.67C46.77 47.67 47.23 44.08 47.2 40.36C47.16 36.62 46.62 33 46.62 33z            M47.87 31L47.92 45.96C47.92 45.96 51.84 42.11 54.36 38.78C56.29 36.24 57 33.62 57 33.62C57 33.62 58 29.95 58 26.37C58 23.53 56.25 21.5 56.25 21.5C56.25 21.5 55.5 23.48 53.6 25.63C51.34 28.19 47.87 31 47.87 31z"
       id="path22" />
    <linearGradient
       id="gradient2"
       gradientUnits="userSpaceOnUse"
       x1="17.72"
       y1="94.92"
       x2="-10.6"
       y2="75.85">
      <stop
         offset="0"
         stop-color="#e1ab36"
         id="stop25" />
      <stop
         offset="1"
         stop-color="#ffebc0"
         id="stop27" />
    </linearGradient>
    <path
       style="fill:url(#gradient2)"
       d="M36 46L18.62 38.62C18.62 38.62 18.24 41.59 18.24 44.88C18.24 48.98 18.87 53.47 18.87 53.47C18.87 53.47 22.15 55.66 26.3 57.86C30.99 60.35 36 61.25 36 61.25V46z"
       id="path29" />
    <linearGradient
       id="gradient3"
       gradientUnits="userSpaceOnUse"
       x1="2.85"
       y1="-60"
       x2="21.14"
       y2="-60">
      <stop
         offset="0"
         stop-color="#ffefce"
         id="stop32" />
      <stop
         offset="1"
         stop-color="#ffd16e"
         id="stop34" />
    </linearGradient>
    <path
       style="fill:url(#gradient3)"
       d="M3 32C3 32 2 34.47 2 37.25C2 40.86 2.62 44.62 2.62 44.62C2.62 44.62 4.97 46.57 8.23 48.3C12.2 50.4 16.61 51.73 16.61 51.73L16.62 37.87L3 32z"
       id="path36" />
    <path
       style="fill:none; stroke:#010000; stroke-width:2; stroke-linecap:round"
       d="M31 34C31 34 31 22 26 19C22.16 16.69 11 24 18 25C25 26 43 23 47 26C49.26 27.69 43 34 38 33C34.07 32.21 31 24 31 24C31 24 28.37 24.67 24 27.25C19.88 29.67 15 31.25 15 31.25"
       id="path38" />
    <path
       style="fill:none; stroke:#010000; stroke-width:2"
       d="M31 24V14"
       id="path40" />
    <path
       style="fill:none; stroke:#010000; stroke-width:4; stroke-linejoin:round"
       d="M30 16V2C30 2 36 4 41 4C45 4 53 2 58 2V16C53 16 45 18 41 18C36 18 30 16 30 16z"
       id="path42" />
    <linearGradient
       id="gradient4"
       gradientUnits="userSpaceOnUse"
       x1="38.95"
       y1="-23.75"
       x2="66"
       y2="-12.14">
      <stop
         offset="0"
         stop-color="#ffc0c0"
         id="stop45"
         style="stop-color:#c6c6c6;stop-opacity:1;" />
      <stop
         offset="1"
         stop-color="#ff9e9e"
         id="stop47"
         style="stop-color:#f7f7f7;stop-opacity:1;" />
    </linearGradient>
    <path
       style="fill:url(#gradient4)"
       d="M30 16V2C30 2 36 4 41 4C45 4 53 2 58 2V16C53 16 45 18 41 18C36 18 30 16 30 16z"
       id="path49" />
  </g>
  <text
     xml:space="preserve"
     style="font-size:11.2642231px;font-style:normal;font-variant:normal;font-weight:normal;font-stretch:normal;fill:#000000;fill-opacity:1;stroke:#000000;stroke-width:0.5;stroke-linecap:round;stroke-linejoin:round;stroke-miterlimit:0;stroke-dasharray:none;stroke-opacity:1;font-family:DejaVu Sans;-inkscape-font-specification:DejaVu Sans"
     x="31.252441"
     y="14.306725"
     id="text3201"><tspan
       sodipodi:role="line"
       id="tspan3203"
       x="31.252441"
       y="14.306725"
       style="stroke:#000000;stroke-width:0.5;stroke-miterlimit:0;stroke-dasharray:none;stroke-opacity:1">DEB</tspan></text>
  <g
     id="Debian"
     style="fill:#d70751"
     transform="matrix(0.01407926,0.0060965,0,-0.01055945,-17.280742,73.379435)">
    <g
       id="GROUP_BEGIN_2">
      <path
         id="PATH_1"
         d="m 3255.5,3850.9 c -18,-0.2 3.4,-9.3 26.8,-12.9 6.5,5.1 12.4,10.2 17.6,15.2 -14.6,-3.6 -29.5,-3.7 -44.4,-2.3"
         inkscape:connector-curvature="0" />
      <path
         id="PATH_2"
         d="m 3351.9,3874.9 c 10.7,14.8 18.5,31 21.3,47.7 -2.4,-11.9 -8.9,-22.2 -15,-33.1 -33.6,-21.1 -3.2,12.6 0,25.4 -36.1,-45.5 -5,-27.3 -6.3,-40"
         inkscape:connector-curvature="0" />
      <path
         id="PATH_3"
         d="m 3387.5,3967.6 c 2.2,32.3 -6.4,22.1 -9.2,9.8 3.3,-1.8 6,-22.8 9.2,-9.8"
         inkscape:connector-curvature="0" />
      <path
         id="PATH_4"
         d="m 3187.3,4409.9 c 9.6,-1.7 20.8,-3.1 19.2,-5.3 10.5,2.3 12.8,4.4 -19.2,5.3"
         inkscape:connector-curvature="0" />
      <path
         id="PATH_5"
         d="m 3206.5,4404.6 -6.8,-1.5 6.3,0.6 0.5,0.9"
         inkscape:connector-curvature="0" />
      <path
         id="PATH_6"
         d="m 3505.5,3955.3 c 1.1,-29.1 -8.5,-43.1 -17.1,-68.1 l -15.5,-7.8 c -12.7,-24.6 1.2,-15.6 -7.9,-35.3 -19.8,-17.6 -60.2,-55.2 -73.1,-58.6 -9.5,0.2 6.4,11.1 8.4,15.4 -26.5,-18.2 -21.3,-27.4 -61.9,-38.5 l -1.2,2.7 c -100.2,-47.2 -239.3,46.2 -237.5,173.7 -1.1,-8.1 -3,-6.1 -5.3,-9.4 -5.1,65.6 30.3,131.5 90.1,158.4 58.5,28.9 127,17 168.9,-22 -23,30.1 -68.8,62.1 -123.1,59.1 -53.1,-0.8 -102.9,-34.6 -119.5,-71.3 -27.2,-17.2 -30.4,-66.1 -42.2,-75.1 -16,-117.3 30,-168.1 107.8,-227.7 12.3,-8.3 3.5,-9.5 5.1,-15.8 -25.8,12.1 -49.5,30.4 -69,52.8 10.4,-15.1 21.5,-29.9 35.9,-41.4 -24.4,8.3 -56.9,59.1 -66.4,61.2 42,-75.3 170.5,-132 237.8,-103.9 -31.2,-1.1 -70.7,-0.6 -105.7,12.3 -14.7,7.6 -34.7,23.2 -31.1,26.2 91.8,-34.3 186.7,-26 266.1,37.7 20.2,15.7 42.3,42.5 48.7,42.9 -9.6,-14.5 1.6,-7 -5.7,-19.7 20.1,32.5 -8.8,13.2 20.8,56.1 l 10.9,-15.1 c -4.1,27 33.5,59.7 29.6,102.4 8.7,13 9.7,-14.1 0.5,-44.1 12.7,33.3 3.4,38.7 6.6,66.1 3.5,-9.2 8.2,-19 10.5,-28.7 -8.2,32.1 8.5,54.1 12.7,72.8 -4.1,1.8 -12.8,-14.2 -14.8,23.8 0.3,16.5 4.6,8.6 6.3,12.7 -3.3,1.8 -11.8,14.5 -16.9,38.7 3.7,5.8 10,-14.7 15.1,-15.6 -3.3,19.3 -9,34 -9.2,48.8 -14.9,31.2 -5.3,-4.1 -17.4,13.4 -15.8,49.5 13.2,11.5 15.2,34 24,-34.9 37.7,-88.8 44,-111.2 -4.8,27.2 -12.5,53.7 -22,79.2 7.3,-3.1 -11.8,56.1 9.5,16.9 -22.7,83.5 -97.2,161.6 -165.7,198.2 8.4,-7.7 19,-17.3 15.2,-18.8 -34.1,20.3 -28.1,21.9 -33,30.4 -27.7,11.3 -29.5,-0.9 -47.9,0 -52.3,27.7 -62.4,24.8 -110.5,42.2 l 2.2,-10.3 c -34.7,11.6 -40.4,-4.3 -77.9,0 -2.2,1.8 12,6.4 23.8,8.1 -33.5,-4.4 -31.9,6.7 -64.7,-1.2 8.1,5.7 16.6,9.5 25.2,14.3 -27.3,-1.7 -65.2,-15.9 -53.5,-3 -44.5,-19.9 -123.7,-47.8 -168.1,-89.4 l -1.4,9.3 c -20.4,-24.4 -88.7,-72.9 -94.2,-104.6 l -5.4,-1.3 c -10.6,-17.9 -17.5,-38.2 -25.9,-56.6 -13.8,-23.7 -20.3,-9.1 -18.3,-12.8 -27.2,-55.3 -40.8,-101.7 -52.5,-139.7 8.4,-12.5 0.2,-75 3.4,-125 -13.7,-247 173.4,-486.9 377.8,-542.3 30,-10.7 74.6,-10.3 112.5,-11.4 -44.8,12.8 -50.5,6.8 -94.1,22 -31.4,14.8 -38.3,31.7 -60.6,51 l 8.8,-15.6 c -43.6,15.5 -25.4,19.2 -60.9,30.4 l 9.4,12.3 c -14.1,1.1 -37.4,23.8 -43.8,36.5 l -15.5,-0.7 c -18.6,23 -28.5,39.5 -27.8,52.4 l -5,-8.9 c -5.7,9.7 -68.4,86 -35.9,68.3 -6,5.5 -14,9 -22.8,24.8 l 6.7,7.6 c -15.7,20.1 -28.9,46 -27.9,54.6 8.4,-11.3 14.2,-13.4 19.9,-15.3 -39.5,98.1 -41.8,5.4 -71.7,99.9 l 6.3,0.5 c -4.9,7.3 -7.8,15.3 -11.7,23.1 l 2.7,27.5 c -28.4,32.9 -7.9,140 -3.8,198.7 2.9,23.9 23.8,49.3 39.7,89.2 l -9.7,1.7 c 18.5,32.3 105.9,129.9 146.3,124.9 19.6,24.6 -3.9,0.1 -7.7,6.3 43,44.5 56.5,31.4 85.6,39.4 31.3,18.6 -26.9,-7.2 -12,7.1 54.1,13.8 38.3,31.5 109,38.5 7.4,-4.3 -17.3,-6.6 -23.5,-12.1 45.1,22.1 142.7,17.1 206.1,-12.2 73.6,-34.4 156.3,-136.1 159.5,-231.7 l 3.8,-1 c -1.9,-38 5.8,-82 -7.6,-122.4 l 9.1,19.1"
         inkscape:connector-curvature="0" />
      <path
         id="PATH_7"
         d="m 3059.3,3826.2 -2.5,-12.6 c 11.8,-16 21.2,-33.4 36.3,-45.9 -10.9,21.1 -18.9,29.9 -33.8,58.5"
         inkscape:connector-curvature="0" />
      <path
         id="PATH_8"
         d="m 3087.2,3827.3 c -6.2,6.9 -9.9,15.3 -14,23.5 3.9,-14.5 12,-27 19.6,-39.8 l -5.6,16.3"
         inkscape:connector-curvature="0" />
      <path
         id="PATH_9"
         d="m 3581.3,3934.7 -2.6,-6.6 c -4.9,-34.4 -15.3,-68.4 -31.4,-99.9 17.7,33.2 29.2,69.6 34,106.5"
         inkscape:connector-curvature="0" />
      <path
         id="PATH_10"
         d="m 3190.9,4418.5 c 12.1,4.4 29.8,2.4 42.7,5.4 -16.8,-1.4 -33.5,-2.3 -50,-4.4 l 7.3,-1"
         inkscape:connector-curvature="0" />
      <path
         id="PATH_11"
         d="m 2764.3,4191.7 c 2.8,-25.9 -19.5,-36 5,-18.9 13.1,29.5 -5.2,8.1 -5,18.9"
         inkscape:connector-curvature="0" />
      <path
         id="PATH_12"
         d="m 2735.6,4071.7 c 5.6,17.3 6.6,27.7 8.8,37.7 -15.6,-19.9 -7.2,-24.2 -8.8,-37.7"
         inkscape:connector-curvature="0" />
    </g>
  </g>
</svg>
