<?xml version="1.0" encoding="UTF-8" standalone="no"?>
<!-- Created using Karbon, part of Calligra: http://www.calligra.org/karbon -->

<svg
   xmlns:dc="http://purl.org/dc/elements/1.1/"
   xmlns:cc="http://creativecommons.org/ns#"
   xmlns:rdf="http://www.w3.org/1999/02/22-rdf-syntax-ns#"
   xmlns:svg="http://www.w3.org/2000/svg"
   xmlns="http://www.w3.org/2000/svg"
   xmlns:xlink="http://www.w3.org/1999/xlink"
   xmlns:sodipodi="http://sodipodi.sourceforge.net/DTD/sodipodi-0.dtd"
   xmlns:inkscape="http://www.inkscape.org/namespaces/inkscape"
   width="51.2pt"
   height="51.2pt"
   id="svg2"
   version="1.1"
   inkscape:version="0.91 r13725"
   sodipodi:docname="application-atom+xml.svg">
  <metadata
     id="metadata65">
    <rdf:RDF>
      <cc:Work
         rdf:about="">
        <dc:format>image/svg+xml</dc:format>
        <dc:type
           rdf:resource="http://purl.org/dc/dcmitype/StillImage" />
      </cc:Work>
    </rdf:RDF>
  </metadata>
  <sodipodi:namedview
     pagecolor="#ffffff"
     bordercolor="#666666"
     borderopacity="1"
     objecttolerance="10"
     gridtolerance="10"
     guidetolerance="10"
     inkscape:pageopacity="0"
     inkscape:pageshadow="2"
     inkscape:window-width="1920"
     inkscape:window-height="1016"
     id="namedview63"
     showgrid="false"
     inkscape:zoom="11.16333"
     inkscape:cx="14.173778"
     inkscape:cy="53.498962"
     inkscape:window-x="0"
     inkscape:window-y="30"
     inkscape:window-maximized="1"
     inkscape:current-layer="svg2" />
  <defs
     id="defs4">
    <radialGradient
       id="gradient0"
       gradientTransform="matrix(0.5714 0 0 0.3333 19.75 20)"
       gradientUnits="objectBoundingBox"
       cx="0.00000000000"
       cy="0.00000000000"
       fx="0.00000000000"
       fy="0.00000000000"
       r="0.95877600965"
       spreadMethod="pad">
      <stop
         stop-color="#f1b706"
         offset="0.48859998584"
         stop-opacity="1.00000000000"
         id="stop7" />
      <stop
         stop-color="#fffcc0"
         offset="1.00000000000"
         stop-opacity="1.00000000000"
         id="stop9" />
    </radialGradient>
    <linearGradient
       id="gradient1"
       gradientTransform="translate(-2.62, -9.37)"
       gradientUnits="objectBoundingBox"
       x1="1.92864864865"
       y1="-0.39396035039"
       x2="2.13207207207"
       y2="0.64522821577"
       spreadMethod="pad">
      <stop
         stop-color="#ffefa5"
         offset="0.00000000000"
         stop-opacity="1.00000000000"
         id="stop12" />
      <stop
         stop-color="#fffcc0"
         offset="0.74239999056"
         stop-opacity="1.00000000000"
         id="stop14" />
      <stop
         stop-color="#fff890"
         offset="1.00000000000"
         stop-opacity="1.00000000000"
         id="stop16" />
    </linearGradient>
    <linearGradient
       id="gradient2"
       gradientTransform="translate(-14, -19)"
       gradientUnits="objectBoundingBox"
       x1="-1.63965217391"
       y1="-0.63120000000"
       x2="-0.98991304348"
       y2="-1.51400000000"
       spreadMethod="pad">
      <stop
         stop-color="#010101"
         offset="0.00000000000"
         stop-opacity="1.00000000000"
         id="stop19" />
      <stop
         stop-color="#9e9e9e"
         offset="1.00000000000"
         stop-opacity="1.00000000000"
         id="stop21" />
    </linearGradient>
    <linearGradient
       id="gradient3"
       gradientTransform="translate(-17, -22.62)"
       gradientUnits="objectBoundingBox"
       x1="-1.74592592593"
       y1="-0.81424148607"
       x2="-1.05407407407"
       y2="-1.95304437564"
       spreadMethod="pad">
      <stop
         stop-color="#010101"
         offset="0.00000000000"
         stop-opacity="1.00000000000"
         id="stop24" />
      <stop
         stop-color="#9e9e9e"
         offset="1.00000000000"
         stop-opacity="1.00000000000"
         id="stop26" />
    </linearGradient>
    <linearGradient
       id="gradient4"
       gradientTransform="scale(1.213954,0.82375447)"
       gradientUnits="userSpaceOnUse"
       x1="52.306923"
       y1="56.889709"
       x2="-16.152039"
       y2="-10.264123"
       spreadMethod="pad">
      <stop
         stop-color="#000000"
         offset="0.00000000000"
         stop-opacity="1.00000000000"
         id="stop29"
         style="stop-color:#0000e4;stop-opacity:1" />
      <stop
         stop-color="#ffffff"
         offset="1.00000000000"
         stop-opacity="1.00000000000"
         id="stop31"
         style="stop-color:#5fffff;stop-opacity:1" />
    </linearGradient>
    <linearGradient
       id="gradient5"
       gradientTransform="translate(-36,-17)"
       gradientUnits="objectBoundingBox"
       x1="2.0327272"
       y1="-0.18809524"
       x2="3.9136362"
       y2="0.25023809"
       spreadMethod="pad"
       xlink:href="#gradient6">
      <stop
         stop-color="#000000"
         offset="0.00000000000"
         stop-opacity="1.00000000000"
         id="stop34"
         style="stop-color:#0000ff;stop-opacity:1" />
      <stop
         stop-color="#ffffff"
         offset="1.00000000000"
         stop-opacity="1.00000000000"
         id="stop36"
         style="stop-color:#002bff;stop-opacity:1" />
    </linearGradient>
    <linearGradient
       id="gradient6"
       gradientTransform=""
       gradientUnits="objectBoundingBox"
       x1="0.00000000000"
       y1="0.00000000000"
       x2="1.00000000000"
       y2="1.00000000000"
       spreadMethod="pad">
      <stop
         stop-color="#000000"
         offset="0.00000000000"
         stop-opacity="1.00000000000"
         id="stop39"
         style="stop-color:#00ddff;stop-opacity:1" />
      <stop
         stop-color="#ffffff"
         offset="1.00000000000"
         stop-opacity="1.00000000000"
         id="stop41"
         style="stop-color:#000080;stop-opacity:1" />
    </linearGradient>
    <linearGradient
       id="gradient7"
       gradientTransform="translate(-9, -15.411)"
       gradientUnits="objectBoundingBox"
       x1="0.32952380952"
       y1="-1.94700762974"
       x2="1.38904761905"
       y2="-1.41405649462"
       spreadMethod="pad">
      <stop
         stop-color="#ffffff"
         offset="0.00000000000"
         stop-opacity="1.00000000000"
         id="stop44" />
      <stop
         stop-color="#e7e7e7"
         offset="1.00000000000"
         stop-opacity="1.00000000000"
         id="stop46" />
    </linearGradient>
  </defs>
  <g
     id="g4">
    <path
       id="path6"
       transform="translate(27, 29)"
       fill="#010101"
       fill-opacity="0.57250324254"
       d="M0 28L2 30L5.13 26.83L10 30L18.39 18.54L37 9L32 6L34 8L9 20ZM31 5L35 2L31 0L28 3Z" />
    <path
       id="path8"
       transform="translate(6.25, 15)"
       fill="none"
       stroke="#010101"
       stroke-width="4.00000000000"
       stroke-linecap="butt"
       stroke-linejoin="miter"
       stroke-miterlimit="2.00000000000"
       d="M0 15C0 15 5.62 21 10.62 27.5C15.62 34 20 40.75 20 40.75L52.87 21.87L25.75 0Z" />
    <path
       id="path15"
       transform="translate(6.25, 15)"
       fill="url(#gradient0)"
       d="M0 15C0 15 5.62 21 10.62 27.5C15.62 34 20 40.75 20 40.75L52.87 21.87L25.75 0Z" />
    <path
       id="path17"
       transform="translate(2.62, 9.37)"
       fill="none"
       stroke="#010101"
       stroke-width="4.00000000000"
       stroke-linecap="butt"
       stroke-linejoin="miter"
       stroke-miterlimit="2.00000000000"
       d="M0 21.5C0 21.5 8.33 26.89 16.38 32.5C24.82 38.38 33.13 43.38 33.13 43.38L55.5 17C55.5 17 42.82 11.33 32.75 6C27.56 3.25 23.38 0 23.38 0Z" />
    <path
       id="path26"
       transform="translate(2.62, 9.37)"
       fill="url(#gradient1)"
       d="M0 21.5C0 21.5 8.33 26.89 16.38 32.5C24.82 38.38 33.13 43.38 33.13 43.38L55.5 17C55.5 17 42.82 11.33 32.75 6C27.56 3.25 23.38 0 23.38 0Z" />
    <path
       id="path33"
       transform="translate(14, 19)"
       fill="none"
       stroke="url(#gradient2)"
       stroke-width="1.00000000000"
       stroke-linecap="butt"
       stroke-linejoin="miter"
       stroke-miterlimit="2.00000000000"
       d="M6 17L20.87 1.87M0 13L12.87 0M12 21L24.75 7.87M18 25L28.75 13.37" />
    <path
       id="path40"
       transform="translate(17, 22.62)"
       fill="none"
       stroke="url(#gradient3)"
       stroke-width="1.00000000000"
       stroke-linecap="butt"
       stroke-linejoin="miter"
       stroke-miterlimit="2.00000000000"
       d="M12 19.38L27 3.75M6 15.38L17.75 3.63M0 11.38L11.12 0" />
  </g>
  <g
     id="g19249">
    <path
       id="path19211"
       transform="matrix(0.61333 0 0 0.61333 39.5716 20.769)"
       fill="#010101"
       fill-opacity="0.50189974823"
       d="M0 34L5 34L28 3L22 0L23 4Z" />
    <path
       id="path19213"
       transform="matrix(0.61333 0 0 0.61333 18.7184 7.27578)"
       fill="none"
       stroke="#010000"
       stroke-width="4.00000000000"
       stroke-linecap="butt"
       stroke-linejoin="miter"
       stroke-miterlimit="2.00000000000"
       d="M0 23L0 36L34 54L56 25L56 12L23 0Z" />
    <path
       id="path19220"
       transform="matrix(0.61333 0 0 0.61333 18.7184 7.27578)"
       fill="url(#gradient4)"
       d="M0 23L34 38L56 12L23 0Z"
       style="fill:url(#gradient4)" />
    <path
       id="path19227"
       transform="matrix(0.61333 0 0 0.61333 39.5716 14.6357)"
       fill="url(#gradient5)"
       d="M0 26L0 42L22 13L22 0Z"
       style="fill-opacity:1.0" />
    <path
       id="path19234"
       transform="matrix(0.61333 0 0 0.61333 18.7184 21.3824)"
       fill="url(#gradient6)"
       d="M0 0L0 13L34 31L34 15Z" />
    <path
       id="path19241"
       transform="matrix(0.61333 0 0 0.61333 23.0117 13.6611)"
       fill="url(#gradient7)"
       d="M12 15.589C17 9.58903 25 9.58903 31 12.589L35 9.58903C27 5.58903 15 5.58903 8 13.589ZM4 12.589L0 10.589C11 -1.41097 29 -2.41097 42 3.58903L38 6.58903C27 1.58903 13 2.58903 4 12.589ZM22.5 13.589C20.01 13.589 18 14.929 18 16.589C18 18.239 20.01 19.589 22.5 19.589C24.98 19.589 27 18.239 27 16.589C27 14.929 24.98 13.589 22.5 13.589Z" />
  </g>
</svg>
