<?xml version="1.0" encoding="UTF-8" standalone="no"?>
<svg
   xmlns:dc="http://purl.org/dc/elements/1.1/"
   xmlns:cc="http://creativecommons.org/ns#"
   xmlns:rdf="http://www.w3.org/1999/02/22-rdf-syntax-ns#"
   xmlns:svg="http://www.w3.org/2000/svg"
   xmlns="http://www.w3.org/2000/svg"
   xmlns:xlink="http://www.w3.org/1999/xlink"
   xmlns:sodipodi="http://sodipodi.sourceforge.net/DTD/sodipodi-0.dtd"
   xmlns:inkscape="http://www.inkscape.org/namespaces/inkscape"
   version="1.1"
   width="64"
   height="64"
   color-interpolation="linearRGB"
   id="svg2"
   inkscape:version="0.47 r22583"
   sodipodi:docname="application-x-troff-man.svg">
  <metadata
     id="metadata99">
    <rdf:RDF>
      <cc:Work
         rdf:about="">
        <dc:format>image/svg+xml</dc:format>
        <dc:type
           rdf:resource="http://purl.org/dc/dcmitype/StillImage" />
        <dc:title></dc:title>
      </cc:Work>
    </rdf:RDF>
  </metadata>
  <defs
     id="defs97">
    <inkscape:perspective
       sodipodi:type="inkscape:persp3d"
       inkscape:vp_x="0 : 32 : 1"
       inkscape:vp_y="0 : 1000 : 0"
       inkscape:vp_z="64 : 32 : 1"
       inkscape:persp3d-origin="32 : 21.333333 : 1"
       id="perspective101" />
    <radialGradient
       gradientTransform="matrix(0.5714,0,0,0.3333,26,35)"
       r="64"
       cy="0"
       cx="0"
       gradientUnits="userSpaceOnUse"
       id="gradient0">
      <stop
         id="stop11"
         stop-color="#fffcc0"
         offset="1" />
      <stop
         id="stop13"
         stop-color="#f1b706"
         offset="0.4886" />
    </radialGradient>
    <linearGradient
       y2="27.99"
       x2="118.33"
       y1="-17.09"
       x1="107.04"
       gradientUnits="userSpaceOnUse"
       id="gradient1">
      <stop
         id="stop20"
         stop-color="#ffefa5"
         offset="0" />
      <stop
         id="stop22"
         stop-color="#fffcc0"
         offset="0.7424" />
      <stop
         id="stop24"
         stop-color="#fff890"
         offset="1" />
    </linearGradient>
    <linearGradient
       y2="-37.85"
       x2="-28.46"
       y1="-15.78"
       x1="-47.14"
       gradientUnits="userSpaceOnUse"
       id="gradient2">
      <stop
         id="stop29"
         stop-color="#010101"
         offset="0" />
      <stop
         id="stop31"
         stop-color="#9e9e9e"
         offset="1" />
    </linearGradient>
    <linearGradient
       y2="-37.85"
       x2="-28.46"
       y1="-15.78"
       x1="-47.14"
       gradientUnits="userSpaceOnUse"
       id="gradient3">
      <stop
         id="stop36"
         stop-color="#010101"
         offset="0" />
      <stop
         id="stop38"
         stop-color="#9e9e9e"
         offset="1" />
    </linearGradient>
    <linearGradient
       y2="13.7"
       x2="21.52"
       y1="5.11"
       x1="42.77"
       gradientUnits="userSpaceOnUse"
       id="gradient4">
      <stop
         id="stop51"
         stop-color="#ffffdc"
         offset="0" />
      <stop
         id="stop53"
         stop-color="#f2f2da"
         offset="1" />
    </linearGradient>
    <linearGradient
       y2="46.6"
       x2="19.42"
       y1="46.6"
       x1="13.98"
       gradientUnits="userSpaceOnUse"
       id="gradient5">
      <stop
         id="stop64"
         stop-color="#0c3950"
         offset="0" />
      <stop
         id="stop66"
         stop-color="#02668c"
         offset="1" />
    </linearGradient>
    <linearGradient
       y2="44.82"
       x2="5.19"
       y1="45.01"
       x1="14.39"
       gradientUnits="userSpaceOnUse"
       id="gradient6">
      <stop
         id="stop87"
         stop-color="#0c3950"
         offset="0" />
      <stop
         id="stop89"
         stop-color="#02668c"
         offset="1" />
    </linearGradient>
    <linearGradient
       inkscape:collect="always"
       xlink:href="#gradient6"
       id="linearGradient4859"
       gradientUnits="userSpaceOnUse"
       x1="14.39"
       y1="45.01"
       x2="5.19"
       y2="44.82"
       gradientTransform="matrix(-0.2247,-0.5876,0.5621,-0.2149,13.7974,45.5714)" />
    <linearGradient
       inkscape:collect="always"
       xlink:href="#gradient5"
       id="linearGradient4870"
       gradientUnits="userSpaceOnUse"
       x1="13.98"
       y1="46.6"
       x2="19.42"
       y2="46.6"
       gradientTransform="matrix(-0.2247,-0.5876,0.5621,-0.2149,13.7974,45.5714)" />
    <linearGradient
       inkscape:collect="always"
       xlink:href="#gradient4"
       id="linearGradient4876"
       gradientUnits="userSpaceOnUse"
       x1="42.77"
       y1="5.11"
       x2="21.52"
       y2="13.7"
       gradientTransform="matrix(-0.2247,-0.5876,0.5621,-0.2149,13.7974,45.5714)" />
    <linearGradient
       inkscape:collect="always"
       xlink:href="#gradient3"
       id="linearGradient4883"
       gradientUnits="userSpaceOnUse"
       x1="-47.14"
       y1="-15.78"
       x2="-28.46"
       y2="-37.85"
       gradientTransform="translate(0,3)" />
    <linearGradient
       inkscape:collect="always"
       xlink:href="#gradient2"
       id="linearGradient4886"
       gradientUnits="userSpaceOnUse"
       x1="-47.14"
       y1="-15.78"
       x2="-28.46"
       y2="-37.85"
       gradientTransform="translate(0,3)" />
    <linearGradient
       inkscape:collect="always"
       xlink:href="#gradient1"
       id="linearGradient4889"
       gradientUnits="userSpaceOnUse"
       x1="107.04"
       y1="-17.09"
       x2="118.33"
       y2="27.99"
       gradientTransform="translate(0,3)" />
    <radialGradient
       inkscape:collect="always"
       xlink:href="#gradient0"
       id="radialGradient4893"
       gradientUnits="userSpaceOnUse"
       gradientTransform="matrix(0.5714,0,0,0.3333,26,38)"
       cx="0"
       cy="0"
       r="64" />
  </defs>
  <sodipodi:namedview
     pagecolor="#ffffff"
     bordercolor="#666666"
     borderopacity="1"
     objecttolerance="10"
     gridtolerance="10"
     guidetolerance="10"
     inkscape:pageopacity="0"
     inkscape:pageshadow="2"
     inkscape:window-width="786"
     inkscape:window-height="501"
     id="namedview95"
     showgrid="false"
     inkscape:zoom="3.6875"
     inkscape:cx="32"
     inkscape:cy="32"
     inkscape:window-x="377"
     inkscape:window-y="129"
     inkscape:window-maximized="0"
     inkscape:current-layer="svg2" />
  <path
     id="path6"
     d="m 27,60 2,2 3.13,-3.17 L 37,62 45.39,50.54 64,41 l -5,-3 2,2 -25,12 -9,8 z m 31,-23 4,-3 -4,-2 -3,3 3,2 z"
     style="fill:#010101;fill-opacity:0.57250001" />
  <path
     id="path8"
     d="m 6.25,33 c 0,0 5.62,6 10.62,12.5 5,6.5 9.38,13.25 9.38,13.25 L 59.12,39.87 32,18 6.25,33 z"
     style="fill:none;stroke:#010101;stroke-width:4" />
  <path
     id="path15"
     d="m 6.25,33 c 0,0 5.62,6 10.62,12.5 5,6.5 9.38,13.25 9.38,13.25 L 59.12,39.87 32,18 6.25,33 z"
     style="fill:url(#radialGradient4893)" />
  <path
     id="path17"
     d="m 2.62,33.87 c 0,0 8.33,5.39 16.38,11 8.44,5.88 16.75,10.88 16.75,10.88 L 58.12,29.37 c 0,0 -12.68,-5.67 -22.75,-11 -5.19,-2.75 -9.37,-6 -9.37,-6 L 2.62,33.87 z"
     style="fill:none;stroke:#010101;stroke-width:4" />
  <path
     id="path26"
     d="m 2.62,33.87 c 0,0 8.33,5.39 16.38,11 8.44,5.88 16.75,10.88 16.75,10.88 L 58.12,29.37 c 0,0 -12.68,-5.67 -22.75,-11 -5.19,-2.75 -9.37,-6 -9.37,-6 L 2.62,33.87 z"
     style="fill:url(#linearGradient4889)" />
  <path
     id="path33"
     d="M 20,39 34.87,23.87 M 14,35 26.87,22 M 26,43 38.75,29.87 M 32,47 42.75,35.37"
     style="fill:none;stroke:url(#linearGradient4886);stroke-width:1" />
  <path
     id="path40"
     d="M 29,45 44,29.37 M 23,41 34.75,29.25 M 17,37 28.12,25.62"
     style="fill:none;stroke:url(#linearGradient4883);stroke-width:1" />
  <path
     id="path42"
     d=""
     style="fill:none;stroke:#010101;stroke-width:4" />
  <path
     id="path44"
     d="m 6.935132,27.289316 13.899802,15.389468 32.427549,-12.397581 0.143913,-0.129106 c 2.397045,-2.122006 2.665404,-6.070326 0.695667,-10.058749 l -0.07753,-0.152205 -1.540798,-1.721055 c 0,0 -0.05621,0.02149 -0.06745,0.02579 -0.0191,-0.06678 -0.03819,-0.13357 -0.03819,-0.13357 L 52.166808,17.863064 40.012344,4.426265 7.067663,17.021554 7.046957,19.292452 c 0,0 1.426173,1.556091 1.803788,1.970733 0.074074,0.564366 0.112189,1.068394 0.10199,1.462927 -0.023786,0.864447 -0.295939,1.433215 -0.462364,1.705629 -0.354123,0.135387 -1.394008,0.532952 -1.394008,0.532952 l -0.64561,1.782422 0.484379,0.542201 z"
     style="fill:#000000" />
  <path
     id="path46"
     d="M 52.895242,28.630078 39.520279,13.821223 7.975227,25.881411 21.35019,40.690266 52.895242,28.630078 z"
     style="fill:#406ac9" />
  <path
     id="path48"
     d="M 52.895242,28.630078 49.243853,24.557191 17.698801,36.617379 21.35019,40.690266 52.895242,28.630078 z"
     style="fill:#13678d" />
  <path
     id="path55"
     d="m 10.074583,22.795606 c 0.05546,-1.826201 -0.655564,-4.410032 -0.655564,-4.410032 l 12.944547,14.239288 c 1.275085,3.755605 1.04881,5.337298 -0.201551,7.020908 L 9.223089,25.404333 c 0,0 0.805056,-0.927412 0.851494,-2.608727 z"
     style="fill:url(#linearGradient4876)" />
  <path
     id="path57"
     d="M 22.472311,39.446318 9.533385,25.204881"
     style="fill:none;stroke:#bfbfbf;stroke-width:0.09506182" />
  <path
     id="path59"
     d="M 53.102624,20.596681 52.330538,19.740166 51.507716,19.61023 51.17859,18.463133 39.727661,5.787826 8.18823,17.845865 21.563193,32.65472 53.102624,20.596681 z"
     style="fill:#406ac9" />
  <path
     id="path61"
     d="M 53.102624,20.596681 52.19905,19.581649 c 0,0 -0.265314,0.114904 -0.487837,-0.13004 -0.192178,-0.216135 -0.35168,-0.801721 -0.35168,-0.801721 l -1.908298,-2.126094 -31.545052,12.060188 3.65701,4.070738 31.539431,-12.058039 0,0 z"
     style="fill:#13678d" />
  <path
     id="path68"
     d="m 52.19905,19.581649 c 0,0 -0.27881,0.147004 -0.501333,-0.09794 -0.196672,-0.227887 -0.33481,-0.841846 -0.33481,-0.841846 L 19.823476,30.699902 c 0,0 0.212352,0.504765 0.429254,0.751858 0.200046,0.219862 0.401268,0.190077 0.401268,0.190077 L 52.19905,19.581649 z"
     style="fill:url(#linearGradient4870)" />
  <path
     id="path70"
     d="m 8.176778,18.860503 12.090435,13.218816 0.79233,0.808365 c 1.280706,3.753456 1.108345,5.543529 -0.14539,7.235164 L 7.975227,25.881411 l -0.230573,0.626957 11.25313,12.461321 0.657615,-0.04937 0.02681,0.811428 1.437408,1.585471 c 1.785448,-1.733276 2.15929,-4.79922 0.443576,-8.662503 l -0.912569,-1.004858 c 0,0 -0.171997,0.03882 -0.376537,-0.192797 -0.218029,-0.233192 -0.465227,-0.74484 -0.465227,-0.74484 L 8.18823,17.845865"
     style="fill:#a2b9ea" />
  <path
     id="path74"
     d="M 22.678125,38.956793 9.739199,24.715356"
     style="fill:none;stroke:#bfbfbf;stroke-width:0.09506182" />
  <path
     id="path76"
     d="M 22.830011,38.326244 9.885464,24.086956"
     style="fill:none;stroke:#bfbfbf;stroke-width:0.09506182" />
  <path
     id="path78"
     d="M 23.00324,37.768356 10.064314,23.526919"
     style="fill:none;stroke:#bfbfbf;stroke-width:0.09506182" />
  <path
     id="path80"
     d="M 23.033746,37.022571 10.09482,22.781134"
     style="fill:none;stroke:#bfbfbf;stroke-width:0.09506182" />
  <path
     id="path82"
     d="M 22.991179,36.304723 10.052253,22.063286"
     style="fill:none;stroke:#bfbfbf;stroke-width:0.09506182" />
  <path
     id="path84"
     d="M 22.927269,35.514214 9.982722,21.274926"
     style="fill:none;stroke:#bfbfbf;stroke-width:0.09506182" />
  <path
     id="path91"
     d="m 52.659048,29.259184 c 2.2239,-1.968254 1.990828,-5.543022 0.443576,-8.662503 L 21.563193,32.65472 c 1.652798,3.698755 1.507156,6.73807 -0.443576,8.662503 L 52.659048,29.259184 z"
     style="fill:url(#linearGradient4859)" />
  <path
     id="path93"
     d="m 17.936339,29.522097 2.353337,2.64966 0.769867,0.715927 c 1.275085,3.755605 1.108345,5.543529 -0.14539,7.235164 l -0.872109,-0.966446 c 0,0 -0.121338,-0.317304 -0.246085,-0.458193 -0.130368,-0.13874 -0.264145,-0.101065 -0.264145,-0.101065 l -1.810529,-1.988361 -0.247443,0.667082 1.621718,1.797879 c 0,0 0.224847,-0.119638 0.382186,0.05594 0.137109,0.156368 0.210084,0.599923 0.210084,0.599923 l 1.431787,1.58762 c 1.785448,-1.733276 2.15929,-4.79922 0.443576,-8.662503 l -0.912569,-1.004858 c 0,0 -0.171997,0.03882 -0.376537,-0.192797 -0.218029,-0.233192 -0.465227,-0.74484 -0.465227,-0.74484 l -1.861069,-2.204766 -0.01145,1.014638 z"
     style="fill:#62b2c8" />
</svg>
