<?xml version="1.0" encoding="UTF-8" standalone="no"?>
<svg
   xmlns:dc="http://purl.org/dc/elements/1.1/"
   xmlns:cc="http://creativecommons.org/ns#"
   xmlns:rdf="http://www.w3.org/1999/02/22-rdf-syntax-ns#"
   xmlns:svg="http://www.w3.org/2000/svg"
   xmlns="http://www.w3.org/2000/svg"
   xmlns:sodipodi="http://sodipodi.sourceforge.net/DTD/sodipodi-0.dtd"
   xmlns:inkscape="http://www.inkscape.org/namespaces/inkscape"
   version="1.1"
   width="64"
   height="64"
   color-interpolation="linearRGB"
   id="svg2"
   sodipodi:version="0.32"
   inkscape:version="0.91 r13725"
   sodipodi:docname="application-x-blender.svg"
   inkscape:output_extension="org.inkscape.output.svg.inkscape">
  <metadata
     id="metadata31">
    <rdf:RDF>
      <cc:Work
         rdf:about="">
        <dc:format>image/svg+xml</dc:format>
        <dc:type
           rdf:resource="http://purl.org/dc/dcmitype/StillImage" />
        <dc:title></dc:title>
      </cc:Work>
    </rdf:RDF>
  </metadata>
  <defs
     id="defs29">
    <inkscape:perspective
       sodipodi:type="inkscape:persp3d"
       inkscape:vp_x="0 : 32 : 1"
       inkscape:vp_y="0 : 1000 : 0"
       inkscape:vp_z="64 : 32 : 1"
       inkscape:persp3d-origin="32 : 21.333333 : 1"
       id="perspective33" />
    <inkscape:perspective
       id="perspective35"
       inkscape:persp3d-origin="32 : 21.333333 : 1"
       inkscape:vp_z="64 : 32 : 1"
       inkscape:vp_y="0 : 1000 : 0"
       inkscape:vp_x="0 : 32 : 1"
       sodipodi:type="inkscape:persp3d" />
    <linearGradient
       id="linearGradient2423"
       gradientUnits="userSpaceOnUse"
       x1="83.050003"
       y1="-5.5500002"
       x2="103.7"
       y2="26.91">
      <stop
         offset="0"
         stop-color="#faf9d2"
         id="stop2425" />
      <stop
         offset="1"
         stop-color="#dddb8f"
         id="stop2427" />
    </linearGradient>
    <linearGradient
       id="linearGradient2429"
       gradientUnits="userSpaceOnUse"
       x1="34.740002"
       y1="6.0599999"
       x2="56.810001"
       y2="23.280001">
      <stop
         offset="0"
         stop-color="#010101"
         id="stop2431" />
      <stop
         offset="1"
         stop-color="#807e5d"
         id="stop2433" />
    </linearGradient>
    <linearGradient
       y2="12.34"
       x2="95.370003"
       y1="-20.700001"
       x1="70.139999"
       gradientUnits="userSpaceOnUse"
       id="gradient0-6">
      <stop
         id="stop4218"
         stop-color="#c80505"
         offset="0" />
      <stop
         id="stop4220"
         stop-color="#9d0404"
         offset="0.4904" />
      <stop
         id="stop4222"
         stop-color="#b40404"
         offset="1" />
    </linearGradient>
    <linearGradient
       y2="22.549999"
       x2="102.64"
       y1="-7.1199999"
       x1="89.68"
       gradientUnits="userSpaceOnUse"
       id="gradient1-7">
      <stop
         id="stop4229"
         stop-color="#ff3e3e"
         offset="0" />
      <stop
         id="stop4231"
         stop-color="#f70606"
         offset="1" />
    </linearGradient>
    <linearGradient
       y2="3.46"
       x2="71.470001"
       y1="-23.17"
       x1="47.25"
       gradientUnits="userSpaceOnUse"
       id="gradient2">
      <stop
         id="stop4236"
         stop-color="#ff9090"
         offset="0" />
      <stop
         id="stop4238"
         stop-color="#ff7575"
         offset="1" />
    </linearGradient>
  </defs>
  <sodipodi:namedview
     inkscape:window-height="704"
     inkscape:window-width="1366"
     inkscape:pageshadow="2"
     inkscape:pageopacity="0.0"
     guidetolerance="10.0"
     gridtolerance="10.0"
     objecttolerance="10.0"
     borderopacity="1.0"
     bordercolor="#666666"
     pagecolor="#ffffff"
     id="base"
     showgrid="false"
     inkscape:zoom="4.0731622"
     inkscape:cx="2.4052372"
     inkscape:cy="17.031486"
     inkscape:window-x="0"
     inkscape:window-y="30"
     inkscape:current-layer="svg2"
     inkscape:window-maximized="1" />
  <g
     id="g4">
    <path
       style="fill:#010101; fill-opacity:0.5725"
       d="M27 57L29 59L32.13 55.83L37 59L45.39 47.54L64 38L59 35L61 37L36 49L27 57z            M58 34L62 31L58 29L55 32L58 34z"
       id="path6" />
    <path
       style="fill:none; stroke:#010101; stroke-width:4"
       d="M6.25 30C6.25 30 11.87 36 16.87 42.5C21.87 49 26.25 55.75 26.25 55.75L59.12 36.87L32 15L6.25 30z"
       id="path8" />
    <radialGradient
       id="gradient0"
       gradientUnits="userSpaceOnUse"
       cx="0"
       cy="0"
       r="64"
       gradientTransform="matrix(0.5714,0,0,0.3333,26,35)">
      <stop
         offset="1"
         stop-color="#c0d5ff"
         id="stop11" />
      <stop
         offset="0.4886"
         stop-color="#896eff"
         id="stop13" />
    </radialGradient>
    <path
       style="fill:url(#gradient0)"
       d="M6.25 30C6.25 30 11.87 36 16.87 42.5C21.87 49 26.25 55.75 26.25 55.75L59.12 36.87L32 15L6.25 30z"
       id="path15" />
    <path
       style="fill:none; stroke:#010101; stroke-width:4"
       d="M2.62 30.87C2.62 30.87 10.95 36.26 19 41.87C27.44 47.75 35.75 52.75 35.75 52.75L58.12 26.37C58.12 26.37 45.44 20.7 35.37 15.37C30.18 12.62 26 9.37 26 9.37L2.62 30.87z"
       id="path17" />
    <linearGradient
       id="gradient1"
       gradientUnits="userSpaceOnUse"
       x1="105.45"
       y1="-23.42"
       x2="119.92"
       y2="34.32">
      <stop
         offset="0"
         stop-color="#a5b1ff"
         id="stop20" />
      <stop
         offset="0.7386"
         stop-color="#eaf1ff"
         id="stop22" />
      <stop
         offset="1"
         stop-color="#b3b8ff"
         id="stop24" />
    </linearGradient>
    <path
       style="fill:url(#gradient1)"
       d="M2.62 30.87C2.62 30.87 10.95 36.26 19 41.87C27.44 47.75 35.75 52.75 35.75 52.75L58.12 26.37C58.12 26.37 45.44 20.7 35.37 15.37C30.18 12.62 26 9.37 26 9.37L2.62 30.87z"
       id="path26" />
  </g>
  <g
     style="color-interpolation:linearRGB"
     id="g7555"
     transform="matrix(0.5701963,0,0,0.5701963,21.624008,2.4914861)">
    <g
       id="g7509">
      <path
         id="path7511"
         d="m 45,57 c 4,0 9,0 10,-2 1,-2 9,-19 9,-23 0,-4 -2,-6 -2,-6 l -2,2 c 0,0 2,2 1.01,3.94 C 59.27,35.44 56,42 54,43 c -2,1 -6,1 -6,1 L 45,57 Z M 15,29 c 10,0 15.99,-8 17,-9 2,-2 1,-4 1,-4 l 2,-1 c 0,0 1,3 -1,7 -0.75,1.47 -13,20 -19,18 l 0,-11 z"
         style="fill:#010101;fill-opacity:0.4196"
         inkscape:connector-curvature="0" />
      <path
         id="path7513"
         d="m 2,16 c 0,0 24,-13.13 28,-9.13 4,4 4,7.13 4,7.13 L 33,15 28,9 18,13 18,18 2,28 2,16 Z"
         style="fill:none;stroke:#000000;stroke-width:4;stroke-linecap:round;stroke-linejoin:round"
         inkscape:connector-curvature="0" />
      <linearGradient
         y2="-22.940001"
         x2="42.889999"
         y1="-30.82"
         x1="18.370001"
         gradientUnits="userSpaceOnUse"
         id="gradient0-3">
        <stop
           id="stop7516"
           stop-color="#919292"
           offset="0" />
        <stop
           id="stop7518"
           stop-color="#d5d5d5"
           offset="1" />
      </linearGradient>
      <path
         id="path7520"
         d="m 2,16 c 0,0 24,-13.13 28,-9.13 4,4 4,7.13 4,7.13 L 33,15 28,9 18,13 18,18 2,28 2,16 Z"
         style="fill:url(#gradient0-3)"
         inkscape:connector-curvature="0" />
      <path
         id="path7522"
         d="m 46,36 c 0,0 8,-14 12,-16 4,-2 4,9 4,9 l -1,2 -3,-5 -5,8 -1,12 -7,9 -19,-9 c 0,0 -1,-8 -4,-10 -3,-2 -4,6 -4,6 L 2,34 2,17 46,36 Z"
         style="fill:none;stroke:#000000;stroke-width:4;stroke-linecap:round;stroke-linejoin:round"
         inkscape:connector-curvature="0" />
      <linearGradient
         y2="-23"
         x2="52"
         y1="-23"
         x1="40"
         gradientUnits="userSpaceOnUse"
         id="gradient1-6">
        <stop
           id="stop7525"
           stop-color="#f8f8f8"
           offset="0.3686" />
        <stop
           id="stop7527"
           stop-color="#c7c7c7"
           offset="0.5176" />
      </linearGradient>
      <path
         id="path7529"
         d="m 46,36 c 0,0 8,-14 12,-16 4,-2 4,9 4,9 l -1,2 -3,-5 -5,8 -1,12 -7,9 -19,-9 c 0,0 -1,-8 -4,-10 -3,-2 -4,6 -4,6 L 2,34 2,17 46,36 Z M 29,34 c -1,1 -1,7 0,8 l 12,6 c 1,-1 1,-8 0,-9 L 29,34 Z M 6,23 c -1,1 -1,7 0,8 l 10,5 c 1,-1 1,-7 0,-8 L 6,23 Z"
         style="fill:url(#gradient1-6)"
         inkscape:connector-curvature="0" />
      <path
         id="path7531"
         d="m 6,23 c -1,1 -1,7 0,8 l 10,5 c 1,-1 1,-7 0,-8 L 6,23 Z m 23,11 c -1,1 -1,7 0,8 l 12,6 c 1,-1 1,-8 0,-9 L 29,34 Z"
         style="fill:#000000"
         inkscape:connector-curvature="0" />
      <linearGradient
         y2="9.5600004"
         x2="31.860001"
         y1="0.81"
         x1="19.129999"
         gradientUnits="userSpaceOnUse"
         id="gradient2-7">
        <stop
           id="stop7534"
           stop-color="#97bbff"
           offset="0.0509" />
        <stop
           id="stop7536"
           stop-opacity="0.9137"
           stop-color="#4168db"
           offset="0.4823" />
        <stop
           id="stop7538"
           stop-opacity="0.5921"
           stop-color="#4168db"
           offset="1" />
      </linearGradient>
      <path
         id="path7540"
         d="m 6,23 c -1,1 -1,7 0,8 l 10,5 c 1,-1 1,-7 0,-8 L 6,23 Z"
         style="fill:url(#gradient2-7)"
         inkscape:connector-curvature="0" />
      <linearGradient
         y2="-37.23"
         x2="95.970001"
         y1="-48.490002"
         x1="79.599998"
         gradientUnits="userSpaceOnUse"
         id="gradient3">
        <stop
           id="stop7543"
           stop-opacity="0.6235"
           stop-color="#f56a7d"
           offset="0.0509" />
        <stop
           id="stop7545"
           stop-opacity="0.7803"
           stop-color="#ea064c"
           offset="0.8823" />
      </linearGradient>
      <path
         id="path7547"
         d="m 29,34 c -1,1 -1,7 0,8 l 12,6 c 1,-1 1,-8 0,-9 L 29,34 Z"
         style="fill:url(#gradient3)"
         inkscape:connector-curvature="0" />
    </g>
  </g>
</svg>
