<?xml version="1.0" encoding="UTF-8" standalone="no"?>
<svg
   xmlns:i="http://ns.adobe.com/AdobeIllustrator/10.0/"
   xmlns:dc="http://purl.org/dc/elements/1.1/"
   xmlns:cc="http://creativecommons.org/ns#"
   xmlns:rdf="http://www.w3.org/1999/02/22-rdf-syntax-ns#"
   xmlns:svg="http://www.w3.org/2000/svg"
   xmlns="http://www.w3.org/2000/svg"
   xmlns:xlink="http://www.w3.org/1999/xlink"
   xmlns:sodipodi="http://sodipodi.sourceforge.net/DTD/sodipodi-0.dtd"
   xmlns:inkscape="http://www.inkscape.org/namespaces/inkscape"
   version="1.1"
   width="64"
   height="64"
   color-interpolation="linearRGB"
   id="svg2"
   sodipodi:version="0.32"
   inkscape:version="0.91 r13725"
   sodipodi:docname="application-certificate.svg"
   inkscape:output_extension="org.inkscape.output.svg.inkscape">
  <metadata
     id="metadata31">
    <rdf:RDF>
      <cc:Work
         rdf:about="">
        <dc:format>image/svg+xml</dc:format>
        <dc:type
           rdf:resource="http://purl.org/dc/dcmitype/StillImage" />
        <dc:title />
      </cc:Work>
    </rdf:RDF>
  </metadata>
  <defs
     id="defs29">
    <inkscape:perspective
       sodipodi:type="inkscape:persp3d"
       inkscape:vp_x="0 : 32 : 1"
       inkscape:vp_y="0 : 1000 : 0"
       inkscape:vp_z="64 : 32 : 1"
       inkscape:persp3d-origin="32 : 21.333333 : 1"
       id="perspective33" />
    <inkscape:perspective
       id="perspective35"
       inkscape:persp3d-origin="32 : 21.333333 : 1"
       inkscape:vp_z="64 : 32 : 1"
       inkscape:vp_y="0 : 1000 : 0"
       inkscape:vp_x="0 : 32 : 1"
       sodipodi:type="inkscape:persp3d" />
    <linearGradient
       id="linearGradient2423"
       gradientUnits="userSpaceOnUse"
       x1="83.050003"
       y1="-5.5500002"
       x2="103.7"
       y2="26.91">
      <stop
         offset="0"
         stop-color="#faf9d2"
         id="stop2425" />
      <stop
         offset="1"
         stop-color="#dddb8f"
         id="stop2427" />
    </linearGradient>
    <linearGradient
       id="linearGradient2429"
       gradientUnits="userSpaceOnUse"
       x1="34.740002"
       y1="6.0599999"
       x2="56.810001"
       y2="23.280001">
      <stop
         offset="0"
         stop-color="#010101"
         id="stop2431" />
      <stop
         offset="1"
         stop-color="#807e5d"
         id="stop2433" />
    </linearGradient>
    <radialGradient
       id="aigrd1"
       cx="28.789101"
       cy="20.971201"
       r="13.2807"
       fx="28.789101"
       fy="20.971201"
       gradientUnits="userSpaceOnUse"
       gradientTransform="matrix(0.25511788,-0.25360228,0.25360228,0.25511788,32.299847,28.236882)">
      <stop
         offset="0"
         style="stop-color:#E41E08"
         id="stop7492" />
      <stop
         offset="1"
         style="stop-color:#901505"
         id="stop7494" />
    </radialGradient>
    <radialGradient
       id="aigrd2"
       cx="19.292"
       cy="13.5444"
       r="14.6944"
       fx="19.292"
       fy="13.5444"
       gradientUnits="userSpaceOnUse"
       gradientTransform="matrix(0.25511788,-0.25360228,0.25360228,0.25511788,32.299847,28.236882)">
      <stop
         offset="0"
         style="stop-color:#E41E08"
         id="stop7499" />
      <stop
         offset="1"
         style="stop-color:#901505"
         id="stop7501" />
    </radialGradient>
    <linearGradient
       id="aigrd3"
       gradientUnits="userSpaceOnUse"
       x1="18.229"
       y1="11.5991"
       x2="23.412001"
       y2="16.723101"
       gradientTransform="matrix(0.25511788,-0.25360228,0.25360228,0.25511788,32.299847,28.236882)">
      <stop
         offset="0"
         style="stop-color:#FFFFFF"
         id="stop7514" />
      <stop
         offset="1"
         style="stop-color:#901505"
         id="stop7516" />
    </linearGradient>
    <radialGradient
       id="radialGradient8053"
       cx="28.789101"
       cy="20.971201"
       r="13.2807"
       fx="28.789101"
       fy="20.971201"
       gradientUnits="userSpaceOnUse">
      <stop
         offset="0"
         style="stop-color:#E41E08"
         id="stop8055" />
      <stop
         offset="1"
         style="stop-color:#901505"
         id="stop8057" />
    </radialGradient>
    <radialGradient
       id="radialGradient8060"
       cx="19.292"
       cy="13.5444"
       r="14.6944"
       fx="19.292"
       fy="13.5444"
       gradientUnits="userSpaceOnUse">
      <stop
         offset="0"
         style="stop-color:#E41E08"
         id="stop8062" />
      <stop
         offset="1"
         style="stop-color:#901505"
         id="stop8064" />
    </radialGradient>
    <linearGradient
       id="linearGradient8071"
       gradientUnits="userSpaceOnUse"
       x1="18.229"
       y1="11.5991"
       x2="23.412001"
       y2="16.723101">
      <stop
         offset="0"
         style="stop-color:#d00002;stop-opacity:1"
         id="stop8073" />
      <stop
         offset="1"
         style="stop-color:#901505"
         id="stop8075" />
    </linearGradient>
    <radialGradient
       inkscape:collect="always"
       xlink:href="#linearGradient8071"
       id="radialGradient8283"
       cx="47.049927"
       cy="9.5637197"
       fx="47.049927"
       fy="9.5637197"
       r="6.875"
       gradientTransform="matrix(-0.51091518,1.0853576,-1.1883115,-0.55937936,63.537206,-27.153125)"
       gradientUnits="userSpaceOnUse" />
  </defs>
  <sodipodi:namedview
     inkscape:window-height="1020"
     inkscape:window-width="1918"
     inkscape:pageshadow="2"
     inkscape:pageopacity="0.0"
     guidetolerance="10.0"
     gridtolerance="10.0"
     objecttolerance="10.0"
     borderopacity="1.0"
     bordercolor="#666666"
     pagecolor="#ffffff"
     id="base"
     showgrid="false"
     inkscape:zoom="18.76203"
     inkscape:cx="38.959961"
     inkscape:cy="32.682337"
     inkscape:window-x="2"
     inkscape:window-y="30"
     inkscape:current-layer="svg2"
     inkscape:window-maximized="1" />
  <g
     id="g4">
    <path
       style="fill:#010101; fill-opacity:0.5725"
       d="M27 57L29 59L32.13 55.83L37 59L45.39 47.54L64 38L59 35L61 37L36 49L27 57z            M58 34L62 31L58 29L55 32L58 34z"
       id="path6" />
    <path
       style="fill:none; stroke:#010101; stroke-width:4"
       d="M6.25 30C6.25 30 11.87 36 16.87 42.5C21.87 49 26.25 55.75 26.25 55.75L59.12 36.87L32 15L6.25 30z"
       id="path8" />
    <radialGradient
       id="gradient0"
       gradientUnits="userSpaceOnUse"
       cx="0"
       cy="0"
       r="64"
       gradientTransform="matrix(0.5714,0,0,0.3333,26,35)">
      <stop
         offset="1"
         stop-color="#c0d5ff"
         id="stop11" />
      <stop
         offset="0.4886"
         stop-color="#896eff"
         id="stop13" />
    </radialGradient>
    <path
       style="fill:url(#gradient0)"
       d="M6.25 30C6.25 30 11.87 36 16.87 42.5C21.87 49 26.25 55.75 26.25 55.75L59.12 36.87L32 15L6.25 30z"
       id="path15" />
    <path
       style="fill:none; stroke:#010101; stroke-width:4"
       d="M2.62 30.87C2.62 30.87 10.95 36.26 19 41.87C27.44 47.75 35.75 52.75 35.75 52.75L58.12 26.37C58.12 26.37 45.44 20.7 35.37 15.37C30.18 12.62 26 9.37 26 9.37L2.62 30.87z"
       id="path17" />
    <linearGradient
       id="gradient1"
       gradientUnits="userSpaceOnUse"
       x1="105.45"
       y1="-23.42"
       x2="119.92"
       y2="34.32">
      <stop
         offset="0"
         stop-color="#a5b1ff"
         id="stop20" />
      <stop
         offset="0.7386"
         stop-color="#eaf1ff"
         id="stop22" />
      <stop
         offset="1"
         stop-color="#b3b8ff"
         id="stop24" />
    </linearGradient>
    <path
       style="fill:url(#gradient1)"
       d="M2.62 30.87C2.62 30.87 10.95 36.26 19 41.87C27.44 47.75 35.75 52.75 35.75 52.75L58.12 26.37C58.12 26.37 45.44 20.7 35.37 15.37C30.18 12.62 26 9.37 26 9.37L2.62 30.87z"
       id="path26" />
  </g>
  <g
     id="g7637"
     transform="matrix(0.4844447,-0.56252042,0.53963224,0.45622374,60.406713,27.097714)">
    <g
       style="stroke:#204a87;stroke-width:0.46243304;stroke-miterlimit:4;stroke-dasharray:none"
       transform="matrix(0.437059,0.06280377,-0.00798037,0.426832,-249.55772,-91.535498)"
       id="g1330">
      <path
         i:knockout="Off"
         stroke-miterlimit="3.8637"
         d="m 474.25,81.922 c 0.03,0.361 0.084,0.953 0.084,0.953 0,0 0.069,-1.077 -0.411,-1.157 -1.043,-0.165 -1.589,1.34 -1.943,2.433 -0.494,1.509 -0.092,3.159 1.379,3.388 1.754,0.278 4.473,-2.38 4.473,-2.38 0,0 -0.343,0.278 -0.402,0.501 -0.093,0.287 -0.283,0.709 -0.259,0.758 0.022,0.037 0.281,0.04 0.456,0.071 0.495,0.076 1.06,-0.265 1.22,-0.775 0.138,-0.417 0.343,-1.033 0.343,-1.033 0,0 -0.214,0.299 -0.275,0.486 -0.136,0.409 0.29,0.626 0.687,0.69 0.671,0.109 1.602,-1.021 1.653,-1.017 0.069,0.007 0.283,0.569 0.633,0.623 0.511,0.085 1.144,-0.575 1.356,-0.562 0.062,0.004 0.122,0.273 0.29,0.303 0.579,0.092 1.486,-0.657 1.538,-0.619 0.16,0.125 0.261,1.476 0.244,2.532"
         id="path1332"
         style="fill:none;stroke:#204a87;stroke-width:0.46243304;stroke-linecap:round;stroke-linejoin:round;stroke-miterlimit:4;stroke-dasharray:none"
         inkscape:connector-curvature="0" />
      <path
         i:knockout="Off"
         stroke-miterlimit="3.8637"
         d="m 487.965,80.738 c -0.349,1.288 -0.304,2.057 -0.594,3.349"
         id="path1334"
         style="fill:none;stroke:#204a87;stroke-width:0.46243304;stroke-linecap:round;stroke-linejoin:round;stroke-miterlimit:4;stroke-dasharray:none"
         inkscape:connector-curvature="0" />
      <path
         i:knockout="Off"
         stroke-miterlimit="3.8637"
         d="m 487.707,81.308 c -0.151,0.207 -0.235,0.312 -0.396,0.518 1.09,-0.39 2.721,-1.042 2.782,-0.983 0.006,0.014 0.084,0.209 0.037,0.357 -0.273,0.838 -1.143,2.021 -1.143,2.021 0.068,0.083 3.062,-0.987 3.329,-0.765 0.054,0.047 0.1,0.429 0.017,0.697 -0.153,0.472 -0.396,0.69 -0.694,1.103 0.107,-0.023 0.16,-0.024 0.268,-0.044"
         id="path1336"
         style="fill:none;stroke:#204a87;stroke-width:0.46243304;stroke-linecap:round;stroke-linejoin:round;stroke-miterlimit:4;stroke-dasharray:none"
         inkscape:connector-curvature="0" />
      <path
         i:knockout="Off"
         stroke-miterlimit="3.8637"
         d="m 493.933,81.351 c -0.099,0.117 -0.137,0.172 -0.235,0.288 0.814,-0.086 1.248,-0.564 2.026,-0.675 -0.252,0.775 -0.374,1.166 -0.618,1.941 0.832,-0.903 2.077,-2.165 2.311,-2.103 0.175,0.04 -0.039,1.855 0.06,1.874 0.428,0.075 3.629,-3.154 3.88,-3.063 0.228,0.084 -0.625,2.591 0.441,2.757 0.868,0.146 2.119,-1.389 2.119,-1.389 0,0 -0.404,0.398 -0.633,0.679 0.113,0.053 0.167,0.083 0.29,0.135 0.776,-0.281 1.242,-0.62 2.026,-0.886 -0.069,0.201 -0.092,0.29 -0.16,0.489 0.113,0.032 0.167,0.118 0.312,0.145 0.762,0.11 2.042,-0.718 2.042,-0.718 0.03,0.017 -0.175,0.666 0.106,0.71 1.38,0.223 2.321,-0.493 3.742,-1.052"
         id="path1338"
         style="fill:none;stroke:#204a87;stroke-width:0.46243304;stroke-linecap:round;stroke-linejoin:round;stroke-miterlimit:4;stroke-dasharray:none"
         inkscape:connector-curvature="0" />
    </g>
    <path
       id="path2235"
       d="m -43.932872,-42.528648 28.703702,0"
       style="fill:none;fill-opacity:0.75;fill-rule:evenodd;stroke:#888a85;stroke-width:1.99999988;stroke-linecap:round;stroke-linejoin:miter;stroke-miterlimit:4;stroke-dasharray:none;stroke-opacity:1"
       inkscape:connector-curvature="0" />
    <path
       id="path2237"
       d="m -38.687648,-39.028648 18.020936,0"
       style="fill:none;fill-opacity:0.75;fill-rule:evenodd;stroke:#888a85;stroke-width:1.00000024px;stroke-linecap:round;stroke-linejoin:miter;stroke-opacity:1"
       inkscape:connector-curvature="0" />
    <path
       id="path2239"
       d="m -41.739296,-33.028648 12.316534,0"
       style="fill:none;fill-opacity:0.75;fill-rule:evenodd;stroke:#888a85;stroke-width:0.99999994px;stroke-linecap:round;stroke-linejoin:miter;stroke-opacity:1"
       inkscape:connector-curvature="0" />
    <path
       id="path2241"
       d="m -41.58102,-30.028648 12.316534,0"
       style="fill:none;fill-opacity:0.75;fill-rule:evenodd;stroke:#888a85;stroke-width:0.99999994px;stroke-linecap:round;stroke-linejoin:miter;stroke-opacity:1"
       inkscape:connector-curvature="0" />
    <path
       id="path5578"
       d="m -43.08102,-23.086708 15,0"
       style="fill:none;fill-rule:evenodd;stroke:#888a85;stroke-width:1px;stroke-linecap:butt;stroke-linejoin:miter;stroke-opacity:1"
       inkscape:connector-curvature="0" />
  </g>
  <path
     inkscape:connector-curvature="0"
     style="clip-rule:nonzero;fill:#000000;fill-rule:nonzero;stroke:none;stroke-miterlimit:4"
     d="m 39.487957,23.17105 c -0.178431,0.12665 -0.68806,0.430366 -1.223808,0.962931 -0.586771,0.583285 -0.309172,1.321763 -0.107503,1.932834 0.126043,0.381919 0.277598,0.738478 0.276386,1.145454 -0.0036,1.220928 -0.0077,2.594472 0.778437,3.385338 0.608646,0.612283 1.474076,0.411371 2.084995,0.260574 0.254512,-0.05011 0.483663,-0.12574 0.636279,-0.125286 0.203488,6.07e-4 0.635067,0.281691 0.965205,0.460728 0.533171,0.33226 1.066342,0.664519 1.575062,0.666035 0.661336,0.002 0.892155,-0.633248 1.045983,-1.03977 0.280175,-0.126346 0.50963,-0.303716 0.790108,-0.531807 0.433397,-0.329379 0.866794,-0.658759 1.248259,-0.632187 0,0 0.05087,1.52e-4 0.07623,0.02566 0,0 0,0 0,0 0.354892,0.408037 0.34701,3.053382 0.216875,4.045007 l 0.331199,-0.177067 c 0,0 1.63533,-2.487879 1.865391,-2.868737 0.406976,0.0012 2.54345,0.05845 2.54345,0.05845 l -0.811528,-0.816377 c -0.380403,-0.382677 -0.531352,-0.942724 -0.707813,-1.47741 -0.12574,-0.483663 -0.302201,-1.01835 -0.657244,-1.375515 -0.228242,-0.229606 -0.507659,-0.35762 -0.914635,-0.358832 -0.559592,-0.0017 -1.145454,0.276386 -1.756828,0.579799 0.15398,-0.457393 0.07851,-0.737417 -0.04784,-1.017592 -0.05057,-0.101895 -0.07593,-0.127407 -0.07578,-0.178279 3.03e-4,-0.101744 0.02642,-0.330592 0.0779,-0.533929 0.103715,-0.661033 0.284267,-1.499891 -0.197577,-1.984615 -0.481844,-0.484724 -1.117366,-0.613798 -1.676503,-0.768082 0,0 -0.254209,-0.05163 -0.254209,-0.05163 0,0 0,0 -0.02536,-0.02551 -0.07608,-0.07654 -0.151858,-0.254815 -0.227787,-0.382222 -0.126498,-0.229303 -0.252845,-0.509478 -0.455726,-0.713573 -0.202882,-0.204094 -0.482148,-0.382979 -0.863764,-0.35868 -0.25436,-7.58e-4 -0.508568,-0.05239 -0.813497,-0.155041 -0.686242,-0.180098 -1.524948,-0.411523 -2.213767,0.273203 -0.663306,0.659366 -1.327219,1.52222 -1.505953,1.750614 z"
     id="path7487" />
  <path
     inkscape:connector-curvature="0"
     style="clip-rule:nonzero;fill:#0f1226;fill-rule:nonzero;stroke:none;stroke-miterlimit:4"
     d="m 43.01409,26.361085 c 0,0 0.499323,3.15558 1.336211,3.997469 0.836887,0.841889 1.911111,-1.138936 3.132039,-1.135299 1.220928,0.0036 0.752319,3.614186 0.752319,3.614186 l 1.483018,-2.590077 1.678625,0.05587 c -1.039769,-1.045983 -0.677602,-3.079803 -1.923891,-3.108952 -1.2718,-0.0038 -3.007057,1.873323 -3.945991,1.132875 -0.938935,-0.740448 -2.461458,-1.965924 -2.461458,-1.965924 z"
     id="path7489" />
  <path
     inkscape:connector-curvature="0"
     style="clip-rule:nonzero;fill:url(#aigrd1);fill-rule:nonzero;stroke:none;stroke-miterlimit:4"
     d="m 41.24721,21.777299 c 0.765353,-0.760807 1.78052,0.0053 2.645345,0.0079 0.864824,0.0026 0.860883,1.325249 1.445533,1.454172 0.584649,0.128923 1.271042,0.258149 1.702166,0.691849 0.431124,0.433701 -0.0048,1.627905 -0.0064,2.136625 -0.0015,0.50872 0.507205,0.510236 0.02127,1.399056 -0.511297,0.863309 -1.096553,0.937874 -1.530253,1.368998 -0.4337,0.431124 -0.389345,2.618772 -1.152426,2.616499 -0.76308,-0.0023 -1.853418,-1.150153 -2.514754,-1.152123 -0.712209,-0.0021 -1.807851,0.63052 -2.441857,-0.0073 -0.634006,-0.637795 -0.630217,-1.909595 -0.626883,-3.028779 0.0033,-1.119185 -0.960354,-2.088633 -0.322559,-2.722638 0.637795,-0.634006 1.198296,-0.937571 1.198296,-0.937571 0,0 0.766111,-1.015167 1.531465,-1.775974 z"
     id="path7496" />
  <path
     inkscape:connector-curvature="0"
     style="clip-rule:nonzero;fill:url(#aigrd2);fill-rule:nonzero;stroke:none;stroke-miterlimit:4"
     d="m 45.565269,23.825062 c 1.394812,1.403148 1.387992,3.692389 -0.01516,5.087202 -1.403149,1.394812 -3.692389,1.387992 -5.087202,-0.01516 -1.394812,-1.403149 -1.387992,-3.692389 0.01516,-5.087202 1.403148,-1.394813 3.692389,-1.387992 5.087202,0.01516 z"
     id="path7503" />
  <path
     inkscape:connector-curvature="0"
     style="clip-rule:nonzero;opacity:0.51999996;fill:#ffffff;fill-rule:nonzero;stroke:none;stroke-miterlimit:4"
     d="m 39.169539,27.596006 c 0,0 -0.0052,1.729649 0.222332,2.213615 0.252996,0.458606 0.914635,0.358832 0.914635,0.358832 0,0 -1.193749,-0.58859 -1.187839,-2.572598 z"
     id="path7505" />
  <path
     inkscape:connector-curvature="0"
     style="clip-rule:nonzero;opacity:0.51999996;fill:#ffffff;fill-rule:nonzero;stroke:none;stroke-miterlimit:4"
     d="m 42.925581,30.456055 c 0,0 1.522675,1.174603 1.702773,0.488361 -0.407582,0.202276 -1.702773,-0.488361 -1.702773,-0.488361 z"
     id="path7507" />
  <path
     inkscape:connector-curvature="0"
     style="clip-rule:nonzero;opacity:0.51999996;fill:#ffffff;fill-rule:nonzero;stroke:none;stroke-miterlimit:4"
     d="m 38.767413,25.966889 c 0,0 -0.759746,-1.121457 0.310537,-1.779611 -0.561259,0.557925 -0.310537,1.779611 -0.310537,1.779611 z"
     id="path7509" />
  <path
     inkscape:connector-curvature="0"
     style="clip-rule:nonzero;opacity:0.51999996;fill:#ffffff;fill-rule:nonzero;stroke:none;stroke-miterlimit:4"
     d="m 42.061768,21.576236 c 0,0 -0.558834,-0.256028 -1.657205,1.29231 0.867401,-0.862247 1.657205,-1.29231 1.657205,-1.29231 z"
     id="path7511" />
  <path
     inkscape:connector-curvature="0"
     style="clip-rule:nonzero;opacity:0.51999996;fill:url(#aigrd3);fill-rule:nonzero;stroke:none;stroke-miterlimit:4"
     d="m 40.85938,23.887351 c -1.887569,1.774913 -1.055986,4.397322 0.61991,5.368892 0.513722,-1.677261 0.749542,-3.991256 -0.61991,-5.368892 z"
     id="path7518" />
  <g
     style="clip-rule:nonzero;fill:url(#radialGradient8283);fill-rule:nonzero;stroke:none;stroke-miterlimit:4;fill-opacity:1"
     id="g7520"
     transform="matrix(0.25511788,-0.25360228,0.25360228,0.25511788,32.299847,28.236882)">
    <g
       id="g7522"
       style="fill:url(#radialGradient8283);fill-opacity:1.0">
      <path
         inkscape:connector-curvature="0"
         style="opacity:0;fill:url(#radialGradient8283);fill-opacity:1.0"
         d="m 32,23 c -2.7,3.6 -7,4.9 -9.7,2.9 -2.7,-2 -2.7,-6.5 0,-10.1 2.7,-3.6 7,-4.9 9.7,-2.9 2.7,2 2.7,6.5 0,10.1 z"
         id="path7524" />
      <path
         inkscape:connector-curvature="0"
         d="m 32,23 c -2.6,3.4 -6.7,4.7 -9.3,2.8 -2.6,-1.9 -2.5,-6.3 0,-9.7 2.6,-3.4 6.7,-4.7 9.3,-2.8 2.6,1.9 2.5,6.3 0,9.7 z"
         id="path7526"
         style="fill:url(#radialGradient8283);fill-opacity:1.0" />
      <path
         inkscape:connector-curvature="0"
         d="m 31.9,22.9 c -2.5,3.3 -6.5,4.5 -8.9,2.7 -2.5,-1.8 -2.4,-6 0,-9.3 2.4,-3.3 6.5,-4.5 8.9,-2.7 2.5,1.8 2.4,6 0,9.3 z"
         id="path7528"
         style="fill:url(#radialGradient8283);fill-opacity:1.0" />
      <path
         inkscape:connector-curvature="0"
         d="m 31.9,22.9 c -2.4,3.2 -6.2,4.3 -8.5,2.6 -2.3,-1.8 -2.3,-5.7 0,-8.9 2.4,-3.2 6.2,-4.3 8.5,-2.6 2.3,1.7 2.3,5.7 0,8.9 z"
         id="path7530"
         style="fill:url(#radialGradient8283);fill-opacity:1.0" />
      <path
         inkscape:connector-curvature="0"
         d="m 31.8,22.9 c -2.3,3 -5.9,4.1 -8.1,2.5 -2.2,-1.7 -2.2,-5.5 0.1,-8.5 2.3,-3 5.9,-4.1 8.1,-2.5 2.2,1.7 2.2,5.5 -0.1,8.5 z"
         id="path7532"
         style="fill:url(#radialGradient8283);fill-opacity:1.0" />
      <path
         inkscape:connector-curvature="0"
         d="m 31.8,22.9 c -2.2,2.9 -5.6,3.9 -7.7,2.4 -2.1,-1.6 -2.1,-5.2 0.1,-8.1 2.2,-2.9 5.6,-3.9 7.7,-2.4 2.1,1.6 2.1,5.2 -0.1,8.1 z"
         id="path7534"
         style="fill:url(#radialGradient8283);fill-opacity:1.0" />
      <path
         inkscape:connector-curvature="0"
         d="m 31.8,22.8 c -2.1,2.7 -5.3,3.8 -7.4,2.3 -2,-1.5 -2,-4.9 0.1,-7.7 2.1,-2.8 5.3,-3.8 7.4,-2.3 2,1.5 2,4.9 -0.1,7.7 z"
         id="path7536"
         style="fill:url(#radialGradient8283);fill-opacity:1.0" />
      <path
         inkscape:connector-curvature="0"
         d="m 31.7,22.8 c -2,2.6 -5.1,3.6 -7,2.2 -1.9,-1.4 -1.9,-4.7 0.1,-7.3 2,-2.6 5.1,-3.6 7,-2.2 1.9,1.4 1.9,4.7 -0.1,7.3 z"
         id="path7538"
         style="fill:url(#radialGradient8283);fill-opacity:1.0" />
      <path
         inkscape:connector-curvature="0"
         d="m 31.7,22.8 c -1.8,2.5 -4.8,3.4 -6.6,2.1 -1.8,-1.3 -1.7,-4.4 0.1,-6.9 1.8,-2.5 4.8,-3.4 6.6,-2.1 1.8,1.3 1.7,4.4 -0.1,6.9 z"
         id="path7540"
         style="fill:url(#radialGradient8283);fill-opacity:1.0" />
      <path
         inkscape:connector-curvature="0"
         d="m 31.7,22.8 c -1.7,2.3 -4.5,3.2 -6.2,2 -1.7,-1.3 -1.6,-4.2 0.1,-6.5 1.7,-2.3 4.5,-3.2 6.2,-2 1.7,1.3 1.6,4.2 -0.1,6.5 z"
         id="path7542"
         style="fill:url(#radialGradient8283);fill-opacity:1.0" />
      <path
         inkscape:connector-curvature="0"
         d="m 31.6,22.8 c -1.6,2.2 -4.2,3 -5.8,1.8 -1.6,-1.2 -1.5,-3.9 0.1,-6.1 1.6,-2.2 4.2,-3 5.8,-1.9 1.6,1.2 1.5,3.9 -0.1,6.1 z"
         id="path7544"
         style="fill:url(#radialGradient8283);fill-opacity:1.0" />
      <path
         inkscape:connector-curvature="0"
         d="m 31.6,22.7 c -1.5,2.1 -4,2.8 -5.4,1.7 -1.5,-1.1 -1.4,-3.6 0.1,-5.7 1.5,-2.1 4,-2.8 5.4,-1.7 1.5,1.1 1.4,3.6 -0.1,5.7 z"
         id="path7546"
         style="fill:url(#radialGradient8283);fill-opacity:1.0" />
      <path
         inkscape:connector-curvature="0"
         d="m 31.5,22.7 c -1.4,1.9 -3.7,2.7 -5,1.6 -1.3,-1 -1.3,-3.4 0.2,-5.3 1.4,-1.9 3.7,-2.7 5,-1.6 1.3,1 1.3,3.4 -0.2,5.3 z"
         id="path7548"
         style="fill:url(#radialGradient8283);fill-opacity:1.0" />
      <path
         inkscape:connector-curvature="0"
         d="m 31.5,22.7 c -1.3,1.8 -3.4,2.5 -4.6,1.5 -1.2,-0.9 -1.2,-3.1 0.2,-4.9 1.3,-1.8 3.4,-2.5 4.6,-1.5 1.2,0.9 1.2,3.1 -0.2,4.9 z"
         id="path7550"
         style="fill:url(#radialGradient8283);fill-opacity:1.0" />
      <path
         inkscape:connector-curvature="0"
         d="m 31.5,22.7 c -1.2,1.6 -3.1,2.3 -4.3,1.4 -1.1,-0.8 -1,-2.9 0.2,-4.5 1.2,-1.6 3.1,-2.3 4.3,-1.4 1.1,0.8 1,2.9 -0.2,4.5 z"
         id="path7552"
         style="fill:url(#radialGradient8283);fill-opacity:1.0" />
      <path
         inkscape:connector-curvature="0"
         d="m 31.4,22.7 c -1.1,1.5 -2.9,2.1 -3.9,1.3 -1,-0.8 -0.9,-2.6 0.2,-4.1 1.1,-1.5 2.9,-2.1 3.9,-1.3 1,0.8 0.9,2.6 -0.2,4.1 z"
         id="path7554"
         style="fill:url(#radialGradient8283);fill-opacity:1.0" />
      <path
         inkscape:connector-curvature="0"
         d="m 31.4,22.6 c -1,1.4 -2.6,1.9 -3.5,1.2 -0.9,-0.7 -0.8,-2.3 0.2,-3.7 1,-1.4 2.6,-1.9 3.5,-1.2 0.9,0.7 0.8,2.3 -0.2,3.7 z"
         id="path7556"
         style="fill:url(#radialGradient8283);fill-opacity:1.0" />
    </g>
  </g>
  <path
     inkscape:connector-curvature="0"
     style="clip-rule:nonzero;opacity:0.26000001;fill:#ffffff;fill-rule:nonzero;stroke:none;stroke-miterlimit:4"
     d="m 47.635562,29.020222 c 0.483057,0.07775 0.634006,0.637794 0.634006,0.637794 0.509175,-0.1511 0.767627,-1.523887 1.811337,-1.800576 -0.201821,-0.560198 -0.659669,-0.561562 -1.0671,-0.410159 l -1.352731,1.54758 z"
     id="path7558" />
</svg>
