<?xml version="1.0" encoding="UTF-8" standalone="no"?>
<svg
   xmlns:dc="http://purl.org/dc/elements/1.1/"
   xmlns:cc="http://creativecommons.org/ns#"
   xmlns:rdf="http://www.w3.org/1999/02/22-rdf-syntax-ns#"
   xmlns:svg="http://www.w3.org/2000/svg"
   xmlns="http://www.w3.org/2000/svg"
   xmlns:sodipodi="http://sodipodi.sourceforge.net/DTD/sodipodi-0.dtd"
   xmlns:inkscape="http://www.inkscape.org/namespaces/inkscape"
   version="1.1"
   width="64"
   height="64"
   color-interpolation="linearRGB"
   id="svg2"
   sodipodi:version="0.32"
   inkscape:version="0.91 r13725"
   sodipodi:docname="appointment-soon.svg"
   inkscape:output_extension="org.inkscape.output.svg.inkscape">
  <metadata
     id="metadata60">
    <rdf:RDF>
      <cc:Work
         rdf:about="">
        <dc:format>image/svg+xml</dc:format>
        <dc:type
           rdf:resource="http://purl.org/dc/dcmitype/StillImage" />
        <dc:title></dc:title>
      </cc:Work>
    </rdf:RDF>
  </metadata>
  <defs
     id="defs58">
    <inkscape:perspective
       sodipodi:type="inkscape:persp3d"
       inkscape:vp_x="0 : 32 : 1"
       inkscape:vp_y="0 : 1000 : 0"
       inkscape:vp_z="64 : 32 : 1"
       inkscape:persp3d-origin="32 : 21.333333 : 1"
       id="perspective62" />
    <inkscape:perspective
       sodipodi:type="inkscape:persp3d"
       inkscape:vp_x="0 : 32 : 1"
       inkscape:vp_y="0 : 1000 : 0"
       inkscape:vp_z="64 : 32 : 1"
       inkscape:persp3d-origin="32 : 21.333333 : 1"
       id="perspective2462" />
    <inkscape:perspective
       sodipodi:type="inkscape:persp3d"
       inkscape:vp_x="0 : 32 : 1"
       inkscape:vp_y="0 : 1000 : 0"
       inkscape:vp_z="64 : 32 : 1"
       inkscape:persp3d-origin="32 : 21.333333 : 1"
       id="perspective35" />
    <inkscape:perspective
       id="perspective45"
       inkscape:persp3d-origin="32 : 21.333333 : 1"
       inkscape:vp_z="64 : 32 : 1"
       inkscape:vp_y="0 : 1000 : 0"
       inkscape:vp_x="0 : 32 : 1"
       sodipodi:type="inkscape:persp3d" />
    <linearGradient
       id="linearGradient2466"
       gradientUnits="userSpaceOnUse"
       x1="83.050003"
       y1="-5.5500002"
       x2="103.7"
       y2="26.91">
      <stop
         offset="0"
         stop-color="#faf9d2"
         id="stop2468" />
      <stop
         offset="1"
         stop-color="#dddb8f"
         id="stop2470" />
    </linearGradient>
    <linearGradient
       id="linearGradient2472"
       gradientUnits="userSpaceOnUse"
       x1="34.740002"
       y1="6.0599999"
       x2="56.810001"
       y2="23.280001">
      <stop
         offset="0"
         stop-color="#010101"
         id="stop2474" />
      <stop
         offset="1"
         stop-color="#807e5d"
         id="stop2495" />
    </linearGradient>
    <inkscape:perspective
       id="perspective33"
       inkscape:persp3d-origin="30 : 20 : 1"
       inkscape:vp_z="60 : 30 : 1"
       inkscape:vp_y="0 : 1000 : 0"
       inkscape:vp_x="0 : 30 : 1"
       sodipodi:type="inkscape:persp3d" />
    <inkscape:perspective
       sodipodi:type="inkscape:persp3d"
       inkscape:vp_x="0 : 32 : 1"
       inkscape:vp_y="0 : 1000 : 0"
       inkscape:vp_z="64 : 32 : 1"
       inkscape:persp3d-origin="32 : 21.333333 : 1"
       id="perspective2883" />
    <linearGradient
       id="gradient0-5"
       gradientUnits="userSpaceOnUse"
       x1="56.220001"
       y1="56.150002"
       x2="49.669998"
       y2="65.650002"
       gradientTransform="matrix(0.57298589,0,0,0.57298589,86.806304,23.335732)">
      <stop
         offset="0"
         stop-color="#e07900"
         id="stop2848" />
      <stop
         offset="1"
         stop-color="#fff289"
         id="stop2850" />
    </linearGradient>
    <linearGradient
       id="gradient1-3"
       gradientUnits="userSpaceOnUse"
       x1="24.32"
       y1="-24.129999"
       x2="51.299999"
       y2="-13.84"
       gradientTransform="matrix(0.57298589,0,0,0.57298589,86.806304,23.335732)">
      <stop
         offset="0"
         stop-color="#fff49e"
         id="stop2857" />
      <stop
         offset="1"
         stop-color="#ffbd30"
         id="stop2859" />
    </linearGradient>
    <linearGradient
       id="gradient2-7"
       gradientUnits="userSpaceOnUse"
       x1="30.5"
       y1="-22.809999"
       x2="56.009998"
       y2="-9.1300001"
       gradientTransform="matrix(0.57298589,0,0,0.57298589,86.806304,23.335732)">
      <stop
         offset="0"
         stop-color="#ffffff"
         id="stop2864" />
      <stop
         offset="1"
         stop-color="#fff289"
         id="stop2866" />
    </linearGradient>
    <linearGradient
       id="gradient3-4"
       gradientUnits="userSpaceOnUse"
       x1="33.299999"
       y1="-0.68000001"
       x2="46.77"
       y2="0.74000001"
       gradientTransform="matrix(0.57298589,0,0,0.57298589,86.806304,23.335732)">
      <stop
         offset="0"
         stop-color="#ed9406"
         id="stop2871" />
      <stop
         offset="1"
         stop-color="#fcb23d"
         id="stop2873" />
    </linearGradient>
  </defs>
  <sodipodi:namedview
     inkscape:window-height="1020"
     inkscape:window-width="1918"
     inkscape:pageshadow="2"
     inkscape:pageopacity="0.0"
     guidetolerance="10.0"
     gridtolerance="10.0"
     objecttolerance="10.0"
     borderopacity="1.0"
     bordercolor="#666666"
     pagecolor="#ffffff"
     id="base"
     showgrid="false"
     inkscape:zoom="5.4609375"
     inkscape:cx="149.5107"
     inkscape:cy="31.717407"
     inkscape:window-x="2"
     inkscape:window-y="30"
     inkscape:current-layer="svg2"
     inkscape:window-maximized="1" />
  <g
     id="g4">
    <path
       style="fill:#000000; fill-opacity:0.4431"
       d="M62 50L50 44L40 64H48C54 64 68 53 62 50z"
       id="path6" />
    <path
       style="fill:none; stroke:#000000; stroke-width:4"
       d="M49.33 53.17V53.16C49.75 52.64 50 51.91 50 51V32C50 21.52 43.94 10.97 34.01 6C27.77 2.88 22 4 18.06 5.92C14 8 9.56 12.41 9.56 12.41V12.42C7.32 14.46 6 17.72 6.01 21.98V40.98C6.01 43.74 8.25 47.1 11.02 48.49L37.02 61.5C38.87 62.43 40.48 62.23 41.36 61.16V61.17L49.33 53.17z"
       id="path8" />
    <linearGradient
       id="gradient0"
       gradientUnits="userSpaceOnUse"
       x1="66"
       y1="-81.76"
       x2="122.5"
       y2="-25.25">
      <stop
         offset="0.2575"
         stop-color="#04a3a5"
         id="stop11" />
      <stop
         offset="0.5227"
         stop-color="#b3feff"
         id="stop13" />
      <stop
         offset="0.8825"
         stop-color="#026667"
         id="stop15" />
      <stop
         offset="1"
         stop-color="#037072"
         id="stop17" />
    </linearGradient>
    <path
       style="fill:url(#gradient0)"
       d="M49.33 53.17V53.16C49.75 52.64 50 51.91 50 51V32C50 21.52 43.94 10.97 34.01 6C27.77 2.88 22 4 18.06 5.92C14 8 9.56 12.41 9.56 12.41V12.42L41.36 61.16V61.17L49.33 53.17z"
       id="path19" />
    <linearGradient
       id="gradient1"
       gradientUnits="userSpaceOnUse"
       x1="76.8"
       y1="-54.65"
       x2="115.02"
       y2="-11.7">
      <stop
         offset="0.4886"
         stop-color="#40c5c7"
         id="stop22" />
      <stop
         offset="0"
         stop-color="#30a3a5"
         id="stop24" />
      <stop
         offset="1"
         stop-color="#28a3a5"
         id="stop26" />
    </linearGradient>
    <path
       style="fill:url(#gradient1)"
       d="M24 12C14.06 7.01 6 11.48 6.01 21.98V40.98C6.01 43.74 8.25 47.1 11.02 48.49L37.02 61.5C39.77 62.88 42.02 61.77 42.02 59V40C42 29.52 33.94 16.97 24.01 12H24z"
       id="path28" />
    <linearGradient
       id="gradient2"
       gradientUnits="userSpaceOnUse"
       x1="15.05"
       y1="6.93"
       x2="44.02"
       y2="35.9">
      <stop
         offset="0"
         stop-color="#9beff0"
         id="stop31" />
      <stop
         offset="0.25"
         stop-color="#ffffff"
         id="stop33" />
      <stop
         offset="1"
         stop-color="#04a8aa"
         id="stop35" />
    </linearGradient>
    <path
       style="fill:url(#gradient2)"
       d="M24 12H24C33.31 16.66 40.97 27.97 41.92 38C41.9 27.52 35.93 14.97 26.01 10H26C19.28 6.63 13.43 7.59 10.34 11.78C13.64 9.38 18.53 9.26 24 12H24z"
       id="path37" />
    <path
       style="fill:#000000"
       d="M24 16C31.72 19.87 38 29.72 38 38C38 46.29 31.73 49.86 24.02 46C16.29 42.13 10 32.27 10 23.98C10 15.7 16.26 12.12 24 16z"
       id="path39" />
    <radialGradient
       id="gradient3"
       gradientUnits="userSpaceOnUse"
       cx="0"
       cy="0"
       r="64"
       gradientTransform="matrix(0.2968,0,0,0.3593,26,33)">
      <stop
         offset="0"
         stop-color="#f8f8ff"
         id="stop42" />
      <stop
         offset="1"
         stop-color="#9898ff"
         id="stop44" />
    </radialGradient>
    <path
       style="fill:url(#gradient3)"
       d="M24 18C17.36 14.68 12 17.8 12.01 24.98C12.01 32.16 17.38 40.68 24.02 44C30.64 47.31 36.02 44.18 36.02 37C36 29.82 30.61 21.31 24 18z"
       id="path46" />
    <path
       style="fill:#ffffff"
       d="M16 28.98C16 22.91 20.47 20.23 26.01 23C28.11 24.04 30.05 25.74 31.68 27.77C29.82 24.45 27.07 21.54 24.01 20C18.48 17.23 14.01 19.91 14.02 25.98C14.02 29.75 15.73 33.93 18.37 37.22C16.89 34.58 16.01 31.68 16.02 28.98H16z            M29 26.95C27.59 26.24 26.45 26.81 26.45 28.22C26.45 29.63 27.6 31.34 29.02 32.04C30.44 32.75 31.56 32.18 31.56 30.78C31.55 29.37 30.42 27.65 29.02 26.95H29z"
       id="path48" />
    <linearGradient
       id="gradient4"
       gradientUnits="userSpaceOnUse"
       x1="74.63"
       y1="-48.18"
       x2="79.77"
       y2="-44.53">
      <stop
         offset="0"
         stop-color="#dadada"
         id="stop51" />
      <stop
         offset="1"
         stop-color="#000000"
         id="stop53" />
    </linearGradient>
    <path
       style="fill:none; stroke:url(#gradient4); stroke-width:3; stroke-linecap:round; stroke-linejoin:round"
       d="M28 25L31 32L41 26            M20 32H22            M42 32H44            M32 42V44            M32 20V22"
       transform="matrix(0.7484,0.4784,0.0261,0.8247,-0.7028,-10.2605)"
       id="path55" />
  </g>
  <g
     id="g2469"
     transform="translate(-3.2961372,2.8283262e-7)">
    <linearGradient
       id="linearGradient2471"
       gradientUnits="userSpaceOnUse"
       x1="102.6"
       y1="8.5"
       x2="102.74"
       y2="47.07">
      <stop
         offset="0"
         stop-color="#face79"
         id="stop2473" />
      <stop
         offset="1"
         stop-color="#bc4105"
         id="stop2475" />
    </linearGradient>
    <linearGradient
       id="linearGradient2477"
       gradientUnits="userSpaceOnUse"
       x1="103.24"
       y1="12.68"
       x2="103.39"
       y2="55.34">
      <stop
         offset="0"
         stop-color="#ffffff"
         id="stop18" />
      <stop
         offset="1"
         stop-color="#8e8e8e"
         id="stop20" />
    </linearGradient>
    <linearGradient
       id="linearGradient2481"
       gradientUnits="userSpaceOnUse"
       x1="78.339996"
       y1="-26.66"
       x2="101.46"
       y2="12.94">
      <stop
         offset="0"
         stop-color="#9a9a9a"
         id="stop25" />
      <stop
         offset="1"
         stop-color="#505050"
         id="stop27" />
    </linearGradient>
    <linearGradient
       id="linearGradient2485"
       gradientUnits="userSpaceOnUse"
       x1="88.519997"
       y1="9.5900002"
       x2="97.540001"
       y2="51.290001">
      <stop
         offset="0"
         stop-color="#ffe2ac"
         id="stop32" />
      <stop
         offset="1"
         stop-color="#f49806"
         id="stop34" />
    </linearGradient>
  </g>
  <g
     id="g6896"
     transform="translate(-46.145922,4.5779685)">
    <path
       inkscape:connector-curvature="0"
       id="path2845"
       d="m 94.828106,46.828153 0,6.302845 9.167774,4.583887 4.58389,-4.583887 0,-6.302845 -9.167776,-3.437915 -4.583888,3.437915 z"
       style="fill:none;stroke:#000000;stroke-width:2.29194355" />
    <path
       inkscape:connector-curvature="0"
       id="path2852"
       d="m 94.828106,46.828153 9.167774,4.010902 4.58389,-4.010902 -9.167776,-3.437915 -4.583888,3.437915 z"
       style="fill:url(#gradient0-5)" />
    <path
       inkscape:connector-curvature="0"
       id="path2854"
       d="m 94.828106,26.773647 0,16.043605 9.167774,4.010901 4.58389,-3.437915 0,-16.616591 -9.167776,-2.291943 -4.583888,2.291943 z"
       style="fill:none;stroke:#000000;stroke-width:2.29194355" />
    <path
       inkscape:connector-curvature="0"
       id="path2861"
       d="m 94.828106,26.773647 0,16.043605 9.167774,4.010901 0,-17.189576 -9.167774,-2.86493 z m 0,20.054506 0,6.302845 9.167774,4.583887 0,-6.87583 -9.167774,-4.010902 z"
       style="fill:url(#gradient1-3)" />
    <path
       inkscape:connector-curvature="0"
       id="path2868"
       d="m 94.828106,26.773647 9.167774,2.86493 4.58389,-2.86493 -9.167776,-2.291943 -4.583888,2.291943 z"
       style="fill:url(#gradient2-7)" />
    <path
       inkscape:connector-curvature="0"
       id="path2875"
       d="m 103.99588,29.638577 0,17.189576 4.58389,-3.437915 0,-16.616591 -4.58389,2.86493 z m 0,21.200478 0,6.87583 4.58389,-4.583887 0,-6.302845 -4.58389,4.010902 z"
       style="fill:url(#gradient3-4)" />
  </g>
</svg>
