<?xml version="1.0" encoding="UTF-8" standalone="no"?>
<svg
   xmlns:dc="http://purl.org/dc/elements/1.1/"
   xmlns:cc="http://creativecommons.org/ns#"
   xmlns:rdf="http://www.w3.org/1999/02/22-rdf-syntax-ns#"
   xmlns:svg="http://www.w3.org/2000/svg"
   xmlns="http://www.w3.org/2000/svg"
   xmlns:xlink="http://www.w3.org/1999/xlink"
   xmlns:sodipodi="http://sodipodi.sourceforge.net/DTD/sodipodi-0.dtd"
   xmlns:inkscape="http://www.inkscape.org/namespaces/inkscape"
   version="1.1"
   width="64"
   height="64"
   color-interpolation="linearRGB"
   id="svg2"
   sodipodi:version="0.32"
   inkscape:version="0.91 r13725"
   sodipodi:docname="archive-remove.svg"
   inkscape:output_extension="org.inkscape.output.svg.inkscape">
  <metadata
     id="metadata31">
    <rdf:RDF>
      <cc:Work
         rdf:about="">
        <dc:format>image/svg+xml</dc:format>
        <dc:type
           rdf:resource="http://purl.org/dc/dcmitype/StillImage" />
        <dc:title></dc:title>
      </cc:Work>
    </rdf:RDF>
  </metadata>
  <defs
     id="defs29">
    <inkscape:perspective
       sodipodi:type="inkscape:persp3d"
       inkscape:vp_x="0 : 32 : 1"
       inkscape:vp_y="0 : 1000 : 0"
       inkscape:vp_z="64 : 32 : 1"
       inkscape:persp3d-origin="32 : 21.333333 : 1"
       id="perspective33" />
    <inkscape:perspective
       id="perspective35"
       inkscape:persp3d-origin="32 : 21.333333 : 1"
       inkscape:vp_z="64 : 32 : 1"
       inkscape:vp_y="0 : 1000 : 0"
       inkscape:vp_x="0 : 32 : 1"
       sodipodi:type="inkscape:persp3d" />
    <linearGradient
       id="linearGradient2423"
       gradientUnits="userSpaceOnUse"
       x1="83.050003"
       y1="-5.5500002"
       x2="103.7"
       y2="26.91">
      <stop
         offset="0"
         stop-color="#faf9d2"
         id="stop2425" />
      <stop
         offset="1"
         stop-color="#dddb8f"
         id="stop2427" />
    </linearGradient>
    <linearGradient
       id="linearGradient2429"
       gradientUnits="userSpaceOnUse"
       x1="34.740002"
       y1="6.0599999"
       x2="56.810001"
       y2="23.280001">
      <stop
         offset="0"
         stop-color="#010101"
         id="stop2431" />
      <stop
         offset="1"
         stop-color="#807e5d"
         id="stop2433" />
    </linearGradient>
    <radialGradient
       r="64"
       cy="0"
       cx="0"
       gradientTransform="matrix(-0.2008,-0.1307,-0.0644,0.099,44.8112,21.1605)"
       gradientUnits="userSpaceOnUse"
       id="radialGradient2898"
       xlink:href="#gradient2-6"
       inkscape:collect="always" />
    <radialGradient
       id="gradient2-6"
       gradientUnits="userSpaceOnUse"
       cx="0"
       cy="0"
       r="64"
       gradientTransform="matrix(-0.2008,-0.1307,-0.0644,0.099,44.8112,19.1605)">
      <stop
         offset="0"
         stop-color="#000001"
         id="stop39" />
      <stop
         offset="1"
         stop-color="#000001"
         stop-opacity="0.196"
         id="stop41" />
    </radialGradient>
  </defs>
  <sodipodi:namedview
     inkscape:window-height="1016"
     inkscape:window-width="1920"
     inkscape:pageshadow="2"
     inkscape:pageopacity="0.0"
     guidetolerance="10.0"
     gridtolerance="10.0"
     objecttolerance="10.0"
     borderopacity="1.0"
     bordercolor="#666666"
     pagecolor="#ffffff"
     id="base"
     showgrid="false"
     inkscape:zoom="4.683783"
     inkscape:cx="78.648844"
     inkscape:cy="48.535406"
     inkscape:window-x="0"
     inkscape:window-y="30"
     inkscape:current-layer="svg2"
     inkscape:window-maximized="1" />
  <g
     id="g4">
    <path
       style="fill:#010101; fill-opacity:0.5725"
       d="M27 57L29 59L32.13 55.83L37 59L45.39 47.54L64 38L59 35L61 37L36 49L27 57z            M58 34L62 31L58 29L55 32L58 34z"
       id="path6" />
    <path
       style="fill:none; stroke:#010101; stroke-width:4"
       d="M6.25 30C6.25 30 11.87 36 16.87 42.5C21.87 49 26.25 55.75 26.25 55.75L59.12 36.87L32 15L6.25 30z"
       id="path8" />
    <radialGradient
       id="gradient0"
       gradientUnits="userSpaceOnUse"
       cx="0"
       cy="0"
       r="64"
       gradientTransform="matrix(0.5714,0,0,0.3333,26,35)">
      <stop
         offset="1"
         stop-color="#c0d5ff"
         id="stop11" />
      <stop
         offset="0.4886"
         stop-color="#896eff"
         id="stop13" />
    </radialGradient>
    <path
       style="fill:url(#gradient0)"
       d="M6.25 30C6.25 30 11.87 36 16.87 42.5C21.87 49 26.25 55.75 26.25 55.75L59.12 36.87L32 15L6.25 30z"
       id="path15" />
    <path
       style="fill:none; stroke:#010101; stroke-width:4"
       d="M2.62 30.87C2.62 30.87 10.95 36.26 19 41.87C27.44 47.75 35.75 52.75 35.75 52.75L58.12 26.37C58.12 26.37 45.44 20.7 35.37 15.37C30.18 12.62 26 9.37 26 9.37L2.62 30.87z"
       id="path17" />
    <linearGradient
       id="gradient1"
       gradientUnits="userSpaceOnUse"
       x1="105.45"
       y1="-23.42"
       x2="119.92"
       y2="34.32">
      <stop
         offset="0"
         stop-color="#a5b1ff"
         id="stop20" />
      <stop
         offset="0.7386"
         stop-color="#eaf1ff"
         id="stop22" />
      <stop
         offset="1"
         stop-color="#b3b8ff"
         id="stop24" />
    </linearGradient>
    <path
       style="fill:url(#gradient1)"
       d="M2.62 30.87C2.62 30.87 10.95 36.26 19 41.87C27.44 47.75 35.75 52.75 35.75 52.75L58.12 26.37C58.12 26.37 45.44 20.7 35.37 15.37C30.18 12.62 26 9.37 26 9.37L2.62 30.87z"
       id="path26" />
  </g>
  <g
     style="color-interpolation:linearRGB"
     id="g7896"
     transform="matrix(0.62089378,0,0,0.62089378,25.087909,24.611815)">
    <g
       transform="matrix(1.5278588,-0.73223393,0.62591008,1.7873975,-53.324488,39.81394)"
       id="g2890">
      <path
         sodipodi:nodetypes="cccscscscccscccccc"
         id="path8-2"
         d="m 58,20 c 0,-2 2,-4 0,-8 -1.28,-2.54 -4,-4 -4,-4 0,0 2,4 0,6 -2,2 -4,4 -4,4 2,-2 2,-6 0,-8 -2,-2 -4,-6 -2,-8 -2,0 -4,4 -4,6 0,2 0,6 -2,6 0,-2 0,-4 -2,-6 0,2 -8,4 -8,6 0,0 2,0 4,2 2,2 2,2 0,4 2,0 4,-2 6,0 1.142938,8.976912 -1.149888,4.311736 8,4 2,2 2,6 4,6 0,0 4,-2 6,0 0,-4 -2,-8 -2,-10 z"
         style="fill:none;stroke:#000000;stroke-width:4"
         inkscape:connector-curvature="0" />
      <path
         id="path34"
         d="m 58,20 c 0,-2 2,-4 0,-8 -1.28,-2.54 -4,-4 -4,-4 0,0 2,4 0,6 -2,2 -4,4 -4,4 2,-2 2,-6 0,-8 -2,-2 -4,-6 -2,-8 -2,0 -4,4 -4,6 0,2 0,6 -2,6 0,-2 0,-4 -2,-6 0,2 -8,4 -8,6 0,0 2,0 4,2 2,2 2,2 0,4 2,0 4,-2 6,0 2,2 2,4 0,6 2,0 6,-4 8,-2 2,2 2,6 4,6 0,0 4,-2 6,0 0,-4 -2,-8 -2,-10 z"
         style="fill:#ff0000"
         inkscape:connector-curvature="0" />
      <path
         id="path36"
         d="m 54,32 c 0,-2 6,-7 4,-10 -2,-3 0,-4 0,-6 0,-2 -2,-4 -2,-4 0,0 0,2 -2,4 -2,2 -4,2 -4,2 0,0 0,-2 0,-4 0,-2 -2,-4 -4,-6 0,2 -2,8 -6,8 0,0 2,-2 0,-6 -4,4 -6,2 -8,4 0,0 2,0 4,2 2,2 2,2 0,4 2,0 4,-2 6,0 2,2 2,4 0,6 2,0 6,-4 8,-2 2,2 2,6 4,8 z"
         style="fill:#ff9c00"
         inkscape:connector-curvature="0" />
      <path
         id="path43"
         d="m 60,30 c -2,-2 -6,0 -6,0 -2,-2 0,-8 -4,-8 -4,0 -6,2 -6,-2 0,-4 -2,-2 -4,-2 -2,0 0,-2 -4,-4 -4,-2 -4,0 -4,0 0,0 -2,8 2,8 4,0 8,4 10,8 2,4 6,2 10,4 4,2 6,-2 6,-4 z"
         style="fill:url(#radialGradient2898)"
         inkscape:connector-curvature="0" />
      <path
         id="path45"
         d="m 60,30 c -2,-2 -6,0 -6,0 -2,-2 0,-8 -4,-8 -4,0 -6,2 -6,-2 0,-4 -2,-2 -4,-2 -2,0 0,-2 -4,-4 -4,-2 -4,0 -4,0 0,0 2,0 4,2 2,2 2,2 0,4 2,0 4,-2 6,0 2,2 2,4 0,6 2,0 6,-4 8,-2 2,2 2,6 4,8 2,-4 6,-2 6,-2 z"
         style="fill:#404040"
         inkscape:connector-curvature="0" />
      <path
         id="path47"
         d="M 56.01,14.78 C 60,20 52,20 52,24 46,18 56,18 56.01,14.78 Z M 36,12 c -2,2 0,2 0,2 0,0 2,0 0,-2 z m 2,6 c 2,-2 2,-4 0,-6 0,2 -4,2 0,6 z m 4,-2 c 0,0 0,2 -2,2 0,-2 2,-2 2,-2 z m 4,-6 c 6,6 -2,8 -2,10 -4,-4 2,-6 2,-10 z m 2,8 c 2,4 -2,4 -4,6 0,-2 0,-4 4,-6 z m 8,4 c 0,2 2,4 -2,8 -2,-4 0,-6 2,-8 z"
         style="fill:#ffff00"
         inkscape:connector-curvature="0" />
    </g>
  </g>
</svg>
