<?xml version="1.0" encoding="UTF-8" standalone="no"?>
<!-- Created with Sodipodi ("http://www.sodipodi.com/") -->

<svg
   xmlns:dc="http://purl.org/dc/elements/1.1/"
   xmlns:cc="http://creativecommons.org/ns#"
   xmlns:rdf="http://www.w3.org/1999/02/22-rdf-syntax-ns#"
   xmlns:svg="http://www.w3.org/2000/svg"
   xmlns="http://www.w3.org/2000/svg"
   xmlns:xlink="http://www.w3.org/1999/xlink"
   xmlns:sodipodi="http://sodipodi.sourceforge.net/DTD/sodipodi-0.dtd"
   xmlns:inkscape="http://www.inkscape.org/namespaces/inkscape"
   width="48pt"
   height="48pt"
   viewBox="0 0 50.678 51.383"
   overflow="visible"
   enable-background="new 0 0 50.678 51.383"
   xml:space="preserve"
   id="svg153"
   sodipodi:version="0.32pre"
   sodipodi:docname="arora.svg"
   version="1.1"
   inkscape:version="0.91 r13725"><defs
     id="defs340"><linearGradient
       id="XMLID_7_"
       gradientUnits="userSpaceOnUse"
       x1="-195.5322"
       y1="376.2266"
       x2="-203.8642"
       y2="380.8235"
       gradientTransform="matrix(1 0 0 -1 233.1519 413.8262)"><stop
         offset="0"
         style="stop-color:#FFFFFF"
         id="stop248" /><stop
         offset="1"
         style="stop-color:#000000"
         id="stop249" /></linearGradient><filter
       inkscape:collect="always"
       id="filter4384"
       x="-0.17884871"
       width="1.3576974"
       y="-0.12642279"
       height="1.2528456"><feGaussianBlur
         inkscape:collect="always"
         stdDeviation="0.25371455"
         id="feGaussianBlur4386" /></filter><radialGradient
       inkscape:collect="always"
       xlink:href="#linearGradient3265"
       id="radialGradient4003"
       gradientUnits="userSpaceOnUse"
       gradientTransform="matrix(1.1000376,0,0,1.4016157,-14.724242,-23.195558)"
       cx="17.947458"
       cy="27.263075"
       fx="17.947458"
       fy="27.263075"
       r="1.4711967" /><linearGradient
       id="linearGradient3265"><stop
         id="stop3267"
         offset="0"
         style="stop-color:#7c7c7c;stop-opacity:1;" /><stop
         id="stop3269"
         offset="1"
         style="stop-color:#c8d1d2;stop-opacity:1;" /></linearGradient><radialGradient
       inkscape:collect="always"
       xlink:href="#linearGradient3217"
       id="radialGradient3990"
       gradientUnits="userSpaceOnUse"
       gradientTransform="matrix(0.86607319,-0.98677919,0.30153794,0.26465284,-10.246786,26.627597)"
       cx="21.118898"
       cy="16.672932"
       fx="21.118898"
       fy="16.672932"
       r="16.475277" /><linearGradient
       id="linearGradient3217"><stop
         style="stop-color:#ffffff;stop-opacity:1;"
         offset="0"
         id="stop3219" /><stop
         style="stop-color:#c7d0d2;stop-opacity:1;"
         offset="1"
         id="stop3221" /></linearGradient><filter
       inkscape:collect="always"
       id="filter4028"
       x="-0.15308"
       width="1.30616"
       y="-0.047069356"
       height="1.0941387"><feGaussianBlur
         inkscape:collect="always"
         stdDeviation="0.40474704"
         id="feGaussianBlur4030" /></filter><filter
       inkscape:collect="always"
       id="filter4788"><feGaussianBlur
         inkscape:collect="always"
         stdDeviation="0.34061157"
         id="feGaussianBlur4790" /></filter></defs><sodipodi:namedview
     id="base"
     showgrid="false"
     inkscape:zoom="11.8"
     inkscape:cx="11.144068"
     inkscape:cy="30"
     inkscape:window-width="1918"
     inkscape:window-height="1020"
     inkscape:window-x="2"
     inkscape:window-y="30"
     inkscape:window-maximized="1"
     inkscape:current-layer="svg153" /><metadata
     id="metadata154"><sfw><slices /><sliceSourceBounds
         y="397.395"
         x="266.725"
         width="50.678"
         height="51.383"
         bottomLeftOrigin="true" /></sfw><rdf:RDF><cc:Work
         rdf:about=""><dc:format>image/svg+xml</dc:format><dc:type
           rdf:resource="http://purl.org/dc/dcmitype/StillImage" /></cc:Work></rdf:RDF></metadata><g
     id="g157"
     style="font-size:12px;opacity:0.2;stroke:#000000"
     transform="matrix(0.84955241,0,0,0.84955241,3.3771477,7.7304486)"><path
       d="m 12.143,40.313 c 6.865,-2.226 22.623,-3.224 35.194,-2.229 0.853,0.068 1.689,0.421 2.445,0.225 1.19,-0.31 1.19,7.291 0.029,7.208 -2.327,0.309 -4.896,0.552 -7.595,0.722 -0.044,0.367 -7.173,5.144 -7.173,5.144 0,0 -9.716,-5.011 -12.563,-5.236 C 9.907,45.151 5.279,42.54 12.143,40.313 Z"
       id="path158"
       inkscape:connector-curvature="0"
       style="stroke:none" /></g><g
     id="g159"
     style="font-size:12px;stroke:#000000"
     transform="matrix(0.84955241,0,0,0.84955241,3.3771477,7.7304486)"><path
       d="M 0,22.836 C 0,10.225 10.225,0 22.837,0 35.449,0 45.672,10.225 45.672,22.836 45.672,35.447 35.449,45.673 22.837,45.673 10.225,45.673 0,35.448 0,22.836 Z"
       id="path160"
       inkscape:connector-curvature="0"
       style="stroke:none" /></g><g
     id="g161"
     style="font-size:12px;stroke:#000000"
     transform="matrix(0.84955241,0,0,0.84955241,3.3771477,7.7304486)"><path
       d="m 1.794,22.836 c 0,-11.621 9.421,-21.042 21.042,-21.042 11.622,0 21.042,9.421 21.042,21.042 0,11.622 -9.42,21.042 -21.042,21.042 C 11.215,43.879 1.794,34.458 1.794,22.836 Z"
       id="path162"
       inkscape:connector-curvature="0"
       style="fill:#59f0f0;stroke:none" /></g><g
     id="g163"
     style="font-size:12px;stroke:#000000"
     transform="matrix(0.84955241,0,0,0.84955241,3.3771477,7.7304486)"><g
       id="g164"><g
         id="g165"><path
           d="m 29.464,42.591 c 0.258,-1.094 0.837,-3.409 -0.193,-3.603 -1.03,-0.192 -2.96,-0.322 -3.539,-0.965 -0.58,-0.644 -1.159,-0.644 -1.544,-0.901 -0.386,-0.258 -0.965,-1.094 -0.386,-1.866 0.579,-0.772 0.45,-1.544 -0.322,-1.994 -0.772,-0.452 -1.223,0.128 -1.866,0.192 -0.644,0.064 -2.188,-0.965 -3.347,-0.965 -1.159,0 -2.252,0 -2.445,-0.644 -0.708,0.45 -4.955,-0.322 -4.762,-1.609 -0.451,-0.45 -2.124,-2.316 -2.574,-2.959 0.064,0.514 0.45,1.608 0.836,1.93 C 8.228,28.435 7.327,27.084 7.263,26.053 6.748,25.602 5.461,23.223 5.655,22.514 5.848,21.806 6.041,19.296 6.427,19.232 6.813,19.168 6.492,18.847 6.3,18.46 6.107,18.074 5.978,17.43 5.978,17.108 c 0,-0.321 0.322,-1.158 0,-1.222 -0.322,-0.064 -1.03,-0.515 -0.579,-0.515 0.45,0 0.837,0.258 0.837,-0.193 0,-0.45 -0.258,-1.673 -0.451,-1.866 C 5.593,13.119 5.657,13.183 5.271,13.44 4.885,13.697 4.499,13.762 4.434,13.569 4.369,13.376 4.498,13.44 4.82,12.99 5.142,12.539 5.914,11.252 6.172,10.802 6.429,10.352 6.365,10.931 7.201,9.966 8.037,9.001 8.488,8.1 8.488,9.001 c 0,0.901 0.193,1.288 0.708,1.288 0.515,0 0.579,-0.193 0.644,0.192 0.064,0.387 0.128,0.837 0.644,0.644 0.515,-0.192 0.965,0.064 1.223,-0.192 0.257,-0.259 -0.193,-0.516 0.128,-0.58 0.323,-0.064 0.451,0.515 0.58,0.064 0.128,-0.45 -0.064,-1.159 0.386,-0.708 0.45,0.451 0.579,0.515 0.9,0.322 0.322,-0.194 1.352,-0.257 0.451,0.322 -0.901,0.58 -0.966,0.515 -1.094,1.094 -0.128,0.579 -0.193,0.386 -0.515,1.03 -0.321,0.643 -0.965,1.287 -0.128,1.737 0.836,0.451 1.93,0.579 1.93,0.579 0,0 0.901,-0.708 0.772,0.063 -0.128,0.773 -0.193,1.224 0.257,1.095 0.451,-0.129 1.224,-0.064 0.708,-0.644 -0.515,-0.579 -0.451,-0.193 -0.257,-1.03 0.192,-0.836 0.064,-0.771 -0.194,-1.158 -0.257,-0.386 -0.9,-1.609 -0.257,-1.673 0.644,-0.064 1.159,-0.257 1.352,0.064 0.193,0.322 0.836,0.901 1.094,0.58 0.258,-0.321 -0.064,-1.223 0.9,-0.58 0.966,0.644 -0.064,0.966 0.966,0.966 1.029,0 1.995,-0.065 1.995,0.192 0,0.258 -0.708,1.48 -1.223,1.673 -0.515,0.193 -0.708,-0.257 -0.901,0.322 -0.193,0.579 -0.837,1.802 -0.45,1.351 0.385,-0.45 1.029,-1.416 1.093,-0.837 0.064,0.58 0,1.03 0.644,0.966 0.643,-0.064 1.608,-0.643 0.772,0.193 -0.837,0.836 -0.901,1.416 -0.837,0.836 0.064,-0.579 0.064,-0.901 -0.451,-0.128 -0.514,0.772 -0.643,1.351 -0.386,1.351 0.257,0 0.257,0.193 -0.064,0.386 -0.322,0.193 -0.515,1.094 -0.708,1.608 -0.193,0.515 -0.579,1.094 -0.193,1.159 0.386,0.064 0.257,1.029 0.257,1.029 0,0 -1.738,1.931 -1.094,2.51 0.644,0.579 1.416,1.479 1.094,1.673 -0.322,0.192 -1.094,-1.03 -1.287,-1.223 -0.192,-0.192 -2.123,-0.451 -2.252,-0.128 -0.128,0.321 0.322,0.579 0,0.643 -0.321,0.064 -1.48,0.323 -1.93,0.579 -0.45,0.257 -0.579,1.094 -0.515,1.416 0.064,0.322 0.386,3.088 1.866,2.766 1.48,-0.32 1.608,-0.449 1.351,-1.093 l 1.159,-0.45 c 0,0 -0.257,1.866 0.322,1.93 0.58,0.064 1.416,-0.129 1.608,-0.129 0.194,0 0.644,1.673 1.03,1.802 0.386,0.129 1.48,0 2.124,-0.45 0.643,-0.449 0.965,0.579 1.029,0.064 0.064,-0.514 0.771,-1.608 1.415,-1.866 0,0.45 0,0.901 0.387,0.772 0.386,-0.128 0.128,-0.965 0.128,-0.965 0,0 2.574,0.128 2.574,-0.644 0,0 1.416,-0.387 1.738,0.064 0.192,-0.45 0.514,-0.064 1.029,0.064 0.515,0.128 0.837,-0.322 1.545,-0.644 0.707,-0.321 2.252,-0.064 2.445,0.45 0.192,0.516 0.578,1.029 0.836,0.129 l 1.48,-0.386 c 0,0 0.837,-0.837 1.415,-0.901 0.579,-0.064 1.159,-0.45 1.224,-0.064 0.063,0.385 -0.193,1.93 -0.579,2.251 -0.387,0.321 -0.193,0.58 -0.064,0.901 0.129,0.322 -0.193,2.059 -0.451,2.381 -0.258,0.322 0,0.386 -0.515,0.836 -0.515,0.451 -0.772,1.094 -0.966,1.48 -0.191,0.386 -0.514,1.479 -1.028,1.931 -0.515,0.45 -0.837,0.965 -0.837,0.965 -0.71,0.584 -2.576,2.835 -6.051,3.35 z"
           id="path166"
           inkscape:connector-curvature="0"
           style="fill:#2f9e32;stroke:none" /></g><g
         id="g167"><path
           d="m 19.04,28.114 c 0.386,-0.193 0.45,-0.258 0.836,-0.258 0.386,0 1.608,0.064 1.995,0.064 0.387,0 0.515,0.385 0.128,0.45 -0.385,0.064 -1.029,-0.193 -1.479,-0.193 -0.451,0 -1.223,0.258 -1.48,-0.063 z"
           id="path168"
           inkscape:connector-curvature="0"
           style="fill:#2f9e32;stroke:none" /></g><g
         id="g169"><path
           d="m 23.416,27.92 c 0.193,-0.322 1.029,-0.514 1.416,-0.322 0.386,0.193 -0.837,0.901 -1.159,0.837 -0.322,-0.064 -0.257,-0.515 -0.257,-0.515 z"
           id="path170"
           inkscape:connector-curvature="0"
           style="fill:#2f9e32;stroke:none" /></g><g
         id="g171"><path
           d="m 22,13.635 c 0,0 0.193,0.579 0.064,0.836 -0.128,0.258 0.579,-0.128 1.094,-0.128 0.514,0 0.192,-0.193 0.064,-0.579 C 23.093,13.377 22.386,13.635 22,13.635 Z"
           id="path172"
           inkscape:connector-curvature="0"
           style="fill:#2f9e32;stroke:none" /></g><g
         id="g173"><path
           d="m 15.243,6.749 c 0.386,-0.128 0.45,-0.45 1.287,0 0.836,0.451 0.9,0.001 1.608,0.708 0.708,0.708 1.93,1.93 3.475,1.351 C 21.29,8.036 20.776,7.843 20.841,7.135 20.905,6.427 21.034,5.397 21.034,5.397 L 20.39,5.655 20.326,5.14 c 0,0 -2.252,-0.45 -2.703,-0.386 -0.45,0.063 -0.45,-0.258 -0.772,-0.258 -0.322,0 -0.386,0.515 -0.644,0.515 -0.258,0 -1.093,-0.386 -0.965,0.129 0.128,0.514 0.322,0.643 0.064,0.965 -0.256,0.322 -0.063,0.644 -0.063,0.644 z"
           id="path174"
           inkscape:connector-curvature="0"
           style="fill:#2f9e32;stroke:none" /></g><g
         id="g175"><path
           d="m 13.828,8.679 c 0.257,-0.386 0.515,-0.643 0.579,-0.386 0.064,0.258 0.128,0.515 0.837,0.322 0.708,-0.193 0.9,-0.064 1.158,0.128 0.258,0.193 0.901,0.257 0.901,0.579 0,0.321 -0.257,0.515 -0.515,0.257 -0.258,-0.258 -0.644,-0.643 -0.644,-0.322 0,0.322 0.193,0.966 0.837,0.901 0.644,-0.064 0.836,0.322 0.322,0.322 -0.514,0 -0.386,0.192 -0.708,0.258 -0.322,0.063 -0.644,-0.387 -0.966,-0.258 0,0 0.129,-0.901 -0.257,-0.965 -0.386,-0.064 -0.515,0.128 -0.515,0.128 0,0 0.064,-0.321 -0.258,-0.45 -0.322,-0.129 -0.45,0.192 -0.837,0.192 -0.385,0.002 -0.707,-1.092 0.066,-0.706 z"
           id="path176"
           inkscape:connector-curvature="0"
           style="fill:#2f9e32;stroke:none" /></g><g
         id="g177"><path
           d="m 10.031,6.042 c 0,0 0.064,0.386 0.258,0.322 0.193,-0.064 0.965,-0.643 1.479,-1.029 0.515,-0.387 0.966,-0.773 0.901,-0.966 -0.064,-0.194 -2.06,1.093 -2.638,1.673 z"
           id="path178"
           inkscape:connector-curvature="0"
           style="fill:#2f9e32;stroke:none" /></g><g
         id="g179"><path
           d="M 9.258,6.685 C 9.569,6.581 9.066,7.2 8.679,7.65 8.293,8.101 8.036,8.101 7.65,8.551 7.264,9.001 6.62,9.516 6.363,9.774 c -0.257,0.257 -0.772,0.642 -0.772,0.642 0,0 3.088,-3.538 3.667,-3.731 z"
           id="path180"
           inkscape:connector-curvature="0"
           style="fill:#2f9e32;stroke:none" /></g><g
         id="g181"><path
           d="m 21.742,2.051 c -0.064,0.387 -0.386,0.58 0.128,0.58 0.515,0 2.574,0.064 3.089,0.579 0.515,0.514 2.316,0.257 2.767,-0.129 C 28.177,2.695 27.533,2.567 26.89,2.631 26.246,2.695 25.667,2.695 25.281,2.503 24.895,2.31 24.444,2.181 24.444,1.924 23.608,1.859 22.128,1.859 21.742,2.051 Z"
           id="path182"
           inkscape:connector-curvature="0"
           style="fill:#2f9e32;stroke:none" /></g><g
         id="g183"><path
           d="m 28.306,2.438 c 0,0 1.029,0.772 0.772,0.836 -0.257,0.064 -0.9,0.064 -0.9,0.064 0,0 0.644,0.063 0.965,0.321 0.322,0.258 0.193,0.708 0.901,0.901 0.708,0.193 0.9,1.094 1.223,1.352 0.322,0.257 0.065,-0.322 0.579,-0.192 0.515,0.128 1.866,0.965 1.48,1.093 -0.387,0.129 -0.515,0.644 0.192,1.03 0.709,0.386 1.48,0.708 1.673,1.158 C 35.513,8.486 35.642,7.649 35.063,7.328 34.484,7.007 33.711,6.684 33.583,6.169 33.455,5.655 33.391,5.205 33.455,4.818 32.167,3.725 28.756,2.502 28.306,2.438 Z"
           id="path184"
           inkscape:connector-curvature="0"
           style="fill:#2f9e32;stroke:none" /></g><g
         id="g185"><path
           d="m 35.899,6.363 c 0.129,0.515 0.516,2.316 0.129,2.574 -0.386,0.257 0,0.386 0.258,0.643 0.257,0.257 0.321,0.128 0.707,0.708 0.387,0.58 0.708,1.03 0.708,1.802 0,0.773 0.515,1.48 0.773,1.93 0.257,0.451 1.866,1.673 1.866,2.317 0,0.643 -0.064,1.287 0.644,1.415 0.707,0.129 1.028,0.193 1.222,0.515 0.193,0.322 0.772,0.322 1.094,0.387 C 42.914,15.887 41.241,10.61 35.899,6.363 Z"
           id="path186"
           inkscape:connector-curvature="0"
           style="fill:#2f9e32;stroke:none" /></g><g
         id="g187"><path
           d="m 22.965,5.334 0,0.257 0.836,0.129 0,-0.644 -1.094,-0.192 0.258,0.45 z"
           id="path188"
           inkscape:connector-curvature="0"
           style="fill:#2f9e32;stroke:none" /></g><g
         id="g189"><path
           d="m 27.277,4.497 c -0.322,0 -0.065,0.322 0.321,0.387 0.387,0.064 0.708,0 1.223,0.064 0.515,0.064 0.902,0.128 1.03,0.387 0.129,0.257 0.451,0.257 0.451,0 0,-0.258 0.064,-0.579 -0.515,-0.644 C 29.208,4.627 28.564,4.562 28.243,4.498 27.922,4.434 27.277,4.497 27.277,4.497 Z"
           id="path190"
           inkscape:connector-curvature="0"
           style="fill:#2f9e32;stroke:none" /></g><g
         id="g191"><path
           d="m 28.5,5.527 0.772,0 0,0.642 L 28.5,5.527 Z"
           id="path192"
           inkscape:connector-curvature="0"
           style="fill:#2f9e32;stroke:none" /></g><g
         id="g193"><path
           d="m 11.575,9.837 c 0,0 -0.193,0.516 -0.451,0.516 -0.258,0 -0.708,-0.579 -0.257,-0.772 0.451,-0.194 0.708,0.256 0.708,0.256 z"
           id="path194"
           inkscape:connector-curvature="0"
           style="fill:#2f9e32;stroke:none" /></g><g
         id="g195"><path
           d="M 10.609,9.13 C 10.288,9.387 10.095,9.644 9.901,9.58 9.709,9.516 10.159,9.001 10.417,8.872 10.674,8.744 10.609,9.13 10.609,9.13 Z"
           id="path196"
           inkscape:connector-curvature="0"
           style="fill:#2f9e32;stroke:none" /></g><g
         id="g197"><path
           d="m 11.061,8.358 0.386,-0.129 0.515,0.579 0.451,0 -0.129,0.708 -0.258,0 -0.965,-1.158 z"
           id="path198"
           inkscape:connector-curvature="0"
           style="fill:#2f9e32;stroke:none" /></g><g
         id="g199"><path
           d="M 13.184,7.071 C 13.506,7.008 13.892,7.008 14.085,6.17 14.277,5.335 14.6,5.656 14.471,6.235 14.343,6.814 13.828,6.879 14.085,7.2 14.342,7.522 14.213,7.392 13.828,7.328 13.441,7.264 13.184,7.392 13.184,7.071 Z"
           id="path200"
           inkscape:connector-curvature="0"
           style="fill:#2f9e32;stroke:none" /></g></g></g><path
     style="fill:url(#radialGradient4003);fill-opacity:1;fill-rule:evenodd;stroke:#000000;stroke-width:1.02396905;stroke-linecap:round;stroke-linejoin:miter;stroke-miterlimit:4;stroke-dasharray:none;stroke-opacity:1"
     d="m 4.3068299,16.692024 c 0.3976354,-0.244992 -0.060612,-0.899041 0.1591965,-1.467485 0.303359,-0.97892 0.8743206,-1.331425 1.3598497,-1.882977 0.8829595,0.674293 0.5416402,1.822993 0.3926205,3.30711"
     id="path3606"
     sodipodi:nodetypes="cccc"
     inkscape:connector-curvature="0" /><path
     style="fill:#001b52;fill-opacity:0.26943006;fill-rule:evenodd;stroke:none;stroke-width:0.89999998;stroke-linecap:round;stroke-linejoin:miter;stroke-miterlimit:4;stroke-dasharray:none;stroke-opacity:1"
     d="m 33.716535,22.086634 c -1.5363,2.919459 -2.331989,2.037542 -1.045186,3.536791 1.629689,1.748348 3.637335,0.398423 5.484322,-0.899264 -0.03631,-3.24915 -0.846119,-4.351257 -1.531821,-6.085535 -1.072608,-4.286197 -0.05468,-4.371195 -0.205848,-5.772275 C 36.068906,8.5338164 35.351388,7.2636384 31.388041,3.8969117 28.696812,2.8660394 24.229806,2.2585147 22.309974,2.373652 19.839136,2.2600426 16.145055,7.6538849 14.504161,9.9911474 11.451582,13.180281 10.869205,13.355568 7.8790587,16.668582 6.283253,18.994317 6.4604613,18.845318 5.9716051,22.103839 c -2.265136,7.838627 -2.3421093,6.233288 0.6728561,7.285945 1.9015102,-1.193289 4.3185688,-4.761285 6.4139738,-5.595961 0.403643,-3.372811 3.713674,-3.414261 6.36611,-5.377327 1.041672,-0.147645 1.957307,0.01157 2.997456,2.146002 1.594982,5.396725 1.138945,12.165098 6.26339,5.876901 0.185774,-2.382978 1.20036,1.111826 0.939181,-1.331596 -0.243927,-2.512751 1.318377,-4.783246 0.385245,-7.108019 -0.727152,-1.518548 -2.489613,-1.678517 -3.998055,-4.420844"
     id="path4556"
     sodipodi:nodetypes="cccccccccccccccccc"
     inkscape:connector-curvature="0" /><path
     style="fill:url(#radialGradient3990);fill-opacity:1;fill-rule:evenodd;stroke:#000000;stroke-width:1.05624211;stroke-linecap:round;stroke-linejoin:miter;stroke-miterlimit:4;stroke-dasharray:none;stroke-opacity:1"
     d="m 34.490218,21.341626 c -1.734985,2.919458 -2.447988,2.354667 -0.994766,3.853916 1.840452,1.748348 3.672003,-0.791244 5.757852,-2.088931 -0.041,-3.249149 -0.955543,-4.351256 -1.729924,-6.085534 C 36.312056,12.734879 37.46162,12.649883 37.290909,11.248802 36.896667,6.9162667 36.086356,5.646088 31.61044,2.2793625 28.571164,1.2484902 23.526456,0.64096547 21.358339,0.75610286 18.567956,0.6424936 14.39613,6.0363367 12.543026,8.3735984 9.0956662,11.562732 8.4379728,11.73802 5.0611205,15.051033 3.2589329,17.376769 3.4590609,17.227769 2.906982,20.48629 c -2.55807812,7.838627 -2.64500636,6.233287 0.7598767,7.285945 2.147424,-1.19329 4.8770734,-4.761285 7.2434713,-5.595961 0.455844,-3.372811 4.193951,-3.414262 7.189417,-5.377327 1.176387,-0.147645 3.047826,-0.470732 4.222494,1.663705 2.527484,3.40323 0.666721,14.12644 6.453893,7.838241 0.209801,-2.382976 -0.133169,-0.04569 -0.428124,-2.489108 -0.275473,-2.512751 1.561501,-5.23339 0.507692,-7.558162 -0.821193,-1.51855 -1.613312,-1.549905 -3.316837,-4.292232"
     id="path3177"
     sodipodi:nodetypes="cccccccccccccccccc"
     inkscape:connector-curvature="0" /><path
     style="fill:#000000;fill-opacity:1;fill-rule:evenodd;stroke:none;stroke-width:0.80435652;stroke-linecap:round;stroke-linejoin:round;stroke-miterlimit:4;stroke-dasharray:none;stroke-opacity:1"
     d="m 3.2233051,21.044591 1.131544,-0.0401 -0.032077,-0.459462 -0.9492713,-0.18015 -0.1501917,0.679714 z"
     id="path4732"
     sodipodi:nodetypes="ccccc"
     inkscape:connector-curvature="0" /><path
     style="fill:#879bc8;fill-opacity:0.34010153;fill-rule:evenodd;stroke:none;stroke-width:1px;stroke-linecap:butt;stroke-linejoin:miter;stroke-opacity:1"
     d="m 27.57168,9.010914 c 0.678977,1.659724 1.13163,2.414143 1.433398,3.470333 0.301769,1.056188 0.150884,3.168564 0.150884,3.168564 l -2.024575,-2.22348 0.440293,-4.415417 z"
     id="path4560"
     sodipodi:nodetypes="csccc"
     inkscape:connector-curvature="0" /><path
     style="fill:none;fill-rule:evenodd;stroke:#000000;stroke-width:0.8215217;stroke-linecap:butt;stroke-linejoin:miter;stroke-miterlimit:4;stroke-dasharray:none;stroke-opacity:1"
     d="m 29.386407,16.035261 c 1.735068,2.345965 4.241715,4.333918 5.1183,5.287599"
     id="path3181"
     sodipodi:nodetypes="cc"
     inkscape:connector-curvature="0" /><path
     style="fill:#000000;fill-opacity:1;fill-rule:evenodd;stroke:none;stroke-width:0.80435652;stroke-linecap:round;stroke-linejoin:round;stroke-miterlimit:4;stroke-dasharray:none;stroke-opacity:1"
     d="m 5.3473088,20.939949 c -0.084337,0.125398 -0.1686742,0.250794 -0.2530102,0.376191 0.3770693,0.329809 1.0113627,0.531006 1.3562783,0.732202 C 7.4726163,21.893895 7.3482422,21.58706 7.6216366,21.349431 7.108383,21.095446 6.9370788,21.334829 6.3699303,21.282723 6.1469508,21.264927 5.5702883,20.957749 5.3473088,20.93995 Z"
     id="path3334"
     sodipodi:nodetypes="cccccc"
     inkscape:connector-curvature="0" /><path
     style="opacity:0.18297873;fill:none;fill-rule:evenodd;stroke:#fefefe;stroke-width:1.5;stroke-linecap:round;stroke-linejoin:miter;stroke-miterlimit:4;stroke-dasharray:none;stroke-opacity:1;filter:url(#filter4384)"
     d="m 39.321598,26.574697 c 2.206552,1.048735 -2.619239,-2.454646 -2.635673,-2.520383 -0.0895,-0.410244 -0.218011,-0.899386 -0.321042,-1.385828 -0.09575,-0.452045 -0.169491,-0.901758 -0.169491,-1.283658"
     id="path4302"
     transform="matrix(1.5881279,0,0,1.8696179,-26.012674,-29.041315)"
     sodipodi:nodetypes="ccsc"
     inkscape:connector-curvature="0" /><path
     style="fill:none;fill-rule:evenodd;stroke:#b0cada;stroke-width:1.17360246px;stroke-linecap:round;stroke-linejoin:miter;stroke-opacity:1"
     d="M 8.1117595,17.317774 C 8.5924585,17.071891 9.4393711,16.39299 9.545158,15.808935"
     id="path4506"
     sodipodi:nodetypes="cc"
     inkscape:connector-curvature="0" /><path
     style="fill:#a9b4ca;fill-opacity:0.41624367;fill-rule:evenodd;stroke:none;stroke-width:1px;stroke-linecap:butt;stroke-linejoin:miter;stroke-opacity:1"
     d="m 22.311474,1.358849 c 0,0 7.233428,0.00632 9.254513,1.6441238 0.658512,0.5336313 5.981266,2.6764272 5.150656,8.4270812 -0.569949,3.946 -0.207143,3.643642 -0.0206,4.815052 0.191308,1.201328 1.743405,4.165791 1.743405,4.165791 l 0.30177,2.414145 -3.147967,2.263261 c 0,0 -1.056187,-0.571995 -0.397809,-1.357956 0.477126,-0.569586 2.113199,-1.508977 1.961492,-2.414145 -0.151446,-0.903617 -3.03762,-4.974564 -3.017682,-6.186246 0.15676,-9.5268054 -7.058307,-16.01595864 -18.51166,-9.6658977 0,0 4.065427,-5.14491771 6.68388,-4.1052093 z"
     id="path4544"
     sodipodi:nodetypes="cssscccssssc"
     inkscape:connector-curvature="0" /><path
     style="fill:#7891cb;fill-opacity:0.2538071;fill-rule:evenodd;stroke:none;stroke-width:1px;stroke-linecap:butt;stroke-linejoin:miter;stroke-opacity:1"
     d="m 22.3703,10.377109 c 0,0 5.356383,4.300195 6.110803,6.412571 0.754422,2.112377 -0.226324,3.470334 -0.603535,4.82829 -0.377209,1.357956 0.301768,3.093124 0.377211,3.696659 0.07544,0.603536 -0.452653,1.508839 -1.131631,1.810609 -0.501889,0.223061 -0.256358,-8.201417 -0.07544,-9.430253 0.134132,-0.911067 -4.45108,-5.733594 -4.677406,-7.317876 z"
     id="path4554"
     sodipodi:nodetypes="csssssc"
     inkscape:connector-curvature="0" /><path
     style="fill:none;fill-opacity:1;fill-rule:evenodd;stroke:#000000;stroke-width:0.83795202;stroke-linecap:round;stroke-linejoin:miter;stroke-miterlimit:4;stroke-dasharray:none;stroke-opacity:1"
     d="M 7.3972443,16.974206 C 7.82147,16.820425 8.0569646,16.409879 8.2914705,16.053069 8.6151171,15.438601 9.224263,15.217334 9.7422616,14.871126 c 0.9420064,0.423252 0.5778604,1.144291 0.4188764,2.075869"
     id="path3227"
     sodipodi:nodetypes="cccc"
     inkscape:connector-curvature="0" /><path
     style="fill:#ffffff;fill-opacity:0.44041449;fill-rule:evenodd;stroke:none;stroke-width:1px;stroke-linecap:butt;stroke-linejoin:miter;stroke-opacity:1;filter:url(#filter4028)"
     d="m 32.854577,16.883491 c 0,0 1.140388,4.723034 4.666277,8.402413 1.163547,1.214199 0.220971,8.087533 0.795495,9.63433 0.574524,1.546796 0.883883,2.077126 0.883883,2.077126 l -0.618718,0.486136 c 0,0 -0.707107,0.707106 -1.325825,-4.02167 -0.618719,-4.728777 -1.167355,-7.999146 -4.08417,-9.855301 l -0.316942,-6.723034 z"
     id="path4764"
     sodipodi:nodetypes="cssccscc"
     transform="matrix(0.80691801,0,0,0.80691801,-5.1333816,-2.5295304)"
     inkscape:connector-curvature="0" /><path
     style="fill:#ffffff;fill-opacity:0.44041449;fill-rule:evenodd;stroke:none;stroke-width:1px;stroke-linecap:butt;stroke-linejoin:miter;stroke-opacity:1;filter:url(#filter4788)"
     d="m 42.603184,14.502525 c 1.502602,1.856156 2.740038,3.447146 2.740038,5.833631 0,2.386486 3.358758,7.778175 4.596195,8.662058 1.237436,0.883884 0.972271,0.883884 0.972271,0.883884 l -2.474873,3.358757 1.59099,-4.065864 c 0,0 -6.363961,-4.772971 -6.45235,-6.540738 -0.08839,-1.767767 -0.08839,-4.596194 -0.53033,-6.452349 -0.441941,-1.856155 -0.618718,-1.944544 -0.441941,-1.679379 z"
     id="path4768"
     transform="matrix(0.80691801,0,0,0.80691801,-5.1333816,-2.5295304)"
     inkscape:connector-curvature="0" /><path
     style="fill:none;fill-rule:evenodd;stroke:#000000;stroke-width:0.93888187;stroke-linecap:round;stroke-linejoin:miter;stroke-miterlimit:4;stroke-dasharray:none;stroke-opacity:1"
     d="m 29.259484,11.001046 c 1.100945,1.73428 -0.297492,3.146697 0.191294,5.215611"
     id="path3179"
     sodipodi:nodetypes="cc"
     inkscape:connector-curvature="0" /><path
     style="fill:#000000;fill-opacity:1;fill-rule:evenodd;stroke:none;stroke-width:1px;stroke-linecap:butt;stroke-linejoin:miter;stroke-opacity:1"
     d="m 1.8257599,25.062094 c 0.6001921,0.150048 0.6537807,0.13933 1.6719634,0.450143 0.021433,0.600192 -0.2143544,0.943159 -0.3536846,1.286127 1.8170454,-0.67047 2.2686296,-2.484784 2.5928495,-2.45645 0.5290188,0.486566 0.5435885,0.876675 -2.1105521,2.9709 -0.6966511,-0.182201 -1.3933029,-0.364402 -2.089954,-0.546603 0.075023,-0.482298 0.053591,-0.482298 0.2893778,-1.704117 z"
     id="path2467"
     sodipodi:nodetypes="ccccccc"
     inkscape:connector-curvature="0" /></svg>