<?xml version="1.0" encoding="iso-8859-1"?>
<!-- Generator: Adobe Illustrator 9.0, SVG Export Plug-In  -->
<!DOCTYPE svg PUBLIC "-//W3C//DTD SVG 20000303 Stylable//EN"   "http://www.w3.org/TR/2000/03/WD-SVG-20000303/DTD/svg-20000303-stylable.dtd" [
	<!ENTITY st0 "fill:url(#aigrd1);stroke:none;">
	<!ENTITY st1 "opacity:0.27;">
	<!ENTITY st2 "fill:#FFFFFF;stroke:none;">
	<!ENTITY st3 "fill:url(#aigrd2);stroke:none;">
	<!ENTITY st4 "fill:none;stroke:none;">
	<!ENTITY st5 "stroke-width:0.872;">
	<!ENTITY st6 "fill-rule:nonzero;clip-rule:nonzero;stroke:#000000;stroke-miterlimit:4;">
	<!ENTITY st7 "stroke:none;">
]>
<svg  width="24pt" height="24pt" viewBox="0 0 24 24" xml:space="preserve">
	<g id="Layer_x0020_2" style="&st6;">
		<path style="&st5;" d="M2,8.8C1.3,9,0.9,9.8,1.2,10.6L5,21.4c0.3,0.7,1.1,1.1,1.8,0.9l15.3-5.4c0.7-0.3,1.1-1.1,0.9-1.8L19.2,4.2c-0.3-0.7-1.1-1.1-1.8-0.9L2,8.8z"/>
		<path style="&st2;" d="M22.2,15.4c0.1,0.3,0,0.6-0.3,0.7L6.5,21.5c-0.3,0.1-0.6,0-0.7-0.3L2,10.3C1.9,10,2,9.7,2.3,9.6l15.3-5.4c0.3-0.1,0.6,0,0.7,0.3l3.8,10.9z"/>
		<linearGradient id="aigrd1" gradientUnits="userSpaceOnUse" x1="-24.8706" y1="23.9551" x2="-35.3757" y2="14.488" gradientTransform="matrix(0.943 -0.3328 0.3328 0.943 34.2755 -15.2508)">
			<stop  offset="0" style="stop-color:#FFFFFF"/>
			<stop  offset="1" style="stop-color:#EDEDED"/>
		</linearGradient>
		<path style="&st0;" d="M2.5,10c-0.1,0-0.1,0.1-0.1,0.1L6.2,21c0,0.1,0.1,0.1,0.1,0.1l15.3-5.4c0.1,0,0.1-0.1,0.1-0.1L17.9,4.6c0-0.1-0.1-0.1-0.1-0.1L2.5,10z"/>
		<g style="&st7;">
			<path style="&st1;" d="M19.1,14.1L7.6,18.2l-0.5-1.4l11.6-4.1l0.5,1.4z"/>
			<path style="&st1;" d="M18.1,11.3L6.5,15.4L6,13.9l11.6-4.1l0.5,1.4z"/>
			<path style="&st1;" d="M17.1,8.4L5.5,12.5L5,11.1L16.6,7l0.5,1.4z"/>
		</g>
		<path style="&st5;" d="M7.7,1.8c-1.1,0-1.9,0.8-1.9,1.9c0,9.3,0,9.3,0,9.3c0,0.2,0,0.9,0.5,1.4l2.2,2.5L8.6,17c0.4,0.4,1,0.6,1.5,0.6c0.6,0,1.1-0.2,1.5-0.6c0,0,0,0,0,0l2.1-2.3l0,0c0.6-0.6,0.6-1.3,0.6-1.5v0V8.3C14.3,7.6,13.7,7,13,7c-0.7,0-1.3,0.6-1.3,1.3
			c0,0,0,4.4,0,4.7c-0.3,0.3-1.1,1.2-1.6,1.7c-0.5-0.6-1.5-1.8-1.7-1.9c0-0.2,0-7.2,0-8.4c1,0,4.1,0,5.1,0c0,0.3,0,0.8,0,0.8l2.6-1V3.6c0-1.1-0.7-1.8-1.8-1.8H7.7z M11.6,13.2c0,0,0,0,0,0v0z"/>
		<linearGradient id="aigrd2" gradientUnits="userSpaceOnUse" x1="6.8994" y1="4.062" x2="9.1613" y2="6.5732">
			<stop  offset="0" style="stop-color:#FFFFFF"/>
			<stop  offset="1" style="stop-color:#F6F9D4"/>
		</linearGradient>
		<path style="&st3;" d="M13.4,8.3c0-0.2-0.2-0.4-0.4-0.4c-0.2,0-0.4,0.2-0.4,0.4v4.8c0,0,0,0,0,0v0c0,0.1,0,0.2-0.1,0.3c0,0,0,0,0,0c0,0-2,2.2-2.1,2.3c-0.1,0.1-0.2,0.1-0.3,0.1c-0.1,0-0.2,0-0.3-0.1c0,0-2.1-2.5-2.1-2.5c-0.1-0.1-0.1-0.3-0.1-0.3c0,0,0-9.3,0-9.3
			c0-0.1,0-0.1,0-0.1c0,0,0,0,0.1,0h6.6c0,0,0.1,0,0.1,0c0,0,0,0,0,0.1v0.4c0,0,0,0.1,0,0.1l0.9-0.3V3.6c0-0.4-0.1-0.9-0.9-0.9H7.7c-0.6,0-1,0.4-1,1c0,0,0,9.3,0,9.3c0,0.1,0,0.5,0.3,0.9l2.2,2.5c0,0,0,0,0,0c0.2,0.2,0.6,0.4,0.9,0.4c0.3,0,0.7-0.1,0.9-0.4
			c0,0,0,0,0,0l2.1-2.3c0.3-0.3,0.3-0.8,0.3-0.9V8.3z"/>
	</g>
	<g id="Layer_x0020_3" style="&st6;">
		<path style="&st4;" d="M24,24H0V0h24v24z"/>
	</g>
</svg>
