<?xml version="1.0" encoding="UTF-8" standalone="no"?>
<svg
   xmlns:dc="http://purl.org/dc/elements/1.1/"
   xmlns:cc="http://creativecommons.org/ns#"
   xmlns:rdf="http://www.w3.org/1999/02/22-rdf-syntax-ns#"
   xmlns:svg="http://www.w3.org/2000/svg"
   xmlns="http://www.w3.org/2000/svg"
   xmlns:sodipodi="http://sodipodi.sourceforge.net/DTD/sodipodi-0.dtd"
   xmlns:inkscape="http://www.inkscape.org/namespaces/inkscape"
   version="1.1"
   width="64"
   height="64"
   color-interpolation="linearRGB"
   id="svg2"
   inkscape:version="0.91 r13725"
   sodipodi:docname="cheese.svg">
  <metadata
     id="metadata71">
    <rdf:RDF>
      <cc:Work
         rdf:about="">
        <dc:format>image/svg+xml</dc:format>
        <dc:type
           rdf:resource="http://purl.org/dc/dcmitype/StillImage" />
        <dc:title></dc:title>
      </cc:Work>
    </rdf:RDF>
  </metadata>
  <defs
     id="defs69" />
  <sodipodi:namedview
     pagecolor="#ffffff"
     bordercolor="#666666"
     borderopacity="1"
     objecttolerance="10"
     gridtolerance="10"
     guidetolerance="10"
     inkscape:pageopacity="0"
     inkscape:pageshadow="2"
     inkscape:window-width="1364"
     inkscape:window-height="708"
     id="namedview67"
     showgrid="false"
     inkscape:zoom="4.6445315"
     inkscape:cx="-4.6689495"
     inkscape:cy="30.498337"
     inkscape:window-x="2"
     inkscape:window-y="30"
     inkscape:window-maximized="1"
     inkscape:current-layer="svg2" />
  <g
     style="color-interpolation:linearRGB"
     id="g6787"
     transform="matrix(0.95354555,0,0,0.95354555,-8.270873,1.5430422)">
    <g
       id="g6727">
      <path
         id="path6729"
         d="m 28,64 c 0,0 5,0 10,0 5,0 10.2,-3.04 14.75,-2.88 10.37,0.38 14.5,-4.75 8.12,-6.75 C 57.04,53.17 52,53.25 49.12,51.25 45.45,48.69 38,48 38,48 l 0,7 -10,9 z"
         style="fill:#010101;fill-opacity:0.42350003"
         inkscape:connector-curvature="0" />
      <path
         id="path6731"
         d="m 12,18 0,17 4,4 0,17 4,2 2,0 1,1.5 5,2.5 8,-8 0,-11 4,-4 0,-18 -19,-9 -9,6 z"
         style="fill:none;stroke:#000000;stroke-width:4"
         inkscape:connector-curvature="0" />
      <linearGradient
         y2="-8.0500002"
         x2="116.61"
         y1="-57.07"
         x1="73.739998"
         gradientUnits="userSpaceOnUse"
         id="gradient0-5">
        <stop
           id="stop6734"
           stop-color="#ffdb97"
           offset="0" />
        <stop
           id="stop6736"
           stop-color="#fcaf29"
           offset="1" />
      </linearGradient>
      <path
         id="path6738"
         d="m 12,18 0,17 4,4 0,17 4,2 2,0 1,1.5 5,2.5 0,-17 4,0 0,-18 -20,-9 z"
         style="fill:url(#gradient0-5)"
         inkscape:connector-curvature="0" />
      <linearGradient
         y2="-51.950001"
         x2="-24.83"
         y1="-33.98"
         x1="-43.970001"
         gradientUnits="userSpaceOnUse"
         id="gradient1-7">
        <stop
           id="stop6741"
           stop-color="#fff7ea"
           offset="0" />
        <stop
           id="stop6743"
           stop-color="#fdd17b"
           offset="0.9962" />
      </linearGradient>
      <path
         id="path6745"
         d="M 12,18 32,27 40,21 26,20 31.99,16.99 21,12 12,18 Z"
         style="fill:url(#gradient1-7)"
         inkscape:connector-curvature="0" />
      <linearGradient
         y2="-45.970001"
         x2="75.839996"
         y1="-52.610001"
         x1="54.23"
         gradientUnits="userSpaceOnUse"
         id="gradient2-0">
        <stop
           id="stop6748"
           stop-color="#c85805"
           offset="0" />
        <stop
           id="stop6750"
           stop-color="#f06306"
           offset="1" />
      </linearGradient>
      <path
         id="path6752"
         d="m 32,45 -4,0 0,17 8,-8 0,-11 4,-4 0,-18 -8,6 0,18 z"
         style="fill:url(#gradient2-0)"
         inkscape:connector-curvature="0" />
      <path
         id="path6754"
         d="m 28,45 0,6 8,-8 -4,2 -4,0 z"
         style="fill:#a32904"
         inkscape:connector-curvature="0" />
      <linearGradient
         y2="-64"
         x2="39.07"
         y1="-64"
         x1="28.92"
         gradientUnits="userSpaceOnUse"
         id="gradient3-2">
        <stop
           id="stop6757"
           stop-color="#c85804"
           offset="0" />
        <stop
           id="stop6759"
           stop-color="#dc952f"
           offset="1" />
      </linearGradient>
      <path
         id="path6761"
         d="m 26,20 14,1 -8,-4 -6,3 z"
         style="fill:url(#gradient3-2)"
         inkscape:connector-curvature="0" />
      <path
         id="path6763"
         d="m 26,2 c -4,0 -8,4 -8,8 0,4 4,8 8,8 4,0 8,-4 8,-8 0,-4 -4,-8 -8,-8 z"
         style="fill:none;stroke:#000000;stroke-width:4"
         inkscape:connector-curvature="0" />
      <radialGradient
         gradientTransform="matrix(0.2361,0,0,0.2321,22.625,6.375)"
         r="64"
         cy="0"
         cx="0"
         gradientUnits="userSpaceOnUse"
         id="gradient4-2">
        <stop
           id="stop6766"
           stop-color="#f2f2f2"
           offset="0" />
        <stop
           id="stop6768"
           stop-color="#bca184"
           offset="1" />
        <stop
           id="stop6770"
           stop-color="#7d7a7a"
           offset="0.6742" />
      </radialGradient>
      <path
         id="path6772"
         d="m 26,2 c -4,0 -8,4 -8,8 0,4 4,8 8,8 4,0 8,-4 8,-8 0,-4 -4,-8 -8,-8 z"
         style="fill:url(#gradient4-2)"
         inkscape:connector-curvature="0" />
      <linearGradient
         y2="-45.970001"
         x2="75.839996"
         y1="-52.610001"
         x1="54.23"
         gradientUnits="userSpaceOnUse"
         id="gradient5-1">
        <stop
           id="stop6775"
           stop-color="#c85805"
           offset="0" />
        <stop
           id="stop6777"
           stop-color="#f06306"
           offset="1" />
      </linearGradient>
      <path
         id="path6779"
         d="m 20,58 2,0 0,-14 -2,-1 0,15 z"
         style="fill:url(#gradient5-1)"
         inkscape:connector-curvature="0" />
    </g>
  </g>
  <g
     id="g4"
     transform="matrix(0.70619295,0,0,0.70619295,19.06644,16.947013)">
    <path
       style="fill:#010101;fill-opacity:0.40779999"
       d="M 38,40 C 25.84,40 16,45.37 16,52 16,58.61 25.84,64 38,64 50.14,64 60,58.61 60,52 60,45.37 50.14,40 38,40 Z"
       id="path6"
       inkscape:connector-curvature="0" />
    <linearGradient
       id="gradient0"
       gradientUnits="userSpaceOnUse"
       x1="52"
       y1="-64"
       x2="68"
       y2="-64">
      <stop
         offset="0"
         stop-color="#010000"
         id="stop9" />
      <stop
         offset="1"
         stop-color="#010000"
         stop-opacity="0"
         id="stop11" />
    </linearGradient>
    <path
       style="fill:none;stroke:url(#gradient0);stroke-width:4"
       d="m 44,44 c 0,0 5.51,-6 10,-6 4,0 2,8 10,4"
       id="path13"
       inkscape:connector-curvature="0" />
    <path
       style="fill:none;stroke:#010000;stroke-width:4"
       d="m 28,34 c 0,0 -5,14 -14,15 l 0,3 20,10 14,-14 -3,-14 -17,0 z"
       id="path15"
       inkscape:connector-curvature="0" />
    <linearGradient
       id="gradient1"
       gradientUnits="userSpaceOnUse"
       x1="41.669998"
       y1="-9.7299995"
       x2="71.919998"
       y2="-3.5">
      <stop
         offset="0"
         stop-color="#5c5c5c"
         id="stop18" />
      <stop
         offset="1"
         stop-color="#b8b8b8"
         id="stop20" />
    </linearGradient>
    <path
       style="fill:url(#gradient1)"
       d="M 34,36 34,62 48,48 45,34 34,36 Z"
       id="path22"
       inkscape:connector-curvature="0" />
    <linearGradient
       id="gradient2"
       gradientUnits="userSpaceOnUse"
       x1="14.26"
       y1="97.459999"
       x2="-8.9399996"
       y2="81.760002">
      <stop
         offset="0"
         stop-color="#c9c9c9"
         id="stop25" />
      <stop
         offset="1"
         stop-color="#ffffff"
         id="stop27" />
    </linearGradient>
    <path
       style="fill:url(#gradient2)"
       d="m 14,52 20,10 0,-4 -20,-9 0,3 z"
       id="path29"
       inkscape:connector-curvature="0" />
    <linearGradient
       id="gradient3"
       gradientUnits="userSpaceOnUse"
       x1="51.939999"
       y1="63.650002"
       x2="26.51"
       y2="73.339996">
      <stop
         offset="0"
         stop-color="#797979"
         id="stop32" />
      <stop
         offset="1"
         stop-color="#e4e4e4"
         id="stop34" />
    </linearGradient>
    <path
       style="fill:url(#gradient3)"
       d="m 34,58 c 7,-7 6,-19 6,-19 L 28,34 c 0,0 -5,14 -14,15 l 20,9 z"
       id="path36"
       inkscape:connector-curvature="0" />
    <path
       style="fill:none;stroke:#010000;stroke-width:4"
       d="M 30,2 C 18.95,2 10,10.95 10,22 10,33.03 18.95,42 30,42 41.03,42 50,33.03 50,22 50,10.95 41.03,2 30,2 Z"
       id="path38"
       inkscape:connector-curvature="0" />
    <radialGradient
       id="gradient4"
       gradientUnits="userSpaceOnUse"
       cx="0"
       cy="0"
       r="64"
       gradientTransform="matrix(0.3731,0.2924,-0.3363,0.4291,25.2905,16.1419)">
      <stop
         offset="0.1647"
         stop-color="#ffffff"
         id="stop41" />
      <stop
         offset="0.7686"
         stop-color="#959191"
         id="stop43" />
      <stop
         offset="1"
         stop-color="#b9b9b9"
         id="stop45" />
    </radialGradient>
    <path
       style="fill:url(#gradient4)"
       d="M 30,2 C 18.95,2 10,10.95 10,22 10,33.03 18.95,42 30,42 41.03,42 50,33.03 50,22 50,10.95 41.03,2 30,2 Z"
       id="path47"
       inkscape:connector-curvature="0" />
    <linearGradient
       id="gradient5"
       gradientUnits="userSpaceOnUse"
       x1="-6"
       y1="-4"
       x2="38"
       y2="-4">
      <stop
         offset="0.2509"
         stop-color="#010101"
         id="stop50" />
      <stop
         offset="1"
         stop-color="#c1acac"
         id="stop52" />
    </linearGradient>
    <path
       style="fill:none;stroke:url(#gradient5);stroke-width:4"
       d="m 12.25,43.25 c -2.42,2.35 -1.64,7.06 1.74,10.51 3.36,3.47 8.04,4.34 10.47,1.99 2.41,-2.34 1.63,-7.05 -1.73,-10.51 -3.37,-3.45 -8.06,-4.33 -10.48,-1.99 z"
       transform="matrix(0.9846,0.4347,-0.4379,0.9773,24.6832,-30.2941)"
       id="path54"
       inkscape:connector-curvature="0" />
    <radialGradient
       id="gradient6"
       gradientUnits="userSpaceOnUse"
       cx="0"
       cy="0"
       r="64"
       gradientTransform="matrix(0.1345,0.0871,-0.0673,0.1039,20.7047,50.7358)">
      <stop
         offset="0"
         stop-color="#434a68"
         id="stop57" />
      <stop
         offset="1"
         stop-color="#0f1238"
         id="stop59" />
    </radialGradient>
    <path
       style="fill:url(#gradient6)"
       d="m 12.25,43.25 c -2.42,2.35 -1.64,7.06 1.74,10.51 3.36,3.47 8.04,4.34 10.47,1.99 2.41,-2.34 1.63,-7.05 -1.73,-10.51 -3.37,-3.45 -8.06,-4.33 -10.48,-1.99 z"
       transform="matrix(0.9846,0.4347,-0.4379,0.9773,26.8385,-30.2941)"
       id="path61"
       inkscape:connector-curvature="0" />
    <path
       style="fill:#ffffff"
       d="m 12.25,43.25 c -2.42,2.35 -1.64,7.06 1.74,10.51 3.36,3.47 8.04,4.34 10.47,1.99 2.41,-2.34 1.63,-7.05 -1.73,-10.51 -3.37,-3.45 -8.06,-4.33 -10.48,-1.99 z"
       transform="matrix(-0.0781,0.1744,-0.1757,-0.0775,31.659,20.9543)"
       id="path63"
       inkscape:connector-curvature="0" />
    <path
       style="fill:#ffffff"
       d="m 19,53 c 0,0 3.24,0.24 4.24,-0.76 1,-1 0.76,-3.24 0.76,-3.24 0,0 0.87,3.1 -0.13,4.1 C 22.87,54.1 19,53 19,53 Z"
       transform="matrix(0.9846,0.4347,-0.4379,0.9773,26.8385,-30.2941)"
       id="path65"
       inkscape:connector-curvature="0" />
  </g>
</svg>
