<?xml version="1.0" encoding="UTF-8" standalone="no"?>
<svg
   xmlns:dc="http://purl.org/dc/elements/1.1/"
   xmlns:cc="http://creativecommons.org/ns#"
   xmlns:rdf="http://www.w3.org/1999/02/22-rdf-syntax-ns#"
   xmlns:svg="http://www.w3.org/2000/svg"
   xmlns="http://www.w3.org/2000/svg"
   xmlns:xlink="http://www.w3.org/1999/xlink"
   xmlns:sodipodi="http://sodipodi.sourceforge.net/DTD/sodipodi-0.dtd"
   xmlns:inkscape="http://www.inkscape.org/namespaces/inkscape"
   version="1.1"
   width="64"
   height="64"
   color-interpolation="linearRGB"
   id="svg2"
   inkscape:version="0.47 r22583"
   sodipodi:docname="emblem-urgent.svg">
  <metadata
     id="metadata61">
    <rdf:RDF>
      <cc:Work
         rdf:about="">
        <dc:format>image/svg+xml</dc:format>
        <dc:type
           rdf:resource="http://purl.org/dc/dcmitype/StillImage" />
        <dc:title></dc:title>
      </cc:Work>
    </rdf:RDF>
  </metadata>
  <defs
     id="defs59">
    <inkscape:perspective
       sodipodi:type="inkscape:persp3d"
       inkscape:vp_x="0 : 32 : 1"
       inkscape:vp_y="0 : 1000 : 0"
       inkscape:vp_z="64 : 32 : 1"
       inkscape:persp3d-origin="32 : 21.333333 : 1"
       id="perspective63" />
    <linearGradient
       y2="-25.25"
       x2="122.5"
       y1="-81.76"
       x1="66"
       gradientUnits="userSpaceOnUse"
       id="gradient0">
      <stop
         id="stop11"
         stop-color="#04a3a5"
         offset="0.25749999"
         style="stop-color:#ee5f5d;stop-opacity:1;" />
      <stop
         id="stop13"
         stop-color="#b3feff"
         offset="0.52270001"
         style="stop-color:#ff001f;stop-opacity:1;" />
      <stop
         id="stop15"
         stop-color="#026667"
         offset="0.88249999"
         style="stop-color:#920f67;stop-opacity:1;" />
      <stop
         id="stop17"
         stop-color="#037072"
         offset="1"
         style="stop-color:#450023;stop-opacity:1;" />
    </linearGradient>
    <linearGradient
       y2="-11.7"
       x2="115.02"
       y1="-54.65"
       x1="76.8"
       gradientUnits="userSpaceOnUse"
       id="gradient1">
      <stop
         id="stop22"
         stop-color="#40c5c7"
         offset="0.48859999"
         style="stop-color:#bb0e92;stop-opacity:1;" />
      <stop
         id="stop24"
         stop-color="#30a3a5"
         offset="0"
         style="stop-color:#c558a5;stop-opacity:1;" />
      <stop
         id="stop26"
         stop-color="#28a3a5"
         offset="1"
         style="stop-color:#7e50a5;stop-opacity:1;" />
    </linearGradient>
    <linearGradient
       y2="35.9"
       x2="44.02"
       y1="6.93"
       x1="15.05"
       gradientUnits="userSpaceOnUse"
       id="gradient2">
      <stop
         id="stop31"
         stop-color="#9beff0"
         offset="0"
         style="stop-color:#ff5ef0;stop-opacity:1;" />
      <stop
         id="stop33"
         stop-color="#ffffff"
         offset="0.25" />
      <stop
         id="stop35"
         stop-color="#04a8aa"
         offset="1"
         style="stop-color:#a5000b;stop-opacity:1;" />
    </linearGradient>
    <radialGradient
       gradientTransform="matrix(0.2968,0,0,0.3593,26,33)"
       r="64"
       cy="0"
       cx="0"
       gradientUnits="userSpaceOnUse"
       id="gradient3">
      <stop
         id="stop42"
         stop-color="#f8f8ff"
         offset="0" />
      <stop
         id="stop44"
         stop-color="#9898ff"
         offset="1" />
    </radialGradient>
    <linearGradient
       y2="-44.53"
       x2="79.77"
       y1="-48.18"
       x1="74.63"
       gradientUnits="userSpaceOnUse"
       id="gradient4">
      <stop
         id="stop51"
         stop-color="#dadada"
         offset="0" />
      <stop
         id="stop53"
         stop-color="#000000"
         offset="1" />
    </linearGradient>
    <linearGradient
       inkscape:collect="always"
       xlink:href="#gradient4"
       id="linearGradient2889"
       gradientUnits="userSpaceOnUse"
       x1="74.63"
       y1="-48.18"
       x2="79.77"
       y2="-44.53"
       gradientTransform="matrix(0.7484,0.4784,0.0261,0.8247,-0.7028,-10.2605)" />
    <radialGradient
       inkscape:collect="always"
       xlink:href="#gradient3"
       id="radialGradient2893"
       gradientUnits="userSpaceOnUse"
       gradientTransform="matrix(0.2968,0,0,0.3593,26,33)"
       cx="0"
       cy="0"
       r="64" />
    <linearGradient
       inkscape:collect="always"
       xlink:href="#gradient2"
       id="linearGradient2897"
       gradientUnits="userSpaceOnUse"
       x1="15.05"
       y1="6.93"
       x2="44.02"
       y2="35.9" />
    <linearGradient
       inkscape:collect="always"
       xlink:href="#gradient1"
       id="linearGradient2900"
       gradientUnits="userSpaceOnUse"
       x1="76.8"
       y1="-54.65"
       x2="115.02"
       y2="-11.7" />
    <linearGradient
       inkscape:collect="always"
       xlink:href="#gradient0"
       id="linearGradient2903"
       gradientUnits="userSpaceOnUse"
       x1="66"
       y1="-81.76"
       x2="122.5"
       y2="-25.25" />
  </defs>
  <sodipodi:namedview
     pagecolor="#ffffff"
     bordercolor="#666666"
     borderopacity="1"
     objecttolerance="10"
     gridtolerance="10"
     guidetolerance="10"
     inkscape:pageopacity="0"
     inkscape:pageshadow="2"
     inkscape:window-width="739"
     inkscape:window-height="501"
     id="namedview57"
     showgrid="false"
     inkscape:zoom="3.6875"
     inkscape:cx="32"
     inkscape:cy="32"
     inkscape:window-x="295"
     inkscape:window-y="411"
     inkscape:window-maximized="0"
     inkscape:current-layer="svg2" />
  <path
     id="path6"
     d="M 62,50 50,44 40,64 h 8 c 6,0 20,-11 14,-14 z"
     style="fill:#000000;fill-opacity:0.44309998" />
  <path
     id="path8"
     d="M 49.33,53.17 V 53.16 C 49.75,52.64 50,51.91 50,51 V 32 C 50,21.52 43.94,10.97 34.01,6 27.77,2.88 22,4 18.06,5.92 14,8 9.56,12.41 9.56,12.41 v 0.01 C 7.32,14.46 6,17.72 6.01,21.98 v 19 c 0,2.76 2.24,6.12 5.01,7.51 l 26,13.01 c 1.85,0.93 3.46,0.73 4.34,-0.34 v 0.01 l 7.97,-8 z"
     style="fill:none;stroke:#000000;stroke-width:4" />
  <path
     id="path19"
     d="M 49.33,53.17 V 53.16 C 49.75,52.64 50,51.91 50,51 V 32 C 50,21.52 43.94,10.97 34.01,6 27.77,2.88 22,4 18.06,5.92 14,8 9.56,12.41 9.56,12.41 v 0.01 l 31.8,48.74 v 0.01 l 7.97,-8 z"
     style="fill:url(#linearGradient2903)" />
  <path
     id="path28"
     d="M 24,12 C 14.06,7.01 6,11.48 6.01,21.98 v 19 c 0,2.76 2.24,6.12 5.01,7.51 l 26,13.01 c 2.75,1.38 5,0.27 5,-2.5 V 40 C 42,29.52 33.94,16.97 24.01,12 H 24 z"
     style="fill:url(#linearGradient2900)" />
  <path
     id="path37"
     d="m 24,12 h 0 C 33.31,16.66 40.97,27.97 41.92,38 41.9,27.52 35.93,14.97 26.01,10 H 26 C 19.28,6.63 13.43,7.59 10.34,11.78 13.64,9.38 18.53,9.26 24,12 h 0 z"
     style="fill:url(#linearGradient2897)" />
  <path
     id="path39"
     d="m 24,16 c 7.72,3.87 14,13.72 14,22 0,8.29 -6.27,11.86 -13.98,8 C 16.29,42.13 10,32.27 10,23.98 10,15.7 16.26,12.12 24,16 z"
     style="fill:#000000" />
  <path
     id="path46"
     d="m 24,18 c -6.64,-3.32 -12,-0.2 -11.99,6.98 0,7.18 5.37,15.7 12.01,19.02 6.62,3.31 12,0.18 12,-7 C 36,29.82 30.61,21.31 24,18 z"
     style="fill:url(#radialGradient2893)" />
  <path
     id="path48"
     d="m 16,28.98 c 0,-6.07 4.47,-8.75 10.01,-5.98 2.1,1.04 4.04,2.74 5.67,4.77 -1.86,-3.32 -4.61,-6.23 -7.67,-7.77 -5.53,-2.77 -10,-0.09 -9.99,5.98 0,3.77 1.71,7.95 4.35,11.24 -1.48,-2.64 -2.36,-5.54 -2.35,-8.24 H 16 z m 13,-2.03 c -1.41,-0.71 -2.55,-0.14 -2.55,1.27 0,1.41 1.15,3.12 2.57,3.82 1.42,0.71 2.54,0.14 2.54,-1.26 -0.01,-1.41 -1.14,-3.13 -2.54,-3.83 H 29 z"
     style="fill:#ffffff" />
  <path
     id="path55"
     d="m 20.9049,23.7522 2.4279,7.2081 7.3274,-0.1642 m -15.5598,-5.0982 1.4968,0.9568 m 14.968,9.568 1.4968,0.9568 m -8.7198,2.5062 0.0522,1.6494 m -0.6264,-19.7928 0.0522,1.6494"
     style="fill:none;stroke:url(#linearGradient2889);stroke-width:2.33291078;stroke-linecap:round;stroke-linejoin:round" />
</svg>
