<?xml version="1.0" encoding="UTF-8" standalone="no"?>
<!-- Created with Inkscape (http://www.inkscape.org/) -->

<svg
   xmlns:dc="http://purl.org/dc/elements/1.1/"
   xmlns:cc="http://creativecommons.org/ns#"
   xmlns:rdf="http://www.w3.org/1999/02/22-rdf-syntax-ns#"
   xmlns:svg="http://www.w3.org/2000/svg"
   xmlns="http://www.w3.org/2000/svg"
   xmlns:xlink="http://www.w3.org/1999/xlink"
   xmlns:sodipodi="http://sodipodi.sourceforge.net/DTD/sodipodi-0.dtd"
   xmlns:inkscape="http://www.inkscape.org/namespaces/inkscape"
   height="120.00000pt"
   id="svg1"
   inkscape:version="0.47 r22583"
   sodipodi:docname="cdrom.svg"
   sodipodi:version="0.32"
   width="120.00000pt"
   version="1.1">
  <metadata
     id="metadata3">
    <rdf:RDF>
      <cc:Work
         rdf:about="">
        <dc:title></dc:title>
        <dc:description />
        <dc:subject>
          <rdf:Bag>
            <rdf:li>unsorted</rdf:li>
          </rdf:Bag>
        </dc:subject>
        <dc:publisher>
          <cc:Agent
             rdf:about="http://www.openclipart.org">
            <dc:title>Nicu Buculei</dc:title>
          </cc:Agent>
        </dc:publisher>
        <dc:creator>
          <cc:Agent>
            <dc:title>Nicu Buculei</dc:title>
          </cc:Agent>
        </dc:creator>
        <dc:rights>
          <cc:Agent>
            <dc:title>Nicu Buculei</dc:title>
          </cc:Agent>
        </dc:rights>
        <dc:date />
        <dc:format>image/svg+xml</dc:format>
        <dc:type
           rdf:resource="http://purl.org/dc/dcmitype/StillImage" />
        <cc:license
           rdf:resource="http://web.resource.org/cc/PublicDomain" />
        <dc:language>en</dc:language>
      </cc:Work>
      <cc:License
         rdf:about="http://web.resource.org/cc/PublicDomain">
        <cc:permits
           rdf:resource="http://web.resource.org/cc/Reproduction" />
        <cc:permits
           rdf:resource="http://web.resource.org/cc/Distribution" />
        <cc:permits
           rdf:resource="http://web.resource.org/cc/DerivativeWorks" />
      </cc:License>
    </rdf:RDF>
  </metadata>
  <defs
     id="defs3">
    <inkscape:perspective
       sodipodi:type="inkscape:persp3d"
       inkscape:vp_x="0 : 75 : 1"
       inkscape:vp_y="0 : 1000 : 0"
       inkscape:vp_z="150 : 75 : 1"
       inkscape:persp3d-origin="75 : 50 : 1"
       id="perspective42" />
    <linearGradient
       id="linearGradient987">
      <stop
         id="stop988"
         offset="0.0000000"
         style="stop-color:#fffffd;stop-opacity:0.0000000;" />
      <stop
         id="stop989"
         offset="0.50000000"
         style="stop-color:#ffc6ff;stop-opacity:0.80000001;" />
      <stop
         id="stop990"
         offset="1.0000000"
         style="stop-color:#ffffff;stop-opacity:0.0000000;" />
    </linearGradient>
    <linearGradient
       id="linearGradient982">
      <stop
         id="stop983"
         offset="0.0000000"
         style="stop-color:#fffffd;stop-opacity:0.0000000;" />
      <stop
         id="stop985"
         offset="0.50000000"
         style="stop-color:#bddfdf;stop-opacity:1.0000000;" />
      <stop
         id="stop984"
         offset="1.0000000"
         style="stop-color:#ffffff;stop-opacity:0.0000000;" />
    </linearGradient>
    <linearGradient
       id="linearGradient974">
      <stop
         id="stop975"
         offset="0.0000000"
         style="stop-color:#e6e6e6;stop-opacity:1.0000000;" />
      <stop
         id="stop976"
         offset="1.0000000"
         style="stop-color:#d9d9d9;stop-opacity:1.0000000;" />
    </linearGradient>
    <linearGradient
       id="linearGradient968">
      <stop
         id="stop969"
         offset="0.0000000"
         style="stop-color:#bfbfbf;stop-opacity:1.0000000;" />
      <stop
         id="stop970"
         offset="1.0000000"
         style="stop-color:#cccccc;stop-opacity:1.0000000;" />
    </linearGradient>
    <linearGradient
       id="linearGradient954">
      <stop
         id="stop955"
         offset="0.0000000"
         style="stop-color:#577fe4;stop-opacity:1.0000000;" />
      <stop
         id="stop956"
         offset="1.0000000"
         style="stop-color:#666699;stop-opacity:1.0000000;" />
    </linearGradient>
    <linearGradient
       id="linearGradient946">
      <stop
         id="stop947"
         offset="0.0000000"
         style="stop-color:#007fff;stop-opacity:1.0000000;" />
      <stop
         id="stop948"
         offset="1.0000000"
         style="stop-color:#00b3ff;stop-opacity:1.0000000;" />
    </linearGradient>
    <linearGradient
       id="linearGradient949"
       x1="0.90625000"
       x2="0.10156250"
       xlink:href="#linearGradient968"
       y1="0.96093750"
       y2="1.7884999e-15" />
    <linearGradient
       id="linearGradient953"
       x1="0.77966094"
       x2="0.51694900"
       xlink:href="#linearGradient982"
       y1="0.39843741"
       y2="0.76562464" />
    <linearGradient
       id="linearGradient973"
       x1="0.90625000"
       x2="0.10156250"
       xlink:href="#linearGradient974"
       y1="0.90625000"
       y2="0.046875000" />
    <linearGradient
       id="linearGradient981"
       x1="0.66949153"
       x2="0.44915253"
       xlink:href="#linearGradient982"
       y1="0.36718750"
       y2="0.89843750" />
    <linearGradient
       id="linearGradient991"
       x1="0.55172414"
       x2="0.54310346"
       xlink:href="#linearGradient987"
       y1="0.32031250"
       y2="0.67187500" />
  </defs>
  <sodipodi:namedview
     bordercolor="#666666"
     borderopacity="1.0"
     id="base"
     inkscape:cx="14.257834"
     inkscape:cy="48.920502"
     inkscape:pageopacity="0.0"
     inkscape:pageshadow="2"
     inkscape:window-height="719"
     inkscape:window-width="848"
     inkscape:window-x="102"
     inkscape:window-y="32"
     inkscape:zoom="2.8284271"
     pagecolor="#ffffff"
     showgrid="false"
     showguides="true"
     snaptoguides="true"
     inkscape:window-maximized="0"
     inkscape:current-layer="svg1" />
  <g
     id="g950"
     transform="translate(-161.2500,-542.5000)">
    <g
       id="g994"
       transform="translate(-47.50000,-352.5000)">
      <path
         d="M 283.28125,909.96875 C 249.06174,909.96875 221.31251,937.77833 221.31250,972.03125 C 221.31250,1006.2841 249.06175,1034.0625 283.28125,1034.0625 C 317.50076,1034.0625 345.28124,1006.2842 345.28125,972.03125 C 345.28125,937.77831 317.50077,909.96878 283.28125,909.96875 z M 283.68750,952.37500 C 294.31164,952.37498 302.93750,960.99367 302.93750,971.62500 C 302.93749,982.25632 294.31164,990.90625 283.68750,990.90625 C 273.06336,990.90625 264.82772,981.89736 264.82772,971.26603 C 264.82771,960.63469 273.06336,952.37500 283.68750,952.37500 z "
         id="path972"
         sodipodi:nodetypes="cccccccccc"
         style="fill:url(#linearGradient973);fill-opacity:1;fill-rule:evenodd;stroke:#000000;stroke-width:0.62500000;stroke-dasharray:none;stroke-linejoin:round;" />
      <path
         d="M 283.03125 913.75000 C 250.97979 913.75000 224.96874 939.75946 224.96875 971.81250 C 224.96875 1003.8655 250.97977 1029.8750 283.03125 1029.8750 C 315.08271 1029.8750 341.09374 1003.8655 341.09375 971.81250 C 341.09375 939.75948 315.08270 913.74999 283.03125 913.75000 z M 283.71875 950.00000 C 295.73619 950.00001 305.50000 959.68927 305.50000 971.65625 C 305.50001 983.62324 295.73620 993.34375 283.71875 993.34375 C 271.70129 993.34375 261.93750 983.62323 261.93750 971.65625 C 261.93750 959.68927 271.70130 950.00000 283.71875 950.00000 z "
         id="path967"
         style="fill:url(#linearGradient949);fill-opacity:1.0000000;fill-rule:evenodd;stroke:#000000;stroke-width:1.0000000pt;stroke-opacity:0.50000000;" />
      <path
         d="M 283.81250 952.37500 C 273.37545 952.37500 264.87499 960.94859 264.87500 971.53125 C 264.87500 982.11388 273.37545 990.71876 283.81250 990.71875 C 294.24955 990.71875 302.71875 982.11385 302.71875 971.53125 C 302.71875 960.94862 294.24954 952.37499 283.81250 952.37500 z M 283.59375 965.87500 C 287.06489 965.87503 289.87500 968.58018 289.87500 971.93750 C 289.87499 975.29480 287.06488 978.03125 283.59375 978.03125 C 280.12263 978.03124 277.31250 975.29482 277.31250 971.93750 C 277.31250 968.58016 280.12262 965.87500 283.59375 965.87500 z "
         id="path979"
         style="fill:#e6e6e6;fill-opacity:0.20000000;fill-rule:evenodd;stroke:#000000;stroke-width:0.62500000;stroke-dasharray:none;stroke-linejoin:round;" />
      <path
         d="M 226.91120,960.23619 C 227.49434,951.48900 237.28202,932.74693 250.29416,924.83480 C 252.08075,927.56508 263.72220,948.48609 268.39166,955.21299 C 263.87657,959.31574 260.72788,966.77512 261.50255,970.48016 C 260.38199,970.24897 226.91120,960.23619 226.91120,960.23619 z "
         id="path980"
         sodipodi:nodetypes="ccccc"
         style="fill:url(#linearGradient981);fill-rule:evenodd;stroke:none;stroke-opacity:1;stroke-width:1pt;stroke-linejoin:miter;stroke-linecap:butt;fill-opacity:1.0000000;" />
      <path
         d="M 229.59577,992.26228 C 225.75753,984.38057 223.08874,963.25234 230.45295,949.92244 C 233.35963,951.40485 254.47290,963.57515 261.86671,967.09461 C 259.98552,972.89803 261.78209,980.31768 264.29460,983.14871 C 263.20720,983.50458 231.45133,991.43758 229.59577,992.26228 z "
         id="path986"
         sodipodi:nodetypes="ccccc"
         style="fill:url(#linearGradient991);fill-rule:evenodd;stroke:none;stroke-opacity:1;stroke-width:1pt;stroke-linejoin:miter;stroke-linecap:butt;fill-opacity:1.0000000;" />
      <path
         d="M 338.99875,984.24984 C 338.41561,992.99703 329.10159,1010.3181 316.08945,1018.2302 C 314.30286,1015.4999 303.37190,995.99994 298.70244,989.27304 C 303.21753,985.17029 306.36622,977.71091 305.59155,974.00587 C 306.71211,974.23706 338.99875,984.24984 338.99875,984.24984 z "
         id="path992"
         sodipodi:nodetypes="ccccc"
         style="fill:url(#linearGradient953);fill-rule:evenodd;stroke:none;stroke-opacity:1;stroke-width:1pt;stroke-linejoin:miter;stroke-linecap:butt;fill-opacity:1.0000000;" />
      <path
         d="M 336.55101,952.46058 C 340.38925,960.34229 342.58438,980.52320 335.22017,993.85310 C 332.31349,992.37069 312.62120,980.91088 305.22739,977.39142 C 307.10858,971.58800 305.31201,964.16835 302.79950,961.33732 C 303.88690,960.98145 334.69545,953.28528 336.55101,952.46058 z "
         id="path993"
         sodipodi:nodetypes="ccccc"
         style="fill:url(#linearGradient991);fill-rule:evenodd;stroke:none;stroke-opacity:1;stroke-width:1pt;stroke-linejoin:miter;stroke-linecap:butt;fill-opacity:1.0000000;" />
    </g>
    <path
       d="M 249.41745,658.47406 C 249.13122,658.71974 248.39465,659.21208 248.30277,659.50540 C 248.30862,659.60295 248.35402,659.67587 248.39942,659.74879 C 248.39942,659.74879 249.32261,661.23148 249.32261,661.23148 C 249.42855,661.40163 249.53449,661.57177 249.35764,661.81680 C 249.15637,662.11076 248.78517,662.30816 248.46867,662.50523 C 248.46867,662.50523 246.41138,663.78618 246.41138,663.78618 C 245.50143,664.35275 245.09888,664.94069 245.46210,665.52404 C 245.46210,665.52404 246.09774,666.54491 246.09774,666.54491 C 246.09774,666.54491 246.36432,666.88488 246.36432,666.88488 C 246.36432,666.88488 247.09076,668.05158 247.09076,668.05158 C 247.09076,668.05158 247.26307,668.41651 247.26307,668.41651 C 247.26307,668.41651 248.54948,670.48255 248.54948,670.48255 C 248.86729,670.99299 249.48649,671.28204 250.43600,670.69084 C 250.43600,670.69084 256.29134,667.04506 256.29134,667.04506 C 256.72654,666.77409 257.15589,666.40557 257.24193,666.01470 C 257.30938,665.77032 257.18246,665.47832 257.09165,665.33248 C 257.09165,665.33248 256.27441,664.01994 256.27441,664.01994 C 256.27441,664.01994 252.17305,657.43290 252.17305,657.43290 C 252.14278,657.38429 252.09738,657.31137 252.02755,657.28739 C 251.87276,657.21513 251.47128,657.36391 251.25833,657.46277 C 250.68347,657.68578 249.91664,658.12952 249.41745,658.47406 z M 256.33326,656.09058 C 256.33326,656.09058 255.58156,656.55862 255.58156,656.55862 C 255.62697,656.63154 255.65723,656.68014 255.60838,656.77803 C 255.47109,656.99842 254.87765,657.36793 254.61929,657.39387 C 254.32138,657.44445 254.15491,657.17708 254.04897,657.00693 C 253.97329,656.88540 253.86152,656.61770 253.97437,656.44624 C 254.06278,656.32374 254.18148,656.24983 254.30017,656.17593 C 254.65623,655.95423 254.95760,655.73285 255.20321,655.95096 C 255.20321,655.95096 255.95491,655.48292 255.95491,655.48292 C 255.89437,655.38569 255.84897,655.31278 255.74886,655.24018 C 255.31820,654.90120 254.65147,655.41752 254.09758,655.76240 C 253.78108,655.95946 253.37032,656.18149 253.16904,656.47546 C 252.98290,656.79374 253.10982,657.08574 253.23090,657.28019 C 253.39737,657.54756 253.72102,658.15555 254.15860,658.15293 C 254.52635,658.12634 255.02554,657.78179 255.38161,657.56009 C 255.57942,657.43693 255.77724,657.31376 255.95992,657.16627 C 256.15773,657.04310 256.30085,656.92027 256.41370,656.74881 C 256.53584,656.50412 256.43920,656.26072 256.33326,656.09058 z M 256.66919,654.16121 C 256.52607,654.28405 256.35852,654.45583 256.28523,654.60265 C 256.20265,654.82272 256.25389,654.99319 256.34470,655.13903 C 256.45648,655.40673 256.53799,655.62581 256.76846,655.81961 C 256.91395,655.96512 256.98033,656.15990 257.26895,656.18257 C 257.70653,656.17995 258.46753,655.63867 258.86316,655.39233 C 259.14010,655.21990 259.48103,654.97388 259.60318,654.72918 C 259.70090,654.53343 259.64966,654.36295 259.57398,654.24141 C 259.50760,654.04664 259.20492,653.56052 259.04429,653.39069 C 258.92905,653.29380 258.86851,653.19657 258.63459,653.17357 C 258.22144,653.12725 257.69783,653.52073 257.30219,653.76707 C 257.10438,653.89024 256.86700,654.03804 256.66919,654.16121 z M 259.28035,652.53539 C 259.28035,652.53539 260.44568,654.40699 260.44568,654.40699 C 260.44568,654.40699 261.15782,653.96358 261.15782,653.96358 C 261.15782,653.96358 260.37084,652.69964 260.37084,652.69964 C 260.37084,652.69964 261.55453,653.27809 261.55453,653.27809 C 261.86412,653.42262 261.86996,653.52018 262.18647,653.32310 C 262.18647,653.32310 262.38428,653.19994 262.38428,653.19994 C 262.70078,653.00287 262.64954,652.83239 262.62273,652.61298 C 262.62273,652.61298 262.57124,651.29585 262.57124,651.29585 C 262.57124,651.29585 262.89836,651.73304 262.89836,651.73304 C 262.89836,651.73304 263.41292,652.55946 263.41292,652.55946 C 263.41292,652.55946 264.12506,652.11605 264.12506,652.11605 C 264.12506,652.11605 262.95972,650.24446 262.95972,650.24446 C 262.95972,650.24446 262.16846,650.73713 262.16846,650.73713 C 261.81239,650.95884 261.92762,651.05573 261.91487,651.29978 C 261.91487,651.29978 261.91166,652.61723 261.91166,652.61723 C 261.91166,652.61723 261.15281,652.28022 261.15281,652.28022 C 261.15281,652.28022 260.34856,651.87028 260.34856,651.87028 C 260.34856,651.87028 259.28035,652.53539 259.28035,652.53539 z M 263.79055,649.72715 C 263.79055,649.72715 264.95588,651.59875 264.95588,651.59875 C 264.95588,651.59875 265.66801,651.15535 265.66801,651.15535 C 265.66801,651.15535 265.31993,650.59630 265.31993,650.59630 C 265.67600,650.37459 266.24502,650.05402 266.44628,649.76006 C 266.76040,649.29464 266.33665,648.61406 265.81995,648.66594 C 265.50690,648.69221 265.38820,648.76611 265.15083,648.91391 C 265.15083,648.91391 263.79055,649.72715 263.79055,649.72715 z M 267.17142,650.21926 C 267.32967,650.12073 267.81956,649.84943 267.85328,649.72725 C 268.01499,649.45792 267.59600,649.31404 268.11032,648.99380 C 268.11032,648.99380 268.90158,648.50112 268.90158,648.50112 C 268.94699,648.57404 269.26243,648.81613 269.41138,648.79084 C 269.52077,648.79019 270.01996,648.44564 270.13865,648.37174 C 270.13865,648.37174 268.58830,647.38074 268.58830,647.38074 C 268.58830,647.38074 268.03893,647.11566 268.03893,647.11566 C 268.03893,647.11566 267.74686,647.26379 267.74686,647.26379 C 267.74686,647.26379 267.23254,647.58403 267.23254,647.58403 C 267.23254,647.58403 266.97073,647.78077 266.97073,647.78077 C 266.97073,647.78077 266.95107,648.36641 266.95107,648.36641 C 266.95107,648.36641 267.17142,650.21926 267.17142,650.21926 z M 272.87065,645.79371 C 272.87065,645.79371 272.15851,646.23712 272.15851,646.23712 C 272.16435,646.33467 272.19462,646.38328 272.10620,646.50580 C 271.96891,646.72619 271.37547,647.09570 271.11712,647.12164 C 270.82850,647.09897 270.70159,646.80696 270.59565,646.63682 C 270.51998,646.51529 270.41404,646.34514 270.52689,646.17369 C 270.60017,646.02688 270.71886,645.95297 270.87712,645.85444 C 271.23319,645.63273 271.49499,645.43599 271.78016,645.62946 C 271.78016,645.62946 272.49230,645.18606 272.49230,645.18606 C 272.38636,645.01591 272.26528,644.82146 271.97665,644.79879 C 271.71831,644.82473 271.42623,644.97286 271.18886,645.12066 C 271.18886,645.12066 270.31846,645.66260 270.31846,645.66260 C 269.88327,645.93357 269.57260,646.22820 269.63553,646.59377 C 269.65650,646.71564 269.70190,646.78855 269.76244,646.88578 C 269.95918,647.20176 270.21884,647.88332 270.79024,647.83111 C 270.99390,647.80549 271.32555,647.63273 271.52336,647.50957 C 271.83987,647.31249 272.31462,647.01689 272.57643,646.82014 C 272.75911,646.67267 272.90223,646.54983 273.01508,646.37838 C 273.12208,646.10937 272.97659,645.96386 272.87065,645.79371 z M 272.45487,644.33238 C 272.45487,644.33238 272.68189,644.69698 272.68189,644.69698 C 272.68189,644.69698 273.39402,644.25357 273.39402,644.25357 C 273.39402,644.25357 274.33234,645.76058 274.33234,645.76058 C 274.33234,645.76058 275.04448,645.31717 275.04448,645.31717 C 275.04448,645.31717 274.10616,643.81017 274.10616,643.81017 C 274.10616,643.81017 274.85785,643.34213 274.85785,643.34213 C 274.85785,643.34213 274.63084,642.97754 274.63084,642.97754 C 274.63084,642.97754 272.45487,644.33238 272.45487,644.33238 z M 249.81785,658.76443 C 250.15879,658.51842 250.56955,658.29639 250.97102,658.14761 C 251.10485,658.09801 251.33294,658.02345 251.45746,658.04711 C 251.52729,658.07109 251.58782,658.16831 251.61809,658.21693 C 251.61809,658.21693 252.52615,659.67531 252.52615,659.67531 C 252.52615,659.67531 256.26429,665.67899 256.26429,665.67899 C 256.37023,665.84914 256.48201,666.11683 256.30517,666.36186 C 256.19231,666.53332 255.95493,666.68112 255.75712,666.80428 C 255.75712,666.80428 250.61391,670.00666 250.61391,670.00666 C 250.49522,670.08056 250.37654,670.15446 250.24271,670.20406 C 249.74697,670.37780 249.31286,670.20962 249.14638,669.94224 C 249.14638,669.94224 246.22548,665.25111 246.22548,665.25111 C 245.96820,664.83790 246.32772,664.44540 246.92117,664.07589 C 246.92117,664.07589 249.49278,662.47470 249.49278,662.47470 C 249.92797,662.20373 250.28749,661.81124 250.27928,661.44533 C 250.27343,661.34778 250.22803,661.27486 250.18263,661.20194 C 250.18263,661.20194 249.22917,659.67064 249.22917,659.67064 C 249.19890,659.62202 249.13837,659.52480 249.14766,659.45155 C 249.20581,659.28043 249.63517,658.91190 249.81785,658.76443 z M 267.73649,647.77618 C 267.73649,647.77618 268.60128,648.28335 268.60128,648.28335 C 268.60128,648.28335 267.81003,648.77602 267.81003,648.77602 C 267.75878,648.60555 267.67834,647.94732 267.73649,647.77618 z M 257.22784,654.35304 C 257.42566,654.22987 258.00396,653.83606 258.18319,653.85939 C 258.29258,653.85873 258.37755,653.90702 258.46251,653.95531 C 258.60802,654.10082 258.89557,654.56264 258.77342,654.80734 C 258.66057,654.97879 258.42320,655.12659 258.22538,655.24976 C 258.14625,655.29903 258.02757,655.37293 257.93331,655.39789 C 257.79948,655.44748 257.70522,655.47245 257.58069,655.44879 C 257.44103,655.40083 257.23844,654.98730 257.16277,654.86577 C 257.07196,654.71993 256.99630,654.59840 257.22784,654.35304 z M 265.08708,650.13415 C 265.04168,650.06123 264.82050,649.79418 264.90892,649.67167 C 264.93334,649.62273 265.01248,649.57346 265.05204,649.54883 C 265.17073,649.47492 265.36854,649.35176 265.51750,649.32647 C 265.72116,649.30086 265.84223,649.49531 265.76895,649.64212 C 265.69566,649.78895 265.24533,650.03561 265.08708,650.13415 z M 255.67844,657.94866 C 255.35265,658.21897 255.03614,658.41605 254.72548,658.71067 C 254.58235,658.83351 254.41481,659.00529 254.39622,659.15178 C 254.40206,659.24934 254.44746,659.32226 254.49287,659.39518 C 254.49287,659.39518 258.21587,665.37455 258.21587,665.37455 C 258.26128,665.44747 258.30668,665.52039 258.41607,665.51974 C 258.54060,665.54339 258.80825,665.44420 258.92694,665.37030 C 259.23415,665.24647 259.97655,664.85169 260.29306,664.65461 C 260.64912,664.43291 261.30656,663.98984 261.59280,663.74415 C 261.73592,663.62131 261.95816,663.44920 261.99188,663.32701 C 262.02561,663.20483 261.98021,663.13191 261.93481,663.05899 C 261.93481,663.05899 258.25720,657.15253 258.25720,657.15253 C 258.19666,657.05530 258.13029,656.86052 258.00576,656.83687 C 257.86610,656.78891 257.55889,656.91274 257.38550,656.98696 C 256.94446,657.16038 256.09850,657.65338 255.67844,657.94866 z M 260.41673,655.06587 C 260.05137,655.36082 259.65573,655.60716 259.46030,655.99868 C 259.27071,656.48775 259.56755,656.87633 259.76429,657.19231 C 259.76429,657.19231 261.08097,659.30697 261.08097,659.30697 C 261.08097,659.30697 261.19275,659.57467 261.19275,659.57467 C 261.37436,659.86634 261.78406,660.08346 262.31935,659.88508 C 262.45318,659.83549 262.57186,659.76160 262.69055,659.68769 C 262.69055,659.68769 266.21167,657.49530 266.21167,657.49530 C 266.33036,657.42140 266.48861,657.32286 266.63757,657.29757 C 266.93549,657.24700 267.07753,657.56331 266.94025,657.78370 C 266.85183,657.90621 266.69357,658.00474 266.57488,658.07865 C 266.57488,658.07865 262.77682,660.44347 262.77682,660.44347 C 262.65814,660.51737 262.49988,660.61591 262.39633,660.71412 C 261.98795,661.20450 262.24177,661.78851 262.43852,662.10449 C 262.58986,662.34756 262.96583,662.68687 263.39757,662.58670 C 263.58609,662.53677 263.78391,662.41360 263.94216,662.31507 C 263.94216,662.31507 269.87663,658.62002 269.87663,658.62002 C 270.07444,658.49685 270.27226,658.37368 270.42467,658.17760 C 270.88776,657.68689 270.77943,657.24840 270.60711,656.88347 C 270.56171,656.81055 270.57100,656.73731 270.52560,656.66439 C 270.52560,656.66439 270.13796,656.12997 270.13796,656.12997 C 270.13796,656.12997 269.98077,655.78936 269.98077,655.78936 C 269.98077,655.78936 269.01218,654.23374 269.01218,654.23374 C 268.93651,654.11222 268.89111,654.03930 268.73631,653.96703 C 268.22652,653.67731 267.36543,654.14601 266.73242,654.54015 C 266.73242,654.54015 266.04471,654.93461 266.04471,654.93461 C 266.04471,654.93461 263.86874,656.28946 263.86874,656.28946 C 263.75004,656.36336 263.63136,656.43726 263.52197,656.43792 C 263.26361,656.46387 263.06687,656.14788 263.20415,655.92749 C 263.29256,655.80497 263.41126,655.73107 263.52994,655.65717 C 263.52994,655.65717 267.16976,653.39087 267.16976,653.39087 C 267.24887,653.34161 267.36757,653.26771 267.43156,653.19414 C 267.55025,653.12023 267.62353,652.97342 267.67239,652.87553 C 267.87712,652.41076 267.71994,652.07015 267.52320,651.75417 C 267.34159,651.46249 266.90162,651.19675 266.36633,651.39513 C 266.23250,651.44473 266.11381,651.51863 265.99513,651.59253 C 265.99513,651.59253 262.35532,653.85882 262.35532,653.85882 C 262.35532,653.85882 260.41673,655.06587 260.41673,655.06587 z M 269.23931,649.57257 C 268.91351,649.84289 268.64240,650.11287 268.47140,650.45545 C 268.29110,650.87128 268.48200,651.08971 268.64848,651.35708 C 268.64848,651.35708 269.29925,652.40226 269.29925,652.40226 C 269.29925,652.40226 269.48670,652.79148 269.48670,652.79148 C 269.48670,652.79148 271.59035,656.17007 271.59035,656.17007 C 271.93844,656.72912 272.63091,656.87137 273.58043,656.28016 C 273.58043,656.28016 278.76320,653.05315 278.76320,653.05315 C 279.04014,652.88071 279.30779,652.78153 279.53933,652.53617 C 279.95354,652.14334 279.83009,651.68054 279.64848,651.38886 C 279.64848,651.38886 279.27596,650.87876 279.27596,650.87876 C 279.27596,650.87876 278.54952,649.71205 278.54952,649.71205 C 278.35278,649.39607 278.12470,649.47061 277.60454,649.69331 C 277.04481,649.94063 276.15929,650.45825 275.67524,650.82710 C 275.30987,651.12206 274.99921,651.41667 275.18082,651.70835 C 275.18082,651.70835 275.69539,652.53477 275.69539,652.53477 C 275.74079,652.60769 275.78619,652.68060 275.75246,652.80279 C 275.70360,652.90068 275.48136,653.07278 275.36267,653.14668 C 275.20441,653.24522 274.96704,653.39302 274.80295,653.39400 C 274.67842,653.37034 274.64815,653.32174 274.60275,653.24882 C 274.60275,653.24882 274.30007,652.76269 274.30007,652.76269 C 274.30007,652.76269 272.81692,650.38066 272.81692,650.38066 C 272.81692,650.38066 272.55034,650.04070 272.55034,650.04070 C 272.48980,649.94348 272.37457,649.84657 272.44786,649.69976 C 272.59443,649.40612 273.13318,649.03693 273.43693,649.08392 C 273.56146,649.10756 273.60687,649.18048 273.65227,649.25340 C 273.65227,649.25340 274.30304,650.29858 274.30304,650.29858 C 274.33331,650.34719 274.36358,650.39580 274.43341,650.41979 C 274.66733,650.44278 275.35503,650.04832 275.59241,649.90052 C 275.59241,649.90052 276.00318,649.67849 276.00318,649.67849 C 276.35925,649.45678 276.89799,649.08760 277.22380,648.81729 C 277.36692,648.69445 277.57402,648.49804 277.60775,648.37585 C 277.64147,648.25366 277.59607,648.18074 277.55066,648.10782 C 277.55066,648.10782 276.46100,646.35776 276.46100,646.35776 C 276.27940,646.06609 275.98839,645.77506 275.40769,645.90052 C 274.78743,646.05061 273.94731,646.64117 273.35387,647.01067 C 273.35387,647.01067 270.70313,648.66113 270.70313,648.66113 C 270.70313,648.66113 269.23931,649.57257 269.23931,649.57257 z M 256.13354,658.23870 C 256.45004,658.04163 257.24131,657.54896 257.52064,657.64488 C 257.59046,657.66886 257.65100,657.76608 257.68127,657.81470 C 257.68127,657.81470 260.64757,662.57876 260.64757,662.57876 C 260.64757,662.57876 260.78962,662.89506 260.78962,662.89506 C 260.78962,662.89506 260.98636,663.21105 260.98636,663.21105 C 261.01663,663.25966 261.06203,663.33257 261.03761,663.38152 C 260.97945,663.55264 260.46513,663.87288 260.30688,663.97142 C 259.99038,664.16848 259.64944,664.41449 259.31781,664.58725 C 259.18398,664.63685 259.01059,664.71108 258.94076,664.68710 C 258.83136,664.68775 258.78596,664.61483 258.74056,664.54191 C 258.74056,664.54191 256.09208,660.28830 256.09208,660.28830 C 256.09208,660.28830 255.51698,659.36465 255.51698,659.36465 C 255.45644,659.26743 255.29581,659.09760 255.36909,658.95078 C 255.41211,658.75535 255.91130,658.41081 256.13354,658.23870 z M 274.20459,647.05438 C 274.56066,646.83267 275.10526,646.56105 275.42415,646.63233 C 275.67320,646.67964 275.78498,646.94734 275.89092,647.11748 C 275.89092,647.11748 276.63249,648.30849 276.63249,648.30849 C 276.67789,648.38141 276.72330,648.45433 276.67444,648.55222 C 276.66515,648.62545 276.48246,648.77293 276.36377,648.84683 C 276.10197,649.04357 275.60278,649.38812 275.33513,649.48731 C 275.25600,649.53657 275.04306,649.63543 274.98836,649.63577 C 274.87896,649.63642 274.81843,649.53919 274.78816,649.49058 C 274.78816,649.49058 274.13739,648.44541 274.13739,648.44541 C 274.09199,648.37249 274.03145,648.27526 273.90692,648.25161 C 273.79753,648.25226 273.62414,648.32649 273.49032,648.37609 C 273.10398,648.54918 272.82704,648.72161 272.47097,648.94331 C 272.15447,649.14038 271.53659,649.55882 271.49941,649.85181 C 271.49011,649.92506 271.53551,649.99798 271.58092,650.07090 C 271.58092,650.07090 273.41216,653.01198 273.41216,653.01198 C 273.41216,653.01198 273.70900,653.40054 273.70900,653.40054 C 273.70900,653.40054 274.08736,654.00821 274.08736,654.00821 C 274.13276,654.08113 274.15373,654.20299 274.27826,654.22664 C 274.49705,654.22533 274.86825,654.02793 275.12077,653.90444 C 275.53153,653.68241 275.98186,653.43574 276.33208,653.11649 C 276.49034,653.01795 276.65789,652.84617 276.69161,652.72399 C 276.72533,652.60180 276.66480,652.50458 276.61939,652.43166 C 276.61939,652.43166 276.07457,651.55663 276.07457,651.55663 C 276.04430,651.50801 275.99889,651.43509 276.00819,651.36184 C 275.99652,651.16674 276.41657,650.87146 276.65395,650.72366 C 276.93089,650.55122 277.52434,650.18172 277.78853,650.25333 C 277.85836,650.27731 277.90376,650.35023 277.93403,650.39885 C 277.93403,650.39885 278.76641,651.73569 278.76641,651.73569 C 278.85721,651.88153 278.98413,652.17353 278.80729,652.41857 C 278.70373,652.51677 278.54548,652.61531 278.42679,652.68921 C 278.42679,652.68921 273.52096,655.74378 273.52096,655.74378 C 273.40227,655.81768 273.28359,655.89158 273.14976,655.94118 C 272.53534,656.18882 272.31762,655.75098 272.15114,655.48361 C 272.15114,655.48361 271.89386,655.07040 271.89386,655.07040 C 271.89386,655.07040 269.36645,651.01123 269.36645,651.01123 C 269.30592,650.91400 269.27565,650.86539 269.25468,650.74353 C 269.14980,650.13423 269.86779,649.78838 270.50079,649.39424 C 270.50079,649.39424 272.83502,647.94085 272.83502,647.94085 C 272.83502,647.94085 274.20459,647.05438 274.20459,647.05438 z M 260.64957,655.52802 C 260.64957,655.52802 262.50904,654.37024 262.50904,654.37024 C 262.50904,654.37024 265.99060,652.20248 265.99060,652.20248 C 266.10929,652.12857 266.22797,652.05468 266.32225,652.02972 C 266.88780,651.87995 267.13233,652.53720 266.88221,652.92905 C 266.79378,653.05157 266.67509,653.12547 266.55641,653.19937 C 266.55641,653.19937 262.79791,655.53956 262.79791,655.53956 C 262.67922,655.61346 262.56053,655.68737 262.45697,655.78557 C 262.17657,656.12881 262.30933,656.51837 262.44554,656.73713 C 262.58174,656.95588 262.88788,657.27122 263.31962,657.17104 C 263.45344,657.12144 263.57214,657.04754 263.69082,656.97364 C 263.69082,656.97364 267.05368,654.87978 267.05368,654.87978 C 267.64713,654.51028 268.07304,654.31255 268.34545,654.75007 C 268.34545,654.75007 269.81347,657.10779 269.81347,657.10779 C 269.93454,657.30224 270.06145,657.59425 269.86018,657.88822 C 269.70777,658.08430 269.40639,658.30568 269.16902,658.45348 C 269.16902,658.45348 264.06537,661.63122 264.06537,661.63122 C 263.98626,661.68048 263.86756,661.75439 263.77330,661.77935 C 263.50566,661.87854 263.27518,661.68474 263.18437,661.53890 C 263.07843,661.36876 262.97596,661.02781 263.22263,660.80677 C 263.28662,660.73319 263.40531,660.65929 263.48444,660.61002 C 263.48444,660.61002 267.16381,658.31909 267.16381,658.31909 C 267.28250,658.24520 267.36162,658.19593 267.46518,658.09772 C 268.16564,657.45921 267.86056,656.70472 267.14367,656.61143 C 266.60599,656.54146 266.20106,656.86104 265.64718,657.20591 C 265.64718,657.20591 264.98973,657.64899 264.98973,657.64899 C 264.98973,657.64899 262.93246,658.92993 262.93246,658.92993 C 262.33901,659.29944 262.12022,659.30075 261.89321,658.93615 C 261.89321,658.93615 261.61150,658.57189 261.61150,658.57189 C 261.61150,658.57189 260.97586,657.55102 260.97586,657.55102 C 260.97586,657.55102 260.75815,657.11317 260.75815,657.11317 C 260.75815,657.11317 260.31925,656.40828 260.31925,656.40828 C 260.13765,656.11661 260.22022,655.89654 260.64957,655.52802 z M 249.39637,663.37798 C 249.22883,663.54975 248.94260,663.79543 248.88444,663.96656 C 248.81115,664.11338 248.87168,664.21061 248.93222,664.30783 C 248.93222,664.30783 249.34084,664.96411 249.34084,664.96411 C 249.34084,664.96411 251.32342,668.14825 251.32342,668.14825 C 251.35369,668.19686 251.41423,668.29408 251.48406,668.31806 C 251.67842,668.36569 252.26257,668.06944 252.49995,667.92163 C 252.49995,667.92163 252.93515,667.65066 252.93515,667.65066 C 253.17252,667.50286 253.63215,667.18296 253.69960,666.93858 C 253.72402,666.88964 253.66348,666.79241 253.63322,666.74380 C 253.63322,666.74380 251.22688,662.87908 251.22688,662.87908 C 251.16635,662.78186 251.12094,662.70894 250.99641,662.68528 C 250.64726,662.56538 249.77687,663.10732 249.39637,663.37798 z M 249.79093,663.57078 C 249.98875,663.44761 250.29012,663.22624 250.48449,663.27387 C 250.60901,663.29753 250.63928,663.34614 250.68468,663.41906 C 250.68468,663.41906 251.03277,663.97811 251.03277,663.97811 C 251.03277,663.97811 252.75806,666.74903 252.75806,666.74903 C 252.89427,666.96779 252.86055,667.08998 252.46491,667.33632 C 252.30666,667.43485 252.06929,667.58266 251.94476,667.55900 C 251.82023,667.53535 251.78996,667.48673 251.74455,667.41381 C 251.74455,667.41381 251.47214,666.97630 251.47214,666.97630 C 251.47214,666.97630 251.00298,666.22280 251.00298,666.22280 C 251.00298,666.22280 250.80040,665.80927 250.80040,665.80927 C 250.80040,665.80927 250.08909,664.66687 250.08909,664.66687 C 250.08909,664.66687 249.75614,664.13212 249.75614,664.13212 C 249.71073,664.05920 249.61993,663.91337 249.62923,663.84012 C 249.62338,663.74257 249.68738,663.66899 249.79093,663.57078 z "
       id="path949"
       style="fill:#000000;stroke:#000000;stroke-width:0.036530089;fill-opacity:1.0000000;"
       stroke-width="1"
       stroke="black"
       fill="none" />
  </g>
</svg>
