<?xml version="1.0" encoding="UTF-8" standalone="no"?>
<!DOCTYPE svg PUBLIC "-//W3C//DTD SVG 20010904//EN"
"http://www.w3.org/TR/2001/REC-SVG-20010904/DTD/svg10.dtd"
[
 <!ATTLIST svg
  xmlns:xlink CDATA #FIXED "http://www.w3.org/1999/xlink">
]>
<!-- Created with Sodipodi ("http://www.sodipodi.com/") -->
<svg
   xmlns="http://www.w3.org/2000/svg"
   xmlns:xlink="http://www.w3.org/1999/xlink"
   version="1"
   x="0.00000000"
   y="0.00000000"
   width="60.0000000"
   height="60.0000000"
   viewBox="-0.338 -0.086 123 124"
   id="svg548">
  <defs
     id="defs605" />
  <g
     style="font-size:12;"
     id="Layer_1_2_">
    <path
       d="M 23.838 4.271 L 23.838 86.772 L 101.225 124.288 L 101.225 37.513 L 23.838 0 L 23.838 4.271 z "
       id="path550" />
    <linearGradient
       x1="111.585899"
       y1="67.5098038"
       x2="2.38360000"
       y2="55.2191010"
       id="XMLID_1_"
       gradientUnits="userSpaceOnUse"
       spreadMethod="pad">
      <stop
         style="stop-color:#e6e6e6;stop-opacity:1;"
         offset="0.00000000"
         id="stop552" />
      <stop
         style="stop-color:#cccccc;stop-opacity:1;"
         offset="1.00000000"
         id="stop553" />
      
      
      
    </linearGradient>
    <path
       d="M 97.983 119.642 L 26.52 85.093 L 26.52 4.271 L 97.984 38.821 L 97.984 119.642 L 97.983 119.642 z "
       style="fill:url(#XMLID_1_);"
       id="path557" />
    <path
       d="M 95.049 37.477 L 95.063 118.121 L 97.994 119.665 L 97.975 39.022 L 95.049 37.477 z "
       style="fill:#9c9c9c;"
       id="path558" />
    <path
       d="M 26.523 7.531 L 94.986 40.629 L 97.974 38.821 L 26.511 4.273 L 26.523 7.531 z "
       style="fill:#ffffff;"
       id="path559" />
    <path
       d="M 26.52 4.271 L 26.568 83.65 L 29.498 85.196 L 29.445 5.817 L 26.52 4.271 z "
       style="fill:#ffffff;"
       id="path560" />
    <path
       d="M 29.458 28.051 L 97.989 61.182 L 97.974 57.922 L 26.511 23.374 L 29.458 28.051 z "
       style="fill:#9c9c9c;"
       id="path561" />
    <path
       d="M 26.523 85.094 L 97.989 119.642 L 97.974 116.384 L 26.51 81.834 L 26.523 85.094 z "
       style="fill:#9c9c9c;"
       id="path562" />
    <g
       id="g563">
      <path
         d="M 35.433 43.166 L 35.433 46.417 L 70.181 63.216 L 70.181 59.963 L 35.433 43.166 z "
         style="fill:#262626;"
         id="path564" />
      <path
         d="M 88.534 72.079 L 88.519 68.819 L 83.064 66.181 L 83.064 69.432 L 88.534 72.079 z "
         style="fill:#262626;"
         id="path565" />
    </g>
    <g
       id="g566">
      <path
         d="M 35.433 53.696 L 35.433 56.947 L 70.181 73.746 L 70.181 70.493 L 35.433 53.696 z "
         style="fill:#262626;"
         id="path567" />
      <path
         d="M 88.534 82.609 L 88.519 79.349 L 83.064 76.711 L 83.064 79.962 L 88.534 82.609 z "
         style="fill:#262626;"
         id="path568" />
    </g>
    <g
       id="g569">
      <path
         d="M 35.433 64.226 L 35.433 67.478 L 70.181 84.275 L 70.181 81.024 L 35.433 64.226 z "
         style="fill:#262626;"
         id="path570" />
      <path
         d="M 88.534 93.137 L 88.52 89.88 L 83.065 87.242 L 83.065 90.493 L 88.534 93.137 z "
         style="fill:#262626;"
         id="path571" />
    </g>
    <g
       id="g572">
      <path
         d="M 35.433 74.756 L 35.433 78.008 L 70.181 94.805 L 70.181 91.553 L 35.433 74.756 z "
         style="fill:#262626;"
         id="path573" />
      <path
         d="M 88.534 103.667 L 88.519 100.409 L 83.064 97.771 L 83.064 101.023 L 88.534 103.667 z "
         style="fill:#262626;"
         id="path574" />
    </g>
    <path
       d="M 50.414 46.277 L 40.203 47.61 C 40.203 47.61 27.483 73.832 22.936 83.212 C 20.68 79.362 17.037 73.153 17.037 73.153 L 3.568 74.913 L 0 90.328 L 17.55 120.241 L 20.418 119.834 L 30.57 118.684 L 60.904 55.746 L 59.174 53.76 L 52.582 45.994 L 50.414 46.277 z "
       id="path575" />
    <path
       d="M 61.58 110.686 L 17.55 110.686 L 17.55 120.242 L 66.94 121.978 L 61.58 110.686 z "
       style="opacity:0.2;"
       id="path576" />
    <path
       d="M 122.207 117.566 L 100.657 104.43 L 100.662 123.913 L 122.667 123.932 L 122.207 117.566 z "
       style="opacity:0.2;"
       id="path577" />
    <path
       d="M 19.965 115.84 L 48.045 57.43 L 56.15 56.355 L 27.913 114.94 L 19.965 115.84 z "
       style="fill:#890101;"
       id="path578" />
    <linearGradient
       x1="44.6133003"
       y1="61.3700981"
       x2="50.4211006"
       y2="52.4371986"
       id="XMLID_2_"
       gradientUnits="userSpaceOnUse"
       spreadMethod="pad">
      <stop
         style="stop-color:#e6e6e6;stop-opacity:1;"
         offset="0.00000000"
         id="stop580" />
      <stop
         style="stop-color:#ecc8c8;stop-opacity:1;"
         offset="0.26730001"
         id="stop581" />
      <stop
         style="stop-color:#fb7b7a;stop-opacity:1;"
         offset="0.84759998"
         id="stop582" />
      <stop
         style="stop-color:#ff6665;stop-opacity:1;"
         offset="1.00000000"
         id="stop583" />
      
      
      
    </linearGradient>
    <path
       d="M 48.072 57.438 L 42.872 51.315 L 50.934 50.263 L 56.134 56.386 L 48.072 57.438 z "
       style="fill:url(#XMLID_2_);"
       id="path587" />
    <g
       id="g588">
      <linearGradient
         x1="8.11130047"
         y1="105.719704"
         x2="18.7686005"
         y2="84.8666992"
         id="XMLID_3_"
         gradientUnits="userSpaceOnUse"
         spreadMethod="pad">
        <stop
           style="stop-color:#e6e6e6;stop-opacity:1;"
           offset="0.00000000"
           id="stop590" />
        <stop
           style="stop-color:#ecc8c8;stop-opacity:1;"
           offset="0.26730001"
           id="stop591" />
        <stop
           style="stop-color:#fb7b7a;stop-opacity:1;"
           offset="0.84759998"
           id="stop592" />
        <stop
           style="stop-color:#ff6665;stop-opacity:1;"
           offset="1.00000000"
           id="stop593" />
        
        
        
      </linearGradient>
      <path
         d="M 19.343 99.817 L 6.421 78.232 L 15.758 77.162 L 27.404 98.766 L 19.343 99.817 z "
         style="fill:url(#XMLID_3_);"
         id="path597" />
    </g>
    <g
       id="g598">
      <path
         d="M 48.072 57.438 L 19.693 115.953 L 3.433 89.556 L 6.417 78.242 L 19.343 99.837 L 42.872 51.316 L 48.072 57.438 z "
         style="fill:#dd0000;"
         id="path599" />
    </g>
    <path
       d="M 26.523 29.842 L 94.963 62.928 L 97.974 61.131 L 26.511 26.582 L 26.523 29.842 z "
       style="fill:#ffffff;"
       id="path600" />
    <g
       id="g601">
      <path
         d="M 35.433 18.255 L 35.433 21.507 L 70.181 38.306 L 70.181 35.052 L 35.433 18.255 z "
         style="fill:#262626;"
         id="path602" />
      <path
         d="M 88.534 47.168 L 88.519 43.908 L 83.064 41.27 L 83.064 44.522 L 88.534 47.168 z "
         style="fill:#262626;"
         id="path603" />
    </g>
  </g>
</svg>
