<?xml version="1.0" encoding="UTF-8" standalone="no"?>
<svg
   xmlns:dc="http://purl.org/dc/elements/1.1/"
   xmlns:cc="http://creativecommons.org/ns#"
   xmlns:rdf="http://www.w3.org/1999/02/22-rdf-syntax-ns#"
   xmlns:svg="http://www.w3.org/2000/svg"
   xmlns="http://www.w3.org/2000/svg"
   xmlns:xlink="http://www.w3.org/1999/xlink"
   xmlns:sodipodi="http://sodipodi.sourceforge.net/DTD/sodipodi-0.dtd"
   xmlns:inkscape="http://www.inkscape.org/namespaces/inkscape"
   version="1.1"
   width="64"
   height="64"
   color-interpolation="linearRGB"
   id="svg2"
   sodipodi:version="0.32"
   inkscape:version="0.46"
   sodipodi:docname="cd"
   inkscape:output_extension="org.inkscape.output.svg.inkscape">
  <metadata
     id="metadata35">
    <rdf:RDF>
      <cc:Work
         rdf:about="">
        <dc:format>image/svg+xml</dc:format>
        <dc:type
           rdf:resource="http://purl.org/dc/dcmitype/StillImage" />
      </cc:Work>
    </rdf:RDF>
  </metadata>
  <defs
     id="defs33">
    <inkscape:perspective
       sodipodi:type="inkscape:persp3d"
       inkscape:vp_x="0 : 32 : 1"
       inkscape:vp_y="0 : 1000 : 0"
       inkscape:vp_z="64 : 32 : 1"
       inkscape:persp3d-origin="32 : 21.333333 : 1"
       id="perspective37" />
    <inkscape:perspective
       id="perspective2475"
       inkscape:persp3d-origin="32 : 21.333333 : 1"
       inkscape:vp_z="64 : 32 : 1"
       inkscape:vp_y="0 : 1000 : 0"
       inkscape:vp_x="0 : 32 : 1"
       sodipodi:type="inkscape:persp3d" />
    <linearGradient
       inkscape:collect="always"
       xlink:href="#gradient0"
       id="linearGradient2512"
       gradientUnits="userSpaceOnUse"
       x1="4.64"
       y1="67.69"
       x2="-3.64"
       y2="3.2" />
    <linearGradient
       inkscape:collect="always"
       xlink:href="#gradient1"
       id="linearGradient2514"
       gradientUnits="userSpaceOnUse"
       x1="6.84"
       y1="-3.55"
       x2="48.02"
       y2="6.68" />
  </defs>
  <sodipodi:namedview
     inkscape:window-height="772"
     inkscape:window-width="1270"
     inkscape:pageshadow="2"
     inkscape:pageopacity="0.0"
     guidetolerance="10.0"
     gridtolerance="10.0"
     objecttolerance="10.0"
     borderopacity="1.0"
     bordercolor="#666666"
     pagecolor="#ffffff"
     id="base"
     showgrid="false"
     inkscape:zoom="7.25"
     inkscape:cx="32"
     inkscape:cy="32"
     inkscape:window-x="0"
     inkscape:window-y="0"
     inkscape:current-layer="svg2" />
  <g
     id="g4">
    <path
       style="fill:#010101; fill-opacity:0.4941"
       d="M32 10C48 12 60 20 60 32C60 44 48 52 32 54C52 54 64 44 64 32C64 20 52 10 32 10z"
       id="path6" />
    <path
       style="fill:none; stroke:#000000; stroke-width:4"
       d="M31 12C16 12 2 20 2 32C2 44 16 52 31 52C46 52 60 44 60 32C60 20 46 12 31 12z            M31 26C27 26 25 28 25 30C25 32 27 34 31 34C35 34 37 32 37 30C37 28 35 26 31 26z"
       id="path8" />
    <linearGradient
       id="gradient0"
       gradientUnits="userSpaceOnUse"
       x1="4.64"
       y1="67.69"
       x2="-3.64"
       y2="3.2">
      <stop
         offset="0"
         stop-color="#f1f1f1"
         id="stop11" />
      <stop
         offset="0.2121"
         stop-color="#d9ddf4"
         id="stop13" />
      <stop
         offset="0.5416"
         stop-color="#9996b9"
         id="stop15" />
      <stop
         offset="0.7083"
         stop-color="#b8bedb"
         id="stop17" />
      <stop
         offset="1"
         stop-color="#f4f4f4"
         id="stop19" />
    </linearGradient>
    <path
       style="fill:url(#gradient0)"
       d="M31 12C16 12 2 20 2 32C2 44 16 52 31 52C46 52 60 44 60 32C60 20 46 12 31 12z            M43 30C43 34 39 38 31 38C23 38 19 34 19 30C19 26 23 22.5 31 22.5C39 22.5 43 26 43 30z"
       id="path21" />
    <path
       style="fill:#ebebeb; fill-opacity:0.8156"
       d="M43 30C43 34 39 38 31 38C23 38 19 34 19 30C19 26 23 22.5 31 22.5C39 22.5 43 26 43 30z            M31 26C27 26 25 28 25 30C25 32 27 34 31 34C35 34 37 32 37 30C37 28 35 26 31 26z"
       id="path23" />
    <linearGradient
       id="gradient1"
       gradientUnits="userSpaceOnUse"
       x1="6.84"
       y1="-3.55"
       x2="48.02"
       y2="6.68">
      <stop
         offset="0"
         stop-color="#4137a9"
         id="stop26" />
      <stop
         offset="1"
         stop-color="#b9b9b9"
         id="stop28" />
    </linearGradient>
    <path
       style="fill:none; stroke:url(#gradient1); stroke-width:2"
       d="M43 30C43 34 39 38 31 38C23 38 19 34 19 30C19 26 23 22.5 31 22.5C39 22.5 43 26 43 30z"
       id="path30" />
  </g>
  <g
     id="g2412"
     transform="matrix(0.5712144,0,0,0.5712144,27.172414,30.55922)">
    <path
       id="path2414"
       d="M 38,58 L 43,58 L 64,36 L 56,32 L 38,32 L 38,58 z"
       style="fill:#010000;fill-opacity:0.44309998" />
    <path
       id="path2416"
       d="M 2,30 L 21,14 L 58,28 L 58,36 L 38,56 L 2,38 L 2,30 z"
       style="fill:none;stroke:#010000;stroke-width:4" />
    <linearGradient
       y2="42.900002"
       x2="50.490002"
       y1="14.68"
       x1="35.389999"
       gradientUnits="userSpaceOnUse"
       id="linearGradient2481">
      <stop
         id="stop2419"
         stop-color="#686868"
         offset="0" />
      <stop
         id="stop2421"
         stop-color="#393939"
         offset="1" />
    </linearGradient>
    <path
       id="path2423"
       d="M 38,56 L 2,38 L 2,30 L 38,46 L 38,56 z"
       style="fill:url(#linearGradient2512)" />
    <linearGradient
       y2="59.240002"
       x2="30.43"
       y1="66.300003"
       x1="39.810001"
       gradientUnits="userSpaceOnUse"
       id="linearGradient2486">
      <stop
         id="stop2426"
         stop-color="#505050"
         offset="0" />
      <stop
         id="stop2428"
         stop-color="#222222"
         offset="1" />
    </linearGradient>
    <path
       id="path2430"
       d="M 38,46 L 38,56 L 58,36 L 58,28 L 38,46 z"
       style="fill:url(#linearGradient2514)" />
    <linearGradient
       y2="34.25"
       x2="61.23"
       y1="4.6599998"
       x1="49.049999"
       gradientUnits="userSpaceOnUse"
       id="gradient2">
      <stop
         id="stop2433"
         stop-color="#aeaeae"
         offset="0" />
      <stop
         id="stop2435"
         stop-color="#7c7c7c"
         offset="1" />
    </linearGradient>
    <path
       id="path2437"
       d="M 4.23,28.11 L 21,14 L 58,28 L 40.37,43.86 L 4.23,28.11 z"
       style="fill:url(#gradient2)" />
    <linearGradient
       y2="26.73"
       x2="57.119999"
       y1="5.0799999"
       x1="33.549999"
       gradientUnits="userSpaceOnUse"
       id="gradient3">
      <stop
         id="stop2440"
         stop-color="#8e8e8e"
         offset="0" />
      <stop
         id="stop2442"
         stop-color="#5a5a5a"
         offset="1" />
    </linearGradient>
    <path
       id="path2444"
       d="M 2,30 L 4.23,28.11 L 40.37,43.86 L 38,46 L 2,30 z"
       style="fill:url(#gradient3)" />
    <path
       id="path2446"
       d="M 39,36 C 37,35 18,27 16,26 C 14,25 14,23 16,21 C 18,19 21,18 23,19 C 25,20 45,27 47,28 C 49,29 51,31 48,34 C 45,37 41,37 39,36 z"
       style="fill:none;stroke:#010000;stroke-width:2" />
    <linearGradient
       y2="6.1500001"
       x2="49.009998"
       y1="4.52"
       x1="17.540001"
       gradientUnits="userSpaceOnUse"
       id="gradient4">
      <stop
         id="stop2449"
         stop-color="#3c3b3b"
         offset="0" />
      <stop
         id="stop2451"
         stop-color="#737373"
         offset="0.2681" />
      <stop
         id="stop2453"
         stop-color="#3a3a3a"
         offset="1" />
    </linearGradient>
    <path
       id="path2455"
       d="M 39,36 C 37,35 18,27 16,26 C 14,25 14,23 16,21 C 18,19 21,18 23,19 C 25,20 45,27 47,28 C 49,29 51,31 48,34 C 45,37 41,37 39,36 z"
       style="fill:url(#gradient4)" />
    <path
       id="path2457"
       d="M 23,22 C 21.34,22 20,22.89 20,24 C 20,25.1 21.34,26 23,26 C 24.65,26 26,25.1 26,24 C 26,22.89 24.65,22 23,22 z"
       style="fill:#828282" />
    <path
       id="path2459"
       transform="translate(17,7.375)"
       d="M 23,22 C 21.34,22 20,22.89 20,24 C 20,25.1 21.34,26 23,26 C 24.65,26 26,25.1 26,24 C 26,22.89 24.65,22 23,22 z"
       style="fill:#7c7c7c" />
    <linearGradient
       y2="24.25"
       x2="63.900002"
       y1="1.0599999"
       x1="41.84"
       gradientUnits="userSpaceOnUse"
       id="gradient5">
      <stop
         id="stop2462"
         stop-color="#ffffff"
         offset="0" />
      <stop
         id="stop2464"
         stop-color="#e8e8e8"
         offset="1" />
    </linearGradient>
    <path
       id="path2466"
       d="M 34.62,33.37 L 21,28 L 28.12,21.87 L 42,26.87 L 34.62,33.37 z"
       style="fill:url(#gradient5)" />
    <path
       id="path2468"
       d="M 4,28 L 41,44 L 42.5,42.5 L 42.5,45.5 L 39,56"
       style="fill:none;stroke:#090909;stroke-width:1" />
  </g>
  <text
     xml:space="preserve"
     style="font-size:10px;font-style:normal;font-variant:normal;font-weight:bold;font-stretch:normal;text-align:center;line-height:125%;writing-mode:lr-tb;text-anchor:middle;fill:#000000;fill-opacity:1;stroke:none;stroke-width:1px;stroke-linecap:butt;stroke-linejoin:miter;stroke-opacity:1;font-family:Bitstream Vera Sans Mono;-inkscape-font-specification:Bitstream Vera Sans Mono Bold"
     x="30.758619"
     y="20.827587"
     id="text2516"
     sodipodi:linespacing="125%"><tspan
       sodipodi:role="line"
       id="tspan2518"
       x="30.758619"
       y="20.827587">DVD</tspan></text>
</svg>
