<?xml version="1.0" encoding="UTF-8" standalone="no"?>
<!-- Created with Inkscape (http://www.inkscape.org/) -->

<svg
   xmlns:dc="http://purl.org/dc/elements/1.1/"
   xmlns:cc="http://creativecommons.org/ns#"
   xmlns:rdf="http://www.w3.org/1999/02/22-rdf-syntax-ns#"
   xmlns:svg="http://www.w3.org/2000/svg"
   xmlns="http://www.w3.org/2000/svg"
   xmlns:xlink="http://www.w3.org/1999/xlink"
   xmlns:sodipodi="http://sodipodi.sourceforge.net/DTD/sodipodi-0.dtd"
   xmlns:inkscape="http://www.inkscape.org/namespaces/inkscape"
   inkscape:export-ydpi="90.000000"
   inkscape:export-xdpi="90.000000"
   inkscape:export-filename="/home/jimmac/Desktop/wi-fi.png"
   width="48px"
   height="48px"
   id="svg11300"
   sodipodi:version="0.32"
   inkscape:version="0.47 r22583"
   sodipodi:docname="dialog-information.svg"
   inkscape:output_extension="org.inkscape.output.svg.inkscape"
   version="1.1">
  <defs
     id="defs3">
    <linearGradient
       id="linearGradient3754">
      <stop
         style="stop-color:#fce100;stop-opacity:1;"
         offset="0"
         id="stop3756" />
      <stop
         style="stop-color:#e3b603;stop-opacity:1;"
         offset="1"
         id="stop3758" />
    </linearGradient>
    <inkscape:perspective
       sodipodi:type="inkscape:persp3d"
       inkscape:vp_x="0 : 24 : 1"
       inkscape:vp_y="0 : 1000 : 0"
       inkscape:vp_z="48 : 24 : 1"
       inkscape:persp3d-origin="24 : 16 : 1"
       id="perspective45" />
    <linearGradient
       id="linearGradient2990">
      <stop
         style="stop-color:#3465a4;stop-opacity:1;"
         offset="0"
         id="stop2992" />
      <stop
         style="stop-color:#3465a4;stop-opacity:0;"
         offset="1"
         id="stop2994" />
    </linearGradient>
    <linearGradient
       id="linearGradient4712">
      <stop
         style="stop-color:#5b8ccb;stop-opacity:1;"
         offset="0"
         id="stop4714" />
      <stop
         style="stop-color:#3465a4;stop-opacity:1;"
         offset="1"
         id="stop4716" />
    </linearGradient>
    <linearGradient
       id="linearGradient4694">
      <stop
         style="stop-color:#e9f1f8;stop-opacity:1;"
         offset="0"
         id="stop4696" />
      <stop
         style="stop-color:#376ba3;stop-opacity:0.8392157;"
         offset="1"
         id="stop4698" />
    </linearGradient>
    <linearGradient
       inkscape:collect="always"
       id="linearGradient4666">
      <stop
         style="stop-color:#ffffff;stop-opacity:1;"
         offset="0"
         id="stop4668" />
      <stop
         style="stop-color:#ffffff;stop-opacity:0;"
         offset="1"
         id="stop4670" />
    </linearGradient>
    <linearGradient
       id="linearGradient20210">
      <stop
         style="stop-color:#000000;stop-opacity:0.51546389;"
         offset="0.0000000"
         id="stop20212" />
      <stop
         id="stop20218"
         offset="0.55172414"
         style="stop-color:#000000;stop-opacity:0.14432989;" />
      <stop
         style="stop-color:#000000;stop-opacity:0;"
         offset="1"
         id="stop20214" />
    </linearGradient>
    <radialGradient
       inkscape:collect="always"
       xlink:href="#linearGradient4666"
       id="radialGradient4672"
       cx="25.755905"
       cy="9.9372978"
       fx="25.755905"
       fy="9.9372978"
       r="12.139711"
       gradientTransform="matrix(2.138401,-5.903375e-16,6.984997e-16,2.530201,-29.32054,-16.45375)"
       gradientUnits="userSpaceOnUse" />
    <radialGradient
       inkscape:collect="always"
       xlink:href="#linearGradient4694"
       id="radialGradient4700"
       cx="26.435322"
       cy="17.031229"
       fx="26.435322"
       fy="17.031229"
       r="13.244088"
       gradientTransform="matrix(1.821341,-5.36498e-16,6.351477e-16,2.156244,-21.15439,-13.79104)"
       gradientUnits="userSpaceOnUse" />
    <linearGradient
       inkscape:collect="always"
       xlink:href="#linearGradient2990"
       id="linearGradient2996"
       x1="26"
       y1="22.116529"
       x2="27.550253"
       y2="28.126938"
       gradientUnits="userSpaceOnUse" />
    <radialGradient
       inkscape:collect="always"
       xlink:href="#linearGradient20210"
       id="radialGradient3660"
       gradientUnits="userSpaceOnUse"
       gradientTransform="scale(1.764278,0.566804)"
       cx="14.772334"
       cy="74.209934"
       fx="14.772334"
       fy="74.209934"
       r="7.8289826" />
    <linearGradient
       inkscape:collect="always"
       xlink:href="#linearGradient3754"
       id="linearGradient3760"
       x1="-24.218407"
       y1="27.228739"
       x2="-3.5355339"
       y2="27.228739"
       gradientUnits="userSpaceOnUse" />
    <linearGradient
       inkscape:collect="always"
       xlink:href="#linearGradient3754"
       id="linearGradient3770"
       x1="-24.218407"
       y1="27.228739"
       x2="-3.5355339"
       y2="27.228739"
       gradientUnits="userSpaceOnUse" />
    <linearGradient
       inkscape:collect="always"
       xlink:href="#linearGradient3754"
       id="linearGradient3778"
       x1="20.352997"
       y1="38.807819"
       x2="31.723608"
       y2="38.807819"
       gradientUnits="userSpaceOnUse" />
    <linearGradient
       inkscape:collect="always"
       xlink:href="#linearGradient3754"
       id="linearGradient3786"
       x1="-24.218407"
       y1="27.228739"
       x2="-3.5355339"
       y2="27.228739"
       gradientUnits="userSpaceOnUse" />
    <linearGradient
       inkscape:collect="always"
       xlink:href="#linearGradient3754"
       id="linearGradient3794"
       x1="-24.218407"
       y1="27.228739"
       x2="-3.5355339"
       y2="27.228739"
       gradientUnits="userSpaceOnUse" />
  </defs>
  <sodipodi:namedview
     stroke="#3465a4"
     fill="#fce94f"
     id="base"
     pagecolor="#ffffff"
     bordercolor="#666666"
     borderopacity="0.25490196"
     inkscape:pageopacity="0.0"
     inkscape:pageshadow="2"
     inkscape:zoom="23.589721"
     inkscape:cx="26.284789"
     inkscape:cy="12.505445"
     inkscape:current-layer="layer1"
     showgrid="true"
     inkscape:grid-bbox="true"
     inkscape:document-units="px"
     inkscape:showpageshadow="false"
     inkscape:window-width="1106"
     inkscape:window-height="682"
     inkscape:window-x="85"
     inkscape:window-y="43"
     inkscape:window-maximized="1" />
  <metadata
     id="metadata4">
    <rdf:RDF>
      <cc:Work
         rdf:about="">
        <dc:format>image/svg+xml</dc:format>
        <dc:type
           rdf:resource="http://purl.org/dc/dcmitype/StillImage" />
        <dc:creator>
          <cc:Agent>
            <dc:title>Jakub Steiner</dc:title>
          </cc:Agent>
        </dc:creator>
        <dc:source>http://jimmac.musichall.cz</dc:source>
        <cc:license
           rdf:resource="http://creativecommons.org/licenses/GPL/2.0/" />
        <dc:title></dc:title>
        <dc:subject>
          <rdf:Bag>
            <rdf:li>dialog</rdf:li>
            <rdf:li>info</rdf:li>
            <rdf:li>information</rdf:li>
          </rdf:Bag>
        </dc:subject>
      </cc:Work>
      <cc:License
         rdf:about="http://creativecommons.org/licenses/GPL/2.0/">
        <cc:permits
           rdf:resource="http://web.resource.org/cc/Reproduction" />
        <cc:permits
           rdf:resource="http://web.resource.org/cc/Distribution" />
        <cc:requires
           rdf:resource="http://web.resource.org/cc/Notice" />
        <cc:permits
           rdf:resource="http://web.resource.org/cc/DerivativeWorks" />
        <cc:requires
           rdf:resource="http://web.resource.org/cc/ShareAlike" />
        <cc:requires
           rdf:resource="http://web.resource.org/cc/SourceCode" />
      </cc:License>
    </rdf:RDF>
  </metadata>
  <g
     id="layer1"
     inkscape:label="Layer 1"
     inkscape:groupmode="layer">
    <path
       transform="matrix(1.197183,0,0,1.098591,-4.66549,-3.08448)"
       d="m 39.875,42.0625 a 13.8125,4.4375 0 1 1 -27.625,0 13.8125,4.4375 0 1 1 27.625,0 z"
       sodipodi:ry="4.4375"
       sodipodi:rx="13.8125"
       sodipodi:cy="42.0625"
       sodipodi:cx="26.0625"
       id="path20208"
       style="opacity:0.8;color:#000000;fill:url(#radialGradient3660);fill-opacity:1;fill-rule:nonzero;stroke:none;stroke-width:2;marker:none;visibility:visible;display:inline;overflow:visible"
       sodipodi:type="arc"
       inkscape:r_cx="true"
       inkscape:r_cy="true" />
    <path
       style="fill:#555753;fill-rule:nonzero;stroke:#000000;stroke-miterlimit:4;stroke-opacity:1"
       d="m 22.538285,39.877541 0,1.383004 c 0,1.383004 1.41073,2.612342 2.9978,2.612342 1.587071,0 2.997799,-1.229338 2.997799,-2.612342 l 0,-1.383004 -5.995599,0 z"
       id="path19509"
       inkscape:r_cx="true"
       inkscape:r_cy="true" />
    <path
       inkscape:r_cy="true"
       inkscape:r_cx="true"
       sodipodi:nodetypes="cccccccscccccccs"
       id="path3209"
       d="m 25.371235,28.623519 c -3.26679,-0.0079 -6.971431,0.95698 -4.963971,2.781027 -0.497724,0.201695 -1.209183,0.652152 -1.125314,1.706224 0.04631,0.550494 0.627148,0.88841 1.421489,1.136517 -0.900504,0.634497 -1.4735,1.304983 -1.421489,1.923337 0.04577,0.544075 0.61438,0.916665 1.392479,1.165659 -0.877813,0.627195 -1.443778,1.313462 -1.392479,1.923336 0.0784,0.932092 2.079601,1.97616 6.412913,1.855912 3.119933,-0.08543 5.873101,-0.647188 6.090386,-1.855912 0.08532,-0.474624 -0.301362,-0.917469 -0.899309,-1.311365 0.447626,-0.453223 0.761216,-0.912917 0.725249,-1.340508 -0.04598,-0.546639 -0.607907,-0.917008 -1.392478,-1.165658 0.877813,-0.627195 1.443777,-1.313462 1.392478,-1.923337 -0.04598,-0.546639 -0.607907,-0.887865 -1.392478,-1.136517 0.88828,-0.630583 1.444108,-1.309539 1.392478,-1.923337 -0.05739,-0.682278 -3.169609,-1.827935 -6.239954,-1.835378 z"
       style="color:#000000;fill:#aeae57;fill-opacity:1;fill-rule:nonzero;stroke:#000000;stroke-width:2.00000095000000000;stroke-linecap:round;stroke-linejoin:round;stroke-miterlimit:4;stroke-opacity:1;stroke-dashoffset:0;marker:none;visibility:visible;display:inline;overflow:visible" />
    <path
       sodipodi:type="arc"
       style="color:#000000;fill:url(#linearGradient3786);fill-opacity:1.0;fill-rule:nonzero;stroke:none;stroke-width:0.13035245000000001;marker:none;visibility:visible;display:inline;overflow:visible"
       id="path4702"
       sodipodi:cx="-13.87697"
       sodipodi:cy="27.228739"
       sodipodi:rx="10.341436"
       sodipodi:ry="3.2703688"
       d="m -3.5355339,27.228739 a 10.341436,3.2703688 0 1 1 -20.6828731,0 10.341436,3.2703688 0 1 1 20.6828731,0 z"
       transform="matrix(0.596154,-0.127796,0.06358129,0.755885,31.90751,9.299175)"
       inkscape:r_cx="true"
       inkscape:r_cy="true" />
    <path
       inkscape:r_cy="true"
       inkscape:r_cx="true"
       sodipodi:nodetypes="csccc"
       id="path3183"
       d="m 31.709693,39.21572 c -0.217286,1.208724 -3.292412,1.89083 -8.214327,1.643248 -3.117187,-0.1568 -3.29556,-1.032918 -3.078276,-2.241643 0.217286,-1.208725 2.923176,-2.055678 6.039934,-1.890521 3.116758,0.165156 5.469953,1.280192 5.252669,2.488916 z"
       style="color:#000000;fill:url(#linearGradient3778);fill-opacity:1.0;fill-rule:nonzero;stroke:none;stroke-width:0.08828904000000000;marker:none;visibility:visible;display:inline;overflow:visible" />
    <path
       inkscape:r_cy="true"
       inkscape:r_cx="true"
       sodipodi:type="arc"
       style="color:#000000;fill:url(#linearGradient3760);fill-opacity:1;fill-rule:nonzero;stroke:none;stroke-width:0.13035245000000001;marker:none;visibility:visible;display:inline;overflow:visible"
       id="path1603"
       sodipodi:cx="-13.87697"
       sodipodi:cy="27.228739"
       sodipodi:rx="10.341436"
       sodipodi:ry="3.2703688"
       d="m -3.5355339,27.228739 a 10.341436,3.2703688 0 1 1 -20.6828731,0 10.341436,3.2703688 0 1 1 20.6828731,0 z"
       transform="matrix(0.596154,-0.127796,0.06358129,0.755885,31.90751,15.530977)" />
    <path
       inkscape:r_cy="true"
       inkscape:r_cx="true"
       transform="matrix(0.596154,-0.127796,0.06358129,0.755885,31.90751,12.455425)"
       d="m -3.5355339,27.228739 a 10.341436,3.2703688 0 1 1 -20.6828731,0 10.341436,3.2703688 0 1 1 20.6828731,0 z"
       sodipodi:ry="3.2703688"
       sodipodi:rx="10.341436"
       sodipodi:cy="27.228739"
       sodipodi:cx="-13.87697"
       id="path2364"
       style="color:#000000;fill:url(#linearGradient3770);fill-opacity:1.0;fill-rule:nonzero;stroke:none;stroke-width:0.13035245000000001;marker:none;visibility:visible;display:inline;overflow:visible"
       sodipodi:type="arc" />
    <path
       inkscape:r_cy="true"
       inkscape:r_cx="true"
       transform="matrix(0.331798,0,0,0.333302,12.74577,28.18361)"
       d="m 31,22.375 a 3.25,3.25 0 1 1 -6.5,0 3.25,3.25 0 1 1 6.5,0 z"
       sodipodi:ry="3.25"
       sodipodi:rx="3.25"
       sodipodi:cy="22.375"
       sodipodi:cx="27.75"
       id="path20372"
       style="color:#000000;fill:#ffffff;fill-opacity:1;fill-rule:nonzero;stroke:none;stroke-width:2;marker:none;visibility:visible;display:inline;overflow:visible"
       sodipodi:type="arc" />
    <path
       inkscape:r_cy="true"
       inkscape:r_cx="true"
       sodipodi:type="arc"
       style="color:#000000;fill:#ffffff;fill-opacity:1;fill-rule:nonzero;stroke:none;stroke-width:2;marker:none;visibility:visible;display:inline;overflow:visible"
       id="path2435"
       sodipodi:cx="27.75"
       sodipodi:cy="22.375"
       sodipodi:rx="3.25"
       sodipodi:ry="3.25"
       d="m 31,22.375 a 3.25,3.25 0 1 1 -6.5,0 3.25,3.25 0 1 1 6.5,0 z"
       transform="matrix(0.331798,0,0,0.333302,12.74577,31.17188)" />
    <path
       sodipodi:type="arc"
       style="color:#000000;fill:#ffffff;fill-opacity:1;fill-rule:nonzero;stroke:none;stroke-width:2;marker:none;visibility:visible;display:inline;overflow:visible"
       id="path4708"
       sodipodi:cx="27.75"
       sodipodi:cy="22.375"
       sodipodi:rx="3.25"
       sodipodi:ry="3.25"
       d="m 31,22.375 a 3.25,3.25 0 1 1 -6.5,0 3.25,3.25 0 1 1 6.5,0 z"
       transform="matrix(0.331798,0,0,0.333302,12.74577,24.77736)"
       inkscape:r_cx="true"
       inkscape:r_cy="true" />
    <path
       inkscape:r_cy="true"
       inkscape:r_cx="true"
       transform="matrix(0.609516,0.0148834,-0.114607,0.749847,37.26426,10.33197)"
       d="m -3.5355339,27.228739 a 10.341436,3.2703688 0 1 1 -20.6828731,0 10.341436,3.2703688 0 1 1 20.6828731,0 z"
       sodipodi:ry="3.2703688"
       sodipodi:rx="10.341436"
       sodipodi:cy="27.228739"
       sodipodi:cx="-13.87697"
       id="path4710"
       style="color:#000000;fill:url(#linearGradient3794);fill-opacity:1.0;fill-rule:nonzero;stroke:none;stroke-width:0.13035245000000001;marker:none;visibility:visible;display:inline;overflow:visible"
       sodipodi:type="arc" />
    <path
       style="opacity:1;color:#000000;fill:url(#radialGradient4700);fill-opacity:1;fill-rule:evenodd;stroke:#000000;stroke-width:1;stroke-linecap:butt;stroke-linejoin:miter;marker:none;marker-start:none;marker-mid:none;marker-end:none;stroke-miterlimit:4;stroke-dasharray:none;stroke-dashoffset:0;stroke-opacity:1;visibility:visible;display:inline;overflow:visible"
       d="M 25.016299,3.1474516 C 18.321938,3.5296683 13.011824,9.1020052 13.011824,15.891539 C 13.011824,19.71505 16.031329,21.976654 17.309622,26.548802 C 18.3704,30.34295 22.089448,31.201903 25.402359,31.201903 C 29.402442,31.201903 33.695544,29.876694 34.659499,25.279481 C 35.454896,21.48614 38.5,19.028746 38.5,15.891539 C 38.499998,8.8546137 32.792838,3.1474516 25.755912,3.1474516 C 25.50852,3.1474516 25.260223,3.1335247 25.016299,3.1474516 z "
       id="path3885"
       sodipodi:nodetypes="csszsssc" />
    <path
       sodipodi:nodetypes="csszsssc"
       id="path4664"
       d="M 25.074585,4.3431622 C 18.907767,4.6952587 14.016112,9.8284722 14.016112,16.082962 C 14.016112,19.254718 17.329047,22.043543 18.204035,25.485407 C 19.21077,29.445511 22.366767,29.828929 25.755913,29.828929 C 29.350248,29.828929 32.872411,29.272027 33.552794,25.114528 C 34.110199,21.708487 37.495714,19.061139 37.495714,16.082962 C 37.495712,9.6005762 32.2383,4.3431622 25.755913,4.3431622 C 25.528017,4.3431622 25.299287,4.3303328 25.074585,4.3431622 z "
       style="opacity:0.59340671;color:#000000;fill:none;fill-opacity:1;fill-rule:evenodd;stroke:url(#radialGradient4672);stroke-width:0.99999994;stroke-linecap:butt;stroke-linejoin:miter;marker:none;marker-start:none;marker-mid:none;marker-end:none;stroke-miterlimit:4;stroke-dasharray:none;stroke-dashoffset:0;stroke-opacity:1;visibility:visible;display:inline;overflow:visible" />
    <path
       style="opacity:1;color:#000000;fill:none;fill-opacity:1;fill-rule:evenodd;stroke:url(#linearGradient2996);stroke-width:1;stroke-linecap:round;stroke-linejoin:round;marker:none;marker-start:none;marker-mid:none;marker-end:none;stroke-miterlimit:4;stroke-dasharray:none;stroke-dashoffset:0;stroke-opacity:1;visibility:visible;display:inline;overflow:visible"
       d="M 28.12132,29.055456 L 32,16.533748 C 28,14.768315 24,14.530464 20,17 L 21,20"
       id="path4674"
       sodipodi:nodetypes="cccc" />
    <path
       sodipodi:type="arc"
       style="opacity:0.7525773;color:black;fill:white;fill-opacity:1;fill-rule:nonzero;stroke:none;stroke-width:1.05887306;stroke-linecap:butt;stroke-linejoin:miter;marker:none;marker-start:none;marker-mid:none;marker-end:none;stroke-miterlimit:4;stroke-dasharray:none;stroke-dashoffset:0;stroke-opacity:1;visibility:visible;display:inline;overflow:visible"
       id="path2998"
       sodipodi:cx="25.5"
       sodipodi:cy="10.125"
       sodipodi:rx="9.25"
       sodipodi:ry="6.125"
       d="M 34.75 10.125 A 9.25 6.125 0 1 1  16.25,10.125 A 9.25 6.125 0 1 1  34.75 10.125 z"
       transform="matrix(0.703611,0,0,0.788898,7.799507,3.597214)" />
    <path
       transform="matrix(0.131662,-0.2583,0.172707,0.24754,12.0763,19.25056)"
       d="M 34.75 10.125 A 9.25 6.125 0 1 1  16.25,10.125 A 9.25 6.125 0 1 1  34.75 10.125 z"
       sodipodi:ry="6.125"
       sodipodi:rx="9.25"
       sodipodi:cy="10.125"
       sodipodi:cx="25.5"
       id="path3000"
       style="opacity:0.68556704;color:black;fill:white;fill-opacity:1;fill-rule:nonzero;stroke:none;stroke-width:1.05887306;stroke-linecap:butt;stroke-linejoin:miter;marker:none;marker-start:none;marker-mid:none;marker-end:none;stroke-miterlimit:4;stroke-dasharray:none;stroke-dashoffset:0;stroke-opacity:1;visibility:visible;display:inline;overflow:visible"
       sodipodi:type="arc"
       inkscape:transform-center-y="2.8297225" />
  </g>
</svg>
