<?xml version="1.0" encoding="UTF-8" standalone="no"?>
<svg
   xmlns:dc="http://purl.org/dc/elements/1.1/"
   xmlns:cc="http://creativecommons.org/ns#"
   xmlns:rdf="http://www.w3.org/1999/02/22-rdf-syntax-ns#"
   xmlns:svg="http://www.w3.org/2000/svg"
   xmlns="http://www.w3.org/2000/svg"
   xmlns:sodipodi="http://sodipodi.sourceforge.net/DTD/sodipodi-0.dtd"
   xmlns:inkscape="http://www.inkscape.org/namespaces/inkscape"
   version="1.1"
   width="64"
   height="64"
   color-interpolation="linearRGB"
   id="svg2"
   sodipodi:version="0.32"
   inkscape:version="0.91 r13725"
   sodipodi:docname="document-close.svg"
   inkscape:output_extension="org.inkscape.output.svg.inkscape">
  <metadata
     id="metadata31">
    <rdf:RDF>
      <cc:Work
         rdf:about="">
        <dc:format>image/svg+xml</dc:format>
        <dc:type
           rdf:resource="http://purl.org/dc/dcmitype/StillImage" />
        <dc:title></dc:title>
      </cc:Work>
    </rdf:RDF>
  </metadata>
  <defs
     id="defs29">
    <inkscape:perspective
       sodipodi:type="inkscape:persp3d"
       inkscape:vp_x="0 : 32 : 1"
       inkscape:vp_y="0 : 1000 : 0"
       inkscape:vp_z="64 : 32 : 1"
       inkscape:persp3d-origin="32 : 21.333333 : 1"
       id="perspective33" />
    <inkscape:perspective
       id="perspective35"
       inkscape:persp3d-origin="32 : 21.333333 : 1"
       inkscape:vp_z="64 : 32 : 1"
       inkscape:vp_y="0 : 1000 : 0"
       inkscape:vp_x="0 : 32 : 1"
       sodipodi:type="inkscape:persp3d" />
    <linearGradient
       id="linearGradient2423"
       gradientUnits="userSpaceOnUse"
       x1="83.050003"
       y1="-5.5500002"
       x2="103.7"
       y2="26.91">
      <stop
         offset="0"
         stop-color="#faf9d2"
         id="stop2425" />
      <stop
         offset="1"
         stop-color="#dddb8f"
         id="stop2427" />
    </linearGradient>
    <linearGradient
       id="linearGradient2429"
       gradientUnits="userSpaceOnUse"
       x1="34.740002"
       y1="6.0599999"
       x2="56.810001"
       y2="23.280001">
      <stop
         offset="0"
         stop-color="#010101"
         id="stop2431" />
      <stop
         offset="1"
         stop-color="#807e5d"
         id="stop2433" />
    </linearGradient>
    <linearGradient
       y2="12.34"
       x2="95.370003"
       y1="-20.700001"
       x1="70.139999"
       gradientUnits="userSpaceOnUse"
       id="gradient0-6">
      <stop
         id="stop4218"
         stop-color="#c80505"
         offset="0" />
      <stop
         id="stop4220"
         stop-color="#9d0404"
         offset="0.4904" />
      <stop
         id="stop4222"
         stop-color="#b40404"
         offset="1" />
    </linearGradient>
    <linearGradient
       y2="22.549999"
       x2="102.64"
       y1="-7.1199999"
       x1="89.68"
       gradientUnits="userSpaceOnUse"
       id="gradient1-7">
      <stop
         id="stop4229"
         stop-color="#ff3e3e"
         offset="0" />
      <stop
         id="stop4231"
         stop-color="#f70606"
         offset="1" />
    </linearGradient>
    <linearGradient
       y2="3.46"
       x2="71.470001"
       y1="-23.17"
       x1="47.25"
       gradientUnits="userSpaceOnUse"
       id="gradient2">
      <stop
         id="stop4236"
         stop-color="#ff9090"
         offset="0" />
      <stop
         id="stop4238"
         stop-color="#ff7575"
         offset="1" />
    </linearGradient>
  </defs>
  <sodipodi:namedview
     inkscape:window-height="1003"
     inkscape:window-width="942"
     inkscape:pageshadow="2"
     inkscape:pageopacity="0.0"
     guidetolerance="10.0"
     gridtolerance="10.0"
     objecttolerance="10.0"
     borderopacity="1.0"
     bordercolor="#666666"
     pagecolor="#ffffff"
     id="base"
     showgrid="false"
     inkscape:zoom="3.9230401"
     inkscape:cx="32.135651"
     inkscape:cy="31.238692"
     inkscape:window-x="0"
     inkscape:window-y="30"
     inkscape:current-layer="svg2"
     inkscape:window-maximized="0" />
  <g
     id="g4">
    <path
       style="fill:#010101; fill-opacity:0.5725"
       d="M27 57L29 59L32.13 55.83L37 59L45.39 47.54L64 38L59 35L61 37L36 49L27 57z            M58 34L62 31L58 29L55 32L58 34z"
       id="path6" />
    <path
       style="fill:none; stroke:#010101; stroke-width:4"
       d="M6.25 30C6.25 30 11.87 36 16.87 42.5C21.87 49 26.25 55.75 26.25 55.75L59.12 36.87L32 15L6.25 30z"
       id="path8" />
    <radialGradient
       id="gradient0"
       gradientUnits="userSpaceOnUse"
       cx="0"
       cy="0"
       r="64"
       gradientTransform="matrix(0.5714,0,0,0.3333,26,35)">
      <stop
         offset="1"
         stop-color="#c0d5ff"
         id="stop11" />
      <stop
         offset="0.4886"
         stop-color="#896eff"
         id="stop13" />
    </radialGradient>
    <path
       style="fill:url(#gradient0)"
       d="M6.25 30C6.25 30 11.87 36 16.87 42.5C21.87 49 26.25 55.75 26.25 55.75L59.12 36.87L32 15L6.25 30z"
       id="path15" />
    <path
       style="fill:none; stroke:#010101; stroke-width:4"
       d="M2.62 30.87C2.62 30.87 10.95 36.26 19 41.87C27.44 47.75 35.75 52.75 35.75 52.75L58.12 26.37C58.12 26.37 45.44 20.7 35.37 15.37C30.18 12.62 26 9.37 26 9.37L2.62 30.87z"
       id="path17" />
    <linearGradient
       id="gradient1"
       gradientUnits="userSpaceOnUse"
       x1="105.45"
       y1="-23.42"
       x2="119.92"
       y2="34.32">
      <stop
         offset="0"
         stop-color="#a5b1ff"
         id="stop20" />
      <stop
         offset="0.7386"
         stop-color="#eaf1ff"
         id="stop22" />
      <stop
         offset="1"
         stop-color="#b3b8ff"
         id="stop24" />
    </linearGradient>
    <path
       style="fill:url(#gradient1)"
       d="M2.62 30.87C2.62 30.87 10.95 36.26 19 41.87C27.44 47.75 35.75 52.75 35.75 52.75L58.12 26.37C58.12 26.37 45.44 20.7 35.37 15.37C30.18 12.62 26 9.37 26 9.37L2.62 30.87z"
       id="path26" />
  </g>
  <g
     transform="matrix(0.67067822,0,0,0.67067822,-6.5614019,27.557964)"
     id="g4250"
     style="color-interpolation:linearRGB">
    <g
       id="g4213">
      <path
         inkscape:connector-curvature="0"
         style="fill:none;stroke:#010101;stroke-width:4"
         d="m 14,44 8,2 7.39,-4.75 L 34,50 42,52 48,46 40,31 50.37,19.75 42,17.37 35,21 32,14 24,12 14,14 24,32 14,44 Z"
         id="path4215" />
      <linearGradient
         id="linearGradient9500"
         gradientUnits="userSpaceOnUse"
         x1="70.139999"
         y1="-20.700001"
         x2="95.370003"
         y2="12.34">
        <stop
           offset="0"
           stop-color="#c80505"
           id="stop9502" />
        <stop
           offset="0.4904"
           stop-color="#9d0404"
           id="stop9504" />
        <stop
           offset="1"
           stop-color="#b40404"
           id="stop9506" />
      </linearGradient>
      <path
         inkscape:connector-curvature="0"
         style="fill:url(#gradient0-6)"
         d="m 22,17 6,11 4,7 10,17 6,-6 -16,-32 -10,3 z"
         id="path4224" />
      <path
         inkscape:connector-curvature="0"
         style="fill:#750303"
         d="M 40,31 50.37,19.75 42,24 32,35 40,31 Z m -18,15 8,-6 -2,-1 -6,7 z"
         id="path4226" />
      <linearGradient
         id="linearGradient9510"
         gradientUnits="userSpaceOnUse"
         x1="89.68"
         y1="-7.1199999"
         x2="102.64"
         y2="22.549999">
        <stop
           offset="0"
           stop-color="#ff3e3e"
           id="stop9512" />
        <stop
           offset="1"
           stop-color="#f70606"
           id="stop9514" />
      </linearGradient>
      <path
         inkscape:connector-curvature="0"
         style="fill:url(#gradient1-7)"
         d="m 14,44 8,2 6,-7 6,11 8,2 L 32,35 42,24 34,21 28,27.87 22,17 14,14 24,32 14,44 Z"
         id="path4233" />
      <linearGradient
         id="linearGradient9517"
         gradientUnits="userSpaceOnUse"
         x1="47.25"
         y1="-23.17"
         x2="71.470001"
         y2="3.46">
        <stop
           offset="0"
           stop-color="#ff9090"
           id="stop9519" />
        <stop
           offset="1"
           stop-color="#ff7575"
           id="stop9521" />
      </linearGradient>
      <path
         inkscape:connector-curvature="0"
         style="fill:url(#gradient2)"
         d="m 34,21 8,3 8.37,-4.25 L 42,17.37 34,21 Z m -20,-7 8,3 10,-3 -8,-2 -10,2 z"
         id="path4240" />
      <path
         inkscape:connector-curvature="0"
         style="fill:none;stroke:#ffffff;stroke-width:1;stroke-opacity:0.26660001"
         d="m 15,14.12 9.5,-1.5 M 28,28 34,22 42,17.75 M 24.25,32.5 14.62,43.87"
         id="path4242" />
    </g>
  </g>
</svg>
