<?xml version="1.0" encoding="UTF-8" standalone="no"?>
<svg
   xmlns:dc="http://purl.org/dc/elements/1.1/"
   xmlns:cc="http://creativecommons.org/ns#"
   xmlns:rdf="http://www.w3.org/1999/02/22-rdf-syntax-ns#"
   xmlns:svg="http://www.w3.org/2000/svg"
   xmlns="http://www.w3.org/2000/svg"
   xmlns:sodipodi="http://sodipodi.sourceforge.net/DTD/sodipodi-0.dtd"
   xmlns:inkscape="http://www.inkscape.org/namespaces/inkscape"
   version="1.1"
   width="64"
   height="64"
   color-interpolation="linearRGB"
   id="svg2"
   inkscape:version="0.91 r13725"
   sodipodi:docname="drapes.svg">
  <metadata
     id="metadata76">
    <rdf:RDF>
      <cc:Work
         rdf:about="">
        <dc:format>image/svg+xml</dc:format>
        <dc:type
           rdf:resource="http://purl.org/dc/dcmitype/StillImage" />
      </cc:Work>
    </rdf:RDF>
  </metadata>
  <defs
     id="defs74">
    <linearGradient
       y2="12.88"
       x2="-64.260002"
       y1="48.66"
       x1="-62.43"
       gradientUnits="userSpaceOnUse"
       id="gradient8"
       gradientTransform="matrix(0.79025645,0,0,0.78773505,6.746994,-0.11920032)">
      <stop
         id="stop83"
         stop-color="#d2d2d2"
         offset="0" />
      <stop
         id="stop85"
         stop-color="#e1e1e1"
         offset="1" />
    </linearGradient>
    <linearGradient
       y2="-9.3299999"
       x2="112.21"
       y1="-48.16"
       x1="79.779999"
       gradientUnits="userSpaceOnUse"
       id="gradient7-5"
       gradientTransform="matrix(0.79025645,0,0,0.78773505,6.746994,-0.11920032)">
      <stop
         id="stop76"
         stop-color="#ffffff"
         offset="0" />
      <stop
         id="stop78"
         stop-color="#eaeaea"
         offset="1" />
    </linearGradient>
    <linearGradient
       y2="31.530001"
       x2="77.699997"
       y1="3.47"
       x1="67.809998"
       gradientUnits="userSpaceOnUse"
       id="gradient5-6"
       gradientTransform="matrix(0.79025645,0,0,0.78773505,6.746994,-0.11920032)">
      <stop
         id="stop56"
         stop-color="#9a9a9a"
         offset="1" />
      <stop
         id="stop58"
         stop-color="#242222"
         offset="0" />
    </linearGradient>
    <linearGradient
       y2="1.75"
       x2="81.769997"
       y1="-4.8899999"
       x1="44.610001"
       gradientUnits="userSpaceOnUse"
       id="gradient0-3"
       gradientTransform="matrix(0.79025645,0,0,0.78773505,6.746994,-0.11920032)">
      <stop
         id="stop19"
         stop-color="#2b2b2b"
         offset="0" />
      <stop
         id="stop21"
         stop-color="#959595"
         offset="1" />
    </linearGradient>
  </defs>
  <sodipodi:namedview
     pagecolor="#ffffff"
     bordercolor="#666666"
     borderopacity="1"
     objecttolerance="10"
     gridtolerance="10"
     guidetolerance="10"
     inkscape:pageopacity="0"
     inkscape:pageshadow="2"
     inkscape:window-width="1918"
     inkscape:window-height="1020"
     id="namedview72"
     showgrid="false"
     inkscape:zoom="11.0625"
     inkscape:cx="14.689266"
     inkscape:cy="32"
     inkscape:window-x="2"
     inkscape:window-y="30"
     inkscape:window-maximized="1"
     inkscape:current-layer="svg2" />
  <g
     id="g4">
    <path
       style="fill:#000000; fill-opacity:0.4196"
       d="M35 62L40 56C40 56 43.72 58.38 48 59C53.94 59.84 61 59 61 59L62 57L50 51L38 53L31 61L35 62z"
       transform="matrix(1,0,0,1,-4,-2)"
       id="path6" />
    <path
       style="fill:none; stroke:#010000; stroke-width:4"
       d="M34 38C34 38 34 51 20 53V55L34 62L48 48L45 35L34 38z"
       transform="matrix(1,0,0,1,-5,-2)"
       id="path8" />
    <linearGradient
       id="gradient0"
       gradientUnits="userSpaceOnUse"
       x1="41.67"
       y1="-9.73"
       x2="71.92"
       y2="-3.5">
      <stop
         offset="0"
         stop-color="#5c5c5c"
         id="stop11" />
      <stop
         offset="1"
         stop-color="#b8b8b8"
         id="stop13" />
    </linearGradient>
    <path
       style="fill:url(#gradient0)"
       d="M34 36V62L48 48L45 34L34 36z"
       transform="matrix(1,0,0,1,-5,-2)"
       id="path15" />
    <linearGradient
       id="gradient1"
       gradientUnits="userSpaceOnUse"
       x1="14.26"
       y1="97.46"
       x2="-8.94"
       y2="81.76">
      <stop
         offset="0"
         stop-color="#c9c9c9"
         id="stop18" />
      <stop
         offset="1"
         stop-color="#ffffff"
         id="stop20" />
    </linearGradient>
    <path
       style="fill:url(#gradient1)"
       d="M20 55L34 62V59L20 53V55z"
       transform="matrix(1,0,0,1,-5,-2)"
       id="path22" />
    <linearGradient
       id="gradient2"
       gradientUnits="userSpaceOnUse"
       x1="51.94"
       y1="63.65"
       x2="26.51"
       y2="73.34">
      <stop
         offset="0"
         stop-color="#797979"
         id="stop25" />
      <stop
         offset="1"
         stop-color="#e4e4e4"
         id="stop27" />
    </linearGradient>
    <path
       style="fill:url(#gradient2)"
       d="M34 59C45 50 40 40 40 40L34 38C34 38 34 51 20 53L34 59z"
       transform="matrix(1,0,0,1,-5,-2)"
       id="path29" />
    <path
       style="fill:none; stroke:#000000; stroke-width:4"
       d="M14 39L52 58L55 55V17L17 5.53L14 7V39z"
       transform="matrix(1,0,0,1,-4,-2)"
       id="path31" />
    <linearGradient
       id="gradient3"
       gradientUnits="userSpaceOnUse"
       x1="121.6"
       y1="-41.06"
       x2="151.37"
       y2="15.32">
      <stop
         offset="0"
         stop-color="#d4d4d4"
         id="stop34" />
      <stop
         offset="1"
         stop-color="#7d7d7d"
         id="stop36" />
    </linearGradient>
    <path
       style="fill:url(#gradient3)"
       d="M14 39L52 58V20L14 7V39z"
       transform="matrix(1,0,0,1,-4,-2)"
       id="path38" />
    <linearGradient
       id="gradient4"
       gradientUnits="userSpaceOnUse"
       x1="28.71"
       y1="-38.38"
       x2="57.09"
       y2="-27.57">
      <stop
         offset="0"
         stop-color="#3c3c3c"
         id="stop41" />
      <stop
         offset="1"
         stop-color="#242424"
         id="stop43" />
    </linearGradient>
    <path
       style="fill:url(#gradient4)"
       d="M50 48L16 32V9L50 21V48z"
       transform="matrix(1,0,0,1,-4,-2)"
       id="path45" />
    <linearGradient
       id="gradient5"
       gradientUnits="userSpaceOnUse"
       x1="57.02"
       y1="1.21"
       x2="111.43"
       y2="25.45">
      <stop
         offset="0.6195"
         stop-color="#0032a1"
         id="stop48" />
      <stop
         offset="0.8116"
         stop-color="#7793d2"
         id="stop50" />
      <stop
         offset="0.9742"
         stop-color="#0032a1"
         id="stop52" />
    </linearGradient>
    <path
       style="fill:url(#gradient5)"
       d="M47 44L19 30V13L47 22V44z"
       transform="matrix(1,0,0,1,-4,-2)"
       id="path54" />
    <linearGradient
       id="gradient6"
       gradientUnits="userSpaceOnUse"
       x1="47.12"
       y1="-61.43"
       x2="36.73"
       y2="-59.88">
      <stop
         offset="0"
         stop-color="#a5a0a0"
         id="stop57" />
      <stop
         offset="1"
         stop-color="#474747"
         id="stop59" />
    </linearGradient>
    <path
       style="fill:url(#gradient6)"
       d="M52 57L55 54V17L52 20V57z"
       transform="matrix(1,0,0,1,-4,-2)"
       id="path61" />
    <linearGradient
       id="gradient7"
       gradientUnits="userSpaceOnUse"
       x1="111.38"
       y1="-24.02"
       x2="117.24"
       y2="4">
      <stop
         offset="0"
         stop-color="#ffffff"
         id="stop64" />
      <stop
         offset="1"
         stop-color="#d3d3d3"
         id="stop66" />
    </linearGradient>
    <path
       style="fill:url(#gradient7)"
       d="M16.93 5.43L14 7L52 20L55 17L16.93 5.43z"
       transform="matrix(1,0,0,1,-4,-2)"
       id="path68" />
    <path
       style="fill:#000000"
       d="M30 41C28.89 41 28 41.89 28 43C28 44.1 28.89 46 30 46C31.1 46 32 45.1 32 44C32 42.89 31.1 41 30 41z"
       transform="matrix(1,0,0,1,-4,-2)"
       id="path70" />
  </g>
  <path
     inkscape:connector-curvature="0"
     id="path23"
     d="m 41.518277,18.786441 0,20.481112 c 0,0 3.161027,-1.57547 4.741539,-1.57547 1.580513,0 3.161026,-4.5216 3.161026,-4.5216 l 0,-20.685923 -7.902565,6.301881 z"
     style="fill:url(#gradient0-3)" />
  <path
     inkscape:connector-curvature="0"
     id="path60"
     d="m 14.625851,28.247139 -1.556805,1.567594 0,-20.4811126 1.620025,0.6853306 -0.06322,18.228188 z"
     style="fill:url(#gradient5-6)" />
  <path
     inkscape:connector-curvature="0"
     id="path73"
     d="M 8.327507,15.635501 9.9080199,4.6072102 c 0,0 6.3220511,-3.1509403 9.4830771,-3.1509403 3.161026,0 6.322052,1.5754701 7.902564,1.5754701 9.483078,0 19.756412,4.7264106 21.336925,6.3018808 0,0 2.370769,3.1509392 3.951282,7.8773502 1.493585,4.482213 1.580513,7.877351 1.580513,7.877351 0,0 -3.161026,0 -4.741538,1.57547 -1.580514,1.575471 0,7.877351 -7.902565,7.877351 -7.902565,0 -9.483078,-3.15094 -11.063591,-3.15094 -1.580512,0 -4.741538,0.787736 -7.902564,-2.363205 -1.580513,-1.575471 -7.902564,0.787735 -7.902564,-3.938676 0,-4.726409 -6.322052,-9.452821 -6.322052,-9.452821 z"
     style="fill:none;stroke:#010000;stroke-width:4" />
  <path
     inkscape:connector-curvature="0"
     id="path80"
     d="M 8.3275069,15.6355 9.9080198,4.6072101 c 0,0 6.3220512,-3.1509403 9.4830772,-3.1509403 3.161025,0 6.322052,1.5754702 7.902564,1.5754702 9.483078,0 19.756412,4.7264104 21.336924,6.3018804 0,0 2.37077,3.1509396 3.951282,7.8773496 1.493585,4.482213 1.580513,7.877351 1.580513,7.877351 0,0 -3.161025,0 -4.741538,1.57547 0,-4.72641 -1.580513,-15.7547 -3.161026,-15.7547 -1.580512,0 0,4.726409 -3.161026,4.726409 -1.580513,0 0,12.603763 -1.580513,18.905642 -7.902565,0 -9.483077,-3.150939 -11.06359,-3.150939 -1.580513,-9.452822 4.741539,-1.57547 6.322052,-3.15094 1.580512,-1.575472 -3.161027,-17.330172 -4.741539,-17.330172 -3.161026,0 -1.580513,6.301879 -3.161026,6.301879 -3.161025,0 -4.741539,-9.4528196 -6.322052,-7.8773496 -1.580512,1.5754706 -1.580512,14.9669656 0,19.6933766 -1.580512,-1.575471 -7.902563,0.787736 -7.902563,-3.938676 0,-4.726409 0,-17.3301706 -1.580513,-17.3301706 -1.580514,0 -1.580514,7.8773496 -1.493585,10.9337626 C 9.9712404,16.864368 8.3275069,15.6355 8.3275069,15.6355 Z"
     style="fill:url(#gradient7-5)" />
  <path
     inkscape:connector-curvature="0"
     id="path87"
     d="m 43.09879,15.6355 c 3.161026,0 1.580514,-4.726409 3.161026,-4.726409 1.580513,0 3.161026,11.02829 3.161026,15.7547 -1.580513,1.575472 0,7.877351 -7.902565,7.877351 1.580513,-6.301879 0,-18.905642 1.580513,-18.905642 z m -14.224616,1.57547 c 1.580513,0 0,-6.301879 3.161026,-6.301879 1.580512,0 6.322051,15.7547 4.741539,17.330172 -1.580513,1.57547 -7.902565,-6.301882 -6.322052,3.15094 -1.580513,0 -4.741538,0.787734 -7.902565,-2.363206 -1.580512,-4.726411 -1.580512,-18.117906 0,-19.6933766 1.580513,-1.57547 3.161027,7.8773496 6.322052,7.8773496 z M 13.069046,7.7581504 c 1.580513,0 1.580513,12.6037616 1.580513,17.3301706 0,-2.323818 -1.525196,-4.639758 -3.074098,-6.396408 C 11.488528,15.6355 11.488528,7.7581504 13.069046,7.7581504 Z"
     style="fill:url(#gradient8)" />
</svg>
