<?xml version="1.0" encoding="UTF-8" standalone="no"?>
<!-- Created with Inkscape (http://www.inkscape.org/) -->

<svg
   xmlns:dc="http://purl.org/dc/elements/1.1/"
   xmlns:cc="http://creativecommons.org/ns#"
   xmlns:rdf="http://www.w3.org/1999/02/22-rdf-syntax-ns#"
   xmlns:svg="http://www.w3.org/2000/svg"
   xmlns="http://www.w3.org/2000/svg"
   xmlns:xlink="http://www.w3.org/1999/xlink"
   xmlns:sodipodi="http://sodipodi.sourceforge.net/DTD/sodipodi-0.dtd"
   xmlns:inkscape="http://www.inkscape.org/namespaces/inkscape"
   version="1.0"
   width="48"
   height="48"
   id="svg2"
   inkscape:version="0.47 r22583"
   sodipodi:docname="gnome-dev-removable-1394.svg">
  <metadata
     id="metadata45">
    <rdf:RDF>
      <cc:Work
         rdf:about="">
        <dc:format>image/svg+xml</dc:format>
        <dc:type
           rdf:resource="http://purl.org/dc/dcmitype/StillImage" />
        <dc:title></dc:title>
      </cc:Work>
    </rdf:RDF>
  </metadata>
  <sodipodi:namedview
     pagecolor="#ffffff"
     bordercolor="#666666"
     borderopacity="1"
     objecttolerance="10"
     gridtolerance="10"
     guidetolerance="10"
     inkscape:pageopacity="0"
     inkscape:pageshadow="2"
     inkscape:window-width="1106"
     inkscape:window-height="906"
     id="namedview43"
     showgrid="false"
     inkscape:zoom="4.9166667"
     inkscape:cx="-4.627778"
     inkscape:cy="24"
     inkscape:window-x="85"
     inkscape:window-y="43"
     inkscape:window-maximized="1"
     inkscape:current-layer="svg2" />
  <defs
     id="defs4">
    <inkscape:perspective
       sodipodi:type="inkscape:persp3d"
       inkscape:vp_x="0 : 24 : 1"
       inkscape:vp_y="0 : 1000 : 0"
       inkscape:vp_z="48 : 24 : 1"
       inkscape:persp3d-origin="24 : 16 : 1"
       id="perspective47" />
    <linearGradient
       id="linearGradient2580">
      <stop
         id="stop2582"
         style="stop-color: rgb(255, 255, 255); stop-opacity: 0;"
         offset="0" />
      <stop
         id="stop2588"
         style="stop-color: rgb(255, 255, 255); stop-opacity: 1;"
         offset="0.5" />
      <stop
         id="stop2584"
         style="stop-color: rgb(153, 153, 153); stop-opacity: 1;"
         offset="1" />
    </linearGradient>
    <filter
       id="filter3370">
      <feGaussianBlur
         inkscape:collect="always"
         stdDeviation="2.1991045"
         id="feGaussianBlur3372" />
    </filter>
    <filter
       id="filter3406">
      <feGaussianBlur
         inkscape:collect="always"
         stdDeviation="0.85320467"
         id="feGaussianBlur3408" />
    </filter>
    <linearGradient
       x1="245.5"
       y1="781.12561"
       x2="368.21875"
       y2="781.12561"
       id="linearGradient3900"
       xlink:href="#linearGradient2580"
       gradientUnits="userSpaceOnUse" />
    <linearGradient
       x1="245.5"
       y1="781.12561"
       x2="368.21875"
       y2="781.12561"
       id="linearGradient4029"
       xlink:href="#linearGradient2580"
       gradientUnits="userSpaceOnUse" />
    <linearGradient
       x1="245.5"
       y1="781.12561"
       x2="368.21875"
       y2="781.12561"
       id="linearGradient4053"
       xlink:href="#linearGradient2580"
       gradientUnits="userSpaceOnUse"
       gradientTransform="matrix(0.924248, 0, 0, 0.924248, 870.545, -4.33304)" />
    <clipPath
       id="clipPath2430">
      <path
         d="M 416.1875,353.71875 C 413.91139,353.7379 411.63341,353.77663 409.375,353.84375 C 408.58161,353.86736 407.79101,353.90796 407,353.9375 C 405.12115,354.00762 403.23948,354.08386 401.375,354.1875 C 401.16683,354.19907 400.95799,354.20676 400.75,354.21874 C 400.27855,354.24593 399.81421,354.28316 399.34375,354.3125 C 398.30786,354.37705 397.28095,354.45626 396.25,354.53125 C 393.80746,354.70901 391.38134,354.91978 388.96875,355.15625 C 386.01296,355.44597 383.0619,355.77808 380.15625,356.15626 C 379.16201,356.28565 378.17541,356.42272 377.1875,356.5625 C 376.72981,356.62727 376.2688,356.683 375.8125,356.75 C 375.41343,356.80861 375.02299,356.87718 374.625,356.9375 C 373.58354,357.09529 372.53387,357.23676 371.5,357.40626 C 371.33311,357.43363 371.16669,357.47232 371,357.5 C 370.2771,357.61999 369.56279,357.74926 368.84375,357.875 C 368.36526,357.95871 367.883,358.03875 367.40625,358.125 C 367.3541,358.13443 367.30213,358.14679 367.25,358.15625 C 364.56943,358.64296 361.90373,359.15128 359.28125,359.71875 C 359.14549,359.74813 359.0106,359.78291 358.875,359.8125 C 358.18838,359.96235 357.4949,360.12584 356.8125,360.28125 C 355.76727,360.51935 354.72256,360.78008 353.6875,361.03125 C 352.99656,361.19895 352.31129,361.35772 351.625,361.53125 C 351.31277,361.61017 350.99876,361.70113 350.68751,361.78125 C 350.0493,361.94562 349.41529,362.1118 348.78125,362.28125 C 348.08148,362.4682 347.3821,362.65061 346.6875,362.84375 C 346.65592,362.85253 346.62531,362.8662 346.59375,362.875 C 346.30891,362.95435 346.03396,363.04461 345.75,363.125 C 343.80279,363.6764 341.87314,364.24319 339.96876,364.84375 C 339.35271,365.03797 338.7364,365.23813 338.125,365.4375 C 337.08992,365.77518 336.05273,366.11628 335.03125,366.46875 C 334.12161,366.78263 333.21108,367.11187 332.3125,367.4375 C 331.69489,367.66127 331.08103,367.89568 330.46875,368.12501 C 330.42889,368.13993 330.38359,368.14129 330.34375,368.15625 C 329.40917,368.50704 328.48437,368.85499 327.5625,369.21875 C 326.36574,369.69098 325.17474,370.16212 323.99999,370.65625 C 323.37891,370.91754 322.77104,371.20132 322.15625,371.46875 C 321.79211,371.62713 321.4244,371.77697 321.0625,371.9375 C 320.5471,372.16612 320.04206,372.42326 319.53125,372.65625 C 319.08643,372.85915 318.6288,373.04378 318.18751,373.25 C 317.75043,373.45424 317.30859,373.66751 316.875,373.875 C 315.72397,374.42602 314.59467,374.9885 313.46875,375.5625 C 312.83693,375.88461 312.21749,376.23315 311.59375,376.5625 C 311.1081,376.81887 310.60569,377.05174 310.125,377.3125 C 309.02993,377.9067 307.94378,378.50794 306.875,379.125 C 306.87499,379.12499 26.34375,541.15625 26.34375,541.15625 C 25.938447,541.39025 25.536239,541.63492 25.156254,541.875 C 24.778076,542.11407 24.415598,542.3489 24.0625,542.59375 C 23.705961,542.84099 23.362265,543.09088 23.03125,543.34375 C 22.703957,543.59378 22.39615,543.83846 22.093753,544.09375 C 21.787947,544.35192 21.499139,544.61171 21.218749,544.875 C 21.001892,545.07863 20.764174,545.29344 20.562496,545.5 C 20.507619,545.55619 20.460002,545.6311 20.40625,545.6875 C 20.170588,545.93529 19.932784,546.15452 19.718751,546.40625 C 19.473492,546.69428 19.248249,547.0196 19.031251,547.3125 C 19.014405,547.33531 18.98543,547.35215 18.968746,547.37499 C 18.784629,547.62656 18.632126,547.87008 18.46875,548.125 C 18.292445,548.39998 18.120943,548.65884 17.968754,548.9375 C 17.960077,548.95335 17.977345,548.98413 17.968754,549 C 17.822733,549.27005 17.685952,549.53924 17.5625,549.8125 C 17.552762,549.83389 17.54085,549.85359 17.531253,549.875 C 17.410571,550.14616 17.286037,550.41341 17.187503,550.68751 C 17.08608,550.9696 16.984256,551.24629 16.906247,551.53125 C 16.898316,551.56012 16.913951,551.59611 16.906247,551.625 C 16.687842,552.44888 16.555064,553.2812 16.53125,554.125 C 16.529995,554.16624 16.53204,554.20871 16.53125,554.25 C 16.530363,554.30267 16.53138,554.35351 16.53125,554.40625 L 16.53125,696.03125 C 16.450038,702.32921 21.753216,709.09596 32.250002,715.15625 C 32.250023,715.15627 277.21875,856.59375 277.21875,856.59375 C 295.77646,867.30803 318.14633,868.67435 333.0625,860.0625 C 333.06251,860.06248 613.71875,698.03125 613.71875,698.03125 C 643.35687,680.91966 657.76419,657.90305 657.75,633.3125 L 657.75,493.1875 C 657.77191,492.33072 657.76333,491.48566 657.75,490.625 C 657.74952,490.59396 657.75053,490.5623 657.75,490.53125 C 657.73485,489.63896 657.70919,488.73978 657.65625,487.84375 C 657.61634,487.16797 657.56137,486.49021 657.5,485.8125 C 657.48016,485.59339 657.45958,485.37555 657.4375,485.15625 C 657.41772,484.96005 657.39657,484.75884 657.375,484.5625 C 657.36357,484.45848 657.35568,484.35406 657.34375,484.25 C 657.24129,483.35601 657.10829,482.45923 656.96875,481.5625 C 656.96716,481.55232 656.97034,481.54144 656.96875,481.53125 C 656.87622,480.9395 656.7649,480.3428 656.65625,479.75 C 656.52866,479.05387 656.39979,478.35365 656.25,477.65625 C 656.09013,476.91208 655.90385,476.15164 655.71875,475.40625 C 655.62576,475.0321 655.53684,474.65566 655.4375,474.28125 C 655.266,473.63406 655.0967,472.99161 654.90625,472.34375 C 654.89706,472.31254 654.88423,472.28122 654.875,472.25 C 654.68019,471.59052 654.46441,470.94127 654.25,470.28125 C 654.13886,469.93912 654.05391,469.59224 653.9375,469.25 C 653.89098,469.11321 653.82861,468.98053 653.78125,468.84375 C 653.56286,468.2131 653.32998,467.56839 653.09375,466.9375 C 652.98803,466.65532 652.89054,466.37596 652.78125,466.09375 C 652.42871,465.18265 652.04591,464.28612 651.65625,463.375 C 651.34052,462.63678 651.02754,461.89424 650.6875,461.15625 C 650.60516,460.97756 650.52126,460.80367 650.4375,460.625 C 650.34508,460.42773 650.25041,460.22849 650.15625,460.03124 C 649.81906,459.32552 649.45313,458.61147 649.09375,457.90625 C 648.63226,457.00066 648.15427,456.09189 647.65625,455.1875 C 647.17432,454.31233 646.67232,453.43616 646.15625,452.5625 C 646.13725,452.53034 646.1128,452.50092 646.09375,452.46875 C 645.76719,451.91749 645.43389,451.36304 645.09375,450.8125 C 644.87662,450.46097 644.66016,450.1012 644.4375,449.75 C 644.28594,449.51106 644.12287,449.27003 643.96875,449.03125 C 643.53745,448.3628 643.10757,447.69833 642.65625,447.03124 C 642.13688,446.26369 641.60833,445.48426 641.0625,444.71875 C 640.96792,444.58615 640.87663,444.44504 640.78125,444.3125 C 640.14721,443.43125 639.48156,442.56561 638.8125,441.6875 C 638.79882,441.66955 638.79494,441.64295 638.78125,441.625 C 638.02663,440.63576 637.23648,439.64096 636.4375,438.65625 C 636.26707,438.44626 636.07869,438.24101 635.90625,438.03124 C 635.25011,437.233 634.59153,436.45112 633.90625,435.65625 C 633.32532,434.98233 632.72683,434.29629 632.125,433.625 C 631.8379,433.30487 631.54185,432.97575 631.25,432.65625 C 630.73692,432.09451 630.21525,431.52846 629.6875,430.96875 C 629.28545,430.54242 628.8793,430.1126 628.46875,429.6875 C 628.03766,429.24117 627.5967,428.78867 627.15625,428.34375 C 626.62889,427.81115 626.07201,427.28049 625.53125,426.75 C 624.53096,425.7687 623.5148,424.78613 622.46875,423.8125 C 621.7182,423.11391 620.96157,422.41313 620.1875,421.71876 C 619.88508,421.44748 619.58725,421.17687 619.28125,420.90625 C 619.14966,420.78989 619.00725,420.67873 618.875,420.5625 C 618.33078,420.08418 617.77418,419.60116 617.21875,419.125 C 616.78049,418.74932 616.35148,418.3743 615.90625,418 C 614.78712,417.0591 613.63185,416.11927 612.46875,415.1875 C 611.53909,414.443 610.58268,413.67583 609.625,412.93751 C 609.3668,412.73841 609.10398,412.54238 608.84375,412.34375 C 608.02287,411.71731 607.18485,411.09048 606.34375,410.46875 C 605.93414,410.16601 605.50815,409.8641 605.09375,409.5625 C 605.08693,409.55754 605.06932,409.56746 605.0625,409.5625 C 603.80129,408.64484 602.52424,407.71915 601.21875,406.8125 C 600.0099,405.97297 598.77798,405.14213 597.53125,404.3125 C 597.41358,404.2342 597.30551,404.14071 597.1875,404.0625 C 596.73211,403.76068 596.27291,403.45671 595.8125,403.15625 C 594.90479,402.56393 593.98968,401.9619 593.0625,401.375 C 592.74601,401.17471 592.4125,400.98091 592.09375,400.78125 C 590.99423,400.09255 589.87645,399.43085 588.75,398.75 C 587.29936,397.8732 585.83895,396.98826 584.34375,396.125 C 582.80434,395.23622 581.25179,394.36152 579.6875,393.5 C 578.13141,392.64299 576.54836,391.79872 574.96875,390.96875 C 574.03474,390.47797 573.09817,389.98132 572.15625,389.5 C 571.50458,389.16711 570.84287,388.82835 570.1875,388.5 C 569.45084,388.13083 568.70998,387.76967 567.96875,387.40625 C 567.09655,386.97867 566.22212,386.54461 565.34375,386.125 C 564.81379,385.8718 564.28216,385.6253 563.75,385.375 C 562.64844,384.85694 561.54821,384.34937 560.4375,383.84375 C 560.12418,383.7011 559.81404,383.54791 559.5,383.40626 C 558.16443,382.8039 556.81682,382.20941 555.46875,381.625 C 555.3748,381.58427 555.28151,381.54065 555.1875,381.5 C 553.6119,380.81885 552.02923,380.1566 550.4375,379.5 C 549.39404,379.06949 548.3313,378.66995 547.28125,378.25 C 546.63392,377.99117 545.99351,377.72356 545.34375,377.46875 C 544.24233,377.0367 543.13941,376.60798 542.03125,376.1875 C 541.42859,375.95892 540.82333,375.72515 540.21875,375.5 C 539.33789,375.17184 538.44732,374.85213 537.5625,374.53125 C 536.72162,374.22643 535.87557,373.92325 535.03125,373.625 C 534.377,373.39381 533.71875,373.16474 533.0625,372.9375 C 532.92891,372.89126 532.78992,372.85857 532.65625,372.8125 C 531.28303,372.33898 529.91276,371.86243 528.53125,371.40625 C 527.21413,370.97149 525.88667,370.54397 524.5625,370.125 C 524.3653,370.06259 524.1661,369.99956 523.96875,369.9375 C 522.39551,369.4429 520.83235,368.9723 519.25,368.5 C 517.92796,368.10518 516.60915,367.72297 515.28125,367.34375 C 514.83185,367.21546 514.38753,367.06401 513.9375,366.9375 C 512.6845,366.58517 511.41391,366.2447 510.15625,365.90625 C 508.60735,365.48942 507.05532,365.08322 505.5,364.6875 C 504.72722,364.49096 503.96174,364.28507 503.1875,364.09375 C 502.40715,363.90084 501.62548,363.71886 500.84375,363.53125 C 499.82514,363.28691 498.80204,363.04783 497.78125,362.8125 C 497.24081,362.68786 496.69726,362.55961 496.15625,362.4375 C 494.88417,362.15051 493.61869,361.86674 492.34375,361.59375 C 492.05177,361.53119 491.76087,361.46808 491.46875,361.40626 C 489.95275,361.08562 488.42557,360.76956 486.90625,360.46875 C 486.85424,360.45845 486.80202,360.44778 486.75,360.4375 C 485.1786,360.1271 483.60547,359.85165 482.03125,359.5625 C 480.85,359.34537 479.68249,359.14264 478.5,358.9375 C 478.10132,358.86834 477.71129,358.78655 477.3125,358.71875 C 476.87678,358.64471 476.43584,358.5724 476,358.5 C 474.85347,358.30947 473.70971,358.11674 472.5625,357.9375 C 471.88256,357.83126 471.21136,357.72727 470.53125,357.625 C 469.64004,357.49097 468.73513,357.37721 467.84375,357.25 C 466.90837,357.11658 465.96666,356.96965 465.03125,356.84376 C 464.38444,356.75664 463.74052,356.67726 463.09375,356.59375 C 461.51539,356.39003 459.9526,356.21349 458.375,356.03125 C 456.80105,355.84931 455.22875,355.66052 453.65625,355.5 C 451.98598,355.32967 450.29279,355.17737 448.625,355.03125 C 448.20689,354.9946 447.79292,354.97262 447.375,354.9375 C 445.9767,354.82001 444.58336,354.69416 443.1875,354.59375 C 441.4008,354.46522 439.6255,354.3505 437.84375,354.25 C 437.81272,354.24825 437.78102,354.25174 437.75,354.25 C 436.76148,354.19452 435.76799,354.14058 434.78125,354.09375 C 434.69746,354.08977 434.61502,354.09767 434.53125,354.09375 C 433.06265,354.02513 431.58913,353.95567 430.125,353.90625 C 429.05508,353.87019 427.9735,353.83829 426.90625,353.8125 C 426.4152,353.80062 425.92796,353.79095 425.4375,353.78125 C 424.12642,353.75529 422.83774,353.72915 421.53125,353.71875 C 419.74274,353.70447 417.96648,353.70377 416.1875,353.71875 z"
         id="path2432"
         style="overflow: visible; marker: none; opacity: 0.8; fill: rgb(0, 0, 0); fill-opacity: 1; fill-rule: evenodd; stroke: none; stroke-width: 3; stroke-linecap: round; stroke-linejoin: round; stroke-miterlimit: 4; stroke-dasharray: none; stroke-dashoffset: 0pt; stroke-opacity: 1; visibility: visible; display: inline;" />
    </clipPath>
    <linearGradient
       x1="245.5"
       y1="781.12561"
       x2="368.21875"
       y2="781.12561"
       id="linearGradient2649"
       xlink:href="#linearGradient2580"
       gradientUnits="userSpaceOnUse"
       gradientTransform="matrix(0.0544869, 0, 0, 0.0544869, 10.6239, -11.6372)" />
    <inkscape:perspective
       id="perspective3168"
       inkscape:persp3d-origin="0.5 : 0.33333333 : 1"
       inkscape:vp_z="1 : 0.5 : 1"
       inkscape:vp_y="0 : 1000 : 0"
       inkscape:vp_x="0 : 0.5 : 1"
       sodipodi:type="inkscape:persp3d" />
    <linearGradient
       inkscape:collect="always"
       xlink:href="#linearGradient2580"
       id="linearGradient3200"
       gradientUnits="userSpaceOnUse"
       gradientTransform="matrix(0.0544869,0,0,0.0544869,10.6239,-11.6372)"
       x1="245.5"
       y1="781.12561"
       x2="368.21875"
       y2="781.12561" />
    <linearGradient
       inkscape:collect="always"
       xlink:href="#linearGradient2580"
       id="linearGradient3225"
       gradientUnits="userSpaceOnUse"
       gradientTransform="matrix(0.0544869,0,0,0.0544869,10.6239,-11.6372)"
       x1="245.5"
       y1="781.12561"
       x2="368.21875"
       y2="781.12561" />
  </defs>
  <path
     style="fill:#999999;fill-opacity:1;fill-rule:evenodd;stroke:none;stroke-width:3;marker:none;visibility:visible;display:inline;overflow:visible"
     id="path2572"
     d="m 33.300626,7.6358019 c -2.263477,0.019044 -4.376773,0.4724832 -5.9561,1.384308 -10e-7,-5e-7 -15.28528,8.8285811 -15.28528,8.8285811 -0.35334,0.204002 -0.530006,0.451242 -0.53502,0.713376 l -6e-5,7.725556 c -0.0044,0.343157 0.284956,0.711583 0.856893,1.04179 10e-7,1e-6 13.347589,7.706491 13.347589,7.706491 1.011152,0.583789 2.230017,0.658235 3.042754,0.189002 0,-10e-7 15.29209,-8.828581 15.29209,-8.828581 1.61489,-0.932358 2.400215,-2.18686 2.399442,-3.526723 l 2.12e-4,-7.774191 C 46.435902,13.343731 45.070512,11.45187 42.462939,9.9463873 39.785414,8.4005175 36.402427,7.6097043 33.300626,7.6358019 z" />
  <path
     style="opacity:0.3;fill:url(#linearGradient3225);fill-opacity:1;fill-rule:evenodd;stroke:none;stroke-width:3;marker:none;visibility:visible;display:inline;overflow:visible"
     id="rect2385"
     d="m 24.000392,26.316297 0,7.721816 c 0.389593,0.22494 1.728256,0.997791 1.728256,0.997791 1.011152,0.583789 2.230017,0.658235 3.042754,0.189002 0,0 1.495916,-0.862793 1.915555,-1.105062 l 0,-7.721817 c -0.419639,0.242271 -1.915555,1.105063 -1.915555,1.105063 -0.812737,0.469233 -2.031602,0.394787 -3.042754,-0.189002 0,0 -1.338663,-0.772852 -1.728256,-0.997791 z" />
  <path
     style="fill:#cccccc;fill-opacity:1;fill-rule:evenodd;stroke:none;stroke-width:3;marker:none;visibility:visible;display:inline;overflow:visible"
     id="path2426"
     d="m 12.381516,19.607393 c 0,0 13.347205,7.706014 13.347205,7.706014 1.011153,0.583789 2.230135,0.658394 3.042871,0.189161 0,0 15.291902,-8.828785 15.291902,-8.828785 3.74359,-2.161361 3.030765,-6.053914 -1.600629,-8.7278518 -4.631394,-2.6739362 -11.3756,-3.0867017 -15.11919,-0.9253396 0,0 -15.28521,8.8273524 -15.28521,8.8273524 -0.817322,0.471881 -0.688102,1.175661 0.323051,1.759449 0,0 0,0 0,0" />
  <path
     style="fill:none;stroke:#ffffff;stroke-width:4;stroke-linecap:butt;stroke-linejoin:miter;stroke-opacity:1;filter:url(#filter3370)"
     id="path2590"
     clip-path="url(#clipPath2430)"
     transform="matrix(0.0544869,0,0,0.0544869,10.6239,-11.6372)"
     d="m 657.73359,493.6341 c -1.39,24.61176 -14.49867,40.85305 -31.42179,54.36973 L 338.38078,715.27626 c -28.68882,16.4473 -44.44277,6.96355 -63.97125,-2.02311 L 41.305041,577.91239 C 9.2452383,562.10452 13.43114,551.05018 26.366202,541.14328" />
  <path
     style="opacity:0.8;fill:#000080;fill-opacity:1;fill-rule:evenodd;stroke:none;stroke-width:3;marker:none;visibility:visible;display:inline;overflow:visible"
     id="path3391"
     d="m 33.300626,7.6358019 c -0.124019,0.00104 -0.248139,0.00315 -0.371193,0.00681 -0.04323,0.00129 -0.08631,0.0035 -0.129406,0.00511 -0.102373,0.00382 -0.204899,0.00797 -0.306489,0.013622 -0.01134,6.304e-4 -0.02272,0.00105 -0.03405,0.0017 -0.02569,0.00148 -0.05099,0.00351 -0.07662,0.00511 -0.05644,0.00352 -0.112396,0.00783 -0.168569,0.011919 -0.133087,0.00969 -0.265279,0.02117 -0.396733,0.034054 -0.161052,0.015786 -0.321846,0.033882 -0.480166,0.054487 -0.05417,0.00705 -0.10793,0.014519 -0.161758,0.022135 -0.02494,0.00353 -0.05006,0.00657 -0.07492,0.010216 -0.02174,0.00319 -0.04302,0.00693 -0.0647,0.010216 -0.05674,0.0086 -0.113939,0.016305 -0.170271,0.025541 -0.0091,0.00149 -0.01816,0.0036 -0.02724,0.00511 -0.03939,0.00654 -0.07831,0.013581 -0.117488,0.020433 -0.02607,0.00456 -0.05235,0.00892 -0.07832,0.013622 -0.0028,5.138e-4 -0.0057,0.00119 -0.0085,0.0017 -0.146056,0.026519 -0.291302,0.054216 -0.434193,0.085136 -0.0074,0.0016 -0.01475,0.0035 -0.02213,0.00511 -0.03741,0.00816 -0.0752,0.017073 -0.11238,0.025541 -0.05695,0.012973 -0.113874,0.02718 -0.170271,0.040865 -0.03765,0.00914 -0.07499,0.017788 -0.112379,0.027243 -0.01701,0.0043 -0.03412,0.00926 -0.05108,0.013622 -0.03477,0.00896 -0.06932,0.018011 -0.103866,0.027244 -0.03813,0.010186 -0.07624,0.020125 -0.114083,0.030649 -0.0017,4.784e-4 -0.0034,0.00122 -0.0051,0.0017 -0.01552,0.00432 -0.0305,0.00924 -0.04597,0.013622 -0.106097,0.030045 -0.211238,0.060927 -0.315002,0.093649 -0.03357,0.010582 -0.06715,0.021489 -0.100461,0.032352 -0.0564,0.018399 -0.112911,0.036985 -0.168569,0.05619 -0.04956,0.017102 -0.09918,0.035042 -0.148136,0.052784 -0.03365,0.012192 -0.0671,0.024965 -0.10046,0.03746 -0.0022,8.134e-4 -0.0046,8.876e-4 -0.0068,0.0017 -0.05092,0.019113 -0.101312,0.038072 -0.151541,0.057892 -0.06521,0.02573 -0.130102,0.051401 -0.19411,0.078325 -0.03384,0.014237 -0.06696,0.0297 -0.10046,0.044271 -0.01984,0.00863 -0.03988,0.016794 -0.0596,0.025541 -0.02808,0.012457 -0.0556,0.026468 -0.08343,0.039162 -0.02424,0.011055 -0.04917,0.021115 -0.07322,0.032352 -0.02382,0.011128 -0.04789,0.022749 -0.07151,0.034054 -0.06272,0.030023 -0.124248,0.060671 -0.185596,0.091947 -0.03443,0.017551 -0.06818,0.036542 -0.102163,0.054487 -0.02646,0.013968 -0.05384,0.026657 -0.08003,0.040865 -0.05967,0.032376 -0.118848,0.065136 -0.177082,0.098757 -1e-6,-5e-7 -15.28528,8.8285811 -15.28528,8.8285811 -0.02208,0.01275 -0.044,0.02608 -0.0647,0.03916 -0.02061,0.01303 -0.04036,0.02582 -0.05959,0.03916 -0.01943,0.01347 -0.03815,0.02709 -0.05619,0.04086 -0.01783,0.01362 -0.0346,0.02696 -0.05108,0.04087 -0.01666,0.01407 -0.0324,0.02822 -0.04768,0.04257 -0.01181,0.0111 -0.02477,0.0228 -0.03576,0.03405 -0.003,0.0031 -0.0056,0.0071 -0.0085,0.01022 -0.01284,0.0135 -0.0258,0.02545 -0.03746,0.03916 -0.01336,0.01569 -0.02564,0.03342 -0.03746,0.04938 -9.17e-4,0.0012 -0.0025,0.0022 -0.0034,0.0034 -0.01003,0.01371 -0.01834,0.02698 -0.02724,0.04087 -0.0096,0.01498 -0.01895,0.02909 -0.02724,0.04427 -4.72e-4,8.64e-4 4.68e-4,0.0025 0,0.0034 -0.008,0.01471 -0.01541,0.02938 -0.02214,0.04427 -5.31e-4,0.0012 -0.0012,0.0022 -0.0017,0.0034 -0.0066,0.01478 -0.01336,0.02934 -0.01873,0.04427 -0.0055,0.01537 -0.01107,0.03045 -0.01532,0.04597 -4.33e-4,0.0016 4.19e-4,0.0035 0,0.0051 -0.0119,0.04489 -0.01914,0.09024 -0.02043,0.136218 -6.8e-5,0.0022 4.3e-5,0.0046 0,0.0068 -4.8e-5,0.0029 7e-6,0.0056 0,0.0085 l 0,7.716708 c -0.0044,0.343156 0.284529,0.711855 0.856466,1.042062 10e-7,1e-6 13.347589,7.706491 13.347589,7.706491 1.011152,0.583789 2.230017,0.658235 3.042754,0.189002 0,-10e-7 15.29209,-8.828581 15.29209,-8.828581 1.61489,-0.932358 2.3999,-2.186462 2.399127,-3.526325 l 0,-7.634977 c 0.0012,-0.04668 7.26e-4,-0.09273 0,-0.139623 -2.6e-5,-0.0017 2.9e-5,-0.0034 0,-0.0051 -8.26e-4,-0.04862 -0.0022,-0.09761 -0.0051,-0.146434 -0.0022,-0.03682 -0.0052,-0.07375 -0.0085,-0.110676 -0.0011,-0.01194 -0.0022,-0.02381 -0.0034,-0.03576 -0.0011,-0.01069 -0.0022,-0.02165 -0.0034,-0.03235 -6.23e-4,-0.0057 -0.0011,-0.01136 -0.0017,-0.01703 -0.0056,-0.04871 -0.01283,-0.09757 -0.02043,-0.146434 -8.7e-5,-5.55e-4 8.6e-5,-0.0011 0,-0.0017 -0.005,-0.03224 -0.01111,-0.06475 -0.01703,-0.09705 -0.007,-0.03793 -0.01397,-0.07608 -0.02214,-0.114082 -0.0087,-0.04055 -0.01886,-0.08198 -0.02895,-0.122596 -0.0051,-0.02039 -0.0099,-0.0409 -0.01532,-0.0613 -0.0093,-0.03526 -0.01857,-0.07027 -0.02895,-0.105568 -5.01e-4,-0.0017 -0.0012,-0.0034 -0.0017,-0.0051 -0.01061,-0.03593 -0.02237,-0.07131 -0.03405,-0.107271 -0.0061,-0.01864 -0.01069,-0.03754 -0.01703,-0.05619 -0.0025,-0.0075 -0.0059,-0.01468 -0.0085,-0.02214 -0.0119,-0.03436 -0.02459,-0.06949 -0.03746,-0.103866 -0.0058,-0.01538 -0.01107,-0.0306 -0.01703,-0.04597 -0.01921,-0.04964 -0.04007,-0.09849 -0.0613,-0.148136 -0.0172,-0.04022 -0.03426,-0.08068 -0.05278,-0.120893 -0.0045,-0.0097 -0.0091,-0.01921 -0.01362,-0.02895 -0.005,-0.01075 -0.01019,-0.02161 -0.01532,-0.03235 -0.01837,-0.03845 -0.03831,-0.07736 -0.05789,-0.115785 -0.02515,-0.04934 -0.05119,-0.09886 -0.07832,-0.148136 -0.02626,-0.04768 -0.05361,-0.09542 -0.08173,-0.143028 -0.001,-0.0018 -0.0024,-0.0034 -0.0034,-0.0051 -0.01779,-0.03004 -0.03595,-0.06025 -0.05449,-0.09024 -0.01183,-0.01915 -0.02362,-0.03876 -0.03576,-0.05789 -0.0083,-0.01302 -0.01714,-0.02615 -0.02554,-0.03916 -0.0235,-0.03642 -0.04692,-0.07263 -0.07151,-0.108974 -0.0283,-0.04182 -0.0571,-0.08429 -0.08684,-0.126001 -0.0052,-0.0072 -0.01013,-0.01491 -0.01532,-0.02214 -0.03455,-0.04802 -0.07082,-0.09518 -0.107271,-0.143028 -7.45e-4,-9.78e-4 -9.57e-4,-0.0024 -0.0017,-0.0034 -0.04112,-0.0539 -0.08417,-0.108104 -0.127703,-0.161759 -0.0093,-0.01144 -0.01955,-0.02262 -0.02895,-0.03405 -0.03575,-0.04349 -0.07163,-0.0861 -0.108973,-0.129406 -0.03165,-0.03672 -0.06426,-0.0741 -0.09705,-0.110677 -0.01564,-0.01744 -0.03177,-0.03538 -0.04768,-0.05278 -0.02796,-0.03061 -0.05638,-0.06145 -0.08514,-0.09195 -0.02191,-0.02323 -0.04404,-0.04665 -0.06641,-0.06981 -0.02349,-0.02432 -0.04751,-0.04897 -0.07151,-0.07322 -0.02873,-0.02902 -0.05908,-0.05793 -0.08854,-0.08684 -0.0545,-0.05347 -0.10987,-0.107005 -0.166866,-0.160056 -0.0409,-0.03806 -0.08212,-0.07625 -0.124299,-0.114081 -0.01648,-0.01478 -0.0327,-0.02953 -0.04938,-0.04427 -0.0072,-0.0063 -0.01493,-0.0124 -0.02214,-0.01873 -0.02965,-0.02606 -0.05998,-0.05238 -0.09024,-0.07832 -0.02388,-0.02047 -0.04725,-0.0409 -0.07151,-0.0613 -0.06098,-0.05127 -0.123925,-0.102475 -0.187298,-0.153244 -0.05065,-0.04057 -0.102767,-0.08237 -0.154948,-0.122596 -0.01407,-0.01085 -0.02839,-0.02153 -0.04257,-0.03235 -0.04473,-0.03413 -0.09039,-0.06829 -0.136218,-0.102163 -0.02232,-0.0165 -0.04553,-0.03295 -0.06811,-0.04938 -3.72e-4,-2.7e-4 -0.0013,2.7e-4 -0.0017,0 -0.06872,-0.05 -0.138302,-0.100438 -0.209434,-0.149839 -0.06587,-0.04574 -0.13299,-0.09101 -0.200921,-0.136217 -0.0064,-0.0043 -0.0123,-0.0094 -0.01873,-0.01362 -0.02481,-0.01644 -0.04983,-0.03301 -0.07492,-0.04938 -0.04946,-0.03227 -0.09932,-0.06508 -0.149839,-0.09705 -0.01725,-0.01091 -0.03542,-0.02147 -0.05278,-0.03235 -0.05991,-0.03753 -0.120814,-0.07358 -0.182191,-0.110677 -0.07904,-0.04777 -0.158614,-0.095991 -0.240083,-0.1430277 -0.08388,-0.048427 -0.168471,-0.096087 -0.253704,-0.1430281 -0.08479,-0.046696 -0.171042,-0.092697 -0.25711,-0.13792 -0.05089,-0.026741 -0.101923,-0.053802 -0.153245,-0.080028 -0.03551,-0.018138 -0.07156,-0.036596 -0.107271,-0.054487 -0.04014,-0.020115 -0.08051,-0.039793 -0.120893,-0.059595 -0.04752,-0.023297 -0.09517,-0.046948 -0.143028,-0.069811 -0.02888,-0.013796 -0.05784,-0.027227 -0.08684,-0.040865 -0.06002,-0.028227 -0.119969,-0.055883 -0.180488,-0.083433 -0.01707,-0.00777 -0.03397,-0.016119 -0.05108,-0.023838 -0.07277,-0.032821 -0.146198,-0.065212 -0.21965,-0.097055 -0.0051,-0.00222 -0.0102,-0.0046 -0.01532,-0.00681 -0.08585,-0.037114 -0.172084,-0.073198 -0.258812,-0.1089738 -0.05685,-0.023458 -0.114761,-0.045227 -0.171975,-0.068109 -0.03527,-0.014103 -0.07016,-0.028684 -0.105568,-0.042568 -0.06001,-0.023541 -0.120108,-0.046901 -0.180488,-0.069811 -0.03284,-0.012455 -0.06582,-0.025192 -0.09876,-0.03746 -0.048,-0.017881 -0.09652,-0.0353 -0.144731,-0.052784 -0.04582,-0.016609 -0.09192,-0.033129 -0.13792,-0.049379 -0.03565,-0.012597 -0.07151,-0.025078 -0.107271,-0.03746 -0.0073,-0.00252 -0.01485,-0.0043 -0.02214,-0.00681 -0.07482,-0.025801 -0.149484,-0.051766 -0.224758,-0.076622 -0.07177,-0.023689 -0.144095,-0.046983 -0.216245,-0.069811 -0.01075,-0.0034 -0.0216,-0.00683 -0.03235,-0.010216 -0.08572,-0.026949 -0.170892,-0.052591 -0.25711,-0.078325 -0.07203,-0.021513 -0.143891,-0.042338 -0.216245,-0.063001 -0.02449,-0.00699 -0.0487,-0.015242 -0.07322,-0.022135 -0.06827,-0.019197 -0.137503,-0.037749 -0.206029,-0.05619 -0.0844,-0.022711 -0.16896,-0.044844 -0.253705,-0.066406 -0.04211,-0.010709 -0.08382,-0.021927 -0.126001,-0.032352 -0.04252,-0.010511 -0.08511,-0.020427 -0.127703,-0.030649 -0.0555,-0.013313 -0.111247,-0.02634 -0.166867,-0.039162 -0.02945,-0.00679 -0.05906,-0.013779 -0.08854,-0.020433 -0.06931,-0.015637 -0.138263,-0.031099 -0.207731,-0.045973 -0.01591,-0.00341 -0.03176,-0.00685 -0.04768,-0.010216 -0.0826,-0.01747 -0.165814,-0.034691 -0.248597,-0.051081 -0.0028,-5.613e-4 -0.0057,-0.00114 -0.0085,-0.0017 -0.08562,-0.016913 -0.171336,-0.031921 -0.25711,-0.047676 -0.06436,-0.011831 -0.127977,-0.022877 -0.192407,-0.034054 -0.02172,-0.00377 -0.04297,-0.00822 -0.0647,-0.011919 -0.02374,-0.00403 -0.04777,-0.00797 -0.07151,-0.011919 -0.06247,-0.010381 -0.124791,-0.020883 -0.187299,-0.030649 -0.03705,-0.00579 -0.07362,-0.011455 -0.110677,-0.017027 -0.04856,-0.0073 -0.09786,-0.013501 -0.146433,-0.020433 -0.05097,-0.00727 -0.102277,-0.015275 -0.153245,-0.022135 -0.03524,-0.00475 -0.07033,-0.00907 -0.105568,-0.013622 -0.086,-0.0111 -0.171152,-0.020719 -0.25711,-0.030649 -0.08576,-0.00991 -0.17143,-0.0202 -0.25711,-0.028946 -0.09101,-0.00928 -0.183265,-0.017579 -0.274137,-0.025541 -0.02278,-0.002 -0.04534,-0.00319 -0.06811,-0.00511 -0.07619,-0.0064 -0.152108,-0.013259 -0.228164,-0.01873 -0.09735,-0.007 -0.194082,-0.013255 -0.291164,-0.01873 -0.0017,-9.54e-5 -0.0034,9.48e-5 -0.0051,0 -0.05386,-0.00302 -0.107993,-0.00596 -0.161758,-0.00851 -0.0046,-2.168e-4 -0.0091,2.136e-4 -0.01362,0 -0.08002,-0.00374 -0.160307,-0.00752 -0.240083,-0.010216 -0.0583,-0.00196 -0.117229,-0.0037 -0.17538,-0.00511 -0.02676,-6.473e-4 -0.0533,-0.00117 -0.08003,-0.0017 -0.07144,-0.00141 -0.141652,-0.00284 -0.212839,-0.00341 -0.09745,-7.78e-4 -0.194233,-8.156e-4 -0.291164,0 z" />
  <path
     style="opacity:1;fill:#999999;stroke:none;fill-opacity:1"
     id="path5478"
     d="m 28.253172,13.632855 c -0.478412,0.276211 -0.489478,0.740392 -0.08491,1.144463 0,0 -2.290658,1.322511 -2.290658,1.322511 -0.05891,0.03392 -0.09684,0.07876 -0.110004,0.130027 0,0 -0.913457,3.593369 -0.913457,3.593369 0,0 -0.736083,0.424978 -0.736083,0.424978 -0.71567,-0.258031 -1.557539,-0.260633 -2.052039,0.02487 -0.602921,0.348097 -0.461592,0.994724 0.315463,1.443357 0.777057,0.448635 1.897047,0.53023 2.499969,0.182134 0.477313,-0.275577 0.487054,-0.7392 0.08531,-1.142617 0,0 0.926039,-0.53465 0.926039,-0.53465 0,0 0.005,0.0013 0.005,0.0013 0,0 5.9e-4,-0.0045 5.9e-4,-0.0045 0,0 2.056005,-1.187035 2.056005,-1.187035 0,0 0.0022,0.0029 0.0022,0.0029 0,0 5.554965,-0.47168 5.554965,-0.47168 0.08929,-0.0072 0.167598,-0.0287 0.227014,-0.06247 0,0 2.093717,-1.208808 2.093717,-1.208808 0,0 0.576047,0.332581 0.576047,0.332581 0,0 0.288024,0.166291 0.288024,0.166291 0,0 0.223479,-0.129026 0.223479,-0.129026 0,0 1.759895,-1.016076 1.759895,-1.016076 0,0 0.223479,-0.129025 0.223479,-0.129025 0,0 -0.288024,-0.16629 -0.288024,-0.16629 0,0 -2.120576,-1.224316 -2.120576,-1.224316 0,0 -0.288023,-0.16629 -0.288023,-0.16629 0,0 -0.223479,0.129025 -0.223479,0.129025 0,0 -1.759896,1.016076 -1.759896,1.016076 0,0 -0.223479,0.129026 -0.223479,0.129026 0,0 0.288025,0.166291 0.288025,0.166291 0,0 0.680456,0.392861 0.680456,0.392861 0,0 -2.002929,1.156391 -2.002929,1.156391 0,0 -3.675613,0.311627 -3.675613,0.311627 0,0 7.8888,-4.554601 7.8888,-4.554601 0,0 1.108892,0.640219 1.108892,0.640219 0,0 0.397833,0.229689 0.397833,0.229689 0,0 0.07016,-0.269155 0.07016,-0.269155 0,0 0.523302,-2.060652 0.523302,-2.060652 0,0 0.07155,-0.269962 0.07155,-0.269962 0,0 -0.467991,0.03947 -0.467991,0.03947 0,0 -3.57235,0.301895 -3.57235,0.301895 0,0 -0.466192,0.04051 -0.466192,0.04051 0,0 0.397833,0.229689 0.397833,0.229689 0,0 1.072889,0.619433 1.072889,0.619433 0,0 -10.118,5.84163 -10.118,5.84163 0,0 0.63605,-2.50198 0.63605,-2.50198 0,0 2.187299,-1.262838 2.187299,-1.262838 0.714661,0.256366 1.553617,0.25874 2.047043,-0.02614 0.602921,-0.348097 0.463393,-0.993686 -0.313664,-1.442319 -0.777056,-0.448634 -1.897047,-0.530229 -2.499969,-0.182133 0,0 0,0 0,0" />
  <path
     style="fill:none;stroke:#000000;stroke-width:1.39999998;stroke-linecap:round;stroke-linejoin:round;stroke-miterlimit:4;stroke-opacity:1;stroke-dasharray:none;stroke-dashoffset:0;marker:none;visibility:visible;display:inline;overflow:visible"
     id="path3983"
     d="m 33.129941,7.0503773 c -2.566939,0.00944 -5.143011,0.7214699 -7.26711,2.1782198 -4.802041,2.7932829 -9.642878,5.5229319 -14.416433,8.3632619 -0.668541,0.588731 -0.428928,1.562657 -0.458726,2.34337 0,0.58093 0,1.161859 0,1.742789 -3.3043165,1.921681 -6.6331702,3.7863 -9.9114243,5.755258 -0.38967265,0.615468 -0.0886637,1.38347 -0.17897096,2.063335 0.035114,1.468429 -0.10784042,2.956404 0.0838361,4.412395 0.55357066,0.603167 1.38596396,0.823839 2.04224446,1.294798 3.3348787,1.908054 6.6422542,3.870682 9.9926567,5.744381 0.724739,0.04761 1.214134,-0.591889 1.841981,-0.84379 3.087745,-1.78331 6.17549,-3.56662 9.263235,-5.349929 1.189796,0.718458 2.513102,1.593209 3.973781,1.328278 1.293644,-0.264212 2.29846,-1.194846 3.461793,-1.759967 4.540599,-2.64793 9.135459,-5.208375 13.633939,-7.924981 1.26445,-0.922399 2.096853,-2.495362 1.91334,-4.080502 -0.03981,-2.650831 0.09416,-5.30877 -0.07604,-7.954938 C 46.575286,12.196959 44.804048,10.625626 42.976886,9.5429715 40.025007,7.7810222 36.54969,7.0162588 33.129941,7.0503773 z" />
  <g
     id="g3601"
     transform="matrix(0.0544869,0,0,0.0544869,10.6239,-11.6372)">
    <path
       style="fill:#808080;fill-rule:evenodd;stroke:none"
       id="path2544"
       d="M -168.77267,830.90549 46.028909,954.92124 260.83049,830.90549 46.028909,706.88974 -168.77267,830.90549 z" />
    <path
       style="fill:#4d4d4d;fill-opacity:1;fill-rule:evenodd;stroke:none"
       id="path2443"
       d="m -165.70407,829.13384 217.870167,-125.78741 0,-99.21259 -217.870167,125.7874 0,99.2126 z" />
    <path
       style="fill:#b3b3b3;fill-rule:evenodd;stroke:none"
       id="path2451"
       d="m 30.68594,928.34643 228.14455,-132.87401 0,-17.71654 -228.14455,132.87402 0,17.71653 z" />
    <path
       style="fill:#ececec;fill-rule:evenodd;stroke:none"
       id="path2445"
       d="m -153.4297,822.04722 0,-17.71653 184.11564,106.29921 0,17.71653 -184.11564,-106.29921 z" />
    <path
       style="fill:#cccccc;fill-rule:evenodd;stroke:none"
       id="path2455"
       d="M 30.68594,910.6299 -153.4297,804.33069 76.714849,671.45667 260.83049,777.75588 30.68594,910.6299 z" />
    <path
       style="fill:#808080;fill-opacity:1;fill-rule:evenodd;stroke:none;stroke-width:3;marker:none;visibility:visible;display:inline;overflow:visible"
       id="rect2461"
       d="m -103.8601,802.28647 c 0,0 23.01445,13.2874 23.01445,13.2874 0,0 203.58941,-117.5424 203.58941,-117.5424 0,0 -23.014456,-13.2874 -23.014456,-13.2874 0,0 -203.589404,117.5424 -203.589404,117.5424 0,0 0,0 0,0 m 38.35742,22.14567 c 0,0 23.014455,13.2874 23.014455,13.2874 0,0 203.589405,-117.5424 203.589405,-117.5424 0,0 -23.01445,-13.2874 -23.01445,-13.2874 0,0 -203.58941,117.5424 -203.58941,117.5424 0,0 0,0 0,0 m 38.357425,22.14567 c 0,0 23.0144552,13.2874 23.0144552,13.2874 0,0 203.5894098,-117.5424 203.5894098,-117.5424 0,0 -23.01446,-13.2874 -23.01446,-13.2874 0,0 -203.589405,117.5424 -203.589405,117.5424 0,0 0,0 0,0 m 38.357425,22.14567 c 0,0 23.014455,13.2874 23.014455,13.2874 0,0 203.589405,-117.5424 203.589405,-117.5424 0,0 -23.01445,-13.2874 -23.01445,-13.2874 0,0 -203.58941,117.5424 -203.58941,117.5424 0,0 0,0 0,0" />
    <path
       style="fill:#808080;fill-rule:evenodd;stroke:none"
       id="path2433"
       d="m 46.03125,600.59375 -214.8125,124 214.8125,124.03125 214.8125,-124.03125 -214.8125,-124 z M 30.6875,680.3125 61.375,698.03125 0,733.46875 -30.6875,715.75 30.6875,680.3125 z M 92.0625,715.75 122.75,733.46875 61.375,768.90625 30.6875,751.1875 92.0625,715.75 z" />
    <path
       style="fill:#4d4d4d;fill-rule:evenodd;stroke:none"
       id="path2437"
       d="m 46.028909,954.92124 0,-106.29921 214.801581,-124.01575 0,106.29921 -214.801581,124.01575 z" />
    <path
       style="fill:#333333;fill-rule:evenodd;stroke:none"
       id="path2552"
       d="m -27.617346,717.51966 -3.068594,-1.77165 61.37188,-35.43307 0,3.54331 -58.303286,33.66141 z" />
    <path
       style="fill:#e6e6e6;fill-opacity:1;fill-rule:evenodd;stroke:none"
       id="path2554"
       d="m 30.68594,680.31494 0,3.54331 27.617345,15.94488 3.068594,-1.77166 -30.685939,-17.71653 z" />
    <path
       style="fill:#e6e6e6;fill-rule:evenodd;stroke:none"
       id="path2439"
       d="m -168.78125,724.59375 0,106.3125 214.8125,124 0,-106.28125 -214.8125,-124.03125 z m 3.0625,5.3125 208.6875,120.5 0,99.1875 -208.6875,-120.46875 0,-99.21875 z" />
    <path
       style="fill:#333333;fill-rule:evenodd;stroke:none"
       id="path2564"
       d="m 33.754535,752.95273 -3.068594,-1.77165 61.37188,-35.43307 0,3.54331 -58.303286,33.66141 z" />
    <path
       style="fill:#e6e6e6;fill-opacity:1;fill-rule:evenodd;stroke:none"
       id="path2566"
       d="m 92.057821,715.74801 0,3.54331 27.617349,15.94488 3.06859,-1.77166 -30.685939,-17.71653 z" />
    <path
       style="opacity:0.6;fill:#000000;fill-rule:evenodd;stroke:none"
       id="path2568"
       d="M 33.754533,752.95273 92.057819,719.29132 119.67516,735.2362 61.371879,768.89762 33.754533,752.95273 z" />
    <path
       style="opacity:0.6;fill:#000000;fill-rule:evenodd;stroke:none"
       id="path2570"
       d="M -27.617346,717.51965 30.68594,683.85824 58.303281,699.80312 0,733.46454 -27.617346,717.51965 z" />
    <path
       style="opacity:0.23999999;fill:none;stroke:#ffffff;stroke-width:4;stroke-linecap:butt;stroke-linejoin:miter;stroke-opacity:1;filter:url(#filter3406)"
       id="path3396"
       d="M 47.10407,848.00556 258.39058,726.0102" />
  </g>
</svg>
