<?xml version="1.0" encoding="UTF-8" standalone="no"?>
<!-- Created with Inkscape (http://www.inkscape.org/) -->

<svg
   xmlns:dc="http://purl.org/dc/elements/1.1/"
   xmlns:cc="http://creativecommons.org/ns#"
   xmlns:rdf="http://www.w3.org/1999/02/22-rdf-syntax-ns#"
   xmlns:svg="http://www.w3.org/2000/svg"
   xmlns="http://www.w3.org/2000/svg"
   xmlns:xlink="http://www.w3.org/1999/xlink"
   xmlns:sodipodi="http://sodipodi.sourceforge.net/DTD/sodipodi-0.dtd"
   xmlns:inkscape="http://www.inkscape.org/namespaces/inkscape"
   viewBox="0 0 125.28506 71.395879"
   id="svg2"
   version="1.1"
   inkscape:version="0.91 r13725"
   sodipodi:docname="Trommel.svg">
  <title
     id="title6656">Trommel coloured</title>
  <defs
     id="defs4">
    <linearGradient
       inkscape:collect="always"
       id="linearGradient6777">
      <stop
         style="stop-color:#ffd6d6;stop-opacity:1"
         offset="0"
         id="stop6779" />
      <stop
         style="stop-color:#bd001a;stop-opacity:1"
         offset="1"
         id="stop6781" />
    </linearGradient>
    <linearGradient
       inkscape:collect="always"
       id="linearGradient6769">
      <stop
         style="stop-color:#fff7a8;stop-opacity:1"
         offset="0"
         id="stop6771" />
      <stop
         style="stop-color:#ffe567;stop-opacity:1"
         offset="1"
         id="stop6773" />
    </linearGradient>
    <linearGradient
       inkscape:collect="always"
       id="linearGradient6751">
      <stop
         style="stop-color:#e8be8a;stop-opacity:1"
         offset="0"
         id="stop6753" />
      <stop
         style="stop-color:#aa8050;stop-opacity:1"
         offset="1"
         id="stop6755" />
    </linearGradient>
    <linearGradient
       inkscape:collect="always"
       id="linearGradient6733">
      <stop
         style="stop-color:#003fff;stop-opacity:1;"
         offset="0"
         id="stop6735" />
      <stop
         id="stop6741"
         offset="0.83304459"
         style="stop-color:#0029a7;stop-opacity:1;" />
      <stop
         style="stop-color:#001d72;stop-opacity:1"
         offset="1"
         id="stop6737" />
    </linearGradient>
    <linearGradient
       inkscape:collect="always"
       id="linearGradient6659">
      <stop
         style="stop-color:#ff0000;stop-opacity:1;"
         offset="0"
         id="stop6661" />
      <stop
         id="stop6667"
         offset="0.74546456"
         style="stop-color:#ba0000;stop-opacity:1;" />
      <stop
         style="stop-color:#8e0000;stop-opacity:1"
         offset="1"
         id="stop6663" />
    </linearGradient>
    <pattern
       inkscape:collect="always"
       xlink:href="#Strips1_2"
       id="pattern6486"
       patternTransform="matrix(0.4877302,0,0,1.8692924,243.44676,232.33509)" />
    <pattern
       inkscape:stockid="Stripes 1:2"
       id="Strips1_2"
       patternTransform="translate(0,0) scale(10,10)"
       height="1"
       width="3"
       patternUnits="userSpaceOnUse"
       inkscape:collect="always">
      <rect
         id="rect5004"
         height="2"
         width="1"
         y="-0.5"
         x="0"
         style="fill:black;stroke:none" />
    </pattern>
    <pattern
       inkscape:collect="always"
       xlink:href="#Strips1_2-2"
       id="pattern6486-8"
       patternTransform="matrix(0.4877302,0,0,1.8692924,287.45056,237.14056)" />
    <pattern
       inkscape:stockid="Stripes 1:2"
       id="Strips1_2-2"
       patternTransform="translate(0,0) scale(10,10)"
       height="1"
       width="3"
       patternUnits="userSpaceOnUse"
       inkscape:collect="always">
      <rect
         id="rect5004-1"
         height="2"
         width="1"
         y="-0.5"
         x="0"
         style="fill:black;stroke:none" />
    </pattern>
    <pattern
       inkscape:collect="always"
       xlink:href="#Strips1_2-6"
       id="pattern6486-9"
       patternTransform="matrix(0.4877302,0,0,1.8692924,244.014,204.81568)" />
    <pattern
       inkscape:stockid="Stripes 1:2"
       id="Strips1_2-6"
       patternTransform="translate(0,0) scale(10,10)"
       height="1"
       width="3"
       patternUnits="userSpaceOnUse"
       inkscape:collect="always">
      <rect
         id="rect5004-4"
         height="2"
         width="1"
         y="-0.5"
         x="0"
         style="fill:black;stroke:none" />
    </pattern>
    <pattern
       inkscape:collect="always"
       xlink:href="#Strips1_2-2-5"
       id="pattern6486-8-4"
       patternTransform="matrix(0.4877302,0,0,1.8692924,286.74525,209.05018)" />
    <pattern
       inkscape:stockid="Stripes 1:2"
       id="Strips1_2-2-5"
       patternTransform="translate(0,0) scale(10,10)"
       height="1"
       width="3"
       patternUnits="userSpaceOnUse"
       inkscape:collect="always">
      <rect
         id="rect5004-1-1"
         height="2"
         width="1"
         y="-0.5"
         x="0"
         style="fill:black;stroke:none" />
    </pattern>
    <linearGradient
       inkscape:collect="always"
       xlink:href="#linearGradient6659"
       id="linearGradient6665"
       x1="274.98768"
       y1="298.82647"
       x2="342.84666"
       y2="298.82647"
       gradientUnits="userSpaceOnUse" />
    <linearGradient
       inkscape:collect="always"
       xlink:href="#linearGradient6733"
       id="linearGradient6739"
       x1="274.9869"
       y1="282.76776"
       x2="343.35203"
       y2="282.76776"
       gradientUnits="userSpaceOnUse" />
    <linearGradient
       inkscape:collect="always"
       xlink:href="#linearGradient6733"
       id="linearGradient6749"
       x1="274.23108"
       y1="311.8273"
       x2="343.93433"
       y2="311.8273"
       gradientUnits="userSpaceOnUse" />
    <radialGradient
       inkscape:collect="always"
       xlink:href="#linearGradient6751"
       id="radialGradient6757"
       cx="303.85815"
       cy="278.34735"
       fx="303.85815"
       fy="278.34735"
       r="29.245344"
       gradientTransform="matrix(1,0,0,0.19645239,0,220.04999)"
       gradientUnits="userSpaceOnUse" />
    <radialGradient
       inkscape:collect="always"
       xlink:href="#linearGradient6733"
       id="radialGradient6767"
       cx="309.23669"
       cy="272.66397"
       fx="309.23669"
       fy="272.66397"
       r="34.062012"
       gradientTransform="matrix(1,0,0,0.27792402,0,196.8841)"
       gradientUnits="userSpaceOnUse" />
    <linearGradient
       inkscape:collect="always"
       xlink:href="#linearGradient6769"
       id="linearGradient6775"
       x1="275.24017"
       y1="298.44418"
       x2="342.7226"
       y2="298.44418"
       gradientUnits="userSpaceOnUse" />
    <radialGradient
       inkscape:collect="always"
       xlink:href="#linearGradient6777"
       id="radialGradient6783"
       cx="297.23865"
       cy="272.00595"
       fx="297.23865"
       fy="272.00595"
       r="4.7029715"
       gradientTransform="matrix(0.09631621,0.87710505,-1.072327,0.11775383,560.28907,-20.943255)"
       gradientUnits="userSpaceOnUse" />
    <radialGradient
       inkscape:collect="always"
       xlink:href="#linearGradient6777"
       id="radialGradient6791"
       cx="265.61575"
       cy="322.51654"
       fx="265.61575"
       fy="322.51654"
       r="4.6983762"
       gradientTransform="matrix(-0.44735646,0.77910993,-0.59312157,-0.34056397,575.73219,225.13772)"
       gradientUnits="userSpaceOnUse" />
  </defs>
  <sodipodi:namedview
     id="base"
     pagecolor="#ffffff"
     bordercolor="#666666"
     borderopacity="1.0"
     inkscape:pageopacity="0.0"
     inkscape:pageshadow="2"
     inkscape:zoom="2.8284271"
     inkscape:cx="74.117668"
     inkscape:cy="52.034964"
     inkscape:document-units="mm"
     inkscape:current-layer="layer1"
     showgrid="false"
     inkscape:snap-global="false"
     inkscape:window-width="1431"
     inkscape:window-height="1116"
     inkscape:window-x="695"
     inkscape:window-y="92"
     inkscape:window-maximized="0"
     fit-margin-top="1"
     fit-margin-right="1"
     fit-margin-bottom="1"
     fit-margin-left="1" />
  <metadata
     id="metadata7">
    <rdf:RDF>
      <cc:Work
         rdf:about="">
        <dc:format>image/svg+xml</dc:format>
        <dc:type
           rdf:resource="http://purl.org/dc/dcmitype/StillImage" />
        <dc:title>Trommel coloured</dc:title>
        <cc:license
           rdf:resource="http://creativecommons.org/publicdomain/zero/1.0/" />
        <dc:date>2015-02-05</dc:date>
        <dc:subject>
          <rdf:Bag>
            <rdf:li>drum</rdf:li>
            <rdf:li>music</rdf:li>
            <rdf:li>musical</rdf:li>
            <rdf:li>instrument</rdf:li>
            <rdf:li>trommel</rdf:li>
            <rdf:li>intrument</rdf:li>
            <rdf:li>musik</rdf:li>
            <rdf:li></rdf:li>
          </rdf:Bag>
        </dc:subject>
        <dc:description>a simple lineart drum with sticks
coloured version</dc:description>
      </cc:Work>
      <cc:License
         rdf:about="http://creativecommons.org/publicdomain/zero/1.0/">
        <cc:permits
           rdf:resource="http://creativecommons.org/ns#Reproduction" />
        <cc:permits
           rdf:resource="http://creativecommons.org/ns#Distribution" />
        <cc:permits
           rdf:resource="http://creativecommons.org/ns#DerivativeWorks" />
      </cc:License>
    </rdf:RDF>
  </metadata>
  <g
     inkscape:label="Ebene 1"
     inkscape:groupmode="layer"
     id="layer1"
     transform="translate(-242.31231,-255.45514)">
    <path
       style="fill:#ffffff;fill-opacity:1;fill-rule:evenodd;stroke:#800080;stroke-width:0.35433072;stroke-linecap:butt;stroke-linejoin:miter;stroke-miterlimit:4;stroke-dasharray:none;stroke-opacity:1"
       d="m 275.89791,273.02951 65.53365,1.2627 c 1.43058,-1.42396 0.46107,-3.05821 1e-5,-4.16689 -2.00182,-3.33636 -17.8812,-6.4137 -29.67324,-6.43972 -23.18581,-0.0512 -32.32488,4.67196 -32.32488,4.67196 -2.72576,1.99939 -3.1053,3.32843 -3.53554,4.67195 z"
       id="path5710"
       inkscape:connector-curvature="0"
       sodipodi:nodetypes="cccscc" />
    <path
       style="fill:url(#radialGradient6757);fill-opacity:1;fill-rule:evenodd;stroke:#000000;stroke-width:1.0629921;stroke-linecap:butt;stroke-linejoin:miter;stroke-miterlimit:4;stroke-dasharray:none;stroke-opacity:1"
       d="m 308.00508,268.70149 c 25.71308,0.82141 30,4.73214 30,4.73214 0,0 -5.3981,5.78582 -30.26786,5.625 -27.0864,-0.17515 -26.93627,-5.38144 -26.93627,-5.38144 0,0 3.84673,-5.72186 27.20413,-4.9757 z"
       id="path4169"
       inkscape:connector-curvature="0"
       sodipodi:nodetypes="scscs" />
    <path
       style="fill:#00125f;fill-opacity:1;fill-rule:evenodd;stroke:#000000;stroke-width:1.0629921;stroke-linecap:butt;stroke-linejoin:miter;stroke-miterlimit:4;stroke-dasharray:none;stroke-opacity:1"
       d="m 280.93882,274.1492 c 0,0 0.48379,-5.54207 26.28961,-5.54207 23.28319,0 30.80357,5.44644 30.80357,5.44644 l 1.25,-2.50001 c 0.22685,-2.04759 -16.76805,-6.8279 -31.96428,-5.625 -14.88299,1.1781 -26.56509,1.78571 -28.30357,6.25 z"
       id="path4167"
       inkscape:connector-curvature="0"
       sodipodi:nodetypes="csccscc" />
    <path
       style="color:#000000;display:inline;overflow:visible;visibility:visible;opacity:1;fill:url(#radialGradient6783);fill-opacity:1;fill-rule:nonzero;stroke:#000000;stroke-width:1.0629921;stroke-linecap:round;stroke-linejoin:bevel;stroke-miterlimit:4;stroke-dasharray:none;stroke-dashoffset:0;stroke-opacity:1;marker:none;enable-background:accumulate"
       d="m 301.50682,275.11489 a 4.1668792,4.5456867 6.1151125 0 1 -4.62741,4.07593 4.1668792,4.5456867 6.1151125 0 1 -3.65893,-4.96369 4.1668792,4.5456867 6.1151125 0 1 4.62741,-4.07594 4.1668792,4.5456867 6.1151125 0 1 3.65893,4.9637 z"
       id="path4235"
       inkscape:connector-curvature="0" />
    <path
       style="fill:url(#linearGradient6775);fill-opacity:1;fill-rule:evenodd;stroke:#000000;stroke-width:1.0629921;stroke-linecap:butt;stroke-linejoin:miter;stroke-miterlimit:4;stroke-dasharray:none;stroke-opacity:1"
       d="m 275.77165,285.15135 0.12626,16.79378 c 0,0 7.56825,9.51401 33.20877,9.59645 21.83821,0.0702 33.0825,-10.35406 33.0825,-10.35406 l -0.12627,-15.27856 c 0,0 -8.93409,7.09908 -33.71385,7.07107 -29.04226,-0.0328 -32.57741,-7.82868 -32.57741,-7.82868 z"
       id="path4183"
       inkscape:connector-curvature="0"
       sodipodi:nodetypes="ccsccsc" />
    <path
       transform="matrix(0.98519198,-0.17145482,0.17145482,0.98519198,0,0)"
       style="color:#000000;display:inline;overflow:visible;visibility:visible;opacity:1;fill:url(#radialGradient6791);fill-opacity:1;fill-rule:nonzero;stroke:#000000;stroke-width:1.0629921;stroke-linecap:round;stroke-linejoin:bevel;stroke-miterlimit:4;stroke-dasharray:none;stroke-dashoffset:0;stroke-opacity:1;marker:none;enable-background:accumulate"
       d="m 268.89338,325.89569 a 4.1668792,4.5456867 0 0 1 -4.16688,4.54569 4.1668792,4.5456867 0 0 1 -4.16688,-4.54569 4.1668792,4.5456867 0 0 1 4.16688,-4.54569 4.1668792,4.5456867 0 0 1 4.16688,4.54569 z"
       id="path4235-2"
       inkscape:connector-curvature="0" />
    <path
       style="color:#000000;display:inline;overflow:visible;visibility:visible;opacity:1;fill:url(#radialGradient6767);fill-opacity:1;fill-rule:nonzero;stroke:#000000;stroke-width:1.0629921;stroke-linecap:round;stroke-linejoin:bevel;stroke-miterlimit:4;stroke-dasharray:none;stroke-dashoffset:0;stroke-opacity:1;marker:none;enable-background:accumulate"
       d="m 308.92103,263.72881 c -18.34549,-8e-5 -33.217,4.00097 -33.21484,8.93616 0.002,4.93441 14.87227,8.93423 33.21484,8.93415 18.34257,8e-5 33.84422,-4.25228 33.84619,-9.18669 0.002,-4.93519 -15.5007,-8.6837 -33.84619,-8.68362 z m 0.28125,2.48226 c 16.02948,1.3e-4 29.02487,2.92981 29.0293,6.54435 4.7e-4,3.61532 -12.99635,6.54622 -29.0293,6.54635 -16.03371,1.1e-4 -29.03172,-2.93085 -29.03125,-6.54635 0.004,-3.61471 13.00101,-6.54446 29.03125,-6.54435 z"
       id="path4147"
       inkscape:connector-curvature="0"
       sodipodi:nodetypes="scscsscscs" />
    <path
       id="path4210"
       style="fill:url(#linearGradient6665);fill-opacity:1;fill-rule:evenodd;stroke:#000000;stroke-width:1.0629921;stroke-linecap:butt;stroke-linejoin:bevel;stroke-miterlimit:4;stroke-dasharray:none;stroke-opacity:1"
       d="m 337.26468,304.47051 4.54569,-18.81409 0.50507,15.5311 c -0.97845,1.09433 -2.39764,2.18866 -5.05076,3.28299 z m -18.30901,6.06092 9.47018,-18.94036 8.83883,13.00571 c -4.981,3.37842 -11.31852,4.90064 -18.30901,5.93465 z m -21.97082,0 11.23795,-16.79379 11.36421,16.66752 c -7.95433,1.18562 -15.2935,1.87473 -22.60216,0.12627 z m -17.42513,-6.06092 8.58629,-13.00571 9.72272,19.44544 c -6.33533,-1.52705 -12.9283,-2.36703 -18.30901,-6.43973 z m -3.78807,-18.68782 4.29314,19.1929 c -1.51523,-0.91924 -3.03045,-1.76437 -4.54568,-3.6618 z" />
    <path
       style="fill:url(#linearGradient6749);fill-opacity:1.0;fill-rule:evenodd;stroke:#000000;stroke-width:1.0629921;stroke-linecap:butt;stroke-linejoin:miter;stroke-miterlimit:4;stroke-dasharray:none;stroke-opacity:1"
       d="m 275.51941,301.49576 c -1.32583,-3.40926 -0.50508,9.78585 -0.50508,9.78585 0,0 6.80708,11.7462 33.0825,11.49049 26.663,-0.25948 33.96638,-8.46003 33.96638,-8.46003 1.06264,-0.77891 1.15687,-1.22178 1.19955,-2.39911 0.0211,-3.59867 0.5611,-13.31561 -0.63138,-10.54346 0,0 -12.56252,10.35273 -35.48161,10.16465 -8.43181,0.32919 -25.84304,-3.14851 -31.63036,-10.03839 z"
       id="path4181-5"
       inkscape:connector-curvature="0"
       sodipodi:nodetypes="ccsccccc" />
    <g
       id="g4177"
       transform="translate(-1.7960412,0.38879156)"
       style="fill:#8a4708;fill-opacity:1;stroke:#000000;stroke-opacity:1">
      <path
         sodipodi:nodetypes="ccccc"
         inkscape:connector-curvature="0"
         id="path4171"
         d="m 249.82143,262.54077 c -1.7015,-0.68965 -2.47221,1.93331 -0.53572,2.5 l 45.49688,9.78445 c -0.14247,-0.85077 0.0908,-1.95407 0.44643,-2.80483 z"
         style="fill:#8a4708;fill-opacity:1;fill-rule:evenodd;stroke:#000000;stroke-width:1px;stroke-linecap:butt;stroke-linejoin:miter;stroke-opacity:1" />
    </g>
    <path
       style="fill:#8a4708;fill-opacity:1;fill-rule:evenodd;stroke:#000000;stroke-width:1px;stroke-linecap:butt;stroke-linejoin:miter;stroke-opacity:1"
       d="m 362.48117,261.98317 c 1.8181,-0.25538 1.17132,-2.91162 -0.78858,-2.43211 l -41.40285,13.6128 c 0.4307,1.02036 0.64591,1.98124 0.5765,2.6682 z"
       id="path4171-7"
       inkscape:connector-curvature="0"
       sodipodi:nodetypes="ccccc" />
    <path
       style="fill:url(#pattern6486);fill-opacity:1;fill-rule:evenodd;stroke:none;stroke-width:1px;stroke-linecap:butt;stroke-linejoin:miter;stroke-opacity:1"
       d="m 274.64286,301.1122 c 4.993,5.01053 9.37945,5.77518 13.92857,7.67857 l -0.53572,10.89286 c -4.31568,-0.98397 -8.78108,-3.31545 -13.57142,-8.57143 z"
       id="path6480"
       inkscape:connector-curvature="0"
       sodipodi:nodetypes="ccccc" />
    <path
       style="fill:url(#pattern6486-8);fill-opacity:1;fill-rule:evenodd;stroke:none;stroke-width:1px;stroke-linecap:butt;stroke-linejoin:miter;stroke-opacity:1"
       d="m 318.39412,310.71589 c 13.83184,-1.55546 19.48098,-5.84157 24.53517,-8.48387 l 0.2219,11.1454 c -4.82076,3.05664 -12.31662,7.03862 -24.6831,8.34863 z"
       id="path6480-7"
       inkscape:connector-curvature="0"
       sodipodi:nodetypes="ccccc" />
    <path
       style="fill:url(#pattern6486-9);fill-opacity:1;fill-rule:evenodd;stroke:none;stroke-width:1px;stroke-linecap:butt;stroke-linejoin:miter;stroke-opacity:1"
       d="m 275.2101,273.59279 c 4.993,5.01053 9.88453,4.25995 14.43365,6.16334 l -1.0408,11.39794 c -4.31568,-0.98397 -8.78108,-2.3053 -13.57142,-7.56128 z"
       id="path6480-0"
       inkscape:connector-curvature="0"
       sodipodi:nodetypes="ccccc" />
    <path
       style="fill:url(#pattern6486-8-4);fill-opacity:1;fill-rule:evenodd;stroke:none;stroke-width:1px;stroke-linecap:butt;stroke-linejoin:miter;stroke-opacity:1"
       d="m 317.18373,281.11028 c 13.83184,-0.0402 19.98606,-2.55857 25.04025,-6.96864 l 0.2219,11.1454 c -6.08345,2.55156 -12.31662,5.77593 -24.6831,7.08594 z"
       id="path6480-7-2"
       inkscape:connector-curvature="0"
       sodipodi:nodetypes="ccccc" />
    <path
       style="color:#000000;display:inline;overflow:visible;visibility:visible;opacity:1;fill:#000000;fill-opacity:1;fill-rule:nonzero;stroke:none;stroke-width:1.0629921;stroke-linecap:round;stroke-linejoin:bevel;stroke-miterlimit:4;stroke-dasharray:none;stroke-dashoffset:0;stroke-opacity:1;marker:none;enable-background:accumulate"
       d="m 299.63204,276.08606 a 0.37246186,0.37246186 0 0 1 -0.37246,0.37246 0.37246186,0.37246186 0 0 1 -0.37246,-0.37246 0.37246186,0.37246186 0 0 1 0.37246,-0.37247 0.37246186,0.37246186 0 0 1 0.37246,0.37247 z"
       id="path6560"
       inkscape:connector-curvature="0" />
    <path
       style="color:#000000;display:inline;overflow:visible;visibility:visible;opacity:1;fill:#000000;fill-opacity:1;fill-rule:nonzero;stroke:none;stroke-width:1.0629921;stroke-linecap:round;stroke-linejoin:bevel;stroke-miterlimit:4;stroke-dasharray:none;stroke-dashoffset:0;stroke-opacity:1;marker:none;enable-background:accumulate"
       d="m 298.99881,277.00699 a 0.37246186,0.37246186 0 0 1 -0.37246,0.37246 0.37246186,0.37246186 0 0 1 -0.37246,-0.37246 0.37246186,0.37246186 0 0 1 0.37246,-0.37247 0.37246186,0.37246186 0 0 1 0.37246,0.37247 z"
       id="path6560-8"
       inkscape:connector-curvature="0" />
    <path
       style="color:#000000;display:inline;overflow:visible;visibility:visible;opacity:1;fill:#000000;fill-opacity:1;fill-rule:nonzero;stroke:none;stroke-width:1.0629921;stroke-linecap:round;stroke-linejoin:bevel;stroke-miterlimit:4;stroke-dasharray:none;stroke-dashoffset:0;stroke-opacity:1;marker:none;enable-background:accumulate"
       d="m 300.32463,277.00699 a 0.37246186,0.37246186 0 0 1 -0.37246,0.37246 0.37246186,0.37246186 0 0 1 -0.37246,-0.37246 0.37246186,0.37246186 0 0 1 0.37246,-0.37247 0.37246186,0.37246186 0 0 1 0.37246,0.37247 z"
       id="path6560-0"
       inkscape:connector-curvature="0" />
    <path
       style="color:#000000;display:inline;overflow:visible;visibility:visible;opacity:1;fill:#000000;fill-opacity:1;fill-rule:nonzero;stroke:none;stroke-width:1.0629921;stroke-linecap:round;stroke-linejoin:bevel;stroke-miterlimit:4;stroke-dasharray:none;stroke-dashoffset:0;stroke-opacity:1;marker:none;enable-background:accumulate"
       d="m 300.51403,275.93371 a 0.37246186,0.37246186 0 0 1 -0.37246,0.37246 0.37246186,0.37246186 0 0 1 -0.37246,-0.37246 0.37246186,0.37246186 0 0 1 0.37246,-0.37247 0.37246186,0.37246186 0 0 1 0.37246,0.37247 z"
       id="path6560-1"
       inkscape:connector-curvature="0" />
    <path
       style="color:#000000;display:inline;overflow:visible;visibility:visible;opacity:1;fill:#000000;fill-opacity:1;fill-rule:nonzero;stroke:none;stroke-width:1.0629921;stroke-linecap:round;stroke-linejoin:bevel;stroke-miterlimit:4;stroke-dasharray:none;stroke-dashoffset:0;stroke-opacity:1;marker:none;enable-background:accumulate"
       d="m 299.44075,277.82774 a 0.37246186,0.37246186 0 0 1 -0.37246,0.37246 0.37246186,0.37246186 0 0 1 -0.37246,-0.37246 0.37246186,0.37246186 0 0 1 0.37246,-0.37247 0.37246186,0.37246186 0 0 1 0.37246,0.37247 z"
       id="path6560-85"
       inkscape:connector-curvature="0" />
    <path
       style="color:#000000;display:inline;overflow:visible;visibility:visible;opacity:1;fill:#000000;fill-opacity:1;fill-rule:nonzero;stroke:none;stroke-width:1.0629921;stroke-linecap:round;stroke-linejoin:bevel;stroke-miterlimit:4;stroke-dasharray:none;stroke-dashoffset:0;stroke-opacity:1;marker:none;enable-background:accumulate"
       d="m 301.14538,275.11296 a 0.37246186,0.37246186 0 0 1 -0.37246,0.37246 0.37246186,0.37246186 0 0 1 -0.37246,-0.37246 0.37246186,0.37246186 0 0 1 0.37246,-0.37247 0.37246186,0.37246186 0 0 1 0.37246,0.37247 z"
       id="path6560-6"
       inkscape:connector-curvature="0" />
    <path
       style="color:#000000;display:inline;overflow:visible;visibility:visible;opacity:1;fill:#000000;fill-opacity:1;fill-rule:nonzero;stroke:none;stroke-width:1.0629921;stroke-linecap:round;stroke-linejoin:bevel;stroke-miterlimit:4;stroke-dasharray:none;stroke-dashoffset:0;stroke-opacity:1;marker:none;enable-background:accumulate"
       d="m 298.36746,278.01715 a 0.37246186,0.37246186 0 0 1 -0.37246,0.37246 0.37246186,0.37246186 0 0 1 -0.37246,-0.37246 0.37246186,0.37246186 0 0 1 0.37246,-0.37247 0.37246186,0.37246186 0 0 1 0.37246,0.37247 z"
       id="path6560-65"
       inkscape:connector-curvature="0" />
    <path
       style="color:#000000;display:inline;overflow:visible;visibility:visible;opacity:1;fill:#000000;fill-opacity:1;fill-rule:nonzero;stroke:none;stroke-width:1.0629921;stroke-linecap:round;stroke-linejoin:bevel;stroke-miterlimit:4;stroke-dasharray:none;stroke-dashoffset:0;stroke-opacity:1;marker:none;enable-background:accumulate"
       d="m 313.77229,275.80744 a 0.37246186,0.37246186 0 0 1 -0.37246,0.37246 0.37246186,0.37246186 0 0 1 -0.37246,-0.37246 0.37246186,0.37246186 0 0 1 0.37246,-0.37247 0.37246186,0.37246186 0 0 1 0.37246,0.37247 z"
       id="path6560-3"
       inkscape:connector-curvature="0" />
    <path
       style="color:#000000;display:inline;overflow:visible;visibility:visible;opacity:1;fill:#000000;fill-opacity:1;fill-rule:nonzero;stroke:none;stroke-width:1.0629921;stroke-linecap:round;stroke-linejoin:bevel;stroke-miterlimit:4;stroke-dasharray:none;stroke-dashoffset:0;stroke-opacity:1;marker:none;enable-background:accumulate"
       d="m 314.02483,277.007 a 0.37246186,0.37246186 0 0 1 -0.37246,0.37246 0.37246186,0.37246186 0 0 1 -0.37246,-0.37246 0.37246186,0.37246186 0 0 1 0.37246,-0.37247 0.37246186,0.37246186 0 0 1 0.37246,0.37247 z"
       id="path6560-34"
       inkscape:connector-curvature="0" />
    <path
       style="color:#000000;display:inline;overflow:visible;visibility:visible;opacity:1;fill:#000000;fill-opacity:1;fill-rule:nonzero;stroke:none;stroke-width:1.0629921;stroke-linecap:round;stroke-linejoin:bevel;stroke-miterlimit:4;stroke-dasharray:none;stroke-dashoffset:0;stroke-opacity:1;marker:none;enable-background:accumulate"
       d="m 315.22438,278.39595 a 0.37246186,0.37246186 0 0 1 -0.37246,0.37246 0.37246186,0.37246186 0 0 1 -0.37246,-0.37246 0.37246186,0.37246186 0 0 1 0.37246,-0.37247 0.37246186,0.37246186 0 0 1 0.37246,0.37247 z"
       id="path6560-4"
       inkscape:connector-curvature="0" />
    <path
       style="color:#000000;display:inline;overflow:visible;visibility:visible;opacity:1;fill:#000000;fill-opacity:1;fill-rule:nonzero;stroke:none;stroke-width:1.0629921;stroke-linecap:round;stroke-linejoin:bevel;stroke-miterlimit:4;stroke-dasharray:none;stroke-dashoffset:0;stroke-opacity:1;marker:none;enable-background:accumulate"
       d="m 316.61334,278.39595 a 0.37246186,0.37246186 0 0 1 -0.37246,0.37246 0.37246186,0.37246186 0 0 1 -0.37246,-0.37246 0.37246186,0.37246186 0 0 1 0.37246,-0.37247 0.37246186,0.37246186 0 0 1 0.37246,0.37247 z"
       id="path6560-32"
       inkscape:connector-curvature="0" />
    <path
       style="color:#000000;display:inline;overflow:visible;visibility:visible;opacity:1;fill:#000000;fill-opacity:1;fill-rule:nonzero;stroke:none;stroke-width:1.0629921;stroke-linecap:round;stroke-linejoin:bevel;stroke-miterlimit:4;stroke-dasharray:none;stroke-dashoffset:0;stroke-opacity:1;marker:none;enable-background:accumulate"
       d="m 314.40363,277.89088 a 0.37246186,0.37246186 0 0 1 -0.37246,0.37246 0.37246186,0.37246186 0 0 1 -0.37246,-0.37246 0.37246186,0.37246186 0 0 1 0.37246,-0.37247 0.37246186,0.37246186 0 0 1 0.37246,0.37247 z"
       id="path6560-15"
       inkscape:connector-curvature="0" />
    <path
       style="color:#000000;display:inline;overflow:visible;visibility:visible;opacity:1;fill:#000000;fill-opacity:1;fill-rule:nonzero;stroke:none;stroke-width:1.0629921;stroke-linecap:round;stroke-linejoin:bevel;stroke-miterlimit:4;stroke-dasharray:none;stroke-dashoffset:0;stroke-opacity:1;marker:none;enable-background:accumulate"
       d="m 315.22438,277.32267 a 0.37246186,0.37246186 0 0 1 -0.37246,0.37246 0.37246186,0.37246186 0 0 1 -0.37246,-0.37246 0.37246186,0.37246186 0 0 1 0.37246,-0.37247 0.37246186,0.37246186 0 0 1 0.37246,0.37247 z"
       id="path6560-157"
       inkscape:connector-curvature="0" />
    <path
       style="color:#000000;display:inline;overflow:visible;visibility:visible;opacity:1;fill:#000000;fill-opacity:1;fill-rule:nonzero;stroke:none;stroke-width:1.0629921;stroke-linecap:round;stroke-linejoin:bevel;stroke-miterlimit:4;stroke-dasharray:none;stroke-dashoffset:0;stroke-opacity:1;marker:none;enable-background:accumulate"
       d="m 297.29418,277.95401 a 0.37246186,0.37246186 0 0 1 -0.37246,0.37246 0.37246186,0.37246186 0 0 1 -0.37246,-0.37246 0.37246186,0.37246186 0 0 1 0.37246,-0.37247 0.37246186,0.37246186 0 0 1 0.37246,0.37247 z"
       id="path6560-2"
       inkscape:connector-curvature="0" />
    <path
       style="color:#000000;display:inline;overflow:visible;visibility:visible;opacity:1;fill:#000000;fill-opacity:1;fill-rule:nonzero;stroke:none;stroke-width:1.0629921;stroke-linecap:round;stroke-linejoin:bevel;stroke-miterlimit:4;stroke-dasharray:none;stroke-dashoffset:0;stroke-opacity:1;marker:none;enable-background:accumulate"
       d="m 297.92552,277.32267 a 0.37246186,0.37246186 0 0 1 -0.37246,0.37246 0.37246186,0.37246186 0 0 1 -0.37246,-0.37246 0.37246186,0.37246186 0 0 1 0.37246,-0.37247 0.37246186,0.37246186 0 0 1 0.37246,0.37247 z"
       id="path6560-9"
       inkscape:connector-curvature="0" />
    <path
       sodipodi:nodetypes="ccscccsc"
       inkscape:connector-curvature="0"
       id="path6721"
       d="M 275.64537,272.2719 275.5191,284.52 c 0,0 2.26139,8.58947 32.45115,8.33376 26.66331,-0.22584 34.21892,-7.19734 34.21892,-7.19734 0.68383,0.10497 0.58866,-1.34805 0.63134,-2.52538 l 10e-6,-10.85914 c 0,0 -0.14647,9.10034 -35.35535,9.21764 -29.52273,0.0984 -31.8198,-9.21764 -31.8198,-9.21764 z"
       style="fill:url(#linearGradient6739);fill-opacity:1;fill-rule:evenodd;stroke:#000000;stroke-width:1.0629921;stroke-linecap:butt;stroke-linejoin:miter;stroke-miterlimit:4;stroke-dasharray:none;stroke-opacity:1" />
  </g>
</svg>
