<?xml version="1.0" encoding="UTF-8" standalone="no"?>
<!-- Generator: Adobe Illustrator 16.0.0, SVG Export Plug-In . SVG Version: 6.00 Build 0)  -->

<svg
   xmlns:dc="http://purl.org/dc/elements/1.1/"
   xmlns:cc="http://creativecommons.org/ns#"
   xmlns:rdf="http://www.w3.org/1999/02/22-rdf-syntax-ns#"
   xmlns:svg="http://www.w3.org/2000/svg"
   xmlns="http://www.w3.org/2000/svg"
   xmlns:sodipodi="http://sodipodi.sourceforge.net/DTD/sodipodi-0.dtd"
   xmlns:inkscape="http://www.inkscape.org/namespaces/inkscape"
   version="1.1"
   id="レイヤー_1"
   x="0px"
   y="0px"
   width="128px"
   height="128px"
   viewBox="0 0 128 128"
   enable-background="new 0 0 128 128"
   xml:space="preserve"
   inkscape:version="0.91 r13725"
   sodipodi:docname="edit-duplicate.svg"><metadata
     id="metadata53"><rdf:RDF><cc:Work
         rdf:about=""><dc:format>image/svg+xml</dc:format><dc:type
           rdf:resource="http://purl.org/dc/dcmitype/StillImage" /><dc:title></dc:title></cc:Work></rdf:RDF></metadata><defs
     id="defs51" /><sodipodi:namedview
     pagecolor="#ffffff"
     bordercolor="#666666"
     borderopacity="1"
     objecttolerance="10"
     gridtolerance="10"
     guidetolerance="10"
     inkscape:pageopacity="0"
     inkscape:pageshadow="2"
     inkscape:window-width="1920"
     inkscape:window-height="1016"
     id="namedview49"
     showgrid="false"
     inkscape:zoom="1.6117629"
     inkscape:cx="90.697361"
     inkscape:cy="-1.7344929"
     inkscape:window-x="0"
     inkscape:window-y="30"
     inkscape:window-maximized="1"
     inkscape:current-layer="レイヤー_1" /><g
     transform="matrix(0.67350364,0,0,0.67350364,2.5798936,2.5792396)"
     id="g7512"><path
       d="m 105.18229,101.16036 c 1.79319,2.6898 3.67719,5.4023 6.15135,7.51328 1.32788,1.13494 2.90543,2.09963 4.65324,2.38337 1.88399,0.29508 3.72259,-0.34048 5.25475,-1.44138 1.35058,-0.97604 1.89534,-2.22447 1.63431,-3.85878 -0.66962,-4.18791 -2.49686,-8.046695 -4.15386,-11.905478 -1.60026,-3.722591 -2.76925,-7.581374 -4.14252,-11.38341 -0.71501,-1.97479 -4.43761,0.226986 -5.61794,0.862551 -1.94073,1.021443 -3.79068,2.303921 -5.41364,3.756639 -0.69231,0.635564 -1.33923,1.271129 -1.70241,2.145029 -0.27238,0.669613 -0.31778,1.191683 -0.36318,1.895344 -0.22699,3.711242 1.70241,7.047953 3.6999,10.032835 z"
       id="path7514"
       inkscape:connector-curvature="0"
       style="fill:#000000;fill-opacity:1" /><path
       d="m 80.974095,107.74299 c 0.397228,0.9647 0.828504,1.88399 1.327875,2.74655 0.71501,1.25978 1.7932,2.11098 3.21187,2.45146 3.393459,0.82851 7.524627,-1.44137 7.955903,-5.07317 0.476673,-3.99497 0.839853,-8.432572 0.07945,-12.416198 -0.05674,-0.295083 0.0681,-0.896599 -0.124843,-1.134936 -0.226987,-0.272385 -0.771757,0 -1.05549,0.04539 -0.737709,0.136193 -1.43002,0.295083 -2.145029,0.510722 -0.510722,0.147541 -1.055492,0.238336 -1.577562,0.397228 -0.465324,0.136191 -0.930648,0.261035 -1.41867,0.363179 -0.556119,0.113493 -1.089539,0.340481 -1.645658,0.488022 -0.612866,0.170241 -1.23708,0.238337 -1.838596,0.397228 -1.203033,0.317783 -2.553607,0.635565 -3.688543,1.146285 -0.646914,0.295084 -1.032792,0.590168 -1.214382,1.282478 -0.18159,0.68096 0.102144,1.486772 0.226987,2.156382 0.385879,2.17908 1.021443,4.49435 1.906693,6.63938 z"
       id="path7516"
       inkscape:connector-curvature="0"
       style="fill:#000000;fill-opacity:1" /><path
       d="m 55.108898,113.64466 c 0.238337,1.39598 0.488023,2.7806 0.726359,4.17657 0.158892,0.91929 0.238338,1.94074 0.54477,2.83734 2.088282,5.99246 7.626771,9.09083 12.609141,5.30015 2.417415,-1.84995 2.67845,-5.30015 2.689799,-8.11479 0.01135,-2.7352 0.0227,-5.4704 -0.04539,-8.20559 -0.0681,-2.39472 0.05674,-5.09587 -0.522071,-7.43384 -0.192939,-0.7831 -0.964696,-1.06684 -1.679705,-1.08954 -2.065585,-0.0567 -4.153867,0.0454 -6.208102,0.21564 -1.60026,0.1362 -3.189171,0.57882 -4.766732,0.88525 -1.271128,0.24969 -2.553606,0.79446 -3.575049,1.57757 -1.350574,1.02144 -0.499372,4.68729 -0.329131,6.09461 0.136192,1.24842 0.340481,2.5082 0.556118,3.75663 z"
       id="path7518"
       inkscape:connector-curvature="0"
       style="fill:#000000;fill-opacity:1" /><path
       d="m 11.368456,99.003978 c -0.88525,2.303932 -1.8272469,4.585152 -2.7692444,6.866372 -0.8625516,2.07693 -2.7692445,5.92437 -1.7024044,8.22829 2.4401128,5.30015 9.1702848,3.98363 12.7907308,0.8285 1.96344,-1.70241 3.450206,-3.85878 4.857528,-6.03786 2.201776,-3.38211 4.494347,-7.11605 3.994975,-11.303967 -0.147541,-1.248431 -1.259779,-1.532164 -2.31527,-2.020187 -0.499372,-0.226988 -0.907948,-0.590168 -1.384622,-0.862552 -0.431276,-0.249686 -0.919298,-0.385878 -1.384623,-0.556118 -0.442624,-0.158892 -0.851201,-0.419927 -1.282477,-0.624216 -0.408577,-0.192938 -0.851202,-0.283734 -1.282478,-0.442625 -1.509465,-0.567468 -3.166472,-1.361923 -4.789431,-1.361923 -0.567468,0 -1.203032,-0.113494 -1.702404,0.181589 -0.964697,0.567469 -1.203033,2.15638 -1.554863,3.121075 -0.476673,1.350575 -0.976045,2.6671 -1.475417,3.983622 z"
       id="path7520"
       inkscape:connector-curvature="0"
       style="fill:#000000;fill-opacity:1" /><path
       style="fill:#ffffff"
       inkscape:connector-curvature="0"
       id="path7522"
       d="m 121.38917,61.687279 c -0.53341,-0.998743 -1.21438,-1.815898 -2.00883,-2.428764 -0.27239,-0.215637 -0.73771,-0.35183 -1.33922,-0.533419 -0.40859,-0.124843 -0.82851,-0.249687 -1.23709,-0.408577 -1.03279,-0.397228 -1.80454,-1.146286 -2.15637,-2.110982 -0.57882,-1.622959 0.21564,-3.03028 0.69231,-3.858783 l 0.19293,-0.35183 c 0.64692,-1.384622 0.942,-2.451462 0.942,-3.39346 0.0113,-1.929391 -0.80581,-4.040372 -2.22448,-5.776825 -0.83985,-1.032792 -1.72509,-1.577562 -3.37075,-2.394716 l -0.69231,-0.306432 c -0.72637,-0.295084 -1.63431,-0.669612 -2.45146,-1.361923 -2.24719,-1.906693 -1.46408,-3.960928 -1.18034,-4.732685 l 0.15889,-0.453974 c 0.52207,-1.97479 0.81715,-3.529652 0.8512,-4.732685 0.0794,-2.145029 -0.97604,-4.471648 -2.98488,-6.559931 -2.80329,-2.928135 -7.127401,-4.971021 -10.509511,-4.971021 -0.306432,0 -0.726359,0.0908 -1.180333,0.18159 -0.635565,0.124844 -1.350575,0.283734 -2.14503,0.283734 -2.621703,-0.01135 -3.926879,-2.337969 -4.789431,-3.881482 -0.204289,-0.385878 -0.385878,-0.749058 -0.601516,-0.998743 -1.044142,-1.100888 -2.383366,-1.97479 -4.199264,-2.723848 C 78.080007,8.9354432 74.436863,8.5268662 71.111499,9.0602862 69.261553,9.3667192 67.559149,10.365463 65.7546,11.420954 l -0.646914,0.374529 c -0.646913,0.374529 -1.430019,0.465324 -2.145029,0.238336 -0.726359,-0.226987 -1.305177,-0.749058 -1.622959,-1.43002 -2.110981,-4.5851419 -7.762964,-4.936972 -9.44267,-4.936972 -2.11098,0 -4.221962,0.4426251 -5.935716,1.2597792 -0.465324,0.2496859 -2.757895,1.713754 -3.575049,2.337969 -0.771757,1.0781888 -2.235824,1.4300188 -3.438857,0.7944548 -3.541001,-1.9066927 -5.379597,-2.701148 -8.54607,-1.7137538 -2.6671,0.839853 -5.810873,2.8713888 -6.616677,6.0719088 -0.0681,0.249686 -0.07945,0.544769 -0.102145,0.873901 -0.04539,0.385879 -0.0908,0.828503 -0.170241,1.282478 0.05675,0.0227 0.113494,0.0227 0.170241,0.04539 0.953346,0.35183 3.575049,1.361924 2.996232,2.939486 -0.36318,0.964695 -1.872645,1.078189 -2.723847,1.157635 -3.450206,0.295083 -6.75287,1.918042 -9.238381,4.312756 -1.089539,1.044143 -1.793199,2.31527 -2.769245,3.438857 -0.783106,0.90795 -1.452718,1.577562 -1.974789,2.701148 -1.4186699,3.007582 -2.2812214,6.24215 -2.8373402,9.510767 -0.6128656,3.495604 -0.5107213,7.240893 -1.8726447,10.543557 -1.3392248,3.279966 -1.0895389,6.94581 -0.1588911,10.327919 0.2610353,0.941998 0.6015161,1.759152 1.0895388,2.564957 0.6128655,0.998743 1.06684,2.054234 2.0542345,2.712498 1.010093,0.680961 1.7591507,1.713753 2.0315367,2.950833 0.329131,1.464068 -0.3518306,2.644402 -0.680963,3.21187 -1.6797052,3.291315 -1.4527179,7.456531 0.453975,10.49816 0.851202,1.361924 2.042885,2.519559 3.427507,3.404808 0.158892,-0.442624 0.36318,-0.8739 0.669613,-1.259778 0.544769,-0.646914 2.020186,-1.588911 2.428763,-0.226988 0.317782,1.010094 0.306433,2.088283 0.261036,3.166472 -0.0227,0.55612 0,1.112238 0.01135,1.679706 0.113493,0.419927 0.192939,0.88525 0.192939,1.441369 -0.04539,4.971021 4.165216,9.261084 9.590211,9.760454 0.567469,0.0454 1.123587,0.0454 1.679706,0.034 -0.03404,-0.11349 -0.05675,-0.20429 -0.0908,-0.31778 -0.306433,-1.225732 -0.54477,-2.871392 0.204288,-2.916792 0.646914,-0.034 1.191683,0.82851 1.61161,1.21438 0.499372,0.46533 0.930648,0.987402 1.384622,1.486772 0.522071,0.57882 1.100889,1.19168 1.60026,1.82725 0.102144,0.10214 0.215638,0.21564 0.306433,0.30643 l 0.226987,0.23834 c 3.336712,3.09837 8.727659,5.01641 14.07321,5.01641 4.494347,0 8.466623,-1.32787 11.19047,-3.73393 l 0.476674,-0.51073 c 0.238337,-0.26103 0.499372,-0.54476 0.805805,-0.8285 0.18159,-0.20429 0.363179,-0.38588 0.510721,-0.61287 0.476674,-0.77175 1.134936,-1.38462 1.725103,-2.06558 0.556119,-0.635562 0.976046,-1.327872 1.588911,-1.906692 0.408577,-0.38588 1.361924,-0.941999 1.929391,-0.590169 0.55612,0.351829 0.601517,1.543509 0.54477,2.122331 -0.0681,0.62422 -0.238337,1.31653 -0.465324,1.98614 0.567468,0.12484 1.134936,0.28373 1.657007,0.44263 0.52207,0.15888 0.998744,0.32913 1.384622,0.38587 2.088283,0.31779 4.244662,0.40858 6.389691,0.28373 3.314014,-0.20428 7.978602,-1.03278 11.440158,-3.915522 l 0.317782,-0.31778 c 0.385878,-0.54477 0.919297,-1.055495 1.157635,-1.282482 0.669612,-0.680962 1.203032,-1.407321 1.781849,-2.13368 0.499372,-0.612866 0.953347,-1.282478 1.452718,-1.895343 0.385879,-0.465324 1.123587,-1.25978 1.781851,-1.225732 1.554862,0.07945 0.51072,2.701149 0.204288,3.427508 -0.215638,0.52207 -0.465324,1.021442 -0.726359,1.509465 0.567468,0.147542 1.112237,0.317782 1.611609,0.488023 0.794456,0.261031 1.532164,0.510721 2.13368,0.533421 l 0.431276,0 c 3.484257,0 6.593987,-1.520816 8.364477,-4.063073 0.0227,-0.04539 0.0568,-0.07945 0.0794,-0.124843 0.12485,-0.215638 0.23834,-0.499373 0.37453,-0.805805 0.22699,-0.52207 0.49937,-1.123587 0.83985,-1.702404 0.1816,-0.488023 0.35183,-0.998744 0.56747,-1.475418 0.40857,-0.828503 0.55612,-1.679705 0.8966,-2.519558 0.56746,-1.361923 1.7024,-1.622959 2.23583,-0.124843 0.11349,0.317783 0.20428,0.646914 0.26103,0.976045 0.0227,0.18159 0.0227,0.385879 0.0454,0.567468 0.78311,-0.136192 1.20304,-0.261035 1.54351,-0.408577 2.72386,-1.271128 4.6192,-4.925623 5.02777,-7.728915 0.1589,-1.100889 0.1135,-2.054235 -0.13619,-2.769244 -0.0794,-0.124844 -0.79445,-1.237081 -1.06684,-1.62296 l -0.34044,-0.453968 c -0.47667,-0.817154 -0.48802,-1.827247 -0.0227,-2.6671 0.8058,-1.441369 2.31527,-1.918042 3.31401,-2.235824 l 0.51073,-0.181591 c 1.44136,-0.749058 2.14502,-2.167728 2.46281,-3.234567 0.62421,-2.020187 0.43128,-4.482999 -0.52208,-6.24215 z" /><path
       d="m 64.846651,42.041533 c -0.488022,-1.010093 -1.24843,-1.532164 -2.394715,-1.089539 -0.8966,0.340481 -1.532164,1.078189 -2.349318,1.543514 -0.71501,0.408577 -1.600261,0.590166 -2.406065,0.760407 -1.702404,0.35183 -3.73394,0.181589 -5.118562,-0.941998 -0.930648,-0.760407 -1.702405,-1.600259 -2.008837,-2.871388 -0.295084,-1.191683 -0.170241,-3.790687 -2.020187,-3.234569 -0.862552,0.261037 -1.588911,1.248431 -2.360668,1.736453 -0.749058,0.465325 -1.702403,0.72636 -2.553606,0.817155 -1.747802,0.181589 -3.620447,-0.03405 -5.073165,-1.225732 -1.032792,-0.839853 -1.214382,-2.553607 -2.099631,-3.495603 -1.554863,-1.645658 -3.200521,1.05549 -4.517047,1.804548 -1.509466,0.862552 -4.834828,1.441369 -6.41239,0.272384 -1.475417,-1.089538 -1.759151,-4.324106 -4.097119,-2.031535 -1.146286,1.112238 -1.770501,2.462811 -2.553607,3.870133 -0.783106,1.441369 -1.452719,2.939484 -2.054234,4.460299 -0.749058,1.872644 -1.112239,4.063072 -1.45272,6.071908 -0.715009,4.244662 -2.701148,8.216939 -2.576304,12.529697 0.408577,13.69868 13.119862,21.972366 24.560019,21.69998 4.27871,-0.102143 8.897901,-0.817154 13.074466,-2.042884 7.343037,-2.179079 13.187959,-8.943298 14.799569,-17.058092 0.726359,-3.654495 0.567467,-7.49058 0.453974,-11.315315 -0.07945,-1.464067 0.442625,-7.592723 -0.839853,-10.259823 z"
       id="path7524"
       inkscape:connector-curvature="0"
       style="fill:#aa8165" /><path
       style="fill:#000000;fill-opacity:1"
       inkscape:connector-curvature="0"
       id="path7526"
       d="m 127.01846,69.552388 c 1.05549,-3.416159 0.70366,-7.399785 -0.90795,-10.396016 -0.8966,-1.668357 -2.05424,-3.064328 -3.46156,-4.142518 -0.70366,-0.53342 -1.41867,-0.862551 -2.08828,-1.100888 0.59016,-1.316526 1.28248,-3.177822 1.29382,-5.277453 0.0227,-3.21187 -1.21437,-6.480486 -3.43885,-9.192984 -1.57756,-1.929391 -3.25727,-2.86004 -5.14126,-3.802036 -0.32913,-0.170241 -0.68096,-0.306433 -1.03279,-0.465324 0,0 -0.36318,-0.147542 -0.34049,-0.204289 0.64692,-2.406064 0.97606,-4.278709 1.0328,-5.924367 0.14754,-3.609097 -1.44137,-7.331688 -4.47165,-10.486811 -3.85878,-4.017674 -9.499416,-6.616678 -14.368292,-6.616678 -0.851202,0 -1.60026,0.158891 -2.269872,0.295084 l -0.533421,0.102143 C 91.086376,12.033819 90.825341,11.568495 90.655101,11.262062 90.246524,10.535703 89.826598,9.7752962 89.270479,9.1964782 87.704267,7.5394717 85.718128,6.2342951 83.19857,5.2015031 79.203594,3.5898937 74.561705,3.0678229 70.271647,3.760134 68.149315,4.1006149 66.333418,4.9404677 64.68776,5.8484167 61.929865,2.3301144 57.356072,0.29857856 51.897028,0.29857856 c -2.928135,0 -5.788174,0.6128655 -8.239636,1.77050054 -0.35183,0.1702404 -2.281222,1.1122375 -3.892831,2.3606674 -2.281222,-1.1462856 -4.312758,-1.8953436 -6.798268,-1.8953436 -1.339225,0 -2.701148,0.2269873 -4.165217,0.6809617 -2.984882,0.9306478 -5.788174,2.6444015 -7.774312,5.0845146 -0.941998,1.157635 -1.691056,2.4628108 -2.167729,3.8701328 -0.465323,1.350573 -0.465323,4.051721 -1.691055,4.846177 -1.509465,0.987395 -3.257267,1.464067 -4.732684,2.587654 -0.488023,0.374529 -1.010093,0.499372 -1.498116,0.839853 -0.442625,0.317782 -0.805805,0.828504 -1.2370804,1.203033 -0.6128652,0.53342 -1.2484297,0.919299 -1.7931992,1.577561 -1.06684,1.293828 -2.0201864,2.417415 -2.7238469,3.972277 -1.2484299,2.769244 -1.6002601,5.810874 -2.0428852,8.761708 -0.1134936,0.749058 0.1134936,1.543513 0.022699,2.292571 -0.090795,0.783106 -0.2042885,1.464068 -0.2042885,2.281222 0,2.349318 -0.124843,4.732684 0.6923111,6.979858 0.817154,2.235824 -0.907949,3.132424 -1.7478018,5.084514 -0.4426251,1.032792 -0.6809617,2.13368 -0.93064776,3.211869 -0.32913146,1.44137 -0.39722761,2.803293 -0.39722761,4.312758 0,1.657007 0.82850337,3.052978 1.03279197,4.641889 0.2156378,1.634309 0.9306477,2.973533 1.8726447,4.358156 0.2383367,0.35183 0.5674681,0.737708 0.9192984,1.123587 l 0.3404808,0.385878 -0.045397,0.07945 c -2.4287636,4.834828 -2.1223308,10.952134 0.7944553,15.605372 1.4640677,2.337969 3.5523505,4.301409 6.1967521,5.765477 0.102145,0.05675 0.124843,1.611609 0.158892,1.827247 0.0908,0.612866 0.226986,1.225731 0.408576,1.827247 0.340481,1.180333 0.839853,2.31527 1.475418,3.370758 0.635564,1.055492 1.395971,2.031542 2.269872,2.905442 1.747801,1.7478 4.721334,3.16647 7.047953,3.90418 1.986139,0.62421 4.142518,0.60152 6.06056,1.45272 2.31527,1.03279 4.324107,2.6217 6.616678,3.68854 1.225731,0.57882 2.50821,1.05549 3.802037,1.44137 2.621703,0.78311 5.368249,1.18033 8.103445,1.18033 2.780593,0 5.583886,-0.38587 8.216938,-1.29382 2.84869,-0.97605 5.86762,-2.7352 8.228288,-4.59649 0.238336,-0.19295 0.533419,-0.46533 0.805805,-0.59017 0.680961,-0.29509 1.940741,0.45398 2.610353,0.65826 1.066839,0.31778 2.167728,0.53342 3.268616,0.66961 6.128655,0.74906 12.779382,-1.04414 17.886595,-4.4603 0.794455,-0.53342 1.554863,-1.39597 2.48551,-1.69106 1.089539,-0.34047 2.213126,0.43128 3.245918,0.61288 3.268616,0.57882 6.650727,0.23833 9.794497,-0.80581 3.93823,-1.30518 6.17406,-4.505699 7.72891,-8.137495 0.29509,-0.692311 1.39598,-0.919298 1.99749,-1.214382 2.26988,-1.112237 4.70999,-1.95209 6.23081,-4.097119 1.29383,-1.827248 1.87264,-4.017675 2.22447,-6.196752 0.15889,-0.998745 0.28373,-1.997488 0.24969,-3.007581 -0.0341,-0.998744 -0.52208,-2.042885 -0.52208,-2.984883 0,0 -0.0907,-0.249686 -0.21564,-0.624214 2.44012,-1.203033 4.26737,-3.484255 5.15262,-6.366992 z m -7.59272,1.645657 -0.51073,0.18159 c -0.99874,0.306432 -2.5082,0.783106 -3.31401,2.235824 -0.46532,0.828504 -0.45397,1.849946 0.0227,2.6671 l 0.34048,0.453975 c 0.27238,0.385878 0.98739,1.486766 1.06684,1.622959 0.24968,0.715009 0.29509,1.668355 0.13619,2.769243 -0.40857,2.803293 -2.30391,6.469138 -5.02777,7.728916 -0.32913,0.158892 -0.74905,0.272386 -1.54351,0.408577 -0.0227,-0.181589 -0.0227,-0.385878 -0.0454,-0.567467 -0.0681,-0.329132 -0.1589,-0.658264 -0.26105,-0.976046 -0.53341,-1.498116 -1.66835,-1.248429 -2.23582,0.124843 -0.34048,0.839853 -0.48802,1.691056 -0.89659,2.519558 -0.22699,0.476674 -0.38589,0.976046 -0.56747,1.475418 -0.34048,0.590167 -0.61286,1.180333 -0.83985,1.702404 -0.12485,0.306433 -0.24969,0.590167 -0.37454,0.805805 -0.0227,0.04539 -0.0568,0.07945 -0.0794,0.124843 -1.7705,2.542257 -4.88023,4.063071 -8.364481,4.063071 l -0.431276,0 c -0.590166,-0.0227 -1.339224,-0.27238 -2.13368,-0.533419 -0.510721,-0.170241 -1.044141,-0.340482 -1.611609,-0.488023 0.261035,-0.488023 0.510721,-0.987395 0.726359,-1.509465 0.306432,-0.71501 1.350574,-3.348063 -0.204288,-3.427507 -0.658263,-0.03405 -1.395972,0.760407 -1.781851,1.22573 -0.499371,0.601517 -0.953346,1.282478 -1.452718,1.895344 -0.590166,0.72636 -1.112237,1.464068 -1.781849,2.13368 -0.238338,0.226987 -0.771757,0.74906 -1.157635,1.28248 l -0.317742,0.31778 c -3.461556,2.871392 -8.126144,3.711242 -11.440158,3.915532 -2.145029,0.13619 -4.301408,0.0341 -6.389691,-0.28374 -0.385878,-0.0568 -0.862552,-0.22699 -1.384622,-0.38587 -0.522071,-0.15889 -1.07819,-0.31779 -1.657007,-0.44263 0.226987,-0.68096 0.397228,-1.36192 0.465324,-1.98613 0.05674,-0.590172 0.01135,-1.770512 -0.54477,-2.122339 -0.567467,-0.35183 -1.509465,0.204287 -1.929391,0.590167 -0.612865,0.57882 -1.032792,1.27113 -1.588911,1.906692 -0.590167,0.68097 -1.259779,1.30518 -1.725103,2.06559 -0.147542,0.22698 -0.329131,0.41993 -0.510721,0.61286 -0.306433,0.28374 -0.567468,0.56747 -0.805805,0.8285 l -0.476674,0.51073 c -2.723846,2.40606 -6.696123,3.73394 -11.19047,3.73394 -5.334201,0 -10.736498,-1.9294 -14.07321,-5.01642 l -0.226987,-0.23834 c -0.0908,-0.0907 -0.204289,-0.20429 -0.306432,-0.30643 -0.499373,-0.63556 -1.08954,-1.24843 -1.600261,-1.82725 -0.453974,-0.49937 -0.896599,-1.021442 -1.384622,-1.486762 -0.419927,-0.38588 -0.964696,-1.24843 -1.611609,-1.21438 -0.749059,0.0454 -0.510722,1.69105 -0.204289,2.916782 0.0227,0.12484 0.04539,0.20429 0.0908,0.31778 -0.556119,0.0227 -1.112237,0.0227 -1.679706,-0.034 -5.413646,-0.51072 -9.624259,-4.78943 -9.590211,-9.760451 0,-0.556119 -0.07945,-1.021442 -0.192939,-1.441368 -0.0227,-0.567469 -0.03404,-1.123587 -0.01135,-1.679706 0.04539,-1.07819 0.05674,-2.156379 -0.261036,-3.166473 -0.408577,-1.361923 -1.895343,-0.419926 -2.428763,0.226988 -0.317783,0.385878 -0.510721,0.817153 -0.669613,1.259779 C 12.07219,86.031665 10.880507,84.87403 10.029305,83.523455 8.1225383,80.470474 7.8955511,76.316607 9.5752562,73.025292 9.9043886,72.457824 10.58535,71.27749 10.256219,69.813423 9.5866056,66.885287 5.4894863,65.296377 5.9094127,62.02776 6.1137012,60.450198 6.3293391,58.849938 6.6584705,57.272377 6.9762527,55.79696 7.452926,54.389639 8.1452371,53.050414 8.7240546,51.926827 9.7341477,51.098325 10.176773,49.94069 c 0.283734,-0.749059 0.680962,-2.15638 1.657007,-2.281223 -0.397227,0.05674 -1.350574,-5.629284 -1.373273,-6.117306 -0.158891,-2.984882 -0.374529,-7.013905 0.329131,-9.930692 0.465324,-1.952091 1.486767,-3.767988 2.757895,-5.300152 2.564956,-3.075677 6.378343,-5.198009 10.384667,-5.549839 0.851202,-0.07945 2.372017,-0.181589 2.723847,-1.157635 0.578818,-1.57756 -2.031536,-2.587654 -2.996231,-2.939484 -0.05675,-0.0227 -0.113494,-0.0227 -0.170241,-0.04539 0.07945,-0.453974 0.124843,-0.896599 0.170241,-1.282477 0.0227,-0.317783 0.04539,-0.624216 0.102144,-0.873901 0.805804,-3.200521 3.949577,-5.2434058 6.616677,-6.0719088 3.166473,-0.9987441 4.99372,-0.192939 8.546071,1.7137528 1.203032,0.635565 2.6671,0.283735 3.438856,-0.7944548 0.817154,-0.624215 3.109726,-2.0882826 3.57505,-2.3379685 1.713753,-0.8058047 3.824735,-1.2597793 5.935716,-1.2597793 1.691055,0 7.331688,0.3518302 9.44267,4.9369726 0.317782,0.680962 0.907949,1.203033 1.622959,1.43002 0.715009,0.238336 1.498115,0.136192 2.145029,-0.238337 l 0.646913,-0.374529 c 1.804549,-1.055491 3.506953,-2.0542348 5.3569,-2.3606668 3.325363,-0.53342 6.968508,-0.124843 10.044185,1.1122368 1.815898,0.749058 3.166472,1.61161 4.199264,2.723847 0.215638,0.238337 0.385878,0.612865 0.601516,0.998744 0.862552,1.543513 2.167728,3.870132 4.789431,3.881482 0.794455,0 1.509466,-0.147542 2.14503,-0.283734 0.453975,-0.0908 0.873901,-0.18159 1.180334,-0.18159 3.382109,0 7.694859,2.042885 10.509509,4.97102 2.00884,2.088283 3.06433,4.426252 2.98488,6.559932 -0.0454,1.203032 -0.32913,2.757895 -0.8512,4.732684 l -0.15889,0.453975 c -0.28373,0.771757 -1.06684,2.82599 1.18033,4.732683 0.81715,0.680963 1.7251,1.055492 2.45146,1.361924 l 0.69231,0.306433 c 1.65701,0.828503 2.53091,1.361924 3.37077,2.394716 1.43001,1.736451 2.23582,3.836084 2.22447,5.776825 0,0.941996 -0.30643,2.008837 -0.942,3.393459 l -0.19294,0.35183 c -0.47667,0.839853 -1.27112,2.235824 -0.6923,3.858784 0.35183,0.964696 1.11223,1.713754 2.15637,2.110981 0.40858,0.158891 0.82851,0.283734 1.23709,0.408577 0.59016,0.18159 1.05549,0.317782 1.33922,0.53342 0.78311,0.612866 1.46407,1.430019 2.00883,2.428764 0.942,1.75915 1.14629,4.221963 0.49937,6.276197 -0.29508,1.021443 -0.98739,2.440113 -2.4401,3.189171 z" /><path
       d="m 22.014158,55.479178 c -2.337969,-0.680962 -3.643145,-3.541001 -2.894087,-6.40104 0.771756,-2.837341 3.279965,-4.619191 5.629283,-3.92688 2.337969,0.658263 3.643146,3.541002 2.86004,6.389691 -0.749058,2.84869 -3.257268,4.596492 -5.595236,3.938229 z"
       id="path7528"
       inkscape:connector-curvature="0"
       style="fill:#000000;fill-opacity:1" /><path
       d="m 37.483339,70.57383 c -0.703661,0.215637 -1.384623,0.329131 -2.099633,0.453975 -0.272384,0.04539 -0.567467,0.0681 -0.851201,0.102143 -0.408577,0.05675 -0.8966,-0.0227 -1.282478,0.136193 -0.533421,0.215638 -0.442626,1.634308 -0.453975,2.065584 0,0.771757 0.03404,1.554863 0.102144,2.32662 0.0227,0.306432 0.0908,0.760407 -0.0681,1.05549 -0.170241,0.306433 -0.453975,0.249686 -0.760407,0.226987 -0.726359,-0.05675 -1.486767,-0.136192 -1.997488,-0.726359 -0.828504,-0.964696 -0.476674,-2.530908 -0.329132,-3.654494 0.04539,-0.351831 0.113494,-0.703661 0.124844,-1.055492 l 0.0227,-0.499371 -0.181591,-0.590168 -0.578817,-0.476672 C 28.029316,68.871425 26.73549,68.122367 26.088576,66.6583 25.691349,65.75035 25.47571,63.968501 26.90573,63.911754 c 1.657007,-0.07945 2.519559,2.14503 3.597748,2.996231 1.464067,1.146286 3.325363,1.146286 5.050466,0.692312 0.862552,-0.226988 1.588911,-0.737708 2.440113,-1.010094 0.306433,-0.0908 0.646914,-0.181589 0.941997,-0.249685 0.987395,-0.226988 1.60026,0.295083 1.645658,1.282478 0.124843,1.634308 -1.7932,2.576305 -3.098376,2.950834 z"
       id="path7530"
       inkscape:connector-curvature="0"
       style="fill:#000000;fill-opacity:1" /><path
       d="m 48.072293,60.143766 c -2.462811,-0.408577 -4.119818,-3.155123 -3.699891,-6.140005 0.431275,-2.973533 2.769244,-5.084515 5.220706,-4.675938 2.451462,0.385879 4.119819,3.143774 3.677194,6.128656 -0.408577,2.984882 -2.746546,5.061816 -5.198009,4.687287 z"
       id="path7532"
       inkscape:connector-curvature="0"
       style="fill:#000000;fill-opacity:1" /><path
       style="fill:#000000;fill-opacity:1"
       inkscape:connector-curvature="0"
       id="path7534"
       d="m 65.152865,28.987465 c 1.679706,-1.089538 3.72259,-1.248429 5.629284,-0.499371 2.088282,0.828504 3.813386,2.428763 5.141261,4.199264 0.658262,0.873901 1.259779,1.815898 1.713754,2.814642 0.953346,2.088282 1.475417,5.606585 -0.0227,7.581374 -1.554863,2.031536 -5.788175,-0.54477 -3.881482,-2.235824 0.510722,-0.442626 1.282478,-0.385879 1.691054,-0.964697 0.783106,-1.100888 -0.226986,-3.143773 -0.760407,-4.131167 -0.817153,-1.498116 -2.054234,-2.746546 -3.620446,-3.461556 -1.41867,-0.658262 -3.938229,-0.669612 -5.277453,0.35183 -0.862552,0.658263 -1.066841,2.394716 -2.394716,1.588911 -1.78185,-1.100888 -0.05674,-3.699892 0.987394,-4.63054 0.261036,-0.238336 0.522071,-0.442625 0.794456,-0.612866 z" /><path
       style="fill:#ffffff;fill-opacity:1;fill-rule:evenodd;stroke:none;stroke-width:1px;stroke-linecap:butt;stroke-linejoin:miter;stroke-opacity:1"
       d="M 23.623417,17.065338 C 15.947873,13.823983 11.273942,16.004898 11.839572,27.650825 l 10.785215,-0.499314 c 2.659066,-5.1067 1.333753,-7.225116 0.99863,-10.086173 z"
       id="path7536"
       inkscape:connector-curvature="0"
       sodipodi:nodetypes="cccc" /><path
       d="m 22.974797,14.026257 c -1.656841,-1.124003 -3.696007,-1.32506 -5.617768,-0.615548 -2.104951,0.785189 -3.862742,2.349471 -5.226908,4.092165 -0.676177,0.860114 -1.297021,1.789486 -1.771529,2.778639 -0.9962811,2.068144 -1.5909181,5.574912 -0.133915,7.580225 1.512565,2.063222 5.798193,-0.425086 3.926839,-2.155167 -0.501455,-0.453096 -1.274233,-0.412287 -1.670767,-0.999422 -0.760198,-1.116831 0.29188,-3.138414 0.845583,-4.114579 0.847927,-1.480916 2.110532,-2.703524 3.691181,-3.386029 1.431964,-0.628816 3.95122,-0.588117 5.269057,0.460771 0.848772,0.67594 1.017147,2.416243 2.361384,1.638041 1.804211,-1.063846 0.133163,-3.697932 -0.891532,-4.64995 -0.256081,-0.243649 -0.512798,-0.453334 -0.781624,-0.629146 z"
       id="path7538"
       inkscape:connector-curvature="0"
       style="fill:#000000;fill-opacity:1" /></g><g
     id="g7497"
     transform="matrix(0.67350364,0,0,0.67350364,41.667528,41.666874)"><path
       style="fill:#000000;fill-opacity:1"
       inkscape:connector-curvature="0"
       id="path11"
       d="m 105.18229,101.16036 c 1.79319,2.6898 3.67719,5.4023 6.15135,7.51328 1.32788,1.13494 2.90543,2.09963 4.65324,2.38337 1.88399,0.29508 3.72259,-0.34048 5.25475,-1.44138 1.35058,-0.97604 1.89534,-2.22447 1.63431,-3.85878 -0.66962,-4.18791 -2.49686,-8.046695 -4.15386,-11.905478 -1.60026,-3.722591 -2.76925,-7.581374 -4.14252,-11.38341 -0.71501,-1.97479 -4.43761,0.226986 -5.61794,0.862551 -1.94073,1.021443 -3.79068,2.303921 -5.41364,3.756639 -0.69231,0.635564 -1.33923,1.271129 -1.70241,2.145029 -0.27238,0.669613 -0.31778,1.191683 -0.36318,1.895344 -0.22699,3.711242 1.70241,7.047953 3.6999,10.032835 z" /><path
       style="fill:#000000;fill-opacity:1"
       inkscape:connector-curvature="0"
       id="path13"
       d="m 80.974095,107.74299 c 0.397228,0.9647 0.828504,1.88399 1.327875,2.74655 0.71501,1.25978 1.7932,2.11098 3.21187,2.45146 3.393459,0.82851 7.524627,-1.44137 7.955903,-5.07317 0.476673,-3.99497 0.839853,-8.432572 0.07945,-12.416198 -0.05674,-0.295083 0.0681,-0.896599 -0.124843,-1.134936 -0.226987,-0.272385 -0.771757,0 -1.05549,0.04539 -0.737709,0.136193 -1.43002,0.295083 -2.145029,0.510722 -0.510722,0.147541 -1.055492,0.238336 -1.577562,0.397228 -0.465324,0.136191 -0.930648,0.261035 -1.41867,0.363179 -0.556119,0.113493 -1.089539,0.340481 -1.645658,0.488022 -0.612866,0.170241 -1.23708,0.238337 -1.838596,0.397228 -1.203033,0.317783 -2.553607,0.635565 -3.688543,1.146285 -0.646914,0.295084 -1.032792,0.590168 -1.214382,1.282478 -0.18159,0.68096 0.102144,1.486772 0.226987,2.156382 0.385879,2.17908 1.021443,4.49435 1.906693,6.63938 z" /><path
       style="fill:#000000;fill-opacity:1"
       inkscape:connector-curvature="0"
       id="path15"
       d="m 55.108898,113.64466 c 0.238337,1.39598 0.488023,2.7806 0.726359,4.17657 0.158892,0.91929 0.238338,1.94074 0.54477,2.83734 2.088282,5.99246 7.626771,9.09083 12.609141,5.30015 2.417415,-1.84995 2.67845,-5.30015 2.689799,-8.11479 0.01135,-2.7352 0.0227,-5.4704 -0.04539,-8.20559 -0.0681,-2.39472 0.05674,-5.09587 -0.522071,-7.43384 -0.192939,-0.7831 -0.964696,-1.06684 -1.679705,-1.08954 -2.065585,-0.0567 -4.153867,0.0454 -6.208102,0.21564 -1.60026,0.1362 -3.189171,0.57882 -4.766732,0.88525 -1.271128,0.24969 -2.553606,0.79446 -3.575049,1.57757 -1.350574,1.02144 -0.499372,4.68729 -0.329131,6.09461 0.136192,1.24842 0.340481,2.5082 0.556118,3.75663 z" /><path
       style="fill:#000000;fill-opacity:1"
       inkscape:connector-curvature="0"
       id="path17"
       d="m 11.368456,99.003978 c -0.88525,2.303932 -1.8272469,4.585152 -2.7692444,6.866372 -0.8625516,2.07693 -2.7692445,5.92437 -1.7024044,8.22829 2.4401128,5.30015 9.1702848,3.98363 12.7907308,0.8285 1.96344,-1.70241 3.450206,-3.85878 4.857528,-6.03786 2.201776,-3.38211 4.494347,-7.11605 3.994975,-11.303967 -0.147541,-1.248431 -1.259779,-1.532164 -2.31527,-2.020187 -0.499372,-0.226988 -0.907948,-0.590168 -1.384622,-0.862552 -0.431276,-0.249686 -0.919298,-0.385878 -1.384623,-0.556118 -0.442624,-0.158892 -0.851201,-0.419927 -1.282477,-0.624216 -0.408577,-0.192938 -0.851202,-0.283734 -1.282478,-0.442625 -1.509465,-0.567468 -3.166472,-1.361923 -4.789431,-1.361923 -0.567468,0 -1.203032,-0.113494 -1.702404,0.181589 -0.964697,0.567469 -1.203033,2.15638 -1.554863,3.121075 -0.476673,1.350575 -0.976045,2.6671 -1.475417,3.983622 z" /><path
       d="m 121.38917,61.687279 c -0.53341,-0.998743 -1.21438,-1.815898 -2.00883,-2.428764 -0.27239,-0.215637 -0.73771,-0.35183 -1.33922,-0.533419 -0.40859,-0.124843 -0.82851,-0.249687 -1.23709,-0.408577 -1.03279,-0.397228 -1.80454,-1.146286 -2.15637,-2.110982 -0.57882,-1.622959 0.21564,-3.03028 0.69231,-3.858783 l 0.19293,-0.35183 c 0.64692,-1.384622 0.942,-2.451462 0.942,-3.39346 0.0113,-1.929391 -0.80581,-4.040372 -2.22448,-5.776825 -0.83985,-1.032792 -1.72509,-1.577562 -3.37075,-2.394716 l -0.69231,-0.306432 c -0.72637,-0.295084 -1.63431,-0.669612 -2.45146,-1.361923 -2.24719,-1.906693 -1.46408,-3.960928 -1.18034,-4.732685 l 0.15889,-0.453974 c 0.52207,-1.97479 0.81715,-3.529652 0.8512,-4.732685 0.0794,-2.145029 -0.97604,-4.471648 -2.98488,-6.559931 -2.80329,-2.928135 -7.127401,-4.971021 -10.509511,-4.971021 -0.306432,0 -0.726359,0.0908 -1.180333,0.18159 -0.635565,0.124844 -1.350575,0.283734 -2.14503,0.283734 -2.621703,-0.01135 -3.926879,-2.337969 -4.789431,-3.881482 -0.204289,-0.385878 -0.385878,-0.749058 -0.601516,-0.998743 -1.044142,-1.100888 -2.383366,-1.97479 -4.199264,-2.723848 C 78.080007,8.9354432 74.436863,8.5268662 71.111499,9.0602862 69.261553,9.3667192 67.559149,10.365463 65.7546,11.420954 l -0.646914,0.374529 c -0.646913,0.374529 -1.430019,0.465324 -2.145029,0.238336 -0.726359,-0.226987 -1.305177,-0.749058 -1.622959,-1.43002 -2.110981,-4.5851419 -7.762964,-4.936972 -9.44267,-4.936972 -2.11098,0 -4.221962,0.4426251 -5.935716,1.2597792 -0.465324,0.2496859 -2.757895,1.713754 -3.575049,2.337969 -0.771757,1.0781888 -2.235824,1.4300188 -3.438857,0.7944548 -3.541001,-1.9066927 -5.379597,-2.701148 -8.54607,-1.7137538 -2.6671,0.839853 -5.810873,2.8713888 -6.616677,6.0719088 -0.0681,0.249686 -0.07945,0.544769 -0.102145,0.873901 -0.04539,0.385879 -0.0908,0.828503 -0.170241,1.282478 0.05675,0.0227 0.113494,0.0227 0.170241,0.04539 0.953346,0.35183 3.575049,1.361924 2.996232,2.939486 -0.36318,0.964695 -1.872645,1.078189 -2.723847,1.157635 -3.450206,0.295083 -6.75287,1.918042 -9.238381,4.312756 -1.089539,1.044143 -1.793199,2.31527 -2.769245,3.438857 -0.783106,0.90795 -1.452718,1.577562 -1.974789,2.701148 -1.4186699,3.007582 -2.2812214,6.24215 -2.8373402,9.510767 -0.6128656,3.495604 -0.5107213,7.240893 -1.8726447,10.543557 -1.3392248,3.279966 -1.0895389,6.94581 -0.1588911,10.327919 0.2610353,0.941998 0.6015161,1.759152 1.0895388,2.564957 0.6128655,0.998743 1.06684,2.054234 2.0542345,2.712498 1.010093,0.680961 1.7591507,1.713753 2.0315367,2.950833 0.329131,1.464068 -0.3518306,2.644402 -0.680963,3.21187 -1.6797052,3.291315 -1.4527179,7.456531 0.453975,10.49816 0.851202,1.361924 2.042885,2.519559 3.427507,3.404808 0.158892,-0.442624 0.36318,-0.8739 0.669613,-1.259778 0.544769,-0.646914 2.020186,-1.588911 2.428763,-0.226988 0.317782,1.010094 0.306433,2.088283 0.261036,3.166472 -0.0227,0.55612 0,1.112238 0.01135,1.679706 0.113493,0.419927 0.192939,0.88525 0.192939,1.441369 -0.04539,4.971021 4.165216,9.261084 9.590211,9.760454 0.567469,0.0454 1.123587,0.0454 1.679706,0.034 -0.03404,-0.11349 -0.05675,-0.20429 -0.0908,-0.31778 -0.306433,-1.225732 -0.54477,-2.871392 0.204288,-2.916792 0.646914,-0.034 1.191683,0.82851 1.61161,1.21438 0.499372,0.46533 0.930648,0.987402 1.384622,1.486772 0.522071,0.57882 1.100889,1.19168 1.60026,1.82725 0.102144,0.10214 0.215638,0.21564 0.306433,0.30643 l 0.226987,0.23834 c 3.336712,3.09837 8.727659,5.01641 14.07321,5.01641 4.494347,0 8.466623,-1.32787 11.19047,-3.73393 l 0.476674,-0.51073 c 0.238337,-0.26103 0.499372,-0.54476 0.805805,-0.8285 0.18159,-0.20429 0.363179,-0.38588 0.510721,-0.61287 0.476674,-0.77175 1.134936,-1.38462 1.725103,-2.06558 0.556119,-0.635562 0.976046,-1.327872 1.588911,-1.906692 0.408577,-0.38588 1.361924,-0.941999 1.929391,-0.590169 0.55612,0.351829 0.601517,1.543509 0.54477,2.122331 -0.0681,0.62422 -0.238337,1.31653 -0.465324,1.98614 0.567468,0.12484 1.134936,0.28373 1.657007,0.44263 0.52207,0.15888 0.998744,0.32913 1.384622,0.38587 2.088283,0.31779 4.244662,0.40858 6.389691,0.28373 3.314014,-0.20428 7.978602,-1.03278 11.440158,-3.915522 l 0.317782,-0.31778 c 0.385878,-0.54477 0.919297,-1.055495 1.157635,-1.282482 0.669612,-0.680962 1.203032,-1.407321 1.781849,-2.13368 0.499372,-0.612866 0.953347,-1.282478 1.452718,-1.895343 0.385879,-0.465324 1.123587,-1.25978 1.781851,-1.225732 1.554862,0.07945 0.51072,2.701149 0.204288,3.427508 -0.215638,0.52207 -0.465324,1.021442 -0.726359,1.509465 0.567468,0.147542 1.112237,0.317782 1.611609,0.488023 0.794456,0.261031 1.532164,0.510721 2.13368,0.533421 l 0.431276,0 c 3.484257,0 6.593987,-1.520816 8.364477,-4.063073 0.0227,-0.04539 0.0568,-0.07945 0.0794,-0.124843 0.12485,-0.215638 0.23834,-0.499373 0.37453,-0.805805 0.22699,-0.52207 0.49937,-1.123587 0.83985,-1.702404 0.1816,-0.488023 0.35183,-0.998744 0.56747,-1.475418 0.40857,-0.828503 0.55612,-1.679705 0.8966,-2.519558 0.56746,-1.361923 1.7024,-1.622959 2.23583,-0.124843 0.11349,0.317783 0.20428,0.646914 0.26103,0.976045 0.0227,0.18159 0.0227,0.385879 0.0454,0.567468 0.78311,-0.136192 1.20304,-0.261035 1.54351,-0.408577 2.72386,-1.271128 4.6192,-4.925623 5.02777,-7.728915 0.1589,-1.100889 0.1135,-2.054235 -0.13619,-2.769244 -0.0794,-0.124844 -0.79445,-1.237081 -1.06684,-1.62296 l -0.34044,-0.453968 c -0.47667,-0.817154 -0.48802,-1.827247 -0.0227,-2.6671 0.8058,-1.441369 2.31527,-1.918042 3.31401,-2.235824 l 0.51073,-0.181591 c 1.44136,-0.749058 2.14502,-2.167728 2.46281,-3.234567 0.62421,-2.020187 0.43128,-4.482999 -0.52208,-6.24215 z"
       id="path21"
       inkscape:connector-curvature="0"
       style="fill:#ffffff" /><path
       style="fill:#aa8165"
       inkscape:connector-curvature="0"
       id="path23"
       d="m 64.846651,42.041533 c -0.488022,-1.010093 -1.24843,-1.532164 -2.394715,-1.089539 -0.8966,0.340481 -1.532164,1.078189 -2.349318,1.543514 -0.71501,0.408577 -1.600261,0.590166 -2.406065,0.760407 -1.702404,0.35183 -3.73394,0.181589 -5.118562,-0.941998 -0.930648,-0.760407 -1.702405,-1.600259 -2.008837,-2.871388 -0.295084,-1.191683 -0.170241,-3.790687 -2.020187,-3.234569 -0.862552,0.261037 -1.588911,1.248431 -2.360668,1.736453 -0.749058,0.465325 -1.702403,0.72636 -2.553606,0.817155 -1.747802,0.181589 -3.620447,-0.03405 -5.073165,-1.225732 -1.032792,-0.839853 -1.214382,-2.553607 -2.099631,-3.495603 -1.554863,-1.645658 -3.200521,1.05549 -4.517047,1.804548 -1.509466,0.862552 -4.834828,1.441369 -6.41239,0.272384 -1.475417,-1.089538 -1.759151,-4.324106 -4.097119,-2.031535 -1.146286,1.112238 -1.770501,2.462811 -2.553607,3.870133 -0.783106,1.441369 -1.452719,2.939484 -2.054234,4.460299 -0.749058,1.872644 -1.112239,4.063072 -1.45272,6.071908 -0.715009,4.244662 -2.701148,8.216939 -2.576304,12.529697 0.408577,13.69868 13.119862,21.972366 24.560019,21.69998 4.27871,-0.102143 8.897901,-0.817154 13.074466,-2.042884 7.343037,-2.179079 13.187959,-8.943298 14.799569,-17.058092 0.726359,-3.654495 0.567467,-7.49058 0.453974,-11.315315 -0.07945,-1.464067 0.442625,-7.592723 -0.839853,-10.259823 z" /><path
       d="m 127.01846,69.552388 c 1.05549,-3.416159 0.70366,-7.399785 -0.90795,-10.396016 -0.8966,-1.668357 -2.05424,-3.064328 -3.46156,-4.142518 -0.70366,-0.53342 -1.41867,-0.862551 -2.08828,-1.100888 0.59016,-1.316526 1.28248,-3.177822 1.29382,-5.277453 0.0227,-3.21187 -1.21437,-6.480486 -3.43885,-9.192984 -1.57756,-1.929391 -3.25727,-2.86004 -5.14126,-3.802036 -0.32913,-0.170241 -0.68096,-0.306433 -1.03279,-0.465324 0,0 -0.36318,-0.147542 -0.34049,-0.204289 0.64692,-2.406064 0.97606,-4.278709 1.0328,-5.924367 0.14754,-3.609097 -1.44137,-7.331688 -4.47165,-10.486811 -3.85878,-4.017674 -9.499416,-6.616678 -14.368292,-6.616678 -0.851202,0 -1.60026,0.158891 -2.269872,0.295084 l -0.533421,0.102143 C 91.086376,12.033819 90.825341,11.568495 90.655101,11.262062 90.246524,10.535703 89.826598,9.7752962 89.270479,9.1964782 87.704267,7.5394717 85.718128,6.2342951 83.19857,5.2015031 79.203594,3.5898937 74.561705,3.0678229 70.271647,3.760134 68.149315,4.1006149 66.333418,4.9404677 64.68776,5.8484167 61.929865,2.3301144 57.356072,0.29857856 51.897028,0.29857856 c -2.928135,0 -5.788174,0.6128655 -8.239636,1.77050054 -0.35183,0.1702404 -2.281222,1.1122375 -3.892831,2.3606674 -2.281222,-1.1462856 -4.312758,-1.8953436 -6.798268,-1.8953436 -1.339225,0 -2.701148,0.2269873 -4.165217,0.6809617 -2.984882,0.9306478 -5.788174,2.6444015 -7.774312,5.0845146 -0.941998,1.157635 -1.691056,2.4628108 -2.167729,3.8701328 -0.465323,1.350573 -0.465323,4.051721 -1.691055,4.846177 -1.509465,0.987395 -3.257267,1.464067 -4.732684,2.587654 -0.488023,0.374529 -1.010093,0.499372 -1.498116,0.839853 -0.442625,0.317782 -0.805805,0.828504 -1.2370804,1.203033 -0.6128652,0.53342 -1.2484297,0.919299 -1.7931992,1.577561 -1.06684,1.293828 -2.0201864,2.417415 -2.7238469,3.972277 -1.2484299,2.769244 -1.6002601,5.810874 -2.0428852,8.761708 -0.1134936,0.749058 0.1134936,1.543513 0.022699,2.292571 -0.090795,0.783106 -0.2042885,1.464068 -0.2042885,2.281222 0,2.349318 -0.124843,4.732684 0.6923111,6.979858 0.817154,2.235824 -0.907949,3.132424 -1.7478018,5.084514 -0.4426251,1.032792 -0.6809617,2.13368 -0.93064776,3.211869 -0.32913146,1.44137 -0.39722761,2.803293 -0.39722761,4.312758 0,1.657007 0.82850337,3.052978 1.03279197,4.641889 0.2156378,1.634309 0.9306477,2.973533 1.8726447,4.358156 0.2383367,0.35183 0.5674681,0.737708 0.9192984,1.123587 l 0.3404808,0.385878 -0.045397,0.07945 c -2.4287636,4.834828 -2.1223308,10.952134 0.7944553,15.605372 1.4640677,2.337969 3.5523505,4.301409 6.1967521,5.765477 0.102145,0.05675 0.124843,1.611609 0.158892,1.827247 0.0908,0.612866 0.226986,1.225731 0.408576,1.827247 0.340481,1.180333 0.839853,2.31527 1.475418,3.370758 0.635564,1.055492 1.395971,2.031542 2.269872,2.905442 1.747801,1.7478 4.721334,3.16647 7.047953,3.90418 1.986139,0.62421 4.142518,0.60152 6.06056,1.45272 2.31527,1.03279 4.324107,2.6217 6.616678,3.68854 1.225731,0.57882 2.50821,1.05549 3.802037,1.44137 2.621703,0.78311 5.368249,1.18033 8.103445,1.18033 2.780593,0 5.583886,-0.38587 8.216938,-1.29382 2.84869,-0.97605 5.86762,-2.7352 8.228288,-4.59649 0.238336,-0.19295 0.533419,-0.46533 0.805805,-0.59017 0.680961,-0.29509 1.940741,0.45398 2.610353,0.65826 1.066839,0.31778 2.167728,0.53342 3.268616,0.66961 6.128655,0.74906 12.779382,-1.04414 17.886595,-4.4603 0.794455,-0.53342 1.554863,-1.39597 2.48551,-1.69106 1.089539,-0.34047 2.213126,0.43128 3.245918,0.61288 3.268616,0.57882 6.650727,0.23833 9.794497,-0.80581 3.93823,-1.30518 6.17406,-4.505699 7.72891,-8.137495 0.29509,-0.692311 1.39598,-0.919298 1.99749,-1.214382 2.26988,-1.112237 4.70999,-1.95209 6.23081,-4.097119 1.29383,-1.827248 1.87264,-4.017675 2.22447,-6.196752 0.15889,-0.998745 0.28373,-1.997488 0.24969,-3.007581 -0.0341,-0.998744 -0.52208,-2.042885 -0.52208,-2.984883 0,0 -0.0907,-0.249686 -0.21564,-0.624214 2.44012,-1.203033 4.26737,-3.484255 5.15262,-6.366992 z m -7.59272,1.645657 -0.51073,0.18159 c -0.99874,0.306432 -2.5082,0.783106 -3.31401,2.235824 -0.46532,0.828504 -0.45397,1.849946 0.0227,2.6671 l 0.34048,0.453975 c 0.27238,0.385878 0.98739,1.486766 1.06684,1.622959 0.24968,0.715009 0.29509,1.668355 0.13619,2.769243 -0.40857,2.803293 -2.30391,6.469138 -5.02777,7.728916 -0.32913,0.158892 -0.74905,0.272386 -1.54351,0.408577 -0.0227,-0.181589 -0.0227,-0.385878 -0.0454,-0.567467 -0.0681,-0.329132 -0.1589,-0.658264 -0.26105,-0.976046 -0.53341,-1.498116 -1.66835,-1.248429 -2.23582,0.124843 -0.34048,0.839853 -0.48802,1.691056 -0.89659,2.519558 -0.22699,0.476674 -0.38589,0.976046 -0.56747,1.475418 -0.34048,0.590167 -0.61286,1.180333 -0.83985,1.702404 -0.12485,0.306433 -0.24969,0.590167 -0.37454,0.805805 -0.0227,0.04539 -0.0568,0.07945 -0.0794,0.124843 -1.7705,2.542257 -4.88023,4.063071 -8.364481,4.063071 l -0.431276,0 c -0.590166,-0.0227 -1.339224,-0.27238 -2.13368,-0.533419 -0.510721,-0.170241 -1.044141,-0.340482 -1.611609,-0.488023 0.261035,-0.488023 0.510721,-0.987395 0.726359,-1.509465 0.306432,-0.71501 1.350574,-3.348063 -0.204288,-3.427507 -0.658263,-0.03405 -1.395972,0.760407 -1.781851,1.22573 -0.499371,0.601517 -0.953346,1.282478 -1.452718,1.895344 -0.590166,0.72636 -1.112237,1.464068 -1.781849,2.13368 -0.238338,0.226987 -0.771757,0.74906 -1.157635,1.28248 l -0.317742,0.31778 c -3.461556,2.871392 -8.126144,3.711242 -11.440158,3.915532 -2.145029,0.13619 -4.301408,0.0341 -6.389691,-0.28374 -0.385878,-0.0568 -0.862552,-0.22699 -1.384622,-0.38587 -0.522071,-0.15889 -1.07819,-0.31779 -1.657007,-0.44263 0.226987,-0.68096 0.397228,-1.36192 0.465324,-1.98613 0.05674,-0.590172 0.01135,-1.770512 -0.54477,-2.122339 -0.567467,-0.35183 -1.509465,0.204287 -1.929391,0.590167 -0.612865,0.57882 -1.032792,1.27113 -1.588911,1.906692 -0.590167,0.68097 -1.259779,1.30518 -1.725103,2.06559 -0.147542,0.22698 -0.329131,0.41993 -0.510721,0.61286 -0.306433,0.28374 -0.567468,0.56747 -0.805805,0.8285 l -0.476674,0.51073 c -2.723846,2.40606 -6.696123,3.73394 -11.19047,3.73394 -5.334201,0 -10.736498,-1.9294 -14.07321,-5.01642 l -0.226987,-0.23834 c -0.0908,-0.0907 -0.204289,-0.20429 -0.306432,-0.30643 -0.499373,-0.63556 -1.08954,-1.24843 -1.600261,-1.82725 -0.453974,-0.49937 -0.896599,-1.021442 -1.384622,-1.486762 -0.419927,-0.38588 -0.964696,-1.24843 -1.611609,-1.21438 -0.749059,0.0454 -0.510722,1.69105 -0.204289,2.916782 0.0227,0.12484 0.04539,0.20429 0.0908,0.31778 -0.556119,0.0227 -1.112237,0.0227 -1.679706,-0.034 -5.413646,-0.51072 -9.624259,-4.78943 -9.590211,-9.760451 0,-0.556119 -0.07945,-1.021442 -0.192939,-1.441368 -0.0227,-0.567469 -0.03404,-1.123587 -0.01135,-1.679706 0.04539,-1.07819 0.05674,-2.156379 -0.261036,-3.166473 -0.408577,-1.361923 -1.895343,-0.419926 -2.428763,0.226988 -0.317783,0.385878 -0.510721,0.817153 -0.669613,1.259779 C 12.07219,86.031665 10.880507,84.87403 10.029305,83.523455 8.1225383,80.470474 7.8955511,76.316607 9.5752562,73.025292 9.9043886,72.457824 10.58535,71.27749 10.256219,69.813423 9.5866056,66.885287 5.4894863,65.296377 5.9094127,62.02776 6.1137012,60.450198 6.3293391,58.849938 6.6584705,57.272377 6.9762527,55.79696 7.452926,54.389639 8.1452371,53.050414 8.7240546,51.926827 9.7341477,51.098325 10.176773,49.94069 c 0.283734,-0.749059 0.680962,-2.15638 1.657007,-2.281223 -0.397227,0.05674 -1.350574,-5.629284 -1.373273,-6.117306 -0.158891,-2.984882 -0.374529,-7.013905 0.329131,-9.930692 0.465324,-1.952091 1.486767,-3.767988 2.757895,-5.300152 2.564956,-3.075677 6.378343,-5.198009 10.384667,-5.549839 0.851202,-0.07945 2.372017,-0.181589 2.723847,-1.157635 0.578818,-1.57756 -2.031536,-2.587654 -2.996231,-2.939484 -0.05675,-0.0227 -0.113494,-0.0227 -0.170241,-0.04539 0.07945,-0.453974 0.124843,-0.896599 0.170241,-1.282477 0.0227,-0.317783 0.04539,-0.624216 0.102144,-0.873901 0.805804,-3.200521 3.949577,-5.2434058 6.616677,-6.0719088 3.166473,-0.9987441 4.99372,-0.192939 8.546071,1.7137528 1.203032,0.635565 2.6671,0.283735 3.438856,-0.7944548 0.817154,-0.624215 3.109726,-2.0882826 3.57505,-2.3379685 1.713753,-0.8058047 3.824735,-1.2597793 5.935716,-1.2597793 1.691055,0 7.331688,0.3518302 9.44267,4.9369726 0.317782,0.680962 0.907949,1.203033 1.622959,1.43002 0.715009,0.238336 1.498115,0.136192 2.145029,-0.238337 l 0.646913,-0.374529 c 1.804549,-1.055491 3.506953,-2.0542348 5.3569,-2.3606668 3.325363,-0.53342 6.968508,-0.124843 10.044185,1.1122368 1.815898,0.749058 3.166472,1.61161 4.199264,2.723847 0.215638,0.238337 0.385878,0.612865 0.601516,0.998744 0.862552,1.543513 2.167728,3.870132 4.789431,3.881482 0.794455,0 1.509466,-0.147542 2.14503,-0.283734 0.453975,-0.0908 0.873901,-0.18159 1.180334,-0.18159 3.382109,0 7.694859,2.042885 10.509509,4.97102 2.00884,2.088283 3.06433,4.426252 2.98488,6.559932 -0.0454,1.203032 -0.32913,2.757895 -0.8512,4.732684 l -0.15889,0.453975 c -0.28373,0.771757 -1.06684,2.82599 1.18033,4.732683 0.81715,0.680963 1.7251,1.055492 2.45146,1.361924 l 0.69231,0.306433 c 1.65701,0.828503 2.53091,1.361924 3.37077,2.394716 1.43001,1.736451 2.23582,3.836084 2.22447,5.776825 0,0.941996 -0.30643,2.008837 -0.942,3.393459 l -0.19294,0.35183 c -0.47667,0.839853 -1.27112,2.235824 -0.6923,3.858784 0.35183,0.964696 1.11223,1.713754 2.15637,2.110981 0.40858,0.158891 0.82851,0.283734 1.23709,0.408577 0.59016,0.18159 1.05549,0.317782 1.33922,0.53342 0.78311,0.612866 1.46407,1.430019 2.00883,2.428764 0.942,1.75915 1.14629,4.221963 0.49937,6.276197 -0.29508,1.021443 -0.98739,2.440113 -2.4401,3.189171 z"
       id="path27"
       inkscape:connector-curvature="0"
       style="fill:#000000;fill-opacity:1" /><path
       style="fill:#000000;fill-opacity:1"
       inkscape:connector-curvature="0"
       id="path31"
       d="m 22.014158,55.479178 c -2.337969,-0.680962 -3.643145,-3.541001 -2.894087,-6.40104 0.771756,-2.837341 3.279965,-4.619191 5.629283,-3.92688 2.337969,0.658263 3.643146,3.541002 2.86004,6.389691 -0.749058,2.84869 -3.257268,4.596492 -5.595236,3.938229 z" /><path
       style="fill:#000000;fill-opacity:1"
       inkscape:connector-curvature="0"
       id="path33"
       d="m 37.483339,70.57383 c -0.703661,0.215637 -1.384623,0.329131 -2.099633,0.453975 -0.272384,0.04539 -0.567467,0.0681 -0.851201,0.102143 -0.408577,0.05675 -0.8966,-0.0227 -1.282478,0.136193 -0.533421,0.215638 -0.442626,1.634308 -0.453975,2.065584 0,0.771757 0.03404,1.554863 0.102144,2.32662 0.0227,0.306432 0.0908,0.760407 -0.0681,1.05549 -0.170241,0.306433 -0.453975,0.249686 -0.760407,0.226987 -0.726359,-0.05675 -1.486767,-0.136192 -1.997488,-0.726359 -0.828504,-0.964696 -0.476674,-2.530908 -0.329132,-3.654494 0.04539,-0.351831 0.113494,-0.703661 0.124844,-1.055492 l 0.0227,-0.499371 -0.181591,-0.590168 -0.578817,-0.476672 C 28.029316,68.871425 26.73549,68.122367 26.088576,66.6583 25.691349,65.75035 25.47571,63.968501 26.90573,63.911754 c 1.657007,-0.07945 2.519559,2.14503 3.597748,2.996231 1.464067,1.146286 3.325363,1.146286 5.050466,0.692312 0.862552,-0.226988 1.588911,-0.737708 2.440113,-1.010094 0.306433,-0.0908 0.646914,-0.181589 0.941997,-0.249685 0.987395,-0.226988 1.60026,0.295083 1.645658,1.282478 0.124843,1.634308 -1.7932,2.576305 -3.098376,2.950834 z" /><path
       style="fill:#000000;fill-opacity:1"
       inkscape:connector-curvature="0"
       id="path35"
       d="m 48.072293,60.143766 c -2.462811,-0.408577 -4.119818,-3.155123 -3.699891,-6.140005 0.431275,-2.973533 2.769244,-5.084515 5.220706,-4.675938 2.451462,0.385879 4.119819,3.143774 3.677194,6.128656 -0.408577,2.984882 -2.746546,5.061816 -5.198009,4.687287 z" /><path
       d="m 65.152865,28.987465 c 1.679706,-1.089538 3.72259,-1.248429 5.629284,-0.499371 2.088282,0.828504 3.813386,2.428763 5.141261,4.199264 0.658262,0.873901 1.259779,1.815898 1.713754,2.814642 0.953346,2.088282 1.475417,5.606585 -0.0227,7.581374 -1.554863,2.031536 -5.788175,-0.54477 -3.881482,-2.235824 0.510722,-0.442626 1.282478,-0.385879 1.691054,-0.964697 0.783106,-1.100888 -0.226986,-3.143773 -0.760407,-4.131167 -0.817153,-1.498116 -2.054234,-2.746546 -3.620446,-3.461556 -1.41867,-0.658262 -3.938229,-0.669612 -5.277453,0.35183 -0.862552,0.658263 -1.066841,2.394716 -2.394716,1.588911 -1.78185,-1.100888 -0.05674,-3.699892 0.987394,-4.63054 0.261036,-0.238336 0.522071,-0.442625 0.794456,-0.612866 z"
       id="path39"
       inkscape:connector-curvature="0"
       style="fill:#000000;fill-opacity:1" /><path
       sodipodi:nodetypes="cccc"
       inkscape:connector-curvature="0"
       id="path7472"
       d="M 23.623417,17.065338 C 15.947873,13.823983 11.273942,16.004898 11.839572,27.650825 l 10.785215,-0.499314 c 2.659066,-5.1067 1.333753,-7.225116 0.99863,-10.086173 z"
       style="fill:#ffffff;fill-opacity:1;fill-rule:evenodd;stroke:none;stroke-width:1px;stroke-linecap:butt;stroke-linejoin:miter;stroke-opacity:1" /><path
       style="fill:#000000;fill-opacity:1"
       inkscape:connector-curvature="0"
       id="path7474"
       d="m 22.974797,14.026257 c -1.656841,-1.124003 -3.696007,-1.32506 -5.617768,-0.615548 -2.104951,0.785189 -3.862742,2.349471 -5.226908,4.092165 -0.676177,0.860114 -1.297021,1.789486 -1.771529,2.778639 -0.9962811,2.068144 -1.5909181,5.574912 -0.133915,7.580225 1.512565,2.063222 5.798193,-0.425086 3.926839,-2.155167 -0.501455,-0.453096 -1.274233,-0.412287 -1.670767,-0.999422 -0.760198,-1.116831 0.29188,-3.138414 0.845583,-4.114579 0.847927,-1.480916 2.110532,-2.703524 3.691181,-3.386029 1.431964,-0.628816 3.95122,-0.588117 5.269057,0.460771 0.848772,0.67594 1.017147,2.416243 2.361384,1.638041 1.804211,-1.063846 0.133163,-3.697932 -0.891532,-4.64995 -0.256081,-0.243649 -0.512798,-0.453334 -0.781624,-0.629146 z" /></g></svg>