<?xml version="1.0" encoding="UTF-8" standalone="no"?>
<svg
   xmlns:dc="http://purl.org/dc/elements/1.1/"
   xmlns:cc="http://creativecommons.org/ns#"
   xmlns:rdf="http://www.w3.org/1999/02/22-rdf-syntax-ns#"
   xmlns:svg="http://www.w3.org/2000/svg"
   xmlns="http://www.w3.org/2000/svg"
   xmlns:sodipodi="http://sodipodi.sourceforge.net/DTD/sodipodi-0.dtd"
   xmlns:inkscape="http://www.inkscape.org/namespaces/inkscape"
   version="1.1"
   width="64"
   height="64"
   color-interpolation="linearRGB"
   id="svg2"
   sodipodi:version="0.32"
   inkscape:version="0.91 r13725"
   sodipodi:docname="edit-download.svg"
   inkscape:output_extension="org.inkscape.output.svg.inkscape">
  <metadata
     id="metadata31">
    <rdf:RDF>
      <cc:Work
         rdf:about="">
        <dc:format>image/svg+xml</dc:format>
        <dc:type
           rdf:resource="http://purl.org/dc/dcmitype/StillImage" />
        <dc:title></dc:title>
      </cc:Work>
    </rdf:RDF>
  </metadata>
  <defs
     id="defs29">
    <inkscape:perspective
       sodipodi:type="inkscape:persp3d"
       inkscape:vp_x="0 : 32 : 1"
       inkscape:vp_y="0 : 1000 : 0"
       inkscape:vp_z="64 : 32 : 1"
       inkscape:persp3d-origin="32 : 21.333333 : 1"
       id="perspective33" />
    <inkscape:perspective
       id="perspective35"
       inkscape:persp3d-origin="32 : 21.333333 : 1"
       inkscape:vp_z="64 : 32 : 1"
       inkscape:vp_y="0 : 1000 : 0"
       inkscape:vp_x="0 : 32 : 1"
       sodipodi:type="inkscape:persp3d" />
    <linearGradient
       id="linearGradient2423"
       gradientUnits="userSpaceOnUse"
       x1="83.050003"
       y1="-5.5500002"
       x2="103.7"
       y2="26.91">
      <stop
         offset="0"
         stop-color="#faf9d2"
         id="stop2425" />
      <stop
         offset="1"
         stop-color="#dddb8f"
         id="stop2427" />
    </linearGradient>
    <linearGradient
       id="linearGradient2429"
       gradientUnits="userSpaceOnUse"
       x1="34.740002"
       y1="6.0599999"
       x2="56.810001"
       y2="23.280001">
      <stop
         offset="0"
         stop-color="#010101"
         id="stop2431" />
      <stop
         offset="1"
         stop-color="#807e5d"
         id="stop2433" />
    </linearGradient>
    <linearGradient
       y2="12.34"
       x2="95.370003"
       y1="-20.700001"
       x1="70.139999"
       gradientUnits="userSpaceOnUse"
       id="gradient0-6">
      <stop
         id="stop4218"
         stop-color="#c80505"
         offset="0" />
      <stop
         id="stop4220"
         stop-color="#9d0404"
         offset="0.4904" />
      <stop
         id="stop4222"
         stop-color="#b40404"
         offset="1" />
    </linearGradient>
    <linearGradient
       y2="22.549999"
       x2="102.64"
       y1="-7.1199999"
       x1="89.68"
       gradientUnits="userSpaceOnUse"
       id="gradient1-7">
      <stop
         id="stop4229"
         stop-color="#ff3e3e"
         offset="0" />
      <stop
         id="stop4231"
         stop-color="#f70606"
         offset="1" />
    </linearGradient>
    <linearGradient
       y2="3.46"
       x2="71.470001"
       y1="-23.17"
       x1="47.25"
       gradientUnits="userSpaceOnUse"
       id="gradient2">
      <stop
         id="stop4236"
         stop-color="#ff9090"
         offset="0" />
      <stop
         id="stop4238"
         stop-color="#ff7575"
         offset="1" />
    </linearGradient>
  </defs>
  <sodipodi:namedview
     inkscape:window-height="1003"
     inkscape:window-width="942"
     inkscape:pageshadow="2"
     inkscape:pageopacity="0.0"
     guidetolerance="10.0"
     gridtolerance="10.0"
     objecttolerance="10.0"
     borderopacity="1.0"
     bordercolor="#666666"
     pagecolor="#ffffff"
     id="base"
     showgrid="false"
     inkscape:zoom="2.9192935"
     inkscape:cx="-5.4395523"
     inkscape:cy="25.785679"
     inkscape:window-x="0"
     inkscape:window-y="30"
     inkscape:current-layer="svg2"
     inkscape:window-maximized="0" />
  <g
     id="g4">
    <path
       style="fill:#010101; fill-opacity:0.5725"
       d="M27 57L29 59L32.13 55.83L37 59L45.39 47.54L64 38L59 35L61 37L36 49L27 57z            M58 34L62 31L58 29L55 32L58 34z"
       id="path6" />
    <path
       style="fill:none; stroke:#010101; stroke-width:4"
       d="M6.25 30C6.25 30 11.87 36 16.87 42.5C21.87 49 26.25 55.75 26.25 55.75L59.12 36.87L32 15L6.25 30z"
       id="path8" />
    <radialGradient
       id="gradient0"
       gradientUnits="userSpaceOnUse"
       cx="0"
       cy="0"
       r="64"
       gradientTransform="matrix(0.5714,0,0,0.3333,26,35)">
      <stop
         offset="1"
         stop-color="#c0d5ff"
         id="stop11" />
      <stop
         offset="0.4886"
         stop-color="#896eff"
         id="stop13" />
    </radialGradient>
    <path
       style="fill:url(#gradient0)"
       d="M6.25 30C6.25 30 11.87 36 16.87 42.5C21.87 49 26.25 55.75 26.25 55.75L59.12 36.87L32 15L6.25 30z"
       id="path15" />
    <path
       style="fill:none; stroke:#010101; stroke-width:4"
       d="M2.62 30.87C2.62 30.87 10.95 36.26 19 41.87C27.44 47.75 35.75 52.75 35.75 52.75L58.12 26.37C58.12 26.37 45.44 20.7 35.37 15.37C30.18 12.62 26 9.37 26 9.37L2.62 30.87z"
       id="path17" />
    <linearGradient
       id="gradient1"
       gradientUnits="userSpaceOnUse"
       x1="105.45"
       y1="-23.42"
       x2="119.92"
       y2="34.32">
      <stop
         offset="0"
         stop-color="#a5b1ff"
         id="stop20" />
      <stop
         offset="0.7386"
         stop-color="#eaf1ff"
         id="stop22" />
      <stop
         offset="1"
         stop-color="#b3b8ff"
         id="stop24" />
    </linearGradient>
    <path
       style="fill:url(#gradient1)"
       d="M2.62 30.87C2.62 30.87 10.95 36.26 19 41.87C27.44 47.75 35.75 52.75 35.75 52.75L58.12 26.37C58.12 26.37 45.44 20.7 35.37 15.37C30.18 12.62 26 9.37 26 9.37L2.62 30.87z"
       id="path26" />
  </g>
  <g
     style="color-interpolation:linearRGB"
     id="g7556"
     transform="translate(1.0951521,-4.1032826)">
    <g
       id="g7509">
      <path
         id="path7511"
         d="m 22,24 -8,6 15,16 13,-6 7,-7 -8,-2 0,-13 -12,-3 -7,5 0,4 z"
         style="fill:none;stroke:#010000;stroke-width:4"
         inkscape:connector-curvature="0" />
      <linearGradient
         y2="-20"
         x2="47"
         y1="-20"
         x1="13"
         gradientUnits="userSpaceOnUse"
         id="gradient0-3">
        <stop
           id="stop7514"
           stop-color="#eeffac"
           offset="0" />
        <stop
           id="stop7516"
           stop-color="#d5e68f"
           offset="1" />
      </linearGradient>
      <path
         id="path7518"
         d="m 21,25 -7,5 8.04,2.87 2,-7 L 21,25 Z"
         style="fill:url(#gradient0-3)"
         inkscape:connector-curvature="0" />
      <linearGradient
         y2="-20"
         x2="47"
         y1="-20"
         x1="13"
         gradientUnits="userSpaceOnUse"
         id="gradient1-6">
        <stop
           id="stop7521"
           stop-color="#eeffac"
           offset="0" />
        <stop
           id="stop7523"
           stop-color="#d5e68f"
           offset="1" />
      </linearGradient>
      <path
         id="path7525"
         d="m 42,40 7,-7 -15,1 0.04,3.15 L 42,40 Z"
         style="fill:url(#gradient1-6)"
         inkscape:connector-curvature="0" />
      <path
         id="path7527"
         d="M 41,37 49,33 40.84,30.66 34,32 34.04,37.15 41,37 Z"
         style="fill:#b4d339"
         inkscape:connector-curvature="0" />
      <linearGradient
         y2="15"
         x2="67.709999"
         y1="-1.38"
         x1="46.93"
         gradientUnits="userSpaceOnUse"
         id="gradient2-7">
        <stop
           id="stop7530"
           stop-color="#4c5e02"
           offset="0" />
        <stop
           id="stop7532"
           stop-color="#698303"
           offset="1" />
      </linearGradient>
      <path
         id="path7534"
         d="m 34,23 -2,3 0,12 2,0 7,-7 0,-13 -7,5 z"
         style="fill:url(#gradient2-7)"
         inkscape:connector-curvature="0" />
      <linearGradient
         y2="22.809999"
         x2="72.739998"
         y1="-7.2800002"
         x1="54.400002"
         gradientUnits="userSpaceOnUse"
         id="gradient3">
        <stop
           id="stop7537"
           stop-color="#97e306"
           offset="0" />
        <stop
           id="stop7539"
           stop-color="#81a104"
           offset="1" />
      </linearGradient>
      <path
         id="path7541"
         d="M 42,40 29,46 14,30 22.04,32.87 22,20 34,23 34.04,37.15 42,40 Z"
         style="fill:url(#gradient3)"
         inkscape:connector-curvature="0" />
      <linearGradient
         y2="-20"
         x2="47"
         y1="-20"
         x1="13"
         gradientUnits="userSpaceOnUse"
         id="gradient4">
        <stop
           id="stop7544"
           stop-color="#eeffac"
           offset="0" />
        <stop
           id="stop7546"
           stop-color="#d5e68f"
           offset="1" />
      </linearGradient>
      <path
         id="path7548"
         d="m 22,20 12,4 7,-6 -12,-3 -7,5 z"
         style="fill:url(#gradient4)"
         inkscape:connector-curvature="0" />
    </g>
  </g>
</svg>
