<?xml version="1.0" encoding="UTF-8" standalone="no"?>
<svg
   xmlns:dc="http://purl.org/dc/elements/1.1/"
   xmlns:cc="http://creativecommons.org/ns#"
   xmlns:rdf="http://www.w3.org/1999/02/22-rdf-syntax-ns#"
   xmlns:svg="http://www.w3.org/2000/svg"
   xmlns="http://www.w3.org/2000/svg"
   xmlns:xlink="http://www.w3.org/1999/xlink"
   xmlns:sodipodi="http://sodipodi.sourceforge.net/DTD/sodipodi-0.dtd"
   xmlns:inkscape="http://www.inkscape.org/namespaces/inkscape"
   version="1.1"
   width="64"
   height="64"
   color-interpolation="linearRGB"
   id="svg2"
   inkscape:version="0.47 r22583"
   sodipodi:docname="emblem-documents.svg">
  <metadata
     id="metadata46">
    <rdf:RDF>
      <cc:Work
         rdf:about="">
        <dc:format>image/svg+xml</dc:format>
        <dc:type
           rdf:resource="http://purl.org/dc/dcmitype/StillImage" />
        <dc:title></dc:title>
      </cc:Work>
    </rdf:RDF>
  </metadata>
  <defs
     id="defs44">
    <inkscape:perspective
       sodipodi:type="inkscape:persp3d"
       inkscape:vp_x="0 : 32 : 1"
       inkscape:vp_y="0 : 1000 : 0"
       inkscape:vp_z="64 : 32 : 1"
       inkscape:persp3d-origin="32 : 21.333333 : 1"
       id="perspective48" />
    <inkscape:perspective
       id="perspective3007"
       inkscape:persp3d-origin="0.5 : 0.33333333 : 1"
       inkscape:vp_z="1 : 0.5 : 1"
       inkscape:vp_y="0 : 1000 : 0"
       inkscape:vp_x="0 : 0.5 : 1"
       sodipodi:type="inkscape:persp3d" />
    <filter
       color-interpolation-filters="sRGB"
       id="filter3567">
      <feGaussianBlur
         inkscape:collect="always"
         stdDeviation="4.2737072"
         id="feGaussianBlur3569" />
    </filter>
    <radialGradient
       inkscape:collect="always"
       xlink:href="#linearGradient4898"
       id="radialGradient2972"
       gradientUnits="userSpaceOnUse"
       gradientTransform="matrix(0.2716588,0,0,0.2230142,-234.96242,108.51412)"
       cx="20.951529"
       cy="-108.96888"
       fx="20.951529"
       fy="-108.96888"
       r="266.76535" />
    <linearGradient
       id="linearGradient4898">
      <stop
         offset="0"
         style="stop-color:#9693c8;stop-opacity:1"
         id="stop4900" />
      <stop
         offset="1"
         style="stop-color:#5955a9;stop-opacity:0.99159664"
         id="stop4902" />
    </linearGradient>
    <radialGradient
       inkscape:collect="always"
       xlink:href="#linearGradient4966"
       id="radialGradient2969"
       gradientUnits="userSpaceOnUse"
       gradientTransform="matrix(0.6567567,0,0,0.4104729,-424.02183,23.38093)"
       cx="299.70135"
       cy="371.76376"
       fx="299.70135"
       fy="371.76376"
       r="76.696358" />
    <linearGradient
       id="linearGradient4966">
      <stop
         offset="0"
         style="stop-color:#9d99cb;stop-opacity:1"
         id="stop4968" />
      <stop
         offset="1"
         style="stop-color:#b6b3d8;stop-opacity:0"
         id="stop4970" />
    </linearGradient>
    <radialGradient
       inkscape:collect="always"
       xlink:href="#linearGradient4898"
       id="radialGradient3066"
       gradientUnits="userSpaceOnUse"
       gradientTransform="matrix(0.2716588,0,0,0.2230142,-234.96242,108.51412)"
       cx="20.951529"
       cy="-108.96888"
       fx="20.951529"
       fy="-108.96888"
       r="266.76535" />
    <radialGradient
       inkscape:collect="always"
       xlink:href="#linearGradient4966"
       id="radialGradient3068"
       gradientUnits="userSpaceOnUse"
       gradientTransform="matrix(0.6567567,0,0,0.4104729,-424.02183,23.38093)"
       cx="299.70135"
       cy="371.76376"
       fx="299.70135"
       fy="371.76376"
       r="76.696358" />
  </defs>
  <sodipodi:namedview
     pagecolor="#ffffff"
     bordercolor="#666666"
     borderopacity="1"
     objecttolerance="10"
     gridtolerance="10"
     guidetolerance="10"
     inkscape:pageopacity="0"
     inkscape:pageshadow="2"
     inkscape:window-width="1106"
     inkscape:window-height="682"
     id="namedview42"
     showgrid="false"
     inkscape:zoom="6.5131602"
     inkscape:cx="32.31"
     inkscape:cy="32.01211"
     inkscape:window-x="85"
     inkscape:window-y="43"
     inkscape:window-maximized="1"
     inkscape:current-layer="svg2" />
  <g
     id="g4"
     transform="translate(0,5)">
    <path
       style="fill:#010101;fill-opacity:0.57250001"
       d="m 27,57 2,2 3.13,-3.17 L 37,59 45.39,47.54 64,38 l -5,-3 2,2 -25,12 -9,8 z m 31,-23 4,-3 -4,-2 -3,3 3,2 z"
       id="path6" />
    <path
       style="fill:none;stroke:#010101;stroke-width:4"
       d="m 6.25,30 c 0,0 5.62,6 10.62,12.5 5,6.5 9.38,13.25 9.38,13.25 L 59.12,36.87 32,15 6.25,30 z"
       id="path8" />
    <radialGradient
       id="gradient0"
       gradientUnits="userSpaceOnUse"
       cx="0"
       cy="0"
       r="64"
       gradientTransform="matrix(0.5714,0,0,0.3333,26,35)">
      <stop
         offset="1"
         stop-color="#fffcc0"
         id="stop11" />
      <stop
         offset="0.4886"
         stop-color="#f1b706"
         id="stop13" />
    </radialGradient>
    <path
       style="fill:url(#gradient0)"
       d="m 6.25,30 c 0,0 5.62,6 10.62,12.5 5,6.5 9.38,13.25 9.38,13.25 L 59.12,36.87 32,15 6.25,30 z"
       id="path15" />
    <path
       style="fill:none;stroke:#010101;stroke-width:4"
       d="m 2.62,30.87 c 0,0 8.33,5.39 16.38,11 8.44,5.88 16.75,10.88 16.75,10.88 L 58.12,26.37 c 0,0 -12.68,-5.67 -22.75,-11 C 30.18,12.62 26,9.37 26,9.37 L 2.62,30.87 z"
       id="path17" />
    <linearGradient
       id="gradient1"
       gradientUnits="userSpaceOnUse"
       x1="107.04"
       y1="-17.09"
       x2="118.33"
       y2="27.99">
      <stop
         offset="0"
         stop-color="#ffefa5"
         id="stop20" />
      <stop
         offset="0.7424"
         stop-color="#fffcc0"
         id="stop22" />
      <stop
         offset="1"
         stop-color="#fff890"
         id="stop24" />
    </linearGradient>
    <path
       style="fill:url(#gradient1)"
       d="m 2.62,30.87 c 0,0 8.33,5.39 16.38,11 8.44,5.88 16.75,10.88 16.75,10.88 L 58.12,26.37 c 0,0 -12.68,-5.67 -22.75,-11 C 30.18,12.62 26,9.37 26,9.37 L 2.62,30.87 z"
       id="path26" />
    <linearGradient
       id="gradient2"
       gradientUnits="userSpaceOnUse"
       x1="-47.139999"
       y1="-15.78"
       x2="-28.459999"
       y2="-37.849998">
      <stop
         offset="0"
         stop-color="#010101"
         id="stop29" />
      <stop
         offset="1"
         stop-color="#9e9e9e"
         id="stop31" />
    </linearGradient>
    <path
       style="fill:none;stroke:url(#gradient2);stroke-width:1"
       d="M 20,36 34.87,20.87 M 14,32 26.87,19 M 26,40 38.75,26.87 M 32,44 42.75,32.37"
       id="path33" />
    <linearGradient
       id="gradient3"
       gradientUnits="userSpaceOnUse"
       x1="-47.139999"
       y1="-15.78"
       x2="-28.459999"
       y2="-37.849998">
      <stop
         offset="0"
         stop-color="#010101"
         id="stop36" />
      <stop
         offset="1"
         stop-color="#9e9e9e"
         id="stop38" />
    </linearGradient>
    <path
       style="fill:none;stroke:url(#gradient3);stroke-width:1"
       d="M 29,42 44,26.37 M 23,38 34.75,26.25 M 17,34 28.12,22.62"
       id="path40" />
  </g>
  <g
     transform="matrix(0.18550218,0,0,0.18550218,72.567893,-2.7594199)"
     id="g2992">
    <path
       style="fill:#646464;fill-opacity:0.39215686;stroke:#7b0000;stroke-width:0;stroke-miterlimit:4;stroke-opacity:1;stroke-dasharray:none;filter:url(#filter3567)"
       id="path3503"
       transform="matrix(0.9609994,0,0,0.9613938,-597.24288,-272.66392)"
       d="m 505.48196,424.97062 c 0,59.30747 -47.592,107.38567 -106.2997,107.38567 -58.70769,0 -106.29969,-48.0782 -106.29969,-107.38567 0,-59.30746 47.592,-107.38566 106.29969,-107.38566 58.7077,0 106.2997,48.0782 106.2997,107.38566 z" />
    <g
       id="g2983">
      <path
         d="m -122.97105,122.45704 c 0,59.30747 -47.592,107.38567 -106.2997,107.38567 -58.70769,0 -106.29969,-48.0782 -106.29969,-107.38567 0,-59.30746 47.592,-107.38566 106.29969,-107.38566 58.7077,0 106.2997,48.0782 106.2997,107.38566 z"
         id="path4864"
         style="fill:url(#radialGradient3066);fill-opacity:1;stroke:#000000;stroke-width:0.40000001;stroke-miterlimit:4;stroke-opacity:1;stroke-dasharray:none" />
      <path
         d="m -176.82008,175.9799 c 0.008,17.39034 -22.5463,31.49058 -50.37086,31.49058 -27.82455,0 -50.37863,-14.10024 -50.37085,-31.49058 -0.008,-17.39035 22.5463,-31.49059 50.37085,-31.49059 27.82456,0 50.37863,14.10024 50.37086,31.49059 l 0,0 z"
         id="path4946"
         style="fill:url(#radialGradient3068);fill-opacity:1;stroke:#7b0000;stroke-width:0;stroke-miterlimit:4;stroke-opacity:1;stroke-dasharray:none" />
      <path
         d="m -286.09828,192.77017 c 0,0 9.4535,2.74496 22.03724,4.31417 5.0961,0.6355 24.48583,2.85668 39.35223,2.79839 0,0 18.10598,0.0205 28.1004,-1.3992 10.45754,-1.48553 16.38219,-3.38138 19.67945,-7.16476 0.0859,-0.90209 1.59147,-3.84261 -2.47345,-6.6783 -10.39241,-7.24975 -23.82749,-9.23419 -49.9235,-15.43162 -28.85715,-7.25521 -37.48108,-14.20267 -41.78939,-19.23058 -4.08457,-5.03906 0.76672,-15.50422 24.01944,-20.63806 11.77309,-2.86497 55.62125,-3.39138 55.62125,-3.39138 -12.57977,-9.98761 -36.19692,-27.8688 -41.02437,-31.67146 -4.2339,-3.3351 -11.05666,-8.45317 -11.79007,-13.02678 -0.98938,-4.45221 6.01871,-6.59586 9.72887,-6.8432 11.95497,-0.82448 28.2797,0.57713 42.79056,3.46282 7.29397,1.45051 8.57459,1.23672 8.57459,1.23672 10.38847,0.49469 18.46838,-4.94688 18.05614,-16.40717 -0.0825,-11.62518 -11.70555,-20.94687 -24.56953,-21.35405 -12.11408,-0.38344 -41.96608,1.7314 -41.96608,1.7314 34.7931,7.17299 40.48099,9.00349 42.29587,13.1917 1.07183,2.47344 -1.79041,4.93268 -11.37783,4.4522 -10.43771,-0.52311 -31.82497,-3.05058 -31.82497,-3.05058 -20.36467,-3.13303 -34.54574,-6.10116 -40.72934,1.97875 -4.03983,5.27872 0.57713,11.70763 2.39099,15.50024 8.07991,14.09863 22.05173,23.77135 30.91803,30.58824 3.33603,2.56492 13.52149,8.24481 13.52149,8.24481 -31.66007,-8.65706 -56.88918,-3.79262 -72.8841,4.61709 -18.38592,10.88314 -15.24083,29.24856 13.93372,46.41827 17.23165,10.14111 25.81134,15.01283 54.02492,18.47665 16.49124,2.62954 18.94855,3.70547 18.82322,5.07812 -0.17646,1.93256 -19.51902,2.66492 -24.83563,3.03158 -13.5255,0.93279 -48.50526,1.16599 -48.68015,1.16599 z"
         id="path4839"
         style="fill:#ffffff;fill-opacity:1;fill-rule:evenodd;stroke:#000000;stroke-width:0;stroke-linecap:butt;stroke-linejoin:miter;stroke-miterlimit:4;stroke-opacity:1;stroke-dasharray:none" />
    </g>
  </g>
</svg>
