<?xml version="1.0" encoding="UTF-8" standalone="no"?>
<!-- Generator: Adobe Illustrator 9.0, SVG Export Plug-In  -->
<svg
   xmlns:dc="http://purl.org/dc/elements/1.1/"
   xmlns:cc="http://web.resource.org/cc/"
   xmlns:rdf="http://www.w3.org/1999/02/22-rdf-syntax-ns#"
   xmlns:svg="http://www.w3.org/2000/svg"
   xmlns="http://www.w3.org/2000/svg"
   xmlns:xlink="http://www.w3.org/1999/xlink"
   xmlns:sodipodi="http://inkscape.sourceforge.net/DTD/sodipodi-0.dtd"
   xmlns:inkscape="http://www.inkscape.org/namespaces/inkscape"
   width="42pt"
   height="35.299999pt"
   viewBox="0 0 44.572 48"
   xml:space="preserve"
   id="svg2"
   sodipodi:version="0.32"
   inkscape:version="0.43"
   sodipodi:docname="emblem-presentation.svg"
   sodipodi:docbase="/home/manuel/.icons/x-vector/scalable/emblems"
   version="1.0"><metadata
   id="metadata115"><rdf:RDF><cc:Work
       rdf:about=""><dc:format>image/svg+xml</dc:format><dc:type
         rdf:resource="http://purl.org/dc/dcmitype/StillImage" /></cc:Work></rdf:RDF></metadata><defs
   id="defs113"><linearGradient
   y2="43.067101"
   x2="39.9548"
   y1="29.4727"
   x1="30.494101"
   gradientUnits="userSpaceOnUse"
   id="aigrd2"
   gradientTransform="translate(29.537,3.490001)">
			<stop
   id="stop1480"
   style="stop-color:#C09287"
   offset="0" />
			<stop
   id="stop1482"
   style="stop-color:#803926"
   offset="1" />
		</linearGradient><linearGradient
   y2="40.7673"
   x2="39.8382"
   y1="27.075199"
   x1="30.309601"
   gradientUnits="userSpaceOnUse"
   id="aigrd3"
   gradientTransform="translate(29.537,3.490001)">
			<stop
   id="stop1487"
   style="stop-color:#C1553A"
   offset="0" />
			<stop
   id="stop1489"
   style="stop-color:#803926"
   offset="1" />
		</linearGradient><linearGradient
   y2="39.726799"
   x2="45.571899"
   y1="32.710899"
   x1="32.826199"
   gradientUnits="userSpaceOnUse"
   id="aigrd4"
   gradientTransform="translate(29.537,3.490001)">
			<stop
   id="stop1494"
   style="stop-color:#2C7894"
   offset="0" />
			<stop
   id="stop1496"
   style="stop-color:#0E3D47"
   offset="1" />
		</linearGradient>
		
		
		
		<linearGradient
   y2="11.0039"
   x2="20.945299"
   y1="25.4727"
   x1="27.294901"
   gradientUnits="userSpaceOnUse"
   id="aigrd5">
			<stop
   id="stop54"
   style="stop-color:#FFFFFF"
   offset="0" />
			<stop
   id="stop56"
   style="stop-color:#EAEAEA"
   offset="1" />
		</linearGradient>
		
		
		
		<linearGradient
   y2="10.4377"
   x2="24.6035"
   y1="9.3432999"
   x1="24.6035"
   gradientUnits="userSpaceOnUse"
   id="aigrd6">
			<stop
   id="stop77"
   style="stop-color:#F0F0F0"
   offset="0" />
			<stop
   id="stop79"
   style="stop-color:#686868"
   offset="1" />
		</linearGradient>
		
		
		
		<radialGradient
   gradientUnits="userSpaceOnUse"
   fy="30.991199"
   fx="24.774401"
   r="0.59020001"
   cy="30.991199"
   cx="24.774401"
   id="aigrd7">
			<stop
   id="stop88"
   style="stop-color:#F0F0F0"
   offset="0" />
			<stop
   id="stop90"
   style="stop-color:#848484"
   offset="1" />
		</radialGradient>
		
		
		
		
		
		
		
	<radialGradient
   inkscape:collect="always"
   xlink:href="#aigrd7"
   id="radialGradient2023"
   gradientUnits="userSpaceOnUse"
   gradientTransform="matrix(0.284933,0,0,0.284933,10.88302,5.997409)"
   cx="24.774401"
   cy="30.991199"
   fx="24.774401"
   fy="30.991199"
   r="0.59020001" /><linearGradient
   inkscape:collect="always"
   xlink:href="#aigrd6"
   id="linearGradient2026"
   gradientUnits="userSpaceOnUse"
   gradientTransform="matrix(0.284933,0,0,0.284933,10.88302,5.997409)"
   x1="24.6035"
   y1="9.3432999"
   x2="24.6035"
   y2="10.4377" /><linearGradient
   inkscape:collect="always"
   xlink:href="#aigrd4"
   id="linearGradient2029"
   gradientUnits="userSpaceOnUse"
   gradientTransform="matrix(0.284933,0,0,0.284933,10.88302,5.997409)"
   x1="27.294901"
   y1="25.4727"
   x2="20.945299"
   y2="11.0039" /><linearGradient
   inkscape:collect="always"
   xlink:href="#aigrd4"
   id="linearGradient2032"
   gradientUnits="userSpaceOnUse"
   gradientTransform="matrix(0.284933,0,0,0.284933,10.88302,5.997409)"
   x1="32.826199"
   y1="32.710899"
   x2="45.571899"
   y2="39.726799" /><linearGradient
   inkscape:collect="always"
   xlink:href="#aigrd3"
   id="linearGradient2035"
   gradientUnits="userSpaceOnUse"
   gradientTransform="matrix(0.284933,0,0,0.284933,10.88302,5.997409)"
   x1="30.309601"
   y1="27.075199"
   x2="39.8382"
   y2="40.7673" /><linearGradient
   inkscape:collect="always"
   xlink:href="#aigrd2"
   id="linearGradient2038"
   gradientUnits="userSpaceOnUse"
   gradientTransform="matrix(0.284933,0,0,0.284933,10.88302,5.997409)"
   x1="30.494101"
   y1="29.4727"
   x2="39.9548"
   y2="43.067101" />
		
	
			
			
			
			
			
			
		<linearGradient
   inkscape:collect="always"
   xlink:href="#aigrd5"
   id="linearGradient1534"
   gradientUnits="userSpaceOnUse"
   x1="27.294901"
   y1="25.4727"
   x2="20.945299"
   y2="11.0039"
   gradientTransform="translate(-15.29659,17.00564)" /><linearGradient
   inkscape:collect="always"
   xlink:href="#aigrd6"
   id="linearGradient1536"
   gradientUnits="userSpaceOnUse"
   x1="24.6035"
   y1="9.3432999"
   x2="24.6035"
   y2="10.4377"
   gradientTransform="translate(-15.29659,17.00564)" /><radialGradient
   inkscape:collect="always"
   xlink:href="#aigrd7"
   id="radialGradient1538"
   gradientUnits="userSpaceOnUse"
   cx="24.774401"
   cy="30.991199"
   fx="24.774401"
   fy="30.991199"
   r="0.59020001"
   gradientTransform="translate(-15.29659,17.00564)" /><linearGradient
   inkscape:collect="always"
   xlink:href="#aigrd2"
   id="linearGradient1540"
   gradientUnits="userSpaceOnUse"
   gradientTransform="matrix(0.284933,0,0,0.284933,-4.41357,23.00305)"
   x1="30.494101"
   y1="29.4727"
   x2="39.9548"
   y2="43.067101" /><linearGradient
   inkscape:collect="always"
   xlink:href="#aigrd3"
   id="linearGradient1542"
   gradientUnits="userSpaceOnUse"
   gradientTransform="matrix(0.284933,0,0,0.284933,-4.41357,23.00305)"
   x1="30.309601"
   y1="27.075199"
   x2="39.8382"
   y2="40.7673" /><linearGradient
   inkscape:collect="always"
   xlink:href="#aigrd4"
   id="linearGradient1544"
   gradientUnits="userSpaceOnUse"
   gradientTransform="matrix(0.284933,0,0,0.284933,-4.41357,23.00305)"
   x1="32.826199"
   y1="32.710899"
   x2="45.571899"
   y2="39.726799" /><linearGradient
   inkscape:collect="always"
   xlink:href="#aigrd4"
   id="linearGradient1546"
   gradientUnits="userSpaceOnUse"
   gradientTransform="matrix(0.284933,0,0,0.284933,-4.41357,23.00305)"
   x1="27.294901"
   y1="25.4727"
   x2="20.945299"
   y2="11.0039" /><linearGradient
   inkscape:collect="always"
   xlink:href="#aigrd6"
   id="linearGradient1548"
   gradientUnits="userSpaceOnUse"
   gradientTransform="matrix(0.284933,0,0,0.284933,-4.41357,23.00305)"
   x1="24.6035"
   y1="9.3432999"
   x2="24.6035"
   y2="10.4377" /><radialGradient
   inkscape:collect="always"
   xlink:href="#aigrd7"
   id="radialGradient1550"
   gradientUnits="userSpaceOnUse"
   gradientTransform="matrix(0.284933,0,0,0.284933,-4.41357,23.00305)"
   cx="24.774401"
   cy="30.991199"
   fx="24.774401"
   fy="30.991199"
   r="0.59020001" /><linearGradient
   inkscape:collect="always"
   xlink:href="#aigrd5"
   id="linearGradient1583"
   gradientUnits="userSpaceOnUse"
   gradientTransform="translate(-15.29659,17.00564)"
   x1="27.294901"
   y1="25.4727"
   x2="20.945299"
   y2="11.0039" /><linearGradient
   inkscape:collect="always"
   xlink:href="#aigrd6"
   id="linearGradient1585"
   gradientUnits="userSpaceOnUse"
   gradientTransform="translate(-15.29659,17.00564)"
   x1="24.6035"
   y1="9.3432999"
   x2="24.6035"
   y2="10.4377" /><radialGradient
   inkscape:collect="always"
   xlink:href="#aigrd7"
   id="radialGradient1587"
   gradientUnits="userSpaceOnUse"
   gradientTransform="translate(-15.29659,17.00564)"
   cx="24.774401"
   cy="30.991199"
   fx="24.774401"
   fy="30.991199"
   r="0.59020001" /><linearGradient
   inkscape:collect="always"
   xlink:href="#aigrd2"
   id="linearGradient1589"
   gradientUnits="userSpaceOnUse"
   gradientTransform="matrix(0.284933,0,0,0.284933,-4.41357,23.00305)"
   x1="30.494101"
   y1="29.4727"
   x2="39.9548"
   y2="43.067101" /><linearGradient
   inkscape:collect="always"
   xlink:href="#aigrd3"
   id="linearGradient1591"
   gradientUnits="userSpaceOnUse"
   gradientTransform="matrix(0.284933,0,0,0.284933,-4.41357,23.00305)"
   x1="30.309601"
   y1="27.075199"
   x2="39.8382"
   y2="40.7673" /><linearGradient
   inkscape:collect="always"
   xlink:href="#aigrd4"
   id="linearGradient1593"
   gradientUnits="userSpaceOnUse"
   gradientTransform="matrix(0.284933,0,0,0.284933,-4.41357,23.00305)"
   x1="32.826199"
   y1="32.710899"
   x2="45.571899"
   y2="39.726799" /><linearGradient
   inkscape:collect="always"
   xlink:href="#aigrd4"
   id="linearGradient1595"
   gradientUnits="userSpaceOnUse"
   gradientTransform="matrix(0.284933,0,0,0.284933,-4.41357,23.00305)"
   x1="27.294901"
   y1="25.4727"
   x2="20.945299"
   y2="11.0039" /><linearGradient
   inkscape:collect="always"
   xlink:href="#aigrd6"
   id="linearGradient1597"
   gradientUnits="userSpaceOnUse"
   gradientTransform="matrix(0.284933,0,0,0.284933,-4.41357,23.00305)"
   x1="24.6035"
   y1="9.3432999"
   x2="24.6035"
   y2="10.4377" /><radialGradient
   inkscape:collect="always"
   xlink:href="#aigrd7"
   id="radialGradient1599"
   gradientUnits="userSpaceOnUse"
   gradientTransform="matrix(0.284933,0,0,0.284933,-4.41357,23.00305)"
   cx="24.774401"
   cy="30.991199"
   fx="24.774401"
   fy="30.991199"
   r="0.59020001" /></defs><sodipodi:namedview
   inkscape:window-height="544"
   inkscape:window-width="960"
   inkscape:pageshadow="2"
   inkscape:pageopacity="0.0"
   borderopacity="1.0"
   bordercolor="#666666"
   pagecolor="#ffffff"
   id="base"
   inkscape:zoom="5.0000007"
   inkscape:cx="34.82187"
   inkscape:cy="22.5"
   inkscape:window-x="157"
   inkscape:window-y="247"
   inkscape:current-layer="svg2" />
	
	
	
<g
   id="g1552"
   transform="matrix(1.615826,0,0,1.615826,8.004195,-40.26693)"><path
     style="fill:#969696;fill-rule:nonzero;stroke:none;stroke-miterlimit:4"
     d="M 0.0064099578,26.318643 C -0.54359004,26.318643 -0.99259004,26.765643 -0.99259004,27.316643 L -0.99259004,27.511643 C -0.99259004,27.940643 -0.70959004,28.292643 -0.31559004,28.428643 C -0.31559004,28.787643 -0.31559004,46.301643 -0.31559004,46.301643 C -0.31559004,46.301643 9.06241,46.301643 9.53641,46.301643 C 9.53641,46.655643 9.53641,47.745643 9.53641,47.935643 C 9.23941,48.154643 9.05441,48.487643 9.05441,48.851643 C 9.05441,48.851643 9.06641,48.907643 9.07741,48.963643 C 8.82041,49.152643 2.15141,54.081643 2.15141,54.081643 L 4.36641,54.079643 L 5.33141,54.078643 C 5.33141,54.078643 9.82441,50.124643 9.99541,49.974643 C 10.07141,49.992643 10.15041,50.017643 10.22141,50.017643 C 10.29641,50.017643 10.37841,49.990643 10.45641,49.971643 C 10.62941,50.124643 15.08541,54.078643 15.08541,54.078643 L 16.74941,54.081643 L 18.26041,54.081643 C 18.26041,54.081643 11.62041,49.160643 11.36341,48.969643 C 11.37641,48.909643 11.38841,48.851643 11.38841,48.851643 C 11.38841,48.491643 11.21341,48.166643 10.92641,47.947643 C 10.92641,47.762643 10.92641,46.658643 10.92641,46.301643 C 11.39841,46.301643 19.94541,46.301643 19.94541,46.301643 C 19.94541,46.301643 19.94541,28.861643 19.94541,28.463643 C 20.38341,28.357643 20.71641,27.980643 20.71641,27.511643 L 20.71641,27.316643 C 20.71641,26.765643 20.26741,26.318643 19.71741,26.318643 L 0.0064099578,26.318643 L 0.0064099578,26.318643 z "
     id="path47" /><path
     style="fill:#000000;fill-rule:nonzero;stroke:none;stroke-miterlimit:4"
     d="M -0.49259004,25.818643 C -1.04259,25.818643 -1.49059,26.266643 -1.49059,26.816643 L -1.49059,27.011643 C -1.49059,27.440643 -1.20859,27.792643 -0.81459004,27.928643 C -0.81459004,28.286643 -0.81459004,45.800643 -0.81459004,45.800643 C -0.81459004,45.800643 8.56341,45.800643 9.03841,45.800643 C 9.03841,46.155643 9.03841,47.245643 9.03841,47.434643 C 8.74241,47.654643 8.55541,47.988643 8.55541,48.350643 C 8.55541,48.350643 8.56741,48.407643 8.57841,48.462643 C 8.32241,48.652643 1.65241,53.582643 1.65241,53.582643 L 3.86841,53.579643 L 4.83341,53.578643 C 4.83341,53.578643 9.32641,49.625643 9.49741,49.474643 C 9.57241,49.490643 9.65141,49.517643 9.72341,49.517643 C 9.79741,49.517643 9.88041,49.489643 9.95941,49.470643 C 10.13141,49.623643 14.58641,53.577643 14.58641,53.577643 L 16.25141,53.579643 L 17.76341,53.579643 C 17.76341,53.579643 11.12241,48.658643 10.86541,48.469643 C 10.87841,48.408643 10.89041,48.349643 10.89041,48.349643 C 10.89041,47.990643 10.71541,47.666643 10.42841,47.447643 C 10.42841,47.260643 10.42841,46.156643 10.42841,45.800643 C 10.90041,45.800643 19.44841,45.800643 19.44841,45.800643 C 19.44841,45.800643 19.44841,28.360643 19.44841,27.963643 C 19.88441,27.858643 20.21741,27.481643 20.21741,27.011643 L 20.21741,26.816643 C 20.21741,26.266643 19.77141,25.818643 19.22141,25.818643 L -0.49259004,25.818643 z "
     id="path49" /><path
     style="fill:#a4a4a4;fill-rule:nonzero;stroke:none;stroke-miterlimit:4"
     d="M 9.87041,48.313643 L 9.47941,48.313643 L 9.47941,26.506643 L 9.87041,26.506643 L 9.87041,48.312643 L 9.87041,48.313643 z "
     id="path51" /><path
     style="fill:url(#linearGradient1583);fill-rule:nonzero;stroke:none;stroke-miterlimit:4"
     d="M 18.89041,45.184643 L -0.37259004,45.184643 L -0.37259004,27.289643 L 18.89041,27.289643 L 18.89041,45.184643 L 18.89041,45.184643 z "
     id="path58" /><path
     style="fill:#f9f9f9;fill-rule:nonzero;stroke:none;stroke-miterlimit:4"
     d="M -0.37259004,45.184643 L 0.37340996,27.950643 L 18.89041,27.393643 L -0.37259004,27.393643 L -0.37259004,45.184643 L -0.37259004,45.184643 z "
     id="path60" /><path
     id="path64"
     d="M 14.71841,52.961643 L 16.19541,52.964643 L 9.92041,48.326643 L 9.48141,48.312643 L 14.71941,52.960643 L 14.71841,52.961643 z "
     style="fill:#a4a4a4;fill-rule:nonzero;stroke:none;stroke-miterlimit:4" /><path
     id="path66"
     d="M 4.58741,52.961643 L 3.11141,52.964643 L 9.38641,48.326643 L 9.82441,48.312643 L 4.58641,52.960643 L 4.58741,52.961643 z "
     style="fill:#a4a4a4;fill-rule:nonzero;stroke:none;stroke-miterlimit:4" /><path
     id="path68"
     d="M 3.11241,52.964643 L 3.81041,52.964643 L 3.81041,52.735643 L 9.38741,48.327643 L 3.11341,52.965643"
     style="fill:#dedede;fill-rule:nonzero;stroke:none;stroke-miterlimit:4" /><path
     id="path70"
     d="M 15.17841,52.963643 L 14.79241,52.813643 L 9.53641,48.363643 L 14.71841,52.962643 L 15.17841,52.964643 L 15.17841,52.963643 z "
     style="fill:#dedede;fill-rule:nonzero;stroke:none;stroke-miterlimit:4" /><path
     id="path72"
     d="M 9.87041,48.313643 L 4.58741,52.961643 L 4.21641,52.963643 L 4.58741,52.794643 L 9.87041,48.313643 L 9.87041,48.313643 z "
     style="fill:#757575;fill-rule:nonzero;stroke:none;stroke-miterlimit:4" /><path
     id="path74"
     d="M 16.19441,52.964643 L 15.89341,52.964643 L 9.80341,48.231643 L 16.19541,52.964643 L 16.19441,52.964643 z "
     style="fill:#878787;fill-rule:nonzero;stroke:none;stroke-miterlimit:4" /><path
     style="fill:url(#linearGradient1585);fill-rule:nonzero;stroke:none;stroke-miterlimit:4"
     d="M 19.66141,26.894643 C 19.66141,27.170643 19.43641,27.393643 19.16141,27.393643 L -0.55059004,27.393643 C -0.82559004,27.393643 -1.04959,27.170643 -1.04959,26.894643 L -1.04959,26.698643 C -1.04959,26.423643 -0.82659004,26.198643 -0.55059004,26.198643 L 19.16141,26.198643 C 19.43641,26.198643 19.66141,26.422643 19.66141,26.698643 L 19.66141,26.893643 L 19.66141,26.894643 z "
     id="path81" /><path
     style="opacity:0.16000001;fill:#000000;fill-rule:nonzero;stroke:none;stroke-miterlimit:4"
     d="M 18.89041,27.393643 L -0.37259004,27.393643 L -0.37259004,28.798643 C 0.71340996,27.272643 18.89041,27.393643 18.89041,27.393643 z "
     id="path83" /><path
     style="fill:#c9c9c9;fill-rule:nonzero;stroke:none;stroke-miterlimit:4"
     d="M 18.89041,45.184643 L 18.89041,27.393643 L 18.35541,44.518643 L -0.37259004,45.184643 L 18.89041,45.184643 z "
     id="path85" /><path
     style="fill:url(#radialGradient1587);fill-rule:nonzero;stroke:none;stroke-miterlimit:4"
     d="M 10.33341,48.233643 C 10.33341,48.602643 10.03441,48.901643 9.66541,48.901643 C 9.29641,48.901643 8.99741,48.602643 8.99741,48.233643 C 8.99741,47.865643 9.29641,47.565643 9.66541,47.565643 C 10.03441,47.565643 10.33341,47.865643 10.33341,48.233643 z "
     id="path92" /><path
     style="fill:#959595;fill-rule:nonzero;stroke:none;stroke-miterlimit:4"
     d="M 16.76441,41.941643 L 1.83041,41.941643 L 1.83041,40.438643 L 16.76441,40.438643 L 16.76441,41.941643 z "
     id="path94" /><path
     style="fill:#959595;fill-rule:nonzero;stroke:none;stroke-miterlimit:4"
     d="M 16.76441,39.539643 L 1.83041,39.539643 L 1.83041,38.035643 L 16.76441,38.035643 L 16.76441,39.539643 L 16.76441,39.539643 z "
     id="path96" /><path
     style="fill:#959595;fill-rule:nonzero;stroke:none;stroke-miterlimit:4"
     d="M 16.76441,37.136643 L 10.85141,37.136643 L 10.85141,35.633643 L 16.76441,35.633643 L 16.76441,37.136643 z "
     id="path98" /><path
     style="fill:#959595;fill-rule:nonzero;stroke:none;stroke-miterlimit:4"
     d="M 16.76441,34.734643 L 10.85141,34.734643 L 10.85141,33.231643 L 16.76441,33.231643 L 16.76441,34.734643 z "
     id="path100" /><path
     style="fill:#959595;fill-rule:nonzero;stroke:none;stroke-miterlimit:4"
     d="M 16.76441,32.332643 L 10.85141,32.332643 L 10.85141,30.828643 L 16.76441,30.828643 L 16.76441,32.332643 z "
     id="path102" /><path
     style="fill:#000000;fill-rule:nonzero;stroke:none;stroke-width:0.94459999;stroke-miterlimit:4"
     d="M 2.468984,30.574292 C 1.591675,31.126492 1.108429,31.876436 1.108429,32.6865 L 1.108429,33.359227 C 1.108429,34.169577 1.591675,34.919805 2.468984,35.471721 C 3.297284,35.993148 4.392566,36.28036 5.551959,36.28036 C 6.711636,36.28036 7.806634,35.993148 8.635219,35.471721 C 9.512243,34.91952 9.995489,34.169577 9.995489,33.359227 L 9.995489,32.6865 C 9.995489,31.876436 9.512243,31.126207 8.635219,30.574292 C 7.806634,30.05315 6.711636,29.765652 5.551959,29.765652 C 4.392566,29.765652 3.297284,30.05315 2.468984,30.574292 z "
     id="path1477" /><path
     style="fill:url(#linearGradient1589);fill-rule:nonzero;stroke:none;stroke-width:0.94459999;stroke-miterlimit:4"
     d="M 9.470927,32.560845 C 9.000218,31.460149 7.403453,30.649514 5.504945,30.649514 C 3.606721,30.649514 2.009957,31.460149 1.539247,32.560845 L 1.397921,32.560845 L 1.397921,33.233857 C 1.397921,34.661371 3.236593,35.817914 5.504945,35.817914 C 7.773297,35.817914 9.612254,34.661086 9.612254,33.233857 L 9.612254,32.560845 L 9.470927,32.560845 z "
     id="path1484" /><path
     style="fill:url(#linearGradient1591);fill-rule:nonzero;stroke:none;stroke-width:0.94459999;stroke-miterlimit:4"
     d="M 9.612539,32.560845 C 9.612539,33.988359 7.773581,35.145472 5.50523,35.145472 C 3.236878,35.145472 1.398206,33.988074 1.398206,32.560845 C 1.398206,31.133616 3.236878,29.976503 5.50523,29.976503 C 7.773581,29.976503 9.612539,31.133901 9.612539,32.560845 z "
     id="path1491" /><path
     style="fill:url(#linearGradient1593);fill-rule:nonzero;stroke:none;stroke-width:0.94459999;stroke-miterlimit:4"
     d="M 9.612539,33.334723 L 9.60684,32.630369 C 9.16149,34.0935 8.160236,34.713799 6.900832,35.016967 L 6.900832,35.664905 C 8.263951,35.338372 9.483179,34.595552 9.612539,33.334438 L 9.612539,33.334723 z "
     id="path1498" /><path
     style="fill:url(#linearGradient1595);fill-opacity:1;fill-rule:nonzero;stroke:none;stroke-width:0.94459999;stroke-miterlimit:4"
     d="M 9.612539,32.560845 C 9.518226,34.212602 7.373251,34.96511 6.893708,34.993888 L 5.50523,32.560845 L 9.612539,32.560845 z "
     id="path1505" /><path
     style="fill:url(#linearGradient1597);fill-rule:nonzero;stroke:none;stroke-width:0.94459999;stroke-miterlimit:4"
     d="M 4.645587,35.761212 L 4.645587,35.088771 C 5.41861,35.184508 6.127808,35.201604 6.893708,35.018677 L 6.900832,35.66519 C 6.259163,35.866068 5.255344,35.874901 4.645587,35.761497 L 4.645587,35.761212 z "
     id="path1512" /><path
     style="fill:url(#radialGradient1599);fill-rule:nonzero;stroke:none;stroke-width:0.94459999;stroke-miterlimit:4"
     d="M 5.50523,32.56113 L 6.893708,34.994173 C 6.043753,35.30247 4.645587,35.088771 4.645587,35.088771 L 5.50523,32.56113 z "
     id="path1519" /><path
     style="opacity:0.45;fill:#eccfc7;fill-rule:nonzero;stroke:none;stroke-width:0.94459999;stroke-miterlimit:4"
     d="M 8.252269,30.639827 C 8.252269,30.639827 9.719959,31.413135 9.603991,32.667695 C 9.488308,33.922255 7.645077,35.524433 4.600852,35.082502 C 7.662742,35.248618 9.293414,33.712829 9.407102,32.713854 C 9.521076,31.714309 8.818716,31.07435 8.251984,30.639827 L 8.252269,30.639827 z "
     id="path1521" /><path
     style="fill:#eda18c;fill-rule:nonzero;stroke:none;stroke-width:0.94459999;stroke-miterlimit:4"
     d="M 4.178012,35.007565 C 2.975595,34.810391 1.350622,33.841619 1.39963,32.490467 C 1.444935,31.231348 3.189864,29.739438 6.285091,30.023232 C 3.218927,29.883615 1.642393,31.290329 1.577143,32.43405 C 1.515313,33.515655 2.850224,34.733459 4.178012,35.007565 L 4.178012,35.007565 z "
     id="path1523" /></g></svg>