<?xml version="1.0" encoding="UTF-8" standalone="no"?>
<svg
   xmlns:dc="http://purl.org/dc/elements/1.1/"
   xmlns:cc="http://creativecommons.org/ns#"
   xmlns:rdf="http://www.w3.org/1999/02/22-rdf-syntax-ns#"
   xmlns:svg="http://www.w3.org/2000/svg"
   xmlns="http://www.w3.org/2000/svg"
   xmlns:xlink="http://www.w3.org/1999/xlink"
   xmlns:sodipodi="http://sodipodi.sourceforge.net/DTD/sodipodi-0.dtd"
   xmlns:inkscape="http://www.inkscape.org/namespaces/inkscape"
   version="1.1"
   width="64"
   height="64"
   color-interpolation="linearRGB"
   id="svg2"
   inkscape:version="0.47 r22583"
   sodipodi:docname="face-sad.svg">
  <metadata
     id="metadata32">
    <rdf:RDF>
      <cc:Work
         rdf:about="">
        <dc:format>image/svg+xml</dc:format>
        <dc:type
           rdf:resource="http://purl.org/dc/dcmitype/StillImage" />
        <dc:title></dc:title>
      </cc:Work>
    </rdf:RDF>
  </metadata>
  <defs
     id="defs30">
    <inkscape:perspective
       sodipodi:type="inkscape:persp3d"
       inkscape:vp_x="0 : 32 : 1"
       inkscape:vp_y="0 : 1000 : 0"
       inkscape:vp_z="64 : 32 : 1"
       inkscape:persp3d-origin="32 : 21.333333 : 1"
       id="perspective34" />
    <radialGradient
       gradientTransform="matrix(0.5625,0,0,0.5625,18,18)"
       r="64"
       cy="0"
       cx="0"
       gradientUnits="userSpaceOnUse"
       id="gradient0">
      <stop
         id="stop11"
         stop-color="#ffffff"
         offset="0" />
      <stop
         id="stop13"
         stop-color="#fee900"
         offset="0.75" />
      <stop
         id="stop15"
         stop-color="#febe00"
         offset="1" />
    </radialGradient>
    <radialGradient
       gradientTransform="matrix(0.5625,0,0,0.5625,18,18)"
       r="64"
       cy="0"
       cx="0"
       gradientUnits="userSpaceOnUse"
       id="gradient1">
      <stop
         id="stop20"
         stop-color="#ffffff"
         offset="0" />
      <stop
         id="stop22"
         stop-color="#cc9933"
         offset="0.25" />
      <stop
         id="stop24"
         stop-color="#663b19"
         offset="1" />
    </radialGradient>
    <radialGradient
       inkscape:collect="always"
       xlink:href="#gradient1"
       id="radialGradient3039"
       gradientUnits="userSpaceOnUse"
       gradientTransform="matrix(0.5625,0,0,0.5625,18,18)"
       cx="0"
       cy="0"
       r="64" />
    <radialGradient
       inkscape:collect="always"
       xlink:href="#gradient0"
       id="radialGradient3042"
       gradientUnits="userSpaceOnUse"
       gradientTransform="matrix(0.5625,0,0,0.5625,18,18)"
       cx="0"
       cy="0"
       r="64" />
    <radialGradient
       inkscape:collect="always"
       xlink:href="#gradient1"
       id="radialGradient3048"
       gradientUnits="userSpaceOnUse"
       gradientTransform="matrix(-0.37501293,0,-0.10074746,-0.38619194,18.27068,53.42983)"
       cx="0"
       cy="0"
       r="64" />
    <radialGradient
       inkscape:collect="always"
       xlink:href="#gradient1"
       id="radialGradient3052"
       gradientUnits="userSpaceOnUse"
       gradientTransform="matrix(0.5625,0,0,0.5625,18,18)"
       cx="0"
       cy="0"
       r="64" />
    <radialGradient
       gradientUnits="userSpaceOnUse"
       fy="39.5928"
       fx="25.0527"
       r="15.7572"
       cy="39.5928"
       cx="25.0527"
       id="aigrd2"
       gradientTransform="matrix(1.250000,0.000000,0.000000,-1.250000,-6.479446,73.66448)">
      <stop
         id="stop8602"
         style="stop-color:#777777;stop-opacity:1.0000000;"
         offset="0.0000000" />
      <stop
         id="stop8604"
         style="stop-color:#000000"
         offset="1" />
    </radialGradient>
    <linearGradient
       inkscape:collect="always"
       id="linearGradient2729">
      <stop
         style="stop-color:#d6e0f8;stop-opacity:1;"
         offset="0"
         id="stop2731" />
      <stop
         style="stop-color:#d6e0f8;stop-opacity:0;"
         offset="1"
         id="stop2733" />
    </linearGradient>
    <linearGradient
       id="linearGradient3290">
      <stop
         id="stop3292"
         offset="0.0000000"
         style="stop-color:#fffcde;stop-opacity:1.0000000;" />
      <stop
         style="stop-color:#f6e76a;stop-opacity:1.0000000;"
         offset="0.64485979"
         id="stop3294" />
      <stop
         id="stop3296"
         offset="1.0000000"
         style="stop-color:#ffb738;stop-opacity:1.0000000;" />
    </linearGradient>
    <linearGradient
       inkscape:collect="always"
       id="linearGradient5125">
      <stop
         style="stop-color:#729fcf;stop-opacity:1;"
         offset="0"
         id="stop5127" />
      <stop
         style="stop-color:#729fcf;stop-opacity:0;"
         offset="1"
         id="stop5129" />
    </linearGradient>
    <inkscape:perspective
       id="perspective44"
       inkscape:persp3d-origin="24 : 16 : 1"
       inkscape:vp_z="48 : 24 : 1"
       inkscape:vp_y="0 : 1000 : 0"
       inkscape:vp_x="0 : 24 : 1"
       sodipodi:type="inkscape:persp3d" />
    <linearGradient
       inkscape:collect="always"
       xlink:href="#linearGradient5125"
       id="linearGradient2974"
       gradientUnits="userSpaceOnUse"
       gradientTransform="translate(-86.00242,0.92618702)"
       x1="17.616745"
       y1="14.613358"
       x2="16.829033"
       y2="9.0223665" />
    <radialGradient
       inkscape:collect="always"
       xlink:href="#linearGradient2729"
       id="radialGradient2976"
       gradientUnits="userSpaceOnUse"
       gradientTransform="matrix(1.369875,0,0,2.845006,-91.056668,-34.315223)"
       cx="13.664760"
       cy="20.541668"
       fx="13.664760"
       fy="20.541668"
       r="4.3085900" />
    <linearGradient
       inkscape:collect="always"
       xlink:href="#linearGradient5125"
       id="linearGradient2983"
       gradientUnits="userSpaceOnUse"
       gradientTransform="translate(-86.00242,0.92618702)"
       x1="29.807129"
       y1="13.022821"
       x2="29.807129"
       y2="8.1614628" />
    <linearGradient
       inkscape:collect="always"
       xlink:href="#linearGradient2729"
       id="linearGradient2985"
       gradientUnits="userSpaceOnUse"
       gradientTransform="translate(-92.012828,1.102964)"
       x1="36.592773"
       y1="18.228588"
       x2="35.032169"
       y2="13.809171" />
  </defs>
  <sodipodi:namedview
     pagecolor="#ffffff"
     bordercolor="#666666"
     borderopacity="1"
     objecttolerance="10"
     gridtolerance="10"
     guidetolerance="10"
     inkscape:pageopacity="0"
     inkscape:pageshadow="2"
     inkscape:window-width="786"
     inkscape:window-height="501"
     id="namedview28"
     showgrid="false"
     inkscape:zoom="3.6875"
     inkscape:cx="1.6250977"
     inkscape:cy="32"
     inkscape:window-x="89"
     inkscape:window-y="117"
     inkscape:window-maximized="0"
     inkscape:current-layer="svg2" />
  <path
     id="path6"
     d="M 38,38 C 23.64,38 12,43.82 12,51 12,58.17 23.64,64 38,64 52.34,64 64,58.17 64,51 64,43.82 52.34,38 38,38 z"
     style="fill:#010101;fill-opacity:0.37250001" />
  <path
     id="path8"
     d="M 28,2 C 13.64,2 2,13.64 2,28 2,42.34 13.64,54 28,54 42.34,54 54,42.34 54,28 54,13.64 42.34,2 28,2 z"
     style="fill:none;stroke:#000000;stroke-width:4" />
  <path
     id="path17"
     d="M 28,2 C 13.64,2 2,13.64 2,28 2,42.34 13.64,54 28,54 42.34,54 54,42.34 54,28 54,13.64 42.34,2 28,2 z"
     style="fill:url(#radialGradient3042)" />
  <path
     id="path26"
     d="m 27,20 c -3.32,0 -6,2.68 -6,6 0,3.29 3.222373,-3.491525 6.542373,-3.491525 C 30.832373,22.508475 33,29.29 33,26 33,22.68 30.29,20 27,20 z"
     style="fill:url(#radialGradient3039)"
     sodipodi:nodetypes="csssc" />
  <path
     style="fill:url(#radialGradient3048)"
     d="M 26.654013,51.208754 C 23.609201,39.537175 12.28053,35.579179 5.1757868,39.011997 10.733466,28.136783 24.892843,36.790921 26.654013,51.208754 z"
     id="path3046"
     sodipodi:nodetypes="ccc" />
  <path
     style="fill:url(#radialGradient3052)"
     d="M 6,17 C 5,20 8.2542373,15.491525 10.254237,15.491525 12.254237,15.491525 11,21 12,18 c 1,-3 0,-5 -1,-5 -2,0 -4,1 -5,4 z"
     id="path3050"
     sodipodi:nodetypes="csssc" />
  <path
     transform="matrix(1.979782,0,0,1.979782,-123.3337,-13.601273)"
     sodipodi:type="arc"
     style="opacity:0.67721522;color:#000000;fill:none;stroke:#ffffff;stroke-width:0.50510627;stroke-linecap:round;stroke-linejoin:round;stroke-miterlimit:4;stroke-opacity:1;stroke-dasharray:none;stroke-dashoffset:0;marker:none;visibility:visible;display:inline;overflow:visible"
     id="path4322"
     sodipodi:cx="31.112698"
     sodipodi:cy="19.008621"
     sodipodi:rx="8.6620579"
     sodipodi:ry="8.6620579"
     d="m 39.774755,19.008621 a 8.6620579,8.6620579 0 1 1 -17.324115,0 8.6620579,8.6620579 0 1 1 17.324115,0 z" />
  <g
     id="g2969"
     transform="translate(76.745763,3.2542376)">
    <path
       sodipodi:nodetypes="czszsscc"
       id="path2314"
       d="m -65.195912,9.9485534 c 0,0 -1.251445,4.8073066 -1.723431,6.5687826 -0.436433,1.628791 -1.864164,4.44708 -1.074918,7.633433 0.989607,3.995249 -0.809426,5.374755 -2.756352,5.460207 -1.794802,0.07878 -3.900635,-0.784795 -3.819999,-3.963182 0.115444,-4.462002 5.028036,-4.434034 6.780213,-8.825598 1.660563,-4.161947 -3.240226,-2.483403 -3.240226,-2.483403 0,0 5.834713,-4.3902396 5.834713,-4.3902396 z"
       style="color:#000000;fill:url(#linearGradient2974);fill-opacity:1;fill-rule:nonzero;stroke:none;stroke-width:1;marker:none;visibility:visible;display:inline;overflow:visible" />
    <path
       style="color:#000000;fill:url(#radialGradient2976);fill-opacity:1;fill-rule:nonzero;stroke:none;stroke-width:1;marker:none;visibility:visible;display:inline;overflow:visible"
       d="m -65.37742,10.051187 c 0,0 -1.191942,4.505362 -2.066942,7.411612 -0.875,2.90625 -2.161791,3.476549 -1.301777,6.821922 0.446275,1.735964 -0.557425,3.641466 -2.131281,3.641466 -1.632495,0 -3.011592,-0.967907 -2.911612,-3.073223 0.186331,-3.923634 3.698214,-3.347017 5.349112,-6.895527 2.659772,-5.730235 -2.472114,-3.599269 -2.472114,-3.599269 l 5.534614,-4.306981 z"
       id="path2310"
       sodipodi:nodetypes="cssssscc" />
    <path
       sodipodi:type="arc"
       style="color:#000000;fill:#ffffff;fill-opacity:1;fill-rule:nonzero;stroke:none;stroke-width:1;marker:none;visibility:visible;display:inline;overflow:visible"
       id="path2312"
       sodipodi:cx="14.4375"
       sodipodi:cy="24.4375"
       sodipodi:rx="1.1875"
       sodipodi:ry="1.1875"
       d="m 15.625,24.4375 c 0,0.655838 -0.531662,1.1875 -1.1875,1.1875 -0.655838,0 -1.1875,-0.531662 -1.1875,-1.1875 0,-0.655838 0.531662,-1.1875 1.1875,-1.1875 0.655838,0 1.1875,0.531662 1.1875,1.1875 z"
       transform="translate(-86.50242,0.30118702)" />
  </g>
  <g
     id="g2978"
     transform="translate(86.508475,12.203389)">
    <path
       style="color:#000000;fill:url(#linearGradient2983);fill-opacity:1;fill-rule:nonzero;stroke:none;stroke-width:1;marker:none;visibility:visible;display:inline;overflow:visible"
       d="m -59.494873,9.8450001 c 0,0 1.664681,7.6418849 2.057972,9.4971259 0.481015,2.269053 4.609496,3.757682 4.540334,1.42263 -0.09426,-3.18245 -2.91567,-3.031934 -3.199091,-3.741636 -1.2178,-3.049129 2.692288,-2.485079 2.692288,-2.485079 0,0 -6.091503,-4.6930409 -6.091503,-4.6930409 z"
       id="path2739"
       sodipodi:nodetypes="czsscc" />
    <path
       style="color:#000000;fill:url(#linearGradient2985);fill-opacity:1;fill-rule:nonzero;stroke:none;stroke-width:1;marker:none;visibility:visible;display:inline;overflow:visible"
       d="m -58.425256,13.040518 c 0,0 1.02138,4.755442 1.414213,5.877825 0.309359,0.883884 0.739211,1.655804 2.077127,1.546796 1.118282,-0.09111 0.946603,-1.679926 -0.486136,-2.474873 -2.367734,-1.313724 -3.005204,-4.861359 -3.005204,-4.949748 z"
       id="path2743"
       sodipodi:nodetypes="cszsc" />
    <path
       transform="matrix(0.553405,0,0,0.553405,-63.17254,5.160246)"
       d="m 15.625,24.4375 c 0,0.655838 -0.531662,1.1875 -1.1875,1.1875 -0.655838,0 -1.1875,-0.531662 -1.1875,-1.1875 0,-0.655838 0.531662,-1.1875 1.1875,-1.1875 0.655838,0 1.1875,0.531662 1.1875,1.1875 z"
       sodipodi:ry="1.1875"
       sodipodi:rx="1.1875"
       sodipodi:cy="24.4375"
       sodipodi:cx="14.4375"
       id="path2741"
       style="color:#000000;fill:#ffffff;fill-opacity:1;fill-rule:nonzero;stroke:none;stroke-width:1;marker:none;visibility:visible;display:inline;overflow:visible"
       sodipodi:type="arc" />
  </g>
</svg>
