<?xml version="1.0" encoding="UTF-8" standalone="no"?>
<svg
   xmlns:dc="http://purl.org/dc/elements/1.1/"
   xmlns:cc="http://creativecommons.org/ns#"
   xmlns:rdf="http://www.w3.org/1999/02/22-rdf-syntax-ns#"
   xmlns:svg="http://www.w3.org/2000/svg"
   xmlns="http://www.w3.org/2000/svg"
   xmlns:xlink="http://www.w3.org/1999/xlink"
   xmlns:sodipodi="http://sodipodi.sourceforge.net/DTD/sodipodi-0.dtd"
   xmlns:inkscape="http://www.inkscape.org/namespaces/inkscape"
   version="1.1"
   width="64"
   height="64"
   color-interpolation="linearRGB"
   id="svg2"
   inkscape:version="0.91 r13725"
   sodipodi:docname="faq.svg">
  <metadata
     id="metadata43">
    <rdf:RDF>
      <cc:Work
         rdf:about="">
        <dc:format>image/svg+xml</dc:format>
        <dc:type
           rdf:resource="http://purl.org/dc/dcmitype/StillImage" />
        <dc:title></dc:title>
      </cc:Work>
    </rdf:RDF>
  </metadata>
  <defs
     id="defs41">
    <radialGradient
       gradientTransform="matrix(0.4391,0.2625,-0.1589,0.2658,13.6466,37.066)"
       r="64"
       cy="0"
       cx="0"
       gradientUnits="userSpaceOnUse"
       id="gradient0">
      <stop
         id="stop9"
         stop-color="#ffffff"
         offset="0" />
      <stop
         id="stop11"
         stop-color="#f2f2f2"
         offset="0.7064" />
      <stop
         id="stop13"
         stop-color="#bfbfbf"
         offset="1" />
    </radialGradient>
    <radialGradient
       gradientTransform="matrix(0.4391,0.2625,-0.1589,0.2658,13.6466,37.066)"
       r="64"
       cy="0"
       cx="0"
       gradientUnits="userSpaceOnUse"
       id="gradient1">
      <stop
         id="stop18"
         stop-color="#ffffff"
         offset="0" />
      <stop
         id="stop20"
         stop-color="#bfbfbf"
         offset="1" />
    </radialGradient>
    <radialGradient
       gradientTransform="matrix(0.4075,0.2896,-0.2096,0.2949,34.2291,11.689)"
       r="64"
       cy="0"
       cx="0"
       gradientUnits="userSpaceOnUse"
       id="gradient2">
      <stop
         id="stop29"
         stop-color="#ffffff"
         offset="0" />
      <stop
         id="stop31"
         stop-color="#f2f2f2"
         offset="0.7064" />
      <stop
         id="stop33"
         stop-color="#bfbfbf"
         offset="1" />
    </radialGradient>
    <radialGradient
       inkscape:collect="always"
       xlink:href="#gradient2"
       id="radialGradient6735"
       gradientUnits="userSpaceOnUse"
       gradientTransform="matrix(0.4075,0.2896,-0.2096,0.2949,34.2291,11.689)"
       cx="0"
       cy="0"
       r="64" />
  </defs>
  <sodipodi:namedview
     pagecolor="#ffffff"
     bordercolor="#666666"
     borderopacity="1"
     objecttolerance="10"
     gridtolerance="10"
     guidetolerance="10"
     inkscape:pageopacity="0"
     inkscape:pageshadow="2"
     inkscape:window-width="770"
     inkscape:window-height="508"
     id="namedview39"
     showgrid="false"
     inkscape:zoom="3.6875"
     inkscape:cx="32"
     inkscape:cy="32"
     inkscape:window-x="2"
     inkscape:window-y="30"
     inkscape:window-maximized="0"
     inkscape:current-layer="svg2" />
  <g
     id="g6719">
    <path
       style="fill:none;stroke:#000000;stroke-width:4"
       d="M 54,37 C 58.2,34.87 62,32 62,26 62,18.33 57,11 50,7 42,2 30,1 23,6 c -5.22,3.72 -6,10 -4,15 3,9 14,15 23,17 3,1 6.54,0.85 9,0 2,5 5,9 9.25,10.2 C 58,47 55.2,41.87 54,37 Z"
       id="path26"
       inkscape:connector-curvature="0" />
    <path
       style="fill:url(#gradient2)"
       d="M 54,37 C 58.2,34.87 62,32 62,26 62,18.33 57,11 50,7 42,2 30,1 23,6 c -5.22,3.72 -6,10 -4,15 3,9 14,15 23,17 3,1 6.54,0.85 9,0 2,5 5,9 9.25,10.2 C 58,47 55.2,41.87 54,37 Z"
       id="path35"
       inkscape:connector-curvature="0" />
    <text
       transform="matrix(1.1547005,0.5,0,0.8660254,0,0)"
       sodipodi:linespacing="125%"
       id="text6715"
       y="14.251472"
       x="26.498983"
       style="font-style:normal;font-variant:normal;font-weight:bold;font-stretch:normal;font-size:25px;line-height:125%;font-family:'Droid Sans';-inkscape-font-specification:'Droid Sans Bold';letter-spacing:0px;word-spacing:0px;fill:#000000;fill-opacity:1;stroke:none;stroke-width:1px;stroke-linecap:butt;stroke-linejoin:miter;stroke-opacity:1"
       xml:space="preserve"><tspan
         y="14.251472"
         x="26.498983"
         id="tspan6717"
         sodipodi:role="line">?</tspan></text>
  </g>
  <g
     id="g6725"
     transform="matrix(0.85307694,0,0,0.85307694,-12.291839,20.923803)">
    <path
       inkscape:connector-curvature="0"
       id="path6727"
       d="M 54,37 C 58.2,34.87 62,32 62,26 62,18.33 57,11 50,7 42,2 30,1 23,6 c -5.22,3.72 -6,10 -4,15 3,9 14,15 23,17 3,1 6.54,0.85 9,0 2,5 5,9 9.25,10.2 C 58,47 55.2,41.87 54,37 Z"
       style="fill:none;stroke:#000000;stroke-width:4" />
    <path
       inkscape:connector-curvature="0"
       id="path6729"
       d="M 54,37 C 58.2,34.87 62,32 62,26 62,18.33 57,11 50,7 42,2 30,1 23,6 c -5.22,3.72 -6,10 -4,15 3,9 14,15 23,17 3,1 6.54,0.85 9,0 2,5 5,9 9.25,10.2 C 58,47 55.2,41.87 54,37 Z"
       style="fill:url(#radialGradient6735)" />
    <text
       xml:space="preserve"
       style="font-style:normal;font-variant:normal;font-weight:bold;font-stretch:normal;font-size:25px;line-height:125%;font-family:'Droid Sans';-inkscape-font-specification:'Droid Sans Bold';letter-spacing:0px;word-spacing:0px;fill:#000000;fill-opacity:1;stroke:none;stroke-width:1px;stroke-linecap:butt;stroke-linejoin:miter;stroke-opacity:1"
       x="26.498983"
       y="14.251472"
       id="text6731"
       sodipodi:linespacing="125%"
       transform="matrix(1.1547005,0.5,0,0.8660254,0,0)"><tspan
         sodipodi:role="line"
         id="tspan6733"
         x="26.498983"
         y="14.251472">?</tspan></text>
  </g>
</svg>
