<?xml version="1.0" encoding="UTF-8" standalone="no"?>
<svg
   xmlns:dc="http://purl.org/dc/elements/1.1/"
   xmlns:cc="http://creativecommons.org/ns#"
   xmlns:rdf="http://www.w3.org/1999/02/22-rdf-syntax-ns#"
   xmlns:svg="http://www.w3.org/2000/svg"
   xmlns="http://www.w3.org/2000/svg"
   xmlns:sodipodi="http://sodipodi.sourceforge.net/DTD/sodipodi-0.dtd"
   xmlns:inkscape="http://www.inkscape.org/namespaces/inkscape"
   version="1.1"
   width="64"
   height="64"
   color-interpolation="linearRGB"
   id="svg2"
   inkscape:version="0.91 r13725"
   sodipodi:docname="file-browser.svg">
  <metadata
     id="metadata128">
    <rdf:RDF>
      <cc:Work
         rdf:about="">
        <dc:format>image/svg+xml</dc:format>
        <dc:type
           rdf:resource="http://purl.org/dc/dcmitype/StillImage" />
        <dc:title></dc:title>
      </cc:Work>
    </rdf:RDF>
  </metadata>
  <defs
     id="defs126">
    <radialGradient
       gradientTransform="matrix(0.6248,0,0,0.6248,17.798,26.7906)"
       r="64"
       cy="0"
       cx="0"
       gradientUnits="userSpaceOnUse"
       id="gradient0">
      <stop
         id="stop9"
         stop-color="#33ffff"
         offset="0" />
      <stop
         id="stop11"
         stop-color="#33ffff"
         offset="0.3294" />
      <stop
         id="stop13"
         stop-color="#0066ff"
         offset="0.847" />
      <stop
         id="stop15"
         stop-color="#0034cc"
         offset="1" />
    </radialGradient>
    <radialGradient
       gradientTransform="matrix(0.7356,0,0,-0.7356,-55.280923,65.054989)"
       r="64"
       cy="0"
       cx="0"
       gradientUnits="userSpaceOnUse"
       id="gradient1">
      <stop
         id="stop22"
         stop-color="#ffffff"
         offset="0" />
      <stop
         id="stop24"
         stop-color="#00ff00"
         offset="0.2" />
      <stop
         id="stop26"
         stop-color="#00e400"
         offset="0.4" />
      <stop
         id="stop28"
         stop-color="#00b200"
         offset="0.6" />
      <stop
         id="stop30"
         stop-color="#009900"
         offset="0.8" />
      <stop
         id="stop32"
         stop-color="#008000"
         offset="1" />
    </radialGradient>
    <radialGradient
       gradientTransform="matrix(0.0701,0,0,-0.0701,20.8376,9.9224)"
       r="64"
       cy="0"
       cx="0"
       gradientUnits="userSpaceOnUse"
       id="gradient2">
      <stop
         id="stop89"
         stop-color="#ffcb98"
         offset="0" />
      <stop
         id="stop91"
         stop-color="#ffcb98"
         offset="1" />
    </radialGradient>
    <radialGradient
       gradientTransform="matrix(0.121,0,0,0.121,31.255,5.9534)"
       r="64"
       cy="0"
       cx="0"
       gradientUnits="userSpaceOnUse"
       id="gradient3">
      <stop
         id="stop116"
         stop-color="#ffcb98"
         offset="0" />
      <stop
         id="stop118"
         stop-color="#ffcb98"
         offset="0.498" />
      <stop
         id="stop120"
         stop-color="#cb9866"
         offset="1" />
    </radialGradient>
  </defs>
  <sodipodi:namedview
     pagecolor="#ffffff"
     bordercolor="#666666"
     borderopacity="1"
     objecttolerance="10"
     gridtolerance="10"
     guidetolerance="10"
     inkscape:pageopacity="0"
     inkscape:pageshadow="2"
     inkscape:window-width="770"
     inkscape:window-height="508"
     id="namedview124"
     showgrid="false"
     inkscape:zoom="1.3037281"
     inkscape:cx="-55.293506"
     inkscape:cy="28.95332"
     inkscape:window-x="2"
     inkscape:window-y="30"
     inkscape:window-maximized="0"
     inkscape:current-layer="svg2" />
  <g
     style="color-interpolation:linearRGB"
     id="g6895"
     transform="translate(2.8215716,-1.3763949)">
    <g
       id="g6784">
      <path
         id="path6786"
         transform="translate(-4,0)"
         d="m 34,62 18,0 2,-2 -11,-5 23,-23 -6,-2 -26,0 0,32 z m 22,-10 -8,-4 12,0 -8,-4 12,0 -8,-4 12,0 -12,-6 -18,18 18,0 z"
         style="fill:#000000;fill-opacity:0.45880001"
         inkscape:connector-curvature="0" />
      <path
         id="path6788"
         transform="translate(-4,0)"
         d="M 10,32 10,44 34,56 58,32 58,22 34,12 10,32 Z"
         style="fill:none;stroke:#010000;stroke-width:4;stroke-linecap:square"
         inkscape:connector-curvature="0" />
      <linearGradient
         y2="48.07"
         x2="59.580002"
         y1="20.52"
         x1="69.57"
         gradientUnits="userSpaceOnUse"
         id="gradient0-6">
        <stop
           id="stop6791"
           stop-color="#ffcc99"
           offset="0" />
        <stop
           id="stop6793"
           stop-color="#bd8752"
           offset="1" />
      </linearGradient>
      <path
         id="path6795"
         transform="translate(-4,0)"
         d="M 10,32 34,44 58,22 34,12 10,32 Z"
         style="fill:url(#gradient0-6)"
         inkscape:connector-curvature="0" />
      <linearGradient
         y2="-7.04"
         x2="36.419998"
         y1="7.2600002"
         x1="7.8000002"
         gradientUnits="userSpaceOnUse"
         id="gradient1-5">
        <stop
           id="stop6798"
           stop-color="#996633"
           offset="0.4886" />
        <stop
           id="stop6800"
           stop-color="#b78759"
           offset="0.7537" />
      </linearGradient>
      <path
         id="path6802"
         transform="translate(-4,0)"
         d="M 49.02,27.51 54.33,22.64 34.34,14.31 13.62,31.57 18.63,34.08 34,20 49.02,27.51 Z"
         style="fill:url(#gradient1-5)"
         inkscape:connector-curvature="0" />
      <linearGradient
         y2="14.77"
         x2="57.380001"
         y1="4.8699999"
         x1="49.939999"
         gradientUnits="userSpaceOnUse"
         id="gradient2-9">
        <stop
           id="stop6805"
           stop-color="#c88c51"
           offset="0" />
        <stop
           id="stop6807"
           stop-color="#ffcc99"
           offset="1" />
      </linearGradient>
      <path
         id="path6809"
         transform="translate(-4,0)"
         d="M 49.02,27.51 33.66,41.59 18.63,34.08 34,20 49.02,27.51 Z"
         style="fill:url(#gradient2-9)"
         inkscape:connector-curvature="0" />
      <linearGradient
         y2="69.550003"
         x2="49.209999"
         y1="49.07"
         x1="73.800003"
         gradientUnits="userSpaceOnUse"
         id="gradient3-7">
        <stop
           id="stop6812"
           stop-color="#996633"
           offset="0" />
        <stop
           id="stop6814"
           stop-color="#683a0e"
           offset="1" />
      </linearGradient>
      <path
         id="path6816"
         transform="translate(-4,0)"
         d="M 34,56 58,32 58,22 34,44 34,56 Z"
         style="fill:url(#gradient3-7)"
         inkscape:connector-curvature="0" />
      <path
         id="path6818"
         transform="translate(8,-12)"
         d="M 38,37 38,22 22,15 22,35 33.49,40.74 38,37 Z"
         style="fill:none;stroke:#010000;stroke-width:4;stroke-linecap:square"
         inkscape:connector-curvature="0" />
      <linearGradient
         y2="20.559999"
         x2="33.119999"
         y1="36.560001"
         x1="25.120001"
         gradientUnits="userSpaceOnUse"
         id="gradient4">
        <stop
           id="stop6821"
           stop-color="#4b4116"
           offset="0" />
        <stop
           id="stop6823"
           stop-color="#bab088"
           offset="0.7424" />
        <stop
           id="stop6825"
           stop-color="#fcf8e8"
           offset="1" />
      </linearGradient>
      <path
         id="path6827"
         transform="translate(8,-12)"
         d="M 38,37 38,22 22,15 22,35 33.49,40.74 38,37 Z"
         style="fill:url(#gradient4)"
         inkscape:connector-curvature="0" />
      <path
         id="path6829"
         transform="translate(4,-8)"
         d="M 38,37 38,22 22,15 22,35 33.49,40.74 38,37 Z"
         style="fill:none;stroke:#010000;stroke-width:4;stroke-linecap:square"
         inkscape:connector-curvature="0" />
      <linearGradient
         y2="20.559999"
         x2="33.119999"
         y1="36.560001"
         x1="25.120001"
         gradientUnits="userSpaceOnUse"
         id="gradient5">
        <stop
           id="stop6832"
           stop-color="#4b4116"
           offset="0" />
        <stop
           id="stop6834"
           stop-color="#bab088"
           offset="0.7424" />
        <stop
           id="stop6836"
           stop-color="#fcf8e8"
           offset="1" />
      </linearGradient>
      <path
         id="path6838"
         transform="translate(4,-8)"
         d="M 38,37 38,22 22,15 22,35 33.49,40.74 38,37 Z"
         style="fill:url(#gradient5)"
         inkscape:connector-curvature="0" />
      <path
         id="path6840"
         transform="translate(0,-4)"
         d="M 38,37 38,22 22,15 22,35 33.49,40.74 38,37 Z"
         style="fill:none;stroke:#010000;stroke-width:4;stroke-linecap:square"
         inkscape:connector-curvature="0" />
      <linearGradient
         y2="20.559999"
         x2="33.119999"
         y1="36.560001"
         x1="25.120001"
         gradientUnits="userSpaceOnUse"
         id="gradient6">
        <stop
           id="stop6843"
           stop-color="#4b4116"
           offset="0" />
        <stop
           id="stop6845"
           stop-color="#bab088"
           offset="0.7424" />
        <stop
           id="stop6847"
           stop-color="#fcf8e8"
           offset="1" />
      </linearGradient>
      <path
         id="path6849"
         transform="translate(0,-4)"
         d="M 38,37 38,22 22,15 22,35 33.49,40.74 38,37 Z"
         style="fill:url(#gradient6)"
         inkscape:connector-curvature="0" />
      <path
         id="path6851"
         transform="translate(-4,0)"
         d="M 38,37 38,22 22,15 22,35 33.49,40.74 38,37 Z"
         style="fill:none;stroke:#010000;stroke-width:4;stroke-linecap:square"
         inkscape:connector-curvature="0" />
      <linearGradient
         y2="20.559999"
         x2="33.119999"
         y1="36.560001"
         x1="25.120001"
         gradientUnits="userSpaceOnUse"
         id="gradient7">
        <stop
           id="stop6854"
           stop-color="#4b4116"
           offset="0" />
        <stop
           id="stop6856"
           stop-color="#bab088"
           offset="0.7424" />
        <stop
           id="stop6858"
           stop-color="#fcf8e8"
           offset="1" />
      </linearGradient>
      <path
         id="path6860"
         transform="translate(-4,0)"
         d="M 38,37 38,22 22,15 22,35 33.49,40.74 38,37 Z"
         style="fill:url(#gradient7)"
         inkscape:connector-curvature="0" />
      <path
         id="path6862"
         transform="translate(-4,0)"
         d="M 6,18 6,46 34,60 36,58 36,28 8,16 6,18 Z"
         style="fill:none;stroke:#010000;stroke-width:4"
         inkscape:connector-curvature="0" />
      <linearGradient
         y2="24.51"
         x2="50.689999"
         y1="-2.9200001"
         x1="34.23"
         gradientUnits="userSpaceOnUse"
         id="gradient8">
        <stop
           id="stop6865"
           stop-color="#ffe6ce"
           offset="0" />
        <stop
           id="stop6867"
           stop-color="#ffcc99"
           offset="1" />
      </linearGradient>
      <path
         id="path6869"
         transform="translate(-4,0)"
         d="M 6,18 34,30 36,28 8,16 6,18 Z"
         style="fill:url(#gradient8)"
         inkscape:connector-curvature="0" />
      <linearGradient
         y2="40.91"
         x2="60.279999"
         y1="14.6"
         x1="42.07"
         gradientUnits="userSpaceOnUse"
         id="gradient9">
        <stop
           id="stop6872"
           stop-color="#ad8a67"
           offset="0" />
        <stop
           id="stop6874"
           stop-color="#7e4e1e"
           offset="1" />
      </linearGradient>
      <path
         id="path6876"
         transform="translate(-4,0)"
         d="m 34,60 2,-2 0,-30 -2,2 0,30 z"
         style="fill:url(#gradient9)"
         inkscape:connector-curvature="0" />
      <linearGradient
         y2="43.57"
         x2="47.240002"
         y1="12.64"
         x1="39.029999"
         gradientUnits="userSpaceOnUse"
         id="gradient10">
        <stop
           id="stop6879"
           stop-color="#eeceae"
           offset="0" />
        <stop
           id="stop6881"
           stop-color="#cc9966"
           offset="1" />
      </linearGradient>
      <path
         id="path6883"
         transform="translate(-4,0)"
         d="M 6,46 34,60 34,30 6,18 6,46 Z"
         style="fill:url(#gradient10)"
         inkscape:connector-curvature="0" />
      <path
         id="path6885"
         transform="translate(-2,4)"
         d="m 12,32 16,7 0,5 -16,-8 0,-4 z"
         style="fill:#996633"
         inkscape:connector-curvature="0" />
      <path
         id="path6887"
         transform="translate(-4,0)"
         d="m 12,32 16,7 0,5 -16,-8 0,-4 z"
         style="fill:#010000"
         inkscape:connector-curvature="0" />
    </g>
  </g>
  <g
     id="g6860"
     transform="matrix(0.76682572,0,0,0.76682572,15.689873,14.738522)">
    <path
       style="fill:#000000"
       d="m 20.94,41.88 c -4.38,2.2 -18.6,9.89 -18.14,16.13 0.11,1.45 0.96,2.63 2.38,3.35 l 0.99,0.38 c 6.41,2.01 21.16,-2.7 32.41,-8.38 4.38,-2.21 18.6,-9.89 18.13,-16.14 -0.11,-1.44 -0.95,-2.63 -2.38,-3.34 L 53.35,33.5 c -6.41,-2.01 -21.16,2.69 -32.41,8.38 z"
       id="path36"
       inkscape:connector-curvature="0" />
    <path
       style="fill:#000000;fill-opacity:0.32940004"
       d="m 22.92,42.87 c -4.38,2.2 -18.6,9.9 -18.13,16.13 0.11,1.45 0.95,2.63 2.38,3.35 l 0.99,0.39 c 6.4,2 21.15,-2.71 32.4,-8.39 4.38,-2.21 18.6,-9.89 18.14,-16.13 -0.11,-1.44 -0.95,-2.63 -2.38,-3.34 l -0.99,-0.39 c -6.4,-2.01 -21.16,2.69 -32.41,8.38 z"
       id="path38"
       inkscape:connector-curvature="0" />
    <path
       style="fill:#ffcb00"
       d="M 54.74,37.37 C 54.68,36.65 54.26,36.06 53.45,35.65 53.24,35.55 53,35.47 52.75,35.39 47.72,33.81 34.29,37.35 21.83,43.65 11.2,49.01 4.54,54.74 4.78,57.87 c 0.06,0.71 0.47,1.3 1.29,1.71 0.21,0.1 0.44,0.19 0.7,0.27 5.03,1.58 18.45,-1.96 30.92,-8.26 C 48.32,46.22 54.97,40.5 54.74,37.37 Z"
       id="path40"
       inkscape:connector-curvature="0" />
    <path
       style="fill:#ffff00"
       d="M 21.83,43.65 C 11.2,49.01 4.54,54.74 4.78,57.87 c 0.06,0.71 0.47,1.3 1.29,1.71 0.21,0.1 0.44,0.19 0.7,0.27 -0.04,-0.48 0.09,-1.03 0.37,-1.62 1.54,-3.26 7.69,-8.06 16.67,-12.6 10.85,-5.48 22.43,-8.87 28.57,-8.62 0.28,-0.59 0.41,-1.14 0.37,-1.62 -5.03,-1.58 -18.46,1.96 -30.92,8.26 z"
       id="path42"
       inkscape:connector-curvature="0" />
    <path
       style="fill:#ff9800"
       d="m 54.74,37.37 c -0.06,-0.72 -0.48,-1.31 -1.29,-1.72 -0.21,-0.1 -0.45,-0.18 -0.7,-0.26 0.04,0.48 -0.09,1.03 -0.37,1.62 C 50.84,40.27 44.69,45.06 35.7,49.6 24.86,55.08 13.28,58.48 7.14,58.23 6.86,58.82 6.73,59.37 6.77,59.85 11.8,61.43 25.23,57.89 37.69,51.59 48.32,46.22 54.97,40.5 54.74,37.37 Z"
       id="path44"
       inkscape:connector-curvature="0" />
    <path
       style="fill:#cb6600"
       d="m 27.77,49.44 -5.56,5.56 0.77,0 5.68,0.61 c 2.98,-1.15 6.03,-2.51 9.03,-4.02 1.02,-0.52 2,-1.04 2.94,-1.56 l -4.59,-0.59 -8.27,0 z"
       id="path46"
       inkscape:connector-curvature="0" />
    <path
       style="fill:#cb6600"
       d="m 48.44,41.66 -5.89,5.89 1.69,0.39 c 3.16,-1.96 5.72,-3.88 7.51,-5.61 l -3.31,-0.67 z"
       id="path48"
       inkscape:connector-curvature="0" />
    <path
       style="fill:#000000"
       d="m 16.45,2.55 -2.57,2.57 0,5.02 c 0,0 12.04,6.02 13.89,6.95 0,1.42 0,3.88 0,4.9 -1.03,1.03 -9.92,9.93 -9.92,9.93 0,0 0,12.43 0,13.88 -0.58,0.59 -1.98,1.99 -1.98,1.99 l 0,4.03 6.34,3.18 5.56,-5.56 c 0,0 0,-11.46 0,-12.91 0.54,-0.53 2.03,-2.03 3.97,-3.97 0,1.51 0,4.1 0,4.1 0,0 2.51,2.01 3.98,3.19 -0.14,0.14 -1.82,1.81 -1.82,1.81 l 3.11,3.12 5.54,2.77 5.89,-5.89 c 0,0 -5.83,-5.82 -6.78,-6.77 0,-1.13 0,-7.18 0,-10.86 3.32,1.66 10.32,5.16 10.32,5.16 l 3.57,-3.57 0,-5.03 c 0,0 -10.55,-5.27 -10.85,-5.43 -0.26,-0.19 -3.97,-2.97 -3.97,-2.97 L 32.44,8.04 c 0,0 -3.59,-0.9 -3.97,-1 C 28.09,6.86 17.46,1.54 17.46,1.54 l -1.01,1.01 z"
       id="path50"
       inkscape:connector-curvature="0" />
    <path
       style="fill:#800000"
       d="m 43.65,16.86 -3.97,-2.98 -7.94,-3.96 -3.97,-1 -9.92,-4.96 -1.98,1.99 0,2.97 13.89,6.95 0,6.94 -9.92,9.92 0,13.89 -1.99,1.99 0,1.98 3.97,1.99 3.97,-3.97 0,-12.9 7.94,-7.94 0,7.94 4.96,3.97 -1.99,1.98 1.49,1.49 3.97,1.99 3.47,-3.48 -5.95,-5.95 0,-14.88 11.9,5.95 1.99,-1.98 0,-2.98 -9.92,-4.96 z"
       id="path52"
       inkscape:connector-curvature="0" />
    <path
       style="fill:#cb9866"
       d="m 25.79,48.61 0,-12.9 2.48,-2.48 0,-2.98 -2.48,2.48 -1.98,1.99 0,13.89 -1.99,1.98 0,1.99 3.97,-3.97 z"
       id="path54"
       inkscape:connector-curvature="0" />
    <path
       style="fill:#ffcb98"
       d="m 17.85,48.61 3.97,1.98 0,1.99 -3.97,-1.99 0,-1.98 z"
       id="path56"
       inkscape:connector-curvature="0" />
    <path
       style="fill:#ffe5cb"
       d="m 17.85,48.61 1.99,-1.99 3.97,1.99 -1.99,1.98 -3.97,-1.98 z"
       id="path58"
       inkscape:connector-curvature="0" />
    <path
       style="fill:#ffcb98"
       d="m 19.84,32.73 3.97,1.99 0,13.89 -3.97,-1.99 0,-13.89 z"
       id="path60"
       inkscape:connector-curvature="0" />
    <path
       style="fill:#ffe5cb"
       d="m 19.84,32.73 4.46,-4.46 3.97,1.98 -4.46,4.47 -3.97,-1.99 z"
       id="path62"
       inkscape:connector-curvature="0" />
    <path
       style="fill:#cb9866"
       d="m 37.69,37.69 4.97,3.97 -3.97,-1.98 -4.96,-3.97 3.96,1.98 z"
       id="path64"
       inkscape:connector-curvature="0" />
    <path
       style="fill:#ffcb98"
       d="m 36.7,41.66 1.99,-1.98 3.97,1.98 -1.99,1.99 -3.97,-1.99 z"
       id="path66"
       inkscape:connector-curvature="0" />
    <path
       style="fill:#cb9866"
       d="m 38.19,43.15 -1.49,-1.49 3.97,1.99 1.49,1.49 -3.97,-1.99 z"
       id="path68"
       inkscape:connector-curvature="0" />
    <path
       style="fill:#ffcb98"
       d="m 33.73,31.74 3.96,1.99 0,3.96 -3.96,-1.98 0,-3.97 z"
       id="path70"
       inkscape:connector-curvature="0" />
    <path
       style="fill:#cb9866"
       d="m 39.68,35.71 0,-3.97 -1.99,1.99 0,3.96 4.97,3.97 -1.99,1.99 1.49,1.49 1.98,-1.99 1.49,-1.49 -5.95,-5.95 z"
       id="path72"
       inkscape:connector-curvature="0" />
    <path
       style="fill:#980000"
       d="m 37.69,26.78 1.99,-1.98 0,6.13 -1.99,1.99 0,-6.14 z"
       id="path74"
       inkscape:connector-curvature="0" />
    <path
       style="fill:#e03333"
       d="m 33.73,24.8 3.96,1.98 0,6.14 -3.96,-1.99 0,-6.13 z"
       id="path76"
       inkscape:connector-curvature="0" />
    <path
       style="fill:#980000"
       d="m 28.86,29.66 4.87,-4.86 0,2.97 -4.87,4.87 0,-2.98 z"
       id="path78"
       inkscape:connector-curvature="0" />
    <path
       style="fill:#d80000"
       d="m 24.89,27.68 4.87,-4.87 3.97,1.99 -4.87,4.86 -3.97,-1.98 z"
       id="path80"
       inkscape:connector-curvature="0" />
    <path
       style="fill:#980000"
       d="m 37.69,15.87 1.99,-1.99 0,10.92 -1.99,1.98 0,-10.91 z"
       id="path82"
       inkscape:connector-curvature="0" />
    <path
       style="fill:#e00000"
       d="m 29.76,11.9 7.94,3.97 0,10.91 -7.94,-3.97 0,-10.91 z"
       id="path84"
       inkscape:connector-curvature="0" />
    <path
       style="fill:#ff3333"
       d="m 37.69,15.87 1.99,-1.99 -7.94,-3.96 -1.98,1.98 7.93,3.97 z"
       id="path86"
       inkscape:connector-curvature="0" />
    <path
       style="fill:url(#gradient2)"
       d="m 25.79,10.91 0,2.97 -9.92,-4.96 0,-2.97 9.92,4.96 z"
       id="path93"
       inkscape:connector-curvature="0" />
    <path
       style="fill:#ffe5cb"
       d="m 25.79,10.91 1.98,-1.99 -9.92,-4.96 -1.98,1.99 9.92,4.96 z"
       id="path95"
       inkscape:connector-curvature="0" />
    <path
       style="fill:#e00000"
       d="m 29.76,11.9 0,3.97 -3.29,-1.65 0,-3.15 3.29,0.83 z"
       id="path97"
       inkscape:connector-curvature="0" />
    <path
       style="fill:#ff3333"
       d="m 29.76,11.9 1.98,-1.98 -3.28,-0.83 -1.99,1.98 3.29,0.83 z"
       id="path99"
       inkscape:connector-curvature="0" />
    <path
       style="fill:#cb9866"
       d="m 51.58,23.81 1.99,-1.99 0,2.98 -1.99,1.98 0,-2.97 z"
       id="path101"
       inkscape:connector-curvature="0" />
    <path
       style="fill:#ffcb98"
       d="m 51.58,23.81 0,2.97 -9.92,-4.96 0,-2.98 9.92,4.97 z"
       id="path103"
       inkscape:connector-curvature="0" />
    <path
       style="fill:#ffe5cb"
       d="m 51.58,23.81 1.99,-1.99 -9.92,-4.96 -1.99,1.98 9.92,4.97 z"
       id="path105"
       inkscape:connector-curvature="0" />
    <path
       style="fill:#e00000"
       d="m 37.69,15.87 0,3.97 3.51,1.74 0,-3.08 -3.51,-2.63 z"
       id="path107"
       inkscape:connector-curvature="0" />
    <path
       style="fill:#ff3333"
       d="m 37.69,15.87 1.99,-1.99 3.5,2.63 -1.98,1.99 -3.51,-2.63 z"
       id="path109"
       inkscape:connector-curvature="0" />
    <path
       style="fill:#980000"
       d="m 39.68,13.88 -1.67,-0.83 c -0.98,0.53 -2.09,0.83 -3.29,0.83 -0.42,0 -0.82,-0.04 -1.22,-0.11 -1.34,-0.24 -2.54,-0.86 -3.5,-1.75 0.05,0.06 0.1,0.12 0.16,0.18 1.3,1.3 3.16,2.14 5.14,2.46 1.85,0.32 3.82,0.17 5.54,-0.49 l -1.16,-0.29 z"
       id="path111"
       inkscape:connector-curvature="0" />
    <path
       style="fill:#000000"
       d="m 34.72,0 c 3.83,0 6.94,3.1 6.94,6.94 0,3.83 -3.11,6.94 -6.94,6.94 -3.83,0 -6.95,-3.11 -6.95,-6.94 C 27.77,3.1 30.89,0 34.72,0 Z"
       id="path113"
       inkscape:connector-curvature="0" />
    <path
       style="fill:url(#gradient3)"
       d="m 37.69,5.95 c 0,0 -0.49,2.48 -0.99,2.48 0,0 -0.67,-1.8 -1.02,-1.77 -2.02,0.17 -4.14,-0.46 -5.5,-1.72 -0.27,0.6 -0.42,1.28 -0.42,2 0,2.73 2.22,4.96 4.96,4.96 1.63,0 3.07,-0.79 3.97,-2 0.32,-1.62 -0.5,-3.36 -1,-3.95 z"
       id="path122"
       inkscape:connector-curvature="0" />
  </g>
</svg>
