<?xml version="1.0" encoding="UTF-8" standalone="no"?>
<!DOCTYPE svg PUBLIC "-//W3C//DTD SVG 20010904//EN"
"http://www.w3.org/TR/2001/REC-SVG-20010904/DTD/svg10.dtd">
<!-- Created with Sodipodi ("http://www.sodipodi.com/") -->
<svg
   width="48pt"
   height="48pt"
   viewBox="0 0 64.707 48.176"
   overflow="visible"
   enable-background="new 0 0 64.707 48.176"
   xml:space="preserve"
   xmlns="http://www.w3.org/2000/svg"
   xmlns:xml="http://www.w3.org/XML/1998/namespace"
   xmlns:sodipodi="http://sodipodi.sourceforge.net/DTD/sodipodi-0.dtd"
   xmlns:xlink="http://www.w3.org/1999/xlink"
   id="svg153"
   sodipodi:version="0.32pre"
   sodipodi:docname="/home/cschalle/gnome-themes-extras/Wasp/icons/scalable/devices/gnome-dev-floppy.svg"
   sodipodi:docbase="/home/cschalle/gnome-themes-extras/Wasp/icons/scalable/devices">
  <defs
     id="defs239" />
  <sodipodi:namedview
     id="base" />
  <metadata
     id="metadata154">
    <sfw>
      <slices />
      <sliceSourceBounds
         y="395.412"
         x="264.146"
         width="64.707"
         height="48.176"
         bottomLeftOrigin="true" />
    </sfw>
  </metadata>
  <g
     id="Layer_1"
     stroke="#000000">
    <g
       id="Layer_1_2_">
      <path
         stroke="none"
         d="M25.01,0c-0.691,0.118-1.318,0.471-1.437,0.54l-0.148,0.087L0,22.515l0.313,9.108     c0,0,3.057,1.613,4.124,2.178c0,0.125-0.002,0.293-0.002,0.293l17.271,9.136c0,0,0.557,0.071,0.79,0.102     c0.453,0.239,4.991,2.634,4.991,2.634c0.595,0.325,1.494,0.701,2.286,0.585c0.746-0.112,1.499-0.653,1.881-0.966l0.042-0.034     l24.672-23.228c-0.025,0.051,0.615-0.842,0.615-0.842c0-0.001,0.199-1.026,0.199-1.026v-2.722     c-0.032-1.042-0.703-1.702-0.907-1.882l-0.155-0.136l-6.043-2.958c0,0-0.923,0.137-1.316,0.195     c-0.831-0.439-16.237-8.589-17.414-9.212c-0.048-0.229-0.246-1.184-0.246-1.184l-4.406-2.406l-0.143-0.045     C26.375,0.046,25.739-0.127,25.01,0z"
         id="path157" />
      <path
         opacity="0.2"
         stroke="none"
         d="M31.196,45.712l-0.042,0.034c-0.383,0.313-1.734,0.612-2.227,0.797l9.491,1.633l2.246-0.815     l23.715-22.395c0.323-0.671,0.617-7.412-0.194-6.297l-8.513-2.481c0.309-1.556,0.812,5.453,0.811,5.454L31.196,45.712z"
         id="path158" />
      <linearGradient
         id="XMLID_1_"
         gradientUnits="userSpaceOnUse"
         x1="-184.9365"
         y1="398.1396"
         x2="-227.4647"
         y2="400.6587"
         gradientTransform="matrix(1 0 0 -1 234.2813 421.3516)">
        <stop
           offset="0"
           style="stop-color:#808080"
           id="stop160" />
        <stop
           offset="1"
           style="stop-color:#4D4D4D"
           id="stop161" />
      </linearGradient>
      <path
         fill="url(#XMLID_1_)"
         stroke="none"
         d="M25.274,1.537c0.411-0.073,0.804,0.053,0.804,0.053l3.641,1.989l0.249,1.196     l18.514,9.794l1.343-0.199l5.423,2.655c0,0,0.361,0.315,0.374,0.704c0.011,0.345-0.329,0.77-0.329,0.77L30.666,41.657     c0,0-0.692,0.566-1.121,0.631c-0.441,0.064-1.331-0.421-1.331-0.421L1.841,27.947L1.583,23.17L24.364,1.885     C24.364,1.885,24.829,1.612,25.274,1.537z"
         id="path165" />
      <path
         fill="#FFFFFF"
         stroke="none"
         d="M48.482,14.569L29.969,4.774L19.014,15.063l18.511,9.794L48.482,14.569z"
         id="path166" />
      <path
         fill="#3333FF"
         stroke="none"
         d="M48.482,14.569L29.969,4.774l-2.658,2.645l18.511,9.793L48.482,14.569z"
         id="path167" />
      <path
         fill="#FF0000"
         stroke="none"
         d="M37.347,8.674l-7.378-3.9l-2.658,2.645l7.374,3.899L37.347,8.674z"
         id="path168" />
      <path
         opacity="0.5"
         fill="#FFFFFF"
         stroke="none"
         d="M17.692,15.303l19.833,10.455l12.3-11.387l-1.343,0.199L37.525,24.856     l-19.409-10.21L17.692,15.303z"
         id="path169" />
      <path
         stroke="none"
         d="M52.334,18.468l-2.942-1.555l-1.742,1.636l2.943,1.555L52.334,18.468z"
         id="path170" />
      <linearGradient
         id="XMLID_2_"
         gradientUnits="userSpaceOnUse"
         x1="-183.4863"
         y1="403.5439"
         x2="-183.7015"
         y2="403.1714"
         gradientTransform="matrix(1 0 0 -1 234.2813 421.3516)">
        <stop
           offset="0"
           style="stop-color:#A6A6A6"
           id="stop172" />
        <stop
           offset="0.4478"
           style="stop-color:#7C7C7C"
           id="stop173" />
        <stop
           offset="1"
           style="stop-color:#4D4D4D"
           id="stop174" />
      </linearGradient>
      <path
         fill="url(#XMLID_2_)"
         stroke="none"
         d="M49.392,16.913l2.942,1.555l-0.398,0.384l-2.541-1.343L49.392,16.913z"
         id="path180" />
      <path
         fill="#2F2F2F"
         stroke="none"
         d="M27.725,4.685L24.78,3.127l-1.744,1.638l2.945,1.556L27.725,4.685z"
         id="path181" />
      <path
         fill="#2F2F2F"
         stroke="none"
         d="M19.014,15.063L29.969,4.774l-0.253-1.197l-11.753,11.03L19.014,15.063z"
         id="path182" />
      <path
         opacity="0.3"
         stroke="none"
         d="M15.363,33.167l-5.445-2.843l5.981-5.664h0.931l-5.981,5.664l5.445,2.843"
         id="path183" />
      <linearGradient
         id="XMLID_3_"
         gradientUnits="userSpaceOnUse"
         x1="-206.4907"
         y1="384.1582"
         x2="-230.0821"
         y2="385.5556"
         gradientTransform="matrix(1 0 0 -1 234.2813 421.3516)">
        <stop
           offset="0"
           style="stop-color:#999999"
           id="stop185" />
        <stop
           offset="1"
           style="stop-color:#666666"
           id="stop186" />
      </linearGradient>
      <path
         fill="url(#XMLID_3_)"
         stroke="none"
         d="M1.841,30.666l26.374,13.92c0,0,0.889,0.485,1.331,0.421     c0.429-0.064,1.121-0.63,1.121-0.63v-2.72c0,0-0.692,0.566-1.121,0.631c-0.441,0.064-1.331-0.421-1.331-0.421L1.841,27.947"
         id="path190" />
      <linearGradient
         id="XMLID_4_"
         gradientUnits="userSpaceOnUse"
         x1="-182.0859"
         y1="389.416"
         x2="-201.7071"
         y2="390.5782"
         gradientTransform="matrix(1 0 0 -1 234.2813 421.3516)">
        <stop
           offset="0"
           style="stop-color:#262626"
           id="stop192" />
        <stop
           offset="1"
           style="stop-color:#404040"
           id="stop193" />
      </linearGradient>
      <path
         fill="url(#XMLID_4_)"
         stroke="none"
         d="M55.541,18.079c-0.066,0.155-0.152,0.279-0.201,0.35v-0.003L30.666,41.657     c0,0-0.692,0.566-1.121,0.631c-0.441,0.064-0.441,2.783,0,2.719c0.429-0.064,1.121-0.63,1.121-0.63l24.632-23.191v0.029     c0,0,0.165-0.149,0.248-0.345c0.08-0.187,0.076-0.422,0.076-0.422v-2.719C55.621,17.729,55.612,17.909,55.541,18.079z"
         id="path197" />
      <linearGradient
         id="XMLID_5_"
         gradientUnits="userSpaceOnUse"
         x1="-206.1064"
         y1="378.0195"
         x2="-203.6006"
         y2="378.0195"
         gradientTransform="matrix(1 0 0 -1 234.2813 421.3516)">
        <stop
           offset="0"
           style="stop-color:#999999"
           id="stop199" />
        <stop
           offset="1"
           style="stop-color:#404040"
           id="stop200" />
      </linearGradient>
      <path
         fill="url(#XMLID_5_)"
         stroke="none"
         d="M28.215,44.586c0,0,0.889,0.485,1.331,0.421c0.429-0.064,1.121-0.63,1.121-0.63     v-2.72c0,0-0.692,0.566-1.121,0.631c-0.441,0.064-1.331-0.421-1.331-0.421V44.586z"
         id="path204" />
      <path
         opacity="0.3"
         stroke="none"
         d="M23.011,41.824l-0.826-0.105v-0.255l0.04-2.777l7.799-7.337l-0.039-0.867l-15.571-8.239     l16.152,8.096c0,0,0.388,0.366,0.434,0.737c0.048,0.369-0.247,0.743-0.247,0.743l-7.709,7.238L23.011,41.824z"
         id="path205" />
      <linearGradient
         id="XMLID_6_"
         gradientUnits="userSpaceOnUse"
         x1="-235.918"
         y1="388.9072"
         x2="-198.493"
         y2="389.7978"
         gradientTransform="matrix(1 0 0 -1 234.2813 421.3516)">
        <stop
           offset="0"
           style="stop-color:#FFFFFF"
           id="stop207" />
        <stop
           offset="0.5251"
           style="stop-color:#ADADAD"
           id="stop208" />
        <stop
           offset="0.6536"
           style="stop-color:#FFFFFF"
           id="stop209" />
        <stop
           offset="0.9441"
           style="stop-color:#ADADAD"
           id="stop210" />
      </linearGradient>
      <path
         fill="url(#XMLID_6_)"
         stroke="none"
         d="M22.185,41.464L6.001,32.901l0.02-2.758l7.903-7.439c0,0,0.274-0.18,0.564-0.229     c0.235-0.041,0.495,0.049,0.495,0.049l14.892,7.898c0,0,0.344,0.158,0.383,0.407c0.037,0.212-0.234,0.519-0.234,0.519     l-7.799,7.338L22.185,41.464z M15.363,33.167l5.969-5.649L15.9,24.661l-5.981,5.663L15.363,33.167z"
         id="path218" />
      <linearGradient
         id="XMLID_7_"
         gradientUnits="userSpaceOnUse"
         x1="-211.3057"
         y1="383.6934"
         x2="-229.3371"
         y2="387.2053"
         gradientTransform="matrix(1 0 0 -1 234.2813 421.3516)">
        <stop
           offset="0"
           style="stop-color:#FFFFFF"
           id="stop220" />
        <stop
           offset="0.5251"
           style="stop-color:#ADADAD"
           id="stop221" />
        <stop
           offset="0.6536"
           style="stop-color:#FFFFFF"
           id="stop222" />
        <stop
           offset="1"
           style="stop-color:#ADADAD"
           id="stop223" />
      </linearGradient>
      <path
         fill="url(#XMLID_7_)"
         stroke="none"
         d="M22.225,38.687L6.021,30.144l-0.02,3.014l16.184,8.562L22.225,38.687z"
         id="path231" />
      <path
         opacity="0.6"
         fill="#FFFFFF"
         stroke="none"
         d="M22.238,38.688l0.417-0.391L6.452,29.755l-0.405,0.389l-0.009,0.468     l16.184,8.563L22.238,38.688z"
         id="path232" />
      <path
         opacity="0.6"
         fill="#FFFFFF"
         stroke="none"
         d="M29.214,42.392c0.71-0.129,1.422-0.452,1.452-0.734     c-1.452,0.22-1.548,0.017-1.548,0.017L1.883,27.272l-0.042,0.675l-0.01,0.468l26.366,13.938     C28.198,42.353,28.577,42.51,29.214,42.392z"
         id="path233" />
      <path
         fill="#D9D9D9"
         stroke="none"
         d="M20.738,15.09l16.24,8.568l0.541-0.487l-16.239-8.567L20.738,15.09z"
         id="path234" />
      <path
         fill="#D9D9D9"
         stroke="none"
         d="M22.641,13.494l16.24,8.567l0.54-0.486l-16.239-8.567L22.641,13.494z"
         id="path235" />
      <path
         fill="#D9D9D9"
         stroke="none"
         d="M24.543,11.897l16.24,8.567l0.54-0.486l-16.24-8.567L24.543,11.897z"
         id="path236" />
      <path
         fill="#D9D9D9"
         stroke="none"
         d="M26.445,10.3l16.239,8.567l0.542-0.486l-16.24-8.567L26.445,10.3z"
         id="path237" />
    </g>
  </g>
</svg>
