<?xml version="1.0" encoding="UTF-8" standalone="no"?>
<svg
   xmlns:dc="http://purl.org/dc/elements/1.1/"
   xmlns:cc="http://creativecommons.org/ns#"
   xmlns:rdf="http://www.w3.org/1999/02/22-rdf-syntax-ns#"
   xmlns:svg="http://www.w3.org/2000/svg"
   xmlns="http://www.w3.org/2000/svg"
   xmlns:xlink="http://www.w3.org/1999/xlink"
   xmlns:sodipodi="http://sodipodi.sourceforge.net/DTD/sodipodi-0.dtd"
   xmlns:inkscape="http://www.inkscape.org/namespaces/inkscape"
   version="1.1"
   width="64"
   height="64"
   color-interpolation="linearRGB"
   id="svg2"
   inkscape:version="0.91 r13725"
   sodipodi:docname="folder-sound.svg">
  <metadata
     id="metadata44">
    <rdf:RDF>
      <cc:Work
         rdf:about="">
        <dc:format>image/svg+xml</dc:format>
        <dc:type
           rdf:resource="http://purl.org/dc/dcmitype/StillImage" />
        <dc:title></dc:title>
      </cc:Work>
    </rdf:RDF>
  </metadata>
  <defs
     id="defs42">
    <linearGradient
       id="linearGradient3670">
      <stop
         style="stop-color:#ffe600;stop-opacity:1;"
         offset="0"
         id="stop3672" />
      <stop
         style="stop-color:#ffa800;stop-opacity:1;"
         offset="1"
         id="stop3674" />
    </linearGradient>
    <inkscape:perspective
       sodipodi:type="inkscape:persp3d"
       inkscape:vp_x="0 : 32 : 1"
       inkscape:vp_y="0 : 1000 : 0"
       inkscape:vp_z="64 : 32 : 1"
       inkscape:persp3d-origin="32 : 21.333333 : 1"
       id="perspective46" />
    <linearGradient
       y2="47.07"
       x2="102.74"
       y1="8.5"
       x1="102.6"
       gradientUnits="userSpaceOnUse"
       id="gradient0">
      <stop
         id="stop11"
         stop-color="#face79"
         offset="0" />
      <stop
         id="stop13"
         stop-color="#bc4105"
         offset="1" />
    </linearGradient>
    <linearGradient
       y2="55.34"
       x2="103.39"
       y1="12.68"
       x1="103.24"
       gradientUnits="userSpaceOnUse"
       id="gradient1">
      <stop
         id="stop18"
         stop-color="#ffffff"
         offset="0" />
      <stop
         id="stop20"
         stop-color="#8e8e8e"
         offset="1" />
    </linearGradient>
    <linearGradient
       y2="12.94"
       x2="101.46"
       y1="-26.66"
       x1="78.34"
       gradientUnits="userSpaceOnUse"
       id="gradient2">
      <stop
         id="stop25"
         stop-color="#9a9a9a"
         offset="0" />
      <stop
         id="stop27"
         stop-color="#505050"
         offset="1" />
    </linearGradient>
    <linearGradient
       y2="51.29"
       x2="97.54"
       y1="9.59"
       x1="88.52"
       gradientUnits="userSpaceOnUse"
       id="gradient3">
      <stop
         id="stop32"
         stop-color="#ffe2ac"
         offset="0" />
      <stop
         id="stop34"
         stop-color="#f49806"
         offset="1" />
    </linearGradient>
    <linearGradient
       inkscape:collect="always"
       xlink:href="#gradient2"
       id="linearGradient2869"
       gradientUnits="userSpaceOnUse"
       x1="78.34"
       y1="-26.66"
       x2="101.46"
       y2="12.94" />
    <linearGradient
       inkscape:collect="always"
       xlink:href="#gradient1"
       id="linearGradient2872"
       gradientUnits="userSpaceOnUse"
       x1="103.24"
       y1="12.68"
       x2="103.39"
       y2="55.34" />
    <linearGradient
       id="linearGradient900">
      <stop
         id="stop901"
         offset="0"
         style="stop-color:#000;stop-opacity:1;" />
      <stop
         id="stop902"
         offset="1"
         style="stop-color:#fff;stop-opacity:1;" />
    </linearGradient>
    <linearGradient
       id="linearGradient903"
       xlink:href="#linearGradient900" />
    <linearGradient
       id="linearGradient904"
       xlink:href="#linearGradient900" />
    <linearGradient
       id="linearGradient905"
       xlink:href="#linearGradient900" />
    <linearGradient
       id="linearGradient906"
       xlink:href="#linearGradient900" />
    <linearGradient
       id="linearGradient907"
       xlink:href="#linearGradient900" />
    <linearGradient
       y2="99.7109"
       x2="191.0391"
       y1="99.7109"
       x1="172.3457"
       gradientTransform="matrix(1.5709466,0,0,1.5709466,-68.341201,-138.0986)"
       gradientUnits="userSpaceOnUse"
       id="linearGradient2382"
       xlink:href="#XMLID_13_"
       inkscape:collect="always" />
    <linearGradient
       y2="100.71"
       x2="194.9375"
       y1="100.71"
       x1="170.4492"
       gradientTransform="matrix(1.5709466,0,0,1.5709466,-68.341201,-138.0986)"
       gradientUnits="userSpaceOnUse"
       id="linearGradient2380"
       xlink:href="#XMLID_12_"
       inkscape:collect="always" />
    <linearGradient
       y2="80.1768"
       x2="189.1348"
       y1="80.1768"
       x1="171.3809"
       gradientTransform="matrix(1.5709466,0,0,1.5709466,-68.341201,-138.0986)"
       gradientUnits="userSpaceOnUse"
       id="linearGradient2378"
       xlink:href="#XMLID_11_"
       inkscape:collect="always" />
    <linearGradient
       y2="81.1758"
       x2="193.2949"
       y1="81.1758"
       x1="169.2207"
       gradientTransform="matrix(1.5709466,0,0,1.5709466,-68.341201,-138.0986)"
       gradientUnits="userSpaceOnUse"
       id="linearGradient2376"
       xlink:href="#XMLID_10_"
       inkscape:collect="always" />
    <linearGradient
       y2="69.8423"
       x2="168.7969"
       y1="69.8423"
       x1="160.666"
       gradientTransform="matrix(1.5709466,0,0,1.5709466,-68.341201,-138.0986)"
       gradientUnits="userSpaceOnUse"
       id="linearGradient2374"
       xlink:href="#XMLID_9_"
       inkscape:collect="always" />
    <linearGradient
       y2="69.667"
       x2="171.8574"
       y1="69.667"
       x1="158.666"
       gradientTransform="matrix(1.5709466,0,0,1.5709466,-68.341201,-138.0986)"
       gradientUnits="userSpaceOnUse"
       id="linearGradient2372"
       xlink:href="#XMLID_8_"
       inkscape:collect="always" />
    <linearGradient
       y2="93.0645"
       x2="166.4863"
       y1="93.0645"
       x1="145.959"
       gradientTransform="matrix(1.5709466,0,0,1.5709466,-68.341201,-138.0986)"
       gradientUnits="userSpaceOnUse"
       id="linearGradient2370"
       xlink:href="#XMLID_7_"
       inkscape:collect="always" />
    <linearGradient
       y2="98.6406"
       x2="154.4531"
       y1="98.6406"
       x1="139.9121"
       gradientTransform="matrix(1.5709466,0,0,1.5709466,-68.341201,-138.0986)"
       gradientUnits="userSpaceOnUse"
       id="linearGradient2368"
       xlink:href="#XMLID_6_"
       inkscape:collect="always" />
    <linearGradient
       y2="105.7555"
       x2="141.1622"
       y1="96.0942"
       x1="131.501"
       gradientTransform="matrix(1.5709466,0,0,1.5709466,-68.341201,-138.0986)"
       gradientUnits="userSpaceOnUse"
       id="linearGradient2366"
       xlink:href="#XMLID_5_"
       inkscape:collect="always" />
    <radialGradient
       r="45.424"
       fy="994.0244"
       fx="223.2383"
       cy="994.0244"
       cx="223.2383"
       gradientTransform="matrix(2.1333454,-0.9771287,0.8197199,1.7897794,-1230.7106,-1528.965)"
       gradientUnits="userSpaceOnUse"
       id="radialGradient2364"
       xlink:href="#XMLID_4_"
       inkscape:collect="always" />
    <linearGradient
       y2="142.8498"
       x2="111.7876"
       y1="230.2852"
       x1="111.7876"
       gradientTransform="matrix(1.5709466,0,0,1.5709466,-68.341201,-138.0986)"
       gradientUnits="userSpaceOnUse"
       id="linearGradient2362"
       xlink:href="#XMLID_3_"
       inkscape:collect="always" />
    <linearGradient
       gradientTransform="matrix(1.5709466,0,0,1.5709466,-72.112385,-74.103341)"
       id="XMLID_13_"
       gradientUnits="userSpaceOnUse"
       x1="172.3457"
       y1="99.7109"
       x2="191.0391"
       y2="99.7109">
      <stop
         offset="0"
         style="stop-color:#FFAE00"
         id="stop3253" />
      <stop
         offset="1"
         style="stop-color:#FFF030"
         id="stop3254" />
    </linearGradient>
    <linearGradient
       gradientTransform="matrix(1.5709466,0,0,1.5709466,-72.112385,-74.103341)"
       id="XMLID_12_"
       gradientUnits="userSpaceOnUse"
       x1="170.4492"
       y1="100.71"
       x2="194.9375"
       y2="100.71">
      <stop
         offset="0"
         style="stop-color:#FF6D00"
         id="stop3246" />
      <stop
         offset="1"
         style="stop-color:#FF3300"
         id="stop3247" />
    </linearGradient>
    <linearGradient
       gradientTransform="matrix(1.5709466,0,0,1.5709466,-72.112385,-74.103341)"
       id="XMLID_11_"
       gradientUnits="userSpaceOnUse"
       x1="171.3809"
       y1="80.1768"
       x2="189.1348"
       y2="80.1768">
      <stop
         offset="0"
         style="stop-color:#FFAE00"
         id="stop3239" />
      <stop
         offset="1"
         style="stop-color:#FFF030"
         id="stop3240" />
    </linearGradient>
    <linearGradient
       gradientTransform="matrix(1.5709466,0,0,1.5709466,-72.112385,-74.103341)"
       id="XMLID_10_"
       gradientUnits="userSpaceOnUse"
       x1="169.2207"
       y1="81.1758"
       x2="193.2949"
       y2="81.1758">
      <stop
         offset="0"
         style="stop-color:#FF6D00"
         id="stop3232" />
      <stop
         offset="1"
         style="stop-color:#FF3300"
         id="stop3233" />
    </linearGradient>
    <linearGradient
       gradientTransform="matrix(1.5709466,0,0,1.5709466,-72.112385,-74.103341)"
       id="XMLID_9_"
       gradientUnits="userSpaceOnUse"
       x1="160.666"
       y1="69.8423"
       x2="168.7969"
       y2="69.8423">
      <stop
         offset="0"
         style="stop-color:#FFAE00"
         id="stop3225" />
      <stop
         offset="1"
         style="stop-color:#FFF030"
         id="stop3226" />
    </linearGradient>
    <linearGradient
       gradientTransform="matrix(1.5709466,0,0,1.5709466,-72.112385,-74.103341)"
       id="XMLID_8_"
       gradientUnits="userSpaceOnUse"
       x1="158.666"
       y1="69.667"
       x2="171.8574"
       y2="69.667">
      <stop
         offset="0"
         style="stop-color:#FF6D00"
         id="stop3218" />
      <stop
         offset="1"
         style="stop-color:#FF3300"
         id="stop3219" />
    </linearGradient>
    <linearGradient
       gradientTransform="matrix(1.5709466,0,0,1.5709466,-72.112385,-74.103341)"
       id="XMLID_7_"
       gradientUnits="userSpaceOnUse"
       x1="145.959"
       y1="93.0645"
       x2="166.4863"
       y2="93.0645">
      <stop
         offset="0"
         style="stop-color:#FF9200"
         id="stop3203" />
      <stop
         offset="0.264"
         style="stop-color:#FF0000"
         id="stop3204" />
      <stop
         offset="0.3747"
         style="stop-color:#FA0000"
         id="stop3205" />
      <stop
         offset="0.5089"
         style="stop-color:#EB0000"
         id="stop3206" />
      <stop
         offset="0.6554"
         style="stop-color:#D20000"
         id="stop3207" />
      <stop
         offset="0.8106"
         style="stop-color:#B00000"
         id="stop3208" />
      <stop
         offset="0.9711"
         style="stop-color:#850000"
         id="stop3209" />
      <stop
         offset="1"
         style="stop-color:#7C0000"
         id="stop3210" />
    </linearGradient>
    <linearGradient
       gradientTransform="matrix(1.5709466,0,0,1.5709466,-72.112385,-74.103341)"
       id="XMLID_6_"
       gradientUnits="userSpaceOnUse"
       x1="139.9121"
       y1="98.6406"
       x2="154.4531"
       y2="98.6406">
      <stop
         offset="0"
         style="stop-color:#BBBBBB"
         id="stop3196" />
      <stop
         offset="1"
         style="stop-color:#888888"
         id="stop3197" />
    </linearGradient>
    <linearGradient
       gradientTransform="matrix(1.5709466,0,0,1.5709466,-72.112385,-74.103341)"
       id="XMLID_5_"
       gradientUnits="userSpaceOnUse"
       x1="131.501"
       y1="96.0942"
       x2="141.1622"
       y2="105.7555">
      <stop
         offset="0"
         style="stop-color:#FFFFFF"
         id="stop3188" />
      <stop
         offset="1"
         style="stop-color:#000000"
         id="stop3189" />
    </linearGradient>
    <radialGradient
       id="XMLID_4_"
       cx="223.2383"
       cy="994.0244"
       r="45.424"
       fx="223.2383"
       fy="994.0244"
       gradientTransform="matrix(2.1333454,-0.9771287,0.8197199,1.7897794,-1234.4818,-1464.9697)"
       gradientUnits="userSpaceOnUse">
      <stop
         offset="0"
         style="stop-color:#FFFFFF"
         id="stop3180" />
      <stop
         offset="1"
         style="stop-color:#000000"
         id="stop3181" />
    </radialGradient>
    <linearGradient
       gradientTransform="matrix(1.5709466,0,0,1.5709466,-72.112385,-74.103341)"
       id="XMLID_3_"
       gradientUnits="userSpaceOnUse"
       x1="111.7876"
       y1="230.2852"
       x2="111.7876"
       y2="142.8498">
      <stop
         offset="0"
         style="stop-color:#FFFFFF"
         id="stop3166" />
      <stop
         offset="0.1019"
         style="stop-color:#FAFAFA"
         id="stop3167" />
      <stop
         offset="0.2256"
         style="stop-color:#EBEBEB"
         id="stop3168" />
      <stop
         offset="0.3606"
         style="stop-color:#D2D2D2"
         id="stop3169" />
      <stop
         offset="0.5037"
         style="stop-color:#B0B0B0"
         id="stop3170" />
      <stop
         offset="0.6532"
         style="stop-color:#848484"
         id="stop3171" />
      <stop
         offset="0.8081"
         style="stop-color:#4E4E4E"
         id="stop3172" />
      <stop
         offset="0.9646"
         style="stop-color:#0F0F0F"
         id="stop3173" />
      <stop
         offset="1"
         style="stop-color:#000000"
         id="stop3174" />
    </linearGradient>
    <inkscape:perspective
       id="perspective2950"
       inkscape:persp3d-origin="30 : 20 : 1"
       inkscape:vp_z="60 : 30 : 1"
       inkscape:vp_y="0 : 1000 : 0"
       inkscape:vp_x="0 : 30 : 1"
       sodipodi:type="inkscape:persp3d" />
    <linearGradient
       inkscape:collect="always"
       xlink:href="#linearGradient3670"
       id="linearGradient3676"
       x1="-3.5084746"
       y1="17.745762"
       x2="36.033897"
       y2="42.966103"
       gradientUnits="userSpaceOnUse" />
    <inkscape:perspective
       id="perspective33"
       inkscape:persp3d-origin="30 : 20 : 1"
       inkscape:vp_z="60 : 30 : 1"
       inkscape:vp_y="0 : 1000 : 0"
       inkscape:vp_x="0 : 30 : 1"
       sodipodi:type="inkscape:persp3d" />
    <inkscape:perspective
       sodipodi:type="inkscape:persp3d"
       inkscape:vp_x="0 : 32 : 1"
       inkscape:vp_y="0 : 1000 : 0"
       inkscape:vp_z="64 : 32 : 1"
       inkscape:persp3d-origin="32 : 21.333333 : 1"
       id="perspective2883" />
  </defs>
  <sodipodi:namedview
     pagecolor="#ffffff"
     bordercolor="#666666"
     borderopacity="1"
     objecttolerance="10"
     gridtolerance="10"
     guidetolerance="10"
     inkscape:pageopacity="0"
     inkscape:pageshadow="2"
     inkscape:window-width="936"
     inkscape:window-height="829"
     id="namedview40"
     showgrid="false"
     inkscape:zoom="2.3069877"
     inkscape:cx="0.60519909"
     inkscape:cy="5.0661525"
     inkscape:window-x="168"
     inkscape:window-y="185"
     inkscape:window-maximized="0"
     inkscape:current-layer="svg2" />
  <path
     id="path6"
     d="m 42,61 h 6 l 4,-4 h 4 l 6,-6 -14,-4 -6,14 z"
     style="fill:#010101;fill-opacity:0.39599998" />
  <path
     id="path8"
     d="M 3,15 13,41 42,59 60,12 48,10 44,12 26,8 24,13 16,11 15.91,19.2 3,15 z"
     style="fill:none;stroke:#000000;stroke-width:4" />
  <path
     id="path15"
     d="M 26,8 14,41 42,58 60,12 48,10 44,12 26,8 z"
     style="fill:#ffdb00;fill-opacity:1" />
  <path
     id="path22"
     d="M 16,11 V 41 L 42,57 49,22 16,11 z"
     style="fill:url(#linearGradient2872)" />
  <path
     id="path29"
     d="M 16,11 49,22 42,57 52,20.37 16,11 z"
     style="fill:url(#linearGradient2869)" />
  <path
     id="path36"
     d="M 3,15 13,41 42,59 38,30 3,15 z"
     style="fill:url(#linearGradient3676);fill-opacity:1" />
  <path
     id="path38"
     d="M 3,15 38,30 42,59 40.5,28 3,15 z"
     style="fill:#a03d03" />
  <g
     style="color-interpolation:linearRGB"
     id="g9647"
     transform="matrix(0.62881767,0,0,0.62881767,-3.1353585,25.240088)">
    <g
       id="g9410">
      <path
         id="path9412"
         transform="matrix(0.7798,0,0,0.9043,4.9252,8.009)"
         d="M 38.37,59.11 51.5,59 67.5,41.87 47.11,30.37"
         style="fill:#000000;fill-opacity:0.40779999"
         inkscape:connector-curvature="0" />
      <path
         id="path9414"
         transform="matrix(0.9403,0,0,1.035,-5.8008,4.7087)"
         d="m 14.24,38.74 0,-28.24 13.87,-6.89 29.76,8.63 0,27.37 -13.5,13.26 -30.13,-14.13 z"
         style="fill:none;stroke:#000000;stroke-width:3"
         inkscape:connector-curvature="0" />
      <linearGradient
         y2="-64"
         x2="64"
         y1="-64"
         x1="-64"
         gradientUnits="userSpaceOnUse"
         id="gradient0-2">
        <stop
           id="stop9417"
           stop-color="#d4d4d4"
           offset="0.4824" />
        <stop
           id="stop9419"
           stop-color="#909090"
           offset="1" />
      </linearGradient>
      <path
         id="path9421"
         transform="matrix(0.8671,0,0,0.8434,-0.4007,9.19)"
         d="m 9.74,41.61 0,-33.87 32.63,11.76 -0.63,39 -32,-16.89 z"
         style="fill:url(#gradient0-2)"
         inkscape:connector-curvature="0" />
      <linearGradient
         y2="-64"
         x2="64"
         y1="-64"
         x1="-64"
         gradientUnits="userSpaceOnUse"
         id="gradient1-0">
        <stop
           id="stop9424"
           stop-color="#ffffff"
           offset="0" />
        <stop
           id="stop9426"
           stop-color="#d3d3d3"
           offset="1" />
      </linearGradient>
      <path
         id="path9428"
         transform="matrix(0.9293,0,0,0.8572,-2.7367,8.3328)"
         d="M 11.87,8.5 25.5,1.11 54.37,11.11 42,22 11.87,8.5 Z"
         style="fill:url(#gradient1-0)"
         inkscape:connector-curvature="0" />
      <path
         id="path9430"
         d="M 41.12,19 46,19"
         style="fill:none;stroke:#000000;stroke-width:1;stroke-opacity:0.4196"
         inkscape:connector-curvature="0" />
      <linearGradient
         y2="-64"
         x2="64"
         y1="-64"
         x1="-64"
         gradientUnits="userSpaceOnUse"
         id="gradient2-2">
        <stop
           id="stop9433"
           stop-color="#474747"
           offset="0.6705" />
        <stop
           id="stop9435"
           stop-color="#a0a0a0"
           offset="1" />
      </linearGradient>
      <path
         id="path9437"
         transform="matrix(0.8699,0,0,0.8625,0.2696,8.028)"
         d="M 41.11,21.74 54.87,10.5 54.87,43.11 41,58.37 41.11,21.74 Z"
         style="fill:url(#gradient2-2)"
         inkscape:connector-curvature="0" />
      <path
         id="path9439"
         transform="matrix(0.9087,0,0,0.9935,5.5632,6.0446)"
         d="m 19.74,43.11 10.37,4.76 0.26,-23.26 -10.63,-4.37 0,22.87 z"
         style="fill:#151515"
         inkscape:connector-curvature="0" />
      <path
         id="path9441"
         transform="matrix(0.9042,0.0319,-0.0176,0.9324,5.243,9.6187)"
         d="m 21.87,27.87 9,3.87"
         style="fill:none;stroke:#00ff00;stroke-width:1"
         inkscape:connector-curvature="0" />
      <path
         id="path9443"
         transform="matrix(1,0,0,0.8522,-14,-2.409)"
         d="m 54,4 2,0 0,22 -2,0 0,-22 z"
         style="fill:#010101"
         inkscape:connector-curvature="0" />
      <path
         id="path9445"
         transform="matrix(0.2074,0.0322,-0.0542,0.3482,37.6096,23.5478)"
         d="m 32,16 c -8.85,0 -16,7.15 -16,16 0,8.83 7.15,16 16,16 8.83,0 16,-7.17 16,-16 0,-8.85 -7.17,-16 -16,-16 z"
         style="fill:#424142"
         inkscape:connector-curvature="0" />
      <path
         id="path9447"
         transform="matrix(0.1565,0,0,0.0964,28.8295,19.5509)"
         d="m 32,16 c -8.85,0 -16,7.15 -16,16 0,8.83 7.15,16 16,16 8.83,0 16,-7.17 16,-16 0,-8.85 -7.17,-16 -16,-16 z"
         style="fill:#424142"
         inkscape:connector-curvature="0" />
      <path
         id="path9449"
         transform="matrix(0.1604,0,0,0.0964,22.6268,17.4726)"
         d="m 32,16 c -8.85,0 -16,7.15 -16,16 0,8.83 7.15,16 16,16 8.83,0 16,-7.17 16,-16 0,-8.85 -7.17,-16 -16,-16 z"
         style="fill:#424142"
         inkscape:connector-curvature="0" />
      <path
         id="path9451"
         transform="matrix(0.1565,0,0,0.0964,16.5643,15.0977)"
         d="m 32,16 c -8.85,0 -16,7.15 -16,16 0,8.83 7.15,16 16,16 8.83,0 16,-7.17 16,-16 0,-8.85 -7.17,-16 -16,-16 z"
         style="fill:#424142"
         inkscape:connector-curvature="0" />
      <path
         id="path9453"
         transform="matrix(0.2109,-0.0098,0.0086,0.6068,7.857,15.345)"
         d="m 38.37,13.87 c -13,-2.38 -29.34,6.51 -28,15.24 0.87,5.76 8.52,15.32 23.13,19.89 14,4.37 25.87,-7.13 28.61,-15 2.91,-8.35 -3.24,-16.39 -23.74,-20.13 z"
         style="fill:#010101"
         inkscape:connector-curvature="0" />
      <path
         id="path9455"
         transform="matrix(1,0,0,0.4249,0,9.5499)"
         d="m 40,14 2,0 0,10 -2,0 0,-10 z"
         style="fill:#151515"
         inkscape:connector-curvature="0" />
      <path
         id="path9457"
         transform="matrix(0.2109,-0.0098,0.0086,0.6068,7.857,15.345)"
         d="M 38.5,13.24 C 25.43,11.26 10.37,20.28 10.37,29.11 10.37,37.96 22.74,47 33.5,49 48.2,51.73 61.24,42.83 61.24,34 61.24,25.15 59.11,16.37 38.5,13.24 Z"
         style="fill:#010101"
         inkscape:connector-curvature="0" />
      <path
         id="path9459"
         transform="matrix(0.0312,0,0,0.0312,13.5,37.5)"
         d="m 16,16 0,32 32,0 0,-32 -32,0 z"
         style="fill:#bebebe"
         inkscape:connector-curvature="0" />
      <path
         id="path9461"
         transform="matrix(0.0312,0,0,0.0312,11.5,37.5)"
         d="m 16,16 0,32 32,0 0,-32 -32,0 z"
         style="fill:#bebebe"
         inkscape:connector-curvature="0" />
      <path
         id="path9463"
         transform="matrix(0.0312,0,0,0.0312,16.5,36.5)"
         d="m 16,16 0,32 32,0 0,-32 -32,0 z"
         style="fill:#bebebe"
         inkscape:connector-curvature="0" />
      <path
         id="path9465"
         transform="matrix(0.0312,0,0,0.0312,14.5,36.5)"
         d="m 16,16 0,32 32,0 0,-32 -32,0 z"
         style="fill:#bebebe"
         inkscape:connector-curvature="0" />
      <path
         id="path9467"
         transform="matrix(0.0312,0,0,0.0312,12.5,36.5)"
         d="m 16,16 0,32 32,0 0,-32 -32,0 z"
         style="fill:#bebebe"
         inkscape:connector-curvature="0" />
      <path
         id="path9469"
         transform="matrix(0.0312,0,0,0.0312,18.5,36.5)"
         d="m 16,16 0,32 32,0 0,-32 -32,0 z"
         style="fill:#bebebe"
         inkscape:connector-curvature="0" />
      <path
         id="path9471"
         transform="matrix(0.0312,0,0,0.0312,10.5,36.5)"
         d="m 16,16 0,32 32,0 0,-32 -32,0 z"
         style="fill:#bebebe"
         inkscape:connector-curvature="0" />
      <path
         id="path9473"
         transform="matrix(0.0312,0,0,0.0312,17.5,35.5)"
         d="m 16,16 0,32 32,0 0,-32 -32,0 z"
         style="fill:#bebebe"
         inkscape:connector-curvature="0" />
      <path
         id="path9475"
         transform="matrix(0.0312,0,0,0.0312,15.5,35.5)"
         d="m 16,16 0,32 32,0 0,-32 -32,0 z"
         style="fill:#bebebe"
         inkscape:connector-curvature="0" />
      <path
         id="path9477"
         transform="matrix(0.0312,0,0,0.0312,11.5,35.5)"
         d="m 16,16 0,32 32,0 0,-32 -32,0 z"
         style="fill:#bebebe"
         inkscape:connector-curvature="0" />
      <path
         id="path9479"
         transform="matrix(0.0312,0,0,0.0312,19.5,35.5)"
         d="m 16,16 0,32 32,0 0,-32 -32,0 z"
         style="fill:#bebebe"
         inkscape:connector-curvature="0" />
      <path
         id="path9481"
         transform="matrix(0.0312,0,0,0.0312,18.5,34.5)"
         d="m 16,16 0,32 32,0 0,-32 -32,0 z"
         style="fill:#bebebe"
         inkscape:connector-curvature="0" />
      <path
         id="path9483"
         transform="matrix(0.0312,0,0,0.0312,16.5,34.5)"
         d="m 16,16 0,32 32,0 0,-32 -32,0 z"
         style="fill:#bebebe"
         inkscape:connector-curvature="0" />
      <path
         id="path9485"
         transform="matrix(0.0312,0,0,0.0312,14.5,34.5)"
         d="m 16,16 0,32 32,0 0,-32 -32,0 z"
         style="fill:#bebebe"
         inkscape:connector-curvature="0" />
      <path
         id="path9487"
         transform="matrix(0.0312,0,0,0.0312,12.5,34.5)"
         d="m 16,16 0,32 32,0 0,-32 -32,0 z"
         style="fill:#bebebe"
         inkscape:connector-curvature="0" />
      <path
         id="path9489"
         transform="matrix(0.0312,0,0,0.0312,10.5,34.5)"
         d="m 16,16 0,32 32,0 0,-32 -32,0 z"
         style="fill:#bebebe"
         inkscape:connector-curvature="0" />
      <path
         id="path9491"
         transform="matrix(0.0312,0,0,0.0312,19.5,37.5)"
         d="m 16,16 0,32 32,0 0,-32 -32,0 z"
         style="fill:#bebebe"
         inkscape:connector-curvature="0" />
      <path
         id="path9493"
         transform="matrix(0.0312,0,0,0.0312,19.5,33.5)"
         d="m 16,16 0,32 32,0 0,-32 -32,0 z"
         style="fill:#bebebe"
         inkscape:connector-curvature="0" />
      <path
         id="path9495"
         transform="matrix(0.0312,0,0,0.0312,17.5,33.5)"
         d="m 16,16 0,32 32,0 0,-32 -32,0 z"
         style="fill:#bebebe"
         inkscape:connector-curvature="0" />
      <path
         id="path9497"
         transform="matrix(0.0312,0,0,0.0312,15.5,33.5)"
         d="m 16,16 0,32 32,0 0,-32 -32,0 z"
         style="fill:#bebebe"
         inkscape:connector-curvature="0" />
      <path
         id="path9499"
         transform="matrix(0.0312,0,0,0.0312,13.5,33.5)"
         d="m 16,16 0,32 32,0 0,-32 -32,0 z"
         style="fill:#bebebe"
         inkscape:connector-curvature="0" />
      <path
         id="path9501"
         transform="matrix(0.0312,0,0,0.0312,11.5,33.5)"
         d="m 16,16 0,32 32,0 0,-32 -32,0 z"
         style="fill:#bebebe"
         inkscape:connector-curvature="0" />
      <path
         id="path9503"
         transform="matrix(0.0312,0,0,0.0312,10.5,32.5)"
         d="m 16,16 0,32 32,0 0,-32 -32,0 z"
         style="fill:#bebebe"
         inkscape:connector-curvature="0" />
      <path
         id="path9505"
         transform="matrix(0.0312,0,0,0.0312,14.5,32.5)"
         d="m 16,16 0,32 32,0 0,-32 -32,0 z"
         style="fill:#bebebe"
         inkscape:connector-curvature="0" />
      <path
         id="path9507"
         transform="matrix(0.0312,0,0,0.0312,16.5,32.5)"
         d="m 16,16 0,32 32,0 0,-32 -32,0 z"
         style="fill:#bebebe"
         inkscape:connector-curvature="0" />
      <path
         id="path9509"
         transform="matrix(0.0312,0,0,0.0312,18.5,32.5)"
         d="m 16,16 0,32 32,0 0,-32 -32,0 z"
         style="fill:#bebebe"
         inkscape:connector-curvature="0" />
      <path
         id="path9511"
         transform="matrix(0.0312,0,0,0.0312,11.5,31.4998)"
         d="m 16,16 0,32 32,0 0,-32 -32,0 z"
         style="fill:#bebebe"
         inkscape:connector-curvature="0" />
      <path
         id="path9513"
         transform="matrix(0.0312,0,0,0.0312,13.5,31.4998)"
         d="m 16,16 0,32 32,0 0,-32 -32,0 z"
         style="fill:#bebebe"
         inkscape:connector-curvature="0" />
      <path
         id="path9515"
         transform="matrix(0.0312,0,0,0.0312,15.5,31.4998)"
         d="m 16,16 0,32 32,0 0,-32 -32,0 z"
         style="fill:#bebebe"
         inkscape:connector-curvature="0" />
      <path
         id="path9517"
         transform="matrix(0.0312,0,0,0.0312,17.5,31.4998)"
         d="m 16,16 0,32 32,0 0,-32 -32,0 z"
         style="fill:#bebebe"
         inkscape:connector-curvature="0" />
      <path
         id="path9519"
         transform="matrix(0.0312,0,0,0.0312,19.5,31.4998)"
         d="m 16,16 0,32 32,0 0,-32 -32,0 z"
         style="fill:#bebebe"
         inkscape:connector-curvature="0" />
      <path
         id="path9521"
         transform="matrix(0.0312,0,0,0.0312,18.5,30.4998)"
         d="m 16,16 0,32 32,0 0,-32 -32,0 z"
         style="fill:#bebebe"
         inkscape:connector-curvature="0" />
      <path
         id="path9523"
         transform="matrix(0.0312,0,0,0.0312,16.5,30.4998)"
         d="m 16,16 0,32 32,0 0,-32 -32,0 z"
         style="fill:#bebebe"
         inkscape:connector-curvature="0" />
      <path
         id="path9525"
         transform="matrix(0.0312,0,0,0.0312,14.5,30.4998)"
         d="m 16,16 0,32 32,0 0,-32 -32,0 z"
         style="fill:#bebebe"
         inkscape:connector-curvature="0" />
      <path
         id="path9527"
         transform="matrix(0.0312,0,0,0.0312,12.5,30.4998)"
         d="m 16,16 0,32 32,0 0,-32 -32,0 z"
         style="fill:#bebebe"
         inkscape:connector-curvature="0" />
      <path
         id="path9529"
         transform="matrix(0.0312,0,0,0.0312,10.5,30.4998)"
         d="m 16,16 0,32 32,0 0,-32 -32,0 z"
         style="fill:#bebebe"
         inkscape:connector-curvature="0" />
      <path
         id="path9531"
         transform="matrix(0.0312,0,0,0.0312,17.5,29.4998)"
         d="m 16,16 0,32 32,0 0,-32 -32,0 z"
         style="fill:#bebebe"
         inkscape:connector-curvature="0" />
      <path
         id="path9533"
         transform="matrix(0.0312,0,0,0.0312,15.5,29.4998)"
         d="m 16,16 0,32 32,0 0,-32 -32,0 z"
         style="fill:#bebebe"
         inkscape:connector-curvature="0" />
      <path
         id="path9535"
         transform="matrix(0.0312,0,0,0.0312,13.5,29.4998)"
         d="m 16,16 0,32 32,0 0,-32 -32,0 z"
         style="fill:#bebebe"
         inkscape:connector-curvature="0" />
      <path
         id="path9537"
         transform="matrix(0.0312,0,0,0.0312,11.5,29.4998)"
         d="m 16,16 0,32 32,0 0,-32 -32,0 z"
         style="fill:#bebebe"
         inkscape:connector-curvature="0" />
      <path
         id="path9539"
         transform="matrix(0.0312,0,0,0.0312,18.5,28.4998)"
         d="m 16,16 0,32 32,0 0,-32 -32,0 z"
         style="fill:#bebebe"
         inkscape:connector-curvature="0" />
      <path
         id="path9541"
         transform="matrix(0.0312,0,0,0.0312,16.5,28.4998)"
         d="m 16,16 0,32 32,0 0,-32 -32,0 z"
         style="fill:#bebebe"
         inkscape:connector-curvature="0" />
      <path
         id="path9543"
         transform="matrix(0.0312,0,0,0.0312,14.5,28.4998)"
         d="m 16,16 0,32 32,0 0,-32 -32,0 z"
         style="fill:#bebebe"
         inkscape:connector-curvature="0" />
      <path
         id="path9545"
         transform="matrix(0.0312,0,0,0.0312,12.5,28.4998)"
         d="m 16,16 0,32 32,0 0,-32 -32,0 z"
         style="fill:#bebebe"
         inkscape:connector-curvature="0" />
      <path
         id="path9547"
         transform="matrix(0.0312,0,0,0.0312,10.5,28.4998)"
         d="m 16,16 0,32 32,0 0,-32 -32,0 z"
         style="fill:#bebebe"
         inkscape:connector-curvature="0" />
      <path
         id="path9549"
         transform="matrix(0.0312,0,0,0.0312,17.5,27.4998)"
         d="m 16,16 0,32 32,0 0,-32 -32,0 z"
         style="fill:#bebebe"
         inkscape:connector-curvature="0" />
      <path
         id="path9551"
         transform="matrix(0.0312,0,0,0.0312,15.5,27.4998)"
         d="m 16,16 0,32 32,0 0,-32 -32,0 z"
         style="fill:#bebebe"
         inkscape:connector-curvature="0" />
      <path
         id="path9553"
         transform="matrix(0.0312,0,0,0.0312,13.5,27.4998)"
         d="m 16,16 0,32 32,0 0,-32 -32,0 z"
         style="fill:#bebebe"
         inkscape:connector-curvature="0" />
      <path
         id="path9555"
         transform="matrix(0.0312,0,0,0.0312,11.5,27.4998)"
         d="m 16,16 0,32 32,0 0,-32 -32,0 z"
         style="fill:#bebebe"
         inkscape:connector-curvature="0" />
      <path
         id="path9557"
         transform="matrix(0.0312,0,0,0.0312,18.5,26.4998)"
         d="m 16,16 0,32 32,0 0,-32 -32,0 z"
         style="fill:#bebebe"
         inkscape:connector-curvature="0" />
      <path
         id="path9559"
         transform="matrix(0.0312,0,0,0.0312,16.5,26.4998)"
         d="m 16,16 0,32 32,0 0,-32 -32,0 z"
         style="fill:#bebebe"
         inkscape:connector-curvature="0" />
      <path
         id="path9561"
         transform="matrix(0.0312,0,0,0.0312,14.5,26.4998)"
         d="m 16,16 0,32 32,0 0,-32 -32,0 z"
         style="fill:#bebebe"
         inkscape:connector-curvature="0" />
      <path
         id="path9563"
         transform="matrix(0.0312,0,0,0.0312,12.5,26.4998)"
         d="m 16,16 0,32 32,0 0,-32 -32,0 z"
         style="fill:#bebebe"
         inkscape:connector-curvature="0" />
      <path
         id="path9565"
         transform="matrix(0.0312,0,0,0.0312,17.5,25.4998)"
         d="m 16,16 0,32 32,0 0,-32 -32,0 z"
         style="fill:#bebebe"
         inkscape:connector-curvature="0" />
      <path
         id="path9567"
         transform="matrix(0.0312,0,0,0.0312,15.5,25.4998)"
         d="m 16,16 0,32 32,0 0,-32 -32,0 z"
         style="fill:#bebebe"
         inkscape:connector-curvature="0" />
      <path
         id="path9569"
         transform="matrix(0.0312,0,0,0.0312,13.5,25.4998)"
         d="m 16,16 0,32 32,0 0,-32 -32,0 z"
         style="fill:#bebebe"
         inkscape:connector-curvature="0" />
      <path
         id="path9571"
         transform="matrix(0.0312,0,0,0.0312,11.5,25.4998)"
         d="m 16,16 0,32 32,0 0,-32 -32,0 z"
         style="fill:#bebebe"
         inkscape:connector-curvature="0" />
      <path
         id="path9573"
         transform="matrix(0.0312,0,0,0.0312,16.5,24.4998)"
         d="m 16,16 0,32 32,0 0,-32 -32,0 z"
         style="fill:#bebebe"
         inkscape:connector-curvature="0" />
      <path
         id="path9575"
         transform="matrix(0.0312,0,0,0.0312,14.5,24.4998)"
         d="m 16,16 0,32 32,0 0,-32 -32,0 z"
         style="fill:#bebebe"
         inkscape:connector-curvature="0" />
      <path
         id="path9577"
         transform="matrix(0.0312,0,0,0.0312,12.5,24.4998)"
         d="m 16,16 0,32 32,0 0,-32 -32,0 z"
         style="fill:#bebebe"
         inkscape:connector-curvature="0" />
      <path
         id="path9579"
         transform="matrix(0.0312,0,0,0.0312,15.5,23.4998)"
         d="m 16,16 0,32 32,0 0,-32 -32,0 z"
         style="fill:#bebebe"
         inkscape:connector-curvature="0" />
      <path
         id="path9581"
         transform="matrix(0.0312,0,0,0.0312,13.5,23.4998)"
         d="m 16,16 0,32 32,0 0,-32 -32,0 z"
         style="fill:#bebebe"
         inkscape:connector-curvature="0" />
      <path
         id="path9583"
         transform="matrix(0.0312,0,0,0.0312,14.5,22.4998)"
         d="m 16,16 0,32 32,0 0,-32 -32,0 z"
         style="fill:#bebebe"
         inkscape:connector-curvature="0" />
      <path
         id="path9585"
         transform="matrix(0.0312,0,0,0.0312,9.5,33.5)"
         d="m 16,16 0,32 32,0 0,-32 -32,0 z"
         style="fill:#bebebe"
         inkscape:connector-curvature="0" />
      <path
         id="path9587"
         transform="matrix(0.0312,0,0,0.0312,9.5,31.4998)"
         d="m 16,16 0,32 32,0 0,-32 -32,0 z"
         style="fill:#bebebe"
         inkscape:connector-curvature="0" />
      <path
         id="path9589"
         transform="matrix(0.0312,0,0,0.0312,10.5,26.4998)"
         d="m 16,16 0,32 32,0 0,-32 -32,0 z"
         style="fill:#bebebe"
         inkscape:connector-curvature="0" />
      <path
         id="path9591"
         transform="matrix(0.0312,0,0,0.0312,9.5,29.4998)"
         d="m 16,16 0,32 32,0 0,-32 -32,0 z"
         style="fill:#bebebe"
         inkscape:connector-curvature="0" />
      <path
         id="path9593"
         transform="matrix(0.0312,0,0,0.0312,19.5,29.4998)"
         d="m 16,16 0,32 32,0 0,-32 -32,0 z"
         style="fill:#bebebe"
         inkscape:connector-curvature="0" />
      <path
         id="path9595"
         transform="matrix(0.0312,0,0,0.0312,19.5,27.4998)"
         d="m 16,16 0,32 32,0 0,-32 -32,0 z"
         style="fill:#bebebe"
         inkscape:connector-curvature="0" />
      <path
         id="path9597"
         transform="matrix(0.0312,0,0,0.0312,12.5,32.5)"
         d="m 16,16 0,32 32,0 0,-32 -32,0 z"
         style="fill:#bebebe"
         inkscape:connector-curvature="0" />
      <path
         id="path9599"
         transform="matrix(0.0312,0,0,0.0312,13.5,35.5)"
         d="m 16,16 0,32 32,0 0,-32 -32,0 z"
         style="fill:#bebebe"
         inkscape:connector-curvature="0" />
      <path
         id="path9601"
         transform="matrix(0.0312,0,0,0.0312,15.5,37.5)"
         d="m 16,16 0,32 32,0 0,-32 -32,0 z"
         style="fill:#bebebe"
         inkscape:connector-curvature="0" />
      <path
         id="path9603"
         transform="matrix(0.0312,0,0,0.0312,17.5,37.5)"
         d="m 16,16 0,32 32,0 0,-32 -32,0 z"
         style="fill:#bebebe"
         inkscape:connector-curvature="0" />
      <path
         id="path9605"
         transform="matrix(0.0312,0,0,0.0312,12.5,38.5)"
         d="m 16,16 0,32 32,0 0,-32 -32,0 z"
         style="fill:#bebebe"
         inkscape:connector-curvature="0" />
      <path
         id="path9607"
         transform="matrix(0.0312,0,0,0.0312,14.5,38.5)"
         d="m 16,16 0,32 32,0 0,-32 -32,0 z"
         style="fill:#bebebe"
         inkscape:connector-curvature="0" />
      <path
         id="path9609"
         transform="matrix(0.0312,0,0,0.0312,16.5,38.5)"
         d="m 16,16 0,32 32,0 0,-32 -32,0 z"
         style="fill:#bebebe"
         inkscape:connector-curvature="0" />
      <path
         id="path9611"
         transform="matrix(0.0312,0,0,0.0312,18.5,38.5)"
         d="m 16,16 0,32 32,0 0,-32 -32,0 z"
         style="fill:#bebebe"
         inkscape:connector-curvature="0" />
      <path
         id="path9613"
         transform="matrix(0.0312,0,0,0.0312,11.5,39.5)"
         d="m 16,16 0,32 32,0 0,-32 -32,0 z"
         style="fill:#bebebe"
         inkscape:connector-curvature="0" />
      <path
         id="path9615"
         transform="matrix(0.0312,0,0,0.0312,18.5,40.5)"
         d="m 16,16 0,32 32,0 0,-32 -32,0 z"
         style="fill:#bebebe"
         inkscape:connector-curvature="0" />
      <path
         id="path9617"
         transform="matrix(0.0312,0,0,0.0312,12.5,40.5)"
         d="m 16,16 0,32 32,0 0,-32 -32,0 z"
         style="fill:#bebebe"
         inkscape:connector-curvature="0" />
      <path
         id="path9619"
         transform="matrix(0.0312,0,0,0.0312,13.5,39.5)"
         d="m 16,16 0,32 32,0 0,-32 -32,0 z"
         style="fill:#bebebe"
         inkscape:connector-curvature="0" />
      <path
         id="path9621"
         transform="matrix(0.0312,0,0,0.0312,15.5,39.5)"
         d="m 16,16 0,32 32,0 0,-32 -32,0 z"
         style="fill:#bebebe"
         inkscape:connector-curvature="0" />
      <path
         id="path9623"
         transform="matrix(0.0312,0,0,0.0312,17.5,39.5)"
         d="m 16,16 0,32 32,0 0,-32 -32,0 z"
         style="fill:#bebebe"
         inkscape:connector-curvature="0" />
      <path
         id="path9625"
         transform="matrix(0.0312,0,0,0.0312,16.5,40.5)"
         d="m 16,16 0,32 32,0 0,-32 -32,0 z"
         style="fill:#bebebe"
         inkscape:connector-curvature="0" />
      <path
         id="path9627"
         transform="matrix(0.0312,0,0,0.0312,14.5,40.5)"
         d="m 16,16 0,32 32,0 0,-32 -32,0 z"
         style="fill:#bebebe"
         inkscape:connector-curvature="0" />
      <path
         id="path9629"
         transform="matrix(0.0312,0,0,0.0312,13.5,41.5)"
         d="m 16,16 0,32 32,0 0,-32 -32,0 z"
         style="fill:#bebebe"
         inkscape:connector-curvature="0" />
      <path
         id="path9631"
         transform="matrix(0.0312,0,0,0.0312,17.5,41.5)"
         d="m 16,16 0,32 32,0 0,-32 -32,0 z"
         style="fill:#bebebe"
         inkscape:connector-curvature="0" />
      <path
         id="path9633"
         transform="matrix(0.0312,0,0,0.0312,15.5,41.5)"
         d="m 16,16 0,32 32,0 0,-32 -32,0 z"
         style="fill:#bebebe"
         inkscape:connector-curvature="0" />
      <path
         id="path9635"
         transform="matrix(0.0312,0,0,0.0312,14.5,42.5)"
         d="m 16,16 0,32 32,0 0,-32 -32,0 z"
         style="fill:#bebebe"
         inkscape:connector-curvature="0" />
      <path
         id="path9637"
         transform="matrix(0.0312,0,0,0.0312,16.5,42.5)"
         d="m 16,16 0,32 32,0 0,-32 -32,0 z"
         style="fill:#bebebe"
         inkscape:connector-curvature="0" />
      <path
         id="path9639"
         transform="matrix(0.0312,0,0,0.0312,15.5,43.5)"
         d="m 16,16 0,32 32,0 0,-32 -32,0 z"
         style="fill:#bebebe"
         inkscape:connector-curvature="0" />
    </g>
  </g>
</svg>
