<?xml version="1.0" encoding="UTF-8" standalone="no"?>
<svg
   xmlns:dc="http://purl.org/dc/elements/1.1/"
   xmlns:cc="http://creativecommons.org/ns#"
   xmlns:rdf="http://www.w3.org/1999/02/22-rdf-syntax-ns#"
   xmlns:svg="http://www.w3.org/2000/svg"
   xmlns="http://www.w3.org/2000/svg"
   xmlns:xlink="http://www.w3.org/1999/xlink"
   xmlns:sodipodi="http://sodipodi.sourceforge.net/DTD/sodipodi-0.dtd"
   xmlns:inkscape="http://www.inkscape.org/namespaces/inkscape"
   version="1.1"
   width="64"
   height="64"
   color-interpolation="linearRGB"
   id="svg2"
   inkscape:version="0.48.1 r9760"
   sodipodi:docname="folder.svg">
  <metadata
     id="metadata44">
    <rdf:RDF>
      <cc:Work
         rdf:about="">
        <dc:format>image/svg+xml</dc:format>
        <dc:type
           rdf:resource="http://purl.org/dc/dcmitype/StillImage" />
        <dc:title></dc:title>
      </cc:Work>
    </rdf:RDF>
  </metadata>
  <defs
     id="defs42">
    <linearGradient
       id="linearGradient3670">
      <stop
         style="stop-color:#ffe600;stop-opacity:1;"
         offset="0"
         id="stop3672" />
      <stop
         style="stop-color:#ffa800;stop-opacity:1;"
         offset="1"
         id="stop3674" />
    </linearGradient>
    <inkscape:perspective
       sodipodi:type="inkscape:persp3d"
       inkscape:vp_x="0 : 32 : 1"
       inkscape:vp_y="0 : 1000 : 0"
       inkscape:vp_z="64 : 32 : 1"
       inkscape:persp3d-origin="32 : 21.333333 : 1"
       id="perspective46" />
    <linearGradient
       y2="47.07"
       x2="102.74"
       y1="8.5"
       x1="102.6"
       gradientUnits="userSpaceOnUse"
       id="gradient0">
      <stop
         id="stop11"
         stop-color="#face79"
         offset="0" />
      <stop
         id="stop13"
         stop-color="#bc4105"
         offset="1" />
    </linearGradient>
    <linearGradient
       y2="55.34"
       x2="103.39"
       y1="12.68"
       x1="103.24"
       gradientUnits="userSpaceOnUse"
       id="gradient1">
      <stop
         id="stop18"
         stop-color="#ffffff"
         offset="0" />
      <stop
         id="stop20"
         stop-color="#8e8e8e"
         offset="1" />
    </linearGradient>
    <linearGradient
       y2="12.94"
       x2="101.46"
       y1="-26.66"
       x1="78.34"
       gradientUnits="userSpaceOnUse"
       id="gradient2">
      <stop
         id="stop25"
         stop-color="#9a9a9a"
         offset="0" />
      <stop
         id="stop27"
         stop-color="#505050"
         offset="1" />
    </linearGradient>
    <linearGradient
       y2="51.29"
       x2="97.54"
       y1="9.59"
       x1="88.52"
       gradientUnits="userSpaceOnUse"
       id="gradient3">
      <stop
         id="stop32"
         stop-color="#ffe2ac"
         offset="0" />
      <stop
         id="stop34"
         stop-color="#f49806"
         offset="1" />
    </linearGradient>
    <linearGradient
       inkscape:collect="always"
       xlink:href="#gradient2"
       id="linearGradient2869"
       gradientUnits="userSpaceOnUse"
       x1="78.34"
       y1="-26.66"
       x2="101.46"
       y2="12.94" />
    <linearGradient
       inkscape:collect="always"
       xlink:href="#gradient1"
       id="linearGradient2872"
       gradientUnits="userSpaceOnUse"
       x1="103.24"
       y1="12.68"
       x2="103.39"
       y2="55.34" />
    <linearGradient
       id="linearGradient900">
      <stop
         id="stop901"
         offset="0"
         style="stop-color:#000;stop-opacity:1;" />
      <stop
         id="stop902"
         offset="1"
         style="stop-color:#fff;stop-opacity:1;" />
    </linearGradient>
    <linearGradient
       id="linearGradient903"
       xlink:href="#linearGradient900" />
    <linearGradient
       id="linearGradient904"
       xlink:href="#linearGradient900" />
    <linearGradient
       id="linearGradient905"
       xlink:href="#linearGradient900" />
    <linearGradient
       id="linearGradient906"
       xlink:href="#linearGradient900" />
    <linearGradient
       id="linearGradient907"
       xlink:href="#linearGradient900" />
    <linearGradient
       y2="99.7109"
       x2="191.0391"
       y1="99.7109"
       x1="172.3457"
       gradientTransform="matrix(1.5709466,0,0,1.5709466,-68.341201,-138.0986)"
       gradientUnits="userSpaceOnUse"
       id="linearGradient2382"
       xlink:href="#XMLID_13_"
       inkscape:collect="always" />
    <linearGradient
       y2="100.71"
       x2="194.9375"
       y1="100.71"
       x1="170.4492"
       gradientTransform="matrix(1.5709466,0,0,1.5709466,-68.341201,-138.0986)"
       gradientUnits="userSpaceOnUse"
       id="linearGradient2380"
       xlink:href="#XMLID_12_"
       inkscape:collect="always" />
    <linearGradient
       y2="80.1768"
       x2="189.1348"
       y1="80.1768"
       x1="171.3809"
       gradientTransform="matrix(1.5709466,0,0,1.5709466,-68.341201,-138.0986)"
       gradientUnits="userSpaceOnUse"
       id="linearGradient2378"
       xlink:href="#XMLID_11_"
       inkscape:collect="always" />
    <linearGradient
       y2="81.1758"
       x2="193.2949"
       y1="81.1758"
       x1="169.2207"
       gradientTransform="matrix(1.5709466,0,0,1.5709466,-68.341201,-138.0986)"
       gradientUnits="userSpaceOnUse"
       id="linearGradient2376"
       xlink:href="#XMLID_10_"
       inkscape:collect="always" />
    <linearGradient
       y2="69.8423"
       x2="168.7969"
       y1="69.8423"
       x1="160.666"
       gradientTransform="matrix(1.5709466,0,0,1.5709466,-68.341201,-138.0986)"
       gradientUnits="userSpaceOnUse"
       id="linearGradient2374"
       xlink:href="#XMLID_9_"
       inkscape:collect="always" />
    <linearGradient
       y2="69.667"
       x2="171.8574"
       y1="69.667"
       x1="158.666"
       gradientTransform="matrix(1.5709466,0,0,1.5709466,-68.341201,-138.0986)"
       gradientUnits="userSpaceOnUse"
       id="linearGradient2372"
       xlink:href="#XMLID_8_"
       inkscape:collect="always" />
    <linearGradient
       y2="93.0645"
       x2="166.4863"
       y1="93.0645"
       x1="145.959"
       gradientTransform="matrix(1.5709466,0,0,1.5709466,-68.341201,-138.0986)"
       gradientUnits="userSpaceOnUse"
       id="linearGradient2370"
       xlink:href="#XMLID_7_"
       inkscape:collect="always" />
    <linearGradient
       y2="98.6406"
       x2="154.4531"
       y1="98.6406"
       x1="139.9121"
       gradientTransform="matrix(1.5709466,0,0,1.5709466,-68.341201,-138.0986)"
       gradientUnits="userSpaceOnUse"
       id="linearGradient2368"
       xlink:href="#XMLID_6_"
       inkscape:collect="always" />
    <linearGradient
       y2="105.7555"
       x2="141.1622"
       y1="96.0942"
       x1="131.501"
       gradientTransform="matrix(1.5709466,0,0,1.5709466,-68.341201,-138.0986)"
       gradientUnits="userSpaceOnUse"
       id="linearGradient2366"
       xlink:href="#XMLID_5_"
       inkscape:collect="always" />
    <radialGradient
       r="45.424"
       fy="994.0244"
       fx="223.2383"
       cy="994.0244"
       cx="223.2383"
       gradientTransform="matrix(2.1333454,-0.9771287,0.8197199,1.7897794,-1230.7106,-1528.965)"
       gradientUnits="userSpaceOnUse"
       id="radialGradient2364"
       xlink:href="#XMLID_4_"
       inkscape:collect="always" />
    <linearGradient
       y2="142.8498"
       x2="111.7876"
       y1="230.2852"
       x1="111.7876"
       gradientTransform="matrix(1.5709466,0,0,1.5709466,-68.341201,-138.0986)"
       gradientUnits="userSpaceOnUse"
       id="linearGradient2362"
       xlink:href="#XMLID_3_"
       inkscape:collect="always" />
    <linearGradient
       gradientTransform="matrix(1.5709466,0,0,1.5709466,-72.112385,-74.103341)"
       id="XMLID_13_"
       gradientUnits="userSpaceOnUse"
       x1="172.3457"
       y1="99.7109"
       x2="191.0391"
       y2="99.7109">
      <stop
         offset="0"
         style="stop-color:#FFAE00"
         id="stop3253" />
      <stop
         offset="1"
         style="stop-color:#FFF030"
         id="stop3254" />
    </linearGradient>
    <linearGradient
       gradientTransform="matrix(1.5709466,0,0,1.5709466,-72.112385,-74.103341)"
       id="XMLID_12_"
       gradientUnits="userSpaceOnUse"
       x1="170.4492"
       y1="100.71"
       x2="194.9375"
       y2="100.71">
      <stop
         offset="0"
         style="stop-color:#FF6D00"
         id="stop3246" />
      <stop
         offset="1"
         style="stop-color:#FF3300"
         id="stop3247" />
    </linearGradient>
    <linearGradient
       gradientTransform="matrix(1.5709466,0,0,1.5709466,-72.112385,-74.103341)"
       id="XMLID_11_"
       gradientUnits="userSpaceOnUse"
       x1="171.3809"
       y1="80.1768"
       x2="189.1348"
       y2="80.1768">
      <stop
         offset="0"
         style="stop-color:#FFAE00"
         id="stop3239" />
      <stop
         offset="1"
         style="stop-color:#FFF030"
         id="stop3240" />
    </linearGradient>
    <linearGradient
       gradientTransform="matrix(1.5709466,0,0,1.5709466,-72.112385,-74.103341)"
       id="XMLID_10_"
       gradientUnits="userSpaceOnUse"
       x1="169.2207"
       y1="81.1758"
       x2="193.2949"
       y2="81.1758">
      <stop
         offset="0"
         style="stop-color:#FF6D00"
         id="stop3232" />
      <stop
         offset="1"
         style="stop-color:#FF3300"
         id="stop3233" />
    </linearGradient>
    <linearGradient
       gradientTransform="matrix(1.5709466,0,0,1.5709466,-72.112385,-74.103341)"
       id="XMLID_9_"
       gradientUnits="userSpaceOnUse"
       x1="160.666"
       y1="69.8423"
       x2="168.7969"
       y2="69.8423">
      <stop
         offset="0"
         style="stop-color:#FFAE00"
         id="stop3225" />
      <stop
         offset="1"
         style="stop-color:#FFF030"
         id="stop3226" />
    </linearGradient>
    <linearGradient
       gradientTransform="matrix(1.5709466,0,0,1.5709466,-72.112385,-74.103341)"
       id="XMLID_8_"
       gradientUnits="userSpaceOnUse"
       x1="158.666"
       y1="69.667"
       x2="171.8574"
       y2="69.667">
      <stop
         offset="0"
         style="stop-color:#FF6D00"
         id="stop3218" />
      <stop
         offset="1"
         style="stop-color:#FF3300"
         id="stop3219" />
    </linearGradient>
    <linearGradient
       gradientTransform="matrix(1.5709466,0,0,1.5709466,-72.112385,-74.103341)"
       id="XMLID_7_"
       gradientUnits="userSpaceOnUse"
       x1="145.959"
       y1="93.0645"
       x2="166.4863"
       y2="93.0645">
      <stop
         offset="0"
         style="stop-color:#FF9200"
         id="stop3203" />
      <stop
         offset="0.264"
         style="stop-color:#FF0000"
         id="stop3204" />
      <stop
         offset="0.3747"
         style="stop-color:#FA0000"
         id="stop3205" />
      <stop
         offset="0.5089"
         style="stop-color:#EB0000"
         id="stop3206" />
      <stop
         offset="0.6554"
         style="stop-color:#D20000"
         id="stop3207" />
      <stop
         offset="0.8106"
         style="stop-color:#B00000"
         id="stop3208" />
      <stop
         offset="0.9711"
         style="stop-color:#850000"
         id="stop3209" />
      <stop
         offset="1"
         style="stop-color:#7C0000"
         id="stop3210" />
    </linearGradient>
    <linearGradient
       gradientTransform="matrix(1.5709466,0,0,1.5709466,-72.112385,-74.103341)"
       id="XMLID_6_"
       gradientUnits="userSpaceOnUse"
       x1="139.9121"
       y1="98.6406"
       x2="154.4531"
       y2="98.6406">
      <stop
         offset="0"
         style="stop-color:#BBBBBB"
         id="stop3196" />
      <stop
         offset="1"
         style="stop-color:#888888"
         id="stop3197" />
    </linearGradient>
    <linearGradient
       gradientTransform="matrix(1.5709466,0,0,1.5709466,-72.112385,-74.103341)"
       id="XMLID_5_"
       gradientUnits="userSpaceOnUse"
       x1="131.501"
       y1="96.0942"
       x2="141.1622"
       y2="105.7555">
      <stop
         offset="0"
         style="stop-color:#FFFFFF"
         id="stop3188" />
      <stop
         offset="1"
         style="stop-color:#000000"
         id="stop3189" />
    </linearGradient>
    <radialGradient
       id="XMLID_4_"
       cx="223.2383"
       cy="994.0244"
       r="45.424"
       fx="223.2383"
       fy="994.0244"
       gradientTransform="matrix(2.1333454,-0.9771287,0.8197199,1.7897794,-1234.4818,-1464.9697)"
       gradientUnits="userSpaceOnUse">
      <stop
         offset="0"
         style="stop-color:#FFFFFF"
         id="stop3180" />
      <stop
         offset="1"
         style="stop-color:#000000"
         id="stop3181" />
    </radialGradient>
    <linearGradient
       gradientTransform="matrix(1.5709466,0,0,1.5709466,-72.112385,-74.103341)"
       id="XMLID_3_"
       gradientUnits="userSpaceOnUse"
       x1="111.7876"
       y1="230.2852"
       x2="111.7876"
       y2="142.8498">
      <stop
         offset="0"
         style="stop-color:#FFFFFF"
         id="stop3166" />
      <stop
         offset="0.1019"
         style="stop-color:#FAFAFA"
         id="stop3167" />
      <stop
         offset="0.2256"
         style="stop-color:#EBEBEB"
         id="stop3168" />
      <stop
         offset="0.3606"
         style="stop-color:#D2D2D2"
         id="stop3169" />
      <stop
         offset="0.5037"
         style="stop-color:#B0B0B0"
         id="stop3170" />
      <stop
         offset="0.6532"
         style="stop-color:#848484"
         id="stop3171" />
      <stop
         offset="0.8081"
         style="stop-color:#4E4E4E"
         id="stop3172" />
      <stop
         offset="0.9646"
         style="stop-color:#0F0F0F"
         id="stop3173" />
      <stop
         offset="1"
         style="stop-color:#000000"
         id="stop3174" />
    </linearGradient>
    <inkscape:perspective
       id="perspective2950"
       inkscape:persp3d-origin="30 : 20 : 1"
       inkscape:vp_z="60 : 30 : 1"
       inkscape:vp_y="0 : 1000 : 0"
       inkscape:vp_x="0 : 30 : 1"
       sodipodi:type="inkscape:persp3d" />
    <linearGradient
       inkscape:collect="always"
       xlink:href="#linearGradient3670"
       id="linearGradient3676"
       x1="-3.5084746"
       y1="17.745762"
       x2="36.033897"
       y2="42.966103"
       gradientUnits="userSpaceOnUse" />
    <radialGradient
       inkscape:collect="always"
       xlink:href="#gradient4"
       id="radialGradient3321"
       gradientUnits="userSpaceOnUse"
       gradientTransform="matrix(0.2161,-0.0247,0.0534,0.4665,30.2118,22.626)"
       cx="0"
       cy="0"
       r="64" />
  </defs>
  <sodipodi:namedview
     pagecolor="#ffffff"
     bordercolor="#666666"
     borderopacity="1"
     objecttolerance="10"
     gridtolerance="10"
     guidetolerance="10"
     inkscape:pageopacity="0"
     inkscape:pageshadow="2"
     inkscape:window-width="1280"
     inkscape:window-height="800"
     id="namedview40"
     showgrid="false"
     inkscape:zoom="3.6875"
     inkscape:cx="32"
     inkscape:cy="32"
     inkscape:window-x="-1"
     inkscape:window-y="-22"
     inkscape:window-maximized="0"
     inkscape:current-layer="svg2" />
  <path
     id="path6"
     d="m 42,61 h 6 l 4,-4 h 4 l 6,-6 -14,-4 -6,14 z"
     style="fill:#010101;fill-opacity:0.39599998" />
  <path
     id="path8"
     d="M 3,15 13,41 42,59 60,12 48,10 44,12 26,8 24,13 16,11 15.91,19.2 3,15 z"
     style="fill:none;stroke:#000000;stroke-width:4" />
  <path
     id="path15"
     d="M 26,8 14,41 42,58 60,12 48,10 44,12 26,8 z"
     style="fill:#ffdb00;fill-opacity:1" />
  <path
     id="path22"
     d="M 16,11 V 41 L 42,57 49,22 16,11 z"
     style="fill:url(#linearGradient2872)" />
  <path
     id="path29"
     d="M 16,11 49,22 42,57 52,20.37 16,11 z"
     style="fill:url(#linearGradient2869)" />
  <path
     id="path36"
     d="M 3,15 13,41 42,59 38,30 3,15 z"
     style="fill:url(#linearGradient3676);fill-opacity:1" />
  <path
     id="path38"
     d="M 3,15 38,30 42,59 40.5,28 3,15 z"
     style="fill:#a03d03" />
  <g
     id="g3227"
     transform="matrix(0.77470974,0,0,0.77470974,-9.2965169,14.418577)">
    <path
       id="path3229"
       d="M 38,64 H 48 C 52,64 60,56 58,54 56,52 46,50 46,50 l -8,14 z"
       style="fill:#010101;fill-opacity:0.44310004"
       inkscape:connector-curvature="0" />
    <path
       id="path3231"
       d="m 14,50 c 0,0 5,3 11,6 6,3 13,6 13,6 l 8,-8 V 30 C 46,30 38.81,27.27 32,25 27.15,23.38 22,22 22,22 l -8,4 v 24 z"
       style="fill:none;stroke:#000000;stroke-width:4;stroke-linejoin:round"
       inkscape:connector-curvature="0" />
    <linearGradient
       y2="12.16"
       x2="45.959999"
       y1="5.4000001"
       x1="11.12"
       gradientUnits="userSpaceOnUse"
       id="gradient0-0">
      <stop
         id="stop3234"
         stop-color="#fffbcc"
         offset="0" />
      <stop
         id="stop3236"
         stop-color="#f3d048"
         offset="1" />
      <stop
         id="stop3238"
         stop-color="#d1af27"
         offset="0.7572" />
    </linearGradient>
    <path
       id="path3240"
       d="m 14,50 c 0,0 5,3 11,6 6,3 13,6 13,6 V 36 C 38,36 31,33.5 25,31 19,28.5 14,26 14,26 v 24 z"
       style="fill:url(#gradient0-0)"
       inkscape:connector-curvature="0" />
    <linearGradient
       y2="12.92"
       x2="58.709999"
       y1="10.16"
       x1="42.830002"
       gradientUnits="userSpaceOnUse"
       id="gradient1-4">
      <stop
         id="stop3243"
         stop-color="#9e8707"
         offset="0.1847" />
      <stop
         id="stop3245"
         stop-color="#b59e04"
         offset="0" />
      <stop
         id="stop3247-8"
         stop-color="#eec740"
         offset="1" />
    </linearGradient>
    <path
       id="path3249"
       d="m 38,62 8,-8 V 30 l -8,6 v 26 z"
       style="fill:url(#gradient1-4)"
       inkscape:connector-curvature="0" />
    <linearGradient
       y2="15.75"
       x2="45.75"
       y1="15.75"
       x1="26.25"
       gradientUnits="userSpaceOnUse"
       id="gradient2-7">
      <stop
         id="stop3252"
         stop-color="#f6e156"
         offset="0.3695" />
      <stop
         id="stop3254-0"
         stop-color="#c9a514"
         offset="0.5833" />
      <stop
         id="stop3256"
         stop-color="#f7e35d"
         offset="1" />
      <stop
         id="stop3258"
         stop-color="#c9a515"
         offset="0" />
    </linearGradient>
    <path
       id="path3260"
       d="m 24,28 h 12 v 5 h 6 l 4,-3 C 46,30 34.88,25.96 32,25 30.97,24.65 29.92,24.32 28.91,24.01 L 26,24 24,28 z"
       style="fill:url(#gradient2-7)"
       inkscape:connector-curvature="0" />
    <linearGradient
       y2="-6"
       x2="46"
       y1="-6"
       x1="18"
       gradientUnits="userSpaceOnUse"
       id="gradient3-8">
      <stop
         id="stop3263"
         stop-color="#fff8ea"
         offset="0" />
      <stop
         id="stop3265"
         stop-color="#f5de63"
         offset="1" />
    </linearGradient>
    <path
       id="path3267"
       d="m 14,26 c 0,0 5,2.5 11,5 6,2.5 13,5 13,5 l 4,-3 H 36 V 28 H 24 l 2,-4 2.91,0.01 C 25.19,22.85 22,22 22,22 l -8,4 z"
       style="fill:url(#gradient3-8)"
       inkscape:connector-curvature="0" />
    <path
       id="path3269"
       d="m 25,38 c -3,-1 -2,3.43 0,4.43 l -2,6.57 4,2 2,3 -8,-3.75 2,-6.25 c -2,-1 -3,-8 2,-6 z"
       style="fill:#625a02"
       inkscape:connector-curvature="0" />
    <path
       id="path3271"
       d="m 25,38 c 5,2 4,9 2,8 l 2,8 -2,-3 -4,-2 2,-6.57 C 23,41.43 22,37 25,38 z M 22,17 v 8 c 0,0.66 0.67,1 2,1 1.32,0 2,-0.34 2,-1 v -6 c 0,-4 0,-10 4,-9 4,1 4,8 4,13 v 7 c 0,1 0.98,1.03 2,1 0.97,-0.03 2,0 2,-1 V 25 C 38,20 39,8 30,6 23.45,4.54 22,12 22,17 z"
       style="fill:#272401"
       inkscape:connector-curvature="0" />
    <path
       id="path3273"
       d="m 22,17 v 8 c 0,0.66 0.67,1 2,1 1.32,0 2,-0.34 2,-1 v -6 c 0,-4 0,-10 4,-9 4,1 4,8 4,13 v 7 c 0,1 0.98,1.03 2,1 0.97,-0.03 2,0 2,-1 V 25 C 38,20 39,8 30,6 23.45,4.54 22,12 22,17 z"
       style="fill:none;stroke:#000000;stroke-width:4;stroke-linecap:round"
       inkscape:connector-curvature="0" />
    <radialGradient
       gradientTransform="matrix(0.2161,-0.0247,0.0534,0.4665,30.2118,22.626)"
       r="64"
       cy="0"
       cx="0"
       gradientUnits="userSpaceOnUse"
       id="gradient4">
      <stop
         id="stop3276"
         stop-color="#bebebe"
         offset="0.2971" />
      <stop
         id="stop3278"
         stop-color="#ffffff"
         offset="0.6014" />
      <stop
         id="stop3280"
         stop-color="#767676"
         offset="0.3949" />
    </radialGradient>
    <path
       id="path3282"
       d="m 22,17 v 8 c 0,0.66 0.67,1 2,1 1.32,0 2,-0.34 2,-1 v -6 c 0,-4 0,-10 4,-9 4,1 4,8 4,13 v 7 c 0,1 0.98,1.03 2,1 0.97,-0.03 2,0 2,-1 V 25 C 38,20 39,8 30,6 23.45,4.54 22,12 22,17 z"
       style="fill:url(#radialGradient3321)"
       inkscape:connector-curvature="0" />
  </g>
</svg>
