<?xml version="1.0" encoding="UTF-8" standalone="yes"?>
<svg version="1.1" width="64" height="64" color-interpolation="linearRGB"
     xmlns:svg="http://www.w3.org/2000/svg" xmlns="http://www.w3.org/2000/svg">
 <g>
  <path style="fill:none; stroke:#ffffff; stroke-width:0.0618"
        d="M0 0H63.34V63.34H0V0z"
  />
  <path style="fill:#020202"
        d="M50.4 3.62C51.59 2.44 53.57 2.37 55.02 3.03C57.86 4.81 57.86 9.36 55.09 11.21C55.68 12.86 56.28 14.58 56.94 16.29C58.85 16.56 60.76 16.69 62.68 16.69C62.68 30.21 62.68 43.81 62.68 57.33C54.96 56.61 47.24 55.95 39.58 55.15C37.01 54.63 34.83 56.34 32.32 56.47C29.36 56.61 26.72 54.56 23.75 55.15C16.09 55.88 8.37 56.61 0.65 57.33C0.65 43.74 0.59 30.21 0.65 16.69C2.44 16.69 4.22 16.69 6 16.69C6.72 15.1 7.45 13.45 8.04 11.81C13.72 10.42 19.79 9.17 25.6 10.62C28.23 11.15 29.88 13.39 31.67 15.24C33.18 13.65 34.5 11.74 36.75 11.01C39.05 10.09 41.56 10.16 44 9.76C46.38 7.98 48.09 5.47 50.4 3.62z"
  />
  <path style="fill:none; stroke:#020202; stroke-width:0.0618"
        d="M50.4 3.62C51.59 2.44 53.57 2.37 55.02 3.03C57.86 4.81 57.86 9.36 55.09 11.21C55.68 12.86 56.28 14.58 56.94 16.29C58.85 16.56 60.76 16.69 62.68 16.69C62.68 30.21 62.68 43.81 62.68 57.33C54.96 56.61 47.24 55.95 39.58 55.15C37.01 54.63 34.83 56.34 32.32 56.47C29.36 56.61 26.72 54.56 23.75 55.15C16.09 55.88 8.37 56.61 0.65 57.33C0.65 43.74 0.59 30.21 0.65 16.69C2.44 16.69 4.22 16.69 6 16.69C6.72 15.1 7.45 13.45 8.04 11.81C13.72 10.42 19.79 9.17 25.6 10.62C28.23 11.15 29.88 13.39 31.67 15.24C33.18 13.65 34.5 11.74 36.75 11.01C39.05 10.09 41.56 10.16 44 9.76C46.38 7.98 48.09 5.47 50.4 3.62z"
  />
  <path style="fill:#cdcdcd"
        d="M49.15 6.92C50.47 5.6 51.66 3.95 53.44 3.23C52.71 5.27 50.93 6.46 49.55 7.98C48.09 9.43 46.84 11.28 44.79 11.94C45.72 9.89 47.63 8.51 49.15 6.92z"
  />
  <path style="fill:none; stroke:#cdcdcd; stroke-width:0.0618"
        d="M49.15 6.92C50.47 5.6 51.66 3.95 53.44 3.23C52.71 5.27 50.93 6.46 49.55 7.98C48.09 9.43 46.84 11.28 44.79 11.94C45.72 9.89 47.63 8.51 49.15 6.92z"
  />
  <path style="fill:#ffffff"
        d="M9.69 13.06C14.64 11.54 19.99 10.68 25.13 11.74C26.91 12.4 29.42 13.19 29.62 15.43C24.8 15.5 19.52 17.08 16.49 21.11C14.71 23.55 15.24 26.72 15.3 29.62C15.57 32.19 15.5 35.23 17.48 37.27C20.98 40.9 26.25 41.76 31.01 42.29C31.01 43.81 31.01 45.26 31.01 46.71C25.07 41.69 16.75 43.54 9.76 44.47C9.69 34.04 9.76 23.55 9.69 13.06z"
  />
  <path style="fill:none; stroke:#ffffff; stroke-width:0.0618"
        d="M9.69 13.06C14.64 11.54 19.99 10.68 25.13 11.74C26.91 12.4 29.42 13.19 29.62 15.43C24.8 15.5 19.52 17.08 16.49 21.11C14.71 23.55 15.24 26.72 15.3 29.62C15.57 32.19 15.5 35.23 17.48 37.27C20.98 40.9 26.25 41.76 31.01 42.29C31.01 43.81 31.01 45.26 31.01 46.71C25.07 41.69 16.75 43.54 9.76 44.47C9.69 34.04 9.76 23.55 9.69 13.06z"
  />
  <path style="fill:#fdfdfd"
        d="M33.45 14.64C35.62 12 39.19 11.28 42.49 11.28C41.1 12.86 39.78 14.44 38 15.57C36.42 15.76 34.83 15.43 33.45 14.64z"
  />
  <path style="fill:none; stroke:#fdfdfd; stroke-width:0.0618"
        d="M33.45 14.64C35.62 12 39.19 11.28 42.49 11.28C41.1 12.86 39.78 14.44 38 15.57C36.42 15.76 34.83 15.43 33.45 14.64z"
  />
  <path style="fill:#cdcdcd"
        d="M40.18 16.23C41.03 14.84 42.16 13.65 43.61 12.86C44.99 12.6 46.77 13.72 46.71 15.24C46.97 16.49 46.05 17.48 45.39 18.4C43.67 17.68 41.89 16.95 40.18 16.23z"
  />
  <path style="fill:none; stroke:#cdcdcd; stroke-width:0.0618"
        d="M40.18 16.23C41.03 14.84 42.16 13.65 43.61 12.86C44.99 12.6 46.77 13.72 46.71 15.24C46.97 16.49 46.05 17.48 45.39 18.4C43.67 17.68 41.89 16.95 40.18 16.23z"
  />
  <path style="fill:#ffffff"
        d="M5.6 21.77C5.47 19.26 7.25 17.22 8.31 15.1C8.37 24.34 8.31 33.64 8.37 42.88C8.51 45.39 6.99 47.57 5.74 49.61C5.54 40.31 5.67 31.07 5.6 21.77z"
  />
  <path style="fill:none; stroke:#ffffff; stroke-width:0.0618"
        d="M5.6 21.77C5.47 19.26 7.25 17.22 8.31 15.1C8.37 24.34 8.31 33.64 8.37 42.88C8.51 45.39 6.99 47.57 5.74 49.61C5.54 40.31 5.67 31.07 5.6 21.77z"
  />
  <path style="fill:#ffffff"
        d="M47.57 20.38C49.41 18.4 51.2 16.23 53.5 14.71C53.77 19.33 53.57 23.95 53.57 28.5C52.32 26.45 50.67 24.74 48.95 23.09C48.23 22.36 48.03 21.31 47.57 20.38z"
  />
  <path style="fill:none; stroke:#ffffff; stroke-width:0.0618"
        d="M47.57 20.38C49.41 18.4 51.2 16.23 53.5 14.71C53.77 19.33 53.57 23.95 53.57 28.5C52.32 26.45 50.67 24.74 48.95 23.09C48.23 22.36 48.03 21.31 47.57 20.38z"
  />
  <path style="fill:#bbb5a1"
        d="M54.96 15.1C56.08 17.22 57.79 19.26 57.73 21.77C57.66 31.01 57.73 40.31 57.66 49.61C56.14 47.7 54.82 45.45 54.96 42.95C55.02 33.64 54.96 24.34 54.96 15.1z"
  />
  <path style="fill:none; stroke:#bbb5a1; stroke-width:0.0618"
        d="M54.96 15.1C56.08 17.22 57.79 19.26 57.73 21.77C57.66 31.01 57.73 40.31 57.66 49.61C56.14 47.7 54.82 45.45 54.96 42.95C55.02 33.64 54.96 24.34 54.96 15.1z"
  />
  <path style="fill:#fbfbfb"
        d="M26.72 17.02C31.86 16.56 37.34 16.23 42.16 18.54C44.79 19.72 47.5 21.97 47.7 25.07C47.5 27.97 45.12 30.28 42.62 31.47C35.95 34.57 27.97 34.5 21.37 31.34C18.6 29.95 15.76 26.91 16.89 23.62C18.4 19.59 22.89 17.88 26.72 17.02z"
  />
  <path style="fill:none; stroke:#fbfbfb; stroke-width:0.0618"
        d="M26.72 17.02C31.86 16.56 37.34 16.23 42.16 18.54C44.79 19.72 47.5 21.97 47.7 25.07C47.5 27.97 45.12 30.28 42.62 31.47C35.95 34.57 27.97 34.5 21.37 31.34C18.6 29.95 15.76 26.91 16.89 23.62C18.4 19.59 22.89 17.88 26.72 17.02z"
  />
  <path style="fill:#e9b109"
        d="M2.11 17.74C3.1 17.68 4.15 17.61 5.21 17.55C3.89 20.58 4.35 23.88 4.28 27.05C4.22 35.62 4.35 44.2 4.22 52.78C11.41 52.58 18.6 52.05 25.73 51.46C27.77 51.39 29.62 52.71 31.6 52.84C33.71 52.78 35.49 51.39 37.6 51.46C44.73 52.05 51.92 52.65 59.11 52.78C58.98 42.42 59.11 32.06 59.05 21.77C59.11 20.25 58.52 18.87 57.99 17.48C59.11 17.55 60.23 17.61 61.36 17.61C61.36 30.21 61.36 42.82 61.36 55.42C54.03 55.09 46.84 54.36 39.58 53.77C37.27 53.44 35.16 54.63 32.98 55.09C30.02 55.68 27.38 53.37 24.41 53.77C16.95 54.36 9.5 55.09 1.97 55.42C2.04 42.82 1.84 30.28 2.11 17.74z"
  />
  <path style="fill:none; stroke:#e9b109; stroke-width:0.0618"
        d="M2.11 17.74C3.1 17.68 4.15 17.61 5.21 17.55C3.89 20.58 4.35 23.88 4.28 27.05C4.22 35.62 4.35 44.2 4.22 52.78C11.41 52.58 18.6 52.05 25.73 51.46C27.77 51.39 29.62 52.71 31.6 52.84C33.71 52.78 35.49 51.39 37.6 51.46C44.73 52.05 51.92 52.65 59.11 52.78C58.98 42.42 59.11 32.06 59.05 21.77C59.11 20.25 58.52 18.87 57.99 17.48C59.11 17.55 60.23 17.61 61.36 17.61C61.36 30.21 61.36 42.82 61.36 55.42C54.03 55.09 46.84 54.36 39.58 53.77C37.27 53.44 35.16 54.63 32.98 55.09C30.02 55.68 27.38 53.37 24.41 53.77C16.95 54.36 9.5 55.09 1.97 55.42C2.04 42.82 1.84 30.28 2.11 17.74z"
  />
  <path style="fill:#161416"
        d="M28.63 18.34C33.25 17.94 38.13 18.01 42.16 20.51C44.14 21.77 45.85 24.14 45.06 26.58C43.34 29.95 39.45 31.2 36.02 31.86C31.07 32.39 25.73 32.19 21.5 29.29C19.66 28.04 18.21 25.53 19.46 23.35C21.11 19.99 25.2 18.93 28.63 18.34z"
  />
  <path style="fill:none; stroke:#161416; stroke-width:0.0618"
        d="M28.63 18.34C33.25 17.94 38.13 18.01 42.16 20.51C44.14 21.77 45.85 24.14 45.06 26.58C43.34 29.95 39.45 31.2 36.02 31.86C31.07 32.39 25.73 32.19 21.5 29.29C19.66 28.04 18.21 25.53 19.46 23.35C21.11 19.99 25.2 18.93 28.63 18.34z"
  />
  <path style="fill:#c9c8e3"
        d="M22.3 22.23C27.05 19.13 33.38 19 38.72 20.65C41.03 21.37 43.48 22.82 43.87 25.46C42.95 25.33 42.09 25.07 41.23 24.61C41.03 24.47 40.57 24.21 40.31 24.08C37.01 22.49 33.18 22.49 29.55 22.89C29.16 23.48 28.7 24.08 28.3 24.61C27.84 25.2 27.38 25.73 26.91 26.25C26.52 25.66 26.19 25 25.79 24.41C23.95 24.54 22.3 25.46 20.71 26.39C20.58 24.8 20.78 23.15 22.3 22.23z"
  />
  <path style="fill:none; stroke:#c9c8e3; stroke-width:0.0618"
        d="M22.3 22.23C27.05 19.13 33.38 19 38.72 20.65C41.03 21.37 43.48 22.82 43.87 25.46C42.95 25.33 42.09 25.07 41.23 24.61C41.03 24.47 40.57 24.21 40.31 24.08C37.01 22.49 33.18 22.49 29.55 22.89C29.16 23.48 28.7 24.08 28.3 24.61C27.84 25.2 27.38 25.73 26.91 26.25C26.52 25.66 26.19 25 25.79 24.41C23.95 24.54 22.3 25.46 20.71 26.39C20.58 24.8 20.78 23.15 22.3 22.23z"
  />
  <path style="fill:#66647e"
        d="M29.55 22.89C33.18 22.49 37.01 22.49 40.31 24.08C40.11 24.34 39.58 24.8 39.32 25.07C35.69 24.67 32 24.47 28.3 24.61C28.7 24.08 29.16 23.48 29.55 22.89z"
  />
  <path style="fill:none; stroke:#66647e; stroke-width:0.0618"
        d="M29.55 22.89C33.18 22.49 37.01 22.49 40.31 24.08C40.11 24.34 39.58 24.8 39.32 25.07C35.69 24.67 32 24.47 28.3 24.61C28.7 24.08 29.16 23.48 29.55 22.89z"
  />
  <path style="fill:#7f7f7f"
        d="M48.95 23.09C50.67 24.74 52.32 26.45 53.57 28.5C53.83 30.15 53.9 31.86 53.57 33.45C50.73 38.07 45.59 41.17 40.18 41.43C43.28 40.04 46.71 38.33 48.23 35.1C49.55 31.2 48.82 27.05 48.95 23.09z"
  />
  <path style="fill:none; stroke:#7f7f7f; stroke-width:0.0618"
        d="M48.95 23.09C50.67 24.74 52.32 26.45 53.57 28.5C53.83 30.15 53.9 31.86 53.57 33.45C50.73 38.07 45.59 41.17 40.18 41.43C43.28 40.04 46.71 38.33 48.23 35.1C49.55 31.2 48.82 27.05 48.95 23.09z"
  />
  <path style="fill:#b2afd7"
        d="M40.31 24.08C40.57 24.21 41.03 24.47 41.23 24.61C41.69 25.66 42.22 26.65 42.68 27.71C36.88 31.6 28.89 31.6 22.69 28.5C23.81 27.18 24.87 25.86 25.79 24.41C26.19 25 26.52 25.66 26.91 26.25C27.38 25.73 27.84 25.2 28.3 24.61C32 24.47 35.69 24.67 39.32 25.07C39.58 24.8 40.11 24.34 40.31 24.08z"
  />
  <path style="fill:none; stroke:#b2afd7; stroke-width:0.0618"
        d="M40.31 24.08C40.57 24.21 41.03 24.47 41.23 24.61C41.69 25.66 42.22 26.65 42.68 27.71C36.88 31.6 28.89 31.6 22.69 28.5C23.81 27.18 24.87 25.86 25.79 24.41C26.19 25 26.52 25.66 26.91 26.25C27.38 25.73 27.84 25.2 28.3 24.61C32 24.47 35.69 24.67 39.32 25.07C39.58 24.8 40.11 24.34 40.31 24.08z"
  />
  <path style="fill:#75728e"
        d="M20.71 26.39C22.3 25.46 23.95 24.54 25.79 24.41C24.87 25.86 23.81 27.18 22.69 28.5C22.03 27.77 21.37 27.11 20.71 26.39z"
  />
  <path style="fill:none; stroke:#75728e; stroke-width:0.0618"
        d="M20.71 26.39C22.3 25.46 23.95 24.54 25.79 24.41C24.87 25.86 23.81 27.18 22.69 28.5C22.03 27.77 21.37 27.11 20.71 26.39z"
  />
  <path style="fill:#cecce5"
        d="M36.28 28.96C36.09 26.65 38.72 26.06 40.44 25.53C40.24 27.71 38.4 29.09 36.28 28.96z"
  />
  <path style="fill:none; stroke:#cecce5; stroke-width:0.0618"
        d="M36.28 28.96C36.09 26.65 38.72 26.06 40.44 25.53C40.24 27.71 38.4 29.09 36.28 28.96z"
  />
  <path style="fill:#9e9dc0"
        d="M16.95 30.35C19.99 32.72 23.62 33.78 27.18 35.1C26.72 35.1 25.79 35.23 25.33 35.23C25.33 36.81 25.4 38.33 25.4 39.91C22.76 39.19 20.05 38 18.27 35.82C17.02 34.3 16.89 32.26 16.95 30.35z"
  />
  <path style="fill:none; stroke:#9e9dc0; stroke-width:0.0618"
        d="M16.95 30.35C19.99 32.72 23.62 33.78 27.18 35.1C26.72 35.1 25.79 35.23 25.33 35.23C25.33 36.81 25.4 38.33 25.4 39.91C22.76 39.19 20.05 38 18.27 35.82C17.02 34.3 16.89 32.26 16.95 30.35z"
  />
  <path style="fill:#9c9cbe"
        d="M42.42 33.18C44.14 32.39 45.72 31.27 47.3 30.35C48.23 36.28 42.02 39.71 36.94 40.31C38.72 39.19 39.52 37.27 39.58 35.29C38.66 35.16 37.74 35.1 36.81 35.03C38.59 34.17 40.57 33.91 42.42 33.18z"
  />
  <path style="fill:none; stroke:#9c9cbe; stroke-width:0.0618"
        d="M42.42 33.18C44.14 32.39 45.72 31.27 47.3 30.35C48.23 36.28 42.02 39.71 36.94 40.31C38.72 39.19 39.52 37.27 39.58 35.29C38.66 35.16 37.74 35.1 36.81 35.03C38.59 34.17 40.57 33.91 42.42 33.18z"
  />
  <path style="fill:#ffffff"
        d="M40.18 41.43C45.59 41.17 50.73 38.07 53.57 33.45C53.64 37.14 53.64 40.84 53.57 44.47C48.23 43.54 42.62 42.75 37.21 44C35.36 44.47 33.84 45.72 32.32 46.84C32.32 45.32 32.32 43.81 32.32 42.29C34.96 42.16 37.54 41.69 40.18 41.43z"
  />
  <path style="fill:none; stroke:#ffffff; stroke-width:0.0618"
        d="M40.18 41.43C45.59 41.17 50.73 38.07 53.57 33.45C53.64 37.14 53.64 40.84 53.57 44.47C48.23 43.54 42.62 42.75 37.21 44C35.36 44.47 33.84 45.72 32.32 46.84C32.32 45.32 32.32 43.81 32.32 42.29C34.96 42.16 37.54 41.69 40.18 41.43z"
  />
  <path style="fill:#dadae5"
        d="M25.33 35.23C25.79 35.23 26.72 35.1 27.18 35.1C30.41 35.16 33.58 35.1 36.81 35.03C37.74 35.1 38.66 35.16 39.58 35.29C39.52 37.27 38.72 39.19 36.94 40.31C33.12 41.43 29.22 40.7 25.4 39.91C25.4 38.33 25.33 36.81 25.33 35.23z"
  />
  <path style="fill:none; stroke:#dadae5; stroke-width:0.0618"
        d="M25.33 35.23C25.79 35.23 26.72 35.1 27.18 35.1C30.41 35.16 33.58 35.1 36.81 35.03C37.74 35.1 38.66 35.16 39.58 35.29C39.52 37.27 38.72 39.19 36.94 40.31C33.12 41.43 29.22 40.7 25.4 39.91C25.4 38.33 25.33 36.81 25.33 35.23z"
  />
  <path style="fill:#bbb5a1"
        d="M9.69 45.98C14.91 44.73 20.58 44.14 25.86 45.32C28.89 45.85 30.81 48.69 31.14 51.59C29.16 50.93 27.24 49.81 25.07 50.14C19 50.67 12.93 51.33 6.79 51.52C7.58 49.61 8.04 47.3 9.69 45.98z"
  />
  <path style="fill:none; stroke:#bbb5a1; stroke-width:0.0618"
        d="M9.69 45.98C14.91 44.73 20.58 44.14 25.86 45.32C28.89 45.85 30.81 48.69 31.14 51.59C29.16 50.93 27.24 49.81 25.07 50.14C19 50.67 12.93 51.33 6.79 51.52C7.58 49.61 8.04 47.3 9.69 45.98z"
  />
  <path style="fill:#bbb5a1"
        d="M34.3 46.84C37.47 44.33 41.76 44.66 45.52 44.79C48.49 45.19 51.66 45.12 54.43 46.44C55.48 48.03 56.14 49.81 56.8 51.52C50.4 51.26 44 50.54 37.6 50.14C35.62 49.94 34.04 51.13 32.26 51.66C32.39 49.88 32.85 47.96 34.3 46.84z"
  />
  <path style="fill:none; stroke:#bbb5a1; stroke-width:0.0618"
        d="M34.3 46.84C37.47 44.33 41.76 44.66 45.52 44.79C48.49 45.19 51.66 45.12 54.43 46.44C55.48 48.03 56.14 49.81 56.8 51.52C50.4 51.26 44 50.54 37.6 50.14C35.62 49.94 34.04 51.13 32.26 51.66C32.39 49.88 32.85 47.96 34.3 46.84z"
  />
 </g>
</svg>
