<?xml version="1.0" encoding="UTF-8" standalone="no"?>
<svg
   xmlns:dc="http://purl.org/dc/elements/1.1/"
   xmlns:cc="http://creativecommons.org/ns#"
   xmlns:rdf="http://www.w3.org/1999/02/22-rdf-syntax-ns#"
   xmlns:svg="http://www.w3.org/2000/svg"
   xmlns="http://www.w3.org/2000/svg"
   xmlns:sodipodi="http://sodipodi.sourceforge.net/DTD/sodipodi-0.dtd"
   xmlns:inkscape="http://www.inkscape.org/namespaces/inkscape"
   version="1.1"
   width="64"
   height="64"
   color-interpolation="linearRGB"
   id="svg2"
   inkscape:version="0.91 r13725"
   sodipodi:docname="gmpc2222.svg">
  <metadata
     id="metadata63">
    <rdf:RDF>
      <cc:Work
         rdf:about="">
        <dc:format>image/svg+xml</dc:format>
        <dc:type
           rdf:resource="http://purl.org/dc/dcmitype/StillImage" />
        <dc:title></dc:title>
      </cc:Work>
    </rdf:RDF>
  </metadata>
  <defs
     id="defs61" />
  <sodipodi:namedview
     pagecolor="#ffffff"
     bordercolor="#666666"
     borderopacity="1"
     objecttolerance="10"
     gridtolerance="10"
     guidetolerance="10"
     inkscape:pageopacity="0"
     inkscape:pageshadow="2"
     inkscape:window-width="1173"
     inkscape:window-height="669"
     id="namedview59"
     showgrid="false"
     inkscape:zoom="6.1650391"
     inkscape:cx="32"
     inkscape:cy="32"
     inkscape:window-x="346"
     inkscape:window-y="266"
     inkscape:window-maximized="0"
     inkscape:current-layer="svg2" />
  <g
     id="g4"
     transform="translate(-3.8929194,0.81102487)">
    <path
       style="fill:#000000;fill-opacity:0.32940004"
       d="M 6,52 26,38 44,37 60,43 44,64 30,64 6,52 Z"
       id="path6"
       inkscape:connector-curvature="0" />
    <path
       style="fill:none;stroke:#000000;stroke-width:4;stroke-linecap:round"
       d="m 10,46 0,6"
       id="path8"
       inkscape:connector-curvature="0" />
    <path
       style="fill:none;stroke:#000000;stroke-width:4;stroke-linecap:round"
       d="m 10,46 0,6"
       transform="translate(16,9)"
       id="path10"
       inkscape:connector-curvature="0" />
    <path
       style="fill:none;stroke:#000000;stroke-width:4;stroke-linecap:round"
       d="m 10,46 0,6"
       transform="translate(32,-5)"
       id="path12"
       inkscape:connector-curvature="0" />
    <path
       style="fill:none;stroke:#000000;stroke-width:4"
       d="M 24,2 6,14 6,47 28,58 46,40 46,10 24,2 Z"
       id="path14"
       inkscape:connector-curvature="0" />
    <linearGradient
       id="gradient0"
       gradientUnits="userSpaceOnUse"
       x1="27.65"
       y1="-1.9400001"
       x2="51.700001"
       y2="19.120001">
      <stop
         offset="0"
         stop-color="#e7bb8f"
         id="stop17" />
      <stop
         offset="1"
         stop-color="#c99867"
         id="stop19" />
    </linearGradient>
    <path
       style="fill:url(#gradient0)"
       d="M 6,14 6,47 28,58 28,23 6,14 Z"
       id="path21"
       inkscape:connector-curvature="0" />
    <linearGradient
       id="gradient1"
       gradientUnits="userSpaceOnUse"
       x1="48.049999"
       y1="-27.809999"
       x2="77.269997"
       y2="-16.549999">
      <stop
         offset="0"
         stop-color="#8a561d"
         id="stop24" />
      <stop
         offset="1"
         stop-color="#b57a3a"
         id="stop26" />
    </linearGradient>
    <path
       style="fill:url(#gradient1)"
       d="M 28,23 28,58 46,40 46,10 28,23 Z"
       id="path28"
       inkscape:connector-curvature="0" />
    <linearGradient
       id="gradient2"
       gradientUnits="userSpaceOnUse"
       x1="31.91"
       y1="46.25"
       x2="4.4099998"
       y2="34.93">
      <stop
         offset="0"
         stop-color="#ffc790"
         id="stop31" />
      <stop
         offset="1"
         stop-color="#fff4ea"
         id="stop33" />
    </linearGradient>
    <path
       style="fill:url(#gradient2)"
       d="M 24,2 6,14 28,23 46,10 24,2 Z"
       id="path35"
       inkscape:connector-curvature="0" />
    <path
       style="fill:#663300"
       d="M 8,18 8,46 26,55 26,25 8,18 Z"
       id="path37"
       inkscape:connector-curvature="0" />
    <path
       style="fill:#ffdfc0"
       d="m 10,21 0,11 1,-8 13,3 -14,-6 z m 0,24 1,-7 13,3 -14,-6 0,10 z"
       id="path39"
       inkscape:connector-curvature="0" />
    <linearGradient
       id="gradient3"
       gradientUnits="userSpaceOnUse"
       x1="27.65"
       y1="-1.9400001"
       x2="51.700001"
       y2="19.120001">
      <stop
         offset="0"
         stop-color="#e7bb8f"
         id="stop42" />
      <stop
         offset="1"
         stop-color="#c99867"
         id="stop44" />
    </linearGradient>
    <path
       style="fill:url(#gradient3)"
       d="m 10,45 12,5 2,-9 -13,-3 -1,7 z m 1,-21 -1,8 12,4 2,-9 -13,-3 z"
       id="path46"
       inkscape:connector-curvature="0" />
    <path
       style="fill:#ad7238"
       d="m 22,36 -12,-4 14,6 0,-11 -2,9 z m -12,9 14,7 0,-11 -2,9 -12,-5 z"
       id="path48"
       inkscape:connector-curvature="0" />
    <linearGradient
       id="gradient4"
       gradientUnits="userSpaceOnUse"
       x1="48.049999"
       y1="-27.809999"
       x2="77.269997"
       y2="-16.549999">
      <stop
         offset="0"
         stop-color="#8a561d"
         id="stop51" />
      <stop
         offset="1"
         stop-color="#b57a3a"
         id="stop53" />
    </linearGradient>
    <path
       style="fill:url(#gradient4)"
       d="m 14,44 6.5,3.25 0,-2 L 14,42 l 0,2 z m 0,-15.38 0,2 6.52,2.63 0,-2 L 14,28.62 Z"
       id="path55"
       inkscape:connector-curvature="0" />
    <path
       style="fill:#000000"
       d="m 12,41 8,4 0,-2 -8,-4 0,2 z m 0,-15.5 0,2 8,3.5 0,-2 -8,-3.5 z"
       id="path57"
       inkscape:connector-curvature="0" />
  </g>
  <g
     style="color-interpolation:linearRGB"
     id="g7560"
     transform="matrix(0.80693212,0,0,0.80693212,17.205771,12.506453)">
    <g
       id="g7519">
      <radialGradient
         gradientTransform="matrix(0.1386,0,0,0.1523,56.25,6.75)"
         r="64"
         cy="0"
         cx="0"
         gradientUnits="userSpaceOnUse"
         id="gradient0-3">
        <stop
           id="stop7522"
           stop-opacity="0.4705"
           stop-color="#010101"
           offset="1" />
        <stop
           id="stop7524"
           stop-opacity="0"
           stop-color="#010101"
           offset="0" />
      </radialGradient>
      <path
         id="path7526"
         transform="translate(2,1)"
         d="m 45,27 c 3,-3 9,-1 9,-7 C 54,14 34,16 34,12 34,8 48,6 56,6"
         style="fill:none;stroke:url(#gradient0-3);stroke-width:4"
         inkscape:connector-curvature="0" />
      <path
         id="path7528"
         transform="translate(2,0)"
         d="M 4,48 28,60 52,36 45,27 26,28 4,48 Z"
         style="fill:none;stroke:#010101;stroke-width:6;stroke-opacity:0.47449999"
         inkscape:connector-curvature="0" />
      <radialGradient
         gradientTransform="matrix(0.1445,0,0,0.1523,54.5,6)"
         r="64"
         cy="0"
         cx="0"
         gradientUnits="userSpaceOnUse"
         id="gradient1-6">
        <stop
           id="stop7531"
           stop-color="#010101"
           offset="1" />
        <stop
           id="stop7533"
           stop-opacity="0"
           stop-color="#010101"
           offset="0" />
      </radialGradient>
      <path
         id="path7535"
         d="m 45,27 c 3,-3 9,-1 9,-7 C 54,14 34,16 34,12 34,8 48,6 56,6"
         style="fill:none;stroke:url(#gradient1-6);stroke-width:4"
         inkscape:connector-curvature="0" />
      <path
         id="path7537"
         d="M 4,48 28,60 52,36 45,27 26,28 4,48 Z"
         style="fill:none;stroke:#010101;stroke-width:4"
         inkscape:connector-curvature="0" />
      <linearGradient
         y2="26.48"
         x2="84.160004"
         y1="1.98"
         x1="71.910004"
         gradientUnits="userSpaceOnUse"
         id="gradient2-7">
        <stop
           id="stop7540"
           stop-color="#ffea97"
           offset="0" />
        <stop
           id="stop7542"
           stop-color="#f0c620"
           offset="1" />
      </linearGradient>
      <path
         id="path7544"
         d="M 4,48 28,60 52,36 45,27 26,28 4,48 Z"
         style="fill:url(#gradient2-7)"
         inkscape:connector-curvature="0" />
      <path
         id="path7546"
         d="M 18,48 31,36"
         style="fill:none;stroke:#010101;stroke-width:2"
         inkscape:connector-curvature="0" />
      <path
         id="path7548"
         d="M 12,48 29,32"
         style="fill:none;stroke:#010101;stroke-width:2"
         inkscape:connector-curvature="0" />
      <path
         id="path7550"
         transform="translate(8,4)"
         d="M 18,48 31,36"
         style="fill:none;stroke:#010101;stroke-width:2"
         inkscape:connector-curvature="0" />
      <path
         id="path7552"
         transform="translate(8,4)"
         d="M 12,48 29,32"
         style="fill:none;stroke:#010101;stroke-width:2"
         inkscape:connector-curvature="0" />
    </g>
  </g>
</svg>
