<?xml version="1.0" encoding="UTF-8" standalone="no"?>
<!DOCTYPE svg PUBLIC "-//W3C//DTD SVG 20010904//EN"
"http://www.w3.org/TR/2001/REC-SVG-20010904/DTD/svg10.dtd">
<!-- Created with Sodipodi ("http://www.sodipodi.com/") -->
<svg
   i:viewOrigin="178 524"
   i:rulerOrigin="-178 -268"
   i:pageBounds="178 524 434 268"
   width="48pt"
   height="48pt"
   viewBox="0 0 256 256"
   style="overflow:visible;enable-background:new 0 0 256 256"
   xml:space="preserve"
   xmlns="http://www.w3.org/2000/svg"
   xmlns:ns="&amp;ns_vars;"
   xmlns:i="&amp;ns_ai;"
   xmlns:xml="http://www.w3.org/XML/1998/namespace"
   xmlns:sodipodi="http://sodipodi.sourceforge.net/DTD/sodipodi-0.dtd"
   xmlns:xlink="http://www.w3.org/1999/xlink"
   id="svg153"
   sodipodi:version="0.32pre"
   sodipodi:docname="/home/cschalle/gnome-themes-extras/Nuvola/icons/scalable/apps/gnome-evolution.svg"
   sodipodi:docbase="/home/cschalle/gnome-themes-extras/Nuvola/icons/scalable/apps">
  <defs
     id="defs209" />
  <sodipodi:namedview
     id="base" />
  <metadata
     id="metadata154">
    <ns:variableSets>
      <ns:variableSet
         varSetName="binding1"
         locked="none">
        <ns:variables />
        <ns:sampleDataSets />
      </ns:variableSet>
    </ns:variableSets>
  </metadata>
  <g
     id="Layer_2"
     i:layer="yes"
     i:editable="no"
     i:dimmedPercent="50"
     i:rgbTrio="#FFFF4F004F00"
     style="stroke:#000000;">
    <path
       i:knockout="Off"
       style="opacity:0.36;fill:none;stroke:none;"
       d="M256,256H0V0h256V256z"
       id="path156" />
  </g>
  <g
     id="Layer_1"
     i:layer="yes"
     i:dimmedPercent="50"
     i:rgbTrio="#4F008000FFFF"
     style="stroke:#000000;">
    <path
       i:knockout="Off"
       style="fill:#3A55A5;stroke:none;"
       d="M236.071,3.411l-5.095,7.214L22.298,48.94L1.743,234.753l4.676,5.419l218.449-40.111    L240.747,8.83L236.071,3.411z"
       id="path158" />
    <path
       i:knockout="Off"
       style="fill:#3A55A5;stroke:none;"
       d="M216.889,191.803L16.04,228.68L30.245,57.613l200.85-36.878L216.889,191.803z"
       id="path159" />
    <path
       i:knockout="Off"
       style="fill:#3A55A5;stroke:none;"
       d="M230.718,21.166L122.726,152.67L30.709,58.563L230.718,21.166z"
       id="path160" />
    <path
       i:knockout="Off"
       style="fill:#3A55A5;stroke:none;"
       d="M230.786,20.368L122.572,132.621L30.588,57.55L230.786,20.368z"
       id="path161" />
    <path
       i:knockout="Off"
       style="opacity:0.2;stroke:none;"
       d="M29.79,58.581L13.911,249.813l218.45-40.111L248.24,18.471L29.79,58.581z"
       id="path162" />
    <linearGradient
       id="XMLID_1_"
       gradientUnits="userSpaceOnUse"
       x1="168.0361"
       y1="168.21"
       x2="83.1499"
       y2="83.3243">
      <stop
         offset="0"
         style="stop-color:#6D7BB0"
         id="stop164" />
      <stop
         offset="1"
         style="stop-color:#99ACD2"
         id="stop165" />
    </linearGradient>
    <path
       i:knockout="Off"
       style="fill:url(#XMLID_1_);stroke:none;"
       d="M231.39,4.271l-5.089,0.935L17.622,43.521L1.743,234.753l218.449-40.111L236.071,3.411    L231.39,4.271z"
       id="path169" />
    <linearGradient
       id="XMLID_2_"
       gradientUnits="userSpaceOnUse"
       x1="168.7178"
       y1="174.6357"
       x2="83.8317"
       y2="89.7503">
      <stop
         offset="0"
         style="stop-color:#6D7BB0"
         id="stop171" />
      <stop
         offset="1"
         style="stop-color:#99ACD2"
         id="stop172" />
    </linearGradient>
    <path
       i:knockout="Off"
       style="fill:url(#XMLID_2_);stroke:none;"
       d="M228.074,17.594c0,0-195.372,35.872-204.112,37.477    C23.261,63.511,10.3,219.608,9.124,233.77c14.192-2.605,197.644-36.29,206.083-37.84c0.7-8.44,13.663-164.535,14.836-178.697    C229.11,17.405,228.074,17.594,228.074,17.594z"
       id="path176" />
    <linearGradient
       id="XMLID_3_"
       gradientUnits="userSpaceOnUse"
       x1="126.9795"
       y1="130.9922"
       x2="233.5622"
       y2="237.576"
       gradientTransform="matrix(0.9929 -0.1191 -0.056 1.0138 7.7556 8.876)">
      <stop
         offset="0"
         style="stop-color:#D8E1ED"
         id="stop178" />
      <stop
         offset="1"
         style="stop-color:#5E76AA"
         id="stop179" />
    </linearGradient>
    <path
       i:knockout="Off"
       style="fill:url(#XMLID_3_);stroke:none;"
       d="M212.213,186.384L11.364,223.261L25.569,52.194l200.85-36.878L212.213,186.384z"
       id="path183" />
    <linearGradient
       id="XMLID_4_"
       gradientUnits="userSpaceOnUse"
       x1="126.0381"
       y1="144.8184"
       x2="126.0381"
       y2="77.5673">
      <stop
         offset="0"
         style="stop-color:#808DC2"
         id="stop185" />
      <stop
         offset="1"
         style="stop-color:#5E76AA"
         id="stop186" />
    </linearGradient>
    <path
       i:knockout="Off"
       style="fill:url(#XMLID_4_);stroke:none;"
       d="M226.042,15.747L118.05,147.251L26.034,53.145L226.042,15.747z"
       id="path190" />
    <linearGradient
       id="XMLID_5_"
       gradientUnits="userSpaceOnUse"
       x1="121.2769"
       y1="91.9717"
       x2="121.2769"
       y2="13.3879"
       gradientTransform="matrix(0.9929 -0.1191 -0.056 1.0138 7.7556 8.876)">
      <stop
         offset="0"
         style="stop-color:#DBE8F2"
         id="stop192" />
      <stop
         offset="0.2847"
         style="stop-color:#D9E6F1"
         id="stop193" />
      <stop
         offset="0.4359"
         style="stop-color:#D1DFED"
         id="stop194" />
      <stop
         offset="0.5557"
         style="stop-color:#C3D3E7"
         id="stop195" />
      <stop
         offset="0.659"
         style="stop-color:#B0C3DF"
         id="stop196" />
      <stop
         offset="0.7518"
         style="stop-color:#97ADD3"
         id="stop197" />
      <stop
         offset="0.837"
         style="stop-color:#7893C5"
         id="stop198" />
      <stop
         offset="0.9163"
         style="stop-color:#5473B5"
         id="stop199" />
      <stop
         offset="0.9891"
         style="stop-color:#2B50A2"
         id="stop200" />
      <stop
         offset="1"
         style="stop-color:#244A9F"
         id="stop201" />
    </linearGradient>
    <path
       i:knockout="Off"
       style="fill:url(#XMLID_5_);stroke:none;"
       d="M226.11,14.949L117.896,127.202L25.913,52.131L226.11,14.949z"
       id="path205" />
    <path
       i:knockout="Off"
       style="opacity:0.3;fill:#FFFFFF;stroke:none;"
       d="M161.286,188.736c23.618-4.43,44.142-8.28,46.437-8.708    c0.28-2.759,2.399-23.476,4.826-47.208C197.562,172.96,181.013,182.146,161.286,188.736z"
       id="path206" />
    <path
       i:knockout="Off"
       style="opacity:0.4;fill:#FFFFFF;stroke:none;"
       d="M62.959,51.423c-10.43,1.937-18.476,3.431-22.699,4.216    c-0.077,0.061-0.154,0.123-0.228,0.182c15.398,12.567,70.439,57.488,77.371,63.146c1.525-1.581,6.515-6.759,13.474-13.976    c-7.203,0.413-14.751,0.125-19.948-1.175c-11.482-2.871-42.648-29.525-49.62-41.008C57.76,56.962,59.953,53.458,62.959,51.423z"
       id="path207" />
  </g>
</svg>
