<?xml version="1.0" encoding="UTF-8" standalone="no"?>
<!-- Created with Inkscape (http://www.inkscape.org/) -->

<svg
   xmlns:dc="http://purl.org/dc/elements/1.1/"
   xmlns:cc="http://creativecommons.org/ns#"
   xmlns:rdf="http://www.w3.org/1999/02/22-rdf-syntax-ns#"
   xmlns:svg="http://www.w3.org/2000/svg"
   xmlns="http://www.w3.org/2000/svg"
   xmlns:xlink="http://www.w3.org/1999/xlink"
   xmlns:sodipodi="http://sodipodi.sourceforge.net/DTD/sodipodi-0.dtd"
   xmlns:inkscape="http://www.inkscape.org/namespaces/inkscape"
   version="1.0"
   width="48"
   height="48"
   id="svg2313"
   sodipodi:version="0.32"
   inkscape:version="0.47 r22583"
   sodipodi:docname="gnome-nibbles.svg">
  <metadata
     id="metadata53">
    <rdf:RDF>
      <cc:Work
         rdf:about="">
        <dc:format>image/svg+xml</dc:format>
        <dc:type
           rdf:resource="http://purl.org/dc/dcmitype/StillImage" />
      </cc:Work>
    </rdf:RDF>
  </metadata>
  <sodipodi:namedview
     inkscape:window-height="682"
     inkscape:window-width="1106"
     inkscape:pageshadow="2"
     inkscape:pageopacity="0.0"
     guidetolerance="10.0"
     gridtolerance="10.0"
     objecttolerance="10.0"
     borderopacity="1.0"
     bordercolor="#666666"
     pagecolor="#ffffff"
     id="base"
     inkscape:zoom="8.4791667"
     inkscape:cx="27.189533"
     inkscape:cy="23.941032"
     inkscape:window-x="85"
     inkscape:window-y="43"
     inkscape:current-layer="svg2313"
     showgrid="false"
     inkscape:window-maximized="1" />
  <defs
     id="defs2315">
    <inkscape:perspective
       sodipodi:type="inkscape:persp3d"
       inkscape:vp_x="0 : 24 : 1"
       inkscape:vp_y="0 : 1000 : 0"
       inkscape:vp_z="48 : 24 : 1"
       inkscape:persp3d-origin="24 : 16 : 1"
       id="perspective59" />
    <linearGradient
       inkscape:collect="always"
       id="linearGradient3007">
      <stop
         style="stop-color:#2e3436;stop-opacity:1;"
         offset="0"
         id="stop3009" />
      <stop
         style="stop-color:#2e3436;stop-opacity:0;"
         offset="1"
         id="stop3011" />
    </linearGradient>
    <linearGradient
       id="linearGradient8606">
      <stop
         style="stop-color:#eeeeec;stop-opacity:1"
         offset="0"
         id="stop8608" />
      <stop
         style="stop-color:#eeeeec;stop-opacity:0"
         offset="1"
         id="stop8610" />
    </linearGradient>
    <linearGradient
       id="linearGradient5941">
      <stop
         style="stop-color:#36ff00;stop-opacity:1;"
         offset="0"
         id="stop5943" />
      <stop
         style="stop-color:#208c00;stop-opacity:1;"
         offset="1"
         id="stop5945" />
    </linearGradient>
    <linearGradient
       x1="308.45105"
       y1="586.14514"
       x2="302.67966"
       y2="687.3396"
       id="linearGradient5437"
       xlink:href="#linearGradient4523"
       gradientUnits="userSpaceOnUse"
       gradientTransform="matrix(0.387139,0,0,0.387139,-61.27558,-111.004)" />
    <linearGradient
       x1="420.13742"
       y1="516.57404"
       x2="417.42685"
       y2="681.9184"
       id="linearGradient5440"
       xlink:href="#linearGradient4523"
       gradientUnits="userSpaceOnUse"
       gradientTransform="matrix(0.387139,0,0,0.387139,-61.27558,-111.004)" />
    <linearGradient
       id="linearGradient3714">
      <stop
         style="stop-color:#d0d0d0;stop-opacity:1"
         offset="0"
         id="stop3718" />
      <stop
         style="stop-color:#b0b0b0;stop-opacity:0"
         offset="1"
         id="stop3722" />
    </linearGradient>
    <linearGradient
       x1="301.55588"
       y1="483.00668"
       x2="308.30713"
       y2="497.39062"
       id="linearGradient5445"
       xlink:href="#linearGradient3714"
       gradientUnits="userSpaceOnUse"
       gradientTransform="matrix(0.387139,0,0,0.387139,-61.27558,-111.004)" />
    <linearGradient
       id="linearGradient2955">
      <stop
         style="stop-color:#d0d0d0;stop-opacity:1"
         offset="0"
         id="stop2957" />
      <stop
         style="stop-color:white;stop-opacity:1"
         offset="0.40000001"
         id="stop3689" />
      <stop
         style="stop-color:white;stop-opacity:1"
         offset="0.69999999"
         id="stop3709" />
      <stop
         style="stop-color:#d0d0d0;stop-opacity:1"
         offset="1"
         id="stop2959" />
    </linearGradient>
    <linearGradient
       x1="222.58691"
       y1="499.1156"
       x2="337.48618"
       y2="473.95703"
       id="linearGradient5453"
       xlink:href="#linearGradient2955"
       gradientUnits="userSpaceOnUse"
       gradientTransform="matrix(0.387139,0,0,0.387139,-61.27558,-111.004)" />
    <linearGradient
       id="linearGradient4523">
      <stop
         style="stop-color:#ffd089;stop-opacity:0.41911766"
         offset="0"
         id="stop4525" />
      <stop
         style="stop-color:#ffd089;stop-opacity:0"
         offset="1"
         id="stop4527" />
    </linearGradient>
    <linearGradient
       x1="222.26625"
       y1="488.56488"
       x2="240.33669"
       y2="675.59375"
       id="linearGradient5460"
       xlink:href="#linearGradient4523"
       gradientUnits="userSpaceOnUse"
       gradientTransform="matrix(0.387139,0,0,0.387139,-61.27558,-111.004)" />
    <linearGradient
       id="linearGradient4515">
      <stop
         style="stop-color:#e49f81;stop-opacity:1"
         offset="0"
         id="stop4517" />
      <stop
         style="stop-color:#bf7a5c;stop-opacity:1"
         offset="0.85000002"
         id="stop4531" />
      <stop
         style="stop-color:#9c654b;stop-opacity:1"
         offset="1"
         id="stop4519" />
    </linearGradient>
    <linearGradient
       x1="309.90781"
       y1="357.55426"
       x2="338.8205"
       y2="663.84802"
       id="linearGradient5463"
       xlink:href="#linearGradient4515"
       gradientUnits="userSpaceOnUse"
       gradientTransform="matrix(0.387139,0,0,0.387139,-61.27558,-111.004)" />
    <linearGradient
       x1="308.45105"
       y1="586.14514"
       x2="302.67966"
       y2="687.3396"
       id="linearGradient3246"
       xlink:href="#linearGradient4523"
       gradientUnits="userSpaceOnUse"
       gradientTransform="matrix(0.117878,0,0,0.117878,-18.77804,-34.15895)" />
    <linearGradient
       x1="420.13742"
       y1="516.57404"
       x2="417.42685"
       y2="681.9184"
       id="linearGradient3249"
       xlink:href="#linearGradient4523"
       gradientUnits="userSpaceOnUse"
       gradientTransform="matrix(0.117878,0,0,0.117878,-18.77804,-34.15895)" />
    <linearGradient
       x1="301.55588"
       y1="483.00668"
       x2="308.30713"
       y2="497.39062"
       id="linearGradient3254"
       xlink:href="#linearGradient3714"
       gradientUnits="userSpaceOnUse"
       gradientTransform="matrix(0.117878,0,0,0.117878,-18.77804,-35.28747)" />
    <linearGradient
       x1="222.58691"
       y1="499.1156"
       x2="337.48618"
       y2="473.95703"
       id="linearGradient3262"
       xlink:href="#linearGradient2955"
       gradientUnits="userSpaceOnUse"
       gradientTransform="matrix(0.117878,0,0,0.117878,-18.77804,-35.28747)" />
    <linearGradient
       x1="222.26625"
       y1="488.56488"
       x2="240.33669"
       y2="675.59375"
       id="linearGradient3269"
       xlink:href="#linearGradient4523"
       gradientUnits="userSpaceOnUse"
       gradientTransform="matrix(0.117878,0,0,0.117878,-18.77804,-34.15895)" />
    <linearGradient
       x1="309.90781"
       y1="357.55426"
       x2="338.8205"
       y2="663.84802"
       id="linearGradient3272"
       xlink:href="#linearGradient4515"
       gradientUnits="userSpaceOnUse"
       gradientTransform="matrix(0.117878,0,0,0.117878,-18.77804,-34.15895)" />
    <radialGradient
       cx="7.6232362"
       cy="11.80622"
       r="21.627373"
       fx="7.6232362"
       fy="11.80622"
       id="radialGradient5947"
       xlink:href="#linearGradient5941"
       gradientUnits="userSpaceOnUse"
       gradientTransform="matrix(1,0,0,1.038933,0,-2.127509)" />
    <linearGradient
       x1="0.86083812"
       y1="4.9364119"
       x2="45.033524"
       y2="25.572334"
       id="linearGradient8612"
       xlink:href="#linearGradient8606"
       gradientUnits="userSpaceOnUse"
       gradientTransform="translate(0,-1.128516)" />
    <radialGradient
       inkscape:collect="always"
       xlink:href="#linearGradient3007"
       id="radialGradient3013"
       cx="24.117935"
       cy="43.813267"
       fx="24.117935"
       fy="43.813267"
       r="23.764128"
       gradientTransform="matrix(1,0,0,0.156328,0,36.96405)"
       gradientUnits="userSpaceOnUse" />
    <linearGradient
       inkscape:collect="always"
       xlink:href="#linearGradient3714"
       id="linearGradient2867"
       gradientUnits="userSpaceOnUse"
       gradientTransform="matrix(0.117878,0,0,0.117878,-18.77804,-35.28747)"
       x1="301.55588"
       y1="483.00668"
       x2="308.30713"
       y2="497.39062" />
    <linearGradient
       inkscape:collect="always"
       xlink:href="#linearGradient2955"
       id="linearGradient2874"
       gradientUnits="userSpaceOnUse"
       gradientTransform="matrix(0.117878,0,0,0.117878,-18.77804,-35.28747)"
       x1="222.58691"
       y1="499.1156"
       x2="337.48618"
       y2="473.95703" />
    <linearGradient
       inkscape:collect="always"
       xlink:href="#linearGradient8606"
       id="linearGradient2880"
       gradientUnits="userSpaceOnUse"
       gradientTransform="translate(0,-1.128516)"
       x1="0.86083812"
       y1="4.9364119"
       x2="45.033524"
       y2="25.572334" />
    <radialGradient
       inkscape:collect="always"
       xlink:href="#linearGradient5941"
       id="radialGradient2883"
       gradientUnits="userSpaceOnUse"
       gradientTransform="matrix(1,0,0,1.038933,0,-2.127509)"
       cx="7.6232362"
       cy="11.80622"
       fx="7.6232362"
       fy="11.80622"
       r="21.627373" />
  </defs>
  <path
     sodipodi:type="arc"
     style="opacity:1;fill:url(#radialGradient3013);fill-opacity:1;stroke:none;stroke-width:1;stroke-linecap:round;stroke-linejoin:miter;stroke-miterlimit:4;stroke-dasharray:none;stroke-opacity:1"
     id="path2118"
     sodipodi:cx="24.117935"
     sodipodi:cy="43.813267"
     sodipodi:rx="23.764128"
     sodipodi:ry="3.7149878"
     d="M 47.882063 43.813267 A 23.764128 3.7149878 0 1 1  0.35380745,43.813267 A 23.764128 3.7149878 0 1 1  47.882063 43.813267 z"
     transform="matrix(1.009926,0,0,0.920635,-0.35732,4.125892)" />
  <path
     id="path5054"
     style="fill:url(#radialGradient2883);fill-opacity:1;fill-rule:evenodd;stroke:#000000;stroke-width:1px;stroke-linecap:butt;stroke-linejoin:miter;stroke-opacity:1"
     d="M 3.492233,14.383134 C 4.2009709,23.907406 12.740777,46.554008 18,46.448183 23.1822,47.25951 25.612945,38.334914 29.419417,34.27828 30.739806,33.486371 33.431359,45.554008 41,45.554008 c 2.301618,0.164078 4.603236,-0.624272 4.682524,-2.682524 0.03188,-3.213592 -6.091142,-0.968218 -8.555583,-9.746602 C 35.250666,26.441552 32.190453,23.205465 30,23.272455 26.59644,24.509025 22.346279,34.105788 20.530097,35.342358 14.356958,29.908054 25.433333,20.769866 23.599029,12.372455 22.188025,-4.7359597 2.1517799,3.5536842 3.492233,14.383134 z" />
  <path
     id="path6834"
     style="fill:none;stroke:url(#linearGradient2880);stroke-width:1px;stroke-linecap:butt;stroke-linejoin:miter;stroke-opacity:1"
     d="M 4.5504854,14.277309 C 5.2592233,23.801581 13.904855,45.284105 18,45.284105 c 5.1822,0.811327 7.189644,-10.018123 11.419417,-12.169903 2.696117,-1.109384 3.906117,11.275728 11.474758,11.275728 2.301618,0.164078 3.650809,-0.09515 3.624271,-1.412621 C 44.867799,40.927795 39.05928,41.880078 36.174514,33.230707 33.980763,26.653202 32.190453,24.369543 30,24.436533 26.59644,25.673103 23.722007,34.634914 20.530097,36.718086 12.134628,29.590578 24.375081,20.875691 22.540777,12.47828 21.658899,-2.4078044 3.950809,3.5536842 4.5504854,14.277309 z" />
  <path
     id="path2951"
     style="fill:#571e00;fill-opacity:0.32203393;stroke:none"
     d="m 21.932745,15.702196 c -0.426567,0.185733 -0.852542,0.506476 -1.247301,0.75159 -3.3162,2.059095 -8.810408,4.576537 -12.8450629,5.831297 -0.4050949,0.125983 -0.4560397,0.527353 -0.3941559,0.799363 0.2215808,0.973955 0.9645355,2.24043 1.9486775,3.285861 0.9841423,1.04543 2.4364173,1.848716 4.4683283,1.871319 0.88675,0.0099 1.756747,-0.429023 2.60806,-1.097742 0.851313,-0.66872 1.686145,-1.592296 2.434926,-2.666999 1.49756,-2.149406 2.655296,-4.733194 2.689101,-7.522116 0.0045,-0.37146 0.214152,-0.899845 0.337427,-1.252573 z m -1.615671,2.36505 c -0.286117,1.968584 -1.213528,4.067077 -2.375987,5.735522 -0.693538,0.995414 -1.465323,1.83927 -2.195485,2.412823 -0.730163,0.573553 -1.417209,0.852302 -1.87132,0.847251 -1.740736,-0.01936 -2.814877,-0.642859 -3.621077,-1.499266 C 9.607686,24.877856 9.1810549,24.035989 8.8165617,23.22811 12.639375,22.123828 17.102541,20.006079 20.317074,18.067246 z" />
  <path
     id="path2184"
     style="fill:#000000;fill-opacity:1;stroke:none"
     d="M 11.926727,7.3655475 C 10.198031,7.4236994 8.5928349,7.7329226 7.4423349,8.166746 6.7264545,9.1601578 6.1197238,10.371774 5.7951113,11.871484 5.204603,9.9166518 5.3385848,8.0555864 6.2556375,6.4180564 8.3357717,5.9887455 10.60232,6.5968095 11.926727,7.3655475 z" />
  <path
     id="path2186"
     style="fill:#000000;fill-opacity:1;stroke:none"
     d="M 19.605029,6.6190682 C 18.145965,5.6901372 16.64691,5.0381362 15.452572,4.745885 14.300572,5.1609125 13.115312,5.8176437 12,6.8714838 c 0.617519,-1.9464684 1.779766,-3.406159 3.461736,-4.2389087 1.958748,0.8213202 3.485059,2.6038326 4.143293,3.9864931 z" />
  <path
     id="path2196"
     style="fill:url(#linearGradient2874);fill-opacity:1;stroke:none"
     d="M 7.9907055,22.855913 C 12.24941,21.74089 17.660243,19.106418 21.004296,16.94946 20.954924,21.825028 16.551203,27.682629 13.86948,27.6528 10.096832,27.610835 8.8142409,24.800374 7.9907055,22.855913 z" />
  <path
     id="path2210"
     style="fill:#571e00;fill-opacity:0.32203393;stroke:none"
     d="m 12.826578,15.025356 c 0.360393,-4.550081 -1.795855,2.712466 -3.3065425,4.716805 -1.0616343,-0.04505 -2.498624,-2.194154 -2.498624,-4.716805 0,-2.522653 1.3003568,-4.570025 2.9025825,-4.570025 1.602226,0 2.902584,2.047372 2.902584,4.570025 z" />
  <path
     id="path2212"
     style="fill:#571e00;fill-opacity:0.32203393;stroke:none"
     d="m 18.523243,12.246292 c 0,2.352203 -1.411027,4.261239 -3.149612,4.261239 -1.738585,0 -3.149611,-1.909036 -3.149611,-4.261239 0,-2.3522042 1.411026,-4.2612401 3.149611,-4.2612401 1.738585,0 3.149612,1.9090359 3.149612,4.2612401 z" />
  <path
     id="path2198"
     style="fill:#ffffff;fill-opacity:1;stroke:none"
     d="m 15.655682,8.2614567 c -1.526608,0.155068 -2.727189,2.1916893 -2.921174,4.7482893 -0.645246,-1.385015 -1.618161,-2.259901 -2.611744,-2.154964 -1.5246994,0.16103 -2.5133633,2.547413 -2.2065364,5.32663 0.1777702,1.610222 0.7585995,2.984375 1.5066336,3.838416 1.0629588,-0.858383 2.4108068,-1.593707 3.9562938,-2.129179 0.03076,-0.190609 0.06039,-0.384338 0.07736,-0.585708 0.08295,0.173796 0.186104,0.312652 0.279961,0.46783 0.715666,-0.229099 1.466107,-0.42039 2.250741,-0.556239 0.840266,-0.145481 1.663536,-0.217247 2.464395,-0.235757 0.396857,-0.990712 0.620754,-2.204074 0.570974,-3.510566 -0.116269,-3.051471 -1.626291,-5.3855604 -3.366902,-5.2087523 z" />
  <path
     id="path2944"
     style="fill:#000000;fill-opacity:1;stroke:none"
     d="m 16.376508,13.733971 a 0.75951212,1.4647735 0 0 1 -1.519024,0 0.75951212,1.4647735 0 1 1 1.519024,0 z" />
  <path
     id="rect2946"
     style="fill:url(#linearGradient2867);fill-opacity:1;stroke:none"
     d="m 20.597035,19.577563 c -0.783188,1.122634 -2.428183,1.976683 -5.168231,3.304279 3.12465,-0.722614 3.064142,-0.02316 3.164298,1.020385 0.6833,-1.036269 1.581628,-2.658009 2.003933,-4.324664 z m -6.582772,3.897355 c -2.898317,0.932813 -4.1734936,1.149812 -5.3855698,0.755159 0.6190477,1.286948 1.6141118,2.356046 2.7443568,2.880653 -0.474164,-1.053782 -0.472368,-2.007991 2.641213,-3.635812 z" />
  <path
     id="path8632"
     style="fill:#000000;fill-opacity:1;stroke:none"
     d="m 11.519028,14.982531 a 0.75951212,1.4647735 0 0 1 -1.519024,0 0.75951212,1.4647735 0 1 1 1.519024,0 z" />
</svg>
