<?xml version="1.0" encoding="UTF-8" standalone="no"?>
<!DOCTYPE svg PUBLIC "-//W3C//DTD SVG 20010904//EN"
"http://www.w3.org/TR/2001/REC-SVG-20010904/DTD/svg10.dtd"
[
 <!ATTLIST svg
  xmlns:xlink CDATA #FIXED "http://www.w3.org/1999/xlink">
]>
<!-- Created with Sodipodi ("http://www.sodipodi.com/") -->
<svg
   xmlns="http://www.w3.org/2000/svg"
   xmlns:xlink="http://www.w3.org/1999/xlink"
   version="1"
   x="0.00000000"
   y="0.00000000"
   width="60.0000000"
   height="60.0000000"
   viewBox="0 0 128 128"
   id="svg548">
  <defs
     id="defs710" />
  <g
     style="font-size:12;stroke:#000000;"
     id="Layer_2">
    <path
       d="M 128 128 L 0 128 L 0 0 L 128 0 L 128 128 z "
       style="opacity:0.2;fill:none;stroke:none;"
       id="path550" />
  </g>
  <g
     style="font-size:12;stroke:#000000;"
     id="Layer_1">
    <path
       d="M 125.998 80.305 C 125.31 73.785 119.478 67.273 115.135 63.256 C 120.955 60.346 124.205 55.467 124.205 49.402 C 124.205 49.353 124.203 49.303 124.203 49.254 C 124.127 40.49 117.01 30.296 109.556 28.278 C 104.742 26.973 101.333 27.062 99.051 27.522 C 99.389 25.987 99.568 24.499 99.568 23.068 C 99.568 20.406 98.983 17.93 97.812 15.655 C 93.634 7.539 83.545 5.496 83.118 5.412 L 82.99 5.387 C 72.651 3.98 66.887 8.304 63.862 12.178 C 62.947 13.349 62.159 14.622 61.48 15.97 C 60.92 15.117 60.318 14.313 59.666 13.569 C 54.532 7.708 48.57 7.422 47.427 7.424 C 40.932 6.926 37.195 9.467 35.188 11.686 C 31.486 15.778 30.601 21.837 30.601 26.692 C 30.601 28.293 30.699 29.749 30.822 30.975 C 24.256 32.178 10.516 35.65 5.776 44.161 C 4.258 46.89 3.017 51.372 5.733 57.234 C 7.795 61.684 11.735 66.253 19.177 68.772 C 17.208 70.012 15.491 71.479 14.179 73.22 C 11.4 76.907 10.702 81.454 12.16 86.374 L 12.198 86.502 C 12.381 87.002 16.217 97.3 25.794 98.679 C 26.535 98.785 27.283 98.818 28.035 98.815 C 26.91 100.782 26.083 102.752 25.693 104.684 C 25.005 108.094 25.643 111.298 27.537 113.949 C 33.901 122.858 40.674 124.835 45.236 124.923 C 51.812 125.052 58.357 121.609 64.741 114.699 C 65.558 115.952 66.467 117.016 67.497 117.808 C 69.477 119.332 72.832 120.796 77.567 119.117 C 84.064 116.974 95.725 109.644 96.557 96.605 C 100.646 97.273 104.528 96.891 107.927 96.544 C 113.206 96.006 120.988 92.243 123.375 88.509 C 123.375 88.509 123.509 88.575 123.53 88.587 C 125.182 86.559 126.065 84.174 126.065 81.583 C 126.065 81.162 126.042 80.736 125.998 80.305 z M 70.464 66.437 C 70.464 66.437 69.835 66.392 69.457 66.366 C 69.129 66.552 68.579 66.861 68.579 66.861 C 68.579 66.861 60.602 71.361 59.682 71.882 C 59.681 71.896 59.679 71.911 59.678 71.926 C 59.161 71.779 58.768 71.666 58.604 71.62 C 58.133 71.909 57.348 72.392 57.348 72.392 L 57.348 72.392 C 57.073 72.562 56.594 72.86 55.952 73.271 C 55.22 71.033 54.239 68.039 53.473 65.697 C 54.555 63.498 56.858 58.82 58.436 55.614 C 60.279 55.258 62.495 54.829 63.889 54.559 C 65.604 55.221 67.592 55.988 69.356 56.669 C 70.659 59.083 72.703 62.868 74.081 65.419 C 74.125 66.359 74.172 67.394 74.22 68.448 C 71.917 66.546 71.098 66.481 70.464 66.437 z "
       style="opacity:0.2;stroke:none;"
       id="path552" />
    <path
       d="M 61.63 9.946 C 56.712 16.244 55.42 25.478 55.42 33.438 C 55.42 42.158 56.971 49.351 57.005 49.483 C 57.005 49.483 57.31 50.238 57.507 50.724 C 58.318 51.037 70.485 55.733 71.726 56.212 C 72.705 55.163 94.326 31.984 94.566 31.726 C 94.651 31.54 94.792 31.231 94.792 31.231 C 96.487 27.514 97.337 24.039 97.337 20.834 C 97.337 18.172 96.751 15.696 95.581 13.421 C 91.402 5.307 81.313 3.264 80.885 3.18 L 80.758 3.155 C 70.419 1.748 64.655 6.072 61.63 9.946 z "
       style="stroke:none;"
       id="path553" />
    <radialGradient
       cx="67.9912033"
       cy="64.9048004"
       fx="67.9912033"
       fy="64.9048004"
       r="75.7441025"
       id="XMLID_1_"
       gradientUnits="userSpaceOnUse"
       spreadMethod="pad">
      <stop
         style="stop-color:#00ff00;stop-opacity:1;"
         offset="0.00000000"
         id="stop555" />
      <stop
         style="stop-color:#00f903;stop-opacity:1;"
         offset="0.09980000"
         id="stop556" />
      <stop
         style="stop-color:#00e60c;stop-opacity:1;"
         offset="0.23920000"
         id="stop557" />
      <stop
         style="stop-color:#00c91b;stop-opacity:1;"
         offset="0.40180001"
         id="stop558" />
      <stop
         style="stop-color:#00a030;stop-opacity:1;"
         offset="0.58080000"
         id="stop559" />
      <stop
         style="stop-color:#009933;stop-opacity:1;"
         offset="0.60670000"
         id="stop560" />
      <stop
         style="stop-color:#009431;stop-opacity:1;"
         offset="0.66469997"
         id="stop561" />
      <stop
         style="stop-color:#00872d;stop-opacity:1;"
         offset="0.72909999"
         id="stop562" />
      <stop
         style="stop-color:#007126;stop-opacity:1;"
         offset="0.79650003"
         id="stop563" />
      <stop
         style="stop-color:#00521b;stop-opacity:1;"
         offset="0.86610001"
         id="stop564" />
      <stop
         style="stop-color:#002a0e;stop-opacity:1;"
         offset="0.93650001"
         id="stop565" />
      <stop
         style="stop-color:#000000;stop-opacity:1;"
         offset="1.00000000"
         id="stop566" />
      
      
      
      
      
    </radialGradient>
    <path
       d="M 60.075 48.127 C 60.075 48.127 51.215 2.508 80.246 6.466 C 80.246 6.466 100.605 10.424 91.746 29.841 L 70.821 52.275 L 60.075 48.127 z "
       style="fill:url(#XMLID_1_);stroke:none;"
       id="path572" />
    <linearGradient
       x1="76.3887024"
       y1="4.00339985"
       x2="76.3887024"
       y2="27.1145992"
       id="XMLID_2_"
       gradientUnits="userSpaceOnUse"
       spreadMethod="pad">
      <stop
         style="stop-color:#ffffff;stop-opacity:1;"
         offset="0.00000000"
         id="stop574" />
      <stop
         style="stop-color:#00ff00;stop-opacity:1;"
         offset="1.00000000"
         id="stop575" />
      
      
      
    </linearGradient>
    <path
       d="M 66.884 11.268 C 62.214 16.206 61.032 24.896 61.032 32.422 C 61.032 38.13 61.712 43.168 62.063 45.386 C 63.662 46.003 68.361 47.818 70.218 48.533 C 72.05 46.57 89.26 28.119 89.813 27.525 C 91.08 24.675 91.744 22.064 91.744 19.737 C 91.744 17.956 91.373 16.334 90.628 14.881 C 87.783 9.32 80.349 7.656 79.891 7.559 C 74.224 6.797 69.966 8.008 66.884 11.268 z "
       style="fill:url(#XMLID_2_);stroke:none;"
       id="path579" />
    <path
       d="M 93.064 26.826 C 92.924 26.967 67.049 51.128 65.941 52.246 C 66.62 53.504 72.65 64.67 73.254 65.791 C 74.652 65.67 108.172 62.765 108.384 62.745 C 108.503 62.711 108.7 62.654 108.7 62.654 C 117.142 60.208 121.972 54.569 121.972 47.17 C 121.972 47.121 121.971 47.071 121.971 47.022 C 121.895 38.258 114.776 28.064 107.323 26.046 C 97.103 23.277 93.158 26.76 93.064 26.826 z "
       style="stroke:none;"
       id="path580" />
    <path
       d="M 32.956 9.455 C 29.254 13.547 28.37 19.606 28.37 24.461 C 28.37 28.37 28.944 31.498 29.08 32.19 C 29.08 32.19 29.22 32.893 29.303 33.314 C 29.856 33.796 52.294 53.306 53.078 53.987 C 53.974 53.813 61.575 52.343 62.844 52.097 C 62.976 51.221 63.198 49.76 63.198 49.76 C 63.996 44.486 64.394 39.648 64.394 35.256 C 64.394 24.642 62.068 16.626 57.434 11.338 C 52.3 5.476 46.338 5.19 45.195 5.192 C 38.701 4.695 34.963 7.235 32.956 9.455 z "
       style="stroke:none;"
       id="path581" />
    <path
       d="M 31.961 28.215 C 29.679 28.493 9.5 31.234 3.544 41.929 C 2.026 44.658 0.785 49.14 3.5 55.002 C 7.426 63.478 18.149 72.394 46.941 66.735 L 47.948 66.544 C 47.948 66.544 49.145 66.408 49.845 66.329 C 50.143 65.71 50.634 64.694 50.634 64.694 C 50.634 64.694 57.112 51.536 57.781 50.176 C 56.619 49.117 34.201 28.683 33.485 28.03 C 32.913 28.1 31.961 28.215 31.961 28.215 z "
       style="stroke:none;"
       id="path582" />
    <radialGradient
       cx="61.0176010"
       cy="53.4071999"
       fx="61.0176010"
       fy="53.4071999"
       r="41.3246002"
       id="XMLID_3_"
       gradientUnits="userSpaceOnUse"
       spreadMethod="pad">
      <stop
         style="stop-color:#00ff00;stop-opacity:1;"
         offset="0.00000000"
         id="stop584" />
      <stop
         style="stop-color:#009933;stop-opacity:1;"
         offset="1.00000000"
         id="stop585" />
      
      
      
    </radialGradient>
    <path
       d="M 54.043 50.39 L 32.176 29.653 C 32.176 29.653 27.463 6.843 45.183 8.54 C 45.183 8.54 66.107 8.164 59.887 49.259 L 54.043 50.39 z "
       style="fill:url(#XMLID_3_);stroke:none;"
       id="path589" />
    <linearGradient
       x1="46.3208008"
       y1="4.97510004"
       x2="46.3208008"
       y2="29.6690998"
       id="XMLID_4_"
       gradientUnits="userSpaceOnUse"
       spreadMethod="pad">
      <stop
         style="stop-color:#ffffff;stop-opacity:1;"
         offset="0.00000000"
         id="stop591" />
      <stop
         style="stop-color:#00ff00;stop-opacity:1;"
         offset="1.00000000"
         id="stop592" />
      
      
      
    </linearGradient>
    <path
       d="M 36.723 12.122 C 34.404 14.702 33.835 18.797 33.835 22.194 C 33.835 24.513 34.097 26.465 34.252 27.429 C 35.237 28.364 53.245 45.44 54.747 46.864 C 55.726 46.675 56.653 46.496 57.891 46.256 C 58.518 41.698 58.809 37.686 58.809 34.21 C 58.809 23.118 56.051 17.169 53.329 14.002 C 49.638 9.709 45.385 9.657 45.205 9.657 L 45.099 9.657 L 44.972 9.647 C 41.24 9.289 38.542 10.099 36.723 12.122 z "
       style="fill:url(#XMLID_4_);stroke:none;"
       id="path596" />
    <radialGradient
       cx="28.4360008"
       cy="67.4512024"
       fx="28.4360008"
       fy="67.4512024"
       r="33.6526985"
       id="XMLID_5_"
       gradientUnits="userSpaceOnUse"
       spreadMethod="pad">
      <stop
         style="stop-color:#00ff00;stop-opacity:1;"
         offset="0.00000000"
         id="stop598" />
      <stop
         style="stop-color:#009933;stop-opacity:1;"
         offset="1.00000000"
         id="stop599" />
      
      
      
    </radialGradient>
    <path
       d="M 52.346 52.463 L 28.972 32.858 C 28.972 32.858 -1.756 35.686 6.539 53.594 C 14.833 71.502 45.561 63.397 47.635 63.207 L 52.346 52.463 z "
       style="fill:url(#XMLID_5_);stroke:none;"
       id="path603" />
    <linearGradient
       x1="28.4897003"
       y1="33.4394989"
       x2="28.4897003"
       y2="51.3474998"
       id="XMLID_6_"
       gradientUnits="userSpaceOnUse"
       spreadMethod="pad">
      <stop
         style="stop-color:#ffffff;stop-opacity:1;"
         offset="0.00000000"
         id="stop605" />
      <stop
         style="stop-color:#33cc33;stop-opacity:1;"
         offset="1.00000000"
         id="stop606" />
      
      
      
    </linearGradient>
    <path
       d="M 8.322 43.06 C 7.673 44.189 7.348 45.403 7.348 46.72 C 7.348 48.191 7.753 49.79 8.564 51.541 C 11.65 58.203 20.626 65.104 45.866 60.144 C 45.866 60.144 46.022 60.117 46.068 60.109 C 46.715 58.631 48.76 53.969 49.631 51.982 C 47.419 50.127 29.599 35.182 28.282 34.077 C 23.157 34.695 11.696 37.196 8.322 43.06 z "
       style="fill:url(#XMLID_6_);stroke:none;"
       id="path610" />
    <path
       d="M 11.947 70.988 C 9.168 74.675 8.47 79.221 9.928 84.141 L 9.965 84.27 C 10.148 84.769 13.985 95.068 23.562 96.446 C 32.574 97.746 42.44 90.913 53.726 75.559 C 53.726 75.559 54.363 74.691 54.746 74.17 C 54.431 73.205 50.504 61.209 50.07 59.882 C 49.169 59.874 47.667 59.86 47.667 59.86 C 44.887 59.835 20.285 59.929 11.947 70.988 z "
       style="stroke:none;"
       id="path611" />
    <path
       d="M 105.996 56.478 C 105.996 56.478 73.688 59.023 71.664 59.183 C 71.75 61.055 72.392 74.971 72.412 75.43 C 72.546 75.681 72.769 76.098 72.769 76.098 C 83.671 96.483 96.457 95.255 105.695 94.313 C 110.974 93.774 118.756 90.012 121.143 86.277 C 121.143 86.277 121.277 86.343 121.297 86.354 C 122.949 84.327 123.833 81.942 123.833 79.351 C 123.833 78.931 123.81 78.504 123.765 78.073 C 122.717 68.141 109.734 58.226 108.256 57.129 C 108.256 57.129 107.626 56.661 107.247 56.379 C 106.779 56.416 105.996 56.478 105.996 56.478 z "
       style="stroke:none;"
       id="path612" />
    <radialGradient
       cx="94.1884995"
       cy="59.9911995"
       fx="94.1884995"
       fy="59.9911995"
       r="35.7210007"
       id="XMLID_7_"
       gradientUnits="userSpaceOnUse"
       spreadMethod="pad">
      <stop
         style="stop-color:#00ff00;stop-opacity:1;"
         offset="0.00000000"
         id="stop614" />
      <stop
         style="stop-color:#009933;stop-opacity:1;"
         offset="1.00000000"
         id="stop615" />
      
      
      
    </radialGradient>
    <path
       d="M 70.067 52.84 L 92.31 30.408 C 92.31 30.408 97.4 26.827 106.45 29.277 C 115.498 31.727 127.374 53.029 107.204 58.873 L 74.026 59.816 L 70.067 52.84 z "
       style="fill:url(#XMLID_7_);stroke:none;"
       id="path619" />
    <linearGradient
       x1="94.4336014"
       y1="27.4062996"
       x2="94.4336014"
       y2="47.9528008"
       id="XMLID_8_"
       gradientUnits="userSpaceOnUse"
       spreadMethod="pad">
      <stop
         style="stop-color:#ffffff;stop-opacity:1;"
         offset="0.00000000"
         id="stop621" />
      <stop
         style="stop-color:#97ff99;stop-opacity:1;"
         offset="1.00000000"
         id="stop622" />
      
      
      
    </linearGradient>
    <path
       d="M 93.701 31.059 C 93.341 31.423 74.958 49.962 72.843 52.095 C 73.662 53.539 74.618 55.222 75.304 56.431 C 77.749 56.361 106.187 55.553 106.809 55.535 C 112.917 53.701 116.026 50.299 116.026 45.403 C 116.026 45.369 116.025 45.335 116.025 45.301 C 115.968 38.811 110.297 31.515 105.867 30.315 C 98.416 28.298 94.231 30.727 93.701 31.059 z "
       style="fill:url(#XMLID_8_);stroke:none;"
       id="path626" />
    <radialGradient
       cx="97.5625000"
       cy="87.5957031"
       fx="97.5625000"
       fy="87.5957031"
       r="33.2448006"
       id="XMLID_9_"
       gradientUnits="userSpaceOnUse"
       spreadMethod="pad">
      <stop
         style="stop-color:#00ff00;stop-opacity:1;"
         offset="0.00000000"
         id="stop628" />
      <stop
         style="stop-color:#009933;stop-opacity:1;"
         offset="1.00000000"
         id="stop629" />
      
      
      
    </radialGradient>
    <path
       d="M 75.156 62.266 L 106.637 61.7 C 106.637 61.7 126.808 75.085 118.513 84.51 C 118.513 84.51 95.515 104.869 75.722 74.519 L 75.156 62.266 z "
       style="fill:url(#XMLID_9_);stroke:none;"
       id="path633" />
    <linearGradient
       x1="96.7714996"
       y1="57.0181007"
       x2="96.7714996"
       y2="74.9254990"
       id="XMLID_10_"
       gradientUnits="userSpaceOnUse"
       spreadMethod="pad">
      <stop
         style="stop-color:#ffffff;stop-opacity:1;"
         offset="0.00000000"
         id="stop635" />
      <stop
         style="stop-color:#66ff66;stop-opacity:1;"
         offset="1.00000000"
         id="stop636" />
      
      
      
    </linearGradient>
    <path
       d="M 76.376 62.225 C 76.507 65.058 76.763 70.609 76.806 71.538 C 82.75 80.466 89.499 85.526 96.878 86.539 C 106.853 87.907 114.91 81.446 115.772 80.728 C 116.705 79.64 117.168 78.506 117.168 77.209 C 117.168 76.945 117.149 76.676 117.113 76.398 C 116.373 70.79 108.438 64.219 104.831 61.711 C 103.543 61.736 80.224 62.155 76.376 62.225 z "
       style="fill:url(#XMLID_10_);stroke:none;"
       id="path640" />
    <linearGradient
       x1="32.8153992"
       y1="93.0576019"
       x2="32.8153992"
       y2="63.2084999"
       id="XMLID_11_"
       gradientUnits="userSpaceOnUse"
       spreadMethod="pad">
      <stop
         style="stop-color:#ff0000;stop-opacity:1;"
         offset="0.00000000"
         id="stop642" />
      <stop
         style="stop-color:#fa0000;stop-opacity:1;"
         offset="0.15920000"
         id="stop643" />
      <stop
         style="stop-color:#ed0000;stop-opacity:1;"
         offset="0.33770001"
         id="stop644" />
      <stop
         style="stop-color:#d60000;stop-opacity:1;"
         offset="0.52539998"
         id="stop645" />
      <stop
         style="stop-color:#b70000;stop-opacity:1;"
         offset="0.71960002"
         id="stop646" />
      <stop
         style="stop-color:#8f0000;stop-opacity:1;"
         offset="0.91700000"
         id="stop647" />
      <stop
         style="stop-color:#7c0000;stop-opacity:1;"
         offset="1.00000000"
         id="stop648" />
      
      
      
    </linearGradient>
    <path
       d="M 49.191 67.968 L 47.634 63.208 C 47.634 63.208 7.104 62.831 13.137 83.19 C 13.137 83.19 25.39 111.088 53.1 73.387 L 49.191 67.968 z "
       style="fill:url(#XMLID_11_);stroke:none;"
       id="path652" />
    <linearGradient
       x1="29.8500996"
       y1="62.8110008"
       x2="33.8091011"
       y2="81.6624985"
       id="XMLID_12_"
       gradientUnits="userSpaceOnUse"
       spreadMethod="pad">
      <stop
         style="stop-color:#ffffff;stop-opacity:1;"
         offset="0.00000000"
         id="stop654" />
      <stop
         style="stop-color:#ff0000;stop-opacity:1;"
         offset="1.00000000"
         id="stop655" />
      
      
      
    </linearGradient>
    <path
       d="M 16.401 73.233 C 15.303 74.69 14.756 76.313 14.756 78.142 C 14.756 79.134 14.926 80.192 15.247 81.312 C 15.607 82.071 19.077 88.998 25.753 89.715 C 32.633 90.455 41.11 84.376 50.315 72.224 C 49.216 70.702 47.177 67.875 47.177 67.875 C 47.177 67.875 46.482 65.748 46.02 64.338 C 38.278 64.503 21.647 66.271 16.401 73.233 z "
       style="fill:url(#XMLID_12_);stroke:none;"
       id="path659" />
    <path
       d="M 55.115 70.16 C 52.177 71.969 26.329 88.246 23.46 102.452 C 22.772 105.862 23.41 109.066 25.304 111.716 C 31.668 120.626 38.441 122.602 43.003 122.69 C 50.757 122.843 58.47 118.045 65.927 108.43 C 65.927 108.43 66.42 107.792 66.716 107.411 C 66.654 106.592 64.103 73.031 63.992 71.563 C 62.812 71.226 57.144 69.606 56.372 69.386 C 55.9 69.677 55.115 70.16 55.115 70.16 z "
       style="stroke:none;"
       id="path660" />
    <linearGradient
       x1="44.9213982"
       y1="112.220703"
       x2="44.9213982"
       y2="81.6828003"
       id="XMLID_13_"
       gradientUnits="userSpaceOnUse"
       spreadMethod="pad">
      <stop
         style="stop-color:#00ff00;stop-opacity:1;"
         offset="0.00000000"
         id="stop662" />
      <stop
         style="stop-color:#009933;stop-opacity:1;"
         offset="1.00000000"
         id="stop663" />
      
      
      
    </linearGradient>
    <path
       d="M 56.871 73.01 C 56.871 73.01 18.603 96.575 28.029 109.771 C 37.455 122.967 50.273 123.156 63.28 106.377 L 60.83 74.142 L 56.871 73.01 z "
       style="fill:url(#XMLID_13_);stroke:none;"
       id="path667" />
    <linearGradient
       x1="43.7612000"
       y1="71.5186005"
       x2="43.7612000"
       y2="97.3439026"
       id="XMLID_14_"
       gradientUnits="userSpaceOnUse"
       spreadMethod="pad">
      <stop
         style="stop-color:#ffffff;stop-opacity:1;"
         offset="0.00000000"
         id="stop669" />
      <stop
         style="stop-color:#00ff00;stop-opacity:1;"
         offset="1.00000000"
         id="stop670" />
      
      
      
    </linearGradient>
    <path
       d="M 27.814 102.441 C 27.706 102.975 27.651 103.486 27.651 103.976 C 27.651 105.233 28.008 106.347 28.729 107.357 C 32.757 112.996 37.221 115.903 41.996 115.996 C 47.645 116.106 53.813 112.127 59.871 104.535 C 59.748 102.926 57.813 77.471 57.606 74.744 C 56.899 74.543 56.655 74.473 56.102 74.315 C 48.175 79.33 29.771 92.746 27.814 102.441 z "
       style="fill:url(#XMLID_14_);stroke:none;"
       id="path674" />
    <path
       d="M 66.348 64.628 C 66.348 64.628 58.37 69.128 57.45 69.649 C 57.395 70.313 57.304 71.419 57.304 71.419 C 57.007 75.042 56.836 78.906 56.836 82.794 C 56.836 96.614 58.989 110.749 65.263 115.576 C 67.243 117.1 70.599 118.565 75.334 116.886 C 82.074 114.663 94.374 106.86 94.374 92.893 C 94.374 92.428 94.36 91.958 94.333 91.48 C 94.333 91.48 94.292 90.781 94.268 90.361 C 93.997 90.041 93.541 89.507 93.541 89.507 C 72.271 64.494 69.742 64.314 68.23 64.205 C 68.23 64.205 67.601 64.16 67.224 64.134 C 66.896 64.318 66.348 64.628 66.348 64.628 z "
       style="stroke:none;"
       id="path675" />
    <linearGradient
       x1="75.6445007"
       y1="108.071297"
       x2="75.6445007"
       y2="73.7647018"
       id="XMLID_15_"
       gradientUnits="userSpaceOnUse"
       spreadMethod="pad">
      <stop
         style="stop-color:#00ff00;stop-opacity:1;"
         offset="0.00000000"
         id="stop677" />
      <stop
         style="stop-color:#009933;stop-opacity:1;"
         offset="1.00000000"
         id="stop678" />
      
      
      
    </linearGradient>
    <path
       d="M 60.641 71.691 C 60.641 71.691 56.682 119.95 74.214 113.729 C 74.214 113.729 91.935 107.885 90.992 91.672 C 90.992 91.672 70.632 67.732 67.993 67.543 L 60.641 71.691 z "
       style="fill:url(#XMLID_15_);stroke:none;"
       id="path682" />
    <linearGradient
       x1="75.6308975"
       y1="69.4276962"
       x2="75.6308975"
       y2="92.8034973"
       id="XMLID_16_"
       gradientUnits="userSpaceOnUse"
       spreadMethod="pad">
      <stop
         style="stop-color:#ffffff;stop-opacity:1;"
         offset="0.00000000"
         id="stop684" />
      <stop
         style="stop-color:#00ff00;stop-opacity:1;"
         offset="1.00000000"
         id="stop685" />
      
      
      
    </linearGradient>
    <path
       d="M 62.796 73.038 C 62.598 75.829 62.466 78.936 62.466 82.236 C 62.466 94.059 63.974 107.543 68.667 111.154 C 69.499 111.792 70.899 112.536 73.468 111.626 C 74.15 111.397 88.796 106.35 88.796 92.906 C 88.796 92.782 88.786 92.651 88.784 92.526 C 80.464 82.77 71.031 72.411 68.015 70.093 C 66.712 70.829 64.082 72.313 62.796 73.038 z "
       style="fill:url(#XMLID_16_);stroke:none;"
       id="path689" />
    <path
       d="M 48.388 62.94 C 48.388 70.176 54.254 76.042 61.49 76.042 C 68.726 76.042 74.592 70.177 74.592 62.94 C 74.592 55.705 68.727 49.839 61.49 49.839 C 54.254 49.839 48.388 55.705 48.388 62.94 z "
       style="stroke:none;"
       id="path690" />
    <linearGradient
       x1="61.4888000"
       y1="53.1870003"
       x2="61.4888000"
       y2="72.6948013"
       id="XMLID_17_"
       gradientUnits="userSpaceOnUse"
       spreadMethod="pad">
      <stop
         style="stop-color:#fff030;stop-opacity:1;"
         offset="0.00000000"
         id="stop692" />
      <stop
         style="stop-color:#ffeb2e;stop-opacity:1;"
         offset="0.19100000"
         id="stop693" />
      <stop
         style="stop-color:#ffde27;stop-opacity:1;"
         offset="0.40500000"
         id="stop694" />
      <stop
         style="stop-color:#ffc71b;stop-opacity:1;"
         offset="0.63020003"
         id="stop695" />
      <stop
         style="stop-color:#ffa80b;stop-opacity:1;"
         offset="0.86159998"
         id="stop696" />
      <stop
         style="stop-color:#ff9200;stop-opacity:1;"
         offset="1.00000000"
         id="stop697" />
      
      
      
    </linearGradient>
    <path
       d="M 51.735 62.94 C 51.735 68.319 56.11 72.694 61.489 72.694 C 66.867 72.694 71.243 68.319 71.243 62.94 C 71.243 57.562 66.867 53.187 61.489 53.187 C 56.111 53.187 51.735 57.562 51.735 62.94 z "
       style="fill:url(#XMLID_17_);stroke:none;"
       id="path701" />
    <linearGradient
       x1="60.0043983"
       y1="52.7645988"
       x2="60.0043983"
       y2="66.2070999"
       id="XMLID_18_"
       gradientUnits="userSpaceOnUse"
       spreadMethod="pad">
      <stop
         style="stop-color:#ffffff;stop-opacity:1;"
         offset="0.00000000"
         id="stop703" />
      <stop
         style="stop-color:#ffff00;stop-opacity:1;"
         offset="1.00000000"
         id="stop704" />
      
      
      
    </linearGradient>
    <path
       d="M 64.86 58.45 C 65.646 58.45 66.415 58.503 67.158 58.598 C 65.948 56.063 63.366 54.303 60.373 54.303 C 56.226 54.303 52.852 57.677 52.852 61.824 C 52.852 62.83 53.055 63.791 53.415 64.669 C 54.372 61.142 59.133 58.45 64.86 58.45 z "
       style="fill:url(#XMLID_18_);stroke:none;"
       id="path708" />
  </g>
</svg>
