<?xml version="1.0" encoding="UTF-8" standalone="no"?>
<!-- Created with Inkscape (http://www.inkscape.org/) -->
<svg
   xmlns:svg="http://www.w3.org/2000/svg"
   xmlns="http://www.w3.org/2000/svg"
   xmlns:xlink="http://www.w3.org/1999/xlink"
   version="1.0"
   width="48"
   height="48"
   id="svg6425">
  <defs
     id="defs6427">
    <linearGradient
       id="linearGradient4825">
      <stop
         style="stop-color:#729fcf;stop-opacity:1"
         offset="0"
         id="stop4827" />
      <stop
         style="stop-color:#729fcf;stop-opacity:0"
         offset="1"
         id="stop4829" />
    </linearGradient>
    <radialGradient
       cx="6.3499999"
       cy="26.064659"
       r="5.0500002"
       fx="6.3499999"
       fy="26.064659"
       id="radialGradient4831"
       xlink:href="#linearGradient4825"
       gradientUnits="userSpaceOnUse"
       gradientTransform="matrix(2.067484,0,0,1,-6.778523,0)" />
    <linearGradient
       id="linearGradient4843">
      <stop
         style="stop-color:#ef2929;stop-opacity:1"
         offset="0"
         id="stop4845" />
      <stop
         style="stop-color:#ef2929;stop-opacity:0"
         offset="1"
         id="stop4847" />
    </linearGradient>
    <radialGradient
       cx="6.3499999"
       cy="26.064659"
       r="5.0500002"
       fx="6.3499999"
       fy="26.064659"
       id="radialGradient4861"
       xlink:href="#linearGradient4843"
       gradientUnits="userSpaceOnUse"
       gradientTransform="matrix(2.067484,0,0,1,-6.778523,0)" />
    <radialGradient
       cx="6.3499999"
       cy="26.064659"
       r="5.0500002"
       fx="6.3499999"
       fy="26.064659"
       id="radialGradient2062"
       xlink:href="#linearGradient4825"
       gradientUnits="userSpaceOnUse"
       gradientTransform="matrix(2.067484,0,0,1,-6.778523,0)" />
    <radialGradient
       cx="6.3499999"
       cy="26.064659"
       r="5.0500002"
       fx="6.3499999"
       fy="26.064659"
       id="radialGradient2074"
       xlink:href="#linearGradient4843"
       gradientUnits="userSpaceOnUse"
       gradientTransform="matrix(2.067484,0,0,1,-6.778523,0)" />
    <radialGradient
       cx="6.3499999"
       cy="26.064659"
       r="5.0500002"
       fx="6.3499999"
       fy="26.064659"
       id="radialGradient2096"
       xlink:href="#linearGradient4825"
       gradientUnits="userSpaceOnUse"
       gradientTransform="matrix(2.067484,0,0,1,-6.778523,0)" />
    <radialGradient
       cx="6.3499999"
       cy="26.064659"
       r="5.0500002"
       fx="6.3499999"
       fy="26.064659"
       id="radialGradient2098"
       xlink:href="#linearGradient4843"
       gradientUnits="userSpaceOnUse"
       gradientTransform="matrix(2.067484,0,0,1,-6.778523,0)" />
    <radialGradient
       cx="6.3499999"
       cy="26.064659"
       r="5.0500002"
       fx="6.3499999"
       fy="26.064659"
       id="radialGradient2100"
       xlink:href="#linearGradient4825"
       gradientUnits="userSpaceOnUse"
       gradientTransform="matrix(2.067484,0,0,1,-6.778523,0)" />
    <radialGradient
       cx="6.3499999"
       cy="26.064659"
       r="5.0500002"
       fx="6.3499999"
       fy="26.064659"
       id="radialGradient2102"
       xlink:href="#linearGradient4843"
       gradientUnits="userSpaceOnUse"
       gradientTransform="matrix(2.067484,0,0,1,-6.778523,0)" />
  </defs>
  <g
     id="layer1">
    <path
       d="M 27.293499,44.791027 L 3.3213956,20.818923"
       style="fill:#2e3436;fill-opacity:1;fill-rule:evenodd;stroke:#2e3436;stroke-width:1;stroke-linecap:butt;stroke-linejoin:miter;stroke-miterlimit:4;stroke-dasharray:none;stroke-opacity:1"
       id="path6481" />
    <path
       d="M 30.814518,41.313623 L 6.8424147,17.341519"
       style="fill:#2e3436;fill-opacity:1;fill-rule:evenodd;stroke:#2e3436;stroke-width:1;stroke-linecap:butt;stroke-linejoin:miter;stroke-miterlimit:4;stroke-dasharray:none;stroke-opacity:1"
       id="path6483" />
    <path
       d="M 34.270035,37.770715 L 10.297931,13.798611"
       style="fill:#2e3436;fill-opacity:1;fill-rule:evenodd;stroke:#2e3436;stroke-width:1;stroke-linecap:butt;stroke-linejoin:miter;stroke-miterlimit:4;stroke-dasharray:none;stroke-opacity:1"
       id="path6485" />
    <path
       d="M 37.769245,34.271505 L 13.797142,10.299401"
       style="fill:#2e3436;fill-opacity:1;fill-rule:evenodd;stroke:#2e3436;stroke-width:1;stroke-linecap:butt;stroke-linejoin:miter;stroke-miterlimit:4;stroke-dasharray:none;stroke-opacity:1"
       id="path6487" />
    <path
       d="M 41.312152,30.815988 L 17.340049,6.8438846"
       style="fill:#2e3436;fill-opacity:1;fill-rule:evenodd;stroke:#2e3436;stroke-width:1;stroke-linecap:butt;stroke-linejoin:miter;stroke-miterlimit:4;stroke-dasharray:none;stroke-opacity:1"
       id="path6489" />
    <path
       d="M 44.767669,27.273082 L 20.795565,3.300978"
       style="fill:#2e3436;fill-opacity:1;fill-rule:evenodd;stroke:#2e3436;stroke-width:1;stroke-linecap:butt;stroke-linejoin:miter;stroke-miterlimit:4;stroke-dasharray:none;stroke-opacity:1"
       id="path6491" />
    <path
       d="M 27.290241,3.2786898 L 3.3186027,27.250329"
       style="fill:#2e3436;fill-opacity:1;fill-rule:evenodd;stroke:#2e3436;stroke-width:1;stroke-linecap:butt;stroke-linejoin:miter;stroke-miterlimit:4;stroke-dasharray:none;stroke-opacity:1"
       id="path6493" />
    <path
       d="M 30.767645,6.7997082 L 6.796007,30.771346"
       style="fill:#2e3436;fill-opacity:1;fill-rule:evenodd;stroke:#2e3436;stroke-width:1;stroke-linecap:butt;stroke-linejoin:miter;stroke-miterlimit:4;stroke-dasharray:none;stroke-opacity:1"
       id="path6497" />
    <path
       d="M 34.266856,10.29892 L 10.295218,34.270557"
       style="fill:#2e3436;fill-opacity:1;fill-rule:evenodd;stroke:#2e3436;stroke-width:1;stroke-linecap:butt;stroke-linejoin:miter;stroke-miterlimit:4;stroke-dasharray:none;stroke-opacity:1"
       id="path6499" />
    <path
       d="M 37.766067,13.798131 L 13.794429,37.76977"
       style="fill:#2e3436;fill-opacity:1;fill-rule:evenodd;stroke:#2e3436;stroke-width:1;stroke-linecap:butt;stroke-linejoin:miter;stroke-miterlimit:4;stroke-dasharray:none;stroke-opacity:1"
       id="path6501" />
    <path
       d="M 41.264809,17.297813 L 17.293635,41.268987"
       style="fill:#2e3436;fill-opacity:1;fill-rule:evenodd;stroke:#2e3436;stroke-width:1;stroke-linecap:butt;stroke-linejoin:miter;stroke-miterlimit:4;stroke-dasharray:none;stroke-opacity:1"
       id="path6503" />
    <path
       d="M 44.76402,20.797025 L 20.792847,44.768198"
       style="fill:#2e3436;fill-opacity:1;fill-rule:evenodd;stroke:#2e3436;stroke-width:1;stroke-linecap:butt;stroke-linejoin:miter;stroke-miterlimit:4;stroke-dasharray:none;stroke-opacity:1"
       id="path6505" />
    <g
       transform="translate(11.242,2.241999)"
       id="g4855">
      <path
         d="M 11.4 28.450001 A 5.0500002 5.0500002 0 1 1  1.2999997,28.450001 A 5.0500002 5.0500002 0 1 1  11.4 28.450001 z"
         transform="translate(2.90007e-2,-7.100016e-2)"
         style="opacity:1;fill:#3465a4;fill-opacity:1;stroke:none;stroke-width:1.14199841;stroke-linecap:round;stroke-linejoin:miter;stroke-miterlimit:4;stroke-dasharray:none;stroke-opacity:1"
         id="path4087" />
      <path
         d="M 11.4 28.450001 A 5.0500002 5.0500002 0 1 1  1.2999997,28.450001 A 5.0500002 5.0500002 0 1 1  11.4 28.450001 z"
         transform="translate(2.90007e-2,-7.100016e-2)"
         style="opacity:1;fill:url(#radialGradient2096);fill-opacity:1;stroke:none;stroke-width:1.14199841;stroke-linecap:round;stroke-linejoin:miter;stroke-miterlimit:4;stroke-dasharray:none;stroke-opacity:1"
         id="path4823" />
      <path
         d="M 10 28.725 A 3.5250001 3.5250001 0 1 1  2.9499998,28.725 A 3.5250001 3.5250001 0 1 1  10 28.725 z"
         transform="matrix(1.174113,0,0,1.174113,-1.127386,-5.369316)"
         style="opacity:1;fill:none;fill-opacity:1;stroke:#729fcf;stroke-width:0.85881245;stroke-linecap:round;stroke-linejoin:miter;stroke-miterlimit:4;stroke-dasharray:none;stroke-opacity:1"
         id="path4819" />
      <path
         d="M 11.4 28.450001 A 5.0500002 5.0500002 0 1 1  1.2999997,28.450001 A 5.0500002 5.0500002 0 1 1  11.4 28.450001 z"
         transform="translate(2.90007e-2,-7.100016e-2)"
         style="opacity:1;fill:none;fill-opacity:1;stroke:#204a87;stroke-width:1.14199841;stroke-linecap:round;stroke-linejoin:miter;stroke-miterlimit:4;stroke-dasharray:none;stroke-opacity:1"
         id="path4821" />
    </g>
    <g
       transform="translate(39.242,-29.242)"
       id="g4849">
      <path
         d="M 11.4 28.450001 A 5.0500002 5.0500002 0 1 1  1.2999997,28.450001 A 5.0500002 5.0500002 0 1 1  11.4 28.450001 z"
         transform="translate(-14.88455,31.21484)"
         style="opacity:1;fill:#c00;fill-opacity:1;stroke:none;stroke-width:1.14199841;stroke-linecap:round;stroke-linejoin:miter;stroke-miterlimit:4;stroke-dasharray:none;stroke-opacity:1"
         id="path4833" />
      <path
         d="M 11.4 28.450001 A 5.0500002 5.0500002 0 1 1  1.2999997,28.450001 A 5.0500002 5.0500002 0 1 1  11.4 28.450001 z"
         transform="translate(-14.88928,31.5)"
         style="opacity:1;fill:url(#radialGradient2098);fill-opacity:1;stroke:none;stroke-width:1.14199841;stroke-linecap:round;stroke-linejoin:miter;stroke-miterlimit:4;stroke-dasharray:none;stroke-opacity:1"
         id="path4835" />
      <path
         d="M 10 28.725 A 3.5250001 3.5250001 0 1 1  2.9499998,28.725 A 3.5250001 3.5250001 0 1 1  10 28.725 z"
         transform="matrix(1.174113,0,0,1.174113,-16.2453,25.91652)"
         style="opacity:1;fill:none;fill-opacity:1;stroke:#ef2929;stroke-width:0.85881245;stroke-linecap:round;stroke-linejoin:miter;stroke-miterlimit:4;stroke-dasharray:none;stroke-opacity:1"
         id="path4837" />
      <path
         d="M 11.4 28.450001 A 5.0500002 5.0500002 0 1 1  1.2999997,28.450001 A 5.0500002 5.0500002 0 1 1  11.4 28.450001 z"
         transform="translate(-14.971,31.171)"
         style="opacity:1;fill:none;fill-opacity:1;stroke:#a40000;stroke-width:1.14199841;stroke-linecap:round;stroke-linejoin:miter;stroke-miterlimit:4;stroke-dasharray:none;stroke-opacity:1"
         id="path4839" />
    </g>
    <g
       transform="translate(24,-11)"
       id="g2052">
      <path
         d="M 11.4 28.450001 A 5.0500002 5.0500002 0 1 1  1.2999997,28.450001 A 5.0500002 5.0500002 0 1 1  11.4 28.450001 z"
         transform="translate(2.90007e-2,-7.100016e-2)"
         style="opacity:1;fill:#3465a4;fill-opacity:1;stroke:none;stroke-width:1.14199841;stroke-linecap:round;stroke-linejoin:miter;stroke-miterlimit:4;stroke-dasharray:none;stroke-opacity:1"
         id="path2054" />
      <path
         d="M 11.4 28.450001 A 5.0500002 5.0500002 0 1 1  1.2999997,28.450001 A 5.0500002 5.0500002 0 1 1  11.4 28.450001 z"
         transform="translate(2.90007e-2,-7.100016e-2)"
         style="opacity:1;fill:url(#radialGradient2100);fill-opacity:1;stroke:none;stroke-width:1.14199841;stroke-linecap:round;stroke-linejoin:miter;stroke-miterlimit:4;stroke-dasharray:none;stroke-opacity:1"
         id="path2056" />
      <path
         d="M 10 28.725 A 3.5250001 3.5250001 0 1 1  2.9499998,28.725 A 3.5250001 3.5250001 0 1 1  10 28.725 z"
         transform="matrix(1.174113,0,0,1.174113,-1.127386,-5.369316)"
         style="opacity:1;fill:none;fill-opacity:1;stroke:#729fcf;stroke-width:0.85881245;stroke-linecap:round;stroke-linejoin:miter;stroke-miterlimit:4;stroke-dasharray:none;stroke-opacity:1"
         id="path2058" />
      <path
         d="M 11.4 28.450001 A 5.0500002 5.0500002 0 1 1  1.2999997,28.450001 A 5.0500002 5.0500002 0 1 1  11.4 28.450001 z"
         transform="translate(2.90007e-2,-7.100016e-2)"
         style="opacity:1;fill:none;fill-opacity:1;stroke:#204a87;stroke-width:1.14199841;stroke-linecap:round;stroke-linejoin:miter;stroke-miterlimit:4;stroke-dasharray:none;stroke-opacity:1"
         id="path2060" />
    </g>
    <g
       transform="translate(26.24201,-42.242)"
       id="g2064">
      <path
         d="M 11.4 28.450001 A 5.0500002 5.0500002 0 1 1  1.2999997,28.450001 A 5.0500002 5.0500002 0 1 1  11.4 28.450001 z"
         transform="translate(-14.88455,31.21484)"
         style="opacity:1;fill:#c00;fill-opacity:1;stroke:none;stroke-width:1.14199841;stroke-linecap:round;stroke-linejoin:miter;stroke-miterlimit:4;stroke-dasharray:none;stroke-opacity:1"
         id="path2066" />
      <path
         d="M 11.4 28.450001 A 5.0500002 5.0500002 0 1 1  1.2999997,28.450001 A 5.0500002 5.0500002 0 1 1  11.4 28.450001 z"
         transform="translate(-14.88928,31.5)"
         style="opacity:1;fill:url(#radialGradient2102);fill-opacity:1;stroke:none;stroke-width:1.14199841;stroke-linecap:round;stroke-linejoin:miter;stroke-miterlimit:4;stroke-dasharray:none;stroke-opacity:1"
         id="path2068" />
      <path
         d="M 10 28.725 A 3.5250001 3.5250001 0 1 1  2.9499998,28.725 A 3.5250001 3.5250001 0 1 1  10 28.725 z"
         transform="matrix(1.174113,0,0,1.174113,-16.2453,25.91652)"
         style="opacity:1;fill:none;fill-opacity:1;stroke:#ef2929;stroke-width:0.85881245;stroke-linecap:round;stroke-linejoin:miter;stroke-miterlimit:4;stroke-dasharray:none;stroke-opacity:1"
         id="path2070" />
      <path
         d="M 11.4 28.450001 A 5.0500002 5.0500002 0 1 1  1.2999997,28.450001 A 5.0500002 5.0500002 0 1 1  11.4 28.450001 z"
         transform="translate(-14.971,31.171)"
         style="opacity:1;fill:none;fill-opacity:1;stroke:#a40000;stroke-width:1.14199841;stroke-linecap:round;stroke-linejoin:miter;stroke-miterlimit:4;stroke-dasharray:none;stroke-opacity:1"
         id="path2072" />
    </g>
  </g>
</svg>
