<?xml version="1.0" encoding="UTF-8" standalone="no"?>
<!DOCTYPE svg PUBLIC "-//W3C//DTD SVG 20010904//EN"
"http://www.w3.org/TR/2001/REC-SVG-20010904/DTD/svg10.dtd">
<!-- Created with Sodipodi ("http://www.sodipodi.com/") -->
<svg
   width="48pt"
   height="48pt"
   viewBox="0 0 124.998 114.469"
   overflow="visible"
   enable-background="new 0 0 124.998 114.469"
   xml:space="preserve"
   xmlns="http://www.w3.org/2000/svg"
   xmlns:xml="http://www.w3.org/XML/1998/namespace"
   xmlns:sodipodi="http://sodipodi.sourceforge.net/DTD/sodipodi-0.dtd"
   xmlns:xlink="http://www.w3.org/1999/xlink"
   id="svg153"
   sodipodi:version="0.32pre"
   sodipodi:docname="/home/cschalle/gnome-themes-extras/Wasp/icons/scalable/filesystems/gnome-fs-executable.svg"
   sodipodi:docbase="/home/cschalle/gnome-themes-extras/Wasp/icons/scalable/filesystems">
  <defs
     id="defs235" />
  <sodipodi:namedview
     id="base" />
  <metadata
     id="metadata154">
    <sfw>
      <slices />
      <sliceSourceBounds
         y="362.266"
         x="234.001"
         width="124.998"
         height="114.469"
         bottomLeftOrigin="true" />
    </sfw>
  </metadata>
  <g
     id="Layer_1"
     stroke="#000000">
    <g
       id="Layer_1_2_">
      <path
         stroke="none"
         d="M76.002,39.227L49.693,57.522l-0.025,1.738v31.354l28.271,19.297l28.235-19.64V57.16L77.899,37.906     L76.002,39.227z"
         id="path157" />
      <g
         id="g158">
        <linearGradient
           id="XMLID_1_"
           gradientUnits="userSpaceOnUse"
           x1="-163.7368"
           y1="406.9009"
           x2="-159.537"
           y2="412.7806"
           gradientTransform="matrix(1 0 0 -1 234.001 476.7354)">
          <stop
             offset="0"
             style="stop-color:#F5E6E5"
             id="stop160" />
          <stop
             offset="0.2712"
             style="stop-color:#F5D4D3"
             id="stop161" />
          <stop
             offset="0.8139"
             style="stop-color:#F7A5A5"
             id="stop162" />
          <stop
             offset="1"
             style="stop-color:#F79394"
             id="stop163" />
        </linearGradient>
        <path
           fill="url(#XMLID_1_)"
           stroke="none"
           d="M77.92,76.25L53.027,59.295l24.893-17.31l24.894,16.951L77.92,76.25z"
           id="path171" />
      </g>
      <g
         id="g172">
        <linearGradient
           id="XMLID_2_"
           gradientUnits="userSpaceOnUse"
           x1="-142.6621"
           y1="393.2935"
           x2="-151.6917"
           y2="403.1443"
           gradientTransform="matrix(1 0 0 -1 234.001 476.7354)">
          <stop
             offset="0"
             style="stop-color:#AE0B0B"
             id="stop174" />
          <stop
             offset="0.7868"
             style="stop-color:#9C0E08"
             id="stop175" />
          <stop
             offset="1"
             style="stop-color:#960F07"
             id="stop176" />
        </linearGradient>
        <path
           fill="url(#XMLID_2_)"
           stroke="none"
           d="M77.92,105.829l24.894-17.313V58.937L77.92,76.25V105.829z"
           id="path182" />
      </g>
      <g
         id="g183">
        <path
           fill="#C66364"
           stroke="none"
           d="M77.92,105.829l-24.893-16.99V59.26L77.92,76.25V105.829z"
           id="path184" />
      </g>
      <path
         stroke="none"
         d="M26.334,39.227L0.026,57.522L0,59.26v31.354l28.271,19.297l28.234-19.64V57.16L28.232,37.906     L26.334,39.227z"
         id="path185" />
      <g
         id="g186">
        <linearGradient
           id="XMLID_3_"
           gradientUnits="userSpaceOnUse"
           x1="-213.6094"
           y1="407.1382"
           x2="-208.57"
           y2="413.8575"
           gradientTransform="matrix(1 0 0 -1 234.001 476.7354)">
          <stop
             offset="0"
             style="stop-color:#F8FAED"
             id="stop188" />
          <stop
             offset="0.4678"
             style="stop-color:#E7E8E9"
             id="stop189" />
          <stop
             offset="1"
             style="stop-color:#D0CEE4"
             id="stop190" />
        </linearGradient>
        <path
           fill="url(#XMLID_3_)"
           stroke="none"
           d="M28.253,76.25L3.36,59.295l24.893-17.31l24.892,16.951L28.253,76.25z"
           id="path196" />
      </g>
      <g
         id="g197">
        <linearGradient
           id="XMLID_4_"
           gradientUnits="userSpaceOnUse"
           x1="-205.8267"
           y1="400.9829"
           x2="-191.873"
           y2="393.5954"
           gradientTransform="matrix(1 0 0 -1 234.001 476.7354)">
          <stop
             offset="0"
             style="stop-color:#303162"
             id="stop199" />
          <stop
             offset="0.6492"
             style="stop-color:#383A74"
             id="stop200" />
          <stop
             offset="1"
             style="stop-color:#3E4080"
             id="stop201" />
        </linearGradient>
        <path
           fill="url(#XMLID_4_)"
           stroke="none"
           d="M28.253,105.829l24.892-17.313V58.937L28.253,76.25V105.829z"
           id="path207" />
      </g>
      <path
         stroke="none"
         d="M27.413,19.707v32.656l28.252,19.65l28.253-19.65V19.254L55.645,0L27.413,19.707z"
         id="path208" />
      <path
         stroke="none"
         d="M55.665,4.078L31.031,21.212l-0.263,0.202l0.004,29.193l24.893,17.312L80.56,50.607V21.031L55.665,4.078z"
         id="path209" />
      <g
         id="g210">
        <linearGradient
           id="XMLID_5_"
           gradientUnits="userSpaceOnUse"
           x1="-189.728"
           y1="446.2017"
           x2="-180.4883"
           y2="453.7614"
           gradientTransform="matrix(1 0 0 -1 234.001 476.7354)">
          <stop
             offset="0"
             style="stop-color:#F8FAED"
             id="stop212" />
          <stop
             offset="1"
             style="stop-color:#F6EA96"
             id="stop213" />
        </linearGradient>
        <path
           fill="url(#XMLID_5_)"
           stroke="none"
           d="M55.665,38.344L30.772,21.392L55.665,4.078L80.56,21.031L55.665,38.344z"
           id="path217" />
      </g>
      <g
         id="g218">
        <path
           fill="#FDCD12"
           stroke="none"
           d="M55.665,67.918L30.772,50.607l-0.004-29.193l24.896,16.93L55.665,67.918z"
           id="path219" />
      </g>
      <g
         id="g220">
        <linearGradient
           id="XMLID_6_"
           gradientUnits="userSpaceOnUse"
           x1="-188.147"
           y1="440.4604"
           x2="-172.5492"
           y2="434.7141"
           gradientTransform="matrix(1 0 0 -1 234.001 476.7354)">
          <stop
             offset="0"
             style="stop-color:#EE8B13"
             id="stop222" />
          <stop
             offset="1"
             style="stop-color:#F89410"
             id="stop223" />
        </linearGradient>
        <path
           fill="url(#XMLID_6_)"
           stroke="none"
           d="M55.665,67.918L80.56,50.607V21.031L55.665,38.344V67.918z"
           id="path227" />
      </g>
      <g
         id="g228">
        <path
           fill="#9591C4"
           stroke="none"
           d="M28.253,105.829L3.36,88.836V59.26l24.893,16.99V105.829z"
           id="path229" />
      </g>
      <path
         a:adobe-blending-mode="multiply"
         opacity="0.25"
         stroke="none"
         d="M44.526,64.267l8.675,25.647L66.31,68.358l29.887-5.6     l6.138-4.186l-18.36-12.514l-0.056,6.305l-28.09,19.681L44.526,64.267z"
         id="path230" />
      <path
         a:adobe-blending-mode="multiply"
         opacity="0.2"
         stroke="none"
         d="M28.271,109.911l13.263,4.559l16.514-12.441l8.518,0.008     l-13.657-9.277L28.271,109.911z"
         id="path231" />
      <path
         a:adobe-blending-mode="multiply"
         opacity="0.2"
         stroke="none"
         d="M106.209,78.586l18.789,8.98l-27.252,23.025l-19.81-0.684     l28.236-19.64L106.209,78.586z"
         id="path232" />
      <path
         a:adobe-blending-mode="multiply"
         opacity="0.25"
         stroke="none"
         d="M40.835,61.689L53.927,89.89l12.385-21.531l-3.049-2.096     l-7.598,5.75L40.835,61.689z"
         id="path233" />
    </g>
  </g>
</svg>
