<?xml version="1.0" encoding="UTF-8" standalone="no"?>
<!-- Created with Sodipodi ("http://www.sodipodi.com/") -->

<svg
   xmlns:a="http://ns.adobe.com/AdobeSVGViewerExtensions/3.0/"
   xmlns:dc="http://purl.org/dc/elements/1.1/"
   xmlns:cc="http://creativecommons.org/ns#"
   xmlns:rdf="http://www.w3.org/1999/02/22-rdf-syntax-ns#"
   xmlns:svg="http://www.w3.org/2000/svg"
   xmlns="http://www.w3.org/2000/svg"
   xmlns:xlink="http://www.w3.org/1999/xlink"
   xmlns:sodipodi="http://sodipodi.sourceforge.net/DTD/sodipodi-0.dtd"
   xmlns:inkscape="http://www.inkscape.org/namespaces/inkscape"
   width="48pt"
   height="48pt"
   viewBox="0.418 0.188 122 99"
   overflow="visible"
   enable-background="new 0.418 0.188 122 99"
   xml:space="preserve"
   id="svg153"
   sodipodi:version="0.32pre"
   sodipodi:docname="gtk-select-font.svg"
   version="1.1"
   inkscape:version="0.48.3.1 r9886"><metadata
   id="metadata73"><rdf:RDF><cc:Work
       rdf:about=""><dc:format>image/svg+xml</dc:format><dc:type
         rdf:resource="http://purl.org/dc/dcmitype/StillImage" /><dc:title></dc:title></cc:Work></rdf:RDF></metadata>
  <defs
   id="defs241"><inkscape:perspective
   sodipodi:type="inkscape:persp3d"
   inkscape:vp_x="0 : 30 : 1"
   inkscape:vp_y="0 : 1000 : 0"
   inkscape:vp_z="60 : 30 : 1"
   inkscape:persp3d-origin="30 : 20 : 1"
   id="perspective75" />
    
    
    
    
    
    
    
    
    
    
    
    
    
    
    
    
    
    
    
  <linearGradient
   inkscape:collect="always"
   xlink:href="#XMLID_1_"
   id="linearGradient3117"
   gradientUnits="userSpaceOnUse"
   x1="59.7939"
   y1="45.353001"
   x2="62.476299"
   y2="41.597801" /><linearGradient
   inkscape:collect="always"
   xlink:href="#XMLID_2_"
   id="linearGradient3119"
   gradientUnits="userSpaceOnUse"
   x1="73.251999"
   y1="54.042999"
   x2="67.485001"
   y2="47.751499" /><linearGradient
   inkscape:collect="always"
   xlink:href="#XMLID_3_"
   id="linearGradient3121"
   gradientUnits="userSpaceOnUse"
   x1="27.941401"
   y1="45.200699"
   x2="31.159901"
   y2="40.909302" /><linearGradient
   inkscape:collect="always"
   xlink:href="#XMLID_4_"
   id="linearGradient3123"
   gradientUnits="userSpaceOnUse"
   x1="32.911598"
   y1="49.131302"
   x2="41.823502"
   y2="53.849602" /><linearGradient
   inkscape:collect="always"
   xlink:href="#XMLID_5_"
   id="linearGradient3125"
   gradientUnits="userSpaceOnUse"
   x1="43.192402"
   y1="20.252001"
   x2="49.0937"
   y2="15.4236" /><linearGradient
   inkscape:collect="always"
   xlink:href="#XMLID_6_"
   id="linearGradient3127"
   gradientUnits="userSpaceOnUse"
   x1="44.202099"
   y1="23.918501"
   x2="54.164299"
   y2="27.5886" /><linearGradient
   id="gradient0"
   gradientUnits="userSpaceOnUse"
   x1="62.32"
   y1="-22.67"
   x2="89"
   y2="15.12"><stop
     offset="0"
     stop-color="#d3f591"
     id="stop3138"
     style="stop-color:#00ff00;stop-opacity:1;" /><stop
     offset="1"
     stop-color="#05c080"
     id="stop3140"
     style="stop-color:#ff00ff;stop-opacity:1;" /></linearGradient><linearGradient
   id="gradient1"
   gradientUnits="userSpaceOnUse"
   x1="-12.07"
   y1="-18.780001"
   x2="33.200001"
   y2="-36.27"><stop
     offset="0"
     stop-color="#e5ffb3"
     id="stop3145"
     style="stop-color:#ff0000;stop-opacity:1;" /><stop
     offset="1"
     stop-color="#ff8282"
     id="stop3147"
     style="stop-color:#00ffff;stop-opacity:1;" /></linearGradient><linearGradient
   id="gradient2"
   gradientUnits="userSpaceOnUse"
   x1="59.27"
   y1="-39.09"
   x2="94.370003"
   y2="-20.83"><stop
     offset="0"
     stop-color="#de4e4e"
     id="stop3152"
     style="stop-color:#0000ff;stop-opacity:1;" /><stop
     offset="1"
     stop-color="#0537c7"
     id="stop3154"
     style="stop-color:#ffff00;stop-opacity:1;" /></linearGradient><linearGradient
   inkscape:collect="always"
   xlink:href="#XMLID_1_"
   id="linearGradient3085"
   gradientUnits="userSpaceOnUse"
   gradientTransform="matrix(1,0,0,-1,226.918,400.7705)"
   x1="-189.1689"
   y1="375.7417"
   x2="-204.5553"
   y2="374.34949" /><linearGradient
   inkscape:collect="always"
   xlink:href="#XMLID_2_"
   id="linearGradient3087"
   gradientUnits="userSpaceOnUse"
   gradientTransform="matrix(1,0,0,-1,226.918,400.7705)"
   x1="-209.47411"
   y1="389.92529"
   x2="-207.42261"
   y2="393.2222" /><linearGradient
   inkscape:collect="always"
   xlink:href="#XMLID_3_"
   id="linearGradient3089"
   gradientUnits="userSpaceOnUse"
   gradientTransform="matrix(1,0,0,-1,226.918,400.7705)"
   x1="-212.6841"
   y1="366.2095"
   x2="-217.7756"
   y2="365.74881" /><linearGradient
   inkscape:collect="always"
   xlink:href="#XMLID_4_"
   id="linearGradient3091"
   gradientUnits="userSpaceOnUse"
   gradientTransform="matrix(1,0,0,-1,226.918,400.7705)"
   x1="-208.99319"
   y1="378.3696"
   x2="-214.2493"
   y2="377.89401" /><linearGradient
   inkscape:collect="always"
   xlink:href="#XMLID_5_"
   id="linearGradient3093"
   gradientUnits="userSpaceOnUse"
   gradientTransform="matrix(1,0,0,-1,226.918,400.7705)"
   x1="-210.7256"
   y1="371.77881"
   x2="-209.5114"
   y2="373.72989" /></defs>
  <sodipodi:namedview
   id="base"
   showgrid="false"
   inkscape:zoom="7.8666667"
   inkscape:cx="30"
   inkscape:cy="36.807376"
   inkscape:window-width="770"
   inkscape:window-height="839"
   inkscape:window-x="264"
   inkscape:window-y="198"
   inkscape:window-maximized="0"
   inkscape:current-layer="svg153" />
  <g
   id="g3150"
   transform="translate(0,10.762585)"><path
     a:adobe-blending-mode="multiply"
     d="m 122.006,26.621 -2.637,4.66 -0.943,2.832 c 0.467,2.258 -0.266,3.598 -0.266,4.855 0,1.557 -0.461,2.801 -1.645,4.869 C 114.417,47.509 99.71,62.56 94.22,68.05 L 66.418,95.188 c -4.184,4.484 -9.047,5.219 -11.953,4.496 -1.66,-0.41 -2.832,-1.318 -3.131,-2.428 -0.348,-1.283 -3.07,-3.521 -1.371,-5.18 -3.203,3.916 -8.291,4.537 -11.707,3.916 -2.805,-0.51 -8.205,-3.641 -8.752,-5.273 -0.102,-0.293 -0.178,-1.016 -0.178,-1.016 -5.578,4.826 -12.225,3.771 -14.654,1.168 -0.664,-0.719 -3.564,-2.396 -3.564,-3.217 0,-1.072 4.309,-6.359 4.309,-6.359 C 13.318,83.393 49.35,34.031 49.35,34.031 l 2.182,-6.07 c 0,-4.17 -4.432,-4.512 -6.564,-4.678 l -19,4.461 c -1.674,0 -2.938,-0.445 -3.758,-1.32 -0.895,-0.951 -1.082,-2.211 -1.082,-3.1 0,-3.186 2.354,-6.746 5.502,-6.746 l 65.373,-6.016 0.148,-0.135 c 0.111,-0.102 2.812,-2.486 7.525,-1.494 12.463,2.629 19.994,6.096 22.389,10.303 0.621,1.09 0.848,2.166 0.848,3.199 -10e-4,1.518 -0.483,2.942 -0.907,4.186 z"
     id="path155"
     inkscape:connector-curvature="0"
     style="opacity:0.3" /><path
     d="m 96.543,1.602 c -5.537,-1.168 -8.74,1.826 -8.74,1.826 L 81.18,6.74 c 0,0 -3.223,-2.094 -5.959,-1.988 H 24.229 c -7.285,0 -10.594,13.908 -0.662,13.908 h 17.879 c 2.729,0.209 5.297,0.66 5.297,3.311 L 44.757,27.268 3.699,67.002 c -7.283,7.285 4.303,14.238 9.27,9.271 l 0.104,0.027 -2.088,1.959 c -7.283,7.285 5.982,15.008 15.916,6.398 l 1.709,-1.795 c -4.62,8.042 11.976,12.693 18.89,4.206 l 1.416,-1.379 0.139,0.037 c -8.443,8.23 5.635,14.387 14.904,4.453 l 27.812,-27.15 c 0,0 19.869,-19.865 22.518,-24.502 2.65,-4.637 1.99,-5.961 0.664,-12.584 l 4.635,-3.973 C 120.99,17.434 126.348,7.889 96.543,1.602 z"
     id="path156"
     inkscape:connector-curvature="0"
     style="fill:#ffcc99;fill-opacity:1" /><path
     a:adobe-blending-mode="multiply"
     d="m 80.938,8.09 c 1.131,0.225 7.479,3.145 7.479,5.934 v 1.523 l 1.514,-0.16 c 7.818,-0.816 20.182,1.822 20.182,8.736 l -0.859,-5.594 1.885,-0.039 C 107.811,13.369 98.034,13.23 90.141,13.625 88.75,9.217 82.164,5.52 81.42,5.389 L 80.938,8.09 z"
     id="path157"
     inkscape:connector-curvature="0"
     style="opacity:0.7;fill:#cc9966;fill-opacity:1" /><path
     a:adobe-blending-mode="multiply"
     d="m 21.555,15.852 26.672,-1.438 c 4.801,7.543 7.543,9.6 17.828,6.172 8.482,-2.828 14.398,-3.43 14.398,-3.43 0,0 -6.857,6.172 -13.027,8.914 C 61.254,28.814 53.713,29.5 43.428,30.185 44,25.398 49.508,19.755 45.485,19.214 32.934,17.52 23.566,18.66 23.566,18.66 l -2.011,-2.808 z"
     id="path158"
     inkscape:connector-curvature="0"
     style="opacity:0.7;fill:#cd9966" /><path
     a:adobe-blending-mode="multiply"
     d="m 65.369,56.24 c 0,0 4.113,2.742 2.742,4.801 -1.371,2.057 -10.971,7.541 -11.656,10.285 -4.113,2.742 -8.229,8.227 -9.6,10.971 -1.371,2.742 -8.914,4.113 -11.656,4.113 -2.742,0 -3.428,4.799 -0.686,4.799 2.742,0 9.52,-0.742 12.986,-4.141 L 71.538,63.097 c 0,0 3.43,-3.43 5.486,-2.057 -3.428,-1.372 -11.655,-4.8 -11.655,-4.8 z"
     id="path159"
     inkscape:connector-curvature="0"
     style="opacity:0.7;fill:#cd9966" /><path
     a:adobe-blending-mode="multiply"
     d="m 44.799,52.127 c 0,0 4.113,2.742 2.742,4.799 -1.371,2.057 -10.971,7.543 -11.656,10.285 -4.113,2.742 -8.229,8.229 -9.6,10.971 -1.371,2.742 -8.914,4.115 -11.656,4.115 -2.742,0 -3.198,3.7 -0.686,4.799 4.095,1.791 9.52,-0.742 12.988,-4.143 L 50.968,58.982 c 0,0 3.43,-3.428 5.486,-2.057 -3.427,-1.37 -11.655,-4.798 -11.655,-4.798 z"
     id="path160"
     inkscape:connector-curvature="0"
     style="opacity:0.7;fill:#cc9966;fill-opacity:1" /><path
     a:adobe-blending-mode="multiply"
     d="m 35.885,41.842 c 0,0 4.113,2.742 2.742,4.799 -1.371,2.057 -10.971,7.543 -11.656,10.285 -4.113,2.742 -8.229,8.229 -9.6,10.971 C 16,70.639 10.728,74.43 5.715,72.012 3.244,70.821 2.287,76.811 5.029,76.811 c 2.742,0 9.52,-0.742 12.988,-4.143 L 42.056,48.697 c 0,0 3.428,-3.428 5.484,-2.057 -3.427,-1.37 -11.655,-4.798 -11.655,-4.798 z"
     id="path161"
     inkscape:connector-curvature="0"
     style="opacity:0.7;fill:#cc9966;fill-opacity:1" /><path
     a:adobe-blending-mode="multiply"
     d="m 49.598,32.242 c 4.801,0.686 15.086,4.799 17.828,6.855 2.742,2.059 13.713,2.059 15.084,6.172 C 78.397,42.527 73.688,44.361 68.797,42.527 63.313,40.47 58.512,39.097 55.77,37.726 53.028,36.355 49.598,32.242 49.598,32.242 z"
     id="path162"
     inkscape:connector-curvature="0"
     style="opacity:0.7;fill:#cd9966" /><path
     a:adobe-blending-mode="multiply"
     d="m 53.713,29.5 c 6.17,0 24.684,-1.373 28.797,-4.801 -6.17,6.172 -21.256,9.6 -28.797,4.801 z"
     id="path163"
     inkscape:connector-curvature="0"
     style="opacity:0.7;fill:#cd9966" /><path
     a:adobe-blending-mode="multiply"
     d="m 67.426,45.955 c 6.17,1.371 10.971,0.686 13.027,2.057 2.056,1.371 2.742,4.801 2.742,4.801 -4.113,-2.057 -13.713,-6.172 -15.769,-6.858 z"
     id="path164"
     inkscape:connector-curvature="0"
     style="opacity:0.7;fill:#cd9966" /><path
     a:adobe-blending-mode="lighten"
     d="m 5.072,71.023 c 2.234,-1.117 6.674,-4.912 7.789,-7.146 1.119,-2.232 2.236,-3.908 5.029,-5.584 2.791,-1.676 10.053,-7.26 11.17,-9.494 1.117,-2.236 5.023,-6.145 5.023,-6.145 l 3.303,-1.631 3.842,-8.705 -35.624,33.795 c 0,0 -1.645,3.235 -0.532,4.91 z"
     id="path165"
     inkscape:connector-curvature="0"
     style="opacity:0.95;fill:#ffffff" /><path
     a:adobe-blending-mode="lighten"
     d="m 13.814,81.086 c 2.234,-1.117 6.67,-4.912 7.789,-7.146 1.113,-2.234 2.234,-3.91 5.025,-5.584 2.793,-1.676 10.055,-7.26 11.17,-9.496 1.117,-2.234 5.027,-6.145 5.027,-6.145 L 47.886,51.779 43.943,47.687 14.34,76.174 c 0,0 -1.645,3.236 -0.526,4.912 z"
     id="path166"
     inkscape:connector-curvature="0"
     style="opacity:0.95;fill:#ffffff" /><path
     a:adobe-blending-mode="lighten"
     d="m 31.23,85.951 c 2.232,-1.117 6.668,-4.912 7.787,-7.146 1.115,-2.234 2.234,-3.908 5.025,-5.584 2.095,-1.257 6.703,-4.712 9.348,-7.305 0.882,-0.864 -1.4,-0.004 -1.4,-0.004 l -8.09,6.127 -2.84,-0.078 -9.307,9.078 c 0.001,0 -2.994,2.649 -0.523,4.912 z"
     id="path167"
     inkscape:connector-curvature="0"
     style="opacity:0.95;fill:#ffffff" /><path
     a:adobe-blending-mode="lighten"
     d="m 50.176,90.561 c 2.234,-1.117 6.672,-4.912 7.793,-7.146 1.113,-2.234 2.232,-3.908 5.023,-5.584 1.852,-1.11 5.665,-3.938 8.352,-6.369 1.367,-1.237 -5.445,-0.629 -5.445,-0.629 L 50.707,85.648 c 0,0 -5.379,3.888 -0.531,4.913 z"
     id="path168"
     inkscape:connector-curvature="0"
     style="opacity:0.95;fill:#ffffff" /><path
     d="m 122.242,16.428 c 0,-1.426 -0.311,-2.961 -1.211,-4.541 C 118.191,6.9 110.275,3.098 96.826,0.26 91.162,-0.935 87.73,1.699 87.076,2.258 86.885,2.354 82.287,4.653 81.23,5.18 80.041,4.516 77.515,3.291 75.166,3.383 L 24.229,3.381 c -4.859,0 -8.244,5 -8.244,9.488 0,1.984 0.633,3.707 1.824,4.977 0.934,0.998 2.693,2.186 5.758,2.186 h 17.879 c 3.119,0.244 3.822,0.807 3.895,1.777 -0.201,0.535 -1.578,4.205 -1.76,4.688 C 43.141,26.922 2.744,66.018 2.744,66.018 0.758,68.006 0,69.992 0,71.773 c 0,1.939 0.898,3.637 2.094,4.83 1.617,1.619 4.025,2.611 6.418,2.666 -1.479,2.564 -1.27,5.322 0.738,7.477 3.498,3.762 11.031,4.398 17.285,-0.129 0.051,0.26 0.109,0.506 0.184,0.732 0.891,2.641 3.74,4.643 7.629,5.35 3.059,0.557 7.23,0.258 10.762,-1.822 0.018,0.43 0.08,0.805 0.16,1.104 0.574,2.117 2.438,3.711 5.115,4.375 3.631,0.898 9.629,0.068 14.576,-5.24 C 64.918,91.158 92.73,64.01 92.73,64.01 c 0.828,-0.826 20.041,-20.061 22.752,-24.803 1.467,-2.57 1.998,-4.312 1.998,-6.238 0,-1.547 -0.344,-3.213 -0.82,-5.523 l 4.109,-4.682 c 10e-4,0 1.473,-4.364 1.473,-6.336 z m -3.656,4.201 -5.137,4.799 0.524,2.572 c 0.467,2.258 0.77,3.719 0.77,4.977 0,1.557 -0.461,2.803 -1.645,4.869 C 111,41.52 96.293,56.57 90.803,62.059 L 63,89.197 c -4.184,4.482 -9.047,5.215 -11.953,4.496 -1.66,-0.412 -2.83,-1.32 -3.131,-2.43 -0.348,-1.281 0.396,-2.9 2.094,-4.557 l -0.088,-0.092 c 5.375,-5.234 25.049,-24.41 25.049,-24.41 l -5.062,-0.951 1.047,1.039 -24.41,23.793 c -3.203,3.914 -8.289,4.537 -11.707,3.916 -2.805,-0.512 -4.969,-1.895 -5.516,-3.525 -0.102,-0.297 -0.145,-0.594 -0.145,-0.891 0,-0.658 0.223,-1.307 0.547,-1.906 1.473,-1.545 3.252,-3.41 3.252,-3.41 L 32.858,80.16 c 4.816,-4.678 17.279,-16.785 20.451,-19.867 0.477,-0.463 3.029,-1.6 3.029,-1.6 l -5.379,-2.305 0.418,1.957 -22.414,21.776 c -0.588,0.641 -1.027,1.252 -1.389,1.844 l -1.666,1.748 c -5.576,4.824 -12.225,3.771 -14.654,1.166 -0.664,-0.717 -0.996,-1.5 -0.996,-2.318 0,-1.07 0.568,-2.203 1.695,-3.332 0.002,0 31.756,-29.768 31.756,-29.768 l -2.738,-3.826 -0.768,3.84 -28.125,25.91 -0.08,-0.08 C 9.902,77.401 6.062,76.698 4.033,74.666 2.107,72.742 2.34,70.301 4.668,67.973 l 41.264,-39.934 2.184,-6.068 c 0,-4.172 -4.434,-4.514 -6.566,-4.678 L 23.568,17.289 c -1.674,0 -2.938,-0.445 -3.758,-1.32 -0.895,-0.951 -1.082,-2.211 -1.082,-3.1 0,-3.186 2.355,-6.746 5.502,-6.746 h 50.992 c 1.928,-0.074 4.412,1.252 5.215,1.768 l 0.656,0.426 7.494,-3.746 0.146,-0.135 c 0.113,-0.102 2.812,-2.486 7.525,-1.492 12.463,2.629 19.996,6.094 22.389,10.301 0.623,1.092 0.848,2.166 0.848,3.201 -0.001,1.517 -0.485,2.939 -0.909,4.183 z"
     id="path169"
     inkscape:connector-curvature="0" /><path
     a:adobe-blending-mode="lighten"
     d="m 82.271,22.626 c 2.408,-2.106 3.312,-5.72 6.923,-6.321 3.612,-0.602 13.545,-1.505 17.76,2.709 -3.312,0 -9.633,4.214 -9.934,6.923 -0.301,2.709 -1.806,2.106 -3.01,1.204 -1.204,-0.902 -2.107,-3.611 -2.107,-5.117 0,-1.504 2.107,-3.611 4.215,-3.912 -5.419,0.601 -10.537,-10e-4 -13.847,4.514 z"
     id="path170"
     inkscape:connector-curvature="0"
     style="opacity:0.7;fill:#ffffff" /><path
     a:adobe-blending-mode="multiply"
     d="m 114.953,25.943 c 4.635,-3.973 10.068,-13.586 -0.902,-17.699 2.057,4.113 -2.057,10.285 -4.799,10.285 0,2.742 2.742,9.598 -4.801,18.512 -1.601,1.893 -3.071,3.62 -4.445,5.203 C 93.135,43.276 83.284,41.51 83.284,41.51 l 0.298,9.83 -0.832,-0.397 -0.022,7.462 -18.034,12.541 10.673,0.369 c -4.389,4.685 -9.312,9.608 -9.312,9.608 0,0 -8.914,10.285 -11.656,10.285 -2.744,0 -6.172,3.43 -2.744,3.43 3.43,0 9.6,-2.059 21.256,-13.715 11.658,-11.656 42.512,-39.768 43.197,-47.996 0.687,-8.228 -1.155,-6.984 -1.155,-6.984 z"
     id="path239"
     inkscape:connector-curvature="0"
     style="opacity:0.7;fill:#cc9966;fill-opacity:1" /></g>
<g
   style="overflow:visible"
   id="g3056"
   transform="matrix(1.828722,0,0,1.828722,19.552668,-11.312)"><g
     id="Layer_1"
     style="stroke:#000000">
    <g
   id="Layer_1_2_">
      <path
   id="path157-0"
   d="M 18.455,0.623 11.037,7.494 0,35.4 9.541,39.291 c 0,0 3.617,-3.35 4.593,-4.254 1.209,0.485 5.177,2.077 6.143,2.465 0.312,1.111 1.958,6.965 1.958,6.965 l 9.07,3.698 8.508,-7.882 L 28.966,4.012 19.127,0 18.455,0.623 z"
   inkscape:connector-curvature="0"
   style="stroke:none" />
      <linearGradient
   gradientTransform="matrix(1,0,0,-1,226.918,400.7705)"
   y2="374.34949"
   x2="-204.5553"
   y1="375.7417"
   x1="-189.1689"
   gradientUnits="userSpaceOnUse"
   id="XMLID_1_">
        <stop
   id="stop159"
   style="stop-color:#669EC9"
   offset="0" />
        <stop
   id="stop160"
   style="stop-color:#1353A2"
   offset="1" />
      </linearGradient>
      <path
   id="path164-4"
   d="M 38.176,39.837 27.783,5.085 l -7.177,6.648 10.392,34.752 7.178,-6.648 z"
   inkscape:connector-curvature="0"
   style="fill:url(#linearGradient3085);stroke:none" />
      <linearGradient
   gradientTransform="matrix(1,0,0,-1,226.918,400.7705)"
   y2="393.2222"
   x2="-207.42261"
   y1="389.92529"
   x1="-209.47411"
   gradientUnits="userSpaceOnUse"
   id="XMLID_2_">
        <stop
   id="stop166"
   style="stop-color:#A1DBE4"
   offset="0" />
        <stop
   id="stop167"
   style="stop-color:#67C4DC"
   offset="1" />
      </linearGradient>
      <path
   id="path171"
   d="m 27.783,5.085 -8.35,-3.405 -7.177,6.648 8.35,3.405 7.177,-6.648 z"
   inkscape:connector-curvature="0"
   style="fill:url(#linearGradient3087);stroke:none" />
      <path
   id="path172"
   d="M 9.235,37.611 1.863,34.605 12.255,8.328 l 8.35,3.405 10.392,34.752 -7.568,-3.086 -1.959,-6.97 -10.275,-4.189 -1.96,5.371 z"
   inkscape:connector-curvature="0"
   style="fill:#1e94c2;stroke:none" />
      <linearGradient
   gradientTransform="matrix(1,0,0,-1,226.918,400.7705)"
   y2="365.74881"
   x2="-217.7756"
   y1="366.2095"
   x1="-212.6841"
   gradientUnits="userSpaceOnUse"
   id="XMLID_3_">
        <stop
   id="stop174"
   style="stop-color:#669EC9"
   offset="0" />
        <stop
   id="stop175"
   style="stop-color:#2D62AA"
   offset="1" />
      </linearGradient>
      <path
   id="path179"
   d="m 13.823,33.36 -4.588,4.251 1.96,-5.371 2.628,1.12 z"
   inkscape:connector-curvature="0"
   style="fill:url(#linearGradient3089);stroke:none" />
      <linearGradient
   gradientTransform="matrix(1,0,0,-1,226.918,400.7705)"
   y2="377.89401"
   x2="-214.2493"
   y1="378.3696"
   x1="-208.99319"
   gradientUnits="userSpaceOnUse"
   id="XMLID_4_">
        <stop
   id="stop181"
   style="stop-color:#669EC9"
   offset="0" />
        <stop
   id="stop182"
   style="stop-color:#1353A2"
   offset="1" />
      </linearGradient>
      <path
   id="path186"
   d="m 12.931,27.381 4.707,-4.708 -1.304,-4.655 -3.403,9.363 z"
   inkscape:connector-curvature="0"
   style="fill:url(#linearGradient3091);stroke:none" />
      <linearGradient
   gradientTransform="matrix(1,0,0,-1,226.918,400.7705)"
   y2="373.72989"
   x2="-209.5114"
   y1="371.77881"
   x1="-210.7256"
   gradientUnits="userSpaceOnUse"
   id="XMLID_5_">
        <stop
   id="stop188"
   style="stop-color:#A1DBE4"
   offset="0" />
        <stop
   id="stop189"
   style="stop-color:#67C4DC"
   offset="1" />
      </linearGradient>
      <path
   id="path193"
   d="m 19.732,30.155 -6.802,-2.773 4.707,-4.708 2.095,7.481 z"
   inkscape:connector-curvature="0"
   style="fill:url(#linearGradient3093);stroke:none" />
      <path
   id="path194"
   d="m 16.334,18.018 -3.403,9.363 5.761,-0.798 -2.358,-8.565 z"
   a:adobe-blending-mode="multiply"
   inkscape:connector-curvature="0"
   style="opacity:0.41000001;stroke:none" />
      <path
   id="path195"
   d="m 11.195,32.24 -1.96,5.371 0.306,1.68 7.837,-0.757 4.917,1.525 -0.824,-3.63 -10.276,-4.189 z"
   a:adobe-blending-mode="multiply"
   inkscape:connector-curvature="0"
   style="opacity:0.2;stroke:none" />
      <path
   id="path196"
   d="M 38.176,39.837 31.304,48.164 42.81,47.02 50.1,38.886 36.643,34.715 38.176,39.837 z"
   a:adobe-blending-mode="multiply"
   inkscape:connector-curvature="0"
   style="opacity:0.2;stroke:none" />
    </g>
  </g></g></svg>