<?xml version="1.0" encoding="UTF-8" standalone="no"?>
<!-- Generator: Adobe Illustrator 9.0, SVG Export Plug-In  -->

<svg
   xmlns:dc="http://purl.org/dc/elements/1.1/"
   xmlns:cc="http://creativecommons.org/ns#"
   xmlns:rdf="http://www.w3.org/1999/02/22-rdf-syntax-ns#"
   xmlns:svg="http://www.w3.org/2000/svg"
   xmlns="http://www.w3.org/2000/svg"
   xmlns:sodipodi="http://sodipodi.sourceforge.net/DTD/sodipodi-0.dtd"
   xmlns:inkscape="http://www.inkscape.org/namespaces/inkscape"
   width="24pt"
   height="24pt"
   viewBox="0 0 24 24"
   xml:space="preserve"
   id="svg2"
   version="1.1"
   inkscape:version="0.47 r22583"
   sodipodi:docname="gtk-about.svg"><metadata
   id="metadata92"><rdf:RDF><cc:Work
       rdf:about=""><dc:format>image/svg+xml</dc:format><dc:type
         rdf:resource="http://purl.org/dc/dcmitype/StillImage" /></cc:Work></rdf:RDF></metadata><defs
   id="defs90"><inkscape:perspective
     sodipodi:type="inkscape:persp3d"
     inkscape:vp_x="0 : 15 : 1"
     inkscape:vp_y="0 : 1000 : 0"
     inkscape:vp_z="30 : 15 : 1"
     inkscape:persp3d-origin="15 : 10 : 1"
     id="perspective94" /></defs><sodipodi:namedview
   pagecolor="#ffffff"
   bordercolor="#666666"
   borderopacity="1"
   objecttolerance="10"
   gridtolerance="10"
   guidetolerance="10"
   inkscape:pageopacity="0"
   inkscape:pageshadow="2"
   inkscape:window-width="669"
   inkscape:window-height="485"
   id="namedview88"
   showgrid="false"
   inkscape:zoom="7.8666667"
   inkscape:cx="15"
   inkscape:cy="15"
   inkscape:window-x="405"
   inkscape:window-y="167"
   inkscape:window-maximized="0"
   inkscape:current-layer="svg2" />
	<g
   id="Layer_x0020_4"
   style="fill-rule:nonzero;clip-rule:nonzero;stroke:#000000;stroke-miterlimit:4;">
		<path
   style="fill:none;stroke:none;"
   d="M24,24H0V0h24v24z"
   id="path5" />
	</g>
	<g
   id="Layer_x0020_5"
   style="fill-rule:nonzero;clip-rule:nonzero;stroke:#000000;stroke-miterlimit:4;">
		<g
   style="stroke:none;"
   id="g8">
			<path
   style="fill:none;stroke:#000000;stroke-width:2.5944;stroke-linecap:round;stroke-linejoin:round;"
   d="M6.1,2l1.4,2.8l3.1,0.5L8.4,7.5l0.5,3.1L6.1,9.1l-2.8,1.5l0.5-3.1L1.6,5.3l3.1-0.5L6.1,2z"
   id="path10" />
			<path
   style="fill:#F6F623;"
   d="M6.1,2l1.4,2.8l3.1,0.5L8.4,7.5l0.5,3.1L6.1,9.1l-2.8,1.5l0.5-3.1L1.6,5.3l3.1-0.5L6.1,2z"
   id="path12" />
			<path
   style="opacity:0.5;fill:#FFFFFF;"
   d="M6.1,2v4.3L4.7,4.9L6.1,2z"
   id="path14" />
			<path
   d="M6.1,2v4.3l1.4-1.5L6.1,2z"
   id="path16"
   style="opacity:6.000000e-002;" />
			<path
   d="M3.3,10.6l2.8-4.3v2.8l-2.8,1.5z"
   id="path18"
   style="opacity:6.000000e-002;" />
			<path
   d="M8.4,7.5L6.1,6.3l4.5-1L8.4,7.5z"
   id="path20"
   style="opacity:6.000000e-002;" />
			<path
   style="opacity:0.5;fill:#FFFFFF;"
   d="M8.9,10.6L6.1,6.3v2.8l2.8,1.5z"
   id="path22" />
			<path
   style="opacity:0.5;fill:#FFFFFF;"
   d="M3.3,10.6l2.8-4.3L3.9,7.5l-0.5,3.1z"
   id="path24" />
			<path
   d="M1.6,5.3l2.3,2.2l2.3-1.2l-4.5-1z"
   id="path26"
   style="opacity:6.000000e-002;" />
		</g>
		<g
   style="stroke:none;"
   id="g28">
			<path
   style="fill:none;stroke:#000000;stroke-width:2.5944;stroke-linecap:round;stroke-linejoin:round;"
   d="M6.2,12.9l1.4,2.8l3.1,0.5l-2.3,2.2L9,21.4L6.2,20l-2.8,1.5l0.5-3.1l-2.3-2.2l3.1-0.5l1.4-2.8z"
   id="path30" />
			<path
   style="fill:#F6F623;"
   d="M6.2,12.9l1.4,2.8l3.1,0.5l-2.3,2.2L9,21.4L6.2,20l-2.8,1.5l0.5-3.1l-2.3-2.2l3.1-0.5l1.4-2.8z"
   id="path32" />
			<path
   style="opacity:0.5;fill:#FFFFFF;"
   d="M6.2,12.9v4.3l-1.4-1.5l1.4-2.8z"
   id="path34" />
			<path
   d="M6.2,12.9v4.3l1.4-1.5l-1.4-2.8z"
   id="path36"
   style="opacity:6.000000e-002;" />
			<path
   d="M3.4,21.4l2.8-4.3V20l-2.8,1.5z"
   id="path38"
   style="opacity:6.000000e-002;" />
			<path
   d="M8.4,18.3l-2.3-1.2l4.5-1l-2.3,2.2z"
   id="path40"
   style="opacity:6.000000e-002;" />
			<path
   style="opacity:0.5;fill:#FFFFFF;"
   d="M9,21.4l-2.8-4.3V20L9,21.4z"
   id="path42" />
			<path
   style="opacity:0.5;fill:#FFFFFF;"
   d="M3.4,21.4l2.8-4.3l-2.3,1.2l-0.5,3.1z"
   id="path44" />
			<path
   d="M1.7,16.1l2.3,2.2l2.3-1.2l-4.5-1z"
   id="path46"
   style="opacity:6.000000e-002;" />
		</g>
		<g
   style="stroke:none;"
   id="g48">
			<path
   style="fill:none;stroke:#000000;stroke-width:2.5944;stroke-linecap:round;stroke-linejoin:round;"
   d="M17.8,12.9l1.4,2.8l3.1,0.5l-2.3,2.2l0.5,3.1L17.8,20l-2.8,1.5l0.5-3.1l-2.3-2.2l3.1-0.5l1.4-2.8z"
   id="path50" />
			<path
   style="fill:#F6F623;"
   d="M17.8,12.9l1.4,2.8l3.1,0.5l-2.3,2.2l0.5,3.1L17.8,20l-2.8,1.5l0.5-3.1l-2.3-2.2l3.1-0.5l1.4-2.8z"
   id="path52" />
			<path
   style="opacity:0.5;fill:#FFFFFF;"
   d="M17.8,12.9v4.3l-1.4-1.5l1.4-2.8z"
   id="path54" />
			<path
   d="M17.8,12.9v4.3l1.4-1.5l-1.4-2.8z"
   id="path56"
   style="opacity:6.000000e-002;" />
			<path
   d="M15.1,21.4l2.8-4.3V20l-2.8,1.5z"
   id="path58"
   style="opacity:6.000000e-002;" />
			<path
   d="M20.1,18.3l-2.3-1.2l4.5-1l-2.3,2.2z"
   id="path60"
   style="opacity:6.000000e-002;" />
			<path
   style="opacity:0.5;fill:#FFFFFF;"
   d="M20.6,21.4l-2.8-4.3V20l2.8,1.5z"
   id="path62" />
			<path
   style="opacity:0.5;fill:#FFFFFF;"
   d="M15.1,21.4l2.8-4.3l-2.3,1.2l-0.5,3.1z"
   id="path64" />
			<path
   d="M13.3,16.1l2.3,2.2l2.3-1.2l-4.5-1z"
   id="path66"
   style="opacity:6.000000e-002;" />
		</g>
		<g
   style="stroke:none;"
   id="g68">
			<path
   style="fill:none;stroke:#000000;stroke-width:2.5944;stroke-linecap:round;stroke-linejoin:round;"
   d="M17.8,2l1.4,2.8l3.1,0.5l-2.3,2.2l0.5,3.1l-2.8-1.5l-2.8,1.5l0.5-3.1l-2.3-2.2l3.1-0.5L17.8,2z"
   id="path70" />
			<path
   style="fill:#F6F623;"
   d="M17.8,2l1.4,2.8l3.1,0.5l-2.3,2.2l0.5,3.1l-2.8-1.5l-2.8,1.5l0.5-3.1l-2.3-2.2l3.1-0.5L17.8,2z"
   id="path72" />
			<path
   style="opacity:0.5;fill:#FFFFFF;"
   d="M17.8,2v4.3l-1.4-1.5L17.8,2z"
   id="path74" />
			<path
   d="M17.8,2v4.3l1.4-1.5L17.8,2z"
   id="path76"
   style="opacity:6.000000e-002;" />
			<path
   d="M15.1,10.6l2.8-4.3v2.8l-2.8,1.5z"
   id="path78"
   style="opacity:6.000000e-002;" />
			<path
   d="M20.1,7.5l-2.3-1.2l4.5-1l-2.3,2.2z"
   id="path80"
   style="opacity:6.000000e-002;" />
			<path
   style="opacity:0.5;fill:#FFFFFF;"
   d="M20.6,10.6l-2.8-4.3v2.8l2.8,1.5z"
   id="path82" />
			<path
   style="opacity:0.5;fill:#FFFFFF;"
   d="M15.1,10.6l2.8-4.3l-2.3,1.2l-0.5,3.1z"
   id="path84" />
			<path
   d="M13.3,5.3l2.3,2.2l2.3-1.2l-4.5-1z"
   id="path86"
   style="opacity:6.000000e-002;" />
		</g>
	</g>
</svg>