<?xml version="1.0" encoding="UTF-8" standalone="yes"?>
<svg version="1.1" width="64" height="64" color-interpolation="linearRGB"
     xmlns:svg="http://www.w3.org/2000/svg" xmlns="http://www.w3.org/2000/svg">
 <g>
  <path style="fill:#010101; fill-opacity:0.5725"
        d="M27 62L29 64L32.13 60.83L37 64L45.39 52.54L64 43L59 40L61 42L36 54L27 62z
           M58 39L62 36L58 34L55 37L58 39z"
  />
  <path style="fill:none; stroke:#010101; stroke-width:4"
        d="M6.25 35C6.25 35 11.87 41 16.87 47.5C21.87 54 26.25 60.75 26.25 60.75L59.12 41.87L32 20L6.25 35z"
  />
  <radialGradient id="gradient0" gradientUnits="userSpaceOnUse" cx="0" cy="0" r="64" gradientTransform="matrix(0.5714,0,0,0.3333,26,40)">
   <stop offset="1" stop-color="#fffcc0"/>
   <stop offset="0.4886" stop-color="#f1b706"/>
  </radialGradient>
  <path style="fill:url(#gradient0)"
        d="M6.25 35C6.25 35 11.87 41 16.87 47.5C21.87 54 26.25 60.75 26.25 60.75L50.04 47.08L46 47L49 43L57.05 43.06L59.12 41.87L32 20L6.25 35z"
  />
  <path style="fill:#e2c254"
        d="M50.04 47.08L46 47L49 43L57.05 43.06L50.04 47.08z"
  />
  <path style="fill:none; stroke:#010101; stroke-width:4"
        d="M2.62 35.87C2.62 35.87 10.95 41.26 19 46.87C27.44 52.75 35.75 57.75 35.75 57.75L58.12 31.37C58.12 31.37 45.44 25.7 35.37 20.37C30.18 17.62 26 14.37 26 14.37L2.62 35.87z"
  />
  <linearGradient id="gradient1" gradientUnits="userSpaceOnUse" x1="107.04" y1="-12.09" x2="118.33" y2="32.99">
   <stop offset="0" stop-color="#ffefa5"/>
   <stop offset="0.7424" stop-color="#fffcc0"/>
   <stop offset="1" stop-color="#fff890"/>
  </linearGradient>
  <path style="fill:url(#gradient1)"
        d="M2.62 35.87C2.62 35.87 10.95 41.26 19 46.87C27.44 52.75 35.75 57.75 35.75 57.75L44.86 47L33 45.25L23 43L25 42L37 40.75L49.74 41.25L58.12 31.37C58.12 31.37 45.44 25.7 35.37 20.37C30.18 17.62 26 14.37 26 14.37L2.62 35.87z"
  />
  <linearGradient id="gradient2" gradientUnits="userSpaceOnUse" x1="-47.14" y1="-15.78" x2="-28.46" y2="-37.85">
   <stop offset="0" stop-color="#010101"/>
   <stop offset="1" stop-color="#9e9e9e"/>
  </linearGradient>
  <path style="fill:none; stroke:url(#gradient2); stroke-width:1"
        d="M20 41L34.87 25.87
           M16 35L24 27"
  />
  <linearGradient id="gradient3" gradientUnits="userSpaceOnUse" x1="-47.14" y1="-15.78" x2="-28.46" y2="-37.85">
   <stop offset="0" stop-color="#010101"/>
   <stop offset="1" stop-color="#9e9e9e"/>
  </linearGradient>
  <path style="fill:none; stroke:url(#gradient3); stroke-width:1"
        d="M20 36L28.12 27.62"
  />
  <linearGradient id="gradient4" gradientUnits="userSpaceOnUse" x1="17.77" y1="-64" x2="46.22" y2="-64">
   <stop offset="0" stop-color="#c5b03a"/>
   <stop offset="1" stop-color="#e9da71"/>
  </linearGradient>
  <path style="fill:url(#gradient4)"
        d="M44.86 47L33 45.25L23 43L25 42L37 40.75L49.74 41.25L44.86 47z"
  />
  <path style="fill:none; stroke:#010101; stroke-width:4"
        d="M17 4H51C51 4 54 5 54 9C54 13 51 14 51 14H17L6 9L17 4z
           M17.96 4.58L16 7V11L17.96 13.41
           M44.96 4.58C44.1 5.25 43 6.57 43 9C43 11.42 44.1 12.74 44.96 13.41"
        transform="matrix(0.7071,-0.7071,0.7071,0.7071,15.8224,37.5335)"
  />
  <linearGradient id="gradient5" gradientUnits="userSpaceOnUse" x1="43.05" y1="9.82" x2="40.39" y2="21.77">
   <stop offset="0" stop-color="#ffeed5"/>
   <stop offset="0.553" stop-color="#dbab5f"/>
   <stop offset="0.8143" stop-color="#ffeed5"/>
  </linearGradient>
  <path style="fill:url(#gradient5)"
        d="M17 4L14.37 6.76V11.23L17 14L8.69 9.84L8.74 8.12L17 4z"
        transform="matrix(0.7071,-0.7071,0.7071,0.7071,15.8224,37.5335)"
  />
  <linearGradient id="gradient6" gradientUnits="userSpaceOnUse" x1="10.58" y1="-64" x2="63.41" y2="-64">
   <stop offset="0" stop-color="#ffeaba"/>
   <stop offset="1" stop-color="#fff6e3"/>
  </linearGradient>
  <path style="fill:url(#gradient6)"
        d="M19 4L16.09 6.84L42 7L45 4H19z"
        transform="matrix(0.7071,-0.7071,0.7071,0.7071,15.8224,37.5335)"
  />
  <linearGradient id="gradient7" gradientUnits="userSpaceOnUse" x1="19.74" y1="-64" x2="52.25" y2="-64">
   <stop offset="1" stop-color="#fbb50d"/>
   <stop offset="0" stop-color="#f0ab06"/>
  </linearGradient>
  <path style="fill:url(#gradient7)"
        d="M16.09 6.84V11.15L42 11V7L16.09 6.84z"
        transform="matrix(0.7071,-0.7071,0.7071,0.7071,15.8224,37.5335)"
  />
  <linearGradient id="gradient8" gradientUnits="userSpaceOnUse" x1="129.35" y1="27.64" x2="124.48" y2="47.37">
   <stop offset="0" stop-color="#a52a04"/>
   <stop offset="1" stop-color="#fdb44b"/>
  </linearGradient>
  <path style="fill:url(#gradient8)"
        d="M16.09 11.15L19 14H45L42 11L16.09 11.15z"
        transform="matrix(0.7071,-0.7071,0.7071,0.7071,15.8224,37.5335)"
  />
  <linearGradient id="gradient9" gradientUnits="userSpaceOnUse" x1="69.23" y1="1.9" x2="69.23" y2="14.09">
   <stop offset="0" stop-color="#ffeaee"/>
   <stop offset="0.7765" stop-color="#d17c8a"/>
   <stop offset="1" stop-color="#da9faa"/>
  </linearGradient>
  <path style="fill:url(#gradient9)"
        d="M51 4C51 4 48 5 48 9C48 13 51 14 51 14H47C47 14 44 13 44 9C44 5 47 4 47 4H51z"
        transform="matrix(0.7071,-0.7071,0.7071,0.7071,15.8224,37.5335)"
  />
  <linearGradient id="gradient10" gradientUnits="userSpaceOnUse" x1="114.68" y1="3.18" x2="114.6" y2="19.44">
   <stop offset="0" stop-color="#ffe3e8"/>
   <stop offset="1" stop-color="#f8a1b1"/>
  </linearGradient>
  <path style="fill:url(#gradient10)"
        d="M51 4C51 4 54 5 54 9C54 13 51 14 51 14C51 14 48 13 48 9C48 5 51 4 51 4z"
        transform="matrix(0.7071,-0.7071,0.7071,0.7071,15.8224,37.5335)"
  />
  <path style="fill:#010101"
        d="M6.21 13.25C5.78 13.31 6.03 13.5 6.03 13.5C6.28 13.72 6.28 14.06 6.28 14.06C6.03 13.37 6.21 14.31 6.21 14.31C6.37 15.25 5.53 15.25 5.53 15.25H3.62V15.25C3.06 15.25 2.78 15.03 2.78 15.03C2.5 14.84 2.5 14.43 2.5 14.43C2.5 13.9 2.9 13.56 2.9 13.56C3.31 13.25 3.9 13.25 3.9 13.25H4.25L8.34 8.06L6.12 3.25H5.56V3.25C5.09 3.25 4.84 3.03 4.84 3.03C4.56 2.81 4.56 2.43 4.56 2.43C4.56 1.87 5.03 1.56 5.03 1.56C5.46 1.25 6.56 1.25 6.56 1.25H9.5V1.25C10.03 1.25 10.28 1.43 10.28 1.43C10.53 1.65 10.53 2.06 10.53 2.06C10.37 2.62 9.81 2.9 9.81 2.9C9.25 3.22 8.34 3.25 8.34 3.25L9.71 6.37L12.09 3.75V3.75C12.84 3.25 12.59 3.03 12.59 3.03C12.34 2.84 12.34 2.47 12.34 2.47C12.34 1.87 12.71 1.56 12.71 1.56C13.09 1.25 13.03 1.25 13.03 1.25H15.34V1.25C15.93 1.25 16.21 1.43 16.21 1.43C16.5 1.65 16.5 2.09 16.5 2.09C16.5 2.59 16.12 2.87 16.12 2.87C15.75 3.18 15.03 3.25 15.03 3.25L11.31 8.09L13 13.25H13.25V13.25C13.71 13.25 14 13.47 14 13.47C14.25 13.68 14.25 14.06 14.25 14.06C14.25 14.62 13.81 14.93 13.81 14.93C13.37 15.25 12.53 15.25 12.53 15.25H9.5V15.25C9 15.25 8.75 15.03 8.75 15.03C8.5 14.84 8.5 14.43 8.5 14.43C8.62 13.84 9.21 13.53 9.21 13.53C9.81 13.25 11.28 13.25 11.28 13.25H11.53L9.9 9.78L6.21 13.25V13.25z"
        transform="matrix(1,0,0,1,2,3)"
  />
  <path style="fill:#010101"
        d="M29.65 1.25C30.06 1.25 30.28 1.37 30.28 1.37C30.5 1.5 30.5 1.72 30.5 1.72C30.5 1.78 30.5 1.81 30.5 1.81C30.5 1.84 30.46 1.84 30.46 1.84L30.12 5.37V5.37C29.93 4.5 29.56 4.87 29.56 4.87C29.15 5.25 28.59 5.25 28.59 5.25C28.31 5.25 28.15 5.34 28.15 5.34C28 5.43 27.96 5.65 27.96 5.65C28.18 4.47 28.18 4.53 28.18 4.53C28.18 4.62 28.15 4.78 28.15 4.78L28.28 3.25H21.81L21.62 7.25H24V7.25C24.65 5.25 24.71 5.25 24.71 5.25C24.75 5.25 25.34 5.25 25.34 5.25C25.84 5.25 26.09 5.18 26.09 5.18C26.34 5.12 26.34 5.03 26.34 5.03C26.34 5 26.34 4.97 26.34 4.97C26.31 4.93 26.28 4.93 26.28 4.93L24.75 8.97V8.97C24.06 10.65 24.31 10.43 24.31 10.43C24.53 10.25 24.46 11.25 24.46 11.25C23.93 11.25 23.18 11.25 23.18 11.25C22.43 11.25 22.43 11.25 22.43 11.25L22.71 10.25C22.96 9.25 22.5 9.25 22.5 9.25H20.78L20.06 13.25H26.25L26.56 11.15V11.15C26.59 11.18 26.84 11.22 26.84 11.22C27.09 11.25 27.68 11.25 27.68 11.25C28.21 11.25 28.46 11.12 28.46 11.12C28.71 11.03 28.71 10.84 28.71 10.84C28.71 10.78 28.71 10.75 28.71 10.75C28.68 10.72 28.65 10.72 28.65 10.72L28.09 14.5V14.5C28 14.9 27.75 15.06 27.75 15.06C27.5 15.25 27 15.25 27 15.25H17.59V15.25C17.03 15.25 16.78 15.03 16.78 15.03C16.5 14.84 16.5 14.43 16.5 14.43C16.5 13.9 16.9 13.56 16.9 13.56C17.28 13.25 17.87 13.25 17.87 13.25H18.06L20.56 3.25H19.5V3.25C19.03 3.25 18.78 3.03 18.78 3.03C18.5 2.81 18.5 2.43 18.5 2.43C18.5 1.87 18.96 1.56 18.96 1.56C19.4 1.25 20.25 1.25 20.25 1.25H29.65V1.25z"
        transform="matrix(1,0,0,1,2,3)"
  />
  <path style="fill:#0000ff"
        d="M6.21 13.25C5.78 13.31 6.03 13.5 6.03 13.5C6.28 13.72 6.28 14.06 6.28 14.06C6.03 13.37 6.21 14.31 6.21 14.31C6.37 15.25 5.53 15.25 5.53 15.25H3.62V15.25C3.06 15.25 2.78 15.03 2.78 15.03C2.5 14.84 2.5 14.43 2.5 14.43C2.5 13.9 2.9 13.56 2.9 13.56C3.31 13.25 3.9 13.25 3.9 13.25H4.25L8.34 8.06L6.12 3.25H5.56V3.25C5.09 3.25 4.84 3.03 4.84 3.03C4.56 2.81 4.56 2.43 4.56 2.43C4.56 1.87 5.03 1.56 5.03 1.56C5.46 1.25 6.56 1.25 6.56 1.25H9.5V1.25C10.03 1.25 10.28 1.43 10.28 1.43C10.53 1.65 10.53 2.06 10.53 2.06C10.37 2.62 9.81 2.9 9.81 2.9C9.25 3.22 8.34 3.25 8.34 3.25L9.71 6.37L12.09 3.75V3.75C12.84 3.25 12.59 3.03 12.59 3.03C12.34 2.84 12.34 2.47 12.34 2.47C12.34 1.87 12.71 1.56 12.71 1.56C13.09 1.25 13.03 1.25 13.03 1.25H15.34V1.25C15.93 1.25 16.21 1.43 16.21 1.43C16.5 1.65 16.5 2.09 16.5 2.09C16.5 2.59 16.12 2.87 16.12 2.87C15.75 3.18 15.03 3.25 15.03 3.25L11.31 8.09L13 13.25H13.25V13.25C13.71 13.25 14 13.47 14 13.47C14.25 13.68 14.25 14.06 14.25 14.06C14.25 14.62 13.81 14.93 13.81 14.93C13.37 15.25 12.53 15.25 12.53 15.25H9.5V15.25C9 15.25 8.75 15.03 8.75 15.03C8.5 14.84 8.5 14.43 8.5 14.43C8.62 13.84 9.21 13.53 9.21 13.53C9.81 13.25 11.28 13.25 11.28 13.25H11.53L9.9 9.78L6.21 13.25V13.25z"
  />
  <path style="fill:#0000ff"
        d="M29.65 1.25C30.06 1.25 30.28 1.37 30.28 1.37C30.5 1.5 30.5 1.72 30.5 1.72C30.5 1.78 30.5 1.81 30.5 1.81C30.5 1.84 30.46 1.84 30.46 1.84L30.12 5.37V5.37C29.93 4.5 29.56 4.87 29.56 4.87C29.15 5.25 28.59 5.25 28.59 5.25C28.31 5.25 28.15 5.34 28.15 5.34C28 5.43 27.96 5.65 27.96 5.65C28.18 4.47 28.18 4.53 28.18 4.53C28.18 4.62 28.15 4.78 28.15 4.78L28.28 3.25H21.81L21.62 7.25H24V7.25C24.65 5.25 24.71 5.25 24.71 5.25C24.75 5.25 25.34 5.25 25.34 5.25C25.84 5.25 26.09 5.18 26.09 5.18C26.34 5.12 26.34 5.03 26.34 5.03C26.34 5 26.34 4.97 26.34 4.97C26.31 4.93 26.28 4.93 26.28 4.93L24.75 8.97V8.97C24.06 10.65 24.31 10.43 24.31 10.43C24.53 10.25 24.46 11.25 24.46 11.25C23.93 11.25 23.18 11.25 23.18 11.25C22.43 11.25 22.43 11.25 22.43 11.25L22.71 10.25C22.96 9.25 22.5 9.25 22.5 9.25H20.78L20.06 13.25H26.25L26.56 11.15V11.15C26.59 11.18 26.84 11.22 26.84 11.22C27.09 11.25 27.68 11.25 27.68 11.25C28.21 11.25 28.46 11.12 28.46 11.12C28.71 11.03 28.71 10.84 28.71 10.84C28.71 10.78 28.71 10.75 28.71 10.75C28.68 10.72 28.65 10.72 28.65 10.72L28.09 14.5V14.5C28 14.9 27.75 15.06 27.75 15.06C27.5 15.25 27 15.25 27 15.25H17.59V15.25C17.03 15.25 16.78 15.03 16.78 15.03C16.5 14.84 16.5 14.43 16.5 14.43C16.5 13.9 16.9 13.56 16.9 13.56C17.28 13.25 17.87 13.25 17.87 13.25H18.06L20.56 3.25H19.5V3.25C19.03 3.25 18.78 3.03 18.78 3.03C18.5 2.81 18.5 2.43 18.5 2.43C18.5 1.87 18.96 1.56 18.96 1.56C19.4 1.25 20.25 1.25 20.25 1.25H29.65V1.25z"
  />
  <linearGradient id="gradient11" gradientUnits="userSpaceOnUse" x1="-47.14" y1="-15.78" x2="-28.46" y2="-37.85">
   <stop offset="0" stop-color="#010101"/>
   <stop offset="1" stop-color="#9e9e9e"/>
  </linearGradient>
  <path style="fill:none; stroke:url(#gradient11); stroke-width:1"
        d="M13 34L14 36L16 37"
        transform="matrix(1,0,0,1,-2,2)"
  />
  <linearGradient id="gradient12" gradientUnits="userSpaceOnUse" x1="-47.14" y1="-15.78" x2="-28.46" y2="-37.85">
   <stop offset="0" stop-color="#010101"/>
   <stop offset="1" stop-color="#9e9e9e"/>
  </linearGradient>
  <path style="fill:none; stroke:url(#gradient12); stroke-width:1"
        d="M13 34L14 36L16 37"
  />
  <linearGradient id="gradient13" gradientUnits="userSpaceOnUse" x1="-47.14" y1="-15.78" x2="-28.46" y2="-37.85">
   <stop offset="0" stop-color="#010101"/>
   <stop offset="1" stop-color="#9e9e9e"/>
  </linearGradient>
  <path style="fill:none; stroke:url(#gradient13); stroke-width:1"
        d="M13 34L14 36L16 37"
        transform="matrix(1,0,0,1,11,-10)"
  />
  <linearGradient id="gradient14" gradientUnits="userSpaceOnUse" x1="-47.14" y1="-15.78" x2="-28.46" y2="-37.85">
   <stop offset="0" stop-color="#010101"/>
   <stop offset="1" stop-color="#9e9e9e"/>
  </linearGradient>
  <path style="fill:none; stroke:url(#gradient14); stroke-width:1"
        d="M23 24L25 25L26 27"
        transform="matrix(1,0,0,1,2,-1)"
  />
  <linearGradient id="gradient15" gradientUnits="userSpaceOnUse" x1="-47.14" y1="-15.78" x2="-28.46" y2="-37.85">
   <stop offset="0" stop-color="#010101"/>
   <stop offset="1" stop-color="#9e9e9e"/>
  </linearGradient>
  <path style="fill:none; stroke:url(#gradient15); stroke-width:1"
        d="M13 34L14 36L16 37"
        transform="matrix(1,0,0,1,4,2)"
  />
  <linearGradient id="gradient16" gradientUnits="userSpaceOnUse" x1="-47.14" y1="-15.78" x2="-28.46" y2="-37.85">
   <stop offset="0" stop-color="#010101"/>
   <stop offset="1" stop-color="#9e9e9e"/>
  </linearGradient>
  <path style="fill:none; stroke:url(#gradient16); stroke-width:1"
        d="M23 24L25 25L26 27"
        transform="matrix(1,0,0,1,4,23)"
  />
 </g>
</svg>
