<?xml version="1.0" encoding="UTF-8" standalone="yes"?>
<svg version="1.1" width="64" height="64" color-interpolation="linearRGB"
     xmlns:svg="http://www.w3.org/2000/svg" xmlns="http://www.w3.org/2000/svg">
 <g>
  <path style="fill:none; stroke:#000000; stroke-width:4"
        d="M16 41L34 50L48 36V24L30 18L16 29V41z"
  />
  <linearGradient id="gradient0" gradientUnits="userSpaceOnUse" x1="-17.87" y1="50.44" x2="-21.11" y2="26.86">
   <stop offset="0" stop-color="#f0f0f0"/>
   <stop offset="1" stop-color="#d5d5d5"/>
  </linearGradient>
  <path style="fill:url(#gradient0)"
        d="M16 27V41L18 42V33.75L22 35V44L34 50V32L22 18L16 27z"
  />
  <linearGradient id="gradient1" gradientUnits="userSpaceOnUse" x1="64.65" y1="9.62" x2="70.61" y2="15.82">
   <stop offset="0" stop-color="#a2a2a2"/>
   <stop offset="1" stop-color="#bbbbbb"/>
  </linearGradient>
  <path style="fill:url(#gradient1)"
        d="M48 22V36L34 50V32L48 22z"
  />
  <path style="fill:#000000"
        d="M18 33.75V42L22 44V35L18 33.75z
           M26 37V42L30 44V38.62L26 37z
           M38 37V42L40 40V35L38 37z
           M44 31V36L46 34V29L44 31z"
  />
  <path style="fill:none; stroke:#000000; stroke-width:4"
        d="M13 30L21 21L35 38L37 37L52 25L38 12L21 17L11 28L13 30z"
  />
  <linearGradient id="gradient2" gradientUnits="userSpaceOnUse" x1="72.94" y1="-25.67" x2="88.86" y2="-6.24">
   <stop offset="0" stop-color="#ea0606"/>
   <stop offset="1" stop-color="#d00505"/>
  </linearGradient>
  <path style="fill:url(#gradient2)"
        d="M37 37L52 25L38 12L21 17L37 37z"
  />
  <linearGradient id="gradient3" gradientUnits="userSpaceOnUse" x1="60.12" y1="-4.93" x2="70.88" y2="9">
   <stop offset="0" stop-color="#ff4444"/>
   <stop offset="1" stop-color="#f10606"/>
  </linearGradient>
  <path style="fill:url(#gradient3)"
        d="M11 28L13 30L21 21L35 38L37 37L21 17L11 28z"
  />
 </g>
</svg>
