<?xml version="1.0" encoding="UTF-8" standalone="yes"?>
<svg version="1.1" width="64" height="64" color-interpolation="linearRGB"
     xmlns:svg="http://www.w3.org/2000/svg" xmlns="http://www.w3.org/2000/svg">
 <g>
  <path style="fill:#010000; fill-opacity:0.4156"
        d="M28 56H32L34 58H40L42 56L38 54L37 39L28 56z"
        transform="matrix(0.9473,0,0,1,24.2105,-20)"
  />
  <path style="fill:#010000; fill-opacity:0.4156"
        d="M28 56H32L34 58H40L42 56L38 54L37 39L28 56z"
        transform="matrix(0.9473,0,0,1,16.6315,-14)"
  />
  <path style="fill:#010000; fill-opacity:0.4156"
        d="M28 56H32L34 58H40L42 56L38 54L37 39L28 56z"
        transform="matrix(0.9473,0,0,1,9.0526,-6)"
  />
  <path style="fill:#010000; fill-opacity:0.4156"
        d="M28 56H32L34 58H40L42 56L38 54L37 39L28 56z"
        transform="matrix(0.9473,0,0,1,1.4736,0)"
  />
  <path style="fill:none; stroke:#010000; stroke-width:4; stroke-linecap:round; stroke-linejoin:round"
        d="M34 10L2 35L28 46L58 18L49 15C48 16 45 16 43 15C41 14 40 13 41 12L34 10z
           M2 41L28 54V46L2 35V41z
           M28 54L58 24V18L28 46V54z"
  />
  <path style="fill:#333333"
        d="M28 54L58 24V18L28 46V54z"
  />
  <linearGradient id="gradient0" gradientUnits="userSpaceOnUse" x1="19.72" y1="22.9" x2="38.64" y2="38.79">
   <stop offset="0" stop-color="#747474"/>
   <stop offset="1" stop-color="#3e3d3d"/>
  </linearGradient>
  <path style="fill:url(#gradient0)"
        d="M2 41L28 54V46L2 35V41z"
  />
  <linearGradient id="gradient1" gradientUnits="userSpaceOnUse" x1="9.31" y1="3.47" x2="45.35" y2="4.63">
   <stop offset="0" stop-color="#b0b0b0"/>
   <stop offset="1" stop-color="#838383"/>
  </linearGradient>
  <path style="fill:url(#gradient1)"
        d="M34 10L2 35L28 46L58 18L49 15C48 16 45 16 43 15C41 14 40 13 41 12L34 10z"
  />
  <path style="fill:none; stroke:#010000; stroke-width:4; stroke-linecap:round; stroke-linejoin:round"
        d="M34 44L30 48C30 48 31 48.5 32 49C33 49.5 34 50.85 34 51.99C34 54.36 34.99 57 34.99 57L37 54.99C37 54.99 38 50.36 38 47.99C38 46.85 37 45.5 36 45C35 44.5 34 44 34 44z"
        transform="matrix(0.9444,0,0,0.9023,24.2236,-15.5054)"
  />
  <linearGradient id="gradient2" gradientUnits="userSpaceOnUse" x1="44.86" y1="32.73" x2="50.72" y2="38.17">
   <stop offset="0" stop-color="#5a5a5a"/>
   <stop offset="0.2234" stop-color="#dcdcdc"/>
   <stop offset="1" stop-color="#7e7e7e"/>
  </linearGradient>
  <path style="fill:url(#gradient2)"
        d="M34 44L30 48C30 48 31 48.5 32 49C33 49.5 34 50.85 34 51.99C34 54.36 34.99 57 34.99 57L37 54.99C37 54.99 38 50.36 38 47.99C38 46.85 37 45.5 36 45C35 44.5 34 44 34 44z"
        transform="matrix(0.9444,0,0,0.9023,24.2236,-15.5054)"
  />
  <path style="fill:none; stroke:#010000; stroke-width:4; stroke-linecap:round; stroke-linejoin:round"
        d="M34 44L30 48C30 48 31 48.5 32 49C33 49.5 34 50.85 34 51.99C34 54.36 34.99 57 34.99 57L37 54.99C37 54.99 38 50.36 38 47.99C38 46.85 37 45.5 36 45C35 44.5 34 44 34 44z"
        transform="matrix(0.9444,0,0,0.9023,16.6683,-8.2866)"
  />
  <linearGradient id="gradient3" gradientUnits="userSpaceOnUse" x1="44.86" y1="32.73" x2="50.72" y2="38.17">
   <stop offset="0" stop-color="#5a5a5a"/>
   <stop offset="0.2234" stop-color="#dcdcdc"/>
   <stop offset="1" stop-color="#7e7e7e"/>
  </linearGradient>
  <path style="fill:url(#gradient3)"
        d="M34 44L30 48C30 48 31 48.5 32 49C33 49.5 34 50.85 34 51.99C34 54.36 34.99 57 34.99 57L37 54.99C37 54.99 38 50.36 38 47.99C38 46.85 37 45.5 36 45C35 44.5 34 44 34 44z"
        transform="matrix(0.9444,0,0,0.9023,16.6683,-8.2866)"
  />
  <path style="fill:none; stroke:#010000; stroke-width:4; stroke-linecap:round; stroke-linejoin:round"
        d="M34 44L30 48C30 48 31 48.5 32 49C33 49.5 34 50.85 34 51.99C34 54.36 34.99 57 34.99 57L37 54.99C37 54.99 38 50.36 38 47.99C38 46.85 37 45.5 36 45C35 44.5 34 44 34 44z"
        transform="matrix(0.9444,0,0,0.9023,9.1131,-1.0678)"
  />
  <linearGradient id="gradient4" gradientUnits="userSpaceOnUse" x1="44.86" y1="32.73" x2="50.72" y2="38.17">
   <stop offset="0" stop-color="#5a5a5a"/>
   <stop offset="0.2234" stop-color="#dcdcdc"/>
   <stop offset="1" stop-color="#7e7e7e"/>
  </linearGradient>
  <path style="fill:url(#gradient4)"
        d="M34 44L30 48C30 48 31 48.5 32 49C33 49.5 34 50.85 34 51.99C34 54.36 34.99 57 34.99 57L37 54.99C37 54.99 38 50.36 38 47.99C38 46.85 37 45.5 36 45C35 44.5 34 44 34 44z"
        transform="matrix(0.9444,0,0,0.9023,9.1131,-1.0678)"
  />
  <path style="fill:none; stroke:#010000; stroke-width:4; stroke-linecap:round; stroke-linejoin:round"
        d="M34 44L30 48C30 48 31 48.5 32 49C33 49.5 34 50.85 34 51.99C34 54.36 34.99 57 34.99 57L37 54.99C37 54.99 38 50.36 38 47.99C38 46.85 37 45.5 36 45C35 44.5 34 44 34 44z"
        transform="matrix(0.9444,0,0,0.9023,1.5578,6.1508)"
  />
  <linearGradient id="gradient5" gradientUnits="userSpaceOnUse" x1="44.86" y1="32.73" x2="50.72" y2="38.17">
   <stop offset="0" stop-color="#5a5a5a"/>
   <stop offset="0.2234" stop-color="#dcdcdc"/>
   <stop offset="1" stop-color="#7e7e7e"/>
  </linearGradient>
  <path style="fill:url(#gradient5)"
        d="M34 44L30 48C30 48 31 48.5 32 49C33 49.5 34 50.85 34 51.99C34 54.36 34.99 57 34.99 57L37 54.99C37 54.99 38 50.36 38 47.99C38 46.85 37 45.5 36 45C35 44.5 34 44 34 44z"
        transform="matrix(0.9444,0,0,0.9023,1.5578,6.1508)"
  />
 </g>
</svg>
