<?xml version="1.0" encoding="UTF-8" standalone="yes"?>
<svg version="1.1" width="64" height="64" color-interpolation="linearRGB"
     xmlns:svg="http://www.w3.org/2000/svg" xmlns="http://www.w3.org/2000/svg">
 <g>
  <path style="fill:#010101; fill-opacity:0.5725"
        d="M1 42C1 42 8 45.53 15.66 50.48C24.86 56.44 35 64 35 64L40 58L42 59L64 32L50 26L14.12 30.37L1 42z"
  />
  <path style="fill:none; stroke:#010101; stroke-width:4"
        d="M4.62 31.87C4.62 31.87 12.95 37.26 21 42.87C29.44 48.75 35.75 52.75 35.75 52.75L58.12 26.37C58.12 26.37 47.44 21.7 37.37 16.37C32.18 13.62 28 10.37 28 10.37L4.62 31.87z"
        transform="matrix(1,0,0,1,-2,7)"
  />
  <linearGradient id="gradient0" gradientUnits="userSpaceOnUse" x1="108.04" y1="-10.09" x2="119.33" y2="34.99">
   <stop offset="0" stop-color="#ffefa5"/>
   <stop offset="0.7424" stop-color="#fffcc0"/>
   <stop offset="1" stop-color="#fff890"/>
  </linearGradient>
  <path style="fill:url(#gradient0)"
        d="M5.62 38.87C5.62 38.87 11.95 43.26 20 48.87C28.44 54.75 36.75 59.75 36.75 59.75L41.16 54.54L10.01 34.83L5.62 38.87z"
        transform="matrix(1,0,0,1,-3,0)"
  />
  <linearGradient id="gradient1" gradientUnits="userSpaceOnUse" x1="108.04" y1="-10.09" x2="119.33" y2="34.99">
   <stop offset="0" stop-color="#f8d949"/>
   <stop offset="0.7246" stop-color="#e8d371"/>
   <stop offset="1" stop-color="#f1e595"/>
  </linearGradient>
  <path style="fill:url(#gradient1)"
        d="M41.16 54.54L59.12 33.37C59.12 33.37 48.44 28.7 38.37 23.37C33.18 20.62 29 17.37 29 17.37L10.01 34.83L41.16 54.54z"
        transform="matrix(1,0,0,1,-3,0)"
  />
  <linearGradient id="gradient2" gradientUnits="userSpaceOnUse" x1="-47.14" y1="-15.78" x2="-28.46" y2="-37.85">
   <stop offset="0" stop-color="#010101"/>
   <stop offset="1" stop-color="#9e9e9e"/>
  </linearGradient>
  <path style="fill:none; stroke:url(#gradient2); stroke-width:1"
        d="M20 36L34.87 20.87
           M14 32L26.87 19
           M26 40L38.75 26.87
           M32 44L42.75 32.37
           M11 30L23.87 17"
        transform="matrix(1,0,0,1,0,9)"
  />
  <linearGradient id="gradient3" gradientUnits="userSpaceOnUse" x1="-47.14" y1="-15.78" x2="-28.46" y2="-37.85">
   <stop offset="0" stop-color="#010101"/>
   <stop offset="1" stop-color="#9e9e9e"/>
  </linearGradient>
  <path style="fill:none; stroke:url(#gradient3); stroke-width:1"
        d="M29 42L44 26.37
           M23 38L34.75 26.25
           M17 34L28.12 22.62"
        transform="matrix(1,0,0,1,0,9)"
  />
  <path style="fill:none; stroke:#010101; stroke-width:4"
        d="M4.62 31.87C4.62 31.87 12.95 37.26 21 42.87C29.44 48.75 35.75 52.75 35.75 52.75L58.12 26.37C58.12 26.37 47.44 21.7 37.37 16.37C32.18 13.62 28 10.37 28 10.37L4.62 31.87z"
        transform="matrix(1,0,0,1,-2,-7)"
  />
  <linearGradient id="gradient4" gradientUnits="userSpaceOnUse" x1="105.45" y1="-23.42" x2="119.92" y2="34.32">
   <stop offset="0" stop-color="#a5b1ff"/>
   <stop offset="0.7386" stop-color="#eaf1ff"/>
   <stop offset="1" stop-color="#b3b8ff"/>
  </linearGradient>
  <path style="fill:url(#gradient4)"
        d="M4.62 31.87C4.62 31.87 12.95 37.26 21 42.87C29.44 48.75 35.75 52.75 35.75 52.75L58.12 26.37C58.12 26.37 47.44 21.7 37.37 16.37C32.18 13.62 28 10.37 28 10.37L4.62 31.87z"
        transform="matrix(1,0,0,1,-2,-7)"
  />
  <linearGradient id="gradient5" gradientUnits="userSpaceOnUse" x1="-62.14" y1="43.08" x2="-58.5" y2="14.4">
   <stop offset="0" stop-color="#c70585"/>
   <stop offset="0.9621" stop-color="#ee068f"/>
  </linearGradient>
  <path style="fill:url(#gradient5)"
        d="M20.37 21.37C20.37 21.37 16.35 23.07 13.87 25.62C11.25 28.32 9.46 32.97 12.62 33.37C15.62 33.75 19.37 35.62 26.87 34C32.84 32.7 34.82 32.07 37 31.25C39.62 30.25 44.87 31.62 43.5 29.37C42.97 28.51 42.12 27.87 45.62 27.25C49.12 26.62 48.82 22.99 42 22.25C35.12 21.5 31.12 25 26.37 27C21.62 29 18.54 28.71 17.12 28.37C14 27.62 20.37 21.37 20.37 21.37z
           M40 33C37.87 33.12 37 35.12 40.5 35.62C44 36.12 42.12 32.87 40 33z
           M48.62 28.75C47.5 28.87 47.12 29.75 48.5 30.25C49.87 30.75 49.75 28.62 48.62 28.75z"
        transform="matrix(1,0,0,1,-2,-7)"
  />
 </g>
</svg>
