<?xml version="1.0" encoding="UTF-8" standalone="yes"?>
<svg version="1.1" width="64" height="64" color-interpolation="linearRGB"
     xmlns:svg="http://www.w3.org/2000/svg" xmlns="http://www.w3.org/2000/svg">
 <g>
  <path style="fill:#010101; fill-opacity:0.4941"
        d="M40 64H48L60 49L52 46L40 64z"
  />
  <linearGradient id="gradient0" gradientUnits="userSpaceOnUse" x1="55" y1="-64" x2="69" y2="-64">
   <stop offset="0" stop-color="#010000"/>
   <stop offset="1" stop-color="#010000" stop-opacity="0"/>
  </linearGradient>
  <path style="fill:none; stroke:url(#gradient0); stroke-width:3"
        d="M51 41C51 41 54 39 57 40C60 41 60 46 64 43"
  />
  <path style="fill:none; stroke:#010000; stroke-width:4"
        d="M6 10V44L40 62L50 50V16L16 4L6 10z"
  />
  <linearGradient id="gradient1" gradientUnits="userSpaceOnUse" x1="13.84" y1="-38.14" x2="58.34" y2="-27.7">
   <stop offset="0" stop-color="#ffffff"/>
   <stop offset="1" stop-color="#d3d3d3"/>
  </linearGradient>
  <path style="fill:url(#gradient1)"
        d="M6 10L40 24L50 16L16 4L6 10z"
  />
  <linearGradient id="gradient2" gradientUnits="userSpaceOnUse" x1="6.95" y1="-50.95" x2="76.9" y2="-40.97">
   <stop offset="0" stop-color="#1d1e2c"/>
   <stop offset="0.2424" stop-color="#454658"/>
   <stop offset="1" stop-color="#010101"/>
  </linearGradient>
  <path style="fill:url(#gradient2)"
        d="M37 26V48L10 35L10.05 14.87L37 26z"
  />
  <linearGradient id="gradient3" gradientUnits="userSpaceOnUse" x1="8.55" y1="-65.3" x2="42.49" y2="-63.35">
   <stop offset="0" stop-color="#78d905"/>
   <stop offset="0.5075" stop-color="#8cff05"/>
   <stop offset="1" stop-color="#7add05"/>
  </linearGradient>
  <path style="fill:none; stroke:url(#gradient3); stroke-width:1.5; stroke-linecap:round"
        d="M9.37 24.5C9.37 24.5 14 25 15 25.87C16 26.75 16.75 34.25 16.75 34.25L19.12 22.62L20.37 32.25L23 30.25C23 30.25 24.5 32.87 25.87 33.75C27.25 34.62 38 38 38 38"
  />
  <linearGradient id="gradient4" gradientUnits="userSpaceOnUse" x1="40.61" y1="-4.89" x2="77.77" y2="1.75">
   <stop offset="0" stop-color="#474747"/>
   <stop offset="1" stop-color="#a5a0a0"/>
  </linearGradient>
  <path style="fill:url(#gradient4)"
        d="M40 24V62L50 50V16L40 24z"
  />
  <linearGradient id="gradient5" gradientUnits="userSpaceOnUse" x1="11.3" y1="82.69" x2="-25.59" y2="46.62">
   <stop offset="0" stop-color="#909090"/>
   <stop offset="1" stop-color="#d4d4d4"/>
  </linearGradient>
  <path style="fill:url(#gradient5)"
        d="M6 10V44L40 62V24L6 10z
           M37 26V51L8 36V14L37 26z"
  />
  <linearGradient id="gradient6" gradientUnits="userSpaceOnUse" x1="63.81" y1="3.47" x2="73.7" y2="31.53">
   <stop offset="1" stop-color="#9a9a9a"/>
   <stop offset="0" stop-color="#242222"/>
  </linearGradient>
  <path style="fill:url(#gradient6)"
        d="M9.97 35.01L8 37V14L10.05 14.87L9.97 35.01z"
  />
  <linearGradient id="gradient7" gradientUnits="userSpaceOnUse" x1="0.69" y1="-5.52" x2="39.3" y2="-5.52">
   <stop offset="0.3484" stop-color="#f3f3f3"/>
   <stop offset="0" stop-color="#d4cece"/>
   <stop offset="1" stop-color="#d9d9d9"/>
  </linearGradient>
  <path style="fill:url(#gradient7)"
        d="M37 48V51L8 37L10 35.01L37 48z"
  />
  <linearGradient id="gradient8" gradientUnits="userSpaceOnUse" x1="36.01" y1="47.09" x2="39.48" y2="53.17">
   <stop offset="0" stop-color="#f3f3f3"/>
   <stop offset="1" stop-color="#2e2e2e"/>
  </linearGradient>
  <path style="fill:url(#gradient8)"
        d="M32.14 50.14C31.01 50.4 30.42 51.95 30.82 53.59C31.22 55.23 32.47 56.36 33.6 56.1C34.73 55.84 35.32 54.29 34.92 52.65C34.52 51.01 33.27 49.88 32.14 50.14z"
  />
  <linearGradient id="gradient9" gradientUnits="userSpaceOnUse" x1="43.06" y1="44.42" x2="45.67" y2="51.85">
   <stop offset="0.0075" stop-color="#d3d3d3"/>
   <stop offset="1" stop-color="#919191"/>
  </linearGradient>
  <path style="fill:url(#gradient9)"
        d="M30.46 50.57C29.38 50.81 28.8 52.32 29.17 53.94C29.53 55.55 30.7 56.66 31.78 56.42C32.86 56.18 33.44 54.67 33.07 53.05C32.71 51.44 31.54 50.33 30.46 50.57z"
  />
  <linearGradient id="gradient10" gradientUnits="userSpaceOnUse" x1="36.01" y1="47.09" x2="39.48" y2="53.17">
   <stop offset="0" stop-color="#f3f3f3"/>
   <stop offset="1" stop-color="#2e2e2e"/>
  </linearGradient>
  <path style="fill:url(#gradient10)"
        d="M32.14 50.14C31.01 50.4 30.42 51.95 30.82 53.59C31.22 55.23 32.47 56.36 33.6 56.1C34.73 55.84 35.32 54.29 34.92 52.65C34.52 51.01 33.27 49.88 32.14 50.14z"
        transform="matrix(0.9794,0,0,0.9794,-6.9039,-2.4649)"
  />
  <linearGradient id="gradient11" gradientUnits="userSpaceOnUse" x1="43.06" y1="44.42" x2="45.67" y2="51.85">
   <stop offset="0.0075" stop-color="#d3d3d3"/>
   <stop offset="1" stop-color="#919191"/>
  </linearGradient>
  <path style="fill:url(#gradient11)"
        d="M30.46 50.57C29.38 50.81 28.8 52.32 29.17 53.94C29.53 55.55 30.7 56.66 31.78 56.42C32.86 56.18 33.44 54.67 33.07 53.05C32.71 51.44 31.54 50.33 30.46 50.57z"
        transform="matrix(0.9794,0,0,0.9794,-6.9039,-2.4649)"
  />
 </g>
</svg>
