<?xml version="1.0" encoding="UTF-8" standalone="yes"?>
<svg version="1.1" width="64" height="64" color-interpolation="linearRGB"
     xmlns:svg="http://www.w3.org/2000/svg" xmlns="http://www.w3.org/2000/svg">
 <g>
  <path style="fill:none; stroke:#000000; stroke-width:2; stroke-linecap:round; stroke-linejoin:round"
        d="M12 28C10 19 1 24 7 29C12 33 15 41 4 41C-6 41 8 33 15 31C22 29 19 28 19 28C19 28 17 33 19 33H26C23 33 22.75 27 27 27H29C29 27 22 43 16 43C10 43 17 35 26 33H29"
        transform="matrix(1.4097,0,0,1.4097,1.1773,0.972)"
  />
  <path style="fill:#000000"
        d="M20 18C22 18 24 20 24 22L18 24L20 18z"
        transform="matrix(1.4097,0,0,1.4097,1.1773,0.972)"
  />
  <path style="fill:#000000; fill-opacity:0.4"
        d="M20 18L36 2L40 6L24 22C24 20 22 18 20 18z
           M20 18C22 18 24 20 24 22L18 24L20 18z"
        transform="matrix(1.4097,0,0,1.4097,3.9967,3.7915)"
  />
  <path style="fill:none; stroke:#800000; stroke-width:4; stroke-linecap:round; stroke-linejoin:round"
        d="M20 18L36 2L40 6L24 22C24 20 22 18 20 18z"
        transform="matrix(1.4097,0,0,1.4097,1.1773,0.972)"
  />
  <linearGradient id="gradient0" gradientUnits="userSpaceOnUse" x1="129" y1="1.99" x2="129" y2="22">
   <stop offset="0" stop-color="#ff0000"/>
   <stop offset="1" stop-color="#d90000"/>
  </linearGradient>
  <path style="fill:url(#gradient0)"
        d="M20 18L36 2L40 6L24 22C24 20 22 18 20 18z"
        transform="matrix(1.4097,0,0,1.4097,1.1773,0.972)"
  />
  <path style="fill:none; stroke:#545454; stroke-width:4; stroke-linecap:round; stroke-linejoin:round"
        d="M20 18C22 18 24 20 24 22L18 24L20 18z"
        transform="matrix(1.4097,0,0,1.4097,1.1773,0.972)"
  />
  <linearGradient id="gradient1" gradientUnits="userSpaceOnUse" x1="18" y1="16.68" x2="25.31" y2="24">
   <stop offset="1" stop-color="#ffffff"/>
   <stop offset="0" stop-color="#010101"/>
  </linearGradient>
  <path style="fill:url(#gradient1)"
        d="M20 18C22 18 24 20 24 22L18 24L20 18z"
        transform="matrix(1.4097,0,0,1.4097,1.1773,0.972)"
  />
 </g>
</svg>
