<?xml version="1.0" encoding="UTF-8" standalone="yes"?>
<svg version="1.1" width="64" height="64" color-interpolation="linearRGB"
     xmlns:svg="http://www.w3.org/2000/svg" xmlns="http://www.w3.org/2000/svg">
 <g>
  <path style="fill:#010101; fill-opacity:0.4941"
        d="M44 60H52L64 47L57.99 43.99L60 42L56 40L44 60z"
        transform="matrix(0.7386,0,0,0.7386,19.7277,-0.0393)"
  />
  <path style="fill:none; stroke:#010000; stroke-width:4"
        d="M30 5L35 2L50 6V12"
        transform="matrix(0.7386,0,0,0.7386,19.7277,-0.0393)"
  />
  <linearGradient id="gradient0" gradientUnits="userSpaceOnUse" x1="122.91" y1="-32.33" x2="131.68" y2="-5.43">
   <stop offset="0.0075" stop-color="#ececec"/>
   <stop offset="1" stop-color="#c3c3c3"/>
  </linearGradient>
  <path style="fill:url(#gradient0)"
        d="M30 5L35 2L50 6L45 10L30 5z"
        transform="matrix(0.7386,0,0,0.7386,19.7277,-0.0393)"
  />
  <path style="fill:#4b4b4b"
        d="M45 10L50 6V12L45 10z"
        transform="matrix(0.7386,0,0,0.7386,19.7277,-0.0393)"
  />
  <path style="fill:none; stroke:#010000; stroke-width:4"
        d="M14 6V43L44 58L54 48V12L24 2L14 6z"
        transform="matrix(0.7386,0,0,0.7386,19.7277,-0.0393)"
  />
  <linearGradient id="gradient1" gradientUnits="userSpaceOnUse" x1="13.84" y1="-38.14" x2="58.34" y2="-27.7">
   <stop offset="0" stop-color="#ffffff"/>
   <stop offset="1" stop-color="#d3d3d3"/>
  </linearGradient>
  <path style="fill:url(#gradient1)"
        d="M14 6L44 18L54 12L24 2L14 6z"
        transform="matrix(0.7386,0,0,0.7386,19.7277,-0.0393)"
  />
  <linearGradient id="gradient2" gradientUnits="userSpaceOnUse" x1="40.61" y1="-4.89" x2="77.77" y2="1.75">
   <stop offset="0" stop-color="#474747"/>
   <stop offset="1" stop-color="#a5a0a0"/>
  </linearGradient>
  <path style="fill:url(#gradient2)"
        d="M44 18V58L54 48V12L44 18z"
        transform="matrix(0.7386,0,0,0.7386,19.7277,-0.0393)"
  />
  <linearGradient id="gradient3" gradientUnits="userSpaceOnUse" x1="11.3" y1="82.69" x2="-25.59" y2="46.62">
   <stop offset="0" stop-color="#909090"/>
   <stop offset="1" stop-color="#d4d4d4"/>
  </linearGradient>
  <path style="fill:url(#gradient3)"
        d="M14 6V43L44 58V18L14 6z
           M41 20V46L16 35V10L41 20z"
        transform="matrix(0.7386,0,0,0.7386,19.7277,-0.0393)"
  />
  <radialGradient id="gradient4" gradientUnits="userSpaceOnUse" cx="0" cy="0" r="64" gradientTransform="matrix(0.5274,0.0626,-0.0587,0.495,29.7732,22.9153)">
   <stop offset="0" stop-color="#0593dc"/>
   <stop offset="1" stop-color="#00337f"/>
  </radialGradient>
  <path style="fill:url(#gradient4)"
        d="M41 20V43L18 33L18.05 10.87L41 20z"
        transform="matrix(0.7386,0,0,0.7386,19.7277,-0.0393)"
  />
  <linearGradient id="gradient5" gradientUnits="userSpaceOnUse" x1="63.81" y1="3.47" x2="73.7" y2="31.53">
   <stop offset="1" stop-color="#9a9a9a"/>
   <stop offset="0" stop-color="#242222"/>
  </linearGradient>
  <path style="fill:url(#gradient5)"
        d="M17.97 33.01L16 35V10L18.05 10.87L17.97 33.01z"
        transform="matrix(0.7386,0,0,0.7386,19.7277,-0.0393)"
  />
  <linearGradient id="gradient6" gradientUnits="userSpaceOnUse" x1="0.69" y1="-5.52" x2="39.3" y2="-5.52">
   <stop offset="0.3484" stop-color="#f3f3f3"/>
   <stop offset="0" stop-color="#d4cece"/>
   <stop offset="1" stop-color="#d9d9d9"/>
  </linearGradient>
  <path style="fill:url(#gradient6)"
        d="M41 43V46L16 35L18 33.01L41 43z"
        transform="matrix(0.7386,0,0,0.7386,19.7277,-0.0393)"
  />
  <path style="fill:none; stroke:#8dff06; stroke-width:2; stroke-linecap:round"
        d="M38 47L39 47.5"
        transform="matrix(0.7386,0,0,0.7386,19.7277,-0.0393)"
  />
  <path style="fill:#4b4b4b"
        d="M18 38V42L36 51V46L18 38z"
        transform="matrix(0.7386,0,0,0.7386,19.7277,-0.0393)"
  />
  <linearGradient id="gradient7" gradientUnits="userSpaceOnUse" x1="42.47" y1="42.7" x2="41.03" y2="52.39">
   <stop offset="0" stop-color="#cecece"/>
   <stop offset="1" stop-color="#666666"/>
  </linearGradient>
  <path style="fill:url(#gradient7)"
        d="M20 40V41L34 48V46L20 40z"
        transform="matrix(0.7386,0,0,0.7386,19.7277,-0.0393)"
  />
  <path style="fill:#010101; fill-opacity:0.4941"
        d="M32 2C15.43 2 2 15.43 2 32C2 48.56 15.43 62 32 62C48.56 62 62 48.56 62 32C62 15.43 48.56 2 32 2z"
        transform="matrix(0.4081,0.271,-0.3985,0.497,23.8951,5.3373)"
  />
  <path style="fill:none; stroke:#010101; stroke-width:4"
        d="M32 2C15.43 2 2 15.43 2 32C2 48.56 15.43 62 32 62C48.56 62 62 48.56 62 32C62 15.43 48.56 2 32 2z"
        transform="matrix(0.3715,0.314,-0.3628,0.5758,16.4227,-7.5602)"
  />
  <linearGradient id="gradient8" gradientUnits="userSpaceOnUse" x1="34.83" y1="123.49" x2="-57.49" y2="34.83">
   <stop offset="0" stop-color="#010101"/>
   <stop offset="0.7786" stop-color="#707070"/>
   <stop offset="0.8167" stop-color="#737373"/>
   <stop offset="1" stop-color="#ffffff"/>
  </linearGradient>
  <path style="fill:url(#gradient8)"
        d="M32 2C15.43 2 2 15.43 2 32C2 48.56 15.43 62 32 62C48.56 62 62 48.56 62 32C62 15.43 48.56 2 32 2z"
        transform="matrix(0.3715,0.314,-0.3628,0.5758,16.4227,-7.5602)"
  />
  <radialGradient id="gradient9" gradientUnits="userSpaceOnUse" cx="0" cy="0" r="64" gradientTransform="matrix(0.6718,0,0,0.6718,17,17)">
   <stop offset="0.7487" stop-color="#4b4b4b"/>
   <stop offset="0" stop-color="#848484"/>
   <stop offset="1" stop-color="#323232"/>
  </radialGradient>
  <path style="fill:url(#gradient9)"
        d="M32 2C15.43 2 2 15.43 2 32C2 48.56 15.43 62 32 62C48.56 62 62 48.56 62 32C62 15.43 48.56 2 32 2z"
        transform="matrix(0.1734,0.1465,-0.1693,0.2687,16.5719,7.6269)"
  />
  <linearGradient id="gradient10" gradientUnits="userSpaceOnUse" x1="34.73" y1="-11.34" x2="77.67" y2="36.11">
   <stop offset="0.632" stop-color="#434343"/>
   <stop offset="1" stop-color="#ffffff"/>
  </linearGradient>
  <path style="fill:none; stroke:url(#gradient10); stroke-width:2.0999"
        d="M32 2C15.43 2 2 15.43 2 32C2 48.56 15.43 62 32 62C48.56 62 62 48.56 62 32C62 15.43 48.56 2 32 2z"
        transform="matrix(0.3367,0.2846,-0.3288,0.5218,16.4489,-4.8906)"
  />
  <linearGradient id="gradient11" gradientUnits="userSpaceOnUse" x1="29.9" y1="77.2" x2="-12.81" y2="29.55">
   <stop offset="0.6735" stop-color="#080808"/>
   <stop offset="1" stop-color="#ffffff"/>
  </linearGradient>
  <path style="fill:none; stroke:url(#gradient11); stroke-width:2.0999"
        d="M32 2C15.43 2 2 15.43 2 32C2 48.56 15.43 62 32 62C48.56 62 62 48.56 62 32C62 15.43 48.56 2 32 2z"
        transform="matrix(0.3127,0.2643,-0.3055,0.4848,16.4671,-3.0536)"
  />
  <path style="fill:#010101; fill-opacity:0.4941"
        d="M40 64H52L64 50L57.99 46.99L60 45L50 40L40 64z"
        transform="matrix(0.6666,0,0,0.6666,12.3333,21.5088)"
  />
  <path style="fill:none; stroke:#010000; stroke-width:4"
        d="M24 11L29 8L46 13V19"
        transform="matrix(0.6666,0,0,0.6666,12.3333,21.5088)"
  />
  <linearGradient id="gradient12" gradientUnits="userSpaceOnUse" x1="122.91" y1="-32.33" x2="131.68" y2="-5.43">
   <stop offset="0.0075" stop-color="#747474"/>
   <stop offset="1" stop-color="#222222"/>
  </linearGradient>
  <path style="fill:url(#gradient12)"
        d="M24 11L29 8L46 13L41 17L24 11z"
        transform="matrix(0.6666,0,0,0.6666,12.3333,21.5088)"
  />
  <path style="fill:#5c5c5c"
        d="M41 16L46 12V18L41 16z"
        transform="matrix(0.6666,0,0,0.6666,12.3333,21.5088)"
  />
  <path style="fill:none; stroke:#010000; stroke-width:4"
        d="M6 14V44L40 62L50 50V20L16 8L6 14z"
        transform="matrix(0.6666,0,0,0.6666,12.3333,21.5088)"
  />
  <linearGradient id="gradient13" gradientUnits="userSpaceOnUse" x1="20.98" y1="-36.46" x2="58.34" y2="-27.7">
   <stop offset="0" stop-color="#8b8787"/>
   <stop offset="1" stop-color="#161515"/>
  </linearGradient>
  <path style="fill:url(#gradient13)"
        d="M6 14L40 28L50 20L16 8L6 14z"
        transform="matrix(0.6666,0,0,0.6666,12.3333,21.5088)"
  />
  <linearGradient id="gradient14" gradientUnits="userSpaceOnUse" x1="35.26" y1="-1.67" x2="72.74" y2="2.85">
   <stop offset="0" stop-color="#101010"/>
   <stop offset="1" stop-color="#4c4c4c"/>
  </linearGradient>
  <path style="fill:url(#gradient14)"
        d="M40 28V62L50 50V20L40 28z"
        transform="matrix(0.6666,0,0,0.6666,12.3333,21.5088)"
  />
  <linearGradient id="gradient15" gradientUnits="userSpaceOnUse" x1="11.3" y1="82.69" x2="-25.59" y2="46.62">
   <stop offset="0" stop-color="#606060"/>
   <stop offset="1" stop-color="#505050"/>
  </linearGradient>
  <path style="fill:url(#gradient15)"
        d="M6 14V44L40 62V28L6 14z
           M36 29V54L8 41V18L36 29z"
        transform="matrix(0.6666,0,0,0.6666,12.3333,21.5088)"
  />
  <radialGradient id="gradient16" gradientUnits="userSpaceOnUse" cx="0" cy="0" r="64" gradientTransform="matrix(0.5274,0.0626,-0.0587,0.495,29.7732,22.9153)">
   <stop offset="0" stop-color="#0593dc"/>
   <stop offset="1" stop-color="#00337f"/>
  </radialGradient>
  <path style="fill:url(#gradient16)"
        d="M36 29V52L10 39L10.05 18.87L36 29z"
        transform="matrix(0.6666,0,0,0.6666,12.3333,21.5088)"
  />
  <linearGradient id="gradient17" gradientUnits="userSpaceOnUse" x1="63.81" y1="3.47" x2="73.7" y2="31.53">
   <stop offset="1" stop-color="#595959"/>
   <stop offset="0" stop-color="#1e1e1e"/>
  </linearGradient>
  <path style="fill:url(#gradient17)"
        d="M9.97 39.01L8 41V18L10.05 18.87L9.97 39.01z"
        transform="matrix(0.6666,0,0,0.6666,12.3333,21.5088)"
  />
  <linearGradient id="gradient18" gradientUnits="userSpaceOnUse" x1="3.44" y1="-5.52" x2="39.3" y2="-5.52">
   <stop offset="0.3484" stop-color="#adadad"/>
   <stop offset="0" stop-color="#767676"/>
   <stop offset="0.9818" stop-color="#808080"/>
  </linearGradient>
  <path style="fill:url(#gradient18)"
        d="M36 52V55L8 41L10 39.01L36 52z"
        transform="matrix(0.6666,0,0,0.6666,12.3333,21.5088)"
  />
  <path style="fill:none; stroke:#33c805; stroke-width:2; stroke-linecap:round"
        d="M34 56L35 56.5"
        transform="matrix(0.6666,0,0,0.6666,12.3333,21.5088)"
  />
  <radialGradient id="gradient19" gradientUnits="userSpaceOnUse" cx="0" cy="0" r="64" gradientTransform="matrix(0.1406,0,0,0.1093,35,18)">
   <stop offset="0" stop-color="#767676"/>
   <stop offset="0.9891" stop-color="#403e3e"/>
  </radialGradient>
  <path style="fill:url(#gradient19)"
        d="M37 16C34.23 16 32 19.34 32 21C32 22.65 34.23 24 37 24C39.76 24 42 22.65 42 21C42 19.34 39.76 16 37 16z"
        transform="matrix(0.6666,0,0,0.6666,12.3333,21.5088)"
  />
  <path style="fill:none; stroke:#010000; stroke-width:2; stroke-linecap:round; stroke-linejoin:round"
        d="M37 1V19L59 5"
        transform="matrix(0.6666,0,0,0.6666,12.3333,21.5088)"
  />
 </g>
</svg>
