<?xml version="1.0" encoding="UTF-8" standalone="yes"?>
<svg version="1.1" width="64" height="64" color-interpolation="linearRGB"
     xmlns:svg="http://www.w3.org/2000/svg" xmlns="http://www.w3.org/2000/svg">
 <g>
  <path style="fill:none; stroke:#282828; stroke-width:8"
        d="M20 25.66V40L24 43.66V60H40V43.66L44 40V25.66L32 20L20 25.66z"
  />
  <linearGradient id="gradient0" gradientUnits="userSpaceOnUse" x1="42.3" y1="5.4" x2="59.42" y2="28.59">
   <stop offset="0" stop-color="#ffdb97"/>
   <stop offset="1" stop-color="#fcaf29"/>
  </linearGradient>
  <path style="fill:url(#gradient0)"
        d="M20 25.66V40L24 43.66V60H40V43.66L44 40V25.66L32 20L20 25.66z"
  />
  <path style="fill:none; stroke:#282828; stroke-width:8"
        d="M32 4C27.58 4 24 7.58 24 12C24 16.41 27.58 20 32 20C36.41 20 40 16.41 40 12C40 7.58 36.41 4 32 4z"
  />
  <radialGradient id="gradient1" gradientUnits="userSpaceOnUse" cx="0" cy="0" r="64" gradientTransform="matrix(0.2048,0,0,0.2008,29.625,9.375)">
   <stop offset="0" stop-color="#f2f2f2"/>
   <stop offset="1" stop-color="#bca184"/>
   <stop offset="0.6742" stop-color="#7d7a7a"/>
  </radialGradient>
  <path style="fill:url(#gradient1)"
        d="M32 4C27.58 4 24 7.58 24 12C24 16.41 27.58 20 32 20C36.41 20 40 16.41 40 12C40 7.58 36.41 4 32 4z"
  />
  <path style="fill:#000000"
        d="M16 32H24V40H32V48H24V56H16V48H8V40H16V32z"
  />
  <radialGradient id="gradient2" gradientUnits="userSpaceOnUse" cx="0" cy="0" r="64" gradientTransform="matrix(0.3476,0,0,0.3476,12.5,34.5)">
   <stop offset="0" stop-color="#c3ff51"/>
   <stop offset="1" stop-color="#52cb31"/>
  </radialGradient>
  <path style="fill:url(#gradient2)"
        d="M16 32H24V40H32V48H24V56H16V48H8V40H16V32z"
  />
 </g>
</svg>
