<?xml version="1.0" encoding="UTF-8" standalone="yes"?>
<svg version="1.1" width="64" height="64" color-interpolation="linearRGB"
     xmlns:svg="http://www.w3.org/2000/svg" xmlns="http://www.w3.org/2000/svg">
 <g>
  <path style="fill:#282828"
        d="M28 16C14.74 16 4 23.16 4 32C4 40.83 14.74 48 28 48C28 56 40 56 40 56C40 56 36 56 36.08 47.06C45.36 44.85 52 38.94 52 32C52 23.16 41.25 16 28 16z"
  />
  <radialGradient id="gradient0" gradientUnits="userSpaceOnUse" cx="0" cy="0" r="64" gradientTransform="matrix(0.625,0,0,0.4375,16,24)">
   <stop offset="0" stop-color="#ffffff"/>
   <stop offset="1" stop-color="#f3e6aa"/>
  </radialGradient>
  <path style="fill:url(#gradient0)"
        d="M28 16C14.74 16 4 23.16 4 32C4 40.83 14.74 48 28 48C28 56 40 56 40 56C40 56 36 56 36.08 47.06C45.36 44.85 52 38.94 52 32C52 23.16 41.25 16 28 16z"
  />
  <path style="fill:#010100"
        d="M40 4H48V12H56V20H48V28H40V20H32V12H40V4z"
  />
  <radialGradient id="gradient1" gradientUnits="userSpaceOnUse" cx="0" cy="0" r="64" gradientTransform="matrix(0.3125,0,0,0.3125,40,8)">
   <stop offset="0" stop-color="#c3ff51"/>
   <stop offset="1" stop-color="#52cb31"/>
  </radialGradient>
  <path style="fill:url(#gradient1)"
        d="M40 4H48V12H56V20H48V28H40V20H32V12H40V4z"
  />
 </g>
</svg>
