<?xml version="1.0" encoding="UTF-8" standalone="yes"?>
<svg version="1.1" width="64" height="64" color-interpolation="linearRGB"
     xmlns:svg="http://www.w3.org/2000/svg" xmlns="http://www.w3.org/2000/svg">
 <g>
  <path style="fill:#000000; fill-opacity:0.298"
        d="M59.84 27.56L58.54 29.85L58.08 31.24C58.31 32.35 57.96 33 57.96 33.61C57.96 34.38 57.72 35 57.14 36C56.11 37.81 48.9 45.19 46.21 47.89L32.57 61.19C30.51 63.4 28.13 63.76 26.71 63.4C25.9 63.2 25.32 62.76 25.17 62.21C25 61.58 23.66 60.49 24.5 59.67C22.93 61.59 20.44 61.9 18.76 61.59C17.38 61.34 14.73 59.8 14.47 59C14.42 58.86 14.38 58.5 14.38 58.5C11.64 60.87 8.38 60.36 7.19 59.07C6.86 58.72 5.44 57.91 5.44 57.5C5.44 56.98 7.55 54.38 7.55 54.38C6.52 55.41 24.2 31.19 24.2 31.19L25.27 28.22C25.27 26.17 23.09 26 22.04 25.93L12.73 28.11C11.91 28.11 11.29 27.9 10.89 27.47C10.45 27 10.36 26.38 10.36 25.95C10.36 24.38 11.5 22.63 13.05 22.63L45.12 19.68L45.19 19.62C45.25 19.56 46.57 18.4 48.89 18.89C55 20.17 58.69 21.88 59.87 23.94C60.17 24.48 60.28 25 60.28 25.5C60.28 26.25 60.04 26.95 59.84 27.56z"
  />
  <path style="fill:#ffcb9a"
        d="M47.35 15.29C44.63 14.71 43.06 16.18 43.06 16.18L39.81 17.81C39.81 17.81 38.23 16.78 36.89 16.84H11.88C8.3 16.84 6.68 23.65 11.55 23.65H20.32C21.66 23.76 22.92 23.98 22.92 25.28L21.95 27.88L1.81 47.37C-1.76 50.95 3.92 54.35 6.35 51.92L6.41 51.93L5.38 52.89C1.81 56.47 8.31 60.25 13.18 56.02L14.02 55.15C11.76 59.09 19.9 61.38 23.29 57.21L23.99 56.53L24.05 56.55C19.92 60.59 26.82 63.61 31.37 58.74L45 45.42C45 45.42 54.75 35.67 56.05 33.4C57.35 31.12 57.02 30.48 56.38 27.23L58.65 25.28C59.34 23.05 61.97 18.37 47.35 15.29z"
  />
  <path style="fill:#cd9866; fill-opacity:0.698"
        d="M39.69 18.48C40.25 18.58 43.36 20.01 43.36 21.38V22.13L44.1 22.05C47.94 21.65 54 22.95 54 26.34L53.58 23.59L54.5 23.57C52.88 21.06 48.08 21 44.21 21.18C43.52 19.02 40.29 17.21 39.93 17.14L39.69 18.48z"
  />
  <path style="fill:#cd9966; fill-opacity:0.698"
        d="M10.56 22.28L23.64 21.57C26 25.27 27.35 26.28 32.39 24.6C36.55 23.21 39.46 22.92 39.46 22.92C39.46 22.92 36.09 25.95 33.06 27.29C30.03 28.63 26.34 28.98 21.29 29.31C21.57 26.97 24.28 24.19 22.3 23.93C16.14 23.09 11.55 23.65 11.55 23.65L10.56 22.28z"
  />
  <path style="fill:#cd9966; fill-opacity:0.698"
        d="M32.05 42.09C32.05 42.09 34.07 43.44 33.4 44.45C32.73 45.46 28.01 48.14 27.68 49.49C25.66 50.84 23.64 53.52 22.98 54.87C22.3 56.22 18.6 56.89 17.26 56.89C15.91 56.89 15.57 59.24 16.92 59.24C18.26 59.24 21.59 58.88 23.29 57.21L35.08 45.46C35.08 45.46 36.76 43.77 37.77 44.45C36.09 43.77 32.05 42.09 32.05 42.09z"
  />
  <path style="fill:#cd9966; fill-opacity:0.698"
        d="M21.97 40.07C21.97 40.07 23.99 41.42 23.31 42.43C22.64 43.44 17.93 46.12 17.59 47.48C15.57 48.82 13.55 51.5 12.89 52.85C12.21 54.2 8.51 54.87 7.16 54.87C5.82 54.87 5.59 56.69 6.83 57.22C8.84 58.1 11.5 56.86 13.2 55.19L25 43.44C25 43.44 26.67 41.75 27.68 42.43C26 41.75 21.97 40.07 21.97 40.07z"
  />
  <path style="fill:#cd9966; fill-opacity:0.698"
        d="M17.59 35.02C17.59 35.02 19.61 36.37 18.94 37.38C18.27 38.39 13.55 41.08 13.22 42.43C11.2 43.77 9.18 46.47 8.51 47.81C7.84 49.15 5.25 51.01 2.79 49.83C1.58 49.24 1.11 52.18 2.46 52.18C3.8 52.18 7.12 51.82 8.83 50.15L20.62 38.39C20.62 38.39 22.3 36.71 23.31 37.38C21.63 36.71 17.59 35.02 17.59 35.02z"
  />
  <path style="fill:#cd9966; fill-opacity:0.698"
        d="M24.32 30.32C26.67 30.65 31.72 32.67 33.06 33.68C34.41 34.69 39.79 34.69 40.47 36.71C38.45 35.37 36.13 36.26 33.74 35.37C31.04 34.36 28.69 33.68 27.35 33C26 32.34 24.32 30.32 24.32 30.32z"
  />
  <path style="fill:#cd9966; fill-opacity:0.698"
        d="M26.34 28.98C29.37 28.98 38.45 28.3 40.47 26.61C37.44 29.64 30.03 31.33 26.34 28.98z"
  />
  <path style="fill:#cd9866; fill-opacity:0.698"
        d="M33.06 37.04C36.09 37.72 38.45 37.38 39.46 38.05C40.47 38.73 40.8 40.41 40.8 40.41C38.78 39.4 34.07 37.38 33.06 37.04z"
  />
  <path style="fill:#ffffff; fill-opacity:0.949"
        d="M2.48 49.34C3.57 48.79 5.75 46.93 6.3 45.84C6.85 44.74 7.4 43.92 8.77 43.09C10.13 42.28 13.7 39.53 14.24 38.44C14.79 37.35 16.71 35.43 16.71 35.43L18.33 34.62L20.21 30.36L2.74 46.94C2.74 46.94 1.94 48.51 2.48 49.34z"
  />
  <path style="fill:#ffffff; fill-opacity:0.949"
        d="M6.77 54.28C7.86 53.73 10.03 51.87 10.58 50.77C11.13 49.68 11.68 48.86 13.05 48.03C14.43 47.21 17.99 44.48 18.53 43.38C19.08 42.28 21 40.36 21 40.36L23.48 39.9L21.54 37.9L7.02 51.87C7.02 51.87 6.22 53.46 6.77 54.28z"
  />
  <path style="fill:#ffffff; fill-opacity:0.949"
        d="M15.31 56.66C16.41 56.11 18.58 54.25 19.13 53.16C19.67 52.06 20.22 51.24 21.59 50.42C22.62 49.8 24.88 48.11 26.18 46.84C26.61 46.42 25.5 46.84 25.5 46.84L21.52 49.84L20.13 49.8L15.56 54.26C15.56 54.25 14.09 55.55 15.31 56.66z"
  />
  <path style="fill:#ffffff; fill-opacity:0.949"
        d="M24.6 58.93C25.7 58.38 27.88 56.51 28.43 55.42C28.98 54.33 29.52 53.5 30.89 52.68C31.8 52.13 33.67 50.75 34.99 49.55C35.65 48.95 32.32 49.25 32.32 49.25L24.86 56.51C24.87 56.51 22.22 58.43 24.6 58.93z"
  />
  <path style="fill:#000000"
        d="M59.96 22.56C59.96 21.86 59.8 21.11 59.36 20.33C57.97 17.89 54.08 16.02 47.49 14.63C44.71 14.04 43.02 15.34 42.7 15.61C42.61 15.66 40.36 16.79 39.84 17.04C39.25 16.72 38.01 16.11 36.86 16.16H11.88C9.5 16.16 7.83 18.61 7.83 20.82C7.83 21.79 8.14 22.63 8.73 23.26C9.18 23.75 10.04 24.33 11.55 24.33H20.32C21.85 24.45 22.19 24.72 22.23 25.2C22.13 25.47 21.46 27.26 21.37 27.5C21.15 27.71 1.34 46.89 1.34 46.89C0.36 47.86 0 48.84 0 49.71C0 50.66 0.43 51.5 1.01 52.07C1.81 52.87 3 53.36 4.16 53.39C3.44 54.64 3.54 56 4.52 57.05C6.24 58.9 9.94 59.21 13 56.99C13.03 57.11 13.06 57.24 13.09 57.35C13.53 58.64 14.93 59.62 16.84 59.98C18.34 60.25 20.39 60.1 22.12 59.08C22.12 59.29 22.16 59.48 22.2 59.62C22.48 60.66 23.4 61.44 24.7 61.77C26.49 62.21 29.43 61.8 31.86 59.2C31.84 59.22 45.48 45.9 45.48 45.9C45.88 45.5 55.31 36.06 56.63 33.73C57.36 32.48 57.61 31.62 57.61 30.67C57.61 29.92 57.45 29.09 57.21 27.97L59.23 25.67C59.23 25.67 59.96 23.52 59.96 22.56z
           M58.16 24.62L55.64 26.98L55.9 28.24C56.12 29.35 56.28 30.06 56.28 30.68C56.28 31.45 56.04 32.05 55.47 33.06C54.44 34.87 47.22 42.25 44.53 44.95L30.9 58.26C28.84 60.46 26.46 60.82 25.03 60.47C24.21 60.26 23.64 59.82 23.5 59.27C23.32 58.64 23.69 57.85 24.52 57.03L24.48 56.99C27.11 54.43 36.77 45.01 36.77 45.01L34.28 44.55L34.8 45.06L22.82 56.73C21.25 58.65 18.76 58.96 17.08 58.65C15.7 58.4 14.64 57.72 14.38 56.92C14.33 56.78 14.3 56.63 14.3 56.49C14.3 56.16 14.42 55.85 14.57 55.55C15.29 54.79 16.16 53.88 16.16 53.88L16.11 53.82C18.47 51.52 24.58 45.59 26.14 44.07C26.38 43.85 27.62 43.29 27.62 43.29L24.99 42.16L25.19 43.12L14.2 53.81C13.91 54.12 13.69 54.42 13.51 54.71L12.7 55.56C9.97 57.94 6.7 57.42 5.51 56.14C5.18 55.79 5.02 55.4 5.02 55C5.02 54.48 5.3 53.92 5.86 53.37L21.43 38.76L20.08 36.89L19.71 38.77L5.92 51.49L5.88 51.45C4.85 52.47 2.97 52.12 1.97 51.13C1.02 50.18 1.14 48.99 2.28 47.85L22.52 28.26L23.59 25.28C23.59 23.23 21.42 23.06 20.37 22.99H11.55C10.73 22.99 10.11 22.77 9.71 22.34C9.27 21.87 9.18 21.25 9.18 20.82C9.18 19.25 10.33 17.5 11.88 17.5H36.89C37.84 17.47 39.05 18.12 39.45 18.38L39.77 18.58L43.45 16.74L43.51 16.68C43.57 16.63 44.9 15.46 47.21 15.95C53.32 17.23 57.01 18.94 58.19 21C58.5 21.53 58.6 22.06 58.6 22.56C58.6 23.32 58.37 24.01 58.16 24.62z"
  />
  <path style="fill:#ffffff; fill-opacity:0.698"
        d="M40.35 25.6C41.52 24.56 41.98 22.8 43.74 22.5C45.51 22.2 50.39 21.76 52.46 23.83C50.83 23.83 47.73 25.9 47.58 27.22C47.44 28.55 46.69 28.26 46.1 27.82C45.51 27.38 45.07 26.04 45.07 25.31C45.07 24.56 46.1 23.53 47.14 23.39C44.48 23.68 41.97 23.39 40.35 25.6z"
  />
  <path style="fill:#cd9866; fill-opacity:0.698"
        d="M56.38 27.23C58.65 25.28 61.32 20.56 55.94 18.54C56.95 20.56 54.93 23.59 53.58 23.59C53.58 24.94 54.93 28.3 51.23 32.67C50.45 33.6 40.57 43.15 40.57 43.15L36.96 49.49C34.81 51.78 32.4 54.2 32.4 54.2C32.4 54.2 28.02 59.24 26.67 59.24C25.33 59.24 23.65 60.93 25.33 60.93C27.01 60.93 30.03 59.92 35.76 54.2C41.48 48.48 56.61 34.69 56.95 30.65C57.28 26.61 56.38 27.23 56.38 27.23z"
  />
  <path style="fill:#010101; fill-opacity:0.5333"
        d="M36 59H41C41 59 45.5 55.62 48.12 52.08C51.03 48.17 52.08 44.05 52.08 44.05C52.08 44.05 57.06 40.04 60.04 36.02C63.02 32.01 63 28 63 28L59 26L57 31L36 59z"
        transform="matrix(0.8412,0.0037,-0.0037,0.8412,7.1203,5.5128)"
  />
  <path style="fill:none; stroke:#010000; stroke-width:4"
        d="M3 28C3 28 2 30.47 2 33.25C2 36.86 2.62 40.62 2.62 40.62C2.62 40.62 4.97 42.57 8.23 44.3C12.2 46.4 16.61 47.73 16.61 47.73L16.62 33.87L29.5 20.75C29.5 20.75 25.45 19.1 21.66 17.55C18.29 16.17 15.11 15.88 15.11 15.88C15.11 15.88 11.04 17.95 7.87 21.12C4.49 24.5 3 28 3 28z
           M30 19.75L38.93 10.06C38.93 10.06 35.07 8.66 31.42 7.33C28.13 6.13 25 6 25 6C25 6 23.27 6.72 21.37 8.62C19.05 10.94 16.49 13.5 16.49 13.5L30 19.75z
           M31.5 21.37L47.87 27L47.92 41.96C47.92 41.96 51.84 38.11 54.36 34.78C56.29 32.24 57 29.62 57 29.62C57 29.62 58 25.95 58 22.37C58 19.53 56.25 17.5 56.25 17.5C56.25 17.5 52.21 14.89 47.33 13.12C43.79 11.83 40.72 11.21 40.72 11.21C40.72 11.21 38.67 12.65 36.4 14.79C33.61 17.43 31.5 21.37 31.5 21.37z
           M46.62 29C46.62 29 42.42 26.85 37.97 24.94C34 23.24 30.5 22.25 30.5 22.25C30.5 22.25 27.59 24.49 24.78 27.54C21.62 30.97 18.62 34.62 18.62 34.62C18.62 34.62 18.24 37.59 18.24 40.88C18.24 44.98 18.87 49.47 18.87 49.47C18.87 49.47 22.15 51.66 26.3 53.86C30.99 56.35 36 57.25 36 57.25C36 57.25 39.12 54.87 42.12 50.92C44.88 47.29 46.77 43.67 46.77 43.67C46.77 43.67 47.23 40.08 47.2 36.36C47.16 32.62 46.62 29 46.62 29z"
        transform="matrix(0.8412,0.0037,-0.0037,0.8412,7.1203,5.5128)"
  />
  <linearGradient id="gradient0" gradientUnits="userSpaceOnUse" x1="13.84" y1="-38.14" x2="58.34" y2="-27.7">
   <stop offset="0" stop-color="#fff8ea"/>
   <stop offset="1" stop-color="#f5deac"/>
  </linearGradient>
  <path style="fill:url(#gradient0)"
        d="M46.62 29C46.62 29 42.42 26.85 37.97 24.94C34 23.24 30.5 22.25 30.5 22.25C30.5 22.25 27.59 24.49 24.78 27.54C21.62 30.97 18.62 34.62 18.62 34.62L36 42C36 42 39.67 38.72 42.34 35.46C44.98 32.22 46.62 29 46.62 29z
           M3 28L16.62 33.87L29.5 20.75C29.5 20.75 25.45 19.1 21.66 17.55C18.29 16.17 15.11 15.88 15.11 15.88C15.11 15.88 11.04 17.95 7.87 21.12C4.49 24.5 3 28 3 28z
           M30 19.75L38.93 10.06C38.93 10.06 35.07 8.66 31.42 7.33C28.13 6.13 25 6 25 6C25 6 23.27 6.72 21.37 8.62C19.05 10.94 16.49 13.5 16.49 13.5L30 19.75z
           M31.5 21.37L47.87 27C47.87 27 51.34 24.19 53.6 21.63C55.5 19.48 56.25 17.5 56.25 17.5C56.25 17.5 52.21 14.89 47.33 13.12C43.79 11.83 40.72 11.21 40.72 11.21C40.72 11.21 38.67 12.65 36.4 14.79C33.61 17.43 31.5 21.37 31.5 21.37z"
        transform="matrix(0.8412,0.0037,-0.0037,0.8412,7.1203,5.5128)"
  />
  <linearGradient id="gradient1" gradientUnits="userSpaceOnUse" x1="44.72" y1="-7.9" x2="86.1" y2="10.51">
   <stop offset="0" stop-color="#983f04"/>
   <stop offset="1" stop-color="#e6c276"/>
  </linearGradient>
  <path style="fill:url(#gradient1)"
        d="M46.62 29C46.62 29 44.98 32.22 42.34 35.46C39.67 38.72 36 42 36 42V57.25C36 57.25 39.12 54.87 42.12 50.92C44.88 47.29 46.77 43.67 46.77 43.67C46.77 43.67 47.23 40.08 47.2 36.36C47.16 32.62 46.62 29 46.62 29z
           M47.87 27L47.92 41.96C47.92 41.96 51.84 38.11 54.36 34.78C56.29 32.24 57 29.62 57 29.62C57 29.62 58 25.95 58 22.37C58 19.53 56.25 17.5 56.25 17.5C56.25 17.5 55.5 19.48 53.6 21.63C51.34 24.19 47.87 27 47.87 27z"
        transform="matrix(0.8412,0.0037,-0.0037,0.8412,7.1203,5.5128)"
  />
  <linearGradient id="gradient2" gradientUnits="userSpaceOnUse" x1="17.72" y1="90.92" x2="-10.6" y2="71.85">
   <stop offset="0" stop-color="#eebf5a"/>
   <stop offset="1" stop-color="#ffebc0"/>
  </linearGradient>
  <path style="fill:url(#gradient2)"
        d="M36 42L18.62 34.62C18.62 34.62 18.24 37.59 18.24 40.88C18.24 44.98 18.87 49.47 18.87 49.47C18.87 49.47 22.15 51.66 26.3 53.86C30.99 56.35 36 57.25 36 57.25V42z"
        transform="matrix(0.8412,0.0037,-0.0037,0.8412,7.1203,5.5128)"
  />
  <path style="fill:none; stroke:#010000; stroke-width:2"
        d="M37 31C37 31 31 17 27 15C23 13 11 20 18 21C25 22 42 14 46 17C50 20 51 21 47 21C45.42 21 31 20 31 20C31 20 28.37 20.67 24 23.25C19.88 25.67 15 27.25 15 27.25"
        transform="matrix(0.8412,0.0037,-0.0037,0.8412,7.1203,5.5128)"
  />
  <linearGradient id="gradient3" gradientUnits="userSpaceOnUse" x1="2.85" y1="-64" x2="21.14" y2="-64">
   <stop offset="0" stop-color="#ffefce"/>
   <stop offset="1" stop-color="#ffd16e"/>
  </linearGradient>
  <path style="fill:url(#gradient3)"
        d="M3 28C3 28 2 30.47 2 33.25C2 36.86 2.62 40.62 2.62 40.62C2.62 40.62 4.97 42.57 8.23 44.3C12.2 46.4 16.61 47.73 16.61 47.73L16.62 33.87L3 28z"
        transform="matrix(0.8412,0.0037,-0.0037,0.8412,7.1203,5.5128)"
  />
 </g>
</svg>
