<?xml version="1.0" encoding="UTF-8" standalone="yes"?>
<svg version="1.1" width="64" height="64" color-interpolation="linearRGB"
     xmlns:svg="http://www.w3.org/2000/svg" xmlns="http://www.w3.org/2000/svg">
 <g>
  <path style="fill:#010101; fill-opacity:0.5019"
        d="M36 61H41L64 30L58 27L59 31L36 61z"
  />
  <path style="fill:none; stroke:#010000; stroke-width:4"
        d="M2 28V41L36 59L58 30V17L25 5L2 28z"
  />
  <linearGradient id="gradient0" gradientUnits="userSpaceOnUse" x1="13.84" y1="-38.14" x2="58.34" y2="-27.7">
   <stop offset="0" stop-color="#ffffff"/>
   <stop offset="1" stop-color="#d3d3d3"/>
  </linearGradient>
  <path style="fill:url(#gradient0)"
        d="M2 28L36 43L58 17L25 5L2 28z"
  />
  <linearGradient id="gradient1" gradientUnits="userSpaceOnUse" x1="44.72" y1="-7.9" x2="86.1" y2="10.51">
   <stop offset="0" stop-color="#474747"/>
   <stop offset="1" stop-color="#a5a0a0"/>
  </linearGradient>
  <path style="fill:url(#gradient1)"
        d="M36 43V59L58 30V17L36 43z"
  />
  <linearGradient id="gradient2" gradientUnits="userSpaceOnUse" x1="22.97" y1="92.59" x2="-14.6" y2="67.29">
   <stop offset="0" stop-color="#7d7d7d"/>
   <stop offset="1" stop-color="#d4d4d4"/>
  </linearGradient>
  <path style="fill:url(#gradient2)"
        d="M2 28V41L36 59V43L2 28z"
  />
  <linearGradient id="gradient3" gradientUnits="userSpaceOnUse" x1="32.05" y1="9.68" x2="43.48" y2="24.05">
   <stop offset="0" stop-color="#596756"/>
   <stop offset="1" stop-color="#ebb2b2"/>
  </linearGradient>
  <path style="fill:none; stroke:url(#gradient3); stroke-width:5; stroke-linecap:round"
        d="M7 35L12.75 37.5"
  />
  <path style="fill:none; stroke:#ff0000; stroke-width:2"
        d="M6 35L9 36"
        transform="matrix(1,0,0,1,4,1.5)"
  />
  <path style="fill:none; stroke:#a7ff00; stroke-width:2"
        d="M6 35L9 36"
        transform="matrix(1,0,0,1,0,-0.25)"
  />
  <path style="fill:none; stroke:#010000; stroke-width:4"
        d="M15 36C15 36 11 40 11 47C9 43 4 42 4 42C4 42 3 48 9 51C9 51 9 52 3 52C3 52 6 58 14 56V60H16V56C24 58 27 52 27 52C21 52 21 51 21 51C27 48 26 42 26 42C26 42 21 43 19 47C19 40 15 36 15 36z"
  />
  <radialGradient id="gradient4" gradientUnits="userSpaceOnUse" cx="0" cy="0" r="64" gradientTransform="matrix(0.0874,-0.379,0.4747,0.1095,8.1495,41.5888)">
   <stop offset="0" stop-color="#ffb11b"/>
   <stop offset="1" stop-color="#fff9c7"/>
  </radialGradient>
  <path style="fill:url(#gradient4)"
        d="M15 36C15 36 11 40 11 47C9 43 4 42 4 42C4 42 3 48 9 51C9 51 9 52 3 52C3 52 6 58 14 56V60H16V56C24 58 27 52 27 52C21 52 21 51 21 51C27 48 26 42 26 42C26 42 21 43 19 47C19 40 15 36 15 36z"
  />
 </g>
</svg>
