<?xml version="1.0" encoding="UTF-8" standalone="yes"?>
<svg version="1.1" width="64" height="64" color-interpolation="linearRGB"
     xmlns:svg="http://www.w3.org/2000/svg" xmlns="http://www.w3.org/2000/svg">
 <g>
  <path style="fill:#010101; fill-opacity:0.5725"
        d="M27 57L29 59L32.13 55.83L37 59L45.39 47.54L64 38L59 35L61 37L36 49L27 57z
           M58 34L62 31L58 29L55 32L58 34z"
  />
  <path style="fill:none; stroke:#010101; stroke-width:4"
        d="M6.25 30C6.25 30 11.87 36 16.87 42.5C21.87 49 26.25 55.75 26.25 55.75L59.12 36.87L32 15L6.25 30z"
  />
  <radialGradient id="gradient0" gradientUnits="userSpaceOnUse" cx="0" cy="0" r="64" gradientTransform="matrix(0.5714,0,0,0.3333,26,35)">
   <stop offset="1" stop-color="#cee5ff"/>
   <stop offset="0.4886" stop-color="#7588ad"/>
  </radialGradient>
  <path style="fill:url(#gradient0)"
        d="M6.25 30C6.25 30 11.87 36 16.87 42.5C21.87 49 26.25 55.75 26.25 55.75L59.12 36.87L32 15L6.25 30z"
  />
  <path style="fill:none; stroke:#010101; stroke-width:4"
        d="M2.62 30.87C2.62 30.87 10.95 36.26 19 41.87C27.44 47.75 35.75 52.75 35.75 52.75L58.12 26.37C58.12 26.37 45.44 20.7 35.37 15.37C30.18 12.62 26 9.37 26 9.37L2.62 30.87z"
  />
  <linearGradient id="gradient1" gradientUnits="userSpaceOnUse" x1="107.04" y1="-17.09" x2="118.33" y2="27.99">
   <stop offset="0.0076" stop-color="#bfdef4"/>
   <stop offset="0.7424" stop-color="#ffffff"/>
   <stop offset="1" stop-color="#e7eefb"/>
  </linearGradient>
  <path style="fill:url(#gradient1)"
        d="M2.62 30.87C2.62 30.87 10.95 36.26 19 41.87C27.44 47.75 35.75 52.75 35.75 52.75L58.12 26.37C58.12 26.37 45.44 20.7 35.37 15.37C30.18 12.62 26 9.37 26 9.37L2.62 30.87z"
  />
  <linearGradient id="gradient2" gradientUnits="userSpaceOnUse" x1="-47.14" y1="-10.78" x2="-28.46" y2="-32.85">
   <stop offset="0" stop-color="#010101"/>
   <stop offset="1" stop-color="#5296cb"/>
  </linearGradient>
  <path style="fill:none; stroke:url(#gradient2); stroke-width:1"
        d="M14 37L23 28
           M22 43L38 27
           M26 46L42 30"
        transform="matrix(1,0,0,1,0,-5)"
  />
  <linearGradient id="gradient3" gradientUnits="userSpaceOnUse" x1="-47.14" y1="-10.78" x2="-28.46" y2="-32.85">
   <stop offset="0" stop-color="#010101"/>
   <stop offset="1" stop-color="#5296cb"/>
  </linearGradient>
  <path style="fill:none; stroke:url(#gradient3); stroke-width:1"
        d="M22 36L33 25"
        transform="matrix(1,0,0,1,0,-5)"
  />
  <path style="fill:none; stroke:#010101; stroke-width:1"
        d="M13 34L14 36L16 37"
        transform="matrix(1,0,0,1,11,-15)"
  />
  <path style="fill:none; stroke:#010101; stroke-width:1"
        d="M23 24L25 25L26 27"
        transform="matrix(1,0,0,1,3,-7)"
  />
  <path style="fill:none; stroke:#010101; stroke-width:1"
        d="M13 34L14 36L16 37"
        transform="matrix(1,0,0,1,5,-2)"
  />
  <path style="fill:none; stroke:#010101; stroke-width:1"
        d="M23 24L25 25L26 27"
        transform="matrix(1,0,0,1,8,17)"
  />
  <path style="fill:#010101; fill-opacity:0.4313"
        d="M42 36H48L57 26L51 23L42 36z"
  />
  <path style="fill:none; stroke:#010101; stroke-width:4"
        d="M30 15V28L42 34L50 26V13L39 10L30 15z"
  />
  <linearGradient id="gradient4" gradientUnits="userSpaceOnUse" x1="-6.5" y1="-12.71" x2="8.82" y2="-27.15">
   <stop offset="0" stop-color="#ffec4b"/>
   <stop offset="1" stop-color="#f0a506"/>
  </linearGradient>
  <path style="fill:url(#gradient4)"
        d="M30 15V28L42 34V19L30 15z"
  />
  <linearGradient id="gradient5" gradientUnits="userSpaceOnUse" x1="28.65" y1="-19.22" x2="52.17" y2="-18.61">
   <stop offset="0" stop-color="#ffffff"/>
   <stop offset="1" stop-color="#fff289"/>
  </linearGradient>
  <path style="fill:url(#gradient5)"
        d="M30 15L42 19L50 13L39 10L30 15z"
  />
  <linearGradient id="gradient6" gradientUnits="userSpaceOnUse" x1="64.49" y1="-11.88" x2="74.45" y2="-4.24">
   <stop offset="0" stop-color="#f99b05"/>
   <stop offset="1" stop-color="#eab423"/>
  </linearGradient>
  <path style="fill:url(#gradient6)"
        d="M42 19V34L50 26V13L42 19z"
  />
 </g>
</svg>
