<?xml version="1.0" encoding="UTF-8" standalone="yes"?>
<svg version="1.1" width="64" height="64" color-interpolation="linearRGB"
     xmlns:svg="http://www.w3.org/2000/svg" xmlns="http://www.w3.org/2000/svg">
 <g>
  <path style="fill:none; stroke:#000000; stroke-width:4"
        d="M8 41V42L36 57L54 37V36L32 28L8 41z"
  />
  <path style="fill:#06e506"
        d="M8 41V42L36 57V55L8 41z"
  />
  <path style="fill:#038403"
        d="M36 57L54 37V36L36 55V57z"
  />
  <linearGradient id="gradient0" gradientUnits="userSpaceOnUse" x1="6" y1="20" x2="58" y2="20">
   <stop offset="0" stop-color="#06e506"/>
   <stop offset="1" stop-color="#04b604"/>
  </linearGradient>
  <path style="fill:url(#gradient0)"
        d="M8 41L36 55L39.03 51.79L34 52L32 28L8 41z"
  />
  <linearGradient id="gradient1" gradientUnits="userSpaceOnUse" x1="6" y1="20" x2="58" y2="20">
   <stop offset="0" stop-color="#04a104"/>
   <stop offset="1" stop-color="#04a004"/>
  </linearGradient>
  <path style="fill:url(#gradient1)"
        d="M34 48V52L39.03 51.79L54 36L32 28L34 48z"
  />
  <path style="fill:none; stroke:#000000; stroke-width:4"
        d="M14 40L34 50L48 36V22L30 16L14 26V40z"
  />
  <radialGradient id="gradient2" gradientUnits="userSpaceOnUse" cx="0" cy="0" r="64" gradientTransform="matrix(0.3437,0,0,0.4375,24,38)">
   <stop offset="0" stop-color="#ffffff"/>
   <stop offset="1" stop-color="#b6b6b6"/>
  </radialGradient>
  <path style="fill:url(#gradient2)"
        d="M14 26V40L18 42V32L22 34V44L34 50V32L22 18L14 26z"
  />
  <linearGradient id="gradient3" gradientUnits="userSpaceOnUse" x1="64.65" y1="9.62" x2="70.61" y2="15.82">
   <stop offset="0" stop-color="#a2a2a2"/>
   <stop offset="1" stop-color="#bbbbbb"/>
  </linearGradient>
  <path style="fill:url(#gradient3)"
        d="M48 22V36L34 50V32L48 22z"
  />
  <path style="fill:none; stroke:#000000; stroke-width:4"
        d="M10 28L19 19L34 37L36 36L52 23L38 7L19 15L8 26L10 28z"
  />
  <linearGradient id="gradient4" gradientUnits="userSpaceOnUse" x1="71.33" y1="-27.63" x2="88.86" y2="-6.24">
   <stop offset="0" stop-color="#ea0606"/>
   <stop offset="1" stop-color="#d00505"/>
  </linearGradient>
  <path style="fill:url(#gradient4)"
        d="M36 36L52 23L38 7L19 15L36 36z"
  />
  <linearGradient id="gradient5" gradientUnits="userSpaceOnUse" x1="51.33" y1="-16.32" x2="70.88" y2="9">
   <stop offset="0" stop-color="#ff4444"/>
   <stop offset="1" stop-color="#f10606"/>
  </linearGradient>
  <path style="fill:url(#gradient5)"
        d="M8 26L10 28L19 19L34 37L36 36L19 15L8 26z"
  />
  <path style="fill:#000000"
        d="M18 32.75V43L22 45V34L18 32.75z
           M26 37V42L30 44V38.62L26 37z
           M38 37V42L40 40V35L38 37z
           M44 31V36L46 34V29L44 31z"
  />
 </g>
</svg>
