<?xml version="1.0" encoding="UTF-8" standalone="yes"?>
<svg version="1.1" width="64" height="64" color-interpolation="linearRGB"
     xmlns:svg="http://www.w3.org/2000/svg" xmlns="http://www.w3.org/2000/svg">
 <g>
  <path style="fill:#010101; fill-opacity:0.4549"
        d="M30 60H38L51 46L43 43L30 60z"
  />
  <path style="fill:none; stroke:#000000; stroke-width:4"
        d="M18 39V52L30 58L38 50V37L27 34L18 39z"
  />
  <linearGradient id="gradient0" gradientUnits="userSpaceOnUse" x1="-21.43" y1="11.43" x2="6.49" y2="-10.37">
   <stop offset="0" stop-color="#ffec4b"/>
   <stop offset="1" stop-color="#f0a506"/>
  </linearGradient>
  <path style="fill:url(#gradient0)"
        d="M18 39V52L30 58V43L18 39z"
  />
  <linearGradient id="gradient1" gradientUnits="userSpaceOnUse" x1="16.65" y1="4.77" x2="40.17" y2="5.38">
   <stop offset="0" stop-color="#ffffff"/>
   <stop offset="1" stop-color="#fff289"/>
  </linearGradient>
  <path style="fill:url(#gradient1)"
        d="M18 39L30 43L38 37L27 34L18 39z"
  />
  <linearGradient id="gradient2" gradientUnits="userSpaceOnUse" x1="52.49" y1="12.11" x2="62.45" y2="19.75">
   <stop offset="0" stop-color="#f99b05"/>
   <stop offset="1" stop-color="#fcb23d"/>
  </linearGradient>
  <path style="fill:url(#gradient2)"
        d="M30 43V58L38 50V37L30 43z"
  />
 </g>
</svg>
