<?xml version="1.0" encoding="UTF-8" standalone="yes"?>
<svg version="1.1" width="64" height="64" color-interpolation="linearRGB"
     xmlns:svg="http://www.w3.org/2000/svg" xmlns="http://www.w3.org/2000/svg">
 <g>
  <path style="fill:#000000; fill-opacity:0.4196"
        d="M45 59H56L57 57L45 51V59z"
  />
  <path style="fill:none; stroke:#000000; stroke-width:4"
        d="M6 40L44 59L46 57V18L8 6L6 7V40z"
  />
  <linearGradient id="gradient0" gradientUnits="userSpaceOnUse" x1="100.6" y1="-44.06" x2="130.37" y2="12.32">
   <stop offset="0" stop-color="#e3ad00"/>
   <stop offset="1" stop-color="#bc8f05"/>
  </linearGradient>
  <path style="fill:url(#gradient0)"
        d="M6 40L44 59V20L6 7V40z"
  />
  <radialGradient id="gradient1" gradientUnits="userSpaceOnUse" cx="0" cy="0" r="64" gradientTransform="matrix(0.4251,0.1893,-0.117,0.2627,17.7369,30.152)">
   <stop offset="0.2392" stop-color="#769564"/>
   <stop offset="1" stop-color="#536e44"/>
  </radialGradient>
  <path style="fill:url(#gradient1)"
        d="M40 52L10 37V12L40 23V52z"
  />
  <linearGradient id="gradient2" gradientUnits="userSpaceOnUse" x1="39.12" y1="-59.43" x2="28.73" y2="-57.88">
   <stop offset="0" stop-color="#b58a00"/>
   <stop offset="1" stop-color="#856503"/>
  </linearGradient>
  <path style="fill:url(#gradient2)"
        d="M12 36V13L10 12V37L12 36z"
  />
  <linearGradient id="gradient3" gradientUnits="userSpaceOnUse" x1="39.12" y1="-59.43" x2="28.73" y2="-57.88">
   <stop offset="0" stop-color="#b58a00"/>
   <stop offset="1" stop-color="#856503"/>
  </linearGradient>
  <path style="fill:url(#gradient3)"
        d="M44 59L46 57V18L44 20V59z"
  />
  <linearGradient id="gradient4" gradientUnits="userSpaceOnUse" x1="103.38" y1="-22.02" x2="109.24" y2="6">
   <stop offset="0" stop-color="#ffefc0"/>
   <stop offset="1" stop-color="#ffde7c"/>
  </linearGradient>
  <path style="fill:url(#gradient4)"
        d="M8 6L6 7L44 20L46 18L8 6z"
  />
  <linearGradient id="gradient5" gradientUnits="userSpaceOnUse" x1="103.38" y1="-22.02" x2="109.24" y2="6">
   <stop offset="0" stop-color="#ffefc0"/>
   <stop offset="1" stop-color="#ffde7c"/>
  </linearGradient>
  <path style="fill:url(#gradient5)"
        d="M10 37L40 52V49L12 36L10 37z"
  />
  <path style="fill:none; stroke:#ffffff; stroke-width:2"
        d="M14 20L32 32
           M29 23V34
           M25 22V32
           M21 20V30
           M17 19V28"
  />
 </g>
</svg>
