<?xml version="1.0" encoding="UTF-8" standalone="yes"?>
<svg version="1.1" width="64" height="64" color-interpolation="linearRGB"
     xmlns:svg="http://www.w3.org/2000/svg" xmlns="http://www.w3.org/2000/svg">
 <g>
  <path style="fill:#010101; fill-opacity:0.2901"
        d="M11 30L26 15V22H46V38H26V45L11 30z"
        transform="matrix(1,0,0,1,3,1)"
  />
  <path style="fill:#010101; fill-opacity:0.2901"
        d="M11 30L26 15V22H46V38H26V45L11 30z"
        transform="matrix(1,0,0,1,3,1)"
  />
  <path style="fill:#010101; fill-opacity:0.2901"
        d="M11 30L26 15V22H46V38H26V45L11 30z"
        transform="matrix(1,0,0,1,3,1)"
  />
  <path style="fill:#010101; fill-opacity:0.2901"
        d="M11 30L26 15V22H46V38H26V45L11 30z"
        transform="matrix(1,0,0,1,3,1)"
  />
  <path style="fill:none; stroke:#000000; stroke-width:4"
        d="M11 30L26 15V22H46V38H26V45L11 30z"
  />
  <linearGradient id="gradient0" gradientUnits="userSpaceOnUse" x1="78.84" y1="0.99" x2="85.6" y2="20.79">
   <stop offset="0" stop-color="#acff0d"/>
   <stop offset="1" stop-color="#04a804"/>
  </linearGradient>
  <path style="fill:url(#gradient0)"
        d="M11 30L26 15V22H46V38H26V45L11 30z"
  />
  <linearGradient id="gradient1" gradientUnits="userSpaceOnUse" x1="57.51" y1="-20.74" x2="85.12" y2="7.01">
   <stop offset="0" stop-color="#68fb06"/>
   <stop offset="1" stop-color="#05d705"/>
  </linearGradient>
  <path style="fill:url(#gradient1)"
        d="M11 30L26 15V22H46V38H26V45L11 30z"
  />
 </g>
</svg>
