<?xml version="1.0" encoding="UTF-8" standalone="yes"?>
<svg version="1.1" width="64" height="64" color-interpolation="linearRGB"
     xmlns:svg="http://www.w3.org/2000/svg" xmlns="http://www.w3.org/2000/svg">
 <g>
  <path style="fill:#000000; fill-opacity:0.4666"
        d="M57 25L63 30C65 32 64 36 61 39L46 56C43 60 37 62 32 62H20L57 25z"
  />
  <path style="fill:none; stroke:#000000; stroke-width:4"
        d="M44.71 41L56.25 28.69C58.55 26.5 60 23.41 60.01 20C60.01 13.37 54.61 8 48.01 8C45.19 8 42.63 8.95 40.59 10.55L26.87 19.95L44.71 41z
           M32.13 54.39L43.69 42.07C46.33 39.51 48 35.95 48.01 32C48.01 24.25 41.73 18 34.01 18C30.79 18 27.83 19.09 25.47 20.89L11.83 30.25L32.13 54.39z
           M36 44C36.01 35.15 28.83 28 20.01 28C11.15 28 4 35.15 4.01 44C4.01 52.83 11.15 60 20.01 60C28.83 60 36 52.83 36.01 44H36z"
  />
  <radialGradient id="gradient0" gradientUnits="userSpaceOnUse" cx="0" cy="0" r="64" gradientTransform="matrix(0.155,0.1716,-0.2583,0.2333,41.2573,17.2946)">
   <stop offset="0.2666" stop-color="#ff066a"/>
   <stop offset="1" stop-color="#d8055a"/>
  </radialGradient>
  <path style="fill:url(#gradient0)"
        d="M44.71 41L56.25 28.69C58.55 26.5 60 23.41 60.01 20C60.01 13.37 54.61 8 48.01 8C45.19 8 42.63 8.95 40.59 10.55L26.87 19.95L44.71 41z"
  />
  <linearGradient id="gradient1" gradientUnits="userSpaceOnUse" x1="32.91" y1="32.21" x2="42.19" y2="43.25">
   <stop offset="0" stop-color="#ffcc00"/>
   <stop offset="1" stop-color="#ff9900"/>
  </linearGradient>
  <path style="fill:url(#gradient1)"
        d="M32.13 54.39L43.69 42.07C46.33 39.51 48 35.95 48.01 32C48.01 24.25 41.73 18 34.01 18C30.79 18 27.83 19.09 25.47 20.89L11.83 30.25L32.13 54.39z"
  />
  <radialGradient id="gradient2" gradientUnits="userSpaceOnUse" cx="0" cy="0" r="64" gradientTransform="matrix(0.6729,0.0638,-0.0638,0.6729,6.1397,18.0535)">
   <stop offset="0.6666" stop-color="#ffcc00"/>
   <stop offset="1" stop-color="#ff9600"/>
  </radialGradient>
  <path style="fill:url(#gradient2)"
        d="M36 44C36.01 35.15 28.83 28 20.01 28C11.15 28 4 35.15 4.01 44C4.01 52.83 11.15 60 20.01 60C28.83 60 36 52.83 36.01 44H36z"
  />
  <radialGradient id="gradient3" gradientUnits="userSpaceOnUse" cx="0" cy="0" r="64" gradientTransform="matrix(0.3533,-0.2572,0.1336,0.1835,15.5397,33.6672)">
   <stop offset="0" stop-color="#ffffff"/>
   <stop offset="1" stop-color="#ffcc00"/>
  </radialGradient>
  <path style="fill:none; stroke:url(#gradient3); stroke-width:3; stroke-linecap:round; stroke-linejoin:round"
        d="M8 42V44
           M27 25L12 36"
  />
 </g>
</svg>
