<?xml version="1.0" encoding="UTF-8" standalone="yes"?>
<svg version="1.1" width="64" height="64" color-interpolation="linearRGB"
     xmlns:svg="http://www.w3.org/2000/svg" xmlns="http://www.w3.org/2000/svg">
 <g>
  <path style="fill:#010101; fill-opacity:0.4078"
        d="M6 42L4 44L22 53C22 53 16 64 26 64C34 64 36 59 36 59L42 62L64 37L50 33L6 42z"
  />
  <path style="fill:none; stroke:#010101; stroke-width:4; stroke-linecap:round"
        d="M6 36V42
           M38 50V56
           M54 31V37"
  />
  <path style="fill:none; stroke:#010101; stroke-width:4"
        d="M2 26V38L34 54L58 29V17L36.98 10.99L36 12L27 9L12 20L10 18.99L2 26z"
  />
  <path style="fill:#3d3d3d"
        d="M12 20L27 9L36 12L22 25L12 20z"
  />
  <linearGradient id="gradient0" gradientUnits="userSpaceOnUse" x1="37.96" y1="-15.55" x2="52.81" y2="-2.15">
   <stop offset="0" stop-color="#bdbdbd"/>
   <stop offset="1" stop-color="#808080"/>
  </linearGradient>
  <path style="fill:none; stroke:url(#gradient0); stroke-width:1"
        d="M15.62 17.62L24.62 20.62
           M18.37 15.75L27.37 18.75
           M20.75 13.62L29.75 16.62
           M23.37 11.87L32.37 14.87
           M26 10L35 13"
  />
  <linearGradient id="gradient1" gradientUnits="userSpaceOnUse" x1="24.39" y1="-5.5" x2="52.43" y2="0.21">
   <stop offset="0" stop-color="#ffffff"/>
   <stop offset="1" stop-color="#dadada"/>
  </linearGradient>
  <path style="fill:url(#gradient1)"
        d="M2 26L34 38L58 17L37 11L22 23L10 19L2 26z"
  />
  <linearGradient id="gradient2" gradientUnits="userSpaceOnUse" x1="22.38" y1="-0.52" x2="54.81" y2="31.57">
   <stop offset="0" stop-color="#eeeeee"/>
   <stop offset="1" stop-color="#9a9a9a"/>
  </linearGradient>
  <path style="fill:url(#gradient2)"
        d="M2 26V38L34 54V38L2 26z"
  />
  <linearGradient id="gradient3" gradientUnits="userSpaceOnUse" x1="43.22" y1="76.11" x2="19.29" y2="63.82">
   <stop offset="0" stop-color="#e2e2e2"/>
   <stop offset="1" stop-color="#7c7c7c"/>
  </linearGradient>
  <path style="fill:url(#gradient3)"
        d="M34 38V54L58 29V16L34 38z"
  />
  <linearGradient id="gradient4" gradientUnits="userSpaceOnUse" x1="36.19" y1="20.64" x2="46.83" y2="33.8">
   <stop offset="0" stop-color="#2b2b2b"/>
   <stop offset="0.1174" stop-color="#4b4b4b"/>
   <stop offset="0.2651" stop-color="#ffffff"/>
   <stop offset="0.4583" stop-color="#4e4e4e"/>
   <stop offset="1" stop-color="#131313"/>
  </linearGradient>
  <path style="fill:url(#gradient4)"
        d="M18.55 37.18L15.55 39.18L28.3 51.23L30.3 49.23C32.62 46.96 31.88 42.42 28.63 39.1C25.39 35.77 20.87 34.91 18.55 37.18z"
  />
  <path style="fill:none; stroke:#010101; stroke-width:6"
        d="M12.26 43.27C9.85 45.62 10.62 50.33 13.99 53.78C17.36 57.23 22.04 58.12 24.46 55.77C26.87 53.41 26.1 48.71 22.73 45.25C19.36 41.8 14.68 40.91 12.26 43.27z"
  />
  <radialGradient id="gradient5" gradientUnits="userSpaceOnUse" cx="0" cy="0" r="64" gradientTransform="matrix(0.1345,0.0871,-0.0673,0.1039,20.7047,50.7359)">
   <stop offset="0" stop-color="#434a68"/>
   <stop offset="1" stop-color="#0f1238"/>
  </radialGradient>
  <path style="fill:url(#gradient5)"
        d="M12.26 43.27C9.85 45.62 10.62 50.33 13.99 53.78C17.36 57.23 22.04 58.12 24.46 55.77C26.87 53.41 26.1 48.71 22.73 45.25C19.36 41.8 14.68 40.91 12.26 43.27z"
  />
  <path style="fill:#ffffff"
        d="M12.26 43.27C9.85 45.62 10.62 50.33 13.99 53.78C17.36 57.23 22.04 58.12 24.46 55.77C26.87 53.41 26.1 48.71 22.73 45.25C19.36 41.8 14.68 40.91 12.26 43.27z"
        transform="matrix(0,0.1784,-0.1784,0,25.2544,41.1997)"
  />
  <path style="fill:#ffffff"
        d="M19 53C19 53 22.25 53.25 23.25 52.25C24.25 51.25 24 49 24 49C24 49 24.87 52.12 23.87 53.12C22.87 54.12 19 53 19 53z"
  />
  <path style="fill:none; stroke:#393939; stroke-width:1"
        d="M54.5 21.5V30.5
           M52.5 23.5V32.62
           M50.5 25.5V34.75
           M48.5 27.5V36.87"
  />
 </g>
</svg>
