<?xml version="1.0" encoding="UTF-8" standalone="yes"?>
<svg version="1.1" width="64" height="64" color-interpolation="linearRGB"
     xmlns:svg="http://www.w3.org/2000/svg" xmlns="http://www.w3.org/2000/svg">
 <g>
  <path style="fill:none; stroke:#000000; stroke-width:4"
        d="M3 10L10 23C10 23 16 22 19 23C22 24 25 25 25 25L18 16C18 16 14 12 11 11C8 10 3 10 3 10z
           M29 14L39 4C39 4 42.33 6.49 44 9C46 12 47 16 47 16L31 26L29 14z"
  />
  <linearGradient id="gradient0" gradientUnits="userSpaceOnUse" x1="10.59" y1="-7.11" x2="28.82" y2="0.48">
   <stop offset="0" stop-color="#fbffce"/>
   <stop offset="1" stop-color="#eccd60"/>
  </linearGradient>
  <path style="fill:url(#gradient0)"
        d="M3 10L10 23C10 23 16 22 19 23C22 24 25 25 25 25L18 16C18 16 14 12 11 11C8 10 3 10 3 10z"
  />
  <path style="fill:none; stroke:#000000; stroke-width:0.5"
        d="M12.25 12.75L16.62 21.62
           M10.75 14.25L14.12 20.62
           M7 12L12 21"
  />
  <linearGradient id="gradient1" gradientUnits="userSpaceOnUse" x1="18.61" y1="-0.34" x2="40.86" y2="-9.57">
   <stop offset="0" stop-color="#55719e"/>
   <stop offset="1" stop-color="#dce9ff"/>
  </linearGradient>
  <path style="fill:url(#gradient1)"
        d="M29 14L39 4C39 4 42.33 6.49 44 9C46 12 47 16 47 16L31 26L29 14z"
  />
  <linearGradient id="gradient2" gradientUnits="userSpaceOnUse" x1="30.66" y1="-2.2" x2="40.02" y2="-4.45">
   <stop offset="0" stop-color="#893754"/>
   <stop offset="1" stop-color="#ce3269"/>
  </linearGradient>
  <path style="fill:url(#gradient2)"
        d="M34.12 18.75C34.12 18.75 39.62 16.61 39.62 14.37C39.62 11.37 39 10 41 10C42.41 10 44.54 12.42 43 15C41.29 17.84 33.12 21.37 33.12 21.37L34.12 18.75z
           M40 10C40 14 38 13 38 10C38 8 40 9 40 10z"
  />
  <path style="fill:none; stroke:#000000; stroke-width:4"
        d="M18 11V22L27 26L34 20V10L25 6L18 11z"
        transform="matrix(0.9479,0.3183,-0.3183,0.9479,6.4535,-7.4429)"
  />
  <path style="fill:#db5959"
        d="M18 11V21L27 26V15L18 11z"
        transform="matrix(0.9479,0.3183,-0.3183,0.9479,6.4535,-7.4429)"
  />
  <linearGradient id="gradient3" gradientUnits="userSpaceOnUse" x1="39.11" y1="-17.4" x2="61.97" y2="-5.38">
   <stop offset="0" stop-color="#a3043c"/>
   <stop offset="1" stop-color="#ff90af"/>
  </linearGradient>
  <path style="fill:url(#gradient3)"
        d="M27 15V26L34 20V10L27 15z"
        transform="matrix(0.9479,0.3183,-0.3183,0.9479,6.4535,-7.4429)"
  />
  <linearGradient id="gradient4" gradientUnits="userSpaceOnUse" x1="25.3" y1="-7.25" x2="35.06" y2="-4.59">
   <stop offset="0" stop-color="#ffc7c7"/>
   <stop offset="1" stop-color="#ffacac"/>
  </linearGradient>
  <path style="fill:url(#gradient4)"
        d="M18 11L27 15L34 10L25 6L18 11z"
        transform="matrix(0.9479,0.3183,-0.3183,0.9479,6.4535,-7.4429)"
  />
 </g>
</svg>
