<?xml version="1.0" encoding="UTF-8" standalone="yes"?>
<svg version="1.1" width="64" height="64" color-interpolation="linearRGB"
     xmlns:svg="http://www.w3.org/2000/svg" xmlns="http://www.w3.org/2000/svg">
 <g>
  <path style="fill:none; stroke:#010100; stroke-width:8; stroke-linecap:round; stroke-linejoin:round"
        d="M36 46C36 50 40 54 40 54V56H8V54C8 54 12 50 12 46V42C12 32 24 32 24 32C24 32 36 32 36 42V46z
           M24 8C32 8 28 23 24 27C20 23 16 8 24 8z
           M20 52C17.79 52 16 53.79 16 56C16 58.2 17.79 60 20 60C22.2 60 24 58.2 24 56C24 53.79 22.2 52 20 52z"
  />
  <radialGradient id="gradient0" gradientUnits="userSpaceOnUse" cx="0" cy="0" r="64" gradientTransform="matrix(0.25,0,0,0.3125,20,40)">
   <stop offset="0" stop-color="#fffee4"/>
   <stop offset="1" stop-color="#daba05"/>
  </radialGradient>
  <path style="fill:url(#gradient0)"
        d="M36 46C36 50 40 54 40 54V56H8V54C8 54 12 50 12 46V42C12 32 24 32 24 32C24 32 36 32 36 42V46z"
  />
  <radialGradient id="gradient1" gradientUnits="userSpaceOnUse" cx="0" cy="0" r="64" gradientTransform="matrix(0.125,0,0,0.25,20,8)">
   <stop offset="0" stop-color="#face79"/>
   <stop offset="1" stop-color="#b17409"/>
  </radialGradient>
  <path style="fill:url(#gradient1)"
        d="M24 8C32 8 28 23 24 27C20 23 16 8 24 8z"
  />
 </g>
</svg>
