<?xml version="1.0" encoding="UTF-8" standalone="yes"?>
<svg version="1.1" width="64" height="64" color-interpolation="linearRGB"
     xmlns:svg="http://www.w3.org/2000/svg" xmlns="http://www.w3.org/2000/svg">
 <g>
  <path style="fill:#010101; fill-opacity:0.4549"
        d="M18 62H25L33 54L46 62H53L64 50L56 46L30 49L18 62z"
  />
  <path style="fill:none; stroke:#000000; stroke-width:4"
        d="M2 34V52L18 60L30 49V32L14 26L2 34z"
  />
  <linearGradient id="gradient0" gradientUnits="userSpaceOnUse" x1="-25.79" y1="20.62" x2="10.43" y2="5.03">
   <stop offset="0" stop-color="#c6d7f5"/>
   <stop offset="1" stop-color="#6b94dd"/>
  </linearGradient>
  <path style="fill:url(#gradient0)"
        d="M2 34V52L18 60V41L2 34z"
  />
  <path style="fill:#003cb0"
        d="M18 41V60L30 49V32L18 41z"
  />
  <path style="fill:#0d2964"
        d="M24 34L28 45V36L24 34z"
        transform="matrix(1,0,0,1,0,1)"
  />
  <linearGradient id="gradient1" gradientUnits="userSpaceOnUse" x1="12.94" y1="-1.93" x2="52.06" y2="14.45">
   <stop offset="0" stop-color="#e3edff"/>
   <stop offset="1" stop-color="#9ec2ff"/>
  </linearGradient>
  <path style="fill:url(#gradient1)"
        d="M2 34L18 41L30 32L14 26L2 34z"
  />
  <path style="fill:none; stroke:#000000; stroke-width:4"
        d="M30 34V52L46 60L58 48V31L42 25L30 34z"
  />
  <path style="fill:#ec6666"
        d="M33 49L33.99 53.99L46 60V41L41.07 38.84L33 49z"
  />
  <path style="fill:#c93b3b"
        d="M30 34V52L33.99 53.99L33 49L41.07 38.84L30 34z"
  />
  <linearGradient id="gradient2" gradientUnits="userSpaceOnUse" x1="71.36" y1="-3.35" x2="104.04" y2="22.42">
   <stop offset="0" stop-color="#a3043c"/>
   <stop offset="1" stop-color="#ff90af"/>
  </linearGradient>
  <path style="fill:url(#gradient2)"
        d="M32 18V37L44 28V10L32 18z
           M46 41V60L58 48V30L46 41z"
  />
  <path style="fill:#ffacac"
        d="M51.5 30.75L40.98 38.8L46 41L58 31L42 25L41.58 26.18L51.5 30.75z"
  />
  <linearGradient id="gradient3" gradientUnits="userSpaceOnUse" x1="143.84" y1="41.93" x2="91.24" y2="108.1">
   <stop offset="0" stop-color="#bd0f0f"/>
   <stop offset="1" stop-color="#e98484"/>
  </linearGradient>
  <path style="fill:url(#gradient3)"
        d="M30 34L40.98 38.8L51.5 30.75L41.58 26.18L30 34z"
  />
  <path style="fill:none; stroke:#000000; stroke-width:4"
        d="M16 12V30L32 37L44 28V10L28 5L16 12z"
  />
  <linearGradient id="gradient4" gradientUnits="userSpaceOnUse" x1="-19.87" y1="-1.53" x2="5.48" y2="-26.29">
   <stop offset="0" stop-color="#ffec4b"/>
   <stop offset="1" stop-color="#f0a506"/>
  </linearGradient>
  <path style="fill:url(#gradient4)"
        d="M16 12V30L32 37V18L16 12z"
  />
  <linearGradient id="gradient5" gradientUnits="userSpaceOnUse" x1="30.5" y1="-22.81" x2="56.01" y2="-9.13">
   <stop offset="0" stop-color="#ffffff"/>
   <stop offset="1" stop-color="#fff289"/>
  </linearGradient>
  <path style="fill:url(#gradient5)"
        d="M16 12L32 18L44 10L28 5L16 12z"
  />
  <linearGradient id="gradient6" gradientUnits="userSpaceOnUse" x1="53.01" y1="-9.55" x2="69.94" y2="3.43">
   <stop offset="0" stop-color="#f99b05"/>
   <stop offset="1" stop-color="#fcb23d"/>
  </linearGradient>
  <path style="fill:url(#gradient6)"
        d="M32 18V37L44 28V10L32 18z"
  />
 </g>
</svg>
