<?xml version="1.0" encoding="UTF-8" standalone="yes"?>
<svg version="1.1" width="64" height="64" color-interpolation="linearRGB"
     xmlns:svg="http://www.w3.org/2000/svg" xmlns="http://www.w3.org/2000/svg">
 <g>
  <path style="fill:none; stroke:#010000; stroke-width:3"
        d="M11.5 6.2L12.56 6.28L12.84 6.5V16.09L12.56 16.38L11.5 16.45V17.33H16.81C16.81 17.33 16.81 17.33 19.64 17.33C21.15 16.02 21.15 13.64 21.15 11.59C20 10.33 17.92 10.33 19.4 9.95C20.15 9.14 20.15 7.97 20.15 6.22C18.96 5.33 16.59 5.33 16.59 5.33H11.5
           M15 6.3C15 6.3 15 6.3 15.23 6.3C15.45 6.3 15.67 6.3 17.25 6.3C18 6.91 18 8.17 18 9.67C17.2 10.33 15.45 10.33 15.29 10.33C15.15 10.33 15 10.31 15 10.31
           M15 11.33C15 11.33 15 11.33 15.46 11.33C15.84 11.33 16.1 11.33 18.03 11.33C19 12.14 19 13.77 19 15.59C18.01 16.34 15.79 16.34 15.54 16.34C15.28 16.34 15 16.34 15 16.34V11.33z"
        transform="matrix(1,0,0,1,-6,38)"
  />
  <path style="fill:none; stroke:#010000; stroke-width:3"
        d="M27.98 15.58C27.04 15.92 26.12 15.92 24.2 15.92C23 14.61 23 12.33 23 12.33H29C29 12.33 29 12.33 29 12.24C29 12.11 29 12.02 29 9.67C27.62 8.33 25.26 8.33 22.68 8.33C20.84 10.06 21 13 21.84 15.44C22.68 17.87 25.26 17.33 26.53 17.33C27.79 16.97 29 16.27 29 16.27V14.86
           M23 11.33C23 11.33 23 11.33 23 10.05C23.84 9.31 25.06 9.31 26.18 9.31C26.84 9.95 26.84 11.17 26.84 11.22C26.84 11.27 26.84 11.33 26.84 11.33H23z"
        transform="matrix(1,0,0,1,-4,38)"
  />
  <path style="fill:#170ede"
        d="M11.5 6.2L12.56 6.28L12.84 6.5V16.09L12.56 16.38L11.5 16.45V17.33H16.81C16.81 17.33 16.81 17.33 19.64 17.33C21.15 16.02 21.15 13.64 21.15 11.59C20 10.33 17.92 10.33 19.4 9.95C20.15 9.14 20.15 7.97 20.15 6.22C18.96 5.33 16.59 5.33 16.59 5.33H11.5
           M15 6.3C15 6.3 15 6.3 15.23 6.3C15.45 6.3 15.67 6.3 17.25 6.3C18 6.91 18 8.17 18 9.67C17.2 10.33 15.45 10.33 15.29 10.33C15.15 10.33 15 10.31 15 10.31
           M15 11.33C15 11.33 15 11.33 15.46 11.33C15.84 11.33 16.1 11.33 18.03 11.33C19 12.14 19 13.77 19 15.59C18.01 16.34 15.79 16.34 15.54 16.34C15.28 16.34 15 16.34 15 16.34V11.33z"
        transform="matrix(1,0,0,1,-6,38)"
  />
  <path style="fill:#ff0000"
        d="M27.98 15.58C27.04 15.92 26.12 15.92 24.2 15.92C23 14.61 23 12.33 23 12.33H29C29 12.33 29 12.33 29 12.24C29 12.11 29 12.02 29 9.67C27.62 8.33 25.26 8.33 22.68 8.33C20.84 10.06 21 13 21.84 15.44C22.68 17.87 25.26 17.33 26.53 17.33C27.79 16.97 29 16.27 29 16.27V14.86
           M23 11.33C23 11.33 23 11.33 23 10.05C23.84 9.31 25.06 9.31 26.18 9.31C26.84 9.95 26.84 11.17 26.84 11.22C26.84 11.27 26.84 11.33 26.84 11.33H23z"
        transform="matrix(1,0,0,1,-4,38)"
  />
  <path style="fill:none; stroke:#010000; stroke-width:2.5"
        d="M4 58V60H15V58H4z"
        transform="matrix(1.7857,0,0,1,-0.9642,0)"
  />
  <path style="fill:#170ede"
        d="M4 58V60H15V58H4z"
        transform="matrix(1,0,0,1,1,0)"
  />
  <path style="fill:#ff0000"
        d="M4 58V60H15V58H4z"
        transform="matrix(1,0,0,1,12,0)"
  />
 </g>
</svg>
