<?xml version="1.0" encoding="UTF-8" standalone="yes"?>
<svg version="1.1" width="64" height="64" color-interpolation="linearRGB"
     xmlns:svg="http://www.w3.org/2000/svg" xmlns="http://www.w3.org/2000/svg">
 <g>
  <path style="fill:#010101; fill-opacity:0.396"
        d="M42 61H48L52 57H56L62 51L48 47L42 61z"
  />
  <path style="fill:none; stroke:#000000; stroke-width:4"
        d="M3 15L13 41L42 59L60 12L48 10L44 12L26 8L24 13L16 11L15.91 19.2L3 15z"
  />
  <linearGradient id="gradient0" gradientUnits="userSpaceOnUse" x1="102.6" y1="8.5" x2="102.74" y2="47.07">
   <stop offset="0" stop-color="#face79"/>
   <stop offset="1" stop-color="#bc4105"/>
  </linearGradient>
  <path style="fill:url(#gradient0)"
        d="M26 8L14 41L42 58L60 12L48 10L44 12L26 8z"
  />
  <linearGradient id="gradient1" gradientUnits="userSpaceOnUse" x1="103.24" y1="12.68" x2="103.39" y2="55.34">
   <stop offset="0" stop-color="#ffffff"/>
   <stop offset="1" stop-color="#8e8e8e"/>
  </linearGradient>
  <path style="fill:url(#gradient1)"
        d="M16 11V41L42 57L49 22L16 11z"
  />
  <linearGradient id="gradient2" gradientUnits="userSpaceOnUse" x1="78.34" y1="-26.66" x2="101.46" y2="12.94">
   <stop offset="0" stop-color="#9a9a9a"/>
   <stop offset="1" stop-color="#505050"/>
  </linearGradient>
  <path style="fill:url(#gradient2)"
        d="M16 11L49 22L42 57L52 20.37L16 11z"
  />
  <linearGradient id="gradient3" gradientUnits="userSpaceOnUse" x1="88.52" y1="9.59" x2="97.54" y2="51.29">
   <stop offset="0" stop-color="#ffe2ac"/>
   <stop offset="1" stop-color="#f49806"/>
  </linearGradient>
  <path style="fill:url(#gradient3)"
        d="M3 15L13 41L42 59L38 30L3 15z"
  />
  <path style="fill:#a03d03"
        d="M3 15L38 30L42 59L40.5 28L3 15z"
  />
  <path style="fill:none; stroke:#000000; stroke-width:4; stroke-linejoin:round"
        d="M2 38V58H22V38H2z"
  />
  <linearGradient id="gradient4" gradientUnits="userSpaceOnUse" x1="32.95" y1="22.29" x2="47.53" y2="46.1">
   <stop offset="0" stop-color="#5c64f5"/>
   <stop offset="1" stop-color="#2905c3"/>
  </linearGradient>
  <path style="fill:url(#gradient4)"
        d="M2 38V58H22V38H2z"
  />
  <path style="fill:#f1f1f1"
        d="M4 38V46C4 47 6 48 6 48C5 48 19 48 19 48V38H4z"
  />
  <path style="fill:none; stroke:#000000; stroke-width:4; stroke-linejoin:round"
        d="M14 36V46H24L21 43L26 38L22 34L17 39L14 36z"
  />
  <linearGradient id="gradient5" gradientUnits="userSpaceOnUse" x1="34.2" y1="14.38" x2="45.54" y2="25.66">
   <stop offset="0" stop-color="#adff89"/>
   <stop offset="1" stop-color="#21ce21"/>
  </linearGradient>
  <path style="fill:url(#gradient5)"
        d="M14 36V46H24L21 43L26 38L22 34L17 39L14 36z"
  />
  <linearGradient id="gradient6" gradientUnits="userSpaceOnUse" x1="35.21" y1="27.65" x2="45.42" y2="41.2">
   <stop offset="0" stop-color="#9c9c9c"/>
   <stop offset="1" stop-color="#cccccc"/>
  </linearGradient>
  <path style="fill:url(#gradient6)"
        d="M4 58V52L5 50H17L18 52V58H11.99L12 53H8L7.99 58H4z"
  />
 </g>
</svg>
