<?xml version="1.0" encoding="UTF-8" standalone="yes"?>
<svg version="1.1" width="64" height="64" color-interpolation="linearRGB"
     xmlns:svg="http://www.w3.org/2000/svg" xmlns="http://www.w3.org/2000/svg">
 <g>
  <path style="fill:#010000; fill-opacity:0.4627"
        d="M38 60H48L52.46 54.31L57 54L55 52L59 46L52 43H13V48H17L27 53L38 60z"
  />
  <path style="fill:none; stroke:#000000; stroke-width:4"
        d="M21 6L4 16V19L6 20V45L10 47L12 44L27 51L30 57L36 60L50 46V22L52 20V17L21 6z"
  />
  <linearGradient id="gradient0" gradientUnits="userSpaceOnUse" x1="87.83" y1="-38.81" x2="110.13" y2="-10.53">
   <stop offset="0" stop-color="#f1c347"/>
   <stop offset="1" stop-color="#d29a05"/>
  </linearGradient>
  <path style="fill:url(#gradient0)"
        d="M36 30L4 16V19L6 20V45L10 47L12 44L27 51L30 57L36 60V30z"
  />
  <linearGradient id="gradient1" gradientUnits="userSpaceOnUse" x1="7.55" y1="-78.68" x2="42.08" y2="-78.15">
   <stop offset="0" stop-color="#fff0c7"/>
   <stop offset="1" stop-color="#ffd35b"/>
  </linearGradient>
  <path style="fill:url(#gradient1)"
        d="M4 16L21 6L52 17L36 30L4 16z"
  />
  <linearGradient id="gradient2" gradientUnits="userSpaceOnUse" x1="43.92" y1="-18.04" x2="67.4" y2="-12.21">
   <stop offset="0" stop-color="#896402"/>
   <stop offset="1" stop-color="#bf8c00"/>
  </linearGradient>
  <path style="fill:url(#gradient2)"
        d="M36 30V60L50 46V22L52 20V17L36 30z"
  />
  <linearGradient id="gradient3" gradientUnits="userSpaceOnUse" x1="13" y1="-62" x2="27" y2="-62">
   <stop offset="0.0823" stop-color="#c7ba91"/>
   <stop offset="0.0823" stop-color="#9b8e60"/>
   <stop offset="0.2235" stop-color="#9b8e60"/>
   <stop offset="0.2274" stop-color="#c7ba91"/>
   <stop offset="0.3568" stop-color="#c7ba91"/>
   <stop offset="0.3568" stop-color="#9b8e60"/>
   <stop offset="0.4941" stop-color="#9b8e60"/>
   <stop offset="0.4941" stop-color="#c7ba91"/>
   <stop offset="0.6352" stop-color="#c7ba91"/>
   <stop offset="0.6352" stop-color="#9b8e60"/>
   <stop offset="0.7764" stop-color="#9b8e60"/>
   <stop offset="0.7764" stop-color="#c7ba91"/>
   <stop offset="0.9176" stop-color="#c7ba91"/>
   <stop offset="0.9215" stop-color="#9b8e60"/>
  </linearGradient>
  <path style="fill:url(#gradient3)"
        d="M29 47V43C29 42 29 39 26 38C23 37 25 33 20 31C15 29 16 34 14 33C12 32 11 34 11 35V39L29 47z"
  />
  <linearGradient id="gradient4" gradientUnits="userSpaceOnUse" x1="91.29" y1="-37.01" x2="108.01" y2="-13.51">
   <stop offset="0" stop-color="#ff0606"/>
   <stop offset="1" stop-color="#c60505"/>
  </linearGradient>
  <path style="fill:none; stroke:url(#gradient4); stroke-width:2"
        d="M29 47V43C29 42 29 39 26 38C23 37 25 33 20 31C15 29 16 34 14 33C12 32 11 34 11 35V39L29 47z"
  />
  <path style="fill:none; stroke:#000000; stroke-width:6; stroke-linecap:round; stroke-linejoin:round"
        d="M47 38V46"
  />
  <path style="fill:none; stroke:#000000; stroke-width:6; stroke-linecap:round; stroke-linejoin:round"
        d="M45 37L47 38"
  />
  <radialGradient id="gradient5" gradientUnits="userSpaceOnUse" cx="0" cy="0" r="64" gradientTransform="matrix(0.0156,0,0,0.0781,47,42)">
   <stop offset="0" stop-color="#ccdae5"/>
   <stop offset="1" stop-color="#5b6b75"/>
  </radialGradient>
  <path style="fill:none; stroke:url(#gradient5); stroke-width:2; stroke-linecap:round; stroke-linejoin:round"
        d="M47 38V46"
  />
  <radialGradient id="gradient6" gradientUnits="userSpaceOnUse" cx="0" cy="0" r="64" gradientTransform="matrix(0.0442,0.0354,-0.0195,0.0244,45.5012,36.7202)">
   <stop offset="0" stop-color="#f8fcff"/>
   <stop offset="1" stop-color="#849199"/>
  </radialGradient>
  <path style="fill:none; stroke:url(#gradient6); stroke-width:2; stroke-linecap:round; stroke-linejoin:round"
        d="M45 37L47 38"
  />
  <path style="fill:none; stroke:#000000; stroke-width:8; stroke-linecap:round; stroke-linejoin:round"
        d="M51 48L59 52"
  />
  <radialGradient id="gradient7" gradientUnits="userSpaceOnUse" cx="0" cy="0" r="64" gradientTransform="matrix(0.1002,0.0624,-0.0251,0.0404,54.2836,48.8012)">
   <stop offset="0" stop-color="#ffdcac"/>
   <stop offset="1" stop-color="#784803"/>
  </radialGradient>
  <path style="fill:none; stroke:url(#gradient7); stroke-width:4; stroke-linecap:round; stroke-linejoin:round"
        d="M51 48L59 52"
  />
  <path style="fill:none; stroke:#010000; stroke-opacity:0.5333; stroke-width:2"
        d="M6 21L36 35L51 23"
  />
 </g>
</svg>
