<?xml version="1.0" encoding="UTF-8" standalone="yes"?>
<svg version="1.1" width="64" height="64" color-interpolation="linearRGB"
     xmlns:svg="http://www.w3.org/2000/svg" xmlns="http://www.w3.org/2000/svg">
 <g>
  <path style="fill:#000000"
        d="
           M32 16C23.16 16 16 23.16 16 32C16 40.83 23.16 48 32 48C40.83 48 48 40.83 48 32C48 23.16 40.83 16 32 16z"
        transform="matrix(1.7617,0,0,1.7539,-24.4375,-24.0624)"
  />
  <radialGradient id="gradient0" gradientUnits="userSpaceOnUse" cx="0" cy="0" r="64" gradientTransform="matrix(0.4589,0,0,0.4589,24.25,27.875)">
   <stop offset="0" stop-color="#c8c8c8"/>
   <stop offset="0.5772" stop-color="#383838"/>
   <stop offset="0.9329" stop-color="#2b2b2b"/>
  </radialGradient>
  <path style="fill:url(#gradient0)"
        d="
           M32 16C23.16 16 16 23.16 16 32C16 40.83 23.16 48 32 48C40.83 48 48 40.83 48 32C48 23.16 40.83 16 32 16z"
        transform="matrix(1.625,0,0,1.6249,-20.125,-20.1249)"
  />
  <path style="fill:#ffffff"
        d="M16 16V48H48V16H16z"
        transform="matrix(0.7194,0,0,0.0449,9.5105,31.838)"
  />
  <path style="fill:#ffffff"
        d="M16 16V48H48V16H16z
           "
        transform="matrix(0.0445,0,0,0.8114,41.8613,6.548)"
  />
  <path style="fill:#ffffff"
        d="
           M16 16V48H48V16H16z"
        transform="matrix(0.0486,0,0,0.8146,30.6675,6.4149)"
  />
  <path style="fill:#ffffff"
        d="
           M16 16V48H48V16H16z"
        transform="matrix(0.045,0,0,0.4133,20.8458,25.659)"
  />
  <path style="fill:#ffffff"
        d="
           M16 16V48H48V16H16z"
        transform="matrix(0.0449,0,0,0.3542,19.94,16.7414)"
  />
  <path style="fill:none; stroke:#ffffff; stroke-width:1"
        d="M52.75 25.5H49.5L49.62 28C49.62 28 52.5 27.75 52.5 29.37C52.5 30.5 52.12 31.62 51.5 31.62C50 31.62 49.62 31.12 49.62 30"
        transform="matrix(1.031,0,0,0.8322,-9.5198,26.2388)"
  />
  <path style="fill:none; stroke:#ffffff; stroke-width:1"
        d="M51.5 29.62V24.62L49.5 26.25V27.25L52.87 27.37"
        transform="matrix(1.0321,0,0,0.9999,-9.6981,-11.7499)"
  />
  <path style="fill:none; stroke:#ffffff; stroke-width:1"
        d="M49.5 36.5H51.37C51.37 36.5 52.5 37 52.5 37.37C52.5 37.89 51.25 38.37 51.25 38.37C51.25 38.37 52.5 39.08 52.5 39.87C52.5 41 51.87 41.5 51.12 41.5C50.21 41.5 49.5 40.12 49.5 40.12"
        transform="matrix(1.0609,0,0,1.0208,-22.1137,10.2509)"
  />
  <path style="fill:none; stroke:#ffffff; stroke-width:1"
        d="M48.62 37.62C48.62 37.62 49.12 36.37 49.87 36.37C51.13 36.37 51.12 37.5 51.12 37.5C51.12 37.5 51.75 38.37 50.62 39.37C49.61 40.27 48.87 41.5 48.87 41.5H51.87"
        transform="matrix(1.0321,0,0,1,-19.5439,-24)"
  />
  <path style="fill:none; stroke:#ffffff; stroke-width:1"
        d="M50.12 29.25L51.62 29.12V34.37"
        transform="matrix(1.0612,0,0,1,-32.1915,18.5)"
  />
  <path style="fill:#ffffff"
        d="M32 16C23.16 16 16 23.16 16 32C16 40.83 23.16 48 32 48C40.83 48 48 40.83 48 32C48 23.16 40.83 16 32 16z"
        transform="matrix(0.2773,0,0,0.2773,13.1875,6.1875)"
  />
  <path style="fill:none; stroke:#c2c2c2; stroke-width:1"
        d="M12.5 39.75L12.62 34.75C12.62 34.75 15.3 34.24 15.25 35.5C15.12 38.37 12.75 37.12 12.75 37.12"
        transform="matrix(0.9993,-0.0348,0.0348,0.9993,6.7289,-21.617)"
  />
  <path style="fill:none; stroke:#c2c2c2; stroke-width:1"
        d="M14.12 37.5L15.37 39.37"
        transform="matrix(1.3112,0,0,1.3112,3.6855,-33.8527)"
  />
  <radialGradient id="gradient1" gradientUnits="userSpaceOnUse" cx="0" cy="0" r="64" gradientTransform="matrix(0.4589,0,0,0.4589,24.25,27.875)">
   <stop offset="0" stop-color="#c8c8c8" stop-opacity="0"/>
   <stop offset="0.6418" stop-color="#383838" stop-opacity="0.5254"/>
   <stop offset="0.9329" stop-color="#2b2b2b"/>
  </radialGradient>
  <path style="fill:url(#gradient1)"
        d="M32 16C23.16 16 16 23.16 16 32C16 40.83 23.16 48 32 48C40.83 48 48 40.83 48 32C48 23.16 40.83 16 32 16z"
        transform="matrix(1.625,0,0,1.6249,-20.125,-20.1249)"
  />
 </g>
</svg>
