<?xml version="1.0" encoding="UTF-8" standalone="yes"?>
<svg version="1.1" width="64" height="64" color-interpolation="linearRGB"
     xmlns:svg="http://www.w3.org/2000/svg" xmlns="http://www.w3.org/2000/svg">
 <g>
  <path style="fill:#010101; fill-opacity:0.4274"
        d="M27 62L29 64L32.12 60.82L37 64L45.39 52.53L64 43L59 40L61 42L36 54L27 62z
           M58 39L62 36L58 34L55 37L58 39z"
        transform="matrix(1,0,0,1,0,-5.625)"
  />
  <path style="fill:none; stroke:#010101; stroke-width:4"
        d="M6.24 35C6.24 35 11.87 41 16.87 47.5C21.87 54 26.24 60.74 26.24 60.74L59.11 41.87L32 20L6.24 35z"
        transform="matrix(1,0,0,1,0,-5.625)"
  />
  <radialGradient id="gradient0" gradientUnits="userSpaceOnUse" cx="0" cy="0" r="64" gradientTransform="matrix(0.5714,0,0,0.3333,26,40)">
   <stop offset="0.4862" stop-color="#f1f1f1"/>
   <stop offset="1" stop-color="#ffffff"/>
  </radialGradient>
  <path style="fill:url(#gradient0)"
        d="M6.24 35C6.24 35 11.87 41 16.87 47.5C21.87 54 26.24 60.74 26.24 60.74L50.03 47.07L57.04 43.05L59.11 41.87L32 20L6.24 35z"
        transform="matrix(1,0,0,1,0,-5.625)"
  />
  <path style="fill:none; stroke:#010101; stroke-width:4"
        d="M2.61 35.87C2.61 35.87 10.95 41.26 19 46.87C27.44 52.75 35.74 57.74 35.74 57.74L58.11 31.37C58.11 31.37 45.44 25.7 35.37 20.37C30.18 17.62 26 14.37 26 14.37L2.61 35.87z"
        transform="matrix(1,0,0,1,0,-5.625)"
  />
  <linearGradient id="gradient1" gradientUnits="userSpaceOnUse" x1="107.03" y1="-12.09" x2="118.33" y2="32.99">
   <stop offset="0" stop-color="#efefef"/>
   <stop offset="0.7411" stop-color="#fcfcfc"/>
   <stop offset="1" stop-color="#f8f8f8"/>
  </linearGradient>
  <path style="fill:url(#gradient1)"
        d="M2.61 35.87C2.61 35.87 10.95 41.26 19 46.87C27.44 52.75 35.74 57.74 35.74 57.74L44.86 47L49.73 41.24L58.11 31.37C58.11 31.37 45.44 25.7 35.37 20.37C30.18 17.62 26 14.37 26 14.37L2.61 35.87z"
        transform="matrix(1,0,0,1,0,-5.625)"
  />
  <linearGradient id="gradient2" gradientUnits="userSpaceOnUse" x1="-47.14" y1="-15.78" x2="-28.46" y2="-37.85">
   <stop offset="0" stop-color="#010101"/>
   <stop offset="1" stop-color="#9e9e9e"/>
  </linearGradient>
  <path style="fill:none; stroke:url(#gradient2); stroke-width:1"
        d="M20 41L34.87 25.87
           M14 37L26.87 24"
        transform="matrix(1,0,0,1,0,-5.625)"
  />
  <linearGradient id="gradient3" gradientUnits="userSpaceOnUse" x1="-47.14" y1="-15.78" x2="-28.46" y2="-37.85">
   <stop offset="0" stop-color="#010101"/>
   <stop offset="1" stop-color="#9e9e9e"/>
  </linearGradient>
  <path style="fill:none; stroke:url(#gradient3); stroke-width:1"
        d="M17 39L28.11 27.61"
        transform="matrix(1,0,0,1,0,-5.625)"
  />
 </g>
</svg>
