<?xml version="1.0" encoding="UTF-8" standalone="yes"?>
<svg version="1.1" width="64" height="64" color-interpolation="linearRGB"
     xmlns:svg="http://www.w3.org/2000/svg" xmlns="http://www.w3.org/2000/svg">
 <g>
  <path style="fill:#010101; fill-opacity:0.4196"
        d="M45.37 38.75L47.25 46.62L53.87 45.37L66.62 50.37L56.5 62.87L31.5 57.12V57.12"
        transform="matrix(0.8814,0,0,1,3.5128,0.375)"
  />
  <path style="fill:#010101; fill-opacity:0.4196"
        d="M12.75 43L30.25 48.12L28.5 29.75L17.25 25.62"
        transform="matrix(1,0,0,1,0,5.25)"
  />
  <path style="fill:none; stroke:#000000; stroke-width:4"
        d="M8.12 16.5L15.12 18.75L16.75 24.5L22.37 20.87L29.5 22.87L31.12 29.25L36.37 25.12L43.37 27.37L34 44.5L26.12 52.87L20.12 36.87L11.5 45.5L2.37 19.37L8.12 16.5z"
        transform="matrix(1.2375,0.0005,-0.0006,1.233,-0.4083,-12.1047)"
  />
  <path style="fill:#ffffff"
        d="M2.25 19.12L10.12 22L13 29.5L11.37 45.75L2.25 19.12z"
        transform="matrix(1.252,0.0006,-0.0006,1.252,-0.7449,-12.7168)"
  />
  <linearGradient id="gradient0" gradientUnits="userSpaceOnUse" x1="-64" y1="-64" x2="64" y2="-64">
   <stop offset="0" stop-color="#e2e2e2"/>
   <stop offset="1" stop-color="#b0b0b0"/>
  </linearGradient>
  <path style="fill:url(#gradient0)"
        d="M15.25 18.25L19.37 28.37L13.5 34.75L9.25 20L15.25 18.25z"
        transform="matrix(1.252,0.0006,-0.0006,1.252,-0.7449,-12.7168)"
  />
  <linearGradient id="gradient1" gradientUnits="userSpaceOnUse" x1="-64" y1="-64" x2="64" y2="-64">
   <stop offset="0" stop-color="#e2e2e2"/>
   <stop offset="1" stop-color="#b0b0b0"/>
  </linearGradient>
  <path style="fill:url(#gradient1)"
        d="M29.75 22.5L31.75 32.5L22.25 41L24.25 22.25L29.75 22.5z"
        transform="matrix(1.252,0.0006,-0.0006,1.252,-0.7449,-12.7168)"
  />
  <path style="fill:#353535"
        d="M35.37 43L43.5 27.25L37 30.5L26.62 53.12L35.37 43z"
        transform="matrix(1.252,0.0006,-0.0006,1.252,-0.7449,-12.7168)"
  />
  <linearGradient id="gradient2" gradientUnits="userSpaceOnUse" x1="-64" y1="-64" x2="64" y2="-64">
   <stop offset="0" stop-color="#8d8d8d"/>
   <stop offset="1" stop-color="#797979"/>
  </linearGradient>
  <path style="fill:url(#gradient2)"
        d="M11.75 46.12L24.37 33.12L18.12 29.87L11.75 46.12z"
        transform="matrix(1.252,0.0006,-0.0006,1.252,-0.7449,-12.7168)"
  />
  <path style="fill:#ffffff"
        d="M11.62 31.87L15.87 24.87L23.5 27.12L26.87 38.25L30.12 42.87L25.62 53.62L18.37 32.37L11.5 46L11.62 31.87z"
        transform="matrix(1.252,0.0006,-0.0006,1.252,-0.7449,-12.7168)"
  />
  <path style="fill:#ffffff"
        d="M2.5 19.12L7.87 16.5L15.37 18.62L9.5 21.87L2.5 19.12z"
        transform="matrix(1.252,0.0006,-0.0006,1.252,-0.7449,-12.7168)"
  />
  <path style="fill:#ffffff"
        d="M15.5 24.75L22.12 20.75L29.5 23L23.87 27.37L15.5 24.75z"
        transform="matrix(1.252,0.0006,-0.0006,1.252,-0.7449,-12.7168)"
  />
  <path style="fill:#737373"
        d="M39.12 31.75L44 27.12L36.12 24.75L30 28.75L39.12 31.75z"
        transform="matrix(1.252,0.0006,-0.0006,1.252,-0.7449,-12.7168)"
  />
  <path style="fill:#4242fd"
        d="M11.37 12L16 27.12L22.5 16.62L30.25 19.12L35.5 34.37V52.5L25.75 23.87L24 23.62L15.12 41.12L4.75 10L11.37 12z"
        transform="matrix(0.9015,0,0,0.9015,-0.0549,4.8325)"
  />
  <path style="fill:#5d5d5d"
        d="M26.25 35.75L30.37 29L38.87 31.62L26.12 52.25L26.25 35.75z"
        transform="matrix(1.3281,0,0,1.3281,-2.9277,-14.9179)"
  />
  <path style="fill:#ffffff"
        d="M44 23L50.5 25L37.62 47V34.12L44 23z"
        transform="matrix(1,0,0,1,-5.625,3.5)"
  />
  <linearGradient id="gradient3" gradientUnits="userSpaceOnUse" x1="-40.53" y1="-69.71" x2="86.71" y2="-55.84">
   <stop offset="0" stop-color="#ffffff" stop-opacity="0"/>
   <stop offset="1" stop-color="#010101" stop-opacity="0.196"/>
  </linearGradient>
  <path style="fill:url(#gradient3)"
        d="M1.5 13.75L11.25 16L14.25 27.25L19.12 19.87L28.62 23.25L31.75 33.87L37.37 25.75L48.5 29.25L30.87 57L24 38L13.12 48.25L1.5 13.75z"
        transform="matrix(1,0,0,1,0,-1.625)"
  />
  <linearGradient id="gradient4" gradientUnits="userSpaceOnUse" x1="-64" y1="-64" x2="64" y2="-64">
   <stop offset="0" stop-color="#ffffff" stop-opacity="0"/>
   <stop offset="1" stop-color="#000000" stop-opacity="0.0313"/>
  </linearGradient>
  <path style="fill:url(#gradient4)"
        d="M9.25 8.62L0.87 13L11.5 16.25L18.87 12L9.25 8.62z
           M26.62 14L19.5 19.25L29.12 22.87L36.62 16.87L26.62 14z
           M44.12 19.25L37.62 24.5L48.5 28.37L54.5 22.5L44.12 19.25z"
        transform="matrix(1,0,0,1,0,-1.625)"
  />
 </g>
</svg>
