<?xml version="1.0" encoding="UTF-8" standalone="yes"?>
<svg version="1.1" width="64" height="64" color-interpolation="linearRGB"
     xmlns:svg="http://www.w3.org/2000/svg" xmlns="http://www.w3.org/2000/svg">
 <g>
  <path style="fill:#000000; fill-opacity:0.4235"
        d="M50.62 56.75L59 56.62L62.5 52.5L44.75 41.62"
        transform="matrix(0.9821,0,0,0.9821,0.1444,0.0992)"
  />
  <path style="fill:none; stroke:#000000; stroke-width:3"
        d="M2.5 54.12V14.75L19.62 5.12L20 3.5C20 3.5 21.5 2.25 23.12 2.25C24.75 2.25 26.5 3.5 26.5 3.5L27.5 5.25L49.5 13.12L49.62 54.37L47.12 52.62H44.62L23.62 41.87L10.62 54.62L5.25 51.87L2.5 54.12z"
        transform="matrix(0.9796,0,0,0.9821,1.0216,0.0992)"
  />
  <path style="fill:#6b4002"
        d="M7.62 58.62L10.75 55.5L9.87 15.62L9.5 12L7.62 13.5V58.62z"
        transform="matrix(0.9421,0,0,0.8267,-3.0928,3.7503)"
  />
  <linearGradient id="gradient0" gradientUnits="userSpaceOnUse" x1="-64" y1="-64" x2="64" y2="-64">
   <stop offset="0.9406" stop-color="#925702"/>
   <stop offset="1" stop-color="#854f03"/>
  </linearGradient>
  <path style="fill:url(#gradient0)"
        d="M10.5 49.62L24.12 38.25L49.12 55.5L50.25 56.37L50.5 13.37L52.87 11L31.12 2.25L30.87 0.25C30.87 0.25 29.38 -0.87 27.75 -0.87C26.37 -0.87 25.25 0.5 25.25 0.5L23.37 2.75L7.62 13.25L10.5 16.12V49.62z"
        transform="matrix(0.9821,0,0,0.8267,-3.5228,3.7503)"
  />
  <path style="fill:#6b4002"
        d="M50 56.37L53.62 58.5V10.75L50 13.62V56.37z"
        transform="matrix(0.9508,0,0,0.8267,-1.972,3.7503)"
  />
  <linearGradient id="gradient1" gradientUnits="userSpaceOnUse" x1="128.5" y1="-63.49" x2="127.83" y2="64.5">
   <stop offset="0.5287" stop-color="#000000" stop-opacity="0.2117"/>
   <stop offset="1" stop-color="#000000" stop-opacity="0.9803"/>
  </linearGradient>
  <path style="fill:url(#gradient1)"
        d="M20.62 7.37C20.62 7.37 21.94 5.85 23.12 5.75C24.5 5.62 25.62 7.25 25.62 7.25L23 9L20.62 7.37z"
        transform="matrix(0.9821,0,0,1.3667,1.0194,-3.7372)"
  />
  <linearGradient id="gradient2" gradientUnits="userSpaceOnUse" x1="-64" y1="-64" x2="64" y2="-64">
   <stop offset="0.4799" stop-color="#ffffff"/>
   <stop offset="1" stop-color="#d1d1d1"/>
  </linearGradient>
  <path style="fill:url(#gradient2)"
        d="M12.62 16.75L27.37 6.5C27.37 6.5 26.75 5 25.5 5C23.58 5 22.62 3.62 22.62 3.62L6.62 15.12L12.62 16.75z"
        transform="matrix(0.9821,0,0,0.8267,-0.4537,3.957)"
  />
  <linearGradient id="gradient3" gradientUnits="userSpaceOnUse" x1="61.28" y1="-100.56" x2="130.14" y2="7.33">
   <stop offset="0.253" stop-color="#f2f2f2"/>
   <stop offset="1" stop-color="#d4d4d4"/>
  </linearGradient>
  <path style="fill:url(#gradient3)"
        d="M6.75 55.87L12.37 59.62L12.62 16.75L6.62 15.37L6.75 55.87z"
        transform="matrix(0.9821,0,0,0.8267,-0.4537,3.957)"
  />
  <linearGradient id="gradient4" gradientUnits="userSpaceOnUse" x1="-64" y1="-64" x2="64" y2="-64">
   <stop offset="0.5392" stop-color="#ffffff"/>
   <stop offset="1" stop-color="#d3d3d3"/>
  </linearGradient>
  <path style="fill:url(#gradient4)"
        d="M26.87 7.75L45.12 16.62L47.25 12.62L27.12 3.87C27.12 3.87 25.93 5.64 25.25 5.87C23.93 6.31 22.5 6 22.5 6L26.87 7.75z"
        transform="matrix(0.9821,0,0,0.8267,-0.4537,3.957)"
  />
  <linearGradient id="gradient5" gradientUnits="userSpaceOnUse" x1="55.77" y1="-101.66" x2="129.03" y2="3.29">
   <stop offset="0.5357" stop-color="#9e9e9e"/>
   <stop offset="1" stop-color="#8b8b8b"/>
  </linearGradient>
  <path style="fill:url(#gradient5)"
        d="M45 16.62L45.12 57.12L47.5 55.5V12.75L45 16.62z"
        transform="matrix(0.8242,0,0,0.8267,6.7963,3.957)"
  />
  <linearGradient id="gradient6" gradientUnits="userSpaceOnUse" x1="8.31" y1="-107.41" x2="115.93" y2="-24.52">
   <stop offset="0.1431" stop-color="#e5e5e5"/>
   <stop offset="1" stop-color="#a5a5a5"/>
  </linearGradient>
  <path style="fill:url(#gradient6)"
        d="M11.5 16.5L25.37 5.62L26.12 43.12L11.62 59.5L11.5 16.5z"
        transform="matrix(0.9821,0,0,0.8267,-0.4537,3.957)"
  />
  <linearGradient id="gradient7" gradientUnits="userSpaceOnUse" x1="50.7" y1="-102.46" x2="127.88" y2="-0.35">
   <stop offset="0.6858" stop-color="#f1f1f1"/>
   <stop offset="1" stop-color="#c4c4c4"/>
  </linearGradient>
  <path style="fill:url(#gradient7)"
        d="M25.37 7L45.5 15.12L45.37 56.5L25.5 44.37L25.37 7z"
        transform="matrix(0.9759,0,0,0.8267,-0.2971,3.957)"
  />
  <path style="fill:#000000; fill-opacity:0.3568"
        d="M10.75 56.25L21.12 56.37L30.87 45.5L24 42.75L10.75 56.25z"
        transform="matrix(0.9821,0,0,0.9821,1.0194,0.0992)"
  />
  <path style="fill:#000000; fill-opacity:0.2901"
        d="M30.87 45.5L23.75 9.12L24 42.75L30.87 45.5z"
        transform="matrix(0.9821,0,0,0.9821,1.0194,0.0992)"
  />
  <path style="fill:none; stroke:#9c9c9c; stroke-width:1"
        d="M38.87 19.62L41.25 24"
        transform="matrix(0.882,-0.0404,0.0404,0.882,2.9953,3.3166)"
  />
  <path style="fill:none; stroke:#9c9c9c; stroke-width:1"
        d="M29.25 16.25L25.87 19"
        transform="matrix(0.8823,-0.0342,0.0342,0.8823,3.822,2.3787)"
  />
  <path style="fill:none; stroke:#9c9c9c; stroke-width:1"
        d="M25.75 30.25L28.12 34.37"
        transform="matrix(0.8737,0.1277,-0.1277,0.8737,8.7849,-2.8737)"
  />
  <path style="fill:none; stroke:#9c9c9c; stroke-width:1"
        d="M40.62 34.87L37.62 37.75"
        transform="matrix(0.883,0,0,0.883,4.4078,0.6349)"
  />
  <path style="fill:#000000; fill-opacity:0.4235"
        d="M45.61 34L54.5 33.87L63.5 24.62L49.5 24.75"
        transform="matrix(0.8196,0,0,0.8196,2.8373,35.4467)"
  />
  <path style="fill:none; stroke:#000000; stroke-width:2"
        d="M27.75 54.25C27.75 54.25 31.27 56.7 34.75 59C37.88 61.06 40.75 62.5 40.75 62.5L42.5 63.37C42.5 63.37 44.37 60.62 46.87 58.25C47.83 57.33 51.62 54.75 51.62 54.75L52.25 53.25L51.5 51.87L52.37 50.12L51.75 48.75L52.25 47.25L51.87 45.37L51 44.75L52.75 43.5L50.25 41.87L28.62 46.25L30 47.37L28 48.25L30.37 50.37L27.75 51.25L30.5 53.25L27.75 54.25z"
        transform="matrix(0.9821,0,0,0.9821,1.0194,0.0992)"
  />
  <path style="fill:#000000"
        d="M2.61 35.86C2.61 35.86 10.94 41.25 19 46.86C27.44 52.74 35.74 57.74 35.74 57.74L44.85 47L49.73 41.24L58.1 31.37C58.1 31.37 45.44 25.7 35.36 20.37C30.17 17.61 26 14.37 26 14.37L2.61 35.86z"
        transform="matrix(0.3996,0,0,0.3896,28.4751,39.4486)"
  />
  <path style="fill:none; stroke:#000000; stroke-width:1"
        d="M14 37L26.87 24
           M20 41L34.86 25.87"
        transform="matrix(0.3996,0,0,0.3896,28.4751,39.4486)"
  />
  <path style="fill:none; stroke:#000000; stroke-width:1"
        d="M17 39L28.11 27.61"
        transform="matrix(0.3996,0,0,0.3896,28.4751,39.4486)"
  />
  <path style="fill:none; stroke:#000000; stroke-width:4"
        d="M4.61 31.87C4.61 31.87 12.95 37.26 21 42.87C29.44 48.75 35.74 52.74 35.74 52.74L58.11 26.37C58.11 26.37 47.44 21.7 37.37 16.37C32.18 13.62 28 10.37 28 10.37L4.61 31.87z"
        transform="matrix(0.4129,0,0,0.4026,27.6575,40.6779)"
  />
  <path style="fill:#000000"
        d="M4.61 31.87C4.61 31.87 12.95 37.26 21 42.87C29.44 48.75 35.74 52.74 35.74 52.74L58.11 26.37C58.11 26.37 47.44 21.7 37.37 16.37C32.18 13.62 28 10.37 28 10.37L4.61 31.87z"
        transform="matrix(0.4129,0,0,0.4026,27.6575,40.6779)"
  />
  <path style="fill:#000000"
        d="M20.37 21.37C20.37 21.37 16.34 23.06 13.87 25.61C11.25 28.31 9.46 32.97 12.61 33.37C15.61 33.74 19.37 35.61 26.87 34C32.83 32.7 34.82 32.06 37 31.24C39.61 30.24 44.87 31.61 43.5 29.37C42.97 28.5 42.11 27.87 45.61 27.24C49.11 26.61 48.82 22.99 42 22.24C35.11 21.5 31.11 25 26.37 27C21.61 29 18.53 28.7 17.11 28.37C14 27.61 20.37 21.37 20.37 21.37z
           M40 33C37.87 33.11 37 35.11 40.5 35.61C44 36.11 42.11 32.87 40 33z
           M48.61 28.74C47.5 28.87 47.11 29.74 48.5 30.24C49.87 30.74 49.74 28.61 48.61 28.74z"
        transform="matrix(0.4129,0,0,0.4026,27.6575,40.6779)"
  />
  <path style="fill:#000000"
        d="M27 62L29 64L32.12 60.81L37 64L45.39 52.52L64 43L59 40L61 42L36 54L27 62z"
        transform="matrix(0.3996,0,0,0.373,28.4751,36.9984)"
  />
  <path style="fill:none; stroke:#000000; stroke-width:4"
        d="M6.24 35C6.24 35 11.87 41 16.87 47.5C21.87 54 26.24 60.74 26.24 60.74L59.1 41.86L32 20L6.24 35z"
        transform="matrix(0.3996,0,0,0.373,28.4751,36.9984)"
  />
  <path style="fill:#000000"
        d="M6.24 35C6.24 35 11.87 41 16.87 47.5C21.87 54 26.24 60.74 26.24 60.74L50.02 47.06L57.03 43.04L59.1 41.86L32 20L6.24 35z"
        transform="matrix(0.3996,0,0,0.373,28.4751,36.9984)"
  />
  <path style="fill:#000000"
        d="M2.61 35.86C2.61 35.86 10.94 41.25 19 46.86C27.44 52.74 35.74 57.74 35.74 57.74L44.85 47L49.73 41.24L58.1 31.37C58.1 31.37 45.44 25.7 35.36 20.37C30.17 17.61 26 14.37 26 14.37L2.61 35.86z"
        transform="matrix(0.3996,0,0,0.373,28.4751,36.9984)"
  />
  <path style="fill:none; stroke:#000000; stroke-width:1"
        d="M20 41L34.86 25.87
           M14 37L26.87 24"
        transform="matrix(0.3996,0,0,0.373,28.4751,36.9984)"
  />
  <path style="fill:none; stroke:#000000; stroke-width:1"
        d="M17 39L28.11 27.61"
        transform="matrix(0.3996,0,0,0.373,28.4751,36.9984)"
  />
  <path style="fill:#000000"
        d="M4.61 31.87C4.61 31.87 12.95 37.26 21 42.87C29.44 48.75 35.74 52.74 35.74 52.74L58.11 26.37C58.11 26.37 47.44 21.7 37.37 16.37C32.18 13.62 28 10.37 28 10.37L4.61 31.87z"
        transform="matrix(0.4129,0,0,0.3854,27.6575,38.1752)"
  />
  <path style="fill:#000000"
        d="M20.37 21.37C20.37 21.37 16.34 23.06 13.87 25.61C11.25 28.31 9.46 32.97 12.61 33.37C15.61 33.74 19.37 35.61 26.87 34C32.83 32.7 34.82 32.06 37 31.24C39.61 30.24 44.87 31.61 43.5 29.37C42.97 28.5 42.11 27.87 45.61 27.24C49.11 26.61 48.82 22.99 42 22.24C35.11 21.5 31.11 25 26.37 27C21.61 29 18.53 28.7 17.11 28.37C14 27.61 20.37 21.37 20.37 21.37z
           M40 33C37.87 33.11 37 35.11 40.5 35.61C44 36.11 42.11 32.87 40 33z
           M48.61 28.74C47.5 28.87 47.11 29.74 48.5 30.24C49.87 30.74 49.74 28.61 48.61 28.74z"
        transform="matrix(0.4129,0,0,0.3854,27.6575,38.1752)"
  />
  <path style="fill:#000000"
        d="M27 62L29 64L32.12 60.81L37 64L45.39 52.52L64 43L59 40L61 42L36 54L27 62z"
        transform="matrix(0.3996,0,0,0.3563,28.4751,34.5481)"
  />
  <path style="fill:none; stroke:#000000; stroke-width:4"
        d="M6.24 35C6.24 35 11.87 41 16.87 47.5C21.87 54 26.24 60.74 26.24 60.74L59.1 41.86L32 20L6.24 35z"
        transform="matrix(0.3996,0,0,0.3563,28.4751,34.5481)"
  />
  <path style="fill:#000000"
        d="M6.24 35C6.24 35 11.87 41 16.87 47.5C21.87 54 26.24 60.74 26.24 60.74L50.02 47.06L57.03 43.04L59.1 41.86L32 20L6.24 35z"
        transform="matrix(0.3996,0,0,0.3563,28.4751,34.5481)"
  />
  <path style="fill:#000000"
        d="M2.61 35.86C2.61 35.86 10.94 41.25 19 46.86C27.44 52.74 35.74 57.74 35.74 57.74L44.85 47L49.73 41.24L58.1 31.37C58.1 31.37 45.44 25.7 35.36 20.37C30.17 17.61 26 14.37 26 14.37L2.61 35.86z"
        transform="matrix(0.3996,0,0,0.3563,28.4751,34.5481)"
  />
  <path style="fill:none; stroke:#000000; stroke-width:1"
        d="M14 37L26.87 24
           M20 41L34.86 25.87"
        transform="matrix(0.3996,0,0,0.3563,28.4751,34.5481)"
  />
  <path style="fill:none; stroke:#000000; stroke-width:1"
        d="M17 39L28.11 27.61"
        transform="matrix(0.3996,0,0,0.3563,28.4751,34.5481)"
  />
  <path style="fill:none; stroke:#000000; stroke-width:4"
        d="M4.61 31.87C4.61 31.87 12.95 37.26 21 42.87C29.44 48.75 35.74 52.74 35.74 52.74L58.11 26.37C58.11 26.37 47.44 21.7 37.37 16.37C32.18 13.62 28 10.37 28 10.37L4.61 31.87z"
        transform="matrix(0.4129,0,0,0.3682,27.6575,35.6725)"
  />
  <path style="fill:#000000"
        d="M4.61 31.87C4.61 31.87 12.95 37.26 21 42.87C29.44 48.75 35.74 52.74 35.74 52.74L58.11 26.37C58.11 26.37 47.44 21.7 37.37 16.37C32.18 13.62 28 10.37 28 10.37L4.61 31.87z"
        transform="matrix(0.4129,0,0,0.3682,27.6575,35.6725)"
  />
  <path style="fill:#000000"
        d="M40 33C37.87 33.11 37 35.11 40.5 35.61C44 36.11 42.11 32.87 40 33z
           M48.61 28.74C47.5 28.87 47.11 29.74 48.5 30.24C49.87 30.74 49.74 28.61 48.61 28.74z
           M20.37 21.37C20.37 21.37 16.34 23.06 13.87 25.61C11.25 28.31 9.46 32.97 12.61 33.37C15.61 33.74 19.37 35.61 26.87 34C32.83 32.7 34.82 32.06 37 31.24C39.61 30.24 44.87 31.61 43.5 29.37C42.97 28.5 42.11 27.87 45.61 27.24C49.11 26.61 48.82 22.99 42 22.24C35.11 21.5 31.11 25 26.37 27C21.61 29 18.53 28.7 17.11 28.37C14 27.61 20.37 21.37 20.37 21.37z"
        transform="matrix(0.4129,0,0,0.3682,27.6575,35.6725)"
  />
  <path style="fill:#000000"
        d="M27 62L29 64L32.12 60.81L37 64L45.39 52.52L64 43L59 40L61 42L36 54L27 62z"
        transform="matrix(0.3996,0,0,0.3397,28.4751,32.0979)"
  />
  <path style="fill:none; stroke:#000000; stroke-width:4"
        d="M6.24 35C6.24 35 11.87 41 16.87 47.5C21.87 54 26.24 60.74 26.24 60.74L59.1 41.86L32 20L6.24 35z"
        transform="matrix(0.3996,0,0,0.3397,28.4751,32.0979)"
  />
  <path style="fill:#000000"
        d="M6.24 35C6.24 35 11.87 41 16.87 47.5C21.87 54 26.24 60.74 26.24 60.74L50.02 47.06L57.03 43.04L59.1 41.86L32 20L6.24 35z"
        transform="matrix(0.3996,0,0,0.3397,28.4751,32.0979)"
  />
  <path style="fill:#000000"
        d="M2.61 35.86C2.61 35.86 10.94 41.25 19 46.86C27.44 52.74 35.74 57.74 35.74 57.74L44.85 47L49.73 41.24L58.1 31.37C58.1 31.37 45.44 25.7 35.36 20.37C30.17 17.61 26 14.37 26 14.37L2.61 35.86z"
        transform="matrix(0.3996,0,0,0.3397,28.4751,32.0979)"
  />
  <path style="fill:none; stroke:#000000; stroke-width:1"
        d="M20 41L34.86 25.87
           M14 37L26.87 24"
        transform="matrix(0.3996,0,0,0.3397,28.4751,32.0979)"
  />
  <path style="fill:none; stroke:#000000; stroke-width:1"
        d="M17 39L28.11 27.61"
        transform="matrix(0.3996,0,0,0.3397,28.4751,32.0979)"
  />
  <path style="fill:#000000"
        d="M4.61 31.87C4.61 31.87 12.95 37.26 21 42.87C29.44 48.75 35.74 52.74 35.74 52.74L58.11 26.37C58.11 26.37 47.44 21.7 37.37 16.37C32.18 13.62 28 10.37 28 10.37L4.61 31.87z"
        transform="matrix(0.4129,0,0,0.351,27.6575,33.1698)"
  />
  <path style="fill:#000000"
        d="M20.37 21.37C20.37 21.37 16.34 23.06 13.87 25.61C11.25 28.31 9.46 32.97 12.61 33.37C15.61 33.74 19.37 35.61 26.87 34C32.83 32.7 34.82 32.06 37 31.24C39.61 30.24 44.87 31.61 43.5 29.37C42.97 28.5 42.11 27.87 45.61 27.24C49.11 26.61 48.82 22.99 42 22.24C35.11 21.5 31.11 25 26.37 27C21.61 29 18.53 28.7 17.11 28.37C14 27.61 20.37 21.37 20.37 21.37z
           M40 33.74C37.87 33.91 36.36 37.34 39.87 37.75C44.25 38.25 43.11 33.5 40 33.74z
           M48.61 28.74C47.49 28.74 44.62 31.75 48.61 32C50.05 32.23 51.62 28.75 48.61 28.74z"
        transform="matrix(0.4129,0,0,0.351,27.6575,33.1698)"
  />
  <path style="fill:none; stroke:#010101; stroke-width:4"
        d="M2.61 35.86C2.61 35.86 10.94 41.25 19 46.86C27.44 52.74 35.74 57.74 35.74 57.74L58.1 31.37C58.1 31.37 45.44 25.7 35.36 20.37C30.17 17.61 26 14.37 26 14.37L2.61 35.86z"
        transform="matrix(0.3789,0,0,0.3634,29.1105,40.2141)"
  />
  <linearGradient id="gradient8" gradientUnits="userSpaceOnUse" x1="97.97" y1="-27.92" x2="116.86" y2="24.11">
   <stop offset="0" stop-color="#babdff"/>
   <stop offset="0.1372" stop-color="#8f77ff"/>
   <stop offset="0.2117" stop-color="#b3b6ff"/>
  </linearGradient>
  <path style="fill:url(#gradient8)"
        d="M2.61 35.86C2.61 35.86 10.94 41.25 19 46.86C27.44 52.74 35.74 57.74 35.74 57.74L44.85 47L49.73 41.24L58.1 31.37C58.1 31.37 45.44 25.7 35.36 20.37C30.17 17.61 26 14.37 26 14.37L2.61 35.86z"
        transform="matrix(0.3789,0,0,0.3634,29.1105,40.2141)"
  />
  <linearGradient id="gradient9" gradientUnits="userSpaceOnUse" x1="-47.14" y1="-15.78" x2="-28.46" y2="-37.85">
   <stop offset="0" stop-color="#010101"/>
   <stop offset="1" stop-color="#9e9e9e"/>
  </linearGradient>
  <path style="fill:none; stroke:url(#gradient9); stroke-width:1"
        d="M14 37L26.87 24
           M20 41L34.86 25.87"
        transform="matrix(0.3789,0,0,0.3634,29.1105,40.2141)"
  />
  <linearGradient id="gradient10" gradientUnits="userSpaceOnUse" x1="-47.14" y1="-15.78" x2="-28.46" y2="-37.85">
   <stop offset="0" stop-color="#010101"/>
   <stop offset="1" stop-color="#9e9e9e"/>
  </linearGradient>
  <path style="fill:none; stroke:url(#gradient10); stroke-width:1"
        d="M17 39L28.11 27.61"
        transform="matrix(0.3789,0,0,0.3634,29.1105,40.2141)"
  />
  <path style="fill:none; stroke:#010101; stroke-width:4"
        d="M4.61 31.87C4.61 31.87 12.95 37.26 21 42.87C29.44 48.75 35.74 52.74 35.74 52.74L58.11 26.37C58.11 26.37 47.44 21.7 37.37 16.37C32.18 13.62 28 10.37 28 10.37L4.61 31.87z"
        transform="matrix(0.3916,0,0,0.3755,28.3353,41.3608)"
  />
  <linearGradient id="gradient11" gradientUnits="userSpaceOnUse" x1="105.45" y1="-23.42" x2="119.92" y2="34.32">
   <stop offset="0" stop-color="#a5b1ff"/>
   <stop offset="0.7372" stop-color="#eaf1ff"/>
   <stop offset="1" stop-color="#b3b8ff"/>
  </linearGradient>
  <path style="fill:url(#gradient11)"
        d="M4.61 31.87C4.61 31.87 12.95 37.26 21 42.87C29.44 48.75 35.74 52.74 35.74 52.74L58.11 26.37C58.11 26.37 47.44 21.7 37.37 16.37C32.18 13.62 28 10.37 28 10.37L4.61 31.87z"
        transform="matrix(0.3916,0,0,0.3755,28.3353,41.3608)"
  />
  <linearGradient id="gradient12" gradientUnits="userSpaceOnUse" x1="-62.14" y1="43.08" x2="-58.5" y2="14.4">
   <stop offset="0" stop-color="#c70585"/>
   <stop offset="0.9607" stop-color="#ee068f"/>
  </linearGradient>
  <path style="fill:url(#gradient12)"
        d="M20.37 21.37C20.37 21.37 16.34 23.06 13.87 25.61C11.25 28.31 9.46 32.97 12.61 33.37C15.61 33.74 19.37 35.61 26.87 34C32.83 32.7 34.82 32.06 37 31.24C39.61 30.24 44.87 31.61 43.5 29.37C42.97 28.5 42.11 27.87 45.61 27.24C49.11 26.61 48.82 22.99 42 22.24C35.11 21.5 31.11 25 26.37 27C21.61 29 18.53 28.7 17.11 28.37C14 27.61 20.37 21.37 20.37 21.37z
           M40 33C37.87 33.11 37 35.11 40.5 35.61C44 36.11 42.11 32.87 40 33z
           M48.61 28.74C47.5 28.87 47.11 29.74 48.5 30.24C49.87 30.74 49.74 28.61 48.61 28.74z"
        transform="matrix(0.3916,0,0,0.3755,28.3353,41.3608)"
  />
  <path style="fill:#010101; fill-opacity:0.4274"
        d="M27 62L29 64L32.12 60.81L37 64L45.39 52.52L64 43L59 40L61 42L36 54L27 62z"
        transform="matrix(0.3789,0,0,0.3479,29.1105,37.9284)"
  />
  <path style="fill:none; stroke:#010101; stroke-width:4"
        d="M6.24 35C6.24 35 11.87 41 16.87 47.5C21.87 54 26.24 60.74 26.24 60.74L59.1 41.86L32 20L6.24 35z"
        transform="matrix(0.3789,0,0,0.3479,29.1105,37.9284)"
  />
  <linearGradient id="gradient13" gradientUnits="userSpaceOnUse" x1="97.97" y1="-27.92" x2="116.86" y2="24.11">
   <stop offset="0" stop-color="#babdff"/>
   <stop offset="0.1372" stop-color="#8f77ff"/>
   <stop offset="0.2117" stop-color="#b3b6ff"/>
  </linearGradient>
  <path style="fill:url(#gradient13)"
        d="M6.24 35C6.24 35 11.87 41 16.87 47.5C21.87 54 26.24 60.74 26.24 60.74L50.02 47.06L57.03 43.04L59.1 41.86L32 20L6.24 35z"
        transform="matrix(0.3789,0,0,0.3479,29.1105,37.9284)"
  />
  <path style="fill:none; stroke:#010101; stroke-width:4"
        d="M2.61 35.86C2.61 35.86 10.94 41.25 19 46.86C27.44 52.74 35.74 57.74 35.74 57.74L58.1 31.37C58.1 31.37 45.44 25.7 35.36 20.37C30.17 17.61 26 14.37 26 14.37L2.61 35.86z"
        transform="matrix(0.3789,0,0,0.3479,29.1105,37.9284)"
  />
  <linearGradient id="gradient14" gradientUnits="userSpaceOnUse" x1="97.97" y1="-27.92" x2="116.86" y2="24.11">
   <stop offset="0" stop-color="#babdff"/>
   <stop offset="0.1372" stop-color="#8f77ff"/>
   <stop offset="0.2117" stop-color="#b3b6ff"/>
  </linearGradient>
  <path style="fill:url(#gradient14)"
        d="M2.61 35.86C2.61 35.86 10.94 41.25 19 46.86C27.44 52.74 35.74 57.74 35.74 57.74L44.85 47L49.73 41.24L58.1 31.37C58.1 31.37 45.44 25.7 35.36 20.37C30.17 17.61 26 14.37 26 14.37L2.61 35.86z"
        transform="matrix(0.3789,0,0,0.3479,29.1105,37.9284)"
  />
  <linearGradient id="gradient15" gradientUnits="userSpaceOnUse" x1="-47.14" y1="-15.78" x2="-28.46" y2="-37.85">
   <stop offset="0" stop-color="#010101"/>
   <stop offset="1" stop-color="#9e9e9e"/>
  </linearGradient>
  <path style="fill:none; stroke:url(#gradient15); stroke-width:1"
        d="M20 41L34.86 25.87
           M14 37L26.87 24"
        transform="matrix(0.3789,0,0,0.3479,29.1105,37.9284)"
  />
  <linearGradient id="gradient16" gradientUnits="userSpaceOnUse" x1="-47.14" y1="-15.78" x2="-28.46" y2="-37.85">
   <stop offset="0" stop-color="#010101"/>
   <stop offset="1" stop-color="#9e9e9e"/>
  </linearGradient>
  <path style="fill:none; stroke:url(#gradient16); stroke-width:1"
        d="M17 39L28.11 27.61"
        transform="matrix(0.3789,0,0,0.3479,29.1105,37.9284)"
  />
  <path style="fill:none; stroke:#010101; stroke-width:4"
        d="M4.61 31.87C4.61 31.87 12.95 37.26 21 42.87C29.44 48.75 35.74 52.74 35.74 52.74L58.11 26.37C58.11 26.37 47.44 21.7 37.37 16.37C32.18 13.62 28 10.37 28 10.37L4.61 31.87z"
        transform="matrix(0.3916,0,0,0.3595,28.3353,39.0262)"
  />
  <linearGradient id="gradient17" gradientUnits="userSpaceOnUse" x1="105.45" y1="-23.42" x2="119.92" y2="34.32">
   <stop offset="0" stop-color="#a5b1ff"/>
   <stop offset="0.7372" stop-color="#eaf1ff"/>
   <stop offset="1" stop-color="#b3b8ff"/>
  </linearGradient>
  <path style="fill:url(#gradient17)"
        d="M4.61 31.87C4.61 31.87 12.95 37.26 21 42.87C29.44 48.75 35.74 52.74 35.74 52.74L58.11 26.37C58.11 26.37 47.44 21.7 37.37 16.37C32.18 13.62 28 10.37 28 10.37L4.61 31.87z"
        transform="matrix(0.3916,0,0,0.3595,28.3353,39.0262)"
  />
  <linearGradient id="gradient18" gradientUnits="userSpaceOnUse" x1="-62.14" y1="43.08" x2="-58.5" y2="14.4">
   <stop offset="0" stop-color="#c70585"/>
   <stop offset="0.9607" stop-color="#ee068f"/>
  </linearGradient>
  <path style="fill:url(#gradient18)"
        d="M20.37 21.37C20.37 21.37 16.34 23.06 13.87 25.61C11.25 28.31 9.46 32.97 12.61 33.37C15.61 33.74 19.37 35.61 26.87 34C32.83 32.7 34.82 32.06 37 31.24C39.61 30.24 44.87 31.61 43.5 29.37C42.97 28.5 42.11 27.87 45.61 27.24C49.11 26.61 48.82 22.99 42 22.24C35.11 21.5 31.11 25 26.37 27C21.61 29 18.53 28.7 17.11 28.37C14 27.61 20.37 21.37 20.37 21.37z
           M40 33C37.87 33.11 37 35.11 40.5 35.61C44 36.11 42.11 32.87 40 33z
           M48.61 28.74C47.5 28.87 47.11 29.74 48.5 30.24C49.87 30.74 49.74 28.61 48.61 28.74z"
        transform="matrix(0.3916,0,0,0.3595,28.3353,39.0262)"
  />
  <path style="fill:#010101; fill-opacity:0.4274"
        d="M27 62L29 64L32.12 60.81L37 64L45.39 52.52L64 43L59 40L61 42L36 54L27 62z"
        transform="matrix(0.3789,0,0,0.3324,29.1105,35.6428)"
  />
  <path style="fill:none; stroke:#010101; stroke-width:4"
        d="M6.24 35C6.24 35 11.87 41 16.87 47.5C21.87 54 26.24 60.74 26.24 60.74L59.1 41.86L32 20L6.24 35z"
        transform="matrix(0.3789,0,0,0.3324,29.1105,35.6428)"
  />
  <linearGradient id="gradient19" gradientUnits="userSpaceOnUse" x1="97.97" y1="-27.92" x2="116.86" y2="24.11">
   <stop offset="0" stop-color="#babdff"/>
   <stop offset="0.1372" stop-color="#8f77ff"/>
   <stop offset="0.2117" stop-color="#b3b6ff"/>
  </linearGradient>
  <path style="fill:url(#gradient19)"
        d="M6.24 35C6.24 35 11.87 41 16.87 47.5C21.87 54 26.24 60.74 26.24 60.74L50.02 47.06L57.03 43.04L59.1 41.86L32 20L6.24 35z"
        transform="matrix(0.3789,0,0,0.3324,29.1105,35.6428)"
  />
  <path style="fill:none; stroke:#010101; stroke-width:4"
        d="M2.61 35.86C2.61 35.86 10.94 41.25 19 46.86C27.44 52.74 35.74 57.74 35.74 57.74L58.1 31.37C58.1 31.37 45.44 25.7 35.36 20.37C30.17 17.61 26 14.37 26 14.37L2.61 35.86z"
        transform="matrix(0.3789,0,0,0.3324,29.1105,35.6428)"
  />
  <linearGradient id="gradient20" gradientUnits="userSpaceOnUse" x1="97.97" y1="-27.92" x2="116.86" y2="24.11">
   <stop offset="0" stop-color="#babdff"/>
   <stop offset="0.1372" stop-color="#8f77ff"/>
   <stop offset="0.2117" stop-color="#b3b6ff"/>
  </linearGradient>
  <path style="fill:url(#gradient20)"
        d="M2.61 35.86C2.61 35.86 10.94 41.25 19 46.86C27.44 52.74 35.74 57.74 35.74 57.74L44.85 47L49.73 41.24L58.1 31.37C58.1 31.37 45.44 25.7 35.36 20.37C30.17 17.61 26 14.37 26 14.37L2.61 35.86z"
        transform="matrix(0.3789,0,0,0.3324,29.1105,35.6428)"
  />
  <linearGradient id="gradient21" gradientUnits="userSpaceOnUse" x1="-47.14" y1="-15.78" x2="-28.46" y2="-37.85">
   <stop offset="0" stop-color="#010101"/>
   <stop offset="1" stop-color="#9e9e9e"/>
  </linearGradient>
  <path style="fill:none; stroke:url(#gradient21); stroke-width:1"
        d="M20 41L34.86 25.87
           M14 37L26.87 24"
        transform="matrix(0.3789,0,0,0.3324,29.1105,35.6428)"
  />
  <linearGradient id="gradient22" gradientUnits="userSpaceOnUse" x1="-47.14" y1="-15.78" x2="-28.46" y2="-37.85">
   <stop offset="0" stop-color="#010101"/>
   <stop offset="1" stop-color="#9e9e9e"/>
  </linearGradient>
  <path style="fill:none; stroke:url(#gradient22); stroke-width:1"
        d="M17 39L28.11 27.61"
        transform="matrix(0.3789,0,0,0.3324,29.1105,35.6428)"
  />
  <path style="fill:none; stroke:#010101; stroke-width:4"
        d="M4.61 31.87C4.61 31.87 12.95 37.26 21 42.87C29.44 48.75 35.74 52.74 35.74 52.74L58.11 26.37C58.11 26.37 47.44 21.7 37.37 16.37C32.18 13.62 28 10.37 28 10.37L4.61 31.87z"
        transform="matrix(0.3916,0,0,0.3435,28.3353,36.6916)"
  />
  <linearGradient id="gradient23" gradientUnits="userSpaceOnUse" x1="105.45" y1="-23.42" x2="119.92" y2="34.32">
   <stop offset="0" stop-color="#a5b1ff"/>
   <stop offset="0.7372" stop-color="#eaf1ff"/>
   <stop offset="1" stop-color="#b3b8ff"/>
  </linearGradient>
  <path style="fill:url(#gradient23)"
        d="M4.61 31.87C4.61 31.87 12.95 37.26 21 42.87C29.44 48.75 35.74 52.74 35.74 52.74L58.11 26.37C58.11 26.37 47.44 21.7 37.37 16.37C32.18 13.62 28 10.37 28 10.37L4.61 31.87z"
        transform="matrix(0.3916,0,0,0.3435,28.3353,36.6916)"
  />
  <linearGradient id="gradient24" gradientUnits="userSpaceOnUse" x1="-62.14" y1="43.08" x2="-58.5" y2="14.4">
   <stop offset="0" stop-color="#c70585"/>
   <stop offset="0.9607" stop-color="#ee068f"/>
  </linearGradient>
  <path style="fill:url(#gradient24)"
        d="M20.37 21.37C20.37 21.37 16.34 23.06 13.87 25.61C11.25 28.31 9.46 32.97 12.61 33.37C15.61 33.74 19.37 35.61 26.87 34C32.83 32.7 34.82 32.06 37 31.24C39.61 30.24 44.87 31.61 43.5 29.37C42.97 28.5 42.11 27.87 45.61 27.24C49.11 26.61 48.82 22.99 42 22.24C35.11 21.5 31.11 25 26.37 27C21.61 29 18.53 28.7 17.11 28.37C14 27.61 20.37 21.37 20.37 21.37z
           M40 33C37.87 33.11 37 35.11 40.5 35.61C44 36.11 42.11 32.87 40 33z
           M48.61 28.74C47.5 28.87 47.11 29.74 48.5 30.24C49.87 30.74 49.74 28.61 48.61 28.74z"
        transform="matrix(0.3916,0,0,0.3435,28.3353,36.6916)"
  />
  <path style="fill:#010101; fill-opacity:0.4274"
        d="M27 62L29 64L32.12 60.81L37 64L45.39 52.52L64 43L59 40L61 42L36 54L27 62z"
        transform="matrix(0.3789,0,0,0.3169,29.1105,33.3571)"
  />
  <path style="fill:none; stroke:#010101; stroke-width:4"
        d="M6.24 35C6.24 35 11.87 41 16.87 47.5C21.87 54 26.24 60.74 26.24 60.74L59.1 41.86L32 20L6.24 35z"
        transform="matrix(0.3789,0,0,0.3169,29.1105,33.3571)"
  />
  <linearGradient id="gradient25" gradientUnits="userSpaceOnUse" x1="97.97" y1="-27.92" x2="116.86" y2="24.11">
   <stop offset="0" stop-color="#babdff"/>
   <stop offset="0.1372" stop-color="#8f77ff"/>
   <stop offset="0.2117" stop-color="#b3b6ff"/>
  </linearGradient>
  <path style="fill:url(#gradient25)"
        d="M6.24 35C6.24 35 11.87 41 16.87 47.5C21.87 54 26.24 60.74 26.24 60.74L50.02 47.06L57.03 43.04L59.1 41.86L32 20L6.24 35z"
        transform="matrix(0.3789,0,0,0.3169,29.1105,33.3571)"
  />
  <path style="fill:none; stroke:#010101; stroke-width:4"
        d="M2.61 35.86C2.61 35.86 10.94 41.25 19 46.86C27.44 52.74 35.74 57.74 35.74 57.74L58.1 31.37C58.1 31.37 45.44 25.7 35.36 20.37C30.17 17.61 26 14.37 26 14.37L2.61 35.86z"
        transform="matrix(0.3789,0,0,0.3169,29.1105,33.3571)"
  />
  <linearGradient id="gradient26" gradientUnits="userSpaceOnUse" x1="97.97" y1="-27.92" x2="116.86" y2="24.11">
   <stop offset="0" stop-color="#babdff"/>
   <stop offset="0.1372" stop-color="#8f77ff"/>
   <stop offset="0.2117" stop-color="#b3b6ff"/>
  </linearGradient>
  <path style="fill:url(#gradient26)"
        d="M2.61 35.86C2.61 35.86 10.94 41.25 19 46.86C27.44 52.74 35.74 57.74 35.74 57.74L44.85 47L49.73 41.24L58.1 31.37C58.1 31.37 45.44 25.7 35.36 20.37C30.17 17.61 26 14.37 26 14.37L2.61 35.86z"
        transform="matrix(0.3789,0,0,0.3169,29.1105,33.3571)"
  />
  <linearGradient id="gradient27" gradientUnits="userSpaceOnUse" x1="-47.14" y1="-15.78" x2="-28.46" y2="-37.85">
   <stop offset="0" stop-color="#010101"/>
   <stop offset="1" stop-color="#9e9e9e"/>
  </linearGradient>
  <path style="fill:none; stroke:url(#gradient27); stroke-width:1"
        d="M20 41L34.86 25.87
           M14 37L26.87 24"
        transform="matrix(0.3789,0,0,0.3169,29.1105,33.3571)"
  />
  <linearGradient id="gradient28" gradientUnits="userSpaceOnUse" x1="-47.14" y1="-15.78" x2="-28.46" y2="-37.85">
   <stop offset="0" stop-color="#010101"/>
   <stop offset="1" stop-color="#9e9e9e"/>
  </linearGradient>
  <path style="fill:none; stroke:url(#gradient28); stroke-width:1"
        d="M17 39L28.11 27.61"
        transform="matrix(0.3789,0,0,0.3169,29.1105,33.3571)"
  />
  <path style="fill:none; stroke:#010101; stroke-width:4"
        d="M4.61 31.87C4.61 31.87 12.95 37.26 21 42.87C29.44 48.75 35.74 52.74 35.74 52.74L58.11 26.37C58.11 26.37 47.44 21.7 37.37 16.37C32.18 13.62 28 10.37 28 10.37L4.61 31.87z"
        transform="matrix(0.3916,0,0,0.3274,28.3353,34.357)"
  />
  <linearGradient id="gradient29" gradientUnits="userSpaceOnUse" x1="105.45" y1="-23.42" x2="119.92" y2="34.32">
   <stop offset="0" stop-color="#a5b1ff"/>
   <stop offset="0.7372" stop-color="#eaf1ff"/>
   <stop offset="1" stop-color="#b3b8ff"/>
  </linearGradient>
  <path style="fill:url(#gradient29)"
        d="M4.61 31.87C4.61 31.87 12.95 37.26 21 42.87C29.44 48.75 35.74 52.74 35.74 52.74L58.11 26.37C58.11 26.37 47.44 21.7 37.37 16.37C32.18 13.62 28 10.37 28 10.37L4.61 31.87z"
        transform="matrix(0.3916,0,0,0.3274,28.3353,34.357)"
  />
  <linearGradient id="gradient30" gradientUnits="userSpaceOnUse" x1="-62.14" y1="43.08" x2="-58.5" y2="14.4">
   <stop offset="0" stop-color="#c70585"/>
   <stop offset="0.9607" stop-color="#ee068f"/>
  </linearGradient>
  <path style="fill:url(#gradient30)"
        d="M20.37 21.37C20.37 21.37 16.34 23.06 13.87 25.61C11.25 28.31 9.46 32.97 12.61 33.37C15.61 33.74 19.37 35.61 26.87 34C32.83 32.7 34.82 32.06 37 31.24C39.61 30.24 44.87 31.61 43.5 29.37C42.97 28.5 42.11 27.87 45.61 27.24C49.11 26.61 48.82 22.99 42 22.24C35.11 21.5 31.11 25 26.37 27C21.61 29 18.53 28.7 17.11 28.37C14 27.61 20.37 21.37 20.37 21.37z
           M48.61 28.74C47.49 28.74 44.62 31.75 48.61 32C50.05 32.23 51.62 28.75 48.61 28.74z
           M40 33.74C37.87 33.91 36.36 37.34 39.87 37.75C44.25 38.25 43.11 33.5 40 33.74z"
        transform="matrix(0.3916,0,0,0.3274,28.3353,34.357)"
  />
  <path style="fill:#000000; fill-opacity:0.4156"
        d="M45.5 19.5L57.5 9.37L57.25 20.25L45.5 32.37"
        transform="matrix(0.8196,0,0,0.8196,4.8015,35.9377)"
  />
  <path style="fill:#000000; fill-opacity:0.4196"
        d="M5.87 23.87L11 47.75V51.5L12.75 53.12L13.12 55.87L2.87 55.75L5.87 52.12V23.87z"
  />
  <linearGradient id="gradient31" gradientUnits="userSpaceOnUse" x1="-64" y1="-64" x2="64" y2="-64">
   <stop offset="0.9406" stop-color="#925702"/>
   <stop offset="1" stop-color="#854f03"/>
  </linearGradient>
  <path style="fill:url(#gradient31)"
        d="M46.5 14.62L49 13.25V24.37L46.5 14.62z"
  />
 </g>
</svg>
