<?xml version="1.0" encoding="UTF-8" standalone="yes"?>
<svg version="1.1" width="64" height="64" color-interpolation="linearRGB"
     xmlns:svg="http://www.w3.org/2000/svg" xmlns="http://www.w3.org/2000/svg">
 <g>
  <path style="fill:#000000; fill-opacity:0.4078"
        d="M38.87 11.25C38.87 11.25 44 10.87 46.25 11.87C47.99 12.64 49.25 17.87 49.25 17.87L38.87 11.25z"
        transform="matrix(1,0,0,1,1.375,-1)"
  />
  <path style="fill:none; stroke:#000000; stroke-opacity:0.4078; stroke-width:3"
        d="M8.75 37.5C8.75 37.5 13.79 31 19.25 26.37C25.87 20.75 31.62 16.25 31.62 16.25L34.87 14C34.87 14 38 13.11 40.87 13.37C42.25 13.5 43.62 14.12 45.5 15.62C47.37 17.12 47.37 18.75 47.87 19.87C48.38 21.01 47.87 26.62 47.87 26.62C47.87 26.62 48.75 29.12 48 29.87C47.25 30.62 21.12 55.87 21.12 55.87C21.12 55.87 19.12 56.5 16.62 56.75C14.01 57.01 13 57.12 10.62 56.5C8.61 55.97 8 55.25 7 53.37C6 51.5 5.62 49.87 5.87 49.37C6.12 48.87 5.62 41.62 5.62 41.62C5.62 41.62 5.37 40.12 6.25 39.12C7.12 38.12 8.75 37.5 8.75 37.5z"
        transform="matrix(0.9725,0,0,0.9986,4.1308,0.798)"
  />
  <path style="fill:none; stroke:#000000; stroke-width:3"
        d="M8.12 37.25C8.12 37.25 13.79 31 19.25 26.37C25.87 20.75 31.37 16.12 31.37 16.12L34.87 14C34.87 14 38.5 12.86 41.37 13.12C42.75 13.25 45.75 14.87 47 16.5C48.13 17.97 47.87 18.75 47.87 19.87C47.87 21.12 47.87 26.62 47.87 26.62C47.87 26.62 48.75 29.12 48 29.87C47.25 30.62 21.12 55.87 21.12 55.87C21.12 55.87 19.12 56.5 16.62 56.75C14.01 57.01 13 57.12 10.62 56.5C8.61 55.97 8 55.25 7 53.37C6 51.5 5.62 49.87 5.87 49.37C6.12 48.87 5.62 41.62 5.62 41.62C5.62 41.62 6.12 40.25 7 39.25C7.87 38.25 8.12 37.25 8.12 37.25z"
        transform="matrix(0.9986,0,0,1.0254,1.7741,-1.8935)"
  />
  <path style="fill:#000000; fill-opacity:0.4078"
        d="M6.12 48.62L3 33.62C3 33.62 2.5 30.37 2.5 28.87C2.5 27.25 2 25.87 2.37 23.75C2.69 21.92 3.25 20.75 3.25 20.75C3.25 20.75 4.87 22 5.62 22.87C6.17 23.51 7.25 24.5 7.87 25.87C8.44 27.13 10.12 33.37 10.12 33.37"
        transform="matrix(0.9745,0,0,0.9745,1.5061,-1.4936)"
  />
  <path style="fill:none; stroke:#000000; stroke-width:4"
        d="M6.12 48.62L3 33.62C3 33.62 2.5 30.37 2.5 28.87C2.5 27.25 2 25.87 2.37 23.75C2.69 21.92 3.25 20.75 3.25 20.75C3.25 20.75 4.87 22 5.62 22.87C6.17 23.51 7.25 24.5 7.87 25.87C8.44 27.13 10.5 34.87 10.5 34.87L12.37 32.12"
        transform="matrix(0.9745,0,0,0.9745,1.3811,0.3813)"
  />
  <linearGradient id="gradient0" gradientUnits="userSpaceOnUse" x1="-32.26" y1="-25.27" x2="36.62" y2="-37.71">
   <stop offset="0.3518" stop-color="#e2e2e8"/>
   <stop offset="0.4025" stop-color="#b9b9c4"/>
  </linearGradient>
  <path style="fill:url(#gradient0)"
        d="M5.62 49.37L1.25 28.5C1.25 28.5 1.25 26.12 1.37 24.62C1.57 22.25 2.25 20.75 2.25 20.75C2.25 20.75 2.93 21.05 4.87 23C6 24.12 7.5 27.87 7.5 27.87L9 34.12"
        transform="matrix(0.9745,0,0,0.9745,2.3557,0.2595)"
  />
  <path style="fill:#000000; fill-opacity:0.4078"
        d="M41.62 12.62L12.37 4L8 2.87C8 2.87 6.75 2.87 5.25 3.5C3.75 4.12 3 4.87 3 4.87L4 5.75L9.5 8.87L16.37 11L27.37 15"
        transform="matrix(0.9745,0,0,0.9745,0.0517,3.698)"
  />
  <path style="fill:none; stroke:#000000; stroke-width:5"
        d="M41.62 12.62L12.37 4L8 2.87C8 2.87 6.37 2.5 4.87 3.12C3.37 3.75 2.37 4.62 2.37 4.62L4 5.75L9.5 8.87L16.37 11L27.37 15L28.87 15.5"
        transform="matrix(0.9745,0,0,0.9745,2.3557,0.2595)"
  />
  <linearGradient id="gradient1" gradientUnits="userSpaceOnUse" x1="-40.08" y1="-99.96" x2="94.02" y2="-55.27">
   <stop offset="0.5023" stop-color="#f4f4fa"/>
   <stop offset="0.5863" stop-color="#d5d5dc"/>
   <stop offset="0.6386" stop-color="#c0c0ca"/>
   <stop offset="0.6862" stop-color="#d8d8de"/>
   <stop offset="0.7844" stop-color="#787883"/>
  </linearGradient>
  <path style="fill:url(#gradient1)"
        d="M36.75 10.62L10.5 2.75C10.5 2.75 7.12 1.5 4.62 2.12C0.81 3.07 1.37 3.62 1.37 3.62C1.37 3.62 3.14 5.57 5.25 6.62C11 9.5 27.75 14.87 27.75 14.87C27.75 14.87 33.5 13 35.37 12.5C38.43 11.68 36.75 10.62 36.75 10.62z"
        transform="matrix(1.0996,0,0,1.0626,2.2307,0.6444)"
  />
  <path style="fill:#000000; fill-opacity:0.4078"
        d="M49.37 17.87L60.25 34.5C60.25 34.5 61 36.87 61.12 38.75C61.25 40.65 61.37 41.62 60 42.87C59.33 43.48 58.25 43.5 56.87 43.12C54.94 42.59 52.89 41.63 52 41.25C51.12 40.87 51.62 40.12 51.5 39.5C51.37 38.87 54.75 37.5 54.75 37.5L52.62 32.5C52.62 32.5 52.5 31.75 51.12 31.37C49.75 31 49.87 31.37 49.87 31.62C49.87 31.87 49.5 32.5 49.37 33.5C49.25 34.5 48.87 34.37 49.62 35.12C50.37 35.87 49.12 36.25 49.12 36.25C49.12 36.25 48.5 36.62 48 36C47.5 35.37 47 34.12 46.5 33.37
           M49.37 17.87L59.37 34.87C59.37 34.87 60.25 37.12 60.37 39C60.5 40.9 61.37 41.62 60 42.87C59.33 43.48 58.25 43.5 56.87 43.12C54.94 42.59 52.89 41.63 52 41.25C51.12 40.87 51.62 40.12 51.5 39.5C51.37 38.87 54.75 37.5 54.75 37.5L52.62 32.5C52.62 32.5 52.5 31.75 51.12 31.37C49.75 31 49.87 31.37 49.87 31.62C49.87 31.87 49.5 32.5 49.37 33.5C49.25 34.5 48.87 34.37 49.62 35.12C50.37 35.87 49.12 36.25 49.12 36.25C49.12 36.25 48.5 36.62 48 36C47.5 35.37 47 34.12 46.5 33.37"
        transform="matrix(1.0415,0,0,0.9832,-1.0923,3.236)"
  />
  <path style="fill:none; stroke:#000000; stroke-width:3"
        d="M49.37 17.87L59.37 34.87C59.37 34.87 60.25 37.12 60.37 39C60.5 40.9 61.37 41.62 60 42.87C59.33 43.48 58.25 43.5 56.87 43.12C54.94 42.59 52.89 41.63 52 41.25C51.12 40.87 51.62 40.12 51.5 39.5C51.37 38.87 54.75 37.5 54.75 37.5L52.62 32.5C52.62 32.5 52.5 31.75 51.12 31.37C49.75 31 49.87 31.37 49.87 31.62C49.87 31.87 49.5 32.5 49.37 33.5C49.25 34.5 48.87 34.37 49.62 35.12C50.37 35.87 49.12 36.25 49.12 36.25C49.12 36.25 48.5 36.62 48 36C47.5 35.37 47 34.12 46.5 33.37"
        transform="matrix(0.989,0,0,0.9832,0.7259,0.236)"
  />
  <linearGradient id="gradient2" gradientUnits="userSpaceOnUse" x1="-64" y1="-64" x2="64" y2="-64">
   <stop offset="0.6196" stop-color="#c61515"/>
   <stop offset="0.6465" stop-color="#a80000"/>
  </linearGradient>
  <path style="fill:url(#gradient2)"
        d="M10.75 38.5L34.75 15C34.75 15 41.75 8.12 48.87 11.87C56.33 15.79 52 23 52 23L28 48.62C28 48.62 21.92 54.36 14.12 51.5C6.62 48.75 10.75 38.5 10.75 38.5z"
        transform="matrix(0.9288,0,0,0.8995,-0.5981,9.1033)"
  />
  <linearGradient id="gradient3" gradientUnits="userSpaceOnUse" x1="-64" y1="-64" x2="64" y2="-64">
   <stop offset="0.5956" stop-color="#cdcdcd"/>
   <stop offset="0.6532" stop-color="#a4a4a4"/>
  </linearGradient>
  <path style="fill:url(#gradient3)"
        d="M48.12 14.12L48.25 18.37C48.25 18.37 30.99 37.72 21.75 44.25C19.62 45.75 16.62 45 14.12 44.37C12.16 43.88 12.54 43.03 11.25 41.87C10 40.75 10.25 36.87 10.25 36.87C10.25 36.87 10.5 38.25 12.37 39.25C14.25 40.25 14.11 40.96 17.5 40.87C18.62 40.84 19.68 40.74 21.12 40.25C26.62 38.37 48.12 14.12 48.12 14.12z"
        transform="matrix(1.0639,0,0,1.0639,-2.4257,6.578)"
  />
  <linearGradient id="gradient4" gradientUnits="userSpaceOnUse" x1="57.17" y1="-2.27" x2="65.38" y2="-0.22">
   <stop offset="0" stop-color="#e2e2e8"/>
   <stop offset="0.2297" stop-color="#c3c3d1"/>
   <stop offset="0.3866" stop-color="#b1b1bd"/>
   <stop offset="0.5546" stop-color="#ceced4"/>
   <stop offset="0.889" stop-color="#e7e7ed"/>
  </linearGradient>
  <path style="fill:url(#gradient4)"
        d="M49.12 16.12L60.25 41.37C60.25 41.37 60.62 42.87 60.75 45C60.84 46.54 60.86 48.15 60.12 49C59.25 50 56.64 49.14 54.62 47.12C53.37 45.87 51.75 45.87 52 44.87C52.25 43.87 56.37 41.87 56.37 41.87L53.37 34.87C53.37 34.87 52.62 33.87 51.12 34.5C49.77 35.06 50.37 36.5 50.37 37.5C50.37 38.5 50.25 39.5 50.25 39.5L49.75 40.5C49.75 40.5 48.72 40.16 48 37.87C47.12 35.12 46.5 34.07 46 32.25C45.37 30 45.5 29.25 45.5 29.25C45.5 29.25 47 27.75 47.75 26.75C48.12 26.25 48.87 22.75 49.25 21.25C49.58 19.91 49.12 16.12 49.12 16.12z"
        transform="matrix(1.0095,0,0,0.7734,-1.3278,4.2322)"
  />
  <path style="fill:#000000; fill-opacity:0.5215"
        d="M47 16.87C47 16.87 48.11 17.75 48.25 19.37C48.37 20.87 48.16 22.03 47.87 23C47.12 25.5 45.25 27.75 45.25 27.75C45.25 27.75 42.96 29.78 42.25 30.5C41.37 31.37 41.62 27.12 41.62 27.12C41.62 27.12 40.87 31.5 45.62 23.62C46.27 22.55 47 16.87 47 16.87z"
        transform="matrix(0.9326,0,0,0.9326,5.3786,0.3868)"
  />
  <linearGradient id="gradient5" gradientUnits="userSpaceOnUse" x1="-64" y1="-64" x2="64" y2="-64">
   <stop offset="0.2694" stop-color="#e2131d"/>
   <stop offset="1" stop-color="#a10404"/>
  </linearGradient>
  <path style="fill:url(#gradient5)"
        d="M10.75 38.5L34.75 15C34.75 15 43.26 7.29 49 11C56.75 16 52 23 52 23L27.25 48.5C27.25 48.5 22.12 54.37 14.37 51.37C5.88 48.08 10.75 38.5 10.75 38.5z"
        transform="matrix(0.9288,0,0,0.8995,-0.5981,2.5869)"
  />
  <path style="fill:none; stroke:#e6e6e6; stroke-width:2"
        d="M38 19.5L33 25"
        transform="matrix(1.0699,0.0595,-0.0595,1.0699,-0.6254,-3.9513)"
  />
  <path style="fill:none; stroke:#e6e6e6; stroke-width:2"
        d="M32.12 20L39.5 24.62"
        transform="matrix(0.973,0.0541,-0.0541,0.973,2.6407,-1.534)"
  />
  <path style="fill:#7c7c82"
        d="M19.75 6.5L29.5 9.37C29.5 9.37 26.62 9.75 24.5 9.25C22.72 8.83 19.75 6.5 19.75 6.5z"
        transform="matrix(0.9745,0,0,0.9745,-7.9991,-2.4205)"
  />
  <path style="fill:#636369"
        d="M3.87 29.37L5 39C5 39 5.88 36.62 5.75 34.5C5.62 32.5 3.87 29.37 3.87 29.37z"
        transform="matrix(0.9723,-0.0573,0.0663,0.8414,-0.8987,4.1508)"
  />
  <path style="fill:#424248"
        d="M54.37 29.37L57.37 35C57.37 35 55.84 34.2 55.12 32.87C54.37 31.5 54.37 29.37 54.37 29.37z"
        transform="matrix(0.9745,0,0,0.9745,1.3811,0.3813)"
  />
  <path style="fill:#000000; fill-opacity:0.4078"
        d="M25 56.5L56 62.62C56 62.62 58.37 62 59.62 61.25C60.64 60.63 63 57 63 57L58 56.25L55.75 59.75L54.75 57.25L52 58.62L50.75 56.12L48.37 57.5L46.87 55L44.37 56.5L43.25 54L40.87 55.37L39.37 53.25L32.87 51.5"
        transform="matrix(0.9745,0,0,0.9745,-0.7576,3.2722)"
  />
  <path style="fill:none; stroke:#000000; stroke-width:4"
        d="M25 56.5L56.87 62.75C56.87 62.75 59.01 62.16 60.62 61.62C61.75 61.25 62.12 59.37 62.12 59.37L58.37 58.25L55.75 59.75L54.75 57.25L52 58.62L50.75 56.12L48.37 57.5L46.87 55L44.37 56.5L43.25 54L40.87 55.37L39.37 53.25L32.87 51.5"
        transform="matrix(0.9745,0,0,0.9745,-2.8826,-0.2277)"
  />
  <linearGradient id="gradient6" gradientUnits="userSpaceOnUse" x1="-23.44" y1="-63.47" x2="57.25" y2="-63.58">
   <stop offset="0.7068" stop-color="#dadae0"/>
   <stop offset="0.8399" stop-color="#b4b4c3"/>
   <stop offset="0.9698" stop-color="#dedee4"/>
  </linearGradient>
  <path style="fill:url(#gradient6)"
        d="M14.87 54L57.12 62.62C57.12 62.62 59.01 62.16 60.62 61.62C61.75 61.25 62.12 59.37 62.12 59.37L58.37 58.25L55.75 59.75L54.75 57.25L52 58.62L50.75 56.12L48.37 57.5L46.87 55L44.37 56.5L43.25 54L40.87 55.37L39.37 52.87L27.75 51.12C27.75 51.12 23.74 53.22 22.37 53.5C20.5 53.87 14.87 54 14.87 54z"
        transform="matrix(0.9745,0,0,0.9745,-2.8826,-0.2277)"
  />
  <linearGradient id="gradient7" gradientUnits="userSpaceOnUse" x1="-64" y1="-64" x2="64" y2="-64">
   <stop offset="0" stop-color="#ff0606"/>
   <stop offset="0.832" stop-color="#a30404"/>
  </linearGradient>
  <path style="fill:url(#gradient7)"
        d="M47.62 14.5C47.62 14.5 48.25 16.37 48.5 17.75C48.75 19.12 48.75 19.87 48.25 20.87C47.75 21.87 46 24.37 46 24.37L43 27.62L23 48.37L19.5 49.75C19.5 49.75 38.06 29.31 39.25 28C40.37 26.75 42.05 25.25 42.62 24.25C43.12 23.37 44.68 21.97 45 20.5C45.37 18.75 45.78 17.84 45 16.75C44.37 15.87 42.12 15.12 42.37 14.25C42.97 12.15 47.62 14.5 47.62 14.5z"
        transform="matrix(0.9745,0,0,0.9745,1.3811,0.3813)"
  />
  <path style="fill:#95959b"
        d="M44.87 59.37L51.75 60.62C51.75 60.62 50.37 58.87 48.5 58.62C46.84 58.4 44.87 59.37 44.87 59.37z"
        transform="matrix(1.0788,0.1158,-0.1307,0.9676,4.5572,-4.647)"
  />
  <path style="fill:#000000; fill-opacity:0.4784"
        d="M15.75 53.12C18.37 52.87 19.25 52.5 21 51.87C22.26 51.42 23.5 50.62 23.5 50.62L27.12 51.12C27.12 51.12 26.25 51.72 24.37 52.75C23 53.5 20.62 53.75 18.62 53.75C16.46 53.75 14.37 53.25 15.75 53.12z"
        transform="matrix(1.3801,0,0,1.3801,-6.7397,-20.6212)"
  />
  <linearGradient id="gradient8" gradientUnits="userSpaceOnUse" x1="26.96" y1="-103.67" x2="120.76" y2="-16.58">
   <stop offset="0.6941" stop-color="#010101"/>
   <stop offset="0.824" stop-color="#919191"/>
  </linearGradient>
  <path style="fill:url(#gradient8)"
        d="M42.87 29.75L43.5 31.37L24.5 50.12L22.75 49.87L30.12 42.5L29.25 40.62L41.62 28L42.87 29.75z"
        transform="matrix(1,0,0,1,2.25,-1.125)"
  />
 </g>
</svg>
