<?xml version="1.0" encoding="UTF-8" standalone="yes"?>
<svg version="1.1" width="64" height="64" color-interpolation="linearRGB"
     xmlns:svg="http://www.w3.org/2000/svg" xmlns="http://www.w3.org/2000/svg">
 <g>
  <path style="fill:#000000; fill-opacity:0.4117"
        d="M57.87 35.25L57.5 40L49.87 45L49.62 48.12L41.87 54.25L41.5 58L34.37 64.37L24.75 64.62L26.62 61L12.12 60.37L9.37 52.37L45 23.87L57.87 35.25z"
        transform="matrix(1.0375,-0.0556,0.0453,0.9328,0.7713,2.5909)"
  />
  <path style="fill:none; stroke:#000000; stroke-width:4"
        d="M15.37 6.87C16.5 6 22.5 1.87 22.5 1.87L24.37 2C24.37 2 30.96 4.35 32 4.87C32.5 5.12 31.5 9.87 31.5 9.87L37.25 11.87C37.25 11.87 43.5 7.25 44.87 8C45.43 8.3 51.62 11.37 51.62 11.37L51.12 35.25L43.25 41.25L43.12 46.25L36.75 51.12L34.87 56.37L25.5 64.12L22.25 61.25L17.12 56.75C17.12 56.75 10.75 61 10.87 60.87C11 60.75 3.37 52.25 3.37 52.25C3.37 52.25 2.62 34.25 2.87 33.37C3.31 31.82 6.75 29.25 6.75 29.25C6.75 29.25 5.86 17.3 6.75 16.62C8.37 15.37 15.25 11.37 15.25 11.37C15.25 11.37 14.93 7.21 15.37 6.87z"
        transform="matrix(0.9521,0.0203,-0.0226,0.8564,6.3312,3.4926)"
  />
  <linearGradient id="gradient0" gradientUnits="userSpaceOnUse" x1="-64" y1="-64" x2="64" y2="-64">
   <stop offset="0.456" stop-color="#d5c18b"/>
   <stop offset="1" stop-color="#baa365"/>
  </linearGradient>
  <path style="fill:url(#gradient0)"
        d="M16.87 21C15.37 21.71 13.15 22.88 13 23.62C11.87 28.91 9.38 41.88 9.87 42.5C11.39 44.42 13.74 49.97 14.62 49.75C17.26 49.06 23.78 46.64 24.25 47.25C26.09 49.65 30.09 53.77 30.75 53.62C33.43 52.99 39.25 55.17 39.37 54.5C39.7 52.69 38.18 46.27 38.75 46.12C41.39 45.43 48.17 44.1 48.5 43.62C49.27 42.46 50.05 37.94 50.5 37.87C52.68 37.54 56.91 36.51 57.25 36.12C58.12 35.1 62.48 36.1 62.62 35.5C63.87 30.2 68.44 11.56 67.87 11C66.15 9.31 62.21 5.97 61.37 6.12C58.62 6.6 53.34 8.38 52.5 7.87C51.2 7.09 48.54 5.36 48.62 4.87C48.9 3.19 48.9 -0.32 48.5 -0.62C46.91 -1.8 43.38 -4.24 42.75 -4.5C40.87 -5.25 38 -5 36.37 -4C34.57 -2.89 31.37 -1.55 31.37 -0.87C31.37 1.37 31.26 2.89 30.62 3.12C27.86 4.13 20.5 6.7 20.37 7.37C19.68 10.89 17.53 20.68 16.87 21z"
        transform="matrix(0.8575,-0.1404,0.1562,0.7707,-5.8591,15.6744)"
  />
  <linearGradient id="gradient1" gradientUnits="userSpaceOnUse" x1="-44.71" y1="-80.01" x2="81.1" y2="-56.47">
   <stop offset="0.4077" stop-color="#8c7538"/>
   <stop offset="0.9279" stop-color="#b59560"/>
  </linearGradient>
  <path style="fill:url(#gradient1)"
        d="M17.5 27.37C17.62 27.12 18.25 20 18.62 19.5C19 18.99 25.9 15.29 28.12 16.12C29.12 16.5 33.7 20.93 34 22.25C34.25 23.37 31.52 30.87 30.62 30.87C30.12 30.87 23.5 34.25 22.5 34.25C22.12 34.25 20.5 31.37 19.62 30C18.6 28.4 17.26 27.83 17.5 27.37z"
        transform="matrix(0.6644,-0.1088,0.0856,0.4226,1.7691,11.8576)"
  />
  <linearGradient id="gradient2" gradientUnits="userSpaceOnUse" x1="-44.71" y1="-80.01" x2="81.1" y2="-56.47">
   <stop offset="0.4077" stop-color="#8c7538"/>
   <stop offset="0.9279" stop-color="#b59560"/>
  </linearGradient>
  <path style="fill:url(#gradient2)"
        d="M17.5 27.37C17.62 27.12 18.25 20 18.62 19.5C19 18.99 25.9 15.29 28.12 16.12C29.12 16.5 33.7 20.93 34 22.25C34.25 23.37 31.52 30.87 30.62 30.87C30.12 30.87 23.5 34.25 22.5 34.25C22.12 34.25 20.5 31.37 19.62 30C18.6 28.4 17.26 27.83 17.5 27.37z"
        transform="matrix(0.6644,-0.1088,0.0856,0.4226,14.6623,10.8014)"
  />
  <linearGradient id="gradient3" gradientUnits="userSpaceOnUse" x1="-44.71" y1="-80.01" x2="81.1" y2="-56.47">
   <stop offset="0.4077" stop-color="#8c7538"/>
   <stop offset="0.9279" stop-color="#b59560"/>
  </linearGradient>
  <path style="fill:url(#gradient3)"
        d="M17.5 27.37C17.62 27.12 18.25 20 18.62 19.5C19 18.99 25.9 15.29 28.12 16.12C29.12 16.5 33.7 20.93 34 22.25C34.25 23.37 31.52 30.87 30.62 30.87C30.12 30.87 23.5 34.25 22.5 34.25C22.12 34.25 20.5 31.37 19.62 30C18.6 28.4 17.26 27.83 17.5 27.37z"
        transform="matrix(0.6644,-0.1088,0.0856,0.4226,19.3256,18.1194)"
  />
  <linearGradient id="gradient4" gradientUnits="userSpaceOnUse" x1="-44.71" y1="-80.01" x2="81.1" y2="-56.47">
   <stop offset="0.4077" stop-color="#8c7538"/>
   <stop offset="0.9279" stop-color="#b59560"/>
  </linearGradient>
  <path style="fill:url(#gradient4)"
        d="M17.5 27.37C17.62 27.12 18.25 20 18.62 19.5C19 18.99 25.9 15.29 28.12 16.12C29.12 16.5 33.7 20.93 34 22.25C34.25 23.37 31.52 30.87 30.62 30.87C30.12 30.87 23.5 34.25 22.5 34.25C22.12 34.25 20.5 31.37 19.62 30C18.6 28.4 17.26 27.83 17.5 27.37z"
        transform="matrix(0.6644,-0.1088,0.0856,0.4226,11.112,25.6776)"
  />
  <linearGradient id="gradient5" gradientUnits="userSpaceOnUse" x1="-44.71" y1="-80.01" x2="81.1" y2="-56.47">
   <stop offset="0.4077" stop-color="#8c7538"/>
   <stop offset="0.9279" stop-color="#b59560"/>
  </linearGradient>
  <path style="fill:url(#gradient5)"
        d="M17.5 27.37C17.62 27.12 18.25 20 18.62 19.5C19 18.99 25.9 15.29 28.12 16.12C29.12 16.5 33.7 20.93 34 22.25C34.25 23.37 31.52 30.87 30.62 30.87C30.12 30.87 23.5 34.25 22.5 34.25C22.12 34.25 20.5 31.37 19.62 30C18.6 28.4 17.26 27.83 17.5 27.37z"
        transform="matrix(0.6644,-0.1088,0.0856,0.4226,-1.494,25.5262)"
  />
  <linearGradient id="gradient6" gradientUnits="userSpaceOnUse" x1="-44.71" y1="-80.01" x2="81.1" y2="-56.47">
   <stop offset="0.4077" stop-color="#8c7538"/>
   <stop offset="0.9279" stop-color="#b59560"/>
  </linearGradient>
  <path style="fill:url(#gradient6)"
        d="M17.5 27.37C17.62 27.12 18.25 20 18.62 19.5C19 18.99 25.9 15.29 28.12 16.12C29.12 16.5 33.7 20.93 34 22.25C34.25 23.37 31.52 30.87 30.62 30.87C30.12 30.87 23.5 34.25 22.5 34.25C22.12 34.25 20.5 31.37 19.62 30C18.6 28.4 17.26 27.83 17.5 27.37z"
        transform="matrix(0.6644,-0.1088,0.0856,0.4226,27.2064,10.1205)"
  />
  <linearGradient id="gradient7" gradientUnits="userSpaceOnUse" x1="-44.71" y1="-80.01" x2="81.1" y2="-56.47">
   <stop offset="0.4077" stop-color="#8c7538"/>
   <stop offset="0.9279" stop-color="#b59560"/>
  </linearGradient>
  <path style="fill:url(#gradient7)"
        d="M17.5 27.37C17.62 27.12 18.25 20 18.62 19.5C19 18.99 25.9 15.29 28.12 16.12C29.12 16.5 33.7 20.93 34 22.25C34.25 23.37 31.52 30.87 30.62 30.87C30.12 30.87 23.5 34.25 22.5 34.25C22.12 34.25 20.5 31.37 19.62 30C18.6 28.4 17.26 27.83 17.5 27.37z"
        transform="matrix(0.6644,-0.1088,0.0856,0.4226,9.3556,3.9288)"
  />
  <linearGradient id="gradient8" gradientUnits="userSpaceOnUse" x1="-64" y1="-64" x2="64" y2="-64">
   <stop offset="0" stop-color="#c8b482"/>
   <stop offset="0.8178" stop-color="#ad9757"/>
  </linearGradient>
  <path style="fill:url(#gradient8)"
        d="M12.87 29.37V34L18.12 39.75L16 54.25L10.62 46.62L10.87 37.25L11 31.25L12.87 29.37z"
        transform="matrix(1.093,-0.0504,0.0561,0.9823,-5.9878,2.211)"
  />
  <linearGradient id="gradient9" gradientUnits="userSpaceOnUse" x1="-64" y1="-64" x2="64" y2="-64">
   <stop offset="0" stop-color="#c8b482"/>
   <stop offset="1" stop-color="#ad9757"/>
  </linearGradient>
  <path style="fill:url(#gradient9)"
        d="M15 28.75L20.37 26.25L20.5 24.75L16 20.25L15.87 18.12L15.62 18L15 28.75z"
        transform="matrix(1.093,-0.0504,0.0561,0.9823,-5.9878,2.211)"
  />
  <linearGradient id="gradient10" gradientUnits="userSpaceOnUse" x1="-64" y1="-64" x2="64" y2="-64">
   <stop offset="1" stop-color="#c2aa6d"/>
   <stop offset="0.7897" stop-color="#8c793c"/>
  </linearGradient>
  <path style="fill:url(#gradient10)"
        d="M17.62 39L25.25 37.12L23.62 51.87L15.87 55L17.62 39z"
        transform="matrix(1.093,-0.0504,0.0561,0.9823,-5.9878,2.211)"
  />
  <linearGradient id="gradient11" gradientUnits="userSpaceOnUse" x1="-64" y1="-64" x2="64" y2="-64">
   <stop offset="0" stop-color="#c8b482"/>
   <stop offset="1" stop-color="#ad9757"/>
  </linearGradient>
  <path style="fill:url(#gradient11)"
        d="M25.25 36.5L30.12 39.62L28.87 58.75L23 52.25L25.25 36.5z"
        transform="matrix(1.093,-0.0504,0.0561,0.9823,-5.9878,2.211)"
  />
  <linearGradient id="gradient12" gradientUnits="userSpaceOnUse" x1="-64" y1="-64" x2="64" y2="-64">
   <stop offset="1" stop-color="#c2aa6d"/>
   <stop offset="0.7377" stop-color="#8c793c"/>
  </linearGradient>
  <path style="fill:url(#gradient12)"
        d="M30 39.87L37.25 36.75L37.37 52.87L28.87 58.87L30 39.87z"
        transform="matrix(1.093,-0.0504,0.0561,0.9823,-5.9878,2.211)"
  />
  <linearGradient id="gradient13" gradientUnits="userSpaceOnUse" x1="-64" y1="-64" x2="64" y2="-64">
   <stop offset="1" stop-color="#c2aa6d"/>
   <stop offset="0.7787" stop-color="#8c793c"/>
  </linearGradient>
  <path style="fill:url(#gradient13)"
        d="M45.62 29L44.87 44.37L36.87 50.62L37.25 37.37L38.25 32.37L45.62 29z"
        transform="matrix(1.093,-0.0504,0.0561,0.9823,-5.9878,2.211)"
  />
  <linearGradient id="gradient14" gradientUnits="userSpaceOnUse" x1="-64" y1="-64" x2="64" y2="-64">
   <stop offset="1" stop-color="#c2aa6d"/>
   <stop offset="0.8738" stop-color="#8c793c"/>
  </linearGradient>
  <path style="fill:url(#gradient14)"
        d="M53.25 35L44.75 40.87L45.62 28.62L46.25 24.37L53 21.12L55.12 14.5L53.25 35z"
        transform="matrix(1.093,-0.0504,0.0561,0.9823,-5.9878,2.211)"
  />
  <linearGradient id="gradient15" gradientUnits="userSpaceOnUse" x1="-59.62" y1="-63.62" x2="-11.62" y2="-63.62">
   <stop offset="0" stop-color="#965b07" stop-opacity="0.1568"/>
   <stop offset="1" stop-color="#865a1c" stop-opacity="0.7686"/>
  </linearGradient>
  <path style="fill:url(#gradient15)"
        d="
           M17.12 25.75C17.36 24.77 25.02 20.41 27.25 21.25C28.25 21.62 32.79 24.16 33 25.5C33.25 27.12 32.25 29.62 30.62 30.87C29.62 31.64 23.62 32.62 22.12 32.62C21.12 32.62 19.62 30.62 18.75 29.25C17.73 27.65 17 26.25 17.12 25.75z"
        transform="matrix(0.6196,0,0,0.3862,5.1334,10.3287)"
  />
  <linearGradient id="gradient16" gradientUnits="userSpaceOnUse" x1="-59.62" y1="-63.62" x2="-11.62" y2="-63.62">
   <stop offset="0" stop-color="#965b07" stop-opacity="0.1568"/>
   <stop offset="1" stop-color="#865a1c" stop-opacity="0.7686"/>
  </linearGradient>
  <path style="fill:url(#gradient16)"
        d="M17.12 25.75C17.36 24.77 25.02 20.41 27.25 21.25C28.25 21.62 32.79 24.16 33 25.5C33.25 27.12 32.25 29.62 30.62 30.87C29.62 31.64 23.62 32.62 22.12 32.62C21.12 32.62 19.62 30.62 18.75 29.25C17.73 27.65 17 26.25 17.12 25.75z"
        transform="matrix(0.5963,0,0,0.4306,12.92,1.0158)"
  />
  <linearGradient id="gradient17" gradientUnits="userSpaceOnUse" x1="-59.62" y1="-63.62" x2="-11.62" y2="-63.62">
   <stop offset="0" stop-color="#965b07" stop-opacity="0.1568"/>
   <stop offset="1" stop-color="#865a1c" stop-opacity="0.7686"/>
  </linearGradient>
  <path style="fill:url(#gradient17)"
        d="M17.12 25.75C17.36 24.77 25.02 20.41 27.25 21.25C28.25 21.62 32.79 24.16 33 25.5C33.25 27.12 32.25 29.62 30.62 30.87C29.62 31.64 23.62 32.62 22.12 32.62C21.12 32.62 19.62 30.62 18.75 29.25C17.73 27.65 17 26.25 17.12 25.75z"
        transform="matrix(0.5963,0,0,0.441,18.3922,7.8079)"
  />
  <linearGradient id="gradient18" gradientUnits="userSpaceOnUse" x1="-59.62" y1="-63.62" x2="-11.62" y2="-63.62">
   <stop offset="0" stop-color="#965b07" stop-opacity="0.1568"/>
   <stop offset="1" stop-color="#865a1c" stop-opacity="0.7686"/>
  </linearGradient>
  <path style="fill:url(#gradient18)"
        d="M17.12 25.75C17.36 24.77 25.02 20.41 27.25 21.25C28.25 21.62 32.79 24.16 33 25.5C33.25 27.12 32.25 29.62 30.62 30.87C29.62 31.64 23.62 32.62 22.12 32.62C21.12 32.62 19.62 30.62 18.75 29.25C17.73 27.65 17 26.25 17.12 25.75z"
        transform="matrix(0.5963,0,0,0.4201,30.8416,7.5031)"
  />
  <linearGradient id="gradient19" gradientUnits="userSpaceOnUse" x1="-59.62" y1="-63.62" x2="-11.62" y2="-63.62">
   <stop offset="0" stop-color="#965b07" stop-opacity="0.1568"/>
   <stop offset="1" stop-color="#865a1c" stop-opacity="0.7686"/>
  </linearGradient>
  <path style="fill:url(#gradient19)"
        d="M17.12 25.75C17.36 24.77 25.02 20.41 27.25 21.25C28.25 21.62 32.79 24.16 33 25.5C33.25 27.12 32.25 29.62 30.62 30.87C29.62 31.64 23.62 32.62 22.12 32.62C21.12 32.62 19.62 30.62 18.75 29.25C17.73 27.65 17 26.25 17.12 25.75z"
        transform="matrix(0.5963,0,0,0.4201,23.0436,15.4953)"
  />
  <linearGradient id="gradient20" gradientUnits="userSpaceOnUse" x1="-59.62" y1="-63.62" x2="-11.62" y2="-63.62">
   <stop offset="0" stop-color="#965b07" stop-opacity="0.1568"/>
   <stop offset="1" stop-color="#865a1c" stop-opacity="0.7686"/>
  </linearGradient>
  <path style="fill:url(#gradient20)"
        d="M17.12 25.75C17.36 24.77 25.02 20.41 27.25 21.25C28.25 21.62 32.79 24.16 33 25.5C33.25 27.12 32.25 29.62 30.62 30.87C29.62 31.64 23.62 32.62 22.12 32.62C21.12 32.62 19.62 30.62 18.75 29.25C17.73 27.65 17 26.25 17.12 25.75z"
        transform="matrix(0.5963,0,0,0.4618,14.9721,21.8838)"
  />
  <linearGradient id="gradient21" gradientUnits="userSpaceOnUse" x1="-59.62" y1="-63.62" x2="-11.62" y2="-63.62">
   <stop offset="0" stop-color="#965b07" stop-opacity="0.1568"/>
   <stop offset="1" stop-color="#865a1c" stop-opacity="0.7686"/>
  </linearGradient>
  <path style="fill:url(#gradient21)"
        d="M17.12 25.75C17.36 24.77 25.02 20.41 27.25 21.25C28.25 21.62 32.79 24.16 33 25.5C33.25 27.12 32.25 29.62 30.62 30.87C29.62 31.64 23.62 32.62 22.12 32.62C21.12 32.62 19.62 30.62 18.75 29.25C17.73 27.65 17 26.25 17.12 25.75z"
        transform="matrix(0.5963,0,0,0.441,2.386,22.6857)"
  />
  <linearGradient id="gradient22" gradientUnits="userSpaceOnUse" x1="-134.12" y1="-117.5" x2="85.62" y2="-117.5">
   <stop offset="0" stop-color="#ffffff" stop-opacity="0.298"/>
   <stop offset="0.5495" stop-color="#d1a76c" stop-opacity="0.149"/>
  </linearGradient>
  <path style="fill:url(#gradient22)"
        d="M13.12 35.25C13.75 34.62 13.62 34.12 15 33.87C16.37 33.62 18 34.87 18.5 35.37C19 35.87 16.35 33.92 16 35C15.75 35.75 16.5 36.5 15.87 37.25C15.25 38 13 37 13 37"
        transform="matrix(-1.061,0,0,0.8651,34.2313,3.4875)"
  />
  <linearGradient id="gradient23" gradientUnits="userSpaceOnUse" x1="-134.12" y1="-117.5" x2="85.62" y2="-117.5">
   <stop offset="0" stop-color="#ffffff" stop-opacity="0.298"/>
   <stop offset="0.5495" stop-color="#d1a76c" stop-opacity="0.149"/>
  </linearGradient>
  <path style="fill:url(#gradient23)"
        d="M13.12 35.25C13.75 34.62 13.62 34.12 15 33.87C16.37 33.62 18 34.87 18.5 35.37C19 35.87 16.35 33.92 16 35C15.75 35.75 16.5 36.5 15.87 37.25C15.25 38 13 37 13 37"
        transform="matrix(-1.061,0,0,0.9311,37.4334,-12.4167)"
  />
  <linearGradient id="gradient24" gradientUnits="userSpaceOnUse" x1="-134.12" y1="-117.5" x2="85.62" y2="-117.5">
   <stop offset="0" stop-color="#ffffff" stop-opacity="0.298"/>
   <stop offset="0.5495" stop-color="#d1a76c" stop-opacity="0.149"/>
  </linearGradient>
  <path style="fill:url(#gradient24)"
        d="M13.12 35.25C13.75 34.62 13.62 34.12 15 33.87C16.37 33.62 18 34.87 18.5 35.37C19 35.87 16.35 33.92 16 35C15.75 35.75 16.5 36.5 15.87 37.25C15.25 38 13 37 13 37"
        transform="matrix(-1.061,0,0,0.9641,50.642,-14.8527)"
  />
  <linearGradient id="gradient25" gradientUnits="userSpaceOnUse" x1="-134.12" y1="-117.5" x2="85.62" y2="-117.5">
   <stop offset="0" stop-color="#ffffff" stop-opacity="0.298"/>
   <stop offset="0.5495" stop-color="#d1a76c" stop-opacity="0.149"/>
  </linearGradient>
  <path style="fill:url(#gradient25)"
        d="M13.12 35.25C13.75 34.62 13.62 34.12 15 33.87C16.37 33.62 18 34.87 18.5 35.37C19 35.87 16.35 33.92 16 35C15.75 35.75 16.5 36.5 15.87 37.25C15.25 38 13 37 13 37"
        transform="matrix(-1.061,0,0,0.8981,63.4505,-13.4582)"
  />
  <linearGradient id="gradient26" gradientUnits="userSpaceOnUse" x1="-134.12" y1="-117.5" x2="85.62" y2="-117.5">
   <stop offset="0" stop-color="#ffffff" stop-opacity="0.298"/>
   <stop offset="0.5495" stop-color="#d1a76c" stop-opacity="0.149"/>
  </linearGradient>
  <path style="fill:url(#gradient26)"
        d="M13.12 35.25C13.75 34.62 13.62 34.12 15 33.87C16.37 33.62 18 34.87 18.5 35.37C19 35.87 16.35 33.92 16 35C15.75 35.75 16.5 36.5 15.87 37.25C15.25 38 13 37 13 37"
        transform="matrix(-1.061,0,0,0.9311,55.9789,-6.9006)"
  />
  <linearGradient id="gradient27" gradientUnits="userSpaceOnUse" x1="-134.12" y1="-117.5" x2="85.62" y2="-117.5">
   <stop offset="0" stop-color="#ffffff" stop-opacity="0.298"/>
   <stop offset="0.5495" stop-color="#d1a76c" stop-opacity="0.149"/>
  </linearGradient>
  <path style="fill:url(#gradient27)"
        d="M13.12 35.25C13.75 34.62 13.62 34.12 15 33.87C16.37 33.62 18 34.87 18.5 35.37C19 35.87 16.35 33.92 16 35C15.75 35.75 16.5 36.5 15.87 37.25C15.25 38 13 37 13 37"
        transform="matrix(-1.061,0,0,0.8981,46.7728,2.1307)"
  />
  <linearGradient id="gradient28" gradientUnits="userSpaceOnUse" x1="-134.12" y1="-117.5" x2="85.62" y2="-117.5">
   <stop offset="0" stop-color="#ffffff" stop-opacity="0.298"/>
   <stop offset="0.5495" stop-color="#d1a76c" stop-opacity="0.149"/>
  </linearGradient>
  <path style="fill:url(#gradient28)"
        d="M13.12 35.25C13.75 34.62 13.62 34.12 15 33.87C16.37 33.62 18 34.87 18.5 35.37C19 35.87 16.35 33.92 16 35C15.75 35.75 16.5 36.5 15.87 37.25C15.25 38 13 37 13 37"
        transform="matrix(-1.061,0,0,0.997,45.1718,-22.6849)"
  />
  <linearGradient id="gradient29" gradientUnits="userSpaceOnUse" x1="-64" y1="-64" x2="64" y2="-64">
   <stop offset="1" stop-color="#c2aa6d"/>
   <stop offset="0.7897" stop-color="#8c793c"/>
  </linearGradient>
  <path style="fill:url(#gradient29)"
        d="M32.5 9.37L32.62 13.12L33.87 12.75L33.75 9.37"
        transform="matrix(0.7762,0,0,0.9593,10.2857,-0.061)"
  />
  <path style="fill:#000000; fill-opacity:0.298"
        d="M21.5 39.62L24.87 59.25L19.87 54.25L21.5 39.62z"
        transform="matrix(1.0673,0,0,0.9593,0.4246,-0.061)"
  />
 </g>
</svg>
