<?xml version="1.0" encoding="UTF-8" standalone="yes"?>
<svg version="1.1" width="64" height="64" color-interpolation="linearRGB"
     xmlns:svg="http://www.w3.org/2000/svg" xmlns="http://www.w3.org/2000/svg">
 <g>
  <path style="fill:#000000; fill-opacity:0.349"
        d="M57.25 20.12L61.12 24.12L63.87 30.37L64 38.87L56.12 48.5L42.75 55.5H39.87"
        transform="matrix(1,0,0,1,0,1.875)"
  />
  <path style="fill:none; stroke:#010101; stroke-width:2"
        d="M23.75 23.5L14.12 19.5L6.12 27.25L16.12 32.37L4.37 33L7.62 44L14.5 42.87L10.87 47L22.87 53.75L24.62 54.75L37.87 55.62L40.5 55.75L53.37 50.25L55.12 50L62.12 42.62L63.5 40.62L63.87 40.75L64.25 34.12L63.62 32.75L61.5 28.25L61 26.87L58.12 24.25L57.75 23.5L55.12 21.62"
        transform="matrix(1.0187,-0.0696,0.0695,1.0332,-5.8673,2.1046)"
  />
  <path style="fill:none; stroke:#000000; stroke-width:4"
        d="M51.37 18.75V11.5L38.12 6L22.75 20.25C22.75 20.25 21 22.12 20.62 23.12C20.25 24.12 21.12 25 21.12 25"
        transform="matrix(1,0,0,1,0.625,1.875)"
  />
  <path style="fill:none; stroke:#282828; stroke-width:1"
        d="M11 20.5L4.37 27.87L28.62 37L33.25 28.5L11 20.5z"
        transform="matrix(1,0,0,1,-0.875,1.875)"
  />
  <path style="fill:#5f88e3"
        d="M11 20.5L4.37 27.87L28.62 37L33.25 28.5L11 20.5z"
        transform="matrix(1,0,0,1,-0.875,1.875)"
  />
  <path style="fill:none; stroke:#282828; stroke-width:1"
        d="M2.25 34.5L6.5 43.62L29.87 32.25L25.25 24.12L2.25 34.5z"
        transform="matrix(0.9954,0.0956,-0.0956,0.9954,3.2854,2.0733)"
  />
  <path style="fill:#5f6de3"
        d="M2.25 34.5L6.5 43.62L29.87 32.25L25.25 24.12L2.25 34.5z"
        transform="matrix(0.9954,0.0956,-0.0956,0.9954,3.2854,2.0733)"
  />
  <path style="fill:none; stroke:#282828; stroke-width:1"
        d="M11.25 48.37L23.62 30L37.5 35.37L25.12 53.87L11.25 48.37z"
        transform="matrix(0.9988,0.0475,-0.0475,0.9988,0.6869,0.4866)"
  />
  <path style="fill:#6a5fe3"
        d="M11.25 48.37L23.62 30L37.5 35.37L25.12 53.87L11.25 48.37z"
        transform="matrix(0.9988,0.0475,-0.0475,0.9988,0.6869,0.4866)"
  />
  <path style="fill:none; stroke:#282828; stroke-width:1"
        d="M22.75 31.75L20.37 52.5L38 54.87L39 32.5L22.75 31.75z"
        transform="matrix(0.994,-0.1088,0.1088,0.994,-4.2131,5.4632)"
  />
  <path style="fill:#845fe3"
        d="M22.75 31.75L20.37 52.5L38 54.87L39 32.5L22.75 31.75z"
        transform="matrix(0.994,-0.1088,0.1088,0.994,-4.2131,5.4632)"
  />
  <path style="fill:none; stroke:#282828; stroke-width:1"
        d="M23 31.5L28.75 56L44.37 55.5L39.62 31.25L23 31.5z"
        transform="matrix(0.8987,-0.4383,0.4383,0.8987,-11.7351,18.309)"
  />
  <path style="fill:#9f5fe3"
        d="M23 31.5L28.75 56L44.37 55.5L39.62 31.25L23 31.5z"
        transform="matrix(0.8987,-0.4383,0.4383,0.8987,-11.7351,18.309)"
  />
  <path style="fill:none; stroke:#282828; stroke-width:1"
        d="M24.25 32.12L39.12 58.5L50.62 56L39.5 31.5L24.25 32.12z"
        transform="matrix(0.7769,-0.6296,0.6296,0.7769,-14.1596,28.3133)"
  />
  <path style="fill:#b75de3"
        d="M24.25 32.12L39.12 58.5L50.62 56L39.5 31.5L24.25 32.12z"
        transform="matrix(0.7769,-0.6296,0.6296,0.7769,-14.1596,28.3133)"
  />
  <path style="fill:none; stroke:#282828; stroke-width:1"
        d="M24 32.87L46.87 59L51.37 54.75L39 31L24 32.87z"
        transform="matrix(0.6616,-0.7498,0.7498,0.6616,-14.4962,35.4402)"
  />
  <path style="fill:#d35de3"
        d="M24 32.87L46.87 59L51.37 54.75L39 31L24 32.87z"
        transform="matrix(0.6616,-0.7498,0.7498,0.6616,-14.4962,35.4402)"
  />
  <path style="fill:none; stroke:#282828; stroke-width:1"
        d="M26.25 35L50.25 55.62L53.25 49.37L36.62 28.5L26.25 35z"
        transform="matrix(0.6175,-0.7865,0.7865,0.6175,-14.2387,38.0693)"
  />
  <path style="fill:#e35dd8"
        d="M26.25 35L50.25 55.62L53.25 49.37L36.62 28.5L26.25 35z"
        transform="matrix(0.6175,-0.7865,0.7865,0.6175,-14.2387,38.0693)"
  />
  <path style="fill:none; stroke:#282828; stroke-width:1"
        d="M27.5 36.12L53.25 49.87L54 42.87L30.62 27.37L27.5 36.12z"
        transform="matrix(0.6257,-0.78,0.78,0.6257,-14.3262,37.4969)"
  />
  <path style="fill:#e25d9f"
        d="M27.5 36.12L53.25 49.87L54 42.87L30.62 27.37L27.5 36.12z"
        transform="matrix(0.6257,-0.78,0.78,0.6257,-14.3262,37.4969)"
  />
  <path style="fill:none; stroke:#282828; stroke-width:1"
        d="M30.75 37L55.62 41.37L50.62 30.87L28.75 27.12L30.75 37z"
        transform="matrix(0.732,-0.6812,0.6812,0.732,-14.435,31.2473)"
  />
  <path style="fill:#e35d83"
        d="M30.75 37L55.62 41.37L50.62 30.87L28.75 27.12L30.75 37z"
        transform="matrix(0.732,-0.6812,0.6812,0.732,-14.435,31.2473)"
  />
  <linearGradient id="gradient0" gradientUnits="userSpaceOnUse" x1="-35.98" y1="-88.62" x2="87.25" y2="-54.03">
   <stop offset="0" stop-color="#010101" stop-opacity="0"/>
   <stop offset="1" stop-color="#010101" stop-opacity="0.0431"/>
  </linearGradient>
  <path style="fill:url(#gradient0)"
        d="M23.87 23.37L14 19.37L5.87 27.37L16.25 32.25L4.12 32.87L7.37 44L14.62 43.12L10.5 47.12L22.87 53.75L24.62 54.75L37.87 55.62L40.5 55.75L53.5 50.37L55.12 50L62.37 42.75L63.62 41.5L64 34.25L63.62 32.75L61.5 28.25L61 26.87L58.12 24.25L57.75 23.5L55.12 21.62L52 19.75L23.87 23.37z"
        transform="matrix(1.0187,-0.0696,0.0695,1.0332,-5.8673,2.1046)"
  />
  <path style="fill:#000000; fill-opacity:0.4274"
        d="M50.75 19.87L26.62 38.5C26.62 38.5 31.95 39.35 35 38.62C38.12 37.87 40.5 36.75 42.62 35.25C44.49 33.92 55.87 24.37 55.87 24.37L50.75 19.87z"
        transform="matrix(1.0352,-0.1013,0.1013,1.0352,-1.7231,1.3897)"
  />
  <linearGradient id="gradient1" gradientUnits="userSpaceOnUse" x1="-41.18" y1="-82.35" x2="83.84" y2="-54.9">
   <stop offset="0.6935" stop-color="#f7f7f7"/>
   <stop offset="0.8676" stop-color="#818181"/>
  </linearGradient>
  <path style="fill:url(#gradient1)"
        d="M29 28L28.75 32.62C28.75 32.62 28.12 40.33 36.25 40.62C43.25 40.87 49.12 35.25 49.12 35.25L61.25 24.12L61.62 15.87"
        transform="matrix(0.9627,-0.0652,0.0652,0.9627,-8.7125,2.0975)"
  />
  <linearGradient id="gradient2" gradientUnits="userSpaceOnUse" x1="-64" y1="-64" x2="64" y2="-64">
   <stop offset="0.6676" stop-color="#ffffff"/>
   <stop offset="1" stop-color="#e8e8e8"/>
  </linearGradient>
  <path style="fill:url(#gradient2)"
        d="M48.75 14.87C48.75 14.87 34 25.12 30.75 27.25C27.69 29.24 27.87 33 28.25 33.75C28.78 34.81 34.5 36.77 36.12 36.87C40.12 37.12 44 34.5 46.75 32.87C49.37 31.32 61 21.37 61 21.37L48.75 14.87z"
        transform="matrix(0.9546,-0.1402,0.1402,0.9546,-10.379,1.1463)"
  />
  <path style="fill:#a8a8a8"
        d="M32 12.25C20.25 12.25 15.06 24.41 19.37 32.12C23.5 39.5 22.2 43.38 31.62 47.37C42.25 51.87 46.25 39.12 48 32C50.27 22.75 44.37 12.25 32 12.25z"
        transform="matrix(-0.0938,0.0421,-0.0333,-0.0734,33.2806,26.293)"
  />
  <path style="fill:#a8a8a8"
        d="M32 12.25C20.25 12.25 15.06 24.41 19.37 32.12C23.5 39.5 22.2 43.38 31.62 47.37C42.25 51.87 46.25 39.12 48 32C50.27 22.75 44.37 12.25 32 12.25z"
        transform="matrix(-0.0938,0.0421,-0.0333,-0.0734,33.2806,26.293)"
  />
  <path style="fill:none; stroke:#010101; stroke-width:8"
        d="M32 12.25C20.25 12.25 15.06 24.41 19.37 32.12C23.5 39.5 22.2 43.38 31.62 47.37C42.25 51.87 46.25 39.12 48 32C50.27 22.75 44.37 12.25 32 12.25z"
        transform="matrix(-0.0938,0.0421,-0.0333,-0.0734,33.2806,26.293)"
  />
  <linearGradient id="gradient3" gradientUnits="userSpaceOnUse" x1="-22" y1="-74.12" x2="106" y2="-74.12">
   <stop offset="0.1971" stop-color="#cdcdcd"/>
   <stop offset="1" stop-color="#c7c7c7"/>
  </linearGradient>
  <path style="fill:url(#gradient3)"
        d="M38.62 6.62L45.25 9L34.5 19.12C34.5 19.12 31.25 18 29.62 18C28.62 18 24.37 19.62 24.37 19.62C24.37 19.62 30.74 13.48 33.62 10.87C36.25 8.5 38.62 6.62 38.62 6.62z"
        transform="matrix(1,0,0,1,0,1.875)"
  />
  <linearGradient id="gradient4" gradientUnits="userSpaceOnUse" x1="-18.62" y1="-63.61" x2="63.26" y2="-64.24">
   <stop offset="0.1352" stop-color="#ffffff"/>
   <stop offset="0.9251" stop-color="#4d4d4d"/>
  </linearGradient>
  <path style="fill:none; stroke:url(#gradient4); stroke-width:1"
        d="M23.62 32.75C24.25 33.37 25.75 34.37 26.62 34.37C27.5 34.37 29.12 35 30.87 34.62C32.4 34.29 34 33.12 34.87 32.5C35.13 32.31 37.02 31.3 40.62 28.12C45.22 24.05 51.5 16.87 51.5 16.87"
        transform="matrix(1,0,0,1,0,1.875)"
  />
  <linearGradient id="gradient5" gradientUnits="userSpaceOnUse" x1="-18.62" y1="-63.61" x2="63.26" y2="-64.24">
   <stop offset="0.1352" stop-color="#ffffff"/>
   <stop offset="0.9251" stop-color="#4d4d4d"/>
  </linearGradient>
  <path style="fill:none; stroke:url(#gradient5); stroke-width:1"
        d="M23.62 32.75C24.25 33.37 25.75 34.37 26.62 34.37C27.5 34.37 29.12 35 30.87 34.62C32.4 34.29 34 33.12 34.87 32.5C35.13 32.31 37.02 31.3 40.62 28.12C45.22 24.05 51.5 16.87 51.5 16.87"
        transform="matrix(1,0,0,1,-0.125,-0.75)"
  />
 </g>
</svg>
