<?xml version="1.0" encoding="UTF-8" standalone="yes"?>
<svg version="1.1" width="64" height="64" color-interpolation="linearRGB"
     xmlns:svg="http://www.w3.org/2000/svg" xmlns="http://www.w3.org/2000/svg">
 <g>
  <path style="fill:#000000; fill-opacity:0.4039"
        d="M6 52L26 38L38.12 42.87L59.87 50L44 64L28.5 64.12L6 52z"
        transform="matrix(0.5792,0,0,0.9646,26.0502,-9.7434)"
  />
  <path style="fill:none; stroke:#000000; stroke-width:4"
        d="M20.12 11.62L6 15.87V47L27.06 53.37L41 45.12V14.5L20.12 11.62z"
        transform="matrix(0.5858,0,0,1.0978,25.4791,-9.1887)"
  />
  <path style="fill:#00ff00"
        d="M6.31 24.5L6 47L28.37 53.25L28.25 28.75L6.31 24.5z"
        transform="matrix(0.5161,0,0,1.0724,26.7038,-8.3698)"
  />
  <path style="fill:#00ff00"
        d="M26.5 29.75L27.87 53.87L40.81 44.87L40.68 22.75L26.5 29.75z"
        transform="matrix(0.6143,0,0,1.0587,24.0146,-7.9478)"
  />
  <path style="fill:#ff0000"
        d="M11.62 17.87L11.37 28.62L22.31 31.93L22.18 21.18L11.62 17.87z"
        transform="matrix(1.0823,0,0,0.7961,17.5505,-4.0227)"
  />
  <path style="fill:#8e0c0c"
        d="M31.12 7.62V12.75L42.5 17.25L42.62 11.5L31.12 7.62z"
        transform="matrix(1.0709,0,0,1.0143,-3.5123,-0.4098)"
  />
  <path style="fill:#ff0000"
        d="M23.25 25.12L21.87 31.62L29.62 25.87L29.31 19.37L23.25 25.12z"
        transform="matrix(1.1376,0,0,1.0707,15.5472,-11.5145)"
  />
  <path style="fill:#8e0c0c"
        d="M41 11.75L41.25 18.25L50.68 11.75L50.56 6.87L41 11.75z"
        transform="matrix(1.0942,0,0,1.1072,-5.9614,-2.0087)"
  />
  <path style="fill:#930909"
        d="M21.31 10.87L7.5 14.5L27.87 18.62L43.93 13.5L21.31 10.87z"
        transform="matrix(0.5161,0,0,1.0311,26.7038,-7.4337)"
  />
  <path style="fill:none; stroke:#000000; stroke-width:1.62"
        d="M12 46.5L22.75 51.87"
        transform="matrix(1.0607,0,0,1.0707,16.5604,-12.0498)"
  />
  <path style="fill:none; stroke:#000000; stroke-width:1.62"
        d="M12 42.12L22.5 46.87"
        transform="matrix(1.0607,0,0,1.0707,17.2234,-12.0498)"
  />
  <path style="fill:none; stroke:#000000; stroke-width:1.62"
        d="M10.37 35.75L22.75 40.75"
        transform="matrix(1.0607,0,0,1.0707,17.0908,-10.8453)"
  />
  <path style="fill:none; stroke:#000000; stroke-width:1.62"
        d="M11.75 31.37L22.5 35.75"
        transform="matrix(1.0607,0,0,1.0707,17.0908,-10.7114)"
  />
  <path style="fill:none; stroke:#000000; stroke-width:1.62"
        d="M11.87 27.5L22.37 31.37"
        transform="matrix(1.0607,0,0,1.117,16.9582,-12.7536)"
  />
  <path style="fill:none; stroke:#000000; stroke-width:1.86"
        d="M11.87 22.5L22.62 26.12"
        transform="matrix(1.0607,0,0,1.0707,16.693,-11.1129)"
  />
  <path style="fill:none; stroke:#000000; stroke-width:1.5"
        d="M22.5 51.75L30.12 43.5"
        transform="matrix(1.0707,0,0,1.0707,16.9902,-11.6483)"
  />
  <path style="fill:none; stroke:#000000; stroke-width:1.5"
        d="M22.5 46.87L30.37 39.25"
        transform="matrix(1.0707,0,0,1.0707,16.9902,-12.1837)"
  />
  <path style="fill:none; stroke:#000000; stroke-width:1.5"
        d="M22.62 41.37L30 35"
        transform="matrix(1.0706,-0.0158,0.0158,1.0706,16.5808,-11.6403)"
  />
  <path style="fill:none; stroke:#000000; stroke-width:1.5"
        d="M22.5 35.87L30 29.62"
        transform="matrix(1.0707,0,0,1.0707,17.2579,-11.1129)"
  />
  <path style="fill:none; stroke:#000000; stroke-width:1.5"
        d="M22.25 31.25L30.56 24.87"
        transform="matrix(1.0707,0,0,1.0707,16.9902,-10.7114)"
  />
  <path style="fill:none; stroke:#000000; stroke-width:1.74"
        d="M22.37 26L30.06 20.5"
        transform="matrix(1.0707,0,0,1.0707,16.9902,-10.3099)"
  />
  <path style="fill:#000000; fill-opacity:0.4039"
        d="M6 52L26 38L38.12 42.87L59.87 50L44 64L28.5 64.12L6 52z"
        transform="matrix(0.5767,0,0,0.9646,0.6334,2.6565)"
  />
  <path style="fill:none; stroke:#000000; stroke-width:4"
        d="M20.12 11.62L6 15.87V47L27.06 53.37L41 45.12V14.5L20.12 11.62z"
        transform="matrix(0.5896,0,0,1.0978,-0.3585,2.8569)"
  />
  <path style="fill:#00ff00"
        d="M6.31 24.5L6 47L28.37 53.25L28.25 28.75L6.31 24.5z"
        transform="matrix(0.5139,0,0,1.0352,1.0104,5.659)"
  />
  <path style="fill:#00ff00"
        d="M26.5 29.75L27.87 53.87L40.81 44.87L40.68 22.75L26.5 29.75z"
        transform="matrix(0.6117,0,0,1.0587,-1.6672,4.0978)"
  />
  <path style="fill:#ff0000"
        d="M11.31 17.93L11.25 29L22.37 32.25L22.18 21.18L11.31 17.93z"
        transform="matrix(1.0777,0,0,0.9865,-7.9699,1.9436)"
  />
  <path style="fill:#ff0000"
        d="M21.56 21.56L22 31.62L29.5 25.25L29.56 16.37L21.56 21.56z"
        transform="matrix(1.1328,0,0,1.0707,-10.0986,0.5312)"
  />
  <path style="fill:#ff0000"
        d="M21.31 10.87L7.56 14.75L27.87 18.62L43.93 13.5L21.31 10.87z"
        transform="matrix(0.5139,0,0,1.0311,1.0104,4.6119)"
  />
  <path style="fill:none; stroke:#000000; stroke-width:1.86"
        d="M12 46.5L22.75 51.87"
        transform="matrix(1.0562,0,0,1.0707,-9.0897,-0.0041)"
  />
  <path style="fill:none; stroke:#000000; stroke-width:1.86"
        d="M12 42.12L22.5 46.87"
        transform="matrix(1.0562,0,0,1.0707,-8.4295,-0.0041)"
  />
  <path style="fill:none; stroke:#000000; stroke-width:1.86"
        d="M10.37 35.75L22.75 40.75"
        transform="matrix(1.0562,0,0,1.0707,-8.5615,1.2004)"
  />
  <path style="fill:none; stroke:#000000; stroke-width:1.86"
        d="M11.75 31.37L22.5 35.75"
        transform="matrix(1.0562,0,0,1.0707,-8.5615,1.3342)"
  />
  <path style="fill:none; stroke:#000000; stroke-width:1.62"
        d="M11.87 27.5L22.37 31.37"
        transform="matrix(1.0562,0,0,1.0707,-8.6936,0.7812)"
  />
  <path style="fill:none; stroke:#000000; stroke-width:1.86"
        d="M11.87 22.5L22.62 26.12"
        transform="matrix(1.0559,0.0274,-0.0277,1.0703,-8.2761,0.4687)"
  />
  <path style="fill:none; stroke:#000000; stroke-width:1.74"
        d="M22.5 51.75L30.12 43.5"
        transform="matrix(1.0661,0,0,1.0707,-8.6618,0.3973)"
  />
  <path style="fill:none; stroke:#000000; stroke-width:1.74"
        d="M22.5 46.87L30.37 39.25"
        transform="matrix(1.0661,0,0,1.0707,-8.6618,-0.1379)"
  />
  <path style="fill:none; stroke:#000000; stroke-width:1.74"
        d="M22.62 41.37L30 35"
        transform="matrix(1.066,-0.0158,0.0157,1.0706,-9.0694,0.4053)"
  />
  <path style="fill:none; stroke:#000000; stroke-width:1.74"
        d="M22.5 35.87L30 29.62"
        transform="matrix(1.0661,0,0,1.0707,-8.3952,0.9327)"
  />
  <path style="fill:none; stroke:#000000; stroke-width:1.74"
        d="M22.25 31.25L30.56 24.87"
        transform="matrix(1.0661,0,0,1.0707,-8.6618,1.3342)"
  />
  <path style="fill:none; stroke:#000000; stroke-width:1.74"
        d="M22.37 26L30.06 20.5"
        transform="matrix(1.1811,0,0,1.2153,-11.1754,-2.1264)"
  />
  <linearGradient id="gradient0" gradientUnits="userSpaceOnUse" x1="-64" y1="-64" x2="64" y2="-64">
   <stop offset="0.9522" stop-color="#000000" stop-opacity="0.1137"/>
   <stop offset="1" stop-color="#000000"/>
  </linearGradient>
  <path style="fill:url(#gradient0)"
        d="M7.12 19.93L7.25 52.31L18.5 58.93L18.25 24.06L7.12 19.93z"
        transform="matrix(1.0236,0,0,1.0707,-4.089,-1.3425)"
  />
  <linearGradient id="gradient1" gradientUnits="userSpaceOnUse" x1="-64" y1="-64" x2="64" y2="-64">
   <stop offset="0.4209" stop-color="#000000" stop-opacity="0"/>
   <stop offset="1" stop-color="#000000"/>
  </linearGradient>
  <path style="fill:url(#gradient1)"
        d="M18.37 23.81L26 18.31L26.62 49.81L18.5 58.56L18.37 23.81z"
        transform="matrix(1.1031,0,0,1.0707,-5.2882,-1.3425)"
  />
  <linearGradient id="gradient2" gradientUnits="userSpaceOnUse" x1="-64" y1="-64" x2="64" y2="-64">
   <stop offset="1" stop-color="#010101" stop-opacity="0.7686"/>
   <stop offset="0.9375" stop-color="#000000" stop-opacity="0"/>
  </linearGradient>
  <path style="fill:url(#gradient2)"
        d="M7 20.06L18.25 23.56L26.12 18.43L15.5 15.31L7 20.06z"
        transform="matrix(1.0707,0,0,1.0707,-4.4243,-1.3425)"
  />
  <linearGradient id="gradient3" gradientUnits="userSpaceOnUse" x1="-64" y1="-64" x2="64" y2="-64">
   <stop offset="0.9522" stop-color="#000000" stop-opacity="0.1137"/>
   <stop offset="1" stop-color="#000000"/>
  </linearGradient>
  <path style="fill:url(#gradient3)"
        d="M31.5 8.5V40.5L42.37 46.62L42.25 12.25L31.5 8.5z"
        transform="matrix(1.0953,0,0,1.0707,-5.1997,-1.3425)"
  />
  <linearGradient id="gradient4" gradientUnits="userSpaceOnUse" x1="-64" y1="-64" x2="64" y2="-64">
   <stop offset="0.7454" stop-color="#000000" stop-opacity="0"/>
   <stop offset="1" stop-color="#000000"/>
  </linearGradient>
  <path style="fill:url(#gradient4)"
        d="M42.62 12.25L51 7.25L51.12 38.87L42.62 47.62V12.25z"
        transform="matrix(1.1337,0,0,1.074,-7.3767,-1.5004)"
  />
  <linearGradient id="gradient5" gradientUnits="userSpaceOnUse" x1="-64" y1="-64" x2="64" y2="-64">
   <stop offset="0.9577" stop-color="#010101" stop-opacity="0"/>
   <stop offset="1" stop-color="#010101"/>
  </linearGradient>
  <path style="fill:url(#gradient5)"
        d="M39.62 3.37L50.87 6.87L42.75 11.75L31.25 8.37L39.62 3.37z"
        transform="matrix(1.0707,0,0,1.0707,-4.4243,-1.3425)"
  />
  <path style="fill:#000000"
        d="M16 16V48H48V16H16z"
        transform="matrix(0.0312,0,0,1.0937,28.5,-10.5)"
  />
  <path style="fill:#000000"
        d="M16 16V48H48V16H16z"
        transform="matrix(0.0312,0,0,1.0937,49.5,-11.5)"
  />
  <path style="fill:#000000"
        d="M16 16V48H48V16H16z
           M12 46.5L22.75 51.87"
        transform="matrix(0.0312,0,0,1.0937,49.5,-11.5)"
  />
  <path style="fill:#b10000"
        d="M16 16V48H48V16H16z"
        transform="matrix(0.0312,0,0,0.0312,40.5,16.5)"
  />
  <path style="fill:#b10000"
        d="M16 16V48H48V16H16z"
        transform="matrix(0.0312,0,0,0.0312,38.4999,16.5)"
  />
  <path style="fill:#b10000"
        d="M16 16V48H48V16H16z"
        transform="matrix(0.0312,0,0,0.0312,41.4999,16.5)"
  />
  <path style="fill:#b10000"
        d="M16 16V48H48V16H16z"
        transform="matrix(0.0312,0,0,0.0312,39.4999,16.5)"
  />
  <path style="fill:#dd0000"
        d="M16 16V48H48V16H16z"
        transform="matrix(0.0312,0,0,0.0312,38.5,16.5)"
  />
  <path style="fill:#dd0000"
        d="M16 16V48H48V16H16z"
        transform="matrix(0.0312,0,0,0.0312,41.5,16.5)"
  />
  <path style="fill:#000000"
        d="M16 16V48H48V16H16z"
        transform="matrix(0.0312,0,0,1.0937,22.5,0.5)"
  />
 </g>
</svg>
