<?xml version="1.0" encoding="UTF-8" standalone="yes"?>
<svg version="1.1" width="64" height="64" color-interpolation="linearRGB"
     xmlns:svg="http://www.w3.org/2000/svg" xmlns="http://www.w3.org/2000/svg">
 <g>
  <path style="fill:#000000; fill-opacity:0.4313"
        d="M34.75 63.25H38.62L63 36.62L56.75 32.62L34.75 63.25z"
        transform="matrix(1,0,0,1,0.875,0)"
  />
  <path style="fill:none; stroke:#000000; stroke-width:4"
        d="M50.12 28.5C50.35 26.63 49.25 24.58 47.25 23.25C44.25 21.25 37.37 19.37 37.37 19.37C37.37 19.37 37.37 17.87 37.37 15C37.37 12.74 37.37 11.12 37.37 10C37.37 8.47 36.32 7.2 34.75 6.12C32.75 4.75 29.81 5.15 28.37 6C26.25 7.25 25.12 8.82 25.12 10.25C25.12 10.87 25.25 14.12 25.25 14.12C25.25 14.12 23.5 14.25 22 13.62C21.18 13.28 18.87 12.87 17.37 13.5C15.82 14.14 14.37 15.87 14.25 17C14.02 18.99 13.93 20.57 15 21.87C16.75 24 22.75 25.75 22.75 25.75L4.25 41.87V44.62L36.87 61.87L59.87 38L59.62 36L50.25 31.62L50.5 27.37"
        transform="matrix(0.994,0,0,1,-1.2565,-1.25)"
  />
  <linearGradient id="gradient0" gradientUnits="userSpaceOnUse" x1="-52.75" y1="-12.26" x2="40.3" y2="-66.97">
   <stop offset="0" stop-color="#272727"/>
   <stop offset="1" stop-color="#484848"/>
  </linearGradient>
  <path style="fill:url(#gradient0)"
        d="M37.87 58.25L37.75 63.37L60.5 39.87V35.87L37.87 58.25z"
        transform="matrix(1,0,0,1,-2.5,-2.5)"
  />
  <linearGradient id="gradient1" gradientUnits="userSpaceOnUse" x1="-64" y1="-64" x2="64" y2="-64">
   <stop offset="0.7913" stop-color="#464646"/>
   <stop offset="0.2877" stop-color="#797979"/>
  </linearGradient>
  <path style="fill:url(#gradient1)"
        d="M5.5 42.75L5.62 45.87L38 63.62L38.12 58.37L5.5 42.75z"
        transform="matrix(1,0,0,1,-2.5,-2.5)"
  />
  <linearGradient id="gradient2" gradientUnits="userSpaceOnUse" x1="-39.8" y1="-82.55" x2="84.84" y2="-53.46">
   <stop offset="0.341" stop-color="#898989"/>
   <stop offset="0.941" stop-color="#515151"/>
  </linearGradient>
  <path style="fill:url(#gradient2)"
        d="M31 19.75L7.37 40L40.12 55.62L61.87 33.62L31 19.75z"
        transform="matrix(1,0,0,1,-4.5,0.25)"
  />
  <path style="fill:#000000; fill-opacity:0.2392"
        d="M21.5 33.25L29.25 36.75L29.5 41.75L41.75 41.87L46.37 43.37C46.37 43.37 45.87 45.12 50.75 40.37C55.95 35.3 53.75 35.62 53.75 35.62L27.62 23C27.62 23 21.83 23.42 20.12 26.12C16.87 31.25 21.5 33.25 21.5 33.25z"
        transform="matrix(1,0,0,1,0.875,0)"
  />
  <linearGradient id="gradient3" gradientUnits="userSpaceOnUse" x1="0.84" y1="-100.14" x2="109.7" y2="-32.81">
   <stop offset="0.5064" stop-color="#ffacac"/>
   <stop offset="1" stop-color="#ff2222"/>
  </linearGradient>
  <path style="fill:url(#gradient3)"
        d="M16 32C16 40.83 23.16 48 32 48C40.83 48 46.12 39.25 48.62 32C49.15 30.45 64.5 9.37 64.5 9.37L82.12 -10.37L54.37 -32.62L17.87 24.12"
        transform="matrix(0.0865,0.3575,-0.3373,0.0816,26.4133,3.7639)"
  />
  <linearGradient id="gradient4" gradientUnits="userSpaceOnUse" x1="32.2" y1="179.66" x2="-54.79" y2="85.77">
   <stop offset="0.2892" stop-color="#ffffff"/>
   <stop offset="1" stop-color="#ff4949"/>
  </linearGradient>
  <path style="fill:url(#gradient4)"
        d="M32 16C23.16 16 16 23.16 16 32C16 40.83 23.16 48 32 48C40.83 48 48 40.83 48 32"
        transform="matrix(-0.2636,0.2611,-0.2611,-0.2636,46.7311,10.1394)"
  />
  <linearGradient id="gradient5" gradientUnits="userSpaceOnUse" x1="0.84" y1="-100.14" x2="109.7" y2="-32.81">
   <stop offset="0.5064" stop-color="#ffacac"/>
   <stop offset="1" stop-color="#ff2222"/>
  </linearGradient>
  <path style="fill:url(#gradient5)"
        d="M32 16C23.16 16 16 23.16 16 32C16 40.83 23.16 48 32 48C40.83 48 48 40.83 48 32C48 23.16 40.83 16 32 16z"
        transform="matrix(0.0227,0.4095,-0.4095,0.0211,54.3142,13.2792)"
  />
  <linearGradient id="gradient6" gradientUnits="userSpaceOnUse" x1="139.9" y1="-16.51" x2="73.81" y2="93.1">
   <stop offset="0.5553" stop-color="#e52424" stop-opacity="0.6784"/>
   <stop offset="1" stop-color="#eb5252" stop-opacity="0.6784"/>
  </linearGradient>
  <path style="fill:url(#gradient6)"
        d="M29 21.62C30.12 21.5 29.37 20.12 31.87 19.75C32.98 19.58 33.95 18.36 34.37 18C35.37 17.12 38.87 19.62 38.87 19.62C38.87 19.62 38 21 36.37 21.5C34.37 22.11 28.21 21.71 29 21.62z"
        transform="matrix(1,0,0,1,0.875,0)"
  />
  <linearGradient id="gradient7" gradientUnits="userSpaceOnUse" x1="27.24" y1="-103.18" x2="123.79" y2="-19.15">
   <stop offset="0.2892" stop-color="#ffffff"/>
   <stop offset="0.8345" stop-color="#ff3e3e"/>
  </linearGradient>
  <path style="fill:url(#gradient7)"
        d="M32 16C23.16 16 16 23.16 16 32C16 40.83 23.16 48 32 48C40.83 48 48 40.83 48 32C48 31.45 50.12 30.66 50.12 28.37C50.12 24.5 48.06 0.11 48.37 -0.25C49.12 -1.12 73.38 6.75 74.75 5.25C75.99 3.88 87.5 -7.37 87.5 -7.37L63.87 -30.5C63.87 -30.5 58.87 -22.96 53.25 -16.37C51.45 -14.27 55.26 -1.85 54.62 -1.12C53.73 -0.1 40.95 -3.67 38.75 -1.12C31.73 6.97 22 18.25 22 18.25L47.62 39.5C47.62 39.5 53.96 30.98 55.37 28.62C55.75 28 52.45 4.75 52.87 4.25C53.29 3.74 73.79 7.55 75.5 5.75C76.96 4.2 85.5 -5 85.5 -5"
        transform="matrix(0.2742,-0.2499,0.2368,0.2598,13.5827,35.0601)"
  />
  <linearGradient id="gradient8" gradientUnits="userSpaceOnUse" x1="53.15" y1="-112.92" x2="133.08" y2="-12.95">
   <stop offset="0.5769" stop-color="#ffacac"/>
   <stop offset="1" stop-color="#ff2222"/>
  </linearGradient>
  <path style="fill:url(#gradient8)"
        d="M48 32C48 23.16 40.83 16 32 16C23.16 16 16 23.16 16 32C16 41.12 24.32 40.8 24.37 38.5"
        transform="matrix(0.3671,0,0,0.3671,18.125,-1.8125)"
  />
  <linearGradient id="gradient9" gradientUnits="userSpaceOnUse" x1="0.84" y1="-100.14" x2="109.7" y2="-32.81">
   <stop offset="0.5064" stop-color="#ffacac"/>
   <stop offset="1" stop-color="#ff2222"/>
  </linearGradient>
  <path style="fill:url(#gradient9)"
        d="M32 16C23.16 16 16 23.16 16 32C16 40.83 23.16 48 32 48C40.83 48 48 40.83 48 32C48 23.16 40.83 16 32 16z"
        transform="matrix(0.0773,0.2952,-0.2802,0.0815,49.9166,14.7525)"
  />
 </g>
</svg>
