<?xml version="1.0" encoding="UTF-8" standalone="yes"?>
<svg version="1.1" width="64" height="64" color-interpolation="linearRGB"
     xmlns:svg="http://www.w3.org/2000/svg" xmlns="http://www.w3.org/2000/svg">
 <g>
  <path style="fill:#000000; fill-opacity:0.4117"
        d="M30.25 61.25C30.25 61.25 42.29 62.68 46.62 60.12C48.35 59.1 51.25 56.37 51.25 56.37L54.12 55.87L57.25 45.37L56.75 43.25C56.75 43.25 57.37 39.87 57 38.75C56.73 37.95 52.62 35.37 52.62 35.37"
        transform="matrix(1.0087,-0.0142,0.0142,1.0087,2.122,-0.2229)"
  />
  <path style="fill:none; stroke:#000000; stroke-width:1"
        d="M49.25 26.62L50.12 28.37C50.12 28.37 52.49 28.07 52.87 29.12C53.37 30.5 51.37 32.25 51.37 32.25C51.37 32.25 52.81 31.25 53 32.75C53.25 34.75 52 35.5 52 35.5C52 35.5 53 35.37 53.12 36.25C53.26 37.2 52 39.12 52 39.12C52 39.12 51.87 36.25 52.37 38C52.87 39.75 48.25 40.37 48.25 40.37H53.12"
        transform="matrix(1.0087,-0.0142,0.0142,1.0087,2.122,-0.2229)"
  />
  <path style="fill:none; stroke:#000000; stroke-width:2"
        d="M24.37 20.75C24.37 20.75 24.74 20.6 20.12 21.12C13.5 21.87 15.87 22.25 15.87 22.25"
        transform="matrix(0.9955,0.0883,-0.0935,0.892,0.3261,-0.8012)"
  />
  <linearGradient id="gradient0" gradientUnits="userSpaceOnUse" x1="-49.93" y1="-95.55" x2="131.79" y2="27.43">
   <stop offset="1" stop-color="#aaaaaa"/>
   <stop offset="0.4978" stop-color="#2b2b2b"/>
  </linearGradient>
  <path style="fill:url(#gradient0)"
        d="M49.75 32.37C49.75 32.37 52.87 34.37 53.37 35.25C53.87 36.12 52.87 38.37 52.87 38.37L36.87 54.12C36.87 54.12 33.62 56.37 32 56.5C30.37 56.62 27.25 55.75 27.25 55.75L5.12 43.12C5.12 43.12 3.75 42.37 3.37 40.62C3 38.87 5.75 37 5.75 37L21.87 24C21.87 24 24.37 22.37 25.75 22.25C27.12 22.12 29.12 22.87 29.12 22.87L49.75 32.37z"
        transform="matrix(1.0072,-0.0143,0.0147,1.0527,1.1418,1.2556)"
  />
  <path style="fill:none; stroke:#000000; stroke-width:2"
        d="M49.75 32.37C49.75 32.37 52.87 34.37 53.37 35.25C53.87 36.12 52.87 38.37 52.87 38.37L36.87 54.12C36.87 54.12 33.62 56.37 32 56.5C30.37 56.62 27.25 55.75 27.25 55.75L5.12 43.12C5.12 43.12 3.75 42.37 3.37 40.62C3 38.87 5.75 37 5.75 37L21.87 24C21.87 24 24.37 22.37 25.75 22.25C27.12 22.12 29.12 22.87 29.12 22.87L49.75 32.37z"
        transform="matrix(1.0072,-0.0143,0.0147,1.0527,1.1418,1.2556)"
  />
  <linearGradient id="gradient1" gradientUnits="userSpaceOnUse" x1="-55.07" y1="-88.99" x2="127.68" y2="33.7">
   <stop offset="1" stop-color="#aaaaaa"/>
   <stop offset="0.4968" stop-color="#2b2b2b"/>
  </linearGradient>
  <path style="fill:url(#gradient1)"
        d="M47.25 31.62C47.25 31.62 52.5 34.12 53.25 35.75C54 37.37 51.37 39.25 51.37 39.25L38 48.87C38 48.87 33.75 50.5 32.5 50.37C30.87 50.21 28.12 49.25 28.12 49.25L9.62 39.5C9.62 39.5 5.37 37.75 5 36C4.62 34.25 9.87 31.62 9.87 31.62L24.37 23.62C24.37 23.62 26.39 22.29 28.75 22C31.75 21.62 34 23.87 34 23.87L47.25 31.62z"
        transform="matrix(0.9856,-0.0139,0.0138,0.9852,1.8924,1.1287)"
  />
  <path style="fill:none; stroke:#000000; stroke-width:1"
        d="M47.25 31.62C47.25 31.62 52.5 34.12 53.25 35.75C54 37.37 51.37 39.25 51.37 39.25L38 48.87C38 48.87 33.75 50.5 32.5 50.37C30.87 50.21 28.12 49.25 28.12 49.25L9.62 39.5C9.62 39.5 5.37 37.75 5 36C4.62 34.25 9.87 31.62 9.87 31.62L24.37 23.62C24.37 23.62 26.39 22.29 28.75 22C31.75 21.62 34 23.87 34 23.87L47.25 31.62z"
        transform="matrix(0.9856,-0.0139,0.0138,0.9852,1.8924,1.1287)"
  />
  <linearGradient id="gradient2" gradientUnits="userSpaceOnUse" x1="-47.19" y1="-101.64" x2="136.6" y2="17.03">
   <stop offset="1" stop-color="#aaaaaa"/>
   <stop offset="0.4678" stop-color="#292929"/>
  </linearGradient>
  <path style="fill:url(#gradient2)"
        d="M45.25 31.25C45.25 31.25 50.25 33.87 51.25 35.37C52.25 36.87 50.75 37.75 50.75 37.75L38.12 43.62C38.12 43.62 34.96 44.61 32 44.12C29.75 43.75 26.75 42.37 26.75 42.37L13.25 35.37C13.25 35.37 8.95 33.41 8.12 31.75C7.12 29.75 11.37 28.25 11.37 28.25L24 24.62C24 24.62 27.33 23.25 29.25 23.25C31.25 23.25 32.87 24.37 32.87 24.37L45.25 31.25z"
        transform="matrix(1.036,-0.0146,0.0138,0.9852,1.2903,-2.0655)"
  />
  <path style="fill:none; stroke:#000000; stroke-width:1"
        d="M45.25 31.25C45.25 31.25 50.25 33.87 51.25 35.37C52.25 36.87 50.75 37.75 50.75 37.75L38.12 43.62C38.12 43.62 34.96 44.61 32 44.12C29.75 43.75 26.75 42.37 26.75 42.37L13.25 35.37C13.25 35.37 8.95 33.41 8.12 31.75C7.12 29.75 11.37 28.25 11.37 28.25L24 24.62C24 24.62 27.33 23.25 29.25 23.25C31.25 23.25 32.87 24.37 32.87 24.37L45.25 31.25z"
        transform="matrix(1.036,-0.0146,0.0138,0.9852,1.2903,-2.0655)"
  />
  <linearGradient id="gradient3" gradientUnits="userSpaceOnUse" x1="-64" y1="-64" x2="64" y2="-64">
   <stop offset="0" stop-color="#bababa"/>
   <stop offset="0.9381" stop-color="#383838"/>
  </linearGradient>
  <path style="fill:url(#gradient3)"
        d="M42.12 32.87C42.12 32.87 48.41 35.27 50.37 36.25C50.87 36.5 49.25 38.75 49.25 38.75L36.62 40C36.62 40 34.62 39.75 33 39.62C31.37 39.5 30.25 38.87 30.25 38.87L17 32.62C17 32.62 11.5 30.27 11.25 28.75C11 27.25 13.25 27.37 13.25 27.37L24.87 27.12C24.87 27.12 27.35 24.25 28.87 24.25C30 24.25 33.12 25.5 33.12 25.5L42.12 32.87z"
        transform="matrix(1.095,-0.0154,0.0138,0.9852,-0.5607,-5.8582)"
  />
  <path style="fill:none; stroke:#000000; stroke-width:1"
        d="M42.12 32.87C42.12 32.87 48.41 35.27 50.37 36.25C50.87 36.5 49.25 38.75 49.25 38.75L36.62 40C36.62 40 34.62 39.75 33 39.62C31.37 39.5 30.25 38.87 30.25 38.87L17 32.62C17 32.62 11.5 30.27 11.25 28.75C11 27.25 13.25 27.37 13.25 27.37L24.87 27.12C24.87 27.12 27.35 24.25 28.87 24.25C30 24.25 33.12 25.5 33.12 25.5L42.12 32.87z"
        transform="matrix(1.095,-0.0154,0.0138,0.9852,-0.5607,-5.8582)"
  />
  <linearGradient id="gradient4" gradientUnits="userSpaceOnUse" x1="-64" y1="-64" x2="64" y2="-64">
   <stop offset="0.3375" stop-color="#8b8b8b"/>
   <stop offset="0.927" stop-color="#3b3b3b"/>
  </linearGradient>
  <path style="fill:url(#gradient4)"
        d="M20.62 29.12L35.75 34.5L46.37 24.12L30.12 18.75L20.62 29.12z"
        transform="matrix(0.9706,-0.0136,0.0168,1.1971,2.0283,-11.7764)"
  />
  <linearGradient id="gradient5" gradientUnits="userSpaceOnUse" x1="-64" y1="-64" x2="64" y2="-64">
   <stop offset="1" stop-color="#434343"/>
   <stop offset="0.8843" stop-color="#282828"/>
  </linearGradient>
  <path style="fill:url(#gradient5)"
        d="M37.25 34.12L45.75 23.75L50.37 29.37L51.25 33.87L37.25 34.12z"
        transform="matrix(0.9706,-0.0136,0.0168,1.1971,2.0283,-11.7764)"
  />
  <path style="fill:none; stroke:#000000; stroke-width:2"
        d="M23.5 18.87C23.5 18.87 16.37 14.75 12 12.12C10.75 11.37 6.2 10.68 8 5.62C9.37 1.75 14.62 5.12 15.5 5.62C16.37 6.12 26.87 13.12 26.87 13.12L29.12 10.62L45.12 16.75L49.12 22.5L49 28.75"
        transform="matrix(1.0087,-0.0142,0.0142,1.0087,2.122,-0.2229)"
  />
  <linearGradient id="gradient6" gradientUnits="userSpaceOnUse" x1="-74.22" y1="-52.54" x2="52.95" y2="-66.99">
   <stop offset="0" stop-color="#5a5a5a"/>
   <stop offset="0.3597" stop-color="#292929"/>
  </linearGradient>
  <path style="fill:url(#gradient6)"
        d="M32 30C32 30 35.14 30.88 36.87 28.75C39 26.12 36.75 24.12 36.75 24.12L10.12 2.5C10.12 2.5 5.91 2.85 5 4C3.98 5.28 5 9 5 9L32 30z"
        transform="matrix(0.6999,-0.1558,0.1507,0.7982,6.5663,3.3577)"
  />
  <path style="fill:none; stroke:#000000; stroke-width:1"
        d="M32 30C32 30 35.14 30.88 36.87 28.75C39 26.12 36.75 24.12 36.75 24.12L10.12 2.5C10.12 2.5 5.91 2.85 5 4C3.98 5.28 5 9 5 9L32 30z"
        transform="matrix(0.6999,-0.1558,0.1507,0.7982,6.5663,3.3577)"
  />
  <path style="fill:#000000"
        d="M9.12 8C9.12 8 6.55 7.88 7.5 4.12C7.87 2.62 10.87 3.62 10.87 3.62"
        transform="matrix(0.8989,0,0,1.0049,1.2175,-0.0234)"
  />
  <linearGradient id="gradient7" gradientUnits="userSpaceOnUse" x1="-64" y1="-64" x2="64" y2="-64">
   <stop offset="0" stop-color="#636363"/>
   <stop offset="0.9239" stop-color="#565656"/>
  </linearGradient>
  <path style="fill:url(#gradient7)"
        d="M32 16C23.16 16 16 23.16 16 32C16 40.83 23.89 48.4 32.5 46.37C41.5 44.25 43.29 39.74 46.62 31.5C49.5 24.37 40.83 16 32 16z"
        transform="matrix(0.1987,0.0047,-0.0047,0.1979,7.1701,0.6436)"
  />
  <linearGradient id="gradient8" gradientUnits="userSpaceOnUse" x1="-64" y1="-64" x2="64" y2="-64">
   <stop offset="0.599" stop-color="#3e3e3e"/>
   <stop offset="1" stop-color="#2b2a2a"/>
  </linearGradient>
  <path style="fill:url(#gradient8)"
        d="M32 16C23.16 15.86 16 23.16 16 32C16 40.83 27.5 49.25 35.12 47.25C44.06 44.9 45.04 41.49 48.37 33.25C51.25 26.12 40.25 16.12 32 16z"
        transform="matrix(0.1347,0.0032,-0.0032,0.1342,7.2704,1.7123)"
  />
  <path style="fill:none; stroke:#000000; stroke-width:1"
        d="M6.87 39C6.87 39 4 37 4 35.87C4 34.75 6.37 32.87 6.37 32.87L8.87 31.37C8.87 31.37 6.87 30.25 6.87 28.62C6.87 27.25 8.62 25.75 8.62 25.75L11.62 24.87C11.62 24.87 10.46 23.99 10.25 22.25"
        transform="matrix(1.0087,-0.0142,0.0142,1.0087,2.122,-0.2229)"
  />
  <path style="fill:none; stroke:#000000; stroke-width:1"
        d="M24.12 19.5L24.87 18.25"
  />
  <path style="fill:#000000; fill-opacity:0.3176"
        d="M38.25 28.75L51.5 27.87C51.5 27.87 54.75 28.12 55.12 29.25C55.5 30.37 53.87 31 53.87 31L49.87 31.5L38.25 28.75z"
  />
  <path style="fill:#000000; fill-opacity:0.3176"
        d="M37.75 17.62L40.37 25.75L38.75 28.62L34.37 27.75L32.5 22.75C32.5 22.75 35.32 23.1 36.5 22.12C37.25 21.5 37.75 17.62 37.75 17.62z"
  />
  <path style="fill:#000000; fill-opacity:0.3176"
        d="M33.37 27.25L28.75 29.5C28.75 29.5 29.96 30.42 31.5 31C32.96 31.54 34.75 31.75 34.75 31.75L38.62 28.37L33.37 27.25z"
  />
  <path style="fill:#000000; fill-opacity:0.3176"
        d="M28.87 35.37L26.25 37L27.5 38.5C27.5 38.5 30.08 39.62 30.87 39.62C31.75 39.62 34.75 37.62 34.75 37.62L28.87 35.37z"
        transform="matrix(0.8462,0,0,0.923,4.6565,2.0096)"
  />
  <path style="fill:#000000; fill-opacity:0.3176"
        d="M28.25 45.12L26.5 46.25C26.5 46.25 27.62 48 28.25 48C28.87 48 30.75 47.87 30.75 47.87L31.87 47.37L28.25 45.12z"
        transform="matrix(1,0,0,1,-1.375,-3.625)"
  />
  <path style="fill:#3b3b3b"
        d="M16 16V48H48V16H16z"
        transform="matrix(0.0312,0,0,0.0937,36.5,18.5)"
  />
  <path style="fill:#3b3b3b"
        d="M16 16V48H48V16H16z"
        transform="matrix(0.0312,0,0,0.0624,32.5,22)"
  />
  <path style="fill:#3b3b3b"
        d="M16 16V48H48V16H16z"
        transform="matrix(0.0312,0,0,0.0624,32.5,22)"
  />
  <path style="fill:#3b3b3b"
        d="M16 16V48H48V16H16z"
        transform="matrix(0.0312,0,0,0.0312,37.5,20.5)"
  />
  <path style="fill:#3b3b3b"
        d="M16 16V48H48V16H16z"
        transform="matrix(0.0937,0,0,0.125,34.5,20)"
  />
 </g>
</svg>
