<?xml version="1.0" encoding="iso-8859-1"?>
<!-- Generator: Adobe Illustrator 10.0, SVG Export Plug-In . SVG Version: 3.0.0 Build 43)  -->
<!DOCTYPE svg PUBLIC "-//W3C//DTD SVG 1.0//EN"    "http://www.w3.org/TR/2001/PR-SVG-20010719/DTD/svg10.dtd" [
	<!ENTITY ns_flows "http://ns.adobe.com/Flows/1.0/">
	<!ENTITY ns_svg "http://www.w3.org/2000/svg">
	<!ENTITY ns_xlink "http://www.w3.org/1999/xlink">
	<!ENTITY ns_extend "http://ns.adobe.com/Extensibility/1.0/">
	<!ENTITY ns_ai "http://ns.adobe.com/AdobeIllustrator/10.0/">
	<!ENTITY ns_graphs "http://ns.adobe.com/Graphs/1.0/">
	<!ENTITY ns_vars "http://ns.adobe.com/Variables/1.0/">
	<!ENTITY ns_imrep "http://ns.adobe.com/ImageReplacement/1.0/">
	<!ENTITY ns_sfw "http://ns.adobe.com/SaveForWeb/1.0/">
	<!ENTITY ns_custom "http://ns.adobe.com/GenericCustomNamespace/1.0/">
	<!ENTITY ns_adobe_xpath "http://ns.adobe.com/XPath/1.0/">
]>
<svg  xmlns:graph="" xmlns:xlink="&ns_xlink;" xmlns:x="&ns_extend;" xmlns:i="&ns_ai;"
	 xmlns="http://www.w3.org/2000/svg" xmlns:a="http://ns.adobe.com/AdobeSVGViewerExtensions/3.0/" width="50.482" height="50.941"
	 viewBox="0 0 50.482 50.941" overflow="visible" enable-background="new 0 0 50.482 50.941" xml:space="preserve">
	<metadata>
		<sfw>
			<slices></slices>
			<sliceSourceBounds  y="394.029" x="271.259" width="50.482" height="50.941" bottomLeftOrigin="true"></sliceSourceBounds>
		</sfw>
	</metadata>
	<g id="Layer_1" stroke="#000000">
		<g id="Layer_1_2_">
			<path stroke="none" d="M15.011,9.724L0.089,20.529L0,25.776c0,0,2.34-1.704,2.665-1.94c0,3.372,0,15.146,0,15.146l24.102,11.959
				l15.599-13.036c0,0,0-8.051,0-9.012c0.62-0.518,3.023-2.526,3.023-2.526V22.71L30.612,0L15.011,9.724z"/>
			
				<linearGradient id="XMLID_1_" gradientUnits="userSpaceOnUse" x1="-221.5313" y1="366.1963" x2="-217.6549" y2="370.8479" gradientTransform="matrix(1 0 0 -1 233.3975 406.7656)">
				<stop  offset="0" style="stop-color:#BFBFBF"/>
				<stop  offset="1" style="stop-color:#555555"/>
				
				
				
			</linearGradient>
			<path fill="url(#XMLID_1_)" stroke="none" d="M12.065,42.349V27.627l6.301,3.127v14.721L12.065,42.349z"/>
			
				<linearGradient id="XMLID_2_" gradientUnits="userSpaceOnUse" x1="-194.165" y1="367.4521" x2="-263.6884" y2="422.55" gradientTransform="matrix(1 0 0 -1 233.3975 406.7656)">
				<stop  offset="0" style="stop-color:#BFBFBF"/>
				<stop  offset="1" style="stop-color:#898989"/>
				
				
				
			</linearGradient>
			<path fill="url(#XMLID_2_)" stroke="none" d="M41.203,20.615l-14.599,12.2v16.747l14.599-12.201V20.615z"/>
			<path fill="#BFBFBF" stroke="none" d="M13.592,28.313l-1.526-0.608v14.645l1.526-1.262V28.313z"/>
			<path opacity="0.2" stroke="none" d="M42.366,37.905L26.767,50.941h9.476l14.239-12.014l-0.171-3.159l-7.921-0.951L42.366,37.905
				z"/>
			
				<linearGradient id="XMLID_3_" gradientUnits="userSpaceOnUse" x1="-204.5996" y1="373.7646" x2="-254.6736" y2="384.6664" gradientTransform="matrix(1 0 0 -1 233.3975 406.7656)">
				<stop  offset="0" style="stop-color:#FFFFFF"/>
				<stop  offset="1" style="stop-color:#E6E6E6"/>
				
				
				
			</linearGradient>
			<path fill="url(#XMLID_3_)" stroke="none" d="M15.216,13.004l-11.388,8.51v16.747l8.237,4.088V27.627l6.301,3.127v14.721
				l8.237,4.088V32.815L15.216,13.004z"/>
			
				<linearGradient id="XMLID_4_" gradientUnits="userSpaceOnUse" x1="-209.8569" y1="367.3867" x2="-227.2228" y2="393.0231" gradientTransform="matrix(1 0 0 -1 233.3975 406.7656)">
				<stop  offset="0" style="stop-color:#F75625"/>
				<stop  offset="1" style="stop-color:#FB0F0C"/>
				
				
				
			</linearGradient>
			<path fill="url(#XMLID_4_)" stroke="none" d="M29.626,35.081L15.661,10.689L1.242,21.13l-0.04,2.333l14.006-10.195l14.418,24.75
				V35.081z"/>
			<path fill="#FB0F0C" stroke="none" d="M44.226,23.056L30.259,1.59l-14.599,9.099l13.966,24.566L44.226,23.056z"/>
			
				<linearGradient id="XMLID_5_" gradientUnits="userSpaceOnUse" x1="-189.3174" y1="382.3281" x2="-203.503" y2="370.2285" gradientTransform="matrix(1 0 0 -1 233.3975 406.7656)">
				<stop  offset="0" style="stop-color:#F75625"/>
				<stop  offset="1" style="stop-color:#FB0F0C"/>
				
				
				
			</linearGradient>
			<path fill="url(#XMLID_5_)" stroke="none" d="M44.226,23.056l-14.6,12.2v2.769l14.6-12.201V23.056z"/>
			<path opacity="0.2" stroke="none" d="M44.226,23.056l-14.6,12.2v2.769l14.6-12.201V23.056z"/>
			<path opacity="0.2" stroke="none" d="M15.208,13.268l-11.38,8.314l-0.027,1.701l12.152-8.726L15.208,13.268z"/>
			<path fill="#EAC510" stroke="none" d="M35.247,11.114l-3.556,3.169v8.443l3.556-3.169V11.114z"/>
			<path fill="#F7E219" stroke="none" d="M27.156,12.076v2.677l4.535,7.974v-8.443L27.156,12.076z"/>
			<path fill="#F8F98B" stroke="none" d="M30.711,8.908l-3.557,3.168l4.536,2.207l3.556-3.169L30.711,8.908z"/>
			<path fill="#9F0F09" stroke="none" d="M35.247,19.557l0.532-8.681l-5.067-1.968l4.535,2.206V19.557z"/>
			<path opacity="0.2" stroke="none" d="M30.888,9.881l-2.269,2.021l2.894,1.408l2.27-2.022L30.888,9.881z"/>
			<path opacity="0.5" stroke="none" d="M30.888,9.881l-2.269,2.021l2.894,1.408l-0.596-1.041L30.888,9.881z"/>
		</g>
	</g>
</svg>
