<?xml version="1.0" encoding="iso-8859-1"?>
<!-- Generator: Adobe Illustrator 9.0, SVG Export Plug-In  -->
<!DOCTYPE svg PUBLIC "-//W3C//DTD SVG 20000303 Stylable//EN"   "http://www.w3.org/TR/2000/03/WD-SVG-20000303/DTD/svg-20000303-stylable.dtd" [
	<!ENTITY st0 "fill:url(#aigrd1);stroke:none;">
	<!ENTITY st1 "opacity:0.57;stroke:none;">
	<!ENTITY st2 "fill:#FFFFFF;stroke:none;">
	<!ENTITY st3 "stroke-width:0.9135;">
	<!ENTITY st4 "fill:none;stroke:none;">
	<!ENTITY st5 "fill-rule:nonzero;clip-rule:nonzero;stroke:#000000;stroke-miterlimit:4;">
]>
<svg  width="24pt" height="24pt" viewBox="0 0 24 24" xml:space="preserve">
	<g id="Layer_x0020_2" style="&st5;">
		<path style="&st3;" d="M3.3,0.9c-0.8,0-1.5,0.7-1.5,1.5v19.4c0,0.8,0.7,1.5,1.5,1.5h17.5c0.8,0,1.5-0.7,1.5-1.5V2.4c0-0.8-0.7-1.5-1.5-1.5H3.3z"/>
		<path style="&st2;" d="M21.4,21.8c0,0.3-0.3,0.6-0.6,0.6H3.3c-0.3,0-0.6-0.3-0.6-0.6V2.4c0-0.3,0.3-0.6,0.6-0.6h17.5c0.3,0,0.6,0.3,0.6,0.6v19.4z"/>
		<linearGradient id="aigrd1" gradientUnits="userSpaceOnUse" x1="19.1758" y1="18.46" x2="5.4157" y2="6.0595">
			<stop  offset="0" style="stop-color:#FFFFFF"/>
			<stop  offset="1" style="stop-color:#EDEDED"/>
		</linearGradient>
		<path style="&st0;" d="M3.3,2.3c-0.1,0-0.1,0.1-0.1,0.1v19.4c0,0.1,0.1,0.1,0.1,0.1h17.5c0.1,0,0.1-0.1,0.1-0.1V2.4c0-0.1,0-0.1-0.1-0.1H3.3z"/>
		<path style="&st1;" d="M8.1,14.4c0,0.8-0.6,1.4-1.4,1.4c-0.8,0-1.4-0.6-1.4-1.4S5.9,13,6.7,13c0.8,0,1.4,0.6,1.4,1.4z"/>
		<path style="&st1;" d="M18.7,19.8h-9v-2.2h9v2.2z"/>
		<path style="&st1;" d="M18.7,11.2h-9V9h9v2.2z"/>
		<path style="&st1;" d="M18.7,7.1h-9V4.9h9v2.2z"/>
		<path style="&st1;" d="M18.7,15.5h-9v-2.2h9v2.2z"/>
		<path style="&st1;" d="M8.1,6c0,0.8-0.6,1.4-1.4,1.4C5.9,7.4,5.3,6.8,5.3,6c0-0.8,0.6-1.4,1.4-1.4c0.8,0,1.4,0.6,1.4,1.4z"/>
	</g>
	<g id="Layer_x0020_3" style="&st5;">
		<path style="&st4;" d="M24,24H0V0h24v24z"/>
	</g>
</svg>
