<?xml version="1.0" encoding="iso-8859-1"?>
<!-- Generator: Adobe Illustrator 9.0, SVG Export Plug-In  -->
<!DOCTYPE svg PUBLIC "-//W3C//DTD SVG 20000303 Stylable//EN"   "http://www.w3.org/TR/2000/03/WD-SVG-20000303/DTD/svg-20000303-stylable.dtd" [
	<!ENTITY st0 "fill-rule:nonzero;clip-rule:nonzero;fill:#5C5C5C;stroke:#000000;stroke-miterlimit:4;">
	<!ENTITY st1 "fill:url(#aigrd1);stroke:none;">
	<!ENTITY st2 "opacity:0.37;fill:url(#aigrd7);stroke-width:0.4271;">
	<!ENTITY st3 "filter:url(#SVG_InvertMaskFilter);">
	<!ENTITY st4 "opacity:0.37;fill:url(#aigrd6);stroke-width:0.4271;">
	<!ENTITY st5 "fill:#FFFFFF;stroke:none;">
	<!ENTITY st6 "opacity:0.37;fill:url(#aigrd5);stroke-width:0.4271;">
	<!ENTITY st7 "filter:url(#SVG_MaskFilter);">
	<!ENTITY st8 "mask:url(#aimsk1);">
	<!ENTITY st9 "fill:url(#aigrd2);stroke:none;">
	<!ENTITY st10 "fill:none;stroke:none;">
	<!ENTITY st11 "opacity:0.37;fill:url(#aigrd4);stroke-width:0.4271;">
	<!ENTITY st12 "fill:#000000;stroke-width:0.8541;">
	<!ENTITY st13 "stroke:none;">
	<!ENTITY st14 "opacity:0.37;fill:url(#aigrd3);stroke-width:0.4271;">
]>
<svg  width="24pt" height="24pt" viewBox="0 0 24 24" xml:space="preserve">
	<defs>
		<filter id="SVG_InvertMaskFilter" filterUnits="objectBoundingBox" >
			<feColorMatrix type="luminanceToAlpha"/>
			<feComponentTransfer>
				<feFuncA type="table" tableValues="1 0"/>
			</feComponentTransfer>
		</filter>
	</defs>
	<defs>
		<filter id="SVG_MaskFilter" filterUnits="objectBoundingBox" >
			<feColorMatrix type="luminanceToAlpha"/>
		</filter>
	</defs>
	<g id="Layer_x0020_1" style="&st0;">
		<path style="&st12;" d="M2.2,2.8C1.5,2.8,1,3.3,1,4v16.3c0,0.7,0.5,1.2,1.2,1.2h19.4c0.7,0,1.2-0.5,1.2-1.2V4c0-0.7-0.5-1.2-1.2-1.2H2.2z"/>
		<linearGradient id="aigrd1" gradientUnits="userSpaceOnUse" x1="19.0322" y1="19.4424" x2="4.7065" y2="4.7787">
			<stop  offset="0" style="stop-color:#E4E4E4"/>
			<stop  offset="1" style="stop-color:#FEFEFE"/>
		</linearGradient>
		<path style="&st1;" d="M21.9,20.3c0,0.2-0.2,0.3-0.3,0.3H2.2c-0.2,0-0.3-0.2-0.3-0.3V4c0-0.2,0.2-0.3,0.3-0.3h19.4c0.2,0,0.3,0.2,0.3,0.3v16.3z"/>
		<linearGradient id="aigrd2" gradientUnits="userSpaceOnUse" x1="4.6401" y1="5.708" x2="18.8671" y2="18.3172">
			<stop  offset="0" style="stop-color:#E4E4E4"/>
			<stop  offset="1" style="stop-color:#FEFEFE"/>
		</linearGradient>
		<path style="&st9;" d="M2.7,4.5c0,0.9,0,14.3,0,15.2c0.9,0,17.4,0,18.4,0c0-0.9,0-14.3,0-15.2c-0.9,0-17.4,0-18.4,0z"/>
		<mask x="1.8545" y="3.667" width="20.0791" height="16.9385" id="aimsk1">
			<g style="&st7;">
				<path style="&st5;" d="M1.9,3.7v16.9h20.1V3.7z"/>
				<g style="&st13;">
					<path d="M1.9,20h0.9V4.5H1.9V20z"/>
					<path d="M21.1,3.5H2.8v1h18.3v-1z"/>
				</g>
			</g>
		</mask>
		<g style="&st8;">
			<linearGradient id="aigrd3" gradientUnits="userSpaceOnUse" x1="7.3237" y1="12.4521" x2="16.288" y2="20.3971">
				<stop  offset="0" style="stop-color:#E4E4E4"/>
				<stop  offset="1" style="stop-color:#FEFEFE"/>
			</linearGradient>
			<path style="&st14;" d="M1.9,16.5h20.1"/>
			<linearGradient id="aigrd4" gradientUnits="userSpaceOnUse" x1="7.3237" y1="8.2236" x2="16.288" y2="16.1686">
				<stop  offset="0" style="stop-color:#E4E4E4"/>
				<stop  offset="1" style="stop-color:#FEFEFE"/>
			</linearGradient>
			<path style="&st11;" d="M1.9,12.3h20.1"/>
			<linearGradient id="aigrd5" gradientUnits="userSpaceOnUse" x1="7.3242" y1="4.0815" x2="16.2879" y2="12.0259">
				<stop  offset="0" style="stop-color:#E4E4E4"/>
				<stop  offset="1" style="stop-color:#FEFEFE"/>
			</linearGradient>
			<path style="&st6;" d="M1.9,8.1h20.1"/>
			<linearGradient id="aigrd6" gradientUnits="userSpaceOnUse" x1="12.0791" y1="9.1079" x2="18.7813" y2="15.048">
				<stop  offset="0" style="stop-color:#E4E4E4"/>
				<stop  offset="1" style="stop-color:#FEFEFE"/>
			</linearGradient>
			<path style="&st4;" d="M15.5,3.7v16.9"/>
			<linearGradient id="aigrd7" gradientUnits="userSpaceOnUse" x1="5.2036" y1="9.1079" x2="11.9058" y2="15.048">
				<stop  offset="0" style="stop-color:#E4E4E4"/>
				<stop  offset="1" style="stop-color:#FEFEFE"/>
			</linearGradient>
			<path style="&st2;" d="M8.6,3.7v16.9"/>
		</g>
	</g>
	<g id="Layer_x0020_2" style="fill-rule:nonzero;clip-rule:nonzero;stroke:#000000;stroke-miterlimit:4;">
		<path style="&st10;" d="M24,24H0V0h24v24z"/>
	</g>
</svg>
