<?xml version="1.0" encoding="iso-8859-1"?>
<!-- Generator: Adobe Illustrator 9.0, SVG Export Plug-In  -->
<!DOCTYPE svg PUBLIC "-//W3C//DTD SVG 20000303 Stylable//EN"   "http://www.w3.org/TR/2000/03/WD-SVG-20000303/DTD/svg-20000303-stylable.dtd" [
	<!ENTITY st0 "fill:url(#aigrd1);stroke:none;">
	<!ENTITY st1 "fill:#FFFFFF;stroke:none;">
	<!ENTITY st2 "stroke-width:0.8568;">
	<!ENTITY st3 "fill:none;stroke:none;">
	<!ENTITY st4 "fill-rule:nonzero;clip-rule:nonzero;stroke:#000000;stroke-miterlimit:4;">
	<!ENTITY st5 "stroke:none;">
]>
<svg  width="24pt" height="24pt" viewBox="0 0 24 24" xml:space="preserve">
	<g id="Layer_x0020_4" style="&st4;">
		<path style="&st2;" d="M2.6,1.6C1.8,1.6,1.2,2.2,1.2,3v18.2c0,0.8,0.6,1.4,1.4,1.4h19c0.8,0,1.4-0.6,1.4-1.4V3c0-0.8-0.6-1.4-1.4-1.4h-19z"/>
		<path style="&st1;" d="M22.1,21.2c0,0.3-0.2,0.5-0.5,0.5h-19c-0.3,0-0.5-0.2-0.5-0.5V3c0-0.3,0.2-0.5,0.5-0.5h19c0.3,0,0.5,0.2,0.5,0.5v18.2z"/>
		<linearGradient id="aigrd1" gradientUnits="userSpaceOnUse" x1="19.2197" y1="18.54" x2="5.3095" y2="6.0043">
			<stop  offset="0" style="stop-color:#FFFFFF"/>
			<stop  offset="1" style="stop-color:#EDEDED"/>
		</linearGradient>
		<path style="&st0;" d="M2.6,2.9c-0.1,0-0.1,0-0.1,0.1v18.2c0,0.1,0,0.1,0.1,0.1h19c0.1,0,0.1,0,0.1-0.1V3c0-0.1,0-0.1-0.1-0.1h-19z"/>
	</g>
	<g id="Layer_x0020_2" style="&st4;">
		<g>
			<path style="&st5;" d="M6,18.5l7-12.3h2l2,12.3h-1.6L14.8,15h-5l-2,3.5H6z M10.5,13.7h4.1l-0.5-3.1c-0.2-1.2-0.3-2.3-0.3-3.1c-0.3,0.7-0.7,1.5-1.2,2.5l-2,3.7z"/>
		</g>
		<path style="&st3;" d="M24,24H0V0h24v24z"/>
	</g>
</svg>
