<?xml version="1.0" encoding="iso-8859-1"?>
<!-- Generator: Adobe Illustrator 9.0, SVG Export Plug-In  -->
<!DOCTYPE svg PUBLIC "-//W3C//DTD SVG 20000303 Stylable//EN"   "http://www.w3.org/TR/2000/03/WD-SVG-20000303/DTD/svg-20000303-stylable.dtd" [
	<!ENTITY st0 "fill:url(#aigrd1);stroke:none;">
	<!ENTITY st1 "opacity:0.45;">
	<!ENTITY st2 "fill:#FFFFFF;stroke:none;">
	<!ENTITY st3 "stroke-width:0.8568;">
	<!ENTITY st4 "fill:none;stroke:none;">
	<!ENTITY st5 "fill-rule:nonzero;clip-rule:nonzero;stroke:#000000;stroke-miterlimit:4;">
	<!ENTITY st6 "stroke:none;">
]>
<svg  width="24pt" height="24pt" viewBox="0 0 24 24" xml:space="preserve">
	<g id="Layer_x0020_4" style="&st5;">
		<path style="&st3;" d="M2.6,1.6C1.8,1.6,1.2,2.2,1.2,3v18.2c0,0.8,0.6,1.4,1.4,1.4h19c0.8,0,1.4-0.6,1.4-1.4V3c0-0.8-0.6-1.4-1.4-1.4h-19z"/>
		<path style="&st2;" d="M22.1,21.2c0,0.3-0.2,0.5-0.5,0.5h-19c-0.3,0-0.5-0.2-0.5-0.5V3c0-0.3,0.2-0.5,0.5-0.5h19c0.3,0,0.5,0.2,0.5,0.5v18.2z"/>
		<linearGradient id="aigrd1" gradientUnits="userSpaceOnUse" x1="19.2197" y1="18.54" x2="5.3095" y2="6.0043">
			<stop  offset="0" style="stop-color:#FFFFFF"/>
			<stop  offset="1" style="stop-color:#EDEDED"/>
		</linearGradient>
		<path style="&st0;" d="M2.6,2.9c-0.1,0-0.1,0-0.1,0.1v18.2c0,0.1,0,0.1,0.1,0.1h19c0.1,0,0.1,0,0.1-0.1V3c0-0.1,0-0.1-0.1-0.1h-19z"/>
	</g>
	<g id="Layer_x0020_2" style="&st5;">
		<g style="&st6;">
			<path style="&st1;" d="M19.5,18.5H4.9v-1.4h14.6v1.4z"/>
			<path style="&st1;" d="M19.5,15.6H4.9v-1.4h14.6v1.4z"/>
			<path style="&st1;" d="M19.5,12.7H4.9v-1.4h14.6v1.4z"/>
			<path style="&st1;" d="M19.5,9.8H4.9V8.4h14.6v1.4z"/>
			<path style="&st1;" d="M19.5,6.9H4.9V5.5h14.6v1.4z"/>
		</g>
	</g>
	<g id="Layer_x0020_3" style="&st5;">
		<path style="&st4;" d="M24,24H0V0h24v24z"/>
	</g>
</svg>
