<?xml version="1.0" encoding="UTF-8" standalone="no"?>
<!DOCTYPE svg PUBLIC "-//W3C//DTD SVG 20010904//EN"
"http://www.w3.org/TR/2001/REC-SVG-20010904/DTD/svg10.dtd">
<!-- Created with Sodipodi ("http://www.sodipodi.com/") -->
<svg
   width="144pt"
   height="144pt"
   id="svg577"
   sodipodi:version="0.33"
   sodipodi:docname="/home/peter/Documents/kwordquiz/kwordquiz/icons/crsc-mime-kwordquiz_doc.svg"
   sodipodi:docbase="/home/peter/Documents/kwordquiz/kwordquiz/icons/"
   xmlns="http://www.w3.org/2000/svg"
   xmlns:sodipodi="http://sodipodi.sourceforge.net/DTD/sodipodi-0.dtd"
   xmlns:xlink="http://www.w3.org/1999/xlink">
  <sodipodi:namedview
     id="base" />
  <defs
     id="defs578">
    <linearGradient
       id="defitem0"
       gradientUnits="userSpaceOnUse"
       x1="63.9204"
       y1="-26.5645"
       x2="63.9204"
       y2="228.935">
      <stop
         stop-color="#ffffff"
         offset="0"
         stop-opacity="1"
         id="stop580" />
      <stop
         stop-color="#f0f0f0"
         offset="0.258"
         stop-opacity="1"
         id="stop581" />
      <stop
         stop-color="#cdcdcd"
         offset="0.7396"
         stop-opacity="1"
         id="stop582" />
      <stop
         stop-color="#c3c3c3"
         offset="0.8595"
         stop-opacity="1"
         id="stop583" />
    </linearGradient>
    <radialGradient
       id="defitem1"
       gradientUnits="userSpaceOnUse"
       cx="108.467"
       cy="9.751"
       fx="108.467"
       fy="9.751"
       r="34.736">
      <stop
         stop-color="#000000"
         offset="0"
         stop-opacity="1"
         id="stop585" />
      <stop
         stop-color="#000000"
         offset="1"
         stop-opacity="1"
         id="stop586" />
    </radialGradient>
    <linearGradient
       id="defitem2"
       gradientUnits="userSpaceOnUse"
       x1="-26.333"
       y1="154.333"
       x2="56.1662"
       y2="71.8338">
      <stop
         stop-color="#b3b3b3"
         offset="0"
         stop-opacity="1"
         id="stop588" />
      <stop
         stop-color="#828282"
         offset="1"
         stop-opacity="1"
         id="stop589" />
    </linearGradient>
    <linearGradient
       id="defitem3"
       gradientUnits="userSpaceOnUse"
       x1="104.017"
       y1="29.8193"
       x2="95.0883"
       y2="-7.7938">
      <stop
         stop-color="#ffffff"
         offset="0"
         stop-opacity="1"
         id="stop591" />
      <stop
         stop-color="#cccccc"
         offset="1"
         stop-opacity="1"
         id="stop592" />
    </linearGradient>
    <linearGradient
       id="defitem4"
       gradientUnits="userSpaceOnUse"
       x1="82.3086"
       y1="39.9072"
       x2="96.1043"
       y2="26.1115">
      <stop
         stop-color="#b3b3b3"
         offset="0"
         stop-opacity="1"
         id="stop594" />
      <stop
         stop-color="#828282"
         offset="1"
         stop-opacity="1"
         id="stop595" />
    </linearGradient>
    <linearGradient
       id="defitem5"
       gradientUnits="userSpaceOnUse"
       x1="43.0229"
       y1="102.579"
       x2="204.007"
       y2="16.9348">
      <stop
         stop-color="#ffffff"
         offset="0"
         stop-opacity="1"
         id="stop597" />
      <stop
         stop-color="#e6e6e6"
         offset="0.5033"
         stop-opacity="1"
         id="stop598" />
      <stop
         stop-color="#d4d4d4"
         offset="1"
         stop-opacity="1"
         id="stop599" />
    </linearGradient>
    <linearGradient
       id="defitem6"
       gradientUnits="userSpaceOnUse"
       x1="-56.2222"
       y1="117.349"
       x2="74.8195"
       y2="117.349">
      <stop
         stop-color="#ffffff"
         offset="0"
         stop-opacity="1"
         id="stop601" />
      <stop
         stop-color="#628aff"
         offset="1"
         stop-opacity="1"
         id="stop602" />
    </linearGradient>
    <linearGradient
       id="defitem7"
       gradientUnits="userSpaceOnUse"
       x1="59.8215"
       y1="105.276"
       x2="59.8215"
       y2="12.9208">
      <stop
         stop-color="#ffffff"
         offset="0"
         stop-opacity="1"
         id="stop604" />
      <stop
         stop-color="#00ff00"
         offset="0.526846"
         stop-opacity="1"
         id="stop605" />
      <stop
         stop-color="#00b300"
         offset="0.996644"
         stop-opacity="1"
         id="stop606" />
    </linearGradient>
    <linearGradient
       id="linearGradient569">
      <stop
         style="stop-color:#f3f3f3;stop-opacity:1.0000;"
         offset="0"
         id="stop570" />
      <stop
         style="stop-color:#b3cce6;stop-opacity:1.0000;"
         offset="1.000000"
         id="stop571" />
    </linearGradient>
    <linearGradient
       id="linearGradient574">
      <stop
         style="stop-color:#ffbf00;stop-opacity:1.0000;"
         offset="0"
         id="stop575" />
      <stop
         style="stop-color:#ffef7d;stop-opacity:1.0000;"
         offset="1.000000"
         id="stop576" />
    </linearGradient>
    <radialGradient
       xlink:href="#linearGradient574"
       id="radialGradient577"
       cx="0.281250"
       cy="0.148438"
       r="1.188425"
       fx="0.281250"
       fy="0.148438" />
    <linearGradient
       xlink:href="#linearGradient569"
       id="linearGradient578"
       x1="2.777772e-2"
       y1="2.343750e-2"
       x2="0.972222"
       y2="0.960938"
       spreadMethod="pad" />
  </defs>
  <path
     fill="url(#defitem1)"
     fill-opacity="0.1"
     d="M85.191 37.024L85.191 1.27L86.984 1.27L120.623 34.909L120.623 37.024L85.191 37.024Z"
     id="path612"
     transform="matrix(1.401511,0,0,-1.401511,0,179.3935)"
     style="font-size:12.000;fill:url(#defitem1);fill-opacity:0.100000;" />
  <path
     fill="#ffffff"
     d="M121.164 126.948L6.836 126.948L6.836 1.052L87.537 1.052L121.164 34.679L121.164 126.948Z"
     id="path610"
     transform="matrix(1.401511,0,0,-1.401511,0,179.3935)"
     style="font-size:12.000;fill:#ffffff;" />
  <path
     fill="url(#defitem2)"
     d="M121.164 127.448L6.336 127.448L6.336 0.552L87.744 0.552L121.664 34.472L121.664 127.448L121.164 127.448ZM120.664 126.448C120.664 125.461 120.664 35.296 120.664 34.886C120.375 34.597 87.619 1.841 87.33 1.552C86.92 1.552 8.32 1.552 7.336 1.552C7.336 2.54 7.336 125.461 7.336 126.448C8.322 126.448 119.678 126.448 120.664 126.448Z"
     id="path613"
     transform="matrix(1.401511,0,0,-1.401511,0,179.3935)"
     style="font-size:12.000;fill:url(#defitem2);" />
  <path
     fill="url(#defitem0)"
     d="M117.734 123.981L10.266 123.981L10.106 1.327L86.563 1.327L117.735 32.579L117.734 123.981Z"
     id="path611"
     transform="matrix(1.401511,0,0,-1.401511,0,179.3935)"
     style="font-size:12.000;fill:url(#defitem0);" />
  <path
     fill="url(#defitem5)"
     d="M118.006 112.777L118.006 124.06L10.199 124.06L10.103 58.72C20.078 54.173 31.254 51.624 43.057 51.624C80.402 51.624 111.455 79.124 118.006 112.777Z"
     id="path617"
     transform="matrix(1.401511,0,0,-1.401511,0,179.3935)"
     style="font-size:12.000;fill:url(#defitem5);" />
  <path
     fill="none"
     d="M 179.3935 179.3935 L 0 179.3935 L 0 0.000002 L 179.3935 0.000002 L 179.3935 179.3935 z "
     id="path618"
     style="font-size:12.000;fill:none;" />
  <path
     fill="url(#defitem6)"
     d="M 164.5332 23.85793 L 14.03334 23.85793 L 14.03334 5.997070 L 164.5346 5.997070 L 164.5346 23.85793 L 164.5332 23.85793 z "
     id="path619"
     style="font-size:12.000;fill:url(#defitem6);" />
  <text
     style="fill:#ffffff;stroke:#000000;font-family:Arial;font-style:normal;font-weight:bold;font-size:11;fill-opacity:1.0000;stroke-opacity:1.0000;stroke-width:0;stroke-linejoin:miter;stroke-linecap:butt;text-anchor:start;writing-mode:lr;stroke-dasharray:none;"
     x="13.7601029"
     y="14.7657720"
     id="text690"
     sodipodi:linespacing="100%"
     transform="scale(1.165569,1.270178)">
    <tspan
       x="13.7601032"
       y="14.7657719"
       sodipodi:role="line"
       id="tspan771">KWordQuiz</tspan>
  </text>
  <rect
     style="font-size:12.000;fill:url(#linearGradient578);fill-rule:evenodd;stroke:#000067;stroke-width:1.317017;"
     id="rect568"
     width="139.2765"
     height="101.9446"
     x="19.50621"
     y="40.39242" />
  <path
     style="font-size:12.000;fill:none;fill-rule:evenodd;stroke:#0000ff;stroke-width:4.214455;"
     d="M 32.42875 60.97273 C 33.95539 60.97273 39.41092 60.97273 42.76074 60.97273 C 45.59699 60.97273 48.43322 60.97273 51.26940 60.97273 C 55.32116 60.97273 59.37295 60.97273 63.42463 60.97273 C 65.85571 60.97273 68.28677 60.97273 70.71783 60.97273 "
     id="path591" />
  <path
     style="font-size:12.000;fill:none;fill-rule:evenodd;stroke:#ff0000;stroke-width:4.214455;"
     d="M 32.42874 76.72139 C 37.02759 76.72139 53.46240 76.72139 63.55380 76.72139 C 72.09795 76.72139 80.64208 76.72139 89.18621 76.72139 C 101.3921 76.72139 113.5980 76.72139 125.8039 76.72139 C 133.1275 76.72139 140.4509 76.72139 147.7745 76.72139 "
     id="path581" />
  <path
     style="font-size:12.000;fill:none;fill-rule:evenodd;stroke:#000000;stroke-width:4.214455;"
     d="M 32.42875 108.2187 C 34.94762 108.2187 43.94924 108.2187 49.47649 108.2187 C 54.15628 108.2187 58.83606 108.2187 63.51584 108.2187 C 70.20121 108.2187 76.88662 108.2187 83.57201 108.2187 C 87.58323 108.2187 91.59441 108.2187 95.60563 108.2187 "
     id="path585" />
  <path
     style="font-size:12.000;fill:none;fill-rule:evenodd;stroke:#000000;stroke-width:4.214455;"
     d="M 32.42875 92.47005 C 36.77949 92.47005 52.32777 92.47005 61.87483 92.47005 C 69.95810 92.47005 78.04135 92.47005 86.12458 92.47005 C 97.67207 92.47005 109.2195 92.47005 120.7670 92.47005 C 127.6955 92.47005 134.6240 92.47005 141.5525 92.47005 "
     id="path586" />
  <path
     style="font-size:72.000;font-weight:bold;fill:url(#radialGradient577);stroke:#9e6c00;stroke-width:2.469938;font-family:Arial;"
     d="M 103.3926 156.8426 C 95.44026 146.7938 95.44026 142.5765 103.3926 133.0577 L 126.1628 133.0577 C 116.0897 143.2834 116.0897 147.1471 126.1628 156.8426 L 103.3926 156.8426 L 103.3926 156.8426 L 103.3926 156.8426 L 103.3926 156.8426 z M 126.1628 124.8979 C 118.5727 116.4154 114.1637 114.2948 103.3926 124.8979 C 103.3337 121.7856 103.3044 119.8903 103.3044 119.2121 C 103.3044 112.1953 104.5236 106.4236 106.9618 101.8970 C 109.4001 97.37044 114.2764 92.27820 121.5903 86.62044 C 128.9042 80.96266 133.2747 77.25665 134.7016 75.50245 C 136.9027 72.73007 138.0033 69.67466 138.0033 66.33624 C 138.0033 61.72466 136.0531 57.77408 132.1528 54.48448 C 128.2524 51.19488 122.9969 49.55007 116.3858 49.55007 C 110.0140 49.55007 104.6839 51.27942 100.3955 54.73811 C 96.10715 58.19679 93.15935 62.93964 91.55217 70.02702 C 79.12995 77.58363 75.72044 75.59740 68.59985 66.71906 C 69.25448 56.57723 73.78764 49.02562 82.19933 41.94368 C 90.61100 34.86175 101.6535 31.32076 115.3271 31.32076 C 129.7140 31.32076 141.1584 34.89565 149.6601 42.04540 C 158.1620 49.19518 162.4129 57.51817 162.4129 67.01441 C 162.4129 72.27705 160.8541 77.25621 157.7365 81.95186 C 154.6189 86.64757 147.9538 93.04184 137.7414 101.1347 C 132.4568 105.3213 129.1760 108.6878 127.8989 111.2340 C 126.6220 113.7804 126.0433 118.3350 126.1628 124.8979 L 126.1628 124.8979 L 126.1628 124.8979 L 126.1628 124.8979 z "
     id="path573"
     sodipodi:nodetypes="ccccccccccccccccccccccccccccc"
     sodipodi:stroke-cmyk="(0 0.3148 1.0000 0.3796)" />
  <path
     fill="#ffffff"
     d="M87.537 1.052L121.164 34.679L87.537 34.679L87.537 1.052Z"
     id="path614"
     transform="matrix(1.401511,0,0,-1.401511,0,179.3935)"
     style="font-size:12.000;fill:#ffffff;" />
  <path
     fill="url(#defitem3)"
     d="M89.865 2.944L119.459 32.536L89.865 32.536L89.865 2.944Z"
     id="path615"
     transform="matrix(1.401511,0,0,-1.401511,0,179.3935)"
     style="font-size:12.000;fill:url(#defitem3);" />
  <path
     fill="url(#defitem4)"
     d="M87.537 35.179C87.26 35.179 87.037 34.956 87.037 34.679L87.037 1.052C87.037 0.849 87.158 0.667 87.346 0.589C87.532 0.513 87.748 0.556 87.891 0.698L121.518 34.325C121.661 34.47 121.704 34.684 121.627 34.87C121.549 35.058 121.367 35.179 121.164 35.179L87.537 35.179ZM119.957 34.179C118.377 32.601 89.615 3.839 88.037 2.259C88.037 4.468 88.037 33.245 88.037 34.179C88.971 34.179 117.748 34.179 119.957 34.179Z"
     id="path616"
     transform="matrix(1.401511,0,0,-1.401511,0,179.3935)"
     style="font-size:12.000;fill:url(#defitem4);" />
</svg>
