<?xml version="1.0" encoding="UTF-8" standalone="no"?>
<svg
   xmlns:dc="http://purl.org/dc/elements/1.1/"
   xmlns:cc="http://creativecommons.org/ns#"
   xmlns:rdf="http://www.w3.org/1999/02/22-rdf-syntax-ns#"
   xmlns:svg="http://www.w3.org/2000/svg"
   xmlns="http://www.w3.org/2000/svg"
   xmlns:sodipodi="http://sodipodi.sourceforge.net/DTD/sodipodi-0.dtd"
   xmlns:inkscape="http://www.inkscape.org/namespaces/inkscape"
   version="1.1"
   width="64"
   height="64"
   color-interpolation="linearRGB"
   id="svg2"
   inkscape:version="0.91 r13725"
   sodipodi:docname="lock-open-alarm.svg">
  <metadata
     id="metadata59">
    <rdf:RDF>
      <cc:Work
         rdf:about="">
        <dc:format>image/svg+xml</dc:format>
        <dc:type
           rdf:resource="http://purl.org/dc/dcmitype/StillImage" />
        <dc:title></dc:title>
      </cc:Work>
    </rdf:RDF>
  </metadata>
  <defs
     id="defs57" />
  <sodipodi:namedview
     pagecolor="#ffffff"
     bordercolor="#666666"
     borderopacity="1"
     objecttolerance="10"
     gridtolerance="10"
     guidetolerance="10"
     inkscape:pageopacity="0"
     inkscape:pageshadow="2"
     inkscape:window-width="770"
     inkscape:window-height="508"
     id="namedview55"
     showgrid="false"
     inkscape:zoom="3.6875"
     inkscape:cx="32"
     inkscape:cy="32"
     inkscape:window-x="578"
     inkscape:window-y="217"
     inkscape:window-maximized="0"
     inkscape:current-layer="svg2" />
  <g
     id="g4"
     transform="translate(-10,0)">
    <path
       style="fill:#010101;fill-opacity:0.44310004"
       d="m 38,64 10,0 C 52,64 60,56 58,54 56,52 46,50 46,50 l -8,14 z"
       id="path6"
       inkscape:connector-curvature="0" />
    <path
       style="fill:none;stroke:#000000;stroke-width:4;stroke-linejoin:round"
       d="m 14,50 c 0,0 5,3 11,6 6,3 13,6 13,6 l 8,-8 0,-24 C 46,30 38.81,27.27 32,25 27.15,23.38 22,22 22,22 l -8,4 0,24 z"
       id="path8"
       inkscape:connector-curvature="0" />
    <linearGradient
       id="gradient0"
       gradientUnits="userSpaceOnUse"
       x1="11.12"
       y1="5.4000001"
       x2="45.959999"
       y2="12.16">
      <stop
         offset="0"
         stop-color="#fffbcc"
         id="stop11" />
      <stop
         offset="1"
         stop-color="#f3d048"
         id="stop13" />
      <stop
         offset="0.7572"
         stop-color="#d1af27"
         id="stop15" />
    </linearGradient>
    <path
       style="fill:url(#gradient0)"
       d="m 14,50 c 0,0 5,3 11,6 6,3 13,6 13,6 L 38,36 C 38,36 31,33.5 25,31 19,28.5 14,26 14,26 l 0,24 z"
       id="path17"
       inkscape:connector-curvature="0" />
    <linearGradient
       id="gradient1"
       gradientUnits="userSpaceOnUse"
       x1="42.830002"
       y1="10.16"
       x2="58.709999"
       y2="12.92">
      <stop
         offset="0.1847"
         stop-color="#9e8707"
         id="stop20" />
      <stop
         offset="0"
         stop-color="#b59e04"
         id="stop22" />
      <stop
         offset="1"
         stop-color="#eec740"
         id="stop24" />
    </linearGradient>
    <path
       style="fill:url(#gradient1)"
       d="m 38,62 8,-8 0,-24 -8,6 0,26 z"
       id="path26"
       inkscape:connector-curvature="0" />
    <linearGradient
       id="gradient2"
       gradientUnits="userSpaceOnUse"
       x1="24"
       y1="-6"
       x2="40"
       y2="-6">
      <stop
         offset="1"
         stop-color="#ffee82"
         id="stop29" />
      <stop
         offset="0"
         stop-color="#c9a515"
         id="stop31" />
    </linearGradient>
    <path
       style="fill:url(#gradient2)"
       d="M 24,28 40.27,27.88 C 37.83,27 34.88,25.96 32,25 30.97,24.65 29.92,24.32 28.91,24.01 L 26,24 24,28 Z"
       id="path33"
       inkscape:connector-curvature="0" />
    <linearGradient
       id="gradient3"
       gradientUnits="userSpaceOnUse"
       x1="18"
       y1="-6"
       x2="46"
       y2="-6">
      <stop
         offset="0"
         stop-color="#fff8ea"
         id="stop36" />
      <stop
         offset="1"
         stop-color="#f5de63"
         id="stop38" />
    </linearGradient>
    <path
       style="fill:url(#gradient3)"
       d="m 14,26 c 0,0 5,2.5 11,5 6,2.5 13,5 13,5 l 8,-6 c 0,0 -2.4,-0.91 -5.73,-2.12 L 24,28 l 2,-4 2.91,0.01 C 25.19,22.85 22,22 22,22 l -8,4 z"
       id="path40"
       inkscape:connector-curvature="0" />
    <path
       style="fill:#625a02"
       d="m 25,38 c -3,-1 -2,3.43 0,4.43 l -2,6.57 4,2 2,3 -8,-3.75 2,-6.25 c -2,-1 -3,-8 2,-6 z M 36,28 c -2.21,0 -4,0.89 -4,2 0,0.37 0.2,0.72 0.56,1.02 C 33,30 35,30 36,30 c 1,0 3,0 3.36,1.08 C 39.76,30.77 40,30.39 40,30 40,28.89 38.2,28 36,28 Z"
       id="path42"
       inkscape:connector-curvature="0" />
    <path
       style="fill:#272401"
       d="m 25,38 c 5,2 4,9 2,8 l 2,8 -2,-3 -4,-2 2,-6.57 C 23,41.43 22,37 25,38 Z m 11,-8 c -1,0 -3,0 -3.44,1.02 0.7,0.58 1.98,0.98 3.44,0.98 1.4,0 2.64,-0.37 3.36,-0.92 C 39,30 37,30 36,30 Z m -14,-13 0,8 c 0,0.66 0.67,1 2,1 1.32,0 2,-0.34 2,-1 l 0,-9 c 0,-4 3,-10 8,-10 2.93,0 3.98,2 4,5 l 0,5 c 0,3 4,3 4,0 l 0,-5 C 42,6.51 40.48,2 34,2 24,2 22,12 22,17 Z"
       id="path44"
       inkscape:connector-curvature="0" />
    <path
       style="fill:none;stroke:#000000;stroke-width:4;stroke-linecap:round"
       d="m 22,17 0,8 c 0,0.66 0.67,1 2,1 1.32,0 2,-0.34 2,-1 l 0,-9 c 0,-4 3,-10 8,-10 2.93,0 3.98,2 4,5 l 0,5 c 0,3 4,3 4,0 l 0,-5 C 42,6.51 40.48,2 34,2 24,2 22,12 22,17 Z"
       id="path46"
       inkscape:connector-curvature="0" />
    <radialGradient
       id="gradient4"
       gradientUnits="userSpaceOnUse"
       cx="0"
       cy="0"
       r="64"
       gradientTransform="matrix(0.2395,0.0711,-0.1337,0.4501,32.1094,18.5344)">
      <stop
         offset="0.6014"
         stop-color="#ffffff"
         id="stop49" />
      <stop
         offset="0.3949"
         stop-color="#767676"
         id="stop51" />
    </radialGradient>
    <path
       style="fill:url(#gradient4)"
       d="m 22,17 0,8 c 0,0.66 0.67,1 2,1 1.32,0 2,-0.34 2,-1 l 0,-9 c 0,-4 3,-10 8,-10 2.93,0 3.98,2 4,5 l 0,5 c 0,3 4,3 4,0 l 0,-5 C 42,6.51 40.48,2 34,2 24,2 22,12 22,17 Z"
       id="path53"
       inkscape:connector-curvature="0" />
  </g>
  <g
     style="color-interpolation:linearRGB"
     id="g6772"
     transform="matrix(0.61337271,0,0,0.61337271,37.873635,24.691797)">
    <g
       id="g6715">
      <path
         id="path6717"
         d="m 55,64 8,-8 -8,-4 -15,2 -4,4 4,4 15,2 z M 28,52 c -6.63,0 -12,2.68 -12,6 0,3.31 5.37,6 12,6 6.62,0 12,-2.69 12,-6 0,-3.32 -5.38,-6 -12,-6 z"
         style="fill:#010101;fill-opacity:0.46660001"
         inkscape:connector-curvature="0" />
      <path
         id="path6719"
         d="m 24,40 c -5.53,0 -10,4.47 -10,10 0,5.52 4.47,10 10,10 5.52,0 10,-4.48 10,-10 0,-5.53 -4.48,-10 -10,-10 z"
         style="fill:none;stroke:#000000;stroke-width:4"
         inkscape:connector-curvature="0" />
      <radialGradient
         gradientTransform="matrix(0.2281,0,0,0.2281,20.7999,47)"
         r="64"
         cy="0"
         cx="0"
         gradientUnits="userSpaceOnUse"
         id="gradient0-3">
        <stop
           id="stop6722"
           stop-color="#ffffff"
           offset="0" />
        <stop
           id="stop6724"
           stop-color="#ff3930"
           offset="0.25" />
        <stop
           id="stop6726"
           stop-color="#bf0000"
           offset="1" />
        <stop
           id="stop6728"
           stop-color="#800000"
           offset="0.8152" />
      </radialGradient>
      <path
         id="path6730"
         d="m 24,40 c -5.53,0 -10,4.47 -10,10 0.01,5.52 4.47,10 10,10 5.52,0 10,-4.48 10,-10 -2,2 -8,-1 -12,-3 0,0 0,-3 2,-7 z"
         style="fill:url(#gradient0-3)"
         inkscape:connector-curvature="0" />
      <radialGradient
         gradientTransform="matrix(0.2281,0,0,0.2281,20.7999,47)"
         r="64"
         cy="0"
         cx="0"
         gradientUnits="userSpaceOnUse"
         id="gradient1-2">
        <stop
           id="stop6733"
           stop-color="#ff756e"
           offset="0" />
        <stop
           id="stop6735"
           stop-color="#d50f05"
           offset="0.3007" />
        <stop
           id="stop6737"
           stop-color="#bf0000"
           offset="1" />
        <stop
           id="stop6739"
           stop-color="#800000"
           offset="0.8152" />
      </radialGradient>
      <path
         id="path6741"
         d="m 24,40 c -2,4 -2,7 -2,7 4,2 10,5 12,3 0,-5.53 -4.48,-10 -10,-10 z"
         style="fill:url(#gradient1-2)"
         inkscape:connector-curvature="0" />
      <path
         id="path6743"
         d="M 21,2 10,8 21,43 29,35 38,6 21,2 Z"
         style="fill:none;stroke:#000000;stroke-width:4"
         inkscape:connector-curvature="0" />
      <linearGradient
         y2="-10.2"
         x2="76.040001"
         y1="-28.459999"
         x1="60.240002"
         gradientUnits="userSpaceOnUse"
         id="gradient2-5">
        <stop
           id="stop6746"
           stop-color="#ff6159"
           offset="0" />
        <stop
           id="stop6748"
           stop-color="#e40000"
           offset="1" />
      </linearGradient>
      <path
         id="path6750"
         d="M 10,8 21,43 28,13 10,8 Z"
         style="fill:url(#gradient2-5)"
         inkscape:connector-curvature="0" />
      <linearGradient
         y2="-20.34"
         x2="56.59"
         y1="-23.389999"
         x1="50.369999"
         gradientUnits="userSpaceOnUse"
         id="gradient3-1">
        <stop
           id="stop6753"
           stop-color="#800000"
           offset="0" />
        <stop
           id="stop6755"
           stop-color="#a00404"
           offset="1" />
      </linearGradient>
      <path
         id="path6757"
         d="M 28,13 21,43 29,35 38,6 28,13 Z"
         style="fill:url(#gradient3-1)"
         inkscape:connector-curvature="0" />
      <linearGradient
         y2="-20"
         x2="36"
         y1="-20"
         x1="12"
         gradientUnits="userSpaceOnUse"
         id="gradient4-0">
        <stop
           id="stop6760"
           stop-color="#ffc6c0"
           offset="0" />
        <stop
           id="stop6762"
           stop-color="#ff7575"
           offset="1" />
      </linearGradient>
      <path
         id="path6764"
         d="M 21,2 10,8 28,13 38,6 21,2 Z"
         style="fill:url(#gradient4-0)"
         inkscape:connector-curvature="0" />
    </g>
  </g>
</svg>
