<?xml version="1.0" encoding="UTF-8" standalone="no"?>
<svg
   xmlns:dc="http://purl.org/dc/elements/1.1/"
   xmlns:cc="http://creativecommons.org/ns#"
   xmlns:rdf="http://www.w3.org/1999/02/22-rdf-syntax-ns#"
   xmlns:svg="http://www.w3.org/2000/svg"
   xmlns="http://www.w3.org/2000/svg"
   xmlns:xlink="http://www.w3.org/1999/xlink"
   xmlns:sodipodi="http://sodipodi.sourceforge.net/DTD/sodipodi-0.dtd"
   xmlns:inkscape="http://www.inkscape.org/namespaces/inkscape"
   version="1.1"
   width="64"
   height="64"
   color-interpolation="linearRGB"
   id="svg2"
   inkscape:version="0.48.3.1 r9886"
   sodipodi:docname="mail-message-new.svg">
  <metadata
     id="metadata47">
    <rdf:RDF>
      <cc:Work
         rdf:about="">
        <dc:format>image/svg+xml</dc:format>
        <dc:type
           rdf:resource="http://purl.org/dc/dcmitype/StillImage" />
      </cc:Work>
    </rdf:RDF>
  </metadata>
  <defs
     id="defs45">
    <linearGradient
       y2="42.91"
       x2="75.33"
       y1="31.7"
       x1="77.61"
       gradientUnits="userSpaceOnUse"
       id="gradient0">
      <stop
         id="stop13"
         stop-color="#ece986"
         offset="0" />
      <stop
         id="stop15"
         stop-color="#c9c55c"
         offset="1" />
    </linearGradient>
    <linearGradient
       y2="9.15"
       x2="29.36"
       y1="14.86"
       x1="11.06"
       gradientUnits="userSpaceOnUse"
       id="gradient1">
      <stop
         id="stop22"
         stop-color="#d6d6d6"
         offset="0" />
      <stop
         id="stop24"
         stop-color="#ffffff"
         offset="1" />
    </linearGradient>
    <linearGradient
       y2="26.91"
       x2="103.7"
       y1="-5.55"
       x1="83.05"
       gradientUnits="userSpaceOnUse"
       id="gradient2">
      <stop
         id="stop31"
         stop-color="#fffcac"
         offset="0" />
      <stop
         id="stop33"
         stop-color="#e6e27c"
         offset="1" />
    </linearGradient>
    <linearGradient
       inkscape:collect="always"
       xlink:href="#gradient2"
       id="linearGradient3037"
       gradientUnits="userSpaceOnUse"
       x1="83.05"
       y1="-5.55"
       x2="103.7"
       y2="26.91" />
    <linearGradient
       inkscape:collect="always"
       xlink:href="#gradient1"
       id="linearGradient3041"
       gradientUnits="userSpaceOnUse"
       x1="11.06"
       y1="14.86"
       x2="29.36"
       y2="9.15" />
    <linearGradient
       inkscape:collect="always"
       xlink:href="#gradient0"
       id="linearGradient3045"
       gradientUnits="userSpaceOnUse"
       x1="77.61"
       y1="31.7"
       x2="75.33"
       y2="42.91" />
  </defs>
  <sodipodi:namedview
     pagecolor="#ffffff"
     bordercolor="#666666"
     borderopacity="1"
     objecttolerance="10"
     gridtolerance="10"
     guidetolerance="10"
     inkscape:pageopacity="0"
     inkscape:pageshadow="2"
     inkscape:window-width="1678"
     inkscape:window-height="988"
     id="namedview43"
     showgrid="false"
     inkscape:zoom="45.176471"
     inkscape:cx="31"
     inkscape:cy="53.927083"
     inkscape:window-x="2"
     inkscape:window-y="30"
     inkscape:window-maximized="1"
     inkscape:current-layer="svg2" />
  <path
     inkscape:connector-curvature="0"
     id="path6"
     d="m 37,59 3,1 14,-14 c 0,0 10,-4 10,-6 0,-2 -10,-8 -10,-8 L 37,59 z"
     style="fill:#010101;fill-opacity:0.40390003" />
  <path
     inkscape:connector-curvature="0"
     id="path8"
     d="M 4,43 36,59 56,39 C 56,39 46,18 42,18 38,18 24,26 24,26 L 4,43 z"
     style="fill:none;stroke:#000000;stroke-width:4;stroke-linejoin:round" />
  <path
     inkscape:connector-curvature="0"
     id="path10"
     d="M 24,26 56,39 34,42 26,39 24,26 z"
     style="fill:#a0893c" />
  <path
     inkscape:connector-curvature="0"
     id="path17"
     d="M 56,39 C 56,39 46,18 42,18 38,18 24,26 24,26 l 32,13 z"
     style="fill:url(#linearGradient3045)" />
  <path
     inkscape:connector-curvature="0"
     id="path19"
     d="M 28,27 51,35 37,49 17,39 28,27 z"
     style="fill:none;stroke:#000000;stroke-width:2" />
  <path
     inkscape:connector-curvature="0"
     id="path26"
     d="M 28,27 51,35 37,49 17,39 28,27 z"
     style="fill:url(#linearGradient3041)" />
  <path
     inkscape:connector-curvature="0"
     id="path28"
     d=""
     style="fill:none;stroke:#000000;stroke-width:4;stroke-linejoin:round" />
  <path
     inkscape:connector-curvature="0"
     id="path35"
     d="M 24,26 V 40 L 33,44 56,39 36,59 4,43 24,26 z"
     style="fill:url(#linearGradient3037)" />
  <path
     inkscape:connector-curvature="0"
     id="path37"
     d="m 24,26 v 14 l 9,4 23,-5 -22,3 -8,-3 -2,-13 z"
     style="fill:#a07d33" />
  <path
     inkscape:connector-curvature="0"
     id="path39"
     d="m 30,6 -4,4 6,4 1,9 3,-11 -6,-2 V 6 z"
     style="fill:none;stroke:#000000;stroke-width:4;stroke-opacity:1" />
  <path
     inkscape:connector-curvature="0"
     id="path41"
     d="m 30,6 -4,4 6,4 1,9 3,-11 -6,-2 V 6 z"
     style="fill:#ffcc00;stroke:none;stroke-opacity:1;fill-opacity:1" />
</svg>
