<?xml version="1.0" encoding="UTF-8" standalone="no"?>
<svg
   xmlns:dc="http://purl.org/dc/elements/1.1/"
   xmlns:cc="http://creativecommons.org/ns#"
   xmlns:rdf="http://www.w3.org/1999/02/22-rdf-syntax-ns#"
   xmlns:svg="http://www.w3.org/2000/svg"
   xmlns="http://www.w3.org/2000/svg"
   xmlns:sodipodi="http://sodipodi.sourceforge.net/DTD/sodipodi-0.dtd"
   xmlns:inkscape="http://www.inkscape.org/namespaces/inkscape"
   version="1.1"
   width="64"
   height="64"
   color-interpolation="linearRGB"
   id="svg2"
   inkscape:version="0.91 r13725"
   sodipodi:docname="media-optical-video.svg">
  <metadata
     id="metadata36">
    <rdf:RDF>
      <cc:Work
         rdf:about="">
        <dc:format>image/svg+xml</dc:format>
        <dc:type
           rdf:resource="http://purl.org/dc/dcmitype/StillImage" />
        <dc:title></dc:title>
      </cc:Work>
    </rdf:RDF>
  </metadata>
  <defs
     id="defs34">
    <linearGradient
       id="linearGradient6482">
      <stop
         style="stop-color:black;stop-opacity:1"
         offset="0"
         id="stop6484" />
      <stop
         style="stop-color:black;stop-opacity:0"
         offset="1"
         id="stop6486" />
    </linearGradient>
    <linearGradient
       id="linearGradient3002">
      <stop
         id="stop3004"
         offset="0"
         style="stop-color: rgb(186, 189, 182); stop-opacity: 1;" />
      <stop
         id="stop3006"
         offset="1"
         style="stop-color: rgb(46, 52, 54); stop-opacity: 1;" />
    </linearGradient>
    <linearGradient
       id="linearGradient6452">
      <stop
         style="stop-color:white;stop-opacity:1"
         offset="0"
         id="stop6454" />
      <stop
         style="stop-color:white;stop-opacity:0"
         offset="1"
         id="stop6456" />
    </linearGradient>
    <linearGradient
       id="linearGradient3101">
      <stop
         style="stop-color: rgb(46, 52, 54); stop-opacity: 1;"
         offset="0"
         id="stop3103" />
      <stop
         id="stop3109"
         offset="0.12824793"
         style="stop-color: rgb(85, 87, 83); stop-opacity: 1;" />
      <stop
         style="stop-color: rgb(85, 87, 83); stop-opacity: 1;"
         offset="0.56024098"
         id="stop3111" />
      <stop
         style="stop-color: rgb(46, 52, 54); stop-opacity: 1;"
         offset="1"
         id="stop3105" />
    </linearGradient>
    <linearGradient
       id="linearGradient3093">
      <stop
         style="stop-color: rgb(85, 87, 83); stop-opacity: 1;"
         offset="0"
         id="stop3095" />
      <stop
         id="stop2022"
         offset="0.72289157"
         style="stop-color: rgb(136, 138, 133); stop-opacity: 1;" />
      <stop
         style="stop-color: rgb(113, 115, 110); stop-opacity: 1;"
         offset="1"
         id="stop3097" />
    </linearGradient>
    <linearGradient
       id="linearGradient6593">
      <stop
         style="stop-color: rgb(46, 52, 54); stop-opacity: 1;"
         offset="0"
         id="stop6595" />
      <stop
         id="stop6601"
         offset="0.5"
         style="stop-color: rgb(66, 74, 77); stop-opacity: 1;" />
      <stop
         style="stop-color: rgb(46, 52, 54); stop-opacity: 1;"
         offset="1"
         id="stop6597" />
    </linearGradient>
    <linearGradient
       id="linearGradient2982">
      <stop
         style="stop-color:#ffffff;stop-opacity:0;"
         offset="0"
         id="stop2984" />
      <stop
         id="stop2990"
         offset="0.0547975"
         style="stop-color:#ffffff;stop-opacity:1;" />
      <stop
         style="stop-color:#ffffff;stop-opacity:1;"
         offset="0.90963858"
         id="stop2992" />
      <stop
         style="stop-color: black; stop-opacity: 0;"
         offset="1"
         id="stop2986" />
    </linearGradient>
    <linearGradient
       id="linearGradient5683">
      <stop
         style="stop-color: white; stop-opacity: 1;"
         offset="0"
         id="stop5685" />
      <stop
         style="stop-color: rgb(136, 138, 133); stop-opacity: 1;"
         offset="1"
         id="stop5687" />
    </linearGradient>
    <linearGradient
       id="linearGradient2998">
      <stop
         style="stop-color: white; stop-opacity: 0;"
         offset="0"
         id="stop3001" />
      <stop
         id="stop3007"
         offset="0.5"
         style="stop-color: white; stop-opacity: 1;" />
      <stop
         style="stop-color: white; stop-opacity: 0;"
         offset="1"
         id="stop3003" />
    </linearGradient>
    <linearGradient
       id="linearGradient3041">
      <stop
         style="stop-color: rgb(85, 87, 83); stop-opacity: 1;"
         offset="0"
         id="stop3043-0" />
      <stop
         id="stop3049"
         offset="0.32630172"
         style="stop-color: rgb(137, 139, 134); stop-opacity: 1;" />
      <stop
         style="stop-color: rgb(82, 84, 80); stop-opacity: 1;"
         offset="0.62983823"
         id="stop3051" />
      <stop
         id="stop3053"
         offset="0.85847878"
         style="stop-color: rgb(83, 85, 81); stop-opacity: 1;" />
      <stop
         style="stop-color: rgb(62, 63, 61); stop-opacity: 1;"
         offset="1"
         id="stop3045-3" />
    </linearGradient>
  </defs>
  <sodipodi:namedview
     pagecolor="#ffffff"
     bordercolor="#666666"
     borderopacity="1"
     objecttolerance="10"
     gridtolerance="10"
     guidetolerance="10"
     inkscape:pageopacity="0"
     inkscape:pageshadow="2"
     inkscape:window-width="954"
     inkscape:window-height="497"
     id="namedview32"
     showgrid="false"
     inkscape:zoom="1.3037281"
     inkscape:cx="109.21051"
     inkscape:cy="49.374162"
     inkscape:window-x="665"
     inkscape:window-y="429"
     inkscape:window-maximized="0"
     inkscape:current-layer="svg2" />
  <g
     id="g4">
    <path
       style="fill:#010101; fill-opacity:0.4941"
       d="M32 10C48 12 60 20 60 32C60 44 48 52 32 54C52 54 64 44 64 32C64 20 52 10 32 10z"
       id="path6" />
    <path
       style="fill:none; stroke:#000000; stroke-width:4"
       d="M31 12C16 12 2 20 2 32C2 44 16 52 31 52C46 52 60 44 60 32C60 20 46 12 31 12z            M31 26C27 26 25 28 25 30C25 32 27 34 31 34C35 34 37 32 37 30C37 28 35 26 31 26z"
       id="path8" />
    <linearGradient
       id="gradient0"
       gradientUnits="userSpaceOnUse"
       x1="4.64"
       y1="67.69"
       x2="-3.64"
       y2="3.2">
      <stop
         offset="0"
         stop-color="#f1f1f1"
         id="stop11" />
      <stop
         offset="0.2121"
         stop-color="#d9ddf4"
         id="stop13" />
      <stop
         offset="0.5416"
         stop-color="#9996b9"
         id="stop15" />
      <stop
         offset="0.7083"
         stop-color="#b8bedb"
         id="stop17" />
      <stop
         offset="1"
         stop-color="#f4f4f4"
         id="stop19" />
    </linearGradient>
    <path
       style="fill:url(#gradient0)"
       d="M31 12C16 12 2 20 2 32C2 44 16 52 31 52C46 52 60 44 60 32C60 20 46 12 31 12z            M43 30C43 34 39 38 31 38C23 38 19 34 19 30C19 26 23 22.5 31 22.5C39 22.5 43 26 43 30z"
       id="path21" />
    <path
       style="fill:#ebebeb; fill-opacity:0.8156"
       d="M43 30C43 34 39 38 31 38C23 38 19 34 19 30C19 26 23 22.5 31 22.5C39 22.5 43 26 43 30z            M31 26C27 26 25 28 25 30C25 32 27 34 31 34C35 34 37 32 37 30C37 28 35 26 31 26z"
       id="path23" />
    <linearGradient
       id="gradient1"
       gradientUnits="userSpaceOnUse"
       x1="6.84"
       y1="-3.55"
       x2="48.02"
       y2="6.68">
      <stop
         offset="0"
         stop-color="#4137a9"
         id="stop26" />
      <stop
         offset="1"
         stop-color="#b9b9b9"
         id="stop28" />
    </linearGradient>
    <path
       style="fill:none; stroke:url(#gradient1); stroke-width:2"
       d="M43 30C43 34 39 38 31 38C23 38 19 34 19 30C19 26 23 22.5 31 22.5C39 22.5 43 26 43 30z"
       id="path30" />
  </g>
  <g
     style="color-interpolation:linearRGB"
     id="g14588"
     transform="matrix(0.60624282,0,0,0.60624282,1.7493676,27.733614)">
    <g
       id="g14516">
      <path
         id="path14518"
         d="m 6,42 -2,2 18,9 c 0,0 -6,11 4,11 8,0 10,-5 10,-5 L 42,62 64,37 50,33 6,42 Z"
         style="fill:#010101;fill-opacity:0.40779999"
         inkscape:connector-curvature="0" />
      <path
         id="path14520"
         d="m 6,36 0,6 m 32,8 0,6 m 16,-25 0,6"
         style="fill:none;stroke:#010101;stroke-width:4;stroke-linecap:round"
         inkscape:connector-curvature="0" />
      <path
         id="path14522"
         d="M 2,26 2,38 34,54 58,29 58,17 36.98,10.99 36,12 27,9 12,20 10,18.99 2,26 Z"
         style="fill:none;stroke:#010101;stroke-width:4"
         inkscape:connector-curvature="0" />
      <path
         id="path14524"
         d="M 12,20 27,9 36,12 22,25 12,20 Z"
         style="fill:#3d3d3d"
         inkscape:connector-curvature="0" />
      <linearGradient
         y2="-2.1500001"
         x2="52.810001"
         y1="-15.55"
         x1="37.959999"
         gradientUnits="userSpaceOnUse"
         id="gradient0-7">
        <stop
           id="stop14527"
           stop-color="#bdbdbd"
           offset="0" />
        <stop
           id="stop14529"
           stop-color="#808080"
           offset="1" />
      </linearGradient>
      <path
         id="path14531"
         d="m 15.62,17.62 9,3 m -6.25,-4.87 9,3 m -6.62,-5.13 9,3 m -6.38,-4.75 9,3 M 26,10 l 9,3"
         style="fill:none;stroke:url(#gradient0-7);stroke-width:1"
         inkscape:connector-curvature="0" />
      <linearGradient
         y2="0.20999999"
         x2="52.43"
         y1="-5.5"
         x1="24.389999"
         gradientUnits="userSpaceOnUse"
         id="gradient1-5">
        <stop
           id="stop14534"
           stop-color="#ffffff"
           offset="0" />
        <stop
           id="stop14536"
           stop-color="#dadada"
           offset="1" />
      </linearGradient>
      <path
         id="path14538"
         d="M 2,26 34,38 58,17 37,11 22,23 10,19 2,26 Z"
         style="fill:url(#gradient1-5)"
         inkscape:connector-curvature="0" />
      <linearGradient
         y2="31.57"
         x2="54.810001"
         y1="-0.51999998"
         x1="22.379999"
         gradientUnits="userSpaceOnUse"
         id="gradient2">
        <stop
           id="stop14541"
           stop-color="#eeeeee"
           offset="0" />
        <stop
           id="stop14543"
           stop-color="#9a9a9a"
           offset="1" />
      </linearGradient>
      <path
         id="path14545"
         d="M 2,26 2,38 34,54 34,38 2,26 Z"
         style="fill:url(#gradient2)"
         inkscape:connector-curvature="0" />
      <linearGradient
         y2="63.82"
         x2="19.290001"
         y1="76.110001"
         x1="43.220001"
         gradientUnits="userSpaceOnUse"
         id="gradient3">
        <stop
           id="stop14548"
           stop-color="#e2e2e2"
           offset="0" />
        <stop
           id="stop14550"
           stop-color="#7c7c7c"
           offset="1" />
      </linearGradient>
      <path
         id="path14552"
         d="M 34,38 34,54 58,29 58,16 34,38 Z"
         style="fill:url(#gradient3)"
         inkscape:connector-curvature="0" />
      <linearGradient
         y2="33.799999"
         x2="46.830002"
         y1="20.639999"
         x1="36.189999"
         gradientUnits="userSpaceOnUse"
         id="gradient4">
        <stop
           id="stop14555"
           stop-color="#2b2b2b"
           offset="0" />
        <stop
           id="stop14557"
           stop-color="#4b4b4b"
           offset="0.1174" />
        <stop
           id="stop14559"
           stop-color="#ffffff"
           offset="0.2651" />
        <stop
           id="stop14561"
           stop-color="#4e4e4e"
           offset="0.4583" />
        <stop
           id="stop14563"
           stop-color="#131313"
           offset="1" />
      </linearGradient>
      <path
         id="path14565"
         d="m 18.55,37.18 -3,2 12.75,12.05 2,-2 C 32.62,46.96 31.88,42.42 28.63,39.1 25.39,35.77 20.87,34.91 18.55,37.18 Z"
         style="fill:url(#gradient4)"
         inkscape:connector-curvature="0" />
      <path
         id="path14567"
         d="m 12.26,43.27 c -2.41,2.35 -1.64,7.06 1.73,10.51 3.37,3.45 8.05,4.34 10.47,1.99 2.41,-2.36 1.64,-7.06 -1.73,-10.52 -3.37,-3.45 -8.05,-4.34 -10.47,-1.98 z"
         style="fill:none;stroke:#010101;stroke-width:6"
         inkscape:connector-curvature="0" />
      <radialGradient
         gradientTransform="matrix(0.1345,0.0871,-0.0673,0.1039,20.7047,50.7359)"
         r="64"
         cy="0"
         cx="0"
         gradientUnits="userSpaceOnUse"
         id="gradient5">
        <stop
           id="stop14570"
           stop-color="#434a68"
           offset="0" />
        <stop
           id="stop14572"
           stop-color="#0f1238"
           offset="1" />
      </radialGradient>
      <path
         id="path14574"
         d="m 12.26,43.27 c -2.41,2.35 -1.64,7.06 1.73,10.51 3.37,3.45 8.05,4.34 10.47,1.99 2.41,-2.36 1.64,-7.06 -1.73,-10.52 -3.37,-3.45 -8.05,-4.34 -10.47,-1.98 z"
         style="fill:url(#gradient5)"
         inkscape:connector-curvature="0" />
      <path
         id="path14576"
         transform="matrix(0,0.1784,-0.1784,0,25.2544,41.1997)"
         d="m 12.26,43.27 c -2.41,2.35 -1.64,7.06 1.73,10.51 3.37,3.45 8.05,4.34 10.47,1.99 2.41,-2.36 1.64,-7.06 -1.73,-10.52 -3.37,-3.45 -8.05,-4.34 -10.47,-1.98 z"
         style="fill:#ffffff"
         inkscape:connector-curvature="0" />
      <path
         id="path14578"
         d="m 19,53 c 0,0 3.25,0.25 4.25,-0.75 1,-1 0.75,-3.25 0.75,-3.25 0,0 0.87,3.12 -0.13,4.12 C 22.87,54.12 19,53 19,53 Z"
         style="fill:#ffffff"
         inkscape:connector-curvature="0" />
      <path
         id="path14580"
         d="m 54.5,21.5 0,9 m -2,-7 0,9.12 m -2,-7.12 0,9.25 m -2,-7.25 0,9.37"
         style="fill:none;stroke:#393939;stroke-width:1"
         inkscape:connector-curvature="0" />
    </g>
  </g>
</svg>
