<?xml version="1.0" encoding="UTF-8" standalone="no"?>
<!-- Creator: CorelDRAW -->

<svg
   xmlns:dc="http://purl.org/dc/elements/1.1/"
   xmlns:cc="http://creativecommons.org/ns#"
   xmlns:rdf="http://www.w3.org/1999/02/22-rdf-syntax-ns#"
   xmlns:svg="http://www.w3.org/2000/svg"
   xmlns="http://www.w3.org/2000/svg"
   xmlns:xlink="http://www.w3.org/1999/xlink"
   xmlns:sodipodi="http://sodipodi.sourceforge.net/DTD/sodipodi-0.dtd"
   xmlns:inkscape="http://www.inkscape.org/namespaces/inkscape"
   height="256"
   id="svg2"
   inkscape:version="0.47 r22583"
   sodipodi:docname="media-genre.svg"
   sodipodi:version="0.32"
   space="preserve"
   style="fill-rule:evenodd"
   viewBox="0 0 24.569416 24.569416"
   width="256"
   version="1.1">
  <metadata
     id="metadata3">
    <rdf:RDF>
      <cc:Work
         rdf:about="">
        <dc:title />
        <dc:description />
        <dc:subject>
          <rdf:Bag>
            <rdf:li>info</rdf:li>
            <rdf:li>icon</rdf:li>
            <rdf:li>information</rdf:li>
            <rdf:li>sign</rdf:li>
          </rdf:Bag>
        </dc:subject>
        <dc:publisher>
          <cc:Agent
             rdf:about="http://www.openclipart.org/">
            <dc:title>Open Clip Art Library</dc:title>
          </cc:Agent>
        </dc:publisher>
        <dc:creator>
          <cc:Agent>
            <dc:title>mo</dc:title>
          </cc:Agent>
        </dc:creator>
        <dc:rights>
          <cc:Agent>
            <dc:title>mo</dc:title>
          </cc:Agent>
        </dc:rights>
        <dc:date />
        <dc:format>image/svg+xml</dc:format>
        <dc:type
           rdf:resource="http://purl.org/dc/dcmitype/StillImage" />
        <cc:license
           rdf:resource="http://web.resource.org/cc/PublicDomain" />
        <dc:language>en</dc:language>
      </cc:Work>
      <cc:License
         rdf:about="http://web.resource.org/cc/PublicDomain">
        <cc:permits
           rdf:resource="http://web.resource.org/cc/Reproduction" />
        <cc:permits
           rdf:resource="http://web.resource.org/cc/Distribution" />
        <cc:permits
           rdf:resource="http://web.resource.org/cc/DerivativeWorks" />
      </cc:License>
    </rdf:RDF>
  </metadata>
  <sodipodi:namedview
     bordercolor="#666666"
     borderopacity="1.0"
     id="base"
     inkscape:current-layer="svg2"
     inkscape:cx="147.52599"
     inkscape:cy="141.82319"
     inkscape:pageopacity="0.0"
     inkscape:pageshadow="2"
     inkscape:window-height="774"
     inkscape:window-width="1243"
     inkscape:window-x="34"
     inkscape:window-y="1"
     inkscape:zoom="1.4253417"
     pagecolor="#ffffff"
     showgrid="false"
     inkscape:window-maximized="1" />
  <defs
     id="defs4">
    <inkscape:perspective
       sodipodi:type="inkscape:persp3d"
       inkscape:vp_x="0 : 65.598305 : 1"
       inkscape:vp_y="0 : 1000 : 0"
       inkscape:vp_z="131.19661 : 65.598305 : 1"
       inkscape:persp3d-origin="65.598305 : 43.732203 : 1"
       id="perspective10" />
    <style
       id="style6"
       type="text/css">
   
    .fil0 {fill:#EF7900}
   
  </style>
    <inkscape:perspective
       id="perspective2841"
       inkscape:persp3d-origin="0.5 : 0.33333333 : 1"
       inkscape:vp_z="1 : 0.5 : 1"
       inkscape:vp_y="0 : 1000 : 0"
       inkscape:vp_x="0 : 0.5 : 1"
       sodipodi:type="inkscape:persp3d" />
    <inkscape:perspective
       id="perspective2870"
       inkscape:persp3d-origin="0.5 : 0.33333333 : 1"
       inkscape:vp_z="1 : 0.5 : 1"
       inkscape:vp_y="0 : 1000 : 0"
       inkscape:vp_x="0 : 0.5 : 1"
       sodipodi:type="inkscape:persp3d" />
    <inkscape:perspective
       id="perspective2844"
       inkscape:persp3d-origin="0.5 : 0.33333333 : 1"
       inkscape:vp_z="1 : 0.5 : 1"
       inkscape:vp_y="0 : 1000 : 0"
       inkscape:vp_x="0 : 0.5 : 1"
       sodipodi:type="inkscape:persp3d" />
    <inkscape:perspective
       id="perspective2928"
       inkscape:persp3d-origin="0.5 : 0.33333333 : 1"
       inkscape:vp_z="1 : 0.5 : 1"
       inkscape:vp_y="0 : 1000 : 0"
       inkscape:vp_x="0 : 0.5 : 1"
       sodipodi:type="inkscape:persp3d" />
    <inkscape:perspective
       id="perspective19467"
       inkscape:persp3d-origin="0.5 : 0.33333333 : 1"
       inkscape:vp_z="1 : 0.5 : 1"
       inkscape:vp_y="0 : 1000 : 0"
       inkscape:vp_x="0 : 0.5 : 1"
       sodipodi:type="inkscape:persp3d" />
    <radialGradient
       cx="6.0044956"
       cy="9.9044514"
       r="6.0044961"
       fx="6.0044956"
       fy="9.9044514"
       id="radialGradient3644"
       xlink:href="#linearGradient3803"
       gradientUnits="userSpaceOnUse"
       gradientTransform="matrix(0.7071068,-0.7071068,0.7178292,0.7178292,94.015238,30.853488)" />
    <linearGradient
       id="linearGradient3803">
      <stop
         id="stop3805"
         style="stop-color:#ce5c00;stop-opacity:1"
         offset="0" />
      <stop
         id="stop3807"
         style="stop-color:#ce5c00;stop-opacity:0"
         offset="1" />
    </linearGradient>
    <radialGradient
       cx="61.871639"
       cy="14.900355"
       r="7.0694604"
       fx="61.871639"
       fy="14.900355"
       id="radialGradient3646"
       xlink:href="#linearGradient3596"
       gradientUnits="userSpaceOnUse"
       gradientTransform="matrix(0.5132442,-0.5132442,0.5105902,0.5105902,65.945539,57.928569)" />
    <linearGradient
       id="linearGradient3596">
      <stop
         id="stop3598"
         style="stop-color:#fcaf3e;stop-opacity:1"
         offset="0" />
      <stop
         id="stop3600"
         style="stop-color:#fcaf3e;stop-opacity:0"
         offset="1" />
    </linearGradient>
    <linearGradient
       x1="403.81253"
       y1="339.44629"
       x2="411.47675"
       y2="339.44629"
       id="linearGradient3648"
       xlink:href="#linearGradient19089"
       gradientUnits="userSpaceOnUse"
       gradientTransform="matrix(0.4180431,0,0,0.2840879,-80.993726,-57.41686)" />
    <linearGradient
       id="linearGradient19089">
      <stop
         id="stop19091"
         style="stop-color:#f2f5fa;stop-opacity:1"
         offset="0" />
      <stop
         id="stop19093"
         style="stop-color:#f2f5fa;stop-opacity:0"
         offset="1" />
    </linearGradient>
    <linearGradient
       x1="403.81253"
       y1="339.44629"
       x2="411.47675"
       y2="339.44629"
       id="linearGradient3650"
       xlink:href="#linearGradient19089"
       gradientUnits="userSpaceOnUse"
       gradientTransform="matrix(0.418038,0,0,0.2830939,-80.993033,-57.11616)" />
    <linearGradient
       id="linearGradient19484">
      <stop
         id="stop19486"
         style="stop-color:#f2f5fa;stop-opacity:1"
         offset="0" />
      <stop
         id="stop19488"
         style="stop-color:#f2f5fa;stop-opacity:0"
         offset="1" />
    </linearGradient>
    <linearGradient
       x1="403.81253"
       y1="339.44629"
       x2="411.47675"
       y2="339.44629"
       id="linearGradient3652"
       xlink:href="#linearGradient19089"
       gradientUnits="userSpaceOnUse"
       gradientTransform="matrix(0.4180405,0,0,0.2835909,-80.99324,-57.303328)" />
    <linearGradient
       id="linearGradient19491">
      <stop
         id="stop19493"
         style="stop-color:#f2f5fa;stop-opacity:1"
         offset="0" />
      <stop
         id="stop19495"
         style="stop-color:#f2f5fa;stop-opacity:0"
         offset="1" />
    </linearGradient>
    <linearGradient
       x1="403.81253"
       y1="339.44629"
       x2="411.47675"
       y2="339.44629"
       id="linearGradient3654"
       xlink:href="#linearGradient19089"
       gradientUnits="userSpaceOnUse"
       gradientTransform="matrix(0.4180431,0,0,0.2840879,-80.993605,-57.453594)" />
    <linearGradient
       id="linearGradient19498">
      <stop
         id="stop19500"
         style="stop-color:#f2f5fa;stop-opacity:1"
         offset="0" />
      <stop
         id="stop19502"
         style="stop-color:#f2f5fa;stop-opacity:0"
         offset="1" />
    </linearGradient>
    <radialGradient
       cx="96.125526"
       cy="2.3873661"
       r="2.0775449"
       fx="96.125526"
       fy="2.3873661"
       id="radialGradient3656"
       xlink:href="#linearGradient3803"
       gradientUnits="userSpaceOnUse"
       gradientTransform="matrix(-0.9031052,-0.6754471,-1.0689303,0.6274572,178.26778,101.35495)" />
    <linearGradient
       id="linearGradient19505">
      <stop
         id="stop19507"
         style="stop-color:#ce5c00;stop-opacity:1"
         offset="0" />
      <stop
         id="stop19509"
         style="stop-color:#ce5c00;stop-opacity:0"
         offset="1" />
    </linearGradient>
    <radialGradient
       cx="96.125526"
       cy="2.6118443"
       r="1.628588"
       fx="96.125526"
       fy="2.6118443"
       id="radialGradient3658"
       xlink:href="#linearGradient3596"
       gradientUnits="userSpaceOnUse"
       gradientTransform="matrix(-1.2736689,-1.0103598,-1.7965263,0.994264,216.02874,132.52382)" />
    <linearGradient
       id="linearGradient19512">
      <stop
         id="stop19514"
         style="stop-color:#fcaf3e;stop-opacity:1"
         offset="0" />
      <stop
         id="stop19516"
         style="stop-color:#fcaf3e;stop-opacity:0"
         offset="1" />
    </linearGradient>
  </defs>
  <path
     sodipodi:type="arc"
     style="fill:#000000;fill-opacity:1;stroke:none"
     id="path2820"
     sodipodi:cx="2.0170603"
     sodipodi:cy="3.2616172"
     sodipodi:rx="32.536057"
     sodipodi:ry="32.536057"
     d="m 34.553117,3.2616172 a 32.536057,32.536057 0 1 1 -65.072113,0 32.536057,32.536057 0 1 1 65.072113,0 z"
     transform="matrix(0.36087365,0,0,0.36087365,11.556804,11.107676)" />
  <g
     transform="matrix(-0.98056384,-0.96821993,-0.98056384,0.96821993,142.88012,55.057924)"
     id="g3620"
     style="fill:#0000cc;fill-opacity:1;stroke-width:0.27859603;stroke-miterlimit:4;stroke-dasharray:none;stroke:#ffffff;stroke-opacity:1">
    <path
       d="m 89.408394,39.017085 0.279388,7.321841 -1.502834,0.02136 0.118633,-7.334292 c -0.04832,-0.03278 1.136823,-0.03067 1.104813,-0.0089 z"
       id="path3463"
       style="fill:#0000cc;fill-opacity:1;fill-rule:evenodd;stroke:#ffffff;stroke-width:0.27859603;stroke-miterlimit:4;stroke-dasharray:none;stroke-opacity:1" />
    <g
       transform="matrix(-0.8440411,0,0,0.7181907,177.77307,23.629014)"
       id="g3431"
       style="fill:#0000cc;stroke:#ffffff;fill-opacity:1;stroke-width:0.3578271;stroke-miterlimit:4;stroke-dasharray:none;stroke-opacity:1">
      <path
         d="m 107.78893,28.002962 c 0.41631,-0.02634 1.03591,0.651412 1.03003,1.520304 -0.006,0.901753 -0.69328,1.802545 -0.8548,2.020034 -0.16153,0.217488 0.25569,0.456259 0.35042,0.550989 1.82844,1.828447 2.60944,4.601841 0.7531,6.458183 -1.85635,1.856341 -5.6076,1.657472 -7.43605,-0.170976 -1.828438,-1.828447 -0.72206,-5.258024 0.30821,-6.288295 0.33229,-0.332292 0.75478,-0.40546 0.60126,-0.535302 -0.15352,-0.129841 -0.8115,-1.103154 -0.80552,-1.986651 0.006,-0.868893 0.63472,-1.555101 1.05072,-1.5344 0.0594,0.003 0.10688,0.0093 0.15464,0.04322 0.25804,0.183255 0.58565,0.811844 0.96752,0.945231 0.11819,0.04128 0.79113,-0.01945 1.37271,-0.05357 0.58117,0.02624 1.25334,0.07786 1.3721,0.03498 0.38371,-0.138573 0.71987,-0.771659 0.98041,-0.958427 0.0482,-0.03457 0.0958,-0.04156 0.15525,-0.04532 z"
         id="path3509"
         style="fill:#0000cc;fill-opacity:1;stroke:#ffffff;stroke-width:0.3578271;stroke-miterlimit:4;stroke-dasharray:none;stroke-opacity:1" />
      <path
         d="m 107.78893,28.002962 c 0.41631,-0.02634 1.03591,0.651412 1.03003,1.520304 -0.006,0.901753 -0.69328,1.802545 -0.8548,2.020034 -0.16153,0.217488 0.25569,0.456259 0.35042,0.550989 1.82844,1.828447 2.60944,4.601841 0.7531,6.458183 -1.85635,1.856341 -5.6076,1.657472 -7.43605,-0.170976 -1.828438,-1.828447 -0.72206,-5.258024 0.30821,-6.288295 0.33229,-0.332292 0.75478,-0.40546 0.60126,-0.535302 -0.15352,-0.129841 -0.8115,-1.103154 -0.80552,-1.986651 0.006,-0.868893 0.63472,-1.555101 1.05072,-1.5344 0.0594,0.003 0.10688,0.0093 0.15464,0.04322 0.25804,0.183255 0.58565,0.811844 0.96752,0.945231 0.11819,0.04128 0.79113,-0.01945 1.37271,-0.05357 0.58117,0.02624 1.25334,0.07786 1.3721,0.03498 0.38371,-0.138573 0.71987,-0.771659 0.98041,-0.958427 0.0482,-0.03457 0.0958,-0.04156 0.15525,-0.04532 z"
         id="path3801"
         style="fill:#0000cc;fill-opacity:1;stroke:#ffffff;stroke-width:0.3578271;stroke-miterlimit:4;stroke-dasharray:none;stroke-opacity:1" />
      <path
         d="m 107.42574,28.875271 c 0.35611,-0.02614 0.87986,0.547828 0.86726,1.290648 -0.0131,0.770913 -0.60835,1.546938 -0.74833,1.734266 -0.13997,0.187327 0.2146,0.387803 0.29476,0.467957 1.5471,1.547104 2.19056,3.911119 0.58749,5.514184 -1.60306,1.603064 -4.80807,1.465756 -6.35518,-0.08135 -1.5471,-1.547103 -0.57142,-4.488503 0.31828,-5.378204 0.28696,-0.286955 0.64875,-0.353185 0.51865,-0.462841 -0.1301,-0.109657 -0.6841,-0.935953 -0.67128,-1.691259 0.0126,-0.742822 0.55614,-1.334904 0.91157,-1.320833 0.0508,0.002 0.0913,0.007 0.13183,0.0356 0.21898,0.154406 0.49356,0.688898 0.81884,0.799594 0.10067,0.03426 0.67645,-0.02352 1.17391,-0.05776 0.49659,0.01737 1.07074,0.05564 1.17263,0.01794 0.32923,-0.121802 0.62211,-0.665922 0.84646,-0.82785 0.0415,-0.02998 0.0822,-0.03636 0.13311,-0.0401 z"
         id="path3558"
         style="opacity:0.51452277999999996;fill:#0000cc;fill-opacity:1;stroke:#ffffff;stroke-width:0.3578271;stroke-miterlimit:4;stroke-dasharray:none;stroke-opacity:1" />
    </g>
    <path
       d="m 98.222223,32.666664 a 2.3174605,2.0634923 0 1 1 -4.634921,0 2.3174605,2.0634923 0 1 1 4.634921,0 z"
       transform="matrix(-0.5704757,0,0,0.4703869,143.64756,31.148511)"
       id="path3409"
       style="fill:#0000cc;fill-opacity:1;stroke:#ffffff;stroke-width:0.53780982;stroke-miterlimit:4;stroke-dasharray:none;stroke-opacity:1" />
    <path
       d="m 98.222223,32.666664 a 2.3174605,2.0634923 0 1 1 -4.634921,0 2.3174605,2.0634923 0 1 1 4.634921,0 z"
       transform="matrix(-0.4045191,0,0,0.3372585,127.73154,35.479057)"
       id="path3407"
       style="fill:#0000cc;fill-opacity:1;stroke:#ffffff;stroke-width:0.75426499;stroke-miterlimit:4;stroke-dasharray:none;stroke-opacity:1" />
    <rect
       width="3.9180894"
       height="0.34796518"
       x="-90.931335"
       y="49.154545"
       transform="scale(-1,1)"
       id="rect3440"
       style="fill:#0000cc;fill-opacity:1;stroke:#ffffff;stroke-width:0.27859603;stroke-miterlimit:4;stroke-dasharray:none;stroke-opacity:1" />
    <rect
       width="0.19162881"
       height="10.456705"
       x="88.463799"
       y="33.787376"
       transform="matrix(0.9982529,0.05908658,0.00297602,0.9999956,0,0)"
       id="rect3475"
       style="opacity:0.45000000000000001;fill:#0000cc;fill-opacity:1;fill-rule:evenodd;stroke:#ffffff;stroke-width:0.27886489;stroke-miterlimit:4;stroke-dasharray:none;stroke-opacity:1" />
    <rect
       width="0.19162647"
       height="10.420117"
       x="88.964066"
       y="33.768955"
       transform="matrix(0.998265,0.05888055,0.00298647,0.9999955,0,0)"
       id="rect3479"
       style="opacity:0.45000000000000001;fill:#0000cc;fill-opacity:1;fill-rule:evenodd;stroke:#ffffff;stroke-width:0.27886321;stroke-miterlimit:4;stroke-dasharray:none;stroke-opacity:1" />
    <rect
       width="0.19162762"
       height="10.438411"
       x="89.215866"
       y="33.741348"
       transform="matrix(0.998259,0.05898357,0.00298123,0.9999956,0,0)"
       id="rect3481"
       style="opacity:0.45000000000000001;fill:#0000cc;fill-opacity:1;fill-rule:evenodd;stroke:#ffffff;stroke-width:0.27886404;stroke-miterlimit:4;stroke-dasharray:none;stroke-opacity:1" />
    <rect
       width="0.19162881"
       height="10.456705"
       x="88.714729"
       y="33.750637"
       transform="matrix(0.9982529,0.05908658,0.00297602,0.9999956,0,0)"
       id="rect3477"
       style="opacity:0.45000000000000001;fill:#0000cc;fill-opacity:1;fill-rule:evenodd;stroke:#ffffff;stroke-width:0.27886489;stroke-miterlimit:4;stroke-dasharray:none;stroke-opacity:1" />
    <rect
       width="3.9180894"
       height="0.091569789"
       x="-90.931335"
       y="49.410942"
       transform="scale(-1,1)"
       id="rect3411"
       style="fill:#0000cc;fill-opacity:1;stroke:#ffffff;stroke-width:0.27859603;stroke-miterlimit:4;stroke-dasharray:none;stroke-opacity:1" />
    <path
       d="m 90.073614,36.520627 c -0.153716,-0.127437 -0.428967,-0.02753 -0.544235,-0.140544 -0.203506,-0.199522 -0.995869,-0.26237 -1.202338,-0.0029 -0.128243,0.161186 -0.538573,0.06018 -0.591888,0.160196 l 0.424497,2.870228 1.457458,-0.03842 0.456506,-2.848595 z"
       id="rect3501"
       style="fill:#0000cc;fill-opacity:1;stroke:#ffffff;stroke-width:0.27859603;stroke-miterlimit:4;stroke-dasharray:none;stroke-opacity:1" />
    <path
       d="m 94.285716,1.2063473 a 0.603175,0.50793685 0 1 1 -1.20635,0 0.603175,0.50793685 0 1 1 1.20635,0 z"
       transform="matrix(-0.498198,0,0,0.3301002,136.79393,37.137132)"
       id="path3457"
       style="fill:#0000cc;fill-opacity:1;stroke:#ffffff;stroke-width:0.68699098;stroke-miterlimit:4;stroke-dasharray:none;stroke-opacity:1" />
    <path
       d="m 94.285716,1.2063473 a 0.603175,0.50793685 0 1 1 -1.20635,0 0.603175,0.50793685 0 1 1 1.20635,0 z"
       transform="matrix(-0.498198,0,0,0.3301002,136.69448,37.632188)"
       id="path3459"
       style="fill:#0000cc;fill-opacity:1;stroke:#ffffff;stroke-width:0.68699098;stroke-miterlimit:4;stroke-dasharray:none;stroke-opacity:1" />
    <path
       d="m 94.285716,1.2063473 a 0.603175,0.50793685 0 1 1 -1.20635,0 0.603175,0.50793685 0 1 1 1.20635,0 z"
       transform="matrix(-0.498198,0,0,0.3301002,136.54501,38.160347)"
       id="path3461"
       style="fill:#0000cc;fill-opacity:1;stroke:#ffffff;stroke-width:0.68699098;stroke-miterlimit:4;stroke-dasharray:none;stroke-opacity:1" />
    <path
       d="m 94.285716,1.2063473 a 0.603175,0.50793685 0 1 1 -1.20635,0 0.603175,0.50793685 0 1 1 1.20635,0 z"
       transform="matrix(0.498198,0,0,0.3301002,41.058029,37.137132)"
       id="path3466"
       style="fill:#0000cc;fill-opacity:1;stroke:#ffffff;stroke-width:0.68699098;stroke-miterlimit:4;stroke-dasharray:none;stroke-opacity:1" />
    <path
       d="m 94.285716,1.2063473 a 0.603175,0.50793685 0 1 1 -1.20635,0 0.603175,0.50793685 0 1 1 1.20635,0 z"
       transform="matrix(0.498198,0,0,0.3301002,41.15749,37.632188)"
       id="path3468"
       style="fill:#0000cc;fill-opacity:1;stroke:#ffffff;stroke-width:0.68699098;stroke-miterlimit:4;stroke-dasharray:none;stroke-opacity:1" />
    <path
       d="m 94.285716,1.2063473 a 0.603175,0.50793685 0 1 1 -1.20635,0 0.603175,0.50793685 0 1 1 1.20635,0 z"
       transform="matrix(0.498198,0,0,0.3301002,41.306949,38.160347)"
       id="path3470"
       style="fill:#0000cc;fill-opacity:1;stroke:#ffffff;stroke-width:0.68699098;stroke-miterlimit:4;stroke-dasharray:none;stroke-opacity:1" />
    <path
       d="m 89.939412,36.734423 c -0.136073,-0.118 -0.37973,-0.02549 -0.481769,-0.130139 -0.180148,-0.184745 -0.881564,-0.242938 -1.064335,-0.0027 -0.113525,0.149251 -0.476757,0.05572 -0.523953,0.148334 l 0.375774,2.657676 1.290175,-0.03557 0.404108,-2.637644 z"
       id="path3472"
       style="fill:#0000cc;fill-opacity:1;stroke:#ffffff;stroke-width:0.27859603;stroke-miterlimit:4;stroke-dasharray:none;stroke-opacity:1" />
    <path
       d="m 89.715743,36.868045 c -0.106667,-0.112103 -0.297672,-0.02422 -0.377659,-0.123633 -0.141217,-0.175511 -0.691059,-0.230796 -0.834333,-0.0025 -0.08899,0.14179 -0.37373,0.05293 -0.410727,0.14092 l 0.29457,2.52483 1.011369,-0.0338 0.31678,-2.505799 z"
       id="path3474"
       style="opacity:0.69294606999999997;fill:#0000cc;fill-opacity:1;stroke:#ffffff;stroke-width:0.27859603;stroke-miterlimit:4;stroke-dasharray:none;stroke-opacity:1" />
  </g>
</svg>
