<?xml version="1.0" encoding="UTF-8" standalone="no"?>
<!-- Created with Inkscape (http://www.inkscape.org/) -->

<svg
   xmlns:dc="http://purl.org/dc/elements/1.1/"
   xmlns:cc="http://creativecommons.org/ns#"
   xmlns:rdf="http://www.w3.org/1999/02/22-rdf-syntax-ns#"
   xmlns:svg="http://www.w3.org/2000/svg"
   xmlns="http://www.w3.org/2000/svg"
   xmlns:xlink="http://www.w3.org/1999/xlink"
   xmlns:sodipodi="http://sodipodi.sourceforge.net/DTD/sodipodi-0.dtd"
   xmlns:inkscape="http://www.inkscape.org/namespaces/inkscape"
   width="256"
   height="256"
   id="svg2"
   sodipodi:version="0.32"
   inkscape:version="0.47 r22583"
   version="1.0"
   sodipodi:docname="media-consume.svg"
   inkscape:export-filename="/home/jimmac/src/cvs/gnome/gnome-icon-theme/16x16/actions/go-previous.png"
   inkscape:export-xdpi="90"
   inkscape:export-ydpi="90"
   inkscape:output_extension="org.inkscape.output.svg.inkscape">
  <defs
     id="defs4">
    <inkscape:perspective
       sodipodi:type="inkscape:persp3d"
       inkscape:vp_x="0 : 24 : 1"
       inkscape:vp_y="0 : 1000 : 0"
       inkscape:vp_z="48 : 24 : 1"
       inkscape:persp3d-origin="24 : 16 : 1"
       id="perspective22" />
    <inkscape:perspective
       id="perspective3610"
       inkscape:persp3d-origin="0.5 : 0.33333333 : 1"
       inkscape:vp_z="1 : 0.5 : 1"
       inkscape:vp_y="0 : 1000 : 0"
       inkscape:vp_x="0 : 0.5 : 1"
       sodipodi:type="inkscape:persp3d" />
    <inkscape:perspective
       id="perspective2829"
       inkscape:persp3d-origin="0.5 : 0.33333333 : 1"
       inkscape:vp_z="1 : 0.5 : 1"
       inkscape:vp_y="0 : 1000 : 0"
       inkscape:vp_x="0 : 0.5 : 1"
       sodipodi:type="inkscape:persp3d" />
    <inkscape:perspective
       id="perspective3607"
       inkscape:persp3d-origin="0.5 : 0.33333333 : 1"
       inkscape:vp_z="1 : 0.5 : 1"
       inkscape:vp_y="0 : 1000 : 0"
       inkscape:vp_x="0 : 0.5 : 1"
       sodipodi:type="inkscape:persp3d" />
    <linearGradient
       x1="31.864639"
       y1="17.130236"
       x2="16.14513"
       y2="32.849743"
       id="linearGradient2181"
       xlink:href="#linearGradient7916"
       gradientUnits="userSpaceOnUse"
       gradientTransform="matrix(1.0317991,-1.0287411,1.0317991,1.0287411,-26.552863,23.963668)" />
    <linearGradient
       id="linearGradient7916">
      <stop
         id="stop7918"
         style="stop-color:white;stop-opacity:1"
         offset="0" />
      <stop
         id="stop7920"
         style="stop-color:white;stop-opacity:0.34020618"
         offset="1" />
    </linearGradient>
    <linearGradient
       inkscape:collect="always"
       xlink:href="#linearGradient7916"
       id="linearGradient3736"
       gradientUnits="userSpaceOnUse"
       gradientTransform="matrix(1.0317991,-1.0287411,1.0317991,1.0287411,-26.552863,23.963668)"
       x1="31.864639"
       y1="17.130236"
       x2="16.14513"
       y2="32.849743" />
    <linearGradient
       inkscape:collect="always"
       xlink:href="#linearGradient7916"
       id="linearGradient2839"
       gradientUnits="userSpaceOnUse"
       gradientTransform="matrix(1.0317991,-1.0287411,1.0317991,1.0287411,-26.552863,23.963668)"
       x1="31.864639"
       y1="17.130236"
       x2="16.14513"
       y2="32.849743" />
    <linearGradient
       inkscape:collect="always"
       xlink:href="#linearGradient7916"
       id="linearGradient2840"
       gradientUnits="userSpaceOnUse"
       gradientTransform="matrix(1.0317991,-1.0287411,1.0317991,1.0287411,-26.552863,23.963668)"
       x1="31.864639"
       y1="17.130236"
       x2="16.14513"
       y2="32.849743" />
    <linearGradient
       inkscape:collect="always"
       xlink:href="#linearGradient7916"
       id="linearGradient3617"
       gradientUnits="userSpaceOnUse"
       gradientTransform="matrix(1.0317991,-1.0287411,1.0317991,1.0287411,-26.552863,23.963668)"
       x1="31.864639"
       y1="17.130236"
       x2="16.14513"
       y2="32.849743" />
    <linearGradient
       inkscape:collect="always"
       xlink:href="#linearGradient7916"
       id="linearGradient3620"
       gradientUnits="userSpaceOnUse"
       gradientTransform="matrix(12.4207,-12.383888,12.4207,12.383888,-206.90906,-294.79848)"
       x1="31.864639"
       y1="17.130236"
       x2="16.14513"
       y2="32.849743" />
  </defs>
  <sodipodi:namedview
     id="base"
     pagecolor="#ffffff"
     bordercolor="#666"
     borderopacity="0.17254902"
     inkscape:pageopacity="0.0"
     inkscape:pageshadow="2"
     inkscape:zoom="1.2853139"
     inkscape:cx="-94.64806"
     inkscape:cy="140.18358"
     inkscape:document-units="px"
     inkscape:current-layer="g2606"
     width="48px"
     height="48px"
     inkscape:showpageshadow="false"
     showgrid="false"
     inkscape:window-width="1243"
     inkscape:window-height="774"
     inkscape:window-x="34"
     inkscape:window-y="1"
     inkscape:window-maximized="1" />
  <metadata
     id="metadata7">
    <rdf:RDF>
      <cc:Work
         rdf:about="">
        <dc:format>image/svg+xml</dc:format>
        <dc:type
           rdf:resource="http://purl.org/dc/dcmitype/StillImage" />
        <dc:title />
        <dc:date>August 2006</dc:date>
        <dc:creator>
          <cc:Agent>
            <dc:title>Andreas Nilsson</dc:title>
          </cc:Agent>
        </dc:creator>
        <dc:contributor>
          <cc:Agent>
            <dc:title>Jakub Steiner</dc:title>
          </cc:Agent>
        </dc:contributor>
        <dc:source>http://www.gnome.org</dc:source>
        <dc:subject>
          <rdf:Bag>
            <rdf:li>up</rdf:li>
            <rdf:li>arrow</rdf:li>
            <rdf:li>go</rdf:li>
          </rdf:Bag>
        </dc:subject>
        <cc:license
           rdf:resource="http://creativecommons.org/licenses/GPL/2.0/" />
        <dc:description />
      </cc:Work>
      <cc:License
         rdf:about="http://creativecommons.org/licenses/GPL/2.0/">
        <cc:permits
           rdf:resource="http://web.resource.org/cc/Reproduction" />
        <cc:permits
           rdf:resource="http://web.resource.org/cc/Distribution" />
        <cc:requires
           rdf:resource="http://web.resource.org/cc/Notice" />
        <cc:permits
           rdf:resource="http://web.resource.org/cc/DerivativeWorks" />
        <cc:requires
           rdf:resource="http://web.resource.org/cc/ShareAlike" />
        <cc:requires
           rdf:resource="http://web.resource.org/cc/SourceCode" />
      </cc:License>
    </rdf:RDF>
  </metadata>
  <g
     inkscape:label="Layer 1"
     inkscape:groupmode="layer"
     id="layer1"
     transform="translate(0,208)">
    <g
       id="g2424"
       transform="matrix(0.3668174,0.3099156,0.3099156,-0.3668174,-126.45292,64.320666)"
       inkscape:r_cx="true"
       inkscape:r_cy="true"
       style="opacity:0.5;fill:none;stroke:#ffffff;stroke-width:4.12003946;stroke-opacity:1" />
    <g
       style="overflow:visible"
       id="g2518"
       transform="matrix(0.3425824,0,0,0.3425824,2.7618599,1.4330249)">
      <g
         style="fill:#969696;fill-opacity:0.93333333;overflow:visible"
         id="g2606"
         transform="matrix(0.9,0,0,0.9,2.6254053,9.4601793)">
        <path
           style="fill:#00cc00;fill-opacity:1;stroke-width:12.97335894999999972;stroke-miterlimit:4;stroke-dasharray:none;stroke:#000000;stroke-opacity:1"
           id="path2608"
           d="m 676.78452,-370.18602 c -2.21962,-1.81174 -5.48151,-1.47806 -7.29001,0.73748 l -111.39149,136.46553 c -1.32365,1.6215 -1.54,3.88596 -0.55106,5.73006 0.99327,1.84741 3.00093,2.91101 5.08591,2.70011 0,0 64.15121,-6.48978 72.25764,-7.30981 14.46635,56.04236 1.77286,115.65716 -34.68494,160.321536 -63.22781,77.4603136 -177.2894,89.363636 -254.74967,26.135829 -2.21942,-1.811976 -5.47817,-1.482098 -7.2899,0.737471 l -58.97198,72.246475 c -1.81174,2.219569 -1.48208,5.478138 0.73745,7.290008 C 401.65981,134.22648 581.1264,115.70658 680.48441,-6.0166596 733.80496,-71.339558 755.20458,-159.26051 738.7111,-242.365 c 9.42596,-0.95354 71.78381,-7.26186 71.78381,-7.26186 1.39242,-0.14088 2.64053,-0.83419 3.49235,-1.87778 0.42277,-0.51774 0.74834,-1.12137 0.95052,-1.78578 0.60188,-2.00232 -0.0659,-4.18007 -1.68722,-5.50369 L 676.7855,-370.1855 z" />
        <path
           style="fill:#cc0000;fill-opacity:1;stroke:#000000;stroke-opacity:1;stroke-width:12.97335894999999972;stroke-miterlimit:4;stroke-dasharray:none"
           id="path2610"
           d="m 136.73533,-165.79632 c 2.32879,1.66901 5.56031,1.13572 7.22932,-1.1931 l 102.61602,-143.18127 c 1.21931,-1.70132 1.29643,-3.97904 0.1904,-5.75334 -1.1102,-1.77729 -3.18058,-2.71293 -5.24515,-2.37591 0,0 -63.61813,10.49925 -71.65714,11.82596 -17.95172,-55.02507 -9.02407,-115.31422 24.56457,-162.18082 58.24665,-81.27222 171.33747,-100.30379 252.60968,-42.05715 2.3288,1.66901 5.56333,1.13149 7.22933,-1.1931 l 54.32612,-75.80183 c 1.666,-2.3246 1.13571,-5.56032 -1.19309,-7.22935 -127.71348,-91.53044 -305.66586,-61.79441 -397.19633,65.91907 -49.119852,68.53751 -64.964698,157.62725 -43.293166,239.53407 -9.34753,1.54267 -71.1872264,11.74841 -71.1872264,11.74841 -1.3808002,0.22786 -2.5829872,0.99811 -3.3676968,2.09302 -0.3893583,0.54325 -0.6764015,1.16616 -0.8358936,1.84227 -0.4772242,2.03557 0.3276535,4.16773 2.0289828,5.38706 l 143.18128,102.61601 z" />
        <path
           style="font-size:59.90107727000000182px;font-style:normal;font-variant:normal;font-weight:bold;font-stretch:normal;text-align:start;line-height:125%;writing-mode:lr-tb;text-anchor:start;fill:#000000;fill-opacity:1;stroke:#ffffff;stroke-width:12.97335894999999972;stroke-linecap:butt;stroke-linejoin:round;stroke-miterlimit:4;stroke-opacity:1;stroke-dasharray:none;font-family:Bitstream Vera Sans"
           id="text1314"
           d="m 617.02939,-161.81472 -125.1036,-120.58294 120.37905,-126.32356 -86.77665,-78.24638 -123.88669,120.37905 -126.398,-120.37905 -90.28429,81.12442 126.398,122.93099 -126.398,120.96803 90.28429,84.26533 126.25132,-126.398 126.54468,126.398 88.98989,-84.13589 z" />
      </g>
    </g>
  </g>
</svg>
