<?xml version="1.0" encoding="UTF-8" standalone="no"?>
<!-- Created with Sodipodi ("http://www.sodipodi.com/") -->

<svg
   xmlns:dc="http://purl.org/dc/elements/1.1/"
   xmlns:cc="http://creativecommons.org/ns#"
   xmlns:rdf="http://www.w3.org/1999/02/22-rdf-syntax-ns#"
   xmlns:svg="http://www.w3.org/2000/svg"
   xmlns="http://www.w3.org/2000/svg"
   xmlns:xlink="http://www.w3.org/1999/xlink"
   xmlns:sodipodi="http://sodipodi.sourceforge.net/DTD/sodipodi-0.dtd"
   xmlns:inkscape="http://www.inkscape.org/namespaces/inkscape"
   width="48pt"
   height="48pt"
   viewBox="0 0 49.067 49.716"
   overflow="visible"
   enable-background="new 0 0 49.067 49.716"
   xml:space="preserve"
   id="svg153"
   sodipodi:version="0.32pre"
   sodipodi:docname="menu-editor.svg"
   version="1.1"
   inkscape:version="0.92.1 r"><defs
     id="defs220"><inkscape:perspective
       sodipodi:type="inkscape:persp3d"
       inkscape:vp_x="0 : 30 : 1"
       inkscape:vp_y="0 : 1000 : 0"
       inkscape:vp_z="60 : 30 : 1"
       inkscape:persp3d-origin="30 : 20 : 1"
       id="perspective59" /><linearGradient
       inkscape:collect="always"
       xlink:href="#XMLID_1_"
       id="linearGradient2911"
       gradientUnits="userSpaceOnUse"
       gradientTransform="matrix(1,0,0,-1,235.1665,407.0703)"
       x1="-190.5322"
       y1="380.06741"
       x2="-234.2126"
       y2="384.98361" /><linearGradient
       inkscape:collect="always"
       xlink:href="#XMLID_2_"
       id="linearGradient2913"
       gradientUnits="userSpaceOnUse"
       gradientTransform="matrix(1,0,0,-1,235.1665,407.0703)"
       x1="-217.3208"
       y1="382.52249"
       x2="-214.99831"
       y2="386.0947" /><linearGradient
       inkscape:collect="always"
       xlink:href="#XMLID_3_"
       id="linearGradient2915"
       gradientUnits="userSpaceOnUse"
       gradientTransform="matrix(1,0,0,-1,235.1665,407.0703)"
       x1="-231.92239"
       y1="364.7822"
       x2="-227.6593"
       y2="373.12369" /><linearGradient
       id="XMLID_1_"
       gradientUnits="userSpaceOnUse"
       x1="-190.5322"
       y1="380.06741"
       x2="-234.2126"
       y2="384.98361"
       gradientTransform="matrix(1,0,0,-1,235.1665,407.0703)"><stop
         offset="0"
         style="stop-color:#E6E6E6"
         id="stop159" /><stop
         offset="1"
         style="stop-color:#CCCCCC"
         id="stop160" /></linearGradient><linearGradient
       id="XMLID_2_"
       gradientUnits="userSpaceOnUse"
       x1="-217.3208"
       y1="382.52249"
       x2="-214.99831"
       y2="386.0947"
       gradientTransform="matrix(1,0,0,-1,235.1665,407.0703)"><stop
         offset="0"
         style="stop-color:#E6E6E6"
         id="stop187" /><stop
         offset="0.2673"
         style="stop-color:#ECC8C8"
         id="stop188" /><stop
         offset="0.8476"
         style="stop-color:#FB7B7A"
         id="stop189" /><stop
         offset="1"
         style="stop-color:#FF6665"
         id="stop190" /></linearGradient><linearGradient
       inkscape:collect="always"
       xlink:href="#XMLID_2_"
       id="linearGradient2939"
       gradientUnits="userSpaceOnUse"
       gradientTransform="matrix(1,0,0,-1,235.1665,407.0703)"
       x1="-217.3208"
       y1="382.52249"
       x2="-214.99831"
       y2="386.0947" /><linearGradient
       inkscape:collect="always"
       xlink:href="#XMLID_1_"
       id="linearGradient2963"
       gradientUnits="userSpaceOnUse"
       gradientTransform="matrix(1,0,0,-1,235.1665,407.0703)"
       x1="-190.5322"
       y1="380.06741"
       x2="-234.2126"
       y2="384.98361" /><linearGradient
       inkscape:collect="always"
       xlink:href="#XMLID_1_"
       id="linearGradient4246"
       gradientUnits="userSpaceOnUse"
       gradientTransform="matrix(1,0,0,-1,235.1665,407.0703)"
       x1="-190.5322"
       y1="380.06741"
       x2="-234.2126"
       y2="384.98361" /><linearGradient
       inkscape:collect="always"
       xlink:href="#XMLID_7_"
       id="linearGradient4667"
       gradientUnits="userSpaceOnUse"
       gradientTransform="matrix(1.2580594,0,0,-1.2580594,491.22713,578.61708)"
       x1="-205.50391"
       y1="384.91309"
       x2="-215.6445"
       y2="375.52469" /><linearGradient
       gradientTransform="matrix(1,0,0,-1,232.9102,407.9512)"
       y2="375.52469"
       x2="-215.6445"
       y1="384.91309"
       x1="-205.50391"
       gradientUnits="userSpaceOnUse"
       id="XMLID_7_"><stop
         id="stop195"
         style="stop-color:#D8DAA1"
         offset="0" /><stop
         id="stop196"
         style="stop-color:#5C5C3A"
         offset="1" /></linearGradient><linearGradient
       inkscape:collect="always"
       xlink:href="#XMLID_10_"
       id="linearGradient4582"
       gradientUnits="userSpaceOnUse"
       gradientTransform="matrix(1.0666667,0,0,-1.0666667,248.43755,435.14795)"
       x1="-209.79539"
       y1="383.4541"
       x2="-206.6615"
       y2="379.64801" /><linearGradient
       id="XMLID_10_"
       gradientUnits="userSpaceOnUse"
       x1="-209.79539"
       y1="383.4541"
       x2="-206.6615"
       y2="379.64801"
       gradientTransform="matrix(1,0,0,-1,232.9102,407.9512)"><stop
         offset="0"
         style="stop-color:#FFFFFA"
         id="stop224" /><stop
         offset="1"
         style="stop-color:#F49333"
         id="stop225" /></linearGradient><linearGradient
       inkscape:collect="always"
       xlink:href="#XMLID_11_"
       id="linearGradient4584"
       gradientUnits="userSpaceOnUse"
       gradientTransform="matrix(1.0666667,0,0,-1.0666667,248.43755,435.14795)"
       x1="-202.1787"
       y1="393.5264"
       x2="-203.2431"
       y2="394.66669" /><linearGradient
       id="XMLID_11_"
       gradientUnits="userSpaceOnUse"
       x1="-202.1787"
       y1="393.5264"
       x2="-203.2431"
       y2="394.66669"
       gradientTransform="matrix(1,0,0,-1,232.9102,407.9512)"><stop
         offset="0"
         style="stop-color:#ECEB23"
         id="stop235" /><stop
         offset="1"
         style="stop-color:#F49333"
         id="stop236" /></linearGradient><linearGradient
       inkscape:collect="always"
       xlink:href="#XMLID_12_"
       id="linearGradient4586"
       gradientUnits="userSpaceOnUse"
       gradientTransform="matrix(1.0666667,0,0,-1.0666667,248.43755,435.14795)"
       x1="-200.11819"
       y1="390.5498"
       x2="-201.3344"
       y2="391.76599" /><linearGradient
       id="XMLID_12_"
       gradientUnits="userSpaceOnUse"
       x1="-200.11819"
       y1="390.5498"
       x2="-201.3344"
       y2="391.76599"
       gradientTransform="matrix(1,0,0,-1,232.9102,407.9512)"><stop
         offset="0"
         style="stop-color:#ECEB23"
         id="stop243" /><stop
         offset="1"
         style="stop-color:#FFFCF7"
         id="stop244" /></linearGradient><linearGradient
       inkscape:collect="always"
       xlink:href="#XMLID_13_"
       id="linearGradient4588"
       gradientUnits="userSpaceOnUse"
       gradientTransform="matrix(1.0666667,0,0,-1.0666667,248.43755,435.14795)"
       x1="-193.3008"
       y1="405.5527"
       x2="-188.93671"
       y2="400.5466" /><linearGradient
       id="XMLID_13_"
       gradientUnits="userSpaceOnUse"
       x1="-193.3008"
       y1="405.5527"
       x2="-188.93671"
       y2="400.5466"
       gradientTransform="matrix(1,0,0,-1,232.9102,407.9512)"><stop
         offset="0.0279"
         style="stop-color:#FF9999"
         id="stop252" /><stop
         offset="0.1116"
         style="stop-color:#FF9F9F"
         id="stop253" /><stop
         offset="0.2238"
         style="stop-color:#FFB0B0"
         id="stop254" /><stop
         offset="0.3523"
         style="stop-color:#FFCCCC"
         id="stop255" /><stop
         offset="0.4918"
         style="stop-color:#FFF3F3"
         id="stop256" /><stop
         offset="0.5307"
         style="stop-color:#FFFFFF"
         id="stop257" /><stop
         offset="0.6016"
         style="stop-color:#FFE6E6"
         id="stop258" /><stop
         offset="0.7129"
         style="stop-color:#FFC5C5"
         id="stop259" /><stop
         offset="0.8192"
         style="stop-color:#FFACAC"
         id="stop260" /><stop
         offset="0.9175"
         style="stop-color:#FF9E9E"
         id="stop261" /><stop
         offset="1"
         style="stop-color:#FF9999"
         id="stop262" /></linearGradient><linearGradient
       inkscape:collect="always"
       xlink:href="#XMLID_15_"
       id="linearGradient4592"
       gradientUnits="userSpaceOnUse"
       gradientTransform="matrix(1.0666667,0,0,-1.0666667,248.43755,435.14795)"
       x1="-190.4854"
       y1="403.82809"
       x2="-185.8945"
       y2="403.44559" /><linearGradient
       id="XMLID_15_"
       gradientUnits="userSpaceOnUse"
       x1="-190.4854"
       y1="403.82809"
       x2="-185.8945"
       y2="403.44559"
       gradientTransform="matrix(1,0,0,-1,232.9102,407.9512)"><stop
         offset="0"
         style="stop-color:#FFFFFF"
         id="stop296" /><stop
         offset="0.2071"
         style="stop-color:#FFEFEF"
         id="stop297" /><stop
         offset="0.6077"
         style="stop-color:#FFC7C7"
         id="stop298" /><stop
         offset="1"
         style="stop-color:#FF9999"
         id="stop299" /></linearGradient></defs><sodipodi:namedview
     id="base"
     showgrid="false"
     inkscape:zoom="1.3906433"
     inkscape:cx="-0.92636703"
     inkscape:cy="52.37552"
     inkscape:window-width="744"
     inkscape:window-height="587"
     inkscape:window-x="604"
     inkscape:window-y="132"
     inkscape:window-maximized="0"
     inkscape:current-layer="svg153" /><metadata
     id="metadata154"><sfw
       id="sfw6"><slices
         id="slices8" /><sliceSourceBounds
         y="394.642"
         x="271.967"
         width="49.067"
         height="49.716"
         bottomLeftOrigin="true"
         id="sliceSourceBounds10" /></sfw><rdf:RDF><cc:Work
         rdf:about=""><dc:format>image/svg+xml</dc:format><dc:type
           rdf:resource="http://purl.org/dc/dcmitype/StillImage" /><dc:title></dc:title></cc:Work></rdf:RDF></metadata><g
     id="g4170"
     transform="matrix(0.92168912,0,0,0.92168912,-9.1128058,3.8933031)"><path
       style="stroke:none"
       id="path157"
       d="m 9.535,1.708 0,33 30.955,15.008 0,-34.71 L 9.535,0 l 0,1.708 z"
       inkscape:connector-curvature="0" /><path
       style="fill:url(#linearGradient2963);stroke:none"
       id="path164"
       d="m 39.193,47.856 -28.585,-13.819 0,-32.329 28.585,13.82 0,32.328 z"
       inkscape:connector-curvature="0" /><path
       style="fill:#9c9c9c;stroke:none"
       id="path165"
       d="m 38.02,14.991 0.006,32.257 1.172,0.618 -0.008,-32.257 -1.17,-0.618 z"
       inkscape:connector-curvature="0" /><path
       style="fill:#ffffff;stroke:none"
       id="path166"
       d="M 10.609,3.013 37.994,16.252 39.189,15.529 10.604,1.709 10.609,3.013 Z"
       inkscape:connector-curvature="0" /><path
       style="fill:#ffffff;stroke:none"
       id="path167"
       d="m 10.608,1.708 0.019,31.751 1.172,0.618 -0.021,-31.75 -1.17,-0.619 z"
       inkscape:connector-curvature="0" /><path
       style="fill:#9c9c9c;stroke:none"
       id="path168"
       d="M 11.783,11.22 39.195,24.472 39.189,23.168 10.604,9.35 l 1.179,1.87 z"
       inkscape:connector-curvature="0" /><path
       style="fill:#9c9c9c;stroke:none"
       id="path169"
       d="m 10.609,34.037 28.586,13.819 -0.006,-1.303 -28.585,-13.82 0.005,1.304 z"
       inkscape:connector-curvature="0" /><g
       id="g170"
       style="stroke:#000000"><path
         style="fill:#262626;stroke:none"
         id="path171"
         d="m 14.173,17.267 0,1.3 13.899,6.72 0,-1.301 -13.899,-6.719 z"
         inkscape:connector-curvature="0" /><path
         style="fill:#262626;stroke:none"
         id="path172"
         d="m 35.414,28.832 -0.007,-1.305 -2.182,-1.055 0,1.3 2.189,1.06 z"
         inkscape:connector-curvature="0" /></g><g
       id="g173"
       style="stroke:#000000"><path
         style="fill:#262626;stroke:none"
         id="path174"
         d="m 14.173,21.479 0,1.3 13.899,6.719 0,-1.301 -13.899,-6.718 z"
         inkscape:connector-curvature="0" /><path
         style="fill:#262626;stroke:none"
         id="path175"
         d="m 35.414,33.044 -0.007,-1.305 -2.182,-1.055 0,1.301 2.189,1.059 z"
         inkscape:connector-curvature="0" /></g><g
       id="g176"
       style="stroke:#000000"><path
         style="fill:#262626;stroke:none"
         id="path177"
         d="m 14.173,25.69 0,1.301 13.899,6.719 0,-1.301 -13.899,-6.719 z"
         inkscape:connector-curvature="0" /><path
         style="fill:#262626;stroke:none"
         id="path178"
         d="m 35.414,37.255 -0.006,-1.303 -2.183,-1.056 0,1.301 2.189,1.058 z"
         inkscape:connector-curvature="0" /></g><g
       id="g179"
       style="stroke:#000000"><path
         style="fill:#262626;stroke:none"
         id="path180"
         d="m 14.173,29.902 0,1.301 13.899,6.719 0,-1.301 -13.899,-6.719 z"
         inkscape:connector-curvature="0" /><path
         style="fill:#262626;stroke:none"
         id="path181"
         d="m 35.414,41.467 -0.007,-1.303 -2.182,-1.056 0,1.301 2.189,1.058 z"
         inkscape:connector-curvature="0" /></g><path
       style="opacity:0.2;stroke:none"
       id="path184"
       d="m 48.883,47.026 -8.62,-5.254 0.002,7.793 8.803,0.008 -0.185,-2.547 z"
       inkscape:connector-curvature="0" /><path
       style="fill:#ffffff;stroke:none"
       id="path215"
       d="m 10.609,11.937 27.376,13.234 1.204,-0.719 -28.585,-13.819 0.005,1.304 z"
       inkscape:connector-curvature="0" /><g
       id="g216"
       style="stroke:#000000"><path
         style="fill:#262626;stroke:none"
         id="path217"
         d="m 14.173,7.302 0,1.301 13.899,6.72 0,-1.302 -13.899,-6.719 z"
         inkscape:connector-curvature="0" /><path
         style="fill:#262626;stroke:none"
         id="path218"
         d="m 35.414,18.867 -0.007,-1.304 -2.182,-1.056 0,1.301 2.189,1.059 z"
         inkscape:connector-curvature="0" /></g></g><g
     transform="matrix(0.92168912,0,0,0.92168912,12.043934,1.0283133)"
     id="g4196"><path
       inkscape:connector-curvature="0"
       d="m 9.535,1.708 0,33 30.955,15.008 0,-34.71 L 9.535,0 l 0,1.708 z"
       id="path4198"
       style="stroke:none" /><path
       inkscape:connector-curvature="0"
       d="m 39.193,47.856 -28.585,-13.819 0,-32.329 28.585,13.82 0,32.328 z"
       id="path4200"
       style="fill:url(#linearGradient4246);stroke:none" /><path
       inkscape:connector-curvature="0"
       d="m 38.02,14.991 0.006,32.257 1.172,0.618 -0.008,-32.257 -1.17,-0.618 z"
       id="path4202"
       style="fill:#9c9c9c;stroke:none" /><path
       inkscape:connector-curvature="0"
       d="M 10.609,3.013 37.994,16.252 39.189,15.529 10.604,1.709 10.609,3.013 Z"
       id="path4204"
       style="fill:#ffffff;stroke:none" /><path
       inkscape:connector-curvature="0"
       d="m 10.608,1.708 0.019,31.751 1.172,0.618 -0.021,-31.75 -1.17,-0.619 z"
       id="path4206"
       style="fill:#ffffff;stroke:none" /><path
       inkscape:connector-curvature="0"
       d="M 11.783,11.22 39.195,24.472 39.189,23.168 10.604,9.35 l 1.179,1.87 z"
       id="path4208"
       style="fill:#9c9c9c;stroke:none" /><path
       inkscape:connector-curvature="0"
       d="m 10.609,34.037 28.586,13.819 -0.006,-1.303 -28.585,-13.82 0.005,1.304 z"
       id="path4210"
       style="fill:#9c9c9c;stroke:none" /><g
       style="stroke:#000000"
       id="g4212"><path
         inkscape:connector-curvature="0"
         d="m 14.173,17.267 0,1.3 13.899,6.72 0,-1.301 -13.899,-6.719 z"
         id="path4214"
         style="fill:#262626;stroke:none" /><path
         inkscape:connector-curvature="0"
         d="m 35.414,28.832 -0.007,-1.305 -2.182,-1.055 0,1.3 2.189,1.06 z"
         id="path4216"
         style="fill:#262626;stroke:none" /></g><g
       style="stroke:#000000"
       id="g4218"><path
         inkscape:connector-curvature="0"
         d="m 14.173,21.479 0,1.3 13.899,6.719 0,-1.301 -13.899,-6.718 z"
         id="path4220"
         style="fill:#262626;stroke:none" /><path
         inkscape:connector-curvature="0"
         d="m 35.414,33.044 -0.007,-1.305 -2.182,-1.055 0,1.301 2.189,1.059 z"
         id="path4222"
         style="fill:#262626;stroke:none" /></g><g
       style="stroke:#000000"
       id="g4224"><path
         inkscape:connector-curvature="0"
         d="m 14.173,25.69 0,1.301 13.899,6.719 0,-1.301 -13.899,-6.719 z"
         id="path4226"
         style="fill:#262626;stroke:none" /><path
         inkscape:connector-curvature="0"
         d="m 35.414,37.255 -0.006,-1.303 -2.183,-1.056 0,1.301 2.189,1.058 z"
         id="path4228"
         style="fill:#262626;stroke:none" /></g><g
       style="stroke:#000000"
       id="g4230"><path
         inkscape:connector-curvature="0"
         d="m 14.173,29.902 0,1.301 13.899,6.719 0,-1.301 -13.899,-6.719 z"
         id="path4232"
         style="fill:#262626;stroke:none" /><path
         inkscape:connector-curvature="0"
         d="m 35.414,41.467 -0.007,-1.303 -2.182,-1.056 0,1.301 2.189,1.058 z"
         id="path4234"
         style="fill:#262626;stroke:none" /></g><path
       inkscape:connector-curvature="0"
       d="m 48.883,47.026 -8.62,-5.254 0.002,7.793 8.803,0.008 -0.185,-2.547 z"
       id="path4236"
       style="opacity:0.2;stroke:none" /><path
       inkscape:connector-curvature="0"
       d="m 10.609,11.937 27.376,13.234 1.204,-0.719 -28.585,-13.819 0.005,1.304 z"
       id="path4238"
       style="fill:#ffffff;stroke:none" /><g
       style="stroke:#000000"
       id="g4240"><path
         inkscape:connector-curvature="0"
         d="m 14.173,7.302 0,1.301 13.899,6.72 0,-1.302 -13.899,-6.719 z"
         id="path4242"
         style="fill:#262626;stroke:none" /><path
         inkscape:connector-curvature="0"
         d="m 35.414,18.867 -0.007,-1.304 -2.182,-1.056 0,1.301 2.189,1.059 z"
         id="path4244"
         style="fill:#262626;stroke:none" /></g></g><g
     id="g4693"
     transform="matrix(0.85754589,0,0,0.85754589,-189.44701,-55.05641)"
     style="stroke-width:2.7845149"><path
       style="fill:url(#linearGradient4667);stroke:none;stroke-width:2.97014952"
       d="m 233.70337,91.594345 -11.40305,11.892435 c -0.38245,0.38874 1.10583,1.35996 1.48703,0.97374 0,0 11.60056,-12.393145 11.24705,-12.809563 -0.35477,-0.417676 -0.94983,-0.442836 -1.33103,-0.05661 z"
       id="path200"
       inkscape:connector-curvature="0" /><g
       transform="matrix(1.1794307,0,0,1.1794307,198.21226,65.390225)"
       id="g220"
       style="stroke:#000000;stroke-width:2.7845149"><path
         style="stroke:none;stroke-width:2.97014952"
         d="m 50.702933,1.8037333 -0.116266,-0.1088 C 49.730133,0.816 48.7488,0.33493333 47.745067,0.10986667 c -1.437867,-0.416 -2.8128,-0.112 -3.710934,0.70506666 C 43.9744,0.85333333 39.7728,5.0410667 39.7728,5.0410667 39.768533,5.0432 23.802667,21.345067 23.802667,21.345067 L 23.6512,21.5008 19.474133,32.951467 21.768533,33.4432 31.642667,29.168 47.678933,12.792533 c -0.0021,0.0043 0.210134,-0.210133 0.2336,-0.2336 0.1152,-0.09813 0.256,-0.216533 0.256,-0.216533 0,-0.04267 3.9776,-4.3093333 3.9776,-4.3093333 1.112534,-1.6746667 0.5312,-4.2677334 -1.4432,-6.2293334 z"
         id="path221"
         inkscape:connector-curvature="0" /></g><g
       transform="matrix(1.1794307,0,0,1.1794307,198.21226,65.390225)"
       id="g222"
       style="stroke:#000000;stroke-width:2.7845149"><linearGradient
         id="linearGradient4283"
         gradientUnits="userSpaceOnUse"
         x1="-209.79539"
         y1="383.4541"
         x2="-206.6615"
         y2="379.64801"
         gradientTransform="matrix(1,0,0,-1,232.9102,407.9512)"><stop
           offset="0"
           style="stop-color:#FFFFFA"
           id="stop4279" /><stop
           offset="1"
           style="stop-color:#F49333"
           id="stop4281" /></linearGradient><path
         style="fill:url(#linearGradient4582);stroke:none;stroke-width:2.97014952"
         d="m 25.125333,21.8816 -3.707733,8.961067 0.658133,1.008 9.147734,-4.139734 -1.745067,-4.576 z"
         id="path229"
         inkscape:connector-curvature="0" /></g><path
       style="stroke:none;stroke-width:2.97014952"
       d="m 224.54219,98.596703 -1.50338,3.171567 1.1008,1.83803 2.6696,-1.38513 -1.68832,-1.72857 z"
       id="path230"
       inkscape:connector-curvature="0" /><g
       transform="matrix(1.1794307,0,0,1.1794307,198.21226,65.390225)"
       id="g231"
       style="stroke:#000000;stroke-width:2.7845149"><path
         style="fill:#f49300;stroke:none;stroke-width:2.97014952"
         d="M 46.459733,12.1536 31.2224,27.710933 28.2528,27.12 25.5744,24.661333 25.124267,21.880533 40.3616,6.3232 l 0.4448,2.7818667 2.682667,2.4586663 z"
         id="path232"
         inkscape:connector-curvature="0" /></g><g
       transform="matrix(1.1794307,0,0,1.1794307,198.21226,65.390225)"
       id="g233"
       style="stroke:#000000;stroke-width:2.7845149"><linearGradient
         id="linearGradient4294"
         gradientUnits="userSpaceOnUse"
         x1="-202.1787"
         y1="393.5264"
         x2="-203.2431"
         y2="394.66669"
         gradientTransform="matrix(1,0,0,-1,232.9102,407.9512)"><stop
           offset="0"
           style="stop-color:#ECEB23"
           id="stop4290" /><stop
           offset="1"
           style="stop-color:#F49333"
           id="stop4292" /></linearGradient><path
         style="fill:url(#linearGradient4584);stroke:none;stroke-width:2.97014952"
         d="M 25.483733,24.754133 25.125333,21.8816 40.3616,6.3232 40.8064,9.1050667 Z"
         id="path240"
         inkscape:connector-curvature="0" /></g><g
       transform="matrix(1.1794307,0,0,1.1794307,198.21226,65.390225)"
       id="g241"
       style="stroke:#000000;stroke-width:2.7845149"><linearGradient
         id="linearGradient4302"
         gradientUnits="userSpaceOnUse"
         x1="-200.11819"
         y1="390.5498"
         x2="-201.3344"
         y2="391.76599"
         gradientTransform="matrix(1,0,0,-1,232.9102,407.9512)"><stop
           offset="0"
           style="stop-color:#ECEB23"
           id="stop4298" /><stop
           offset="1"
           style="stop-color:#FFFCF7"
           id="stop4300" /></linearGradient><path
         style="fill:url(#linearGradient4586);stroke:none;stroke-width:2.97014952"
         d="M 28.2528,27.121067 25.569067,24.663467 40.8064,9.1050667 43.489067,11.562667 Z"
         id="path248"
         inkscape:connector-curvature="0" /></g><path
       style="stroke:none;stroke-width:2.97014952"
       d="m 245.98203,75.778021 -17.78519,18.293442 3.79808,3.620696 18.23432,-18.683441 -3.90879,-3.579179 z m 0.37742,1.051738 c 0.48686,0.445354 1.9047,1.744929 2.42177,2.217959 -0.68565,0.699481 -16.624,16.973738 -17.26687,17.629187 -0.48687,-0.445353 -1.90597,-1.744928 -2.4205,-2.217959 0.68438,-0.699481 16.62398,-16.973737 17.2656,-17.629187 z"
       id="path249"
       inkscape:connector-curvature="0" /><g
       transform="matrix(1.1794307,0,0,1.1794307,198.21226,65.390225)"
       id="g250"
       style="stroke:#000000;stroke-width:2.7845149"><linearGradient
         id="linearGradient4329"
         gradientUnits="userSpaceOnUse"
         x1="-193.3008"
         y1="405.5527"
         x2="-188.93671"
         y2="400.5466"
         gradientTransform="matrix(1,0,0,-1,232.9102,407.9512)"><stop
           offset="0.0279"
           style="stop-color:#FF9999"
           id="stop4307" /><stop
           offset="0.1116"
           style="stop-color:#FF9F9F"
           id="stop4309" /><stop
           offset="0.2238"
           style="stop-color:#FFB0B0"
           id="stop4311" /><stop
           offset="0.3523"
           style="stop-color:#FFCCCC"
           id="stop4313" /><stop
           offset="0.4918"
           style="stop-color:#FFF3F3"
           id="stop4315" /><stop
           offset="0.5307"
           style="stop-color:#FFFFFF"
           id="stop4317" /><stop
           offset="0.6016"
           style="stop-color:#FFE6E6"
           id="stop4319" /><stop
           offset="0.7129"
           style="stop-color:#FFC5C5"
           id="stop4321" /><stop
           offset="0.8192"
           style="stop-color:#FFACAC"
           id="stop4323" /><stop
           offset="0.9175"
           style="stop-color:#FF9E9E"
           id="stop4325" /><stop
           offset="1"
           style="stop-color:#FF9999"
           id="stop4327" /></linearGradient><path
         style="fill:url(#linearGradient4588);stroke:none;stroke-width:2.97014952"
         d="m 49.732267,2.8202667 c -0.03947,-0.039467 -0.08,-0.0736 -0.120534,-0.112 C 48.859733,1.9349333 48.114133,1.5509333 47.437867,1.4048 46.4192,1.0997333 45.456,1.2192 44.8512,1.8272 44.8448,1.8325333 44.840533,1.84 44.834133,1.8464 44.760533,1.8901333 44.72,1.92 44.72,1.92 l -4.4288,4.4768 0.08,2.3253333 3.048533,2.9151997 2.9696,0.589867 4.4288,-4.4768 c 0,0 0.048,-0.091733 0.107734,-0.2538667 0.837333,-1.1253333 0.3424,-3.1498666 -1.1936,-4.6762666 z"
         id="path284"
         inkscape:connector-curvature="0" /></g><path
       style="stroke:none;stroke-width:2.97014952"
       d="m 227.46969,90.400446 c -0.27175,0.06038 -0.44284,0.329612 -0.38246,0.601352 l 0.83159,3.740212 3.37411,3.097341 3.94904,0.873094 c 0.27175,0.06038 0.53972,-0.111967 0.6001,-0.38245 0.009,-0.03648 0.0113,-0.07423 0.0113,-0.11071 0,-0.230225 -0.15852,-0.437804 -0.39379,-0.490643 0,0 -3.43827,-0.759868 -3.68485,-0.815222 -0.1799,-0.164806 -2.7325,-2.508571 -2.94134,-2.699795 -0.0629,-0.283064 -0.76364,-3.431987 -0.76364,-3.431987 -0.0604,-0.270483 -0.32961,-0.441578 -0.6001,-0.381192 z"
       id="path285"
       inkscape:connector-curvature="0" /><path
       style="stroke:none;stroke-width:2.97014952"
       d="m 245.86754,71.447781 c -1.56251,1.572574 -0.47806,5.075012 1.49836,7.037584 1.38134,1.372543 3.31247,2.255701 4.91649,2.250669 0.84794,-0.0026 1.54867,-0.260418 2.03051,-0.744771 0.19499,-0.197516 0.19499,-0.515805 -0.004,-0.710804 -0.19626,-0.196257 -0.51454,-0.194999 -0.7108,0.0026 -0.36484,0.367353 -0.91713,0.445353 -1.31845,0.446611 -1.33228,0.0037 -3.02185,-0.782513 -4.20568,-1.958798 -1.76255,-1.751219 -2.56645,-4.581853 -1.5449,-5.610945 0.19626,-0.196258 0.24406,-0.519579 0.0478,-0.714578 -0.195,-0.196257 -0.51454,-0.195 -0.70955,0.0026 z"
       id="path293"
       inkscape:connector-curvature="0" /><g
       transform="matrix(1.1794307,0,0,1.1794307,198.21226,65.390225)"
       id="g294"
       style="stroke:#000000;stroke-width:2.7845149"><linearGradient
         id="linearGradient4343"
         gradientUnits="userSpaceOnUse"
         x1="-190.4854"
         y1="403.82809"
         x2="-185.8945"
         y2="403.44559"
         gradientTransform="matrix(1,0,0,-1,232.9102,407.9512)"><stop
           offset="0"
           style="stop-color:#FFFFFF"
           id="stop4335" /><stop
           offset="0.2071"
           style="stop-color:#FFEFEF"
           id="stop4337" /><stop
           offset="0.6077"
           style="stop-color:#FFC7C7"
           id="stop4339" /><stop
           offset="1"
           style="stop-color:#FF9999"
           id="stop4341" /></linearGradient><path
         style="fill:url(#linearGradient4592);stroke:none;stroke-width:2.97014952"
         d="m 46.146133,6.4170667 c -1.608533,-1.6032 -2.110933,-3.7066667 -1.1232,-4.6976 0.9888,-0.99093337 3.092267,-0.4949334 4.7008,1.1093333 1.608534,1.6032 2.110934,3.7066667 1.1232,4.6976 -0.9888,0.9898667 -3.092266,0.4938667 -4.7008,-1.1093333 z"
         id="path307"
         inkscape:connector-curvature="0" /></g><path
       style="stroke:none;stroke-width:2.97014952"
       d="m 250.44814,66.869703 c -0.48687,0.489385 -0.74225,1.187608 -0.73973,2.021702 0.005,1.534832 0.89069,3.40305 2.2557,4.760496 1.38889,1.380092 3.30366,2.268281 4.87875,2.263249 0.83157,-0.0026 1.52351,-0.25916 2.00283,-0.740996 0.19499,-0.197516 0.19499,-0.515805 -0.002,-0.710805 -0.19751,-0.194999 -0.51454,-0.194999 -0.7108,0.0026 -0.36232,0.364838 -0.90203,0.441579 -1.29077,0.444095 -1.30083,0.0037 -2.9753,-0.787545 -4.16669,-1.971379 -1.16748,-1.159931 -1.95502,-2.787859 -1.9588,-4.048435 -0.001,-0.391257 0.001,-1.013996 0.37364,-1.38764 0.19626,-0.197514 0.26797,-0.437804 0.0717,-0.632803 -0.19751,-0.198774 -0.51706,-0.197516 -0.71332,0 z"
       id="path308"
       inkscape:connector-curvature="0" /></g></svg>