<?xml version="1.0" encoding="UTF-8" standalone="no"?>
<!-- Generator: Adobe Illustrator 10.0.3, SVG Export Plug-In . SVG Version: 3.0.0 Build 77)  -->

<svg
   xmlns:a="http://ns.adobe.com/AdobeSVGViewerExtensions/3.0/"
   xmlns:dc="http://purl.org/dc/elements/1.1/"
   xmlns:cc="http://creativecommons.org/ns#"
   xmlns:rdf="http://www.w3.org/1999/02/22-rdf-syntax-ns#"
   xmlns:svg="http://www.w3.org/2000/svg"
   xmlns="http://www.w3.org/2000/svg"
   xmlns:sodipodi="http://sodipodi.sourceforge.net/DTD/sodipodi-0.dtd"
   xmlns:inkscape="http://www.inkscape.org/namespaces/inkscape"
   width="48"
   height="48"
   viewBox="-0.033 -0.097 121 122"
   overflow="visible"
   enable-background="new -0.033 -0.097 121 122"
   xml:space="preserve"
   id="svg2"
   version="1.1"
   inkscape:version="0.91 r13725"
   sodipodi:docname="minus.svg"><metadata
     id="metadata57"><rdf:RDF><cc:Work
         rdf:about=""><dc:format>image/svg+xml</dc:format><dc:type
           rdf:resource="http://purl.org/dc/dcmitype/StillImage" /><dc:title></dc:title></cc:Work></rdf:RDF></metadata><defs
     id="defs55"><linearGradient
       y2="66.0585"
       x2="103.745"
       y1="30.3428"
       x1="25.8198"
       gradientUnits="userSpaceOnUse"
       id="XMLID_1_"><stop
         id="stop8"
         style="stop-color:#CB2F39"
         offset="0" /><stop
         id="stop10"
         style="stop-color:#F81314"
         offset="0.309" /><stop
         id="stop12"
         style="stop-color:#8D1214"
         offset="1" /></linearGradient><linearGradient
       y2="84.4646"
       x2="43.5971"
       y1="84.9385"
       x1="46.0532"
       gradientUnits="userSpaceOnUse"
       id="XMLID_2_"><stop
         id="stop27"
         style="stop-color:#FFFFFF"
         offset="0" /><stop
         id="stop29"
         style="stop-color:#CCCCCC"
         offset="1" /></linearGradient><linearGradient
       y2="64.2039"
       x2="61.1559"
       y1="66.0576"
       x1="70.7627"
       gradientUnits="userSpaceOnUse"
       id="XMLID_3_"><stop
         id="stop36"
         style="stop-color:#FFFFFF"
         offset="0" /><stop
         id="stop38"
         style="stop-color:#CCCCCC"
         offset="1" /></linearGradient><linearGradient
       y2="96.0557"
       x2="52.3833"
       y1="35.3984"
       x1="52.3833"
       gradientUnits="userSpaceOnUse"
       id="XMLID_4_"
       gradientTransform="translate(-2.1738673e-6,0)"><stop
         id="stop47"
         style="stop-color:#FFFFFF"
         offset="0" /><stop
         id="stop49"
         style="stop-color:#000000"
         offset="1" /></linearGradient></defs><sodipodi:namedview
     pagecolor="#ffffff"
     bordercolor="#666666"
     borderopacity="1"
     objecttolerance="10"
     gridtolerance="10"
     guidetolerance="10"
     inkscape:pageopacity="0"
     inkscape:pageshadow="2"
     inkscape:window-width="1918"
     inkscape:window-height="1020"
     id="namedview53"
     showgrid="false"
     inkscape:zoom="14.75"
     inkscape:cx="24"
     inkscape:cy="24"
     inkscape:window-x="2"
     inkscape:window-y="30"
     inkscape:window-maximized="1"
     inkscape:current-layer="svg2" /><path
     inkscape:connector-curvature="0"
     id="path5"
     d="M 30.972,9.877 14.883,24.386 c -0.07,0.065 -0.482,0.451 -0.482,0.451 C 5.114,32.822 0,44.642 0,58.12 c 0,28.622 23.261,56.749 51.854,62.702 15.885,3.309 30.832,-0.69 41.007,-10.974 -0.068,0.062 16.457,-14.84 16.457,-14.84 l 0.066,-0.059 0.062,-0.063 c 7.745,-7.864 12.011,-18.898 12.011,-31.07 C 121.457,35.196 98.195,7.068 69.603,1.115 55.079,-1.909 41,1.284 30.972,9.877 Z" /><path
     inkscape:connector-curvature="0"
     style="fill:url(#XMLID_1_)"
     id="path14"
     d="m 16.398,27.058 c 9.023,-7.731 21.844,-11.064 36.066,-8.104 27.319,5.688 49.465,32.445 49.465,59.764 0,11.87 -4.18,21.892 -11.148,28.965 L 107.308,92.78 C 114.276,85.706 118.456,75.684 118.456,63.815 118.456,36.496 96.31,9.739 68.99,4.051 54.768,1.09 41.948,4.423 32.924,12.155 L 16.398,27.058 Z" /><path
     style="fill:#ac1214"
     inkscape:connector-curvature="0"
     id="path16"
     d="m 101.93,78.719 c 0,27.319 -22.146,44.854 -49.465,39.165 C 25.146,112.196 3,85.438 3,58.12 3,30.8 25.146,13.267 52.464,18.955 79.783,24.643 101.93,51.399 101.93,78.719 Z" /><path
     style="fill:#ffffff"
     inkscape:connector-curvature="0"
     id="path18"
     d="m 83.381,67.128 -61.832,-12.874 0,15.458 61.832,12.874 z"
     sodipodi:nodetypes="ccccc" /><path
     style="fill:#cccccc"
     inkscape:connector-curvature="0"
     id="path22"
     d="m 80.903,79.099 2.478,3.488 0,-15.459 -2.422,2.614 -0.056,9.357 z" /><path
     inkscape:connector-curvature="0"
     style="fill:url(#XMLID_3_)"
     id="path40"
     d="M 22.955088,57.849028 80.95,69.742 83.381,67.128 22.456709,54.718079 Z"
     sodipodi:nodetypes="ccccc" /><path
     style="fill:#cccccc"
     inkscape:connector-curvature="0"
     id="path42"
     d="M 22.112077,69.66013 83.381,82.587 80.848,79.099 24.919885,67.895294 Z"
     sodipodi:nodetypes="ccccc" /><path
     inkscape:connector-curvature="0"
     style="opacity:0.3;fill:url(#XMLID_4_)"
     id="path51"
     d="m 18.578998,28.257 c -8.551,6.954 -13.2600002,17.56 -13.2600002,29.863 0,1.053 0.052,2.151 0.13,3.268 18.7080002,-9.272 38.9240002,-1.578 58.5000062,5.888 7.931,3.024 15.423,5.882 22.835,7.685 4.198,1.05 8.539,1.21 12.665,0.551 -0.784,-11.936 -5.847,-23.972 -14.429,-34.038 -8.936,-10.484 -20.666,-17.675 -33.028,-20.249 -12.715006,-2.647 -24.580006,-0.151 -33.413006,7.032 z"
     a:adobe-blending-mode="screen" /></svg>