<?xml version="1.0" encoding="UTF-8" standalone="no"?>
<svg
   xmlns:dc="http://purl.org/dc/elements/1.1/"
   xmlns:cc="http://creativecommons.org/ns#"
   xmlns:rdf="http://www.w3.org/1999/02/22-rdf-syntax-ns#"
   xmlns:svg="http://www.w3.org/2000/svg"
   xmlns="http://www.w3.org/2000/svg"
   xmlns:sodipodi="http://sodipodi.sourceforge.net/DTD/sodipodi-0.dtd"
   xmlns:inkscape="http://www.inkscape.org/namespaces/inkscape"
   version="1.1"
   width="64"
   height="64"
   color-interpolation="linearRGB"
   id="svg2"
   inkscape:version="0.91 r13725"
   sodipodi:docname="object-rotate-left.svg">
  <metadata
     id="metadata73">
    <rdf:RDF>
      <cc:Work
         rdf:about="">
        <dc:format>image/svg+xml</dc:format>
        <dc:type
           rdf:resource="http://purl.org/dc/dcmitype/StillImage" />
        <dc:title></dc:title>
      </cc:Work>
    </rdf:RDF>
  </metadata>
  <defs
     id="defs71">
    <radialGradient
       gradientTransform="matrix(0.2181,0,0,0.2193,44.25,8.75)"
       r="64"
       cy="0"
       cx="0"
       gradientUnits="userSpaceOnUse"
       id="gradient0">
      <stop
         id="stop11"
         stop-color="#ffffff"
         offset="0.0075" />
      <stop
         id="stop13"
         stop-color="#4b7aff"
         offset="0.2744" />
      <stop
         id="stop15"
         stop-color="#0420ae"
         offset="0.7142" />
      <stop
         id="stop17"
         stop-color="#031b92"
         offset="0.8759" />
      <stop
         id="stop19"
         stop-color="#0431b3"
         offset="1" />
    </radialGradient>
    <linearGradient
       y2="3.29"
       x2="70.73"
       y1="-4.27"
       x1="61.14"
       gradientUnits="userSpaceOnUse"
       id="gradient1">
      <stop
         id="stop26"
         stop-color="#910335"
         offset="0" />
      <stop
         id="stop28"
         stop-color="#ff90af"
         offset="1" />
    </linearGradient>
    <linearGradient
       y2="5.08"
       x2="49.33"
       y1="1.69"
       x1="25.57"
       gradientUnits="userSpaceOnUse"
       id="gradient2">
      <stop
         id="stop33"
         stop-color="#fc3d5d"
         offset="0" />
      <stop
         id="stop35"
         stop-color="#f92145"
         offset="0.9924" />
    </linearGradient>
    <linearGradient
       y2="-18"
       x2="44"
       y1="-18"
       x1="24"
       gradientUnits="userSpaceOnUse"
       id="gradient3">
      <stop
         id="stop40"
         stop-color="#ffa5a5"
         offset="0" />
      <stop
         id="stop42"
         stop-color="#ff6e6e"
         offset="1" />
    </linearGradient>
    <linearGradient
       y2="3.6"
       x2="46.08"
       y1="-12.2"
       x1="18.66"
       gradientUnits="userSpaceOnUse"
       id="gradient4">
      <stop
         id="stop49"
         stop-color="#fff289"
         offset="0" />
      <stop
         id="stop51"
         stop-color="#ffcc60"
         offset="1" />
    </linearGradient>
    <linearGradient
       y2="17.27"
       x2="50.06"
       y1="9.3"
       x1="30.27"
       gradientUnits="userSpaceOnUse"
       id="gradient5">
      <stop
         id="stop56"
         stop-color="#f99b05"
         offset="0" />
      <stop
         id="stop58"
         stop-color="#fcb23d"
         offset="1" />
    </linearGradient>
    <linearGradient
       y2="6.86"
       x2="46.01"
       y1="-6.81"
       x1="20.5"
       gradientUnits="userSpaceOnUse"
       id="gradient6">
      <stop
         id="stop63"
         stop-color="#ffffff"
         offset="0" />
      <stop
         id="stop65"
         stop-color="#fff289"
         offset="1" />
    </linearGradient>
  </defs>
  <sodipodi:namedview
     pagecolor="#ffffff"
     bordercolor="#666666"
     borderopacity="1"
     objecttolerance="10"
     gridtolerance="10"
     guidetolerance="10"
     inkscape:pageopacity="0"
     inkscape:pageshadow="2"
     inkscape:window-width="985"
     inkscape:window-height="694"
     id="namedview69"
     showgrid="false"
     inkscape:zoom="4.625"
     inkscape:cx="32"
     inkscape:cy="32"
     inkscape:window-x="874"
     inkscape:window-y="249"
     inkscape:window-maximized="0"
     inkscape:current-layer="svg2" />
  <g
     id="g6762"
     transform="translate(25,0)">
    <path
       sodipodi:nodetypes="cccccc"
       style="fill:#010101;fill-opacity:0.45489999"
       d="m 18,62 8,0 13,-13 -9,-5 -2,-4 z"
       id="path6"
       inkscape:connector-curvature="0" />
    <path
       style="fill:none;stroke:#000000;stroke-width:4"
       d="M 2,34 2,52 18,60 30,48 30,31 14,26 2,34 Z"
       id="path46"
       inkscape:connector-curvature="0" />
    <path
       style="fill:url(#gradient4)"
       d="M 2,34 2,52 18,60 18,41 2,34 Z"
       id="path53"
       inkscape:connector-curvature="0" />
    <path
       style="fill:url(#gradient5)"
       d="M 18,41 18,60 30,48 30,31 18,41 Z"
       id="path60"
       inkscape:connector-curvature="0" />
    <path
       style="fill:url(#gradient6)"
       d="M 2,34 18,41 30,31 14,26 2,34 Z"
       id="path67"
       inkscape:connector-curvature="0" />
  </g>
  <path
     inkscape:connector-curvature="0"
     id="path6960"
     d="m 27.616141,2.6859298 c -10.943515,0 -19.4526952,8.6871442 -19.4526952,19.1240022 l 0,2.8686 -6.2153003,0 c -0.3806585,0.0029 -0.7233405,0.231307 -0.8725106,0.581533 -0.14917024,0.350224 -0.076419,0.755569 0.1852418,1.032055 L 13.661596,39.708802 c 0.181012,0.195805 0.435555,0.30714 0.70221,0.30714 0.266654,0 0.521198,-0.111335 0.702209,-0.30714 L 27.436854,26.29212 c 0.265559,-0.280412 0.336383,-0.693036 0.179532,-1.045953 -0.156852,-0.352916 -0.510589,-0.576846 -0.896682,-0.567635 l -6.125657,0 0,-2.8686 c 1e-6,-2.015605 0.692716,-3.708305 1.9124,-4.870644 1.222297,-1.164824 2.994185,-1.822756 5.109694,-1.822756 l 8.277107,0 c 0.528073,-5.8e-5 0.956148,-0.428129 0.9562,-0.9562 l 0,-10.5182021 c -5.2e-5,-0.5280711 -0.428127,-0.9561427 -0.9562,-0.9562001 l -8.277107,0 z"
     style="color:#000000;display:inline;overflow:visible;visibility:visible;fill:#00cc00;fill-opacity:1;fill-rule:nonzero;stroke:#000000;stroke-width:2;stroke-linecap:square;stroke-linejoin:miter;stroke-miterlimit:4;stroke-dasharray:none;stroke-dashoffset:1.39999998;stroke-opacity:1;marker:none" />
</svg>
