<?xml version="1.0" encoding="UTF-8" standalone="no"?>
<svg
   xmlns:dc="http://purl.org/dc/elements/1.1/"
   xmlns:cc="http://creativecommons.org/ns#"
   xmlns:rdf="http://www.w3.org/1999/02/22-rdf-syntax-ns#"
   xmlns:svg="http://www.w3.org/2000/svg"
   xmlns="http://www.w3.org/2000/svg"
   xmlns:xlink="http://www.w3.org/1999/xlink"
   xmlns:sodipodi="http://sodipodi.sourceforge.net/DTD/sodipodi-0.dtd"
   xmlns:inkscape="http://www.inkscape.org/namespaces/inkscape"
   version="1.1"
   width="64"
   height="64"
   color-interpolation="linearRGB"
   id="svg2"
   inkscape:version="0.47 r22583"
   sodipodi:docname="paloma_mensajera.svg">
  <metadata
     id="metadata46">
    <rdf:RDF>
      <cc:Work
         rdf:about="">
        <dc:format>image/svg+xml</dc:format>
        <dc:type
           rdf:resource="http://purl.org/dc/dcmitype/StillImage" />
        <dc:title></dc:title>
      </cc:Work>
    </rdf:RDF>
  </metadata>
  <defs
     id="defs44">
    <inkscape:perspective
       sodipodi:type="inkscape:persp3d"
       inkscape:vp_x="0 : 32 : 1"
       inkscape:vp_y="0 : 1000 : 0"
       inkscape:vp_z="64 : 32 : 1"
       inkscape:persp3d-origin="32 : 21.333333 : 1"
       id="perspective48" />
    <linearGradient
       gradientTransform="translate(-62.292373,3.3095732)"
       y2="23.200001"
       x2="48.68"
       y1="20.639999"
       x1="36.580002"
       gradientUnits="userSpaceOnUse"
       id="linearGradient3110"
       xlink:href="#gradient0-3"
       inkscape:collect="always" />
    <linearGradient
       gradientTransform="translate(-62.292373,3.3095732)"
       y2="23.200001"
       x2="48.68"
       y1="20.639999"
       x1="36.580002"
       gradientUnits="userSpaceOnUse"
       id="linearGradient3107"
       xlink:href="#gradient1-0"
       inkscape:collect="always" />
    <linearGradient
       gradientTransform="translate(-62.292373,3.3095732)"
       y2="19.360001"
       x2="61.330002"
       y1="2.0999999"
       x1="48.869999"
       gradientUnits="userSpaceOnUse"
       id="linearGradient3104"
       xlink:href="#gradient2-9"
       inkscape:collect="always" />
    <linearGradient
       gradientTransform="translate(-62.292373,3.3095732)"
       y2="24.959999"
       x2="66.169998"
       y1="15.6"
       x1="68.800003"
       gradientUnits="userSpaceOnUse"
       id="linearGradient3101"
       xlink:href="#gradient3-2"
       inkscape:collect="always" />
    <linearGradient
       gradientTransform="translate(-62.292373,3.3095732)"
       y2="22.870001"
       x2="22.48"
       y1="16.389999"
       x1="33.02"
       gradientUnits="userSpaceOnUse"
       id="linearGradient3098"
       xlink:href="#gradient4-5"
       inkscape:collect="always" />
    <linearGradient
       gradientTransform="translate(-62.292373,3.3095732)"
       y2="21.299999"
       x2="20.690001"
       y1="17.709999"
       x1="30.030001"
       gradientUnits="userSpaceOnUse"
       id="linearGradient3095"
       xlink:href="#gradient5-4"
       inkscape:collect="always" />
    <linearGradient
       gradientTransform="translate(-11.580509,2.2248274)"
       y2="1.55"
       x2="15.02"
       y1="8.8800001"
       x1="-2.95"
       gradientUnits="userSpaceOnUse"
       id="linearGradient3091"
       xlink:href="#gradient6-0"
       inkscape:collect="always" />
    <linearGradient
       y2="1.55"
       x2="15.02"
       y1="8.8800001"
       x1="-2.95"
       gradientUnits="userSpaceOnUse"
       id="gradient6-0">
      <stop
         id="stop3014"
         stop-color="#ffe8a2"
         offset="0" />
      <stop
         id="stop3016"
         stop-color="#ffc106"
         offset="1" />
    </linearGradient>
    <linearGradient
       y2="21.299999"
       x2="20.690001"
       y1="17.709999"
       x1="30.030001"
       gradientUnits="userSpaceOnUse"
       id="gradient5-4">
      <stop
         id="stop3005"
         stop-color="#a5c7ff"
         offset="0" />
      <stop
         id="stop3007"
         stop-color="#ffffff"
         offset="1" />
    </linearGradient>
    <linearGradient
       y2="22.870001"
       x2="22.48"
       y1="16.389999"
       x1="33.02"
       gradientUnits="userSpaceOnUse"
       id="gradient4-5">
      <stop
         id="stop2998"
         stop-color="#2e57ab"
         offset="0" />
      <stop
         id="stop3000"
         stop-color="#033291"
         offset="1" />
    </linearGradient>
    <linearGradient
       y2="24.959999"
       x2="66.169998"
       y1="15.6"
       x1="68.800003"
       gradientUnits="userSpaceOnUse"
       id="gradient3-2">
      <stop
         id="stop2987"
         stop-color="#b0cbf8"
         offset="0" />
      <stop
         id="stop2989"
         stop-color="#e4edfd"
         offset="0.1684" />
      <stop
         id="stop2991"
         stop-color="#b0cbf8"
         offset="0.3479" />
      <stop
         id="stop2993"
         stop-color="#80aefa"
         offset="1" />
    </linearGradient>
    <linearGradient
       y2="19.360001"
       x2="61.330002"
       y1="2.0999999"
       x1="48.869999"
       gradientUnits="userSpaceOnUse"
       id="gradient2-9">
      <stop
         id="stop2980"
         stop-color="#90baff"
         offset="0" />
      <stop
         id="stop2982"
         stop-color="#3878e5"
         offset="1" />
    </linearGradient>
    <linearGradient
       y2="23.200001"
       x2="48.68"
       y1="20.639999"
       x1="36.580002"
       gradientUnits="userSpaceOnUse"
       id="gradient1-0">
      <stop
         id="stop2973"
         stop-color="#486fbe"
         offset="0" />
      <stop
         id="stop2975"
         stop-color="#033291"
         offset="1" />
    </linearGradient>
    <linearGradient
       y2="23.200001"
       x2="48.68"
       y1="20.639999"
       x1="36.580002"
       gradientUnits="userSpaceOnUse"
       id="gradient0-3">
      <stop
         id="stop2966"
         stop-color="#486fbe"
         offset="0" />
      <stop
         id="stop2968"
         stop-color="#033291"
         offset="1" />
    </linearGradient>
    <inkscape:perspective
       sodipodi:type="inkscape:persp3d"
       inkscape:vp_x="0 : 32 : 1"
       inkscape:vp_y="0 : 1000 : 0"
       inkscape:vp_z="64 : 32 : 1"
       inkscape:persp3d-origin="32 : 21.333333 : 1"
       id="perspective3028" />
    <radialGradient
       r="64"
       cy="0"
       cx="0"
       gradientTransform="matrix(0.375,0,0,0.3125,51.627119,39.627119)"
       gradientUnits="userSpaceOnUse"
       id="radialGradient2953"
       xlink:href="#gradient0-9"
       inkscape:collect="always" />
    <radialGradient
       id="gradient6"
       gradientUnits="userSpaceOnUse"
       cx="0"
       cy="0"
       r="64"
       gradientTransform="matrix(0.1618,-0.0809,0.0404,0.0809,13.5278,14)">
      <stop
         offset="0.6931"
         stop-color="#ffc106"
         id="stop79" />
      <stop
         offset="0"
         stop-color="#c48305"
         id="stop81" />
    </radialGradient>
    <radialGradient
       id="gradient5"
       gradientUnits="userSpaceOnUse"
       cx="0"
       cy="0"
       r="64"
       gradientTransform="matrix(0.3312,-0.0729,0.0439,0.1997,24.0679,25.9926)">
      <stop
         offset="0"
         stop-color="#ffffff"
         id="stop66" />
      <stop
         offset="0.4813"
         stop-color="#eaeaea"
         id="stop68" />
      <stop
         offset="1"
         stop-color="#aeaeae"
         id="stop70" />
    </radialGradient>
    <radialGradient
       id="gradient4"
       gradientUnits="userSpaceOnUse"
       cx="0"
       cy="0"
       r="64"
       gradientTransform="matrix(0.3147,0.2039,-0.2378,0.3671,24,22)">
      <stop
         offset="0.4873"
         stop-color="#ffffff"
         id="stop57" />
      <stop
         offset="0"
         stop-color="#a9a9a9"
         id="stop59" />
    </radialGradient>
    <radialGradient
       id="gradient3-5"
       gradientUnits="userSpaceOnUse"
       cx="0"
       cy="0"
       r="64"
       gradientTransform="matrix(0.4216,-0.0981,0.0849,0.3648,13.3892,20.9654)">
      <stop
         offset="0.4873"
         stop-color="#ffffff"
         id="stop50" />
      <stop
         offset="0.9927"
         stop-color="#a9a9a9"
         id="stop52" />
    </radialGradient>
    <radialGradient
       id="gradient2-0"
       gradientUnits="userSpaceOnUse"
       cx="0"
       cy="0"
       r="64"
       gradientTransform="matrix(0.4216,-0.0981,0.0849,0.3648,13.3892,20.9654)">
      <stop
         offset="0.4873"
         stop-color="#ffffff"
         id="stop43" />
      <stop
         offset="0.9927"
         stop-color="#a9a9a9"
         id="stop45" />
    </radialGradient>
    <radialGradient
       id="gradient1-4"
       gradientUnits="userSpaceOnUse"
       cx="0"
       cy="0"
       r="64"
       gradientTransform="matrix(0.3312,-0.0729,0.0439,0.1997,24.0679,25.9926)">
      <stop
         offset="0"
         stop-color="#ffffff"
         id="stop28" />
      <stop
         offset="0.4813"
         stop-color="#eaeaea"
         id="stop30" />
      <stop
         offset="1"
         stop-color="#aeaeae"
         id="stop32" />
    </radialGradient>
    <radialGradient
       id="gradient0-9"
       gradientUnits="userSpaceOnUse"
       cx="0"
       cy="0"
       r="64"
       gradientTransform="matrix(0.375,0,0,0.3125,34,38)">
      <stop
         offset="1"
         stop-color="#ffea06"
         id="stop11-2" />
      <stop
         offset="0"
         stop-color="#d9af05"
         id="stop13-5" />
    </radialGradient>
    <inkscape:perspective
       id="perspective93"
       inkscape:persp3d-origin="32 : 21.333333 : 1"
       inkscape:vp_z="64 : 32 : 1"
       inkscape:vp_y="0 : 1000 : 0"
       inkscape:vp_x="0 : 32 : 1"
       sodipodi:type="inkscape:persp3d" />
    <radialGradient
       inkscape:collect="always"
       xlink:href="#gradient6"
       id="radialGradient2944"
       gradientUnits="userSpaceOnUse"
       gradientTransform="matrix(0.14931366,-0.07465682,0.03728227,0.07465682,24.488571,24.318374)"
       cx="0"
       cy="0"
       r="64" />
    <radialGradient
       inkscape:collect="always"
       xlink:href="#gradient5"
       id="radialGradient2949"
       gradientUnits="userSpaceOnUse"
       gradientTransform="matrix(0.30564081,-0.0672742,0.04051217,0.18428886,34.215275,35.385487)"
       cx="0"
       cy="0"
       r="64" />
    <radialGradient
       inkscape:collect="always"
       xlink:href="#gradient4"
       id="radialGradient2954"
       gradientUnits="userSpaceOnUse"
       gradientTransform="matrix(0.29041414,0.18816474,-0.21944863,0.33877036,34.152616,31.701002)"
       cx="0"
       cy="0"
       r="64" />
    <radialGradient
       inkscape:collect="always"
       xlink:href="#gradient3-5"
       id="radialGradient2957"
       gradientUnits="userSpaceOnUse"
       gradientTransform="matrix(0.38906451,-0.09052948,0.07834814,0.33664784,24.360667,30.746244)"
       cx="0"
       cy="0"
       r="64" />
    <radialGradient
       inkscape:collect="always"
       xlink:href="#gradient2-0"
       id="radialGradient2960"
       gradientUnits="userSpaceOnUse"
       gradientTransform="matrix(0.38906451,-0.09052948,0.07834814,0.33664784,24.360667,30.746244)"
       cx="0"
       cy="0"
       r="64" />
    <radialGradient
       inkscape:collect="always"
       xlink:href="#gradient1-4"
       id="radialGradient2966"
       gradientUnits="userSpaceOnUse"
       gradientTransform="matrix(0.30564081,-0.0672742,0.04051217,0.18428886,24.98699,31.694173)"
       cx="0"
       cy="0"
       r="64" />
    <radialGradient
       inkscape:collect="always"
       xlink:href="#gradient1-4"
       id="radialGradient2991"
       gradientUnits="userSpaceOnUse"
       gradientTransform="matrix(0.30564081,-0.0672742,0.04051217,0.18428886,24.98699,31.694173)"
       cx="0"
       cy="0"
       r="64" />
    <radialGradient
       inkscape:collect="always"
       xlink:href="#gradient2-0"
       id="radialGradient2993"
       gradientUnits="userSpaceOnUse"
       gradientTransform="matrix(0.38906451,-0.09052948,0.07834814,0.33664784,24.360667,30.746244)"
       cx="0"
       cy="0"
       r="64" />
    <radialGradient
       inkscape:collect="always"
       xlink:href="#gradient3-5"
       id="radialGradient2995"
       gradientUnits="userSpaceOnUse"
       gradientTransform="matrix(0.38906451,-0.09052948,0.07834814,0.33664784,24.360667,30.746244)"
       cx="0"
       cy="0"
       r="64" />
    <radialGradient
       inkscape:collect="always"
       xlink:href="#gradient4"
       id="radialGradient2997"
       gradientUnits="userSpaceOnUse"
       gradientTransform="matrix(0.29041414,0.18816474,-0.21944863,0.33877036,34.152616,31.701002)"
       cx="0"
       cy="0"
       r="64" />
    <radialGradient
       inkscape:collect="always"
       xlink:href="#gradient5"
       id="radialGradient2999"
       gradientUnits="userSpaceOnUse"
       gradientTransform="matrix(0.30564081,-0.0672742,0.04051217,0.18428886,34.215275,35.385487)"
       cx="0"
       cy="0"
       r="64" />
    <radialGradient
       inkscape:collect="always"
       xlink:href="#gradient6"
       id="radialGradient3001"
       gradientUnits="userSpaceOnUse"
       gradientTransform="matrix(0.14931366,-0.07465682,0.03728227,0.07465682,24.488571,24.318374)"
       cx="0"
       cy="0"
       r="64" />
  </defs>
  <sodipodi:namedview
     pagecolor="#ffffff"
     bordercolor="#666666"
     borderopacity="1"
     objecttolerance="10"
     gridtolerance="10"
     guidetolerance="10"
     inkscape:pageopacity="0"
     inkscape:pageshadow="2"
     inkscape:window-width="739"
     inkscape:window-height="501"
     id="namedview42"
     showgrid="false"
     inkscape:zoom="3.6875"
     inkscape:cx="32"
     inkscape:cy="32.170385"
     inkscape:window-x="185"
     inkscape:window-y="356"
     inkscape:window-maximized="0"
     inkscape:current-layer="svg2" />
  <g
     id="g2972"
     transform="matrix(1.2557709,0,0,1.2557709,-16.288287,-16.369334)">
    <path
       style="fill:#010101;fill-opacity:0.41559999"
       d="m 34.152616,61.231515 c 0,0 3.691314,-3.691315 5.536971,-3.691315 0,0 14.765256,0 16.610914,-1.845656 1.845656,-1.845657 -1.845658,-3.691314 0,-5.536971 5.536971,-5.536972 1.845656,-14.765257 7.382628,-20.302228 l -35.067486,5.536971 v 14.765257 l -2.768485,8.305457 c 0,0 4.614143,-4.614143 6.459799,-4.614143 1.845659,0 1.845659,3.691313 1.845659,3.691313 v 3.691315 z"
       id="path19" />
    <path
       style="fill:#010101"
       d="m 25.847158,57.5402 -2.768486,2.768486 1.845658,-3.691314 -3.691314,1.845658 6.459799,-5.536972 2.768486,1.845657 h -1.845658 l -2.768485,5.536971 V 57.5402 z"
       id="path21" />
    <path
       style="fill:none;stroke:#010101;stroke-width:3.69131422"
       d="m 28.615643,52.00323 c -0.922828,0 0.922829,-4.614143 -0.922828,-6.4598 0,-1.845657 1.845657,-4.614143 4.614142,-4.614143 1.845659,2.768486 -0.922828,10.151114 -3.691314,11.073943 z"
       id="path23" />
    <path
       style="fill:none;stroke:#010101;stroke-width:3.69131422"
       d="m 41.535244,33.546659 c 0.922828,0.922828 2.768486,-0.922828 3.691314,0 0,1.845657 -3.691314,3.691314 -7.382628,3.691314 0,0 1.845657,0.922828 1.845657,1.845658 -1.845657,1.845656 -7.844042,3.635943 -11.304651,3.663628 -3.460606,0.02768 -10.843235,-1.817972 -10.843235,-7.354943 0,-3.691314 3.691315,-5.536971 3.691315,-5.536971 2.768485,-1.845657 7.382627,-1.845657 9.228285,-1.845657 h 9.228286 c 1.845657,0 6.4598,-3.691314 7.382628,-3.691314 0,3.691314 -3.691314,8.305457 -5.536971,9.228285 z"
       id="path25" />
    <path
       style="fill:url(#radialGradient2991)"
       d="m 41.535244,33.546659 c 0.922828,0.922828 2.768486,-0.922828 3.691314,0 0,1.845657 -3.691314,3.691314 -7.382628,3.691314 0,0 1.845657,0.922828 1.845657,1.845658 -1.845657,1.845656 -7.844042,3.635943 -11.304651,3.663628 -3.460606,0.02768 -10.843235,-1.817972 -10.843235,-7.354943 0,-3.691314 3.691315,-5.536971 3.691315,-5.536971 2.768485,-1.845657 7.382627,-1.845657 9.228285,-1.845657 h 9.228286 c 1.845657,0 6.4598,-3.691314 7.382628,-3.691314 0,3.691314 -3.691314,8.305457 -5.536971,9.228285 z"
       id="path34" />
    <path
       style="fill:none;stroke:#010101;stroke-width:3.69131422"
       d="m 54.454843,26.164031 c 0.922829,0 1.845658,0.922829 3.691314,1.845657 1.845658,0.922828 3.691315,0.922828 3.691315,1.845657 0,1.845657 -5.536971,1.845657 -7.382629,3.691314 -0.80286,0.793633 -2.768486,2.768486 -4.614142,4.614142 -2.768486,2.768486 -6.4598,5.536972 -8.305457,6.4598 -3.691314,1.845658 -9.228287,5.536972 -12.919601,5.536972 -3.691313,0 -7.382627,-1.845657 -9.228285,-3.691314 -1.845657,-1.845658 -3.691314,-3.691314 -3.691314,-7.382628 0,-3.691315 1.845657,-5.536972 3.691314,-7.382629 1.845658,-1.845657 17.533744,-1.845657 23.070714,-1.845657 1.845658,0 10.151115,-3.691314 11.996771,-3.691314 z M 24.001501,15.090088 c 5.536971,0 6.4598,2.768486 6.4598,4.614143 0,3.691315 -0.922829,8.305457 4.614143,11.073943 0,0 1.845658,0.922828 1.845658,1.845657 l -3.691314,4.614142 c -3.691316,3.691314 -7.38263,7.382628 -12.919601,7.382628 -2.768486,0 -4.614143,-3.691314 -4.614143,-5.53697 0,-1.845658 1.255048,-4.531089 1.845657,-5.536972 0.802861,-1.393471 4.614143,-4.614143 2.768486,-8.305457 -2.768486,-5.536971 0,-10.151114 3.691314,-10.151114 z"
       id="path36" />
    <path
       style="fill:#010101"
       d="M 33.229788,61.231515 30.461301,64 l 1.845656,-3.691314 -3.691314,1.845658 6.459801,-5.536972 2.768486,1.845658 H 35.998273 L 33.229788,64 v -2.768485 z"
       id="path38" />
    <path
       style="fill:none;stroke:#010101;stroke-width:3.69131422"
       d="m 35.998273,55.694544 c -0.922829,0 0.922829,-4.614143 -0.922829,-6.4598 0,-1.845657 1.845658,-4.614143 4.614143,-4.614143 1.845657,2.768486 -0.922829,10.151114 -3.691314,11.073943 z"
       id="path40-9" />
    <path
       style="fill:url(#radialGradient2993)"
       d="m 35.998273,55.694544 c -0.922829,0 0.922829,-4.614143 -0.922829,-6.4598 0,-1.845657 1.845658,-4.614143 4.614143,-4.614143 1.845657,2.768486 -0.922829,10.151114 -3.691314,11.073943 z"
       id="path47" />
    <path
       style="fill:url(#radialGradient2995)"
       d="m 54.454843,26.164031 c 0.922829,0 1.845658,0.922829 3.691314,1.845657 1.845658,0.922828 3.691315,0.922828 3.691315,1.845657 0,1.845657 -5.536971,1.845657 -7.382629,3.691314 -0.80286,0.793633 -2.768486,2.768486 -4.614142,4.614142 -2.768486,2.768486 -6.4598,5.536972 -8.305457,6.4598 -3.691314,1.845658 -9.228287,5.536972 -12.919601,5.536972 -3.691313,0 -7.382627,-1.845657 -9.228285,-3.691314 -1.845657,-1.845658 -3.691314,-3.691314 -3.691314,-7.382628 0,-3.691315 1.845657,-5.536972 3.691314,-7.382629 1.845658,-1.845657 17.533744,-1.845657 23.070714,-1.845657 1.845658,0 10.151115,-3.691314 11.996771,-3.691314 z"
       id="path54" />
    <path
       style="fill:url(#radialGradient2997)"
       d="m 24.001501,15.090088 c 5.536971,0 6.4598,2.768486 6.4598,4.614143 0,3.691315 -0.922829,8.305457 4.614143,11.073943 0,0 1.845658,0.922828 1.845658,1.845657 l -3.691314,4.614142 c -3.691316,3.691314 -7.38263,7.382628 -12.919601,7.382628 -2.768486,0 -4.614143,-3.691314 -4.614143,-5.53697 0,-1.845658 1.255048,-4.531089 1.845657,-5.536972 0.802861,-1.393471 4.614143,-4.614143 2.768486,-8.305457 -2.768486,-5.536971 0,-10.151114 3.691314,-10.151114 z"
       id="path61" />
    <path
       style="fill:none;stroke:#010101;stroke-width:3.58741808"
       d="m 51.378317,37.237973 c 0.871612,0.922828 2.614835,-0.922828 3.486446,0 0,1.845658 -3.486446,3.691314 -6.972892,3.691314 0,0 1.743223,0.922829 1.743223,1.845658 -1.743223,1.845656 -7.408698,3.635943 -10.67724,3.663628 -3.268545,0.02768 -10.241437,-1.817972 -10.241437,-7.354942 0,-3.691315 3.486446,-5.536972 3.486446,-5.536972 2.614835,-1.845657 6.972892,-1.845657 8.716115,-1.845657 l 8.716116,0 c 1.743223,0 6.101281,-3.691314 6.972892,-3.691314 0,3.691314 -3.486446,8.305457 -5.229669,9.228285 z"
       id="path63" />
    <path
       style="fill:url(#radialGradient2999)"
       d="m 50.763529,37.237973 c 0.922828,0.922828 2.768486,-0.922828 3.691314,0 0,1.845658 -3.691314,3.691314 -7.382628,3.691314 0,0 1.845657,0.922829 1.845657,1.845658 -1.845657,1.845656 -7.844042,3.635943 -11.304649,3.663628 -3.460607,0.02768 -10.843236,-1.817972 -10.843236,-7.354942 0,-3.691315 3.691314,-5.536972 3.691314,-5.536972 2.768487,-1.845657 7.382629,-1.845657 9.228286,-1.845657 h 9.228285 c 1.845657,0 6.4598,-3.691314 7.382629,-3.691314 0,3.691314 -3.691314,8.305457 -5.536972,9.228285 z"
       id="path72" />
    <path
       style="fill:#c70440"
       d="m 27.692815,20.62706 c 1.845657,0 1.845657,2.768486 0,2.768486 -1.845657,0 -1.845657,-2.768486 0,-2.768486 z"
       id="path74" />
    <path
       style="fill:none;stroke:#010101;stroke-width:2.97570539"
       d="m 19.75326,26.605142 c 0,0 0,-2.992547 1.479479,-4.488822 1.479479,0 2.958957,1.496275 2.958957,2.992549 -1.479478,0 -3.706094,1.391535 -4.438436,1.496273 z"
       id="path76" />
    <path
       style="fill:url(#radialGradient3001)"
       d="m 19.387358,26.164031 c 0,0 0,-3.691314 1.845658,-5.536971 1.845656,0 3.691314,1.845657 3.691314,3.691314 -1.845658,0 -4.623371,1.716461 -5.536972,1.845657 z"
       id="path83" />
    <path
       style="fill:#ffffff"
       d="m 20.310187,22.472717 c 0,0 0.922829,0 1.845657,-0.922829 0,0.922829 -0.230707,1.845658 1.725691,1.845658 1.965623,0 1.042795,-2.768486 -1.725691,-2.768486 -1.845657,0 -1.845657,1.845657 -1.845657,1.845657 z"
       id="path85" />
  </g>
</svg>
