<?xml version="1.0" encoding="UTF-8" standalone="no"?>
<svg
   xmlns:dc="http://purl.org/dc/elements/1.1/"
   xmlns:cc="http://creativecommons.org/ns#"
   xmlns:rdf="http://www.w3.org/1999/02/22-rdf-syntax-ns#"
   xmlns:svg="http://www.w3.org/2000/svg"
   xmlns="http://www.w3.org/2000/svg"
   xmlns:sodipodi="http://sodipodi.sourceforge.net/DTD/sodipodi-0.dtd"
   xmlns:inkscape="http://www.inkscape.org/namespaces/inkscape"
   id="svg24159"
   viewBox="0 0 128 128"
   version="1.0"
   inkscape:version="0.91 r13322 custom"
   width="100%"
   height="100%"
   sodipodi:docname="pirate.svg">
  <defs
     id="defs45">
    <filter
       inkscape:collect="always"
       id="filter3835">
      <feGaussianBlur
         inkscape:collect="always"
         stdDeviation="3.0797889"
         id="feGaussianBlur3837" />
    </filter>
  </defs>
  <sodipodi:namedview
     pagecolor="#ffffff"
     bordercolor="#666666"
     borderopacity="1"
     objecttolerance="10"
     gridtolerance="10"
     guidetolerance="10"
     inkscape:pageopacity="0"
     inkscape:pageshadow="2"
     inkscape:window-width="1366"
     inkscape:window-height="720"
     id="namedview43"
     showgrid="false"
     inkscape:zoom="2.8284271"
     inkscape:cx="86.203366"
     inkscape:cy="63.538279"
     inkscape:window-x="-5"
     inkscape:window-y="-2"
     inkscape:window-maximized="1"
     inkscape:current-layer="svg24159"
     inkscape:snap-center="true" />
  <path
     sodipodi:type="inkscape:offset"
     inkscape:radius="2.6979277"
     inkscape:original="M 62.78125 8.09375 C 53.143814 8.2270773 43.577877 10.588509 37.65625 15.40625 C 31.662226 20.282894 27.429327 27.122798 26.40625 34.625 C 25.386482 42.102948 27.614223 50.199166 34.3125 57.40625 C 34.105899 58.42325 33.91578 59.444677 33.75 60.40625 C 33.7444 60.43555 33.7536 60.47049 33.75 60.5 C 33.245401 65.395959 34.423982 69.590656 36.75 71.65625 C 37.018974 71.892029 37.295145 72.110789 37.59375 72.3125 C 33.6045 70.429979 29.820092 68.666614 25.65625 66.40625 C 24.431814 65.413505 24.021509 64.449666 23.40625 63.15625 C 22.776891 61.833196 21.852108 60.215907 19.71875 58.9375 C 19.68627 58.91402 19.659424 58.89564 19.625 58.875 C 18.756775 58.446184 17.844604 57.977806 16.65625 58.125 C 15.467897 58.272194 14.426303 59.153286 13.65625 60.4375 C 13.61888 60.49018 13.591964 60.53641 13.5625 60.59375 C 12.659337 62.696204 12.680022 64.739381 12.59375 66.5625 C 11.332639 67.785852 9.7337042 68.849255 8.4375 70.90625 C 8.42818 70.92105 8.415569 70.92258 8.40625 70.9375 C 7.8792009 71.782397 7.5813692 72.639276 7.625 73.46875 C 7.669144 74.308124 8.0669825 75.039701 8.5625 75.53125 C 9.5535358 76.514348 10.794818 76.84 11.59375 77.03125 L 11.59375 77 C 13.857025 77.558482 15.534982 77.333738 16.90625 77.09375 C 18.244479 76.859653 19.253661 76.64618 20.8125 76.9375 C 27.977536 80.237023 35.21024 83.671319 42.125 87.03125 C 42.09659 87.634834 42.10337 88.242239 42.125 88.84375 C 37.149701 91.450173 32.672645 93.875967 27.09375 96 C 27.07877 96.0032 27.07733 95.9968 27.0625 96 C 25.010046 96.49721 24.387665 96.164683 23.0625 95.8125 C 21.727762 95.457779 19.823934 95.185457 16.78125 96.1875 C 16.6354 96.24154 16.494388 96.307469 16.375 96.40625 C 15.30911 97.239183 14.640838 98.422023 14.59375 99.625 C 14.54666 100.82797 15.071026 101.98014 15.9375 102.875 C 15.94847 102.8862 15.9574 102.89555 15.96875 102.90625 C 17.394262 104.28583 18.412032 105.21693 19.59375 106.34375 C 19.926292 107.94876 20.016425 109.39736 20.25 111.53125 C 20.26329 111.62125 20.28131 111.69561 20.3125 111.78125 C 20.868106 113.44557 22.037802 114.67249 23.4375 114.90625 C 24.837197 115.14001 26.099456 114.55474 27.15625 113.75 C 27.24338 113.6825 27.306673 113.58604 27.375 113.5 C 28.045304 112.67791 29.108631 111.80271 29.84375 110.5 L 29.8125 110.5 C 30.580377 109.18939 31.430641 107.80592 32.34375 106.6875 L 45.84375 99.625 C 47.5854 101.8612 49.819322 103.77061 52.25 104.75 L 52.28125 104.75 C 56.302194 106.19193 59.044144 106.59375 63.5 106.59375 C 67.850968 106.58295 70.637843 106.19247 74.53125 104.625 C 76.945619 103.65217 79.18243 101.79416 80.9375 99.59375 L 94.1875 106.40625 C 95.625988 107.65864 96.094345 108.52853 96.5625 109.53125 C 97.02835 110.52906 97.563026 111.7842 98.90625 112.84375 C 98.93196 112.86725 98.94317 112.88315 98.96875 112.90625 C 100.14935 113.97065 101.17316 114.74549 102.5 114.90625 C 103.85559 115.07049 105.17591 114.24709 106 113.0625 C 106.0488 113.011 106.08481 112.93336 106.125 112.875 C 107.29903 110.45871 107.17982 108.20189 107.40625 106.125 C 108.70871 104.95735 109.92474 104.13532 111.21875 102.65625 C 111.22945 102.64465 111.2395 102.6365 111.25 102.625 C 112.09648 101.68518 112.66364 100.56449 112.46875 99.3125 C 112.27144 98.044919 111.31617 97.034685 110 96.375 C 109.9567 96.35057 109.92091 96.33218 109.875 96.3125 C 107.93377 95.533132 105.78073 95.083362 103.28125 95.8125 C 102.03504 96.194479 101.04017 96.379979 99.5625 95.78125 L 99.53125 95.78125 L 84.6875 89.03125 C 84.71776 88.332098 84.72497 87.608362 84.6875 86.90625 L 84.8125 86.84375 L 105.5625 77.1875 C 105.6086 77.16953 105.61198 77.17296 105.65625 77.15625 C 107.30086 76.533487 107.93381 76.635223 108.875 76.875 C 109.79829 77.110219 111.17181 77.531844 113.0625 77.25 L 113.0625 77.28125 C 113.1426 77.280328 113.20142 77.25222 113.28125 77.25 C 114.70289 77.20736 116.11696 76.938628 117.25 76.1875 C 118.44669 75.3942 119.24679 73.898911 119.125 72.25 C 119.1067 72.01457 119.00935 71.789072 118.875 71.59375 C 117.55832 69.671259 116.20018 68.31277 114.125 66.40625 C 114.1446 64.146298 113.70208 61.948221 112.84375 59.8125 C 112.80905 59.71995 112.77295 59.614249 112.71875 59.53125 C 112.09194 58.64305 111.00238 57.836987 109.65625 57.8125 C 108.34738 57.78871 107.0381 58.418532 105.6875 59.65625 L 105.6875 59.6875 C 105.6667 59.70326 105.6455 59.703 105.625 59.71875 C 105.6122 59.73071 105.60655 59.73796 105.59375 59.75 C 104.1399 60.888882 103.51649 62.307259 103.03125 63.4375 C 102.55107 64.555978 102.12179 65.490879 100.875 66.5625 C 97.467729 68.224546 94.014482 69.917232 90.5625 71.59375 C 92.84281 69.506515 93.99956 65.347082 93.5 60.5 C 93.4964 60.47039 93.5056 60.43555 93.5 60.40625 C 93.289751 59.187164 93.042539 57.897417 92.78125 56.59375 C 104.91524 44.637628 101.99528 25.363711 88.40625 14.875 C 82.16172 10.055155 72.418684 7.9604227 62.78125 8.09375 z "
     style="opacity:0.22000002;fill:#000000;fill-rule:evenodd;stroke:none;filter:url(#filter3835)"
     id="path4136"
     d="M 62.744141,5.3964844 C 52.690812,5.5355653 42.643322,7.8694625 35.953125,13.3125 c -6.46967,5.263622 -11.092672,12.675439 -12.220703,20.947266 -1.07074,7.851727 1.315362,16.341571 7.71289,23.802734 -0.118043,0.619348 -0.243674,1.247602 -0.345703,1.837891 -0.0079,0.04111 0.005,-0.02619 -0.002,0.01172 -0.154674,0.840858 -0.115627,1.001406 -0.02539,0.261719 a 2.6981975,2.6981975 0 0 0 -0.0059,0.04883 c -0.216513,2.100756 -0.09713,4.082111 0.210938,5.955078 -1.319685,-0.658608 -2.618274,-1.23342 -3.990235,-1.972656 -0.6952,-0.586978 -0.83563,-0.925338 -1.445312,-2.207031 -0.703391,-1.478686 -2.037277,-3.757604 -4.736328,-5.375 -0.03488,-0.02264 -0.05793,-0.04102 -0.09375,-0.0625 a 2.6981975,2.6981975 0 0 0 -0.191407,-0.105469 c -0.841561,-0.415647 -2.447693,-1.261535 -4.496093,-1.007812 -2.285521,0.283093 -3.912139,1.848385 -4.955078,3.572265 -0.07742,0.121895 -0.160926,0.252071 -0.207032,0.341797 a 2.6981975,2.6981975 0 0 0 -0.07813,0.167969 c -0.944363,2.198363 -1.052699,4.149906 -1.115234,5.763672 -1.065505,0.921291 -2.4924923,2.087325 -3.8046875,4.164062 -0.00313,0.005 -0.00664,0.0068 -0.00977,0.01172 -0.01513,0.02237 -0.022664,0.01593 -0.037109,0.03906 a 2.6981975,2.6981975 0 0 0 0,0.002 c -0.7190271,1.152651 -1.2681269,2.531616 -1.1855469,4.101562 0.084475,1.606238 0.7973434,2.910285 1.7304688,3.835938 1.5792033,1.566554 3.4447626,2.001648 4.3027346,2.207031 a 2.6981975,2.6981975 0 0 0 0.855468,0.0625 c 2.299194,0.405465 4.265666,0.260066 5.550782,0.03516 1.298395,-0.227129 1.785809,-0.309162 2.759765,-0.152344 5.964618,2.750341 11.913448,5.590739 17.740235,8.402344 -3.740622,1.952806 -7.361555,3.785974 -11.539063,5.390625 -1.465335,0.351325 -1.099088,0.205058 -2.576172,-0.1875 C 22.136915,92.774826 19.435708,92.47294 15.9375,93.625 a 2.6981975,2.6981975 0 0 0 -0.09375,0.0332 c -0.276567,0.102473 -0.701142,0.285744 -1.154297,0.650391 -1.59585,1.258573 -2.708107,3.092828 -2.791015,5.210937 -0.08034,2.052459 0.808434,3.896929 2.101562,5.232419 a 2.6981975,2.6981975 0 0 0 0.0098,0.0117 c -0.0021,-0.002 0.03921,0.0412 0.107422,0.10547 1.162404,1.12435 2.018871,1.91988 2.927734,2.77734 0.198589,1.18258 0.320391,2.32275 0.523437,4.17774 a 2.6981975,2.6981975 0 0 0 0.01172,0.10156 c 0.03106,0.21034 0.103113,0.49025 0.183594,0.72461 0.79257,2.35828 2.563451,4.47093 5.228516,4.91602 2.381307,0.39769 4.419835,-0.61983 5.798828,-1.66993 a 2.6981975,2.6981975 0 0 0 0.01758,-0.0137 c 0.570796,-0.4422 0.717464,-0.75265 0.679687,-0.70508 l -0.02148,0.0273 c 0.379875,-0.4659 1.698374,-1.55685 2.726562,-3.37891 a 2.6981975,2.6981975 0 0 0 0.08789,-0.17578 c 0.626523,-1.05998 1.279249,-2.06338 1.90625,-2.88281 l 11.134766,-5.82422 c 1.700679,1.78361 3.615818,3.3802 5.919922,4.30859 a 2.6981975,2.6981975 0 0 0 0.597656,0.16211 c 4.000242,1.38151 7.22493,1.87696 11.660156,1.87696 a 2.6981975,2.6981975 0 0 0 0.0059,0 c 4.509525,-0.0112 7.870041,-0.48799 12.033203,-2.16407 2.277646,-0.91774 4.196373,-2.4824 5.908204,-4.23828 l 11.078125,5.69531 c 0.986979,0.88428 1.189912,1.22712 1.591797,2.0879 0.433722,0.92899 1.235823,2.80543 3.11914,4.29101 l -0.15039,-0.12695 c -0.133343,-0.12188 -0.11741,-0.10079 0.07422,0.0723 a 2.6981975,2.6981975 0 0 0 0.002,0.002 c 1.273102,1.14779 2.823712,2.40849 5.013671,2.67382 2.60156,0.3152 4.71398,-1.144 5.98047,-2.92773 0.0486,-0.0844 0.27334,-0.37093 0.19141,-0.25195 a 2.6981975,2.6981975 0 0 0 0.20312,-0.34961 c 1.2725,-2.61894 1.34038,-4.90013 1.45508,-6.65039 0.99101,-0.82458 2.02483,-1.57702 3.24414,-2.97071 a 2.6981975,2.6981975 0 0 0 0.004,-0.004 c 1.15919,-1.28702 2.23574,-3.25144 1.88086,-5.531252 -0.36622,-2.352703 -2.08145,-4.002383 -3.91016,-4.923829 -0.089,-0.0471 -0.18474,-0.0987 -0.28711,-0.142578 a 2.6981975,2.6981975 0 0 0 -0.0566,-0.02344 c -2.24826,-0.902634 -5.1698,-1.515247 -8.35547,-0.585938 a 2.6981975,2.6981975 0 0 0 -0.0352,0.0098 c -1.09554,0.335799 -1.00676,0.416451 -1.91406,0.04883 A 2.6981975,2.6981975 0 0 0 99.5625,93.083984 l 0.55273,0 -11.289058,-5.132812 17.753908,-8.261719 c 0.012,-0.0038 -0.0596,0.02378 0.0293,-0.0098 a 2.6981975,2.6981975 0 0 0 0.002,0 c 1.33921,-0.507119 0.75996,-0.402865 1.59765,-0.189454 0.67958,0.173129 2.32582,0.52597 4.29883,0.427735 a 2.6981975,2.6981975 0 0 0 0.58594,0.06055 c 0.69593,-0.008 0.77763,-0.0456 0.26172,-0.03125 a 2.6981975,2.6981975 0 0 0 0.006,0 c 1.70758,-0.05122 3.63123,-0.35313 5.3789,-1.511719 2.03643,-1.349969 3.27073,-3.750714 3.07618,-6.384766 a 2.6981975,2.6981975 0 0 0 -0.002,-0.0098 c -0.0653,-0.839763 -0.37784,-1.483781 -0.71679,-1.976563 -1.27324,-1.858129 -2.68437,-3.302336 -4.39454,-4.910156 -0.12745,-2.164 -0.53535,-4.288561 -1.34374,-6.310547 -0.0153,-0.04729 -0.0618,-0.298489 -0.38086,-0.787109 a 2.6981975,2.6981975 0 0 0 -0.0547,-0.08008 c -1.03267,-1.463308 -2.82261,-2.81774 -5.21875,-2.861328 -2.13358,-0.03878 -4.03948,0.992314 -5.66016,2.429688 -0.0319,0.02237 -0.032,0.01024 -0.0645,0.03516 a 2.6981975,2.6981975 0 0 0 -0.0527,0.04492 c -0.0192,0.01736 -0.0434,0.02549 -0.0625,0.04297 a 2.6981975,2.6981975 0 0 0 -0.0644,0.06445 2.6981975,2.6981975 0 0 0 -0.0176,0.01563 c -0.12083,0.1129 -0.12941,0.123934 -0.0371,0.03711 l 0.0215,-0.01758 a 2.6981975,2.6981975 0 0 0 -0.3457,0.427734 c -1.56925,1.47472 -2.43157,3.158519 -2.86915,4.177735 -0.43347,1.009678 -0.605946,1.33729 -1.337886,1.996094 -1.06099,0.517764 -2.135973,1.041069 -3.203125,1.5625 0.273087,-1.803196 0.379,-3.699314 0.171875,-5.708985 a 2.6981975,2.6981975 0 0 0 -0.0059,-0.04883 c 0.08943,0.735601 0.129061,0.578009 -0.02539,-0.261719 -0.146322,-0.846632 -0.322829,-1.736115 -0.494141,-2.61914 C 107.66359,44.102622 104.3345,23.762131 90.054688,12.740234 83.034937,7.3220348 72.797547,5.2574024 62.744141,5.3964844 Z M 27.595703,93.351562 c -0.0025,-4.87e-4 -0.678928,-0.06174 -1.072265,0.01172 l 0.0059,-0.002 c 0.369124,-0.07885 1.068965,-0.0093 1.066406,-0.0098 z"
     transform="matrix(0.97204557,0,0,0.98316653,2.3887868,8.1548356)" />
  <path
     d="m 62.744141,5.4082031 c -10.051546,0.1390563 -20.0963,2.473705 -26.783203,7.9140629 -6.467632,5.261963 -11.089216,12.670924 -12.216797,20.939453 -1.070457,7.849645 1.315213,16.337232 7.71289,23.796875 -0.118439,0.621238 -0.243371,1.251707 -0.345703,1.84375 -0.0079,0.04123 0.005,-0.02628 -0.002,0.01172 -0.153842,0.836599 -0.115196,0.995923 -0.02539,0.259766 a 2.686633,2.686633 0 0 0 -0.0059,0.05078 c -0.217271,2.108114 -0.09845,4.096697 0.212891,5.97461 -1.327654,-0.662368 -2.633171,-1.242428 -4.013672,-1.986328 -0.695209,-0.587559 -0.836287,-0.930626 -1.445313,-2.210938 -0.703073,-1.478018 -2.035795,-3.753197 -4.732422,-5.369141 -0.03487,-0.02264 -0.05792,-0.04102 -0.09375,-0.0625 a 2.686633,2.686633 0 0 0 -0.191406,-0.103515 c -0.841675,-0.415703 -2.443567,-1.261079 -4.488281,-1.007813 -2.280214,0.282436 -3.905469,1.843031 -4.947266,3.564454 -0.0774,0.121785 -0.158978,0.252082 -0.205078,0.341796 a 2.686633,2.686633 0 0 0 -0.08008,0.167969 c -0.944087,2.197721 -1.052739,4.149727 -1.1152344,5.763672 -1.0658112,0.921777 -2.4923947,2.089129 -3.8046875,4.166016 -0.00313,0.005 -0.00664,0.0068 -0.00977,0.01172 -0.015109,0.02233 -0.022686,0.01597 -0.037109,0.03906 a 2.686633,2.686633 0 0 0 0,0.002 c -0.7182043,1.151332 -1.26796,2.526977 -1.1855469,4.09375 0.084302,1.602951 0.7972659,2.904333 1.7285157,3.828125 1.5766825,1.564054 3.4411091,2.001709 4.2988281,2.207031 a 2.686633,2.686633 0 0 0 0.851562,0.06055 c 2.298088,0.405566 4.263748,0.260061 5.548829,0.03516 1.299235,-0.227275 1.788271,-0.309988 2.765625,-0.152343 5.972426,2.753928 11.9297,5.598852 17.763672,8.414062 -3.747921,1.956893 -7.375407,3.792641 -11.560547,5.400391 -1.475457,0.35385 -1.107377,0.207403 -2.585938,-0.185547 -1.617726,-0.429928 -4.314291,-0.731496 -7.810547,0.419922 a 2.686633,2.686633 0 0 0 -0.09375,0.03125 c -0.275962,0.102248 -0.698727,0.285023 -1.15039,0.648437 -1.593518,1.256745 -2.704356,3.08898 -2.78711,5.203125 -0.0802,2.048819 0.806357,3.891009 2.097656,5.224609 a 2.686633,2.686633 0 0 0 0.0098,0.01 c -0.002,-0.002 0.04141,0.0433 0.109375,0.10742 1.162358,1.12426 2.020435,1.91948 2.929688,2.77734 0.199297,1.18473 0.320119,2.32808 0.523437,4.18555 a 2.686633,2.686633 0 0 0 0.01172,0.0996 c 0.03139,0.21256 0.103868,0.49695 0.185547,0.73242 0.792942,2.35191 2.56031,4.45674 5.216797,4.90039 2.3771,0.39699 4.41145,-0.62088 5.789062,-1.66992 a 2.686633,2.686633 0 0 0 0.01758,-0.0137 c 0.568723,-0.4406 0.715057,-0.75013 0.677735,-0.70313 l -0.02148,0.0273 c 0.38112,-0.46743 1.69963,-1.55712 2.726563,-3.37696 a 2.686633,2.686633 0 0 0 0.08398,-0.17187 c 0.627041,-1.06108 1.280097,-2.06558 1.908203,-2.88672 l 11.150391,-5.83399 c 1.701001,1.7853 3.615146,3.3858 5.919922,4.31446 a 2.686633,2.686633 0 0 0 0.585937,0.1582 c 4.005046,1.38455 7.228834,1.87891 11.667969,1.87891 a 2.686633,2.686633 0 0 0 0.0059,0 c 4.508846,-0.0112 7.867291,-0.48651 12.029297,-2.16211 2.278606,-0.91813 4.197862,-2.48439 5.910156,-4.24219 l 11.089844,5.70117 c 0.985636,0.88354 1.192059,1.23144 1.59375,2.0918 0.433861,0.92929 1.232279,2.8014 3.113282,4.28515 l -0.148438,-0.12695 c -0.132661,-0.12126 -0.116698,-0.0982 0.07422,0.0742 a 2.686633,2.686633 0 0 0 0.002,0.002 c 1.272706,1.14744 2.821551,2.40504 5.007808,2.66993 2.59719,0.31466 4.70629,-1.14374 5.97071,-2.92579 0.0461,-0.0811 0.27004,-0.36506 0.18945,-0.24804 a 2.686633,2.686633 0 0 0 0.20313,-0.34961 c 1.27232,-2.6186 1.33818,-4.89952 1.45312,-6.65039 0.99196,-0.82554 2.02618,-1.57828 3.24609,-2.97266 l -0.0469,0.0527 c -0.13252,0.14366 -0.11887,0.13214 0.041,-0.043 a 2.686633,2.686633 0 0 0 0.0117,-0.0137 c 1.15786,-1.28554 2.23116,-3.24804 1.87696,-5.523442 -0.36549,-2.348025 -2.07782,-3.993737 -3.9043,-4.914063 -0.0886,-0.0469 -0.1833,-0.09696 -0.28516,-0.140625 a 2.686633,2.686633 0 0 0 -0.0586,-0.02344 c -2.24694,-0.902105 -5.16298,-1.514389 -8.3457,-0.585937 a 2.686633,2.686633 0 0 0 -0.0352,0.0098 c -1.09619,0.335997 -1.01213,0.415488 -1.92187,0.04687 A 2.686633,2.686633 0 0 0 99.5625,93.095703 l 0.55078,0 -11.312499,-5.144531 17.775389,-8.273438 c 0.0125,-0.004 -0.0584,0.02527 0.0293,-0.0078 a 2.686633,2.686633 0 0 0 0.002,-0.002 c 1.34052,-0.507614 0.76538,-0.402977 1.60352,-0.189453 0.68037,0.173333 2.3265,0.526498 4.29883,0.427734 a 2.686633,2.686633 0 0 0 0.58398,0.06055 c 0.69329,-0.008 0.77508,-0.04553 0.26172,-0.03125 a 2.686633,2.686633 0 0 0 0.006,0 c 1.70636,-0.05118 3.628,-0.352923 5.37305,-1.509766 2.03282,-1.347582 3.26455,-3.743217 3.07031,-6.373047 a 2.686633,2.686633 0 0 0 -0.002,-0.01172 c -0.0651,-0.837172 -0.37676,-1.477243 -0.71484,-1.96875 -1.27363,-1.8587 -2.68477,-3.305027 -4.39648,-4.914063 -0.12728,-2.167327 -0.53696,-4.295401 -1.34766,-6.320312 -0.0163,-0.05257 -0.0612,-0.294872 -0.375,-0.775391 a 2.686633,2.686633 0 0 0 -0.0547,-0.08008 c -1.03093,-1.460844 -2.81734,-2.811963 -5.20898,-2.855469 -2.12883,-0.03869 -4.03157,0.988768 -5.65039,2.423828 -0.0331,0.02309 -0.0328,0.01127 -0.0664,0.03711 a 2.686633,2.686633 0 0 0 -0.0527,0.04492 c -0.0192,0.01738 -0.0434,0.02547 -0.0625,0.04297 a 2.686633,2.686633 0 0 0 -0.0645,0.06445 2.686633,2.686633 0 0 0 -0.0176,0.01563 c -0.12037,0.112468 -0.12897,0.123511 -0.0371,0.03711 l 0.0215,-0.01758 a 2.686633,2.686633 0 0 0 -0.33789,0.419921 c -1.57315,1.47474 -2.43668,3.160677 -2.875,4.181641 -0.4341,1.011155 -0.607745,1.341955 -1.34375,2.003906 -1.067582,0.520982 -2.148842,1.049533 -3.222656,1.574219 0.27649,-1.808925 0.383748,-3.712623 0.175781,-5.730469 a 2.686633,2.686633 0 0 0 -0.0059,-0.04883 c 0.08904,0.732327 0.128416,0.574532 -0.02539,-0.261719 C 95.993886,59.065014 95.818348,58.172764 95.646484,57.287109 107.64925,44.101885 104.32269,23.766856 90.046875,12.748047 83.030447,7.3324118 72.795764,5.2691458 62.744141,5.4082031 Z M 27.59375,93.363281 c -0.0025,-4.88e-4 -0.674402,-0.06075 -1.066406,0.01172 l 0.0059,-0.002 c 0.36751,-0.07851 1.063113,-0.0093 1.060547,-0.0098 z"
     id="path3022"
     style="fill:#000000;fill-rule:evenodd;stroke:none"
     inkscape:original="M 62.78125 8.09375 C 53.143814 8.2270773 43.577877 10.588509 37.65625 15.40625 C 31.662226 20.282894 27.429327 27.122798 26.40625 34.625 C 25.386482 42.102948 27.614223 50.199166 34.3125 57.40625 C 34.105899 58.42325 33.91578 59.444677 33.75 60.40625 C 33.7444 60.43555 33.7536 60.47049 33.75 60.5 C 33.245401 65.395959 34.423982 69.590656 36.75 71.65625 C 37.018974 71.892029 37.295145 72.110789 37.59375 72.3125 C 33.6045 70.429979 29.820092 68.666614 25.65625 66.40625 C 24.431814 65.413505 24.021509 64.449666 23.40625 63.15625 C 22.776891 61.833196 21.852108 60.215907 19.71875 58.9375 C 19.68627 58.91402 19.659424 58.89564 19.625 58.875 C 18.756775 58.446184 17.844604 57.977806 16.65625 58.125 C 15.467897 58.272194 14.426303 59.153286 13.65625 60.4375 C 13.61888 60.49018 13.591964 60.53641 13.5625 60.59375 C 12.659337 62.696204 12.680022 64.739381 12.59375 66.5625 C 11.332639 67.785852 9.7337042 68.849255 8.4375 70.90625 C 8.42818 70.92105 8.415569 70.92258 8.40625 70.9375 C 7.8792009 71.782397 7.5813692 72.639276 7.625 73.46875 C 7.669144 74.308124 8.0669825 75.039701 8.5625 75.53125 C 9.5535358 76.514348 10.794818 76.84 11.59375 77.03125 L 11.59375 77 C 13.857025 77.558482 15.534982 77.333738 16.90625 77.09375 C 18.244479 76.859653 19.253661 76.64618 20.8125 76.9375 C 27.977536 80.237023 35.21024 83.671319 42.125 87.03125 C 42.09659 87.634834 42.10337 88.242239 42.125 88.84375 C 37.149701 91.450173 32.672645 93.875967 27.09375 96 C 27.07877 96.0032 27.07733 95.9968 27.0625 96 C 25.010046 96.49721 24.387665 96.164683 23.0625 95.8125 C 21.727762 95.457779 19.823934 95.185457 16.78125 96.1875 C 16.6354 96.24154 16.494388 96.307469 16.375 96.40625 C 15.30911 97.239183 14.640838 98.422023 14.59375 99.625 C 14.54666 100.82797 15.071026 101.98014 15.9375 102.875 C 15.94847 102.8862 15.9574 102.89555 15.96875 102.90625 C 17.394262 104.28583 18.412032 105.21693 19.59375 106.34375 C 19.926292 107.94876 20.016425 109.39736 20.25 111.53125 C 20.26329 111.62125 20.28131 111.69561 20.3125 111.78125 C 20.868106 113.44557 22.037802 114.67249 23.4375 114.90625 C 24.837197 115.14001 26.099456 114.55474 27.15625 113.75 C 27.24338 113.6825 27.306673 113.58604 27.375 113.5 C 28.045304 112.67791 29.108631 111.80271 29.84375 110.5 L 29.8125 110.5 C 30.580377 109.18939 31.430641 107.80592 32.34375 106.6875 L 45.84375 99.625 C 47.5854 101.8612 49.819322 103.77061 52.25 104.75 L 52.28125 104.75 C 56.302194 106.19193 59.044144 106.59375 63.5 106.59375 C 67.850968 106.58295 70.637843 106.19247 74.53125 104.625 C 76.945619 103.65217 79.18243 101.79416 80.9375 99.59375 L 94.1875 106.40625 C 95.625988 107.65864 96.094345 108.52853 96.5625 109.53125 C 97.02835 110.52906 97.563026 111.7842 98.90625 112.84375 C 98.93196 112.86725 98.94317 112.88315 98.96875 112.90625 C 100.14935 113.97065 101.17316 114.74549 102.5 114.90625 C 103.85559 115.07049 105.17591 114.24709 106 113.0625 C 106.0488 113.011 106.08481 112.93336 106.125 112.875 C 107.29903 110.45871 107.17982 108.20189 107.40625 106.125 C 108.70871 104.95735 109.92474 104.13532 111.21875 102.65625 C 111.22945 102.64465 111.2395 102.6365 111.25 102.625 C 112.09648 101.68518 112.66364 100.56449 112.46875 99.3125 C 112.27144 98.044919 111.31617 97.034685 110 96.375 C 109.9567 96.35057 109.92091 96.33218 109.875 96.3125 C 107.93377 95.533132 105.78073 95.083362 103.28125 95.8125 C 102.03504 96.194479 101.04017 96.379979 99.5625 95.78125 L 99.53125 95.78125 L 84.6875 89.03125 C 84.71776 88.332098 84.72497 87.608362 84.6875 86.90625 L 84.8125 86.84375 L 105.5625 77.1875 C 105.6086 77.16953 105.61198 77.17296 105.65625 77.15625 C 107.30086 76.533487 107.93381 76.635223 108.875 76.875 C 109.79829 77.110219 111.17181 77.531844 113.0625 77.25 L 113.0625 77.28125 C 113.1426 77.280328 113.20142 77.25222 113.28125 77.25 C 114.70289 77.20736 116.11696 76.938628 117.25 76.1875 C 118.44669 75.3942 119.24679 73.898911 119.125 72.25 C 119.1067 72.01457 119.00935 71.789072 118.875 71.59375 C 117.55832 69.671259 116.20018 68.31277 114.125 66.40625 C 114.1446 64.146298 113.70208 61.948221 112.84375 59.8125 C 112.80905 59.71995 112.77295 59.614249 112.71875 59.53125 C 112.09194 58.64305 111.00238 57.836987 109.65625 57.8125 C 108.34738 57.78871 107.0381 58.418532 105.6875 59.65625 L 105.6875 59.6875 C 105.6667 59.70326 105.6455 59.703 105.625 59.71875 C 105.6122 59.73071 105.60655 59.73796 105.59375 59.75 C 104.1399 60.888882 103.51649 62.307259 103.03125 63.4375 C 102.55107 64.555978 102.12179 65.490879 100.875 66.5625 C 97.467729 68.224546 94.014482 69.917232 90.5625 71.59375 C 92.84281 69.506515 93.99956 65.347082 93.5 60.5 C 93.4964 60.47039 93.5056 60.43555 93.5 60.40625 C 93.289751 59.187164 93.042539 57.897417 92.78125 56.59375 C 104.91524 44.637628 101.99528 25.363711 88.40625 14.875 C 82.16172 10.055155 72.418684 7.9604227 62.78125 8.09375 z "
     inkscape:radius="2.6863644"
     sodipodi:type="inkscape:offset"
     transform="matrix(0.97204557,0,0,0.97834537,2.3887868,4.156806)" />
  <path
     sodipodi:type="inkscape:offset"
     inkscape:radius="-1.1730156"
     inkscape:original="M 62.78125 8.09375 C 53.143814 8.2270773 43.577877 10.588509 37.65625 15.40625 C 31.662226 20.282894 27.429327 27.122798 26.40625 34.625 C 25.386482 42.102948 27.614223 50.199166 34.3125 57.40625 C 34.105899 58.42325 33.91578 59.444677 33.75 60.40625 C 33.7444 60.43555 33.7536 60.47049 33.75 60.5 C 33.245401 65.395959 34.423982 69.590656 36.75 71.65625 C 37.018974 71.892029 37.295145 72.110789 37.59375 72.3125 C 33.6045 70.429979 29.820092 68.666614 25.65625 66.40625 C 24.431814 65.413505 24.021509 64.449666 23.40625 63.15625 C 22.776891 61.833196 21.852108 60.215907 19.71875 58.9375 C 19.68627 58.91402 19.659424 58.89564 19.625 58.875 C 18.756775 58.446184 17.844604 57.977806 16.65625 58.125 C 15.467897 58.272194 14.426303 59.153286 13.65625 60.4375 C 13.61888 60.49018 13.591964 60.53641 13.5625 60.59375 C 12.659337 62.696204 12.680022 64.739381 12.59375 66.5625 C 11.332639 67.785852 9.7337042 68.849255 8.4375 70.90625 C 8.42818 70.92105 8.415569 70.92258 8.40625 70.9375 C 7.8792009 71.782397 7.5813692 72.639276 7.625 73.46875 C 7.669144 74.308124 8.0669825 75.039701 8.5625 75.53125 C 9.5535358 76.514348 10.794818 76.84 11.59375 77.03125 L 11.59375 77 C 13.857025 77.558482 15.534982 77.333738 16.90625 77.09375 C 18.244479 76.859653 19.253661 76.64618 20.8125 76.9375 C 27.977536 80.237023 35.21024 83.671319 42.125 87.03125 C 42.09659 87.634834 42.10337 88.242239 42.125 88.84375 C 37.149701 91.450173 32.672645 93.875967 27.09375 96 C 27.07877 96.0032 27.07733 95.9968 27.0625 96 C 25.010046 96.49721 24.387665 96.164683 23.0625 95.8125 C 21.727762 95.457779 19.823934 95.185457 16.78125 96.1875 C 16.6354 96.24154 16.494388 96.307469 16.375 96.40625 C 15.30911 97.239183 14.640838 98.422023 14.59375 99.625 C 14.54666 100.82797 15.071026 101.98014 15.9375 102.875 C 15.94847 102.8862 15.9574 102.89555 15.96875 102.90625 C 17.394262 104.28583 18.412032 105.21693 19.59375 106.34375 C 19.926292 107.94876 20.016425 109.39736 20.25 111.53125 C 20.26329 111.62125 20.28131 111.69561 20.3125 111.78125 C 20.868106 113.44557 22.037802 114.67249 23.4375 114.90625 C 24.837197 115.14001 26.099456 114.55474 27.15625 113.75 C 27.24338 113.6825 27.306673 113.58604 27.375 113.5 C 28.045304 112.67791 29.108631 111.80271 29.84375 110.5 L 29.8125 110.5 C 30.580377 109.18939 31.430641 107.80592 32.34375 106.6875 L 45.84375 99.625 C 47.5854 101.8612 49.819322 103.77061 52.25 104.75 L 52.28125 104.75 C 56.302194 106.19193 59.044144 106.59375 63.5 106.59375 C 67.850968 106.58295 70.637843 106.19247 74.53125 104.625 C 76.945619 103.65217 79.18243 101.79416 80.9375 99.59375 L 94.1875 106.40625 C 95.625988 107.65864 96.094345 108.52853 96.5625 109.53125 C 97.02835 110.52906 97.563026 111.7842 98.90625 112.84375 C 98.93196 112.86725 98.94317 112.88315 98.96875 112.90625 C 100.14935 113.97065 101.17316 114.74549 102.5 114.90625 C 103.85559 115.07049 105.17591 114.24709 106 113.0625 C 106.0488 113.011 106.08481 112.93336 106.125 112.875 C 107.29903 110.45871 107.17982 108.20189 107.40625 106.125 C 108.70871 104.95735 109.92474 104.13532 111.21875 102.65625 C 111.22945 102.64465 111.2395 102.6365 111.25 102.625 C 112.09648 101.68518 112.66364 100.56449 112.46875 99.3125 C 112.27144 98.044919 111.31617 97.034685 110 96.375 C 109.9567 96.35057 109.92091 96.33218 109.875 96.3125 C 107.93377 95.533132 105.78073 95.083362 103.28125 95.8125 C 102.03504 96.194479 101.04017 96.379979 99.5625 95.78125 L 99.53125 95.78125 L 84.6875 89.03125 C 84.71776 88.332098 84.72497 87.608362 84.6875 86.90625 L 84.8125 86.84375 L 105.5625 77.1875 C 105.6086 77.16953 105.61198 77.17296 105.65625 77.15625 C 107.30086 76.533487 107.93381 76.635223 108.875 76.875 C 109.79829 77.110219 111.17181 77.531844 113.0625 77.25 L 113.0625 77.28125 C 113.1426 77.280328 113.20142 77.25222 113.28125 77.25 C 114.70289 77.20736 116.11696 76.938628 117.25 76.1875 C 118.44669 75.3942 119.24679 73.898911 119.125 72.25 C 119.1067 72.01457 119.00935 71.789072 118.875 71.59375 C 117.55832 69.671259 116.20018 68.31277 114.125 66.40625 C 114.1446 64.146298 113.70208 61.948221 112.84375 59.8125 C 112.80905 59.71995 112.77295 59.614249 112.71875 59.53125 C 112.09194 58.64305 111.00238 57.836987 109.65625 57.8125 C 108.34738 57.78871 107.0381 58.418532 105.6875 59.65625 L 105.6875 59.6875 C 105.6667 59.70326 105.6455 59.703 105.625 59.71875 C 105.6122 59.73071 105.60655 59.73796 105.59375 59.75 C 104.1399 60.888882 103.51649 62.307259 103.03125 63.4375 C 102.55107 64.555978 102.12179 65.490879 100.875 66.5625 C 97.467729 68.224546 94.014482 69.917232 90.5625 71.59375 C 92.84281 69.506515 93.99956 65.347082 93.5 60.5 C 93.4964 60.47039 93.5056 60.43555 93.5 60.40625 C 93.289751 59.187164 93.042539 57.897417 92.78125 56.59375 C 104.91524 44.637628 101.99528 25.363711 88.40625 14.875 C 82.16172 10.055155 72.418684 7.9604227 62.78125 8.09375 z "
     style="fill:#ffffff;fill-rule:evenodd;stroke:none"
     id="path4138"
     d="m 62.8125,9.28125 c -9.456613,0.1308257 -18.818785,2.485378 -24.40625,7.03125 -5.787221,4.708392 -9.866305,11.301169 -10.84375,18.46875 -0.973548,7.139019 1.105407,14.831297 7.59375,21.8125 a 1.1731329,1.1731329 0 0 1 0.3125,1.03125 c -0.204046,1.004421 -0.398601,2.018089 -0.5625,2.96875 a 1.1731329,1.1731329 0 0 1 0,0.03125 c -0.0011,0.01095 0.0011,0.02031 0,0.03125 -0.469446,4.627989 0.745878,8.456267 2.625,10.125 0.240133,0.210498 0.468133,0.393206 0.71875,0.5625 A 1.1731329,1.1731329 0 0 1 37.09375,73.375 c -3.985989,-1.880982 -7.799056,-3.656995 -12,-5.9375 a 1.1731329,1.1731329 0 0 1 -0.1875,-0.125 C 23.492885,66.166575 22.948805,64.928215 22.34375,63.65625 21.746579,62.400862 21.012404,61.06852 19.125,59.9375 a 1.1731329,1.1731329 0 0 1 -0.03125,0 c -0.879818,-0.434542 -1.46683,-0.757127 -2.28125,-0.65625 -0.704615,0.08728 -1.504421,0.662947 -2.15625,1.75 A 1.1731329,1.1731329 0 0 1 14.625,61.0625 c -0.0095,0.02218 -0.02195,0.04032 -0.03125,0.0625 -0.76346,1.821118 -0.75617,3.649244 -0.84375,5.5 a 1.1731329,1.1731329 0 0 1 -0.34375,0.78125 c -1.372934,1.331827 -2.807295,2.281844 -3.96875,4.125 -0.0116,0.01842 -0.018812,0.01399 -0.03125,0.03125 -0.4435801,0.71109 -0.6516963,1.336222 -0.625,1.84375 0.026609,0.505954 0.2884974,0.978442 0.59375,1.28125 0.662791,0.657482 1.521859,0.938577 2.25,1.125 a 1.1731329,1.1731329 0 0 1 0.125,0.03125 c 0.0091,0.0022 0.02222,-0.0022 0.03125,0 A 1.1731329,1.1731329 0 0 1 11.875,75.875 c 2.061285,0.508639 3.510046,0.295914 4.84375,0.0625 1.317599,-0.230488 2.562081,-0.483373 4.3125,-0.15625 A 1.1731329,1.1731329 0 0 1 21.3125,75.875 c 7.173511,3.303426 14.391146,6.730615 21.3125,10.09375 a 1.1731329,1.1731329 0 0 1 0.65625,1.125 c -0.02626,0.55791 0.01032,1.136783 0.03125,1.71875 A 1.1731329,1.1731329 0 0 1 42.65625,89.875 C 37.689733,92.476822 33.161418,94.938298 27.5,97.09375 a 1.1731329,1.1731329 0 0 1 -0.15625,0.0625 c -0.0107,0.0023 -0.01957,-0.0018 -0.03125,0 l 0,-0.03125 c -0.129994,0.03103 -0.18984,0.0065 -0.3125,0.03125 -0.0502,-0.0031 -0.157833,-3.1e-4 -0.15625,0 -1.835394,0.335624 -2.973609,0.07895 -4.09375,-0.21875 -1.21117,-0.321881 -2.749121,-0.561818 -5.59375,0.375 -0.0033,0.0016 -0.0443,0.0108 -0.03125,0 a 1.1731329,1.1731329 0 0 1 -0.03125,0.03125 c -0.82878,0.647645 -1.281202,1.512916 -1.3125,2.3125 -0.03263,0.83363 0.319028,1.70297 1,2.40625 1.414545,1.36897 2.433402,2.30126 3.625,3.4375 a 1.1731329,1.1731329 0 0 1 0.34375,0.59375 c 0.350404,1.69122 0.428315,3.19135 0.65625,5.28125 0.0013,0.0122 -0.0013,0.019 0,0.0312 a 1.1731329,1.1731329 0 0 1 0.03125,0 c 0.453852,1.35952 1.340842,2.20235 2.1875,2.34375 0.972909,0.16248 1.895793,-0.23943 2.8125,-0.9375 -0.12316,0.0954 -0.08321,0.11288 0.03125,-0.0312 a 1.1731329,1.1731329 0 0 1 0,-0.0312 c 0.772202,-0.94706 1.672175,-1.69189 2.28125,-2.71875 a 1.1731329,1.1731329 0 0 1 0.0625,-0.0937 1.1731329,1.1731329 0 0 1 0,-0.0312 c 0.776791,-1.32582 1.637799,-2.75958 2.625,-3.96875 a 1.1731329,1.1731329 0 0 1 0.375,-0.28125 l 13.5,-7.0625 a 1.1731329,1.1731329 0 0 1 1.46875,0.3125 c 1.62626,2.08804 3.693966,3.83524 5.84375,4.71875 a 1.1731329,1.1731329 0 0 1 0.0625,0.0312 c 3.926626,1.40811 6.427164,1.75 10.8125,1.75 4.28203,-0.0106 6.817628,-0.35475 10.59375,-1.875 2.16709,-0.87319 4.284667,-2.58402 5.9375,-4.65625 a 1.1731329,1.1731329 0 0 1 1.4375,-0.3125 l 13.25,6.8125 a 1.1731329,1.1731329 0 0 1 0.25,0.15625 c 1.546268,1.34623 2.171241,2.46118 2.65625,3.5 0.479818,1.02773 0.8916,2.03193 2,2.90625 a 1.1731329,1.1731329 0 0 1 0.0625,0.0312 c 0.09486,0.0867 0.109115,0.1046 0.0625,0.0625 1.14038,1.02814 1.95468,1.60346 2.90625,1.71875 0.80057,0.097 1.74081,-0.43213 2.375,-1.34375 a 1.1731329,1.1731329 0 0 1 0.0312,-0.0312 c 0.0108,-0.0223 0.0207,-0.0402 0.0312,-0.0625 1.00061,-2.10549 0.91761,-4.12365 1.15625,-6.3125 a 1.1731329,1.1731329 0 0 1 0.375,-0.75 c 1.36892,-1.22723 2.52272,-2.00792 3.71875,-3.375 0.0732,-0.0794 0.086,-0.0912 0.0312,-0.0312 0.71052,-0.78886 1.06283,-1.53864 0.9375,-2.34375 -0.12338,-0.792625 -0.75319,-1.515893 -1.84375,-2.0625 a 1.1731329,1.1731329 0 0 1 -0.0312,-0.03125 c -0.009,-0.0038 -0.0218,0.0038 -0.0312,0 -1.7984,-0.71834 -3.59164,-1.107494 -5.78125,-0.46875 -1.19179,0.365298 -2.53701,0.517671 -4.0625,0.03125 l -0.03125,0 A 1.1731329,1.1731329 0 0 1 99.40625,96.9375 1.1731329,1.1731329 0 0 1 99.125,96.875 1.1731329,1.1731329 0 0 1 99.03125,96.84375 l -14.84375,-6.75 A 1.1731329,1.1731329 0 0 1 83.5,88.96875 c 0.0291,-0.672256 0.06601,-1.34872 0.03125,-2 a 1.1731329,1.1731329 0 0 1 0.625,-1.125 l 0.125,-0.0625 a 1.1731329,1.1731329 0 0 1 0.03125,0 l 20.75,-9.65625 a 1.1731329,1.1731329 0 0 1 0.0625,-0.03125 c 0.11124,-0.04336 0.1488,-0.04023 0.125,-0.03125 1.77739,-0.673044 2.92006,-0.563741 3.90625,-0.3125 0.97856,0.249299 2.07873,0.588226 3.71875,0.34375 a 1.1731329,1.1731329 0 0 1 0.1875,0 c -0.0609,7.01e-4 0.0718,0.0034 0.0625,0 -0.0195,-0.007 -0.10395,-0.02488 0.125,-0.03125 1.29732,-0.03891 2.47794,-0.269779 3.34375,-0.84375 0.83159,-0.55127 1.46515,-1.654412 1.375,-2.875 0.002,0.02732 -0.0171,-0.02776 -0.0625,-0.09375 -1.24976,-1.824776 -2.50398,-3.077539 -4.5625,-4.96875 a 1.1731329,1.1731329 0 0 1 -0.40625,-0.875 c 0.0182,-2.100248 -0.381,-4.149485 -1.1875,-6.15625 a 1.1731329,1.1731329 0 0 1 0,-0.03125 C 111.29965,59.580598 110.5146,59.016182 109.625,59 c -0.88378,-0.01606 -1.87346,0.412488 -3.03125,1.4375 a 1.1731329,1.1731329 0 0 1 -0.0312,0.03125 c -0.033,0.02946 -0.0605,0.03203 -0.0937,0.0625 a 1.1731329,1.1731329 0 0 1 -0.0312,0.03125 c 0.0342,-0.03193 0.0272,-0.02378 -0.0312,0.03125 a 1.1731329,1.1731329 0 0 1 0,0.03125 c -0.0296,0.0224 -0.0343,0.01341 -0.0625,0.03125 a 1.1731329,1.1731329 0 0 1 -0.0312,0.03125 c -1.2098,0.947706 -1.73684,2.096275 -2.21875,3.21875 -0.48668,1.13362 -1.06714,2.32656 -2.46875,3.53125 a 1.1731329,1.1731329 0 0 1 -0.25,0.1875 c -3.405902,1.661378 -6.857953,3.353486 -10.3125,5.03125 a 1.1731329,1.1731329 0 0 1 -1.28125,-1.9375 c 1.849112,-1.692547 3.027124,-5.481829 2.5625,-10.0625 -0.0011,-0.01093 0.0011,-0.02031 0,-0.03125 a 1.1731329,1.1731329 0 0 1 0,-0.03125 C 92.136124,59.389874 91.88501,58.109785 91.625,56.8125 A 1.1731329,1.1731329 0 0 1 91.96875,55.75 C 103.58679,44.302265 100.79064,25.926176 87.6875,15.8125 81.780023,11.25281 72.269076,9.1504247 62.8125,9.28125 z"
     transform="matrix(0.97204557,0,0,0.97204557,2.3887868,4.1908353)" />
  <g
     id="layer1"
     transform="matrix(0.3290119,0,0,0.3290119,-1.8131712,-1.1002415)">
    <g
       id="g879"
       transform="matrix(0.652,0,0,0.652,-51.231,-96.825)"
       style="stroke:#000000;stroke-opacity:0.99123003">
      <g
         id="g670"
         transform="translate(87.13,195.45)"
         style="fill-rule:evenodd;stroke-width:1pt">
        <path
           id="path584"
           d="m 294.9,259.71 c -9.7,7.37 -11.86,9.85 -17.22,18.01 -1.94,3.15 -5.56,10.51 -6.55,15.44 -0.99,4.94 -1.73,12.1 -1.72,15.9 0.01,12.85 4.1,20.91 8.57,20.63 3.99,-0.46 9.07,-4.62 16.77,-14.08"
           inkscape:connector-curvature="0" />
        <path
           id="path585"
           transform="matrix(-1,0,0,1,596.77,0.2081)"
           d="m 294.9,259.71 c -9.7,7.37 -11.86,9.85 -17.22,18.01 -1.94,3.15 -5.56,10.51 -6.55,15.44 -0.99,4.94 -1.73,12.1 -1.72,15.9 0.01,12.85 4.1,20.91 8.57,20.63 3.99,-0.46 9.07,-4.62 16.77,-14.08"
           inkscape:connector-curvature="0"
           style="stroke-linejoin:bevel" />
        <path
           id="path586"
           transform="translate(0.58872,-3.0518e-5)"
           d="m 211.89,203.56 c 13.46,-2.36 26.5,-3.88 39.96,-5.41 17.62,-4.44 26.51,15.68 21.65,30.81 -6.11,13.46 -14.71,25.25 -24.56,36.63 -7.63,8.6 -16.73,9.99 -25.4,7.07 -6.99,-1.94 -13.46,-6.24 -20.4,-16.23 -3.05,-8.6 -5.68,-13.05 -9.57,-23.73 -3.05,-9.85 1.7,-24.6 18.32,-29.14 z"
           inkscape:connector-curvature="0" />
        <path
           id="path587"
           transform="matrix(-1,0,0,1,596.45,-3.0518e-5)"
           d="m 211.89,203.56 c 13.46,-2.36 26.5,-3.88 39.96,-5.41 17.62,-4.44 26.51,15.68 21.65,30.81 -6.11,13.46 -14.71,25.25 -24.56,36.63 -7.63,8.6 -16.73,9.99 -25.4,7.07 -6.99,-1.94 -13.46,-6.24 -20.4,-16.23 -3.05,-8.6 -5.68,-13.05 -9.57,-23.73 -3.05,-9.85 1.7,-24.6 18.32,-29.14 z"
           inkscape:connector-curvature="0" />
      </g>
      <g
         id="g775"
         transform="translate(87.13,195.45)"
         style="fill:none">
        <g
           id="g740">
          <g
             id="g652">
            <path
               style="font-size:medium;font-style:normal;font-variant:normal;font-weight:normal;font-stretch:normal;text-indent:0;text-align:start;text-decoration:none;line-height:normal;letter-spacing:normal;word-spacing:normal;text-transform:none;direction:ltr;block-progression:tb;writing-mode:lr-tb;text-anchor:start;baseline-shift:baseline;color:#000000;fill:#000000;fill-opacity:0.99123003;stroke:none;stroke-width:6.25;marker:none;visibility:visible;display:inline;overflow:visible;enable-background:accumulate;font-family:Sans;-inkscape-font-specification:Sans"
               d="m 36.59375,32.125 c -0.300616,0.01776 -0.619924,0.111038 -0.84375,0.3125 -1.102826,0.964795 -1.641686,2.311993 -1.78125,3.65625 -0.139564,1.344259 0.03854,2.775214 0.1875,4.40625 0.284077,2.958483 1.844266,5.446697 1.90625,7.125 6.44e-4,0.03806 -0.0039,0.05588 0,0.09375 0.536944,4.414432 -0.812625,9.024724 -1.5,13.0625 -0.0054,0.02889 0.0035,0.06456 0,0.09375 -0.490486,4.819665 0.67654,8.966597 2.9375,11 2.091612,1.856812 5.295593,2.593865 6.46875,3.03125 0.0089,0.0023 0.02228,-0.0022 0.03125,0 0.123358,0.04313 0.249679,0.106071 0.375,0.15625 1.04355,2.497113 1.837458,4.904675 2.40625,6.75 0.735295,2.584123 0.981421,4.162695 1.4375,7.84375 l -0.0625,0.03125 c 3.911255,4.717375 9.410503,5.529063 15.375,5.6875 3.268444,0.118651 6.5349,-0.46914 9.21875,-1.5 2.685694,-1.031568 4.818731,-2.466727 5.78125,-4.3125 l -0.03125,0 c 0.0015,-0.01177 -0.0015,-0.01953 0,-0.03125 0.45873,-3.706349 0.731122,-5.282677 1.46875,-7.875 0.82968,-2.692978 1.208085,-3.808944 2.28125,-6.34375 0.330084,-0.156434 0.649768,-0.294736 0.96875,-0.40625 0.009,-0.0022 0.02233,0.0023 0.03125,0 1.173156,-0.437384 4.377137,-1.174438 6.46875,-3.03125 2.260959,-2.033404 3.427986,-6.180335 2.9375,-11 -0.0035,-0.02919 0.0054,-0.06486 0,-0.09375 -0.687375,-4.037776 -2.036943,-8.648068 -1.5,-13.0625 0.0039,-0.03787 -6.43e-4,-0.05569 0,-0.09375 0.06199,-1.678303 1.653423,-4.166517 1.9375,-7.125 0.14896,-1.631035 0.295814,-3.061993 0.15625,-4.40625 -0.139564,-1.344257 -0.647175,-2.691455 -1.75,-3.65625 -0.223826,-0.201462 -0.543134,-0.294738 -0.84375,-0.3125 -0.557428,-0.03481 -1.103553,0.294545 -1.3125,0.8125 -0.208949,0.517957 -0.08179,1.169515 0.34375,1.53125 0.559672,0.489622 0.778597,0.977712 0.875,1.90625 0.09625,0.927135 -0.0074,2.244552 -0.15625,3.875 -0.192309,1.974203 -1.764701,4.323427 -1.90625,7.125 -0.0019,0.03651 0.0012,0.08835 0,0.125 -0.591195,5.097272 0.891468,9.972599 1.53125,13.71875 0.001,0.006 -0.001,0.02522 0,0.03125 0.39362,4.11453 -1.037998,7.666887 -2.09375,8.625 -1.231241,1.087526 -4.048922,1.925919 -5.59375,2.5 -0.0069,0.0025 -0.02447,0.02872 -0.03125,0.03125 -1.780262,0.62731 -3.496314,1.691374 -5.03125,2.90625 -0.03264,0.02753 -0.09513,0.06323 -0.125,0.09375 -1.844192,1.77664 -2.528929,4.129619 -2.59375,6.25 -2.786428,0.996388 -6.592166,1.259011 -10.9375,1.28125 -3.809935,0.06854 -7.947889,-0.135014 -10.9375,-1.09375 -0.02615,-2.168406 -0.725073,-4.607167 -2.625,-6.4375 -0.02987,-0.03052 -0.06111,-0.06622 -0.09375,-0.09375 -1.534935,-1.214876 -3.282238,-2.278939 -5.0625,-2.90625 -0.0068,-0.0025 -0.02439,-0.02874 -0.03125,-0.03125 -1.544829,-0.574081 -4.362509,-1.412474 -5.59375,-2.5 -1.055754,-0.958113 -2.487371,-4.51047 -2.09375,-8.625 0.0011,-0.006 -0.0011,-0.0252 0,-0.03125 0.639783,-3.746153 2.122445,-8.621478 1.53125,-13.71875 -0.0013,-0.03665 0.0019,-0.08849 0,-0.125 -0.141548,-2.801574 -1.713941,-5.150796 -1.90625,-7.125 -0.148859,-1.630446 -0.252503,-2.947865 -0.15625,-3.875 0.0964,-0.928538 0.315328,-1.416629 0.875,-1.90625 0.425537,-0.361736 0.552699,-1.013291 0.34375,-1.53125 -0.208945,-0.517955 -0.723822,-0.847309 -1.28125,-0.8125 z M 46.125,75.9375 c 0.701915,0.418689 1.421926,0.908746 2.09375,1.4375 1.378034,1.349675 2.75,2.608647 2.75,4.1875 l 0,5.46875 0,3.40625 C 50.458587,90.015019 49.966885,89.534184 49.5,89 c -0.423716,-3.351072 -0.719667,-5.041882 -1.4375,-7.5625 -0.719821,-2.336785 -1.147844,-3.57837 -1.9375,-5.5 z m 34.25,0.4375 c -0.647041,1.614736 -1.039537,2.80274 -1.6875,4.90625 -0.722618,2.53742 -1.040525,4.228397 -1.46875,7.625 -0.21432,0.394264 -0.55396,0.790432 -0.96875,1.1875 l 0,-8.53125 c 0,-1.578853 1.371965,-2.837825 2.75,-4.1875 0.449348,-0.353656 0.907678,-0.690579 1.375,-1 z m -5.1875,6.5625 0,3.15625 c -0.580636,0.390886 -1.170057,0.7147 -1.78125,1 l 0,-3.5625 c 0.628903,-0.156372 1.211586,-0.372501 1.78125,-0.59375 z m -23.15625,0.25 c 0.435639,0.139922 0.881429,0.259158 1.34375,0.375 l -0.03125,3.53125 c -0.470318,-0.217163 -0.924982,-0.459107 -1.375,-0.71875 z m 19.90625,0.625 0.03125,3.875 c -0.573841,0.192828 -1.169136,0.36861 -1.78125,0.5 l -0.03125,-4.09375 c 0.606146,-0.06984 1.21029,-0.179853 1.78125,-0.28125 z M 54.84375,83.875 c 0.573191,0.102479 1.152298,0.181124 1.75,0.25 l -0.03125,4.0625 c -0.597256,-0.14458 -1.181859,-0.300108 -1.75,-0.5 z m 13.84375,0.34375 0.03125,4.21875 c -0.446877,0.06368 -0.904263,0.112118 -1.375,0.15625 l 0,-4.28125 c 0.458555,-0.02292 0.900182,-0.05962 1.34375,-0.09375 z M 58.0625,84.25 c 0.473803,0.03532 0.958851,0.07323 1.4375,0.09375 L 59.46875,88.6875 C 58.979204,88.638733 58.503533,88.577546 58.03125,88.5 z m 7.8125,0.09375 0,4.375 c -0.533788,0.03064 -1.089357,0.04457 -1.65625,0.0625 l 0,-4.375 c 0.563791,-0.0056 1.109654,-0.04713 1.65625,-0.0625 z m -4.9375,0.0625 c 0.609873,0.01049 1.210444,0.0049 1.8125,0 l 0,4.40625 c -0.613697,0.0094 -1.222745,-0.0057 -1.8125,-0.03125 z m 14.25,2.96875 0,3.59375 C 74.66703,91.330726 74.091639,91.684758 73.4375,92 l 0,-3.71875 c 0.600063,-0.256591 1.179328,-0.562726 1.75,-0.90625 z m -23.21875,0.21875 c 0.448387,0.233759 0.910132,0.457355 1.375,0.65625 L 53.3125,91.96875 C 52.826995,91.7241 52.360969,91.43301 51.90625,91.125 z m 2.84375,1.21875 c 0.56542,0.185626 1.129423,0.365028 1.71875,0.5 L 56.5,93.125 c -0.594938,-0.147331 -1.157339,-0.293546 -1.71875,-0.5 z m 17.15625,0 L 72,92.59375 c -0.5692,0.210787 -1.159837,0.396195 -1.78125,0.5625 L 70.1875,89.25 c 0.606824,-0.123061 1.204669,-0.258537 1.78125,-0.4375 z m -3.28125,0.71875 c 0.02051,-0.0028 0.04203,0.0028 0.0625,0 L 68.78125,93.5 c -0.46164,0.09132 -0.930032,0.154849 -1.40625,0.21875 l 0,-4.0625 c 0.444447,-0.04115 0.884951,-0.06681 1.3125,-0.125 z M 58,89.59375 c 0.482693,0.07588 0.971405,0.108835 1.46875,0.15625 L 59.4375,93.65625 C 58.938755,93.59828 58.448831,93.520521 57.96875,93.4375 z m 7.90625,0.1875 0,4.09375 c -0.558145,0.03864 -1.124364,0.06623 -1.6875,0.0625 l 0,-4.09375 c 0.574832,-0.01797 1.140081,-0.03123 1.6875,-0.0625 z m -5,0.0625 c 0.601589,0.02573 1.222357,0.04054 1.84375,0.03125 l 0,4.03125 c -0.624908,-0.02382 -1.242428,-0.08023 -1.84375,-0.125 z"
               id="path611"
               inkscape:connector-curvature="0"
               sodipodi:nodetypes="ccscccccccccccccsccsccccccccccsccscscccccccccccccccccccccccscscccscccccccccsccccccccccccccccccccccccccccccccccccccccccccccccccccccccccccccsccccsccccccccccccccc"
               transform="matrix(4.6616622,0,0,4.6616622,2.7754753,-30.297072)" />
            <g
               id="g637">
              <g
                 id="g625">
                <g
                   id="g615"
                   style="stroke-width:5">
                  <g
                     id="g3794"
                     style="stroke-width:6.81061602;stroke-miterlimit:4;stroke-dasharray:none" />
                </g>
              </g>
            </g>
          </g>
          <g
             id="g675"
             style="stroke-width:12.5">
            <path
               id="path573"
               d="M 171.5,235.56 C 112.53791,171.64065 133.54987,94.434412 185.67,51.49 235.66738,10.294629 354.86222,7.8227184 407.77,49.18 c 59.79368,46.739895 71.89654,132.04555 17.2,184.06"
               inkscape:connector-curvature="0"
               style="stroke-linecap:round;stroke-linejoin:round"
               sodipodi:nodetypes="cssc" />
            <path
               id="path613"
               d="m 194.82,310.96 c 6.94,16.79 14.29,33.16 14.99,50.37 -3.19,13.87 -2.22,30.25 1.25,43.29 4.44,17.9 21.78,39.13 39.13,46.21 17.76,6.45 28.86,8.12 48.7,8.12"
               inkscape:connector-curvature="0" />
            <path
               id="path614"
               transform="matrix(-1,0,0,1,596.74,-3.0518e-5)"
               d="m 194.82,310.96 c 6.94,16.79 14.29,33.16 14.99,50.37 -3.19,13.87 -2.22,30.25 1.25,43.29 4.44,17.9 21.99,38.51 39.34,45.59 17.34,7.07 28.44,8.74 48.28,8.74"
               inkscape:connector-curvature="0" />
          </g>
        </g>
        <g
           id="g770"
           style="stroke-width:12.5;stroke-linejoin:round">
          <path
             id="path765"
             d="m 391.31,389.64 68.27,31.63 c 8.32,3.47 14.98,2.36 21.23,0.42 9.85,-2.91 17.62,-1.25 25.81,2.08 9.85,5 10.13,12.07 3.75,19.15 -5.83,6.8 -11.66,10.27 -18.74,17.07 -1.52,10.96 -0.55,21.09 -5.41,31.22 -6.1,8.88 -12.63,7.35 -22.89,-2.08 -10.41,-8.05 -6.67,-16.93 -21.65,-29.97 L 378.4,426.27"
             inkscape:connector-curvature="0" />
          <path
             id="path766"
             d="m 204.81,389.22 c -22.75,12.07 -43.43,23.31 -69.52,33.3 -21.23,5.28 -20.39,-7.77 -46.205,0.84 -7.354,5.82 -7.215,14.15 -1.249,20.39 6.938,6.8 11.795,11.1 17.904,17.07 1.94,8.6 2.22,15.96 3.33,26.23 4.16,12.62 13.32,11.93 21.23,5.83 3.47,-4.31 7.77,-8.19 10.4,-12.91 3.61,-6.24 7.64,-13.32 12.49,-19.15 l 62.86,-33.3"
             inkscape:connector-curvature="0" />
          <path
             id="path767"
             d="m 401.3,321.36 c 25.81,-12.76 47.04,-23.03 70.35,-34.55 14.29,-11.93 10.69,-23.45 22.07,-32.05 11.23,-10.69 18.73,-8.05 22.89,-2.08 4.02,10.13 5.97,20.26 5.41,30.8 10.69,9.86 16.38,15.54 22.48,24.56 0.83,11.38 -9.16,16.1 -21.23,16.24 -15.82,2.91 -18.32,-7.08 -36.22,0 l -94.49,44.54"
             inkscape:connector-curvature="0"
             style="stroke-linecap:square" />
          <path
             id="path769"
             d="m 197.22,322.35 c -26.1,-12.75 -47.78,-22.27 -73.59,-36.5 -14.03,-11.18 -9.52,-23.84 -26.492,-34.14 -7.457,-3.73 -12.853,-5.4 -18.839,4.71 -3.826,9.02 -3.532,18.64 -4.121,27.96 -6.672,7.16 -14.227,11.38 -19.722,20.31 -7.947,12.76 4.121,16.98 10.597,18.55 18.447,4.61 25.119,-3.73 42.097,-0.3 33.06,15.41 66.42,31.4 98.31,47.1"
             inkscape:connector-curvature="0" />
        </g>
      </g>
    </g>
  </g>
  <metadata
     id="metadata41">
    <rdf:RDF>
      <cc:Work>
        <dc:format>image/svg+xml</dc:format>
        <dc:type
           rdf:resource="http://purl.org/dc/dcmitype/StillImage" />
        <cc:license
           rdf:resource="http://creativecommons.org/licenses/publicdomain/" />
        <dc:publisher>
          <cc:Agent
             rdf:about="http://openclipart.org/">
            <dc:title>Openclipart</dc:title>
          </cc:Agent>
        </dc:publisher>
        <dc:title>skull and crossbones</dc:title>
        <dc:date>2006-11-16T21:17:17</dc:date>
        <dc:description>a skull and crossbones i found in the wikicommons...
\n
\nurl - http://commons.wikimedia.org/wiki/Image:Skull_and_crossbones.svg</dc:description>
        <dc:source>http://openclipart.org/detail/1448/skull-and-crossbones-by-ryanlerch</dc:source>
        <dc:creator>
          <cc:Agent>
            <dc:title>ryanlerch</dc:title>
          </cc:Agent>
        </dc:creator>
        <dc:subject>
          <rdf:Bag>
            <rdf:li>clip art</rdf:li>
            <rdf:li>clipart</rdf:li>
            <rdf:li>crossbones</rdf:li>
            <rdf:li>danger</rdf:li>
            <rdf:li>externalsource</rdf:li>
            <rdf:li>image</rdf:li>
            <rdf:li>media</rdf:li>
            <rdf:li>pirate</rdf:li>
            <rdf:li>png</rdf:li>
            <rdf:li>poison</rdf:li>
            <rdf:li>public domain</rdf:li>
            <rdf:li>skull</rdf:li>
            <rdf:li>svg</rdf:li>
            <rdf:li>toxic</rdf:li>
            <rdf:li>wikimedia commons</rdf:li>
          </rdf:Bag>
        </dc:subject>
      </cc:Work>
      <cc:License
         rdf:about="http://creativecommons.org/licenses/publicdomain/">
        <cc:permits
           rdf:resource="http://creativecommons.org/ns#Reproduction" />
        <cc:permits
           rdf:resource="http://creativecommons.org/ns#Distribution" />
        <cc:permits
           rdf:resource="http://creativecommons.org/ns#DerivativeWorks" />
      </cc:License>
    </rdf:RDF>
  </metadata>
</svg>
