<?xml version="1.0" encoding="UTF-8" standalone="no"?>
<!-- Generator: Adobe Illustrator 10.0.3, SVG Export Plug-In . SVG Version: 3.0.0 Build 77)  -->

<svg
   xmlns:a="http://ns.adobe.com/AdobeSVGViewerExtensions/3.0/"
   xmlns:dc="http://purl.org/dc/elements/1.1/"
   xmlns:cc="http://creativecommons.org/ns#"
   xmlns:rdf="http://www.w3.org/1999/02/22-rdf-syntax-ns#"
   xmlns:svg="http://www.w3.org/2000/svg"
   xmlns="http://www.w3.org/2000/svg"
   xmlns:xlink="http://www.w3.org/1999/xlink"
   xmlns:sodipodi="http://sodipodi.sourceforge.net/DTD/sodipodi-0.dtd"
   xmlns:inkscape="http://www.inkscape.org/namespaces/inkscape"
   width="32"
   height="32"
   viewBox="-0.033 -0.097 121 122"
   overflow="visible"
   enable-background="new -0.033 -0.097 121 122"
   xml:space="preserve"
   id="svg2"
   sodipodi:version="0.32"
   inkscape:version="0.48.3.1 r9886"
   sodipodi:docname="gtk-add.svg"
   inkscape:output_extension="org.inkscape.output.svg.inkscape"
   version="1.0"
   style="overflow:visible"><metadata
   id="metadata56"><rdf:RDF><cc:Work
       rdf:about=""><dc:format>image/svg+xml</dc:format><dc:type
         rdf:resource="http://purl.org/dc/dcmitype/StillImage" /><dc:title /></cc:Work></rdf:RDF></metadata><defs
   id="defs54"><inkscape:perspective
   sodipodi:type="inkscape:persp3d"
   inkscape:vp_x="0 : 24 : 1"
   inkscape:vp_y="0 : 1000 : 0"
   inkscape:vp_z="48 : 24 : 1"
   inkscape:persp3d-origin="24 : 16 : 1"
   id="perspective58" /><linearGradient
   inkscape:collect="always"
   xlink:href="#XMLID_1_"
   id="linearGradient2901"
   gradientUnits="userSpaceOnUse"
   x1="25.819799"
   y1="30.3428"
   x2="103.745"
   y2="66.058502" /><linearGradient
   inkscape:collect="always"
   xlink:href="#XMLID_2_"
   id="linearGradient2903"
   gradientUnits="userSpaceOnUse"
   x1="46.0532"
   y1="84.938499"
   x2="43.597099"
   y2="84.4646" /><linearGradient
   inkscape:collect="always"
   xlink:href="#XMLID_3_"
   id="linearGradient2905"
   gradientUnits="userSpaceOnUse"
   x1="70.762703"
   y1="66.057602"
   x2="61.155899"
   y2="64.203903" /><linearGradient
   inkscape:collect="always"
   xlink:href="#XMLID_4_"
   id="linearGradient2907"
   gradientUnits="userSpaceOnUse"
   x1="52.383301"
   y1="35.398399"
   x2="52.383301"
   y2="96.055702" />
		
		<linearGradient
   y2="66.058502"
   x2="103.745"
   y1="30.3428"
   x1="25.819799"
   gradientUnits="userSpaceOnUse"
   id="XMLID_1_">
			<stop
   id="stop8"
   style="stop-color:#1e129d;stop-opacity:1;"
   offset="0" />
			<stop
   id="stop10"
   style="stop-color:#1e4fb7;stop-opacity:1;"
   offset="0.30899999" />
			<stop
   id="stop12"
   style="stop-color:#1e129e;stop-opacity:1;"
   offset="1" />
		</linearGradient>
		
		
		
		
		
		
		<linearGradient
   y2="84.4646"
   x2="43.597099"
   y1="84.938499"
   x1="46.0532"
   gradientUnits="userSpaceOnUse"
   id="XMLID_2_">
			<stop
   id="stop27"
   style="stop-color:#FFFFFF"
   offset="0" />
			<stop
   id="stop29"
   style="stop-color:#CCCCCC"
   offset="1" />
		</linearGradient>
		
		
		<linearGradient
   y2="64.203903"
   x2="61.155899"
   y1="66.057602"
   x1="70.762703"
   gradientUnits="userSpaceOnUse"
   id="XMLID_3_">
			<stop
   id="stop36"
   style="stop-color:#FFFFFF"
   offset="0" />
			<stop
   id="stop38"
   style="stop-color:#CCCCCC"
   offset="1" />
		</linearGradient>
		
		
		
		<linearGradient
   y2="96.055702"
   x2="52.383301"
   y1="35.398399"
   x1="52.383301"
   gradientUnits="userSpaceOnUse"
   id="XMLID_4_">
			<stop
   id="stop47"
   style="stop-color:#FFFFFF"
   offset="0" />
			<stop
   id="stop49"
   style="stop-color:#000000"
   offset="1" />
		</linearGradient>
		
	<linearGradient
   inkscape:collect="always"
   xlink:href="#XMLID_4_"
   id="linearGradient2923"
   gradientUnits="userSpaceOnUse"
   x1="52.383301"
   y1="35.398399"
   x2="52.383301"
   y2="96.055702"
   gradientTransform="matrix(0.99818409,0,0,0.99818409,0.10222905,0.27704457)" /><linearGradient
   inkscape:collect="always"
   xlink:href="#XMLID_3_"
   id="linearGradient2928"
   gradientUnits="userSpaceOnUse"
   x1="70.762703"
   y1="66.057602"
   x2="61.155899"
   y2="64.203903"
   gradientTransform="matrix(0.99818409,0,0,0.99818409,0.10222905,0.27704457)" /><linearGradient
   inkscape:collect="always"
   xlink:href="#XMLID_2_"
   id="linearGradient2932"
   gradientUnits="userSpaceOnUse"
   x1="46.0532"
   y1="84.938499"
   x2="43.597099"
   y2="84.4646"
   gradientTransform="matrix(0.99818409,0,0,0.99818409,0.10222905,0.27704457)" /><linearGradient
   inkscape:collect="always"
   xlink:href="#XMLID_1_"
   id="linearGradient2940"
   gradientUnits="userSpaceOnUse"
   x1="25.819799"
   y1="30.3428"
   x2="103.745"
   y2="66.058502"
   gradientTransform="matrix(0.99818409,0,0,0.99818409,0.10222905,0.27704457)" /></defs><sodipodi:namedview
   inkscape:window-height="682"
   inkscape:window-width="770"
   inkscape:pageshadow="2"
   inkscape:pageopacity="0.0"
   guidetolerance="10.0"
   gridtolerance="10.0"
   objecttolerance="10.0"
   borderopacity="1.0"
   bordercolor="#666666"
   pagecolor="#ffffff"
   id="base"
   showgrid="false"
   inkscape:zoom="13.84375"
   inkscape:cx="16"
   inkscape:cy="16"
   inkscape:window-x="1097"
   inkscape:window-y="197"
   inkscape:current-layer="svg2"
   inkscape:window-maximized="0" />
	<path
   id="path5"
   d="M 31.017986,10.136109 14.958203,24.618762 c -0.06986,0.06488 -0.481126,0.45018 -0.481126,0.45018 -9.270135,7.970501 -14.37484795,19.769037 -14.37484795,33.222561 0,28.570025 23.21875995,56.645947 51.75983795,62.588137 15.856154,3.30298 30.776013,-0.68875 40.932534,-10.95407 -0.06788,0.0619 16.427159,-14.813052 16.427159,-14.813052 l 0.0659,-0.05888 0.0619,-0.0629 c 7.73094,-7.84972 11.98919,-18.863684 11.98919,-31.013579 0,-28.568031 -23.219805,-56.6449517 -51.759885,-62.5871422 -14.497664,-3.0185077 -28.551099,0.1686953 -38.56089,8.7460912 z"
   inkscape:connector-curvature="0" /><path
   style="fill:url(#linearGradient2940)"
   id="path14"
   d="m 16.470459,27.28591 c 9.006607,-7.716963 21.80432,-11.043909 36.000493,-8.089284 27.269402,5.677671 49.375228,32.386083 49.375228,59.655474 0,11.848445 -4.172445,21.85225 -11.127799,28.9124 L 107.21541,92.888564 C 114.17076,85.82741 118.34317,75.823609 118.34317,63.976163 118.34317,36.706771 96.237335,9.9983597 68.966954,4.3206891 54.770782,1.3650655 41.974062,4.6920134 32.966447,12.409972 L 16.470459,27.28591 z"
   inkscape:connector-curvature="0" /><path
   style="fill:#1e12b7;fill-opacity:1"
   id="path16"
   d="m 101.84717,78.853098 c 0,27.269392 -22.105821,44.772552 -49.37521,39.093882 C 25.202559,112.26931 3.0967805,85.559898 3.0967805,58.291503 c 0,-27.270388 22.1057785,-44.77155 49.3741715,-39.09388 27.269402,5.677672 49.376218,32.385086 49.376218,59.655475 z"
   inkscape:connector-curvature="0" /><path
   style="fill:#ffffff"
   id="path18"
   d="m 83.331816,67.283146 -23.144894,-4.819232 0,-23.143896 -15.42993,-3.213156 0,23.144895 -23.144894,-4.819234 0,15.429931 23.144894,4.819233 0,23.143895 15.42993,3.214158 0,-23.145897 23.144894,4.819233 0,-15.42993 z"
   inkscape:connector-curvature="0" /><path
   style="fill:#cccccc"
   id="path20"
   d="m 57.71442,65.084147 2.472502,-2.620233 0,-23.143896 -2.416603,1.710887 -0.05591,24.053242 z"
   inkscape:connector-curvature="0" /><path
   style="fill:#cccccc"
   id="path22"
   d="m 80.858317,79.232407 2.473499,3.481667 0,-15.430928 -2.417601,2.609253 -0.05589,9.340008 z"
   inkscape:connector-curvature="0" /><path
   style="fill:#cccccc"
   id="path24"
   d="m 57.71442,98.160973 2.472502,2.878767 0,-23.144899 -2.529398,-3.481665 0.0569,23.747797 z"
   inkscape:connector-curvature="0" /><path
   style="fill:url(#linearGradient2932)"
   id="path31"
   d="m 44.756992,97.825582 2.475497,-1.815695 -0.05591,-23.753788 -2.475496,2.425588 0.05591,23.143895 z"
   inkscape:connector-curvature="0" /><path
   style="fill:#cccccc"
   id="path33"
   d="m 21.612098,69.862454 23.144894,4.819233 2.419598,-2.425588 -23.072026,-4.901084 -2.492466,2.507439 z"
   inkscape:connector-curvature="0" /><path
   style="fill:url(#linearGradient2928)"
   id="path40"
   d="m 57.760337,65.073167 23.144893,4.819232 2.426586,-2.609253 -23.144894,-4.819232 -2.426585,2.609253 z"
   inkscape:connector-curvature="0" /><path
   style="fill:#cccccc"
   id="path42"
   d="m 60.186922,77.894841 23.144894,4.819233 -2.528401,-3.481667 -23.145891,-4.819231 2.529398,3.481665 z"
   inkscape:connector-curvature="0" /><path
   style="fill:#cccccc"
   id="path44"
   d="m 44.756992,97.825582 15.42993,3.214158 -2.472502,-2.878767 -10.480932,-2.151086 -2.476496,1.815695 z"
   inkscape:connector-curvature="0" /><path
   style="opacity:0.3;fill:url(#linearGradient2923)"
   id="path51"
   d="m 18.647491,28.482732 c -8.535472,6.941372 -13.23592,17.528113 -13.23592,29.808771 0,1.051089 0.05189,2.147095 0.129761,3.262066 18.674028,-9.255162 38.853317,-1.575135 58.39377,5.877308 7.916598,3.01851 15.394994,5.871319 22.793534,7.671044 4.190376,1.048095 8.523489,1.207803 12.641999,0.550002 C 98.588065,63.737596 93.534256,51.723453 84.967841,41.675732 76.048067,31.21077 64.339369,24.032828 51.999816,21.463501 39.307905,18.821307 27.464451,21.312776 18.647491,28.482732 z"
   a:adobe-blending-mode="screen"
   inkscape:connector-curvature="0" />
</svg>