<?xml version="1.0" encoding="UTF-8" standalone="no"?>
<svg
   xmlns:dc="http://purl.org/dc/elements/1.1/"
   xmlns:cc="http://creativecommons.org/ns#"
   xmlns:rdf="http://www.w3.org/1999/02/22-rdf-syntax-ns#"
   xmlns:svg="http://www.w3.org/2000/svg"
   xmlns="http://www.w3.org/2000/svg"
   xmlns:xlink="http://www.w3.org/1999/xlink"
   xmlns:sodipodi="http://sodipodi.sourceforge.net/DTD/sodipodi-0.dtd"
   xmlns:inkscape="http://www.inkscape.org/namespaces/inkscape"
   version="1.1"
   width="64"
   height="64"
   color-interpolation="linearRGB"
   id="svg2"
   sodipodi:version="0.32"
   inkscape:version="0.47 r22583"
   sodipodi:docname="printer-printing.svg"
   inkscape:output_extension="org.inkscape.output.svg.inkscape">
  <metadata
     id="metadata83">
    <rdf:RDF>
      <cc:Work
         rdf:about="">
        <dc:format>image/svg+xml</dc:format>
        <dc:type
           rdf:resource="http://purl.org/dc/dcmitype/StillImage" />
      </cc:Work>
    </rdf:RDF>
  </metadata>
  <defs
     id="defs81">
    <inkscape:perspective
       sodipodi:type="inkscape:persp3d"
       inkscape:vp_x="0 : 32 : 1"
       inkscape:vp_y="0 : 1000 : 0"
       inkscape:vp_z="64 : 32 : 1"
       inkscape:persp3d-origin="32 : 21.333333 : 1"
       id="perspective85" />
    <inkscape:perspective
       id="perspective49"
       inkscape:persp3d-origin="32 : 21.333333 : 1"
       inkscape:vp_z="64 : 32 : 1"
       inkscape:vp_y="0 : 1000 : 0"
       inkscape:vp_x="0 : 32 : 1"
       sodipodi:type="inkscape:persp3d" />
    <inkscape:perspective
       id="perspective2456"
       inkscape:persp3d-origin="32 : 21.333333 : 1"
       inkscape:vp_z="64 : 32 : 1"
       inkscape:vp_y="0 : 1000 : 0"
       inkscape:vp_x="0 : 32 : 1"
       sodipodi:type="inkscape:persp3d" />
    <linearGradient
       inkscape:collect="always"
       xlink:href="#linearGradient2479"
       id="linearGradient2486"
       gradientUnits="userSpaceOnUse"
       x1="3.99"
       y1="48"
       x2="16"
       y2="60" />
    <inkscape:perspective
       sodipodi:type="inkscape:persp3d"
       inkscape:vp_x="0 : 0.5 : 1"
       inkscape:vp_y="0 : 1000 : 0"
       inkscape:vp_z="1 : 0.5 : 1"
       inkscape:persp3d-origin="0.5 : 0.33333333 : 1"
       id="perspective3087" />
    <inkscape:perspective
       id="perspective86"
       inkscape:persp3d-origin="32 : 21.333333 : 1"
       inkscape:vp_z="64 : 32 : 1"
       inkscape:vp_y="0 : 1000 : 0"
       inkscape:vp_x="0 : 32 : 1"
       sodipodi:type="inkscape:persp3d" />
    <linearGradient
       inkscape:collect="always"
       xlink:href="#gradient0-7"
       id="linearGradient3026"
       gradientUnits="userSpaceOnUse"
       x1="-8.0900002"
       y1="65.120003"
       x2="-14.95"
       y2="33.360001" />
    <linearGradient
       inkscape:collect="always"
       xlink:href="#gradient1-1"
       id="linearGradient3028"
       gradientUnits="userSpaceOnUse"
       x1="13.56"
       y1="56.529999"
       x2="19.959999"
       y2="43.73" />
    <linearGradient
       inkscape:collect="always"
       xlink:href="#gradient2-3"
       id="linearGradient3030"
       gradientUnits="userSpaceOnUse"
       x1="28.549999"
       y1="21.209999"
       x2="34.099998"
       y2="8.5799999" />
    <linearGradient
       inkscape:collect="always"
       xlink:href="#gradient3-0"
       id="linearGradient3032"
       gradientUnits="userSpaceOnUse"
       x1="45.880001"
       y1="35.610001"
       x2="42.880001"
       y2="54.610001" />
    <radialGradient
       inkscape:collect="always"
       xlink:href="#gradient4-8"
       id="radialGradient3034"
       gradientUnits="userSpaceOnUse"
       gradientTransform="matrix(0.165,0.118,-0.269,0.3761,44.6696,44.5417)"
       cx="0"
       cy="0"
       r="64" />
    <radialGradient
       inkscape:collect="always"
       xlink:href="#gradient5-6"
       id="radialGradient3036"
       gradientUnits="userSpaceOnUse"
       gradientTransform="matrix(0.0312,0,0,0.0468,33,43)"
       cx="0"
       cy="0"
       r="64" />
    <radialGradient
       inkscape:collect="always"
       xlink:href="#gradient6-3"
       id="radialGradient3038"
       gradientUnits="userSpaceOnUse"
       gradientTransform="matrix(0.0312,0,0,0.0468,33,43)"
       cx="0"
       cy="0"
       r="64" />
    <radialGradient
       inkscape:collect="always"
       xlink:href="#gradient7-5"
       id="radialGradient3040"
       gradientUnits="userSpaceOnUse"
       gradientTransform="matrix(0.5295,-0.3272,0.1957,0.3167,17.1527,18.9224)"
       cx="0"
       cy="0"
       r="64" />
  </defs>
  <sodipodi:namedview
     inkscape:window-height="682"
     inkscape:window-width="1106"
     inkscape:pageshadow="2"
     inkscape:pageopacity="0.0"
     guidetolerance="10.0"
     gridtolerance="10.0"
     objecttolerance="10.0"
     borderopacity="1.0"
     bordercolor="#666666"
     pagecolor="#ffffff"
     id="base"
     showgrid="false"
     inkscape:zoom="6.515625"
     inkscape:cx="32"
     inkscape:cy="32"
     inkscape:window-x="85"
     inkscape:window-y="43"
     inkscape:current-layer="g2458"
     inkscape:window-maximized="1" />
  <g
     id="g4">
    <path
       style="fill:#010000; fill-opacity:0.4509"
       d="M26 63C26 63 38 56 40 60C44 62 50 58 54 54L64 44L56 40H26V63z"
       id="path6" />
    <path
       style="fill:none; stroke:#000000; stroke-width:4"
       d="M16 14C5 23 2 26 2 40L38 58C38 58 40 59 42 57L56 43V33C56 33 56 31 55 30C54 29 52 28 52 28L16 14z            M2 49L26 62C26 62 28 56 34 52V50L11.24 38.61C5 42 2 49 2 49z            M52 10L28 2L21 17V18L44 27V26L52 10z"
       id="path8" />
    <linearGradient
       id="gradient0"
       gradientUnits="userSpaceOnUse"
       x1="-8.09"
       y1="65.12"
       x2="-14.95"
       y2="33.36">
      <stop
         offset="0"
         stop-color="#aeaeae"
         id="stop11" />
      <stop
         offset="1"
         stop-color="#e1e1e1"
         id="stop13" />
    </linearGradient>
    <path
       style="fill:url(#gradient0)"
       d="M48 26L46 28L18 17L20 15L16 14C5 23 2 26 2 40L38 58C38 44 42 38 52 28L48 26z"
       id="path15" />
    <path
       style="fill:none; stroke:#000000; stroke-width:2"
       d="M6 40L34 54V50L6 36V40z"
       id="path17" />
    <path
       style="fill:#383838"
       d="M6 40L34 54V50L6 36V40z"
       id="path19" />
    <linearGradient
       id="gradient1"
       gradientUnits="userSpaceOnUse"
       x1="13.56"
       y1="56.53"
       x2="19.96"
       y2="43.73">
      <stop
         offset="0"
         stop-color="#ffffff"
         id="stop22" />
      <stop
         offset="0.749"
         stop-color="#e5e5e5"
         id="stop24" />
      <stop
         offset="1"
         stop-color="#9b9b9b"
         id="stop26" />
    </linearGradient>
    <path
       style="fill:url(#gradient1)"
       d="M2 49L26 62C26 62 28 56 34 52V50L11.24 38.61C5 42 2 49 2 49z"
       id="path28" />
    <linearGradient
       id="gradient2"
       gradientUnits="userSpaceOnUse"
       x1="28.55"
       y1="21.21"
       x2="34.1"
       y2="8.58">
      <stop
         offset="0"
         stop-color="#535353"
         id="stop31" />
      <stop
         offset="0.2745"
         stop-color="#b5b5b5"
         id="stop33" />
      <stop
         offset="1"
         stop-color="#ffffff"
         id="stop35" />
    </linearGradient>
    <path
       style="fill:url(#gradient2)"
       d="M52 10L28 2L21 17V18L44 27V26L52 10z"
       id="path37" />
    <linearGradient
       id="gradient3"
       gradientUnits="userSpaceOnUse"
       x1="45.88"
       y1="35.61"
       x2="42.88"
       y2="54.61">
      <stop
         offset="0.0039"
         stop-color="#c0c0c0"
         id="stop40"
         style="stop-color:#c0c0c0;stop-opacity:1;" />
      <stop
         offset="1"
         stop-color="#9a9a9a"
         id="stop42" />
    </linearGradient>
    <path
       style="fill:url(#gradient3)"
       d="M55 30C54 29 52 28 52 28C42 38 38 44 38 58C38 58 40 59 42 57L56 43V33C56 33 56 31 55 30z"
       id="path44" />
    <radialGradient
       id="gradient4"
       gradientUnits="userSpaceOnUse"
       cx="0"
       cy="0"
       r="64"
       gradientTransform="matrix(0.165,0.118,-0.269,0.3761,44.6696,44.5417)">
      <stop
         offset="0.0039"
         stop-color="#838383"
         id="stop47" />
      <stop
         offset="1"
         stop-color="#adadad"
         id="stop49" />
    </radialGradient>
    <path
       style="fill:url(#gradient4)"
       d="M42 57L56 43V33L54 31C46 39 42 47 42 57z"
       id="path51" />
    <radialGradient
       id="gradient5"
       gradientUnits="userSpaceOnUse"
       cx="0"
       cy="0"
       r="64"
       gradientTransform="matrix(0.0312,0,0,0.0468,33,43)">
      <stop
         offset="0"
         stop-color="#ffe3e3"
         id="stop54" />
      <stop
         offset="1"
         stop-color="#dd0505"
         id="stop56" />
    </radialGradient>
    <path
       style="fill:url(#gradient5)"
       d="M32 42C34 40 37 43 35 45C33 47 30 44 32 42z"
       transform="matrix(1,0,0,1,5,-4)"
       id="path58" />
    <radialGradient
       id="gradient6"
       gradientUnits="userSpaceOnUse"
       cx="0"
       cy="0"
       r="64"
       gradientTransform="matrix(0.0312,0,0,0.0468,33,43)">
      <stop
         offset="0"
         stop-color="#35ff06"
         id="stop61" />
      <stop
         offset="0.9843"
         stop-color="#1e9303"
         id="stop63" />
    </radialGradient>
    <path
       style="fill:url(#gradient6)"
       d="M32 42C34 40 37 43 35 45C33 47 30 44 32 42z"
       transform="matrix(1,0,0,1,2,1)"
       id="path65" />
    <path
       style="fill:none; stroke:#000000; stroke-width:1"
       d="M8 48L24 56"
       transform="matrix(1,0,0,1,4,-4)"
       id="path67" />
    <path
       style="fill:none; stroke:#000000; stroke-width:1"
       d="M8 48L24 56"
       transform="matrix(1,0,0,1,2,-2)"
       id="path69" />
    <path
       style="fill:none; stroke:#000000; stroke-width:1"
       d="M8 48L24 56"
       id="path71" />
    <radialGradient
       id="gradient7"
       gradientUnits="userSpaceOnUse"
       cx="0"
       cy="0"
       r="64"
       gradientTransform="matrix(0.5295,-0.3272,0.1957,0.3167,17.1527,18.9224)">
      <stop
         offset="0"
         stop-color="#909090"
         id="stop74" />
      <stop
         offset="1"
         stop-color="#3c3c3c"
         id="stop76" />
    </radialGradient>
    <path
       style="fill:url(#gradient7)"
       d="M18 19L43 30C37 30 36 46 21 39C6 32 11 19 18 19z"
       id="path78" />
  </g>
  <g
     id="g2479"
     transform="translate(43.567232,-0.4377684)">
    <linearGradient
       y2="-5.4099998"
       x2="74.970001"
       y1="-10.23"
       x1="55.689999"
       gradientUnits="userSpaceOnUse"
       id="linearGradient2481">
      <stop
         id="stop15"
         stop-color="#5c5c5c"
         offset="0" />
      <stop
         id="stop17"
         stop-color="#838383"
         offset="1" />
    </linearGradient>
    <radialGradient
       gradientTransform="matrix(0.25,0,0,0.25,10,10)"
       r="64"
       cy="0"
       cx="0"
       gradientUnits="userSpaceOnUse"
       id="radialGradient2485">
      <stop
         id="stop2487"
         stop-color="#29b6ff"
         offset="0" />
      <stop
         id="stop2489"
         stop-color="#035492"
         offset="1" />
    </radialGradient>
    <radialGradient
       gradientTransform="matrix(0.25,0,0,0.25,10,10)"
       r="64"
       cy="0"
       cx="0"
       gradientUnits="userSpaceOnUse"
       id="radialGradient2491">
      <stop
         id="stop29"
         stop-color="#9ff699"
         offset="0" />
      <stop
         id="stop2494"
         stop-color="#049a43"
         offset="1" />
    </radialGradient>
    <linearGradient
       y2="40.080002"
       x2="30.459999"
       y1="31.34"
       x1="17.049999"
       gradientUnits="userSpaceOnUse"
       id="linearGradient2497">
      <stop
         id="stop38"
         stop-color="#56ff22"
         offset="0" />
      <stop
         id="stop2500"
         stop-color="#05d005"
         offset="1" />
    </linearGradient>
  </g>
  <g
     id="g2458"
     transform="translate(0.7174464,-0.575107)">
    <linearGradient
       y2="-5.4099998"
       x2="74.970001"
       y1="-10.23"
       x1="55.689999"
       gradientUnits="userSpaceOnUse"
       id="linearGradient2460">
      <stop
         id="stop2462"
         stop-color="#5c5c5c"
         offset="0" />
      <stop
         id="stop2464"
         stop-color="#838383"
         offset="1" />
    </linearGradient>
    <radialGradient
       gradientTransform="matrix(0.25,0,0,0.25,10,10)"
       r="64"
       cy="0"
       cx="0"
       gradientUnits="userSpaceOnUse"
       id="radialGradient2466">
      <stop
         id="stop2468"
         stop-color="#29b6ff"
         offset="0" />
      <stop
         id="stop2470"
         stop-color="#035492"
         offset="1" />
    </radialGradient>
    <radialGradient
       gradientTransform="matrix(0.25,0,0,0.25,10,10)"
       r="64"
       cy="0"
       cx="0"
       gradientUnits="userSpaceOnUse"
       id="radialGradient2472">
      <stop
         id="stop2474"
         stop-color="#9ff699"
         offset="0" />
      <stop
         id="stop2476"
         stop-color="#049a43"
         offset="1" />
    </radialGradient>
    <path
       id="path35"
       d="M 10,48 C 6.68,48 3.99,50.68 3.99,54 C 3.99,57.31 6.68,60 10,60 C 13.31,60 16,57.31 16,54 C 16,53.513767 15.942301,53.041262 15.833407,52.588892 C 15.19877,49.952482 12.825232,48 10,48 z"
       style="fill:none;stroke:#000000;stroke-width:8"
       sodipodi:nodetypes="cssssc" />
    <linearGradient
       y2="40.080002"
       x2="30.459999"
       y1="31.34"
       x1="17.049999"
       gradientUnits="userSpaceOnUse"
       id="linearGradient2479">
      <stop
         id="stop2481"
         stop-color="#56ff22"
         offset="0" />
      <stop
         id="stop2483"
         stop-color="#05d005"
         offset="1" />
    </linearGradient>
    <path
       id="path42"
       d="M 10,48 C 6.68,48 3.99,50.68 3.99,54 C 3.99,57.31 6.68,60 10,60 C 13.31,60 16,57.31 16,54 C 16,50.68 13.31,48 10,48 z"
       style="fill:url(#linearGradient2486);fill-opacity:1" />
    <g
       id="layer2"
       inkscape:label="arrow"
       transform="matrix(-0.94342183,-0.33159502,0.33159502,-0.94342183,53.476861,35.342089)">
      <path
         sodipodi:nodetypes="cccccccc"
         id="path8643"
         d="m 21.02159,20.989431 6.967801,0 0,-4.924447 3.010609,0 L 24.553756,8 l -7.118134,7.986875 3.588062,0 -0.0021,5.002556 z"
         style="color:#000000;fill:#a7a7a7;fill-opacity:1;fill-rule:evenodd;stroke:none;stroke-width:0.99999958;marker:none;visibility:visible;display:inline;overflow:visible" />
    </g>
  </g>
</svg>
