<?xml version="1.0" encoding="UTF-8" standalone="no"?>
<svg
   xmlns:dc="http://purl.org/dc/elements/1.1/"
   xmlns:cc="http://creativecommons.org/ns#"
   xmlns:rdf="http://www.w3.org/1999/02/22-rdf-syntax-ns#"
   xmlns:svg="http://www.w3.org/2000/svg"
   xmlns="http://www.w3.org/2000/svg"
   xmlns:sodipodi="http://sodipodi.sourceforge.net/DTD/sodipodi-0.dtd"
   xmlns:inkscape="http://www.inkscape.org/namespaces/inkscape"
   version="1.1"
   width="64"
   height="64"
   color-interpolation="linearRGB"
   id="svg2"
   sodipodi:version="0.32"
   inkscape:version="0.91 r13725"
   sodipodi:docname="printer-error.svg"
   inkscape:output_extension="org.inkscape.output.svg.inkscape">
  <metadata
     id="metadata83">
    <rdf:RDF>
      <cc:Work
         rdf:about="">
        <dc:format>image/svg+xml</dc:format>
        <dc:type
           rdf:resource="http://purl.org/dc/dcmitype/StillImage" />
      </cc:Work>
    </rdf:RDF>
  </metadata>
  <defs
     id="defs81">
    <inkscape:perspective
       sodipodi:type="inkscape:persp3d"
       inkscape:vp_x="0 : 32 : 1"
       inkscape:vp_y="0 : 1000 : 0"
       inkscape:vp_z="64 : 32 : 1"
       inkscape:persp3d-origin="32 : 21.333333 : 1"
       id="perspective85" />
    <inkscape:perspective
       id="perspective49"
       inkscape:persp3d-origin="32 : 21.333333 : 1"
       inkscape:vp_z="64 : 32 : 1"
       inkscape:vp_y="0 : 1000 : 0"
       inkscape:vp_x="0 : 32 : 1"
       sodipodi:type="inkscape:persp3d" />
    <inkscape:perspective
       id="perspective2456"
       inkscape:persp3d-origin="32 : 21.333333 : 1"
       inkscape:vp_z="64 : 32 : 1"
       inkscape:vp_y="0 : 1000 : 0"
       inkscape:vp_x="0 : 32 : 1"
       sodipodi:type="inkscape:persp3d" />
  </defs>
  <sodipodi:namedview
     inkscape:window-height="1016"
     inkscape:window-width="1920"
     inkscape:pageshadow="2"
     inkscape:pageopacity="0.0"
     guidetolerance="10.0"
     gridtolerance="10.0"
     objecttolerance="10.0"
     borderopacity="1.0"
     bordercolor="#666666"
     pagecolor="#ffffff"
     id="base"
     showgrid="false"
     inkscape:zoom="5.5107117"
     inkscape:cx="37.279121"
     inkscape:cy="9.2697365"
     inkscape:window-x="0"
     inkscape:window-y="30"
     inkscape:current-layer="svg2"
     inkscape:window-maximized="1" />
  <g
     id="g4">
    <path
       style="fill:#010000; fill-opacity:0.4509"
       d="M26 63C26 63 38 56 40 60C44 62 50 58 54 54L64 44L56 40H26V63z"
       id="path6" />
    <path
       style="fill:none; stroke:#000000; stroke-width:4"
       d="M16 14C5 23 2 26 2 40L38 58C38 58 40 59 42 57L56 43V33C56 33 56 31 55 30C54 29 52 28 52 28L16 14z            M2 49L26 62C26 62 28 56 34 52V50L11.24 38.61C5 42 2 49 2 49z            M52 10L28 2L21 17V18L44 27V26L52 10z"
       id="path8" />
    <linearGradient
       id="gradient0"
       gradientUnits="userSpaceOnUse"
       x1="-8.09"
       y1="65.12"
       x2="-14.95"
       y2="33.36">
      <stop
         offset="0"
         stop-color="#aeaeae"
         id="stop11" />
      <stop
         offset="1"
         stop-color="#e1e1e1"
         id="stop13" />
    </linearGradient>
    <path
       style="fill:url(#gradient0)"
       d="M48 26L46 28L18 17L20 15L16 14C5 23 2 26 2 40L38 58C38 44 42 38 52 28L48 26z"
       id="path15" />
    <path
       style="fill:none; stroke:#000000; stroke-width:2"
       d="M6 40L34 54V50L6 36V40z"
       id="path17" />
    <path
       style="fill:#383838"
       d="M6 40L34 54V50L6 36V40z"
       id="path19" />
    <linearGradient
       id="gradient1"
       gradientUnits="userSpaceOnUse"
       x1="13.56"
       y1="56.53"
       x2="19.96"
       y2="43.73">
      <stop
         offset="0"
         stop-color="#ffffff"
         id="stop22" />
      <stop
         offset="0.749"
         stop-color="#e5e5e5"
         id="stop24" />
      <stop
         offset="1"
         stop-color="#9b9b9b"
         id="stop26" />
    </linearGradient>
    <path
       style="fill:url(#gradient1)"
       d="M2 49L26 62C26 62 28 56 34 52V50L11.24 38.61C5 42 2 49 2 49z"
       id="path28" />
    <linearGradient
       id="gradient2"
       gradientUnits="userSpaceOnUse"
       x1="28.55"
       y1="21.21"
       x2="34.1"
       y2="8.58">
      <stop
         offset="0"
         stop-color="#535353"
         id="stop31" />
      <stop
         offset="0.2745"
         stop-color="#b5b5b5"
         id="stop33" />
      <stop
         offset="1"
         stop-color="#ffffff"
         id="stop35" />
    </linearGradient>
    <path
       style="fill:url(#gradient2)"
       d="M52 10L28 2L21 17V18L44 27V26L52 10z"
       id="path37" />
    <linearGradient
       id="gradient3"
       gradientUnits="userSpaceOnUse"
       x1="45.88"
       y1="35.61"
       x2="42.88"
       y2="54.61">
      <stop
         offset="0.0039"
         stop-color="#c0c0c0"
         id="stop40" />
      <stop
         offset="1"
         stop-color="#9a9a9a"
         id="stop42" />
    </linearGradient>
    <path
       style="fill:url(#gradient3)"
       d="M55 30C54 29 52 28 52 28C42 38 38 44 38 58C38 58 40 59 42 57L56 43V33C56 33 56 31 55 30z"
       id="path44" />
    <radialGradient
       id="gradient4"
       gradientUnits="userSpaceOnUse"
       cx="0"
       cy="0"
       r="64"
       gradientTransform="matrix(0.165,0.118,-0.269,0.3761,44.6696,44.5417)">
      <stop
         offset="0.0039"
         stop-color="#838383"
         id="stop47" />
      <stop
         offset="1"
         stop-color="#adadad"
         id="stop49" />
    </radialGradient>
    <path
       style="fill:url(#gradient4)"
       d="M42 57L56 43V33L54 31C46 39 42 47 42 57z"
       id="path51" />
    <radialGradient
       id="gradient5"
       gradientUnits="userSpaceOnUse"
       cx="0"
       cy="0"
       r="64"
       gradientTransform="matrix(0.0312,0,0,0.0468,33,43)">
      <stop
         offset="0"
         stop-color="#ffe3e3"
         id="stop54" />
      <stop
         offset="1"
         stop-color="#dd0505"
         id="stop56" />
    </radialGradient>
    <path
       style="fill:url(#gradient5)"
       d="M32 42C34 40 37 43 35 45C33 47 30 44 32 42z"
       transform="matrix(1,0,0,1,5,-4)"
       id="path58" />
    <radialGradient
       id="gradient6"
       gradientUnits="userSpaceOnUse"
       cx="0"
       cy="0"
       r="64"
       gradientTransform="matrix(0.0312,0,0,0.0468,33,43)">
      <stop
         offset="0"
         stop-color="#35ff06"
         id="stop61" />
      <stop
         offset="0.9843"
         stop-color="#1e9303"
         id="stop63" />
    </radialGradient>
    <path
       style="fill:url(#gradient6)"
       d="M32 42C34 40 37 43 35 45C33 47 30 44 32 42z"
       transform="matrix(1,0,0,1,2,1)"
       id="path65" />
    <path
       style="fill:none; stroke:#000000; stroke-width:1"
       d="M8 48L24 56"
       transform="matrix(1,0,0,1,4,-4)"
       id="path67" />
    <path
       style="fill:none; stroke:#000000; stroke-width:1"
       d="M8 48L24 56"
       transform="matrix(1,0,0,1,2,-2)"
       id="path69" />
    <path
       style="fill:none; stroke:#000000; stroke-width:1"
       d="M8 48L24 56"
       id="path71" />
    <radialGradient
       id="gradient7"
       gradientUnits="userSpaceOnUse"
       cx="0"
       cy="0"
       r="64"
       gradientTransform="matrix(0.5295,-0.3272,0.1957,0.3167,17.1527,18.9224)">
      <stop
         offset="0"
         stop-color="#909090"
         id="stop74" />
      <stop
         offset="1"
         stop-color="#3c3c3c"
         id="stop76" />
    </radialGradient>
    <path
       style="fill:url(#gradient7)"
       d="M18 19L43 30C37 30 36 46 21 39C6 32 11 19 18 19z"
       id="path78" />
  </g>
  <g
     style="color-interpolation:linearRGB"
     id="g7578"
     transform="matrix(0.66606086,0,0,0.66606086,-0.83192979,22.606242)">
    <g
       id="g7521">
      <path
         id="path7523"
         d="m 55,64 8,-8 -8,-4 -15,2 -4,4 4,4 15,2 z M 28,52 c -6.63,0 -12,2.68 -12,6 0,3.31 5.37,6 12,6 6.62,0 12,-2.69 12,-6 0,-3.32 -5.38,-6 -12,-6 z"
         style="fill:#010101;fill-opacity:0.46660001"
         inkscape:connector-curvature="0" />
      <path
         id="path7525"
         d="m 24,40 c -5.53,0 -10,4.47 -10,10 0,5.52 4.47,10 10,10 5.52,0 10,-4.48 10,-10 0,-5.53 -4.48,-10 -10,-10 z"
         style="fill:none;stroke:#000000;stroke-width:4"
         inkscape:connector-curvature="0" />
      <radialGradient
         gradientTransform="matrix(0.2281,0,0,0.2281,20.7999,47)"
         r="64"
         cy="0"
         cx="0"
         gradientUnits="userSpaceOnUse"
         id="gradient0-3">
        <stop
           id="stop7528"
           stop-color="#ffffff"
           offset="0" />
        <stop
           id="stop7530"
           stop-color="#ff3930"
           offset="0.25" />
        <stop
           id="stop7532"
           stop-color="#bf0000"
           offset="1" />
        <stop
           id="stop7534"
           stop-color="#800000"
           offset="0.8152" />
      </radialGradient>
      <path
         id="path7536"
         d="m 24,40 c -5.53,0 -10,4.47 -10,10 0.01,5.52 4.47,10 10,10 5.52,0 10,-4.48 10,-10 -2,2 -8,-1 -12,-3 0,0 0,-3 2,-7 z"
         style="fill:url(#gradient0-3)"
         inkscape:connector-curvature="0" />
      <radialGradient
         gradientTransform="matrix(0.2281,0,0,0.2281,20.7999,47)"
         r="64"
         cy="0"
         cx="0"
         gradientUnits="userSpaceOnUse"
         id="gradient1-6">
        <stop
           id="stop7539"
           stop-color="#ff756e"
           offset="0" />
        <stop
           id="stop7541"
           stop-color="#d50f05"
           offset="0.3007" />
        <stop
           id="stop7543"
           stop-color="#bf0000"
           offset="1" />
        <stop
           id="stop7545"
           stop-color="#800000"
           offset="0.8152" />
      </radialGradient>
      <path
         id="path7547"
         d="m 24,40 c -2,4 -2,7 -2,7 4,2 10,5 12,3 0,-5.53 -4.48,-10 -10,-10 z"
         style="fill:url(#gradient1-6)"
         inkscape:connector-curvature="0" />
      <path
         id="path7549"
         d="M 21,2 10,8 21,43 29,35 38,6 21,2 Z"
         style="fill:none;stroke:#000000;stroke-width:4"
         inkscape:connector-curvature="0" />
      <linearGradient
         y2="-10.2"
         x2="76.040001"
         y1="-28.459999"
         x1="60.240002"
         gradientUnits="userSpaceOnUse"
         id="gradient2-7">
        <stop
           id="stop7552"
           stop-color="#ff6159"
           offset="0" />
        <stop
           id="stop7554"
           stop-color="#e40000"
           offset="1" />
      </linearGradient>
      <path
         id="path7556"
         d="M 10,8 21,43 28,13 10,8 Z"
         style="fill:url(#gradient2-7)"
         inkscape:connector-curvature="0" />
      <linearGradient
         y2="-20.34"
         x2="56.59"
         y1="-23.389999"
         x1="50.369999"
         gradientUnits="userSpaceOnUse"
         id="gradient3-5">
        <stop
           id="stop7559"
           stop-color="#800000"
           offset="0" />
        <stop
           id="stop7561"
           stop-color="#a00404"
           offset="1" />
      </linearGradient>
      <path
         id="path7563"
         d="M 28,13 21,43 29,35 38,6 28,13 Z"
         style="fill:url(#gradient3-5)"
         inkscape:connector-curvature="0" />
      <linearGradient
         y2="-20"
         x2="36"
         y1="-20"
         x1="12"
         gradientUnits="userSpaceOnUse"
         id="gradient4-3">
        <stop
           id="stop7566"
           stop-color="#ffc6c0"
           offset="0" />
        <stop
           id="stop7568"
           stop-color="#ff7575"
           offset="1" />
      </linearGradient>
      <path
         id="path7570"
         d="M 21,2 10,8 28,13 38,6 21,2 Z"
         style="fill:url(#gradient4-3)"
         inkscape:connector-curvature="0" />
    </g>
  </g>
</svg>
