<?xml version="1.0" encoding="UTF-8" standalone="no"?>
<svg
   xmlns:dc="http://purl.org/dc/elements/1.1/"
   xmlns:cc="http://creativecommons.org/ns#"
   xmlns:rdf="http://www.w3.org/1999/02/22-rdf-syntax-ns#"
   xmlns:svg="http://www.w3.org/2000/svg"
   xmlns="http://www.w3.org/2000/svg"
   xmlns:sodipodi="http://sodipodi.sourceforge.net/DTD/sodipodi-0.dtd"
   xmlns:inkscape="http://www.inkscape.org/namespaces/inkscape"
   version="1.1"
   width="64"
   height="64"
   color-interpolation="linearRGB"
   id="svg2"
   sodipodi:version="0.32"
   inkscape:version="0.91 r13725"
   sodipodi:docname="printer-warning.svg"
   inkscape:output_extension="org.inkscape.output.svg.inkscape">
  <metadata
     id="metadata83">
    <rdf:RDF>
      <cc:Work
         rdf:about="">
        <dc:format>image/svg+xml</dc:format>
        <dc:type
           rdf:resource="http://purl.org/dc/dcmitype/StillImage" />
        <dc:title></dc:title>
      </cc:Work>
    </rdf:RDF>
  </metadata>
  <defs
     id="defs81">
    <inkscape:perspective
       sodipodi:type="inkscape:persp3d"
       inkscape:vp_x="0 : 32 : 1"
       inkscape:vp_y="0 : 1000 : 0"
       inkscape:vp_z="64 : 32 : 1"
       inkscape:persp3d-origin="32 : 21.333333 : 1"
       id="perspective85" />
    <inkscape:perspective
       id="perspective49"
       inkscape:persp3d-origin="32 : 21.333333 : 1"
       inkscape:vp_z="64 : 32 : 1"
       inkscape:vp_y="0 : 1000 : 0"
       inkscape:vp_x="0 : 32 : 1"
       sodipodi:type="inkscape:persp3d" />
    <inkscape:perspective
       id="perspective2456"
       inkscape:persp3d-origin="32 : 21.333333 : 1"
       inkscape:vp_z="64 : 32 : 1"
       inkscape:vp_y="0 : 1000 : 0"
       inkscape:vp_x="0 : 32 : 1"
       sodipodi:type="inkscape:persp3d" />
  </defs>
  <sodipodi:namedview
     inkscape:window-height="1016"
     inkscape:window-width="1920"
     inkscape:pageshadow="2"
     inkscape:pageopacity="0.0"
     guidetolerance="10.0"
     gridtolerance="10.0"
     objecttolerance="10.0"
     borderopacity="1.0"
     bordercolor="#666666"
     pagecolor="#ffffff"
     id="base"
     showgrid="false"
     inkscape:zoom="5.5107117"
     inkscape:cx="37.279121"
     inkscape:cy="9.2697365"
     inkscape:window-x="0"
     inkscape:window-y="30"
     inkscape:current-layer="svg2"
     inkscape:window-maximized="1" />
  <g
     id="g4">
    <path
       style="fill:#010000; fill-opacity:0.4509"
       d="M26 63C26 63 38 56 40 60C44 62 50 58 54 54L64 44L56 40H26V63z"
       id="path6" />
    <path
       style="fill:none; stroke:#000000; stroke-width:4"
       d="M16 14C5 23 2 26 2 40L38 58C38 58 40 59 42 57L56 43V33C56 33 56 31 55 30C54 29 52 28 52 28L16 14z            M2 49L26 62C26 62 28 56 34 52V50L11.24 38.61C5 42 2 49 2 49z            M52 10L28 2L21 17V18L44 27V26L52 10z"
       id="path8" />
    <linearGradient
       id="gradient0"
       gradientUnits="userSpaceOnUse"
       x1="-8.09"
       y1="65.12"
       x2="-14.95"
       y2="33.36">
      <stop
         offset="0"
         stop-color="#aeaeae"
         id="stop11" />
      <stop
         offset="1"
         stop-color="#e1e1e1"
         id="stop13" />
    </linearGradient>
    <path
       style="fill:url(#gradient0)"
       d="M48 26L46 28L18 17L20 15L16 14C5 23 2 26 2 40L38 58C38 44 42 38 52 28L48 26z"
       id="path15" />
    <path
       style="fill:none; stroke:#000000; stroke-width:2"
       d="M6 40L34 54V50L6 36V40z"
       id="path17" />
    <path
       style="fill:#383838"
       d="M6 40L34 54V50L6 36V40z"
       id="path19" />
    <linearGradient
       id="gradient1"
       gradientUnits="userSpaceOnUse"
       x1="13.56"
       y1="56.53"
       x2="19.96"
       y2="43.73">
      <stop
         offset="0"
         stop-color="#ffffff"
         id="stop22" />
      <stop
         offset="0.749"
         stop-color="#e5e5e5"
         id="stop24" />
      <stop
         offset="1"
         stop-color="#9b9b9b"
         id="stop26" />
    </linearGradient>
    <path
       style="fill:url(#gradient1)"
       d="M2 49L26 62C26 62 28 56 34 52V50L11.24 38.61C5 42 2 49 2 49z"
       id="path28" />
    <linearGradient
       id="gradient2"
       gradientUnits="userSpaceOnUse"
       x1="28.55"
       y1="21.21"
       x2="34.1"
       y2="8.58">
      <stop
         offset="0"
         stop-color="#535353"
         id="stop31" />
      <stop
         offset="0.2745"
         stop-color="#b5b5b5"
         id="stop33" />
      <stop
         offset="1"
         stop-color="#ffffff"
         id="stop35" />
    </linearGradient>
    <path
       style="fill:url(#gradient2)"
       d="M52 10L28 2L21 17V18L44 27V26L52 10z"
       id="path37" />
    <linearGradient
       id="gradient3"
       gradientUnits="userSpaceOnUse"
       x1="45.88"
       y1="35.61"
       x2="42.88"
       y2="54.61">
      <stop
         offset="0.0039"
         stop-color="#c0c0c0"
         id="stop40" />
      <stop
         offset="1"
         stop-color="#9a9a9a"
         id="stop42" />
    </linearGradient>
    <path
       style="fill:url(#gradient3)"
       d="M55 30C54 29 52 28 52 28C42 38 38 44 38 58C38 58 40 59 42 57L56 43V33C56 33 56 31 55 30z"
       id="path44" />
    <radialGradient
       id="gradient4"
       gradientUnits="userSpaceOnUse"
       cx="0"
       cy="0"
       r="64"
       gradientTransform="matrix(0.165,0.118,-0.269,0.3761,44.6696,44.5417)">
      <stop
         offset="0.0039"
         stop-color="#838383"
         id="stop47" />
      <stop
         offset="1"
         stop-color="#adadad"
         id="stop49" />
    </radialGradient>
    <path
       style="fill:url(#gradient4)"
       d="M42 57L56 43V33L54 31C46 39 42 47 42 57z"
       id="path51" />
    <radialGradient
       id="gradient5"
       gradientUnits="userSpaceOnUse"
       cx="0"
       cy="0"
       r="64"
       gradientTransform="matrix(0.0312,0,0,0.0468,33,43)">
      <stop
         offset="0"
         stop-color="#ffe3e3"
         id="stop54" />
      <stop
         offset="1"
         stop-color="#dd0505"
         id="stop56" />
    </radialGradient>
    <path
       style="fill:url(#gradient5)"
       d="M32 42C34 40 37 43 35 45C33 47 30 44 32 42z"
       transform="matrix(1,0,0,1,5,-4)"
       id="path58" />
    <radialGradient
       id="gradient6"
       gradientUnits="userSpaceOnUse"
       cx="0"
       cy="0"
       r="64"
       gradientTransform="matrix(0.0312,0,0,0.0468,33,43)">
      <stop
         offset="0"
         stop-color="#35ff06"
         id="stop61" />
      <stop
         offset="0.9843"
         stop-color="#1e9303"
         id="stop63" />
    </radialGradient>
    <path
       style="fill:url(#gradient6)"
       d="M32 42C34 40 37 43 35 45C33 47 30 44 32 42z"
       transform="matrix(1,0,0,1,2,1)"
       id="path65" />
    <path
       style="fill:none; stroke:#000000; stroke-width:1"
       d="M8 48L24 56"
       transform="matrix(1,0,0,1,4,-4)"
       id="path67" />
    <path
       style="fill:none; stroke:#000000; stroke-width:1"
       d="M8 48L24 56"
       transform="matrix(1,0,0,1,2,-2)"
       id="path69" />
    <path
       style="fill:none; stroke:#000000; stroke-width:1"
       d="M8 48L24 56"
       id="path71" />
    <radialGradient
       id="gradient7"
       gradientUnits="userSpaceOnUse"
       cx="0"
       cy="0"
       r="64"
       gradientTransform="matrix(0.5295,-0.3272,0.1957,0.3167,17.1527,18.9224)">
      <stop
         offset="0"
         stop-color="#909090"
         id="stop74" />
      <stop
         offset="1"
         stop-color="#3c3c3c"
         id="stop76" />
    </radialGradient>
    <path
       style="fill:url(#gradient7)"
       d="M18 19L43 30C37 30 36 46 21 39C6 32 11 19 18 19z"
       id="path78" />
  </g>
  <g
     style="color-interpolation:linearRGB"
     id="g7652"
     transform="matrix(0.66948434,0,0,0.66948434,-1.759253,22.629349)">
    <g
       id="g7610">
      <path
         id="path7612"
         d="m 30,62 6,0 2,-2 4,2 14,0 8,-10 -10,-4 -10,0 -1,1 -3,-1 -2,0 -8,14 z"
         style="fill:#010101;fill-opacity:0.45489999"
         inkscape:connector-curvature="0" />
      <path
         id="path7614"
         d="m 14,41 0,11 16,8 8,-8 0,-11 -16,-6 -8,6 z"
         style="fill:none;stroke:#000000;stroke-width:4"
         inkscape:connector-curvature="0" />
      <linearGradient
         y2="65.650002"
         x2="49.669998"
         y1="56.150002"
         x1="56.220001"
         gradientUnits="userSpaceOnUse"
         id="gradient0-5">
        <stop
           id="stop7617"
           stop-color="#e07900"
           offset="0" />
        <stop
           id="stop7619"
           stop-color="#fff289"
           offset="1" />
      </linearGradient>
      <path
         id="path7621"
         d="m 14,41 16,7 8,-7 -16,-6 -8,6 z"
         style="fill:url(#gradient0-5)"
         inkscape:connector-curvature="0" />
      <path
         id="path7623"
         d="m 14,6 0,28 16,7 8,-6 L 38,6 22,2 14,6 Z"
         style="fill:none;stroke:#000000;stroke-width:4"
         inkscape:connector-curvature="0" />
      <linearGradient
         y2="-13.84"
         x2="51.299999"
         y1="-24.129999"
         x1="24.32"
         gradientUnits="userSpaceOnUse"
         id="gradient1-62">
        <stop
           id="stop7626"
           stop-color="#fff49e"
           offset="0" />
        <stop
           id="stop7628"
           stop-color="#ffbd30"
           offset="1" />
      </linearGradient>
      <path
         id="path7630"
         d="m 14,6 0,28 16,7 0,-30 -16,-5 z m 0,35 0,11 16,8 0,-12 -16,-7 z"
         style="fill:url(#gradient1-62)"
         inkscape:connector-curvature="0" />
      <linearGradient
         y2="-9.1300001"
         x2="56.009998"
         y1="-22.809999"
         x1="30.5"
         gradientUnits="userSpaceOnUse"
         id="gradient2-9">
        <stop
           id="stop7633"
           stop-color="#ffffff"
           offset="0" />
        <stop
           id="stop7635"
           stop-color="#fff289"
           offset="1" />
      </linearGradient>
      <path
         id="path7637"
         d="M 14,6 30,11 38,6 22,2 14,6 Z"
         style="fill:url(#gradient2-9)"
         inkscape:connector-curvature="0" />
      <linearGradient
         y2="0.74000001"
         x2="46.77"
         y1="-0.68000001"
         x1="33.299999"
         gradientUnits="userSpaceOnUse"
         id="gradient3-1">
        <stop
           id="stop7640"
           stop-color="#ed9406"
           offset="0" />
        <stop
           id="stop7642"
           stop-color="#fcb23d"
           offset="1" />
      </linearGradient>
      <path
         id="path7644"
         d="m 30,11 0,30 8,-6 0,-29 -8,5 z m 0,37 0,12 8,-8 0,-11 -8,7 z"
         style="fill:url(#gradient3-1)"
         inkscape:connector-curvature="0" />
    </g>
  </g>
</svg>
