<?xml version="1.0" encoding="UTF-8" standalone="no"?>
<!-- Created with Inkscape (http://www.inkscape.org/) -->
<svg
   xmlns:dc="http://purl.org/dc/elements/1.1/"
   xmlns:cc="http://web.resource.org/cc/"
   xmlns:rdf="http://www.w3.org/1999/02/22-rdf-syntax-ns#"
   xmlns:svg="http://www.w3.org/2000/svg"
   xmlns="http://www.w3.org/2000/svg"
   xmlns:xlink="http://www.w3.org/1999/xlink"
   xmlns:sodipodi="http://sodipodi.sourceforge.net/DTD/sodipodi-0.dtd"
   xmlns:inkscape="http://www.inkscape.org/namespaces/inkscape"
   width="250"
   height="60"
   id="svg2"
   sodipodi:version="0.32"
   inkscape:version="0.45.1"
   version="1.0"
   sodipodi:docbase="/home/tbn/Desktop"
   sodipodi:docname="Pulse Audio Logo.svg"
   inkscape:output_extension="org.inkscape.output.svg.inkscape">
  <defs
     id="defs4">
    <linearGradient
       id="linearGradient3170">
      <stop
         style="stop-color:#ffffff;stop-opacity:1;"
         offset="0"
         id="stop3172" />
      <stop
         style="stop-color:#ffffff;stop-opacity:0;"
         offset="1"
         id="stop3174" />
    </linearGradient>
    <linearGradient
       inkscape:collect="always"
       xlink:href="#linearGradient3170"
       id="linearGradient3176"
       x1="35.107143"
       y1="2.165477"
       x2="35.089287"
       y2="27.362183"
       gradientUnits="userSpaceOnUse"
       gradientTransform="matrix(0.6947239,0,0,0.6947239,1.8316563,1.942222)" />
    <linearGradient
       inkscape:collect="always"
       xlink:href="#linearGradient3170"
       id="linearGradient3178"
       gradientUnits="userSpaceOnUse"
       x1="35.82143"
       y1="112.52262"
       x2="35.803574"
       y2="14.362183"
       gradientTransform="matrix(0.6947239,0,0,0.6947239,1.8316563,1.942222)" />
    <linearGradient
       inkscape:collect="always"
       xlink:href="#linearGradient3170"
       id="linearGradient3187"
       gradientUnits="userSpaceOnUse"
       x1="-23.398762"
       y1="-30.413963"
       x2="60.678581"
       y2="66.38504"
       gradientTransform="matrix(0.6947239,0,0,0.6947239,1.8316563,1.942222)" />
  </defs>
  <sodipodi:namedview
     id="base"
     pagecolor="#ffffff"
     bordercolor="#666666"
     borderopacity="1.0"
     inkscape:pageopacity="0.0"
     inkscape:pageshadow="2"
     inkscape:zoom="1.979899"
     inkscape:cx="196.32008"
     inkscape:cy="116.22504"
     inkscape:document-units="px"
     inkscape:current-layer="layer2"
     showgrid="true"
     inkscape:grid-points="true"
     gridtolerance="2"
     width="250px"
     height="60px"
     inkscape:window-width="975"
     inkscape:window-height="967"
     inkscape:window-x="0"
     inkscape:window-y="27" />
  <metadata
     id="metadata7">
    <rdf:RDF>
      <cc:Work
         rdf:about="">
        <dc:format>image/svg+xml</dc:format>
        <dc:type
           rdf:resource="http://purl.org/dc/dcmitype/StillImage" />
      </cc:Work>
    </rdf:RDF>
  </metadata>
  <g
     inkscape:groupmode="layer"
     id="layer2"
     style="opacity:1;display:inline">
    <path
       style="font-size:47.72826004px"
       d="M 63.651541,24.636012 L 73.182235,24.636012 C 76.016071,24.636037 78.188688,25.38004 79.700093,26.86802 C 81.221404,28.344332 81.982073,30.453314 81.982092,33.194974 C 81.982073,35.948386 81.221404,38.069085 79.700093,39.557078 C 78.188688,41.033378 76.016071,41.771521 73.182235,41.771512 L 69.393823,41.771512 L 69.393823,50.875296 L 63.651541,50.875296 L 63.651541,24.636012 M 69.393823,29.539401 L 69.393823,36.868123 L 72.570717,36.868123 C 73.684357,36.868137 74.544455,36.55179 75.151013,35.91908 C 75.757544,35.274683 76.060813,34.366649 76.060833,33.194974 C 76.060813,32.023335 75.757544,31.121159 75.151013,30.488444 C 74.544455,29.855769 73.684357,29.539422 72.570717,29.539401 L 69.393823,29.539401 M 85.60644,43.212652 L 85.60644,31.191439 L 90.975842,31.191439 L 90.975842,33.159825 C 90.975836,34.22605 90.970863,35.567598 90.960931,37.18447 C 90.950979,38.789655 90.946006,39.861721 90.946012,40.400672 C 90.946006,41.982419 90.980809,43.124785 91.050421,43.827772 C 91.120015,44.519057 91.239336,45.022869 91.408378,45.339211 C 91.627123,45.749297 91.910507,46.065644 92.258537,46.288254 C 92.616488,46.510874 93.024166,46.622181 93.481565,46.622177 C 94.595211,46.622181 95.470222,46.118368 96.106609,45.110738 C 96.742971,44.103119 97.061159,42.702989 97.061171,40.910344 L 97.061171,31.191439 L 102.40074,31.191439 L 102.40074,50.875296 L 97.061171,50.875296 L 97.061171,48.028167 C 96.255748,49.176393 95.400622,50.025845 94.495788,50.576524 C 93.600874,51.115486 92.611515,51.384967 91.527699,51.384967 C 89.598684,51.384967 88.127075,50.687831 87.112859,49.293557 C 86.108575,47.899288 85.60644,45.87232 85.60644,43.212652 M 112.29276,23.730281 L 112.29276,45.961447 C 112.29276,46.656171 112.98749,47.350895 113.68221,47.350895 L 113.68221,51.519239 C 108.81915,51.519239 107.42969,49.435067 107.42969,45.961447 L 107.42969,23.730281 M 131.11214,31.80656 L 131.11214,36.586924 C 129.96864,36.024544 128.86494,35.602747 127.80101,35.321534 C 126.73706,35.040352 125.73278,34.899753 124.78818,34.899737 C 123.77395,34.899753 123.01826,35.052068 122.52109,35.356683 C 122.03386,35.649613 121.79025,36.10656 121.79026,36.727524 C 121.79025,37.23135 121.9742,37.617997 122.34212,37.887466 C 122.71995,38.156959 123.39113,38.356141 124.35564,38.485011 L 125.29529,38.643185 C 128.02969,39.053277 129.86921,39.72698 130.81384,40.664295 C 131.75845,41.601631 132.23075,43.07206 132.23077,45.075588 C 132.23075,47.17286 131.57449,48.748739 130.26199,49.803229 C 128.94945,50.857721 126.99061,51.384967 124.38547,51.384967 C 123.28176,51.384967 122.13827,51.279518 120.95502,51.06862 C 119.7817,50.869438 118.57358,50.564807 117.33067,50.154726 L 117.33067,45.374361 C 118.3946,45.983628 119.4834,46.440574 120.59706,46.745201 C 121.72065,47.049836 122.85916,47.202151 124.0126,47.202148 C 125.05664,47.202151 125.84216,47.032262 126.36917,46.692477 C 126.89616,46.3527 127.15965,45.848887 127.15966,45.181038 C 127.15965,44.618648 126.9757,44.202709 126.60781,43.933222 C 126.24984,43.65203 125.52894,43.435274 124.44514,43.282951 L 123.50549,43.142352 C 121.12902,42.790863 119.46351,42.140593 118.50896,41.191542 C 117.5544,40.242509 117.07712,38.801371 117.07712,36.868123 C 117.07712,34.782587 117.68366,33.236 118.89674,32.228356 C 120.10983,31.22075 121.96924,30.716937 124.47497,30.716917 C 125.45935,30.716937 126.49345,30.804812 127.57729,30.980541 C 128.6611,31.156309 129.83938,31.431648 131.11214,31.80656 M 152.93281,40.980643 L 152.93281,42.77328 L 140.44894,42.77328 C 140.57819,44.249576 141.03061,45.356792 141.80621,46.094931 C 142.58178,46.83308 143.6656,47.202151 145.05768,47.202148 C 146.18127,47.202151 147.32972,47.008828 148.50305,46.622177 C 149.68629,46.223818 150.89938,45.626273 152.14231,44.82954 L 152.14231,49.680205 C 150.87948,50.242601 149.61669,50.664398 148.3539,50.945596 C 147.09108,51.23851 145.82828,51.384967 144.56548,51.384967 C 141.5427,51.384967 139.1911,50.482791 137.51068,48.678437 C 135.8402,46.862371 135.00496,44.319876 135.00496,41.050942 C 135.00496,37.840612 135.82528,35.315691 137.46593,33.476172 C 139.11652,31.636689 141.3836,30.716937 144.26718,30.716917 C 146.89221,30.716937 148.99025,31.648405 150.56132,33.511322 C 152.14229,35.374274 152.93279,37.864045 152.93281,40.980643 M 147.44408,38.889233 C 147.44406,37.694155 147.14577,36.733396 146.54918,36.006954 C 145.96251,35.268825 145.1919,34.899753 144.23735,34.899737 C 143.20324,34.899753 142.36302,35.245392 141.71672,35.936654 C 141.07039,36.616231 140.66768,37.600422 140.5086,38.889233 L 147.44408,38.889233"
       id="text3139"
       sodipodi:nodetypes="cccsscccccccccssccccccssssssscccccccsccccccccccsssssccsssscccsssscccsssssccccssccccscscsccccsccc" />
    <path
       style="font-size:48.47242737px"
       d="M 166.02951,28.017392 L 161.70543,40.746554 L 170.36937,40.746554 L 166.02951,28.017392 M 164.23044,24.608101 L 167.84437,24.608101 L 176.82394,50.18635 L 173.50986,50.18635 L 171.3636,43.624749 L 160.74278,43.624749 L 158.59651,50.18635 L 155.2351,50.18635 L 164.23044,24.608101 M 179.82238,42.613954 L 179.82238,30.99838 L 182.72615,30.99838 L 182.72615,42.49403 C 182.72614,44.31004 183.05229,45.674897 183.70459,46.588605 C 184.35688,47.490899 185.33531,47.942044 186.63991,47.942042 C 188.20751,47.942044 189.44371,47.399528 190.34852,46.314492 C 191.26382,45.229462 191.72148,43.750391 191.7215,41.877274 L 191.7215,30.99838 L 194.62526,30.99838 L 194.62526,50.18635 L 191.7215,50.18635 L 191.7215,47.239626 C 191.01658,48.404612 190.19595,49.272638 189.25961,49.843707 C 188.33376,50.403356 187.25537,50.68318 186.02444,50.683181 C 183.9939,50.68318 182.4526,49.997896 181.40052,48.627327 C 180.34843,47.25676 179.82238,45.252305 179.82238,42.613954 M 212.26876,33.91084 L 212.26876,23.528778 L 215.17253,23.528778 L 215.17253,50.18635 L 212.26876,50.18635 L 212.26876,47.308154 C 211.65854,48.450297 210.88525,49.301191 209.94891,49.860839 C 209.02306,50.409067 207.90785,50.68318 206.60328,50.683181 C 204.46753,50.68318 202.72633,49.758047 201.37966,47.907778 C 200.0435,46.057514 199.37543,43.624756 199.37543,40.609497 C 199.37543,37.594257 200.0435,35.161499 201.37966,33.311216 C 202.72633,31.460966 204.46753,30.535832 206.60328,30.535813 C 207.90785,30.535832 209.02306,30.815657 209.94891,31.375287 C 210.88525,31.923533 211.65854,32.768716 212.26876,33.91084 M 202.37388,40.609497 C 202.37388,42.928051 202.81049,44.749763 203.68373,46.074642 C 204.56748,47.388107 205.77738,48.044837 207.31344,48.044835 C 208.84947,48.044837 210.05937,47.388107 210.94314,46.074642 C 211.82687,44.749763 212.26875,42.928051 212.26876,40.609497 C 212.26875,38.290963 211.82687,36.47496 210.94314,35.161484 C 210.05937,33.836617 208.84947,33.174176 207.31344,33.174158 C 205.77738,33.174176 204.56748,33.836617 203.68373,35.161484 C 202.81049,36.47496 202.37388,38.290963 202.37388,40.609497 M 221.15365,30.99838 L 224.05741,30.99838 L 224.05741,50.18635 L 221.15365,50.18635 L 221.15365,30.99838 M 221.15365,23.528778 L 224.05741,23.528778 L 224.05741,27.520561 L 221.15365,27.520561 L 221.15365,23.528778 M 236.96652,33.208423 C 235.40943,33.20844 234.17848,33.870881 233.2737,35.195748 C 232.36889,36.509225 231.9165,38.313805 231.9165,40.609497 C 231.9165,42.905207 232.36364,44.715499 233.25791,46.040378 C 234.1627,47.353843 235.3989,48.010573 236.96652,48.010571 C 238.51308,48.010573 239.73876,47.348132 240.64357,46.023245 C 241.54835,44.698367 242.00075,42.893786 242.00076,40.609497 C 242.00075,38.336648 241.54835,36.537777 240.64357,35.212881 C 239.73876,33.876592 238.51308,33.20844 236.96652,33.208423 M 236.96652,30.535813 C 239.49152,30.535832 241.4747,31.426701 242.91607,33.208423 C 244.35742,34.990178 245.0781,37.4572 245.07811,40.609497 C 245.0781,43.750391 244.35742,46.217413 242.91607,48.010571 C 241.4747,49.792311 239.49152,50.68318 236.96652,50.683181 C 234.43098,50.68318 232.44254,49.792311 231.00119,48.010571 C 229.57034,46.217413 228.85493,43.750391 228.85493,40.609497 C 228.85493,37.4572 229.57034,34.990178 231.00119,33.208423 C 232.44254,31.426701 234.43098,30.535832 236.96652,30.535813"
       id="text3146" />
    <path
       style="opacity:1;color:#000000;fill:#000000;fill-opacity:1;fill-rule:evenodd;stroke:none;stroke-width:0.40000001;stroke-linecap:butt;stroke-linejoin:miter;marker:none;marker-start:none;marker-mid:none;marker-end:none;stroke-miterlimit:4;stroke-dasharray:none;stroke-dashoffset:0;stroke-opacity:1;visibility:visible;display:inline;overflow:visible;enable-background:accumulate"
       d="M 6,14.69887 L 6,44.572 C 6,48.740343 8.7788958,52.908687 14.336687,52.908687 L 42.820369,52.908687 C 47.683437,52.908687 51.157056,49.435067 51.157056,45.266724 L 51.157056,14.69887 C 51.157056,9.8358026 47.683437,6.3621826 42.820369,6.3621826 L 14.336687,6.3621826 C 9.4736197,6.3621826 6,9.8358026 6,14.69887 z "
       id="path3150"
       sodipodi:nodetypes="ccccccccc" />
    <path
       sodipodi:type="arc"
       style="opacity:1;color:#000000;fill:#729fcf;fill-opacity:1;fill-rule:evenodd;stroke:none;stroke-width:1px;stroke-linecap:butt;stroke-linejoin:miter;marker:none;marker-start:none;marker-mid:none;marker-end:none;stroke-miterlimit:4;stroke-dasharray:none;stroke-dashoffset:0;stroke-opacity:1;visibility:visible;display:inline;overflow:visible;enable-background:accumulate"
       id="path3152"
       sodipodi:cx="40"
       sodipodi:cy="40.884579"
       sodipodi:rx="10"
       sodipodi:ry="8.5223951"
       d="M 50 40.884579 A 10 8.5223951 0 1 1  30,40.884579 A 10 8.5223951 0 1 1  50 40.884579 z"
       transform="matrix(0.6599877,0,0,0.7744158,2.2534547,-2.0262286)" />
    <path
       style="opacity:1;color:#000000;fill:#729fcf;fill-opacity:1;fill-rule:evenodd;stroke:none;stroke-width:1.02906489px;stroke-linecap:butt;stroke-linejoin:miter;marker:none;marker-start:none;marker-mid:none;marker-end:none;stroke-miterlimit:4;stroke-dasharray:none;stroke-dashoffset:0;stroke-opacity:1;visibility:visible;display:inline;overflow:visible;enable-background:accumulate"
       d="M 23.855024,17.725482 C 19.141477,19.631061 15.800568,24.250439 15.800568,29.644339 C 15.800568,35.03824 19.141477,39.635907 23.855024,41.541487 C 20.714946,39.246547 18.579464,34.78547 18.579464,29.644339 C 18.579464,24.503209 20.714946,20.020422 23.855024,17.725482 z M 33.450898,17.725482 C 36.590976,20.020422 38.726458,24.503208 38.726458,29.644339 C 38.726458,34.785471 36.590976,39.246547 33.450898,41.541487 C 38.164445,39.635907 41.505354,35.03824 41.505354,29.644339 C 41.505354,24.250439 38.164445,19.631061 33.450898,17.725482 z "
       id="path3154" />
    <path
       style="opacity:1;color:#000000;fill:#729fcf;fill-opacity:1;fill-rule:evenodd;stroke:none;stroke-width:1.02906489px;stroke-linecap:butt;stroke-linejoin:miter;marker:none;marker-start:none;marker-mid:none;marker-end:none;stroke-miterlimit:4;stroke-dasharray:none;stroke-dashoffset:0;stroke-opacity:1;visibility:visible;display:inline;overflow:visible;enable-background:accumulate"
       d="M 21.261544,10.530527 C 14.000134,13.58748 8.8533285,20.997939 8.8533285,29.650898 C 8.8533285,38.303857 14.000134,45.679488 21.261544,48.736442 C 16.424127,45.054872 13.13433,37.898361 13.13433,29.650898 C 13.13433,21.403436 16.424127,14.212096 21.261544,10.530527 z M 36.044378,10.530527 C 40.881795,14.212096 44.171592,21.403436 44.171592,29.650898 C 44.171592,37.898362 40.881795,45.054872 36.044378,48.736442 C 43.305788,45.679488 48.452593,38.303857 48.452593,29.650898 C 48.452593,20.997939 43.305788,13.58748 36.044378,10.530527 z "
       id="path3164" />
    <path
       style="opacity:1;color:#000000;fill:url(#linearGradient3178);fill-opacity:1;fill-rule:evenodd;stroke:none;stroke-width:0.40000001;stroke-linecap:butt;stroke-linejoin:miter;marker:none;marker-start:none;marker-mid:none;marker-end:none;stroke-miterlimit:4;stroke-dasharray:none;stroke-dashoffset:0;stroke-opacity:1;visibility:visible;display:inline;overflow:visible;enable-background:accumulate"
       d="M 6.6947239,11.919974 L 6.6947239,45.266724 C 6.6947239,48.740343 10.168344,52.213963 13.641963,52.213963 L 43.515093,52.213963 C 46.988713,52.213963 50.462332,48.740343 50.462332,45.266724 L 50.462332,11.919974 L 49.767608,11.919974 L 49.072884,45.266724 C 49.072884,48.045619 46.293989,50.824515 43.515093,50.824515 L 13.641963,50.824515 C 10.863068,50.824515 8.0841718,48.045619 8.0841718,45.266724 L 7.3894479,11.919974 L 6.6947239,11.919974 z "
       id="path3166"
       sodipodi:nodetypes="ccccccccccccc" />
    <path
       style="opacity:1;color:#000000;fill:url(#linearGradient3176);fill-opacity:1;fill-rule:evenodd;stroke:none;stroke-width:0.40000001;stroke-linecap:butt;stroke-linejoin:miter;marker:none;marker-start:none;marker-mid:none;marker-end:none;stroke-miterlimit:4;stroke-dasharray:none;stroke-dashoffset:0;stroke-opacity:1;visibility:visible;display:inline;overflow:visible;enable-background:accumulate"
       d="M 6.6947239,14.004146 C 6.6947239,10.530527 10.168344,7.0569065 13.641963,7.0569065 L 43.515093,7.0569065 C 46.988713,7.0569065 50.462332,10.530527 50.462332,14.004146 L 50.462332,20.951386 L 6.6947239,20.951386 L 6.6947239,14.004146 z "
       id="path3168"
       sodipodi:nodetypes="ccccccc" />
    <path
       style="opacity:1;color:#000000;fill:url(#linearGradient3187);fill-opacity:1;fill-rule:evenodd;stroke:none;stroke-width:0.40000001;stroke-linecap:butt;stroke-linejoin:miter;marker:none;marker-start:none;marker-mid:none;marker-end:none;stroke-miterlimit:4;stroke-dasharray:none;stroke-dashoffset:0;stroke-opacity:1;visibility:visible;display:inline;overflow:visible;enable-background:accumulate"
       d="M 49.550507,22.67539 C 41.794459,34.471198 22.987299,22.865217 7.932201,38.458649 L 8.0841718,45.275628 C 8.0841718,48.054524 10.863068,50.833419 13.641963,50.833419 L 43.515093,50.833419 C 46.293989,50.833419 49.072884,48.054524 49.072884,45.275628 L 49.550507,22.67539 z "
       id="path3182" />
  </g>
</svg>
