<?xml version="1.0" encoding="UTF-8" standalone="no"?>
<!-- Generator: Adobe Illustrator 9.0, SVG Export Plug-In  -->
<svg
   xmlns:dc="http://purl.org/dc/elements/1.1/"
   xmlns:cc="http://web.resource.org/cc/"
   xmlns:rdf="http://www.w3.org/1999/02/22-rdf-syntax-ns#"
   xmlns:svg="http://www.w3.org/2000/svg"
   xmlns="http://www.w3.org/2000/svg"
   xmlns:sodipodi="http://sodipodi.sourceforge.net/DTD/sodipodi-0.dtd"
   xmlns:inkscape="http://www.inkscape.org/namespaces/inkscape"
   width="24pt"
   height="24pt"
   viewBox="0 0 24 24"
   xml:space="preserve"
   id="svg2"
   sodipodi:version="0.32"
   inkscape:version="0.44.1"
   sodipodi:docname="stock_reset.svg"
   sodipodi:docbase="/home/ihuhnix/.icons/amica/scalable/stock"><metadata
   id="metadata34"><rdf:RDF><cc:Work
       rdf:about=""><dc:format>image/svg+xml</dc:format><dc:type
         rdf:resource="http://purl.org/dc/dcmitype/StillImage" /></cc:Work></rdf:RDF></metadata><defs
   id="defs32">
		
		<radialGradient
   gradientUnits="userSpaceOnUse"
   fy="7.9038"
   fx="8.7515"
   r="13.7593"
   cy="7.9038"
   cx="8.7515"
   id="aigrd1">
			<stop
   id="stop8"
   style="stop-color:#FED182"
   offset="0" />
			<stop
   id="stop10"
   style="stop-color:#FFB310"
   offset="0.2809" />
			<stop
   id="stop12"
   style="stop-color:#996E04"
   offset="1" />
		</radialGradient>
		
	
		
		
		<radialGradient
   gradientUnits="userSpaceOnUse"
   fy="8.4395"
   fx="9.855"
   r="12.0506"
   cy="8.4395"
   cx="9.855"
   id="aigrd2">
			<stop
   id="stop22"
   style="stop-color:#FFFFFF"
   offset="0" />
			<stop
   id="stop24"
   style="stop-color:#F0E1BD"
   offset="1" />
		</radialGradient>
		
	
		
	<radialGradient
   id="aigrd3"
   cx="8.1943"
   cy="11.7568"
   r="8.4446"
   fx="8.1943"
   fy="11.7568"
   gradientUnits="userSpaceOnUse">
			<stop
   offset="0"
   style="stop-color:#FFFFFF"
   id="stop33" />
			<stop
   offset="1"
   style="stop-color:#F0E1BD"
   id="stop35" />
		</radialGradient>
		
		<radialGradient
   gradientTransform="translate(3.584,3.2)"
   id="radialGradient1906"
   cx="13.2129"
   cy="6.8301"
   r="8.4458"
   fx="13.2129"
   fy="6.8301"
   gradientUnits="userSpaceOnUse">
			<stop
   offset="0"
   style="stop-color:#FFFFFF"
   id="stop26" />
			<stop
   offset="1"
   style="stop-color:#F0E1BD"
   id="stop28" />
		</radialGradient>
		
	
		
		
		
		
		<radialGradient
   id="radialGradient1898"
   cx="8.9658"
   cy="8.1055"
   r="13.6202"
   fx="8.9658"
   fy="8.1055"
   gradientUnits="userSpaceOnUse">
			<stop
   offset="0"
   style="stop-color:#FED182"
   id="stop1900" />
			<stop
   offset="0.2809"
   style="stop-color:#FFB310"
   id="stop1902" />
			<stop
   offset="1"
   style="stop-color:#996E04"
   id="stop1904" />
		</radialGradient>
		
		</defs><sodipodi:namedview
   inkscape:window-height="575"
   inkscape:window-width="897"
   inkscape:pageshadow="2"
   inkscape:pageopacity="0.0"
   borderopacity="1.0"
   bordercolor="#666666"
   pagecolor="#ffffff"
   id="base"
   inkscape:zoom="11.331307"
   inkscape:cx="21.60571"
   inkscape:cy="13.787504"
   inkscape:window-x="46"
   inkscape:window-y="317"
   inkscape:current-layer="svg2" />
	<path
   id="path5"
   d="M 1.142722,12.063336 C 1.142722,18.08234 6.076332,22.917278 12.095336,22.917278 C 18.11434,22.917278 22.949278,17.983668 22.949278,12.063336 C 22.949278,6.044332 18.015668,1.110722 11.996664,1.110722 C 5.9776597,1.110722 1.142722,6.044332 1.142722,12.063336 z "
   style="fill:#67ff00;fill-rule:nonzero;stroke:black;stroke-width:2;stroke-miterlimit:4;stroke-dasharray:none;fill-opacity:1" />
	
	<g
   id="Layer_x0020_3"
   style="fill-rule:nonzero;clip-rule:nonzero;stroke:#000000;stroke-miterlimit:4;">
		<path
   style="fill:none;stroke:none;"
   d="M24,24H0V0h24v24z"
   id="path29" />
	</g>
<g
   id="g1946"
   transform="translate(-24.07488,-0.165024)"><path
     style="fill-rule:evenodd;stroke:none;stroke-miterlimit:4"
     d="M 38.527603,5.0038611 C 38.527603,4.9038611 38.427603,4.9038611 38.427603,5.0038611 L 34.627603,8.8038611 C 34.527603,8.9038611 34.527603,9.0038611 34.627603,9.0038611 L 38.427603,12.803861 C 38.427603,12.803861 38.527603,12.803861 38.527603,12.803861 L 38.527603,10.503861 L 39.527603,10.503861 C 39.827603,10.503861 40.727603,10.703861 40.727603,11.503861 L 40.727603,12.503861 C 40.727603,13.403861 39.027603,13.703861 39.027603,14.003861 C 39.027603,14.303861 39.427603,14.403861 39.427603,14.403861 L 40.727603,14.403861 C 42.027603,14.403861 42.727603,13.203861 42.727603,12.003861 L 42.727603,10.303861 C 42.727603,8.3038611 41.627603,7.3038611 40.027603,7.3038611 L 38.527603,7.3038611 L 38.527603,5.0038611 L 38.527603,5.0038611 z "
     id="path1917" /><path
     style="fill-rule:evenodd;stroke:none;stroke-miterlimit:4"
     d="M 33.727603,19.303861 C 33.727603,19.403861 33.827603,19.403861 33.827603,19.303861 L 37.627603,15.503861 C 37.727603,15.403861 37.727603,15.303861 37.627603,15.303861 L 33.827603,11.503861 C 33.827603,11.503861 33.727603,11.503861 33.727603,11.503861 L 33.727603,13.803861 L 32.727603,13.803861 C 32.427603,13.803861 31.527603,13.603861 31.527603,12.803861 L 31.527603,11.803861 C 31.527603,10.903861 33.227603,10.603861 33.227603,10.303861 C 33.227603,10.003861 32.827603,9.9038611 32.827603,9.9038611 L 31.527603,9.9038611 C 30.227603,9.9038611 29.527603,11.103861 29.527603,12.303861 L 29.527603,14.003861 C 29.527603,16.003861 30.627603,17.003861 32.227603,17.003861 L 33.727603,17.003861 L 33.727603,19.303861 z "
     id="path19" /></g></svg>