<?xml version="1.0" encoding="UTF-8" standalone="no"?>
<svg
   xmlns:dc="http://purl.org/dc/elements/1.1/"
   xmlns:cc="http://creativecommons.org/ns#"
   xmlns:rdf="http://www.w3.org/1999/02/22-rdf-syntax-ns#"
   xmlns:svg="http://www.w3.org/2000/svg"
   xmlns="http://www.w3.org/2000/svg"
   xmlns:xlink="http://www.w3.org/1999/xlink"
   xmlns:sodipodi="http://sodipodi.sourceforge.net/DTD/sodipodi-0.dtd"
   xmlns:inkscape="http://www.inkscape.org/namespaces/inkscape"
   version="1.1"
   width="64"
   height="64"
   color-interpolation="linearRGB"
   id="svg2"
   inkscape:version="0.91 r13725"
   sodipodi:docname="playlist-search-browser.svg">
  <metadata
     id="metadata55">
    <rdf:RDF>
      <cc:Work
         rdf:about="">
        <dc:format>image/svg+xml</dc:format>
        <dc:type
           rdf:resource="http://purl.org/dc/dcmitype/StillImage" />
        <dc:title></dc:title>
      </cc:Work>
    </rdf:RDF>
  </metadata>
  <defs
     id="defs53">
    <linearGradient
       y2="26.57"
       x2="48.470001"
       y1="19.5"
       x1="41.400002"
       gradientUnits="userSpaceOnUse"
       id="linearGradient9779"
       xlink:href="#gradient0-3"
       inkscape:collect="always" />
    <linearGradient
       y2="26.57"
       x2="48.470001"
       y1="19.5"
       x1="41.400002"
       gradientUnits="userSpaceOnUse"
       id="gradient0-3">
      <stop
         id="stop8245"
         stop-color="#888888"
         offset="0" />
      <stop
         id="stop8247"
         stop-color="#ffffff"
         offset="0.25" />
      <stop
         id="stop8249"
         stop-color="#888888"
         offset="0.75" />
      <stop
         id="stop8251"
         stop-color="#888888"
         offset="1" />
    </linearGradient>
    <linearGradient
       y2="7.8400002"
       x2="130.73"
       y1="-37.060001"
       x1="105.74"
       gradientUnits="userSpaceOnUse"
       id="linearGradient9781"
       xlink:href="#gradient1-6"
       inkscape:collect="always" />
    <linearGradient
       y2="7.8400002"
       x2="130.73"
       y1="-37.060001"
       x1="105.74"
       gradientUnits="userSpaceOnUse"
       id="gradient1-6">
      <stop
         id="stop8258"
         stop-color="#e7e7e7"
         offset="0.3484" />
      <stop
         id="stop8260"
         stop-color="#fdfdfd"
         offset="0" />
      <stop
         id="stop8262"
         stop-color="#ffffff"
         offset="1" />
    </linearGradient>
    <radialGradient
       r="64"
       cy="0"
       cx="0"
       gradientTransform="matrix(0.3125,0,0,0.125,26,40)"
       gradientUnits="userSpaceOnUse"
       id="radialGradient9783"
       xlink:href="#gradient2-7"
       inkscape:collect="always" />
    <radialGradient
       gradientTransform="matrix(0.3125,0,0,0.125,26,40)"
       r="64"
       cy="0"
       cx="0"
       gradientUnits="userSpaceOnUse"
       id="gradient2-7">
      <stop
         id="stop8267"
         stop-color="#ceceff"
         offset="0" />
      <stop
         id="stop8269"
         stop-color="#9898ff"
         offset="1" />
    </radialGradient>
    <linearGradient
       y2="-64"
       x2="64"
       y1="-64"
       x1="-10.5"
       gradientUnits="userSpaceOnUse"
       id="linearGradient9785"
       xlink:href="#gradient3-5"
       inkscape:collect="always" />
    <linearGradient
       y2="-64"
       x2="64"
       y1="-64"
       x1="-10.5"
       gradientUnits="userSpaceOnUse"
       id="gradient3-5">
      <stop
         id="stop8276"
         stop-color="#6464ba"
         offset="0" />
      <stop
         id="stop8278"
         stop-color="#c7c7e0"
         offset="1" />
    </linearGradient>
    <linearGradient
       y2="-64"
       x2="52"
       y1="-64"
       x1="4"
       gradientUnits="userSpaceOnUse"
       id="linearGradient9787"
       xlink:href="#gradient4-3"
       inkscape:collect="always" />
    <linearGradient
       y2="-64"
       x2="52"
       y1="-64"
       x1="4"
       gradientUnits="userSpaceOnUse"
       id="gradient4-3">
      <stop
         id="stop8287"
         stop-color="#d1d1ea"
         offset="0" />
      <stop
         id="stop8289"
         stop-color="#4c4c76"
         offset="0.5909" />
      <stop
         id="stop8291"
         stop-color="#75759b"
         offset="1" />
    </linearGradient>
  </defs>
  <sodipodi:namedview
     pagecolor="#ffffff"
     bordercolor="#666666"
     borderopacity="1"
     objecttolerance="10"
     gridtolerance="10"
     guidetolerance="10"
     inkscape:pageopacity="0"
     inkscape:pageshadow="2"
     inkscape:window-width="1920"
     inkscape:window-height="1016"
     id="namedview51"
     showgrid="false"
     inkscape:zoom="8.3416503"
     inkscape:cx="30.893967"
     inkscape:cy="28.64679"
     inkscape:window-x="0"
     inkscape:window-y="30"
     inkscape:window-maximized="1"
     inkscape:current-layer="svg2" />
  <g
     id="g4"
     transform="matrix(0.90075636,0,0,0.90075636,3.1442924,0.05234188)">
    <path
       style="fill:#010101;fill-opacity:0.57250001"
       d="m 40,62 2,0 2,1 20,-28 -9,-6 -18,32 2,0 1,1 z"
       id="path6"
       inkscape:connector-curvature="0" />
    <path
       style="fill:none;stroke:#010101;stroke-width:4"
       d="m 2.62,38.87 c 0,0 8.33,5.39 16.38,11 8.44,5.88 16.75,10.88 16.75,10.88 L 58.12,34.37 26,17.37 2.62,38.87 Z"
       id="path8"
       inkscape:connector-curvature="0" />
    <radialGradient
       id="gradient0"
       gradientUnits="userSpaceOnUse"
       cx="0"
       cy="0"
       r="64"
       gradientTransform="matrix(0.2756,0.4683,-0.39,0.2295,31.3262,28.3883)">
      <stop
         offset="1"
         stop-color="#d8e2f3"
         id="stop11" />
      <stop
         offset="0.4886"
         stop-color="#6385c2"
         id="stop13" />
    </radialGradient>
    <path
       style="fill:url(#gradient0)"
       d="m 2.62,38.87 c 0,0 8.33,5.39 16.38,11 8.44,5.88 16.75,10.88 16.75,10.88 L 58.12,34.37 26,17.37 2.62,38.87 Z"
       id="path15"
       inkscape:connector-curvature="0" />
    <path
       style="fill:none;stroke:#010101;stroke-width:4"
       d="m 2.62,30.87 c 0,0 8.01,5.88 16.38,11 10,6.13 16.75,9.88 16.75,9.88 L 58.12,26.37 26,9.37 2.62,30.87 Z"
       id="path17"
       inkscape:connector-curvature="0" />
    <radialGradient
       id="gradient1"
       gradientUnits="userSpaceOnUse"
       cx="0"
       cy="0"
       r="64"
       gradientTransform="matrix(0.3055,0.4867,-0.3665,0.23,28.202,16.0601)">
      <stop
         offset="1"
         stop-color="#d8e4fa"
         id="stop20" />
      <stop
         offset="0.4886"
         stop-color="#7794c9"
         id="stop22" />
    </radialGradient>
    <path
       style="fill:url(#gradient1)"
       d="m 2.62,30.87 c 0,0 8.01,5.88 16.38,11 10,6.13 16.75,9.88 16.75,9.88 L 58.12,26.37 26,9.37 2.62,30.87 Z"
       id="path24"
       inkscape:connector-curvature="0" />
    <path
       style="fill:none;stroke:#010101;stroke-width:4"
       d="m 2.62,22.87 c 0,0 7.85,6.15 16.38,11 9,5.13 16.75,8.88 16.75,8.88 L 58.12,18.37 c 0,0 -12.68,-4.67 -22.75,-10 C 30.18,5.62 26,3 26,3 L 2.62,22.87 Z"
       id="path26"
       inkscape:connector-curvature="0" />
    <linearGradient
       id="gradient2"
       gradientUnits="userSpaceOnUse"
       x1="107.04"
       y1="-25.09"
       x2="118.33"
       y2="19.99">
      <stop
         offset="0"
         stop-color="#a5c5ff"
         id="stop29" />
      <stop
         offset="0.7424"
         stop-color="#eaf2ff"
         id="stop31" />
      <stop
         offset="1"
         stop-color="#d5e3ff"
         id="stop33" />
    </linearGradient>
    <path
       style="fill:url(#gradient2)"
       d="m 2.62,22.87 c 0,0 7.85,6.15 16.38,11 9,5.13 16.75,8.88 16.75,8.88 L 58.12,18.37 c 0,0 -12.68,-4.67 -22.75,-10 C 30.18,5.62 26,3 26,3 L 2.62,22.87 Z"
       id="path35"
       inkscape:connector-curvature="0" />
    <radialGradient
       id="gradient3"
       gradientUnits="userSpaceOnUse"
       cx="0"
       cy="0"
       r="64"
       gradientTransform="matrix(0.1558,-0.1915,0.4544,0.3697,26.8803,19.4956)">
      <stop
         offset="0"
         stop-color="#485c85"
         id="stop38" />
      <stop
         offset="1"
         stop-color="#bbcff7"
         id="stop40" />
    </radialGradient>
    <path
       style="fill:none;stroke:url(#gradient3);stroke-width:1"
       d="M 32,41 52,19 M 27,37 46,16 M 21,33 41,13 M 16,29 35,10 M 10,25 30,5"
       id="path42"
       inkscape:connector-curvature="0" />
    <linearGradient
       id="gradient4"
       gradientUnits="userSpaceOnUse"
       x1="-16.879999"
       y1="12.97"
       x2="2.3199999"
       y2="-12.12">
      <stop
         offset="0"
         stop-color="#010101"
         id="stop45" />
      <stop
         offset="1"
         stop-color="#272727"
         id="stop47" />
    </linearGradient>
    <path
       style="fill:url(#gradient4)"
       d="m 27,42 c 4.16,2.77 10,-6 6,-9 C 29,30 22,28 22,28 L 30.87,20.62 43,28 c -3,1 -5,7 -2,9 4.16,2.77 10,-6 6,-9 C 43,25 27,16 27,16 l -13,10 15,7 c -3,1 -5,7 -2,9 z"
       transform="translate(0,-8)"
       id="path49"
       inkscape:connector-curvature="0" />
  </g>
  <g
     id="g8238"
     transform="matrix(0.73673846,0,0,0.73673846,17.170555,16.89783)">
    <path
       inkscape:connector-curvature="0"
       id="path8240"
       d="M 52.42,31.27 31,64 C 48.12,64 62,55.49 62,45 62,39.6 58.32,34.73 52.43,31.27 l -0.01,0 z M 48,28 51,30 62,16 c 1.5,-1.88 2,-4 1,-6 L 48,28 Z"
       style="fill:#000000;fill-opacity:0.32940004" />
    <path
       inkscape:connector-curvature="0"
       id="path8242"
       d="M 54,6 36,22 49,29 61,14 C 62.71,11.73 65,8 62,5 59.25,2.25 56,4 54,6 Z"
       style="fill:#101010" />
    <linearGradient
       y2="26.57"
       x2="48.470001"
       y1="19.5"
       x1="41.400002"
       gradientUnits="userSpaceOnUse"
       id="linearGradient9815">
      <stop
         id="stop9817"
         stop-color="#888888"
         offset="0" />
      <stop
         id="stop9819"
         stop-color="#ffffff"
         offset="0.25" />
      <stop
         id="stop9821"
         stop-color="#888888"
         offset="0.75" />
      <stop
         id="stop9823"
         stop-color="#888888"
         offset="1" />
    </linearGradient>
    <path
       inkscape:connector-curvature="0"
       id="path8253"
       d="m 48,27 c 2,-2 2.75,-5 0.75,-7 C 46.75,18 43,18 42,19 l -5,4 11,4 z"
       style="fill:url(#linearGradient9779)" />
    <path
       inkscape:connector-curvature="0"
       id="path8255"
       d="M 27,20 C 12.09,20 0,27.61 0,37 L 0,47 C 0,56.38 12.09,64 27.01,64 41.92,64 54,56.38 54,47 L 54,37 C 54,27.61 41.9,20 27,20 l 0,0 z"
       style="fill:#000000" />
    <linearGradient
       y2="7.8400002"
       x2="130.73"
       y1="-37.060001"
       x1="105.74"
       gradientUnits="userSpaceOnUse"
       id="linearGradient9827">
      <stop
         id="stop9829"
         stop-color="#e7e7e7"
         offset="0.3484" />
      <stop
         id="stop9831"
         stop-color="#fdfdfd"
         offset="0" />
      <stop
         id="stop9833"
         stop-color="#ffffff"
         offset="1" />
    </linearGradient>
    <path
       inkscape:connector-curvature="0"
       id="path8264"
       d="M 27,22 C 13.19,22 2,28.71 2,37 2,45.28 13.19,52 27.01,52 40.81,52 52,45.28 52.01,37 52,28.71 40.8,22 27,22 l 0,0 z m 0,4 C 38.59,26 48,30.92 48.01,37 48,43.07 38.6,48 27.01,48 15.4,48 6,43.07 6,37 6,30.92 15.39,26 27,26 l 0,0 z"
       style="fill:url(#linearGradient9781)" />
    <radialGradient
       gradientTransform="matrix(0.3125,0,0,0.125,26,40)"
       r="64"
       cy="0"
       cx="0"
       gradientUnits="userSpaceOnUse"
       id="radialGradient9836">
      <stop
         id="stop9838"
         stop-color="#ceceff"
         offset="0" />
      <stop
         id="stop9840"
         stop-color="#9898ff"
         offset="1" />
    </radialGradient>
    <path
       inkscape:connector-curvature="0"
       id="path8271"
       d="m 27,46 c 9.04,0 16.59,-3 18.52,-7 -1.93,-4.01 -9.48,-7 -18.52,-7 -9.04,0 -16.61,2.99 -18.52,7 1.91,4 9.47,7 18.52,7 l 0,0 z"
       style="fill:url(#radialGradient9783)" />
    <path
       inkscape:connector-curvature="0"
       id="path8273"
       d="m 9.11,39.87 c 3.1,-2.97 10.43,-5.25 17.89,-5.25 7.45,0 14.66,2.16 17.77,5.13"
       style="fill:none;stroke:#666698;stroke-width:2" />
    <linearGradient
       y2="-64"
       x2="64"
       y1="-64"
       x1="-10.5"
       gradientUnits="userSpaceOnUse"
       id="linearGradient9844">
      <stop
         id="stop9846"
         stop-color="#6464ba"
         offset="0" />
      <stop
         id="stop9848"
         stop-color="#c7c7e0"
         offset="1" />
    </linearGradient>
    <path
       inkscape:connector-curvature="0"
       id="path8280"
       d="m 27,28 c -10.5,0 -19,4.02 -19,9 0,0.68 0.17,1.35 0.48,2 1.91,-4.01 9.47,-7 18.52,-7 9.04,0 16.6,2.99 18.53,7 0.3,-0.65 0.47,-1.32 0.47,-2 0,-4.98 -8.51,-9 -19,-9 l 0,0 z"
       style="fill:url(#linearGradient9785)" />
    <path
       inkscape:connector-curvature="0"
       id="path8282"
       d="m 17,36 c 3,1 7,-3 4,-4 -3,-1 -7,3 -4,4 z m 21.12,2.25 c -1.87,2.12 -4.5,3.12 -9.25,3.69 0,0 4.5,0.56 7,-0.32 3.18,-1.11 2.25,-3.37 2.25,-3.37 z"
       style="fill:#ffffff" />
    <path
       inkscape:connector-curvature="0"
       id="path8284"
       d="M 48.12,16 57.5,7"
       style="fill:none;stroke:#787878;stroke-width:3;stroke-linecap:round" />
    <linearGradient
       y2="-64"
       x2="52"
       y1="-64"
       x1="4"
       gradientUnits="userSpaceOnUse"
       id="linearGradient9853">
      <stop
         id="stop9855"
         stop-color="#d1d1ea"
         offset="0" />
      <stop
         id="stop9857"
         stop-color="#4c4c76"
         offset="0.5909" />
      <stop
         id="stop9859"
         stop-color="#75759b"
         offset="1" />
    </linearGradient>
    <path
       inkscape:connector-curvature="0"
       id="path8293"
       d="M 27,52 C 13.19,52 2,45.48 2,37.45 l 0,9.09 C 2,55.08 13.19,62 27,62 40.82,62 52,55.08 52,46.54 l 0,-9.09 C 52,45.48 40.8,52 27,52 l 0,0 z"
       style="fill:url(#linearGradient9787)" />
  </g>
</svg>
