<?xml version="1.0" encoding="UTF-8" standalone="no"?>
<!-- Created with Sodipodi ("http://www.sodipodi.com/") -->

<svg
   xmlns:dc="http://purl.org/dc/elements/1.1/"
   xmlns:cc="http://creativecommons.org/ns#"
   xmlns:rdf="http://www.w3.org/1999/02/22-rdf-syntax-ns#"
   xmlns:svg="http://www.w3.org/2000/svg"
   xmlns="http://www.w3.org/2000/svg"
   xmlns:sodipodi="http://sodipodi.sourceforge.net/DTD/sodipodi-0.dtd"
   xmlns:inkscape="http://www.inkscape.org/namespaces/inkscape"
   width="48pt"
   height="48pt"
   viewBox="0.237 0.185 123 114"
   overflow="visible"
   enable-background="new 0.237 0.185 123 114"
   xml:space="preserve"
   id="svg153"
   sodipodi:version="0.32pre"
   sodipodi:docname="retrosmart-network-info.svg"
   version="1.1"
   inkscape:version="0.91 r13725"><metadata
     id="metadata89"><rdf:RDF><cc:Work
         rdf:about=""><dc:format>image/svg+xml</dc:format><dc:type
           rdf:resource="http://purl.org/dc/dcmitype/StillImage" /><dc:title></dc:title></cc:Work></rdf:RDF></metadata><defs
     id="defs269"><linearGradient
       y2="18.4902"
       x2="105.7848"
       y1="12.3223"
       x1="113.5518"
       gradientUnits="userSpaceOnUse"
       id="XMLID_1_"><stop
         id="stop158"
         style="stop-color:#FFFFFF"
         offset="0" /><stop
         id="stop159"
         style="stop-color:#000000"
         offset="1" /></linearGradient><linearGradient
       y2="12.7793"
       x2="40.3423"
       y1="29.752"
       x1="42.0396"
       gradientUnits="userSpaceOnUse"
       id="XMLID_2_"><stop
         id="stop167"
         style="stop-color:#F2F2F2"
         offset="0" /><stop
         id="stop168"
         style="stop-color:#EEEEEE"
         offset="0.3121" /><stop
         id="stop169"
         style="stop-color:#E0E0E0"
         offset="0.6646" /><stop
         id="stop170"
         style="stop-color:#CCCCCC"
         offset="1" /></linearGradient><linearGradient
       y2="44.6155"
       x2="29.0975"
       y1="65.3813"
       x1="40.6548"
       gradientUnits="userSpaceOnUse"
       id="XMLID_3_"><stop
         id="stop176"
         style="stop-color:#E6E6E6"
         offset="0" /><stop
         id="stop177"
         style="stop-color:#C7C7C7"
         offset="0.621" /><stop
         id="stop178"
         style="stop-color:#B3B3B3"
         offset="1" /></linearGradient><linearGradient
       y2="32.6188"
       x2="43.835"
       y1="42.9404"
       x1="57.0117"
       gradientUnits="userSpaceOnUse"
       id="XMLID_4_"><stop
         id="stop186"
         style="stop-color:#999999"
         offset="0" /><stop
         id="stop187"
         style="stop-color:#7B7B7B"
         offset="0.6839" /><stop
         id="stop188"
         style="stop-color:#6B6B6B"
         offset="1" /></linearGradient><linearGradient
       y2="59.021"
       x2="87.5576"
       y1="75.9937"
       x1="89.2549"
       gradientUnits="userSpaceOnUse"
       id="XMLID_5_"><stop
         id="stop205"
         style="stop-color:#F2F2F2"
         offset="0" /><stop
         id="stop206"
         style="stop-color:#EEEEEE"
         offset="0.3121" /><stop
         id="stop207"
         style="stop-color:#E0E0E0"
         offset="0.6646" /><stop
         id="stop208"
         style="stop-color:#CCCCCC"
         offset="1" /></linearGradient><linearGradient
       y2="90.8567"
       x2="76.3119"
       y1="111.6226"
       x1="87.8691"
       gradientUnits="userSpaceOnUse"
       id="XMLID_6_"><stop
         id="stop214"
         style="stop-color:#E6E6E6"
         offset="0" /><stop
         id="stop215"
         style="stop-color:#C7C7C7"
         offset="0.621" /><stop
         id="stop216"
         style="stop-color:#B3B3B3"
         offset="1" /></linearGradient><linearGradient
       y2="78.8596"
       x2="91.0499"
       y1="89.1812"
       x1="104.2266"
       gradientUnits="userSpaceOnUse"
       id="XMLID_7_"><stop
         id="stop224"
         style="stop-color:#999999"
         offset="0" /><stop
         id="stop225"
         style="stop-color:#7B7B7B"
         offset="0.6839" /><stop
         id="stop226"
         style="stop-color:#6B6B6B"
         offset="1" /></linearGradient></defs><sodipodi:namedview
     id="base"
     showgrid="false"
     inkscape:zoom="5.953776"
     inkscape:cx="-19.667025"
     inkscape:cy="22.373922"
     inkscape:window-width="1918"
     inkscape:window-height="1016"
     inkscape:window-x="2"
     inkscape:window-y="30"
     inkscape:window-maximized="1"
     inkscape:current-layer="svg153" /><path
     inkscape:connector-curvature="0"
     id="path155"
     d="m 16.27,22.44 0,35.415 23.992,10.299 25.092,-22.44 0,-35.417 L 41.361,0 16.27,22.44 Z" /><path
     inkscape:connector-curvature="0"
     id="path156"
     d="m 121.068,51.286 c -1.066,-4.019 -4.789,-6.82 -7.918,-8.101 0.018,0.007 -10.301,-4.422 -21.435,-9.202 l 19.229,-17.268 -4.729,-2.397 -19.569,17.49 C 75.268,26.924 64.538,22.318 64.538,22.318 l -0.293,5.184 46.971,20.294 c 2.533,1.038 4.535,2.949 5.018,4.772 0.078,0.292 0.117,0.583 0.117,0.874 0,0.858 -0.35,1.721 -1.03,2.611 -0.311,0.311 -3.557,3.889 -3.557,3.889 l 0,6.854 7.363,-7.478 0.095,-0.12 c 2.434,-3.115 2.347,-6.022 1.846,-7.912 z" /><path
     inkscape:connector-curvature="0"
     style="fill:url(#XMLID_1_)"
     id="path163"
     d="M 91.716,33.983 114.6,13.517 109.709,11.053 86.647,31.808 91.716,33.983 Z" /><path
     inkscape:connector-curvature="0"
     id="path164"
     d="m 16.535,22.599 0,35.026 23.68,10.175 24.873,-22.246 0,-35.028 L 41.408,0.354 16.535,22.599 Z" /><path
     style="opacity:0.3"
     inkscape:connector-curvature="0"
     id="path165"
     d="M 65.088,45.555 40.215,67.8 l 11.35,0 24.873,-22.246 0,-5.408 -11.456,-4.896 0.106,10.305 z" /><path
     inkscape:connector-curvature="0"
     style="fill:url(#XMLID_2_)"
     id="path174"
     d="M 39.879,32.612 18.27,23.334 22.916,19.178 23.591,19.525 23.562,18.601 41.745,2.341 63.354,11.615 39.879,32.612 Z" /><path
     inkscape:connector-curvature="0"
     style="fill:url(#XMLID_3_)"
     id="path182"
     d="m 39.879,65.813 -12.688,-5.434 -0.018,-0.647 -1.051,0.211 -7.853,-3.406 0,-33.203 7.844,3.403 1.148,0.026 -0.067,0.443 12.684,5.405 0,33.202 z" /><path
     style="opacity:0.3"
     inkscape:connector-curvature="0"
     id="path183"
     d="m 27.173,59.732 -1.083,0.078 0,-33.04 1.171,-0.007 -0.088,0.479 0,32.49 z" /><path
     style="opacity:0.8;fill:#ffffff"
     inkscape:connector-curvature="0"
     id="path184"
     d="m 28.274,60.85 -1.083,-0.471 0,-33.175 1.083,0.47 0,33.176 z" /><path
     inkscape:connector-curvature="0"
     style="fill:url(#XMLID_4_)"
     id="path192"
     d="m 63.354,44.819 -18.284,16.35 -0.833,-0.429 0.025,1.151 -4.383,3.921 0,-33.2 23.475,-20.997 0,33.204 z" /><path
     style="opacity:0.8;fill:#ffffff"
     inkscape:connector-curvature="0"
     id="path193"
     d="m 23.632,18.541 21.429,9.455 1.135,-0.971 -21.776,-9.146 -0.788,0.662 z" /><path
     style="opacity:0.6;fill:#242424"
     inkscape:connector-curvature="0"
     id="path194"
     d="m 45.061,27.996 0,33.207 1.135,-1.014 0,-33.164 -1.135,0.971 z" /><path
     style="opacity:0.83999999;fill:#ffffff"
     inkscape:connector-curvature="0"
     id="path195"
     d="m 18.27,23.334 0.004,0.967 7.832,3.39 -0.015,-0.92 1.171,-0.007 -0.088,1.391 12.721,5.404 0.048,-0.876 0.741,-0.731 -21.776,-9.145 -0.638,0.527 z" /><path
     style="opacity:0.3"
     inkscape:connector-curvature="0"
     id="path196"
     d="m 23.59,19.525 20.646,9.141 0,32.075 0.824,0.421 0,-33.166 -21.5,-9.396 0.03,0.925 z" /><path
     style="fill:#ffffff"
     inkscape:connector-curvature="0"
     id="path197"
     d="m 36.756,38.812 -5.844,-2.793 0,-4.375 5.844,2.793 0,4.375 z" /><g
     id="g198"><path
       style="fill:#302f92"
       inkscape:connector-curvature="0"
       id="path199"
       d="m 32.921,34.588 c 0.356,0.172 0.621,0.373 0.793,0.601 0.173,0.228 0.258,0.46 0.258,0.696 0,0.206 -0.059,0.358 -0.176,0.46 -0.118,0.101 -0.268,0.137 -0.452,0.108 -0.183,-0.029 -0.428,-0.106 -0.736,-0.231 l -1.234,-0.502 0,-0.112 0.121,0.049 c 0.135,0.055 0.228,0.076 0.279,0.061 0.052,-0.014 0.085,-0.056 0.099,-0.125 0.014,-0.068 0.021,-0.239 0.021,-0.511 l 0.002,-1.587 c 0,-0.264 -0.007,-0.438 -0.022,-0.521 -0.015,-0.083 -0.045,-0.148 -0.093,-0.197 -0.047,-0.048 -0.151,-0.104 -0.311,-0.17 l -0.061,-0.024 0,-0.113 0.518,0.195 0.589,0.221 c 0.86,0.35 1.29,0.781 1.29,1.293 0,0.211 -0.074,0.352 -0.221,0.42 -0.146,0.068 -0.368,0.065 -0.664,-0.011 z m -0.569,-0.159 0,0.728 c 0,0.311 0.005,0.509 0.016,0.598 0.011,0.088 0.04,0.163 0.087,0.225 0.047,0.063 0.141,0.123 0.28,0.18 0.248,0.101 0.434,0.111 0.558,0.03 0.124,-0.082 0.186,-0.254 0.186,-0.518 0,-0.27 -0.069,-0.498 -0.21,-0.683 -0.14,-0.185 -0.387,-0.349 -0.739,-0.494 -0.058,-0.022 -0.116,-0.044 -0.178,-0.066 z m 0,-0.119 c 0.039,0.018 0.071,0.031 0.098,0.042 0.335,0.136 0.563,0.174 0.686,0.115 0.122,-0.06 0.184,-0.211 0.185,-0.455 0,-0.17 -0.024,-0.312 -0.072,-0.425 -0.048,-0.113 -0.121,-0.214 -0.216,-0.304 -0.096,-0.089 -0.26,-0.181 -0.493,-0.276 -0.061,-0.025 -0.123,-0.047 -0.186,-0.068 l -0.002,1.371 z" /><path
       style="fill:#fb0f0c"
       inkscape:connector-curvature="0"
       id="path200"
       d="m 36.074,36.32 -1.326,-0.54 c -0.006,0.093 -0.01,0.163 -0.01,0.21 0,0.351 0.053,0.636 0.156,0.854 0.104,0.218 0.262,0.371 0.469,0.455 0.281,0.115 0.481,0.064 0.6,-0.152 l 0.109,0.044 c -0.049,0.143 -0.146,0.229 -0.295,0.261 -0.146,0.031 -0.307,0.012 -0.479,-0.059 -0.161,-0.065 -0.312,-0.169 -0.456,-0.312 -0.143,-0.142 -0.26,-0.309 -0.351,-0.5 -0.091,-0.191 -0.137,-0.396 -0.136,-0.615 0,-0.31 0.088,-0.532 0.265,-0.666 0.177,-0.134 0.397,-0.146 0.661,-0.04 0.249,0.102 0.441,0.257 0.577,0.467 0.136,0.21 0.208,0.41 0.216,0.593 z m -0.399,-0.258 c 0.005,-0.035 0.008,-0.067 0.008,-0.095 0,-0.142 -0.04,-0.268 -0.12,-0.377 -0.08,-0.111 -0.18,-0.19 -0.297,-0.237 -0.283,-0.116 -0.453,-0.003 -0.508,0.336 l 0.917,0.373 z" /></g><path
     inkscape:connector-curvature="0"
     id="path201"
     d="m 63.484,68.681 0,35.414 23.992,10.3 25.092,-22.44 0,-35.416 -23.992,-10.298 -25.092,22.44 z" /><path
     inkscape:connector-curvature="0"
     id="path202"
     d="m 63.75,68.84 0,35.026 23.68,10.174 24.873,-22.244 0,-35.029 L 88.623,46.595 63.75,68.84 Z" /><path
     style="opacity:0.3"
     inkscape:connector-curvature="0"
     id="path203"
     d="m 112.303,91.796 -24.873,22.245 11.35,0 24.873,-22.244 0,-5.408 -11.456,-4.896 0.106,10.303 z" /><path
     inkscape:connector-curvature="0"
     style="fill:url(#XMLID_5_)"
     id="path212"
     d="M 87.094,78.853 65.485,69.576 70.131,65.42 70.806,65.767 70.778,64.842 88.961,48.583 110.57,57.857 87.094,78.853 Z" /><path
     inkscape:connector-curvature="0"
     style="fill:url(#XMLID_6_)"
     id="path220"
     d="m 87.094,112.054 -12.688,-5.434 -0.018,-0.648 -1.052,0.212 -7.853,-3.406 0,-33.202 7.844,3.403 1.148,0.026 -0.066,0.443 12.684,5.404 0,33.202 z" /><path
     style="opacity:0.3"
     inkscape:connector-curvature="0"
     id="path221"
     d="m 74.389,105.972 -1.084,0.079 0,-33.04 1.172,-0.006 -0.088,0.479 0,32.488 z" /><path
     style="opacity:0.8;fill:#ffffff"
     inkscape:connector-curvature="0"
     id="path222"
     d="m 75.488,107.091 -1.082,-0.471 0,-33.175 1.082,0.471 0,33.175 z" /><path
     inkscape:connector-curvature="0"
     style="fill:url(#XMLID_7_)"
     id="path230"
     d="m 110.568,91.06 -18.284,16.352 -0.833,-0.43 0.025,1.151 -4.383,3.921 0,-33.201 23.475,-20.997 0,33.204 z" /><path
     style="opacity:0.8;fill:#ffffff"
     inkscape:connector-curvature="0"
     id="path231"
     d="m 70.847,64.783 21.429,9.454 1.135,-0.971 -21.775,-9.146 -0.789,0.663 z" /><path
     style="opacity:0.6;fill:#242424"
     inkscape:connector-curvature="0"
     id="path232"
     d="m 92.275,74.237 0,33.207 1.135,-1.014 0,-33.164 -1.135,0.971 z" /><path
     style="opacity:0.83999999;fill:#ffffff"
     inkscape:connector-curvature="0"
     id="path233"
     d="m 65.484,69.576 0.004,0.967 7.832,3.39 -0.016,-0.921 1.172,-0.006 -0.088,1.391 12.721,5.403 0.048,-0.877 0.741,-0.73 -21.775,-9.146 -0.639,0.529 z" /><path
     style="opacity:0.3"
     inkscape:connector-curvature="0"
     id="path234"
     d="m 70.805,65.766 20.646,9.141 0,32.075 0.824,0.42 0,-33.165 -21.501,-9.396 0.031,0.925 z" /><path
     style="fill:#ffffff"
     inkscape:connector-curvature="0"
     id="path235"
     d="m 83.971,85.053 -5.844,-2.793 0,-4.376 5.844,2.794 0,4.375 z" /><g
     id="g236"><path
       style="fill:#302f92"
       inkscape:connector-curvature="0"
       id="path237"
       d="m 80.136,80.83 c 0.356,0.172 0.621,0.373 0.794,0.6 0.173,0.229 0.258,0.461 0.258,0.697 0,0.205 -0.059,0.357 -0.176,0.459 -0.118,0.102 -0.269,0.137 -0.452,0.108 -0.183,-0.029 -0.429,-0.106 -0.735,-0.231 l -1.235,-0.503 0,-0.113 0.121,0.049 c 0.135,0.056 0.227,0.076 0.279,0.062 0.052,-0.015 0.084,-0.056 0.099,-0.124 0.014,-0.068 0.021,-0.24 0.021,-0.512 l 0.002,-1.587 c 0,-0.265 -0.007,-0.438 -0.021,-0.521 -0.016,-0.082 -0.046,-0.148 -0.094,-0.197 -0.047,-0.047 -0.15,-0.104 -0.311,-0.17 l -0.061,-0.023 0,-0.112 0.518,0.194 0.59,0.222 c 0.859,0.351 1.289,0.781 1.289,1.294 0,0.211 -0.073,0.352 -0.221,0.42 -0.147,0.067 -0.369,0.063 -0.665,-0.012 z m -0.57,-0.16 0,0.728 c -0.001,0.311 0.004,0.51 0.016,0.598 0.01,0.088 0.039,0.163 0.086,0.226 0.048,0.063 0.141,0.123 0.28,0.18 0.248,0.101 0.435,0.11 0.558,0.03 0.124,-0.082 0.187,-0.254 0.187,-0.518 0.001,-0.271 -0.069,-0.498 -0.21,-0.684 -0.14,-0.185 -0.387,-0.348 -0.739,-0.493 -0.056,-0.023 -0.115,-0.044 -0.178,-0.067 z m 0,-0.12 c 0.039,0.018 0.071,0.031 0.098,0.043 0.335,0.137 0.563,0.174 0.686,0.115 0.123,-0.06 0.184,-0.211 0.186,-0.455 0,-0.17 -0.025,-0.312 -0.072,-0.425 -0.049,-0.112 -0.121,-0.214 -0.217,-0.304 -0.096,-0.09 -0.26,-0.182 -0.492,-0.276 C 79.694,79.224 79.632,79.2 79.569,79.18 l -0.003,1.37 z" /><path
       style="fill:#fb0f0c"
       inkscape:connector-curvature="0"
       id="path238"
       d="m 83.289,82.561 -1.326,-0.54 c -0.006,0.094 -0.01,0.164 -0.01,0.211 0,0.351 0.053,0.636 0.156,0.854 0.104,0.219 0.262,0.371 0.469,0.455 0.281,0.115 0.481,0.064 0.6,-0.152 l 0.109,0.045 c -0.049,0.143 -0.146,0.229 -0.295,0.261 -0.146,0.031 -0.307,0.012 -0.479,-0.059 -0.161,-0.065 -0.312,-0.169 -0.456,-0.312 -0.143,-0.143 -0.26,-0.309 -0.351,-0.5 -0.091,-0.19 -0.137,-0.395 -0.136,-0.614 0,-0.31 0.088,-0.532 0.265,-0.665 0.177,-0.135 0.397,-0.146 0.661,-0.04 0.249,0.102 0.441,0.257 0.577,0.468 0.136,0.208 0.208,0.405 0.216,0.588 z M 82.89,82.304 c 0.005,-0.035 0.008,-0.067 0.008,-0.096 0,-0.142 -0.04,-0.268 -0.12,-0.377 -0.08,-0.111 -0.18,-0.19 -0.297,-0.238 -0.283,-0.115 -0.453,-0.003 -0.508,0.337 l 0.917,0.374 z" /></g><g
     style="color-interpolation:linearRGB"
     id="g7709"
     transform="matrix(1.1981005,0,0,1.1981005,-4.2626268,41.717134)"><g
       id="g7628"><path
         id="path7630"
         d="m 36,42 -4,22 4,0 10,-10 3,0 7,-7 -10,-5 -10,0 z m 18,0 c -5.53,0 -10,2.46 -10,5.5 0,3.03 4.47,5.5 10,5.5 5.52,0 10,-2.47 10,-5.5 C 64,44.46 59.52,42 54,42 Z"
         style="fill:#000000;fill-opacity:0.32940004"
         inkscape:connector-curvature="0" /><path
         id="path7632"
         d="m 34,45 0,-24 -13,-5 -11,6 0,3 4,3 0,11 -8,5 0,4 26,14 10,-10 0,-4 -8,-3 z"
         style="fill:none;stroke:#000000;stroke-width:4"
         inkscape:connector-curvature="0" /><linearGradient
         y2="-34.419998"
         x2="56.75"
         y1="-43.139999"
         x1="25.16"
         gradientUnits="userSpaceOnUse"
         id="gradient0"><stop
           id="stop7635"
           stop-color="#227aff"
           offset="0" /><stop
           id="stop7637"
           stop-color="#0025e5"
           offset="1" /></linearGradient><path
         id="path7639"
         d="m 24,53 0,-25 -14,-6 0,3 4.03,3.26 L 14,48 6,44 l 0,4 26,14 0,-5 -8,-4 z"
         style="fill:url(#gradient0)"
         inkscape:connector-curvature="0" /><linearGradient
         y2="-60.169998"
         x2="65.470001"
         y1="-64.5"
         x1="46.77"
         gradientUnits="userSpaceOnUse"
         id="gradient1"><stop
           id="stop7642"
           stop-color="#000081"
           offset="0" /><stop
           id="stop7644"
           stop-color="#0909b7"
           offset="1" /></linearGradient><path
         id="path7646"
         d="m 32,57 0,5 10,-10 0,-4 -10,9 z"
         style="fill:url(#gradient1)"
         inkscape:connector-curvature="0" /><linearGradient
         y2="-60.169998"
         x2="65.470001"
         y1="-64.5"
         x1="46.77"
         gradientUnits="userSpaceOnUse"
         id="gradient2"><stop
           id="stop7649"
           stop-color="#000081"
           offset="0" /><stop
           id="stop7651"
           stop-color="#0909b7"
           offset="1" /></linearGradient><path
         id="path7653"
         d="m 24,53 10,-8 0,-24 -10,7 0,25 z"
         style="fill:url(#gradient2)"
         inkscape:connector-curvature="0" /><linearGradient
         y2="31.35"
         x2="29.9"
         y1="37.580002"
         x1="17.32"
         gradientUnits="userSpaceOnUse"
         id="gradient3"><stop
           id="stop7656"
           stop-color="#050ec5"
           offset="0" /><stop
           id="stop7658"
           stop-color="#062fe3"
           offset="1" /></linearGradient><path
         id="path7660"
         d="M 42,48 34,45 24,53 36.4,53.03 42,48 Z"
         style="fill:url(#gradient3)"
         inkscape:connector-curvature="0" /><linearGradient
         y2="10.9"
         x2="12.76"
         y1="21.52"
         x1="-8.6300001"
         gradientUnits="userSpaceOnUse"
         id="gradient4"><stop
           id="stop7663"
           stop-color="#67b5ff"
           offset="0" /><stop
           id="stop7665"
           stop-color="#3b79f6"
           offset="1" /></linearGradient><path
         id="path7667"
         d="m 24,53 8,4 4.4,-3.97 L 24,53 Z"
         style="fill:url(#gradient4)"
         inkscape:connector-curvature="0" /><linearGradient
         y2="10.9"
         x2="12.76"
         y1="21.52"
         x1="-8.6300001"
         gradientUnits="userSpaceOnUse"
         id="gradient5"><stop
           id="stop7670"
           stop-color="#67b5ff"
           offset="0" /><stop
           id="stop7672"
           stop-color="#3b79f6"
           offset="1" /></linearGradient><path
         id="path7674"
         d="m 6,44 8,4 0,-9 -8,5 z"
         style="fill:url(#gradient5)"
         inkscape:connector-curvature="0" /><radialGradient
         gradientTransform="matrix(0.3125,0,0,0.1406,30,22)"
         r="64"
         cy="0"
         cx="0"
         gradientUnits="userSpaceOnUse"
         id="gradient6"><stop
           id="stop7677"
           stop-color="#0530d1"
           offset="0" /><stop
           id="stop7679"
           stop-color="#67b5ff"
           offset="1" /></radialGradient><path
         id="path7681"
         d="M 21,16 10,22 24,28 34,21 21,16 Z"
         style="fill:url(#gradient6)"
         inkscape:connector-curvature="0" /><path
         id="path7683"
         d="M 22,2 C 16.47,2 11.99,6.47 12,12 12,17.52 16.47,22 22,22 27.52,22 32,17.52 32,12 32,6.47 27.52,2 22,2 Z"
         style="fill:none;stroke:#000000;stroke-width:4"
         inkscape:connector-curvature="0" /><radialGradient
         gradientTransform="matrix(0.2031,0,0,0.2031,19,9.43)"
         r="64"
         cy="0"
         cx="0"
         gradientUnits="userSpaceOnUse"
         id="gradient7"><stop
           id="stop7686"
           stop-color="#3787ff"
           offset="0" /><stop
           id="stop7688"
           stop-color="#1b76ff"
           offset="0.3369" /><stop
           id="stop7690"
           stop-color="#031d8c"
           offset="1" /><stop
           id="stop7692"
           stop-color="#000081"
           offset="0.8586" /></radialGradient><path
         id="path7694"
         d="M 22,2 C 16.47,2 11.99,6.47 12,12 12,17.52 16.47,22 22,22 27.52,22 32,17.52 32,12 32,6.47 27.52,2 22,2 Z"
         style="fill:url(#gradient7)"
         inkscape:connector-curvature="0" /><radialGradient
         gradientTransform="matrix(0.0527,0,0,-0.0527,19,9)"
         r="64"
         cy="0"
         cx="0"
         gradientUnits="userSpaceOnUse"
         id="gradient8"><stop
           id="stop7697"
           stop-color="#ffffff"
           offset="0" /><stop
           id="stop7699"
           stop-color="#3787ff"
           offset="1" /></radialGradient><path
         id="path7701"
         d="m 19,5.62 c -1.87,0 -3.38,1.51 -3.37,3.38 0,1.86 1.5,3.37 3.37,3.37 1.87,0 3.37,-1.51 3.37,-3.37 0,-1.87 -1.51,-3.38 -3.37,-3.38 z"
         style="fill:url(#gradient8)"
         inkscape:connector-curvature="0" /></g></g></svg>