<?xml version="1.0" encoding="UTF-8" standalone="no"?>
<!-- Created with Sodipodi ("http://www.sodipodi.com/") -->

<svg
   xmlns:dc="http://purl.org/dc/elements/1.1/"
   xmlns:cc="http://creativecommons.org/ns#"
   xmlns:rdf="http://www.w3.org/1999/02/22-rdf-syntax-ns#"
   xmlns:svg="http://www.w3.org/2000/svg"
   xmlns="http://www.w3.org/2000/svg"
   xmlns:xlink="http://www.w3.org/1999/xlink"
   xmlns:sodipodi="http://sodipodi.sourceforge.net/DTD/sodipodi-0.dtd"
   xmlns:inkscape="http://www.inkscape.org/namespaces/inkscape"
   width="10cm"
   height="10cm"
   viewBox="0 0 377.95276 377.95276"
   overflow="visible"
   enable-background="new 0 0 50.872 46.19"
   xml:space="preserve"
   id="svg153"
   sodipodi:version="0.32pre"
   sodipodi:docname="retrosmart-notebook-sage.svg"
   version="1.1"
   inkscape:version="0.92.1 r"
   style="overflow:visible"><defs
     id="defs310"><linearGradient
       inkscape:collect="always"
       id="linearGradient3906"><stop
         style="stop-color:#000000;stop-opacity:1;"
         offset="0"
         id="stop3908" /><stop
         style="stop-color:#000000;stop-opacity:0;"
         offset="1"
         id="stop3910" /></linearGradient><linearGradient
       inkscape:collect="always"
       id="linearGradient3898"><stop
         style="stop-color:#000000;stop-opacity:1;"
         offset="0"
         id="stop3900" /><stop
         style="stop-color:#000000;stop-opacity:0;"
         offset="1"
         id="stop3902" /></linearGradient><inkscape:perspective
       sodipodi:type="inkscape:persp3d"
       inkscape:vp_x="0 : 36.533882 : 1"
       inkscape:vp_y="0 : 1298.9825 : 0"
       inkscape:vp_z="75.483567 : 36.533882 : 1"
       inkscape:persp3d-origin="37.741783 : 24.355921 : 1"
       id="perspective105" /><linearGradient
       inkscape:collect="always"
       xlink:href="#XMLID_1_"
       id="linearGradient2911"
       gradientUnits="userSpaceOnUse"
       gradientTransform="matrix(0.4828,0.721,0.7677,-0.514,50.3329,346.1161)"
       x1="-324.74509"
       y1="177.79491"
       x2="-310.03329"
       y2="153.6615" /><linearGradient
       inkscape:collect="always"
       xlink:href="#XMLID_1_"
       id="linearGradient2913"
       gradientUnits="userSpaceOnUse"
       gradientTransform="matrix(0.4828,0.721,0.7677,-0.514,50.3329,346.1161)"
       x1="-324.74509"
       y1="177.79491"
       x2="-310.03329"
       y2="153.6615" /><linearGradient
       inkscape:collect="always"
       xlink:href="#XMLID_3_"
       id="linearGradient2915"
       gradientUnits="userSpaceOnUse"
       gradientTransform="matrix(0.702,0.51,0.543,-0.7475,71.8123,340.4085)"
       x1="-265.06879"
       y1="257.35941"
       x2="-249.0802"
       y2="231.13139" /><linearGradient
       inkscape:collect="always"
       xlink:href="#XMLID_3_"
       id="linearGradient2917"
       gradientUnits="userSpaceOnUse"
       gradientTransform="matrix(0.702,0.51,0.543,-0.7475,71.8123,340.4085)"
       x1="-265.06879"
       y1="257.35941"
       x2="-249.0802"
       y2="231.13139" /><linearGradient
       inkscape:collect="always"
       xlink:href="#XMLID_3_"
       id="linearGradient3017"
       gradientUnits="userSpaceOnUse"
       gradientTransform="matrix(0.702,0.51,0.543,-0.7475,71.8123,340.4085)"
       x1="-265.06879"
       y1="257.35941"
       x2="-249.0802"
       y2="231.13139" /><linearGradient
       inkscape:collect="always"
       xlink:href="#XMLID_6_"
       id="linearGradient3021"
       gradientUnits="userSpaceOnUse"
       gradientTransform="matrix(1,0,0,-1,232.9102,407.9512)"
       x1="-207.7251"
       y1="387.4473"
       x2="-217.89751"
       y2="378.02939" /><linearGradient
       inkscape:collect="always"
       xlink:href="#XMLID_7_"
       id="linearGradient3023"
       gradientUnits="userSpaceOnUse"
       gradientTransform="matrix(1,0,0,-1,232.9102,407.9512)"
       x1="-205.50391"
       y1="384.91309"
       x2="-215.6445"
       y2="375.52469" /><linearGradient
       inkscape:collect="always"
       xlink:href="#XMLID_8_"
       id="linearGradient3025"
       gradientUnits="userSpaceOnUse"
       gradientTransform="matrix(1,0,0,-1,232.9102,407.9512)"
       x1="-200.31931"
       y1="383.29199"
       x2="-209.48"
       y2="376.46649" /><linearGradient
       inkscape:collect="always"
       xlink:href="#XMLID_14_"
       id="linearGradient3037"
       gradientUnits="userSpaceOnUse"
       gradientTransform="matrix(1,0,0,-1,232.9102,407.9512)"
       x1="-201.166"
       y1="380.88089"
       x2="-201.166"
       y2="376.08051" /><linearGradient
       id="XMLID_6_"
       gradientUnits="userSpaceOnUse"
       x1="-207.7251"
       y1="387.4473"
       x2="-217.89751"
       y2="378.02939"
       gradientTransform="matrix(1,0,0,-1,232.9102,407.9512)"><stop
         offset="0"
         style="stop-color:#D8DAA1"
         id="stop188" /><stop
         offset="1"
         style="stop-color:#5C5C3A"
         id="stop189" /></linearGradient><linearGradient
       id="XMLID_7_"
       gradientUnits="userSpaceOnUse"
       x1="-205.50391"
       y1="384.91309"
       x2="-215.6445"
       y2="375.52469"
       gradientTransform="matrix(1,0,0,-1,232.9102,407.9512)"><stop
         offset="0"
         style="stop-color:#D8DAA1"
         id="stop195" /><stop
         offset="1"
         style="stop-color:#5C5C3A"
         id="stop196" /></linearGradient><linearGradient
       id="XMLID_8_"
       gradientUnits="userSpaceOnUse"
       x1="-200.31931"
       y1="383.29199"
       x2="-209.48"
       y2="376.46649"
       gradientTransform="matrix(1,0,0,-1,232.9102,407.9512)"><stop
         offset="0"
         style="stop-color:#D8DAA1"
         id="stop202" /><stop
         offset="1"
         style="stop-color:#5C5C3A"
         id="stop203" /></linearGradient><linearGradient
       id="XMLID_14_"
       gradientUnits="userSpaceOnUse"
       x1="-201.166"
       y1="380.88089"
       x2="-201.166"
       y2="376.08051"
       gradientTransform="matrix(1,0,0,-1,232.9102,407.9512)"><stop
         offset="0"
         style="stop-color:#FFFFFF"
         id="stop287" /><stop
         offset="1"
         style="stop-color:#000000"
         id="stop288" /></linearGradient><linearGradient
       inkscape:collect="always"
       xlink:href="#XMLID_1_"
       id="linearGradient3920"
       x1="2.632"
       y1="26.151501"
       x2="45.435001"
       y2="26.151501"
       gradientUnits="userSpaceOnUse" /><linearGradient
       gradientTransform="matrix(0.952939,0.0449481,-0.04876282,0.896441,86.06802,62.74847)"
       gradientUnits="userSpaceOnUse"
       y2="416.78928"
       x2="206.95961"
       y1="394.80762"
       x1="225.02907"
       id="linearGradient5013"
       xlink:href="#linearGradient5007"
       inkscape:collect="always" /><linearGradient
       spreadMethod="pad"
       gradientTransform="matrix(0.821209,-1.007241,0.366658,0.268808,-114.7702,677.3001)"
       y2="493.26776"
       x2="262.50049"
       y1="510.59937"
       x1="352.3222"
       gradientUnits="userSpaceOnUse"
       id="linearGradient2824"
       xlink:href="#linearGradient2044"
       inkscape:collect="always" /><linearGradient
       y2="490.64255"
       x2="269.82303"
       y1="487.39813"
       x1="330.08414"
       gradientUnits="userSpaceOnUse"
       id="linearGradient2820"
       xlink:href="#linearGradient2044"
       inkscape:collect="always" /><linearGradient
       y2="491.95532"
       x2="273.38773"
       y1="500.13318"
       x1="319.47098"
       gradientUnits="userSpaceOnUse"
       id="linearGradient2812"
       xlink:href="#linearGradient2044"
       inkscape:collect="always" /><linearGradient
       gradientTransform="matrix(0.602331,-0.738779,0.268932,0.197162,13.09589,636.3996)"
       y2="543.08051"
       x2="274.48877"
       y1="554.83765"
       x1="354.13361"
       gradientUnits="userSpaceOnUse"
       id="linearGradient2810"
       xlink:href="#linearGradient2044"
       inkscape:collect="always" /><linearGradient
       id="linearGradient2044"><stop
         id="stop2046"
         offset="0.00000000"
         style="stop-color:#ff0000;stop-opacity:1.0000000;" /><stop
         id="stop2048"
         offset="1.0000000"
         style="stop-color:#6c0000;stop-opacity:1.0000000;" /></linearGradient><linearGradient
       id="linearGradient5007"><stop
         id="stop5009"
         offset="0.00000000"
         style="stop-color:#fefefe;stop-opacity:1.0000000;" /><stop
         id="stop5011"
         offset="1.0000000"
         style="stop-color:#474747;stop-opacity:1.0000000" /></linearGradient><inkscape:perspective
       id="perspective2955"
       inkscape:persp3d-origin="125.80594 : 86.598832 : 1"
       inkscape:vp_z="251.61189 : 129.89825 : 1"
       inkscape:vp_y="0 : 1298.9825 : 0"
       inkscape:vp_x="0 : 129.89825 : 1"
       sodipodi:type="inkscape:persp3d" /><linearGradient
       inkscape:collect="always"
       xlink:href="#XMLID_1_"
       id="linearGradient3861"
       gradientUnits="userSpaceOnUse"
       gradientTransform="matrix(0.4828,0.721,0.7677,-0.514,50.3329,346.1161)"
       x1="-324.74509"
       y1="177.79491"
       x2="-310.03329"
       y2="153.6615" /><linearGradient
       inkscape:collect="always"
       xlink:href="#XMLID_1_"
       id="linearGradient3863"
       gradientUnits="userSpaceOnUse"
       gradientTransform="matrix(0.4828,0.721,0.7677,-0.514,50.3329,346.1161)"
       x1="-324.74509"
       y1="177.79491"
       x2="-310.03329"
       y2="153.6615" /><linearGradient
       inkscape:collect="always"
       xlink:href="#XMLID_3_"
       id="linearGradient3865"
       gradientUnits="userSpaceOnUse"
       gradientTransform="matrix(0.702,0.51,0.543,-0.7475,71.8123,340.4085)"
       x1="-265.06879"
       y1="257.35941"
       x2="-249.0802"
       y2="231.13139" /><linearGradient
       inkscape:collect="always"
       xlink:href="#XMLID_1_"
       id="linearGradient3867"
       gradientUnits="userSpaceOnUse"
       x1="2.632"
       y1="26.151501"
       x2="45.435001"
       y2="26.151501" /><linearGradient
       inkscape:collect="always"
       xlink:href="#XMLID_1_"
       id="linearGradient3869"
       gradientUnits="userSpaceOnUse"
       x1="2.632"
       y1="26.151501"
       x2="45.435001"
       y2="26.151501" /><linearGradient
       inkscape:collect="always"
       xlink:href="#XMLID_5_"
       id="linearGradient3871"
       gradientUnits="userSpaceOnUse"
       gradientTransform="matrix(1,0,0,-1,232.9102,407.9512)"
       x1="-206.58591"
       y1="394.66699"
       x2="-217.3597"
       y2="383.89319" /><linearGradient
       inkscape:collect="always"
       xlink:href="#XMLID_6_"
       id="linearGradient3873"
       gradientUnits="userSpaceOnUse"
       gradientTransform="matrix(1,0,0,-1,232.9102,407.9512)"
       x1="-207.7251"
       y1="387.4473"
       x2="-217.89751"
       y2="378.02939" /><linearGradient
       inkscape:collect="always"
       xlink:href="#XMLID_7_"
       id="linearGradient3875"
       gradientUnits="userSpaceOnUse"
       gradientTransform="matrix(1,0,0,-1,232.50602,407.74912)"
       x1="-205.50391"
       y1="384.91309"
       x2="-215.6445"
       y2="375.52469" /><linearGradient
       inkscape:collect="always"
       xlink:href="#XMLID_8_"
       id="linearGradient3877"
       gradientUnits="userSpaceOnUse"
       gradientTransform="matrix(1,0,0,-1,232.9102,407.9512)"
       x1="-200.31931"
       y1="383.29199"
       x2="-209.48"
       y2="376.46649" /><linearGradient
       inkscape:collect="always"
       xlink:href="#XMLID_9_"
       id="linearGradient3879"
       gradientUnits="userSpaceOnUse"
       gradientTransform="matrix(1,0,0,-1,232.9102,407.9512)"
       x1="-196.8564"
       y1="382.28909"
       x2="-201.84669"
       y2="378.1304" /><linearGradient
       inkscape:collect="always"
       xlink:href="#linearGradient5007"
       id="linearGradient3899"
       gradientUnits="userSpaceOnUse"
       gradientTransform="matrix(-0.07058924,-0.04794123,0.08286717,-0.03104788,-36.450175,38.275032)"
       x1="225.02907"
       y1="394.80762"
       x2="206.95961"
       y2="416.78928" /><linearGradient
       inkscape:collect="always"
       xlink:href="#linearGradient2044"
       id="linearGradient3901"
       gradientUnits="userSpaceOnUse"
       gradientTransform="matrix(-0.14910211,4.2548094e-4,-0.00376183,-0.04906204,31.302343,34.489779)"
       spreadMethod="pad"
       x1="352.3222"
       y1="510.59937"
       x2="262.50049"
       y2="493.26776" /><linearGradient
       inkscape:collect="always"
       xlink:href="#linearGradient2044"
       id="linearGradient3903"
       gradientUnits="userSpaceOnUse"
       x1="330.08414"
       y1="487.39813"
       x2="269.82303"
       y2="490.64255" /><linearGradient
       inkscape:collect="always"
       xlink:href="#linearGradient2044"
       id="linearGradient3905"
       gradientUnits="userSpaceOnUse"
       gradientTransform="matrix(-0.10936162,3.1208785e-4,-0.00275925,-0.03598549,18.220657,26.609381)"
       x1="354.13361"
       y1="554.83765"
       x2="274.48877"
       y2="543.08051" /><linearGradient
       inkscape:collect="always"
       xlink:href="#linearGradient2044"
       id="linearGradient3907"
       gradientUnits="userSpaceOnUse"
       x1="319.47098"
       y1="500.13318"
       x2="273.38773"
       y2="491.95532" /><linearGradient
       inkscape:collect="always"
       xlink:href="#XMLID_8_"
       id="linearGradient3919"
       gradientUnits="userSpaceOnUse"
       gradientTransform="matrix(0.91715966,0.34254938,0.6354793,-1.107188,-25.760089,516.60183)"
       x1="-200.31931"
       y1="383.29199"
       x2="-209.48"
       y2="376.46649" /><linearGradient
       inkscape:collect="always"
       xlink:href="#XMLID_7_"
       id="linearGradient3922"
       gradientUnits="userSpaceOnUse"
       gradientTransform="matrix(0.91715966,0.34254938,0.6354793,-1.107188,-26.002369,516.23964)"
       x1="-205.50391"
       y1="384.91309"
       x2="-215.6445"
       y2="375.52469" /><linearGradient
       inkscape:collect="always"
       xlink:href="#XMLID_6_"
       id="linearGradient3925"
       gradientUnits="userSpaceOnUse"
       gradientTransform="matrix(0.91715966,0.34254938,0.6354793,-1.107188,-25.760089,516.60183)"
       x1="-207.7251"
       y1="387.4473"
       x2="-217.89751"
       y2="378.02939" /><linearGradient
       inkscape:collect="always"
       xlink:href="#XMLID_1_"
       id="linearGradient3948"
       gradientUnits="userSpaceOnUse"
       x1="2.632"
       y1="26.151501"
       x2="45.435001"
       y2="26.151501" /><linearGradient
       inkscape:collect="always"
       xlink:href="#XMLID_1_"
       id="linearGradient3950"
       gradientUnits="userSpaceOnUse"
       x1="2.632"
       y1="26.151501"
       x2="45.435001"
       y2="26.151501" /><linearGradient
       inkscape:collect="always"
       xlink:href="#XMLID_1_"
       id="linearGradient3952"
       gradientUnits="userSpaceOnUse"
       gradientTransform="matrix(0.4828,0.721,0.7677,-0.514,50.3329,346.1161)"
       x1="-324.74509"
       y1="177.79491"
       x2="-310.03329"
       y2="153.6615" /><linearGradient
       inkscape:collect="always"
       xlink:href="#XMLID_1_"
       id="linearGradient3963"
       gradientUnits="userSpaceOnUse"
       gradientTransform="matrix(-0.01537589,0.96366539,1.0307398,-0.30611947,-153.9177,385.59701)"
       x1="-324.74509"
       y1="177.79491"
       x2="-301.00253"
       y2="184.34099" /><linearGradient
       inkscape:collect="always"
       xlink:href="#XMLID_1_"
       id="linearGradient2942"
       gradientUnits="userSpaceOnUse"
       gradientTransform="matrix(0.4828,0.721,0.7677,-0.514,50.3329,346.1161)"
       x1="-324.74509"
       y1="177.79491"
       x2="-310.03329"
       y2="153.6615" /><linearGradient
       inkscape:collect="always"
       xlink:href="#XMLID_1_"
       id="linearGradient2944"
       gradientUnits="userSpaceOnUse"
       gradientTransform="matrix(-0.01595734,1.0001071,1.0697179,-0.31769559,-160.70279,398.40931)"
       x1="-324.74509"
       y1="177.79491"
       x2="-301.00253"
       y2="184.34099" /><linearGradient
       inkscape:collect="always"
       xlink:href="#XMLID_3_"
       id="linearGradient2946"
       gradientUnits="userSpaceOnUse"
       gradientTransform="matrix(0.702,0.51,0.543,-0.7475,71.8123,340.4085)"
       x1="-265.06879"
       y1="257.35941"
       x2="-249.0802"
       y2="231.13139" /><linearGradient
       inkscape:collect="always"
       xlink:href="#XMLID_1_"
       id="linearGradient2948"
       gradientUnits="userSpaceOnUse"
       x1="2.632"
       y1="26.151501"
       x2="45.435001"
       y2="26.151501" /><linearGradient
       inkscape:collect="always"
       xlink:href="#XMLID_1_"
       id="linearGradient2950"
       gradientUnits="userSpaceOnUse"
       x1="2.632"
       y1="26.151501"
       x2="45.435001"
       y2="26.151501" /><linearGradient
       inkscape:collect="always"
       xlink:href="#XMLID_5_"
       id="linearGradient2952"
       gradientUnits="userSpaceOnUse"
       gradientTransform="matrix(1,0,0,-1,232.9102,407.9512)"
       x1="-206.58591"
       y1="394.66699"
       x2="-217.3597"
       y2="383.89319" /><linearGradient
       inkscape:collect="always"
       xlink:href="#XMLID_6_"
       id="linearGradient2954"
       gradientUnits="userSpaceOnUse"
       gradientTransform="matrix(0.91715966,0.34254938,0.6354793,-1.107188,-25.760089,516.60183)"
       x1="-207.7251"
       y1="387.4473"
       x2="-217.89751"
       y2="378.02939" /><linearGradient
       inkscape:collect="always"
       xlink:href="#XMLID_7_"
       id="linearGradient2956"
       gradientUnits="userSpaceOnUse"
       gradientTransform="matrix(0.91715966,0.34254938,0.6354793,-1.107188,-26.002369,516.23964)"
       x1="-205.50391"
       y1="384.91309"
       x2="-215.6445"
       y2="375.52469" /><linearGradient
       inkscape:collect="always"
       xlink:href="#XMLID_8_"
       id="linearGradient2958"
       gradientUnits="userSpaceOnUse"
       gradientTransform="matrix(0.91715966,0.34254938,0.6354793,-1.107188,-25.760089,516.60183)"
       x1="-200.31931"
       y1="383.29199"
       x2="-209.48"
       y2="376.46649" /><linearGradient
       inkscape:collect="always"
       xlink:href="#XMLID_9_"
       id="linearGradient2960"
       gradientUnits="userSpaceOnUse"
       gradientTransform="matrix(1,0,0,-1,232.9102,407.9512)"
       x1="-196.8564"
       y1="382.28909"
       x2="-201.84669"
       y2="378.1304" /><linearGradient
       inkscape:collect="always"
       xlink:href="#XMLID_1_"
       id="linearGradient3122"
       gradientUnits="userSpaceOnUse"
       gradientTransform="matrix(-0.01595734,1.0001071,1.0697179,-0.31769559,-232.15129,421.27283)"
       x1="-324.74509"
       y1="177.79491"
       x2="-301.00253"
       y2="184.34099" /><linearGradient
       inkscape:collect="always"
       xlink:href="#XMLID_1_"
       id="linearGradient3124"
       gradientUnits="userSpaceOnUse"
       gradientTransform="matrix(0.4828,0.721,0.7677,-0.514,50.3329,346.1161)"
       x1="-324.74509"
       y1="177.79491"
       x2="-310.03329"
       y2="153.6615" /><linearGradient
       inkscape:collect="always"
       xlink:href="#XMLID_3_"
       id="linearGradient4001"
       gradientUnits="userSpaceOnUse"
       gradientTransform="matrix(0.702,0.51,0.543,-0.7475,71.8123,340.4085)"
       x1="-265.06879"
       y1="257.35941"
       x2="-249.0802"
       y2="231.13139" /><linearGradient
       inkscape:collect="always"
       xlink:href="#linearGradient3898"
       id="linearGradient4003"
       gradientUnits="userSpaceOnUse"
       x1="11.792295"
       y1="22.343287"
       x2="22.498686"
       y2="22.343287" /><linearGradient
       inkscape:collect="always"
       xlink:href="#linearGradient3898"
       id="linearGradient4005"
       gradientUnits="userSpaceOnUse"
       x1="11.792295"
       y1="22.343287"
       x2="22.498686"
       y2="22.343287" /><linearGradient
       inkscape:collect="always"
       xlink:href="#XMLID_14_"
       id="linearGradient4007"
       gradientUnits="userSpaceOnUse"
       gradientTransform="matrix(0.95184269,0.35550312,0.65951039,-1.1490571,-27.698808,534.36817)"
       x1="-207.7251"
       y1="387.4473"
       x2="-217.89751"
       y2="378.02939" /><linearGradient
       inkscape:collect="always"
       xlink:href="#XMLID_14_"
       id="linearGradient4009"
       gradientUnits="userSpaceOnUse"
       gradientTransform="matrix(0.95184269,0.35550312,0.65951039,-1.1490571,-27.95025,533.99228)"
       x1="-205.50391"
       y1="384.91309"
       x2="-215.6445"
       y2="375.52469" /><linearGradient
       inkscape:collect="always"
       xlink:href="#XMLID_14_"
       id="linearGradient4011"
       gradientUnits="userSpaceOnUse"
       gradientTransform="matrix(0.95184269,0.35550312,0.65951039,-1.1490571,-27.698808,534.36817)"
       x1="-200.31931"
       y1="383.29199"
       x2="-209.48"
       y2="376.46649" /><linearGradient
       inkscape:collect="always"
       xlink:href="#linearGradient3906"
       id="linearGradient4013"
       gradientUnits="userSpaceOnUse"
       x1="25.969978"
       y1="29.60158"
       x2="36.242294"
       y2="29.60158" /><linearGradient
       inkscape:collect="always"
       xlink:href="#linearGradient3906"
       id="linearGradient4015"
       gradientUnits="userSpaceOnUse"
       x1="25.969978"
       y1="29.60158"
       x2="36.242294"
       y2="29.60158" /><linearGradient
       inkscape:collect="always"
       xlink:href="#linearGradient3906"
       id="linearGradient4017"
       gradientUnits="userSpaceOnUse"
       x1="25.969978"
       y1="29.60158"
       x2="36.242294"
       y2="29.60158" /><linearGradient
       inkscape:collect="always"
       xlink:href="#XMLID_14_"
       id="linearGradient4026"
       gradientUnits="userSpaceOnUse"
       gradientTransform="matrix(0.95184269,0.35550312,0.65951039,-1.1490571,-66.700669,536.0639)"
       x1="-200.31931"
       y1="383.29199"
       x2="-209.48"
       y2="376.46649" /><linearGradient
       inkscape:collect="always"
       xlink:href="#XMLID_14_"
       id="linearGradient4029"
       gradientUnits="userSpaceOnUse"
       gradientTransform="matrix(0.95184269,0.35550312,0.65951039,-1.1490571,-66.952111,535.68801)"
       x1="-205.50391"
       y1="384.91309"
       x2="-215.6445"
       y2="375.52469" /><linearGradient
       inkscape:collect="always"
       xlink:href="#XMLID_14_"
       id="linearGradient4032"
       gradientUnits="userSpaceOnUse"
       gradientTransform="matrix(0.95184269,0.35550312,0.65951039,-1.1490571,-66.700669,536.0639)"
       x1="-207.7251"
       y1="387.4473"
       x2="-217.89751"
       y2="378.02939" /><linearGradient
       inkscape:collect="always"
       xlink:href="#XMLID_3_"
       id="linearGradient4059"
       gradientUnits="userSpaceOnUse"
       gradientTransform="matrix(0.702,0.51,0.543,-0.7475,71.8123,340.4085)"
       x1="-265.06879"
       y1="257.35941"
       x2="-249.0802"
       y2="231.13139" /><linearGradient
       id="linearGradient6716"><stop
         style="stop-color:#67b41b;stop-opacity:1;"
         offset="0"
         id="stop6718" /><stop
         id="stop6724"
         offset="0.5"
         style="stop-color:#acf06a;stop-opacity:1;" /><stop
         style="stop-color:#66b11e;stop-opacity:1;"
         offset="1"
         id="stop6720" /></linearGradient></defs><sodipodi:namedview
     id="base"
     showgrid="false"
     inkscape:zoom="0.67687498"
     inkscape:cx="108.84403"
     inkscape:cy="101.27396"
     inkscape:window-width="1365"
     inkscape:window-height="703"
     inkscape:window-x="1"
     inkscape:window-y="30"
     inkscape:window-maximized="1"
     inkscape:current-layer="svg153"
     units="cm" /><metadata
     id="metadata154"><sfw
       id="sfw6"><slices
         id="slices8" /><sliceSourceBounds
         y="396.404"
         x="271.064"
         width="50.872"
         height="46.19"
         bottomLeftOrigin="true"
         id="sliceSourceBounds10" /></sfw><rdf:RDF><cc:Work
         rdf:about=""><dc:format>image/svg+xml</dc:format><dc:type
           rdf:resource="http://purl.org/dc/dcmitype/StillImage" /><dc:title></dc:title></cc:Work></rdf:RDF></metadata><g
     id="g4483"><g
       transform="matrix(6.7059004,0,0,6.7059004,270.95381,46.616624)"
       id="g4048"><g
         transform="matrix(0.95184269,0.35550312,-0.65951039,1.1490571,-19.346484,-15.495616)"
         id="g3955"
         style="stroke:#000000"><linearGradient
           gradientTransform="matrix(0.702,0.51,0.543,-0.7475,71.8123,340.4085)"
           y2="231.13139"
           x2="-249.0802"
           y1="257.35941"
           x1="-265.06879"
           gradientUnits="userSpaceOnUse"
           id="linearGradient3957"><stop
             id="stop3959"
             style="stop-color:#FDFEED"
             offset="0" /><stop
             id="stop3961"
             style="stop-color:#FFF24B"
             offset="1" /></linearGradient><path
           style="fill:url(#linearGradient4059);stroke:none"
           id="path3963"
           d="M 29.241,41.361 2.632,27.234 18.826,10.942 45.435,25.069 Z"
           inkscape:connector-curvature="0" /></g><path
         style="stroke:none"
         id="path3965"
         d="M -37.587223,16.285006 -19.834627,44.772599 10.152397,29.91237 -7.59954,1.4236265 Z"
         inkscape:connector-curvature="0" /><g
         style="fill:#ffffff;fill-opacity:1"
         id="g3967"
         transform="translate(-39.001861,1.6957333)"><g
           style="fill:#ffffff;fill-opacity:1;stroke:#000000"
           id="g3969"
           transform="matrix(0.95184269,0.35550312,-0.65951039,1.1490571,19.655377,-17.191349)"><path
             inkscape:connector-curvature="0"
             d="M 29.241,41.361 2.632,27.234 18.826,10.942 45.435,25.069 Z"
             id="path3971"
             style="fill:#ffffff;fill-opacity:1;stroke:none" /></g></g></g><g
       transform="matrix(6.3829623,2.3839685,-4.422611,7.7054625,149.78202,-80.16586)"
       id="g168"
       style="stroke:#000000"><linearGradient
         gradientTransform="matrix(0.702,0.51,0.543,-0.7475,71.8123,340.4085)"
         y2="231.13139"
         x2="-249.0802"
         y1="257.35941"
         x1="-265.06879"
         gradientUnits="userSpaceOnUse"
         id="XMLID_3_"><stop
           id="stop170"
           style="stop-color:#FDFEED"
           offset="0" /><stop
           id="stop171"
           style="stop-color:#FFF24B"
           offset="1" /></linearGradient><path
         style="fill:url(#linearGradient2946);stroke:none"
         id="path175"
         d="M 29.241,41.361 2.632,27.234 18.826,10.942 45.435,25.069 Z"
         inkscape:connector-curvature="0" /></g><path
       style="stroke:none;stroke-width:6.70590019"
       id="path176"
       d="M 27.461442,132.95183 146.50858,323.98679 347.59858,224.33557 228.55586,33.292893 Z"
       inkscape:connector-curvature="0" /><g
       transform="matrix(6.7059004,0,0,6.7059004,17.97502,35.117614)"
       style="fill:#ffffff;fill-opacity:1"
       id="g3126"><g
         style="fill:#ffffff;fill-opacity:1;stroke:#000000"
         id="g177"
         transform="matrix(0.95184269,0.35550312,-0.65951039,1.1490571,19.655377,-17.191349)"><path
           inkscape:connector-curvature="0"
           d="M 29.241,41.361 2.632,27.234 18.826,10.942 45.435,25.069 Z"
           id="path178"
           style="fill:#ffffff;fill-opacity:1;stroke:none" /></g></g><g
       transform="matrix(6.7059004,0,0,6.7059004,21.649602,35.525869)"
       id="g4092"><ellipse
         ry="1.109375"
         rx="2.78125"
         cy="-16.390625"
         cx="76.6875"
         style="color:#000000;display:inline;overflow:visible;visibility:visible;fill:#d3d7cf;fill-opacity:1;fill-rule:nonzero;stroke:none;stroke-width:1.10040188;marker:none;enable-background:accumulate"
         id="path7054"
         transform="matrix(0.66002244,-0.38106414,0.76427435,1.323762,-30.516984,66.227392)" /><rect
         transform="rotate(-120)"
         style="color:#000000;display:inline;overflow:visible;visibility:visible;fill:#ffff00;fill-opacity:1;fill-rule:nonzero;stroke:#000000;stroke-width:0.84786677;stroke-linecap:butt;stroke-linejoin:miter;stroke-miterlimit:4;stroke-dasharray:none;stroke-dashoffset:0;stroke-opacity:1;marker:none;enable-background:accumulate"
         id="rect6974"
         width="6.7829223"
         height="1.6957333"
         x="-17.466166"
         y="-1.9443368"
         rx="0.84786665"
         ry="0.84786665" /><ellipse
         ry="1.109375"
         rx="2.78125"
         cy="-16.390625"
         cx="76.6875"
         transform="matrix(0.66002244,-0.38106414,0.76427435,1.323762,-30.516984,66.227392)"
         id="path4080"
         style="color:#000000;display:inline;overflow:visible;visibility:visible;fill:#d3d7cf;fill-opacity:1;fill-rule:nonzero;stroke:none;stroke-width:1.10040188;marker:none;enable-background:accumulate" /><rect
         ry="0.84786665"
         rx="0.84786665"
         y="-1.9443368"
         x="-17.466166"
         height="1.6957333"
         width="6.7829223"
         id="rect4082"
         style="color:#000000;display:inline;overflow:visible;visibility:visible;fill:#ffff00;fill-opacity:1;fill-rule:nonzero;stroke:#000000;stroke-width:0.84786677;stroke-linecap:butt;stroke-linejoin:miter;stroke-miterlimit:4;stroke-dasharray:none;stroke-dashoffset:0;stroke-opacity:1;marker:none;enable-background:accumulate"
         transform="rotate(-120)" /></g><g
       transform="matrix(6.7059004,0,0,6.7059004,52.679408,19.194386)"
       id="g4098"><ellipse
         ry="1.109375"
         rx="2.78125"
         cy="-16.390625"
         cx="76.6875"
         transform="matrix(0.66002244,-0.38106414,0.76427435,1.323762,-30.516984,66.227392)"
         id="path4100"
         style="color:#000000;display:inline;overflow:visible;visibility:visible;fill:#d3d7cf;fill-opacity:1;fill-rule:nonzero;stroke:none;stroke-width:1.10040188;marker:none;enable-background:accumulate" /><rect
         ry="0.84786665"
         rx="0.84786665"
         y="-1.9443368"
         x="-17.466166"
         height="1.6957333"
         width="6.7829223"
         id="rect4102"
         style="color:#000000;display:inline;overflow:visible;visibility:visible;fill:#ffff00;fill-opacity:1;fill-rule:nonzero;stroke:#000000;stroke-width:0.84786677;stroke-linecap:butt;stroke-linejoin:miter;stroke-miterlimit:4;stroke-dasharray:none;stroke-dashoffset:0;stroke-opacity:1;marker:none;enable-background:accumulate"
         transform="rotate(-120)" /><ellipse
         ry="1.109375"
         rx="2.78125"
         cy="-16.390625"
         cx="76.6875"
         style="color:#000000;display:inline;overflow:visible;visibility:visible;fill:#d3d7cf;fill-opacity:1;fill-rule:nonzero;stroke:none;stroke-width:1.10040188;marker:none;enable-background:accumulate"
         id="path4104"
         transform="matrix(0.66002244,-0.38106414,0.76427435,1.323762,-30.516984,66.227392)" /><rect
         transform="rotate(-120)"
         style="color:#000000;display:inline;overflow:visible;visibility:visible;fill:#ffff00;fill-opacity:1;fill-rule:nonzero;stroke:#000000;stroke-width:0.84786677;stroke-linecap:butt;stroke-linejoin:miter;stroke-miterlimit:4;stroke-dasharray:none;stroke-dashoffset:0;stroke-opacity:1;marker:none;enable-background:accumulate"
         id="rect4106"
         width="6.7829223"
         height="1.6957333"
         x="-17.466166"
         y="-1.9443368"
         rx="0.84786665"
         ry="0.84786665" /></g><g
       id="g4108"
       transform="matrix(6.7059004,0,0,6.7059004,85.75065,4.4960587)"><ellipse
         ry="1.109375"
         rx="2.78125"
         cy="-16.390625"
         cx="76.6875"
         style="color:#000000;display:inline;overflow:visible;visibility:visible;fill:#d3d7cf;fill-opacity:1;fill-rule:nonzero;stroke:none;stroke-width:1.10040188;marker:none;enable-background:accumulate"
         id="path4110"
         transform="matrix(0.66002244,-0.38106414,0.76427435,1.323762,-30.516984,66.227392)" /><rect
         transform="rotate(-120)"
         style="color:#000000;display:inline;overflow:visible;visibility:visible;fill:#ffff00;fill-opacity:1;fill-rule:nonzero;stroke:#000000;stroke-width:0.84786677;stroke-linecap:butt;stroke-linejoin:miter;stroke-miterlimit:4;stroke-dasharray:none;stroke-dashoffset:0;stroke-opacity:1;marker:none;enable-background:accumulate"
         id="rect4112"
         width="6.7829223"
         height="1.6957333"
         x="-17.466166"
         y="-1.9443368"
         rx="0.84786665"
         ry="0.84786665" /><ellipse
         ry="1.109375"
         rx="2.78125"
         cy="-16.390625"
         cx="76.6875"
         transform="matrix(0.66002244,-0.38106414,0.76427435,1.323762,-30.516984,66.227392)"
         id="path4114"
         style="color:#000000;display:inline;overflow:visible;visibility:visible;fill:#d3d7cf;fill-opacity:1;fill-rule:nonzero;stroke:none;stroke-width:1.10040188;marker:none;enable-background:accumulate" /><rect
         ry="0.84786665"
         rx="0.84786665"
         y="-1.9443368"
         x="-17.466166"
         height="1.6957333"
         width="6.7829223"
         id="rect4116"
         style="color:#000000;display:inline;overflow:visible;visibility:visible;fill:#ffff00;fill-opacity:1;fill-rule:nonzero;stroke:#000000;stroke-width:0.84786677;stroke-linecap:butt;stroke-linejoin:miter;stroke-miterlimit:4;stroke-dasharray:none;stroke-dashoffset:0;stroke-opacity:1;marker:none;enable-background:accumulate"
         transform="rotate(-120)" /></g><g
       transform="matrix(6.7059004,0,0,6.7059004,118.82188,-12.243679)"
       id="g4118"><ellipse
         ry="1.109375"
         rx="2.78125"
         cy="-16.390625"
         cx="76.6875"
         transform="matrix(0.66002244,-0.38106414,0.76427435,1.323762,-30.516984,66.227392)"
         id="path4120"
         style="color:#000000;display:inline;overflow:visible;visibility:visible;fill:#d3d7cf;fill-opacity:1;fill-rule:nonzero;stroke:none;stroke-width:1.10040188;marker:none;enable-background:accumulate" /><rect
         ry="0.84786665"
         rx="0.84786665"
         y="-1.9443368"
         x="-17.466166"
         height="1.6957333"
         width="6.7829223"
         id="rect4122"
         style="color:#000000;display:inline;overflow:visible;visibility:visible;fill:#ffff00;fill-opacity:1;fill-rule:nonzero;stroke:#000000;stroke-width:0.84786677;stroke-linecap:butt;stroke-linejoin:miter;stroke-miterlimit:4;stroke-dasharray:none;stroke-dashoffset:0;stroke-opacity:1;marker:none;enable-background:accumulate"
         transform="rotate(-120)" /><ellipse
         ry="1.109375"
         rx="2.78125"
         cy="-16.390625"
         cx="76.6875"
         style="color:#000000;display:inline;overflow:visible;visibility:visible;fill:#d3d7cf;fill-opacity:1;fill-rule:nonzero;stroke:none;stroke-width:1.10040188;marker:none;enable-background:accumulate"
         id="path4124"
         transform="matrix(0.66002244,-0.38106414,0.76427435,1.323762,-30.516984,66.227392)" /><rect
         transform="rotate(-120)"
         style="color:#000000;display:inline;overflow:visible;visibility:visible;fill:#ffff00;fill-opacity:1;fill-rule:nonzero;stroke:#000000;stroke-width:0.84786677;stroke-linecap:butt;stroke-linejoin:miter;stroke-miterlimit:4;stroke-dasharray:none;stroke-dashoffset:0;stroke-opacity:1;marker:none;enable-background:accumulate"
         id="rect4126"
         width="6.7829223"
         height="1.6957333"
         x="-17.466166"
         y="-1.9443368"
         rx="0.84786665"
         ry="0.84786665" /></g><g
       id="g4128"
       transform="matrix(6.7059004,0,0,6.7059004,150.66827,-27.758585)"><ellipse
         ry="1.109375"
         rx="2.78125"
         cy="-16.390625"
         cx="76.6875"
         style="color:#000000;display:inline;overflow:visible;visibility:visible;fill:#d3d7cf;fill-opacity:1;fill-rule:nonzero;stroke:none;stroke-width:1.10040188;marker:none;enable-background:accumulate"
         id="path4130"
         transform="matrix(0.66002244,-0.38106414,0.76427435,1.323762,-30.516984,66.227392)" /><rect
         transform="rotate(-120)"
         style="color:#000000;display:inline;overflow:visible;visibility:visible;fill:#ffff00;fill-opacity:1;fill-rule:nonzero;stroke:#000000;stroke-width:0.84786677;stroke-linecap:butt;stroke-linejoin:miter;stroke-miterlimit:4;stroke-dasharray:none;stroke-dashoffset:0;stroke-opacity:1;marker:none;enable-background:accumulate"
         id="rect4132"
         width="6.7829223"
         height="1.6957333"
         x="-17.466166"
         y="-1.9443368"
         rx="0.84786665"
         ry="0.84786665" /><ellipse
         ry="1.109375"
         rx="2.78125"
         cy="-16.390625"
         cx="76.6875"
         transform="matrix(0.66002244,-0.38106414,0.76427435,1.323762,-30.516984,66.227392)"
         id="path4134"
         style="color:#000000;display:inline;overflow:visible;visibility:visible;fill:#d3d7cf;fill-opacity:1;fill-rule:nonzero;stroke:none;stroke-width:1.10040188;marker:none;enable-background:accumulate" /><rect
         ry="0.84786665"
         rx="0.84786665"
         y="-1.9443368"
         x="-17.466166"
         height="1.6957333"
         width="6.7829223"
         id="rect4136"
         style="color:#000000;display:inline;overflow:visible;visibility:visible;fill:#ffff00;fill-opacity:1;fill-rule:nonzero;stroke:#000000;stroke-width:0.84786677;stroke-linecap:butt;stroke-linejoin:miter;stroke-miterlimit:4;stroke-dasharray:none;stroke-dashoffset:0;stroke-opacity:1;marker:none;enable-background:accumulate"
         transform="rotate(-120)" /></g></g><path
     style="overflow:visible;opacity:0.98999999;fill:#000009;fill-opacity:1;stroke:none;stroke-width:5.79885101"
     d="m 169.58166,116.665 c -3.14239,0 -5.6823,2.52593 -5.6823,5.64477 0,1.22694 0.46681,2.35144 1.13647,3.27763 l -14.20581,16.206 c -0.56769,-0.1496 -1.08947,-0.36417 -1.70462,-0.36417 -3.82144,0 -7.00822,3.12652 -7.00822,6.91936 0,0.14387 0.18097,0.22328 0.18967,0.36418 l -12.50096,8.194 c -0.92153,-0.63774 -2.01152,-1.09248 -3.21999,-1.09248 -3.14234,0 -5.68231,2.52584 -5.68231,5.64477 0,1.90132 1.01133,3.52875 2.4623,4.5522 l -2.2729,42.24476 c -1.38472,0.75123 -2.27293,2.32926 -2.27293,4.00596 0,2.4449 2.08261,4.37017 4.54583,4.37017 0.13043,0 0.25168,0.0124 0.37868,0 l 31.06324,31.50145 c -0.003,0.0637 0,0.11774 0,0.18196 0,2.4449 1.89313,4.55221 4.35638,4.55221 0.87382,0 1.77428,-0.29748 2.46231,-0.72838 l 17.04693,8.92241 c -0.0348,0.25399 -0.18967,0.46504 -0.18967,0.72837 0,3.11892 2.53997,5.64478 5.68231,5.64478 2.94197,0 5.19633,-2.25616 5.49284,-5.09858 l 45.45834,-13.29247 c 1.03249,1.4282 2.82909,2.36716 4.73523,2.36716 3.14228,0 5.68229,-2.52583 5.68229,-5.6448 0,-1.31858 -0.56249,-2.49859 -1.32579,-3.45969 l 19.69859,-43.15516 c 3.14221,0 5.68229,-2.52588 5.68229,-5.64477 0,-2.73662 -1.94232,-4.94453 -4.54584,-5.4627 l -6.25058,-20.57614 c 0.98058,-0.81202 1.70475,-1.91088 1.70475,-3.27761 0,-2.44481 -2.08272,-4.37015 -4.54584,-4.37015 -0.20991,0 -0.3659,0.15433 -0.56829,0.18196 L 226.7832,125.40502 c 0.0406,-0.23597 0.18905,-0.48187 0.18905,-0.72832 0,-2.44494 -2.08266,-4.3702 -4.54583,-4.3702 -1.46688,0 -2.5965,0.73604 -3.40939,1.82089 l -44.13243,-1.63876 c -0.7759,-2.20281 -2.81942,-3.82388 -5.30346,-3.82388 z m 5.30344,7.64775 43.37483,1.63877 c 0.2853,0.98887 0.87591,1.79229 1.7047,2.36722 l -1.13648,4.91641 c -2.02976,0.47088 -3.64126,1.83088 -4.54583,3.6418 l -48.48888,5.82681 3.22,-14.93129 c 0.21332,0.0224 0.34791,0.18196 0.56827,0.18196 2.42039,0 4.4813,-1.52719 5.30346,-3.64185 z m 49.43597,4.37015 27.84318,33.68657 c -0.29169,0.58858 -0.56829,1.1204 -0.56829,1.82084 0,1.22251 0.51841,2.29441 1.3259,3.0956 l -2.27291,6.3731 -24.24442,-30.59101 c 0.53234,-0.97316 0.94707,-2.09234 0.94707,-3.27763 0,-2.96885 -1.88851,-5.41446 -4.54583,-6.37313 l 0.94701,-4.55221 c 0.19542,-0.0632 0.3862,-0.0933 0.56829,-0.18195 z m -57.58061,0.91047 -3.03056,13.29252 -9.28104,1.09257 c -0.0523,-0.0672 -0.13167,-0.11724 -0.18893,-0.18196 l 12.501,-14.20301 z m 47.73131,15.11342 -14.01635,54.26266 c -0.43896,0.0991 -0.91512,0.20112 -1.32583,0.36416 l -35.98792,-40.60594 16.85751,-1.82085 c 0.75691,1.37434 2.28829,2.36715 3.97761,2.36715 2.46318,0 4.35644,-2.10735 4.35644,-4.55226 0,-0.3375 -0.11725,-0.59404 -0.18968,-0.91048 l 24.24447,-8.92228 2.08348,-0.18196 z m -10.41757,1.09252 -16.8575,6.19107 c -0.81804,-0.97333 -1.84303,-1.63879 -3.21991,-1.63879 -2.46325,0 -4.54583,1.92527 -4.54583,4.37005 0,0.0602 -0.002,0.12346 0,0.1822 l -16.66806,2.00303 1.32585,-6.55525 39.96545,-4.55226 z m 17.99395,0.91041 26.32794,33.50448 -5.4929,15.29553 -32.95725,7.64781 c -0.48654,-0.8893 -1.13471,-1.52163 -1.89413,-2.18511 z m -60.23233,4.00596 -1.13645,5.28069 -4.16706,-4.73437 5.30351,-0.54625 z m -17.99394,1.82097 c 0.33634,0.40477 0.71661,0.77361 1.13651,1.09254 l -0.94705,5.28057 -11.93283,1.45673 c -0.0124,-0.0602 0.0124,-0.12297 0,-0.18196 z m 4.92467,2.54923 c 0.12869,0.005 0.24817,0 0.37867,0 0.13044,0 0.25052,0.005 0.37865,0 l 2.65179,2.91338 -3.97769,0.54628 0.56831,-3.45971 z m 5.11409,4.73436 4.92465,5.46262 -2.27298,10.01492 c -2.36958,0.10504 -4.16698,1.99243 -4.16698,4.37018 0,1.37936 0.70832,2.46573 1.70468,3.27763 l -14.96336,22.57909 8.71285,-44.97611 z m -10.22815,1.09255 -9.47045,48.98201 c -1.67916,0.33403 -2.99725,1.46313 -3.78828,2.91342 l -2.65163,-0.54624 c 0,-1.83367 -1.051,-3.51602 -2.65175,-4.18807 l 2.27285,-41.15223 c 2.51634,-0.34329 4.38926,-2.23667 4.73528,-4.73429 l 11.55398,-1.27465 z m 16.66811,6.37312 33.71491,37.69247 c -0.065,0.23548 -0.14486,0.48537 -0.18967,0.72834 l -54.55001,5.8269 c -0.352,-0.34965 -0.70172,-0.6617 -1.13648,-0.91046 L 155.56509,183.856 c 0.37344,0.10081 0.73077,0.18195 1.13645,0.18195 2.46317,0 4.54583,-1.92522 4.54583,-4.37012 0,-1.74806 -1.1695,-3.28649 -2.65175,-4.00601 l 1.7047,-8.37604 z m 94.32602,1.0925 c 0.11831,0.0348 0.25689,-0.0292 0.37866,0 l 5.11412,17.48057 -7.95527,-10.37912 2.46231,-7.10145 z m -4.92468,13.65669 7.95521,10.01493 -12.50104,2.91343 z m 8.52344,15.6597 -17.99395,39.14925 0.37866,-24.39999 c 1.90163,-0.38622 3.40938,-2.00428 3.40938,-4.00596 0,-1.62299 -1.09285,-2.9624 -2.46231,-3.64174 l 1.32585,-3.45976 15.3422,-3.6418 z m -17.42572,4.18809 -0.94701,2.36714 c -2.30487,0 -4.16705,1.90048 -4.16705,4.18807 0,1.91083 1.25794,3.52789 3.03054,4.00596 l -0.56829,27.85971 c -1.38976,0.42505 -2.50992,1.50174 -3.21993,2.73138 l -24.81266,-5.46276 c 0,-2.44479 -2.08271,-4.37013 -4.54588,-4.37013 -2.39801,0 -4.44396,1.83285 -4.54584,4.18809 l -6.06113,1.45669 7.57636,-22.94327 c 4.14463,-0.0916 7.61438,-3.17181 8.33407,-7.1015 l 29.92671,-6.91938 z m -46.02652,9.4686 c 0.52016,0.95014 1.25492,1.85963 2.08347,2.54931 l -8.71284,26.58505 -18.18333,4.55221 -29.35854,-27.49548 c 0.0406,-0.11076 0.15309,-0.24993 0.18968,-0.36418 l 53.98178,-5.82685 z m -65.72516,4.73436 0.75761,0.18196 c 0.0348,0.22428 -0.0615,0.51376 0,0.72833 l -0.75761,-0.91048 z m 4.54576,4.55226 c 0.53873,0.16752 1.11019,0.36419 1.70475,0.36419 0.12695,0 0.25343,0.005 0.37868,0 l 24.81265,23.12534 c -0.39027,-0.11076 -0.89953,-0.18196 -1.32585,-0.18196 -0.87385,0 -1.58482,0.29748 -2.27285,0.72838 l -23.29748,-24.03582 z m 67.8087,18.57309 c 0.63805,1.67048 2.26043,2.73138 4.16706,2.73138 1.84738,0 3.48991,-0.96041 4.16699,-2.54929 l 21.59272,4.73435 -42.04898,12.19997 5.11408,-15.47759 z m -13.82684,3.45971 -4.54589,13.6567 c -0.2505,0.0463 -0.52015,0.0998 -0.75762,0.18195 l -10.79635,-10.0149 z m -22.72922,5.46269 2.84113,2.73139 -3.97761,-2.18514 c 0.005,-0.1155 0,-0.24643 0,-0.36416 z"
     id="path5088"
     inkscape:connector-curvature="0" /></svg>