<?xml version="1.0" encoding="UTF-8" standalone="no"?>
<svg
   xmlns:dc="http://purl.org/dc/elements/1.1/"
   xmlns:cc="http://creativecommons.org/ns#"
   xmlns:rdf="http://www.w3.org/1999/02/22-rdf-syntax-ns#"
   xmlns:svg="http://www.w3.org/2000/svg"
   xmlns="http://www.w3.org/2000/svg"
   xmlns:xlink="http://www.w3.org/1999/xlink"
   xmlns:sodipodi="http://sodipodi.sourceforge.net/DTD/sodipodi-0.dtd"
   xmlns:inkscape="http://www.inkscape.org/namespaces/inkscape"
   version="1.1"
   width="64"
   height="64"
   color-interpolation="linearRGB"
   id="svg2"
   inkscape:version="0.91 r13725"
   sodipodi:docname="image-svg+xml-compressed.svg">
  <metadata
     id="metadata46">
    <rdf:RDF>
      <cc:Work
         rdf:about="">
        <dc:format>image/svg+xml</dc:format>
        <dc:type
           rdf:resource="http://purl.org/dc/dcmitype/StillImage" />
        <dc:title></dc:title>
      </cc:Work>
    </rdf:RDF>
  </metadata>
  <defs
     id="defs44">
    <linearGradient
       gradientTransform="translate(-8325.1799,-29.908903)"
       gradientUnits="userSpaceOnUse"
       y2="16"
       x2="109.72881"
       y1="16"
       x1="81.728813"
       id="linearGradient7588"
       xlink:href="#linearGradient7582"
       inkscape:collect="always" />
    <linearGradient
       id="linearGradient7582"
       inkscape:collect="always">
      <stop
         id="stop7584"
         offset="0"
         style="stop-color:#33ff33;stop-opacity:1" />
      <stop
         id="stop7586"
         offset="1"
         style="stop-color:#00ff00;stop-opacity:1" />
    </linearGradient>
  </defs>
  <sodipodi:namedview
     pagecolor="#ffffff"
     bordercolor="#666666"
     borderopacity="1"
     objecttolerance="10"
     gridtolerance="10"
     guidetolerance="10"
     inkscape:pageopacity="0"
     inkscape:pageshadow="2"
     inkscape:window-width="1364"
     inkscape:window-height="708"
     id="namedview42"
     showgrid="false"
     inkscape:zoom="2.3222657"
     inkscape:cx="-9.0856513"
     inkscape:cy="29.987484"
     inkscape:window-x="2"
     inkscape:window-y="30"
     inkscape:window-maximized="1"
     inkscape:current-layer="svg2" />
  <g
     id="g4">
    <path
       style="fill:#010101; fill-opacity:0.5725"
       d="M27 57L29 59L32.13 55.83L37 59L45.39 47.54L64 38L59 35L61 37L36 49L27 57z            M58 34L62 31L58 29L55 32L58 34z"
       id="path6" />
    <path
       style="fill:none; stroke:#010101; stroke-width:4"
       d="M6.25 30C6.25 30 11.87 36 16.87 42.5C21.87 49 26.25 55.75 26.25 55.75L59.12 36.87L32 15L6.25 30z"
       id="path8" />
    <radialGradient
       id="gradient0"
       gradientUnits="userSpaceOnUse"
       cx="0"
       cy="0"
       r="64"
       gradientTransform="matrix(0.5714,0,0,0.3333,26,35)">
      <stop
         offset="1"
         stop-color="#fffcc0"
         id="stop11" />
      <stop
         offset="0.4886"
         stop-color="#f1b706"
         id="stop13" />
    </radialGradient>
    <path
       style="fill:url(#gradient0)"
       d="M6.25 30C6.25 30 11.87 36 16.87 42.5C21.87 49 26.25 55.75 26.25 55.75L59.12 36.87L32 15L6.25 30z"
       id="path15" />
    <path
       style="fill:none; stroke:#010101; stroke-width:4"
       d="M2.62 30.87C2.62 30.87 10.95 36.26 19 41.87C27.44 47.75 35.75 52.75 35.75 52.75L58.12 26.37C58.12 26.37 45.44 20.7 35.37 15.37C30.18 12.62 26 9.37 26 9.37L2.62 30.87z"
       id="path17" />
    <linearGradient
       id="gradient1"
       gradientUnits="userSpaceOnUse"
       x1="107.04"
       y1="-17.09"
       x2="118.33"
       y2="27.99">
      <stop
         offset="0"
         stop-color="#ffefa5"
         id="stop20" />
      <stop
         offset="0.7424"
         stop-color="#fffcc0"
         id="stop22" />
      <stop
         offset="1"
         stop-color="#fff890"
         id="stop24" />
    </linearGradient>
    <path
       style="fill:url(#gradient1)"
       d="M2.62 30.87C2.62 30.87 10.95 36.26 19 41.87C27.44 47.75 35.75 52.75 35.75 52.75L58.12 26.37C58.12 26.37 45.44 20.7 35.37 15.37C30.18 12.62 26 9.37 26 9.37L2.62 30.87z"
       id="path26" />
    <linearGradient
       id="gradient2"
       gradientUnits="userSpaceOnUse"
       x1="-47.14"
       y1="-15.78"
       x2="-28.46"
       y2="-37.85">
      <stop
         offset="0"
         stop-color="#010101"
         id="stop29" />
      <stop
         offset="1"
         stop-color="#9e9e9e"
         id="stop31" />
    </linearGradient>
    <path
       style="fill:none; stroke:url(#gradient2); stroke-width:1"
       d="M20 36L34.87 20.87            M14 32L26.87 19            M26 40L38.75 26.87            M32 44L42.75 32.37"
       id="path33" />
    <linearGradient
       id="gradient3"
       gradientUnits="userSpaceOnUse"
       x1="-47.14"
       y1="-15.78"
       x2="-28.46"
       y2="-37.85">
      <stop
         offset="0"
         stop-color="#010101"
         id="stop36" />
      <stop
         offset="1"
         stop-color="#9e9e9e"
         id="stop38" />
    </linearGradient>
    <path
       style="fill:none; stroke:url(#gradient3); stroke-width:1"
       d="M29 42L44 26.37            M23 38L34.75 26.25            M17 34L28.12 22.62"
       id="path40" />
  </g>
  <g
     id="g9067"
     transform="translate(8277.6296,66.037825)">
    <path
       inkscape:connector-curvature="0"
       style="color-interpolation:linearRGB;fill:none;stroke:#010000;stroke-width:4;stroke-linejoin:round"
       d="m -8243.4511,-7.908903 0,-14 c 0,0 6,2 11,2 4,0 12,-2 17,-2 l 0,14 c -5,0 -13,2 -17,2 -5,0 -11,-2 -11,-2 z"
       id="path42-7" />
    <path
       inkscape:connector-curvature="0"
       style="color-interpolation:linearRGB;fill:url(#linearGradient7588);fill-opacity:1"
       d="m -8243.4511,-7.908903 0,-14 c 0,0 6,2 11,2 4,0 12,-2 17,-2 l 0,14 c -5,0 -13,2 -17,2 -5,0 -11,-2 -11,-2 z"
       id="path49-1" />
    <text
       sodipodi:linespacing="125%"
       id="text7606"
       y="-9.8137493"
       x="-8238.1719"
       style="font-style:normal;font-variant:normal;font-weight:bold;font-stretch:normal;font-size:11.25px;line-height:125%;font-family:'DejaVu Sans';-inkscape-font-specification:'DejaVu Sans Bold';letter-spacing:0px;word-spacing:0px;color-interpolation:linearRGB;fill:#000000;fill-opacity:1;stroke:none;stroke-width:1px;stroke-linecap:butt;stroke-linejoin:miter;stroke-opacity:1"
       xml:space="preserve"><tspan
         y="-9.8137493"
         x="-8238.1719"
         id="tspan7608"
         sodipodi:role="line">GZ</tspan></text>
  </g>
  <g
     style="color-interpolation:linearRGB"
     transform="matrix(1.5426287,0,0,1.5426287,-35.911236,-21.237275)"
     id="g17241">
    <path
       inkscape:connector-curvature="0"
       sodipodi:nodetypes="czz"
       id="path8488"
       d="m 43.547347,42.410843 c 12.375,-4.375 -26.25082,-25 -8,-25 18.12582,0 -4.26395,29.33574 8,25 z"
       style="display:inline;opacity:0.06300001;fill:#000000;fill-rule:evenodd;stroke:#000000;stroke-width:1px;stroke-linecap:butt;stroke-linejoin:miter;stroke-opacity:1" />
    <path
       inkscape:connector-curvature="0"
       style="opacity:0.9;fill:#a7ffff;fill-opacity:1;fill-rule:evenodd;stroke:#000000;stroke-width:1px;stroke-linecap:butt;stroke-linejoin:miter;stroke-opacity:1"
       d="m 42.547347,41.410843 c 12.375,-4.375 -26.25082,-25 -8,-25 18.12582,0 -4.26395,29.33574 8,25 z"
       id="path7317"
       sodipodi:nodetypes="czz" />
    <g
       transform="translate(165.04735,-414.08916)"
       id="g6664"
       style="opacity:0.9">
      <path
         inkscape:connector-curvature="0"
         sodipodi:nodetypes="cc"
         id="path6646"
         d="m -139.5,430.5 18,0"
         style="display:inline;fill:none;stroke:#ffffff;stroke-width:2;stroke-linecap:butt;stroke-linejoin:miter;stroke-miterlimit:4;stroke-dasharray:none;stroke-opacity:1" />
      <rect
         y="429.5"
         x="-131.5"
         height="2"
         width="2"
         id="rect6648"
         style="display:inline;fill:#729fcf;fill-opacity:1;stroke:#ffffff;stroke-width:2;stroke-linecap:round;stroke-linejoin:miter;stroke-miterlimit:4;stroke-dasharray:none;stroke-opacity:1" />
      <circle
         r="1"
         cy="453.5"
         cx="-113.5"
         transform="translate(-8,-23)"
         id="path6650"
         style="display:inline;fill:#ffffff;fill-opacity:1;stroke:#ffffff;stroke-width:2;stroke-linecap:round;stroke-linejoin:round;stroke-miterlimit:4;stroke-dasharray:none;stroke-opacity:1" />
      <circle
         r="1"
         cy="453.5"
         cx="-113.5"
         transform="translate(-26,-23)"
         id="path6652"
         style="display:inline;fill:#ffffff;fill-opacity:1;stroke:#ffffff;stroke-width:2;stroke-linecap:round;stroke-linejoin:round;stroke-miterlimit:4;stroke-dasharray:none;stroke-opacity:1" />
    </g>
    <path
       inkscape:connector-curvature="0"
       style="opacity:0.9;fill:none;stroke:#000000;stroke-width:1px;stroke-linecap:butt;stroke-linejoin:miter;stroke-opacity:1"
       d="m 25.547347,16.410843 18,0"
       id="path7321"
       sodipodi:nodetypes="cc" />
    <g
       transform="translate(165.04735,-414.08916)"
       id="g6691"
       style="opacity:0.9">
      <path
         inkscape:connector-curvature="0"
         sodipodi:nodetypes="cc"
         id="path6678"
         d="m -130.5,458.5 16,-6"
         style="fill:#ffffff;fill-rule:evenodd;stroke:#ffffff;stroke-width:2;stroke-linecap:butt;stroke-linejoin:miter;stroke-miterlimit:4;stroke-dasharray:none;stroke-opacity:1" />
      <rect
         y="454.5"
         x="-123.5"
         height="2"
         width="2"
         id="rect6681"
         style="fill:#ffffff;fill-opacity:1;stroke:#ffffff;stroke-width:2;stroke-linecap:round;stroke-linejoin:miter;stroke-miterlimit:4;stroke-dasharray:none;stroke-opacity:1" />
      <circle
         r="1"
         cy="453.5"
         cx="-113.5"
         transform="translate(-1,-1)"
         id="path6683"
         style="fill:#ffffff;fill-opacity:1;stroke:#ffffff;stroke-width:2;stroke-linecap:round;stroke-linejoin:round;stroke-miterlimit:4;stroke-dasharray:none;stroke-opacity:1" />
      <circle
         r="1"
         cy="453.5"
         cx="-113.5"
         transform="translate(-17,5)"
         id="path6685"
         style="display:inline;fill:#ffffff;fill-opacity:1;stroke:#ffffff;stroke-width:2;stroke-linecap:round;stroke-linejoin:round;stroke-miterlimit:4;stroke-dasharray:none;stroke-opacity:1" />
    </g>
    <path
       inkscape:connector-curvature="0"
       style="opacity:0.9;fill:none;stroke:#000000;stroke-width:1px;stroke-linecap:butt;stroke-linejoin:miter;stroke-opacity:1"
       d="m 34.547347,44.410843 16,-6"
       id="path7319"
       sodipodi:nodetypes="cc" />
    <rect
       style="opacity:0.9;fill:#729fcf;fill-opacity:1;stroke:#000000;stroke-width:1;stroke-linecap:round;stroke-linejoin:miter;stroke-miterlimit:4;stroke-dasharray:none;stroke-opacity:1"
       id="rect7325"
       width="2"
       height="2"
       x="41.547348"
       y="40.410843" />
    <circle
       r="1"
       cy="453.5"
       cx="-113.5"
       style="opacity:0.9;fill:#ffffff;fill-opacity:1;stroke:#000000;stroke-width:1;stroke-linecap:round;stroke-linejoin:round;stroke-miterlimit:4;stroke-dasharray:none;stroke-opacity:1"
       id="path7327"
       transform="translate(164.04735,-415.08916)" />
    <circle
       r="1"
       cy="453.5"
       cx="-113.5"
       style="display:inline;opacity:0.9;fill:#ffffff;fill-opacity:1;stroke:#000000;stroke-width:1;stroke-linecap:round;stroke-linejoin:round;stroke-miterlimit:4;stroke-dasharray:none;stroke-opacity:1"
       id="path7329"
       transform="translate(148.04735,-409.08916)" />
    <rect
       style="display:inline;opacity:0.9;fill:#729fcf;fill-opacity:1;stroke:#000000;stroke-width:1;stroke-linecap:round;stroke-linejoin:miter;stroke-miterlimit:4;stroke-dasharray:none;stroke-opacity:1"
       id="rect7331"
       width="2"
       height="2"
       x="33.547348"
       y="15.410844" />
    <circle
       r="1"
       cy="453.5"
       cx="-113.5"
       style="display:inline;opacity:0.9;fill:#ffffff;fill-opacity:1;stroke:#000000;stroke-width:1;stroke-linecap:round;stroke-linejoin:round;stroke-miterlimit:4;stroke-dasharray:none;stroke-opacity:1"
       id="path7333"
       transform="translate(157.04735,-437.08916)" />
    <circle
       r="1"
       cy="453.5"
       cx="-113.5"
       style="display:inline;opacity:0.9;fill:#ffffff;fill-opacity:1;stroke:#000000;stroke-width:1;stroke-linecap:round;stroke-linejoin:round;stroke-miterlimit:4;stroke-dasharray:none;stroke-opacity:1"
       id="path7335"
       transform="translate(139.04735,-437.08916)" />
  </g>
</svg>
