<?xml version="1.0" encoding="UTF-8" standalone="no"?>
<svg
   xmlns:dc="http://purl.org/dc/elements/1.1/"
   xmlns:cc="http://creativecommons.org/ns#"
   xmlns:rdf="http://www.w3.org/1999/02/22-rdf-syntax-ns#"
   xmlns:svg="http://www.w3.org/2000/svg"
   xmlns="http://www.w3.org/2000/svg"
   xmlns:sodipodi="http://sodipodi.sourceforge.net/DTD/sodipodi-0.dtd"
   xmlns:inkscape="http://www.inkscape.org/namespaces/inkscape"
   version="1.1"
   width="64"
   height="64"
   color-interpolation="linearRGB"
   id="svg2"
   inkscape:version="0.91 r13725"
   sodipodi:docname="image-x-ico.svg">
  <metadata
     id="metadata50">
    <rdf:RDF>
      <cc:Work
         rdf:about="">
        <dc:format>image/svg+xml</dc:format>
        <dc:type
           rdf:resource="http://purl.org/dc/dcmitype/StillImage" />
        <dc:title></dc:title>
      </cc:Work>
    </rdf:RDF>
  </metadata>
  <defs
     id="defs48">
    <radialGradient
       gradientTransform="matrix(0.5714,0,0,0.3333,26,35)"
       r="64"
       cy="0"
       cx="0"
       gradientUnits="userSpaceOnUse"
       id="gradient0">
      <stop
         id="stop11"
         stop-color="#eaeaea"
         offset="1" />
      <stop
         id="stop13"
         stop-color="#a3a3a3"
         offset="0.4886" />
    </radialGradient>
    <linearGradient
       y2="27.99"
       x2="118.33"
       y1="-17.09"
       x1="107.04"
       gradientUnits="userSpaceOnUse"
       id="gradient1">
      <stop
         id="stop20"
         stop-color="#edecec"
         offset="0" />
      <stop
         id="stop22"
         stop-color="#f5f5f5"
         offset="0.673" />
      <stop
         id="stop24"
         stop-color="#e6e6e6"
         offset="1" />
    </linearGradient>
    <linearGradient
       y2="43.63"
       x2="78.9"
       y1="10.12"
       x1="80.48"
       gradientUnits="userSpaceOnUse"
       id="gradient2">
      <stop
         id="stop29"
         stop-color="#9aa5ec"
         offset="0" />
      <stop
         id="stop31"
         stop-color="#bfd2f9"
         offset="0.5498" />
      <stop
         id="stop33"
         stop-color="#949aee"
         offset="1" />
    </linearGradient>
    <linearGradient
       y2="14.4"
       x2="-58.5"
       y1="43.08"
       x1="-62.14"
       gradientUnits="userSpaceOnUse"
       id="gradient3"
       gradientTransform="matrix(0.6608,0,0,0.7205,8.6916,7.9718)">
      <stop
         id="stop40"
         stop-opacity="0.8588"
         stop-color="#c70484"
         offset="0" />
      <stop
         id="stop42"
         stop-color="#ee058e"
         offset="0.9607" />
    </linearGradient>
  </defs>
  <sodipodi:namedview
     pagecolor="#ffffff"
     bordercolor="#666666"
     borderopacity="1"
     objecttolerance="10"
     gridtolerance="10"
     guidetolerance="10"
     inkscape:pageopacity="0"
     inkscape:pageshadow="2"
     inkscape:window-width="739"
     inkscape:window-height="1003"
     id="namedview46"
     showgrid="false"
     inkscape:zoom="3.6875"
     inkscape:cx="31.485986"
     inkscape:cy="32"
     inkscape:window-x="960"
     inkscape:window-y="30"
     inkscape:window-maximized="0"
     inkscape:current-layer="svg2" />
  <path
     inkscape:connector-curvature="0"
     id="path6"
     d="m 27,57 2,2 3.13,-3.17 L 37,59 45.39,47.54 64,38 l -5,-3 2,2 -25,12 -9,8 z m 31,-23 4,-3 -4,-2 -3,3 3,2 z"
     style="fill:#010101;fill-opacity:0.57250001" />
  <path
     inkscape:connector-curvature="0"
     id="path8"
     d="m 6.25,30 c 0,0 5.62,6 10.62,12.5 5,6.5 9.38,13.25 9.38,13.25 L 59.12,36.87 32,15 6.25,30 Z"
     style="fill:none;stroke:#010101;stroke-width:4" />
  <path
     inkscape:connector-curvature="0"
     id="path15"
     d="m 6.25,30 c 0,0 5.62,6 10.62,12.5 5,6.5 9.38,13.25 9.38,13.25 L 59.12,36.87 32,15 6.25,30 Z"
     style="fill:url(#gradient0)" />
  <path
     inkscape:connector-curvature="0"
     id="path17"
     d="m 2.62,30.87 c 0,0 8.33,5.39 16.38,11 8.44,5.88 16.75,10.88 16.75,10.88 L 58.12,26.37 c 0,0 -12.68,-5.67 -22.75,-11 C 30.18,12.62 26,9.37 26,9.37 L 2.62,30.87 Z"
     style="fill:none;stroke:#010101;stroke-width:4" />
  <path
     inkscape:connector-curvature="0"
     id="path26"
     d="m 2.62,30.87 c 0,0 8.33,5.39 16.38,11 8.44,5.88 16.75,10.88 16.75,10.88 L 58.12,26.37 c 0,0 -12.68,-5.67 -22.75,-11 C 30.18,12.62 26,9.37 26,9.37 L 2.62,30.87 Z"
     style="fill:url(#gradient1)" />
  <path
     inkscape:connector-curvature="0"
     id="path35"
     d="M 8,30 30,44 C 30,44 45,29 48,25 35,19 26,13 26,13 L 8,30 Z"
     style="fill:url(#gradient2)" />
  <path
     inkscape:connector-curvature="0"
     id="path37"
     d="M 8,30 30,44 C 30,44 45,29 48,25 35,19 26,13 26,13 L 8,30 Z"
     style="fill:#88ffe6;stroke:#010101;stroke-width:1;stroke-opacity:0.57250001;fill-opacity:1" />
  <path
     style="fill:#0000ff;fill-opacity:1;stroke:#000000;stroke-width:1;stroke-miterlimit:4;stroke-dasharray:none;stroke-opacity:1"
     d="m 20.791482,36.596327 9.366272,5.960354 c 0,0 6.386093,-6.386094 7.663313,-8.089053 -5.534616,-2.554437 -9.366272,-5.108875 -9.366272,-5.108875 l -7.663313,7.237574 z"
     id="path8503"
     inkscape:connector-curvature="0" />
  <path
     inkscape:connector-curvature="0"
     id="path8505"
     d="m 18.744909,21.057839 10.169104,6.471248 c 0,0 6.93348,-6.93348 8.320176,-8.782408 -6.009016,-2.773392 -10.169104,-5.546784 -10.169104,-5.546784 l -8.320176,7.857944 z"
     style="fill:#005000;fill-opacity:1;stroke:#000000;stroke-width:1;stroke-miterlimit:4;stroke-dasharray:none;stroke-opacity:1" />
  <path
     style="fill:#ff0000;fill-opacity:1;stroke:#000000;stroke-width:1;stroke-miterlimit:4;stroke-dasharray:none;stroke-opacity:1"
     d="m 9.7339179,29.735805 10.1691041,6.471248 c 0,0 6.933481,-6.93348 8.320177,-8.782408 -6.009016,-2.773392 -10.169105,-5.546784 -10.169105,-5.546784 l -8.3201761,7.857944 z"
     id="path8507"
     inkscape:connector-curvature="0" />
  <path
     style="fill:#ffff00;fill-opacity:1;stroke:#000000;stroke-width:1;stroke-miterlimit:4;stroke-dasharray:none;stroke-opacity:1"
     d="m 28.18757,27.577636 10.521502,6.695501 c 0,0 7.173751,-7.173751 8.608501,-9.086752 -6.217251,-2.8695 -10.521502,-5.739001 -10.521502,-5.739001 l -8.608501,8.130252 z"
     id="path8509"
     inkscape:connector-curvature="0" />
</svg>
