<?xml version="1.0" encoding="UTF-8" standalone="no"?>
<!-- Created with Sodipodi ("http://www.sodipodi.com/") -->

<svg
   xmlns:dc="http://purl.org/dc/elements/1.1/"
   xmlns:cc="http://creativecommons.org/ns#"
   xmlns:rdf="http://www.w3.org/1999/02/22-rdf-syntax-ns#"
   xmlns:svg="http://www.w3.org/2000/svg"
   xmlns="http://www.w3.org/2000/svg"
   xmlns:xlink="http://www.w3.org/1999/xlink"
   xmlns:sodipodi="http://sodipodi.sourceforge.net/DTD/sodipodi-0.dtd"
   xmlns:inkscape="http://www.inkscape.org/namespaces/inkscape"
   width="512"
   height="512"
   viewBox="0 0 511.99998 511.99997"
   overflow="visible"
   enable-background="new 0 0 50.872 46.19"
   xml:space="preserve"
   id="svg153"
   sodipodi:version="0.32pre"
   sodipodi:docname="retrosmart-note-glass.svg"
   version="1.1"
   inkscape:version="0.92.1 r"
   style="overflow:visible"><defs
     id="defs310"><inkscape:perspective
       sodipodi:type="inkscape:persp3d"
       inkscape:vp_x="0 : 36.53388 : 1"
       inkscape:vp_y="0 : 1298.9824 : 0"
       inkscape:vp_z="75.483564 : 36.53388 : 1"
       inkscape:persp3d-origin="37.741781 : 24.355919 : 1"
       id="perspective105" /><linearGradient
       inkscape:collect="always"
       xlink:href="#XMLID_1_"
       id="linearGradient2911"
       gradientUnits="userSpaceOnUse"
       gradientTransform="matrix(0.4828,0.721,0.7677,-0.514,50.3329,346.1161)"
       x1="-324.74509"
       y1="177.79491"
       x2="-310.03329"
       y2="153.6615" /><linearGradient
       inkscape:collect="always"
       xlink:href="#XMLID_1_"
       id="linearGradient2913"
       gradientUnits="userSpaceOnUse"
       gradientTransform="matrix(0.4828,0.721,0.7677,-0.514,50.3329,346.1161)"
       x1="-324.74509"
       y1="177.79491"
       x2="-310.03329"
       y2="153.6615" /><linearGradient
       inkscape:collect="always"
       xlink:href="#XMLID_3_"
       id="linearGradient2915"
       gradientUnits="userSpaceOnUse"
       gradientTransform="matrix(0.702,0.51,0.543,-0.7475,71.8123,340.4085)"
       x1="-265.06879"
       y1="257.35941"
       x2="-249.0802"
       y2="231.13139" /><linearGradient
       inkscape:collect="always"
       xlink:href="#XMLID_3_"
       id="linearGradient2917"
       gradientUnits="userSpaceOnUse"
       gradientTransform="matrix(0.702,0.51,0.543,-0.7475,71.8123,340.4085)"
       x1="-265.06879"
       y1="257.35941"
       x2="-249.0802"
       y2="231.13139" /><linearGradient
       inkscape:collect="always"
       xlink:href="#XMLID_3_"
       id="linearGradient3017"
       gradientUnits="userSpaceOnUse"
       gradientTransform="matrix(0.702,0.51,0.543,-0.7475,71.8123,340.4085)"
       x1="-265.06879"
       y1="257.35941"
       x2="-249.0802"
       y2="231.13139" /><linearGradient
       inkscape:collect="always"
       xlink:href="#XMLID_6_"
       id="linearGradient3021"
       gradientUnits="userSpaceOnUse"
       gradientTransform="matrix(1,0,0,-1,232.9102,407.9512)"
       x1="-207.7251"
       y1="387.4473"
       x2="-217.89751"
       y2="378.02939" /><linearGradient
       inkscape:collect="always"
       xlink:href="#XMLID_7_"
       id="linearGradient3023"
       gradientUnits="userSpaceOnUse"
       gradientTransform="matrix(1,0,0,-1,232.9102,407.9512)"
       x1="-205.50391"
       y1="384.91309"
       x2="-215.6445"
       y2="375.52469" /><linearGradient
       inkscape:collect="always"
       xlink:href="#XMLID_8_"
       id="linearGradient3025"
       gradientUnits="userSpaceOnUse"
       gradientTransform="matrix(1,0,0,-1,232.9102,407.9512)"
       x1="-200.31931"
       y1="383.29199"
       x2="-209.48"
       y2="376.46649" /><linearGradient
       inkscape:collect="always"
       xlink:href="#XMLID_14_"
       id="linearGradient3037"
       gradientUnits="userSpaceOnUse"
       gradientTransform="matrix(1,0,0,-1,232.9102,407.9512)"
       x1="-201.166"
       y1="380.88089"
       x2="-201.166"
       y2="376.08051" /><linearGradient
       id="XMLID_6_"
       gradientUnits="userSpaceOnUse"
       x1="-207.7251"
       y1="387.4473"
       x2="-217.89751"
       y2="378.02939"
       gradientTransform="matrix(1,0,0,-1,232.9102,407.9512)"><stop
         offset="0"
         style="stop-color:#D8DAA1"
         id="stop188" /><stop
         offset="1"
         style="stop-color:#5C5C3A"
         id="stop189" /></linearGradient><linearGradient
       id="XMLID_7_"
       gradientUnits="userSpaceOnUse"
       x1="-205.50391"
       y1="384.91309"
       x2="-215.6445"
       y2="375.52469"
       gradientTransform="matrix(1,0,0,-1,232.9102,407.9512)"><stop
         offset="0"
         style="stop-color:#D8DAA1"
         id="stop195" /><stop
         offset="1"
         style="stop-color:#5C5C3A"
         id="stop196" /></linearGradient><linearGradient
       id="XMLID_8_"
       gradientUnits="userSpaceOnUse"
       x1="-200.31931"
       y1="383.29199"
       x2="-209.48"
       y2="376.46649"
       gradientTransform="matrix(1,0,0,-1,232.9102,407.9512)"><stop
         offset="0"
         style="stop-color:#D8DAA1"
         id="stop202" /><stop
         offset="1"
         style="stop-color:#5C5C3A"
         id="stop203" /></linearGradient><linearGradient
       id="XMLID_14_"
       gradientUnits="userSpaceOnUse"
       x1="-201.166"
       y1="380.88089"
       x2="-201.166"
       y2="376.08051"
       gradientTransform="matrix(1,0,0,-1,232.9102,407.9512)"><stop
         offset="0"
         style="stop-color:#FFFFFF"
         id="stop287" /><stop
         offset="1"
         style="stop-color:#000000"
         id="stop288" /></linearGradient><linearGradient
       inkscape:collect="always"
       xlink:href="#XMLID_1_"
       id="linearGradient3920"
       x1="2.632"
       y1="26.151501"
       x2="45.435001"
       y2="26.151501"
       gradientUnits="userSpaceOnUse" /><linearGradient
       gradientTransform="matrix(0.952939,0.0449481,-0.04876282,0.896441,86.06802,62.74847)"
       gradientUnits="userSpaceOnUse"
       y2="416.78928"
       x2="206.95961"
       y1="394.80762"
       x1="225.02907"
       id="linearGradient5013"
       xlink:href="#linearGradient5007"
       inkscape:collect="always" /><linearGradient
       spreadMethod="pad"
       gradientTransform="matrix(0.821209,-1.007241,0.366658,0.268808,-114.7702,677.3001)"
       y2="493.26776"
       x2="262.50049"
       y1="510.59937"
       x1="352.3222"
       gradientUnits="userSpaceOnUse"
       id="linearGradient2824"
       xlink:href="#linearGradient2044"
       inkscape:collect="always" /><linearGradient
       y2="490.64255"
       x2="269.82303"
       y1="487.39813"
       x1="330.08414"
       gradientUnits="userSpaceOnUse"
       id="linearGradient2820"
       xlink:href="#linearGradient2044"
       inkscape:collect="always" /><linearGradient
       y2="491.95532"
       x2="273.38773"
       y1="500.13318"
       x1="319.47098"
       gradientUnits="userSpaceOnUse"
       id="linearGradient2812"
       xlink:href="#linearGradient2044"
       inkscape:collect="always" /><linearGradient
       gradientTransform="matrix(0.602331,-0.738779,0.268932,0.197162,13.09589,636.3996)"
       y2="543.08051"
       x2="274.48877"
       y1="554.83765"
       x1="354.13361"
       gradientUnits="userSpaceOnUse"
       id="linearGradient2810"
       xlink:href="#linearGradient2044"
       inkscape:collect="always" /><linearGradient
       id="linearGradient2044"><stop
         id="stop2046"
         offset="0.00000000"
         style="stop-color:#ff0000;stop-opacity:1.0000000;" /><stop
         id="stop2048"
         offset="1.0000000"
         style="stop-color:#6c0000;stop-opacity:1.0000000;" /></linearGradient><linearGradient
       id="linearGradient5007"><stop
         id="stop5009"
         offset="0.00000000"
         style="stop-color:#fefefe;stop-opacity:1.0000000;" /><stop
         id="stop5011"
         offset="1.0000000"
         style="stop-color:#474747;stop-opacity:1.0000000" /></linearGradient><inkscape:perspective
       id="perspective2955"
       inkscape:persp3d-origin="125.80593 : 86.598827 : 1"
       inkscape:vp_z="251.61188 : 129.89824 : 1"
       inkscape:vp_y="0 : 1298.9824 : 0"
       inkscape:vp_x="0 : 129.89824 : 1"
       sodipodi:type="inkscape:persp3d" /><linearGradient
       inkscape:collect="always"
       xlink:href="#XMLID_1_"
       id="linearGradient3861"
       gradientUnits="userSpaceOnUse"
       gradientTransform="matrix(0.4828,0.721,0.7677,-0.514,50.3329,346.1161)"
       x1="-324.74509"
       y1="177.79491"
       x2="-310.03329"
       y2="153.6615" /><linearGradient
       inkscape:collect="always"
       xlink:href="#XMLID_1_"
       id="linearGradient3863"
       gradientUnits="userSpaceOnUse"
       gradientTransform="matrix(0.4828,0.721,0.7677,-0.514,50.3329,346.1161)"
       x1="-324.74509"
       y1="177.79491"
       x2="-310.03329"
       y2="153.6615" /><linearGradient
       inkscape:collect="always"
       xlink:href="#XMLID_3_"
       id="linearGradient3865"
       gradientUnits="userSpaceOnUse"
       gradientTransform="matrix(0.702,0.51,0.543,-0.7475,71.8123,340.4085)"
       x1="-265.06879"
       y1="257.35941"
       x2="-249.0802"
       y2="231.13139" /><linearGradient
       inkscape:collect="always"
       xlink:href="#XMLID_1_"
       id="linearGradient3867"
       gradientUnits="userSpaceOnUse"
       x1="2.632"
       y1="26.151501"
       x2="45.435001"
       y2="26.151501" /><linearGradient
       inkscape:collect="always"
       xlink:href="#XMLID_1_"
       id="linearGradient3869"
       gradientUnits="userSpaceOnUse"
       x1="2.632"
       y1="26.151501"
       x2="45.435001"
       y2="26.151501" /><linearGradient
       inkscape:collect="always"
       xlink:href="#XMLID_5_"
       id="linearGradient3871"
       gradientUnits="userSpaceOnUse"
       gradientTransform="matrix(1,0,0,-1,232.9102,407.9512)"
       x1="-206.58591"
       y1="394.66699"
       x2="-217.3597"
       y2="383.89319" /><linearGradient
       inkscape:collect="always"
       xlink:href="#XMLID_6_"
       id="linearGradient3873"
       gradientUnits="userSpaceOnUse"
       gradientTransform="matrix(1,0,0,-1,232.9102,407.9512)"
       x1="-207.7251"
       y1="387.4473"
       x2="-217.89751"
       y2="378.02939" /><linearGradient
       inkscape:collect="always"
       xlink:href="#XMLID_7_"
       id="linearGradient3875"
       gradientUnits="userSpaceOnUse"
       gradientTransform="matrix(1,0,0,-1,232.50602,407.74912)"
       x1="-205.50391"
       y1="384.91309"
       x2="-215.6445"
       y2="375.52469" /><linearGradient
       inkscape:collect="always"
       xlink:href="#XMLID_8_"
       id="linearGradient3877"
       gradientUnits="userSpaceOnUse"
       gradientTransform="matrix(1,0,0,-1,232.9102,407.9512)"
       x1="-200.31931"
       y1="383.29199"
       x2="-209.48"
       y2="376.46649" /><linearGradient
       inkscape:collect="always"
       xlink:href="#XMLID_9_"
       id="linearGradient3879"
       gradientUnits="userSpaceOnUse"
       gradientTransform="matrix(1,0,0,-1,232.9102,407.9512)"
       x1="-196.8564"
       y1="382.28909"
       x2="-201.84669"
       y2="378.1304" /><linearGradient
       inkscape:collect="always"
       xlink:href="#linearGradient5007"
       id="linearGradient3899"
       gradientUnits="userSpaceOnUse"
       gradientTransform="matrix(-0.07058924,-0.04794123,0.08286717,-0.03104788,-36.450175,38.275032)"
       x1="225.02907"
       y1="394.80762"
       x2="206.95961"
       y2="416.78928" /><linearGradient
       inkscape:collect="always"
       xlink:href="#linearGradient2044"
       id="linearGradient3901"
       gradientUnits="userSpaceOnUse"
       gradientTransform="matrix(-0.14910211,4.2548094e-4,-0.00376183,-0.04906204,31.302343,34.489779)"
       spreadMethod="pad"
       x1="352.3222"
       y1="510.59937"
       x2="262.50049"
       y2="493.26776" /><linearGradient
       inkscape:collect="always"
       xlink:href="#linearGradient2044"
       id="linearGradient3903"
       gradientUnits="userSpaceOnUse"
       x1="330.08414"
       y1="487.39813"
       x2="269.82303"
       y2="490.64255" /><linearGradient
       inkscape:collect="always"
       xlink:href="#linearGradient2044"
       id="linearGradient3905"
       gradientUnits="userSpaceOnUse"
       gradientTransform="matrix(-0.10936162,3.1208785e-4,-0.00275925,-0.03598549,18.220657,26.609381)"
       x1="354.13361"
       y1="554.83765"
       x2="274.48877"
       y2="543.08051" /><linearGradient
       inkscape:collect="always"
       xlink:href="#linearGradient2044"
       id="linearGradient3907"
       gradientUnits="userSpaceOnUse"
       x1="319.47098"
       y1="500.13318"
       x2="273.38773"
       y2="491.95532" /><linearGradient
       inkscape:collect="always"
       xlink:href="#XMLID_8_"
       id="linearGradient3919"
       gradientUnits="userSpaceOnUse"
       gradientTransform="matrix(0.91715966,0.34254938,0.6354793,-1.107188,-25.760089,516.60183)"
       x1="-200.31931"
       y1="383.29199"
       x2="-209.48"
       y2="376.46649" /><linearGradient
       inkscape:collect="always"
       xlink:href="#XMLID_7_"
       id="linearGradient3922"
       gradientUnits="userSpaceOnUse"
       gradientTransform="matrix(0.91715966,0.34254938,0.6354793,-1.107188,-26.002369,516.23964)"
       x1="-205.50391"
       y1="384.91309"
       x2="-215.6445"
       y2="375.52469" /><linearGradient
       inkscape:collect="always"
       xlink:href="#XMLID_6_"
       id="linearGradient3925"
       gradientUnits="userSpaceOnUse"
       gradientTransform="matrix(0.91715966,0.34254938,0.6354793,-1.107188,-25.760089,516.60183)"
       x1="-207.7251"
       y1="387.4473"
       x2="-217.89751"
       y2="378.02939" /><linearGradient
       inkscape:collect="always"
       xlink:href="#XMLID_1_"
       id="linearGradient3948"
       gradientUnits="userSpaceOnUse"
       x1="2.632"
       y1="26.151501"
       x2="45.435001"
       y2="26.151501" /><linearGradient
       inkscape:collect="always"
       xlink:href="#XMLID_1_"
       id="linearGradient3950"
       gradientUnits="userSpaceOnUse"
       x1="2.632"
       y1="26.151501"
       x2="45.435001"
       y2="26.151501" /><linearGradient
       inkscape:collect="always"
       xlink:href="#XMLID_1_"
       id="linearGradient3952"
       gradientUnits="userSpaceOnUse"
       gradientTransform="matrix(0.4828,0.721,0.7677,-0.514,50.3329,346.1161)"
       x1="-324.74509"
       y1="177.79491"
       x2="-310.03329"
       y2="153.6615" /><linearGradient
       inkscape:collect="always"
       xlink:href="#XMLID_1_"
       id="linearGradient3963"
       gradientUnits="userSpaceOnUse"
       gradientTransform="matrix(-0.01537589,0.96366539,1.0307398,-0.30611947,-153.9177,385.59701)"
       x1="-324.74509"
       y1="177.79491"
       x2="-301.00253"
       y2="184.34099" /><linearGradient
       inkscape:collect="always"
       xlink:href="#XMLID_1_"
       id="linearGradient2942"
       gradientUnits="userSpaceOnUse"
       gradientTransform="matrix(0.4828,0.721,0.7677,-0.514,50.3329,346.1161)"
       x1="-324.74509"
       y1="177.79491"
       x2="-310.03329"
       y2="153.6615" /><linearGradient
       inkscape:collect="always"
       xlink:href="#XMLID_1_"
       id="linearGradient2944"
       gradientUnits="userSpaceOnUse"
       gradientTransform="matrix(-0.01537589,0.96366539,1.0307398,-0.30611947,-153.9177,385.59701)"
       x1="-324.74509"
       y1="177.79491"
       x2="-301.00253"
       y2="184.34099" /><linearGradient
       inkscape:collect="always"
       xlink:href="#XMLID_3_"
       id="linearGradient2946"
       gradientUnits="userSpaceOnUse"
       gradientTransform="matrix(0.702,0.51,0.543,-0.7475,71.8123,340.4085)"
       x1="-265.06879"
       y1="257.35941"
       x2="-249.0802"
       y2="231.13139" /><linearGradient
       inkscape:collect="always"
       xlink:href="#XMLID_1_"
       id="linearGradient2948"
       gradientUnits="userSpaceOnUse"
       x1="2.632"
       y1="26.151501"
       x2="45.435001"
       y2="26.151501" /><linearGradient
       inkscape:collect="always"
       xlink:href="#XMLID_1_"
       id="linearGradient2950"
       gradientUnits="userSpaceOnUse"
       x1="2.632"
       y1="26.151501"
       x2="45.435001"
       y2="26.151501" /><linearGradient
       inkscape:collect="always"
       xlink:href="#XMLID_5_"
       id="linearGradient2952"
       gradientUnits="userSpaceOnUse"
       gradientTransform="matrix(1,0,0,-1,232.9102,407.9512)"
       x1="-206.58591"
       y1="394.66699"
       x2="-217.3597"
       y2="383.89319" /><linearGradient
       inkscape:collect="always"
       xlink:href="#XMLID_6_"
       id="linearGradient2954"
       gradientUnits="userSpaceOnUse"
       gradientTransform="matrix(0.91715966,0.34254938,0.6354793,-1.107188,-25.760089,516.60183)"
       x1="-207.7251"
       y1="387.4473"
       x2="-217.89751"
       y2="378.02939" /><linearGradient
       inkscape:collect="always"
       xlink:href="#XMLID_7_"
       id="linearGradient2956"
       gradientUnits="userSpaceOnUse"
       gradientTransform="matrix(0.91715966,0.34254938,0.6354793,-1.107188,-26.002369,516.23964)"
       x1="-205.50391"
       y1="384.91309"
       x2="-215.6445"
       y2="375.52469" /><linearGradient
       inkscape:collect="always"
       xlink:href="#XMLID_8_"
       id="linearGradient2958"
       gradientUnits="userSpaceOnUse"
       gradientTransform="matrix(0.91715966,0.34254938,0.6354793,-1.107188,-25.760089,516.60183)"
       x1="-200.31931"
       y1="383.29199"
       x2="-209.48"
       y2="376.46649" /><linearGradient
       inkscape:collect="always"
       xlink:href="#XMLID_9_"
       id="linearGradient2960"
       gradientUnits="userSpaceOnUse"
       gradientTransform="matrix(1,0,0,-1,232.9102,407.9512)"
       x1="-196.8564"
       y1="382.28909"
       x2="-201.84669"
       y2="378.1304" /></defs><sodipodi:namedview
     id="base"
     showgrid="false"
     inkscape:zoom="0.37921143"
     inkscape:cx="432.0302"
     inkscape:cy="244.67417"
     inkscape:window-width="1365"
     inkscape:window-height="703"
     inkscape:window-x="1"
     inkscape:window-y="30"
     inkscape:window-maximized="1"
     inkscape:current-layer="svg153"
     units="px" /><metadata
     id="metadata154"><sfw
       id="sfw6"><slices
         id="slices8" /><sliceSourceBounds
         y="396.404"
         x="271.064"
         width="50.872"
         height="46.19"
         bottomLeftOrigin="true"
         id="sliceSourceBounds10" /></sfw><rdf:RDF><cc:Work
         rdf:about=""><dc:format>image/svg+xml</dc:format><dc:type
           rdf:resource="http://purl.org/dc/dcmitype/StillImage" /><dc:title></dc:title></cc:Work></rdf:RDF></metadata><g
     id="g2908"
     transform="matrix(10.768925,0,0,10.768925,-18.688059,4.2557379)"><g
       transform="matrix(0.91715966,0.34254938,-0.6354793,1.107188,19.868614,-14.860085)"
       id="g157"
       style="stroke:#000000"><linearGradient
         gradientTransform="matrix(0.4828,0.721,0.7677,-0.514,50.3329,346.1161)"
         y2="153.6615"
         x2="-310.03329"
         y1="177.79491"
         x1="-324.74509"
         gradientUnits="userSpaceOnUse"
         id="XMLID_1_"><stop
           id="stop159"
           style="stop-color:#fdfe6c;stop-opacity:1;"
           offset="0" /><stop
           id="stop160"
           style="stop-color:#fff2ff;stop-opacity:1;"
           offset="1" /></linearGradient><path
         style="fill:url(#linearGradient2942);stroke:none"
         id="path164"
         d="M 17.234,43.405 3.903,27.501 26.402,17.472 46.172,33.829 Z"
         inkscape:connector-curvature="0" /></g><path
       style="stroke:none"
       id="path165"
       d="M 3.964622,15.371908 6.5201394,41.119551 42.725431,39.964922 34.552548,11.507491 Z"
       inkscape:connector-curvature="0" /><path
       d="M 8.0919646,39.100906 5.9719719,16.925662 32.980369,13.528692 40.718081,38.411168 Z"
       id="path167"
       style="fill:url(#linearGradient2944);stroke:none"
       inkscape:connector-curvature="0" /><g
       transform="matrix(0.91715966,0.34254938,-0.6354793,1.107188,19.868614,-14.860085)"
       id="g168"
       style="stroke:#000000"><linearGradient
         gradientTransform="matrix(0.702,0.51,0.543,-0.7475,71.8123,340.4085)"
         y2="231.13139"
         x2="-249.0802"
         y1="257.35941"
         x1="-265.06879"
         gradientUnits="userSpaceOnUse"
         id="XMLID_3_"><stop
           id="stop170"
           style="stop-color:#FDFEED"
           offset="0" /><stop
           id="stop171"
           style="stop-color:#FFF24B"
           offset="1" /></linearGradient><path
         style="fill:url(#linearGradient2946);stroke:none"
         id="path175"
         d="M 29.241,41.361 2.632,27.234 18.826,10.942 45.435,25.069 Z"
         inkscape:connector-curvature="0" /></g><path
       style="stroke:none"
       id="path176"
       d="M 2.2925275,15.762521 19.398258,43.21209 48.292622,28.893334 31.187526,1.4426571 Z"
       inkscape:connector-curvature="0" /><g
       transform="matrix(0.91715966,0.34254938,-0.6354793,1.107188,19.868614,-14.860085)"
       id="g177"
       style="fill:url(#linearGradient2950);fill-opacity:1;stroke:#000000"><path
         style="fill:url(#linearGradient2948);fill-opacity:1;stroke:none"
         id="path178"
         d="M 29.241,41.361 2.632,27.234 18.826,10.942 45.435,25.069 Z"
         inkscape:connector-curvature="0" /></g><g
       transform="matrix(0.91715966,0.34254938,-0.6354793,1.107188,19.868614,-14.860085)"
       id="g179"
       style="stroke:#000000"><linearGradient
         gradientTransform="matrix(1,0,0,-1,232.9102,407.9512)"
         y2="383.89319"
         x2="-217.3597"
         y1="394.66699"
         x1="-206.58591"
         gradientUnits="userSpaceOnUse"
         id="XMLID_5_"><stop
           id="stop181"
           style="stop-color:#D8DAA1"
           offset="0" /><stop
           id="stop182"
           style="stop-color:#5C5C3A"
           offset="1" /></linearGradient><path
         style="fill:url(#linearGradient2952);stroke:none"
         id="path186"
         d="m 11.94,26.594 c -0.607,0.616 0.814,1.342 1.421,0.728 l 8.898,-9.024 C 22.562,17.99 22.58,17.471 22.3,17.14 22.019,16.808 11.94,26.594 11.94,26.594 Z"
         inkscape:connector-curvature="0" /></g><path
       style="fill:url(#linearGradient2954);stroke:none"
       id="path193"
       d="m 16.082533,21.961676 c -0.474263,0.238329 0.212086,1.503073 0.685078,1.266958 L 29.145643,17.02552 c 0.473627,-0.237221 0.820231,-0.804236 0.774406,-1.267736 -0.04611,-0.46495 -13.837516,6.203892 -13.837516,6.203892 z"
       inkscape:connector-curvature="0" /><path
       style="fill:url(#linearGradient2956);stroke:none"
       id="path200"
       d="m 32.263937,17.502997 -14.320321,7.36138 c -0.47518,0.237986 0.11923,1.497971 0.592222,1.261857 0,0 14.717235,-7.748261 14.669857,-8.210997 -0.04766,-0.464185 -0.468767,-0.648355 -0.941758,-0.41224 z"
       inkscape:connector-curvature="0" /><path
       style="fill:url(#linearGradient2958);stroke:none"
       id="path207"
       d="m 20.618147,28.069781 c -0.474544,0.236879 0.318535,1.573754 0.793079,1.336875 l 11.06517,-5.644719 c 0.474262,-0.238328 0.819314,-0.804579 0.773488,-1.268079 -0.04583,-0.4635 -12.631737,5.575923 -12.631737,5.575923 z"
       inkscape:connector-curvature="0" /><g
       transform="matrix(0.91715966,0.34254938,-0.6354793,1.107188,19.868614,-14.860085)"
       id="g208"
       style="stroke:#000000"><g
         id="g209"><linearGradient
           gradientTransform="matrix(1,0,0,-1,232.9102,407.9512)"
           y2="378.1304"
           x2="-201.84669"
           y1="382.28909"
           x1="-196.8564"
           gradientUnits="userSpaceOnUse"
           id="XMLID_9_"><stop
             id="stop211"
             style="stop-color:#D8DAA1"
             offset="0" /><stop
             id="stop212"
             style="stop-color:#5C5C3A"
             offset="1" /></linearGradient><path
           style="fill:url(#linearGradient2960);stroke:none"
           id="path216"
           d="m 35.179,24.563 -9.163,9.407 c -0.303,0.309 0.978,1.127 1.28,0.819 0,0 9.221,-9.85 8.94,-10.181 -0.281,-0.331 -0.755,-0.351 -1.057,-0.045 z"
           inkscape:connector-curvature="0" /></g></g><path
       style="opacity:0.2;stroke:none"
       id="path217"
       d="m 43.315751,35.228108 1.329507,-1.807972 4.077161,-1.285953 -2.583227,-3.296227 -6.443617,3.780917 1.95064,4.584663 -15.388911,1.410698 -5.507787,2.197002 c 0.03048,-7.16e-4 0.05998,0.0022 0.09046,0.0015 -0.03048,7.15e-4 -0.05998,-0.0022 -0.09046,-0.0015 l -0.348131,0.138883 -0.103245,-0.146123 c -2.381626,-0.04783 -4.384788,-0.757003 -6.369522,-1.49828 l 0.119431,0.255698 -7.5297449,1.557452 8.7134309,2.188159 3.416127,3.480921 8.706633,-5.008975 16.845642,-0.318055 z"
       adobe-blending-mode="multiply"
       inkscape:connector-curvature="0" /><path
       style="opacity:0.2;stroke:none"
       id="path218"
       d="m 3.348195,16.839824 10.581623,22.467684 c 1.983816,0.740935 3.986343,1.45121 6.368605,1.497938 z"
       adobe-blending-mode="multiply"
       inkscape:connector-curvature="0" /><path
       style="opacity:0.2;stroke:none"
       id="path219"
       d="m 40.507305,37.348247 -3.072829,-1.350693 -3.992313,1.924027 -5.25306,0.561726 11.532883,-6.100619 z"
       adobe-blending-mode="multiply"
       inkscape:connector-curvature="0" /></g><g
     style="overflow:visible"
     id="g4330"
     transform="matrix(1.9741215,0,0,1.9741215,259.03494,246.56798)"><g
       id="Layer_1_2_"><path
         id="path155"
         d="m 95.06,43.886 c 3.123,-4.648 1.887,-10.951 -2.763,-14.074 -4.648,-3.123 -9.405,-1.975 -14.073,2.762 l 26.18,-26.34 c 4.192,-4.482 9.426,-5.885 14.074,-2.762 4.649,3.125 5.885,9.426 2.762,14.074 z"
         inkscape:connector-curvature="0" /><path
         id="path156"
         d="m 102.942,4.868 c 0.041,-0.043 -26.138,26.295 -26.138,26.295 0,0 -0.003,0.004 -0.006,0.006 l 2.844,2.814 0.006,-0.006 c 5.45,-5.531 9.192,-4.08 11.533,-2.506 3.727,2.504 4.721,7.572 2.218,11.299 l 3.079,2.523 26.314,-26.475 0.106,-0.158 c 3.733,-5.557 2.25,-13.115 -3.307,-16.85 -5.223,-3.508 -11.603,-2.338 -16.649,3.058 z m 2.88,2.776 c 1.802,-1.926 6.446,-5.934 11.54,-2.512 2.336,1.57 3.598,4.146 3.598,6.77 0,1.527 -0.442,3.062 -1.334,4.432 -0.311,0.311 -14.438,14.525 -20.948,21.074 -0.252,-3.611 -2.034,-7.086 -5.266,-9.256 -1.603,-1.078 -3.618,-1.939 -5.931,-2.057 7.696,-7.741 18.341,-18.451 18.341,-18.451 z"
         inkscape:connector-curvature="0" /><path
         id="path157"
         d="m 69.917,40.216 8.113,-7.732 c 3.637,-4.186 9.618,-5.795 14.267,-2.672 4.649,3.123 5.886,9.426 2.763,14.074 l -4.334,4.93"
         inkscape:connector-curvature="0"
         style="fill:#cccccc" /><path
         id="path158"
         d="m 76.521,31.171 0.13,-0.135 -8.113,7.732 2.76,2.895 8.182,-7.797 0.062,-0.072 c 2.766,-3.182 7.652,-5.004 11.642,-2.322 2.336,1.568 3.599,4.146 3.599,6.77 0,1.543 -0.444,3.096 -1.354,4.473 -0.248,0.283 -4.202,4.781 -4.202,4.781 l 3.004,2.641 4.42,-5.027 0.072,-0.107 c 3.733,-5.557 2.249,-13.115 -3.308,-16.85 -5.223,-3.509 -12.327,-2.24 -16.894,3.018 z"
         inkscape:connector-curvature="0" /><g
         id="g159"
         a:adobe-knockout="true"><path
           id="path160"
           d="m 85.754,27.208 5.233,1.293 25.119,-25.1 c 0,0 -1.018,-0.826 -2.244,-1.121 -1.385,-0.334 -2.996,-0.139 -2.996,-0.139 z"
           a:adobe-knockout="false"
           inkscape:connector-curvature="0"
           style="fill:#3d3d3d" /><path
           id="path161"
           d="m 113.938,2.36 c -0.344,-0.083 -1.038,-0.213 -1.361,-0.223 -0.542,-0.017 -1,0.07 -1,0.07 l -24.795,24.717 0.84,0.264 3.237,0.474 24.478,-24.457 c 0,0 -0.58,-0.648 -1.399,-0.845 z"
           a:adobe-knockout="false"
           inkscape:connector-curvature="0"
           style="fill:#717171" /><path
           id="path162"
           d="m 114.016,2.44 c -0.172,-0.042 -1.011,-0.25 -1.173,-0.255 -0.271,-0.008 -0.554,0.089 -0.554,0.089 l -24.477,24.366 0.909,0.338 2.012,-0.156 23.836,-23.813 c -0.001,0 -0.144,-0.47 -0.553,-0.569 z"
           a:adobe-knockout="false"
           inkscape:connector-curvature="0"
           style="fill:#a5a5a5" /><path
           id="path163"
           d="M 88.841,26.356 89.82,26.768 114.093,2.52 113.109,2.233 Z"
           a:adobe-knockout="false"
           inkscape:connector-curvature="0"
           style="fill:#d9d9d9" /></g><path
         id="path164-7"
         d="m 2,66.308 c 0,15.621 20.841,27.4 48.48,27.4 27.639,0 48.48,-11.779 48.48,-27.4 C 98.96,50.685 78.118,38.906 50.48,38.906 22.841,38.905 2,50.685 2,66.308 Z"
         inkscape:connector-curvature="0"
         style="fill:#ffffff;stroke:#000000;stroke-width:4" /><path
         id="path165-5"
         d="m 50.559,114.575 c 5.113,0.982 9.687,0.799 15.543,0.799 27.639,0 48.481,-16.389 48.481,-32.012 0,-8.787 -6.716,-18.482 -17.511,-25.283 1.428,4.709 2.351,7.17 2.043,9.322 -0.309,2.154 0,0 0,0 v 19.701 c -1.434,16.85 -21.82,27.627 -48.556,27.473 z"
         a:adobe-blending-mode="multiply"
         inkscape:connector-curvature="0"
         style="opacity:0.2" /><g
         id="g166"><linearGradient
           y2="90.493202"
           x2="98.960899"
           y1="90.493202"
           x1="2"
           gradientUnits="userSpaceOnUse"
           id="XMLID_1_-3"><stop
             id="stop168"
             style="stop-color:#9494BB"
             offset="0.0056" /><stop
             id="stop169"
             style="stop-color:#9898BE"
             offset="0.1026" /><stop
             id="stop170-5"
             style="stop-color:#A5A5C6"
             offset="0.2035" /><stop
             id="stop171-6"
             style="stop-color:#BABAD3"
             offset="0.3064" /><stop
             id="stop172"
             style="stop-color:#D7D7E5"
             offset="0.4105" /><stop
             id="stop173"
             style="stop-color:#FCFCFD"
             offset="0.5147" /><stop
             id="stop174"
             style="stop-color:#FFFFFF"
             offset="0.5225" /><stop
             id="stop175"
             style="stop-color:#EBEBF2"
             offset="0.5631" /><stop
             id="stop176"
             style="stop-color:#CCCCDE"
             offset="0.6398" /><stop
             id="stop177"
             style="stop-color:#B3B3CF"
             offset="0.7198" /><stop
             id="stop178"
             style="stop-color:#A2A2C4"
             offset="0.8035" /><stop
             id="stop179"
             style="stop-color:#9797BD"
             offset="0.8933" /><stop
             id="stop180"
             style="stop-color:#9494BB"
             offset="1" /></linearGradient><path
           style="fill:url(#XMLID_1_-3)"
           id="path186-2"
           d="m 2,87.276 c 0,15.621 20.841,27.402 48.48,27.402 27.639,0 48.48,-11.781 48.48,-27.402 V 66.308 c 0,15.621 -20.842,27.4 -48.48,27.4 C 22.841,93.708 2,81.929 2,66.308 Z"
           inkscape:connector-curvature="0" /><path
           id="path187"
           d="m 2,87.276 c 0,15.621 20.841,27.402 48.48,27.402 27.639,0 48.48,-11.781 48.48,-27.402 V 66.308 c 0,15.621 -20.842,27.4 -48.48,27.4 C 22.841,93.708 2,81.929 2,66.308 Z"
           inkscape:connector-curvature="0"
           style="fill:none;stroke:#000000;stroke-width:4" /></g><g
         id="g188"><path
           id="path189"
           d="m 50.48,47.868 c -20.368,0 -36.879,8.254 -36.879,18.439 0,3.107 1.546,6.035 4.264,8.605 4.682,-7.494 18.674,-12.936 35.207,-12.936 14.148,0 26.43,3.986 32.614,9.832 1.085,-1.736 1.672,-3.586 1.672,-5.502 0,-10.184 -16.51,-18.438 -36.878,-18.438 z"
           inkscape:connector-curvature="0"
           style="fill:none;stroke:#000000;stroke-width:4" /></g><path
         id="path190"
         d="m 13.602,66.308 c 0,-10.186 16.511,-18.439 36.879,-18.439 20.367,0 36.878,8.254 36.878,18.439 0,10.184 -16.511,18.438 -36.878,18.438 C 30.112,84.745 13.602,76.491 13.602,66.308 Z"
         inkscape:connector-curvature="0"
         style="fill:none;stroke:#000000;stroke-width:4" /><g
         id="g191"><g
           id="g192"
           style="opacity:0.38999999"><path
             id="path193-9"
             d="m 50.48,83.167 c 18.018,0 32.893,-6.371 35.197,-14.625 -5.069,-6.373 -18.033,-10.906 -33.232,-10.906 -18.02,0 -32.893,6.371 -35.197,14.625 5.07,6.373 18.032,10.906 33.232,10.906 z"
             inkscape:connector-curvature="0"
             style="fill:#8c8cdf" /></g></g><g
         id="g194"
         style="opacity:0.38999999"><path
           id="path195"
           d="m 14.962,66.308 c 0,-9.312 15.901,-16.861 35.519,-16.861 19.616,0 35.519,7.549 35.519,16.861 0,9.311 -15.902,16.859 -35.519,16.859 -19.618,0 -35.519,-7.549 -35.519,-16.859 z"
           inkscape:connector-curvature="0"
           style="fill:#8c8cdf" /></g><path
         id="path196"
         d="M 95.689,54.491 129.793,20.19 c 0,0 -3.566,-3.969 -6.424,-3.236 L 90.976,48.862 Z"
         a:adobe-blending-mode="multiply"
         inkscape:connector-curvature="0"
         style="opacity:0.2" /><path
         id="path197"
         d="m 74.848,40.278 1.971,0.59 10.576,-10.34 c 0,0 -0.709,-0.324 -1.373,-0.344 -0.59,-0.016 -1.148,0.273 -1.148,0.273 z"
         inkscape:connector-curvature="0"
         style="fill:#ffffff" /><g
         id="g198"
         a:adobe-knockout="true"><path
           id="path199"
           d="m 32.217,61.177 c 1.971,-2.969 5.079,-4.377 6.941,-3.139 1.863,1.234 1.775,4.645 -0.195,7.615 -1.97,2.97 -5.078,4.375 -6.941,3.141 -1.864,-1.236 -1.776,-4.647 0.195,-7.617 z"
           a:adobe-blending-mode="lighten"
           a:adobe-knockout="false"
           inkscape:connector-curvature="0"
           style="opacity:0.5;fill:#ffffff" /><path
           id="path200-1"
           d="m 37.374,59.71 c 1.493,0.617 1.905,2.777 0.919,4.824 -0.986,2.047 -2.995,3.204 -4.488,2.587 -1.493,-0.618 -1.904,-2.778 -0.919,-4.825 0.986,-2.046 2.995,-3.205 4.488,-2.586 z"
           a:adobe-blending-mode="lighten"
           a:adobe-knockout="false"
           inkscape:connector-curvature="0"
           style="opacity:0.7;fill:#ffffff" /><path
           id="path201"
           d="m 33.557,63.415 c 0,-1.123 0.91,-2.033 2.033,-2.033 1.123,0 2.034,0.91 2.034,2.033 0,1.123 -0.911,2.033 -2.034,2.033 -1.123,0 -2.033,-0.91 -2.033,-2.033 z"
           a:adobe-blending-mode="lighten"
           a:adobe-knockout="false"
           inkscape:connector-curvature="0"
           style="opacity:0.9;fill:#ffffff" /></g><path
         id="path202"
         d="m 63.525,73.624 c 0,0 10.268,-3.889 11.48,-9.1 1.213,-5.209 2.362,0.266 2.053,1.289 -1.604,5.289 -8.498,11.742 -11.861,11.209 -3.363,-0.531 -3.543,-2.609 -1.672,-3.398 z"
         inkscape:connector-curvature="0"
         style="opacity:0.67000002;fill:#ffffff" /></g></g></svg>