<?xml version="1.0" encoding="UTF-8" standalone="no"?>
<!DOCTYPE svg PUBLIC "-//W3C//DTD SVG 20010904//EN"
"http://www.w3.org/TR/2001/REC-SVG-20010904/DTD/svg10.dtd">
<!-- Created with Sodipodi ("http://www.sodipodi.com/") -->
<svg
   width="48pt"
   height="48pt"
   viewBox="0.296 0.347 129 116"
   overflow="visible"
   enable-background="new 0.296 0.347 129 116"
   xml:space="preserve"
   xmlns="http://www.w3.org/2000/svg"
   xmlns:xml="http://www.w3.org/XML/1998/namespace"
   xmlns:sodipodi="http://sodipodi.sourceforge.net/DTD/sodipodi-0.dtd"
   xmlns:xlink="http://www.w3.org/1999/xlink"
   id="svg153"
   sodipodi:version="0.32pre"
   sodipodi:docname="/home/cschalle/gnome-themes-extras/Wasp/icons/scalable/stock/find.svg"
   sodipodi:docbase="/home/cschalle/gnome-themes-extras/Wasp/icons/scalable/stock">
  <defs
     id="defs204" />
  <sodipodi:namedview
     id="base" />
  <g
     id="Layer_1_2_">
    <path
       d="M95.06,43.886c3.123-4.648,1.887-10.951-2.763-14.074c-4.648-3.123-9.405-1.975-14.073,2.762l26.18-26.34    c4.192-4.482,9.426-5.885,14.074-2.762c4.649,3.125,5.885,9.426,2.762,14.074L95.06,43.886z"
       id="path155" />
    <path
       d="M102.942,4.868c0.041-0.043-26.138,26.295-26.138,26.295s-0.003,0.004-0.006,0.006l2.844,2.814l0.006-0.006    c5.45-5.531,9.192-4.08,11.533-2.506c3.727,2.504,4.721,7.572,2.218,11.299l3.079,2.523l26.314-26.475l0.106-0.158    c3.733-5.557,2.25-13.115-3.307-16.85C114.368-1.698,107.988-0.528,102.942,4.868z M105.822,7.644    c1.802-1.926,6.446-5.934,11.54-2.512c2.336,1.57,3.598,4.146,3.598,6.77c0,1.527-0.442,3.062-1.334,4.432    c-0.311,0.311-14.438,14.525-20.948,21.074c-0.252-3.611-2.034-7.086-5.266-9.256c-1.603-1.078-3.618-1.939-5.931-2.057    C95.177,18.354,105.822,7.644,105.822,7.644z"
       id="path156" />
    <path
       fill="#CCCCCC"
       d="M69.917,40.216l8.113-7.732c3.637-4.186,9.618-5.795,14.267-2.672c4.649,3.123,5.886,9.426,2.763,14.074    l-4.334,4.93"
       id="path157" />
    <path
       d="M76.521,31.171l0.13-0.135l-8.113,7.732l2.76,2.895l8.182-7.797l0.062-0.072c2.766-3.182,7.652-5.004,11.642-2.322    c2.336,1.568,3.599,4.146,3.599,6.77c0,1.543-0.444,3.096-1.354,4.473c-0.248,0.283-4.202,4.781-4.202,4.781l3.004,2.641    l4.42-5.027l0.072-0.107c3.733-5.557,2.249-13.115-3.308-16.85C88.192,24.644,81.088,25.913,76.521,31.171z"
       id="path158" />
    <g
       a:adobe-knockout="true"
       id="g159">
      <path
         fill="#3D3D3D"
         a:adobe-knockout="false"
         d="M85.754,27.208l5.233,1.293l25.119-25.1c0,0-1.018-0.826-2.244-1.121     c-1.385-0.334-2.996-0.139-2.996-0.139L85.754,27.208z"
         id="path160" />
      <path
         fill="#717171"
         a:adobe-knockout="false"
         d="M113.938,2.36c-0.344-0.083-1.038-0.213-1.361-0.223     c-0.542-0.017-1,0.07-1,0.07L86.782,26.924l0.84,0.264l3.237,0.474l24.478-24.457C115.337,3.205,114.757,2.557,113.938,2.36z"
         id="path161" />
      <path
         fill="#A5A5A5"
         a:adobe-knockout="false"
         d="M114.016,2.44c-0.172-0.042-1.011-0.25-1.173-0.255     c-0.271-0.008-0.554,0.089-0.554,0.089L87.812,26.64l0.909,0.338l2.012-0.156l23.836-23.813     C114.568,3.009,114.425,2.539,114.016,2.44z"
         id="path162" />
      <path
         fill="#D9D9D9"
         a:adobe-knockout="false"
         d="M88.841,26.356l0.979,0.412l24.273-24.248l-0.984-0.287L88.841,26.356z"
         id="path163" />
    </g>
    <path
       fill="#FFFFFF"
       stroke="#000000"
       stroke-width="4"
       d="M2,66.308c0,15.621,20.841,27.4,48.48,27.4    c27.639,0,48.48-11.779,48.48-27.4c0-15.623-20.842-27.402-48.48-27.402C22.841,38.905,2,50.685,2,66.308z"
       id="path164" />
    <path
       opacity="0.2"
       a:adobe-blending-mode="multiply"
       d="M50.559,114.575c5.113,0.982,9.687,0.799,15.543,0.799    c27.639,0,48.481-16.389,48.481-32.012c0-8.787-6.716-18.482-17.511-25.283c1.428,4.709,2.351,7.17,2.043,9.322    c-0.309,2.154,0,0,0,0v19.701C97.681,103.952,77.295,114.729,50.559,114.575z"
       id="path165" />
    <g
       id="g166">
      <linearGradient
         id="XMLID_1_"
         gradientUnits="userSpaceOnUse"
         x1="2"
         y1="90.4932"
         x2="98.9609"
         y2="90.4932">
        <stop
           offset="0.0056"
           style="stop-color:#9494BB"
           id="stop168" />
        <stop
           offset="0.1026"
           style="stop-color:#9898BE"
           id="stop169" />
        <stop
           offset="0.2035"
           style="stop-color:#A5A5C6"
           id="stop170" />
        <stop
           offset="0.3064"
           style="stop-color:#BABAD3"
           id="stop171" />
        <stop
           offset="0.4105"
           style="stop-color:#D7D7E5"
           id="stop172" />
        <stop
           offset="0.5147"
           style="stop-color:#FCFCFD"
           id="stop173" />
        <stop
           offset="0.5225"
           style="stop-color:#FFFFFF"
           id="stop174" />
        <stop
           offset="0.5631"
           style="stop-color:#EBEBF2"
           id="stop175" />
        <stop
           offset="0.6398"
           style="stop-color:#CCCCDE"
           id="stop176" />
        <stop
           offset="0.7198"
           style="stop-color:#B3B3CF"
           id="stop177" />
        <stop
           offset="0.8035"
           style="stop-color:#A2A2C4"
           id="stop178" />
        <stop
           offset="0.8933"
           style="stop-color:#9797BD"
           id="stop179" />
        <stop
           offset="1"
           style="stop-color:#9494BB"
           id="stop180" />
      </linearGradient>
      <path
         fill="url(#XMLID_1_)"
         d="M2,87.276c0,15.621,20.841,27.402,48.48,27.402c27.639,0,48.48-11.781,48.48-27.402V66.308     c0,15.621-20.842,27.4-48.48,27.4C22.841,93.708,2,81.929,2,66.308V87.276z"
         id="path186" />
      <path
         fill="none"
         stroke="#000000"
         stroke-width="4"
         d="M2,87.276c0,15.621,20.841,27.402,48.48,27.402     c27.639,0,48.48-11.781,48.48-27.402V66.308c0,15.621-20.842,27.4-48.48,27.4C22.841,93.708,2,81.929,2,66.308V87.276z"
         id="path187" />
    </g>
    <g
       id="g188">
      <path
         fill="none"
         stroke="#000000"
         stroke-width="4"
         d="M50.48,47.868c-20.368,0-36.879,8.254-36.879,18.439     c0,3.107,1.546,6.035,4.264,8.605c4.682-7.494,18.674-12.936,35.207-12.936c14.148,0,26.43,3.986,32.614,9.832     c1.085-1.736,1.672-3.586,1.672-5.502C87.358,56.122,70.848,47.868,50.48,47.868z"
         id="path189" />
    </g>
    <path
       fill="none"
       stroke="#000000"
       stroke-width="4"
       d="M13.602,66.308c0-10.186,16.511-18.439,36.879-18.439    c20.367,0,36.878,8.254,36.878,18.439c0,10.184-16.511,18.438-36.878,18.438C30.112,84.745,13.602,76.491,13.602,66.308z"
       id="path190" />
    <g
       id="g191">
      <g
         opacity="0.39"
         id="g192">
        <path
           fill="#8C8CDF"
           d="M50.48,83.167c18.018,0,32.893-6.371,35.197-14.625c-5.069-6.373-18.033-10.906-33.232-10.906      c-18.02,0-32.893,6.371-35.197,14.625C22.318,78.634,35.28,83.167,50.48,83.167z"
           id="path193" />
      </g>
    </g>
    <g
       opacity="0.39"
       id="g194">
      <path
         fill="#8C8CDF"
         d="M14.962,66.308c0-9.312,15.901-16.861,35.519-16.861c19.616,0,35.519,7.549,35.519,16.861     c0,9.311-15.902,16.859-35.519,16.859C30.863,83.167,14.962,75.618,14.962,66.308z"
         id="path195" />
    </g>
    <path
       opacity="0.2"
       a:adobe-blending-mode="multiply"
       d="M95.689,54.491l34.104-34.301c0,0-3.566-3.969-6.424-3.236    L90.976,48.862L95.689,54.491z"
       id="path196" />
    <path
       fill="#FFFFFF"
       d="M74.848,40.278l1.971,0.59l10.576-10.34c0,0-0.709-0.324-1.373-0.344c-0.59-0.016-1.148,0.273-1.148,0.273    L74.848,40.278z"
       id="path197" />
    <g
       a:adobe-knockout="true"
       id="g198">
      <path
         opacity="0.5"
         fill="#FFFFFF"
         a:adobe-knockout="false"
         a:adobe-blending-mode="lighten"
         d="M32.217,61.177     c1.971-2.969,5.079-4.377,6.941-3.139c1.863,1.234,1.775,4.645-0.195,7.615s-5.078,4.375-6.941,3.141     C30.158,67.558,30.246,64.147,32.217,61.177z"
         id="path199" />
      <path
         opacity="0.7"
         fill="#FFFFFF"
         a:adobe-knockout="false"
         a:adobe-blending-mode="lighten"
         d="M37.374,59.71     c1.493,0.617,1.905,2.777,0.919,4.824s-2.995,3.204-4.488,2.587c-1.493-0.618-1.904-2.778-0.919-4.825     C33.872,60.25,35.881,59.091,37.374,59.71z"
         id="path200" />
      <path
         opacity="0.9"
         fill="#FFFFFF"
         a:adobe-knockout="false"
         a:adobe-blending-mode="lighten"
         d="M33.557,63.415     c0-1.123,0.91-2.033,2.033-2.033s2.034,0.91,2.034,2.033s-0.911,2.033-2.034,2.033S33.557,64.538,33.557,63.415z"
         id="path201" />
    </g>
    <path
       opacity="0.67"
       fill="#FFFFFF"
       d="M63.525,73.624c0,0,10.268-3.889,11.48-9.1c1.213-5.209,2.362,0.266,2.053,1.289    c-1.604,5.289-8.498,11.742-11.861,11.209C61.834,76.491,61.654,74.413,63.525,73.624z"
       id="path202" />
  </g>
</svg>
