<?xml version="1.0" encoding="iso-8859-1"?>
<!-- Generator: Adobe Illustrator 9.0, SVG Export Plug-In  -->
<!DOCTYPE svg PUBLIC "-//W3C//DTD SVG 20000303 Stylable//EN"   "http://www.w3.org/TR/2000/03/WD-SVG-20000303/DTD/svg-20000303-stylable.dtd" [
	<!ENTITY st0 "fill-rule:evenodd;clip-rule:evenodd;fill:url(#aigrd1);stroke:none;">
	<!ENTITY st1 "fill-rule:nonzero;clip-rule:nonzero;fill:#FBCA11;stroke:#000000;stroke-width:2.2914;stroke-linecap:round;stroke-linejoin:round;stroke-miterlimit:4;">
	<!ENTITY st2 "fill-rule:evenodd;clip-rule:evenodd;fill:url(#aigrd3);stroke:none;">
	<!ENTITY st3 "fill-rule:evenodd;clip-rule:evenodd;fill:url(#aigrd1);">
	<!ENTITY st4 "fill:none;stroke:none;">
	<!ENTITY st5 "fill-rule:nonzero;clip-rule:nonzero;stroke:#000000;stroke-miterlimit:4;">
	<!ENTITY st6 "stroke:none;">
]>
<svg  width="24pt" height="24pt" viewBox="0 0 24 24" xml:space="preserve">
	<g id="Layer_x0020_1" style="&st1;">
		<g>
			<path d="M18.5,3.8h0l-1,0.5l-0.2-0.9l1.4-0.6h1V8h-1.2V3.8z"/>
			<path d="M17.4,19.9c0.2,0,0.3,0,0.5,0c0.4,0,0.8-0.1,1-0.3c0.3-0.2,0.6-0.6,0.7-1l0,0C19.3,18.9,19,19,18.5,19c-0.9,0-1.6-0.6-1.6-1.6c0-1,0.8-1.9,2-1.9c1.3,0,2,1,2,2.2c0,1.1-0.3,1.9-0.9,2.4c-0.5,0.5-1.2,0.7-2,0.7c-0.2,0-0.4,0-0.6,0v-1z M18.8,16.4
				c-0.4,0-0.7,0.4-0.7,0.9c0,0.5,0.2,0.8,0.7,0.8c0.3,0,0.6-0.2,0.7-0.3c0-0.1,0.1-0.2,0.1-0.3c0-0.6-0.2-1.1-0.8-1.1h0z"/>
		</g>
		<path d="M20,13.4c0,0.5-0.4,1-1,1c-0.5,0-1-0.4-1-1c0-0.5,0.4-1,1-1c0.5,0,1,0.4,1,1z"/>
		<path d="M20,10.5c0,0.5-0.4,1-1,1c-0.5,0-1-0.4-1-1c0-0.5,0.4-1,1-1c0.5,0,1,0.4,1,1z"/>
		<linearGradient id="aigrd1" gradientUnits="userSpaceOnUse" x1="2.2788" y1="12.144" x2="14.8301" y2="12.144">
			<stop  offset="0" style="stop-color:#FED182"/>
			<stop  offset="0.2809" style="stop-color:#FFB310"/>
			<stop  offset="1" style="stop-color:#996E04"/>
		</linearGradient>
		<path style="&st3;" d="M12.5,10.6c0,0-1.2-1.2-2.3-2.3v12.9H6.9V8.2c-1.2,1.2-2.3,2.3-2.3,2.3L2.3,8.3l5.1-5.1c0.6-0.6,1.7-0.6,2.3,0l5.1,5.1l-2.3,2.3z"/>
		<g style="&st6;">
			<path d="M18.5,3.8h0l-1,0.5l-0.2-0.9l1.4-0.6h1V8h-1.2V3.8z"/>
			<path d="M17.4,19.9c0.2,0,0.3,0,0.5,0c0.4,0,0.8-0.1,1-0.3c0.3-0.2,0.6-0.6,0.7-1l0,0C19.3,18.9,19,19,18.5,19c-0.9,0-1.6-0.6-1.6-1.6c0-1,0.8-1.9,2-1.9c1.3,0,2,1,2,2.2c0,1.1-0.3,1.9-0.9,2.4c-0.5,0.5-1.2,0.7-2,0.7c-0.2,0-0.4,0-0.6,0v-1z M18.8,16.4
				c-0.4,0-0.7,0.4-0.7,0.9c0,0.5,0.2,0.8,0.7,0.8c0.3,0,0.6-0.2,0.7-0.3c0-0.1,0.1-0.2,0.1-0.3c0-0.6-0.2-1.1-0.8-1.1h0z"/>
		</g>
		<path style="&st6;" d="M20,13.4c0,0.5-0.4,1-1,1c-0.5,0-1-0.4-1-1c0-0.5,0.4-1,1-1c0.5,0,1,0.4,1,1z"/>
		<path style="&st6;" d="M20,10.5c0,0.5-0.4,1-1,1c-0.5,0-1-0.4-1-1c0-0.5,0.4-1,1-1c0.5,0,1,0.4,1,1z"/>
		<path style="&st0;" d="M12.5,10.6c0,0-1.2-1.2-2.3-2.3v12.9H6.9V8.2c-1.2,1.2-2.3,2.3-2.3,2.3L2.3,8.3l5.1-5.1c0.6-0.6,1.7-0.6,2.3,0l5.1,5.1l-2.3,2.3z"/>
		<linearGradient id="aigrd3" gradientUnits="userSpaceOnUse" x1="15.9063" y1="12.0239" x2="8.9972" y2="12.0239">
			<stop  offset="0" style="stop-color:#FED182"/>
			<stop  offset="0.2809" style="stop-color:#FFB310"/>
			<stop  offset="1" style="stop-color:#996E04"/>
		</linearGradient>
		<path style="&st2;" d="M8.6,20.7V3.3l4.9,4.9l-1.2,1.2L9.6,6.8v13.9h-1z"/>
	</g>
	<g id="Layer_x0020_2" style="&st5;">
		<path style="&st4;" d="M24,24H0V0h24v24z"/>
	</g>
</svg>
