<?xml version="1.0" encoding="UTF-8" standalone="no"?>
<!-- Created with Inkscape (http://www.inkscape.org/) -->
<svg
   xmlns:dc="http://purl.org/dc/elements/1.1/"
   xmlns:cc="http://creativecommons.org/ns#"
   xmlns:rdf="http://www.w3.org/1999/02/22-rdf-syntax-ns#"
   xmlns:svg="http://www.w3.org/2000/svg"
   xmlns="http://www.w3.org/2000/svg"
   xmlns:xlink="http://www.w3.org/1999/xlink"
   xmlns:sodipodi="http://sodipodi.sourceforge.net/DTD/sodipodi-0.dtd"
   xmlns:inkscape="http://www.inkscape.org/namespaces/inkscape"
   version="1.0"
   width="128"
   height="128"
   id="svg2"
   sodipodi:version="0.32"
   inkscape:version="0.46"
   sodipodi:docname="springlobby.svg"
   inkscape:output_extension="org.inkscape.output.svg.inkscape">
  <metadata
     id="metadata29">
    <rdf:RDF>
      <cc:Work
         rdf:about="">
        <dc:format>image/svg+xml</dc:format>
        <dc:type
           rdf:resource="http://purl.org/dc/dcmitype/StillImage" />
      </cc:Work>
    </rdf:RDF>
  </metadata>
  <sodipodi:namedview
     inkscape:window-height="951"
     inkscape:window-width="1280"
     inkscape:pageshadow="2"
     inkscape:pageopacity="0.0"
     guidetolerance="10.0"
     gridtolerance="10.0"
     objecttolerance="10.0"
     borderopacity="1.0"
     bordercolor="#666666"
     pagecolor="#ffffff"
     id="base"
     showgrid="false"
     inkscape:zoom="5.0098609"
     inkscape:cx="75.34802"
     inkscape:cy="61.690035"
     inkscape:window-x="0"
     inkscape:window-y="0"
     inkscape:current-layer="svg2" />
  <defs
     id="defs4">
    <inkscape:perspective
       sodipodi:type="inkscape:persp3d"
       inkscape:vp_x="0 : 526.18109 : 1"
       inkscape:vp_y="0 : 1000 : 0"
       inkscape:vp_z="744.09448 : 526.18109 : 1"
       inkscape:persp3d-origin="372.04724 : 350.78739 : 1"
       id="perspective31" />
    <linearGradient
       id="linearGradient7128">
      <stop
         style="stop-color:#f5a87e;stop-opacity:1"
         offset="0"
         id="stop7130" />
      <stop
         style="stop-color:#ffffff;stop-opacity:1"
         offset="1"
         id="stop7132" />
    </linearGradient>
    <linearGradient
       id="linearGradient5180">
      <stop
         style="stop-color:#ffe300;stop-opacity:1"
         offset="0"
         id="stop5182" />
      <stop
         style="stop-color:#ffdd00;stop-opacity:0.29896906"
         offset="1"
         id="stop5184" />
    </linearGradient>
    <linearGradient
       id="linearGradient5162">
      <stop
         style="stop-color:#ffe300;stop-opacity:0"
         offset="0"
         id="stop5164" />
      <stop
         style="stop-color:#000000;stop-opacity:1"
         offset="1"
         id="stop5166" />
    </linearGradient>
    <linearGradient
       id="linearGradient5142">
      <stop
         style="stop-color:#ffffff;stop-opacity:1"
         offset="0"
         id="stop5144" />
      <stop
         style="stop-color:#ffe300;stop-opacity:1"
         offset="1"
         id="stop5146" />
    </linearGradient>
    <linearGradient
       x1="227.5757"
       y1="406.87469"
       x2="383.85803"
       y2="569.50922"
       id="linearGradient5148"
       xlink:href="#linearGradient5142"
       gradientUnits="userSpaceOnUse" />
    <linearGradient
       x1="383.83774"
       y1="569.48895"
       x2="676.80225"
       y2="808.39429"
       id="linearGradient5172"
       xlink:href="#linearGradient5162"
       gradientUnits="userSpaceOnUse" />
    <linearGradient
       x1="268.57141"
       y1="418.07648"
       x2="206.63196"
       y2="316.78485"
       id="linearGradient7136"
       xlink:href="#linearGradient7128"
       gradientUnits="userSpaceOnUse" />
  </defs>
  <g
     id="layer1"
     transform="matrix(0.1948277,0,0,0.1948277,-12.454744,-33.319582)">
    <path
       d="M 301.02546,353.33662 L 385.42368,194.16767 L 469.34599,346.05509 L 639.53275,275.54066 L 590.84017,434.10284 L 714.31769,462.92134 L 603.88019,584.47053 L 180.81731,583.46037 C 180.81731,583.46037 59.701803,467.97371 71.31127,464.86296 C 82.920737,461.75221 187.54856,442.24267 187.54856,442.24267 L 144.25335,276.3252 L 301.02546,353.33662 z"
       style="fill:url(#linearGradient7136);fill-opacity:1;fill-rule:evenodd;stroke:#000000;stroke-width:13.19999981;stroke-linecap:butt;stroke-linejoin:round;stroke-miterlimit:4;stroke-dasharray:none;stroke-opacity:1"
       id="path6157" />
    <path
       d="M 624.27428,571.52954 C 624.27428,698.72888 521.15884,801.84432 393.95951,801.84432 C 266.76017,801.84432 163.64473,698.72888 163.64473,571.52954 C 163.64473,444.3302 266.76017,341.21476 393.95951,341.21476 C 521.15884,341.21476 624.27428,444.3302 624.27428,571.52954 L 624.27428,571.52954 z"
       style="fill:url(#linearGradient5148);fill-opacity:1;fill-rule:evenodd;stroke:#000000;stroke-width:13.10000038;stroke-linecap:butt;stroke-linejoin:miter;stroke-miterlimit:4;stroke-dasharray:none;stroke-opacity:1"
       id="path2221" />
    <path
       d="M 624.27428,571.52954 C 624.27428,698.72888 521.15884,801.84432 393.95951,801.84432 C 266.76017,801.84432 163.64473,698.72888 163.64473,571.52954 C 163.64473,444.3302 266.76017,341.21476 393.95951,341.21476 C 521.15884,341.21476 624.27428,444.3302 624.27428,571.52954 L 624.27428,571.52954 z"
       transform="translate(2.03092e-2,2.03054e-2)"
       style="fill:url(#linearGradient5172);fill-opacity:1;fill-rule:evenodd;stroke:#000000;stroke-width:19.20000076;stroke-linecap:butt;stroke-linejoin:miter;stroke-miterlimit:4;stroke-dasharray:none;stroke-opacity:1"
       id="path5170" />
    <path
       d="M 624.27428,571.52954 C 624.27428,698.72888 521.15884,801.84432 393.95951,801.84432 C 266.76017,801.84432 163.64473,698.72888 163.64473,571.52954 C 163.64473,444.3302 266.76017,341.21476 393.95951,341.21476 C 521.15884,341.21476 624.27428,444.3302 624.27428,571.52954 L 624.27428,571.52954 z"
       transform="matrix(0.8449327,0,0,0.8449327,58.845146,90.074416)"
       style="fill:#ffe300;fill-opacity:0.1842105;fill-rule:evenodd;stroke:none;stroke-width:13.10000038;stroke-linecap:butt;stroke-linejoin:miter;stroke-miterlimit:4;stroke-dasharray:none;stroke-opacity:1"
       id="path5174" />
    <path
       d="M 353.5534,529.10315 C 353.55708,553.6556 343.60627,573.5632 331.33004,573.5632 C 319.05382,573.5632 309.10301,553.6556 309.10669,529.10315 C 309.10301,504.5507 319.05382,484.6431 331.33004,484.6431 C 343.60627,484.6431 353.55708,504.5507 353.5534,529.10315 L 353.5534,529.10315 z"
       transform="matrix(1,0,0,0.7045455,0,151.27517)"
       style="fill:#000000;fill-opacity:0.72368421;stroke-width:5217864335821969031168;stroke-miterlimit:4;stroke-dasharray:none"
       id="path3194" />
    <path
       d="M 353.5534,529.10315 C 353.55708,553.6556 343.60627,573.5632 331.33004,573.5632 C 319.05382,573.5632 309.10301,553.6556 309.10669,529.10315 C 309.10301,504.5507 319.05382,484.6431 331.33004,484.6431 C 343.60627,484.6431 353.55708,504.5507 353.5534,529.10315 L 353.5534,529.10315 z"
       transform="matrix(9.1424418e-3,-0.6031951,0.7953919,6.9332818e-3,47.867695,705.82639)"
       style="fill:#000000;fill-opacity:0.72368421;stroke-width:1175966421647293184030221008896;stroke-miterlimit:4;stroke-dasharray:none"
       id="path3196" />
    <path
       d="M 296.98485,660.423 C 296.98485,660.423 325.26912,696.78849 383.85797,698.80879 C 442.44681,700.8291 488.91383,662.4433 488.91383,593.75293"
       style="fill:none;fill-rule:evenodd;stroke:#000000;stroke-width:36.01582336;stroke-linecap:round;stroke-linejoin:miter;stroke-miterlimit:4;stroke-dasharray:none;stroke-opacity:1"
       id="path3200" />
    <path
       d="M 262.63966,494.75798 C 262.63966,494.75798 270.72088,444.25035 311.12698,432.12852"
       style="fill:none;fill-rule:evenodd;stroke:#000000;stroke-width:29.21099091;stroke-linecap:round;stroke-linejoin:miter;stroke-miterlimit:4;stroke-dasharray:none;stroke-opacity:1"
       id="path3202" />
  </g>
</svg>
