<?xml version="1.0" encoding="UTF-8" standalone="no"?>
<svg
   xmlns:dc="http://purl.org/dc/elements/1.1/"
   xmlns:cc="http://creativecommons.org/ns#"
   xmlns:rdf="http://www.w3.org/1999/02/22-rdf-syntax-ns#"
   xmlns:svg="http://www.w3.org/2000/svg"
   xmlns="http://www.w3.org/2000/svg"
   xmlns:xlink="http://www.w3.org/1999/xlink"
   xmlns:sodipodi="http://sodipodi.sourceforge.net/DTD/sodipodi-0.dtd"
   xmlns:inkscape="http://www.inkscape.org/namespaces/inkscape"
   version="1.1"
   width="64"
   height="64"
   color-interpolation="linearRGB"
   id="svg2"
   sodipodi:version="0.32"
   inkscape:version="0.91 r13725"
   sodipodi:docname="state-information.svg"
   inkscape:output_extension="org.inkscape.output.svg.inkscape">
  <metadata
     id="metadata45">
    <rdf:RDF>
      <cc:Work
         rdf:about="">
        <dc:format>image/svg+xml</dc:format>
        <dc:type
           rdf:resource="http://purl.org/dc/dcmitype/StillImage" />
        <dc:title></dc:title>
      </cc:Work>
    </rdf:RDF>
  </metadata>
  <defs
     id="defs43">
    <inkscape:perspective
       sodipodi:type="inkscape:persp3d"
       inkscape:vp_x="0 : 32 : 1"
       inkscape:vp_y="0 : 1000 : 0"
       inkscape:vp_z="64 : 32 : 1"
       inkscape:persp3d-origin="32 : 21.333333 : 1"
       id="perspective47" />
    <inkscape:perspective
       id="perspective2502"
       inkscape:persp3d-origin="32 : 21.333333 : 1"
       inkscape:vp_z="64 : 32 : 1"
       inkscape:vp_y="0 : 1000 : 0"
       inkscape:vp_x="0 : 32 : 1"
       sodipodi:type="inkscape:persp3d" />
    <radialGradient
       inkscape:collect="always"
       xlink:href="#gradient7"
       id="radialGradient2551"
       gradientUnits="userSpaceOnUse"
       gradientTransform="matrix(0.5714,0,0,0.3333,26,35)"
       cx="0"
       cy="0"
       r="64" />
    <linearGradient
       inkscape:collect="always"
       xlink:href="#linearGradient2518"
       id="linearGradient2553"
       gradientUnits="userSpaceOnUse"
       x1="107.04"
       y1="-17.09"
       x2="118.33"
       y2="27.99" />
    <linearGradient
       inkscape:collect="always"
       xlink:href="#linearGradient2518"
       id="linearGradient2555"
       gradientUnits="userSpaceOnUse"
       x1="-47.139999"
       y1="-15.78"
       x2="-28.459999"
       y2="-37.849998" />
    <linearGradient
       inkscape:collect="always"
       xlink:href="#linearGradient2523"
       id="linearGradient2557"
       gradientUnits="userSpaceOnUse"
       x1="-47.139999"
       y1="-15.78"
       x2="-28.459999"
       y2="-37.849998" />
    <radialGradient
       inkscape:collect="always"
       xlink:href="#gradient7"
       id="radialGradient7545"
       gradientUnits="userSpaceOnUse"
       gradientTransform="matrix(0.2031,0,0,0.2031,19,9.43)"
       cx="0"
       cy="0"
       r="64" />
  </defs>
  <sodipodi:namedview
     inkscape:window-height="1016"
     inkscape:window-width="1920"
     inkscape:pageshadow="2"
     inkscape:pageopacity="0.0"
     guidetolerance="10.0"
     gridtolerance="10.0"
     objecttolerance="10.0"
     borderopacity="1.0"
     bordercolor="#666666"
     pagecolor="#ffffff"
     id="base"
     showgrid="false"
     inkscape:zoom="11.046402"
     inkscape:cx="31.682557"
     inkscape:cy="29.688639"
     inkscape:window-x="0"
     inkscape:window-y="30"
     inkscape:current-layer="svg2"
     inkscape:window-maximized="1" />
  <g
     id="g8102"
     transform="matrix(1.6880244,0,0,1.6880244,-1.5769618,-71.053432)">
    <path
       sodipodi:nodetypes="cscssscsssssccsscssscssssssssscc"
       inkscape:connector-curvature="0"
       id="path7465"
       d="m 24.278505,68.38947 c -1.013381,-0.214591 -1.928714,-0.654993 -2.740174,-1.319253 l -0.356539,-0.291651 -0.683597,0.342128 c -1.457744,0.730101 -2.780913,1.001999 -4.540766,0.933719 -1.899569,-0.07315 -3.672924,-0.657918 -4.930754,-1.624315 l -0.466844,-0.35871 -0.6940234,0.229224 C 8.1032358,66.882938 6.2256603,66.573973 4.7161345,65.452729 4.0543064,64.961118 3.5399965,64.324901 3.1589094,63.526767 2.4277476,61.995359 2.4445645,60.396161 3.2080902,58.848659 3.8240124,57.600367 4.9447757,56.640555 6.348978,56.158699 6.9874587,55.939229 7.1979222,55.909967 8.1315615,55.906796 l 1.0586296,0 0.1404505,-0.434305 c 0.7265024,-2.246389 2.4979614,-3.872898 4.9365544,-4.533012 0.982336,-0.266046 2.552055,-0.185331 3.911228,0.2024 0.159705,0.04633 0.236449,-0.04633 0.579559,-0.690841 2.201669,-4.138701 6.974252,-5.577198 10.88813,-3.281794 0.816247,0.47893 2.008859,1.65065 2.612683,2.567301 0.649408,0.98566 1.002957,1.880361 1.329785,3.364949 0.03865,0.175575 0.119076,0.245074 0.33274,0.287748 1.963816,0.392362 3.611332,1.82891 4.350789,3.793403 0.693781,1.843296 0.608911,3.977999 -0.22425,5.6406 -0.801489,1.599443 -1.911675,2.585102 -3.541381,3.144748 -0.365511,0.126805 -0.709278,0.160945 -1.473525,0.156067 -0.867965,0 -1.079732,-0.03658 -1.638493,-0.247025 -0.571283,-0.214591 -0.650175,-0.224346 -0.718931,-0.102417 -0.145826,0.260679 -0.768456,0.936644 -1.20909,1.312668 -0.542838,0.463324 -1.394505,0.91543 -2.197565,1.166602 -0.771366,0.241415 -2.189633,0.306037 -2.990381,0.136557 z"
       style="fill:#000000;fill-opacity:0.39607843;stroke:none;stroke-width:0.60000002;stroke-miterlimit:4;stroke-dasharray:none;stroke-opacity:1" />
    <path
       style="fill:#fdffff;fill-opacity:1;stroke:#000000;stroke-width:1.46312773;stroke-miterlimit:4;stroke-dasharray:none;stroke-opacity:1"
       d="m 22.907986,65.64391 c -0.992447,-0.209713 -1.888869,-0.64158 -2.683567,-1.291941 l -0.349171,-0.285796 -0.669475,0.335055 c -1.427627,0.714982 -2.72346,0.981271 -4.446955,0.914456 -1.860326,-0.07316 -3.597045,-0.644265 -4.8288879,-1.590909 L 9.472731,63.373624 8.793046,63.597971 C 7.0668879,64.168346 5.2281022,63.865724 3.7497625,62.767646 3.1016075,62.286277 2.5979226,61.663229 2.224709,60.881676 1.5086532,59.381725 1.5251229,57.815446 2.2728744,56.300134 2.8760718,55.077691 3.9736807,54.137632 5.3488729,53.665773 5.9741627,53.451181 6.1802784,53.421919 7.0946291,53.418992 l 1.036759,0 0.1375485,-0.425281 c 0.7114939,-2.199814 2.4463544,-3.792916 4.8345674,-4.439373 0.962043,-0.260439 2.499332,-0.180453 3.830424,0.19996 0.156406,0.04389 0.231565,-0.04389 0.567586,-0.676696 2.156183,-4.053108 6.830172,-5.461856 10.663193,-3.213761 0.799382,0.468932 1.967353,1.616512 2.558704,2.514142 0.635991,0.965419 0.982238,1.84159 1.302313,3.29545 0.03784,0.173137 0.116613,0.238977 0.325866,0.281897 1.923242,0.384314 3.53672,1.791112 4.260903,3.714881 0.679448,1.805254 0.596332,3.89582 -0.219614,5.524037 -0.78493,1.566278 -1.872182,2.531942 -3.468219,3.079884 -0.357959,0.121927 -0.694623,0.158506 -1.443082,0.153628 -0.850036,0 -1.057424,-0.03658 -1.604643,-0.241417 -0.559481,-0.209713 -0.636742,-0.221906 -0.704079,-0.09998 -0.142802,0.255316 -0.752577,0.917381 -1.18411,1.285602 -0.531622,0.453812 -1.365696,0.896654 -2.152162,1.142458 -0.755431,0.236539 -2.144398,0.299698 -2.928609,0.134121 z"
       id="path12728"
       inkscape:connector-curvature="0"
       sodipodi:nodetypes="cscssscsssssccsscssscssssssssscc" />
    <path
       sodipodi:nodetypes="cccc"
       inkscape:connector-curvature="0"
       id="path12817"
       d="m 15.105022,49.221812 c 1.130546,5.042188 3.371286,7.259888 5.494947,8.925487 -1.928754,-2.989527 -4.253304,-6.053266 -3.03426,-8.452581 z"
       style="fill:#cbcbcb;fill-opacity:0.87029263;fill-rule:evenodd;stroke:none;stroke-width:1px;stroke-linecap:butt;stroke-linejoin:miter;stroke-opacity:1" />
    <path
       style="fill:#cbcbcb;fill-opacity:0.87029263;fill-rule:evenodd;stroke:none;stroke-width:1px;stroke-linecap:butt;stroke-linejoin:miter;stroke-opacity:1"
       d="m 30.437107,62.438391 c -0.606427,-2.704639 -1.808365,-3.894218 -2.947501,-4.787649 1.034588,1.603588 2.281481,3.246984 1.627583,4.533981 z"
       id="path12819"
       inkscape:connector-curvature="0"
       sodipodi:nodetypes="cccc" />
    <path
       sodipodi:nodetypes="cccc"
       inkscape:connector-curvature="0"
       id="path12821"
       d="m 31.517826,51.259927 c -2.170293,1.365063 -2.669441,2.587848 -2.929198,3.66356 0.958059,-1.258591 1.849024,-2.672623 3.340695,-2.694968 z"
       style="fill:#cbcbcb;fill-opacity:0.87029263;fill-rule:evenodd;stroke:none;stroke-width:1px;stroke-linecap:butt;stroke-linejoin:miter;stroke-opacity:1" />
    <path
       style="fill:#cbcbcb;fill-opacity:0.87029263;fill-rule:evenodd;stroke:none;stroke-width:1px;stroke-linecap:butt;stroke-linejoin:miter;stroke-opacity:1"
       d="m 10.399565,63.139615 c 3.323625,-3.008031 0.410593,-3.441267 -0.211517,-3.717084 0.752872,0.488121 2.014974,1.136018 -0.3533845,3.101631 z"
       id="path12823"
       inkscape:connector-curvature="0"
       sodipodi:nodetypes="cccc" />
  </g>
  <g
     id="g2422"
     transform="matrix(0.6474964,0,0,0.6474964,21.849286,22.225979)">
    <path
       id="path2424"
       d="m 36,42 -4,22 4,0 10,-10 3,0 7,-7 -10,-5 -10,0 z m 18,0 c -5.53,0 -10,2.46 -10,5.5 0,3.03 4.47,5.5 10,5.5 5.52,0 10,-2.47 10,-5.5 C 64,44.46 59.52,42 54,42 Z"
       style="fill:#000000;fill-opacity:0.32939998"
       inkscape:connector-curvature="0" />
    <path
       id="path2426"
       d="m 34,45 0,-24 -13,-5 -11,6 0,3 4,3 0,11 -8,5 0,4 26,14 10,-10 0,-4 -8,-3 z"
       style="fill:none;stroke:#000000;stroke-width:4"
       inkscape:connector-curvature="0" />
    <linearGradient
       y2="-34.419998"
       x2="56.75"
       y1="-43.139999"
       x1="25.16"
       gradientUnits="userSpaceOnUse"
       id="linearGradient2508">
      <stop
         id="stop2429"
         stop-color="#227aff"
         offset="0" />
      <stop
         id="stop2431"
         stop-color="#0025e5"
         offset="1" />
    </linearGradient>
    <path
       id="path2433"
       d="m 24,53 0,-25 -14,-6 0,3 4.03,3.26 L 14,48 6,44 l 0,4 26,14 0,-5 -8,-4 z"
       style="fill:url(#radialGradient2551);fill-opacity:1"
       inkscape:connector-curvature="0" />
    <linearGradient
       y2="-60.169998"
       x2="65.470001"
       y1="-64.5"
       x1="46.77"
       gradientUnits="userSpaceOnUse"
       id="linearGradient2513">
      <stop
         id="stop2436"
         stop-color="#000081"
         offset="0" />
      <stop
         id="stop2438"
         stop-color="#0909b7"
         offset="1" />
    </linearGradient>
    <path
       id="path2440"
       d="m 32,57 0,5 10,-10 0,-4 -10,9 z"
       style="fill:url(#linearGradient2553);fill-opacity:1"
       inkscape:connector-curvature="0" />
    <linearGradient
       y2="-60.169998"
       x2="65.470001"
       y1="-64.5"
       x1="46.77"
       gradientUnits="userSpaceOnUse"
       id="linearGradient2518">
      <stop
         id="stop2443"
         stop-color="#000081"
         offset="0" />
      <stop
         id="stop2445"
         stop-color="#0909b7"
         offset="1" />
    </linearGradient>
    <path
       id="path2447"
       d="m 24,53 10,-8 0,-24 -10,7 0,25 z"
       style="fill:url(#linearGradient2555);fill-opacity:1"
       inkscape:connector-curvature="0" />
    <linearGradient
       y2="31.35"
       x2="29.9"
       y1="37.580002"
       x1="17.32"
       gradientUnits="userSpaceOnUse"
       id="linearGradient2523">
      <stop
         id="stop2450"
         stop-color="#050ec5"
         offset="0" />
      <stop
         id="stop2452"
         stop-color="#062fe3"
         offset="1" />
    </linearGradient>
    <path
       id="path2454"
       d="M 42,48 34,45 24,53 36.4,53.03 42,48 Z"
       style="fill:url(#linearGradient2557);fill-opacity:1"
       inkscape:connector-curvature="0" />
    <linearGradient
       y2="10.9"
       x2="12.76"
       y1="21.52"
       x1="-8.6300001"
       gradientUnits="userSpaceOnUse"
       id="gradient4">
      <stop
         id="stop2457"
         stop-color="#67b5ff"
         offset="0" />
      <stop
         id="stop2459"
         stop-color="#3b79f6"
         offset="1" />
    </linearGradient>
    <path
       id="path2461"
       d="m 24,53 8,4 4.4,-3.97 L 24,53 Z"
       style="fill:url(#gradient4)"
       inkscape:connector-curvature="0" />
    <linearGradient
       y2="10.9"
       x2="12.76"
       y1="21.52"
       x1="-8.6300001"
       gradientUnits="userSpaceOnUse"
       id="gradient5">
      <stop
         id="stop2464"
         stop-color="#67b5ff"
         offset="0" />
      <stop
         id="stop2466"
         stop-color="#3b79f6"
         offset="1" />
    </linearGradient>
    <path
       id="path2468"
       d="m 6,44 8,4 0,-9 -8,5 z"
       style="fill:url(#gradient5)"
       inkscape:connector-curvature="0" />
    <radialGradient
       gradientTransform="matrix(0.3125,0,0,0.1406,30,22)"
       r="64"
       cy="0"
       cx="0"
       gradientUnits="userSpaceOnUse"
       id="gradient6">
      <stop
         id="stop2471"
         stop-color="#0530d1"
         offset="0" />
      <stop
         id="stop2473"
         stop-color="#67b5ff"
         offset="1" />
    </radialGradient>
    <path
       id="path2475"
       d="M 21,16 10,22 24,28 34,21 21,16 Z"
       style="fill:url(#gradient6)"
       inkscape:connector-curvature="0" />
    <path
       id="path2477"
       d="M 22,2 C 16.47,2 11.99,6.47 12,12 12,17.52 16.47,22 22,22 27.52,22 32,17.52 32,12 32,6.47 27.52,2 22,2 Z"
       style="fill:none;stroke:#000000;stroke-width:4"
       inkscape:connector-curvature="0" />
    <radialGradient
       gradientTransform="matrix(0.2031,0,0,0.2031,19,9.43)"
       r="64"
       cy="0"
       cx="0"
       gradientUnits="userSpaceOnUse"
       id="gradient7">
      <stop
         id="stop2480"
         stop-color="#3787ff"
         offset="0" />
      <stop
         id="stop2482"
         stop-color="#1b76ff"
         offset="0.3369" />
      <stop
         id="stop2484"
         stop-color="#031d8c"
         offset="1" />
      <stop
         id="stop2486"
         stop-color="#000081"
         offset="0.8586" />
    </radialGradient>
    <path
       id="path2488"
       d="M 22,2 C 16.47,2 11.99,6.47 12,12 12,17.52 16.47,22 22,22 27.52,22 32,17.52 32,12 32,6.47 27.52,2 22,2 Z"
       style="fill:url(#radialGradient7545)"
       inkscape:connector-curvature="0" />
    <radialGradient
       gradientTransform="matrix(0.0527,0,0,-0.0527,19,9)"
       r="64"
       cy="0"
       cx="0"
       gradientUnits="userSpaceOnUse"
       id="gradient8">
      <stop
         id="stop2491"
         stop-color="#ffffff"
         offset="0" />
      <stop
         id="stop2493"
         stop-color="#3787ff"
         offset="1" />
    </radialGradient>
    <path
       id="path2495"
       d="m 19,5.62 c -1.87,0 -3.38,1.51 -3.37,3.38 0,1.86 1.5,3.37 3.37,3.37 1.87,0 3.37,-1.51 3.37,-3.37 0,-1.87 -1.51,-3.38 -3.37,-3.38 z"
       style="fill:url(#gradient8)"
       inkscape:connector-curvature="0" />
  </g>
</svg>
