<?xml version="1.0" encoding="UTF-8" standalone="no"?>
<!-- Created with Inkscape (http://www.inkscape.org/) -->

<svg
   xmlns:dc="http://purl.org/dc/elements/1.1/"
   xmlns:cc="http://creativecommons.org/ns#"
   xmlns:rdf="http://www.w3.org/1999/02/22-rdf-syntax-ns#"
   xmlns:svg="http://www.w3.org/2000/svg"
   xmlns="http://www.w3.org/2000/svg"
   xmlns:sodipodi="http://sodipodi.sourceforge.net/DTD/sodipodi-0.dtd"
   xmlns:inkscape="http://www.inkscape.org/namespaces/inkscape"
   width="1010.4"
   height="1010.4002"
   id="svg2"
   sodipodi:version="0.32"
   inkscape:version="0.48.4 r9939"
   version="1.0"
   sodipodi:docname="Ajax.svg"
   inkscape:output_extension="org.inkscape.output.svg.inkscape">
  <defs
     id="defs4">
    <inkscape:perspective
       sodipodi:type="inkscape:persp3d"
       inkscape:vp_x="0 : 300.5 : 1"
       inkscape:vp_y="0 : 1000 : 0"
       inkscape:vp_z="601 : 300.5 : 1"
       inkscape:persp3d-origin="300.5 : 200.33333 : 1"
       id="perspective3380" />
    <inkscape:perspective
       id="perspective3990"
       inkscape:persp3d-origin="375 : 250 : 1"
       inkscape:vp_z="750 : 375 : 1"
       inkscape:vp_y="0 : 1000 : 0"
       inkscape:vp_x="0 : 375 : 1"
       sodipodi:type="inkscape:persp3d" />
  </defs>
  <sodipodi:namedview
     id="base"
     pagecolor="#ffffff"
     bordercolor="#666666"
     borderopacity="1.0"
     gridtolerance="10000"
     guidetolerance="10"
     objecttolerance="10"
     inkscape:pageopacity="0.0"
     inkscape:pageshadow="2"
     inkscape:zoom="0.44192573"
     inkscape:cx="608.90298"
     inkscape:cy="473.50446"
     inkscape:document-units="px"
     inkscape:current-layer="layer1"
     width="601px"
     height="601px"
     inkscape:window-width="1280"
     inkscape:window-height="1001"
     inkscape:window-x="-8"
     inkscape:window-y="-8"
     showgrid="false"
     fit-margin-top="0.2"
     fit-margin-left="0.2"
     fit-margin-right="0.2"
     fit-margin-bottom="0.2"
     inkscape:window-maximized="1"
     showguides="true"
     inkscape:guide-bbox="true" />
  <metadata
     id="metadata7">
    <rdf:RDF>
      <cc:Work
         rdf:about="">
        <dc:format>image/svg+xml</dc:format>
        <dc:type
           rdf:resource="http://purl.org/dc/dcmitype/StillImage" />
        <dc:title></dc:title>
      </cc:Work>
    </rdf:RDF>
  </metadata>
  <g
     inkscape:label="Layer 1"
     inkscape:groupmode="layer"
     id="layer1"
     transform="translate(1515.529,3241.075)">
    <rect
       style="color:#000000;fill:#000000;fill-opacity:1;fill-rule:nonzero;stroke:none;stroke-width:0.8735441;marker:none;visibility:visible;display:inline;overflow:visible"
       id="rect3653"
       width="0"
       height="27.202072"
       x="578.73834"
       y="298.1684"
       rx="249.48199"
       ry="27.202072" />
    <path
       inkscape:connector-curvature="0"
       id="path3940"
       d="m -801.1513,-2230.8749 295.8223,-295.8221 -10e-5,-418.3556 -295.822,-295.8224 -418.3557,3e-4 -295.8222,295.8221 2e-4,418.3558 295.822,295.822 z"
       style="fill:#000000;fill-opacity:1;stroke:none" />
    <path
       inkscape:connector-curvature="0"
       id="path3942"
       d="m -803.2223,-2235.875 292.8933,-292.8932 -10e-5,-414.2135 -292.8931,-292.8935 -414.2135,3e-4 -292.8933,292.8932 2e-4,414.2136 292.8931,292.8932 z"
       style="fill:#ffffff;fill-opacity:1;stroke:none" />
    <path
       style="fill:#c0111e;fill-opacity:1;stroke:none"
       d="m -1200.8674,-2275.875 -269.4616,-269.4615 10e-5,-381.0768 269.4614,-269.4618 381.07651,4e-4 269.46199,269.4613 -3e-4,381.0769 -269.46159,269.4616 z"
       id="path3944"
       inkscape:connector-curvature="0" />
    <path
       inkscape:connector-curvature="0"
       d="m -1433.62,-2691.8849 47.8803,0 0.5985,3.591 0.5985,3.591 0.5985,3.5911 1.197,3.591 1.197,2.9925 2.394,2.9925 1.7955,2.394 2.9926,2.9926 2.9925,1.7955 3.591,2.394 3.591,1.7955 4.1896,1.197 4.788,1.7955 5.3866,0.5985 5.3865,0.5985 6.5834,0.5986 7.7806,-0.5986 7.1821,-0.5985 5.985,-0.5985 5.3866,-1.7955 4.788,-1.197 3.591,-1.7955 2.9925,-2.394 2.3941,-2.394 2.394,-2.3941 1.197,-2.9925 1.197,-2.9925 0.5985,-2.9925 0.5985,-6.5836 -0.5985,-7.182 -1.7955,-3.5911 -1.7955,-2.9925 -2.394,-2.9925 -3.5911,-2.9925 -4.1895,-2.3939 -5.3865,-2.3941 -5.9851,-1.7955 -7.1821,-1.7955 -20.349,-3.591 -22.1447,-5.3866 -10.7731,-2.9925 -10.1745,-3.591 -10.1746,-4.1895 -8.9775,-4.7881 -5.3865,-3.591 -4.7881,-4.788 -3.591,-5.9851 -3.591,-5.985 -2.394,-6.5836 -1.7956,-7.1819 -1.197,-7.1821 -0.5985,-7.7806 0.5985,-7.7805 1.197,-7.1821 1.7956,-7.182 2.394,-7.1821 3.591,-6.5835 4.1895,-5.985 4.7881,-5.3865 5.3865,-4.7881 7.182,-4.1895 7.182,-3.591 7.7806,-2.394 8.379,-2.3941 8.3791,-1.7955 8.9776,-1.7955 8.9776,-0.5985 8.3789,-0.5985 8.9776,0.5985 8.9776,0.5985 8.379,1.197 8.3791,1.7955 7.7805,2.3941 7.7806,2.9925 6.5836,3.591 6.5834,4.1895 6.5836,5.3866 4.788,6.5834 4.788,6.5836 3.5911,6.5835 2.394,7.1821 1.7955,7.182 1.197,7.7806 0.5985,7.1821 -45.4862,0 -1.1971,-5.9851 -1.7955,-5.3865 -2.394,-5.3866 -2.9925,-4.1895 -3.591,-3.591 -4.1896,-2.9926 -5.3865,-2.394 -5.3866,-1.7955 -10.773,-1.197 -16.7581,0 -4.788,0.5985 -5.3865,1.197 -4.1896,1.197 -4.1895,1.7955 -3.591,2.3941 -3.5911,2.9925 -2.394,2.9925 -1.7955,3.591 -1.197,4.7881 -0.5985,4.788 0,5.9851 1.7955,4.1895 1.7955,3.591 2.9925,2.394 3.5911,2.394 8.9775,3.5911 12.5686,3.5909 21.5461,4.788 20.3492,4.7881 10.1745,2.9925 10.1746,3.591 9.576,4.1896 10.7731,4.788 3.591,1.7955 2.9925,2.394 2.9925,2.3941 2.3941,2.9925 4.788,5.985 3.591,7.1821 2.3941,7.182 1.7955,7.182 0.5985,8.3791 0,7.7805 -0.5985,7.7806 -1.7955,7.7805 -2.3941,7.1821 -2.9925,7.182 -3.591,6.5836 -4.1896,5.3864 -4.788,4.7881 -4.788,4.1895 -5.9851,4.1895 -6.5835,4.1896 -7.7805,2.9925 -8.379,2.9925 -8.9776,2.394 -9.5761,1.197 -10.1746,1.1971 -9.576,0.5985 -10.1745,0 -10.1746,-1.197 -9.5761,-1.1971 -9.5761,-2.394 -8.379,-2.394 -8.3791,-3.591 -7.182,-4.1896 -6.5835,-4.788 -6.5835,-5.985 -5.3866,-5.985 -4.1895,-6.5835 -3.591,-5.9851 -2.3941,-6.5835 -1.7955,-7.7806 -1.7955,-7.7806 -1.197,-9.576"
       style="fill:#ffffff;fill-opacity:1;fill-rule:evenodd;stroke:none"
       id="path6568" />
    <path
       inkscape:connector-curvature="0"
       d="m -1228.3332,-2850.4884 188.5286,0 0,41.2968 -69.4264,0 0.5985,187.9301 -47.8803,-0.5985 0,-186.7331 -71.8204,0 0,-41.8953"
       style="fill:#ffffff;fill-opacity:1;fill-rule:evenodd;stroke:none"
       id="path6572" />
    <path
       inkscape:connector-curvature="0"
       d="m -912.02412,-2855.2764 -11.37157,0.5985 -10.77307,1.197 -10.77307,1.7955 -10.17456,2.9926 -9.57606,3.591 -8.97755,4.788 -8.37906,5.3866 -7.78054,6.5835 -4.18953,3.5909 -2.99251,4.1896 -3.59106,4.1895 -2.9925,4.788 -2.9925,4.1896 -2.394,5.3865 -2.394,5.3866 -2.394,5.3865 -2.394,5.985 -1.7955,5.9851 -1.197,6.5835 -1.197,6.5835 -1.7956,14.3641 -0.5985,15.5611 0,7.7806 0.5985,7.7805 0.5985,7.1821 0.5986,7.1821 1.197,6.5834 1.7955,6.5836 1.7955,5.985 1.7955,5.9851 2.394,5.3865 2.394,5.3865 2.394,5.3866 2.9925,4.788 2.9925,4.1895 3.59105,4.1896 3.59102,4.1895 3.59103,3.5909 7.78054,6.5836 8.37906,5.3865 9.57605,4.7881 9.57606,3.591 10.17456,2.9925 10.77307,1.7955 10.77307,1.197 11.37157,0.5986 11.37157,-0.5986 11.37156,-1.197 10.77307,-2.394 10.17456,-2.9925 9.57606,-4.1895 8.97755,-4.7881 8.97756,-5.985 7.78054,-6.5836 3.59103,-4.1894 3.59102,-3.591 3.59102,-4.1896 2.99252,-4.788 2.99252,-4.788 2.39401,-4.7881 2.39402,-5.3865 2.39401,-5.3866 1.79551,-5.985 1.79551,-5.9851 1.19701,-5.985 1.79551,-6.5834 0.5985,-6.5836 0.59851,-7.1821 0.5985,-7.182 0,-7.7806 -0.5985,-14.9626 -1.79552,-13.7656 -1.197,-6.5834 -1.79551,-5.9851 -1.79552,-5.985 -1.79551,-5.9851 -2.39401,-5.3865 -2.39402,-5.3866 -2.39401,-4.788 -2.99252,-4.788 -2.99251,-4.7881 -3.59103,-4.1895 -3.59102,-3.591 -3.59103,-4.1896 -7.78054,-6.5834 -8.37905,-5.9851 -8.97755,-4.788 -10.17457,-4.1895 -10.17456,-2.9926 -10.17456,-2.394 -11.37156,-1.197 -11.37157,-0.5985 z"
       style="fill:#ffffff;stroke:none"
       id="path6578" />
    <path
       inkscape:connector-curvature="0"
       d="m -911.42563,-2816.3737 -6.58353,0 -5.98504,1.197 -5.98503,1.197 -5.98504,1.7955 -5.38653,2.3941 -4.78804,2.9925 -4.78802,4.1895 -4.78803,4.1895 -3.59102,4.7881 -3.59103,5.985 -3.59101,6.5836 -2.39402,7.182 -2.39401,7.7805 -1.19701,8.9776 -1.19701,9.576 -0.5985,10.1746 0.5985,10.7731 0.5985,9.5761 1.79552,8.379 1.7955,8.379 2.99253,7.1821 2.99251,5.985 3.59103,5.9851 4.18952,5.3865 4.18952,4.1895 4.78803,3.5911 5.38654,2.9925 5.38653,2.394 5.98504,2.394 5.98503,1.197 5.98504,0.5985 6.58353,0.5985 6.58354,-0.5985 5.98504,-0.5985 5.98504,-1.7955 5.98503,-1.7955 5.38653,-2.9925 5.38655,-2.9925 4.78802,-4.1896 4.18953,-4.1895 4.18952,-5.3866 3.59103,-5.985 2.99251,-6.5836 2.99252,-7.182 1.79552,-7.7805 1.7955,-8.379 0.5985,-8.9776 0,-19.7507 -1.197,-9.576 -1.197,-8.3791 -2.39402,-7.7805 -2.39402,-7.182 -3.59102,-6.5836 -3.59103,-5.3865 -3.59101,-5.3865 -4.78803,-4.7881 -4.78803,-3.591 -4.78804,-3.591 -5.38653,-2.3941 -5.98503,-2.394 -5.98504,-1.197 -5.98504,-1.197 -6.58354,0"
       style="fill:#c0111e;fill-opacity:1;stroke:none"
       id="path6580" />
    <path
       inkscape:connector-curvature="0"
       d="m -714.5192,-2621.2615 -48.4788,0 0.59851,-230.4239 104.73813,0 9.57605,1.197 8.97756,1.1971 8.37906,1.7955 7.18203,2.394 6.58354,2.9925 5.98504,3.591 5.38653,4.1896 4.18953,5.3865 4.18953,5.3865 2.99251,5.985 2.39402,6.5835 1.79551,7.7806 1.79551,8.3791 0.5985,8.9775 0.59851,9.5761 -0.59851,7.1821 -0.5985,7.1819 -1.197,7.1821 -1.19701,6.5835 -2.39402,6.5836 -2.39401,5.985 -3.59103,5.3866 -4.18952,4.788 -4.78803,4.788 -5.38653,4.1896 -6.58354,2.9925 -7.78055,2.9925 -8.37905,2.394 -9.57606,1.7956 -10.77306,0.5985 -11.97008,0.5984 -46.08477,0 0,83.7905 z m -0.59851,-189.7257 0,65.8355 56.85784,0 3.59103,-0.5985 2.99251,-1.1971 2.99253,-1.197 2.39401,-1.7955 2.39402,-1.7955 2.394,-2.394 1.79552,-2.394 1.79551,-2.394 1.19701,-2.9926 1.197,-2.9925 1.19701,-6.5834 0.5985,-5.9851 -0.5985,-6.5835 -1.79551,-6.5836 -2.39401,-5.985 -3.59103,-4.7881 -1.7955,-2.394 -2.39402,-2.394 -2.99252,-1.7955 -2.39402,-1.197 -3.59101,-1.197 -2.99253,-1.1971 -3.59101,0 -4.18954,-0.5985 -49.07729,1.197"
       style="fill:#ffffff;fill-opacity:1;fill-rule:evenodd;stroke:none"
       id="path6582" />
  </g>
</svg>
