<?xml version="1.0" encoding="UTF-8" standalone="no"?>
<!DOCTYPE svg PUBLIC "-//W3C//DTD SVG 20010904//EN"
"http://www.w3.org/TR/2001/REC-SVG-20010904/DTD/svg10.dtd">
<!-- Created with Sodipodi ("http://www.sodipodi.com/") -->
<svg
   width="48pt"
   height="48pt"
   viewBox="0 0 49.067 49.716"
   overflow="visible"
   enable-background="new 0 0 49.067 49.716"
   xml:space="preserve"
   xmlns="http://www.w3.org/2000/svg"
   xmlns:xml="http://www.w3.org/XML/1998/namespace"
   xmlns:sodipodi="http://sodipodi.sourceforge.net/DTD/sodipodi-0.dtd"
   xmlns:xlink="http://www.w3.org/1999/xlink"
   id="svg153"
   sodipodi:version="0.32pre"
   sodipodi:docname="/home/cschalle/gnome-themes-extras/Wasp/icons/scalable/apps/control-center2.svg"
   sodipodi:docbase="/home/cschalle/gnome-themes-extras/Wasp/icons/scalable/apps">
  <defs
     id="defs220" />
  <sodipodi:namedview
     id="base" />
  <metadata
     id="metadata154">
    <sfw>
      <slices />
      <sliceSourceBounds
         y="394.642"
         x="271.967"
         width="49.067"
         height="49.716"
         bottomLeftOrigin="true" />
    </sfw>
  </metadata>
  <g
     id="Layer_1"
     stroke="#000000">
    <g
       id="Layer_1_2_">
      <path
         stroke="none"
         d="M9.535,1.708v33L40.49,49.716v-34.71L9.535,0V1.708z"
         id="path157" />
      <linearGradient
         id="XMLID_1_"
         gradientUnits="userSpaceOnUse"
         x1="-190.5322"
         y1="380.0674"
         x2="-234.2126"
         y2="384.9836"
         gradientTransform="matrix(1 0 0 -1 235.1665 407.0703)">
        <stop
           offset="0"
           style="stop-color:#E6E6E6"
           id="stop159" />
        <stop
           offset="1"
           style="stop-color:#CCCCCC"
           id="stop160" />
      </linearGradient>
      <path
         fill="url(#XMLID_1_)"
         stroke="none"
         d="M39.193,47.856L10.608,34.037V1.708l28.585,13.82V47.856z"
         id="path164" />
      <path
         fill="#9C9C9C"
         stroke="none"
         d="M38.02,14.991l0.006,32.257l1.172,0.618L39.19,15.609L38.02,14.991z"
         id="path165" />
      <path
         fill="#FFFFFF"
         stroke="none"
         d="M10.609,3.013l27.385,13.239l1.195-0.723L10.604,1.709L10.609,3.013z"
         id="path166" />
      <path
         fill="#FFFFFF"
         stroke="none"
         d="M10.608,1.708l0.019,31.751l1.172,0.618L11.778,2.327L10.608,1.708z"
         id="path167" />
      <path
         fill="#9C9C9C"
         stroke="none"
         d="M11.783,11.22l27.412,13.252l-0.006-1.304L10.604,9.35L11.783,11.22z"
         id="path168" />
      <path
         fill="#9C9C9C"
         stroke="none"
         d="M10.609,34.037l28.586,13.819l-0.006-1.303l-28.585-13.82L10.609,34.037z"
         id="path169" />
      <g
         id="g170">
        <path
           fill="#262626"
           stroke="none"
           d="M14.173,17.267v1.3l13.899,6.72v-1.301L14.173,17.267z"
           id="path171" />
        <path
           fill="#262626"
           stroke="none"
           d="M35.414,28.832l-0.007-1.305l-2.182-1.055v1.3L35.414,28.832z"
           id="path172" />
      </g>
      <g
         id="g173">
        <path
           fill="#262626"
           stroke="none"
           d="M14.173,21.479v1.3l13.899,6.719v-1.301L14.173,21.479z"
           id="path174" />
        <path
           fill="#262626"
           stroke="none"
           d="M35.414,33.044l-0.007-1.305l-2.182-1.055v1.301L35.414,33.044z"
           id="path175" />
      </g>
      <g
         id="g176">
        <path
           fill="#262626"
           stroke="none"
           d="M14.173,25.69v1.301l13.899,6.719v-1.301L14.173,25.69z"
           id="path177" />
        <path
           fill="#262626"
           stroke="none"
           d="M35.414,37.255l-0.006-1.303l-2.183-1.056v1.301L35.414,37.255z"
           id="path178" />
      </g>
      <g
         id="g179">
        <path
           fill="#262626"
           stroke="none"
           d="M14.173,29.902v1.301l13.899,6.719v-1.301L14.173,29.902z"
           id="path180" />
        <path
           fill="#262626"
           stroke="none"
           d="M35.414,41.467l-0.007-1.303l-2.182-1.056v1.301L35.414,41.467z"
           id="path181" />
      </g>
      <path
         stroke="none"
         d="M20.166,18.511l-4.084,0.533c0,0-5.088,10.488-6.907,14.241c-0.902-1.54-2.359-4.024-2.359-4.024     l-5.388,0.705L0,36.131l7.02,11.966l1.147-0.163l4.061-0.46l12.133-25.175l-0.692-0.794l-2.637-3.106L20.166,18.511z"
         id="path182" />
      <path
         opacity="0.2"
         stroke="none"
         d="M24.632,44.274H7.02v3.822l19.756,0.694L24.632,44.274z"
         id="path183" />
      <path
         opacity="0.2"
         stroke="none"
         d="M48.883,47.026l-8.62-5.254l0.002,7.793l8.803,0.008L48.883,47.026z"
         id="path184" />
      <path
         fill="#890101"
         stroke="none"
         d="M7.986,46.336l11.232-23.364l3.242-0.43L11.165,45.976L7.986,46.336z"
         id="path185" />
      <linearGradient
         id="XMLID_2_"
         gradientUnits="userSpaceOnUse"
         x1="-217.3208"
         y1="382.5225"
         x2="-214.9983"
         y2="386.0947"
         gradientTransform="matrix(1 0 0 -1 235.1665 407.0703)">
        <stop
           offset="0"
           style="stop-color:#E6E6E6"
           id="stop187" />
        <stop
           offset="0.2673"
           style="stop-color:#ECC8C8"
           id="stop188" />
        <stop
           offset="0.8476"
           style="stop-color:#FB7B7A"
           id="stop189" />
        <stop
           offset="1"
           style="stop-color:#FF6665"
           id="stop190" />
      </linearGradient>
      <path
         fill="url(#XMLID_2_)"
         stroke="none"
         d="M19.229,22.975l-2.08-2.449l3.225-0.42l2.08,2.449L19.229,22.975z"
         id="path198" />
      <g
         id="g199">
        <linearGradient
           id="XMLID_3_"
           gradientUnits="userSpaceOnUse"
           x1="-231.9224"
           y1="364.7822"
           x2="-227.6593"
           y2="373.1237"
           gradientTransform="matrix(1 0 0 -1 235.1665 407.0703)">
          <stop
             offset="0"
             style="stop-color:#E6E6E6"
             id="stop201" />
          <stop
             offset="0.2673"
             style="stop-color:#ECC8C8"
             id="stop202" />
          <stop
             offset="0.8476"
             style="stop-color:#FB7B7A"
             id="stop203" />
          <stop
             offset="1"
             style="stop-color:#FF6665"
             id="stop204" />
        </linearGradient>
        <path
           fill="url(#XMLID_3_)"
           stroke="none"
           d="M7.737,39.927l-5.169-8.634l3.735-0.429l4.658,8.643L7.737,39.927z"
           id="path212" />
      </g>
      <g
         id="g213">
        <path
           fill="#DD0000"
           stroke="none"
           d="M19.229,22.975L7.877,46.381L1.373,35.822l1.194-4.525l5.17,8.638l9.412-19.408      L19.229,22.975z"
           id="path214" />
      </g>
      <path
         fill="#FFFFFF"
         stroke="none"
         d="M10.609,11.937l27.376,13.234l1.204-0.719L10.604,10.633L10.609,11.937z"
         id="path215" />
      <g
         id="g216">
        <path
           fill="#262626"
           stroke="none"
           d="M14.173,7.302v1.301l13.899,6.72v-1.302L14.173,7.302z"
           id="path217" />
        <path
           fill="#262626"
           stroke="none"
           d="M35.414,18.867l-0.007-1.304l-2.182-1.056v1.301L35.414,18.867z"
           id="path218" />
      </g>
    </g>
  </g>
</svg>
