<?xml version="1.0" encoding="UTF-8" standalone="no"?>
<svg
   xmlns:dc="http://purl.org/dc/elements/1.1/"
   xmlns:cc="http://creativecommons.org/ns#"
   xmlns:rdf="http://www.w3.org/1999/02/22-rdf-syntax-ns#"
   xmlns:svg="http://www.w3.org/2000/svg"
   xmlns="http://www.w3.org/2000/svg"
   xmlns:sodipodi="http://sodipodi.sourceforge.net/DTD/sodipodi-0.dtd"
   xmlns:inkscape="http://www.inkscape.org/namespaces/inkscape"
   version="1.1"
   width="64"
   height="64"
   color-interpolation="linearRGB"
   id="svg2"
   inkscape:version="0.91 r13725"
   sodipodi:docname="tag-editor.svg">
  <metadata
     id="metadata43">
    <rdf:RDF>
      <cc:Work
         rdf:about="">
        <dc:format>image/svg+xml</dc:format>
        <dc:type
           rdf:resource="http://purl.org/dc/dcmitype/StillImage" />
        <dc:title></dc:title>
      </cc:Work>
    </rdf:RDF>
  </metadata>
  <defs
     id="defs41">
    <radialGradient
       gradientTransform="matrix(0.5714,0,0,0.3333,-79.541462,47.433695)"
       r="64"
       cy="0"
       cx="0"
       gradientUnits="userSpaceOnUse"
       id="gradient0-1">
      <stop
         id="stop6706"
         stop-color="#896eff"
         offset="0.4862" />
      <stop
         id="stop6708"
         stop-color="#c0d5ff"
         offset="1" />
    </radialGradient>
    <linearGradient
       y2="39.32"
       x2="119.92"
       y1="-18.42"
       x1="105.45"
       gradientUnits="userSpaceOnUse"
       id="gradient1-3"
       gradientTransform="translate(-103.41003,6.520225)">
      <stop
         id="stop6717"
         stop-color="#a5b1ff"
         offset="0" />
      <stop
         id="stop6719"
         stop-color="#eaf1ff"
         offset="0.7372" />
      <stop
         id="stop6721"
         stop-color="#b3b8ff"
         offset="1" />
    </linearGradient>
    <linearGradient
       y2="29.389999"
       x2="42.310001"
       y1="19.059999"
       x1="35.240002"
       gradientUnits="userSpaceOnUse"
       id="gradient2-9"
       gradientTransform="matrix(0.6147,-0.7887,0.7887,0.6147,-122.17119,27.179156)">
      <stop
         id="stop6728"
         stop-color="#fff9ba"
         offset="0" />
      <stop
         id="stop6730"
         stop-color="#ffc104"
         offset="1" />
    </linearGradient>
    <linearGradient
       y2="67.900002"
       x2="35.759998"
       y1="54.009998"
       x1="39.470001"
       gradientUnits="userSpaceOnUse"
       id="gradient3"
       gradientTransform="matrix(0.6147,-0.7887,0.7887,0.6147,-113.64547,22.916295)">
      <stop
         id="stop6735"
         stop-color="#c7e3ff"
         offset="0" />
      <stop
         id="stop6737"
         stop-color="#392fff"
         offset="1" />
    </linearGradient>
    <linearGradient
       y2="46.919998"
       x2="56.07"
       y1="33.98"
       x1="48.810001"
       gradientUnits="userSpaceOnUse"
       id="gradient4"
       gradientTransform="matrix(0.6147,-0.7887,0.7887,0.6147,-123.99813,31.442016)">
      <stop
         id="stop6742"
         stop-color="#fdb9b9"
         offset="0" />
      <stop
         id="stop6744"
         stop-color="#ce3232"
         offset="1" />
    </linearGradient>
    <linearGradient
       y2="-63.869999"
       x2="56.84"
       y1="-63.869999"
       x1="28.4"
       gradientUnits="userSpaceOnUse"
       id="gradient5"
       gradientTransform="translate(-107.3684,11.087576)">
      <stop
         id="stop6749"
         stop-color="#2b30a0"
         offset="0" />
      <stop
         id="stop6751"
         stop-color="#cbdcfa"
         offset="1" />
    </linearGradient>
    <linearGradient
       y2="3.8099999"
       x2="2.5"
       y1="20.469999"
       x1="3.98"
       gradientUnits="userSpaceOnUse"
       id="gradient6"
       gradientTransform="matrix(0.7071,-0.7071,0.7071,0.7071,-80.279971,41.922195)">
      <stop
         id="stop6758"
         stop-color="#f0cd9b"
         offset="0" />
      <stop
         id="stop6760"
         stop-color="#c0995d"
         offset="0.5058" />
      <stop
         id="stop6762"
         stop-color="#f0d8b5"
         offset="0.8117" />
    </linearGradient>
    <linearGradient
       y2="-64"
       x2="63.41"
       y1="-64"
       x1="10.58"
       gradientUnits="userSpaceOnUse"
       id="gradient7"
       gradientTransform="matrix(0.7071,-0.7071,0.7071,0.7071,-80.279971,41.922195)">
      <stop
         id="stop6767"
         stop-color="#97a3ba"
         offset="0" />
      <stop
         id="stop6769"
         stop-color="#f8fbff"
         offset="1" />
    </linearGradient>
    <linearGradient
       y2="-64"
       x2="52.25"
       y1="-64"
       x1="19.74"
       gradientUnits="userSpaceOnUse"
       id="gradient8"
       gradientTransform="matrix(0.7071,-0.7071,0.7071,0.7071,-80.279971,41.922195)">
      <stop
         id="stop6774"
         stop-color="#5f6c93"
         offset="0" />
      <stop
         id="stop6776"
         stop-color="#7e94b4"
         offset="1" />
    </linearGradient>
    <linearGradient
       y2="26.25"
       x2="49.209999"
       y1="6.1599998"
       x1="52.240002"
       gradientUnits="userSpaceOnUse"
       id="gradient9"
       gradientTransform="matrix(0.7071,-0.7071,0.7071,0.7071,-80.279971,41.922195)">
      <stop
         id="stop6781"
         stop-color="#2b2d3d"
         offset="0" />
      <stop
         id="stop6783"
         stop-color="#444c6d"
         offset="0.996" />
    </linearGradient>
    <linearGradient
       y2="13.44"
       x2="112.6"
       y1="-2.8099999"
       x1="112.68"
       gradientUnits="userSpaceOnUse"
       id="gradient10"
       gradientTransform="matrix(0.7071,-0.7071,0.7071,0.7071,-80.279971,41.922195)">
      <stop
         id="stop6788"
         stop-color="#dbab5f"
         offset="0" />
      <stop
         id="stop6790"
         stop-color="#fddcab"
         offset="1" />
    </linearGradient>
  </defs>
  <sodipodi:namedview
     pagecolor="#ffffff"
     bordercolor="#666666"
     borderopacity="1"
     objecttolerance="10"
     gridtolerance="10"
     guidetolerance="10"
     inkscape:pageopacity="0"
     inkscape:pageshadow="2"
     inkscape:window-width="1364"
     inkscape:window-height="708"
     id="namedview39"
     showgrid="false"
     inkscape:zoom="3.2841797"
     inkscape:cx="-19.891169"
     inkscape:cy="20.121931"
     inkscape:window-x="2"
     inkscape:window-y="30"
     inkscape:window-maximized="1"
     inkscape:current-layer="svg2" />
  <g
     id="g4"
     transform="matrix(0.91658744,-0.15934993,0.15934993,0.91658744,-6.8481092,9.6121083)">
    <radialGradient
       id="gradient0"
       gradientUnits="userSpaceOnUse"
       cx="0"
       cy="0"
       r="64"
       gradientTransform="matrix(0.1386,0,0,0.1523,56.25,6.75)">
      <stop
         offset="1"
         stop-color="#010101"
         stop-opacity="0.4705"
         id="stop7" />
      <stop
         offset="0"
         stop-color="#010101"
         stop-opacity="0"
         id="stop9" />
    </radialGradient>
    <path
       style="fill:none;stroke:url(#gradient0);stroke-width:4"
       d="m 45,27 c 3,-3 9,-1 9,-7 C 54,14 34,16 34,12 34,8 48,6 56,6"
       transform="translate(2,1)"
       id="path11"
       inkscape:connector-curvature="0" />
    <path
       style="fill:none;stroke:#010101;stroke-width:6;stroke-opacity:0.47449999"
       d="M 4,48 28,60 52,36 45,27 26,28 4,48 Z"
       transform="translate(2,0)"
       id="path13"
       inkscape:connector-curvature="0" />
    <radialGradient
       id="gradient1"
       gradientUnits="userSpaceOnUse"
       cx="0"
       cy="0"
       r="64"
       gradientTransform="matrix(0.1445,0,0,0.1523,54.5,6)">
      <stop
         offset="1"
         stop-color="#010101"
         id="stop16" />
      <stop
         offset="0"
         stop-color="#010101"
         stop-opacity="0"
         id="stop18" />
    </radialGradient>
    <path
       style="fill:none;stroke:url(#gradient1);stroke-width:4"
       d="m 45,27 c 3,-3 9,-1 9,-7 C 54,14 34,16 34,12 34,8 48,6 56,6"
       id="path20"
       inkscape:connector-curvature="0" />
    <path
       style="fill:none;stroke:#010101;stroke-width:4"
       d="M 4,48 28,60 52,36 45,27 26,28 4,48 Z"
       id="path22"
       inkscape:connector-curvature="0" />
    <linearGradient
       id="gradient2"
       gradientUnits="userSpaceOnUse"
       x1="71.910004"
       y1="1.98"
       x2="84.160004"
       y2="26.48">
      <stop
         offset="0"
         stop-color="#ffea97"
         id="stop25" />
      <stop
         offset="1"
         stop-color="#f0c620"
         id="stop27" />
    </linearGradient>
    <path
       style="fill:url(#gradient2)"
       d="M 4,48 28,60 52,36 45,27 26,28 4,48 Z"
       id="path29"
       inkscape:connector-curvature="0" />
    <path
       style="fill:none;stroke:#010101;stroke-width:2"
       d="M 18,48 31,36"
       id="path31"
       inkscape:connector-curvature="0" />
    <path
       style="fill:none;stroke:#010101;stroke-width:2"
       d="M 12,48 29,32"
       id="path33"
       inkscape:connector-curvature="0" />
    <path
       style="fill:none;stroke:#010101;stroke-width:2"
       d="M 18,48 31,36"
       transform="translate(8,4)"
       id="path35"
       inkscape:connector-curvature="0" />
    <path
       style="fill:none;stroke:#010101;stroke-width:2"
       d="M 12,48 29,32"
       transform="translate(8,4)"
       id="path37"
       inkscape:connector-curvature="0" />
  </g>
  <g
     id="g7765"
     transform="translate(94.696402,3.1971455)">
    <path
       inkscape:connector-curvature="0"
       style="color-interpolation:linearRGB;fill:none;stroke:#010101;stroke-width:4"
       d="m -65.430871,32.729895 24.0414,-24.0414 c 0,0 2.8284,-1.4142 5.6568,1.4142 2.8284,2.8284 1.4142,5.6568 1.4142,5.6568 l -24.0414,24.0414 -11.3136,4.2426 4.2426,-11.3136 z m 1.081863,-0.275769 0.332337,3.104169 2.8284,2.8284 3.090027,0.318195 M -41.721808,9.826926 c -0.14142,1.088934 0.02121,2.793045 1.746537,4.518369 1.711182,1.711182 3.415293,1.873815 4.504227,1.732395"
       id="path6755" />
    <path
       inkscape:connector-curvature="0"
       style="color-interpolation:linearRGB;fill:url(#gradient6)"
       d="m -65.430871,32.729895 0.09192,3.811269 3.153666,3.153666 3.825411,0.106065 -8.817537,2.934465 -1.187928,-1.258638 2.934465,-8.746827 z"
       id="path6764" />
    <path
       inkscape:connector-curvature="0"
       style="color-interpolation:linearRGB;fill:url(#gradient7)"
       d="m -64.016671,31.315695 -0.05657,4.072896 21.269568,-21.043296 0,-4.2426 -21.213,21.213 z"
       id="path6771" />
    <path
       inkscape:connector-curvature="0"
       style="color-interpolation:linearRGB;fill:url(#gradient8)"
       d="m -64.073239,35.388591 3.04053,3.04053 21.057438,-21.255426 -2.8284,-2.8284 -21.269568,21.043296 z"
       id="path6778" />
    <path
       inkscape:connector-curvature="0"
       style="color-interpolation:linearRGB;fill:url(#gradient9)"
       d="m -61.032709,38.429121 4.087038,-0.04243 21.213,-21.213 -4.2426,0 -21.057438,21.255426 z"
       id="path6785" />
    <path
       inkscape:connector-curvature="0"
       style="color-interpolation:linearRGB;fill:url(#gradient10)"
       d="m -41.389471,8.688495 c 0,0 2.8284,-1.4142 5.6568,1.4142 2.8284,2.8284 1.4142,5.6568 1.4142,5.6568 0,0 -2.8284,1.4142 -5.6568,-1.4142 -2.8284,-2.8284 -1.4142,-5.6568 -1.4142,-5.6568 z"
       id="path6792" />
    <path
       inkscape:connector-curvature="0"
       style="color-interpolation:linearRGB;fill:#010101"
       d="m -39.268171,10.809795 c 0,0 2.1213,-0.7071 2.8284,0 0.7071,0.7071 0,2.8284 0,2.8284 0,0 -1.4142,0 -2.1213,-0.7071 -0.7071,-0.7071 -0.7071,-2.1213 -0.7071,-2.1213 z"
       id="path6794" />
  </g>
</svg>
