<?xml version="1.0" encoding="UTF-8" standalone="no"?>
<!DOCTYPE svg PUBLIC "-//W3C//DTD SVG 20010904//EN"
"http://www.w3.org/TR/2001/REC-SVG-20010904/DTD/svg10.dtd">
<!-- Created with Sodipodi ("http://www.sodipodi.com/") -->
<svg
   i:viewOrigin="234 442"
   i:rulerOrigin="-242 -332"
   i:pageBounds="242 460 370 332"
   width="48pt"
   height="38pt"
   viewBox="0 0 148 95"
   overflow="visible"
   enable-background="new 0 0 148 95"
   xml:space="preserve"
   id="svg153"
   sodipodi:version="0.32pre"
   sodipodi:docname="/home/cschalle/gnome-themes-extras/Amaranth/icons/scalable/apps/tex.svg"
   sodipodi:docbase="/home/cschalle/gnome-themes-extras/Amaranth/icons/scalable/apps"
   xmlns="http://www.w3.org/2000/svg"
   xmlns:sodipodi="http://sodipodi.sourceforge.net/DTD/sodipodi-0.dtd"
   xmlns:ns="http://ns.adobe.com/Variables/1.0/"
   xmlns:i="http://ns.adobe.com/AdobeIllustrator/10.0/"
   xmlns:xml="http://www.w3.org/XML/1998/namespace"
   xmlns:a="http://ns.adobe.com/AdobeSVGViewerExtensions/3.0/"
   xmlns:xlink="http://www.w3.org/1999/xlink">
  <defs
     id="defs203">
    <linearGradient
       id="XMLID_4_"
       gradientUnits="userSpaceOnUse"
       x1="79.998"
       y1="19.5356"
       x2="119.835"
       y2="59.3726">
      <stop
         offset="0"
         style="stop-color:#FFFFFF"
         id="stop191" />
      <stop
         offset="1"
         style="stop-color:#676767"
         id="stop192" />
      
      
      
    </linearGradient>
    <linearGradient
       id="XMLID_3_"
       gradientUnits="userSpaceOnUse"
       x1="53.9248"
       y1="43.7207"
       x2="81.4654"
       y2="71.2613">
      <stop
         offset="0"
         style="stop-color:#FFFFFF"
         id="stop180" />
      <stop
         offset="1"
         style="stop-color:#676767"
         id="stop181" />
      
      
      
    </linearGradient>
    <linearGradient
       id="linearGradient305"
       gradientUnits="userSpaceOnUse"
       x1="24.2559"
       y1="13.606"
       x2="54.8134"
       y2="44.1635">
      <stop
         offset="0"
         style="stop-color:#FFFFFF"
         id="stop306" />
      <stop
         offset="1"
         style="stop-color:#676767"
         id="stop307" />
      
      
      
    </linearGradient>
  </defs>
  <sodipodi:namedview
     id="base" />
  <metadata
     id="metadata154">
    <sfw>
      <slices />
      <sliceSourceBounds
         x="234"
         y="347"
         width="148"
         height="95"
         bottomLeftOrigin="true" />
    </sfw>
    <ns:variableSets>
      <ns:variableSet
         varSetName="binding1"
         locked="none">
        <ns:variables />
        <ns:sampleDataSets />
      </ns:variableSet>
    </ns:variableSets>
  </metadata>
  <g
     id="g158"
     style="font-size:12;stroke:#000000;">
    <linearGradient
       id="XMLID_1_"
       gradientUnits="userSpaceOnUse"
       x1="26.9648"
       y1="-7.3594"
       x2="116.8144"
       y2="82.4901">
      <stop
         offset="0"
         style="stop-color:#FFFFFF"
         id="stop160" />
      <stop
         offset="1"
         style="stop-color:#606F88"
         id="stop161" />
      
      
      
    </linearGradient>
    <path
       i:knockout="Off"
       fill="url(#XMLID_1_)"
       stroke="none"
       d="M136,61.25c0,2.75-2.25,4.987-5,4.973l-35.25-0.195      c-2.75-0.015-5.035,2.223-5.077,4.972l-0.096,6.15c-0.042,2.749-2.327,5.007-5.077,5.016L39,82.316c-2.75,0.009-5-2.233-5-4.983      V72c0-2.75-2.25-5.029-5-5.064L13,66.731c-2.75-0.036-5-2.314-5-5.064v-48c0-2.75,2.25-5,5-5h42.667c2.75,0,5,1.8,5,4      c0,2.2,2.25,4,5,4H76c2.75,0,5-1.8,5-4s2.25-4,5-4h45c2.75,0,5,2.25,5,5V61.25z"
       id="path165" />
    <path
       i:knockout="Off"
       fill="none"
       stroke-width="2"
       d="M136,61.25c0,2.75-2.25,4.987-5,4.973l-35.25-0.195      c-2.75-0.015-5.035,2.223-5.077,4.972l-0.096,6.15c-0.042,2.749-2.327,5.007-5.077,5.016L39,82.316c-2.75,0.009-5-2.233-5-4.983      V72c0-2.75-2.25-5.029-5-5.064L13,66.731c-2.75-0.036-5-2.314-5-5.064v-48c0-2.75,2.25-5,5-5h42.667c2.75,0,5,1.8,5,4      c0,2.2,2.25,4,5,4H76c2.75,0,5-1.8,5-4s2.25-4,5-4h45c2.75,0,5,2.25,5,5V61.25z"
       id="path166" />
  </g>
  <path
     i:knockout="Off"
     fill="url(#XMLID_2_)"
     stroke="none"
     d="M59.449,19.305c0,0.631-0.221,1.169-0.66,1.611     c-0.44,0.441-0.973,0.662-1.601,0.662H41.865v34.589c0,0.631-0.223,1.167-0.664,1.608c-0.442,0.441-0.979,0.66-1.608,0.66     c-0.632,0-1.169-0.219-1.611-0.66c-0.442-0.441-0.663-0.978-0.663-1.608V21.578H21.77c-0.63,0-1.164-0.221-1.605-0.662     c-0.441-0.442-0.661-0.979-0.661-1.611c0-0.63,0.219-1.167,0.661-1.609c0.439-0.441,0.975-0.664,1.605-0.664h35.415     c0.63,0,1.163,0.223,1.605,0.664C59.229,18.137,59.449,18.675,59.449,19.305z"
     id="path174"
     style="font-size:12;" />
  <path
     i:knockout="Off"
     fill="none"
     stroke="#2D2D2D"
     stroke-width="3"
     d="M59.449,19.305c0,0.631-0.221,1.169-0.66,1.611      c-0.44,0.441-0.973,0.662-1.601,0.662H41.865v34.589c0,0.631-0.223,1.167-0.664,1.608c-0.442,0.441-0.979,0.66-1.608,0.66      c-0.632,0-1.169-0.219-1.611-0.66c-0.442-0.441-0.663-0.978-0.663-1.608V21.578H21.77c-0.63,0-1.164-0.221-1.605-0.662      c-0.441-0.442-0.661-0.979-0.661-1.611c0-0.63,0.219-1.167,0.661-1.609c0.439-0.441,0.975-0.664,1.605-0.664h35.415      c0.63,0,1.163,0.223,1.605,0.664C59.229,18.137,59.449,18.675,59.449,19.305z"
     id="path177"
     style="font-size:12;fill:none;stroke:#2d2d2d;stroke-width:3;" />
  <path
     i:knockout="Off"
     fill="url(#XMLID_3_)"
     stroke="none"
     d="M68.946,41.481h4.843c0.63,0,1.164-0.222,1.605-0.663     c0.439-0.441,0.66-0.979,0.66-1.61c0-0.629-0.221-1.167-0.66-1.609c-0.441-0.441-0.976-0.664-1.605-0.664h-4.843     c-5.495,0-10.297,2.056-14.406,6.168c-4.11,4.111-6.164,8.914-6.164,14.41c0,5.499,2.054,10.302,6.164,14.414     c4.108,4.112,8.911,6.166,14.406,6.166c0.545,0,1.363,0,2.453,0c1.048-0.042,1.866-0.063,2.453-0.063     c0.588,0,1.091-0.223,1.509-0.666c0.419-0.446,0.63-0.985,0.63-1.622c0-0.636-0.221-1.175-0.66-1.621     c-0.442-0.444-0.975-0.667-1.604-0.667c-0.545,0-1.342,0-2.39,0c-1.049,0-1.845,0-2.39,0c-3.816,0-7.257-1.339-10.317-4.017     c-3.062-2.678-4.907-5.936-5.534-9.773h21.449c0.63,0,1.163-0.22,1.605-0.662c0.438-0.441,0.659-0.979,0.659-1.611     c0-0.629-0.221-1.166-0.659-1.608c-0.442-0.44-0.976-0.664-1.605-0.664H53.095c0.587-3.777,2.42-6.995,5.504-9.652     C61.68,42.81,65.13,41.481,68.946,41.481z"
     id="path185"
     style="font-size:12;fill:url(#XMLID_3_);" />
  <path
     i:knockout="Off"
     fill="none"
     stroke="#2D2D2D"
     stroke-width="3"
     d="M68.946,41.481h4.843c0.63,0,1.164-0.222,1.605-0.663      c0.439-0.441,0.66-0.979,0.66-1.61c0-0.629-0.221-1.167-0.66-1.609c-0.441-0.441-0.976-0.664-1.605-0.664h-4.843      c-5.495,0-10.297,2.056-14.406,6.168c-4.11,4.111-6.164,8.914-6.164,14.41c0,5.499,2.054,10.302,6.164,14.414      c4.108,4.112,8.911,6.166,14.406,6.166c0.545,0,1.363,0,2.453,0c1.048-0.042,1.866-0.063,2.453-0.063      c0.588,0,1.091-0.223,1.509-0.666c0.419-0.446,0.63-0.985,0.63-1.622c0-0.636-0.221-1.175-0.66-1.621      c-0.442-0.444-0.975-0.667-1.604-0.667c-0.545,0-1.342,0-2.39,0c-1.049,0-1.845,0-2.39,0c-3.816,0-7.257-1.339-10.317-4.017      c-3.062-2.678-4.907-5.936-5.534-9.773h21.449c0.63,0,1.163-0.22,1.605-0.662c0.438-0.441,0.659-0.979,0.659-1.611      c0-0.629-0.221-1.166-0.659-1.608c-0.442-0.44-0.976-0.664-1.605-0.664H53.095c0.587-3.777,2.42-6.995,5.504-9.652      C61.68,42.81,65.13,41.481,68.946,41.481z"
     id="path188"
     style="font-size:12;fill:none;stroke:#2d2d2d;stroke-width:3;" />
  <path
     i:knockout="Off"
     fill="url(#XMLID_4_)"
     stroke="none"
     d="M120.496,21.136c0,3.855-1.187,7.479-3.556,10.871     c-2.164,3.143-5.033,5.635-8.607,7.478c3.551,1.845,6.437,4.339,8.651,7.479c2.341,3.352,3.512,6.954,3.512,10.808     c0,0.63-0.223,1.163-0.665,1.604c-0.44,0.439-0.979,0.658-1.608,0.658c-0.632,0-1.169-0.219-1.61-0.661     c-0.441-0.439-0.662-0.975-0.662-1.604c0-4.234-1.614-7.967-4.842-11.196c-3.229-3.229-6.959-4.845-11.191-4.845     c-4.235,0-7.965,1.604-11.192,4.813c-3.229,3.209-4.842,6.951-4.842,11.228c0,0.63-0.223,1.165-0.663,1.604     c-0.442,0.442-0.98,0.661-1.609,0.661c-0.631,0-1.169-0.219-1.611-0.658c-0.44-0.44-0.662-0.974-0.662-1.604     c0-3.938,1.062-7.529,3.186-10.777c2.123-3.246,4.953-5.771,8.486-7.571c-3.553-1.8-6.387-4.325-8.5-7.571     c-2.115-3.247-3.172-6.819-3.172-10.716c0-0.627,0.22-1.162,0.661-1.601c0.439-0.44,0.975-0.661,1.604-0.661     s1.163,0.221,1.604,0.661c0.439,0.441,0.661,0.975,0.661,1.604c0,4.235,1.614,7.969,4.845,11.198     c3.231,3.229,6.965,4.843,11.204,4.843c4.236,0,7.971-1.603,11.201-4.813c3.231-3.208,4.847-6.951,4.847-11.229     c0-0.629,0.219-1.163,0.661-1.604c0.439-0.44,0.976-0.661,1.604-0.661c0.63,0,1.164,0.221,1.604,0.661     C120.275,19.974,120.496,20.508,120.496,21.136z"
     id="path196"
     style="font-size:12;fill:url(#XMLID_4_);" />
  <path
     i:knockout="Off"
     fill="none"
     stroke="#2D2D2D"
     stroke-width="3"
     d="M120.496,21.136c0,3.855-1.187,7.479-3.556,10.871      c-2.164,3.143-5.033,5.635-8.607,7.478c3.551,1.845,6.437,4.339,8.651,7.479c2.341,3.352,3.512,6.954,3.512,10.808      c0,0.63-0.223,1.163-0.665,1.604c-0.44,0.439-0.979,0.658-1.608,0.658c-0.632,0-1.169-0.219-1.61-0.661      c-0.441-0.439-0.662-0.975-0.662-1.604c0-4.234-1.614-7.967-4.842-11.196c-3.229-3.229-6.959-4.845-11.191-4.845      c-4.235,0-7.965,1.604-11.192,4.813c-3.229,3.209-4.842,6.951-4.842,11.228c0,0.63-0.223,1.165-0.663,1.604      c-0.442,0.442-0.98,0.661-1.609,0.661c-0.631,0-1.169-0.219-1.611-0.658c-0.44-0.44-0.662-0.974-0.662-1.604      c0-3.938,1.062-7.529,3.186-10.777c2.123-3.246,4.953-5.771,8.486-7.571c-3.553-1.8-6.387-4.325-8.5-7.571      c-2.115-3.247-3.172-6.819-3.172-10.716c0-0.627,0.22-1.162,0.661-1.601c0.439-0.44,0.975-0.661,1.604-0.661      s1.163,0.221,1.604,0.661c0.439,0.441,0.661,0.975,0.661,1.604c0,4.235,1.614,7.969,4.845,11.198      c3.231,3.229,6.965,4.843,11.204,4.843c4.236,0,7.971-1.603,11.201-4.813c3.231-3.208,4.847-6.951,4.847-11.229      c0-0.629,0.219-1.163,0.661-1.604c0.439-0.44,0.976-0.661,1.604-0.661c0.63,0,1.164,0.221,1.604,0.661      C120.275,19.974,120.496,20.508,120.496,21.136z"
     id="path199"
     style="font-size:12;fill:none;stroke:#2d2d2d;stroke-width:3;" />
  <g
     i:knockout="Off"
     opacity="0.3"
     id="g200"
     style="font-size:12;opacity:0.3;stroke:#000000;"
     transform="translate(-0.883584,0.441799)">
    <path
       i:knockout="Off"
       fill="#FFFFFF"
       stroke="none"
       d="M67.5,40.5C26,28.5,10.133,62.145,10.133,62.145     C8.96,64.632,8,64.417,8,61.667v-48c0-2.75,2.25-5,5-5h42.667c2.75,0,5,1.8,5,4c0,2.2,2.25,4,5,4H76c2.75,0,5-1.8,5-4s2.25-4,5-4     h45c2.75,0,3.82,1.916,2.378,4.257C133.378,12.924,109,52.5,67.5,40.5z"
       id="path201" />
  </g>
</svg>
