<?xml version="1.0" encoding="UTF-8" standalone="no"?>
<svg
   xmlns:dc="http://purl.org/dc/elements/1.1/"
   xmlns:cc="http://creativecommons.org/ns#"
   xmlns:rdf="http://www.w3.org/1999/02/22-rdf-syntax-ns#"
   xmlns:svg="http://www.w3.org/2000/svg"
   xmlns="http://www.w3.org/2000/svg"
   xmlns:xlink="http://www.w3.org/1999/xlink"
   xmlns:sodipodi="http://sodipodi.sourceforge.net/DTD/sodipodi-0.dtd"
   xmlns:inkscape="http://www.inkscape.org/namespaces/inkscape"
   version="1.1"
   width="64"
   height="64"
   color-interpolation="linearRGB"
   id="svg2"
   inkscape:version="0.91 r13725"
   sodipodi:docname="toolbox.svg">
  <metadata
     id="metadata93">
    <rdf:RDF>
      <cc:Work
         rdf:about="">
        <dc:format>image/svg+xml</dc:format>
        <dc:type
           rdf:resource="http://purl.org/dc/dcmitype/StillImage" />
        <dc:title></dc:title>
      </cc:Work>
    </rdf:RDF>
  </metadata>
  <defs
     id="defs91">
    <linearGradient
       y2="73.15"
       x2="23.93"
       y1="78.24"
       x1="46.07"
       gradientUnits="userSpaceOnUse"
       id="gradient0">
      <stop
         id="stop11"
         stop-color="#a3784b"
         offset="0" />
      <stop
         id="stop13"
         stop-color="#76401c"
         offset="1" />
    </linearGradient>
    <linearGradient
       y2="79.36"
       x2="29.89"
       y1="70.75"
       x1="44.47"
       gradientUnits="userSpaceOnUse"
       id="gradient1">
      <stop
         id="stop20"
         stop-color="#be8852"
         offset="0" />
      <stop
         id="stop22"
         stop-color="#dca977"
         offset="1" />
    </linearGradient>
    <linearGradient
       y2="59.95"
       x2="50.66"
       y1="49.54"
       x1="54.08"
       gradientUnits="userSpaceOnUse"
       id="gradient2">
      <stop
         id="stop27"
         stop-color="#7c4e28"
         offset="0" />
      <stop
         id="stop29"
         stop-color="#a17545"
         offset="1" />
    </linearGradient>
    <linearGradient
       y2="17.28"
       x2="55.01"
       y1="2.48"
       x1="44.25"
       gradientUnits="userSpaceOnUse"
       id="gradient3">
      <stop
         id="stop36"
         stop-color="#663200"
         offset="0" />
      <stop
         id="stop38"
         stop-color="#834f1c"
         offset="1" />
    </linearGradient>
    <linearGradient
       y2="-25.25"
       x2="61.51"
       y1="-29.81"
       x1="42.68"
       gradientUnits="userSpaceOnUse"
       id="gradient4">
      <stop
         id="stop43"
         stop-color="#e5b07b"
         offset="0" />
      <stop
         id="stop45"
         stop-color="#ffce9e"
         offset="1" />
    </linearGradient>
    <linearGradient
       y2="-16.21"
       x2="49.83"
       y1="-14.37"
       x1="32.24"
       gradientUnits="userSpaceOnUse"
       id="gradient5">
      <stop
         id="stop54"
         stop-color="#fccc9d"
         offset="0" />
      <stop
         id="stop56"
         stop-color="#eeb781"
         offset="1" />
    </linearGradient>
    <linearGradient
       y2="-14.22"
       x2="44.89"
       y1="-19.6"
       x1="1.22"
       gradientUnits="userSpaceOnUse"
       id="gradient6">
      <stop
         id="stop61"
         stop-color="#ffe3c7"
         offset="0" />
      <stop
         id="stop63"
         stop-color="#f3b476"
         offset="1" />
    </linearGradient>
    <linearGradient
       y2="20.22"
       x2="62.48"
       y1="10.75"
       x1="43.44"
       gradientUnits="userSpaceOnUse"
       id="gradient7">
      <stop
         id="stop70"
         stop-color="#ffd5ac"
         offset="0" />
      <stop
         id="stop72"
         stop-color="#b07842"
         offset="1" />
    </linearGradient>
    <linearGradient
       y2="3"
       x2="67.71"
       y1="-13.38"
       x1="46.93"
       gradientUnits="userSpaceOnUse"
       id="gradient8">
      <stop
         id="stop81"
         stop-color="#a3043c"
         offset="0" />
      <stop
         id="stop83"
         stop-color="#ff90af"
         offset="1" />
    </linearGradient>
    <linearGradient
       inkscape:collect="always"
       xlink:href="#linearGradient3331"
       id="linearGradient3657"
       gradientUnits="userSpaceOnUse"
       x1="35.197689"
       y1="46.093544"
       x2="33.665684"
       y2="50.415848"
       gradientTransform="matrix(0.707107,-0.707107,0.707107,0.707107,-48.191439,2.783526)" />
    <linearGradient
       inkscape:collect="always"
       id="linearGradient3331">
      <stop
         style="stop-color:#d3d7cf;stop-opacity:1;"
         offset="0"
         id="stop3333" />
      <stop
         style="stop-color:#d3d7cf;stop-opacity:0;"
         offset="1"
         id="stop3335" />
    </linearGradient>
    <linearGradient
       inkscape:collect="always"
       xlink:href="#linearGradient5060"
       id="linearGradient3659"
       gradientUnits="userSpaceOnUse"
       x1="38.045502"
       y1="44.886215"
       x2="33.233128"
       y2="51.470303"
       gradientTransform="matrix(0.707107,-0.707107,0.707107,0.707107,-48.191439,2.783526)" />
    <linearGradient
       inkscape:collect="always"
       id="linearGradient5060">
      <stop
         style="stop-color:black;stop-opacity:1;"
         offset="0"
         id="stop5062" />
      <stop
         style="stop-color:black;stop-opacity:0;"
         offset="1"
         id="stop5064" />
    </linearGradient>
    <linearGradient
       inkscape:collect="always"
       xlink:href="#linearGradient2889"
       id="linearGradient3654"
       gradientUnits="userSpaceOnUse"
       x1="33.358002"
       y1="37.386215"
       x2="33.358002"
       y2="52.806263"
       gradientTransform="matrix(0.707107,-0.707107,0.707107,0.707107,-48.191439,2.783526)" />
    <linearGradient
       inkscape:collect="always"
       id="linearGradient2889">
      <stop
         style="stop-color:white;stop-opacity:1;"
         offset="0"
         id="stop2891" />
      <stop
         style="stop-color:white;stop-opacity:0;"
         offset="1"
         id="stop2893" />
    </linearGradient>
    <linearGradient
       inkscape:collect="always"
       xlink:href="#linearGradient3307"
       id="linearGradient3651"
       gradientUnits="userSpaceOnUse"
       x1="36.201752"
       y1="37.667465"
       x2="30.034962"
       y2="41.842426"
       gradientTransform="translate(-36.044743,-32.108244)" />
    <linearGradient
       inkscape:collect="always"
       id="linearGradient3307">
      <stop
         style="stop-color:#888a85;stop-opacity:1;"
         offset="0"
         id="stop3309" />
      <stop
         style="stop-color:#888a85;stop-opacity:0;"
         offset="1"
         id="stop3311" />
    </linearGradient>
  </defs>
  <sodipodi:namedview
     pagecolor="#ffffff"
     bordercolor="#666666"
     borderopacity="1"
     objecttolerance="10"
     gridtolerance="10"
     guidetolerance="10"
     inkscape:pageopacity="0"
     inkscape:pageshadow="2"
     inkscape:window-width="770"
     inkscape:window-height="508"
     id="namedview89"
     showgrid="false"
     inkscape:zoom="3.6875"
     inkscape:cx="32"
     inkscape:cy="32"
     inkscape:window-x="2"
     inkscape:window-y="30"
     inkscape:window-maximized="0"
     inkscape:current-layer="svg2" />
  <path
     inkscape:connector-curvature="0"
     id="path6"
     d="m 32,62 8,0 4,2 L 61,43 55.8,40.4 60,38 52,37 32,62 Z"
     style="fill:#000000;fill-opacity:0.39599998" />
  <path
     inkscape:connector-curvature="0"
     id="path8"
     d="m 10,39 0,10 22,11 18,-18 0,-6"
     style="fill:none;stroke:#000000;stroke-width:4;stroke-linejoin:round" />
  <path
     inkscape:connector-curvature="0"
     id="path15"
     d="M 32,38 50,20 50,42 32,60 32,38 Z"
     style="fill:url(#gradient0)" />
  <path
     inkscape:connector-curvature="0"
     id="path17"
     d="M 32,38 42,38 32,48 32,38 Z"
     style="fill:#5d2b0c" />
  <path
     inkscape:connector-curvature="0"
     id="path24"
     d="M 11.89,36.01 14,46 l 18,9 0,5 -22,-11 0,-13.01 1.89,0.02 z"
     style="fill:url(#gradient1)" />
  <path
     inkscape:connector-curvature="0"
     id="path31"
     d="M 32,38 32,55 14,46 11.89,36.01 32,38 Z"
     style="fill:url(#gradient2)" />
  <path
     inkscape:connector-curvature="0"
     id="path33"
     d="M 24,46 2,35 l 8,-8 -8,0 22,-13 6,0 7,-8 17,6 -4,11 12,3 -18,18 -12,-6 -8,8 z"
     style="fill:none;stroke:#000000;stroke-width:4;stroke-linejoin:round" />
  <path
     inkscape:connector-curvature="0"
     id="path40"
     d="M 10,27 30,14 30,33 23.89,37.88 10,30.99 10,27 Z"
     style="fill:url(#gradient3)" />
  <path
     inkscape:connector-curvature="0"
     id="path47"
     d="m 30,14 4,16 16,7 0,-15 -20,-8 z"
     style="fill:url(#gradient4)" />
  <path
     inkscape:connector-curvature="0"
     id="path49"
     d="m 30,14 4,16 16,7 -8.15,1.33 L 30,33 30,14 Z"
     style="fill:#945f2c" />
  <path
     inkscape:connector-curvature="0"
     id="path51"
     d="M 30,33 23.89,37.88 32,38 36.1,35.74 30,33 Z"
     style="fill:#85501c" />
  <path
     inkscape:connector-curvature="0"
     id="path58"
     d="M 37,6 54,12 50,23 30,14 37,6 Z"
     style="fill:url(#gradient5)" />
  <path
     inkscape:connector-curvature="0"
     id="path65"
     d="M 2,35 24,46 32,38 10,27 2,35 Z"
     style="fill:url(#gradient6)" />
  <path
     inkscape:connector-curvature="0"
     id="path67"
     d="M 2,27 24,14 30,14 10,27 2,27 Z"
     style="fill:#ffdcba" />
  <path
     inkscape:connector-curvature="0"
     id="path74"
     d="M 32,38 50,23 62,26 44,44 32,38 Z"
     style="fill:url(#gradient7)" />
  <g
     id="g7555"
     transform="translate(8.9918559,16.100626)">
    <path
       style="color:#000000;display:inline;overflow:visible;visibility:visible;opacity:0.2;fill:#000000;fill-opacity:1;fill-rule:nonzero;stroke:#000000;stroke-width:1.00000036;stroke-linecap:round;stroke-linejoin:round;stroke-miterlimit:4;stroke-dasharray:none;stroke-dashoffset:1.39999998;stroke-opacity:1;marker:none;marker-start:none;marker-mid:none;marker-end:none"
       d="m -1.9584993,-6.7356581 c -0.64332,0.03859 -1.260006,0.159458 -1.875,0.375 l 4.46875001,4.46875 -1.4375,2.84375001 -2.84375001,1.40625009 -4.46875,-4.4375001 c -0.875534,2.46604201 -0.316262,5.3087381 1.65625,7.2812501 1.972513,1.972513 4.815204,2.500533 7.28125001,1.625 l 1.65625029,1.65625 8.15625,0 c 0.103462,0 0.211805,-0.02152 0.3125,-0.03125 l -5.875,-5.875 c 0.862168,-2.45997909 0.309165,-5.3158351 -1.65625,-7.2812501 -1.474061,-1.47406 -3.44503929,-2.147025 -5.3750003,-2.03125 z"
       id="path6270"
       inkscape:connector-curvature="0" />
    <path
       inkscape:transform-center-y="4.25"
       sodipodi:nodetypes="csccccsccccc"
       id="path3193"
       d="m -8.1073113,-3.0943011 c -0.875533,2.46604201 -0.337327,5.3195291 1.635185,7.2920411 1.972514,1.972514 4.825995,2.510718 7.29204101,1.635185 L 13.927979,18.940989 18.192718,14.67625 5.084654,1.5681859 c 0.862167,-2.45997899 0.308133,-5.304529 -1.657282,-7.269944 -1.965414,-1.965414 -4.8099703,-2.519448 -7.2699443,-1.657282 l 4.46361301,4.463613 -1.425262,2.83947601 -2.83947701,1.42526299 -4.463613,-4.463613 z"
       style="color:#000000;display:inline;overflow:visible;visibility:visible;fill:url(#linearGradient3657);fill-opacity:1;fill-rule:nonzero;stroke:url(#linearGradient3659);stroke-width:1.00000036;stroke-linecap:round;stroke-linejoin:round;stroke-miterlimit:4;stroke-dasharray:none;stroke-dashoffset:1.39999998;stroke-opacity:1;marker:none"
       inkscape:connector-curvature="0" />
    <path
       sodipodi:nodetypes="cssccccsscccccccc"
       id="path3195"
       d="m -7.2897183,-0.86249409 c -0.03716,1.576268 0.317,3.14542809 1.524699,4.35312709 1.697412,1.697412 4.13642,2.143748 6.25347801,1.392117 C 0.85249271,4.755565 1.257239,4.85029 1.527022,5.125818 L 14.912354,18.51115 17.762879,15.660625 4.377547,2.275293 C 4.101994,2.005538 4.007294,1.6007639 4.134479,1.2367289 c 0.73905,-2.10869299 0.278058,-4.539108 -1.414214,-6.23138 -1.200524,-1.200524 -2.76401929,-1.572176 -4.3310303,-1.546797 l 2.9389133,2.938914 c 0.299997,0.305088 0.37118,0.767886 0.176777,1.149049 L 0.06861371,0.39703991 c -0.09599,0.190982 -0.25096,0.345952 -0.441942,0.441942 L -3.2017563,2.253196 c -0.381163,0.194403 -0.843945,0.123205 -1.149049,-0.176777 l -2.938913,-2.93891309 z"
       style="color:#000000;display:inline;overflow:visible;visibility:visible;fill:none;stroke:url(#linearGradient3654);stroke-width:1.00000036;stroke-linecap:round;stroke-linejoin:miter;stroke-miterlimit:4;stroke-dashoffset:1.39999998;stroke-opacity:1;marker:none"
       inkscape:connector-curvature="0" />
    <rect
       ry="1.0000049"
       rx="1.0000049"
       y="5.3917551"
       x="-1.5447253"
       height="15.00002"
       width="2.0000098"
       id="rect3197"
       style="color:#000000;display:inline;overflow:visible;visibility:visible;opacity:0.4;fill:none;stroke:url(#linearGradient3651);stroke-width:1.00000012;stroke-linecap:round;stroke-linejoin:miter;stroke-miterlimit:4;stroke-dasharray:none;stroke-dashoffset:1.39999998;stroke-opacity:1;marker:none"
       transform="matrix(0.70710678,-0.70710678,0.70710678,0.70710678,0,0)" />
  </g>
  <g
     id="g6893"
     transform="matrix(1.25,0,0,1.25,14.016949,6.9661017)">
    <g
       style="clip-rule:nonzero;fill:#ffffff;fill-rule:nonzero;stroke:#000000;stroke-miterlimit:4"
       id="Layer_x0020_2">
      <path
         id="path6842"
         d="m 21.6,16.3 0,-2.2 -1.4,0 C 20.1,13.5 19.8,13 19.5,12.5 l 1,-1 -1.6,-1.6 -1,1 c -0.5,-0.3 -1,-0.5 -1.6,-0.7 l 0,-1.4 -2.2,0 0,1.4 c -0.6,0.1 -1.1,0.4 -1.6,0.7 l -1,-1 -1.6,1.6 1,1 c -0.3,0.5 -0.5,1 -0.7,1.6 l -1.4,0 0,2.2 1.4,0 c 0.1,0.6 0.4,1.1 0.7,1.6 l -1,1 1.6,1.6 1,-1 c 0.5,0.3 1,0.5 1.6,0.7 l 0,1.4 2.2,0 0,-1.4 c 0.6,-0.1 1.1,-0.4 1.6,-0.7 l 1,1 1.6,-1.6 -1,-1 c 0.3,-0.5 0.5,-1 0.7,-1.6 l 1.4,0 z m -6.4,0.1 c -0.6,0 -1.1,-0.5 -1.1,-1.1 0,-0.6 0.5,-1.1 1.1,-1.1 0.6,0 1.1,0.5 1.1,1.1 0,0.6 -0.5,1.1 -1.1,1.1 z"
         style="fill:none;stroke-width:2.47239995;stroke-linecap:round;stroke-linejoin:round"
         inkscape:connector-curvature="0" />
      <linearGradient
         y2="19.192499"
         x2="18.485701"
         y1="12.1245"
         x1="12.6045"
         gradientUnits="userSpaceOnUse"
         id="aigrd1">
        <stop
           id="stop6845"
           style="stop-color:#BBBBBB"
           offset="0" />
        <stop
           id="stop6847"
           style="stop-color:#D2D2D2"
           offset="1" />
      </linearGradient>
      <path
         id="path6849"
         d="m 21.6,16.3 0,-2.2 -1.4,0 C 20.1,13.5 19.8,13 19.5,12.5 l 1,-1 -1.6,-1.6 -1,1 c -0.5,-0.3 -1,-0.5 -1.6,-0.7 l 0,-1.4 -2.2,0 0,1.4 c -0.6,0.1 -1.1,0.4 -1.6,0.7 l -1,-1 -1.6,1.6 1,1 c -0.3,0.5 -0.5,1 -0.7,1.6 l -1.4,0 0,2.2 1.4,0 c 0.1,0.6 0.4,1.1 0.7,1.6 l -1,1 1.6,1.6 1,-1 c 0.5,0.3 1,0.5 1.6,0.7 l 0,1.4 2.2,0 0,-1.4 c 0.6,-0.1 1.1,-0.4 1.6,-0.7 l 1,1 1.6,-1.6 -1,-1 c 0.3,-0.5 0.5,-1 0.7,-1.6 l 1.4,0 z m -6.4,0.1 c -0.6,0 -1.1,-0.5 -1.1,-1.1 0,-0.6 0.5,-1.1 1.1,-1.1 0.6,0 1.1,0.5 1.1,1.1 0,0.6 -0.5,1.1 -1.1,1.1 z"
         style="fill:url(#aigrd1);stroke:none"
         inkscape:connector-curvature="0" />
      <g
         id="g6851"
         style="stroke:none">
        <path
           id="path6853"
           d="m 11.5,12.5 -1,-1 1.3,-1.3 -0.3,-0.3 -1.6,1.6 1,1 c -0.3,0.5 -0.5,1 -0.7,1.6 l 0.6,0 c 0.1,-0.6 0.4,-1.1 0.7,-1.6 z"
           style="opacity:0.58999999"
           inkscape:connector-curvature="0" />
        <path
           id="path6855"
           d="m 13.1,19.5 -0.2,0.2 c 0.4,0.2 0.8,0.4 1.2,0.5 l 0,1.4 0.6,0 0,-1.4 c -0.6,-0.1 -1.1,-0.4 -1.6,-0.7 z"
           style="opacity:0.58999999"
           inkscape:connector-curvature="0" />
        <path
           id="path6857"
           d="m 11.5,17.9 c -0.3,-0.5 -0.5,-1 -0.7,-1.6 l -0.6,0 c 0.1,0.6 0.4,1.1 0.7,1.6 l -1,1 1.6,1.6 0.3,-0.3 -1.3,-1.3 1,-1 z"
           style="opacity:0.58999999"
           inkscape:connector-curvature="0" />
        <path
           id="path6859"
           d="m 8.8,14.1 0,2.2 0.6,0 0,-2.2 -0.6,0 z"
           style="opacity:0.58999999"
           inkscape:connector-curvature="0" />
        <path
           id="path6861"
           d="m 14.7,10.2 0,-1.4 -0.6,0 0,1.4 c -0.4,0.1 -0.8,0.2 -1.2,0.4 l 0.2,0.2 c 0.5,-0.3 1,-0.5 1.6,-0.7 z"
           style="opacity:0.58999999"
           inkscape:connector-curvature="0" />
      </g>
      <path
         id="path6863"
         d="M 10,8.2 10.4,6.8 9.5,6.6 C 9.5,6.2 9.5,5.9 9.4,5.5 L 10.2,5.1 9.5,3.8 8.7,4.3 C 8.4,4 8.2,3.8 7.8,3.6 L 8,2.7 6.7,2.3 6.5,3.2 c -0.4,0 -0.7,0 -1.1,0.1 L 4.9,2.6 3.7,3.3 4.1,4 C 3.9,4.3 3.6,4.6 3.5,4.9 L 2.6,4.7 2.2,6 3.1,6.2 c 0,0.4 0,0.7 0.1,1.1 L 2.4,7.8 3.1,9 3.9,8.6 C 4.1,8.9 4.4,9.1 4.8,9.3 L 4.6,10.2 6,10.6 6.2,9.7 c 0.4,0 0.7,0 1.1,-0.1 L 7.7,10.4 8.9,9.7 8.5,8.8 C 8.7,8.6 9,8.3 9.1,8 L 10,8.2 Z M 6.1,7.1 C 5.7,7 5.5,6.6 5.6,6.3 5.7,5.9 6.1,5.7 6.5,5.8 6.9,5.9 7.1,6.3 7,6.6 6.9,7 6.5,7.2 6.1,7.1 Z"
         style="fill:none;stroke-width:2.47239995;stroke-linecap:round;stroke-linejoin:round"
         inkscape:connector-curvature="0" />
      <linearGradient
         gradientTransform="matrix(0.9625,0.2714,-0.2714,0.9625,-49.4545,35.6615)"
         y2="-40.736599"
         x2="47.815498"
         y1="-45.209999"
         x1="44.0933"
         gradientUnits="userSpaceOnUse"
         id="aigrd2">
        <stop
           id="stop6866"
           style="stop-color:#BBBBBB"
           offset="0" />
        <stop
           id="stop6868"
           style="stop-color:#D2D2D2"
           offset="1" />
      </linearGradient>
      <path
         id="path6870"
         d="M 10,8.2 10.4,6.8 9.5,6.6 C 9.5,6.2 9.5,5.9 9.4,5.5 L 10.2,5.1 9.5,3.8 8.7,4.3 C 8.4,4 8.2,3.8 7.8,3.6 L 8,2.7 6.7,2.3 6.5,3.2 c -0.4,0 -0.7,0 -1.1,0.1 L 4.9,2.6 3.7,3.3 4.1,4 C 3.9,4.3 3.6,4.6 3.5,4.9 L 2.6,4.7 2.2,6 3.1,6.2 c 0,0.4 0,0.7 0.1,1.1 L 2.4,7.8 3.1,9 3.9,8.6 C 4.1,8.9 4.4,9.1 4.8,9.3 L 4.6,10.2 6,10.6 6.2,9.7 c 0.4,0 0.7,0 1.1,-0.1 L 7.7,10.4 8.9,9.7 8.5,8.8 C 8.7,8.6 9,8.3 9.1,8 L 10,8.2 Z M 6.1,7.1 C 5.7,7 5.5,6.6 5.6,6.3 5.7,5.9 6.1,5.7 6.5,5.8 6.9,5.9 7.1,6.3 7,6.6 6.9,7 6.5,7.2 6.1,7.1 Z"
         style="fill:url(#aigrd2);stroke:none"
         inkscape:connector-curvature="0" />
      <g
         id="g6872"
         style="stroke:none">
        <path
           id="path6874"
           d="M 4.5,4.1 4.1,3.3 5.1,2.7 5,2.5 3.7,3.2 4.2,4 C 3.9,4.3 3.7,4.6 3.5,4.9 L 3.8,5 C 4,4.7 4.3,4.4 4.5,4.1 Z"
           style="opacity:0.58999999"
           inkscape:connector-curvature="0" />
        <path
           id="path6876"
           d="M 4.3,8.7 4.1,8.8 C 4.3,9 4.5,9.1 4.8,9.3 L 4.6,10.2 5,10.3 5.2,9.4 C 4.8,9.2 4.5,9 4.3,8.7 Z"
           style="opacity:0.58999999"
           inkscape:connector-curvature="0" />
        <path
           id="path6878"
           d="M 3.6,7.5 C 3.5,7.1 3.4,6.7 3.5,6.4 L 3.1,6.3 c 0,0.4 0,0.7 0.1,1.1 L 2.5,7.8 3.1,9 3.3,8.9 2.7,7.9 3.5,7.5 Z"
           style="opacity:0.58999999"
           inkscape:connector-curvature="0" />
        <path
           id="path6880"
           d="M 2.6,4.6 2.2,6 2.6,6.1 3,4.7 2.6,4.6 Z"
           style="opacity:0.58999999"
           inkscape:connector-curvature="0" />
        <path
           id="path6882"
           d="M 6.9,3.3 7.1,2.4 6.8,2.3 6.5,3.2 c -0.3,0 -0.6,0 -0.8,0.1 L 5.8,3.5 C 6.1,3.4 6.5,3.4 6.9,3.4 Z"
           style="opacity:0.58999999"
           inkscape:connector-curvature="0" />
      </g>
    </g>
    <g
       style="clip-rule:nonzero;fill-rule:nonzero;stroke:#000000;stroke-miterlimit:4"
       id="Layer_x0020_3">
      <path
         id="path6885"
         d="M 24,24 0,24 0,0 24,0 24,24 Z"
         style="fill:none;stroke:none"
         inkscape:connector-curvature="0" />
    </g>
  </g>
</svg>
