<?xml version="1.0" encoding="UTF-8" standalone="no"?>
<svg
   xmlns:dc="http://purl.org/dc/elements/1.1/"
   xmlns:cc="http://creativecommons.org/ns#"
   xmlns:rdf="http://www.w3.org/1999/02/22-rdf-syntax-ns#"
   xmlns:svg="http://www.w3.org/2000/svg"
   xmlns="http://www.w3.org/2000/svg"
   xmlns:sodipodi="http://sodipodi.sourceforge.net/DTD/sodipodi-0.dtd"
   xmlns:inkscape="http://www.inkscape.org/namespaces/inkscape"
   version="1.0"
   width="80"
   height="80"
   id="svg2"
   style="display:inline"
   inkscape:version="0.47 r22583"
   sodipodi:docname="uzbl_logo.svg">
  <metadata
     id="metadata31">
    <rdf:RDF>
      <cc:Work
         rdf:about="">
        <dc:format>image/svg+xml</dc:format>
        <dc:type
           rdf:resource="http://purl.org/dc/dcmitype/StillImage" />
        <dc:title></dc:title>
      </cc:Work>
    </rdf:RDF>
  </metadata>
  <sodipodi:namedview
     pagecolor="#ffffff"
     bordercolor="#666666"
     borderopacity="1"
     objecttolerance="10"
     gridtolerance="10"
     guidetolerance="10"
     inkscape:pageopacity="0"
     inkscape:pageshadow="2"
     inkscape:window-width="1187"
     inkscape:window-height="768"
     id="namedview29"
     showgrid="false"
     inkscape:zoom="2.6222222"
     inkscape:cx="36.101695"
     inkscape:cy="45"
     inkscape:window-x="-3"
     inkscape:window-y="1"
     inkscape:window-maximized="1"
     inkscape:current-layer="svg2" />
  <defs
     id="defs4">
    <inkscape:perspective
       sodipodi:type="inkscape:persp3d"
       inkscape:vp_x="0 : 45 : 1"
       inkscape:vp_y="0 : 1000 : 0"
       inkscape:vp_z="195 : 45 : 1"
       inkscape:persp3d-origin="97.5 : 30 : 1"
       id="perspective33" />
  </defs>
  <g
     id="g2839"
     transform="matrix(1.2052663,0,0,1.2052663,0.81372188,-18.888174)">
    <path
       style="fill:#000000;display:inline"
       id="face"
       d="m 7.4229949,18 c -1.774016,1.02422 -0.63563,13.77927 0.6875,18.90625 -2.110764,4.59233 -1.64889,9.29306 -0.03125,13.9375 -2.850036,-0.8358 -7.058505,-2.76738 -7.62501799,-1.78125 -1.011088,1.76 2.92517899,3.98209 4.06249999,6.1875 -0.986446,0.91235 -4.29755599,1.41285 -4.49999999,2.6875 -0.29228,1.84028 3.31919799,3.0831 5.09374999,4.84375 -1.960692,0.9312 -4.30571299,2.6505 -4.03125,4.15625 0.235643,1.29277 2.887265,2.03605 4.71875,2.4375 4.034578,0.88435 8.2217981,1.63451 11.7500181,3.84375 3.67361,3.61498 8.78912,6.625 14.96875,6.625 6.13083,-1e-5 11.23398,-2.96118 14.90625,-6.53125 4.10302,-4.19409 16.4874,-4.9523 16.53125,-6.90625 0.04145,-1.84686 -2.72268,-2.2974 -4.09375,-3.375 2.13759,-1.07563 5.34974,-2.66539 5.15625,-4.25 -0.25311,-2.07279 -3.29911,-1.78876 -5.53125,-2.53125 1.4865,-2.23332 6.06655,-6.63316 5,-7.65625 -1.03431,-0.99216 -4.214,1.21119 -7.4375,2.125 1.77832,-4.431 1.88952,-8.82575 0.0625,-13.21875 0.62648,-5.52283 3.86772,-18.68797 0.75,-19.40625 -2.61389,-0.60221 -10.1612,5.35294 -14.78125,8.3125 -0.82659,-0.27879 -2.19227,-0.131 -3.875,-1.0625 -1.26118,-0.69814 -0.45636,-2.18642 -1.89959,-2.65495 -1.58814,-0.51558 -3.71594,2.20455 -4.39238,1.87906 -0.74425,-0.35811 0.45878,-2.84346 -1.08931,-3.3197 -1.75377,-0.53952 -3.22493,1.07001 -4.1178,2.71561 -0.69699,1.06169 -1.51521,2.09081 -5.3802,2.79419 C 18.548215,24.60998 9.5112849,16.79432 7.4229949,18 z" />
    <path
       style="fill:#ddff95;display:inline"
       id="eyeR"
       d="m 43.016745,38.4375 c -6.45866,0.09479 -9.39563,4.62474 -9.40625,10.40625 2.56407,1.72191 5.08782,3.29797 7.8125,4.125 2.78943,0.84668 5.84212,0.91083 9.625,-0.375 2.40949,-3.11837 2.86113,-6.60204 0.65625,-9.84375 -2.12574,-3.12536 -5.31565,-4.36198 -8.6875,-4.3125 z" />
    <path
       style="fill:#ddff95;display:inline"
       id="eyeL"
       d="m 22.016745,38.4375 c -3.38233,-0.29796 -6.39077,1.32567 -8.71875,4.375 -2.4262,3.17797 -1.32766,6.75172 0.6875,9.78125 3.79716,1.29693 6.85928,1.22397 9.65625,0.375 2.73683,-0.83072 5.2364,-2.42523 7.8125,-4.15625 0.53952,-6.23256 -3.43975,-9.84664 -9.4375,-10.375 z" />
    <path
       style="fill:#ffffff;display:inline"
       id="snout"
       d="m 27.835845,53.20612 c -9.06823,2.02782 -14.3946,9.44171 -9.59472,17.85941 2.39046,4.19221 8.44091,7.18604 14.29962,7.18604 5.81305,0 11.75456,-2.9592 14.21745,-7.08562 5.11812,-8.5751 -0.38407,-15.91941 -9.53309,-17.79916 l -9.38926,-0.16067 z" />
    <path
       style="fill:#000000"
       id="nose"
       d="m 40.100327,55.097476 c 0.0015,3.749495 -3.388269,6.789785 -7.570312,6.789785 -4.182043,0 -7.571832,-3.04029 -7.570312,-6.789785 -0.0015,-3.749495 3.388269,-6.789785 7.570312,-6.789785 4.182043,0 7.571832,3.04029 7.570312,6.789785 z" />
    <path
       style="fill:#000000"
       id="pupilL"
       d="m 23.49621,46.426447 c 0,1.990037 -1.005318,3.603281 -2.24544,3.603281 -1.240122,0 -2.24544,-1.613244 -2.24544,-3.603281 0,-1.990037 1.005318,-3.603281 2.24544,-3.603281 1.240122,0 2.24544,1.613244 2.24544,3.603281 l 0,0 z" />
    <path
       style="fill:#000000"
       id="pupilR"
       d="m 46.053328,46.426447 c 0,1.990037 -1.005318,3.603281 -2.24544,3.603281 -1.240122,0 -2.24544,-1.613244 -2.24544,-3.603281 0,-1.990037 1.005318,-3.603281 2.24544,-3.603281 1.240122,0 2.24544,1.613244 2.24544,3.603281 l 0,0 z" />
    <path
       style="fill:#383838;display:inline"
       id="earL"
       d="m 10.559645,22.74932 c -0.13156,-0.0067 -0.2466,0.01578 -0.34294,0.07095 -1.1503201,0.65879 -0.206,6.73843 1.06431,12.63009 1.81742,-2.60388 4.69266,-5.10912 7.82418,-6.78367 -3.56171,-2.72475 -7.14576,-5.84577 -8.54555,-5.91737 z" />
    <path
       style="fill:#383838;display:inline"
       id="earR"
       d="m 54.503825,22.74932 c -1.39978,0.0716 -4.98383,3.19262 -8.54554,5.91737 3.13151,1.67455 6.00675,4.17979 7.82417,6.78367 1.27031,-5.89166 2.21463,-11.9713 1.06432,-12.63009 -0.09635,-0.05517 -0.21137,-0.07768 -0.34295,-0.07095 z" />
    <path
       d="M 23.286875,57.357822 C 20.132928,57.558676 15.061869,56.968294 12.206661,56.343661"
       id="whiskerLu"
       style="stroke:#b0b0b0;stroke-width:1.29999995;stroke-linecap:round;stroke-miterlimit:4" />
    <path
       style="stroke:#b0b0b0;stroke-width:1.29157937;stroke-linecap:round;stroke-miterlimit:4"
       id="whiskerLl"
       d="M 14.759781,62.25309 C 17.85073,62.154481 21.488808,61.518954 24.9607,60.75817" />
    <path
       d="m 41.76972,57.361007 c 3.727041,0.152866 7.433577,-0.33485 11.09,-1.01273"
       id="whiskerRu"
       style="stroke:#b0b0b0;stroke-width:1.29999995;stroke-linecap:round;stroke-miterlimit:4" />
    <path
       style="fill:none;stroke:#b0b0b0;stroke-width:1.29999995;stroke-linecap:round;stroke-miterlimit:4"
       id="whiskerRl"
       d="M 50.308871,62.257122 C 47.213257,62.157981 43.569688,61.51903 40.092557,60.754143" />
    <path
       style="fill:#000000;stroke:#000000;stroke-width:2;stroke-linecap:round;stroke-linejoin:round;stroke-miterlimit:4;display:inline"
       id="mouth"
       d="m 23.413745,65.78454 c -0.01955,0.17173 0.52366,1.57063 0.63202,2.0679 0.74321,3.41134 3.62017,5.46381 8.48429,5.46382 4.86411,-1e-5 7.74107,-2.05248 8.48429,-5.46382 0.10833,-0.49727 0.65155,-1.89617 0.632,-2.0679 -1.95761,1.29028 -5.49893,0.61379 -9.11629,0.61378 -3.61738,1e-5 -7.15871,0.6765 -9.11631,-0.61378 z" />
    <g
       style="display:inline"
       id="tongue"
       transform="matrix(0.6791858,0,0,0.6683349,-64.743849,-237.77607)">
      <path
         style="fill:#ffffff"
         id="path2531"
         d="m 132.88896,456.0374 c 1.10427,0.11123 2.19975,0.23126 3.41813,0.22839 -0.10715,1.64417 -0.20701,3.401 0.0862,5.52344 -1.40125,-1.22553 -3.19738,-4.10073 -3.5043,-5.75183 z" />
      <path
         style="fill:#ffffff;display:inline"
         id="path2533"
         d="m 153.55363,456.0374 c -1.10427,0.11123 -2.19975,0.23126 -3.41813,0.22839 0.10715,1.64417 0.20701,3.401 -0.0862,5.52344 1.40125,-1.22553 3.19738,-4.10073 3.5043,-5.75183 z" />
    </g>
    <path
       style="fill:#818181;display:inline"
       id="browL"
       d="m 21.959615,32.81464 c -1.11748,-0.11507 -2.33262,-0.10602 -3.566,0.11412 -1.60671,0.28677 -2.99453,1.27256 -4.02245,2.16812 -1.0279,0.89557 -1.71168,1.74021 -1.71168,1.74021 -0.28589,0.3696 -0.24659,0.89539 0.09107,1.21837 0.33767,0.32299 0.84664,0.31606 1.22122,0.03687 3.92616,-2.92628 8.62857,-2.60266 13.20847,-1.8258 0.44141,0.10132 0.89039,-0.13627 1.05488,-0.55824 0.16449,-0.42197 0.0012,-0.91259 -0.39873,-1.12491 -1.83504,-0.97408 -3.83048,-1.43872 -5.87678,-1.76874 z" />
    <path
       style="fill:#818181;display:inline"
       id="browR"
       d="m 43.100465,32.81464 c 1.11748,-0.11507 2.33262,-0.10602 3.566,0.11412 1.60671,0.28677 2.99453,1.27256 4.02245,2.16812 1.0279,0.89557 1.71168,1.74021 1.71168,1.74021 0.28589,0.3696 0.24659,0.89539 -0.09107,1.21837 -0.33767,0.32299 -0.84664,0.31606 -1.22122,0.03687 -3.92616,-2.92628 -8.62857,-2.60266 -13.20847,-1.8258 -0.44141,0.10132 -0.89039,-0.13627 -1.05488,-0.55824 -0.16449,-0.42197 -0.0013,-0.91259 0.39873,-1.12491 1.83504,-0.97408 3.83048,-1.43872 5.87678,-1.76874 z" />
    <path
       style="fill:#4d4d4d"
       id="noseFX"
       d="m 35.49285,52.274281 c 0,1.159792 -1.326497,2.099989 -2.962814,2.099989 -1.636318,0 -2.962815,-0.940197 -2.962815,-2.099989 0,-1.159792 1.326497,-2.099989 2.962815,-2.099989 1.636317,0 2.962814,0.940197 2.962814,2.099989 z" />
  </g>
</svg>
