<?xml version="1.0" encoding="UTF-8" standalone="no"?>
<svg
   xmlns:dc="http://purl.org/dc/elements/1.1/"
   xmlns:cc="http://creativecommons.org/ns#"
   xmlns:rdf="http://www.w3.org/1999/02/22-rdf-syntax-ns#"
   xmlns:svg="http://www.w3.org/2000/svg"
   xmlns="http://www.w3.org/2000/svg"
   xmlns:sodipodi="http://sodipodi.sourceforge.net/DTD/sodipodi-0.dtd"
   xmlns:inkscape="http://www.inkscape.org/namespaces/inkscape"
   version="1.1"
   width="64"
   height="64"
   color-interpolation="linearRGB"
   id="svg2"
   sodipodi:version="0.32"
   inkscape:version="0.91 r13725"
   sodipodi:docname="virtualbox-vbox.svg"
   inkscape:output_extension="org.inkscape.output.svg.inkscape">
  <metadata
     id="metadata31">
    <rdf:RDF>
      <cc:Work
         rdf:about="">
        <dc:format>image/svg+xml</dc:format>
        <dc:type
           rdf:resource="http://purl.org/dc/dcmitype/StillImage" />
        <dc:title></dc:title>
      </cc:Work>
    </rdf:RDF>
  </metadata>
  <defs
     id="defs29">
    <inkscape:perspective
       sodipodi:type="inkscape:persp3d"
       inkscape:vp_x="0 : 32 : 1"
       inkscape:vp_y="0 : 1000 : 0"
       inkscape:vp_z="64 : 32 : 1"
       inkscape:persp3d-origin="32 : 21.333333 : 1"
       id="perspective33" />
    <inkscape:perspective
       id="perspective35"
       inkscape:persp3d-origin="32 : 21.333333 : 1"
       inkscape:vp_z="64 : 32 : 1"
       inkscape:vp_y="0 : 1000 : 0"
       inkscape:vp_x="0 : 32 : 1"
       sodipodi:type="inkscape:persp3d" />
    <linearGradient
       id="linearGradient2423"
       gradientUnits="userSpaceOnUse"
       x1="83.050003"
       y1="-5.5500002"
       x2="103.7"
       y2="26.91">
      <stop
         offset="0"
         stop-color="#faf9d2"
         id="stop2425" />
      <stop
         offset="1"
         stop-color="#dddb8f"
         id="stop2427" />
    </linearGradient>
    <linearGradient
       id="linearGradient2429"
       gradientUnits="userSpaceOnUse"
       x1="34.740002"
       y1="6.0599999"
       x2="56.810001"
       y2="23.280001">
      <stop
         offset="0"
         stop-color="#010101"
         id="stop2431" />
      <stop
         offset="1"
         stop-color="#807e5d"
         id="stop2433" />
    </linearGradient>
    <linearGradient
       y2="12.34"
       x2="95.370003"
       y1="-20.700001"
       x1="70.139999"
       gradientUnits="userSpaceOnUse"
       id="gradient0-6">
      <stop
         id="stop4218"
         stop-color="#c80505"
         offset="0" />
      <stop
         id="stop4220"
         stop-color="#9d0404"
         offset="0.4904" />
      <stop
         id="stop4222"
         stop-color="#b40404"
         offset="1" />
    </linearGradient>
    <linearGradient
       y2="22.549999"
       x2="102.64"
       y1="-7.1199999"
       x1="89.68"
       gradientUnits="userSpaceOnUse"
       id="gradient1-7">
      <stop
         id="stop4229"
         stop-color="#ff3e3e"
         offset="0" />
      <stop
         id="stop4231"
         stop-color="#f70606"
         offset="1" />
    </linearGradient>
    <linearGradient
       y2="3.46"
       x2="71.470001"
       y1="-23.17"
       x1="47.25"
       gradientUnits="userSpaceOnUse"
       id="gradient2">
      <stop
         id="stop4236"
         stop-color="#ff9090"
         offset="0" />
      <stop
         id="stop4238"
         stop-color="#ff7575"
         offset="1" />
    </linearGradient>
  </defs>
  <sodipodi:namedview
     inkscape:window-height="1016"
     inkscape:window-width="1920"
     inkscape:pageshadow="2"
     inkscape:pageopacity="0.0"
     guidetolerance="10.0"
     gridtolerance="10.0"
     objecttolerance="10.0"
     borderopacity="1.0"
     bordercolor="#666666"
     pagecolor="#ffffff"
     id="base"
     showgrid="false"
     inkscape:zoom="4.9290904"
     inkscape:cx="-18.654922"
     inkscape:cy="58.498604"
     inkscape:window-x="0"
     inkscape:window-y="30"
     inkscape:current-layer="svg2"
     inkscape:window-maximized="1" />
  <g
     id="g4">
    <path
       style="fill:#010101; fill-opacity:0.5725"
       d="M27 57L29 59L32.13 55.83L37 59L45.39 47.54L64 38L59 35L61 37L36 49L27 57z            M58 34L62 31L58 29L55 32L58 34z"
       id="path6" />
    <path
       style="fill:none; stroke:#010101; stroke-width:4"
       d="M6.25 30C6.25 30 11.87 36 16.87 42.5C21.87 49 26.25 55.75 26.25 55.75L59.12 36.87L32 15L6.25 30z"
       id="path8" />
    <radialGradient
       id="gradient0"
       gradientUnits="userSpaceOnUse"
       cx="0"
       cy="0"
       r="64"
       gradientTransform="matrix(0.5714,0,0,0.3333,26,35)">
      <stop
         offset="1"
         stop-color="#c0d5ff"
         id="stop11" />
      <stop
         offset="0.4886"
         stop-color="#896eff"
         id="stop13" />
    </radialGradient>
    <path
       style="fill:url(#gradient0)"
       d="M6.25 30C6.25 30 11.87 36 16.87 42.5C21.87 49 26.25 55.75 26.25 55.75L59.12 36.87L32 15L6.25 30z"
       id="path15" />
    <path
       style="fill:none; stroke:#010101; stroke-width:4"
       d="M2.62 30.87C2.62 30.87 10.95 36.26 19 41.87C27.44 47.75 35.75 52.75 35.75 52.75L58.12 26.37C58.12 26.37 45.44 20.7 35.37 15.37C30.18 12.62 26 9.37 26 9.37L2.62 30.87z"
       id="path17" />
    <linearGradient
       id="gradient1"
       gradientUnits="userSpaceOnUse"
       x1="105.45"
       y1="-23.42"
       x2="119.92"
       y2="34.32">
      <stop
         offset="0"
         stop-color="#a5b1ff"
         id="stop20" />
      <stop
         offset="0.7386"
         stop-color="#eaf1ff"
         id="stop22" />
      <stop
         offset="1"
         stop-color="#b3b8ff"
         id="stop24" />
    </linearGradient>
    <path
       style="fill:url(#gradient1)"
       d="M2.62 30.87C2.62 30.87 10.95 36.26 19 41.87C27.44 47.75 35.75 52.75 35.75 52.75L58.12 26.37C58.12 26.37 45.44 20.7 35.37 15.37C30.18 12.62 26 9.37 26 9.37L2.62 30.87z"
       id="path26" />
  </g>
  <g
     style="color-interpolation:linearRGB"
     id="g7544"
     transform="matrix(0.62017696,0,0,0.62017696,19.045321,-1.3175199)">
    <g
       id="g7509">
      <path
         id="path7511"
         d="M 30,62 46,62 64,40 52,36 30,62 Z"
         style="fill:#010101;fill-opacity:0.4274"
         inkscape:connector-curvature="0" />
      <path
         id="path7513"
         d="M 2,17 2,46 30,60 50,40 50,13 23,6 2,17 Z"
         style="fill:none;stroke:#000000;stroke-width:4"
         inkscape:connector-curvature="0" />
      <linearGradient
         y2="15.12"
         x2="89"
         y1="-22.67"
         x1="62.32"
         gradientUnits="userSpaceOnUse"
         id="gradient0-3">
        <stop
           id="stop7516"
           stop-color="#0eb3b5"
           offset="0" />
        <stop
           id="stop7518"
           stop-color="#003bff"
           offset="1" />
      </linearGradient>
      <path
         id="path7520"
         d="M 2,17 2,46 30,60 30,26 2,17 Z"
         style="fill:url(#gradient0-3)"
         inkscape:connector-curvature="0" />
      <linearGradient
         y2="-36.27"
         x2="33.200001"
         y1="-18.780001"
         x1="-12.07"
         gradientUnits="userSpaceOnUse"
         id="gradient1-6">
        <stop
           id="stop7523"
           stop-color="#00fbff"
           offset="0" />
        <stop
           id="stop7525"
           stop-color="#0000ff"
           offset="1" />
      </linearGradient>
      <path
         id="path7527"
         d="M 2,17 30,26 50,13 23,6 2,17 Z"
         style="fill:url(#gradient1-6)"
         inkscape:connector-curvature="0" />
      <linearGradient
         y2="-20.83"
         x2="94.370003"
         y1="-39.09"
         x1="59.27"
         gradientUnits="userSpaceOnUse"
         id="gradient2-7">
        <stop
           id="stop7530"
           stop-color="#00aaff"
           offset="0" />
        <stop
           id="stop7532"
           stop-color="#0537c7"
           offset="1" />
      </linearGradient>
      <path
         id="path7534"
         d="M 30,60 50,40 50,13 30,26 30,60 Z"
         style="fill:url(#gradient2-7)"
         inkscape:connector-curvature="0" />
      <path
         id="path7536"
         transform="matrix(0.8181,0,0,0.8181,-12.1818,11.8181)"
         d="m 21,26 4,1 3,9 6,-12 2,9 5,-7 2,10 4,2 M 21,14 48,23 48,51 21,39 21,14 Z"
         style="fill:none;stroke:#ffffff;stroke-width:2"
         inkscape:connector-curvature="0" />
    </g>
  </g>
</svg>
