<?xml version="1.0" encoding="UTF-8" standalone="no"?>
<svg
   xmlns:dc="http://purl.org/dc/elements/1.1/"
   xmlns:cc="http://creativecommons.org/ns#"
   xmlns:rdf="http://www.w3.org/1999/02/22-rdf-syntax-ns#"
   xmlns:svg="http://www.w3.org/2000/svg"
   xmlns="http://www.w3.org/2000/svg"
   xmlns:sodipodi="http://sodipodi.sourceforge.net/DTD/sodipodi-0.dtd"
   xmlns:inkscape="http://www.inkscape.org/namespaces/inkscape"
   version="1.1"
   width="64"
   height="64"
   color-interpolation="linearRGB"
   id="svg2"
   inkscape:version="0.91 r13725"
   sodipodi:docname="web-browser2.svg">
  <metadata
     id="metadata128">
    <rdf:RDF>
      <cc:Work
         rdf:about="">
        <dc:format>image/svg+xml</dc:format>
        <dc:type
           rdf:resource="http://purl.org/dc/dcmitype/StillImage" />
        <dc:title></dc:title>
      </cc:Work>
    </rdf:RDF>
  </metadata>
  <defs
     id="defs126">
    <linearGradient
       gradientTransform="matrix(1 0 0 -1 233.1519 413.8262)"
       y2="380.8235"
       x2="-203.8642"
       y1="376.2266"
       x1="-195.5322"
       gradientUnits="userSpaceOnUse"
       id="XMLID_7_">
      <stop
         id="stop248"
         style="stop-color:#FFFFFF"
         offset="0" />
      <stop
         id="stop249"
         style="stop-color:#000000"
         offset="1" />
    </linearGradient>
    <radialGradient
       gradientTransform="matrix(0.6248,0,0,0.6248,17.798,26.7906)"
       r="64"
       cy="0"
       cx="0"
       gradientUnits="userSpaceOnUse"
       id="gradient0">
      <stop
         id="stop9"
         stop-color="#33ffff"
         offset="0" />
      <stop
         id="stop11"
         stop-color="#33ffff"
         offset="0.3294" />
      <stop
         id="stop13"
         stop-color="#0066ff"
         offset="0.847" />
      <stop
         id="stop15"
         stop-color="#0034cc"
         offset="1" />
    </radialGradient>
    <radialGradient
       gradientTransform="matrix(0.7356,0,0,-0.7356,22.6602,15.965)"
       r="64"
       cy="0"
       cx="0"
       gradientUnits="userSpaceOnUse"
       id="gradient1">
      <stop
         id="stop22"
         stop-color="#ffffff"
         offset="0" />
      <stop
         id="stop24"
         stop-color="#00ff00"
         offset="0.2" />
      <stop
         id="stop26"
         stop-color="#00e400"
         offset="0.4" />
      <stop
         id="stop28"
         stop-color="#00b200"
         offset="0.6" />
      <stop
         id="stop30"
         stop-color="#009900"
         offset="0.8" />
      <stop
         id="stop32"
         stop-color="#008000"
         offset="1" />
    </radialGradient>
    <radialGradient
       gradientTransform="matrix(0.0701,0,0,-0.0701,20.8376,9.9224)"
       r="64"
       cy="0"
       cx="0"
       gradientUnits="userSpaceOnUse"
       id="gradient2">
      <stop
         id="stop89"
         stop-color="#ffcb98"
         offset="0" />
      <stop
         id="stop91"
         stop-color="#ffcb98"
         offset="1" />
    </radialGradient>
    <radialGradient
       gradientTransform="matrix(0.121,0,0,0.121,31.255,5.9534)"
       r="64"
       cy="0"
       cx="0"
       gradientUnits="userSpaceOnUse"
       id="gradient3">
      <stop
         id="stop116"
         stop-color="#ffcb98"
         offset="0" />
      <stop
         id="stop118"
         stop-color="#ffcb98"
         offset="0.498" />
      <stop
         id="stop120"
         stop-color="#cb9866"
         offset="1" />
    </radialGradient>
  </defs>
  <sodipodi:namedview
     pagecolor="#ffffff"
     bordercolor="#666666"
     borderopacity="1"
     objecttolerance="10"
     gridtolerance="10"
     guidetolerance="10"
     inkscape:pageopacity="0"
     inkscape:pageshadow="2"
     inkscape:window-width="1364"
     inkscape:window-height="708"
     id="namedview124"
     showgrid="false"
     inkscape:zoom="6.026473"
     inkscape:cx="61.5739"
     inkscape:cy="30.036348"
     inkscape:window-x="2"
     inkscape:window-y="30"
     inkscape:window-maximized="1"
     inkscape:current-layer="svg2" />
  <g
     style="overflow:visible"
     id="g6836"
     transform="matrix(1.3937571,0,0,1.3937571,0.185676,0)">
    <g
       style="font-size:12px;opacity:0.2;stroke:#000000"
       id="g157">
      <path
         id="path158"
         d="m 12.143,40.313 c 6.865,-2.226 22.623,-3.224 35.194,-2.229 0.853,0.068 1.689,0.421 2.445,0.225 1.19,-0.31 1.19,7.291 0.029,7.208 -2.327,0.309 -4.896,0.552 -7.595,0.722 -0.044,0.367 -7.173,5.144 -7.173,5.144 0,0 -9.716,-5.011 -12.563,-5.236 C 9.907,45.151 5.279,42.54 12.143,40.313 Z"
         inkscape:connector-curvature="0"
         style="stroke:none" />
    </g>
    <g
       style="font-size:12px;stroke:#000000"
       id="g159">
      <path
         id="path160"
         d="M 0,22.836 C 0,10.225 10.225,0 22.837,0 35.449,0 45.672,10.225 45.672,22.836 45.672,35.447 35.449,45.673 22.837,45.673 10.225,45.673 0,35.448 0,22.836 Z"
         inkscape:connector-curvature="0"
         style="stroke:none" />
    </g>
    <g
       style="font-size:12px;stroke:#000000"
       id="g161">
      <path
         id="path162"
         d="m 1.794,22.836 c 0,-11.621 9.421,-21.042 21.042,-21.042 11.622,0 21.042,9.421 21.042,21.042 0,11.622 -9.42,21.042 -21.042,21.042 C 11.215,43.879 1.794,34.458 1.794,22.836 Z"
         inkscape:connector-curvature="0"
         style="fill:#59f0f0;stroke:none" />
    </g>
    <g
       style="font-size:12px;stroke:#000000"
       id="g163">
      <g
         id="g164">
        <g
           id="g165">
          <path
             id="path166"
             d="m 29.464,42.591 c 0.258,-1.094 0.837,-3.409 -0.193,-3.603 -1.03,-0.192 -2.96,-0.322 -3.539,-0.965 -0.58,-0.644 -1.159,-0.644 -1.544,-0.901 -0.386,-0.258 -0.965,-1.094 -0.386,-1.866 0.579,-0.772 0.45,-1.544 -0.322,-1.994 -0.772,-0.452 -1.223,0.128 -1.866,0.192 -0.644,0.064 -2.188,-0.965 -3.347,-0.965 -1.159,0 -2.252,0 -2.445,-0.644 -0.708,0.45 -4.955,-0.322 -4.762,-1.609 -0.451,-0.45 -2.124,-2.316 -2.574,-2.959 0.064,0.514 0.45,1.608 0.836,1.93 C 8.228,28.435 7.327,27.084 7.263,26.053 6.748,25.602 5.461,23.223 5.655,22.514 5.848,21.806 6.041,19.296 6.427,19.232 6.813,19.168 6.492,18.847 6.3,18.46 6.107,18.074 5.978,17.43 5.978,17.108 c 0,-0.321 0.322,-1.158 0,-1.222 -0.322,-0.064 -1.03,-0.515 -0.579,-0.515 0.45,0 0.837,0.258 0.837,-0.193 0,-0.45 -0.258,-1.673 -0.451,-1.866 C 5.593,13.119 5.657,13.183 5.271,13.44 4.885,13.697 4.499,13.762 4.434,13.569 4.369,13.376 4.498,13.44 4.82,12.99 5.142,12.539 5.914,11.252 6.172,10.802 6.429,10.352 6.365,10.931 7.201,9.966 8.037,9.001 8.488,8.1 8.488,9.001 c 0,0.901 0.193,1.288 0.708,1.288 0.515,0 0.579,-0.193 0.644,0.192 0.064,0.387 0.128,0.837 0.644,0.644 0.515,-0.192 0.965,0.064 1.223,-0.192 0.257,-0.259 -0.193,-0.516 0.128,-0.58 0.323,-0.064 0.451,0.515 0.58,0.064 0.128,-0.45 -0.064,-1.159 0.386,-0.708 0.45,0.451 0.579,0.515 0.9,0.322 0.322,-0.194 1.352,-0.257 0.451,0.322 -0.901,0.58 -0.966,0.515 -1.094,1.094 -0.128,0.579 -0.193,0.386 -0.515,1.03 -0.321,0.643 -0.965,1.287 -0.128,1.737 0.836,0.451 1.93,0.579 1.93,0.579 0,0 0.901,-0.708 0.772,0.063 -0.128,0.773 -0.193,1.224 0.257,1.095 0.451,-0.129 1.224,-0.064 0.708,-0.644 -0.515,-0.579 -0.451,-0.193 -0.257,-1.03 0.192,-0.836 0.064,-0.771 -0.194,-1.158 -0.257,-0.386 -0.9,-1.609 -0.257,-1.673 0.644,-0.064 1.159,-0.257 1.352,0.064 0.193,0.322 0.836,0.901 1.094,0.58 0.258,-0.321 -0.064,-1.223 0.9,-0.58 0.966,0.644 -0.064,0.966 0.966,0.966 1.029,0 1.995,-0.065 1.995,0.192 0,0.258 -0.708,1.48 -1.223,1.673 -0.515,0.193 -0.708,-0.257 -0.901,0.322 -0.193,0.579 -0.837,1.802 -0.45,1.351 0.385,-0.45 1.029,-1.416 1.093,-0.837 0.064,0.58 0,1.03 0.644,0.966 0.643,-0.064 1.608,-0.643 0.772,0.193 -0.837,0.836 -0.901,1.416 -0.837,0.836 0.064,-0.579 0.064,-0.901 -0.451,-0.128 -0.514,0.772 -0.643,1.351 -0.386,1.351 0.257,0 0.257,0.193 -0.064,0.386 -0.322,0.193 -0.515,1.094 -0.708,1.608 -0.193,0.515 -0.579,1.094 -0.193,1.159 0.386,0.064 0.257,1.029 0.257,1.029 0,0 -1.738,1.931 -1.094,2.51 0.644,0.579 1.416,1.479 1.094,1.673 -0.322,0.192 -1.094,-1.03 -1.287,-1.223 -0.192,-0.192 -2.123,-0.451 -2.252,-0.128 -0.128,0.321 0.322,0.579 0,0.643 -0.321,0.064 -1.48,0.323 -1.93,0.579 -0.45,0.257 -0.579,1.094 -0.515,1.416 0.064,0.322 0.386,3.088 1.866,2.766 1.48,-0.32 1.608,-0.449 1.351,-1.093 l 1.159,-0.45 c 0,0 -0.257,1.866 0.322,1.93 0.58,0.064 1.416,-0.129 1.608,-0.129 0.194,0 0.644,1.673 1.03,1.802 0.386,0.129 1.48,0 2.124,-0.45 0.643,-0.449 0.965,0.579 1.029,0.064 0.064,-0.514 0.771,-1.608 1.415,-1.866 0,0.45 0,0.901 0.387,0.772 0.386,-0.128 0.128,-0.965 0.128,-0.965 0,0 2.574,0.128 2.574,-0.644 0,0 1.416,-0.387 1.738,0.064 0.192,-0.45 0.514,-0.064 1.029,0.064 0.515,0.128 0.837,-0.322 1.545,-0.644 0.707,-0.321 2.252,-0.064 2.445,0.45 0.192,0.516 0.578,1.029 0.836,0.129 l 1.48,-0.386 c 0,0 0.837,-0.837 1.415,-0.901 0.579,-0.064 1.159,-0.45 1.224,-0.064 0.063,0.385 -0.193,1.93 -0.579,2.251 -0.387,0.321 -0.193,0.58 -0.064,0.901 0.129,0.322 -0.193,2.059 -0.451,2.381 -0.258,0.322 0,0.386 -0.515,0.836 -0.515,0.451 -0.772,1.094 -0.966,1.48 -0.191,0.386 -0.514,1.479 -1.028,1.931 -0.515,0.45 -0.837,0.965 -0.837,0.965 -0.71,0.584 -2.576,2.835 -6.051,3.35 z"
             inkscape:connector-curvature="0"
             style="fill:#2f9e32;stroke:none" />
        </g>
        <g
           id="g167">
          <path
             id="path168"
             d="m 19.04,28.114 c 0.386,-0.193 0.45,-0.258 0.836,-0.258 0.386,0 1.608,0.064 1.995,0.064 0.387,0 0.515,0.385 0.128,0.45 -0.385,0.064 -1.029,-0.193 -1.479,-0.193 -0.451,0 -1.223,0.258 -1.48,-0.063 z"
             inkscape:connector-curvature="0"
             style="fill:#2f9e32;stroke:none" />
        </g>
        <g
           id="g169">
          <path
             id="path170"
             d="m 23.416,27.92 c 0.193,-0.322 1.029,-0.514 1.416,-0.322 0.386,0.193 -0.837,0.901 -1.159,0.837 -0.322,-0.064 -0.257,-0.515 -0.257,-0.515 z"
             inkscape:connector-curvature="0"
             style="fill:#2f9e32;stroke:none" />
        </g>
        <g
           id="g171">
          <path
             id="path172"
             d="m 22,13.635 c 0,0 0.193,0.579 0.064,0.836 -0.128,0.258 0.579,-0.128 1.094,-0.128 0.514,0 0.192,-0.193 0.064,-0.579 C 23.093,13.377 22.386,13.635 22,13.635 Z"
             inkscape:connector-curvature="0"
             style="fill:#2f9e32;stroke:none" />
        </g>
        <g
           id="g173">
          <path
             id="path174"
             d="m 15.243,6.749 c 0.386,-0.128 0.45,-0.45 1.287,0 0.836,0.451 0.9,0.001 1.608,0.708 0.708,0.708 1.93,1.93 3.475,1.351 C 21.29,8.036 20.776,7.843 20.841,7.135 20.905,6.427 21.034,5.397 21.034,5.397 L 20.39,5.655 20.326,5.14 c 0,0 -2.252,-0.45 -2.703,-0.386 -0.45,0.063 -0.45,-0.258 -0.772,-0.258 -0.322,0 -0.386,0.515 -0.644,0.515 -0.258,0 -1.093,-0.386 -0.965,0.129 0.128,0.514 0.322,0.643 0.064,0.965 -0.256,0.322 -0.063,0.644 -0.063,0.644 z"
             inkscape:connector-curvature="0"
             style="fill:#2f9e32;stroke:none" />
        </g>
        <g
           id="g175">
          <path
             id="path176"
             d="m 13.828,8.679 c 0.257,-0.386 0.515,-0.643 0.579,-0.386 0.064,0.258 0.128,0.515 0.837,0.322 0.708,-0.193 0.9,-0.064 1.158,0.128 0.258,0.193 0.901,0.257 0.901,0.579 0,0.321 -0.257,0.515 -0.515,0.257 -0.258,-0.258 -0.644,-0.643 -0.644,-0.322 0,0.322 0.193,0.966 0.837,0.901 0.644,-0.064 0.836,0.322 0.322,0.322 -0.514,0 -0.386,0.192 -0.708,0.258 -0.322,0.063 -0.644,-0.387 -0.966,-0.258 0,0 0.129,-0.901 -0.257,-0.965 -0.386,-0.064 -0.515,0.128 -0.515,0.128 0,0 0.064,-0.321 -0.258,-0.45 -0.322,-0.129 -0.45,0.192 -0.837,0.192 -0.385,0.002 -0.707,-1.092 0.066,-0.706 z"
             inkscape:connector-curvature="0"
             style="fill:#2f9e32;stroke:none" />
        </g>
        <g
           id="g177">
          <path
             id="path178"
             d="m 10.031,6.042 c 0,0 0.064,0.386 0.258,0.322 0.193,-0.064 0.965,-0.643 1.479,-1.029 0.515,-0.387 0.966,-0.773 0.901,-0.966 -0.064,-0.194 -2.06,1.093 -2.638,1.673 z"
             inkscape:connector-curvature="0"
             style="fill:#2f9e32;stroke:none" />
        </g>
        <g
           id="g179">
          <path
             id="path180"
             d="M 9.258,6.685 C 9.569,6.581 9.066,7.2 8.679,7.65 8.293,8.101 8.036,8.101 7.65,8.551 7.264,9.001 6.62,9.516 6.363,9.774 c -0.257,0.257 -0.772,0.642 -0.772,0.642 0,0 3.088,-3.538 3.667,-3.731 z"
             inkscape:connector-curvature="0"
             style="fill:#2f9e32;stroke:none" />
        </g>
        <g
           id="g181">
          <path
             id="path182"
             d="m 21.742,2.051 c -0.064,0.387 -0.386,0.58 0.128,0.58 0.515,0 2.574,0.064 3.089,0.579 0.515,0.514 2.316,0.257 2.767,-0.129 C 28.177,2.695 27.533,2.567 26.89,2.631 26.246,2.695 25.667,2.695 25.281,2.503 24.895,2.31 24.444,2.181 24.444,1.924 23.608,1.859 22.128,1.859 21.742,2.051 Z"
             inkscape:connector-curvature="0"
             style="fill:#2f9e32;stroke:none" />
        </g>
        <g
           id="g183">
          <path
             id="path184"
             d="m 28.306,2.438 c 0,0 1.029,0.772 0.772,0.836 -0.257,0.064 -0.9,0.064 -0.9,0.064 0,0 0.644,0.063 0.965,0.321 0.322,0.258 0.193,0.708 0.901,0.901 0.708,0.193 0.9,1.094 1.223,1.352 0.322,0.257 0.065,-0.322 0.579,-0.192 0.515,0.128 1.866,0.965 1.48,1.093 -0.387,0.129 -0.515,0.644 0.192,1.03 0.709,0.386 1.48,0.708 1.673,1.158 C 35.513,8.486 35.642,7.649 35.063,7.328 34.484,7.007 33.711,6.684 33.583,6.169 33.455,5.655 33.391,5.205 33.455,4.818 32.167,3.725 28.756,2.502 28.306,2.438 Z"
             inkscape:connector-curvature="0"
             style="fill:#2f9e32;stroke:none" />
        </g>
        <g
           id="g185">
          <path
             id="path186"
             d="m 35.899,6.363 c 0.129,0.515 0.516,2.316 0.129,2.574 -0.386,0.257 0,0.386 0.258,0.643 0.257,0.257 0.321,0.128 0.707,0.708 0.387,0.58 0.708,1.03 0.708,1.802 0,0.773 0.515,1.48 0.773,1.93 0.257,0.451 1.866,1.673 1.866,2.317 0,0.643 -0.064,1.287 0.644,1.415 0.707,0.129 1.028,0.193 1.222,0.515 0.193,0.322 0.772,0.322 1.094,0.387 C 42.914,15.887 41.241,10.61 35.899,6.363 Z"
             inkscape:connector-curvature="0"
             style="fill:#2f9e32;stroke:none" />
        </g>
        <g
           id="g187">
          <path
             id="path188"
             d="m 22.965,5.334 0,0.257 0.836,0.129 0,-0.644 -1.094,-0.192 0.258,0.45 z"
             inkscape:connector-curvature="0"
             style="fill:#2f9e32;stroke:none" />
        </g>
        <g
           id="g189">
          <path
             id="path190"
             d="m 27.277,4.497 c -0.322,0 -0.065,0.322 0.321,0.387 0.387,0.064 0.708,0 1.223,0.064 0.515,0.064 0.902,0.128 1.03,0.387 0.129,0.257 0.451,0.257 0.451,0 0,-0.258 0.064,-0.579 -0.515,-0.644 C 29.208,4.627 28.564,4.562 28.243,4.498 27.922,4.434 27.277,4.497 27.277,4.497 Z"
             inkscape:connector-curvature="0"
             style="fill:#2f9e32;stroke:none" />
        </g>
        <g
           id="g191">
          <path
             id="path192"
             d="m 28.5,5.527 0.772,0 0,0.642 L 28.5,5.527 Z"
             inkscape:connector-curvature="0"
             style="fill:#2f9e32;stroke:none" />
        </g>
        <g
           id="g193">
          <path
             id="path194"
             d="m 11.575,9.837 c 0,0 -0.193,0.516 -0.451,0.516 -0.258,0 -0.708,-0.579 -0.257,-0.772 0.451,-0.194 0.708,0.256 0.708,0.256 z"
             inkscape:connector-curvature="0"
             style="fill:#2f9e32;stroke:none" />
        </g>
        <g
           id="g195">
          <path
             id="path196"
             d="M 10.609,9.13 C 10.288,9.387 10.095,9.644 9.901,9.58 9.709,9.516 10.159,9.001 10.417,8.872 10.674,8.744 10.609,9.13 10.609,9.13 Z"
             inkscape:connector-curvature="0"
             style="fill:#2f9e32;stroke:none" />
        </g>
        <g
           id="g197">
          <path
             id="path198"
             d="m 11.061,8.358 0.386,-0.129 0.515,0.579 0.451,0 -0.129,0.708 -0.258,0 -0.965,-1.158 z"
             inkscape:connector-curvature="0"
             style="fill:#2f9e32;stroke:none" />
        </g>
        <g
           id="g199">
          <path
             id="path200"
             d="M 13.184,7.071 C 13.506,7.008 13.892,7.008 14.085,6.17 14.277,5.335 14.6,5.656 14.471,6.235 14.343,6.814 13.828,6.879 14.085,7.2 14.342,7.522 14.213,7.392 13.828,7.328 13.441,7.264 13.184,7.392 13.184,7.071 Z"
             inkscape:connector-curvature="0"
             style="fill:#2f9e32;stroke:none" />
        </g>
      </g>
    </g>
  </g>
  <g
     id="g7804">
    <path
       style="fill:#000000"
       d="m 20.94,41.88 c -4.38,2.2 -18.6,9.89 -18.14,16.13 0.11,1.45 0.96,2.63 2.38,3.35 l 0.99,0.38 c 6.41,2.01 21.16,-2.7 32.41,-8.38 4.38,-2.21 18.6,-9.89 18.13,-16.14 -0.11,-1.44 -0.95,-2.63 -2.38,-3.34 L 53.35,33.5 c -6.41,-2.01 -21.16,2.69 -32.41,8.38 z"
       id="path36"
       inkscape:connector-curvature="0" />
    <path
       style="fill:#000000;fill-opacity:0.32940004"
       d="m 22.92,42.87 c -4.38,2.2 -18.6,9.9 -18.13,16.13 0.11,1.45 0.95,2.63 2.38,3.35 l 0.99,0.39 c 6.4,2 21.15,-2.71 32.4,-8.39 4.38,-2.21 18.6,-9.89 18.14,-16.13 -0.11,-1.44 -0.95,-2.63 -2.38,-3.34 l -0.99,-0.39 c -6.4,-2.01 -21.16,2.69 -32.41,8.38 z"
       id="path38"
       inkscape:connector-curvature="0" />
    <path
       style="fill:#ffcb00"
       d="M 54.74,37.37 C 54.68,36.65 54.26,36.06 53.45,35.65 53.24,35.55 53,35.47 52.75,35.39 47.72,33.81 34.29,37.35 21.83,43.65 11.2,49.01 4.54,54.74 4.78,57.87 c 0.06,0.71 0.47,1.3 1.29,1.71 0.21,0.1 0.44,0.19 0.7,0.27 5.03,1.58 18.45,-1.96 30.92,-8.26 C 48.32,46.22 54.97,40.5 54.74,37.37 Z"
       id="path40"
       inkscape:connector-curvature="0" />
    <path
       style="fill:#ffff00"
       d="M 21.83,43.65 C 11.2,49.01 4.54,54.74 4.78,57.87 c 0.06,0.71 0.47,1.3 1.29,1.71 0.21,0.1 0.44,0.19 0.7,0.27 -0.04,-0.48 0.09,-1.03 0.37,-1.62 1.54,-3.26 7.69,-8.06 16.67,-12.6 10.85,-5.48 22.43,-8.87 28.57,-8.62 0.28,-0.59 0.41,-1.14 0.37,-1.62 -5.03,-1.58 -18.46,1.96 -30.92,8.26 z"
       id="path42"
       inkscape:connector-curvature="0" />
    <path
       style="fill:#ff9800"
       d="m 54.74,37.37 c -0.06,-0.72 -0.48,-1.31 -1.29,-1.72 -0.21,-0.1 -0.45,-0.18 -0.7,-0.26 0.04,0.48 -0.09,1.03 -0.37,1.62 C 50.84,40.27 44.69,45.06 35.7,49.6 24.86,55.08 13.28,58.48 7.14,58.23 6.86,58.82 6.73,59.37 6.77,59.85 11.8,61.43 25.23,57.89 37.69,51.59 48.32,46.22 54.97,40.5 54.74,37.37 Z"
       id="path44"
       inkscape:connector-curvature="0" />
    <path
       style="fill:#cb6600"
       d="m 27.77,49.44 -5.56,5.56 0.77,0 5.68,0.61 c 2.98,-1.15 6.03,-2.51 9.03,-4.02 1.02,-0.52 2,-1.04 2.94,-1.56 l -4.59,-0.59 -8.27,0 z"
       id="path46"
       inkscape:connector-curvature="0" />
    <path
       style="fill:#cb6600"
       d="m 48.44,41.66 -5.89,5.89 1.69,0.39 c 3.16,-1.96 5.72,-3.88 7.51,-5.61 l -3.31,-0.67 z"
       id="path48"
       inkscape:connector-curvature="0" />
    <path
       style="fill:#000000"
       d="m 16.45,2.55 -2.57,2.57 0,5.02 c 0,0 12.04,6.02 13.89,6.95 0,1.42 0,3.88 0,4.9 -1.03,1.03 -9.92,9.93 -9.92,9.93 0,0 0,12.43 0,13.88 -0.58,0.59 -1.98,1.99 -1.98,1.99 l 0,4.03 6.34,3.18 5.56,-5.56 c 0,0 0,-11.46 0,-12.91 0.54,-0.53 2.03,-2.03 3.97,-3.97 0,1.51 0,4.1 0,4.1 0,0 2.51,2.01 3.98,3.19 -0.14,0.14 -1.82,1.81 -1.82,1.81 l 3.11,3.12 5.54,2.77 5.89,-5.89 c 0,0 -5.83,-5.82 -6.78,-6.77 0,-1.13 0,-7.18 0,-10.86 3.32,1.66 10.32,5.16 10.32,5.16 l 3.57,-3.57 0,-5.03 c 0,0 -10.55,-5.27 -10.85,-5.43 -0.26,-0.19 -3.97,-2.97 -3.97,-2.97 L 32.44,8.04 c 0,0 -3.59,-0.9 -3.97,-1 C 28.09,6.86 17.46,1.54 17.46,1.54 l -1.01,1.01 z"
       id="path50"
       inkscape:connector-curvature="0" />
    <path
       style="fill:#800000"
       d="m 43.65,16.86 -3.97,-2.98 -7.94,-3.96 -3.97,-1 -9.92,-4.96 -1.98,1.99 0,2.97 13.89,6.95 0,6.94 -9.92,9.92 0,13.89 -1.99,1.99 0,1.98 3.97,1.99 3.97,-3.97 0,-12.9 7.94,-7.94 0,7.94 4.96,3.97 -1.99,1.98 1.49,1.49 3.97,1.99 3.47,-3.48 -5.95,-5.95 0,-14.88 11.9,5.95 1.99,-1.98 0,-2.98 -9.92,-4.96 z"
       id="path52"
       inkscape:connector-curvature="0" />
    <path
       style="fill:#cb9866"
       d="m 25.79,48.61 0,-12.9 2.48,-2.48 0,-2.98 -2.48,2.48 -1.98,1.99 0,13.89 -1.99,1.98 0,1.99 3.97,-3.97 z"
       id="path54"
       inkscape:connector-curvature="0" />
    <path
       style="fill:#ffcb98"
       d="m 17.85,48.61 3.97,1.98 0,1.99 -3.97,-1.99 0,-1.98 z"
       id="path56"
       inkscape:connector-curvature="0" />
    <path
       style="fill:#ffe5cb"
       d="m 17.85,48.61 1.99,-1.99 3.97,1.99 -1.99,1.98 -3.97,-1.98 z"
       id="path58"
       inkscape:connector-curvature="0" />
    <path
       style="fill:#ffcb98"
       d="m 19.84,32.73 3.97,1.99 0,13.89 -3.97,-1.99 0,-13.89 z"
       id="path60"
       inkscape:connector-curvature="0" />
    <path
       style="fill:#ffe5cb"
       d="m 19.84,32.73 4.46,-4.46 3.97,1.98 -4.46,4.47 -3.97,-1.99 z"
       id="path62"
       inkscape:connector-curvature="0" />
    <path
       style="fill:#cb9866"
       d="m 37.69,37.69 4.97,3.97 -3.97,-1.98 -4.96,-3.97 3.96,1.98 z"
       id="path64"
       inkscape:connector-curvature="0" />
    <path
       style="fill:#ffcb98"
       d="m 36.7,41.66 1.99,-1.98 3.97,1.98 -1.99,1.99 -3.97,-1.99 z"
       id="path66"
       inkscape:connector-curvature="0" />
    <path
       style="fill:#cb9866"
       d="m 38.19,43.15 -1.49,-1.49 3.97,1.99 1.49,1.49 -3.97,-1.99 z"
       id="path68"
       inkscape:connector-curvature="0" />
    <path
       style="fill:#ffcb98"
       d="m 33.73,31.74 3.96,1.99 0,3.96 -3.96,-1.98 0,-3.97 z"
       id="path70"
       inkscape:connector-curvature="0" />
    <path
       style="fill:#cb9866"
       d="m 39.68,35.71 0,-3.97 -1.99,1.99 0,3.96 4.97,3.97 -1.99,1.99 1.49,1.49 1.98,-1.99 1.49,-1.49 -5.95,-5.95 z"
       id="path72"
       inkscape:connector-curvature="0" />
    <path
       style="fill:#980000"
       d="m 37.69,26.78 1.99,-1.98 0,6.13 -1.99,1.99 0,-6.14 z"
       id="path74"
       inkscape:connector-curvature="0" />
    <path
       style="fill:#e03333"
       d="m 33.73,24.8 3.96,1.98 0,6.14 -3.96,-1.99 0,-6.13 z"
       id="path76"
       inkscape:connector-curvature="0" />
    <path
       style="fill:#980000"
       d="m 28.86,29.66 4.87,-4.86 0,2.97 -4.87,4.87 0,-2.98 z"
       id="path78"
       inkscape:connector-curvature="0" />
    <path
       style="fill:#d80000"
       d="m 24.89,27.68 4.87,-4.87 3.97,1.99 -4.87,4.86 -3.97,-1.98 z"
       id="path80"
       inkscape:connector-curvature="0" />
    <path
       style="fill:#980000"
       d="m 37.69,15.87 1.99,-1.99 0,10.92 -1.99,1.98 0,-10.91 z"
       id="path82"
       inkscape:connector-curvature="0" />
    <path
       style="fill:#e00000"
       d="m 29.76,11.9 7.94,3.97 0,10.91 -7.94,-3.97 0,-10.91 z"
       id="path84"
       inkscape:connector-curvature="0" />
    <path
       style="fill:#ff3333"
       d="m 37.69,15.87 1.99,-1.99 -7.94,-3.96 -1.98,1.98 7.93,3.97 z"
       id="path86"
       inkscape:connector-curvature="0" />
    <path
       style="fill:url(#gradient2)"
       d="m 25.79,10.91 0,2.97 -9.92,-4.96 0,-2.97 9.92,4.96 z"
       id="path93"
       inkscape:connector-curvature="0" />
    <path
       style="fill:#ffe5cb"
       d="m 25.79,10.91 1.98,-1.99 -9.92,-4.96 -1.98,1.99 9.92,4.96 z"
       id="path95"
       inkscape:connector-curvature="0" />
    <path
       style="fill:#e00000"
       d="m 29.76,11.9 0,3.97 -3.29,-1.65 0,-3.15 3.29,0.83 z"
       id="path97"
       inkscape:connector-curvature="0" />
    <path
       style="fill:#ff3333"
       d="m 29.76,11.9 1.98,-1.98 -3.28,-0.83 -1.99,1.98 3.29,0.83 z"
       id="path99"
       inkscape:connector-curvature="0" />
    <path
       style="fill:#cb9866"
       d="m 51.58,23.81 1.99,-1.99 0,2.98 -1.99,1.98 0,-2.97 z"
       id="path101"
       inkscape:connector-curvature="0" />
    <path
       style="fill:#ffcb98"
       d="m 51.58,23.81 0,2.97 -9.92,-4.96 0,-2.98 9.92,4.97 z"
       id="path103"
       inkscape:connector-curvature="0" />
    <path
       style="fill:#ffe5cb"
       d="m 51.58,23.81 1.99,-1.99 -9.92,-4.96 -1.99,1.98 9.92,4.97 z"
       id="path105"
       inkscape:connector-curvature="0" />
    <path
       style="fill:#e00000"
       d="m 37.69,15.87 0,3.97 3.51,1.74 0,-3.08 -3.51,-2.63 z"
       id="path107"
       inkscape:connector-curvature="0" />
    <path
       style="fill:#ff3333"
       d="m 37.69,15.87 1.99,-1.99 3.5,2.63 -1.98,1.99 -3.51,-2.63 z"
       id="path109"
       inkscape:connector-curvature="0" />
    <path
       style="fill:#980000"
       d="m 39.68,13.88 -1.67,-0.83 c -0.98,0.53 -2.09,0.83 -3.29,0.83 -0.42,0 -0.82,-0.04 -1.22,-0.11 -1.34,-0.24 -2.54,-0.86 -3.5,-1.75 0.05,0.06 0.1,0.12 0.16,0.18 1.3,1.3 3.16,2.14 5.14,2.46 1.85,0.32 3.82,0.17 5.54,-0.49 l -1.16,-0.29 z"
       id="path111"
       inkscape:connector-curvature="0" />
    <path
       style="fill:#000000"
       d="m 34.72,0 c 3.83,0 6.94,3.1 6.94,6.94 0,3.83 -3.11,6.94 -6.94,6.94 -3.83,0 -6.95,-3.11 -6.95,-6.94 C 27.77,3.1 30.89,0 34.72,0 Z"
       id="path113"
       inkscape:connector-curvature="0" />
    <path
       style="fill:url(#gradient3)"
       d="m 37.69,5.95 c 0,0 -0.49,2.48 -0.99,2.48 0,0 -0.67,-1.8 -1.02,-1.77 -2.02,0.17 -4.14,-0.46 -5.5,-1.72 -0.27,0.6 -0.42,1.28 -0.42,2 0,2.73 2.22,4.96 4.96,4.96 1.63,0 3.07,-0.79 3.97,-2 0.32,-1.62 -0.5,-3.36 -1,-3.95 z"
       id="path122"
       inkscape:connector-curvature="0" />
  </g>
</svg>
