<?xml version="1.0" encoding="UTF-8" standalone="no"?>
<!DOCTYPE svg PUBLIC "-//W3C//DTD SVG 20010904//EN"
"http://www.w3.org/TR/2001/REC-SVG-20010904/DTD/svg10.dtd">
<!-- Created with Sodipodi ("http://www.sodipodi.com/") -->
<svg
   width="48pt"
   height="48pt"
   viewBox="0 0 50.678 51.383"
   overflow="visible"
   enable-background="new 0 0 50.678 51.383"
   xml:space="preserve"
   id="svg153"
   sodipodi:version="0.32pre"
   sodipodi:docname="/home/cschalle/gnome-themes-extras/Wasp/icons/scalable/stock/stock_internet.svg"
   sodipodi:docbase="/home/cschalle/gnome-themes-extras/Wasp/icons/scalable/stock"
   xmlns="http://www.w3.org/2000/svg"
   xmlns:sodipodi="http://sodipodi.sourceforge.net/DTD/sodipodi-0.dtd"
   xmlns:xml="http://www.w3.org/XML/1998/namespace"
   xmlns:xlink="http://www.w3.org/1999/xlink">
  <defs
     id="defs340">
    <linearGradient
       id="XMLID_7_"
       gradientUnits="userSpaceOnUse"
       x1="-195.5322"
       y1="376.2266"
       x2="-203.8642"
       y2="380.8235"
       gradientTransform="matrix(1 0 0 -1 233.1519 413.8262)">
      <stop
         offset="0"
         style="stop-color:#FFFFFF"
         id="stop248" />
      <stop
         offset="1"
         style="stop-color:#000000"
         id="stop249" />
    </linearGradient>
  </defs>
  <sodipodi:namedview
     id="base" />
  <metadata
     id="metadata154">
    <sfw>
      <slices />
      <sliceSourceBounds
         y="397.395"
         x="266.725"
         width="50.678"
         height="51.383"
         bottomLeftOrigin="true" />
    </sfw>
  </metadata>
  <g
     opacity="0.2"
     id="g157"
     style="font-size:12;opacity:0.2;stroke:#000000;">
    <path
       stroke="none"
       d="M12.143,40.313c6.865-2.226,22.623-3.224,35.194-2.229c0.853,0.068,1.689,0.421,2.445,0.225      c1.19-0.31,1.19,7.291,0.029,7.208c-2.327,0.309-4.896,0.552-7.595,0.722c-0.044,0.367-7.173,5.144-7.173,5.144      s-9.716-5.011-12.563-5.236C9.907,45.151,5.279,42.54,12.143,40.313z"
       id="path158" />
  </g>
  <g
     id="g159"
     style="font-size:12;stroke:#000000;">
    <path
       stroke="none"
       d="M0,22.836C0,10.225,10.225,0,22.837,0c12.612,0,22.835,10.225,22.835,22.836S35.449,45.673,22.837,45.673      C10.225,45.673,0,35.448,0,22.836z"
       id="path160" />
  </g>
  <g
     id="g161"
     style="font-size:12;stroke:#000000;">
    <path
       fill="#59F0F0"
       stroke="none"
       d="M1.794,22.836c0-11.621,9.421-21.042,21.042-21.042c11.622,0,21.042,9.421,21.042,21.042      c0,11.622-9.42,21.042-21.042,21.042C11.215,43.879,1.794,34.458,1.794,22.836z"
       id="path162" />
  </g>
  <g
     id="g163"
     style="font-size:12;stroke:#000000;">
    <g
       id="g164">
      <g
         id="g165">
        <path
           fill="#2F9E32"
           stroke="none"
           d="M29.464,42.591c0.258-1.094,0.837-3.409-0.193-3.603        c-1.03-0.192-2.96-0.322-3.539-0.965c-0.58-0.644-1.159-0.644-1.544-0.901c-0.386-0.258-0.965-1.094-0.386-1.866        c0.579-0.772,0.45-1.544-0.322-1.994c-0.772-0.452-1.223,0.128-1.866,0.192c-0.644,0.064-2.188-0.965-3.347-0.965        s-2.252,0-2.445-0.644c-0.708,0.45-4.955-0.322-4.762-1.609c-0.451-0.45-2.124-2.316-2.574-2.959        c0.064,0.514,0.45,1.608,0.836,1.93c-1.094-0.772-1.995-2.123-2.059-3.154c-0.515-0.451-1.802-2.83-1.608-3.539        c0.193-0.708,0.386-3.218,0.772-3.282S6.492,18.847,6.3,18.46c-0.193-0.386-0.322-1.03-0.322-1.352        c0-0.321,0.322-1.158,0-1.222c-0.322-0.064-1.03-0.515-0.579-0.515c0.45,0,0.837,0.258,0.837-0.193        c0-0.45-0.258-1.673-0.451-1.866c-0.192-0.193-0.128-0.129-0.514,0.128s-0.772,0.322-0.837,0.129s0.064-0.129,0.386-0.579        c0.322-0.451,1.094-1.738,1.352-2.188c0.257-0.45,0.193,0.129,1.029-0.836C8.037,9.001,8.488,8.1,8.488,9.001        c0,0.901,0.193,1.288,0.708,1.288s0.579-0.193,0.644,0.192c0.064,0.387,0.128,0.837,0.644,0.644        c0.515-0.192,0.965,0.064,1.223-0.192c0.257-0.259-0.193-0.516,0.128-0.58c0.323-0.064,0.451,0.515,0.58,0.064        c0.128-0.45-0.064-1.159,0.386-0.708s0.579,0.515,0.9,0.322c0.322-0.194,1.352-0.257,0.451,0.322        c-0.901,0.58-0.966,0.515-1.094,1.094c-0.128,0.579-0.193,0.386-0.515,1.03c-0.321,0.643-0.965,1.287-0.128,1.737        c0.836,0.451,1.93,0.579,1.93,0.579s0.901-0.708,0.772,0.063c-0.128,0.773-0.193,1.224,0.257,1.095        c0.451-0.129,1.224-0.064,0.708-0.644c-0.515-0.579-0.451-0.193-0.257-1.03c0.192-0.836,0.064-0.771-0.194-1.158        c-0.257-0.386-0.9-1.609-0.257-1.673c0.644-0.064,1.159-0.257,1.352,0.064c0.193,0.322,0.836,0.901,1.094,0.58        s-0.064-1.223,0.9-0.58c0.966,0.644-0.064,0.966,0.966,0.966c1.029,0,1.995-0.065,1.995,0.192c0,0.258-0.708,1.48-1.223,1.673        c-0.515,0.193-0.708-0.257-0.901,0.322c-0.193,0.579-0.837,1.802-0.45,1.351c0.385-0.45,1.029-1.416,1.093-0.837        c0.064,0.58,0,1.03,0.644,0.966c0.643-0.064,1.608-0.643,0.772,0.193c-0.837,0.836-0.901,1.416-0.837,0.836        c0.064-0.579,0.064-0.901-0.451-0.128c-0.514,0.772-0.643,1.351-0.386,1.351c0.257,0,0.257,0.193-0.064,0.386        c-0.322,0.193-0.515,1.094-0.708,1.608c-0.193,0.515-0.579,1.094-0.193,1.159c0.386,0.064,0.257,1.029,0.257,1.029        s-1.738,1.931-1.094,2.51c0.644,0.579,1.416,1.479,1.094,1.673c-0.322,0.192-1.094-1.03-1.287-1.223        c-0.192-0.192-2.123-0.451-2.252-0.128c-0.128,0.321,0.322,0.579,0,0.643c-0.321,0.064-1.48,0.323-1.93,0.579        c-0.45,0.257-0.579,1.094-0.515,1.416c0.064,0.322,0.386,3.088,1.866,2.766c1.48-0.32,1.608-0.449,1.351-1.093l1.159-0.45        c0,0-0.257,1.866,0.322,1.93c0.58,0.064,1.416-0.129,1.608-0.129c0.194,0,0.644,1.673,1.03,1.802s1.48,0,2.124-0.45        c0.643-0.449,0.965,0.579,1.029,0.064c0.064-0.514,0.771-1.608,1.415-1.866c0,0.45,0,0.901,0.387,0.772        c0.386-0.128,0.128-0.965,0.128-0.965s2.574,0.128,2.574-0.644c0,0,1.416-0.387,1.738,0.064        c0.192-0.45,0.514-0.064,1.029,0.064c0.515,0.128,0.837-0.322,1.545-0.644c0.707-0.321,2.252-0.064,2.445,0.45        c0.192,0.516,0.578,1.029,0.836,0.129l1.48-0.386c0,0,0.837-0.837,1.415-0.901c0.579-0.064,1.159-0.45,1.224-0.064        c0.063,0.385-0.193,1.93-0.579,2.251c-0.387,0.321-0.193,0.58-0.064,0.901c0.129,0.322-0.193,2.059-0.451,2.381        s0,0.386-0.515,0.836c-0.515,0.451-0.772,1.094-0.966,1.48c-0.191,0.386-0.514,1.479-1.028,1.931        c-0.515,0.45-0.837,0.965-0.837,0.965C34.805,39.825,32.939,42.076,29.464,42.591z"
           id="path166" />
      </g>
      <g
         id="g167">
        <path
           fill="#2F9E32"
           stroke="none"
           d="M19.04,28.114c0.386-0.193,0.45-0.258,0.836-0.258s1.608,0.064,1.995,0.064        c0.387,0,0.515,0.385,0.128,0.45c-0.385,0.064-1.029-0.193-1.479-0.193C20.069,28.177,19.297,28.435,19.04,28.114z"
           id="path168" />
      </g>
      <g
         id="g169">
        <path
           fill="#2F9E32"
           stroke="none"
           d="M23.416,27.92c0.193-0.322,1.029-0.514,1.416-0.322        c0.386,0.193-0.837,0.901-1.159,0.837C23.351,28.371,23.416,27.92,23.416,27.92z"
           id="path170" />
      </g>
      <g
         id="g171">
        <path
           fill="#2F9E32"
           stroke="none"
           d="M22,13.635c0,0,0.193,0.579,0.064,0.836c-0.128,0.258,0.579-0.128,1.094-0.128        c0.514,0,0.192-0.193,0.064-0.579C23.093,13.377,22.386,13.635,22,13.635z"
           id="path172" />
      </g>
      <g
         id="g173">
        <path
           fill="#2F9E32"
           stroke="none"
           d="M15.243,6.749c0.386-0.128,0.45-0.45,1.287,0c0.836,0.451,0.9,0.001,1.608,0.708        c0.708,0.708,1.93,1.93,3.475,1.351c-0.323-0.772-0.837-0.965-0.772-1.673c0.064-0.708,0.193-1.738,0.193-1.738l-0.644,0.258        L20.326,5.14c0,0-2.252-0.45-2.703-0.386c-0.45,0.063-0.45-0.258-0.772-0.258c-0.322,0-0.386,0.515-0.644,0.515        s-1.093-0.386-0.965,0.129c0.128,0.514,0.322,0.643,0.064,0.965C15.05,6.427,15.243,6.749,15.243,6.749z"
           id="path174" />
      </g>
      <g
         id="g175">
        <path
           fill="#2F9E32"
           stroke="none"
           d="M13.828,8.679c0.257-0.386,0.515-0.643,0.579-0.386        c0.064,0.258,0.128,0.515,0.837,0.322c0.708-0.193,0.9-0.064,1.158,0.128c0.258,0.193,0.901,0.257,0.901,0.579        c0,0.321-0.257,0.515-0.515,0.257s-0.644-0.643-0.644-0.322c0,0.322,0.193,0.966,0.837,0.901        c0.644-0.064,0.836,0.322,0.322,0.322s-0.386,0.192-0.708,0.258c-0.322,0.063-0.644-0.387-0.966-0.258        c0,0,0.129-0.901-0.257-0.965s-0.515,0.128-0.515,0.128s0.064-0.321-0.258-0.45c-0.322-0.129-0.45,0.192-0.837,0.192        C13.377,9.387,13.055,8.293,13.828,8.679z"
           id="path176" />
      </g>
      <g
         id="g177">
        <path
           fill="#2F9E32"
           stroke="none"
           d="M10.031,6.042c0,0,0.064,0.386,0.258,0.322c0.193-0.064,0.965-0.643,1.479-1.029        c0.515-0.387,0.966-0.773,0.901-0.966C12.605,4.175,10.609,5.462,10.031,6.042z"
           id="path178" />
      </g>
      <g
         id="g179">
        <path
           fill="#2F9E32"
           stroke="none"
           d="M9.258,6.685C9.569,6.581,9.066,7.2,8.679,7.65C8.293,8.101,8.036,8.101,7.65,8.551        c-0.386,0.45-1.03,0.965-1.287,1.223c-0.257,0.257-0.772,0.642-0.772,0.642S8.679,6.878,9.258,6.685z"
           id="path180" />
      </g>
      <g
         id="g181">
        <path
           fill="#2F9E32"
           stroke="none"
           d="M21.742,2.051c-0.064,0.387-0.386,0.58,0.128,0.58c0.515,0,2.574,0.064,3.089,0.579        c0.515,0.514,2.316,0.257,2.767-0.129c0.451-0.386-0.193-0.514-0.836-0.45c-0.644,0.064-1.223,0.064-1.609-0.128        c-0.386-0.193-0.837-0.322-0.837-0.579C23.608,1.859,22.128,1.859,21.742,2.051z"
           id="path182" />
      </g>
      <g
         id="g183">
        <path
           fill="#2F9E32"
           stroke="none"
           d="M28.306,2.438c0,0,1.029,0.772,0.772,0.836s-0.9,0.064-0.9,0.064        s0.644,0.063,0.965,0.321c0.322,0.258,0.193,0.708,0.901,0.901c0.708,0.193,0.9,1.094,1.223,1.352        c0.322,0.257,0.065-0.322,0.579-0.192c0.515,0.128,1.866,0.965,1.48,1.093c-0.387,0.129-0.515,0.644,0.192,1.03        c0.709,0.386,1.48,0.708,1.673,1.158c0.322-0.515,0.451-1.352-0.128-1.673c-0.579-0.321-1.352-0.644-1.48-1.159        c-0.128-0.514-0.192-0.964-0.128-1.351C32.167,3.725,28.756,2.502,28.306,2.438z"
           id="path184" />
      </g>
      <g
         id="g185">
        <path
           fill="#2F9E32"
           stroke="none"
           d="M35.899,6.363c0.129,0.515,0.516,2.316,0.129,2.574c-0.386,0.257,0,0.386,0.258,0.643        c0.257,0.257,0.321,0.128,0.707,0.708c0.387,0.58,0.708,1.03,0.708,1.802c0,0.773,0.515,1.48,0.773,1.93        c0.257,0.451,1.866,1.673,1.866,2.317c0,0.643-0.064,1.287,0.644,1.415c0.707,0.129,1.028,0.193,1.222,0.515        c0.193,0.322,0.772,0.322,1.094,0.387C42.914,15.887,41.241,10.61,35.899,6.363z"
           id="path186" />
      </g>
      <g
         id="g187">
        <path
           fill="#2F9E32"
           stroke="none"
           d="M22.965,5.334v0.257l0.836,0.129V5.076l-1.094-0.192L22.965,5.334z"
           id="path188" />
      </g>
      <g
         id="g189">
        <path
           fill="#2F9E32"
           stroke="none"
           d="M27.277,4.497c-0.322,0-0.065,0.322,0.321,0.387c0.387,0.064,0.708,0,1.223,0.064        c0.515,0.064,0.902,0.128,1.03,0.387c0.129,0.257,0.451,0.257,0.451,0c0-0.258,0.064-0.579-0.515-0.644        c-0.579-0.064-1.223-0.129-1.544-0.193S27.277,4.497,27.277,4.497z"
           id="path190" />
      </g>
      <g
         id="g191">
        <path
           fill="#2F9E32"
           stroke="none"
           d="M28.5,5.527h0.772v0.642L28.5,5.527z"
           id="path192" />
      </g>
      <g
         id="g193">
        <path
           fill="#2F9E32"
           stroke="none"
           d="M11.575,9.837c0,0-0.193,0.516-0.451,0.516s-0.708-0.579-0.257-0.772        C11.318,9.387,11.575,9.837,11.575,9.837z"
           id="path194" />
      </g>
      <g
         id="g195">
        <path
           fill="#2F9E32"
           stroke="none"
           d="M10.609,9.13c-0.321,0.257-0.514,0.514-0.708,0.45        c-0.192-0.064,0.258-0.579,0.516-0.708C10.674,8.744,10.609,9.13,10.609,9.13z"
           id="path196" />
      </g>
      <g
         id="g197">
        <path
           fill="#2F9E32"
           stroke="none"
           d="M11.061,8.358l0.386-0.129l0.515,0.579h0.451l-0.129,0.708h-0.258L11.061,8.358z"
           id="path198" />
      </g>
      <g
         id="g199">
        <path
           fill="#2F9E32"
           stroke="none"
           d="M13.184,7.071c0.322-0.063,0.708-0.063,0.901-0.901        c0.192-0.835,0.515-0.514,0.386,0.065c-0.128,0.579-0.643,0.644-0.386,0.965c0.257,0.322,0.128,0.192-0.257,0.128        C13.441,7.264,13.184,7.392,13.184,7.071z"
           id="path200" />
      </g>
    </g>
  </g>
</svg>
