<?xml version="1.0" encoding="UTF-8" standalone="no"?>
<svg
   xmlns:dc="http://purl.org/dc/elements/1.1/"
   xmlns:cc="http://creativecommons.org/ns#"
   xmlns:rdf="http://www.w3.org/1999/02/22-rdf-syntax-ns#"
   xmlns:svg="http://www.w3.org/2000/svg"
   xmlns="http://www.w3.org/2000/svg"
   xmlns:sodipodi="http://sodipodi.sourceforge.net/DTD/sodipodi-0.dtd"
   xmlns:inkscape="http://www.inkscape.org/namespaces/inkscape"
   version="1.1"
   width="64"
   height="64"
   color-interpolation="linearRGB"
   id="svg2"
   inkscape:version="0.47 r22583"
   sodipodi:docname="xfce4-fsguard-plugin-urgent.svg">
  <metadata
     id="metadata46">
    <rdf:RDF>
      <cc:Work
         rdf:about="">
        <dc:format>image/svg+xml</dc:format>
        <dc:type
           rdf:resource="http://purl.org/dc/dcmitype/StillImage" />
      </cc:Work>
    </rdf:RDF>
  </metadata>
  <defs
     id="defs44">
    <inkscape:perspective
       sodipodi:type="inkscape:persp3d"
       inkscape:vp_x="0 : 32 : 1"
       inkscape:vp_y="0 : 1000 : 0"
       inkscape:vp_z="64 : 32 : 1"
       inkscape:persp3d-origin="32 : 21.333333 : 1"
       id="perspective48" />
    <inkscape:perspective
       id="perspective2913"
       inkscape:persp3d-origin="32 : 21.333333 : 1"
       inkscape:vp_z="64 : 32 : 1"
       inkscape:vp_y="0 : 1000 : 0"
       inkscape:vp_x="0 : 32 : 1"
       sodipodi:type="inkscape:persp3d" />
  </defs>
  <sodipodi:namedview
     pagecolor="#ffffff"
     bordercolor="#666666"
     borderopacity="1"
     objecttolerance="10"
     gridtolerance="10"
     guidetolerance="10"
     inkscape:pageopacity="0"
     inkscape:pageshadow="2"
     inkscape:window-width="739"
     inkscape:window-height="523"
     id="namedview42"
     showgrid="false"
     inkscape:zoom="3.6875"
     inkscape:cx="32"
     inkscape:cy="32"
     inkscape:window-x="340"
     inkscape:window-y="1"
     inkscape:window-maximized="0"
     inkscape:current-layer="svg2" />
  <g
     id="g4">
    <path
       style="fill:#010101; fill-opacity:0.5019"
       d="M36 61H41L64 30L58 27L59 31L36 61z"
       id="path6" />
    <path
       style="fill:none; stroke:#010000; stroke-width:4"
       d="M2 28V41L36 59L58 30V17L25 5L2 28z"
       id="path8" />
    <linearGradient
       id="gradient0"
       gradientUnits="userSpaceOnUse"
       x1="13.84"
       y1="-38.14"
       x2="58.34"
       y2="-27.7">
      <stop
         offset="0"
         stop-color="#ffffff"
         id="stop11" />
      <stop
         offset="1"
         stop-color="#d3d3d3"
         id="stop13" />
    </linearGradient>
    <path
       style="fill:url(#gradient0)"
       d="M2 28L36 43L58 17L25 5L2 28z"
       id="path15" />
    <linearGradient
       id="gradient1"
       gradientUnits="userSpaceOnUse"
       x1="44.72"
       y1="-7.9"
       x2="86.1"
       y2="10.51">
      <stop
         offset="0"
         stop-color="#474747"
         id="stop18" />
      <stop
         offset="1"
         stop-color="#a5a0a0"
         id="stop20" />
    </linearGradient>
    <path
       style="fill:url(#gradient1)"
       d="M36 43V59L58 30V17L36 43z"
       id="path22" />
    <linearGradient
       id="gradient2"
       gradientUnits="userSpaceOnUse"
       x1="22.97"
       y1="92.59"
       x2="-14.6"
       y2="67.29">
      <stop
         offset="0"
         stop-color="#7d7d7d"
         id="stop25" />
      <stop
         offset="1"
         stop-color="#d4d4d4"
         id="stop27" />
    </linearGradient>
    <path
       style="fill:url(#gradient2)"
       d="M2 28V41L36 59V43L2 28z"
       id="path29" />
    <linearGradient
       id="gradient3"
       gradientUnits="userSpaceOnUse"
       x1="32.05"
       y1="9.68"
       x2="43.48"
       y2="24.05">
      <stop
         offset="0"
         stop-color="#596756"
         id="stop32" />
      <stop
         offset="1"
         stop-color="#ebb2b2"
         id="stop34" />
    </linearGradient>
    <path
       style="fill:none; stroke:url(#gradient3); stroke-width:5; stroke-linecap:round"
       d="M7 35L12.75 37.5"
       id="path36" />
    <path
       style="fill:none; stroke:#ff0000; stroke-width:2"
       d="M6 35L9 36"
       transform="matrix(1,0,0,1,4,1.5)"
       id="path38" />
    <path
       style="fill:none; stroke:#a7ff00; stroke-width:2"
       d="M6 35L9 36"
       transform="matrix(1,0,0,1,0,-0.25)"
       id="path40" />
  </g>
  <g
     id="g2856"
     transform="matrix(0.66471495,0,0,0.66471495,10.68228,21.458243)">
    <path
       id="path2858"
       d="m 55,64 8,-8 -8,-4 -15,2 -4,4 4,4 15,2 z M 28,52 c -6.63,0 -12,2.68 -12,6 0,3.31 5.37,6 12,6 6.62,0 12,-2.69 12,-6 0,-3.32 -5.38,-6 -12,-6 z"
       style="fill:#010101;fill-opacity:0.46660001" />
    <path
       id="path2860"
       d="m 24,40 c -5.53,0 -10,4.47 -10,10 0,5.52 4.47,10 10,10 5.52,0 10,-4.48 10,-10 0,-5.53 -4.48,-10 -10,-10 z"
       style="fill:none;stroke:#000000;stroke-width:4" />
    <radialGradient
       gradientTransform="matrix(0.2281,0,0,0.2281,20.7999,47)"
       r="64"
       cy="0"
       cx="0"
       gradientUnits="userSpaceOnUse"
       id="gradient0-4">
      <stop
         id="stop2863"
         stop-color="#ffffff"
         offset="0" />
      <stop
         id="stop2865"
         stop-color="#ff3930"
         offset="0.25" />
      <stop
         id="stop2867"
         stop-color="#bf0000"
         offset="1" />
      <stop
         id="stop2869"
         stop-color="#800000"
         offset="0.8152" />
    </radialGradient>
    <path
       id="path2871"
       d="m 24,40 c -5.53,0 -10,4.47 -10,10 0.01,5.52 4.47,10 10,10 5.52,0 10,-4.48 10,-10 -2,2 -8,-1 -12,-3 0,0 0,-3 2,-7 z"
       style="fill:url(#gradient0-4)" />
    <radialGradient
       gradientTransform="matrix(0.2281,0,0,0.2281,20.7999,47)"
       r="64"
       cy="0"
       cx="0"
       gradientUnits="userSpaceOnUse"
       id="gradient1-0">
      <stop
         id="stop2874"
         stop-color="#ff756e"
         offset="0" />
      <stop
         id="stop2876"
         stop-color="#d50f05"
         offset="0.3007" />
      <stop
         id="stop2878"
         stop-color="#bf0000"
         offset="1" />
      <stop
         id="stop2880"
         stop-color="#800000"
         offset="0.8152" />
    </radialGradient>
    <path
       id="path2882"
       d="m 24,40 c -2,4 -2,7 -2,7 4,2 10,5 12,3 0,-5.53 -4.48,-10 -10,-10 z"
       style="fill:url(#gradient1-0)" />
    <path
       id="path2884"
       d="M 21,2 10,8 21,43 29,35 38,6 21,2 z"
       style="fill:none;stroke:#000000;stroke-width:4" />
    <linearGradient
       y2="-10.2"
       x2="76.040001"
       y1="-28.459999"
       x1="60.240002"
       gradientUnits="userSpaceOnUse"
       id="gradient2-5">
      <stop
         id="stop2887"
         stop-color="#ff6159"
         offset="0" />
      <stop
         id="stop2889"
         stop-color="#e40000"
         offset="1" />
    </linearGradient>
    <path
       id="path2891"
       d="M 10,8 21,43 28,13 10,8 z"
       style="fill:url(#gradient2-5)" />
    <linearGradient
       y2="-20.34"
       x2="56.59"
       y1="-23.389999"
       x1="50.369999"
       gradientUnits="userSpaceOnUse"
       id="gradient3-9">
      <stop
         id="stop2894"
         stop-color="#800000"
         offset="0" />
      <stop
         id="stop2896"
         stop-color="#a00404"
         offset="1" />
    </linearGradient>
    <path
       id="path2898"
       d="M 28,13 21,43 29,35 38,6 28,13 z"
       style="fill:url(#gradient3-9)" />
    <linearGradient
       y2="-20"
       x2="36"
       y1="-20"
       x1="12"
       gradientUnits="userSpaceOnUse"
       id="gradient4">
      <stop
         id="stop2901"
         stop-color="#ffc6c0"
         offset="0" />
      <stop
         id="stop2903"
         stop-color="#ff7575"
         offset="1" />
    </linearGradient>
    <path
       id="path2905"
       d="M 21,2 10,8 28,13 38,6 21,2 z"
       style="fill:url(#gradient4)" />
  </g>
</svg>
