<?xml version="1.0" encoding="UTF-8" standalone="no"?>
<svg
   xmlns:dc="http://purl.org/dc/elements/1.1/"
   xmlns:cc="http://creativecommons.org/ns#"
   xmlns:rdf="http://www.w3.org/1999/02/22-rdf-syntax-ns#"
   xmlns:svg="http://www.w3.org/2000/svg"
   xmlns="http://www.w3.org/2000/svg"
   xmlns:sodipodi="http://sodipodi.sourceforge.net/DTD/sodipodi-0.dtd"
   xmlns:inkscape="http://www.inkscape.org/namespaces/inkscape"
   version="1.1"
   width="64"
   height="64"
   color-interpolation="linearRGB"
   id="svg2"
   inkscape:version="0.91 r13725"
   sodipodi:docname="zoom-2-to-1.svg">
  <metadata
     id="metadata68">
    <rdf:RDF>
      <cc:Work
         rdf:about="">
        <dc:format>image/svg+xml</dc:format>
        <dc:type
           rdf:resource="http://purl.org/dc/dcmitype/StillImage" />
        <dc:title></dc:title>
      </cc:Work>
    </rdf:RDF>
  </metadata>
  <defs
     id="defs66">
    <radialGradient
       gradientTransform="matrix(0.5714,0,0,0.3333,7.009251,33.118841)"
       r="64"
       cy="0"
       cx="0"
       gradientUnits="userSpaceOnUse"
       id="gradient0">
      <stop
         id="stop11"
         stop-color="#fffcc0"
         offset="1" />
      <stop
         id="stop13"
         stop-color="#f1b706"
         offset="0.4886" />
    </radialGradient>
    <linearGradient
       y2="27.99"
       x2="118.33"
       y1="-17.09"
       x1="107.04"
       gradientUnits="userSpaceOnUse"
       id="gradient1"
       gradientTransform="translate(-22.932225,-3.9414762)">
      <stop
         id="stop20"
         stop-color="#ffefa5"
         offset="0" />
      <stop
         id="stop22"
         stop-color="#fffcc0"
         offset="0.7424" />
      <stop
         id="stop24"
         stop-color="#fff890"
         offset="1" />
    </linearGradient>
    <linearGradient
       y2="-37.85"
       x2="-28.46"
       y1="-15.78"
       x1="-47.14"
       gradientUnits="userSpaceOnUse"
       id="gradient2">
      <stop
         id="stop29"
         stop-color="#010101"
         offset="0" />
      <stop
         id="stop31"
         stop-color="#9e9e9e"
         offset="1" />
    </linearGradient>
    <linearGradient
       y2="-37.85"
       x2="-28.46"
       y1="-15.78"
       x1="-47.14"
       gradientUnits="userSpaceOnUse"
       id="gradient3">
      <stop
         id="stop36"
         stop-color="#010101"
         offset="0" />
      <stop
         id="stop38"
         stop-color="#9e9e9e"
         offset="1" />
    </linearGradient>
    <linearGradient
       y2="36.98"
       x2="34.46"
       y1="44.37"
       x1="30.33"
       gradientUnits="userSpaceOnUse"
       id="gradient4"
       gradientTransform="translate(1,-4)">
      <stop
         id="stop45"
         stop-color="#555555"
         offset="1" />
      <stop
         id="stop47"
         stop-color="#858585"
         offset="0.7613" />
      <stop
         id="stop49"
         stop-color="#505050"
         offset="0" />
    </linearGradient>
    <radialGradient
       gradientTransform="matrix(0.25,0,0,0.25,36,33)"
       r="64"
       cy="0"
       cx="0"
       gradientUnits="userSpaceOnUse"
       id="gradient5">
      <stop
         id="stop56"
         stop-color="#dcf4ff"
         offset="0" />
      <stop
         id="stop58"
         stop-color="#6094aa"
         offset="1" />
    </radialGradient>
  </defs>
  <sodipodi:namedview
     pagecolor="#ffffff"
     bordercolor="#666666"
     borderopacity="1"
     objecttolerance="10"
     gridtolerance="10"
     guidetolerance="10"
     inkscape:pageopacity="0"
     inkscape:pageshadow="2"
     inkscape:window-width="1920"
     inkscape:window-height="1016"
     id="namedview64"
     showgrid="false"
     showguides="false"
     inkscape:zoom="11.796875"
     inkscape:cx="32"
     inkscape:cy="32"
     inkscape:window-x="0"
     inkscape:window-y="30"
     inkscape:window-maximized="1"
     inkscape:current-layer="svg2" />
  <g
     id="g7554"
     transform="matrix(1.689336,0,0,1.689336,-38.154854,-33.404522)">
    <path
       style="fill:none;stroke:#010101;stroke-width:4"
       d="m 45,45 10,10 c 0,0 1.49,-0.51 2,-1 0.5,-0.5 1,-2 1,-2 l -10,-10 -4,-1 1,4 z"
       id="path42"
       inkscape:connector-curvature="0" />
    <path
       style="fill:url(#gradient4)"
       d="m 45,45 10,10 c 0,0 1.49,-0.51 2,-1 0.5,-0.5 1,-2 1,-2 l -10,-10 -4,-1 1,4 z"
       id="path51"
       inkscape:connector-curvature="0" />
    <path
       style="fill:none;stroke:#010101;stroke-width:4"
       d="m 35,22 c -5.53,0 -10,4.47 -10,10 0,5.52 4.47,10 10,10 5.52,0 10,-4.48 10,-10 0,-5.53 -4.48,-10 -10,-10 z"
       id="path53"
       inkscape:connector-curvature="0" />
    <path
       style="fill:url(#gradient5)"
       d="m 35,22 c -5.53,0 -10,4.47 -10,10 0,5.52 4.47,10 10,10 5.52,0 10,-4.48 10,-10 0,-5.53 -4.48,-10 -10,-10 z"
       id="path60"
       inkscape:connector-curvature="0" />
    <path
       style="fill:#ffffff"
       d="m 31,26 c -1.3825,0 -2.5,1.1175 -2.5,2.5 0,1.38 1.1175,2.5 2.5,2.5 1.38,0 2.5,-1.12 2.5,-2.5 C 33.5,27.1175 32.38,26 31,26 Z"
       id="path62"
       inkscape:connector-curvature="0" />
  </g>
  <text
     xml:space="preserve"
     style="font-style:normal;font-variant:normal;font-weight:normal;font-stretch:normal;font-size:15px;line-height:125%;font-family:'DejaVu Sans Mono';-inkscape-font-specification:'DejaVu Sans Mono';letter-spacing:0px;word-spacing:0px;fill:#000000;fill-opacity:1;stroke:#000000;stroke-width:1px;stroke-linecap:butt;stroke-linejoin:miter;stroke-opacity:1;"
     x="8.0529785"
     y="25.515232"
     id="text7587"
     sodipodi:linespacing="125%"><tspan
       sodipodi:role="line"
       id="tspan7589"
       x="8.0529785"
       y="25.515232">2:1</tspan></text>
</svg>
