<?xml version="1.0" encoding="UTF-8" standalone="no"?>
<svg
   xmlns:dc="http://purl.org/dc/elements/1.1/"
   xmlns:cc="http://creativecommons.org/ns#"
   xmlns:rdf="http://www.w3.org/1999/02/22-rdf-syntax-ns#"
   xmlns:svg="http://www.w3.org/2000/svg"
   xmlns="http://www.w3.org/2000/svg"
   xmlns:sodipodi="http://sodipodi.sourceforge.net/DTD/sodipodi-0.dtd"
   xmlns:inkscape="http://www.inkscape.org/namespaces/inkscape"
   version="1.1"
   width="64"
   height="64"
   color-interpolation="linearRGB"
   id="svg2"
   inkscape:version="0.91 r13725"
   sodipodi:docname="zoom-fit-page.svg">
  <metadata
     id="metadata65">
    <rdf:RDF>
      <cc:Work
         rdf:about="">
        <dc:format>image/svg+xml</dc:format>
        <dc:type
           rdf:resource="http://purl.org/dc/dcmitype/StillImage" />
        <dc:title />
      </cc:Work>
    </rdf:RDF>
  </metadata>
  <defs
     id="defs63">
    <inkscape:perspective
       id="perspective33"
       inkscape:persp3d-origin="32 : 21.333333 : 1"
       inkscape:vp_z="64 : 32 : 1"
       inkscape:vp_y="0 : 1000 : 0"
       inkscape:vp_x="0 : 32 : 1"
       sodipodi:type="inkscape:persp3d" />
    <inkscape:perspective
       sodipodi:type="inkscape:persp3d"
       inkscape:vp_x="0 : 32 : 1"
       inkscape:vp_y="0 : 1000 : 0"
       inkscape:vp_z="64 : 32 : 1"
       inkscape:persp3d-origin="32 : 21.333333 : 1"
       id="perspective35" />
    <linearGradient
       y2="26.91"
       x2="103.7"
       y1="-5.5500002"
       x1="83.050003"
       gradientUnits="userSpaceOnUse"
       id="linearGradient2423">
      <stop
         id="stop2425"
         stop-color="#faf9d2"
         offset="0" />
      <stop
         id="stop2427"
         stop-color="#dddb8f"
         offset="1" />
    </linearGradient>
    <linearGradient
       y2="23.280001"
       x2="56.810001"
       y1="6.0599999"
       x1="34.740002"
       gradientUnits="userSpaceOnUse"
       id="linearGradient2429">
      <stop
         id="stop2431"
         stop-color="#010101"
         offset="0" />
      <stop
         id="stop2433"
         stop-color="#807e5d"
         offset="1" />
    </linearGradient>
  </defs>
  <sodipodi:namedview
     pagecolor="#ffffff"
     bordercolor="#666666"
     borderopacity="1"
     objecttolerance="10"
     gridtolerance="10"
     guidetolerance="10"
     inkscape:pageopacity="0"
     inkscape:pageshadow="2"
     inkscape:window-width="1078"
     inkscape:window-height="702"
     id="namedview61"
     showgrid="false"
     inkscape:zoom="4.2277467"
     inkscape:cx="7.0683065"
     inkscape:cy="19.568176"
     inkscape:window-x="155"
     inkscape:window-y="81"
     inkscape:window-maximized="0"
     inkscape:current-layer="svg2" />
  <g
     style="color-interpolation:linearRGB"
     id="g7556"
     transform="translate(1.2012535,4.0743484)">
    <g
       id="g7512">
      <path
         id="path7514"
         transform="translate(0,-5.625)"
         d="m 27,62 2,2 3.12,-3.18 L 37,64 45.39,52.53 64,43 l -5,-3 2,2 -25,12 -9,8 z m 31,-23 4,-3 -4,-2 -3,3 3,2 z"
         style="fill:#010101;fill-opacity:0.4274"
         inkscape:connector-curvature="0" />
      <path
         id="path7516"
         transform="translate(0,-5.625)"
         d="m 6.24,35 c 0,0 5.63,6 10.63,12.5 5,6.5 9.37,13.24 9.37,13.24 L 59.11,41.87 32,20 6.24,35 Z"
         style="fill:none;stroke:#010101;stroke-width:4"
         inkscape:connector-curvature="0" />
      <radialGradient
         gradientTransform="matrix(0.5714,0,0,0.3333,26,40)"
         r="64"
         cy="0"
         cx="0"
         gradientUnits="userSpaceOnUse"
         id="gradient0-3">
        <stop
           id="stop7519"
           stop-color="#f1f1f1"
           offset="0.4862" />
        <stop
           id="stop7521"
           stop-color="#ffffff"
           offset="1" />
      </radialGradient>
      <path
         id="path7523"
         transform="translate(0,-5.625)"
         d="m 6.24,35 c 0,0 5.63,6 10.63,12.5 5,6.5 9.37,13.24 9.37,13.24 L 50.03,47.07 57.04,43.05 59.11,41.87 32,20 6.24,35 Z"
         style="fill:url(#gradient0-3)"
         inkscape:connector-curvature="0" />
      <path
         id="path7525"
         transform="translate(0,-5.625)"
         d="m 2.61,35.87 c 0,0 8.34,5.39 16.39,11 8.44,5.88 16.74,10.87 16.74,10.87 L 58.11,31.37 c 0,0 -12.67,-5.67 -22.74,-11 -5.19,-2.75 -9.37,-6 -9.37,-6 L 2.61,35.87 Z"
         style="fill:none;stroke:#010101;stroke-width:4"
         inkscape:connector-curvature="0" />
      <linearGradient
         y2="32.990002"
         x2="118.33"
         y1="-12.09"
         x1="107.03"
         gradientUnits="userSpaceOnUse"
         id="gradient1-6">
        <stop
           id="stop7528"
           stop-color="#efefef"
           offset="0" />
        <stop
           id="stop7530"
           stop-color="#fcfcfc"
           offset="0.7411" />
        <stop
           id="stop7532"
           stop-color="#f8f8f8"
           offset="1" />
      </linearGradient>
      <path
         id="path7534"
         transform="translate(0,-5.625)"
         d="m 2.61,35.87 c 0,0 8.34,5.39 16.39,11 8.44,5.88 16.74,10.87 16.74,10.87 L 44.86,47 l 4.87,-5.76 8.38,-9.87 c 0,0 -12.67,-5.67 -22.74,-11 -5.19,-2.75 -9.37,-6 -9.37,-6 L 2.61,35.87 Z"
         style="fill:url(#gradient1-6)"
         inkscape:connector-curvature="0" />
      <linearGradient
         y2="-37.849998"
         x2="-28.459999"
         y1="-15.78"
         x1="-47.139999"
         gradientUnits="userSpaceOnUse"
         id="gradient2-7">
        <stop
           id="stop7537"
           stop-color="#010101"
           offset="0" />
        <stop
           id="stop7539"
           stop-color="#9e9e9e"
           offset="1" />
      </linearGradient>
      <path
         id="path7541"
         transform="translate(0,-5.625)"
         d="M 20,41 34.87,25.87 M 14,37 26.87,24"
         style="fill:none;stroke:url(#gradient2-7);stroke-width:1"
         inkscape:connector-curvature="0" />
      <linearGradient
         y2="-37.849998"
         x2="-28.459999"
         y1="-15.78"
         x1="-47.139999"
         gradientUnits="userSpaceOnUse"
         id="gradient3-5">
        <stop
           id="stop7544"
           stop-color="#010101"
           offset="0" />
        <stop
           id="stop7546"
           stop-color="#9e9e9e"
           offset="1" />
      </linearGradient>
      <path
         id="path7548"
         transform="translate(0,-5.625)"
         d="M 17,39 28.11,27.61"
         style="fill:none;stroke:url(#gradient3-5);stroke-width:1"
         inkscape:connector-curvature="0" />
    </g>
  </g>
  <g
     id="g4"
     transform="matrix(0.50271797,0,0,0.50271797,31.214142,-1.0519839)">
    <path
       style="fill:#000000;fill-opacity:0.32940004"
       d="M 52.42,31.27 31,64 C 48.12,64 62,55.49 62,45 62,39.6 58.32,34.73 52.43,31.27 l -0.01,0 z M 48,28 51,30 62,16 c 1.5,-1.88 2,-4 1,-6 L 48,28 Z"
       id="path6"
       inkscape:connector-curvature="0" />
    <path
       style="fill:#101010"
       d="M 54,6 36,22 49,29 61,14 C 62.71,11.73 65,8 62,5 59.25,2.25 56,4 54,6 Z"
       id="path8"
       inkscape:connector-curvature="0" />
    <linearGradient
       id="gradient0"
       gradientUnits="userSpaceOnUse"
       x1="41.400002"
       y1="19.5"
       x2="48.470001"
       y2="26.57">
      <stop
         offset="0"
         stop-color="#888888"
         id="stop11" />
      <stop
         offset="0.25"
         stop-color="#ffffff"
         id="stop13" />
      <stop
         offset="0.75"
         stop-color="#888888"
         id="stop15" />
      <stop
         offset="1"
         stop-color="#888888"
         id="stop17" />
    </linearGradient>
    <path
       style="fill:url(#gradient0)"
       d="m 48,27 c 2,-2 2.75,-5 0.75,-7 C 46.75,18 43,18 42,19 l -5,4 11,4 z"
       id="path19"
       inkscape:connector-curvature="0" />
    <path
       style="fill:#000000"
       d="M 27,20 C 12.09,20 0,27.61 0,37 L 0,47 C 0,56.38 12.09,64 27.01,64 41.92,64 54,56.38 54,47 L 54,37 C 54,27.61 41.9,20 27,20 l 0,0 z"
       id="path21"
       inkscape:connector-curvature="0" />
    <linearGradient
       id="gradient1"
       gradientUnits="userSpaceOnUse"
       x1="105.74"
       y1="-37.060001"
       x2="130.73"
       y2="7.8400002">
      <stop
         offset="0.3484"
         stop-color="#e7e7e7"
         id="stop24" />
      <stop
         offset="0"
         stop-color="#fdfdfd"
         id="stop26" />
      <stop
         offset="1"
         stop-color="#ffffff"
         id="stop28" />
    </linearGradient>
    <path
       style="fill:url(#gradient1)"
       d="M 27,22 C 13.19,22 2,28.71 2,37 2,45.28 13.19,52 27.01,52 40.81,52 52,45.28 52.01,37 52,28.71 40.8,22 27,22 l 0,0 z m 0,4 C 38.59,26 48,30.92 48.01,37 48,43.07 38.6,48 27.01,48 15.4,48 6,43.07 6,37 6,30.92 15.39,26 27,26 l 0,0 z"
       id="path30"
       inkscape:connector-curvature="0" />
    <radialGradient
       id="gradient2"
       gradientUnits="userSpaceOnUse"
       cx="0"
       cy="0"
       r="64"
       gradientTransform="matrix(0.3125,0,0,0.125,26,40)">
      <stop
         offset="0"
         stop-color="#ceceff"
         id="stop33" />
      <stop
         offset="1"
         stop-color="#9898ff"
         id="stop35" />
    </radialGradient>
    <path
       style="fill:url(#gradient2)"
       d="m 27,46 c 9.04,0 16.59,-3 18.52,-7 -1.93,-4.01 -9.48,-7 -18.52,-7 -9.04,0 -16.61,2.99 -18.52,7 1.91,4 9.47,7 18.52,7 l 0,0 z"
       id="path37"
       inkscape:connector-curvature="0" />
    <path
       style="fill:none;stroke:#666698;stroke-width:2"
       d="m 9.11,39.87 c 3.1,-2.97 10.43,-5.25 17.89,-5.25 7.45,0 14.66,2.16 17.77,5.13"
       id="path39"
       inkscape:connector-curvature="0" />
    <linearGradient
       id="gradient3"
       gradientUnits="userSpaceOnUse"
       x1="-10.5"
       y1="-64"
       x2="64"
       y2="-64">
      <stop
         offset="0"
         stop-color="#6464ba"
         id="stop42" />
      <stop
         offset="1"
         stop-color="#c7c7e0"
         id="stop44" />
    </linearGradient>
    <path
       style="fill:url(#gradient3)"
       d="m 27,28 c -10.5,0 -19,4.02 -19,9 0,0.68 0.17,1.35 0.48,2 1.91,-4.01 9.47,-7 18.52,-7 9.04,0 16.6,2.99 18.53,7 0.3,-0.65 0.47,-1.32 0.47,-2 0,-4.98 -8.51,-9 -19,-9 l 0,0 z"
       id="path46"
       inkscape:connector-curvature="0" />
    <path
       style="fill:#ffffff"
       d="m 17,36 c 3,1 7,-3 4,-4 -3,-1 -7,3 -4,4 z m 21.12,2.25 c -1.87,2.12 -4.5,3.12 -9.25,3.69 0,0 4.5,0.56 7,-0.32 3.18,-1.11 2.25,-3.37 2.25,-3.37 z"
       id="path48"
       inkscape:connector-curvature="0" />
    <path
       style="fill:none;stroke:#787878;stroke-width:3;stroke-linecap:round"
       d="M 48.12,16 57.5,7"
       id="path50"
       inkscape:connector-curvature="0" />
    <linearGradient
       id="gradient4"
       gradientUnits="userSpaceOnUse"
       x1="4"
       y1="-64"
       x2="52"
       y2="-64">
      <stop
         offset="0"
         stop-color="#d1d1ea"
         id="stop53" />
      <stop
         offset="0.5909"
         stop-color="#4c4c76"
         id="stop55" />
      <stop
         offset="1"
         stop-color="#75759b"
         id="stop57" />
    </linearGradient>
    <path
       style="fill:url(#gradient4)"
       d="M 27,52 C 13.19,52 2,45.48 2,37.45 l 0,9.09 C 2,55.08 13.19,62 27,62 40.82,62 52,55.08 52,46.54 l 0,-9.09 C 52,45.48 40.8,52 27,52 l 0,0 z"
       id="path59"
       inkscape:connector-curvature="0" />
  </g>
</svg>
