<?xml version="1.0" encoding="UTF-8" standalone="yes"?>
<svg version="1.1" width="64" height="64" color-interpolation="linearRGB"
     xmlns:svg="http://www.w3.org/2000/svg" xmlns="http://www.w3.org/2000/svg">
 <g>
  <path style="fill:#010101; fill-opacity:0.4588"
        d="M16 48L46 34L58 38L42 56H36L30 58L16 48z"
        transform="matrix(1,0,0,1,2,2)"
  />
  <path style="fill:none; stroke:#010101; stroke-width:4"
        d="M30 58L4 44L10 34V20L22 10L46 16V38L30 58z"
        transform="matrix(1,0,0,1,2,2)"
  />
  <linearGradient id="gradient0" gradientUnits="userSpaceOnUse" x1="48.57" y1="0.97" x2="57.82" y2="20.55">
   <stop offset="0" stop-color="#eeeeee"/>
   <stop offset="1" stop-color="#b3b3b3"/>
  </linearGradient>
  <path style="fill:url(#gradient0)"
        d="M30 58L4 44L10 34V20L22 10L46 16V38L30 58z"
        transform="matrix(1,0,0,1,2,2)"
  />
  <linearGradient id="gradient1" gradientUnits="userSpaceOnUse" x1="57.2" y1="-62.82" x2="72.22" y2="-58.13">
   <stop offset="0" stop-color="#797979"/>
   <stop offset="1" stop-color="#ababab"/>
  </linearGradient>
  <path style="fill:url(#gradient1)"
        d="M32 26V42L30 58L46 38V16L32 26z"
        transform="matrix(1,0,0,1,2,2)"
  />
  <linearGradient id="gradient2" gradientUnits="userSpaceOnUse" x1="-66.84" y1="32.7" x2="-67.53" y2="25.46">
   <stop offset="0" stop-color="#e1e1e1"/>
   <stop offset="1" stop-color="#ffffff"/>
  </linearGradient>
  <path style="fill:url(#gradient2)"
        d="M46 16L32 26L10 20L22 10L46 16z"
        transform="matrix(1,0,0,1,2,2)"
  />
  <path style="fill:#444444; fill-opacity:0.749"
        d="M46 24L40 30V20L17 15L22 10L46 16V24z"
        transform="matrix(1,0,0,1,2,2)"
  />
  <linearGradient id="gradient3" gradientUnits="userSpaceOnUse" x1="61.52" y1="32.54" x2="62.58" y2="44.72">
   <stop offset="0" stop-color="#f6f6f6"/>
   <stop offset="1" stop-color="#dedede"/>
  </linearGradient>
  <path style="fill:url(#gradient3)"
        d="M10 34L32 42L30 58L4 44L10 34z"
        transform="matrix(1,0,0,1,2,2)"
  />
  <linearGradient id="gradient4" gradientUnits="userSpaceOnUse" x1="119.84" y1="17.21" x2="122.18" y2="29.36">
   <stop offset="0" stop-color="#000000" stop-opacity="0.447"/>
   <stop offset="1" stop-color="#000000" stop-opacity="0"/>
  </linearGradient>
  <path style="fill:none; stroke:url(#gradient4); stroke-width:6; stroke-linecap:round; stroke-linejoin:round"
        d="M20 31L25 40L27 49"
        transform="matrix(1,0,0,1,2,2)"
  />
  <path style="fill:none; stroke:#010101; stroke-width:4"
        d="M14 40C10 42 6 34 10 32L18 28C22 26 24 32 22 34L14 40z"
        transform="matrix(1,0,0,1,2,2)"
  />
  <linearGradient id="gradient5" gradientUnits="userSpaceOnUse" x1="52.98" y1="-1.17" x2="56.7" y2="3.32">
   <stop offset="0" stop-color="#ececec"/>
   <stop offset="0.5215" stop-color="#768397"/>
   <stop offset="1" stop-color="#aeb3bd"/>
  </linearGradient>
  <path style="fill:url(#gradient5)"
        d="M14 40C10 42 6 34 10 32L18 28C22 26 24 32 22 34L14 40z"
        transform="matrix(1,0,0,1,2,2)"
  />
  <path style="fill:none; stroke:#010101; stroke-width:4"
        d="M10 8C8 6 8 3 13 4C13 1 19 1 19 4C24 3 24 6 22 8C25 12 21 17 16 15C11 17 7 12 10 8z"
        transform="matrix(1,0,0,1,2,2)"
  />
  <radialGradient id="gradient6" gradientUnits="userSpaceOnUse" cx="0" cy="0" r="64" gradientTransform="matrix(0.1875,0,0,0.1875,12,4)">
   <stop offset="0" stop-color="#ffacac"/>
   <stop offset="1" stop-color="#de6666"/>
  </radialGradient>
  <path style="fill:url(#gradient6)"
        d="M10 8C8 6 8 3 13 4C13 1 19 1 19 4C24 3 24 6 22 8C25 12 21 17 16 15C11 17 7 12 10 8z"
        transform="matrix(1,0,0,1,2,2)"
  />
  <path style="fill:none; stroke:#010101; stroke-width:4"
        d="M10 14C10 14 13 15 16 15C19 15 22 14 22 14L18 22V30C18 30 18 32 16 32C14 32 14 30 14 30V22L10 14z"
        transform="matrix(1,0,0,0.9182,2,2.7786)"
  />
  <linearGradient id="gradient7" gradientUnits="userSpaceOnUse" x1="14" y1="-64" x2="18" y2="-64">
   <stop offset="0" stop-color="#ececec"/>
   <stop offset="0.5215" stop-color="#768397"/>
   <stop offset="1" stop-color="#aeb3bd"/>
  </linearGradient>
  <path style="fill:url(#gradient7)"
        d="M10 14C10 14 13 15 16 15C19 15 22 14 22 14L18 22V30C18 30 18 32 16 32C14 32 14 30 14 30V22L10 14z"
        transform="matrix(1,0,0,1,2,2)"
  />
  <path style="fill:none; stroke:#010101; stroke-width:4"
        d="M8 30C14 26 22 38 16 42C10 46 2 34 8 30z"
        transform="matrix(1,0,0,1,2,2)"
  />
  <linearGradient id="gradient8" gradientUnits="userSpaceOnUse" x1="51.19" y1="-3.34" x2="58.49" y2="5.49">
   <stop offset="0" stop-color="#ececec"/>
   <stop offset="0.5215" stop-color="#768397"/>
   <stop offset="1" stop-color="#aeb3bd"/>
  </linearGradient>
  <path style="fill:url(#gradient8)"
        d="M8 30C14 26 22 38 16 42C10 46 2 34 8 30z"
        transform="matrix(1,0,0,1,2,2)"
  />
  <path style="fill:#010101"
        d="M14 40C10 42 6 34 10 32C14 29.99 18 38 14 40z"
        transform="matrix(1,0,0,1,2,2)"
  />
  <linearGradient id="gradient9" gradientUnits="userSpaceOnUse" x1="126.33" y1="70.47" x2="120.78" y2="89.46">
   <stop offset="0.648" stop-color="#010000"/>
   <stop offset="0.9024" stop-color="#010000" stop-opacity="0"/>
  </linearGradient>
  <path style="fill:none; stroke:url(#gradient9); stroke-width:4"
        d="M14 58C14 58 12 50 12 44C12 42 14 38 12 36C10 34 8 36 6 38C2 42 2 58 2 58"
        transform="matrix(1,0,0,1,2,2)"
  />
  <linearGradient id="gradient10" gradientUnits="userSpaceOnUse" x1="126.81" y1="70.74" x2="121.14" y2="89.7">
   <stop offset="0" stop-color="#ffc7c7"/>
   <stop offset="0.7098" stop-color="#de6666"/>
   <stop offset="1" stop-color="#bd232d" stop-opacity="0"/>
  </linearGradient>
  <path style="fill:url(#gradient10)"
        d="M14 58C14 58 12 50 12 44C12 42 14 38 12 36C10 34 8 36 6 38C2 42 2 58 2 58"
        transform="matrix(1,0,0,1,2,2)"
  />
 </g>
</svg>
