<?xml version="1.0" encoding="UTF-8" standalone="yes"?>
<svg version="1.1" width="64" height="64" color-interpolation="linearRGB"
     xmlns:svg="http://www.w3.org/2000/svg" xmlns="http://www.w3.org/2000/svg">
 <g>
  <path style="fill:none; stroke:#000000; stroke-opacity:0.4; stroke-width:4; stroke-linecap:round; stroke-linejoin:round"
        d="M10 2H40V24H10V2z"
        transform="matrix(1,0,0,1,2,2)"
  />
  <path style="fill:none; stroke:#bf5000; stroke-width:4; stroke-linecap:round; stroke-linejoin:round"
        d="M10 2H40V24H10V2z"
  />
  <linearGradient id="gradient0" gradientUnits="userSpaceOnUse" x1="128" y1="1.99" x2="128" y2="24">
   <stop offset="0" stop-color="#ffff80"/>
   <stop offset="1" stop-color="#ffd400"/>
  </linearGradient>
  <path style="fill:url(#gradient0)"
        d="M10 2H40V24H10V2z"
  />
  <path style="fill:#bf5000"
        d="M40 2L25 12L10 2L25 15L40 2z
           M40 24L30 10L28 11L40 24z
           M22 11L20 10L10 24.1L22 11z"
  />
  <path style="fill:none; stroke:#000000; stroke-opacity:0.4; stroke-width:4; stroke-linecap:round; stroke-linejoin:round"
        d="M12 34V40L2 31L12 22V28C19.73 28 26 25.31 26 22V22C26 28.62 19.73 34 12 34z"
        transform="matrix(1,0,0,1,2,2)"
  />
  <path style="fill:none; stroke:#005900; stroke-width:4; stroke-linecap:round; stroke-linejoin:round"
        d="M12 34V40L2 31L12 22V28C19.73 28 26 25.31 26 22V22C26 28.62 19.73 34 12 34z"
  />
  <linearGradient id="gradient1" gradientUnits="userSpaceOnUse" x1="128" y1="22" x2="128" y2="40">
   <stop offset="0" stop-color="#80ff80"/>
   <stop offset="1" stop-color="#00b300"/>
  </linearGradient>
  <path style="fill:url(#gradient1)"
        d="M12 34V40L2 31L12 22V28C19.73 28 26 25.31 26 22V22C26 28.62 19.73 34 12 34z"
  />
 </g>
</svg>
