<?xml version="1.0" encoding="UTF-8" standalone="yes"?>
<svg version="1.1" width="64" height="64" color-interpolation="linearRGB"
     xmlns:svg="http://www.w3.org/2000/svg" xmlns="http://www.w3.org/2000/svg">
 <g>
  <radialGradient id="gradient0" gradientUnits="userSpaceOnUse" cx="0" cy="0" r="64" gradientTransform="matrix(0.375,0,0,0.375,32,32)">
   <stop offset="1" stop-color="#3a3b40" stop-opacity="0"/>
   <stop offset="0" stop-color="#3a3c40"/>
  </radialGradient>
  <path style="fill:url(#gradient0)"
        d="M32 8C18.74 8 8 18.74 8 32C8 45.25 18.74 56 32 56C45.25 56 56 45.25 56 32C56 18.74 45.25 8 32 8z"
        transform="matrix(1.3333,0,0,0.3333,-10.6666,45.3333)"
  />
  <radialGradient id="gradient1" gradientUnits="userSpaceOnUse" cx="0" cy="0" r="64" gradientTransform="matrix(0.625,0,0,0.625,20,20)">
   <stop offset="0" stop-color="#807040"/>
   <stop offset="1" stop-color="#403820"/>
  </radialGradient>
  <path style="fill:none; stroke:url(#gradient1); stroke-width:8"
        d="M32 8C18.74 8 8 18.74 8 32C8 45.25 18.74 56 32 56C45.25 56 56 45.25 56 32C56 18.74 45.25 8 32 8z"
  />
  <radialGradient id="gradient2" gradientUnits="userSpaceOnUse" cx="0" cy="0" r="64" gradientTransform="matrix(0.5,0,0,0.5,24,24)">
   <stop offset="0.3126" stop-color="#ffffcc"/>
   <stop offset="1" stop-color="#ffc105"/>
  </radialGradient>
  <path style="fill:url(#gradient2)"
        d="M32 8C18.74 8 8 18.74 8 32C8 45.25 18.74 56 32 56C45.25 56 56 45.25 56 32C56 18.74 45.25 8 32 8z"
  />
  <path style="fill:#010101"
        d="M32 20V24H30C28 24 26 28 24 28H14C12 28 8 26 8 24C8 22 10 16 12 16C12 16 24 16 26 16C28 16 32 20 32 20z"
  />
  <path style="fill:#010101"
        d="M32 20V24H30C28 24 26 28 24 28H14C12 28 8 26 8 24C8 22 10 16 12 16C12 16 24 16 26 16C28 16 32 20 32 20z"
        transform="matrix(-0.9999,0,0,1,63.9999,0)"
  />
  <linearGradient id="gradient3" gradientUnits="userSpaceOnUse" x1="12" y1="8" x2="28" y2="8">
   <stop offset="0" stop-color="#010101"/>
   <stop offset="0.4813" stop-color="#c3c3c3"/>
   <stop offset="1" stop-color="#010101"/>
  </linearGradient>
  <path style="fill:url(#gradient3)"
        d="M32 20V24H30C28 24 26 28 24 28H14C12 28 8 26 8 24C8 22 10 16 12 16C12 16 24 16 26 16C28 16 32 20 32 20z"
  />
  <linearGradient id="gradient4" gradientUnits="userSpaceOnUse" x1="12" y1="8" x2="28" y2="8">
   <stop offset="0" stop-color="#010101"/>
   <stop offset="0.4813" stop-color="#c3c3c3"/>
   <stop offset="1" stop-color="#010101"/>
  </linearGradient>
  <path style="fill:url(#gradient4)"
        d="M32 20V24H30C28 24 26 28 24 28H14C12 28 8 26 8 24C8 22 10 16 12 16C12 16 24 16 26 16C28 16 32 20 32 20z"
        transform="matrix(-0.9999,0,0,1,63.9999,0)"
  />
  <radialGradient id="gradient5" gradientUnits="userSpaceOnUse" cx="0" cy="0" r="64" gradientTransform="matrix(0.625,0,0,0.625,20,20)">
   <stop offset="0" stop-color="#807040"/>
   <stop offset="1" stop-color="#403820"/>
  </radialGradient>
  <path style="fill:none; stroke:url(#gradient5); stroke-width:6; stroke-linecap:round; stroke-linejoin:round"
        d="M14 34C14 40.62 20 52 32 52C44 52 50 40.62 50 34C50 34 41.03 36 32 36C23.03 36 14 34 14 34z"
        transform="matrix(1,0,0,0.9164,0,2.5968)"
  />
  <linearGradient id="gradient6" gradientUnits="userSpaceOnUse" x1="14" y1="-64" x2="50" y2="-64">
   <stop offset="0" stop-color="#b9d5dd"/>
   <stop offset="0.4985" stop-color="#ffffff"/>
   <stop offset="1" stop-color="#b9d5dd"/>
  </linearGradient>
  <path style="fill:url(#gradient6)"
        d="M14 34C14 40.62 20 52 32 52C44 52 50 40.62 50 34C50 34 41.03 36 32 36C23.03 36 14 34 14 34z"
  />
 </g>
</svg>
