<?xml version="1.0" encoding="UTF-8" standalone="yes"?>
<svg version="1.1" width="64" height="64" color-interpolation="linearRGB"
     xmlns:svg="http://www.w3.org/2000/svg" xmlns="http://www.w3.org/2000/svg">
 <g>
  <path style="fill:#010101; fill-opacity:0.4588"
        d="M28 62H33C38 62 46 56 46 56H50L64 40L52 34H2V48C2 48 4 52 6 53C8 54 24 62 28 62z"
  />
  <path style="fill:none; stroke:#010101; stroke-width:4"
        d="M50 8V34L34 46L12 36V10L28 2L50 8z"
  />
  <linearGradient id="gradient0" gradientUnits="userSpaceOnUse" x1="59.37" y1="-68.85" x2="76.71" y2="-63.86">
   <stop offset="0" stop-color="#3e5e74"/>
   <stop offset="1" stop-color="#5a778b"/>
  </linearGradient>
  <path style="fill:url(#gradient0)"
        d="M50 8V34L34 46L12 36V10L28 2L50 8z"
  />
  <linearGradient id="gradient1" gradientUnits="userSpaceOnUse" x1="10.66" y1="119.36" x2="-17.28" y2="109.91">
   <stop offset="0" stop-color="#507894"/>
   <stop offset="1" stop-color="#a7b7c2"/>
  </linearGradient>
  <path style="fill:url(#gradient1)"
        d="M12 10L34 18V46L12 36V10z"
  />
  <linearGradient id="gradient2" gradientUnits="userSpaceOnUse" x1="13" y1="-64" x2="40.99" y2="-64">
   <stop offset="0" stop-color="#ffffff"/>
   <stop offset="1" stop-color="#9fb9cb"/>
  </linearGradient>
  <path style="fill:url(#gradient2)"
        d="M12 10L28 2L50 8L34 18L12 10z"
  />
  <path style="fill:none; stroke:#010101; stroke-width:4"
        d="M2 44C2 45 2 47 6 49L21 57C23 58 25 59 27 57L32 52C33 51 34 49 34 45C34 38 33 32 33 32C33 32 33 30 30 28L15 22C13 21 10 22 9 23C2 29 2 35 2 40V44z"
  />
  <linearGradient id="gradient3" gradientUnits="userSpaceOnUse" x1="-7.17" y1="-60.5" x2="18.61" y2="-64.11">
   <stop offset="0" stop-color="#ffcece"/>
   <stop offset="0.996" stop-color="#ff3737"/>
  </linearGradient>
  <path style="fill:url(#gradient3)"
        d="M15 30C19 32 25 34 25 34L32.1 29.92C32.1 29.92 32 29 30 28L15 22C13 21 10 22 9 23C8 24 6.91 24.99 6.91 24.99C6.91 24.99 11 28 15 30z"
  />
  <linearGradient id="gradient4" gradientUnits="userSpaceOnUse" x1="34" y1="-64.8" x2="55.99" y2="-57.95">
   <stop offset="0" stop-color="#ff9797"/>
   <stop offset="0.4549" stop-color="#ff0606"/>
   <stop offset="1" stop-color="#ba0f0f"/>
  </linearGradient>
  <path style="fill:url(#gradient4)"
        d="M2 44C2 45 2 47 6 49C6 49 17.27 55.13 21 57C23 58 25 59 27 57V50L25 48V34C25 34 19 32 15 30C11 28 6.95 24.95 6.95 24.95C2 30 2 36 2 40V44z"
  />
  <linearGradient id="gradient5" gradientUnits="userSpaceOnUse" x1="38.78" y1="-66.01" x2="50.64" y2="-64.45">
   <stop offset="0" stop-color="#b10404"/>
   <stop offset="1" stop-color="#dc0505"/>
  </linearGradient>
  <path style="fill:url(#gradient5)"
        d="M27 57L32 52C33 51 34 49 34 45C34 38 33 32 33 32C33 32 33 31 32 30L25 34V48L27 50V57z"
  />
  <linearGradient id="gradient6" gradientUnits="userSpaceOnUse" x1="29.52" y1="12.5" x2="41.63" y2="32.37">
   <stop offset="0" stop-color="#7ce1ff"/>
   <stop offset="0.4588" stop-color="#e6f9ff"/>
   <stop offset="1" stop-color="#05a1cd"/>
  </linearGradient>
  <path style="fill:url(#gradient6)"
        d="M7 27C7 27 17 34 23 35L22 46C22 46 10 45 3 37C4 29 7 27 7 27z"
  />
  <linearGradient id="gradient7" gradientUnits="userSpaceOnUse" x1="29.52" y1="12.5" x2="41.63" y2="32.37">
   <stop offset="0" stop-color="#7ce1ff"/>
   <stop offset="0.4588" stop-color="#e6f9ff"/>
   <stop offset="1" stop-color="#05a1cd"/>
  </linearGradient>
  <path style="fill:url(#gradient7)"
        d="M26 36V45L32 40C32 40 32 36 31 33L26 36z"
  />
  <path style="fill:#010101"
        d=""
  />
  <radialGradient id="gradient8" gradientUnits="userSpaceOnUse" cx="0" cy="0" r="64" gradientTransform="matrix(0.0312,0,0,0.0624,17,51)">
   <stop offset="0.3882" stop-color="#ffffff"/>
   <stop offset="1" stop-color="#fffc06"/>
  </radialGradient>
  <path style="fill:url(#gradient8)"
        d="M17.61 47.87C18.88 47.87 19.87 49.27 19.87 51.05C19.87 52.84 18.88 54.24 17.61 54.24C16.36 54.24 15.37 52.84 15.37 51.05C15.37 49.27 16.36 47.87 17.61 47.87z"
  />
  <radialGradient id="gradient9" gradientUnits="userSpaceOnUse" cx="0" cy="0" r="64" gradientTransform="matrix(0.0312,0,0,0.0624,17,51)">
   <stop offset="0.3882" stop-color="#ffffff"/>
   <stop offset="1" stop-color="#fffc06"/>
  </radialGradient>
  <path style="fill:url(#gradient9)"
        d="M17.61 47.87C18.88 47.87 19.87 49.27 19.87 51.05C19.87 52.84 18.88 54.24 17.61 54.24C16.36 54.24 15.37 52.84 15.37 51.05C15.37 49.27 16.36 47.87 17.61 47.87z"
        transform="matrix(0.6863,0,0,0.8431,-7.7653,1.6653)"
  />
  <linearGradient id="gradient10" gradientUnits="userSpaceOnUse" x1="26.15" y1="53.02" x2="23.81" y2="57.89">
   <stop offset="0" stop-color="#e4e4e4"/>
   <stop offset="0.3176" stop-color="#7b7b7b"/>
   <stop offset="0.6509" stop-color="#d2d2d2"/>
   <stop offset="1" stop-color="#525252"/>
  </linearGradient>
  <path style="fill:url(#gradient10)"
        d="M7 49C7 49 7 44 11 46C15 48 14 53 14 53L7 49z"
  />
  <path style="fill:none; stroke:#010101; stroke-width:4"
        d="M45 23C45 22 45 20 44 20C42 20 40 22.82 40 27C40 28 40 30 42 30C43 30 45 27.12 45 23z"
        transform="matrix(1,0,0,1,5,16)"
  />
  <radialGradient id="gradient11" gradientUnits="userSpaceOnUse" cx="0" cy="0" r="64" gradientTransform="matrix(0.0781,0,0,0.1562,41,20)">
   <stop offset="0" stop-color="#ffffff"/>
   <stop offset="1" stop-color="#7e9aad"/>
  </radialGradient>
  <path style="fill:url(#gradient11)"
        d="M45 23C45 22 45 20 44 20C42 20 40 22.82 40 27C40 28 40 30 42 30C43 30 45 27.12 45 23z"
        transform="matrix(0.7999,0,0,0.6999,14,24)"
  />
  <path style="fill:none; stroke:#010101; stroke-width:4"
        d="M45 23C45 22 45 20 44 20C42 20 40 22.82 40 27C40 28 40 30 42 30C43 30 45 27.12 45 23z"
        transform="matrix(1,0,0,1,-10,30)"
  />
  <radialGradient id="gradient12" gradientUnits="userSpaceOnUse" cx="0" cy="0" r="64" gradientTransform="matrix(0.0781,0,0,0.1562,41,20)">
   <stop offset="0" stop-color="#ffffff"/>
   <stop offset="1" stop-color="#7e9aad"/>
  </radialGradient>
  <path style="fill:url(#gradient12)"
        d="M45 23C45 22 45 20 44 20C42 20 40 22.82 40 27C40 28 40 30 42 30C43 30 45 27.12 45 23z"
        transform="matrix(0.7999,0,0,0.6999,-1,38)"
  />
 </g>
</svg>
