<?xml version="1.0" encoding="UTF-8" standalone="yes"?>
<svg version="1.1" width="64" height="64" color-interpolation="linearRGB"
     xmlns:svg="http://www.w3.org/2000/svg" xmlns="http://www.w3.org/2000/svg">
 <g>
  <path style="fill:none; stroke:#000000; stroke-opacity:0.4; stroke-width:2; stroke-linecap:round; stroke-linejoin:round"
        d="M1 1V41
           M11 33V1H7V33H11z
           M19 33V1H17V33H19z
           M41 1V41
           M25 1V33
           M35 33V1H33V33H35z
           M9 39L7 41H9
           M17 41L15 39V41
           M23 39L25 41V39
           M31 39H33L31 41"
        transform="matrix(1,0,0,1,2,2)"
  />
  <path style="fill:none; stroke:#000000; stroke-width:2; stroke-linecap:round; stroke-linejoin:round"
        d="M1 1V41
           M11 33V1H7V33H11z
           M19 33V1H17V33H19z
           M41 1V41
           M25 1V33
           M35 33V1H33V33H35z
           M9 39L7 41H9
           M17 41L15 39V41
           M23 39L25 41V39
           M31 39H33L31 41"
  />
  <linearGradient id="gradient0" gradientUnits="userSpaceOnUse" x1="128" y1="1.99" x2="128" y2="40">
   <stop offset="0" stop-color="#808080"/>
   <stop offset="1" stop-color="#282828"/>
  </linearGradient>
  <path style="fill:url(#gradient0)"
        d="M11 33V1H7V33H11z"
  />
  <linearGradient id="gradient1" gradientUnits="userSpaceOnUse" x1="0" y1="-64" x2="44" y2="-64">
   <stop offset="0" stop-color="#ff0505" stop-opacity="0.1529"/>
   <stop offset="0.4752" stop-color="#ff0606" stop-opacity="0.5098"/>
   <stop offset="1" stop-color="#ff0404" stop-opacity="0.1529"/>
  </linearGradient>
  <path style="fill:none; stroke:url(#gradient1); stroke-width:2; stroke-linecap:round; stroke-linejoin:round"
        d="M1 23L43 19"
  />
 </g>
</svg>
