<?xml version="1.0" encoding="UTF-8" standalone="yes"?>
<svg version="1.1" width="64" height="64" color-interpolation="linearRGB"
     xmlns:svg="http://www.w3.org/2000/svg" xmlns="http://www.w3.org/2000/svg">
 <g>
  <path style="fill:#010000; fill-opacity:0.4823"
        d="M36 62H40L62 40L58 38H36V62z
           M46 60C56.65 67.1 68.12 51.78 58 46C44 38 34 52 46 60z"
  />
  <path style="fill:none; stroke:#010000; stroke-width:4"
        d="M4 40V44L36 60L56 40V36L24 22L4 40z"
  />
  <linearGradient id="gradient0" gradientUnits="userSpaceOnUse" x1="77.24" y1="43.19" x2="71.61" y2="64.48">
   <stop offset="0" stop-color="#999999"/>
   <stop offset="0.9962" stop-color="#6c6c6c"/>
  </linearGradient>
  <path style="fill:url(#gradient0)"
        d="M36 54V60L56 40V36L36 54z"
  />
  <linearGradient id="gradient1" gradientUnits="userSpaceOnUse" x1="27.05" y1="19.51" x2="46.62" y2="38.62">
   <stop offset="0" stop-color="#cccccc"/>
   <stop offset="1" stop-color="#a5a5a5"/>
  </linearGradient>
  <path style="fill:url(#gradient1)"
        d="M36 54V60L4 44V40L36 54z"
  />
  <linearGradient id="gradient2" gradientUnits="userSpaceOnUse" x1="56.76" y1="7.26" x2="67.08" y2="28.93">
   <stop offset="0" stop-color="#e5e5e5"/>
   <stop offset="1" stop-color="#cbcbcb"/>
  </linearGradient>
  <path style="fill:url(#gradient2)"
        d="M4 40L36 54L56 36L24 22L4 40z"
  />
  <path style="fill:none; stroke:#010000; stroke-width:4"
        d="M30 4C35.59 4 40 8.39 40 14C40 19.59 35.59 24 30 24C24.39 24 20 19.59 20 14C20 8.39 24.39 4 30 4z"
        transform="matrix(1.2,0,0,0.8999,-6,24.4)"
  />
  <radialGradient id="gradient3" gradientUnits="userSpaceOnUse" cx="0" cy="0" r="64" gradientTransform="matrix(0.2188,-0.1207,0.1207,0.2188,23.1307,9.8599)">
   <stop offset="0" stop-color="#e4e4e4"/>
   <stop offset="1" stop-color="#212121"/>
  </radialGradient>
  <path style="fill:url(#gradient3)"
        d="M30 4C35.59 4 40 8.39 40 14C40 19.59 35.59 24 30 24C24.39 24 20 19.59 20 14C20 8.39 24.39 4 30 4z"
        transform="matrix(1.2,0,0,0.8999,-6,24.3999)"
  />
  <linearGradient id="gradient4" gradientUnits="userSpaceOnUse" x1="19.89" y1="2.11" x2="39.9" y2="1.94">
   <stop offset="0.0075" stop-color="#bebebe"/>
   <stop offset="1" stop-color="#0b0b0b"/>
  </linearGradient>
  <path style="fill:none; stroke:url(#gradient4); stroke-width:4"
        d="M30 4C35.59 4 40 8.39 40 14C40 19.59 35.59 24 30 24C24.39 24 20 19.59 20 14C20 8.39 24.39 4 30 4z"
        transform="matrix(0.8999,0,0,0.6083,3,26.4833)"
  />
  <linearGradient id="gradient5" gradientUnits="userSpaceOnUse" x1="34.5" y1="20.89" x2="41.58" y2="24.61">
   <stop offset="0.0037" stop-color="#010000"/>
   <stop offset="0.4659" stop-color="#6c6c6c"/>
   <stop offset="0.9962" stop-color="#010101"/>
  </linearGradient>
  <path style="fill:url(#gradient5)"
        d="M30 4C35.59 4 40 8.39 40 14C40 19.59 35.59 24 30 24C24.39 24 20 19.59 20 14C20 8.39 24.39 4 30 4z"
        transform="matrix(0.8999,0,0,0.6499,3,25.3999)"
  />
  <path style="fill:#010000"
        d="M30 4C35.59 4 40 8.39 40 14C40 19.59 35.59 24 30 24C24.39 24 20 19.59 20 14C20 8.39 24.39 4 30 4z"
        transform="matrix(0.4,0,0,0.3,18,32.7999)"
  />
  <radialGradient id="gradient6" gradientUnits="userSpaceOnUse" cx="0" cy="0" r="64" gradientTransform="matrix(0.0625,0,0,0.2343,28,23.5)">
   <stop offset="0" stop-color="#ffffff"/>
   <stop offset="0.7878" stop-color="#868686"/>
   <stop offset="1" stop-color="#414141"/>
  </radialGradient>
  <path style="fill:url(#gradient6)"
        d="M30 39C30.73 39 31.4 38.84 32 38.58V21H28V38.58C28.59 38.84 29.26 39 30 39z"
  />
  <path style="fill:none; stroke:#010000; stroke-width:4"
        d="M30 4C35.59 4 40 8.39 40 14C40 19.59 35.59 24 30 24C24.39 24 20 19.59 20 14C20 8.39 24.39 4 30 4z"
  />
  <radialGradient id="gradient7" gradientUnits="userSpaceOnUse" cx="0" cy="0" r="64" gradientTransform="matrix(0.2069,0,0,0.2069,26.9995,9.9995)">
   <stop offset="0" stop-color="#ffffff"/>
   <stop offset="0.5" stop-color="#ff3300"/>
   <stop offset="1" stop-color="#cc0000"/>
  </radialGradient>
  <path style="fill:url(#gradient7)"
        d="M30 4C35.59 4 40 8.39 40 14C40 19.59 35.59 24 30 24C24.39 24 20 19.59 20 14C20 8.39 24.39 4 30 4z"
  />
  <path style="fill:none; stroke:#010000; stroke-width:4"
        d="M52 36C52 37 52 38 49 38C46 38 46 37 46 36C46 35 46 33 49 33C52 33 52 35 52 36z"
  />
  <linearGradient id="gradient8" gradientUnits="userSpaceOnUse" x1="46" y1="32" x2="54" y2="32">
   <stop offset="0" stop-color="#ff5959"/>
   <stop offset="0.6022" stop-color="#b30404"/>
   <stop offset="1" stop-color="#ff0606"/>
  </linearGradient>
  <path style="fill:url(#gradient8)"
        d="M52 36C52 37 52 38 49 38C46 38 46 37 46 36C46 35 46 33 49 33C52 33 52 35 52 36z"
  />
  <radialGradient id="gradient9" gradientUnits="userSpaceOnUse" cx="0" cy="0" r="64" gradientTransform="matrix(0.2187,0,0,0.2187,26,10)">
   <stop offset="0" stop-color="#ffd5d5"/>
   <stop offset="0.4393" stop-color="#fbaaaa"/>
   <stop offset="1" stop-color="#ee0606"/>
  </radialGradient>
  <path style="fill:url(#gradient9)"
        d="M30 4C35.59 4 40 8.39 40 14C40 19.59 35.59 24 30 24C24.39 24 20 19.59 20 14C20 8.39 24.39 4 30 4z"
        transform="matrix(0.3,0,0,0.2,40,31.2)"
  />
 </g>
</svg>
