<?xml version="1.0" encoding="UTF-8" standalone="yes"?>
<svg version="1.1" width="64" height="64" color-interpolation="linearRGB"
     xmlns:svg="http://www.w3.org/2000/svg" xmlns="http://www.w3.org/2000/svg">
 <g>
  <path style="fill:none; stroke:#000000; stroke-opacity:0.4; stroke-width:4; stroke-linecap:round; stroke-linejoin:round"
        d="M10 12V8H20V12H10z
           M34 34H10V12H34V34z"
        transform="matrix(1,0,0,1,2,2)"
  />
  <path style="fill:none; stroke:#545454; stroke-width:4; stroke-linecap:round; stroke-linejoin:round"
        d="M34 34H10V12H34V34z"
  />
  <path style="fill:none; stroke:#bf5000; stroke-width:4; stroke-linecap:round; stroke-linejoin:round"
        d="M10 12V8H20V12H10z"
  />
  <path style="fill:#ffd400"
        d="M10 12V8H20V12H10z"
  />
  <linearGradient id="gradient0" gradientUnits="userSpaceOnUse" x1="10" y1="12" x2="34" y2="12">
   <stop offset="0.6743" stop-color="#ffffff"/>
   <stop offset="1" stop-color="#e6e1dc"/>
  </linearGradient>
  <path style="fill:url(#gradient0)"
        d="M34 34H10V12H34V34z"
  />
  <path style="fill:none; stroke:#002a80; stroke-width:4; stroke-linecap:round; stroke-linejoin:round"
        d="M2 2H12L2 12V2z"
        transform="matrix(-1,0,-0,-1,44,44)"
  />
  <path style="fill:none; stroke:#002a80; stroke-width:4; stroke-linecap:round; stroke-linejoin:round"
        d="M2 2H12L2 12V2z"
        transform="matrix(0,1,-1,0,44,0.0534)"
  />
  <path style="fill:none; stroke:#002a80; stroke-width:4; stroke-linecap:round; stroke-linejoin:round"
        d="M2 2H12L2 12V2z"
        transform="matrix(1,0,0,1,0.0534,0.0534)"
  />
  <path style="fill:none; stroke:#002a80; stroke-width:4; stroke-linecap:round; stroke-linejoin:round"
        d="M2 2H12L2 12V2z"
        transform="matrix(0,-1,1,0,0.0534,43.9999)"
  />
  <linearGradient id="gradient1" gradientUnits="userSpaceOnUse" x1="14" y1="14" x2="2" y2="14">
   <stop offset="1" stop-color="#80aaff"/>
   <stop offset="0" stop-color="#0047d9"/>
  </linearGradient>
  <path style="fill:url(#gradient1)"
        d="M2 2H12L2 12V2z"
        transform="matrix(0,-1,1,0,0,44)"
  />
  <linearGradient id="gradient2" gradientUnits="userSpaceOnUse" x1="14" y1="14" x2="2" y2="14">
   <stop offset="1" stop-color="#80aaff"/>
   <stop offset="0" stop-color="#0047d9"/>
  </linearGradient>
  <path style="fill:url(#gradient2)"
        d="M2 2H12L2 12V2z"
  />
  <linearGradient id="gradient3" gradientUnits="userSpaceOnUse" x1="14" y1="14" x2="2" y2="14">
   <stop offset="1" stop-color="#80aaff"/>
   <stop offset="0" stop-color="#0047d9"/>
  </linearGradient>
  <path style="fill:url(#gradient3)"
        d="M2 2H12L2 12V2z"
        transform="matrix(0,1,-1,0,44,0)"
  />
  <linearGradient id="gradient4" gradientUnits="userSpaceOnUse" x1="14" y1="14" x2="2" y2="14">
   <stop offset="1" stop-color="#80aaff"/>
   <stop offset="0" stop-color="#0047d9"/>
  </linearGradient>
  <path style="fill:url(#gradient4)"
        d="M2 2H12L2 12V2z"
        transform="matrix(-1,0,-0,-1,44,44)"
  />
 </g>
</svg>
