<?xml version="1.0" encoding="UTF-8" standalone="yes"?>
<svg version="1.1" width="64" height="64" color-interpolation="linearRGB"
     xmlns:svg="http://www.w3.org/2000/svg" xmlns="http://www.w3.org/2000/svg">
 <g>
  <path style="fill:#010101; fill-opacity:0.4941"
        d="M32 10C48 12 60 20 60 32C60 44 48 52 32 54C52 54 64 44 64 32C64 20 52 10 32 10z"
        transform="matrix(1,0,0,1,0,10)"
  />
  <path style="fill:none; stroke:#000000; stroke-width:4"
        d="M31 12C16 12 2 20 2 32C2 44 16 52 31 52C46 52 60 44 60 32C60 20 46 12 31 12z
           M31 26C27 26 25 28 25 30C25 32 27 34 31 34C35 34 37 32 37 30C37 28 35 26 31 26z"
        transform="matrix(1,0,0,1,0,10)"
  />
  <linearGradient id="gradient0" gradientUnits="userSpaceOnUse" x1="4.64" y1="67.69" x2="-3.64" y2="3.2">
   <stop offset="0" stop-color="#f1f1f1"/>
   <stop offset="0.2121" stop-color="#d9ddf4"/>
   <stop offset="0.5416" stop-color="#9996b9"/>
   <stop offset="0.7083" stop-color="#b8bedb"/>
   <stop offset="1" stop-color="#f4f4f4"/>
  </linearGradient>
  <path style="fill:url(#gradient0)"
        d="M31 12C16 12 2 20 2 32C2 44 16 52 31 52C46 52 60 44 60 32C60 20 46 12 31 12z
           M43 30C43 34 39 38 31 38C23 38 19 34 19 30C19 26 23 22.5 31 22.5C39 22.5 43 26 43 30z"
        transform="matrix(1,0,0,1,0,10)"
  />
  <path style="fill:#ebebeb; fill-opacity:0.8156"
        d="M43 30C43 34 39 38 31 38C23 38 19 34 19 30C19 26 23 22.5 31 22.5C39 22.5 43 26 43 30z
           M31 26C27 26 25 28 25 30C25 32 27 34 31 34C35 34 37 32 37 30C37 28 35 26 31 26z"
        transform="matrix(1,0,0,1,0,10)"
  />
  <linearGradient id="gradient1" gradientUnits="userSpaceOnUse" x1="6.84" y1="-3.55" x2="48.02" y2="6.68">
   <stop offset="0" stop-color="#4137a9"/>
   <stop offset="1" stop-color="#b9b9b9"/>
  </linearGradient>
  <path style="fill:none; stroke:url(#gradient1); stroke-width:2"
        d="M43 30C43 34 39 38 31 38C23 38 19 34 19 30C19 26 23 22.5 31 22.5C39 22.5 43 26 43 30z"
        transform="matrix(1,0,0,1,0,10)"
  />
  <path style="fill:#010101; fill-opacity:0.3843"
        d="M6 64H10L19 56L24 59C24 59 32 63 36 62C40 61 43 57 43 57C43 57 44 60 48 60C59.02 60 60 52 56 48C59 47 62 42 60 40C54 44 56 37 56 37C59 38 60 36 60 33C60 30 56 30 53 30C50 30 38 18 38 18L6 58"
  />
  <path style="fill:none; stroke:#000000; stroke-width:4"
        d="M33 5C34 4 38 3 40 5C42 7 41 11 39 13"
        transform="matrix(1,0,0,1,13,-2)"
  />
  <radialGradient id="gradient2" gradientUnits="userSpaceOnUse" cx="0" cy="0" r="64" gradientTransform="matrix(0.3672,0.1726,-0.3244,0.6901,33.1752,11.5359)">
   <stop offset="0" stop-color="#e8e1dc"/>
   <stop offset="1" stop-color="#c1b9b2"/>
   <stop offset="0.4694" stop-color="#9a9189"/>
  </radialGradient>
  <path style="fill:url(#gradient2)"
        d="M33 5C34 4 38 3 40 5C42 7 41 11 39 13"
        transform="matrix(1,0,0,1,13,-2)"
  />
  <path style="fill:none; stroke:#000000; stroke-width:4; stroke-linecap:round; stroke-linejoin:round"
        d="M10 5C12 12 16 12.35 16 17L10 21V5z"
  />
  <radialGradient id="gradient3" gradientUnits="userSpaceOnUse" cx="0" cy="0" r="64" gradientTransform="matrix(0.3672,0.1726,-0.3244,0.6901,33.1752,11.5359)">
   <stop offset="0" stop-color="#e8e1dc"/>
   <stop offset="1" stop-color="#c1b9b2"/>
   <stop offset="0.4694" stop-color="#9a9189"/>
  </radialGradient>
  <path style="fill:url(#gradient3)"
        d="M10 5C12 12 16 12.35 16 17L10 21V5z"
  />
  <path style="fill:#e8e1dc"
        d="M10 21C10 15 13 14 10 5V21z"
  />
  <path style="fill:none; stroke:#000000; stroke-width:4"
        d="M18 46C18 46 13 56 6 62C6 62 1 60 2 58C3 56 8 54 8 54C8 54 11 46 10 39L18 46z"
  />
  <radialGradient id="gradient4" gradientUnits="userSpaceOnUse" cx="0" cy="0" r="64" gradientTransform="matrix(0.0497,0.0213,-0.0891,0.2079,11.368,43.3565)">
   <stop offset="0" stop-color="#e8e1dc"/>
   <stop offset="1" stop-color="#bdb7b3"/>
  </radialGradient>
  <path style="fill:url(#gradient4)"
        d="M18 46C18 46 13 56 6 62C6 62 1 60 2 58C3 56 8 54 8 54C8 54 11 46 10 39L18 46z"
  />
  <path style="fill:none; stroke:#000000; stroke-width:4"
        d="M10 37C10 37 9 41 13 45C17 49 24 48 24 48C24 48 26 57 28 59C30 61 33 57 33 57L30 55L31 44C31 44 42 38 45 25C46 21 45 17 45 17C45 17 46 24 49 25C52 26 53 24 56 20C56 27 58 29 58 29C58 29 62 29 62 25C62 21.41 59 14 59 14L57 13L54 15C54 15 54 10 51 7C48 4 46 2 41 2C36 2 33 5 27 14C21 23 10 37 10 37z"
  />
  <radialGradient id="gradient5" gradientUnits="userSpaceOnUse" cx="0" cy="0" r="64" gradientTransform="matrix(0.3672,0.1726,-0.3244,0.6901,33.1752,11.5359)">
   <stop offset="0" stop-color="#e8e1dc"/>
   <stop offset="1" stop-color="#c1b9b2"/>
   <stop offset="0.4694" stop-color="#9a9189"/>
  </radialGradient>
  <path style="fill:url(#gradient5)"
        d="M10 37C10 37 9 41 13 45C17 49 24 48 24 48C24 48 26 57 28 59C30 61 33 57 33 57L30 55L31 44C31 44 42 38 45 25C46 21 45 17 45 17C45 17 46 24 49 25C52 26 53 24 56 20C56 27 58 29 58 29C58 29 62 29 62 25C62 21.41 59 14 59 14L57 13L54 15C54 15 54 10 51 7C48 4 46 2 41 2C36 2 33 5 27 14C21 23 10 37 10 37z"
  />
  <path style="fill:none; stroke:#000000; stroke-width:4"
        d="M34 6C32 9 25 15 22 17C20 16 16 17 14 18C11 20 8 25 8 25V29C5 35 6 39 10 40C15 41 17 41 22 36C26 32 28 28 27 24C35 18 36 10 34 6z"
  />
  <radialGradient id="gradient6" gradientUnits="userSpaceOnUse" cx="0" cy="0" r="64" gradientTransform="matrix(0.1119,0.089,-0.1445,0.1816,15.275,21.175)">
   <stop offset="0" stop-color="#e8e1dc"/>
   <stop offset="1" stop-color="#bdb7b3"/>
  </radialGradient>
  <path style="fill:url(#gradient6)"
        d="M34 6C32 9 25 15 22 17C20 16 16 17 14 18C11 20 8 25 8 25V29C5 35 6 39 10 40C15 41 17 41 22 36C26 32 28 28 27 24C35 18 36 10 34 6z"
  />
  <path style="fill:#8c8885"
        d="M33 9C33 9 26 16 28 20C28 20 28 21 25 23C26 24 28 22 30 20C32 18 34 14 33 9z"
  />
  <path style="fill:#8c8885"
        d="M13 32C16 34 18 32 19 29C17 28 14 29 13 32z"
  />
  <path style="fill:none; stroke:#ffffff; stroke-width:1"
        d="M13 32C16 34 18 32 19 29C17 28 14 29 13 32z"
  />
  <path style="fill:#e8e1dc"
        d="M9 37C9 37 17 43 17 38C17 32 10 33 9 37z
           M6 34C6 37 7 38 7 38C8 38 8.39 37.19 8.39 37.19C8.39 37.19 7 36 6 34z"
  />
  <path style="fill:#8c8885"
        d="M9 37C9 37 11 35 12 35L9 33L6 34C7 35 8 37 8 37H9z"
  />
  <radialGradient id="gradient7" gradientUnits="userSpaceOnUse" cx="0" cy="0" r="64" gradientTransform="matrix(0.0497,0.0213,-0.0891,0.2079,11.368,43.3565)">
   <stop offset="0" stop-color="#e8e1dc"/>
   <stop offset="1" stop-color="#bdb7b3"/>
  </radialGradient>
  <path style="fill:url(#gradient7)"
        d="M11 32C11 32 13 29 17 27C21 25 21 21 21 18C20 21 18 25 15 26C12 27 11 29 11 29C11 29 10 27 13 23C6 27 11 32 11 32z"
  />
 </g>
</svg>
