<?xml version="1.0" encoding="UTF-8" standalone="yes"?>
<svg version="1.1" width="64" height="64" color-interpolation="linearRGB"
     xmlns:svg="http://www.w3.org/2000/svg" xmlns="http://www.w3.org/2000/svg">
 <g>
  <path style="fill:none; stroke:#000000; stroke-opacity:0.4; stroke-width:2"
        d="M42 13H36V13C33.23 13 31 15.23 31 18V20C31 22.76 33.23 25 36 25V25H42
           M13 13V25H8C5.23 25 3 22.76 3 20V18C3 15.23 5.23 13 8 13H13z
           M17 0V25H22C24.76 25 27 22.76 27 20V18C27 15.23 24.76 13 22 13H17"
        transform="matrix(1,0,0,1,2,2)"
  />
  <path style="fill:none; stroke:#000000; stroke-width:2"
        d="M42 13H36V13C33.23 13 31 15.23 31 18V20C31 22.76 33.23 25 36 25V25H42
           M13 13V25H8C5.23 25 3 22.76 3 20V18C3 15.23 5.23 13 8 13H13z
           M17 0V25H22C24.76 25 27 22.76 27 20V18C27 15.23 24.76 13 22 13H17"
  />
  <path style="fill:none; stroke:#000000; stroke-opacity:0.4; stroke-width:4; stroke-linejoin:round"
        d="M12 32H28L20 40L12 32z"
        transform="matrix(1,0,0,1,2,2)"
  />
  <path style="fill:none; stroke:#005900; stroke-width:4; stroke-linejoin:round"
        d="M12 32H28L20 40L12 32z"
  />
  <linearGradient id="gradient0" gradientUnits="userSpaceOnUse" x1="128" y1="32" x2="128" y2="40">
   <stop offset="0" stop-color="#80ff80"/>
   <stop offset="1" stop-color="#00b200"/>
  </linearGradient>
  <path style="fill:url(#gradient0)"
        d="M12 32H28L20 40L12 32z"
  />
 </g>
</svg>
