<?xml version="1.0" encoding="UTF-8" standalone="yes"?>
<svg version="1.1" width="64" height="64" color-interpolation="linearRGB"
     xmlns:svg="http://www.w3.org/2000/svg" xmlns="http://www.w3.org/2000/svg">
 <g>
  <path style="fill:none; stroke:#000000; stroke-opacity:0.4; stroke-width:4; stroke-linecap:round; stroke-linejoin:round"
        d="M22 36C15.37 36 10 31.52 10 26C10 21.58 13.58 18 18 18V26L34 14L18 1.99V10C10.26 10 4 16.26 4 24C4 32.83 11.16 40 20 40C29.94 40 38 31.94 38 22C38 29.73 30.83 36 22 36z"
        transform="matrix(1,0,0,1,2,2)"
  />
  <path style="fill:none; stroke:#004080; stroke-width:4; stroke-linecap:round; stroke-linejoin:round"
        d="M22 36C15.37 36 10 31.52 10 26C10 21.58 13.58 18 18 18V26L34 14L18 1.99V10C10.26 10 4 16.26 4 24C4 32.83 11.16 40 20 40C29.94 40 38 31.94 38 22C38 29.73 30.83 36 22 36z"
  />
  <linearGradient id="gradient0" gradientUnits="userSpaceOnUse" x1="128" y1="1.99" x2="128" y2="40">
   <stop offset="0" stop-color="#abd5ff"/>
   <stop offset="1" stop-color="#006cd9"/>
  </linearGradient>
  <path style="fill:url(#gradient0)"
        d="M22 36C15.37 36 10 31.52 10 26C10 21.58 13.58 18 18 18V26L34 14L18 1.99V10C10.26 10 4 16.26 4 24C4 32.83 11.16 40 20 40C29.94 40 38 31.94 38 22C38 29.73 30.83 36 22 36z"
  />
 </g>
</svg>
