<?xml version="1.0" encoding="UTF-8" standalone="yes"?>
<svg version="1.1" width="64" height="64" color-interpolation="linearRGB"
     xmlns:svg="http://www.w3.org/2000/svg" xmlns="http://www.w3.org/2000/svg">
 <g>
  <path style="fill:#000100; fill-opacity:0.4235"
        d="M58 30C58 32.03 54 34 54 34L46 38L34 32L58 26L62 30C60 32 58 30 58 30z"
  />
  <path style="fill:#000100; fill-opacity:0.4235"
        d="M40 58H46.13C50 58 56 56 52 52L48 48H30L40 58z"
  />
  <path style="fill:none; stroke:#010100; stroke-width:4"
        d="M3.64 39.95L39.31 57.74L46.41 40.12L10.69 24.28L3.64 39.95z
           M12 27.42C12 31.01 9.78 35.99 7.06 38.55C4.33 41.11 2.12 40.28 2.12 36.7C2.12 33.11 4.33 28.12 7.06 25.56C9.78 23 12 23.83 12 27.42z
           M48 43.78C48 47.81 45.76 53.42 43 56.3C40.23 59.19 38 58.25 38 54.22C38 50.18 40.23 44.58 43 41.69C45.76 38.8 48 39.74 48 43.78z"
  />
  <radialGradient id="gradient0" gradientUnits="userSpaceOnUse" cx="0" cy="0" r="64" gradientTransform="matrix(0.5421,0.1331,-0.0862,0.3514,13.6544,24.2145)">
   <stop offset="0" stop-color="#feffac"/>
   <stop offset="0.5139" stop-color="#ffc600"/>
   <stop offset="1" stop-color="#ff9600"/>
  </radialGradient>
  <path style="fill:url(#gradient0)"
        d="M3.64 39.95L39.31 57.74L46.41 40.12L10.69 24.28L3.64 39.95z"
  />
  <radialGradient id="gradient1" gradientUnits="userSpaceOnUse" cx="0" cy="0" r="64" gradientTransform="matrix(0.5421,0.1331,-0.0862,0.3514,13.6544,24.2145)">
   <stop offset="0" stop-color="#feffac"/>
   <stop offset="0.5139" stop-color="#ffc600"/>
   <stop offset="1" stop-color="#ff9600"/>
  </radialGradient>
  <path style="fill:url(#gradient1)"
        d="M12 27.42C12 31.01 9.78 35.99 7.06 38.55C4.33 41.11 2.12 40.28 2.12 36.7C2.12 33.11 4.33 28.12 7.06 25.56C9.78 23 12 23.83 12 27.42z"
  />
  <radialGradient id="gradient2" gradientUnits="userSpaceOnUse" cx="0" cy="0" r="64" gradientTransform="matrix(-0.0792,-0.0359,-0.086,0.1896,43.3973,52.9169)">
   <stop offset="0" stop-color="#9499b1"/>
   <stop offset="1" stop-color="#4a5069"/>
  </radialGradient>
  <path style="fill:url(#gradient2)"
        d="M48 43.78C48 47.81 45.76 53.42 43 56.3C40.23 59.19 38 58.25 38 54.22C38 50.18 40.23 44.58 43 41.69C45.76 38.8 48 39.74 48 43.78z"
  />
  <path style="fill:none; stroke:#010100; stroke-width:8; stroke-linecap:round; stroke-linejoin:round"
        d="M44 20L60 28"
  />
  <radialGradient id="gradient3" gradientUnits="userSpaceOnUse" cx="0" cy="0" r="64" gradientTransform="matrix(0.0921,0.067,-0.0508,0.0698,56.6766,23.6185)">
   <stop offset="0" stop-color="#ffe406"/>
   <stop offset="1" stop-color="#ff9e05"/>
  </radialGradient>
  <path style="fill:none; stroke:url(#gradient3); stroke-width:4; stroke-linecap:round; stroke-linejoin:round"
        d="M44 20L60 28"
  />
  <path style="fill:#000100; fill-opacity:0.4235"
        d="M20 34C30 38 38 36 38 36L24 30L20 34z"
  />
  <path style="fill:none; stroke:#010100; stroke-width:4"
        d="M20 14L50 16V32L20 34V14z
           M50 16C53.36 16 56 19.52 56 24C56 28.47 53.36 32 50 32C46.63 32 44 28.47 44 24C44 19.52 46.63 16 50 16z
           M20 14C24.47 14 28 18.39 28 24C28 29.6 24.47 34 20 34C15.52 34 12 29.6 12 24C12 18.39 15.52 14 20 14z"
  />
  <radialGradient id="gradient4" gradientUnits="userSpaceOnUse" cx="0" cy="0" r="64" gradientTransform="matrix(0.4687,0,0,0.2187,32,18)">
   <stop offset="0" stop-color="#ffffff"/>
   <stop offset="0.4627" stop-color="#7a81a7"/>
   <stop offset="0.796" stop-color="#424a75"/>
   <stop offset="1" stop-color="#4b5379"/>
  </radialGradient>
  <path style="fill:url(#gradient4)"
        d="M20 14L50 16V32L20 34V14z
           M50 16C53.36 16 56 19.52 56 24C56 28.47 53.36 32 50 32C46.63 32 44 28.47 44 24C44 19.52 46.63 16 50 16z"
  />
  <linearGradient id="gradient5" gradientUnits="userSpaceOnUse" x1="1.23" y1="20.38" x2="22.64" y2="9.55">
   <stop offset="0" stop-color="#ffffff"/>
   <stop offset="0.3921" stop-color="#7a81a7"/>
   <stop offset="1" stop-color="#ffffff"/>
  </linearGradient>
  <path style="fill:url(#gradient5)"
        d="M20 14C24.47 14 28 18.39 28 24C28 29.6 24.47 34 20 34C15.52 34 12 29.6 12 24C12 18.39 15.52 14 20 14z"
  />
  <path style="fill:#010100"
        d="M15.5 22C16.34 22 17 22.87 17 24C17 25.12 16.34 26 15.5 26C14.65 26 14 25.12 14 24C14 22.87 14.65 22 15.5 22z"
  />
 </g>
</svg>
