<?xml version="1.0" encoding="UTF-8" standalone="yes"?>
<svg version="1.1" width="64" height="64" color-interpolation="linearRGB"
     xmlns:svg="http://www.w3.org/2000/svg" xmlns="http://www.w3.org/2000/svg">
 <g>
  <path style="fill:none; stroke:#000000; stroke-opacity:0.4; stroke-width:4; stroke-linecap:round; stroke-linejoin:round"
        d="M18 2H20C20 2 20 18 21 18C22 18 22 2 22 2H24L36 24C32 24 28 40 28 40H14C14 40 10 24 6 24L18 2z
           M21 18C19.34 18 18 19.34 18 21C18 22.65 19.34 24 21 24C22.65 24 24 22.65 24 21C24 19.34 22.65 18 21 18z"
        transform="matrix(1,0,0,1,2,2)"
  />
  <path style="fill:none; stroke:#bf5000; stroke-width:4; stroke-linecap:round; stroke-linejoin:round"
        d="M18 2H20C20 2 20 18 21 18C22 18 22 2 22 2H24L36 24C32 24 28 40 28 40H14C14 40 10 24 6 24L18 2z
           M21 18C19.34 18 18 19.34 18 21C18 22.65 19.34 24 21 24C22.65 24 24 22.65 24 21C24 19.34 22.65 18 21 18z"
  />
  <linearGradient id="gradient0" gradientUnits="userSpaceOnUse" x1="128" y1="1.99" x2="128" y2="40">
   <stop offset="0" stop-color="#ffff80"/>
   <stop offset="1" stop-color="#ffd500"/>
  </linearGradient>
  <path style="fill:url(#gradient0)"
        d="M18 2H20C20 2 20 18 21 18C22 18 22 2 22 2H24L36 24C32 24 28 40 28 40H14C14 40 10 24 6 24L18 2z
           M21 18C19.34 18 18 19.34 18 21C18 22.65 19.34 24 21 24C22.65 24 24 22.65 24 21C24 19.34 22.65 18 21 18z"
  />
 </g>
</svg>
