<?xml version="1.0" encoding="UTF-8" standalone="yes"?>
<svg version="1.1" width="64" height="64" color-interpolation="linearRGB"
     xmlns:svg="http://www.w3.org/2000/svg" xmlns="http://www.w3.org/2000/svg">
 <g>
  <path style="fill:#010101; fill-opacity:0.4705"
        d="M38 37L21 49C21 54 24.9 58.02 31 60L33 64L38 61L42 64V60L47 64L48 59L54 62L53 57L59 58L56 53H63L58 49L63 44H57L59 38L54 40L52 35L49 40C46 38 42 37 38 37z"
  />
  <path style="fill:none; stroke:#010101; stroke-width:4"
        d="M20 42L24 52C27 56 33 56 36 52C36 52 39.77 43.04 40 42C36 46 25 46 20 42z"
  />
  <linearGradient id="gradient0" gradientUnits="userSpaceOnUse" x1="18" y1="-64" x2="42" y2="-64">
   <stop offset="0" stop-color="#dbc86a"/>
   <stop offset="1" stop-color="#a48900"/>
  </linearGradient>
  <path style="fill:url(#gradient0)"
        d="M21 45L24 52C27 56 33 56 36 52L39 45C35 51 25 51 21 45z"
  />
  <linearGradient id="gradient1" gradientUnits="userSpaceOnUse" x1="22" y1="-64" x2="38" y2="-64">
   <stop offset="0" stop-color="#6eb4d7"/>
   <stop offset="1" stop-color="#0077b3"/>
  </linearGradient>
  <path style="fill:url(#gradient1)"
        d="M20 42L21 45C25 51 35 51 39 45L40 42C36 46 25 46 20 42z"
  />
  <path style="fill:none; stroke:#010101; stroke-width:4"
        d="M30 24C23.37 24 18 27.54 18 32V37C18 41.4 23.37 45 30 45C36.62 45 42 41.4 42 37V32C42 27.54 36.62 24 30 24z"
  />
  <linearGradient id="gradient2" gradientUnits="userSpaceOnUse" x1="18" y1="-64" x2="42" y2="-64">
   <stop offset="0" stop-color="#dbc86a"/>
   <stop offset="1" stop-color="#a48900"/>
  </linearGradient>
  <path style="fill:url(#gradient2)"
        d="M18 32C18 36.4 23.37 40 30 40C36.62 40 42 36.4 42 32V37C42 41.4 36.62 45 30 45C23.37 45 18 41.4 18 37V32z"
  />
  <radialGradient id="gradient3" gradientUnits="userSpaceOnUse" cx="0" cy="0" r="64" gradientTransform="matrix(-0.25,0,-0,-0.2343,37,35)">
   <stop offset="0" stop-color="#a48902"/>
   <stop offset="1" stop-color="#fff1ac"/>
  </radialGradient>
  <path style="fill:url(#gradient3)"
        d="M30 24C23.37 24 18 27.54 18 32C18 36.4 23.37 40 30 40C36.62 40 42 36.4 42 32C42 27.54 36.62 24 30 24z"
  />
  <radialGradient id="gradient4" gradientUnits="userSpaceOnUse" cx="0" cy="0" r="64" gradientTransform="matrix(0.1503,0.0872,-0.0852,0.1469,35.1753,35.6376)">
   <stop offset="0" stop-color="#573402"/>
   <stop offset="1" stop-color="#a26101"/>
  </radialGradient>
  <path style="fill:url(#gradient4)"
        d="M30 26C24.45 26 20 28.64 20 32C20 35.29 24.45 38 30 38C35.51 38 40 35.29 40 32C40 28.64 35.51 26 30 26z"
  />
  <path style="fill:none; stroke:#010101; stroke-width:4; stroke-linejoin:round"
        d="M25 32C25 32 19 34 17 37C15 34 19 28 19 28C19 28 12 29 7 31C7 25 15 21 15 21C15 21 11 20 6 18C11 14 17 14 17 14C17 14 16 10 13 6C17 6 24 10 24 10L25 3C28 3 31 11 31 11C31 11 35 3 38 2L39 9C39 9 43 4 46 4L44 11C44 11 52 10 55 14C52 15 46 18 46 18C46 18 53 20 55 26C51 25 47 26 47 26C47 26 50 30 50 34C49 33 40 30 40 30L42 37L34 32C34 32 33 37 31 40C30 36 25 32 25 32z"
  />
  <linearGradient id="gradient5" gradientUnits="userSpaceOnUse" x1="22.34" y1="1.34" x2="49.31" y2="14.32">
   <stop offset="0" stop-color="#93d875"/>
   <stop offset="0.4758" stop-color="#45ac17"/>
   <stop offset="1" stop-color="#93d875"/>
  </linearGradient>
  <path style="fill:url(#gradient5)"
        d="M25 32C25 32 19 34 17 37C15 34 19 28 19 28C19 28 12 29 7 31C7 25 15 21 15 21C15 21 11 20 6 18C11 14 17 14 17 14C17 14 16 10 13 6C17 6 24 10 24 10L25 3C28 3 31 11 31 11C31 11 35 3 38 2L39 9C39 9 43 4 46 4L44 11C44 11 52 10 55 14C52 15 46 18 46 18C46 18 53 20 55 26C51 25 47 26 47 26C47 26 50 30 50 34C49 33 40 30 40 30L42 37L34 32C34 32 33 37 31 40C30 36 25 32 25 32z"
  />
  <radialGradient id="gradient6" gradientUnits="userSpaceOnUse" cx="0" cy="0" r="64" gradientTransform="matrix(0.0625,0,0,0.0781,30,24)">
   <stop offset="0" stop-color="#fff159"/>
   <stop offset="1" stop-color="#f00606"/>
  </radialGradient>
  <path style="fill:url(#gradient6)"
        d="M29 22C29 22 26 17 30 17C34 17 31 22 31 22C31 22 36 19 36 23C36 27 31 24 31 24C31 24 34 29 30 29C26 29 29 24 29 24C29 24 24 27 24 23C24 19 29 22 29 22z"
        transform="matrix(0.7012,-0.2964,0.3893,0.921,10.4515,4.5292)"
  />
  <radialGradient id="gradient7" gradientUnits="userSpaceOnUse" cx="0" cy="0" r="64" gradientTransform="matrix(0.0625,0,0,0.0781,30,24)">
   <stop offset="0" stop-color="#fff159"/>
   <stop offset="1" stop-color="#f00606"/>
  </radialGradient>
  <path style="fill:url(#gradient7)"
        d="M29 22C29 22 26 17 30 17C34 17 31 22 31 22C31 22 36 19 36 23C36 27 31 24 31 24C31 24 34 29 30 29C26 29 29 24 29 24C29 24 24 27 24 23C24 19 29 22 29 22z"
        transform="matrix(0.6787,0.2737,-0.3569,0.9321,5.8878,-10.8656)"
  />
  <radialGradient id="gradient8" gradientUnits="userSpaceOnUse" cx="0" cy="0" r="64" gradientTransform="matrix(0.0625,0,0,0.0781,30,24)">
   <stop offset="0" stop-color="#fff159"/>
   <stop offset="1" stop-color="#f00606"/>
  </radialGradient>
  <path style="fill:url(#gradient8)"
        d="M29 22C29 22 26 17 30 17C34 17 31 22 31 22C31 22 36 19 36 23C36 27 31 24 31 24C31 24 34 29 30 29C26 29 29 24 29 24C29 24 24 27 24 23C24 19 29 22 29 22z"
        transform="matrix(0.9805,-0.1961,0.1176,0.5883,-4.2414,3.7631)"
  />
  <radialGradient id="gradient9" gradientUnits="userSpaceOnUse" cx="0" cy="0" r="64" gradientTransform="matrix(0.0625,0,0,0.0781,30,24)">
   <stop offset="0" stop-color="#fff159"/>
   <stop offset="1" stop-color="#f00606"/>
  </radialGradient>
  <path style="fill:url(#gradient9)"
        d="M29 22C29 22 26 17 30 17C34 17 31 22 31 22C31 22 36 19 36 23C36 27 31 24 31 24C31 24 34 29 30 29C26 29 29 24 29 24C29 24 24 27 24 23C24 19 29 22 29 22z"
        transform="matrix(0.9284,0.3713,-0.2228,0.557,-0.5062,5.4882)"
  />
  <radialGradient id="gradient10" gradientUnits="userSpaceOnUse" cx="0" cy="0" r="64" gradientTransform="matrix(0.0625,0,0,0.0781,30,24)">
   <stop offset="0" stop-color="#fff159"/>
   <stop offset="1" stop-color="#f00606"/>
  </radialGradient>
  <path style="fill:url(#gradient10)"
        d="M29 22C29 22 26 17 30 17C34 17 31 22 31 22C31 22 36 19 36 23C36 27 31 24 31 24C31 24 34 29 30 29C26 29 29 24 29 24C29 24 24 27 24 23C24 19 29 22 29 22z"
        transform="matrix(0.9247,-0.3805,0.2283,0.5548,7.2283,27.0988)"
  />
  <radialGradient id="gradient11" gradientUnits="userSpaceOnUse" cx="0" cy="0" r="64" gradientTransform="matrix(0.0625,0,0,0.0781,30,24)">
   <stop offset="0" stop-color="#fff159"/>
   <stop offset="1" stop-color="#f00606"/>
  </radialGradient>
  <path style="fill:url(#gradient11)"
        d="M29 22C29 22 26 17 30 17C34 17 31 22 31 22C31 22 36 19 36 23C36 27 31 24 31 24C31 24 34 29 30 29C26 29 29 24 29 24C29 24 24 27 24 23C24 19 29 22 29 22z"
  />
  <path style="fill:none; stroke:#010101; stroke-width:4; stroke-linejoin:round"
        d="M29 45C29 45 23 41 23 47L24 49C24 49 26 50 28 48C28 48 27 51 24 52L26 54C26 54 30 50.38 30 49C30 50.38 34 54 34 54L36 52C33 51 32 48 32 48C34 50 36 49 36 49L37 47C37 41 31 45 31 45H29z"
  />
  <linearGradient id="gradient12" gradientUnits="userSpaceOnUse" x1="24" y1="42" x2="36" y2="42">
   <stop offset="0" stop-color="#9fd8f6"/>
   <stop offset="0.4887" stop-color="#4da2cd"/>
   <stop offset="1" stop-color="#6eb4d7"/>
  </linearGradient>
  <path style="fill:url(#gradient12)"
        d="M29 45C29 45 23 41 23 47L24 49C24 49 26 50 28 48C28 48 27 51 24 52L26 54C26 54 30 50.38 30 49C30 50.38 34 54 34 54L36 52C33 51 32 48 32 48C34 50 36 49 36 49L37 47C37 41 31 45 31 45H29z"
  />
 </g>
</svg>
