<?xml version="1.0" encoding="UTF-8" standalone="yes"?>
<svg version="1.1" width="64" height="64" color-interpolation="linearRGB"
     xmlns:svg="http://www.w3.org/2000/svg" xmlns="http://www.w3.org/2000/svg">
 <g>
  <path style="fill:none; stroke:#000000; stroke-width:4"
        d="M32 2C15.43 2 2 15.43 2 32C2 48.56 15.43 62 32 62C48.56 62 62 48.56 62 32C62 15.43 48.56 2 32 2z"
  />
  <linearGradient id="gradient0" gradientUnits="userSpaceOnUse" x1="115.74" y1="34.54" x2="71.28" y2="74.84">
   <stop offset="0" stop-color="#536b80"/>
   <stop offset="0.2831" stop-color="#e6edf2"/>
   <stop offset="0.6224" stop-color="#536b80"/>
   <stop offset="1" stop-color="#e6edf2"/>
  </linearGradient>
  <path style="fill:url(#gradient0)"
        d="M32 2C15.43 2 2 15.43 2 32C2 48.56 15.43 62 32 62C48.56 62 62 48.56 62 32C62 15.43 48.56 2 32 2z"
  />
  <linearGradient id="gradient1" gradientUnits="userSpaceOnUse" x1="115.74" y1="34.54" x2="71.28" y2="74.84">
   <stop offset="0" stop-color="#536b80"/>
   <stop offset="0.2831" stop-color="#e6edf2"/>
   <stop offset="0.6224" stop-color="#536b80"/>
   <stop offset="1" stop-color="#e6edf2"/>
  </linearGradient>
  <path style="fill:url(#gradient1)"
        d="M32 2C15.43 2 2 15.43 2 32C2 48.56 15.43 62 32 62C48.56 62 62 48.56 62 32C62 15.43 48.56 2 32 2z"
        transform="matrix(-0.5173,0.6953,-0.6953,-0.5173,70.8052,26.3056)"
  />
  <radialGradient id="gradient2" gradientUnits="userSpaceOnUse" cx="0" cy="0" r="64" gradientTransform="matrix(-0.9375,0,-0,-0.9375,62,62)">
   <stop offset="0" stop-color="#eee8b0"/>
   <stop offset="1" stop-color="#f9f9e5"/>
  </radialGradient>
  <path style="fill:url(#gradient2)"
        d="M32 2C15.43 2 2 15.43 2 32C2 48.56 15.43 62 32 62C48.56 62 62 48.56 62 32C62 15.43 48.56 2 32 2z"
        transform="matrix(0.8,-0,0,0.7999,6.3999,6.3999)"
  />
  <radialGradient id="gradient3" gradientUnits="userSpaceOnUse" cx="0" cy="0" r="64" gradientTransform="matrix(-0.9375,0,-0,-0.9375,62,62)">
   <stop offset="0" stop-color="#a10404"/>
   <stop offset="1" stop-color="#ff0d0d"/>
  </radialGradient>
  <path style="fill:url(#gradient3)"
        d="M32 32H54C54 25.34 51.04 19.37 46.36 15.33L32 32z"
  />
  <radialGradient id="gradient4" gradientUnits="userSpaceOnUse" cx="0" cy="0" r="64" gradientTransform="matrix(-0.9375,0,-0,-0.9375,62,62)">
   <stop offset="0" stop-color="#25a103"/>
   <stop offset="1" stop-color="#86ff4b"/>
  </radialGradient>
  <path style="fill:url(#gradient4)"
        d="M32 32L51.8 41.59C53.21 38.69 54 35.43 54 32H32z"
  />
  <path style="fill:none; stroke:#010101; stroke-opacity:0.2705; stroke-width:4; stroke-linecap:round; stroke-linejoin:round"
        d="M23.9 13.7L31.99 31.99
           M31.99 32L27.04 45.09"
        transform="matrix(1,0,0,1,1,1)"
  />
  <path style="fill:#010101; fill-opacity:0.2705"
        d="M32 26C28.68 26 26 28.68 26 32C26 35.31 28.68 38 32 38C35.31 38 38 35.31 38 32C38 28.68 35.31 26 32 26z"
        transform="matrix(1,0,0,1,1,1)"
  />
  <radialGradient id="gradient5" gradientUnits="userSpaceOnUse" cx="0" cy="0" r="64" gradientTransform="matrix(-0.9375,0,-0,-0.9375,62,62)">
   <stop offset="0" stop-color="#010101"/>
   <stop offset="1" stop-color="#797979"/>
  </radialGradient>
  <path style="fill:none; stroke:url(#gradient5); stroke-width:4; stroke-linecap:round; stroke-linejoin:round"
        d="M23.9 13.7L31.99 31.99
           M31.99 32L27.04 45.09"
  />
  <radialGradient id="gradient6" gradientUnits="userSpaceOnUse" cx="0" cy="0" r="64" gradientTransform="matrix(-0.9375,0,-0,-0.9375,62,62)">
   <stop offset="0" stop-color="#010101"/>
   <stop offset="1" stop-color="#797979"/>
  </radialGradient>
  <path style="fill:url(#gradient6)"
        d="M32 26C28.68 26 26 28.68 26 32C26 35.31 28.68 38 32 38C35.31 38 38 35.31 38 32C38 28.68 35.31 26 32 26z"
  />
  <radialGradient id="gradient7" gradientUnits="userSpaceOnUse" cx="0" cy="0" r="64" gradientTransform="matrix(-0.9375,0,-0,-0.9375,62,62)">
   <stop offset="0" stop-color="#eee8b0"/>
   <stop offset="1" stop-color="#f9f9e5"/>
  </radialGradient>
  <path style="fill:url(#gradient7)"
        d="M32 29C30.34 29 29 30.34 29 32C29 33.65 30.34 35 32 35C33.65 35 35 33.65 35 32C35 30.34 33.65 29 32 29z"
  />
 </g>
</svg>
