<?xml version="1.0" encoding="UTF-8" standalone="yes"?>
<svg version="1.1" width="64" height="64" color-interpolation="linearRGB"
     xmlns:svg="http://www.w3.org/2000/svg" xmlns="http://www.w3.org/2000/svg">
 <g>
  <path style="fill:#000000; fill-opacity:0.4"
        d="M30 32C42.87 32 53 38.81 53 47.5C53 56.17 42.87 63 30 63C17.11 63 7 56.17 7 47.5C7 38.81 17.11 32 30 32z
           M45 37C52.27 37 58 41.17 58 46.5C58 51.81 52.27 56 45 56C37.71 56 32 51.81 32 46.5C32 41.17 37.71 37 45 37z"
  />
  <path style="fill:none; stroke:#000000; stroke-width:4"
        d="M23.21 24.17L13.42 33.96C10.64 36.7 9 40.19 9 44C9 52.83 17.95 60 29 60C40.03 60 49 52.83 49 44C49 40.19 47.34 36.7 44.56 33.96L34.77 24.17
           M36 17V27C36 29.75 32.86 32 29 32C25.12 32 22 29.75 22 27V17
           M29 3C34.59 3 39 6.51 39 11C39 15.47 34.59 19 29 19C23.39 19 19 15.47 19 11C19 6.51 23.39 3 29 3z"
  />
  <linearGradient id="gradient0" gradientUnits="userSpaceOnUse" x1="9" y1="-64" x2="49" y2="-64">
   <stop offset="0" stop-color="#ffffff"/>
   <stop offset="1" stop-color="#c7c7c7"/>
  </linearGradient>
  <path style="fill:url(#gradient0)"
        d="M23.21 24.17L13.42 33.96C10.64 36.7 9 40.19 9 44C9 52.83 17.95 60 29 60C40.03 60 49 52.83 49 44C49 40.19 47.34 36.7 44.56 33.96L34.77 24.17"
  />
  <linearGradient id="gradient1" gradientUnits="userSpaceOnUse" x1="11" y1="-64" x2="47" y2="-64">
   <stop offset="0" stop-color="#aae52b"/>
   <stop offset="1" stop-color="#649203"/>
  </linearGradient>
  <path style="fill:url(#gradient1)"
        d="M15.43 34.8C12.66 37.26 11 40.48 11 44C11 51.71 19.06 58 28.99 58C38.92 58 47 51.71 47 44C47 40.48 45.32 37.26 42.55 34.8L38.87 31.5C40.82 33.27 42 35.54 42 38C42 43.43 36.22 48 28.99 48C21.76 48 16 43.43 16 38C16 35.54 17.16 33.27 19.11 31.5L15.43 34.8z"
  />
  <linearGradient id="gradient2" gradientUnits="userSpaceOnUse" x1="-27.99" y1="111.76" x2="-44.5" y2="95.25">
   <stop offset="0" stop-color="#89c605"/>
   <stop offset="1" stop-color="#e5ff6e"/>
  </linearGradient>
  <path style="fill:url(#gradient2)"
        d="M35.25 29.23C34.09 30.87 31.73 32 29 32C26.25 32 23.89 30.87 22.73 29.23C18.7 30.95 16 34.27 16 38C16 43.43 21.76 48 28.99 48C36.22 48 42 43.43 42 38C42 34.27 39.28 30.95 35.25 29.23z"
  />
  <path style="fill:none; stroke:#000000; stroke-width:4"
        d="M28 30C32.47 30 36 33.51 36 38C36 42.47 32.47 46 28 46C23.51 46 20 42.47 20 38C20 33.51 23.51 30 28 30z"
        transform="matrix(0.4286,0,0,0.2833,10.7132,26.0647)"
  />
  <radialGradient id="gradient3" gradientUnits="userSpaceOnUse" cx="0" cy="0" r="64" gradientTransform="matrix(0.1875,0,0,0.1875,24,34)">
   <stop offset="0.1568" stop-color="#ffffff"/>
   <stop offset="0.5058" stop-color="#c4e796"/>
   <stop offset="1" stop-color="#5f9d15"/>
  </radialGradient>
  <path style="fill:url(#gradient3)"
        d="M28 30C32.47 30 36 33.51 36 38C36 42.47 32.47 46 28 46C23.51 46 20 42.47 20 38C20 33.51 23.51 30 28 30z"
        transform="matrix(0.4286,0,0,0.3333,10.7132,24.6648)"
  />
  <path style="fill:none; stroke:#000000; stroke-width:4"
        d="M28 30C32.47 30 36 33.51 36 38C36 42.47 32.47 46 28 46C23.51 46 20 42.47 20 38C20 33.51 23.51 30 28 30z"
        transform="matrix(0.3571,0,0,0.2361,24.5698,25.3868)"
  />
  <radialGradient id="gradient4" gradientUnits="userSpaceOnUse" cx="0" cy="0" r="64" gradientTransform="matrix(0.1875,0,0,0.1875,24,34)">
   <stop offset="0.1568" stop-color="#ffffff"/>
   <stop offset="0.5058" stop-color="#c4e796"/>
   <stop offset="1" stop-color="#5f9d15"/>
  </radialGradient>
  <path style="fill:url(#gradient4)"
        d="M28 30C32.47 30 36 33.51 36 38C36 42.47 32.47 46 28 46C23.51 46 20 42.47 20 38C20 33.51 23.51 30 28 30z"
        transform="matrix(0.3571,0,0,0.2778,24.5698,24.2202)"
  />
  <path style="fill:none; stroke:#000000; stroke-width:4"
        d="M28 30C32.47 30 36 33.51 36 38C36 42.47 32.47 46 28 46C23.51 46 20 42.47 20 38C20 33.51 23.51 30 28 30z"
        transform="matrix(0.6,0,0,0.3967,15.1987,26.4912)"
  />
  <radialGradient id="gradient5" gradientUnits="userSpaceOnUse" cx="0" cy="0" r="64" gradientTransform="matrix(0.1875,0,0,0.1875,24,34)">
   <stop offset="0.1568" stop-color="#ffffff"/>
   <stop offset="0.5058" stop-color="#c4e796"/>
   <stop offset="1" stop-color="#5f9d15"/>
  </radialGradient>
  <path style="fill:url(#gradient5)"
        d="M28 30C32.47 30 36 33.51 36 38C36 42.47 32.47 46 28 46C23.51 46 20 42.47 20 38C20 33.51 23.51 30 28 30z"
        transform="matrix(0.6,0,0,0.4667,15.1987,24.5313)"
  />
  <path style="fill:none; stroke:#000000; stroke-width:4"
        d="M36 17V27C36 29.75 32.86 32 29 32C25.12 32 22 29.75 22 27V17"
        transform="matrix(0.8333,0,0,1,5.3333,0)"
  />
  <linearGradient id="gradient6" gradientUnits="userSpaceOnUse" x1="36" y1="-64" x2="22" y2="-64">
   <stop offset="0" stop-color="#9eb649"/>
   <stop offset="1" stop-color="#ffffff"/>
  </linearGradient>
  <path style="fill:url(#gradient6)"
        d="M29 32C31.73 32 34.09 30.87 35.25 29.23C33.4 28.45 31.27 28 28.99 28C26.71 28 24.58 28.45 22.73 29.23C23.89 30.87 26.25 32 29 32z"
  />
  <linearGradient id="gradient7" gradientUnits="userSpaceOnUse" x1="22" y1="-64" x2="36" y2="-64">
   <stop offset="0" stop-color="#ffffff"/>
   <stop offset="1" stop-color="#c7c7c7"/>
  </linearGradient>
  <path style="fill:url(#gradient7)"
        d="M36 17V27C36 27.8 35.72 28.55 35.25 29.23C33.4 28.45 31.27 28 28.99 28C26.71 28 24.58 28.45 22.73 29.23C22.26 28.55 22 27.8 22 27V17"
  />
  <path style="fill:#000000; fill-opacity:0.4"
        d="M33.94 59.5C42.58 57.74 49 51.47 49 44C49 40.19 47.34 36.7 44.56 33.96L36 25.39V16H22C22 16 25 27 29 32C33 37 46 46 46 46C44.07 55.55 31.18 59.63 30.07 59.97C30.13 59.97 30.19 59.96 30.25 59.96L33.94 59.5z"
  />
  <path style="fill:none; stroke:#000000; stroke-width:4"
        d="M29 3C34.59 3 39 6.51 39 11C39 15.47 34.59 19 29 19C23.39 19 19 15.47 19 11C19 6.51 23.39 3 29 3z"
        transform="matrix(0.8333,0,0,0.95,5.8331,1.0499)"
  />
  <radialGradient id="gradient8" gradientUnits="userSpaceOnUse" cx="0" cy="0" r="64" gradientTransform="matrix(0.3125,0,0,0.25,21,4)">
   <stop offset="0.7372" stop-color="#ffffff"/>
   <stop offset="1" stop-color="#c7c7c7"/>
  </radialGradient>
  <path style="fill:url(#gradient8)"
        d="M29 3C34.59 3 39 6.51 39 11C39 15.47 34.59 19 29 19C23.39 19 19 15.47 19 11C19 6.51 23.39 3 29 3z"
  />
  <path style="fill:#000000"
        d="M29 5C32.91 5 36 6.97 36 9.5C36 12.01 32.91 14 29 14C25.07 14 22 12.01 22 9.5C22 6.97 25.07 5 29 5z"
  />
  <radialGradient id="gradient9" gradientUnits="userSpaceOnUse" cx="0" cy="0" r="64" gradientTransform="matrix(0.115,0.0675,-0.1669,0.2841,35.113,11.9173)">
   <stop offset="0" stop-color="#e5e5e5"/>
   <stop offset="1" stop-color="#c1c1c1"/>
  </radialGradient>
  <path style="fill:url(#gradient9)"
        d="M29 5C32.91 5 36 6.97 36 9.5C36 12.01 32.91 14 29 14C25.07 14 22 12.01 22 9.5C22 6.97 25.07 5 29 5z"
        transform="matrix(0.8571,0,0,0.7777,4.1428,3.111)"
  />
 </g>
</svg>
