<?xml version="1.0" encoding="UTF-8" standalone="yes"?>
<svg version="1.1" width="64" height="64" color-interpolation="linearRGB"
     xmlns:svg="http://www.w3.org/2000/svg" xmlns="http://www.w3.org/2000/svg">
 <g>
  <path style="fill:none; stroke:#000000; stroke-opacity:0.4; stroke-width:2; stroke-linecap:round; stroke-linejoin:round"
        d="M27 0.99C19.26 0.99 13 7.71 13 16C13 24.28 19.26 31 27 31C34.73 31 41 24.28 41 16C41 7.71 34.73 0.99 27 0.99z"
        transform="matrix(1,0,0,1,2,2)"
  />
  <path style="fill:none; stroke:#005900; stroke-width:2; stroke-linecap:round; stroke-linejoin:round"
        d="M27 0.99C19.26 0.99 13 7.71 13 16C13 24.28 19.26 31 27 31C34.73 31 41 24.28 41 16C41 7.71 34.73 0.99 27 0.99z"
  />
  <path style="fill:none; stroke:#000000; stroke-opacity:0.4; stroke-width:4; stroke-linecap:round; stroke-linejoin:round"
        d="M11 10C6.02 10 2 16.71 2 25C2 33.28 6.02 40 11 40C15.97 40 20 33.28 20 25C20 16.71 15.97 10 11 10z"
        transform="matrix(1,0,0,1,2,2)"
  />
  <path style="fill:none; stroke:#005900; stroke-width:4; stroke-linecap:round; stroke-linejoin:round"
        d="M11 10C6.02 10 2 16.71 2 25C2 33.28 6.02 40 11 40C15.97 40 20 33.28 20 25C20 16.71 15.97 10 11 10z"
  />
  <linearGradient id="gradient0" gradientUnits="userSpaceOnUse" x1="128" y1="1.99" x2="128" y2="40">
   <stop offset="1" stop-color="#00b200"/>
   <stop offset="0" stop-color="#80ff80"/>
  </linearGradient>
  <path style="fill:url(#gradient0)"
        d="M11 10C6.02 10 2 16.71 2 25C2 33.28 6.02 40 11 40C15.97 40 20 33.28 20 25C20 16.71 15.97 10 11 10z"
  />
 </g>
</svg>
