<?xml version="1.0" encoding="UTF-8" standalone="yes"?>
<svg version="1.1" width="64" height="64" color-interpolation="linearRGB"
     xmlns:svg="http://www.w3.org/2000/svg" xmlns="http://www.w3.org/2000/svg">
 <g>
  <path style="fill:#010000; fill-opacity:0.4431"
        d="M38 58H44L66 36L58 32H38V58z"
        transform="matrix(1,0,0,1,0,2)"
  />
  <path style="fill:none; stroke:#010000; stroke-width:4"
        d="M2 28L20 12L58 26V36L38 56L2 38V28z"
        transform="matrix(1,0,0,1,0,2)"
  />
  <linearGradient id="gradient0" gradientUnits="userSpaceOnUse" x1="35.84" y1="13.51" x2="50.93" y2="41.73">
   <stop offset="0" stop-color="#535353"/>
   <stop offset="1" stop-color="#151515"/>
  </linearGradient>
  <path style="fill:url(#gradient0)"
        d="M38 56L2 38V28L38 44V56z"
        transform="matrix(1,0,0,1,0,2)"
  />
  <linearGradient id="gradient1" gradientUnits="userSpaceOnUse" x1="75.37" y1="20.39" x2="76.19" y2="52.38">
   <stop offset="0" stop-color="#454545"/>
   <stop offset="1" stop-color="#010101"/>
  </linearGradient>
  <path style="fill:url(#gradient1)"
        d="M38 44V56L58 36V26L38 44z"
        transform="matrix(1,0,0,1,0,2)"
  />
  <linearGradient id="gradient2" gradientUnits="userSpaceOnUse" x1="49.05" y1="2.66" x2="61.23" y2="32.25">
   <stop offset="0" stop-color="#a7a7a7"/>
   <stop offset="1" stop-color="#707070"/>
  </linearGradient>
  <path style="fill:url(#gradient2)"
        d="M2 28L20 12L58 26L38 44L2 28z"
        transform="matrix(1,0,0,1,0,2)"
  />
  <linearGradient id="gradient3" gradientUnits="userSpaceOnUse" x1="33.55" y1="3.08" x2="57.12" y2="24.73">
   <stop offset="0" stop-color="#818181"/>
   <stop offset="1" stop-color="#343434"/>
  </linearGradient>
  <path style="fill:url(#gradient3)"
        d="M38 44L2 28L6 24L42 40L38 44z"
        transform="matrix(1,0,0,1,0,2)"
  />
  <path style="fill:none; stroke:#010000; stroke-width:2"
        d="M39 34C37 33 18 25 16 24C14 23 14 21 16 19C18 17 21 16 23 17C25 18 45 25 47 26C49 27 51 29 48 32C45 35 41 35 39 34z"
        transform="matrix(0.9668,0,0,0.9318,0.5282,3.2371)"
  />
  <linearGradient id="gradient4" gradientUnits="userSpaceOnUse" x1="22.9" y1="62.69" x2="7.16" y2="34.83">
   <stop offset="0" stop-color="#565656"/>
   <stop offset="1" stop-color="#3a3a3a"/>
  </linearGradient>
  <path style="fill:url(#gradient4)"
        d="M39 34C37 33 18 25 16 24C14 23 14 21 16 19C18 17 21 16 23 17C25 18 45 25 47 26C49 27 51 29 48 32C45 35 41 35 39 34z"
        transform="matrix(1,0,0,1,0,2)"
  />
  <linearGradient id="gradient5" gradientUnits="userSpaceOnUse" x1="41.84" y1="-0.93" x2="63.9" y2="22.25">
   <stop offset="0" stop-color="#ffffff"/>
   <stop offset="1" stop-color="#e8e8e8"/>
  </linearGradient>
  <path style="fill:url(#gradient5)"
        d="M35 31L21 26L28 20L42 25L35 31z"
        transform="matrix(1,0,0,1,0,2)"
  />
 </g>
</svg>
