<?xml version="1.0" encoding="UTF-8" standalone="yes"?>
<svg version="1.1" width="64" height="64" color-interpolation="linearRGB"
     xmlns:svg="http://www.w3.org/2000/svg" xmlns="http://www.w3.org/2000/svg">
 <g>
  <path style="fill:none; stroke:#003f80; stroke-width:2; stroke-linecap:round; stroke-linejoin:round"
        d="M9 27H5
           M3 21L7 17V27"
        transform="matrix(1,0,0,1,0,-14)"
  />
  <path style="fill:none; stroke:#003f80; stroke-width:2; stroke-linecap:round; stroke-linejoin:round"
        d="M9 27H3C3 24 9 22 9 20C9 18 8 17 6 17C4 17 3 18 3 20"
  />
  <path style="fill:none; stroke:#003f80; stroke-width:2; stroke-linecap:round; stroke-linejoin:round"
        d="M3 17H9C9 18.61 5 21 5 21C5 21 9 22 9 24C9 26 8 27 6 27C4 27 3 26 3 24"
        transform="matrix(1,0,0,1,0,14)"
  />
  <path style="fill:none; stroke:#000000; stroke-opacity:0.4; stroke-width:8; stroke-linecap:round; stroke-linejoin:round"
        d="M16 22H38"
        transform="matrix(1,0,0,1,2,-12)"
  />
  <path style="fill:none; stroke:#545454; stroke-width:8; stroke-linecap:round; stroke-linejoin:round"
        d="M16 22H38"
        transform="matrix(1,0,0,1,0,-14)"
  />
  <linearGradient id="gradient0" gradientUnits="userSpaceOnUse" x1="128" y1="20" x2="128" y2="24">
   <stop offset="0" stop-color="#ffffff"/>
   <stop offset="1" stop-color="#e5e5e5"/>
  </linearGradient>
  <path style="fill:none; stroke:url(#gradient0); stroke-width:4; stroke-linecap:round; stroke-linejoin:round"
        d="M16 22H38"
        transform="matrix(1,0,0,1,0,-14)"
  />
  <path style="fill:none; stroke:#000000; stroke-opacity:0.4; stroke-width:8; stroke-linecap:round; stroke-linejoin:round"
        d="M16 22H38"
        transform="matrix(1,0,0,1,2,2)"
  />
  <path style="fill:none; stroke:#545454; stroke-width:8; stroke-linecap:round; stroke-linejoin:round"
        d="M16 22H38"
  />
  <linearGradient id="gradient1" gradientUnits="userSpaceOnUse" x1="128" y1="20" x2="128" y2="24">
   <stop offset="0" stop-color="#ffffff"/>
   <stop offset="1" stop-color="#e5e5e5"/>
  </linearGradient>
  <path style="fill:none; stroke:url(#gradient1); stroke-width:4; stroke-linecap:round; stroke-linejoin:round"
        d="M16 22H38"
  />
  <path style="fill:none; stroke:#000000; stroke-opacity:0.4; stroke-width:8; stroke-linecap:round; stroke-linejoin:round"
        d="M16 22H38"
        transform="matrix(1,0,0,1,2,16)"
  />
  <path style="fill:none; stroke:#545454; stroke-width:8; stroke-linecap:round; stroke-linejoin:round"
        d="M16 22H38"
        transform="matrix(1,0,0,1,0,14)"
  />
  <linearGradient id="gradient2" gradientUnits="userSpaceOnUse" x1="128" y1="20" x2="128" y2="24">
   <stop offset="0" stop-color="#ffffff"/>
   <stop offset="1" stop-color="#e5e5e5"/>
  </linearGradient>
  <path style="fill:none; stroke:url(#gradient2); stroke-width:4; stroke-linecap:round; stroke-linejoin:round"
        d="M16 22H38"
        transform="matrix(1,0,0,1,0,14)"
  />
 </g>
</svg>
