<?xml version="1.0" encoding="UTF-8" standalone="yes"?>
<svg version="1.1" width="64" height="64" color-interpolation="linearRGB"
     xmlns:svg="http://www.w3.org/2000/svg" xmlns="http://www.w3.org/2000/svg">
 <g>
  <path style="fill:#010101; fill-opacity:0.4196"
        d="M27.99 1.99C13.63 1.99 1.99 13.63 1.99 27.99C1.99 42.34 13.63 53.99 27.99 53.99C42.34 53.99 53.99 42.34 53.99 27.99C53.99 13.63 42.34 1.99 27.99 1.99z"
        transform="matrix(1,0,0,0.4999,10,36.9999)"
  />
  <path style="fill:none; stroke:#010101; stroke-width:4"
        d="M27.99 1.99C13.63 1.99 1.99 13.63 1.99 27.99C1.99 42.34 13.63 53.99 27.99 53.99C42.34 53.99 53.99 42.34 53.99 27.99C53.99 13.63 42.34 1.99 27.99 1.99z"
  />
  <radialGradient id="gradient0" gradientUnits="userSpaceOnUse" cx="0" cy="0" r="64" gradientTransform="matrix(0.5685,0,0,0.5685,17.5986,17.5986)">
   <stop offset="0" stop-color="#d7d7d7"/>
   <stop offset="0.8047" stop-color="#161616"/>
   <stop offset="1" stop-color="#565656"/>
  </radialGradient>
  <path style="fill:url(#gradient0)"
        d="M27.99 1.99C13.63 1.99 1.99 13.63 1.99 27.99C1.99 42.34 13.63 53.99 27.99 53.99C42.34 53.99 53.99 42.34 53.99 27.99C53.99 13.63 42.34 1.99 27.99 1.99z"
  />
  <path style="fill:#010101"
        d="M15.68 10.34C16.88 10.16 17.5 11.15 17.04 12.22C16.55 13.31 15.51 14.15 14.3 14.26C13.21 14.38 12.77 13.38 13.12 12.48C13.53 11.44 14.57 10.5 15.68 10.34
           M18.11 15.9C19.55 15.87 20.36 17.24 20.05 18.55C19.79 19.66 18.64 20.59 17.49 20.61C14.21 20.68 15.31 15.95 18.11 15.9
           M11 17.03C11.96 16.98 12.45 17.97 12.37 18.79C12.2 20.06 11.33 21.69 9.88 21.74C9.01 21.75 8.62 20.85 8.66 20.09C8.73 18.92 9.63 17.09 11 17.03z"
  />
 </g>
</svg>
