<?xml version="1.0" encoding="UTF-8" standalone="yes"?>
<svg version="1.1" width="64" height="64" color-interpolation="linearRGB"
     xmlns:svg="http://www.w3.org/2000/svg" xmlns="http://www.w3.org/2000/svg">
 <g>
  <path style="fill:#000000; fill-opacity:0.4"
        d="M22 57L26 51L33.75 51.33L35 61L38 55C38 55 49 54 53 48C51 47 51 45 51 45C51 45 54 42 54 38C54 34 52 30 52 28C52 28 56 18 56 11L28 37L22 57z"
  />
  <path style="fill:#000000"
        d="M28 44L22 57L23 51L17 58L21 50L15 53L25 44"
  />
  <path style="fill:#000000"
        d="M32 44L27 61L31 54V62L33 54L35 61V44"
  />
  <path style="fill:none; stroke:#000000; stroke-width:4"
        d="M24 2C23 2 10 10 10 25C10 40 20 46 30 46C38 46 45 36 46 32C47 28 57 11 54 9C51 7 48 17 39 17C30 17 27 8 27 5C26 5 24.82 6.82 24.82 6.82C24.82 6.82 24 3 24 2z"
  />
  <radialGradient id="gradient0" gradientUnits="userSpaceOnUse" cx="0" cy="0" r="64" gradientTransform="matrix(0.4218,0,0,0.4375,17,18)">
   <stop offset="0.4664" stop-color="#ff6f05"/>
   <stop offset="1" stop-color="#e40606"/>
  </radialGradient>
  <path style="fill:url(#gradient0)"
        d="M24 2C23 2 10 10 10 25C10 40 20 46 30 46C38 46 45 36 46 32C47 28 57 11 54 9C51 7 48 17 39 17C30 17 27 8 27 5C26 5 24.82 6.82 24.82 6.82C24.82 6.82 24 3 24 2z"
  />
  <path style="fill:#000000"
        d="M21 32C21 30 21 29 20 28C22 28 25 26 25 24C25 22 23 21 21 21C19 21 16 24 14 23C12 22 10 20 10 25C10 27.39 10 30 11 33C12 35 14 34 15 33C15 33 16 34 18 34C19 34 21 33 21 32z"
  />
  <radialGradient id="gradient1" gradientUnits="userSpaceOnUse" cx="0" cy="0" r="64" gradientTransform="matrix(0.0468,0,0,0.0468,20,24)">
   <stop offset="0" stop-color="#ffffff"/>
   <stop offset="1" stop-color="#d14805"/>
  </radialGradient>
  <path style="fill:url(#gradient1)"
        d="M21 23C22 23 23 24 23 25C23 26 22 27 21 27C20 27 19 26 19 25C19 24 20 23 21 23z"
  />
  <radialGradient id="gradient2" gradientUnits="userSpaceOnUse" cx="0" cy="0" r="64" gradientTransform="matrix(0.0527,0.0334,-0.0846,0.1332,16.4945,29.5804)">
   <stop offset="1" stop-color="#ffa903"/>
   <stop offset="0" stop-color="#ff6d02"/>
  </radialGradient>
  <path style="fill:url(#gradient2)"
        d="M14 26C12 26 11 28 11 30C11 33 14 34 14 34C15 32 18 31 18 29C18 26 16 26 14 26z"
  />
  <radialGradient id="gradient3" gradientUnits="userSpaceOnUse" cx="0" cy="0" r="64" gradientTransform="matrix(-0.1875,0,-0,-0.2187,36,28)">
   <stop offset="1" stop-color="#ff6f04"/>
   <stop offset="0.3814" stop-color="#e40606"/>
  </radialGradient>
  <path style="fill:url(#gradient3)"
        d="M27 32C27 32 24 20 28 17C31 15 40 18 40 18L27 32z"
  />
  <path style="fill:none; stroke:#000000; stroke-width:4"
        d="M27 33C27 35.43 29 40 33 40C38 40 42.84 35.97 44.92 30.98C47 26 48 18 48 18C48 18 45 20 42 20C39 20 35 20 32 23C28 27 27 30 27 33z"
        transform="matrix(0.9179,0,0,0.9336,4.0501,0.7876)"
  />
  <radialGradient id="gradient4" gradientUnits="userSpaceOnUse" cx="0" cy="0" r="64" gradientTransform="matrix(0.1315,0.1085,-0.1769,0.2143,34.7033,23.5027)">
   <stop offset="0.4664" stop-color="#ff5e06"/>
   <stop offset="1" stop-color="#d10505"/>
  </radialGradient>
  <path style="fill:url(#gradient4)"
        d="M27 33C27 35.43 29 40 33 40C38 40 42.84 35.97 44.92 30.98C47 26 48 18 48 18C48 18 45 20 42 20C39 20 35 20 32 23C28 27 27 30 27 33z"
  />
 </g>
</svg>
