<?xml version="1.0" encoding="UTF-8" standalone="yes"?>
<svg version="1.1" width="64" height="64" color-interpolation="linearRGB"
     xmlns:svg="http://www.w3.org/2000/svg" xmlns="http://www.w3.org/2000/svg">
 <g>
  <path style="fill:#010000; fill-opacity:0.447"
        d="M38 60H48L52.46 54.31L57 54L55 52L59 46L52 43H15V48L36 49L38 60z"
  />
  <path style="fill:none; stroke:#000000; stroke-width:4"
        d="M22 4L6 16V20L8 21V46L12 48L14 45L27 51L30 57L36 60L50 46V22L52 20V16L22 4z"
  />
  <linearGradient id="gradient0" gradientUnits="userSpaceOnUse" x1="87.83" y1="-38.81" x2="110.13" y2="-10.53">
   <stop offset="0" stop-color="#f1c347"/>
   <stop offset="1" stop-color="#d29a05"/>
  </linearGradient>
  <path style="fill:url(#gradient0)"
        d="M22 4L6 16V20L8 21V46L12 48L14 45L27 51L30 57L36 60L50 46V22L52 20V16L22 4z"
  />
  <linearGradient id="gradient1" gradientUnits="userSpaceOnUse" x1="119.91" y1="-27.41" x2="127.16" y2="0.25">
   <stop offset="0" stop-color="#fff0c7"/>
   <stop offset="1" stop-color="#ffd35b"/>
  </linearGradient>
  <path style="fill:url(#gradient1)"
        d="M6 16L22 4L52 16L36 30L6 16z"
  />
  <linearGradient id="gradient2" gradientUnits="userSpaceOnUse" x1="-47.12" y1="-6.02" x2="-18.27" y2="-39.24">
   <stop offset="0" stop-color="#896503"/>
   <stop offset="1" stop-color="#bf8c00"/>
  </linearGradient>
  <path style="fill:url(#gradient2)"
        d="M36 30V60L50 46V22L52 20V16L36 30z"
  />
  <linearGradient id="gradient3" gradientUnits="userSpaceOnUse" x1="14" y1="-62" x2="28" y2="-62">
   <stop offset="0.0836" stop-color="#c7ba91"/>
   <stop offset="0.0836" stop-color="#9b8e60"/>
   <stop offset="0.2264" stop-color="#9b8e60"/>
   <stop offset="0.2299" stop-color="#c7ba91"/>
   <stop offset="0.3588" stop-color="#c7ba91"/>
   <stop offset="0.3588" stop-color="#9b8e60"/>
   <stop offset="0.4947" stop-color="#9b8e60"/>
   <stop offset="0.4947" stop-color="#c7ba91"/>
   <stop offset="0.6376" stop-color="#c7ba91"/>
   <stop offset="0.6376" stop-color="#9b8e60"/>
   <stop offset="0.777" stop-color="#9b8e60"/>
   <stop offset="0.777" stop-color="#c7ba91"/>
   <stop offset="0.9198" stop-color="#c7ba91"/>
   <stop offset="0.9233" stop-color="#9b8e60"/>
  </linearGradient>
  <path style="fill:url(#gradient3)"
        d="M30 47V43C30 42 30 39 27 38C24 37 26 33 21 31C16 29 17 34 15 33C13 32 12 34 12 35V39L30 47z"
  />
  <linearGradient id="gradient4" gradientUnits="userSpaceOnUse" x1="91.29" y1="-37.01" x2="108.01" y2="-13.51">
   <stop offset="0" stop-color="#ff0606"/>
   <stop offset="1" stop-color="#c60505"/>
  </linearGradient>
  <path style="fill:none; stroke:url(#gradient4); stroke-width:2"
        d="M30 47V43C30 42 30 39 27 38C24 37 26 33 21 31C16 29 17 34 15 33C13 32 12 34 12 35V39L30 47z"
  />
  <path style="fill:none; stroke:#000000; stroke-width:6; stroke-linecap:round; stroke-linejoin:round"
        d="M47 38V46"
  />
  <path style="fill:none; stroke:#000000; stroke-width:6; stroke-linecap:round; stroke-linejoin:round"
        d="M45 37L47 38"
  />
  <radialGradient id="gradient5" gradientUnits="userSpaceOnUse" cx="0" cy="0" r="64" gradientTransform="matrix(0.0156,0,0,0.0781,47,42)">
   <stop offset="0" stop-color="#ccdae5"/>
   <stop offset="1" stop-color="#5b6b75"/>
  </radialGradient>
  <path style="fill:none; stroke:url(#gradient5); stroke-width:2; stroke-linecap:round; stroke-linejoin:round"
        d="M47 38V46"
  />
  <radialGradient id="gradient6" gradientUnits="userSpaceOnUse" cx="0" cy="0" r="64" gradientTransform="matrix(0.0442,0.0354,-0.0195,0.0244,45.5012,36.7203)">
   <stop offset="0" stop-color="#f8fcff"/>
   <stop offset="1" stop-color="#849199"/>
  </radialGradient>
  <path style="fill:none; stroke:url(#gradient6); stroke-width:2; stroke-linecap:round; stroke-linejoin:round"
        d="M45 37L47 38"
  />
  <path style="fill:none; stroke:#000000; stroke-width:8; stroke-linecap:round; stroke-linejoin:round"
        d="M51 48L59 52"
  />
  <radialGradient id="gradient7" gradientUnits="userSpaceOnUse" cx="0" cy="0" r="64" gradientTransform="matrix(0.1002,0.0624,-0.0251,0.0404,54.2836,48.8013)">
   <stop offset="0" stop-color="#ffdcac"/>
   <stop offset="1" stop-color="#784803"/>
  </radialGradient>
  <path style="fill:none; stroke:url(#gradient7); stroke-width:4; stroke-linecap:round; stroke-linejoin:round"
        d="M51 48L59 52"
  />
  <path style="fill:none; stroke:#010000; stroke-opacity:0.447; stroke-width:2"
        d="M6 21L36 35L51 23"
  />
 </g>
</svg>
