<?xml version="1.0" encoding="UTF-8" standalone="yes"?>
<svg version="1.1" width="64" height="64" color-interpolation="linearRGB"
     xmlns:svg="http://www.w3.org/2000/svg" xmlns="http://www.w3.org/2000/svg">
 <g>
  <path style="fill:#000000; fill-opacity:0.4"
        d="M42.02 5.01C37.84 1.86 32.64 0 27.01 0C13.2 0 2 11.18 2 25C2 15.05 10.06 6.98 20.01 6.98C25.48 6.98 30.38 9.44 33.67 13.3"
        transform="matrix(1,0,0,1,2,2)"
  />
  <path style="fill:#d95a00"
        d="M42.02 5.01C37.84 1.86 32.64 0 27.01 0C13.2 0 2 11.18 2 25C2 15.05 10.06 6.98 20.01 6.98C25.48 6.98 30.38 9.44 33.67 13.3"
  />
  <path style="fill:#000000; fill-opacity:0.4"
        d="M16.99 9C8.15 9 0.99 16.15 0.99 25C0.99 33.82 8.15 41 16.99 41C25.82 41 33 33.82 33 25C33 16.15 25.82 9 16.99 9z
           M19 25C19 26.17 18.17 27 17 27C15.81 27 15 26.17 15 25C15 23.81 15.81 23 17 23C18.17 23 19 23.81 19 25z"
        transform="matrix(1,0,0,1,2,2)"
  />
  <linearGradient id="gradient0" gradientUnits="userSpaceOnUse" x1="128" y1="10" x2="128" y2="40">
   <stop offset="0" stop-color="#ffffff"/>
   <stop offset="1" stop-color="#d9d9ff"/>
  </linearGradient>
  <path style="fill:url(#gradient0)"
        d="M16.99 9C8.15 9 0.99 16.15 0.99 25C0.99 33.82 8.15 41 16.99 41C25.82 41 33 33.82 33 25C33 16.15 25.82 9 16.99 9z
           M19 25C19 26.17 18.17 27 17 27C15.81 27 15 26.17 15 25C15 23.81 15.81 23 17 23C18.17 23 19 23.81 19 25z"
  />
  <path style="fill:none; stroke:#000080; stroke-width:2"
        d="M16.99 9C8.15 9 0.99 16.15 0.99 25C0.99 33.82 8.15 41 16.99 41C25.82 41 33 33.82 33 25C33 16.15 25.82 9 16.99 9z
           M19 25C19 26.17 18.17 27 17 27C15.81 27 15 26.17 15 25C15 23.81 15.81 23 17 23C18.17 23 19 23.81 19 25z"
  />
  <path style="fill:none; stroke:#d95a00; stroke-width:4"
        d="M11 28C9.34 28 8 29.34 8 31C8 32.65 9.34 34 11 34C12.65 34 14 32.65 14 31C14 29.34 12.65 28 11 28z
           M23 28C21.34 28 20 29.34 20 31C20 32.65 21.34 34 23 34C24.65 34 26 32.65 26 31C26 29.34 24.65 28 23 28z
           M23 16C21.34 16 20 17.34 20 19C20 20.65 21.34 22 23 22C24.65 22 26 20.65 26 19C26 17.34 24.65 16 23 16z
           M11 16C9.34 16 8 17.34 8 19C8 20.65 9.34 22 11 22C12.65 22 14 20.65 14 19C14 17.34 12.65 16 11 16z"
  />
  <linearGradient id="gradient1" gradientUnits="userSpaceOnUse" x1="128" y1="16" x2="128" y2="34">
   <stop offset="0" stop-color="#ffff80"/>
   <stop offset="1" stop-color="#ffd500"/>
  </linearGradient>
  <path style="fill:url(#gradient1)"
        d="M11 28C9.34 28 8 29.34 8 31C8 32.65 9.34 34 11 34C12.65 34 14 32.65 14 31C14 29.34 12.65 28 11 28z
           M23 28C21.34 28 20 29.34 20 31C20 32.65 21.34 34 23 34C24.65 34 26 32.65 26 31C26 29.34 24.65 28 23 28z
           M23 16C21.34 16 20 17.34 20 19C20 20.65 21.34 22 23 22C24.65 22 26 20.65 26 19C26 17.34 24.65 16 23 16z
           M11 16C9.34 16 8 17.34 8 19C8 20.65 9.34 22 11 22C12.65 22 14 20.65 14 19C14 17.34 12.65 16 11 16z"
  />
  <linearGradient id="gradient2" gradientUnits="userSpaceOnUse" x1="128" y1="1" x2="128" y2="10.99">
   <stop offset="0" stop-color="#ffff80"/>
   <stop offset="1" stop-color="#ffd500"/>
  </linearGradient>
  <path style="fill:url(#gradient2)"
        d="M40.55 6.4C36.75 3.63 32.07 1.99 27.01 1.99C22.3 1.99 17.92 3.4 14.27 5.83C16.09 5.29 18.01 4.98 20.01 4.98C26.03 4.98 31.43 7.66 35.1 11.88"
  />
 </g>
</svg>
