<?xml version="1.0" encoding="UTF-8" standalone="yes"?>
<svg version="1.1" width="64" height="64" color-interpolation="linearRGB"
     xmlns:svg="http://www.w3.org/2000/svg" xmlns="http://www.w3.org/2000/svg">
 <g>
  <path style="fill:#000000; fill-opacity:0.4"
        d="M49 60L48 61H36V58H21L18 60L17 56L19 55V53H49V60z
           M49 60C49 60 58 54 59 53C60 52 61 49 60 44C59 39 58 37 57 37C56 37 53 37 53 37L49 60z"
  />
  <path style="fill:none; stroke:#010101; stroke-width:6"
        d="M55 26C55.9 19.94 55.88 10.81 55 6C54.61 3.93 53.5 3 53 3H11C10.47 3 9.38 3.92 9 6C8.09 10.81 8.1 19.94 9 26L15 60H18L17 53H47L46 60H49L55 26z"
  />
  <linearGradient id="gradient0" gradientUnits="userSpaceOnUse" x1="31.95" y1="50.7" x2="31.95" y2="3">
   <stop offset="0.7582" stop-color="#3f7eff"/>
   <stop offset="0" stop-color="#0048d9"/>
   <stop offset="0.9084" stop-color="#b2cbff"/>
   <stop offset="0.9963" stop-color="#4d88ff"/>
  </linearGradient>
  <path style="fill:url(#gradient0)"
        d="M55 26C55.9 19.94 55.88 10.81 55 6C54.61 3.93 53.5 3 53 3H11C10.47 3 9.38 3.92 9 6C8.09 10.81 8.1 19.94 9 26L15 60H18L17 53H47L46 60H49L55 26z"
  />
  <path style="fill:#003fbf"
        d="M20 11H44L42 17H22L20 11z"
  />
  <path style="fill:#99baff"
        d="M20 27C23 26 24 20 24 20L42.59 19.96L44 27H20z"
  />
  <path style="fill:#0054ff"
        d="M20 27C23 26 24 20 24 20L42.59 19.96L42 17H22L20 27z"
  />
  <path style="fill:#003fbf"
        d="M20 27C18 18 20 11 20 11L22 17L20 27z"
  />
  <path style="fill:#0054ff"
        d="M44 27C46 18 44 11 44 11L42.59 19.98L44 27z"
  />
  <path style="fill:#003fbf"
        d="M44 11L42 17L42.59 19.98L44 11z"
  />
 </g>
</svg>
