<?xml version="1.0" encoding="UTF-8" standalone="yes"?>
<svg version="1.1" width="64" height="64" color-interpolation="linearRGB"
     xmlns:svg="http://www.w3.org/2000/svg" xmlns="http://www.w3.org/2000/svg">
 <g>
  <radialGradient id="gradient0" gradientUnits="userSpaceOnUse" cx="0" cy="0" r="64" gradientTransform="matrix(0.4375,0,0,0.3281,44,41)">
   <stop offset="0" stop-color="#ff0606" stop-opacity="0.7843"/>
   <stop offset="0.4866" stop-color="#830303" stop-opacity="0.596"/>
   <stop offset="1" stop-color="#000000" stop-opacity="0.4"/>
  </radialGradient>
  <path style="fill:url(#gradient0)"
        d="M44 24L52 28L59 37V48L51 58L38 63H36L22 61L11 54L8 48L7 41L11 24H44z"
  />
  <path style="fill:none; stroke:#000000; stroke-width:4"
        d="M40 3L31 3.5L21.5 8L14.5 14.5L9.5 23L7 32L7.5 42.5L11 50.5L19 53L30 48L46 40V21.5V9L40 3z"
  />
  <path style="fill:#ffc7c7"
        d="M7 32L9.5 23L14.5 14.5L21.5 8L28.38 5.25L33.5 7.5L35.5 14.5L33.5 25L27 35L19 42L12 43L7.5 39.5L7 32z"
  />
  <radialGradient id="gradient1" gradientUnits="userSpaceOnUse" cx="0" cy="0" r="64" gradientTransform="matrix(0.227,0.2044,-0.3227,0.3583,19.1717,22.4774)">
   <stop offset="0.5437" stop-color="#ffc7c7"/>
   <stop offset="1" stop-color="#e10c0c"/>
  </radialGradient>
  <path style="fill:url(#gradient1)"
        d="M28.38 5.25L21.5 8L31 3.5L28.38 5.25z
           M33.5 7.5L28.38 5.25L40 3L33.5 7.5z
           M35.5 14.5L33.5 7.5L46 9L35.5 14.5z
           M33.5 25L35.5 14.5L46 21.5L33.5 25z
           M27 35L33.5 25L40 36L27 35z
           M19 42L27 35L30 48L19 42z
           M12 43L19 42V53L12 43z
           M7.5 39.5L12 43L11 50.5L7.5 39.5z
           M7 32L7.5 39.5V42.5L7 32z"
  />
  <radialGradient id="gradient2" gradientUnits="userSpaceOnUse" cx="0" cy="0" r="64" gradientTransform="matrix(0.2315,0.2215,-0.3868,0.4043,40.6579,36.0151)">
   <stop offset="0.4714" stop-color="#bd0505"/>
   <stop offset="1" stop-color="#ff1b1b"/>
  </radialGradient>
  <path style="fill:url(#gradient2)"
        d="M31 3.5L40 3L28.38 5.25L31 3.5z
           M40 3L46 9L33.5 7.5L40 3z
           M46 9V21.5L35.5 14.5L46 9z
           M46 21.5L40 36L33.5 25L46 21.5z
           M40 36L30 48L27 35L40 36z
           M30 48L19 53V42L30 48z
           M19 53L11 50.5L12 43L19 53z
           M11 50.5L7.5 42.5V39.5L11 50.5z"
  />
  <linearGradient id="gradient3" gradientUnits="userSpaceOnUse" x1="82.58" y1="-45.49" x2="91.79" y2="-40.21">
   <stop offset="1" stop-color="#eb0606"/>
   <stop offset="0" stop-color="#9b0404"/>
  </linearGradient>
  <path style="fill:url(#gradient3)"
        d="M40 36L46 21.5V40L40 36z"
  />
  <linearGradient id="gradient4" gradientUnits="userSpaceOnUse" x1="111.36" y1="-23.7" x2="117.19" y2="-16.58">
   <stop offset="0" stop-color="#ff0606"/>
   <stop offset="1" stop-color="#9b0404"/>
  </linearGradient>
  <path style="fill:url(#gradient4)"
        d="M30 48L40 36L46 40L30 48z"
  />
  <linearGradient id="gradient5" gradientUnits="userSpaceOnUse" x1="14" y1="-64" x2="48" y2="-64">
   <stop offset="0" stop-color="#ff3030"/>
   <stop offset="0.3992" stop-color="#c30505"/>
   <stop offset="1" stop-color="#ff0606"/>
  </linearGradient>
  <path style="fill:url(#gradient5)"
        d="M32 16C23.16 16 16 23.16 16 32C16 40.83 23.16 48 32 48C40.83 48 48 40.83 48 32C48 23.16 40.83 16 32 16z"
        transform="matrix(0.6238,-1.0085,0.4899,0.3274,-14.6857,45.5026)"
  />
 </g>
</svg>
