<?xml version="1.0" encoding="UTF-8" standalone="no"?>
<svg
   version="1.1"
   width="64"
   height="64"
   color-interpolation="linearRGB"
   id="svg14"
   sodipodi:docname="application-vnd.kde.kleopatra.pgp-encrypted-tar.svg"
   inkscape:version="1.4 (e7c3feb100, 2024-10-09)"
   xmlns:inkscape="http://www.inkscape.org/namespaces/inkscape"
   xmlns:sodipodi="http://sodipodi.sourceforge.net/DTD/sodipodi-0.dtd"
   xmlns="http://www.w3.org/2000/svg"
   xmlns:svg="http://www.w3.org/2000/svg">
  <defs
     id="defs14">
    <linearGradient
       y2="12.16"
       x2="45.959999"
       y1="5.4000001"
       x1="11.12"
       gradientUnits="userSpaceOnUse"
       id="gradient0-5">
      <stop
         id="stop3057"
         stop-color="#fffbcc"
         offset="0" />
      <stop
         id="stop3059"
         stop-color="#f3d048"
         offset="1" />
      <stop
         id="stop3061"
         stop-color="#d1af27"
         offset="0.7572" />
    </linearGradient>
    <linearGradient
       y2="12.92"
       x2="58.709999"
       y1="10.16"
       x1="42.830002"
       gradientUnits="userSpaceOnUse"
       id="gradient1-9">
      <stop
         id="stop3066"
         stop-color="#9e8707"
         offset="0.1847" />
      <stop
         id="stop3068"
         stop-color="#b59e04"
         offset="0" />
      <stop
         id="stop3070"
         stop-color="#eec740"
         offset="1" />
    </linearGradient>
    <linearGradient
       y2="15.75"
       x2="45.75"
       y1="15.75"
       x1="26.25"
       gradientUnits="userSpaceOnUse"
       id="gradient2-3">
      <stop
         id="stop3075"
         stop-color="#f6e156"
         offset="0.3695" />
      <stop
         id="stop3077"
         stop-color="#c9a514"
         offset="0.5833" />
      <stop
         id="stop3079"
         stop-color="#f7e35d"
         offset="1" />
      <stop
         id="stop3081"
         stop-color="#c9a515"
         offset="0" />
    </linearGradient>
    <linearGradient
       y2="-6"
       x2="46"
       y1="-6"
       x1="18"
       gradientUnits="userSpaceOnUse"
       id="gradient3-6">
      <stop
         id="stop3086"
         stop-color="#fff8ea"
         offset="0" />
      <stop
         id="stop3088"
         stop-color="#f5de63"
         offset="1" />
    </linearGradient>
    <radialGradient
       gradientTransform="matrix(0.2161,-0.0247,0.0534,0.4665,30.2118,22.626)"
       r="64"
       cy="0"
       cx="0"
       gradientUnits="userSpaceOnUse"
       id="gradient4-7">
      <stop
         id="stop3099"
         stop-color="#bebebe"
         offset="0.2971" />
      <stop
         id="stop3101"
         stop-color="#ffffff"
         offset="0.6014" />
      <stop
         id="stop3103"
         stop-color="#767676"
         offset="0.3949" />
    </radialGradient>
  </defs>
  <sodipodi:namedview
     id="namedview14"
     pagecolor="#ffffff"
     bordercolor="#000000"
     borderopacity="0.25"
     inkscape:showpageshadow="2"
     inkscape:pageopacity="0.0"
     inkscape:pagecheckerboard="0"
     inkscape:deskcolor="#d1d1d1"
     inkscape:zoom="11.512582"
     inkscape:cx="25.406985"
     inkscape:cy="31.791304"
     inkscape:window-width="2560"
     inkscape:window-height="1295"
     inkscape:window-x="1280"
     inkscape:window-y="33"
     inkscape:window-maximized="1"
     inkscape:current-layer="svg14" />
  <g
     id="g14">
    <path
       style="fill:#010101; fill-opacity:0.5333"
       d="M36 63H41C41 63 45.5 59.62 48.12 56.08C51.03 52.17 52.08 48.05 52.08 48.05C52.08 48.05 57.06 44.04 60.04 40.02C63.02 36.01 63 32 63 32L59 30L57 35L36 63z"
       id="path1" />
    <path
       style="fill:none; stroke:#010000; stroke-width:4"
       d="M3 32C3 32 2 34.47 2 37.25C2 40.86 2.62 44.62 2.62 44.62C2.62 44.62 4.97 46.57 8.23 48.3C12.2 50.4 16.61 51.73 16.61 51.73L16.62 37.87L29.5 24.75C29.5 24.75 25.45 23.1 21.66 21.55C18.29 20.17 15.11 19.88 15.11 19.88C15.11 19.88 11.04 21.95 7.87 25.12C4.49 28.5 3 32 3 32z            M30 23.75L38.93 14.06C38.93 14.06 35.07 12.66 31.42 11.33C28.13 10.13 25 10 25 10C25 10 23.27 10.72 21.37 12.62C19.05 14.94 16.49 17.5 16.49 17.5L30 23.75z            M31.5 25.37L47.87 31L47.92 45.96C47.92 45.96 51.84 42.11 54.36 38.78C56.29 36.24 57 33.62 57 33.62C57 33.62 58 29.95 58 26.37C58 23.53 56.25 21.5 56.25 21.5C56.25 21.5 52.21 18.89 47.33 17.12C43.79 15.83 40.72 15.21 40.72 15.21C40.72 15.21 38.67 16.65 36.4 18.79C33.61 21.43 31.5 25.37 31.5 25.37z            M46.62 33C46.62 33 42.42 30.85 37.97 28.94C34 27.24 30.5 26.25 30.5 26.25C30.5 26.25 27.59 28.49 24.78 31.54C21.62 34.97 18.62 38.62 18.62 38.62C18.62 38.62 18.24 41.59 18.24 44.88C18.24 48.98 18.87 53.47 18.87 53.47C18.87 53.47 22.15 55.66 26.3 57.86C30.99 60.35 36 61.25 36 61.25C36 61.25 39.12 58.87 42.12 54.92C44.88 51.29 46.77 47.67 46.77 47.67C46.77 47.67 47.23 44.08 47.2 40.36C47.16 36.62 46.62 33 46.62 33z"
       id="path2" />
    <linearGradient
       id="gradient0"
       gradientUnits="userSpaceOnUse"
       x1="13.84"
       y1="-34.14"
       x2="58.34"
       y2="-23.7">
      <stop
         offset="0"
         stop-color="#fff8ea"
         id="stop2" />
      <stop
         offset="1"
         stop-color="#f5deac"
         id="stop3" />
    </linearGradient>
    <path
       style="fill:url(#gradient0)"
       d="M46.62 33C46.62 33 42.42 30.85 37.97 28.94C34 27.24 30.5 26.25 30.5 26.25C30.5 26.25 27.59 28.49 24.78 31.54C21.62 34.97 18.62 38.62 18.62 38.62L36 46C36 46 39.67 42.72 42.34 39.46C44.98 36.22 46.62 33 46.62 33z            M3 32L16.62 37.87L29.5 24.75C29.5 24.75 25.45 23.1 21.66 21.55C18.29 20.17 15.11 19.88 15.11 19.88C15.11 19.88 11.04 21.95 7.87 25.12C4.49 28.5 3 32 3 32z            M30 23.75L38.93 14.06C38.93 14.06 35.07 12.66 31.42 11.33C28.13 10.13 25 10 25 10C25 10 23.27 10.72 21.37 12.62C19.05 14.94 16.49 17.5 16.49 17.5L30 23.75z            M31.5 25.37L47.87 31C47.87 31 51.34 28.19 53.6 25.63C55.5 23.48 56.25 21.5 56.25 21.5C56.25 21.5 52.21 18.89 47.33 17.12C43.79 15.83 40.72 15.21 40.72 15.21C40.72 15.21 38.67 16.65 36.4 18.79C33.61 21.43 31.5 25.37 31.5 25.37z"
       id="path3" />
    <linearGradient
       id="gradient1"
       gradientUnits="userSpaceOnUse"
       x1="44.72"
       y1="-3.9"
       x2="86.1"
       y2="14.51">
      <stop
         offset="0"
         stop-color="#983f04"
         id="stop4" />
      <stop
         offset="1"
         stop-color="#e6c276"
         id="stop5" />
    </linearGradient>
    <path
       style="fill:url(#gradient1)"
       d="M46.62 33C46.62 33 44.98 36.22 42.34 39.46C39.67 42.72 36 46 36 46V61.25C36 61.25 39.12 58.87 42.12 54.92C44.88 51.29 46.77 47.67 46.77 47.67C46.77 47.67 47.23 44.08 47.2 40.36C47.16 36.62 46.62 33 46.62 33z            M47.87 31L47.92 45.96C47.92 45.96 51.84 42.11 54.36 38.78C56.29 36.24 57 33.62 57 33.62C57 33.62 58 29.95 58 26.37C58 23.53 56.25 21.5 56.25 21.5C56.25 21.5 55.5 23.48 53.6 25.63C51.34 28.19 47.87 31 47.87 31z"
       id="path5" />
    <linearGradient
       id="gradient2"
       gradientUnits="userSpaceOnUse"
       x1="17.72"
       y1="94.92"
       x2="-10.6"
       y2="75.85">
      <stop
         offset="0"
         stop-color="#e1ab36"
         id="stop6" />
      <stop
         offset="1"
         stop-color="#ffebc0"
         id="stop7" />
    </linearGradient>
    <path
       style="fill:url(#gradient2)"
       d="M36 46L18.62 38.62C18.62 38.62 18.24 41.59 18.24 44.88C18.24 48.98 18.87 53.47 18.87 53.47C18.87 53.47 22.15 55.66 26.3 57.86C30.99 60.35 36 61.25 36 61.25V46z"
       id="path7" />
    <linearGradient
       id="gradient3"
       gradientUnits="userSpaceOnUse"
       x1="2.85"
       y1="-60"
       x2="21.14"
       y2="-60">
      <stop
         offset="0"
         stop-color="#ffefce"
         id="stop8" />
      <stop
         offset="1"
         stop-color="#ffd16e"
         id="stop9" />
    </linearGradient>
    <path
       style="fill:url(#gradient3)"
       d="M3 32C3 32 2 34.47 2 37.25C2 40.86 2.62 44.62 2.62 44.62C2.62 44.62 4.97 46.57 8.23 48.3C12.2 50.4 16.61 51.73 16.61 51.73L16.62 37.87L3 32z"
       id="path9" />
    <path
       style="fill:none; stroke:#010000; stroke-width:2; stroke-linecap:round"
       d="M31 34C31 34 31 22 26 19C22.16 16.69 11 24 18 25C25 26 43 23 47 26C49.26 27.69 43 34 38 33C34.07 32.21 31 24 31 24C31 24 28.37 24.67 24 27.25C19.88 29.67 15 31.25 15 31.25"
       id="path10" />
    <path
       style="fill:none; stroke:#010000; stroke-width:2"
       d="M31 24V14"
       id="path11" />
    <path
       style="fill:none; stroke:#010000; stroke-width:4; stroke-linejoin:round"
       d="M30 16V2C30 2 36 4 41 4C45 4 53 2 58 2V16C53 16 45 18 41 18C36 18 30 16 30 16z"
       id="path12" />
    <linearGradient
       id="gradient4"
       gradientUnits="userSpaceOnUse"
       x1="38.95"
       y1="-23.75"
       x2="66"
       y2="-12.14">
      <stop
         offset="0"
         stop-color="#ffc0c0"
         id="stop12" />
      <stop
         offset="1"
         stop-color="#ff9e9e"
         id="stop13" />
    </linearGradient>
    <path
       style="fill:url(#gradient4)"
       d="M30 16V2C30 2 36 4 41 4C45 4 53 2 58 2V16C53 16 45 18 41 18C36 18 30 16 30 16z"
       id="path13" />
    <path
       style="fill:none; stroke:#010000; stroke-width:2; stroke-linecap:round; stroke-linejoin:round"
       d="M32 7H38            M35 7V14            M49 14V7C49 7 53 6 53 9C53 12 50 11 50 11L54 14            M40 14L43 7L46 14            M41 12H45"
       id="path14" />
  </g>
  <g
     id="g3050"
     transform="matrix(0.72668396,0,0,0.72668396,21.177545,16.512158)">
    <path
       id="path3052"
       d="M 38,64 H 48 C 52,64 60,56 58,54 56,52 46,50 46,50 Z"
       style="fill:#010101;fill-opacity:0.4431" />
    <path
       id="path3054"
       d="m 14,50 c 0,0 5,3 11,6 6,3 13,6 13,6 l 8,-8 V 30 C 46,30 38.81,27.27 32,25 27.15,23.38 22,22 22,22 l -8,4 z"
       style="fill:none;stroke:#000000;stroke-width:4;stroke-linejoin:round" />
    <linearGradient
       y2="12.16"
       x2="45.959999"
       y1="5.4000001"
       x1="11.12"
       gradientUnits="userSpaceOnUse"
       id="linearGradient3">
      <stop
         id="stop1"
         stop-color="#fffbcc"
         offset="0" />
      <stop
         id="stop2-5"
         stop-color="#f3d048"
         offset="1" />
      <stop
         id="stop3-3"
         stop-color="#d1af27"
         offset="0.7572" />
    </linearGradient>
    <path
       id="path3063"
       d="m 14,50 c 0,0 5,3 11,6 6,3 13,6 13,6 V 36 C 38,36 31,33.5 25,31 19,28.5 14,26 14,26 Z"
       style="fill:url(#gradient0-5)" />
    <linearGradient
       y2="12.92"
       x2="58.709999"
       y1="10.16"
       x1="42.830002"
       gradientUnits="userSpaceOnUse"
       id="linearGradient6">
      <stop
         id="stop4-5"
         stop-color="#9e8707"
         offset="0.1847" />
      <stop
         id="stop5-6"
         stop-color="#b59e04"
         offset="0" />
      <stop
         id="stop6-2"
         stop-color="#eec740"
         offset="1" />
    </linearGradient>
    <path
       id="path3072"
       d="m 38,62 8,-8 V 30 l -8,6 z"
       style="fill:url(#gradient1-9)" />
    <linearGradient
       y2="15.75"
       x2="45.75"
       y1="15.75"
       x1="26.25"
       gradientUnits="userSpaceOnUse"
       id="linearGradient10">
      <stop
         id="stop7-9"
         stop-color="#f6e156"
         offset="0.3695" />
      <stop
         id="stop8-1"
         stop-color="#c9a514"
         offset="0.5833" />
      <stop
         id="stop9-2"
         stop-color="#f7e35d"
         offset="1" />
      <stop
         id="stop10"
         stop-color="#c9a515"
         offset="0" />
    </linearGradient>
    <path
       id="path3083"
       d="m 24,28 h 12 v 5 h 6 l 4,-3 C 46,30 34.88,25.96 32,25 30.97,24.65 29.92,24.32 28.91,24.01 L 26,24 Z"
       style="fill:url(#gradient2-3)" />
    <linearGradient
       y2="-6"
       x2="46"
       y1="-6"
       x1="18"
       gradientUnits="userSpaceOnUse"
       id="linearGradient12">
      <stop
         id="stop11"
         stop-color="#fff8ea"
         offset="0" />
      <stop
         id="stop12-7"
         stop-color="#f5de63"
         offset="1" />
    </linearGradient>
    <path
       id="path3090"
       d="m 14,26 c 0,0 5,2.5 11,5 6,2.5 13,5 13,5 l 4,-3 H 36 V 28 H 24 l 2,-4 2.91,0.01 C 25.19,22.85 22,22 22,22 Z"
       style="fill:url(#gradient3-6)" />
    <path
       id="path3092"
       d="m 25,38 c -3,-1 -2,3.43 0,4.43 l -2,6.57 4,2 2,3 -8,-3.75 2,-6.25 c -2,-1 -3,-8 2,-6 z"
       style="fill:#625a02" />
    <path
       id="path3094"
       d="m 25,38 c 5,2 4,9 2,8 l 2,8 -2,-3 -4,-2 2,-6.57 C 23,41.43 22,37 25,38 Z M 22,17 v 8 c 0,0.66 0.67,1 2,1 1.32,0 2,-0.34 2,-1 v -6 c 0,-4 0,-10 4,-9 4,1 4,8 4,13 v 7 c 0,1 0.98,1.03 2,1 0.97,-0.03 2,0 2,-1 V 25 C 38,20 39,8 30,6 23.45,4.54 22,12 22,17 Z"
       style="fill:#272401" />
    <path
       id="path3096"
       d="m 22,17 v 8 c 0,0.66 0.67,1 2,1 1.32,0 2,-0.34 2,-1 v -6 c 0,-4 0,-10 4,-9 4,1 4,8 4,13 v 7 c 0,1 0.98,1.03 2,1 0.97,-0.03 2,0 2,-1 V 25 C 38,20 39,8 30,6 23.45,4.54 22,12 22,17 Z"
       style="fill:none;stroke:#000000;stroke-width:4;stroke-linecap:round" />
    <radialGradient
       gradientTransform="matrix(0.2161,-0.0247,0.0534,0.4665,30.2118,22.626)"
       r="64"
       cy="0"
       cx="0"
       gradientUnits="userSpaceOnUse"
       id="radialGradient15">
      <stop
         id="stop13-0"
         stop-color="#bebebe"
         offset="0.2971" />
      <stop
         id="stop14"
         stop-color="#ffffff"
         offset="0.6014" />
      <stop
         id="stop15"
         stop-color="#767676"
         offset="0.3949" />
    </radialGradient>
    <path
       id="path3105"
       d="m 22,17 v 8 c 0,0.66 0.67,1 2,1 1.32,0 2,-0.34 2,-1 v -6 c 0,-4 0,-10 4,-9 4,1 4,8 4,13 v 7 c 0,1 0.98,1.03 2,1 0.97,-0.03 2,0 2,-1 V 25 C 38,20 39,8 30,6 23.45,4.54 22,12 22,17 Z"
       style="fill:url(#gradient4-7)" />
  </g>
  <g
     id="g1412"
     transform="matrix(1.7198428,0,0,1.7198428,-0.97173154,2.1456363)"
     style="fill:#000000;fill-opacity:1;stroke:none">
    <path
       d="m 12.157274,12.797365 v -0.27878 h 0.736776 v -2.146927 l -0.736776,0.166153 v -0.227803 l 1.105244,-0.3453687 v 2.5537867 h 0.736776 v 0.27878 h -1.84202 z"
       id="path3731"
       style="fill:#000000;fill-opacity:1;stroke:none" />
    <path
       d="m 16.414487,12.866981 c -0.28786,0 -0.517575,-0.131266 -0.688826,-0.394116 -0.171251,-0.26285 -0.256956,-0.615547 -0.256956,-1.058887 0,-0.441907 0.08571,-0.793966 0.256956,-1.056179 0.171251,-0.262213 0.400966,-0.3931597 0.688826,-0.3931597 0.287861,0 0.517416,0.1309467 0.688826,0.3931597 0.17141,0.262213 0.257115,0.614113 0.257115,1.056179 0,0.44334 -0.0857,0.796196 -0.257115,1.058887 -0.17141,0.262691 -0.401125,0.394116 -0.688826,0.394116 z m 0,-0.278781 c 0.368468,0 0.552622,-0.391407 0.552622,-1.174222 0,-0.780266 -0.184154,-1.170558 -0.552622,-1.170558 -0.368468,0 -0.552622,0.390133 -0.552622,1.170558 0,0.782815 0.184154,1.174222 0.552622,1.174222 z"
       id="path3732"
       style="fill:#000000;fill-opacity:1;stroke:none" />
    <path
       d="m 19.058598,12.797365 v -0.27878 h 0.736777 v -2.146927 l -0.736777,0.166153 v -0.227803 l 1.105245,-0.3453687 v 2.5537867 h 0.736776 v 0.27878 h -1.842021 z"
       id="path3733"
       style="fill:#000000;fill-opacity:1;stroke:none" />
    <path
       d="m 23.315652,12.866981 c -0.28786,0 -0.517575,-0.131266 -0.688826,-0.394116 -0.17125,-0.26285 -0.256955,-0.615547 -0.256955,-1.058887 0,-0.441907 0.08571,-0.793966 0.256955,-1.056179 0.171251,-0.262213 0.400966,-0.3931597 0.688826,-0.3931597 0.287861,0 0.517417,0.1309467 0.688827,0.3931597 0.17141,0.262213 0.257115,0.614113 0.257115,1.056179 0,0.44334 -0.0857,0.796196 -0.257115,1.058887 -0.17141,0.262691 -0.400966,0.394116 -0.688827,0.394116 z m 0,-0.278781 c 0.368468,0 0.552623,-0.391407 0.552623,-1.174222 0,-0.780266 -0.184155,-1.170558 -0.552623,-1.170558 -0.368467,0 -0.552622,0.390133 -0.552622,1.170558 1.6e-4,0.782815 0.184314,1.174222 0.552622,1.174222 z"
       id="path3734"
       style="fill:#000000;fill-opacity:1;stroke:none" />
    <path
       d="m 25.959923,12.797365 v -0.27878 h 0.736776 v -2.146927 l -0.736776,0.166153 v -0.227803 l 1.105244,-0.3453687 v 2.5537867 h 0.736777 v 0.27878 h -1.842021 z"
       id="path3735"
       style="fill:#000000;fill-opacity:1;stroke:none" />
    <path
       d="m 30.216977,12.866981 c -0.28802,0 -0.517575,-0.131266 -0.688826,-0.394116 -0.171251,-0.26285 -0.256956,-0.615547 -0.256956,-1.058887 0,-0.441907 0.08571,-0.793966 0.256956,-1.056179 0.171251,-0.262213 0.400966,-0.3931597 0.688826,-0.3931597 0.287861,0 0.517416,0.1309467 0.688667,0.3931597 0.17141,0.262213 0.257115,0.614113 0.257115,1.056179 0,0.44334 -0.08571,0.796196 -0.257115,1.058887 -0.171251,0.26285 -0.400806,0.394116 -0.688667,0.394116 z m 0,-0.278781 c 0.368468,0 0.552622,-0.391407 0.552622,-1.174222 0,-0.780266 -0.184154,-1.170558 -0.552622,-1.170558 -0.368468,0 -0.552622,0.390133 -0.552622,1.170558 0,0.782815 0.184313,1.174222 0.552622,1.174222 z"
       id="path3736"
       style="fill:#000000;fill-opacity:1;stroke:none" />
    <path
       d="m 33.667639,12.866981 c -0.28786,0 -0.517416,-0.131266 -0.688826,-0.394116 -0.17141,-0.26285 -0.256956,-0.615547 -0.256956,-1.058887 0,-0.441907 0.08555,-0.793966 0.256956,-1.056179 0.17141,-0.262213 0.401125,-0.3931597 0.688826,-0.3931597 0.287702,0 0.517416,0.1309467 0.688826,0.3931597 0.171251,0.262213 0.256956,0.614113 0.256956,1.056179 0,0.44334 -0.08571,0.796196 -0.256956,1.058887 -0.17141,0.26285 -0.400965,0.394116 -0.688826,0.394116 z m 0,-0.278781 c 0.368468,0 0.552622,-0.391407 0.552622,-1.174222 0,-0.780266 -0.184154,-1.170558 -0.552622,-1.170558 -0.368468,0 -0.552622,0.390133 -0.552622,1.170558 1.6e-4,0.782815 0.184314,1.174222 0.552622,1.174222 z"
       id="path3737"
       style="fill:#000000;fill-opacity:1;stroke:none" />
    <path
       d="m 12.157274,18.532273 v -0.27878 h 0.736776 v -2.146927 l -0.736776,0.166153 v -0.227803 l 1.105244,-0.345369 v 2.553787 h 0.736776 v 0.27878 h -1.84202 z"
       id="path3740"
       style="fill:#000000;fill-opacity:1;stroke:none" />
    <path
       d="m 16.414487,18.601889 c -0.28786,0 -0.517575,-0.131266 -0.688826,-0.394116 -0.171251,-0.26285 -0.256956,-0.615547 -0.256956,-1.058887 0,-0.441907 0.08571,-0.793966 0.256956,-1.056179 0.171251,-0.262213 0.400966,-0.39316 0.688826,-0.39316 0.287861,0 0.517416,0.130947 0.688826,0.39316 0.17141,0.262213 0.257115,0.614113 0.257115,1.056179 0,0.44334 -0.0857,0.796196 -0.257115,1.058887 -0.17141,0.262691 -0.401125,0.394116 -0.688826,0.394116 z m 0,-0.278781 c 0.368468,0 0.552622,-0.391407 0.552622,-1.174222 0,-0.780266 -0.184154,-1.170558 -0.552622,-1.170558 -0.368468,0 -0.552622,0.390133 -0.552622,1.170558 0,0.782815 0.184154,1.174222 0.552622,1.174222 z"
       id="path3741"
       style="fill:#000000;fill-opacity:1;stroke:none" />
    <path
       d="m 19.058598,18.532273 v -0.27878 h 0.736777 v -2.146927 l -0.736777,0.166153 v -0.227803 l 1.105245,-0.345369 v 2.553787 h 0.736776 v 0.27878 h -1.842021 z"
       id="path3742"
       style="fill:#000000;fill-opacity:1;stroke:none" />
    <path
       d="m 23.315652,18.601889 c -0.28786,0 -0.517575,-0.131266 -0.688826,-0.394116 -0.17125,-0.26285 -0.256955,-0.615547 -0.256955,-1.058887 0,-0.441907 0.08571,-0.793966 0.256955,-1.056179 0.171251,-0.262213 0.400966,-0.39316 0.688826,-0.39316 0.287861,0 0.517417,0.130947 0.688827,0.39316 0.17141,0.262213 0.257115,0.614113 0.257115,1.056179 0,0.44334 -0.0857,0.796196 -0.257115,1.058887 -0.17141,0.262691 -0.400966,0.394116 -0.688827,0.394116 z m 0,-0.278781 c 0.368468,0 0.552623,-0.391407 0.552623,-1.174222 0,-0.780266 -0.184155,-1.170558 -0.552623,-1.170558 -0.368467,0 -0.552622,0.390133 -0.552622,1.170558 1.6e-4,0.782815 0.184314,1.174222 0.552622,1.174222 z"
       id="path3743"
       style="fill:#000000;fill-opacity:1;stroke:none" />
    <path
       d="m 26.766315,18.601889 c -0.287861,0 -0.517416,-0.131266 -0.688826,-0.394116 -0.17141,-0.26285 -0.256956,-0.615547 -0.256956,-1.058887 0,-0.441907 0.08555,-0.793966 0.256956,-1.056179 0.17141,-0.262213 0.401125,-0.39316 0.688826,-0.39316 0.287701,0 0.517416,0.130947 0.688826,0.39316 0.171251,0.262213 0.256956,0.614113 0.256956,1.056179 0,0.44334 -0.08571,0.796196 -0.256956,1.058887 -0.17141,0.26285 -0.400966,0.394116 -0.688826,0.394116 z m 0,-0.278781 c 0.368468,0 0.552622,-0.391407 0.552622,-1.174222 0,-0.780266 -0.184154,-1.170558 -0.552622,-1.170558 -0.368468,0 -0.552622,0.390133 -0.552622,1.170558 0,0.782815 0.184313,1.174222 0.552622,1.174222 z"
       id="path3744"
       style="fill:#000000;fill-opacity:1;stroke:none" />
    <path
       d="m 30.216977,18.601889 c -0.28802,0 -0.517575,-0.131266 -0.688826,-0.394116 -0.171251,-0.26285 -0.256956,-0.615547 -0.256956,-1.058887 0,-0.441907 0.08571,-0.793966 0.256956,-1.056179 0.171251,-0.262213 0.400966,-0.39316 0.688826,-0.39316 0.287861,0 0.517416,0.130947 0.688667,0.39316 0.17141,0.262213 0.257115,0.614113 0.257115,1.056179 0,0.44334 -0.08571,0.796196 -0.257115,1.058887 -0.171251,0.26285 -0.400806,0.394116 -0.688667,0.394116 z m 0,-0.278781 c 0.368468,0 0.552622,-0.391407 0.552622,-1.174222 0,-0.780266 -0.184154,-1.170558 -0.552622,-1.170558 -0.368468,0 -0.552622,0.390133 -0.552622,1.170558 0,0.782815 0.184313,1.174222 0.552622,1.174222 z"
       id="path3745"
       style="fill:#000000;fill-opacity:1;stroke:none" />
    <path
       d="m 33.667639,18.601889 c -0.28786,0 -0.517416,-0.131266 -0.688826,-0.394116 -0.17141,-0.26285 -0.256956,-0.615547 -0.256956,-1.058887 0,-0.441907 0.08555,-0.793966 0.256956,-1.056179 0.17141,-0.262213 0.401125,-0.39316 0.688826,-0.39316 0.287702,0 0.517416,0.130947 0.688826,0.39316 0.171251,0.262213 0.256956,0.614113 0.256956,1.056179 0,0.44334 -0.08571,0.796196 -0.256956,1.058887 -0.17141,0.26285 -0.400965,0.394116 -0.688826,0.394116 z m 0,-0.278781 c 0.368468,0 0.552622,-0.391407 0.552622,-1.174222 0,-0.780266 -0.184154,-1.170558 -0.552622,-1.170558 -0.368468,0 -0.552622,0.390133 -0.552622,1.170558 1.6e-4,0.782815 0.184314,1.174222 0.552622,1.174222 z"
       id="path3746"
       style="fill:#000000;fill-opacity:1;stroke:none" />
    <path
       d="m 12.963666,24.336797 c -0.287861,0 -0.517576,-0.131266 -0.688827,-0.394116 -0.17125,-0.26285 -0.256955,-0.615547 -0.256955,-1.058887 0,-0.441907 0.0857,-0.793966 0.256955,-1.056179 0.171251,-0.262213 0.400966,-0.39316 0.688827,-0.39316 0.28786,0 0.517416,0.130947 0.688826,0.39316 0.17141,0.262213 0.257115,0.614113 0.257115,1.056179 0,0.44334 -0.0857,0.796196 -0.257115,1.058887 -0.17141,0.262691 -0.400966,0.394116 -0.688826,0.394116 z m 0,-0.278781 c 0.368467,0 0.552622,-0.391407 0.552622,-1.174222 0,-0.780266 -0.184155,-1.170558 -0.552622,-1.170558 -0.368468,0 -0.552622,0.390133 -0.552622,1.170558 1.59e-4,0.782815 0.184313,1.174222 0.552622,1.174222 z"
       id="path3749"
       style="fill:#000000;fill-opacity:1;stroke:none" />
    <path
       d="m 15.607936,24.267181 v -0.27878 h 0.736776 v -2.146927 l -0.736776,0.166153 v -0.227803 l 1.105244,-0.345369 v 2.553787 h 0.736777 v 0.27878 h -1.842021 z"
       id="path3750"
       style="fill:#000000;fill-opacity:1;stroke:none" />
    <path
       d="m 19.86499,24.336797 c -0.28786,0 -0.517575,-0.131266 -0.688826,-0.394116 -0.171251,-0.26285 -0.256956,-0.615547 -0.256956,-1.058887 0,-0.441907 0.0857,-0.793966 0.256956,-1.056179 0.171251,-0.262213 0.400966,-0.39316 0.688826,-0.39316 0.287861,0 0.517416,0.130947 0.688826,0.39316 0.17141,0.262213 0.257115,0.614113 0.257115,1.056179 0,0.44334 -0.08571,0.796196 -0.257115,1.058887 -0.17141,0.262691 -0.400965,0.394116 -0.688826,0.394116 z m 0,-0.278781 c 0.368468,0 0.552622,-0.391407 0.552622,-1.174222 0,-0.780266 -0.184154,-1.170558 -0.552622,-1.170558 -0.368468,0 -0.552622,0.390133 -0.552622,1.170558 0,0.782815 0.184314,1.174222 0.552622,1.174222 z"
       id="path3751"
       style="fill:#000000;fill-opacity:1;stroke:none" />
    <path
       d="m 22.509261,24.267181 v -0.27878 h 0.736776 v -2.146927 l -0.736776,0.166153 v -0.227803 l 1.105244,-0.345369 v 2.553787 h 0.736776 v 0.27878 h -1.84202 z"
       id="path3752"
       style="fill:#000000;fill-opacity:1;stroke:none" />
    <path
       d="m 25.959923,24.267181 v -0.27878 h 0.736776 v -2.146927 l -0.736776,0.166153 v -0.227803 l 1.105244,-0.345369 v 2.553787 h 0.736777 v 0.27878 h -1.842021 z"
       id="path3753"
       style="fill:#000000;fill-opacity:1;stroke:none" />
    <path
       d="m 30.216977,24.336797 c -0.28802,0 -0.517575,-0.131266 -0.688826,-0.394116 -0.171251,-0.26285 -0.256956,-0.615547 -0.256956,-1.058887 0,-0.441907 0.08571,-0.793966 0.256956,-1.056179 0.171251,-0.262213 0.400966,-0.39316 0.688826,-0.39316 0.287861,0 0.517416,0.130947 0.688667,0.39316 0.17141,0.262213 0.257115,0.614113 0.257115,1.056179 0,0.44334 -0.08571,0.796196 -0.257115,1.058887 -0.171251,0.26285 -0.400806,0.394116 -0.688667,0.394116 z m 0,-0.278781 c 0.368468,0 0.552622,-0.391407 0.552622,-1.174222 0,-0.780266 -0.184154,-1.170558 -0.552622,-1.170558 -0.368468,0 -0.552622,0.390133 -0.552622,1.170558 0,0.782815 0.184313,1.174222 0.552622,1.174222 z"
       id="path3754"
       style="fill:#000000;fill-opacity:1;stroke:none" />
    <path
       d="m 32.861248,24.267181 v -0.27878 h 0.736776 v -2.146927 l -0.736776,0.166153 v -0.227803 l 1.105244,-0.345369 v 2.553787 h 0.736776 v 0.27878 h -1.84202 z"
       id="path3755"
       style="fill:#000000;fill-opacity:1;stroke:none" />
    <path
       d="m 12.963666,30.071705 c -0.287861,0 -0.517576,-0.131266 -0.688827,-0.394116 -0.17125,-0.26285 -0.256955,-0.615547 -0.256955,-1.058887 0,-0.441907 0.0857,-0.793966 0.256955,-1.056179 0.171251,-0.262213 0.400966,-0.39316 0.688827,-0.39316 0.28786,0 0.517416,0.130947 0.688826,0.39316 0.17141,0.262213 0.257115,0.614113 0.257115,1.056179 0,0.44334 -0.0857,0.796196 -0.257115,1.058887 -0.17141,0.262691 -0.400966,0.394116 -0.688826,0.394116 z m 0,-0.278781 c 0.368467,0 0.552622,-0.391407 0.552622,-1.174222 0,-0.780266 -0.184155,-1.170558 -0.552622,-1.170558 -0.368468,0 -0.552622,0.390133 -0.552622,1.170558 1.59e-4,0.782815 0.184313,1.174222 0.552622,1.174222 z"
       id="path3758"
       style="fill:#000000;fill-opacity:1;stroke:none" />
    <path
       d="m 16.414487,30.071705 c -0.28786,0 -0.517575,-0.131266 -0.688826,-0.394116 -0.171251,-0.26285 -0.256956,-0.615547 -0.256956,-1.058887 0,-0.441907 0.08571,-0.793966 0.256956,-1.056179 0.171251,-0.262213 0.400966,-0.39316 0.688826,-0.39316 0.287861,0 0.517416,0.130947 0.688826,0.39316 0.17141,0.262213 0.257115,0.614113 0.257115,1.056179 0,0.44334 -0.0857,0.796196 -0.257115,1.058887 -0.17141,0.262691 -0.401125,0.394116 -0.688826,0.394116 z m 0,-0.278781 c 0.368468,0 0.552622,-0.391407 0.552622,-1.174222 0,-0.780266 -0.184154,-1.170558 -0.552622,-1.170558 -0.368468,0 -0.552622,0.390133 -0.552622,1.170558 0,0.782815 0.184154,1.174222 0.552622,1.174222 z"
       id="path3759"
       style="fill:#000000;fill-opacity:1;stroke:none" />
    <path
       d="m 19.058598,30.002089 v -0.27878 h 0.736777 v -2.146927 l -0.736777,0.166153 v -0.227803 l 1.105245,-0.345369 v 2.553787 h 0.736776 v 0.27878 h -1.842021 z"
       id="path3760"
       style="fill:#000000;fill-opacity:1;stroke:none" />
    <path
       d="m 23.315652,30.071705 c -0.28786,0 -0.517575,-0.131266 -0.688826,-0.394116 -0.17125,-0.26285 -0.256955,-0.615547 -0.256955,-1.058887 0,-0.441907 0.08571,-0.793966 0.256955,-1.056179 0.171251,-0.262213 0.400966,-0.39316 0.688826,-0.39316 0.287861,0 0.517417,0.130947 0.688827,0.39316 0.17141,0.262213 0.257115,0.614113 0.257115,1.056179 0,0.44334 -0.0857,0.796196 -0.257115,1.058887 -0.17141,0.262691 -0.400966,0.394116 -0.688827,0.394116 z m 0,-0.278781 c 0.368468,0 0.552623,-0.391407 0.552623,-1.174222 0,-0.780266 -0.184155,-1.170558 -0.552623,-1.170558 -0.368467,0 -0.552622,0.390133 -0.552622,1.170558 1.6e-4,0.782815 0.184314,1.174222 0.552622,1.174222 z"
       id="path3761"
       style="fill:#000000;fill-opacity:1;stroke:none" />
    <path
       d="m 25.959923,30.002089 v -0.27878 h 0.736776 v -2.146927 l -0.736776,0.166153 v -0.227803 l 1.105244,-0.345369 v 2.553787 h 0.736777 v 0.27878 h -1.842021 z"
       id="path3762"
       style="fill:#000000;fill-opacity:1;stroke:none" />
    <path
       d="m 30.216977,30.071705 c -0.28802,0 -0.517575,-0.131266 -0.688826,-0.394116 -0.171251,-0.26285 -0.256956,-0.615547 -0.256956,-1.058887 0,-0.441907 0.08571,-0.793966 0.256956,-1.056179 0.171251,-0.262213 0.400966,-0.39316 0.688826,-0.39316 0.287861,0 0.517416,0.130947 0.688667,0.39316 0.17141,0.262213 0.257115,0.614113 0.257115,1.056179 0,0.44334 -0.08571,0.796196 -0.257115,1.058887 -0.171251,0.26285 -0.400806,0.394116 -0.688667,0.394116 z m 0,-0.278781 c 0.368468,0 0.552622,-0.391407 0.552622,-1.174222 0,-0.780266 -0.184154,-1.170558 -0.552622,-1.170558 -0.368468,0 -0.552622,0.390133 -0.552622,1.170558 0,0.782815 0.184313,1.174222 0.552622,1.174222 z"
       id="path3763"
       style="fill:#000000;fill-opacity:1;stroke:none" />
    <path
       d="m 33.667639,30.071705 c -0.28786,0 -0.517416,-0.131266 -0.688826,-0.394116 -0.17141,-0.26285 -0.256956,-0.615547 -0.256956,-1.058887 0,-0.441907 0.08555,-0.793966 0.256956,-1.056179 0.17141,-0.262213 0.401125,-0.39316 0.688826,-0.39316 0.287702,0 0.517416,0.130947 0.688826,0.39316 0.171251,0.262213 0.256956,0.614113 0.256956,1.056179 0,0.44334 -0.08571,0.796196 -0.256956,1.058887 -0.17141,0.26285 -0.400965,0.394116 -0.688826,0.394116 z m 0,-0.278781 c 0.368468,0 0.552622,-0.391407 0.552622,-1.174222 0,-0.780266 -0.184154,-1.170558 -0.552622,-1.170558 -0.368468,0 -0.552622,0.390133 -0.552622,1.170558 1.6e-4,0.782815 0.184314,1.174222 0.552622,1.174222 z"
       id="path3764"
       style="fill:#000000;fill-opacity:1;stroke:none" />
    <path
       d="m 12.963666,35.806613 c -0.287861,0 -0.517576,-0.131266 -0.688827,-0.394116 -0.17125,-0.26285 -0.256955,-0.615547 -0.256955,-1.058887 0,-0.441907 0.0857,-0.793966 0.256955,-1.056179 0.171251,-0.262213 0.400966,-0.39316 0.688827,-0.39316 0.28786,0 0.517416,0.130947 0.688826,0.39316 0.17141,0.262213 0.257115,0.614113 0.257115,1.056179 0,0.44334 -0.0857,0.796196 -0.257115,1.058887 -0.17141,0.262691 -0.400966,0.394116 -0.688826,0.394116 z m 0,-0.278781 c 0.368467,0 0.552622,-0.391407 0.552622,-1.174222 0,-0.780266 -0.184155,-1.170558 -0.552622,-1.170558 -0.368468,0 -0.552622,0.390133 -0.552622,1.170558 1.59e-4,0.782815 0.184313,1.174222 0.552622,1.174222 z"
       id="path3767"
       style="fill:#000000;fill-opacity:1;stroke:none" />
    <path
       d="m 15.607936,35.736997 v -0.27878 h 0.736776 V 33.31129 l -0.736776,0.166153 V 33.24964 l 1.105244,-0.345369 v 2.553787 h 0.736777 v 0.27878 h -1.842021 z"
       id="path3768"
       style="fill:#000000;fill-opacity:1;stroke:none" />
    <path
       d="m 19.86499,35.806613 c -0.28786,0 -0.517575,-0.131266 -0.688826,-0.394116 -0.171251,-0.26285 -0.256956,-0.615547 -0.256956,-1.058887 0,-0.441907 0.0857,-0.793966 0.256956,-1.056179 0.171251,-0.262213 0.400966,-0.39316 0.688826,-0.39316 0.287861,0 0.517416,0.130947 0.688826,0.39316 0.17141,0.262213 0.257115,0.614113 0.257115,1.056179 0,0.44334 -0.08571,0.796196 -0.257115,1.058887 -0.17141,0.262691 -0.400965,0.394116 -0.688826,0.394116 z m 0,-0.278781 c 0.368468,0 0.552622,-0.391407 0.552622,-1.174222 0,-0.780266 -0.184154,-1.170558 -0.552622,-1.170558 -0.368468,0 -0.552622,0.390133 -0.552622,1.170558 0,0.782815 0.184314,1.174222 0.552622,1.174222 z"
       id="path3769"
       style="fill:#000000;fill-opacity:1;stroke:none" />
    <path
       d="m 23.315652,35.806613 c -0.28786,0 -0.517575,-0.131266 -0.688826,-0.394116 -0.17125,-0.26285 -0.256955,-0.615547 -0.256955,-1.058887 0,-0.441907 0.08571,-0.793966 0.256955,-1.056179 0.171251,-0.262213 0.400966,-0.39316 0.688826,-0.39316 0.287861,0 0.517417,0.130947 0.688827,0.39316 0.17141,0.262213 0.257115,0.614113 0.257115,1.056179 0,0.44334 -0.0857,0.796196 -0.257115,1.058887 -0.17141,0.262691 -0.400966,0.394116 -0.688827,0.394116 z m 0,-0.278781 c 0.368468,0 0.552623,-0.391407 0.552623,-1.174222 0,-0.780266 -0.184155,-1.170558 -0.552623,-1.170558 -0.368467,0 -0.552622,0.390133 -0.552622,1.170558 1.6e-4,0.782815 0.184314,1.174222 0.552622,1.174222 z"
       id="path3770"
       style="fill:#000000;fill-opacity:1;stroke:none" />
    <path
       d="m 26.766315,35.806613 c -0.287861,0 -0.517416,-0.131266 -0.688826,-0.394116 -0.17141,-0.26285 -0.256956,-0.615547 -0.256956,-1.058887 0,-0.441907 0.08555,-0.793966 0.256956,-1.056179 0.17141,-0.262213 0.401125,-0.39316 0.688826,-0.39316 0.287701,0 0.517416,0.130947 0.688826,0.39316 0.171251,0.262213 0.256956,0.614113 0.256956,1.056179 0,0.44334 -0.08571,0.796196 -0.256956,1.058887 -0.17141,0.26285 -0.400966,0.394116 -0.688826,0.394116 z m 0,-0.278781 c 0.368468,0 0.552622,-0.391407 0.552622,-1.174222 0,-0.780266 -0.184154,-1.170558 -0.552622,-1.170558 -0.368468,0 -0.552622,0.390133 -0.552622,1.170558 0,0.782815 0.184313,1.174222 0.552622,1.174222 z"
       id="path3771"
       style="fill:#000000;fill-opacity:1;stroke:none" />
    <path
       d="m 29.410585,35.736997 v -0.27878 h 0.736777 V 33.31129 l -0.736777,0.166153 V 33.24964 l 1.105244,-0.345369 v 2.553787 h 0.736777 v 0.27878 h -1.842021 z"
       id="path3772"
       style="fill:#000000;fill-opacity:1;stroke:none" />
    <path
       d="m 32.861248,35.736997 v -0.27878 h 0.736776 V 33.31129 l -0.736776,0.166153 V 33.24964 l 1.105244,-0.345369 v 2.553787 h 0.736776 v 0.27878 h -1.84202 z"
       id="path3773"
       style="fill:#000000;fill-opacity:1;stroke:none" />
  </g>
</svg>
