<?xml version="1.0" encoding="UTF-8" standalone="no"?>
<svg
   version="1.1"
   width="64"
   height="64"
   color-interpolation="linearRGB"
   id="svg12"
   sodipodi:docname="application-vnd.ms-htmlhelp.svg"
   inkscape:version="1.4 (e7c3feb100, 2024-10-09)"
   xml:space="preserve"
   xmlns:inkscape="http://www.inkscape.org/namespaces/inkscape"
   xmlns:sodipodi="http://sodipodi.sourceforge.net/DTD/sodipodi-0.dtd"
   xmlns="http://www.w3.org/2000/svg"
   xmlns:svg="http://www.w3.org/2000/svg"><defs
     id="defs12"><linearGradient
       y2="-22.940001"
       x2="42.889999"
       y1="-30.82"
       x1="18.370001"
       gradientUnits="userSpaceOnUse"
       id="gradient0-3"><stop
         id="stop7516"
         stop-color="#919292"
         offset="0" /><stop
         id="stop7518"
         stop-color="#d5d5d5"
         offset="1" /></linearGradient><linearGradient
       y2="-23"
       x2="52"
       y1="-23"
       x1="40"
       gradientUnits="userSpaceOnUse"
       id="gradient1-6"><stop
         id="stop7525"
         stop-color="#f8f8f8"
         offset="0.3686" /><stop
         id="stop7527"
         stop-color="#c7c7c7"
         offset="0.5176" /></linearGradient><linearGradient
       y2="9.5600004"
       x2="31.860001"
       y1="0.81"
       x1="19.129999"
       gradientUnits="userSpaceOnUse"
       id="gradient2-7"><stop
         id="stop7534"
         stop-color="#97bbff"
         offset="0.0509" /><stop
         id="stop7536"
         stop-opacity="0.9137"
         stop-color="#4168db"
         offset="0.4823" /><stop
         id="stop7538"
         stop-opacity="0.5921"
         stop-color="#4168db"
         offset="1" /></linearGradient><linearGradient
       y2="-37.23"
       x2="95.970001"
       y1="-48.490002"
       x1="79.599998"
       gradientUnits="userSpaceOnUse"
       id="gradient3-3"><stop
         id="stop7543"
         stop-opacity="0.6235"
         stop-color="#f56a7d"
         offset="0.0509" /><stop
         id="stop7545"
         stop-opacity="0.7803"
         stop-color="#ea064c"
         offset="0.8823" /></linearGradient></defs><sodipodi:namedview
     id="namedview12"
     pagecolor="#ffffff"
     bordercolor="#000000"
     borderopacity="0.25"
     inkscape:showpageshadow="2"
     inkscape:pageopacity="0.0"
     inkscape:pagecheckerboard="0"
     inkscape:deskcolor="#d1d1d1"
     inkscape:zoom="8.140625"
     inkscape:cx="37.466411"
     inkscape:cy="29.850288"
     inkscape:window-width="2560"
     inkscape:window-height="1295"
     inkscape:window-x="1280"
     inkscape:window-y="33"
     inkscape:window-maximized="1"
     inkscape:current-layer="svg12" /><g
     id="g12"><path
       style="fill:#010101; fill-opacity:0.5725"
       d="M27 57L29 59L32.13 55.83L37 59L45.39 47.54L64 38L59 35L61 37L36 49L27 57z            M58 34L62 31L58 29L55 32L58 34z"
       id="path1" /><path
       style="fill:none; stroke:#010101; stroke-width:4"
       d="M6.25 30C6.25 30 11.87 36 16.87 42.5C21.87 49 26.25 55.75 26.25 55.75L59.12 36.87L32 15L6.25 30z"
       id="path2" /><radialGradient
       id="gradient0"
       gradientUnits="userSpaceOnUse"
       cx="0"
       cy="0"
       r="64"
       gradientTransform="matrix(0.5714,0,0,0.3333,26,35)"><stop
         offset="1"
         stop-color="#eaeaea"
         id="stop2" /><stop
         offset="0.4886"
         stop-color="#a3a3a3"
         id="stop3" /></radialGradient><path
       style="fill:url(#gradient0)"
       d="M6.25 30C6.25 30 11.87 36 16.87 42.5C21.87 49 26.25 55.75 26.25 55.75L59.12 36.87L32 15L6.25 30z"
       id="path3" /><path
       style="fill:none; stroke:#010101; stroke-width:4"
       d="M2.62 30.87C2.62 30.87 10.95 36.26 19 41.87C27.44 47.75 35.75 52.75 35.75 52.75L58.12 26.37C58.12 26.37 45.44 20.7 35.37 15.37C30.18 12.62 26 9.37 26 9.37L2.62 30.87z"
       id="path4" /><linearGradient
       id="gradient1"
       gradientUnits="userSpaceOnUse"
       x1="107.04"
       y1="-17.09"
       x2="118.33"
       y2="27.99"><stop
         offset="0"
         stop-color="#d6d6d6"
         id="stop4" /><stop
         offset="0.7424"
         stop-color="#f5f5f5"
         id="stop5" /><stop
         offset="1"
         stop-color="#e6e6e6"
         id="stop6" /></linearGradient><path
       style="fill:url(#gradient1)"
       d="M2.62 30.87C2.62 30.87 10.95 36.26 19 41.87C27.44 47.75 35.75 52.75 35.75 52.75L58.12 26.37C58.12 26.37 45.44 20.7 35.37 15.37C30.18 12.62 26 9.37 26 9.37L2.62 30.87z"
       id="path6" /><linearGradient
       id="gradient2"
       gradientUnits="userSpaceOnUse"
       x1="-47.14"
       y1="-15.78"
       x2="-28.46"
       y2="-37.85"><stop
         offset="0"
         stop-color="#010101"
         id="stop7" /><stop
         offset="1"
         stop-color="#9e9e9e"
         id="stop8" /></linearGradient><path
       style="fill:none; stroke:url(#gradient2); stroke-width:1"
       d=""
       id="path8" /><linearGradient
       id="gradient3"
       gradientUnits="userSpaceOnUse"
       x1="-47.14"
       y1="-15.78"
       x2="-28.46"
       y2="-37.85"><stop
         offset="0"
         stop-color="#010101"
         id="stop9" /><stop
         offset="1"
         stop-color="#9e9e9e"
         id="stop10" /></linearGradient><path
       style="fill:none; stroke:url(#gradient3); stroke-width:1"
       d=""
       id="path10" /></g><g
     style="color-interpolation:linearRGB"
     id="g1"
     transform="matrix(0.58466936,0,0,0.58466936,13.042807,8.2311343)"><g
       id="g12-3"><path
         style="fill:#000000;fill-opacity:0.4"
         d="M 30,8 C 14.6,8 2,18.12 2,30.5 2,42.86 14.6,53 30,53 45.4,53 58,42.86 58,30.5 58,18.12 45.4,8 30,8 Z"
         transform="matrix(1.0892,0,0,0.9777,0.8214,8.1777)"
         id="path1-7" /><path
         style="fill:none;stroke:#000000;stroke-width:4"
         d="M 30,8 C 14.6,8 2,18.12 2,30.5 2,42.86 14.6,53 30,53 45.4,53 58,42.86 58,30.5 58,18.12 45.4,8 30,8 Z m 0,26.38 c -5.13,0 -9.32,-2.6 -9.32,-3.88 0,-1.3 4.19,-3.89 9.32,-3.89 5.13,0 9.31,2.59 9.31,3.89 0,1.28 -4.18,3.88 -9.31,3.88 z"
         id="path2-5" /><radialGradient
         id="gradient0-9"
         gradientUnits="userSpaceOnUse"
         cx="0"
         cy="0"
         r="64"
         gradientTransform="matrix(0.482,0.2128,-0.1479,0.3351,26.798,25.9573)"><stop
           offset="0.4919"
           stop-color="#fffdf2"
           id="stop2-2" /><stop
           offset="0"
           stop-color="#b2b1aa"
           id="stop3-2" /></radialGradient><path
         style="fill:url(#gradient0-9)"
         d="m 18.56,19.07 c 3.66,3.66 4.87,8.25 2.75,10.36 1.37,-1.3 4.74,-2.82 8.69,-2.82 2.52,0 4.81,0.62 6.49,1.42 -1.56,-0.61 -1.59,-5.42 1,-10.22 2.57,-4.75 5.73,-7.21 7.5,-6.3 C 40.65,9.28 35.5,8 30,8 21.29,8 13.47,11.23 8.32,16.29 c 2.06,-1.97 6.61,-0.83 10.24,2.78 z"
         id="path3-8" /><radialGradient
         id="gradient1-9"
         gradientUnits="userSpaceOnUse"
         cx="0"
         cy="0"
         r="64"
         gradientTransform="matrix(0.482,0.2128,-0.1479,0.3351,26.798,25.9573)"><stop
           offset="0.4919"
           stop-color="#ff2b00"
           id="stop4-7" /><stop
           offset="0"
           stop-color="#b21d00"
           id="stop5-3" /></radialGradient><path
         style="fill:url(#gradient1-9)"
         d="m 20.68,30.5 c 0,-0.3 0.21,-0.68 0.63,-1.07 2.12,-2.11 0.91,-6.7 -2.75,-10.36 C 14.9,15.43 10.34,14.31 8.3,16.31 4.36,20.19 2,25.12 2,30.5 Z"
         id="path5" /><radialGradient
         id="gradient2-6"
         gradientUnits="userSpaceOnUse"
         cx="0"
         cy="0"
         r="64"
         gradientTransform="matrix(0.5,0,0,0.4218,26,26)"><stop
           offset="0.6752"
           stop-color="#fffdf2"
           id="stop6-1" /><stop
           offset="1"
           stop-color="#b2b0a9"
           id="stop7-2" /></radialGradient><path
         style="fill:url(#gradient2-6)"
         d="M 49,34.25 C 45.34,30.61 40.75,29.48 38.72,31.51 37.4,32.8 33.97,34.38 30,34.38 c -2.53,0 -4.8,-0.63 -6.49,-1.43 -1.76,-0.94 -4.95,1.52 -7.53,6.3 -2.48,4.61 -2.55,9.24 -1.17,10.13 C 19.2,51.65 24.42,53 30,53 38.77,53 46.65,49.7 51.79,44.58 53.86,42.45 52.65,37.9 49,34.25 Z"
         id="path7" /><radialGradient
         id="gradient3-9"
         gradientUnits="userSpaceOnUse"
         cx="0"
         cy="0"
         r="64"
         gradientTransform="matrix(0.5,0,0,0.4218,26,26)"><stop
           offset="0.6752"
           stop-color="#ff2b00"
           id="stop8-3" /><stop
           offset="1"
           stop-color="#b21d00"
           id="stop9-1" /></radialGradient><path
         style="fill:url(#gradient3-9)"
         d="m 39.31,30.5 c 0,0.28 -0.2,0.62 -0.59,1.01 2.03,-2.03 6.62,-0.9 10.28,2.74 3.65,3.65 4.86,8.2 2.79,10.33 C 55.66,40.72 58,35.81 58,30.5 Z M 2,30.5 c 0,7.88 5.11,14.86 12.81,18.88 -1.38,-0.88 -1.31,-5.52 1.17,-10.13 2.58,-4.78 5.77,-7.24 7.53,-6.3 -1.74,-0.82 -2.83,-1.81 -2.83,-2.45 m 37.32,0 c 0,-7.96 -5.21,-14.98 -13.01,-18.98 -1.77,-0.92 -4.93,1.54 -7.5,6.29 -2.59,4.8 -2.56,9.61 -1,10.22 1.73,0.82 2.82,1.81 2.82,2.47 z"
         id="path9" /><radialGradient
         id="gradient4"
         gradientUnits="userSpaceOnUse"
         cx="0"
         cy="0"
         r="64"
         gradientTransform="matrix(0.5,0,0,0.4062,26,24)"><stop
           offset="0.2636"
           stop-color="#ffffff"
           stop-opacity="0"
           id="stop10-9" /><stop
           offset="0.5048"
           stop-color="#ffffff"
           stop-opacity="0.4"
           id="stop11" /><stop
           offset="0.8038"
           stop-color="#ffffff"
           stop-opacity="0"
           id="stop12" /></radialGradient><path
         style="fill:url(#gradient4)"
         d="M 30,8 C 14.6,8 2,18.12 2,30.5 2,42.86 14.6,53 30,53 45.4,53 58,42.86 58,30.5 58,18.12 45.4,8 30,8 Z m 0,26.38 c -5.13,0 -9.32,-2.6 -9.32,-3.88 0,-1.3 4.19,-3.89 9.32,-3.89 5.13,0 9.31,2.59 9.31,3.89 0,1.28 -4.18,3.88 -9.31,3.88 z"
         id="path12" /></g></g></svg>
