<?xml version="1.0" encoding="UTF-8" standalone="no"?>
<svg
   version="1.1"
   width="64"
   height="64"
   color-interpolation="linearRGB"
   id="svg10"
   sodipodi:docname="application-vnd.openxmlformats-officedocument.wordprocessingml.document.svg"
   xml:space="preserve"
   inkscape:version="1.4 (e7c3feb100, 2024-10-09)"
   xmlns:inkscape="http://www.inkscape.org/namespaces/inkscape"
   xmlns:sodipodi="http://sodipodi.sourceforge.net/DTD/sodipodi-0.dtd"
   xmlns="http://www.w3.org/2000/svg"
   xmlns:svg="http://www.w3.org/2000/svg"><defs
     id="defs10"><linearGradient
       id="gradient4"
       gradientUnits="userSpaceOnUse"
       x1="57.5"
       y1="-34.419998"
       x2="71.089996"
       y2="46.709999"
       gradientTransform="matrix(0.4749,0,0,0.5,8.1999,20)"><stop
         offset="1"
         stop-color="#1467ff"
         id="stop11" /><stop
         offset="0.4212"
         stop-color="#06f8b7"
         id="stop12" /></linearGradient><linearGradient
       id="linearGradient1"
       gradientUnits="userSpaceOnUse"
       x1="-47.139999"
       y1="-15.78"
       x2="-28.459999"
       y2="-37.849998"
       gradientTransform="translate(3.9059327e-7,5.0000001)"><stop
         offset="0"
         stop-color="#010101"
         id="stop7-3" /><stop
         offset="1"
         stop-color="#9e9e9e"
         id="stop8-6" /></linearGradient></defs><sodipodi:namedview
     id="namedview10"
     pagecolor="#ffffff"
     bordercolor="#000000"
     borderopacity="0.25"
     inkscape:showpageshadow="2"
     inkscape:pageopacity="0.0"
     inkscape:pagecheckerboard="0"
     inkscape:deskcolor="#d1d1d1"
     inkscape:zoom="2.8781456"
     inkscape:cx="-18.414635"
     inkscape:cy="39.261391"
     inkscape:window-width="1279"
     inkscape:window-height="1295"
     inkscape:window-x="2560"
     inkscape:window-y="33"
     inkscape:window-maximized="0"
     inkscape:current-layer="svg10" /><g
     id="g10"
     transform="translate(0,5)"><path
       style="fill:#010101;fill-opacity:0.5725"
       d="m 27,57 2,2 3.13,-3.17 L 37,59 45.39,47.54 64,38 59,35 61,37 36,49 Z m 31,-23 4,-3 -4,-2 -3,3 z"
       id="path1" /><path
       style="fill:none;stroke:#010101;stroke-width:4"
       d="m 6.25,30 c 0,0 5.62,6 10.62,12.5 5,6.5 9.38,13.25 9.38,13.25 L 59.12,36.87 32,15 Z"
       id="path2" /><radialGradient
       id="gradient0"
       gradientUnits="userSpaceOnUse"
       cx="0"
       cy="0"
       r="64"
       gradientTransform="matrix(0.5714,0,0,0.3333,26,35)"><stop
         offset="1"
         stop-color="#fffcc0"
         id="stop2" /><stop
         offset="0.4886"
         stop-color="#f1b706"
         id="stop3" /></radialGradient><path
       style="fill:url(#gradient0)"
       d="m 6.25,30 c 0,0 5.62,6 10.62,12.5 5,6.5 9.38,13.25 9.38,13.25 L 59.12,36.87 32,15 Z"
       id="path3" /><path
       style="fill:none;stroke:#010101;stroke-width:4"
       d="m 2.62,30.87 c 0,0 8.33,5.39 16.38,11 8.44,5.88 16.75,10.88 16.75,10.88 L 58.12,26.37 c 0,0 -12.68,-5.67 -22.75,-11 -5.19,-2.75 -9.37,-6 -9.37,-6 z"
       id="path4" /><linearGradient
       id="gradient1"
       gradientUnits="userSpaceOnUse"
       x1="107.04"
       y1="-17.09"
       x2="118.33"
       y2="27.99"><stop
         offset="0"
         stop-color="#ffefa5"
         id="stop4" /><stop
         offset="0.7424"
         stop-color="#fffcc0"
         id="stop5" /><stop
         offset="1"
         stop-color="#fff890"
         id="stop6" /></linearGradient><path
       style="fill:url(#gradient1)"
       d="m 2.62,30.87 c 0,0 8.33,5.39 16.38,11 8.44,5.88 16.75,10.88 16.75,10.88 L 58.12,26.37 c 0,0 -12.68,-5.67 -22.75,-11 -5.19,-2.75 -9.37,-6 -9.37,-6 z"
       id="path6" /><linearGradient
       id="gradient2"
       gradientUnits="userSpaceOnUse"
       x1="-47.139999"
       y1="-15.78"
       x2="-28.459999"
       y2="-37.849998"
       gradientTransform="translate(3.9059327e-7,4.9999997)"><stop
         offset="0"
         stop-color="#010101"
         id="stop7" /><stop
         offset="1"
         stop-color="#9e9e9e"
         id="stop8" /></linearGradient><linearGradient
       id="gradient3"
       gradientUnits="userSpaceOnUse"
       x1="-47.139999"
       y1="-15.78"
       x2="-28.459999"
       y2="-37.849998"><stop
         offset="0"
         stop-color="#010101"
         id="stop9" /><stop
         offset="1"
         stop-color="#9e9e9e"
         id="stop10" /></linearGradient></g><g
     id="g3-3"
     transform="translate(9.9348239,-12.44458)"><rect
       style="fill:#ffffff;fill-opacity:1;stroke:#000000;stroke-width:2;stroke-dasharray:none;stroke-opacity:1"
       id="rect1"
       width="22.768538"
       height="22.768538"
       x="29.477844"
       y="14.469532" /><g
       id="g2-9"
       transform="matrix(0.00838911,0,0,0.00838911,30.377405,15.367416)"><path
         d="M 1187.9,1187.9 H 0 V 0 h 1187.9 z"
         fill="#f1511b"
         id="path1-7" /><path
         d="m 2499.6,1187.9 h -1188 V 0 h 1187.9 v 1187.9 z"
         fill="#80cc28"
         id="path2-9" /><path
         d="M 1187.9,2500 H 0 V 1312.1 h 1187.9 z"
         fill="#00adef"
         id="path3-2" /><path
         d="m 2499.6,2500 h -1188 V 1312.1 H 2499.5 V 2500 Z"
         fill="#fbbc09"
         id="path4-02" /></g></g><path
     style="fill:url(#gradient4);stroke-width:0.487288"
     d="M 11.9991,35 22.4469,42 30.9951,32 20.5473,27 Z"
     id="path12" /><path
     style="fill:none;stroke:#010101;stroke-width:0.487288"
     d="M 11.9991,35 22.4469,42 30.9951,32 20.5473,27 Z"
     id="path13" /><path
     style="fill:none;stroke:url(#gradient2);stroke-width:1"
     d="m 33,30 5,-5 M 24,24 29,19 M 26,45 42,28 M 34,51 47,36"
     id="path8" /><path
     style="fill:none;stroke:url(#linearGradient1);stroke-width:1"
     d="M 30,48 46,30 m -17,-3 4,-4"
     id="path10" /></svg>
