<?xml version="1.0" encoding="UTF-8" standalone="no"?>
<svg
   version="1.1"
   width="64"
   height="64"
   color-interpolation="linearRGB"
   id="svg12"
   sodipodi:docname="application-x-blender.svg"
   inkscape:version="1.4 (e7c3feb100, 2024-10-09)"
   xmlns:inkscape="http://www.inkscape.org/namespaces/inkscape"
   xmlns:sodipodi="http://sodipodi.sourceforge.net/DTD/sodipodi-0.dtd"
   xmlns="http://www.w3.org/2000/svg"
   xmlns:svg="http://www.w3.org/2000/svg">
  <defs
     id="defs12">
    <linearGradient
       y2="-22.940001"
       x2="42.889999"
       y1="-30.82"
       x1="18.370001"
       gradientUnits="userSpaceOnUse"
       id="gradient0-3">
      <stop
         id="stop7516"
         stop-color="#919292"
         offset="0" />
      <stop
         id="stop7518"
         stop-color="#d5d5d5"
         offset="1" />
    </linearGradient>
    <linearGradient
       y2="-23"
       x2="52"
       y1="-23"
       x1="40"
       gradientUnits="userSpaceOnUse"
       id="gradient1-6">
      <stop
         id="stop7525"
         stop-color="#f8f8f8"
         offset="0.3686" />
      <stop
         id="stop7527"
         stop-color="#c7c7c7"
         offset="0.5176" />
    </linearGradient>
    <linearGradient
       y2="9.5600004"
       x2="31.860001"
       y1="0.81"
       x1="19.129999"
       gradientUnits="userSpaceOnUse"
       id="gradient2-7">
      <stop
         id="stop7534"
         stop-color="#97bbff"
         offset="0.0509" />
      <stop
         id="stop7536"
         stop-opacity="0.9137"
         stop-color="#4168db"
         offset="0.4823" />
      <stop
         id="stop7538"
         stop-opacity="0.5921"
         stop-color="#4168db"
         offset="1" />
    </linearGradient>
    <linearGradient
       y2="-37.23"
       x2="95.970001"
       y1="-48.490002"
       x1="79.599998"
       gradientUnits="userSpaceOnUse"
       id="gradient3-3">
      <stop
         id="stop7543"
         stop-opacity="0.6235"
         stop-color="#f56a7d"
         offset="0.0509" />
      <stop
         id="stop7545"
         stop-opacity="0.7803"
         stop-color="#ea064c"
         offset="0.8823" />
    </linearGradient>
  </defs>
  <sodipodi:namedview
     id="namedview12"
     pagecolor="#ffffff"
     bordercolor="#000000"
     borderopacity="0.25"
     inkscape:showpageshadow="2"
     inkscape:pageopacity="0.0"
     inkscape:pagecheckerboard="0"
     inkscape:deskcolor="#d1d1d1"
     inkscape:zoom="8.140625"
     inkscape:cx="37.40499"
     inkscape:cy="29.911708"
     inkscape:window-width="1493"
     inkscape:window-height="1220"
     inkscape:window-x="2527"
     inkscape:window-y="89"
     inkscape:window-maximized="0"
     inkscape:current-layer="svg12" />
  <g
     id="g12">
    <path
       style="fill:#010101; fill-opacity:0.5725"
       d="M27 57L29 59L32.13 55.83L37 59L45.39 47.54L64 38L59 35L61 37L36 49L27 57z            M58 34L62 31L58 29L55 32L58 34z"
       id="path1" />
    <path
       style="fill:none; stroke:#010101; stroke-width:4"
       d="M6.25 30C6.25 30 11.87 36 16.87 42.5C21.87 49 26.25 55.75 26.25 55.75L59.12 36.87L32 15L6.25 30z"
       id="path2" />
    <radialGradient
       id="gradient0"
       gradientUnits="userSpaceOnUse"
       cx="0"
       cy="0"
       r="64"
       gradientTransform="matrix(0.5714,0,0,0.3333,26,35)">
      <stop
         offset="1"
         stop-color="#eaeaea"
         id="stop2" />
      <stop
         offset="0.4886"
         stop-color="#a3a3a3"
         id="stop3" />
    </radialGradient>
    <path
       style="fill:url(#gradient0)"
       d="M6.25 30C6.25 30 11.87 36 16.87 42.5C21.87 49 26.25 55.75 26.25 55.75L59.12 36.87L32 15L6.25 30z"
       id="path3" />
    <path
       style="fill:none; stroke:#010101; stroke-width:4"
       d="M2.62 30.87C2.62 30.87 10.95 36.26 19 41.87C27.44 47.75 35.75 52.75 35.75 52.75L58.12 26.37C58.12 26.37 45.44 20.7 35.37 15.37C30.18 12.62 26 9.37 26 9.37L2.62 30.87z"
       id="path4" />
    <linearGradient
       id="gradient1"
       gradientUnits="userSpaceOnUse"
       x1="107.04"
       y1="-17.09"
       x2="118.33"
       y2="27.99">
      <stop
         offset="0"
         stop-color="#d6d6d6"
         id="stop4" />
      <stop
         offset="0.7424"
         stop-color="#f5f5f5"
         id="stop5" />
      <stop
         offset="1"
         stop-color="#e6e6e6"
         id="stop6" />
    </linearGradient>
    <path
       style="fill:url(#gradient1)"
       d="M2.62 30.87C2.62 30.87 10.95 36.26 19 41.87C27.44 47.75 35.75 52.75 35.75 52.75L58.12 26.37C58.12 26.37 45.44 20.7 35.37 15.37C30.18 12.62 26 9.37 26 9.37L2.62 30.87z"
       id="path6" />
    <linearGradient
       id="gradient2"
       gradientUnits="userSpaceOnUse"
       x1="-47.14"
       y1="-15.78"
       x2="-28.46"
       y2="-37.85">
      <stop
         offset="0"
         stop-color="#010101"
         id="stop7" />
      <stop
         offset="1"
         stop-color="#9e9e9e"
         id="stop8" />
    </linearGradient>
    <path
       style="fill:none; stroke:url(#gradient2); stroke-width:1"
       d=""
       id="path8" />
    <linearGradient
       id="gradient3"
       gradientUnits="userSpaceOnUse"
       x1="-47.14"
       y1="-15.78"
       x2="-28.46"
       y2="-37.85">
      <stop
         offset="0"
         stop-color="#010101"
         id="stop9" />
      <stop
         offset="1"
         stop-color="#9e9e9e"
         id="stop10" />
    </linearGradient>
    <path
       style="fill:none; stroke:url(#gradient3); stroke-width:1"
       d=""
       id="path10" />
  </g>
  <g
     style="color-interpolation:linearRGB"
     id="g7555"
     transform="matrix(0.5701963,0,0,0.5701963,18.43015,4.7026185)">
    <g
       id="g7509">
      <path
         id="path7511"
         d="m 45,57 c 4,0 9,0 10,-2 1,-2 9,-19 9,-23 0,-4 -2,-6 -2,-6 l -2,2 c 0,0 2,2 1.01,3.94 C 59.27,35.44 56,42 54,43 c -2,1 -6,1 -6,1 z M 15,29 c 10,0 15.99,-8 17,-9 2,-2 1,-4 1,-4 l 2,-1 c 0,0 1,3 -1,7 -0.75,1.47 -13,20 -19,18 z"
         style="fill:#010101;fill-opacity:0.4196"
         inkscape:connector-curvature="0" />
      <path
         id="path7513"
         d="m 2,16 c 0,0 24,-13.13 28,-9.13 4,4 4,7.13 4,7.13 l -1,1 -5,-6 -10,4 v 5 L 2,28 Z"
         style="fill:none;stroke:#000000;stroke-width:4;stroke-linecap:round;stroke-linejoin:round"
         inkscape:connector-curvature="0" />
      <linearGradient
         y2="-22.940001"
         x2="42.889999"
         y1="-30.82"
         x1="18.370001"
         gradientUnits="userSpaceOnUse"
         id="linearGradient2">
        <stop
           id="stop1"
           stop-color="#919292"
           offset="0" />
        <stop
           id="stop2-6"
           stop-color="#d5d5d5"
           offset="1" />
      </linearGradient>
      <path
         id="path7520"
         d="m 2,16 c 0,0 24,-13.13 28,-9.13 4,4 4,7.13 4,7.13 l -1,1 -5,-6 -10,4 v 5 L 2,28 Z"
         style="fill:url(#gradient0-3)"
         inkscape:connector-curvature="0" />
      <path
         id="path7522"
         d="m 46,36 c 0,0 8,-14 12,-16 4,-2 4,9 4,9 l -1,2 -3,-5 -5,8 -1,12 -7,9 -19,-9 c 0,0 -1,-8 -4,-10 -3,-2 -4,6 -4,6 L 2,34 V 17 Z"
         style="fill:none;stroke:#000000;stroke-width:4;stroke-linecap:round;stroke-linejoin:round"
         inkscape:connector-curvature="0" />
      <linearGradient
         y2="-23"
         x2="52"
         y1="-23"
         x1="40"
         gradientUnits="userSpaceOnUse"
         id="linearGradient4">
        <stop
           id="stop3-7"
           stop-color="#f8f8f8"
           offset="0.3686" />
        <stop
           id="stop4-5"
           stop-color="#c7c7c7"
           offset="0.5176" />
      </linearGradient>
      <path
         id="path7529"
         d="m 46,36 c 0,0 8,-14 12,-16 4,-2 4,9 4,9 l -1,2 -3,-5 -5,8 -1,12 -7,9 -19,-9 c 0,0 -1,-8 -4,-10 -3,-2 -4,6 -4,6 L 2,34 V 17 Z M 29,34 c -1,1 -1,7 0,8 l 12,6 c 1,-1 1,-8 0,-9 z M 6,23 c -1,1 -1,7 0,8 l 10,5 c 1,-1 1,-7 0,-8 z"
         style="fill:url(#gradient1-6)"
         inkscape:connector-curvature="0" />
      <path
         id="path7531"
         d="m 6,23 c -1,1 -1,7 0,8 l 10,5 c 1,-1 1,-7 0,-8 z m 23,11 c -1,1 -1,7 0,8 l 12,6 c 1,-1 1,-8 0,-9 z"
         style="fill:#000000"
         inkscape:connector-curvature="0" />
      <linearGradient
         y2="9.5600004"
         x2="31.860001"
         y1="0.81"
         x1="19.129999"
         gradientUnits="userSpaceOnUse"
         id="linearGradient7">
        <stop
           id="stop5-3"
           stop-color="#97bbff"
           offset="0.0509" />
        <stop
           id="stop6-5"
           stop-opacity="0.9137"
           stop-color="#4168db"
           offset="0.4823" />
        <stop
           id="stop7-6"
           stop-opacity="0.5921"
           stop-color="#4168db"
           offset="1" />
      </linearGradient>
      <path
         id="path7540"
         d="m 6,23 c -1,1 -1,7 0,8 l 10,5 c 1,-1 1,-7 0,-8 z"
         style="fill:url(#gradient2-7)"
         inkscape:connector-curvature="0" />
      <linearGradient
         y2="-37.23"
         x2="95.970001"
         y1="-48.490002"
         x1="79.599998"
         gradientUnits="userSpaceOnUse"
         id="linearGradient9">
        <stop
           id="stop8-2"
           stop-opacity="0.6235"
           stop-color="#f56a7d"
           offset="0.0509" />
        <stop
           id="stop9-9"
           stop-opacity="0.7803"
           stop-color="#ea064c"
           offset="0.8823" />
      </linearGradient>
      <path
         id="path7547"
         d="m 29,34 c -1,1 -1,7 0,8 l 12,6 c 1,-1 1,-8 0,-9 z"
         style="fill:url(#gradient3-3)"
         inkscape:connector-curvature="0" />
    </g>
  </g>
</svg>
