<?xml version="1.0" encoding="UTF-8" standalone="no"?>
<svg
   id="i622226354"
   width="64"
   height="64"
   viewBox="0 0 6528 6528"
   version="1.1"
   sodipodi:docname="retrosmart-go.svg"
   xml:space="preserve"
   inkscape:version="1.4 (e7c3feb100, 2024-10-09)"
   xmlns:inkscape="http://www.inkscape.org/namespaces/inkscape"
   xmlns:sodipodi="http://sodipodi.sourceforge.net/DTD/sodipodi-0.dtd"
   xmlns:xlink="http://www.w3.org/1999/xlink"
   xmlns="http://www.w3.org/2000/svg"
   xmlns:svg="http://www.w3.org/2000/svg"><defs
     id="defs21"><linearGradient
       id="linearGradient67"
       inkscape:collect="always"><stop
         style="stop-color:#ffffff;stop-opacity:1;"
         offset="0"
         id="stop67" /><stop
         style="stop-color:#dddddd;stop-opacity:1;"
         offset="1"
         id="stop68" /></linearGradient><linearGradient
       id="linearGradient55"
       inkscape:collect="always"><stop
         style="stop-color:#67cfdd;stop-opacity:1;"
         offset="0"
         id="stop55" /><stop
         style="stop-color:#59cfdd;stop-opacity:1;"
         offset="1"
         id="stop56" /></linearGradient><path
       id="go-original-a"
       d="M18.8 1h90.5v126H18.8z" /><radialGradient
       id="i622226354-10-g"
       gradientUnits="userSpaceOnUse"
       gradientTransform="matrix(0.247664,0,0,0.256246,2335.222,1328.236)"
       cx="0"
       cy="0"
       r="6528"><stop
         offset="0%"
         stop-color="#ffffff"
         id="stop11" /><stop
         offset="0.2314"
         stop-color="#cef289"
         id="stop12"
         style="stop-color:#94cfdd;stop-opacity:1;" /><stop
         offset="0.98430002"
         stop-color="#6ea504"
         id="stop13"
         style="stop-color:#67cfdd;stop-opacity:1;" /></radialGradient><linearGradient
       inkscape:collect="always"
       xlink:href="#i622226354-10-g"
       id="linearGradient56"
       x1="3366.4646"
       y1="704.20532"
       x2="4037.4414"
       y2="704.20532"
       gradientUnits="userSpaceOnUse" /><linearGradient
       inkscape:collect="always"
       xlink:href="#linearGradient55"
       id="linearGradient57"
       gradientUnits="userSpaceOnUse"
       x1="3366.4647"
       y1="704.20535"
       x2="4037.4414"
       y2="704.20535" /><linearGradient
       inkscape:collect="always"
       xlink:href="#i622226354-10-g"
       id="linearGradient59"
       x1="3366.4646"
       y1="704.20532"
       x2="4037.4414"
       y2="704.20532"
       gradientUnits="userSpaceOnUse" /><linearGradient
       inkscape:collect="always"
       xlink:href="#i622226354-10-g"
       id="linearGradient61"
       x1="4244.4453"
       y1="3861.0652"
       x2="5199.2495"
       y2="3861.0652"
       gradientUnits="userSpaceOnUse" /><linearGradient
       inkscape:collect="always"
       xlink:href="#linearGradient67"
       id="linearGradient68"
       x1="2800.6744"
       y1="1637.7697"
       x2="3722.0503"
       y2="1637.7697"
       gradientUnits="userSpaceOnUse" /><linearGradient
       inkscape:collect="always"
       xlink:href="#linearGradient67"
       id="linearGradient70"
       x1="1663.4456"
       y1="1686.252"
       x2="2578.5671"
       y2="1686.252"
       gradientUnits="userSpaceOnUse" /><linearGradient
       inkscape:collect="always"
       xlink:href="#i622226354-10-g"
       id="linearGradient71"
       gradientUnits="userSpaceOnUse"
       x1="3366.4646"
       y1="704.20532"
       x2="4037.4414"
       y2="704.20532" /></defs><sodipodi:namedview
     id="namedview21"
     pagecolor="#ffffff"
     bordercolor="#000000"
     borderopacity="0.25"
     inkscape:showpageshadow="2"
     inkscape:pageopacity="0.0"
     inkscape:pagecheckerboard="0"
     inkscape:deskcolor="#d1d1d1"
     inkscape:zoom="7.8125"
     inkscape:cx="30.08"
     inkscape:cy="38.4"
     inkscape:window-width="2560"
     inkscape:window-height="1295"
     inkscape:window-x="0"
     inkscape:window-y="0"
     inkscape:window-maximized="1"
     inkscape:current-layer="i622226354" /><g
     id="g19"
     transform="matrix(1.3458942,0,0,1.2368907,-820.40504,449.2939)"
     style="fill:url(#linearGradient59);stroke:#000101;stroke-width:146.967;stroke-dasharray:none;stroke-opacity:1"><linearGradient
       id="i622226354-16-g"
       gradientUnits="userSpaceOnUse"
       gradientTransform="matrix(0.020174,0.012785,-0.04657,0.082508,3887.25,704.81)"
       x1="-6528"
       x2="6528"
       y1="-6528"
       y2="-6528"
       style="fill:url(#linearGradient59)"><stop
         offset="0%"
         stop-color="#9cda23"
         id="stop18"
         style="fill:url(#linearGradient59)" /><stop
         offset="100%"
         stop-color="#487b10"
         id="stop19"
         style="fill:url(#linearGradient59)" /></linearGradient><path
       d="M 3366.4647,441.81993 C 3860.6171,104.32488 4280.5281,679.18827 3873.5,1044.11 c 0,0 -33.12,65.01 -166.19,-15.45 -88.71,-53.64 -99.95,-145.47 -99.95,-145.47 z"
       style="fill:url(#linearGradient71);stroke:#000101;stroke-width:146.967;stroke-linecap:butt;stroke-linejoin:miter;stroke-dasharray:none;stroke-opacity:1"
       id="path19"
       sodipodi:nodetypes="ccccc" /></g><g
     id="g48"
     transform="matrix(-1.1182048,0.21589359,0.23061546,1.0468216,5309.4038,-167.70811)"
     style="fill:url(#linearGradient56);fill-opacity:1;stroke:#000101;stroke-width:164.22;stroke-dasharray:none;stroke-opacity:1"><linearGradient
       id="linearGradient48"
       gradientUnits="userSpaceOnUse"
       gradientTransform="matrix(0.020174,0.012785,-0.04657,0.082508,3887.25,704.81)"
       x1="-6528"
       x2="6528"
       y1="-6528"
       y2="-6528"
       style="fill:url(#linearGradient56)"><stop
         offset="0%"
         stop-color="#9cda23"
         id="stop47"
         style="fill:url(#linearGradient56)" /><stop
         offset="100%"
         stop-color="#487b10"
         id="stop48"
         style="fill:url(#linearGradient56)" /></linearGradient><path
       d="M 3366.4647,441.81993 C 3860.6171,104.32488 4280.5281,679.18827 3873.5,1044.11 c 0,0 -33.12,65.01 -166.19,-15.45 -88.71,-53.64 -99.95,-145.47 -99.95,-145.47 z"
       style="fill:url(#linearGradient57);fill-opacity:1;stroke:#000101;stroke-width:164.22;stroke-linecap:butt;stroke-linejoin:miter;stroke-dasharray:none;stroke-opacity:1"
       id="path48"
       sodipodi:nodetypes="ccccc" /></g><path
     d="M 3904.64 3972.58 C 2623.84 3972.58 1587.28 4521.29 1587.28 5199.29 C 1587.28 5876.53 2623.84 6425.99 3904.64 6425.99 C 5184.01 6425.99 6222 5876.53 6222 5199.29 C 6222 4521.29 5184.01 3972.58 3904.64 3972.58 Z"
     style="stroke-width:0;stroke-linejoin:miter;stroke-linecap:butt;fill:#010101;stroke:none;fill-opacity:0.43;"
     id="path1" /><g
     id="g66"
     transform="matrix(-0.51373642,-0.21072101,-0.21072101,0.51373642,5428.4402,3699.5098)"
     style="fill:#f6d2a2;fill-opacity:1;stroke:#000101;stroke-width:313.197;stroke-dasharray:none;stroke-opacity:1"><linearGradient
       id="linearGradient66"
       gradientUnits="userSpaceOnUse"
       gradientTransform="matrix(0.048925,-0.008437,0.046148,0.28646,4736.55,3836.21)"
       x1="-6528"
       x2="6528"
       y1="-6528"
       y2="-6528"
       style="fill:url(#linearGradient61)"><stop
         offset="0%"
         stop-color="#9cda23"
         id="stop65"
         style="fill:url(#linearGradient61)" /><stop
         offset="100%"
         stop-color="#487b10"
         id="stop66"
         style="fill:url(#linearGradient61)" /></linearGradient><path
       d="m 3779.0607,3400.8519 c 0,0 -105.3176,-551.1919 427.4172,-660.1539 355.1678,-72.6357 602.9522,258.5161 602.9522,258.5161 l 561.6548,2939.7237 c 0,0 -460.0705,540.211 -638.7808,-394.6293 182.9848,932.8962 -426.6889,612.5533 -426.6889,612.5533 z"
       style="fill:#f6d2a2;fill-opacity:1;stroke:#000101;stroke-width:313.197;stroke-linecap:butt;stroke-linejoin:miter;stroke-dasharray:none;stroke-opacity:1"
       id="path66"
       sodipodi:nodetypes="ccccccc" /></g><g
     id="g62"
     transform="matrix(0.51373642,-0.21072101,0.21072101,0.51373642,340.90118,3692.9818)"
     style="fill:#f6d2a2;fill-opacity:1;stroke:#000101;stroke-width:313.197;stroke-dasharray:none;stroke-opacity:1"><linearGradient
       id="linearGradient62"
       gradientUnits="userSpaceOnUse"
       gradientTransform="matrix(0.048925,-0.008437,0.046148,0.28646,4736.55,3836.21)"
       x1="-6528"
       x2="6528"
       y1="-6528"
       y2="-6528"
       style="fill:url(#linearGradient61)"><stop
         offset="0%"
         stop-color="#9cda23"
         id="stop61"
         style="fill:url(#linearGradient61)" /><stop
         offset="100%"
         stop-color="#487b10"
         id="stop62"
         style="fill:url(#linearGradient61)" /></linearGradient><path
       d="m 3779.0607,3400.8519 c 0,0 -105.3176,-551.1919 427.4172,-660.1539 355.1678,-72.6357 602.9522,258.5161 602.9522,258.5161 l 561.6548,2939.7237 c 0,0 -460.0705,540.211 -638.7808,-394.6293 182.9848,932.8962 -426.6889,612.5533 -426.6889,612.5533 z"
       style="fill:#f6d2a2;fill-opacity:1;stroke:#000101;stroke-width:313.197;stroke-linecap:butt;stroke-linejoin:miter;stroke-dasharray:none;stroke-opacity:1"
       id="path62"
       sodipodi:nodetypes="ccccccc" /></g><g
     id="g64"
     transform="matrix(-0.32338894,-0.45138459,-0.45138459,0.32338894,4966.0062,3536.1934)"
     style="fill:#f6d2a2;fill-opacity:1;stroke:#000101;stroke-width:313.197;stroke-dasharray:none;stroke-opacity:1"><linearGradient
       id="linearGradient64"
       gradientUnits="userSpaceOnUse"
       gradientTransform="matrix(0.048925,-0.008437,0.046148,0.28646,4736.55,3836.21)"
       x1="-6528"
       x2="6528"
       y1="-6528"
       y2="-6528"
       style="fill:url(#linearGradient61)"><stop
         offset="0%"
         stop-color="#9cda23"
         id="stop63"
         style="fill:url(#linearGradient61)" /><stop
         offset="100%"
         stop-color="#487b10"
         id="stop64"
         style="fill:url(#linearGradient61)" /></linearGradient><path
       d="m 3779.0607,3400.8519 c 0,0 -105.3176,-551.1919 427.4172,-660.1539 355.1678,-72.6357 602.9522,258.5161 602.9522,258.5161 l 561.6548,2939.7237 c 0,0 -460.0705,540.211 -638.7808,-394.6293 182.9848,932.8962 -426.6889,612.5533 -426.6889,612.5533 z"
       style="fill:#f6d2a2;fill-opacity:1;stroke:#000101;stroke-width:313.197;stroke-linecap:butt;stroke-linejoin:miter;stroke-dasharray:none;stroke-opacity:1"
       id="path64"
       sodipodi:nodetypes="ccccccc" /></g><g
     id="g17"
     transform="matrix(0.32338894,-0.45138459,0.45138459,0.32338894,717.73494,3562.3054)"
     style="fill:#f6d2a2;fill-opacity:1;stroke:#000101;stroke-width:313.19711434;stroke-dasharray:none;stroke-opacity:1"><linearGradient
       id="i622226354-14-g"
       gradientUnits="userSpaceOnUse"
       gradientTransform="matrix(0.048925,-0.008437,0.046148,0.28646,4736.55,3836.21)"
       x1="-6528"
       x2="6528"
       y1="-6528"
       y2="-6528"
       style="fill:url(#linearGradient61)"><stop
         offset="0%"
         stop-color="#9cda23"
         id="stop16"
         style="fill:url(#linearGradient61)" /><stop
         offset="100%"
         stop-color="#487b10"
         id="stop17"
         style="fill:url(#linearGradient61)" /></linearGradient><path
       d="m 3779.0607,3400.8519 c 0,0 -105.3176,-551.1919 427.4172,-660.1539 355.1678,-72.6357 602.9522,258.5161 602.9522,258.5161 l 561.6548,2939.7237 c 0,0 -460.0705,540.211 -638.7808,-394.6293 182.9848,932.8962 -426.6889,612.5533 -426.6889,612.5533 z"
       style="fill:#f6d2a2;fill-opacity:1;stroke:#000101;stroke-width:313.19711434;stroke-linecap:butt;stroke-linejoin:miter;stroke-dasharray:none;stroke-opacity:1"
       id="path17"
       sodipodi:nodetypes="ccccccc" /></g><path
     d="m 1417.386,2500.536 c -6.4067,-183.8375 -376.9194,-1883.7182 1348.966,-1729.89 1610.3662,143.53196 1432.1103,1606.6738 1432.1103,1606.6738 0,0 405.1154,2295.4247 -102.8743,2730.0642 -498.1497,482.3146 -1430.6616,356.7115 -2243.302,-12.512 -727.438,-342.094 -434.9,-2594.336 -434.9,-2594.336 z"
     style="fill:url(#i622226354-10-g);stroke:#000101;stroke-width:224.4;stroke-linecap:butt;stroke-linejoin:miter;stroke-dasharray:none;stroke-opacity:1"
     id="path13"
     sodipodi:nodetypes="cscccc" /><path
     fill-rule="evenodd"
     clip-rule="evenodd"
     fill="#ffffff"
     d="m 2801.62,1697.4469 c 97.6554,577.7943 1041.6573,423.1733 907.3812,-158.69 -122.0693,-520.8286 -939.933,-374.3456 -907.3812,158.69"
     clip-path="url(#go-original-b)"
     id="path34"
     style="stroke-width:40.6897;fill:url(#linearGradient68)" /><path
     d="m 3249.2071,2075.8615 c -183.1038,0 -415.0353,-97.6554 -463.863,-374.3456 -8.138,-130.2072 32.5518,-248.2074 118.0002,-337.7249 93.5864,-101.7243 236.0005,-158.6899 382.4836,-158.6899 170.8969,0 374.3456,89.5174 431.3112,337.7248 32.5518,138.3451 8.138,260.4143 -69.1725,358.0697 -85.4485,105.7933 -236.0005,174.9659 -398.7595,174.9659 z m -435.3802,-378.4146 c 20.3449,113.9313 73.2415,203.4487 158.69,268.5523 73.2415,56.9656 174.9659,85.4484 276.6902,85.4484 150.552,0 297.0351,-65.1035 378.4146,-166.8279 73.2415,-89.5174 93.5864,-207.5177 65.1036,-337.7248 -52.8967,-231.9315 -244.1385,-313.311 -406.8974,-313.311 -138.3451,0 -272.6213,56.9656 -362.1387,150.552 -77.3105,81.3795 -118.0002,191.2418 -109.8623,313.311 z"
     clip-path="url(#go-original-b)"
     id="path35"
     style="stroke-width:40.6897" /><path
     fill-rule="evenodd"
     clip-rule="evenodd"
     fill="#ffffff"
     d="m 1674.5142,1791.0333 c 130.2072,500.4838 931.795,374.3456 903.3122,-130.2072 -36.6207,-602.2081 -1029.4504,-488.2768 -903.3122,130.2072"
     clip-path="url(#go-original-b)"
     id="path36"
     style="stroke-width:40.6897;fill:url(#linearGradient70)" /><path
     d="m 2101.7565,2124.6892 c -174.9659,0 -378.4146,-85.4485 -443.5182,-329.5869 -28.4828,-142.4141 0,-272.6213 81.3795,-370.2766 89.5174,-109.8623 236.0005,-174.9659 394.6905,-174.9659 211.5866,0 435.3802,126.1382 451.6561,410.9663 8.1379,118.0003 -28.4829,223.7936 -109.8623,309.2421 -85.4485,93.5864 -227.8626,154.621 -374.3456,154.621 z m 32.5518,-846.3466 c -150.5521,0 -288.8972,61.0346 -374.3456,162.759 -77.3105,93.5863 -101.7244,211.5866 -73.2416,345.8627 56.9657,227.8626 252.2764,309.242 415.0354,309.242 138.3451,0 272.6212,-52.8966 358.0697,-146.483 73.2415,-77.3105 109.8623,-179.0349 101.7243,-288.8972 -8.1379,-174.9658 -126.1382,-382.4835 -427.2422,-382.4835 z"
     clip-path="url(#go-original-b)"
     id="path37"
     style="stroke-width:40.6897" /><path
     fill-rule="evenodd"
     clip-rule="evenodd"
     fill="#ffffff"
     d="m 2915.5513,2389.1725 c 0,73.2415 16.2758,158.69 4.0689,240.0694 -20.3448,36.6208 -56.9656,40.6898 -89.5174,52.8967 -44.7587,-8.138 -81.3795,-36.6208 -101.7243,-77.3105 -12.207,-89.5174 4.0689,-179.0349 8.1379,-268.5523 z"
     clip-path="url(#go-original-b)"
     id="path38"
     style="stroke-width:40.6897" /><path
     d="m 2830.1028,2698.4145 c -52.8967,-8.138 -93.5864,-40.6898 -113.9313,-85.4485 -8.1379,-65.1035 -4.0689,-126.1382 0,-187.1728 4.069,-28.4828 4.069,-56.9656 4.069,-85.4484 v -16.2759 l 207.5177,65.1036 v 8.1379 c 0,24.4139 4.0689,48.8277 4.0689,77.3105 4.069,52.8967 8.138,109.8623 0,162.759 v 4.069 c -16.2758,32.5517 -44.7587,40.6897 -73.2415,52.8966 -8.1379,-4.069 -16.2759,0 -28.4828,4.069 z m -89.5174,-97.6554 c 16.2759,36.6208 48.8277,61.0346 85.4484,69.1726 8.138,-4.069 16.2759,-4.069 20.3449,-8.138 24.4138,-8.1379 44.7587,-16.2759 56.9656,-36.6207 8.138,-48.8277 4.069,-101.7244 0,-154.6211 0,-24.4138 -4.0689,-48.8276 -4.0689,-69.1725 l -154.6211,-48.8277 c 0,24.4138 -4.0689,48.8277 -4.0689,69.1726 -4.069,65.1035 -8.138,122.0692 0,179.0348 z"
     clip-path="url(#go-original-b)"
     id="path39"
     style="stroke-width:40.6897" /><path
     fill-rule="evenodd"
     clip-rule="evenodd"
     d="m 2032.5839,1709.6538 c 0,81.3795 -61.0346,146.4831 -134.2761,146.4831 -73.2416,0 -134.2762,-65.1036 -134.2762,-146.4831 0,-81.3795 61.0346,-146.483 134.2762,-146.483 73.2415,0 134.2761,65.1035 134.2761,146.483"
     clip-path="url(#go-original-b)"
     id="path40"
     style="stroke-width:40.6897" /><path
     fill-rule="evenodd"
     clip-rule="evenodd"
     fill="#ffffff"
     d="m 1987.8252,1752.9833 c 0,18.997 -15.1976,34.1945 -30.3952,34.1945 -15.1976,0 -30.3952,-15.1975 -30.3952,-34.1945 0,-18.9971 15.1976,-34.1946 30.3952,-34.1946 18.997,0 30.3952,15.1975 30.3952,34.1946"
     clip-path="url(#go-original-b)"
     id="path41"
     style="stroke-width:37.9939" /><path
     fill-rule="evenodd"
     clip-rule="evenodd"
     d="m 3167.8276,1673.0331 c 0,81.3794 -61.0346,146.483 -134.2761,146.483 -73.2415,0 -134.2761,-65.1036 -134.2761,-146.483 0,-81.3795 61.0346,-146.4831 134.2761,-146.4831 73.2415,0 134.2761,65.1036 134.2761,146.4831"
     clip-path="url(#go-original-b)"
     id="path42"
     style="stroke-width:40.6897" /><path
     fill-rule="evenodd"
     clip-rule="evenodd"
     fill="#ffffff"
     d="m 3127.1379,1705.5849 c 0,20.3448 -12.2069,36.6207 -32.5518,36.6207 -16.2759,0 -32.5518,-16.2759 -32.5518,-36.6207 0,-20.3449 12.2069,-36.6208 32.5518,-36.6208 16.2759,0 32.5518,16.2759 32.5518,36.6208 m -602.2081,675.4496 c -61.0347,142.4141 32.5517,431.3113 195.3107,219.7246 -12.2069,-89.5174 4.069,-179.0348 8.138,-268.5523 z"
     clip-path="url(#go-original-b)"
     id="path43"
     style="stroke-width:40.6897" /><path
     d="m 2610.3782,2690.2765 c -28.4828,0 -56.9656,-16.2759 -77.3105,-48.8276 -44.7587,-65.1036 -52.8967,-187.1728 -20.3449,-264.4834 l 4.069,-8.1379 223.7936,-56.9656 v 16.2759 l -4.069,89.5174 c -4.069,61.0346 -8.1379,118.0002 0,179.0348 v 4.069 l -4.069,4.069 c -40.6897,56.9656 -81.3795,85.4484 -122.0692,85.4484 z m -73.2415,-297.0351 c -24.4139,69.1726 -16.2759,179.0349 20.3448,231.9316 16.2759,24.4138 32.5518,36.6207 52.8967,36.6207 28.4828,0 61.0346,-24.4138 93.5864,-65.1036 -8.1379,-61.0346 -4.069,-122.0692 4.069,-179.0348 l 4.069,-69.1726 z"
     clip-path="url(#go-original-b)"
     id="path44"
     style="stroke-width:40.6897" /><path
     fill-rule="evenodd"
     clip-rule="evenodd"
     fill="#f6d2a2"
     d="m 2545.2746,2104.3443 c -109.8623,8.1379 -199.3797,142.4141 -142.4141,244.1384 77.3105,138.3451 244.1385,-12.2069 349.9318,0 122.0692,4.069 219.7246,130.2072 317.38,24.4139 109.8623,-118.0003 -48.8277,-231.9315 -166.828,-284.8282 z"
     clip-path="url(#go-original-b)"
     id="path45"
     style="stroke-width:40.6897" /><path
     fill="#231f20"
     d="m 2984.7238,2429.8622 c -36.6208,0 -73.2415,-16.2759 -109.8623,-32.5518 -36.6208,-16.2759 -77.3105,-32.5518 -122.0692,-32.5518 h -12.2069 c -32.5518,0 -69.1726,12.2069 -109.8623,28.4828 -44.7587,16.2759 -89.5174,28.4829 -130.2072,28.4829 -48.8277,0 -85.4484,-20.3449 -109.8623,-65.1036 -28.4828,-48.8277 -24.4138,-105.7933 4.069,-158.69 32.5518,-61.0346 89.5174,-97.6554 150.552,-105.7933 l 362.1387,-16.2759 h 4.069 c 89.5174,36.6207 191.2418,105.7933 211.5866,187.1728 8.138,40.6897 -4.069,81.3795 -36.6207,118.0002 -32.5518,36.6208 -65.1036,48.8277 -101.7244,48.8277 z m -227.8625,-89.5174 c 44.7587,0 89.5174,20.3449 130.2071,36.6207 36.6208,16.2759 69.1726,28.4829 101.7244,28.4829 28.4828,0 52.8966,-12.207 77.3105,-36.6208 28.4828,-28.4828 36.6208,-61.0346 32.5518,-93.5864 -16.2759,-69.1726 -113.9313,-134.2761 -191.2418,-166.8279 l -354.0007,16.2759 c -52.8967,4.0689 -101.7244,40.6897 -130.2072,89.5174 -24.4138,44.7587 -24.4138,93.5864 -4.069,134.2761 20.3449,36.6208 44.7587,52.8967 85.4485,52.8967 36.6208,0 77.3105,-16.2759 118.0002,-28.4828 44.7587,-16.2759 81.3795,-28.4828 122.0692,-28.4828 0,-8.138 4.069,-8.138 12.207,-4.069 z"
     clip-path="url(#go-original-b)"
     id="path46"
     style="stroke-width:40.6897" /><path
     fill-rule="evenodd"
     clip-rule="evenodd"
     d="m 2533.0677,2100.2753 c -8.1379,-191.2418 358.0697,-215.6556 398.7594,-56.9656 44.7588,162.7589 -382.4835,199.3797 -398.7594,56.9656"
     clip-path="url(#go-original-b)"
     id="path47"
     style="stroke-width:40.6897" /><path
     fill-rule="evenodd"
     clip-rule="evenodd"
     d="m 1357.4895,1618.0556 c -137.4848,-64.6627 -236.7793,-158.0649 -152.7609,-308.945 76.3805,-136.5105 221.5034,-122.141 358.988,-57.4782 z"
     clip-path="url(#go-original-b)"
     id="path13-1"
     style="stroke-width:74.0794"
     sodipodi:nodetypes="cccc" /><path
     fill-rule="evenodd"
     clip-rule="evenodd"
     d="m 4140.6649,1559.926 c 147.2397,-69.2507 253.5795,-169.2801 163.5997,-330.8655 -81.7999,-146.1963 -237.2197,-130.8073 -384.4592,-61.5564 z"
     clip-path="url(#go-original-b)"
     id="path70"
     style="stroke-width:79.3355"
     sodipodi:nodetypes="cccc" /></svg>
