<?xml version="1.0" encoding="UTF-8" standalone="no"?>
<svg
   version="1.1"
   width="64"
   height="64"
   color-interpolation="linearRGB"
   id="svg12"
   sodipodi:docname="retrosmart-file_playlist_text.svg"
   inkscape:version="1.4 (e7c3feb100, 2024-10-09)"
   xmlns:inkscape="http://www.inkscape.org/namespaces/inkscape"
   xmlns:sodipodi="http://sodipodi.sourceforge.net/DTD/sodipodi-0.dtd"
   xmlns="http://www.w3.org/2000/svg"
   xmlns:svg="http://www.w3.org/2000/svg">
  <defs
     id="defs12" />
  <sodipodi:namedview
     id="namedview12"
     pagecolor="#ffffff"
     bordercolor="#000000"
     borderopacity="0.25"
     inkscape:showpageshadow="2"
     inkscape:pageopacity="0.0"
     inkscape:pagecheckerboard="0"
     inkscape:deskcolor="#d1d1d1"
     inkscape:zoom="4.0703125"
     inkscape:cx="56.261036"
     inkscape:cy="51.838772"
     inkscape:window-width="2560"
     inkscape:window-height="1295"
     inkscape:window-x="1280"
     inkscape:window-y="33"
     inkscape:window-maximized="1"
     inkscape:current-layer="svg12" />
  <g
     id="g12">
    <path
       style="fill:#010101; fill-opacity:0.5725"
       d="M40 62H42L44 63L64 35L55 29L37 61H39L40 62z"
       id="path1" />
    <path
       style="fill:none; stroke:#010101; stroke-width:4"
       d="M2.62 38.87C2.62 38.87 10.95 44.26 19 49.87C27.44 55.75 35.75 60.75 35.75 60.75L58.12 34.37L26 17.37L2.62 38.87z"
       id="path2" />
    <radialGradient
       id="gradient0"
       gradientUnits="userSpaceOnUse"
       cx="0"
       cy="0"
       r="64"
       gradientTransform="matrix(0.2756,0.4683,-0.39,0.2295,31.3262,28.3883)">
      <stop
         offset="1"
         stop-color="#d8e2f3"
         id="stop2"
         style="stop-color:#fffcc0;stop-opacity:1;" />
      <stop
         offset="0.48859999"
         stop-color="#6385c2"
         id="stop3"
         style="stop-color:#f1b706;stop-opacity:1;" />
    </radialGradient>
    <path
       style="fill:url(#gradient0)"
       d="M2.62 38.87C2.62 38.87 10.95 44.26 19 49.87C27.44 55.75 35.75 60.75 35.75 60.75L58.12 34.37L26 17.37L2.62 38.87z"
       id="path3" />
    <path
       style="fill:none; stroke:#010101; stroke-width:4"
       d="M2.62 30.87C2.62 30.87 10.63 36.75 19 41.87C29 48 35.75 51.75 35.75 51.75L58.12 26.37L26 9.37L2.62 30.87z"
       id="path4" />
    <radialGradient
       id="gradient1"
       gradientUnits="userSpaceOnUse"
       cx="0"
       cy="0"
       r="64"
       gradientTransform="matrix(0.3055,0.4867,-0.3665,0.23,28.202,16.0601)">
      <stop
         offset="1"
         stop-color="#d8e4fa"
         id="stop4"
         style="stop-color:#fffcc0;stop-opacity:1;" />
      <stop
         offset="0.48859999"
         stop-color="#7794c9"
         id="stop5"
         style="stop-color:#f1b706;stop-opacity:1;" />
    </radialGradient>
    <path
       style="fill:url(#gradient1)"
       d="M2.62 30.87C2.62 30.87 10.63 36.75 19 41.87C29 48 35.75 51.75 35.75 51.75L58.12 26.37L26 9.37L2.62 30.87z"
       id="path5" />
    <path
       style="fill:none; stroke:#010101; stroke-width:4"
       d="M2.62 22.87C2.62 22.87 10.47 29.02 19 33.87C28 39 35.75 42.75 35.75 42.75L58.12 18.37C58.12 18.37 45.44 13.7 35.37 8.37C30.18 5.62 26 3 26 3L2.62 22.87z"
       id="path6" />
    <linearGradient
       id="gradient2"
       gradientUnits="userSpaceOnUse"
       x1="107.04"
       y1="-25.09"
       x2="118.33"
       y2="19.99">
      <stop
         offset="0"
         stop-color="#a5c5ff"
         id="stop6"
         style="stop-color:#ffefa5;stop-opacity:1;" />
      <stop
         offset="0.74239999"
         stop-color="#eaf2ff"
         id="stop7"
         style="stop-color:#fffcc0;stop-opacity:1;" />
      <stop
         offset="1"
         stop-color="#d5e3ff"
         id="stop8"
         style="stop-color:#fff890;stop-opacity:1;" />
    </linearGradient>
    <path
       style="fill:url(#gradient2)"
       d="M2.62 22.87C2.62 22.87 10.47 29.02 19 33.87C28 39 35.75 42.75 35.75 42.75L58.12 18.37C58.12 18.37 45.44 13.7 35.37 8.37C30.18 5.62 26 3 26 3L2.62 22.87z"
       id="path8" />
    <radialGradient
       id="gradient3"
       gradientUnits="userSpaceOnUse"
       cx="0"
       cy="0"
       r="64"
       gradientTransform="matrix(0.1558,-0.1915,0.4544,0.3697,26.8803,19.4956)">
      <stop
         offset="0"
         stop-color="#485c85"
         id="stop9"
         style="stop-color:#010101;stop-opacity:1;" />
      <stop
         offset="1"
         stop-color="#bbcff7"
         id="stop10"
         style="stop-color:#9e9e9e;stop-opacity:1;" />
    </radialGradient>
    <path
       style="fill:#000000;stroke:url(#gradient3);stroke-width:1;fill-opacity:1"
       d="M32 41L52 19            M27 37L46 16            M21 33L41 13            M16 29L35 10            M10 25L30 5"
       id="path10" />
    <linearGradient
       id="gradient4"
       gradientUnits="userSpaceOnUse"
       x1="-16.88"
       y1="12.97"
       x2="2.32"
       y2="-12.12">
      <stop
         offset="0"
         stop-color="#010101"
         id="stop11" />
      <stop
         offset="1"
         stop-color="#272727"
         id="stop12" />
    </linearGradient>
    <path
       style="fill:url(#gradient4)"
       d="M27 42C31.16 44.77 37 36 33 33C29 30 22 28 22 28L30.87 20.62L43 28C40 29 38 35 41 37C45.16 39.77 51 31 47 28C43 25 27 16 27 16L14 26L29 33C26 34 24 40 27 42z"
       transform="matrix(1,0,0,1,0,-8)"
       id="path12" />
  </g>
</svg>
