<?xml version="1.0" encoding="UTF-8" standalone="no"?>
<svg
   version="1.1"
   width="64"
   height="64"
   color-interpolation="linearRGB"
   id="svg38"
   sodipodi:docname="retrosmart-switch-user.svg"
   inkscape:version="1.4 (e7c3feb100, 2024-10-09)"
   xml:space="preserve"
   xmlns:inkscape="http://www.inkscape.org/namespaces/inkscape"
   xmlns:sodipodi="http://sodipodi.sourceforge.net/DTD/sodipodi-0.dtd"
   xmlns:xlink="http://www.w3.org/1999/xlink"
   xmlns="http://www.w3.org/2000/svg"
   xmlns:svg="http://www.w3.org/2000/svg"
   xmlns:a="http://ns.adobe.com/AdobeSVGViewerExtensions/3.0/"><defs
     id="defs38"><linearGradient
       id="gradient0"
       gradientUnits="userSpaceOnUse"
       x1="96.6"
       y1="-47.07"
       x2="124.61"
       y2="-15.05"
       gradientTransform="translate(10,-6)"><stop
         offset="0"
         stop-color="#ee9bb0"
         id="stop2" /><stop
         offset="1"
         stop-color="#cc5876"
         id="stop3" /></linearGradient><linearGradient
       id="gradient1"
       gradientUnits="userSpaceOnUse"
       x1="-37.97"
       y1="-32.98"
       x2="-18.83"
       y2="-50.95"
       gradientTransform="translate(10,-6)"><stop
         offset="0"
         stop-color="#ffe3ea"
         id="stop4" /><stop
         offset="0.9962"
         stop-color="#f0a8bb"
         id="stop5" /></linearGradient><linearGradient
       id="gradient2"
       gradientUnits="userSpaceOnUse"
       x1="57.23"
       y1="-50.61"
       x2="78.84"
       y2="-43.97"
       gradientTransform="translate(10,-6)"><stop
         offset="0"
         stop-color="#a02646"
         id="stop6" /><stop
         offset="1"
         stop-color="#d53961"
         id="stop7" /></linearGradient><linearGradient
       id="gradient3"
       gradientUnits="userSpaceOnUse"
       x1="30.92"
       y1="-67"
       x2="41.07"
       y2="-67"
       gradientTransform="translate(10,-6)"><stop
         offset="0"
         stop-color="#ab123a"
         id="stop8" /><stop
         offset="1"
         stop-color="#dd718d"
         id="stop9" /></linearGradient><radialGradient
       id="gradient4"
       gradientUnits="userSpaceOnUse"
       cx="0"
       cy="0"
       r="64"
       gradientTransform="matrix(0.1707,0,0,0.1694,42.5529,6.4743)"><stop
         offset="0"
         stop-color="#f2f2f2"
         id="stop10" /><stop
         offset="1"
         stop-color="#bca184"
         id="stop11" /><stop
         offset="0.6742"
         stop-color="#7d7a7a"
         id="stop12" /></radialGradient><linearGradient
       id="gradient5"
       gradientUnits="userSpaceOnUse"
       x1="85.74"
       y1="-57.07"
       x2="128.61"
       y2="-8.05"
       gradientTransform="translate(-16,-6)"><stop
         offset="0"
         stop-color="#d5dcff"
         id="stop13" /><stop
         offset="1"
         stop-color="#9d9bd5"
         id="stop14" /></linearGradient><linearGradient
       id="gradient6"
       gradientUnits="userSpaceOnUse"
       x1="-37.97"
       y1="-32.98"
       x2="-18.83"
       y2="-50.95"
       gradientTransform="translate(-16,-6)"><stop
         offset="0"
         stop-color="#ffffff"
         id="stop15" /><stop
         offset="0.9962"
         stop-color="#a4a3d7"
         id="stop16" /></linearGradient><linearGradient
       id="gradient7"
       gradientUnits="userSpaceOnUse"
       x1="56.23"
       y1="-51.61"
       x2="77.84"
       y2="-44.97"
       gradientTransform="translate(-16,-6)"><stop
         offset="0"
         stop-color="#373583"
         id="stop17" /><stop
         offset="1"
         stop-color="#6967c0"
         id="stop18" /></linearGradient><linearGradient
       id="gradient8"
       gradientUnits="userSpaceOnUse"
       x1="30.92"
       y1="-66"
       x2="41.07"
       y2="-66"
       gradientTransform="translate(-16,-6)"><stop
         offset="0"
         stop-color="#33318c"
         id="stop19" /><stop
         offset="1"
         stop-color="#a4a3d7"
         id="stop20" /></linearGradient><radialGradient
       id="gradient9"
       gradientUnits="userSpaceOnUse"
       cx="0"
       cy="0"
       r="64"
       gradientTransform="matrix(0.1707,0,0,0.1694,14.5529,6.4743)"><stop
         offset="0"
         stop-color="#f2f2f2"
         id="stop21" /><stop
         offset="1"
         stop-color="#bca184"
         id="stop22" /><stop
         offset="0.6742"
         stop-color="#7d7a7a"
         id="stop23" /></radialGradient><linearGradient
       id="gradient10"
       gradientUnits="userSpaceOnUse"
       x1="56.23"
       y1="-51.61"
       x2="77.84"
       y2="-44.97"
       gradientTransform="translate(-16,-6)"><stop
         offset="0"
         stop-color="#373583"
         id="stop24" /><stop
         offset="1"
         stop-color="#6967c0"
         id="stop25" /></linearGradient><linearGradient
       id="gradient11"
       gradientUnits="userSpaceOnUse"
       x1="85.74"
       y1="-57.07"
       x2="128.61"
       y2="-8.05"><stop
         offset="0"
         stop-color="#ffdb97"
         id="stop26" /><stop
         offset="1"
         stop-color="#fcaf29"
         id="stop27" /></linearGradient><linearGradient
       id="gradient12"
       gradientUnits="userSpaceOnUse"
       x1="-37.97"
       y1="-32.98"
       x2="-18.83"
       y2="-50.95"><stop
         offset="0"
         stop-color="#fff7ea"
         id="stop28" /><stop
         offset="0.9962"
         stop-color="#fdd17b"
         id="stop29" /></linearGradient><linearGradient
       id="gradient13"
       gradientUnits="userSpaceOnUse"
       x1="55.23"
       y1="-51.61"
       x2="76.84"
       y2="-44.97"><stop
         offset="0"
         stop-color="#c85805"
         id="stop30" /><stop
         offset="1"
         stop-color="#f06306"
         id="stop31" /></linearGradient><linearGradient
       id="gradient14"
       gradientUnits="userSpaceOnUse"
       x1="29.92"
       y1="-66"
       x2="40.07"
       y2="-66"><stop
         offset="0"
         stop-color="#c85804"
         id="stop32" /><stop
         offset="1"
         stop-color="#dc952f"
         id="stop33" /></linearGradient><radialGradient
       id="gradient15"
       gradientUnits="userSpaceOnUse"
       cx="0"
       cy="0"
       r="64"
       gradientTransform="matrix(0.1707,0,0,0.1694,30.5529,12.4743)"><stop
         offset="0"
         stop-color="#f2f2f2"
         id="stop34" /><stop
         offset="1"
         stop-color="#bca184"
         id="stop35" /><stop
         offset="0.6742"
         stop-color="#7d7a7a"
         id="stop36" /></radialGradient><linearGradient
       id="gradient16"
       gradientUnits="userSpaceOnUse"
       x1="55.23"
       y1="-51.61"
       x2="76.84"
       y2="-44.97"><stop
         offset="0"
         stop-color="#c85805"
         id="stop37" /><stop
         offset="1"
         stop-color="#f06306"
         id="stop38" /></linearGradient><linearGradient
       id="linearGradient8465"><stop
         style="stop-color:#000000;stop-opacity:1;"
         offset="0"
         id="stop8467" /><stop
         style="stop-color:#000000;stop-opacity:0;"
         offset="1"
         id="stop8469" /></linearGradient><inkscape:perspective
       sodipodi:type="inkscape:persp3d"
       inkscape:vp_x="0 : 32 : 1"
       inkscape:vp_y="0 : 1000 : 0"
       inkscape:vp_z="64 : 32 : 1"
       inkscape:persp3d-origin="32 : 21.333333 : 1"
       id="perspective33" /><inkscape:perspective
       id="perspective35"
       inkscape:persp3d-origin="32 : 21.333333 : 1"
       inkscape:vp_z="64 : 32 : 1"
       inkscape:vp_y="0 : 1000 : 0"
       inkscape:vp_x="0 : 32 : 1"
       sodipodi:type="inkscape:persp3d" /><inkscape:perspective
       id="perspective3563"
       inkscape:persp3d-origin="0.5 : 0.33333333 : 1"
       inkscape:vp_z="1 : 0.5 : 1"
       inkscape:vp_y="0 : 1000 : 0"
       inkscape:vp_x="0 : 0.5 : 1"
       sodipodi:type="inkscape:persp3d" /><linearGradient
       inkscape:collect="always"
       xlink:href="#linearGradient2308"
       id="linearGradient3553"
       gradientUnits="userSpaceOnUse"
       x1="57"
       y1="29.928572"
       x2="97"
       y2="29.928572" /><linearGradient
       id="linearGradient2308"><stop
         id="stop2310"
         offset="0"
         style="stop-color:#edd400;stop-opacity:1;" /><stop
         id="stop2312"
         offset="1"
         style="stop-color:#fff492;stop-opacity:1;" /></linearGradient><linearGradient
       id="linearGradient3607"><stop
         id="stop3609"
         offset="0"
         style="stop-color:#ff9900;stop-opacity:1;" /><stop
         id="stop3611"
         offset="1"
         style="stop-color:#ffcc00;stop-opacity:1;" /></linearGradient><inkscape:perspective
       id="perspective6986"
       inkscape:persp3d-origin="0.5 : 0.33333333 : 1"
       inkscape:vp_z="1 : 0.5 : 1"
       inkscape:vp_y="0 : 1000 : 0"
       inkscape:vp_x="0 : 0.5 : 1"
       sodipodi:type="inkscape:persp3d" /><linearGradient
       inkscape:collect="always"
       xlink:href="#linearGradient3331"
       id="linearGradient6944"
       gradientUnits="userSpaceOnUse"
       gradientTransform="matrix(1.0514055,-1.0514055,1.0514055,1.0514055,-28.157174,22.57963)"
       x1="35.197689"
       y1="46.093544"
       x2="33.97504"
       y2="48.780663" /><linearGradient
       id="linearGradient3331"
       inkscape:collect="always"><stop
         id="stop3333"
         offset="0"
         style="stop-color:#d3d7cf;stop-opacity:1;" /><stop
         id="stop3335"
         offset="1"
         style="stop-color:#d3d7cf;stop-opacity:0;" /></linearGradient><linearGradient
       inkscape:collect="always"
       xlink:href="#linearGradient8465"
       id="linearGradient6946"
       gradientUnits="userSpaceOnUse"
       gradientTransform="matrix(1.0514055,-1.0514055,1.0514055,1.0514055,-28.157174,22.57963)"
       x1="38.045502"
       y1="44.886215"
       x2="35.045086"
       y2="49.835117" /><linearGradient
       inkscape:collect="always"
       xlink:href="#linearGradient3307"
       id="linearGradient6938"
       gradientUnits="userSpaceOnUse"
       gradientTransform="matrix(1.4869119,0,0,1.4869119,-35.876338,-3.9439219)"
       x1="36.201752"
       y1="37.667465"
       x2="30.034962"
       y2="41.842426" /><linearGradient
       id="linearGradient3307"
       inkscape:collect="always"><stop
         id="stop3309"
         offset="0"
         style="stop-color:#888a85;stop-opacity:1;" /><stop
         id="stop3311"
         offset="1"
         style="stop-color:#888a85;stop-opacity:0;" /></linearGradient><inkscape:perspective
       id="perspective3023"
       inkscape:persp3d-origin="15 : 10 : 1"
       inkscape:vp_z="30 : 15 : 1"
       inkscape:vp_y="0 : 1000 : 0"
       inkscape:vp_x="0 : 15 : 1"
       sodipodi:type="inkscape:persp3d" /><linearGradient
       y2="5.25"
       x2="77.269997"
       y1="-10.35"
       x1="66.449997"
       gradientUnits="userSpaceOnUse"
       id="gradient0-0"><stop
         id="stop17-3"
         stop-color="#acff0d"
         offset="0" /><stop
         id="stop19-6"
         stop-color="#04a804"
         offset="1" /></linearGradient><linearGradient
       id="linearGradient3207"><stop
         style="stop-color:#eeeeec;stop-opacity:0.47058824;"
         offset="0"
         id="stop3209" /><stop
         style="stop-color:#eeeeec;stop-opacity:0;"
         offset="1"
         id="stop3211" /></linearGradient><linearGradient
       id="linearGradient8152"><stop
         style="stop-color:#3465a4;stop-opacity:1;"
         offset="0"
         id="stop8154" /><stop
         id="stop3174"
         offset="0.5"
         style="stop-color:#4f7eba;stop-opacity:1;" /><stop
         style="stop-color:#729fcf;stop-opacity:1;"
         offset="1"
         id="stop8156" /></linearGradient><inkscape:perspective
       id="perspective58"
       inkscape:persp3d-origin="24 : 16 : 1"
       inkscape:vp_z="48 : 24 : 1"
       inkscape:vp_y="0 : 1000 : 0"
       inkscape:vp_x="0 : 24 : 1"
       sodipodi:type="inkscape:persp3d" /><radialGradient
       id="radialGradient1898"
       cx="8.9658"
       cy="8.1055"
       r="13.6202"
       fx="8.9658"
       fy="8.1055"
       gradientUnits="userSpaceOnUse"><stop
         offset="0"
         style="stop-color:#FED182"
         id="stop1900" /><stop
         offset="0.2809"
         style="stop-color:#FFB310"
         id="stop1902" /><stop
         offset="1"
         style="stop-color:#996E04"
         id="stop1904" /></radialGradient><radialGradient
       gradientTransform="translate(3.584,3.2)"
       id="radialGradient1906"
       cx="13.2129"
       cy="6.8301"
       r="8.4458"
       fx="13.2129"
       fy="6.8301"
       gradientUnits="userSpaceOnUse"><stop
         offset="0"
         style="stop-color:#FFFFFF"
         id="stop26-7" /><stop
         offset="1"
         style="stop-color:#F0E1BD"
         id="stop28-5" /></radialGradient><radialGradient
       id="aigrd3"
       cx="8.1943"
       cy="11.7568"
       r="8.4446"
       fx="8.1943"
       fy="11.7568"
       gradientUnits="userSpaceOnUse"><stop
         offset="0"
         style="stop-color:#FFFFFF"
         id="stop33-3" /><stop
         offset="1"
         style="stop-color:#F0E1BD"
         id="stop35-5" /></radialGradient><radialGradient
       gradientUnits="userSpaceOnUse"
       fy="8.4395"
       fx="9.855"
       r="12.0506"
       cy="8.4395"
       cx="9.855"
       id="aigrd2"><stop
         id="stop22-5"
         style="stop-color:#FFFFFF"
         offset="0" /><stop
         id="stop24-0"
         style="stop-color:#F0E1BD"
         offset="1" /></radialGradient><radialGradient
       gradientUnits="userSpaceOnUse"
       fy="7.9038"
       fx="8.7515"
       r="13.7593"
       cy="7.9038"
       cx="8.7515"
       id="aigrd1"><stop
         id="stop8-2"
         style="stop-color:#FED182"
         offset="0" /><stop
         id="stop10-1"
         style="stop-color:#FFB310"
         offset="0.2809" /><stop
         id="stop12-0"
         style="stop-color:#996E04"
         offset="1" /></radialGradient><inkscape:perspective
       sodipodi:type="inkscape:persp3d"
       inkscape:vp_x="0 : 15 : 1"
       inkscape:vp_y="0 : 1000 : 0"
       inkscape:vp_z="30 : 15 : 1"
       inkscape:persp3d-origin="15 : 10 : 1"
       id="perspective29" /><linearGradient
       id="XMLID_1_"
       gradientUnits="userSpaceOnUse"
       x1="25.819799"
       y1="30.3428"
       x2="103.745"
       y2="66.058502"><stop
         offset="0"
         style="stop-color:#ffab15;stop-opacity:1;"
         id="stop8-6" /><stop
         offset="0.30899999"
         style="stop-color:#f8e414;stop-opacity:1;"
         id="stop10-2" /><stop
         offset="1"
         style="stop-color:#ffd949;stop-opacity:1;"
         id="stop12-9" /></linearGradient><linearGradient
       id="XMLID_2_"
       gradientUnits="userSpaceOnUse"
       x1="46.0532"
       y1="84.938499"
       x2="43.597099"
       y2="84.4646"><stop
         offset="0"
         style="stop-color:#FFFFFF"
         id="stop27-1" /><stop
         offset="1"
         style="stop-color:#CCCCCC"
         id="stop29-2" /></linearGradient><linearGradient
       id="XMLID_3_"
       gradientUnits="userSpaceOnUse"
       x1="70.762703"
       y1="66.057602"
       x2="61.155899"
       y2="64.203903"><stop
         offset="0"
         style="stop-color:#FFFFFF"
         id="stop36-7" /><stop
         offset="1"
         style="stop-color:#CCCCCC"
         id="stop38-0" /></linearGradient><linearGradient
       id="XMLID_4_"
       gradientUnits="userSpaceOnUse"
       x1="52.383301"
       y1="35.398399"
       x2="52.383301"
       y2="96.055702"><stop
         offset="0"
         style="stop-color:#FFFFFF"
         id="stop47" /><stop
         offset="1"
         style="stop-color:#000000"
         id="stop49" /></linearGradient><linearGradient
       gradientTransform="matrix(0.25961325,0,0,0.25961322,35.049062,23.348857)"
       y2="66.058502"
       x2="103.745"
       y1="30.3428"
       x1="25.819799"
       gradientUnits="userSpaceOnUse"
       id="linearGradient2923"
       xlink:href="#XMLID_1_"
       inkscape:collect="always" /><radialGradient
       gradientUnits="userSpaceOnUse"
       gradientTransform="matrix(0.26978386,0,0,0.27556264,34.517052,22.441119)"
       r="48.100216"
       fy="67.753662"
       fx="52.459103"
       cy="67.753662"
       cx="52.459103"
       id="radialGradient3720"
       xlink:href="#linearGradient8465"
       inkscape:collect="always" /><linearGradient
       gradientTransform="matrix(0.25961325,0,0,0.25961322,35.049061,23.348857)"
       y2="96.055702"
       x2="52.383301"
       y1="35.398399"
       x1="52.383301"
       gradientUnits="userSpaceOnUse"
       id="linearGradient2906"
       xlink:href="#XMLID_4_"
       inkscape:collect="always" /></defs><sodipodi:namedview
     id="namedview38"
     pagecolor="#ffffff"
     bordercolor="#000000"
     borderopacity="0.25"
     inkscape:showpageshadow="2"
     inkscape:pageopacity="0.0"
     inkscape:pagecheckerboard="0"
     inkscape:deskcolor="#d1d1d1"
     inkscape:zoom="11.512582"
     inkscape:cx="38.175623"
     inkscape:cy="35.700071"
     inkscape:window-width="2560"
     inkscape:window-height="1295"
     inkscape:window-x="0"
     inkscape:window-y="0"
     inkscape:window-maximized="1"
     inkscape:current-layer="svg38" /><path
     style="fill:#010101;fill-opacity:0.4235"
     d="m 14.854861,56.703635 c 14.057042,5.424547 10.790363,8.417924 31.673034,6.688335 5.911281,-0.489597 12.254027,2.561321 11,-2 7.84,-1.57 7,-4 4,-6 C 44.495363,44.038729 41.979603,39.148097 20.781115,39.616774 l 2.073746,9.086861 z"
     id="path1"
     sodipodi:nodetypes="csccccc" /><g
     id="g87"
     transform="translate(-3.5969291,-1.596929)"><path
       style="fill:none;stroke:#000000;stroke-width:4"
       d="m 6,15 v 17 l 2,2 v 17 l 4,2 h 2 v 1 l 4,2 6,-6 V 36 l 2,-2 V 17 L 13,11 Z"
       id="path13" /><path
       style="fill:url(#gradient5)"
       d="m 6,15 v 16 l 2,3 v 17 l 4,2 h 2 v 1 l 4,2 V 39 h 2 V 21 Z"
       id="path14" /><path
       style="fill:url(#gradient6)"
       d="M 6,15 20,21 26,17 16,16 19.99,13.99 13,11 Z"
       id="path16" /><path
       style="fill:url(#gradient7)"
       d="m 20,39 h -2 v 17 l 6,-6 V 36 l 2,-2 V 17 l -6,4 z"
       id="path18" /><path
       style="fill:#252382"
       d="m 18,39 v 6 l 6,-9 -4,3 z"
       id="path19" /><path
       style="fill:url(#gradient8)"
       d="m 16,16 10,1 -6,-3 z"
       id="path20" /><path
       style="fill:none;stroke:#000000;stroke-width:4"
       d="m 15,4 c -2.5,0 -5,2.5 -5,5 0,2.5 2.5,5 5,5 2.5,0 5,-2.5 5,-5 0,-2.5 -2.5,-5 -5,-5 z"
       id="path21" /><path
       style="fill:url(#gradient9)"
       d="m 15,4 c -2.5,0 -5,2.5 -5,5 0,2.5 2.5,5 5,5 2.5,0 5,-2.5 5,-5 0,-2.5 -2.5,-5 -5,-5 z"
       id="path23" /><path
       style="fill:url(#gradient10)"
       d="m 12,53 h 2 V 39 l -2,-1 z"
       id="path25" /></g><g
     id="g38"
     transform="translate(16.403067)"><path
       style="fill:none;stroke:#000000;stroke-width:4"
       d="m 22,21 v 17 l 2,2 v 17 l 4,2 h 2 v 1 l 4,2 6,-6 V 42 l 2,-2 V 23 L 29,17 Z"
       id="path26" /><path
       style="fill:url(#gradient11)"
       d="m 22,21 v 16 l 2,3 v 17 l 4,2 h 2 v 1 l 4,2 V 45 h 2 V 27 Z"
       id="path27" /><path
       style="fill:url(#gradient12)"
       d="M 22,21 36,27 42,23 32,22 35.99,19.99 29,17 Z"
       id="path29" /><path
       style="fill:url(#gradient13)"
       d="m 36,45 h -2 v 17 l 6,-6 V 42 l 2,-2 V 23 l -6,4 z"
       id="path31" /><path
       style="fill:#a32904"
       d="m 34,45 v 6 l 6,-9 -4,3 z"
       id="path32" /><path
       style="fill:url(#gradient14)"
       d="m 32,22 10,1 -6,-3 z"
       id="path33" /><path
       style="fill:none;stroke:#000000;stroke-width:4"
       d="m 32,8 c -3,0 -6,3 -6,6 0,3 3,6 6,6 3,0 6,-3 6,-6 0,-3 -3,-6 -6,-6 z"
       id="path34" /><path
       style="fill:url(#gradient15)"
       d="m 32,8 c -3,0 -6,3 -6,6 0,3 3,6 6,6 3,0 6,-3 6,-6 0,-3 -3,-6 -6,-6 z"
       id="path36" /><path
       style="fill:url(#gradient16)"
       d="m 28,59 h 2 V 45 l -2,-1 z"
       id="path38" /></g><g
     style="color-interpolation:linearRGB"
     id="g88"
     transform="matrix(0.47432768,0,0,0.47432768,16.340398,36.380368)"><g
       id="g1"
       transform="matrix(1.5397439,0,0,1.5397439,-47.979857,-30.307911)"><path
         style="stroke-width:0.2;stroke-miterlimit:4;stroke-dasharray:none"
         inkscape:connector-curvature="0"
         id="path5"
         d="m 42.687751,24.770598 -4.513019,4.069824 c -0.01963,0.01823 -0.135203,0.126507 -0.135203,0.126507 C 35.434495,31.206748 34,34.522298 34,38.302922 c 0,8.028569 6.524789,15.918285 14.545224,17.588123 4.455798,0.928185 8.648481,-0.193548 11.502604,-3.078242 -0.01909,0.01739 4.616244,-4.162671 4.616244,-4.162671 l 0.01851,-0.01656 0.01739,-0.01768 c 2.172514,-2.20588 3.36914,-5.300955 3.36914,-8.715241 -1.3e-5,-8.027993 -6.525083,-15.917992 -14.545236,-17.587828 -4.074032,-0.848243 -8.023239,0.04741 -10.836128,2.45777 z" /><path
         inkscape:connector-curvature="0"
         style="fill:url(#linearGradient2923);stroke-width:0.38125;stroke-miterlimit:4;stroke-dasharray:none"
         id="path14-9"
         d="m 39.3062,30.373472 c 2.34249,-2.00707 5.670992,-2.872361 9.363211,-2.103905 7.092375,1.476679 12.84177,8.423151 12.84177,15.515524 0,3.081609 -1.085183,5.683453 -2.894168,7.519697 l 4.290627,-3.869016 c 1.808987,-1.836504 2.89417,-4.438347 2.89417,-7.519697 0,-7.092374 -5.749396,-14.038844 -12.84203,-15.515524 -3.69222,-0.768715 -7.020462,0.09658 -9.363212,2.103905 z" /><path
         inkscape:connector-curvature="0"
         style="fill:#ffd400;fill-opacity:1;stroke:url(#radialGradient3720);stroke-width:0.1;stroke-miterlimit:4;stroke-dasharray:none;stroke-opacity:1"
         id="path16-3"
         d="m 61.511441,43.785351 c 0,7.092371 -5.749396,11.644691 -12.84177,10.167752 -7.092375,-1.476682 -12.84177,-8.423411 -12.84177,-15.515525 0,-7.092633 5.749395,-11.644432 12.84151,-10.167752 7.092375,1.47668 12.84203,8.422892 12.84203,15.515525 z" /><g
         style="stroke-width:0.0777793;stroke-miterlimit:4;stroke-dasharray:none"
         id="g1946"
         transform="matrix(1.2856887,0.42611644,0,1.2856885,1.966073,10.97978)"><path
           inkscape:connector-curvature="0"
           style="fill-rule:evenodd;stroke:none;stroke-width:0.0777793;stroke-miterlimit:4;stroke-dasharray:none"
           d="m 38.527603,5.0038611 c 0,-0.1 -0.1,-0.1 -0.1,0 l -3.8,3.8 c -0.1,0.1 -0.1,0.2 0,0.2 l 3.8,3.7999999 c 0,0 0.1,0 0.1,0 v -2.3 h 1 c 0.3,0 1.2,0.2 1.2,1 v 1 c 0,0.9 -1.7,1.2 -1.7,1.5 0,0.3 0.4,0.4 0.4,0.4 h 1.3 c 1.3,0 2,-1.2 2,-2.4 v -1.7 c 0,-1.9999999 -1.1,-2.9999999 -2.7,-2.9999999 h -1.5 z"
           id="path1917" /><path
           inkscape:connector-curvature="0"
           style="fill-rule:evenodd;stroke:none;stroke-width:0.0777793;stroke-miterlimit:4;stroke-dasharray:none"
           d="m 33.727603,19.303861 c 0,0.1 0.1,0.1 0.1,0 l 3.8,-3.8 c 0.1,-0.1 0.1,-0.2 0,-0.2 l -3.8,-3.8 c 0,0 -0.1,0 -0.1,0 v 2.3 h -1 c -0.3,0 -1.2,-0.2 -1.2,-1 v -1 c 0,-0.9 1.7,-1.2 1.7,-1.5 0,-0.3 -0.4,-0.3999999 -0.4,-0.3999999 h -1.3 c -1.3,0 -2,1.1999999 -2,2.3999999 v 1.7 c 0,2 1.1,3 2.7,3 h 1.5 z"
           id="path19-6" /></g><path
         inkscape:connector-curvature="0"
         style="opacity:0.3;fill:url(#linearGradient2906);stroke-width:0.38125;stroke-miterlimit:4;stroke-dasharray:none"
         id="path51"
         d="m 39.872416,30.684748 c -2.219953,1.805351 -3.442472,4.558809 -3.442472,7.75283 0,0.273373 0.0135,0.558428 0.03375,0.848416 4.856845,-2.407134 10.105186,-0.40967 15.187375,1.528603 2.058993,0.78507 4.004015,1.527045 5.928269,1.995127 1.089857,0.272594 2.216838,0.314133 3.288002,0.143047 -0.203537,-3.098743 -1.517959,-6.223448 -3.74596,-8.836715 -2.319904,-2.721785 -5.365167,-4.588663 -8.574506,-5.256908 -3.300983,-0.687196 -6.381294,-0.0392 -8.674458,1.8256 z"
         a:adobe-blending-mode="screen" /></g></g></svg>
