<?xml version="1.0" encoding="UTF-8" standalone="no"?>
<svg
   version="1.1"
   width="64"
   height="64"
   color-interpolation="linearRGB"
   id="svg10"
   sodipodi:docname="retrosmart-tag-recentsvg"
   xml:space="preserve"
   inkscape:version="1.4 (e7c3feb100, 2024-10-09)"
   xmlns:inkscape="http://www.inkscape.org/namespaces/inkscape"
   xmlns:sodipodi="http://sodipodi.sourceforge.net/DTD/sodipodi-0.dtd"
   xmlns:xlink="http://www.w3.org/1999/xlink"
   xmlns="http://www.w3.org/2000/svg"
   xmlns:svg="http://www.w3.org/2000/svg"><defs
     id="defs10"><inkscape:perspective
       sodipodi:type="inkscape:persp3d"
       inkscape:vp_x="0 : 34.133333 : 1"
       inkscape:vp_y="0 : 1066.6667 : 0"
       inkscape:vp_z="68.266667 : 34.133333 : 1"
       inkscape:persp3d-origin="34.133333 : 22.755555 : 1"
       id="perspective35" /><linearGradient
       y2="26.91"
       x2="103.7"
       y1="-5.5500002"
       x1="83.050003"
       gradientUnits="userSpaceOnUse"
       id="gradient0-3"><stop
         id="stop11"
         stop-color="#faf9d2"
         offset="0" /><stop
         id="stop13"
         stop-color="#dddb8f"
         offset="1" /></linearGradient><linearGradient
       y2="23.280001"
       x2="56.810001"
       y1="6.0599999"
       x1="34.740002"
       gradientUnits="userSpaceOnUse"
       id="gradient1-6"><stop
         id="stop20"
         stop-color="#010101"
         offset="0" /><stop
         id="stop22"
         stop-color="#807e5d"
         offset="1" /></linearGradient><style
       type="text/css"
       id="current-color-scheme">
      .ColorScheme-PositiveText {
        color:#27ae60;
      }
      </style><inkscape:perspective
       sodipodi:type="inkscape:persp3d"
       inkscape:vp_x="0 : 32 : 1"
       inkscape:vp_y="0 : 1000 : 0"
       inkscape:vp_z="64 : 32 : 1"
       inkscape:persp3d-origin="32 : 21.333333 : 1"
       id="perspective62" /><linearGradient
       id="linearGradient2276"><stop
         id="stop2278"
         offset="0"
         style="stop-color:#f57900;stop-opacity:1;" /><stop
         id="stop2280"
         offset="1"
         style="stop-color:#fcaf3e;stop-opacity:1;" /></linearGradient><linearGradient
       id="linearGradient2322"><stop
         id="stop2324"
         offset="0"
         style="stop-color:white;stop-opacity:1;" /><stop
         id="stop2326"
         offset="1"
         style="stop-color:#c1c7bc;stop-opacity:1;" /></linearGradient><linearGradient
       id="linearGradient6917"
       inkscape:collect="always"><stop
         id="stop6919"
         offset="0"
         style="stop-color:#000000;stop-opacity:1;" /><stop
         id="stop6921"
         offset="1"
         style="stop-color:#000000;stop-opacity:0;" /></linearGradient><linearGradient
       id="linearGradient7081"><stop
         id="stop7083"
         offset="0"
         style="stop-color:#555753;stop-opacity:1" /><stop
         id="stop7085"
         offset="1"
         style="stop-color:#888a85;stop-opacity:0;" /></linearGradient><inkscape:perspective
       id="perspective2498"
       inkscape:persp3d-origin="24 : 16 : 1"
       inkscape:vp_z="48 : 24 : 1"
       inkscape:vp_y="0 : 1000 : 0"
       inkscape:vp_x="0 : 24 : 1"
       sodipodi:type="inkscape:persp3d" /><linearGradient
       inkscape:collect="always"
       xlink:href="#linearGradient2493"
       id="linearGradient2565"
       gradientUnits="userSpaceOnUse"
       gradientTransform="translate(1)"
       x1="80.625"
       y1="14.0625"
       x2="86.304581"
       y2="11.878284" /><linearGradient
       inkscape:collect="always"
       xlink:href="#linearGradient6917"
       id="linearGradient2567"
       gradientUnits="userSpaceOnUse"
       gradientTransform="translate(1)"
       x1="69"
       y1="23.294437"
       x2="80.625"
       y2="14.0625" /><inkscape:perspective
       sodipodi:type="inkscape:persp3d"
       inkscape:vp_x="0 : 24 : 1"
       inkscape:vp_y="0 : 1000 : 0"
       inkscape:vp_z="48 : 24 : 1"
       inkscape:persp3d-origin="24 : 16 : 1"
       id="perspective27" /><linearGradient
       id="linearGradient1913"><stop
         style="stop-color:#73d216;stop-opacity:1"
         offset="0"
         id="stop1915" /><stop
         style="stop-color:#8ae234;stop-opacity:1"
         offset="1"
         id="stop1917" /></linearGradient><linearGradient
       inkscape:collect="always"
       id="linearGradient5132"><stop
         style="stop-color:white;stop-opacity:1;"
         offset="0"
         id="stop5134" /><stop
         style="stop-color:white;stop-opacity:0;"
         offset="1"
         id="stop5136" /></linearGradient><radialGradient
       inkscape:collect="always"
       xlink:href="#linearGradient6917"
       id="radialGradient8668"
       cx="24.837126"
       cy="36.421127"
       fx="24.837126"
       fy="36.421127"
       r="15.644737"
       gradientTransform="matrix(1,0,0,0.536723,0,16.87306)"
       gradientUnits="userSpaceOnUse" /><linearGradient
       inkscape:collect="always"
       xlink:href="#linearGradient5132"
       id="linearGradient5138"
       x1="25.200262"
       y1="38.927765"
       x2="26.20422"
       y2="46.323185"
       gradientUnits="userSpaceOnUse" /><linearGradient
       gradientUnits="userSpaceOnUse"
       y2="50.079403"
       x2="51.021461"
       y1="9.6630907"
       x1="51.021461"
       id="linearGradient3186"
       xlink:href="#gradient0-35"
       inkscape:collect="always" /><inkscape:perspective
       id="perspective35-6"
       inkscape:persp3d-origin="32 : 21.333333 : 1"
       inkscape:vp_z="64 : 32 : 1"
       inkscape:vp_y="0 : 1000 : 0"
       inkscape:vp_x="0 : 32 : 1"
       sodipodi:type="inkscape:persp3d" /><linearGradient
       inkscape:collect="always"
       xlink:href="#gradient0-35"
       id="linearGradient3211"
       x1="8.8637438"
       y1="17.32155"
       x2="41.660229"
       y2="17.32155"
       gradientUnits="userSpaceOnUse" /><linearGradient
       inkscape:collect="always"
       xlink:href="#gradient0-35"
       id="linearGradient3219"
       x1="7.8910675"
       y1="23.499998"
       x2="43"
       y2="23.499998"
       gradientUnits="userSpaceOnUse" /><linearGradient
       inkscape:collect="always"
       xlink:href="#gradient0-35"
       id="linearGradient3223"
       gradientUnits="userSpaceOnUse"
       x1="51.021469"
       y1="-29.864973"
       x2="51.021461"
       y2="50.079403"
       gradientTransform="translate(24.93279,93.173291)" /><linearGradient
       y2="10.858153"
       x2="8.7223368"
       y1="6.7354665"
       x1="8.6790628"
       gradientTransform="matrix(2.810197,0,0,2.747234,1.562312,1.675085)"
       gradientUnits="userSpaceOnUse"
       id="linearGradient4320"
       xlink:href="#gradient0-35"
       inkscape:collect="always" /><inkscape:perspective
       id="perspective14"
       inkscape:persp3d-origin="24 : 16 : 1"
       inkscape:vp_z="48 : 24 : 1"
       inkscape:vp_y="0 : 1000 : 0"
       inkscape:vp_x="0 : 24 : 1"
       sodipodi:type="inkscape:persp3d" /><linearGradient
       gradientUnits="userSpaceOnUse"
       y2="52.257511"
       x2="30.695278"
       y1="47.019314"
       x1="30.695278"
       id="linearGradient3170"
       xlink:href="#gradient0-35"
       inkscape:collect="always" /><inkscape:perspective
       id="perspective2479"
       inkscape:persp3d-origin="32 : 21.333333 : 1"
       inkscape:vp_z="64 : 32 : 1"
       inkscape:vp_y="0 : 1000 : 0"
       inkscape:vp_x="0 : 32 : 1"
       sodipodi:type="inkscape:persp3d" /><linearGradient
       inkscape:collect="always"
       xlink:href="#gradient0-35"
       id="linearGradient2509"
       gradientUnits="userSpaceOnUse"
       x1="66"
       y1="-81.76"
       x2="122.5"
       y2="-25.25" /><linearGradient
       inkscape:collect="always"
       xlink:href="#gradient1-9"
       id="linearGradient2511"
       gradientUnits="userSpaceOnUse"
       x1="76.8"
       y1="-54.65"
       x2="115.02"
       y2="-11.7" /><linearGradient
       inkscape:collect="always"
       xlink:href="#gradient0-35"
       id="linearGradient1"
       gradientUnits="userSpaceOnUse"
       x1="66"
       y1="-81.760002"
       x2="122.5"
       y2="-25.25" /><linearGradient
       inkscape:collect="always"
       xlink:href="#gradient1-9"
       id="linearGradient2"
       gradientUnits="userSpaceOnUse"
       x1="76.800003"
       y1="-54.650002"
       x2="115.02"
       y2="-11.7" /></defs><sodipodi:namedview
     id="namedview10"
     pagecolor="#ffffff"
     bordercolor="#000000"
     borderopacity="0.25"
     inkscape:showpageshadow="2"
     inkscape:pageopacity="0.0"
     inkscape:pagecheckerboard="0"
     inkscape:deskcolor="#d1d1d1"
     inkscape:zoom="11.512582"
     inkscape:cx="37.654454"
     inkscape:cy="24.147493"
     inkscape:window-width="2560"
     inkscape:window-height="1295"
     inkscape:window-x="0"
     inkscape:window-y="0"
     inkscape:window-maximized="1"
     inkscape:current-layer="svg10" /><g
     id="g10"><radialGradient
       id="gradient0"
       gradientUnits="userSpaceOnUse"
       cx="0"
       cy="0"
       r="64"
       gradientTransform="matrix(0.1386,0,0,0.1523,56.25,6.75)"><stop
         offset="1"
         stop-color="#010101"
         stop-opacity="0.4705"
         id="stop1" /><stop
         offset="0"
         stop-color="#010101"
         stop-opacity="0"
         id="stop2" /></radialGradient><path
       style="fill:none; stroke:url(#gradient0); stroke-width:4"
       d="M45 27C48 24 54 26 54 20C54 14 34 16 34 12C34 8 48 6 56 6"
       transform="matrix(1,0,0,1,2,1)"
       id="path2" /><path
       style="fill:none; stroke:#010101; stroke-opacity:0.4745; stroke-width:6"
       d="M4 48L28 60L52 36L45 27L26 28L4 48z"
       transform="matrix(1,0,0,1,2,0)"
       id="path3" /><radialGradient
       id="gradient1"
       gradientUnits="userSpaceOnUse"
       cx="0"
       cy="0"
       r="64"
       gradientTransform="matrix(0.1445,0,0,0.1523,54.5,6)"><stop
         offset="1"
         stop-color="#010101"
         id="stop3" /><stop
         offset="0"
         stop-color="#010101"
         stop-opacity="0"
         id="stop4" /></radialGradient><path
       style="fill:none; stroke:url(#gradient1); stroke-width:4"
       d="M45 27C48 24 54 26 54 20C54 14 34 16 34 12C34 8 48 6 56 6"
       id="path4" /><path
       style="fill:none; stroke:#010101; stroke-width:4"
       d="M4 48L28 60L52 36L45 27L26 28L4 48z"
       id="path5" /><linearGradient
       id="gradient2"
       gradientUnits="userSpaceOnUse"
       x1="71.91"
       y1="1.98"
       x2="84.16"
       y2="26.48"><stop
         offset="0"
         stop-color="#ffea97"
         id="stop5" /><stop
         offset="1"
         stop-color="#f0c620"
         id="stop6" /></linearGradient><path
       style="fill:url(#gradient2)"
       d="M4 48L28 60L52 36L45 27L26 28L4 48z"
       id="path6" /><path
       style="fill:none; stroke:#010101; stroke-width:2"
       d="M18 48L31 36"
       id="path7" /><path
       style="fill:none; stroke:#010101; stroke-width:2"
       d="M12 48L29 32"
       id="path8" /><path
       style="fill:none; stroke:#010101; stroke-width:2"
       d="M18 48L31 36"
       transform="matrix(1,0,0,1,8,4)"
       id="path9" /><path
       style="fill:none; stroke:#010101; stroke-width:2"
       d="M12 48L29 32"
       transform="matrix(1,0,0,1,8,4)"
       id="path10" /></g><g
     style="color-interpolation:linearRGB"
     id="g1"
     transform="matrix(0.4920562,0,0,0.4920562,32.396234,30.585139)"><g
       id="g4"><path
         style="fill:#000000;fill-opacity:0.4431"
         d="M 62,50 50,44 40,64 h 8 c 6,0 20,-11 14,-14 z"
         id="path6-7" /><path
         style="fill:none;stroke:#000000;stroke-width:4"
         d="M 49.33,53.17 V 53.16 C 49.75,52.64 50,51.91 50,51 V 32 C 50,21.52 43.94,10.97 34.01,6 27.77,2.88 22,4 18.06,5.92 14,8 9.56,12.41 9.56,12.41 v 0.01 C 7.32,14.46 6,17.72 6.01,21.98 v 19 c 0,2.76 2.24,6.12 5.01,7.51 l 26,13.01 c 1.85,0.93 3.46,0.73 4.34,-0.34 v 0.01 z"
         id="path8-5" /><linearGradient
         id="gradient0-35"
         gradientUnits="userSpaceOnUse"
         x1="66"
         y1="-81.760002"
         x2="122.5"
         y2="-25.25"><stop
           offset="0.2575"
           stop-color="#04a3a5"
           id="stop11-6" /><stop
           offset="0.5227"
           stop-color="#b3feff"
           id="stop13-2" /><stop
           offset="0.8825"
           stop-color="#026667"
           id="stop15" /><stop
           offset="1"
           stop-color="#037072"
           id="stop17" /></linearGradient><path
         style="fill:url(#linearGradient1)"
         d="M 49.33,53.17 V 53.16 C 49.75,52.64 50,51.91 50,51 V 32 C 50,21.52 43.94,10.97 34.01,6 27.77,2.88 22,4 18.06,5.92 14,8 9.56,12.41 9.56,12.41 v 0.01 l 31.8,48.74 v 0.01 z"
         id="path19" /><linearGradient
         id="gradient1-9"
         gradientUnits="userSpaceOnUse"
         x1="76.800003"
         y1="-54.650002"
         x2="115.02"
         y2="-11.7"><stop
           offset="0.4886"
           stop-color="#40c5c7"
           id="stop22-1" /><stop
           offset="0"
           stop-color="#30a3a5"
           id="stop24" /><stop
           offset="1"
           stop-color="#28a3a5"
           id="stop26" /></linearGradient><path
         style="fill:url(#linearGradient2)"
         d="M 24,12 C 14.06,7.01 6,11.48 6.01,21.98 v 19 c 0,2.76 2.24,6.12 5.01,7.51 l 26,13.01 c 2.75,1.38 5,0.27 5,-2.5 V 40 C 42,29.52 33.94,16.97 24.01,12 Z"
         id="path28" /><linearGradient
         id="gradient2-2"
         gradientUnits="userSpaceOnUse"
         x1="15.05"
         y1="6.9299998"
         x2="44.02"
         y2="35.900002"><stop
           offset="0"
           stop-color="#9beff0"
           id="stop31" /><stop
           offset="0.25"
           stop-color="#ffffff"
           id="stop33" /><stop
           offset="1"
           stop-color="#04a8aa"
           id="stop35" /></linearGradient><path
         style="fill:url(#gradient2-2)"
         d="m 24,12 v 0 C 33.31,16.66 40.97,27.97 41.92,38 41.9,27.52 35.93,14.97 26.01,10 H 26 C 19.28,6.63 13.43,7.59 10.34,11.78 13.64,9.38 18.53,9.26 24,12 Z"
         id="path37" /><path
         style="fill:#000000"
         d="m 24,16 c 7.72,3.87 14,13.72 14,22 0,8.29 -6.27,11.86 -13.98,8 C 16.29,42.13 10,32.27 10,23.98 10,15.7 16.26,12.12 24,16 Z"
         id="path39" /><radialGradient
         id="gradient3"
         gradientUnits="userSpaceOnUse"
         cx="0"
         cy="0"
         r="64"
         gradientTransform="matrix(0.2968,0,0,0.3593,26,33)"><stop
           offset="0"
           stop-color="#f8f8ff"
           id="stop42" /><stop
           offset="1"
           stop-color="#9898ff"
           id="stop44" /></radialGradient><path
         style="fill:url(#gradient3)"
         d="m 24,18 c -6.64,-3.32 -12,-0.2 -11.99,6.98 0,7.18 5.37,15.7 12.01,19.02 6.62,3.31 12,0.18 12,-7 C 36,29.82 30.61,21.31 24,18 Z"
         id="path46" /><path
         style="fill:#ffffff"
         d="m 16,28.98 c 0,-6.07 4.47,-8.75 10.01,-5.98 2.1,1.04 4.04,2.74 5.67,4.77 -1.86,-3.32 -4.61,-6.23 -7.67,-7.77 -5.53,-2.77 -10,-0.09 -9.99,5.98 0,3.77 1.71,7.95 4.35,11.24 -1.48,-2.64 -2.36,-5.54 -2.35,-8.24 z m 13,-2.03 c -1.41,-0.71 -2.55,-0.14 -2.55,1.27 0,1.41 1.15,3.12 2.57,3.82 1.42,0.71 2.54,0.14 2.54,-1.26 -0.01,-1.41 -1.14,-3.13 -2.54,-3.83 z"
         id="path48" /><linearGradient
         id="gradient4"
         gradientUnits="userSpaceOnUse"
         x1="74.629997"
         y1="-48.18"
         x2="79.769997"
         y2="-44.529999"><stop
           offset="0"
           stop-color="#dadada"
           id="stop51" /><stop
           offset="1"
           stop-color="#000000"
           id="stop53" /></linearGradient><path
         style="fill:none;stroke:url(#gradient4);stroke-width:3;stroke-linecap:round;stroke-linejoin:round"
         d="m 28,25 3,7 10,-6 m -21,6 h 2 m 20,0 h 2 M 32,42 v 2 m 0,-24 v 2"
         transform="matrix(0.7484,0.4784,0.0261,0.8247,-0.7028,-10.2605)"
         id="path55" /></g><g
       inkscape:label="Layer 1"
       id="layer1"
       transform="matrix(1.5132144,0,0,1.5132144,-11.458531,-11.076748)"><g
         transform="translate(0,50)"
         id="g8122"><g
           id="g8109"><g
             id="g8098" /></g><g
           id="g7109"
           transform="translate(-62,-52)"><path
             sodipodi:nodetypes="ccccccsccc"
             id="path7007"
             d="m 86,10.5 c -4.361081,0 -8.252012,2.064832 -10.71875,5.28125 L 72.5,13 70.5,23.5 81,21.5 78.15625,18.65625 C 79.863849,16.151009 82.739729,13.5 86,13.5 c 0.169139,0 2.333026,0.02251 2.5,0.03125 v -3 C 88.332013,10.525047 86.169495,10.5 86,10.5 Z"
             style="opacity:1;fill:url(#linearGradient2565);fill-opacity:1;fill-rule:evenodd;stroke:url(#linearGradient2567);stroke-width:1;stroke-linecap:round;stroke-linejoin:miter;stroke-miterlimit:10;stroke-dasharray:none;stroke-dashoffset:0.7;stroke-opacity:1" /></g></g></g><g
       inkscape:label="Layer 1"
       id="g2625"
       transform="translate(-60.532188,6.7145756)"><g
         transform="translate(18.545723,-7.0458238)"
         id="g2439"
         inkscape:label="Layer 1"><g
           id="g2416"
           transform="matrix(0.8082747,0,0,0.1252211,-10.151518,14.737781)"><g
             id="g2631"><linearGradient
               y2="5.25"
               x2="77.269997"
               y1="-10.35"
               x1="66.449997"
               gradientUnits="userSpaceOnUse"
               id="linearGradient2633"><stop
                 id="stop2635"
                 stop-color="#acff0d"
                 offset="0" /><stop
                 id="stop19"
                 stop-color="#04a804"
                 offset="1" /></linearGradient><linearGradient
               y2="7.0100002"
               x2="85.120003"
               y1="-20.74"
               x1="57.509998"
               gradientUnits="userSpaceOnUse"
               id="linearGradient2638"><stop
                 id="stop2640"
                 stop-color="#68fb06"
                 offset="0" /><stop
                 id="stop2642"
                 stop-color="#05d705"
                 offset="1" /></linearGradient></g></g></g></g><g
       id="g2482"
       transform="translate(51.845493,-4.033262)"><g
         transform="matrix(1,0,0,-1,0,56.99)"
         id="g2484"><linearGradient
           y2="-18.549999"
           x2="56.68"
           y1="-24.700001"
           x1="38.700001"
           gradientUnits="userSpaceOnUse"
           id="linearGradient2493"><stop
             id="stop2495"
             stop-color="#ffd789"
             offset="0" /><stop
             id="stop2497"
             stop-color="#e08606"
             offset="1" /></linearGradient><linearGradient
           y2="7.0100002"
           x2="87.120003"
           y1="-20.74"
           x1="59.509998"
           gradientUnits="userSpaceOnUse"
           id="linearGradient2500"><stop
             id="stop2502"
             stop-color="#ffbf44"
             offset="0" /><stop
             id="stop2504"
             stop-color="#ff9806"
             offset="1" /></linearGradient></g></g></g></svg>
