<?xml version="1.0" encoding="UTF-8" standalone="no"?>
<!-- Created with Inkscape (http://www.inkscape.org/) -->

<svg
   width="48px"
   height="48px"
   id="svg1306"
   sodipodi:version="0.32"
   inkscape:version="1.4 (e7c3feb100, 2024-10-09)"
   sodipodi:docname="weather-snow-scattered.svg"
   inkscape:output_extension="org.inkscape.output.svg.inkscape"
   version="1.1"
   xmlns:inkscape="http://www.inkscape.org/namespaces/inkscape"
   xmlns:sodipodi="http://sodipodi.sourceforge.net/DTD/sodipodi-0.dtd"
   xmlns:xlink="http://www.w3.org/1999/xlink"
   xmlns="http://www.w3.org/2000/svg"
   xmlns:svg="http://www.w3.org/2000/svg"
   xmlns:rdf="http://www.w3.org/1999/02/22-rdf-syntax-ns#"
   xmlns:cc="http://creativecommons.org/ns#"
   xmlns:dc="http://purl.org/dc/elements/1.1/">
  <defs
     id="defs1308">
    <inkscape:perspective
       sodipodi:type="inkscape:persp3d"
       inkscape:vp_x="0 : 24 : 1"
       inkscape:vp_y="0 : 1000 : 0"
       inkscape:vp_z="48 : 24 : 1"
       inkscape:persp3d-origin="24 : 16 : 1"
       id="perspective26" />
    <linearGradient
       inkscape:collect="always"
       id="linearGradient3123">
      <stop
         style="stop-color:black;stop-opacity:1;"
         offset="0"
         id="stop3125" />
      <stop
         style="stop-color:black;stop-opacity:0;"
         offset="1"
         id="stop3127" />
    </linearGradient>
    <linearGradient
       id="linearGradient3389">
      <stop
         style="stop-color:white;stop-opacity:1"
         offset="0"
         id="stop3391" />
      <stop
         id="stop3397"
         offset="0.26506025"
         style="stop-color:white;stop-opacity:1;" />
      <stop
         style="stop-color:#a7a7a7;stop-opacity:1;"
         offset="1"
         id="stop3393" />
    </linearGradient>
    <radialGradient
       inkscape:collect="always"
       xlink:href="#linearGradient3389"
       id="radialGradient3080"
       cx="20.387419"
       cy="17.105022"
       fx="20.387419"
       fy="17.105022"
       r="24"
       gradientTransform="matrix(1.941537,0,0,0.691557,-19.95792,7.170901)"
       gradientUnits="userSpaceOnUse" />
    <radialGradient
       inkscape:collect="always"
       xlink:href="#linearGradient3123"
       id="radialGradient3129"
       cx="24.000002"
       cy="25.344858"
       fx="24.000002"
       fy="25.344858"
       r="24"
       gradientTransform="matrix(1.194997,0,0,0.484904,-4.679924,11.44763)"
       gradientUnits="userSpaceOnUse" />
    <radialGradient
       inkscape:collect="always"
       xlink:href="#linearGradient3389"
       id="radialGradient3175"
       cx="24.921875"
       cy="40.078125"
       fx="24.921875"
       fy="40.078125"
       r="2.2460938"
       gradientUnits="userSpaceOnUse"
       gradientTransform="matrix(1.113043,0,0,1.113044,-14.929049,-8.8270438)" />
    <radialGradient
       inkscape:collect="always"
       xlink:href="#linearGradient3389"
       id="radialGradient3191"
       cx="24.921875"
       cy="40.078125"
       fx="24.921875"
       fy="40.078125"
       r="2.2460938"
       gradientUnits="userSpaceOnUse"
       gradientTransform="matrix(1.113043,0,0,1.113044,6.6399429,-9.4074068)" />
    <radialGradient
       inkscape:collect="always"
       xlink:href="#linearGradient3389"
       id="radialGradient3207"
       cx="24.921875"
       cy="40.078125"
       fx="24.921875"
       fy="40.078125"
       r="2.2460938"
       gradientUnits="userSpaceOnUse"
       gradientTransform="matrix(1.113043,0,0,1.113044,-7.3357845,-1.8327294)" />
  </defs>
  <sodipodi:namedview
     id="base"
     pagecolor="#ffffff"
     bordercolor="#666"
     borderopacity="1"
     inkscape:pageopacity="0.0"
     inkscape:pageshadow="2"
     inkscape:zoom="6.9604261"
     inkscape:cx="15.444457"
     inkscape:cy="19.467199"
     inkscape:current-layer="layer1"
     showgrid="false"
     inkscape:grid-bbox="true"
     inkscape:document-units="px"
     inkscape:window-width="1493"
     inkscape:window-height="796"
     inkscape:window-x="2291"
     inkscape:window-y="265"
     inkscape:showpageshadow="false"
     showborder="false"
     showguides="true"
     inkscape:guide-bbox="true"
     inkscape:pagecheckerboard="0"
     inkscape:deskcolor="#d1d1d1"
     inkscape:window-maximized="0" />
  <metadata
     id="metadata1311">
    <rdf:RDF>
      <cc:Work
         rdf:about="">
        <dc:format>image/svg+xml</dc:format>
        <dc:type
           rdf:resource="http://purl.org/dc/dcmitype/StillImage" />
        <cc:license
           rdf:resource="" />
      </cc:Work>
    </rdf:RDF>
  </metadata>
  <g
     id="layer1"
     inkscape:label="Layer 1"
     inkscape:groupmode="layer">
    <path
       style="fill:url(#radialGradient3080);fill-opacity:1;stroke:#000000;stroke-width:1;stroke-linecap:round;stroke-linejoin:miter;stroke-miterlimit:4;stroke-dasharray:none;stroke-dashoffset:1.2;stroke-opacity:1"
       d="m 27,9.5 c -1.380003,0 -2.5,1.119997 -2.5,2.5 0,0.183237 0.02502,0.359194 0.0625,0.53125 -3.313808,0.151938 -6.171351,1.987701 -7.75,4.6875 C 16.163117,16.76344 15.352746,16.5 14.5,16.5 c -0.345773,0 -0.679915,0.07364 -1,0.15625 0.004,-0.05174 0,-0.103485 0,-0.15625 0,-1.104003 -0.895997,-2 -2,-2 -1.104003,0 -2.0000002,0.895996 -2,2 0,0.955653 0.665989,1.77106 1.5625,1.96875 C 10.712418,19.063082 10.5,19.760776 10.5,20.5 c 0,0.20146 0.03371,0.400261 0.0625,0.59375 C 9.9602283,20.730458 9.2541665,20.5 8.5,20.5 6.8835526,20.5 5.5056469,21.462793 4.875,22.84375 4.4167467,22.323207 3.7474993,22 3,22 1.6200014,22 0.49999998,23.120005 0.5,24.5 0.5,25.879994 1.6200014,27 3,27 3.7474993,27 4.4167467,26.676793 4.875,26.15625 5.505647,27.537206 6.8835529,28.499999 8.5,28.5 c 0.8765388,0 1.684417,-0.302514 2.34375,-0.78125 C 11.550079,29.623343 13.350649,31 15.5,31 16.919591,31 18.183331,30.388645 19.09375,29.4375 20.717472,30.732721 22.763047,31.5 25,31.5 c 2.934178,0 5.569428,-1.345082 7.3125,-3.4375 C 33.289388,28.950443 34.576875,29.5 36,29.5 c 1.549626,0 2.937507,-0.655223 3.9375,-1.6875 C 40.516678,28.236992 41.227414,28.5 42,28.5 c 1.086749,0 2.04538,-0.503283 2.6875,-1.28125 C 44.941606,27.686327 45.43075,28 46,28 c 0.827999,0 1.500002,-0.671997 1.5,-1.5 0,-0.828004 -0.672002,-1.499999 -1.5,-1.5 -0.1725,0 -0.345708,0.04008 -0.5,0.09375 8.16e-4,-0.03107 0,-0.06249 0,-0.09375 0,-1.932007 -1.568003,-3.5 -3.5,-3.5 -0.35535,0 -0.70802,0.05765 -1.03125,0.15625 -0.707504,-1.491298 -2.076818,-2.613435 -3.71875,-3 0.151875,-0.358876 0.25,-0.742249 0.25,-1.15625 0,-1.656003 -1.343997,-3 -3,-3 -0.97899,0 -1.858564,0.461292 -2.40625,1.1875 -0.839701,-0.940803 -1.87979,-1.702126 -3.03125,-2.25 C 29.340986,13.034361 29.5,12.526701 29.5,12 29.5,10.619997 28.380002,9.4999998 27,9.5 Z"
       id="path2077" />
    <ellipse
       style="opacity:1;fill:url(#radialGradient3191);fill-opacity:1;stroke:#000000;stroke-width:0.999999;stroke-linecap:round;stroke-linejoin:miter;stroke-miterlimit:4;stroke-dasharray:none;stroke-dashoffset:1.2;stroke-opacity:1"
       id="path1964"
       cx="34.379063"
       cy="35.201309"
       rx="1.9999992"
       ry="2.000001" />
    <ellipse
       style="opacity:1;fill:url(#radialGradient3207);fill-opacity:1;stroke:#000000;stroke-width:0.999999;stroke-linecap:round;stroke-linejoin:miter;stroke-miterlimit:4;stroke-dasharray:none;stroke-dashoffset:1.2;stroke-opacity:1"
       id="path2853"
       cx="20.403334"
       cy="42.775986"
       rx="1.9999992"
       ry="2.000001" />
    <ellipse
       style="opacity:1;fill:url(#radialGradient3175);fill-opacity:1;stroke:#000000;stroke-width:0.999999;stroke-linecap:round;stroke-linejoin:miter;stroke-miterlimit:4;stroke-dasharray:none;stroke-dashoffset:1.2;stroke-opacity:1"
       id="path2855"
       cx="12.810069"
       cy="35.781673"
       rx="1.9999992"
       ry="2.000001" />
  </g>
</svg>
