<?xml version="1.0" encoding="UTF-8" standalone="yes"?>
<svg version="1.1" width="64" height="64" color-interpolation="linearRGB"
     xmlns:svg="http://www.w3.org/2000/svg" xmlns="http://www.w3.org/2000/svg">
 <g>
  <path style="fill:none; stroke:#000000; stroke-opacity:0.4; stroke-width:4; stroke-linecap:round; stroke-linejoin:round"
        d="M32 40V36H24V6H34L36 12H40V2H2V12H6L8 6H18V36H10V40H32z"
        transform="matrix(1,0,0,1,2,2)"
  />
  <path style="fill:none; stroke:#000000; stroke-width:4; stroke-linecap:round; stroke-linejoin:round"
        d="M32 40V36H24V6H34L36 12H40V2H2V12H6L8 6H18V36H10V40H32z"
  />
  <linearGradient id="gradient0" gradientUnits="userSpaceOnUse" x1="128" y1="1.99" x2="128" y2="40">
   <stop offset="0" stop-color="#808080"/>
   <stop offset="1" stop-color="#292929"/>
  </linearGradient>
  <path style="fill:url(#gradient0)"
        d="M32 40V36H24V6H34L36 12H40V2H2V12H6L8 6H18V36H10V40H32z"
  />
 </g>
</svg>
