<?xml version="1.0" encoding="UTF-8" standalone="yes"?>
<svg version="1.1" width="64" height="64" color-interpolation="linearRGB"
     xmlns:svg="http://www.w3.org/2000/svg" xmlns="http://www.w3.org/2000/svg">
 <g>
  <path style="fill:#010101; fill-opacity:0.4431"
        d="M21 60C19 59 21 49 23 46V44C23 44 19 46 17 44C15 42 20 37 20 37L59 23C59 23 62 24 62 25C62 26 47 40 47 40L40 46L39 50C39 50 41 52 39 54C37 56 34 54 34 54C34 54 23 61 21 60z"
  />
  <path style="fill:none; stroke:#010101; stroke-width:4"
        d="M22.5 23C20.55 23 19 24.55 19 26.5C19 28.43 20.55 30 22.5 30C24.43 30 26 28.43 26 26.5C26 24.55 24.43 23 22.5 23z"
        transform="matrix(1,0,0,1,-12,-6)"
  />
  <radialGradient id="gradient0" gradientUnits="userSpaceOnUse" cx="0" cy="0" r="64" gradientTransform="matrix(0.0781,0,0,0.0781,21,25)">
   <stop offset="0.3607" stop-color="#ff9306"/>
   <stop offset="1" stop-color="#dd0404"/>
  </radialGradient>
  <path style="fill:url(#gradient0)"
        d="M22.5 23C20.55 23 19 24.55 19 26.5C19 28.43 20.55 30 22.5 30C24.43 30 26 28.43 26 26.5C26 24.55 24.43 23 22.5 23z"
        transform="matrix(1,0,0,1,-12,-6)"
  />
  <path style="fill:#010101"
        d="M20 25C20 25 19 25.82 19 26.5C19 27.13 20 28 20 28C20 28 23 29 24 28C22 28 20 25 20 25z"
        transform="matrix(-0.6211,-0.7836,-0.7836,0.6211,43.8,20.9743)"
  />
  <path style="fill:none; stroke:#010101; stroke-width:6; stroke-linecap:round; stroke-linejoin:round"
        d="M33 45L30 41C30 41 27 41 28 40C29 39 30 41 30 41L33 45L28 44C28 44 26 42 26 43C26 44 28 44 28 44L33 45L28 47C28 47 26 46 26 47C26 48 28 47 28 47L33 45z"
        transform="matrix(-0.7071,-0.7071,0.7071,-0.7071,8.4685,90.3129)"
  />
  <radialGradient id="gradient1" gradientUnits="userSpaceOnUse" cx="0" cy="0" r="64" gradientTransform="matrix(0.1296,0.0107,-0.0219,0.2647,34.739,29.1285)">
   <stop offset="0.3764" stop-color="#7fbfeb"/>
   <stop offset="1" stop-color="#2584e5"/>
  </radialGradient>
  <path style="fill:none; stroke:url(#gradient1); stroke-width:2; stroke-linecap:round; stroke-linejoin:round"
        d="M33 45L30 41C30 41 27 41 28 40C29 39 30 41 30 41L33 45L28 44C28 44 26 42 26 43C26 44 28 44 28 44L33 45L28 47C28 47 26 46 26 47C26 48 28 47 28 47L33 45z"
        transform="matrix(-0.7071,-0.7071,0.7071,-0.7071,8.4685,90.3129)"
  />
  <path style="fill:none; stroke:#010101; stroke-width:4"
        d="M5 38C3 37 2 37 2 35C2 33 13 16 21 16C23 16 25 16 27 14C29 12 36 5 38 5C40 5 47 8 49 9C51 10 56 13 56 16C56 17 56 21 51 27C48 32 28 33 28 33C28 33 7 39 5 38z"
  />
  <radialGradient id="gradient2" gradientUnits="userSpaceOnUse" cx="0" cy="0" r="64" gradientTransform="matrix(0.3358,-0.1562,0.112,0.2408,11.0958,22.1535)">
   <stop offset="0.5568" stop-color="#ffd305"/>
   <stop offset="0.996" stop-color="#c98605"/>
  </radialGradient>
  <path style="fill:url(#gradient2)"
        d="M5 38C3 37 2 37 2 35C2 33 13 16 21 16C32 17 31 24 32 27C34 31 28 33 28 33C28 33 7 39 5 38z"
  />
  <radialGradient id="gradient3" gradientUnits="userSpaceOnUse" cx="0" cy="0" r="64" gradientTransform="matrix(0.3711,-0.0485,0.0344,0.2633,35.0021,11.973)">
   <stop offset="0.4901" stop-color="#ffd306"/>
   <stop offset="1" stop-color="#c98605"/>
  </radialGradient>
  <path style="fill:url(#gradient3)"
        d="M21 16C23 16 25 16 27 14C29 12 36 5 38 5C40 5 47 8 49 9C51 10 56 13 56 16C56 17 56 21 51 27C38 26 28 33 28 33C28 33 34 31 32 27C31 24 32 17 21 16z"
  />
  <path style="fill:#ffeb9e"
        d="M51 27C48 32 28 33 28 33C28 33 38 26 51 27z"
  />
  <path style="fill:none; stroke:#010101; stroke-width:4"
        d="M22.5 23C20.55 23 19 24.55 19 26.5C19 28.43 20.55 30 22.5 30C24.43 30 26 28.43 26 26.5C26 24.55 24.43 23 22.5 23z"
  />
  <radialGradient id="gradient4" gradientUnits="userSpaceOnUse" cx="0" cy="0" r="64" gradientTransform="matrix(0.0781,0,0,0.0781,21,25)">
   <stop offset="0.3607" stop-color="#ff9306"/>
   <stop offset="1" stop-color="#dd0404"/>
  </radialGradient>
  <path style="fill:url(#gradient4)"
        d="M22.5 23C20.55 23 19 24.55 19 26.5C19 28.43 20.55 30 22.5 30C24.43 30 26 28.43 26 26.5C26 24.55 24.43 23 22.5 23z"
  />
  <path style="fill:#010101"
        d="M20 25C20 25 19 25.82 19 26.5C19 27.13 20 28 20 28C20 28 23 29 24 28C22 28 20 25 20 25z"
  />
  <path style="fill:none; stroke:#010101; stroke-width:4"
        d="M37 26C36 27 36 30 37 32C38 34 39 38 38 39C35 39 37 44 33 44L32 46C34 47 45 44 41 35C39 31 43 24 39 23"
        transform="matrix(1,0,0,0.9262,0,3.5556)"
  />
  <path style="fill:none; stroke:#010101; stroke-width:6; stroke-linecap:round; stroke-linejoin:round"
        d="M33 45L30 41C30 41 27 41 28 40C29 39 30 41 30 41L33 45L28 44C28 44 26 42 26 43C26 44 28 44 28 44L33 45L28 47C28 47 26 46 26 47C26 48 28 47 28 47L33 45z"
  />
  <radialGradient id="gradient5" gradientUnits="userSpaceOnUse" cx="0" cy="0" r="64" gradientTransform="matrix(0.1296,0.0107,-0.0219,0.2647,34.739,29.1285)">
   <stop offset="0.3764" stop-color="#7fbfeb"/>
   <stop offset="1" stop-color="#2584e5"/>
  </radialGradient>
  <path style="fill:none; stroke:url(#gradient5); stroke-width:2; stroke-linecap:round; stroke-linejoin:round"
        d="M33 45L30 41C30 41 27 41 28 40C29 39 30 41 30 41L33 45L28 44C28 44 26 42 26 43C26 44 28 44 28 44L33 45L28 47C28 47 26 46 26 47C26 48 28 47 28 47L33 45z"
  />
  <radialGradient id="gradient6" gradientUnits="userSpaceOnUse" cx="0" cy="0" r="64" gradientTransform="matrix(0.1296,0.0107,-0.0219,0.2647,34.739,29.1285)">
   <stop offset="0.3764" stop-color="#7fbfeb"/>
   <stop offset="1" stop-color="#2584e5"/>
  </radialGradient>
  <path style="fill:url(#gradient6)"
        d="M37 26C36 27 36 30 37 32C38 34 39 38 38 39C35 39 37 44 33 44L32 46C34 47 45 44 41 35C39 31 43 24 39 23"
  />
  <path style="fill:none; stroke:#010101; stroke-width:4"
        d="M51 17C49 18 47 19.37 47 22C47 25 50 26 52 26C54 26 56 21 56 21L57 28L54 33L59 29C58.34 26.37 60 21 60 19C60 17 59 15 58 15C57 15 56 19 56 19"
  />
  <path style="fill:none; stroke:#010101; stroke-width:6; stroke-linecap:round; stroke-linejoin:round"
        d="M58 28L47 39C47 39 45 39 46 40C47 41 47 39 47 39L55 33L50 41C50 41 47 42 49 43C51 44 50 41 50 41L58 28L54 42C54 42 53 44 54 44C55 44 54 42 54 42L55 33"
  />
  <linearGradient id="gradient7" gradientUnits="userSpaceOnUse" x1="76.18" y1="19.51" x2="65.69" y2="10.83">
   <stop offset="0.3019" stop-color="#7fbfeb"/>
   <stop offset="0.6666" stop-color="#2584e5"/>
  </linearGradient>
  <path style="fill:none; stroke:url(#gradient7); stroke-width:2; stroke-linecap:round; stroke-linejoin:round"
        d="M58 28L47 39C47 39 45 39 46 40C47 41 47 39 47 39L55 33L50 41C50 41 47 42 49 43C51 44 50 41 50 41L58 28L54 42C54 42 53 44 54 44C55 44 54 42 54 42L55 33"
  />
  <radialGradient id="gradient8" gradientUnits="userSpaceOnUse" cx="0" cy="0" r="64" gradientTransform="matrix(0.2401,-0.0686,0.0952,0.3332,45.2465,17.3956)">
   <stop offset="0.3019" stop-color="#7fbfeb"/>
   <stop offset="0.6666" stop-color="#2584e5"/>
   <stop offset="1" stop-color="#7fbfeb"/>
  </radialGradient>
  <path style="fill:url(#gradient8)"
        d="M57 28L59 29C58.34 26.37 60 21 60 19C60 17 59 15 58 15C57 15 56 16 56 16L55 14C50 14 47 17 47 22C47 25 50 26 52 26C54 26 56 21 56 21L57 28z"
  />
  <path style="fill:#ffffff; fill-opacity:0.4509"
        d="M8 35C10 35 12 33 14 32C17 31 10 29 12 27C13 26 15 22 20 18C15 20 12 25 11 26C10 27 6 29 4 32C6 32 7 33 8 35z
           M27 16C25 17 32 18 33 21C33 21 42 15 48 12C44 10 34 17 34 17L42 9L39 7L31 15L33 11C33 11 29 15 27 16z
           M38 26C40 24 40 30 38 32C38 30 36 28 38 26z
           M49 23C54 23 51 19 53 16C52 16 46 20 49 23z
           M23 29C25 29 25 26 23 26C21 26 21 29 23 29z"
  />
 </g>
</svg>
