<?xml version="1.0" encoding="UTF-8" standalone="yes"?>
<svg version="1.1" width="64" height="64" color-interpolation="linearRGB"
     xmlns:svg="http://www.w3.org/2000/svg" xmlns="http://www.w3.org/2000/svg">
 <g>
  <linearGradient id="gradient0" gradientUnits="userSpaceOnUse" x1="45.62" y1="-44.88" x2="108.88" y2="18.37">
   <stop offset="0" stop-color="#3d3d3d"/>
   <stop offset="1" stop-color="#000000"/>
  </linearGradient>
  <path style="fill:url(#gradient0)"
        d="M0 0H64V64H0V0z"
  />
  <path style="fill:#ffffff"
        d="M24 24L19.1 24L22.1 21L24 21V24z
           M40 21L41.89 21L45 24H40V21z"
  />
  <path style="fill:none; stroke:#ffffff; stroke-width:2"
        d="M61 21H42L45 24H40V16L35.41 16.53C33.95 16.77 34.1 17.99 34.1 17.99C36 18 36 19 36 20V26H56L58 24H48L47 23H59L61 21z
           M5.1 23H17.1L16.1 24H6.1L8.1 26H28.1V20C28.1 19 28.1 18 30 18C30 18 30.15 16.78 28.68 16.54L24.1 16V24H19.1L22.1 21H3.1L5.1 23z
           M36 38L34 40V27H30V38L28 40V27H9L11 29H24V47L30 41V49L34 45V43L36 41V47L40 43V29H53L55 27H36V38z"
  />
  <linearGradient id="gradient1" gradientUnits="userSpaceOnUse" x1="45.62" y1="-44.88" x2="108.88" y2="18.37">
   <stop offset="0" stop-color="#ffbdac"/>
   <stop offset="1" stop-color="#e60000"/>
  </linearGradient>
  <path style="fill:url(#gradient1)"
        d="M61 21H42L45 24H40V16L35.41 16.53C33.95 16.77 34.1 17.99 34.1 17.99C36 18 36 19 36 20V26H56L58 24H48L47 23H59L61 21z
           M5.1 23H17.1L16.1 24H6.1L8.1 26H28.1V20C28.1 19 28.1 18 30 18C30 18 30.15 16.78 28.68 16.54L24.1 16V24H19.1L22.1 21H3.1L5.1 23z
           M36 38L34 40V27H30V38L28 40V27H9L11 29H24V47L30 41V49L34 45V43L36 41V47L40 43V29H53L55 27H36V38z"
  />
 </g>
</svg>
