<?xml version="1.0" encoding="UTF-8" standalone="yes"?>
<svg version="1.1" width="64" height="64" color-interpolation="linearRGB"
     xmlns:svg="http://www.w3.org/2000/svg" xmlns="http://www.w3.org/2000/svg">
 <g>
  <path style="fill:none; stroke:#024064; stroke-width:4"
        d="M42 58C39 58 32 57 31 55L30 48V55C28 55 25 55 24 54C23 53 23 45 27 39C30 34 34 30 42 30C50 30 54 34 57 39C61 45 61 53 60 54C59 55 54 55 52 55V48L51 55C50 57 45 58 42 58z"
        transform="matrix(0.92,0,0,0.92,-18.285,-5.2)"
  />
  <linearGradient id="gradient0" gradientUnits="userSpaceOnUse" x1="77.5" y1="30.5" x2="77.5" y2="58.5">
   <stop offset="0" stop-color="#78bee6"/>
   <stop offset="0.2132" stop-color="#bee0f3"/>
   <stop offset="0.4774" stop-color="#78bee6"/>
   <stop offset="1" stop-color="#4894c0"/>
  </linearGradient>
  <path style="fill:url(#gradient0)"
        d="M42 58C39 58 32 57 31 55L30 48V55C28 55 25 55 24 54C23 53 23 45 27 39C30 34 34 30 42 30C50 30 54 34 57 39C61 45 61 53 60 54C59 55 54 55 52 55V48L51 55C50 57 45 58 42 58z"
        transform="matrix(0.92,0,0,0.92,-18.285,-5.2)"
  />
  <path style="fill:none; stroke:#024064; stroke-width:4"
        d="M42 12C36.47 12 32 16.47 32 22C32 27.52 36.47 32 42 32C47.52 32 52 27.52 52 22C52 16.47 47.52 12 42 12z"
        transform="matrix(0.92,0,0,0.92,-18.285,-5.2)"
  />
  <radialGradient id="gradient1" gradientUnits="userSpaceOnUse" cx="0" cy="0" r="64" gradientTransform="matrix(0.2187,0,0,0.2187,38,18)">
   <stop offset="0" stop-color="#ffffff"/>
   <stop offset="0.7777" stop-color="#78bee6"/>
   <stop offset="1" stop-color="#4894c0"/>
  </radialGradient>
  <path style="fill:url(#gradient1)"
        d="M42 12C36.47 12 32 16.47 32 22C32 27.52 36.47 32 42 32C47.52 32 52 27.52 52 22C52 16.47 47.52 12 42 12z"
        transform="matrix(0.92,0,0,0.92,-18.285,-5.2)"
  />
  <path style="fill:none; stroke:#005c00; stroke-width:4"
        d="M42 58C39 58 32 57 31 55L30 48V55C28 55 25 55 24 54C23 53 23 45 27 39C30 34 34 30 42 30C50 30 54 34 57 39C61 45 61 53 60 54C59 55 54 55 52 55V48L51 55C50 57 45 58 42 58z"
  />
  <linearGradient id="gradient2" gradientUnits="userSpaceOnUse" x1="77.5" y1="30.5" x2="77.5" y2="58.5">
   <stop offset="0" stop-color="#6cc06c"/>
   <stop offset="0.2132" stop-color="#bfe4bf"/>
   <stop offset="0.4774" stop-color="#6cc06c"/>
   <stop offset="1" stop-color="#00a000"/>
  </linearGradient>
  <path style="fill:url(#gradient2)"
        d="M42 58C39 58 32 57 31 55L30 48V55C28 55 25 55 24 54C23 53 23 45 27 39C30 34 34 30 42 30C50 30 54 34 57 39C61 45 61 53 60 54C59 55 54 55 52 55V48L51 55C50 57 45 58 42 58z"
  />
  <path style="fill:none; stroke:#005c00; stroke-width:4"
        d="M42 12C36.47 12 32 16.47 32 22C32 27.52 36.47 32 42 32C47.52 32 52 27.52 52 22C52 16.47 47.52 12 42 12z"
  />
  <radialGradient id="gradient3" gradientUnits="userSpaceOnUse" cx="0" cy="0" r="64" gradientTransform="matrix(0.2187,0,0,0.2187,38,18)">
   <stop offset="0" stop-color="#ffffff"/>
   <stop offset="0.7777" stop-color="#6cc06c"/>
   <stop offset="1" stop-color="#00a000"/>
  </radialGradient>
  <path style="fill:url(#gradient3)"
        d="M42 12C36.47 12 32 16.47 32 22C32 27.52 36.47 32 42 32C47.52 32 52 27.52 52 22C52 16.47 47.52 12 42 12z"
  />
 </g>
</svg>
