<?xml version="1.0" encoding="UTF-8" standalone="yes"?>
<svg version="1.1" width="64" height="64" color-interpolation="linearRGB"
     xmlns:svg="http://www.w3.org/2000/svg" xmlns="http://www.w3.org/2000/svg">
 <g>
  <path style="fill:none; stroke:#000000; stroke-opacity:0.4; stroke-width:4; stroke-linecap:round; stroke-linejoin:round"
        d="M2 10V2H14V10H2z
           M40 40H2V10H40V40z"
        transform="matrix(1,0,0,1,2,2)"
  />
  <path style="fill:none; stroke:#545454; stroke-width:4; stroke-linecap:round; stroke-linejoin:round"
        d="M40 40H2V10H40V40z"
  />
  <path style="fill:none; stroke:#bf5000; stroke-width:4; stroke-linecap:round; stroke-linejoin:round"
        d="M2 10V2H14V10H2z"
  />
  <path style="fill:#ffd400"
        d="M2 10V2H14V10H2z"
  />
  <linearGradient id="gradient0" gradientUnits="userSpaceOnUse" x1="2" y1="11" x2="40" y2="11">
   <stop offset="0.7947" stop-color="#ffffff"/>
   <stop offset="1" stop-color="#e6e1dc"/>
  </linearGradient>
  <path style="fill:url(#gradient0)"
        d="M40 40H2V10H40V40z"
  />
  <path style="fill:none; stroke:#004080; stroke-width:4; stroke-linecap:round; stroke-linejoin:round"
        d="M10 24H32V20L38 25L32 30V26H10V30L4 25L10 20V24z"
        transform="matrix(1,0,0,1,0.0534,0.0534)"
  />
  <linearGradient id="gradient1" gradientUnits="userSpaceOnUse" x1="128" y1="20" x2="128" y2="30">
   <stop offset="0" stop-color="#abd5ff"/>
   <stop offset="1" stop-color="#006cd9"/>
  </linearGradient>
  <path style="fill:url(#gradient1)"
        d="M10 24H32V20L38 25L32 30V26H10V30L4 25L10 20V24z"
  />
 </g>
</svg>
