<?xml version="1.0" encoding="UTF-8" standalone="yes"?>
<svg version="1.1" width="64" height="64" color-interpolation="linearRGB"
     xmlns:svg="http://www.w3.org/2000/svg" xmlns="http://www.w3.org/2000/svg">
 <g>
  <path style="fill:none; stroke:#000000; stroke-opacity:0.4; stroke-width:10"
        d="M21 13H17C10.37 13 5 18.37 5 25C5 31.62 10.37 37 17 37C20.58 37 23.8 35.42 26 32.93"
        transform="matrix(1,0,0,1,2,2)"
  />
  <path style="fill:none; stroke:#000000; stroke-opacity:0.4; stroke-width:4; stroke-linejoin:round"
        d="M21 24V2L36 13L21 24z"
        transform="matrix(1,0,0,1,2,2)"
  />
  <path style="fill:none; stroke:#005900; stroke-width:10; stroke-linecap:round"
        d="M21 13H17C10.37 13 5 18.37 5 25C5 31.62 10.37 37 17 37C20.58 37 23.8 35.42 26 32.93"
  />
  <path style="fill:none; stroke:#005900; stroke-width:4; stroke-linejoin:round"
        d="M21 24V2L36 13L21 24z"
  />
  <linearGradient id="gradient0" gradientUnits="userSpaceOnUse" x1="128" y1="1.99" x2="128" y2="40">
   <stop offset="0" stop-color="#80ff80"/>
   <stop offset="1" stop-color="#00b200"/>
  </linearGradient>
  <path style="fill:none; stroke:url(#gradient0); stroke-width:6; stroke-linecap:round"
        d="M21 13H17C10.37 13 5 18.37 5 25C5 31.62 10.37 37 17 37C20.58 37 23.8 35.42 26 32.93"
  />
  <linearGradient id="gradient1" gradientUnits="userSpaceOnUse" x1="128" y1="1.99" x2="128" y2="40">
   <stop offset="0" stop-color="#80ff80"/>
   <stop offset="1" stop-color="#00b200"/>
  </linearGradient>
  <path style="fill:url(#gradient1)"
        d="M21 24V2L36 13L21 24z"
  />
 </g>
</svg>
