<?xml version="1.0" encoding="UTF-8" standalone="yes"?>
<svg version="1.1" width="64" height="64" color-interpolation="linearRGB"
     xmlns:svg="http://www.w3.org/2000/svg" xmlns="http://www.w3.org/2000/svg">
 <g>
  <radialGradient id="gradient0" gradientUnits="userSpaceOnUse" cx="0" cy="0" r="64" gradientTransform="matrix(0.5,0,0,0.125,32,56)">
   <stop offset="0" stop-color="#000000" stop-opacity="0.5019"/>
   <stop offset="1" stop-color="#000000" stop-opacity="0"/>
  </radialGradient>
  <path style="fill:url(#gradient0)"
        d="M32 48C49.9 48 64 51.52 64 56C64 60.47 49.9 64 32 64C14.06 64 0 60.47 0 56C0 51.52 14.06 48 32 48z"
  />
  <path style="fill:none; stroke:#505050; stroke-width:8; stroke-linecap:round; stroke-linejoin:round"
        d="M56 56V24L47.99 8L35.99 8L44 24L8 24V56.01L56 56z"
  />
  <linearGradient id="gradient1" gradientUnits="userSpaceOnUse" x1="128" y1="8" x2="128" y2="56">
   <stop offset="0" stop-color="#ffe5c7"/>
   <stop offset="1" stop-color="#eac498"/>
  </linearGradient>
  <path style="fill:url(#gradient1)"
        d="M56 56V24L47.99 8L35.99 8L44 24L8 24V56.01L56 56z"
  />
  <radialGradient id="gradient2" gradientUnits="userSpaceOnUse" cx="0" cy="0" r="64" gradientTransform="matrix(0,0.2187,-1,0,64,38)">
   <stop offset="0" stop-color="#d1b492"/>
   <stop offset="1" stop-color="#a78863"/>
  </radialGradient>
  <path style="fill:url(#gradient2)"
        d="M32 28C31.98 32 7.98 32 7.98 32C7.98 32 31.98 32 31.98 36C31.98 40 32 24 32 28z
           M32 44C32 48 8 48.01 8 48.01C8 48.01 32 48 32 52C32 56 32 40 32 44z
           M31.98 36C32 40 8 40.01 8 40.01C8 40.01 32 40 32 44C32 48 31.98 32 31.98 36z
           M32 28C28 32 28 48 31.98 52.01L32 28z
           M47.99 40C43.99 40 39.99 28 43.99 24L47.99 40z"
  />
 </g>
</svg>
