<?xml version="1.0" encoding="UTF-8" standalone="yes"?>
<svg version="1.1" width="64" height="64" color-interpolation="linearRGB"
     xmlns:svg="http://www.w3.org/2000/svg" xmlns="http://www.w3.org/2000/svg">
 <g>
  <radialGradient id="gradient0" gradientUnits="userSpaceOnUse" cx="0" cy="0" r="64" gradientTransform="matrix(0.5,0,0,0.125,32,56)">
   <stop offset="0" stop-color="#000000" stop-opacity="0.5019"/>
   <stop offset="1" stop-color="#000000" stop-opacity="0"/>
  </radialGradient>
  <path style="fill:url(#gradient0)"
        d="M32 48C49.91 48 64 51.52 64 56C64 60.47 49.91 64 32 64C14.07 64 0 60.47 0 56C0 51.52 14.07 48 32 48z"
  />
  <path style="fill:none; stroke:#505050; stroke-width:4"
        d="M28 22H36C42 22 46 24.74 46 28V38H40V60H24V38H18V28C18 24 22 22 28 22z"
  />
  <path style="fill:none; stroke:#505050; stroke-width:4"
        d="M32 4C36.47 4 40 7.52 40 12C40 16.47 36.47 20 32 20C27.52 20 24 16.47 24 12C24 7.52 27.52 4 32 4z"
  />
  <radialGradient id="gradient1" gradientUnits="userSpaceOnUse" cx="0" cy="0" r="64" gradientTransform="matrix(0.1562,0,0,0.1562,30,10)">
   <stop offset="0" stop-color="#ffffff"/>
   <stop offset="0.7557" stop-color="#c3c3c3"/>
   <stop offset="1" stop-color="#8d8d8d"/>
  </radialGradient>
  <path style="fill:url(#gradient1)"
        d="M32 4C36.47 4 40 7.52 40 12C40 16.47 36.47 20 32 20C27.52 20 24 16.47 24 12C24 7.52 27.52 4 32 4z"
  />
  <linearGradient id="gradient2" gradientUnits="userSpaceOnUse" x1="128" y1="22" x2="128" y2="60">
   <stop offset="0" stop-color="#fff497"/>
   <stop offset="1" stop-color="#edc22d"/>
  </linearGradient>
  <path style="fill:url(#gradient2)"
        d="M28 22H36C42 22 46 24.74 46 28V38H40V60H24V38H18V28C18 24 22 22 28 22z"
  />
  <path style="fill:#010000; fill-opacity:0.4823"
        d="M24 38V30L22 38H24z
           M40 38V30L42 38H40z
           M30 60L32 46L34 60"
  />
  <path style="fill:none; stroke:#505050; stroke-width:4; stroke-linejoin:round"
        d="M12 60H20V52H28V44H20V36H12V44H4V52H12V60z"
  />
  <linearGradient id="gradient3" gradientUnits="userSpaceOnUse" x1="128" y1="36" x2="128" y2="60">
   <stop offset="0" stop-color="#c4ff52"/>
   <stop offset="1" stop-color="#41992d"/>
  </linearGradient>
  <path style="fill:url(#gradient3)"
        d="M12 60H20V52H28V44H20V36H12V44H4V52H12V60z"
  />
 </g>
</svg>
