<?xml version="1.0" encoding="UTF-8" standalone="yes"?>
<svg version="1.1" width="64" height="64" color-interpolation="linearRGB"
     xmlns:svg="http://www.w3.org/2000/svg" xmlns="http://www.w3.org/2000/svg">
 <g>
  <path style="fill:#010101; fill-opacity:0.3921"
        d="M31 62C31 62 53 62 53 58C57 58 61 55 61 51L63 52C64 51 64 49 63 48L61 49C61 45 57 42 53 42C53 38 31 38 31 38"
  />
  <path style="fill:none; stroke:#010101; stroke-width:4"
        d="M28 26C14.74 26 4 33.6 4 43C4 52.38 14.74 60 28 60C41.24 60 52 52.38 52 43C52 33.6 41.24 26 28 26z
           M28 16C18.05 16 10 24.05 10 34V36C10 42.2 18.05 46 28 46C37.93 46 46 42.2 46 36V34C46 24.05 37.93 16 28 16z"
  />
  <radialGradient id="gradient0" gradientUnits="userSpaceOnUse" cx="0" cy="0" r="64" gradientTransform="matrix(0.5424,0.0942,-0.0504,0.2905,19.0378,40.1706)">
   <stop offset="0" stop-color="#fff6ce"/>
   <stop offset="0.4666" stop-color="#f6da56"/>
   <stop offset="0.7568" stop-color="#aa8d04"/>
   <stop offset="1" stop-color="#dcb70b"/>
  </radialGradient>
  <path style="fill:url(#gradient0)"
        d="M28 26C14.74 26 4 33.6 4 43C4 52.38 14.74 60 28 60C41.24 60 52 52.38 52 43C52 33.6 41.24 26 28 26z"
  />
  <path style="fill:#010101"
        d="M28 16C18.05 16 10 24.05 10 34V36C10 42.2 18.05 46 28 46C37.93 46 46 42.2 46 36V34C46 24.05 37.93 16 28 16z"
        transform="matrix(0.9444,0,0,1.0333,1.5555,1.4666)"
  />
  <radialGradient id="gradient1" gradientUnits="userSpaceOnUse" cx="0" cy="0" r="64" gradientTransform="matrix(0.4286,0.0611,-0.0405,0.2839,27.0048,25.9814)">
   <stop offset="0.1843" stop-color="#fff6ce"/>
   <stop offset="0.3843" stop-color="#f6da56"/>
   <stop offset="0.7647" stop-color="#aa8c03"/>
   <stop offset="1" stop-color="#dcb70b"/>
  </radialGradient>
  <path style="fill:url(#gradient1)"
        d="M28 16C18.05 16 10 24.05 10 34V36C10 42.2 18.05 46 28 46C37.93 46 46 42.2 46 36V34C46 24.05 37.93 16 28 16z"
  />
  <linearGradient id="gradient2" gradientUnits="userSpaceOnUse" x1="-8" y1="-64" x2="64" y2="-64">
   <stop offset="0" stop-color="#010101" stop-opacity="0"/>
   <stop offset="0.5019" stop-color="#010101"/>
   <stop offset="1" stop-color="#010101" stop-opacity="0"/>
  </linearGradient>
  <path style="fill:url(#gradient2)"
        d="M44 28C44 32.96 37 38 28 35C19 38 12 32.96 12 28C12 23.02 19.15 19 28 19C36.83 19 44 23.02 44 28z
           M28 16C19.15 16 12 21.81 12 29C12 36.17 19.15 42 28 42C36.83 42 44 36.17 44 29C44 21.81 36.83 16 28 16z
           M28 54C22 54 12 51 11 48C10 45 6 48 6 43C6 51.27 15.84 58 28 58C40.14 58 50 51.27 50 43C50 48 46 45 45 48C44 51 34 54 28 54z
           M26 25C26 25 23 28 24 30C25 32 31 32 32 30C33 28 30 25 30 25C30 25 33 30 28 30C23 30 26 25 26 25z"
  />
  <path style="fill:none; stroke:#010101; stroke-width:4"
        d="M26 19V24C26 24.54 26.89 25 28 25C29.09 25 30 24.54 30 24V19H26z"
  />
  <radialGradient id="gradient3" gradientUnits="userSpaceOnUse" cx="0" cy="0" r="64" gradientTransform="matrix(0.5424,0.0942,-0.0504,0.2905,19.0378,40.1706)">
   <stop offset="0" stop-color="#fff6ce"/>
   <stop offset="0.4666" stop-color="#f6da56"/>
   <stop offset="0.7568" stop-color="#aa8d04"/>
   <stop offset="1" stop-color="#dcb70b"/>
  </radialGradient>
  <path style="fill:url(#gradient3)"
        d="M26 19V24C26 24.54 26.89 25 28 25C29.09 25 30 24.54 30 24V19H26z"
  />
  <path style="fill:none; stroke:#010101; stroke-width:4"
        d="M28 12C24.68 12 22 13.78 22 16C22 18.2 24.68 20 28 20C31.3 20 34 18.2 34 16C34 13.78 31.3 12 28 12z"
  />
  <linearGradient id="gradient4" gradientUnits="userSpaceOnUse" x1="-49.92" y1="-18.52" x2="-45.2" y2="-27.55">
   <stop offset="0" stop-color="#ffffff"/>
   <stop offset="1" stop-color="#d0af16"/>
  </linearGradient>
  <path style="fill:url(#gradient4)"
        d="M28 12C24.68 12 22 13.78 22 16C22 18.2 24.68 20 28 20C31.3 20 34 18.2 34 16C34 13.78 31.3 12 28 12z"
  />
 </g>
</svg>
