<?xml version="1.0" encoding="UTF-8" standalone="yes"?>
<svg version="1.1" width="64" height="64" color-interpolation="linearRGB"
     xmlns:svg="http://www.w3.org/2000/svg" xmlns="http://www.w3.org/2000/svg">
 <g>
  <path style="fill:#fbff00"
        d="M0 32V38H11V32H0z"
  />
  <path style="fill:none; stroke:#000000; stroke-opacity:0.4; stroke-width:4; stroke-linejoin:round"
        d="M12 18L24 30L40 9L33 2L12 18z
           M9 28L14 33C15 32 18 30 22 31C23 31 24 30 24 30L12 18C12 18 11 19 11 20C12 24 10 27 9 28z
           M5 33L10 36L14 32L10 28L5 33z"
        transform="matrix(1,0,0,1,2,2)"
  />
  <path style="fill:none; stroke:#bf5000; stroke-width:4; stroke-linejoin:round"
        d="M12 18L24 30L40 9L33 2L12 18z
           M9 28L14 33C15 32 18 30 22 31C23 31 24 30 24 30L12 18C12 18 11 19 11 20C12 24 10 27 9 28z
           M5 33L10 36L14 32L10 28L5 33z"
  />
  <linearGradient id="gradient0" gradientUnits="userSpaceOnUse" x1="128" y1="4" x2="128" y2="32">
   <stop offset="0" stop-color="#ffff80"/>
   <stop offset="1" stop-color="#ffd400"/>
  </linearGradient>
  <path style="fill:url(#gradient0)"
        d="M12 18L24 30L40 9L33 2L12 18z"
  />
  <linearGradient id="gradient1" gradientUnits="userSpaceOnUse" x1="6" y1="-64" x2="14" y2="-64">
   <stop offset="0" stop-color="#ffff80"/>
   <stop offset="1" stop-color="#ffd400"/>
  </linearGradient>
  <path style="fill:url(#gradient1)"
        d="M5 33L10 36L14 32L10 28L5 33z"
  />
  <path style="fill:#010101"
        d="M9 28L14 33C15 32 18 30 22 31C23 31 24 30 24 30L12 18C12 18 11 19 11 20C12 24 10 27 9 28z"
  />
  <path style="fill:#ffffff; fill-opacity:0.5411"
        d="M15 18L33 4L38 9L33 6L17.06 20.1L15 18z"
  />
  <path style="fill:#ffffff; fill-opacity:0.5411"
        d="M11 27L12 28L15 25L20 28L13 21C13 24 12 26 11 27z"
  />
 </g>
</svg>
