<?xml version="1.0" encoding="UTF-8" standalone="yes"?>
<svg version="1.1" width="64" height="64" color-interpolation="linearRGB"
     xmlns:svg="http://www.w3.org/2000/svg" xmlns="http://www.w3.org/2000/svg">
 <g>
  <path style="fill:none; stroke:#000000; stroke-opacity:0.4; stroke-width:4; stroke-linecap:round; stroke-linejoin:round"
        d="M2 8H40V36H2V8z"
        transform="matrix(1,0,0,1,2,2)"
  />
  <path style="fill:none; stroke:#bf5000; stroke-width:4; stroke-linecap:round; stroke-linejoin:round"
        d="M2 8H40V36H2V8z"
  />
  <linearGradient id="gradient0" gradientUnits="userSpaceOnUse" x1="128" y1="8" x2="128" y2="36">
   <stop offset="0" stop-color="#ffff80"/>
   <stop offset="1" stop-color="#ffd400"/>
  </linearGradient>
  <path style="fill:url(#gradient0)"
        d="M2 8H40V36H2V8z"
  />
  <path style="fill:#bf5000"
        d="M40 7.98L21 21L2 7.98L21 25L40 7.98z
           M40 36L28 18L26 20L40 36z
           M16 20L14 18L2 36L16 20z"
  />
  <path style="fill:none; stroke:#800000; stroke-width:4; stroke-linejoin:round"
        d="M30 2L32 22H36L38 2H30z
           M32 28V32H36V28H32z"
  />
  <path style="fill:none; stroke:#000000; stroke-opacity:0.4; stroke-width:4; stroke-linejoin:round"
        d="M30 2L32 22H36L38 2H30z
           M32 28V32H36V28H32z"
        transform="matrix(1,0,0,1,2,2)"
  />
  <linearGradient id="gradient1" gradientUnits="userSpaceOnUse" x1="128" y1="1.99" x2="128" y2="32">
   <stop offset="0" stop-color="#ffabab"/>
   <stop offset="1" stop-color="#ef2929"/>
  </linearGradient>
  <path style="fill:url(#gradient1)"
        d="M30 2L32 22H36L38 2H30z
           M32 28V32H36V28H32z"
  />
 </g>
</svg>
