<?xml version="1.0" encoding="UTF-8" standalone="yes"?>
<svg version="1.1" width="64" height="64" color-interpolation="linearRGB"
     xmlns:svg="http://www.w3.org/2000/svg" xmlns="http://www.w3.org/2000/svg">
 <g>
  <path style="fill:none; stroke:#000000; stroke-opacity:0.4; stroke-width:4; stroke-linecap:round; stroke-linejoin:round"
        d="M21 2C10.5 2 2 10.5 2 21C2 31.49 10.5 40 21 40C31.49 40 40 31.49 40 21C40 10.5 31.49 2 21 2z"
        transform="matrix(1,0,0,1,2,2)"
  />
  <path style="fill:none; stroke:#800000; stroke-width:4"
        d="M21 2C10.5 2 2 10.5 2 21C2 31.49 10.5 40 21 40C31.49 40 40 31.49 40 21C40 10.5 31.49 2 21 2z"
  />
  <linearGradient id="gradient0" gradientUnits="userSpaceOnUse" x1="128" y1="1.99" x2="128" y2="40">
   <stop offset="0" stop-color="#ffabab"/>
   <stop offset="1" stop-color="#d90000"/>
  </linearGradient>
  <path style="fill:url(#gradient0)"
        d="M21 2C10.5 2 2 10.5 2 21C2 31.49 10.5 40 21 40C31.49 40 40 31.49 40 21C40 10.5 31.49 2 21 2z"
  />
 </g>
</svg>
