<?xml version="1.0" encoding="UTF-8" standalone="yes"?>
<svg version="1.1" width="64" height="64" color-interpolation="linearRGB"
     xmlns:svg="http://www.w3.org/2000/svg" xmlns="http://www.w3.org/2000/svg">
 <g>
  <path style="fill:none; stroke:#000000; stroke-opacity:0.4; stroke-width:4; stroke-linejoin:round"
        d="M5 5C1 9 1 17 5 21L21 37V5C17 1 9 1 5 5z
           M21 5V37L37 21C41 17 41 9 37 5C33 1 25 1 21 5z"
        transform="matrix(1,0,0,1,2,2)"
  />
  <path style="fill:none; stroke:#800000; stroke-width:4; stroke-linecap:round; stroke-linejoin:round"
        d="M5 5C1 9 1 17 5 21L21 37V5C17 1 9 1 5 5z
           M21 5V37L37 21C41 17 41 9 37 5C33 1 25 1 21 5z"
  />
  <linearGradient id="gradient0" gradientUnits="userSpaceOnUse" x1="128" y1="1.99" x2="128" y2="40">
   <stop offset="0" stop-color="#ffabab"/>
   <stop offset="1" stop-color="#d90000"/>
  </linearGradient>
  <path style="fill:url(#gradient0)"
        d="M5 5C1 9 1 17 5 21L21 37V5C17 1 9 1 5 5z
           M21 5V37L37 21C41 17 41 9 37 5C33 1 25 1 21 5z"
  />
 </g>
</svg>
