<?xml version="1.0" encoding="UTF-8" standalone="yes"?>
<svg version="1.1" width="64" height="64" color-interpolation="linearRGB"
     xmlns:svg="http://www.w3.org/2000/svg" xmlns="http://www.w3.org/2000/svg">
 <g>
  <path style="fill:none; stroke:#000000; stroke-width:4"
        d="M32 19C48.23 19 61 28.23 61 40C61 51.75 48.23 61 32 61C15.76 61 3 51.75 3 40C3 28.23 15.76 19 32 19z"
  />
  <linearGradient id="gradient0" gradientUnits="userSpaceOnUse" x1="104.99" y1="-32.68" x2="130.32" y2="8.85">
   <stop offset="0" stop-color="#f67777"/>
   <stop offset="1" stop-color="#d30505"/>
  </linearGradient>
  <path style="fill:url(#gradient0)"
        d="M32 19C48.23 19 61 28.23 61 40C61 51.75 48.23 61 32 61C15.76 61 3 51.75 3 40C3 28.23 15.76 19 32 19z"
  />
  <linearGradient id="gradient1" gradientUnits="userSpaceOnUse" x1="104.99" y1="-32.68" x2="130.32" y2="8.85">
   <stop offset="0" stop-color="#ffffff"/>
   <stop offset="1" stop-color="#dedede"/>
  </linearGradient>
  <path style="fill:url(#gradient1)"
        d="M32 19C48.23 19 61 28.23 61 40C61 51.75 48.23 61 32 61C15.76 61 3 51.75 3 40C3 28.23 15.76 19 32 19z"
        transform="matrix(0.7586,0,0,0.738,7.7241,8.9761)"
  />
  <linearGradient id="gradient2" gradientUnits="userSpaceOnUse" x1="104.99" y1="-32.68" x2="130.32" y2="8.85">
   <stop offset="0" stop-color="#f67777"/>
   <stop offset="1" stop-color="#d30505"/>
  </linearGradient>
  <path style="fill:url(#gradient2)"
        d="M32 19C48.23 19 61 28.23 61 40C61 51.75 48.23 61 32 61C15.76 61 3 51.75 3 40C3 28.23 15.76 19 32 19z"
        transform="matrix(0.5172,0,0,0.5,15.4482,17.5)"
  />
  <linearGradient id="gradient3" gradientUnits="userSpaceOnUse" x1="104.99" y1="-32.68" x2="130.32" y2="8.85">
   <stop offset="0" stop-color="#ffffff"/>
   <stop offset="1" stop-color="#dedede"/>
  </linearGradient>
  <path style="fill:url(#gradient3)"
        d="M32 19C48.23 19 61 28.23 61 40C61 51.75 48.23 61 32 61C15.76 61 3 51.75 3 40C3 28.23 15.76 19 32 19z"
        transform="matrix(0.2758,0,0,0.2619,23.1724,27.0238)"
  />
  <path style="fill:none; stroke:#000000; stroke-width:4"
        d="M32 11L26 4V12L32 19L39 12V4L32 11z"
        transform="matrix(0.9667,0.2557,-0.2557,0.9667,10.5265,-6.9532)"
  />
  <radialGradient id="gradient4" gradientUnits="userSpaceOnUse" cx="0" cy="0" r="64" gradientTransform="matrix(0.2499,0,0,0.2499,32,19)">
   <stop offset="1" stop-color="#ffffff"/>
   <stop offset="0" stop-color="#fff3a5"/>
  </radialGradient>
  <path style="fill:url(#gradient4)"
        d="M32 11L26 4V12L32 19L39 12V4L32 11z"
        transform="matrix(0.9667,0.2557,-0.2557,0.9667,10.5265,-6.9532)"
  />
  <path style="fill:none; stroke:#000000; stroke-width:2; stroke-linecap:round; stroke-linejoin:round"
        d="M32 11V37"
        transform="matrix(0.9667,0.2557,-0.2557,0.9667,10.5265,-6.9532)"
  />
  <path style="fill:#000000; fill-opacity:0.4"
        d="M46 45V50L52 53V48H60L55 45H46z"
  />
  <path style="fill:none; stroke:#000000; stroke-opacity:0.4; stroke-width:2"
        d="M44 44L32 38"
  />
 </g>
</svg>
