<?xml version="1.0" encoding="UTF-8" standalone="yes"?>
<svg version="1.1" width="64" height="64" color-interpolation="linearRGB"
     xmlns:svg="http://www.w3.org/2000/svg" xmlns="http://www.w3.org/2000/svg">
 <g>
  <path style="fill:#010101; fill-opacity:0.4431"
        d="M27 57L29 59L32.12 55.81L37 59L45.39 47.52L64 38L59 35L61 37L36 49L27 57z
           M58 34L62 31L58 29L55 32L58 34z"
  />
  <path style="fill:none; stroke:#010101; stroke-width:4"
        d="M6.24 30C6.24 30 11.87 36 16.87 42.5C21.87 49 26.24 55.74 26.24 55.74L59.1 36.86L32 15L6.24 30z"
  />
  <radialGradient id="gradient0" gradientUnits="userSpaceOnUse" cx="0" cy="0" r="64" gradientTransform="matrix(0.5714,0,0,0.3333,26,35)">
   <stop offset="0.4862" stop-color="#a98d55"/>
   <stop offset="1" stop-color="#f1e7b5"/>
  </radialGradient>
  <path style="fill:url(#gradient0)"
        d="M6.24 30C6.24 30 11.87 36 16.87 42.5C21.87 49 26.24 55.74 26.24 55.74L59.1 36.86L32 15L6.24 30z"
  />
  <path style="fill:none; stroke:#010101; stroke-width:4"
        d="M2.61 30.87C2.61 30.87 10.94 36.25 19 41.86C27.44 47.74 35.74 52.74 35.74 52.74L58.1 26.37C58.1 26.37 45.44 20.7 35.36 15.37C30.17 12.61 26 9.37 26 9.37L2.61 30.87z"
  />
  <linearGradient id="gradient1" gradientUnits="userSpaceOnUse" x1="105.45" y1="-23.42" x2="119.92" y2="34.32">
   <stop offset="0" stop-color="#f1e6af"/>
   <stop offset="0.7372" stop-color="#fffff2"/>
   <stop offset="1" stop-color="#f1e6af"/>
  </linearGradient>
  <path style="fill:url(#gradient1)"
        d="M2.61 30.87C2.61 30.87 10.94 36.25 19 41.86C27.44 47.74 35.74 52.74 35.74 52.74L58.1 26.37C58.1 26.37 45.44 20.7 35.36 15.37C30.17 12.61 26 9.37 26 9.37L2.61 30.87z"
  />
  <path style="fill:none; stroke:#010101; stroke-width:4"
        d="M30 20C22.26 20 16 24.47 16 30C16 35.52 22.26 40 30 40C37.73 40 44 35.52 44 30C44 24.47 37.73 20 30 20z
           M34 30C34 31.65 32.2 33 30 33C27.79 33 26 31.65 26 30C26 28.34 27.79 27 30 27C32.2 27 34 28.34 34 30z"
  />
  <linearGradient id="gradient2" gradientUnits="userSpaceOnUse" x1="22.89" y1="18.07" x2="42.35" y2="23.67">
   <stop offset="0.1006" stop-color="#d1ddea"/>
   <stop offset="0.1791" stop-color="#f9ecec"/>
   <stop offset="0.2723" stop-color="#d1ddea"/>
   <stop offset="0.5149" stop-color="#ffffff"/>
   <stop offset="0.7312" stop-color="#d1ddea"/>
   <stop offset="0.8245" stop-color="#ebf6db"/>
   <stop offset="0.8992" stop-color="#d1ddea"/>
  </linearGradient>
  <path style="fill:url(#gradient2)"
        d="M30 20C22.26 20 16 24.47 16 30C16 35.52 22.26 40 30 40C37.73 40 44 35.52 44 30C44 24.47 37.73 20 30 20z
           M34 30C34 31.65 32.2 33 30 33C27.79 33 26 31.65 26 30C26 28.34 27.79 27 30 27C32.2 27 34 28.34 34 30z"
  />
 </g>
</svg>
