<?xml version="1.0" encoding="UTF-8" standalone="yes"?>
<svg version="1.1" width="64" height="64" color-interpolation="linearRGB"
     xmlns:svg="http://www.w3.org/2000/svg" xmlns="http://www.w3.org/2000/svg">
 <g>
  <path style="fill:none; stroke:#000000; stroke-width:4"
        d="M44.46 7C43.73 6 45.26 4 47.26 4C49.26 4 50.46 7 50.46 7L54.26 4C54.26 4 53.06 1 48.06 1C43.06 1 39.26 4 38.46 7C37.4 11 44.86 13 45.59 14C45.99 14.53 45 16 43 16H25V20H42C47 20 50.79 17 51.59 14C52.66 10 45.2 8 44.46 7z"
        transform="matrix(1,0,0,1,4,12)"
  />
  <linearGradient id="gradient0" gradientUnits="userSpaceOnUse" x1="19.9" y1="-70.93" x2="72.92" y2="-60.7">
   <stop offset="0" stop-color="#ffffff"/>
   <stop offset="0.4813" stop-color="#c4c4db"/>
   <stop offset="0.8097" stop-color="#ffffff"/>
  </linearGradient>
  <path style="fill:url(#gradient0)"
        d="M44.46 7C43.73 6 45.26 4 47.26 4C49.26 4 50.46 7 50.46 7L54.26 4C54.26 4 53.06 1 48.06 1C43.06 1 39.26 4 38.46 7C37.4 11 44.86 13 45.59 14C45.99 14.53 45 16 43 16H25V20H42C47 20 50.79 17 51.59 14C52.66 10 45.2 8 44.46 7z"
        transform="matrix(1,0,0,1,4,12)"
  />
  <path style="fill:none; stroke:#000000; stroke-width:4"
        d="M28 9H1V15H23.39C25.05 15 26.16 15.89 25.86 17L22.13 31C21.83 32.1 20.25 33 18.6 33H15.6L18.79 21H7.8L3 39H20C26.07 39 31.95 35.41 33.13 31L36.86 17C38.04 12.58 34.07 9 28 9z"
        transform="matrix(1,0,0,1,4,12)"
  />
  <linearGradient id="gradient1" gradientUnits="userSpaceOnUse" x1="6.74" y1="10.76" x2="37.7" y2="17.61">
   <stop offset="0" stop-color="#ec7c79"/>
   <stop offset="0.5163" stop-color="#d93017"/>
   <stop offset="1" stop-color="#cec500"/>
  </linearGradient>
  <path style="fill:url(#gradient1)"
        d="M28 9H1V15H23.39C25.05 15 26.16 15.89 25.86 17L22.13 31C21.83 32.1 20.25 33 18.6 33H15.6L18.79 21H7.8L3 39H20C26.07 39 31.95 35.41 33.13 31L36.86 17C38.04 12.58 34.07 9 28 9z"
        transform="matrix(1,0,0,1,4,12)"
  />
  <path style="fill:none; stroke:#000000; stroke-width:4"
        d="M22 16H1V20H23C23 20 25 16 22 16z"
        transform="matrix(1,0,0,1,4,12)"
  />
  <linearGradient id="gradient2" gradientUnits="userSpaceOnUse" x1="19.9" y1="-70.93" x2="72.92" y2="-60.7">
   <stop offset="0" stop-color="#ffffff"/>
   <stop offset="0.4813" stop-color="#c4c4db"/>
   <stop offset="0.8097" stop-color="#ffffff"/>
  </linearGradient>
  <path style="fill:url(#gradient2)"
        d="M22 16H1V20H23C23 20 25 16 22 16z"
        transform="matrix(1,0,0,1,4,12)"
  />
  <path style="fill:none; stroke:#000000; stroke-width:6; stroke-linecap:round; stroke-linejoin:round"
        d="M46 23L53 26.5L46 30"
        transform="matrix(1,0,0,1,4,12)"
  />
  <path style="fill:none; stroke:#000000; stroke-width:6; stroke-linecap:round; stroke-linejoin:round"
        d="M39 23L46 26.5L39 30"
        transform="matrix(1,0,0,1,4,12)"
  />
  <path style="fill:none; stroke:#000000; stroke-width:6; stroke-linecap:round; stroke-linejoin:round"
        d="M32 23L39 26.5L32 30"
        transform="matrix(1,0,0,1,4,12)"
  />
  <linearGradient id="gradient3" gradientUnits="userSpaceOnUse" x1="36" y1="-64" x2="58" y2="-64">
   <stop offset="0" stop-color="#2a9b0c"/>
   <stop offset="1" stop-color="#edee81"/>
  </linearGradient>
  <path style="fill:none; stroke:url(#gradient3); stroke-width:2; stroke-linecap:round; stroke-linejoin:round"
        d="M46 23L53 26.5L46 30"
        transform="matrix(1,0,0,1,4,12)"
  />
  <linearGradient id="gradient4" gradientUnits="userSpaceOnUse" x1="36" y1="-64" x2="58" y2="-64">
   <stop offset="0" stop-color="#2a9b0c"/>
   <stop offset="1" stop-color="#edee81"/>
  </linearGradient>
  <path style="fill:none; stroke:url(#gradient4); stroke-width:2; stroke-linecap:round; stroke-linejoin:round"
        d="M39 23L46 26.5L39 30"
        transform="matrix(1,0,0,1,4,12)"
  />
  <linearGradient id="gradient5" gradientUnits="userSpaceOnUse" x1="36" y1="-64" x2="58" y2="-64">
   <stop offset="0" stop-color="#2a9b0c"/>
   <stop offset="1" stop-color="#edee81"/>
  </linearGradient>
  <path style="fill:none; stroke:url(#gradient5); stroke-width:2; stroke-linecap:round; stroke-linejoin:round"
        d="M32 23L39 26.5L32 30"
        transform="matrix(1,0,0,1,4,12)"
  />
 </g>
</svg>
