<?xml version="1.0" encoding="UTF-8" standalone="yes"?>
<svg version="1.1" width="64" height="64" color-interpolation="linearRGB"
     xmlns:svg="http://www.w3.org/2000/svg" xmlns="http://www.w3.org/2000/svg">
 <g>
  <path style="fill:none; stroke:#000000; stroke-opacity:0.4; stroke-width:4; stroke-linejoin:round"
        d="M16 21C16 13.81 21.79 8 29 8C32.02 8 34.79 9.02 37 10.76C33.63 5.48 27.7 2 21 2C10.5 2 2 10.5 2 21C2 31.5 10.5 40 21 40C27.7 40 33.63 36.52 37 31.22C34.79 32.97 32.02 34 29 34C21.79 34 16 28.18 16 21"
        transform="matrix(1,0,0,1,2,2)"
  />
  <path style="fill:none; stroke:#545454; stroke-width:4; stroke-linejoin:round"
        d="M16 21C16 13.81 21.79 8 29 8C32.02 8 34.79 9.02 37 10.76C33.63 5.48 27.7 2 21 2C10.5 2 2 10.5 2 21C2 31.5 10.5 40 21 40C27.7 40 33.63 36.52 37 31.22C34.79 32.97 32.02 34 29 34C21.79 34 16 28.18 16 21"
  />
  <linearGradient id="gradient0" gradientUnits="userSpaceOnUse" x1="128" y1="1.99" x2="128" y2="40">
   <stop offset="0" stop-color="#ffffff"/>
   <stop offset="1" stop-color="#e5e5e5"/>
  </linearGradient>
  <path style="fill:url(#gradient0)"
        d="M16 21C16 13.81 21.79 8 29 8C32.02 8 34.79 9.02 37 10.76C33.63 5.48 27.7 2 21 2C10.5 2 2 10.5 2 21C2 31.5 10.5 40 21 40C27.7 40 33.63 36.52 37 31.22C34.79 32.97 32.02 34 29 34C21.79 34 16 28.18 16 21"
  />
 </g>
</svg>
