<?xml version="1.0" encoding="UTF-8" standalone="yes"?>
<svg version="1.1" width="64" height="64" color-interpolation="linearRGB"
     xmlns:svg="http://www.w3.org/2000/svg" xmlns="http://www.w3.org/2000/svg">
 <g>
  <path style="fill:#010101; fill-opacity:0.4431"
        d="M32 64C36 64 56 62 60 58C64 54 40 48 32 48V64z"
  />
  <linearGradient id="gradient0" gradientUnits="userSpaceOnUse" x1="28" y1="22" x2="28" y2="14">
   <stop offset="0.2083" stop-color="#ff0606" stop-opacity="0"/>
   <stop offset="0.481" stop-color="#ff0101"/>
   <stop offset="0.803" stop-color="#ff0505" stop-opacity="0"/>
  </linearGradient>
  <path style="fill:none; stroke:url(#gradient0); stroke-width:4"
        d="M32 -10C50 -10 60 0 60 18C60 36 50 46 32 46C14 46 4 36 4 18C4 0 14 -10 32 -10z
           M32 -2C44 -2 52 6 52 18C52 30 44 38 32 38C20 38 12 30 12 18C12 6 20 -2 32 -2z
           M32 6C38 6 44 12 44 18C44 24 38 30 32 30C26 30 20 24 20 18C20 12 26 6 32 6z"
  />
  <path style="fill:none; stroke:#010101; stroke-width:4"
        d="M32 14C34 14 36 16 36 18L40 58C40 60 36 62 32 62C28 62 24 60 24 58L28 18C28 16 30 14 32 14z"
  />
  <linearGradient id="gradient1" gradientUnits="userSpaceOnUse" x1="25.12" y1="-38" x2="38.87" y2="-38">
   <stop offset="0" stop-color="#9bb2c6"/>
   <stop offset="0.2878" stop-color="#ffffff"/>
   <stop offset="0.6515" stop-color="#295880"/>
   <stop offset="1" stop-color="#9bb2c6"/>
  </linearGradient>
  <path style="fill:url(#gradient1)"
        d="M32 14C34 14 36 16 36 18L40 58C40 60 36 62 32 62C28 62 24 60 24 58L28 18C28 16 30 14 32 14z"
  />
  <radialGradient id="gradient2" gradientUnits="userSpaceOnUse" cx="0" cy="0" r="64" gradientTransform="matrix(0.262,0.0932,0.0909,-0.2555,39.8744,22.8635)">
   <stop offset="0.1401" stop-color="#9bb2c6"/>
   <stop offset="0.5909" stop-color="#ffffff"/>
   <stop offset="0.3522" stop-color="#295880"/>
   <stop offset="0.8484" stop-color="#9bb2c6"/>
  </radialGradient>
  <path style="fill:url(#gradient2)"
        d="M32 14C34 14 36 16 36 18C36 20 34.07 22 32 22C29.92 22 28 20 28 18C28 16 30 14 32 14z"
  />
  <radialGradient id="gradient3" gradientUnits="userSpaceOnUse" cx="0" cy="0" r="64" gradientTransform="matrix(0.2148,0,0,0.2187,24.75,55.75)">
   <stop offset="0" stop-color="#9bb2c6"/>
   <stop offset="0.3219" stop-color="#ffffff"/>
   <stop offset="0.6742" stop-color="#295880"/>
   <stop offset="1" stop-color="#9bb2c6"/>
  </radialGradient>
  <path style="fill:url(#gradient3)"
        d="M32 54C36 54 40 56 40 58C40 60 36 62 32 62C28 62 24 60 24 58C24 56 28 54 32 54z"
  />
 </g>
</svg>
