<?xml version="1.0" encoding="UTF-8" standalone="yes"?>
<svg version="1.1" width="64" height="64" color-interpolation="linearRGB"
     xmlns:svg="http://www.w3.org/2000/svg" xmlns="http://www.w3.org/2000/svg">
 <g>
  <path style="fill:#000000; fill-opacity:0.4274"
        d="M28 2C13.64 2 2 13.64 2 28C2 42.35 13.64 54 28 54C42.35 54 54 42.35 54 28C54 13.64 42.35 2 28 2z"
        transform="matrix(1,0,0,0.5,10,37)"
  />
  <radialGradient id="gradient0" gradientUnits="userSpaceOnUse" cx="0" cy="0" r="64" gradientTransform="matrix(0.5312,0,0,0.5312,20,20)">
   <stop offset="0" stop-color="#d9ecff"/>
   <stop offset="0.7875" stop-color="#0587ff"/>
   <stop offset="1" stop-color="#0567c2"/>
  </radialGradient>
  <path style="fill:url(#gradient0)"
        d="M28 2C13.64 2 2 13.64 2 28C2 42.35 13.64 54 28 54C42.35 54 54 42.35 54 28C54 13.64 42.35 2 28 2z"
  />
  <radialGradient id="gradient1" gradientUnits="userSpaceOnUse" cx="0" cy="0" r="64" gradientTransform="matrix(0.5312,0,0,0.5312,20,20)">
   <stop offset="0" stop-color="#f2f9ff"/>
   <stop offset="0.7875" stop-color="#abd5ff"/>
   <stop offset="1" stop-color="#80a1bf"/>
  </radialGradient>
  <path style="fill:none; stroke:url(#gradient1); stroke-width:1.0391"
        d="M55 29C55 35.23 43.28 39 29 39C14.7 39 3 35.23 3 29
           M48 46C45 49 37.26 53 29 53C20.72 53 13 49 10 46
           M23 4C21.68 4.55 21 5.17 21 6C21 7.74 24.36 9 29 9C33.62 9 37 7.74 37 6C37 5.18 36.3 4.55 35 4
           M20.88 4.27C21.87 4.08 22.9 3.98 24 4C35.29 4.08 47.04 15.27 50.06 28.78C51.9 36.97 50.13 44.24 45.94 48.66
           M25.64 3.21C31.04 4.07 37.14 15.54 39.38 29.27C41.49 42.28 39.43 52.97 34.77 54.39
           M9.15 12.08C13.94 7.19 21.03 4.27 28.93 4.66C43.12 5.34 54.74 16.41 54.88 29.34
           M20.34 53.62C14.67 51.63 11.66 42.61 13.46 31.13C15.6 17.3 23.92 4.88 31.98 3.58C32.6 3.48 33.19 3.45 33.79 3.48
           M9.25 46.1C5.05 41.26 3.37 34.13 5.31 26.51C8.69 13.31 21.75 3.37 34.35 4.42C37.61 4.71 40.52 5.68 42.99 7.21
           M27.48 55.05C27.47 55.03 27.44 54.99 27.39 54.97C26.25 53.64 25.82 40.84 26.51 26.56C27.09 14.02 28.32 4.31 29.39 3.01
           M53 38C51 43 41.15 47 29 47C16.96 47 7 43 5 38
           M50 14C50 18.27 40.03 22 29 22C17.96 22 8 18.27 8 14
           M54 22C54 27.47 42.55 31 29 31C15.44 31 4 27.47 4 22"
        transform="matrix(1,0,0,1,-1,-1)"
  />
  <path style="fill:#000000"
        d="M28 2C13.64 2 2 13.64 2 28C2 42.35 13.64 54 28 54C42.35 54 54 42.35 54 28C54 13.64 42.35 2 28 2z"
  />
 </g>
</svg>
