<?xml version="1.0" encoding="UTF-8" standalone="yes"?>
<svg version="1.1" width="64" height="64" color-interpolation="linearRGB"
     xmlns:svg="http://www.w3.org/2000/svg" xmlns="http://www.w3.org/2000/svg">
 <g>
  <radialGradient id="gradient0" gradientUnits="userSpaceOnUse" cx="0" cy="0" r="64" gradientTransform="matrix(0.375,0,0,0.375,32,32)">
   <stop offset="1" stop-color="#3a3b40" stop-opacity="0"/>
   <stop offset="0" stop-color="#3a3c40"/>
  </radialGradient>
  <path style="fill:url(#gradient0)"
        d="M32 8C18.74 8 8 18.74 8 32C8 45.25 18.74 56 32 56C45.25 56 56 45.25 56 32C56 18.74 45.25 8 32 8z"
        transform="matrix(1.3333,0,0,0.3333,-10.6666,45.3333)"
  />
  <radialGradient id="gradient1" gradientUnits="userSpaceOnUse" cx="0" cy="0" r="64" gradientTransform="matrix(0.625,0,0,0.625,20,20)">
   <stop offset="0" stop-color="#807040"/>
   <stop offset="1" stop-color="#403820"/>
  </radialGradient>
  <path style="fill:none; stroke:url(#gradient1); stroke-width:8"
        d="M32 8C18.74 8 8 18.74 8 32C8 45.25 18.74 56 32 56C45.25 56 56 45.25 56 32C56 18.74 45.25 8 32 8z"
  />
  <radialGradient id="gradient2" gradientUnits="userSpaceOnUse" cx="0" cy="0" r="64" gradientTransform="matrix(0.5,0,0,0.5,24,24)">
   <stop offset="0.3126" stop-color="#ffffcc"/>
   <stop offset="1" stop-color="#ffc105"/>
  </radialGradient>
  <path style="fill:url(#gradient2)"
        d="M32 8C18.74 8 8 18.74 8 32C8 45.25 18.74 56 32 56C45.25 56 56 45.25 56 32C56 18.74 45.25 8 32 8z"
  />
  <linearGradient id="gradient3" gradientUnits="userSpaceOnUse" x1="128" y1="9.99" x2="128" y2="38">
   <stop offset="0" stop-color="#7a7a7a"/>
   <stop offset="1" stop-color="#010101"/>
  </linearGradient>
  <path style="fill:url(#gradient3)"
        d="M28 22H36V26H28V22z"
  />
  <linearGradient id="gradient4" gradientUnits="userSpaceOnUse" x1="30.14" y1="-4.28" x2="44.28" y2="9.85">
   <stop offset="0" stop-color="#ffffff"/>
   <stop offset="0.3156" stop-color="#06dde0"/>
   <stop offset="0.6968" stop-color="#ffffff"/>
   <stop offset="0.9954" stop-color="#06dde0"/>
  </linearGradient>
  <path style="fill:url(#gradient4)"
        d="M16 12C9.37 12 4 17.37 4 24C4 30.62 9.37 36 16 36C22.62 36 28 30.62 28 24C28 17.37 22.62 12 16 12z"
        transform="matrix(1,0,0,1,32,0)"
  />
  <linearGradient id="gradient5" gradientUnits="userSpaceOnUse" x1="128" y1="9.99" x2="128" y2="38">
   <stop offset="0" stop-color="#7a7a7a"/>
   <stop offset="1" stop-color="#010101"/>
  </linearGradient>
  <path style="fill:none; stroke:url(#gradient5); stroke-width:4"
        d="M16 12C9.37 12 4 17.37 4 24C4 30.62 9.37 36 16 36C22.62 36 28 30.62 28 24C28 17.37 22.62 12 16 12z"
        transform="matrix(1,0,0,1,32,0)"
  />
  <linearGradient id="gradient6" gradientUnits="userSpaceOnUse" x1="30.14" y1="-4.28" x2="44.28" y2="9.85">
   <stop offset="0" stop-color="#ffffff"/>
   <stop offset="0.3156" stop-color="#06dde0"/>
   <stop offset="0.6968" stop-color="#ffffff"/>
   <stop offset="0.9954" stop-color="#06dde0"/>
  </linearGradient>
  <path style="fill:url(#gradient6)"
        d="M16 12C9.37 12 4 17.37 4 24C4 30.62 9.37 36 16 36C22.62 36 28 30.62 28 24C28 17.37 22.62 12 16 12z"
  />
  <linearGradient id="gradient7" gradientUnits="userSpaceOnUse" x1="128" y1="9.99" x2="128" y2="38">
   <stop offset="0" stop-color="#7a7a7a"/>
   <stop offset="1" stop-color="#010101"/>
  </linearGradient>
  <path style="fill:none; stroke:url(#gradient7); stroke-width:4"
        d="M16 12C9.37 12 4 17.37 4 24C4 30.62 9.37 36 16 36C22.62 36 28 30.62 28 24C28 17.37 22.62 12 16 12z"
  />
  <radialGradient id="gradient8" gradientUnits="userSpaceOnUse" cx="0" cy="0" r="64" gradientTransform="matrix(0.625,0,0,0.625,20,20)">
   <stop offset="0" stop-color="#807040"/>
   <stop offset="1" stop-color="#403820"/>
  </radialGradient>
  <path style="fill:none; stroke:url(#gradient8); stroke-width:4"
        d="M22 40C22 43.31 26.47 46 32 46C37.52 46 42 43.31 42 40"
  />
 </g>
</svg>
