<?xml version="1.0" encoding="UTF-8" standalone="yes"?>
<svg version="1.1" width="64" height="64" color-interpolation="linearRGB"
     xmlns:svg="http://www.w3.org/2000/svg" xmlns="http://www.w3.org/2000/svg">
 <g>
  <path style="fill:#010101; fill-opacity:0.5019"
        d="M36 61H41L64 30L58 27L59 31L36 61z"
  />
  <path style="fill:none; stroke:#010000; stroke-width:4"
        d="M2 28V41L36 59L58 30C58 30 56 27 56 24C56 21 58 17 58 17L25 5L2 28z"
  />
  <linearGradient id="gradient0" gradientUnits="userSpaceOnUse" x1="13.84" y1="-38.14" x2="58.34" y2="-27.7">
   <stop offset="0" stop-color="#baecff"/>
   <stop offset="1" stop-color="#00a7ff"/>
  </linearGradient>
  <path style="fill:url(#gradient0)"
        d="M9 31L36 43L58 17L33 8L9 31z"
  />
  <linearGradient id="gradient1" gradientUnits="userSpaceOnUse" x1="13.84" y1="-38.14" x2="58.34" y2="-27.7">
   <stop offset="0" stop-color="#75c2ff"/>
   <stop offset="1" stop-color="#02366d"/>
  </linearGradient>
  <path style="fill:url(#gradient1)"
        d="M2 28L9 31L33 8L25 5L2 28z"
  />
  <linearGradient id="gradient2" gradientUnits="userSpaceOnUse" x1="44.72" y1="-7.9" x2="86.1" y2="10.51">
   <stop offset="0" stop-color="#575757"/>
   <stop offset="1" stop-color="#b5b5b5"/>
  </linearGradient>
  <path style="fill:url(#gradient2)"
        d="M36 43C36 43 34 46 34 50C34 54 36 59 36 59L58 30C58 30 56 27 56 24C56 21 58 17 58 17L36 43z"
  />
  <linearGradient id="gradient3" gradientUnits="userSpaceOnUse" x1="22.97" y1="92.59" x2="-14.6" y2="67.29">
   <stop offset="0" stop-color="#bebebe"/>
   <stop offset="1" stop-color="#ffffff"/>
  </linearGradient>
  <path style="fill:url(#gradient3)"
        d="M2 28V41L36 59C36 59 34 54 34 50C34 46 36 43 36 43L2 28z"
  />
  <linearGradient id="gradient4" gradientUnits="userSpaceOnUse" x1="91.95" y1="-56.05" x2="97.81" y2="-53.21">
   <stop offset="0" stop-color="#dda305"/>
   <stop offset="1" stop-color="#fffc00"/>
  </linearGradient>
  <path style="fill:url(#gradient4)"
        d="M52 26L47 32C47 32 51 35 53 34C55 33 57 31 56 29C55 27 52 26 52 26z"
        transform="matrix(1,0,0,1,-11,16)"
  />
  <linearGradient id="gradient5" gradientUnits="userSpaceOnUse" x1="78.99" y1="-60.47" x2="85.19" y2="-58.49">
   <stop offset="0" stop-color="#4ea304"/>
   <stop offset="1" stop-color="#17ff00"/>
  </linearGradient>
  <path style="fill:url(#gradient5)"
        d="M52 26L47 32C47 32 51 35 53 34C55 33 57 31 56 29C55 27 52 26 52 26z"
        transform="matrix(1,0,0,1,-6,8)"
  />
  <linearGradient id="gradient6" gradientUnits="userSpaceOnUse" x1="76.99" y1="-60.47" x2="83.19" y2="-58.49">
   <stop offset="0" stop-color="#a30404"/>
   <stop offset="1" stop-color="#ff0000"/>
  </linearGradient>
  <path style="fill:url(#gradient6)"
        d="M52 26L47 32C47 32 51 35 53 34C55 33 57 31 56 29C55 27 52 26 52 26z"
  />
  <linearGradient id="gradient7" gradientUnits="userSpaceOnUse" x1="13.84" y1="-38.14" x2="58.34" y2="-27.7">
   <stop offset="0" stop-color="#ffffff"/>
   <stop offset="1" stop-color="#f2f2f2"/>
  </linearGradient>
  <path style="fill:none; stroke:url(#gradient7); stroke-width:2"
        d="M37 33C37 33 28 34 24 31C20 28 20 23 24 20C28 17 38 16 43 19C48 22 49 25 45 28C41 31 35 30 35 30L34 29L41 23
           M35 28C35 28 32 29 29 28C26 27 27 25 29 23C31 21 35 21 37 22C39 23 39 25 39 25"
  />
  <linearGradient id="gradient8" gradientUnits="userSpaceOnUse" x1="22.97" y1="92.59" x2="-14.6" y2="67.29">
   <stop offset="0" stop-color="#575757"/>
   <stop offset="1" stop-color="#f4f4f4"/>
  </linearGradient>
  <path style="fill:none; stroke:url(#gradient8); stroke-width:2"
        d="M5 32L35 46"
        transform="matrix(1.0647,0.0604,-0.061,1.0555,0.9081,4.4686)"
  />
  <linearGradient id="gradient9" gradientUnits="userSpaceOnUse" x1="22.97" y1="92.59" x2="-14.6" y2="67.29">
   <stop offset="0" stop-color="#575757"/>
   <stop offset="1" stop-color="#f4f4f4"/>
  </linearGradient>
  <path style="fill:none; stroke:url(#gradient9); stroke-width:2"
        d="M5 32L35 46"
        transform="matrix(0.8976,0.046,-0.0453,0.8221,5.1385,10.8602)"
  />
  <linearGradient id="gradient10" gradientUnits="userSpaceOnUse" x1="22.97" y1="92.59" x2="-14.6" y2="67.29">
   <stop offset="0" stop-color="#575757"/>
   <stop offset="1" stop-color="#f4f4f4"/>
  </linearGradient>
  <path style="fill:none; stroke:url(#gradient10); stroke-width:2"
        d="M5 32L35 46"
  />
 </g>
</svg>
