<?xml version="1.0" encoding="UTF-8" standalone="yes"?>
<svg version="1.1" width="64" height="64" color-interpolation="linearRGB"
     xmlns:svg="http://www.w3.org/2000/svg" xmlns="http://www.w3.org/2000/svg">
 <g>
  <path style="fill:#010000; fill-opacity:0.4588"
        d="M32 60C32 60 50 64 60 54C70 44 52 42 52 42H32V60z"
  />
  <path style="fill:none; stroke:#010000; stroke-width:4"
        d="M32 20C43.2 20 52 28.79 52 40C52 51.2 43.2 60 32 60C20.79 60 12 51.2 12 40C12 28.79 20.79 20 32 20z"
  />
  <radialGradient id="gradient0" gradientUnits="userSpaceOnUse" cx="0" cy="0" r="64" gradientTransform="matrix(0.4375,0,0,0.4375,24,32)">
   <stop offset="0.6667" stop-color="#ffffff"/>
   <stop offset="1" stop-color="#95bcdd"/>
  </radialGradient>
  <path style="fill:url(#gradient0)"
        d="M32 20C43.2 20 52 28.79 52 40C52 51.2 43.2 60 32 60C20.79 60 12 51.2 12 40C12 28.79 20.79 20 32 20z"
  />
  <path style="fill:#010000"
        d="M43 35L53 40C53 40 51 43 52 48C53 42 56 42 56 42C56 42 59 43 62 47C60 43 58.22 41.76 58.22 41.76C58.22 41.76 58 41 63 41C59 39 56 40 56 40L45 33C43 33 43 35 43 35z"
        transform="matrix(-0.9999,0.0055,-0.0055,-0.9999,68.1809,58.7591)"
  />
  <radialGradient id="gradient1" gradientUnits="userSpaceOnUse" cx="0" cy="0" r="64" gradientTransform="matrix(0.375,0,0,0.375,24,24)">
   <stop offset="0.6667" stop-color="#ffffff"/>
   <stop offset="1" stop-color="#95bcdd"/>
  </radialGradient>
  <path style="fill:url(#gradient1)"
        d="M32 48C32 48 46 48 50 42C54 36 48 30 48 30H32V48z"
  />
  <path style="fill:none; stroke:#010000; stroke-width:4"
        d="M32 16C40.95 16 48 23.04 48 32C48 40.95 40.95 48 32 48C23.04 48 16 40.95 16 32C16 23.04 23.04 16 32 16z"
        transform="matrix(0.9185,0.3952,-0.3664,0.8515,14.8503,-9.1039)"
  />
  <radialGradient id="gradient2" gradientUnits="userSpaceOnUse" cx="0" cy="0" r="64" gradientTransform="matrix(0.375,0,0,0.375,24,24)">
   <stop offset="0.6667" stop-color="#ffffff"/>
   <stop offset="1" stop-color="#95bcdd"/>
  </radialGradient>
  <path style="fill:url(#gradient2)"
        d="M32 16C40.95 16 48 23.04 48 32C48 40.95 40.95 48 32 48C23.04 48 16 40.95 16 32C16 23.04 23.04 16 32 16z"
  />
  <radialGradient id="gradient3" gradientUnits="userSpaceOnUse" cx="0" cy="0" r="64" gradientTransform="matrix(0.2812,0,0,0.2812,26,14)">
   <stop offset="0.6667" stop-color="#ffffff"/>
   <stop offset="1" stop-color="#95bcdd"/>
  </radialGradient>
  <path style="fill:url(#gradient3)"
        d="M30 32C30 32 38 34 44 30C50 26 44 22 44 22H30V32z"
  />
  <path style="fill:#010000"
        d="M36 22C34 24 30 22 32 20C34 18 38 20 36 22z"
        transform="matrix(0.9536,0.301,-0.301,0.9536,-3.0999,9.7379)"
  />
  <path style="fill:#010000"
        d="M36 22C34 24 30 22 32 20C34 18 38 20 36 22z"
        transform="matrix(0.981,0.1939,-0.1939,0.981,-5.2822,6.8052)"
  />
  <radialGradient id="gradient4" gradientUnits="userSpaceOnUse" cx="0" cy="0" r="64" gradientTransform="matrix(0.375,0,0,0.375,24,24)">
   <stop offset="0.3657" stop-color="#ff0000"/>
   <stop offset="0.5058" stop-color="#c00505"/>
   <stop offset="0.6667" stop-color="#ff0000"/>
   <stop offset="1" stop-color="#c00505"/>
  </radialGradient>
  <path style="fill:url(#gradient4)"
        d="M28 35V36C28 36 25 38 24 40L25 41C26 39 28 38 28 38C28 41 29 45 29 45C32 45 34 46 34 46V42C30 40 30 36 30 36L32 34C32 34 41 31 42 28C34 32 25 30 21 25C22 28 27 33 27 33L28 35z"
  />
  <path style="fill:none; stroke:#010000; stroke-width:4"
        d="M32 8C38.72 8 44 13.27 44 20C44 26.71 38.72 32 32 32C25.28 32 20 26.71 20 20C20 13.27 25.28 8 32 8z"
        transform="matrix(0.9333,0.3589,-0.3258,0.8471,9.1137,-9.6373)"
  />
  <radialGradient id="gradient5" gradientUnits="userSpaceOnUse" cx="0" cy="0" r="64" gradientTransform="matrix(0.2812,0,0,0.2812,26,14)">
   <stop offset="0.6667" stop-color="#ffffff"/>
   <stop offset="1" stop-color="#95bcdd"/>
  </radialGradient>
  <path style="fill:url(#gradient5)"
        d="M32 8C38.72 8 44 13.27 44 20C44 26.71 38.72 32 32 32C25.28 32 20 26.71 20 20C20 13.27 25.28 8 32 8z"
  />
  <path style="fill:#87afd1"
        d="M30 24C30 22 28 20 26 22C26 22 26 24 22 28C26 28 30 24 30 24z"
        transform="matrix(-1,0,0,1,56,0)"
  />
  <radialGradient id="gradient6" gradientUnits="userSpaceOnUse" cx="0" cy="0" r="64" gradientTransform="matrix(0.0538,0.0183,-0.042,0.1236,25.6227,21.9564)">
   <stop offset="0" stop-color="#ffde06"/>
   <stop offset="0.6078" stop-color="#ffaa00"/>
   <stop offset="1" stop-color="#f67d06"/>
  </radialGradient>
  <path style="fill:url(#gradient6)"
        d="M30 24C30 22 28 20 26 22C26 22 26 24 22 28C26 28 30 24 30 24z"
  />
  <path style="fill:#010000"
        d="M36 22C34 24 30 22 32 20C34 18 38 20 36 22z"
        transform="matrix(0.9641,-0.2652,0.2652,0.9641,-4.3526,10.7717)"
  />
  <path style="fill:#010000"
        d="M36 22C34 24 30 22 32 20C34 18 38 20 36 22z"
        transform="matrix(0.2982,0.7133,-0.7018,0.3705,29.1636,-13.0749)"
  />
  <path style="fill:#010000"
        d="M43 35L53 40C53 40 51 43 52 48C53 42 56 42 56 42C56 42 59 43 62 47C60 43 58.22 41.76 58.22 41.76C58.22 41.76 58 41 63 41C59 39 56 40 56 40L45 33C43 33 43 35 43 35z"
  />
  <path style="fill:none; stroke:#010000; stroke-width:12"
        d="M34 8C32 8 40 14 40 12C40 10 36 8 34 8z"
  />
  <radialGradient id="gradient7" gradientUnits="userSpaceOnUse" cx="0" cy="0" r="64" gradientTransform="matrix(0.1875,0,0,0.1875,34,6)">
   <stop offset="0" stop-color="#5c5c5c"/>
   <stop offset="1" stop-color="#000000"/>
  </radialGradient>
  <path style="fill:url(#gradient7)"
        d="M34 8C32 8 40 14 40 12C40 10 36 8 34 8z"
  />
  <path style="fill:none; stroke:#010000; stroke-width:4"
        d="M10 4C13.35 4 16 6.63 16 10C16 13.35 13.35 16 10 16C6.63 16 4 13.35 4 10C4 6.63 6.63 4 10 4z"
  />
  <radialGradient id="gradient8" gradientUnits="userSpaceOnUse" cx="0" cy="0" r="64" gradientTransform="matrix(0.1406,0,0,0.1406,7,7)">
   <stop offset="0.6667" stop-color="#ffffff"/>
   <stop offset="1" stop-color="#95bcdd"/>
  </radialGradient>
  <path style="fill:url(#gradient8)"
        d="M10 4C13.35 4 16 6.63 16 10C16 13.35 13.35 16 10 16C6.63 16 4 13.35 4 10C4 6.63 6.63 4 10 4z"
  />
 </g>
</svg>
