<?xml version="1.0" encoding="UTF-8" standalone="yes"?>
<svg version="1.1" width="64" height="64" color-interpolation="linearRGB"
     xmlns:svg="http://www.w3.org/2000/svg" xmlns="http://www.w3.org/2000/svg">
 <g>
  <path style="fill:#010101; fill-opacity:0.4549"
        d="M14 60H23L34 51L41 64C41 64 57 66 60 56C63 46 50 44 50 44H60L64 38L58 30L34 50L21 43"
  />
  <path style="fill:none; stroke:#000000; stroke-width:4"
        d="M46 1.99L38 7.99L26 33.99L50 46L59.5 36.49L46 1.99z"
  />
  <linearGradient id="gradient0" gradientUnits="userSpaceOnUse" x1="71.39" y1="72" x2="47.3" y2="80.13">
   <stop offset="0" stop-color="#fff289"/>
   <stop offset="1" stop-color="#ffcd05"/>
  </linearGradient>
  <path style="fill:url(#gradient0)"
        d="M26 33.99L38 7.99L50 46L26 33.99z"
  />
  <linearGradient id="gradient1" gradientUnits="userSpaceOnUse" x1="55.28" y1="53" x2="30.83" y2="48.06">
   <stop offset="0" stop-color="#f98e05"/>
   <stop offset="1" stop-color="#fcb23d"/>
  </linearGradient>
  <path style="fill:url(#gradient1)"
        d="M50 46L59.5 36.49L46 1.99L38 7.99L50 46z"
  />
  <path style="fill:none; stroke:#000000; stroke-width:4"
        d="M40.99 35.99C48.28 35.99 53.99 41.71 53.99 49C53.99 56.28 48.28 62 40.99 62C33.72 62 27.99 56.28 27.99 49C27.99 41.71 33.72 35.99 40.99 35.99z"
  />
  <radialGradient id="gradient2" gradientUnits="userSpaceOnUse" cx="0" cy="0" r="64" gradientTransform="matrix(0.25,0,0,0.25,38,46)">
   <stop offset="0" stop-color="#ffebeb"/>
   <stop offset="0.4925" stop-color="#e86b06"/>
   <stop offset="1" stop-color="#bb0505"/>
  </radialGradient>
  <path style="fill:url(#gradient2)"
        d="M40.99 35.99C48.28 35.99 53.99 41.71 53.99 49C53.99 56.28 48.28 62 40.99 62C33.72 62 27.99 56.28 27.99 49C27.99 41.71 33.72 35.99 40.99 35.99z"
  />
  <path style="fill:none; stroke:#000000; stroke-width:4"
        d="M9.99 13.99L1.99 20V52L13.99 58L22 50V18.99L9.99 13.99z"
  />
  <linearGradient id="gradient3" gradientUnits="userSpaceOnUse" x1="-16.7" y1="-3.72" x2="2.18" y2="-10.18">
   <stop offset="0" stop-color="#bde2b7"/>
   <stop offset="1" stop-color="#40a635"/>
  </linearGradient>
  <path style="fill:url(#gradient3)"
        d="M1.99 52L13.99 58V24.99L1.99 20V52z"
  />
  <path style="fill:#497334"
        d="M13.99 58L22 50V18.99L13.99 24.99V58z"
  />
  <linearGradient id="gradient4" gradientUnits="userSpaceOnUse" x1="-49.27" y1="-42.24" x2="-35.26" y2="-53.54">
   <stop offset="0" stop-color="#d1facb"/>
   <stop offset="1" stop-color="#76cb68"/>
  </linearGradient>
  <path style="fill:url(#gradient4)"
        d="M1.99 20L13.99 24.99L22 18.99L9.99 13.99L1.99 20z"
  />
 </g>
</svg>
