<?xml version="1.0" encoding="UTF-8" standalone="yes"?>
<svg version="1.1" width="64" height="64" color-interpolation="linearRGB"
     xmlns:svg="http://www.w3.org/2000/svg" xmlns="http://www.w3.org/2000/svg">
 <g>
  <path style="fill:#000000; fill-opacity:0.4"
        d="M49 39L64 47C62 51 57 56 49 56"
  />
  <path style="fill:none; stroke:#000000; stroke-width:4"
        d="M47.06 52.66C47.06 46.66 50.06 33.66 53.06 30.66L9.06 11.66C6.06 14.66 3.06 25.66 3.06 31.66L47.06 52.66z"
  />
  <linearGradient id="gradient0" gradientUnits="userSpaceOnUse" x1="33.24" y1="22.54" x2="27.59" y2="42.59">
   <stop offset="0" stop-color="#ffffff"/>
   <stop offset="1" stop-color="#c3ccbe"/>
  </linearGradient>
  <path style="fill:url(#gradient0)"
        d="M47.06 52.66C47.06 46.66 50.06 33.66 53.06 30.66L9.06 11.66C6.06 14.66 3.06 25.66 3.06 31.66L47.06 52.66z"
  />
  <path style="fill:none; stroke:#000000; stroke-width:2"
        d="M24 34L48.06 45.66
           M6.06 16.66L27.06 25.66
           M24.06 41.66C24.06 35.66 27.06 23.66 30.06 20.66"
  />
  <path style="fill:none; stroke:#000000; stroke-width:1"
        d="M30 32.12C30 32.12 34.66 36.1 36 32.46C37.13 29.36 32.59 27.66 32.59 27.66C32.59 27.66 36.32 29.57 37.66 26.7C38.9 24.06 35.77 23.03 33.63 22.9
           M43.45 39.26C43.45 38.36 46.13 30.76 47.06 28.66C46.76 28.66 39.2 33.16 39.2 33.16L46.55 36.58
           M15.94 28.92C19.76 28.83 21.13 30.88 20.7 32.72C20.04 35.51 16.09 34.26 15.31 36.26L20.96 38.97
           M8.92 34.04C8.92 31.85 9.18 27.93 10 25.93L7.65 25.02"
  />
 </g>
</svg>
