<?xml version="1.0" encoding="UTF-8" standalone="yes"?>
<svg version="1.1" width="64" height="64" color-interpolation="linearRGB"
     xmlns:svg="http://www.w3.org/2000/svg" xmlns="http://www.w3.org/2000/svg">
 <g>
  <path style="fill:#010000; fill-opacity:0.4509"
        d="M28 60H44L62 42L52 37H28V60z"
  />
  <path style="fill:none; stroke:#010000; stroke-width:4"
        d="M7 19C4.13 20.77 2 25 2 29C2 38 10 50 20 55C26 58 32 57 35 54L47 42C49 40 51 37 51 33C51 24 43 14 33 10C27 8 22 8 19 10L7 19z"
  />
  <linearGradient id="gradient0" gradientUnits="userSpaceOnUse" x1="36.62" y1="55.67" x2="-6.75" y2="14.18">
   <stop offset="0" stop-color="#810303"/>
   <stop offset="0.3371" stop-color="#f12020"/>
   <stop offset="0.6818" stop-color="#fdabab"/>
   <stop offset="1" stop-color="#f11f1f"/>
  </linearGradient>
  <path style="fill:url(#gradient0)"
        d="M7 19C4.13 20.77 2 25 2 29C2 38 10 50 20 55C26 58 32 57 35 54L47 42C49 40 51 37 51 33C51 24 43 14 33 10C27 8 22 8 19 10L7 19z"
  />
  <linearGradient id="gradient1" gradientUnits="userSpaceOnUse" x1="30.02" y1="44.42" x2="7.83" y2="11.14">
   <stop offset="0" stop-color="#d62828"/>
   <stop offset="1" stop-color="#ff9797"/>
  </linearGradient>
  <path style="fill:url(#gradient1)"
        d="M2 29C2 19 10 16 20 20C30 24 38 36 38 46C38 56 30 60 20 55C10 50 2 39 2 29z"
  />
  <linearGradient id="gradient2" gradientUnits="userSpaceOnUse" x1="13.05" y1="30.58" x2="30.8" y2="30.58">
   <stop offset="0" stop-color="#990808"/>
   <stop offset="1" stop-color="#fc9696"/>
  </linearGradient>
  <path style="fill:url(#gradient2)"
        d="M13 43L22 34L31 43H13z"
  />
  <path style="fill:#790101"
        d="M13 43V25L22 34L13 43z"
  />
  <linearGradient id="gradient3" gradientUnits="userSpaceOnUse" x1="23.13" y1="34.6" x2="13.8" y2="20.61">
   <stop offset="0" stop-color="#dcdcdc"/>
   <stop offset="1" stop-color="#ffffff"/>
  </linearGradient>
  <path style="fill:url(#gradient3)"
        d="M15 27V41H29L15 27z"
  />
  <linearGradient id="gradient4" gradientUnits="userSpaceOnUse" x1="22.64" y1="46.69" x2="-12.59" y2="12.98">
   <stop offset="0.0037" stop-color="#d90505"/>
   <stop offset="0.4621" stop-color="#ffe3e3"/>
   <stop offset="1" stop-color="#ff0606"/>
  </linearGradient>
  <path style="fill:url(#gradient4)"
        d="M7.99 18.94C11 18 14.36 19.14 19 21C29 24.99 38 36 38 46C38 34 32 24 22 19C16 17 10 17 7.99 18.94z"
  />
 </g>
</svg>
