<?xml version="1.0" encoding="UTF-8" standalone="yes"?>
<svg version="1.1" width="64" height="64" color-interpolation="linearRGB"
     xmlns:svg="http://www.w3.org/2000/svg" xmlns="http://www.w3.org/2000/svg">
 <g>
  <path style="fill:#010101; fill-opacity:0.5725"
        d="M58 39L62 36L58 34L55 37L58 39z
           M27 62L29 64L32.12 60.82L37 64L45.39 52.53L64 43L59 40L61 42L36 54L27 62z"
  />
  <path style="fill:none; stroke:#010101; stroke-width:4"
        d="M6.24 35C6.24 35 11.87 41 16.87 47.5C21.87 54 26.24 60.74 26.24 60.74L59.11 41.87L32 20L6.24 35z"
  />
  <radialGradient id="gradient0" gradientUnits="userSpaceOnUse" cx="0" cy="0" r="64" gradientTransform="matrix(0.5714,0,0,0.3333,26,40)">
   <stop offset="0.4862" stop-color="#0559c1"/>
   <stop offset="1" stop-color="#a5cdff"/>
  </radialGradient>
  <path style="fill:url(#gradient0)"
        d="M6.24 35C6.24 35 11.87 41 16.87 47.5C21.87 54 26.24 60.74 26.24 60.74L59.11 41.87L32 20L6.24 35z"
  />
  <path style="fill:#010101; fill-opacity:0.3882"
        d="M50.03 47.07L46 47L49 43L57.04 43.05L50.03 47.07z"
  />
  <path style="fill:none; stroke:#010101; stroke-width:4"
        d="M2.61 35.87C2.61 35.87 10.95 41.26 19 46.87C27.44 52.75 35.74 57.74 35.74 57.74L58.11 31.37C58.11 31.37 45.44 25.7 35.37 20.37C30.18 17.62 26 14.37 26 14.37L2.61 35.87z"
  />
  <linearGradient id="gradient1" gradientUnits="userSpaceOnUse" x1="119.33" y1="64.21" x2="102.51" y2="94.25">
   <stop offset="0" stop-color="#a5cdff"/>
   <stop offset="0.4904" stop-color="#0563d7"/>
   <stop offset="1" stop-color="#a5cdff"/>
  </linearGradient>
  <path style="fill:url(#gradient1)"
        d="M2.61 35.87C2.61 35.87 10.95 41.26 19 46.87C27.44 52.75 35.74 57.74 35.74 57.74L58.11 31.37C58.11 31.37 45.44 25.7 35.37 20.37C30.18 17.62 26 14.37 26 14.37L2.61 35.87z"
  />
  <linearGradient id="gradient2" gradientUnits="userSpaceOnUse" x1="119.33" y1="64.21" x2="102.51" y2="94.25">
   <stop offset="0.5057" stop-color="#ffeb65"/>
   <stop offset="0" stop-color="#ff9500"/>
   <stop offset="1" stop-color="#ff9500"/>
  </linearGradient>
  <path style="fill:url(#gradient2)"
        d="M20 46L33 42L35 45L42 43L46 44L44 41L45 35L40 34L43 26L33 29V26L28 27L25 23L20 25H15L17 28L15 33L21 34V38L25 37L20 46z"
  />
  <linearGradient id="gradient3" gradientUnits="userSpaceOnUse" x1="114.8" y1="4.79" x2="120.18" y2="46.81">
   <stop offset="0" stop-color="#ffffff" stop-opacity="0.4666"/>
   <stop offset="0.4752" stop-color="#93b5e0" stop-opacity="0"/>
   <stop offset="1" stop-color="#0354b8"/>
  </linearGradient>
  <path style="fill:url(#gradient3)"
        d="M2.61 35.87C2.61 35.87 10.95 41.26 19 46.87C27.44 52.75 35.74 57.74 35.74 57.74L58.11 31.37C58.11 31.37 45.44 25.7 35.37 20.37C30.18 17.62 26 14.37 26 14.37L2.61 35.87z"
  />
  <path style="fill:#010101; fill-opacity:0.3882"
        d="M44.86 47L33 45.24L23 43L25 42L37 40.74L49.73 41.24L44.86 47z"
  />
  <path style="fill:none; stroke:#010101; stroke-width:4"
        d="M17 4H51C52 4 54 6 54 9C54 12 52 14 51 14H17L6 9L17 4z"
        transform="matrix(0.7071,-0.7071,0.7071,0.7071,15.8223,37.5334)"
  />
  <linearGradient id="gradient4" gradientUnits="userSpaceOnUse" x1="43.05" y1="9.82" x2="40.39" y2="21.77">
   <stop offset="0" stop-color="#ffeed5"/>
   <stop offset="0.5529" stop-color="#dbab5f"/>
   <stop offset="0.8117" stop-color="#ffeed5"/>
  </linearGradient>
  <path style="fill:url(#gradient4)"
        d="M17 4C16 4 14 6 14 9C14 12 16 14 17 14L8.69 9.84L8.74 8.11L17 4z"
        transform="matrix(0.7071,-0.7071,0.7071,0.7071,15.8223,37.5334)"
  />
  <linearGradient id="gradient5" gradientUnits="userSpaceOnUse" x1="128" y1="3.99" x2="128" y2="14">
   <stop offset="0" stop-color="#bfff80"/>
   <stop offset="1" stop-color="#478c03"/>
  </linearGradient>
  <path style="fill:url(#gradient5)"
        d="M16 9C16 12 18 14 19 14H44C43 14 41 12 41 9C41 6 43 4 44 4H19C18 4 16 6 16 9z"
        transform="matrix(0.7071,-0.7071,0.7071,0.7071,15.8223,37.5334)"
  />
  <linearGradient id="gradient6" gradientUnits="userSpaceOnUse" x1="69.23" y1="1.9" x2="69.23" y2="14.09">
   <stop offset="0" stop-color="#ffeaee"/>
   <stop offset="0.7764" stop-color="#d17c8a"/>
   <stop offset="1" stop-color="#da9faa"/>
  </linearGradient>
  <path style="fill:url(#gradient6)"
        d="M51 4C50 4 48 6 48 9C48 12 50 14 51 14H46C45 14 43 12 43 9C43 6 45 4 46 4H51z"
        transform="matrix(0.7071,-0.7071,0.7071,0.7071,15.8223,37.5334)"
  />
  <linearGradient id="gradient7" gradientUnits="userSpaceOnUse" x1="114.68" y1="3.18" x2="114.6" y2="19.44">
   <stop offset="0" stop-color="#ffe3e8"/>
   <stop offset="1" stop-color="#f8a1b1"/>
  </linearGradient>
  <path style="fill:url(#gradient7)"
        d="M51 4C52 4 54 6 54 9C54 12 52 14 51 14C50 14 48 12 48 9C48 6 50 4 51 4z"
        transform="matrix(0.7071,-0.7071,0.7071,0.7071,15.8223,37.5334)"
  />
  <path style="fill:#010101"
        d="M46 4C45 4 43 6 43 9C43 12 45 14 46 14H44C43 14 41 12 41 9C41 6 43 4 44 4H46z
           M17 4C16 4 14 6 14 9C14 12 16 14 17 14H19C18 14 16 12 16 9C16 6 18 4 19 4H17z"
        transform="matrix(0.7071,-0.7071,0.7071,0.7071,15.8223,37.5334)"
  />
 </g>
</svg>
