<?xml version="1.0" encoding="UTF-8" standalone="yes"?>
<svg version="1.1" width="64" height="64" color-interpolation="linearRGB"
     xmlns:svg="http://www.w3.org/2000/svg" xmlns="http://www.w3.org/2000/svg">
 <g>
  <path style="fill:#000000; fill-opacity:0.349"
        d="M22 46L23 48L13 54L17 56L23.75 52.34L24 54C23 54 20 58 24 61C28 64 33 61 33 58H45L46 57C57 55 62 43 49 36C36 29 23 44 23 44L22 46z"
        transform="matrix(1,0,0,1,2,0)"
  />
  <path style="fill:none; stroke:#010101; stroke-width:4"
        d="M13 54V54L17 56V56L20 53V53L23 43V43H26V43L30 46V46L33 43V43L28 39V39H18V39L13 54z"
        transform="matrix(1,0,0,1,2,0)"
  />
  <linearGradient id="gradient0" gradientUnits="userSpaceOnUse" x1="83.26" y1="-53.67" x2="109.82" y2="-22.55">
   <stop offset="0" stop-color="#ffd400"/>
   <stop offset="0.4908" stop-color="#bf8f00"/>
   <stop offset="1" stop-color="#996500"/>
  </linearGradient>
  <path style="fill:url(#gradient0)"
        d="M30 46L26 43H19L21 39H28L33 43L30 46z"
        transform="matrix(1,0,0,1,2,0)"
  />
  <linearGradient id="gradient1" gradientUnits="userSpaceOnUse" x1="91.66" y1="-41.7" x2="106.41" y2="-24.84">
   <stop offset="0" stop-color="#ffeb90"/>
   <stop offset="0.4908" stop-color="#ffd400"/>
   <stop offset="1" stop-color="#ffc000"/>
  </linearGradient>
  <path style="fill:url(#gradient1)"
        d="M19 43H21L17 56L13 54L17 42L19 43z"
        transform="matrix(1,0,0,1,2,0)"
  />
  <linearGradient id="gradient2" gradientUnits="userSpaceOnUse" x1="83.26" y1="-53.67" x2="109.82" y2="-22.55">
   <stop offset="0" stop-color="#ffd400"/>
   <stop offset="0.4908" stop-color="#bf8f00"/>
   <stop offset="1" stop-color="#996500"/>
  </linearGradient>
  <path style="fill:url(#gradient2)"
        d="M21 43L17 56L20 53L23 43H21z"
        transform="matrix(1,0,0,1,2,0)"
  />
  <path style="fill:none; stroke:#010101; stroke-width:4"
        d="M8 27C7 28 11 39 11 39L14 35L8 27z"
        transform="matrix(1,0,0,1,2,0)"
  />
  <linearGradient id="gradient3" gradientUnits="userSpaceOnUse" x1="91.66" y1="-41.7" x2="106.41" y2="-24.84">
   <stop offset="0" stop-color="#ffeb90"/>
   <stop offset="0.4908" stop-color="#ffd400"/>
   <stop offset="1" stop-color="#ffc000"/>
  </linearGradient>
  <path style="fill:url(#gradient3)"
        d="M8 27C7 28 11 39 11 39L14 35L8 27z"
        transform="matrix(1,0,0,1,2,0)"
  />
  <linearGradient id="gradient4" gradientUnits="userSpaceOnUse" x1="83.26" y1="-53.67" x2="109.82" y2="-22.55">
   <stop offset="0" stop-color="#ffd400"/>
   <stop offset="0.4908" stop-color="#bf8f00"/>
   <stop offset="1" stop-color="#996500"/>
  </linearGradient>
  <path style="fill:url(#gradient4)"
        d=""
        transform="matrix(1,0,0,1,2,0)"
  />
  <path style="fill:none; stroke:#010101; stroke-width:4"
        d="M27 2C17.05 2 9 10.05 9 20C9 29.94 17.05 38 27 38C36.94 38 45 29.94 45 20C45 10.05 36.94 2 27 2z"
        transform="matrix(1,0,0,1,2,0)"
  />
  <radialGradient id="gradient5" gradientUnits="userSpaceOnUse" cx="0" cy="0" r="64" gradientTransform="matrix(0.3906,0,0,0.3797,20,13.6944)">
   <stop offset="0" stop-color="#d9ecff"/>
   <stop offset="0.7921" stop-color="#007fff"/>
   <stop offset="1" stop-color="#0060bf"/>
  </radialGradient>
  <path style="fill:url(#gradient5)"
        d="M27 2C17.05 2 9 10.05 9 20C9 29.94 17.05 38 27 38C36.94 38 45 29.94 45 20C45 10.05 36.94 2 27 2z"
        transform="matrix(1,0,0,1,2,0)"
  />
  <path style="fill:none; stroke:#010101; stroke-width:4"
        d="M19 43L33 40L35 39L37 35H35L21 39"
        transform="matrix(1,0,0,1,2,0)"
  />
  <linearGradient id="gradient6" gradientUnits="userSpaceOnUse" x1="83.26" y1="-53.67" x2="109.82" y2="-22.55">
   <stop offset="0" stop-color="#ffd400"/>
   <stop offset="0.4908" stop-color="#bf8f00"/>
   <stop offset="1" stop-color="#996500"/>
  </linearGradient>
  <path style="fill:url(#gradient6)"
        d="M35 35L33 40L35 39L37 35H35z"
        transform="matrix(1,0,0,1,2,0)"
  />
  <linearGradient id="gradient7" gradientUnits="userSpaceOnUse" x1="91.66" y1="-41.7" x2="106.41" y2="-24.84">
   <stop offset="0" stop-color="#ffeb90"/>
   <stop offset="0.4908" stop-color="#ffd400"/>
   <stop offset="1" stop-color="#ffc000"/>
  </linearGradient>
  <path style="fill:url(#gradient7)"
        d="M33 40L19 43L21 39C21 39 29 42 35 35L33 40z"
        transform="matrix(1,0,0,1,2,0)"
  />
  <linearGradient id="gradient8" gradientUnits="userSpaceOnUse" x1="83.26" y1="-53.67" x2="109.82" y2="-22.55">
   <stop offset="0" stop-color="#ffd400"/>
   <stop offset="0.4908" stop-color="#bf8f00"/>
   <stop offset="1" stop-color="#996500"/>
  </linearGradient>
  <path style="fill:url(#gradient8)"
        d="M21 39C21 39 29 42 35 35L21 39z"
        transform="matrix(1,0,0,1,2,0)"
  />
  <path style="fill:none; stroke:#010101; stroke-width:4"
        d="M14 34C10.68 34 8 36.68 8 40C8 43.31 10.68 46 14 46C17.31 46 20 43.31 20 40C20 36.68 17.31 34 14 34z"
        transform="matrix(1,0,0,1,2,0)"
  />
  <radialGradient id="gradient9" gradientUnits="userSpaceOnUse" cx="0" cy="0" r="64" gradientTransform="matrix(0.125,0,0,0.125,12,38)">
   <stop offset="0" stop-color="#ffffff"/>
   <stop offset="0.2" stop-color="#f2f2f2"/>
   <stop offset="1" stop-color="#808080"/>
  </radialGradient>
  <path style="fill:url(#gradient9)"
        d="M14 34C10.68 34 8 36.68 8 40C8 43.31 10.68 46 14 46C17.31 46 20 43.31 20 40C20 36.68 17.31 34 14 34z"
        transform="matrix(1,0,0,1,2,0)"
  />
 </g>
</svg>
