<?xml version="1.0" encoding="UTF-8" standalone="yes"?>
<svg version="1.1" width="64" height="64" color-interpolation="linearRGB"
     xmlns:svg="http://www.w3.org/2000/svg" xmlns="http://www.w3.org/2000/svg">
 <g>
  <radialGradient id="gradient0" gradientUnits="userSpaceOnUse" cx="0" cy="0" r="64" gradientTransform="matrix(0.375,0,0,0.375,32,32)">
   <stop offset="1" stop-color="#3a3b40" stop-opacity="0"/>
   <stop offset="0" stop-color="#3a3c40"/>
  </radialGradient>
  <path style="fill:url(#gradient0)"
        d="M32 8C18.74 8 8 18.74 8 32C8 45.25 18.74 56 32 56C45.25 56 56 45.25 56 32C56 18.74 45.25 8 32 8z"
        transform="matrix(1.3333,0,0,0.3333,-10.6666,45.3333)"
  />
  <radialGradient id="gradient1" gradientUnits="userSpaceOnUse" cx="0" cy="0" r="64" gradientTransform="matrix(0.625,0,0,0.625,20,20)">
   <stop offset="0" stop-color="#807b40"/>
   <stop offset="1" stop-color="#403d20"/>
  </radialGradient>
  <path style="fill:none; stroke:url(#gradient1); stroke-width:8"
        d="M32 8C18.74 8 8 18.74 8 32C8 45.25 18.74 56 32 56C45.25 56 56 45.25 56 32C56 18.74 45.25 8 32 8z"
  />
  <radialGradient id="gradient2" gradientUnits="userSpaceOnUse" cx="0" cy="0" r="64" gradientTransform="matrix(0.5,0,0,0.5,24,24)">
   <stop offset="0.3126" stop-color="#e5e1b8"/>
   <stop offset="1" stop-color="#ccbb03"/>
  </radialGradient>
  <path style="fill:url(#gradient2)"
        d="M32 8C18.74 8 8 18.74 8 32C8 45.25 18.74 56 32 56C45.25 56 56 45.25 56 32C56 18.74 45.25 8 32 8z"
  />
  <radialGradient id="gradient3" gradientUnits="userSpaceOnUse" cx="0" cy="0" r="64" gradientTransform="matrix(0.1875,0,0,0.1875,20,32)">
   <stop offset="0" stop-color="#5e9e44" stop-opacity="0.7803"/>
   <stop offset="1" stop-color="#5e9e44" stop-opacity="0"/>
  </radialGradient>
  <path style="fill:url(#gradient3)"
        d="M20 20C13.37 20 8 25.37 8 32C8 38.62 13.37 44 20 44C26.62 44 32 38.62 32 32C32 25.37 26.62 20 20 20z"
        transform="matrix(1,0,0,0.6666,0,12.6666)"
  />
  <radialGradient id="gradient4" gradientUnits="userSpaceOnUse" cx="0" cy="0" r="64" gradientTransform="matrix(0.1875,0,0,0.1875,20,32)">
   <stop offset="0" stop-color="#5e9e44" stop-opacity="0.7803"/>
   <stop offset="1" stop-color="#5e9e44" stop-opacity="0"/>
  </radialGradient>
  <path style="fill:url(#gradient4)"
        d="M20 20C13.37 20 8 25.37 8 32C8 38.62 13.37 44 20 44C26.62 44 32 38.62 32 32C32 25.37 26.62 20 20 20z"
        transform="matrix(1,0,0,0.6666,24,12.6666)"
  />
  <radialGradient id="gradient5" gradientUnits="userSpaceOnUse" cx="0" cy="0" r="64" gradientTransform="matrix(0.625,0,0,0.625,20,20)">
   <stop offset="0" stop-color="#807b40"/>
   <stop offset="1" stop-color="#403d20"/>
  </radialGradient>
  <path style="fill:none; stroke:url(#gradient5); stroke-width:6"
        d="M28 24L16 28C16 30 18 32 22 32C28 32 28 26 28 24z"
        transform="matrix(1,0,0,0.8571,0,4.9996)"
  />
  <radialGradient id="gradient6" gradientUnits="userSpaceOnUse" cx="0" cy="0" r="64" gradientTransform="matrix(0.1406,0,0,0.1093,22,26)">
   <stop offset="0.4326" stop-color="#ffffff"/>
   <stop offset="1" stop-color="#ff9e9e"/>
  </radialGradient>
  <path style="fill:url(#gradient6)"
        d="M28 24L16 28C16 30 18 32 22 32C28 32 28 26 28 24z"
  />
  <radialGradient id="gradient7" gradientUnits="userSpaceOnUse" cx="0" cy="0" r="64" gradientTransform="matrix(0.625,0,0,0.625,20,20)">
   <stop offset="0" stop-color="#807b40"/>
   <stop offset="1" stop-color="#403d20"/>
  </radialGradient>
  <path style="fill:none; stroke:url(#gradient7); stroke-width:6"
        d="M28 24L16 28C16 30 18 32 22 32C28 32 28 26 28 24z"
        transform="matrix(-0.9501,-0.3117,-0.2671,0.8144,70.3848,13.0527)"
  />
  <radialGradient id="gradient8" gradientUnits="userSpaceOnUse" cx="0" cy="0" r="64" gradientTransform="matrix(0.1406,0,0,0.1093,22,26)">
   <stop offset="0.4326" stop-color="#ffffff"/>
   <stop offset="1" stop-color="#ff9e9e"/>
  </radialGradient>
  <path style="fill:url(#gradient8)"
        d="M28 24L16 28C16 30 18 32 22 32C28 32 28 26 28 24z"
        transform="matrix(-0.9501,-0.3117,-0.3117,0.9501,71.9432,8.3021)"
  />
  <radialGradient id="gradient9" gradientUnits="userSpaceOnUse" cx="0" cy="0" r="64" gradientTransform="matrix(0.625,0,0,0.625,20,20)">
   <stop offset="0" stop-color="#807b40"/>
   <stop offset="1" stop-color="#403d20"/>
  </radialGradient>
  <path style="fill:none; stroke:url(#gradient9); stroke-width:6"
        d="M40 42C38 42 37.52 44 32 44C26.47 44 22 44 24 46C26 48 30 46 34 46C38 46 36 50 38 50C40 50 38 48 40 46C42 44 42 42 40 42z"
        transform="matrix(1,0,0,0.8669,0,5.0522)"
  />
  <radialGradient id="gradient10" gradientUnits="userSpaceOnUse" cx="0" cy="0" r="64" gradientTransform="matrix(0.1875,0,0,0.125,38,48)">
   <stop offset="0" stop-color="#ffffff"/>
   <stop offset="1" stop-color="#dadee5"/>
  </radialGradient>
  <path style="fill:url(#gradient10)"
        d="M40 42C38 42 37.52 44 32 44C26.47 44 22 44 24 46C26 48 30 46 34 46C38 46 36 50 38 50C40 50 38 48 40 46C42 44 42 42 40 42z"
  />
 </g>
</svg>
