<?xml version="1.0" encoding="UTF-8" standalone="yes"?>
<svg version="1.1" width="64" height="64" color-interpolation="linearRGB"
     xmlns:svg="http://www.w3.org/2000/svg" xmlns="http://www.w3.org/2000/svg">
 <g>
  <path style="fill:none; stroke:#000000; stroke-opacity:0.4; stroke-width:4; stroke-linecap:round; stroke-linejoin:round"
        d="M8 22L14 24L26 36L40 22L24 6L8 22z
           M36 18V18L40 14L34 4L28 10L36 18z
           M9 18L6 21V23L9 24V40C9 40 2 28 2 24C2 20 5 18 9 18z"
        transform="matrix(1,0,0,1,2,2)"
  />
  <path style="fill:none; stroke:#004080; stroke-width:4; stroke-linecap:round; stroke-linejoin:round"
        d="M36 18V18L40 14L34 4L28 10L36 18z
           M30 12L34 8L37 13L34 16L30 12z"
  />
  <path style="fill:#ffffff"
        d="M36 18V18L40 14L34 4L28 10L36 18z
           M30 12L34 8L37 13L34 16L30 12z"
  />
  <path style="fill:none; stroke:#004080; stroke-width:4; stroke-linecap:round; stroke-linejoin:round"
        d="M8 22L14 24L26 36L40 22L24 6L8 22z"
  />
  <path style="fill:#ffffff"
        d="M12 18H36L24 6L12 18z"
  />
  <linearGradient id="gradient0" gradientUnits="userSpaceOnUse" x1="128" y1="17.99" x2="128" y2="35.99">
   <stop offset="0" stop-color="#abd5ff"/>
   <stop offset="1" stop-color="#006cd9"/>
  </linearGradient>
  <path style="fill:url(#gradient0)"
        d="M8 22L14 24L26 36L40 22L36 18H12L8 22z"
  />
  <path style="fill:none; stroke:#004080; stroke-width:4; stroke-linecap:round; stroke-linejoin:round"
        d="M9 18L6 21V23L9 24V40C9 40 2 28 2 24C2 20 5 18 9 18z"
  />
  <linearGradient id="gradient1" gradientUnits="userSpaceOnUse" x1="128" y1="17.99" x2="128" y2="35.99">
   <stop offset="0" stop-color="#abd5ff"/>
   <stop offset="1" stop-color="#006cd9"/>
  </linearGradient>
  <path style="fill:url(#gradient1)"
        d="M9 18L6 21V23L9 24V40C9 40 2 28 2 24C2 20 5 18 9 18z"
  />
 </g>
</svg>
