<?xml version="1.0" encoding="UTF-8" standalone="yes"?>
<svg version="1.1" width="64" height="64" color-interpolation="linearRGB"
     xmlns:svg="http://www.w3.org/2000/svg" xmlns="http://www.w3.org/2000/svg">
 <g>
  <path style="fill:none; stroke:#010101; stroke-width:4"
        d="M40 38C50 42 54 48 60 58L50 62C48 58 40 48 32 48C26 54 16 60 6 60L4 50C4 50 24 48 24 36C24 26 32 20 32 20L40 26C44 28 60 26 60 26V34C56 36 40 36 40 36V38z"
  />
  <path style="fill:none; stroke:#010101; stroke-width:4"
        d="M42 2C47.59 2 52 6.4 52 12C52 17.6 47.59 22 42 22C36.4 22 32 17.6 32 12C32 6.4 36.4 2 42 2z"
  />
  <radialGradient id="gradient0" gradientUnits="userSpaceOnUse" cx="0" cy="0" r="64" gradientTransform="matrix(0.5625,0,0,0.5625,24,24)">
   <stop offset="1" stop-color="#ffcc00"/>
   <stop offset="0.5" stop-color="#ffff00"/>
  </radialGradient>
  <path style="fill:url(#gradient0)"
        d="M40 38C50 42 54 48 60 58L50 62C48 58 40 48 32 48C26 54 16 60 6 60L4 50C4 50 24 48 24 36C24 26 32 20 32 20L40 26C44 28 60 26 60 26V34C56 36 40 36 40 36V38z"
  />
  <radialGradient id="gradient1" gradientUnits="userSpaceOnUse" cx="0" cy="0" r="64" gradientTransform="matrix(0.2187,0,0,0.2187,38,8)">
   <stop offset="1" stop-color="#ffcc00"/>
   <stop offset="0.4867" stop-color="#ffff00"/>
  </radialGradient>
  <path style="fill:url(#gradient1)"
        d="M42 2C47.59 2 52 6.4 52 12C52 17.6 47.59 22 42 22C36.4 22 32 17.6 32 12C32 6.4 36.4 2 42 2z"
  />
  <radialGradient id="gradient2" gradientUnits="userSpaceOnUse" cx="0" cy="0" r="64" gradientTransform="matrix(0.1759,0.1459,-0.4006,0.4829,30.3089,25.3783)">
   <stop offset="1" stop-color="#ffffff" stop-opacity="0"/>
   <stop offset="0.4785" stop-color="#ffffff" stop-opacity="0.8196"/>
  </radialGradient>
  <path style="fill:url(#gradient2)"
        d="M40 38C50 42 54 48 60 58L50 62C48 58 40 48 32 48C26 54 16 60 6 60L4 50C4 50 24 48 24 36C24 26 32 20 32 20L40 26C44 28 60 26 60 26V34C56 36 40 36 40 36V38z"
  />
  <radialGradient id="gradient3" gradientUnits="userSpaceOnUse" cx="0" cy="0" r="64" gradientTransform="matrix(0.3125,0,0,0.3125,32,2)">
   <stop offset="1" stop-color="#ffffff" stop-opacity="0"/>
   <stop offset="0.4785" stop-color="#ffffff" stop-opacity="0.8196"/>
  </radialGradient>
  <path style="fill:url(#gradient3)"
        d="M42 2C47.59 2 52 6.4 52 12C52 17.6 47.59 22 42 22C36.4 22 32 17.6 32 12C32 6.4 36.4 2 42 2z"
  />
 </g>
</svg>
