<?xml version="1.0" encoding="UTF-8" standalone="yes"?>
<svg version="1.1" width="64" height="64" color-interpolation="linearRGB"
     xmlns:svg="http://www.w3.org/2000/svg" xmlns="http://www.w3.org/2000/svg">
 <g>
  <path style="fill:#cc0000"
        d="M19 49C19 49 16 50 13 50C10 50 4 46 3 45C2 44 3 43 4 44C5 45 11 50 13 50
           M19 56C19 56 18 56 14 56C9 56 4 53 2 51C1 50 3 50 4 51C6 53 11 56 14 56
           M20 61C20 61 17 63 14 63C11 63 3 60 2 58C1 56 2 55 3 57C4 59 11 63 14 63
           M24 59C24 59 23 50 25 47C27 44 31 41 33 39C35 37 40 32 40 28C40 24 39 18 37 15C35 12 30 7 27 6C24 5 19 4 15 4C11 4 5 7 2 10C0 12 0 6 3 4C6 2 11 1 14 1C17 1 24 2 27 3C30 4 36 10 38 13C40 16 42 22 42 27C42 32 39 36 36 39C33 42 30 43 26 47C22.46 50.53 24 59 24 59z"
        transform="matrix(1,0,0,1,12,0)"
  />
  <path style="fill:#ffb400"
        d="M12 28C12 28 11 28 9 29C7 30 10 35.22 10 36C10 37 8 37 8 36C8 35 8 31.52 8 31C8 30 10 28 12 28C14 28 15 32 15 32C15 32 17 29 19 29C21 29 21 31 21 33C21 35 19 38 18 39C17 40 16 39 17 38C18 37 20 36 20 32C20 27 15 32 15 32"
        transform="matrix(1,0,0,1,12,0)"
  />
 </g>
</svg>
