<?xml version="1.0" encoding="UTF-8" standalone="yes"?>
<svg version="1.1" width="64" height="64" color-interpolation="linearRGB"
     xmlns:svg="http://www.w3.org/2000/svg" xmlns="http://www.w3.org/2000/svg">
 <g>
  <path style="fill:#000000; fill-opacity:0.4"
        d="M20.99 2C10.5 2 1.99 9.15 1.99 18C1.99 26.82 10.5 34 20.99 34C31.47 34 40 26.82 40 18C40 9.15 31.47 2 20.99 2z
           M40 36C37 33 36 26 36 26L28 32C28 32 36 36 40 36z"
        transform="matrix(1,0,0,1,2,2)"
  />
  <path style="fill:none; stroke:#000000; stroke-width:4; stroke-linecap:round; stroke-linejoin:round"
        d="M20.99 2C10.5 2 1.99 9.15 1.99 18C1.99 26.82 10.5 34 20.99 34C31.47 34 40 26.82 40 18C40 9.15 31.47 2 20.99 2z
           M40 36C37 33 36 26 36 26L28 32C28 32 36 36 40 36z"
  />
  <linearGradient id="gradient0" gradientUnits="userSpaceOnUse" x1="128" y1="1.99" x2="128" y2="40">
   <stop offset="0" stop-color="#ffffff"/>
   <stop offset="1" stop-color="#e5e5e5"/>
  </linearGradient>
  <path style="fill:url(#gradient0)"
        d="M20.99 2C10.5 2 1.99 9.15 1.99 18C1.99 26.82 10.5 34 20.99 34C31.47 34 40 26.82 40 18C40 9.15 31.47 2 20.99 2z
           M40 36C37 33 36 26 36 26L28 32C28 32 36 36 40 36z"
  />
  <linearGradient id="gradient1" gradientUnits="userSpaceOnUse" x1="128" y1="1.99" x2="128" y2="40">
   <stop offset="0" stop-color="#808080"/>
   <stop offset="1" stop-color="#282828"/>
  </linearGradient>
  <path style="fill:url(#gradient1)"
        d="M16 20C12.68 20 10 21.79 10 24C10 26.2 12.68 28 16 28C19.31 28 22 26.2 22 24C22 21.79 19.31 20 16 20z
           M20 6V24H22V14C22 14 32 13 28 20C40 8 20 6 20 6z"
  />
 </g>
</svg>
