<?xml version="1.0" encoding="UTF-8" standalone="yes"?>
<svg version="1.1" width="64" height="64" color-interpolation="linearRGB"
     xmlns:svg="http://www.w3.org/2000/svg" xmlns="http://www.w3.org/2000/svg">
 <g>
  <radialGradient id="gradient0" gradientUnits="userSpaceOnUse" cx="0" cy="0" r="64" gradientTransform="matrix(0.5,0,0,0.125,32,56)">
   <stop offset="0" stop-color="#000000" stop-opacity="0.5019"/>
   <stop offset="1" stop-color="#000000" stop-opacity="0"/>
  </radialGradient>
  <path style="fill:url(#gradient0)"
        d="M32 48C49.91 48 64 51.52 64 56C64 60.47 49.91 64 32 64C14.07 64 0 60.47 0 56C0 51.52 14.07 48 32 48z"
  />
  <path style="fill:none; stroke:#545454; stroke-width:8; stroke-linecap:round; stroke-linejoin:round"
        d="M12 8V56H52V8H12z"
  />
  <linearGradient id="gradient1" gradientUnits="userSpaceOnUse" x1="128" y1="8" x2="128" y2="56">
   <stop offset="0" stop-color="#ffffff"/>
   <stop offset="1" stop-color="#e5e5e5"/>
  </linearGradient>
  <path style="fill:url(#gradient1)"
        d="M12 8V56H52V8H12z"
  />
  <path style="fill:none; stroke:#545454; stroke-width:4"
        d="M16 18C18 18 48 18 48 18"
  />
  <path style="fill:none; stroke:#545454; stroke-width:4"
        d="M16 18C18 18 48 18 48 18"
        transform="matrix(0.75,0,0,1,4,12)"
  />
  <path style="fill:none; stroke:#545454; stroke-width:4"
        d="M16 18C18 18 48 18 48 18"
        transform="matrix(0.8756,0,0,1,1.9801,24)"
  />
 </g>
</svg>
