<?xml version="1.0" encoding="UTF-8" standalone="yes"?>
<svg version="1.1" width="64" height="64" color-interpolation="linearRGB"
     xmlns:svg="http://www.w3.org/2000/svg" xmlns="http://www.w3.org/2000/svg">
 <g>
  <path style="fill:none; stroke:#000000; stroke-opacity:0.4; stroke-width:8; stroke-linecap:round; stroke-linejoin:round"
        d="M28 32H14
           M28 4L21 10L14 4
           M10 38L21 18L32 38"
        transform="matrix(1,0,0,1,2,2)"
  />
  <path style="fill:none; stroke:#545454; stroke-width:8; stroke-linecap:round; stroke-linejoin:round"
        d="M28 32H14
           M28 4L21 10L14 4
           M10 38L21 18L32 38"
  />
  <linearGradient id="gradient0" gradientUnits="userSpaceOnUse" x1="127" y1="1.99" x2="127" y2="12">
   <stop offset="0" stop-color="#ffffff"/>
   <stop offset="1" stop-color="#e5e5e5"/>
  </linearGradient>
  <path style="fill:none; stroke:url(#gradient0); stroke-width:4; stroke-linecap:round; stroke-linejoin:round"
        d="M28 4L21 10L14 4"
  />
  <linearGradient id="gradient1" gradientUnits="userSpaceOnUse" x1="128" y1="16" x2="128" y2="40">
   <stop offset="0" stop-color="#ffffff"/>
   <stop offset="1" stop-color="#e5e5e5"/>
  </linearGradient>
  <path style="fill:none; stroke:url(#gradient1); stroke-width:4; stroke-linecap:round; stroke-linejoin:round"
        d="M28 32H14
           M10 38L21 18L32 38"
  />
 </g>
</svg>
