<?xml version="1.0" encoding="UTF-8" standalone="yes"?>
<svg version="1.1" width="64" height="64" color-interpolation="linearRGB"
     xmlns:svg="http://www.w3.org/2000/svg" xmlns="http://www.w3.org/2000/svg">
 <g>
  <path style="fill:#000000; fill-opacity:0.4"
        d="M63 41L62 31L57 27L56 21L51 19V25L48 27L44 24L27 38L18 33L1 42L7 53L14 52L20 55L22 61L34 62L35 58L43 56L51 58L54 54L56 56L60 52L58 48L60 41H63z"
  />
  <path style="fill:none; stroke:#000000; stroke-width:4"
        d="M62 39L61 32L55.88 27.51L52 20V15L45 8L43 11L38 9L34 4L30 7L35 15V20L32 21L37 30H41L41.99 31.16L45 32L44.58 34.18L47 37L50 44L56 46L54 40L57 37L62 39z
           M42 21C43.11 19.87 45.75 20.76 48 23C50.22 25.22 51.11 27.88 50 29C48.88 30.11 46.22 29.22 44 27C41.75 24.76 40.88 22.11 42 21z"
  />
  <linearGradient id="gradient0" gradientUnits="userSpaceOnUse" x1="54.59" y1="-14.92" x2="85.23" y2="17.73">
   <stop offset="0" stop-color="#ffffff"/>
   <stop offset="0.3254" stop-color="#d9bfa2"/>
   <stop offset="0.6932" stop-color="#f2ece7"/>
   <stop offset="1" stop-color="#bf9a73"/>
  </linearGradient>
  <path style="fill:url(#gradient0)"
        d="M62 39L61 32L55.88 27.51L52 20V15L45 8L43 11L38 9L34 4L30 7L35 15V20L32 21L37 30H41L41.99 31.16L45 32L44.58 34.18L47 37L50 44L56 46L54 40L57 37L62 39z
           M42 21C43.11 19.87 45.75 20.76 48 23C50.22 25.22 51.11 27.88 50 29C48.88 30.11 46.22 29.22 44 27C41.75 24.76 40.88 22.11 42 21z"
  />
  <path style="fill:none; stroke:#000000; stroke-width:4"
        d="M37 30L32 21L33.98 20.35L35 15L26 11L23 17L15 19L9 15L4 22L8 28L7 37L2 42L7 51L13 48L21 52L23 59L32 57L31 49L36 43H43L45 32L37 30z
           M28 35C28 38.31 25.53 41 22.5 41C19.46 41 17 38.31 17 35C17 31.68 19.46 29 22.5 29C25.53 29 28 31.68 28 35z"
  />
  <linearGradient id="gradient1" gradientUnits="userSpaceOnUse" x1="35.44" y1="-16.92" x2="69.54" y2="10.31">
   <stop offset="0" stop-color="#ffffff"/>
   <stop offset="0.3274" stop-color="#b8c2d9"/>
   <stop offset="0.6949" stop-color="#e6eaf2"/>
   <stop offset="1" stop-color="#8fa0bf"/>
  </linearGradient>
  <path style="fill:url(#gradient1)"
        d="M37 30L32 21L33.98 20.35L35 15L26 11L23 17L15 19L9 15L4 22L8 28L7 37L2 42L7 51L13 48L21 52L23 59L32 57L31 49L36 43H43L45 32L37 30z
           M28 35C28 38.31 25.53 41 22.5 41C19.46 41 17 38.31 17 35C17 31.68 19.46 29 22.5 29C25.53 29 28 31.68 28 35z"
  />
 </g>
</svg>
