<?xml version="1.0" encoding="UTF-8" standalone="yes"?>
<svg version="1.1" width="64" height="64" color-interpolation="linearRGB"
     xmlns:svg="http://www.w3.org/2000/svg" xmlns="http://www.w3.org/2000/svg">
 <g>
  <path style="fill:#010101; fill-opacity:0.4117"
        d="M26 64H56L58 62L55 61L59 58H62L64 56L34 52V56L26 64z"
  />
  <path style="fill:none; stroke:#000000; stroke-width:4"
        d="M14 16V35L16 37V57L20 59H22V60L26 62L32 56V39L34 37V18L21 12L14 16z"
  />
  <linearGradient id="gradient0" gradientUnits="userSpaceOnUse" x1="73.74" y1="-57.07" x2="116.61" y2="-8.05">
   <stop offset="0" stop-color="#ffff80"/>
   <stop offset="1" stop-color="#ffd500"/>
  </linearGradient>
  <path style="fill:url(#gradient0)"
        d="M14 16V34L16 37V57L20 59H22V60L26 62V42H28V22L14 16z"
  />
  <linearGradient id="gradient1" gradientUnits="userSpaceOnUse" x1="-43.97" y1="-38.98" x2="-24.83" y2="-56.95">
   <stop offset="0" stop-color="#ffffff"/>
   <stop offset="1" stop-color="#ffff80"/>
  </linearGradient>
  <path style="fill:url(#gradient1)"
        d="M14 16L28 22L34 18L22 16L25.99 13.99L21 12L14 16z"
  />
  <linearGradient id="gradient2" gradientUnits="userSpaceOnUse" x1="54.23" y1="-52.61" x2="75.84" y2="-45.97">
   <stop offset="0" stop-color="#e59900"/>
   <stop offset="1" stop-color="#ffd500"/>
  </linearGradient>
  <path style="fill:url(#gradient2)"
        d="M28 42H26V62L32 56V39L34 37V18L28 22V42z"
  />
  <path style="fill:#cc7700"
        d="M26 42V48L32 39L28 42H26z"
  />
  <linearGradient id="gradient3" gradientUnits="userSpaceOnUse" x1="25.92" y1="-64" x2="36.07" y2="-64">
   <stop offset="0" stop-color="#e59900"/>
   <stop offset="1" stop-color="#ffd500"/>
  </linearGradient>
  <path style="fill:url(#gradient3)"
        d="M22 16L34 18L26 14L22 16z"
  />
  <path style="fill:none; stroke:#000000; stroke-width:4"
        d="M24 2C21 2 18 5 18 8C18 11 21 14 24 14C27 14 30 11 30 8C30 5 27 2 24 2z"
  />
  <linearGradient id="gradient4" gradientUnits="userSpaceOnUse" x1="54.23" y1="-52.61" x2="75.84" y2="-45.97">
   <stop offset="0" stop-color="#e59900"/>
   <stop offset="1" stop-color="#ffd500"/>
  </linearGradient>
  <path style="fill:url(#gradient4)"
        d="M20 59H22V42L20 41V59z"
  />
  <radialGradient id="gradient5" gradientUnits="userSpaceOnUse" cx="0" cy="0" r="64" gradientTransform="matrix(0.1562,0,0,0.1562,22,6)">
   <stop offset="0" stop-color="#f2f2f2"/>
   <stop offset="0.6666" stop-color="#7d7a7a"/>
   <stop offset="1" stop-color="#ffbf80"/>
  </radialGradient>
  <path style="fill:url(#gradient5)"
        d="M24 10C21.77 10 19.76 9.68 18.11 9.18C18.81 11.74 21.37 14 24 14C26.52 14 29.11 11.74 29.77 9.18C28.14 9.68 26.11 10 24 10z"
  />
  <path style="fill:#000000"
        d="M24 2C18.45 2 14 3.74 14 6C14 8.17 18.45 10 24 10C29.5 10 34 8.17 34 6C34 3.74 29.5 2 24 2z"
  />
  <radialGradient id="gradient6" gradientUnits="userSpaceOnUse" cx="0" cy="0" r="64" gradientTransform="matrix(0.1562,0,0,0.1562,22,6)">
   <stop offset="0" stop-color="#ffff80"/>
   <stop offset="0.6666" stop-color="#e59900"/>
  </radialGradient>
  <path style="fill:url(#gradient6)"
        d="M29.87 7.08C29.37 4.4 26.69 2 24 2C21.25 2 18.58 4.43 18.06 7.08C19.39 7.58 21.37 8 24 8C26.56 8 28.5 7.58 29.87 7.08z"
  />
  <path style="fill:none; stroke:#000000; stroke-width:2"
        d="M13 35L4 44"
  />
  <path style="fill:#000000"
        d="M3.29 43.25C1.64 44.71 2.13 47.57 3.32 48.69C4.37 50.02 5.58 51.05 6.77 52.05C9.05 53.84 12.5 56.74 8.43 57.55C7.01 58 5.46 58.21 3.93 58.64C3.13 58.84 2.37 59.21 1.72 59.8C0.84 60.79 2.03 61.75 2.69 61.96C5.74 62.96 8.87 63 12 63C8.92 62.8 5.71 62.57 2.9 61.5C1 60.8 2.61 59.54 4.11 59.34C5.58 59 7.11 58.89 8.68 58.52C10.17 58.57 12.66 56.39 11.09 54.5C10.09 53.02 8.87 52.02 7.77 50.96C5.67 49 2.79 46.19 4.71 44.69L3.29 43.25z"
  />
  <path style="fill:none; stroke:#000000; stroke-width:4"
        d="M28 55C28 55 28 56 29 56H43V57H45V56H58C59 56 59 54 58 54H45V46H58C59 46 59 44 58 44H45V38H57C58 38 58 36 57 36H45V35H43V44H34C34 44 34 43 33 43H29C28 43 28 44 28 44V55z
           M43 46V54H34V46H43z"
        transform="matrix(0.7071,0.7071,-0.7071,0.7071,47.2299,-18.1948)"
  />
  <linearGradient id="gradient7" gradientUnits="userSpaceOnUse" x1="27.39" y1="41.05" x2="28.98" y2="56.03">
   <stop offset="0" stop-color="#eed6a1"/>
   <stop offset="0.749" stop-color="#a5791a"/>
   <stop offset="1" stop-color="#cca042"/>
  </linearGradient>
  <path style="fill:url(#gradient7)"
        d="M43 57H45V47L44 46L45 45V35H43V57z
           M28 55C28 55 28 56 29 56H41V54H35L34 55V45L35 46H41V44H34C34 44 34 43 33 43H29C28 43 28 44 28 44V55z"
        transform="matrix(0.7071,0.7071,-0.7071,0.7071,47.2299,-18.1948)"
  />
  <linearGradient id="gradient8" gradientUnits="userSpaceOnUse" x1="50.56" y1="72.21" x2="46.54" y2="71.83">
   <stop offset="0" stop-color="#b08b3c"/>
   <stop offset="1" stop-color="#956704"/>
  </linearGradient>
  <path style="fill:url(#gradient8)"
        d="M47 56H58C59 56 59 54 58 54H47V56z"
        transform="matrix(0.7071,0.7071,-0.7071,0.7071,47.2299,-18.1948)"
  />
  <linearGradient id="gradient9" gradientUnits="userSpaceOnUse" x1="50.56" y1="72.21" x2="46.54" y2="71.83">
   <stop offset="0" stop-color="#b08b3c"/>
   <stop offset="1" stop-color="#956704"/>
  </linearGradient>
  <path style="fill:url(#gradient9)"
        d="M47 56H58C59 56 59 54 58 54H47V56z"
        transform="matrix(0.7071,0.7071,-0.7071,0.7071,54.301,-25.2658)"
  />
  <linearGradient id="gradient10" gradientUnits="userSpaceOnUse" x1="50.56" y1="72.21" x2="46.54" y2="71.83">
   <stop offset="0" stop-color="#b08b3c"/>
   <stop offset="1" stop-color="#956704"/>
  </linearGradient>
  <path style="fill:url(#gradient10)"
        d="M47 56H58C59 56 59 54 58 54H47V56z"
        transform="matrix(0.6467,0.6467,-0.7071,0.7071,62.7937,-28.0867)"
  />
 </g>
</svg>
