<?xml version="1.0" encoding="UTF-8" standalone="yes"?>
<svg version="1.1" width="64" height="64" color-interpolation="linearRGB"
     xmlns:svg="http://www.w3.org/2000/svg" xmlns="http://www.w3.org/2000/svg">
 <g>
  <path style="fill:none; stroke:#000000; stroke-opacity:0.4; stroke-width:4; stroke-linecap:round; stroke-linejoin:round"
        d="M6 1.99H36V40H6V1.99z"
        transform="matrix(1,0,0,1,2,2)"
  />
  <path style="fill:none; stroke:#000080; stroke-width:4; stroke-linecap:round; stroke-linejoin:round"
        d="M6 1.99H36V40H6V1.99z"
  />
  <linearGradient id="gradient0" gradientUnits="userSpaceOnUse" x1="128" y1="1.99" x2="128" y2="40">
   <stop offset="0" stop-color="#ffffff"/>
   <stop offset="1" stop-color="#d9d9ff"/>
  </linearGradient>
  <path style="fill:url(#gradient0)"
        d="M6 1.99H36V40H6V1.99z"
  />
  <path style="fill:none; stroke:#003f80; stroke-width:4; stroke-linecap:round; stroke-linejoin:round"
        d="M22 8V34H26L21 40L16 34H20V8H16L21 2L26 8H22z"
  />
  <linearGradient id="gradient1" gradientUnits="userSpaceOnUse" x1="128" y1="2" x2="128" y2="40">
   <stop offset="0" stop-color="#abd5ff"/>
   <stop offset="1" stop-color="#006cd9"/>
  </linearGradient>
  <path style="fill:url(#gradient1)"
        d="M22 8V34H26L21 40L16 34H20V8H16L21 2L26 8H22z"
  />
 </g>
</svg>
