<?xml version="1.0" encoding="UTF-8" standalone="yes"?>
<svg version="1.1" width="64" height="64" color-interpolation="linearRGB"
     xmlns:svg="http://www.w3.org/2000/svg" xmlns="http://www.w3.org/2000/svg">
 <g>
  <path style="fill:none; stroke:#000000; stroke-width:4"
        d="M31 32C24 28 14 26 7 31C4 33 2 37 2 40C2 45 4 49 7 53C6 55 4 55 2 54C5 56 8 57 10 56C12 58 15 59 17 60C20 61 24 62 28 62C34 62 39 60 41 55C45 46 38 36 31 32z"
  />
  <radialGradient id="gradient0" gradientUnits="userSpaceOnUse" cx="0" cy="0" r="64" gradientTransform="matrix(0.4391,0.2625,-0.1589,0.2658,13.6466,37.066)">
   <stop offset="0" stop-color="#ffcece"/>
   <stop offset="0.7064" stop-color="#ff0404"/>
   <stop offset="1" stop-color="#c10505"/>
  </radialGradient>
  <path style="fill:url(#gradient0)"
        d="M31 32C24 28 14 26 7 31C4 33 2 37 2 40C2 45 4 49 7 53C6 55 4 55 2 54C5 56 8 57 10 56C12 58 15 59 17 60C20 61 24 62 28 62C34 62 39 60 41 55C45 46 38 36 31 32z"
  />
  <radialGradient id="gradient1" gradientUnits="userSpaceOnUse" cx="0" cy="0" r="64" gradientTransform="matrix(0.4391,0.2625,-0.1589,0.2658,13.6466,37.066)">
   <stop offset="0" stop-color="#ff0404"/>
   <stop offset="1" stop-color="#c10505"/>
  </radialGradient>
  <path style="fill:url(#gradient1)"
        d="M31 32C29 31 27 29 24.05 29.07C19 29 24 36 29 41C34 46 40 51 42 49C42 42 36 35 31 32z"
  />
  <path style="fill:none; stroke:#ffffff; stroke-width:2; stroke-linecap:square"
        d="M6 45C6 45 8.66 49.66 13.33 52.83C18 56 24 57 24 57"
  />
  <path style="fill:none; stroke:#ffffff; stroke-width:2; stroke-linecap:square"
        d="M6 45C6 45 8.66 49.66 13.33 52.83C18 56 24 57 24 57"
        transform="matrix(0.9974,0.0714,-0.0635,0.887,3.6313,-0.6342)"
  />
  <path style="fill:none; stroke:#000000; stroke-width:4"
        d="M54 37C58.2 34.87 62 32 62 26C62 18.33 57 11 50 7C42 2 30 1 23 6C17.78 9.72 17 16 19 21C22 30 33 36 42 38C45 39 48.54 38.85 51 38C53 43 56 47 60.25 48.2C58 47 55.2 41.87 54 37z"
  />
  <radialGradient id="gradient2" gradientUnits="userSpaceOnUse" cx="0" cy="0" r="64" gradientTransform="matrix(0.4075,0.2896,-0.2096,0.2949,34.2291,11.689)">
   <stop offset="0" stop-color="#aae4f3"/>
   <stop offset="0.7064" stop-color="#0392b6"/>
   <stop offset="1" stop-color="#03627a"/>
  </radialGradient>
  <path style="fill:url(#gradient2)"
        d="M54 37C58.2 34.87 62 32 62 26C62 18.33 57 11 50 7C42 2 30 1 23 6C17.78 9.72 17 16 19 21C22 30 33 36 42 38C45 39 48.54 38.85 51 38C53 43 56 47 60.25 48.2C58 47 55.2 41.87 54 37z"
  />
  <path style="fill:none; stroke:#ffffff; stroke-width:2; stroke-linecap:square"
        d="M22 21C22 21 25.24 25.54 31 29C36 32 44 34 44 34"
  />
  <path style="fill:none; stroke:#ffffff; stroke-width:2; stroke-linecap:square"
        d="M22 21C22 21 25.24 25.54 31 29C36 32 44 34 44 34"
        transform="matrix(0.9382,-0.037,0.0347,0.9993,1.4976,-3.7525)"
  />
 </g>
</svg>
